<svg xmlns="http://www.w3.org/2000/svg" width="400" height="200" viewBox="0 0 400 200">
  <defs>
    <style>
      .cls-1 {
        fill: #fdfdfd;
        fill-rule: evenodd;
      }
    </style>
  </defs>
  <path id="破产字体宋体" class="cls-1" d="M21.619,108.706l0.66,0.54,0.84-1.08c1.5-2.04,2.46-3.3,2.76-3.72,0.36-.42,1.08-1.62,2.22-3.48v15.239l-0.36,8.4a14.972,14.972,0,0,0,3.6-2.16v-5.34h6.54v3.12c0.9-.42,1.44-0.6,1.56-0.66a21.236,21.236,0,0,0,2.04-1.26l-0.3-5.819V96.466l1.32-1.26a1.128,1.128,0,0,0,.48-0.54,4.249,4.249,0,0,0-.84-0.72l-3.18-2.28-1.74,2.64h-6l0.9-2.04a30.211,30.211,0,0,0,1.32-3.36c0.42-1.2.84-2.52,1.26-4.08,0.42-1.44.84-2.76,1.14-3.84h9.72a1.6,1.6,0,0,0,1.08-.24,1.717,1.717,0,0,0-.66-1.02l-3.6-3.48-2.76,3.3H27.259l-4.86-.12,2.1,2.28a20.774,20.774,0,0,1,5.34-.72H32l-0.42,2.58a73.279,73.279,0,0,1-2.7,9.54c-1.14,3.42-2.22,6.18-3.12,8.28A50.434,50.434,0,0,1,21.619,108.706Zm9.72,7.079V95.746h6.54v20.039h-6.54ZM51.2,82.007l-4.26-2.58,0.3,5.1a57.074,57.074,0,0,1,.12,5.82c-0.06,2.34-.12,4.62-0.24,6.96-0.12,2.28-.24,4.44-0.48,6.48a35.766,35.766,0,0,1-1.2,6.84,21.2,21.2,0,0,1-2.58,6.479,29.11,29.11,0,0,1-3.42,4.56c-1.08,1.2-2.82,2.82-5.16,4.92l0.42,0.66a61.505,61.505,0,0,0,6.6-5.22,20.483,20.483,0,0,0,4.74-5.7,25.225,25.225,0,0,0,2.58-6.419,47.229,47.229,0,0,0,1.26-6.48q0.36-2.97.54-4.86h3.54c0.54,3.54.96,5.94,1.2,7.26a32.46,32.46,0,0,0,1.56,4.68,33.225,33.225,0,0,0,2.46,4.679l-1.5,1.56a24.529,24.529,0,0,1-4.08,3.12,46.161,46.161,0,0,1-6.12,3.48,72.161,72.161,0,0,1-8.52,3.12l0.12,0.84c3.54-.9,6.6-1.74,9.24-2.64a46.644,46.644,0,0,0,6.9-3,58.976,58.976,0,0,0,6-4.08,69.473,69.473,0,0,0,11.04,8.88l1.08-1.14a2.384,2.384,0,0,1,1.26-.78,6.028,6.028,0,0,1,1.8-.54l1.8-.06a4.3,4.3,0,0,0,.78-0.06v-0.66a33.117,33.117,0,0,1-9.54-3.6,31.754,31.754,0,0,1-5.76-4.44c1.38-1.979,2.34-3.479,2.88-4.439,0.54-.9,1.38-2.46,2.52-4.56,1.08-2.16,1.74-3.6,1.98-4.26s0.48-1.38.78-2.04l1.68-.78a2,2,0,0,0,.96-0.66,1.788,1.788,0,0,0-.72-0.84l-3.78-3-1.74,2.52h-5.7v-13.8h9.84l-1.44,2.52c-0.24.42-.96,1.44-2.1,3.12l0.6,0.48c2.46-1.98,3.96-3.18,4.68-3.66a8.211,8.211,0,0,1,1.92-.96,11.191,11.191,0,0,1,1.92-.24,1.5,1.5,0,0,0,1.2-.3c0.12-.18,0-0.42-0.3-0.72l-4.8-4.26-2.04,2.7h-9.48v-5.94l1.56-.96a1.578,1.578,0,0,0,.66-0.6c0.06-.18-0.36-0.42-1.14-0.72l-5.04-1.92,0.36,5.82v4.32H51.2Zm-0.66,15.119,0.24-13.8h8.16v13.8h-8.4Zm11.1,15.6-0.72-.72a13.136,13.136,0,0,1-1.86-2.76c-0.9-1.56-1.44-2.64-1.74-3.3a12.187,12.187,0,0,1-1.08-2.88c-0.42-1.32-.72-2.22-0.84-2.64-0.06-.48-0.18-1.08-0.3-1.86H68.3c-1.14,3.18-2.16,5.76-3.06,7.68a33.032,33.032,0,0,1-2.04,4.14C62.658,111.166,62.178,111.946,61.638,112.726Zm22.142-31.8,2.88,2.82a12.807,12.807,0,0,1,5.76-1.14h25.439a30.638,30.638,0,0,1-1.26,4.02c-0.48,1.38-1.86,4.5-4.08,9.3H94.279l-4.68-2.7,0.36,5.16c0.12,2.1.18,4.32,0.18,6.6,0,2.4-.06,4.5-0.18,6.36a31.627,31.627,0,0,1-.72,5.4,20.1,20.1,0,0,1-2.16,5.16,39.929,39.929,0,0,1-4.8,6.42l0.6,0.6c1.98-1.68,3.6-3.18,4.92-4.5a14.939,14.939,0,0,0,3.24-4.56,22.533,22.533,0,0,0,1.92-5.16,34.678,34.678,0,0,0,.78-6c0.12-2.22.18-4.32,0.18-6.24,0.06-1.98.06-3.66,0.12-5.16h42.718a1.073,1.073,0,0,0,.96-0.24c0.12-.12-0.06-0.42-0.54-0.96l-3.84-3.9-3.24,3.72H114.258l6.3-8.82,1.5-.42c0.48-.18.72-0.36,0.66-0.54a1.212,1.212,0,0,0-.54-0.72l-4.02-2.82H135.8a0.662,0.662,0,0,0,.6-0.3c0.06-.18-0.42-0.84-1.56-1.86l-3.12-2.94-2.94,3.72-38.338-.06Zm15,3.48a17.7,17.7,0,0,1,2.94,3.84,12.514,12.514,0,0,1,1.079,3.6,7.771,7.771,0,0,0,.48,2.28,1.486,1.486,0,0,0,.84.48,1.419,1.419,0,0,0,1.32-.3,2.745,2.745,0,0,0,1.26-1.44,3.572,3.572,0,0,0,.3-1.8,2.309,2.309,0,0,0-.48-1.56,10.62,10.62,0,0,0-1.92-1.98,41.148,41.148,0,0,0-5.219-3.54Zm7.019-12.3c0.78,0.84,1.32,1.5,1.68,1.92a19.279,19.279,0,0,1,1.08,2.04,7.159,7.159,0,0,1,.54,2.64,5.645,5.645,0,0,0,.18,1.68,1.106,1.106,0,0,0,.84.54,1.4,1.4,0,0,0,1.44-.42,5.173,5.173,0,0,0,1.2-1.62,3.934,3.934,0,0,0,.36-1.74,4.941,4.941,0,0,0-1.62-2.28,18.027,18.027,0,0,0-5.34-3.24Zm36.421,32.1,2.64,2.46a12.387,12.387,0,0,1,4.74-.96h19.079v14.819c0,1.08-.12,1.74-0.36,1.86a1.809,1.809,0,0,1-1.38.36c-0.72.12-3.3-.3-7.8-1.08l-0.18.78a21.673,21.673,0,0,0,2.76,1.02,9.844,9.844,0,0,1,2.879,1.56,3.182,3.182,0,0,1,1.08,1.68,7.753,7.753,0,0,1,.18,1.74c3.3-.96,5.16-1.8,5.58-2.58a8.273,8.273,0,0,0,.9-2.16,10.57,10.57,0,0,0,.24-2.52V105.706h24.3a0.741,0.741,0,0,0,.72-0.24,1.26,1.26,0,0,0-.48-0.78l-4.68-4.5-3.06,4.08h-16.8v-2.58l1.98-1.5-0.48-.36,6.24-3.6,2.64-1.5a9.619,9.619,0,0,1,3.36-1.14,2.586,2.586,0,0,0,1.559-.42,0.727,0.727,0,0,0-.3-0.72l-4.319-3.9-2.1,2.22H153.319l-2.52-.12,2.4,2.4,1.14-.54a6.425,6.425,0,0,1,2.7-.36h23.939c-2.58,2.46-5.22,4.86-7.98,7.26l-4.62-1.92,0.3,4.86v1.92H144.859Zm7.68-26.579-0.72,3.72a4.082,4.082,0,0,1-.78,1.8,8.827,8.827,0,0,1-1.38,1.56l-2.28,1.8a1.885,1.885,0,0,0-.9,1.56,1.7,1.7,0,0,0,.54,1.2,2,2,0,0,0,1.62.6c1.74,0.06,2.94-.48,3.48-1.8a11.953,11.953,0,0,0,.96-2.52,5,5,0,0,0,.24-1.56c0.12-.66.18-1.44,0.36-2.4h38.518l-1.86,3.18c-0.24.42-.96,1.44-2.1,3.06l0.54,0.48,1.139-.96,2.22-2.1a9.325,9.325,0,0,1,4.08-2.46l2.52-.3a0.686,0.686,0,0,0,.54-0.54,1,1,0,0,0-.42-0.72l-4.56-4.08-2.46,3H171.738a7.531,7.531,0,0,0,1.02-2.64,5.5,5.5,0,0,0-.36-1.5,4.972,4.972,0,0,0-1.5-1.5,44.341,44.341,0,0,0-5.1-2.7l-0.36.54a22.49,22.49,0,0,1,2.04,2.76,14.856,14.856,0,0,1,.96,2.1c0.18,0.6.48,1.56,0.78,2.94H151.039l-0.3-2.52H149.9Zm52.86,26.039,0.6,0.42c1.62-2.1,2.94-3.9,3.84-5.34,0.9-1.38,2.16-3.42,3.66-6.06v21.6l-0.36,12.78a15.918,15.918,0,0,0,4.02-2.1l-0.3-9.66V90.166l0.96-.9a1.272,1.272,0,0,0,.6-0.66l-0.84-.36-1.74-.9c1.26-2.94,2.76-6.66,4.56-11.16l1.56-.78a0.837,0.837,0,0,0,.48-0.42,0.728,0.728,0,0,0-.48-0.48l-4.92-2.76-0.66,3.54c-0.3,1.5-.78,3.36-1.38,5.58-0.66,2.22-1.44,4.68-2.4,7.32-0.96,2.76-1.92,5.1-2.76,7.08C206.239,97.306,204.8,100.126,202.759,103.666Zm12.42,11.519,0.72,0.78,4.08-3.479a40.531,40.531,0,0,0,4.139-4.02,60.122,60.122,0,0,0,3.84-4.92c0.96-1.38,1.98-3.12,3.06-5.04,1.08-2.04,1.8-3.48,2.22-4.38,0.36-.9.84-2.16,1.44-3.66v20.4h-7.56l-3.78-.12,2.52,2.46a12.882,12.882,0,0,1,4.44-1.02h4.38v3.9l-0.42,11.64a13.361,13.361,0,0,0,4.26-1.74l-0.42-7.32v-6.479h10.559c0.3,0,.42,0,0.42-0.12,0.06,0,0-.18-0.18-0.42l-3.359-3.54-2.76,2.76-4.68-.06V86.687l1.02-.06,1.02,4.74a58.519,58.519,0,0,0,2.34,7.32,34.976,34.976,0,0,0,3.72,7.5c1.439,2.16,2.519,3.66,3.179,4.56s1.62,1.98,2.88,3.359l0.84-1.019q1.17-1.62,4.86-.9l0.24-.66a34.762,34.762,0,0,1-3.96-2.22,15.409,15.409,0,0,1-2.76-2.28,32.177,32.177,0,0,1-3.3-3.72,58.738,58.738,0,0,1-3.659-5.52,25.8,25.8,0,0,1-2.76-6.24c-0.6-2.04-1.08-3.66-1.38-4.92h15a0.353,0.353,0,0,0,.3-0.12c0.06-.06,0-0.18-0.12-0.3l-4.68-4.38-2.58,3.42H238.1v-9.36l1.38-.9a1.1,1.1,0,0,0,.72-0.72,3.2,3.2,0,0,0-.6-0.42l-5.16-2.28,0.24,6.06v7.62H221.659l-4.32-.12,2.4,2.34a22.466,22.466,0,0,1,5.519-.84h7.08l-1.38,4.14c-0.66,1.86-1.62,4.26-3,7.26a45.085,45.085,0,0,1-5.1,8.52A79.479,79.479,0,0,1,215.179,115.185Zm70.2-17.039a73.433,73.433,0,0,1-7.5,11.4,69.576,69.576,0,0,1-7.8,8.159,64.692,64.692,0,0,1-7.86,5.64l0.48,0.84a59.053,59.053,0,0,0,12.48-8.28c4.26-3.659,7.319-6.719,9.059-9.239,1.74-2.46,3.06-4.38,3.9-5.64v15.059l-0.42,11.88c1.02-.3,1.8-0.54,2.4-0.78a6.739,6.739,0,0,0,1.8-1.08l-0.3-9.84V98.146h0.9c0.6,1.74,1.26,3.54,1.98,5.28a35.015,35.015,0,0,0,3.72,6.48,28.615,28.615,0,0,0,4.56,5.519,35.144,35.144,0,0,0,4.259,3.36,17.444,17.444,0,0,0,3.54,1.98,7.384,7.384,0,0,1,2.7-2.34,12.015,12.015,0,0,1,3.96-.48l0.06-.84a41.894,41.894,0,0,1-7.8-2.28,22.8,22.8,0,0,1-9.119-6.539,29.088,29.088,0,0,1-6.24-10.14h21a0.867,0.867,0,0,0,.42-0.12,0.707,0.707,0,0,0-.36-0.6l-4.56-4.26-3.18,3.6-15.839-.06v-8.4l1.8-1.2a1.332,1.332,0,0,0,.54-0.6,1.824,1.824,0,0,0-.96-0.48l-5.22-2.04,0.36,6v6.78H268.219l-4.56-.12,2.52,2.4c0.66-.24,1.38-0.42,2.28-0.66,0.9-.12,1.56-0.24,1.98-0.24h14.939ZM272.9,81.347c-0.12-1.38-.24-2.28-0.3-2.76-0.06-.42-0.18-0.96-0.3-1.56l-0.72.06-0.12,1.56a32.61,32.61,0,0,1-.66,3.9,6.049,6.049,0,0,1-2.76,4.08,10.9,10.9,0,0,0-2.52,1.8,1.636,1.636,0,0,0-.24.96,1.846,1.846,0,0,0,.72,1.32,2.864,2.864,0,0,0,2.04.54,4.525,4.525,0,0,0,2.52-.84,4.332,4.332,0,0,0,1.56-2.4,15.058,15.058,0,0,0,.6-2.94c0.06-.84.18-1.62,0.24-2.4h36l-1.02,2.22c-0.12.24-1.14,2.16-3.119,5.76l0.66,0.54c3.179-3.78,5.219-5.88,6.239-6.42a8.661,8.661,0,0,1,2.7-.96l2.22-.24a1.315,1.315,0,0,0,.96-0.36,0.682,0.682,0,0,0-.36-0.66l-5.7-4.56-2.58,3.36H291.5a7.072,7.072,0,0,0,1.56-1.92,3.783,3.783,0,0,0,.36-2.1,4.164,4.164,0,0,0-1.68-2.58,22.1,22.1,0,0,0-5.7-3.06l-0.36.66a18.269,18.269,0,0,1,2.4,3.06,9.331,9.331,0,0,1,.84,1.98,15.568,15.568,0,0,1,.42,1.86c0.06,0.54.18,0.9,0.18,1.08a2.818,2.818,0,0,0,.36.54,2.894,2.894,0,0,0,.72.48H272.9Zm49.86,22.319,0.6,0.42c1.62-2.1,2.94-3.9,3.84-5.34,0.9-1.38,2.16-3.42,3.66-6.06v21.6l-0.36,12.78a15.918,15.918,0,0,0,4.02-2.1l-0.3-9.66V90.166l0.96-.9a1.272,1.272,0,0,0,.6-0.66l-0.84-.36-1.74-.9c1.26-2.94,2.76-6.66,4.56-11.16l1.56-.78a0.837,0.837,0,0,0,.48-0.42,0.728,0.728,0,0,0-.48-0.48l-4.92-2.76-0.66,3.54c-0.3,1.5-.78,3.36-1.38,5.58-0.66,2.22-1.44,4.68-2.4,7.32-0.96,2.76-1.92,5.1-2.76,7.08C326.239,97.306,324.8,100.126,322.759,103.666Zm12.42,11.519,0.72,0.78,4.08-3.479a40.531,40.531,0,0,0,4.139-4.02,60.122,60.122,0,0,0,3.84-4.92c0.96-1.38,1.98-3.12,3.06-5.04,1.08-2.04,1.8-3.48,2.22-4.38,0.36-.9.84-2.16,1.44-3.66v20.4h-7.56l-3.78-.12,2.52,2.46a12.882,12.882,0,0,1,4.44-1.02h4.38v3.9l-0.42,11.64a13.361,13.361,0,0,0,4.26-1.74l-0.42-7.32v-6.479h10.559c0.3,0,.42,0,0.42-0.12,0.06,0,0-.18-0.18-0.42l-3.359-3.54-2.76,2.76-4.68-.06V86.687l1.02-.06,1.02,4.74a58.519,58.519,0,0,0,2.34,7.32,34.976,34.976,0,0,0,3.72,7.5c1.439,2.16,2.519,3.66,3.179,4.56s1.62,1.98,2.88,3.359l0.84-1.019q1.17-1.62,4.86-.9l0.24-.66a34.762,34.762,0,0,1-3.96-2.22,15.409,15.409,0,0,1-2.76-2.28,32.177,32.177,0,0,1-3.3-3.72,58.738,58.738,0,0,1-3.659-5.52,25.8,25.8,0,0,1-2.76-6.24c-0.6-2.04-1.08-3.66-1.38-4.92h15a0.353,0.353,0,0,0,.3-0.12c0.06-.06,0-0.18-0.12-0.3l-4.68-4.38-2.58,3.42H358.1v-9.36l1.38-.9a1.1,1.1,0,0,0,.72-0.72,3.2,3.2,0,0,0-.6-0.42l-5.16-2.28,0.24,6.06v7.62H341.659l-4.32-.12,2.4,2.34a22.466,22.466,0,0,1,5.519-.84h7.08l-1.38,4.14c-0.66,1.86-1.62,4.26-3,7.26a45.085,45.085,0,0,1-5.1,8.52A79.479,79.479,0,0,1,335.179,115.185Z"/>
</svg>
