<svg xmlns="http://www.w3.org/2000/svg" width="1540" height="1450" viewBox="0 0 1540 1450">
  <defs>
    <style>
      .cls-1 {
        fill: #fff;
      }

      .cls-1, .cls-2, .cls-3 {
        fill-rule: evenodd;
      }

      .cls-2 {
        fill: #fefefe;
      }

      .cls-3 {
        fill: #fdfdfd;
      }
    </style>
  </defs>
  <path id="字体名称" class="cls-1" d="M176.012,297.935l2.2,1.8,2.8-3.6c5-6.8,8.2-11,9.2-12.4,1.2-1.4,3.6-5.4,7.4-11.6v50.8l-1.2,28a49.91,49.91,0,0,0,12-7.2v-17.8h21.8v10.4c3-1.4,4.8-2,5.2-2.2a70.872,70.872,0,0,0,6.8-4.2l-1-19.4v-53.4l4.4-4.2c1-.8,1.6-1.4,1.6-1.8,0-.2-1-1-2.8-2.4l-10.6-7.6-5.8,8.8h-20l3-6.8a100.748,100.748,0,0,0,4.4-11.2c1.4-4,2.8-8.4,4.2-13.6,1.4-4.8,2.8-9.2,3.8-12.8h32.4c2.2,0,3.2-.4,3.6-0.8,0-.8-0.6-1.8-2.2-3.4l-12-11.6-9.2,11h-41.2l-16.2-.4,7,7.6a69.251,69.251,0,0,1,17.8-2.4h7.2l-1.4,8.6a244.3,244.3,0,0,1-9,31.8c-3.8,11.4-7.4,20.6-10.4,27.6A168.118,168.118,0,0,1,176.012,297.935Zm32.4,23.6v-66.8h21.8v66.8h-21.8Zm66.2-112.6-14.2-8.6,1,17a190.267,190.267,0,0,1,.4,19.4c-0.2,7.8-.4,15.4-0.8,23.2-0.4,7.6-.8,14.8-1.6,21.6a119.2,119.2,0,0,1-4,22.8,70.664,70.664,0,0,1-8.6,21.6,97.074,97.074,0,0,1-11.4,15.2c-3.6,4-9.4,9.4-17.2,16.4l1.4,2.2a204.918,204.918,0,0,0,22-17.4,68.279,68.279,0,0,0,15.8-19,84.087,84.087,0,0,0,8.6-21.4,157.431,157.431,0,0,0,4.2-21.6q1.2-9.9,1.8-16.2h11.8c1.8,11.8,3.2,19.8,4,24.2a108.251,108.251,0,0,0,5.2,15.6,110.8,110.8,0,0,0,8.2,15.6l-5,5.2c-2,2.2-6.6,5.8-13.6,10.4a153.877,153.877,0,0,1-20.4,11.6,240.6,240.6,0,0,1-28.4,10.4l0.4,2.8c11.8-3,22-5.8,30.8-8.8a155.474,155.474,0,0,0,23-10,196.476,196.476,0,0,0,20-13.6,231.588,231.588,0,0,0,36.8,29.6l3.6-3.8c0.6-1,2-1.8,4.2-2.6a20.1,20.1,0,0,1,6-1.8l6-.2a14.347,14.347,0,0,0,2.6-.2v-2.2c-13.8-3.4-24.6-7.4-31.8-12a105.893,105.893,0,0,1-19.2-14.8c4.6-6.6,7.8-11.6,9.6-14.8,1.8-3,4.6-8.2,8.4-15.2,3.6-7.2,5.8-12,6.6-14.2s1.6-4.6,2.6-6.8l5.6-2.6c2-1,3-1.6,3.2-2.2,0-.6-0.8-1.4-2.4-2.8l-12.6-10-5.8,8.4h-19v-46h32.8l-4.8,8.4c-0.8,1.4-3.2,4.8-7,10.4l2,1.6c8.2-6.6,13.2-10.6,15.6-12.2a27.374,27.374,0,0,1,6.4-3.2,37.3,37.3,0,0,1,6.4-.8c2.4,0,3.6-.4,4-1s0-1.4-1-2.4l-16-14.2-6.8,9h-31.6v-19.8l5.2-3.2c1.4-1,2.2-1.6,2.2-2,0.2-.6-1.2-1.4-3.8-2.4l-16.8-6.4,1.2,19.4v14.4h-25.8Zm-2.2,50.4,0.8-46h27.2v46h-28Zm37,52-2.4-2.4c-1.2-1-3.2-4-6.2-9.2s-4.8-8.8-5.8-11a40.624,40.624,0,0,1-3.6-9.6c-1.4-4.4-2.4-7.4-2.8-8.8-0.2-1.6-.6-3.6-1-6.2h44c-3.8,10.6-7.2,19.2-10.2,25.6a110.143,110.143,0,0,1-6.8,13.8C312.81,306.135,311.21,308.735,309.41,311.335Zm73.8-106,9.6,9.4c5.2-2.6,11.6-3.8,19.2-3.8h84.8a102.119,102.119,0,0,1-4.2,13.4c-1.6,4.6-6.2,15-13.6,31h-60.8l-15.6-9,1.2,17.2c0.4,7,.6,14.4.6,22,0,8-.2,15-0.6,21.2a105.436,105.436,0,0,1-2.4,18,66.994,66.994,0,0,1-7.2,17.2c-3.4,6-8.6,13-16,21.4l2,2c6.6-5.6,12-10.6,16.4-15a49.8,49.8,0,0,0,10.8-15.2,75.119,75.119,0,0,0,6.4-17.2,115.642,115.642,0,0,0,2.6-20c0.4-7.4.6-14.4,0.6-20.8,0.2-6.6.2-12.2,0.4-17.2h142.4c1.8,0,3-.2,3.2-0.8,0.4-.4-0.2-1.4-1.8-3.2l-12.8-13-10.8,12.4h-52.8l21-29.4,5-1.4c1.6-.6,2.4-1.2,2.2-1.8q0-.9-1.8-2.4l-13.4-9.4h58.8a2.207,2.207,0,0,0,2-1c0.2-.6-1.4-2.8-5.2-6.2l-10.4-9.8-9.8,12.4-127.8-.2Zm50,11.6a59.053,59.053,0,0,1,9.8,12.8,41.618,41.618,0,0,1,3.6,12c0.6,4.2,1,6.8,1.6,7.6a4.953,4.953,0,0,0,2.8,1.6,4.728,4.728,0,0,0,4.4-1,9.152,9.152,0,0,0,4.2-4.8,11.91,11.91,0,0,0,1-6,7.7,7.7,0,0,0-1.6-5.2c-0.8-1.4-3-3.6-6.4-6.6s-9.2-6.8-17.4-11.8Zm23.4-41c2.6,2.8,4.4,5,5.6,6.4a64.242,64.242,0,0,1,3.6,6.8,23.856,23.856,0,0,1,1.8,8.8,18.819,18.819,0,0,0,.6,5.6,3.686,3.686,0,0,0,2.8,1.8c1.6,0.6,3.2,0,4.8-1.4a17.248,17.248,0,0,0,4-5.4,13.115,13.115,0,0,0,1.2-5.8c-0.2-1.8-2-4.2-5.4-7.6s-9.2-7-17.8-10.8Zm121.4,107,8.8,8.2a41.291,41.291,0,0,1,15.8-3.2h63.6v49.4c0,3.6-.4,5.8-1.2,6.2-0.6.8-2.2,1.2-4.6,1.2-2.4.4-11-1-26-3.6l-0.6,2.6a72.218,72.218,0,0,0,9.2,3.4,32.794,32.794,0,0,1,9.6,5.2c2,2,3.4,3.8,3.6,5.6a25.842,25.842,0,0,1,.6,5.8c11-3.2,17.2-6,18.6-8.6a27.577,27.577,0,0,0,3-7.2,35.232,35.232,0,0,0,.8-8.4v-51.6h81c1.4,0,2-.2,2.4-0.8,0-.6-0.4-1.4-1.6-2.6l-15.6-15-10.2,13.6h-56v-8.6l6.6-5-1.6-1.2,20.8-12,8.8-5c4.4-2.2,8.2-3.6,11.2-3.8,3.2-.4,5-0.8,5.2-1.4s0-1.4-1-2.4l-14.4-13-7,7.4h-92.8l-8.4-.4,8,8,3.8-1.8q2.1-1.2,9-1.2h79.8c-8.6,8.2-17.4,16.2-26.6,24.2l-15.4-6.4,1,16.2v6.4h-79.4Zm25.6-88.6-2.4,12.4a13.609,13.609,0,0,1-2.6,6,29.422,29.422,0,0,1-4.6,5.2l-7.6,6c-2.2,1.8-3.2,3.6-3,5.2a5.658,5.658,0,0,0,1.8,4c1.2,1.4,3,2,5.4,2,5.8,0.2,9.8-1.6,11.6-6,1.8-4,3-6.8,3.2-8.4a16.667,16.667,0,0,0,.8-5.2c0.4-2.2.6-4.8,1.2-8h128.4l-6.2,10.6c-0.8,1.4-3.2,4.8-7,10.2l1.8,1.6,3.8-3.2,7.4-7c5.4-4.8,10-7.6,13.6-8.2l8.4-1c1.2-.6,1.8-1,1.8-1.8,0.2-.4-0.4-1.4-1.4-2.4l-15.2-13.6-8.2,10h-58.2c2.2-4.2,3.4-7.2,3.4-8.8a18.314,18.314,0,0,0-1.2-5,16.573,16.573,0,0,0-5-5c-2.6-1.8-8.2-4.8-17-9l-1.2,1.8a74.993,74.993,0,0,1,6.8,9.2,49.533,49.533,0,0,1,3.2,7c0.6,2,1.6,5.2,2.6,9.8h-60.6l-1-8.4h-2.8Zm176.2,86.8,2,1.4c5.4-7,9.8-13,12.8-17.8,3-4.6,7.2-11.4,12.2-20.2v72l-1.2,42.6a53.059,53.059,0,0,0,13.4-7l-1-32.2v-83.8l3.2-3c1.4-1,2-1.8,2-2.2l-2.8-1.2-5.8-3c4.2-9.8,9.2-22.2,15.2-37.2l5.2-2.6c1-.6,1.6-1,1.6-1.4,0-.6-0.6-1-1.6-1.6l-16.4-9.2-2.2,11.8c-1,5-2.6,11.2-4.6,18.6-2.2,7.4-4.8,15.6-8,24.4-3.2,9.2-6.4,17-9.2,23.6C791.412,259.935,786.612,269.335,779.812,281.135Zm41.4,38.4,2.4,2.6,13.6-11.6c3.8-3,8.2-7.4,13.8-13.4a200.408,200.408,0,0,0,12.8-16.4c3.2-4.6,6.6-10.4,10.2-16.8,3.6-6.8,6-11.6,7.4-14.6,1.2-3,2.8-7.2,4.8-12.2v68h-25.2l-12.6-.4,8.4,8.2c5.8-2.2,10.6-3.4,14.8-3.4h14.6v13l-1.4,38.8c6.6-1.8,11.2-3.6,14.2-5.8l-1.4-24.4v-21.6h35.2c1,0,1.4,0,1.4-.4,0.2,0,0-.6-0.6-1.4l-11.2-11.8-9.2,9.2-15.6-.2v-80.4l3.4-.2,3.4,15.8a195.065,195.065,0,0,0,7.8,24.4,116.582,116.582,0,0,0,12.4,25c4.8,7.2,8.4,12.2,10.6,15.2s5.4,6.6,9.6,11.2l2.8-3.4q3.9-5.4,16.2-3l0.8-2.2a115.874,115.874,0,0,1-13.2-7.4,51.363,51.363,0,0,1-9.2-7.6c-3.2-2.8-6.8-7.2-11-12.4a195.763,195.763,0,0,1-12.2-18.4,85.981,85.981,0,0,1-9.2-20.8c-2-6.8-3.6-12.2-4.6-16.4h50a1.175,1.175,0,0,0,1-.4c0.2-.2,0-0.6-0.4-1l-15.6-14.6-8.6,11.4h-34v-31.2l4.6-3c1.8-1,2.4-1.8,2.4-2.4a10.677,10.677,0,0,0-2-1.4l-17.2-7.6,0.8,20.2v25.4h-43.4l-14.4-.4,8,7.8a74.91,74.91,0,0,1,18.4-2.8h23.6l-4.6,13.8c-2.2,6.2-5.4,14.2-10,24.2a150.275,150.275,0,0,1-17,28.4A265.648,265.648,0,0,1,821.212,319.535Zm234-56.8a244.778,244.778,0,0,1-25,38c-9.6,11.4-18,20.4-26,27.2a215.455,215.455,0,0,1-26.2,18.8l1.6,2.8c13.4-6.4,27.4-15.6,41.6-27.6,14.2-12.2,24.4-22.4,30.2-30.8,5.8-8.2,10.2-14.6,13-18.8v50.2l-1.4,39.6c3.4-1,6-1.8,8-2.6a22.463,22.463,0,0,0,6-3.6l-1-32.8v-60.4h3c2,5.8,4.2,11.8,6.6,17.6,2.4,6,6.6,13.2,12.4,21.6,5.8,8.6,11,14.8,15.2,18.4a117.022,117.022,0,0,0,14.2,11.2,58.146,58.146,0,0,0,11.8,6.6q5.1-6.3,9-7.8c2.6-1,7-1.6,13.2-1.6l0.2-2.8a139.708,139.708,0,0,1-26-7.6c-10.4-3.6-20.6-11-30.4-21.8s-16.8-22-20.8-33.8h70a2.891,2.891,0,0,0,1.4-.4c0.2-.4-0.2-1-1.2-2l-15.2-14.2-10.6,12-52.8-.2v-28l6-4c1.2-1,1.8-1.6,1.8-2,0.2-.2-1-0.8-3.2-1.6l-17.4-6.8,1.2,20v22.6h-66.4l-15.2-.4,8.4,8c2.2-.8,4.6-1.4,7.6-2.2,3-.4,5.2-0.8,6.6-0.8h49.8Zm-41.6-56c-0.4-4.6-.8-7.6-1-9.2-0.2-1.4-.6-3.2-1-5.2l-2.4.2-0.4,5.2a108.7,108.7,0,0,1-2.2,13c-1,5.8-4.2,10.2-9.2,13.6q-7.8,4.8-8.4,6a5.452,5.452,0,0,0-.8,3.2c0,1.6.8,2.8,2.4,4.4a9.547,9.547,0,0,0,6.8,1.8,15.082,15.082,0,0,0,8.4-2.8,14.442,14.442,0,0,0,5.2-8,50.2,50.2,0,0,0,2-9.8c0.2-2.8.6-5.4,0.8-8h120l-3.4,7.4c-0.4.8-3.8,7.2-10.4,19.2l2.2,1.8c10.6-12.6,17.4-19.6,20.8-21.4a28.869,28.869,0,0,1,9-3.2l7.4-.8c1.8-.2,2.8-0.6,3.2-1.2,0.2-.6-0.2-1.4-1.2-2.2l-19-15.2-8.6,11.2h-58.2a23.573,23.573,0,0,0,5.2-6.4,12.61,12.61,0,0,0,1.2-7c-0.2-2.8-2.2-5.6-5.6-8.6s-9.8-6.4-19-10.2l-1.2,2.2c4.2,4.6,6.8,8,8,10.2a31.1,31.1,0,0,1,2.8,6.6,51.912,51.912,0,0,1,1.4,6.2c0.2,1.8.6,3,.6,3.6a9.392,9.392,0,0,0,1.2,1.8,9.648,9.648,0,0,0,2.4,1.6h-59Zm166.2,74.4,2,1.4c5.4-7,9.8-13,12.8-17.8,3-4.6,7.2-11.4,12.2-20.2v72l-1.2,42.6a53.059,53.059,0,0,0,13.4-7l-1-32.2v-83.8l3.2-3c1.4-1,2-1.8,2-2.2l-2.8-1.2-5.8-3c4.2-9.8,9.2-22.2,15.2-37.2l5.2-2.6c1-.6,1.6-1,1.6-1.4,0-.6-0.6-1-1.6-1.6l-16.4-9.2-2.2,11.8c-1,5-2.6,11.2-4.6,18.6-2.2,7.4-4.8,15.6-8,24.4-3.2,9.2-6.4,17-9.2,23.6C1191.41,259.935,1186.61,269.335,1179.81,281.135Zm41.4,38.4,2.4,2.6,13.6-11.6c3.8-3,8.2-7.4,13.8-13.4a200.408,200.408,0,0,0,12.8-16.4c3.2-4.6,6.6-10.4,10.2-16.8,3.6-6.8,6-11.6,7.4-14.6,1.2-3,2.8-7.2,4.8-12.2v68h-25.2l-12.6-.4,8.4,8.2c5.8-2.2,10.6-3.4,14.8-3.4h14.6v13l-1.4,38.8c6.6-1.8,11.2-3.6,14.2-5.8l-1.4-24.4v-21.6h35.2c1,0,1.4,0,1.4-.4,0.2,0,0-.6-0.6-1.4l-11.2-11.8-9.2,9.2-15.6-.2v-80.4l3.4-.2,3.4,15.8a195.065,195.065,0,0,0,7.8,24.4,116.582,116.582,0,0,0,12.4,25c4.8,7.2,8.4,12.2,10.6,15.2s5.4,6.6,9.6,11.2l2.8-3.4q3.9-5.4,16.2-3l0.8-2.2a115.874,115.874,0,0,1-13.2-7.4,51.363,51.363,0,0,1-9.2-7.6c-3.2-2.8-6.8-7.2-11-12.4a195.763,195.763,0,0,1-12.2-18.4,85.981,85.981,0,0,1-9.2-20.8c-2-6.8-3.6-12.2-4.6-16.4h50a1.175,1.175,0,0,0,1-.4c0.2-.2,0-0.6-0.4-1l-15.6-14.6-8.6,11.4h-34v-31.2l4.6-3c1.8-1,2.4-1.8,2.4-2.4a10.677,10.677,0,0,0-2-1.4l-17.2-7.6,0.8,20.2v25.4h-43.4l-14.4-.4,8,7.8a74.91,74.91,0,0,1,18.4-2.8h23.6l-4.6,13.8c-2.2,6.2-5.4,14.2-10,24.2a150.275,150.275,0,0,1-17,28.4A265.665,265.665,0,0,1,1221.21,319.535Z"/>
  <path id="中文示例" class="cls-2" d="M263.048,703.333l0.5,13.7v33.7l-0.5,17.4c0.6-.2,1.6-0.6,3.1-1.2a7.777,7.777,0,0,0,2.6-1.2,5.5,5.5,0,0,0,.7-0.9v-8.8h18.2v8a13.521,13.521,0,0,0,6.6-3l-0.6-10.6v-38.6l3.1-2.2c0.3-.2.5-0.4,0.4-0.5a1.022,1.022,0,0,0-.4-0.7l-6.8-5.4-3.4,4.8h-15.4Zm6.4,50.4v-20.6h18.2v20.6h-18.2Zm0-23.1v-20.4h18.2v20.4h-18.2Zm6.9,59.5,0.8,1.3a106.071,106.071,0,0,0,13.6-7.2,65.494,65.494,0,0,0,9.5-7.7,42.5,42.5,0,0,0,7-9,27.848,27.848,0,0,0,2.9-9c0.5-3.1.8-5.6,1.1-7.5h23.1v26.2a5.031,5.031,0,0,1-.5,2.7c-0.3.3-1.9,0.3-4.8-.1s-6.5-.9-10.9-1.5l-0.3,1.3a42.226,42.226,0,0,1,7.9,2.7,9,9,0,0,1,3,2.2c0.6,0.7,1.4,2.6,2.3,5.6a48.569,48.569,0,0,0,6.3-3,6.388,6.388,0,0,0,2.3-3,11.257,11.257,0,0,0,.8-3.6V705.833l2.9-2.2a1.072,1.072,0,0,0,.6-0.8,1.909,1.909,0,0,0-.9-1.1l-7.1-4.4-3.2,4.9h-20.2l-7-3.7,0.3,11.9v26.2a110.85,110.85,0,0,1-2.4,26.8,27.644,27.644,0,0,1-12.9,18.1C283.749,785.838,279.048,788.638,276.348,790.138Zm35-41.4,0.3-20.8h22.7v20.8h-23Zm0.5-23.1,0.3-21h22.2v21h-22.5Zm44.6,64.3,1,1,1.9-1.2,6.7-3.9a86.456,86.456,0,0,0,9.8-7.2,21.253,21.253,0,0,0,7.1-10.5,42.058,42.058,0,0,0,2.3-9.9c0.2-2.5.4-5,.5-7.4h36.5v25.6a4.432,4.432,0,0,1-.5,2.5c-0.3.5-1.3,0.8-3,1q-2.55.15-14.7-1.8l-0.1,1.4c5.7,1.7,9.2,3,10.4,3.8a5.951,5.951,0,0,1,2.4,2.8,17.549,17.549,0,0,1,1.2,3.2,25.4,25.4,0,0,0,4.9-1.6,13.841,13.841,0,0,0,4-2.6,4.13,4.13,0,0,0,1.5-3.3v-73.5l2.3-1.7c1.1-.7,1.6-1.2,1.5-1.4a4.3,4.3,0,0,0-1.6-1.5l-6.5-4.4-3.6,4.8h-33.3l-7.2-4.2,0.6,12.4c0.1,1.4.1,4.6,0.1,9.7,0,0.9-.1,6.1-0.2,15.8s-0.4,16.8-.9,21.3a37.971,37.971,0,0,1-5.2,14.2C371.348,778.238,365.348,783.838,356.447,789.938Zm29.5-41.5,0.4-19.6h35.9v19.6h-36.3Zm0.5-22,0.2-20h35.6v19.9Zm79.7,23,0.6,9.2v18.8l-3.6,2.6,7.1,5,3.2-4.4h57.8v9.3l1-.3,2.8-1.1a17.349,17.349,0,0,0,2.9-1.3l-0.5-9.4v-21.6l2.1-1.7a1.506,1.506,0,0,0,.7-0.9,1.721,1.721,0,0,0-1.1-.8l-8.5-3.2,0.6,9.9v18.8h-26.7v-38.8h23v3.5a15.461,15.461,0,0,0,6.6-2.4l-0.5-9.8v-13.8l2.3-1.8a1.15,1.15,0,0,0,.6-0.7,0.855,0.855,0,0,0-.6-0.6l-9-4.2,0.6,10.8v16.7h-23v-31.9l2.4-1.6a3.939,3.939,0,0,0,1.3-1.1,2.914,2.914,0,0,0-1.3-.8l-8.7-3.8,0.5,14.2v25h-21.4v-20l2.2-2,0.8-.8c0.1-.1-0.2-0.2-0.8-0.5l-8.4-3.2,0.2,11.3v12.2l-3.5,3.3,6.1,5.5,3.8-3.5h21v38.8h-25.9v-22.1l2.6-1.7a8.215,8.215,0,0,0,1.1-.9c0.1-.1-0.4-0.4-1.3-0.8Zm91.9,37.7,0.6,1.4q12-4.95,20.7-9.6a48.285,48.285,0,0,0,13.4-10.6,49.421,49.421,0,0,0,6.6-10,48.849,48.849,0,0,0,2.6-7,55.6,55.6,0,0,0,1.3-6.4c0.3-2.2.7-4.9,1.1-8.2h1.3c0.9,4.5,1.7,7.8,2.2,9.9a111.807,111.807,0,0,0,3.9,11.3,45.07,45.07,0,0,0,10,15.5,80.956,80.956,0,0,0,16.4,13,13.807,13.807,0,0,1,4.5-3.8c1.5-.7,4.1-1.1,8-1.1v-1.5a58.907,58.907,0,0,1-6.5-1.7,50.244,50.244,0,0,1-8.4-3.6,37.73,37.73,0,0,1-9.7-6.2,56.113,56.113,0,0,1-6.7-7.2,39.19,39.19,0,0,1-4.4-6.5c-1-1.8-2-3.8-3-6.1-0.9-2.3-1.6-4-2-5.4a48.736,48.736,0,0,1-1.8-6.6h37.7a0.6,0.6,0,0,0,.6-0.3,0.622,0.622,0,0,0-.3-0.7l-8-7.5-4.9,6.1h-28.6l0.6-7.8c0.1-.9.5-6.7,1.2-17.2h34.9a0.565,0.565,0,0,0,.6-0.2s-0.2-.3-0.6-0.8l-7.6-7.1-4.8,5.9h-55.3l-6.6-.3,4.2,4a30.1,30.1,0,0,1,9.8-1.5h18.5l-0.5,8.6c-0.2,4.1-.4,7.3-0.5,9.6-0.2,2.2-.4,4.5-0.6,6.8h-31.3l-7.2-.1,4.3,4.1a24.977,24.977,0,0,1,9.9-1.6h24l-0.4,4.5c-0.2,1.7-.5,3.7-0.8,5.9a53.983,53.983,0,0,1-2.3,9c-1.3,3.8-4,7.8-8,12a73.466,73.466,0,0,1-13.3,10.7C568.148,781.738,563.148,784.538,558.047,787.138Zm109.9-13-4.4,3.3,6.8,6.6,3.4-4.8h58.6v10.1a36,36,0,0,0,7.2-3.9l-0.6-10.4v-46.1l2.7-2.1a2.751,2.751,0,0,0,.8-0.9c0.1-.3-0.6-0.7-2-1.3l-8.8-3.8,0.7,13v43h-27.6v-68.1l3.5-2.4a3.2,3.2,0,0,0,1.1-1.2c0.1-.1-0.5-0.4-1.6-0.9l-9.8-3.8,0.6,14.4v62h-24.7l-0.1-51.1,2.9-2.2a2.862,2.862,0,0,0,1.3-1.2,10.208,10.208,0,0,0-1.6-.9l-9-3.7,0.6,12.1v44.3Zm122.9-22.5,0.5,1.5c5.3-2.5,9.1-4.5,11.7-5.9,2.4-1.4,5.8-3.5,9.9-6.2v33.4c0,3.3.7,5.6,1.9,7.1a13.021,13.021,0,0,0,5.4,3.1c2.4,0.7,10.5,1,24.6,1l15.3-.1a55.747,55.747,0,0,0,11.4-1c2.8-.8,4.5-1.8,5.1-3.3a25.365,25.365,0,0,0,1.1-3,9.018,9.018,0,0,1-3.1-3.5,13.259,13.259,0,0,1-1-5.2c-0.2-2.2-.3-4.7-0.4-7.6h-1.3l-0.5,6.6a63.909,63.909,0,0,1-.7,6.6,7.106,7.106,0,0,1-1.5,3.6,11.636,11.636,0,0,1-4,1.8c-1.8.4-8.6,0.5-20.1,0.1l-19.7-.4q-4.652-.45-6-2.1c-0.9-1.1-1.4-3.6-1.4-7.5v-28.2h36.5l-0.6,5.7c-0.4,4.3-.8,7.4-1.1,9.4a7.984,7.984,0,0,1-1.6,4,3.746,3.746,0,0,1-2.7,1.1c-0.9,0-6.3-.8-16.4-2.4l-0.2,1.7a40.863,40.863,0,0,1,9.1,2.7c1.9,0.9,3,2,3.3,3.1a22.872,22.872,0,0,1,.7,3.6c3.6-1.1,6.1-2,7.6-3a8.01,8.01,0,0,0,3.2-3.6q1.2-2.4,2.1-9c0.6-4.4.9-7,1.1-7.6,0-.8.2-2.5,0.5-5.4,3.7,2.4,7.7,4.7,12,7l1.6-2c1.1-1.4,3.7-2.2,7.9-2.4v-1.2a68.6,68.6,0,0,1-11.8-2.7,53.656,53.656,0,0,1-13.5-7.3,96.946,96.946,0,0,1-15.8-14.5l2.2-.1a0.438,0.438,0,0,0,.5-0.6,1.817,1.817,0,0,0-1.1-1l-9.1-4a76.384,76.384,0,0,1-10.5,13.5,111.846,111.846,0,0,1-13.5,11.8C803.447,742.936,797.547,747.136,790.846,751.636Zm26-13.1c6.2-5.5,12.9-11.6,20.2-18.5,3.5,4.9,6.3,8.3,8.2,10.5,2,2,5.3,5.2,9.9,9.5h-36.2Zm-24.4-27.9,4.6,4.7,2.3-1c1.3-.7,3.6-1,6.8-1h14.2v4.3l-0.4,4.4,2.1-.2a12.137,12.137,0,0,0,3.7-1.3l-0.3-4v-3.2h21.4v3.3l-0.2,5.7a17.608,17.608,0,0,0,6-1.8l-0.4-4.1v-3.1h24.9a0.963,0.963,0,0,0,.9-0.4c0.2-.3-0.1-0.8-0.6-1.3l-6.4-6.5-4.7,5.8h-14.1l0.1-6.8,2-1.3a1.714,1.714,0,0,0,1-.9c0-.3-0.5-0.6-1.6-1.1l-7.1-3,0.2,7.2v5.9h-21.4v-6.6l2.2-1.6a2.987,2.987,0,0,0,1.2-1.2,4.689,4.689,0,0,0-1-.6l-7.8-2.9,0.3,7v5.9h-18.8Zm98.3,31.2a32.19,32.19,0,0,1,5.8,4.9,16.631,16.631,0,0,1,2.9,4.8,29.146,29.146,0,0,0,1.6,3.2c0.6,1,1.1,1.5,1.6,1.5a3.152,3.152,0,0,0,1.8-1.3,5.836,5.836,0,0,0,1.3-3.9,7.911,7.911,0,0,0-.9-3.5c-0.5-1.3-2.2-2.5-5-3.6q-4.05-1.65-8.4-3.3Zm3.4-26.5a18.245,18.245,0,0,1,6.5-1.2h18.2v6l-0.5,7.5q3.9-1.35,4.5-1.5a17.8,17.8,0,0,0,2.1-1l-0.5-5v-6h19.6v4.7l-0.5,7.8a21.743,21.743,0,0,0,7.3-3.1l-0.4-5.4v-4h30.7a1.862,1.862,0,0,0,1.5-.4c0.1-.3-0.3-0.9-1.1-1.6l-7.4-6.6-5.5,6.2h-18.2v-8.2l2.6-1.8a1.451,1.451,0,0,0,.8-0.8,2.488,2.488,0,0,0-.7-0.5l-9.6-4,0.5,8v7.3h-19.6v-8l1.9-1c0.9-.5,1.4-0.9,1.3-1.2,0-.3-0.5-0.6-1.6-1.1l-7.7-3.3,0.5,7.7v6.9h-24l-3.9-.2Zm0.6,54.1c3.4,0.9,5.5,1.8,6.1,2.9a6.54,6.54,0,0,1,1.3,3.5,14.131,14.131,0,0,1-1.1,6.1,16.724,16.724,0,0,0-1.3,4.7,3.965,3.965,0,0,0,.7,2.9,5.585,5.585,0,0,0,2.3,1.8,4.79,4.79,0,0,0,2.6.6,2.891,2.891,0,0,0,1.8-1.1c0.5-.6.7-1.8,0.5-3.7a49.676,49.676,0,0,1-.5-5c-0.1-1.5-.1-2.9-0.1-4.2,0.1-1.2.2-2.7,0.5-4.6,0.3-1.8.5-3.5,0.9-5.2,0.2-1.6,1.4-5.4,3.4-11.6,1.9-6,3.4-10.4,4.2-12.8,1-2.6,2.6-6.9,5.1-13.1l-1.4-.5c-1.9,4.1-4.4,9.8-7.4,16.9s-5.2,12.2-6.6,15.3-2.7,4.9-3.9,5.4c-1.3.6-3.5,0.6-6.7,0.1Zm3.7-43.6a43.891,43.891,0,0,1,4.5,3,13.371,13.371,0,0,1,3.2,3.5,21.652,21.652,0,0,1,2.2,3.9c0.6,1.3,1.1,2.1,1.6,2.3a2.043,2.043,0,0,0,2-.1c0.7-.4,1.1-1.3,1.3-2.7a7.963,7.963,0,0,0-.1-3.8c-0.3-1-1.4-2-3.1-3.2-1.7-1-5.5-2.5-11.2-4.3Zm19.6,15.3,3.6,3.9a8.89,8.89,0,0,1,4.7-1.4h2.4v38.2l-3.5,2.7,7.8,5.8,2.1-4.4h43.9a1.246,1.246,0,0,0,1.1-.4c0.2-.3,0-0.7-0.5-1.2l-8.1-7.3-5.3,6.6h-31.3v-40h46.3a2,2,0,0,0,1.5-.3q0.15-.45-0.9-1.5l-6.8-6.3-4.8,5.8h-18.5a20.126,20.126,0,0,0,2.4-4.2,4.006,4.006,0,0,0,.3-2,9.937,9.937,0,0,0-1-2.6c-0.7-1.2-2.9-2.5-6.6-4s-6.5-2.5-8.2-3.1l-0.5,1a42.1,42.1,0,0,1,7.1,6.5,43.909,43.909,0,0,1,5.2,8.4h-26.7Zm153.4-12.2-5.2,6.7h-62.7l-11.1-.4,5.2,5.3,2.6-1.4a8.675,8.675,0,0,1,3-.8,22.924,22.924,0,0,1,4.3-.4h22.5l-1.1,3.2a73.036,73.036,0,0,1-4.9,9.6c-2.4,4-4.3,7-5.8,9s-3.6,4.7-6.4,8c-2.9,3.4-4.8,5.4-5.8,6a17.264,17.264,0,0,1-5.2,1.5l6,8.5,2.3-.8c1.3-.5,7.9-1.5,19.7-3,11.8-1.4,23-2.7,33.5-3.7l0.8,3.8,0.7,3.2a2.54,2.54,0,0,0,1.5,2c0.9,0.4,2-.1,3.5-1.5a7.171,7.171,0,0,0,2.3-5.1,11.14,11.14,0,0,0-.9-4.9,27.6,27.6,0,0,0-4-6.4,87.232,87.232,0,0,0-7.4-7.9,110.747,110.747,0,0,0-11.8-9.3l-0.8,1a87.469,87.469,0,0,1,8.7,10.1,49.1,49.1,0,0,1,4.2,6.9c0.9,1.8,1.8,3.7,2.7,5.8-18.1.9-35.8,1.5-53.1,1.9l9.8-10c4.3-4.2,10.1-11.1,17.2-20.8l2.2-.8c1.2-.3,1.8-0.6,1.7-0.9a2.862,2.862,0,0,0-1.3-1.2l-6-4.2h46.7a0.775,0.775,0,0,0,.9-0.2c0.1-.1-0.2-0.6-0.9-1.3Zm-68.8-21.3,4.9,5,3.3-1.3c1.8-.7,4.8-1.1,8.9-1.1h49a1.292,1.292,0,0,0,.8-0.2c0.1-.1-0.3-0.7-1.3-1.6l-6.8-6.5-5.2,6h-44.6Zm85.8,14.2a24.129,24.129,0,0,1,4.7,5.7,34.071,34.071,0,0,1,2.1,4.4,25.379,25.379,0,0,1,1,3.6c0.2,1.1.4,1.7,0.8,1.9a2.01,2.01,0,0,0,.8.4c0.7,0.1,1.6-.4,2.8-1.7a5.451,5.451,0,0,0,1.5-4c-0.1-1.5-1-3.2-2.7-5.3-1.6-2.1-5.1-4-10.4-5.9Zm26.2-8.6c-2.9,8.3-5.9,16.5-8.8,24.5s-4.9,13.4-6,16.1c-1,2.7-2,4.5-3,5.1-1,.8-3.5.9-7.5,0.5v1.3c4.3,0.8,6.8,1.8,7.6,2.9a6.96,6.96,0,0,1,1.2,4.2c0,0.8-.1,2.1-0.3,4a58.5,58.5,0,0,1-1.1,6.2,11.711,11.711,0,0,0-.5,4.5,3.3,3.3,0,0,0,.8,2.2,5.936,5.936,0,0,0,1.8,1.3,8.929,8.929,0,0,0,2,.6,3.029,3.029,0,0,0,2.2-.5,3.5,3.5,0,0,0,1-2.6c0-1.3-.1-3-0.3-5-0.2-2.2-.3-3.9-0.4-5.3a50.22,50.22,0,0,1,0-5.5c0.1-2,.3-4.6.7-7.6a73.318,73.318,0,0,1,1.2-7.3c0.3-1.7,1.5-6.4,3.6-13.9,2-7.5,3.5-13,4.6-16.2,1-3.4,1.9-6.3,2.8-8.9Zm-17.6-12.2,2.3,2a16.6,16.6,0,0,1,3.7,4.3,38.934,38.934,0,0,1,2.5,5,9.127,9.127,0,0,0,1.4,2.8,2.544,2.544,0,0,0,.7.2c0.5,0.1,1.3-.6,2.6-2,1.2-1.3,1.3-3.1.4-5.2-1-2.2-5.3-5-12.9-8.3Zm39.9,48.5-0.7.8c2.3,3.4,3.6,5.8,4,7.3a22.71,22.71,0,0,1,.8,4.1c0.2,1.2.3,2.2,0.4,3a5.945,5.945,0,0,0,.2,1.7,1.684,1.684,0,0,0,1.1.6c1,0.3,2-.3,2.9-1.5a7.672,7.672,0,0,0,1.2-4.8,7.171,7.171,0,0,0-2-4.6c-1.3-1.3-2.6-2.5-3.8-3.6C1139.65,751.436,1138.35,750.436,1136.95,749.536Zm1.9-21.4-0.7.8a28.855,28.855,0,0,1,4.6,8.6l1,3.5c0.4,1.1.9,1.8,1.6,1.9,0.6,0.3,1.4,0,2.3-.8a3.877,3.877,0,0,0,1.4-3.2,6.588,6.588,0,0,0-1-3.8,8.2,8.2,0,0,0-3.2-3.2C1143.45,730.935,1141.45,729.735,1138.85,728.135Zm-29.2,16.9,4.1,3.9a16.706,16.706,0,0,1,5-1.4h3.3l-3.3,19.4-4.3,3,6.8,4.9,3.1-3.2h34l-0.4,2.1a22.782,22.782,0,0,1-1.1,4.1,6.7,6.7,0,0,1-5.7,4.5c-1.1.2-5-.3-11.8-1.4l-0.3,1.5c5.9,1.5,9.1,2.7,9.8,3.7a6.187,6.187,0,0,1,1.2,2.5,25.656,25.656,0,0,1,.6,2.8c4.5-1.9,7.7-3.9,9.4-6.2a16.172,16.172,0,0,0,3.2-7.1c0.4-2.5.7-4.6,1-6.5h15.4q0.6,0,.6-0.3a2.058,2.058,0,0,0-.5-0.9l-6.9-7.1-4.8,5.9h-3.8l0.2-4c0-.1.1-2.4,0.4-6.8s0.5-8,.7-10.9h15.7a0.88,0.88,0,0,0,1-.4,1.542,1.542,0,0,0-.7-1.1l-6.8-6.7-5.2,5.9h-4l0.9-16.5,2.5-1.8a11.472,11.472,0,0,0,1.7-1.1,4.186,4.186,0,0,0-1.1-.9l-6-4-3.3,3.5h-28.6l-5.1-3.5-4.2,24.3h-6.2Zm13.8,24.2c1.3-7.1,2.5-14.3,3.8-21.7h32.7l-0.5,8.6c-0.1,2.4-.4,6.8-0.9,13.1h-35.1Zm4.2-24,3.1-18.5h30.2l-0.9,18.5h-32.4Zm4.5-48.4-2,5.6c-0.3.7-1.4,3.1-3.5,7-2,3.9-4.2,7.7-6.4,11.3-2.4,3.5-5.4,7.9-9.2,13l1,0.9,3.1-2.9c2.1-2,7-8,14.8-18.1h46.1a1.17,1.17,0,0,0,1.1-.3,1.309,1.309,0,0,0-.5-1.1l-6.7-6.8-5.1,5.9h-33.3l5.1-7.2,2.2-1.1c1.1-.5,1.6-0.8,1.6-1a5.329,5.329,0,0,0-1.6-1.2Zm64.3,72.8-0.7,21.3a19.466,19.466,0,0,0,6.9-2.6l-0.4-16.3v-54l3.1-2.2a2.042,2.042,0,0,0,.9-1,1.055,1.055,0,0,0-.8-0.8l-9.7-4.1,0.7,18.3v41.4Zm8.9-70.2a51.646,51.646,0,0,1,4.7,6.7,27.754,27.754,0,0,1,1.8,3.8,12.713,12.713,0,0,1,1,4.1,7.73,7.73,0,0,0,.7,2.4,2.131,2.131,0,0,0,1.7.8,2.964,2.964,0,0,0,2.4-1.1,7.246,7.246,0,0,0,1.8-2.5,5.824,5.824,0,0,0,.2-3.9c-0.3-1.2-1.8-2.9-4.6-5a100.14,100.14,0,0,0-9-6.3Zm11.9,73.4c2.5-.9,4.7-1.7,6.4-2.4v-4.1h21.6v5.4c3.4-1.1,5.6-2.1,6.6-3.1l-0.7-9.3v-28.3l2.3-2a2.382,2.382,0,0,0,1-1.4,2.042,2.042,0,0,0-.9-1l-6.7-4.1-2.8,4.5-19.7-.1-6.9-4.1,0.5,12.7v22.6Zm6.4-8.9v-16.8h21.6v16.8h-21.6Zm0-19.1v-15.5h21.6v15.4Zm11.8-37.2-11.9-.2,4.6,4.2,2.3-.6a102.7,102.7,0,0,1,11.4-1.1h25.5v67.9a5.443,5.443,0,0,1-.9,3.5c-0.6.7-1.8,1-3.5,0.8l-11.9-1.2v1.7l4.7,1.2a10.385,10.385,0,0,1,4.6,2.1,5,5,0,0,1,1.9,2.6,10.664,10.664,0,0,1,.6,3.1,36.114,36.114,0,0,0,7.5-3.8,8,8,0,0,0,2.7-3.1,22.641,22.641,0,0,0,.4-4.6v-68.2l2.9-2.6a3.61,3.61,0,0,0,.9-0.9,2.47,2.47,0,0,0-1.2-1.1l-6.8-4.8-3.8,5.1h-30Zm-977.6,205.7,3.8,4.4a22.494,22.494,0,0,1,7.6-1.6h8.8v34.9a7.652,7.652,0,0,1-.3,2.5,5.108,5.108,0,0,1-1.1,1.6,13.883,13.883,0,0,1-3.3,2.4l6.3,6.8,1.3-1.8a23.527,23.527,0,0,1,4.7-4c2.3-1.4,5.8-3.6,10.7-6.4,4.9-2.9,8.5-5,11-6.4l-0.6-1.3c-8.9,3.7-16.4,6.5-22.5,8.6v-36.9h15.2l2.2,6.3a52.412,52.412,0,0,0,4.6,9.7,61.353,61.353,0,0,0,7.7,10.6,45.652,45.652,0,0,0,9.8,8,55.676,55.676,0,0,0,8.3,4.8l5.7,2.1a25.756,25.756,0,0,1,3.6-4.3c1-.8,3.2-1.3,6.7-1.4l-0.1-1.4a94.4,94.4,0,0,1-15.3-3.3,37.91,37.91,0,0,1-12.9-6.8,57.509,57.509,0,0,1-9.2-9.3,50.982,50.982,0,0,1-5.4-8,76.746,76.746,0,0,1-3.4-7h39.1a2.343,2.343,0,0,0,1.6-.3c0.1-.2-0.3-0.8-1.3-1.7l-7.1-6.2-5.1,5.9h-44.7v-33.6l2.9-1.8a1.821,1.821,0,0,0,1-1.1c0.1-.3-0.4-0.6-1.3-1l-9.4-3.8,0.6,15.4v25.9h-11.7Zm29.1-7,0.9,1.1a157.4,157.4,0,0,0,13.9-7.7c4.5-2.8,7.8-4.9,9.8-6.3l9.8-7c0.8-.5,2-1.2,3.6-2.3l2.8-.2c0.8,0,1.2-.1,1.3-0.4,0.1-.2-0.2-0.6-0.8-1.3l-6.4-6.9a56.365,56.365,0,0,1-6.9,8.3c-2.4,2.5-5.4,5.3-9.2,8.6C302.15,895.534,295.85,900.235,286.949,906.335Zm84.2-30.5c0.3,7.1.5,13.3,0.6,18.9,0.2,5.4.3,11.3,0.4,17.5,0,5.3-.1,9.5-0.2,12.5s-0.3,5.5-.4,7.5a58.883,58.883,0,0,1-1.1,6.5,43.134,43.134,0,0,1-1.7,5.9q-1.05,2.4-2.4,5.1a40.3,40.3,0,0,1-2.9,5.1c-1,1.5-2.7,3.9-5.2,7l1.1,1.1c1.1-1,3.1-3,5.8-6a46.1,46.1,0,0,0,6.9-10.6,44.443,44.443,0,0,0,3.7-11.8,110.816,110.816,0,0,0,1.4-12.9c0.3-4.8.4-11.8,0.6-20.9,0-9.2.1-15.4,0.2-18.5h46.1v6.2l-0.1,10.8,0.2,12.5c0.1,5.5.2,9.3,0.3,11.3s0.3,4.3.7,7a89.381,89.381,0,0,0,1.4,8.9,25.934,25.934,0,0,0,3.9,9,38.013,38.013,0,0,0,4.9,6.2,19.941,19.941,0,0,0,5.4,4,18.974,18.974,0,0,0,5.4,2.4c1.3,0.3,1.9,0,2-.6a4.682,4.682,0,0,0-.4-2.3,16.932,16.932,0,0,1-1-2.7,10.758,10.758,0,0,1-.7-3.1,21.871,21.871,0,0,1-.3-5.1c0.2-1.7.4-3.4,0.6-4.8,0.3-1.6.9-4.8,1.9-9.8l-1.7-.4c-3.1,10.3-4.8,15.8-5.1,16.4a1.585,1.585,0,0,1-1,1.1c-0.5.1-1.3-.3-2.7-1.5-1.2-1-2.7-3.4-4.2-6.9a36.021,36.021,0,0,1-3-11.6c-0.4-4.2-.7-7.8-0.8-10.7-0.2-6.4-.2-12.2,0-17.5,0.1-5.3.4-11.1,0.7-17.5l2.9-2a3.242,3.242,0,0,0,1.2-1.2,4.04,4.04,0,0,0-1.4-1.4l-6.9-4.6-3.1,5.7h-44.1Zm38.2,14.8-0.8,3.4a56.978,56.978,0,0,1-2.1,6c-1.1,2.8-1.9,4.9-2.5,6.3-0.6,1.5-1.6,3.5-2.9,6.1-6.8-6.5-10.9-10.4-12.3-11.5-1.3-1.1-3.2-2.6-5.6-4.4l-0.8,1.2a206.374,206.374,0,0,1,16.9,18.8,156.365,156.365,0,0,1-11.2,18.2,141.973,141.973,0,0,1-12.4,14.3l1.1,1.1a112.542,112.542,0,0,0,13.8-13.3q4.65-5.55,11.7-15.9a69.943,69.943,0,0,1,5.5,9,54.087,54.087,0,0,1,4,9c1,2.8,1.7,4.6,2,5.2a1.352,1.352,0,0,0,1.2.9c0.7,0.1,1.3-.4,2-1.5a11.122,11.122,0,0,0,1.4-3.4,10.1,10.1,0,0,0-.1-4.6,22.75,22.75,0,0,0-3.7-6.4,73.528,73.528,0,0,0-4.8-6.6,60.278,60.278,0,0,0-5.1-6.1c3.3-6.2,6.5-12,9.4-17.3l3.5-1.6a1.125,1.125,0,0,0,.5-0.4,1.79,1.79,0,0,0-.5-0.6Zm71-12.7,0.5,10.2c0.3,4.1.3,9.9,0.1,17.5-0.1,7.6-.4,14-0.6,19.1a62.939,62.939,0,0,1-2.8,14.6,26.152,26.152,0,0,1-8.1,11.8,107.611,107.611,0,0,1-16.1,10.9l0.8,1.5a150.816,150.816,0,0,0,14.6-7.4c2.4-1.7,4.7-3.4,6.8-5.2a32.9,32.9,0,0,0,5-5.8,26.572,26.572,0,0,0,3.2-7,86.191,86.191,0,0,0,1.8-8.6c0.5-3.2.8-7.6,1.2-13.2,0.2-5.7.5-10.5,0.6-14.6l0.1-5.1c0-2.7.1-6.6,0.4-11.8h24.8l-1.2,61.4a31.151,31.151,0,0,0,.3,7.1,7.961,7.961,0,0,0,2.2,3.3c1.1,1.1,4.9,1.6,11.3,1.7,3.1,0.1,6.8,0,11.1,0,4.3-.2,7.2-0.4,8.5-0.8a6.072,6.072,0,0,0,3.3-2.2,20.063,20.063,0,0,0,2.2-3.9l-3-2.5c-0.6-.3-1.1-1.3-1.4-2.8a38.481,38.481,0,0,1-.6-5.5c0-2.1.1-5.5,0.4-10.2l-1.6-.2-2.8,16.9c-0.3,2.1-.9,3.4-1.6,3.8a4.172,4.172,0,0,1-2,1c-0.7.1-3.2,0.2-7.6,0.3a51.22,51.22,0,0,1-8.9-.3,4.829,4.829,0,0,1-2.3-.8,2.733,2.733,0,0,1-.8-1.4c0-.6-0.1-2-0.1-4.1l0.9-57.8,3.7-2.7a4.322,4.322,0,0,0,1-1c0.1-.3-0.4-0.8-1.4-1.5l-7.3-5.1-3.7,5.1h-21.9Zm75.3,84.605,0.3,1.3a140.771,140.771,0,0,0,17.2-8.3,33.347,33.347,0,0,0,13.2-12.2,102.046,102.046,0,0,0,6.2-12.6,56.576,56.576,0,0,0,2.7-11.3c0.5-4,1-7.4,1.3-10.2h26.8l-1.4,22-0.8,10.7a45.5,45.5,0,0,1-1,5.9,8.748,8.748,0,0,1-1.8,4.1,5.968,5.968,0,0,1-3.6.9c-2.9.1-8-.7-15.4-2.2l-0.4,1.3c5.5,1.9,8.9,3.4,10.4,4.4a6.029,6.029,0,0,1,2.6,3.2c0.2,1.2.4,2.3,0.5,3.2,7.2-1.5,11.3-3.6,12.3-6.2,1-2.8,1.6-4.6,1.8-5.5,0.1-.9.3-2.5,0.5-4.6l0.7-7.3,2.1-28.4,3.2-1.9a1.763,1.763,0,0,0,.9-0.9q0.15-.3-0.9-1.2l-7.2-5.5-4.3,5.5h-24.6l0.4-4.2q0.15-1.65.6-6.3c0.2-3.1.5-6.6,0.8-10.5h49.7a0.908,0.908,0,0,0,.7-0.3,1.922,1.922,0,0,0-.7-1l-9-7.7-5.5,6.7h-70.4l-6.6-.2,4,3.9a48.836,48.836,0,0,1,5.8-1c2.4-.3,3.8-0.4,4.2-0.4h20.9l-0.6,12.3c-0.1,2.5-.3,5.4-0.6,8.6s-0.7,6.7-1.3,10.5-1.4,7.5-2.2,11.1a57.912,57.912,0,0,1-4.6,11.4,36.472,36.472,0,0,1-9,10.7c-3.7,3.2-6.6,5.4-8.5,6.8C563.148,958.338,559.947,960.238,555.647,962.538Zm100.5-4.3,3.4,3.7a11.442,11.442,0,0,1,5.2-1.1h83.3a1.636,1.636,0,0,0,1.5-.5,3.66,3.66,0,0,0-1.1-1.8l-6.5-6.8-6.3,6.8h-30.2v-18.2h33.7q1.35,0,1.5-.6c0.1-.3-0.3-1-1.4-2.1l-6.6-6.2-5.4,6.6h-21.8v-17.9h21.1v5.3a27.161,27.161,0,0,0,5.4-2.3,20.278,20.278,0,0,0,1.8-1.3l-0.6-11.8v-26.6l2.5-2.6a3.548,3.548,0,0,0,.9-1.1,3.5,3.5,0,0,0-1.4-1.2l-6.4-4.1-3.3,5.1h-45.9l-8.1-4.7,0.7,13.8v27.7l-0.6,12.6a32.44,32.44,0,0,0,6.6-2.2v-6.6h21.1v17.9h-24.5l-10-.3,3.8,4.3,1.9-.9c0.9-.5,2.7-0.8,5.6-0.8h23.2v18.2h-35.6Zm22-40.5v-16.7h21.1v16.7h-21.1Zm0-19.1v-16.8h21.1v16.8h-21.1Zm27.3,19.1v-16.7h21.1v16.7h-21.1Zm0-19.1v-16.8h21.1v16.8h-21.1Zm112.4-16.6-3.4,5.3h-12.3l-6.7-5.6,0.5,15.2v33.7l-0.5,14.5a11.641,11.641,0,0,0,5.6-2.1v-6.3h15v5.7a7.325,7.325,0,0,0,3.5-1.3,24.983,24.983,0,0,0,2.4-1.8l-0.6-9.1v-11.7c5-6.4,8-10.4,9.1-12q1.5-2.55,3.6-6c1.3-2.3,2.4-4.2,3.2-5.6h33.2l-3.6,8.1c-0.4.7-1.6,3-3.5,6.8l1.3,1.2a114.686,114.686,0,0,1,8.2-10.7,18.869,18.869,0,0,1,4.3-3.9,28.8,28.8,0,0,1,3.1-1.3c1.1-.2,1.6-0.6,1.6-1a1.382,1.382,0,0,0-.6-1.1l-7.6-5.7-3.9,5.2h-31.5c2-4.5,3.9-8.9,5.7-13l2.7-1.1c0.7-.3,1-0.5,1-0.8,0.1-.3-0.4-0.7-1.4-1.3l-7.3-4.4-1,4.8q-0.6,2.4-3.3,10.8a100.865,100.865,0,0,1-6.4,15.1q-3.75,6.75-6.9,11.7v-22.9l2.6-2.1a2.861,2.861,0,0,0,1.3-1.2,6.661,6.661,0,0,0-1.5-1.4Zm-16.8,52.3v-44.5h15v44.5h-15Zm46.4-38.3v5.9a61.688,61.688,0,0,1-.6,8,67.972,67.972,0,0,1-1.6,9.2,117.4,117.4,0,0,1-4.8,13.6,51.5,51.5,0,0,1-10.7,16.1,177.588,177.588,0,0,1-17.3,15.1l0.5,1.2,6.9-3.9c2.5-1.4,6.2-4.2,11.2-8.5a52.894,52.894,0,0,0,11.5-13.8,75.151,75.151,0,0,0,5.7-12c1.1-2.9,2.1-5.8,3-8.6l1.2,7.8a39.592,39.592,0,0,0,2.1,8.4,107.638,107.638,0,0,0,5.5,12.4c2.5,5.2,7,10.9,13.5,17.2l1.4-1.7a2.732,2.732,0,0,1,1.6-1.1,40,40,0,0,1,5.6-1.1l0.1-1.2-3.9-1.7a27.845,27.845,0,0,1-5.9-4.2,44.692,44.692,0,0,1-7.8-9.1c-2.5-3.7-4.4-6.7-5.6-8.9a79.121,79.121,0,0,1-3.5-9.2,71.226,71.226,0,0,1-2.2-8.3c-0.3-1.7-.5-4-0.7-6.9l0.7-6.7,2.1-1.4a11,11,0,0,0,1.4-.9q-0.15-.15-1.2-0.9Zm53-16.3,0.5,9.7c0.1,1.6.1,5.3,0.1,11,0.1,5.7,0,10.6-.1,14.6s-0.3,8-.5,11.9a89.707,89.707,0,0,1-.6,9.2,61.1,61.1,0,0,1-1.3,7,65.408,65.408,0,0,1-2.5,8c-1,2.8-3.4,6.9-7.3,12.3l1.2,0.9c4.1-4.5,6.8-7.7,8.1-9.4a49.4,49.4,0,0,0,3.2-5.5c0.8-1.9,1.6-3.9,2.3-5.9a44.372,44.372,0,0,0,1.7-8.6c0.4-3.8.7-7.3,0.8-10.6,0.1-3.2.3-8,.4-14.4,0.2-6.3.4-11.2,0.5-14.4,0.1-3.4.3-6.3,0.4-9h72.205c0.9,0,1.4-.2,1.5-0.5a1.352,1.352,0,0,0-.6-1.2l-7.6-7.1-5.2,6.5h-26.1l1.6-3.4a2.618,2.618,0,0,0-.3-3c-0.6-1.2-2.3-2.5-4.8-3.8s-4.6-2.3-6.1-2.9l-0.8,1c2.5,2.3,4.1,4.4,4.8,6.6a37.036,37.036,0,0,1,1.4,5.5h-29.4Zm36.9,68.3a80.266,80.266,0,0,1-20.9,11.3,132.266,132.266,0,0,1-16.5,4.8l0.5,1.5a147.9,147.9,0,0,0,18.9-4.2,84.156,84.156,0,0,0,14.2-5.1q4.35-2.25,8.4-4.8a50.175,50.175,0,0,0,10.3,5.8q5.55,2.25,10.8,3.9c3.5,1.1,6.4,2.1,8.5,2.8l1.5-2.3a5.036,5.036,0,0,1,2.4-2,21.281,21.281,0,0,1,5.7-1.8l-0.1-1.6c-3.8-.1-7.7-0.3-11.6-0.6a48.616,48.616,0,0,1-12.1-2.6,70.274,70.274,0,0,1-11.5-5.1l4-3.8c1.1-1.1,4.6-5.2,10.3-12.3l3.5-1.5a7.583,7.583,0,0,0,1.4-.5,8.5,8.5,0,0,0-1.5-1.5l-6.2-5.4-3.9,4.3h-34.8l-4.6-.3,3.2,4.3a9.735,9.735,0,0,1,3.4-1.4,29.168,29.168,0,0,1,3.3-.2l2.1-.1,1.2,2.7a49.491,49.491,0,0,0,3.5,6.6C932.449,941.537,934.649,944.637,937.349,948.037Zm-8.6-18.3,25-.1-2.3,3.8a28.172,28.172,0,0,1-4.4,5.7c-1.8,2-3.8,3.9-5.9,5.9a33.1,33.1,0,0,1-7.1-6.7A46.63,46.63,0,0,1,928.749,929.736Zm-1.3-28.5-12.3.1-5.3-.3,2.9,4.1,1.5-.8c0.8-.4,2.5-0.6,5.2-0.6h7.9v9.5l-0.5,9.7a13.435,13.435,0,0,0,6.2-2.8v-2.2h18.6v3.8a14.274,14.274,0,0,0,3.2-1.4,13.63,13.63,0,0,0,2.9-2.1l-0.4-6.8v-7.7h22.2a1.486,1.486,0,0,0,1.3-.6c0.2-.3-0.1-0.9-1-1.8l-6.8-6.5-6,6.4h-9.7v-5.3l1.7-1.3a5.781,5.781,0,0,0,1.4-1.1,6.948,6.948,0,0,0-1.4-.8l-7.8-3.7,0.4,9.1,0.1,3.1h-18.8l0.1-5.7,1.9-1.5c0.9-.6.7-1.2-0.6-1.9l-7.4-3.6,0.4,8.6Zm5.5,14.4,0.1-11.9h18.6l0.1,11.9h-18.8Zm57.9,37.4,3.4,4.1,2.4-.9q1.35-.6,8.1-0.6h75.8a1.184,1.184,0,0,0,1-.3c0.1-.2-0.3-0.8-1.3-1.8l-7.8-7.5-5.6,7.3h-29v-36.1h32.6a0.6,0.6,0,0,0,.6-0.3c0.2-.1-0.3-0.7-1.4-1.8l-7.3-6.9-5.3,6.6h-19.2v-28.9h35.5a0.956,0.956,0,0,0,.9-0.3c0.1-.2-0.3-0.7-1.1-1.5l-7.2-6.7-5,6.2h-54.6l-9.7-.3,3.3,4.3,2.8-1c1.2-.5,4.1-0.7,8.7-0.7h19.8v28.9h-20.8l-10.3-.3,3.3,4,2.3-.8a38.707,38.707,0,0,1,7.9-.5h17.6v36.1h-30.8Zm56.8-27.4a51.655,51.655,0,0,1,5.9,7,39.155,39.155,0,0,1,2.9,5.3c0.7,1.7,1.2,3.1,1.5,4a10.482,10.482,0,0,0,.8,2.2,1.479,1.479,0,0,0,1.1.8c0.6,0.2,1.4-.1,2.2-1a6.181,6.181,0,0,0,1.9-2.5,5.891,5.891,0,0,0,.4-3.5,6.563,6.563,0,0,0-2.2-3.8,35.2,35.2,0,0,0-6.5-5c-3-2.1-5.4-3.6-7.3-4.7Zm58.8-28,2.7-1.9a1.182,1.182,0,0,0,.7-0.8,1.018,1.018,0,0,0-.7-0.7l-9.5-4.7,0.5,18.2v36.5l-0.7,19.8a19.785,19.785,0,0,0,7.6-3.1l-0.6-13.8v-49.5Zm-0.5-23.9c4,4.6,6.3,7.9,6.9,10s1.1,3.9,1.4,5.5a37.418,37.418,0,0,1,.8,3.7,3.05,3.05,0,0,0,.7,1.8,1.594,1.594,0,0,0,1.2.4,3.207,3.207,0,0,0,2.7-1.1,11.865,11.865,0,0,0,1.8-2.5,6.083,6.083,0,0,0,.8-2.7c0.3-3.4-1.6-6.5-5.6-9.3q-5.85-4.2-9.9-6.9Zm23.7,9.2,3.1,3.6a31.462,31.462,0,0,1,7.3-1h25.5v68.1a2.683,2.683,0,0,1-1.5,2.3c-0.9.7-3.1,0.7-6.6,0.2a76.1,76.1,0,0,1-8.1-1.5l-0.5,1.3c5.1,2,8.2,3.3,9.2,4a4.982,4.982,0,0,1,2,2.1c0.2,0.8.4,1.5,0.5,2.1q0.15,1.05.3,1.8a18.539,18.539,0,0,0,7.6-3.4,9.213,9.213,0,0,0,3.2-3.4,12.871,12.871,0,0,0,.5-4.5v-68.1l3-2.1a0.446,0.446,0,0,0,.4-0.3,1.49,1.49,0,0,0-.6-0.7l-7.3-5.1-3.4,4.9h-27.1Zm66.5,37.2,5.1,5.1a16.413,16.413,0,0,1,5-1.7,26.217,26.217,0,0,1,5.7-.6h18.6a73.692,73.692,0,0,1-6.6,15.8,44.092,44.092,0,0,1-12.9,14.2,127.6,127.6,0,0,1-18.3,11.2l0.5,1.7a97.876,97.876,0,0,0,12.6-5.3,90.419,90.419,0,0,0,11.3-7.4,60.528,60.528,0,0,0,9.2-8.6,57.248,57.248,0,0,0,5.8-8.7,35.746,35.746,0,0,0,3.3-7.5c0.5-1.9,1-3.6,1.3-5.1l1.4,4.7a65.014,65.014,0,0,0,5.2,12,50.824,50.824,0,0,0,7.4,10.4,84.26,84.26,0,0,0,9.5,8c3.7,2.8,7,5.1,9.7,6.8l1.3-1.6a6.269,6.269,0,0,1,2.9-1.8,37.629,37.629,0,0,1,7.8-.8l0.3-1.3c-10.3-2-19-6-25.9-12s-11.4-11.2-13.5-15.6c-2-4.4-3.3-7.4-4-9.1h37.7c0.9,0,1.4-.2,1.5-0.5a3.123,3.123,0,0,0-1.2-1.6l-6.2-5.6-5,5.3h-28.2l0.7-6.7a56.1,56.1,0,0,0,.6-5.9c0.1-2,.3-4.3.5-6.8h31.8a2.367,2.367,0,0,0,1.6-.4,4.844,4.844,0,0,0-1.4-2.1l-4.9-5.1-4.7,5h-15l2.1-2.7,7.4-9.8c0.6-.8,1.5-2,2.6-3.5l3.3-1.4a2.44,2.44,0,0,0,1.2-.8c0-.3-0.5-0.8-1.7-1.5l-7.2-4.4-1.1,3.6c-0.3.9-1,2.8-2.3,5.7-1.3,3-2.3,5.4-3.2,7.2s-2.1,4.3-3.7,7.6h-25.9l-15.4-.3,5.8,5.4a20.138,20.138,0,0,1,5.7-1.9,27.151,27.151,0,0,1,5.8-.6h12.8l-0.2,4.2-0.5,8c-0.2,1.6-.5,4-1,7.3l-25.1-.1Zm20.2-42.8,2.8,3.1a22.778,22.778,0,0,1,3,4.3,39.475,39.475,0,0,1,2.3,4.7,17.6,17.6,0,0,1,1.2,3.4,7.092,7.092,0,0,0,.8,2.1,1.865,1.865,0,0,0,1.6.7,2.545,2.545,0,0,0,2.2-1.5,8.013,8.013,0,0,0,1-3.3,6.883,6.883,0,0,0-.2-2.5,5.852,5.852,0,0,0-1.6-2.4,37.417,37.417,0,0,0-3.8-3.4l-3.6-2.8a53.634,53.634,0,0,0-4.9-3.4Z"/>
  <path id="大写字母" class="cls-3" d="M137.92,531.766c1.38-.06,3.96-0.18,6.12-0.18,1.86,0,4.979.12,6.9,0.18v-1.86c-3,0-4.5-1.5-4.5-3.06a4.082,4.082,0,0,1,.12-0.9l2.759-7.86h14.82l3.18,9.18a4.2,4.2,0,0,1,.18.84c0,1.8-3.36,1.8-4.98,1.8v1.86c2.16-.18,6.36-0.18,8.64-0.18,2.579,0,5.339.06,7.859,0.18v-1.86h-1.08c-3.6,0-4.44-.42-5.1-2.4l-12.96-37.5c-0.3-.78-0.42-1.2-1.38-1.2s-1.14.36-1.44,1.2L144.64,525.886c-1.08,3.06-3.48,3.96-6.72,4.02v1.86Zm12.059-15.54,6.72-19.5,6.78,19.5h-13.5Zm39.181,15.54h23.519c7.98,0,13.379-5.34,13.379-10.98,0-5.22-4.919-9.72-11.579-10.44,5.82-1.139,9.959-4.979,9.959-9.419,0-5.22-5.519-10.14-13.319-10.14H189.16v1.86h1.44c4.62,0,4.74.66,4.74,2.82v31.619c0,2.16-.12,2.82-4.74,2.82h-1.44v1.86Zm11.159-4.26v-16.38H211.6c5.94,0,8.46,5.58,8.46,9.6a9.068,9.068,0,0,1-9.3,9.18h-7.5C200.439,529.906,200.319,529.486,200.319,527.506Zm0-17.7v-14.76c0-1.98.12-2.4,2.94-2.4h7.44c5.82,0,7.92,5.1,7.92,8.28,0,3.84-2.94,8.88-9.6,8.88h-8.7Zm38.52,1.439c0,12.42,9.72,21.84,20.88,21.84a15.688,15.688,0,0,0,15.659-15.3c0-.6,0-1.02-0.78-1.02-0.66,0-.66.36-0.72,0.96-0.48,8.58-6.9,13.5-13.439,13.5-3.66,0-15.42-2.04-15.42-19.92,0-17.939,11.7-19.979,15.36-19.979,6.539,0,11.879,5.46,13.079,14.22,0.12,0.84.12,1.02,0.96,1.02,0.96,0,.96-0.18.96-1.44v-14.22c0-1.02,0-1.44-.66-1.44a1.05,1.05,0,0,0-.96.72l-3,4.44c-2.22-2.16-5.28-5.16-11.039-5.16C248.5,489.467,238.839,499.007,238.839,511.246Zm48.06,20.52h21.959c10.079,0,18.359-8.88,18.359-20.16,0-11.4-8.1-20.819-18.359-20.819H286.9v1.86h1.44c4.619,0,4.739.66,4.739,2.82v31.619c0,2.16-.12,2.82-4.739,2.82H286.9v1.86Zm11.339-4.26V495.047c0-1.98.12-2.4,2.94-2.4h6a12.937,12.937,0,0,1,10.919,5.58c2.58,3.54,3.12,8.7,3.12,13.379,0,6.66-1.14,10.26-3.3,13.2a13.152,13.152,0,0,1-10.679,5.1h-6.06C298.358,529.906,298.238,529.486,298.238,527.506Zm40.32,4.26h34.618l2.52-15.48h-1.5c-1.5,9.24-2.88,13.62-13.2,13.62h-7.98c-2.82,0-2.94-.42-2.94-2.4v-16.02h5.4c5.82,0,6.48,1.92,6.48,7.02h1.5v-15.9h-1.5c0,5.16-.66,7.02-6.48,7.02h-5.4v-14.4c0-1.98.12-2.4,2.94-2.4h7.74c9.179,0,10.8,3.3,11.759,11.64h1.5l-1.68-13.5H338.558v1.86H340c4.619,0,4.739.66,4.739,2.82v31.439c0,2.16-.12,2.82-4.739,2.82h-1.44v1.86Zm46.8,0c2.1-.18,6.78-0.18,9.12-0.18,2.46,0,7.92,0,10.079.18v-1.86h-1.979c-5.7,0-5.7-.78-5.7-2.88v-14.76h5.16c5.759,0,6.359,1.92,6.359,7.02h1.5v-15.9h-1.5c0,5.04-.6,7.019-6.359,7.019h-5.16V495.227c0-1.98.12-2.4,2.94-2.4h7.2c9,0,10.5,3.36,11.46,11.64h1.5l-1.68-13.5H385.357v1.86h1.44c4.62,0,4.74.66,4.74,2.82v31.439c0,2.16-.12,2.82-4.74,2.82h-1.44v1.86Zm46.5-20.52c0,12.3,9.6,21.84,21,21.84,4.38,0,9.18-1.56,11.219-5.1,0.78,1.32,3.18,3.72,3.84,3.72,0.54,0,.54-0.48.54-1.38v-10.44c0-2.34.24-2.64,4.14-2.64v-1.86c-2.22.06-5.52,0.18-7.32,0.18-2.4,0-7.5,0-9.659-.18v1.86h1.92c5.4,0,5.579.66,5.579,2.88v3.84c0,6.72-7.619,7.26-9.3,7.26-3.9,0-15.78-2.1-15.78-19.98,0-17.939,11.82-19.919,15.42-19.919,6.42,0,11.879,5.4,13.079,14.22,0.12,0.84.12,1.02,0.96,1.02,0.96,0,.96-0.18.96-1.44v-14.22c0-1.02,0-1.44-.66-1.44a1.05,1.05,0,0,0-.96.72l-3,4.44c-1.919-1.92-5.159-5.16-11.1-5.16C441.576,489.467,431.857,498.947,431.857,511.246Zm51.66,20.52c2.1-.18,6.539-0.18,8.819-0.18s6.78,0,8.88.18v-1.86h-1.44c-4.62,0-4.74-.66-4.74-2.82v-15.72h17.939v15.72c0,2.16-.12,2.82-4.739,2.82H506.8v1.86c2.1-.18,6.539-0.18,8.819-0.18s6.78,0,8.88.18v-1.86h-1.44c-4.62,0-4.74-.66-4.74-2.82V495.467c0-2.16.12-2.82,4.74-2.82h1.44v-1.86c-2.1.18-6.54,0.18-8.82,0.18s-6.779,0-8.879-.18v1.86h1.44c4.619,0,4.739.66,4.739,2.82v14.04H495.036v-14.04c0-2.16.12-2.82,4.74-2.82h1.44v-1.86c-2.1.18-6.54,0.18-8.82,0.18s-6.779,0-8.879-.18v1.86h1.44c4.619,0,4.739.66,4.739,2.82v31.619c0,2.16-.12,2.82-4.739,2.82h-1.44v1.86Zm50.7,0c2.1-.18,6.839-0.18,9.119-0.18,2.34,0,7.08,0,9.18.18v-1.86h-1.56c-4.74,0-4.92-.66-4.92-2.82V495.467c0-2.16.18-2.82,4.92-2.82h1.56v-1.86c-2.1.18-6.84,0.18-9.12,0.18-2.34,0-7.079,0-9.179-.18v1.86h1.56c4.739,0,4.919.66,4.919,2.82v31.619c0,2.16-.18,2.82-4.919,2.82h-1.56v1.86Zm28.439-6.72c0,4.44,4.26,8.04,9.6,8.04,6.119,0,10.5-4.2,11.159-8.7a19.613,19.613,0,0,0,.06-2.64V495.107c0-2.46.84-2.46,4.62-2.46v-1.86c-2.64.12-4.92,0.18-7.74,0.18-2.519,0-7.8,0-10.079-.18v1.86h2.16c5.879,0,5.879.78,5.879,2.88v27.359c0,5.52-3,8.88-6.179,8.88a7.935,7.935,0,0,1-6.6-3.48c3.12,0,3.84-1.8,3.84-3.36A3.361,3.361,0,1,0,562.656,525.046Zm36.3,6.72c2.1-.18,6.54-0.18,8.82-0.18s6.78,0,8.88.18v-1.86h-1.44c-4.62,0-4.74-.66-4.74-2.82v-10.5l6.96-6.6,10.859,16.079a4.2,4.2,0,0,1,.9,2.04c0,1.8-2.34,1.8-3.54,1.8v1.86c2.1-.18,6.3-0.18,8.58-0.18,2.1,0,4.38.06,6.9,0.18v-1.86c-3.24,0-4.5-.24-6.3-2.88l-13.86-20.4,10.8-10.38a12.765,12.765,0,0,1,8.52-3.6v-1.86a47.727,47.727,0,0,1-5.1.18c-2.16,0-5.58,0-7.62-.18v1.86c2.4,0.06,2.76,1.44,2.76,1.98a2.606,2.606,0,0,1-1.08,1.98l-18.779,17.939V495.467c0-2.16.12-2.82,4.74-2.82h1.44v-1.86c-2.1.18-6.54,0.18-8.82,0.18s-6.78,0-8.88-.18v1.86h1.44c4.62,0,4.74.66,4.74,2.82v31.619c0,2.16-.12,2.82-4.74,2.82h-1.44v1.86Zm52.62,0h31.259l1.679-15.48h-1.5c-0.66,6.12-1.5,13.62-12.06,13.62h-4.92c-2.82,0-2.94-.42-2.94-2.4V495.527c0-2.04,0-2.88,5.7-2.88h1.98v-1.86c-2.16.18-7.62,0.18-10.08,0.18-2.339,0-7.019,0-9.119-.18v1.86h1.44c4.62,0,4.74.66,4.74,2.82v31.619c0,2.16-.12,2.82-4.74,2.82h-1.44v1.86Zm43.74,0c2.1-.06,5.04-0.18,7.02-0.18s4.919,0.12,7.019.18v-1.86c-6.18,0-6.18-2.82-6.18-4.44V493.127h0.06l14.46,37.319c0.3,0.78.6,1.32,1.2,1.32,0.66,0,.84-0.48,1.08-1.14l14.759-37.979h0.06v34.439c0,2.16-.12,2.82-4.74,2.82h-1.44v1.86c2.22-.18,6.3-0.18,8.64-0.18s6.36,0,8.58.18v-1.86h-1.44c-4.62,0-4.74-.66-4.74-2.82V495.467c0-2.16.12-2.82,4.74-2.82h1.44v-1.86h-10.14c-1.56,0-1.56.06-1.98,1.14l-13.139,33.779-13.02-33.6c-0.54-1.32-.72-1.32-2.1-1.32H695.315v1.86h1.44c4.62,0,4.74.66,4.74,2.82v30c0,1.62,0,4.44-6.18,4.44v1.86Zm60.719,0c2.1-.06,5.04-0.18,7.02-0.18s4.919,0.12,7.019.18v-1.86c-6.179,0-6.179-2.82-6.179-4.44v-31.2a3.481,3.481,0,0,1,.6.72l24.479,36c0.54,0.72.6,0.78,1.02,0.78,0.84,0,.84-0.42.84-1.56V497.087c0-1.62,0-4.44,6.179-4.44v-1.86c-2.1.06-5.04,0.18-7.019,0.18s-4.92-.12-7.02-0.18v1.86c6.18,0,6.18,2.82,6.18,4.44v25.619l-21.18-31.139c-0.54-.72-0.6-0.78-1.739-0.78h-10.2v1.86h1.74c0.9,0,2.1.06,3,.12,1.38,0.18,1.44.24,1.44,1.38v31.319c0,1.62,0,4.44-6.18,4.44v1.86Zm52.38-20.34c0,12.3,9.24,21.66,19.919,21.66,10.92,0,19.979-9.54,19.979-21.66,0-12.239-9.059-21.959-19.979-21.959C817.594,489.467,808.414,499.067,808.414,511.426Zm6.18-.84c0-15.539,8.759-19.619,13.739-19.619,5.22,0,13.8,4.26,13.8,19.619,0,15.9-8.22,20.94-13.74,20.94C822.633,531.526,814.594,526.246,814.594,510.586Zm45.179,21.18c2.1-.18,6.54-0.18,8.82-0.18s6.78,0,8.88.18v-1.86h-1.44c-4.62,0-4.74-.66-4.74-2.82v-14.28h10.14c7.2,0,13.679-4.859,13.679-10.859,0-5.88-5.94-11.16-14.159-11.16h-21.18v1.86h1.44c4.62,0,4.74.66,4.74,2.82v31.619c0,2.16-.12,2.82-4.74,2.82h-1.44v1.86Zm11.34-20.52v-16.2c0-1.98.12-2.4,2.94-2.4h5.34c9.539,0,9.539,6.36,9.539,9.3,0,2.82,0,9.3-9.539,9.3h-8.28Zm36.72,0.18c0,12.12,9.06,21.66,19.979,21.66a20.208,20.208,0,0,0,5.7-.9c0.9,5.7,1.74,11.219,7.32,11.219,6.119,0,7.259-7.98,7.259-11.039,0-.6,0-1.26-0.66-1.26-0.54,0-.6.48-0.66,1.08a5.452,5.452,0,0,1-5.459,5.039c-2.82,0-4.32-2.04-5.76-5.879,7.08-3.18,12.179-10.86,12.179-19.92,0-12.239-9.059-21.959-19.979-21.959C917.013,489.467,907.833,499.067,907.833,511.426Zm6,0c0-15.6,8.4-20.459,13.919-20.459,5.82,0,13.98,5.16,13.98,20.459,0,4.68-.72,13.14-7.08,17.82-1.32-3.36-3.24-6.36-6.78-6.36a4.959,4.959,0,0,0-4.92,5.04,5.6,5.6,0,0,0,.84,2.88C920.552,529.606,913.833,525.226,913.833,511.426Zm10.439,16.5a3.625,3.625,0,0,1,3.6-3.72c3.24,0,4.56,2.52,5.22,6a10.762,10.762,0,0,1-5.28,1.38A3.488,3.488,0,0,1,924.272,527.926Zm34.921,3.84c2.16-.18,6.419-0.18,8.759-0.18s6.6,0,8.76.18v-1.86h-1.44c-4.62,0-4.74-.66-4.74-2.82v-15.18h6.9a7.647,7.647,0,0,1,5.58,2.04c2.28,2.16,2.28,4.02,2.28,8.04,0,3.9,0,6.3,2.459,8.58a11.682,11.682,0,0,0,7.56,2.52c4.68,0,5.7-4.92,5.7-6.6a0.808,0.808,0,0,0-.78-1.02c-0.659,0-.659.54-0.719,0.96-0.36,4.26-2.46,5.34-3.96,5.34-2.94,0-3.42-3.06-4.26-8.64l-0.78-4.8c-1.08-3.84-4.019-5.82-7.319-6.96,5.819-1.439,10.5-5.1,10.5-9.779,0-5.76-6.839-10.8-15.659-10.8H959.193v1.86h1.44c4.619,0,4.739.66,4.739,2.82v31.619c0,2.16-.12,2.82-4.739,2.82h-1.44v1.86Zm11.339-21.18V495.047c0-1.38,0-2.1,1.32-2.28a29.369,29.369,0,0,1,3.54-.12c5.4,0,12.119.24,12.119,8.94,0,4.14-1.439,9-10.319,9h-6.66Zm40.078,21.06c0,1.02,0,1.44.66,1.44,0.42,0,.48-0.12.9-0.78,0-.06.18-0.24,2.16-3.42,1.86,2.04,5.7,4.2,11.04,4.2,7.02,0,11.82-5.88,11.82-12.48,0-6-3.96-10.919-9-12.119l-7.68-1.86a7.843,7.843,0,0,1,1.86-15.48c10.02,0,11.34,9.84,11.7,12.54a0.632,0.632,0,0,0,.72.72c0.78,0,.78-0.3.78-1.44v-12.06c0-1.02,0-1.44-.66-1.44-0.42,0-.48.06-0.9,0.78l-2.1,3.42c-1.8-1.74-4.26-4.2-9.6-4.2a11.623,11.623,0,0,0-3.84,22.619c0.66,0.24,3.72.96,7.92,1.98a7.969,7.969,0,0,1,5.1,3.06,8.765,8.765,0,0,1,1.86,5.52c0,4.26-3,8.58-8.04,8.58-1.74,0-6.3-.3-9.48-3.24a12.14,12.14,0,0,1-3.72-9.24,0.625,0.625,0,0,0-.72-0.6c-0.78,0-.78.42-0.78,1.5v12Zm38.1-27h1.5c0.84-9.66,1.74-11.64,10.8-11.64a25.169,25.169,0,0,1,3.24.12c1.26,0.24,1.26.9,1.26,2.28v31.619c0,2.04,0,2.88-6.3,2.88h-2.4v1.86c2.46-.18,8.58-0.18,11.34-0.18s8.94,0,11.4.18v-1.86h-2.4c-6.3,0-6.3-.84-6.3-2.88V495.407c0-1.2,0-2.04,1.08-2.28a28.26,28.26,0,0,1,3.42-.12c9.06,0,9.96,1.98,10.8,11.64h1.5l-1.14-13.5h-36.66Zm49.14-12h1.44c4.62,0,4.74.66,4.74,2.82v22.619a15.069,15.069,0,0,0,15.12,15c6.9,0,12.3-5.58,13.32-12.42a23.578,23.578,0,0,0,.18-4.14v-19.2c0-1.98,0-4.68,6.18-4.68v-1.86c-2.16.06-5.04,0.18-7.08,0.18-2.1,0-4.98-.12-7.14-0.18v1.86c6.18,0,6.18,2.82,6.18,4.44v20.819c0,8.52-5.82,13.32-11.52,13.32-2.82,0-9.9-1.5-9.9-12.9V495.467c0-2.16.12-2.82,4.74-2.82h1.44v-1.86c-2.1.18-6.54,0.18-8.82,0.18s-6.78,0-8.88-.18v1.86Zm50.16,0c3.9,0,5.04,0,5.88,2.28l13.92,36.839c0.42,1.14.72,1.32,1.5,1.32,1.02,0,1.14-.3,1.44-1.14l13.38-35.279c0.84-2.22,2.46-3.96,6.54-4.02v-1.86c-1.86.12-4.26,0.18-5.82,0.18-1.8,0-5.28-.12-6.84-0.18v1.86c3.12,0.06,4.38,1.62,4.38,3a3.522,3.522,0,0,1-.3,1.2l-10.98,28.919-11.46-30.3a2.786,2.786,0,0,1-.36-1.08c0-1.74,3.42-1.74,4.92-1.74v-1.86c-2.16.18-6.3,0.18-8.58,0.18-2.88,0-5.46-.12-7.62-0.18v1.86Zm50.94,0c4.5,0,4.74.3,5.46,2.52l12,36.779a1.226,1.226,0,0,0,1.14,1.14c0.84,0,.96-0.42,1.2-1.2l9.9-30.479,9.96,30.539a1.226,1.226,0,0,0,1.14,1.14c0.84,0,.96-0.42,1.2-1.2l11.46-35.219c1.08-3.42,3.66-4.02,6-4.02v-1.86c-1.8.12-3.66,0.18-5.46,0.18-1.74,0-5.58-.12-7.14-0.18v1.86c4.02,0.06,5.22,2.04,5.22,3.18a4.4,4.4,0,0,1-.3,1.2l-9,27.719-9.6-29.4a3.985,3.985,0,0,1-.18-0.9c0-1.8,3.48-1.8,5.04-1.8v-1.86c-2.16.18-6.24,0.18-8.52,0.18s-4.86-.12-7.32-0.18v1.86c3.42,0,4.68,0,5.4,2.16l1.32,4.2-8.34,25.739-9.66-29.519a3.512,3.512,0,0,1-.12-0.78c0-1.8,3.48-1.8,5.04-1.8v-1.86c-2.16.18-6.24,0.18-8.52,0.18s-4.86-.12-7.32-0.18v1.86Zm67.98,39.119c2.16-.06,4.68-0.18,6.66-0.18,2.22,0,5.52,0,7.68.18v-1.86c-2.76-.06-3.78-1.68-3.78-2.76a2.4,2.4,0,0,1,.6-1.44l8.52-12.6,9.48,14.34a2.067,2.067,0,0,1,.3.66c0,0.72-1.32,1.74-3.9,1.8v1.86c2.1-.18,6.48-0.18,8.76-0.18,2.52,0,5.28.06,7.8,0.18v-1.86h-1.14c-3.12,0-4.38-.3-5.64-2.16l-12.66-19.139,8.22-12.06c1.32-1.92,3.36-3.84,8.7-3.9v-1.86c-2.34.06-5.16,0.18-6.66,0.18-2.4,0-5.28,0-7.68-.18v1.86c2.4,0.06,3.72,1.38,3.72,2.76a2.031,2.031,0,0,1-.54,1.38l-6.84,10.14-7.74-11.58a2.477,2.477,0,0,1-.42-0.9c0-.72,1.32-1.74,3.9-1.8v-1.86c-2.1.18-6.48,0.18-8.76,0.18-1.86,0-5.58-.06-7.8-0.18v1.86h1.14c3.3,0,4.44.42,5.58,2.1l11.04,16.679-9.84,14.52c-0.84,1.2-2.64,3.96-8.7,3.96v1.86Zm50.22-39.119h1.08c4.08,0,4.56.66,5.52,2.22l12.6,20.519v11.7c0,2.16-.12,2.82-4.74,2.82h-1.44v1.86c2.16-.18,6.42-0.18,8.76-0.18s6.6,0,8.76.18v-1.86h-1.38c-4.62,0-4.8-.6-4.8-2.94v-11.58l11.58-18.839a8.3,8.3,0,0,1,7.68-3.9v-1.86c-1.86.12-4.26,0.18-5.88,0.18-1.86,0-5.34-.12-6.9-0.18v1.86c2.46,0,3.42,1.14,3.42,2.34a3.756,3.756,0,0,1-.6,1.8l-9.9,16.079-10.86-17.7a1.41,1.41,0,0,1-.42-1.02c0-1.26,1.5-1.5,4.2-1.5v-1.86c-2.16.18-6.54,0.18-8.88,0.18-2.52,0-5.28-.06-7.8-0.18v1.86Zm53.7,38.1c0,1.02.3,1.02,1.56,1.02h27.66l1.02-16.02h-1.5c-0.48,8.34-1.62,13.98-12.72,13.98h-9.84l23.28-36.839a1.563,1.563,0,0,0,.42-1.14c0-.96-0.36-0.96-1.56-0.96h-26.88l-0.66,13.5h1.5c0.42-6.78,2.22-11.64,12.06-11.64h9.42l-23.34,36.9A1.613,1.613,0,0,0,1370.85,530.746Z"/>
  <path id="logo" class="cls-1" d="M706.266,1194.7a45.969,45.969,0,0,0-.118,5.15v5.16H677.555v-1.17l0.234-.94-1.406-.24c-1.1,0-2.659-.07-4.688-0.23h-3.281l-0.469,2.58a45.646,45.646,0,0,1-1.172,4.92,22.619,22.619,0,0,1-1.406,4.22,7.125,7.125,0,0,0-.82,2.23,6.584,6.584,0,0,0,2.109-.71c1.326-.54,2.615-1.13,3.867-1.76a11.566,11.566,0,0,0,3.516-2.81l1.641-1.64h66.8l1.875,1.88a14.477,14.477,0,0,0,3.75,2.81c1.406,0.62,2.655,1.17,3.75,1.64a1.036,1.036,0,1,0,1.171-1.17,17.1,17.1,0,0,1-1.406-3.99q-0.7-2.34-1.172-4.68a11.9,11.9,0,0,0-.7-3.05c0-.47-1.252-0.62-3.75-0.47-1.875.16-3.281,0.23-4.219,0.23a2.052,2.052,0,0,1-.937.24c-0.315,0-.469.31-0.469,0.94l0.235,0.93-13.594.24q-13.359,0-13.36-.24a2.838,2.838,0,0,1,.7-1.05,6.664,6.664,0,0,0,1.171-2.46,15.728,15.728,0,0,0,.469-4.22v-2.58h-4.687Q706.382,1194.46,706.266,1194.7Zm-31.289,28.12v4.22l21.093,0.23h21.094l-5.859,4.93q-5.4,4.215-8.2,6.56l-2.344,1.87v6.8H660.445v4.22h40.313v14.76c0,10.01-.158,15.47-0.469,16.41a13.152,13.152,0,0,1-1.172,3.05,21,21,0,0,1-2.578,3.04,16.962,16.962,0,0,1-3.75,2.82c-1.406.62-2.109,1.17-2.109,1.64s0.153,0.7.468,0.7a30.375,30.375,0,0,0,3.047-.47,34.353,34.353,0,0,0,4.922-1.4,16.4,16.4,0,0,0,4.688-1.88,11.74,11.74,0,0,0,3.515-2.34,12.264,12.264,0,0,0,2.344-2.58,13,13,0,0,0,1.172-2.58c0.311-.94.469-6.4,0.469-16.41v-14.76h38.2v-4.22h-38.2v-6.8l2.109-1.64q2.109-1.635,8.438-6.79,6.327-5.4,8.437-7.04a13.637,13.637,0,0,0,2.578-2.34q0-.225-28.828-0.23t-29.062.23h0Zm121.64-30.23-0.469,1.87a27.635,27.635,0,0,1-1.523,5.74c-0.861,2.43-1.681,4.65-2.461,6.68q-1.176,2.58-3.281,6.8-1.88,3.75-4.453,8.44-2.11,3.75-4.688,7.73-2.582,4.215-3.047,4.92a7.818,7.818,0,0,0-1.406,2.11c-0.157.47-.117,0.71,0.117,0.71a8.252,8.252,0,0,0,2.227-1.18q1.873-1.17,3.515-2.34,1.874-1.41,3.985-3.28a59.714,59.714,0,0,0,4.453-4.45l2.109-2.35,0.235,14.77,0.234,14.76h1.875a5.862,5.862,0,0,0,3.047-.7,5.457,5.457,0,0,0,1.875-1.17,11.374,11.374,0,0,0,1.406-1.64l0.469-.71h27.187v2.11l0.235,2.11h1.64a7.437,7.437,0,0,0,2.813-.47,9.072,9.072,0,0,0,2.109-1.17,4.666,4.666,0,0,0,1.407-1.64l0.7-.94h31.64v-4.45H838.336v-6.8H868.57v-4.45H838.336v-6.8H868.57v-4.68H838.336v-7.5H868.57v-4.69H837.164l0.938-1.17a23.668,23.668,0,0,0,1.406-2.35,6.445,6.445,0,0,0,.7-2.57,17.74,17.74,0,0,0,.469-4.93v-3.51H828.727v14.53H815.6q-13.129,0-13.125-.23c0-.16-0.158-0.24-0.469-0.24s0.311-1.41,1.875-4.22a69.182,69.182,0,0,0,3.281-7.5,16.732,16.732,0,0,0,1.406-3.98l0.235-1.17H796.617Zm31.406,22.03v7.5H802.477v-7.5h25.546Zm0,12.18v6.8H802.477v-6.8h25.546Zm0,11.25v6.8H802.477v-6.8h25.546Zm-3.515,16.88v5.16l-22.969.23H778.805v4.45h45.7v1.64c0,1.1-.081,1.64-0.235,1.64a40.222,40.222,0,0,1-4.687-1.17q-4.455-1.17-4.922-1.4-0.236,0-6.328,4.68-6.1,4.935-7.734,6.1-1.643.93-4.454,2.58a58.967,58.967,0,0,1-5.39,2.57q-2.812,1.185-5.391,2.23a35.226,35.226,0,0,1-5.859,1.76,17.416,17.416,0,0,0-3.047,1.05,6.06,6.06,0,0,0,1.289,1.06,3.994,3.994,0,0,0,1.992.94c0.469,0,2.344-.32,5.625-0.94s6.328-1.33,9.141-2.11q4.449-1.17,8.2-2.35a22.822,22.822,0,0,0,4.922-2.1q1.637-.945,9.14-6.1t7.618-5.04q0.115,0.12.117,13.48v13.12h1.406a7.357,7.357,0,0,0,2.813-.7,6.692,6.692,0,0,0,3.046-1.99,11.184,11.184,0,0,0,2.11-3.17,8.733,8.733,0,0,0,.586-2.34q0.115-1.17.117-6.33c0.154-4.68.271-7.11,0.352-7.26s1.442,0.55,4.1,2.11q3.982,2.1,6.8,3.51a34.945,34.945,0,0,0,6.328,2.58,54.282,54.282,0,0,0,6.328,1.64,52.974,52.974,0,0,0,5.625.94c1.718,0.16,4.219.23,7.5,0.23a38.521,38.521,0,0,0,5.86-.23,1.37,1.37,0,0,0,1.171-.94l0.235-1.17c0-.15-0.235-0.24-0.7-0.24-0.315,0-1.722-.23-4.219-0.7s-5-1.01-7.5-1.64q-3.516-.93-6.8-2.11-2.812-.93-5.625-2.11-2.346-1.17-10.078-6.33l-7.734-5.15,19.453-.24h19.453v-4.45H854.977l-20.157-.23v-2.58l-0.234-2.58H824.508Z"/>
</svg>
