<svg xmlns="http://www.w3.org/2000/svg" width="400" height="200" viewBox="0 0 400 200">
  <defs>
    <style>
      .cls-1 {
        fill: #fdfdfd;
        fill-rule: evenodd;
      }
    </style>
  </defs>
  <path id="手书体" class="cls-1" d="M118.719,80.873a5.337,5.337,0,0,1-1.98-.216,2.064,2.064,0,0,1-.684-0.612,1.7,1.7,0,0,1-.324-0.9,1.6,1.6,0,0,1,.18-0.9,2.08,2.08,0,0,1,.612-0.684,1.719,1.719,0,0,1,.9-0.324,1.406,1.406,0,0,0,.648-0.144,2.6,2.6,0,0,1,.936-0.18,6.371,6.371,0,0,0,1.152-.18,2.074,2.074,0,0,0,.684-0.36,1.361,1.361,0,0,1,.72-0.288,1.619,1.619,0,0,0,.864-0.432,1.7,1.7,0,0,1,.972-0.432,1.3,1.3,0,0,0,.684-0.18,2.662,2.662,0,0,1,.648-0.324q0.468-.179,2.052-0.936A15.2,15.2,0,0,1,129.7,72.7a5.7,5.7,0,0,0,1.728-.612,2.916,2.916,0,0,1,1.152-.432,2.068,2.068,0,0,0,.936-0.324,5.507,5.507,0,0,1,.72-0.54,3.594,3.594,0,0,1,1.116-.5,1.462,1.462,0,0,0,.756-0.36,5.852,5.852,0,0,1,.972-0.756,2.931,2.931,0,0,1,1.44-.576,1.95,1.95,0,0,1,1.044.18,2.077,2.077,0,0,1,.684.612,1.673,1.673,0,0,1,.288,1.008,1.742,1.742,0,0,1-.18.9,2.641,2.641,0,0,1-.792.684,3.548,3.548,0,0,1-.684.4,3.466,3.466,0,0,0-.684.54,3.776,3.776,0,0,1-1.224.756,3.509,3.509,0,0,1-.756.216,0.312,0.312,0,0,0-.252.144,3.229,3.229,0,0,1-.648.5,5.99,5.99,0,0,1-2.16.792,0.966,0.966,0,0,0-.5.252,7.1,7.1,0,0,1-1.836.684Q129.3,76.7,129.2,76.7a13.792,13.792,0,0,0-1.584.72,13.538,13.538,0,0,1-1.584.72,2.579,2.579,0,0,0-.684.36,2.062,2.062,0,0,1-.756.36,0.2,0.2,0,0,0-.216.108,1.7,1.7,0,0,1-.54.432,1.758,1.758,0,0,1-.936.324,1.555,1.555,0,0,0-.864.288,1.382,1.382,0,0,1-.648.288,0.777,0.777,0,0,0-.432.144,2.051,2.051,0,0,1-.972.144,2.518,2.518,0,0,0-1.26.288h0Zm-15.408,24.192a14.72,14.72,0,0,1-3.636-.216,2.046,2.046,0,0,1-.684-0.612,1.693,1.693,0,0,1-.324-0.9,1.531,1.531,0,0,1,.108-0.792,2.406,2.406,0,0,1,.54-0.648,2.006,2.006,0,0,1,1.044-.468,3.352,3.352,0,0,0,1.044-.324,2.331,2.331,0,0,1,.972-0.252,1.609,1.609,0,0,0,.72-0.144,1.232,1.232,0,0,1,.576-0.144,1.376,1.376,0,0,0,.756-0.288,1.364,1.364,0,0,1,.72-0.288,0.966,0.966,0,0,0,.468-0.108,1.069,1.069,0,0,1,.432-0.144,1.957,1.957,0,0,0,.828-0.468,1.727,1.727,0,0,1,1.008-.432,1.342,1.342,0,0,0,.792-0.252,3.354,3.354,0,0,1,1.044-.468,5.032,5.032,0,0,0,1.44-.72,6.851,6.851,0,0,1,1.908-.864,9.486,9.486,0,0,0,2.088-.9,3.284,3.284,0,0,1,1.332-.54A3.8,3.8,0,0,0,118,94.409a4.787,4.787,0,0,1,1.44-.72,5.914,5.914,0,0,0,1.656-.864q1.224-.791,2.3-1.4a7.692,7.692,0,0,0,1.8-1.368,8.18,8.18,0,0,1,1.44-1.224,2.921,2.921,0,0,0,.864-0.72,2.243,2.243,0,0,1,.684-0.612,3.291,3.291,0,0,0,.936-0.972q0.4-.611-0.036-0.54a4.26,4.26,0,0,1-.612.072,1.649,1.649,0,0,0-.576.18,1.623,1.623,0,0,1-.576.18,2.923,2.923,0,0,0-.792.252,3.486,3.486,0,0,1-.72.252,4.261,4.261,0,0,0-.9.5,7.359,7.359,0,0,1-1.512.756,4.021,4.021,0,0,1-.9.252,2.591,2.591,0,0,0-.756.252,3.8,3.8,0,0,1-.648.252,2.978,2.978,0,0,0-.612.324,5.947,5.947,0,0,1-1.44.576,8.055,8.055,0,0,1-2.16.252,4.061,4.061,0,0,1-1.656-.216,2.064,2.064,0,0,1-.684-0.612,1.7,1.7,0,0,1-.324-0.9,1.6,1.6,0,0,1,.18-0.9,2.08,2.08,0,0,1,.612-0.684,4.645,4.645,0,0,1,2.088-.324,7.7,7.7,0,0,0,2.232-.252,30.694,30.694,0,0,1,3.06-.792,20.714,20.714,0,0,0,3.78-1.152,12.821,12.821,0,0,1,2.124-.792q0.864-.216,2.16-0.648a6.732,6.732,0,0,0,1.62-.684,3.55,3.55,0,0,1,1.692-.288,4.24,4.24,0,0,1,1.764.18,2.077,2.077,0,0,1,.684.612,1.673,1.673,0,0,1,.288,1.008,1.742,1.742,0,0,1-.18.9,2.2,2.2,0,0,1-.684.612,1.846,1.846,0,0,1-.648.324,2.061,2.061,0,0,0-.72.576,3.162,3.162,0,0,1-.648.576,0.6,0.6,0,0,0-.252.288,0.912,0.912,0,0,1-.216.288,2.3,2.3,0,0,0-.288.54,6.813,6.813,0,0,1-1.3,1.584,9.273,9.273,0,0,1-1.116,1.044,0.458,0.458,0,0,0-.216.252,2.688,2.688,0,0,1-.792.684,3.906,3.906,0,0,1-.72.432,1.462,1.462,0,0,0-.432.36,2.322,2.322,0,0,1-.4.36,2.607,2.607,0,0,0-.36.5,2.819,2.819,0,0,1-.9.864,2.538,2.538,0,0,1-.684.36,2.078,2.078,0,0,0-.612.324,2.6,2.6,0,0,1-.576.324,4.743,4.743,0,0,0-.792.468,4.642,4.642,0,0,1-.792.468,4.289,4.289,0,0,0-.756.468q-0.684.469-.252,0.5a1.926,1.926,0,0,0,.972-0.216,4.975,4.975,0,0,1,1.8-.288,8.854,8.854,0,0,0,2.412-.4,10.405,10.405,0,0,1,1.8-.432,2.054,2.054,0,0,0,.792-0.18q0.144-.108,8.784-0.144t8.964-.288a2.377,2.377,0,0,1,1.332-.252,2.452,2.452,0,0,1,1.44.324,4.888,4.888,0,0,1,.864.864,1.814,1.814,0,0,1,.432,1.152,1.742,1.742,0,0,1-.18.9,2.2,2.2,0,0,1-.684.612q-0.5.324-10.152,0.324t-9.9.144a1.287,1.287,0,0,1-.648.144,8.976,8.976,0,0,0-1.836.432,9.028,9.028,0,0,1-2.556.432,4.448,4.448,0,0,0-1.764.288,5.12,5.12,0,0,1-1.98.288,6.394,6.394,0,0,0-2.34.4,6.591,6.591,0,0,1-1.8.468c-0.528.049-.876,0.072-1.044,0.072a1.018,1.018,0,0,0-.5.144,6.875,6.875,0,0,1-1.44.4,10.788,10.788,0,0,1-1.44.252,3.455,3.455,0,0,0-1.116.468,5.552,5.552,0,0,1-1.656.612,7.225,7.225,0,0,1-1.08.144,1.113,1.113,0,0,0-.5.108,0.959,0.959,0,0,1-.432.108,7.489,7.489,0,0,0-1.188.252,7.789,7.789,0,0,1-1.152.252,2.611,2.611,0,0,0-.756.252,17.384,17.384,0,0,1-2.3.684h0Zm26.64,25.056a2.726,2.726,0,0,1-1.08-.144,2.863,2.863,0,0,1-.684-0.54,3.207,3.207,0,0,1-.612-0.828,8.723,8.723,0,0,0-.612-1.008,4.778,4.778,0,0,1-.576-1.08,2.1,2.1,0,0,0-.468-0.792,4.946,4.946,0,0,1-.684-0.972,5.985,5.985,0,0,1-.576-1.3,4.48,4.48,0,0,0-.9-1.476,11.667,11.667,0,0,1-1.08-1.476q-0.36-.612-0.792-1.512a23.585,23.585,0,0,0-1.188-2.124q-0.756-1.222-1.98-3.348a31.414,31.414,0,0,0-1.8-2.88q-0.576-.756-1.008-1.368a10.931,10.931,0,0,0-1.188-1.368q-0.756-.756-1.692-1.548a4.663,4.663,0,0,0-1.44-.936,1.772,1.772,0,0,1-.792-0.432,1.83,1.83,0,0,1-.432-0.684,1.61,1.61,0,0,1-.036-0.9,1.556,1.556,0,0,1,.4-0.792,1.872,1.872,0,0,1,.684-0.432,1.62,1.62,0,0,1,.9-0.036,1.35,1.35,0,0,1,.756.4q0.252,0.289,1.188,1.368t1.152,1.4q0.216,0.324,1.152,1.584t1.62,2.052a13.461,13.461,0,0,1,1.3,1.8,7.343,7.343,0,0,1,.648,1.188,2.446,2.446,0,0,0,.288.612,10.98,10.98,0,0,0,.972,1.3q0.72,0.864,1.368,1.584a17.106,17.106,0,0,1,1.512,2.052,15.731,15.731,0,0,0,1.872,2.376,11.132,11.132,0,0,1,1.548,1.944q0.54,0.9.576-5.544a45.3,45.3,0,0,0-.216-7.092,27.948,27.948,0,0,1-.288-5.292,43.214,43.214,0,0,0-.144-4.788,3.292,3.292,0,0,1-.144-1.152,3.3,3.3,0,0,0-.144-1.152,6.551,6.551,0,0,1-.144-1.728,6.568,6.568,0,0,0-.144-1.728,3.815,3.815,0,0,1-.144-1.26,3.828,3.828,0,0,0-.144-1.26,1.734,1.734,0,0,1-.144-0.756,2.958,2.958,0,0,0-.4-1.26,3.866,3.866,0,0,1-.432-1.008,1.323,1.323,0,0,0-.18-0.5,1.218,1.218,0,0,1-.144-0.576,1.222,1.222,0,0,0-.144-0.576,1.218,1.218,0,0,1-.144-0.576,2.047,2.047,0,0,0-.288-0.864,5.421,5.421,0,0,1-.288-2.088,5.4,5.4,0,0,1,.18-2.052,2.08,2.08,0,0,1,.612-0.684,1.719,1.719,0,0,1,.9-0.324,1.605,1.605,0,0,1,.9.18,2.077,2.077,0,0,1,.684.612,3.117,3.117,0,0,1,.324,1.584,3.457,3.457,0,0,0,.252,1.512,2.409,2.409,0,0,1,.324.864q0.108,0.54.216,0.972a1,1,0,0,0,.18.468,1,1,0,0,1,.144.5,1.4,1.4,0,0,0,.252.684,1.634,1.634,0,0,1,.288.648,1.329,1.329,0,0,0,.216.54,1.792,1.792,0,0,1,.144.828,2.1,2.1,0,0,0,.144.864,2.823,2.823,0,0,1,.144,1.044,2.447,2.447,0,0,0,.144,1.008,7.2,7.2,0,0,1,.144,1.872,7.194,7.194,0,0,0,.144,1.872,3.065,3.065,0,0,1,.144,1.152,3.06,3.06,0,0,0,.144,1.152,44.247,44.247,0,0,1,.144,4.9,29.259,29.259,0,0,0,.288,5.436q0.252,0.648.288,10.224t-0.036,9.792a2.806,2.806,0,0,1-.5.72,6.759,6.759,0,0,1-1.44,1.152h0ZM204.4,98.369a2.76,2.76,0,0,1-1.26-.216,2.064,2.064,0,0,1-.684-0.612,1.7,1.7,0,0,1-.324-0.9,1.6,1.6,0,0,1,.18-0.9,2.962,2.962,0,0,1,1.008-.9,3.8,3.8,0,0,0,1.044-.864,8.242,8.242,0,0,0,.612-1.116,4.833,4.833,0,0,1,.648-1.08,4.52,4.52,0,0,0,.5-0.684,3.194,3.194,0,0,1,.468-0.612,4.63,4.63,0,0,0,.576-0.756,11.335,11.335,0,0,0,.612-1.08,14.862,14.862,0,0,1,.828-1.4q0.54-.827-0.18-0.864a2.266,2.266,0,0,0-1.08.144q-0.36.181-.972,0.432a2.88,2.88,0,0,1-1.08.252,5.23,5.23,0,0,0-1.584.432,5.27,5.27,0,0,1-1.548.432,1.166,1.166,0,0,0-.72.216,3.537,3.537,0,0,1-1.116.432,5.923,5.923,0,0,1-1.476.216,1.966,1.966,0,0,0-1.008.216,8.932,8.932,0,0,1-1.944.576,13.184,13.184,0,0,1-2.916.36,7.811,7.811,0,0,0-1.692.108,2.088,2.088,0,0,1-.54.108,5.421,5.421,0,0,0-1.08.324,5.59,5.59,0,0,1-1.908.324,3.2,3.2,0,0,1-1.4-.216,2.064,2.064,0,0,1-.684-0.612,1.7,1.7,0,0,1-.324-0.9,1.6,1.6,0,0,1,.18-0.9,2.08,2.08,0,0,1,.612-0.684,2.135,2.135,0,0,1,1.152-.324,8.454,8.454,0,0,0,2.016-.432,10.073,10.073,0,0,1,2.772-.432,16.006,16.006,0,0,0,2.772-.288,7.076,7.076,0,0,0,1.8-.54,3.134,3.134,0,0,1,1.332-.324,8.98,8.98,0,0,0,1.332-.144,2.348,2.348,0,0,0,.936-0.4,1.877,1.877,0,0,1,1.008-.324,4.422,4.422,0,0,0,1.152-.216,7.322,7.322,0,0,0,.972-0.4,3.365,3.365,0,0,1,1.152-.288,1.9,1.9,0,0,0,.936-0.252,1.288,1.288,0,0,1,.576-0.252,1.3,1.3,0,0,0,.5-0.18,4.03,4.03,0,0,1,1.3-.144,3.661,3.661,0,0,0,1.584-.288,3.482,3.482,0,0,1,1.512-.288,3.214,3.214,0,0,1,1.476.18,2.077,2.077,0,0,1,.684.612,3.214,3.214,0,0,1,.324,1.62,6.329,6.329,0,0,1-.324,2.268,5.368,5.368,0,0,1-.792,1.584,3.68,3.68,0,0,1-.468.54,15.432,15.432,0,0,0-.792,1.368q-0.756,1.369-1.044,1.764a1.859,1.859,0,0,1-.324.4,2.607,2.607,0,0,0-.36.5,2.557,2.557,0,0,1-.36.5,8.3,8.3,0,0,0-.576,1.008,8.179,8.179,0,0,1-.576,1.008,0.571,0.571,0,0,0-.108.288,3.984,3.984,0,0,1-.4.864,2.5,2.5,0,0,1-.828.9,1.686,1.686,0,0,1-.864.324,3.049,3.049,0,0,0-1.224.5h0Zm10.368,14.256a2.67,2.67,0,0,1,.4-0.864,2.534,2.534,0,0,0,.4-0.936,1.63,1.63,0,0,1,.288-0.72,1.67,1.67,0,0,0,.252-0.9,2.075,2.075,0,0,1,.144-0.792,1.135,1.135,0,0,0,.144-0.432,2.454,2.454,0,0,1,.288-0.72,3.649,3.649,0,0,0,.324-1.4,2.632,2.632,0,0,1,.288-1.224,1.986,1.986,0,0,0,.252-1.044,2.608,2.608,0,0,1,.144-0.936,7.133,7.133,0,0,0,.144-1.764,5.675,5.675,0,0,0-.072-1.692,2.5,2.5,0,0,1-.324-0.54q-0.216-.432-1.8-0.468a5.782,5.782,0,0,0-1.836.108,1.65,1.65,0,0,1-.792.144,1.444,1.444,0,0,0-.756.144,1.526,1.526,0,0,1-.792.144,1.781,1.781,0,0,0-1.008.288,1.545,1.545,0,0,1-.864.288,2.117,2.117,0,0,0-.972.288,3.548,3.548,0,0,1-1.62.288,3.769,3.769,0,0,0-1.44.18,1.461,1.461,0,0,1-.468.18,2.817,2.817,0,0,0-.72.4,3.51,3.51,0,0,1-.684.4,6.553,6.553,0,0,0,.9,1.116q0.972,1.118,1.4,1.656t2.7,2.772q2.268,2.234,2.52,2.592a13.055,13.055,0,0,0,1.224,1.332q0.972,0.972,2.34,2.124h0Zm0.72,4.824a3.887,3.887,0,0,1-1.368-.144,2.081,2.081,0,0,1-.54-0.4,4.931,4.931,0,0,1-.684-1.08,8.092,8.092,0,0,0-1.224-1.692,31.169,31.169,0,0,1-2.268-2.988q-1.476-2.123-2.34-3.348t-1.764-2.376q-0.9-1.15-2.016-2.52t-2.124-1.08a7.57,7.57,0,0,1-1.188.288,3.735,3.735,0,0,0-.936.324,4.76,4.76,0,0,1-1.872.324,9.879,9.879,0,0,0-1.692.108q-0.576.108-1.944,0.288c-0.912.121-1.416,0.18-1.512,0.18a2.7,2.7,0,0,0-.684.216q-0.54.216-1.836,0.576a12.915,12.915,0,0,1-1.44.36,0.9,0.9,0,0,0-.4.144,0.879,0.879,0,0,1-.36.144,0.212,0.212,0,0,0-.18.108,0.212,0.212,0,0,1-.18.108,0.7,0.7,0,0,0-.324.144,0.683,0.683,0,0,1-.324.144,4,4,0,0,0-.864.468,2.615,2.615,0,0,1-1.332.468,1.773,1.773,0,0,0-.828.144,3.232,3.232,0,0,1-1.26.144,3.2,3.2,0,0,1-1.4-.216,2.057,2.057,0,0,1-.684-0.612,1.7,1.7,0,0,1-.324-0.9,1.606,1.606,0,0,1,.18-0.9,1.888,1.888,0,0,1,1.728-1.008,2.089,2.089,0,0,0,.864-0.144,2.125,2.125,0,0,1,.864-0.144,4.935,4.935,0,0,0,1.656-.432,28.867,28.867,0,0,1,3.168-1.008q2.232-.611,3.384-0.828A19.458,19.458,0,0,0,194,99.629a8.931,8.931,0,0,1,2.448-.5,6.369,6.369,0,0,0,2.016-.4q0.972-.359.252-1.224l-1.62-1.944q-0.9-1.08-3.852-4.356T190.4,87.677a0.432,0.432,0,0,1,.324-0.288,18.106,18.106,0,0,1,2.844,2.916q2.628,2.953,4.032,4.32T199.9,97a1.735,1.735,0,0,0,1.692.792,4.526,4.526,0,0,0,1.08-.4q0.288-.179,1.26-0.648a5.311,5.311,0,0,1,2.16-.5,3.771,3.771,0,0,0,1.62-.288,2.1,2.1,0,0,1,.9-0.288,1.837,1.837,0,0,0,.864-0.288,2.094,2.094,0,0,1,1.008-.288,1.442,1.442,0,0,0,.72-0.144,1.8,1.8,0,0,1,.828-0.144,2.1,2.1,0,0,0,.864-0.144,15.873,15.873,0,0,1,2.808-.144,9.909,9.909,0,0,1,3.24.252,4.61,4.61,0,0,1,1.224.972,2.388,2.388,0,0,1,.72,1.224,2.278,2.278,0,0,0,.324.936,8.2,8.2,0,0,1,.288,2.772,20.154,20.154,0,0,1-.036,2.592,0.379,0.379,0,0,1-.108.216,5.828,5.828,0,0,0-.108,1.044,3.486,3.486,0,0,1-.252,1.332,0.9,0.9,0,0,1-.216.288,4.021,4.021,0,0,0-.108.864,2.909,2.909,0,0,1-.252,1.152,0.9,0.9,0,0,1-.216.288,1.55,1.55,0,0,0-.144.5,1.527,1.527,0,0,1-.144.5,1.592,1.592,0,0,0-.072.54,3.161,3.161,0,0,1-.252,1.044,1.908,1.908,0,0,1-.252.5,2.1,2.1,0,0,0-.108.612,2.094,2.094,0,0,1-.36,1.008,1.126,1.126,0,0,1-.36.4,0.719,0.719,0,0,0-.144.468,1.986,1.986,0,0,1-.252.756,0.9,0.9,0,0,1-.216.288,0.781,0.781,0,0,0-.18.288,4.358,4.358,0,0,1-.684.864,8.227,8.227,0,0,1-1.548,1.224h0Zm-18.144,13.824a2.555,2.555,0,0,1-1.188-.216,2.068,2.068,0,0,1-.684-0.612q-0.288-.4-0.324-4.356a32.415,32.415,0,0,1,.072-4.14,3.554,3.554,0,0,0,.144-1.152,3.554,3.554,0,0,1,.144-1.152,5.081,5.081,0,0,0,.144-1.44,5.087,5.087,0,0,1,.144-1.44,14.072,14.072,0,0,0,.144-2.592,14.113,14.113,0,0,1,.144-2.592,20.306,20.306,0,0,0,.144-3.168,20.355,20.355,0,0,1,.144-3.168q0.108-.178.144-8.424t-0.072-8.388a29.559,29.559,0,0,1-.144-3.924,32.044,32.044,0,0,0-.144-4,1.855,1.855,0,0,1-.144-0.648,1.222,1.222,0,0,0-.144-0.576,35.484,35.484,0,0,1-.144-4.32q-0.036-4.175-.288-4.5a1.488,1.488,0,0,1-.288-0.828,1.6,1.6,0,0,1,.18-0.9,2.08,2.08,0,0,1,.612-0.684,2.3,2.3,0,0,1,2.088-.144,2.916,2.916,0,0,1,.828.756q0.432,0.54.468,5t0.108,4.536a1.622,1.622,0,0,1,.144.612,2.651,2.651,0,0,0,.18.756,30.458,30.458,0,0,1,.144,3.888,26.876,26.876,0,0,0,.144,3.78q0.108,0.108.144,9.5t-0.036,9.612a0.379,0.379,0,0,1-.108.216q-0.036,0-.072,2.952a31.661,31.661,0,0,1-.108,3.168,0.379,0.379,0,0,1-.108.216q-0.036,0-.072,2.124a18.486,18.486,0,0,1-.108,2.34,0.379,0.379,0,0,1-.108.216,11.42,11.42,0,0,0-.072,1.476,10.694,10.694,0,0,1-.108,1.692,0.379,0.379,0,0,1-.108.216,4.636,4.636,0,0,0-.072.936,2.348,2.348,0,0,0,.072,1.044,1.172,1.172,0,0,1,.216.432,2.089,2.089,0,0,1-.036,1.008,2.754,2.754,0,0,1-.18.684,1.034,1.034,0,0,0-.144.4,1.034,1.034,0,0,1-.144.4q-0.036,0-.108,2.088a8.322,8.322,0,0,1-.252,2.376,4.6,4.6,0,0,1-1.188.936h0Zm22.968-47.808a3.557,3.557,0,0,1-1.3-.144,2.619,2.619,0,0,1-.648-0.5,9.649,9.649,0,0,0-1.332-1.008,15.019,15.019,0,0,1-1.8-1.4,7.746,7.746,0,0,1-1.332-1.548,3.386,3.386,0,0,0-.972-1.08,3.333,3.333,0,0,1-.756-0.612,1.874,1.874,0,0,1-.4-0.936,0.913,0.913,0,0,0-.36-0.72,1.881,1.881,0,0,1-.468-0.288,0.808,0.808,0,0,1-.252-0.576,0.989,0.989,0,0,1,.072-0.576,0.609,0.609,0,0,1,.4-0.252,0.508,0.508,0,0,1,.432.036,1.215,1.215,0,0,0,.576.144,2.28,2.28,0,0,1,.684.144,1.4,1.4,0,0,1,.54.612,1.2,1.2,0,0,0,.864.612,3.073,3.073,0,0,1,.9.288,3.84,3.84,0,0,1,.828.72,7.97,7.97,0,0,0,1.62,1.224,7.463,7.463,0,0,1,1.44,1.044,1.668,1.668,0,0,0,.5.432,1.635,1.635,0,0,1,.468.36,3.958,3.958,0,0,0,.684.54,2.529,2.529,0,0,1,.684.648,1.673,1.673,0,0,1,.288,1.008,1.742,1.742,0,0,1-.18.9,4.59,4.59,0,0,1-1.188.936h0Zm33.768,40.608a3.434,3.434,0,0,1-1.476-.216,2.068,2.068,0,0,1-.684-0.612,6.76,6.76,0,0,1-.324-2.664,9.784,9.784,0,0,1,.216-2.916,17.981,17.981,0,0,0,.288-4.068,23.924,23.924,0,0,0-.072-3.564q-0.108-.142-0.144-6.768t-0.144-6.732a3.132,3.132,0,0,1-.36-0.792q-0.252-.683-0.5-0.576a1.356,1.356,0,0,1-.54.108,0.649,0.649,0,0,0-.5.252,3.355,3.355,0,0,1-.72.576,1.846,1.846,0,0,1-.648.324,0.721,0.721,0,0,0-.4.216,0.848,0.848,0,0,1-.324.216,0.646,0.646,0,0,0-.252.324,1.99,1.99,0,0,1-.684.648,1.846,1.846,0,0,1-.648.324,1.543,1.543,0,0,0-.612.4,2.185,2.185,0,0,1-.54.4,0.868,0.868,0,0,0-.324.288,3.581,3.581,0,0,1-.756.612,1.849,1.849,0,0,1-.648.324,0.688,0.688,0,0,0-.4.288,10.193,10.193,0,0,1-1.584,1.152,4.438,4.438,0,0,1-1.872.864,1.926,1.926,0,0,1-.936-0.216,2.057,2.057,0,0,1-.684-0.612,1.666,1.666,0,0,1-.288-1.008,1.725,1.725,0,0,1,.36-1.08,5.239,5.239,0,0,1,1.224-1.044q0.864-.575,1.692-1.116a10.265,10.265,0,0,0,1.44-1.116,5.122,5.122,0,0,1,1.188-.864,2.844,2.844,0,0,0,.864-0.612,3.366,3.366,0,0,1,.756-0.612,3.3,3.3,0,0,0,.972-1.116,3.39,3.39,0,0,1,.792-1.008,1.466,1.466,0,0,0,.5-0.612,7.641,7.641,0,0,1,1.116-1.4,9.282,9.282,0,0,0,1.368-1.836,3.222,3.222,0,0,1,.792-1.08,1.048,1.048,0,0,0,.432-0.648,1.764,1.764,0,0,1,.4-0.756,3.538,3.538,0,0,0,.432-0.576q0.144-.251.468-0.756a9.35,9.35,0,0,0,.5-0.864A8.5,8.5,0,0,1,253.4,82.6a5.44,5.44,0,0,0,.648-1.3,3.2,3.2,0,0,1,.54-1.044,2.793,2.793,0,0,0,.5-1.008,3.937,3.937,0,0,1,.468-1.044,1.911,1.911,0,0,0,.324-0.792,1.627,1.627,0,0,1,.288-0.72,1.284,1.284,0,0,0,.252-0.468,1.142,1.142,0,0,1,.18-0.4,1.348,1.348,0,0,0,.144-0.72,1.852,1.852,0,0,1,.216-0.9,2.08,2.08,0,0,1,.612-0.684,2.3,2.3,0,0,1,2.088-.144,2.077,2.077,0,0,1,.684.612,2.589,2.589,0,0,1,.288,1.44,3.032,3.032,0,0,1-.18,1.332,0.912,0.912,0,0,1-.216.288,2.3,2.3,0,0,0-.288.54,2.3,2.3,0,0,1-.288.54,0.681,0.681,0,0,0-.108.324,2.738,2.738,0,0,1-.324.756,1.782,1.782,0,0,1-.288.432,4.835,4.835,0,0,0-.324.864,4.828,4.828,0,0,1-.576,1.26,1.859,1.859,0,0,1-.324.4,0.681,0.681,0,0,0-.108.324,3.423,3.423,0,0,1-.216.648,0.879,0.879,0,0,1-.18.324,0.767,0.767,0,0,0-.144.324,3.946,3.946,0,0,1-.432.828q-0.324.5-.612,0.9a1.859,1.859,0,0,1-.324.4,1.59,1.59,0,0,0-.252.432,5.821,5.821,0,0,1-.5.828,1.859,1.859,0,0,1-.324.4,1.656,1.656,0,0,0-.18.5,2.854,2.854,0,0,1-.468.936,1.355,1.355,0,0,1-.4.432,0.692,0.692,0,0,0-.288.252,9.218,9.218,0,0,0-.648.936c-0.288.457-.36,0.684-0.216,0.684a1.166,1.166,0,0,1,.5.144,2.109,2.109,0,0,1,.54.4,1.908,1.908,0,0,1,.4.576,5.118,5.118,0,0,0,.54.864,2.359,2.359,0,0,1,.468,1.008,1.678,1.678,0,0,0,.324.792q0.252,0.324.288,6.984t0.144,6.768q0.108,0.108.144,5.616t-0.036,5.724a0.379,0.379,0,0,1-.108.216,7.936,7.936,0,0,0-.108,1.224,4.157,4.157,0,0,1-.252,1.512,4.6,4.6,0,0,1-1.188.936h0Zm9.5-28.8a2.555,2.555,0,0,1-1.188-.216,2.064,2.064,0,0,1-.684-0.612,1.921,1.921,0,0,1-.324-1.044,1.983,1.983,0,0,1,.108-0.936,4.726,4.726,0,0,1,.72-0.9,4.412,4.412,0,0,1,1.044-.864,8.132,8.132,0,0,0,.828-0.5,4.225,4.225,0,0,1,.684-0.4,3.129,3.129,0,0,0,.612-0.36,12.267,12.267,0,0,1,1.116-.684,5.138,5.138,0,0,1,1.332-.576,1.706,1.706,0,0,0,.72-0.288,1.323,1.323,0,0,1,.612-0.252,9.088,9.088,0,0,0,1.512-.54q1.116-.467,1.656-0.648a3.939,3.939,0,0,0,1.008-.5,1.942,1.942,0,0,1,.972-0.36,2.888,2.888,0,0,0,1.3-.576,2.912,2.912,0,0,1,1.4-.576,4.905,4.905,0,0,0,1.548-.432,5.125,5.125,0,0,1,1.4-.432,3.384,3.384,0,0,0,1.188-.4,4.3,4.3,0,0,1,1.188-.432,1.931,1.931,0,0,0,.792-0.288,1.9,1.9,0,0,1,.72-0.288,2.326,2.326,0,0,0,.612-0.18,3.551,3.551,0,0,0,.576-0.4,2.229,2.229,0,0,1,1.26-.324,2.647,2.647,0,0,1,1.3.18,2.077,2.077,0,0,1,.684.612,1.875,1.875,0,0,1-.036,2.052,3.148,3.148,0,0,1-.828.756,1.686,1.686,0,0,1-.864.324,1.831,1.831,0,0,0-.864.288,1.768,1.768,0,0,1-.792.288,0.816,0.816,0,0,0-.54.216,1.748,1.748,0,0,1-.792.324,5.389,5.389,0,0,1-.648.108,4.746,4.746,0,0,0-.9.4,3.032,3.032,0,0,1-1.188.4,4.693,4.693,0,0,0-1.44.432,4.648,4.648,0,0,1-1.476.432,2.965,2.965,0,0,0-1.332.576,2.974,2.974,0,0,1-1.3.576,0.925,0.925,0,0,0-.576.144,10.372,10.372,0,0,1-1.476.684q-1.3.54-2.232,0.9t-1.8.684a8.485,8.485,0,0,1-.936.324,5.964,5.964,0,0,0-.9.576,5.846,5.846,0,0,1-.9.576,2.978,2.978,0,0,0-.612.324,2.978,2.978,0,0,1-.612.324,1.2,1.2,0,0,0-.36.432,4.661,4.661,0,0,1-1.3,1.08h0Zm12.384,34.272a2.555,2.555,0,0,1-1.188-.216,2.068,2.068,0,0,1-.684-0.612,1.706,1.706,0,0,1-.324-0.9,5.868,5.868,0,0,0-.288-1.3,19.839,19.839,0,0,1-.54-2.664,36.613,36.613,0,0,1-.324-4.932,17.348,17.348,0,0,1,.108-3.348,2.115,2.115,0,0,1,.4-0.54,1.935,1.935,0,0,1,.576-0.4,0.63,0.63,0,0,0,.324-0.648,1.479,1.479,0,0,1,.108-0.684,4.269,4.269,0,0,0,.144-1.3,4.292,4.292,0,0,1,.144-1.3q0.108-.178.144-10.3t-0.072-10.26a1.308,1.308,0,0,1-.144-0.612,1.96,1.96,0,0,0-.144-0.684,2.852,2.852,0,0,1-.144-0.936,2.114,2.114,0,0,0-.144-0.864A31.641,31.641,0,0,1,273.771,83a31.677,31.677,0,0,0-.144-4.068,3.815,3.815,0,0,1-.144-1.26,3.828,3.828,0,0,0-.144-1.26,3.292,3.292,0,0,1-.144-1.152,3.762,3.762,0,0,0-.108-1.08,1.139,1.139,0,0,1-.144-0.468,1.392,1.392,0,0,0-.18-0.54,1.408,1.408,0,0,1-.144-0.648,1.6,1.6,0,0,1,.18-0.9,2.08,2.08,0,0,1,.612-0.684,2.3,2.3,0,0,1,2.088-.144,2.077,2.077,0,0,1,.684.612,1.809,1.809,0,0,1,.324.972,1.619,1.619,0,0,0,.144.72,3.3,3.3,0,0,1,.144,1.152,3.292,3.292,0,0,0,.144,1.152,3.477,3.477,0,0,1,.144,1.188,3.06,3.06,0,0,0,.144,1.152,32.012,32.012,0,0,1,.144,4.14q0.036,4.033.108,4.1a3.141,3.141,0,0,1,.18.9q0.108,0.829.216,1.4a1.665,1.665,0,0,0,.216.684q0.108,0.108.144,11.124T278.2,111.329a0.379,0.379,0,0,1-.108.216,7.424,7.424,0,0,0-.072,1.188,7.937,7.937,0,0,1-.108,1.4,0.379,0.379,0,0,1-.108.216q-0.036,0-.072,3.96t-0.108,4.176a0.379,0.379,0,0,1-.108.216q-0.036,0-.108,2.808a13,13,0,0,1-.252,3.1,4.6,4.6,0,0,1-1.188.936h0ZM256.1,118.6a2.726,2.726,0,0,1-1.08-.144,2.391,2.391,0,0,1-.648-0.54,1.632,1.632,0,0,1-.432-0.792,2.369,2.369,0,0,0-.18-0.612,4.187,4.187,0,0,1-.144-1.224,3.221,3.221,0,0,1,.288-1.62,2.6,2.6,0,0,1,.72-0.9,1.908,1.908,0,0,1,2.016,0,0.742,0.742,0,0,0,.792.108,1.354,1.354,0,0,0,.5-0.324,1.874,1.874,0,0,1,.432-0.36,1.414,1.414,0,0,0,.5-0.612,4.178,4.178,0,0,1,.9-1.08q0.72-.683.864-0.864t0.648-.684a6.041,6.041,0,0,0,.828-1.008,2.453,2.453,0,0,1,.72-0.756,2.539,2.539,0,0,0,.72-0.72,2.592,2.592,0,0,1,.72-0.72,1.634,1.634,0,0,0,.612-0.72,2.622,2.622,0,0,1,.5-0.756,3.92,3.92,0,0,0,.54-0.684,11.222,11.222,0,0,1,1.188-1.368,18.382,18.382,0,0,0,1.836-2.268,15.082,15.082,0,0,1,1.224-1.62,10.633,10.633,0,0,0,1.476-2.052,3.458,3.458,0,0,1,.5-0.756,5.605,5.605,0,0,0,.576-0.792,2.174,2.174,0,0,1,.612-0.684,1.222,1.222,0,0,0,.432-0.432,1.635,1.635,0,0,1,.5-0.5,2.206,2.206,0,0,1,1.188-.324,2.334,2.334,0,0,1,1.188.18,2.077,2.077,0,0,1,.684.612,1.673,1.673,0,0,1,.288,1.008,1.742,1.742,0,0,1-.18.9,3.3,3.3,0,0,1-.828.756,3.8,3.8,0,0,1-.72.468,0.942,0.942,0,0,0-.324.36,1.5,1.5,0,0,1-.288.36,8.066,8.066,0,0,0-.612.936,16,16,0,0,1-1.188,1.692,7.02,7.02,0,0,1-.648.756q-0.036,0-.936,1.3a17.374,17.374,0,0,1-1.584,2.016,7.729,7.729,0,0,1-.72.72,6.543,6.543,0,0,0-.612.756,6.543,6.543,0,0,1-.612.756,2.748,2.748,0,0,0-.324.576,3.619,3.619,0,0,1-.792,1.044,2.469,2.469,0,0,1-.576.468,2.226,2.226,0,0,0-.5.576,2.183,2.183,0,0,1-.5.576,0.7,0.7,0,0,0-.288.252c-0.144.169-.384,0.432-0.72,0.792a4.49,4.49,0,0,1-.54.54,2.193,2.193,0,0,0-.324.468,3.084,3.084,0,0,1-.828.864,4.6,4.6,0,0,1-.576.4,1.953,1.953,0,0,0-.252.5,2.7,2.7,0,0,1-.576.864,1.436,1.436,0,0,1-.432.36,0.948,0.948,0,0,0-.324.36,2.8,2.8,0,0,1-.828.72,3.2,3.2,0,0,1-.648.36,0.233,0.233,0,0,0-.144.18,3.841,3.841,0,0,1-.684.792A10.713,10.713,0,0,1,256.1,118.6h0Zm44.856-4.032a3.248,3.248,0,0,1-1.548-.324,3.675,3.675,0,0,0-.72-0.432,8,8,0,0,1-1.008-.576,5.763,5.763,0,0,1-.936-0.72,3.029,3.029,0,0,0-.864-0.576,2.357,2.357,0,0,1-.792-0.54,3.47,3.47,0,0,0-.612-0.54,1.548,1.548,0,0,0-.612-0.288,2.044,2.044,0,0,1-.684-0.288,1.76,1.76,0,0,1-.648-0.612,5.389,5.389,0,0,0-.648-0.828,6.282,6.282,0,0,0-1.224-.972,11,11,0,0,1-1.8-1.512,7.991,7.991,0,0,1-1.152-1.3,0.413,0.413,0,0,0-.288-0.288,1.566,1.566,0,0,1-.576-0.252,2.594,2.594,0,0,1-.828-0.864,4.343,4.343,0,0,0-.684-0.864,9.627,9.627,0,0,1-.72-0.72,7.263,7.263,0,0,0-.612-0.612q-0.18-.142-0.864-0.864t-0.864-.864q-0.18-.143-0.864-0.828a5.618,5.618,0,0,0-1.3-1.008,4.824,4.824,0,0,1-1.152-.864,2.3,2.3,0,0,0-.72-0.576,2.4,2.4,0,0,1-.576-0.252,2.064,2.064,0,0,1-.684-0.612,1.7,1.7,0,0,1-.324-0.9,1.6,1.6,0,0,1,.18-0.9,2.08,2.08,0,0,1,.612-0.684,2,2,0,0,1,1.08-.324,2.352,2.352,0,0,1,1.188.216,4.155,4.155,0,0,1,1.044.792,4.824,4.824,0,0,0,1.152.864,5.4,5.4,0,0,1,1.26.972,7.277,7.277,0,0,0,1.152.972,2.5,2.5,0,0,1,.792.792,2.262,2.262,0,0,0,.756.756,2.507,2.507,0,0,1,.792.792,2.2,2.2,0,0,0,.684.72,2.569,2.569,0,0,1,.612.5,3.469,3.469,0,0,0,.432.432q0.18,0.145,1.008.936a11.847,11.847,0,0,1,1.332,1.476,5.619,5.619,0,0,0,1.116,1.152,11.1,11.1,0,0,0,.972.684,6.8,6.8,0,0,1,1.08.936,12.787,12.787,0,0,0,1.188,1.08,7.865,7.865,0,0,0,1.152.72,3.434,3.434,0,0,1,.936.648,1.949,1.949,0,0,0,.612.468,4.993,4.993,0,0,1,.936.684,2.706,2.706,0,0,0,.972.612,4.512,4.512,0,0,1,1.116.576,4.213,4.213,0,0,1,1.116,1.008,1.916,1.916,0,0,1,.4,1.152,1.74,1.74,0,0,1-.18.9,4.577,4.577,0,0,1-1.188.936h0Zm-33.552,1.44a4.747,4.747,0,0,1-1.836-.216,2.057,2.057,0,0,1-.684-0.612,1.7,1.7,0,0,1-.324-0.9,1.606,1.606,0,0,1,.18-0.9,2.088,2.088,0,0,1,.612-0.684,1.642,1.642,0,0,1,.828-0.324,2.115,2.115,0,0,0,.792-0.216,5.237,5.237,0,0,0,.756-0.468,3.775,3.775,0,0,1,1.116-.5,3.724,3.724,0,0,0,1.116-.5,1.824,1.824,0,0,1,.972-0.324,2.881,2.881,0,0,0,1.044-.252,6.756,6.756,0,0,1,1.224-.4,8.286,8.286,0,0,0,1.656-.612,4.432,4.432,0,0,1,1.332-.468,1.376,1.376,0,0,0,.756-0.288,3.3,3.3,0,0,1,1.548-.324,3.277,3.277,0,0,0,1.656-.4,2.016,2.016,0,0,1,.828-0.4,1.039,1.039,0,0,0,.5-0.18,2.47,2.47,0,0,1,1.008-.144,2.432,2.432,0,0,0,1.008-.144,4.535,4.535,0,0,1,1.44-.144,4.114,4.114,0,0,1,1.728.18,2.079,2.079,0,0,1,.684.612,1.675,1.675,0,0,1,.288,1.008,1.74,1.74,0,0,1-.18.9,2.192,2.192,0,0,1-.684.612,2.286,2.286,0,0,1-1.26.324,2.075,2.075,0,0,0-.972.144,2.164,2.164,0,0,1-1.008.144,2.192,2.192,0,0,0-1.008.144,0.722,0.722,0,0,1-.4.144,3.431,3.431,0,0,0-.972.432,3.55,3.55,0,0,1-1.728.432,2.5,2.5,0,0,0-1.26.216,2.444,2.444,0,0,1-.9.324,6.271,6.271,0,0,1-.684.108,2.062,2.062,0,0,0-.576.252,8.177,8.177,0,0,1-1.188.5,4.354,4.354,0,0,1-.864.252,4.1,4.1,0,0,0-.9.324,3.278,3.278,0,0,1-1.188.324,1,1,0,0,0-.612.144,4.34,4.34,0,0,1-.9.432q-0.72.289-2.952,1.44h0Z"/>
</svg>
