<svg xmlns="http://www.w3.org/2000/svg" width="1540" height="1450" viewBox="0 0 1540 1450">
  <defs>
    <style>
      .cls-1 {
        fill: #fff;
      }

      .cls-1, .cls-2, .cls-3 {
        fill-rule: evenodd;
      }

      .cls-2 {
        fill: #fefefe;
      }

      .cls-3 {
        fill: #fdfdfd;
      }
    </style>
  </defs>
  <path id="字体名称" class="cls-1" d="M175.039,313.816q-8.4-9.859-8.4-25.1a53.465,53.465,0,0,1,1.367-12.012A51.078,51.078,0,0,1,172.5,264.7a24.736,24.736,0,0,1,9.375-9.863,27.969,27.969,0,0,1,14.844-3.809q15.234,0,25.39,6.836l4.883,2.735q0.39-3.32,1.074-6.641t0.879-4.492a5.236,5.236,0,0,0-.1-2.246,3.229,3.229,0,0,0-1.66-1.856l-8.2-4.1q-8.6-3.9-21.679-3.906-20.316,0-33.594,14.55T150.43,287.938q0,20.315,12.988,34.863t33.887,14.551a61.016,61.016,0,0,0,21.386-4.3q11.427-4.3,11.426-8.2a13.618,13.618,0,0,0-.195-2.54v-0.195l-0.781-9.765q-0.586.393-3.418,2.246t-5.176,3.125q-2.344,1.272-6.055,2.832a37.306,37.306,0,0,1-8.4,2.343,61.764,61.764,0,0,1-10.156.782Q183.436,323.68,175.039,313.816Zm93.164,21q11.72,0,16.406-.39,6.249-18.75,13.965-45.41t8.887-37.4h0.195a149.861,149.861,0,0,0,3.711,20.508l12.305,41.992q4.491,15.821,6.64,20.313a3.194,3.194,0,0,1,.977.195,3.3,3.3,0,0,0,.781.195h16.211l28.907-93.75H361.953l-5.859,18.555q-0.98,3.909-5.176,17.774t-7.52,26.367q-3.323,12.5-4.687,20.508h-0.195q-0.587-8.594-17.383-63.477l-4.492-14.844q-1.173-4.489-2.149-4.883H303.945q-3.126,0-3.711.586l-2.148,5.86-4.3,14.844q-15.82,50.39-15.82,61.914h-0.2q-0.585-8.79-5.273-25.2l-17.188-58.008H239.3ZM387.93,203.367l54.687-.195v131.64h18.75V203.172l54.492,0.195V189.7H387.93v13.672ZM571.914,323.68a35.992,35.992,0,0,1-8.3-3.223,35.431,35.431,0,0,1-8.691-6.25,30.669,30.669,0,0,1-6.641-10.449,39.691,39.691,0,0,1-2.734-15.235h65.43q0-14.648-3.418-25.2t-9.278-15.918a38.712,38.712,0,0,0-11.816-7.715,33.6,33.6,0,0,0-12.4-2.343,37.5,37.5,0,0,0-8.2,1.074,45.739,45.739,0,0,0-11.035,4.492,49.239,49.239,0,0,0-11.523,8.594q-5.178,5.176-8.789,14.648a59.621,59.621,0,0,0-3.614,21.387q0,20.9,13.282,35.351a43,43,0,0,0,33.008,14.454,56.413,56.413,0,0,0,22.851-5.274q0.779-.393,2.344-1.172,5.466-2.733,6.738-4.1t0.684-4.688v-0.195l-0.977-9.57q-0.393.2-6.055,4a53.064,53.064,0,0,1-11.621,5.957,38.572,38.572,0,0,1-13.183,2.149A28.455,28.455,0,0,1,571.914,323.68ZM546.719,277q3.121-13.083,10.742-19.824t16.8-6.738a20.689,20.689,0,0,1,5.957.976,33.985,33.985,0,0,1,7.422,3.516,21.253,21.253,0,0,1,7.324,8.2,37.9,37.9,0,0,1,4.1,13.867H546.719Zm115.625-37.891q0.779,0.98,6.64,8.692t7.227,9.863l-0.977,1.953-55.078,75.195h2.735q12.693,0,15.234-.1t2.93-1.27l11.523-15.82,0.977-.977,32.617-46.093q4.1,6.055,12.695,17.383,8.007,11.131,16.6,22.949t12.4,17.09q3.808,5.273,4.981,6.64h0.39l21.485,0.195-59.18-77.148,0.976-1.953,49.415-67.383H743.2a170.336,170.336,0,0,0-17.578.586l-3.516,4.3-36.328,50.195-40.625-54.492c-0.39-.128-1.239-0.323-2.539-0.586H623.086Zm340.426,88.672-11.911-.39V190.867q-0.782-3.318-2.734-3.32l-72.266-.195q-3.126,1.172-3.125,2.929l-0.586,137.5H898.086v14.258H1002.77V327.781ZM926.992,233.25V203.172l1.172-.977H975.43l1.172,0.977V233.25h-49.61Zm0,47.266V248.094H976.6v32.422h-49.61Zm0,46.875V295.555H976.6v31.836h-49.61ZM894.57,195.164A256.517,256.517,0,0,1,885,235.4l1.172,0.391c0.65,0.263,1.465.586,2.441,0.977s2.051,0.781,3.223,1.172,2.277,0.717,3.32.976a10.822,10.822,0,0,0,2.539.391q1.173,0,4.883-16.6t4.883-24.414Zm-45.7,0-12.5,2.734q3.121,9.961,5.176,17.969t2.637,11.817q0.585,3.809.879,6.347t0.488,3.516a3.372,3.372,0,0,0,.976,1.758l12.891-1.758q-2.343-24.8-10.547-42.383h0ZM879.141,260.4h26.171V247.312l-26.562-.39V181.883H864.3l-0.2,65.429h-29.3V260.2l26.367,0.586q-10.745,30.079-27.93,50.195l13.477,5.274A188.88,188.88,0,0,0,864.1,285.984l0.2,0.391V347.9H878.75l0.391-66.015,0.2,0.39,16.6,22.852,0.976-.781,10.352-8.4q-2.152-2.147-11.817-14.355t-16.308-19.238V260.4Zm311.719,25-71.29-.39,0.39-13.477h60.94V258.25l-61.33-.391,0.39-13.281h61.33l1.37-1.172V185.2l-0.59-.586-139.84-.39-0.98.976v58.2l0.39,0.782,62.5,0.585-0.39,13.477h-60.74v13.281l61.13,0.2-0.39,13.671h-70.9v13.477h158.01V285.4Zm-70.9-54.882V197.9h47.46l0.39,32.422Zm-63.48,0-0.39-32.618h47.66v32.618h-47.27Zm74.22-9.766q8.985,7.814,11.33,8.984a144.276,144.276,0,0,0,16.02-20.9v-0.781q-1.17-.587-11.33-8.008-3.51,5.47-16.02,20.7h0Zm-50.78-19.922a110.92,110.92,0,0,0-11.91,8.008,131.355,131.355,0,0,1,13.08,20.117q9.765-5.273,12.5-7.812-7.6-13.477-13.67-20.313h0Zm92.78,100.977-11.33,8.593q9.765,11.719,21.87,34.375,3.705-1.565,12.89-7.617-12.69-22.851-23.43-35.351h0ZM1147.3,335.4q-6.24-23.24-9.18-29.882l-13.67,3.711A238.748,238.748,0,0,1,1135,343.6l13.87-2.54Zm-60.93-28.71a226.864,226.864,0,0,1-3.13,34.374l14.06,2.54a14.256,14.256,0,0,0,.2-2.93q2.73-25.2,2.73-32.617Zm-33.01-2.735q-8.2,17.579-25.59,29.3,3.915,3.9,8.4,12.109,17.97-12.5,29.88-33.593Zm329.49-110.547-24.02-.39V181.492h-11.92l-0.39,11.719-11.91-.2V181.492H1322.3l-0.39,11.719h-24.02l-0.59.977V252.2l0.59,0.782h84.38l0.78-.782Zm-23.83,23.047V204.93h11.33l0.2,11.523h-11.53Zm-24.22,0V204.93h11.72v11.523H1334.8Zm24.22,24.805v-12.7h11.53v12.3Zm-24.22,0v-12.7h11.72v12.7H1334.8Zm-25-24.805V204.93h12.11v11.523H1309.8Zm0.2,24.805-0.2-12.7h12.11v12.7H1310Zm76.37,20.117H1297.3v11.914h89.07V261.375Zm2.73,71.68-24.61-.391a9.629,9.629,0,0,1,.59-2.051c0.39-1.1.97-2.862,1.76-5.273s1.56-4.718,2.34-6.934l12.5-.39,0.59-1.172V282.859l-1.18-.586h-77.14l-0.79.586v34.375l0.59,0.2,12.7,0.976q3.9,11.527,4.1,14.649h-26.96v12.3h95.51v-12.3Zm-73.24-27.344-0.39-11.133h53.71l0.59,10.742Zm34.96,26.758-16.21.195-4.3-14.258h25.78Zm-83.98,2.343q-4.3,0-11.14-2.539l0.2,14.258a122.058,122.058,0,0,0,13.48,1.367q7.215,0,10.74-3.906t3.51-6.836l0.98-75.781,5.08,1.758q5.46-16.012,5.86-25.977l-12.11-5.468-0.39-44.336-1.96-1.758-47.07-.391a3.639,3.639,0,0,0-2.54,2.149l-0.78,44.921h-2.34a13.6,13.6,0,0,0-5.86.977v28.711l8.98,0.391v83.593h12.7V320.359h26.76c0,0.263.03,0.879,0.1,1.856s0.09,1.66.09,2.051q0,8.788-4.29,10.546h0Zm-14.65-128.906-1.76,1.563v24.414h-7.03V197.9l0.78-.781h25.78q0.975,1.954.98,8.789h-18.75Zm9.57,25.977V217.234l0.19-.39h8.99v15.039h-9.18Zm18.75,14.648q0,3.909-2.54,11.719H1235V245.164l0.59-.586h44.14a2,2,0,0,1,.78,1.953h0Zm-35.94,36.719,0.2-12.5h25.39l0.39,0.586V283.25h-25.98Zm0,24.805v-12.11h25.98v12.11h-25.98Z"/>
  <path id="中文示例" class="cls-2" d="M358.926,701.184a1.385,1.385,0,0,0-1.27-1.172l-37.5-.1a1.489,1.489,0,0,0-1.172,1.172v39.062a79.915,79.915,0,0,1-.439,8.936,39.285,39.285,0,0,1-2.149,8.643,22.517,22.517,0,0,1-4.687,7.959,26.56,26.56,0,0,1-8.447,5.664,37.265,37.265,0,0,1-13.086,2.978l4.1,7.324a80.324,80.324,0,0,0,8.643-2.05,42.775,42.775,0,0,0,7.324-3.125,22.728,22.728,0,0,0,6.445-4.981,36.777,36.777,0,0,0,4.981-7.617,50.99,50.99,0,0,0,3.955-11.133l26.074,0.1v16.6a4.9,4.9,0,0,1-1.465,3.418q-1.464,1.563-4.687,1.563-0.879,0-4-.391l-9.766-2.246a3.433,3.433,0,0,1,.2,1.074,52.969,52.969,0,0,0,.683,6.836l4.395,0.879a59.42,59.42,0,0,0,9.082.977,19.2,19.2,0,0,0,6.445-.977,8.984,8.984,0,0,0,3.955-2.441,14.272,14.272,0,0,0,1.807-2.637,4.618,4.618,0,0,0,.586-1.953V701.184ZM326.7,722.668V707.629l0.781-.1h23.243l0.781,0.586v14.551H326.7Zm-0.293,22.363L326.7,730.48H351.5v14.551h-25.1ZM310,701.672l-28.906-.1a1.709,1.709,0,0,0-1.758,1.074l-0.1,69.922h7.422v-9.179L310,763.1l1.172-1.27,0.195-58.594q-0.585-1.56-1.367-1.562h0Zm-23.242,27.344V709.875a1,1,0,0,1,.976-0.684h15.43l0.488,0.684v19.141H286.758Zm16.8,25.976-0.782.586H286.758v-18.75h16.894Zm77.881,23.438a30.366,30.366,0,0,0,4.345,1.269q5.077-10.447,9.082-26.66l51.66,0.1v5.273q0,10.059-.244,11.768a3.362,3.362,0,0,1-2.3,2.588q-1.954.684-6.738-.245a55.577,55.577,0,0,1-9.57-2.783l-0.1,9.18a94.657,94.657,0,0,0,15.039,1.758q6.346,0,9.033-2.2a6.408,6.408,0,0,0,2.686-5.03l0.195-71.289q-0.783-1.56-1.269-1.562l-63.574-.1a1.815,1.815,0,0,0-1.661,1.172L387.734,742.4q0,13.476-10.156,34.667Q377.968,777.257,381.436,778.43Zm14.7-55.86V709.094l0.39-.684h49.219l0.684,0.684V722.57H396.133Zm-0.195,22.364,0.195-14.161h50.293v14.161H395.938Zm147.46,3.515V772.57l-0.586.879H517.227l0.1-33.691h28.418a3.891,3.891,0,0,0,3.711-2.344l0.2-30.664h-7.91v24.219l-0.879.879-23.632-.1V701.77h-8.106l-0.1,30.078h-23.73a2.17,2.17,0,0,1-.977-1.075V706.75H476.5v29.1a4.245,4.245,0,0,0,2.051,3.71l30.566,0.293-0.1,33.692H483.438a1.8,1.8,0,0,1-.879-0.977V748.449h-7.911l0.2,30.664q0.681,1.854,1.66,1.856h72.949q0.683,0,1.856-1.856l0.1-30.664H543.4Zm108.5,25.879a137.141,137.141,0,0,1-13.379-7.519,92.147,92.147,0,0,1-11.719-8.887,41.891,41.891,0,0,1-8.643-10.449,22.145,22.145,0,0,1-3.174-11.035h36.231v-7.813l-37.207-.1,0.195-18.261h31.153v-7.813h-70.7v7.813l31.348,0.1v5.176q0,9.668-.293,13.086H568.3v7.813l36.621,0.1q-1.662,12.5-12.061,22.315a64.861,64.861,0,0,1-24.756,14.5l5.079,6.738a83.7,83.7,0,0,0,21.826-13.477,63.877,63.877,0,0,0,14.7-19.629q3.026,7.815,11.084,16.065t25.147,17.334Zm92.578-63.769H736.66v61.523l-0.781.879-24.707-.2v-70.8h-8.3l-0.1,71H678.164l-0.195-.1-0.879-.976V710.559h-7.715v66.406q0,3.025,2.051,3.711l69.238,0.1a4.015,4.015,0,0,0,3.809-2.148V710.559Zm96.289,4.394,0.586-.683-5.078-1.954h15.136v2.637l7.617-.1,0.2-2.636H876.7v-7.031l-17.676-.2v-4.883h-7.617l-0.1,5.079-31.25-.2v-4.883h-7.52l-0.1,5.079H793.984v7.031l18.555,0.1v3.223h7.52l0.1-3.32,14.356,0.1a53.315,53.315,0,0,1-14.893,8.5q-8.448,3.223-25.83,6.153l2.539,6.933,10.156-2.343,11.133-3.321v3.711h35.547l0.2-4.883q5.469,1.857,21.289,5.567l2.637-7.324a107.372,107.372,0,0,1-36.523-10.352h0Zm-16.309,10.938a105.276,105.276,0,0,0,11.133-6.25l13.574,6.25H824.453Zm-24.121,56.836q7.91-7.911,10.254-23.829l56.152-.2,1.172-.879,0.293-21.777q-0.292-1.562-1.465-1.563l-61.621-.1a1.836,1.836,0,0,0-1.367,1.074v4.59q0,6.152-.049,8.838t-0.537,7.715a38.655,38.655,0,0,1-1.465,8.007,47.958,47.958,0,0,1-2.929,6.787,32.453,32.453,0,0,1-4.883,7.032q4.784,3.318,6.445,4.3h0Zm10.547-39.063q0-3.025.683-3.516h48.731a7.919,7.919,0,0,1,.488,3.516h-49.9Zm49.414,9.473H810.879v-3.516h49.9q0,3.029-.488,3.516h0Zm9.863,11.23-1.074-.976H813.613q-1.464.293-1.465,0.976l-0.2,18.457h6.836v-3.613l44.727,0.195v3.418h6.738Zm-51.367,8.789q0-3.417.781-3.711h42.969a1.007,1.007,0,0,1,.781.879v2.832H818.789ZM973.965,708.02l-19.141-.2v-7.617H947.4l-0.2,7.813-26.172-.2v-7.617h-7.519l-0.2,7.813H892.031v7.519l21.485,0.1v5.468h7.519l0.1-5.566,26.269,0.1v5.175h7.422l0.1-5.273h19.043V708.02Zm-35.108,64.209q-4.444-1.221-5.908-2.686a4.387,4.387,0,0,1-1.465-3.125V739.66h42.481v-7.422l-25.488-.2v-8.5h-7.52l-0.1,8.691H918.008v7.422l5.762,0.1V765.93a15.209,15.209,0,0,0,1.416,6.787,12.038,12.038,0,0,0,3.808,4.59,18.56,18.56,0,0,0,6.25,2.685,49.154,49.154,0,0,0,7.91,1.319q4.052,0.34,9.619.341a113.349,113.349,0,0,0,19.532-1.855l0.293-8.008q-1.857.391-10.108,1.025t-12.256.635A43.964,43.964,0,0,1,938.857,772.229Zm-39.209-51.807-4,6.543q5.467,2.442,14.257,9.57l4.493-6.347q-9.474-7.128-14.747-9.766h0Zm-3.906,16.6-4,6.348a103.5,103.5,0,0,1,13.672,8.887l4.492-6.153a70.194,70.194,0,0,0-14.16-9.082h0Zm22.168,18.555-6.738-3.125a73.643,73.643,0,0,1-20.117,25l6.054,5.274q11.133-8.5,20.8-26.856v-0.293Zm140.72-33.2h-22.56v5.762h22.56v-5.762Zm0,9.863h-22.26V737.9h22.26v-5.664Zm6.35-20.019-32.91-.2,0.1-4.492h29.98v-6.64H995.059v6.64l29.691,0.1-0.2,4.492H988.809l-0.684.781v17.969h6.836V719.543l0.195-.586h29.594v20.9h7.32l0.1-21h29.98q0.39,0,.78,1.172v0.2l-2.05,9.668a38.855,38.855,0,0,0,6.54,1.855q3.225-10.741,3.42-16.6Zm-44.53,10.449H998.281v5.859h22.169v-5.859Zm41.7,20.7H995.059v6.445h67.091v-6.445Zm-41.7-11.133H997.988V737.9h22.462v-5.664Zm29.59,29.785,17.38-.2V755.09H989.785v6.738l22.265,0.2a90.829,90.829,0,0,1-7.52,10.84l-14.842.684,1.66,7.031,0.2-.1,66.8-3.32,5.96,4.883,4.88-5.469q-3.9-3.614-19.14-14.551h0ZM1014,772.375q4-5.859,6.64-10.352h27.64l-4.1,5.079,5.37,3.613ZM1167.71,704.8h-47.26a39.589,39.589,0,0,0,.88-3.906c-2.87-.455-5.37-0.911-7.52-1.368a41.473,41.473,0,0,1-11.82,22.461l5.96,4.786a51.378,51.378,0,0,0,10.06-14.747h49.7V704.8Zm-76.66-4.1-4.59,5.957a121.282,121.282,0,0,1,13.09,10.547l4.98-5.566a67.656,67.656,0,0,0-13.48-10.938h0Zm77.64,39.844-5.27-.293,0.78-14.062V725.4a6.5,6.5,0,0,1,.1-1.025,7.667,7.667,0,0,0,.09-0.83q0-4.1-1.66-4.981l-44.43-.1c-0.98,0-1.6,1.269-1.85,3.808l-0.59,7.715a31.478,31.478,0,0,1-2.34,10.547h-9.77v7.129l8.11,0.1q-0.1.585-7.33,22.754,3.12,0.684,7.13,1.953l1.07-2.735h38.58q-1.47,5.274-6.54,5.274-2.745,0-9.97-2.344v0.1l-0.48,8.3,2.05,0.489a50.683,50.683,0,0,0,9.86,1.074c2.99,0,5.26-.473,6.79-1.416a11,11,0,0,0,3.86-4.443l2.83-7.032h8v-7.226l-6.83-.1,1.85-14.746h5.96v-7.129Zm-12.21-12.793q0,0.2-.68,12.5h-34.47a45.475,45.475,0,0,0,.97-6.006,40.494,40.494,0,0,1,.93-5.713,4.3,4.3,0,0,1,1.91-2.832l30.66,0.293,0.49,0.2a8.326,8.326,0,0,0,.19,1.562h0Zm-2.44,26.758a71.1,71.1,0,0,1-1.27,7.812l-37.5.1a0.88,0.88,0,0,1,.1-0.293,0.268,0.268,0,0,1,.1-0.195l4.1-14.16h35.35C1154.86,748.222,1154.56,750.468,1154.04,754.5Zm-16.89-27.734-5.67,3.906a44.939,44.939,0,0,1,6.84,9.277l5.76-3.418q-4.395-6.639-6.93-9.765h0Zm-1.56,21.875-5.28,4.2a78.135,78.135,0,0,1,7.23,8.886c3.19-2.212,5.04-3.45,5.57-3.71q-2.94-4-7.52-9.375h0Zm-46.1-25.684-4.78,5.957a87.864,87.864,0,0,1,12.59,10.742l5.28-5.566a84.031,84.031,0,0,0-13.09-11.133h0Zm5.47,24.023a67.392,67.392,0,0,1-10.64,31.055l7.13,2.637a79.648,79.648,0,0,0,10.84-33.008Zm160.84,33.838a8.912,8.912,0,0,0,3.61-2.051,11.513,11.513,0,0,0,1.76-2.246,3.686,3.686,0,0,0,.59-1.709V701.867l-0.88-.781-31.64-.1c-0.85.261-1.27,0.586-1.27,0.977v28.32l0.88,1.074,25.68,0.293V770.91q0,2.93-4,2.93a49.352,49.352,0,0,1-9.67-1.465v0.1l-0.39,7.715a34.9,34.9,0,0,0,9.67,1.464A17.581,17.581,0,0,0,1255.8,780.822ZM1235.29,713a40.576,40.576,0,0,1,.15-4.785,1.729,1.729,0,0,1,.73-1.172l17.48,0.1a2.217,2.217,0,0,1,.78,1.757l-0.09,4.1h-19.05Zm0.88,12.207a2.5,2.5,0,0,1-.97-1.855l0.09-4h19.05v5.859h-18.17Zm8.89,12.3-0.29-.293-42.68-.2-0.59.489v32.91l0.59,0.683h42.38l0.59-.683v-32.91ZM1208.44,750.5v-6.934h29.68V750.5h-29.68Zm0.19,13.965-0.19-7.129h29.68v6.934Zm11.33-34.18V701.867l-0.78-.781-32.62-.1q-1.17.1-1.17,0.684l-0.19,79.687h7.12l0.1-49.9h26.27c0.85-.391,1.27-0.781,1.27-1.172h0ZM1192.42,713v-0.586c0.07-.976.13-1.855,0.2-2.637s0.09-1.333.09-1.66l0.1-.586,0.59-.488h18.46a2.375,2.375,0,0,1,1.17,1.855l-0.1,4.1h-20.51Zm20.56,7.129c0.03,0.326.05,0.554,0.05,0.683,0,2.085-.43,3.55-1.27,4.395h-19.34v-5.859h20.51A6.36,6.36,0,0,0,1212.98,720.129ZM335.586,940.441l0.1-.293,15.722-10.937q-3.906-5.859-4.492-6.445a134.12,134.12,0,0,1-17.773,12.4q-4.982-4.395-11.719-14.356l0.195-.1h41.7v-7.422l-62.109-.2,0.1-4.883h53.711v-7.031l-53.809-.2,0.1-5.176h53.711v-7.226l-53.809-.2,0.1-4.786,0.586-.2H353.75v-7.129H290.762l-0.879.586L289.59,913.2H278.262v7.52l10.351,0.1-0.1,27.051-10.938,1.075q0.488,2.439,2.051,7.714,26.074-3.222,41.113-8.007l-2.832-7.422a119.213,119.213,0,0,1-21.582,5.371l0.1-25.879,12.012,0.1,4.785,7.325q11.913,18.555,34.57,26.172,6.445,2.147,8.5,2.148h0.391l3.808-7.324a81.9,81.9,0,0,1-24.9-8.692h0Zm118.75,14.014a12.547,12.547,0,0,0,2.295-5.469q0.732-3.562,1.025-6.2t0.489-6.64l-7.032-.391q0,0.587.1,1.562c0.064,0.652.1,1.14,0.1,1.465q0,4.3-.879,5.86l-0.977-.782q-3.907-14.55-4.3-35.644V876.867l-0.781-.683-63.672-.1-1.172.879v44.726q-0.1,19.336-5.566,30.371l6.543,4a62.833,62.833,0,0,0,6.054-27.929l0.2-43.848,0.781-.977,50.195-.2a2.552,2.552,0,0,1,.977,2.246v10.059q0,10.059.488,19.385t1.612,19.384a59.649,59.649,0,0,0,3.662,16.114q2.538,6.054,6.054,6.054A4.761,4.761,0,0,0,454.336,954.455Zm-38.281-9.521,0.1-11.817h17.09l0.391-.488V904.211l-0.1-.391-17.48-.293,0.1-7.715q0.1,0,7.91-.781a83.9,83.9,0,0,0,10.45-1.465q-0.2-1.659-.44-3.222l-0.39-2.49a10.05,10.05,0,0,1-.147-1.221q-16.6,2.833-43.652,2.929l0.976,7.032,18.067-.2-0.2,7.227H391.836l-0.586.586v28.418l0.293,0.391,17.383,0.292-0.2,12.7-23.144,2.539,1.367,7.324,44.727-5.078h1.758l2.832,6.055q3.514-1.466,6.738-2.735a148.07,148.07,0,0,0-10.352-19.531l-6.64,3.32q3.026,4.885,3.222,5.86-9.96.977-13.183,1.172h0Zm0.1-19.141V910.949h10.157L426.5,925.6Zm-17.382,0-0.2-14.844H408.73v14.844h-9.96Zm149.023,14.355q-0.293,6.446-.439,7.373a2.19,2.19,0,0,1-1.026,1.514,10.77,10.77,0,0,1-2.734-.781,19.23,19.23,0,0,1-2.686-1.416q-1.318-.828-2.2-1.514t-2.051-1.66q-1.171-.975-1.465-1.172a93.429,93.429,0,0,0,9.571-7.91l-4.883-5.273-9.375,7.91H530.02a84.392,84.392,0,0,1-6.641-9.864v-0.488h27.93v-6.738l-14.258-.1,2.832-2.734-5.762-5.078q5.955-.975,11.817-1.66l1.367,4.3,6.445-1.66a122.757,122.757,0,0,0-6.25-16.113l-6.348,2.148a16.339,16.339,0,0,1,2.051,5.176q-0.684,0-4.639.537t-4.736.537a190.934,190.934,0,0,0,14.258-20.8l-4.883-3.321h-0.586l-1.953,2.93q-5.47,8.6-7.031,10.547l-4.59-3.906q3.516-4.687,8.105-12.207v-0.586l-5.664-3.418q-2.834,5.079-7.422,12.4a27.76,27.76,0,0,0-3.808-2.344l-3.125,5.664v0.489a56.771,56.771,0,0,1,12.5,9.277l-5.078,6.543-5.176.781,2.246,6.153,9.18-.879-2.832,3.125a33.348,33.348,0,0,1,5.078,4.1q-2.833.1-12.793,0.1-4.4-10.84-4.785-25.391l-0.293-19.922h-7.129q0,18.165.683,24.268t4.395,21.045l-34.375.195-0.781.781q-0.1,4.494-.1,8.3-0.391,16.8-6.641,24.9l6.641,3.125q5.175-7.032,6.934-19.825,5.662,1.37,18.359,7.422l3.32-6.347A166.622,166.622,0,0,0,485.2,929.7v-0.586a3.311,3.311,0,0,1,.489-2.246l30.175,0.2a63.447,63.447,0,0,0,8.3,14.161,89.519,89.519,0,0,1-27.148,9.082l2.148,7.129q13.279-2.541,29.785-10.84a10.893,10.893,0,0,0,1.075.976l4.785,3.711q8.3,5.762,12.7,5.762,3.709,0,5.176-4.688l1.562-8.593c0.064-.26.147-0.553,0.244-0.879a4.794,4.794,0,0,1,.245-0.684V942a1.781,1.781,0,0,0-1.416-1.611,13.269,13.269,0,0,0-3.321-.733,7.73,7.73,0,0,1-2.2-.39v0.878ZM474.16,891.711a53.452,53.452,0,0,1,13.672,8.5l-6.934,8.984-7.031.684-0.488.391,2.148,6.152,0.586-.1q6.446-.879,12.891-1.806l8.838-1.27q2.391-.34,2.49-0.342a1.2,1.2,0,0,1,.781.537,2.6,2.6,0,0,1,.391,1.026,11.1,11.1,0,0,0,.293,1.269,2.258,2.258,0,0,0,.488.977l6.445-1.856a97.378,97.378,0,0,0-5.859-15.527l-6.348,2.246a48.042,48.042,0,0,1,2.051,5.469,56.784,56.784,0,0,1-8.3.781q11.133-15.721,14.747-22.265l-5.274-3.321h-0.488q-2.149,4.006-7.617,12.4l-5.079-3.711,0.782-1.27a94.884,94.884,0,0,0,6.933-10.937q-2.442-1.854-5.468-3.711-3.615,6.152-7.911,12.3l-3.71-1.757ZM650.723,879.8h-20.7v-5.469H622.5l-0.1,5.469H597.988v-5.469h-7.617l-0.195,5.469h-20.9v6.836l21.094,0.1v3.028h7.617l0.1-3.125,24.414,0.1v3.028h7.52l0.2-3.125h20.508V879.8Zm-37.012,45.9,0.195-4.883h27.442l0.683-.683V892.98l-0.39-.488-62.891-.1-0.488.585v27.149l0.293,0.586,27.734,0.195-0.1,5.078-32.617.2-1.172,1.074-0.1,29.687h7.129V933.02l0.2-.293,26.66,0.1v7.324l-0.293.293L584.121,942.3l1.27,6.933,41.211-3.71h2.539l1.367,3.515q6.247-2.733,6.543-3.027-3.42-9.178-6.055-13.184h0.1l9.277-.1,0.391,0.39-0.293,1.563,0.488,8.984q0,4-1.9,5.859t-5.225,1.075l-7.422-2.051,0.391,8.105a75.979,75.979,0,0,0,10.644,1.172,16.1,16.1,0,0,0,5.957-.976l1.27-.879q3.222-2.345,3.223-4.785l0.1-23.536a1.471,1.471,0,0,0-.439-0.976,1.447,1.447,0,0,0-1.123-.488Zm0.195-21.875v-5.273h20.606l0.2,5.273h-20.8Zm0,10.84v-4.687h20.8v4.492Zm-28.32-10.84v-5.273h20.605v5.273H585.586Zm38.379,31.153,1.66,3.32-0.293.293-11.426.879v-6.641H628.75ZM585.684,914.66l-0.1-4.687h20.605v4.687H585.684Zm158.2-36.328-33.692-.2v-3.028h-7.324l-0.195,3.223H668.691v6.836h75.2v-6.836Zm-15.137,66.8a63.411,63.411,0,0,0,8.984-6.445l-0.683-.879q-3.321-4.59-3.516-4.785a47.99,47.99,0,0,1-10.937,7.617,93.54,93.54,0,0,1-9.082-10.449V929.7H744.57v-6.64l-34.472-.2,0.1-2.441h27.93v-5.567l-28.027-.293,0.1-2.343h24.121l0.684-.586V889.074l-0.488-.488H679.141l-0.489.488v22.559l0.293,0.39,24.219,0.293-0.1,2.442H673.477v5.664l29.687,0.293-0.1,2.344H667.812v6.64l20.215,0.293a75.418,75.418,0,0,1-22.265,8.985l3.222,6.738q7.032-1.659,18.36-7.422h0.39l-0.1,11.035L677.09,950.6l2.441,7.226q27.636-4.687,29.492-7.129l-2.734-6.445a37.549,37.549,0,0,1-11.23,3.418v-14.16l4.687-3.809,12.012,0.293-4.395,3.028q15.331,22.168,38.086,24.609a23.417,23.417,0,0,1,1.319-3.076,15.618,15.618,0,0,0,1.416-3.955q-12.012-1.37-19.434-5.469h0ZM710.2,898.059v-3.516H727.48v3.516H710.2Zm0,8.3v-3.32H727.48v3.125Zm-24.218-8.3v-3.516h17.089v3.516H685.977Zm0.2,8.3-0.2-3.32h17.089v3.32H686.172Zm188.769,45.8q-15.431-13.671-20.214-26.953-3.908-10.155-3.907-27.832,0-4.2.1-6.543h16.406a2.822,2.822,0,0,1,.586,2.148q0,5.47-8.3,23.536V917a68.577,68.577,0,0,0,7.129,1.758,116.877,116.877,0,0,0,9.18-32.129l-4.59-3.223-33.789-.293,1.172-6.543L831,875.109q-1.856,18.654-10.742,31.934a21.47,21.47,0,0,1,6.25,4.2,88.641,88.641,0,0,0,9.082-20.41l7.715,0.1L843.2,904.9a54.322,54.322,0,0,1-.537,7.47,62.5,62.5,0,0,1-7.178,20.264,49.024,49.024,0,0,1-8.4,10.4,55.3,55.3,0,0,1-12.6,9.131l5.762,5.664a72.718,72.718,0,0,0,17.48-15.722l1.954-2.637a107.9,107.9,0,0,0,7.031-14.453q5.368,15.918,22.558,32.812l1.075-.781q5.565-3.516,5.957-3.711a8.232,8.232,0,0,0-1.368-1.172h0ZM817.91,880.969l-21.289-.2a1.76,1.76,0,0,0-1.562,1.172l-0.2,69.532h7.52l0.293-6.348,15.234-.2,1.367-1.075,0.2-61.328q-0.783-1.56-1.563-1.562h0Zm-6.348,56.054-0.878.489h-8.008v-48.34q0-.78,2.051-0.879l6.25,0.1,0.781,0.781Zm160.547-56.347-33.886-.1v-5.762H930.7l-0.195,5.86-31.446.1-0.976.879L897.7,926.086q-0.1,14.845-6.933,26.074v0.488l5.957,2.54H897.4a50.155,50.155,0,0,0,7.715-25.879l0.293-26.465,9.766,0.1,0.195,11.914q0,1.077,1.953,1.954h39.453q1.854-.781,1.856-2.051l0.293-11.914h12.988v-7.032l-13.184-.2,0.2-7.812h13.183v-7.129Zm-49.121,14.941V888h28.125v7.617H922.988ZM951.113,908.9q0,0.587-.976.586H923.672q-0.783,0-.879-1.464l0.2-5.079h28.125V908.9Zm-45.7-13.281v-7.129l0.684-.488h8.984v7.617H905.41Zm41.5,49.219a53.827,53.827,0,0,0,15.039-12.6q0.975-1.268,1.807-2.343t1.269-1.612q0.439-.535.782-0.928t0.488-.585a1.306,1.306,0,0,0,.2-0.342,1.1,1.1,0,0,0,.049-0.342l-0.2-.391-0.684-1.074-4.2-3.418H910.586v7.129H955.02l0.2,0.391q-5.763,6.543-17.285,12.89l-3.321-1.367q-4.98-2.146-19.14-10.937l-2.539,7.031q9.471,5.763,15.625,8.984a67.152,67.152,0,0,1-7.959,2.2q-3.956.831-17.92,3.174l2.636,7.422a139.323,139.323,0,0,0,32.52-8.789q13.084,5.175,33.008,8.5l3.418-7.715q-17.97-2.147-27.344-5.273h0Zm101.756-21.777-5.66,4.785a130.143,130.143,0,0,1,13.47,15.527l6.25-4.394a189.347,189.347,0,0,0-14.06-15.918h0Zm21.68,23.632-37.21-.1,0.1-29.1h31.35v-7.519l-31.45-.2,0.1-23.632h34.28v-7.422H991.543v7.422l33.5,0.1-0.1,23.731H994.57v7.519l30.47,0.1-0.1,29.1H988.711v7.52h81.639v-7.52Zm91.26,7.569q3.765-2,3.76-5.127l0.2-71.68q-0.585-1.464-1.47-1.465l-31.35-.293a1.868,1.868,0,0,0-1.75,1.172V914.66l1.17,1.172,25.88,0.2v28.711a4.186,4.186,0,0,1-1.22,2.393,3.318,3.318,0,0,1-1.71.928,20.782,20.782,0,0,1-2.35.1,57.194,57.194,0,0,1-14.45-2.441v0.1l-0.59,8.3q10.065,2.148,14.46,2.149A19.931,19.931,0,0,0,1161.61,954.26ZM1138.52,892.3v-7.91a1.622,1.622,0,0,1,1.17-1.075l17.19,0.1,0.78,0.977,0.19,7.91h-19.33Zm1.17,15.918-1.08-.977-0.09-7.129h19.33v8.2Zm-17.29-30.957a1.4,1.4,0,0,0-1.17-1.27L1089,875.7c-0.97.522-1.46,0.913-1.46,1.172l-0.2,78.906h7.62l0.2-39.746,26.07-.2,1.07-.977ZM1095.16,892.3v-8.2l1.17-.782,17.67,0.1,0.88,0.977v7.91h-19.72Zm19.63,15.234-1.08.684-18.55.1v-8.2h19.72Zm148.24-30.859-0.88-.684-34.96-.1c-0.91.261-1.37,0.586-1.37,0.976v24.219l0.88,0.976,7.52,0.293q-0.2.294-5.76,8.008l-3.23-1.953-2.83,5.274q7.425,4.98,9.96,7.617a3.735,3.735,0,0,1-2.24,1.66l-5.57.586a17.814,17.814,0,0,0,.64,2.881,16.561,16.561,0,0,1,.63,3.076l22.07-2.051,1.07,2.246,5.86-1.953a54.291,54.291,0,0,0-5.07-11.621l-5.67,2.441a17.9,17.9,0,0,1,1.27,2.93l-6.15.293A55.9,55.9,0,0,0,1248.96,909l-5.56-2.539A47.531,47.531,0,0,1,1236.37,917l-3.42-3.223a96.847,96.847,0,0,0,7.13-9.277,7.785,7.785,0,0,0-2.35-2.149q6.06-.389,8.99-0.39,3.12,0,9.18.39V946.4q0,2.637-4.1,2.637h-0.59l-6.05-.683-0.3,7.519,2.05,0.391a37.6,37.6,0,0,0,5.28.39,16.556,16.556,0,0,0,5.32-.781,8.871,8.871,0,0,0,3.42-1.9,8.086,8.086,0,0,0,1.61-2.149,4.28,4.28,0,0,0,.49-1.709V876.672Zm-29.98,9.277V884.68c0-2.018.32-3.028,0.97-3.028l20.8,0.1c0.65,0.391.98,1.791,0.98,4.2h-22.75Zm0.97,10.156a1.922,1.922,0,0,1-1.07-1.367l0.1-3.222h22.75V896.3Zm14.75,35.938h-5.86v5.566l-0.88.782-8.01-.1v-7.227h-6.73v25.2h6.73l0.2-12.012h13.38a1.275,1.275,0,0,0,1.17-.977v-11.23Zm-41.31-29.688h4.69q8.79,0,8.79-1.66l-0.1-24.023-0.88-.684-34.57-.1a1.537,1.537,0,0,0-1.37.781l-0.09,79.3h7.22V902.355h13.97a66.649,66.649,0,0,1-5.67,6.641q-2.25-1.561-3.12-2.051l-3.03,5.371a66.394,66.394,0,0,1,10.35,7.618l-5.17,4.2-4.89.488a28.354,28.354,0,0,1,1.47,5.957q16.02-2.343,20.8-2.344a2.741,2.741,0,0,1,1.66.342,3.082,3.082,0,0,1,.39,2h-5.47v8.106h-1.17q-1.17.1-3.03,0.1-4.1,0-4.59-1.172v-5.761h-6.15l0.1,11.23c0.45,1.042,1.01,1.563,1.66,1.563l12.11,0.2a12.8,12.8,0,0,1-3.47,2.881,16.766,16.766,0,0,1-3.61,1.66c-1.01.293-2.56,0.7-4.64,1.221l3.32,6.347,3.12-1.074q12.9-4.787,12.89-16.992v-4.1a24.968,24.968,0,0,1,.2-4.2,27.128,27.128,0,0,0,4.59-1.465q-1.95-8.689-4.39-11.914l-5.28,1.758,1.27,3.418q-6.54.49-7.23,0.488,8.4-7.518,11.82-13.672a20.021,20.021,0,0,0-5.47-2.539,40.611,40.611,0,0,1-6.64,9.082l-3.81-3.32a81.852,81.852,0,0,0,6.45-7.324Zm-16.21-16.406v-0.683c0-2.408.36-3.614,1.07-3.614l20.71,0.1q0.39,0.684.39,4.2h-22.17Zm22.17,6.739q0,3.614-1.17,3.613h-21v-4.785h22.17v1.172Z"/>
  <path id="大写字母" class="cls-3" d="M186.59,529.516l0.469,0.82,0.527,1.289q3.339,9.024,4.043,10.547l0.469,0.117h5.273l-1.465-3.867L181.2,499.164q-0.176-.82-1.816-0.82h-3.34a0.855,0.855,0,0,0-1,.7l-16.289,43.242q3.339,0,4.629-.117,0.409-.879.879-1.934l3.984-10.84c0.195,0,.478.011,0.85,0.03s0.673,0.029.908,0.029q0.117,0,1.758-.029t5.742-.03q6.621,0,9.082.118h0Zm-15-9.141q5.272-14.062,5.918-17.578h0.058l0.645,2.695q6.913,19.57,7.207,20.332H169.656Zm60.375-1.23q9.433-2.989,10.078-9.141a8.281,8.281,0,0,0-.879-4.219q-2.462-4.863-8.613-6.562a40.246,40.246,0,0,0-9.727-.879H211.281v43.945H224q5.449,0,5.918-.059a16.84,16.84,0,0,0,10.078-4.13q3.75-3.486,3.75-7.412a9.384,9.384,0,0,0-3.721-7.706,17.536,17.536,0,0,0-8.525-3.662,4.522,4.522,0,0,1,.469-0.175h0Zm1.67-4.1q-3.428,2.52-11.4,2.519H216.5V501.918h6.094q7.383,0,10.928,2.344t3.544,5.156Q237.062,512.525,233.635,515.043Zm4.013,18.457a9.788,9.788,0,0,1-4.8,3.984,24.865,24.865,0,0,1-8.906,1.231H216.5V521.43h10.078a17.931,17.931,0,0,1,6.094,1.377,9.456,9.456,0,0,1,3.75,2.666,12.538,12.538,0,0,1,1.67,2.724,5.383,5.383,0,0,1-.44,5.3h0Zm25.6-16.875a25.015,25.015,0,0,1,1.406-4.893,23.2,23.2,0,0,1,2.7-5.127,13.481,13.481,0,0,1,4.541-3.925,13.321,13.321,0,0,1,6.621-1.641,16.271,16.271,0,0,1,6.679,1.406l2.286,1.114a5.092,5.092,0,0,0,1.406.82l0.879-5.215A31.24,31.24,0,0,0,278.336,497a19.113,19.113,0,0,0-14.941,6.856,24.543,24.543,0,0,0-6.036,16.816,25.635,25.635,0,0,0,2.754,11.25q5.978,11.778,18.164,11.777,1.171,0,1.758-.058a16.784,16.784,0,0,0,6.094-1.289,13.765,13.765,0,0,0,4.277-2.286l-0.293-4.335-0.117.058-2.4,1.524a17.152,17.152,0,0,1-9.2,2.226,13.27,13.27,0,0,1-11.1-5.625,21.934,21.934,0,0,1-4.365-13.769A23.155,23.155,0,0,1,263.248,516.625Zm42.416,25.664h12.188q5.918,0,6.386-.059a19.367,19.367,0,0,0,7.793-2.753,18.448,18.448,0,0,0,5.537-5.215,24.611,24.611,0,0,0,3.164-6.475,22.7,22.7,0,0,0,1.084-6.885,25.385,25.385,0,0,0-.966-6.855,29,29,0,0,0-2.871-6.738,18.006,18.006,0,0,0-5.245-5.655,17.39,17.39,0,0,0-7.558-3.017l-0.762-.117q-2.109-.177-6.68-0.176h-12.07v43.945Zm5.391-40.371h6.914q3.692,0,5.1.117a12.133,12.133,0,0,1,2.608.7,16.989,16.989,0,0,1,3.369,1.9,14.9,14.9,0,0,1,6.123,8.554,24.536,24.536,0,0,1,1.084,7.53,23.016,23.016,0,0,1-.82,6.328,15.425,15.425,0,0,1-1.026,2.754,26.309,26.309,0,0,1-2.021,3.369,12.293,12.293,0,0,1-3.779,3.457,14.6,14.6,0,0,1-5.479,1.963q-1.524.117-5.156,0.117h-6.914v-36.8Zm46.195,40.371h29.062v-4.512l-23.437.059V521.488h20.859v-3.867H362.875v-15l22.617,0.059v-4.1H357.25v43.711Zm43.734,0h5.625V522.367h19.1V518.5h-19.1V502.621l21.68,0.059v-4.1H400.984v43.711Zm60.551-18.926v3.867h8.438v10.079a1.791,1.791,0,0,1-.235,1l-1.054.351a32.751,32.751,0,0,1-6.973,1,15.419,15.419,0,0,1-1.582-.117q-5.216-.7-9.346-5.947t-4.131-13.447a21.589,21.589,0,0,1,.352-3.575,28.157,28.157,0,0,1,1.406-4.892,22.294,22.294,0,0,1,2.666-5.127,13.2,13.2,0,0,1,4.541-3.9,13.51,13.51,0,0,1,6.621-1.611,16.021,16.021,0,0,1,7.852,1.934l2.051,1.347q0.351,0.235.673,0.469t0.5,0.352l0.176,0.117,0.645-3.75a3.466,3.466,0,0,0,.146-1.319,2.1,2.1,0,0,0-1.084-.673,25.407,25.407,0,0,0-10.957-2.578,19.1,19.1,0,0,0-15.7,7.617,23.785,23.785,0,0,0-5.39,14.941q0,9.845,4.687,15.85a21.333,21.333,0,0,0,11.426,7.822,0.829,0.829,0,0,0,.351.059,23.6,23.6,0,0,0,4.512.527,28.257,28.257,0,0,0,10.137-2.051,8.153,8.153,0,0,0,2.314-.967,2.162,2.162,0,0,0,.323-1.435V523.363h-13.36Zm29.555,18.926h5.625V521.43h21.562v20.859H523.9V498.344h-5.625v19.218H496.715V498.344H491.09v43.945Zm50.765,0h5.625V498.344h-5.625v43.945Zm25.6-3.164a7.873,7.873,0,0,1-3.369-1.875l-1.231-1.055-0.527,3.457a5.9,5.9,0,0,0-.117,1.172q0,0.353,1.582,1.026a26.716,26.716,0,0,0,4.189,1.289,21.59,21.59,0,0,0,4.952.615,11.046,11.046,0,0,0,8.261-3.106,8.2,8.2,0,0,0,2.2-3.808,23.031,23.031,0,0,0,.556-5.567V498.344H578.5v33.1a10.048,10.048,0,0,1-1.641,6.123q-1.641,2.2-5.859,2.2A12.783,12.783,0,0,1,567.455,539.125Zm33.8,3.164h5.39v-1.641q0-3.573.03-6.709t0.029-4.541l0.059-1.406a6.838,6.838,0,0,1,.586-0.7l7.734-7.969,10.957,16.407a24.561,24.561,0,0,1,1.9,2.783,25.221,25.221,0,0,0,1.846,2.724,2.609,2.609,0,0,0,1.465,1.055h5.156L618.6,515.746v-0.058l16.992-17.344q-4.571,0-5.86.058l-1,.879-22.09,22.559v-23.5h-5.39v43.945Zm49.828,0h25.605v-4.16h-0.175l-19.8.117v-39.9h-5.625v43.945Zm40.57,0h4.922V502.8h0.059a18.652,18.652,0,0,0,.82,3.281q0.761,2.169,9.844,26.309,3.222,8.2,3.281,8.5h4.629l3.633-9.492q0.526-1.464,4.717-12.334t5.771-16.26h0.059v39.492h4.921V498.344H727.75a1.45,1.45,0,0,0-.645.176l-1.171,2.695-9.786,25.9q-2.988,7.383-3.105,9.375h-0.117a1.214,1.214,0,0,0-.059-0.468l-0.82-2.872a0.512,0.512,0,0,0-.088-0.205,1.58,1.58,0,0,1-.147-0.322,0.957,0.957,0,0,1-.058-0.293L699.273,499.34a1.02,1.02,0,0,1-.146-0.322,1.2,1.2,0,0,0-.293-0.469,0.835,0.835,0,0,0-.615-0.2h-6.563v43.945Zm60.961,0h4.922V502.8H757.6l1.523,3.281,14,27.656q4.043,7.97,4.336,8.438l0.7,0.117h7.148V498.344h-4.921v39.492l-0.821-1.758L765.1,507.484q-3.867-7.791-4.629-8.964l-0.7-.176h-7.149v43.945Zm49.125-14.941q2.109,7.909,7.529,12.158a18.285,18.285,0,0,0,11.456,4.248,17.884,17.884,0,0,0,11.074-4.1,21.06,21.06,0,0,0,6.416-8.525,27.958,27.958,0,0,0,2.138-10.869,26.441,26.441,0,0,0-2.343-10.957,20.86,20.86,0,0,0-2.022-3.574,30.815,30.815,0,0,0-3.369-3.956,16.119,16.119,0,0,0-5.332-3.486,17.037,17.037,0,0,0-16.7,1.934,21.735,21.735,0,0,0-7.266,8.789,25.8,25.8,0,0,0-1.582,18.34h0Zm32.959-7.061c-0.02.372-.029,0.655-0.029,0.85a27.709,27.709,0,0,1-1.436,7.734,17.359,17.359,0,0,1-2.812,5.332,16.637,16.637,0,0,1-3.545,3.223,12.458,12.458,0,0,1-3.4,1.7,9.855,9.855,0,0,1-2.636.41q-6.095,0-10.225-5.654t-4.131-14.033q0-1.347.059-1.993a23.112,23.112,0,0,1,1.465-7.119,16.1,16.1,0,0,1,2.842-4.922,15.106,15.106,0,0,1,3.544-2.929,13.752,13.752,0,0,1,3.4-1.524,10.455,10.455,0,0,1,2.578-.381,12.683,12.683,0,0,1,10.166,5.157q4.188,5.157,4.189,13.3Q834.73,519.731,834.7,520.287ZM883.8,503.5a17.419,17.419,0,0,0-2.344-2.168,11.554,11.554,0,0,0-2.578-1.494q-1.349-.557-2.432-0.908a11.3,11.3,0,0,0-2.578-.469q-1.494-.117-2.2-0.147t-2.109,0c-0.938.021-1.465,0.03-1.582,0.03H855.848v43.945h5.625V524.008h11.6a17,17,0,0,0,5.86-1.406,12.537,12.537,0,0,0,3.984-2.666,13.882,13.882,0,0,0,2.314-3.311,14.569,14.569,0,0,0,1.2-3.076,9.9,9.9,0,0,0,.293-2.2,11.528,11.528,0,0,0-2.93-7.852h0Zm-3.633,12.3q-2.871,4.571-11.309,4.511h-7.617v-18.4h9.844a13.733,13.733,0,0,1,5.566,1.348,7.835,7.835,0,0,1,3.282,2.841,13.764,13.764,0,0,1,1.377,2.93,7.792,7.792,0,0,1,.381,2.2,8.392,8.392,0,0,1-1.524,4.571h0Zm49.242,32.285q0.409,0.527.938,1.2t0.644,0.85h0.117l6.329,0.058L930.52,541a1.691,1.691,0,0,1-.411-0.82,0.825,0.825,0,0,1,.528-0.528l1.289-1.172a23.611,23.611,0,0,0,5.244-7.822,25.083,25.083,0,0,0,2.021-9.99,28.329,28.329,0,0,0-.468-5.391,23.237,23.237,0,0,0-4.161-9.961,20.86,20.86,0,0,0-7.148-6.328,17.5,17.5,0,0,0-8.086-2.05,16.4,16.4,0,0,0-7.793,1.992,20.184,20.184,0,0,0-8.76,8.759,26.084,26.084,0,0,0-3.193,12.51,29.393,29.393,0,0,0,.586,5.508q1.758,8.731,7.471,13.389t11.806,4.658a16.155,16.155,0,0,0,6.094-1.231Zm-23.2-35.1a19.9,19.9,0,0,1,3.545-6.943,13.8,13.8,0,0,1,4.717-3.955,11.223,11.223,0,0,1,4.746-1.114,12.424,12.424,0,0,1,4.629.938,13.963,13.963,0,0,1,5.068,3.809,16.478,16.478,0,0,1,3.106,5.361,36.743,36.743,0,0,1,1.377,5.068,22.381,22.381,0,0,1,.41,3.985,23.347,23.347,0,0,1-2.08,10.517,17.069,17.069,0,0,1-4.541,6.006l-1.407-1.992q-0.293-.293-1.816-2.315t-1.758-2.314q-1.23-.057-5.508-0.059l6.329,9.082a22.806,22.806,0,0,1-3.926.586,9.585,9.585,0,0,1-2.578-.439,14.15,14.15,0,0,1-3.575-1.758,17.055,17.055,0,0,1-3.75-3.31,16.764,16.764,0,0,1-2.9-5.6,25.58,25.58,0,0,1-1.2-8.115,26.88,26.88,0,0,1,1.113-7.442h0Zm63.949,9.375,9.024,15.059q2.284,3.925,2.929,4.746,1.524,0.117,5.567.117l-12.6-20.684a14.981,14.981,0,0,0,2.93-1.054,23.168,23.168,0,0,0,3.516-2.08,10.947,10.947,0,0,0,3.134-3.457,8.909,8.909,0,0,0,1.26-4.6,9.625,9.625,0,0,0-3.457-7.617,15.2,15.2,0,0,0-6.65-3.662,42.726,42.726,0,0,0-9.229-.791H954.742v43.945h5.449V522.25h5.039q4.276,0,4.922.117h0Zm-9.961-20.449H967.4q6.153,0,9.551,1.875a7.01,7.01,0,0,1,1.758,11.367,9.514,9.514,0,0,1-4.746,2.608,30.492,30.492,0,0,1-6.563.615h-7.207V501.918Zm65.8,23.291a11.245,11.245,0,0,0-2.64-3.779,23.48,23.48,0,0,0-2.93-2.315,13.169,13.169,0,0,0-2.61-1.318q-0.585-.176-2.25-0.557c-1.12-.253-2.11-0.488-2.99-0.7a22.192,22.192,0,0,1-3.05-1.025,12.343,12.343,0,0,1-2.84-1.553,7.524,7.524,0,0,1-1.93-2.256,6.13,6.13,0,0,1-.82-3.164,5.044,5.044,0,0,1,.44-1.9,11.477,11.477,0,0,1,1.4-2.4,7.354,7.354,0,0,1,2.99-2.226,11.438,11.438,0,0,1,4.72-.908,14.148,14.148,0,0,1,9.14,3.222l1.29,0.938,0.64-3.75a5.2,5.2,0,0,0,.03-1.524,10.469,10.469,0,0,0-1.49-.82,21.036,21.036,0,0,0-9.73-2.226,14.717,14.717,0,0,0-10.43,3.75,11.734,11.734,0,0,0-4.043,8.906,11.034,11.034,0,0,0,2.693,7.148,14.057,14.057,0,0,0,7.33,4.57l5.39,1.348a11.067,11.067,0,0,1,5.86,3.311,7.572,7.572,0,0,1,1.87,4.951,6.957,6.957,0,0,1-.41,2.109,14.1,14.1,0,0,1-1.29,2.725,6.791,6.791,0,0,1-2.84,2.519,9.8,9.8,0,0,1-4.6,1.026,20.927,20.927,0,0,1-12.42-4.16l-1.349-1-0.644,3.691a7.122,7.122,0,0,0-.118,1.289,0.638,0.638,0,0,0,.235.41l1.466,0.879a25.109,25.109,0,0,0,12.3,3.34,14.585,14.585,0,0,0,10.52-3.955A13.06,13.06,0,0,0,1025.99,525.209Zm12.82-22.354,16.41-.058v39.492h5.62V502.8l16.35,0.058v-4.1h-38.38v4.1Zm84.17-4.511h-4.93V528.4a12.775,12.775,0,0,1-3.8,9.082,9.571,9.571,0,0,1-10.26,1.993,12.008,12.008,0,0,1-3.87-2.579,8.774,8.774,0,0,1-2.08-3.75,22.419,22.419,0,0,1-.76-3.9c-0.09-1.113-.14-2.607-0.14-4.482V498.344h-5.63v27.715q0,2.636.06,3.339a15.964,15.964,0,0,0,15.88,14.356,14.721,14.721,0,0,0,2.84-.322,16.878,16.878,0,0,0,3.81-1.377,17.876,17.876,0,0,0,4.01-2.637,14.016,14.016,0,0,0,3.23-4.453,17.365,17.365,0,0,0,1.64-6.5V498.344Zm29.9,43.242a0.716,0.716,0,0,0,.47.7h4.92a0.484,0.484,0,0,0,.3-0.059,0.339,0.339,0,0,1,.2-0.087,0.277,0.277,0,0,0,.21-0.176,0.518,0.518,0,0,1,.17-0.235,0.582,0.582,0,0,0,.18-0.351c0.04-.176.08-0.343,0.12-0.5l0.29-.586c0.12-.273.21-0.527,0.29-0.762l16.17-41.191h-3.57a2.723,2.723,0,0,0-1.35.176l-0.41.878a20.482,20.482,0,0,1-1.11,2.872q-13.065,33.4-13.24,35.566c-0.04-.078-0.22-0.664-0.53-1.758s-0.9-2.792-1.76-5.1l-1.99-5.566L1142.1,499.34l-0.12-.235a0.849,0.849,0,0,0-.14-0.351,1.7,1.7,0,0,0-.27-0.264,0.6,0.6,0,0,0-.41-0.146h-5.33Zm76.14,0.7,12.83-43.945h-3.34q-1.17,0-1.29.351l-0.88,2.871q-2.625,8.556-6.06,20.889t-3.72,15.381h-0.06q0-1.639-3.9-15.674-3.885-14.033-6.82-23.818h-3.75a3.658,3.658,0,0,0-1.41.176l-0.35.82L1202.42,527a0.455,0.455,0,0,0-.06.293c-1.52,5.938-2.31,9.454-2.34,10.547h-0.06q0-2.754-2.82-12.6l-7.67-26.894h-5.51l12.83,43.945h3.75a3.945,3.945,0,0,0,1.41-.117l0.29-.879,2.4-8.438q7.98-27.539,8.03-30.058h0.12q0.285,3.574,5.42,21.211t5.3,18.281h5.51Zm33.3-28.711c0.16,0.2.82,1.065,2,2.608s1.89,2.529,2.16,2.959l-0.29.585-16.52,22.559h0.82c2.54,0,4.06-.01,4.57-0.029a0.862,0.862,0,0,0,.88-0.381l3.45-4.746,0.3-.293,9.78-13.828q1.23,1.817,3.81,5.215,2.4,3.339,4.98,6.884t3.72,5.127q1.14,1.582,1.5,1.992h0.11l6.45,0.059-17.75-23.144,0.29-.586,14.82-20.215h-0.82a50.806,50.806,0,0,0-5.27.176l-1.06,1.289-10.89,15.058-12.19-16.347c-0.12-.039-0.37-0.1-0.76-0.176h-5.86Zm47.84,3.75q0.465,0.762,2.64,3.9t2.4,3.545v0.175l0.06,17.344h5.45V540.3q0.06-10.077.06-15.469l0.58-.937,17.52-25.547c-2.19,0-4.04.058-5.57,0.176l-0.52.527-5.92,8.789q-5.8,8.262-8.32,12.48l-10.49-15.7c-0.62-.858-1.21-1.708-1.76-2.549l-1.17-1.816a10.575,10.575,0,0,0-.73-1.025,2.862,2.862,0,0,0-.68-0.645,1.842,1.842,0,0,0-.7-0.234h-5.92Zm39.28-15.058,23.56-.059-18.17,27.715a1.1,1.1,0,0,0-.17.322,1.279,1.279,0,0,1-.24.381c-0.97,1.446-2.09,3.105-3.34,4.98a31.158,31.158,0,0,0-2.25,3.633,7.116,7.116,0,0,0-.33,2.578v0.469h32v-4.16h-6.98l-17.75.117,18.05-27.656c0.11-.235,1.16-1.846,3.13-4.834s3.02-4.58,3.14-4.776c0.03-.39.05-1.268,0.05-2.636h-30.7v3.926Z"/>
  <path id="logo" class="cls-1" d="M706.266,1194.7a45.969,45.969,0,0,0-.118,5.15v5.16H677.555v-1.17l0.234-.94-1.406-.24c-1.1,0-2.659-.07-4.688-0.23h-3.281l-0.469,2.58a45.646,45.646,0,0,1-1.172,4.92,22.619,22.619,0,0,1-1.406,4.22,7.125,7.125,0,0,0-.82,2.23,6.584,6.584,0,0,0,2.109-.71c1.326-.54,2.615-1.13,3.867-1.76a11.566,11.566,0,0,0,3.516-2.81l1.641-1.64h66.8l1.875,1.88a14.477,14.477,0,0,0,3.75,2.81c1.406,0.62,2.655,1.17,3.75,1.64a1.036,1.036,0,1,0,1.171-1.17,17.1,17.1,0,0,1-1.406-3.99q-0.7-2.34-1.172-4.68a11.9,11.9,0,0,0-.7-3.05c0-.47-1.252-0.62-3.75-0.47-1.875.16-3.281,0.23-4.219,0.23a2.052,2.052,0,0,1-.937.24c-0.315,0-.469.31-0.469,0.94l0.235,0.93-13.594.24q-13.359,0-13.36-.24a2.838,2.838,0,0,1,.7-1.05,6.664,6.664,0,0,0,1.171-2.46,15.728,15.728,0,0,0,.469-4.22v-2.58h-4.687Q706.382,1194.46,706.266,1194.7Zm-31.289,28.12v4.22l21.093,0.23h21.094l-5.859,4.93q-5.4,4.215-8.2,6.56l-2.344,1.87v6.8H660.445v4.22h40.313v14.76c0,10.01-.158,15.47-0.469,16.41a13.152,13.152,0,0,1-1.172,3.05,21,21,0,0,1-2.578,3.04,16.962,16.962,0,0,1-3.75,2.82c-1.406.62-2.109,1.17-2.109,1.64s0.153,0.7.468,0.7a30.375,30.375,0,0,0,3.047-.47,34.353,34.353,0,0,0,4.922-1.4,16.4,16.4,0,0,0,4.688-1.88,11.74,11.74,0,0,0,3.515-2.34,12.264,12.264,0,0,0,2.344-2.58,13,13,0,0,0,1.172-2.58c0.311-.94.469-6.4,0.469-16.41v-14.76h38.2v-4.22h-38.2v-6.8l2.109-1.64q2.109-1.635,8.438-6.79,6.327-5.4,8.437-7.04a13.637,13.637,0,0,0,2.578-2.34q0-.225-28.828-0.23t-29.062.23h0Zm121.64-30.23-0.469,1.87a27.635,27.635,0,0,1-1.523,5.74c-0.861,2.43-1.681,4.65-2.461,6.68q-1.176,2.58-3.281,6.8-1.88,3.75-4.453,8.44-2.11,3.75-4.688,7.73-2.582,4.215-3.047,4.92a7.818,7.818,0,0,0-1.406,2.11c-0.157.47-.117,0.71,0.117,0.71a8.252,8.252,0,0,0,2.227-1.18q1.873-1.17,3.515-2.34,1.874-1.41,3.985-3.28a59.714,59.714,0,0,0,4.453-4.45l2.109-2.35,0.235,14.77,0.234,14.76h1.875a5.862,5.862,0,0,0,3.047-.7,5.457,5.457,0,0,0,1.875-1.17,11.374,11.374,0,0,0,1.406-1.64l0.469-.71h27.187v2.11l0.235,2.11h1.64a7.437,7.437,0,0,0,2.813-.47,9.072,9.072,0,0,0,2.109-1.17,4.666,4.666,0,0,0,1.407-1.64l0.7-.94h31.64v-4.45H838.336v-6.8H868.57v-4.45H838.336v-6.8H868.57v-4.68H838.336v-7.5H868.57v-4.69H837.164l0.938-1.17a23.668,23.668,0,0,0,1.406-2.35,6.445,6.445,0,0,0,.7-2.57,17.74,17.74,0,0,0,.469-4.93v-3.51H828.727v14.53H815.6q-13.129,0-13.125-.23c0-.16-0.158-0.24-0.469-0.24s0.311-1.41,1.875-4.22a69.182,69.182,0,0,0,3.281-7.5,16.732,16.732,0,0,0,1.406-3.98l0.235-1.17H796.617Zm31.406,22.03v7.5H802.477v-7.5h25.546Zm0,12.18v6.8H802.477v-6.8h25.546Zm0,11.25v6.8H802.477v-6.8h25.546Zm-3.515,16.88v5.16l-22.969.23H778.805v4.45h45.7v1.64c0,1.1-.081,1.64-0.235,1.64a40.222,40.222,0,0,1-4.687-1.17q-4.455-1.17-4.922-1.4-0.236,0-6.328,4.68-6.1,4.935-7.734,6.1-1.643.93-4.454,2.58a58.967,58.967,0,0,1-5.39,2.57q-2.812,1.185-5.391,2.23a35.226,35.226,0,0,1-5.859,1.76,17.416,17.416,0,0,0-3.047,1.05,6.06,6.06,0,0,0,1.289,1.06,3.994,3.994,0,0,0,1.992.94c0.469,0,2.344-.32,5.625-0.94s6.328-1.33,9.141-2.11q4.449-1.17,8.2-2.35a22.822,22.822,0,0,0,4.922-2.1q1.637-.945,9.14-6.1t7.618-5.04q0.115,0.12.117,13.48v13.12h1.406a7.357,7.357,0,0,0,2.813-.7,6.692,6.692,0,0,0,3.046-1.99,11.184,11.184,0,0,0,2.11-3.17,8.733,8.733,0,0,0,.586-2.34q0.115-1.17.117-6.33c0.154-4.68.271-7.11,0.352-7.26s1.442,0.55,4.1,2.11q3.982,2.1,6.8,3.51a34.945,34.945,0,0,0,6.328,2.58,54.282,54.282,0,0,0,6.328,1.64,52.974,52.974,0,0,0,5.625.94c1.718,0.16,4.219.23,7.5,0.23a38.521,38.521,0,0,0,5.86-.23,1.37,1.37,0,0,0,1.171-.94l0.235-1.17c0-.15-0.235-0.24-0.7-0.24-0.315,0-1.722-.23-4.219-0.7s-5-1.01-7.5-1.64q-3.516-.93-6.8-2.11-2.812-.93-5.625-2.11-2.346-1.17-10.078-6.33l-7.734-5.15,19.453-.24h19.453v-4.45H854.977l-20.157-.23v-2.58l-0.234-2.58H824.508Z"/>
</svg>
