<svg xmlns="http://www.w3.org/2000/svg" width="1540" height="1450" viewBox="0 0 1540 1450">
  <defs>
    <style>
      .cls-1 {
        fill: #fff;
      }

      .cls-1, .cls-2, .cls-3 {
        fill-rule: evenodd;
      }

      .cls-2 {
        fill: #fefefe;
      }

      .cls-3 {
        fill: #fdfdfd;
      }
    </style>
  </defs>
  <path id="字体名称" class="cls-1" d="M164.941,313.891q-8.889-10.548-8.886-26.563a54.408,54.408,0,0,1,1.562-12.89,57.821,57.821,0,0,1,4.883-12.891A25.815,25.815,0,0,1,172.559,251.1a30.205,30.205,0,0,1,15.722-4q16.407,0,26.953,7.226l5.078,2.93q0.39-3.121.977-6.055t0.879-4.2a17.485,17.485,0,0,0,.391-2.539,2.953,2.953,0,0,0-.391-1.953,6.469,6.469,0,0,0-1.66-1.465l-8.789-4.3a57.81,57.81,0,0,0-23.047-4.3q-21.487,0-35.645,15.528t-14.16,38.379q0,21.488,13.77,37.011t36.035,15.528a64.971,64.971,0,0,0,22.754-4.59q12.2-4.591,12.207-8.692a15.745,15.745,0,0,0-.2-2.539v-0.195l-0.782-10.352q-0.783.394-3.711,2.344a57.953,57.953,0,0,1-5.371,3.223q-2.444,1.272-6.347,2.93a40.8,40.8,0,0,1-8.985,2.539,64.188,64.188,0,0,1-10.937.879A28.024,28.024,0,0,1,164.941,313.891Zm93.848,22.265q12.3,0,17.383-.39,6.637-19.337,14.844-47.852t9.375-40.234h0.39a210.312,210.312,0,0,0,3.907,21.679l13.085,44.727q5.861,19.533,7.032,21.68a3.189,3.189,0,0,1,.976.195,3.27,3.27,0,0,0,.977.195h17.187l30.86-99.8H358.4l-6.054,19.921q-0.98,3.324-5.567,18.653t-8.1,28.418a219.518,219.518,0,0,0-4.883,21.679H333.4q-0.782-12.5-18.359-67.773l-4.687-15.625q-1.369-4.879-2.54-5.273H296.68q-3.324,0-3.907.586l-2.148,6.25L285.938,259.2q-16.994,53.517-16.993,65.82H268.75q-0.587-8.789-5.664-26.757l-18.164-61.914H227.93ZM380.664,199.828l58.2-.195V339.672h20.117V199.633l58.2,0.195V185.18H380.664v14.648Zm193.945,124.61a35.75,35.75,0,0,1-8.789-3.418,39.8,39.8,0,0,1-9.179-6.543,31.488,31.488,0,0,1-7.032-11.133,42.8,42.8,0,0,1-2.929-16.211h69.726q0-15.427-3.711-26.758t-9.863-17.09a40.221,40.221,0,0,0-12.6-8.3,35.986,35.986,0,0,0-13.281-2.539,38.653,38.653,0,0,0-8.691,1.172,51.58,51.58,0,0,0-11.817,4.785,49.712,49.712,0,0,0-12.3,9.18q-5.47,5.567-9.375,15.625a62.414,62.414,0,0,0-3.907,22.754q0,22.266,14.258,37.6t35.352,15.332a58.455,58.455,0,0,0,24.219-5.469,17.689,17.689,0,0,0,2.539-1.367q6.051-2.93,7.324-4.3t0.488-4.883v-0.391l-0.977-9.961q-0.393.2-6.445,4.2a56.823,56.823,0,0,1-12.4,6.25,42.231,42.231,0,0,1-14.16,2.246A31.855,31.855,0,0,1,574.609,324.438Zm-26.757-49.805q3.122-14.062,11.328-21.192t17.968-7.129a21.339,21.339,0,0,1,6.348,1.075,37.6,37.6,0,0,1,7.813,3.711q4.394,2.635,7.812,8.789a39.319,39.319,0,0,1,4.395,14.746H547.852Zm117.773-36.719q0.389,0.587,6.836,8.984t8.008,10.743l-1.172,2.148L620.7,339.867h2.93q13.668,0,16.308-.1t3.028-1.27l12.3-16.8a5.537,5.537,0,0,0,.977-1.172l34.766-49.219q2.535,3.91,13.476,18.555,34.763,48.244,36.133,49.805h0.586l22.851,0.195-63.085-82.226,0.976-1.953,52.735-71.68h-2.93q-15.629,0-18.75.39l-3.711,4.688L690.625,242.6l-43.359-58.2a3.859,3.859,0,0,1-.684-0.1c-0.327-.064-0.684-0.128-1.074-0.2a6.273,6.273,0,0,0-.977-0.1h-20.7ZM998.242,217.8q0-2.344-3.222-6.25t-5.958-3.906l-64.453-.391q0-20.508-.586-24.219t-4.492-3.711h-0.586q-4.884,0-4.883,2.93l-0.781,25.195-62.89.2q-9.961,4.494-9.961,10.156l-0.391,75.586q0,2.343,3.027,6.25t6.739,3.906l63.672,0.977v40.625l1.367,2.929q1.56,1.365,6.445,1.368a13.735,13.735,0,0,0,2.93-3.321L925,303.93l63.477-.391q2.535,0,6.152-3.027t3.613-5.762V217.8ZM925,293.383V217.992l58.008,0.2a8.581,8.581,0,0,1,4.492,3.71v66.407a4.011,4.011,0,0,1-.586,1.855,6.227,6.227,0,0,1-2.539,2.149,10.028,10.028,0,0,1-4.883,1.074H925Zm-11.719-75.391v75.391l-58.008-.195a8.177,8.177,0,0,1-3.906-3.516V221.7l0.781-1.172A4.909,4.909,0,0,1,854,218.578a5.909,5.909,0,0,1,2.832-.586h56.445ZM1183.59,342.8h0.39l4.11-1.563q6.63-3.712,6.64-7.617v-137.3c0-1.562-.92-3.579-2.74-6.054s-3.97-3.711-6.44-3.711l-134.57-.586-3.91,1.562q-7.815,2.931-7.81,8.789l-0.39,135.743q0,2.535,3.22,6.445t7.32,3.906Zm-4.1-145.7,0.78,0.39c0.52,0.263,1.01.522,1.47,0.782a4.983,4.983,0,0,1,1.27,1.074,2.218,2.218,0,0,1,.58,1.465V326.781q0,5.274-9.37,5.274,1.365-.587,1.37-4.883-5.67-5.663-36.53-15.625-2.535-.975-5.27,1.758a13.623,13.623,0,0,0-1.66,1.562,3.538,3.538,0,0,0-.68,1.758c-0.14.781,0.35,1.6,1.46,2.441a28.113,28.113,0,0,0,4.98,2.832l25.78,10.157h-93.94q1.17-.395,8.2-2.246a82.918,82.918,0,0,0,12.89-4.493,24.453,24.453,0,0,0,9.18-6.738,15.445,15.445,0,0,0-1.37-5.664,15.162,15.162,0,0,0-4.29-1.172,4.544,4.544,0,0,0-1.27.293,4.884,4.884,0,0,1-1.47.293l-11.13,5.078q-15.63,4.5-21.49,6.836a9.5,9.5,0,0,0-1.75,5.86l1.75,1.953q-5.07,0-7.22-1.367l-1.37-2.54V200.219a3.113,3.113,0,0,1,1.47-2.149,5.566,5.566,0,0,1,3.61-1.172ZM1068.95,228.93q1.95,3.514,4.88,3.515l84.96,0.391q7.815,0,7.81-13.477a87.434,87.434,0,0,0-.58-9.57q-4.3-4.879-6.06-4.883l-84.76-.195q-4.5,0-6.35,4.59a26.549,26.549,0,0,0-1.86,10.058Q1066.99,225.416,1068.95,228.93Zm86.32-13.086v6.445a2.678,2.678,0,0,1-2.34,1.758h-72.27a2.032,2.032,0,0,1-1.95-1.563l-0.59-3.711q0-5.465,3.72-5.468l71.87,0.195a3,3,0,0,1,1.56,2.344h0Zm6.84,93.359q1.56,0,5.08-2.93T1170.9,301l0.19-49.805v-0.39l-1.36-3.711q-3.525-5.859-7.62-5.86l-89.06-.39-3.32.976a7.759,7.759,0,0,0-1.37,1.075c-0.65.585-1.11,0.976-1.37,1.171a10.8,10.8,0,0,0-1.07.977,11.84,11.84,0,0,0-.98,1.074c-0.19.263-.46,0.62-0.78,1.074a3.163,3.163,0,0,0-.59,1.27,7.71,7.71,0,0,0-.09,1.172v51.758q0,1.757,2.44,4.785a7.568,7.568,0,0,0,6.15,3.027h90.04Zm-87.7-50.586q0-8.4,3.13-9.179l79.3,0.2a3.742,3.742,0,0,1,1.85.781,3.686,3.686,0,0,1,.98,2.148,15.99,15.99,0,0,1,.29,2.833v6.152h-85.55v-2.93Zm0,22.461V270.141h85.55v10.937h-85.55Zm84.38,18.36L1155.66,301h-78.71a0.558,0.558,0,0,1-.39-0.195l-0.19-.2-1.57-1.757a62.032,62.032,0,0,1-.39-8.594h85.55a32.146,32.146,0,0,1-1.17,9.18h0Zm171.68-115.821-0.59,8.985-16.6.195q-1.95,0-5.57,3.027t-3.61,5.567l-0.19,41.015a16.244,16.244,0,0,0,2.24,7.52q2.25,4.2,7.72,4.2h70.51q9.555-4.1,9.57-10.547V202.367q-2.94-8.592-10.16-9.57l-16.99-.391v-7.617q-0.585-4.1-7.82-4.1a4.132,4.132,0,0,0-2.34,2.734l-0.78,9.18-15.04-.2q0-4.88-.39-8.789c0-.909-0.68-1.69-2.05-2.344a8.958,8.958,0,0,0-3.81-.976,3.849,3.849,0,0,0-4.1,3.32h0Zm36.52,34.375V202.953h5.28q7.605,0,9.47,2.149,1.845,2.151,1.85,12.89h-16.6Zm-25.78,0V202.953h14.65v15.039h-14.65Zm42.38,13.477q0,8.985-1.95,10.742-2.145,1.758-14.65,1.758V228.93h16.6v2.539Zm-64.84-28.516h11.13v15.039h-15.04q0-.388-0.09-2.051c-0.07-1.1-.1-2.114-0.1-3.027q0-8.2,4.1-9.961h0Zm22.46,41.016V228.93h14.65v15.039h-14.65Zm-13.87,0q-9.765,0-11.32-2.149-1.185-2.343-1.18-12.89h15.04v15.039h-2.54Zm-25,29.883h93.17q2.925-.975,2.93-6.446c-1.31-2.081-2.22-3.125-2.74-3.125l-92.97-.195a4.827,4.827,0,0,1-.87.586,10.68,10.68,0,0,0-1.08.683,4.685,4.685,0,0,0-.88.977,4.424,4.424,0,0,0-.68,1.758,15.035,15.035,0,0,0-.2,2.637q2.535,3.126,3.32,3.125h0Zm96.49,61.718-25.39-.586a113.344,113.344,0,0,1,5.86-16.015l6.83-.391c2.35-.39,4.49-2.539,6.45-6.445l0.58-9.766c0-.39.03-0.976,0.1-1.758s0.1-1.367.1-1.757q0-12.5-7.62-15.235l-70.9-.39a8.083,8.083,0,0,0-2.54.976,10.511,10.511,0,0,0-4.59,4.2q-1.065,2.249-1.07,9.473v4.687q0,10.745,2.54,13.868,1.755,1.565,11.72,3.125v0.195q4.29,12.112,4.69,15.625h-28.52l-2.73,1.367a5.538,5.538,0,0,0-1.27,5.469c0.58,1.953,1.66,2.93,3.22,2.93h101.95a2.808,2.808,0,0,0,2.35-1.563,6.873,6.873,0,0,0,.97-3.711q0-3.323-2.73-4.3h0Zm-18.95-41.406a5.436,5.436,0,0,1,2.15,3.906l-0.19,7.618a4.142,4.142,0,0,1-3.13,2.734l-58.59-.2c-1.96-.129-2.93-2.213-2.93-6.25,0-5.469,1.23-8.2,3.71-8.2Zm-18.55,40.625-24.03.195-4.88-16.015h35.55a93.746,93.746,0,0,1-6.64,15.82h0Zm-71.1-135.742-1.36-5.859q-2.16-5.466-11.72-6.055l-33.01-.391q-1.95,0-5.57,2.344t-3.61,5.273l-0.39,41.016a12.9,12.9,0,0,0-5.96,7.91q-1.275,4.98-1.27,16.5l1.57,2.539a12,12,0,0,0,1.36.781l3.71,0.391a4.541,4.541,0,0,0,3.91-3.516l0.2-8.593a8.826,8.826,0,0,1,1.85-4.688,5.586,5.586,0,0,1,4.79-2.734l39.45-.391a10.386,10.386,0,0,1,4.69,1.465,4.865,4.865,0,0,1,2.73,4.59,27.768,27.768,0,0,1-1.27,6.055,40.2,40.2,0,0,0-1.27,5.078,13.466,13.466,0,0,0-7.71-4.883q-4.2-.779-18.26-0.781-8.01,0-15.63.586-2.73.393-6.05,3.417c-2.22,2.021-3.32,3.94-3.32,5.762l-0.2,80.078,1.37,2.149a20.021,20.021,0,0,0,6.25,1.172c1.69-1.694,2.54-2.735,2.54-3.125l0.58-26.563,31.84,0.2v2.735q0,9.96-.78,12.793c-0.52,1.886-1.57,2.832-3.13,2.832l-11.13-.781h-0.39q-6.45,0-6.45,6.836,3.135,5.272,13.48,5.273a32.939,32.939,0,0,0,12.7-2.344q5.655-2.343,5.66-7.812V265.062l-0.78-3.32v0.2l2.34,1.562c3,0,5.14-.455,6.45-1.367q4.1-9.765,4.1-15.821a12.924,12.924,0,0,0-3.61-9.374,11.732,11.732,0,0,0-8.7-3.711v-34.18Zm-44.72,33.984,0.19-33.2q0-1.172,4.3-2.539l25.2,0.2h0.58a7.856,7.856,0,0,1,.78.293c0.13,0.067.36,0.2,0.69,0.391a1.743,1.743,0,0,1,.68.684c0.13,0.262.32,0.653,0.59,1.171a7.007,7.007,0,0,1,.58,1.758,18.973,18.973,0,0,1,.29,2.539c0.07,1.044.1,2.149,0.1,3.321h-12.11q-8.985.393-11.03,4.492t-2.05,20.9h-8.79Zm33.98-15.234v15.234h-14.45v-5.273c0-4.556.58-7.355,1.76-8.4s4.68-1.562,10.54-1.562h2.15Zm-26.56,48.242,23.44,0.195q3.315,1.758,3.9,6.446l-0.19,10.156h-31.45V269.555l0.78-.977a24.836,24.836,0,0,1,1.86-1.66,3.318,3.318,0,0,1,1.46-.879h0.2Zm-4.3,41.8V293.773h31.45v14.063h-31.45Z"/>
  <path id="中文示例" class="cls-2" d="M347.285,779.309q4.3-1.956,4.3-5.176l0.1-64.746a10.394,10.394,0,0,0-1.612-5.86,4.973,4.973,0,0,0-4.345-2.441h-2.149q-5.272-.1-13.574-0.1-12.988,0-14.941.684-0.49,0-1.465,1.367a4.3,4.3,0,0,0-.977,2.344l-0.1,39.355a45.721,45.721,0,0,1-1.612,12.7,31.775,31.775,0,0,1-3.662,8.642,20.626,20.626,0,0,1-5.273,5.371,25.678,25.678,0,0,1-5.127,3.028q-1.9.732-4.541,1.513a41.927,41.927,0,0,0-5.86,1.807q-0.783.635-.781,3.076a2.982,2.982,0,0,0,2.051,1.758,37.7,37.7,0,0,0,12.744-3.711,26.947,26.947,0,0,0,8.936-7.129,36.183,36.183,0,0,0,5.371-9.228A45.67,45.67,0,0,0,317.5,751.77h29v19.335q0,4.882-8.4,4.883H336.25l-10.156-1.074a5.016,5.016,0,0,0-2.735.586,2.637,2.637,0,0,0-.879,2.344,2.123,2.123,0,0,0,1.026,1.855,11.167,11.167,0,0,0,4.1,1.123,63.956,63.956,0,0,0,8.545.44A27.112,27.112,0,0,0,347.285,779.309Zm-1.074-55.371H317.988l0.1-16.114q1.074-1.659,2.148-1.66l23.243,0.2a1.97,1.97,0,0,1,2.05,1.368,16.918,16.918,0,0,1,.684,4.2v12.012Zm-28.32,22.46,0.1-17.089h28.223V746.4h-28.32ZM273.75,760.754a4.856,4.856,0,0,0,1.807,3.467,5.749,5.749,0,0,0,4.052,1.709h18.75a5,5,0,0,0,3.028-1.563q1.758-1.56,1.758-2.832v-54.2l-0.782-1.856q-1.856-3.026-3.808-3.027l-18.848-.1a7.054,7.054,0,0,0-3.613,1.563,4.483,4.483,0,0,0-2.246,3.711Zm22.07-52.93,0.2,0.1a1.748,1.748,0,0,1,.537.293,4.357,4.357,0,0,1,.537.537,2.762,2.762,0,0,1,.488.977,4.814,4.814,0,0,1,.2,1.416V730.48H279.121l0.195-21.093a1.682,1.682,0,0,1,.782-1.123,2.848,2.848,0,0,1,1.855-.635Zm-16.7,27.93h18.652l-0.2,22.656a2.94,2.94,0,0,1-2.1,2.051,67.947,67.947,0,0,1-8.643.293,41.606,41.606,0,0,1-5.566-.2,2.372,2.372,0,0,1-1.172-.586,1.688,1.688,0,0,1-.782-1.368ZM431.465,775.7a15.5,15.5,0,0,1-2.832-.732,13.635,13.635,0,0,0-3.906-.733,3.058,3.058,0,0,0-2.539.977,3.353,3.353,0,0,0-.782,2.148q0,2.44,6.739,3.516a77.7,77.7,0,0,0,12.109,1.074,13.017,13.017,0,0,0,5.469-1.074,8.52,8.52,0,0,0,3.466-2.637,15.139,15.139,0,0,0,1.661-2.832,5.631,5.631,0,0,0,.537-2.05V705.773l-0.879-1.66q-1.954-2.831-4-2.832l-57.715-.1a5.949,5.949,0,0,0-4.443,2q-1.9,2-1.905,3.369v0.1l-0.1,35.157a90.066,90.066,0,0,1-2.2,21.435,31.493,31.493,0,0,1-8.349,14.99l-0.1,1.368a2.977,2.977,0,0,0,1.758,2.05q2.538,0,3.027-.488,8.79-8.789,10.938-27.539l58.984,0.1-0.293,17.382a5.6,5.6,0,0,1-.39,1.856,5.451,5.451,0,0,1-2.2,2.295,8.319,8.319,0,0,1-4.736,1.221ZM387.812,724.23l0.2-15.625a3.548,3.548,0,0,1,.732-1.123,6.465,6.465,0,0,1,.781-0.683,2.773,2.773,0,0,1,1.221-.342q0.879-.1,1.367-0.146a16.121,16.121,0,0,1,1.807,0q1.319,0.049,2.1.048l47.656,0.2q0.975,0.392,1.367.537a1.235,1.235,0,0,1,.635.781,4.6,4.6,0,0,1,.293,1.074c0.032,0.293.081,0.962,0.146,2V724.23h-58.3Zm-0.1,24.122,0.1-18.848h58.3v18.848h-58.4Zm156.445,33.2a6.122,6.122,0,0,0,3.174-1.465,4.276,4.276,0,0,0,2-3.516l0.1-25.683a2.5,2.5,0,0,0-.879-1.953,3.121,3.121,0,0,0-2.149-.782,2.191,2.191,0,0,0-2.051,1.465l-0.293,25.293a5.409,5.409,0,0,1-1.757,1.563H512.812l0.293-37.3H542.5l2.344-.781a5.916,5.916,0,0,0,2.929-4.493V707.531q0-1.56-2.246-1.562a3.427,3.427,0,0,0-2.734,1.269l-0.488,25.1a1.469,1.469,0,0,1-.147.537,2.045,2.045,0,0,1-.635.732,1.968,1.968,0,0,1-1.269.391l-27.442-.1-0.1-30.371q-0.293-1.464-3.223-1.465a3.413,3.413,0,0,0-1.562,1.172L507.539,734H481.367q-2.247,0-2.637-1.074l-0.585-24.707a3.17,3.17,0,0,1-.342-0.488,1.988,1.988,0,0,0-.879-0.684,5.085,5.085,0,0,0-2-.293q-1.857,1.171-1.856,1.953V734.68q0,0.879,1.709,2.588a5.881,5.881,0,0,0,3.272,1.9l29.59,0.293-0.1,37.109h-27.93q-2.247,0-2.929-1.074l-0.489-24.609a0.5,0.5,0,0,1-.146-0.44,1.145,1.145,0,0,0-.781-0.781,6.1,6.1,0,0,0-2.393-.342,2.253,2.253,0,0,0-1.562,1.856v26.074a4.352,4.352,0,0,0,1.464,2.637,4.019,4.019,0,0,0,2.735,1.562Zm29.2-74.121,33.4,0.488-0.293,22.461-0.293.586-39.551.293-0.976.781a3.164,3.164,0,0,0-.586,1.953,1.9,1.9,0,0,0,1.562,2.051l38.77,0.391q-1.857,12.109-12.354,23.193a57.144,57.144,0,0,1-23.975,15.478,0.663,0.663,0,0,1-.488.2,5.8,5.8,0,0,0-2.344.83,1.96,1.96,0,0,0-.488,1.513,3.238,3.238,0,0,0,1.026,2.735,2.236,2.236,0,0,0,2.294.293q28.222-8.888,40.723-38.867,6.834,22.168,39.649,39.062l1.855,0.1a4.836,4.836,0,0,0,2.051-1.856,3.987,3.987,0,0,0-.781-2.832l-5.664-2.832a88.422,88.422,0,0,1-15.381-9.814,53.614,53.614,0,0,1-10.157-10.352,49.933,49.933,0,0,1-5.322-9.179,33.586,33.586,0,0,1-2.344-7.959l38.184-.1a2.433,2.433,0,0,0,1.465-2.539,2.583,2.583,0,0,0-1.465-2.246l-39.258-.293-0.195-.1-0.293-4,0.293-19.238h32.519l1.465-.684a7.554,7.554,0,0,0,.489-2.734q-0.879-1.466-1.465-1.465l-71.485-.293q-2.343.978-2.343,2.93a2.25,2.25,0,0,0,1.757,2.051h0ZM739.57,781.457a9.232,9.232,0,0,0,2.93-.488l1.367-.781a5.449,5.449,0,0,0,2.246-4V712.316a1.905,1.905,0,0,0-1.465-1.269,4.811,4.811,0,0,0-1.171-.293,3.376,3.376,0,0,0-2.344,1.172l-0.293,62.5a2.311,2.311,0,0,1-.635,1.172,1.992,1.992,0,0,1-1.611.781l-27.539-.2V704.406l-0.684-1.269a3.652,3.652,0,0,0-2.539-.879,2.042,2.042,0,0,0-2.246,1.66L705.2,776.379l-28.418-.2a2.108,2.108,0,0,1-1.562-1.27l-0.2-63.379-0.782-.976a3.088,3.088,0,0,0-1.66-.489H672.09q-2.149,0-2.149,1.856v65.039q0,1.171,1.758,2.734a5.1,5.1,0,0,0,3.223,1.563Zm114.453-78.125a13.35,13.35,0,0,1-.2,3.027l-35.254-.2v-0.1l-0.1-4.2q-0.391-1.758-3.028-1.758-2.247,0-2.246,2.637V704.5a8.371,8.371,0,0,1-.1,1.855l-19.531.1-1.172.781a6.7,6.7,0,0,0-.586,2.637,2.359,2.359,0,0,0,1.758,1.367l19.629,0.391a12.6,12.6,0,0,0,.586,4l1.953,0.683h0.684l1.172-.586q0.78-.78,1.172-4.2l35.253,0.1v1.758a2.522,2.522,0,0,0,2.832,2.441q2.44,0,2.637-4.3l18.262-.293,0.391-.293,0.878-1.172a3.049,3.049,0,0,0,.293-1.172,2.525,2.525,0,0,0-1.464-2.148l-18.555-.293q0-4-.44-4.932t-2.587-.927q-2.249,0-2.247,3.027h0Zm-37.011,26.66a2.293,2.293,0,0,0,2.148,1.758h33.985a2.775,2.775,0,0,0,1.66-2.734,2.733,2.733,0,0,0-1.563-2.246l-33.691-.2,6.933-2.636a24.012,24.012,0,0,0,2.491-1.172,24.7,24.7,0,0,1,3.955-1.612,14.479,14.479,0,0,1,4.3-.634h0.488a176.022,176.022,0,0,0,20.019,7.226q13.478,4.2,19.043,4.2a12.173,12.173,0,0,0,1.953-.2l0.977-2.051q-0.49-2.343-1.562-2.637l-9.961-1.953q-9.474-2.147-15.967-4.248a59.977,59.977,0,0,1-8.643-3.271,30.705,30.705,0,0,0-4-1.856,11.534,11.534,0,0,0-4-.683,8.347,8.347,0,0,0-2.929.586l-6.055,2.734a178.9,178.9,0,0,1-27.539,8.691l-5.273,1.27A1.524,1.524,0,0,0,792.6,729.8v2.148a2.352,2.352,0,0,0,1.464.977h0.293q3.612,0,13.379-2.832t10.254-2.832a4.4,4.4,0,0,0-.976,2.734h0Zm51.758,25.1-0.2-2.051,0.586-7.422a7.809,7.809,0,0,1,.049-0.781c0.032-.325.049-0.552,0.049-0.684q0-6.248-4.59-8.2l-55.273-.1a5.752,5.752,0,0,0-2.881,1.22,4.6,4.6,0,0,0-2.1,3.272l-0.195,1.172V750.7q0,14.649-4.883,21.582l-6.543,7.618a3.091,3.091,0,0,0,.879,2.2,2.958,2.958,0,0,0,2.246.928,3,3,0,0,0,.879-0.1q11.425-9.767,12.6-22.559l54.589-.293a5.286,5.286,0,0,0,2.979-1.465,4.31,4.31,0,0,0,1.807-3.417v-0.1Zm-59.082-9.278-0.1-1.269v-0.391a3.017,3.017,0,0,1,1.66-3.027h50.977q1.172,0.586,1.171,4.687h-53.71ZM862.91,754.7q-0.489.294-5.176,0.391l-48.046-.1v-3.711H863.4a9.76,9.76,0,0,1-.488,3.418h0Zm-47.168,10.449a3.754,3.754,0,0,0-1.465.489q-0.684.392-1.123,0.683a2.3,2.3,0,0,0-.732.83,5.715,5.715,0,0,1-.488.782,2.1,2.1,0,0,0-.245,1.074c-0.033.554-.048,0.944-0.048,1.172V775.5q0,6.738,3.808,6.738l52.246,0.1a3.732,3.732,0,0,0,3.809-2.393q0.975-2.394.976-8.74a7.9,7.9,0,0,0-1.074-4.2,3.1,3.1,0,0,0-2.636-1.758Zm50.1,5.372q0.879,0.684.879,3.906,0,2.733-1.27,2.734l-46.875-.195a3.445,3.445,0,0,1-1.465-3.223v-0.83a1.979,1.979,0,0,1,.1-0.635,1.587,1.587,0,0,0,.1-0.439,0.608,0.608,0,0,1,.146-0.342,0.588,0.588,0,0,0,.147-0.293,0.455,0.455,0,0,1,.293-0.244,1.529,1.529,0,0,1,.341-0.147,2.39,2.39,0,0,0,.44-0.2,1.7,1.7,0,0,1,.488-0.195Zm112.012-59.082a3.308,3.308,0,0,0,.781-1.758,2.654,2.654,0,0,0-1.563-2.051l-20.8-.293,0.1-4.492q-0.2-3.516-3.906-3.516a3.789,3.789,0,0,0-1.27.879l-0.293,7.324H920.625v-1.367a19.3,19.3,0,0,0-.439-4.687,2.757,2.757,0,0,0-1.27-2,2.394,2.394,0,0,0-2,.244,3.088,3.088,0,0,0-1.855,3.027q0.1,1.27.1,3.125a7.837,7.837,0,0,1-.1,1.66l-23.047.1-0.879.781a4.675,4.675,0,0,0-.586,2.442,1.556,1.556,0,0,0,1.465,1.757l23.047,0.2q0,6.348.781,7.617,4.395,1.758,4.687-2.539l-0.1-5.078H951v1.953q0,4.3.488,5.273a5.57,5.57,0,0,0,2.442.684,1.839,1.839,0,0,0,1.855-1.367l0.489-2.442,0.2-4.2h20.117Zm-32.325,9.277-0.293,10.84-26.953.293-1.074.683q-1.076,1.955-.146,3.125t3.466,1.172c0.13,0,.667-0.015,1.612-0.049s1.741-.049,2.392-0.049a6.285,6.285,0,0,1,1.563.1v28.516q0,10.351,4.638,14.306t13.526,3.955q0.78,0,2.539.049t2.539,0.049a159.081,159.081,0,0,0,26.172-2.148l0.976-.684a3.316,3.316,0,0,0,.733-3.076,2.109,2.109,0,0,0-2.295-1.611h-0.2q-1.37,0-9.424,1.074a126.12,126.12,0,0,1-16.651,1.074,55.9,55.9,0,0,1-9.472-.586q-2.541-.489-5.03-3.662a10.115,10.115,0,0,1-2.49-6.2l-0.1-31.25h44.922l1.27-.586q0.78-.683.781-2.93a1.506,1.506,0,0,0-1.465-1.269l-26.172-.391V721.4l-0.39-.488a4.013,4.013,0,0,0-.537-0.732,2.739,2.739,0,0,0-1.026-.489,5.945,5.945,0,0,0-1.757-.244q-1.662.685-1.661,1.27h0Zm-32.519,9.375a37.883,37.883,0,0,0-7.373-6.25q-5.421-3.808-8.057-3.809a2.838,2.838,0,0,0-1.807,2.149,1.915,1.915,0,0,0,.733,2.246l4.1,2.344,9.278,7.128a0.788,0.788,0,0,0,.586.2h0.586a3.082,3.082,0,0,0,2.441-1.367q0-2.148-.488-2.637h0Zm-20.85,9.033a3.762,3.762,0,0,0-.537,1.9,1.963,1.963,0,0,0,.879,1.563l4,2.441a49.915,49.915,0,0,1,5.517,4.053q2.2,1.905,2.881,2.539a2.025,2.025,0,0,0,1.368.635,2.536,2.536,0,0,0,.781.1q2.245,0,2.246-3.222a29.869,29.869,0,0,0-7.861-7.178q-5.519-3.758-7.862-3.76A1.6,1.6,0,0,0,892.158,739.123Zm18.36,17.773a35.174,35.174,0,0,0-2.588,4.737,44.038,44.038,0,0,1-5.713,8.2,86.35,86.35,0,0,1-10.791,10.742v0.293a3.177,3.177,0,0,0,1.367,3.027,8.047,8.047,0,0,0,2.93-.293q10.742-6.935,19.922-25a7.285,7.285,0,0,0,.293-1.367,2.007,2.007,0,0,0-.831-1.416,2.921,2.921,0,0,0-2-.732A3.318,3.318,0,0,0,910.518,756.9Zm151.9-34.912-20.51-.1-1.46.683a5.979,5.979,0,0,0-.49,2.344,1.823,1.823,0,0,0,1.47,1.953l20.31,0.2,1.37-.683c0.45-.259.68-1.236,0.68-2.93-0.65-.976-1.11-1.465-1.37-1.465h0Zm0.39,10.059-20.51-.1-1.46.586a7.057,7.057,0,0,0-.59,2.539q0,1.758,1.47,1.758l20.6,0.1,1.18-.684a5.439,5.439,0,0,0,.78-2.246,2.841,2.841,0,0,0-1.47-1.953h0Zm4.98-3.027a2.116,2.116,0,0,0,.49.976,1.355,1.355,0,0,0,1.08.684c1.69,0.131,2.66-.1,2.93-0.684a19.545,19.545,0,0,0,1.8-4.98,26.694,26.694,0,0,0,.83-6.446,6.667,6.667,0,0,0-1.66-4.541,4.58,4.58,0,0,0-3.32-1.9l-34.76-.293,0.19-5.859h31.54a4.23,4.23,0,0,0,.64-0.293,6.432,6.432,0,0,0,.58-0.488,1.9,1.9,0,0,0,.59-1.075,8.424,8.424,0,0,0,.15-1.758,3.233,3.233,0,0,0-1.17-1.367l-67.973-.2a1.743,1.743,0,0,0-1.465.83,3.381,3.381,0,0,0-.586,2,2.407,2.407,0,0,0,1.269,2.148l30.855,0.391-0.09,5.762-31.253.195-2.441.781q-3.808,1.466-4.1,8.008l0.1,8.594a4.255,4.255,0,0,0,1.611,1.416,2.274,2.274,0,0,0,2.1.049q1.072-.488,1.465-2.539l0.292-8.4,0.2-.39c0.129-.2.244-0.374,0.342-0.537s0.244-.374.439-0.635a3.781,3.781,0,0,1,.586-0.635,3.158,3.158,0,0,1,.732-0.439,2.276,2.276,0,0,1,.925-0.2h29.1v20.41l0.59,1.465a3.167,3.167,0,0,0,2,.635,5.06,5.06,0,0,0,2.69-1.514l0.29-21.093,31.25,0.1,1.37,0.684a3.2,3.2,0,0,1,1.66,2.929,16.642,16.642,0,0,1-.93,3.907,16.659,16.659,0,0,0-.93,3.906v0.391Zm-43.65-6.641h-1.66q-11.91-.195-13.77-0.2a29.479,29.479,0,0,0-6.05.341c-0.72.229-1.05,1.026-.98,2.393q0.2,2.344,1.95,2.344l20.12-.2a1.389,1.389,0,0,0,1.17-.878,3.719,3.719,0,0,0,.49-1.856,2.127,2.127,0,0,0-1.27-1.953h0Zm-21.68,26.27,62.6,0.2,1.27-.684a4.89,4.89,0,0,0,.78-2.929q-0.975-1.465-1.47-1.465l-62.79-.1-0.39.2a1.088,1.088,0,0,0-.39.2c-0.07.065-.19,0.18-0.39,0.341a1.664,1.664,0,0,0-.44.538,2.952,2.952,0,0,0-.24.83,6.431,6.431,0,0,0-.1,1.22,1.425,1.425,0,0,0,1.56,1.661h0Zm21.29-11.817a1.184,1.184,0,0,0,.68-0.39l0.88-1.27a3.458,3.458,0,0,0,.2-1.27,2.076,2.076,0,0,0-1.37-1.855l-21.29-.1c-1.5.782-2.24,1.66-2.24,2.637a2.734,2.734,0,0,0,.63,1.465,1.911,1.911,0,0,0,1.61.879Zm49.32,43.555c0-.913-1.39-2.751-4.15-5.518s-5.36-5.191-7.77-7.275-4.65-3.938-6.74-5.567a5.958,5.958,0,0,0-3.02.489q-0.69.489-.69,2.832l7.52,6.543-0.19.2q-1.86,0-14.07.586t-23.82.586c-0.72,0-1.66-.015-2.84-0.049s-1.95-.049-2.34-0.049q6.345-6.933,11.04-12.988h46.48c1.04-.13,1.86-1.009,2.44-2.637-0.19-1.5-.62-2.246-1.27-2.246l-79.3-.293q-1.955.1-2.148,2.735,0,2.247,1.66,2.343l25.093,0.2q-6.735,8.693-11.03,13.183h-3.42q-10.155,0-11.522,1.27l-0.586,1.758a3.565,3.565,0,0,0,.684,1.757,1.964,1.964,0,0,0,1.66,1.075l68.844-2.637a39.117,39.117,0,0,1,2.74,2.978q2.43,2.784,4.1,3.077,2.64-.783,2.64-2.344h0Zm101.27-74.219-49.81-.293a0.377,0.377,0,0,0,.1-0.293c0.58-2.93.88-4.59,0.88-4.98-0.33-.716-1.27-1.139-2.83-1.27-1.24.327-1.96,0.781-2.15,1.367l-1.17,4.688a44.156,44.156,0,0,1-4.35,8.887,40.425,40.425,0,0,1-4.98,6.2,30.843,30.843,0,0,0-3.17,3.467,4.223,4.223,0,0,0,1.17,3.124,7.459,7.459,0,0,0,2.44-.341,10.448,10.448,0,0,0,2.68-1.709,21.978,21.978,0,0,0,4.01-4.785q2.295-3.418,5.32-9.082h51.27l1.46-.684a7.732,7.732,0,0,0,.49-2.832c-0.52-.977-0.97-1.465-1.36-1.465h0Zm-68.75,10.449a2.328,2.328,0,0,0,1.9-1.22,2.56,2.56,0,0,0,.24-2.588q-1.17-2.148-6.64-6.4t-7.91-4.248a2.36,2.36,0,0,0-2.24,1.856,1.511,1.511,0,0,0,0,1.318,4.553,4.553,0,0,0,1.41,1.318c0.75,0.522,1.61,1.108,2.59,1.758a48.964,48.964,0,0,1,4.01,3.125q2.535,2.149,5.27,4.883Zm67.87,25.782a36.631,36.631,0,0,1-3.81-.1l1.07-16.7a11.077,11.077,0,0,0-.19-2.539,4.541,4.541,0,0,0-1.52-2.881,4.121,4.121,0,0,0-2.78-1.612h-40.92a6.515,6.515,0,0,0-3.22,1.123,4.68,4.68,0,0,0-2.25,3.37c0,1.3-.27,4.33-0.83,9.082a72.652,72.652,0,0,1-1.71,10.254h-8.1l-1.17.585a4.5,4.5,0,0,0-.78,2.54q0.87,2.148,3.9,2.148c0.13,0,.64-0.015,1.52-0.049s1.61-.049,2.19-0.049a6.422,6.422,0,0,1,1.57.1l-3.62,15.527a8.077,8.077,0,0,0-.19,2.051,7.679,7.679,0,0,0,1.12,4.15q1.125,1.809,3.96,1.807l41.99,0.391-0.49,1.758a6.207,6.207,0,0,1-1.66,3.71c-0.78.651-2.21,0.977-4.3,0.977a70.456,70.456,0,0,1-7.08-.684q-5.325-.684-6.39-0.683a1.927,1.927,0,0,0-1.32.39,4.757,4.757,0,0,0-.83,2.247c0,1.367,1.49,2.441,4.49,3.222l5.37,0.977c2.34,0.195,4.4.293,6.15,0.293q5.565,0,7.67-2.051t4.44-10.254l8.01-.293,0.98-.879a3.039,3.039,0,0,0,.63-1.416,1.916,1.916,0,0,0-.83-1.709,4.951,4.951,0,0,0-3.32-.879c-2.93-.129-4.49-0.227-4.69-0.293l2.25-16.7a4.531,4.531,0,0,1,.98-1.855l1.56-.2a8.675,8.675,0,0,0,3.95-.341,2.189,2.189,0,0,0,1.13-2.2c0-1.562-.98-2.343-2.93-2.343h0Zm-48.64-11.622,0.49-5.468c0.65-1.041,1.24-1.563,1.76-1.563l36.04,0.2c1.1,0,1.66,2.05,1.66,6.152v0.879l-0.79,11.328h-40.82q1.56-9.375,1.66-11.524h0Zm35.94,35.254h-40.33l-0.59-.293-0.58-.976a3.536,3.536,0,0,1-.2-2.539l3.13-14.551h41.21Zm-13.38-27.343q0-5.175-4.49-12.5a13.513,13.513,0,0,0-2.64-.293,2.634,2.634,0,0,0-1.75,2.343,1.183,1.183,0,0,0,.09.342,1.02,1.02,0,0,1,.1.342l2.25,5.176a2.57,2.57,0,0,1,.29.488l1.07,4a3.629,3.629,0,0,0,3.91,2.734q1.17-.389,1.17-2.636h0Zm-8.1,20.019a13.034,13.034,0,0,1,.58,1.9c0.26,1.011.56,1.97,0.88,2.881a4.109,4.109,0,0,0,1.27,1.953c1.82,0,3-.227,3.52-0.683a18.857,18.857,0,0,0-.49-3.809l-3.03-10.058c-0.19-1.236-1.24-1.856-3.12-1.856h-0.78a1.778,1.778,0,0,0-.79.586,2.843,2.843,0,0,0-.68,1.856Zm-49.81-31.738a2.96,2.96,0,0,0,1.27,2.148l5.08,3.614a16.559,16.559,0,0,1,1.71,1.709,30.793,30.793,0,0,0,3.71,3.32,6.282,6.282,0,0,0,3.47,1.611q1.95,0,1.95-3.711a74.457,74.457,0,0,0-8.45-7.812q-4.245-3.32-6.49-3.321t-2.25,2.442h0Zm12.99,20.9-2.15,8.887a73.74,73.74,0,0,1-12.2,23.145v1.757c0.19,1.172,1,1.758,2.44,1.758,1.23,0,2.44-.749,3.61-2.246A81.9,81.9,0,0,0,1103.83,763q3.42-9.178,3.42-14.941c-0.46-.977-1.44-1.465-2.93-1.465a1.833,1.833,0,0,0-1.86,1.269h0ZM1247.68,779.7a28.523,28.523,0,0,0,11.81,2.246q10.935,0,10.94-6.738V705.188c0-.716-0.55-1.709-1.66-2.979s-2.15-1.9-3.13-1.9l-24.7-.1a6.236,6.236,0,0,0-3.57,1.367,4,4,0,0,0-1.9,3.321l-0.1,21.875a6.784,6.784,0,0,0,1.66,4.1,5.219,5.219,0,0,0,4.01,2.246l24.21,0.391v38.574q0,2.541-1.41,3.467a7.855,7.855,0,0,1-4.25.928,22.917,22.917,0,0,1-6.45-.977,23,23,0,0,0-4-.977c-1.89,0-2.83,1.009-2.83,3.028a2.377,2.377,0,0,0,1.37,2.148h0Zm-6.94-65.625v-1.562c0-4.166.82-6.543,2.44-7.129l19.44,0.195a1.986,1.986,0,0,1,1.95,1.709,29.682,29.682,0,0,1,.49,6.787h-24.32Zm2.25,13.867a4.524,4.524,0,0,1-1.95-1.464l-0.3-7.032h24.32v8.594ZM1214.08,738.1a6.442,6.442,0,0,0-3.37,1.367,3.973,3.973,0,0,0-2,3.32v26.66a4.7,4.7,0,0,0,1.32,2.686,3.981,3.981,0,0,0,3.17,1.611l31.94,0.2h0.48l2.15-.879c2.22-1.3,3.32-2.7,3.32-4.2V742.883c0-.586-0.53-1.5-1.61-2.735s-2.03-1.855-2.88-1.855Zm29.69,5.273c1.24,0.586,1.92,1.791,2.05,3.613l-0.39,5.86h-31.35v-1.953q0-7.618,1.86-7.618Zm-0.29,25.2h-28.03a5.5,5.5,0,0,1-1.47-3.808l0.1-6.446h31.35c0,0.261.06,0.962,0.19,2.1a25.45,25.45,0,0,1,.2,2.686q0,4.394-2.34,5.468h0Zm-16.9-63.476a5.389,5.389,0,0,0-1.51-2.93,4.267,4.267,0,0,0-3.27-1.855l-24.51-.1a6.931,6.931,0,0,0-3.42,1.416,4.089,4.089,0,0,0-2.15,3.467v75.976a11.062,11.062,0,0,0,.93.879,6.442,6.442,0,0,0,.83.391,4.2,4.2,0,0,0,1.66.293c1.1-.586,1.66-1.14,1.66-1.66l0.29-48.145h23.73a6.046,6.046,0,0,0,3.81-1.611,5.041,5.041,0,0,0,1.95-4.053V705.09Zm-5.27,8.984h-24.22v-1.66q0-7.031,2.64-7.031l19.63,0.195a3.45,3.45,0,0,1,2.05,3.516c0,0.195-.02.781-0.05,1.758s-0.05,1.791-.05,2.441v0.781Zm0,6.641q0,6.642-2.35,6.64l-21.87.2v-8.106h24.22v1.27ZM289.57,919.934h14.16l7.52,11.328A68.474,68.474,0,0,0,342.891,954.8q6.054,2.538,8.5,2.539,2.246,0,2.832-.732a5.171,5.171,0,0,0,.586-2.979,2.474,2.474,0,0,0-1.563-1.367h-0.1l-5.176-1.172q-9.571-2.541-19.531-10.059,0.194-.194,5.859-4.052t9.326-6.934q3.662-3.077,3.662-4.541a2.069,2.069,0,0,0-.976-1.758q-0.879-.292-1.368-0.439a2.593,2.593,0,0,0-1.66.488,17.4,17.4,0,0,0-2.148,1.367q-0.978.732-2.783,2.149t-3.614,2.881q-1.808,1.464-4.687,3.515t-5.908,4a92.36,92.36,0,0,1-13.965-17.676l0.195-.1H353.34a4.25,4.25,0,0,0,1.855-1.758q0-2.345-.781-3.028l-63.379-.488,0.1-7.812h51.758l1.074-.684a4.535,4.535,0,0,0,.781-2.734q-0.684-1.66-1.269-1.66l-52.442-.2,0.1-7.715h51.758l1.074-.488,0.683-1.465q0.195-1.171.2-1.367a1.3,1.3,0,0,0-1.367-1.562l-52.442-.391-0.1-1.465v-1.269q0-3.906,1.757-4.688l53.809-.293,1.172-.781a7.9,7.9,0,0,0,.488-2.344,1.468,1.468,0,0,0-1.66-1.66l-55.664-.293a5.725,5.725,0,0,0-3.076,1.269,4.071,4.071,0,0,0-1.905,3.223l-0.39,34.473H272.383l-1.465.683a4.631,4.631,0,0,0-.684,2.539,1.554,1.554,0,0,0,1.758,1.758l12.207,0.293L284,950.207h-0.195l-11.426,2.051-1.367.683a9.314,9.314,0,0,0-.293,2.735q0.879,1.464,1.66,1.465a43.368,43.368,0,0,0,5.371-.782,143.173,143.173,0,0,0,34.375-9.668l1.269-1.171a2.034,2.034,0,0,0,.1-0.782,5.154,5.154,0,0,0-.879-2.539l-1.66-.488q-13.38,4.98-21.387,7.129V919.934Zm147.266-19.043v6.445q0,24.708,2.685,37.4t9.62,12.7q3.026,0,4.589-5.762a52.983,52.983,0,0,0,1.319-5.86,36.627,36.627,0,0,0,.732-5.664,2.029,2.029,0,0,0-2.246-2.343,3.9,3.9,0,0,0-2.344.879,32.375,32.375,0,0,0-1.074,5.957q-0.684,5.177-1.758,5.761-6.055-3.515-6.054-40.136l0.488-28.809a7.583,7.583,0,0,0-.586-2.148l-0.684-1.172q-2.343-2.44-4-2.442l-57.911-.2a5.941,5.941,0,0,0-3.711,1.807,5.352,5.352,0,0,0-2.148,3.466l-0.293,39.747a121.056,121.056,0,0,1-.928,15.966,52.45,52.45,0,0,1-2.05,9.961q-1.125,3.077-2.149,5.713a15.226,15.226,0,0,0-1.123,4,8.335,8.335,0,0,0,1.758,1.563q2.733,0,3.613-1.368a35.845,35.845,0,0,0,4.785-13.134,81.149,81.149,0,0,0,1.367-13.916V915.344q0-31.737.489-33.008,1.268-1.562,1.855-1.563h53.711a2.36,2.36,0,0,1,1.465.977,3.263,3.263,0,0,1,.879,2.246q-0.293,16.5-.293,16.895h0Zm-25.488,2.148,0.1-9.18q18.554-1.952,20.7-4.492,0.781-.585.147-2.2a2.581,2.581,0,0,0-2.686-1.611h-0.586l-15.332,2.832q-6.25.977-28.906,2.832-2.442,0-2.441,2.343a3.184,3.184,0,0,0,.635,2,2.035,2.035,0,0,0,1.709.83q0.194,0,4.3-.439t9.082-.879q4.982-.44,7.227-0.439h0.781l-0.293,8.5H390.645a6.477,6.477,0,0,0-3.321,1.416,4.133,4.133,0,0,0-2.051,3.467v20.7a4.252,4.252,0,0,0,1.465,2.783,4.66,4.66,0,0,0,3.028,1.611l16.308,0.2-0.293,14.844-25.1,2.735-1.27.781a3.722,3.722,0,0,0-.684,1.953q0,1.758,2.344,2.539l49.414-5.469a57.59,57.59,0,0,0,3.467,5.323,2.974,2.974,0,0,0,2,1.416,3.378,3.378,0,0,0,2.344-1.172q0-3.321-3.467-9.033a60.724,60.724,0,0,0-8.643-10.987,3.325,3.325,0,0,0-1.953,0,2.026,2.026,0,0,0-1.562,2.539l4.3,6.641v0.488l-15.625,1.563,0.1-14.161,15.821-.2a5.524,5.524,0,0,0,2.978-1.611,4.723,4.723,0,0,0,1.709-3.662v-20.02a5.289,5.289,0,0,0-1.465-2.783,3.937,3.937,0,0,0-2.832-1.807Zm15.234,7.129-0.1,16.113q0,0.587-2.05,1.563l-12.989.1V908.41l13.282,0.1q1.854,0.684,1.855,1.66h0Zm-34.473,17.676a3.146,3.146,0,0,1-1.464-2.93l0.1-14.941a3.008,3.008,0,0,1,1.758-1.563h13.281v19.531Zm144.483,10.01q1.611-1.319,3.564-3.077a14.63,14.63,0,0,0,2.637-2.881,4.084,4.084,0,0,0,.684-2.1,2.312,2.312,0,0,0-.684-1.465,3.59,3.59,0,0,0-2.344-.977q-0.976.783-6.1,5.372t-6.787,5.761a80.894,80.894,0,0,1-8.008-12.793v-0.683h30.176a2.133,2.133,0,0,0,2.05-2.344v-0.293q0-2.245-1.66-2.344l-12.109-.293a3.427,3.427,0,0,0,.293-1.66,8.832,8.832,0,0,0-1.563-2.246l-4.883-4.3a128.206,128.206,0,0,1,13.77-1.367,22.5,22.5,0,0,0,2.832,5.664l2.051,0.1a2.325,2.325,0,0,0,1.562-2.539q0-2.245-2.343-8.106a59.183,59.183,0,0,0-4.3-8.984,4.53,4.53,0,0,0-1.856-.586q-1.368,0-2.441,1.855l2.637,7.422q-11.819,1.075-13.477,1.074,15.038-18.164,15.039-23.828a2.38,2.38,0,0,0-1.758-1.465,3.471,3.471,0,0,0-2.832.879q-6.642,11.623-8.5,14.063l-5.957-5.274q8.007-11.426,8.008-12.988a2.788,2.788,0,0,0-1.563-2.344,4.766,4.766,0,0,0-3.808,1.465,24.256,24.256,0,0,0-2.979,4.981,28.92,28.92,0,0,1-3.857,6.054,10.5,10.5,0,0,1-1.465-.83,18.352,18.352,0,0,0-2.148-1.172,4.212,4.212,0,0,0-1.661-.439q-3.222,1.27-1.66,3.906l2.246,1.66q9.669,7.032,11.621,8.887-1.076,1.37-6.64,7.422a42.589,42.589,0,0,0-5.078.391q-1.758.489-1.758,2.734a2,2,0,0,0,2.148,2.246h0.977l9.961-.684a2.736,2.736,0,0,0-.488,2.637l5.371,5.371-16.114.2q-5.471-14.942-5.566-43.36a3.216,3.216,0,0,0-2.734-1.562q-2.248,0-2.247,1.367,0,1.464-.048,3.76t-0.049,3.271a149.528,149.528,0,0,0,4.687,36.524l-32.031.1q-4.395,1.37-4.687,4.492l0.2,3.321q0,9.96-4.981,21.875-0.1.1-1.171,1.709a26.576,26.576,0,0,0-1.661,2.783,4.868,4.868,0,0,0-.586,2.148q0,1.854,2.832,1.856,1.269,0,3.272-2.344t4.2-8.154a53.443,53.443,0,0,0,2.979-13.428,135.916,135.916,0,0,1,20.019,10.547l1.367,0.293,0.782-.391,0.879-.879a1.838,1.838,0,0,0,.2-0.976q0-2.441-6.055-5.86l-17.187-8.4a3.444,3.444,0,0,1,1.855-3.32l31.738-.2A82.008,82.008,0,0,0,523.066,942q-10.059,6.349-24.609,8.5h-0.1l-6.543.684a2.918,2.918,0,0,0-1.562.586,2.17,2.17,0,0,0-.879,1.953q0,2.831,4.59,2.539,16.406-.879,32.715-10.547l4.785,4.1q9.862,7.714,15.039,7.715a4.709,4.709,0,0,0,3.613-1.465q1.466-1.464,2.783-6.738a36.707,36.707,0,0,0,1.319-8.4,1.824,1.824,0,0,0-1.465-1.953q-2.736,0-3.027.781a17.315,17.315,0,0,0-.831,3.662,41.728,41.728,0,0,1-1.367,5.762q-0.831,2.586-1.9,2.588-9.766-4.3-14.355-9.571Q534.98,939.174,536.592,937.854Zm-36.377-56.592a3.854,3.854,0,0,0-2.051-.684,2.748,2.748,0,0,0-1.855.977l-2.344,4.59q-4,6.348-6.25,9.57l-6.348-4.981q0.1-.1,2.2-3.076t4.053-6.2q1.953-3.222,1.953-4.3a2.353,2.353,0,0,0-.732-1.318,2.059,2.059,0,0,0-1.514-.83h-0.488q-1.466,0-2.93,2.1a63.718,63.718,0,0,0-3.369,5.567,34.077,34.077,0,0,1-3.369,5.224q-3.42-2.246-5.273-2.441a2.281,2.281,0,0,0-1.954,1.465,4.262,4.262,0,0,0,.782,2.734,5.885,5.885,0,0,0,2.1,1.611,48.628,48.628,0,0,1,4.639,2.833,56.575,56.575,0,0,1,6.934,5.517q-7.619,8.2-9.18,9.473h-0.488a8.235,8.235,0,0,0-1.075.1,17,17,0,0,0-4.2.879,1.928,1.928,0,0,0-1.074,1.953,3.163,3.163,0,0,0,.586,1.954,1.844,1.844,0,0,0,1.758.683l26.953-2.441h1.758q2.343,4.785,2.734,4.883l2.246-.2a2.369,2.369,0,0,0,1.172-2.051q0-2.05-2.539-8.349a52.159,52.159,0,0,0-3.809-8.154,2.724,2.724,0,0,0-2.49-.928,2.577,2.577,0,0,0-1.9,1.318,7.383,7.383,0,0,0,.1,1.367l2.539,7.032-14.257,1.171q4.783-5.272,11.425-14.013t6.641-11.377A1.967,1.967,0,0,0,500.215,881.262Zm123.535,3.906q0.195,1.563.293,2.246a2.134,2.134,0,0,0,2.344,2.051,2.979,2.979,0,0,0,1.66-.391q0.78-.487,1.367-3.906l21.582-.2a3.521,3.521,0,0,0,1.66-2.735q-0.391-2.147-1.562-2.148l-21.875-.2v-1.172a7.9,7.9,0,0,0-.781-4,11.907,11.907,0,0,0-2.54-.586,1.5,1.5,0,0,0-1.66.976l-0.586,4.786h-28.32l-0.2-4.493q-0.294-1.659-2.832-1.66-2.442,0-2.442,2.735a15.37,15.37,0,0,1-.1,3.418H567.6l-1.075.488a4.334,4.334,0,0,0-.683,2.539,1.975,1.975,0,0,0,1.465,2.051l22.656,0.2a12.418,12.418,0,0,0,.195,2.539,2.117,2.117,0,0,0,.489,1.123,1.706,1.706,0,0,0,.781.342l2.051,0.195a0.753,0.753,0,0,1,.537-0.293,1.362,1.362,0,0,0,.781-0.928,16.93,16.93,0,0,0,.732-2.978H623.75Zm24.316,47.461q0-1.074-1.709-3.174t-3.271-2.1l-30.859-.488v-6.543h25c0.064,0,.276-0.015.634-0.049a1.927,1.927,0,0,0,.782-0.195q0.241-.147.781-0.439a3.977,3.977,0,0,0,1.123-1.026,12.362,12.362,0,0,0,1.172-1.806l0.195-20.313-0.488-1.465q-1.37-2.538-2.93-2.539l-57.422-.195a4.436,4.436,0,0,0-2.49,1.221,3.254,3.254,0,0,0-1.514,2.294l-0.2,19.825a4.929,4.929,0,0,0,1.074,2.929,3.534,3.534,0,0,0,2.735,1.563l26.269,0.293-0.195,6.64-30.762.1a5.482,5.482,0,0,0-3.174,1.611q-1.9,1.613-1.9,3.077l-0.1,25a2.29,2.29,0,0,1,.293.488,1.366,1.366,0,0,0,.928.586,11.561,11.561,0,0,0,2.588.195,4.177,4.177,0,0,0,1.172-1.465l0.293-22.265q1.267-2.05,2.441-2.051h28.418l-0.195,9.57-21.973,1.758-1.465.781a4.979,4.979,0,0,0-.488,2.539,5.45,5.45,0,0,0,.879,1.368,0.811,0.811,0,0,0,.781.293l43.262-3.516h3.125q1.464,3.029,2.93,3.32,2.343-.78,2.636-1.66,0-2.733-2.978-7.666t-6.006-5.225q-1.955.879-1.856,2.149,0,0.783,1.856,3.808-8.692,1.077-15.234,1.27v-8.984h26.66l1.562,0.39,0.489,0.2a4.59,4.59,0,0,1,1.171.878,1.774,1.774,0,0,1,.586,1.27l0.2,12.793a5.414,5.414,0,0,1-1.221,3.662,4.38,4.38,0,0,1-3.858,1.221l-9.667-1.66q-2.149.975-2.149,2.734a3.217,3.217,0,0,0,1.367,2.344q7.911,2.05,11.231,2.051,5.662-.1,7.568-2.832t2.1-9.376Zm-35.839-28.516V897.57l23.242,0.1q0.879,1.171.879,6.445H612.227Zm22.656,11.035H612.227v-5.664h24.121c0,0.2.015,0.457,0.048,0.782s0.049,0.717.049,1.172q0,2.734-1.562,3.71h0Zm-52.442-11.035v-1.562q0-4.59,1.661-4.981h22.656v6.543H582.441Zm1.465,10.742a1.193,1.193,0,0,1-.879-0.293l-0.586-1.171v-3.907h24.317v5.664Zm165.723-34.57-38.77-.195a27.715,27.715,0,0,1,.1-3.809q-0.293-2.637-3.809-2.636a2.4,2.4,0,0,0-1.367,1.757l-0.195,4.883H667.305l-1.367.586a9.915,9.915,0,0,0-.489,2.637q0,1.662,1.367,1.66h82.813a2.8,2.8,0,0,0,1.465-2.832,1.978,1.978,0,0,0-1.465-2.051h0Zm-13.086,62.988q7.617-4.3,7.617-5.859l-0.293-1.465q-1.662-2.343-3.418-1.367l-4.98,3.223a138.345,138.345,0,0,1-12.6,6.054,40.381,40.381,0,0,1-8.887-10.449v-0.39l34.278-.1,1.367-1.367q0-2.929-1.172-3.321l-37.6-.2a36.16,36.16,0,0,1,.2-4h30.371l1.172-.586a5.694,5.694,0,0,0,.683-2.734q0-1.465-1.074-1.465l-31.348-.1a32.008,32.008,0,0,1,.2-3.906H739.18a4.349,4.349,0,0,0,3.906-3.223q0-17.577-.1-19.726-1.856-2.733-3.32-2.735l-60.352-.292a4,4,0,0,0-2.392,1.269,3.428,3.428,0,0,0-1.416,2.344l-0.293,18.652a4.025,4.025,0,0,0,1.318,2.1,3.619,3.619,0,0,0,2.49,1.416l26.563,0.293v3.808l-29.395.1a1.535,1.535,0,0,0-1.171.977,10.743,10.743,0,0,0-.2,2.539l1.563,1.269,29.2,0.2v3.907l-37.305.1a2.547,2.547,0,0,0-1.465,2.539,2.381,2.381,0,0,0,1.563,2.149l26.66,0.293a94.558,94.558,0,0,1-22.949,9.863l-6.055,1.27a2.87,2.87,0,0,0-2.148,1.562q0,2.834,1.172,3.223a37.311,37.311,0,0,0,12.7-2.442l5.371-1.953h0.586l-0.293,8.789q-8.5.39-11.523,1.27a2.9,2.9,0,0,0-.342.537,3.3,3.3,0,0,0-.342,1.172,2.187,2.187,0,0,0,.244,1.367,2.994,2.994,0,0,0,1.66,1.123,10.93,10.93,0,0,0,3.662.488q5.957,0,21.045-2.49t16.162-4.541a3.584,3.584,0,0,0-.683-3.32,7,7,0,0,1-1.026-.244l-0.732-.244-0.2-.1a0.56,0.56,0,0,0-.391.195l-6.641,1.758a131.008,131.008,0,0,1-15.332,2.441V942.3q5.469-2.929,15.235-9.277l3.613,0.2a40.683,40.683,0,0,0,9.229,11.914,51.6,51.6,0,0,0,12.353,8.2,86.875,86.875,0,0,0,15.43,5.371,22.221,22.221,0,0,0,4.1.781q3.027,0,3.028-3.613-0.879-1.27-3.809-1.855t-8.594-2.051a61.068,61.068,0,0,1-11.621-4.395Q728.924,947.57,736.543,943.273Zm-25.488-43.457v-5.371h25.293a1.928,1.928,0,0,1,1.22,1.416,20.639,20.639,0,0,1,.244,3.955H711.055Zm26.757,6.25a10.113,10.113,0,0,1-.488,3.516l-1.367.586h-24.9v-5.176h26.757v1.074Zm-56.933-6.25v-1.464q0-3.906,1.66-3.907h23.047v5.371H680.879Zm24.707,5.176v5.176l-23.535-.1h-0.2a2.48,2.48,0,0,0-.439-0.634,1.451,1.451,0,0,1-.342-0.489,4.789,4.789,0,0,1-.146-1.172q-0.051-.927-0.049-2.783h24.707Zm162.3,12.5a49.654,49.654,0,0,0,6.054-12.988q2.733-8.3,2.735-12.891a10.6,10.6,0,0,0-.586-3.711,5.543,5.543,0,0,0-1.514-2.343,7.859,7.859,0,0,0-1.66-1.123A5.077,5.077,0,0,0,871.5,884l-35.059-.1q0-.1.489-2.539a21.279,21.279,0,0,0,.488-4,4.191,4.191,0,0,0-.488-2.343,2.421,2.421,0,0,0-2.051-.684,2.6,2.6,0,0,0-2.246,1.367,77.232,77.232,0,0,1-3.272,14.991,40.914,40.914,0,0,1-4.2,9.423q-2,2.929-4.1,5.616a17.144,17.144,0,0,0-2.587,4.052,5.391,5.391,0,0,0,1.562,2.539q2.832,0.879,7.129-5.615a81.239,81.239,0,0,0,8.2-17.627l9.57,0.2V900.5a85.344,85.344,0,0,1-.439,8.691,68.633,68.633,0,0,1-2.246,10.84,59.375,59.375,0,0,1-4.834,12.207,53.288,53.288,0,0,1-8.838,11.67,57.1,57.1,0,0,1-13.623,10.3l-0.879.977q0,3.611,2.344,3.613a6.9,6.9,0,0,0,2.929-.879,42.127,42.127,0,0,0,4.786-2.734,44.992,44.992,0,0,0,5.908-4.834,63.241,63.241,0,0,0,6.4-7.032,61.115,61.115,0,0,0,6.006-9.619,75.382,75.382,0,0,0,5.029-12.4,60.786,60.786,0,0,0,8.985,19.14,74.919,74.919,0,0,0,16.211,16.895,5.513,5.513,0,0,0,3.711,1.172,2.95,2.95,0,0,0,1.758-1.758,5.487,5.487,0,0,0-.44-2.49,3.4,3.4,0,0,0-1.221-1.319q-0.782-.489-3.027-2.05a45.314,45.314,0,0,1-4.785-3.907q-18.654-17.673-18.652-47.851,0-4.982.488-10.059l18.652,0.2q1.854,1.075,1.856,4.394a21.667,21.667,0,0,1-.977,6.055L866.621,909a15.3,15.3,0,0,1-1.758,3.223q-1.662,2.637-1.66,3.515,0,2.442,2.832,2.442a1.993,1.993,0,0,0,1.856-.684h0Zm-74.707,25.293a4.776,4.776,0,0,0,.39,1.758,2.59,2.59,0,0,0,1.27,1.66,3.948,3.948,0,0,0,2.344.977l15.332,0.2q2.732,0,4.492-3.516l0.1-59.961-0.488-1.562q-1.27-2.441-2.832-2.441l-16.211-.1a4.559,4.559,0,0,0-2.588,1.172,3.12,3.12,0,0,0-1.513,2.246Zm18.554-54.98-0.1,52.929q-0.879,1.37-1.465,1.368l-9.961-.1q-1.563-.975-1.563-1.758l0.1-54a2.408,2.408,0,0,1,1.855-1.172l10.059,0.1q1.074,0.391,1.074,2.637h0Zm163.77-6.739-35.449-.293q0-4.687-.391-5.615t-3.125-.928a2.8,2.8,0,0,0-1.563,2.735v0.195a15.2,15.2,0,0,1-.292,3.809l-30.958.1q-4.493,1.466-4.492,4.493l-0.2,37.6q-0.2,17.384-7.813,30.469v1.563a4.894,4.894,0,0,0,1.563,1.464q2.343,0,2.637-.488,5.955-7.031,8.3-21.094l0.293-4.492,0.1-40.918,0.293-1.172q0.879-2.439,2.637-2.441l12.6,0.1-0.2,7.714H906.758a2.823,2.823,0,0,0-1.953,2.637q0,2.345,1.367,2.344l13.281,0.1,0.293,1.66-0.195,6.836a11.016,11.016,0,0,0,1.172,5.175,4.225,4.225,0,0,0,4.1,2.246H957.93q3.515-.681,4.2-5.957l0.195-9.96H975.8a4.346,4.346,0,0,0,1.953-1.661q0-2.538-1.074-3.027l-14.551-.586,0.195-7.617q2.441,0,6.153.1,6.054,0.1,7.47-.391t1.416-2.832q-0.879-1.854-1.855-1.856h0Zm-50.293,12.6v-7.519h31.543v7.519H925.215Zm0,5.469h31.543v2.637q0,5.763-.781,7.421l-1.368.489H926.875a1.071,1.071,0,0,1-.488-0.1,0.837,0.837,0,0,1-.342-0.342c-0.1-.162-0.18-0.293-0.244-0.39s-0.163-.26-0.293-0.489-0.229-.406-0.293-0.537v-8.691Zm50.488,54.59-9.863-1.465a95.474,95.474,0,0,1-19.531-5.664q9.668-5.567,14.7-11.133t5.029-8.789a4.387,4.387,0,0,0-3.906-4.688l-49.414-.293q-1.954.294-2.051,2.93a2.6,2.6,0,0,0,1.563,2.149h45.605l1.27,0.878,0.2,0.489L959,929.7q-5.666,7.521-18.359,14.258a94.031,94.031,0,0,1-19.434-13.086q-2.247-1.951-3.711-1.953a2.142,2.142,0,0,0-1.953,1.514,2.542,2.542,0,0,0,.293,2.783l3.125,2.734a105.171,105.171,0,0,0,16.015,10.645,207.964,207.964,0,0,1-30.175,7.715l-0.977.683a9.809,9.809,0,0,0-.293,2.832q0.39,1.466,2.344,1.465,0.487,0,4.687-.977a142.432,142.432,0,0,0,30.079-8.984l2.343,1.172q19.824,8.5,31.446,8.5,3.222,0,3.222-2.832a2.492,2.492,0,0,0-1.953-2.441h0Zm76.177-30.86a3.247,3.247,0,0,0-1.67.928,5.58,5.58,0,0,0-.39,2.686,122.493,122.493,0,0,1,7.67,10.156c1.99,3,3.27,5,3.86,6.006a4.129,4.129,0,0,0,1.85,1.9l1.57,0.293a2.274,2.274,0,0,0,2.34-2.539q-1.56-4-7.18-11.719t-7.96-7.715h-0.09Zm-21-38.086-0.29,27.637H998.359l-1.269.781a4.675,4.675,0,0,0-.586,2.442,1.425,1.425,0,0,0,1.562,1.66l32.814,0.391-0.29,31.445H991.426q-2.149.975-2.149,2.539,0,2.538,1.563,2.539h84.86c0.07-.066.16-0.163,0.3-0.293a2.134,2.134,0,0,1,.34-0.293,1.4,1.4,0,0,0,.34-0.391,5.788,5.788,0,0,0,.34-0.586,3.263,3.263,0,0,0,.25-0.781,5.379,5.379,0,0,0,.09-0.976c-0.52-1.043-1.01-1.563-1.46-1.563l-39.75-.293,0.1-31.445,31.64-.293a2.7,2.7,0,0,0,1.66-2.637,2.4,2.4,0,0,0-1.37-2.148l-32.03-.2,0.1-27.734h34.08l1.47-.586a8.359,8.359,0,0,0,.58-2.93c-0.58-.976-1.07-1.464-1.46-1.464l-75.979-.2q-2.247,1.173-2.246,3.028,0,2.051,1.66,2.05Zm107.32,23.438a7.39,7.39,0,0,0,1.66,3.906,4.908,4.908,0,0,0,4.1,2.344l22.47,0.293v33.105c0,2.864-2.22,4.3-6.64,4.3a55.617,55.617,0,0,1-8.11-.928q-5.565-.928-5.96-0.927c-0.97.259-1.46,1.172-1.46,2.734a2.123,2.123,0,0,0,1.27,2.246,38.188,38.188,0,0,0,14.16,2.442q12.015,0,12.01-7.032V880.09l-0.1-.293-0.68-1.66q-2.055-2.832-4.1-3.028l-22.95-.2h-0.3a6.286,6.286,0,0,0-3.27,1.416,4.092,4.092,0,0,0-2,3.369Zm25.69-27.93a3.978,3.978,0,0,1,2.24,3.516l0.3,7.715h-22.76l0.2-9.473a1.918,1.918,0,0,1,.63-1.074,2.1,2.1,0,0,1,1.61-.684h17.78Zm-18.17,28.809a2.585,2.585,0,0,1-1.27-.586,2.817,2.817,0,0,1-.63-1.221,7.872,7.872,0,0,1-.25-2.148c0-.879.04-2.034,0.1-3.467v-4.785h22.76v12.4Zm-53.12,46.875,0.68,1.172a3.642,3.642,0,0,0,2.34.586c1.44,0,2.15-.522,2.15-1.563l0.39-41.7h22.66a1.367,1.367,0,0,0,.59-0.1l1.66-.879q2.625-2.051,2.63-3.808l0.3-28.809V880.48l-0.69-2.05q-1.845-3.223-4.49-3.321l-22.56-.2h-0.29a5.239,5.239,0,0,0-3.32,1.709,4.651,4.651,0,0,0-1.86,3.174Zm5.56-64.453,0.1-9.473a2.574,2.574,0,0,1,2.44-1.758h17.97c1.17,0.652,1.76,1.4,1.76,2.246v8.985h-22.27Zm0,17.773v-12.4h22.27l-0.1,10.156a1.985,1.985,0,0,1-1.07,1.514,4.6,4.6,0,0,1-2.64.732h-18.46ZM1263.3,875.5q-10.74-.195-13.57-0.2-8.115,0-10.65.586a4.152,4.152,0,0,0-1.71,1.318,6.433,6.433,0,0,0-1.07,1.953,13.553,13.553,0,0,0-.54,2.588,21.009,21.009,0,0,0-.19,2.49c0,0.62.01,1.4,0.05,2.344s0.04,1.482.04,1.611a42.159,42.159,0,0,0,.49,8.106,6.753,6.753,0,0,0,1.91,2.734,4.758,4.758,0,0,0,3.27,1.758l24.22,0.293V947.57c0,2.278-.82,3.743-2.44,4.395h-0.1l-9.77-.879a3.446,3.446,0,0,0-1.76,2.637,2.9,2.9,0,0,0,.98,2.05,24.742,24.742,0,0,0,9.28,1.758q8.985-.2,8.98-6.64v-70.7a5.306,5.306,0,0,0-1.46-2.881,4.164,4.164,0,0,0-3.22-1.807h-2.74Zm-21.97,10.156q0-5.273,2.24-5.273h19.63a3.441,3.441,0,0,1,1.76,1.611,10.359,10.359,0,0,1,.59,3.662h-24.22Zm2.15,10.156c-0.72,0-1.44-.781-2.15-2.343v-2.637h24.22v5.078Zm10.59,21.729a2.056,2.056,0,0,0-.63,1.9l1.46,3.125h-0.1l-9.57.489q9.975-9.375,9.97-13.086a2.008,2.008,0,0,0-.64-1.612,1.925,1.925,0,0,0-1.22-.537,3.092,3.092,0,0,0-2.78.733,17,17,0,0,0-2.64,3.466,21.586,21.586,0,0,1-2.98,3.907,49.5,49.5,0,0,0-4.1-3.125q4.1-6.054,4.39-7.91a3.026,3.026,0,0,0-2.53-1.758,3.227,3.227,0,0,0-2.25,1.269l-3.71,5.469a6.548,6.548,0,0,0-3.71-1.758q-2.64.783-2.64,2.539a3.109,3.109,0,0,0,1.47,2.149l3.12,2.05q1.365,0.879,6.54,4.786l-0.09.1-4.69,4.2q-3.81,0-3.81,2.441c0,1.889.81,2.832,2.44,2.832h0.59c1.1,0,4.07-.244,8.88-0.732s9.25-.765,13.28-0.831c0.07,1.3,1.05,1.954,2.93,1.954a2.25,2.25,0,0,0,2.15-1.368q0-7.323-6.54-11.523A3.54,3.54,0,0,0,1254.07,917.541Zm3.91,19.189c0.03-.325.05-0.552,0.05-0.683a9.746,9.746,0,0,0-.78-3.809,4.972,4.972,0,0,0-2.84-.683,2.6,2.6,0,0,0-1.75,2.539,23.545,23.545,0,0,1-.25,2.881,3.061,3.061,0,0,1-1.07,1.562,5.157,5.157,0,0,1-2.98,1.025l-6.25-.292v-1.661a13.029,13.029,0,0,0-.59-4.785,2.146,2.146,0,0,0-2.14-1.269q-2.64-.2-2.64,1.269l-0.2,22.656,0.69,1.368a8.1,8.1,0,0,0,2.93.488,17.233,17.233,0,0,0,1.75-1.367l0.2-11.524,4.88,0.293h0.39q10.545,0,10.55-7.226A6.386,6.386,0,0,1,1257.98,936.73Zm-34.33-18.847a4.141,4.141,0,0,0-1.76.635,1.113,1.113,0,0,0-.48,1.123l0.88,3.125a41.862,41.862,0,0,0-4.4.537c-2.34.358-3.71,0.537-4.1,0.537q0.2-.2,3.17-3.076a66.471,66.471,0,0,0,5.33-5.762q2.34-2.88,2.53-4.736a2.588,2.588,0,0,0-1.66-2,3.36,3.36,0,0,0-2.93.634l-5.76,6.934-0.09-.1-3.72-2.832q5.865-7.031,5.86-9.57a1.752,1.752,0,0,0-.63-1.123,2.466,2.466,0,0,0-1.81-.635,3.425,3.425,0,0,0-2.63,1.367,23.19,23.19,0,0,0-2.49,3.663,16.431,16.431,0,0,1-2.4,3.369l-1.66-1.075q-3.81,0-3.81,2.344a3.873,3.873,0,0,0,.49,1.563l1.96,1.465q6.345,4.59,7.12,5.371a0.406,0.406,0,0,0-.24.2,0.594,0.594,0,0,0-.15.293l-6.15,4.883c-0.85,0-1.45.017-1.81,0.049a2.778,2.778,0,0,0-1.12.39,1.738,1.738,0,0,0-.78,1.172,9.919,9.919,0,0,0-.2,2.2,4.7,4.7,0,0,0,1.67,1.27l23.82-2.344,2.84,2.93a2.2,2.2,0,0,0,2.19-.488,3.5,3.5,0,0,0,1.13-2.93l-0.4-.586c-0.19-.391-0.42-0.845-0.68-1.367a18.16,18.16,0,0,0-1.07-1.807c-0.46-.684-0.92-1.35-1.37-2a22.517,22.517,0,0,0-1.56-1.953,13.828,13.828,0,0,0-1.76-1.66h-1.37Zm2.83-22.754-0.19-2.441v-0.1l0.49-8.789q0-5.761-3.42-7.617l-1.66-.684-24.9-.2a6.829,6.829,0,0,0-3.37,1.367,3.878,3.878,0,0,0-2.1,3.223l-0.1,75.781c0.46,1.106.88,1.66,1.27,1.66h0.39c1.89,0,3.06-.424,3.52-1.27v-54.98l25.09-.293a4.821,4.821,0,0,0,3.32-1.611,5.175,5.175,0,0,0,1.66-3.858v-0.195Zm-29.88-9.668q0-4.687,2.44-5.078h20.41c0.52,0.39.82,0.6,0.88,0.635a2.387,2.387,0,0,1,.44.634,3.088,3.088,0,0,1,.39,1.416c0.03,0.554.05,1.352,0.05,2.393H1196.6Zm20.8,10.449h-20.8v-5.078h24.61q-0.2,4.688-3.81,5.078h0Zm3.32,43.75h-1.66a29.879,29.879,0,0,1-6.54-.586q-1.95-.879-2.25-3.711c-0.19-1.887-.88-3.059-2.05-3.515a2.043,2.043,0,0,0-2.29.537,4.521,4.521,0,0,0-1.13,3.467q0,7.422,7.13,8.691l7.33,0.391a16.879,16.879,0,0,1-4.74,4.638,24.681,24.681,0,0,1-4.73,2.442,6.5,6.5,0,0,0-2.54,1.318,5.553,5.553,0,0,0,.53,2.979,2.479,2.479,0,0,0,2.1.732,10.183,10.183,0,0,0,4.79-1.367,21.614,21.614,0,0,0,8.59-8.155q3.525-5.613,3.52-10.5a11.544,11.544,0,0,0-1.27-5.371,7.134,7.134,0,0,0-2.25-.39q-2.34,0-2.34,3.32c0,0.131.01,0.537,0.05,1.221s0.05,1.286.05,1.806a4.919,4.919,0,0,1-.3,2.051h0Z"/>
  <path id="大写字母" class="cls-3" d="M173.941,527.453l0.469,0.879,0.528,1.465q2.87,7.909,4.335,11.133l0.528,0.175h5.625l-1.582-4.1-15.7-41.777q-0.177-.879-1.875-0.879h-3.575a0.852,0.852,0,0,0-1.054.7l-17.344,46.054q2.813,0,4.922-.175,0.057-.118.937-1.992l4.278-11.6q0.292,0,.908.029t0.967,0.03q0.175,0,1.9-.03t6.064-.029q7.089,0,9.668.117h0ZM158,517.785q5.567-14.881,6.269-18.75h0.059l0.645,2.93q0.526,1.524,3.31,9.492t4.365,12.129H155.9Zm62.543-1.465q1-.351,1.377-0.5t1.435-.556a9.236,9.236,0,0,0,1.641-.791q0.585-.381,1.553-1a6.468,6.468,0,0,0,1.523-1.29q0.556-.672,1.2-1.494a6.2,6.2,0,0,0,1-1.845,9.717,9.717,0,0,0,.469-2.139,9.351,9.351,0,0,0-.937-4.512q-2.756-5.565-10.02-7.148a45.819,45.819,0,0,0-9.433-.7H198.047v46.757h13.535q5.859,0,6.328-.058,6.738-.7,10.694-4.395t3.955-7.91a10.052,10.052,0,0,0-3.926-8.2,18.473,18.473,0,0,0-9.024-3.926Zm1.289-4.248q-3.692,2.667-12.188,2.666h-6.035V498.1h6.446q7.851,0,11.66,2.519t3.808,5.508Q225.527,509.407,221.836,512.072Zm4.277,19.658a10.558,10.558,0,0,1-5.215,4.278,26.383,26.383,0,0,1-9.375,1.289h-7.91V518.84h10.723a20.383,20.383,0,0,1,5.449,1.113,12.4,12.4,0,0,1,3.721,1.992,11.655,11.655,0,0,1,2.2,2.432,8.258,8.258,0,0,1,1.143,2.285,6.524,6.524,0,0,1,.263,1.67,5.894,5.894,0,0,1-1,3.4h0Zm25.336-17.988a27.663,27.663,0,0,1,1.494-5.185,24.728,24.728,0,0,1,2.871-5.479,14.555,14.555,0,0,1,11.866-5.918,17.344,17.344,0,0,1,7.148,1.465l2.4,1.23a5.154,5.154,0,0,0,1.524.879l0.937-5.507a33.315,33.315,0,0,0-12.187-2.4,20.309,20.309,0,0,0-15.908,7.324,26.252,26.252,0,0,0-6.416,17.93,27.126,27.126,0,0,0,2.871,11.953q6.386,12.539,19.336,12.539,1.347,0,1.933-.058a18.066,18.066,0,0,0,6.475-1.348,14.421,14.421,0,0,0,4.541-2.4l-0.352-4.688-0.058.059-2.52,1.64a18.362,18.362,0,0,1-9.844,2.4,14.139,14.139,0,0,1-11.806-6.006,23.379,23.379,0,0,1-4.658-14.678A23.945,23.945,0,0,1,251.449,513.742Zm42.68,27.363h13.008q6.327,0,6.8-.058a21.155,21.155,0,0,0,8.32-2.93,19.443,19.443,0,0,0,5.918-5.537,25.782,25.782,0,0,0,3.369-6.914,24.56,24.56,0,0,0,1.143-7.354,27.41,27.41,0,0,0-1.026-7.294,29.8,29.8,0,0,0-3.076-7.207,19.46,19.46,0,0,0-5.6-6.006,18.674,18.674,0,0,0-8.056-3.223l-0.762-.117q-1.524-.117-7.148-0.117H294.129v46.757Zm5.8-43.007h7.324q3.867,0,5.391.117a13.115,13.115,0,0,1,2.783.732,17.268,17.268,0,0,1,3.6,2.022,17.754,17.754,0,0,1,3.75,3.515,18.008,18.008,0,0,1,2.813,5.625,27.224,27.224,0,0,1,.293,14.766,19.9,19.9,0,0,1-.762,2.2,21.413,21.413,0,0,1-1.523,2.871,16.484,16.484,0,0,1-2.4,3.077,15.109,15.109,0,0,1-3.6,2.548,15.343,15.343,0,0,1-4.893,1.612q-1.641.117-5.449,0.117H299.93V498.1Zm47.25,43.007h31.054v-4.8l-25.019.058V518.9h22.207v-4.1H353.215V498.859l24.14,0.059v-4.395H347.18v46.582Zm44.847,0H398V519.836h20.332v-4.1H398V498.859l23.086,0.059v-4.395H392.027v46.582Zm62.485-20.156v4.1h8.965v10.722a2.017,2.017,0,0,1-.176,1.055l-1.172.41a32.708,32.708,0,0,1-7.383,1q-1.173,0-1.7-.058-5.568-.7-9.961-6.328t-4.4-14.356a24.769,24.769,0,0,1,.352-3.838,26.7,26.7,0,0,1,1.494-5.185,24.284,24.284,0,0,1,2.871-5.42,14.639,14.639,0,0,1,11.865-5.889,17.431,17.431,0,0,1,8.379,2.11l2.227,1.406a15.564,15.564,0,0,1,1.406,1l0.645-3.984a3.4,3.4,0,0,0,.117-1.436,2.051,2.051,0,0,0-1.113-.732,25.734,25.734,0,0,0-11.661-2.754,20.428,20.428,0,0,0-16.7,8.144,25.1,25.1,0,0,0-5.742,15.938,32.114,32.114,0,0,0,1.465,9.961,22.347,22.347,0,0,0,3.955,7.5,25,25,0,0,0,5.42,4.921,21.012,21.012,0,0,0,6.269,2.813,1.025,1.025,0,0,0,.411.059,21.332,21.332,0,0,0,4.8.527,30.959,30.959,0,0,0,10.782-2.168,11.25,11.25,0,0,0,2.46-1,2.129,2.129,0,0,0,.352-1.524V520.949H454.512Zm29.32,20.156h5.977V518.84h23.027v22.265h5.976V494.348h-5.976v20.39H489.809v-20.39h-5.977v46.757Zm53.813,0h6.035V494.348h-6.035v46.757Zm26.332-3.515A8.486,8.486,0,0,1,560.4,535.6l-1.289-1.055-0.586,3.633a7.373,7.373,0,0,0-.175,1.289q0,0.351,1.7,1.084a27.067,27.067,0,0,0,4.511,1.377,23.718,23.718,0,0,0,5.274.644,11.684,11.684,0,0,0,8.73-3.34,8.862,8.862,0,0,0,2.4-4.1,24.232,24.232,0,0,0,.586-5.859V494.23h-5.8v35.215a10.632,10.632,0,0,1-1.758,6.5q-1.758,2.345-6.269,2.344A13.332,13.332,0,0,1,563.977,537.59Zm33.656,3.515h5.8v-1.757q0.057-8.671.058-13.477a7.381,7.381,0,0,1,.7-0.762l8.2-8.5,11.661,17.461a34.713,34.713,0,0,1,1.992,2.959q1.171,1.9,1.963,2.93a2.638,2.638,0,0,0,1.552,1.142h5.567L616.09,512.863V512.8l18.164-18.457q-4.922,0-6.27.058l-1,.879-23.554,24.024V494.348h-5.8v46.757Zm51.469,0h27.246v-4.453h-0.176l-21.094.118V494.348H649.1v46.757Zm40.277,0h5.273v-42.07h0.059a33.449,33.449,0,0,0,.879,3.516q2.577,7.206,10.43,28.008,3.515,9.024,3.515,9.082h4.922l3.926-10.137q0.585-1.64,5.01-13.184t6.123-17.285h0.058v42.07h5.274V494.348h-7.032a1.632,1.632,0,0,0-.7.117l-1.172,2.871-10.429,27.6q-3.282,8.085-3.34,9.961h-0.117a1.22,1.22,0,0,0-.059-0.469l-0.879-3.047-0.293-.879-13.359-35.156a0.989,0.989,0,0,1-.147-0.323,1.183,1.183,0,0,0-.293-0.468,0.835,0.835,0,0,0-.615-0.2h-7.031v46.757Zm62.777,0h5.274v-42.07h0.058l1.641,3.516,14.883,29.472q4.159,8.087,4.629,8.907l0.761,0.175h7.618V494.348h-5.274v42.011l-0.879-1.875-15.351-30.468q-3.635-7.208-4.981-9.551l-0.762-.117h-7.617v46.757Zm50.063-15.937q2.226,8.438,8.027,12.949a19.567,19.567,0,0,0,12.188,4.512,19.046,19.046,0,0,0,11.836-4.395,22.587,22.587,0,0,0,6.855-9.052,29.338,29.338,0,0,0,2.285-11.514,27.976,27.976,0,0,0-2.519-11.66,31.259,31.259,0,0,0-1.553-2.93,25.384,25.384,0,0,0-2.578-3.457,21.353,21.353,0,0,0-3.662-3.369,19.547,19.547,0,0,0-4.864-2.461,18,18,0,0,0-6.093-1.025,19.221,19.221,0,0,0-10.489,3.515,22.732,22.732,0,0,0-7.705,9.346,28.532,28.532,0,0,0-2.724,12.1,27.546,27.546,0,0,0,1,7.441h0Zm35.156-7.471q-0.058.615-.059,0.908a29.059,29.059,0,0,1-1.523,8.262,18.747,18.747,0,0,1-2.988,5.684,17,17,0,0,1-3.75,3.4,13.409,13.409,0,0,1-3.633,1.787,10.659,10.659,0,0,1-2.813.44q-6.5,0-10.9-6.035T807.316,517.2q0-1.405.059-2.109a24.449,24.449,0,0,1,1.553-7.588,15.325,15.325,0,0,1,6.855-8.35,14.865,14.865,0,0,1,3.633-1.64,10.871,10.871,0,0,1,2.725-.41q6.327,0,10.81,5.537t4.483,14.15C837.434,516.985,837.413,517.287,837.375,517.7Zm50.3-17.9a18.229,18.229,0,0,0-2.49-2.285,12.032,12.032,0,0,0-2.784-1.582q-1.464-.585-2.578-0.967a10.916,10.916,0,0,0-2.7-.5q-1.582-.117-2.344-0.147t-2.256,0c-1,.021-1.572.03-1.728,0.03H857.848v46.757h6.035V521.652h12.363a19.194,19.194,0,0,0,6.27-1.523,13.16,13.16,0,0,0,4.248-2.813,16.007,16.007,0,0,0,3.72-6.8,11.274,11.274,0,0,0,.293-2.344,12.374,12.374,0,0,0-3.105-8.379h0Zm-3.867,13.125q-3.048,4.864-12.129,4.8h-8.028V498.1h10.489a14.521,14.521,0,0,1,5.918,1.435,8.415,8.415,0,0,1,3.515,3.018,14.418,14.418,0,0,1,1.465,3.105,8.243,8.243,0,0,1,.41,2.344,9.225,9.225,0,0,1-1.64,4.922h0Zm50.121,33.926q0.292,0.408.644,0.879t0.586,0.761q0.234,0.292.41,0.528h0.176l6.738,0.058-7.382-9.785a1.634,1.634,0,0,1-.469-0.879,0.833,0.833,0,0,1,.586-0.586l1.406-1.23a25.277,25.277,0,0,0,5.567-8.321,26.718,26.718,0,0,0,2.167-10.664,27.63,27.63,0,0,0-.527-5.742,24.566,24.566,0,0,0-4.424-10.576,22.47,22.47,0,0,0-7.588-6.738,18.445,18.445,0,0,0-8.613-2.2,17.781,17.781,0,0,0-8.32,2.11,21.421,21.421,0,0,0-9.317,9.346,28.657,28.657,0,0,0,.44,27.8,21.05,21.05,0,0,0,5.185,6.065,22.845,22.845,0,0,0,6.036,3.4,17.566,17.566,0,0,0,6.093,1.143,17.112,17.112,0,0,0,6.5-1.289ZM909.2,509.465a20.572,20.572,0,0,1,3.78-7.412,15.15,15.15,0,0,1,5.039-4.219,11.817,11.817,0,0,1,5.068-1.2,12.039,12.039,0,0,1,4.863,1,14.3,14.3,0,0,1,5.42,4.043,17.77,17.77,0,0,1,3.281,5.742,40.4,40.4,0,0,1,1.465,5.42,23.589,23.589,0,0,1,.44,4.248,24.979,24.979,0,0,1-2.2,11.191,17.837,17.837,0,0,1-4.834,6.387l-1.464-2.109q-0.177-.176-3.809-4.922-1.29-.058-5.859-0.059l6.738,9.61a21.607,21.607,0,0,1-4.219.644,10,10,0,0,1-2.724-.469,15.315,15.315,0,0,1-3.809-1.875,18.335,18.335,0,0,1-4.014-3.515,17.405,17.405,0,0,1-3.076-5.947,27.633,27.633,0,0,1-1.26-8.643,28.307,28.307,0,0,1,1.172-7.91h0Zm66,10.43,9.551,16a58.778,58.778,0,0,0,3.164,5.039q2.461,0.176,5.918.175l-13.418-22.031a13.472,13.472,0,0,0,3.135-1.142,29.63,29.63,0,0,0,3.721-2.227,11.428,11.428,0,0,0,3.339-3.662,9.517,9.517,0,0,0,1.348-4.922,10.512,10.512,0,0,0-3.691-8.086,15.345,15.345,0,0,0-7-3.9,48.607,48.607,0,0,0-9.932-.791h-12.6v46.757h5.8V519.719h5.391a44.913,44.913,0,0,1,5.273.176h0Zm-10.664-21.8h7.676q6.385,0,10.195,2.05a10.764,10.764,0,0,1,1.612,1.143,8.3,8.3,0,0,1,1.67,2.256,7.01,7.01,0,0,1,.878,3.457,7.383,7.383,0,0,1-2.285,5.156,10.228,10.228,0,0,1-5.068,2.783,31.829,31.829,0,0,1-7,.674h-7.676V498.1Zm68.665,24.756a11.206,11.206,0,0,0-2.81-4.014,24.232,24.232,0,0,0-3.14-2.4,16.36,16.36,0,0,0-2.75-1.407q-0.645-.175-2.4-0.586c-1.17-.273-2.24-0.527-3.2-0.761a22.532,22.532,0,0,1-3.25-1.114,14.6,14.6,0,0,1-3.04-1.67,7.516,7.516,0,0,1-2.08-2.4,6.541,6.541,0,0,1-.85-3.31,5.8,5.8,0,0,1,.46-2.022,11.388,11.388,0,0,1,1.53-2.607,7.972,7.972,0,0,1,3.22-2.373,12.14,12.14,0,0,1,4.98-.967,15.3,15.3,0,0,1,9.79,3.457l1.34,1,0.65-3.984a8.258,8.258,0,0,0,.06-1.612,13.41,13.41,0,0,0-1.59-.849,22.406,22.406,0,0,0-10.37-2.461,15.7,15.7,0,0,0-11.1,3.984,12.51,12.51,0,0,0-4.31,9.492,11.9,11.9,0,0,0,2.87,7.676,14.819,14.819,0,0,0,7.8,4.863l5.74,1.407a11.945,11.945,0,0,1,6.24,3.544,8.029,8.029,0,0,1,1.96,5.245,7.562,7.562,0,0,1-.23,1.669,11.833,11.833,0,0,1-.88,2.286,9.729,9.729,0,0,1-1.67,2.4,8.245,8.245,0,0,1-2.81,1.846,10.292,10.292,0,0,1-4.07.761,22.7,22.7,0,0,1-13.25-4.453l-1.46-1.113-0.7,3.984a8.027,8.027,0,0,0-.12,1.348,0.772,0.772,0,0,0,.29.469l1.52,0.879a27.023,27.023,0,0,0,13.13,3.574,15.473,15.473,0,0,0,11.22-4.219A13.965,13.965,0,0,0,1033.2,522.854Zm11.6-23.76,17.46-.059v42.012h6.03V499.035l17.46,0.059V494.7H1044.8v4.395Zm87.62-4.864h-5.22v31.993a13.562,13.562,0,0,1-4.04,9.668,10.432,10.432,0,0,1-7.21,2.871,11.277,11.277,0,0,1-3.75-.762,13.4,13.4,0,0,1-3.01-1.758,8.612,8.612,0,0,1-2.06-2.314,17.989,17.989,0,0,1-1.25-2.49,11.448,11.448,0,0,1-.68-2.959c-0.14-1.192-.22-2.178-0.26-2.959s-0.06-1.836-.06-3.165V494.23h-5.98v29.532q0,2.7.06,3.457a17.467,17.467,0,0,0,3.4,8.525,16.767,16.767,0,0,0,6.27,5.215,17.134,17.134,0,0,0,7.21,1.611,15.423,15.423,0,0,0,3.01-.351,19.687,19.687,0,0,0,4.11-1.436,17.522,17.522,0,0,0,4.3-2.783,15.086,15.086,0,0,0,3.43-4.746,18.139,18.139,0,0,0,1.73-6.973V494.23Zm29.85,46.114a0.738,0.738,0,0,0,.58.761h4.89c0.1,0,.25-0.01.44-0.029a0.528,0.528,0,0,0,.36-0.117,0.509,0.509,0,0,1,.2-0.176,0.59,0.59,0,0,0,.23-0.381,2.353,2.353,0,0,1,.21-0.5,6.631,6.631,0,0,0,.32-0.732c0.14-.352.27-0.684,0.38-1l17.29-43.828h-3.87a3.945,3.945,0,0,0-1.41.117l-0.41.937q-0.81,2.286-1.17,3.106-13.935,35.684-14.12,37.851c-0.12-.351-0.22-0.741-0.32-1.171s-0.3-1.1-.62-2.022-0.8-2.294-1.46-4.131l-2.17-5.918-10.78-27.773-0.06-.235a1.12,1.12,0,0,0-.12-0.263,2.879,2.879,0,0,0-.17-0.235,0.676,0.676,0,0,0-.27-0.2,1.017,1.017,0,0,0-.38-0.058h-5.68Zm77.89,0.761,13.71-46.757h-3.57a1.665,1.665,0,0,0-1.35.293l-0.94,3.1q-2.865,9.435-6.53,22.412t-3.96,16.2h-0.06q0-1.757-4.24-17.08-4.26-15.321-7.12-24.931h-4.05a4.9,4.9,0,0,0-1.46.117l-0.35.879-8.38,29.414a0.6,0.6,0,0,0-.06.351q-2.46,9.963-2.52,11.25h-0.06q0-2.343-2.99-13.418l-8.2-28.593h-5.86l13.71,46.757h3.99a3.1,3.1,0,0,0,1.46-.175l0.35-.938,2.52-8.965q8.5-29.648,8.56-31.992h0.12q0.285,3.81,5.77,22.5t5.65,19.57h5.86Zm33.48-30.585c0.08,0.117.76,1.016,2.05,2.7s2.09,2.754,2.4,3.223l-0.35.644-17.58,24.023h0.88c2.74,0,4.37-.01,4.9-0.029a0.877,0.877,0,0,0,.9-0.381l3.7-5.039a1.852,1.852,0,0,0,.29-0.351l10.43-14.766c0.51,0.782,1.85,2.637,4.04,5.566q10.425,14.474,10.84,14.942h0.18l6.85,0.058-18.92-24.667,0.29-.586,15.82-21.5h-0.88c-3.13,0-5,.039-5.62.117l-1.12,1.406-11.6,16.055-13.01-17.461a1.041,1.041,0,0,1-.2-0.029c-0.1-.02-0.21-0.039-0.32-0.059a1.992,1.992,0,0,0-.3-0.029h-6.21Zm48.89,4.042q0.525,0.822,2.84,4.131t2.55,3.721v0.234l0.12,18.457h5.74V539q0-4.746.03-8.789t0.03-5.918l0.06-1.816,0.58-1,18.7-27.129q-4.35,0-5.98.117l-0.53.586-6.33,9.375q-6.615,9.551-8.84,13.3l-11.2-16.7c-0.66-.9-1.29-1.8-1.9-2.695s-1.02-1.543-1.26-1.934a8.769,8.769,0,0,0-.79-1.113,3.069,3.069,0,0,0-.7-0.674,3.14,3.14,0,0,0-.74-0.263h-6.27Zm40.04-16.054,25.14-.059-19.33,29.531-0.47.7c-0.59.9-1.2,1.8-1.82,2.7q-3.81,5.625-4.1,6.328a10.236,10.236,0,0,0-.35,3.4h34.04v-4.453h-7.44l-18.93.118,19.28-29.415q0.18-.351,3.28-5.039t3.4-5.214q0.06-.585.06-2.754h-32.76v4.16Z"/>
  <path id="logo" class="cls-1" d="M706.266,1194.7a45.969,45.969,0,0,0-.118,5.15v5.16H677.555v-1.17l0.234-.94-1.406-.24c-1.1,0-2.659-.07-4.688-0.23h-3.281l-0.469,2.58a45.646,45.646,0,0,1-1.172,4.92,22.619,22.619,0,0,1-1.406,4.22,7.125,7.125,0,0,0-.82,2.23,6.584,6.584,0,0,0,2.109-.71c1.326-.54,2.615-1.13,3.867-1.76a11.566,11.566,0,0,0,3.516-2.81l1.641-1.64h66.8l1.875,1.88a14.477,14.477,0,0,0,3.75,2.81c1.406,0.62,2.655,1.17,3.75,1.64a1.036,1.036,0,1,0,1.171-1.17,17.1,17.1,0,0,1-1.406-3.99q-0.7-2.34-1.172-4.68a11.9,11.9,0,0,0-.7-3.05c0-.47-1.252-0.62-3.75-0.47-1.875.16-3.281,0.23-4.219,0.23a2.052,2.052,0,0,1-.937.24c-0.315,0-.469.31-0.469,0.94l0.235,0.93-13.594.24q-13.359,0-13.36-.24a2.838,2.838,0,0,1,.7-1.05,6.664,6.664,0,0,0,1.171-2.46,15.728,15.728,0,0,0,.469-4.22v-2.58h-4.687Q706.382,1194.46,706.266,1194.7Zm-31.289,28.12v4.22l21.093,0.23h21.094l-5.859,4.93q-5.4,4.215-8.2,6.56l-2.344,1.87v6.8H660.445v4.22h40.313v14.76c0,10.01-.158,15.47-0.469,16.41a13.152,13.152,0,0,1-1.172,3.05,21,21,0,0,1-2.578,3.04,16.962,16.962,0,0,1-3.75,2.82c-1.406.62-2.109,1.17-2.109,1.64s0.153,0.7.468,0.7a30.375,30.375,0,0,0,3.047-.47,34.353,34.353,0,0,0,4.922-1.4,16.4,16.4,0,0,0,4.688-1.88,11.74,11.74,0,0,0,3.515-2.34,12.264,12.264,0,0,0,2.344-2.58,13,13,0,0,0,1.172-2.58c0.311-.94.469-6.4,0.469-16.41v-14.76h38.2v-4.22h-38.2v-6.8l2.109-1.64q2.109-1.635,8.438-6.79,6.327-5.4,8.437-7.04a13.637,13.637,0,0,0,2.578-2.34q0-.225-28.828-0.23t-29.062.23h0Zm121.64-30.23-0.469,1.87a27.635,27.635,0,0,1-1.523,5.74c-0.861,2.43-1.681,4.65-2.461,6.68q-1.176,2.58-3.281,6.8-1.88,3.75-4.453,8.44-2.11,3.75-4.688,7.73-2.582,4.215-3.047,4.92a7.818,7.818,0,0,0-1.406,2.11c-0.157.47-.117,0.71,0.117,0.71a8.252,8.252,0,0,0,2.227-1.18q1.873-1.17,3.515-2.34,1.874-1.41,3.985-3.28a59.714,59.714,0,0,0,4.453-4.45l2.109-2.35,0.235,14.77,0.234,14.76h1.875a5.862,5.862,0,0,0,3.047-.7,5.457,5.457,0,0,0,1.875-1.17,11.374,11.374,0,0,0,1.406-1.64l0.469-.71h27.187v2.11l0.235,2.11h1.64a7.437,7.437,0,0,0,2.813-.47,9.072,9.072,0,0,0,2.109-1.17,4.666,4.666,0,0,0,1.407-1.64l0.7-.94h31.64v-4.45H838.336v-6.8H868.57v-4.45H838.336v-6.8H868.57v-4.68H838.336v-7.5H868.57v-4.69H837.164l0.938-1.17a23.668,23.668,0,0,0,1.406-2.35,6.445,6.445,0,0,0,.7-2.57,17.74,17.74,0,0,0,.469-4.93v-3.51H828.727v14.53H815.6q-13.129,0-13.125-.23c0-.16-0.158-0.24-0.469-0.24s0.311-1.41,1.875-4.22a69.182,69.182,0,0,0,3.281-7.5,16.732,16.732,0,0,0,1.406-3.98l0.235-1.17H796.617Zm31.406,22.03v7.5H802.477v-7.5h25.546Zm0,12.18v6.8H802.477v-6.8h25.546Zm0,11.25v6.8H802.477v-6.8h25.546Zm-3.515,16.88v5.16l-22.969.23H778.805v4.45h45.7v1.64c0,1.1-.081,1.64-0.235,1.64a40.222,40.222,0,0,1-4.687-1.17q-4.455-1.17-4.922-1.4-0.236,0-6.328,4.68-6.1,4.935-7.734,6.1-1.643.93-4.454,2.58a58.967,58.967,0,0,1-5.39,2.57q-2.812,1.185-5.391,2.23a35.226,35.226,0,0,1-5.859,1.76,17.416,17.416,0,0,0-3.047,1.05,6.06,6.06,0,0,0,1.289,1.06,3.994,3.994,0,0,0,1.992.94c0.469,0,2.344-.32,5.625-0.94s6.328-1.33,9.141-2.11q4.449-1.17,8.2-2.35a22.822,22.822,0,0,0,4.922-2.1q1.637-.945,9.14-6.1t7.618-5.04q0.115,0.12.117,13.48v13.12h1.406a7.357,7.357,0,0,0,2.813-.7,6.692,6.692,0,0,0,3.046-1.99,11.184,11.184,0,0,0,2.11-3.17,8.733,8.733,0,0,0,.586-2.34q0.115-1.17.117-6.33c0.154-4.68.271-7.11,0.352-7.26s1.442,0.55,4.1,2.11q3.982,2.1,6.8,3.51a34.945,34.945,0,0,0,6.328,2.58,54.282,54.282,0,0,0,6.328,1.64,52.974,52.974,0,0,0,5.625.94c1.718,0.16,4.219.23,7.5,0.23a38.521,38.521,0,0,0,5.86-.23,1.37,1.37,0,0,0,1.171-.94l0.235-1.17c0-.15-0.235-0.24-0.7-0.24-0.315,0-1.722-.23-4.219-0.7s-5-1.01-7.5-1.64q-3.516-.93-6.8-2.11-2.812-.93-5.625-2.11-2.346-1.17-10.078-6.33l-7.734-5.15,19.453-.24h19.453v-4.45H854.977l-20.157-.23v-2.58l-0.234-2.58H824.508Z"/>
</svg>
