<svg xmlns="http://www.w3.org/2000/svg" width="400" height="200" viewBox="0 0 400 200">
  <defs>
    <style>
      .cls-1 {
        fill: #fdfdfd;
        fill-rule: evenodd;
      }
    </style>
  </defs>
  <path id="王漢宗特黑體繁" class="cls-1" d="M36,83.617a1.264,1.264,0,0,0,1.453,1.406H51A1.016,1.016,0,0,1,52.125,86.2v8.953a1.016,1.016,0,0,1-1.172,1.125H40.266a1.264,1.264,0,0,0-1.406,1.453v2.39a1.264,1.264,0,0,0,1.453,1.406H51a1.016,1.016,0,0,1,1.125,1.172v10.594a1.016,1.016,0,0,1-1.172,1.125H36.141a1.264,1.264,0,0,0-1.406,1.453v2.438a1.264,1.264,0,0,0,1.453,1.406h38.3a1.264,1.264,0,0,0,1.406-1.453V115.82a1.264,1.264,0,0,0-1.453-1.406H59.2a1.016,1.016,0,0,1-1.125-1.172V102.648a1.016,1.016,0,0,1,1.172-1.125H70.406a1.264,1.264,0,0,0,1.406-1.453V97.68a1.264,1.264,0,0,0-1.453-1.406H59.2A1.015,1.015,0,0,1,58.078,95.1V86.148a1.016,1.016,0,0,1,1.172-1.125H73.078a1.264,1.264,0,0,0,1.406-1.453V81.18a1.264,1.264,0,0,0-1.453-1.406H37.313A1.25,1.25,0,0,0,36,81.273v2.344Zm62.438-3.844H95.2A1.264,1.264,0,0,0,93.8,81.227v1.781a1.264,1.264,0,0,0,1.453,1.406h3.234a1.016,1.016,0,0,1,1.125,1.172v2.672a1.264,1.264,0,0,0,1.453,1.406h4.5q1.125,0,1.126.656c0,0.375-.392.563-1.172,0.563h-9a1.264,1.264,0,0,0-1.406,1.453v7.031a1.264,1.264,0,0,0,1.453,1.406h9q1.125,0,1.032.61-0.094.516-1.219,0.515h-8.3a1.265,1.265,0,0,0-1.406,1.454v1.593a1.264,1.264,0,0,0,1.453,1.407h7.687q1.079,0,.891.609a1.141,1.141,0,0,1-1.265.609h-9.8a1.264,1.264,0,0,0-1.406,1.453v1.547a1.264,1.264,0,0,0,1.453,1.407h6.469q1.219,0,0,.89a20.652,20.652,0,0,1-6.8,2.719q-1.313.234-.891,1.781l0.656,2.438a1.424,1.424,0,0,0,1.828,1.125,29.176,29.176,0,0,0,4.688-1.407,18.487,18.487,0,0,0,7.406-5.2q1.125-1.5,2.015-.422a22.933,22.933,0,0,0,11.86,6.8,1.609,1.609,0,0,0,2.016-1.078l0.937-2.437q0.563-1.361-1.266-1.688a21.285,21.285,0,0,1-6.937-2.484q-1.595-1.031-.375-1.031h7.547a1.265,1.265,0,0,0,1.406-1.454v-1.546a1.265,1.265,0,0,0-1.453-1.407H112.359q-1.031,0-.937-0.656,0.093-.562,1.266-0.562h9.14a1.264,1.264,0,0,0,1.406-1.454v-1.593a1.264,1.264,0,0,0-1.453-1.407h-8.625c-0.719,0-1.078-.2-1.078-0.609,0.062-.343.469-0.516,1.219-0.516h9.094A1.264,1.264,0,0,0,123.8,99.32V92.289a1.264,1.264,0,0,0-1.453-1.406H113.25q-1.125,0-1.125-.656,0-.562,1.172-0.562h5.156a1.264,1.264,0,0,0,1.406-1.453V85.539a1.016,1.016,0,0,1,1.172-1.125H123.7a1.264,1.264,0,0,0,1.406-1.453V81.18a1.264,1.264,0,0,0-1.453-1.406h-2.672a0.937,0.937,0,0,1-1.125-.984q0-.89-1.453-0.891h-2.625q-1.406,0-1.406.984,0,0.891-1.172.891h-7.031a0.974,0.974,0,0,1-1.125-1.078q0-.984-1.453-0.984h-2.625q-1.361,0-1.36,1.078a0.962,0.962,0,0,1-1.172.984h0ZM84.984,81.18q-1.125,1.125.375,2.344a24.105,24.105,0,0,1,2.531,2.3q1.359,1.406,2.484.047l1.594-2.016q1.218-1.5-.422-3-1.172-.937-2.344-1.734a2.183,2.183,0,0,0-2.812.609ZM113.2,85.773h-7.031q-1.125,0-1.125-.7,0-.656,1.172-0.656H113.3a0.9,0.9,0,0,1,1.078.75q-0.047.61-1.172,0.609h0ZM83.578,91.961a1.633,1.633,0,0,0,.281,2.766,23.535,23.535,0,0,1,2.859,2.531q1.406,1.406,2.766-.234,0.656-.937,1.453-1.875a1.709,1.709,0,0,0-.375-2.625,26,26,0,0,0-3.187-2.344q-1.266-.8-2.766.7Zm21.938,4.453h-3.938q-1.125,0-1.125-.656,0-.609,1.172-0.609h3.937q1.125,0,1.126.656c0,0.407-.392.609-1.172,0.609h0Zm11.625,0H113.25q-1.125,0-1.125-.656,0-.609,1.172-0.609h3.891q1.125,0,1.124.656,0,0.61-1.171.609h0Zm-34.829,20.2a1.512,1.512,0,0,0,.891,2.11l2.391,1.265a1.4,1.4,0,0,0,2.25-.7,113.967,113.967,0,0,0,4.687-15.141,1.489,1.489,0,0,0-1.078-1.921,23.282,23.282,0,0,0-2.344-.8q-1.641-.609-2.016.89a97,97,0,0,1-4.781,14.3h0Zm66.563-36.281a1.016,1.016,0,0,1-1.172,1.125H132.281a1.264,1.264,0,0,0-1.406,1.453v7.594a1.264,1.264,0,0,0,1.453,1.406H135a1.264,1.264,0,0,0,1.406-1.453V88.023a1.016,1.016,0,0,1,1.172-1.125H165.75a1.016,1.016,0,0,1,1.125,1.172v2.438a1.264,1.264,0,0,0,1.453,1.406H171a1.264,1.264,0,0,0,1.406-1.453V82.867a1.264,1.264,0,0,0-1.453-1.406H155.812a1.015,1.015,0,0,1-1.124-1.172V79.117a1.265,1.265,0,0,0-1.454-1.406h-3a1.267,1.267,0,0,0-1.359,1.5v1.125Zm-11.3,13.594a1.264,1.264,0,0,0,1.453,1.406h24.7a1.264,1.264,0,0,0,1.407-1.453V91.3a1.264,1.264,0,0,0-1.453-1.406h-24.8a1.25,1.25,0,0,0-1.313,1.5V93.93Zm-6.7,8.953a1.264,1.264,0,0,0,1.453,1.406H147.75a1.016,1.016,0,0,1,1.125,1.172V113.2q-0.047,2.111-1.172,2.532a15.494,15.494,0,0,1-4.641-.282q-1.406-.421-1.078,1.125l0.469,2.766a2.015,2.015,0,0,0,1.781,1.641q5.671,0.984,8.907-1.219a7.487,7.487,0,0,0,1.547-4.688v-9.656a1.015,1.015,0,0,1,1.171-1.125h14.672a1.264,1.264,0,0,0,1.407-1.453v-2.484a1.265,1.265,0,0,0-1.454-1.407h-38.2a1.243,1.243,0,0,0-1.406,1.407v2.531Zm1.266,9.422a1.511,1.511,0,0,0-.657,2.25L132.8,116.9a1.425,1.425,0,0,0,2.25.563,34.964,34.964,0,0,0,7.828-6.938q1.031-1.311-.469-2.578L141,106.82a1.684,1.684,0,0,0-2.578.282,29.09,29.09,0,0,1-6.281,5.2h0Zm28.828-4.407a1.6,1.6,0,0,0-.375,2.532,34.513,34.513,0,0,0,6.937,7.172,1.351,1.351,0,0,0,2.2-.469l1.454-2.485q0.843-1.5-.844-2.531a28.317,28.317,0,0,1-5.485-5.062,1.655,1.655,0,0,0-2.578-.235,13.406,13.406,0,0,0-1.312,1.078h0ZM186.7,84.648q0,1.125-.75,1.125-0.7,0-.656-1.125l0.094-.937q0.186-1.359-1.641-1.734a11.613,11.613,0,0,0-1.547-.328q-1.5-.327-1.687,1.359a58.983,58.983,0,0,1-2.391,10.781,1.682,1.682,0,0,0,1.031,2.109l1.969,0.984q1.406,0.7,1.969-1.172a25.585,25.585,0,0,0,.89-3.281,1.576,1.576,0,0,1,1.547-1.406A1.036,1.036,0,0,1,186.7,92.2v7.453a1.627,1.627,0,0,1-1.125,1.594q-3.141,1.125-6.14,2.063a1.292,1.292,0,0,0-.8,1.968l1.031,2.438a1.619,1.619,0,0,0,2.344.891l3.234-1.125q1.452-.516,1.453.656v11.672a1.264,1.264,0,0,0,1.453,1.406h2.532a1.264,1.264,0,0,0,1.406-1.453V105.789a1.994,1.994,0,0,1,1.125-1.781l1.219-.61a1.765,1.765,0,0,0,.937-2.3l-0.563-1.875q-0.561-1.547-1.687-1.078-1.032.469-1.031-.7v-5.3a1.015,1.015,0,0,1,1.172-1.125h0.8a1.264,1.264,0,0,0,1.407-1.453V87.18a1.264,1.264,0,0,0-1.453-1.406h-0.8a1.015,1.015,0,0,1-1.125-1.172V79.492a1.264,1.264,0,0,0-1.453-1.406h-2.532a1.243,1.243,0,0,0-1.406,1.406v5.156Zm19.125-3.562a1.016,1.016,0,0,1-1.172,1.125h-6.234a1.264,1.264,0,0,0-1.406,1.453v2.391a1.264,1.264,0,0,0,1.453,1.406H204.7a1.016,1.016,0,0,1,1.125,1.172v2.016a1.016,1.016,0,0,1-1.172,1.125H197.25a1.264,1.264,0,0,0-1.406,1.453v2.391a1.264,1.264,0,0,0,1.453,1.406H210.7a1.016,1.016,0,0,1,1.125,1.172v1.078a1.016,1.016,0,0,1-1.172,1.125H198.234a1.265,1.265,0,0,0-1.406,1.454v2.39a1.264,1.264,0,0,0,1.453,1.406h1.641q1.406,0,.14.891l-0.89.563q-1.828,1.125-.7,2.531a30.408,30.408,0,0,1,2.39,3.8,1.3,1.3,0,0,0,2.11.562q1.218-.8,2.437-1.453a1.556,1.556,0,0,0,.75-2.3,34.923,34.923,0,0,0-2.015-3.094q-1.219-1.5-.094-1.5H210.7a1.016,1.016,0,0,1,1.125,1.172v7.266q-0.141,2.25-2.156,1.734a22.577,22.577,0,0,1-3.188-.515q-1.406-.377-1.172,1.031a23.941,23.941,0,0,0,.422,2.531,2.2,2.2,0,0,0,1.875,1.922q4.688,0.75,7.547-.7a3.937,3.937,0,0,0,1.828-2.672l0.235-1.875v-8.766a1.015,1.015,0,0,1,1.172-1.125h1.218a1.264,1.264,0,0,0,1.407-1.453v-2.39a1.265,1.265,0,0,0-1.454-1.407h-1.218a1.015,1.015,0,0,1-1.125-1.171V98.148a1.015,1.015,0,0,1,1.172-1.125h1.547a1.264,1.264,0,0,0,1.406-1.453V93.18a1.264,1.264,0,0,0-1.453-1.406h-7.547a1.015,1.015,0,0,1-1.125-1.172V88.586a1.015,1.015,0,0,1,1.172-1.125h6.281a1.264,1.264,0,0,0,1.406-1.453V83.617a1.264,1.264,0,0,0-1.453-1.406h-6.281a1.015,1.015,0,0,1-1.125-1.172V79.3a1.264,1.264,0,0,0-1.453-1.406h-2.625a1.25,1.25,0,0,0-1.313,1.5v1.688Zm24.328,15.422a1.243,1.243,0,0,0,1.406,1.406h12.657q1.125,0,1.125.8,0,0.75-1.172.75H232.078a1.264,1.264,0,0,0-1.406,1.453v2.2a1.264,1.264,0,0,0,1.453,1.406h12.094a0.906,0.906,0,0,1,1.125.891q0,0.8-1.172.8H229.125a1.264,1.264,0,0,0-1.406,1.453v2.2a1.264,1.264,0,0,0,1.453,1.406h34.312q1.22,0,0,.844l-1.781,1.219q-1.312.891,0,2.391,1.641,1.921,3.047,3.843,1.031,1.407,2.438,0l1.921-1.922q1.407-1.359.235-2.531-1.312-1.361-2.672-2.578-1.407-1.266-.188-1.266h0.985a1.264,1.264,0,0,0,1.406-1.453v-2.2a1.264,1.264,0,0,0-1.453-1.406h-15.61a0.9,0.9,0,0,1-1.124-.891q0-.8,1.171-0.8h12.329a1.264,1.264,0,0,0,1.406-1.453v-2.2a1.264,1.264,0,0,0-1.453-1.406H251.812q-1.125,0-1.124-.8,0-.749,1.171-0.75h13.079a1.264,1.264,0,0,0,1.406-1.453V80.1a1.264,1.264,0,0,0-1.453-1.406H231.562a1.264,1.264,0,0,0-1.406,1.453V96.508Zm15.188-4.875a1.016,1.016,0,0,1-1.172,1.125h-7.453a1.016,1.016,0,0,1-1.125-1.172V84.977a1.015,1.015,0,0,1,1.172-1.125h7.453a1.016,1.016,0,0,1,1.125,1.172v6.609Zm15.515,0a1.015,1.015,0,0,1-1.171,1.125h-7.876a1.015,1.015,0,0,1-1.124-1.172V84.977a1.015,1.015,0,0,1,1.171-1.125h7.875a1.016,1.016,0,0,1,1.125,1.172v6.609Zm-22.687-5.766a1.329,1.329,0,0,0-.7,2.109,27.29,27.29,0,0,1,1.312,2.719,1.47,1.47,0,0,0,2.157.938l1.921-.844a1.348,1.348,0,0,0,.7-2.062,27.462,27.462,0,0,0-1.546-3,1.65,1.65,0,0,0-2.344-.609Zm14.906,4.547,0.938,0.8q1.265,1.079,2.765-.422a24.721,24.721,0,0,0,1.828-2.437q0.986-1.406-.843-2.531a5.236,5.236,0,0,1-.938-0.609,1.707,1.707,0,0,0-2.531.516,16.046,16.046,0,0,1-1.5,1.828q-1.453,1.406.281,2.859h0Zm-24.609,25.172q-1.687,1.688-.047,3.094l1.875,1.593a1.759,1.759,0,0,0,2.672-.375q1.359-1.875,2.484-3.75a1.527,1.527,0,0,0-.562-2.3l-2.3-1.36q-1.312-.8-2.25.7a26.387,26.387,0,0,1-1.875,2.391h0Zm23.156-2.2q-1.406.7-.281,2.484l1.547,3.188a1.3,1.3,0,0,0,2.015.7q1.078-.516,2.11-0.891a1.546,1.546,0,0,0,.8-2.344,22.785,22.785,0,0,0-1.968-3.281,1.993,1.993,0,0,0-2.719-.609Zm-11.906,1.734a24.874,24.874,0,0,1,.75,4.172q0.14,1.359,1.64.938,1.641-.517,3.235-0.891a1.472,1.472,0,0,0,1.172-1.828,23.418,23.418,0,0,0-1.172-3.844,1.676,1.676,0,0,0-2.063-1.125l-2.39.609a1.457,1.457,0,0,0-1.172,1.969h0Zm59.109-34.781h-3.8a1.264,1.264,0,0,0-1.406,1.453V95.242a1.264,1.264,0,0,0,1.453,1.406h19.594a1.264,1.264,0,0,0,1.406-1.453V81.742a1.264,1.264,0,0,0-1.453-1.406h-3.75a1.061,1.061,0,0,1-1.125-1.266q0-1.171-1.453-1.172h-1.219a1.185,1.185,0,0,0-1.406,1.266q0,1.172-.844,1.172-0.75,0-.75-1.266,0-1.171-1.453-1.172h-1.313A1.14,1.14,0,0,0,300,79.164a1.036,1.036,0,0,1-1.172,1.172h0Zm-24.094,8.813q0,1.125-.8,1.125-0.7,0-.7,1.453v4.266q0,1.406,1.125,1.406a1,1,0,0,1,1.079,1.172v21.047a1.264,1.264,0,0,0,1.453,1.406h1.968a1.264,1.264,0,0,0,1.407-1.453v-5.484a1.015,1.015,0,0,1,1.172-1.125h3.187a1.016,1.016,0,0,1,1.125,1.172,3.909,3.909,0,0,1-.281,1.64,4.371,4.371,0,0,1-2.25,0q-1.454-.375-0.985,1.5a13.586,13.586,0,0,0,.422,1.875,1.99,1.99,0,0,0,1.688,1.688q5.671,0.563,6.328-5.2V98.523A0.994,0.994,0,0,1,291.8,97.4q1.077,0,1.078-1.453V91.68q0-1.406-.891-1.406-0.8,0-.8-1.172V79.68a1.265,1.265,0,0,0-1.454-1.406h-13.64a1.245,1.245,0,0,0-1.36,1.453v9.422Zm10.407-5.062h-2.813a1.264,1.264,0,0,0-1.406,1.453v3.609q0,1.125-.7,1.125-0.657,0-.657-1.172V84.086a1.016,1.016,0,0,1,1.172-1.125h4.5c0.687,0,1.032.219,1.032,0.656q0,0.469-1.125.469h0Zm13.968,2.484a0.814,0.814,0,0,1-.843-0.984,0.828,0.828,0,0,1,.937-0.937,0.888,0.888,0,0,1,.8,1.031,0.787,0.787,0,0,1-.891.891h0Zm5.719,0q-0.75,0-.75-0.984a0.809,0.809,0,0,1,.891-0.937q0.7,0,.7,1.031a0.767,0.767,0,0,1-.844.891h0Zm5.766,0a0.814,0.814,0,0,1-.844-0.984,0.875,0.875,0,1,1,1.734.094,0.787,0.787,0,0,1-.89.891h0Zm-25.032,3.7q-0.7,0-.7-1.078a0.825,0.825,0,0,1,.8-1.031q0.657,0,.656,1.125,0,0.984-.75.984h0Zm13.547,2.063a0.966,0.966,0,0,1,.047-1.922A0.841,0.841,0,0,1,300,91.4a0.809,0.809,0,0,1-.891.938h0Zm5.719,0q-0.75,0-.75-0.984a0.79,0.79,0,0,1,.844-0.937c0.5,0,.75.328,0.75,0.984a0.79,0.79,0,0,1-.844.938h0Zm5.766,0a0.966,0.966,0,1,1,.89-0.937,0.814,0.814,0,0,1-.89.938h0ZM286.828,96.7h-7.687a0.906,0.906,0,0,1-1.125-.891q0-.844,1.172-0.844h7.734A0.952,0.952,0,0,1,288,95.9q0,0.8-1.172.8h0Zm6.281,4.125a1.265,1.265,0,0,0,1.453,1.407h20.579a1.265,1.265,0,0,0,1.406-1.454V99.18a1.264,1.264,0,0,0-1.453-1.406H294.516a1.243,1.243,0,0,0-1.407,1.406v1.64Zm-8.531,2.25h-3.187a0.905,0.905,0,0,1-1.125-.89q0-.845,1.172-0.844h3.234a0.9,0.9,0,0,1,1.078.937q0,0.8-1.172.8h0Zm9.844,8.86a1.264,1.264,0,0,0,1.453,1.406h2.25q0.984,0-.187.562-1.266.375-.985,1.313t-0.844.937h-2.156a1.265,1.265,0,0,0-1.406,1.454v1.828A1.264,1.264,0,0,0,294,120.836h21.844a1.264,1.264,0,0,0,1.406-1.453v-1.828a1.265,1.265,0,0,0-1.453-1.407h-2.906q-0.986,0-.75-1.125a0.9,0.9,0,0,0-.7-1.218q-1.361-.468.374-0.469h2.2a1.264,1.264,0,0,0,1.406-1.453v-7.219a1.264,1.264,0,0,0-1.453-1.406H295.734a1.249,1.249,0,0,0-1.312,1.5v7.172Zm-9.844-3.047h-3.187a0.906,0.906,0,0,1-1.125-.891q0-.843,1.172-0.844h3.281a0.873,0.873,0,0,1,1.031.938q0,0.8-1.172.8h0Zm24.563,0.187h-8.532q-1.125,0-1.125-.8,0-.748,1.172-0.75h8.485q1.125,0,1.171.8,0,0.752-1.171.75h0Zm-2.719,6.891a2.508,2.508,0,0,1-1.313.187h-1.078a1.674,1.674,0,0,1-1.593-1.359q-0.564-1.452.562-1.453h3.094q1.077,0,.75,1.219Zm17.25-32.3a1.274,1.274,0,0,0,.094,2.2q2.952,1.735,2.343,2.906a1.089,1.089,0,0,1-1.265.938H324a1.264,1.264,0,0,0-1.406,1.453v0.891a1.286,1.286,0,0,0,1.5,1.406q1.452,0,1.406,1.125-0.141,2.3-.469,4.594a1.157,1.157,0,0,0,1.313,1.406h1.734q1.407,0,1.547-.938a1.156,1.156,0,0,1,1.313-.937h1.546a1.382,1.382,0,0,1,1.266,1.312l0.188,0.844a2.205,2.205,0,0,0,1.171,1.688q0.938,0.328.235,0.8a2.411,2.411,0,0,1-1.969.234l-2.109-.422a2.53,2.53,0,0,0-2.532,1.219l-0.422.562q-1.125,1.407.282,1.782l7.172,1.734q1.5,0.422-.235.516-5.109.375-10.219,0.562a1.13,1.13,0,0,0-1.124,1.547l0.421,1.922a1.512,1.512,0,0,0,1.735,1.312q6.843-.421,13.64-1.031,1.407-.047,1.407,1.078v5.625a1.264,1.264,0,0,0,1.453,1.406h2.484a1.264,1.264,0,0,0,1.406-1.453v-6.281a1.176,1.176,0,0,1,1.313-1.125q3.7-.515,7.359-0.844a1.943,1.943,0,0,1,2.11,1.078,1.306,1.306,0,0,0,1.968.657q1.171-.562,2.3-0.985a1.312,1.312,0,0,0,.75-2.062,41.468,41.468,0,0,0-3.656-5.531,2.392,2.392,0,0,0-2.953-.891l-1.547.75q-1.547.75-.7,1.828,0.748,1.032-.469,1.125l-6.141.469q-1.734.094-.468-0.844,3.421-2.391,6.8-5.016,1.452-1.125.047-1.781-1.361-.609-0.235-1.5a4.249,4.249,0,0,0,.75-0.609,2.088,2.088,0,0,1,2.813-.234,32.364,32.364,0,0,0,5.156,2.532,1.57,1.57,0,0,0,2.062-.985,17,17,0,0,1,.891-1.875,1.212,1.212,0,0,0-.8-1.875A20.932,20.932,0,0,1,360,94.258q-1.361-.984-0.656-2.109a21.89,21.89,0,0,0,2.062-4.641,1.915,1.915,0,0,1,1.922-1.406,1.264,1.264,0,0,0,1.406-1.453V83.055a1.264,1.264,0,0,0-1.453-1.406h-8.672q-1.125,0-.7-1.125,0.329-.937-1.265-1.406a16.008,16.008,0,0,0-1.969-.609,1.515,1.515,0,0,0-2.016,1.031,29.5,29.5,0,0,1-2.718,4.875q-0.986,1.36-.985.656,0-.656-1.453-0.656H330.516c-0.75,0-1.1-.094-1.032-0.281a1.332,1.332,0,0,1,1.641-.609h13.547a1.264,1.264,0,0,0,1.406-1.453V81.18a1.264,1.264,0,0,0-1.453-1.406H333.047q-1.125,0-1.031-.375,0.093-.327-1.313-0.75l-1.828-.562a1.735,1.735,0,0,0-2.109,1.125,25.013,25.013,0,0,1-3.094,4.453h0Zm32.016,5.344q-0.657,1.125-1.735-.094l-0.984-1.359Q352.03,86.1,353.2,86.1h2.672q1.125,0,.516,1.5Zm-22.735.188q1.218,0.516-.75.516-1.5,0-1.453-.891a1.111,1.111,0,0,1,1.266-.844q0.984,0,.562.516t0.375,0.7h0Zm6.7,0.516q-0.516,0-.328-0.234a2.2,2.2,0,0,0-1.125-.8q-1.361-.7.563-0.7,1.452,0,1.453.938-0.094.8-.563,0.8h0Zm6,0a0.749,0.749,0,0,1-.8-0.891q0.046-.844.938,0.094,0.8,0.8-.141.8h0Zm4.782,2.625q1.264,1.454.187,2.344a34.987,34.987,0,0,1-3,2.109,1.16,1.16,0,0,0-.187,2.063,1.269,1.269,0,0,1,0,2.109,43.554,43.554,0,0,1-4.36,3.469,3.118,3.118,0,0,1-2.109.843q-0.7-.139.375-0.984,1.311-1.077,2.625-2.016,1.311-1.077.375-1.546a0.971,0.971,0,0,1-.61-1.266,1.015,1.015,0,0,1,1.078-.75q0.844,0,.844-1.453V96.6q0-1.406-.609-1.406-0.562,0-.563-0.891a1.141,1.141,0,0,1,1.36-.844q1.171,0,1.172-1.453v-0.75c0-.75.077-1.078,0.234-0.984q0.188,0.141.7-.375,0.422-.422,1.406.938a14.676,14.676,0,0,0,1.079,1.5h0Zm-17.579,2.3q0.938,0.563-.562.563h-0.985a0.9,0.9,0,0,1-1.124-.891q0.093-.844,1.453-0.844t0.89,0.469q-0.329.422,0.328,0.7h0Zm6.422,0.563c-0.312,0-.438-0.078-0.375-0.234q0.141-.187-0.89-0.8-1.125-.7.609-0.7,1.359,0,1.266.891Q339.75,95.2,339.281,95.2Zm-1.547,4.266a15.264,15.264,0,0,1-2.906-.469q-0.236-.281.8-0.281h2.813q1.077,0,.7.469a2.229,2.229,0,0,1-1.407.281h0Zm13.078,15.984q-1.359,1.172.516,2.063a58.8,58.8,0,0,0,8.86,3.328,1.879,1.879,0,0,0,2.25-1.078l1.124-2.016q0.75-1.454-.984-1.734a63.732,63.732,0,0,1-7.875-2.2,2.848,2.848,0,0,0-2.812.75Zm-27.374,1.125q-1.407.188-.61,1.641l0.984,1.781a2.013,2.013,0,0,0,2.25,1.125,76.361,76.361,0,0,0,10.969-3.094q1.5-.516-0.281-1.968l-0.938-.75a3.248,3.248,0,0,0-3.046-.563,78.8,78.8,0,0,1-9.328,1.828h0Z"/>
</svg>
