<svg xmlns="http://www.w3.org/2000/svg" width="400" height="200" viewBox="0 0 400 200">
  <defs>
    <style>
      .cls-1 {
        fill: #fdfdfd;
        fill-rule: evenodd;
      }
    </style>
  </defs>
  <path id="全字庫說文解字" class="cls-1" d="M73.3,90.789a33.852,33.852,0,0,1,5.625,5.25l-0.187.563A1.435,1.435,0,0,1,77.8,97.82q-0.223.07-.434,0.117a2.668,2.668,0,0,1-.785.023q-1.266-.129-3-2.3a12.282,12.282,0,0,0-2.437-2.484,7.811,7.811,0,0,0-1.687-1.922q-0.07-.07-0.492-0.469a19.41,19.41,0,0,1-1.9-1.969,1.94,1.94,0,0,1-.891-0.8,3.742,3.742,0,0,0-.34-0.4,0.84,0.84,0,0,0-.785-0.3A6.7,6.7,0,0,0,63.926,86.1a6.027,6.027,0,0,1-1.5-1.641A3.308,3.308,0,0,1,61.3,83.57a15.677,15.677,0,0,1-1.406-2.062,2.786,2.786,0,0,0-1.406.656q-0.094.082-.2,0.164a14.556,14.556,0,0,1-1.16.914v0.047a0.724,0.724,0,0,1-.469.75,2.347,2.347,0,0,0-.984.7,11.245,11.245,0,0,1-1.687,1.5,8.413,8.413,0,0,0-2.156,2.3,12.377,12.377,0,0,0-3,2.625,11.535,11.535,0,0,1-3,2.813l-0.187.375-0.469,1.641a1.546,1.546,0,0,1-.3.7,1,1,0,0,1-1.2.188,4.633,4.633,0,0,1-.7.422,12.153,12.153,0,0,1-2.3.375,1.467,1.467,0,0,1-.422-0.609,1.285,1.285,0,0,1-.094-0.34A1.579,1.579,0,0,1,40.3,95.9q0.563-.656,1.219-1.312l8.016-7.922a0.969,0.969,0,0,0,.938-0.562l0.281-.8A12.711,12.711,0,0,0,53.8,82.211,42.55,42.55,0,0,1,56.754,78.6a1.887,1.887,0,0,1,.328-0.562l0.563-.609a2.652,2.652,0,0,1,1.828-.562A9.968,9.968,0,0,1,61.16,78.6a23.983,23.983,0,0,0,1.969,2.484,3.27,3.27,0,0,1,1.266,1.359,6.36,6.36,0,0,0,1.313,1.641,0.287,0.287,0,0,0,.07.035,6.662,6.662,0,0,1,1.336,1.465,2.71,2.71,0,0,0,1.734,1.359A49.829,49.829,0,0,0,73.3,90.789h0Zm0.75,28.969a1.982,1.982,0,0,1,.375.515,1.8,1.8,0,0,1,.141,1.219,14.4,14.4,0,0,1-3.609.516q-4,.141-4.687.281a7,7,0,0,1-2.437-.937,17.092,17.092,0,0,1-3.234.562l-8.062.375a2.613,2.613,0,0,1-.7.234,7.631,7.631,0,0,1-1.781.094q-0.176,0-.352-0.012a11.15,11.15,0,0,0-3.164.247,4.042,4.042,0,0,1-2.016-1.36L44.5,121.34a1.273,1.273,0,0,1,.82-1.348q1.594-.093,2.859-0.094,6.234,0,6.8-.046l0.258,0.07a3.576,3.576,0,0,0,1.664-.211l0.375-.516v-0.011l0.047-.364,0.234-6.328V112.48l-0.047-.316a1.025,1.025,0,0,0-.316-0.527,1.784,1.784,0,0,0-1.324-.317c-0.187.016-.363,0.028-0.527,0.035a3.286,3.286,0,0,1-1.723-.222,1.207,1.207,0,0,1-.164.035l-1.1.1q-3.844.352-4.172,0.422-2.742-.28-3.562-1.64a1.935,1.935,0,0,0,.563-0.563,4.664,4.664,0,0,1,.551-0.551,1.325,1.325,0,0,1,.949-0.386l1.125,0.187,2.063-.047,0.914-.07a7.324,7.324,0,0,1,3.211.352,3.768,3.768,0,0,1,1.734-.375,1.423,1.423,0,0,0,1.547-.985v-1.805a37.4,37.4,0,0,0-.141-4.476l0.047-.563q0.047-.127.082-0.246a0.574,0.574,0,0,0-.27-0.691,5.927,5.927,0,0,0-.891-0.187,12.061,12.061,0,0,0-2.2-.094q-0.211,0-.4.012a11.471,11.471,0,0,1-3.82-.387,1.572,1.572,0,0,1-.4.258,1.545,1.545,0,0,1-.961.117l-2.062-.8a0.966,0.966,0,0,1-.281-0.375,1.027,1.027,0,0,1-.035-0.129,1.542,1.542,0,0,1,.176-0.856,7.536,7.536,0,0,1,1.23-.258,18.708,18.708,0,0,1,3.41-.023q0.5,0.035.949,0.047A9.83,9.83,0,0,0,55.77,96.7q0.938-.047,3.188-0.047,6.469,0,7.969-.187l0.422-.141,2.2,0.141a1.617,1.617,0,0,1,.188-0.035,1.49,1.49,0,0,1,.891.176l1.453,0.938a0.375,0.375,0,0,1,.07.164,0.321,0.321,0,0,1-.023.211l-0.7.984a3.647,3.647,0,0,1-.586.188,5.5,5.5,0,0,1-1.477.094q-0.527-.012-0.9-0.023a6.877,6.877,0,0,0-2.051.164,1.276,1.276,0,0,0-.469-0.234l-1.594.094H63.961a7.53,7.53,0,0,1-3.41-.7L60.41,98.9a26.419,26.419,0,0,0-.141,3v0.34a18.479,18.479,0,0,1-.375,4.817,1.533,1.533,0,0,0,.094.468,1.246,1.246,0,0,0,.457.61,2.458,2.458,0,0,0,1.746.281q0.679-.093,1.184-0.141a4.974,4.974,0,0,1,1.394,0q0.141,0,.293.012a9.849,9.849,0,0,0,2.848-.246l0.656,0.234,1.594,0.047h0.094q1.758-.046,2.25.938a2.627,2.627,0,0,1-1.078,1.594,4.71,4.71,0,0,1-.937-0.047c-0.086-.016-0.164-0.028-0.234-0.035a1.241,1.241,0,0,0-1.406.5,0.217,0.217,0,0,0-.07.012,8.277,8.277,0,0,1-1.945-.246q-0.727-.141-1.324-0.2a3.391,3.391,0,0,0-1.582.152,1.274,1.274,0,0,1-.3.024,17.181,17.181,0,0,1-1.8-.071,0.73,0.73,0,0,1-.129-0.011,1.745,1.745,0,0,0-2.074,1.324l0.188,1.359q0.152,1.09.234,2.121a28.145,28.145,0,0,1,.094,3.176,1.981,1.981,0,0,0,.41.258l0.434,0.164a5.644,5.644,0,0,0,2.391-.047A11.742,11.742,0,0,1,64.7,119.1a4.036,4.036,0,0,1,1.852.187l0.07-.059,0.246-.105a1.742,1.742,0,0,1,1,.07,4.148,4.148,0,0,0,.551.106,0.955,0.955,0,0,0,.949-0.293l0.938,0.234,2.906-.047a2.657,2.657,0,0,1,.844.563h0Zm46.511-4.91a0.809,0.809,0,0,1-.093.832,5.249,5.249,0,0,0-.223.527,1.053,1.053,0,0,0-.058.691l-0.071-.023a1.463,1.463,0,0,0-1.2.633,1.3,1.3,0,0,1-.422.328,0.582,0.582,0,0,1-.75-0.234,0.422,0.422,0,0,1,.047-0.188l0.375-.187a0.591,0.591,0,0,0,.516-0.563v-0.047l0.187-6.422v-0.843c-0.063-.391-0.105-0.731-0.129-1.02a2.548,2.548,0,0,1,.129-1.23l-0.094-.047v-0.328a3.092,3.092,0,0,0,.141-0.539,0.488,0.488,0,0,0-.047-0.4,2.492,2.492,0,0,0,.047-0.316,1.926,1.926,0,0,0-.188-1c-0.007-.024-0.015-0.047-0.023-0.071l-0.176-.586a1,1,0,0,1,.153-0.937,16.234,16.234,0,0,1-.094-2.016q-0.012-.187-0.012-0.387a29.121,29.121,0,0,1,.106-3.175,0.163,0.163,0,0,1-.047-0.035l-0.094-.2-0.047-.609a1.764,1.764,0,0,0,.012-0.2,1.607,1.607,0,0,0-.153-0.973l0.329-.562h-0.141l-0.188-.609V93.789l-0.234-1.312a12.845,12.845,0,0,1-.7-2.766q-0.117-1.02-.141-1.277t0-.035a3.958,3.958,0,0,0-1.687-3.141,1.972,1.972,0,0,1-.328.094l-1.032-.375a4.545,4.545,0,0,1-.562.07,12.244,12.244,0,0,1-1.266-.023c-0.219-.023-0.429-0.039-0.633-0.047a5.079,5.079,0,0,0-2.461.281,0.436,0.436,0,0,1-.093.035,0.536,0.536,0,0,1-.469-0.129,0.949,0.949,0,0,0-.281-0.141,0.4,0.4,0,0,0-.328.047l-0.188-.516a1.212,1.212,0,0,0-.211.27,0.281,0.281,0,0,0-.023.246,5.033,5.033,0,0,1-.75.152,13.941,13.941,0,0,1-1.969.035q-0.187-.012-0.375-0.012a8.659,8.659,0,0,0-3.656.434h-0.75q-2.766-.047-3.7,1.031a11.471,11.471,0,0,1-2.391,1.125q0.023,0.164.035,0.352a4.66,4.66,0,0,1-.035.727l-0.609,3.047-0.094-.187q-0.235,0-.234.516a0.391,0.391,0,0,1,.281.082,0.636,0.636,0,0,1-.047.621l-0.234.234a1.078,1.078,0,0,1,.281.8,5.2,5.2,0,0,0-.07.6,1.051,1.051,0,0,0,.023.434v0.328q-0.047,1.746-.059,3.023a32.764,32.764,0,0,0,.059,3.352A2.639,2.639,0,0,0,93,102.7l-0.023.211a3.042,3.042,0,0,0,.445,1.758,1.988,1.988,0,0,1-.234.984,2.933,2.933,0,0,0-.246.668,1.5,1.5,0,0,0,.059.973,0.394,0.394,0,0,1-.047.2,0.272,0.272,0,0,1-.328.129l-0.141.235a0.8,0.8,0,0,1,.563.75L93,111.32c-0.016.094-.028,0.2-0.035,0.317a7.923,7.923,0,0,0,.035.9v0.234a5.062,5.062,0,0,1-.375,2.672A2.965,2.965,0,0,1,93,117.133a1.391,1.391,0,0,1-1.312.7,0.886,0.886,0,0,1-.082-0.07,1.1,1.1,0,0,1-.258-0.364,2.148,2.148,0,0,1-.129-1.207c0.031-.3.051-0.558,0.058-0.785a2.546,2.546,0,0,0-.105-1.09q0.211-2.109.281-5.343a81.467,81.467,0,0,1,.422-9.094,5.759,5.759,0,0,1-.234-1.875l0.422-3.469a2.359,2.359,0,0,0,.07-0.352,4.7,4.7,0,0,0,.023-1.055q0-.117-0.012-0.234a4.9,4.9,0,0,1,.34-2.3l-0.035-.141a2.1,2.1,0,0,1,.223-1.219q0.2-.4.316-0.691a1.8,1.8,0,0,0,.2-1.043l0.141-.187a4.694,4.694,0,0,1,4.313-2.766,1.2,1.2,0,0,0,.609-0.187,4.889,4.889,0,0,1,.738-0.269,1.439,1.439,0,0,1,.809-0.059,0.761,0.761,0,0,1,.07.164,0.722,0.722,0,0,1-.023.3,0.963,0.963,0,0,0-.106.281,0.3,0.3,0,0,0,.059.281l0.234-.234v-0.8l0.938-.094,0.551-.094a2.907,2.907,0,0,1,1.511,0l0.024,0.023,0.1,0.07a0.553,0.553,0,0,0,.434-0.141,1.43,1.43,0,0,1,.14-0.082l0.4-.164a0.842,0.842,0,0,1,.726.059L105,83.758l0.375-.375,0.187-.7-0.187-.984a3.9,3.9,0,0,1-.129-0.481,1.379,1.379,0,0,1,.316-1.3,0.884,0.884,0,0,1-.058-0.246,1.05,1.05,0,0,1,.058-0.5l0.422,0.328,0.047-.047-0.093-.469a1.2,1.2,0,0,1-.071-0.2c-0.078-.3.071-0.465,0.445-0.5a1.043,1.043,0,0,1,.188.082l0.281,0.176a1.894,1.894,0,0,1,.223.211,2.729,2.729,0,0,1,.387,2.016q-0.024.363-.036,0.691a7.376,7.376,0,0,0,.083,1.934,39.178,39.178,0,0,1,7.734.75,1.486,1.486,0,0,1,.422-0.094,0.223,0.223,0,0,1,.07-0.012,1.287,1.287,0,0,1,.633.106v0.012l0.047,0.176L117,84.555a2.785,2.785,0,0,1,1.219,1.219,4.206,4.206,0,0,1,.363.82,3.591,3.591,0,0,1,.106,1.664,0.665,0.665,0,0,1,.281.656,0.763,0.763,0,0,0,.422.8,6.2,6.2,0,0,0-.059.691,8.861,8.861,0,0,0,.106,1.746c0.085,0.516.156,0.965,0.21,1.348a10.331,10.331,0,0,1,.164,1.981l-0.234.188,0.07,0.035,0.118,0.117a0.931,0.931,0,0,1,.14.691v0.2a0.78,0.78,0,0,0,.422.832,2.989,2.989,0,0,0-.187.563,4.426,4.426,0,0,0-.047,1.453c0.023,0.367.043,0.687,0.058,0.961a3.725,3.725,0,0,1-.152,1.523v0.012l0.141,0.457,0.187,2.344v1.265q-0.024,1.945-.035,3.281-0.012,2.673.035,2.86a1,1,0,0,0-.023.222,1.59,1.59,0,0,0,.07.622,3.072,3.072,0,0,1,.117.562,1.077,1.077,0,0,1-.164.844,1,1,0,0,1,.234.34h0Zm-5.437-14.86a2.23,2.23,0,0,0,.047,1.348,6.7,6.7,0,0,1,.422,1.875v0.012l0.14,0.316a0.129,0.129,0,0,1,.012.059,1.179,1.179,0,0,1-.621.972,1.123,1.123,0,0,0-.328.387,0.779,0.779,0,0,0,.141.832,2.43,2.43,0,0,1-.8,1.172l-1.36,1.266a3.335,3.335,0,0,1-.8.187,9.886,9.886,0,0,0-2.39.563,1.141,1.141,0,0,1-.563.093,1.65,1.65,0,0,0-1.312.422,1.553,1.553,0,0,1-.094.375,19.62,19.62,0,0,1-.937,2.813,23.934,23.934,0,0,1-3.657,7.922l-0.093.046-0.329-.234-0.234.375a1.229,1.229,0,0,0-.375.047,2.409,2.409,0,0,1-.352.059,0.6,0.6,0,0,1-.492-0.106c0.125-.187.266-0.422,0.422-0.7q2.532-4.183,2.86-4.828,0.093-.469.14-0.75l1.406-4.125c-0.093-.016-0.14-0.047-0.14-0.094l-0.047-.8a1.229,1.229,0,0,0-.375-0.047l-3.61-.187q-3.2-.211-4.171-2.156l-0.094-.657a10.959,10.959,0,0,0-.328-2.343,0.3,0.3,0,0,0,.187-0.282,1.369,1.369,0,0,0,.035-0.152,0.939,0.939,0,0,0-.41-0.973l0.094-1.031a2.541,2.541,0,0,1,.844-2.156,0.7,0.7,0,0,1,.516.188q0.035,0.059.422,1.313a3.525,3.525,0,0,0-.07.4,5.582,5.582,0,0,0-.023,1.149q0.07,0.621.094,1.1a4.173,4.173,0,0,1-.141,1.571,0.2,0.2,0,0,0,.141.14l0.375-.328a0.86,0.86,0,0,0-.012.141,2.374,2.374,0,0,0,.762,1.922,3.528,3.528,0,0,1,1.688.609c0.125,0.07.25,0.137,0.375,0.2l0.5,0.188a1.771,1.771,0,0,0,1.324-.059,1.126,1.126,0,0,0,.152.035q1.172,0.2,2.754-1.582a0.135,0.135,0,0,1-.047-0.094l-0.047-1.265v-0.117a2.52,2.52,0,0,0-.609-2.039,1.873,1.873,0,0,0-.656-0.938,2.536,2.536,0,0,0-.2-0.176,6.42,6.42,0,0,1-.832-0.855q-1.219-1.359-1.313-1.453a12.97,12.97,0,0,1-1.477-2.109,6.578,6.578,0,0,1-.914-3.844l0.282-.422,0.656-2.156a11.879,11.879,0,0,1,1.828-1.031,9.507,9.507,0,0,1,1.945-.727,8.15,8.15,0,0,1,3.633-.07,3.311,3.311,0,0,1,1.922.891l2.016,2.2a1.9,1.9,0,0,1,.234.516l0.047,1.922a5.07,5.07,0,0,1-1.547,1.5,7.558,7.558,0,0,1-1.16.563,5.849,5.849,0,0,1-2.637.328,0.826,0.826,0,0,0-.234-0.094,0.133,0.133,0,0,0-.059-0.012,0.393,0.393,0,0,0-.41.293l-0.094.023a2.686,2.686,0,0,1-1.968-.914l-0.047-.094,0.093-.375,0.891-.469h0.023l0.868,0.141,0.328,0.023a4.548,4.548,0,0,0,3.375-.914,0.623,0.623,0,0,0,.328-0.047,0.422,0.422,0,0,0,.281-0.281l0.141-1.172V93.215l0.047-.223a2.252,2.252,0,0,0-.563-1.219,1.824,1.824,0,0,1-.609-0.281,9.617,9.617,0,0,0-1.688-.891l-3,.469q-2.835.492-3.047,2.531a0.525,0.525,0,0,0-.152.176,0.579,0.579,0,0,0-.035.387,3.718,3.718,0,0,1,.187,1.125,8.2,8.2,0,0,1,.61,1.359,2.644,2.644,0,0,0,1.406,1.688,3.868,3.868,0,0,0,1.219,1.828,8.421,8.421,0,0,1,1.594,1.781,1.62,1.62,0,0,1,.562.563,3.327,3.327,0,0,0,.375.89,11.409,11.409,0,0,1-.281,1.172,11.563,11.563,0,0,0-.235,1.266,3.987,3.987,0,0,0,.094,1.781l0.422-.047q3.82-.351,4.734-2.531a3.594,3.594,0,0,0,.422-1.031,5.48,5.48,0,0,1,.7-1.969,1.662,1.662,0,0,0,.071-0.246,0.64,0.64,0,0,0-.352-0.785,0.924,0.924,0,0,1-.422-1.125l0.141-.141-0.047-.516a0.7,0.7,0,0,1-.047-0.152,0.393,0.393,0,0,1,.328-0.5,2.368,2.368,0,0,1,1.453.938,1.856,1.856,0,0,0-.234.48h0ZM144.8,85.07a0.557,0.557,0,0,1-.481.117,11.445,11.445,0,0,0-1.324.316,3.87,3.87,0,0,0-2.918,2.508,45.062,45.062,0,0,0-.762,5.191,6.686,6.686,0,0,1,.106,1.125q0,0.2-.082,2.063a6.355,6.355,0,0,0,.352,2.754,13,13,0,0,0-.282,3l0.094,2.742a13,13,0,0,1-.375,4.066,4.07,4.07,0,0,1,.211,1.84q0,0.046-.2,1.547a4.226,4.226,0,0,0,.175,2.273,2.419,2.419,0,0,0-.843,1.688,11.774,11.774,0,0,0,.07,1.957,5.55,5.55,0,0,1-.164,2.3,1.707,1.707,0,0,1-.434.281,1.6,1.6,0,0,1-1.171.094l-0.75-.75q0.035-.434.1-0.926l0.457-2.6a9.126,9.126,0,0,0,0-3.644,1.189,1.189,0,0,0,.492-0.867,4.535,4.535,0,0,0-.117-0.985,1.372,1.372,0,0,1,.188-1.16,9.316,9.316,0,0,0,.339-3.961l-0.468-3.855a10.271,10.271,0,0,1,.5-4.735,2.73,2.73,0,0,1-.411-2.121l0.293-1.383a3.3,3.3,0,0,0-.07-2.062,15.01,15.01,0,0,1,0-1.875,8.355,8.355,0,0,1,1.98-4.816,0.293,0.293,0,0,1,.036-0.07,1.947,1.947,0,0,1,1.371-1.066l1.066-.187a2.836,2.836,0,0,0,1.582-.668h0.563a8.349,8.349,0,0,0,3.879-.75,5.674,5.674,0,0,0,.5-1.758,9.4,9.4,0,0,1,.446-1.887,1.589,1.589,0,0,1,1.875-.973l0.574,0.938a1.4,1.4,0,0,1,.094.984l-0.317.926a1.428,1.428,0,0,0,.223,1.395l0.188,0.141,0.48,0.211a2.055,2.055,0,0,1,.926.586,0.948,0.948,0,0,1,.984-0.328l0.727,0.188a1.321,1.321,0,0,0,1.125-.047l0.246,0.023a16.5,16.5,0,0,0,1.875-.059,4.625,4.625,0,0,1,2.121.223,0.97,0.97,0,0,1,.5.387,0.67,0.67,0,0,1,.07.75,1.2,1.2,0,0,1-.2.234,0.9,0.9,0,0,1-1.125-.047q-0.082.012-3.6,0.34a26.416,26.416,0,0,1-5.836.035,1.042,1.042,0,0,1-.129.035,7.95,7.95,0,0,1-2.273.082,7.107,7.107,0,0,0-2.039.07,1.582,1.582,0,0,0-.457.176h0ZM162.1,109.8a3.163,3.163,0,0,1,.7,1.137,0.486,0.486,0,0,1,0,.257,0.674,0.674,0,0,1-.539.4,1.9,1.9,0,0,0-.692.293,3.867,3.867,0,0,1-.844.164,9.724,9.724,0,0,1-2.109-.129,7.708,7.708,0,0,0-2.426-.035,1.048,1.048,0,0,0-.715-0.246,5.03,5.03,0,0,0-.949.246,1.729,1.729,0,0,1-1.347,0,0.83,0.83,0,0,0-.235.234,1.41,1.41,0,0,0-.1,1,1.359,1.359,0,0,1-.047.844,5.448,5.448,0,0,0,.2,4.43,0.909,0.909,0,0,0-.352.644l-0.011.739a0.788,0.788,0,0,1-.492.785,1.177,1.177,0,0,0-.352-0.047l-0.738.058a0.762,0.762,0,0,1-.8-0.386q0-.562.035-2.379a33.227,33.227,0,0,0-.223-5.356,1.165,1.165,0,0,0-.843-0.539,3.436,3.436,0,0,0-1.313.27,3.405,3.405,0,0,1-1.523.269,1.619,1.619,0,0,0-.27-0.117,4.714,4.714,0,0,0-2.039-.058,7.04,7.04,0,0,1-1.746.082,1.314,1.314,0,0,1-1.137-1.231,2.867,2.867,0,0,1,2.391-.973q0.375,0.012,1.863.223l0.375-.094q0.387-.07,1.84-0.175a5,5,0,0,0,2.215-.586v-0.059l0.082-.82a2.231,2.231,0,0,0-.27-1.571,2.314,2.314,0,0,0-.726-0.211c-0.071-.015-0.414-0.023-1.031-0.023a2.426,2.426,0,0,1-1.547-.516,2.457,2.457,0,0,1-1.758-1.347,16.4,16.4,0,0,1-.879-1.957,7.088,7.088,0,0,1-.141-3.035,5.706,5.706,0,0,1,1.84-3.469l0.117-.07a3.023,3.023,0,0,1,.68-0.269,12.749,12.749,0,0,1,1.512-.176,4.945,4.945,0,0,0,.75-0.105,1.821,1.821,0,0,0,1.371-1.172,9.755,9.755,0,0,0,.375-2.273,0.819,0.819,0,0,1-.188-0.047L149,92.031a2.419,2.419,0,0,0-1.863.035l-0.188-.562a2.33,2.33,0,0,1-.8.668,2.69,2.69,0,0,1-1.84.27,0.236,0.236,0,0,1-.152-0.047l-0.223-.328,0.047-.047a3.283,3.283,0,0,1,1.465-.891l0.375,0.563a1.65,1.65,0,0,1,1.43-.937l1.43-.023a1.583,1.583,0,0,0,1.382-.832l0.024-.187,0.023-1.441a1.226,1.226,0,0,1,.891-1.207,2.3,2.3,0,0,1,1.793.762,0.217,0.217,0,0,1,.011.059l0.059,1.148a1.272,1.272,0,0,0,.879,1.148,2.178,2.178,0,0,0,.387.106,6.482,6.482,0,0,0,2.133-.023,8.119,8.119,0,0,1,2.1-.082,1.225,1.225,0,0,1,.352-0.164,0.923,0.923,0,0,1,1.16.352,1.48,1.48,0,0,1,.187.949,2.683,2.683,0,0,1-1.628.715,14.276,14.276,0,0,1-2.11-.012,6.693,6.693,0,0,0-2.578.234,2.94,2.94,0,0,0,.188.832,1.267,1.267,0,0,1,0,1.055,3.143,3.143,0,0,1-.516.387A0.91,0.91,0,0,0,153,95l0.434,0.2,0.6,0.164a17.941,17.941,0,0,0,2.543.2,10.865,10.865,0,0,1,1.629,1.2,5.428,5.428,0,0,1,2.051,4.558,0.184,0.184,0,0,0-.047.036,0.994,0.994,0,0,0-.305.773,1.185,1.185,0,0,1-.211.7,6.354,6.354,0,0,1-1.324,1.688,10.227,10.227,0,0,1-5.566,2.367l-0.27.809a1.653,1.653,0,0,0,.27,1.828,4.218,4.218,0,0,0,1.207.3l0.738,0.035a15.683,15.683,0,0,0,2.59-.339,4.771,4.771,0,0,0,1.148.187h0.926l2.356-.187a4.017,4.017,0,0,1,.339.281h0Zm-7.488-5.942,1.113-.386a1.451,1.451,0,0,0,.844-1.02l-2.074-.187c-0.031-.031-0.086-0.094-0.164-0.188a0.793,0.793,0,0,0-.586-0.386,2.315,2.315,0,0,0-.68.761,2.949,2.949,0,0,0-.269,1.5l1.324,0.2a2.58,2.58,0,0,1,.492-0.293h0Zm-0.762-6.761a1.989,1.989,0,0,0-.679.6,2.376,2.376,0,0,1-.844.691l0.469,1.793,0.785-.024,1.863,0.024a2.41,2.41,0,0,1,.352-0.164q0.75-.293.82-0.34a0.8,0.8,0,0,0,.34-1.09,7.9,7.9,0,0,1-.762-0.457,4.767,4.767,0,0,0-1.312-.68,1.092,1.092,0,0,0-1.032-.352h0Zm-3.621,7.207-0.035-.258-0.258-.621a0.763,0.763,0,0,1,.129-0.973c-0.367-.054-0.707-0.09-1.019-0.105a4.864,4.864,0,0,0-2.66.48,3.51,3.51,0,0,0,.187,1.125,1.081,1.081,0,0,0,.281.457,1.7,1.7,0,0,0,1.254.34,5.883,5.883,0,0,1,1.207.059q0.879-.095.914-0.5h0Zm-2.812-4.2c0.711,0.165,1.1.254,1.172,0.27a1.592,1.592,0,0,0,1.664-.668l-0.047-.07-0.094-.223-0.035-.3,0.141-.891a0.7,0.7,0,0,0-.528-0.773q-0.093.035-1.406,0.363a4.18,4.18,0,0,0-1.9.961,2.144,2.144,0,0,1-.024.4,1.07,1.07,0,0,0,.211.82,3.207,3.207,0,0,1,.844.117h0Zm70.031-17.156L217.5,82.4l-0.141-1.453q-0.081-.375-0.129-0.715a2.96,2.96,0,0,1,.317-2l0.094-.234a0.7,0.7,0,0,1,.468-0.469l0.657-.047a1.714,1.714,0,0,1,1.312,1.125,5.567,5.567,0,0,1-.187.75,5.418,5.418,0,0,0-.188.867,1.839,1.839,0,0,0,.235,1.289,8.351,8.351,0,0,0,2.25,2.625,16.31,16.31,0,0,1,2.484,2.484c0.015,0.078.027,0.152,0.035,0.223a1.278,1.278,0,0,1-.035.387,4.234,4.234,0,0,1-.8.75,12.436,12.436,0,0,1-6.422-5.016V82.949Zm8.016,38.4-0.61.187a3.319,3.319,0,0,1-.8.258,1.2,1.2,0,0,1-.984-0.164,4.539,4.539,0,0,0-.281-0.469l-0.094-.8q0.047-.446.059-0.773a2.324,2.324,0,0,0-.059-0.867q-0.093-.282-0.141-0.469a4.369,4.369,0,0,0-1.078-2.3,11.956,11.956,0,0,0-3.375-1.078,5.33,5.33,0,0,1-3.468-1.969q-0.094-.843-0.094-1.125l-0.024-.305q-0.164-2.518,1.336-3.539l0.188-.187,0.8-.469,1.781-.516a3.61,3.61,0,0,0,2.484-1.453,5.436,5.436,0,0,0-1.968-2.2,7.158,7.158,0,0,1-2.11-2.3v-0.011l-0.093-.551V100.2a2.026,2.026,0,0,0-.563-1.582h-0.012l-0.316-.094a1.187,1.187,0,0,0-1.219.609,1.69,1.69,0,0,1,.129.469,2.768,2.768,0,0,1-.129,1.125,8.24,8.24,0,0,0-.562,1.968,1.881,1.881,0,0,1-.375.844q-0.118.117-1.594,1.078a2.06,2.06,0,0,0-.715.645,1.993,1.993,0,0,0-.223,1.652,26.6,26.6,0,0,0-.468,5.438,47.054,47.054,0,0,1-.563,7.406,3.114,3.114,0,0,0-.469.656,0.909,0.909,0,0,1-1.125.563,2.613,2.613,0,0,1-.375-0.329l-0.211-.3a2.71,2.71,0,0,1-.164-1.992c0.086-.36.16-0.672,0.223-0.938a4.259,4.259,0,0,0,.152-1.219,4.11,4.11,0,0,1-.093-0.679,8.948,8.948,0,0,1,.093-1.758q0.117-.855.153-1.524a5.682,5.682,0,0,0-.153-2.039v-0.011l0.047-.879a14.756,14.756,0,0,1,.985-5.3,5.443,5.443,0,0,1,.468-0.563l1.594-1.593a3.9,3.9,0,0,0,.774-0.985,2.144,2.144,0,0,0,.07-2.015q-3.141-1.887-3.281-4.453a14.9,14.9,0,0,1-.094-2.016q0-3.844-.047-4.172a1.53,1.53,0,0,0-.211-0.035,8.235,8.235,0,0,0-1.336-.012h-0.082q-1.371.047-1.512-.844l0.141-1.219q0.7-.352.984-0.516,2.321-1.16,2.672-2.484a3.12,3.12,0,0,0,.047-0.656l-0.422-1.969a1.552,1.552,0,0,1-.047-0.258,1.643,1.643,0,0,1,1.079-1.9,1.89,1.89,0,0,1,1.593.938q0.012,0.094.024,0.211,0.117,1.184.117,1.289c0.008,0.133.015,0.266,0.023,0.4q0.165,3.82-1.757,5.742l0.281,0.563a8.068,8.068,0,0,0,.89,1.922,9.933,9.933,0,0,1,1.079-.094c0.265-.016.535-0.027,0.808-0.035a23.993,23.993,0,0,1,4.3.269l0.469-.234a1.1,1.1,0,0,0,.468-0.937,1.53,1.53,0,0,1,.375-1.312,2.68,2.68,0,0,1,2.11,1.594,1.4,1.4,0,0,1,.351.586,2.825,2.825,0,0,1-.023,1.57,7.606,7.606,0,0,0-.246,1.066,2.851,2.851,0,0,0,.058,1.371q-0.023.082-.187,1.5a4.869,4.869,0,0,1-1.641,3.609,1.021,1.021,0,0,1,.164.363,1.719,1.719,0,0,1-.07,1,1.045,1.045,0,0,0-.059.246,0.859,0.859,0,0,0,.481,1.02,2,2,0,0,0,.375.469,11.961,11.961,0,0,0,2.062,1.218,4.868,4.868,0,0,1,.528.34l0.363,0.317a1.906,1.906,0,0,1,.609,1.593,2.342,2.342,0,0,1,.141.457,2.214,2.214,0,0,1,0,.9,0.031,0.031,0,0,1-.012.023l-0.785,1.8a5.783,5.783,0,0,0-1.031.7,2.866,2.866,0,0,1-.738.492,1.272,1.272,0,0,1-1.231-.023,1.45,1.45,0,0,0-1.266-.281q-0.434.093-.761,0.14a1.959,1.959,0,0,1-.879,0,3.731,3.731,0,0,0-.234.8,2.271,2.271,0,0,0-.036.246,4.579,4.579,0,0,0,.129,1.442,0.718,0.718,0,0,0,.141.187,4.764,4.764,0,0,0,3.094,1.313,5.334,5.334,0,0,1,3.093,1.125,13.465,13.465,0,0,1,2.11,7.125h0Zm-7.91-25.793,0.55-.644a5.135,5.135,0,0,0,.645-1.184,2.315,2.315,0,0,0-.129-2.1h-1.453q-0.844,0-1.406-.047-0.915-.07-1.594-0.094a7.377,7.377,0,0,0-2.156.141,0.978,0.978,0,0,0-.8.844l0.047,1.641a1.057,1.057,0,0,0,.328.281,1.366,1.366,0,0,1,.7.656,2.724,2.724,0,0,0,1.453.984,2.234,2.234,0,0,0,.27.035,11.788,11.788,0,0,0,3.527-.5ZM196.266,82.867l-3.141.047a2.521,2.521,0,0,1-2.672-2.2,4.139,4.139,0,0,1,1.313-.656,2.83,2.83,0,0,1,.621-0.094,13.969,13.969,0,0,1,2.144.094,1.7,1.7,0,0,0,.211.012,24.069,24.069,0,0,0,2.836-.152c0.18-.016.359-0.027,0.539-0.035q2.871-.152,4.055.832a1.282,1.282,0,0,1,.14.984,1.175,1.175,0,0,1-.234.434,0.792,0.792,0,0,1-.844.176,5.75,5.75,0,0,1-1.593.281,18.81,18.81,0,0,0-2.86.375,1.64,1.64,0,0,0-.515-0.094h0Zm1.8,15.457a0.27,0.27,0,0,0,.071.246l0.609,0.563a11.638,11.638,0,0,0,2.25.188q2.964,0.141,3.938.985a1.092,1.092,0,0,1-.235.7l-0.937.75a3.109,3.109,0,0,0-.657-0.129,6.1,6.1,0,0,0-1.5.082q-0.7.129-1.254,0.187a4.51,4.51,0,0,1-1.324,0,2.375,2.375,0,0,0-.457.645,3.923,3.923,0,0,0-.293,1.84c0.008,0.109.016,0.215,0.024,0.316a5.117,5.117,0,0,1-.352,2.449,0.4,0.4,0,0,1,.129.258,2.966,2.966,0,0,1-.082,1.008,1.585,1.585,0,0,0-.035.41,0.751,0.751,0,0,0,.785.715,1.564,1.564,0,0,1,.469-0.094,4.769,4.769,0,0,0,1.922-.562l0.187-.985a5.444,5.444,0,0,1,.7-2.2,2.409,2.409,0,0,1,1.828,1.219l-0.093,5.344c0.007,0.047.015,0.09,0.023,0.129a1.674,1.674,0,0,1-.445,1.324,3.9,3.9,0,0,1-.047.7q-0.422,4.207-3.891,5.344a2.259,2.259,0,0,1-1.172,1.453l0.141-.281,0.07-.223a0.511,0.511,0,0,0-.351-0.668,9.343,9.343,0,0,0-2.016-.609,3.11,3.11,0,0,1-2.437-1.735,6.528,6.528,0,0,1-1.875-4.734v-5.813l0.328-.515a1.278,1.278,0,0,1,1.547-.141,1.076,1.076,0,0,1,.562.7,1.969,1.969,0,0,1,.024.305,2.968,2.968,0,0,1-.071.82,0.713,0.713,0,0,1-.094.282c-0.039.054-.074,0.1-0.105,0.152a0.46,0.46,0,0,0-.082.363,3.773,3.773,0,0,0,.5.281,0.953,0.953,0,0,0,.574.141,6.065,6.065,0,0,0,.235-1.219,8.952,8.952,0,0,1,.515-2.625c0.031-.25.055-0.484,0.07-0.7a4.187,4.187,0,0,0-.445-2.578,0.721,0.721,0,0,0,.188-0.141,0.428,0.428,0,0,0,.14-0.164,0.182,0.182,0,0,0-.047-0.211,26.628,26.628,0,0,0-5.39.516,2.928,2.928,0,0,1-2.11-1.594l0.188-.375,0.469-.375,2.25-.562a2.676,2.676,0,0,0,1.453.281q0.234-.012.492-0.035,1.641-.129,1.711-0.106l0.281-.422a2.383,2.383,0,0,0,.387-0.715,1.078,1.078,0,0,0-.106-0.973l0.188-.891c0.031-.18.054-0.347,0.07-0.5a3.4,3.4,0,0,0-.445-2.168q-0.7-.469-0.938-0.609a2.943,2.943,0,0,1-1.547-1.734l-0.187-1.312-0.047-.281q-0.351-1.934-1.312-2.25a4.418,4.418,0,0,1-2.532-1.172V86.43l0.024-.141a0.576,0.576,0,0,1,.539-0.469h0.012l1.019-.094A20.679,20.679,0,0,0,193.5,85.3a1.42,1.42,0,0,0,.422-0.047l9.047-.469a1.907,1.907,0,0,1,1.312,1.172,3.325,3.325,0,0,1-1.593,2.531l-0.469-.234c-0.133-.07-0.246-0.129-0.34-0.176a0.642,0.642,0,0,0-.645-0.105,3.631,3.631,0,0,0-.422,1.688,6.357,6.357,0,0,1-.609,2.625,3.791,3.791,0,0,0-1.828,2.156,6.8,6.8,0,0,0-.281,1.148,9.056,9.056,0,0,0,0,2.6,0.4,0.4,0,0,0-.024.129h0Zm1.242,13.559a4.779,4.779,0,0,0-2.906.8c-0.3.133-.468,0.211-0.515,0.234a3.255,3.255,0,0,1-.645.281,0.713,0.713,0,0,1-.949-0.375,1.129,1.129,0,0,0-.129.328,1.26,1.26,0,0,0,.6,1.36,7.066,7.066,0,0,1,1.218,1.031,2.377,2.377,0,0,0,1.512,1.723,1.372,1.372,0,0,0,1.02-.223,1.809,1.809,0,0,1,.422-0.258,0.65,0.65,0,0,1,.609-0.023,6.394,6.394,0,0,0,1.219-1.594,3.969,3.969,0,0,0,.3-0.9,7.266,7.266,0,0,0,.164-2l-0.656-.516c-0.227.039-.648,0.086-1.266,0.141h0Zm-0.8-21.422,0.046-.7a0.906,0.906,0,0,1,.012-0.152,8.593,8.593,0,0,0-.2-2.191h-0.891q-2.883.07-2.953,1.734a3.156,3.156,0,0,0,1.36,2.484,3.7,3.7,0,0,0,2.625-1.172h0ZM267.8,91.773l0.469,0.234a6.289,6.289,0,0,1,1.546,2.25,1.719,1.719,0,0,1-1.078,1.5,6.012,6.012,0,0,1-3.562-1.547q-2.2-1.723-2.719-2.016l-3.281-2.344a15.8,15.8,0,0,1-2.2,1.875,7.2,7.2,0,0,0-2.578,2.906l1.734,1.172q3.222,2.215,3.563,4.593a1.518,1.518,0,0,1,.515.8,8.222,8.222,0,0,0,.469,1.407,11.607,11.607,0,0,1,.937,1.875l1.5,5.484a1.434,1.434,0,0,0,.047.422q0.083,0.8.106,1.394a4.443,4.443,0,0,1-.012.9,0.362,0.362,0,0,0,.047.14l1.312,6.7a2.359,2.359,0,0,0-.375.7,1.944,1.944,0,0,1-.984,1.218h-0.012l-0.269-.047a2.288,2.288,0,0,1-.938-0.093,14.918,14.918,0,0,1-.89-4.594,24.181,24.181,0,0,0-.891-5.766,71.738,71.738,0,0,0-2.344-8.531,0.654,0.654,0,0,0,.047-0.281q-0.07-1.921-2.344-3.7-2.109-1.734-2.343-2.016a1.087,1.087,0,0,0-.27-0.082,2.152,2.152,0,0,0-1.934.832,7.261,7.261,0,0,1-1.359,1.172,4.94,4.94,0,0,1-1.125,1.453,3.38,3.38,0,0,0-1.312,2.25,0.184,0.184,0,0,1-.036.047l-0.808,1.359a13.683,13.683,0,0,1-2.86,4.032,2.567,2.567,0,0,1-.14,1.406,2.8,2.8,0,0,0-.129.422,1.336,1.336,0,0,0,.269,1.218,4.875,4.875,0,0,0-2.2,3.235,18.016,18.016,0,0,1-.937,3.187l0.047,0.891a1.675,1.675,0,0,1,.011.187,3.651,3.651,0,0,1-1.042,3.047,0.69,0.69,0,0,0-.2-0.07,1.966,1.966,0,0,0-.5.023h-0.082a0.793,0.793,0,0,1-.949-0.515l-0.07-.469a9.873,9.873,0,0,1,.258-2.953l0.75-3.844a3.124,3.124,0,0,0,.562-1.312,4.279,4.279,0,0,1,.656-1.969,15.769,15.769,0,0,1,1.688-4.172l0.023-.047a40.525,40.525,0,0,0,2.414-4.828,6.681,6.681,0,0,0,1.407-1.687,15.8,15.8,0,0,1,1.734-2.531l-0.141-.141v-0.7l0.469-.094a2.182,2.182,0,0,0,1.172-.281V95.418a0.963,0.963,0,0,0-.891-1.066q-0.984-.223-1.453-0.375l-2.109-.891a7.2,7.2,0,0,0-1.453-.457,2.84,2.84,0,0,0-2.719.644,1.61,1.61,0,0,0-1.219.844,6.941,6.941,0,0,1-.609.586A1.693,1.693,0,0,1,237,95.2q-0.3.2-1.641,1.406a6.7,6.7,0,0,1-1.265.891,3.041,3.041,0,0,1-2.3.422l-0.7-.937a5.127,5.127,0,0,1,1.734-1.781,12.537,12.537,0,0,0,2.25-1.781q0.375-.328.938-0.75a48.581,48.581,0,0,1,5.343-3.891c0.032-.023.067-0.047,0.106-0.07a17.725,17.725,0,0,0,1.488-1.477,5.212,5.212,0,0,1,2.672-2.016V85.164l0.516-.656,0.937-.609a2.221,2.221,0,0,0,1.266-1.453l0.047-.094,0.234-.75-0.234-2.625V78.836l0.07-.375,0.129-.269a1.44,1.44,0,0,1,1.394-.527l1.36,1.406a1.183,1.183,0,0,1,.211.434,3.55,3.55,0,0,1,.023,1.488,1.133,1.133,0,0,0-.012.164,1.636,1.636,0,0,0,.762,1.711l1.922,1.219,4.594,2.438a61.547,61.547,0,0,1,8.953,5.25h0Zm-16.172.8,1.406-1.359a10.746,10.746,0,0,0,2.578-2.859,5.265,5.265,0,0,0-1.687-1.266c-0.117-.054-0.231-0.109-0.34-0.164l-1.957-1.008a3.014,3.014,0,0,0-.5-0.094,2.753,2.753,0,0,0-1,.094,19.862,19.862,0,0,0-2.344.938,4.977,4.977,0,0,1-1.593,1.547,4.593,4.593,0,0,0-1.688,1.875,0.968,0.968,0,0,0,.281.234,6.7,6.7,0,0,0,1.641.7,14.6,14.6,0,0,1,1.875.8l0.258,0.141a6.806,6.806,0,0,0,1.078.457,3.126,3.126,0,0,0,1.851.105,0.3,0.3,0,0,0,.141-0.141h0Zm45.961-1.184a1.045,1.045,0,0,1-.785-1.066,0.646,0.646,0,0,1-.024-0.293,0.83,0.83,0,0,1,.528-0.516,2.845,2.845,0,0,0,.621-0.363,10.819,10.819,0,0,1,1.793-1.711l1.172-.856q1.7-1.2,2.332-1.746V84.461l-1.875-1.922-0.317-1.547a4.21,4.21,0,0,1,.129-2.437,1.1,1.1,0,0,1,.211-0.258l0.258-.164A1.467,1.467,0,0,1,302.9,78.1a1.047,1.047,0,0,1,.7,1.066,1.077,1.077,0,0,0-.176,1.113,5.849,5.849,0,0,0,.539.785,1.5,1.5,0,0,1,.387,1.1,4.552,4.552,0,0,0,1.91,1.078l1.324,0.34a6.816,6.816,0,0,1,2.25.879,0.341,0.341,0,0,0,.082.012l0.445,0.129a4.25,4.25,0,0,1,1.957,1.922,3.364,3.364,0,0,1-.07,1.84A9.315,9.315,0,0,1,309.27,92.2q-1.945,1.313-1.758,1.2a8.608,8.608,0,0,1-3.539,1.477l-0.235-.258a0.932,0.932,0,0,1-.328-0.914c0.016-.039.035-0.082,0.059-0.129l0.281-.492a5.032,5.032,0,0,1,.844-0.949l0.562-.434,1.875-1.2,0.516-.41a3.336,3.336,0,0,0,1.16-2.625l-0.035-.129a1.4,1.4,0,0,0-.656-0.656l-1.184-.527a11.38,11.38,0,0,0-1.77.8,26.887,26.887,0,0,0-3.269,2.262,36.185,36.185,0,0,1-3.117,2.238,2.031,2.031,0,0,1-1.09-.059h0Zm12.867,14.929,2.133,0.036q2.859,0.129,2.59.609a2.861,2.861,0,0,1-1.488,1.254,8.051,8.051,0,0,1-2.895.281q-1.911-.07-2.461-0.035c-0.016,0-.07,0-0.164-0.012q-0.774-.046-0.773.574a2.061,2.061,0,0,1-.036.364l-0.246,1.008a1.341,1.341,0,0,0,.282,1.3q-0.07.8-.047,2.953a15.894,15.894,0,0,1-.328,3.844,0.555,0.555,0,0,1-.094.539,1.473,1.473,0,0,1-.656.586,1.667,1.667,0,0,0-.633.235,0.681,0.681,0,0,1-.727,0,4.882,4.882,0,0,1-.8-2.344,19.131,19.131,0,0,1,.106-2.672,11.406,11.406,0,0,0-.059-3.141,5.893,5.893,0,0,1-.035-0.984l-0.023-.727a1.389,1.389,0,0,0-1.067-1.336,1.3,1.3,0,0,1-.234.071,2.544,2.544,0,0,1-1.348-.27,3.716,3.716,0,0,0-1.23-.363l-1.946.4a2.038,2.038,0,0,1-2.039-.4,0.216,0.216,0,0,0-.234-0.059,0.23,0.23,0,0,0-.141.246,16.076,16.076,0,0,0,.129,1.735q0.246,2.145.246,2.812c0.016,0.118.043,0.391,0.082,0.821a29.331,29.331,0,0,0,.856,5.226,2.878,2.878,0,0,1-.082.668,2.11,2.11,0,0,1-1.043,1.442,1.313,1.313,0,0,1-.4.117,1.181,1.181,0,0,1-.726-0.117,10.841,10.841,0,0,1-1.172-6.047q-0.224-.353-0.492-0.715-0.552-.738-2.028-2.32a16.308,16.308,0,0,1-2.027-2.5,1.147,1.147,0,0,0-.434-0.269,1.046,1.046,0,0,0-.691.082q-0.808.726-1.863,1.605-2.356,1.923-2.871,2.379a21.975,21.975,0,0,0-.528,3.094q-0.3,2.7-.41,3.328-0.141.153-.246,0.246a2.163,2.163,0,0,1-1.816.926,3.849,3.849,0,0,1-.868-2.156,10.613,10.613,0,0,1,.375-3.246,24.614,24.614,0,0,0,.493-2.567q0.046-.75.082-1.816,0.093-3.317.152-4.09l0.141-1.277a4.716,4.716,0,0,0-.375-2.66,4.973,4.973,0,0,0,.562-2.192v-2.5q0.024-.562.129-1.441a25.076,25.076,0,0,0,.246-2.543,3.422,3.422,0,0,1,1.172-.867,8.6,8.6,0,0,1,2.379-.562,10.317,10.317,0,0,0,2.309-.492,4.173,4.173,0,0,0,.562-0.914l0.727-1.863a3.43,3.43,0,0,1,1.57-1.77,1.29,1.29,0,0,1,.223-0.258l0.539-.41a1.779,1.779,0,0,0,.738-1.02l-0.07-.023a6.65,6.65,0,0,1-1.1-.738,3.5,3.5,0,0,0-1.5-.738q-1.125.6-3.4,1.688-3.774,1.8-5.461,2.813c-0.04-.015-0.086-0.035-0.141-0.059q-0.82-.34-0.891-0.387a0.957,0.957,0,0,1-.515-1.242,1.03,1.03,0,0,1,.07-0.387,1.4,1.4,0,0,1,.633-0.609,2.02,2.02,0,0,0,.656-0.5q0.2-.035.4-0.082A11.509,11.509,0,0,0,283.3,84.52q1.734-1.02,2.156-1.23l0.375-.562a1.137,1.137,0,0,1-.234-0.082,0.364,0.364,0,0,1-.2-0.375,0.594,0.594,0,0,0-.128-0.48c-0.2-.2-0.383-0.387-0.54-0.551a3.7,3.7,0,0,1-1.195-2.871,1.313,1.313,0,0,1,.785-0.387l0.95,0.012a2.621,2.621,0,0,1,.855.844,10.219,10.219,0,0,0,.832,1.078l2.438,2.438,0.046,0.023a7.934,7.934,0,0,1,1.2.715,2.674,2.674,0,0,0,1.429.574l0.4,0.352,1.265,0.891a2.164,2.164,0,0,1,.961,1.43,5.905,5.905,0,0,1-1.441,2.285l-1.359,1.348a7.361,7.361,0,0,0-1.7,2.414,2.674,2.674,0,0,0,1.079.727l1.769,0.586a2.417,2.417,0,0,1,1.465,1.359,10.274,10.274,0,0,1,.668,2.5,20.7,20.7,0,0,1,.176,3.457q-0.036.551,0.011,2.285,0.107,3.328.5,3.1a2.246,2.246,0,0,1,1.09-.281q0.222,0,1.289.141a2.332,2.332,0,0,0,1.559-.235,1.66,1.66,0,0,1,.82-0.2l1.336,0.047a2.358,2.358,0,0,0,1.781-.457,1.454,1.454,0,0,0,.117-0.164,2.413,2.413,0,0,0,.211-1.477,1.251,1.251,0,0,0-.656-1.171,9.979,9.979,0,0,1-2.812-1.454,4.835,4.835,0,0,1-2.3-3.843,6.287,6.287,0,0,0,0-.68l0.058-.469a0.883,0.883,0,0,1,1.161-.586,1.508,1.508,0,0,1,.632.258A3.174,3.174,0,0,1,301,97.188a6.751,6.751,0,0,0,.586,1.242c0.1,0.141.219,0.313,0.352,0.516a3.834,3.834,0,0,0,.691.9,2.34,2.34,0,0,0,1.582.316,2.892,2.892,0,0,1,.023-0.34q0.082-1.336.071-1.629a4.381,4.381,0,0,0-.129-0.727,4.478,4.478,0,0,1-.2-1.289,1.1,1.1,0,0,1,1.359-.644l0.75,0.269a3.214,3.214,0,0,1,.691,1.582l0.2,1.84q0.188,1.1.6,1.1,0.728,0,2.262-3.6,0.75-1.793.8-1.863a0.747,0.747,0,0,1,1.078-.105l0.8,0.668,0.1,0.2a1.219,1.219,0,0,1,.082,1.3,0.822,0.822,0,0,0-.3.457,7,7,0,0,0-.106.949,1.678,1.678,0,0,1-.527,1.266,1.95,1.95,0,0,1,.058.867,2.885,2.885,0,0,1-1.746,1.758H310.02a2.069,2.069,0,0,1-.961.082,2.7,2.7,0,0,0-1.055.058,3.475,3.475,0,0,0-.363.141,0.617,0.617,0,0,0-.434.457l0.047,0.9q-0.071,1.828-.047,2.531c0.094-.015.437-0.031,1.031-0.046q1.1-.036,2.215-0.036h0Zm-26.6-8.25q-0.012.094-.247,1.242a3.044,3.044,0,0,0,.118,1.98l0.023-.023,0.481-.375a0.925,0.925,0,0,0,.433-0.727A4.924,4.924,0,0,0,286.078,99a4.166,4.166,0,0,0,.879-3.574,0.967,0.967,0,0,0-.82-0.41l-0.867.035a3.192,3.192,0,0,1-.27.281l-0.7.563a1.378,1.378,0,0,0-.574,1.031,2.149,2.149,0,0,1,.129,1.137h0Zm8.25,10.1q0.889-.458.152-2.262a10.578,10.578,0,0,0-1.875-2.941,3.078,3.078,0,0,0-1.734-1.3,3.322,3.322,0,0,0-1.5.375,4.788,4.788,0,0,1-1.454,1.149q-1.113.656-1.382,0.867a2.149,2.149,0,0,0-.961,1.968,1.637,1.637,0,0,1,.2,1.172l-0.258.9a1.414,1.414,0,0,0,.246,1.3,0.048,0.048,0,0,0,.047.024l0.152-.059a11.148,11.148,0,0,0,1.993-1.828,5.7,5.7,0,0,0,1.418-1.887,4.175,4.175,0,0,1,.023-0.468,3.372,3.372,0,0,1,.539-1.266l0.2-.047a3.476,3.476,0,0,1,1.489.235c0.015,0.007.035,0.015,0.058,0.023a2.369,2.369,0,0,1,.633,1.395q0.351,1.43.48,1.769,0.493,1.254,1.407.938Zm0.4-8.25a7.972,7.972,0,0,0,.129-2.8c-0.024-.031-0.047-0.062-0.07-0.094l-0.7-1.219a1.249,1.249,0,0,0-1.289-.75,1.167,1.167,0,0,0-.714.984,3.767,3.767,0,0,0,.492,1.559,6.317,6.317,0,0,1,.6,1.582,2.456,2.456,0,0,0,.364.621,1.093,1.093,0,0,1,.2.926,0.589,0.589,0,0,0,.305.281,0.421,0.421,0,0,0,.445-0.094q0.151-.551.246-1h0Zm68.062,14.93a0.809,0.809,0,0,1-.093.832,5.249,5.249,0,0,0-.223.527,1.053,1.053,0,0,0-.058.691l-0.071-.023a1.463,1.463,0,0,0-1.195.633,1.3,1.3,0,0,1-.422.328,0.582,0.582,0,0,1-.75-0.234,0.422,0.422,0,0,1,.047-0.188l0.375-.187a0.591,0.591,0,0,0,.516-0.563v-0.047l0.187-6.422v-0.843c-0.063-.391-0.105-0.731-0.129-1.02a2.548,2.548,0,0,1,.129-1.23l-0.094-.047v-0.328a3.092,3.092,0,0,0,.141-0.539,0.488,0.488,0,0,0-.047-0.4,2.492,2.492,0,0,0,.047-0.316,1.926,1.926,0,0,0-.188-1c-0.007-.024-0.015-0.047-0.023-0.071l-0.176-.586a1,1,0,0,1,.153-0.937,16.234,16.234,0,0,1-.094-2.016q-0.012-.187-0.012-0.387a29.121,29.121,0,0,1,.106-3.175,0.163,0.163,0,0,1-.047-0.035l-0.094-.2-0.047-.609a1.764,1.764,0,0,0,.012-0.2,1.607,1.607,0,0,0-.153-0.973l0.329-.562h-0.141l-0.188-.609V93.789l-0.234-1.312a12.845,12.845,0,0,1-.7-2.766q-0.117-1.02-.141-1.277t0-.035a3.958,3.958,0,0,0-1.687-3.141,1.972,1.972,0,0,1-.328.094l-1.032-.375a4.545,4.545,0,0,1-.562.07,12.244,12.244,0,0,1-1.266-.023c-0.219-.023-0.429-0.039-0.633-0.047a5.079,5.079,0,0,0-2.461.281,0.436,0.436,0,0,1-.093.035,0.536,0.536,0,0,1-.469-0.129,0.949,0.949,0,0,0-.281-0.141,0.4,0.4,0,0,0-.328.047l-0.188-.516a1.212,1.212,0,0,0-.211.27,0.281,0.281,0,0,0-.023.246,5.033,5.033,0,0,1-.75.152,13.941,13.941,0,0,1-1.969.035q-0.187-.012-0.375-0.012a8.659,8.659,0,0,0-3.656.434h-0.75q-2.766-.047-3.7,1.031a11.473,11.473,0,0,1-2.391,1.125c0.016,0.11.027,0.227,0.035,0.352a4.623,4.623,0,0,1-.035.727l-0.609,3.047-0.094-.187q-0.234,0-.234.516a0.392,0.392,0,0,1,.281.082,0.638,0.638,0,0,1-.047.621l-0.234.234a1.08,1.08,0,0,1,.281.8,5.329,5.329,0,0,0-.071.6,1.066,1.066,0,0,0,.024.434v0.328q-0.047,1.746-.059,3.023a32.752,32.752,0,0,0,.059,3.352,2.648,2.648,0,0,0-.422.937c-0.008.071-.016,0.141-0.023,0.211a3.04,3.04,0,0,0,.445,1.758,1.993,1.993,0,0,1-.234.984,2.905,2.905,0,0,0-.247.668,1.5,1.5,0,0,0,.059.973,0.4,0.4,0,0,1-.047.2,0.272,0.272,0,0,1-.328.129l-0.141.235a0.8,0.8,0,0,1,.563.75L333,111.32c-0.016.094-.027,0.2-0.035,0.317a7.939,7.939,0,0,0,.035.9v0.234a5.065,5.065,0,0,1-.375,2.672,2.964,2.964,0,0,1,.375,1.688,1.391,1.391,0,0,1-1.312.7,0.893,0.893,0,0,1-.083-0.07,1.1,1.1,0,0,1-.257-0.364,2.141,2.141,0,0,1-.129-1.207c0.031-.3.05-0.558,0.058-0.785a2.535,2.535,0,0,0-.1-1.09q0.21-2.109.281-5.343a81.586,81.586,0,0,1,.422-9.094,5.772,5.772,0,0,1-.234-1.875l0.421-3.469a2.284,2.284,0,0,0,.071-0.352,4.706,4.706,0,0,0,.023-1.055c0-.078,0-0.156-0.011-0.234a4.9,4.9,0,0,1,.339-2.3l-0.035-.141a2.1,2.1,0,0,1,.223-1.219q0.2-.4.316-0.691a1.8,1.8,0,0,0,.2-1.043l0.14-.187a4.7,4.7,0,0,1,4.313-2.766,1.2,1.2,0,0,0,.609-0.187,4.879,4.879,0,0,1,.738-0.269,1.441,1.441,0,0,1,.809-0.059,0.775,0.775,0,0,1,.07.164,0.715,0.715,0,0,1-.023.3,0.974,0.974,0,0,0-.106.281,0.3,0.3,0,0,0,.059.281l0.234-.234v-0.8l0.938-.094,0.551-.094a2.907,2.907,0,0,1,1.511,0l0.024,0.023,0.105,0.07a0.553,0.553,0,0,0,.434-0.141,1.43,1.43,0,0,1,.14-0.082l0.4-.164a0.842,0.842,0,0,1,.726.059L345,83.758l0.375-.375,0.187-.7-0.187-.984a3.9,3.9,0,0,1-.129-0.481,1.379,1.379,0,0,1,.316-1.3,0.884,0.884,0,0,1-.058-0.246,1.05,1.05,0,0,1,.058-0.5l0.422,0.328,0.047-.047-0.093-.469a1.2,1.2,0,0,1-.071-0.2c-0.078-.3.071-0.465,0.445-0.5a1.043,1.043,0,0,1,.188.082l0.281,0.176a1.894,1.894,0,0,1,.223.211,2.729,2.729,0,0,1,.387,2.016q-0.024.363-.036,0.691a7.376,7.376,0,0,0,.083,1.934,39.178,39.178,0,0,1,7.734.75,1.486,1.486,0,0,1,.422-0.094,0.223,0.223,0,0,1,.07-0.012,1.287,1.287,0,0,1,.633.106v0.012l0.047,0.176L357,84.555a2.785,2.785,0,0,1,1.219,1.219,4.206,4.206,0,0,1,.363.82,3.591,3.591,0,0,1,.106,1.664,0.665,0.665,0,0,1,.281.656,0.763,0.763,0,0,0,.422.8,6.2,6.2,0,0,0-.059.691,8.861,8.861,0,0,0,.106,1.746c0.085,0.516.156,0.965,0.21,1.348a10.331,10.331,0,0,1,.164,1.981l-0.234.188,0.07,0.035,0.118,0.117a0.931,0.931,0,0,1,.14.691v0.2a0.78,0.78,0,0,0,.422.832,2.989,2.989,0,0,0-.187.563,4.426,4.426,0,0,0-.047,1.453c0.023,0.367.043,0.687,0.058,0.961a3.725,3.725,0,0,1-.152,1.523v0.012l0.141,0.457,0.187,2.344v1.265q-0.024,1.945-.035,3.281-0.012,2.673.035,2.86a1,1,0,0,0-.023.222,1.59,1.59,0,0,0,.07.622,3.072,3.072,0,0,1,.117.562,1.077,1.077,0,0,1-.164.844,1,1,0,0,1,.234.34h0Zm-5.437-14.86a2.23,2.23,0,0,0,.047,1.348,6.7,6.7,0,0,1,.422,1.875v0.012l0.14,0.316a0.129,0.129,0,0,1,.012.059,1.179,1.179,0,0,1-.621.972,1.123,1.123,0,0,0-.328.387,0.779,0.779,0,0,0,.141.832,2.43,2.43,0,0,1-.8,1.172l-1.36,1.266a3.335,3.335,0,0,1-.8.187,9.886,9.886,0,0,0-2.39.563,1.141,1.141,0,0,1-.563.093,1.65,1.65,0,0,0-1.312.422,1.553,1.553,0,0,1-.094.375,19.62,19.62,0,0,1-.937,2.813,23.934,23.934,0,0,1-3.657,7.922l-0.093.046-0.329-.234-0.234.375a1.229,1.229,0,0,0-.375.047,2.409,2.409,0,0,1-.352.059,0.6,0.6,0,0,1-.492-0.106c0.125-.187.266-0.422,0.422-0.7q2.532-4.183,2.86-4.828,0.093-.469.14-0.75l1.406-4.125c-0.093-.016-0.14-0.047-0.14-0.094l-0.047-.8a1.229,1.229,0,0,0-.375-0.047l-3.61-.187q-3.2-.211-4.171-2.156l-0.094-.657a11,11,0,0,0-.328-2.343,0.3,0.3,0,0,0,.187-0.282,1.126,1.126,0,0,0,.035-0.152,0.937,0.937,0,0,0-.41-0.973l0.094-1.031a2.541,2.541,0,0,1,.844-2.156,0.7,0.7,0,0,1,.515.188q0.036,0.059.422,1.313a3.687,3.687,0,0,0-.07.4,5.587,5.587,0,0,0-.024,1.149c0.047,0.414.079,0.781,0.094,1.1a4.178,4.178,0,0,1-.14,1.571,0.2,0.2,0,0,0,.14.14l0.375-.328a0.837,0.837,0,0,0-.011.141,2.374,2.374,0,0,0,.761,1.922,3.528,3.528,0,0,1,1.688.609c0.125,0.07.25,0.137,0.375,0.2l0.5,0.188a1.771,1.771,0,0,0,1.324-.059,1.126,1.126,0,0,0,.152.035q1.171,0.2,2.754-1.582a0.135,0.135,0,0,1-.047-0.094l-0.047-1.265v-0.117a2.52,2.52,0,0,0-.609-2.039,1.873,1.873,0,0,0-.656-0.938,2.536,2.536,0,0,0-.2-0.176,6.42,6.42,0,0,1-.832-0.855q-1.219-1.359-1.313-1.453a12.97,12.97,0,0,1-1.477-2.109,6.578,6.578,0,0,1-.914-3.844l0.282-.422,0.656-2.156a11.879,11.879,0,0,1,1.828-1.031,9.507,9.507,0,0,1,1.945-.727,8.15,8.15,0,0,1,3.633-.07,3.311,3.311,0,0,1,1.922.891l2.016,2.2a1.9,1.9,0,0,1,.234.516l0.047,1.922a5.07,5.07,0,0,1-1.547,1.5,7.558,7.558,0,0,1-1.16.563,5.849,5.849,0,0,1-2.637.328,0.826,0.826,0,0,0-.234-0.094,0.133,0.133,0,0,0-.059-0.012,0.393,0.393,0,0,0-.41.293l-0.094.023a2.686,2.686,0,0,1-1.968-.914l-0.047-.094,0.093-.375,0.891-.469h0.023l0.868,0.141,0.328,0.023a4.548,4.548,0,0,0,3.375-.914,0.623,0.623,0,0,0,.328-0.047,0.422,0.422,0,0,0,.281-0.281l0.141-1.172V93.215l0.047-.223a2.252,2.252,0,0,0-.563-1.219,1.824,1.824,0,0,1-.609-0.281,9.617,9.617,0,0,0-1.688-.891l-3,.469q-2.835.492-3.047,2.531a0.525,0.525,0,0,0-.152.176,0.579,0.579,0,0,0-.035.387,3.718,3.718,0,0,1,.187,1.125,8.2,8.2,0,0,1,.61,1.359,2.644,2.644,0,0,0,1.406,1.688,3.868,3.868,0,0,0,1.219,1.828,8.421,8.421,0,0,1,1.594,1.781,1.62,1.62,0,0,1,.562.563,3.327,3.327,0,0,0,.375.89,11.409,11.409,0,0,1-.281,1.172,11.563,11.563,0,0,0-.235,1.266,3.987,3.987,0,0,0,.094,1.781l0.422-.047q3.821-.351,4.734-2.531a3.594,3.594,0,0,0,.422-1.031,5.48,5.48,0,0,1,.7-1.969,1.662,1.662,0,0,0,.071-0.246,0.64,0.64,0,0,0-.352-0.785,0.924,0.924,0,0,1-.422-1.125l0.141-.141-0.047-.516a0.7,0.7,0,0,1-.047-0.152,0.393,0.393,0,0,1,.328-0.5,2.368,2.368,0,0,1,1.453.938,1.856,1.856,0,0,0-.234.48h0Z"/>
</svg>
