<svg xmlns="http://www.w3.org/2000/svg" width="1540" height="1450" viewBox="0 0 1540 1450">
  <defs>
    <style>
      .cls-1 {
        fill: #fff;
      }

      .cls-1, .cls-2, .cls-3 {
        fill-rule: evenodd;
      }

      .cls-2 {
        fill: #fefefe;
      }

      .cls-3 {
        fill: #fdfdfd;
      }
    </style>
  </defs>
  <path id="字体名称" class="cls-1" d="M219.766,187.719q-4.886,5.859-9.571,5.859H92.227q-5.859,0-4.687,2.734t7.031,2.735H143.2q4.688,0,4.688,4.883v58.4q0,4.688-4.883,4.688H99.258q-5.273,0-3.711,3.125,0.975,2.151,6.836,2.148H143.2q4.688,0,4.688,4.883v64.844q0,4.688-4.883,4.687H82.852q-5.274,0-3.711,3.125,0.975,2.147,6.836,2.149h166.8q5.861,0,8.2-2.735t-3.711-7.812L243.4,329.516q-5.667-4.491-10.546,1.562l-7.618,9.766q-4.884,5.859-9.57,5.859H187.539q-4.687,0-4.687-4.883V276.977q0-4.687,4.882-4.688h50.977q5.859,0,8.4-2.93,2.148-2.343-2.929-6.64L230.9,251.391q-5.667-4.687-10.546,1.562l-6.641,8.2q-5.082,5.859-9.766,5.86H187.539q-4.687,0-4.687-4.883v-58.4q0-4.687,4.882-4.687h57.227q5.859,0,8.2-2.735t-3.516-7.812l-12.5-10.352q-5.469-4.687-10.742,1.563-3.712,4.1-6.64,8.008h0Zm129.1,3.515q0,4.688-4.883,4.688H333.828q-5.859,0-4.883,2.734,1.365,2.737,7.227,2.735h8.008q4.688,0,4.687,4.882v17.774q0,5.273,6.641,4.492l12.5-1.562q5.859-.39,5.859,4.3v3.907q0,4.688-4.883,4.687-8.6,1.37-30.468-8.008-6.254-1.364-7.813-4.1-0.979.2-4.3,6.054l-35.742,64.454a10.03,10.03,0,0,1-6.055,2.539q-6.055.585-6.054,2.539,0.192,1.758,6.054,3.515,9.569,3.128,7.618,11.133-5.861,20.311-4.688,29.883,1.363,6.446,8.984,9.961,17.382,4.491,24.61-10.547,3.318-14.062-6.445-31.055a13.866,13.866,0,0,1-.782-7.812l15.625-67.969q2.148-5.466,2.149-1.172v37.305q0,5.859,5.859,5.078,8.982-1.758,17.773-2.93,5.861-1.171,5.86-4.3,0-2.931,6.445-2.93,6.249,0,6.25,4.883l-0.39,5.078q-0.783,5.859-5.469,5.859H338.516q-5.274,0-3.711,3.125,0.975,2.151,6.836,2.149h25.586q4.688,0,4.492,4.687l-1.367,6.836q-2.153,5.859-6.836,5.859H331.484q-5.859,0-4.687,2.93,1.171,2.737,7.031,2.734h27.734q4.689,0,1.563,6.055Q347.5,344.556,325.82,354.32q-5.859,2.93-5.468,5.078,0.585,2.148,6.445.977a156.1,156.1,0,0,0,34.961-10.156q18.75-8.4,29.883-23.633,3.708-6.249,5.664-1.563,6.248,14.841,18.164,22.852Q426.4,355.3,445.156,360.57q6.052,1.561,7.032-5.859,1.756-10.158,5.273-15.625,5.466-5.859,5.469-7.813-0.2-1.757-6.055-1.953-34.378-1.56-52.344-9.375-6.642-4.293-1.562-4.3h50q5.859,0,8.008-2.734,1.56-2.733-3.321-7.226-4.884-4.294-9.765-8.008-5.861-5.077-1.953-5.078a6.852,6.852,0,0,0,5.664-2.735q1.757-2.535-3.907-7.226l-3.906-3.125q-5.274-4.491,0-5.664,5.076-.778,5.078-6.641V257.055q0-4.687,3.125-6.446,3.121-2.147,2.93-3.711-0.783-2.343-6.25-5.468-6.642-4.88-13.281-9.18-5.274-3.516-10.157.781l-1.953,1.758q-5.859,5.082-12.109,5.078-6.057,0-6.055-4.883v-3.906q0-4.293,5.078-5.078l9.375-1.172q5.86-.975,5.86-6.836V206.078q0-4.687,4.882-4.687h20.313q5.859,0,8.2-2.93,1.562-2.733-4.1-7.422l-7.813-6.25q-6.445-5.076-11.133,0l-4.883,5.664q-5.469,6.057-5.468.391,0-4.1,2.734-5.469,6.051-3.516,1.172-6.25a72.907,72.907,0,0,0-14.063-1.367q-6.839-.779-13.671-0.977-5.861-.192-5.86,5.664v8.789q0,4.688-4.883,4.688h-7.812q-4.687,0-4.688-5.078,0-4.687,2.735-5.469,5.663-2.536,1.953-5.859-4.3-1.758-14.649-1.758-6.839-.779-13.671-0.977-5.861-.389-5.86,5.469v8.984Zm-57.422-.976q6.053,7.814,5.86,15.625,6.248,16.213,19.726,9.765,5.466-3.514,6.25-7.031,3.32-8.788-1.758-15.82-5.859-8.2-14.843-9.18-7.425-1.171-14.258-1.562-5.274,0-6.25,1.757-0.587.981,5.273,6.446h0Zm104.3,21.484q0,4.688-4.883,4.688h-7.812q-4.687,0-4.688-4.883v-5.469q0-4.687,4.883-4.687h7.813q4.688,0,4.687,4.882v5.469ZM280.117,237.133q4.879,7.03,5.078,11.133a23.488,23.488,0,0,0,1.367,7.812q9.178,16.992,22.461,3.516,5.466-6.637.977-17.969-5.274-8.982-14.258-10.937a82.494,82.494,0,0,0-13.867-1.954q-5.667,0-6.445,1.563-0.783,1.368,4.687,6.836h0Zm93.75,24.414q0,4.688-6.445,4.687-6.254,0-6.25-4.882V249.633q0-4.687,6.64-4.688,6.052,0,6.055,5.078v11.524Zm43.75,0q0,4.688-6.445,4.687-6.057,0-6.055-4.882V249.633q0-4.687,6.445-4.688,6.052,0,6.055,5.078v11.524Zm4.688,15.43q4.688-.586.586,4.882-4.687,5.47-9.375,5.469h-4.493q-4.687,0-4.492-4.687a24.3,24.3,0,0,0,.2-5.274q0.192-5.859,6.835-5.859,6.052,0,6.055,3.515,0,2.931,4.688,1.954h0Zm8.789,27.148q-4.884,5.859-9.571,5.859H404.336q-4.687,0-3.516-4.687l1.758-6.836q1.172-5.859,5.86-5.859h27.929q4.295,0-.39,5.664a64.083,64.083,0,0,0-4.883,5.859h0ZM555.9,200.414q0,4.688-4.882,4.688H516.25q-4.3,0-5.859-6.446-1.566-5.859-3.516-6.054-1.566,0-3.125,6.054-2.343,7.815-10.742,12.7a85.608,85.608,0,0,0-7.813,4.882q-12.113,10.158-2.734,21.094a14.847,14.847,0,0,0,9.766,4.492q14.648,1.566,19.14-11.523a49.4,49.4,0,0,0,1.367-13.867q0-5.861,4.688-5.86H622.891q4.688,0,3.32,4.688l-1.758,5.469q-1.955,6.444-5.664,3.125-4.1-3.708-9.961,3.32l-4.687,5.859q-4.885,5.86-9.571,5.86H514.3q-5.274,0-3.906,3.125,1.171,2.151,7.031,2.148H627.188q5.859,0,8.007-2.734,1.561-2.536-1.953-5.664-3.712-3.123,2.149-6.055l3.906-1.953q8.2-5.466,23.633-3.711,8.592-2.146.976-11.133L642.812,196.9q-5.667-4.293-11.328,2.344-5.272,5.859-9.961,5.86H594.766q-4.687,0-4.688-4.883v-8.594q0-4.491,3.516-5.859,6.051-2.931,2.148-6.446a24.489,24.489,0,0,0-5.469-1.562l-28.906-1.953q-5.47-.192-5.469,6.054v18.555Zm75.391,63.672q-5.274,5.859-9.961,5.859H487.734q-5.859,0-4.687,2.735t7.031,2.734H550.43q4.688,0,4.687,4.883v46.094q0,4.688-4.883,4.687H532.266q-5.86,0-6.055,1.563,0,1.363,7.617,4.3,13.28,7.617,15.625,19.335,1.172,5.861,7.617,5.86,17.578,0.389,26.563-6.25,5.662-6.445,4.3-13.672V280.1q0-4.687,4.882-4.688h62.5q5.861,0,8.4-2.734,1.95-2.537-3.711-7.618L648.281,255.3q-5.667-4.687-10.742,1.172ZM487.734,338.305q-3.126,7.031-2.148,8.593,0.975,1.365,6.641-2.343,21.093-14.062,41.6-38.086,2.344-2.733,7.422-3.711A10.4,10.4,0,0,0,544.375,301q1.562-3.9-5.469-6.836-12.891-5.662-25.195-11.523-5.471-2.345-7.617,4.882a420.722,420.722,0,0,1-18.36,50.782h0Zm116.8-42.774q12.3,13.284,16.211,27.344A55.418,55.418,0,0,0,626.8,338.5q9.178,10.738,19.336,3.711,8.2-6.642,9.57-15.43,0.779-19.139-21.094-29.687a174.493,174.493,0,0,0-29.3-10.156q-5.859-1.173-6.835.195-0.981,1.758,6.054,8.4h0ZM706.875,205.3q0,4.688-4.883,4.687H686.367q-5.859,0-4.883,2.735,1.365,2.738,7.227,2.734h13.477q4.686,0,4.687,4.883v17.773q0,4.688-4.883,4.688H682.461q-5.859,0-4.883,2.734,1.365,2.737,7.227,2.735h22.851q4.688,0,4.688,4.882v7.813q0,4.5-5.078,3.711-8.6-1.758-17.188-2.93-5.859-.779-5.859,5.078v20.508q0.585,39.845-7.227,64.258-2.151,5.859-.39,6.836,1.364,0.585,6.054-5.664,13.28-17.775,18.946-36.133,1.757-6.051,4.687-.781,26.954,39.258,65.82,41.015h76.172q5.861,0,6.446-6.445a47.466,47.466,0,0,1,3.515-13.672q4.688-5.859,4.688-7.812-0.2-1.95-6.055-1.953h-90.43a111.292,111.292,0,0,1-19.531-2.344q-5.859-1.561-5.859-6.25V287.914q0-4.687,4.883-4.687h12.5q4.686,0,4.687,4.882v29.883q0,5.859,6.836,4.883l17.578-2.734q5.859-1.173,5.859-5.079,0-3.707,4.883-3.71h16.407q4.686,0,4.687,4.882,0,4.5,6.25,3.516l19.727-2.734q5.859-.975,5.859-6.836V277.367q0-4.687,2.93-6.445,5.465-3.516,0-7.031l-14.258-9.18q-5.274-3.32-1.758-4.3,4.688-.778,8.008-7.031,6.051-12.695,6.64-37.7,0.39-5.86,3.516-7.227,8.2-5.274-2.148-10.547-6.642-4.687-13.282-8.789-5.272-3.516-10.156.977-7.813,9.375-12.5,7.226H762.93q-5.274,0-3.711,3.125,0.975,2.151,6.836,2.149h4.492q4.688,0,4.687,4.687-0.782,22.851-5.468,38.086-2.541,5.274-7.618,1.172l-3.515-2.735q-6.254-4.88-11.328.391l-2.149,2.344q-5.667,6.254-7.031,6.25-1.758-.192-1.758-4.883V220.141q0-4.687,4.883-4.688h17.969q5.859,0,7.812-2.93,1.172-2.732-4.687-7.421l-5.469-4.3q-5.471-4.294-9.766.586l-1.953,2.343q-5.667,6.253-7.031,6.25-1.758-.192-1.758-4.882V192.6q0-4.687,3.125-6.055,6.446-2.344,3.516-6.25a25.929,25.929,0,0,0-8.789-1.758l-21.485-1.953q-5.859-.192-5.859,5.664V205.3Zm114.648,17.187q-1.368,6.253-6.054,6.25H804.922q-5.859,0-5.86,2.539,0,1.956,4.883,3.125,10.35,3.713,9.766,12.305,0.192,5.859,6.25,5.859,6.834,0,3.32,3.321-4.3,4.1-8.984,4.1-21.679,1.37-29.1-2.539l-7.617-2.734q-5.859-2.147.2-5.664,14.649-9.961,19.922-21.289,5.663-12.3,6.836-29.3,0.587-5.859,5.274-5.859h9.57q4.688,0,4.687,4.882a179.309,179.309,0,0,1-2.539,25h0Zm-66.6,36.524q1.95,0.783,5.078-.586t3.125,3.516v7.421q0,4.688-5.469.586-5.667-4.489-11.133,1.953-5.469,5.471-5.468.782V252.953q0-4.687,4.883-4.687h11.523q5.076,0,.586,5.078-4.884,4.884-3.125,5.664h0Zm64.453,42.383q0,4.688-4.883,4.687H798.086q-4.687,0-4.688-4.883V270.141q0-4.687,4.883-4.688h16.6q4.491,0,4.492,5.078v30.86Zm-107.031-24.61v25.2q0,4.688-3.516,1.757a8.955,8.955,0,0,1-2.148-8.2l2.539-16.406q0.585-5.466,1.953-6.445,1.171-.779,1.172,4.1h0Zm308.786-92.773q-4.68,5.859-9.37,5.859H999.844a19.208,19.208,0,0,1-7.032-.976L971.328,180.3q-5.859-2.146-5.859,3.711v94.14a144.914,144.914,0,0,1-4.492,30.664,116.078,116.078,0,0,1-23.438,44.727q-5.08,5.663-4.1,7.227,0.975,1.363,6.835-1.758,45.31-24.024,54.1-67.578,1.171-5.86,5.855-5.86h13.68q4.68,0,4.68,4.883v33.594q0,4.688-4.88,4.687H997.7q-5.667,0-5.664,2.149,0,1.171,6.641,3.515a27.378,27.378,0,0,1,9.958,8.2,45.939,45.939,0,0,1,4.3,13.671q1.17,5.861,7.03,5.665a54.235,54.235,0,0,0,19.92-3.907q9.96-5.272,10.55-13.672V204.516q0-4.687,3.52-6.836,7.8-5.861-2.15-9.375l-17.19-10.157q-5.67-3.318-11.91,3.907Zm-138.474,141.8q0,5.859,5.86,5.273,8.981-1.566,17.773-2.539,5.859-.975,5.859-6.836V313.7q0-4.687,4.883-4.687h4.688q4.688,0,4.687,4.883v3.32q0,5.859,5.86,5.469,8.981-1.365,17.773-2.149,5.859-.779,5.859-6.64v-100q0-4.687,4.3-8.008,3.516-4.1-2.343-8.4L943.4,188.5q-6.056-3.516-10.937,2.148L930.9,192.6q-5.081,5.859-10.937,5.859A23.583,23.583,0,0,1,910,196.312l-21.484-9.374q-5.86-2.733-5.86,3.124V325.805Zm135.934-97.266q0,4.688-4.88,4.688h-12.5q-4.686,0-4.687-4.883V199.633q0-4.687,4.887-4.688h12.89q4.29,0,4.29,5.274v28.32Zm-92.184,15.234q0,4.688-4.883,4.688h-4.687q-4.687,0-4.688-4.883V208.227q0-4.687,4.883-4.688h4.688q4.688,0,4.687,4.883v35.351Zm92.184,31.836q0,4.688-4.88,4.688h-12.89q-4.687,0-4.3-5.859V243.383q0-4.687,4.887-4.688h12.5q4.68,0,4.68,4.883v32.031Zm-92.184,23.438q0,4.688-4.883,4.687h-4.687q-4.687,0-4.688-4.882V258.227q0-4.687,4.883-4.688h5.078q4.294,0,4.3,5.273v40.235ZM1186.17,189.672q0,4.688-3.32,4.687-2.34,0-7.62-2.343-4.875-2.537-9.76-4.493-5.865-2.535-5.86,3.321v40.429q0,4.688-2.34,3.125-2.355-1.56-3.52-.39-1.17.783-1.17-3.906v-30.86q0-4.687,3.12-6.64c1.83-1.691.26-4.23-4.68-7.618l-5.86-3.515q-5.865-3.516-9.77.39a11.946,11.946,0,0,1-8.59,3.907h-13.48q-4.89.782-13.48-3.711-5.85-2.345-5.86,3.515v50.391q0,4.3-1.75-.391c-0.78-3.253-1.44-5.011-1.96-5.273s-1.49,2.084-2.93,7.031q-0.975,3.126-6.64,7.227-7.425,6.445-4.68,15.429,6.24,8.4,13.28,4.3,1.56-.779,1.56,3.907v87.89q0,5.274,6.64,4.3l12.5-1.953q5.865-.98,5.86-6.836v-33.2q0-4.687,4.88-4.688h4.49q4.695,0,4.69,4.883v10.156q0,4.688-6.64,4.688-6.45,0-6.64,1.172,0,0.779,6.06,5.664a19.2,19.2,0,0,1,5.07,12.109q0.78,5.859,6.64,5.86l7.04-.782q11.715-.2,14.25-13.672v-69.14q0-4.687.78-5.274c0.4-.259.79-0.064,1.18,0.586q0.585,0.783,6.44.782h88.67q5.865,0,7.62-2.735,1.56-2.535-3.71-6.836c-3.26-2.6-4.49-4.034-3.71-4.3q1.17-.192,1.17-6.054V209.2a9.692,9.692,0,0,1,3.32-7.617q2.535-2.93,1.56-4.492l-14.84-9.375q-5.67-3.32-9.96,1.758-4.305,4.884-6.64,4.882c-1.56,0-2.35-1.953-2.35-5.859q0-5.663,1.18-6.25c2.6-1.431,3.19-2.8,1.75-4.1q-7.425-.975-14.25-1.367-5.865-.389-5.86,5.469v7.422q0,4.688-2.54,4.687c-1.56,0-2.35-1.953-2.35-5.859q0-5.466,1.57-6.445a15.487,15.487,0,0,0,2.54-2.344c0-.65-1.96-1.431-5.86-2.344l-9.57-.586q-5.67-.389-5.67,5.469v7.422Zm-54.69,12.695q0,4.688-4.29,4.688a13.756,13.756,0,0,1-6.25-1.367q-5.865-2.536-5.86,3.32v26.758q0,4.688-1.96,4.882-1.95-.192-1.95-4.882V195.922q0-4.687,4.88-4.688h10.94c3,0,4.49,1.694,4.49,5.078v6.055Zm54.69,13.086q0,4.688-2.54,4.688-2.145,0-2.15-4.883V204.32q0-4.687,2.54-4.687,2.145,0,2.15,4.883v10.937Zm21.88,0q0,4.688-2.54,4.688c-1.56,0-2.35-1.627-2.35-4.883V204.32q0-4.687,2.54-4.687,2.355,0,2.35,4.883v10.937Zm21.87,0q0,4.688-2.54,4.688-2.145,0-2.15-4.883V204.32q0-4.687,2.54-4.687,2.145,0,2.15,4.883v10.937Zm-98.44,20.313q0,4.688-1.95,4.882-1.95-.192-1.95-4.882V216.82c0-3.125.71-4.687,2.15-4.687q1.755,0,1.75,4.883v18.75Zm54.69,7.031q0,4.688-2.54,4.687-2.145,0-2.15-4.882V230.1q0-4.687,2.54-4.688,2.145,0,2.15,5.078V242.8Zm21.88,0q0,4.688-2.54,4.687c-1.56,0-2.35-1.626-2.35-4.882V230.1q0-4.687,2.74-4.688,2.145,0,2.15,5.078V242.8Zm21.87,0q0,4.688-2.54,4.687-2.145,0-2.15-4.882V230.1q0-4.687,2.54-4.688,2.145,0,2.15,5.078V242.8Zm-88.08,11.328q-3.72-1.95-8.21,2.344-4.29,4.3-8.98,4.3h-6.64q-4.89.781-17.39-4.493-5.85-2.147-6.05-6.445,0-4.1,4.69-4.1h44.53q4.29,0,2.93,5.664-1.17,5.273-4.88,2.734h0Zm91.21,4.687q3.705-.192.78,3.126a10.627,10.627,0,0,1-8.01,3.515H1164.1a11.236,11.236,0,0,1-7.62-2.539q-2.73-1.758.2-4.1,2.925-1.95,2.93.2t5.86,1.758l10.15-1.172q5.865-.779,5.86-3.906,0-2.931,4.89-2.93h39.06q4.485,0,4.49,3.32,0,2.93,3.13,2.734h0Zm-103.13,20.7q0,4.688-4.88,4.687h-4.49q-4.695,0-4.69-4.883v-8.4q0-4.687,4.88-4.688h4.88q4.305,0,4.3,5.274v8.008Zm88.67,2.343h-25.58q-4.695.783-10.74-2.148l-13.68-4.492q-5.85-1.758-5.86,4.1v41.016q0,5.859,4.5,5.273,2.535-.192,6.83,4.883a22.384,22.384,0,0,1,3.32,12.11q1.95,5.859-2.73,5.859h-12.5q-5.67,0-4.3,2.93c0.78,1.431,3.13,2.148,7.03,2.148h90.04q5.865,0,7.62-2.734,1.56-2.344-4.69-7.422l-2.34-1.953q-6.84-5.86-11.13-.782-6.255,10.153-11.53,7.813h-5.66q-4.89,0,1.17-4.3,6.63-4.687,13.28-8.789c4.04-.653,6.31-1.434,6.84-2.344-0.78-2.865-3.85-4.883-9.18-6.054q-12.12-2.931-1.57-4.1a85.558,85.558,0,0,1,9.57-1.367q5.865-.975,5.86-6.836V298.656q0-4.491,2.54-5.664,6.645-4.491-2.15-8.789l-13.47-8.984q-5.67-3.516-10.94,1.367-5.865,5.274-10.55,5.273h0Zm5.08,25q0,4.688-4.88,4.688h-24.02q-4.695,0-4.69-4.883V291.82c0-3.125,1.62-4.687,4.88-4.687h24.22q4.485,0,4.49,5.078v14.648Zm-93.75-3.125q0,4.688-4.88,4.688h-4.49q-4.695,0-4.69-4.883v-9.18q0-4.687,4.88-4.687h4.88q4.305,0,4.3,5.273v8.789Zm91.02,16.6q-2.745-.975-4.3,4.883l-4.69,17.383q-1.755,5.859-6.44,5.859h-7.42q-4.695,0-2.35-3.516,8.79-17.385-11.33-20.7c-0.39-.39.46-0.909,2.54-1.562,2.08-.391,3.13-1.5,3.13-3.321,0-1.69,1.62-2.539,4.88-2.539h23.83c3.12,0,4.69.717,4.69,2.149,0.12,1.434-.72,1.889-2.54,1.367h0ZM1378.36,217.8l-1.95,2.734a3.789,3.789,0,0,0-2.35,1.563q-4.68,4.688-4.68-.977c0.12-3.253,1.17-5.469,3.12-6.64a6.252,6.252,0,0,0,2.54-2.93q0-1.172-5.66-5.078l-9.18-6.055q-5.865-3.516-10.36.977-4.875,4.884-9.57,4.882H1318.2a18.622,18.622,0,0,1-8-1.562q-3.33-1.562,0-5.078a11.927,11.927,0,0,1,8.59-3.906h54.88q5.865,0,7.62-2.539,1.56-2.536-4.49-7.618l-3.91-3.32q-6.06-4.879-10.74.586-5.67,10.158-11.13,7.812h-27.93q-4.695,0-2.54-2.539a14.088,14.088,0,0,1,4.1-2.734q4.1-1.758,2.15-4.1a7.312,7.312,0,0,0-4.89-1.953q-10.545-1.758-21.09-2.929c-3.39-.519-5.79,1.367-7.23,5.664a147.92,147.92,0,0,1-13.67,29.687q-4.68,6.057-4.1,7.031,0.78,0.2,6.64-1.562a13.071,13.071,0,0,1,3.52-1.367c3.77-1.953,5.47-1.236,5.07,2.148l-0.58,5.469q-0.975,5.859-5.67,5.859h-2.73q-5.865,0-4.88,2.735,1.365,2.737,6.44,2.734t4.49,4.883l-3.51,25.2q-0.78,6.057,6.64,5.469a81.762,81.762,0,0,1,9.77-.586q5.85-.389,6.83-6.25c0.78-3.906,2.74-5.859,5.86-5.859h22.85c3.13,0,4.75.262,4.89,0.781,0.25,2.344-1.5,3.125-5.28,2.344h-7.62q-5.655,0-5.66,1.757,0,1.173,4.69,2.344,8.985,2.929,7.03,11.524-2.34,5.859-7.23,4.1l-13.28-3.125q-5.85-.975-6.83,0-0.585.979,6.05,7.813a38.83,38.83,0,0,1,5.86,9.961q2.145,6.055-2.73,6.25-11.145,0-22.27.586-6.45.393-5.47,6.835l1.17,7.813q1.56,12.7,3.32,16.8,3.33,3.516,5.86-1.367,1.17-4.1,8.79-4.3,5.865-1.171,2.74,3.515-10.755,14.256-22.07,21.68-6.255,4.294-5.86,5.469c0.12,0.909,2.6,1.041,7.42.39a121.078,121.078,0,0,0,50.78-17.968c2.6-1.435,4.56-2.149,5.86-2.149,3.9-.522,5.86.782,5.86,3.907v13.281q0,5.663,6.25,4.883l19.72-2.344q5.865-.783,5.86-6.641V315.648q0-4.49,4.89-5.859l26.95-5.859c3.91-.91,6.7.195,8.4,3.32l1.56,4.883q5.865,17.579,19.53,7.226,8.985-10.546,2.35-19.531-9.375-10.153-31.06-14.062-6.645-1.561-7.42-.586-0.975.98,5.86,7.422,4.485,5.273-.2,5.468-17.775.395-35.54,1.368-6.645,0,.39-3.321l21.87-11.523a10.967,10.967,0,0,1,3.91-1.563q6.63,0.394,5.66-4.687a45.7,45.7,0,0,0-6.83-4.688l-6.64-3.906q-6.645-4.1-2.15-5.273l11.91-3.907q4.7-1.95,9.96,2.539,6.255,5.082,19.53,12.7,6.84,3.322,8.21-3.125,2.925-11.133,8.98-16.016,5.865-3.708,6.45-5.273c0-1.041-2.09-2.213-6.25-3.516l-12.7-3.906q-6.45-2.148-3.32-6.641,7.035-10.936,11.72-27.93,1.755-5.859,5.27-5.859a6.2,6.2,0,0,0,5.08-2.93q1.56-2.147-4.1-7.031-3.915-3.318-7.81-6.055-5.865-4.687-10.75,1.172-8.19,12.3-13.28,9.766h-10.35q-4.29,0-1.17-5.273,4.1-7.42,6.84-8.4,4.29-1.95,3.12-3.711-0.78-1.172-6.64-2.734l-19.34-2.735q-5.655-.777-7.42,7.032a181.493,181.493,0,0,1-11.52,35.156h0Zm35.74,2.93q-1.755,5.859-5.66,1.562a47.474,47.474,0,0,1-3.71-5.859q-3.72-6.249-.78-9.375,2.925-3.516,8.39-3.516c3.52,0,5.01,1.63,4.5,4.883a100.631,100.631,0,0,1-2.74,12.305h0Zm-90.82,2.539q1.17,6.056-4.88,6.054-5.865,0-5.47-4.687l1.17-7.422q0.975-5.859,3.52-5.859c0.39,0,1.88,2.084,4.49,6.25a11.4,11.4,0,0,1,1.17,5.664h0Zm17.38-11.914q4.695,0,4.69,4.687l-0.19,7.422c-0.39,3.906-2.22,5.859-5.47,5.859q-4.7,0-3.52-1.367,5.865-8.789-3.12-13.672-7.425-2.93,0-2.929h7.61Zm59.38,26.757q2.34,5.86-2.34,10.352a105.457,105.457,0,0,1-26.57,15.43q-6.045,2.539-5.08,5.078,0.78,1.758,7.82.586,6.045-1.365,2.15,3.906l-17.39,20.9c-3.51,3.907-7.1,5.86-10.74,5.86q-5.67.2-4.3-3.711a24.457,24.457,0,0,0-.19-5.664q-0.975-1.758,3.9-4.688l7.23-4.3q7.62-2.733,7.42-4.1-0.2-.975-3.12-3.125-1.755-1.171,1.17-3.125a14.726,14.726,0,0,0,4.69-8.008q1.95-5.859,6.64-5.859h5.66q5.865,0,7.23-2.93,0.78-2.733-4.69-8.2-5.085-5.078-8.4-.2-3.7,5.082-2.73-1.367l0.39-4.3q0.585-5.859,5.27-5.859h7.03q5.865,0,6.84-2.539,0.975-2.93-1.95-5.273-2.94-2.148,3.32-6.25,5.655-4.294,6.64.976a106.926,106.926,0,0,0,4.1,16.406h0Zm-80.08,8.008q1.56,6.057-4.88,6.055-5.475,0-4.88-5.469l0.78-5.859c0.52-4.035,1.49-6.055,2.93-6.055,0.65,0.131,2.14,2.02,4.49,5.664a12.038,12.038,0,0,1,1.56,5.664h0Zm19.53-11.328q4.695,0,4.69,4.688l-0.78,6.835q-0.975,5.86-5.67,5.86t-2.73-3.32q3.9-6.638-4.69-11.524-4.485-2.537,0-2.539h9.18Zm58.79,87.305q14.07,13.668,16.41,25.976a16.454,16.454,0,0,0,9.37,9.961q11.13,3.708,17.58-8.984,5.865-14.846-13.09-24.219a167.206,167.206,0,0,0-28.9-8.2q-5.865-.975-6.64,0c-0.26.653,1.49,2.475,5.27,5.469h0Zm-45.7.781v5.469q0,4.688-5.47.976a46.317,46.317,0,0,0-5.47-3.711q-6.255-4.1-.98-5.078l3.52-.781,2.54-.586c3.9-.65,5.86.586,5.86,3.711h0Z"/>
  <path id="中文示例" class="cls-2" d="M321.207,701.574q-2.343,2.93-4.687,2.93h-5.958a9.609,9.609,0,0,1-3.515-.488l-10.742-4.3q-2.93-1.074-2.93,1.855v47.071a72.43,72.43,0,0,1-2.246,15.332A58.037,58.037,0,0,1,279.41,786.34q-2.541,2.83-2.051,3.613,0.488,0.683,3.418-.879,22.655-12.012,27.051-33.789,0.587-2.929,2.93-2.93h6.836q2.343,0,2.344,2.442v16.8q0,2.343-2.442,2.344h-8.008q-2.834,0-2.832,1.074,0,0.585,3.321,1.758a13.716,13.716,0,0,1,4.98,4.1,23.108,23.108,0,0,1,2.148,6.836,3.142,3.142,0,0,0,3.516,2.832,27.112,27.112,0,0,0,9.961-1.953q4.98-2.637,5.273-6.836V711.828a3.709,3.709,0,0,1,1.758-3.418q3.9-2.929-1.074-4.687l-8.594-5.078q-2.834-1.66-5.957,1.953Zm-69.238,70.9q0,2.93,2.929,2.636,4.491-.782,8.887-1.269a3.134,3.134,0,0,0,2.93-3.418v-4q0-2.345,2.441-2.344H271.5q2.343,0,2.344,2.442v1.66q0,2.929,2.929,2.734,4.491-.682,8.887-1.074a3.013,3.013,0,0,0,2.93-3.32v-50a4.925,4.925,0,0,1,2.148-4q1.758-2.05-1.172-4.2l-7.226-4.492q-3.028-1.758-5.469,1.075l-0.781.976q-2.541,2.929-5.469,2.93a11.8,11.8,0,0,1-4.98-1.074L254.9,703.039q-2.929-1.366-2.929,1.563v67.871Zm67.969-48.633q0,2.343-2.442,2.344h-6.25q-2.343,0-2.344-2.442V709.387q0-2.344,2.442-2.344h6.445q2.147,0,2.149,2.637v14.16Zm-46.094,7.617q0,2.345-2.442,2.344h-2.343q-2.345,0-2.344-2.442V713.684q0-2.344,2.441-2.344H271.5a2.117,2.117,0,0,1,2.344,2.441v17.676Zm46.094,15.918q0,2.344-2.442,2.344h-6.445q-2.344,0-2.149-2.93V731.262q0-2.344,2.442-2.344h6.25a2.117,2.117,0,0,1,2.344,2.441v16.016Zm-46.094,11.719q0,2.343-2.442,2.344h-2.343q-2.345,0-2.344-2.442V738.684q0-2.344,2.441-2.344H271.7q2.148,0,2.149,2.637v20.117ZM405,704.5H378.922a10.478,10.478,0,0,1-4-.684l-10.742-4.492q-2.929-1.074-2.93,1.856v46.679l-0.684,8.008q-1.954,17.676-10.546,30.274-2.052,2.929-1.661,3.808,0.487,0.683,3.614-1.269A55.042,55.042,0,0,0,359,783.8a46.279,46.279,0,0,0,12.793-15.723,60.051,60.051,0,0,0,4.687-14.648q0.586-2.929,2.93-2.93h26.758a2.117,2.117,0,0,1,2.344,2.441v19.434q0,2.344-2.442,2.344h-7.812q-2.929,0-3.028.781,0,0.78,3.711,2.344a10.166,10.166,0,0,1,3.809,3.027,18.8,18.8,0,0,1,2.539,6.836,3.142,3.142,0,0,0,3.516,2.832q8.788,0,13.379-3.418a9.3,9.3,0,0,0,3.125-5.762v-69.14a3.62,3.62,0,0,1,1.953-3.418q4.393-3.026-1.66-5.274l-8.79-5.175q-2.834-1.561-5.371,1.367-3.808,6.055-6.445,4.785h0Zm3.516,19.043q0,2.343-2.442,2.344H379.508q-2.344,0-2.344-2.442V709.387q0-2.344,2.441-2.344h26.758q2.148,0,2.149,2.637v13.867Zm0,21.875q0,2.343-2.442,2.344H379.508q-2.344,0-2.344-2.442V730.871q0-2.343,2.441-2.344h26.758q2.148,0,2.149,2.637v14.258Zm76.66-13.379q0,2.343-2.442,2.344h-8.886q-2.344,0-2.344-2.442V712.219q0-2.345,1.562-3.028,2.931-2.147,0-3.125a11.551,11.551,0,0,0-3.906-.488l-10.742-.586a2.59,2.59,0,0,0-2.93,2.93v32.226q0,2.931,3.125,2.442l9.961-1.172q2.93-.488,2.93-2.441,0-1.854,2.441-1.856h8.887q2.345,0,2.344,2.441v37.989q0,2.343-2.442,2.344H471.5q-2.343,0-2.344-2.442V754.016q0-2.345,1.367-2.93,2.344-.879,2.051-2.148-0.292-.489-3.222-1.368l-13.672-.781q-2.93-.1-2.93,2.832v37.207q0,2.637,3.32,2.246l10.157-1.172q2.93-.392,2.929-2.929t2.442-2.539h44.433q2.345,0,2.344,2.441v1.953q0,2.929,2.93,2.637,5.468-.879,10.937-1.465a3.135,3.135,0,0,0,2.93-3.418V754.406q0-2.343,1.367-3.027a7.176,7.176,0,0,0,1.856-1.953q-0.294-1.562-2.442-1.953-7.324-.682-14.648-0.977-2.929-.1-2.93,2.832v28.223a2.117,2.117,0,0,1-2.441,2.344h-12.11q-2.343,0-2.344-2.442V739.465q0-2.345,2.442-2.344h10.156q2.344,0,2.344,3.125,0,2.736,3.32,2.344l10.156-1.172a3.133,3.133,0,0,0,2.93-3.418V711.438a2.719,2.719,0,0,1,1.563-2.637q2.246-.975,1.757-2.246A7.18,7.18,0,0,0,534,705.48q-7.325-.585-14.648-0.878a2.589,2.589,0,0,0-2.93,2.929v24.512q0,2.343-2.442,2.344H503.824q-2.343,0-2.344-2.442V706.066a3.028,3.028,0,0,1,1.758-2.929,3.553,3.553,0,0,0,2.539-2.442,3.031,3.031,0,0,0-2.734-1.66q-7.521-.682-15.039-1.074-2.834-.195-2.832,2.734v31.348Zm133.5-28.613q-2.345,2.93-4.688,2.929H556.07q-2.93,0-2.343,1.368t3.515,1.367H580q2.345,0,2.344,2.441-0.2,10.938-.879,21.875-0.391,2.93-2.734,2.93H551.383q-2.93,0-2.344,1.367t3.516,1.367h26.074q2.343,0,2.051,2.442a86.978,86.978,0,0,1-2.93,15.234q-6.056,17.579-26.172,28.906-3.613,1.953-3.223,3.125t3.418,0.293a87.218,87.218,0,0,0,24.512-9.961,43.547,43.547,0,0,0,14.649-13.867,45.389,45.389,0,0,0,5.761-15.039q0.682-3.709,1.66-1.172,3.81,12.891,9.18,20.7,7.032,9.57,22.363,17.676,3.223,1.562,3.516-1.66a21.92,21.92,0,0,1,5.664-12.7q2.929-2.44,2.93-3.614,0-.975-3.028-1.855a103.392,103.392,0,0,1-18.652-6.641A42.945,42.945,0,0,1,600.113,742.1q-1.368-3.027,1.075-3.028h34.96q2.832,0,3.907-1.367t-2.442-4.395l-4.98-4.1q-3.029-2.441-5.469.391l-3.32,3.808q-2.541,2.93-4.883,2.93H600.992q-1.955,0-1.855-2.735,0.879-11.619,1.074-21.582,0.195-2.929,2.539-2.929h27.637q2.733,0,3.711-1.465,0.78-1.367-2.735-4.395l-4.785-3.906q-2.833-2.343-5.566,1.172Zm65.723,69.824q0,2.343-2.442,2.344H671.5q-2.343,0-2.344-2.442V718.078a3.065,3.065,0,0,1,1.953-2.832q1.465-1.171,1.465-1.758a2.724,2.724,0,0,0-2.246-1.367l-14.648-.976a2.589,2.589,0,0,0-2.93,2.929v71.973q0,2.637,3.32,2.246,5.077-.783,10.157-1.27a3.013,3.013,0,0,0,2.929-3.32V780.48q0-2.343,2.442-2.343h43.261q2.345,0,2.344,2.441v5.274q0,2.929,3.125,2.441,5.955-.978,11.914-1.563a3.134,3.134,0,0,0,2.93-3.418V720.129a3.1,3.1,0,0,1,1.66-3.125q3.417-1.268,1.465-3.223a10.018,10.018,0,0,0-3.516-.879l-14.648-.976q-2.93-.1-2.93,2.832v58.5a2.117,2.117,0,0,1-2.441,2.344H703.824q-2.343,0-2.344-2.442V706.945a3.486,3.486,0,0,1,1.758-3.32q3.025-1.466,2.539-2.832a4.383,4.383,0,0,0-3.906-1.66l-14.648-1.172q-2.833-.195-2.832,2.734v72.559Zm137.793-68.848q0,2.345-2.442,2.344h-18.75q-2.637,0-1.953,1.562,0.586,1.077,3.516,1.075H819.84a2.117,2.117,0,0,1,2.344,2.441v3.906q0,2.931,2.929,2.637l2.93-.391q3.025-.293.391,2.051a104.109,104.109,0,0,1-27.051,16.7q-3.42,1.466-3.028,1.856,0.39,0.586,3.907.1l6.836-1.368q2.93-.488,2.929,1.856V758.02q-0.293,12.988-11.035,23.73-2.735,2.44-2.148,3.223,0.388,0.585,3.418-.586a58.859,58.859,0,0,0,12.5-6.543q3.125-2.442,3.125-.1v9.863q0,2.929,3.418,2.539l8.789-1.367q2.929-.489,2.929-2.636,0-2.052,2.442-2.051h26.953q2.343,0,2.344,2.539,0,2.05,3.32,1.562,5.076-.879,10.156-1.465a3.134,3.134,0,0,0,2.93-3.418v-9.179a2.978,2.978,0,0,1,1.367-2.832q3.223-1.269.2-3.711-3.515-2.147-6.738-4.395-3.126-2.147-.781-2.636t2.344-3.418v-9.668a3.313,3.313,0,0,1,1.66-3.223q2.929-1.758-.293-3.809-1.563-1.268,1.562-.39a8.647,8.647,0,0,0,1.856.488q3.318,0.978,4.1-2.246a25.528,25.528,0,0,1,3.125-7.129q2.832-2.637,2.832-3.613-0.1-.879-3.027-1.074-18.654-1.173-32.519-5.762-3.029-1.268-2.051-1.758a8.912,8.912,0,0,1,2.832-.781q3.417-.587,6.836-0.879a3.133,3.133,0,0,0,2.929-3.418V711.73q0-2.343,2.442-2.343h17.187q2.929,0,4-1.367,0.879-1.269-1.953-3.711l-5.176-4.3q-3.126-2.538-5.957.879L875.6,703.82a6.72,6.72,0,0,1-5.274,2.93q-2.929,0-2.93-2.148a2.975,2.975,0,0,1,1.368-2.832q2.343-.975,1.562-2.247a6.936,6.936,0,0,0-4.394-1.367l-10.743-.586q-2.929-.1-2.929,2.832v4q0,2.345-2.442,2.344H839.273q-2.343,0-2.343-2.148a3.052,3.052,0,0,1,1.66-2.93q1.56-1.268,1.465-2.051-0.49-.587-3.418-1.367l-11.719-.781q-2.734-.1-2.734,3.027v3.906Zm27.734,10.84-10.059-1.562q-2.93-.586-2.929-2.442t2.441-1.855h10.547q2.343,0,2.344,3.125,0,3.027-2.344,2.734h0Zm0.684,8.789q1.952,2.149-.391,4.785-2.344,2.541-4.688,2.539H834.2q-3.126,0,.391-1.66,4.882-2.245,9.766-4.883l1.562-.878q3.124-1.854,4.688.1h0Zm-21.094,8.985q0.585,1.075,3.515,1.074h23.536q2.929,0,3.418-.782,0.681-1.172,3.222.489,2.637,1.27.391,3.125a6.641,6.641,0,0,1-4.395,1.758H829.312q-2.343.293-8.105-2.149-2.929-1.171-.586-1.953l3.516-.879,1.953-.683q3.025-1.074,3.418,0h0ZM859.2,747.375H830q-2.343,0-2.344-3.027,0-2.929,2.442-2.93h29.3q2.246,0,2.246,3.125,0,2.834-2.442,2.832h0Zm0,9.277H830q-2.343,0-2.344-3.32,0-3.222,2.442-3.223h29.3q2.246,0,2.246,3.418,0,3.127-2.442,3.125h0Zm6.153,5.469q3.222-.487,1.172,1.758a6.121,6.121,0,0,1-4.3,1.855H834.684q-2.052.294-5.567-1.269-2.929-1.172-2.344-3.125a2.7,2.7,0,0,1,2.93-1.953h29.59q2.147,0,2.344,1.758,0,1.464,3.711.976h0Zm-0.586,16.8q0,2.343-2.442,2.344H835.367q-2.343,0-2.344-2.442v-8.105q0-2.345,2.442-2.344h26.953a2.117,2.117,0,0,1,2.344,2.441v8.106Zm87.89-72.949q0,2.343-2.441,2.343H937.32q-2.343,0-2.343-3.027,0-2.83,1.269-3.418,2.929-1.366,1.172-2.734-1.172-.879-4.688-0.977l-10.742-.683q-2.93-.1-2.929,2.832v5.664q0,2.343-2.442,2.343H902.164q-2.637,0-1.953,1.563,0.586,1.075,3.516,1.074h12.988q2.343,0,2.344,2.442v5.664q0,2.834,3.125,2.441l9.863-1.172a3.134,3.134,0,0,0,2.93-3.418v-3.613q0-2.345,2.441-2.344h12.891q2.343,0,2.343,2.442v5.175q0,2.637,3.321,2.246,5.076-.78,10.156-1.269a3.134,3.134,0,0,0,2.93-3.418v-2.832q0-2.345,2.441-2.344h15.234q2.931,0,4-1.367,0.975-1.268-2.148-3.906l-4.981-4q-2.834-2.246-5.371.781l-2.441,2.93q-2.541,2.929-4.688,2.929-2.051,0-2.05-3.222a3.381,3.381,0,0,1,1.953-3.418q1.56-1.268,1.465-1.953-0.294-.683-4.1-1.465l-12.793-.781q-2.929-.195-2.93,2.832v5.664Zm-43.847,19.336a9.84,9.84,0,0,1,2.832,4.98q0.389,5.958,4.785,8.008,6.054,1.758,9.766-4.688,1.659-4.2-.879-7.226a11.641,11.641,0,0,0-7.715-4,45.337,45.337,0,0,0-7.813-.684q-2.929,0-3.125.586-0.391.879,2.149,3.028h0Zm39.16,9.179q0,2.345-2.442,2.344H930.68q-2.637,0-1.953,1.563,0.585,1.076,3.515,1.074,2.832,0,2.832,2.441v38.672q1.466,5.955,7.227,6.152h41.8a9.664,9.664,0,0,0,3.613-.39q0.683-.587.781-3.613l-0.683-3.223q-1.466-5.274-7.129-4.3H957.047q-4.591,1.074-4.1-4V741.809q0-2.344,2.442-2.344h32.129q2.93,0,4-1.367,0.975-1.269-2.149-3.907l-4.98-4q-2.834-2.245-5.371.781-4.494,7.03-7.325,5.859h-4.2q-2.343,0-2.344-2.441V729.8a3.242,3.242,0,0,1,1.856-3.223q1.659-1.366,1.66-1.953a3.07,3.07,0,0,0-3.223-1.855q-7.325-.587-14.648-0.879-2.833-.195-2.832,2.734v9.863ZM901.676,742.1a14.212,14.212,0,0,1,2.246,7.812q1.854,7.617,7.324,5.566a7.289,7.289,0,0,0,4.785-4.687q2.637-8.007-5.957-11.719a41.3,41.3,0,0,0-6.933-.976q-2.834,0-3.223.781-0.391.587,1.758,3.223h0Zm6.933,22.265a5.436,5.436,0,0,1-4.589,2.344q-2.835.2-2.832,1.367,0,0.684,3.222,1.172l1.172,0.391q4.491,1.856,4.395,4.589a27.97,27.97,0,0,1-.977,7.813,7.378,7.378,0,0,0,1.465,4.883,8.157,8.157,0,0,0,8.5,2.246q3.318-.587,5.176-4.3,1.952-5.178-1.953-11.914-1.37-1.953-.391-5.859l6.055-22.852q0.879-3.222.39-3.711-0.783-.292-2.832,2.344Zm162.5-61.816c-1.63,1.953-3.22,2.929-4.79,2.929H1013.2c-1.95,0-2.77.457-2.44,1.368,0.45,0.912,1.66,1.367,3.61,1.367h21.58a2.117,2.117,0,0,1,2.35,2.441v3.516a2.118,2.118,0,0,1-2.44,2.344h-16.51a2.92,2.92,0,0,1-3.03-2.344c-0.52-1.563-1.07-2.376-1.66-2.442q-0.48,0-1.17,2.442a9.542,9.542,0,0,1-4.78,5.273q-9.96,4.786-4.3,11.231,3.9,1.954,6.74,1.269,7.425-2.051,6.35-9.863,0-2.929,2.34-2.93h16.11a2.118,2.118,0,0,1,2.35,2.442v20.117q0,2.929,3.12,2.441l9.96-1.172a3.009,3.009,0,0,0,2.93-3.32V721.5a2.118,2.118,0,0,1,2.44-2.344h18.85c1.56,0,2.02.782,1.37,2.344l-2.54,5.957c-0.85,1.953-1.01,3.093-.49,3.418q0.69,0.391,3.81-1.269l7.03-3.907q2.055-1.56,6.06-1.074,3.015,0.49,4.59-.879c0.39-1.822-.66-3.482-3.13-4.98l-7.13-5.371q-3.12-2.245-5.27.2-2.64,2.929-4.98,2.93h-18.26a2.117,2.117,0,0,1-2.35-2.442v-3.515a2.118,2.118,0,0,1,2.44-2.344h25.3c1.95,0,3.28-.455,4-1.367q0.885-1.366-2.15-3.907l-4.78-3.906q-2.94-2.439-5.47.586Zm-10.65,23.633h-2.73q-2.925,0-2.34,1.367t3.51,1.367h11.62q2.835,0,3.42-1.367t-2.83-3.809l-0.78-.586q-2.64-1.854-5.18.684a6.742,6.742,0,0,1-4.69,2.344h0Zm-36.23.488h-2.83q-2.925,0-2.34,1.367t3.51,1.367h10.36c1.95,0,3.18-.52,3.71-1.562q0.39-1.269-3.03-3.614a3.541,3.541,0,0,0-4.98.391,6.163,6.163,0,0,1-4.4,2.051h0Zm38.58,10.156h-5.08c-1.76,0-2.38.522-1.85,1.563,0.32,0.717,1.46,1.074,3.41,1.074h12.8q2.34,0,.48,2.344-3.9,6.444-6.64,5.175H1013.2q-2.64,0-1.86,1.563,0.495,1.075,3.42,1.074h67.19q2.25,0,.39,2.149l-2.54,3.222q-2.445,2.93-4.78,2.93h-70.41q-2.64,0-1.86,1.562c0.33,0.718,1.46,1.075,3.42,1.075h20.02c1.43,0,1.76.879,0.97,2.636l-2.73,6.641q-1.275,2.929-3.61,3.027-5.085,0-10.16.293-0.39.587,0.39,2.735,1.755,6.152,3.81,12.3c0.84,1.953,1.43,2.994,1.76,3.125,0.84,0.2,1.69-.39,2.54-1.758a4.431,4.431,0,0,1,2.83-2.05q21-6.057,41.99-11.817,2.925-.879,4.3,1.465l0.78,1.563a39.279,39.279,0,0,0,3.22,7.812q4.98,5.37,9.67,3.027a10.564,10.564,0,0,0,5.08-7.324q0.2-8.888-10.55-13.476a112.858,112.858,0,0,0-15.43-4.688q-2.925-.585-3.51,0c-0.14.391,0.78,1.367,2.73,2.93a20.754,20.754,0,0,1,2.15,2.051c1.49,1.628,1.43,2.475-.2,2.539q-12.885.2-25.49,0.683-2.925,0,.2-2.246l11.72-8.1a7.322,7.322,0,0,1,4.3-1.367h37.89c1.88,0,3.19-.455,3.9-1.368q0.885-1.268-2.63-4.2l-5.18-4.3q-2.25-1.952-1.95-2.441,0.87-1.268-2.74-4.3l-2.83-2.246q-2.835-2.344-2.25-3.613t-3.02-4a2.963,2.963,0,0,1-.98-0.684q-2.835-1.951-5.37.781-2.64,2.637-4.98,2.637h0Zm-39.36.391h-7.13c-1.75,0-2.41.522-1.95,1.562,0.39,0.717,1.56,1.074,3.52,1.074h14.65q2.925,0,3.51-1.367c0.33-.845-0.49-2.017-2.44-3.515l-0.78-.586a3.448,3.448,0,0,0-4.98.586,5.945,5.945,0,0,1-4.4,2.246h0Zm103.23-7.031c-0.98,2.148-1.31,3.385-.98,3.71s1.46-.032,3.42-1.074q3.12-1.854,2.83.488l-1.07,10.059c-0.27,1.953-1.18,2.93-2.74,2.93-1.43,0-1.92.488-1.46,1.465a2.308,2.308,0,0,0,2.24,1.074q1.365,0,1.08,2.637-1.77,13.673-3.23,27.246-0.39,2.93,2.54,2.734l9.77-.781a3.248,3.248,0,0,0,3.22-3.223l0.2-.976q0.39-2.931,2.73-2.93h16.21q2.34,0,2.25,1.758c-0.26,1.172-1.17,1.757-2.74,1.757h-7.32q-2.925,0-3.03.977c0,0.586.81,1.172,2.44,1.758q5.475,1.951,5.57,7.91,0.285,2.929,3.81,2.93a37.561,37.561,0,0,0,10.64-1.953q5.085-3.615,6.25-12.207c0.39-1.954,1.37-2.93,2.93-2.93h5.08c1.95,0,3.26-.488,3.91-1.465q0.675-1.465-2.93-5.078-3.72-3.808-5.47-.977l-0.59.879q-1.755,2.93-1.66.2,0.78-8.106,1.17-15.918a2.277,2.277,0,0,1,2.54-2.344h3.52q2.925,0,3.81-1.367c0.45-.846-0.26-2.311-2.15-4.395l-1.76-1.953q-2.34-2.344-3.81,0c-1.24,1.628-1.85,1.4-1.85-.684l0.09-7.812a4.1,4.1,0,0,1,1.57-3.516q4.485-3.026-1.08-4.883l-7.71-4.687q-2.835-1.758-5.76,1.367-2.835,2.93-5.18,2.93h-12.89a8.711,8.711,0,0,1-5.37-1.172q-3.225-1.367-1.66-3.418l1.46-2.246q1.965-2.929,4.3-2.93h34.57c1.89,0,3.19-.488,3.91-1.465,0.52-.845-0.3-2.212-2.44-4.1q-2.445-2.246-4.89-4.2-2.925-2.539-5.37.293-1.755,1.954-3.22,3.906c-1.63,1.953-3.22,2.93-4.79,2.93h-16.5q-2.25,0-.68-2.54l0.48-.976q1.47-3.026,2.93-3.613,3.03-1.074,1.76-2.832a10.4,10.4,0,0,0-2.73-.977l-14.65-2.344q-2.835-.388-3.42,2.539-3.12,17.871-8.1,29.493h0Zm-21.29-27.442q3.51,4.1,3.22,7.813a9.6,9.6,0,0,0,3.32,6.64q5.565,4.1,10.84-1.855a9.53,9.53,0,0,0,.98-8.789,12.626,12.626,0,0,0-10.55-7.325q-3.81-.488-7.32-0.683-2.55,0-3.03.976-0.3.587,2.54,3.223h0Zm0,54.59a4.822,4.822,0,0,1-4.5,2.637c-2.01.2-3.02,0.619-3.02,1.269,0.06,0.586,1.07,1.108,3.02,1.563q5.475,0.977,5.57,5.078-1.56,6.543-2.73,12.988-0.69,9.375,9.18,9.375a8.972,8.972,0,0,0,7.03-4.3q3.225-7.617-2.05-17.187-1.77-3.124-.39-7.813,4.98-19.335,9.57-38.379c0.58-2.148.68-3.384,0.29-3.711q-0.69-.1-2.64,3.321Zm-5.47-29.883q2.43,4.493,2.15,7.91,0.87,5.665,4.88,7.129,4.2,0.978,7.62-3.418,5.07-9.568-5.37-15.234a33.932,33.932,0,0,0-7.82-1.465c-2.34,0-3.68.261-4,.781q-0.3.587,2.54,4.3h0Zm53.71,14.356q1.47,3.613,3.81,2.636a7.387,7.387,0,0,0,4.78-3.613c2.22-3.775,1.69-7.031-1.56-9.766a31.708,31.708,0,0,0-6.64-3.32q-2.535-1.171-.39-1.172h11.03a2.118,2.118,0,0,1,2.35,2.442q0,7.521-.39,14.941a2.277,2.277,0,0,1-2.54,2.344h-16.41c-1.37,0-1.95-.911-1.76-2.735l1.57-14.55q0.09-2.052,2.24,1.074a34.406,34.406,0,0,1,3.91,11.719h0Zm-4.4,12.011a19.942,19.942,0,0,1,1.66,7.813q1.08,8.692,7.23,6.152,5.76-3.516,4.2-10.058-1.08-4.3-9.08-7.325c-2.35-1.04-2.44-1.562-.29-1.562h11.23c1.43,0,2.11.879,2.05,2.637l-1.47,16.406c-0.32,1.953-1.27,2.929-2.83,2.929h-16.7c-1.43,0-2.05-.878-1.85-2.636q0.675-8.2,1.66-16.406c0.25-1.954.81-2.93,1.66-2.93q1.365,0,.78.683c-0.33.391,0.26,1.824,1.75,4.3h0Zm52.74,33.5q0,2.931,2.93,2.539c2.99-.456,5.96-0.814,8.89-1.074a3.129,3.129,0,0,0,2.92-3.418V734.387c0-1.563.82-2.344,2.45-2.344h4.68c1.57,0,2.35.717,2.35,2.148,0,1.172,1.1,1.629,3.32,1.368l8.1-.879a3.01,3.01,0,0,0,2.93-3.321V712.121a5.834,5.834,0,0,1,1.47-4q1.17-1.758-2.05-4.3l-6.64-4.3q-2.835-1.854-5.28,1.465c-1.5,1.953-3.02,2.93-4.59,2.93q-5.76.587-8-1.074-5.28-2.441-10.55-4.59-2.925-1.268-2.93,1.758v87.3Zm64.94-83.4h-4.2a9.608,9.608,0,0,1-3.71-.586l-10.74-4.687c-1.96-.846-2.93-0.293-2.93,1.66v33.4c0,1.758,1.1,2.475,3.32,2.149l8.1-1.075c1.96-.325,2.93-0.879,2.93-1.66,0-.715.82-1.074,2.44-1.074h5.86a2.117,2.117,0,0,1,2.35,2.441v38.282a2.118,2.118,0,0,1-2.44,2.343h-4.98a2.117,2.117,0,0,1-2.35-2.441V750.891c0-1.563.46-2.571,1.37-3.028,1.56-.454,2.25-1.138,2.05-2.051a5.128,5.128,0,0,0-2.15-1.953l-6.74-4.394q-2.73-1.758-5.86.488-3.12,3.321-5.37,2.344-6.735.684-10.25-1.27l-6.84-2.343q-2.925-.975-2.93,1.953v36.816q0,2.832,3.13,2.344l8.01-1.172c1.95-.327,2.93-1.27,2.93-2.832,0-1.5.81-2.246,2.44-2.246h3.42q2.34,0,2.34,2.734,0,2.345,3.22,1.856l8.99-1.172a6.822,6.822,0,0,1,3.9,1.074q4.4,3.124,4.89,9.375a3.137,3.137,0,0,0,3.51,2.832,29.488,29.488,0,0,0,8.01-1.269q6.54-1.565,7.23-7.325V711.828a3.767,3.767,0,0,1,1.66-3.418,6.571,6.571,0,0,0,1.85-1.953c0-.391-0.94-1.3-2.83-2.734l-8.3-4.981q-2.835-1.758-5.57,1.27-3.12,5.079-5.76,3.906h0Zm-40.72,10.742a2.118,2.118,0,0,1-2.44,2.344h-4.69a2.121,2.121,0,0,1-2.35-2.442V709c0-1.562.82-2.344,2.45-2.344h4.78q2.25,0,2.25,2.539v5.469Zm44.14,0a2.118,2.118,0,0,1-2.44,2.344h-5.86a2.117,2.117,0,0,1-2.35-2.442V709a2.118,2.118,0,0,1,2.44-2.344h5.96q2.25,0,2.25,2.539v5.469Zm-44.14,12.5a2.118,2.118,0,0,1-2.44,2.344h-4.69a2.121,2.121,0,0,1-2.35-2.442v-5.175c0-1.563.82-2.344,2.45-2.344h4.68a2.117,2.117,0,0,1,2.35,2.441v5.176Zm44.14,0a2.118,2.118,0,0,1-2.44,2.344h-5.86a2.117,2.117,0,0,1-2.35-2.442v-5.175a2.118,2.118,0,0,1,2.44-2.344h5.86a2.117,2.117,0,0,1,2.35,2.441v5.176Zm-24.22,26.074a2.118,2.118,0,0,1-2.44,2.344h-3.42q-2.34,0-2.34-2.441v-5.86c0-1.562.81-2.343,2.44-2.343h3.42q2.34,0,2.34,2.441v5.859Zm0,15.235a2.118,2.118,0,0,1-2.44,2.343h-3.42q-2.34,0-2.34-2.441v-7.812c0-1.563.81-2.344,2.44-2.344h3.42q2.34,0,2.34,2.441v7.813ZM264.566,914.953q0,2.344-2.441,2.344H251.578q-2.637,0-1.953,1.562,0.587,1.077,3.516,1.075h7.129q2.343,0,2.343,2.441V942.3a2.388,2.388,0,0,1-2.343,2.637l-5.86.586q-3.126.2-1.953,3.906l3.418,11.719q0.78,3.318,1.953,4.3,2.147,0.487,3.516-2.441,0.488-1.27,2.929-2.148l31.25-15.43q3.124-1.466,3.418-2.344,0.1-.879,2.149,2.051a40.589,40.589,0,0,0,13.086,11.23,116.438,116.438,0,0,0,15.039,7.618q3.222,1.268,3.613-2.051A20.542,20.542,0,0,1,338,950.207q3.124-2.637,3.125-3.711,0-.682-2.93-1.367a151.5,151.5,0,0,1-22.265-6.25q-2.834-1.268-.2-2.246,3.808-1.367,7.617-3.125a36.721,36.721,0,0,1,7.813-3.223q1.953-.389,2.344-1.172,0.488-1.854-2.051-2.832L320.426,921.4q-2.736-1.464.39-1.464h15.723q2.93,0,4-1.368,0.879-1.268-2.344-3.906-1.954-1.758-3.906-3.222-3.222-2.539-5.566,0l-2.344,2.929q-2.541,2.93-4.883,2.93H284q-2.343,0-2.344-2.442v-5.468q0-2.344,2.442-2.344H324.43q2.929,0,3.808-1.27,0.682-1.268-2.343-3.808a34.91,34.91,0,0,0-3.125-2.442q-3.127-2.439-6.153,1.075-3.029,5.079-5.664,3.906H284q-2.343,0-2.344-2.442v-4.785q0-2.343,2.442-2.343H324.82q2.93,0,3.809-1.27,0.683-1.268-2.344-3.809a34.611,34.611,0,0,0-3.125-2.441q-3.126-2.44-6.055,1.074-3.027,5.079-5.664,3.907H284q-2.343,0-2.344-2.442v-4.785q0-2.345,2.442-2.344H329.41a4.451,4.451,0,0,0,3.809-1.562q0.78-1.074-3.028-4.1l-2.929-2.344q-2.929-2.343-5.469.586-3.908,6.153-6.543,4.883H285.367a8.806,8.806,0,0,1-3.418-.488q-7.228-3.417-14.453-6.543-2.929-1.268-2.93,1.758v39.941Zm32.325,23.633q1.56,2.833-.782,3.125l-13.379,1.172q-2.93.2-2.929-2.149V922.277q0-2.343,2.441-2.343h5.176q2.245,0,3.32,3.027a113.058,113.058,0,0,0,6.153,15.625h0Zm12.6-6.738q-1.954,2.93-4.883,1.074a39.908,39.908,0,0,1-9.96-9.961q-1.857-3.026.585-3.027h18.653q2.343,0,1.172,2.441a89.262,89.262,0,0,1-5.567,9.473h0Zm45.215-8.985a56.835,56.835,0,0,0-.195,6.543q-0.391,20.021-4.981,32.227-1.075,2.83-.195,3.418,0.683,0.585,3.711-2.344a65.27,65.27,0,0,0,7.812-9.961,62.673,62.673,0,0,0,9.083-31.25V900.012q0-2.344,2.441-2.344,5.37,0,10.644-.488,2.931-.1,2.93,2.246v4.59q0,2.343-2.539,2.343-2.541.49-8.2-2.05-2.93-.975-2.93,1.953v29.883q0,2.636,3.321,2.05l4.2-.586q2.93-.488,2.929-3.027t1.661-2.539q1.56,0,1.562,2.441v8.2a2.275,2.275,0,0,1-2.344,2.539l-13.769.878q-3.028.2-2.149,3.907,0.975,4.881,2.247,9.765a12.026,12.026,0,0,0,1.171,3.614q1.758,1.172,4-1.953a4.128,4.128,0,0,1,1.856-1.27,245.966,245.966,0,0,0,26.367-10.645q2.929-1.268,3.223,1.075a38.564,38.564,0,0,0,1.269,9.668q2.441,5.955,8.887,1.074a10.37,10.37,0,0,0,3.125-9.18q-1.369-7.03-4.688-9.277A48.962,48.962,0,0,0,407.34,938q-3.028-1.466-3.613-.488t0.781,3.808q0.975,2.736-1.367,2.93a5.317,5.317,0,0,1-1.758.1q-2.929.1-2.93-2.246v-7.715q0-2.344,1.66-2.344,1.465,0,1.465,1.855,0,1.662,3.516,1.27a42.342,42.342,0,0,1,4.883-.684,3.133,3.133,0,0,0,2.929-3.418V913.2q0-2.246.879-2.539a3.056,3.056,0,0,0,1.172-.781q0.389-.586-3.223-3.418A22.644,22.644,0,0,0,409,904.6q-2.734-1.758-4.98,0a6.081,6.081,0,0,1-3.809,1.757q-1.758,0-1.758-2.441v-5.664a2.506,2.506,0,0,1,2.344-2.734l11.133-1.368q3.222,0.294,3.515-.1a1.722,1.722,0,0,0-.781-2.149q-4.2-4.3-8.4-8.3-2.345-2.343.195-2.343h7.227q2.343,0,2.343,2.441v36.621q0.488,22.365,9.18,38.477a14.713,14.713,0,0,0,7.227,6.054q6.053,1.953,9.863-5.078,0.194-1.076-1.563-4a18.649,18.649,0,0,1-1.66-4.882,118.433,118.433,0,0,1,1.465-15.528q0.487-3.222-.195-3.808-0.879-.587-2.246,3.222l-2.149,5.86q-1.171,3.126-1.855.781a96.565,96.565,0,0,1-2.832-20.117V887.219A3.533,3.533,0,0,1,432.633,884q3.026-1.951.586-3.906l-8.789-5.86q-2.93-1.852-5.957,1.27-3.029,3.029-5.371,3.027H372.086a9.323,9.323,0,0,1-4-.781l-10.547-4.59q-2.834-1.267-2.832,1.856v47.851Zm18.164-27.051q-2.93.978-2.929-1.367v-10.84q0-2.343,2.441-2.343H399.43q2.83,0-.2,2.148a219.018,219.018,0,0,1-26.367,12.4h0Zm13.086,31.348q0,2.345-1.66,2.344-1.563,0-1.563-2.442V911.438q0-2.345,1.758-2.344,1.465,0,1.465,2.539V927.16Zm15.625,0q0,2.345-1.66,2.344-1.466,0-1.465-2.442V911.438q0-2.345,1.66-2.344,1.465,0,1.465,2.539V927.16ZM486.734,887.9q0,2.833-2.539,1.368l-4.394-2.637q-2.736-1.758-4.785,1.367l-3.516,5.078q-2.051,2.541-2.539,1.367a11.939,11.939,0,0,0-2.246-2.734q-1.563-1.074.683-2.441A63.4,63.4,0,0,0,474.625,884a9.985,9.985,0,0,1,3.027-2.051,1.877,1.877,0,0,0,1.953-1.562,2.894,2.894,0,0,0-2.05-1.758l-7.813-3.418q-2.93-1.171-3.906,1.758l-3.223,9.082q-1.171,3.126-3.515,2.344l-2.246-.684q-2.931-.879-3.321-0.293t2.149,3.223a10.135,10.135,0,0,1,2.148,5.859q-0.1,4.884,4.2,6.348,1.466,0.489-1.074,3.32l-0.683.879q-2.443,2.734-4.981,2.832l-1.855.2q-2.931.2-2.344,3.125l1.465,6.543q0.975,3.028-1.953,3.028-2.833,0-2.344,1.367,0.683,1.368,3.613,1.367h7.52q2.343,0,2.343,2.441a91.691,91.691,0,0,1-1.66,16.016q-1.271,7.617-9.57,14.941-3.224,2.539-3.125,3.223,0.195,1.367,3.711.2a56.267,56.267,0,0,0,11.719-5.761q8.983-5.86,11.035-13.184,0.975-3.222,2.344-1.172a21.048,21.048,0,0,1,2.539,7.031,7.932,7.932,0,0,0,3.808,4.883q4.98,1.074,7.617-4.1,2.93-6.249-4.3-11.231a31.642,31.642,0,0,0-7.031-2.929q-3.126-.879-2.832-3.125l0.391-4.3q0.292-2.929,2.637-2.93H488.3q2.146,0,2.832,2.539A42.759,42.759,0,0,0,500.6,946.5q2.635,3.029.39,4.883-7.422,5.567-21.875,11.133-2.93,1.172-2.929,1.953,0.389,0.879,3.515.39a92.516,92.516,0,0,0,27.637-7.617q3.026-1.464,5.273.1a52.533,52.533,0,0,0,13.184,7.129q5.076,1.659,7.812.976a10.465,10.465,0,0,0,5.86-5.273,5.433,5.433,0,0,0-1.27-4.98q-2.637-4.395-.488-10.743,0.975-2.831.195-3.125-0.684-.193-2.539,2.442l-3.418,5.176q-1.563,2.05-4.2.683l-3.125-1.758q-3.321-1.854-1.367-4.1l3.906-5.176a6.415,6.415,0,0,1,3.516-1.953,6.179,6.179,0,0,0,1.562-.684Q533.8,934,530,932.531l-11.035-5.469q-2.637-1.56.488-1.562h15.332q2.93,0,4.1-1.465,0.78-1.366-1.856-3.515l-1.953-1.563q-2.834-2.44-1.367-2.93a5.321,5.321,0,0,0,3.027-2.734,7.532,7.532,0,0,0-1.172-8.3,25.727,25.727,0,0,0-7.226-4q-3.222-1.268-3.613-.781-0.49.783,0.976,2.734,1.074,1.956-1.465,1.954h-4.882q-3.712.2-1.172-1.661,5.468-3.222,10.937-6.836,4.1-3.026,5.86-2.832a3.887,3.887,0,0,0,1.562-.878q0.586-2.052-2.637-3.223l-6.836-4q-2.929-1.562-4.687,1.367l-2.539,3.906q-2.149,2.931-2.832,1.954a8.685,8.685,0,0,0-1.856-1.465q-3.027-1.466-.586-2.832,3.808-2.44,7.52-5.274a6.65,6.65,0,0,1,2.539-1.465q2.538-.389,1.66-1.855l-2.441-1.465-6.836-3.027q-2.93-1.269-3.906,1.66-1.465,4.395-3.321,8.691-1.368,2.93-4.3,2.149-3.514-.975-4-0.2-0.293.49,2.735,3.418a9.231,9.231,0,0,1,1.953,3.907q0,5.177,3.516,6.836,1.464,0.585.293,2.05-1.173,2.052-5.372,1.368-2.93,0-2.441,2.929,1.074,5.079,2.441,10.156,1.465,1.37,3.321-1.074a6.117,6.117,0,0,1,2.344-1.367q1.756-.683,2.636,1.66l0.293,2.344q0.879,2.929-1.465,2.93h-6.25q-2.148,0-2.734-2.637-2.929-16.7-2.734-40.723,0-2.343,1.269-3.027,1.659-.683,1.367-2.051-0.585-1.464-3.027-1.269-5.274-.39-10.547-0.489-2.734-.193-2.734,2.93,0,6.251.39,12.4h0ZM488,908.117q0.195,2.442-.879.2-2.247-3.123-8.3-5.468-2.93-1.173-3.515-.2-0.294.49,1.171,3.125,0.975,2.345-1.367,2.539l-7.226.586q-2.929,0-.2-2.148,9.962-6.64,15.625-11.23a9.861,9.861,0,0,1,2.832-1.563q0.781-.1.977,2.441,0.293,5.86.879,11.719h0ZM528.043,913a4.087,4.087,0,0,1-.684,5.078l-1.66,1.953q-2.343,2.736-3.125,2.735-1.171,0,.1-1.563,2.83-4.784-1.27-7.226-3.126-1.173-.781-2.149l3.613-1.758q3.223-1.464,3.418.782Zm-49.9,1.465q0.1,4.492,3.808,5.078,4.882-.293,6.348-6.055,0.1-1.464.488,0.879a39.529,39.529,0,0,0,.781,5.469q0.39,2.929-1.953,2.93h-29.98q-2.248,0-1.074-1.368a8.122,8.122,0,0,1,3.027-1.562q6.834-2.637,13.672-5.664l1.855-.879q2.832-1.367,3.028,1.172h0Zm33.789,20.019q-0.978,3.029-3.125.489a30.668,30.668,0,0,1-3.614-6.543q-1.171-2.929,1.172-2.93h5.86q2.147,0,1.562,2.637ZM571.3,879.406q0,2.345-2.442,2.344H551.676q-2.637,0-1.856,1.562,0.487,1.077,3.418,1.075h15.723a2.117,2.117,0,0,1,2.344,2.441v3.027q0,2.835,3.125,2.442,4.98-.78,9.863-1.27a3.239,3.239,0,0,0,2.93-3.613q0-3.025,2.441-3.027h8.984q2.345,0,2.344,2.441v2.832q0,2.93,2.93,2.637l8.008-.977q2.831-.293.488,1.856a6.641,6.641,0,0,1-4.395,1.758H578.336a12.922,12.922,0,0,1-4.3-.684L563.3,890.539q-2.929-.879-2.93,2.051V921.2q0,2.929,2.93,2.637,5.076-.879,10.058-1.465,3.124-.488,3.125-1.27,0.1-.78,2.442-0.781h4.1q2.345,0,2.344,2.442v2.343q0,2.345-2.441,2.344H570.914a10.661,10.661,0,0,1-3.125-.293q-5.371-2.05-10.742-3.808-2.929-.879-2.93,2.05v36.914q0,2.931,2.93,2.539l8.887-1.367a3.134,3.134,0,0,0,2.929-3.418V932.629q0-2.345,2.442-2.344h11.718q2.345,0,2.344,2.442v3.711a2.275,2.275,0,0,1-2.344,2.539q-4.785.1-9.57,0.488-3.613.1-2.734,3.125l3.222,10.84a7.279,7.279,0,0,0,1.563,3.418q1.366,0.879,2.832-1.368a5.557,5.557,0,0,1,2.637-2.343q12.3-5.274,24.609-10.254,3.026-1.367,3.516,1.172,0.78,7.518,6.347,4.1a8.407,8.407,0,0,0,3.125-3.808q2.44-5.662-3.32-9.278a34.409,34.409,0,0,0-6.836-2.539q-2.929-.78-3.516-0.195-0.39.586,1.27,3.027Q607.535,937.805,605,938h-1.074q-2.929.1-2.93-2.344v-3.027q0-2.345,2.442-2.344H618.18q2.343,0,2.343,2.442v14.648q0,2.344-2.441,2.344h-8.594q-2.93,0-3.027.683,0,0.879,3.516,2.246,6.054,3.711,6.64,9.766a3.134,3.134,0,0,0,3.418,2.93,34.531,34.531,0,0,0,10.742-1.563,9.045,9.045,0,0,0,5.274-6.836V935.363a4.2,4.2,0,0,1,1.367-3.222q2.343-2.539-1.856-4.2-3.418-2.244-6.835-4.2-2.931-1.758-5.86.977t-5.273,2.734H603.336q-2.344,0-2.344-2.441v-2.344q0-2.345,2.442-2.344h4.98q2.344,0,2.344,1.172,0,1.076,2.93.781l10.937-1.562a3.134,3.134,0,0,0,2.93-3.418V904.211a3.529,3.529,0,0,1,1.953-3.125q3.025-1.659.293-3.613l-9.473-6.348q-2.929-2.147-2.93-4.492,0-2.246,2.442-2.246h17.285q2.832,0,3.809-1.27,0.975-1.366-2.344-4.2l-3.906-3.125q-3.127-2.538-5.372.1-4.492,7.03-7.324,5.859h-2.246A2.03,2.03,0,0,1,617.4,879.5a2.547,2.547,0,0,1,1.368-2.637q2.343-.78,2.05-2.246a3.489,3.489,0,0,0-2.246-1.074q-7.323-.683-14.648-1.074a2.589,2.589,0,0,0-2.93,2.929v4q0,2.345-2.441,2.344h-8.985a2.029,2.029,0,0,1-2.343-2.246,3.005,3.005,0,0,1,1.562-2.832,3.657,3.657,0,0,0,1.563-1.465,2.093,2.093,0,0,0-1.856-1.66q-7.228-.683-14.453-0.977-2.735-.193-2.734,2.93v3.906Zm14.062,24.61q0,2.343-2.441,2.343h-4.1q-2.343,0-2.344-2.441v-3.906q0-2.344,2.442-2.344h4.3q2.146,0,2.148,2.637v3.711Zm25.391,0q0,2.343-2.442,2.343h-4.98q-2.344,0-2.344-2.441v-3.906q0-2.344,2.442-2.344h5.175q2.148,0,2.149,2.637v3.711Zm-25.391,11.328a2.117,2.117,0,0,1-2.441,2.344h-4.1q-2.343,0-2.344-2.442v-3.808q0-2.345,2.442-2.344h4.2q2.246,0,2.246,2.539v3.711Zm25.391,0q0,2.343-2.442,2.344h-4.98q-2.344,0-2.344-2.442v-3.808q0-2.345,2.442-2.344h5.078q2.246,0,2.246,2.539v3.711Zm75.293-35.938q0,2.345-2.442,2.344h-31.64q-2.637,0-1.856,1.562,0.487,1.077,3.418,1.075h82.227q2.929,0,3.906-1.367,0.879-1.269-2.344-4l-3.906-3.125q-3.126-2.637-5.371,0-4.492,7.03-7.324,5.859H704.8a2.072,2.072,0,0,1-2.344-2.344,2.9,2.9,0,0,1,1.66-2.734q1.367-1.074,1.27-1.953-0.294-.683-4.1-1.367-6.25-.587-12.5-0.879-2.734-.1-2.734,3.027v3.906Zm23.828,11.328h-33.2a12.918,12.918,0,0,1-4.3-.683l-10.742-3.711q-2.929-.975-2.93,1.953v26.172q0,2.929,3.125,2.344,4.98-.879,9.863-1.465,2.929-.587,2.93-1.66t2.441-1.075h5.86q2.343,0,2.344,2.442v1.855q0,2.345-2.442,2.344H656.266q-2.931,0-2.442,1.367,0.683,1.37,3.614,1.367h25.488q2.343,0,2.344,2.442v1.855q0,2.345-2.442,2.344h-31.25q-2.637,0-1.953,1.563,0.586,1.076,3.516,1.074h20.117q2.439,0-.2,2.148-7.521,6.35-21.972,9.961-2.93.783-2.344,2.149t4.1,0.878q6.346-.879,12.7-2.148,2.929-.488,2.93,1.953,0,2.149-2.735,2.344a44.935,44.935,0,0,0-5.078.488q-3.029.39-1.953,3.906,1.367,4.882,3.027,9.766a6.8,6.8,0,0,0,1.661,3.516q1.365,0.78,2.441-1.465a5.106,5.106,0,0,1,2.832-2.149q18.26-7.323,36.426-14.355,1.951-.78,3.808,1.855a36.131,36.131,0,0,0,7.422,6.836q4.491,3.223,14.551,7.617,2.832,1.074,3.125-2.05a18.71,18.71,0,0,1,4.1-9.864q2.929-2.539,3.027-3.418,0-.681-3.223-1.269-7.714-1.466-14.16-3.32-2.442-1.173.586-1.758l7.715-1.856a5.027,5.027,0,0,1,1.953-.2,6.276,6.276,0,0,0,2.344,0q0.975-.78-0.391-2.246L729.9,933.7q-2.734-2.439-.39-2.441h7.031q2.929,0,4.1-1.465,0.879-1.172-2.344-3.809l-2.442-1.855q-2.833-2.147-1.464-2.149a2.264,2.264,0,0,0,1.953-1.367q0.78-1.366-2.051-3.711-6.153-3.612-4.883-6.347V900.207a3.416,3.416,0,0,1,1.953-3.32q1.854-1.466,1.856-2.051-0.684-1.659-4-3.613l-6.738-4.493q-2.834-1.852-6.348.879-3.908,3.908-6.25,3.125h0Zm-24.609,7.52q0,2.343-2.442,2.344h-5.859q-2.345,0-2.344-2.442v-2.344q0-2.343,2.441-2.343h5.957q2.245,0,2.247,2.539v2.246Zm27.343,0a2.117,2.117,0,0,1-2.441,2.344h-6.543q-2.345,0-2.344-2.442v-2.344q0-2.343,2.442-2.343h6.64q2.246,0,2.246,2.539v2.246Zm-27.343,9.277q0,2.345-2.442,2.344h-5.859q-2.345,0-2.344-2.441V905.48q0-2.343,2.441-2.343h5.957q2.245,0,2.247,2.539v1.855Zm27.343,0q0,2.345-2.441,2.344h-6.543q-2.345,0-2.344-2.441V905.48q0-2.343,2.442-2.343h6.64q2.246,0,2.246,2.539v1.855Zm2.93,7.715,7.324-.976q3.32-.39,1.172,2.05-2.541,2.929-4.883,2.93H703.629q-2.345,0-2.344-2.441v-1.856q0-2.343,2.442-2.344h6.543q2.343,0,2.343,1.563,0,1.368,2.93,1.074h0Zm7.227,13.379H703.629q-2.345,0-2.344-2.441v-1.856q0-2.343,2.442-2.344h24.609q2.44,0,.1,2.735-3.029,5.079-5.664,3.906h0Zm-21.68,4.883a47.136,47.136,0,0,0,3.125,8.3q1.56,3.126-.781,3.32l-16.016,1.465q-2.929.2-2.93-2.149V940.93q0-2.148,2.637-3.321a61.041,61.041,0,0,0,9.57-4.98,8.416,8.416,0,0,1,2.735-1.367q0.975,0,1.66,2.246h0ZM716.91,938q-2.834,2.833-5.176,1.465a20.417,20.417,0,0,1-6.25-5.176q-2.442-3.025.1-3.027h14.356q2.439,0,.488,2.441Zm117.969-35.254q-1.27,3.808-1.27.391V892.98a5.839,5.839,0,0,1,1.075-3.71q2.538-2.832-1.856-4.395l-6.64-4.2q-2.736-1.758-5.079,1.66-2.148,2.929-4.3,2.93a8.253,8.253,0,0,1-5.078-1.075l-6.836-2.343q-2.929-.879-2.929,2.05v61.914q0,2.931,2.929,2.637l7.813-1.172a3.134,3.134,0,0,0,2.93-3.418v-6.347q0-2.344,2.05-2.344,1.854,0,1.856,2.441v4.1q0,2.929,3.125,2.539l8.008-.977a3.012,3.012,0,0,0,2.929-3.32V920.812a5.863,5.863,0,0,1,2.344-4.394,75.887,75.887,0,0,0,6.836-6.934q2.441-3.123,2.344-.586a183.976,183.976,0,0,1-1.367,21.875q-0.391,13.575-14.746,30.274-2.637,2.929-1.954,3.906,0.682,0.683,3.809-.488l4.98-2.149q19.725-9.473,24.707-25.586,1.173-3.318,1.758.1,2.052,12.3,13.575,24.61,3.71,3.709,4.492.878,0.879-3.027,2.051-6.054,0.878-4.1,5.761-7.324,3.223-1.758,3.223-2.833,0-.585-2.93-2.05-3.906-1.953-7.812-4.395-10.158-6.639-12.891-14.062-4.687-9.765-3.418-15.137,0.2-3.026,1.563-3.711,3.123-1.268,2.832-2.93-0.2-.78-3.907-1.465-6.642-.681-12.988-1.074-3.222-.292-1.855-2.832,1.659-2.733,4-2.734h15.918q2.343,0,1.855,2.344-1.857,6.251-3.32,12.4-0.879,3.126-.2,3.711,0.879,0.585,4.1-2.637,3.709-4,7.422-7.617a6.75,6.75,0,0,1,4.687-2.344,41.1,41.1,0,0,0,5.664-.195q1.366-.879,1.172-1.758,0.1-2.146-2.929-4.2l-8.594-6.543q-2.834-2.147-5.469,1.172-2.442,2.929-4.785,2.929H855.191q-2.343,0-1.269-2.343l4.59-10.157a4.259,4.259,0,0,1,1.953-1.757,2.632,2.632,0,0,0,1.465-1.465q-0.1-2.051-2.539-2.149l-14.453-2.343q-2.736-.39-3.321,2.734a222.605,222.605,0,0,1-6.738,27.246h0Zm-15.332,27.442q0,2.343-2.051,2.343-1.856,0-1.855-2.441V890.344q0-2.345,2.05-2.344,1.854,0,1.856,2.539v39.649Zm120.117-47.266a2.117,2.117,0,0,1-2.441,2.344H922.672a8.382,8.382,0,0,1-3.711-.684L908.219,879.8q-2.93-1.172-2.93,1.758V927.16q-0.1,19.337-4.883,32.422-1.758,3.709-.879,4.492,0.682,0.39,3.223-1.66,11.328-10.45,14.844-21.973a59.47,59.47,0,0,0,2.929-15.625V905.09q0-2.345,2.442-2.344h3.808q2.345,0,2.344,2.442v14.55q0,2.929,3.516,2.539l8.789-1.172q2.929-.488,2.93-2.343t2.441-1.856h8.5q2.344,0,2.344,2.637,0,2.343,3.125,1.855l5.469-.683q0.389,0.292-2.539,2.539a7.01,7.01,0,0,1-4.3,1.465H924.82q-2.637,0-2.05,1.562,0.585,1.076,3.515,1.074h2.735a3.065,3.065,0,0,1,3.125,2.344,53.532,53.532,0,0,0,6.835,13.477q2.344,2.834-.2,4.687a112.466,112.466,0,0,1-24.414,12.793q-3.222,1.173-3.027,2.246,0.292,1.173,3.222.586a128.668,128.668,0,0,0,31.25-9.863,6.1,6.1,0,0,1,6.055.781,102.587,102.587,0,0,0,29.3,10.449q3.318,0.781,3.906-2.539a26.671,26.671,0,0,1,3.418-10.058q2.733-2.736,2.735-3.809t-3.028-1.367q-11.718-.975-21.484-2.734-3.128-.586-0.488-2.246,4.784-3.223,9.472-6.934,3.711-3.417,5.86-3.613,3.222-.294,1.757-3.223-5.177-3.612-10.449-6.836-2.149-1.464-.683-1.758,1.072-.293,1.074-3.222V905.09q0-2.345,2.441-2.344h11.328q2.929,0,3.907-1.269t-1.563-3.516l-4.883-3.906q-2.93-2.44-5.371.39l-2.441,2.93q-2.345,2.833-2.93,2.832-0.489-.1-0.488-2.637a3.578,3.578,0,0,1,1.953-3.515q2.83-1.269,1.465-2.93a4.467,4.467,0,0,0-1.465-.684l-14.649-1.171q-2.929-.1-2.929,2.832v5.761q0,2.344-2.442,2.344h-8.5q-2.343,0-2.343-2.832a3.243,3.243,0,0,1,1.855-3.223q3.709-2.246.488-3.613-7.325-.78-14.648-1.269-2.929-.1-2.93,2.832v5.761q0,2.344-2.441,2.344h-3.809q-2.343,0-2.344-2.441v-7.422q0-2.345,2.442-2.344h64.844q2.929,0,4-1.465,0.781-1.366-1.953-3.613-2.93-2.538-5.859-4.785-2.442-2.148-5.273,1.269l-2.344,2.93q-2.442,2.929-4.785,2.93H959.586q-2.344,0-2.344-2.442v-2.246q0-2.343,1.367-3.125,2.345-1.171,1.563-2.637a5.4,5.4,0,0,0-3.32-1.367l-14.454-.976q-2.734-.1-2.734,3.027v7.422Zm17.969,28.906q0,2.344-2.442,2.344h-8.5q-2.343,0-2.343-2.442v-6.64q0-2.345,2.441-2.344h8.594q2.246,0,2.246,2.539v6.543Zm-5.86,25.488a5.049,5.049,0,0,1-5.859,1.172,33.673,33.673,0,0,1-10.547-8.2q-1.662-2.929.684-2.93h22.656q2.44,0,.2,2.442a52.837,52.837,0,0,1-7.129,7.519h0Zm116.307-58.5q-2.535,2.929-4.88,2.93h-61.72q-2.636,0-1.953,1.562,0.586,1.077,3.513,1.075h25.49a2.121,2.121,0,0,1,2.35,2.441v26.465c0,1.562-.82,2.344-2.45,2.344h-21.77c-1.96,0-2.8.456-2.54,1.367,0.45,0.912,1.66,1.367,3.61,1.367h20.8a2.121,2.121,0,0,1,2.35,2.441v34.766c0,1.563-.82,2.344-2.45,2.344h-28.41q-2.643,0-2.055,1.562,0.585,1.074,3.515,1.075h85.74q2.94,0,4.2-1.368,1.17-1.269-1.95-3.906l-6.93-5.859q-2.835-2.345-5.28.683l-3.81,4.883c-1.62,1.953-3.22,2.93-4.78,2.93H1050.8a2.118,2.118,0,0,1-2.35-2.442V920.715a2.118,2.118,0,0,1,2.44-2.344h27.84a5.171,5.171,0,0,0,4.1-1.465c0.71-.845,0-2.18-2.15-4l-5.86-4.882q-3.225-2.733-5.47-.2c-1.43,1.628-2.77,3.256-4,4.883-1.7,1.953-3.32,2.93-4.89,2.93h-9.66a2.117,2.117,0,0,1-2.35-2.442V886.73a2.118,2.118,0,0,1,2.44-2.343h30.57c1.95,0,3.32-.455,4.1-1.367q0.975-1.269-1.56-3.516l-6.84-5.762q-2.925-2.439-5.07.2c-1.44,1.628-2.77,3.256-4.01,4.882h0Zm-10.35,50a23.308,23.308,0,0,1,2.93,6.739l1.17,7.812q2.535,8.4,9.47,5.567a9.677,9.677,0,0,0,5.67-8.887,11.745,11.745,0,0,0-2.93-7.813q-5.37-4.49-14.55-7.422-2.835-.975-3.42.1t1.66,3.906h0Zm44.63,33.4q0,2.929,2.93,2.636c2.99-.456,5.99-0.814,8.98-1.074a3.13,3.13,0,0,0,2.93-3.418V912.512a2.118,2.118,0,0,1,2.44-2.344h3.91q2.34,0,2.34,2.441v1.27q0,2.929,2.93,2.637l8.79-.977a3.009,3.009,0,0,0,2.93-3.32V887.414a4.905,4.905,0,0,1,1.86-3.711q2.925-2.538-.69-3.906-3.9-2.538-7.81-4.785a3.828,3.828,0,0,0-5.37.976c-1.82,3.386-3.65,4.688-5.47,3.907-3.25.39-5.6,0.033-7.03-1.075l-10.74-4.785q-2.925-1.267-2.93,1.66v86.524Zm43.75-47.949q0,2.929,2.93,2.636c2.99-.52,5.96-0.943,8.89-1.269,1.95-.325,2.93-1.334,2.93-3.028a2.156,2.156,0,0,1,2.44-2.441h4.29a2.117,2.117,0,0,1,2.35,2.441v34.766a2.118,2.118,0,0,1-2.44,2.344h-7.82c-1.95,0-2.96.227-3.02,0.683,0,0.325,1.07.846,3.22,1.563a15.285,15.285,0,0,1,5.17,3.515,21.937,21.937,0,0,1,2.74,6.836,3.262,3.262,0,0,0,3.61,2.832,29.755,29.755,0,0,0,8.79-1.66,8.012,8.012,0,0,0,5.27-6.738V887.512a3.77,3.77,0,0,1,1.76-3.321q2.64-1.757,1.37-3.027-5.28-3.516-10.64-6.641-2.94-1.757-5.77,1.465-3.12,5.079-5.76,3.907-4.395.684-7.13-1.27l-10.54-4.687q-2.64-1.173-2.64,2.05V914.27Zm-20.22-22.754c0,1.562-.81,2.343-2.44,2.343h-3.9a2.117,2.117,0,0,1-2.35-2.441v-6.641a2.118,2.118,0,0,1,2.44-2.343h3.91q2.34,0,2.34,2.441v6.641Zm44.05,0a2.118,2.118,0,0,1-2.44,2.343h-4.3q-2.34,0-2.34-2.441v-6.641c0-1.562.81-2.343,2.44-2.343h4.29a2.117,2.117,0,0,1,2.35,2.441v6.641Zm-44.05,13.574c0,1.562-.81,2.344-2.44,2.344h-3.9a2.117,2.117,0,0,1-2.35-2.442v-6.054a2.118,2.118,0,0,1,2.44-2.344h3.91q2.34,0,2.34,2.441v6.055Zm44.05,0a2.118,2.118,0,0,1-2.44,2.344h-4.3q-2.34,0-2.34-2.442v-6.054c0-1.563.81-2.344,2.44-2.344h4.29a2.117,2.117,0,0,1,2.35,2.441v6.055Zm53.9-28.125q-8.4.684-12.11-1.367l-6.83-2.246q-2.925-.975-2.93,1.953v87.4q0,2.637,3.32,2.051,4.1-.783,8.1-1.27a3.13,3.13,0,0,0,2.93-3.418v-58.5c0-1.562.82-2.344,2.45-2.344h4.78q2.145,0,1.47,2.637l-1.18,4.59q-0.87,3.029-3.41,2.148c-1.57-.454-2.48-0.488-2.74-0.1s0.16,1.2,1.27,2.441a17.3,17.3,0,0,1,1.76,3.906q-0.39,4.494,3.51,6.25c0.85,0.2,1.05.554,0.59,1.075q-0.975,1.758-4.69,1.269-2.925.2-2.24,3.125l1.27,5.762v17.48c0,1.954,1.13,2.8,3.41,2.539l2.93-.39c1.96-.327,2.93-1.074,2.93-2.246a1.47,1.47,0,0,1,1.66-1.66c1.04,0,1.6.131,1.66,0.39q-0.48,5.859-5.66,12.11-3.42,3.222-2.93,3.613c0.26,0.195,1.37-.2,3.32-1.172q13.275-5.958,15.33-17.383V938.1c0-1.563.3-2.571,0.88-3.028q1.95-1.268.39-2.148l-1.95-.391c-0.91-.129-0.68-0.65.68-1.562q1.665-1.953,2.35.976v28.614q0,2.929,3.12,2.441a29.262,29.262,0,0,1,4.1-.488,3.131,3.131,0,0,0,2.93-3.418V950.4c0-1.562.55-2.343,1.66-2.343a1.342,1.342,0,0,1,1.47,1.562c0,0.977.97,1.367,2.93,1.172l3.81-.391a3.016,3.016,0,0,0,2.93-3.32v-9.375q0-2.343.39-2.637a1.759,1.759,0,0,0,1.17-1.562c-0.2-.26-1.27-0.586-3.22-0.977l-5.08-.293a2.587,2.587,0,0,0-2.93,2.93v7.91c0,1.563-.56,2.344-1.66,2.344q-1.47,0-1.47-2.442v-5.273q0-2.343.78-2.832,1.86-1.074.69-1.758a11.237,11.237,0,0,0-2.74-.586q-2.925-.193-3.12-0.586a17.536,17.536,0,0,1,2.73-1.66l7.42-3.613q3.03-1.466,3.42.976-0.2,3.321,2.05,3.614,2.055,0.293,4.1-2.051,1.08-1.466,1.08,1.562v18.946a2.118,2.118,0,0,1-2.44,2.343h-4.69q-2.73,0-2.64.977c0.07,0.325,1.14,1.138,3.23,2.441a10.479,10.479,0,0,1,3.41,6.836,3.014,3.014,0,0,0,3.32,2.93,34.267,34.267,0,0,0,7.43-.781q6.435-1.37,7.12-7.324V884.875a4.087,4.087,0,0,1,1.37-3.418q2.34-1.659-.78-3.32l-7.13-4.3q-3.225-1.854-5.76.488c-1.82,1.758-3.52,2.637-5.08,2.637q-9.465.684-12.99-1.27l-6.83-2.343c-1.96-.65-2.93,0-2.93,1.953v25.586c0,1.953.75,2.832,2.24,2.636,1.44-.2,1.99.586,1.66,2.344-0.45,2.019-1.4,2.768-2.83,2.246a7.676,7.676,0,0,0-2.05-.586c-1.89-.52-2.99-0.586-3.32-0.195q-0.39.489,2.44,3.32l1.27,2.539q0,0.587-2.73-1.269a41.317,41.317,0,0,0-3.91-2.246q-2.925-1.66-4.88,1.269l-0.68.977c-1.31,1.953-2.12,2.636-2.45,2.051a9.485,9.485,0,0,0-1.56-2.149q-1.17-.975,1.08-2.148,4.185-2.637,6.83-2.93c0.59-1.172.03-2.051-1.66-2.637-1.11-.65-0.88-1.138.68-1.465l1.86-.293a3.135,3.135,0,0,0,2.93-3.417V884.875c0-1.563.42-2.539,1.27-2.93a5.575,5.575,0,0,0,1.76-1.269q0.285-.488-3.52-3.321c-1.63-1.171-3.25-2.246-4.88-3.222a4.654,4.654,0,0,0-5.86.488c-1.89,2.214-3.61,3-5.18,2.344h0Zm2.35,7.422a2.118,2.118,0,0,1-2.44,2.343h-5.08a2.121,2.121,0,0,1-2.35-2.441v-2.148c0-1.563.82-2.344,2.45-2.344h5.17q2.25,0,2.25,2.539v2.051Zm44.53,0a2.118,2.118,0,0,1-2.44,2.343h-6.64a2.117,2.117,0,0,1-2.35-2.441v-2.148a2.118,2.118,0,0,1,2.44-2.344h6.74q2.25,0,2.25,2.539v2.051Zm-44.53,9.961a2.118,2.118,0,0,1-2.44,2.343h-5.08a2.121,2.121,0,0,1-2.35-2.441v-2.441c0-1.563.82-2.344,2.45-2.344h5.17q2.25,0,2.25,2.539v2.344Zm44.53,0a2.118,2.118,0,0,1-2.44,2.343h-6.64a2.117,2.117,0,0,1-2.35-2.441v-2.441a2.118,2.118,0,0,1,2.44-2.344h6.74q2.25,0,2.25,2.539v2.344Zm0,16.5q0,2.343-2.34,1.171l-3.33-2.05c-2.01-1.236-2.89-2.083-2.63-2.539q0.195-.586-3.32-3.028-2.835-1.758-1.27-2.148a1.58,1.58,0,0,0,1.46-1.66c0-.911.82-1.368,2.44-1.368h6.74q2.25,0,2.25,2.54v9.082Zm-12.4.586q-2.16,3.027-2.44,1.953l-1.18-1.758c-0.39-.391.3-1.009,2.05-1.856l0.69-.293q3.225-1.172.88,1.954h0Zm-9.09,9.472c1.05,0.261,1.31.684,0.79,1.27-0.53.522-1.73,0.815-3.62,0.879a8.884,8.884,0,0,1-5.76-2.539l-0.78-.391c-1.89-.845-1.95-1.79-0.2-2.832q2.745-2.246,4.69-2.149,0.585-.681,1.17,1.856c0.2,1.694,1.43,3,3.71,3.906h0Zm21.49-.293c0,1.628-.29,2.051-0.88,1.27a6.726,6.726,0,0,0-3.13-2.149q-3.21-1.367-1.17-2.734l1.17-.684q5.085-3.125,4.01.879v3.418Zm-11.04,2.149q-3.705,0-.68-1.856,2.73-1.56,3.32-.1,0.585,1.662-2.64,1.954h0Zm-25.97,0c-1.83.065-1.92-.489-0.3-1.661,1.18-.65,1.92-0.552,2.25.293q0.39,1.27-1.95,1.368h0Zm2.83,6.543q0.585,2.929-1.95,2.636c-1.7-.064-2.54.879-2.54,2.832v8.3q0,2.344-1.86,2.344c-1.17,0-1.76-.813-1.76-2.442V938.1a2.729,2.729,0,0,1,1.27-2.637,1.592,1.592,0,0,0,1.08-1.367c-0.26-.391-1.37-0.748-3.32-1.074a2.728,2.728,0,0,1-1.27-.1q-3.42-.293-1.17-1.563,4.185-2.343,8.3-4.394c2.01-1.041,3.06-.781,3.12.781Z"/>
  <path id="大写字母" class="cls-3" d="M95.665,529.244q-1.587,5.207-4.38,6.665-1.968.636-1.968,1.143,0.062,0.571,1.968.571h8.823q1.905,0,1.968-.571-0.063-.507-1.968-0.635-4.062-.635-3.554-4.507a50.107,50.107,0,0,1,2.412-7.109,2.491,2.491,0,0,1,2.285-1.905h10.791a2.712,2.712,0,0,1,2.412,1.905q1.269,3.174,2.73,6.347,2.284,4.761-2.984,5.269-2.033.127-2.031,0.635,0.063,0.571,1.968.571h17.329q1.9,0,1.968-.508a0.9,0.9,0,0,0-.889-0.825,5.15,5.15,0,0,1-2.857-3.428q-8.316-19.995-16.44-39.99a2.777,2.777,0,0,0-2.539-1.9q-1.524,0-2.222,2.031-6.538,18.154-12.822,36.245h0Zm16.187-10.727q0.823,1.968-.762,1.967h-9.014q-1.522,0-1.079-1.523,2.412-6.411,4.57-12.632,0.7-1.841,1.524.191Zm31.255-26.28q3.62,0.571,3.492,4.444v34.848q0,4.189-3.492,4.825-2.031.189-2.031,0.7,0.063,0.571,1.968.571h25.137a16.04,16.04,0,0,0,10.791-4.443q5.268-6.411,1.206-13.775a14.254,14.254,0,0,0-7.173-5.522q-1.842-.7.127-1.524a12.328,12.328,0,0,0,6.792-6.157q2.157-5.332-1.778-10.093a15.812,15.812,0,0,0-9.965-5.141H142.854q-1.779,0-1.778.635,0,0.444,2.031.634h0Zm24.248,13.775q-0.889,4.633-6.347,6.538-1.905.128-1.9-1.4V494.522A1.375,1.375,0,0,1,160.69,493a6.977,6.977,0,0,1,6.094,4.507,13.429,13.429,0,0,1,.571,8.506h0Zm-0.063,26.6a5.878,5.878,0,0,1-4.443,3.555q-3.048.381-3.745-3.237V516.1a1.346,1.346,0,0,1,1.523-1.523q7.743,1.334,8.125,9.585,0.253,5.46-1.46,8.442h0ZM226.8,493l-5.078-1.968a18.951,18.951,0,0,0-7.046-.761q-12.315.7-18.535,13.139-4.444,10.157-.254,22.344,5.2,9.84,14.219,11.87,12.695,2.665,21.328-7.109a4.293,4.293,0,0,0,1.015-2.73q0-1.395-1.333.445-7.173,8.823-15.615,6.284-5.205-2.729-6.348-9.268-2.475-14.6,1.4-25.073,2.285-6.6,8.125-7.617,8.124,0,12,9.712,0.823,2.094,1.27,2.094,0.507-.062.507-1.967V492.047q0-1.905-.634-1.968a3.47,3.47,0,0,0-1.27,1.524q-1.778,2.475-3.745,1.4h0Zm14.434-.952a3.524,3.524,0,0,1,4,4.126v35.61l-0.127.7q-0.51,3.873-4.253,4-1.9.064-1.968,0.635,0.063,0.508,1.968.508h24.5a22.742,22.742,0,0,0,11.108-3.3,19.493,19.493,0,0,0,7.935-9.394,25.772,25.772,0,0,0,1.967-11.553,23.534,23.534,0,0,0-5.141-14.727q-6.666-7.427-15.108-7.68H240.658q-1.777,0-1.777.635,0.063,0.444,2.348.444h0Zm31.1,26.216a27.642,27.642,0,0,1-3.047,13.076q-4.064,5.2-9.9,4.062-1.842-.7-1.841-3.427V494.205a1.375,1.375,0,0,1,1.587-1.523q8.57-.381,11.362,8.7a51.41,51.41,0,0,1,1.841,16.885h0Zm24.083-26.153q4.7,0.255,4.57,4.888V531.72l-0.317,1.9a3.593,3.593,0,0,1-3.809,2.856q-1.9.064-1.967,0.635,0.062,0.508,1.967.508h34.976a1.983,1.983,0,0,0,2.158-1.968l1.4-9.712q0.316-1.9-.064-1.967-0.571-.063-1.142,2.158-2.667,8.506-11.426,9.712H316.6q-3.556-.381-3.238-3.745V516.422a1.376,1.376,0,0,1,1.587-1.524q3.871-.317,5.967,3.746a17.763,17.763,0,0,1,1.333,4.57q0.254,1.968.825,1.968,0.571-.063.571-1.968V504.742q0-1.9-.507-1.968-0.571,0-.889,2.349L322,506.393q-1.524,6.539-7.109,6.792a1.376,1.376,0,0,1-1.524-1.587V494.205a1.375,1.375,0,0,1,1.587-1.523h7.554q7.172,0.57,9.077,8.506,0.381,2.031.825,2.031,0.572-.063.572-1.968v-8.379a1.712,1.712,0,0,0-1.968-1.9H296.226q-1.779,0-1.778.635,0.063,0.444,1.968.507h0Zm48.9,0.064q4.443,0.444,4.38,4.443v35.23q-0.127,3.428-2.221,4.126a9.949,9.949,0,0,1-2.159.507q-1.9.064-1.967,0.635,0.062,0.508,1.967.508h22.154q1.9,0,1.967-.571-0.063-.507-1.967-0.508a9.035,9.035,0,0,1-3.174-.571,5.183,5.183,0,0,1-2.222-4.761V516.358a1.375,1.375,0,0,1,1.587-1.523,17.819,17.819,0,0,1,2.6.063,6.225,6.225,0,0,1,4.824,2.92,17.373,17.373,0,0,1,1.841,4.634q0.317,2.033.825,2.031,0.507-.061.508-1.967V505.631q0-1.9-.445-1.968-0.572-.063-0.825,2.158-0.572,4.254-3.11,6.221a11.16,11.16,0,0,1-6.284,1.27,1.376,1.376,0,0,1-1.524-1.587v-17.52a1.375,1.375,0,0,1,1.587-1.523h6.983q8.06,0.253,10.092,7.934,0.318,1.968.952,1.968,0.572-.063.572-1.968v-7.744a1.712,1.712,0,0,0-1.968-1.9H344.938q-1.651,0-1.587.7,0.062,0.381,1.967.508h0Zm49.664,13.457q-3.746,11.871,1.9,21.772,5.965,8.317,14.536,10.093a35.024,35.024,0,0,0,21.265-2.349,2.928,2.928,0,0,0,1.9-2.793V522.325a5.3,5.3,0,0,1,.952-3.364,3.674,3.674,0,0,1,2.031-.762q2.031-.19,2.031-0.7-0.063-.572-1.967-0.571H419.421q-1.9,0-1.968.444-0.064.636,2.222,0.889a4.21,4.21,0,0,1,3.11,4.253v11.616a1.8,1.8,0,0,1-1.523,1.9q-10.284,2.54-13.2-9.077a66,66,0,0,1-.7-19.551,24.607,24.607,0,0,1,3.047-10.156,10.083,10.083,0,0,1,4.634-4.126q4.7-1.776,10.156.762a17.863,17.863,0,0,1,7.491,8.7q0.7,1.968,1.333,1.968,0.57-.063.571-1.968V492.555q0-1.9-.571-1.968a0.768,0.768,0,0,0-.7.825q-1.27,2.54-3.745,1.841l-5.078-1.714a27.636,27.636,0,0,0-12.378-.952q-12.124,1.9-17.139,15.044h0Zm51.886-13.584q3.936,0.127,3.809,4.062v36.372l-0.191,1.207a3.151,3.151,0,0,1-3.618,2.792q-1.9.064-1.968,0.635,0.063,0.508,1.968.508h19.741q1.905,0,1.968-.571-0.065-.507-2.475-0.635-3.048-.126-3.047-3.745v-16.06a1.375,1.375,0,0,1,1.587-1.523h12.251a1.375,1.375,0,0,1,1.523,1.587v16q0.19,3.364-3.364,3.745-2.033.127-2.031,0.635,0.061,0.571,1.967.571h20q1.9,0,1.968-.571-0.063-.507-2.285-0.508-3.746-.063-3.872-3.936V495.982a5.912,5.912,0,0,1,.952-2.92,5.805,5.805,0,0,1,3.047-1.015q2.094,0,2.158-.571-0.063-.509-1.968-0.508h-20q-1.9,0-1.967.571,0.061,0.509,2.475.635,2.984,0.572,2.92,4v14.6a1.376,1.376,0,0,1-1.587,1.524H464.578a1.375,1.375,0,0,1-1.523-1.587v-14.6q0-4.06,3.554-4c1.27-.041,1.925-0.254,1.968-0.634q-0.065-.509-1.968-0.508H446.678q-1.779,0-1.778.635,0.063,0.444,1.968.444h0Zm59.947,0.063q3.174,0.129,3.873,2.286a13.609,13.609,0,0,1,.507,2.539v34.658l-0.381,2.348a3.928,3.928,0,0,1-3.935,2.539q-1.905.064-1.968,0.635,0.063,0.508,1.968.508h21.138q1.9,0,1.967-.571-0.063-.507-1.967-0.572l-1.841-.444q-2.413-1.2-2.285-4.634V497.315a9.753,9.753,0,0,1,.888-3.681,4.171,4.171,0,0,1,3.238-1.524c1.269-.041,1.925-0.254,1.967-0.634q-0.063-.509-1.967-0.508H506.688q-1.778,0-1.777.571,0,0.509,1.9.571h0Zm43.571-.127q3.11,0,4.253,2.286l0.444,2.539v35.356q-0.825,5.27-5.459,3.936-2.349-1.016-1.333-2.793a17.933,17.933,0,0,0,1.714-2.539q1.586-4.634-3.11-6.919-2.92-.825-4.317.127a6.445,6.445,0,0,0-2.92,3.427q-1.522,6.412,4.7,9.331a14.765,14.765,0,0,0,5.079,1.333,22.877,22.877,0,0,0,12-1.65q5.966-3.3,6.157-9.331V497.252a6.927,6.927,0,0,1,1.269-4.126,3.89,3.89,0,0,1,2.539-1.016q2.031-.126,2.032-0.634-0.065-.571-1.968-0.572H550.2q-1.778,0-1.777.635,0.063,0.446,1.968.444h0Zm32.779,0.445q2.412,0.825,2.6,4.443v34.912a4.438,4.438,0,0,1-2.793,4.38q-2.033.446-2.032,0.889,0.063,0.571,1.968.571h18.218q1.9,0,1.968-.444,0.062-.635-1.016-0.7-3.873-.38-3.872-4.57V520.167a4.661,4.661,0,0,1,1.206-2.983q1.2-1.4,2.1.127l9.14,15.932q0.762,2.539-2.285,3.047-2.033.255-2.031,0.762,0.063,0.571,1.968.571h19.233q1.9,0,1.968-.508,0-.572-1.27-0.825a6.832,6.832,0,0,1-2.412-1.65q-2.412-3.808-4.38-7.618L610.016,506.71a3.235,3.235,0,0,1,.19-3.809l2.856-3.808q4.443-6.728,8.126-6.856,2.03-.19,2.031-0.7-0.064-.571-1.968-0.571H610.714q-1.842,0-1.841.571,0,0.446,1.9.7,2.667,0.255,2.349,2.539a10.193,10.193,0,0,1-2.349,3.809l-11.235,14.79q-1.334,1.842-1.333.254V496.3a4.2,4.2,0,0,1,2.349-3.809q2.029-.507,2.031-0.952-0.065-.571-1.968-0.571h-17.9q-1.779,0-1.778.508,0,0.57,2.222.952h0Zm54.552-.318q4.571-.317,4.887,4.761v34.722q0.063,4.634-4.7,4.951-2.094,0-2.158.571,0.063,0.508,1.968.508h33.2q1.9,0,2.158-2.158,0.444-6.411,1.079-12.822,0.19-1.9-.381-1.968-0.57,0-1.079,1.9a25.26,25.26,0,0,1-3.935,8.887q-5.269,5.841-11.553,4.126-2.094-.571-2.158-3.174V496.935q0.063-4.824,4.507-4.825c1.269-.041,1.925-0.254,1.968-0.634q-0.064-.509-1.968-0.508H637.526q-1.777,0-1.777.635,0.063,0.444,1.968.507h0Zm46.807,0.127q3.429,0.571,3.365,3.745v35.166q-0.191,4.128-3.872,4.952-1.97.444-1.968,0.952,0.062,0.571,1.968.571h9.712q1.9,0,1.9-.635,0-.507-2.031-1.015a5.365,5.365,0,0,1-3.809-4.952V496.744q0-1.967,1.079.444l15.679,38.594q0.762,1.842,1.269,1.841,0.318,0,1.206-1.968l16.06-37.641q0.888-2.1.889,0.063v34.151q-0.129,3.746-4.063,4.189-2.033.127-2.031,0.635,0.062,0.571,1.968.571h19.8q1.9,0,1.968-.571,0-.507-1.46-0.572-4.443-.633-4.316-4.506V497.252l0.381-2.222a3.442,3.442,0,0,1,3.618-2.856q2.031-.126,2.031-0.635-0.064-.571-1.968-0.571h-14.6q-1.9,0-2.984,2.412-5.269,12.062-10.346,24.121-0.891,1.968-1.524.444l-10.029-25.073a2.813,2.813,0,0,0-2.73-1.9H683.826q-1.778,0-1.777.635,0.062,0.508,2.475.634h0Zm68.961-.063q1.65-.19,3.047,2.158a4.769,4.769,0,0,1,.889,2.793v33.96A5.145,5.145,0,0,1,753.8,536.1q-2.033.444-2.032,0.888,0.063,0.572,1.968.572h10.41q1.777,0,1.714-.7-0.063-.381-1.967-0.634-3.937-.635-4-4.825V499.41q0-1.586,1.27.127l28.247,36.753a4.365,4.365,0,0,0,3.428,1.9h0.444a1.711,1.711,0,0,0,1.9-1.967V496.871a4.385,4.385,0,0,1,3.555-4.57q2.031-.381,2.031-0.825-0.063-.571-1.967-0.572h-9.839q-1.905,0-1.968.572,0,0.509,2.031.634,3.808,0.762,3.809,4.317v24.057q0,1.588-1.46-.38l-21.074-27.3a4.368,4.368,0,0,0-3.428-1.905H753.168q-1.778,0-1.777.7,0,0.379,2.094.571h0Zm59.376,11.3a28.617,28.617,0,0,0-1.333,17.456q1.841,8.633,10.347,14.218a23.068,23.068,0,0,0,10.156,2.92,27.585,27.585,0,0,0,17.139-3.427q8.189-5.777,9.585-14.6,1.776-9.648-1.714-17.266a20.992,20.992,0,0,0-8.442-9.2,30,30,0,0,0-22.344-2.158q-8.76,2.475-13.394,12.061h0Zm31.167-.952a58.727,58.727,0,0,1,1.079,14.282,33.07,33.07,0,0,1-3.237,14.79,8.634,8.634,0,0,1-4.57,3.935q-7.872,1.588-10.664-8a51.419,51.419,0,0,1-1.587-10.156v-6.728q0.317-9.2,4-14.854,4-4.506,8.823-2.6,4.952,2.6,6.157,9.332h0Zm25.162-10.347q4.062,0.635,4.063,4.126v35.928q-0.065,3.618-4.126,4.189-2.032.127-2.031,0.635,0.061,0.571,1.967.571h21.583q1.9,0,1.967-.571-0.063-.507-1.967-0.572-2.857-.189-3.873-1.333a6.316,6.316,0,0,1-1.142-3.808V517.311a1.375,1.375,0,0,1,1.587-1.524h6.919a19.962,19.962,0,0,0,7.617-1.841q4.7-2.791,5.84-6.855a13.664,13.664,0,0,0,.317-6.411q-1.143-5.714-7.617-8.57a18.883,18.883,0,0,0-5.078-1.142H868.873q-1.778,0-1.777.7,0,0.381,2.094.508h0Zm21.456,1.142a6.438,6.438,0,0,1,3.173,3.174,21.855,21.855,0,0,1,.635,12.061q-1.461,5.4-6.919,5.459-1.9.063-1.9-1.524V494.078a2.006,2.006,0,0,1,.381-1.333,10.133,10.133,0,0,1,4.634.571h0Zm32.4,6.475a24.982,24.982,0,0,0-4,10.156,27.305,27.305,0,0,0,2.92,16.885q5.965,9.649,14.726,10.728a2.781,2.781,0,0,1,2.476,1.84,13.4,13.4,0,0,0,4.888,6.856,16.091,16.091,0,0,0,7.617,2.412,37.017,37.017,0,0,0,11.489-.762q1.905-.572,1.9-1.333T963.1,546q-8.889.254-13.2-7.109-0.572-1.269,1.206-1.714a22.313,22.313,0,0,0,5.014-2.032q10.665-6.791,11.236-18.852a25.986,25.986,0,0,0-2.476-13.711,20.4,20.4,0,0,0-8.315-9.077,29.318,29.318,0,0,0-18.726-2.793q-8.443.952-14.79,9.077h0Zm27.3-2.095a47.415,47.415,0,0,1,2.793,19.615,41.419,41.419,0,0,1-1.46,9.838q-2.349,8.951-9.712,8.506a7.116,7.116,0,0,1-4.888-3.237,30.865,30.865,0,0,1-4-15.234v-6.6q0.381-8.76,3.3-13.9a9.111,9.111,0,0,1,4.634-3.936q5.775-1.713,9.331,4.951h0Zm26.876-5.586q4.125,0.445,4.189,4.253v35.8q0,3.618-3.808,4.253-2.033.127-2.032,0.635,0.063,0.571,1.968.571h20.313q1.9,0,1.967-.571-0.063-.507-2.412-0.635-4-1.014-3.681-5.078V517.374q0-1.524,1.269-1.523,1.078,0,2.032,1.65l9.9,18.218a3.317,3.317,0,0,0,2.99,1.9h11.87c1.26,0,1.92-.19,1.96-0.571,0-.3-0.46-0.572-1.39-0.825a8.829,8.829,0,0,1-4-4.507l-8.19-14.727q-1.08-1.9.51-2.539,9.2-4.887,6.79-14.853a10.645,10.645,0,0,0-8-7.745,23.345,23.345,0,0,0-5.08-.888H977.024q-1.777,0-1.777.635,0.063,0.444,1.968.507h0Zm26.915,18.155q-3.18,4.317-8.888,3.554a1.375,1.375,0,0,1-1.523-1.587v-17.71A1.375,1.375,0,0,1,995.306,493q9.576-1.079,10.344,8.569a15.488,15.488,0,0,1-1.52,8.7h0Zm32.02-14.981a14.079,14.079,0,0,0-2.8,11.109q1.215,7.364,12.13,12.251a63.623,63.623,0,0,1,10.15,5.141,9.874,9.874,0,0,1,2.23,2.349q2.97,5.841-3.11,8.887a15.915,15.915,0,0,1-14.22-1.9,14.554,14.554,0,0,1-4.32-4.761,20.109,20.109,0,0,1-1.9-4.57q-0.51-1.966-1.08-1.968-0.57.064-.57,1.968v12q0,1.777.63,1.778c0.25,0,.83-0.635,1.71-1.9a3.278,3.278,0,0,1,1.84-1.015,21.417,21.417,0,0,1,4.51,1.4,25.617,25.617,0,0,0,11.62,2.158q9.075-.126,13.65-7.553a15.876,15.876,0,0,0,.82-11.49q-1.455-5.584-7.43-8.886-4.695-2.412-10.15-4.761a28.253,28.253,0,0,1-5.08-2.666,5.52,5.52,0,0,1-1.97-6.411,6.567,6.567,0,0,1,4.57-3.555,13.069,13.069,0,0,1,5.27-.444q8.955,1.016,12.06,10.156c0.3,1.312.61,1.968,0.95,1.968q0.57-.063.57-1.968v-9.712q0-1.9-.57-1.968a1.251,1.251,0,0,0-.89,1.016q-1.71,3.111-4.95.889a22.95,22.95,0,0,0-18.28-1.27,13.358,13.358,0,0,0-5.39,3.745h0Zm40.84,5.142q0,1.9.51,1.968c0.42,0,.73-0.74.95-2.222a8.977,8.977,0,0,1,1.52-3.809,10.15,10.15,0,0,1,9.65-3.364,1.376,1.376,0,0,1,1.52,1.587v36.562c0.09,3.174-1.27,4.931-4.06,5.269-1.35.085-2.03,0.3-2.03,0.635,0.04,0.381.7,0.571,1.97,0.571h20.56c1.27,0,1.93-.169,1.97-0.508q0-.572-2.28-0.761-4.065-1.015-3.75-5.015V494.522a1.377,1.377,0,0,1,1.59-1.523h3.43q6.4,0.381,7.8,7.427c0.13,1.312.4,1.968,0.83,1.968q0.57-.063.57-1.968v-7.554a1.714,1.714,0,0,0-1.97-1.9h-37.01q-1.77,0-1.77,2.031v7.427Zm49.85-8.443q2.535,0.129,3.3,1.587a12.714,12.714,0,0,1,.51,2.539v29.136a12.97,12.97,0,0,0,5.97,10.156q7.425,4.128,16.88,2.222,10.155-2.856,11.17-12.5V497.7q0-4.506,3.88-5.4c1.35-.254,2.03-0.529,2.03-0.825-0.05-.381-0.7-0.572-1.97-0.572h-9.71c-1.23,0-1.84.191-1.84,0.572,0,0.3.63,0.55,1.9,0.761q3.675,0.826,3.56,5.015v27.612q-1.41,11.235-12.64,10.347-6.285-1.269-6.72-7.871V496.617q0.06-3.554,2.72-4.316,2.04-.317,2.04-0.825c-0.05-.381-0.7-0.572-1.97-0.572H1126.4c-1.19,0-1.78.213-1.78,0.635q0.06,0.446,2.22.444h0Zm52.14,0.191a6.879,6.879,0,0,1,4,4.126l15.36,39.99c0.55,1.27,1.21,1.9,1.97,1.9s1.44-.74,2.03-2.221q7.365-19.677,14.92-39.356a8.343,8.343,0,0,1,3.68-4.126c1.35-.381,2.03-0.719,2.03-1.015-0.04-.381-0.7-0.572-1.97-0.572h-9.2c-1.19,0-1.78.213-1.78,0.635,0,0.254.64,0.466,1.91,0.635a2.637,2.637,0,0,1,2.79,2.475,14.22,14.22,0,0,1-1.4,5.079l-7.23,19.55c-0.51,1.439-.96,1.609-1.34.508q-4.44-11.361-8.63-22.724-1.395-4.127,1.84-4.888c1.35-.127,2.03-0.359,2.03-0.7-0.04-.381-0.7-0.572-1.97-0.572h-18.53c-1.19,0-1.78.191-1.78,0.572,0,0.339.42,0.571,1.27,0.7h0Zm53.41,0.063q2.67,0.636,3.81,4.063,6.6,19.995,13.39,39.99c0.47,1.27,1.1,1.9,1.91,1.9,0.76,0,1.37-.634,1.84-1.9l10.28-30.024c0.51-1.524.91-1.735,1.21-.635l9.58,30.659c0.42,1.27,1.08,1.9,1.97,1.9,0.85,0,1.5-.655,1.97-1.967l13.71-38.785q1.2-4.38,3.43-5.141c1.39-.169,2.09-0.445,2.09-0.825-0.04-.381-0.7-0.572-1.97-0.572h-6.53c-1.15,0-1.72.213-1.72,0.635,0,0.254.45,0.487,1.33,0.7q2.67,0.636,1.78,2.857l-8.12,22.344c-0.51,1.312-.93,1.459-1.27.444q-3.75-11.679-7.24-23.169c-0.47-1.354.09-2.2,1.65-2.539,1.36-.127,2.03-0.359,2.03-0.7-0.04-.381-0.7-0.572-1.97-0.572h-17.13c-1.27,0-1.93.191-1.97,0.572,0,0.339.65,0.614,1.97,0.825a3.393,3.393,0,0,1,2.79,2.221,29.847,29.847,0,0,1,1.65,5.079c0.17,0.677-.15,1.947-0.95,3.808l-4.83,14.536q-0.63,1.968-1.2.254l-6.41-18.852a10.072,10.072,0,0,1-1.02-5.967,2.231,2.231,0,0,1,2.09-1.143q1.08-.252,1.08-0.761c-0.04-.381-0.69-0.572-1.96-0.572h-17.9c-1.19,0-1.78.191-1.78,0.572,0,0.339.8,0.593,2.41,0.761h0Zm73.91,0.381a6.345,6.345,0,0,1,3.62,2.666,37.147,37.147,0,0,1,3.05,5.078q3.93,7.365,8.12,14.727a3.248,3.248,0,0,1,.19,3.428q-3.24,4.888-6.28,9.775-2.925,6.093-8.13,7.871c-1.35.3-2.03,0.593-2.03,0.889,0.04,0.381.7,0.571,1.97,0.571h11.24c1.22,0,1.84-.19,1.84-0.571,0-.3-0.64-0.529-1.91-0.7-3.55-.593-4.15-2.54-1.77-5.84l6.09-9.395c0.76-1.142,1.46-1.142,2.09,0l4.83,8.76a14.753,14.753,0,0,1,1.97,4.38,1.962,1.962,0,0,1-1.91,1.9c-1.31.212-1.97,0.508-1.97,0.889,0.05,0.381.7,0.571,1.97,0.571h18.54c1.27,0,1.92-.169,1.96-0.508q0-.633-2.28-1.523a11.229,11.229,0,0,1-3.75-3.745l-10.85-19.868a3.268,3.268,0,0,1-.19-3.428l6.92-10.982q2.85-4.506,6.47-5.205c1.36-.254,2.03-0.528,2.03-0.825-0.04-.381-0.69-0.571-1.96-0.571h-10.6c-1.27,0-1.91.233-1.91,0.7q0,0.446,2.1.635,3.045,0.635,2.09,3.618a41.721,41.721,0,0,1-2.92,5.078l-3.05,4.888c-0.84,1.269-1.56,1.4-2.15.381l-5.21-9.458q-2.79-4,1.08-4.7c1.35-.041,2.03-0.232,2.03-0.571-0.04-.381-0.7-0.571-1.97-0.571h-19.67c-1.19,0-1.78.212-1.78,0.635,0.04,0.339.74,0.677,2.09,1.015h0Zm52.52,0q1.785,0.318,3.37,2.984l11.17,22.851a6.2,6.2,0,0,1,.63,2.793v10.791q-0.57,4.761-4.44,4.507c-1.27,0-1.93.19-1.97,0.571,0.04,0.339.7,0.508,1.97,0.508h21.2c1.23,0,1.84-.19,1.84-0.571,0-.3-0.63-0.508-1.9-0.635q-4.32-.7-4.32-4.443V519.215a5.246,5.246,0,0,1,.32-2.158q5.07-10.791,10.35-21.582a5.474,5.474,0,0,1,2.79-2.793c1.31-.381,1.97-0.762,1.97-1.143-0.05-.381-0.7-0.571-1.97-0.571h-8.19c-1.27,0-1.93.19-1.97,0.571,0.04,0.381.68,0.593,1.91,0.635a4.16,4.16,0,0,1,2.22.888c0.68,1.609.42,3.492-.76,5.65l-6.99,14.79q-0.945,2.159-1.71.762-4.32-8.76-8.38-17.329-2.73-4.317.89-4.761c1.27-.042,1.93-0.254,1.97-0.635-0.04-.381-0.7-0.571-1.97-0.571h-18.41q-1.77,0-1.77.571c0,0.424.71,0.784,2.15,1.079h0Zm55.13,8.7c-0.05,1.4.1,2.138,0.44,2.222,0.21,0,.51-0.7.89-2.1q1.515-5.077,4.38-6.855a14,14,0,0,1,5.08-1.27h9.9c1.02,0,1.27.508,0.76,1.524q-11.805,20.439-23.42,40.879c-0.68,1.269-.38,1.9.89,1.9h37.32a1.961,1.961,0,0,0,2.16-1.9q0.45-5.84,1.08-11.49c0.17-1.48.04-2.2-.38-2.158-0.21.043-.53,0.741-0.95,2.1q-2.925,9.712-12.13,11.045H1426.9c-1.02,0-1.25-.508-0.7-1.523q11.745-20.5,23.67-40.816c0.72-1.269.45-1.9-.82-1.9h-32.76c-1.18,0-1.82.677-1.9,2.031Z"/>
  <path id="logo" class="cls-1" d="M706.266,1194.7a45.969,45.969,0,0,0-.118,5.15v5.16H677.555v-1.17l0.234-.94-1.406-.24c-1.1,0-2.659-.07-4.688-0.23h-3.281l-0.469,2.58a45.646,45.646,0,0,1-1.172,4.92,22.619,22.619,0,0,1-1.406,4.22,7.125,7.125,0,0,0-.82,2.23,6.584,6.584,0,0,0,2.109-.71c1.326-.54,2.615-1.13,3.867-1.76a11.566,11.566,0,0,0,3.516-2.81l1.641-1.64h66.8l1.875,1.88a14.477,14.477,0,0,0,3.75,2.81c1.406,0.62,2.655,1.17,3.75,1.64a1.036,1.036,0,1,0,1.171-1.17,17.1,17.1,0,0,1-1.406-3.99q-0.7-2.34-1.172-4.68a11.9,11.9,0,0,0-.7-3.05c0-.47-1.252-0.62-3.75-0.47-1.875.16-3.281,0.23-4.219,0.23a2.052,2.052,0,0,1-.937.24c-0.315,0-.469.31-0.469,0.94l0.235,0.93-13.594.24q-13.359,0-13.36-.24a2.838,2.838,0,0,1,.7-1.05,6.664,6.664,0,0,0,1.171-2.46,15.728,15.728,0,0,0,.469-4.22v-2.58h-4.687Q706.382,1194.46,706.266,1194.7Zm-31.289,28.12v4.22l21.093,0.23h21.094l-5.859,4.93q-5.4,4.215-8.2,6.56l-2.344,1.87v6.8H660.445v4.22h40.313v14.76c0,10.01-.158,15.47-0.469,16.41a13.152,13.152,0,0,1-1.172,3.05,21,21,0,0,1-2.578,3.04,16.962,16.962,0,0,1-3.75,2.82c-1.406.62-2.109,1.17-2.109,1.64s0.153,0.7.468,0.7a30.375,30.375,0,0,0,3.047-.47,34.353,34.353,0,0,0,4.922-1.4,16.4,16.4,0,0,0,4.688-1.88,11.74,11.74,0,0,0,3.515-2.34,12.264,12.264,0,0,0,2.344-2.58,13,13,0,0,0,1.172-2.58c0.311-.94.469-6.4,0.469-16.41v-14.76h38.2v-4.22h-38.2v-6.8l2.109-1.64q2.109-1.635,8.438-6.79,6.327-5.4,8.437-7.04a13.637,13.637,0,0,0,2.578-2.34q0-.225-28.828-0.23t-29.062.23h0Zm121.64-30.23-0.469,1.87a27.635,27.635,0,0,1-1.523,5.74c-0.861,2.43-1.681,4.65-2.461,6.68q-1.176,2.58-3.281,6.8-1.88,3.75-4.453,8.44-2.11,3.75-4.688,7.73-2.582,4.215-3.047,4.92a7.818,7.818,0,0,0-1.406,2.11c-0.157.47-.117,0.71,0.117,0.71a8.252,8.252,0,0,0,2.227-1.18q1.873-1.17,3.515-2.34,1.874-1.41,3.985-3.28a59.714,59.714,0,0,0,4.453-4.45l2.109-2.35,0.235,14.77,0.234,14.76h1.875a5.862,5.862,0,0,0,3.047-.7,5.457,5.457,0,0,0,1.875-1.17,11.374,11.374,0,0,0,1.406-1.64l0.469-.71h27.187v2.11l0.235,2.11h1.64a7.437,7.437,0,0,0,2.813-.47,9.072,9.072,0,0,0,2.109-1.17,4.666,4.666,0,0,0,1.407-1.64l0.7-.94h31.64v-4.45H838.336v-6.8H868.57v-4.45H838.336v-6.8H868.57v-4.68H838.336v-7.5H868.57v-4.69H837.164l0.938-1.17a23.668,23.668,0,0,0,1.406-2.35,6.445,6.445,0,0,0,.7-2.57,17.74,17.74,0,0,0,.469-4.93v-3.51H828.727v14.53H815.6q-13.129,0-13.125-.23c0-.16-0.158-0.24-0.469-0.24s0.311-1.41,1.875-4.22a69.182,69.182,0,0,0,3.281-7.5,16.732,16.732,0,0,0,1.406-3.98l0.235-1.17H796.617Zm31.406,22.03v7.5H802.477v-7.5h25.546Zm0,12.18v6.8H802.477v-6.8h25.546Zm0,11.25v6.8H802.477v-6.8h25.546Zm-3.515,16.88v5.16l-22.969.23H778.805v4.45h45.7v1.64c0,1.1-.081,1.64-0.235,1.64a40.222,40.222,0,0,1-4.687-1.17q-4.455-1.17-4.922-1.4-0.236,0-6.328,4.68-6.1,4.935-7.734,6.1-1.643.93-4.454,2.58a58.967,58.967,0,0,1-5.39,2.57q-2.812,1.185-5.391,2.23a35.226,35.226,0,0,1-5.859,1.76,17.416,17.416,0,0,0-3.047,1.05,6.06,6.06,0,0,0,1.289,1.06,3.994,3.994,0,0,0,1.992.94c0.469,0,2.344-.32,5.625-0.94s6.328-1.33,9.141-2.11q4.449-1.17,8.2-2.35a22.822,22.822,0,0,0,4.922-2.1q1.637-.945,9.14-6.1t7.618-5.04q0.115,0.12.117,13.48v13.12h1.406a7.357,7.357,0,0,0,2.813-.7,6.692,6.692,0,0,0,3.046-1.99,11.184,11.184,0,0,0,2.11-3.17,8.733,8.733,0,0,0,.586-2.34q0.115-1.17.117-6.33c0.154-4.68.271-7.11,0.352-7.26s1.442,0.55,4.1,2.11q3.982,2.1,6.8,3.51a34.945,34.945,0,0,0,6.328,2.58,54.282,54.282,0,0,0,6.328,1.64,52.974,52.974,0,0,0,5.625.94c1.718,0.16,4.219.23,7.5,0.23a38.521,38.521,0,0,0,5.86-.23,1.37,1.37,0,0,0,1.171-.94l0.235-1.17c0-.15-0.235-0.24-0.7-0.24-0.315,0-1.722-.23-4.219-0.7s-5-1.01-7.5-1.64q-3.516-.93-6.8-2.11-2.812-.93-5.625-2.11-2.346-1.17-10.078-6.33l-7.734-5.15,19.453-.24h19.453v-4.45H854.977l-20.157-.23v-2.58l-0.234-2.58H824.508Z"/>
</svg>
