<svg xmlns="http://www.w3.org/2000/svg" width="1540" height="1450" viewBox="0 0 1540 1450">
  <defs>
    <style>
      .cls-1 {
        fill: #fff;
      }

      .cls-1, .cls-2, .cls-3 {
        fill-rule: evenodd;
      }

      .cls-2 {
        fill: #fefefe;
      }

      .cls-3 {
        fill: #fdfdfd;
      }
    </style>
  </defs>
  <path id="字体名称" class="cls-1" d="M234.562,175.734a2.307,2.307,0,0,1-1.5,2.5q-1.5.5-8.25,0.5-18.5,0-24.75,2a8.824,8.824,0,0,0-3.75,2,3.683,3.683,0,0,0-.5,3.75q3,8.754,27,9.5a82,82,0,0,1,10.25.625q1.5,0.375,1.25,2.375a2.821,2.821,0,0,1-2.5,2.875,97.283,97.283,0,0,1-11.75,1.375q-16.5.75-18.75,3a4.979,4.979,0,0,0-1.374,5.25,7.87,7.87,0,0,0,4.124,4.75q2.5,1.5,16,1.75,11.25,0.5,12.876,1t1.374,4.5a5.844,5.844,0,0,1-.374,2.75,3.471,3.471,0,0,1-2.126.75q-2.25.5-11.5,0.5-19.75,0-23.75,2.25-4.252,2.25-4.374,6.125t4.124,5.625q4,1.5,13.376,2t34.874,0.5q32-.246,42.5-1.125t11.75-3.625q1.5-2.25.126-5.375a7.313,7.313,0,0,0-3.876-4.125q-4.5-2-24.25-3.25-18-1.248-20-3.25-1.252-1-1.124-1.5a4.011,4.011,0,0,1,1.624-1.5q5-2.5,22.25-1.75,7.249,0.252,8.876.125a5.114,5.114,0,0,0,2.874-1.125,8.992,8.992,0,0,0,3.5-7,7.722,7.722,0,0,0-1.124-3.75,6.478,6.478,0,0,0-2.626-2.75q-2-1-18-1.25-15.5-.246-17.25-1a1.811,1.811,0,0,1-1.5-1.625,2.921,2.921,0,0,1,.5-2.375q0.5-1,18-1.5t19.5-1q5-.75,7-4.25,3.75-5.748-3.25-9.75l-2.75-1.5h-18q-18.251,0-19.374-.625t-0.626-3.875a11,11,0,0,0-.5-5,8.7,8.7,0,0,0-3.5-3.5q-2.752-1.746-4.124-1.625a5.573,5.573,0,0,0-3.126,1.875,11.869,11.869,0,0,0-3.5,8.75h0ZM130.938,207.359a8.01,8.01,0,0,0,1.124,5.875q3.5,4.752,27,5.5,9,0,12.876-1.5t4.624-4.75a11.289,11.289,0,0,0-1.124-6,8.269,8.269,0,0,0-4.376-4q-3.5-1-23.5-.75-10.252,0-13.5,1.25A6.5,6.5,0,0,0,130.938,207.359Zm0.624,46.375q-1.252,2.5-.25,3.75,2,3.252,28.25,4l13.25,0.5,1.75-2a6.9,6.9,0,0,0,1-5.75,9.448,9.448,0,0,0-3.75-5.5q-4.252-3.75-23.25-1.75-14.752,1.5-17,6.75h0Zm90.5,1.5a20.473,20.473,0,0,1-6,1q-5.25,0-6.874,2.5t-2.126,11.25a78.7,78.7,0,0,1-1.5,12.25q-2.25,9-2.5,33.75,0,14,.5,16.75a4.245,4.245,0,0,0,3.5,3.5q4.748,1.5,7.25-2.5a10.3,10.3,0,0,0,1.5-3.375,42.366,42.366,0,0,0,.25-5.875,38.585,38.585,0,0,1,.25-6,2.244,2.244,0,0,1,1.5-1.5q3-1.5,26-1.875t26.5,1.125q3,1,2,4-0.5,2.5-6,3.25t-7.5,3.75q-2.753,4.746,0,7.75,2.5,3.246,5.75,3.25,1.5,0,5.5,2.25a16.187,16.187,0,0,0,8,2.25,38.682,38.682,0,0,0,6.75-.5l3-.5v-20.5q-0.251-48.75-2.25-58-1.5-6.5-4.75-7.75-1.5-.5-19.5-1.25-12.75-.246-23.25-0.75a53.751,53.751,0,0,0-9.25.25q-2.752.5-6.75,1.5h0Zm45.25,16.5a6.251,6.251,0,0,1,2.25,1.75q0.75,1,.25,1.5-1,1-14.374,2.125t-25.876,1.125q-7.5,0-9.5-.5-2.25-.5-0.75-3.75,3.248-6.5,13.5-5.5,6,0.5,13,.75,18,1.254,21.5,2.5h0Zm5.376,25.375q0.123,1.125-1.626,1.625-2,1-16.374,1.125t-25.376-.375q-9.5-.5-12.25-1-3.25-.5-0.25-2.75,3.248-2,33-1.5,18.75,0.252,21,1Q272.559,295.984,272.688,297.109Zm-119.376.375q-13,1-16.874,1.75t-4.626,3.25a4.263,4.263,0,0,0,.126,3.625,7.567,7.567,0,0,0,2.624,3.375q3,2,17.5,2.75t19.75-.75q5.75-1.746,4.75-7.75a10.134,10.134,0,0,0-1.75-4.5,8.489,8.489,0,0,0-3-3,10.726,10.726,0,0,0-3.75.25q-3.25.5-14.75,1h0Zm250.5-102.5a75.129,75.129,0,0,0-.5,11.25v10l-6,.75q-8.25.75-13.125,3.625t-4.875,6.625a5.49,5.49,0,0,0,2.875,4.875q2.625,1.377,10.375,2.375,9,0.75,10.5,3.25,1,1.752-1.375,5.25t-10.375,12q-8.754,9.252-11.375,13t-2.375,6.25a4.967,4.967,0,0,0,1.875,3.875,5.862,5.862,0,0,0,3.875,1.625q6-.246,10-7a37.406,37.406,0,0,1,5.75-7.625q3.5-3.621,4.75-3.625t1.25,2q0.246,2.25-2.75,5.875t-2.875,5.625q0.123,2,3.625,5.5a9.787,9.787,0,0,1,2.625,5.125,40.876,40.876,0,0,1,.5,8.5q-0.129,5.379-.375,15.125-1.5,6.5,1.25,9,1,1,3.75,1t3.5-.75q0.75-1,2.25-23.75a70.649,70.649,0,0,1,1-8q0-.75,3.5.5,9,3.5,14.5,3.25a11.75,11.75,0,0,0,5.25-1.375,9.553,9.553,0,0,0,3.75-2.875,18.1,18.1,0,0,0,1-4.625q0.246-2.625-1-3.625-1.254-1.5-11-4.625t-12.5-2.875q-4,0-5-6.5a76.823,76.823,0,0,1-.25-12q0.246-9,1-12,1-3.5,2.75-4.25t10.75-1.5q8.5-.5,11.5-1.375a8.534,8.534,0,0,0,4.75-3.375q1.746-2.5-.5-7.5-2-3.5-4.375-4.375t-12.375-.375l-11.25-.25-0.5-1.5q-0.75-1.248,0-9.25a78.474,78.474,0,0,0,.875-10.5,4.633,4.633,0,0,0-1.875-3.75q-4-3.75-9.5-.5A4.6,4.6,0,0,0,403.811,194.984Zm103.375-4.75q-0.375,1.752,1.875,5,2.748,4,17.375,18.625t18.625,17.125a4.611,4.611,0,0,0,4,.25,8.938,8.938,0,0,0,4.125-2.75q2.121-2.25,2.125-3.75,0-1.248-5.625-7.625t-10.625-11.125a129.051,129.051,0,0,1-10.25-9.75q-7-6.5-8.75-7.75a12.961,12.961,0,0,0-9.25-1Q507.559,188.486,507.186,190.234Zm-35.625,7.75q-2.5,2-2.5,2.75t-3.75,6.625q-3.75,5.877-7.25,10.375a51.84,51.84,0,0,0-4.625,7,7.544,7.544,0,0,0-.375,3.75,6.261,6.261,0,0,0,3,5.375,7.56,7.56,0,0,0,6.5.375,10.427,10.427,0,0,0,4.25-2.875,8.5,8.5,0,0,0,2.375-4.125,35.486,35.486,0,0,1,2.625-6.875q2.25-4.875,3.5-6.125a17.41,17.41,0,0,0,2.25-3,13.806,13.806,0,0,1,3-4,8.6,8.6,0,0,0,3.25-6.25,6.538,6.538,0,0,0-2.75-6,4.814,4.814,0,0,0-2-1.25,9.756,9.756,0,0,0-2.75,1.25A22.2,22.2,0,0,0,471.561,197.984Zm14.5,29.375q-2,4.125-6.75,17.375-7.254,21-12.5,41a77.185,77.185,0,0,0-2.5,17.75q-0.252,9.252.5,10.5,0.75,1,4.75,1.25t24.25,0.5l28,0.25,4.5,2.25q9.246,4.752,12.5-1.5a10.822,10.822,0,0,0,.875-5.5,13.34,13.34,0,0,0-1.375-6q-2.5-5.25-5-16.5-2-11-5.5-12.75a8.485,8.485,0,0,0-7.75-.25l-1.75.5v8.25q0,8.5-.5,9.75-0.75,3.252-9.5,5-18.5,3.75-26.5-.75-2.754-1.5-3.375-3.25t-0.375-6.5q0.246-4.248,3-13.875a178.119,178.119,0,0,1,5.75-17.125q2.25-5.25,2.25-6.25,0-1.248,3.25-7,9.5-16.746,4.25-20.75-3.5-2.5-6.75-1.25Q488.059,223.234,486.061,227.359Zm217.25-46.375q-33.5,3.5-38.75,7-3,2-1,6.75a8.286,8.286,0,0,0,6.25,4.75q4.248,0.75,18.75-.5,10.746-.75,13.375-0.375a5.008,5.008,0,0,1,3.875,2.625,7.452,7.452,0,0,1,.625,5.75,5.648,5.648,0,0,1-3.875,3.75q-2.754,1-12.5,2.5-21.252,2.5-24.5,6.25a8.285,8.285,0,0,0-1,3.25q-0.5,2.25,2,4.5a15.883,15.883,0,0,0,5.625,3.125q3.375,1.125,12.875.125,10-1.248,15.75-1.5l6.25-.5-0.5,9.25q-0.5,9.252-.5,9.5-0.252.252-17.5,1.25-20,1-26.875,2.5t-8.625,5a4.79,4.79,0,0,0,.25,4.5,10.727,10.727,0,0,0,3.5,3.75l2.25,1.5,24-.25,23.75-.5v23q0,22.752-.25,24.25a1.137,1.137,0,0,1-1.125.875,36.686,36.686,0,0,1-4.375-1.875q-7.752-4-12-1.25-7.752,4.752,1.5,13.25a33.025,33.025,0,0,0,20.5,9q4.248,0.5,6-1a5.3,5.3,0,0,0,1.375-2.375,50.63,50.63,0,0,0,.875-6.125q0.75-9.246,1.5-27,1.5-29,3.25-30.75,1-1,26.5-1t26.5-.75q2.748-1.5,2.875-5.375a7.491,7.491,0,0,0-2.375-6.125q-2-1.746-7-2.5t-20.25-1q-16.254-.75-20.375-1.125a17.989,17.989,0,0,1-6.125-1.375q-3.75-2.5-2.5-12,0.75-5.748,1.25-6,0.5,0,16.5-.75,15.246-.5,17.5-1.25,6.75-2.5,2.25-10.5a7.75,7.75,0,0,0-4-3.75q-2.25-.75-11-1.5t-15.75-.75h-6.75l-0.5-3.5a15.365,15.365,0,0,1,.25-6.25q0.5-2.748,2.125-3.25a77.966,77.966,0,0,1,10.125-1.25q16-1.248,20.625-2.125a14.478,14.478,0,0,0,7.125-3.125,7.1,7.1,0,0,0,2-5.25,10.341,10.341,0,0,0-.75-4.625,7.351,7.351,0,0,0-3.5-2.625q-2.25-1-9.25-1.375t-9,.375q-2,1-37.25,4.75h0Zm250.373-9.625a43.428,43.428,0,0,0-.625,6.875,42.638,42.638,0,0,1-.5,4.875,1.224,1.224,0,0,1-1.25,1.125q-1.5.5-16,.5-20.25,0-24.5-3t-7.25-.75a21.357,21.357,0,0,0-5.125,5.75,24.5,24.5,0,0,0-4.625,12.5,32.229,32.229,0,0,1-1.25,5.5,14.089,14.089,0,0,0-1,3.625,4.344,4.344,0,0,0,.75,2.125,11.09,11.09,0,0,0,1.75,2.75q1.5,1,5-1.875a36.279,36.279,0,0,0,6.75-7.625,5.154,5.154,0,0,1,3.375-3q2.121-.5,13.125-1,11.5-.246,50.75-0.75t42.251,0c1.83,0.168,3,.543,3.5,1.125s1.25,2.461,2.25,5.625a9.262,9.262,0,0,0,1.37,3.875,8.287,8.287,0,0,0,2.88,2.125q3.24,1.752,7.5-.25,3.5-1.5,3.75-3.25t-1.5-11q-1.755-12-4.75-13-5.25-2.5-38.751-1.75-23.5.5-24.25-.25-0.5-.5-1-5.25-0.75-6.5-2-7.25a16.63,16.63,0,0,0-4.25-.625,12.338,12.338,0,0,0-4.25.375A2.753,2.753,0,0,0,953.684,171.359Zm1.875,115.125-12.5.25a97.442,97.442,0,0,1-14.25,0,0.9,0.9,0,0,1-1.25-1,4.859,4.859,0,0,1,2.25-3.75,45.039,45.039,0,0,1,8.75-.75q17.5-.5,45-1,8.25-.5,13.625-1.25c3.586-.5,6.036-1.25,7.376-2.25a9.99,9.99,0,0,0,3-2.75,15.342,15.342,0,0,1,1.75-2.75q4.245-3.75,5.5-19,0.5-7.5,1.75-16.75t1.25-10.5a10.059,10.059,0,0,0-3-8.75,13.751,13.751,0,0,0-5-3.375q-2.5-.873-10-1.375a118.673,118.673,0,0,0-21.75,0,28.645,28.645,0,0,0-5.75,1,3.891,3.891,0,0,0-2,2q-1.752,3.5.25,6a5.71,5.71,0,0,0,3.625,2.125q2.625,0.627,11.625,1.875,11.25,1.254,13.25,2.125t2,3.75q0,2.877-2,3.625t-14.25,1.5q-8,.5-10.5,1.25a7.4,7.4,0,0,0-5.125,3.875,4.132,4.132,0,0,0,.875,5.125,5.719,5.719,0,0,0,3.125,1.375q2.121,0.375,12.625,1.125,13.746,1.254,15.251,2.75,1.245,1.254-1.751,9.25-1.254,3.5-3,3.75-3.252,1.5-17.875,2.5t-29.375,1q-8.754,0-16.125.5t-8.625-.25q-1.254-.75-2-5.25t1.25-5q0.75-.246,7-1.25,9.246-1.5,11-4.5a5.5,5.5,0,0,0,0-4,6.545,6.545,0,0,0-3.375-3.875q-2.379-1.125-7.875-1.125a75.685,75.685,0,0,0-9.25.5l-1.75.5-0.75-7.75q-1.254-7,.625-8.875t9.875-.875q6.75,0.75,9.25-.5a7.628,7.628,0,0,0,4.5-4.125q1.248-2.871-.75-4.625-2.25-2.5-16.25-3.75a37.241,37.241,0,0,0-8.75,0,10.036,10.036,0,0,0-5.25,3q-3.5,3.75-4.125,11.125t1.625,21.375q3.246,22.5,3.25,33a13.924,13.924,0,0,1-1.25,6.25,50.845,50.845,0,0,1-5.5,7.75q-5.5,6.252-7.375,8.875a13.353,13.353,0,0,0-2.375,5.625q-1,3.252,1.5,4.5a5.1,5.1,0,0,0,3.375,1.125,13.37,13.37,0,0,0,3.625-.875,8.38,8.38,0,0,0,4.25-3,17.8,17.8,0,0,1,4.25-5.75q5-4.5,6.875-5.125t13.375-.625q11.748-.5,37.125-0.25t43.126,1.5l1.5,1.25-0.25,7.75q0,8.5-1.13,9.875t-6.37-.125q-5.5-1.746-8.376-.125t-2.875,6.125a5.423,5.423,0,0,0,1.625,3.75,63.973,63.973,0,0,0,6.376,5.5,33.8,33.8,0,0,0,7.25,4.75,5.872,5.872,0,0,0,5-.25q3-1,6.37-7.875a95.834,95.834,0,0,0,6.13-17.125q5.49-20.748,1.25-25.25-4-4-44.751-4-19,.252-29.75.5h0Zm15.75,36.75q0,6.252,1.25,7.5,3.246,3.246,8.75-.25l0.75-3v-7.75a87.445,87.445,0,0,0-.25-9,3.382,3.382,0,0,0-1.25-2.25,5.107,5.107,0,0,0-3.75-1.25q-2.5,0-3.25.75-1.752,2.25-2.25,15.25h0Zm-38.625-7.5a76.126,76.126,0,0,0-.625,8.75q0.246,4,2.25,5.75a7.681,7.681,0,0,0,5.875,1.625,4.766,4.766,0,0,0,4.375-3.375q0.75-3-.25-10.375t-2.5-9.125a5.491,5.491,0,0,0-4-1.25q-2.754,0-3.75,1.5Q933.309,310.488,932.684,315.734Zm-19.625,3a30.284,30.284,0,0,0,1.5,10.625q1.5,3.873,4,3.125a7.09,7.09,0,0,0,3.125-2.125,8.425,8.425,0,0,0,2.375-4.375q2.748-7.5.75-12.5a6.881,6.881,0,0,0-3.625-4.25,7.3,7.3,0,0,0-5.625-.25q-2.754,1.254-2.5,9.75h0Zm40.25-7.375a19.383,19.383,0,0,0-1.25,3.125,20.849,20.849,0,0,0,.5,7.75q0.75,5.754,2.875,7.75t4.875,0.25q3.75-2.748,3.5-10.25a23.775,23.775,0,0,0-1.125-7.125,3.768,3.768,0,0,0-3.375-2.375,7.572,7.572,0,0,0-2.5-.75,7.6,7.6,0,0,1-1.5.5A2.644,2.644,0,0,0,953.309,311.359ZM1239.56,174.234q-0.75,3.252-2.25,4.375t-8,1.875q-11.25,1.752-12.5,4.5-2.01,4.5-1.63,28.625t2.63,28.375q1.5,3,15.25,4.5,8,1,34,.5,18.5-.246,22.62-0.5a14.353,14.353,0,0,0,5.88-1.25,12.221,12.221,0,0,0,3.5-3.375,6.905,6.905,0,0,0,1.5-3.875,7.791,7.791,0,0,1,1.75-4,9.21,9.21,0,0,0,1.5-5.625q0-3.621-1-22.375l-0.75-16.75-1.75-1.75q-3-3-15.25-4.25-10.26-1-12.5-3.25-1.26-1.5-1-6,0.5-6.75-.75-8c-0.67-.664-2.29-1.039-4.88-1.125s-4.37.711-5.37,2.375q-1.26,2-1,7.25c0,1.836-.17,2.918-0.5,3.25q-1.26,2-5.5,1.25a7.334,7.334,0,0,1-1.5-.5,15.368,15.368,0,0,1-.5-4.25q0.24-4.746.5-7a3.85,3.85,0,0,0-2-3.75q-5.5-2.748-9,.5-2.25,2.5-1.5,10.25h0Zm-2.63,26.125a6.387,6.387,0,0,1-.62,3.375c-0.67,1.168-2.29,1.5-4.88,1s-4.21-1.414-4.87-2.75q-1-3,1.25-4.25a8.7,8.7,0,0,1,4.37-1c1.75,0,2.96.336,3.63,1A3.391,3.391,0,0,1,1236.93,200.359Zm18.75,2.75q-2.625,1.875-4.37,1.125a4.333,4.333,0,0,1-1.13-2.875,4.762,4.762,0,0,1,.63-3q0.75-1.125,3.87-1c2.09,0.086,3.21.625,3.38,1.625Q1258.3,201.234,1255.68,203.109Zm28.75-2.5a2.637,2.637,0,0,1,1,2.625q-0.375,1.254-6.87,1.5a50.591,50.591,0,0,1-5.5-.25q-7-.75-5-5c0.66-1.164,2.21-1.832,4.62-2a19.721,19.721,0,0,1,7.88,1.25A7.4,7.4,0,0,1,1284.43,200.609Zm3.63,21.375,0.75,1.75q0,5-1.38,5.75c-0.91.5-3.71,0.75-8.37,0.75-5.34-.164-8.5-0.5-9.5-1s-1.59-2.164-1.75-5l0.25-2.25,1.5-1.25q2.49,0.252,11,1Zm-49.88,3.875q0.375,2.379-.12,2.875t-5.38-.125c-3.25-.414-5.16-0.789-5.75-1.125a2.882,2.882,0,0,1-1.12-2.25,2.842,2.842,0,0,1,.5-2.5c0.66-.664,2.5-1.039,5.5-1.125s4.75,0.211,5.25.875A7.908,7.908,0,0,1,1238.18,225.859Zm15.75-5a4.206,4.206,0,0,1,3.13,1.75,5.222,5.222,0,0,1,1,3.875,3.393,3.393,0,0,1-2,3q-1.26.75-3-.5a7.725,7.725,0,0,1-1.88-3.375,4.2,4.2,0,0,1,.13-3.375A2.476,2.476,0,0,1,1253.93,220.859Zm-16.62,49.625q-9.75,1-11.75,6.5c-0.5,1.336-1.09,4.625-1.75,9.875a64.611,64.611,0,0,0-.75,11.375q0.24,4,2,5.75,3,3.252,9.5,4.5t19.5,0.5l12-.75-0.5,4q-0.51,4-.75,8.75-0.255,4.5-1.38,5t-6.37.375q-5.25-.123-6.5-0.625-1.5-.75-2.25-4.5-1.26-6.5-4.88-8.75t-7.12,1.25q-3.255,3-3,9.75c0.16,2,0,3.293-.5,3.875s-1.92.875-4.25,0.875a19.669,19.669,0,0,0-9.63,3q-3.615,2.5-2.87,5.75,1.245,5,9.75,7,8.745,2,43.25.25l27-1.5,1.5-1.5a7.866,7.866,0,0,0,2-4.25,10.018,10.018,0,0,0-.25-5,7.486,7.486,0,0,0-4.38-4.75q-3.375-1.5-10.12-2c-4.34.168-6.75,0-7.25-.5q-0.51-.5.75-5a34.815,34.815,0,0,1,2.75-7.25,16.75,16.75,0,0,1,5.25-5q6.99-4,8.5-9.75a51.009,51.009,0,0,0,.75-10.375q0-7.125-.75-9.875a4.039,4.039,0,0,0-1.25-2.25,14.59,14.59,0,0,0-3-1.25q-10.5-3.246-32-3.25c-4.34-.164-7-0.332-8-0.5q-1.5,0-13.25.25h0Zm16.75-4.25a162.47,162.47,0,0,1,19,.5q12.75,0.75,18.37-.125t7.13-4.375q3.24-6.75-4-9l-6-1.5a45.8,45.8,0,0,0-8.5-1q-6.75-.5-15-0.5-12.255.252-25.75-.125t-16.75.125c-1.84.336-3,.875-3.5,1.625s-0.67,2.375-.5,4.875a5.67,5.67,0,0,0,2,5.25q3,2.25,17.5,3.75Zm24.5,24.25q0,1.752-19.25,2-21,0-24.25-1.25a2.455,2.455,0,0,1-1-1,3.071,3.071,0,0,1,1.37-1q1.38-.75,15.38-1.25t18.5,0.25q9,0.75,9.25,2.25h0Zm-68.75-51.5-0.75-7-1.25-3.25q-0.75-1.5-4.5-1.75-5.5-.75-6.75-3.625t-1-13.375q0.75-9.75.75-14.75a16.132,16.132,0,0,0-.38-4.625,4.159,4.159,0,0,0-1.37-1.625q-2.25-2.748-12.75-4-29.01-4-37-2.5-7.755,1.254-12,5.5a3.492,3.492,0,0,0-1.25,2.375v6.125q0.24,6,1,16a88.285,88.285,0,0,1,.25,10.625q-0.255,1.875-4,2.875c-2.17.336-3.54,1.125-4.13,2.375s-0.87,3.543-.87,6.875q0.24,15.252,5,17,4.245,1.752,6.75-5c0.16-1.5.66-2.414,1.5-2.75q1.74-2,19.5-2t27,0.25q8,0.252,10.37,1c1.59,0.5,2.54,2.168,2.88,5q1.74,5,6.75,3.5t5.75-7Zm-57.75-35c-1.67,1.5-2.54,2.793-2.63,3.875a24.158,24.158,0,0,0,1.13,6.375,40.6,40.6,0,0,1,1.25,7.875q0.24,4.125-.75,4.875a18.8,18.8,0,0,1-3.5.25,4.343,4.343,0,0,1-3-.75q-0.75-1.248-.75-13t0.75-13.25a6.011,6.011,0,0,1,2.5-1.75l9.75-.25q6.75,0.252,13,.25a47.761,47.761,0,0,1,10.5.5c0.83,1.168.96,2,.37,2.5s-5.46.586-14.62,0.25q-6.255,0-8.25-.25c-2.84.5-4.75,1.336-5.75,2.5h0Zm28.25,22.75h-16.75l-0.5-1v-11.75l1.75-.5,15.5,0.5q1.5,1.5,1,11.75Zm-30.75,28.25q-4.755,2.754-6.5,6.25a11.669,11.669,0,0,0-1.63,4.625q-0.375,2.625-.87,15.625-0.255,13,0,30.625t1,20.375q0.75,5,4.5,4.25c1.16-.168,2-1.086,2.5-2.75s0.83-4.918,1-9.75a81.887,81.887,0,0,1,.5-9.25q0.75-.246,8.5.75,4.5,0.75,16.75,2.25,8.25,1.254,9,1.75,1.5,1.254-4,7.25c-2,2.164-3.09,3.832-3.25,5q-0.75,3,1.12,4.125t8.38,2.125c3.66,0.832,6.25.582,7.75-.75s2.41-4,2.75-8q0.99-4.248.5-27-0.51-22.746-.75-34-0.75-8.25-2.13-11c-0.91-1.832-2.71-3.082-5.37-3.75q-2.25-.5-13.13-0.625t-18.87.375q-6.255.5-7.75,1.5h0Zm31.37,21.625q1.125,4.125.88,4.875-0.51,1.254-21,0-6.75-.5-8.25-2a7.629,7.629,0,0,1-1.13-3.875,3.8,3.8,0,0,1,1.13-3.375q2-1.746,15.25-1.75,9.99-.246,10.75,1Q1179.805,272.486,1180.93,276.609Zm-1.87,20.875a7.524,7.524,0,0,1,3.37,1.125c0.42,0.418.54,1.375,0.38,2.875l-0.75,1.75-8-.5q-23.01-1-24-2.25c-0.5-.332-0.54-1.039-0.13-2.125a18.981,18.981,0,0,1,1.38-2.875q0.99-1,8.75-.5a54.4,54.4,0,0,1,12.25,1.5q3,0.5,6.75,1h0Zm181.25-96.625q-7.5,3.129-8.75,5.125a7.961,7.961,0,0,0-.38,3.375c0.09,1.418.38,2.211,0.88,2.375s3.75-.25,9.75-1.25q18.5-2.5,22-1.5,3.99,1-4.75,11a75.627,75.627,0,0,0-11,17.25q-3.255,7.5-.75,13.25,1.5,3,6.62,8.25a51.328,51.328,0,0,0,9.63,8q8.49,5.5,10.75,8.25a10.7,10.7,0,0,1,2.25,7,10.268,10.268,0,0,1-1,5,12.561,12.561,0,0,1-4,3.75q-3.75,1.752-22,1a26.354,26.354,0,0,0-6.88.25,4.555,4.555,0,0,0-2.87,2.25,7.266,7.266,0,0,0,0,3.875,11.15,11.15,0,0,0,1.5,4.125q2,2.25,16,1.25t19.75-4a22.675,22.675,0,0,0,8-8.125,25.543,25.543,0,0,0,4-11.125q0.5-7-2.63-11.5t-12.12-9.5q-13.755-7.5-16-13.5a9.078,9.078,0,0,1,.5-7.75q2-4,10.25-14,10.5-12.75,11.25-17.5a5.841,5.841,0,0,0-2.38-5.875q-2.865-2.121-10.37-3.375a44.134,44.134,0,0,0-14-.25A53.1,53.1,0,0,0,1360.31,200.859Z"/>
  <path id="中文示例" class="cls-2" d="M294.147,717.537q-0.4,1-.6,9.7-0.8,31.1-1.5,38.5a11.156,11.156,0,0,0,.15,4.849,2.262,2.262,0,0,0,2.35,1.351,1.865,1.865,0,0,0,2-1.1,60.81,60.81,0,0,0,.5-6.7q0.4-10.1,1-10.4a21.716,21.716,0,0,1,4.2-.4q4.8-.2,7-0.4a19.073,19.073,0,0,1,3.2-.2,14.781,14.781,0,0,1,.4,3.551q0.2,3.351.2,6.249v4.6l-1.8-.1a11.46,11.46,0,0,0-1.7-.05,1.713,1.713,0,0,0-.8.65q-1.8,2.2,1,4a13.6,13.6,0,0,0,4.55,1.749q2.647,0.552,3.65-.05a2.513,2.513,0,0,0,1-1.9,54.764,54.764,0,0,0,.2-6q0-5.6-.3-9-0.8-9.9.7-31.6,0.5-7.2.25-7.5a9.717,9.717,0,0,0-2.25-1.2,10.825,10.825,0,0,0-2.3-.851q-0.8-.149-4.2-0.349-9.8-.5-13,0a5.1,5.1,0,0,0-3.9,2.6h0Zm18.1,4.6q0.8,0.9.8,6v4.4l-6.1-.2q-6.3-.2-7.2-0.3l-1.2-.2v-4.3a26.763,26.763,0,0,1,.35-4.349,3.26,3.26,0,0,1,1.05-1.75,2.746,2.746,0,0,1,1.7-.651q1-.048,5,0.151Q311.447,721.238,312.247,722.138Zm-1.7,17,2.1,0.4-0.2,3.4a24.465,24.465,0,0,1-.2,3.4q-0.1.1-6.25,0.351t-6.75.149a1.506,1.506,0,0,1-1.15-.75,20.714,20.714,0,0,1-.45-4.25l-0.2-3.7h3.3a46.166,46.166,0,0,1,5.5.3,30.6,30.6,0,0,1,4.3.7h0Zm-43.6-14.75a6.238,6.238,0,0,0-.95,2.649q-0.351,1.9-.85,7a48.761,48.761,0,0,1-.8,6.3,16.625,16.625,0,0,0,.1,6q0.4,2.9.7,7.6,0.4,4.9.7,6.6l0.3,1.5,1.3,0.5q3.6,1.2,13.6-.8,4.2-.8,4.5-1.7,0.5-1.3,1-11.5a98.984,98.984,0,0,1,1.2-12.1,60.432,60.432,0,0,0,.4-6.5,23.725,23.725,0,0,0-.2-5.3,1.234,1.234,0,0,0-.8-1,85.74,85.74,0,0,0-8.65-.3q-8.05-.1-9.45.1A3.111,3.111,0,0,0,266.947,724.388Zm14.8,9.55v3.2l-0.8.6a4.681,4.681,0,0,1-2.15,1,31.283,31.283,0,0,1-4.45.2q-1.6,0-2.65-.05a14.462,14.462,0,0,1-1.65-.151,4.338,4.338,0,0,1-.85-0.2,0.324,0.324,0,0,1-.25-0.3q0.1-.4.4-3.1a29.251,29.251,0,0,1,.5-3.6,2.277,2.277,0,0,1,1.85-1.7,23.569,23.569,0,0,1,5.55-.3,27.02,27.02,0,0,1,3.15.1,1.771,1.771,0,0,1,.95.5q0.4,0.6.4,3.8h0Zm-0.2,13.9a10.935,10.935,0,0,1-.1,3.9q-0.7,3.3-2.5,4.3-1,.5-4.8.5h-0.9q-3,0-3.55-.651t-0.55-4.55v-1.2l-0.2-5.2,5.9,0.1q5.8,0.2,6.1.5a5.858,5.858,0,0,1,.6,2.3h0ZM378,716.087q-0.651,1.852-1.15,9.051-0.5,5.6-.8,7.4a129.147,129.147,0,0,0-1.1,13q-0.5,8.3-1.3,13.9-1.1,8-.2,10.3a1.813,1.813,0,0,0,1.75,1.35,2.207,2.207,0,0,0,1.85-1.45q0.7-1.5,1.3-9.2a48.877,48.877,0,0,1,.6-5.9l0.3-.6h11.2q8.3,0,11,.149t3.2,0.75q0.4,0.3.5,6.1,0.1,5.6,0,6.1c-0.134.268-.767,0.2-1.9-0.2q-4.6-1.6-6,.5a1.316,1.316,0,0,0,0,1.549,9.8,9.8,0,0,0,2.8,1.85,31.322,31.322,0,0,1,3.6,2.1,9.172,9.172,0,0,0,2.3,1.251,10.008,10.008,0,0,0,2.2.65q1.8,0,2.25-3.85t-0.05-15.35q-0.4-10.5-.5-14.7a69.828,69.828,0,0,1,.8-15.9,5.832,5.832,0,0,0-.1-3,18.769,18.769,0,0,1-.9-3.1q-0.7-3.4-2-4.1a9.979,9.979,0,0,0-2.8-.5q-2.1-.2-12.45-0.349t-11.65.05A3.145,3.145,0,0,0,378,716.087Zm25.25,5.551,0.8,0.7,0.1,3.9q0.1,3.9-.2,4.4l-0.3.5h-21.2l-0.4-.5q-0.5-.7-0.25-3.45a28.012,28.012,0,0,1,1.05-5.451,2.67,2.67,0,0,1,.85-1.5,5.1,5.1,0,0,1,2.15-.6q1.3-.1,5.6,0t6.4,0.3q4,0.5,5.4,1.7h0Zm1.2,26.1h-25v-1.2a71.4,71.4,0,0,1,.6-7.3,1.413,1.413,0,0,1,.8-1.2q0.4-.1,9.1-0.5,11.7-.5,13.3-1.1a0.644,0.644,0,0,1,.8.1q0.3,0.1.4,5.6v5.6ZM489,718.837a38.01,38.01,0,0,0-.55,6.2q-0.3,6.1-.4,7.6l-0.2,2.1-5.1-.1q-5.4,0-6.9-.2-1.6-.1-1.7-0.55a10.524,10.524,0,0,1,.9-3.151,11.24,11.24,0,0,0,.9-4,7.3,7.3,0,0,0-.1-1.549,1.22,1.22,0,0,0-.6-0.651,3.064,3.064,0,0,0-3.2,0q-2.5,1.2-3.7,7.5-1.2,5.8-.8,7.5,0.2,0.9,2,1.151t9.6,0.45q7.8,0.3,8.1.4,0.7,0.3.7,4,0,2.7-.5,9.949a72.916,72.916,0,0,1-.7,7.65,2.577,2.577,0,0,1-1.3.9,15.921,15.921,0,0,1-4.15.651q-3.251.25-5.35,0.25a2.977,2.977,0,0,1-2.3-.8l-0.5-.6,1-2.4a15.506,15.506,0,0,0,1.6-6q0-2.3-1.2-2.7a2.435,2.435,0,0,0-2.5.149,6.4,6.4,0,0,0-1.8,2.951q-1.6,3.9-2.8,7.849a21.375,21.375,0,0,0-1.1,4.35,5.6,5.6,0,0,0,1.05,1.8,3.149,3.149,0,0,0,1.45,1.1q0.8,0.2,21.7.1l20.9-.1,1.6,0.7a5.793,5.793,0,0,0,2.05.851,3.428,3.428,0,0,0,1.75-.55,3.513,3.513,0,0,0,1.7-1.7,4.774,4.774,0,0,0,.6-2.051,7.584,7.584,0,0,0-.7-2.55,23.433,23.433,0,0,1-1.2-3.9q-0.5-2.8-.6-3.1-0.5-3.1-2-3.9a2.555,2.555,0,0,0-1.9-.1,4.451,4.451,0,0,0-1.5.7q-0.4.4-.5,4.3l-0.2,4h-8.3l-8.3.1-0.4-.6q-1.2-1.8-.6-13.3,0.2-4.9.45-6.35t0.85-1.651q0.5-.1,10.6-0.2,9.9-.1,10.9-0.4a1.916,1.916,0,0,0,1.5-1.25,18.966,18.966,0,0,0-.2-4.451,66.137,66.137,0,0,0-1.2-9.15q-0.6-2.25-1.8-2.75a3.487,3.487,0,0,0-2.65-.149,2.864,2.864,0,0,0-1.85,1.649,6.182,6.182,0,0,0,.1,2.9,15.058,15.058,0,0,1,.4,5.4l-0.2,1.3h-16.5l0.2-3.3q0.2-3.7.7-7.7a38.279,38.279,0,0,0,.4-5.1,3.508,3.508,0,0,0-.95-1.449,2.048,2.048,0,0,0-1.25-.75,5.752,5.752,0,0,0-1.8.7A3.158,3.158,0,0,0,489,718.837Zm81.8-2.649q-1.251,1.251-1.15,1.75,0.2,1.7,9.7,2.5a24.048,24.048,0,0,1,3.8.5q0.9,0.5.2,2.8-0.3.7-1.5,6.3l-1.2,5.5-6.6.2a53.753,53.753,0,0,0-7.7.4,2.879,2.879,0,0,0-1.75,1.55,2.545,2.545,0,0,0,.05,2.349q0.7,1.5,6.3,2a37.351,37.351,0,0,1,6.2.9,1.541,1.541,0,0,1,.9,1.75,35.562,35.562,0,0,1-1.7,6.149q-1,3-2.2,7.1a28.214,28.214,0,0,1-3.6,7.8,12.845,12.845,0,0,0-1.1,4.3q-0.4,3.4,0,4.1a1.464,1.464,0,0,0,.55.5,2.145,2.145,0,0,0,1.05-.1,4.926,4.926,0,0,0,1.7-.4q1.7-1.2,5.8-15.1,1.9-6.1,2.1-6.4a0.846,0.846,0,0,1,.7-0.5q0.6,0,4.2,2.3,6.3,3.7,6.7,3.9,3,1.8,4.9,3.2,1.8,1.5,4.45,3.3a29.019,29.019,0,0,1,4.15,3.3,53.02,53.02,0,0,0,4.7,3.4,17.651,17.651,0,0,0,4.3,2.4,3.856,3.856,0,0,0,3.9-1.2l1.3-1.3-0.8-1a15.907,15.907,0,0,0-4.3-3.9,92.608,92.608,0,0,1-8.5-6.2,35.755,35.755,0,0,0-5.2-3.2q-2.7-1.5-6.6-4.05t-5.8-4.049a26.7,26.7,0,0,1-3-2.85,5.406,5.406,0,0,1-1.4-1.951,0.771,0.771,0,0,1,.7-0.7q0.6-.1,15.2-0.4,14.5-.2,15.85-0.449a3.571,3.571,0,0,0,1.85-.75,2.7,2.7,0,0,0,.55-2.25,2.556,2.556,0,0,0-.95-2.05q-1.2-.6-15.1-0.9-14.8-.5-15.9-1.1-0.5-.2-0.3-1.4,0.2-1.3,1.2-5.15t1.5-5.449a4.073,4.073,0,0,0,.2-0.5,3.882,3.882,0,0,1,.75-1.6,4.777,4.777,0,0,1,2-.5,31.285,31.285,0,0,1,5.05,0q1.1,0.1,1.8.1a92.08,92.08,0,0,0,9.95-.051,3.146,3.146,0,0,0,2.55-1.55,3.291,3.291,0,0,0,.1-2.4,2.466,2.466,0,0,0-1.4-1.7q-1.6-.6-17.7-1.1-12.1-.4-14.9-0.55a7.6,7.6,0,0,0-4,.55A8.979,8.979,0,0,0,570.795,716.188Zm117.75,4.049a64.876,64.876,0,0,0-.2,6.6q-0.5,33.1-.7,34.9l-0.2.9-3.4.1q-7.8.4-12.2,1a7.5,7.5,0,0,1-2,.1,42.434,42.434,0,0,1,.5-4.9q0.6-4.8,1.1-7.4a35.231,35.231,0,0,1,1.1-5.1q0.9-3.6.6-4.8a2.6,2.6,0,0,0-2.1-1.7,2.042,2.042,0,0,0-1.8.2,6.391,6.391,0,0,0-1.65,3.4q-0.653,2.6-1.85,11-1.6,11.1-.6,13a3.587,3.587,0,0,0,1.3,1.5q2,1.1,10.1.7,14.9-.9,26.3-0.7,10.3,0.1,11.5.5,4.2,1.3,5.9-1.4l0.5-.9-0.5-1.9q-0.5-1.7-.6-13-0.1-11.2-.5-12.2a3.008,3.008,0,0,0-3-1.7,2.567,2.567,0,0,0-1.9.7,2.024,2.024,0,0,0-.6,1.9,99.785,99.785,0,0,1,.6,13.5v7.6l-3.2.2q-11.7.8-15.9-1.2h-0.1a2.74,2.74,0,0,1-1.6-2.2q-0.2-1.5-.1-9.9a3.5,3.5,0,0,1,.1-1q0.5-26.8-.2-28.2a3.525,3.525,0,0,0-1.85-1.6,2,2,0,0,0-1.95,0A2.819,2.819,0,0,0,688.545,720.237Zm163.4,24.35a0.825,0.825,0,0,1-1,.851q-0.5,0-8,.049t-8.5.051a0.617,0.617,0,0,1-.6-0.651,6.514,6.514,0,0,1,.05-0.9,1.292,1.292,0,0,1,.65-0.75q1.3-.5,8.8-0.3a60.977,60.977,0,0,1,8.4.5A2.269,2.269,0,0,1,851.943,744.587Zm2.4,23.851a4.152,4.152,0,0,1-.1,1.7,2.112,2.112,0,0,1-1.2.8q-2.5.8-13.7,0.8-5.9.1-7-.349t-0.6-2.751l0.7-1.6,7.3,0.2a103.333,103.333,0,0,0,10.5-.3q3.3-.7,3.7-0.1A3.389,3.389,0,0,1,854.343,768.438Zm-2.6-18q0.4,0.2.1,1.1a3.311,3.311,0,0,1-2.3,2.2q-1.2.3-16-.2a13.743,13.743,0,0,0-1.4-.1q-1-.2-0.6-0.8a7.549,7.549,0,0,1,1.3-2.6,160.628,160.628,0,0,1,16.2,0A11.907,11.907,0,0,1,851.743,750.438Zm-9.4,10.5-10.7.3-1.4.7a3.833,3.833,0,0,0-1.6,1.3,9.184,9.184,0,0,0-.55,3,16.782,16.782,0,0,1-.65,3.7,7.752,7.752,0,0,0,0,6v0.1a2.221,2.221,0,0,0,2.1,1.7q1.7,0.2,11.5,0h1.1q9.4-.3,12.05-0.5a9.942,9.942,0,0,0,3.55-.7,2.376,2.376,0,0,0,1.25-1.8,42.574,42.574,0,0,0,.25-6,50.074,50.074,0,0,0-.2-5.9,2.56,2.56,0,0,0-1.1-1.8,9.459,9.459,0,0,0-2.5-.549q-1.9-.249-2.2.049-0.2.2-10.9,0.4h0Zm18.4-45.8q-7-.1-7.1-0.4a2.35,2.35,0,0,1,.6-1.7,2.173,2.173,0,0,0,.5-1.9,1.7,1.7,0,0,0-.7-0.8,3.463,3.463,0,0,0-1.4-.2,4.3,4.3,0,0,0-1.5.2q-1.2.4-2,2.8a3.409,3.409,0,0,1-.5,1.1,1.5,1.5,0,0,1-.8.3q-1,.1-5.25.1a35.973,35.973,0,0,1-5.15-.2l-1-.1-0.2-1.2a2.543,2.543,0,0,0-1.7-2.4,3.6,3.6,0,0,0-2.65.25,2.83,2.83,0,0,0-1.75,1.75,2.153,2.153,0,0,1-.75,1.35,7.99,7.99,0,0,1-2.55.351q-7.6.5-8.9,2a1.707,1.707,0,0,0-.35,1.1,2.213,2.213,0,0,0,.25,1.3q0.4,0.7,6.4,1a35.057,35.057,0,0,1,4.5.45,1.711,1.711,0,0,1,1.3.75,1.593,1.593,0,0,0,.7,1l0.1,1.3a1.087,1.087,0,0,0-.4,1.1q0.4,1.1,2.8,1.1a2.36,2.36,0,0,0,2.05-.9,7.222,7.222,0,0,0,.95-3.1l0.1-1.4,2.3-.2a30.416,30.416,0,0,1,6.7.2,3.1,3.1,0,0,1,1.35.7,1.573,1.573,0,0,1,.55,1.2,1.992,1.992,0,0,0,1,1.75,1.892,1.892,0,0,0,2,.151,4.676,4.676,0,0,0,1.8-2.5,0.949,0.949,0,0,1,1-.5q3.6,0,7.5-.2v-0.2a16.7,16.7,0,0,1,1.8-.1,17.227,17.227,0,0,0,4.7-.75,1.863,1.863,0,0,0,.9-1.851,2.267,2.267,0,0,0-1.6-2.3q-0.5-.1-5.6-0.3v-0.1Zm-3.1,34c0.066-.865.1-1.8,0.1-2.8a37.393,37.393,0,0,0-.15-5.949,2.288,2.288,0,0,0-1.45-1.75q-1.1-.5-6-0.6l-5-.2-0.2-1.1q-0.1-1.2-.1-2.6v-0.75a1.834,1.834,0,0,1,.05-0.45c0.033-.133.083-0.183,0.15-0.151a0.668,0.668,0,0,0,.3.05q0.2,0.1,1.4.5,0.4,0.1.8,0.2,0.6,0.4,1.4.9a16.252,16.252,0,0,0,2.1,1.2c0.4,0.2.833,0.434,1.3,0.7a87.075,87.075,0,0,0,11.6,5.7,5.724,5.724,0,0,0,4.7,0,1.723,1.723,0,0,0,.9-1.1,3.765,3.765,0,0,0-.5-1.9,4.652,4.652,0,0,0-1.1-1.5,11.32,11.32,0,0,0-2.6-1.3,35.725,35.725,0,0,1-6.75-3.15,53.559,53.559,0,0,0-6.25-3.25q-2.4-1.2-2.5-1.3a35.088,35.088,0,0,1-4.3-2.4q-2.8-2-3.6-1.9a15.35,15.35,0,0,0-1.6.3q-4,1.1-10.1,6-4,3.2-5.7,4.6-1.4,1.3-3.6,3-3.1,2.3-3.1,3.8a1.028,1.028,0,0,0,.4.949,3.081,3.081,0,0,0,1.5.25q2.1,0,5.7-3.2a69.047,69.047,0,0,1,7-5.5,44.669,44.669,0,0,1,6.3-3.8,4.55,4.55,0,0,1,2.9-.25q1.5,0.351,1.5,1.349,0,0.4-1,.4a2.486,2.486,0,0,0-2.15,1.4,6.643,6.643,0,0,0-.85,3.5,1.4,1.4,0,0,1-.15.95,2.69,2.69,0,0,1-.85-0.049h-3.1l-3.2.1-0.8.4a6.163,6.163,0,0,0-2,4.1q-1.7,5.3-1.9,6a32.335,32.335,0,0,0-1,4.3,36.5,36.5,0,0,1-2.2,7.7,13.953,13.953,0,0,0-.9,3.2,12.414,12.414,0,0,1-.7,3,9.157,9.157,0,0,0-.6,2.6,2.218,2.218,0,0,0,.45,2.1,1.872,1.872,0,0,0,1.95-.1q1.6-.8,2.3-5.5a29.371,29.371,0,0,1,1.2-4.849q0.8-2.349,1.3-2.55,0.5-.3,4.4,0a98.074,98.074,0,0,0,9.95.149q6.45-.148,9.05-0.45,2.4-.4,3-1.2,1.6-1.7,2.3-7.8h0Zm105.8-29.1h-1l-7.2-.2v-1.4a4.575,4.575,0,0,0-.2-1.7,3.284,3.284,0,0,0-2.2-.75,2.937,2.937,0,0,0-2.2.35,10.39,10.39,0,0,0-1,1.7,3.41,3.41,0,0,1-1.4,1.6,12.45,12.45,0,0,1-3.45.55q-2.951.25-5.35,0.25a13.158,13.158,0,0,1-2.2-.1,1.927,1.927,0,0,1-.9-0.7,3.159,3.159,0,0,1-.8-1.2,1.519,1.519,0,0,0-.8-0.8,2.544,2.544,0,0,0-1.2-.4,4.219,4.219,0,0,0-1.7,1.3,5.154,5.154,0,0,1-1.9,1.351,37.806,37.806,0,0,1-5.3.55,19.143,19.143,0,0,0-5.1.75c-0.6.3-.9,1.084-0.9,2.349a2.15,2.15,0,0,0,.45,1.55,4.065,4.065,0,0,0,1.95.75,90.7,90.7,0,0,0,9,1.2,1.015,1.015,0,0,1,1.05.4,28.289,28.289,0,0,1,.45,3.6q0.3,2.4,1.9,2.4a1.982,1.982,0,0,0,1.75-1.05,17.263,17.263,0,0,0,1.45-4.151,1.644,1.644,0,0,1,.8-1.1,14.4,14.4,0,0,1,3.1-.3q5.1-.4,7.2-0.8l0.6-.1,0.2,2.7a22.747,22.747,0,0,0,.3,3.4q0.5,1.6,2.3.9a1.673,1.673,0,0,0,.95-1.05,26.941,26.941,0,0,0,.95-3.45l0.5-2,3.3-.2a22.545,22.545,0,0,1,3.3-.2h1.1q5.3,0.1,6.3.05a2.1,2.1,0,0,0,1.4-.449,3.506,3.506,0,0,0,.7-2.5q0-1.8-.7-2.2-0.7-.5-5.5-0.7v-0.2Zm-46.55,45.651a2.324,2.324,0,0,0-.45,1.65,2.754,2.754,0,0,0,.45,1.75,3.735,3.735,0,0,0,1.85.949,26.256,26.256,0,0,0,5.65.95,20.481,20.481,0,0,0,5.35-.15,3.453,3.453,0,0,0,2.95-2.249,2.421,2.421,0,0,0-1.15-3.051q-0.8-.5-5.65-0.75a35.464,35.464,0,0,0-7.15.151A3.89,3.89,0,0,0,916.893,765.688Zm3.25-13.051q-5.3.8-3,3.4,2.2,2.5,8.8,2.1,4.2-.3,6-2.3t0.1-2.9q-0.3-.1-3.2-0.451a18.964,18.964,0,0,0-3.4-.25q-0.3,0-3.3.2-1,.1-2,0.2h0Zm-4.1-12q-0.3,1.1,1.2,1.8a22.059,22.059,0,0,0,5.35,1.5,34.543,34.543,0,0,0,6.05.7q3,0,3.9-1.8,0.7-1.4,0-2.1a7.439,7.439,0,0,0-3.2-1.3,28.636,28.636,0,0,0-5.7-.651,24.747,24.747,0,0,0-5.2.151q-2.1.4-2.4,1.7h0Zm29.2,20.9a1.648,1.648,0,0,1,.1-0.5,61.961,61.961,0,0,1,.4-7.8,9.092,9.092,0,0,1,.8-2.75,2.62,2.62,0,0,1,1.2-1.449q0.7-.2,10.9-0.2,7.8,0,9.25-.1a6.032,6.032,0,0,0,2.25-.5q1.8-1,1.2-2.3-1.2-2.2-10.6-2.9a8.9,8.9,0,0,1-3-.4,1.4,1.4,0,0,1-.5-1.3,11.969,11.969,0,0,1,.5-2.949,12.682,12.682,0,0,0,.5-2.351,1.558,1.558,0,0,0-1.35-1.349,2.482,2.482,0,0,0-2.25.149q-1.2.7-1.9,4.5a8.568,8.568,0,0,1-.8,2.7,2.788,2.788,0,0,1-1.95.3,5.807,5.807,0,0,1-2.45-.6,4.568,4.568,0,0,0-1.7-.5,5.43,5.43,0,0,0-2,.7,17.281,17.281,0,0,1-3.7,1.1q-3.7.7-4.5,2a1.342,1.342,0,0,0,.1,2.049,8.363,8.363,0,0,0,3.9,1.55l1.2,0.4,0.2,2.5q0.1,2,.4,10.1h0.2a25.126,25.126,0,0,0,.6,4.8,5.511,5.511,0,0,0,2.3,3.7,9.752,9.752,0,0,0,4.45,1.55,87.47,87.47,0,0,0,9.55.35q6.4,0,8.3-.2a4.347,4.347,0,0,0,2.6-.9,2.149,2.149,0,0,0-.3-3.5q-0.6-.4-9.3-0.4-7.1,0-8.6-.2a9.488,9.488,0,0,1-3.3-1.2,5.4,5.4,0,0,1-2.7-3.9v-0.2Zm78.7-16a2.126,2.126,0,0,0,2,2.2q3,0.6,17.35.35t15.15-.95a2.669,2.669,0,0,0,.3-1.5,7.154,7.154,0,0,0,0-1.8c-0.2-.732-1.76-1.232-4.7-1.5q-3-.2-12.6-0.35a107.421,107.421,0,0,0-11.5.15q-6,.6-6,3.4h0Zm-1.5,8.8a2.025,2.025,0,0,0-1.4,2.5l0.1,0.9,2.7,0.8a35.818,35.818,0,0,0,5.2,1q3.3,0.3,3.3,1.1a1.07,1.07,0,0,1-.6.7,2.427,2.427,0,0,0-.8,1.9,5.563,5.563,0,0,1-1.1,2.6,27.943,27.943,0,0,0-1.6,2.7,7.078,7.078,0,0,0-.9,2.151,2.533,2.533,0,0,0,1.1,1.35,5.991,5.991,0,0,0,2.7,1.3,21.5,21.5,0,0,0,4.9.1q10.41-.4,12.8-0.25t3,1.15a2.6,2.6,0,0,0,1.4,1.2,2.527,2.527,0,0,0,1,.4,1.944,1.944,0,0,0,.9-0.4,5.317,5.317,0,0,0,1.8-1.45,5.689,5.689,0,0,0,1.1-1.65,1.319,1.319,0,0,0-.4-1.3q-1.1-1.4-1.1-5.9a4.346,4.346,0,0,0-.6-2.7,3.038,3.038,0,0,0-2.55-.7c-1.03.135-1.55,0.568-1.55,1.3a0.808,0.808,0,0,1-.6.75,2.26,2.26,0,0,0-1.05,1.2,2.322,2.322,0,0,1-1.65,1.251,41,41,0,0,1-6.15.8,27.29,27.29,0,0,1-5.35.2q-2.7-.8,2-5.2a11.538,11.538,0,0,1,3.4-2.1,91.448,91.448,0,0,1,9.3-.6q8.1-.4,9-0.651a1.829,1.829,0,0,0,1.2-.8,3.547,3.547,0,0,0,.3-1.651,2.806,2.806,0,0,0-2.3-3q-0.8-.2-10.7-0.2t-16.6.2q-8.19.3-10.2,1h0Zm4-39.7q-0.99,1.2,0,2c0.8,0.667,3.04,1.134,6.7,1.4a36.352,36.352,0,0,1,4.8.6,0.714,0.714,0,0,1,.5.8,0.922,0.922,0,0,1-.7.7q-0.795.5-7.4,1a86.062,86.062,0,0,0-11.2,1.149q-2.895.652-3.6,2.151-0.495.8-.7,6.5a42.75,42.75,0,0,0,.1,5.75,1.32,1.32,0,0,0,1.3,1.149,1.376,1.376,0,0,0,.9-0.05,2.381,2.381,0,0,0,.5-0.95,30.306,30.306,0,0,0,1.15-3.649,17.33,17.33,0,0,0,.75-4.05,1.542,1.542,0,0,1,.6-1.45,6.663,6.663,0,0,1,2.9-.25l2.5,0.1-0.2,1.2q-0.9,6-.3,7.1a3.285,3.285,0,0,0,1.9,1.45,1.28,1.28,0,0,0,1.7-.649c0.27-.333.6-1.733,1-4.2,0.54-3.066,1.1-4.7,1.7-4.9a15.771,15.771,0,0,1,3.6-.2l3.1-.1,0.3,1.9q0.4,7.7.9,8.7,0.6,0.7,2.7.6h1.2l0.3-4.8c0.27-3.333.44-5.066,0.5-5.2,0.34-.733,1.8-1.066,4.4-1a5.289,5.289,0,0,1,2.85.6c0.37,0.335.29,0.968-.25,1.9a8.323,8.323,0,0,0-.6,2.8,5.326,5.326,0,0,0,.5,2.8q1.8,2.4,3.3-1.9a22.817,22.817,0,0,0,1.3-3.5,3.891,3.891,0,0,1,1.2-2.2,11.654,11.654,0,0,1,2.8-.2,6.42,6.42,0,0,1,4,1.151,7.149,7.149,0,0,1,1.8,3.949q0.51,3.6,1.9,4.4a1.989,1.989,0,0,0,2.1-.2,4.131,4.131,0,0,0,1.5-2.1,26.548,26.548,0,0,0,.25-4.2c0.04-2.2.02-3.765-.05-4.7a4.276,4.276,0,0,0-.65-2.05,4.437,4.437,0,0,0-1.95-1.049,10.907,10.907,0,0,0-3.05-.5q-1.95-.1-10.05-0.4-11.49-.5-11.6-0.8c-0.2-.065-0.18-0.465.05-1.2a5.81,5.81,0,0,1,.65-1.5,1.505,1.505,0,0,1,1.15-.45q0.855-.048,4.35-0.05c3.4-.065,5.49-0.149,6.25-0.25a1.919,1.919,0,0,0,1.55-.849,2.217,2.217,0,0,0,.35-2.55,3.791,3.791,0,0,0-2.65-1.75q-1.395-.3-9.35-0.651c-5.3-.232-8.91-0.282-10.85-0.15q-7.1.5-8.7,2.8h0Zm110.7-3.4a35.327,35.327,0,0,0-2,3.3,18.614,18.614,0,0,0-2.1,4.9,6.086,6.086,0,0,0,.05,3.649q0.555,1.05,2.25.75a2.268,2.268,0,0,0,1.05-.449,15.327,15.327,0,0,0,1.65-1.75,3.547,3.547,0,0,1,2.2-1.2,43.5,43.5,0,0,1,6.1-.4,94.313,94.313,0,0,1,17.1.9q6.4,0.9,8.2.5t1.8-2.8a2.826,2.826,0,0,0-.6-1.9,3.7,3.7,0,0,0-2.05-1.2,37.819,37.819,0,0,0-5.05-.8,127.3,127.3,0,0,0-17.1-1l-6.9.2v-1.1c0-1.465-.43-2.365-1.3-2.7a3.382,3.382,0,0,0-1.8.1A2.537,2.537,0,0,0,1137.14,711.237Zm0.9,16.9a3.242,3.242,0,0,0-.4,1.8,2.746,2.746,0,0,0,.4,1.7,1.457,1.457,0,0,1,.4.75c0,0.167-.48,1.534-1.45,4.1s-1.68,4.318-2.15,5.25a5.433,5.433,0,0,1-1,1.6c-0.27.068-1.13,0.2-2.6,0.4q-4.6.5-5.7,2.2a3.469,3.469,0,0,0-.5,2.449c0.13,0.9.5,1.35,1.1,1.35a23.423,23.423,0,0,1,3.15.3,9.392,9.392,0,0,1,2.35.5c0.33,0.2.37,0.767,0.1,1.7a28.556,28.556,0,0,1-1.1,3.5,13.9,13.9,0,0,0-.9,5.1,9.032,9.032,0,0,0,.35,3.151,3.643,3.643,0,0,0,1.85,1.45,14.179,14.179,0,0,0,4.05.8q2.55,0.2,10.05.3,9.2,0.2,11.7.3l2.3,0.1-0.2,1.4a4.865,4.865,0,0,1-.45,2.05,3.307,3.307,0,0,1-1.45,1.05,4.922,4.922,0,0,1-1.4.5q-0.7,0-1.05,1.449a5.969,5.969,0,0,0-.05,2.751,2.018,2.018,0,0,0,1.3,1.55,13.557,13.557,0,0,0,3.8.349c2.13,0,3.47-.284,4-0.849s1.07-2.45,1.6-5.651c0.4-2.4.63-3.7,0.7-3.9a1.484,1.484,0,0,1,1.2-.7,6,6,0,0,0,2.5-1,1.993,1.993,0,0,0,.7-1.6,3.023,3.023,0,0,0-1.1-2.149,4.541,4.541,0,0,0-2.6-1.25,1.134,1.134,0,0,1-1.1-.8,24.061,24.061,0,0,1-.05-4.55,23.319,23.319,0,0,1,.35-4.25q0.195-.3,6.5-0.5l6.2-.2,0.2-.8a5.218,5.218,0,0,0-.2-3.3,2.234,2.234,0,0,0-1.45-1.25,27.19,27.19,0,0,0-4.55-.35c-2.87-.066-4.5-0.25-4.9-0.551s-0.57-1.382-.5-3.249q0.2-2.5.6-6.3,0.6-5.9-.3-6.9a7.42,7.42,0,0,0-3.6-1.9,45.012,45.012,0,0,0-8.3-.7q-6.6-.2-10.8.1c-4.13.334-6.67,1.234-7.6,2.7h0Zm23.9,3.949a1.989,1.989,0,0,1,1.1,1.051q0.4,1.1-.15,4.7a20.829,20.829,0,0,1-1.35,5.3l-0.4.9h-4.5q-9.9-.2-15.2-0.7a3.27,3.27,0,0,1-1.8-.5,1.806,1.806,0,0,1,.4-1.4,4.162,4.162,0,0,0,.7-1.7,2.891,2.891,0,0,1,.6-1.4,16.993,16.993,0,0,0,1.3-2.5,11.756,11.756,0,0,1,1.55-3.149,3.448,3.448,0,0,1,2.25-.951,30.851,30.851,0,0,1,5.6-.3,61.406,61.406,0,0,1,6.9.3A12.992,12.992,0,0,1,1161.94,732.087Zm-17.7,18.05q12.795,0.3,14.65.4a8.936,8.936,0,0,1,1.95.2,25.724,25.724,0,0,1,.2,4.951,27.864,27.864,0,0,1-.2,5.05q-0.3.3-12.2,0.2a9.1,9.1,0,0,0-1.6-.1q-8.7,0-10.15-.25a1.531,1.531,0,0,1-1.45-1.649v-0.3a13.752,13.752,0,0,1,1.6-5.9,5.269,5.269,0,0,1,2.1-2.8,7.382,7.382,0,0,1,2.45-.1,12.771,12.771,0,0,1,2.65.3h0Zm3.55-15.35a1.961,1.961,0,0,0-.55,1.25,4.071,4.071,0,0,0,.9,2,13.428,13.428,0,0,0,2,2.3,6.188,6.188,0,0,0,2.2,1.551,7.11,7.11,0,0,0,2.7.249l1.8-1.4a4.38,4.38,0,0,0-.5-3.1,8.52,8.52,0,0,0-3-2.6c-1.73-1.065-3.17-1.432-4.3-1.1A2.567,2.567,0,0,0,1147.79,734.787Zm-40.95,6.851q-0.705,1.7,1.8,2.749a21.128,21.128,0,0,0,7.4,1.151,19.144,19.144,0,0,0,5.2-.451,2.754,2.754,0,0,0,1.35-3.75,2.132,2.132,0,0,0-1.15-1.149,34.665,34.665,0,0,0-5.75-.351,49.279,49.279,0,0,0-6.25.1c-1.47.267-2.33,0.834-2.6,1.7h0Zm4.6,17.9a7.375,7.375,0,0,1-.75.151,1.915,1.915,0,0,0-.55.149,4.183,4.183,0,0,0-2.35,1.5,2.709,2.709,0,0,0-.95,2.2c0.2,0.868,1.53,1.435,4,1.7a41.028,41.028,0,0,0,5.25.1,35.211,35.211,0,0,0,4.95-.4,3.443,3.443,0,0,0,1.8-.851,2.258,2.258,0,0,0,.4-1.75,2.757,2.757,0,0,0-2.2-2.4,34.893,34.893,0,0,0-4.85-.351,46.545,46.545,0,0,0-4.75-.05h0Zm34.15-7.15a1.958,1.958,0,0,0-.55,1.25,4.071,4.071,0,0,0,.9,2,13.473,13.473,0,0,0,2,2.3,6.2,6.2,0,0,0,2.2,1.55,7.128,7.128,0,0,0,2.7.25l1.8-1.4a4.384,4.384,0,0,0-.5-3.1,8.529,8.529,0,0,0-3-2.6c-1.73-1.065-3.17-1.432-4.3-1.1A2.567,2.567,0,0,0,1145.59,752.387Zm-38.75-29.749q-0.705,1.7,1.8,2.75a21.135,21.135,0,0,0,7.4,1.149,19.115,19.115,0,0,0,5.2-.45,2.755,2.755,0,0,0,1.35-3.75,2.132,2.132,0,0,0-1.15-1.149,34.665,34.665,0,0,0-5.75-.351,49.279,49.279,0,0,0-6.25.1c-1.47.267-2.33,0.834-2.6,1.7h0Zm123.8,21.7a2.457,2.457,0,0,0-.45,1.451c-0.03.634-.05,2.349-0.05,5.15a76.376,76.376,0,0,1-.3,8.1q-0.795,7.8-.8,9.051a1.663,1.663,0,0,0,.8,1.649,6.456,6.456,0,0,0,3.2.6q2.2,0,8.2-.5,9.3-.8,10.1-1.4c0.2-.133.47-1.466,0.8-4a72.688,72.688,0,0,1,1.1-7.4,44.064,44.064,0,0,0,.5-8.3,23.524,23.524,0,0,0-.25-4.8c-0.17-.466-0.82-0.8-1.95-1q-1.5-.2-8.75-0.351a60.388,60.388,0,0,0-8.65.15,4.965,4.965,0,0,0-3.5,1.6h0Zm16.35,5a3,3,0,0,1,1.95,1.2,1.444,1.444,0,0,1,.4.8c-0.13.6-2.47,1.068-7,1.4-3.53.335-5.67,0.535-6.4,0.6a2.266,2.266,0,0,1-1.3-.1,4.027,4.027,0,0,1-.65-1.9,14.434,14.434,0,0,1-.35-2.7v-0.1q0-.3,5.5,0h0.5l0.1,0.1h1A61.9,61.9,0,0,1,1246.99,749.337Zm1.55,12c0.07,1.2,0,1.8-.2,1.8-0.27,0-1.8.235-4.6,0.7q-8.7,1.2-10.2.6a0.861,0.861,0,0,1-.65-0.45,16.584,16.584,0,0,1-.05-1.75,4.857,4.857,0,0,1,.55-2.4,2.956,2.956,0,0,1,1.75-.9,48.364,48.364,0,0,1,9-.7c1.47,0.067,2.4.134,2.8,0.2a1.808,1.808,0,0,1,1,.5,4.088,4.088,0,0,1,.6,2.4h0Zm-33.5-46.7q-0.6,1.5-1.05,25.55t0.05,30.049a6.212,6.212,0,0,0,.6,2.5,3.2,3.2,0,0,0,1.8,1,2.286,2.286,0,0,0,.9.15,1.605,1.605,0,0,0,.6-0.55,4.428,4.428,0,0,0,.8-1.6q0.6-2.7-.1-16.6-0.3-6.4-.4-10.3v-4.3l1.9-.3q2.295-.3,6.3-0.9c2.87-.465,4.63-0.8,5.3-1a1.448,1.448,0,0,0,1.15-1.149q0.15-.849.45-6.25a49,49,0,0,1,.55-6.2,21.791,21.791,0,0,1,1.35-4.2,9.573,9.573,0,0,0,.85-2.849,2.4,2.4,0,0,0-.65-1.75q-2-2.4-11.3-3.2a23.378,23.378,0,0,0-6.2,0,3.446,3.446,0,0,0-2.9,1.9h0Zm13.8,5.3a1.706,1.706,0,0,1-.1,2,1.183,1.183,0,0,1-.9.45q-0.6.051-3.3-.051a18.243,18.243,0,0,1-4.4-.35,1.757,1.757,0,0,1-1.4-1.15,1.739,1.739,0,0,1,.15-1.3,1.4,1.4,0,0,1,.75-0.9,12.019,12.019,0,0,1,3.15-.151,28.226,28.226,0,0,1,3.85.25A3.2,3.2,0,0,1,1228.84,719.938Zm-1,9.2a4.626,4.626,0,0,1,.5,2.3v1.9l-1.2.2c-0.53.068-2.07,0.168-4.6,0.3-2.27.135-3.58,0.085-3.95-.149s-0.52-1.083-.45-2.55a2.262,2.262,0,0,1,3.2-2.95,26.784,26.784,0,0,1,4.5.25A3.209,3.209,0,0,1,1227.84,729.138Zm18.95-16a3.909,3.909,0,0,0-.45,1.6q-0.3,1.7-.6,10.35t-0.1,9.051a6.672,6.672,0,0,0,2.2,1l2,0.8h7.3q5.2,0,6.4.049a2.488,2.488,0,0,1,1.6.451,2.387,2.387,0,0,1,.8,1.3q0.6,3.5.9,18.1,0.3,10.9.4,12.4l0.1,1.7h-0.9a5.358,5.358,0,0,0-4.1,1.6q-1.695,2,1.2,3.4a7.771,7.771,0,0,0,3.4.6,8.083,8.083,0,0,0,3.5-.6,3.755,3.755,0,0,0,1.9-1.9,4.387,4.387,0,0,0,.55-1.95q0.045-1.048.05-6.149,0-6.7-.3-15.2-0.3-8.4-.5-21.4l-0.2-12.8-0.6-.7q-1.395-1.5-6.2-1.9c-2.27-.133-5.53-0.25-9.8-0.351a58.994,58.994,0,0,0-7.3.051A2.352,2.352,0,0,0,1246.79,713.138Zm18.5,6.6c0.1,0.268-.12.5-0.65,0.7a26.759,26.759,0,0,1-4.85.149q-4.35-.048-7.25-0.25-2.895-.3-0.8-1.2,1.005-.5,6.4-0.3a54.354,54.354,0,0,1,6.2.3A1.257,1.257,0,0,1,1265.29,719.737Zm-0.6,8a2.26,2.26,0,0,1,1.35.9,0.7,0.7,0,0,1-.25.349,1.339,1.339,0,0,1-.65.35q-0.9.4-7.3,0.5-5.295.1-6.95-.05c-1.1-.1-1.68-0.349-1.75-0.75a1.946,1.946,0,0,1,.45-1.4,2.442,2.442,0,0,1,1.15-1,33.775,33.775,0,0,1,5.45-.051q4.65,0.151,6.05.351A19.065,19.065,0,0,1,1264.69,727.737Zm-986.343,161.1q-2.1,2.3,1.2,3.7a2.342,2.342,0,0,1,1.3,1q0.3,0.6.5,11,0.3,11.5.3,14.2t-0.3,3q-0.4.5-4.9,0.3a29.965,29.965,0,0,0-4.85.1,4.528,4.528,0,0,0-2.15,1.5q-1.5,1.7-.55,2.851t4.65,2.05q1.8,0.5,2.2.6,0.3,0.2-.6,2a11.126,11.126,0,0,0-.7,1.95,12.81,12.81,0,0,0,0,2.351q0.1,1.4.3,7.7,0.2,5.5.5,6,0.8,1.4,4.5,1.4a37.443,37.443,0,0,0,9.5-1.6,10.882,10.882,0,0,0,2.9-1.15,1.685,1.685,0,0,0,.8-1.451,4.181,4.181,0,0,0-.8-3.3,2.535,2.535,0,0,0-1.95-.55,31.518,31.518,0,0,0-4.85.849q-3.8.9-4.1,0.6t-0.3-5.4a25.133,25.133,0,0,1,.6-6.9l0.6-1.7,2.8-.1q4.2-.2,12.1-0.4,14.2-.4,17.9-0.9a2.422,2.422,0,0,0,1.5-.7,3.212,3.212,0,0,0,.5-1.7q0.2-2.7-1.6-3.4-1-.3-13.3-0.2-10.3,0-12.35-.2t-2.55-1.2a14.093,14.093,0,0,1-.75-2.649,4.836,4.836,0,0,1-.25-2.25q0.1-.1,9.1.2a109.5,109.5,0,0,0,11.75,0q3.15-.3,3.75-1.5a3.793,3.793,0,0,0,.3-1.8q0-2.1-2.5-2.7-1-.3-10.1-0.5a85.794,85.794,0,0,1-10.65-.6,1.832,1.832,0,0,1-1.65-2.2,1.07,1.07,0,0,1,.7-1.25q0.7-.148,11-0.449,10.4-.2,11.3-0.5a2.777,2.777,0,0,0,1.5-1.15,3.258,3.258,0,0,0,.7-1.951q0.1-1.7-2-2.5-1.8-.6-18.7-0.2l-4,.1v-2.3q0-2.2.6-2.8a2.012,2.012,0,0,1,1.2-.5q0.8-.1,4.5-0.1,5.7,0,11.1.2,5.9,0.1,6.5-.4a2.694,2.694,0,0,0,1.15-1.75,3.172,3.172,0,0,0-.25-2.149q-0.6-1.2-4.9-1.7-3.3-.5-12.6-0.8a102.014,102.014,0,0,0-11.6,0,6,6,0,0,0-4,1.9h0Zm27.6,46.1a36.2,36.2,0,0,1-3.4,2l-1.2.6-1.5-1.2q-2.6-2-4-1.8a1.98,1.98,0,0,0-1.8,2.2,6.312,6.312,0,0,0,.45,2.649,9.33,9.33,0,0,0,1.85,2.351,48.514,48.514,0,0,0,4.5,3.9,28.08,28.08,0,0,0,3.9,2.7q2.1,1,4.8,2.4a4.556,4.556,0,0,0,4.6.1,3.459,3.459,0,0,0,1.75-2.1,2.706,2.706,0,0,0-.45-2.4,7.284,7.284,0,0,0-1.85-1.6,15.961,15.961,0,0,0-2.25-1.3,7.212,7.212,0,0,1-2.1-1.051,7.865,7.865,0,0,1-1.5-1.05,30.664,30.664,0,0,1,2.7-2.2,20.165,20.165,0,0,0,3.2-2.8,2.227,2.227,0,0,0-.1-3.2,2.574,2.574,0,0,0-1.9-.7,5.5,5.5,0,0,0-2.3.5q-1.9,1.1-3.4,2h0Zm62.8-43.9a13.6,13.6,0,0,1-1.65.3,0.79,0.79,0,0,1-.55-0.4q-0.7-.9-1.2.3-0.5,1.3-.9,10.6-0.3,6.3-.65,8.351a67.734,67.734,0,0,0-.55,7.55q-0.5,9.3-1.3,14.4a23.57,23.57,0,0,1-1.5,6,15.206,15.206,0,0,0-1.5,6,2.464,2.464,0,0,0,.55,1.651,1.8,1.8,0,0,0,1.45.65q1.3,0,2.1-3.3a14.625,14.625,0,0,1,.9-2.9,6.214,6.214,0,0,0,.5-2.1,6.821,6.821,0,0,1,.6-2.2,23.9,23.9,0,0,0,1.6-6.6q0.5-4.1.9-13.3a81,81,0,0,1,1-10.7,31.051,31.051,0,0,0,.6-5.2l0.1-3.6,2.8-.2q3.5-.2,19.55-0.05t16.85,0.35a2.187,2.187,0,0,1,1.3.8,25.594,25.594,0,0,1,.1,4.7,84.9,84.9,0,0,1-1.2,10.8l-1.2,6.6,0.1,5.2q0.2,7.3.65,10.5a11.646,11.646,0,0,0,1.45,4.7,16.6,16.6,0,0,0,3.3,4.05,15.214,15.214,0,0,0,4,2.849,8.558,8.558,0,0,0,2.8.8,4.794,4.794,0,0,0,2.5-.2,5.345,5.345,0,0,0,2.1-2,9.661,9.661,0,0,0,1.4-3.4,4.1,4.1,0,0,0,.05-2.1,2.337,2.337,0,0,0-1.15-1.2q-2.7-1.7-5.6,1.8l-0.9,1-1.3-1.5a14.552,14.552,0,0,1-3.1-4.7q-0.9-2.7-1.2-13-0.2-5.8.2-7,0.5-1.5,1.2-4.4,0.8-3.5,1.2-4.9a37.821,37.821,0,0,0,.95-5.751,28.239,28.239,0,0,0,.25-5.65,4.667,4.667,0,0,0-.7-2.5,2.863,2.863,0,0,0-1.65-1.2,25.292,25.292,0,0,0-4.35-.5q-3.7-.2-17.9-0.2t-17.8.2a35.445,35.445,0,0,0-5.2.6h0Zm5.65,15.151a1.686,1.686,0,0,0,.25,2.449q1,1.3,5.6,1.8a5.377,5.377,0,0,1,2.8.7,1.381,1.381,0,0,1,.15,1.851,3.163,3.163,0,0,1-2.45.75q-5.4,0-6.9,3.3-1.2,2.4-1.2,8.1,0,4.6,1.2,5.1a39.17,39.17,0,0,0,4.7.5,28.444,28.444,0,0,1,4.5.4q0.9,0.2.1,3.25t-1.9,3.351a27.733,27.733,0,0,1-3.4.7,12.944,12.944,0,0,0-3.6.9q-1.9.9-1.8,2.4,0.2,1.6,3.45,2.25a92.7,92.7,0,0,0,12.55.95q7.6,0.3,9.1.6a7.629,7.629,0,0,0,4.3,0,2.163,2.163,0,0,0,1.4-2.3,23.3,23.3,0,0,0-.9-5.2q-0.9-3.5-1.5-4.1a1.86,1.86,0,0,0-1.8-.4,3.382,3.382,0,0,0-1.95.65,7.083,7.083,0,0,0-1.45,2.149,5.784,5.784,0,0,1-1.2,1.9,7.7,7.7,0,0,1-3,.149,10.816,10.816,0,0,1-3.3-.55l-0.9-.4v-2.4a10.05,10.05,0,0,1,.25-2.75,1.954,1.954,0,0,1,1.15-1.151,48.611,48.611,0,0,1,5.65-.449,27.556,27.556,0,0,0,6.3-.75,3.07,3.07,0,0,0,1.85-2.2,28.414,28.414,0,0,0,.35-5.55,39.083,39.083,0,0,0-.15-5.551,1.83,1.83,0,0,0-.9-1.1q-1.2-.6-6.3-1a35.008,35.008,0,0,1-6.3-.8q-0.5-.1-0.5-1.2a1.459,1.459,0,0,1,.95-1.6,30.148,30.148,0,0,1,5.25-.5,35.7,35.7,0,0,0,6-.5,2.616,2.616,0,0,0,1.95-1.65,1.84,1.84,0,0,0-.55-2.151,3.6,3.6,0,0,0-1.65-.949,22.725,22.725,0,0,0-3.35-.45q-2.6-.3-10.1-0.25t-9.1.25Q375.346,905.038,374.4,906.188Zm9.15,18.75a21.414,21.414,0,0,1-3.4-.551,9.383,9.383,0,0,1-2.7-.75,5.353,5.353,0,0,1,0-2.9q0.3-.5,3.6-0.5l2.6-.1v2.4a10.957,10.957,0,0,1-.1,2.4h0Zm13.8-2.9a2.153,2.153,0,0,1,.9,1.3,1.017,1.017,0,0,1-.8,1.05,15.508,15.508,0,0,1-3.6.25q-3.9.1-4.8-.349t-1-2.35a1.163,1.163,0,0,1,.7-1.25,10.445,10.445,0,0,1,3.1-.15,16.182,16.182,0,0,1,3.7.4A5.239,5.239,0,0,1,397.346,922.038Zm121.3-8.05a3.319,3.319,0,0,0-.6,1.05,6.956,6.956,0,0,0-.4,2.95,4.651,4.651,0,0,0,.6,2.349,2.537,2.537,0,0,0,1.75,1.151,3.244,3.244,0,0,0,1.95-.3,3.03,3.03,0,0,0,1.25-2.3,4.773,4.773,0,0,0-.25-3.05,3.766,3.766,0,0,0-1.45-1.3,4.275,4.275,0,0,0-2.15-.6A0.907,0.907,0,0,0,518.646,913.988Zm-21.2,14.55q0.2-.2,11.4-0.7l2.2-.1a81.723,81.723,0,0,0,8.55-.7,1.382,1.382,0,0,0,1.25-1.4,0.886,0.886,0,0,1,.1-0.4,2.442,2.442,0,0,0-.3-1.7,4.146,4.146,0,0,0-1.5-1,12.4,12.4,0,0,0-3.75-.8q-2.351-.2-8.85-0.1-8.3,0-10-.149a2.144,2.144,0,0,1-2.1-1.351,1.868,1.868,0,0,1-.1-0.6q-0.2-1.5-.3-3v-0.9l0.9,0.8a7.372,7.372,0,0,0,1.6,1.05,6,6,0,0,0,2.3.149,21.4,21.4,0,0,0,7.5-1.5,7.133,7.133,0,0,1,2.3-.649,1.538,1.538,0,0,1,1,.849,14.139,14.139,0,0,0,1.35,1.75,2.6,2.6,0,0,0,1.15.651,4.292,4.292,0,0,0,3.7-.55,2.747,2.747,0,0,0,.8-3.051,44.3,44.3,0,0,0-3-7.7,3.238,3.238,0,0,0-2.5-2,3.624,3.624,0,0,0-1.9.149,5.3,5.3,0,0,0-1.8.75,2.032,2.032,0,0,0-.4,1.1q0,1.7-2.1,2.9a6.809,6.809,0,0,1-1,.5q-1.4.6-1.1-.3a6.934,6.934,0,0,1,1.1-2.1,6,6,0,0,1,1.15-1.5,1.834,1.834,0,0,0,.55-0.9,18.072,18.072,0,0,1,4.2-5.1,19.276,19.276,0,0,0,4.1-4.4,2.157,2.157,0,0,0-2.65-2.95,14.132,14.132,0,0,0-3.55,2.851,30.2,30.2,0,0,1-2.9,2.55,2.618,2.618,0,0,1-1.8.45,3.992,3.992,0,0,1-1.35-.7,1.589,1.589,0,0,1-.85-1.1,3.356,3.356,0,0,1,1.15-1.5,13.051,13.051,0,0,1,2.55-1.9,5.372,5.372,0,0,0,1.65-1.351,4.609,4.609,0,0,0,.55-1.55,3.033,3.033,0,0,0-.45-2.25,1.942,1.942,0,0,0-1.65-.95,4.232,4.232,0,0,0-2.1.851,11.858,11.858,0,0,0-2.3,1.95,30.346,30.346,0,0,0-3.65,5.1q-1.751,3-1.75,3.9,0,1.2,2.4,2.5a2.756,2.756,0,0,1,1.5,1.4q0.3,0.8-1.05,3.651a30.149,30.149,0,0,1-3.25,5.349l-1.1,1.5-0.3-3.1q-0.2-2.6-.7-12.9-0.3-9.9-.7-10.7a1.5,1.5,0,0,0-1-1,2.735,2.735,0,0,0-2.5.2,2.141,2.141,0,0,0-1,1.2,14.474,14.474,0,0,0-.2,3.1l-0.1,2.5h-1a6.549,6.549,0,0,0-3.5,1.15,14.274,14.274,0,0,0-3.3,3.75,6.254,6.254,0,0,1-1.55,1.9,8.613,8.613,0,0,1-2.65-.7q-4-1.6-2.7-3.5a35.44,35.44,0,0,1,3.1-2.8,10.474,10.474,0,0,0,2.55-2.4,2.6,2.6,0,0,0,.15-1.7,2.364,2.364,0,0,0-.5-1.25,2.691,2.691,0,0,0-1.3-.349,4.672,4.672,0,0,0-1.2.1,3.561,3.561,0,0,0-1,.8q-0.9,1-4.05,4.75t-3.55,4.45q-1.9,2.9,3.6,5.4,2,0.8,2.1,1.649t-1.6,3.45a84.01,84.01,0,0,0-4.6,7.7,2.729,2.729,0,0,0-.55,1.8,2.262,2.262,0,0,0,1.15,1.2,4.2,4.2,0,0,0,3.2,1.049,31.021,31.021,0,0,0,5.9-1.45,17.96,17.96,0,0,1,3.4-.9,6.408,6.408,0,0,1,2.35.45,10.341,10.341,0,0,0,2.25.55,2.456,2.456,0,0,0,1.4-1.05,3.778,3.778,0,0,0,1-1.851,3.551,3.551,0,0,0-.3-2.8,7.231,7.231,0,0,1-1.2-2q-1.4-3.4-4-2.6-1.2.4-4.5,3.6a16.111,16.111,0,0,1-2.4,2.1l-0.3.3q-0.1.1,0.2-.3a41.855,41.855,0,0,1,4.9-7.6q1.8-2.3,4.6-5.451a25.462,25.462,0,0,1,3-3.149q1,0,2.1,13.8,0.3,3.2.6,5.5a0.9,0.9,0,0,1,.1.4,16.573,16.573,0,0,0,.5,2.4v0.2h0.1v0.4a1.528,1.528,0,0,1-.6,1.4,5.935,5.935,0,0,1-4.45,1.349q-3.051-.048-3.75-1.349-0.2-.4-0.7-1.6a2.481,2.481,0,0,0-2.7-2.1,3.511,3.511,0,0,0-3.5,3.1,6.892,6.892,0,0,1-.6,1.5,0.591,0.591,0,0,1-.5.3,4.788,4.788,0,0,1-1.3-.4,9.787,9.787,0,0,0-3.7-.1q-3.5.6-4.3,1.5a3.368,3.368,0,0,0-.8,2,2.515,2.515,0,0,0,.8,2.349,12.258,12.258,0,0,0,4.2,1.25l2.9,0.4v0.8a12.782,12.782,0,0,1-.7,2.3,22.1,22.1,0,0,0-1.1,3,13.906,13.906,0,0,1-1.6,4q-2,3.9-1.9,6a3.4,3.4,0,0,0,.1,1.1,0.945,0.945,0,0,0,.8.2q2.4,0.4,3.4-.6a6.724,6.724,0,0,0,1.8-3.8q0.6-2.5,1.4-2.6t3.5,1.9a14.005,14.005,0,0,0,3.3,2.1,3.733,3.733,0,0,0,3.1-1.1,2.454,2.454,0,0,0,.8-1.951,2.334,2.334,0,0,0-.9-1.95,6.191,6.191,0,0,1-1.6-1.2,3.1,3.1,0,0,0-1.4-.8,7.9,7.9,0,0,1-3.6-2.3,3.092,3.092,0,0,1-.8-1.049,3.44,3.44,0,0,1,.1-1.35q0.1-2.4,1.6-2.9,0.6-.1,4.6-0.5t7.2-.6a26.17,26.17,0,0,1,3.4,0q0.5,0.9,1.1,2.3,3.2,7.2,2.7,8.3a23.328,23.328,0,0,1-1.6,2.4q-2.6,2.8-2.1,4.3a2.5,2.5,0,0,0,2.3,1.7,5.065,5.065,0,0,0,4.2-2.3,3.233,3.233,0,0,1,1.2-1.4q0.2-.1,6.1,3.5a78.1,78.1,0,0,0,6.9,3.8,10.459,10.459,0,0,0,3.5-.3,7.149,7.149,0,0,0,3.3-1.1q1.4-1.3,1.8-4.8,0.4-4.6-.5-5.7a2.824,2.824,0,0,0-2.8-1.2,5.178,5.178,0,0,0-2.75,1.9,4.345,4.345,0,0,0-.85,3.2,6.383,6.383,0,0,1-.1,1.6q-0.5.6-4.4-1.9-4.9-2.8-4.7-3.9,0.1-1,4.5-4.7,3.5-3,3.8-4.3a1.562,1.562,0,0,0-1.25-2.049,3.838,3.838,0,0,0-3.45.65,32.482,32.482,0,0,0-2.6,2.2,34.722,34.722,0,0,1-3.35,2.8q-1.65,1.2-2.05,1.1t-2.5-4.6a18.616,18.616,0,0,1-.8-1.8v-0.1Zm91.2-6.5a1.02,1.02,0,0,1-.95,1.1,20,20,0,0,1-4.05.4,13.477,13.477,0,0,1-3.7-.05,1.1,1.1,0,0,1-.9-1.151,1.51,1.51,0,0,1,1-1.7,14.8,14.8,0,0,1,3.6-.05,19.059,19.059,0,0,1,4,.451,1.276,1.276,0,0,1,1,1h0Zm12.75-.9a0.72,0.72,0,0,1,.55.7,0.913,0.913,0,0,1-.85.9,22.933,22.933,0,0,1-3.95.2,19.551,19.551,0,0,1-3.55-.3,1,1,0,0,1-.65-1.1,0.881,0.881,0,0,1,.45-0.9,3.853,3.853,0,0,1,1.65-.1q1.6,0.1,3.6.3A12.786,12.786,0,0,1,601.4,921.137Zm-4.35,20.351a2.961,2.961,0,0,1-2.1.25,3.164,3.164,0,0,1-1.95-.45,2.633,2.633,0,0,1-.75-1.651,1.083,1.083,0,0,1,.5-1.3,15.209,15.209,0,0,1,3.3-.2h2.6l-0.5,1.4A4.088,4.088,0,0,1,597.046,941.488Zm-16.9-36.151q-1.9.3-3.4,0.6-4.8.8-3.9,3.4a15,15,0,0,1,.5,3.8l0.1,1.1a30.509,30.509,0,0,0,.8,6.9l0.5,1.8-0.5,1.6a3.136,3.136,0,0,0-.2,2.4,4.007,4.007,0,0,0,2.6,2,30.06,30.06,0,0,0,6.8.5q3.9,0,4.2.3a1.2,1.2,0,0,1,.2.3q-0.1.4-.2,0.9l-0.2,1.2h-10.9q-6.2-.1-6.8.9-1.4.9-1.1,5.5,0,7.7.75,10.5t2.85,2.8q2.4,0,1.2-4a18.616,18.616,0,0,1-.6-7.8l0.1-1.7,2.7-.1a16.691,16.691,0,0,1,2-.1q1.8,0,4.2.1l5.6,0.1v1.7a7.523,7.523,0,0,1-.2,2.1,5.4,5.4,0,0,1-2.15,1,18.745,18.745,0,0,1-3.45.8q-2.4.4-2.65,2.2t2.05,2.2a64.18,64.18,0,0,0,6.8.2q5.5,0,7.3-.2l2.1-.2,1.6,0.8a5.257,5.257,0,0,0,1.9.85,3.238,3.238,0,0,0,1.5-.35,2.067,2.067,0,0,0,1.2-1.3,21.133,21.133,0,0,0,.2-3.8,33.743,33.743,0,0,0-.2-4.7,1.654,1.654,0,0,1-.05-1.349,10.68,10.68,0,0,1,3.05-.651h0.6v-0.2q1.1-.1,2-0.2a8.889,8.889,0,0,1,1.8.1,0.923,0.923,0,0,1,.5.5,25.01,25.01,0,0,1,.5,5.1l0.2,4.4h-1.5q-2.9,0-3.6.9a2.653,2.653,0,0,0-.3,1.5,2.437,2.437,0,0,0,.8,2q1.8,1.9,5.9,2a3.174,3.174,0,0,0,2.3-.7,5.251,5.251,0,0,0,1.1-2.951q0.3-2.148.4-8.349v-7l-0.5-1.4a5.646,5.646,0,0,0-1.7-1.6,2.886,2.886,0,0,0-1.2-.7,9.5,9.5,0,0,0-2,0q-1.6,0-6.7.3-4.6.5-9.2,0.7l-4.1.1,0.1-1.1a3.722,3.722,0,0,1,.2-0.5,3.407,3.407,0,0,1,.5-1.1,2.183,2.183,0,0,1,1.1-.3,18.125,18.125,0,0,1,2.9-.2q6.1,0,8.3-1a2.755,2.755,0,0,0,1.3-1,2.4,2.4,0,0,0,.5-1.4,16.268,16.268,0,0,1,.9-2.6,11.248,11.248,0,0,0,.9-3,27.727,27.727,0,0,1,1.5-4.9l0.6-1.6a14.189,14.189,0,0,0,1.1-3.9,3.715,3.715,0,0,0-1.2-3.2q-1.1-.9-6.2-1.4-3-.3-12.85-0.051t-11.25.45h0Zm24.8,9.4-2.2-.1q-2.8,0-6.1-.2t-3.5-.5c-0.134-.066-0.134-0.3,0-0.7l0.1-1,0.2-1.2,11.5,0.1v3.6Zm-16.7-.5-4.8-.1a32.278,32.278,0,0,1-5.3-.3,0.706,0.706,0,0,1-.5-0.7q-0.4-2.3,2.6-2.4a18.74,18.74,0,0,1,6.3.5,1.924,1.924,0,0,1,1.1.6q0.1,0.4.3,1.4Zm22.3-22.8q-4.2-.2-5.4-0.4a4.223,4.223,0,0,1-2.1-.7,1.249,1.249,0,0,1-.5-0.7,9.636,9.636,0,0,1-.1-1.8,5.043,5.043,0,0,0-.35-2.4,1.981,1.981,0,0,0-1.65-.5,2.444,2.444,0,0,0-1.8.6q-1,1-1,4.1v1.8l-3.9-.1a37.5,37.5,0,0,1-5.45-.55q-0.75-.248-0.95-1.95a3.511,3.511,0,0,0-.9-2,1.782,1.782,0,0,0-1.7-.5,5.507,5.507,0,0,0-3.8,3.2l-1,1.8-5.1.1q-5,.1-6,0.6a2.872,2.872,0,0,0-1.55,1.9,1.925,1.925,0,0,0,.55,2.1q1,1.1,8,1.4,4.8,0.2,5,.3a3.16,3.16,0,0,1,.6,1.6,5.542,5.542,0,0,0,1.2,2.9,2.338,2.338,0,0,0,2,.9q1.3-.1,1.3-3.4v-2l1.5-.2q1.7-.1,4.75-0.1t3.7,0.5q0.649,0.5,1.15,3.3a2.389,2.389,0,0,0,1.25,1.7,1.058,1.058,0,0,0,1.55-.1,4.968,4.968,0,0,0,.4-2.3v-0.7q0.1-1.9,1.15-2.2a48.061,48.061,0,0,1,7.25-.4,11.69,11.69,0,0,0,1.8-.1h0.3v-0.1a21.2,21.2,0,0,0,4.8-.5q1.9-.9,1.5-2.6a2.255,2.255,0,0,0-1.8-1.7q-1.1-.2-4.7-0.5v-0.3Zm106.4,3.4,1.3-1.2v-0.9q0-2.1-.5-2.4-1.3-.7-13.6-0.9l-8.7-.2v-2.2a7.42,7.42,0,0,0-.25-2.4,1.1,1.1,0,0,0-1.15-.6,10.466,10.466,0,0,1-1.2-.1,4.236,4.236,0,0,0-1.3,0q-1.4.3-1.5,3l-0.2,1.9h-4.6q-15.1,0-16.7,1.8a2.284,2.284,0,0,0-.45,1.5,2.8,2.8,0,0,0,.35,1.7q0.6,1,2.7,1.2a61.385,61.385,0,0,0,8.5-.3,138.851,138.851,0,0,1,14.9,0q8.2,0.4,16,.3Zm-41.45,3.05a3.259,3.259,0,0,0-2.15,1.75,11.387,11.387,0,0,0-.6,3.7,20.5,20.5,0,0,1-.8,4.5q-0.9,2.7.1,3.6,1.1,0.8,2,4a4.411,4.411,0,0,0,3.3,3.4,41.568,41.568,0,0,0,5.3.3q5.5,0,5.7.6,0.1,0.7-5.6,1-4.2.3-4.9,0.4a5.822,5.822,0,0,0-2.5,1.2,2.408,2.408,0,0,0-1.1,1.7,2.433,2.433,0,0,0,1.8,2.45,34.615,34.615,0,0,0,7.6,1.05q4.8,0.4,4.8,1,0,0.4-5.4.7-4.2.2-5.8,0.4-3.6.6-5,2a1.352,1.352,0,0,0-.4,1.8,3.834,3.834,0,0,0,2.1,1.8l1,0.5-0.4.8a31.229,31.229,0,0,1-3.7,4.8q-2,2.1-2.35,2.6a0.9,0.9,0,0,0,.05,1.1q1.5,2.2,4.8-.1a11.638,11.638,0,0,1,1.7-1.1q0.5,0.1.6,3.2,0,4.9.8,6.1,0.7,1,3.5,1a10.041,10.041,0,0,0,4.3-1.1q2.4-1,4.4-1.7a5.276,5.276,0,0,0,2.4-1.2,2.359,2.359,0,0,0,.3-2.1,2.426,2.426,0,0,0-1.1-1.8q-1.8-1-6.7,1.4-2.1,1.1-2.7.851t-1.2-2.351a37.921,37.921,0,0,1-.35-4.449,24.015,24.015,0,0,1,0-4.051,1.91,1.91,0,0,1,1.45-1q3.4-.9,19.6-1.7,14.6-.7,15-1.3a4.971,4.971,0,0,0,.6-1.6q0.4-2.1-.9-2.4a48.44,48.44,0,0,0-6.85-.649q-5.951-.35-8.85-0.351a34.789,34.789,0,0,1-4.2-.149,1.293,1.293,0,0,1-1.1-.651,0.7,0.7,0,0,1,.05-0.6,2.555,2.555,0,0,1,1.2-.4,22.214,22.214,0,0,1,2.65-.3q1.6-.1,4.9-0.2,4.8-.2,6.3-0.45a3.427,3.427,0,0,0,2.1-.949,2.177,2.177,0,0,0,.3-1.95,1.882,1.882,0,0,0-1.2-1.45q-1.2-.5-10.3-1.1-6.8-.5-6.8-1.3,0-.4,1.85-0.6t10.85-.7a33.219,33.219,0,0,0,4.8-.4,6.64,6.64,0,0,0,2.95-3.95,32.5,32.5,0,0,0,1.15-8.55q0.1-3,.05-3.6a2.009,2.009,0,0,0-.45-1.1,7.514,7.514,0,0,0-3.55-1.6,66.752,66.752,0,0,0-8.55-1.1q-4.5-.4-11.45-0.5t-9.85,0A26.055,26.055,0,0,0,675.5,897.887Zm13.35,5.851q0.4,1.1-.1,1.4a44.346,44.346,0,0,1-6.2.551,38.013,38.013,0,0,1-6.3.149c-0.267,0-.35-0.4-0.25-1.2a1.971,1.971,0,0,1,.65-1.5,34.468,34.468,0,0,1,5.8-.4,24.627,24.627,0,0,1,5.5.2,3.651,3.651,0,0,1,.9.8h0Zm18.6,0.4a1.92,1.92,0,0,1,.95.4,1.427,1.427,0,0,1,.45.6,0.405,0.405,0,0,1-.2.5,108.83,108.83,0,0,1-14.6-.3q-1.5-.4-0.2-1.6l0.6-.7,4.2,0.1q4,0.2,6,.5a12.742,12.742,0,0,1,2.8.5h0Zm-18.8,7.7c0.266,0.135.25,0.351-.05,0.651s-2.084.45-5.35,0.45q-6.3,0-6.3-.7a0.744,0.744,0,0,1,.6-0.4q0.7-.1,2.9-0.25a24.3,24.3,0,0,1,3.4-.049q1.6,0.1,3,.1A5,5,0,0,1,688.646,911.837Zm15,0.451a2.76,2.76,0,0,1-1.2.549,29.55,29.55,0,0,1-4.7.2,32.169,32.169,0,0,1-4.45-.151,1.017,1.017,0,0,1-.65-0.349q-0.1-.7,3.3-0.9,2.1-.2,5.05-0.2a9.656,9.656,0,0,1,3.05.2C704.179,911.772,704.046,911.988,703.646,912.288Zm2.75,0.1a0.818,0.818,0,0,1-.85-0.149q-0.4-.4-0.2-0.651a0.9,0.9,0,0,1,.85-0.149c0.433,0.067.65,0.2,0.65,0.4Q706.945,912.239,706.4,912.387Zm-0.45,26.851a12.636,12.636,0,0,1-4.15,1.4,5.5,5.5,0,0,1-3.15-.9,7.89,7.89,0,0,0-3.1-.8,9.3,9.3,0,0,0-2.35.2,1.5,1.5,0,0,0-.95.9,4.3,4.3,0,0,0-.3,1q0,0.5,2.05,2.2a25.949,25.949,0,0,0,4.05,2.8,37.453,37.453,0,0,1,3.4,2.1,14.32,14.32,0,0,0,3.4,1.8q4.8,2,6.2,2.4a9.531,9.531,0,0,0,2.6.4,5.189,5.189,0,0,0,2.4-.4,0.938,0.938,0,0,0,.6-0.5,2.921,2.921,0,0,0,0-1.1,3.325,3.325,0,0,0-.95-2,19.408,19.408,0,0,0-3.85-2.2q-3-1.5-3.75-2t-0.55-.7a10.476,10.476,0,0,1,2.4-1.4,15.73,15.73,0,0,0,2.7-1.6,2.369,2.369,0,0,0,.4-1.5,1.407,1.407,0,0,0-.5-1.3,1.968,1.968,0,0,0-1.5-.55,3.3,3.3,0,0,0-1.8.349,18.223,18.223,0,0,0-3.3,1.4h0Zm132.8-46.8a52.365,52.365,0,0,0-1.5,6.7,23.156,23.156,0,0,0-.649,4.45,2.2,2.2,0,0,0,.75,1.651q1.7,1.5,2.8.3a4.753,4.753,0,0,0,1-2,5,5,0,0,1,1.45-2.451,11.664,11.664,0,0,1,3.849-.349q2.7-.1,2.8.3,0.4,1-1.7,9.4-0.8,3.4-1.4,5.1a50.9,50.9,0,0,1-1.7,6.1,22.314,22.314,0,0,0-1.3,4.6,45.527,45.527,0,0,1-1.5,7.1,29.711,29.711,0,0,1-2.2,5.8,19.756,19.756,0,0,0-1.1,3.2,5.463,5.463,0,0,0-.3,2.5,2.08,2.08,0,0,0,1.8,1.05,2.957,2.957,0,0,0,2.4-.449,3.987,3.987,0,0,0,.95-1.851q0.45-1.447,1.55-6.25,1.4-6.2,2.1-6.2t6.2,4.6a79,79,0,0,0,11.6,8.2q3.1,1.7,5.1,2.9,3.7,2.2,5.8.8a4.065,4.065,0,0,0,1.4-1.6,2,2,0,0,0,.2-1.7,5.1,5.1,0,0,0-2-2.349q-1.6-1.149-5.9-3.55a116.788,116.788,0,0,1-10.6-6.7,74.027,74.027,0,0,1-8.4-6.6l-1.6-1.7,0.1-1.2a61.86,61.86,0,0,1,2.1-8.55q1.7-5.649,2.7-8.051a7.656,7.656,0,0,0,.8-2.9,2.194,2.194,0,0,1,1.7-2.25,31.292,31.292,0,0,1,6.9-.75,42.259,42.259,0,0,1,6,.1,2.349,2.349,0,0,1,1.55,1.151,7.641,7.641,0,0,1,.551,2.95,8.049,8.049,0,0,0,.649,2.75,3.12,3.12,0,0,0,1.651,1.35,2.969,2.969,0,0,0,2.9-.1q1.5-.9,1.9-4.1a21.4,21.4,0,0,0,.049-4.9,12.489,12.489,0,0,0-.75-3.9q-0.9-1.8-4.7-2.4a80.329,80.329,0,0,0-9.649-.149q-7.553.148-12.151,0.549-4.1.4-4.75,0.35a1.3,1.3,0,0,1-1.049-.75,6.01,6.01,0,0,0-1.451-1.75,3.027,3.027,0,0,0-1.75-.449q-1.1.1-1.8,0.2C839.611,890.705,839.146,891.305,838.745,892.438Zm-29.5,12.9-0.8.8v3.1a40.491,40.491,0,0,1-.4,5.7q-0.7,6.2.1,7.9a2.457,2.457,0,0,0,1.2,1.4q0.9,0.5,5.3.7,3.9,0.1,8.349-.2a24.828,24.828,0,0,0,5.75-.8,2.577,2.577,0,0,0,1.151-.45,3.314,3.314,0,0,0,.549-1.151q1-3.1,1-11.4,0.1-4.6-.6-5.6t-4.2-1.4a62.5,62.5,0,0,0-12.1-.2q-3.9.3-5.3,1.6h0Zm15.7,6.3q0.9,0.7.5,3.1-0.6,3.3-1.8,4-0.8.4-5.25-.05t-5.55-1.051q-0.5-.2-0.4-2.2,0.3-3.1,1.3-4.2a2.51,2.51,0,0,1,1.8-.7,45.313,45.313,0,0,1,4.9.1Q824.046,910.937,824.945,911.637Zm121.2-21.9c-0.135,1.267-.3,1.934-0.5,2a30.873,30.873,0,0,1-3.7.1,93.476,93.476,0,0,0-13.4.7,15.519,15.519,0,0,0-2.65.55,1.67,1.67,0,0,0-.95,1.05,41.868,41.868,0,0,0-.9,6.1q-1.5,14.1-3.45,24.25t-5.25,22.149a12.846,12.846,0,0,0-.65,3.3,1.618,1.618,0,0,0,.85,1.3,2.245,2.245,0,0,0,2.8-.4q1.4-1.4,2.5-5.9,0.1-.4,1.5-6,2.4-8.8,4.9-31a37.078,37.078,0,0,1,1.15-7.051,3.992,3.992,0,0,1,1.65-2.449q1.5-.7,9.8-0.4,5.5,0.3,15.2-.1,11.4-.6,13.8-0.9t2.6-1.3a2.7,2.7,0,0,0,.05-1.7,3.971,3.971,0,0,0-.65-1.4,3.075,3.075,0,0,0-1.85-.75q-1.253-.15-4.75-0.149-4.1,0-8.5-.2l-4.4-.1,0.2-2q0.2-3.1-1.3-3.8a2.645,2.645,0,0,0-2.8,0q-1.1.8-1.3,4.1h0Zm8.1,13.1-0.6,1.8-1.5.2q-1.3.1-5.3,0.1h-3.6l-0.2-1.1a4.992,4.992,0,0,0-.6-1.6,2.431,2.431,0,0,0-1-.7,3.5,3.5,0,0,0-2.45-.1,2.194,2.194,0,0,0-1.35,1.7,4.676,4.676,0,0,1-.6,2.051,13.349,13.349,0,0,1-2.8.949,26.6,26.6,0,0,0-3.7,1.2,1.948,1.948,0,0,0-1.3,2.4,1.721,1.721,0,0,0,1,1.349,13.125,13.125,0,0,0,3.5.55,11.346,11.346,0,0,1,3.5.5,3.832,3.832,0,0,1,.75,2.5,13.337,13.337,0,0,1-.35,4.1,3.031,3.031,0,0,0,.1,2.1,4.753,4.753,0,0,0,1.7,1.3,6.821,6.821,0,0,0,2.95.9,56.848,56.848,0,0,0,6.95,0,47.01,47.01,0,0,0,7.05-.5,4.41,4.41,0,0,0,2.85-1.5l0.5-.6-0.6-4.2q-0.5-4.4-.6-4.7,0.1-.4,5.1-0.6l5.3-.1,0.8-.5a3.8,3.8,0,0,0,1.6-3,1.643,1.643,0,0,0-1.1-1.649,22.039,22.039,0,0,0-5.2-.75q-3.8-.2-4.5-0.351a0.741,0.741,0,0,1-.7-0.75,3.15,3.15,0,0,0-2.8-3.5,1.935,1.935,0,0,0-1.6.4,4.382,4.382,0,0,0-1.2,2.1h0Zm-1,14.2a17.159,17.159,0,0,1-3.5.3,31.089,31.089,0,0,1-4.6-.1,3.059,3.059,0,0,1-2.2-.651,4.78,4.78,0,0,1-.4-2.45,6.7,6.7,0,0,1,.2-2.3q0.4-.6,6.9-0.7h4.3l0.1,1.2q0.5,4-.8,4.7h0Zm-11.9,9.8a13.473,13.473,0,0,0-4.3,1.2,3.7,3.7,0,0,0-1.75,1.15,3.442,3.442,0,0,0-.45,1.949,4.292,4.292,0,0,0,.8,2.6q0.8,1.1,3.3,3.9a36.546,36.546,0,0,1,3.55,4.3,1.743,1.743,0,0,1,.15,1.9,4.961,4.961,0,0,1-1.9,1.1,3.874,3.874,0,0,0-2.6,3.1q-0.3,1.8,1.8,2a2.569,2.569,0,0,0,1.75-.2,18.3,18.3,0,0,0,2.45-1.8,4.818,4.818,0,0,1,2.65-1.5,9.235,9.235,0,0,1,3.25,1.1q8.7,4.3,10.35,5a3.559,3.559,0,0,0,2.65.3,4.387,4.387,0,0,0,1.75-1.051,2.276,2.276,0,0,0,.95-1.449q0-.8-1.6-2a4.873,4.873,0,0,0-2.7-1.2,8.719,8.719,0,0,1-2.6-1.2q-1.8-1.1-3.2-1.8a14.285,14.285,0,0,1-2.15-1.45c-0.7-.566-0.985-0.951-0.85-1.151a12.01,12.01,0,0,1,2.2-2,23.387,23.387,0,0,0,2.4-1.75q1.7-1.348,2-1.649a43.552,43.552,0,0,1,4.3-3.1,6.485,6.485,0,0,0,2.5-2.2,1.987,1.987,0,0,0,.3-1.5,3.6,3.6,0,0,0-1.75-1.6,14.843,14.843,0,0,0-3.25-1.4,21.749,21.749,0,0,0-7.9-.7Q944.145,926.439,941.345,926.837Zm6.3,11.8q-1.1,0-3.5-2.8-1.4-1.7-1.65-2.1a0.573,0.573,0,0,1,.25-0.8,4.2,4.2,0,0,1,1.7-.4,77.3,77.3,0,0,1,9.6-.5l2.2-.1-2.5,2.3q-4.7,4.4-6.1,4.4h0Zm75.1-42.3a3.641,3.641,0,0,0-.1,2.9q0.9,1.6,11.1,2.6c2.8,0.268,4.27.435,4.4,0.5q0.1,0.1.1,6.6t-0.3,6.7a48.7,48.7,0,0,1-6.7.4q-6.495.1-6.6,0.3a6.787,6.787,0,0,0-.2,1.8,6.2,6.2,0,0,0,0,1.551,1.33,1.33,0,0,0,.5.649q1.2,0.9,8.1,1.5c2,0.135,3.24.25,3.7,0.351a2.116,2.116,0,0,1,1.1.55,4.7,4.7,0,0,1,.7,2.1,41.323,41.323,0,0,1,.2,5.1,33.688,33.688,0,0,1-.2,4.8,1.784,1.784,0,0,1-1.2,1.75,52.72,52.72,0,0,1-6.6.45q-5.6.2-7.15,0.35a5.544,5.544,0,0,0-2.35.65,1.643,1.643,0,0,0-1.1,1.449,6.113,6.113,0,0,0,1.4,2.351l1.3,1.7h17q16.41,0,21.9-.2,4.5-.2,5.25-0.6c0.5-.265.79-1.1,0.85-2.5a4.657,4.657,0,0,0-.1-2q-0.495-.5-10.5-1-10.4-.5-13-0.8l-0.9-.2,0.1-6.6a50.671,50.671,0,0,1,.3-6.8q0.21-.2,8.7-0.2l8.6-.1,0.6-.7a3.934,3.934,0,0,0,1.1-1.6,1.714,1.714,0,0,0,.1-1.7,2.079,2.079,0,0,0-1.4-1.3,20.246,20.246,0,0,0-4.5-.3,72.443,72.443,0,0,1-7.6-.5,22.85,22.85,0,0,1-5.3-.9,16.861,16.861,0,0,1-.35-3.851,67.325,67.325,0,0,1,.05-6.849l0.2-2.8h19.4l0.7-.8a3.33,3.33,0,0,0,.6-2.2q0-1.7-.6-2.051a14.465,14.465,0,0,0-4.3-.449q-6.09-.3-12.9-0.5-8.49-.3-12.2-0.5-6.5-.4-7.8-0.4a7.044,7.044,0,0,0-2.4.4,3,3,0,0,0-1.7.9h0Zm30.8,31v3.8a17.18,17.18,0,0,0,.25,3.95q0.255,0.653,1.65.55,2.01-.2,3.4-2.7a9.446,9.446,0,0,0,.9-6.6,1.6,1.6,0,0,0-1-.8,4.412,4.412,0,0,0-1.8-.4,3.648,3.648,0,0,0-2.2,1.2Zm64.2-32a35.164,35.164,0,0,1-.9,4.6l-0.6,2.6,0.4,3.6q0.4,4.1.65,10.551a90.258,90.258,0,0,1,.05,9.149q-0.09.8-.3,3.2-0.195,2.4-.3,3.3-0.2,2.9-.1,6.75a32.055,32.055,0,0,0,.4,5.151,3.6,3.6,0,0,0,.8,1.6,1.275,1.275,0,0,0,1.4,0,3.815,3.815,0,0,0,2.1-1.8,5.452,5.452,0,0,0-.2-3.2,21.67,21.67,0,0,1-.45-4.8,32.314,32.314,0,0,1,.35-5.7q0.3-2.3.5-7.6c0.2-3.8.34-5.733,0.4-5.8a8.979,8.979,0,0,1,3.2-.5q7.2-.6,8.6-0.9a2.247,2.247,0,0,0,1.8-1.3c0.14-.466.27-0.966,0.4-1.5a6.455,6.455,0,0,1,.8-2,3.85,3.85,0,0,0,.45-1.3,18.8,18.8,0,0,0-.15-2.7,25.119,25.119,0,0,1-.15-3,23.681,23.681,0,0,1,.65-3.2q1.2-5.3.3-7.1a3.2,3.2,0,0,0-1.85-1.651,27.62,27.62,0,0,0-5.35-.849,48.334,48.334,0,0,1-5.7-.9,19.171,19.171,0,0,0-3.8-.549,2.64,2.64,0,0,0-1.6.649q-1.1.9-1.8,5.2h0Zm14,3.4a1.293,1.293,0,0,1-.6,1.4,24.254,24.254,0,0,1-4.4.2c-3.13,0-4.76-.1-4.9-0.3a2.4,2.4,0,0,1,0-1.45,2.556,2.556,0,0,1,.5-1.45c0.27-.332,1.34-0.515,3.2-0.55a20.222,20.222,0,0,1,4.6.351,1.784,1.784,0,0,1,1.6,1.8h0Zm-0.3,11.3q-0.6.6-4.8,0.65t-4.8-.551a4.643,4.643,0,0,1-.5-1.8c-0.06-1.065.14-1.7,0.6-1.9a21.371,21.371,0,0,1,5-.3h4.8v1.8a4.344,4.344,0,0,1-.3,2.1h0Zm17.1-18.651a3.783,3.783,0,0,0-1.3,1.45,3.656,3.656,0,0,0,0,2.1,5.658,5.658,0,0,1-.1,2.8,42.1,42.1,0,0,0-.55,9q0.06,6.7.75,7.4,0.4,0.4,7.4.4,8.91,0.1,9.6.9,0.6,0.6.7,19.3v7.9l-3.1-.1h-3l-0.1,1a3.02,3.02,0,0,0,.35,1.75,1.259,1.259,0,0,0,.95.849,12.088,12.088,0,0,1,2.7,1.1,11.254,11.254,0,0,0,3.5,1.1,2.008,2.008,0,0,0,1.7-.5,5.7,5.7,0,0,0,1.1-3.349q0.21-2.349.4-12.55,0.3-17.2.9-29.6,0.4-7.7.3-8.5a3.211,3.211,0,0,0-2.6-2.4q-1.59-.4-10.1-1.1-5.895-.5-7.4-0.1A6.791,6.791,0,0,0,1148.54,891.387Zm15.6,6.75a0.746,0.746,0,0,1,.25.5,1.467,1.467,0,0,1-.75.2,39.857,39.857,0,0,1-6.15-.05q-5.145-.248-5.65-0.549a0.92,0.92,0,0,1-.5-0.6,0.516,0.516,0,0,1,.2-0.6,7.445,7.445,0,0,1,3.2-.6c0.67,0,1.9.1,3.7,0.3q4.71,0.4,5.7,1.4h0Zm0.9,9.1c0.07,1.134-.06,1.767-0.4,1.9a43.04,43.04,0,0,1-5.15-.4q-4.845-.5-6.35-0.8c-1.46-.333-2.13-1-2-2a0.856,0.856,0,0,1,.8-0.8q0.6-.1,6.35,0t6.15,0.2Q1164.95,905.54,1165.04,907.238Zm103.2-15.5a5.394,5.394,0,0,1,.65,1.95,10.671,10.671,0,0,1,.4,1.949,53.1,53.1,0,0,1-5.35-.2q-5.3-.3-7.3-0.5a6.6,6.6,0,0,1-2.4-.4,2.6,2.6,0,0,1,.1-1.6,7.182,7.182,0,0,1,.5-1.8c0.2-.332,3.74-0.232,10.6.3a15.162,15.162,0,0,1,2.8.3h0Zm-2.4,10a10.272,10.272,0,0,1,2.65.2,1.115,1.115,0,0,1,.55,1.2l0.1,1-1.6.1a51.39,51.39,0,0,1-5.3-.1,38.6,38.6,0,0,1-5.1-.5,8.618,8.618,0,0,1-2.1-.6,1.538,1.538,0,0,1-.8-0.951,0.8,0.8,0,0,1,.2-0.95q0.51-.3,7,0.3c1.47,0.134,2.94.234,4.4,0.3h0Zm-38.5-9a1.84,1.84,0,0,1,.5,1.2,0.7,0.7,0,0,1-.55.75,31.409,31.409,0,0,1-4.1.25,21.765,21.765,0,0,1-4.25-.1,1.117,1.117,0,0,1-1-.6,1.538,1.538,0,0,1-.05-1.3,1.29,1.29,0,0,1,.65-1,27.943,27.943,0,0,1,2.85-.151,23.33,23.33,0,0,1,3.65.151,3.214,3.214,0,0,1,2.3.8h0Zm-0.3,9.1,1.7-.1v0.7a4.06,4.06,0,0,1-.2,1.75,2.11,2.11,0,0,1-.8,1.25q-0.69.5-5.6,0.3a23.8,23.8,0,0,1-4.85-.5,1.424,1.424,0,0,1-.75-1.5,1.854,1.854,0,0,1,.65-1.75,14.588,14.588,0,0,1,3.7-.7q3.06-.348,4.05.35a3.965,3.965,0,0,0,2.1.2h0Zm-1.85,13.651q-2.745,2.05-3.15,3.05-0.99,1.9.9,3.6a2.589,2.589,0,0,1,1.1,2.051c-0.06.634-.7,1.55-1.9,2.75a6.02,6.02,0,0,0-1.2,2.2,3.353,3.353,0,0,0,.1,1.8,3.246,3.246,0,0,0,1.5,1.5,12.573,12.573,0,0,0,3.5.3,17.624,17.624,0,0,0,5-.6,10.179,10.179,0,0,1,2.6-.5,4.229,4.229,0,0,1,2,.6,7.719,7.719,0,0,0,2.1.95,3.617,3.617,0,0,0,1.4-.25,3.141,3.141,0,0,0,1.9-3.5,18.957,18.957,0,0,0-.7-3.7,6.6,6.6,0,0,0-.95-2.6,1.088,1.088,0,0,0-1.35-.4,7.4,7.4,0,0,0-3.9,2.3c-1.46,1.267-2.4,1.734-2.8,1.4q-0.3-.4,2.4-2.6,2.4-1.9,3.15-2.649a2.3,2.3,0,0,0,.75-1.65,2.223,2.223,0,0,0-.45-1.451,1.759,1.759,0,0,0-1.15-.649q-1.695-.3-3.8,1.7a5.6,5.6,0,0,1-2,1.5,2.028,2.028,0,0,1-1-.8,0.833,0.833,0,0,1-.35-1,3.536,3.536,0,0,1,1.55-.9,3.771,3.771,0,0,0,1.9-.9,3.325,3.325,0,0,0,.95-2.05,2.506,2.506,0,0,0-.25-2.05q-0.8-1.2-3.3-.1A17.772,17.772,0,0,0,1225.19,915.488Zm20.5-.3a14.508,14.508,0,0,0-2.15,3.25,3.737,3.737,0,0,0-.5,3.1,2.464,2.464,0,0,0,2.4,1.3,9.978,9.978,0,0,1,1.05.3,0.387,0.387,0,0,1,.25.4c0,1-.66,2.167-2,3.5-1.06,1.134-1.58,2.067-1.55,2.8s0.62,1.3,1.75,1.7a12.3,12.3,0,0,0,4.9.8l3.6,0.1v9.9l-1.7-.1c-1.4-.133-2.23-0.45-2.5-0.95a4.415,4.415,0,0,1,.2-2.85,5.372,5.372,0,0,0,.25-3.7,2.18,2.18,0,0,0-2.25-1.3c-1.33.134-2.1,0.6-2.3,1.4a78.479,78.479,0,0,0-.8,12.4l-0.2,4,0.8,0.7a2.932,2.932,0,0,0,2.6.9q1.11-.5,1.5-3.8l0.3-2.2,2.3-.2c3.2-.132,5.24-0.5,6.1-1.1a2.4,2.4,0,0,0,.7-1.9c0.07-.8.09-2.4,0.05-4.8s-0.11-4.232-.25-5.5a4.859,4.859,0,0,1-.05-1.049c0.04-.1.19-0.116,0.45-0.05a4.843,4.843,0,0,0,3.9-.2,2.712,2.712,0,0,0,1.5-1.451,10.8,10.8,0,0,0-.4-3.649c-0.46-2-.8-3.283-1-3.851a1.6,1.6,0,0,0-.8-1.049,3.742,3.742,0,0,0-3.3-.4,2.336,2.336,0,0,0-1.5,2.4q0,2-1.8,2a1.356,1.356,0,0,1-1.1-.3q-0.2-.6.9-2.25a20.107,20.107,0,0,1,2.9-3.351,16.845,16.845,0,0,0,2.3-3,1.979,1.979,0,0,0-1.4-2.149,2.743,2.743,0,0,0-2.9.149,5.453,5.453,0,0,0-1.3,1.4q-1.89,3.1-4.2,2.3a1.5,1.5,0,0,1-1.1-.5q-0.09-.3,1.2-1.6a4.207,4.207,0,0,0,1.2-1.851,1.952,1.952,0,0,0-.9-1.55,2.156,2.156,0,0,0-1.6-1,1.838,1.838,0,0,0-1.1.2A12.559,12.559,0,0,0,1245.69,915.188Zm-21.45,21.649q-0.2.9-.6,4.2-0.2,1-.45,2.5c-0.16,1-.25,1.534-0.25,1.6a1.727,1.727,0,0,0,.8,1.9,10.437,10.437,0,0,0,3.4,1,11.866,11.866,0,0,1,2.7.45,2.892,2.892,0,0,1,1.2,1.45,4,4,0,0,0,1.2,1.25,4.171,4.171,0,0,0,1.7.25,2.768,2.768,0,0,0,1.8-.5,4.751,4.751,0,0,0,1.05-2.551,45.832,45.832,0,0,0,.05-6.949,47.352,47.352,0,0,0-.4-6.7c0-.266-0.46-0.433-1.4-0.5a8.649,8.649,0,0,0-1.9,0c-0.66.2-1.03,1.4-1.1,3.6a9.1,9.1,0,0,1-.7,3.851,2.215,2.215,0,0,1-2.1,1.05c-1,0-1.53-.1-1.6-0.3-0.13-.2.04-0.966,0.5-2.3a20.861,20.861,0,0,0,.5-3.3,2.9,2.9,0,0,0-.5-1.9,2.25,2.25,0,0,0-2.1-.7,3.977,3.977,0,0,0-1.8,2.6h0Zm-12.3-12.2q-0.09,7.8-.1,17.1,0,7.2.2,8.95a3.348,3.348,0,0,0,1,2.35,2.633,2.633,0,0,0,2.8,0c0.87-.4,1.2-1.635,1-3.7q-0.39-2.3-.3-20.8,0-13.5.2-14.9a2.7,2.7,0,0,0,.1-0.849,3.042,3.042,0,0,1,.1-0.85v-0.2c0-.133,1.84-0.233,5.5-0.3q3,0,4.5-.1a23.009,23.009,0,0,0,3-.4,5.072,5.072,0,0,0,2-.7,4.02,4.02,0,0,0,1-1.45,5.3,5.3,0,0,0,.55-2.1q0.06-1.05.15-3.15a43.147,43.147,0,0,1,.4-6.6c0.2-1.333.37-2.733,0.5-4.2a5.963,5.963,0,0,0-.6-3.6,6.9,6.9,0,0,0-1.5-2.149,5.075,5.075,0,0,0-2.7-1.151q-1.59-.2-6.65-0.25a46.837,46.837,0,0,0-6.05.151,5.092,5.092,0,0,0-3.6,2.5,20.346,20.346,0,0,0-.3,3.8q-0.2,3.5-.4,6.6-0.495,9.1-.8,26h0Zm64-7.9q-0.2-24.6-.4-27.1c-0.2-2.065-.83-3.365-1.9-3.9q-1.1-.5-7.65-0.8a71.4,71.4,0,0,0-9.45,0,22.075,22.075,0,0,0-5.25,1.1,3.373,3.373,0,0,0-1.85,2.2,6.3,6.3,0,0,0,.1,2.9q0.7,3.2-.3,11.8c-0.26,2.267-.4,3.667-0.4,4.2a1.623,1.623,0,0,0,.2.95,3.9,3.9,0,0,0,.8.651c1.4,0.667,4.44,1.2,9.1,1.6q7.11,0.6,9,1.3l1.1,0.4,0.3,8.5q0.105,3.7.2,6.9h0.2q0.4,11.8.4,16.5v4.5h-1.6q-3.9,0-3.9,2.8,0,3,6.6,3.1a6.863,6.863,0,0,0,3.45-.649,3.541,3.541,0,0,0,1.45-2.351,34.931,34.931,0,0,0,.4-5.8,56.78,56.78,0,0,0-.1-6.5q-0.2-1.7-.4-15.9,0-3-.1-6.4h0Z"/>
  <path id="大写字母" class="cls-3" d="M243.984,505.39a49.286,49.286,0,0,0-3.024,4.9,60.782,60.782,0,0,0-4.32,8.784q-1.3,3.312-1.584,3.96a7.866,7.866,0,0,0-.648,2.232,21.688,21.688,0,0,1-2.808,6.984,6.989,6.989,0,0,0-1.08,2.808,2,2,0,0,0,.648,1.44,1.448,1.448,0,0,0,1.26.54,2.715,2.715,0,0,0,1.044-.4,3.219,3.219,0,0,0,.9-1.188,3.37,3.37,0,0,0,.468-1.4,10.716,10.716,0,0,1,1.152-2.664q1.224-2.448,1.728-3.672l0.648-1.368h2.16q2.3,0,6.3.18t4.464,0.288a1.65,1.65,0,0,1,.9,1.008,41.689,41.689,0,0,1,1.44,4,14.263,14.263,0,0,0,2.016,4.212,2.271,2.271,0,0,0,2.448.324,0.838,0.838,0,0,0,.792-0.576q0.36-1.368-1.224-4.824a25.5,25.5,0,0,1-2.016-6.048,5.682,5.682,0,0,0-.468-2.124,20.253,20.253,0,0,1-1.116-2.916q-0.793-2.232-1.44-3.816a11.941,11.941,0,0,1-.864-3.24,18.532,18.532,0,0,0-.72-3.312q-0.145-.432-0.468-1.512c-0.216-.72-0.349-1.176-0.4-1.368a4.558,4.558,0,0,0-2.3-3.024,2.155,2.155,0,0,0-1.8-.072A5.587,5.587,0,0,0,243.984,505.39Zm6.336,15.7a0.744,0.744,0,0,1-.432.72,4.493,4.493,0,0,1-1.728.216q-1.441-.072-4.932-0.288t-3.636-.288q-0.145-.216,2.664-5.544a43.485,43.485,0,0,1,3.456-5.976,1.909,1.909,0,0,1,.468-0.468,0.576,0.576,0,0,1,.4.252q0.36,0.288,2.016,5.688,1.728,5.4,1.728,5.688h0Zm31.572-17.352a8.752,8.752,0,0,0-2.988,2.232,2.646,2.646,0,0,0-.144,2.808q0.574,1.3.072,6.984-0.216,2.952-.36,8.712a47.962,47.962,0,0,1-.36,6.48,3.329,3.329,0,0,0-.144,1.26,1.759,1.759,0,0,0,.648.9,13.867,13.867,0,0,0,3.492,2.124,18.973,18.973,0,0,0,4.068,1.548,17.02,17.02,0,0,0,3.168,0,18.052,18.052,0,0,0,4.356-.9,11.225,11.225,0,0,0,3.348-2.124,8.01,8.01,0,0,0,3.024-4.248,17.749,17.749,0,0,0-.5-4.32,20.913,20.913,0,0,0-1.152-4.176,16.293,16.293,0,0,0-2.232-2.448l-1.8-1.584,1.8-1.8,1.44-2.592,0.144-2.3a25.024,25.024,0,0,0-.432-3.816,3.123,3.123,0,0,0-.936-1.512,12.4,12.4,0,0,0-2.34-1.512,13.39,13.39,0,0,0-2.7-1.152,11.628,11.628,0,0,0-5.256-.216A19.056,19.056,0,0,0,281.892,503.734Zm11.484,4.9a2.993,2.993,0,0,1,.576,1.656q0.143,2.736-2.88,4.1a24.972,24.972,0,0,0-2.52,1.224,17.865,17.865,0,0,1-2.772.468,31.981,31.981,0,0,1-3.348.324q-0.362,0-.432-0.576a19.216,19.216,0,0,1,.072-3.672,23.221,23.221,0,0,1,.36-3.384,5.357,5.357,0,0,1,2.016-1.584,8.054,8.054,0,0,1,2.664-.9,7.557,7.557,0,0,1,2.664.324,6.363,6.363,0,0,1,3.6,2.016h0ZM291.5,521.3a5.3,5.3,0,0,1,3.168,2.16,7.151,7.151,0,0,1,1.152,4.176,4.95,4.95,0,0,1-.576,2.592,5.581,5.581,0,0,1-3.528,2.736,11.9,11.9,0,0,1-5.364.252q-3.062-.468-3.852-1.62a10.52,10.52,0,0,1-1.08-4.9,30.71,30.71,0,0,1,.072-3.564,11.525,11.525,0,0,1,.288-2.412,43.58,43.58,0,0,1,5.76.144,32.72,32.72,0,0,1,3.96.432h0Zm32.255-15.552q-2.016,1.44-2.016,2.3a1.757,1.757,0,0,1-.5.792,6.547,6.547,0,0,0-1.152,2.2,44.2,44.2,0,0,0-1.08,4.932,31.626,31.626,0,0,0,0,12.384,10.618,10.618,0,0,0,.864,3.024A7.748,7.748,0,0,0,321.6,533.4q2.16,1.8,2.736,1.8a8.021,8.021,0,0,1,1.728.576,11.442,11.442,0,0,0,3.816.5,15,15,0,0,0,4.644-.54,10.783,10.783,0,0,0,3.42-2.2q3.1-2.592,2.808-4.32-0.288-1.8-.792-1.8-0.864,0-3.6,2.952a9.718,9.718,0,0,1-2.34,1.98,6.707,6.707,0,0,1-2.7.4,13.915,13.915,0,0,1-6.012-1.152,5.125,5.125,0,0,1-2.988-3.24,29.559,29.559,0,0,1-.756-6.012,20.885,20.885,0,0,1,.468-5.652,34.706,34.706,0,0,0,.864-3.888q0.144-1.656,2.3-3.528a8.165,8.165,0,0,1,4.752-2.16q3.1-.144,6.048,2.808,2.808,2.736,3.816,1.512a1.115,1.115,0,0,0,.288-0.972,1.589,1.589,0,0,0-.432-0.972,1.452,1.452,0,0,1-.5-1.008q0-.936-1.872-2.412a13.755,13.755,0,0,0-3.888-2.2,11.465,11.465,0,0,0-2.772-.72,7.421,7.421,0,0,0-2.484.36,14.087,14.087,0,0,0-4.392,2.232h0Zm40.032-2.088q-2.88.216-3.564,0.792t-0.972,2.88q-0.288,2.448-.036,14.76t0.612,13.392a1.282,1.282,0,0,0,1.008.648,25.716,25.716,0,0,0,4.32.18,34.3,34.3,0,0,0,4.536-.252q7.272-1.3,10.584-5.112a12.157,12.157,0,0,0,1.188-1.872,4.559,4.559,0,0,0,.612-1.512q0-.288.5-2.952a27.6,27.6,0,0,0,.216-9.576,14.671,14.671,0,0,0-1.44-5.184,11.34,11.34,0,0,0-4.32-3.636,28.482,28.482,0,0,0-7.128-2.556q-2.952-.648-3.312-0.288a24.11,24.11,0,0,1-2.808.288h0Zm13,6.948a5.593,5.593,0,0,1,2.052,2.988,21.046,21.046,0,0,1,.792,6.12q0,5.976-2.808,9.216a10.871,10.871,0,0,1-2.952,2.16,21.564,21.564,0,0,1-3.384,1.368,17.811,17.811,0,0,1-3.96.432,10.632,10.632,0,0,1-2.952-.144,1.571,1.571,0,0,1-.792-1.3,90.4,90.4,0,0,1-.432-10.836,94.63,94.63,0,0,1,.216-10.548,3.032,3.032,0,0,1,2.016-2.088,12.349,12.349,0,0,1,3.42-.18,14.535,14.535,0,0,1,3.852.612A15.759,15.759,0,0,1,376.787,510.61Zm25.379-6.012a27.333,27.333,0,0,0-.288,4.464q-0.144,4.1-.36,6.048-0.144,1.44-.144,10.836t0.216,9.756a1.714,1.714,0,0,0,.936.828,3.168,3.168,0,0,0,1.368.4,2.594,2.594,0,0,0,1.152-.216,5.95,5.95,0,0,1,2.988-.684,16.32,16.32,0,0,1,4,.252,30.894,30.894,0,0,0,5.9.36h4.32l0.432-.5a2.18,2.18,0,0,0,.216-1.3,4.6,4.6,0,0,0-.288-1.08q-0.288-.576-1.872-0.72t-8.136-.288l-8.568-.072V527.71a36.593,36.593,0,0,1,.216-5.184q0.144-.288,5.832.144,5.76,0.36,7.776.288,1.367-.072,1.764-0.144a1.267,1.267,0,0,0,.684-0.36,2.758,2.758,0,0,0,.36-1.584,1.839,1.839,0,0,0-.432-1.44,0.846,0.846,0,0,0-.432-0.432q-0.072,0-.54-0.036t-1.4-.144a15.809,15.809,0,0,1-1.584-.252q-3.456-.36-6.12-0.5-4.536-.432-4.824-0.792-0.576-.648-0.756-3.636t0.252-3.42a1.075,1.075,0,0,0,.432-0.864,2.19,2.19,0,0,1,.576-1.152,1.255,1.255,0,0,1,.792-0.4q0.432-.036,2.376-0.036,2.664,0,5.544.288,5.112,0.648,6.048.288t0.936-2.232a1.247,1.247,0,0,0-.54-1.3,27.611,27.611,0,0,0-3.924-.648q-11.232-1.368-13.824-.648A1.532,1.532,0,0,0,402.166,504.6Zm40.68,0.252a31.688,31.688,0,0,0-.72,5q-0.073.648-.324,3.276t-0.4,3.492a20.847,20.847,0,0,0-.072,4.536q0.216,1.8.432,8.568l0.144,7.056a7.708,7.708,0,0,0,1.44.144,3.07,3.07,0,0,0,1.188-.036q0.178-.108-0.18-0.612a0.659,0.659,0,0,1-.144-0.792q0.216-.144.216-4.968a64.717,64.717,0,0,1,.216-6.7q0.216-1.728.576-1.8,0.287,0,3.6-.144,9.288-.288,11.3-1.008a0.957,0.957,0,0,0,.612-0.612,2.626,2.626,0,0,0,.252-1.116,1.675,1.675,0,0,0-.792-1.512l-7.488-.144-7.416-.072-0.36-.5a3.334,3.334,0,0,1-.288-2.016,23.212,23.212,0,0,1,1.44-6.7l0.432-1.152h2.88q2.376,0,8.208.072h5.256l0.36-.5a6.468,6.468,0,0,0,.5-1.152,1.478,1.478,0,0,0-.936-1.872q-0.648-.288-13.608-0.576-4.466-.144-5.04.144A2.7,2.7,0,0,0,442.846,504.85Zm45,1.044a16.926,16.926,0,0,0-3.672,6.048,36.192,36.192,0,0,0-2.3,11.3q-0.146,4.392.72,6.264A11.515,11.515,0,0,0,485,532.426a9.083,9.083,0,0,0,2.844,2.124,9.421,9.421,0,0,1,2.16,1.008,10.7,10.7,0,0,0,5.832,1.008,16.074,16.074,0,0,0,3.708-.972,23.587,23.587,0,0,0,3.636-1.62q1.439-.864,1.8-0.684a2.593,2.593,0,0,1,.576,1.692,3.929,3.929,0,0,0,.144.936,1,1,0,0,0,.576.288,1.251,1.251,0,0,0,.864-0.216q0.575-.36.576-4.1a34.687,34.687,0,0,1,.72-7.92,9.686,9.686,0,0,0,.36-2.592,3.366,3.366,0,0,0-.216-1.584q-0.432-.5-7.7-0.936l-3.456-.216-1.08.576q-1.658.936-1.62,1.908t1.764,1.4q0.648,0.072,3.6.288,3.382,0.144,4.14.792t0.756,3.384a9.491,9.491,0,0,1-.144,2.088,0.623,0.623,0,0,1-.648.5,3.817,3.817,0,0,0-2.3,1.08,2.1,2.1,0,0,1-1.08.432,3.151,3.151,0,0,0-1.368.576,7.568,7.568,0,0,1-3.2,1.188,9.285,9.285,0,0,1-3.636-.684q-5.329-1.8-6.408-4.392a11.773,11.773,0,0,1-.936-3.78,10.909,10.909,0,0,1,.072-3.852,16.134,16.134,0,0,0,.36-2.448,4.325,4.325,0,0,1,.432-1.728,11.068,11.068,0,0,0,.792-2.3,8.635,8.635,0,0,1,3.888-5.508,8.111,8.111,0,0,1,6.408-1.116,4.753,4.753,0,0,1,2.16.972,6.323,6.323,0,0,1,1.44,1.98,2.074,2.074,0,0,0,.792,1.008,1.815,1.815,0,0,0,1.044-.216,1.4,1.4,0,0,0,.756-0.648,6.183,6.183,0,0,0,0-3.24,5.129,5.129,0,0,0-1.8-1.656,18.218,18.218,0,0,0-3.024-1.584,9.392,9.392,0,0,0-2.592-.4,14.555,14.555,0,0,0-2.808.036A9.968,9.968,0,0,0,487.845,505.894Zm41.579-.324q-0.254,1.4-.54,6.012-0.288,6.264-.72,6.768a4.812,4.812,0,0,0,0,1.8,59.883,59.883,0,0,1,0,11.016,16.193,16.193,0,0,0-.072,3.384,2.1,2.1,0,0,0,.972,1.26,1.325,1.325,0,0,0,1.332.18,1.772,1.772,0,0,0,.5-1.26q0.144-1.044.216-4.716a42.876,42.876,0,0,1,.288-6.336q0.432-2.016,1.224-2.376a11.265,11.265,0,0,1,4.032-.144q2.736,0.216,6.048.144l3.168-.072,0.36,0.5a2.31,2.31,0,0,1,.324,1.3q0.036,0.936.036,5.9,0,6.7.36,7.128a1.206,1.206,0,0,0,1.044.756,0.941,0.941,0,0,0,.972-0.54,8.154,8.154,0,0,0,.36-2.232q0.144-1.872.36-13.968t0.072-13.392a3.681,3.681,0,0,0-.432-1.944,1.516,1.516,0,0,0-1.224-.432,1.573,1.573,0,0,0-1.728,1.512,87.389,87.389,0,0,0,.216,9.936l0.144,2.088H545.8a87.428,87.428,0,0,1-10.008-.5,20.016,20.016,0,0,1-2.52-.432l-0.936-.288,0.072-2.376a31.137,31.137,0,0,1,.792-7.344,3.149,3.149,0,0,0-.5-3.168,1.479,1.479,0,0,0-1.08-.54,1.576,1.576,0,0,0-1.152.4A2.973,2.973,0,0,0,529.424,505.57Zm49.212,14.508q0.216-10.44.5-11.016,0.791-1.44,3.6-1.44a3.767,3.767,0,0,0,1.872-.324,1.391,1.391,0,0,0,.5-1.26,1.578,1.578,0,0,0-.936-1.62,15.912,15.912,0,0,0-4.32-.54q-2.522-.072-7.272-0.5a4.3,4.3,0,0,0-1.368.072,2.141,2.141,0,0,0-1.08.72q-1.154,1.3-.288,2.124a6.328,6.328,0,0,0,3.528,1.116q1.944,0.144,2.16.5,0.216,0.216.216,12.024v2.088q-0.073,9.216-.144,9.648a0.782,0.782,0,0,1-.432.4,10.982,10.982,0,0,1-1.8.252,19.536,19.536,0,0,0-3.1.5,1.76,1.76,0,0,0-1.152,1.008,1.562,1.562,0,0,0-.072,1.224,1.522,1.522,0,0,0,.864.864,11.644,11.644,0,0,0,2.16.432q1.944,0.144,6.552.108a25.742,25.742,0,0,0,4.968-.252,1.663,1.663,0,0,0,.576-1.512,1.873,1.873,0,0,0-.576-1.584,11.1,11.1,0,0,0-2.34-.612,21.023,21.023,0,0,1-2.448-.576q-0.469-.18-0.468-2.2,0.071-2.52.144-6.48,0.071-1.728.144-3.168h0Zm41.687-10.224a12.728,12.728,0,0,1-.36-2.3,14.735,14.735,0,0,1,3.24-.216,22.979,22.979,0,0,0,3.456-.324,1.106,1.106,0,0,0,.792-0.972,1.78,1.78,0,0,0-1.512-2.16,62.547,62.547,0,0,0-9.5-.576q-4.249-.072-5.256-0.036a4.431,4.431,0,0,0-1.512.252,3.748,3.748,0,0,0-1.116.9,1.733,1.733,0,0,0-.54.972q0,0.72,1.44,1.368a13.529,13.529,0,0,0,3.168.432,28.144,28.144,0,0,1,3.024.36,0.989,0.989,0,0,1,.72.864,34.821,34.821,0,0,1,1.152,5.4q0.216,1.3.936,5.256,0.287,2.3.432,4.1a17.633,17.633,0,0,1-.576,6.12,4.414,4.414,0,0,1-1.476,2.232,11.958,11.958,0,0,1-3.708,1.44,12.918,12.918,0,0,1-2.7.5,4.085,4.085,0,0,1-1.836-.576,4.953,4.953,0,0,0-2.3-.648,2.108,2.108,0,0,0-1.512.432,1.931,1.931,0,0,0-.432,1.044,0.928,0.928,0,0,0,.288.9,7.3,7.3,0,0,0,1.548.864,13.21,13.21,0,0,0,1.908.72,17.5,17.5,0,0,0,6.264-.288,31.477,31.477,0,0,0,3.168-1.044,7.715,7.715,0,0,0,3.6-3.132,22.871,22.871,0,0,0,1.08-7.848,38.248,38.248,0,0,0-.432-5.112q-0.864-5.616-1.44-8.928h0ZM655.6,523.1a31.04,31.04,0,0,1-3.1-2.592q-0.72-.648-0.432-1.008,0.5-1.08,6.192-5.58a65.751,65.751,0,0,1,7.992-5.724,2.181,2.181,0,0,0,.684-0.936,4.423,4.423,0,0,0,.468-1.368,1.2,1.2,0,0,0-.216-1.08q-1.368-1.44-5.472,1.8-1.944,1.584-5.256,4.5a43.706,43.706,0,0,0-3.672,3.42l-0.36.5-0.216-.5a11.138,11.138,0,0,1,.072-3.384q0.648-6.48-.072-7.848a1.115,1.115,0,0,0-.936-0.72,3.187,3.187,0,0,0-1.008.144,2.042,2.042,0,0,0-1.008,1.62,47.7,47.7,0,0,0-.576,5.436,51.44,51.44,0,0,1-.648,6.408q-0.288,2.3-.432,3.384l-0.72,7.128a71.734,71.734,0,0,0-.576,7.7,10.948,10.948,0,0,0,.144,1.548,0.648,0.648,0,0,0,.432.4,1.744,1.744,0,0,0,1.08.108,1.8,1.8,0,0,0,1.008-.468q0.792-.792,1.08-4.608a40.115,40.115,0,0,1,.72-5.976q0.144-.216,2.016,1.152,0.648,0.432,1.224.864a14.479,14.479,0,0,0,2.376,1.944q2.23,1.584,4.608,3.24a49.2,49.2,0,0,0,4.32,3.024,5.793,5.793,0,0,0,2.448.864,1.743,1.743,0,0,0,1.44-.36,1.5,1.5,0,0,0,.432-1.98,10.754,10.754,0,0,0-2.952-2.772q-1.728-1.224-3.1-2.232-0.793-.576-3.672-2.52-2.376-1.728-3.168-2.376L655.6,523.1h0Zm35.28-17.928q-0.361,2.808-1.08,13.536-0.432,7.7-.936,13.1a2.917,2.917,0,0,0,.216,1.62,4.11,4.11,0,0,0,1.512,1.116q3.167,1.728,10.656,1.728,8.495-.072,10.152-1.512a1.728,1.728,0,0,0,.576-1.368q0-1.728-1.224-2.016a3.826,3.826,0,0,0-1.512,0q-1.3.144-6.912,0.252a56.883,56.883,0,0,1-6.984-.108,3.886,3.886,0,0,1-2.16-.576q-1.01-1.224-.576-3.888,0.648-4.68,1.008-8.208,0.358-4.32.576-7.416,0.287-3.168.576-5.04a4.945,4.945,0,0,0,0-2.448,1.87,1.87,0,0,0-1.152-.972,2.14,2.14,0,0,0-1.584.108,2.5,2.5,0,0,0-1.152,2.088h0Zm40.463,8.136q-0.36,7.2-.864,14.688-0.576,6.552-.288,7.632a1.7,1.7,0,0,0,1.224.972,2.05,2.05,0,0,0,1.656-.036v-0.072a1.166,1.166,0,0,0,.684-1.224q0.036-1.008.108-6.552V528.43q0.072-13.752.72-13.824a8.165,8.165,0,0,1,.936,2.16,24.584,24.584,0,0,0,3.024,5.256,4.261,4.261,0,0,0,2.952,1.512,2.079,2.079,0,0,0,1.692-1.044,27.743,27.743,0,0,0,1.836-4.428,36.5,36.5,0,0,1,1.728-4.428,1.631,1.631,0,0,1,1.08-.972,0.842,0.842,0,0,1,1.3.576q0.432,0.72.72,7.416,0.36,9.288.36,12.312a17.85,17.85,0,0,0,.144,3.024,1.314,1.314,0,0,0,.936.864q0.576,0.648,1.8-.072l0.576-.432-0.144-4.1q-0.144-4.536-.72-15.912t-0.72-11.952a1.736,1.736,0,0,0-1.476-1.44,2.724,2.724,0,0,0-2.2.828,5.176,5.176,0,0,0-1.512,2.556,14.072,14.072,0,0,1-1.224,2.952,35.208,35.208,0,0,0-2.3,5.112,24.593,24.593,0,0,1-1.512,3.6q-0.936,1.512-1.656.72-0.288-.576-1.3-2.844t-1.584-4a59.815,59.815,0,0,0-2.664-6.264,1.443,1.443,0,0,0-1.08-1.224,1.271,1.271,0,0,0-1.368.36q-0.576.576-.864,8.568h0Zm43.272-8.136a44.538,44.538,0,0,0-.5,5.76q-0.216,5.472-.648,15.12-0.936,9.36-.432,10.152a0.908,0.908,0,0,0,.9.324,1.763,1.763,0,0,0,1.188-.54q0.864-.864,1.224-5.184,0.36-4.608.5-10.512a11.25,11.25,0,0,0,.216-2.448,6.409,6.409,0,0,1,.144-1.872,0.8,0.8,0,0,1,.216-0.144q0.36-.144.72,0.864,0.432,1.152,1.872,5.8a31.369,31.369,0,0,0,2.376,6.156,21.932,21.932,0,0,0,4.752,6.012q2.592,2.2,4.68,1.98a2.993,2.993,0,0,0,3.1-2.52q0.36-1.872.432-16.92,0.216-9.72.36-11.3a3.442,3.442,0,0,0-.54-2.3,1.715,1.715,0,0,0-1.548-1.008,4.388,4.388,0,0,0-1.224.252,1.954,1.954,0,0,0-.864.4q-0.145.216,0.072,7.7,0.216,9.144.072,14.94t-1.008,5.868q-0.648.072-2.232-1.368a13.967,13.967,0,0,1-2.52-2.952q-2.09-6.84-3.384-10.224-2.09-5.544-3.528-10.8-0.648-2.16-.828-2.628a1.2,1.2,0,0,0-.684-0.684,1.547,1.547,0,0,0-1.728.216A2.875,2.875,0,0,0,774.617,505.174Zm46.188-.072a14.555,14.555,0,0,0-2.988,3.24,21.982,21.982,0,0,0-2.664,8.568,24.187,24.187,0,0,0,.36,9.432,8.246,8.246,0,0,0,.972,2.556,15.652,15.652,0,0,0,2.124,2.484,20.89,20.89,0,0,0,5.9,4.284,9.694,9.694,0,0,0,5.472,1.044q3.742-.5,6.048-4.536a23.435,23.435,0,0,0,2.376-6.912,46.6,46.6,0,0,0,1.008-8.784,15.176,15.176,0,0,0-.324-3.528,18.879,18.879,0,0,0-1.548-3.672q-2.232-4.68-5.112-5.76a9.611,9.611,0,0,0-3.852-.972,13.835,13.835,0,0,0-4.716.684A8.2,8.2,0,0,0,820.805,505.1Zm10.836,3.276a13.836,13.836,0,0,1,2.088,2.484,7,7,0,0,1,1.152,2.412,22.5,22.5,0,0,1,.216,3.852q-0.072,8.136-2.016,12.168a4.707,4.707,0,0,1-2.88,2.664q-3.818,1.152-7.56-2.664a10.391,10.391,0,0,1-2.88-4.824,30.757,30.757,0,0,1-.072-8.892,23.378,23.378,0,0,1,1.8-3.852,22.334,22.334,0,0,1,2.556-4.068,3.759,3.759,0,0,1,2.2-1.188,5.609,5.609,0,0,1,3.312.216A10.026,10.026,0,0,1,831.641,508.378Zm27.288-.252a55.771,55.771,0,0,0-1.44,11.916,74.931,74.931,0,0,0,.5,13.212,12.883,12.883,0,0,0,.685,3.024,1.237,1.237,0,0,0,1.044.72,1,1,0,0,0,.612-0.144,2.453,2.453,0,0,0,.468-0.72,5.683,5.683,0,0,0,.432-2.376,9.464,9.464,0,0,0-.216-2.232,35.335,35.335,0,0,1-.361-5.184V525.91q-0.072-3.888.253-4.464t2.556,0a0.543,0.543,0,0,0,.216.072,14.46,14.46,0,0,0,7.164.072,10.6,10.6,0,0,0,5.652-3.024,14.731,14.731,0,0,0,2.808-4.572q1.08-2.7.575-4.14a9.471,9.471,0,0,0-2.483-2.844,17.216,17.216,0,0,0-3.853-2.772,7.584,7.584,0,0,0-2.483-.828,41.791,41.791,0,0,0-4.285-.252,22.5,22.5,0,0,0-4.535.144q-2.16.72-3.312,4.824h0Zm16.488,3.6a3.581,3.581,0,0,1-.144,2.268,6.08,6.08,0,0,1-1.729,2.052,11.022,11.022,0,0,1-4.247,2.232,10.5,10.5,0,0,1-5.832-.072,7.768,7.768,0,0,1-1.836-.648,1.118,1.118,0,0,1-.54-0.864,14.419,14.419,0,0,1,.252-3.492,36,36,0,0,1,.9-4.644,1.969,1.969,0,0,1,1.728-1.368,13.351,13.351,0,0,1,2.7-.036,13.961,13.961,0,0,1,3.06.468q4.968,1.224,5.688,4.1h0Zm29.591-6.192A21.567,21.567,0,0,0,901.7,510a23.939,23.939,0,0,0-2.3,5.184q-0.432,1.44-.288,8.5v4.536l0.5,1.224a9.474,9.474,0,0,0,2.736,4.248,9.36,9.36,0,0,0,2.016,1.152,15.956,15.956,0,0,0,10.656,1.152,8.374,8.374,0,0,1,4.752.864l2.016,0.864,0.288-.432q1.224-1.512,1.044-2.34a3.618,3.618,0,0,0-1.836-1.836q-1.44-.936-0.864-1.728a14.915,14.915,0,0,0,1.8-4.32q2.664-12.1-1.728-19.3a8.6,8.6,0,0,0-2.376-2.7,11.058,11.058,0,0,0-3.528-1.476,11.9,11.9,0,0,0-3.276-.5,10.587,10.587,0,0,0-2.772.144,9.33,9.33,0,0,0-3.528,2.3h0Zm12.1,3.744a10.51,10.51,0,0,1,1.656,3.528,24.393,24.393,0,0,1,.756,7.812q-0.108,5.292-1.116,7.38a3.144,3.144,0,0,1-.864,1.152,1.018,1.018,0,0,1-1.008-.144,38.156,38.156,0,0,1-5.4-4.032,15.611,15.611,0,0,0-2.52-1.8,2.134,2.134,0,0,0-1.836-.036,1.826,1.826,0,0,0-1.188,1.26q-0.288,1.152,2.952,3.96,4.32,3.744,4.1,4.032a2.385,2.385,0,0,1-1.368.288,11.193,11.193,0,0,1-2.232-.072,6.816,6.816,0,0,1-3.78-1.692,8.457,8.457,0,0,1-2.124-4.068,25.514,25.514,0,0,1-.432-4.968q-0.144-5.976.288-7.2a16.352,16.352,0,0,1,1.8-3.528q1.3-2.016,1.728-2.016a3.392,3.392,0,0,0,1.3-.864,5.137,5.137,0,0,1,2.736-1.584,8.646,8.646,0,0,1,3.744.864A6.713,6.713,0,0,1,917.1,509.278Zm30.312-5.184a4.651,4.651,0,0,0-2.376,2.088,13.117,13.117,0,0,0-1.08,4.284q-0.361,2.916-.576,9.468-0.145,6.264-.36,8.64a50.963,50.963,0,0,0-.144,7.416q0.359,2.088,1.512,2.3a1.582,1.582,0,0,0,1.62-.36,4.389,4.389,0,0,0,.612-2.232,24.017,24.017,0,0,0-.108-3.24,19.5,19.5,0,0,0-.4-2.952q-0.361-1.224.288-1.224a6.534,6.534,0,0,1,1.584.936,58.9,58.9,0,0,0,7.056,3.96q2.3,1.152,4.032,2.16a10.767,10.767,0,0,0,2.2,1.044,4.918,4.918,0,0,0,1.62.108,2.192,2.192,0,0,0,1.836-1.08,1.668,1.668,0,0,0-.54-1.872q-1.8-1.728-8.064-4.824-3.386-1.656-4.212-2.16a1.12,1.12,0,0,1-.756-0.936q0.143-.792,3.456-1.656a19.905,19.905,0,0,0,4.572-1.98,14.634,14.634,0,0,0,3.708-2.7,7.156,7.156,0,0,0,1.656-3.168,12.2,12.2,0,0,0,.4-3.852,8.107,8.107,0,0,0-.684-3.132,8.567,8.567,0,0,0-1.476-1.872,6.129,6.129,0,0,0-1.836-1.44,27.374,27.374,0,0,0-5.328-2.088,17.6,17.6,0,0,0-5.9-.288,8.785,8.785,0,0,0-2.3.648h0Zm7.992,3.888a2.517,2.517,0,0,0,1.08.432,5.454,5.454,0,0,1,4.1,6.336,6.455,6.455,0,0,1-.288,1.4,2.434,2.434,0,0,1-.648.756,29.445,29.445,0,0,1-4.536,3.168,11.971,11.971,0,0,1-2.232.936,20.732,20.732,0,0,0-3.132,1.26,11.524,11.524,0,0,0-2.268,1.332,1.531,1.531,0,0,1-.72.54,14.875,14.875,0,0,1-.108-3.348q0.035-3.312.18-5.256a13.264,13.264,0,0,1,.36-2.664,9.942,9.942,0,0,0,.36-1.836c0.1-.792.144-1.308,0.144-1.548a1.977,1.977,0,0,1,1.152-2.016,8.714,8.714,0,0,1,2.376-.252,12.9,12.9,0,0,1,2.808.18,2.833,2.833,0,0,1,1.368.576h0Zm36.719-4.752-1.656.576-0.792,1.224a9.433,9.433,0,0,0-1.3,2.556,10.771,10.771,0,0,0-.288,2.772,6.061,6.061,0,0,0,.432,2.88q1.44,2.736,5.76,5.256a30.913,30.913,0,0,1,5.58,3.78,12.718,12.718,0,0,1,3.063,3.564,3.8,3.8,0,0,1,.29,3.456,7.352,7.352,0,0,1-2.09,2.124,10.438,10.438,0,0,1-2.739,1.62q-1.656.576-4.9-.576a12.759,12.759,0,0,1-4.9-2.736q-1.872-1.8-2.808-1.584a1.6,1.6,0,0,0-1.368,1.656,2.173,2.173,0,0,0,.864,1.512q2.592,2.52,8.64,4.824a11.118,11.118,0,0,0,3.456.72,6.011,6.011,0,0,0,2.667-.5,15.838,15.838,0,0,0,4.68-3.384,8.61,8.61,0,0,0,1.83-2.052,7.622,7.622,0,0,0,.62-2.412,8.888,8.888,0,0,0-.11-2.7,12.009,12.009,0,0,0-1.48-2.916,11.33,11.33,0,0,0-2.48-3.2q-1.335-1.116-6.447-4.356-3.816-2.52-4.752-3.96a3.429,3.429,0,0,1-.5-2.808,3.125,3.125,0,0,1,1.944-2.448,6.229,6.229,0,0,1,3.168-.288,8.862,8.862,0,0,1,3.384.936,7.192,7.192,0,0,1,2.6,2.16,3.694,3.694,0,0,0,1,1.116,1.672,1.672,0,0,0,1.12.144,2.03,2.03,0,0,0,1.19-.648,1.728,1.728,0,0,0,.5-1.188,2.158,2.158,0,0,0-.86-1.44,9.333,9.333,0,0,1-1.51-1.728q-2.385-2.736-7.493-2.664a20.722,20.722,0,0,0-2.232.072,18.342,18.342,0,0,0-2.088.648h0Zm35.563,0.72c-1,.72-1.46,1.44-1.36,2.16a0.674,0.674,0,0,0,.21.4,2.373,2.373,0,0,0,.65.252,6.465,6.465,0,0,1,1.15.36q0.645,0.36,5.55.648a37.711,37.711,0,0,1,3.99.4,1.35,1.35,0,0,1,1.01.576,52.929,52.929,0,0,1,.22,6.552q0.03,6.156-.18,9.108c-0.2,4.272-.53,7.08-1.01,8.424a7.237,7.237,0,0,0-.36,1.728,2.491,2.491,0,0,0,.5,1.26,1.787,1.787,0,0,0,.87.828,2.2,2.2,0,0,0,1.22-.072,1.951,1.951,0,0,0,1.01-.5q0.93-1.08,1.65-22.752a25.486,25.486,0,0,1,.36-4.968c0.15-.144,3.17-0.336,9.08-0.576a15.6,15.6,0,0,0,3.27-.432,1.62,1.62,0,0,0,.47-1.512,2.446,2.446,0,0,0-.32-1.548,3.082,3.082,0,0,0-1.62-.468q-2.67-.288-12.17-0.432t-12.24.072a3.7,3.7,0,0,0-1.95.5h0Zm49.18,4.464q-1.365,8.208-1.94,16.632-0.435,5.76,1.08,8.136,1.44,2.3,7.41,3.528a15.139,15.139,0,0,0,6.91,0,13.163,13.163,0,0,0,4.47-2.376,6.785,6.785,0,0,1,1.73-1.224,1.1,1.1,0,0,0,.72-0.648q1.29-3.24-.36-18.792-0.36-3.168-.44-5.76a11.564,11.564,0,0,0-.25-2.556,1.637,1.637,0,0,0-.97-0.9c-1.15-.576-2.04-0.624-2.66-0.144a2.239,2.239,0,0,0-.54,1.836c0.02,0.888.3,3.084,0.82,6.588a67.885,67.885,0,0,1,.8,11.592q-0.15,4.392-1.08,5.976a5.652,5.652,0,0,1-3.1,2.376,11.039,11.039,0,0,1-3.53.216q-5.76-.288-6.84-2.3a6.713,6.713,0,0,1-.5-2.736,96.178,96.178,0,0,1,1.22-14.616q1.155-8.064.72-8.928a1.523,1.523,0,0,0-.75-0.792,2.3,2.3,0,0,0-.98-0.432,0.973,0.973,0,0,0-.57.432q-0.72.72-1.37,4.9h0Zm40.39-2.448a16.11,16.11,0,0,0,.61,4.824q0.765,3.1,3.57,12.672,0.8,2.88,2.16,6.732a46.664,46.664,0,0,0,1.8,4.644,3.117,3.117,0,0,0,.79,1.008,2.757,2.757,0,0,0,2.59.432,2.479,2.479,0,0,0,1.19-.684,1.684,1.684,0,0,0,.68-0.9,21.909,21.909,0,0,1,1.16-2.736,27.914,27.914,0,0,0,1.36-3.384,44.3,44.3,0,0,1,1.66-4.68c1.54-3.84,2.3-6.1,2.3-6.768,0-.24.32-1.536,0.94-3.888,0.86-3.168,1.37-5.208,1.51-6.12a3.761,3.761,0,0,0-.07-2.016,1.571,1.571,0,0,0-.94-0.576,1.5,1.5,0,0,0-1.22.072,2.1,2.1,0,0,0-1.01,1.3,34.452,34.452,0,0,0-1.15,4.1,85.152,85.152,0,0,1-2.88,9.936c-0.53,1.44-.98,2.76-1.37,3.96a33.324,33.324,0,0,1-1.69,4.068c-0.7,1.416-1.16,2.124-1.4,2.124s-0.65-.84-1.23-2.52c-0.19-.624-0.48-1.44-0.86-2.448a39.464,39.464,0,0,1-1.59-6.7,43.086,43.086,0,0,0-1.72-6.552,24.28,24.28,0,0,1-.94-4.1c-0.34-2.448-.72-3.84-1.15-4.176a1.909,1.909,0,0,0-1.01-.252,2.324,2.324,0,0,0-1.15.18c-0.58.336-.89,1.152-0.94,2.448h0Zm62.93-.4q-0.075,2.124.14,10.26,0.15,10.584-.03,13c-0.12,1.608-.52,2.412-1.19,2.412a0.87,0.87,0,0,1-.79-0.576,13.43,13.43,0,0,0-1.08-1.584,21.09,21.09,0,0,1-3.24-5.76,47.668,47.668,0,0,1-1.41-4.752,37.9,37.9,0,0,1-.9-4.392c-0.19-1.776-.53-2.856-1-3.24a1.6,1.6,0,0,0-1.77-.324,2.808,2.808,0,0,0-1.4,1.692,29.486,29.486,0,0,0-1.23,3.888,34.806,34.806,0,0,1-2.23,6.984,12.859,12.859,0,0,0-.72,1.872,17.916,17.916,0,0,1-1.11,2.268,11.991,11.991,0,0,1-1.34,1.98l-0.43.576-0.14-1.656q-0.075-1.3.11-5.976c0.11-3.12.25-5.592,0.39-7.416,0.1-1.44.31-3.264,0.65-5.472q0.645-5.04.29-5.256a5.86,5.86,0,0,0-1.01-.216,1.816,1.816,0,0,0-1.3.144,3.481,3.481,0,0,0-.93,1.224,16.537,16.537,0,0,0-1.3,5.832c-0.1,1.44-.15,4.944-0.18,10.512s0.01,8.808.11,9.72a4.357,4.357,0,0,0,.47,1.62,3.6,3.6,0,0,0,1.26,1.116,4.6,4.6,0,0,0,2.09.576l1.22-.144,0.79-.648a13.373,13.373,0,0,0,2.81-5.688c0.33-1.152.8-2.52,1.4-4.1a17.545,17.545,0,0,1,1.26-2.88q0.36-.432.51-0.288a11.891,11.891,0,0,1,1.15,3.024,27.229,27.229,0,0,0,1.76,4.428,28.786,28.786,0,0,0,2.63,3.924,19.1,19.1,0,0,0,2.52,2.88,5.906,5.906,0,0,0,2.31,1.224,4.244,4.244,0,0,0,1.94.216,2.755,2.755,0,0,0,1.44-.936,6.331,6.331,0,0,0,1.44-3.96q0.285-3.312.14-14.688t-0.43-12.6a1.865,1.865,0,0,0-.79-1.152,2.812,2.812,0,0,0-1.26-.324,1.663,1.663,0,0,0-1.12.252C1180.41,503.35,1180.24,504.154,1180.19,505.57Zm37.51,6.012a14.838,14.838,0,0,1-1.33,2.664,0.691,0.691,0,0,1-.9.072,6.7,6.7,0,0,1-1.55-1.872,25.626,25.626,0,0,1-1.83-3.24c-1.01-2.064-1.8-3.24-2.38-3.528a2.09,2.09,0,0,0-1.33-.252,1.963,1.963,0,0,0-1.33.4q-0.585.576,0.21,2.664,0.36,0.936,2.23,4.392,3.1,5.616,3.1,6.84t-2.2,5.112a58.1,58.1,0,0,1-4.78,7.2q-2.1,2.808-1.08,4.32a1.377,1.377,0,0,0,1.36.108,3.113,3.113,0,0,0,1.66-.9,2.777,2.777,0,0,0,.79-1.224,26.891,26.891,0,0,1,2.38-3.816,53.615,53.615,0,0,0,2.95-4.536c0.24-.288.44-0.552,0.61-0.792s0.37-.5.61-0.792a30.618,30.618,0,0,1,1.73,2.808,61,61,0,0,0,5.55,7.992l1.22,1.44,0.94-.072a2.077,2.077,0,0,0,1.54-.828,2.225,2.225,0,0,0,.18-1.836,4.582,4.582,0,0,0-1.29-2.016,10.921,10.921,0,0,1-1.59-2.16,17.881,17.881,0,0,0-1.87-3.168,15.9,15.9,0,0,1-1.94-3.384,21.4,21.4,0,0,0-1.15-2.088,4.43,4.43,0,0,1-.8-1.188,4.02,4.02,0,0,1,.58-1.116c0.24-.48.81-1.632,1.73-3.456a30.36,30.36,0,0,1,4.25-6.48,19.051,19.051,0,0,0,1.8-2.232,2.71,2.71,0,0,0,.07-1.4,3.312,3.312,0,0,0-.58-1.476c-0.57-.768-1.42-0.744-2.52.072q-2.31,1.656-5.04,7.776h0Zm27.36-7.452a1.426,1.426,0,0,0-.07,1.044c0.38,1.584,1.73,3.816,4.03,6.7,1.15,1.488,2.02,2.664,2.59,3.528l1.01,1.512,0.14,9.216q0.075,9.288.29,9.936a1.746,1.746,0,0,0,.58.828,2.609,2.609,0,0,0,1.22.324,1.417,1.417,0,0,0,1.3-.288,1.037,1.037,0,0,0,.36-0.72,5.01,5.01,0,0,1,.29-1.3,4.655,4.655,0,0,0,.21-1.656,44.417,44.417,0,0,1-.43-6.84q0.285-8.64,1.44-11.088a7.506,7.506,0,0,1,2.02-2.16q1.65-1.44,3.45-3.024,3.96-3.528,4.32-3.528c0.43,0,.63-0.672.58-2.016a1.039,1.039,0,0,0-.79-1.008,2.4,2.4,0,0,0-1.8.144,34.284,34.284,0,0,0-4.4,3.816q-5.895,5.544-6.26,5.544-0.57,0-4.25-5.4-3.315-4.752-3.67-4.752a5.212,5.212,0,0,0-1.08.432A2.88,2.88,0,0,0,1245.06,504.13Zm42.19-.252a1.334,1.334,0,0,0-.07,1.512,3.079,3.079,0,0,0,2.16,1.332,25.825,25.825,0,0,0,5.4.4q2.73,0,5.58.18a14.236,14.236,0,0,1,2.99.324c0.19,0.192-.43,1.368-1.87,3.528a46.654,46.654,0,0,0-2.88,4.752,43.446,43.446,0,0,1-3.03,4.608q-1.44,1.872-4.46,6.3t-3.53,5.436c-0.62,1.248-.64,2.148-0.04,2.7s2.03,1,4.29,1.332q3.675,0.576,9.39.936c3.82,0.24,6.06.264,6.74,0.072a2.237,2.237,0,0,0,1.29-.864,2.248,2.248,0,0,0-1.01-3.528q-0.93-.36-14.97-0.576a0.979,0.979,0,0,1-.47-0.072,0.432,0.432,0,0,1-.11-0.36q0-1.728,4.03-7.344c1.16-1.632,2.09-3.072,2.81-4.32a30.935,30.935,0,0,1,2.67-3.672,19.058,19.058,0,0,0,2.3-3.1,9.509,9.509,0,0,1,2.74-3.24c1.58-1.248,2.4-2.544,2.44-3.888a2.293,2.293,0,0,0-1.29-2.232,15.756,15.756,0,0,0-5.26-.864q-2.955-.144-8.1-0.252a54.935,54.935,0,0,0-5.94.036A2.79,2.79,0,0,0,1287.25,503.878Z"/>
  <path id="logo" class="cls-1" d="M706.266,1194.7a45.969,45.969,0,0,0-.118,5.15v5.16H677.555v-1.17l0.234-.94-1.406-.24c-1.1,0-2.659-.07-4.688-0.23h-3.281l-0.469,2.58a45.646,45.646,0,0,1-1.172,4.92,22.619,22.619,0,0,1-1.406,4.22,7.125,7.125,0,0,0-.82,2.23,6.584,6.584,0,0,0,2.109-.71c1.326-.54,2.615-1.13,3.867-1.76a11.566,11.566,0,0,0,3.516-2.81l1.641-1.64h66.8l1.875,1.88a14.477,14.477,0,0,0,3.75,2.81c1.406,0.62,2.655,1.17,3.75,1.64a1.036,1.036,0,1,0,1.171-1.17,17.1,17.1,0,0,1-1.406-3.99q-0.7-2.34-1.172-4.68a11.9,11.9,0,0,0-.7-3.05c0-.47-1.252-0.62-3.75-0.47-1.875.16-3.281,0.23-4.219,0.23a2.052,2.052,0,0,1-.937.24c-0.315,0-.469.31-0.469,0.94l0.235,0.93-13.594.24q-13.359,0-13.36-.24a2.838,2.838,0,0,1,.7-1.05,6.664,6.664,0,0,0,1.171-2.46,15.728,15.728,0,0,0,.469-4.22v-2.58h-4.687Q706.382,1194.46,706.266,1194.7Zm-31.289,28.12v4.22l21.093,0.23h21.094l-5.859,4.93q-5.4,4.215-8.2,6.56l-2.344,1.87v6.8H660.445v4.22h40.313v14.76c0,10.01-.158,15.47-0.469,16.41a13.152,13.152,0,0,1-1.172,3.05,21,21,0,0,1-2.578,3.04,16.962,16.962,0,0,1-3.75,2.82c-1.406.62-2.109,1.17-2.109,1.64s0.153,0.7.468,0.7a30.375,30.375,0,0,0,3.047-.47,34.353,34.353,0,0,0,4.922-1.4,16.4,16.4,0,0,0,4.688-1.88,11.74,11.74,0,0,0,3.515-2.34,12.264,12.264,0,0,0,2.344-2.58,13,13,0,0,0,1.172-2.58c0.311-.94.469-6.4,0.469-16.41v-14.76h38.2v-4.22h-38.2v-6.8l2.109-1.64q2.109-1.635,8.438-6.79,6.327-5.4,8.437-7.04a13.637,13.637,0,0,0,2.578-2.34q0-.225-28.828-0.23t-29.062.23h0Zm121.64-30.23-0.469,1.87a27.635,27.635,0,0,1-1.523,5.74c-0.861,2.43-1.681,4.65-2.461,6.68q-1.176,2.58-3.281,6.8-1.88,3.75-4.453,8.44-2.11,3.75-4.688,7.73-2.582,4.215-3.047,4.92a7.818,7.818,0,0,0-1.406,2.11c-0.157.47-.117,0.71,0.117,0.71a8.252,8.252,0,0,0,2.227-1.18q1.873-1.17,3.515-2.34,1.874-1.41,3.985-3.28a59.714,59.714,0,0,0,4.453-4.45l2.109-2.35,0.235,14.77,0.234,14.76h1.875a5.862,5.862,0,0,0,3.047-.7,5.457,5.457,0,0,0,1.875-1.17,11.374,11.374,0,0,0,1.406-1.64l0.469-.71h27.187v2.11l0.235,2.11h1.64a7.437,7.437,0,0,0,2.813-.47,9.072,9.072,0,0,0,2.109-1.17,4.666,4.666,0,0,0,1.407-1.64l0.7-.94h31.64v-4.45H838.336v-6.8H868.57v-4.45H838.336v-6.8H868.57v-4.68H838.336v-7.5H868.57v-4.69H837.164l0.938-1.17a23.668,23.668,0,0,0,1.406-2.35,6.445,6.445,0,0,0,.7-2.57,17.74,17.74,0,0,0,.469-4.93v-3.51H828.727v14.53H815.6q-13.129,0-13.125-.23c0-.16-0.158-0.24-0.469-0.24s0.311-1.41,1.875-4.22a69.182,69.182,0,0,0,3.281-7.5,16.732,16.732,0,0,0,1.406-3.98l0.235-1.17H796.617Zm31.406,22.03v7.5H802.477v-7.5h25.546Zm0,12.18v6.8H802.477v-6.8h25.546Zm0,11.25v6.8H802.477v-6.8h25.546Zm-3.515,16.88v5.16l-22.969.23H778.805v4.45h45.7v1.64c0,1.1-.081,1.64-0.235,1.64a40.222,40.222,0,0,1-4.687-1.17q-4.455-1.17-4.922-1.4-0.236,0-6.328,4.68-6.1,4.935-7.734,6.1-1.643.93-4.454,2.58a58.967,58.967,0,0,1-5.39,2.57q-2.812,1.185-5.391,2.23a35.226,35.226,0,0,1-5.859,1.76,17.416,17.416,0,0,0-3.047,1.05,6.06,6.06,0,0,0,1.289,1.06,3.994,3.994,0,0,0,1.992.94c0.469,0,2.344-.32,5.625-0.94s6.328-1.33,9.141-2.11q4.449-1.17,8.2-2.35a22.822,22.822,0,0,0,4.922-2.1q1.637-.945,9.14-6.1t7.618-5.04q0.115,0.12.117,13.48v13.12h1.406a7.357,7.357,0,0,0,2.813-.7,6.692,6.692,0,0,0,3.046-1.99,11.184,11.184,0,0,0,2.11-3.17,8.733,8.733,0,0,0,.586-2.34q0.115-1.17.117-6.33c0.154-4.68.271-7.11,0.352-7.26s1.442,0.55,4.1,2.11q3.982,2.1,6.8,3.51a34.945,34.945,0,0,0,6.328,2.58,54.282,54.282,0,0,0,6.328,1.64,52.974,52.974,0,0,0,5.625.94c1.718,0.16,4.219.23,7.5,0.23a38.521,38.521,0,0,0,5.86-.23,1.37,1.37,0,0,0,1.171-.94l0.235-1.17c0-.15-0.235-0.24-0.7-0.24-0.315,0-1.722-.23-4.219-0.7s-5-1.01-7.5-1.64q-3.516-.93-6.8-2.11-2.812-.93-5.625-2.11-2.346-1.17-10.078-6.33l-7.734-5.15,19.453-.24h19.453v-4.45H854.977l-20.157-.23v-2.58l-0.234-2.58H824.508Z"/>
</svg>
