<svg xmlns="http://www.w3.org/2000/svg" width="1540" height="1450" viewBox="0 0 1540 1450">
  <defs>
    <style>
      .cls-1 {
        fill: #fff;
      }

      .cls-1, .cls-2, .cls-3 {
        fill-rule: evenodd;
      }

      .cls-2 {
        fill: #fefefe;
      }

      .cls-3 {
        fill: #fdfdfd;
      }
    </style>
  </defs>
  <path id="字体名称" class="cls-1" d="M117.25,200.32q-6.254-1.172-8.4,2.344,0,0.783,4.882,5.078,5.078,3.128,12.305,1.563,14.649-2.345,29.1-3.907,5.859-.585,6.64,4.3,1.172,19.144.781,44.532,0,4.687-4.687,5.273-22.851,3.324-40.039,4.3-2.151-.779-4.3,2.344,6.834,8.985,13.867,7.226l29.3-3.906q5.859-.389,5.859,4.3l-0.2,47.265q0,4.3-5.273,4.883-36.525,3.9-62.7,5.469a9.857,9.857,0,0,0-3.125.586q-2.737,1.363-1.367,3.516,8.006,8.394,16.211,6.054,90.624-11.526,132.813-14.453,12.3-1.368-.2-11.133-2.738-1.95-7.812-.586-22.074,4.1-52.734,8.2-5.86.586-5.86-4.1-0.585-23.437-.586-46.875,0-4.687,4.688-5.664,18.75-2.537,42.968-4.883,6.446-1.758,5.86-3.516-2.929-6.051-8.008-8.007-1.954-.975-7.812,1.172a95.551,95.551,0,0,1-15.626,2.734L177.8,256.766q-5.859.781-6.25-5.078a240.658,240.658,0,0,1,1.172-34.18q1.758-7.032.781-10.547-1.954-3.122,2.734-3.906,28.515-4.1,48.438-5.86,6.834,0.587,6.836-3.515-5.667-10.74-13.672-7.227-44.142,9.183-100.586,13.867h0Zm280.469-22.656-1.563,15.625q-0.585,5.859-5.273,6.641l-16.992,2.539q-5.861.783-6.446-5.078V186.062l0.586-3.515q0.779-4.294-4.687-7.031-6.445-3.123-7.227-2.735-1.368,1.369-.195,4.492a67.84,67.84,0,0,1,3.711,21.289q0.389,5.86-4.492,6.446l-16.993,1.953q-5.859,1.171-6.054,2.93,7.031,7.814,16.6,4.882l5.86-1.171q5.859-.39,5.859,4.3a83.4,83.4,0,0,0,.586,9.961,11.886,11.886,0,0,0,4.492,6.641q2.929,0.587,3.516-2.734,0.585-1.561,4.687-1.954,3.9-.192,3.711,4.688,0,4.884-4.687,5.664l-13.477,1.953q-5.859.98-7.617-2.539-2.344-6.446-6.25-2.539-0.393,2.151.781,6.836,1.95,8.012.2,19.141-2.344,4.688,6.25,14.062,2.93-.192,2.734-4.3,0.192-2.733,5.273-3.32l9.375-1.172q5.861-.586,5.469,4.492-0.2,4.884-4.883,5.664l-8.789,1.172q-11.718,2.152-17.187,1.953-3.516.395-3.125,2.539,4.879,6.446,12.3,5.274,7.032-1.365,14.063-2.149,6.249-.975,5.469,4.493-0.783,4.884-6.055,5.468-15.821,2.152-31.055,3.516-5.859.393-6.836,1.562-0.781,1.369.586,2.93a14.349,14.349,0,0,0,9.571,4.3q11.718-1.95,23.437-3.125,5.859-.389,2.93,5.469-9.183,17.775-35.352,35.742-7.227,4.688-7.031,6.055,2.146,5.272,8.4.39,29.49-11.914,45.118-43.359,2.535-6.249,5.273-6.641,2.93-.389,7.031,4.883,12.5,15.629,25.2,35.156,3.9,8.982,9.57,7.813,11.718-1.171,23.437-1.758,8.2-.2,5.469-5.664-1.171-1.37-7.422-1.563a42.449,42.449,0,0,1-11.718-1.953q-13.87-1.954-35.547-33.4-3.911-5.274.781-5.859,20.312-2.931,37.5-4.3,6.445,0.2,6.055-3.516-4.886-8.592-10.547-6.836a108.439,108.439,0,0,1-15.625,3.32l-29.883,4.3q-4.3.783-3.516-4.492,0.779-5.076,4.883-5.664,16.8-2.929,33.594-4.492,6.637,0.393,6.25-3.906-5.082-8.2-10.156-5.469l-26.172,4.687q-6.642,1.37-6.25-3.711,0.389-5.272,5.273-6.054a199.777,199.777,0,0,1,22.852-2.93,20.084,20.084,0,0,0,8.594-1.172q1.95-2.929-1.368-5.078-2.151-1.758-.976-6.445a33.542,33.542,0,0,1,2.344-6.641q2.732-5.466,2.539-7.812a10.115,10.115,0,0,0-5.469-6.055q-10.744,7.031-26.172,7.812-5.859.586-5.664-4.3,0-4.689,5.078-5.469l7.617-.781q6.249-1.758,6.641-2.93,0.192-.975-2.735-3.711-2.738-2.344-1.757-7.813,1.171-5.465,5.859-6.25,14.451-2.147,28.906-3.515a11.07,11.07,0,0,0,3.321-1.563q0.585-.585-2.344-4.492-5.47-6.637-11.524-2.93a78.931,78.931,0,0,1-15.82,3.125q-5.859.98-5.273-3.711a73.41,73.41,0,0,1,4.1-13.671q-0.2-.779-4.687-5.274-4.687-3.708-5.86-2.93-0.98.783-.976,6.641h0ZM307.68,193.875q6.248,7.814,11.523,15.625,3.708,7.228,7.422,2.734l1.367-7.031q-2.541-9.179-19.726-18.945-4.5-2.345-4.883.781-0.2,2.93,4.3,6.836h0Zm85.742,20.508q-0.783,5.272-5.469,5.664l-12.891,1.562q-5.859.783-6.445-4.492-0.393-5.272,4.492-5.859l15.821-2.344q5.272-.587,4.492,5.469h0ZM291.078,232.742a127.358,127.358,0,0,1,14.649,19.531q2.93,4.688,6.054.977,1.95-8.4.781-11.133-3.514-5.466-16.406-14.062-7.227-3.708-8.2-2.149-1.566,3.324,3.125,6.836h0Zm15.039,85.938q-2.151,6.252-6.445,3.32-7.425-6.834-10.742-1.758,0,0.979,4.492,6.641,4.88,5.859,8.984,11.719,2.733,5.273,6.25,4.492,1.365-.783,3.906-8.4,6.249-24.214,19.532-89.843,1.56-7.224.976-8.594-3.126-3.122-5.468,1.758-11.916,48.83-21.485,80.664h0ZM411.2,248.172q-1.171,5.47-5.859,6.445l-13.281,2.344q-6.057,1.172-5.664-4.688,0.192-5.662,4.882-6.64l10.938-1.563,3.906-.586q6.834-1.172,5.078,4.688h0Zm-34.375,5.273q-0.585,6.057-4.492,6.25l-12.89,1.563q-4.3.585-4.493-5.078-0.393-4.88,4.3-6.055,6.052-1.172,12.11-1.758,5.663-.585,5.468,5.078h0Zm191.407-50.586q3.515,0.783,4.687-6.25a14.432,14.432,0,0,0,.977-3.906q0.192-6.446-16.016-16.8-6.056-3.122-7.227-2.734-2.738,3.713,2.54,7.422a159.579,159.579,0,0,1,15.039,22.265h0Zm33.2,2.344L523.3,214.188q-5.86.585-6.25-4.1-0.783-5.859-3.125-8.4-2.344-1.365-3.711.585,0,17.973-5.469,26.563-2.929,3.909-3.125,5.859a12.918,12.918,0,0,0,6.055,9.766q3.515-1.172,4.882-6.055a50.92,50.92,0,0,0,2.93-8.008q1.562-5.859,6.25-6.64,44.532-5.662,88.867-10.547,5.86-.389,4.688,4.3a39.3,39.3,0,0,1-2.735,7.031q-2.343,5.471-2.148,6.641,1.95,4.3,5.469.976l4.492-6.64q7.031-10.936,11.914-15.43a5.781,5.781,0,0,0,1.563-3.32q0-1.561-6.641-7.618-3.713-2.732-6.641.977-4.884,3.712-19.14,5.078h0ZM536.781,242.9q-6.445-1.172-8.2,2.54,4.491,6.252,13.672,6.445,21.679-4.1,55.078-7.422,5.859-.975,6.445-1.758-4.687-12.891-13.867-8.4a513.972,513.972,0,0,1-53.125,8.593h0Zm-40.429,31.446q-3.324,3.516,2.148,6.445,5.859,3.909,11.719,3.125,17.771-2.929,45.117-5.664,5.859-.192,6.055,4.492,1.172,19.729.976,52.149-0.783,5.076-6.25,2.539-7.425-4.1-14.258-7.422-2.343-.394-2.929,2.344a5.984,5.984,0,0,0,3.125,4.687,207.326,207.326,0,0,1,20.507,17.773,9.75,9.75,0,0,0,3.126,1.758q1.56,0.192,3.515-7.617,2.344-16.213,1.758-62.695a46.832,46.832,0,0,1,1.953-8.2q-0.2-1.365,5.078-2.149,27.54-3.318,57.617-5.664,3.516-2.93-2.148-8.2-5.082-4.88-7.813-3.516-71.292,11.719-129.3,15.821h0Zm0.39,60.156q-5.273,4.294-5.469,5.469,0.586,2.93,2.93,2.734,1.562,0.192,8.789-4.492,16.992-10.547,33.985-30.273,7.419-7.421,7.812-9.18-1.368-9.567-6.445-12.11-1.955,0-4.1,6.055-10.158,20.508-37.5,41.8h0Zm95.313-35.742a270.4,270.4,0,0,1,29.687,23.828q5.859,5.662,7.227,6.055,3.9-1.173,2.539-5.469,1.363-8.79-4.3-12.891-15.629-8.788-31.25-16.992-7.617-2.536-8.4-.781,0,1.368,4.493,6.25h0ZM761,181.375q2.537,13.674,2.734,35.352,0,4.688-4.687,5.468-16.407,2.153-32.227,4.883-4.687.783-7.031-3.906-1.566-6.637-5.273-4.492-2.345,2.343-1.368,4.687a153.155,153.155,0,0,1-1.367,50.781q-3.322,6.253,1.953,15.625,2.733,6.057,5.469,5.274,0.779-.587,1.953-4.883,0.587-4.88,4.688-5.664l31.64-4.688q5.86-.585,5.86,4.1,0,38.87-3.906,53.516-2.152,6.248,2.929,11.718,5.859,6.835,7.227,6.641,3.121-1.566,2.344-7.617l0.585-66.211q0-4.294,5.274-5.273,19.921-3.516,44.726-6.25,5.86-.779,6.446-1.563,1.363-2.146-1.953-5.078-5.86-4.1-6.25-4.883l5.078-34.18a19.392,19.392,0,0,1,2.929-6.64q2.148-2.536,2.149-3.906-6.642-11.133-11.524-6.446a22.745,22.745,0,0,1-6.25,4.883l-34.765,6.445q-5.859.98-5.86-3.711-0.2-19.335,2.735-31.445-5.859-8.592-13.281-10.156-1.566,0-1.954,2.148a15.763,15.763,0,0,0,.977,5.469h0Zm54.883,45.9q-2.344,13.674-4.1,27.344-0.979,6.446-5.469,7.227a237.4,237.4,0,0,1-27.734,5.273q-6.055,1.171-6.055-3.711V234.5q0-4.687,4.688-5.664,16.8-3.122,33.594-5.664,5.859-.586,5.078,4.1h0ZM763.344,265.75q0,4.1-5.469,4.688l-29.492,4.3q-6.254.98-6.055-3.711,0-13.865.586-27.734,0.192-6.051,5.078-6.836,14.649-2.733,29.3-4.687,6.446-.778,6.445,3.515Zm126.172-7.617a41.518,41.518,0,0,0-6.055,7.031q-1.566,2.151.781,3.516,2.344,0.98,4.883-1.172,11.522-10.35,26.367-28.516,4.491-6.247,4.492-1.172,0,59.574-1.562,89.649-0.395,5.859-1.367,7.812a19.033,19.033,0,0,0,1.757,16.211q2.148,5.274,5.079,5.274a4.2,4.2,0,0,0,2.343-4.493l0.977-18.75,1.367-107.617a16.479,16.479,0,0,1,2.734-8.984q7.421-11.719,15.626-23.438,7.223-5.859,1.953-11.718l-2.344-3.907q-2.344-5.465-5.469-4.687-2.151.585-2.734,6.445-6.446,33.4-48.828,78.516h0Zm100.39-49.8q2.93,6.254,4.1,6.641,1.171-.192,5.273-7.422,3.314-6.249-1.758-11.719l-12.3-15.625q-5.082-5.273-6.055-5.273-2.541,1.172-1.953,3.125,9.764,21.68,12.695,30.273h0Zm16.6,16.6q-33.21,7.03-62.5,10.351-6.642-.192-6.836,3.516,6.834,7.617,14.453,5.273a158.582,158.582,0,0,1,22.07-4.492q4.1-.389,4.883,5.078,1.365,23.634-14.453,58.4-11.916,22.462-33.2,48.047a2.82,2.82,0,0,0,2.539,3.515q1.171,0,5.664-4.883,29.883-32.619,41.992-68.359,2.147-5.859,3.711-5.078,1.365,0.586,6.25-.586l17.192-4.3q6.24-1.562,5.85,3.125-5.265,38.87-17.573,65.234-0.783.586-5.469-2.734-6.446-5.274-12.89-11.523-3.91-2.148-4.688.586-0.586,1.364,4.492,8.4a170.308,170.308,0,0,1,11.719,17.188q3.9,5.663,5.273,5.859,0.975,0,6.056-5.859,12.69-25,19.92-66.407,1.755-10.935,4.3-15.625,6.435-7.223-.2-9.765c-2.21-2.6-4.17-3.385-5.86-2.344q-9.57,6.838-28.317,9.18-5.859.782-5.078-4.1l3.32-16.6q0.779-5.465-.586-7.226-1.171-1.172,3.516-2.344,25.973-4.88,51.955-8.984c3.9-.781,6.12-1.5,6.64-2.149a7.68,7.68,0,0,0-.98-2.734c-3.39-4.688-6.44-6.705-9.18-6.055q-12.69,4.5-33.98,8.4h0Zm150.58-45.9,10.36,19.531a6.8,6.8,0,0,0,2.14,2.93q1.365,0.587,4.11-3.125a35.212,35.212,0,0,0,2.34-7.422q-1.95-7.03-14.65-17.968-5.67-6.249-8.2-2.344-0.39,1.171,3.9,8.4h0Zm58.21,21.094a263.624,263.624,0,0,1-31.25,4.687q-30.48,3.911-60.94,8.4-6.06.783-6.25-4.883,1.56-10.936-2.93-12.305a5.287,5.287,0,0,0-2.54,4.493q0,19.532-6.25,31.25-3.315,4.3-1.76,7.812,3.7,7.425,5.28,7.617,1.365-.388,4.68-6.054a53.784,53.784,0,0,0,2.93-11.719q0.78-5.859,5.47-6.641,44.925-6.445,89.85-12.109,6.435-.975,5.27,3.516-3.12,8.01-7.03,15.82,0.2,4.5,5.08,2.734,9.375-14.451,15.82-22.656,5.07-5.274,5.07-6.25-7.6-12.891-12.69-7.031a18.446,18.446,0,0,1-7.81,3.32h0Zm-53.13,27.539q0.975,11.133,1.17,22.266,0,5.081-4.29,5.468-28.125,4.1-41.41,5.079-6.84.585-8.2,2.539c-0.39.781,1.36,2.475,5.27,5.078a15.3,15.3,0,0,0,3.91,1.367q4.68,0.586,15.62-1.758,7.035-1.171,13.87-1.758,6.045-.585,3.32,4.3-19.725,32.034-55.66,59.57a22.117,22.117,0,0,0-6.45,5.86,2.816,2.816,0,0,0,1.37,3.32q1.17,0.39,7.03-3.125,32.025-20.508,61.91-61.328,3.915-6.445,3.91-1.172,0.39,42.582-2.34,62.695-2.355,7.421,4.88,16.6,3.51,1.758,4.69-2.539,1.17-19.336.97-76.953,0-4.88,3.71.39,22.47,32.035,35.75,54.1,3.315,3.9,7.61,2.539,11.715-1.758,23.44-2.734c2.73-1.3,3.91-2.606,3.52-3.907q-1.575-3.514-6.06-3.71-18.555,1.565-30.66-13.868-14.85-18.942-28.13-37.89-4.29-6.249.78-6.836,18.75-2.929,37.5-4.492,7.425-1.365,2.35-5.86-3.135-4.491-6.25-5.078a239.527,239.527,0,0,1-37.7,6.836q-5.475.783-5.47-4.3a49.915,49.915,0,0,1,2.35-16.211q0.975-3.9-4.3-7.812-5.28-5.274-8.01-2.735-0.2.2,0,6.055h0Zm159.57-50.195q-3.9,18.947-22.46,43.359c-2.73,3-3.39,5.274-1.95,6.836q2.73,1.955,7.81-5.469,6.255-7.421,10.94-14.257,3.9-5.86,8.59-5.079h2.74q16-4.1,41.6-7.421,5.85-1.173,6.44-1.954-0.78-5.662-7.03-7.422-12.885,3.324-38.28,7.618-5.865.979-2.54-4.688,4.29-5.859,4.3-7.812-0.2-2.733-4.3-7.813-1.755-3.516-4.3-2.344-0.585.586-1.56,6.446h0Zm55.86,43.359q-2.925,5.859-4.88,4.3c-1.83-1.563-4.1-1.758-6.84-.586-1.69.391-2.15-1.1-1.36-4.492l1.17-5.078q3.315-5.663,3.12-7.227-5.46-8.4-9.96-4.3a9.3,9.3,0,0,1-3.71,2.735l-25.98,5.468c-2.86.654-4.56-.454-5.07-3.32-0.39-2.734-1.57-4.166-3.52-4.3q-0.78.394-2.54,6.641-1.17,8.6-3.12,17.187-1.185,5.86-6.25,6.25l-13.28,1.563q-5.865.98-6.84,1.758-1.17,2.539,4.69,5.859a23.367,23.367,0,0,0,14.25-.586c2.74-.391,3.58,1.239,2.54,4.883a38.483,38.483,0,0,1-3.12,8.4q1.95,5.47,5.66,7.032,8.985-3.516,30.47-5.469,5.865-.39,7.23,2.344a6.331,6.331,0,0,0,2.34,3.515q0.975,0.2-3.51,6.055a73.742,73.742,0,0,1-19.14,15.43q-6.255,2.539-6.84,3.32-0.975,3.126,2.73,5.664,2.535,2.541,8.6.391,10.35-2.537,20.51-4.493,7.02-1.364,2.34,1.758-17.97,11.719-31.25,14.258-6.06.98-6.84,2.149-0.2,1.172,1.76,4.3,3.12,3.324,10.35,2.735,12.7-2.733,25.39-4.883,5.865-.587,5.86,4.1,0.2,11.329-.39,22.656-0.585,5.272-5.27,2.734a21.965,21.965,0,0,1-4.69-2.734q-5.865-3.516-7.03-3.321-4.5,1.562-.2,5.469,8.4,8.007,16.8,16.6,3.51,4.491,6.25.586a49.865,49.865,0,0,0,1.56-8.594q1.185-17.188,1.57-33.789c0.12-4.035,1.82-6.314,5.07-6.836q11.73-2.147,23.25-3.516,4.68-.585,9.37,3.907,5.28,5.859,6.45,6.054,3.51-2.147,2.34-6.445-0.975-6.249-7.81-11.328a95.589,95.589,0,0,0-14.45-7.422q-6.45-2.147-7.43-.781-0.39,1.954,3.91,5.468,4.485,3.712-.2,4.688-17.19,2.737-34.37,4.687-6.06.586-.78-2.539,21.675-13.668,30.86-18.554,8.6-1.365,4.68-8.789-0.78-3.516-1.75-4.493-3.525-1.56-6.84,3.321l-3.91,3.711q-4.68,4.3-7.81,4.882l-22.26,4.1q-7.425,1.37-2.35-2.148a85.241,85.241,0,0,1,13.09-9.961,12.951,12.951,0,0,0-2.74-10.743c-0.91-.518-1.1-1.562-0.58-3.124q0.39-1.562,5.47-2.344l7.42-.586q2.535,0.783,4.3-2.344-2.745-7.809-9.38-6.055-5.475.98-4.3-5.468,0.975-5.86,5.86-6.641,4.7-.192,4.3,1.172a2.974,2.974,0,0,0,.39,2.93q4.485,1.368,7.62-7.227a7.53,7.53,0,0,0,1.37-2.344q3.51-6.248,6.44-1.562l5.86,6.64q4.7,5.667.39,11.719-11.52,11.72-18.16,15.82-6.255,4.5-6.64,5.664,0,1.566,1.95,1.758,10.935-.975,26.76-17.578,5.265-5.859,9.37-1.172l2.35,2.93,12.5,14.648c0.39,0.263,1.88.391,4.49,0.391q15.225-1.172,24.22-4.492,0.975-3.122-.39-3.906a18.946,18.946,0,0,0-6.84-.977q-14.85.2-29.69-13.476-5.85-5.86-3.12-10.352a77.246,77.246,0,0,0,8.4-18.359q3.705-3.516,1.36-6.25-1.17-1.561,3.52-2.539l7.03-1.172c4.3-.26,6.7-0.65,7.23-1.172q1.365-3.123-2.74-5.469c-1.82-1.3-4.69-1.758-8.59-1.367a251.937,251.937,0,0,1-27.74,5.469c-4.16.781-5.73-.324-4.68-3.321q3.12-8.006,6.83-16.015a10.2,10.2,0,0,0-1.76-9.961q-3.9-3.9-5.66-4.1-1.56,0-1.76,6.25-1.56,19.533-13.28,43.75h0Zm26.56,6.836q-3.12,5.859-7.03,1.172a31.775,31.775,0,0,1-4.1-5.664,6.611,6.611,0,0,0-8.4-1.953q-0.585.585,1.57-3.711c1.17-2.081,2.27-3.32,3.32-3.711,4.81-1.041,9.57-1.886,14.25-2.539q6.255-.779,5.47,3.711a96.092,96.092,0,0,1-5.08,12.695h0Zm-47.46-9.375-0.39,2.344q-0.975,6.446-5.27,6.836l-2.15.39q-5.865.586-5.47-.976a4.5,4.5,0,0,0-.19-2.93q-4.11-6.249.39-7.226l2.73-.586,3.91-.782q7.035-1.95,6.44,2.93h0Zm-25.19,12.7-5.47.782q-4.11.585-2.34-5.664,1.17-5.274,4.29-6.25,3.315-.586,6.06,4.687,2.34,5.859-2.54,6.445h0Zm21.29,9.961-0.39,2.344q-1.77,5.859-5.86,6.25-3.915.587-3.52-2.344,1.365-3.121-1.95-6.836c-1.05-1.171,0-2.081,3.12-2.734l3.13-.391q6.24-.975,5.47,3.711h0ZM1330.73,251.3a46.317,46.317,0,0,0-7.62.586q-5.865.2-4.69-5.078,1.17-5.663,7.03-6.836,6.06-.587,8.79,5.664,2.145,5.272-3.51,5.664h0Zm58.98,72.851q17.19,10.35,26.76,18.555,4.1,5.466,7.42,3.32,0.975-.782.39-8.2a7.772,7.772,0,0,0-4.69-7.031,164.941,164.941,0,0,0-23.43-10.937q-9.2-5.274-12.7-2.735-0.78,4.3,6.25,7.031h0Zm-85.55,22.071c-3.9,1.953-5.99,3.32-6.25,4.1q-1.56,3.708,2.54,3.711a137.794,137.794,0,0,0,24.61-12.89q11.325-8.6,15.63-10.743,3.51-2.343,1.76-5.468c-0.66-4.035-2.28-6.7-4.89-8.008q-0.78.2-4.49,6.445a119.84,119.84,0,0,1-28.91,22.852h0Z"/>
  <path id="中文示例" class="cls-2" d="M321.812,721.5q-5.565.783-11.132,1.855-3.224.49-4.492-1.953-1.662-2.733-2.149-2.929-2.247.489-1.367,3.711a150.085,150.085,0,0,1-2.051,46.679q-4.493,16.8-20.6,32.52-2.541,1.659-.391,3.027,0.683,0.293,3.418-1.855,17.675-13.869,22.07-34.668,0.488-2.148,3.223-2.637,6.834-1.172,13.574-2.051a1.563,1.563,0,0,0,1.953-1.562q-1.758-3.125-4.59-3.125a50.809,50.809,0,0,1-10.937,2.148q-2.051.293-1.758-2.441l0.684-6.836q0.292-2.929,2.636-3.418a72.728,72.728,0,0,1,10.645-1.758q3.124-.586,3.027-1.66-2.637-4.59-6.054-2.93l-6.739,1.465q-2.929.684-2.832-1.856l0.1-10.058q-0.1-2.832,2.344-3.418l12.3-2.149q3.027-.488,3.028,1.954l-0.293,50.488-0.391,13.476q-0.293,2.931-3.32,1.075l-2.735-1.856q-2.834-2.05-3.515-1.953-2.149,1.37.39,3.125,6.054,5.37,7.911,8.106,2.245,4.393,4.2,1.757,1.464-2.833,1.855-10.742l0.1-36.719q0-14.256.391-28.125,0-2.538.781-3.418,1.464-1.854-.488-2.832-2.443-3.318-4.883-.39a9.185,9.185,0,0,1-3.907,1.953h0Zm-38.671,5.957-7.715,1.465a3.087,3.087,0,0,1-4-1.953q-1.563-2.929-2.539-2.832-0.978.489-.684,4.3a192.817,192.817,0,0,1,.489,42.285q-1.27,5.763,1.367,9.277a3.715,3.715,0,0,0,1.855,1.074q1.561-.879,1.27-4.394,0.1-2.929,2.441-3.516l6.348-1.172a3.342,3.342,0,0,1,4.1,1.856q0.975,3.321,2.832,2.343a18.387,18.387,0,0,0,1.075-6.25q1.073-13.865,1.855-33.593-0.2-4.2.781-5.957,1.561-2.929,1.465-3.516-4.2-5.762-6.738-1.27a10.968,10.968,0,0,1-4.2,1.856h0Zm2.832,37.988q-0.294,2.149-1.368,1.367-0.585-.389-3.515.2a13.41,13.41,0,0,1-4.883,1.367q-2.929.391-2.93-1.953V756.074q-0.1-3.025,2.344-3.418l6.348-1.465q3.026-.681,3.418-1.464,0.1-1.561-2.442-3.125a4.2,4.2,0,0,0-3.906.2,7.209,7.209,0,0,1-3.223.976q-2.635.49-2.636-1.757v-9.668a2.769,2.769,0,0,1,2.343-2.93,57.244,57.244,0,0,1,8.594-1.66q3.124-.294,3.125,1.855a247.842,247.842,0,0,1-1.269,31.836h0Zm125.293-44.433-20.411,2.734a3.72,3.72,0,0,1-4.1-2.148q-1.466-4.59-3.711-2.93a9.69,9.69,0,0,0,.1,4.2q1.56,10.938.1,29.688a87.188,87.188,0,0,1-2.05,15.625q-3.907,16.113-18.36,31.543-2.247,2.731-2.246,3.222,1.466,2.93,3.809-.293,16.992-14.355,21.093-32.519,0.683-3.124,2.93-3.614,9.471-1.56,18.945-2.734,3.224-.292,3.711-0.781,0.294-1.758-1.66-3.125-1.171-1.074-4.687-.586a43.157,43.157,0,0,1-7.813,1.465l-6.933.976q-3.028.391-2.735-1.953l0.879-8.691q0.1-3.224,2.344-3.516,8.4-1.366,16.8-2.441,2.538,0.2,3.222-1.563-2.05-3.417-4.492-3.711a17.517,17.517,0,0,1-6.933,1.856l-7.227.976q-3.222.49-3.125-2.246v-9.375a2.361,2.361,0,0,1,2.441-2.636l21.485-2.833q2.93-.1,2.929,2.247,0.195,39.16-.683,65.429-0.1,2.733-2.637,1.172l-4.98-3.32q-3.029-1.562-3.516-1.367-1.368,2.051,2.051,4.1a89.783,89.783,0,0,1,7.519,7.422q2.832,3.417,3.614,3.32,0.488-.2,1.855-3.32a71.851,71.851,0,0,0,.977-9.766l0.39-59.082,0.2-6.347a6.558,6.558,0,0,1,1.172-3.711q0.585-1.172-.684-2.832-2.834-3.612-5.664-.2a6.29,6.29,0,0,1-3.906,1.661h0Zm84.57-.977q1.172,10.547.781,35.645a2.387,2.387,0,0,1-2.344,2.636q-5.763.49-11.523,1.27-3.126.489-3.125-1.953-0.2-9.57-.1-19.141,1.466-3.222-2.832-5.176-2.148-1.56-3.515-.781a2.489,2.489,0,0,0,0,2.344q2.343,8.5,2.05,22.949a4.489,4.489,0,0,1-1.074,3.711,2.117,2.117,0,0,0-.879,1.855q3.224,4.494,5.274,2.442a6.845,6.845,0,0,1,3.906-1.367,91.72,91.72,0,0,1,11.035-1.563q3.124-.2,3.028,1.953l-0.391,29.2a2.387,2.387,0,0,1-2.344,2.637q-7.521.587-15.039,1.563-2.929.293-2.93-2.246,0.2-12.6.782-18.457,1.464-2.931-2.93-5.371-1.857-1.854-3.32-.2a16.8,16.8,0,0,0,.683,4.395,109.776,109.776,0,0,1,.586,18.652q0.39,3.612-1.562,5.371a1.963,1.963,0,0,0-.684,1.367q2.832,4.59,5.274,3.028a3.645,3.645,0,0,1,1.66-.879,55.356,55.356,0,0,1,9.765-1.66q15.332-1.857,30.664-3.418,3.223-.294,4,1.269a13.849,13.849,0,0,0,1.367,2.344,1.036,1.036,0,0,0,1.758-.2,5.954,5.954,0,0,0,1.27-3.516q1.267-7.813,2.148-15.625a22.723,22.723,0,0,1,1.465-7.813q2.345-3.026-1.953-5.664-2.345-2.439-3.516-1.367-0.392.587-.1,4.3a170.766,170.766,0,0,1-1.465,18.164q-0.49,2.93-2.832,3.223-7.617.975-15.235,1.562-2.93.294-2.929-2.05l0.195-28.907a2.541,2.541,0,0,1,2.441-2.734,113.405,113.405,0,0,1,12.3-1.465q2.93-.1,3.613,1.465,1.465,3.321,3.028,1.953l0.976-2.441,2.442-17.578q0.193-5.077,1.953-7.813,0.975-1.953-1.856-3.809-2.929-3.123-4.2-1.464a129.514,129.514,0,0,1-1.269,21.289q-0.391,3.222-2.539,3.613l-13.965,1.66q-2.929.293-2.93-2.051-0.293-22.265,2.148-32.422a2.631,2.631,0,0,0-1.171-2.343q-3.908-4.687-6.153-3.516a9.86,9.86,0,0,0,.1,3.125h0Zm81.641,7.715a6.06,6.06,0,0,0-2.93.488q-0.783.684,2.148,3.028a4.426,4.426,0,0,0,5.176.683q5.859-.975,11.621-1.66,2.93-.488,3.125,2.441a100.986,100.986,0,0,1-.879,13.77q-0.489,3.126-2.636,3.418-14.062,1.855-28.125,3.32a1.168,1.168,0,0,0-.391,1.856,15.535,15.535,0,0,0,2.441,1.66,9.589,9.589,0,0,0,1.953,1.074,10.8,10.8,0,0,0,3.907-.586q8.592-1.561,18.75-2.637,2.93-.293,2.343,2.246a78.453,78.453,0,0,1-6.152,16.993q-11.037,15.626-25.586,23.925-2.929,2.245-2.539,2.735a1.6,1.6,0,0,0,2.442.39,58.116,58.116,0,0,0,11.718-6.347q21.387-16.016,24.8-37.012,0.389-2.538,1.855.293,6.054,10.745,12.5,21.387,4.395,6.445,9.668,15.625,1.366,2.439,2.344,2.246l14.356-.977a1.485,1.485,0,0,0,.976-1.758q-0.391-.585-4.2-1.66-8.107-1.856-12.3-6.738A285.452,285.452,0,0,1,603.844,755.2q-1.271-2.147,1.465-2.539,14.355-2.146,27.246-3.515,3.318,0.293,3.222-2.149-3.126-5.175-6.933-3.32-13.477,2.637-26.66,4.785-2.052.391-1.661-2.344l1.758-12.6a2.764,2.764,0,0,0-.293-3.321q-0.879-1.073,1.856-1.562,10.155-1.758,17.676-2.344,2.929-.487,3.32-1.074,0-2.345-3.418-4.3a6,6,0,0,0-2.93.2,261.718,261.718,0,0,1-41.015,6.641h0Zm117.968-6.445,0.489,4.1q0.78,18.458.488,64.746a2.275,2.275,0,0,1-2.344,2.539l-13.965,1.367q-3.027.294-3.222-2.148-0.391-13.572-.293-33.4,1.464-4.981-4.493-6.836-2.247-1.269-2.929.683a46.9,46.9,0,0,1,2.539,14.16q0.879,10.452.683,22.852a10.941,10.941,0,0,1-2.441,7.422q2.147,4.784,5.176,3.711a8.334,8.334,0,0,1,3.906-1.66q18.066-2.052,36.035-3.711a4.1,4.1,0,0,1,4.2,2.441q1.465,2.441,1.954,2.539a1.836,1.836,0,0,0,1.757-1.758q1.953-10.743,3.516-27.343,0.78-10.936,2.344-15.625,1.951-2.345.488-3.907a36.733,36.733,0,0,0-3.613-3.32q-1.466-1.366-2.539-.781-0.49.489-.489,3.418a207.67,207.67,0,0,1-1.953,34.179q0.294,5.958-3.613,5.372-6.543.879-13.086,1.367-2.929.193-2.93-2.149-0.1-29.589.293-52.832a59.778,59.778,0,0,1,.782-11.328q0.681-2.929-2.246-5.664-3.128-3.125-4.688-1.855-0.391.489,0.2,3.418h0Zm139.16-6.641q0.975,4.787,1.563,9.57,0.488,3.127-1.856,3.321-10.451,1.172-18.847,1.562-2.93.391-3.418,0.977a1.819,1.819,0,0,0,1.367,2.148A8.228,8.228,0,0,0,819.273,734q7.324-1.268,14.649-1.856,2.929-.193,2.93,2.149a6.291,6.291,0,0,0,1.562,6.738,4.124,4.124,0,0,0,1.465.879,2.162,2.162,0,0,0,1.172-3.027l-0.1-4.2q-0.2-3.223,2.051-3.418a10.8,10.8,0,0,1,2.441-.293q2.05-.2.977,2.539-6.153,12.5-21.973,23.925a129.328,129.328,0,0,1-15.625,10.352q-2.834,1.856-2.539,2.441,1.172,1.37,2.344.782,7.713-2.832,18.555-11.133,2.929-2.051,3.027.293,0.195,14.647-4.3,25.488a47.421,47.421,0,0,1-15.43,18.945q-0.2,2.148,1.27,2.051a31.375,31.375,0,0,0,10.254-8.008q7.031-8.009,8.984-15.136,0.975-3.125,3.223-3.711,12.108-2.05,30.566-4.1,2.93-.586,3.125-1.172,0-1.267-1.953-2.832a2.989,2.989,0,0,1-1.269-3.32,77.572,77.572,0,0,1,1.562-8.106q0.587-3.318,2.93-.976l4.687,4.687a20.821,20.821,0,0,0,3.418,3.028q2.93,0.2,11.426-1.465a2.61,2.61,0,0,0,2.441-1.074q1.074-1.561-.586-2.246a7.683,7.683,0,0,0-2.929-.586,27.933,27.933,0,0,1-13.672-4.883q-7.422-5.859-14.844-12.5-2.929-2.637-1.953-4.981,1.562-3.515,2.734-7.031,1.074-2.929,3.418-3.418,9.178-1.171,18.36-1.66a6.857,6.857,0,0,0,4-.488q1.367-1.561-1.075-3.516a4.375,4.375,0,0,0-3.808-1.953,119.882,119.882,0,0,1-15.527,2.832q-2.931.293-1.758-2.734,2.051-1.758.293-3.907-3.029-4.687-4.785-3.808-0.49.391-.489,3.32a26.859,26.859,0,0,1-.488,5.078q-0.49,2.93-2.832,3.223l-11.426,1.269q-3.222.391-3.32-1.757a23.7,23.7,0,0,1,.488-5.762,2.752,2.752,0,0,0-1.66-3.32q-3.712-2.44-4.2-2.051a2.3,2.3,0,0,0-.489,1.074h0Zm21.387,17.48-1.269,4.2q-0.978,2.93-2.344,1.562a8.24,8.24,0,0,1-1.465-3.515l-0.195-.879q-1.466-2.931.976-3.223l1.66-.1q3.224-.293,2.637,1.953h0Zm3.809,17.969q2.733,2.541-.391,3.809l-5.078.879q-3.029.489-2.441-1.367,0.975-2.345-3.809-6.25-2.734-3.027-3.906-.977a12.93,12.93,0,0,0,1.269,3.516l1.27,3.125q1.267,3.126-1.074,3.418-4.2.489-8.4,1.269-3.029.684-3.711-.781-0.489-1.367,2.344-4a111.715,111.715,0,0,0,10.84-11.035q1.951-1.953,5.273,1.074,3.9,3.516,7.813,7.324h0Zm0.586,18.945q-0.391,3.029-2.832,3.321l-21.778,2.929q-2.735.294-2.441-2.05a3.552,3.552,0,0,1,2.734-2.93q10.35-1.758,20.7-3.223,2.931-.681,3.125-1.269-2.636-5.175-6.347-2.93l-1.27.488q-5.664.587-14.843,2.344-3.029.587-2.93-1.367,0.1-2.05,2.539-2.441l22.168-3.711q3.222-.487,2.734,1.757ZM855.7,782.344q-7.422,1.075-14.844,2.441-2.929.49-4.394-2.539-1.075-1.659-2.051-.976-0.391.489-.39,3.418,0.488,10.547-.1,14.16-1.37,3.123,1.66,7.812a3.586,3.586,0,0,0,1.367,1.074q1.466,0.2,1.367-2.246,0.1-1.758,2.442-2.246l24.8-3.32,2.442-.488q1.171-1.27-1.074-2.93a3.54,3.54,0,0,1-.977-3.516,36.613,36.613,0,0,1,2.246-8.5q3.125-3.417-2.344-6.054-0.585,0-4.3,2.539a21.416,21.416,0,0,1-5.86,1.367h0Zm6.739,5.468-0.977,5.274q-0.49,2.929-2.832,3.418l-17.188,2.344q-2.929.293-3.027-2.637v-4.59q0-2.245,2.539-2.734l18.945-2.93q3.125-.683,2.54,1.855h0Zm94.335-59.472q-0.585,3.222-2.734,3.418-4.98.391-9.961,1.172-2.929.293-3.027-2.051a28.933,28.933,0,0,1,.293-6.348,6.182,6.182,0,0,0-2.442-5.078q-2.93-2.637-4.2-.586a10.817,10.817,0,0,0,.977,4.3q0.293,3.613.879,7.227,0.293,3.222-1.856,3.418-8.4.977-16.8,1.562-3.516-.292-4.59.977-0.293.684,2.246,2.734a8.275,8.275,0,0,0,5.86.977q6.346-.975,12.695-1.563,2.93-.1,2.93,2.246,0,6.251,1.66,8.3,1.172,1.662,2.344.977a2.761,2.761,0,0,0,.586-2.442q-0.2-3.417-.1-6.836-0.1-3.025,2.246-3.32l8.3-.977q2.929-.293,2.344,2.051l-2.539,7.813q-0.783,2.539.781,2.734a1.652,1.652,0,0,0,1.465-.684q0.585-.78,2.051,1.563a58.872,58.872,0,0,1,4,8.984q1.466,1.271,1.856.586,1.758-1.464,2.051-5.273-0.1-1.661-3.223-4.883l-2.832-3.223a4.244,4.244,0,0,1-.684-4.687,18.8,18.8,0,0,0,1.172-2.832q1.172-2.93,3.516-3.223,7.812-1.171,21.094-1.953a20.226,20.226,0,0,0,3.32-.488q0.78-.879-0.391-2.735a13.887,13.887,0,0,0-2.343-2.246,5.006,5.006,0,0,0-2.247-.488,88.506,88.506,0,0,1-17.382,3.027q-2.929.391-2.344-1.953a31.488,31.488,0,0,1,2.441-5.469q1.173-1.952-.683-3.906-2.833-4.395-4.785-4-0.294.2-.684,3.125a53.131,53.131,0,0,1-1.27,10.059h0Zm-30.566,22.168a49.919,49.919,0,0,1,5.078,5.664q2.246,2.541,2.93,2.539,1.366-.293,1.172-2.149,1.56-5.565-7.813-9.179-3.808-1.269-4-.391-0.1.684,2.637,3.516h0Zm14.746,14.258q-2.247.293-1.562-1.758,0.879-2.832-1.758-2.832a10.3,10.3,0,0,0-1.27,2.344q-5.177,15.431-11.425,30.468-1.37,3.124-3.516,1.66-2.929-3.222-4.981-2.539a1.522,1.522,0,0,0-.2,2.246l5.371,7.813q2.246,2.929,2.735,3.027,2.343-.392,3.613-5.468,4.883-15.235,9.277-30.176,0.975-2.93,3.125-1.367a6.51,6.51,0,0,0,4.785,1.074q1.074-.294,1.075,1.953V795.43a6.612,6.612,0,0,1-1.075,2.343,3.577,3.577,0,0,0-.781,1.465q1.562,4.59,4.688,3.418a3.366,3.366,0,0,1,3.125-1.66q13.183-1.758,27.148-2.734,2.929-.686,2.93-1.758a4.878,4.878,0,0,0-1.367-1.953q-3.128-2.637-5.86-1.66-15.333,3.611-24.023,3.32-0.391-.293-0.391-2.637V770.82a2.507,2.507,0,0,1,2.344-2.734q15.038-2.05,30.078-3.711,3.612-.389,4.2-1.074,0.39-.587-0.586-2.246a16.006,16.006,0,0,0-2.344-2.149,8.548,8.548,0,0,0-4.98.391q-23.73,4.688-38.379,5.469h0Zm-23.73.586a53.407,53.407,0,0,1,4.2,4.492,15.261,15.261,0,0,0,3.125,3.027q2.05-.587,1.465-3.027,1.072-2.637-1.66-4.492a42,42,0,0,0-7.813-4.3q-1.955-1.269-2.344.683,0.1,0.686,3.028,3.614h0Zm111.817-41.895c-1.95.066-3.13,0.391-3.52,0.977-0.06.456,0.33,1.074,1.18,1.855a13.335,13.335,0,0,0,3.22,1.367q2.145,0.294,7.81-.879l7.03-.879q3.03-.293,2.93,2.637v1.953q0,2.05-2.64,2.344-10.35,1.172-20.41,2.637c-1.95.131-2.93-.684-2.93-2.442q1.08-3.417-2.05-2.832-0.585.294-.78,4-0.2,5.859-4.98,11.328-0.09,4.688,2.64,6.348c0.32,0,1.11-.911,2.34-2.734a24.047,24.047,0,0,0,1.86-5.762c0.32-1.953,1.27-3.059,2.83-3.32q10.65-1.561,21.19-2.735c1.95-.129,2.9.781,2.83,2.735q0.39,10.45-1.07,14.746-0.195,3.418,3.52,7.226,2.535-1.267,1.66-4.394l0.19-18.164c0.06-1.953.88-3.06,2.44-3.321l20.31-2.539c1.96-.259,2.77.391,2.45,1.953a29.078,29.078,0,0,1-1.76,4.395q-1.95,2.833-.78,4.2,1.65,0.978,3.32-1.855,2.34-3.9,5.08-7.813,3.12-3.417,3.12-3.808-0.195-1.66-2.64-3.614-1.755-2.147-3.12-.293-3.225,2.344-10.65,3.125l-14.64,1.758c-1.96.2-2.93-.488-2.93-2.051a5.878,5.878,0,0,0,.09-1.855,2.9,2.9,0,0,1,2.64-3.125q7.815-1.268,15.63-2.246c1.95-.325,2.76-0.943,2.44-1.856q-3.03-4.881-7.23-2.636-15.045,2.93-36.62,5.566h0Zm27.83,18.555c-1.76-.064-2.7.424-2.83,1.465q2.445,4.2,5.76,2.636c2.6-.52,5.21-0.911,7.81-1.172a8.639,8.639,0,0,0,5.67-.879,1.88,1.88,0,0,0-.69-2.343,3.41,3.41,0,0,0-4-1.367q-5.865,1.076-11.72,1.66h0Zm-28.91,3.515q-2.73.294-3.12,1.075,0.585,3.614,6.25,3.027c2.6-.52,5.21-0.911,7.81-1.172a10.893,10.893,0,0,0,4.49-.391q2.25-.681.3-2.832c-1.11-1.562-2.83-1.919-5.18-1.074q-5.265.879-10.55,1.367h0Zm28.62,6.153c-0.98.912-.65,1.953,0.97,3.125q4.2,1.464,15.53-.977c1.96-.259,3.03-0.52,3.22-0.781q0.885-1.562-1.66-3.418-1.365-.879-3.9-0.1a140.811,140.811,0,0,1-14.16,2.149h0Zm-29.4,3.613c-1.62-.064-2.6.424-2.93,1.465a5.372,5.372,0,0,0,5.86,2.637,57.854,57.854,0,0,1,11.72-1.563,5.944,5.944,0,0,0,2.44-.977c0.46-.65.04-1.66-1.27-3.027-0.45-.325-1.82-0.39-4.1-0.195Zm1.27,14.453a7.051,7.051,0,0,0,7.43.977q11.13-1.953,31.24-3.907c2.54-.454,3.85-0.976,3.91-1.562a4.4,4.4,0,0,0-.68-1.465c-1.44-1.692-2.7-2.473-3.81-2.344a368.276,368.276,0,0,1-38.97,5.762c-1.04.847-.74,1.694,0.88,2.539h0Zm-12.2,9.473q-2.94,0-3.81.586a1.113,1.113,0,0,0-.1,1.562,8.1,8.1,0,0,0,1.56,1.172,8.343,8.343,0,0,0,6.45.977q10.05-1.465,20.11-2.246,3.135-.195,1.66,2.05a61.845,61.845,0,0,1-7.12,9.18q-4.785,5.762-7.23,6.543-3.03,1.074-3.03,1.855,0.39,1.854,3.52,4.1a5.032,5.032,0,0,0,3.51-.684,264.632,264.632,0,0,1,34.48-6.836q2.535-1.172,5.56,4.3c1.37,2.018,2.22,3.028,2.54,3.028q2.25-1.173,1.86-5.762,0.585-1.37-2.25-3.906-7.425-5.958-11.72-8.789c-1.89-1.693-3.25-1.92-4.1-.684q-0.09.684,2.44,3.613a13.4,13.4,0,0,1,1.66,1.758c1.76,1.758,1.82,2.767.2,3.027l-24.81,3.907q-2.925.388-.68-2.051a139.113,139.113,0,0,1,9.67-10.059,9.634,9.634,0,0,1,2.44-1.855,1.963,1.963,0,0,0,.58-2.93c0-.52.79-0.879,2.35-1.074q18.06-2.44,31.93-3.223c1.82,0.066,2.77-.488,2.83-1.66q-3.015-5.567-6.73-3.711a4.216,4.216,0,0,1-1.47.293q-23.145,4.1-62.3,7.52h0Zm118.36-27.832c-0.92,1.953-1.18,3.158-.79,3.613,0.52,0.391,1.7-.586,3.52-2.93q3.12-4.881,5.86-9.765,1.755-2.929,4.1-3.321,16.89-3.123,33.79-5.957l3.71-.781a1.056,1.056,0,0,0,.2-1.367q-3.615-4.98-8.4-2.539-6.84,1.954-26.17,5.566c-2.02.391-2.71-.227-2.05-1.855q1.95-4.784,4.19-9.571,2.835-3.123-.48-5.859-1.86-2.637-3.32-2.441c-0.53.2-.79,1.335-0.79,3.418q-0.87,12.793-13.37,33.789h0Zm-7.04-13.282q2.055,0.978,2.54-1.562a9.5,9.5,0,0,0,.1-4.492,32.774,32.774,0,0,0-11.91-8.5q-1.38,0-.78,1.953a50,50,0,0,1,10.05,12.6h0Zm42.88,5.665-19.34,3.418c-1.95.39-3.26-.455-3.91-2.54q-0.78-1.952-1.95-1.562c-0.98.847-1.3,2.246-.98,4.2a118.24,118.24,0,0,1-1.66,16.7q-0.48,2.834-3.02,3.028c-2.93.39-5.77,0.651-8.5,0.781-1.95.2-2.77-.52-2.44-2.148l3.51-15.333q0.975-2.439-.39-3.222a1.344,1.344,0,0,0-1.85.39q-7.53,26.953-11.53,39.551-1.17,3.128-3.51,1.66-4.305-3.611-5.47-.586,0,0.586,2.93,4.1l3.12,3.906c1.7,2.864,3.29,3.907,4.79,3.125a12.4,12.4,0,0,0,1.76-4.394q2.835-11.229,5.17-22.461,0.585-2.344,2.84-.781a14.41,14.41,0,0,0,9.37,0c1.37-.2,1.92.619,1.66,2.441q-1.47,10.254-4,13.574-1.47,2.051.29,3.418c1.76,2.149,3.25,2.115,4.49-.1q11.52-1.66,23.05-3.028c1.95-.13,2.77.586,2.44,2.149l-1.46,5.761c-0.53,1.758-1.6,2.246-3.23,1.465q-2.04-.976-3.81-2.051-3.795-1.464-4.1-.488c0,0.455.78,1.6,2.35,3.418q3.21,3.222,6.05,6.348,3.225,4.688,4.88,0a47.863,47.863,0,0,0,4.2-14.649c0.26-1.953,1.18-3.059,2.74-3.32l9.96-1.367q1.755-1.659-1.08-3.321a6.575,6.575,0,0,0-4.59-.683l-3.12.488c-1.95.327-2.87-.293-2.73-1.855l0.97-9.668c0.13-2.083.94-3.223,2.44-3.418l9.09-.977q3.12,0.1,4.29-.879,0.78-1.172-1.56-3.418a3.65,3.65,0,0,0-3.91-1.074l-6.74,1.367q-2.925.586-2.73-1.855l0.68-7.52a11.9,11.9,0,0,1,2.64-7.422c0.06-.911-0.52-1.919-1.76-3.027q-3.225-2.637-4.39.293a6.477,6.477,0,0,1-1.95,1.563h0Zm-58.11,7.714a41.683,41.683,0,0,1,4.59,4.981,19.488,19.488,0,0,0,3.12,3.223q2.64-.489,1.86-3.321a11.263,11.263,0,0,0-.2-2.734q-2.04-2.93-9.47-6.153c-1.89-.454-2.86-0.292-2.93.489q0,0.879,3.03,3.515h0Zm59.37-.781-0.48,9.375q-0.3,2.929-2.64,3.223l-19.14,2.637q-2.925.293-2.64-2.149,0.5-4.491,1.27-8.691,0.5-3.124,2.64-3.614l18.07-2.832c2.01-.325,2.99.359,2.92,2.051h0Zm-14.25,9.18c1.04,1.823,1.85,2.7,2.44,2.637,0.39-.13.88-0.943,1.46-2.442q1.275-4.3-4.88-7.324-2.34-1.562-2.34.1a35.783,35.783,0,0,0,3.32,7.031h0Zm11.52,20.019q-0.39,3.029-2.73,3.321l-19.83,2.539q-2.835.293-2.44-2.344c0.33-3.32.78-6.543,1.37-9.668,0.32-1.953,1.27-3.059,2.83-3.32q9.66-1.465,19.24-2.539c2.02-.2,2.96.456,2.83,1.953Zm-14.16-4.882,1.47,3.906c0.71,1.953,1.33,2.963,1.85,3.027q0.495,0,1.56-1.465,2.94-4.394-2.34-7.91-2.835-1.951-3.52-1.074c-0.19.326,0.13,1.5,0.98,3.516h0Zm117.87-56.641-12.6,2.344a2.964,2.964,0,0,1-3.51-1.758q-0.39-3.026-2.74-2.442c-0.26.327-.32,1.433-0.19,3.321q1.26,14.746-.2,22.851a4.89,4.89,0,0,0,.3,2.93q1.365,4.2,3.51,3.027a1.706,1.706,0,0,0,.39-1.367q0.105-1.267,2.25-1.66l13.96-2.148c1.96-.2,2.93.488,2.93,2.05q0,24.317-.49,48.535-0.285,3.027-2.63,1.465l-3.22-2.343c-1.83-1.368-3-2.051-3.52-2.051q-2.145,1.758,1.17,4a83.593,83.593,0,0,1,6.84,7.519q1.95,4.1,3.9,2.344a40.334,40.334,0,0,0,2.15-13.281l0.3-64.942,0.19-5.078a2.572,2.572,0,0,1,.59-1.66q2.34-2.637-2.74-4.883-1.365-.487-2.73,1.367a7.333,7.333,0,0,1-3.91,1.856h0Zm-38.28,2.441a63.831,63.831,0,0,1-8.79,1.758q-2.925.587-3.42,0.1l-1.85-3.321q-1.755-2.147-2.25-.683a20.51,20.51,0,0,0,.1,7.226q1.065,44.044-.2,70.606,1.47,5.663,4.11,6.738c0.78,0,1.2-.619,1.27-1.855q-0.5-15.917-.49-49.414a2.769,2.769,0,0,1,2.34-2.93l14.65-2.734q2.925-.487,3.42-0.977,0.78-1.561-1.08-2.637-0.87-.681-0.78-3.418,0.495-6.933,1.37-13.574c0.26-1.758.68-2.864,1.27-3.32q0.975-1.659,0-2.442-3.135-4.98-5.86-.586a9.86,9.86,0,0,1-3.81,1.465h0Zm42.48,3.516q-0.2,5.958-.1,11.816a2.506,2.506,0,0,1-2.34,2.735l-13.97,1.953c-1.75.326-2.63-.325-2.63-1.953a2.758,2.758,0,0,1,2.54-2.93c3.19-.781,6.34-1.431,9.47-1.953,2.34-.845,3.42-1.529,3.22-2.051-1.63-2.408-3.38-3.091-5.27-2.051a23.249,23.249,0,0,1-6.84,1.66q-2.925.294-2.93-2.929c0-2.083.82-3.287,2.44-3.613q6.645-1.366,13.19-2.344,3.225-.683,3.22,1.66h0Zm-38.67,2.637q-0.69,6.151-1.08,12.3a3.691,3.691,0,0,1-2.73,3.614l-8.4,1.367q-3.12.585-3.12-2.539a3.693,3.693,0,0,1,3.12-3.907q3.42-.681,6.84-1.074a12.462,12.462,0,0,0,3.51-.879,1.625,1.625,0,0,0,0-1.367q-2.34-3.222-4.68-2.148a21.457,21.457,0,0,1-5.86,1.367c-1.96.195-2.93-.488-2.93-2.051l0.09-1.172c0-1.953.79-3.125,2.35-3.515q5.175-1.074,9.96-1.856c2.02-.39,2.99.229,2.93,1.856h0Zm5.76,29.394c-1.95.391-3.26,0.1-3.91-.879q-0.78-3.026-3.02-1.758a13.134,13.134,0,0,0,0,3.418,131.685,131.685,0,0,1,.29,20.215q-0.1,5.47-.88,7.129a3.612,3.612,0,0,0-.29,1.953,8.492,8.492,0,0,0,3.03,5.078q1.95-.684,1.56-3.32c0-1.041.84-1.692,2.54-1.953q4.2-.78,8.4-1.27c2.14-.259,3.58.425,4.29,2.051,1.17,1.694,1.99,2.41,2.44,2.149a3.613,3.613,0,0,0,.88-1.66q1.275-5.86,1.76-20.313-0.195-6.541.78-9.18c0.98-1.953,1.43-3.091,1.37-3.418q-0.495-1.367-3.61-3.027c-0.4,0-1.53.684-3.42,2.051a13.762,13.762,0,0,1-5.37,1.367Zm12.99,4.395a134.111,134.111,0,0,1-.68,17.09c-0.4,1.953-.75,2.8-1.08,2.539-0.78-.391-2.21-0.26-4.3.39a11.876,11.876,0,0,1-3.9.684l-2.93.488q-2.94.293-2.83-2.637v-3.711a2.59,2.59,0,0,1,2.44-2.832c2.73-.52,5.47-0.943,8.2-1.269,1.95-.455,3.06-0.845,3.32-1.172q-1.17-3.612-4.2-3.613a16.454,16.454,0,0,1-6.83,1.758c-1.96.2-2.93-.489-2.93-2.051v-2.735a2.768,2.768,0,0,1,2.34-2.929l11.03-2.149a1.9,1.9,0,0,1,2.35,2.149h0ZM280.016,896.7a273.172,273.172,0,0,1,.781,36.426q0,2.149-2.637,2.344-8.6.879-16.894,1.269-2.931.1-3.614,0.586-1.368,1.758,1.563,3.125a7.662,7.662,0,0,0,5.859,1.465,75.734,75.734,0,0,1,11.035-1.66q3.224-.2,3.418,1.855a203.084,203.084,0,0,1,0,28.321,6.093,6.093,0,0,1-1.367,4.2,3.464,3.464,0,0,0-1.074,2.441q2.831,5.37,5.371,2.246,6.054-5.567,19.141-15.332,1.464-2.147-1.27-2.636a7.883,7.883,0,0,0-2.637,1.367q-5.272,3.516-10.546,7.324-2.931,1.854-3.125,1.074-0.2-12.6,0-25.2,1.268-4.3.585-5.859-0.39-.487,1.172-0.782,1.269-.1,1.27.782,0.1,0.585,2.93,2.441,10.643,9.375,29.1,28.125a20.846,20.846,0,0,0,3.418,3.027,8.393,8.393,0,0,0,3.516-.2q5.859-1.076,11.718-1.855,3.711,0.1,3.223-2.149a2.581,2.581,0,0,0-3.027-1.465,34.784,34.784,0,0,0-4.492-.293q-12.209-.489-23.633-11.914-2.736-2.637-.2-4.98,3.906-3.417,7.813-6.446,3.025-1.268,2.539-3.222l-0.684-2.735q-1.269-2.636,1.368-2.929,6.738-.782,13.476-1.27a7.536,7.536,0,0,0,2.735-.488q0.681-.586-0.684-2.93-2.734-3.9-5.859-2.246-11.037,2.541-41.993,5.86-2.929.2-2.929-2.149V925.9q0-2.343,2.343-.878a16.662,16.662,0,0,0,4.688.683q11.816-1.854,23.535-3.32a10.482,10.482,0,0,0,3.809-.879q0.488-.389-2.539-3.906-1.173-1.269-3.907-.2-11.718,1.955-23.437,4.2-3.613,0-4.1.488-0.391.292-.39-2.051l0.195-14.844q0.195-3.026,2.539-3.32,21.288-3.319,31.348-4.2,3.125-.488,3.222-1.172,0-1.465-2.636-3.223a6.71,6.71,0,0,0-3.907-.683q-16.211,3.027-28.125,4.59a4.011,4.011,0,0,1-4.3-1.563,15.152,15.152,0,0,0-1.661-2.539q-1.464-.683-2.05.195-0.294.49,0,3.418h0Zm6.543,12.7q-0.587.293-.2,1.367a6.878,6.878,0,0,0,4.395,2.539H293q11.62-1.562,22.754-2.832,3.026-.294,3.418-1.172a3.7,3.7,0,0,0-.879-2.051q-2.249-3.025-5.176-1.758-15.82,2.929-26.562,3.907h0ZM315.172,938.3a40.138,40.138,0,0,1-7.715,9.765q-2.929,2.637-5.664-.1-3.516-3.224-6.641-6.446-2.636-2.929-.293-3.32L314,936.055q2.343-.1,1.172,2.246h0Zm100.781-43.555q-15.138,2.637-30.273,4.883a4.18,4.18,0,0,1-4.492-2.441q-1.565-2.931-2.442-3.126-2.05.2-1.269,3.516a164.4,164.4,0,0,1-1.465,45.9q-3.713,16.211-16.309,31.25-3.907,3.611,0,4.1,18.554-17.482,20.7-35.742a251.117,251.117,0,0,0,2.735-36.426,2.666,2.666,0,0,1,2.441-2.832q15.916-2.637,31.738-4.883,3.125-.488,3.125,1.856a365.92,365.92,0,0,0,2.344,44.14,62.588,62.588,0,0,0,3.613,15.625A38.429,38.429,0,0,0,437.047,975.9q3.124,2.931,4.687,3.125,1.758,0.487,2.344-.1a8.668,8.668,0,0,0,.1-3.711q-0.783-8.888-1.172-21.192-0.879-1.464-1.758-.878-0.684.1-1.172,3.32l-0.683,10.449q-0.783,3.319-3.028,1.074-7.521-9.96-9.472-24.609-2.834-17.871-1.368-43.555a5.592,5.592,0,0,1,1.075-2.441,4.682,4.682,0,0,0,.879-1.856q-3.028-5.76-6.055-2.929a13.882,13.882,0,0,1-5.469,2.148h0Zm-27.832,19.922q-3.712.684-1.953,2.93,0.293,0.293,3.613-.391l6.641-1.269q3.124-.683,3.125,1.66v5.761a2.633,2.633,0,0,1-2.344,2.832,50.817,50.817,0,0,0-5.273,1.075,4.166,4.166,0,0,1-1.075-1.758q-0.2-2.246-2.246-1.66-0.391.293-.39,3.222v12.989a8.985,8.985,0,0,1-.391,3.222q-0.391.879,0.879,3.809,1.074,2.929,2.637,3.222,0.488-.193,1.074-2.148,0.195-1.854,2.539-2.441l1.66-.293q2.929-.294,2.93,2.05v8.4a2.634,2.634,0,0,1-2.344,2.832l-14.062,2.148q-2.541.1-3.418,1.075a1.885,1.885,0,0,0,.976,2.343q3.124,3.9,5.86,1.953a140.688,140.688,0,0,1,26.562-7.031q3.025-.585,4.1,1.758a18.036,18.036,0,0,1,1.367,3.32,10.287,10.287,0,0,0,1.269,2.344q1.758,0.683,2.442-2.148,1.854-4.882-1.66-7.813l-4.786-5.859q-2.834-2.832-3.417-2.832-0.879.2,0.292,4l0.586,1.269q0.975,2.051-1.757,2.637l-4.688.976q-3.029.783-3.027-1.66V946.6a2.769,2.769,0,0,1,2.344-2.93l7.421-1.172q2.93-.78,3.125-1.27a5.236,5.236,0,0,0-1.172-2.05,3.44,3.44,0,0,1-1.074-3.516l1.27-6.348a5.526,5.526,0,0,1,1.367-3.515,1.646,1.646,0,0,0,0-2.344q-2.344-2.538-3.027-2.539a13.631,13.631,0,0,1-7.227,3.418q-3.029.684-3.027-1.758v-6.055q0-2.343,3.125-3.222l5.957-1.563q2.93-.975,2.929-1.953-0.684-2.05-4.492-4.394a21.5,21.5,0,0,0-3.711,2.636q-6.445,3.127-19.531,6.641h0Zm22.852,15.43-0.879,5.859a4.124,4.124,0,0,1-3.321,3.613q-2.93.685-2.929-1.66v-6.543q0-2.146,2.539-2.734l1.758-.391q3.222-.487,2.832,1.856h0Zm-11.426,8.5a2.506,2.506,0,0,1-2.344,2.734l-1.758.293q-2.929.391-2.929-1.953v-5.957a2.912,2.912,0,0,1,2.343-3.027l1.661-.391q3.025-.389,3.027,1.855v6.446Zm96.289-45.8a119.847,119.847,0,0,1,1.074,15.625q0.975,19.533,3.516,30.566,0.78,2.931-1.856,3.125l-10.351,1.172q-3.127.49-2.637-1.758a12.346,12.346,0,0,1,.977-3.222q1.367-1.758-1.075-3.906-2.734-2.44-.39-3.125l1.562-.391q2.929-.879,3.516.781a3.328,3.328,0,0,0,1.172,1.953q0.681,0.2,1.66-1.074,3.417-4.588-3.32-10.351-2.637-3.516-4.1-1.172a10.61,10.61,0,0,0,1.27,3.027q1.172,2.343-1.368,3.027l-6.25,1.758q-2.929.783-1.074-1.562,6.054-6.836,12.11-15.235a5.2,5.2,0,0,0,1.269-5.859q-1.465-2.832-2.832-2.539-0.49.292-1.465,3.222a11.269,11.269,0,0,1-1.855,4.2,6.336,6.336,0,0,1-4,2.832,24.862,24.862,0,0,0-3.711.683q-2.93.49-1.172-2.539a115.191,115.191,0,0,1,6.152-9.765,6.8,6.8,0,0,0,1.758-5.762,8.6,8.6,0,0,0-.879-1.953q-1.075-3.516-3.32-1.563a45.751,45.751,0,0,1-9.473,21.094,6.186,6.186,0,0,1-2.05,1.758,4.812,4.812,0,0,0-1.758,1.66q1.758,4.3,4.394,3.125a24.356,24.356,0,0,1,7.129-2.637q2.245-.389.586,2.246-6.543,8.79-12.305,11.817-0.489,2.541,3.809,4.3a55.237,55.237,0,0,1,7.519-3.028q2.733-.879,2.93,1.66a42.941,42.941,0,0,1-.293,6.446q-0.392,2.929-2.734,3.32l-14.16,1.465q-3.808.391-4.1,1.269,0.293,1.758,2.637,2.735a6.865,6.865,0,0,0,5.859.293q4-.683,7.91-1.074,2.93-.39,2.246,1.953a87.98,87.98,0,0,1-4.1,10.254q-3.42,6.639-13.086,15.332-2.442,1.367-.488,3.125,0.585,0.194,4.3-2.637,12.01-9.766,16.7-21.875,0.879-2.733,3.515-.977a36.253,36.253,0,0,1,5.567,5.567q2.733,3.906,4,2.832a7.135,7.135,0,0,0,.781-2.832q0-4.784-8.984-9.18-2.931-1.659-2.832-2.148,0.194-.487,2.539-0.782l13.281-1.855q2.929-.195,3.711,2.148a67.236,67.236,0,0,0,2.93,6.739q1.659,3.126-.489,4.687a231.1,231.1,0,0,1-24.316,15.235q-0.684,1.464.195,1.757a2.186,2.186,0,0,0,2.442-.39A193.992,193.992,0,0,0,506.676,963.5q3.026-1.951,4.59.293a54.555,54.555,0,0,0,17.871,15.918q4.688,2.832,7.422,2.539a1.856,1.856,0,0,0,1.171-2.051q-1.269-8.888-1.855-17.48-0.49-2.93-1.074-3.418-2.051-.1-1.66,3.32,0,4.787-.391,9.571-0.2,2.929-.586,3.124-8.4-3.027-16.309-13.476-2.343-3.222-.293-4.785,3.612-2.733,7.129-5.078,2.539-.781,1.954-3.125a22.5,22.5,0,0,0-.879-4.786q-0.587-.585,2.05-0.976,4.491-.683,8.887-1.074,3.124-.781,3.125-1.563-2.541-5.175-5.762-3.711l-7.031,1.563q-3.126.684-2.832-.586,0.293-2.733-3.32-5.371-1.955-1.661.781-2.442a21.859,21.859,0,0,1,3.223-.879q3.125-.585,4.1,1.465,0.781,2.248,1.465,2.637,0.587,0.2,1.856-1.855,1.659-4-.2-5.665-4.2-5.565-7.617-7.128-2.05,1.368.586,4.3,1.074,1.956-1.66,2.637l-5.86,1.367q-2.929.49-.2-2.246a120.423,120.423,0,0,0,10.059-11.719,19.577,19.577,0,0,0,3.125-3.515,11.171,11.171,0,0,0-2.539-4.785q-1.955-.975-2.246,1.66l-1.758,3.223a5.6,5.6,0,0,1-4,2.539l-3.711.781q-2.929.489-.977-2.539,2.44-3.9,5.176-7.813,2.637-2.637,2.246-5.371-0.977-3.9-2.636-4.2a1.677,1.677,0,0,0-1.27.684,44.009,44.009,0,0,1-9.766,19.335,7.178,7.178,0,0,1-1.855,1.368q-1.857,1.172-1.27,2.343a5.775,5.775,0,0,0,2.637,2.539q0.587,0.1,4.1-1.562a25.3,25.3,0,0,1,4.1-1.367q2.93-.39.586,2.344a110.862,110.862,0,0,1-9.765,9.961q-2.443,1.172-2.735-1.27a214.127,214.127,0,0,1-1.855-25.684q-0.392-3.808.488-5.175,1.172-2.344-1.855-4.981-3.029-3.9-4.1-1.953-0.293.293,0.293,3.418h0Zm20.7,43.75q1.953,2.929-.391,3.125-4.005.391-8.007,1.074-2.149.392-2.93-2.246l-0.781-3.125q-0.685-3.318.488-2.246,1.267,0.879,4.2,0l1.172-.391q2.929-.975,5.078,2.149Zm3.906,9.277a33.5,33.5,0,0,1-5.859,6.641q-2.929,2.637-4.2.293a40.437,40.437,0,0,1-1.856-4.3q-1.075-2.929,1.27-3.32,4.784-.781,9.57-1.27,2.637-.389,1.074,1.953h0Zm86.328-47.949q-0.684,2.929-3.027,3.223-4.787.489-9.57,1.269-2.93.391-3.125-1.953a23.711,23.711,0,0,1,.195-4.3q0.78-2.051-1.953-3.613-3.029-2.637-4.395-1.367-0.293.391,0.293,3.32a24.829,24.829,0,0,1,1.172,5.957q0.39,2.93-1.953,3.223-11.037,1.464-22.07,2.539-1.857,0-2.149,1.172,0,0.391,2.832,2.636a6.737,6.737,0,0,0,5.86.489q7.518-1.466,15.039-2.246,3.318-.39,3.32,1.66a4.885,4.885,0,0,0,1.563,5.566q1.172,0.978-1.465,1.367l-3.418.586q-2.929.49-3.516-.683-1.758-2.538-3.125-1.172a13.246,13.246,0,0,0,.2,4.394q1.268,13.77-.1,19.043a8.217,8.217,0,0,0,.781,3.907q1.268,2.834,2.637,2.539,0.78-.39.976-2.246,0.1-1.466,2.832-1.856,4.395-.78,8.692-1.269,2.929-.1,2.93,2.246v2.539q0,2.05-2.637,2.441l-16.406,2.149q-2.931.392-3.907-1.465-1.076-2.93-2.929-1.856-0.391.391-.293,3.321a119.985,119.985,0,0,1-.293,23.339q-1.563,3.906,0,5.86,1.758,2.929,2.246,3.125,1.267,0.292,1.758-1.66a234.572,234.572,0,0,0,.879-23.731,2.541,2.541,0,0,1,2.441-2.734q8.1-1.269,16.211-2.149,2.929-.293,2.93,2.051l0.1,3.613q0,2.931-2.441,3.321-4.687.585-9.082,1.465-3.615.392-3.711,1.953,2.439,3.027,4.492,3.418a52.6,52.6,0,0,1,8.3-2.344l14.453-3.613a3.6,3.6,0,0,1,4.2,1.953q1.758,5.368,3.906,1.465,1.366-4-.683-6.055A43.5,43.5,0,0,0,610,953.438q-2.929-3.125-4.3-.782a8.085,8.085,0,0,0,1.66,2.832q1.465,1.955-1.171,2.539a11.73,11.73,0,0,0-2.54.489q-3.027.782-3.125-2.246v-3.321a2.636,2.636,0,0,1,2.344-2.832q9.962-1.366,19.922-2.441,2.929-.2,2.539,2.148a117.573,117.573,0,0,1-4.2,21.094q-1.37,3.125-4.1,1.367-5.177-5.272-6.836-2.246,0,0.586,2.637,3.32L618.2,980.2q2.832,4,4.59-.976,4.1-9.767,7.52-29.3,0.194-2.929,1.562-3.809,2.246-2.343-1.66-4.98a2.148,2.148,0,0,0-3.32.683,5.719,5.719,0,0,1-3.711,1.563q-10.06,1.171-19.825,2.637-2.929.293-2.929-2.051v-2.442q0-2.244,2.539-2.636,6.738-1.269,13.476-1.856a7.722,7.722,0,0,0,2.539-.39q0.879-1.269-.878-2.539-1.27-.975-0.879-3.223l2.734-12.988a13.053,13.053,0,0,1,1.953-4.493q-2.637-5.955-5.664-2.148a19.323,19.323,0,0,1-7.91,2.344q-3.321.585-2.344-1.563,1.172-2.245,1.953-4.2,1.269-3.025,3.516-3.418,11.522-1.659,22.949-2.637a2.766,2.766,0,0,0,2.344-.976q0.2-.39-1.856-3.516-1.757-2.146-5.859-.683a85.605,85.605,0,0,1-14.941,2.929q-3.224.49-2.246-1.758a3.922,3.922,0,0,0,.488-1.269,5.708,5.708,0,0,0-.488-5.859q-2.541-2.539-3.125-2.54a1.806,1.806,0,0,0-.879,2.149,47.766,47.766,0,0,1-1.075,7.617h0Zm-4.785,15.234q-0.783,1.857-3.613,2.247a24.962,24.962,0,0,0-4,.488q-2.929.391-2.832,0a30.06,30.06,0,0,0,.1-5.371q-0.2-2.93,2.148-3.418,4-.782,7.91-1.27,3.027-.388,2.246,1.953Zm12.989,6.348q-1.173,5.274-1.954,10.449A3.693,3.693,0,0,1,610,933.32q-3.614.879-6.934,1.368-2.636.489-2.636-2.344t2.344-3.418q4.2-.782,8.4-1.27,3.516-.487.879-2.832-1.466-1.366-4.59-1.074a12.821,12.821,0,0,1-3.906.781q-3.128.684-3.125-2.343,0-2.931,2.344-3.418l9.96-1.563q2.733-.389,2.247,2.246h0Zm-18.75,3.516q0,3.126-2.539,3.418a70.153,70.153,0,0,1-7.715,1.269q-3.42-.388-2.832,2.051a6.926,6.926,0,0,0,7.226,1.27l2.93-.586q2.929-.2,2.93,2.636a2.76,2.76,0,0,1-2.637,3.028q-4.3.489-8.594,1.269-2.929.294-2.93-2.051l-0.1-10.253q-0.1-2.931,2.343-3.321l8.985-1.562Q596.227,919.843,596.227,922.969Zm100.1-23.926q1.172,3.029-1.269,3.32l-23.145,3.223-7.422.879q-3.222.391-3.515,0.976a3.02,3.02,0,0,0,.39,1.075q4.1,3.712,8.2,2.343l6.641-1.171q2.733-.489,2.246.1a3.168,3.168,0,0,0-.293,1.563A45.282,45.282,0,0,1,678.551,930q-0.2,3.321,3.515,7.422,0.682,0.1-2.734.488-2.929.392-3.32,1.27-0.1.684,2.343,2.246a6.958,6.958,0,0,0,5.957.293,87.62,87.62,0,0,1,10.743-1.66q2.93-.294,2.929,1.269t-2.343,2.051l-26.758,4q-2.93.879-3.125,1.367-0.2.978,1.66,1.953a8.5,8.5,0,0,0,5.859,1.172q7.519-1.562,14.942-2.832,2.929-.587.586,1.758a97.906,97.906,0,0,1-29.2,18.945q-2.636.78-1.269,2.832,1.854,0.488,6.152-1.66a110.842,110.842,0,0,0,14.942-7.91q3.222-1.953,3.32.293l-0.1,11.426a5.257,5.257,0,0,1-1.562,2.441,2.325,2.325,0,0,0-1.074,1.562q0.585,2.245,3.613,3.418,0.682,0.1,3.711-2.929,6.639-5.861,12.89-11.035,0.781-1.956-1.171-2.246a5.938,5.938,0,0,0-2.344,1.269l-6.836,4.883q-2.929,1.758-2.93-.586,0.1-4.005.489-7.715a3.075,3.075,0,0,0-.684-4q-0.783-.975,1.953-3.223,2.44-2.05,4.883-3.808,2.929-2.345,2.93-3.613,0-1.465,2.246-1.758,12.011-2.538,30.371-5.078a4.2,4.2,0,0,0,3.418-1.075q0.488-.585-0.977-2.343-2.149-2.44-3.906-2.051a154.972,154.972,0,0,1-22.363,4.785q-3.029.684-3.028-1.172,0-1.56,2.637-2.051,8.1-1.464,17.48-2.539a1.7,1.7,0,0,0,.489-1.464q-2.05-3.224-4.1-3.321a88.96,88.96,0,0,1-13.769,2.832q-2.931.49-2.93-1.074t2.344-2.051q7.226-1.171,14.453-2.051a8.551,8.551,0,0,0,2.441-.585q1.367-1.366-1.172-3.125-1.464-1.074-1.172-3.809,0.487-4.98,1.368-9.668a10.348,10.348,0,0,0,1.172-3.906q-2.541-6.542-6.641-1.367l-1.172.683L684.8,912.715q-2.736.489-3.516-1.367a5.384,5.384,0,0,0-1.367-2.051q-0.587-.195,1.66-0.488,26.075-3.906,52.051-7.52a1.819,1.819,0,0,0,2.148-1.367q-2.636-5.762-7.226-3.711a192.355,192.355,0,0,1-25.293,4.883q-3.029.489-2.246-1.66,0.879-2.539-.2-3.907-4.591-5.859-7.91-6.933a2.867,2.867,0,0,0,.391,3.711Zm18.848,14.551-0.781,8.008a3.457,3.457,0,0,1-2.832,3.32q-3.42.879-6.543,1.367-2.931.391-2.93-1.66,0-1.953,2.344-2.539,3.417-.587,6.738-0.879,3.417-1.367.293-3.418-2.05-1.367-5.469-.586-4.884,2.05-3.906-1.269,0-1.854,2.344-2.442l5.078-.976,1.953-.391q3.9-.879,3.711,1.465h0Zm-19.629,5.664q-4.592.976-9.18,1.562a7.8,7.8,0,0,0-2.832.684q-0.391.684-.39-2.149-0.1-1.952,2.636-2.636,4.491-.975,8.985-1.66,3.125-.294,3.125,1.66,0,2.05-2.344,2.539h0Zm-7.422,5.762,6.836-1.27q2.929-.293,2.93,1.66,0,1.857-2.344,2.344l-9.18,1.367q-2.93.391-2.929-2.148l-0.1-2.051q-0.1-2.832.195-2.149,2.441,2.443,4.59,2.247h0Zm9.766,8.5q0,1.563-2.344,2.05l-10.059,1.465q-2.442.49-2.05-1.465,0.1-1.56,2.441-2.05l9.668-1.368Q697.886,931.955,697.887,933.516ZM714.1,956.172q-2.149,2.735-4.786.1a56.941,56.941,0,0,1-5.175-5.469,4.727,4.727,0,0,0-2.539-1.27q-3.127-.193-3.614.489a2.683,2.683,0,0,0,.2,1.171q12.108,11.427,21.972,22.071,1.854,2.831,3.711,2.636,6.738-.977,13.379-1.269,1.562-.783,1.367-1.465-0.489-1.464-3.222-1.66a37.01,37.01,0,0,1-18.36-8.106q-2.735-2.439-.1-4.98a42.64,42.64,0,0,1,3.32-2.832,5.133,5.133,0,0,0,1.953-5.176q-1.464-3.025-2.246-3.418-0.587-.1-1.953,3.028a29.145,29.145,0,0,1-3.906,6.152h0Zm140.918-63.965a58.32,58.32,0,0,1-2.832,18.555,202.275,202.275,0,0,1-12.7,31.25q-1.271,3.713-.293,4.2a1.736,1.736,0,0,0,1.172-.2,146.126,146.126,0,0,0,9.961-19.532,5.762,5.762,0,0,1,3.711-3.515q9.764-2.051,19.434-3.711,2.93-.488,1.953,1.855-1.662,3.712-3.711,7.422-1.758,1.857-.293,3.418a2.423,2.423,0,0,0,2.344-1.074q3.9-5.859,8.2-11.719,2.733-2.733,2.832-3.222-3.615-5.761-5.664-3.711a5.771,5.771,0,0,1-3.614,2.05q-9.473,1.758-18.945,3.809-3.222.783-2.246-1.563a124.749,124.749,0,0,0,4.3-12.89,31.949,31.949,0,0,1,3.027-7.813,2.733,2.733,0,0,0,.391-1.367q-0.783-2.146-4.2-5.078-1.37-1.659-2.637-.586a9.773,9.773,0,0,0-.2,3.418h0ZM822.3,914.18q-2.93.489-3.711-1.465-0.392-2.538-2.344-2.246a2.475,2.475,0,0,0-.879,3.222l0.781,5.86q1.366,14.259-.683,20.8-1.172,2.834,1.66,6.836,2.05,2.834,2.539,2.929,1.562-1.56,1.27-5.078,0.1-2.929,2.441-3.418l10.352-1.562q2.929-.39,3.515-0.977,0.39-1.561-1.562-3.027a3.418,3.418,0,0,1-1.172-3.321q0.975-7.617,2.246-15.234a5.092,5.092,0,0,1,1.172-2.832q1.659-1.172.293-3.027-2.93-4.59-6.153-.2-2.539,1.369-9.765,2.735h0Zm9.765,5.078q-1.075,6.837-1.855,13.574-0.391,2.929-2.734,3.516l-3.614.39q-2.93.294-2.929-2.05L820.641,921.7q0.1-2.929,2.441-3.418l4.688-.879,2.05-.39q2.637-.487,2.246,2.246h0ZM848.277,955.2q-6.056,11.037-21.875,22.071-2.93,1.758-3.125,2.636a1.658,1.658,0,0,0,.879,1.368q0.587,0.194,3.516-1.465,22.362-13.477,30.273-34.668,0.879-1.953,2.149.781,6.445,14.355,12.109,29.2a3.273,3.273,0,0,0,3.027,2.735q7.032-.49,13.965-0.586,3.223-2.149-.1-3.418a27.084,27.084,0,0,0-3.907-.684,14.915,14.915,0,0,1-7.812-2.93,40.874,40.874,0,0,1-5.371-7.812,222.947,222.947,0,0,1-10.84-23.438,3.063,3.063,0,0,1-.293-1.953,14.4,14.4,0,0,1,1.66-3.906q2.441-2.344-1.269-5.762-2.541-3.222-3.907-1.66,0.294,14.553-9.082,29.492h0ZM947.2,892.207l5.762,7.813q2.538,3.906,4,2.441a8.189,8.189,0,0,0,.976-3.516,4.05,4.05,0,0,0-.879-3.808q-5.567-4.981-9.961-6.348a1.046,1.046,0,0,0-1.074.977,6.088,6.088,0,0,0,1.172,2.441h0Zm15.527,11.231-30.566,3.808q-3.126.49-3.906-1.758a2.336,2.336,0,0,0-.488-1.074q-1.27-2.929-1.856-3.125a1.285,1.285,0,0,0-1.758.977,65.519,65.519,0,0,0,.586,8.3,149.31,149.31,0,0,1-3.32,36.231q-3.126,14.259-15.137,30.469-0.879,2.051,1.465,2.246,15.137-15.432,18.652-34.375,1.366-7.42,2.246-14.844,0.294-3.125,2.442-2.637a20.7,20.7,0,0,0,4.3-.586l2.929-.39q2.931-.2,2.93,2.148l-0.195,3.906q-1.076,2.931,2.637,7.129a1.03,1.03,0,0,0,1.367-.976q0.293-.586,2.636-0.977,7.714-1.171,15.332-2.051,2.931-.389,3.321-1.074,0.193-.585-0.977-2.246a3.642,3.642,0,0,1-1.074-3.809,10.475,10.475,0,0,1,.488-2.636q0.39-3.026,2.93-3.321,6.738-.878,13.379-1.367,2.733,0.1,3.613-.586,0.78-.488.1-1.758-0.879-1.464-4.1-2.539-3.126-.681-11.719,1.368-5.077,2.051-1.562-4.493,1.074-1.757-.2-2.734-2.833-2.637-.1-2.93,8.2-.975,16.406-1.66,1.953-2.05-1.465-4.1-1.563-1.854-5.859-.879a129.421,129.421,0,0,1-13.477,2.344h0Zm-1.074,12.7q-0.292,2.929-2.734,3.222-5.371.586-10.449,1.465-2.929.294-2.93-2.05l0.2-3.028q0.879-2.245-1.66-4.1-1.171-1.074,1.66-1.465,6.542-.879,12.989-1.465,3.123-.389,3.125,1.953a38.463,38.463,0,0,1-.2,5.469h0ZM940.562,913.4l0.489,5.469q0.193,2.93-2.246,3.028a48.786,48.786,0,0,1-6.543.878q-2.929.2-2.832-2.734v-5.176a2.635,2.635,0,0,1,2.343-2.832l5.469-.781q2.93-.195,3.32,2.148h0Zm19.825,12.793L960,928.828a3.836,3.836,0,0,1-2.93,3.516q-4.394.292-8.5,0.879-2.93.293-2.929-2.051v-2.637q-0.1-2.929,2.441-3.223l10.449-1.464q2.246-.195,1.856,2.343h0Zm1.855,15.43q-11.524,2.051-22.558,3.418-2.931.293-3.418,0.879a1.633,1.633,0,0,0,.586,2.441q1.952,1.954,7.812.782a105.908,105.908,0,0,1,14.941-2.637q2.44-.1.879,2.539l-5.371,7.715q-2.343,2.637-5.468.1a32.026,32.026,0,0,1-4.981-4.882,3.632,3.632,0,0,0-3.027-.977q-2.929.293-3.321,0.781-0.489,1.27,1.075,2.149,2.93,2.05,7.812,6.152,2.733,2.344-.391,5.176a81.114,81.114,0,0,1-27.832,15.332q-1.269,1.561.684,2.441A93.532,93.532,0,0,0,944.957,971.7a56.5,56.5,0,0,1,5.859-4.98q2.052-1.661,4.59.586,10.937,9.081,15.625,13.476a4.041,4.041,0,0,0,3.907,1.074A104.482,104.482,0,0,1,986.656,980a8.575,8.575,0,0,0,4.4-.977q0.975-2.247-1.465-2.539-16.7.1-30.566-11.816-3.224-2.538-1.27-4.785a80.013,80.013,0,0,0,9.473-12.988q3.123-2.832,3.222-3.321-0.1-2.05-2.539-3.613-1.758-.975-4.98,1.269Zm106.938-43.359q-27.93,4.98-46.88,6.445-1.95-.293-2.25,1.367c0,0.391,1.08,1.206,3.23,2.442a6.326,6.326,0,0,0,5.17.293q7.53-1.269,14.94-2.149,3.135-.292,3.42,2.051a163.56,163.56,0,0,1,.69,18.066c-0.07,1.953-.88,3.061-2.45,3.321q-9.375,1.172-18.45,2.636-3.81-.488-4.89.977a1.09,1.09,0,0,0-.09.977c2.6,2.148,4.59,3.027,5.95,2.636q6.45-1.267,16.9-2.539c1.95-.195,2.93.488,2.93,2.051v25.586a2.258,2.258,0,0,1-2.44,2.539l-29.69,2.148c-2.15.2-3.35,0.423-3.61,0.684a2.179,2.179,0,0,0-.2,1.172q3.9,4.588,7.13,3.32,19.725-2.734,54.69-4.98,6.435-.391,12.4-0.391,2.34,0,2.34-1.562-3.21-4.3-6.83-4.3-7.53,1.076-26.37,3.027c-1.95.131-2.93-.586-2.93-2.148V936.25a2.634,2.634,0,0,1,2.34-2.832q9.375-1.367,18.75-2.344c2.28,0.131,3.39-.52,3.32-1.953q-2.04-3.808-4.88-3.613-8.6,1.464-16.89,3.222-2.64.49-2.64-1.757a110.111,110.111,0,0,1,1.07-16.7,2.8,2.8,0,0,0-.48-3.32q-1.17-1.268,1.17-1.66,12.21-1.659,24.31-2.93,4.005-.78-0.58-4.687c-0.98-1.041-2.34-1.172-4.1-.391Zm-7.23,43.066a105.2,105.2,0,0,1,11.13,12.7q1.275,0.978,1.86-.293,1.95-5.273-1.56-8.105a89.011,89.011,0,0,0-11.72-8.4c-1.37-.911-2.22-0.782-2.54.39-0.07.391,0.88,1.628,2.83,3.711h0Zm99.51-45.605c-1.82.326-3.03-.064-3.61-1.172-0.78-1.5-1.7-1.79-2.74-.879-0.19.261-.23,1.367-0.09,3.32q1.755,18.654,0,28.028a8.932,8.932,0,0,0,.19,4.2,4.92,4.92,0,0,0,2.64,3.32c0.45,0.066.91-.813,1.36-2.637a3.136,3.136,0,0,1,2.64-3.222l12.5-2.344c1.95-.259,2.93.391,2.93,1.953q0.2,22.851-.39,41.5-0.285,2.929-2.54,1.172l-8.01-6.641c-1.49.327-1.79,1.172-.88,2.539q7.14,7.225,9.67,11.426,1.755,3.808,3.62,2.93,2.535-3.516,2.73-13.965,0.195-49.512.49-66.895a5.715,5.715,0,0,1,.68-3.125q1.665-1.659-.49-3.222-2.235-3.025-4.88-.2a5.923,5.923,0,0,1-3.22,1.758Zm-33.59,1.953c-2.09.456-3.45-.032-4.1-1.465a4.505,4.505,0,0,0-2.25-2.539,0.7,0.7,0,0,0-.78.1,3.985,3.985,0,0,0-.39,3.418l0.49,7.812q0.675,44.922-.1,62.6a9.946,9.946,0,0,0,.97,7.812c1.57,2.408,2.54,3.58,2.93,3.516a4.5,4.5,0,0,0,1.18-4.492q-0.495-12.5-.49-42.969a2.769,2.769,0,0,1,2.34-2.93q7.62-1.072,15.14-1.855,3.225-.487,3.51-0.879a2.7,2.7,0,0,0-1.66-2.93c-0.58-.455-0.75-1.529-0.48-3.223l2.53-19.336a2.891,2.891,0,0,1,1.18-2.539c0.84-.65,1.07-1.3.68-1.953q-3.03-6.054-6.84-1.172-3.42,1.662-13.86,3.028h0Zm49.51,2.246q-0.2,8.4-.1,16.7,0,2.149-2.64,2.637-6.435,1.075-12.89,2.441c-1.36.261-2.05-.488-2.05-2.246l-0.09-5.176c-0.14-.325.58-0.683,2.14-1.074a65.376,65.376,0,0,1,9.09-1.66,10.385,10.385,0,0,0,3.51-.781q1.275-1.466-1.37-3.223a4.409,4.409,0,0,0-2.73-.781l-7.71,1.758q-2.94.489-3.03-2.442v-3.027a2.769,2.769,0,0,1,2.34-2.93l12.11-2.148q3.42-.587,3.42,1.953h0Zm-35.35,1.953-2.15,18.164c-0.2,1.367-1.17,2.344-2.93,2.93l-8.69,1.074c-1.96.2-2.93-.488-2.93-2.051V917.5q0-1.953,2.73-2.637,3.915-.78,7.72-1.269l2.44-.489c0.65-.39.68-1.04,0.1-1.953-1.11-1.562-2.19-2.212-3.23-1.953a41.625,41.625,0,0,1-6.83,1.27c-1.96.195-2.93-.489-2.93-2.051a18.089,18.089,0,0,1,.1-3.418,2.769,2.769,0,0,1,2.34-2.93l11.13-1.953c2.21-.325,3.26.261,3.13,1.758h0Zm133.1-7.324-15.52,2.441q-2.94.392-3.81-1.172c-0.78-1.562-1.7-1.953-2.74-1.172a8.967,8.967,0,0,0-.19,3.321q0.975,12.7-.3,17.969a7.3,7.3,0,0,0,.3,2.441,6.078,6.078,0,0,1,1.07,5.273,12.382,12.382,0,0,1-3.12,5.664q-2.94,2.249-3.03,2.735a3.619,3.619,0,0,0,2.93,3.027l3.61-1.367q3.03-.975.98,1.66a46.629,46.629,0,0,1-4.88,5.078q-2.94,1.563-1.18,3.223a5.5,5.5,0,0,1,1.08,2.148q0.78,16.9-.78,26.465,0.285,4.491,2.93,5.567c0.97-.261,1.43-1.3,1.36-3.125q0.5-6.057.59-12.11a2.52,2.52,0,0,1,2.44-2.832q4.2-.78,8.3-1.172c1.95-.52,2.8-1.008,2.54-1.465a9.129,9.129,0,0,0-1.56-1.855q-1.17-.879-0.78-3.223a10.075,10.075,0,0,1,.97-3.32c0.2-.259-0.13-1.236-0.97-2.93a12.406,12.406,0,0,0-2.44-2.539q-1.965.294-1.18,3.418l-0.19,4.981c-0.13,2.148-.91,3.354-2.35,3.613a11.712,11.712,0,0,0-2.53.488c-1.37.2-2.02-.618-1.96-2.441l0.2-1.856q0.975-3.611.78-4.3a5.629,5.629,0,0,0-1.08-1.368c-0.52-.52,0-1.074,1.57-1.66q3.9-1.267,7.71-2.148,2.835-.586,3.81,1.562,0.78,1.954,1.86,2.051c0.39-.2.84-1.106,1.36-2.734q1.47-3.418-4.78-7.129c-1.3-1.172-2.09-1.3-2.35-.391-0.26.327-.13,0.945,0.4,1.856,0.25,0.651-.53,1.237-2.35,1.757l-3.22.879q-3.33.686-1.27-1.66,4.1-4.491,7.71-8.984,2.835-2.051,1.47-3.711-1.17-3.516-2.74-3.809-0.39.2-1.56,3.223l-0.58,1.269a5.64,5.64,0,0,1-4.11,2.832c-1.75.457-2.05-.227-0.87-2.05l1.46-1.953c1.3-.846,1.6-1.79.88-2.832-0.91-1.954-.59-3.028.98-3.223q7.125-1.172,14.25-2.051c1.96-.13,2.93.586,2.93,2.148q0.1,3.712-.09,7.129,0.2,30.666-.3,42.969-0.09,2.93-3.02.977l-0.98-.782a15.468,15.468,0,0,0-3.52-2.441c-1.36.586-1.43,1.6-.19,3.027a55.479,55.479,0,0,1,6.25,7.813q1.755,4.588,4,2.539,2.055-4.3,2.25-12.5-0.105-34.959.1-69.922a11.015,11.015,0,0,1,1.46-2.539q-2.055-4.2-4.78-3.223c-1.11,1.563-2.19,2.378-3.23,2.442h0Zm-37.59.879q-7.425,1.661-14.56,2.832c-1.88.326-3.35-.586-4.39-2.735q-1.47-1.56-2.25-1.465c-0.45.327-.68,1.465-0.68,3.418q1.56,32.227.39,70.411a11.716,11.716,0,0,0,.98,7.812q2.145,5.077,4,2.344l0.1-7.324q-0.39-23.925-.39-47.559,0-2.05,2.73-2.441l8.89-1.368q3.03-.389,2.05,2.051-3.315,6.837-6.15,8.2c-1.37.391-1.92,1.075-1.66,2.051q2.04,4.1,4.88,2.051a16.615,16.615,0,0,1,3.22-.977q2.355-.488.1,2.149-1.95,2.343-4.3,4.687c-1.95,1.172-2.96,2.019-3.02,2.539a5.568,5.568,0,0,0,.97,2.051c0.78,0.977,1.08,1.6.88,1.856a9.975,9.975,0,0,0,.39,3.32c0.65,3.711.56,6.543-.29,8.5a2.185,2.185,0,0,0-.68,1.27,7.905,7.905,0,0,0,1.75,1.953c1.04,0.522,1.83.488,2.35-.1a12.324,12.324,0,0,1,2.73-1.074l1.17-.293q3.03-.683,1.96,1.758-2.445,6.056-12.21,12.5-3.12,1.659-3.03,2.636a1.5,1.5,0,0,0,.88.977q2.055-.293,7.23-3.223,13.185-9.18,13.18-22.265a5.633,5.633,0,0,1,.98-2.93q0.195-.975-1.47-2.246-3.03-1.758-3.51-1.367-0.39.392-.3,3.32v2.539q0.105,3.224-1.95,3.711l-2.15.488q-3.12.783-2.93-1.465a16.562,16.562,0,0,1,.3-3.125c0.13-1.953-.3-3.352-1.27-4.2-0.92-.65-0.56-1.3,1.07-1.953q3.42-1.074,6.84-1.855,3.12-.682,3.81.976c0.71,1.042,1.3,1.4,1.75,1.074q2.64-3.417,1.08-5.566a58.949,58.949,0,0,0-4.79-4.492q-2.34.2-.78,2.344c0.52,1.107-.06,1.855-1.76,2.246l-2.44.586q-3.03.585-.78-1.856l8.3-9.18a5.971,5.971,0,0,0,.88-6.445,4.3,4.3,0,0,0-.88-1.465q-1.365-.389-1.95,1.66l-1.17,2.539a7.491,7.491,0,0,1-4.89,3.614c-1.95.261-2.93,0.261-2.93,0a27.6,27.6,0,0,1,2.35-3.516c2.28-2.344,3.38-4.1,3.32-5.273-0.39-1.041.19-1.692,1.76-1.953a15.237,15.237,0,0,0,2.63-.391c1.04-.716.69-1.822-1.07-3.32q-0.975-.682-0.69-3.028,0.885-9.471,2.64-13.867a3.006,3.006,0,0,0,.2-1.758q-2.55-5.273-5.47-1.465a9.6,9.6,0,0,1-1.95,1.075h0Zm39.64,5.664v8.4a2.633,2.633,0,0,1-2.34,2.832l-15.72,2.149c-1.37.2-2.05-.455-2.05-1.953,0.13-1.236.97-1.986,2.54-2.247a78.777,78.777,0,0,1,10.15-1.66q2.925-.389,3.42-0.976c0.32-.911-0.13-1.79-1.37-2.637-1.11-.977-2.08-1.27-2.93-0.879l-8.79,1.758c-1.95.261-2.93-.391-2.93-1.953a2.591,2.591,0,0,1,2.35-2.735l14.65-2.246c2.01-.259,3.02.457,3.02,2.149h0Zm-38.08,1.074-0.98,8.984q-0.39,3.224-2.44,3.711l-12.01,1.66c-1.96.2-2.93-.454-2.93-1.953a2.951,2.951,0,0,1,2.34-2.929c3.39-.65,6.77-1.172,10.16-1.563,1.5,0.2,2.47-.227,2.93-1.269,0-.391-0.56-1.172-1.66-2.344q-1.755-1.074-4.79-.1a62.334,62.334,0,0,1-6.34,1.172q-2.64.49-2.64-2.148c0.06-1.822.88-2.864,2.44-3.125l13.38-2.344c1.89-.26,2.73.488,2.54,2.246h0Z"/>
  <path id="大写字母" class="cls-3" d="M157.6,528.266q-0.564,2.109-2.04,2.109a1.247,1.247,0,0,0-1.335,1.477q0,1.337,2.109,1.336h5.555q2.109,0,2.109-1.477,0-1.335-2.109-1.336-2.04,0-1.688-1.687l2.953-12.868q0.563-2.109,2.25-2.109h6.61a1.993,1.993,0,0,1,2.109,1.687q1.547,6.471,2.813,12.868,0.422,2.109-1.336,2.109t-1.758,1.477q0,1.337,2.179,1.336h9.211q2.11,0,2.11-1.477a1.247,1.247,0,0,0-1.477-1.336q-1.266,0-1.758-1.828-5.484-22.079-10.757-44.156a2.608,2.608,0,0,0-2.672-2.11q-1.9,0-2.461,2.25Zm14.976-19.477Q173,510.9,171.312,510.9H166.18a1.206,1.206,0,0,1-1.336-1.687l3.656-15.4q0.49-1.686.914,0.141Zm35.845-22.851q1.547,0,1.547,1.757v40.993a1.461,1.461,0,0,1-1.617,1.687,1.337,1.337,0,0,0-1.547,1.477q0,1.337,2.18,1.336,12.234,0.422,18.07-.844a11.6,11.6,0,0,0,5.625-3.446,15.053,15.053,0,0,0,3.375-12.867,11.455,11.455,0,0,0-7.312-8.929q-2.251-.7-0.352-1.477a9.152,9.152,0,0,0,3.938-3.234,14.333,14.333,0,0,0,1.547-10.125q-1.2-6.68-8.508-8.578-4.29-.844-16.453-0.563-2.111,0-2.11,1.477,0,1.337,1.617,1.336h0Zm18.915,7.8q0.982,11.11-9,11.6a1.524,1.524,0,0,1-1.688-1.758V487.625a1.523,1.523,0,0,1,1.758-1.687q4.851-.07,6.961,2.179a10.647,10.647,0,0,1,1.969,5.625h0Zm1.968,23.344a23.34,23.34,0,0,1-.633,7.523,6.369,6.369,0,0,1-4.078,4.852,15.393,15.393,0,0,1-6.257.914,1.524,1.524,0,0,1-1.688-1.758V509.984a1.523,1.523,0,0,1,1.758-1.687,12.175,12.175,0,0,1,3.445.351q7.1,0.844,7.453,8.438h0Zm31.908-26.367a30.816,30.816,0,0,0-3.937,11.25q-2.181,14.274,4.851,25.8a14.486,14.486,0,0,0,8.156,5.836,13.948,13.948,0,0,0,11.743-1.828,4.651,4.651,0,0,0,2.109-3.726V516.594q0-2.109-1.406-2.11-1.266,0-1.828,2.6a43.506,43.506,0,0,1-3.586,11.25q-1.548,2.953-3.657,3.094-4.851,0-7.171-5.625a20.36,20.36,0,0,1-1.618-5.625q-2.391-15.679.914-27.633,1.688-5.625,5.977-7.313,3.3-1.9,5.2,1.618a41.209,41.209,0,0,1,3.516,10.406q0.49,2.252,1.9,2.25,1.335,0,1.336-2.18V487.7a4.947,4.947,0,0,0-2.25-3.867,13.866,13.866,0,0,0-10.266-1.336q-6.117,1.688-9.984,8.227h0Zm41.822-4.781a1.494,1.494,0,0,1,1.617,1.757v40.922a1.492,1.492,0,0,1-1.687,1.688,1.371,1.371,0,0,0-1.618,1.476q0,1.407,2.18,1.407,10.827,0.351,14.906-.633,10.336-3.093,12.586-13.43a47.367,47.367,0,0,0-1.054-25.453q-4.641-10.055-14.836-10.547H303.458q-2.109,0-2.11,1.477,0,1.337,1.688,1.336h0Zm20.109,37.617q-3.867,7.172-10.195,6.75a1.523,1.523,0,0,1-1.687-1.758V487.625a1.522,1.522,0,0,1,1.757-1.687q8.861-.141,11.25,10.687,2.532,14.7-1.125,26.93h0Zm28.744-37.617a1.494,1.494,0,0,1,1.617,1.757v40.922a1.492,1.492,0,0,1-1.687,1.688,1.37,1.37,0,0,0-1.617,1.476q0,1.407,2.179,1.407h23.7a1.9,1.9,0,0,0,2.109-2.18V516.1q0-2.11-1.406-2.11-1.336,0-1.688,2.11-1.336,9.914-3.164,13.64a6.426,6.426,0,0,1-1.687.563h-8.368a1.523,1.523,0,0,1-1.687-1.758V510.266a1.524,1.524,0,0,1,1.758-1.688,3.724,3.724,0,0,1,4.148,2.461,9.26,9.26,0,0,1,.563,2.813l0.351,2.109q0.423,2.109,1.688,2.109,1.194,0,1.195-2.179v-17.86q0-2.109-1.266-2.109-1.2,0-1.617,2.109l-0.633,4.219q-0.913,3.939-4.57,3.375a1.494,1.494,0,0,1-1.617-1.758V487.625a1.523,1.523,0,0,1,1.758-1.687h6.75q2.53-.281,3.094,1.124a88.582,88.582,0,0,1,2.531,10.547q0.421,2.111,1.758,2.11,1.264,0,1.265-2.18V485.234a1.9,1.9,0,0,0-2.179-2.109H352.311q-2.109,0-2.109,1.477,0,1.337,1.687,1.336h0Zm47.447,0a1.523,1.523,0,0,1,1.687,1.757v40.922A1.557,1.557,0,0,1,399.2,530.3a1.405,1.405,0,0,0-1.687,1.476q0,1.407,2.18,1.407h10.335q2.111,0,2.11-1.477,0-1.406-2.321-1.406-2.18,0-2.179-1.758V509.914q0-1.687,1.265-1.687,2.25-.423,3.375,2.25a11.921,11.921,0,0,1,1.547,4.781q0.492,2.251,1.828,2.25,1.266,0,1.266-2.18V497.609q0-2.109-1.476-2.109-1.126,0-1.477,2.391a25.842,25.842,0,0,1-.984,3.726q-1.266,4.079-4.149,3.656-1.2,0-1.195-1.757V487.625a1.523,1.523,0,0,1,1.758-1.687h6.187q1.688,0,3.234,2.179a39.116,39.116,0,0,1,2.532,9.141q0.561,2.109,1.828,2.109t1.266-2.179V485.234a1.9,1.9,0,0,0-2.18-2.109H399.617q-2.109,0-2.109,1.477,0,1.337,1.828,1.336h0Zm46.6,16.382q-1.97,14.344,4.57,25.383,6.609,8.507,16.664,5.836a15.3,15.3,0,0,0,4.922-2.531,5.284,5.284,0,0,0,2.039-3.938V514.555q0-1.687,1.407-1.688a1.22,1.22,0,0,0,1.265-1.476q0-1.407-2.179-1.407h-9.774q-2.109,0-2.109,1.477,0,1.407,2.179,1.406h0.985a1.524,1.524,0,0,1,1.687,1.758v11.391q0.069,4.079-2.882,5.132-5.486,1.548-8.719-3.375a15.776,15.776,0,0,1-2.11-5.625,60.689,60.689,0,0,1-1.336-15.96q0.212-10.478,3.516-17.016a9.085,9.085,0,0,1,6.469-4.5,3.747,3.747,0,0,1,4.148,2.109,23.287,23.287,0,0,1,3.586,10.547q0.351,2.109,1.758,2.11,1.335,0,1.336-2.18V487.7a4.277,4.277,0,0,0-2.18-3.586q-10.758-5.835-19.547,4.149a28.653,28.653,0,0,0-5.695,14.062h0Zm47.588-16.382a1.5,1.5,0,0,1,1.617,1.757v40.922a1.492,1.492,0,0,1-1.688,1.688,1.37,1.37,0,0,0-1.617,1.476q0,1.407,2.18,1.407h8.789q2.109,0,2.109-1.477A1.344,1.344,0,0,0,503.3,530.3q-1.476,0-1.477-1.758V510.055a1.524,1.524,0,0,1,1.758-1.688h9.071a1.524,1.524,0,0,1,1.687,1.758v18.492a1.462,1.462,0,0,1-1.617,1.688,1.337,1.337,0,0,0-1.547,1.476q0,1.407,2.18,1.407h8.929q2.111,0,2.11-1.477,0-1.406-1.758-1.406a1.494,1.494,0,0,1-1.617-1.758V487.625a1.523,1.523,0,0,1,1.758-1.687,1.371,1.371,0,0,0,1.617-1.477q0-1.335-2.18-1.336h-8.93q-2.109,0-2.109,1.477,0,1.337,1.617,1.336,1.546,0,1.547,1.757v16.032a1.524,1.524,0,0,1-1.758,1.687h-9.07a1.524,1.524,0,0,1-1.688-1.758V487.625a1.461,1.461,0,0,1,1.618-1.687,1.305,1.305,0,0,0,1.476-1.477q0-1.335-2.179-1.336h-8.79q-2.109,0-2.109,1.477,0,1.337,1.688,1.336h0Zm52.72,0q1.545,0,1.547,1.757v40.993a1.462,1.462,0,0,1-1.617,1.687,1.337,1.337,0,0,0-1.547,1.477q0,1.337,2.179,1.336H555.6q2.111,0,2.11-1.477,0-1.335-1.688-1.336-1.546,0-1.547-1.758V487.625a1.492,1.492,0,0,1,1.688-1.687,1.338,1.338,0,0,0,1.547-1.477q0-1.335-2.18-1.336h-8.789q-2.109,0-2.109,1.477,0,1.337,1.617,1.336h0Zm41.4,0q2.109,0,2.109,1.757l-0.07,38.883-0.492,2.32q-2.109,4.5-4.5.844a71.342,71.342,0,0,1-3.727-13.922q-0.421-2.109-1.547-2.109-1.125-.069-1.125,2.039v13.781a3.794,3.794,0,0,0,2.25,3.375,14.462,14.462,0,0,0,4.219,1.2q8.016,0.982,10.758-7.524a27.67,27.67,0,0,0,.773-5.625q0.212-16.663.141-33.328a1.491,1.491,0,0,1,1.687-1.687,1.338,1.338,0,0,0,1.547-1.477q0-1.335-2.179-1.336h-9.914q-2.111,0-2.11,1.477,0,1.337,2.18,1.336h0Zm31.064,0q1.545,0,1.547,1.757v40.993a1.462,1.462,0,0,1-1.617,1.687,1.337,1.337,0,0,0-1.547,1.477q0,1.337,2.179,1.336h9.493q2.109,0,2.109-1.477,0-1.335-2.039-1.336a1.618,1.618,0,0,1-1.9-1.758v-18.07q0-1.829.984,0.141l10.969,20.39a3.663,3.663,0,0,0,3.3,2.11h4.5q2.11,0,2.11-1.477a1.214,1.214,0,0,0-1.407-1.336q-1.265,0-2.531-2.25-6.187-11.531-12.164-23.063a3.473,3.473,0,0,1,.141-3.8l9.351-13.219q1.546-2.109,3.164-2.109a1.338,1.338,0,0,0,1.547-1.477q0-1.335-2.179-1.336h-6.188q-2.109,0-2.109,1.477,0,1.337,1.968,1.336,1.828,0,.774,1.687l-10.758,15.75q-1.476,2.251-1.476.422V487.625q0-1.687,2.039-1.687,1.9,0,1.9-1.477,0-1.335-2.18-1.336H619.2q-2.109,0-2.109,1.477,0,1.337,1.617,1.336h0Zm49.978,0q1.547,0,1.547,1.757v40.993a1.461,1.461,0,0,1-1.617,1.687,1.337,1.337,0,0,0-1.547,1.477q0,1.337,2.18,1.336h21.093a1.9,1.9,0,0,0,2.11-2.18V514.836q0-2.109-1.336-2.109-1.126,0-1.406,2.32a114.325,114.325,0,0,1-2.18,12.094q-0.494,3.585-4.57,3.234H678.6a1.523,1.523,0,0,1-1.687-1.758V487.625q0-1.687,2.32-1.687,2.25,0,2.25-1.477,0-1.335-2.18-1.336H669.181q-2.109,0-2.109,1.477,0,1.337,1.617,1.336h0Zm43.65,0a1.494,1.494,0,0,1,1.617,1.757v40.922a1.492,1.492,0,0,1-1.687,1.688,1.37,1.37,0,0,0-1.617,1.476q0,1.407,2.179,1.407h5.625q2.109,0,2.11-1.477,0-1.406-2.11-1.406-1.97,0-1.969-1.758V493.391q0-1.617.493,0l8.648,37.687q0.633,2.109,2.18,2.11,1.406,0,1.969-2.25l8.578-36.633q0.633-2.038.632-.422v34.734q0,1.688-2.39,1.688-2.251,0-2.25,1.476,0,1.407,2.18,1.407H747q2.109,0,2.109-1.477,0-1.406-1.757-1.406a1.5,1.5,0,0,1-1.618-1.758V487.625a1.523,1.523,0,0,1,1.758-1.687,1.371,1.371,0,0,0,1.617-1.477q0-1.335-2.179-1.336h-6.258q-2.109,0-2.813,2.672-3.867,15.891-7.523,31.781-0.492,2.391-.984.281l-7.594-32.625a2.648,2.648,0,0,0-2.742-2.109h-6.258q-2.109,0-2.109,1.477,0,1.337,1.687,1.336h0Zm58.627,0a1.5,1.5,0,0,1,1.617,1.757v40.922a1.524,1.524,0,0,1-1.758,1.688,1.37,1.37,0,0,0-1.617,1.476q0,1.407,2.179,1.407h6.54q2.109,0,2.109-1.477,0-1.406-2.18-1.406h-0.984a1.524,1.524,0,0,1-1.688-1.758V489.453q0-1.687.844,0.141l17.016,41.484a3.207,3.207,0,0,0,3.164,2.11,1.927,1.927,0,0,0,2.179-2.18V487.625a1.523,1.523,0,0,1,1.758-1.687,1.371,1.371,0,0,0,1.617-1.477q0-1.335-2.179-1.336H792.9q-2.109,0-2.109,1.477,0,1.337,2.179,1.336H794.1a1.524,1.524,0,0,1,1.688,1.757v30.657q0,1.9-.844-0.141l-13.57-32.977a3.115,3.115,0,0,0-3.024-2.109h-7.031q-2.109,0-2.109,1.477,0,1.337,1.758,1.336h0Zm55.6,1.124a29.8,29.8,0,0,0-5.555,14.063q-0.915,9.281.141,14.414,1.688,11.25,8.437,16.594a12.39,12.39,0,0,0,11.6,1.055,11.184,11.184,0,0,0,5.273-4.43,26.49,26.49,0,0,0,4.711-11.25,44.714,44.714,0,0,0-1.969-25.242q-4.782-11.391-14.906-10.055-3.728.282-7.734,4.851h0Zm13.851-.632a11.848,11.848,0,0,1,2.883,5.625q2.109,9.913,1.125,24.328-0.564,7.314-2.531,11.25-1.758,3.163-3.516,3.515-6.048,1.97-8.719-6.679a80.706,80.706,0,0,1-1.476-23.2,42.236,42.236,0,0,1,2.039-11.25q2.178-5.2,5.836-5.344a5.514,5.514,0,0,1,4.359,1.758h0Zm30.994-.492q1.547,0,1.547,1.757v40.993a1.461,1.461,0,0,1-1.617,1.687,1.337,1.337,0,0,0-1.547,1.477q0,1.337,2.18,1.336h9.914q2.109,0,2.109-1.477,0-1.335-2.25-1.336-2.109,0-2.109-1.758V510.758a1.523,1.523,0,0,1,1.757-1.688,28.283,28.283,0,0,0,10.407-1.547q2.742-.773,4.922-4.57a16.9,16.9,0,0,0,.632-12.445q-2.742-6.75-9.632-7.242-8.016-.212-15.821-0.141-2.109,0-2.109,1.477,0,1.337,1.617,1.336h0Zm18.844,4.007a19.15,19.15,0,0,1,.844,7.243q-0.282,5.2-2.461,7.1a12.841,12.841,0,0,1-7.313,1.758,1.523,1.523,0,0,1-1.687-1.758V487.625a1.522,1.522,0,0,1,1.757-1.687,21.039,21.039,0,0,1,3.446.14,6.03,6.03,0,0,1,5.414,3.867h0Zm30.853-2.6a32.221,32.221,0,0,0-5.484,16.875,48.128,48.128,0,0,0,.914,14.062q2.038,10.125,9.211,14.625,2.109,0.774,2.109,2.461a16.094,16.094,0,0,0,.281,3.024q1.756,6.117,7.453,4.992,2.11-.776,2.11-1.969a0.9,0.9,0,0,0-1.125-1.055,1.657,1.657,0,0,1-2.25-1.406,7.906,7.906,0,0,1-.282-2.953,2.722,2.722,0,0,1,1.758-2.742,14.3,14.3,0,0,0,5.414-4.36,28.7,28.7,0,0,0,4.922-11.25,45.642,45.642,0,0,0-2.039-25.382q-4.782-11.391-14.906-10.055-4.079.564-8.086,5.133h0Zm15.609,1.406a20.749,20.749,0,0,1,1.758,5.625,79.6,79.6,0,0,1,1.125,17.859,59.024,59.024,0,0,1-1.336,11.321q-1.055,5.766-5.2,7.664-6.328,1.546-8.719-6.75a48.62,48.62,0,0,1-1.547-11.6,84.4,84.4,0,0,1,1.618-20.812,12.836,12.836,0,0,1,2.882-5.625q2.954-2.671,5.907-1.336,2.881,1.688,3.515,3.656h0Zm29.728-2.812q1.547,0,1.547,1.757v40.993a1.461,1.461,0,0,1-1.617,1.687,1.337,1.337,0,0,0-1.547,1.477q0,1.337,2.18,1.336h9.07q2.109,0,2.11-1.477,0-1.335-1.829-1.336a1.523,1.523,0,0,1-1.687-1.758V510.336q0-1.756,1.055.352,4.92,10.2,10.054,20.39a3.519,3.519,0,0,0,3.235,2.11h4.429q2.111,0,2.11-1.477a1.247,1.247,0,0,0-1.477-1.336,2.515,2.515,0,0,1-2.18-1.758q-4.851-9.492-9.421-18.773-0.986-2.109.7-2.391,8.789-2.32,9.422-10.828,0.982-12.093-11.813-13.5H966.941q-2.111,0-2.11,1.477,0,1.337,1.617,1.336h0Zm16.032,17.578a9.058,9.058,0,0,1-5.7,2.039q-2.109,0-2.109-1.758V487.625a1.523,1.523,0,0,1,1.758-1.687q8.648-.913,9.492,7.734,0.49,6.188-3.445,9.844h0Zm36.97-14.836a15.059,15.059,0,0,0-.7,12.445,9.744,9.744,0,0,0,4.15,5.344q2.8,2.109,11.25,7.383,5.97,5.554,2.1,13.078a8.709,8.709,0,0,1-5.13,4.218q-4.575,1.337-7.45-4.57a42.71,42.71,0,0,1-3.24-10.547q-0.42-2.109-1.47-2.109c-0.71,0-1.06.727-1.06,2.18v11.25c0,1.406.85,2.882,2.53,4.429a15.938,15.938,0,0,0,11.89,1.969q6.465-1.476,9.84-8.3a17.707,17.707,0,0,0,.49-12.375q-1.47-4.359-6.82-7.594l-5.62-3.375q-8.025-4.639-7.53-10.617a7.292,7.292,0,0,1,2.82-5.062q6.96-4.992,10.9,3.3a52.367,52.367,0,0,1,2.46,7.735c0.32,1.406.84,2.109,1.54,2.109q0.99,0,.99-2.18V487.344a3.677,3.677,0,0,0-2.11-3.305q-6.33-3.8-14.91-.281a12.323,12.323,0,0,0-4.92,4.922h0Zm40.98,8.789q0,2.109,1.26,2.109,0.99,0,1.41-2.25c0.52-2.672,1.12-5.273,1.83-7.8,0.7-2.953,1.97-4.218,3.79-3.8q1.2,0,1.2,1.757v41.2c0,1.124-.63,1.687-1.9,1.687-1.17,0-1.76.492-1.76,1.477,0,0.891.73,1.336,2.18,1.336h9.78c1.4,0,2.11-.493,2.11-1.477,0-.89-0.64-1.336-1.9-1.336a1.586,1.586,0,0,1-1.83-1.758v-41.2q0-1.687,1.41-1.687a2.056,2.056,0,0,1,2.53,1.2,34.455,34.455,0,0,1,2.95,10.547c0.28,1.406.8,2.109,1.55,2.109s1.12-.726,1.12-2.18V485.234a1.893,1.893,0,0,0-2.18-2.109h-21.44a1.9,1.9,0,0,0-2.11,2.18v12.164Zm46.95-11.531a1.47,1.47,0,0,1,1.55,1.757V518a41.1,41.1,0,0,0,1.27,8.719,9.746,9.746,0,0,0,3.72,5.484,11.656,11.656,0,0,0,5.63,1.9q7.8,0.912,11.46-5.977a20.375,20.375,0,0,0,1.33-5.625q0.21-17.437.14-34.875a1.462,1.462,0,0,1,1.62-1.687,1.306,1.306,0,0,0,1.48-1.477c0-.89-0.73-1.336-2.18-1.336h-5.35q-2.1,0-2.1,1.477c0,0.891.67,1.336,2.03,1.336,1.32,0,1.97.586,1.97,1.757l-0.07,32.836a22.541,22.541,0,0,1-.91,5.625q-2.325,6.048-8.58,4.571-4.5-1.968-4.71-9-0.21-17.155-.14-34.1c0-1.125.65-1.687,1.97-1.687q1.83,0,1.83-1.477c0-.89-0.73-1.336-2.18-1.336h-9.36q-2.1,0-2.1,1.477,0,1.337,1.68,1.336h0Zm45.13,0c0.7,0,1.19.609,1.48,1.828l9.14,44.086a2.641,2.641,0,0,0,5.2-.141l9.28-43.664c0.33-1.406.91-2.109,1.76-2.109,0.8,0,1.19-.493,1.19-1.477,0-.89-0.72-1.336-2.18-1.336h-4.92c-1.4,0-2.11.492-2.11,1.477q0,1.337,2.25,1.336c1.36,0,1.88.632,1.55,1.9l-6.75,31.852q-0.5,2.53-.84.843l-6.61-32.484c-0.24-1.406.3-2.109,1.61-2.109,1.27,0,1.9-.493,1.9-1.477,0-.89-0.72-1.336-2.18-1.336h-8.93q-2.04,0-2.04,1.477a1.125,1.125,0,0,0,1.2,1.336h0Zm47.45,0c0.7,0,1.17.609,1.4,1.828l8.51,44.086a2.4,2.4,0,0,0,2.53,2.109c1.36,0,2.23-.891,2.6-2.672l5.07-26.086c0.28-1.359.53-1.5,0.77-.422q2.46,13.57,5.13,27.071a2.349,2.349,0,0,0,2.53,2.109,2.414,2.414,0,0,0,2.46-2.25q4.29-21.937,8.79-43.664,0.42-2.109,1.62-2.109t1.2-1.477c0-.89-0.73-1.336-2.18-1.336h-3.87c-1.41,0-2.11.492-2.11,1.477a1.281,1.281,0,0,0,1.55,1.336c0.98,0,1.38.562,1.19,1.687l-6.19,31.078c-0.32,1.594-.61,1.782-0.84.563q-3.03-15.611-5.84-31.219-0.27-2.109,1.62-2.109,1.83,0,1.83-1.477c0-.89-0.73-1.336-2.18-1.336h-9.7c-1.41,0-2.11.492-2.11,1.477q0,1.337,1.68,1.336a1.913,1.913,0,0,1,1.97,1.687l1.76,9.563-4.22,21.3q-0.5,2.532-.84.633l-5.77-31.008q-0.495-2.178,1.2-2.179a1.373,1.373,0,0,0,1.62-1.477c0-.89-0.73-1.336-2.18-1.336h-8.09q-2.04,0-2.04,1.477a1.1,1.1,0,0,0,1.13,1.336h0Zm64.39,0q1.185,0,2.04,2.25l6.54,18.281a4.425,4.425,0,0,1-.28,2.812l-7.88,18.985q-0.84,2.109-2.25,2.109a1.25,1.25,0,0,0-1.34,1.477c0,0.891.71,1.336,2.11,1.336h5.63c1.4,0,2.11-.493,2.11-1.477,0-.89-0.71-1.336-2.11-1.336-1.36,0-1.85-.563-1.48-1.687l6.19-15.258c0.61-1.641,1.1-1.922,1.48-.844l5.34,15.68q0.63,2.109-1.2,2.109c-1.17,0-1.75.492-1.75,1.477,0,0.891.72,1.336,2.18,1.336h9.56c1.41,0,2.11-.493,2.11-1.477a1.184,1.184,0,0,0-1.34-1.336c-0.84,0-1.57-.749-2.18-2.25l-8.01-22.5a4.12,4.12,0,0,1,0-2.813l6.18-14.765c0.61-1.406,1.43-2.109,2.47-2.109a1.333,1.333,0,0,0,1.54-1.477c0-.89-0.72-1.336-2.18-1.336h-5.13c-1.41,0-2.11.492-2.11,1.477,0,0.891.59,1.336,1.76,1.336,1.12,0,1.45.609,0.98,1.828q-2.25,5.343-4.29,10.687c-0.61,1.454-1.12,1.617-1.54.492l-3.8-10.9c-0.42-1.406-.05-2.109,1.12-2.109s1.76-.493,1.76-1.477c0-.89-0.72-1.336-2.18-1.336h-9.21c-1.4,0-2.11.492-2.11,1.477a1.151,1.151,0,0,0,1.27,1.336h0Zm46.04,0c0.84,0,1.48.586,1.9,1.757q4.14,11.885,8.01,23.7v17.3c0,1.124-.63,1.687-1.9,1.687-1.21,0-1.82.492-1.82,1.477,0,0.891.72,1.336,2.18,1.336h9.84c1.41,0,2.11-.493,2.11-1.477,0-.89-0.63-1.336-1.9-1.336a1.586,1.586,0,0,1-1.83-1.758V512.164a8.524,8.524,0,0,1,.21-2.32q3.735-10.9,7.67-21.8,0.84-2.109,2.25-2.109a1.274,1.274,0,0,0,1.4-1.477c0-.89-0.72-1.336-2.18-1.336h-5.06c-1.4,0-2.11.492-2.11,1.477q0,1.337,1.83,1.336c1.22,0,1.59.586,1.13,1.757q-2.955,8.159-5.7,16.243-0.84,2.25-1.41.562l-5.2-16.312c-0.47-1.5-.02-2.25,1.34-2.25s2.04-.493,2.04-1.477c0-.89-0.73-1.336-2.18-1.336h-9.99q-2.04,0-2.04,1.477a1.215,1.215,0,0,0,1.41,1.336h0Zm49.98,11.531c0,1.406.44,2.109,1.33,2.109,0.71,0,1.17-.773,1.41-2.32a47.932,47.932,0,0,1,1.62-7.946c0.14-1.593,1.14-2.718,3.02-3.374h8.02c1.12,0,1.38.75,0.77,2.25q-8.58,21.446-16.95,42.89c-0.56,1.406-.14,2.11,1.27,2.11h22.29a1.9,1.9,0,0,0,2.11-2.18V516.1c0-1.407-.35-2.11-1.06-2.11-0.65,0-1.12.7-1.4,2.11a62.664,62.664,0,0,1-2.46,9.07c-1.18,3.844-2.98,5.555-5.42,5.133h-6.12c-1.12,0-1.43-.727-0.91-2.18q8.37-21.446,16.95-42.891c0.56-1.406.14-2.109-1.27-2.109h-21.02a1.9,1.9,0,0,0-2.11,2.18Z"/>
  <path id="logo" class="cls-1" d="M706.266,1194.7a45.969,45.969,0,0,0-.118,5.15v5.16H677.555v-1.17l0.234-.94-1.406-.24c-1.1,0-2.659-.07-4.688-0.23h-3.281l-0.469,2.58a45.646,45.646,0,0,1-1.172,4.92,22.619,22.619,0,0,1-1.406,4.22,7.125,7.125,0,0,0-.82,2.23,6.584,6.584,0,0,0,2.109-.71c1.326-.54,2.615-1.13,3.867-1.76a11.566,11.566,0,0,0,3.516-2.81l1.641-1.64h66.8l1.875,1.88a14.477,14.477,0,0,0,3.75,2.81c1.406,0.62,2.655,1.17,3.75,1.64a1.036,1.036,0,1,0,1.171-1.17,17.1,17.1,0,0,1-1.406-3.99q-0.7-2.34-1.172-4.68a11.9,11.9,0,0,0-.7-3.05c0-.47-1.252-0.62-3.75-0.47-1.875.16-3.281,0.23-4.219,0.23a2.052,2.052,0,0,1-.937.24c-0.315,0-.469.31-0.469,0.94l0.235,0.93-13.594.24q-13.359,0-13.36-.24a2.838,2.838,0,0,1,.7-1.05,6.664,6.664,0,0,0,1.171-2.46,15.728,15.728,0,0,0,.469-4.22v-2.58h-4.687Q706.382,1194.46,706.266,1194.7Zm-31.289,28.12v4.22l21.093,0.23h21.094l-5.859,4.93q-5.4,4.215-8.2,6.56l-2.344,1.87v6.8H660.445v4.22h40.313v14.76c0,10.01-.158,15.47-0.469,16.41a13.152,13.152,0,0,1-1.172,3.05,21,21,0,0,1-2.578,3.04,16.962,16.962,0,0,1-3.75,2.82c-1.406.62-2.109,1.17-2.109,1.64s0.153,0.7.468,0.7a30.375,30.375,0,0,0,3.047-.47,34.353,34.353,0,0,0,4.922-1.4,16.4,16.4,0,0,0,4.688-1.88,11.74,11.74,0,0,0,3.515-2.34,12.264,12.264,0,0,0,2.344-2.58,13,13,0,0,0,1.172-2.58c0.311-.94.469-6.4,0.469-16.41v-14.76h38.2v-4.22h-38.2v-6.8l2.109-1.64q2.109-1.635,8.438-6.79,6.327-5.4,8.437-7.04a13.637,13.637,0,0,0,2.578-2.34q0-.225-28.828-0.23t-29.062.23h0Zm121.64-30.23-0.469,1.87a27.635,27.635,0,0,1-1.523,5.74c-0.861,2.43-1.681,4.65-2.461,6.68q-1.176,2.58-3.281,6.8-1.88,3.75-4.453,8.44-2.11,3.75-4.688,7.73-2.582,4.215-3.047,4.92a7.818,7.818,0,0,0-1.406,2.11c-0.157.47-.117,0.71,0.117,0.71a8.252,8.252,0,0,0,2.227-1.18q1.873-1.17,3.515-2.34,1.874-1.41,3.985-3.28a59.714,59.714,0,0,0,4.453-4.45l2.109-2.35,0.235,14.77,0.234,14.76h1.875a5.862,5.862,0,0,0,3.047-.7,5.457,5.457,0,0,0,1.875-1.17,11.374,11.374,0,0,0,1.406-1.64l0.469-.71h27.187v2.11l0.235,2.11h1.64a7.437,7.437,0,0,0,2.813-.47,9.072,9.072,0,0,0,2.109-1.17,4.666,4.666,0,0,0,1.407-1.64l0.7-.94h31.64v-4.45H838.336v-6.8H868.57v-4.45H838.336v-6.8H868.57v-4.68H838.336v-7.5H868.57v-4.69H837.164l0.938-1.17a23.668,23.668,0,0,0,1.406-2.35,6.445,6.445,0,0,0,.7-2.57,17.74,17.74,0,0,0,.469-4.93v-3.51H828.727v14.53H815.6q-13.129,0-13.125-.23c0-.16-0.158-0.24-0.469-0.24s0.311-1.41,1.875-4.22a69.182,69.182,0,0,0,3.281-7.5,16.732,16.732,0,0,0,1.406-3.98l0.235-1.17H796.617Zm31.406,22.03v7.5H802.477v-7.5h25.546Zm0,12.18v6.8H802.477v-6.8h25.546Zm0,11.25v6.8H802.477v-6.8h25.546Zm-3.515,16.88v5.16l-22.969.23H778.805v4.45h45.7v1.64c0,1.1-.081,1.64-0.235,1.64a40.222,40.222,0,0,1-4.687-1.17q-4.455-1.17-4.922-1.4-0.236,0-6.328,4.68-6.1,4.935-7.734,6.1-1.643.93-4.454,2.58a58.967,58.967,0,0,1-5.39,2.57q-2.812,1.185-5.391,2.23a35.226,35.226,0,0,1-5.859,1.76,17.416,17.416,0,0,0-3.047,1.05,6.06,6.06,0,0,0,1.289,1.06,3.994,3.994,0,0,0,1.992.94c0.469,0,2.344-.32,5.625-0.94s6.328-1.33,9.141-2.11q4.449-1.17,8.2-2.35a22.822,22.822,0,0,0,4.922-2.1q1.637-.945,9.14-6.1t7.618-5.04q0.115,0.12.117,13.48v13.12h1.406a7.357,7.357,0,0,0,2.813-.7,6.692,6.692,0,0,0,3.046-1.99,11.184,11.184,0,0,0,2.11-3.17,8.733,8.733,0,0,0,.586-2.34q0.115-1.17.117-6.33c0.154-4.68.271-7.11,0.352-7.26s1.442,0.55,4.1,2.11q3.982,2.1,6.8,3.51a34.945,34.945,0,0,0,6.328,2.58,54.282,54.282,0,0,0,6.328,1.64,52.974,52.974,0,0,0,5.625.94c1.718,0.16,4.219.23,7.5,0.23a38.521,38.521,0,0,0,5.86-.23,1.37,1.37,0,0,0,1.171-.94l0.235-1.17c0-.15-0.235-0.24-0.7-0.24-0.315,0-1.722-.23-4.219-0.7s-5-1.01-7.5-1.64q-3.516-.93-6.8-2.11-2.812-.93-5.625-2.11-2.346-1.17-10.078-6.33l-7.734-5.15,19.453-.24h19.453v-4.45H854.977l-20.157-.23v-2.58l-0.234-2.58H824.508Z"/>
</svg>
