<svg xmlns="http://www.w3.org/2000/svg" width="400" height="200" viewBox="0 0 400 200">
  <defs>
    <style>
      .cls-1 {
        fill: #fdfdfd;
        fill-rule: evenodd;
      }
    </style>
  </defs>
  <path id="源界明朝体" class="cls-1" d="M99.319,99.965a4.955,4.955,0,0,0-.09-1.02q-0.09-.419.69-0.42a2.343,2.343,0,0,1,1.11.24,2.333,2.333,0,0,0,1.11.24,3.933,3.933,0,0,0,2.07-.6,2.021,2.021,0,0,0,.99-1.86,3.6,3.6,0,0,0-.24-1.29,3.76,3.76,0,0,1-.24-1.35,1.244,1.244,0,0,1,.3-0.87,0.835,0.835,0,0,1,.96-0.09l0.36-4.02a1.277,1.277,0,0,1,0-2.4,12.5,12.5,0,0,0-1.11-1.23,18.972,18.972,0,0,0-1.62-1.44,12.883,12.883,0,0,0-1.8-1.2,3.532,3.532,0,0,0-1.65-.51h-0.18l-3.24,3.18H92.9a0.479,0.479,0,0,0-.06-0.18c-0.12-.12-0.141-0.18-0.06-0.18a2.967,2.967,0,0,1,.3-0.42q0.239-.3.51-0.6a6.3,6.3,0,0,0,.48-0.6,4.1,4.1,0,0,0,.27-0.42,0.8,0.8,0,0,1-.27-0.36,0.535,0.535,0,0,1-.09-0.42,4.015,4.015,0,0,1,.36-0.99,1.22,1.22,0,0,1,.42-0.63h0.42v1.86a2.711,2.711,0,0,0,1.23-.21,0.893,0.893,0,0,0,.48-0.6,2.66,2.66,0,0,0,.03-0.9,9.456,9.456,0,0,1-.06-1.11h8.7a4.9,4.9,0,0,0-1.95-1.38,11.039,11.039,0,0,0-2.43-.42,0.346,0.346,0,0,1-.06-0.24q0-.239.93-0.3t2.1-.09q1.17-.03,2.22-0.09a2.686,2.686,0,0,0,1.35-.3q-0.36-.419-1.17-1.26t-1.8-1.68a22.492,22.492,0,0,0-1.92-1.47,2.955,2.955,0,0,0-1.47-.63,1.655,1.655,0,0,0-1.44.81,15.146,15.146,0,0,0-1.02,1.8,12.992,12.992,0,0,1-1.05,1.8,1.729,1.729,0,0,1-1.47.81H77.539a5.719,5.719,0,0,1-2.22-.45,21.327,21.327,0,0,1-2.16-1.05L71,74.225a9.648,9.648,0,0,0-2.22-.9h-0.42q-0.121.06-.36,0.21a0.5,0.5,0,0,0-.24.21v8.4a6.437,6.437,0,0,0-1.53,2.28q-0.571,1.381-1.05,2.76a20.491,20.491,0,0,1-1.11,2.61,5.066,5.066,0,0,1-1.71,1.95,19.393,19.393,0,0,0-2.07-2.22,16.806,16.806,0,0,0-2.52-1.92,13.812,13.812,0,0,0-2.85-1.35,9.29,9.29,0,0,0-3-.51,0.623,0.623,0,0,0-.78.6v0.18l1.62,3.24a13.39,13.39,0,0,1,1.11,3.03,12.225,12.225,0,0,0,.84,2.55A3.594,3.594,0,0,0,56.239,97a5.834,5.834,0,0,0,3.3.33q0.239,0.3.66,0.78t0.87,0.96a8.435,8.435,0,0,0,.99.9,3.639,3.639,0,0,0,1.08.6h0.42a17.053,17.053,0,0,0,.66-2.91q0.239-1.65.6-3.27a15.647,15.647,0,0,1,.96-2.97,4.444,4.444,0,0,1,1.8-2.07l0.6,11.22h0.96a0.974,0.974,0,0,1,.27.39q0.21,0.391.45,0.96c0.159,0.381.32,0.78,0.48,1.2s0.3,0.771.42,1.05v0.18q0,1.862-1.62,1.86a0.949,0.949,0,0,1-.78-0.24,0.706,0.706,0,0,0-.6-0.24h-0.18q-0.06.242-.18,1.38t-0.33,2.76q-0.211,1.62-.45,3.42t-0.51,3.33a24.112,24.112,0,0,1-.57,2.55,1.252,1.252,0,0,1-.6,1.02q-0.3,0-.81-1.29t-0.99-2.91q-0.481-1.62-.84-3.15a11.439,11.439,0,0,1-.36-2.01,15.665,15.665,0,0,1,.42-3.63,15.689,15.689,0,0,0,.42-3.63v-0.6a3.107,3.107,0,0,1-.6.33,1.725,1.725,0,0,1-.6.09,1.009,1.009,0,0,1-.42-0.06,3.792,3.792,0,0,0-.09-0.63,6.044,6.044,0,0,0-.27-0.93,4.014,4.014,0,0,0-.45-0.87,0.737,0.737,0,0,0-.57-0.39,0.352,0.352,0,0,0-.24.06,0.785,0.785,0,0,0-.36.36q-0.18.3-.51,0.99t-0.72,1.44q-0.391.751-.72,1.44t-0.45.93a4.553,4.553,0,0,1,3.27,2.34,8.553,8.553,0,0,1,.99,4.08h-0.3a3.085,3.085,0,0,0-.72-1.5,6.949,6.949,0,0,0-1.44-1.29,8.1,8.1,0,0,0-1.74-.9,4.79,4.79,0,0,0-1.62-.33h-0.48c-0.2.041-.48,0.081-0.84,0.12l-1.05.12q-0.51.062-1.29,0.18l-0.42.42a7.24,7.24,0,0,1,1.02.15q0.779,0.151,1.02.21c0.039,0.041.11,0.111,0.21,0.21a0.457,0.457,0,0,1,.15.21,1.31,1.31,0,0,1-.51.48,4.16,4.16,0,0,1-.69.3,4.285,4.285,0,0,1,1.92.9,4.289,4.289,0,0,1,.9,1.92l0.06,3.18a29.6,29.6,0,0,1-.24,3.78,29.009,29.009,0,0,0-.24,3.72,3.717,3.717,0,0,0,1.32,2.927,4.586,4.586,0,0,0,3.12,1.153,2.683,2.683,0,0,0,1.08-.236q0.54-.237,1.08-0.5a7.418,7.418,0,0,1,1.11-.444,1.777,1.777,0,0,1,1.11,0l1.62-3.2h0.18a0.239,0.239,0,0,0,.15-0.03,0.235,0.235,0,0,1,.15-0.03,1.64,1.64,0,0,1,.84.18,0.773,0.773,0,0,1,.3.72,0.463,0.463,0,0,1-.06.36q-0.18.18-.69,0.72t-1.11,1.11q-0.6.57-1.14,1.02a1.725,1.725,0,0,1-.72.45,0.643,0.643,0,0,0,.3.6,1.155,1.155,0,0,0,.6.18,1.8,1.8,0,0,0,.96-0.36,7.924,7.924,0,0,0,1.02-.81q0.48-.45.93-0.93t0.69-.78a32.993,32.993,0,0,0,6.15-10.26,55.221,55.221,0,0,0,2.91-11.58,90.868,90.868,0,0,0,.87-12.15q0.03-6.15.03-11.97l0.42-.42h8.82l0.36,0.42a1.873,1.873,0,0,1,.06.69v0.93a9.177,9.177,0,0,0,.06,1.02,4.689,4.689,0,0,1,0,1.05,1.587,1.587,0,0,1-.33.84,1.141,1.141,0,0,1-.93.33,4.641,4.641,0,0,1-1.77-.33q-0.81-.329-1.62-0.75a17.686,17.686,0,0,0-1.65-.75,4.9,4.9,0,0,0-1.8-.33v25.26a0.7,0.7,0,0,0,.39.75,5.045,5.045,0,0,0,.84.24,3.763,3.763,0,0,1,.84.27,0.769,0.769,0,0,1,.39.78,0.6,0.6,0,0,1-.42.66,3.012,3.012,0,0,1-.84.12,2.469,2.469,0,0,1-.6-0.06,1.642,1.642,0,0,1-.6-0.36q-1.32,2.461-2.34,4.29t-2.46,4.11a10.106,10.106,0,0,1-.96,1.23q-0.661.752-1.38,1.59a15.9,15.9,0,0,0-1.23,1.62,1.979,1.979,0,0,0-.45,1.2,0.941,0.941,0,0,0,.48.66,1.6,1.6,0,0,0,.72.18,5.3,5.3,0,0,0,1.86-.63q1.319-.63,2.7-1.44t2.52-1.53q1.139-.72,1.32-0.84l0.84-.06a4.328,4.328,0,0,1,3.72,1.71,7.511,7.511,0,0,1,1.44,3.93,10.222,10.222,0,0,1,1.02-.81,10.463,10.463,0,0,0,1.02-.81h0.18a1.207,1.207,0,0,1,1.02.78,2.874,2.874,0,0,1,.42,1.245,0.708,0.708,0,0,1-.42.637,4.226,4.226,0,0,1-.99.376,5.922,5.922,0,0,1-1.14.173q-0.571.029-.81,0.029,0,1.2.9,1.2a9.473,9.473,0,0,0,5.67-1.47,8.587,8.587,0,0,0,2.94-3.75,16.8,16.8,0,0,0,1.14-5.13q0.21-2.849.27-5.67h0.18a1.321,1.321,0,0,1,1.2.72,6.313,6.313,0,0,1,.66,1.83q0.239,1.111.39,2.4t0.33,2.43v0.36a4.13,4.13,0,0,0,1.2,1.95,4.886,4.886,0,0,0,1.8,1.05q1.86,0.24,2.43-.75a4.427,4.427,0,0,0,.57-2.25,2.181,2.181,0,0,0-.87-1.89,9.256,9.256,0,0,0-2.13-1.11,2.336,2.336,0,0,1-.99-0.33,2.571,2.571,0,0,1-.93-0.75,10.994,10.994,0,0,0-.84-1.5,1.18,1.18,0,0,1-.24-0.36,1.435,1.435,0,0,1,.36-0.96,2.968,2.968,0,0,1,.87-0.69,5.1,5.1,0,0,1,1.08-.42,4.018,4.018,0,0,1,.99-0.15,3.145,3.145,0,0,1,2.01.75,8.118,8.118,0,0,1,1.65,1.83,9.123,9.123,0,0,1,1.11,2.31,7.219,7.219,0,0,1,.39,2.13,4.812,4.812,0,0,1-.21,1.41,4.822,4.822,0,0,0-.21,1.41v0.18a2.5,2.5,0,0,0,.81-1.71q0.03-.928.03-1.89a5.987,5.987,0,0,0-.9-3.24,10.8,10.8,0,0,0-2.22-2.55,16.533,16.533,0,0,0-2.91-1.95q-1.59-.838-2.91-1.44t-2.22-1.05a1.39,1.39,0,0,1-.9-0.75q0-.36,1.26-0.57a15.894,15.894,0,0,0,2.76-.75,9.421,9.421,0,0,0,2.76-1.56,3.56,3.56,0,0,0,1.26-2.94,3.792,3.792,0,0,0-.09-0.63,6.233,6.233,0,0,0-.24-0.87,3.78,3.78,0,0,0-.36-0.75,0.6,0.6,0,0,0-.51-0.33h-4.26Zm-40.14-26.64q0.059,0.18.21,0.81a4.841,4.841,0,0,1,.15.81,8.771,8.771,0,0,0,.36,1.23,10.468,10.468,0,0,1,.45,1.92,7.021,7.021,0,0,1,0,2.04,2.175,2.175,0,0,1-.93,1.53,1.681,1.681,0,0,1-.93-1.02q-0.571-1.02-1.14-2.31t-0.99-2.49a6.751,6.751,0,0,1-.42-1.5v-0.18l2.4-1.2q-0.661-.239-1.47-0.54a4.419,4.419,0,0,0-1.53-.3,1.373,1.373,0,0,0-.72.18,0.7,0.7,0,0,0-.3.66,0.829,0.829,0,0,0,.06.36,16.933,16.933,0,0,1,1.11,3.09,26.75,26.75,0,0,0,1.29,3.69,11.606,11.606,0,0,0,1.95,3.12,3.86,3.86,0,0,0,3.03,1.32,4.622,4.622,0,0,0,3.21-1.29,4.047,4.047,0,0,0,1.41-3.09,5.126,5.126,0,0,0-.63-2.4,9.012,9.012,0,0,0-1.62-2.19,8.8,8.8,0,0,0-2.22-1.62,5.2,5.2,0,0,0-2.37-.63h-0.36Zm49.86,4.83a0.31,0.31,0,1,0-.6,0c0,0.261.1,0.39,0.3,0.39S109.039,78.416,109.039,78.155Zm-31.86.81h-0.84v-0.84h0.84v0.84Zm19.2-.24a0.466,0.466,0,0,1-.42-0.18q-0.121-.18.39-0.18t0.39,0.18A0.329,0.329,0,0,1,96.379,78.725Zm-23.46,5.76a6.31,6.31,0,0,1-.12,1.29,4.6,4.6,0,0,1-.39,1.11,6.9,6.9,0,0,1-.87,1.26,1.42,1.42,0,0,1-.18.3,0.686,0.686,0,0,1-.18.12,1.726,1.726,0,0,1-.42-0.21,1.785,1.785,0,0,0-.42-0.21,4.8,4.8,0,0,0-.93-0.09c-0.5-.02-0.81-0.03-0.93-0.03a4.655,4.655,0,0,1,.36-1.65,6.857,6.857,0,0,1,.99-1.74,7.082,7.082,0,0,1,1.41-1.38,2.793,2.793,0,0,1,1.68-.57v1.8Zm13.44,9.66-0.42.42a7.849,7.849,0,0,0-1.56-.09,4.927,4.927,0,0,0-1.56.3,2.847,2.847,0,0,0-1.2.84,2.3,2.3,0,0,0-.48,1.53,2.654,2.654,0,0,0,.12.72,4.764,4.764,0,0,0,.33.84,2.709,2.709,0,0,0,.51.72,0.915,0.915,0,0,0,.66.3h3.6v1.74a1.242,1.242,0,0,1-.6.51,2.787,2.787,0,0,1-.78.09,2.142,2.142,0,0,0-.6.06q-0.06.6-.24,1.56a12.58,12.58,0,0,1-.51,1.89,4.91,4.91,0,0,1-.9,1.59,1.789,1.789,0,0,1-1.41.66,4.283,4.283,0,0,1,.18-1.29q0.18-.568.36-1.08t0.36-1.02a3.3,3.3,0,0,0,.18-1.11,0.853,0.853,0,0,0-.06-0.36,35.4,35.4,0,0,1-1.89-3.72,10.032,10.032,0,0,1-.93-4.08,3.47,3.47,0,0,1,.45-1.71q0.45-.81.99-1.62t0.99-1.62a3.36,3.36,0,0,0,.45-1.65,2.277,2.277,0,0,0-.45-1.5,2.275,2.275,0,0,1-.45-1.5l0.06-1.02q0.54,0.18,1.35.42a9.8,9.8,0,0,1,1.59.63,5.186,5.186,0,0,1,1.35.96,1.848,1.848,0,0,1,.57,1.35,0.823,0.823,0,0,1-.39.87,2.316,2.316,0,0,1-.84.15,3.729,3.729,0,0,0-.84.09,0.646,0.646,0,0,0-.39.75,0.6,0.6,0,0,0,.36.69,2.6,2.6,0,0,0,.81.06,5.97,5.97,0,0,1,.84,0,0.392,0.392,0,0,1,.39.45v3.18Zm21.6-6.42-0.78-.78h-0.42l0.78,1.2Zm-20.82,6.42v-5.22h9.24a0.652,0.652,0,0,1,.21.33,1.377,1.377,0,0,1,.15.51v0.72a5.81,5.81,0,0,0,.03.6c0.02,0.2.03,0.36,0.03,0.48l-0.06,1.8a1.172,1.172,0,0,1-.15.48,0.589,0.589,0,0,1-.21.3h-9.24Zm-16.38-2.82a1.274,1.274,0,0,0-.03.9,1.892,1.892,0,0,0,.45.72,1.093,1.093,0,0,0,.72.33,1.16,1.16,0,0,0,.84-0.33,2.1,2.1,0,0,1-1.14.96,4.161,4.161,0,0,1-1.5.3,0.741,0.741,0,0,1-.81-0.45,3.314,3.314,0,0,1-.15-1.05,1.607,1.607,0,0,1,.3-0.96,1.034,1.034,0,0,1,.9-0.42h0.42Zm4.02,1.2v-0.78a0.843,0.843,0,0,1,.36-0.06,1.393,1.393,0,0,1,1.2.84h-1.56Zm16.8,10.2v0.84a2.482,2.482,0,0,0-1.56.51,2.3,2.3,0,0,1-1.44.51,0.341,0.341,0,0,1-.24-0.06c-0.12-.079-0.39-0.27-0.81-0.57a3.636,3.636,0,0,1-.75-0.63l0.78-.36-0.42-.84v-4.8h9.24a0.652,0.652,0,0,1,.21.33,1.377,1.377,0,0,1,.15.51v0.72a5.81,5.81,0,0,0,.03.6c0.02,0.2.03,0.36,0.03,0.48l-0.06,1.8a1.843,1.843,0,0,1-.15.57,0.773,0.773,0,0,1-.21.39h-4.8Zm-4.44,8.82a6.4,6.4,0,0,1-2.82-.78,6.553,6.553,0,0,1-2.34-1.8,2.176,2.176,0,0,1,.84-0.93,5.812,5.812,0,0,1,1.32-.63,10.349,10.349,0,0,1,1.38-.36,6.387,6.387,0,0,1,1.08-.12h0.18c0.039,0.041.11,0.111,0.21,0.21a0.457,0.457,0,0,1,.15.21v4.2Zm-35.4-1.56q-0.24,0-.18.18a0.213,0.213,0,0,0,.42,0C51.979,110.045,51.9,109.985,51.739,109.985Zm46.86,1.26a3.971,3.971,0,0,1-1.14.18,1.043,1.043,0,0,1,.27-0.72,3.392,3.392,0,0,1,.63-0.54c0-.039.06-0.06,0.18-0.06a0.353,0.353,0,0,1,.24.06,1.843,1.843,0,0,1,.39.15,1.951,1.951,0,0,1,.39.21A1.723,1.723,0,0,1,98.6,111.245Zm-2.64,6.12-0.42.78a0.632,0.632,0,0,1-.33.21c-0.22.1-.48,0.21-0.78,0.33s-0.61.24-.93,0.36-0.561.221-.72,0.3l-0.42.06a1.3,1.3,0,0,1-.42-0.06q0.419-.478,1.02-1.26a2.492,2.492,0,0,0,.6-1.5,13.625,13.625,0,0,0-.09-1.56,5.035,5.035,0,0,0-.36-1.41,2.744,2.744,0,0,0-.78-1.05,2.063,2.063,0,0,0-1.35-.42,1.876,1.876,0,0,0-1.29.36,3.778,3.778,0,0,0-.69.87,8.145,8.145,0,0,1-.66.96,2.023,2.023,0,0,1-1.2.63v4.38h-3.6a0.631,0.631,0,0,1-.18-0.12,0.276,0.276,0,0,1-.18-0.3c-0.04,0-.06-0.06-0.06-0.18a0.246,0.246,0,0,1,.06-0.18,17.2,17.2,0,0,0,1.62-1.98q0.959-1.318,2.07-2.67a19.948,19.948,0,0,1,2.28-2.37,3.557,3.557,0,0,1,2.31-1.02,10.5,10.5,0,0,1,1.17.09,10.108,10.108,0,0,1,1.5.3,3.738,3.738,0,0,1,1.29.63,1.257,1.257,0,0,1,.54,1.02v4.8Zm-11.22-3.24h-0.36v-0.78h0.36v0.78Zm-4.8,5.64a2.111,2.111,0,0,0-.39-0.42,1.946,1.946,0,0,1-.39-0.42,1.29,1.29,0,0,1,1.11-.87,8.791,8.791,0,0,1,1.41-.15,2.532,2.532,0,0,1-.33,1.29,1.3,1.3,0,0,1-1.23.57h-0.18Zm-12.18.06a0.829,0.829,0,0,1-.9-0.57,4.054,4.054,0,0,1-.18-1.23,1.188,1.188,0,0,1,1.05.63c0.26,0.42.47,0.791,0.63,1.11a2.072,2.072,0,0,1-.6.06h0Zm9.21-.72a0.218,0.218,0,0,1-.21-0.18q-0.06-.18.18-0.18c0.159,0,.24.06,0.24,0.18A0.22,0.22,0,0,1,76.969,119.105Zm-12.75,2.22q0,0.475-.03,1.275a7.463,7.463,0,0,1-.24,1.6,3.946,3.946,0,0,1-.66,1.392,1.464,1.464,0,0,1-1.23.592q0-.178.06-0.948a12.7,12.7,0,0,1,.24-1.63,10.434,10.434,0,0,1,.45-1.57,0.873,0.873,0,0,1,.75-0.712h0.66Zm-7.86,2.64q0-.24.18-0.24a0.212,0.212,0,0,1,0,.42Q56.359,124.205,56.359,123.965Zm0.48,1.98a0.305,0.305,0,1,1,.3.36A0.294,0.294,0,0,1,56.839,125.945Zm41.34-48.36q0.239,0,.18.18a0.213,0.213,0,0,1-.42,0C97.939,77.645,98.019,77.585,98.179,77.585Zm63.36,25.74a2.529,2.529,0,0,1-.57.24,2.924,2.924,0,0,1-.63.18h-0.18a3.932,3.932,0,0,1-1.14-.33q-0.84-.329-1.8-0.78t-1.86-.93q-0.9-.479-1.38-0.78a1.694,1.694,0,0,1,1.47-.84q1.29-.239,2.79-0.45a18.188,18.188,0,0,0,2.7-.57,1.383,1.383,0,0,0,1.2-1.32V79.325q1.92-.36,1.92-1.8a1.978,1.978,0,0,0-.12-0.6q-0.6-.54-1.59-1.47t-2.1-1.86a17.083,17.083,0,0,0-2.22-1.59,3.9,3.9,0,0,0-1.89-.66h-0.18a7.835,7.835,0,0,0-.72.66,2.7,2.7,0,0,0-.48.54,2.448,2.448,0,0,0,.48,2.16,2.306,2.306,0,0,0,1.92,1.08,2.2,2.2,0,0,0,1.29-.45q0.63-.45,1.11-0.81a0.54,0.54,0,0,1,.36.36,1.978,1.978,0,0,1,.06.48,1.6,1.6,0,0,1-.93,1.62,6.729,6.729,0,0,1-2.1.54q-1.17.121-2.28,0.15a2.25,2.25,0,0,0-1.53.45q-0.54-.36-1.23-0.87a6.191,6.191,0,0,1-1.17-1.11l0.84-1.02h-24q-1.74-.959-3.78-1.98a9.057,9.057,0,0,0-4.08-1.02q-0.18,0-.57.03a0.362,0.362,0,0,0-.39.39v11.58h4.74a4.28,4.28,0,0,0,.15,1.29,8.015,8.015,0,0,0,.3.78q0.15,0.33.3,0.69a2.543,2.543,0,0,1,.15.96,6.738,6.738,0,0,1-.12,1.32q-0.12.6-.3,1.38a0.346,0.346,0,0,1-.24.06,1.542,1.542,0,0,1-.9-0.93q-0.54-.93-1.17-1.92a7.8,7.8,0,0,0-1.29-1.59,0.75,0.75,0,0,0-1.2,0l-0.42.36v12.12a4.106,4.106,0,0,0,1.56-.27,3.156,3.156,0,0,0,1.26-1.05,6.271,6.271,0,0,1,.48.57,1.169,1.169,0,0,1,.3.63,1.112,1.112,0,0,1-.48.57,12.429,12.429,0,0,1-1.08.78q-0.6.391-1.08,0.72a2.6,2.6,0,0,1-.54.33l1.8,0.06a11.972,11.972,0,0,0,1.98-.15,9.919,9.919,0,0,0,1.74-.45,13.765,13.765,0,0,0,1.71-.75q0.87-.45,1.95-1.11a0.348,0.348,0,0,1,.06.24,3.442,3.442,0,0,1-1.05,2.1,20.452,20.452,0,0,1-2.67,2.49q-1.62,1.291-3.6,2.58t-3.84,2.37q-1.86,1.08-3.42,1.89t-2.28,1.17a0.842,0.842,0,0,0-.06.36q0,0.781.54,0.81c0.36,0.021.74,0.03,1.14,0.03a10.111,10.111,0,0,0,3.33-.57q1.65-.569,3.27-1.26t3.21-1.26a9.313,9.313,0,0,1,3.15-.57,0.353,0.353,0,0,1,.24.06,1.047,1.047,0,0,1,.6.78c0.04,0.321.08,0.63,0.12,0.93a1.519,1.519,0,0,0,.33.78,1.491,1.491,0,0,0,1.161.33,0.829,0.829,0,0,0,.684-0.39,1.351,1.351,0,0,0,.285-0.81,1.121,1.121,0,0,0-.24-0.72,1.113,1.113,0,0,1-.24-0.72v-0.18a11.065,11.065,0,0,1,1-1.5,2.9,2.9,0,0,0,.684-1.74,4.348,4.348,0,0,0-.3-1.68,4.7,4.7,0,0,1-.3-1.8,1.862,1.862,0,0,1,1.1.42,1.68,1.68,0,0,1,.682,1.08,4.251,4.251,0,0,0,1.573,2.88q0.5,0.422,1.126.9a6.274,6.274,0,0,1,1.275,1.44,1.6,1.6,0,0,1,.33-1.02q0.33-.418.69-0.81t0.69-.81a1.509,1.509,0,0,0,.33-0.96,0.887,0.887,0,0,0-.72-0.96,9.448,9.448,0,0,0-1.32-.24v-0.84q0.723-.838,1.235-1.41l1.054-1.17q0.541-.6.9-1.02l0.962-.96a4.008,4.008,0,0,1,.663-0.6h3.614a2.176,2.176,0,0,0,1.084,1.44,5.6,5.6,0,0,0,1.566.18q0.662,0,1.294-.03a2.622,2.622,0,0,0,1.235-.39c-0.04-.08-0.111-0.219-0.211-0.42a1.163,1.163,0,0,1-.15-0.42v-0.06a0.175,0.175,0,0,1,.06-0.12,2.257,2.257,0,0,0,.632-0.12,5.61,5.61,0,0,1,.783-0.18,1.91,1.91,0,0,1,.753.03,0.811,0.811,0,0,1,.542.45,0.348,0.348,0,0,1,.06.24,0.965,0.965,0,0,1-.63,1.08,5.129,5.129,0,0,1-1.41.18v4.92l1.62,1.62a2.984,2.984,0,0,0-.51.09,2.984,2.984,0,0,1-.51.09,1.106,1.106,0,0,1-1.2-.78,10.257,10.257,0,0,1-.36-1.71,13.045,13.045,0,0,0-.33-1.71,1.018,1.018,0,0,0-1.11-.78h-0.12a1.671,1.671,0,0,1-.27,1.02,1.638,1.638,0,0,1-.72.54,4.774,4.774,0,0,1-.99.27c-0.36.06-.72,0.111-1.08,0.15v25.32q0.18,0,.93-0.03t1.8-.09q1.05-.06,2.22-0.24a19.491,19.491,0,0,0,2.16-.45,5.557,5.557,0,0,0,1.62-.69,1.213,1.213,0,0,0,.63-1.02v-16.38l0.6-.42,7.2,3.6,0.66,0.06a0.954,0.954,0,0,0,.75-0.3,2.48,2.48,0,0,0,.45-0.75,4.826,4.826,0,0,0,.27-0.96,3.2,3.2,0,0,1,.27-0.87,5.651,5.651,0,0,1,1.02-1.38q0.78-.838,1.62-1.65t1.53-1.5a1.914,1.914,0,0,0,.69-1.05,1.163,1.163,0,0,0-.18-0.6,0.591,0.591,0,0,0-.54-0.3,2.108,2.108,0,0,1-.48,1.29,7.283,7.283,0,0,1-1.17,1.2q-0.69.572-1.38,1.08a10.194,10.194,0,0,0-1.11.93,2.069,2.069,0,0,1-.6.06c-0.16,0-.35-0.009-0.57-0.03a0.439,0.439,0,0,1-.39-0.45,1.922,1.922,0,0,0,.72-0.93,4.093,4.093,0,0,0,.12-1.05,3.6,3.6,0,0,0-.24-1.44,5.651,5.651,0,0,0-1.02-1.38h-0.42Zm-40.38-28.8h-0.48a0.839,0.839,0,0,1,.06-0.36l0.42-.84v1.2Zm22.14,9.6a12.83,12.83,0,0,1-1.62,1.14,16.77,16.77,0,0,1-1.77.93,3.728,3.728,0,0,1-1.17.39,0.831,0.831,0,0,1-.36-0.06,4.04,4.04,0,0,0,1.47-2.76q0.15-1.62.15-3.18a4.744,4.744,0,0,0-.45-2.19,4.312,4.312,0,0,1-.45-2.01,1.338,1.338,0,0,1,1.38.69,9,9,0,0,1,.51,1.65,8.2,8.2,0,0,0,.69,1.92,3.286,3.286,0,0,0,1.86,1.5,0.63,0.63,0,0,1,.45.42,4.978,4.978,0,0,1,.03.6A1.614,1.614,0,0,1,143.3,84.125Zm-21.24-7.2a2.256,2.256,0,0,1-.18.9,0.7,0.7,0,0,1-.72.42v-1.32h0.9Zm3.12,2.4a0.44,0.44,0,0,1-.21-0.15l-0.21-.21a2.626,2.626,0,0,1-.48-1.26,5.7,5.7,0,0,1,1.62.27,1.95,1.95,0,0,1,1.26.99Zm9.96,4.748-0.78.832h-6v-6.78h6.78v5.948Zm16.8,1.013h-4.38l2.4,1.052v0.928a8.833,8.833,0,0,1-2.31-.21,2.24,2.24,0,0,1-1.02-.57,9.6,9.6,0,0,1-.66-0.81,3.68,3.68,0,0,0-1.23-.93v-6.42h7.2v6.96Zm-17.1,1.86c0-.279.1-0.42,0.3-0.42s0.3,0.141.3,0.42-0.1.42-.3,0.42S134.839,87.226,134.839,86.945Zm0.3,8.04h-6.78v-7.26h6.78v7.26Zm17.04,0h-7.44v-7.26h6.84a1.619,1.619,0,0,1,.57.333q0.45,0.333.96,0.757a7.539,7.539,0,0,1,.9.876,1.3,1.3,0,0,1,.39.7,1.926,1.926,0,0,1-.72,1.483,2.559,2.559,0,0,1-1.5.7v2.42Zm-28.2.78a6.847,6.847,0,0,0,.81-1.74,11.362,11.362,0,0,0,.39-1.86,0.247,0.247,0,0,1,.18-0.06,0.863,0.863,0,0,1,.75.39,1.407,1.407,0,0,1,.27.81,2.591,2.591,0,0,1-.69,1.62,1.973,1.973,0,0,1-1.53.84h-0.18ZM157.159,93a0.446,0.446,0,0,1,.15-0.21,1.126,1.126,0,0,1,.27-0.21l1.32-.12a11.708,11.708,0,0,1-.12,1.59,1.855,1.855,0,0,1-.84,1.35Zm-23.22,2.8a0.335,0.335,0,0,1,.3-0.195,3.5,3.5,0,0,1,.66-0.112c0.24-.019.49-0.037,0.75-0.055s0.45-.028.57-0.028h0.54a0.438,0.438,0,0,1,.42.36q-0.54.06-1.53,0.24a9.757,9.757,0,0,1-1.71.18V95.8Zm23.22,0.33a17.222,17.222,0,0,1-.18,1.86,2.271,2.271,0,0,1-.45,1.11,1.716,1.716,0,0,1-.93.54,7.273,7.273,0,0,1-1.68.15,5.494,5.494,0,0,1-.78-0.06,0.507,0.507,0,0,1-.42-0.6,0.245,0.245,0,0,1,.06-0.18,1.255,1.255,0,0,1,.33-0.36q0.33-.3.45-0.42a7.745,7.745,0,0,1,.66-0.57q0.42-.329.78-0.66t0.96-.81h1.2Zm-32.7,9.63a0.31,0.31,0,1,1,.6,0c0,0.261-.1.39-0.3,0.39S124.459,106.016,124.459,105.755Zm0.9,0.57a0.159,0.159,0,0,1-.18-0.18q-0.06-.18.18-0.18t0.18,0.18A0.159,0.159,0,0,1,125.359,106.325Zm35.82,3.42a0.533,0.533,0,1,1-.42-0.42Zm-32.432,11.22q-0.231-1.08-.405-1.8c-0.115-.48-0.21-0.949-0.287-1.41a11.839,11.839,0,0,1-.146-1.53q-0.03-.838.03-2.1l-0.78-.78a4.354,4.354,0,0,0-.45.96,8.61,8.61,0,0,0-.33,1.23c-0.08.42-.16,0.8-0.24,1.14s-0.14.57-.18,0.69a12.891,12.891,0,0,1-3.87,5.55,24.494,24.494,0,0,1-5.73,3.63q-0.3.12-.81,0.3t-1.05.42a8.221,8.221,0,0,0-1.02.54,2.065,2.065,0,0,0-.72.72,1.112,1.112,0,0,0,.54.75,2.783,2.783,0,0,0,.78.09,24.886,24.886,0,0,0,8.19-1.38,23.163,23.163,0,0,0,7.094-3.9,19.84,19.84,0,0,0,5.009-6.06,16.3,16.3,0,0,0,1.907-7.86,4.142,4.142,0,0,1-2.01.93q-1.17.212-2.25,0.48a4.308,4.308,0,0,0-1.83.93,2.834,2.834,0,0,0-.75,2.22,3.306,3.306,0,0,0,.78,2.58,3.545,3.545,0,0,0,2.34.66,2.056,2.056,0,0,1-.33,1.08,3.8,3.8,0,0,1-.84.96,4.87,4.87,0,0,1-1.11.69,2.876,2.876,0,0,1-1.186.27h-0.346Zm18.932-8.82c0-.279.1-0.42,0.3-0.42s0.3,0.141.3,0.42-0.1.42-.3,0.42S147.679,112.426,147.679,112.145Zm66.3-36a13.124,13.124,0,0,1-3.57-.48q-1.71-.48-3.36-1.02t-3.3-1.02a12.086,12.086,0,0,0-3.39-.48v8.7a1.179,1.179,0,0,0,.9-0.27,1.5,1.5,0,0,1,1.08-.27l1.2,0.06a4.625,4.625,0,0,0,.54.99,1.145,1.145,0,0,0,.9.63,1.078,1.078,0,0,0,.87-0.63,5.2,5.2,0,0,0,.51-0.99,1.664,1.664,0,0,1,1.47.27,1.63,1.63,0,0,1,.51,1.29v7.2a1.516,1.516,0,0,1-.33.78,0.892,0.892,0,0,1-.69.48,0.243,0.243,0,0,1-.18-0.06,3.562,3.562,0,0,0-.15-0.51q-0.15-.45-0.21-0.69-0.06,0-.06-0.18a1.786,1.786,0,0,1,.24-0.9,1.781,1.781,0,0,0,.24-0.9c0-.159-0.01-0.45-0.03-0.87s-0.06-.86-0.12-1.32a8.965,8.965,0,0,0-.24-1.23,0.718,0.718,0,0,0-.45-0.6l-3.18-.36a3.381,3.381,0,0,1-.78.63,1.909,1.909,0,0,1-.84.15,2.509,2.509,0,0,1-.6-0.06,1.656,1.656,0,0,1-.6-0.36v6.3a1.25,1.25,0,0,1,1.14.57,5.911,5.911,0,0,1,.6,1.29,6.957,6.957,0,0,0,.57,1.29,1.123,1.123,0,0,0,1.05.57h0.24l0.42-.21a1.786,1.786,0,0,0,.36-0.21,9.374,9.374,0,0,1,.81.75q0.57,0.571,1.2,1.26t1.11,1.26a1.855,1.855,0,0,1,.48.75v0.78q-0.6-.66-1.08-1.23a9.649,9.649,0,0,0-.99-1.02,4.623,4.623,0,0,0-1.08-.72,3.283,3.283,0,0,0-1.41-.27l-1.02.06a2.618,2.618,0,0,0-.63.21,3.642,3.642,0,0,1-.57.21,4.285,4.285,0,0,1-1.2-1.2q-0.24,5.22-.9,9.75a46.181,46.181,0,0,1-2.1,8.64,35.94,35.94,0,0,1-3.9,7.86,40.985,40.985,0,0,1-6.3,7.35v0.18a0.623,0.623,0,0,0,.78.6,5.321,5.321,0,0,0,2.1-.87q1.5-.87,3.09-1.95t2.82-2.07a3.357,3.357,0,0,0,1.23-1.29,5.618,5.618,0,0,0-.06-0.9,2.979,2.979,0,0,0-.36-0.9h0.78l0.84,1.98h0.36a2.623,2.623,0,0,0,.54-0.45q0.48-.45,1.11-1.08t1.29-1.32q0.66-.689,1.08-1.17,0.3-.36.84-1.08a5.921,5.921,0,0,0,.78-1.32,6.163,6.163,0,0,1-1.23-.39,6.032,6.032,0,0,1-1.17-.66,3.6,3.6,0,0,1-.9-0.93,2.114,2.114,0,0,1-.36-1.2,1.641,1.641,0,0,1,.18-0.84,4.6,4.6,0,0,1,.66-0.78,5.744,5.744,0,0,1,1.98,1.65,10.461,10.461,0,0,1,1.2,2.37,2.451,2.451,0,0,0,.93-1.05,11.5,11.5,0,0,0,.81-1.86q0.36-1.049.72-2.25t0.69-2.19a14.6,14.6,0,0,1,.63-1.62,0.866,0.866,0,0,1,.66-0.63h7.98a1.021,1.021,0,0,1,.42-0.42h0.36q0.06,0.121.36,0.6c0.2,0.321.42,0.66,0.66,1.02s0.45,0.711.63,1.05a1.9,1.9,0,0,1,.27.75,2.576,2.576,0,0,1-1.44-.39,2.182,2.182,0,0,1-.84-1.41v11.22h0.36v0.36a0.347,0.347,0,0,1-.33.27,3.848,3.848,0,0,1-.75.12c-0.28.021-.56,0.03-0.84,0.03h-1.68c-0.12,0-.48-0.019-1.08-0.06s-1.24-.079-1.92-0.12-1.32-.079-1.92-0.12a6.4,6.4,0,0,1-1.08-.12h-0.36a2.128,2.128,0,0,0-.6.3,2.264,2.264,0,0,0-.42.27,0.4,0.4,0,0,0-.18.27,0.845,0.845,0,0,0,.39.78,6.094,6.094,0,0,0,.81.42c0.12,0.041.37,0.12,0.75,0.24s0.79,0.24,1.23.36,0.85,0.24,1.23.36,0.63,0.2.75,0.24q-0.36-1.678,1.02-1.68a1.212,1.212,0,0,1,.84.27,1.447,1.447,0,0,1,.42.66,3.773,3.773,0,0,1,.15.87q0.03,0.481.03,0.9a1.15,1.15,0,0,1-.24.9,0.779,0.779,0,0,0-.24.66,5.761,5.761,0,0,0,.45,2.1q0.45,1.14.81,2.1l1.56,0.06a13.574,13.574,0,0,0,3.3-.42,10.379,10.379,0,0,0,3.09-1.32,7.613,7.613,0,0,0,2.31-2.28,5.8,5.8,0,0,0,.9-3.24l-0.3-6.78-0.48.24a16.486,16.486,0,0,1-.45,2.16,3.154,3.154,0,0,1-.42.93,0.7,0.7,0,0,1-.48.3,1.441,1.441,0,0,0-.57.21,1.368,1.368,0,0,1-1.17-.3,2.309,2.309,0,0,1-.21-0.66,1.212,1.212,0,0,0-.36-0.66,2.522,2.522,0,0,0-1.56-.3,5.453,5.453,0,0,0-.81.06,1.371,1.371,0,0,0-.75.42l-0.06-.84a2.664,2.664,0,0,1,.12-0.84,0.657,0.657,0,0,1,.72-0.36h0.42a1.365,1.365,0,0,0,.39.18q0.33,0.121.75,0.27t0.78,0.27a1.23,1.23,0,0,0,1.53-.39,4.788,4.788,0,0,0,.9-1.08,7.408,7.408,0,0,0,.63-1.26,2.965,2.965,0,0,0,0-2.34,3.13,3.13,0,0,1-.24-1.23,0.77,0.77,0,0,1,.84-0.9v-4.2a2.624,2.624,0,0,1-1.98-.9,2.909,2.909,0,0,1-.84-2.04v-0.36a20.393,20.393,0,0,0,2.07-4.92,15.527,15.527,0,0,0,.33-5.46,9.335,9.335,0,0,1,.63-2.55q0.51-1.29.9-2.58a9.652,9.652,0,0,0,.42-2.58,4.317,4.317,0,0,0-.75-2.49,4.408,4.408,0,0,0-.93-0.9q-0.75-.6-1.62-1.2t-1.56-1.14a1.57,1.57,0,0,1-.69-0.78q0-.18.03-0.6a0.376,0.376,0,0,1,.39-0.42,6.213,6.213,0,0,1,3.45.99,25.782,25.782,0,0,1,2.97,2.25,0.712,0.712,0,0,0,.36-0.42,0.243,0.243,0,0,0,.06-0.18,2.441,2.441,0,0,0-.93-1.5,19.163,19.163,0,0,0-2.19-1.8q-1.26-.9-2.64-1.71t-2.28-1.23a8.163,8.163,0,0,1-.69.75l-1.08,1.08-1.08,1.08a8.239,8.239,0,0,1-.75.69,0.826,0.826,0,0,1-.39.27,1.745,1.745,0,0,1-.39.15h-2.4Zm-23.22-2.4q-1.02,1.14-1.62,1.86a5.928,5.928,0,0,1-1.17,1.11,3.515,3.515,0,0,1-1.29.54,10.175,10.175,0,0,1-1.98.15,8.681,8.681,0,0,1-2.82-.45q-1.32-.45-2.61-1.02t-2.58-1.02a8.229,8.229,0,0,0-2.73-.45v19.2a0.4,0.4,0,0,0,.33.36q0.33,0.121.69,0.27a3.428,3.428,0,0,1,.69.39,0.773,0.773,0,0,1,.33.66,0.863,0.863,0,0,1-.27.63,5.875,5.875,0,0,1-.63.54,4.741,4.741,0,0,0-.66.6,1.39,1.39,0,0,0-.36.75l-0.12,11.1a0.72,0.72,0,0,1,.42.36v0.42a2.064,2.064,0,0,1-.42.42v7.56q0,0.482.63,0.45c0.42-.019.65-0.03,0.69-0.03a15.786,15.786,0,0,0,1.62-.15,18.7,18.7,0,0,0,2.46-.48,12.924,12.924,0,0,0,2.22-.78,1.307,1.307,0,0,0,.96-0.99v-6h4.8v4.8h1.02v-1.62a9.562,9.562,0,0,0,.78.84,9.7,9.7,0,0,0,.84.78h0.18a8.77,8.77,0,0,0,1.59-.21,11.042,11.042,0,0,0,2.07-.63,7.141,7.141,0,0,0,1.77-1.02,1.7,1.7,0,0,0,.75-1.32v-12a1.024,1.024,0,0,1-.81-0.51,5.259,5.259,0,0,1-.45-0.96,5.718,5.718,0,0,0-.42-0.93,0.78,0.78,0,0,0-.72-0.42h-3.12a1.319,1.319,0,0,1,.42-1.14,3.6,3.6,0,0,1,.96-0.48,4.256,4.256,0,0,0,.96-0.45,1.086,1.086,0,0,0,.42-0.99,1.6,1.6,0,0,0-.36-1.08,2.588,2.588,0,0,0-.87-0.66,4,4,0,0,0-1.11-.33,7.351,7.351,0,0,0-1.08-.09q-0.18,0-.69.03c-0.34.021-.51,0.15-0.51,0.39v5.46a1.153,1.153,0,0,0-.57.12q-0.21.121-.45-0.36v-1.44a4.446,4.446,0,0,1,.21-1.41,4.442,4.442,0,0,0,.21-1.41v-0.18a6.543,6.543,0,0,0-.39-0.78,6.473,6.473,0,0,1-.39-0.78,1.313,1.313,0,0,1-1.14,1.14,13.067,13.067,0,0,1-1.74.12l-1.14-.06-0.78-.84V80.345h4.38a4.463,4.463,0,0,1,.39-1.86,2.376,2.376,0,0,1,.9-0.93,7.826,7.826,0,0,1,1.35-.6,10.875,10.875,0,0,0,1.74-.81,0.485,0.485,0,0,1,.39.33,3.2,3.2,0,0,1,.03.45,4.155,4.155,0,0,1-.39,1.71q-0.39.87-.9,1.8t-0.96,1.86a6.037,6.037,0,0,0-.57,1.83,0.243,0.243,0,0,1-.18.06c-0.12,0-.18-0.02-0.18-0.06a8.506,8.506,0,0,1-1.2-1.2v6.42a4.346,4.346,0,0,1,.66-0.96,1.224,1.224,0,0,1,.9-0.3,1.271,1.271,0,0,1,.93.39q0.39,0.391.81,0.84a5.9,5.9,0,0,0,.99.84,2.663,2.663,0,0,0,1.53.39h0.18a0.561,0.561,0,0,0,.36-0.42q0.06,0,.06-0.18t-0.06-.18a3.493,3.493,0,0,0-.66-0.78,6.009,6.009,0,0,0-.54-0.39,1.023,1.023,0,0,1-.36-0.36,1.465,1.465,0,0,1-.12-0.69,2.454,2.454,0,0,1,.45-0.72q0.45-.6,1.14-1.44t1.47-1.74q0.78-.9,1.5-1.74t1.26-1.41a7.919,7.919,0,0,0,.66-0.75q-0.48-.6-1.44-1.59t-2.07-1.98a17.149,17.149,0,0,0-2.25-1.71,3.937,3.937,0,0,0-2.04-.72h-0.18Zm24.9,3.99a0.31,0.31,0,1,1,.6,0c0,0.261-.1.39-0.3,0.39S215.659,78,215.659,77.735Zm-6.48,12.03V79.745a0.446,0.446,0,0,1,.15-0.21l0.21-.21a4.811,4.811,0,0,0,.6-0.06q0.42-.059.87-0.12t0.84-.12a4.512,4.512,0,0,1,.51-0.06q0.42,0,1.14.06l1.41,0.12q0.69,0.06,1.23.12t0.6,0.06l0.6,0.42v4.8a3.119,3.119,0,0,1,1.02.81,1.873,1.873,0,0,1,.42,1.23,4.294,4.294,0,0,1-.12.9,4.163,4.163,0,0,1-.39,1.05,3.6,3.6,0,0,1-.63.87,1.221,1.221,0,0,1-.9.36h-7.56Zm16.38-6.42-0.42-.78v-0.42l0.21-.42a1.853,1.853,0,0,1,.21-0.36v1.98Zm-29.22,1.62-0.36-.42a2.756,2.756,0,0,0-1.05.75,1.871,1.871,0,0,0-.21.99,1.368,1.368,0,0,0,.48,1.08,1.673,1.673,0,0,0,1.14.42v-2.82Zm27.3,3.18a2.455,2.455,0,0,1-.51-0.57,1.226,1.226,0,0,1-.27-0.63,1.019,1.019,0,0,1,.81-0.6q0.81-.3,1.17-0.48Zm-44.1-1.62a1.254,1.254,0,0,1,.99.66,2.646,2.646,0,0,1,.27,1.2q0,0.24-.03.54a0.493,0.493,0,0,1-.39.42,4.028,4.028,0,0,1-.69-1.08,3.489,3.489,0,0,1-.15-1.14v-0.6Zm0.54,4.02c0-.279.1-0.42,0.3-0.42s0.3,0.141.3,0.42-0.1.42-.3,0.42S180.079,90.826,180.079,90.545Zm14.46,0.78a0.521,0.521,0,0,0-.51.33,1.525,1.525,0,0,0-.15.63,3.81,3.81,0,0,0,.69-0.09,0.683,0.683,0,0,0,.57-0.45,0.714,0.714,0,0,0-.36-0.42h-0.24Zm22.62,12h-7.98v-9.96l0.78-.84q1.26-.059,2.16-0.15t1.86-.15q0.96-.059,1.56-0.06h0.42a4.412,4.412,0,0,1,.75.42,1.474,1.474,0,0,1,.45.36v10.38Zm-20.82-10.5a1.307,1.307,0,0,0-1.2.84,3.428,3.428,0,0,0-.42,1.5,3.344,3.344,0,0,0,.42,1.44,1.306,1.306,0,0,0,1.2.84v-4.62Zm-9.18,13.74h-4.38V94.925h4.38v11.64Zm20.55-5.22a10.417,10.417,0,0,1-1.71,1.32q-0.96.6-1.92,1.14a3.492,3.492,0,0,0-1.32,1.14,3.844,3.844,0,0,0-.6,1.89q-0.06,1.052-.18,1.98a3.037,3.037,0,0,1-.63,1.56,2.421,2.421,0,0,1-1.95.63,13.983,13.983,0,0,1,.57-3.81,12.754,12.754,0,0,1,1.68-3.66,9.431,9.431,0,0,1,2.82-2.73,7.312,7.312,0,0,1,3.99-1.08A2.2,2.2,0,0,1,207.709,101.345Zm-13.53-.6q0-.239.18-0.18a0.18,0.18,0,1,1,0,.36Q194.179,100.986,194.179,100.745Zm-1.02,7.02a8.151,8.151,0,0,1-2.4-2.04,0.451,0.451,0,0,1,.15-0.21,0.419,0.419,0,0,1,.27-0.15,5.94,5.94,0,0,1,.96-0.12c0.52-.039.86-0.06,1.02-0.06v2.58Zm-14.82,5.16a0.533,0.533,0,1,1,.42.42Zm98.4-36.839-2.22.059a10.174,10.174,0,0,1-3-.441q-1.44-.44-2.82-0.969t-2.76-.969a9.228,9.228,0,0,0-2.82-.441,1.153,1.153,0,0,0-.57.12,0.827,0.827,0,0,0-.21.72v5.16a0.329,0.329,0,0,1-.3.39c-0.2.021-.36,0.03-0.48,0.03h-0.42q-0.24-.239-0.96-0.87t-1.56-1.35q-0.84-.72-1.59-1.35a10.2,10.2,0,0,0-1.05-.81,2.722,2.722,0,0,0-.33-0.27q-0.21-.149-0.39-0.27a3.2,3.2,0,0,0-.48-0.3l-2.82,2.82h-0.18a0.751,0.751,0,0,1-.57-0.33,2.83,2.83,0,0,1-.45-0.81q-0.18-.48-0.3-0.93a3.014,3.014,0,0,1-.12-0.75,1.407,1.407,0,0,1,.27-0.81,0.863,0.863,0,0,1,.75-0.39h0.18a2.321,2.321,0,0,0,.42.24,1.9,1.9,0,0,0,.42.18h0.36a1.672,1.672,0,0,0,.27-0.42,1.435,1.435,0,0,0,.15-0.36,1.4,1.4,0,0,0-.15-0.45,0.84,0.84,0,0,0-.27-0.39q-0.54,0-1.95-.09t-3.03-.24q-1.62-.149-3.03-0.27t-1.95-.18h-0.24a0.826,0.826,0,0,0-.66.48,1.6,1.6,0,0,0-.3.72v7.38h-10.02a0.5,0.5,0,0,0-.21.24q-0.15.24-.21,0.36v0.42q1.32,0.54,2.52.9t2.37,0.6a22.735,22.735,0,0,0,2.43.36q1.26,0.121,2.7.12l0.42,0.436v2.864a0.376,0.376,0,0,1-.42.39c-0.28.021-.48,0.03-0.6,0.03a3.694,3.694,0,0,1-1.56-.33q-0.72-.329-1.44-0.72t-1.47-.72a3.775,3.775,0,0,0-1.53-.33q-0.12,0-.57.03a0.415,0.415,0,0,0-.45.45v3.36a2.6,2.6,0,0,0,1.65-.54,2.508,2.508,0,0,1,1.59-.54,1.224,1.224,0,0,1,.9.3,4.346,4.346,0,0,1,.66.96,0.787,0.787,0,0,1-.81.36q-0.75.06-1.65,0.18a7.431,7.431,0,0,0-1.62.39,1.029,1.029,0,0,0-.72,1.05v19.2l0.42,0.42c0.04,0,.22.011,0.54,0.03s0.58,0.03.78,0.03a8.049,8.049,0,0,0,2.67-.45,7.875,7.875,0,0,1,2.61-.45c0.6,0,.92.141,0.96,0.42a9.092,9.092,0,0,1,.06,1.2v1.2q-0.06.122-.21,0.36a0.493,0.493,0,0,1-.21.24h-9.6q-0.36,0-.39.54t-0.03.72a5.153,5.153,0,0,0,.12.96,0.667,0.667,0,0,0,.72.6h9.18l0.6,0.6v9.18l0.6,0.78v0.24a0.753,0.753,0,0,1-.21.6,1.039,1.039,0,0,0-.21.78v0.69a0.453,0.453,0,0,0,.42.51h1.38q0.78,0,1.8-.09a11.449,11.449,0,0,0,2.01-.36,8.421,8.421,0,0,0,1.86-.75,3.77,3.77,0,0,0,1.35-1.2q0-.6.03-2.13t0.09-3.27q0.06-1.738.15-3.27t0.15-2.13l-0.06-.66a3.568,3.568,0,0,0,1.11-.12,1.087,1.087,0,0,1,.93.36h5.52l-2.34-2.76a1.359,1.359,0,0,1,.42-0.06,1.576,1.576,0,0,1,.84.221l0.72,0.439c0.24,0.147.49,0.295,0.75,0.441a1.746,1.746,0,0,0,.87.219,2.946,2.946,0,0,0,1.65-.492,1.771,1.771,0,0,0,.75-1.6,2.606,2.606,0,0,0-.15-0.575l-0.21-.633a0.464,0.464,0,0,0-.57.09c-0.06.1-.12,0.21-0.18,0.33a1.817,1.817,0,0,1-.21.33,0.507,0.507,0,0,1-.42.15,2.131,2.131,0,0,1-.93-0.3,11.375,11.375,0,0,1-1.14-.692,5.235,5.235,0,0,1-.99-0.871,1.384,1.384,0,0,1-.42-0.843,0.83,0.83,0,0,1,.3-0.541,3.757,3.757,0,0,1,.69-0.542q0.39-.24.75-0.451t0.48-.271V91.691l2.22-1.986q-0.66-.821-1.53-1.791a17.707,17.707,0,0,0-1.86-1.792,11.548,11.548,0,0,0-2.07-1.38,4.679,4.679,0,0,0-2.16-.558,1.727,1.727,0,0,0-1.32.51,1.724,1.724,0,0,1-1.32.51,8.411,8.411,0,0,0-.09-0.911,2.979,2.979,0,0,1-.03-0.922,0.854,0.854,0,0,1,.15-0.376,0.512,0.512,0,0,1,.21-0.25h6.42l-2.82-3v-0.42a0.715,0.715,0,0,1,.42-0.36c0-.039.06-0.06,0.18-0.06a1.905,1.905,0,0,1,.96.33q0.54,0.33,1.08.72t1.02,0.81a5.871,5.871,0,0,0,.78.6v0.36l-0.84.84h3.24a2.961,2.961,0,0,0,.15.6,5.375,5.375,0,0,0,.21.6q0.06,0.06.18-.09a0.339,0.339,0,0,1,.18-0.15,5.5,5.5,0,0,0,.03.69,2.776,2.776,0,0,1,.03.39,1.22,1.22,0,0,1-.09.42q-0.09.24-.33,0.72,0.12,5.82-.15,11.37t-0.27,11.37a11.6,11.6,0,0,1,2.82.36,17.967,17.967,0,0,0,2.82.48,3.317,3.317,0,0,0,.42,1.65,2.929,2.929,0,0,0,1.2,1.17,5.288,5.288,0,0,0,.54-1.59q0.24-1.109.48-2.28a13.4,13.4,0,0,1,.57-2.04,1.052,1.052,0,0,1,.81-0.87h5.76v6a2.645,2.645,0,0,1,1.47,1.41q0.57,1.112,1.08,2.31a13.6,13.6,0,0,0,1.14,2.16,1.948,1.948,0,0,0,1.71.96,1.013,1.013,0,0,0,.42-0.06,10.442,10.442,0,0,0,1.68-1.56,3.024,3.024,0,0,0,.72-2.04,2.452,2.452,0,0,0-1.05-2.01,3.467,3.467,0,0,0-2.13-.81q0.06-.058.39-0.36a1.974,1.974,0,0,0,.39-0.42v-0.18a2.179,2.179,0,0,0-.21-0.93,2.172,2.172,0,0,1-.21-0.93,1.458,1.458,0,0,1,.27-0.9q0.27-.36.57-0.72a7.718,7.718,0,0,0,.57-0.78,1.842,1.842,0,0,0,.27-1.02,2.537,2.537,0,0,0-.51-1.92,2.327,2.327,0,0,0-1.2-.51c-0.46-.06-0.92-0.139-1.38-0.24a1.392,1.392,0,0,1-.99-1.05q0.24-.18.93-0.81a14.065,14.065,0,0,0,1.38-1.47,9.277,9.277,0,0,0,1.14-1.74,1.894,1.894,0,0,0,.15-1.62,1.99,1.99,0,0,0-.6-0.9,5.594,5.594,0,0,0-.9-0.63q-0.48-.27-0.93-0.54a2.473,2.473,0,0,1-.75-0.69,1.655,1.655,0,0,1,.78-0.6q0.48-.18.93-0.33a2.421,2.421,0,0,0,.78-0.42,1.06,1.06,0,0,0,.33-0.87,2.17,2.17,0,0,0-.93-1.83,7.7,7.7,0,0,0-2.04-1.08,14.6,14.6,0,0,0-2.04-.57,1.682,1.682,0,0,1-.93-0.3,16.8,16.8,0,0,1,2.46.128,4.932,4.932,0,0,1,1.2.322,7.533,7.533,0,0,0,.81.322,4.543,4.543,0,0,0,1.29.128,2.122,2.122,0,0,0,1.38-.437,7.814,7.814,0,0,0,1.2-1.3l0.36,0.42V80.525q-0.06.3-.27,0.96a0.783,0.783,0,0,1-.75.66h-0.18a1.333,1.333,0,0,0-.18-0.36,1.039,1.039,0,0,1-.18-0.42,0.243,0.243,0,0,1-.06-0.18,4.6,4.6,0,0,1,.12-0.87,9.45,9.45,0,0,1,.33-1.17,4.063,4.063,0,0,1,.51-1.02,0.833,0.833,0,0,1,.66-0.42,1.226,1.226,0,0,1,.72.21,4.31,4.31,0,0,1,.57.48,4.243,4.243,0,0,0,.57.48,1.219,1.219,0,0,0,.72.21,3.341,3.341,0,0,0-.93-1.92,15.415,15.415,0,0,0-2.22-2.19,15.871,15.871,0,0,0-2.67-1.77,5.192,5.192,0,0,0-2.22-.72,1.922,1.922,0,0,0-.3.03,1.838,1.838,0,0,1-.24.029Zm-9.96,1.259a0.722,0.722,0,0,1-.42-0.42,0.641,0.641,0,0,1,.57-0.472,5.222,5.222,0,0,1,.75-0.067,1.3,1.3,0,0,1-.18.64,0.581,0.581,0,0,1-.54.32h-0.18Zm-23.64.42h-0.36v-0.42h0.36v0.42Zm6.06,3.06a2.4,2.4,0,0,1-.48-1.44,2.883,2.883,0,0,1,.12-0.9,0.715,0.715,0,0,1,.78-0.36,0.677,0.677,0,0,1,.63.48,3.62,3.62,0,0,1,.27,1.11,7.812,7.812,0,0,1,.03,1.17c-0.02.36-.03,0.561-0.03,0.6A1.542,1.542,0,0,1,249.2,80.825Zm27.54,8.88h-5.16V79.325h5.16v10.38Zm2.28-8.76a2.331,2.331,0,0,1,.15-0.78,0.566,0.566,0,0,1,.57-0.42h0.24a4.241,4.241,0,0,1,.54.48,1.037,1.037,0,0,1,.36.72h-1.86Zm-34.83,8.61a3.527,3.527,0,0,1-.93-0.72,4.467,4.467,0,0,1-.69-0.96,2.107,2.107,0,0,1-.27-0.99,1.441,1.441,0,0,1,.3-0.84,0.92,0.92,0,0,1,.78-0.42,1.036,1.036,0,0,1,.51.6,12.288,12.288,0,0,1,.63,1.35q0.3,0.751.51,1.41a3.933,3.933,0,0,1,.21.84A2.218,2.218,0,0,1,244.189,89.555Zm5.79,6.63h-7.62v-5.58h7.62v5.58Zm3.9-4.44a3.81,3.81,0,0,1-.72.66,7.681,7.681,0,0,1-.87.54,4.958,4.958,0,0,0-.75.48,0.537,0.537,0,0,1-.36-0.36,1.967,1.967,0,0,1-.06-0.48,1.177,1.177,0,0,1,.33-0.87,2.247,2.247,0,0,1,.81-0.51,4.235,4.235,0,0,1,1.02-.24,8.573,8.573,0,0,1,.9-0.06A1.271,1.271,0,0,1,253.879,91.745Zm14.88,1.02a0.561,0.561,0,0,1-.39.57,3.644,3.644,0,0,1-.84.21,5.014,5.014,0,0,1-1.29-.06,1.655,1.655,0,0,1,.69-1.29q0.69-.57,1.05-0.87h0.36a2.15,2.15,0,0,1,.21.54c0.1,0.321.17,0.54,0.21,0.66v0.24Zm7.98,9.78h-5.16l-0.42-.42-0.06-2.04q0-2.1.09-3.75t0.39-3.81h5.16v10.02Zm2.82-8.4h-0.42v-0.42h0.42v0.42Zm-38.4,2.28a0.683,0.683,0,0,1-.27.57,1.663,1.663,0,0,1-.66.3,5.23,5.23,0,0,1-.81.12c-0.28.021-.52,0.03-0.72,0.03a0.629,0.629,0,0,1-.6-0.33,1.538,1.538,0,0,1-.18-0.75q0-.18.06-0.18l2.76-.36a0.447,0.447,0,0,1,.21.15l0.21,0.21v0.24Zm10.35,0.03a0.3,0.3,0,0,1-.33.09c-0.12-.039-0.1-0.15.06-0.33s0.26-.21.3-0.09A0.236,0.236,0,0,1,251.509,96.455Zm-8.94,1.47a0.219,0.219,0,0,1-.21-0.18q-0.06-.18.18-0.18t0.24,0.18A0.219,0.219,0,0,1,242.569,97.925Zm7.41,7.02h-7.62v-5.58h7.62v5.58Zm16.86-2.34q-0.54-.119-0.54-1.26a2.883,2.883,0,0,1,.12-0.9,0.715,0.715,0,0,1,.78-0.36,0.89,0.89,0,0,1,.69.3,2.156,2.156,0,0,1,.42.72,4.264,4.264,0,0,1,.21.87,5.873,5.873,0,0,1,.06.75A8.834,8.834,0,0,1,266.839,102.605Zm-30.9,2.94a0.767,0.767,0,0,1-.57-0.54,10.326,10.326,0,0,1-.51-1.23,13.58,13.58,0,0,1-.39-1.32,5.447,5.447,0,0,1-.15-0.75,3.651,3.651,0,0,1,.93.24,0.8,0.8,0,0,1,.69.6v3Zm5.64-1.02h-0.84v-1.2h0.84v1.2Zm9.78-.18a0.159,0.159,0,0,1-.18-0.18q-0.06-.18.18-0.18t0.18,0.18A0.159,0.159,0,0,1,251.359,104.345Zm7.02,1.8a3.688,3.688,0,0,1-1.62-.45,1.367,1.367,0,0,1-.9-1.23,2.808,2.808,0,0,1,1.62.45,5.616,5.616,0,0,1,1.26,1.23h-0.36Zm-5.25,5.37a15.132,15.132,0,0,1-1.59,1.41,0.24,0.24,0,0,1-.18.06,0.527,0.527,0,0,1-.54-0.57q-0.06-.569-0.06-0.87,0-1.558.96-1.77a10.863,10.863,0,0,1,2.28-.21A2.7,2.7,0,0,1,253.129,111.515Zm24.63,1.23a0.713,0.713,0,0,0-.18-0.6q-0.12-.058-0.15.15a3.207,3.207,0,0,0-.03.45,3.166,3.166,0,0,0,.03.45q0.03,0.212.15,0.15A0.708,0.708,0,0,0,277.759,112.745Zm-10.53.96a1.775,1.775,0,0,0-.51,1.44q0,0.481.03,0.96a1.267,1.267,0,0,0,.39.84,2.3,2.3,0,0,0,.66-0.72,8.151,8.151,0,0,0,.54-1.02,5.916,5.916,0,0,0,.36-1.05,3.891,3.891,0,0,0,.12-0.87A2.484,2.484,0,0,0,267.229,113.705Zm-13.65,15.36a5,5,0,0,0,1.83-.51,18.329,18.329,0,0,0,2.49-1.35q1.32-.84,2.7-1.86a26.794,26.794,0,0,0,2.49-2.07,15.383,15.383,0,0,0,1.8-1.98,2.828,2.828,0,0,0,.69-1.53,3.158,3.158,0,0,0-.57-1.35,13.925,13.925,0,0,0-1.35-1.83,11.316,11.316,0,0,0-1.59-1.53,1.678,1.678,0,0,0-1.29-.51,1.011,1.011,0,0,0-.45.33,2.536,2.536,0,0,0-.39.45q-0.72,1.742-1.38,3.3t-1.41,3.06q-0.75,1.5-1.62,3t-1.95,3.06v1.32Zm-8.82-10.92a3.841,3.841,0,0,1-.84-0.87,1.974,1.974,0,0,1-.36-1.17,0.745,0.745,0,0,1,.33-0.72,1.815,1.815,0,0,1,.87-0.18v2.94Zm41.22,5.22a13.1,13.1,0,0,1-.75,1.5,1.372,1.372,0,0,1-1.23.78l-0.06-.3a2.8,2.8,0,0,0,.15-0.51q0.09-.39.24-0.87t0.27-.9a4.078,4.078,0,0,1,.18-0.54v-0.18a2.424,2.424,0,0,0-.84-1.68,9.608,9.608,0,0,0-1.98-1.5,12.3,12.3,0,0,0-2.34-1.05,6.636,6.636,0,0,0-1.92-.39h-0.12l-0.42.84q-0.06.061-.21,0.21a0.434,0.434,0,0,1-.21.15h-7.56a0.444,0.444,0,0,0-.45.51q-0.03.511-.03,0.63v0.3a0.241,0.241,0,0,0,.06.18l3.6,1.2a3.176,3.176,0,0,1,.75-1.02,1.688,1.688,0,0,1,.99-0.24,1.473,1.473,0,0,1,.81.18,0.81,0.81,0,0,1,.27.72v0.36l-1.2.78a0.248,0.248,0,0,0-.06.18,12.87,12.87,0,0,0,.15,1.77,10.792,10.792,0,0,0,.51,2.07,5.989,5.989,0,0,0,.93,1.74,1.735,1.735,0,0,0,1.41.72,12.942,12.942,0,0,0,2.58-.33,14.261,14.261,0,0,0,3-.99,8.693,8.693,0,0,0,2.46-1.65,3.122,3.122,0,0,0,1.02-2.31v-0.36Zm0.48-1.29a4.35,4.35,0,0,0,0-1.44,3.963,3.963,0,0,0-.12-0.51q-0.12-.18-0.15.27t-0.03.99a6.206,6.206,0,0,0,.06.93c0.04,0.261.08,0.33,0.12,0.21A1.887,1.887,0,0,0,286.459,122.075Zm-27.3.09-0.42-.42h0.42v0.42Zm-3.18,5.16h-0.42v-0.36Zm90.78-22.38a1.859,1.859,0,0,0,.57.48c0.22,0.12.44,0.251,0.66,0.39a2.715,2.715,0,0,1,.57.48,0.919,0.919,0,0,1,.24.63,1.16,1.16,0,0,1-.18.78,8.9,8.9,0,0,0-.66.84l-2.4,3.18a2.069,2.069,0,0,1-.6.06,12.526,12.526,0,0,1-2.01-.15,13.18,13.18,0,0,0-2.07-.15,1.083,1.083,0,0,1,.72-1.08q0.72-.3,1.62-0.6a4.918,4.918,0,0,0,1.62-.9,2.44,2.44,0,0,0,.72-1.98,1.975,1.975,0,0,0-.6-1.59,5.535,5.535,0,0,0-1.35-.84,11.926,11.926,0,0,1-1.35-.69,1.287,1.287,0,0,1-.6-1.2l0.3-.06,2.4,1.2h0.42a33.429,33.429,0,0,0-3.06-3.33q-1.56-1.469-3.03-2.97a35.981,35.981,0,0,1-2.79-3.21,18.6,18.6,0,0,1-2.34-4.11,6.328,6.328,0,0,1,.57-0.48,1.167,1.167,0,0,1,.63-0.3h10.8a3.14,3.14,0,0,1-1.05-1.11,15.535,15.535,0,0,1-.93-1.71,14,14,0,0,1-.69-1.77,4.9,4.9,0,0,1-.27-1.23,3.41,3.41,0,0,1,1.53.51,11.55,11.55,0,0,1,1.77,1.2,12.046,12.046,0,0,1,1.44,1.38,1.964,1.964,0,0,1,.6,1.11v1.32a0.959,0.959,0,0,0,.42-0.12,2.426,2.426,0,0,0,.45-0.39,1.4,1.4,0,0,0,.33-0.39,2.238,2.238,0,0,0-.9-1.5q-1.02-1.08-2.37-2.25t-2.64-2.16q-1.29-.99-1.71-1.29a5.088,5.088,0,0,0-1.08,1.29q-0.6.931-1.23,1.89a15.27,15.27,0,0,1-1.26,1.68,1.723,1.723,0,0,1-1.23.72h-4.8V76.145a5.393,5.393,0,0,0,1.26-.93,1.82,1.82,0,0,0,.42-1.29,2.108,2.108,0,0,0-.06-0.6q-0.24-.059-0.99-0.21a6.581,6.581,0,0,0-.99-0.15,9.037,9.037,0,0,0-1.23-.15q-1.05-.09-2.37-0.21l-2.67-.24q-1.35-.12-2.13-0.24h-0.42q-0.12.06-.36,0.21a0.5,0.5,0,0,0-.24.21v13.62h-13.8v-0.84q0.66-1.38,1.11-2.34t0.9-1.98q0.45-1.02.81-1.68a3.006,3.006,0,0,1,.72-0.93q0.54-.509,1.08-0.99t0.99-.9a1.146,1.146,0,0,0,.45-0.78q0-.779-1.41-1.53a16.968,16.968,0,0,0-3.3-1.29,36.223,36.223,0,0,0-3.81-.87,18.985,18.985,0,0,0-3-.33,1.2,1.2,0,0,0-.63.09,3.2,3.2,0,0,0-.33.75q-1.32,4.02-2.52,8.01t-2.52,7.95q-1.32,3.96-2.79,7.86t-3.33,7.8a0.842,0.842,0,0,0-.06.36,1.11,1.11,0,0,0,.15.6,0.768,0.768,0,0,0,.69.24,2.879,2.879,0,0,0,1.41-.66,20.136,20.136,0,0,0,1.83-1.47q0.9-.81,1.59-1.5a6.765,6.765,0,0,0,.75-0.81h1.02v14.1a4.238,4.238,0,0,0,1.41-.24,4.289,4.289,0,0,1,1.41-.24,1.266,1.266,0,0,1,1.08.48,1.946,1.946,0,0,1,.36,1.2,3.143,3.143,0,0,1-.42.6,11.957,11.957,0,0,0-.9,1.38,15.3,15.3,0,0,0-.9,1.89,5.554,5.554,0,0,0-.42,2.07h-1.44v6.78a0.416,0.416,0,0,0,.51.42h0.63q0.54,0,1.89-.15a23.5,23.5,0,0,0,2.76-.48,17.1,17.1,0,0,0,2.52-.78,1.4,1.4,0,0,0,1.11-.99v-10.02a6.2,6.2,0,0,0,.54-0.48,4.086,4.086,0,0,0,.45-0.39,2.764,2.764,0,0,1,.39-0.33q0.24-.18,1.05-0.81t1.77-1.38q0.96-.749,1.77-1.38t1.05-.81q0.3-.3,1.14-1.08t1.8-1.68q0.96-.9,1.83-1.71t1.23-1.17h0.78a8.805,8.805,0,0,1,1.95.72,4.434,4.434,0,0,0,1.83.54,0.535,0.535,0,0,0,.51-0.27,1.547,1.547,0,0,0,.18-0.63,3.973,3.973,0,0,0,0-.69,1.444,1.444,0,0,0-.09-0.45,7.53,7.53,0,0,1,1.38,1.38,12.2,12.2,0,0,0,1.14,1.32,5.412,5.412,0,0,0,1.35.99,4.213,4.213,0,0,0,1.95.39V97.745l1.02,0.78a20.783,20.783,0,0,0,.87,2.19q0.63,1.412,1.32,2.97t1.2,3a7.33,7.33,0,0,1,.51,2.28h-2.34a3.075,3.075,0,0,0,1.02.63,0.852,0.852,0,0,1,.6.93,13.147,13.147,0,0,1-.36,1.62,6.757,6.757,0,0,1-.66,1.56,4.048,4.048,0,0,1-1.05,1.2,2.444,2.444,0,0,1-1.53.48,6.193,6.193,0,0,1-3.51-.87,8.523,8.523,0,0,1-2.22-2.19q-0.93-1.319-1.86-2.76a11.145,11.145,0,0,0-2.43-2.64l-0.6.42v6.6h-7.38l1.62,1.8v0.42q-0.12.061-.42,0.21a1.148,1.148,0,0,1-.42.15,26.394,26.394,0,0,1,3.27.09q1.71,0.151,3.15.33a0.6,0.6,0,0,1,.48.75c-0.04.42-.06,0.711-0.06,0.87q0,0.54.06,2.01t0.12,3.15q0.06,1.68.12,3.15t0.06,2.07a0.494,0.494,0,0,0,.42.39q0.3,0.03.54,0.03a15.3,15.3,0,0,0,1.86-.21,22.959,22.959,0,0,0,2.85-.63,13.654,13.654,0,0,0,2.61-1.02,1.7,1.7,0,0,0,1.14-1.38v-9.36h8.58a1.855,1.855,0,0,1,1.05-.6,10.349,10.349,0,0,1,1.17-.06l1.02,0.06q-0.18,1.26.78,1.26a1.013,1.013,0,0,0,.42-0.06,12.655,12.655,0,0,1,1.08-2.7q0.78-1.5,1.62-3t1.47-2.82a5.276,5.276,0,0,0,.63-2.1,1.441,1.441,0,0,0-.93-1.35,3.967,3.967,0,0,0-1.71-.45h-0.18Zm-40.62-31.56a2.563,2.563,0,0,1,1.08,2.1q-0.3,0-1.05-.06a10.459,10.459,0,0,1-1.53-.24,7.451,7.451,0,0,1-1.38-.45,0.836,0.836,0,0,1-.6-0.75,1.637,1.637,0,0,1,.33-0.99,1.086,1.086,0,0,1,.93-0.45A3.585,3.585,0,0,1,306.139,73.385Zm25.98,0.36a0.575,0.575,0,0,1-.18.42,7.277,7.277,0,0,1-.63.69,3.665,3.665,0,0,1-.57.51,0.608,0.608,0,0,1-.48-0.12,3.108,3.108,0,0,1-1.02-1.02,1.025,1.025,0,0,1-.18-0.48h3.06Zm-24.24,2.01c0,0.261-.1.39-0.3,0.39s-0.3-.129-0.3-0.39A0.31,0.31,0,1,1,307.879,75.755Zm0.21,1.26a2.588,2.588,0,0,1-.21-0.99,0.792,0.792,0,0,1,.84.48,2.883,2.883,0,0,1,.18,1.02A0.8,0.8,0,0,1,308.089,77.015Zm15.69,1.11a0.918,0.918,0,0,1,.51.45,11.352,11.352,0,0,1,.66,1.02q0.33,0.571.6,1.08t0.39,0.69a0.41,0.41,0,0,1-.3.36,1.958,1.958,0,0,1-.48.06,0.975,0.975,0,0,1-.66-0.39,5.206,5.206,0,0,1-.66-0.9,8.025,8.025,0,0,1-.51-1.02,2.259,2.259,0,0,1-.21-0.75,0.245,0.245,0,0,1,.06-0.18,0.714,0.714,0,0,1,.36-0.42h0.24Zm-15.36,4.8a3.2,3.2,0,0,1-.24.81,12.1,12.1,0,0,1-.66,1.41,15.7,15.7,0,0,1-.99,1.59,7.01,7.01,0,0,1-1.17,1.32,2.684,2.684,0,0,1-1.29.63,1.381,1.381,0,0,1-1.29-.54l-0.42-.42a2.416,2.416,0,0,0,.81-0.96q0.45-.779.9-1.62t0.84-1.53a1.156,1.156,0,0,1,.63-0.69h2.88Zm20.76,0.84a0.631,0.631,0,0,1,.57-0.48,5.971,5.971,0,0,1,.75-0.06,5.852,5.852,0,0,1-.06.75,0.63,0.63,0,0,1-.48.57Zm-21.24,28.38V93.725a9.444,9.444,0,0,0,.9-0.9,1.6,1.6,0,0,0,.36-1.08,1.332,1.332,0,0,0-.06-0.42q-0.18-.059-0.66-0.21a4.968,4.968,0,0,1-.96-0.42,4.49,4.49,0,0,1-.84-0.6,0.994,0.994,0,0,1-.36-0.75,1.382,1.382,0,0,1,.18-0.54,3.718,3.718,0,0,1,.45-0.69,5.055,5.055,0,0,1,.54-0.57,0.767,0.767,0,0,1,.45-0.24,1.04,1.04,0,0,1,.42.06,1.3,1.3,0,0,0-.48.51,1.444,1.444,0,0,0-.3.69,1.181,1.181,0,0,0,.3.57,0.809,0.809,0,0,0,.48.39h10.08a20.2,20.2,0,0,1-.93,5.88,43.615,43.615,0,0,1-2.34,6.03,58.418,58.418,0,0,1-3.12,5.73q-1.71,2.761-3.27,4.98h-0.84Zm-7.56-20.82,0.78,0.84a3.2,3.2,0,0,0,.39.45q0.27,0.27.57,0.6a4.863,4.863,0,0,1,.54.72,1.436,1.436,0,0,1,.24.75,4.694,4.694,0,0,1-1.47-.27,7.615,7.615,0,0,1-1.59-.75,8.448,8.448,0,0,1-1.41-1.08,3.327,3.327,0,0,1-.87-1.26h2.82Zm6.3,3.39a6.571,6.571,0,0,1,.12,1.23,3.581,3.581,0,0,1-.24,1.11,0.839,0.839,0,0,1-.78.69,0.634,0.634,0,0,1-.57-0.39,2.988,2.988,0,0,1-.3-0.93,9.931,9.931,0,0,1-.12-1.05q-0.03-.509-0.03-0.81a0.415,0.415,0,0,1,.45-0.45q0.45-.03.63-0.03A0.745,0.745,0,0,1,306.679,94.715Zm12.3,1.08a4.205,4.205,0,0,1,.06-0.69,2.325,2.325,0,0,1,.21-0.66,0.525,0.525,0,0,1,.51-0.3,0.506,0.506,0,0,1,.57.33,2.613,2.613,0,0,1,.09.69,0.918,0.918,0,0,1-.36.9,2.507,2.507,0,0,1-1.08.18V95.8ZM307.159,107.8q-0.12.12-.48,0.453t-0.75.724l-0.72.724a3.887,3.887,0,0,0-.45.513,6.789,6.789,0,0,0-.39.574q-0.33.513-.39,0.633h-0.42l-0.42-.422-1.98-4.044a4.282,4.282,0,0,0,.96-0.664,1.23,1.23,0,0,0,.3-0.905,0.712,0.712,0,0,0-.39-0.755,2.952,2.952,0,0,0-.87-0.181,7.868,7.868,0,0,1-.96-0.12,0.835,0.835,0,0,1-.66-0.574q0.42-.785.84-1.629a1.432,1.432,0,0,1,1.38-.846,3.322,3.322,0,0,1,1.62.363,1.439,1.439,0,0,1,.66,1.388,3.318,3.318,0,0,1-.27,1.418,3.164,3.164,0,0,0-.27,1.358,1.834,1.834,0,0,0,.36,1.177,1.368,1.368,0,0,0,1.14.453,0.992,0.992,0,0,0,.63-0.211,2.743,2.743,0,0,0,.48-0.483,3.474,3.474,0,0,1,.45-0.483,0.88,0.88,0,0,1,.6-0.212V107.8Zm38.19-3.459a0.219,0.219,0,0,0,.21-0.18q0.06-.18-0.18-0.18t-0.24.18A0.219,0.219,0,0,0,345.349,104.345Zm0.81,0.36a0.159,0.159,0,0,0,.18-0.18q0.06-.18-0.18-0.18t-0.18.18A0.159,0.159,0,0,0,346.159,104.705Zm-19.8,3.84v0.42h0.42v-0.42h-0.42Zm5.58,2.88a2.48,2.48,0,0,0-.39-0.24,1.587,1.587,0,0,0-.39-0.18,2.5,2.5,0,0,0-1.68.619,1.97,1.97,0,0,0-.72,1.56,0.867,0.867,0,0,0,.96,1,2.419,2.419,0,0,0,1.98-.88,6.377,6.377,0,0,0,1.08-1.88h-0.84Zm-28.38,6.72a0.8,0.8,0,0,1-.9-0.9,1.152,1.152,0,0,1,.75.27,2.855,2.855,0,0,1,.57.63h-0.42Zm-5.34.93a1.755,1.755,0,0,0-.06.48,3.415,3.415,0,0,0,.03.48q0.03,0.212.15,0.09a0.664,0.664,0,0,0,.18-0.57,0.878,0.878,0,0,0-.18-0.63Q298.279,118.867,298.219,119.075Zm27.72,1.05h-0.36l0.36-.36v0.36Zm3.6,4.8-0.36-.36,0.36-.42v0.78Z"/>
</svg>
