<svg xmlns="http://www.w3.org/2000/svg" width="400" height="200" viewBox="0 0 400 200">
  <defs>
    <style>
      .cls-1 {
        fill: #fdfdfd;
        fill-rule: evenodd;
      }
    </style>
  </defs>
  <path id="全字庫正楷體" class="cls-1" d="M44.91,82.375A51.385,51.385,0,0,1,41.8,86.652q-2.579,3.282-4.746,5.567a53.213,53.213,0,0,1-4.453,4.1q-2.227,1.758-3.574,2.7l-2.637,1.816-1.582,1.055a1.1,1.1,0,0,0-.586.7,0.236,0.236,0,0,0,.059.176,0.27,0.27,0,0,0,.293.175,0.964,0.964,0,0,0,.293-0.058l1.582-.7q0.879-.353,3.164-1.524,2.343-1.171,4.57-2.519a29,29,0,0,0,4.922-3.809,45.246,45.246,0,0,0,4.512-4.687q1.934-2.285,2.93-3.75,1-1.406,2.109-3.164l3.516,3.926,3.75,4.219,4.219,4.8q0.937,1,2.52,2.4a12.811,12.811,0,0,0,2.52,1.816,5.857,5.857,0,0,0,2.344.411h0.645a22.512,22.512,0,0,0,2.871-.235q2.343-.292,2.871-0.41,0.585-.117,1-0.234l1.23-.41A0.846,0.846,0,0,0,76.9,98.43V98.371a0.894,0.894,0,0,0-.82-0.586l-1.406-.41q-2.228-.585-3.281-0.937t-3.105-1.289q-2.052-.937-3.984-1.992A26.149,26.149,0,0,1,61.2,91.223a34.8,34.8,0,0,1-2.812-2.285Q56.8,87.649,55.4,86.3t-3.516-3.574q-2.052-2.167-2.988-2.988a9.1,9.1,0,0,0-1.465-1.23,11.673,11.673,0,0,0-1.23-.586,8.629,8.629,0,0,0-1.289-.469q-0.587-.117-1.641-0.234a14.158,14.158,0,0,0-1.523-.117l-1,.293a0.775,0.775,0,0,0-.645.527v0.117a0.563,0.563,0,0,0,.352.527,1.81,1.81,0,0,0,.82.176q0.527,0,1.348.059a6.266,6.266,0,0,1,1.465.352,7.075,7.075,0,0,1,1.055.469,10.305,10.305,0,0,0,.879.645Zm0.7,35.977-13.535,1.054-1.348.117a2.016,2.016,0,0,0-.82.235,0.44,0.44,0,0,0-.059.176,1.056,1.056,0,0,0,.176.527,6.434,6.434,0,0,0,1.7,1.055,14.923,14.923,0,0,0,1.816.82,4.115,4.115,0,0,0,1.172.117,11.034,11.034,0,0,0,2.227-.469,30.7,30.7,0,0,1,4.688-.761L46.9,120.7a36.191,36.191,0,0,1,3.633-.234l12.07-.176a17.82,17.82,0,0,0,3.984-.293,0.73,0.73,0,0,0,.586-0.527,1.683,1.683,0,0,0-.352-0.82,4.465,4.465,0,0,0-1.523-1,14.19,14.19,0,0,0-2.051-.7,7.279,7.279,0,0,0-1.465-.234,6.261,6.261,0,0,0-.82.176q-0.7.117-2.93,0.293l-9.258.879,0.352-8.086,5.742-.586a6.523,6.523,0,0,0,2.52-.469,0.813,0.813,0,0,0,.41-0.645v-0.058a1.243,1.243,0,0,0-.82-0.7,10.6,10.6,0,0,0-2.051-.645,9.076,9.076,0,0,0-1.7-.234,10.176,10.176,0,0,0-1.406.117l-2.637.527,0.176-2.461a9.143,9.143,0,0,1,.293-2.05,6.024,6.024,0,0,0,.117-1v-0.176a1.079,1.079,0,0,0-.41-0.645,2.713,2.713,0,0,0-.82-0.527l8.32-1q1.112-.117,1.113-0.527V98.781a0.853,0.853,0,0,0-.41-0.7,5.158,5.158,0,0,0-1-.586,5.366,5.366,0,0,0-1.113-.352c-0.43-.038-0.782-0.059-1.055-0.059q-0.351.059-1.406,0.293a28,28,0,0,1-2.812.41l-11.6,1.23-1.055.117a1.208,1.208,0,0,0-1.055.234v0.117a0.984,0.984,0,0,0,.351.528,3.551,3.551,0,0,0,1.641.761,9.809,9.809,0,0,0,1.758.235l4.1-.352,0.352,0.879a4.651,4.651,0,0,1,.469,1.7q0.117,1.056.176,2.051,0.058,1.055.059,2.4l-6.445.878a5.122,5.122,0,0,0-1.641.352,0.535,0.535,0,0,0-.352.41,0.934,0.934,0,0,0,.41.586,5.031,5.031,0,0,0,1.289.586,7.712,7.712,0,0,0,1.992.234,4.536,4.536,0,0,0,.762.059,10.438,10.438,0,0,0,1.055-.059q1.112-.115,2.988-0.351Zm57.422-14.18q-5.156.587-6.445,0.7l-4.453.293q-2.344.236-2.7,0.234l-2.285.118a0.941,0.941,0,0,0-.762.351v0.117a1.86,1.86,0,0,0,.586.938,5.852,5.852,0,0,0,2.285,1.23,9.513,9.513,0,0,0,2.109.469,6.242,6.242,0,0,0,1.523-.352,29.469,29.469,0,0,1,3.223-.585l4.512-.645q2.87-.41,4.746-0.586l3.809-.352-0.059,5.45q0,1.348-.117,2.871T108.777,117a8.254,8.254,0,0,1-.468,1.992,2.872,2.872,0,0,1-.586,1.055,0.84,0.84,0,0,1-.352.058,2.8,2.8,0,0,1-.82-0.175l-1.348-.411-1.7-.585-1.055-.293a2.45,2.45,0,0,0-.469-0.059,0.369,0.369,0,0,0-.351.117v0.117a1.092,1.092,0,0,0,.469.7l1.054,0.938q0.645,0.644,1.524,1.641a15.261,15.261,0,0,1,1.289,1.406q0.409,0.468,1.172,1.523a2.236,2.236,0,0,0,1.113,1.055h0.176a1.725,1.725,0,0,0,.937-0.469,5.991,5.991,0,0,0,1.407-1.64,10.526,10.526,0,0,0,.937-2.344,15.794,15.794,0,0,0,.527-2.813q0.177-1.641.235-3.691,0.057-2.109.058-3.633l-0.234-5.684,5.156-.234,4.395-.058q3.339-.117,3.926-0.118l3.984,0.118,2.578-.118a8.794,8.794,0,0,0,1.523-.234,0.967,0.967,0,0,0,.7-0.527,1.181,1.181,0,0,0-.352-0.645,9.659,9.659,0,0,0-1.348-.937,9.267,9.267,0,0,0-1.992-.879,7.315,7.315,0,0,0-1.816-.469,18.636,18.636,0,0,0-1.992.176l-3.633.41q-2.228.294-2.344,0.293l-3.926.293-4.863.469-0.117-1.524a2.437,2.437,0,0,0-.352-1.23,4.353,4.353,0,0,0-.7-0.879l5.274-3.867q1.23-.82,1.992-1.231l2.051-.879a2.011,2.011,0,0,0,.761-0.82V92.8a1.735,1.735,0,0,0-.469-1,8.5,8.5,0,0,0-1.875-1.523,7.345,7.345,0,0,0-2.226-1.113A4.491,4.491,0,0,0,115.457,89h-0.234q-0.235.059-1.055,0.352t-2.813.82l-2.7.7-3.047.645q-1.288.235-3.164,0.469-1.875.176-2.344,0.234H98.992a1.288,1.288,0,0,0-.762.293,1.35,1.35,0,0,0,.176.527,2.231,2.231,0,0,0,.82.762,9.033,9.033,0,0,0,1.171.645,2.818,2.818,0,0,0,1,.176h0.234a1.288,1.288,0,0,0,.41-0.059q0.292-.058,1.7-0.469l3.809-.879,4.687-1q1.232-.234,1.582-0.293a0.63,0.63,0,0,1,.586.293,0.524,0.524,0,0,1,.059.234,1.7,1.7,0,0,1-.352.879q-0.526.762-1.289,1.758-0.82,1.055-1.113,1.465L109.6,99.016l-1.758-.586a0.911,0.911,0,0,0-.352-0.117,0.394,0.394,0,0,0-.351.176,0.564,0.564,0,0,0-.176.41,0.506,0.506,0,0,0,.059.234,4.024,4.024,0,0,0,.585.879,4.641,4.641,0,0,1,.762,1.172,8.061,8.061,0,0,1,.41,1.054,10.19,10.19,0,0,1,.235,1.348ZM103.152,83.2l-5.508.469-2.637.059-0.176-1.055a2.143,2.143,0,0,0-.41-1.113,0.938,0.938,0,0,0-.645-0.527H93.719a0.858,0.858,0,0,0-.527.527,7.148,7.148,0,0,0-.469,1.465,13.425,13.425,0,0,1-.7,1.875,10.637,10.637,0,0,1-1.113,1.992,6.185,6.185,0,0,0-.879,1.582,4.067,4.067,0,0,0-.176,1.172v0.293a3,3,0,0,0,.469,1.406,1.26,1.26,0,0,0,1.113.645,1.689,1.689,0,0,0,1.172-.586,7.124,7.124,0,0,0,1.172-1.875,15.832,15.832,0,0,0,.938-1.934q0.234-.644.469-1.406l0.938,0.059h1.172a12.245,12.245,0,0,0,2.109-.293l4.043-.645,4.629-.7q2.109-.234,6.211-0.762,4.16-.527,6.211-0.762,2.109-.293,3.047-0.352a2.206,2.206,0,0,1,1,.234,0.878,0.878,0,0,1,.527.586v0.117a1.719,1.719,0,0,1-.468.938q-0.469.586-1,1.348l-0.762,1.113-0.7,1a1.886,1.886,0,0,0-.41.82v0.059a0.392,0.392,0,0,0,.293.117,1.339,1.339,0,0,0,.468-0.117l2.227-.82q1.171-.409,2.812-0.82l2.168-.469,1.7-.176a1.9,1.9,0,0,0,1.289-.41,0.73,0.73,0,0,0,.117-0.41,1.966,1.966,0,0,0-.117-0.586,4.191,4.191,0,0,0-.938-1.465,23.645,23.645,0,0,0-1.934-1.816,12.447,12.447,0,0,0-2.109-1.523,2.731,2.731,0,0,0-1.406-.469H126.18q-0.236.059-1,.293a16.555,16.555,0,0,1-2.813.586l-2.344.352-7.91,1,0.41-.937a3.283,3.283,0,0,0,.235-1.231,4.278,4.278,0,0,0-.059-0.7,5.972,5.972,0,0,0-.762-1.641,4.751,4.751,0,0,0-1.523-1.523,16.72,16.72,0,0,0-1.992-1.172,3.785,3.785,0,0,0-1.641-.469h-0.117a0.693,0.693,0,0,0-.586.176,0.465,0.465,0,0,0-.059.293,3.545,3.545,0,0,0,.059.527,18.609,18.609,0,0,0,.7,1.934L107.84,79.8a11.316,11.316,0,0,0,1,1.523,14.852,14.852,0,0,0,1.113,1.23Zm68.789-.469a0.236,0.236,0,0,0-.117.234,1.081,1.081,0,0,0,.059.352,5.994,5.994,0,0,0,.41,1.172,6.779,6.779,0,0,1,.469,1.523l0.293,2.285-0.117-.059-7.032.938-0.879.117a0.788,0.788,0,0,0-.644.176,0.236,0.236,0,0,0-.059.176,0.935,0.935,0,0,0,.059.293,1.629,1.629,0,0,0,.7.645c0.352,0.157.683,0.293,1,.41a2.648,2.648,0,0,0,.938.176q0.468,0,1.289-.059l4.8-.527v3.633l-7.734.879L163.5,94.8a3.28,3.28,0,0,1-.645-0.059,0.63,0.63,0,0,0-.468.176,0.606,0.606,0,0,0-.176.527,2.312,2.312,0,0,0,.762.879,3.1,3.1,0,0,1,.878.879,6.966,6.966,0,0,1,.352,1.289l1.582,8.614a3.913,3.913,0,0,0,.293,1.054,1.08,1.08,0,0,0,.7.821,0.949,0.949,0,0,0,.586-0.176,1.261,1.261,0,0,0,.352-0.762l5.332-.41L173,111.5l-7.383.762a47.306,47.306,0,0,1-5.859.351l-2.871.059a3.276,3.276,0,0,0-.821.176,0.617,0.617,0,0,0-.234.527,1.705,1.705,0,0,0,.879.938,8.366,8.366,0,0,0,1.875.937,3.761,3.761,0,0,0,1.465.293h0.41a9.681,9.681,0,0,0,1.758-.293,28.1,28.1,0,0,1,3.4-.644q2.111-.293,3.633-0.469,1.464-.117,3.75-0.352v8.555q-0.059,1.406-.058,2.109l0.117,1.524a3.646,3.646,0,0,0,.234,1.113,0.8,0.8,0,0,0,.352.469,0.525,0.525,0,0,0,.234.058h0.176a0.9,0.9,0,0,0,.351-0.117,3.4,3.4,0,0,0,.528-1.23,11.541,11.541,0,0,0,.586-2.344q0.176-1.23.351-3.164t0.235-3.106q0.057-1.171.234-3.984l3.4-.234q2.226-.117,5.918-0.176,3.75,0,6.446.058l2.578,0.118a1.419,1.419,0,0,0,.82-0.176l0.352-.352a0.525,0.525,0,0,1,.058-0.234,1.274,1.274,0,0,0-.293-0.645,4.582,4.582,0,0,0-1.64-1.289,6.6,6.6,0,0,0-2.7-.937,15.386,15.386,0,0,0-2.109.234q-1.407.236-3.75,0.469-2.345.294-2.988,0.352l-6.094.468,0.059-3.984,4.8-.527,0.41,1q0,0.234.528,0.293h0.468c0.156-.039.352-0.1,0.586-0.176a5.886,5.886,0,0,0,.7-0.7A15.605,15.605,0,0,0,185.359,104l2.227-6.094a8.092,8.092,0,0,1,.644-1.582l0.7-.879a1.23,1.23,0,0,0,.175-0.645,1,1,0,0,0-.058-0.293,2.89,2.89,0,0,0-1.231-1.113l-1.113-.586a3.849,3.849,0,0,0-1.758-.586l-2.929.586-5.45.938,0.118-3.574,5.742-.879,1.406-.352a2.569,2.569,0,0,0,1.055-.352,0.705,0.705,0,0,0,.175-0.352,1.348,1.348,0,0,0-.175-0.527A3.517,3.517,0,0,0,183.6,87a4.929,4.929,0,0,0-1.582-.41l-2.579.469-2.695.586,0.234-1.523a6.587,6.587,0,0,1,.235-1.406,1.815,1.815,0,0,0,.234-0.7,1.022,1.022,0,0,0-.293-0.586,2.6,2.6,0,0,0-1.113-.644c-0.548-.156-1-0.273-1.348-0.352a9.417,9.417,0,0,1-1.23-.234l2.4-.176a23.079,23.079,0,0,0,2.7-.117,0.762,0.762,0,0,0-.468-0.058l7.265-.469h2.051a8.518,8.518,0,0,0,1.055-.059,1.437,1.437,0,0,0,.586-0.234,0.344,0.344,0,0,0,.176-0.293V80.734a1.007,1.007,0,0,0-.176-0.469,5.289,5.289,0,0,0-1.289-1.055,6.788,6.788,0,0,0-1.465-.82,2.256,2.256,0,0,0-1.113-.234l-2.93.469-6.387.82,0.528-.879a2.879,2.879,0,0,0,.234-1.348,2.732,2.732,0,0,0-.234-1.113,2.7,2.7,0,0,0-1.055-1.055,11.856,11.856,0,0,0-2.754-1.113l-1.7-.469a2.533,2.533,0,0,0-.645-0.117,0.571,0.571,0,0,0-.41.117,0.4,0.4,0,0,0-.176.352,0.856,0.856,0,0,0,.235.469l0.7,1.113q0.7,1.114,1.23,1.875,0.468,0.7,1.7,2.344L162.8,81.086l-5.684.645q-1.23.176-1.465,0.234a0.344,0.344,0,0,0-.234.293v0.117a0.332,0.332,0,0,0,.117.234,0.789,0.789,0,0,0,.527.352l1.055,0.586,0.41,0.762a5.712,5.712,0,0,1,.293,1.113,7.093,7.093,0,0,1,.118,1.055v0.234q0,0.352-.176,2.93-0.236,2.579-.586,5.332a33.681,33.681,0,0,1-1.524,6.269q-1.113,3.516-2.4,6.563-1.349,2.988-2.344,4.98a26.885,26.885,0,0,1-2.168,3.574A23.818,23.818,0,0,1,146.629,119l-1.055,1.113a1.118,1.118,0,0,0-.41.7,0.294,0.294,0,0,0,.293.293,1.291,1.291,0,0,0,.586-0.293l1.523-1.054a14.594,14.594,0,0,0,2.461-1.992,22.028,22.028,0,0,0,2.344-2.637,35.491,35.491,0,0,0,2.344-3.867,36.607,36.607,0,0,0,1.875-3.809,31.2,31.2,0,0,0,1.465-4.1q0.761-2.579,1-3.516l0.7-3.047q0.468-1.991.7-3.574l1.055-6.621a7.336,7.336,0,0,1,.234-1.055q0.117-.352.352-0.937a1.374,1.374,0,0,0,.117-0.469,3.531,3.531,0,0,0-.352-0.469l2.227-.293q3.867-.527,4.629-0.644,0.761-.058,1.64-0.117,0.879-.117,1.934-0.234Zm1.231,17.109-6.035.7-0.586-3.984,6.621-.879v4.16Zm-0.117,5.859-5.157.352-0.468-4.1,5.683-.117Zm7.207-1h-0.176a8.45,8.45,0,0,0-1.055.117q-1,.177-2.578.352l0.117-3.809,4.336-.527q0.175,0,2.11-.293l-1.348,4.453Zm-3.633-9.316,5.508-.586h0.82a4.755,4.755,0,0,1,.586.234,0.869,0.869,0,0,1,.293.41,1.557,1.557,0,0,1,.059.469,5.033,5.033,0,0,1-.059.644L183.6,97.844q-0.06.527-.235,1.582l-1.933-.645a4.881,4.881,0,0,0-1.055-.176,7.562,7.562,0,0,0-1.406.176q-0.822.118-2.461,0.469Zm43.594,7.031q0-1.99.058-2.578l0.059-.644a6.592,6.592,0,0,1,.234-1.348,5.3,5.3,0,0,0,.352-1.289,1.417,1.417,0,0,0-.821-0.762,6.281,6.281,0,0,0-1.64-.645,16.022,16.022,0,0,0-1.7-.234,2.775,2.775,0,0,0-.528-0.059,0.845,0.845,0,0,0-.7.234,1.057,1.057,0,0,0-.176.527,6.345,6.345,0,0,0,.352.879,4.441,4.441,0,0,1,.469,1.231q0.117,0.586.293,2.168,0.115,1.582.117,2.168l0.234,12.657-4.453.469-5.449.351-2.168.117a3.383,3.383,0,0,0-1.289.293,0.876,0.876,0,0,0-.235.41,0.809,0.809,0,0,0,.293.528,5.175,5.175,0,0,0,1.465.937,18.256,18.256,0,0,0,1.992.821,6.552,6.552,0,0,0,1.465.234h0.117a5.08,5.08,0,0,0,1.583-.352q1.23-.351,3.75-0.82l2.695-.527q2.343-.353,5.683-0.7t6.973-.645q3.749-.292,5.508-0.41,1.875-.117,5.976-0.117l7.5-.117,5.274-.059,2.344-.117h0.468a2.357,2.357,0,0,0,.645-0.059,0.847,0.847,0,0,0,.527-0.586v-0.058a1.574,1.574,0,0,0-.41-0.879,5.988,5.988,0,0,0-1.523-1,22.645,22.645,0,0,0-2.52-1,7.417,7.417,0,0,0-2.109-.469,10.7,10.7,0,0,0-1.817.293q-1.349.294-3.222,0.527l-4.453.586q-1.173.118-2.168,0.234L232,113.2l0.176-13.828,1.172,0.234a4.927,4.927,0,0,0,1.347.234h0.352a17.311,17.311,0,0,0,2.871-.293l2.695-.527q3.165-.468,3.575-0.586l1.347-.352c0.312-.078.645-0.176,1-0.293a0.786,0.786,0,0,0,.528-0.7,1.245,1.245,0,0,0-.586-0.82,7.344,7.344,0,0,0-1.875-.82,2.815,2.815,0,0,0-2.871-.059,21.96,21.96,0,0,1-2.989.879l-2.4.644-4.16,1.055,0.176-7.031a19,19,0,0,1,.175-2.227,18.1,18.1,0,0,1,.411-1.992,4.807,4.807,0,0,0,.175-1.055,1.262,1.262,0,0,0-.586-0.762,5.862,5.862,0,0,0-1.875-1l3.164-.469q4.1-.7,5.977-1.055l2.344-.527a2.686,2.686,0,0,0,1.406-.527,1.8,1.8,0,0,0,.469-0.41V80.617a1.881,1.881,0,0,0-.41-0.644,5.092,5.092,0,0,0-1.758-.879,7.549,7.549,0,0,0-1.934-.469,5.314,5.314,0,0,0-1.289.293q-0.879.294-2.812,0.82-1.994.527-3.4,0.762-1.405.352-6.269,1.113t-5.918.879l-2.344.234-1.289.176a1.4,1.4,0,0,0-1,.41,0.641,0.641,0,0,0-.059.293,0.779,0.779,0,0,0,.176.469,2.746,2.746,0,0,0,1.348.762,7.614,7.614,0,0,0,2.05.293h0.528a14.111,14.111,0,0,0,1.758-.117l5.507-.527,0.469,0.7a5.358,5.358,0,0,1,.7,1.992,15.775,15.775,0,0,1,.235,2.813l0.234,23.438-8.5.761Zm58.476-3.4,3.223,4.922a2.174,2.174,0,0,0,1.465,1.171,1.442,1.442,0,0,0,1.113-.527,1.8,1.8,0,0,0,.352-1.113v-0.176a3.619,3.619,0,0,0-.235-1.348,3.08,3.08,0,0,0-.82-1.23,5.141,5.141,0,0,0-1.524-1.113,17.684,17.684,0,0,0-1.757-.82l-1.875-.7,0.234-4.453,5.625-1.289a4.377,4.377,0,0,0,1.7-.586,1.2,1.2,0,0,0,.528-0.7V90.93a1.156,1.156,0,0,0-.7-0.7,8.4,8.4,0,0,0-1.64-.586,8.785,8.785,0,0,0-.938-0.059h-0.351q-0.175.059-.821,0.293a21.632,21.632,0,0,1-2.109.586l-1.055.293L279.344,87q0.117-2.343.234-3.106,0.117-.7.352-1.641a11.7,11.7,0,0,1,.351-1.465,3.735,3.735,0,0,0,.235-1.055V79.621a1.825,1.825,0,0,0-.645-0.879,6.015,6.015,0,0,0-1.348-.937,6.137,6.137,0,0,0-1.171-.644l-0.879-.293a3.772,3.772,0,0,0-.586-0.059,0.965,0.965,0,0,0-.528.117,1.025,1.025,0,0,0-.293.527v0.059a2.231,2.231,0,0,0,.293.879,7.1,7.1,0,0,1,.469,1.816q0.234,1.23.293,1.816T276.18,83.9l0.117,3.164V91.4l-5.449,1.055a19.011,19.011,0,0,1-2.989.469l-1.875.234a0.976,0.976,0,0,0-.7.352v0.059a0.8,0.8,0,0,0,.293.527,2.139,2.139,0,0,0,.938.586,4.75,4.75,0,0,0,1.816.352q0.938,0,2.285-.117a20.765,20.765,0,0,0,2.4-.352l2.461-.41-0.7,1.7a38.668,38.668,0,0,1-1.992,4.277q-1.055,2.052-2.578,4.453t-2.519,3.809q-1.056,1.349-2.168,2.578-1.056,1.173-1.582,1.7l-0.528.586a0.643,0.643,0,0,0-.234.41,0.186,0.186,0,0,0,.117.176,0.238,0.238,0,0,0,.176.058,0.934,0.934,0,0,0,.41-0.117l1-.527q0.468-.293,1.817-1.289a28.685,28.685,0,0,0,2.695-2.4,24.132,24.132,0,0,0,2.871-3.4,34.875,34.875,0,0,0,2.226-3.34l1.7-2.871-0.586,9.668q-0.118,1.115-.235,2.7a27.8,27.8,0,0,1-.351,2.872q-0.175,1.288-.469,2.578a8.232,8.232,0,0,0-.351,1.757,6.512,6.512,0,0,0,.117,1.289,7.387,7.387,0,0,0,.468,1.407l0.469,1.289a1.589,1.589,0,0,0,.469.7,0.937,0.937,0,0,0,.586.41,1.461,1.461,0,0,0,.586-0.41,4.081,4.081,0,0,0,.7-1.055,11.288,11.288,0,0,0,.469-1.054c0.078-.314.155-0.607,0.234-0.879q0.058-.411.117-2.93l0.117-11.133ZM303.426,83.2a15.883,15.883,0,0,1,.117-1.7l0.117-1.055a4.992,4.992,0,0,1,.469-1.582,6.533,6.533,0,0,1,.41-0.762,1.312,1.312,0,0,0-.469-0.879,2.939,2.939,0,0,0-.941-0.82,5.016,5.016,0,0,0-1.254-.7,6.442,6.442,0,0,0-1.374-.469,1.425,1.425,0,0,0-.708.117,0.635,0.635,0,0,0-.176.469,2.642,2.642,0,0,0,.235.879,10.727,10.727,0,0,1,.41,2.168q0.175,1.582.176,1.934a13.429,13.429,0,0,1,.117,1.348l-0.059-.059V83.43l-0.176,7.148V91.4a14.744,14.744,0,0,0,.118,2.051,6.437,6.437,0,0,0,.779,2.109,5.11,5.11,0,0,0,1.857,1.816,9.171,9.171,0,0,0,2.813,1.055,12.279,12.279,0,0,0,3.4.469,13.571,13.571,0,0,0,3.516-.469,11.5,11.5,0,0,0,2.929-1.055,4.537,4.537,0,0,0,1.875-1.406,2.294,2.294,0,0,0,.469-1V94.856a4.06,4.06,0,0,0-.41-0.82,7.237,7.237,0,0,1-.644-1.231,5.88,5.88,0,0,1-.469-1.406l-0.235-1.875-0.117-.937a0.638,0.638,0,0,0-.351-0.527H315.73a0.237,0.237,0,0,0-.234.293l-0.176,1.172a20.88,20.88,0,0,1-.527,2.285,5.238,5.238,0,0,1-.938,2.051,4.136,4.136,0,0,1-2.343,1.172,9.152,9.152,0,0,1-2.344.293q-0.645,0-1.289-.059a7.405,7.405,0,0,1-2.93-.645,3.615,3.615,0,0,1-1.406-1.172,4.642,4.642,0,0,1-.469-1.7q-0.058-.585-0.058-1.231,0-.585.058-1.23L303.25,87.3l1.113,0.117c0.273,0,.821-0.038,1.641-0.117q1.23-.234,2.109-0.352L311.1,86.3a7.808,7.808,0,0,0,2.109-.586,0.932,0.932,0,0,0,.762-0.762,1.813,1.813,0,0,0-.235-0.7,4.367,4.367,0,0,0-1.406-.762,4.215,4.215,0,0,0-1.348-.293h-0.293a2.734,2.734,0,0,0-.879.293q-0.645.235-2.812,0.879l-3.691,1.055Zm-12.832,6.563V89.113L292,88.938l3.281-.352,1.875-.469a3.229,3.229,0,0,0,1.289-.352A0.925,0.925,0,0,0,298.8,87.3V87.238a0.654,0.654,0,0,0-.41-0.527,4.847,4.847,0,0,0-1.348-.644,5.84,5.84,0,0,0-1.172-.293,1.809,1.809,0,0,0-.7.234,15.47,15.47,0,0,1-2.109.7l-2.4.762-0.058-1.055c0-.2.038-0.664,0.117-1.406q0.175-1.112.234-1.348a3.318,3.318,0,0,1,.235-0.762,2.724,2.724,0,0,0,.234-0.937,0.93,0.93,0,0,0-.469-0.644,3.275,3.275,0,0,0-1.054-.645,7.619,7.619,0,0,0-1.231-.41,4.619,4.619,0,0,0-1-.117,0.969,0.969,0,0,0-.937.293,0.4,0.4,0,0,0-.118.293,0.88,0.88,0,0,0,.235.527l0.41,0.644a5,5,0,0,1,.469,1.289q0.115,0.762.175,1.523,0,0.938-.117,5.215t-0.176,5.039q-0.059.762-.175,1.465a2.669,2.669,0,0,1-.41,1.113l-0.293.41a0.512,0.512,0,0,0-.059.234,1.419,1.419,0,0,0,.117.527,5.2,5.2,0,0,0,.41.938,4.575,4.575,0,0,0,.645,1,1.085,1.085,0,0,0,.762.586,1.6,1.6,0,0,0,.937-0.586l1.172-1.172,2.109-1.875,4.395-3.633,0.644-.586a0.475,0.475,0,0,0,.176-0.293,0.2,0.2,0,0,0-.176-0.176,0.631,0.631,0,0,0-.351-0.117,1.125,1.125,0,0,0-.352.059l-0.879.41-2.754,1.406-1.582.7a3.248,3.248,0,0,1-1.113.41,0.335,0.335,0,0,1-.234-0.059,0.683,0.683,0,0,1-.235-0.586V93.859l0.176-4.1h0.059Zm5.39,14.648,1.758-1.816q0.938-1,1.406-1.406l0.938-.762a2.918,2.918,0,0,0,.352-0.41V99.836a1.219,1.219,0,0,0-.352-0.762,6.991,6.991,0,0,0-1.055-.879,6.03,6.03,0,0,0-1.347-.7,2.28,2.28,0,0,0-.938-0.293,0.524,0.524,0,0,0-.234.059,0.794,0.794,0,0,0-.528.352,0.822,0.822,0,0,0-.058.352,3.515,3.515,0,0,0,.058.527,1.3,1.3,0,0,1,.059.41,3.488,3.488,0,0,1-.234,1.172,9.861,9.861,0,0,1-.821,1.992,13.362,13.362,0,0,1-1.054,1.876q-0.528.82-1.348,1.933l-1.641-.644a3.729,3.729,0,0,0-1.054-.235,0.482,0.482,0,0,0-.352.117,0.744,0.744,0,0,0-.293.411v0.117a2.231,2.231,0,0,0,.293.879,4.114,4.114,0,0,1,.41,1.582,14.708,14.708,0,0,1,.117,1.933l-0.058,5.742a11.356,11.356,0,0,1-.235,1.934,12.526,12.526,0,0,1-.293,1.406,4.059,4.059,0,0,0-.175.938,4.977,4.977,0,0,0,.41,1.7,7.4,7.4,0,0,0,.937,1.758,1.141,1.141,0,0,0,.645.586,1.333,1.333,0,0,0,.469-0.235,1.63,1.63,0,0,0,.351-0.82l0.235-1.055,13.593-.937,0.117,1.348a6.6,6.6,0,0,0,.176,1.113,4.895,4.895,0,0,0,.469,1.406,1.011,1.011,0,0,0,.7.527h0.117a1.181,1.181,0,0,0,.7-0.351,5.557,5.557,0,0,0,.821-1.113,9.277,9.277,0,0,0,.644-1.172,3.794,3.794,0,0,0,.235-1.407l-0.176-2.695,0.058-7.265a21.512,21.512,0,0,1,.118-2.637,6.712,6.712,0,0,1,.586-1.7,1.992,1.992,0,0,0,.351-0.879,1.262,1.262,0,0,0-.586-0.762,8.355,8.355,0,0,0-1.758-1.172,11.262,11.262,0,0,0-1.7-.82,2.79,2.79,0,0,0-.762-0.117,4.2,4.2,0,0,0-1.113.293q-0.762.234-2.344,0.585-1.581.294-2.285,0.411l-5.449.937ZM292.7,114.484l1.406,0.235h1.407a10.426,10.426,0,0,0,1.406-.235l1.406-.234,7.91-1.172v6.445l-1.7-.82a4.1,4.1,0,0,0-1.406-.351l-2.227.293-8.437,1Zm0.117-6.972,1.289-.059a15.67,15.67,0,0,0,2.227-.469q1.875-.408,3.691-0.7,1.817-.233,3.809-0.351a3.149,3.149,0,0,1,1.582.234,4.022,4.022,0,0,1,.41.82,3.651,3.651,0,0,1,.293,1.348l0.117,3.574-1.347-.351a3.93,3.93,0,0,0-3.282,0,23.086,23.086,0,0,1-3.222.586l-5.684.879Zm53.789-25.254a5.156,5.156,0,0,1,.7-1.758,4.157,4.157,0,0,0,.586-0.82,1.241,1.241,0,0,0-.586-0.82,7.789,7.789,0,0,0-1.171-.937,5.941,5.941,0,0,0-1.407-.7,3.783,3.783,0,0,0-1.113-.234,4.951,4.951,0,0,1-.762.352q-0.586.235-2.168,0.762a27.38,27.38,0,0,1-2.636.762l-4.336,1-1.172-.527a6.954,6.954,0,0,0-1.875-.469,0.932,0.932,0,0,0-.762.234,0.476,0.476,0,0,0-.117.352,1.081,1.081,0,0,0,.059.352l0.468,1.465q0.117,0.527.352,1.816l1.23,10.84-1.172.234a2.483,2.483,0,0,1-.761.117q-0.7.059-2.344,0.293l-0.586-.82a0.189,0.189,0,0,0-.176-0.117,0.9,0.9,0,0,0-.351.117,1.186,1.186,0,0,0-.293.7,6.922,6.922,0,0,1-.293,1.055q-0.175.47-.528,1.231l-0.7,1.582a3.467,3.467,0,0,0-.527,1.172,6.694,6.694,0,0,0-.059.938,3.5,3.5,0,0,0,.176,1.113,1.489,1.489,0,0,0,.7.762,1.42,1.42,0,0,0,.528.117,0.953,0.953,0,0,0,.586-0.176,3.256,3.256,0,0,0,1-1.347,8.894,8.894,0,0,0,.7-1.934,7.4,7.4,0,0,0,.234-1.582,2.939,2.939,0,0,0,0-1.172l3.926-.645,5.566-.879q2.813-.409,4.746-0.82a17.125,17.125,0,0,1,2.989-.352,1.219,1.219,0,0,1,.7.234,0.3,0.3,0,0,1,.117.293,1.863,1.863,0,0,1-.117.527,9.535,9.535,0,0,1-.41,1.113,9.278,9.278,0,0,1-.645,1.172l-0.41.644a0.459,0.459,0,0,0-.059.176,0.394,0.394,0,0,0,.118.293,0.234,0.234,0,0,0,.175.059,0.564,0.564,0,0,0,.293-0.117l0.821-.586q0.761-.527,1.7-1.113a11.315,11.315,0,0,1,1.406-.7q0.41-.176,1.172-0.41A1.2,1.2,0,0,0,351,94.621a0.53,0.53,0,0,0,.058-0.234,0.946,0.946,0,0,0-.117-0.41,2.609,2.609,0,0,0-.937-0.937,6.623,6.623,0,0,0-1.172-.82,8.334,8.334,0,0,0-1.406-.645,3.564,3.564,0,0,0-1.289-.352h-0.118a4.425,4.425,0,0,0-1.464.41Zm-7.324,3.75,0.469,0.117h0.117a2.46,2.46,0,0,0,.586-0.117q0.585-.176,1.055-0.352l1.523-.644-0.469,7.09-1.933.352a12.67,12.67,0,0,1-1.817.352Zm-3.574,7.324q-0.236.059-1.348,0.234h-0.058l-0.586-11.895,6.839-1.758a5.654,5.654,0,0,1,1.533-.234,1.132,1.132,0,0,1,.354-0.059,0.966,0.966,0,0,1,.707.234,2.01,2.01,0,0,1,.176,1.055v0.41l-0.176,2.637-0.946-.176a5.067,5.067,0,0,0-.65-0.058h-0.237a6.153,6.153,0,0,0-1.183.41l-1.006.469-0.946-.352q-0.533-.176-1.124-0.352a1.96,1.96,0,0,0-.587-0.117,0.479,0.479,0,0,0-.352.117,0.336,0.336,0,0,0-.117.234,0.237,0.237,0,0,0,.058.176,1.779,1.779,0,0,0,.176.645,2.555,2.555,0,0,1,.235.82q0.057,0.411.117,1.406l0.293,5.918Zm15.82,3.164A2.327,2.327,0,0,0,352,97.844a1.063,1.063,0,0,0,.762.352,0.864,0.864,0,0,0,.644-0.469,4.2,4.2,0,0,0,.352-1.172l13.242-1,0.645,1.113a0.917,0.917,0,0,0,.644.469h0.117a1.618,1.618,0,0,0,1.055-.586,9.774,9.774,0,0,0,1.289-2.461l2.168-6.152a3.416,3.416,0,0,1,.527-1.231,3.5,3.5,0,0,1,.645-0.7,1.707,1.707,0,0,0,.469-0.645V85.3a1.606,1.606,0,0,0-.586-1,6.649,6.649,0,0,0-1.934-1.23,17.3,17.3,0,0,0-1.875-.762,4.147,4.147,0,0,0-.937-0.234,5.9,5.9,0,0,0-1.407.293l-1.992.469,0.586-4.1a6.773,6.773,0,0,1,.469-1.992,2.658,2.658,0,0,0,.293-0.937V75.7a1.424,1.424,0,0,0-.352-0.7,3.254,3.254,0,0,0-1.465-.879q-1.171-.409-1.757-0.644a2.533,2.533,0,0,0-.645-0.117,0.478,0.478,0,0,0-.352.117,1.293,1.293,0,0,0-.234.527v0.117a3.466,3.466,0,0,0,.176.938q0.234,0.762.351,1.289a4.732,4.732,0,0,1,.059.938q0,0.7-.059,1.875l-0.351,4.512-3.985.644V78.742a1.43,1.43,0,0,1,.118-0.527,1.6,1.6,0,0,0,.234-0.527,0.726,0.726,0,0,0-.176-0.41,3.331,3.331,0,0,0-.761-0.469,11.592,11.592,0,0,0-1.231-.41l-1.23-.234a1.125,1.125,0,0,0-.879.234,0.623,0.623,0,0,0-.117.352v0.117a6.078,6.078,0,0,0,.351,1,5.979,5.979,0,0,1,.41,1.816l0.352,4.863-3.516.293-2.812-.762a1.453,1.453,0,0,0-.528-0.117,0.42,0.42,0,0,0-.41.234,1.007,1.007,0,0,0-.176.469v0.059a2.175,2.175,0,0,0,.645.762,3.067,3.067,0,0,1,.937,1.289,10.6,10.6,0,0,1,.469,1.582L351,93.215l0.058,1.113Zm4.278-10.371,0.41,3.4-3.164.469-0.41-3.633Zm-1.7,5.039a1.881,1.881,0,0,0,.7.117h0.293q0.7-.117,1.231-0.176l0.293,3.633-2.871.293-0.469-4.1Zm4.571-5.273,3.75-.469L362.254,88.7l-3.516.586Zm0.117,4.98,3.4-.469L361.9,94.094l-3.047.352Zm6.152-1h0.879q0.234,0,1.113-.117t1.993-.293l-0.762,2.7q-0.119.294-.586,1.758l-1.641-.293a2.079,2.079,0,0,0-.586-0.059c-0.273,0-.625.02-1.054,0.059Zm0.528-4.922L367,84.836a7.4,7.4,0,0,1,1.172-.117,1.552,1.552,0,0,1,.469.058,1.873,1.873,0,0,1,.7.527,1.1,1.1,0,0,1,.117.586A7.18,7.18,0,0,1,369.344,87l-0.293,1.582-2.52-.644h-0.117a9.573,9.573,0,0,0-1.348.176Zm-23.672,25.078-0.235,5.742a23.8,23.8,0,0,1-.292,2.461,1.215,1.215,0,0,1-.759,1.055,1.031,1.031,0,0,1-.467.117,1.556,1.556,0,0,1-.584-0.117,10.8,10.8,0,0,1-1.4-.644l-0.818-.411a0.662,0.662,0,0,0-.361-0.117,0.349,0.349,0,0,0-.24.117,0.237,0.237,0,0,0,0,.411l0.821,0.878a7.462,7.462,0,0,0,.761,1l0.938,1.23a9.874,9.874,0,0,1,.937,1.523,1.555,1.555,0,0,0,.7.879,0.514,0.514,0,0,0,.234.059,1.418,1.418,0,0,0,.762-0.352,3.747,3.747,0,0,0,1.289-1.523,6.167,6.167,0,0,0,.937-2.285,7.916,7.916,0,0,0,.176-1.934v-0.644q0-1.758-.059-3.692v-2.226l0.118-6.8a9.823,9.823,0,0,1,.234-2.344,4.758,4.758,0,0,1,.586-1.523c0.273-.39.429-0.625,0.469-0.7a1.173,1.173,0,0,0-.352-0.645,2.872,2.872,0,0,0-1-.879q-0.73-.468-1.348-0.82a2.355,2.355,0,0,0-1-.352,5.571,5.571,0,0,0-.766.293q-0.529.235-1.825,0.644-1.3.352-2.414,0.586l-3.358.7-0.942-.352a9.719,9.719,0,0,0-1.412-.293,1.023,1.023,0,0,0-.586.234,0.335,0.335,0,0,0-.059.234,1.673,1.673,0,0,0,.059.41l0.351,0.82a8.14,8.14,0,0,1,.235,1.348,9.445,9.445,0,0,1,.175,1.465l-0.058,3.047q-0.118,1.173-.235,2.988t-0.293,3.34a19.23,19.23,0,0,1-.585,3.047l-0.879,2.871q-0.587,1.406-.879,2.168l-0.645,1.289-0.234.527a0.64,0.64,0,0,0-.059.293,0.514,0.514,0,0,0,.059.235,0.188,0.188,0,0,0,.176.117,0.647,0.647,0,0,0,.41-0.235l0.41-.351a3.939,3.939,0,0,0,1-1,11.96,11.96,0,0,0,1.289-2.051q0.7-1.405,1.172-2.578a9.352,9.352,0,0,0,.586-1.934,12.642,12.642,0,0,0,.351-1.23l0.7,0.586a2.47,2.47,0,0,0,1.171.82,1.463,1.463,0,0,0,.645.176,0.643,0.643,0,0,0,.293-0.059,1.471,1.471,0,0,0,.469-0.41l0.82-1q0.585-.7.7-0.82t1.172-1.114l2.93-2.578v0.293Zm-3.633.586q-1.29.645-1.817,0.879l-1.347.527a7.8,7.8,0,0,0-1.055.352c-0.2.039-.449,0.079-0.762,0.117l0.176-1.113q0-.058.176-1.465t0.234-2.7c0.039-.859.078-1.407,0.118-1.641q0.057-.409.175-1.582l0.594,0.527a5.865,5.865,0,0,0,.948.821l1.542,1.172a5.452,5.452,0,0,0,1.423.82,2.92,2.92,0,0,0,1.06.234h0.175a1.848,1.848,0,0,0,1-.293,0.924,0.924,0,0,0,.41-0.879v-0.175a1.767,1.767,0,0,0-.586-1.231,4.567,4.567,0,0,0-1.641-.82,12.815,12.815,0,0,0-1.958-.469q-0.831-.117-1.424-0.176c-0.436-.038-0.948-0.1-1.54-0.175v-0.059l0.118-.645,0.117-.761a2.971,2.971,0,0,0,.117-1l3.34-.528q1.347-.175,2.343-0.293a1.681,1.681,0,0,1,1.231.293,1.19,1.19,0,0,1,.352.645q0,0.411.058,1.406l0.059,6.445Zm23.2,1.758,4.805-.469h0.937a2.545,2.545,0,0,0,1.289-.351v-0.117a0.94,0.94,0,0,0-.468-0.586l-0.7-.469,0.7-1.172a10.362,10.362,0,0,1,1.523-1.875,4.843,4.843,0,0,0,.82-0.7v-0.117a1.412,1.412,0,0,0-.293-0.821,2.955,2.955,0,0,0-.937-0.879q-0.647-.408-1.7-1a3.784,3.784,0,0,0-1.582-.586q-0.177.06-.762,0.293a9.355,9.355,0,0,1-1.172.352q-0.587.058-2.754,0.41l-7.207,1.055-1.289-.235-1.055-.175a3.949,3.949,0,0,0-.644-0.059,0.679,0.679,0,0,0-.469.117,0.508,0.508,0,0,0-.176.352v0.117a2.132,2.132,0,0,0,.41.527,6.9,6.9,0,0,1,.7.879,3.848,3.848,0,0,1,.586,1.465l0.7,3.75a5.267,5.267,0,0,0,.41,1.406,4.3,4.3,0,0,1,.293.645l-0.059.469a1.373,1.373,0,0,0,.352.527q0.292,0.411.351,0.469l2.227,4.277-3.633.352q-1.641.233-2.754,0.293-1.113.115-2.4,0.175l-1.992.117a0.673,0.673,0,0,0-.469.118,0.393,0.393,0,0,0-.117.293v0.058a0.654,0.654,0,0,0,.351.528,13.444,13.444,0,0,0,1.289.879,2.682,2.682,0,0,0,1.524.585H348.6q0.233-.059,1.757-0.351,1.464-.294,3.926-0.645,2.4-.351,3.809-0.527,1.288-.118,4.394-0.234,3.1-.177,4.864-0.235,2.166,0,4.8.117,2.7,0.059,2.93.059h0.7a0.847,0.847,0,0,0,.7-0.293,0.481,0.481,0,0,0,.117-0.352,1.378,1.378,0,0,0-.175-0.585,3.218,3.218,0,0,0-1.582-1.172,6.1,6.1,0,0,0-1.758-.586h-0.762l-2.4.234-2.813.293q-1.173.117-3.574,0.293l2.637-2.754a4.323,4.323,0,0,1,1.23-1.055,1.626,1.626,0,0,0,.645-0.527,0.241,0.241,0,0,0,.058-0.176,1.055,1.055,0,0,0-.175-0.527,3.335,3.335,0,0,0-1.055-1.055,9.436,9.436,0,0,0-1.289-.761,2.766,2.766,0,0,0-.762-0.176,0.343,0.343,0,0,0-.234.058,1.7,1.7,0,0,0-.293.821,9.35,9.35,0,0,1-.352,1.582,25.916,25.916,0,0,1-1.055,2.636l-0.878,1.993-3.926.293,0.234-1.172a1.938,1.938,0,0,0,.059-0.469,1.883,1.883,0,0,0-.528-1.289,5.815,5.815,0,0,0-1.523-1.289l-1.992-1.113,0.351-.645a7.187,7.187,0,0,0,.235-0.937Zm-6.68-3.633-0.117-1.582,2.344-.586,3.047-.469a17.846,17.846,0,0,1,3.281-.468,2.859,2.859,0,0,1,.645.058,1.887,1.887,0,0,1,1.23.645,1.558,1.558,0,0,1,.059.469,2.8,2.8,0,0,1-.059.527l-0.527,2.7-9.668,1.055Zm-2.226-7.734v0.117a0.84,0.84,0,0,0,.293.586,2.718,2.718,0,0,0,1.172.527,6.706,6.706,0,0,0,1.347.176q0.468,0,2.11-.117l3.164-.352,3.75-.527q1.406-.117,1.64-0.176l0.762-.117a3.832,3.832,0,0,0,.938-0.293,0.7,0.7,0,0,0,.351-0.41v-0.059a0.874,0.874,0,0,0-.644-0.586,7.4,7.4,0,0,0-1.7-.527q-1.054-.117-1.347-0.117a4.96,4.96,0,0,0-.821.117l-1.172.234q-0.351.059-2.343,0.352t-2.11.293l-2.812.293-1.524.176a1.485,1.485,0,0,0-1.054.41h0Z"/>
</svg>
