<svg xmlns="http://www.w3.org/2000/svg" width="1540" height="1450" viewBox="0 0 1540 1450">
  <defs>
    <style>
      .cls-1 {
        fill: #fff;
      }

      .cls-1, .cls-2, .cls-3 {
        fill-rule: evenodd;
      }

      .cls-2 {
        fill: #fefefe;
      }

      .cls-3 {
        fill: #fdfdfd;
      }
    </style>
  </defs>
  <path id="字体名称" class="cls-1" d="M451.213,347.334v-109.4h-21.4v-44.6h24.8v-9.6h-24.8v-24.2h-9.6v24.2h-24.8v9.6h24.8v44.6h-21.4v109.4h52.4Zm50-66.6v-9.6h-30.2l1.4-43h28.8v-9.6h-28.6l1.4-46.8h33.2v166.8h-16v9.6h25.6v-186h-52.2l-5.4,187.6h9.6l2-69h30.4Zm-59.6,57h-33.2v-90.2h33.2v90.2Zm203.2-141.8h-14l-11.4,10.4-12.6-22.2h37.2v-9.6h-42.6l-8.4-15.2h-11.2l8.4,15.2h-17.6v9.6h23l16.2,29.2-43.6,39.8h13.8l34.4-31.4,16.8,29.8h11.4l-20.6-36.6Zm-79.2,150.8v-184h-42v184h42Zm-13.8-87v-9.6h-18.6v-77.8h22.8v164.8h-22.8v-77.4h18.6Zm92.2,88.2v-9.6h-18.2v-64.4h18.2v-9.6h-71.4v9.6h15.2l-16.6,75.6h9.8l16.8-75.6h18.4v74h27.8Zm122.4-130v-44h-32.4v-14.6h-9.6v14.6h-37.6l-5.4,176h9.8l3-104.4h59l-20.8,38.6-15.4-28h-11.4l21.2,38.4-29.6,55.4h11.2l24.2-45,25.6,46h11.4l-31.4-56.6,26-48.6v-9.8h-30.2v-52.4h22.8v34.4h9.6Zm-90.4-22.4-20.6-35.6h-10.6l20.6,35.6h10.6Zm18.4,40.4,1.6-52.4h28.4v52.4h-30Zm-18.4-2.2-20.6-35.8h-10.6l20.6,35.8h10.6Zm-2.6,20.2h-10l-18.6,95.2h9.8Zm221,54.4v-9.6h-11.2v-107h-46v-12.8h56.2v-9.6h-56.2v-9.4h-9.6v9.4h-57v9.6h57v12.8h-45.8v107h-11.8v9.6h124.4Zm-26.2-53.8v-9.6h-76.8v-17.4h76.8v-9.6h-76.8v-16.6h82.2v97.4h-82.2v-17.2h76.8v-9.6h-76.8v-17.4h76.8Zm-64.2,59.2h-11.8l-22,36.4h11.8Zm90.6,36.4-22-36.4h-12l22,36.4h12Zm42-189.8h-9.8v130.6l-12.8,59h9.8l12.6-57.2Zm50.6,188.6v-157.6h17.6v124.4h-12v9.6h21.6v-143.6h-27.2v-21.2h-9.6v21.2h-27v144.6h9.6v-135h17.4v157.6h9.6Zm-75.4-26.4v-145.8h-9.6v145.8h9.6Zm134.4,30.2v-168.2l10.6-27.8h-11l-25.2,66h11l5-13v143h9.6Zm79.8-36.8v-9.6h-21v-124.6h39v-9.6h-39v-15.2h-9.6v15.2h-39v9.6h39v124.6h-22.6v9.6h22.6v34h9.6v-34h21Zm-44.2-125h-9.8l-15.4,159.4h9.8Zm60.4,159.4-16.6-159.4h-9.6l16.6,159.4h9.6Z"/>
  <path id="中文示例" class="cls-2" d="M485.947,765.837v-4.8h-16.8l0.8-22.3h16v-4.8h-15.8l0.9-24h17.4v84.8h-8.8v4.8h13.6v-94.4h-26.8l-3.4,94.2h4.8l1.2-33.5h16.9Zm-27.1,32.4v-92h-23.9v92h23.9Zm-7.9-43.5v-4.8h-11.2v-38.9h14.3v82.4h-14.3v-38.7h11.2Zm94.6,12.2v-4.8h-42.1l0.8-23.3h41.3v-4.8h-41.2l0.8-24.5h44.1v84.7h-20.1v4.8h24.9v-94.3h-53.6l-2.9,94.6h4.8l1-32.4h42.2Zm72.9,32.3v-45.5h-4.8v40.7h-22.5v-48h27.3v-42.6h-4.8v37.8h-22.5v-37.8h-4.8v37.8h-21.5v-37h-4.9v41.8h26.4v48h-22.2v-40.7h-4.8v45.5h59.1Zm62.6-51.6v-4.8h-27.6v-33.2h27.6v-4.8h-59.7v4.8h27.3v33.2h-27.3v4.8h24.9l-26.1,51.7h5.4l25.548-50.6,25.652,50.6h5.2l-26.1-51.7h25.2Zm62.7,49.7v-86.6h-4.8v81.8h-22.8v-88h-4.8v88h-22.7v-81.8h-4.8v86.6h59.9Zm66.3-73.5v-8.3h32.6v8.3h4.8v-8.3h9.9v-4.8h-9.9v-6.4h-4.8v6.4h-32.6v-6.4h-4.8v6.4h-9.9v4.8h9.9v8.3h4.8Zm43.9,25.4-7.3-20.5h-40.9l-7.4,20.5h5.2l5.5-15.7h34.2l5.5,15.7h5.2Zm0.6,48.8v-4.8h-47.4v-35.3h38.8v18.5h-24v4.8h28.8v-28.1h-48.4v44.9h52.2Zm17.9-74.3v-8.3h32.6v8.3h4.8v-8.3h9.8v-4.8h-9.8v-6.4h-4.8v6.4h-32.6v-6.4h-4.8v6.4h-9.8v4.8h9.8v8.3h4.8Zm45.5,16.7v-4.8h-17.6v-7h-4.8v7h-17.6v4.8h6.6v57h31.5v-4.8h-26.7v-52.2h28.6Zm-41.82,2.7-10-11.7h-5.9l10,11.7h5.9Zm0,17.6-10-11.7h-5.9l10,11.7h5.9Zm-0.7,8.5h-5l-10.5,30h4.9Zm105.819-56.8v-4.8h-60.2v4.8h60.2Zm-0.8,85.7-5.9-38h-4.9l5.1,33.2h-46.6l10.5-47.4h42.7v-4.8h-60.2v4.8h12.6l-11.6,52.2h58.3Zm62.5-83v-4.8h-36.3v-6.1h-4.8v10.9h41.1Zm-44.8,7.7-10.3-17.9h-5.3l10.3,17.9h5.3Zm46.6,35.2v-4.8h-4.4v-32.4h-36.6l-0.5,32.4h-3.8v4.8h3.7l-0.5,31.7h32.9v4.6h-11.3v4.8h16.1v-9.4h3.8v-4.6h-3.8v-27.1h4.4Zm-46.6-16.2-10.3-17.9h-5.3l10.3,17.9h5.3Zm37.4-16.2v27.6h-27.4l0.4-27.6h27Zm-8.9,22.2-4.2-17h-5l4.3,17h4.9Zm-29.8,4.1h-5l-9.3,47.6h4.9Zm38.7,33.2h-27.9l0.4-27.1h27.5v27.1Zm-8.8-5.5-4.2-16.6h-5l4.2,16.6h5Zm35.5-61.8-8.9-13.4h-5.5l8.7,13.4h5.7Zm41.9,81.1v-90.9h-38.7v4.8h33.9v81.3h-19.3v4.8h24.1Zm-50.7.5v-77h-4.8v77h4.8Zm36.6-20.3v-55.1h-27.7v55.1h27.7Zm-7.8-25.2v-4.8h-15.1v-20.3h18.1v45.5h-18.1v-20.4h15.1Zm-587.9,220.3-21.6-50.6h21.9v-4.8h-49.7v-39.1h-4.8v39.1h-7.2v4.8h7.2v50.7l30.9-8.3v-4.8l-26.1,7v-44.6h22.2l21.5,50.6h5.7Zm-0.2-94.6h-6.3l-29,32.6h6.3Zm63.2,93.7v-4.8h-8.2v-88.5h-46.8l-6.7,94.2h4.8l6.4-89.4h37.5v88.5h13Zm-16-9.2-14.3-35.5,14.3-35.5h-5.1l-11.7,29.2-11.7-29.2h-5.1l14.2,35.5-14.2,35.5h5.1l11.7-29.1,11.7,29.1h5.1Zm77.9,10v-4.8h-6.9l-0.2-88.4h-42.1l-8.6,93.4h4.9l8.1-88.6h32.9l0.2,88.4h11.7Zm58.6-1v-63.4h-44.4l1.7-24.6h46.1v-4.8h-59.6v4.8h8.7l-6.1,88.2h4.8l4.1-58.8h39.9v53.8h-21.2v4.8h26Zm65.7-23.4v-4.8h-27.3v-15.8h25v-48.5h-54.8v48.5h25v15.8h-27.3v4.8h27.3v18.6h-27.3v4.8h59.4v-4.8h-27.3v-18.6h27.3Zm-52.3-47.2v-17.1h20.2v17.1h-20.2Zm45.2-17.1v17.1h-20.2v-17.1h20.2Zm-45.2,38.9v-17h20.2v17h-20.2Zm45.2,0h-20.2v-17h20.2v17Zm97-44.8h-5l-6.5,33.3h4.9l4.2-21.1h20.4v17h4.8v-21.8l-24.3-.1Zm-15.8,92.4v-90h-21.1v90h21.1Zm-4.8-4.8h-11.5v-80.4h11.5v80.4Zm31.3-68.6h-5l-17.3,75.9h4.9Zm13,75.9-12.1-56.8h-4.6l12.1,56.8h4.6Zm62.1-80.3v-4.8h-24.8v-9.5h-4.8v9.5h-27.2l-3.9,84.9h4.9l3.6-80.1h52.2Zm-7.9,32.6v-16.4h6.9v-4.8h-6.9v-5.4h-4.8v5.4h-26.2v-5.4h-4.8v5.4h-7.3v4.8h7.3v16.4h35.8Zm-4.8-4.8h-26.2v-11.6h26.2v11.6Zm12.6,52.6-22.4-18,21.5-19v-4.5h-47.5v4.8h39.3l-17.4,15.4-13.4-10.8h-8.2l17.7,14.3-20.2,17.8h7.7l16.5-14.6,18.2,14.6h8.2Zm62.3-45v-4.8h-27.8v-38.9h27.8v-4.8h-60.4v4.8h27.8v38.9h-27.8v4.8h27.8v38.7h-27.8v4.8h60.8l-4.7-30h-5l4,25.2h-22.5v-38.7h27.8Zm17.9-36.7-8.9-13.4h-5.5l8.7,13.4h5.7Zm42.2,80.2v-90h-38.7v4.8h33.9v80.4h-19.3v4.8h24.1Zm-50.7,1.4v-77h-4.8v77h4.8Zm114.5-77.1v-4.8h-14l5.6-14.1h-5.2l-5.6,14.1h-38.6v4.8h26.3v27.3h-26.3v4.8h24.5l-26.5,46.7h5.6l25.05-44,25.15,44h5.6l-26.7-46.7h25.1v-4.8h-26.7v-27.3h26.7Zm-39-6.7-5.5-12.2h-5.2l5.5,12.2h5.2Z"/>
  <path id="大写字母" class="cls-3" d="M277.848,522.166V518.71H261.36l5.256-28.152h7.7l9.36,52.272h3.384L277.2,487.1H263.736l-10.3,55.728H256.9l3.816-20.664h17.136Zm49.967-34.848H297.143v54.648h29.88v-29.16h-3.96Zm-4.176,3.456-4.1,22.032H300.6V490.774h23.04Zm-0.072,47.736H300.6V516.262h22.968V538.51Zm45.575,3.168v-3.456H341.35V491.206h27.792V487.75H337.894v53.928h31.248Zm40.248-15.963V488.038h-30.1v53.424H401.13Zm-3.456-.834-6.862,13.125H382.75V491.494h23.184v33.387Zm44.784,17.3v-3.456H423V516.55h27.72v-3.456H423V490.846h27.72V487.39H419.542v54.792h31.176Zm41.255-51.336V487.39H460.8v55.3h3.456v-26.28h27.72V512.95h-27.72v-22.1h27.72Zm41.183-.216v-3.456h-31.1V542.11h30.24V509.494h-21.24v3.456h17.784v25.7H505.508V490.63h27.648Zm13.608,52.056V516.478H568.8v26.208h3.456V486.742H568.8v26.28H546.764v-26.28h-3.456v55.944h3.456Zm39.023,0V486.742h-3.456v55.944h3.456Zm29.663-.288V486.67h-3.456v52.272H595.938V542.4H615.45Zm13.535,0.288V486.742h-3.456v55.944h3.456ZM654.761,487.1h-4.1l-16.992,26.352,16.92,29.232h3.96L637.7,513.526Zm41.04,55.3v-3.456H668.3V486.67h-3.456V542.4H695.8Zm40.751,0.36V487.1h-4.32L721.36,515.326,710.2,487.1h-4.32v55.656h3.456V494.446L721.36,524.9,733.1,494.59v48.168h3.456Zm39.239-.216V487.318h-3.456v49.9l-21.384-49.9h-4.32v55.44h3.456V493.8L770.9,542.542h4.9Zm39.816-.648V487.462H785.871v54.432h29.736Zm-3.456-3.456H789.327v-47.52h22.824v47.52Zm43.7-19.224v-31.9H825.686v55.368h3.456V519.214h26.712Zm-3.456-3.456H829.142V490.774H852.4v24.984Zm32.039,26.208,2.52,5.184h3.96l-2.52-5.184h7.272V487.39H865.933v54.576h18.5Zm2.232-3.456-2.3-4.752h-3.96l2.3,4.752h-13.32V490.846h22.824V538.51h-5.544Zm51.048,4.248-8.64-25.632h6.552V487.318H905.893v55.368h3.456v-25.56h16.056l8.64,25.632h3.672Zm-5.544-29.088H909.349v-22.9h22.824v22.9Zm46.44,28.08V513.166h-27.36v-22.1h23.9v6.552h3.456V487.606H947.8v29.016h27.36v21.672h-23.9v-6.84H947.8v10.3h30.816Zm28.3,1.008v-51.84h14.76v-3.456H988.692v3.456h14.758v51.84h3.46Zm54.5-.72V487.03h-3.45v51.552h-22.68V487.03h-3.46v55.008h29.59Zm43.49-54.576h-3.6L1087.69,537l-12.67-49.536h-3.53l14.11,55.224h4.18Zm43.49,0h-3.53l-4.11,44.928-6.62-44.928h-4.68l-6.77,45.144-4.17-45.144h-3.53l5.11,55.224h4.54l7.2-47.232,6.91,47.232h4.53Zm43.84,0h-3.96l-12.81,23.76-12.82-23.76h-3.96l14.76,27.432-14.97,27.792h3.96l13.03-24.12,12.96,24.12h3.96l-14.98-27.792Zm28.51,55.224v-32.04l15.41-23.544h-4.17l-12.96,20.016L1206.56,487.1h-4.1l14.83,23.688v31.9h3.45Zm65.02-55.224H1248.1v3.456h31.25l-33.12,50.9h37.51v-3.456h-31.1Z"/>
  <path id="logo" class="cls-1" d="M706.266,1194.7a45.969,45.969,0,0,0-.118,5.15v5.16H677.555v-1.17l0.234-.94-1.406-.24c-1.1,0-2.659-.07-4.688-0.23h-3.281l-0.469,2.58a45.646,45.646,0,0,1-1.172,4.92,22.619,22.619,0,0,1-1.406,4.22,7.125,7.125,0,0,0-.82,2.23,6.584,6.584,0,0,0,2.109-.71c1.326-.54,2.615-1.13,3.867-1.76a11.566,11.566,0,0,0,3.516-2.81l1.641-1.64h66.8l1.875,1.88a14.477,14.477,0,0,0,3.75,2.81c1.406,0.62,2.655,1.17,3.75,1.64a1.036,1.036,0,1,0,1.171-1.17,17.1,17.1,0,0,1-1.406-3.99q-0.7-2.34-1.172-4.68a11.9,11.9,0,0,0-.7-3.05c0-.47-1.252-0.62-3.75-0.47-1.875.16-3.281,0.23-4.219,0.23a2.052,2.052,0,0,1-.937.24c-0.315,0-.469.31-0.469,0.94l0.235,0.93-13.594.24q-13.359,0-13.36-.24a2.838,2.838,0,0,1,.7-1.05,6.664,6.664,0,0,0,1.171-2.46,15.728,15.728,0,0,0,.469-4.22v-2.58h-4.687Q706.382,1194.46,706.266,1194.7Zm-31.289,28.12v4.22l21.093,0.23h21.094l-5.859,4.93q-5.4,4.215-8.2,6.56l-2.344,1.87v6.8H660.445v4.22h40.313v14.76c0,10.01-.158,15.47-0.469,16.41a13.152,13.152,0,0,1-1.172,3.05,21,21,0,0,1-2.578,3.04,16.962,16.962,0,0,1-3.75,2.82c-1.406.62-2.109,1.17-2.109,1.64s0.153,0.7.468,0.7a30.375,30.375,0,0,0,3.047-.47,34.353,34.353,0,0,0,4.922-1.4,16.4,16.4,0,0,0,4.688-1.88,11.74,11.74,0,0,0,3.515-2.34,12.264,12.264,0,0,0,2.344-2.58,13,13,0,0,0,1.172-2.58c0.311-.94.469-6.4,0.469-16.41v-14.76h38.2v-4.22h-38.2v-6.8l2.109-1.64q2.109-1.635,8.438-6.79,6.327-5.4,8.437-7.04a13.637,13.637,0,0,0,2.578-2.34q0-.225-28.828-0.23t-29.062.23h0Zm121.64-30.23-0.469,1.87a27.635,27.635,0,0,1-1.523,5.74c-0.861,2.43-1.681,4.65-2.461,6.68q-1.176,2.58-3.281,6.8-1.88,3.75-4.453,8.44-2.11,3.75-4.688,7.73-2.582,4.215-3.047,4.92a7.818,7.818,0,0,0-1.406,2.11c-0.157.47-.117,0.71,0.117,0.71a8.252,8.252,0,0,0,2.227-1.18q1.873-1.17,3.515-2.34,1.874-1.41,3.985-3.28a59.714,59.714,0,0,0,4.453-4.45l2.109-2.35,0.235,14.77,0.234,14.76h1.875a5.862,5.862,0,0,0,3.047-.7,5.457,5.457,0,0,0,1.875-1.17,11.374,11.374,0,0,0,1.406-1.64l0.469-.71h27.187v2.11l0.235,2.11h1.64a7.437,7.437,0,0,0,2.813-.47,9.072,9.072,0,0,0,2.109-1.17,4.666,4.666,0,0,0,1.407-1.64l0.7-.94h31.64v-4.45H838.336v-6.8H868.57v-4.45H838.336v-6.8H868.57v-4.68H838.336v-7.5H868.57v-4.69H837.164l0.938-1.17a23.668,23.668,0,0,0,1.406-2.35,6.445,6.445,0,0,0,.7-2.57,17.74,17.74,0,0,0,.469-4.93v-3.51H828.727v14.53H815.6q-13.129,0-13.125-.23c0-.16-0.158-0.24-0.469-0.24s0.311-1.41,1.875-4.22a69.182,69.182,0,0,0,3.281-7.5,16.732,16.732,0,0,0,1.406-3.98l0.235-1.17H796.617Zm31.406,22.03v7.5H802.477v-7.5h25.546Zm0,12.18v6.8H802.477v-6.8h25.546Zm0,11.25v6.8H802.477v-6.8h25.546Zm-3.515,16.88v5.16l-22.969.23H778.805v4.45h45.7v1.64c0,1.1-.081,1.64-0.235,1.64a40.222,40.222,0,0,1-4.687-1.17q-4.455-1.17-4.922-1.4-0.236,0-6.328,4.68-6.1,4.935-7.734,6.1-1.643.93-4.454,2.58a58.967,58.967,0,0,1-5.39,2.57q-2.812,1.185-5.391,2.23a35.226,35.226,0,0,1-5.859,1.76,17.416,17.416,0,0,0-3.047,1.05,6.06,6.06,0,0,0,1.289,1.06,3.994,3.994,0,0,0,1.992.94c0.469,0,2.344-.32,5.625-0.94s6.328-1.33,9.141-2.11q4.449-1.17,8.2-2.35a22.822,22.822,0,0,0,4.922-2.1q1.637-.945,9.14-6.1t7.618-5.04q0.115,0.12.117,13.48v13.12h1.406a7.357,7.357,0,0,0,2.813-.7,6.692,6.692,0,0,0,3.046-1.99,11.184,11.184,0,0,0,2.11-3.17,8.733,8.733,0,0,0,.586-2.34q0.115-1.17.117-6.33c0.154-4.68.271-7.11,0.352-7.26s1.442,0.55,4.1,2.11q3.982,2.1,6.8,3.51a34.945,34.945,0,0,0,6.328,2.58,54.282,54.282,0,0,0,6.328,1.64,52.974,52.974,0,0,0,5.625.94c1.718,0.16,4.219.23,7.5,0.23a38.521,38.521,0,0,0,5.86-.23,1.37,1.37,0,0,0,1.171-.94l0.235-1.17c0-.15-0.235-0.24-0.7-0.24-0.315,0-1.722-.23-4.219-0.7s-5-1.01-7.5-1.64q-3.516-.93-6.8-2.11-2.812-.93-5.625-2.11-2.346-1.17-10.078-6.33l-7.734-5.15,19.453-.24h19.453v-4.45H854.977l-20.157-.23v-2.58l-0.234-2.58H824.508Z"/>
</svg>
