<svg xmlns="http://www.w3.org/2000/svg" width="1540" height="1450" viewBox="0 0 1540 1450">
  <defs>
    <style>
      .cls-1 {
        fill: #fff;
      }

      .cls-1, .cls-2, .cls-3 {
        fill-rule: evenodd;
      }

      .cls-2 {
        fill: #fefefe;
      }

      .cls-3 {
        fill: #fdfdfd;
      }
    </style>
  </defs>
  <path id="字体名称" class="cls-1" d="M366.539,126.609q19.524,20.508,21.484,42.969c0.641,5.219,1.954,7.813,3.907,7.813q15.609-1.946,15.625-20.508-5.86-14.649-39.063-32.227ZM476.891,180.32H276.7l5.86,8.789,11.718-2.929h79.1q-3.913,133.8-89.844,169.922l0.977,2.929q88.851-23.437,98.633-125.976h61.523q-0.984,6.843-1.953,18.554-4.9,59.578-10.742,70.313-5.86,11.718-49.805,2.93v2.929q35.157,6.82,33.2,25.391,25.383-7.829,33.2-24.414,4.875-8.79,9.766-61.524,0.961-16.593,1.953-22.461c0-.64,2.93-2.929,8.789-6.835l2.93-2.93q0-1.946-18.555-19.531Q442.7,227.2,440.758,227.2H384.117q5.859-31.242,6.836-41.015H514l0.977-1.953-24.415-20.508Zm238.281-23.437H546.227l7.812,9.765,14.649-3.906h72.265V337.547h-49.8V230.125q8.79-6.82,8.79-8.789,0.96-.962-20.508-8.789a35.582,35.582,0,0,1-4.883-1.953l0.976,37.109v89.844H528.648l7.813,7.812,14.648-1.953H759.117l0.977-1.953L732.75,319.969l-11.719,17.578h-62.5V244.773H734.7V243.8L714.2,224.266l-10.742,14.648H658.531V162.742h90.821l0.976-1.953-23.437-21.484Zm161.133,27.344H805.992l5.86,7.812,11.718-1.953h52.735V245.75H785.484l5.86,8.789,13.672-2.93h71.289V358.055q13.664-1.969,17.578-8.789l-0.977-97.657h85.938q-0.984,37.125-9.766,61.524-2.929,4.9-41.016,0v1.953Q951.5,319,953.453,336.57l0.977,2.93a51.388,51.388,0,0,0,27.343-14.648q6.822-10.736,10.743-57.618v-4.882c0.64-1.954,3.906-4.883,9.764-8.79l2.93-1.953q-4.89-7.8-20.507-17.578-0.984,0-4.883,4.883-4.9,6.843-6.836,6.836H955.406l4.883-48.828c0.641-.641,2.93-1.953,6.836-3.906l3.906-2.93q-11.718-12.68-18.554-16.6l-2.93,2.93c-4.563,5.219-7.492,7.813-8.789,7.813H892.906v-37.11q0-1.946,5.86-7.812c2.594-2.594,3.906-4.227,3.906-4.883q0-.961-26.367-9.766v59.571Zm61.523-41.993q25.383,10.758,43.945,34.18c3.907,4.562,6.5,6.836,7.813,6.836q11.718-11.718-.977-28.32-6.843-8.79-50.781-14.649v1.953Zm7.813,47.852v0.976l-5.86,54.688H892.906V190.086h52.735Zm179.689-62.5q12.675,10.758,15.62,28.32,0.96,5.859,2.93,7.813h-73.24l-1.95-16.6h-3.91q-1.965,34.2-22.46,43.945l-0.98.977q-7.815,5.859-.97,10.742,7.8,4.9,16.6.977,14.64-8.79,13.67-34.18h155.27q1.95-.961-10.74,22.461c-3.26,5.219-5.54,8.789-6.83,10.742l2.93,1.953q30.255-34.172,50.78-32.226c1.29,0.656,1.95.656,1.95,0q1.95-.962-23.44-20.508l-3.9-2.93q-0.99,0-10.75,14.649h-75.19q13.665-10.735,6.83-22.461-4.89-7.8-31.25-15.625Zm10.74,101.562H1034.51l5.86,8.79,13.67-2.93h69.34q-25.41,55.664-97.66,106.445l1.95,2.93q64.455-34.173,107.42-95.7,0.96,64.452-.97,110.351,7.8,0,17.58-5.859V235.008h3.9q22.455,67.383,78.13,95.7,9.75-13.665,28.32-13.672v-2.93q-72.285-13.663-99.61-79.1h92.77v-1.953l-25.39-20.508-13.67,16.6H1151.7V191.062a22.994,22.994,0,0,1,4.88-2.929l3.9-2.93q0-1.946-25.39-8.789,1.95,13.688.98,52.734h0Z"/>
  <path id="中文示例" class="cls-2" d="M335.453,696.984H317.094q-8.2-3.122-8.594-3.125,0.384,3.516.391,11.719v34.766q0.384,27.739-29.3,42.968l0.39,1.563q33.986-14.85,34.375-39.063h22.266v25q1.172,4.3-13.672,1.563a17.056,17.056,0,0,0-2.734-.391v1.563q12.5,2.343,13.281,9.765V783.7q9.759-3.13,9.766-9.375V767.3q-0.395-44.138-.391-65.235a8.3,8.3,0,0,0,1.953-1.562c1.3-.519,1.953-0.909,1.953-1.172a35.147,35.147,0,0,0-7.422-6.25,27.454,27.454,0,0,0-3.906,3.906h0Zm-45.7,5.078H276.078q-4.687-2.343-8.2-3.906,0,18.366-1.172,63.282,4.688-.779,6.25-2.344v-9.375h17.969v7.812q4.688-1.171,6.25-2.734l-0.391-47.656a14.951,14.951,0,0,1,2.735-1.953l1.172-1.172q-5.475-5.466-7.032-6.25Zm46.875,17.969H314.75V702.844q-0.393-3.9,4.688-3.516h17.187v20.7Zm-45.7,4.688H272.953V707.531q0-3.9,5.078-3.125h12.891v20.313Zm45.7,18.75H314.359q0.779-6.245.391-21.094h21.875v21.094Zm-45.7,3.906H272.953v-20.7h17.969v20.7Zm135.547-53.516-1.563,2.344c-1.043,1.563-1.7,2.344-1.953,2.344H390.922l-7.031-4.3q0,30.084-.391,42.578-0.393,13.284-1.562,19.141-4.3,14.85-21.876,26.562l0.782,1.172q28.509-12.112,28.515-39.453h34.766v23.438q0,5.081-1.172,5.078-2.343.393-16.015-1.172v1.172q14.447,2.727,13.281,10.156,10.93-2.344,10.937-10.156,0-6.245-.39-68.75,0-.779,2.343-2.735a2.277,2.277,0,0,0,1.172-1.172,58.408,58.408,0,0,0-7.812-6.25h0Zm-1.953,25.782H389.75v-16.8c0-1.3.391-1.953,1.172-1.953h33.594v18.75Zm0,22.265H389.75V721.984h34.766v19.922Zm77.734-9.765H480.766V711.828a6.3,6.3,0,0,1,2.343-1.953l1.172-.781-9.375-3.906v23.828a6.718,6.718,0,0,1-1.953,1.953l-1.172.781a37.889,37.889,0,0,0,5.469,5.859c0.256,0,.909-0.647,1.953-1.953l1.953-1.562H502.25v39.062H476.078V751.281q0-.384,2.734-2.343l0.782-.782-9.766-4.3v26.953a9.321,9.321,0,0,1-2.344,2.344l-1.172,1.172q0,0.384,6.25,5.078,0.385,0,3.907-3.906h58.2v8.594q5.072,0,6.64-3.516V752.062c0-.781.647-1.818,1.954-3.124l0.781-.391-9.375-4.3v28.906H508.5V734.094h22.266v3.515q4.688,0.394,7.031-2.343-0.395-8.982-.391-23.047c0-.519.647-1.172,1.953-1.953a2.28,2.28,0,0,0,1.172-1.172l-9.765-3.906v26.953H508.5V702.453q0-1.555,3.906-4.3l0.782-.39-10.938-4.688v39.063Zm127.344-30.86H569.828l1.953,3.516,5.078-1.172h24.61q0,8.2-1.172,25H562.016l2.734,3.516,5.859-1.172h29.3q0.386,31.64-39.453,50l0.781,1.562q45.31-14.447,45.7-51.562h0.781q5.466,35.943,31.64,48.437a18.115,18.115,0,0,1,12.11-4.3v-1.562q-32.812-6.638-41.407-42.578H650.3l0.391-1.172-8.985-7.031-4.687,5.859H606.938q0-1.95.39-7.031,0.779-13.275,1.172-17.969h33.984l0.391-.781-8.594-7.422ZM701.469,717.3v53.515h-24.61V721.594l1.563-1.563q2.728-1.555,2.344-1.953,0-.384-10.157-5.469l-0.39,56.641-1.953,1.562q-2.345,1.566-2.344,1.954a54.664,54.664,0,0,0,7.812,5.468l1.172-1.953c1.3-2.087,2.082-3.125,2.344-3.125h57.422v8.985q7.031-1.173,7.812-3.125,0-2.345-.39-10.157-0.788-24.993-.782-45.7c0-.256.647-0.909,1.954-1.953l1.953-1.562a72.358,72.358,0,0,0-10.938-5.079l0.391,56.25H708.109V702.844c2.6-1.819,3.907-2.863,3.907-3.125q-0.394-.386-10.938-4.688,0.384,2.738.391,22.266h0ZM840.141,706.75H817.484V700.5l0.782-.781q2.343-1.95,2.734-2.344l-9.375-4.3V706.75H785.453l1.563,3.125,4.3-.781h20.313v10.937q5.072-1.171,5.859-2.343v-8.594h22.657V719.25A8.822,8.822,0,0,0,846,717.3v-8.2h29.688V708.7l-8.594-8.2-5.078,6.25H846v-7.031l0.781-.781c1.819-1.038,2.735-1.691,2.735-1.954l-9.375-3.515V706.75Zm-57.032,44.141,0.391,1.171a122.848,122.848,0,0,0,23.438-11.718q0.384,8.989,0,24.218V775.5q-0.394,8.2,7.421,8.2,28.9,0.779,41.407,0,10.152,0.384,12.109-7.812c0-.263-0.262-0.391-0.781-0.391q-5.082-2.343-4.3-14.453h-1.172q-1.171,12.112-3.125,15.234-0.787,2.345-39.453,2.344-7.425.779-6.641-6.25,0-15.62.391-23.437-0.395-5.073,3.906-4.3h26.563q0,13.284-1.172,16.406-2.738,2.343-15.625-.781l-0.781,1.172q13.275,3.909,12.109,9.374,6.243-.384,10.547-6.64,0.779-1.557.781-9.766c0.256-3.125.391-5.725,0.391-7.812l4.3-2.735L846,737.219l-4.3,5.078H813.969l-5.078-3.516q10.152-6.243,21.875-19.14,12.1,16.022,37.5,26.171v-0.39q1.95-5.466,9.765-4.3v-1.563q-32.034-6.243-44.922-20.7l3.125-1.171-8.2-5.86q-14.85,23.053-44.922,39.063h0Zm153.125-44.532h-19.14v-7.031a4.281,4.281,0,0,1,1.562-2.734,1.11,1.11,0,0,0,.782-0.782q0-.384-8.2-3.515v14.062H883.109l2.735,3.516,3.515-1.172h21.875v13.281q2.345,0,5.86-2.343V708.7h19.14v12.109q2.345,0,6.25-3.124V708.7h29.688v-0.781l-7.813-8.594-5.859,7.031H942.484v-7.031a4.506,4.506,0,0,1,1.563-3.125,4.04,4.04,0,0,0,.781-1.562q-0.393-.385-8.594-3.516v15.234Zm-45.312,14.453q5.072,2.737,9.375,9.376,2.343,3.909,3.906,3.515,3.516-2.343,1.563-7.812-3.91-3.9-14.454-5.86Zm39.844,0.391q9.375,5.859,12.109,14.453H911.234l2.344,3.125,3.906-1.172h5.469v37.11l-1.562,1.172q-2.345,1.556-2.344,1.953a58.859,58.859,0,0,0,7.812,5.078l0.782-1.172q2.343-2.738,3.515-2.734h40.625l0.391-.782-8.594-7.422-5.469,5.86H929.2V737.609h45.313v-0.39l-8.594-7.813-5.078,6.25H944.828q4.295-4.293,1.563-8.984-1.961-2.344-14.844-6.641Zm-34.375,40.625q-0.394,1.959-7.813,1.563v1.171q6.245,1.566,7.031,4.3,0.385,1.173-1.171,8.594c-0.525,3.125-.782,4.816-0.782,5.078q3.9,5.073,7.813,3.125,0.384-.393,0-5.468-0.788-10.548,0-15.235,1.555-8.98,9.765-32.031a73.661,73.661,0,0,0,2.735-7.422l-1.563-.391q-13.677,32.813-16.015,36.719h0Zm-12.5-24.609q7.03,5.08,9.375,11.719c0.518,1.306,1.037,1.953,1.562,1.953q5.859-2.345,3.125-8.2-2.343-3.516-13.672-6.25Zm166.8-33.985H997.562l1.563,3.516,4.295-1.562h59.77l0.39-.782-8.99-7.422Zm10.15,27.344H986.234l2.344,3.516,4.3-1.172h31.645a195.851,195.851,0,0,1-14.46,25.781q-7.815,10.941-15.232,11.719l-0.39.39,5.862,8.2h0.78q10.935-3.132,55.47-7.422c0.25,0.781.64,2.087,1.17,3.906q1.17,5.466,3.12,5.078,7.425-3.909,2.74-13.672-6.645-10.93-22.27-21.875l-1.17.781q10.935,11.336,15.63,23.438-15.24.393-37.5,1.172-14.85.787-15.24,0.39,12.5-11.325,25-29.3a6.6,6.6,0,0,1,5.08-2.735c0.78-.256,1.17-0.519,1.17-0.781l-7.81-5.078h48.05v-0.781l-8.6-8.2Zm44.93-2.734,1.17,1.172q8.58-7.81,17.18-21.094h48.05l-8.2-7.422-5.08,5.078H1125.3a8.146,8.146,0,0,1,1.56-1.953q3.9-5.466,7.03-6.641,1.17-.384-7.03-4.3a174.554,174.554,0,0,1-21.09,35.156h0Zm-13.68-32.032a23.425,23.425,0,0,1,8.21,11.329,15.074,15.074,0,0,0,1.56,2.734c4.16-1.563,5.21-4.425,3.12-8.594q-2.34-3.514-12.1-6.64Zm10.55,31.25q-6.255,16.407-9.37,23.829-0.4,3.515-8.99,2.343v0.782q7.425,0.788,8.6,3.906,0.765,1.566-1.18,11.328a68.242,68.242,0,0,0-1.17,7.422q1.56,3.516,6.64,3.125,1.95-1.566,1.17-12.5a108.691,108.691,0,0,1-.39-15.235q1.95-9.759,13.28-43.75l-1.17-.39q0-1.172-7.42,19.14h0Zm-19.14-10.937a27.087,27.087,0,0,1,7.03,12.5c0.78,2.087,1.56,3.125,2.35,3.125q6.63-3.516,3.12-9.375-2.73-3.516-11.72-7.422Zm70.7,3.125h-27.73l-5.08-3.906-4.3,24.218h-11.71l1.56,2.735,1.95-.781h7.42q-0.39,1.959-1.17,5.859-1.56,11.334-2.34,12.5a6.118,6.118,0,0,1-3.13,3.125c3.38,3.125,5.34,4.688,5.86,4.688a3.67,3.67,0,0,0,1.56-1.172c0.79-1.038,1.18-1.429,1.18-1.172h33.98q-0.78,8.6-4.69,10.156-1.17.779-14.06-.781v1.172q12.105,2.727,11.33,8.984,7.8-3.13,9.37-5.469,3.525-4.3,4.3-14.062h15.23l0.79-.782-7.82-6.64L1162.41,763h-3.91l1.17-21.484h16.41l0.39-.391-7.81-7.031-4.3,5.468h-4.69q0-1.95.39-7.812a45.6,45.6,0,0,1,.39-7.422q0.39-1.555,3.13-3.125l0.78-.391-5.86-5.468Zm-26.17,2.344h26.95l-1.17,17.968h-31.25l2.74-16.015q0-1.95,2.73-1.953h0Zm4.3,1.562a22.71,22.71,0,0,1,5.47,12.11c0.25,2.087.91,2.868,1.95,2.343,3.38-1.562,4.3-4.3,2.73-8.2q-2.73-3.516-9.37-7.031Zm21.48,18.36q0,14.85-1.56,21.484h-34.37l4.29-21.484h31.64Zm-23.43,3.125q4.68,4.3,5.07,12.109c0,2.344.39,3.65,1.17,3.906q5.475-1.555,4.3-7.422-2.34-5.072-9.37-9.375Zm68.74-50.782a30.921,30.921,0,0,1,7.82,13.672q1.17,3.516,1.95,3.516,5.46-.779,5.47-7.422-1.56-4.687-14.45-10.937Zm64.85,3.125-1.56,1.563c-1.31,2.087-2.09,3.125-2.35,3.125h-41.4l1.95,3.516,6.64-1.172h33.98q0.39,64.452.39,66.015,0.39,5.082-2.34,5.469-1.56.779-14.06-.781l-0.39,1.172q13.275,3.122,12.89,8.984,9.375-1.566,10.94-7.813,0-1.565-.78-70.312c0-.256.78-0.781,2.34-1.562l1.95-1.563a27.644,27.644,0,0,0-8.2-6.641h0Zm-73.83,87.11a15.773,15.773,0,0,0,6.64-2.344l0.39-69.922c0-.519.52-1.172,1.56-1.953s1.57-1.3,1.57-1.563-3.13-1.562-9.38-3.906Zm47.27-62.891h-18.36l-7.03-3.515-0.4,48.437a17.419,17.419,0,0,0,6.26-2.344v-3.515h21.48v5.078a30.509,30.509,0,0,0,6.25-2.344l-0.39-36.328q0-1.557,2.73-3.516a2.278,2.278,0,0,0,1.17-1.172q-2.34-2.727-8.2-5.468-0.39,0-3.51,4.687h0Zm1.95,17.578h-21.48v-12.89c-0.27-2.082.39-2.991,1.95-2.735h19.53v15.625Zm0,19.141h-21.48v-16.8h21.48v16.8ZM280.375,909.094h-20.7l2.344,2.734,4.3-.39h13.672L279.2,948.156q0,1.557-2.734,4.688l-0.781.781a21.948,21.948,0,0,0,6.64,6.25l0.391-.391q6.637-7.03,27.734-18.359l-0.391-1.172-24.218,9.375,0.781-37.89H302.25q10.154,31.639,39.844,42.187,2.343-5.475,10.156-5.469v-1.172q-33.6-4.687-47.266-35.546H346l0.391-.391-8.2-7.422-5.469,5.469H286.625l0.781-33.2q0-1.173,2.735-2.735l0.781-.781q-0.395-.779-10.156-4.687Zm9.375-7.813,0.781,0.781a248.654,248.654,0,0,0,33.985-19.921q4.688-3.516,8.2-2.735h0.39q1.95,0.395-7.031-8.594a180.245,180.245,0,0,1-36.328,30.469h0Zm136.719-26.562H381.156l-8.2-5.078q0.779,42.975-.391,59.375a56.757,56.757,0,0,1-12.5,26.953l1.954,1.172q11.325-11.336,15.234-25,1.95-5.466,2.344-41.8V879.8c0-2.081,1.037-3.125,3.125-3.125h45.312v39.453q0.779,23.053,7.422,31.25,8.2,10.546,16.8,10.547c0.256,0,.256-0.525,0-1.563q-3.516-10.547.391-27.343h-1.172q-6.253,17.193-6.641,17.578-6.253-3.516-9.375-16.016-1.171-4.687-1.172-19.531-0.393-8.2-.39-17.969a136.06,136.06,0,0,1,.39-13.672,23.72,23.72,0,0,1,1.953-1.562c1.563-1.038,2.21-1.691,1.954-1.953q-6.648-7.032-7.032-6.641a27.188,27.188,0,0,0-4.687,5.469h0Zm-22.657,33.2q-8.6-8.2-18.359-16.406l-1.172,1.172Q396,904.022,401.469,912.219a167.427,167.427,0,0,1-24.61,33.593l0.391,0.782a104.461,104.461,0,0,0,27.734-29.688,87.841,87.841,0,0,1,9.766,19.141q1.95,5.859,3.516,5.469,5.071-2.728,3.515-9.766-4.3-7.809-14.062-19.531,2.728-4.687,5.469-10.547,2.343-4.295,3.124-5.469a6.1,6.1,0,0,1,5.079-3.515h0.39l-9.375-7.032q-5.475,16.8-8.594,22.266h0Zm114.454-37.11-1.954,2.344q-1.959,2.738-2.343,2.735H494.828l-10.156-4.3v3.515q0.778,11.336.781,14.453v22.266q1.95,32.034-27.344,44.141l0.782,1.172q34.368-11.336,32.421-43.75,0-6.245.782-25.782c0.256-3.906.39-6.115,0.39-6.64q0-3.123,2.344-2.735h20.7q-0.393,13.678-.781,39.844-0.787,20.316-.781,24.61-3.132,11.718,17.969,10.156,21.872,1.555,20.7-7.032-5.86-1.172-4.3-21.093h-1.563q-1.564,10.546-2.343,14.062,0,10.163-12.891,7.813-12.113.787-10.547-5.078,0-7.032.391-23.438,0.384-20.305.39-36.719,0-.384,2.344-1.953l2.344-1.953a27.687,27.687,0,0,0-8.2-6.641h0Zm119.14,5.469H560.844l2.344,3.516,3.124-.781h28.516q0,34.772-7.422,49.609-7.818,16.8-28.515,27.344l0.781,1.172q39.055-14.062,41.016-55.079h26.171q-1.172,37.5-4.687,42.969-1.172,1.566-4.3,1.172-2.344,0-14.844-2.344l-0.39,1.172q13.668,3.516,13.671,10.938,9.375-1.959,12.5-7.422,1.952-1.95,4.688-43.75c0-.519,1.038-1.428,3.125-2.735l1.172-.781q-1.566-1.95-8.2-6.64-0.395,0-1.953,2.343-1.566,2.737-1.953,2.735h-25q1.556-13.67,1.953-20.7H652.25l0.391-.782-9.375-7.812Zm93.75-5.078-1.953,2.344q-1.959,2.737-2.344,2.734h-43.75l-8.2-4.3-0.781,52.344a18.5,18.5,0,0,0,7.031-2.734v-5.469h20.313V933.7H667.875l2.344,2.735,4.3-.391h26.953v17.578H658.891l2.343,2.734,3.516-.39h86.719l0.39-.391-8.593-8.2-6.641,6.25H708.109V936.047h34.766l0.391-.781-8.985-7.032-5.859,5.469H708.109V916.125h20.7v5.469a17.212,17.212,0,0,0,7.032-3.125l-0.391-35.938q0-.384,2.344-2.343l2.344-1.954a38.624,38.624,0,0,0-8.985-7.031h0Zm-29.687,23.828H681.156V880.578a2.1,2.1,0,0,1,2.735-1.953h17.578v16.406Zm27.343,0h-20.7V878.625h20.7v16.406Zm-27.343,2.344v16.8H681.156v-16.8h20.313Zm27.343,16.8h-20.7v-16.8h20.7v16.8Zm87.891,0,0.781,0.781a106.424,106.424,0,0,0,15.625-22.265h30.469q0.779,1.565-6.25,14.062l1.172,0.391q10.154-12.5,16.406-12.891a1.587,1.587,0,0,0,1.172-.391q-0.393-1.95-8.2-8.2c-0.262,0-.916.782-1.953,2.344q-1.959,2.343-2.344,2.344h-29.3a29.414,29.414,0,0,1,1.563-3.516q4.688-10.154,5.078-11.328c0.256-1.038,1.428-1.953,3.516-2.734l0.781-.391q0.384-.384-10.157-4.3-3.13,21.488-18.359,46.094h0Zm-27.344-4.688q0,3.91-.39,16.407-0.395,10.163-.391,12.89a12.435,12.435,0,0,1,2.344-.781,9.583,9.583,0,0,0,3.906-1.562v-8.594h14.453v5.078a10.591,10.591,0,0,0,6.641-3.125q-0.395-7.416-.781-41.8c0-.256.781-0.781,2.343-1.562l1.563-.782a37.711,37.711,0,0,0-7.031-5.859l-0.782.781q-2.738,3.516-3.125,3.516H796.391l-7.032-4.688v30.078ZM809.281,925.5H794.828V890.344q-0.787-4.295,3.125-3.906h11.328V925.5Zm20.7,10.547q-7.03,12.505-28.125,22.265l0.782,1.172q39.45-11.718,41.406-51.953,1.95,33.207,21.484,48.828,0.779-3.13,10.157-4.3v-0.781Q849.513,940.735,846,904.406a2.328,2.328,0,0,1,1.172-1.172c0.781-.256,1.172-0.518,1.172-0.781q-0.395-.384-10.156-3.125,0,24.225-8.2,36.719h0ZM925.3,867.688a19.434,19.434,0,0,1,5.469,12.109H902.25l-7.422-4.3q0.779,42.58-1.172,58.2-2.343,15.234-10.547,25l1.172,0.391q17.963-14.457,16.8-46.094V885.266q-0.787-3.516,3.516-3.125h70.312V881.75l-8.984-8.2-4.688,6.25H933.5q4.295-3.121,2.734-7.031-3.13-3.123-10.546-5.86Zm-4.3,29.3H903.812l2.735,3.516,4.3-1.172H921v19.141a17.1,17.1,0,0,0,5.859-2.735v-2.343h17.969V917.3a22.817,22.817,0,0,0,6.25-3.125l-0.39-14.844h23.437l0.391-1.172-7.813-7.422-5.078,6.25H950.688v-5.468l1.171-.782c1.3-.781,1.953-1.3,1.953-1.562a30.532,30.532,0,0,0-8.984-3.906v11.718H926.859v-5.859l1.172-.781q1.95-1.557,1.953-1.953A62.008,62.008,0,0,0,921,884.484v12.5Zm23.828,14.063H926.859V899.328h17.969v11.719Zm5.86,7.812-1.954,1.953c-1.043,1.307-1.7,1.954-1.953,1.954H907.719l2.734,3.515,4.688-1.172h5.078q2.728,7.819,10.937,17.969-14.455,10.154-36.328,16.406v1.172q24.995-3.909,40.625-14.062,10.932,7.416,30.078,12.5,2.729-5.475,9.766-5.86l-0.391-1.172q-24.609-1.565-35.547-8.593Q946,938.4,953.812,927.844a10.948,10.948,0,0,1,3.126-1.172l1.953-.781q-7.425-7.032-8.2-7.032h0Zm-16.016,21.485a42.447,42.447,0,0,1-11.328-15.235h23.828q-5.859,10.163-12.5,15.235h0Zm120.308-59.375H991.7l3.906,3.515,5.081-1.172h24.22v28.126H995.219l3.515,3.515,5.466-1.172h20.71v35.938H984.281l4.3,3.906,5.078-1.563h81.254v-0.781l-8.6-8.2-5.86,6.641h-28.9V913.781h33.2V913l-8.98-7.812-5.47,6.25h-18.75V883.312h35.93l0.4-.781-8.21-7.422Zm-13.67,41.015a32.416,32.416,0,0,1,10.55,18.36q1.56,3.516,5.08-.782,2.34-3.9.39-7.031-5.085-6.637-15.24-11.328Zm58.6-53.906a29.632,29.632,0,0,1,8.2,17.188q0.39,3.515,1.95,4.3,9.765-2.727,3.13-13.281-3.135-3.514-12.5-9.375Zm61.71,4.3-1.56,1.953q-1.95,3.516-2.34,3.516h-33.99l1.96,3.125,5.47-.781h28.9l-0.39,68.359q1.56,4.293-16.4.781l-0.39,1.172q12.885,3.516,12.1,9.766,11.325-1.961,12.11-10.547-0.78-28.511-.78-67.188c0-.256,1.04-1.037,3.13-2.343l1.17-1.172q-7.035-5.86-8.99-6.641h0Zm-69.14,85.937a26.4,26.4,0,0,0,7.04-2.734q0-12.891.39-35.937V896.984q0-7.03,3.9-7.422a75.521,75.521,0,0,0-9.37-5.468q-0.8,46.1-1.96,74.218h0Zm140.63-65.624h-42.58l1.56,3.124,3.91-.781h29.3q-0.795,16.8-1.57,22.266h-37.11l1.18,2.734,4.29-.781h31.25q-4.29,29.3-41.01,39.844l0.39,1.562q41.4-6.646,47.66-41.406,5.07,27.346,38.28,38.281l0.78-.39q3.12-3.516,10.15-4.3v-1.563q-37.5-6.243-46.09-32.031h42.19l0.39-.391-8.99-8.593-5.86,7.031h-30.46a188.86,188.86,0,0,0,1.95-22.266h36.72l0.39-.781-8.21-8.2-6.24,6.641h-19.54q1.56-1.952,4.69-5.86,5.07-6.243,7.81-9.375a8.371,8.371,0,0,1,5.08-3.125c0.78-.256,1.17-0.519,1.17-0.781q-1.17-1.557-8.98-7.031a192.684,192.684,0,0,1-12.5,26.172h0Zm-28.13-23.047q8.6,7.818,11.72,17.187c0.52,1.825,1.04,2.734,1.57,2.734q4.68-1.172,4.68-7.421-1.95-5.86-16.4-13.282Z"/>
  <path id="大写字母" class="cls-3" d="M145.969,542.359q-5.346.283-7.313-5.906L123.75,492.016h-3.094l-14.344,46.125q-1.41,4.5-6.187,4.218v1.407H114.75v-1.407q-8.437.567-6.188-3.937l12.657-41.344,13.219,41.063q2.247,4.5-5.907,4.218v1.407h17.438v-1.407ZM111.656,525.2H132.75l-0.844-1.687H112.5Zm83.7,4.781q0-10.125-12.656-13.218,10.4-3.652,10.406-11.813-0.284-11.812-16.031-11.812H155.137v1.406q6.75-.561,6.188,4.781v38.531q0.561,5.063-6.188,4.5v1.407H178.2q16.875-.277,17.156-13.782h0Zm-4.781,0q-0.567,11.536-12.938,12.094h-6.75q-5.344.284-5.062-4.5V517.891h11.531q12.373,0.843,13.219,12.093h0Zm-2.25-25.312q-0.567,10.692-10.969,11.531H165.825V499.609q-0.284-4.779,5.062-4.5h5.907q11.245,0.284,11.531,9.563h0Zm49.669-10.406a21.129,21.129,0,0,0-9.844-2.25q-19.13,1.688-20.531,26.437,0.843,25.313,20.812,26.438,13.216,0.56,18.563-14.625l-1.688-.844Q239.4,541.8,229.838,541.516q-16.875-1.12-17.719-23.063,1.4-22.5,15.75-24.469,9.281-.843,14.906,11.813l1.406-.281-2.25-12.938ZM300.6,518.734q-1.127-24.745-23.625-25.593H257.85v1.406q6.75-.278,6.188,4.5V537.3q0.276,5.629-6.188,5.344v1.125h19.125q22.5-.845,23.625-25.032h0Zm-4.781,0q-1.128,21.938-18.844,23.344h-3.656q-5.346.284-5.063-4.781V499.328q-0.283-4.5,4.782-4.219h3.937q17.719,1.128,18.844,23.625h0Zm54.45,12.094q-2.255,12.657-8.719,11.25H327.769q-5.346.284-5.063-4.219V518.172h10.969q7.311-1.121,7.313,9h1.406V508.047h-1.406q0,9.281-7.313,8.437H322.706V499.328q-0.284-4.5,4.782-4.219h12.375q6.183-.843,8.718,10.688l1.688-.281-1.406-12.375h-36v1.406q6.75-.561,6.187,4.781v38.531q0.561,5.346-6.187,4.782v1.125h37.406l1.406-12.657Zm48.825-37.687H363.656v1.406q7.027-.278,6.469,4.781v39.094q0.278,4.5-6.187,4.219v1.125h16.593v-1.125q-6.75.284-6.187-4.219v-20.25h9.844q6.467-1.121,7.312,9h1.125V508.047H391.5q0,9.564-7.312,8.437h-9.844V499.328q-0.284-4.5,4.5-4.219h10.687q5.623-1.4,9.281,10.688l1.407-.281Zm57.262,28.406v-1.688H438.638v1.688q8.154-.278,7.593,5.062V534.2q-1.126,8.162-12.375,9-15.471-1.963-16.593-25.031,1.121-22.215,16.875-24.188,10.685-.56,15.187,11.532l1.688-.844-2.25-12.656-4.5,1.687a4.505,4.505,0,0,1-1.125-.281,39.34,39.34,0,0,0-9-1.406q-19.974,1.688-21.375,26.437,0.56,25.88,21.093,26.438a17.173,17.173,0,0,0,12.657-5.063l2.531,4.5,1.687-.562V526.609q-0.567-5.339,5.625-5.062h0Zm57.263,20.812q-6.474.283-5.907-4.218V498.766q-0.282-4.5,5.907-4.219v-1.406H498.15v1.406q5.624-.278,5.344,4.219v18H477.056v-18q-0.283-4.5,5.625-4.219v-1.406H467.212v1.406q5.907-.278,5.625,4.219v39.375q0.278,4.5-5.625,4.218v1.407h15.469v-1.407q-6.189.283-5.625-4.218V518.734h26.438v19.407q0.559,4.5-5.344,4.218v1.407h15.469v-1.407Zm30.544,0q-7.317.567-6.469-4.218V499.328q-0.844-5.338,6.187-4.781v-1.406H526.444v1.406q6.75-.561,6.187,4.781v39.094q0.561,4.218-6.468,3.937v1.407h18v-1.407Zm36.731-47.812v-1.406H563.175v1.406q6.75-.561,6.187,4.781v31.781q-0.282,10.97-5.343,11.532a3.294,3.294,0,0,1-3.094-2.813q-0.567-2.808-2.813-2.812a2.486,2.486,0,0,0-2.812,2.812q0.561,4.787,7.312,5.063,11.813,0,11.813-13.782V499.328q-0.844-5.338,6.469-4.781h0Zm55.294,47.812a8.163,8.163,0,0,1-7.313-3.937l-17.156-26.156,13.219-12.938q5.061-4.779,9-4.781v-1.406h-15.75v1.406q3.651,0,4.781,1.125t-0.563,3.094l-21.375,21.093V498.766q-0.567-4.779,5.625-4.219v-1.406H590.344v1.406q6.183-.278,5.625,4.219v39.375q0.559,4.5-5.625,4.218v1.407h16.312v-1.407q-6.189.283-5.625-4.218V522.672l7.594-7.594,15.469,24.188q2.247,3.1-5.344,3.093v1.407h17.438v-1.407Zm45.168-11.25q-3.942,12.379-10.968,10.969h-8.719q-5.346.284-5.063-4.219V499.047q-0.843-5.062,7.032-4.5v-1.406H645.919v1.406q7.026-.278,6.469,4.5v38.812q0.276,4.786-6.469,4.5v1.407h34.594l2.25-12.094Zm64.575,11.25q-6.473.567-5.625-4.781V498.484q-0.567-4.218,5.625-3.937v-1.406H733.556l-14.625,42.75-13.781-42.75H693.056v1.406q6.466-.561,5.625,3.937v39.094q0.844,5.346-5.625,4.781v1.407h14.063v-1.407q-7.034.567-6.188-4.5v-42.75h0.282l16.312,48.657h0.844l16.875-48.657h0.844v42.469q0.843,5.346-6.188,4.781v1.407h16.031v-1.407Zm55.013-47.812v-1.406H786.881v1.406q6.75-.561,5.906,4.781v35.438l-28.125-41.625h-8.718v1.406q6.466-.278,5.906,3.937v39.375q0.277,5.063-5.906,4.782v1.125h14.062v-1.125q-6.472.284-6.187-4.782v-38.25l30.093,44.157h1.125V499.328q-0.566-5.062,5.907-4.781h0Zm32.512-2.531q-19.689,1.971-21.094,26.437,0.845,25.313,21.094,26.438,20.25-1.128,21.094-26.438-1.126-24.745-21.094-26.437h0Zm0,51.187q-15.187-1.963-16.312-24.469,1.12-22.781,16.312-24.75,15.465,1.412,16.313,24.75-0.844,22.782-16.313,24.469h0Zm69.075-37.125q-0.843-12.372-15.187-12.937H865.688v1.406q7.31-.561,6.468,4.781v39.094q0.561,4.218-6.468,3.937v1.407h17.156v-1.407q-7.034.283-6.469-3.937V519.859h11.813q13.776-.843,14.343-13.781h0Zm-4.781,0q-0.284,11.813-10.688,12.094H876.375V499.328q-0.567-4.5,4.781-4.219h5.063q11.245,0.284,11.531,10.969h0Zm54.731,42.188q-1.687.276-3.656-2.25a13.385,13.385,0,0,1-2.25-3.938q10.125-7.309,10.125-23.344-1.128-25.313-21.375-26.718-19.691,1.688-21.094,26.718,1.12,25.036,21.094,26.157a19.116,19.116,0,0,0,7.031-1.125q4.219,8.714,8.719,8.156,3.934,0.276,7.312-5.063l-1.125-1.406q-2.53,3.091-4.781,2.813h0ZM934.2,531.953q3.091,1.128,7.594,9.844a14.26,14.26,0,0,1-6.469,1.406q-15.187-1.687-16.313-24.469,0.845-23.342,16.313-24.75,15.465,1.971,16.594,24.75,0.276,14.628-6.469,21.094-4.22-9-8.438-10.687-5.062-2.248-11.25,1.125l0.282,1.687q4.779-2.247,8.156,0h0Zm78.64,10.406q-5.355.283-6.75-3.093l-11.534-20.532q13.221-1.121,13.784-13.218-0.855-11.529-13.784-12.375H968.962v1.406q7.028-.278,6.469,4.781v39.094q0.561,4.218-6.469,3.937v1.407h16.875v-1.407q-6.75.283-6.187-3.937V518.734h10.125l13.215,23.625a2.416,2.416,0,0,0,2.53,1.407h7.32v-1.407Zm-9.28-36.843q-0.57,10.409-10.691,11.531H979.65V499.328q-0.283-4.5,4.781-4.219h8.438q10.4,0.284,10.691,10.407h0Zm25.48,37.406a32.967,32.967,0,0,0,10.12,1.969q16.035-.283,16.31-14.063,0.57-10.684-15.18-15.187-11.535-3.936-11.25-12.094,0.555-9.282,9.84-9.563,7.875-.843,12.94,11.813l1.4-.844-1.4-12.094-3.66,1.407q-5.34-2.532-9.28-2.25-13.5.567-14.34,12.937-0.57,10.409,13.78,14.625,12.66,3.942,12.37,12.938-0.555,10.125-11.53,10.687-9,.844-13.78-12.094l-1.41.282,0.85,12.656Zm73.01-49.781h-35.16l-1.12,12.375,1.4,0.281q3.105-11.812,8.16-10.688h3.66c2.43-.184,3.56,1.033,3.37,3.657V538.7q0.84,3.942-7.03,3.656v1.407h18.84v-1.407q-8.16.283-7.31-3.656V498.766c-0.19-2.624,1.13-3.841,3.94-3.657h3.66q3.93-.843,7.59,10.688l1.41-.281Zm56.14,1.406v-1.406h-14.63v1.406q6.75-.278,6.47,4.781v27.281q0,15.754-13.78,15.75-12.375-.276-12.37-15.468V499.047q-0.285-4.779,6.46-4.5v-1.406h-17.15v1.406q6.75-.278,6.47,4.5v27.562q-0.285,18.563,16.03,18.282t16.59-18V499.328q-0.285-5.062,5.91-4.781h0Zm54.73,0v-1.406h-14.63v1.406q7.875-.278,5.91,4.219l-12.38,37.125-11.81-37.969q-1.965-3.653,6.19-3.375v-1.406h-17.72v1.406q6.465-.278,7.03,3.937l14.63,45.282h1.4l14.63-44.438q0.84-5.338,6.75-4.781h0Zm71.32,0v-1.406h-14.9v1.406q7.86-.561,5.9,4.781l-9,35.156-9.84-36.562q-1.41-3.653,5.62-3.375v-1.406h-16.59v1.406q6.18-.278,6.47,3.937l1.12,2.813-9.56,33.469-9-36.844q-1.41-3.653,5.63-3.375v-1.406h-16.6v1.406q6.195-.278,6.75,3.937l11.53,45.282h1.41l10.69-38.532,10.69,38.532h1.4l11.53-44.157q0.855-5.622,6.75-5.062h0Zm54.73,47.812a8.353,8.353,0,0,1-7.59-4.781L1318.44,516.2l10.97-17.437a7.667,7.667,0,0,1,7.6-4.219v-1.406H1322.1v1.406q7.59-.278,5.34,3.375l-10.12,16.312-9.85-16.312q-2.805-3.653,5.35-3.375v-1.406h-16.88v1.406q4.785-.278,7.6,5.062l11.25,18.563-12.94,19.406q-3.105,4.787-7.03,4.781v1.407h14.62v-1.407q-8.715.283-5.62-3.375l12.09-18.843,11.25,19.125q2.25,3.375-5.06,3.093v1.407h16.87v-1.407Zm55.02-47.812v-1.406h-15.47v1.406q8.715-.278,6.47,3.375l-12.38,22.219L1361.36,498.2q-2.535-3.934,5.06-3.656v-1.406h-16.59v1.406q4.785,0.283,7.31,5.062l12.38,23.625v16.032q0.555,3.375-7.03,3.093v1.407h18v-1.407c-4.88.189-7.03-.843-6.47-3.093V522.109l12.94-23.062q1.68-3.936,7.03-4.5h0Zm46.01-1.406h-32.34l-1.13,12.375,1.41,0.281q4.215-11.812,9.56-10.688h17.16l-29.82,47.25v1.407h34.88l1.12-12.375-1.4-.282q-3.945,11.813-9.56,10.969h-19.97L1440,494.547v-1.406Z"/>
  <path id="logo" class="cls-1" d="M706.266,1194.7a45.969,45.969,0,0,0-.118,5.15v5.16H677.555v-1.17l0.234-.94-1.406-.24c-1.1,0-2.659-.07-4.688-0.23h-3.281l-0.469,2.58a45.646,45.646,0,0,1-1.172,4.92,22.619,22.619,0,0,1-1.406,4.22,7.125,7.125,0,0,0-.82,2.23,6.584,6.584,0,0,0,2.109-.71c1.326-.54,2.615-1.13,3.867-1.76a11.566,11.566,0,0,0,3.516-2.81l1.641-1.64h66.8l1.875,1.88a14.477,14.477,0,0,0,3.75,2.81c1.406,0.62,2.655,1.17,3.75,1.64a1.036,1.036,0,1,0,1.171-1.17,17.1,17.1,0,0,1-1.406-3.99q-0.7-2.34-1.172-4.68a11.9,11.9,0,0,0-.7-3.05c0-.47-1.252-0.62-3.75-0.47-1.875.16-3.281,0.23-4.219,0.23a2.052,2.052,0,0,1-.937.24c-0.315,0-.469.31-0.469,0.94l0.235,0.93-13.594.24q-13.359,0-13.36-.24a2.838,2.838,0,0,1,.7-1.05,6.664,6.664,0,0,0,1.171-2.46,15.728,15.728,0,0,0,.469-4.22v-2.58h-4.687Q706.382,1194.46,706.266,1194.7Zm-31.289,28.12v4.22l21.093,0.23h21.094l-5.859,4.93q-5.4,4.215-8.2,6.56l-2.344,1.87v6.8H660.445v4.22h40.313v14.76c0,10.01-.158,15.47-0.469,16.41a13.152,13.152,0,0,1-1.172,3.05,21,21,0,0,1-2.578,3.04,16.962,16.962,0,0,1-3.75,2.82c-1.406.62-2.109,1.17-2.109,1.64s0.153,0.7.468,0.7a30.375,30.375,0,0,0,3.047-.47,34.353,34.353,0,0,0,4.922-1.4,16.4,16.4,0,0,0,4.688-1.88,11.74,11.74,0,0,0,3.515-2.34,12.264,12.264,0,0,0,2.344-2.58,13,13,0,0,0,1.172-2.58c0.311-.94.469-6.4,0.469-16.41v-14.76h38.2v-4.22h-38.2v-6.8l2.109-1.64q2.109-1.635,8.438-6.79,6.327-5.4,8.437-7.04a13.637,13.637,0,0,0,2.578-2.34q0-.225-28.828-0.23t-29.062.23h0Zm121.64-30.23-0.469,1.87a27.635,27.635,0,0,1-1.523,5.74c-0.861,2.43-1.681,4.65-2.461,6.68q-1.176,2.58-3.281,6.8-1.88,3.75-4.453,8.44-2.11,3.75-4.688,7.73-2.582,4.215-3.047,4.92a7.818,7.818,0,0,0-1.406,2.11c-0.157.47-.117,0.71,0.117,0.71a8.252,8.252,0,0,0,2.227-1.18q1.873-1.17,3.515-2.34,1.874-1.41,3.985-3.28a59.714,59.714,0,0,0,4.453-4.45l2.109-2.35,0.235,14.77,0.234,14.76h1.875a5.862,5.862,0,0,0,3.047-.7,5.457,5.457,0,0,0,1.875-1.17,11.374,11.374,0,0,0,1.406-1.64l0.469-.71h27.187v2.11l0.235,2.11h1.64a7.437,7.437,0,0,0,2.813-.47,9.072,9.072,0,0,0,2.109-1.17,4.666,4.666,0,0,0,1.407-1.64l0.7-.94h31.64v-4.45H838.336v-6.8H868.57v-4.45H838.336v-6.8H868.57v-4.68H838.336v-7.5H868.57v-4.69H837.164l0.938-1.17a23.668,23.668,0,0,0,1.406-2.35,6.445,6.445,0,0,0,.7-2.57,17.74,17.74,0,0,0,.469-4.93v-3.51H828.727v14.53H815.6q-13.129,0-13.125-.23c0-.16-0.158-0.24-0.469-0.24s0.311-1.41,1.875-4.22a69.182,69.182,0,0,0,3.281-7.5,16.732,16.732,0,0,0,1.406-3.98l0.235-1.17H796.617Zm31.406,22.03v7.5H802.477v-7.5h25.546Zm0,12.18v6.8H802.477v-6.8h25.546Zm0,11.25v6.8H802.477v-6.8h25.546Zm-3.515,16.88v5.16l-22.969.23H778.805v4.45h45.7v1.64c0,1.1-.081,1.64-0.235,1.64a40.222,40.222,0,0,1-4.687-1.17q-4.455-1.17-4.922-1.4-0.236,0-6.328,4.68-6.1,4.935-7.734,6.1-1.643.93-4.454,2.58a58.967,58.967,0,0,1-5.39,2.57q-2.812,1.185-5.391,2.23a35.226,35.226,0,0,1-5.859,1.76,17.416,17.416,0,0,0-3.047,1.05,6.06,6.06,0,0,0,1.289,1.06,3.994,3.994,0,0,0,1.992.94c0.469,0,2.344-.32,5.625-0.94s6.328-1.33,9.141-2.11q4.449-1.17,8.2-2.35a22.822,22.822,0,0,0,4.922-2.1q1.637-.945,9.14-6.1t7.618-5.04q0.115,0.12.117,13.48v13.12h1.406a7.357,7.357,0,0,0,2.813-.7,6.692,6.692,0,0,0,3.046-1.99,11.184,11.184,0,0,0,2.11-3.17,8.733,8.733,0,0,0,.586-2.34q0.115-1.17.117-6.33c0.154-4.68.271-7.11,0.352-7.26s1.442,0.55,4.1,2.11q3.982,2.1,6.8,3.51a34.945,34.945,0,0,0,6.328,2.58,54.282,54.282,0,0,0,6.328,1.64,52.974,52.974,0,0,0,5.625.94c1.718,0.16,4.219.23,7.5,0.23a38.521,38.521,0,0,0,5.86-.23,1.37,1.37,0,0,0,1.171-.94l0.235-1.17c0-.15-0.235-0.24-0.7-0.24-0.315,0-1.722-.23-4.219-0.7s-5-1.01-7.5-1.64q-3.516-.93-6.8-2.11-2.812-.93-5.625-2.11-2.346-1.17-10.078-6.33l-7.734-5.15,19.453-.24h19.453v-4.45H854.977l-20.157-.23v-2.58l-0.234-2.58H824.508Z"/>
</svg>
