<svg xmlns="http://www.w3.org/2000/svg" width="400" height="200" viewBox="0 0 400 200">
  <defs>
    <style>
      .cls-1 {
        fill: #fdfdfd;
        fill-rule: evenodd;
      }
    </style>
  </defs>
  <path id="方正黑体" class="cls-1" d="M105.021,74.439a32.661,32.661,0,0,1,2.94,8.1l5.7-1.68a45.792,45.792,0,0,0-3.06-8.1Zm-21.9,14.04q0.239,0,1.14-.06,4.32-.419,9.3-0.42h7.98q0.838,29.159-18.9,35.76a14.591,14.591,0,0,1,5.7,4.02q15.78-10.379,17.58-27h16.2q-1.44,15.542-2.7,18.42a2.76,2.76,0,0,1-2.46,1.56q-1.44.242-6.6-.72a13.867,13.867,0,0,1,2.76,7.02q10.08-.42,11.4-4.5,1.26-3,3-21.3,0.3-3.059.84-5.76l-7.62.48H106.4q0.36-4.919.36-6.12,0.059-1.319.12-1.86h18.36q6,0,10.26.3,0.658,0.06.78,0.06v-5.7c-0.081,0-.321.021-0.72,0.06a80.587,80.587,0,0,1-10.8.66H93.441a75.66,75.66,0,0,1-9.66-.54c-0.36-.039-0.58-0.06-0.66-0.06v5.7Zm64.14-5.7q4.379-.36,11.16-0.48h9.9v35.58h-11.04q0.058-1.739.12-11.22t0.12-11.16a7.218,7.218,0,0,1,.6-2.52,2.287,2.287,0,0,0,.24-0.78q-0.3-.66-6-0.72,0.479,2.58.18,22.32-0.061,2.761-.06,4.08h-1.2q-3.122-.058-8.52-0.42v5.58a63.592,63.592,0,0,1,8.76-.6h34.56q4.018,0.06,9.96.6v-5.58q-3.481.36-10.2,0.42h-12.72v-17.1h7.14q4.379,0,9.6.48v-5.28q-5.1.481-10.08,0.48h-6.66V82.3h8.16q7.078,0.121,11.1.48v-5.46q-6,.481-11.34.48h-22.68q-4.742-.059-11.1-0.48v5.46Zm97.26-7.86h-29.88a32.828,32.828,0,0,1-5.94-.36,32.794,32.794,0,0,1,.36,5.28v10.2a36.963,36.963,0,0,1-.36,5.34,37.766,37.766,0,0,1,5.7-.3h13.2v4.5h-10.08q-8.041,0-8.58-.36v4.74a1.638,1.638,0,0,0,.72-0.06q3.358-.3,7.62-0.3H227.6v4.8h-14.28q-8.82,0-10.2-.48v4.86h0.06q1.44-.36,10.26-0.36h30.24q10.26,0,12.12.36h0.06v-4.86q-2.041.481-12.3,0.48h-11.64v-4.8h10.2a68.119,68.119,0,0,1,8.22.36h0.12v-4.62H250.4a80.664,80.664,0,0,1-8.28.24h-10.2v-4.5H244.4a47.069,47.069,0,0,1,6.54.3,27.336,27.336,0,0,1-.36-4.98V80.139a30.006,30.006,0,0,1,.36-5.58,48.537,48.537,0,0,1-6.42.36h0Zm1.8,4.08V91h-14.4V79h14.4ZM227.6,79V91h-14.28V79H227.6Zm7.26,9.6,4.68,1.2,2.22-5.22a4.321,4.321,0,0,1,1.2-1.38,0.955,0.955,0,0,0,.48-0.66q-0.36-.419-5.34-1.56a32.206,32.206,0,0,1-3.24,7.62h0Zm-17.82-5.82a34.378,34.378,0,0,1,2.58,6.54l4.8-1.2a58.709,58.709,0,0,0-2.88-6.66Zm-13.62,41.7,5.64,1.98a70.015,70.015,0,0,0,5.1-10.08l-5.58-1.8a36.075,36.075,0,0,1-5.16,9.9h0Zm40.02-7.86a19.885,19.885,0,0,1,4.92,9.6l5.94-1.98a64.41,64.41,0,0,0-5.76-9.42Zm-12.36-.48q1.679,2.7,2.7,9.6l5.64-1.38a65.887,65.887,0,0,0-3-9.54Zm-11.94.72a36.635,36.635,0,0,1,1.56,9l5.58-.9a45.925,45.925,0,0,0-1.86-9.06Zm41.46-19.08a10.858,10.858,0,0,1,.78,1.14q1.8,2.461,2.52,3.66a84.5,84.5,0,0,0,5.28-9.42v23.1q0,5.94-.36,11.16h5.46q0-.6-0.06-2.04-0.3-7.56-.3-9.36v-2.4a16.992,16.992,0,0,1,4.08,4.02,53.7,53.7,0,0,0,4.86-6.06v4.44q2.4-.239,7.26-0.24h2.52v2.46q0,3.06-.24,9.54h5.58q-0.481-5.88-.48-9.54v-2.46h2.64q1.138,0,5.16.3c0.519,0.041.9,0.06,1.14,0.06V111.7a42.527,42.527,0,0,0,6.06,5.94q0.6-1.378,3.84-4.14a10.227,10.227,0,0,1,.78-0.72q-14.161-7.678-15.84-24.42h5.4q2.039,0,8.46.42c0.36,0.04.619,0.06,0.78,0.06v-5.22a89.245,89.245,0,0,1-9.36.48h-9.3v-7.62a3.41,3.41,0,0,1,.54-1.5,1.989,1.989,0,0,0,.42-1.14q-0.36-.72-6.06-1.08a24.238,24.238,0,0,1,.36,3.96v7.5h-8.34q-1.681,0-5.64-.24-1.44-.059-2.1-0.12v5.1a73.57,73.57,0,0,1,7.86-.48h3.9q-2.942,16.62-14.28,24.54V85.179q0.659-1.139,1.68-3,1.26-2.28,2.04-3.66a5.935,5.935,0,0,1,1.44-1.8,3.034,3.034,0,0,0,.66-0.84q0.418-.84-6.18-3.24-5.22,16.98-12.96,25.14h0Zm32.04,13.68h-2.88q-0.36,0-2.58-.18-2.281-.18-3.84-0.3,6.84-8.64,8.58-22.62h0.72v23.1Zm4.74-23.1h0.96a42.765,42.765,0,0,0,7.38,22.62,57.673,57.673,0,0,1-6.3.48h-2.04v-23.1Z"/>
</svg>
