<svg xmlns="http://www.w3.org/2000/svg" width="1540" height="1450" viewBox="0 0 1540 1450">
  <defs>
    <style>
      .cls-1 {
        fill: #fff;
      }

      .cls-1, .cls-2, .cls-3 {
        fill-rule: evenodd;
      }

      .cls-2 {
        fill: #fefefe;
      }

      .cls-3 {
        fill: #fdfdfd;
      }
    </style>
  </defs>
  <path id="字体名称" class="cls-1" d="M377.562,134.234a135.934,135.934,0,0,1,12.25,33.75l23.75-7a190.81,190.81,0,0,0-12.75-33.75Zm-91.25,58.5q1,0,4.75-.25,18-1.746,38.75-1.75h33.25q3.5,121.5-78.75,149,17,7.746,23.75,16.75,65.749-43.248,73.25-112.5h67.5q-6,64.752-11.25,76.75-3,6-10.25,6.5-6,1-27.5-3,9.5,12.246,11.5,29.25,42-1.752,47.5-18.75,5.25-12.5,12.5-88.75,1.249-12.75,3.5-24l-31.75,2h-59.75q1.5-20.5,1.5-25.5,0.247-5.5.5-7.75h76.5q25,0,42.75,1.25,2.749,0.252,3.25.25v-23.75c-0.335,0-1.335.086-3,.25a335.75,335.75,0,0,1-45,2.75h-130.5a315.26,315.26,0,0,1-40.25-2.25c-1.5-.164-2.417-0.25-2.75-0.25v23.75Zm267.25-23.75q18.247-1.5,46.5-2h41.25v148.25h-46q0.247-7.248.5-46.75t0.5-46.5a30.132,30.132,0,0,1,2.5-10.5,9.469,9.469,0,0,0,1-3.25q-1.253-2.748-25-3,2,10.752.75,93-0.25,11.5-.25,17h-5q-13-.246-35.5-1.75v23.25a264.785,264.785,0,0,1,36.5-2.5h144q16.747,0.246,41.5,2.5v-23.25q-14.5,1.5-42.5,1.75h-53v-71.25h29.75q18.247,0,40,2v-22q-21.25,2-42,2h-27.75v-59h34q29.5,0.5,46.25,2v-22.75q-25,2-47.25,2h-94.5q-19.75-.246-46.25-2v22.75Zm405.25-32.75h-124.5q-17.753,0-24.75-1.5a136.645,136.645,0,0,1,1.5,22v42.5a154.012,154.012,0,0,1-1.5,22.25q7.25-1.248,23.75-1.25h55v18.75h-42q-33.5,0-35.75-1.5v19.75q0.247,0.252,3-.25,14-1.248,31.75-1.25h43v20h-59.5q-36.75,0-42.5-2v20.25h0.25q6-1.5,42.75-1.5h126q42.75,0,50.5,1.5h0.25v-20.25q-8.5,2-51.248,2h-48.5v-20h42.5q23,0,34.25,1.5h0.5v-19.25h-0.25q-6.75,1-34.5,1h-42.5v-18.75h52a196.126,196.126,0,0,1,27.25,1.25,113.9,113.9,0,0,1-1.5-20.75v-42.75q0-16.248,1.5-23.25a202.213,202.213,0,0,1-26.75,1.5h0Zm7.5,17v50h-60v-50h60Zm-78,0v50h-59.5v-50h59.5Zm30.25,40,19.5,5,9.25-21.75a18.084,18.084,0,0,1,5-5.75c1.333-1,2-1.914,2-2.75q-1.5-1.746-22.25-6.5-6,19.752-13.5,31.75h0Zm-74.25-24.25a143.084,143.084,0,0,1,10.75,27.25l20-5a244.648,244.648,0,0,0-12-27.75Zm-56.75,173.75,23.5,8.25a291.338,291.338,0,0,0,21.25-42l-23.25-7.5q-9.5,26-21.5,41.25h0Zm166.75-32.75q14.25,14.25,20.5,40l24.75-8.25a268.149,268.149,0,0,0-24-39.25Zm-51.5-2q7,11.25,11.25,40l23.5-5.75a273.743,273.743,0,0,0-12.5-39.75Zm-49.75,3a152.325,152.325,0,0,1,6.5,37.5l23.25-3.75q-3.75-27.5-7.75-37.75Zm172.748-79.5a44,44,0,0,1,3.25,4.75q7.5,10.254,10.5,15.25a351.027,351.027,0,0,0,22-39.25v96.25q0,24.75-1.5,46.5h22.75q0-2.5-.25-8.5-1.245-31.5-1.25-39v-10a70.6,70.6,0,0,1,17,16.75q8.505-8.748,20.25-25.25v18.5q10.005-1,30.25-1h10.5v10.25q0,12.75-1,39.75h23.25q-1.995-24.5-2-39.75v-10.25h11q4.755,0,21.5,1.25c2.17,0.168,3.75.25,4.75,0.25v-18.5a177.592,177.592,0,0,0,25.25,24.75q2.505-5.748,16-17.25a43.018,43.018,0,0,1,3.25-3q-58.995-32-66-101.75h22.5q8.505,0,35.25,1.75c1.5,0.168,2.58.25,3.25,0.25v-21.75a371.784,371.784,0,0,1-39,2h-38.75v-31.75q0-2.25,2.25-6.25c1.33-2.164,1.92-3.75,1.75-4.75q-1.5-3-25.25-4.5a100.991,100.991,0,0,1,1.5,16.5v31.25h-34.75q-7,0-23.5-1-6-.246-8.75-0.5v21.25q23-2.25,32.75-2h16.25q-12.255,69.252-59.5,102.25v-116q2.745-4.746,7-12.5,5.25-9.5,8.5-15.25a24.76,24.76,0,0,1,6-7.5,12.49,12.49,0,0,0,2.75-3.5q1.755-3.5-25.75-13.5-21.75,70.752-54,104.75h0Zm133.5,57h-12q-1.5,0-10.75-.75-9.495-.75-16-1.25,28.5-36,35.75-94.25h3v96.25Zm19.75-96.25h4q3,54.5,30.75,94.25a240.427,240.427,0,0,1-26.25,2h-8.5v-96.25Z"/>
  <path id="中文示例" class="cls-2" d="M336.547,721.138h-22.1v-16.6h22.1v16.6Zm-48.1,3.6h-15v-18.9h15v18.9Zm48.1,2.8v15.8h-22.1v-15.8h22.1Zm-48.1,22h-15v-18.5h15v18.5Zm26.6-51.8a66.531,66.531,0,0,1-9.1-.6,34.5,34.5,0,0,1,.8,8.3q0.3,17.6,0,31.3-0.4,13.3-1.2,17.4-4.3,17.9-18.7,24.4a15.506,15.506,0,0,1,10.4,4.7q16.1-13.3,17-33.5h22.3v20.8q-0.1,1.5-4,1.8a36.618,36.618,0,0,1-9.7-.8q4.6,5,4.3,10.5,17.2-.9,17.5-6.7v-69.7q0-5.3.2-8.7a50.83,50.83,0,0,1-9.3.8h-20.5Zm-49.2,10.1v49.8a66.394,66.394,0,0,1-1.4,12.7h9.9a58.288,58.288,0,0,1-.9-8.5v-5.6h15a64.1,64.1,0,0,1-.6,7.4h8.8a70.311,70.311,0,0,1-.6-9.3v-47.3a42.919,42.919,0,0,1,.4-8.7,38.744,38.744,0,0,1-7.6.8h-16.6a21.412,21.412,0,0,1-6.8-1,96.123,96.123,0,0,1,.4,9.7h0Zm115.5,8.2v21.2q-0.2,28.7-19.8,40.9a21.753,21.753,0,0,1,10.3,5.1,63.475,63.475,0,0,0,17.6-33.9h38.1v19.2q0.3,4.2-12.9,1.2,3.7,6.6,3.8,12.1,12.2-1.2,14.9-2.9,3.1-1.4,2.8-7v-61.3a120.734,120.734,0,0,1,.7-13.5q-3.2.8-14.6,0.8h-25.2q-5.7,0-13-.6-2.4-.1-3.5-0.2,0.8,5.1.8,18.9h0Zm46.2-10.9v14.8h-37.7v-14.8h37.7Zm0,22v15.1h-37.7v-15.1h37.7Zm72.5-32.9a41.422,41.422,0,0,1,.9,8.7v25.4h-21.4v-17.7a10.491,10.491,0,0,1,1.2-5.1,2.261,2.261,0,0,0,.4-1.4q-1.4-1.5-10.3-1.8a6.378,6.378,0,0,0,.2,1.9,50.53,50.53,0,0,1,.6,7.2v15.5a73.484,73.484,0,0,1-.6,9.1v0.4a50.443,50.443,0,0,1,8.7-.6h21.2v33.5h-24.4v-18.2a8.256,8.256,0,0,1,1.2-4.5,2.1,2.1,0,0,0,.4-2.1q-0.2-1.5-10.3-1.4c0,0.135.033,0.5,0.1,1.1a43.108,43.108,0,0,1,.7,7.1v17.6a60.931,60.931,0,0,1-.6,8.2v0.4a48.936,48.936,0,0,1,8.9-.6h56a48.2,48.2,0,0,1-.6,7.9h9.3q-0.8-3.5-.8-12.9v-20.2a14.006,14.006,0,0,1,.9-5.6,1.788,1.788,0,0,0,.3-1.2q0.2-.6-4.8-0.5-3.1,0-5.1-.1a2.894,2.894,0,0,0,.1,1.7,35.676,35.676,0,0,1,.7,6.5v16.8h-24v-33.5h21.6l-0.4,4.4h9.1q-0.1-1.2-.3-3.4a61.987,61.987,0,0,1-.5-7.5v-20.5a11.7,11.7,0,0,1,1-4.9,3.032,3.032,0,0,0,.4-1.6q-0.9-1.1-10.1-.8a5.3,5.3,0,0,0,.2,1.7,52.068,52.068,0,0,1,.6,7.2v17.9h-21.6v-26.8a16.235,16.235,0,0,1,.9-5.7,2.33,2.33,0,0,0,.3-1.3q-0.7-1.3-10.2-1.4a2.34,2.34,0,0,0,.1,1.1h0Zm124.7,6.9h-38.8q-4,0-10.5-.5-2.9-.2-4.2-0.3v8.7a103.27,103.27,0,0,1,14.5-.8h15.4q-0.1,1.7-.1,4.9-0.3,9.7-.7,15.6h-26.2q-2.1-.1-3.7-0.1a37.408,37.408,0,0,1-5.6-.7v8.7a101.086,101.086,0,0,1,15.3-.8h19.4q-6.9,30.5-40.2,35.7a25.468,25.468,0,0,1,9.3,8.6q34.5-14.4,37.9-41.3,5.3,28.9,37.5,38.9a32.855,32.855,0,0,1,7.3-10.3q-29.5-.8-39.8-31.6h19.8a123.812,123.812,0,0,1,15.5.8v-9.1a97.957,97.957,0,0,1-15.3,1.2h-22.8q0.6-8.9.6-20.5h16a93.835,93.835,0,0,1,14.5.8v-8.7q-4.4.9-15.1,0.8h0Zm76.2,4.3v62.7h-23v-44.4a6.942,6.942,0,0,1,1.5-4.6,1.914,1.914,0,0,0,.7-1.2q-1.7-1.1-10.9-1.3,0,0.2.1,1,0.3,3.8.3,8.5v35.7q0,7.9-.6,14.5c0.2,0,.765-0.035,1.7-0.1q5.6-.5,11-0.5h51.8a31,31,0,0,1-.4,5.7h9.5q-0.8-3.4-.8-14v-43.5a7.947,7.947,0,0,1,1.4-4.5,2.1,2.1,0,0,0,.6-1.5q-2-.9-10.5-1.1,0,0.9.1,2.8,0.1,2.6.1,4.1v44.4h-23.8v-64.4a8.008,8.008,0,0,1,2.1-5.6,1.907,1.907,0,0,0,.8-1.4q-1.8-1.1-12.5-1.2a72.08,72.08,0,0,1,.8,9.9h0Zm142.6-3.9v3h-23.4v-2.6a7.19,7.19,0,0,1,1.8-5.3,0.716,0.716,0,0,0,.4-0.7q-0.6-.9-11.1-1.6a33.606,33.606,0,0,1,.6,7.2v3h-12.3a56.738,56.738,0,0,1-11.5-.8v8.9q2.4-.9,11.3-0.8h12.5v2.2a43.308,43.308,0,0,1-.8,8.5h9.9a44.217,44.217,0,0,1-.8-8.5v-2.2h23.4v2.2a41.265,41.265,0,0,1-.8,7.9h9.9a38.584,38.584,0,0,1-.7-7.9v-2.2h15.4q7.9,0,10.9.8v-8.9q-2.1.9-11.3,0.8h-15v-4.2a8.366,8.366,0,0,1,1.8-5.3q0.5-.7.3-0.9-1.2-1.1-11.3-.8a38,38,0,0,1,.8,8.2h0Zm-56.7,42.2a21.653,21.653,0,0,1,8.3,7.8,148.583,148.583,0,0,0,13.7-8.6,52.346,52.346,0,0,1,.6,9.6v23.2q-0.2,5.4,2.7,6.7,2.6,1.7,12.2,1.6h27.2a62.138,62.138,0,0,0,9.4-.5,12.486,12.486,0,0,0,5.4-2.2q4-2.7,6.6-13.2-6.9-1.5-9.7-6.1-0.9,10.2-3.7,11.9-2.2,2.4-13.6,2.2h-16.7q-8.9.2-10-1.1-1.7-.7-1.5-7.1v-19h28.6q0.3,8.9-1.7,9.7a6.475,6.475,0,0,1-3.5.9,68.544,68.544,0,0,1-8.1-.5,20.262,20.262,0,0,1,4.6,9.7q12.7-1.9,14.5-4.8,2.7-2.4,2.5-14.8a20.021,20.021,0,0,1,1.2-7.7,151.5,151.5,0,0,0,16.9,7.5,48.946,48.946,0,0,1,5.7-9.9q-27.7-5-41.8-19.5a3.726,3.726,0,0,1,1.6-.9,0.823,0.823,0,0,0,.6-0.3q-2.1-1.4-9.4-3.9-16.4,22.5-42.6,29.3h0Zm68-2.7c-0.334,0-.867.035-1.6,0.1q-5.5.5-8.9,0.5h-21.6a71.687,71.687,0,0,1-10.3-.6,118.949,118.949,0,0,0,19.2-17.3q7.3,9,23.2,17.3h0Zm86.2-46.5q0.3,4.9.3,6.6v4.5h-17.6v-4.5a10.816,10.816,0,0,1,1.8-4.9q0.8-1.3.6-1.5-0.5-1-10.8-1a32.548,32.548,0,0,1,.4,6.8v5.1h-14.8q-11.3-.3-13.7-0.7v8.3a100.622,100.622,0,0,1,13.7-.8h14.8v2.6a32.958,32.958,0,0,1-.4,5,11.921,11.921,0,0,0-.2,1.7h9.2a8.828,8.828,0,0,0-.2-1.3,34.1,34.1,0,0,1-.4-5.2v-2.8h17.6a33.2,33.2,0,0,1-.5,5.4,11.226,11.226,0,0,0-.3,1.9h9.4a10.848,10.848,0,0,0-.1-1.1,33.248,33.248,0,0,1-.5-6.2h14.1q1.6,0,4.9-.1a67.123,67.123,0,0,1,9.7.3v-8.3a72.918,72.918,0,0,1-14.6,1.3h-14.1v-4.5a9.566,9.566,0,0,1,2.1-6.2,1.917,1.917,0,0,0,.5-0.8q-0.3-1-11-1a13.4,13.4,0,0,0,.1,1.4h0Zm-46.1,30a39.9,39.9,0,0,1,11.1,9.9l7.6-6.3q-6.2-5.1-12.1-9.2Zm42.9-1.2a36.968,36.968,0,0,1,4.5,10.1l9.2-3.2a64.241,64.241,0,0,0-4.4-9.3Zm39.5,9.8a91.708,91.708,0,0,1-12.4.7h-38a103.721,103.721,0,0,1-13.1-.8v8.2a108.143,108.143,0,0,1,12.9-.6v27.1a83.361,83.361,0,0,1-.7,11.9q-0.1.8-.1,1a6.335,6.335,0,0,0,.8-0.1,103.454,103.454,0,0,1,12.5-.6h21.6a78.712,78.712,0,0,1,13.5.9v-8.5q-3.8.8-13.3,0.8h-26.4v-32.5h30.5a84.734,84.734,0,0,1,12.6.7,8.257,8.257,0,0,0,.9.1v-8.4c-0.2,0-.634.035-1.3,0.1h0Zm-89.1,8.5a43.869,43.869,0,0,1,12.5,8.9l6.1-7.2a92.8,92.8,0,0,0-12.7-8.1Zm3.9,37.3a53.343,53.343,0,0,1,9.9,5.5q1.4-7.7,12-27.8-3.1-1.5-7-7.1a105.183,105.183,0,0,1-14.9,29.4h0Zm110.3-70.9c-0.14.268,0.2,0.3,1,.1a78.176,78.176,0,0,1,13.3-.9h33a77.443,77.443,0,0,1,13.6.9c0.46,0.068.7,0.035,0.7-.1v-9.1c0.06-.2-0.17-0.233-0.7-0.1a75.384,75.384,0,0,1-13.6.9h-33a75.308,75.308,0,0,1-13.6-.9c-0.47-.066-0.7-0.033-0.7.1v9.1Zm-12.5,26.2q1.2-.9,14.3-0.8h57.2q13.1-.1,14.3.8v-9.1q-2.7.8-14.7,0.8h-57q-11.806,0-14.1-.8v9.1Zm36.4,0.2q-14.4,29.8-29.8,33.5l3.6,10.4q10.1-3,42.4-4,11.4-.5,16.7-0.8a25.241,25.241,0,0,0,1.8,2.8c1.4,2.065,2.46,3.765,3.2,5.1l8.9-5.7q-1.8-2.3-8.3-10.7-11.8-15.1-14.5-18.7l-8,4.6a112.741,112.741,0,0,1,13.1,16.3c-1.2,0-4.44.068-9.7,0.2q-11.8.5-36.1,0.9,3.6-2.5,16-16.9,4.2-4.8,5.4-6.1a58,58,0,0,1,6-5.3,2.477,2.477,0,0,0,1.2-1.4q0-.9-11.9-4.2h0Zm81.9-10.7a10.681,10.681,0,0,1,7.9,3.6q2.4-3,4.6-6c0.93-1.265,1.66-2.265,2.2-3q0.6,5.9-.8,21.9c-0.94-.065-2.17-0.132-3.7-0.2-3.2-.132-5.34-0.2-6.4-0.2v7.1a77.751,77.751,0,0,1,9.3-.4q-1.11,10.2-3.4,24,6.69-.6,20.5-0.8h19.8q-0.7,5.2-3.3,6.1-2.505,1.2-10.8-.1a14.507,14.507,0,0,1,4,9.5q9.39-.8,14.3-3.6,3.195-1.6,3.3-11.9,2.19,0,9,.4v-6.9a84.346,84.346,0,0,1-9,.6l0.6-17.1a109.011,109.011,0,0,1,11.7.4v-7.1c-0.8,0-1.94.035-3.4,0.1q-5.805.3-8.1,0.3l0.4-9.8c0-.4.06-1.2,0.2-2.4q0.495-8.5.8-10.5-10.005.5-17.6,0.6h-14.7q-4.11,0-11.6-.6a4.521,4.521,0,0,0-.7-0.1q0.9-1.1,3.1-4.2c0.86-1.2,1.53-2.133,2-2.8h30.4q8.4,0,16.9.4v-7.5q-7.9.3-16.7,0.4h-26.4a52.465,52.465,0,0,1,5.2-6.7,3.416,3.416,0,0,0,1-1.5q0.5-1.2-9.8-3.5a103.74,103.74,0,0,1-20.8,31.5h0Zm-15.3-21.6a44.491,44.491,0,0,1,15.5,12.1l6.5-7a86.937,86.937,0,0,0-15.8-11.5Zm-6.3,23.8q12.39,5.8,18,11.1l5.4-7.9a78.878,78.878,0,0,0-18.1-10.2Zm72.8-.8-0.4,15.3h-29.8l1-15.3h29.2Zm-21.2,3.4a36.914,36.914,0,0,1,4.3,10.5l7-2.4a40.524,40.524,0,0,0-5-10.5Zm-48.3,47.8,9.2,6.5q5.79-18.4,9.7-37.1l-7.5-4.5q-5.01,21.5-11.4,35.1h0Zm38.9-30h30l-0.4,17.5h-31.5Zm7.6,4.2a44.876,44.876,0,0,1,4.7,11.9l7.6-2.8q-2.01-4.5-5.6-11.1Zm65.6-52.2a53.332,53.332,0,0,1,10,14.1l8.1-4.8a87.362,87.362,0,0,0-9.9-13.3Zm24.5,9.5q6.5-.7,17.4-0.8h19.1v62.1q0.9,5.5-12.5,3.4a25.4,25.4,0,0,1,4.1,10.5q12.3-1.4,14.4-3.1,2.79-1.3,2.7-7.4v-56.7q0-8.5.2-11.9a28.853,28.853,0,0,1,.6-5.6q-4,.9-17.3.8h-11.7a167.2,167.2,0,0,1-17-.8v9.5Zm-31,17.7v41.3q0,4.9-.6,10.9c-0.07,1.133-.14,1.966-0.2,2.5h10.1q-0.81-2.8-.8-13.4v-42.3q0-7.4,1.9-10.5a1.2,1.2,0,0,0,.3-0.6q-1.5-1.3-11.5-1.6a83.569,83.569,0,0,1,.8,13.7h0Zm19.4,5.7v25.7c0,1.267-.04,2.334-0.1,3.2a40.607,40.607,0,0,1-.6,5.5,120.8,120.8,0,0,1,15.4-.8h7.4a107.377,107.377,0,0,1,15,.8,92.415,92.415,0,0,1-.7-13.5v-22.4a62.572,62.572,0,0,1,.7-11,34.159,34.159,0,0,1-5.3.7q-2.505.1-9.5,0.1h-8.4a100.392,100.392,0,0,1-14.6-.8,78.485,78.485,0,0,1,.7,12.5h0Zm28.6-4.5v11.1h-20.8v-11.1h20.8Zm0,17.8v13.1h-20.8v-13.1h20.8Zm-962.5,125.6a170.106,170.106,0,0,1,.7,17.5v17.6h-9.7q-2.4,0-4.2-.1-3.8-.2-6.9-0.6v9.3a61.6,61.6,0,0,1,6.6-.7q2.8-.1,11.2-0.1h3v29.4q0,3.1-4.4,6.5l6.2,9.7q3.9-5.4,23.8-18.8l-2.8-9.4a88.914,88.914,0,0,1-14.7,12.7v-30.1h13.9q8.1,26.6,36.5,39.5,3.3-7.9,9.7-10.5v-0.2q-29.2-5.4-38.2-28.8h20q12.3,0,15.7.8v-9.3a140.753,140.753,0,0,1-16.1.7h-41.5v-18q0-10.8,2.7-15.6a3.222,3.222,0,0,0,.3-0.9q-1-1.3-11.9-1.8,0,0.3.1,1.2h0Zm15.2,25.8q5.6,2.3,8.1,5.8,14.9-11.2,28.6-22.6a9.226,9.226,0,0,1,3.9-1.8,2.21,2.21,0,0,0,1.4-.6q-1.2-1.8-10.3-6.4a87.68,87.68,0,0,1-31.7,25.6h0Zm73-24.2,0.6,11.5q0.3,21.2,0,28.8a119.531,119.531,0,0,1-1.5,16.8q-2.4,14.2-10.2,22.3,2.3,1.2,5.2,5.3,1.3,1.7,1.9,2.4,14.2-20.5,13.1-48.6v-29.8h50.8q-0.1,2.4-.3,7.2-2.8,46.1,4.3,57.7,9.2,16.8,15.9,8a39.8,39.8,0,0,0,4.3-12.9,23.061,23.061,0,0,1-7.9-6.6q-0.1,1.3-.3,3.3a20.33,20.33,0,0,1-.5,3.7q-1.1,3.9-3.2.6-2.5-4-4-11.7-0.8-5.4-.6-20.4,0.3-15.1,1.4-26.5a79.457,79.457,0,0,1,1.6-11.1,141.932,141.932,0,0,1-15.3.8h-41.8a113.4,113.4,0,0,1-13.5-.8h0Zm36.1,37.7q-0.9-1.3-11.6-13.9-2.9-3.5-4.1-4.9l-6.5,5.5a202.148,202.148,0,0,1,16.8,19q0.8,1,1.2,1.5-13.1,17.3-22.2,22.8a24.484,24.484,0,0,1,8.5,5.5q18.2-20.4,18.5-21.8a161.293,161.293,0,0,1,10.9,19.5l9.5-5.4-16.2-21.6c0.466-.8.6-1.065,0.4-0.8q5.5-9.9,7.7-14.1a31.347,31.347,0,0,1,4.9-7,2.581,2.581,0,0,0,.9-1.3q0.3-.5-6-3.1-3.4-1.4-4.8-2.1a69.152,69.152,0,0,1-7.9,22.2h0Zm79.6-23.4q1.2,28.8-4.4,41.7-5,12.7-21,19a28.229,28.229,0,0,1,9.3,7.4q16.9-13.1,20.8-26.1a66.774,66.774,0,0,0,3-16.8q0.8-8.6.6-29.8h22q-1.3,24-2.2,56-0.2,7.9,2.2,10.6,2.1,2.8,8.8,2.7h11.5q6.4,0,9.3-3.2,2.5-2.4,4.4-11.9-5-1-9.2-6.3-0.9,9.5-2.4,11.2-1.4,2.5-6.5,2.4-7.4.2-8.5-1.3-1.5-1-1-8,0.1-2.5.3-9.4,0.9-27.4,1.7-39,0.1-1.8.3-5.6,0.3-4.6.4-6.3a58.653,58.653,0,0,1-11.1.8h-19.2a53.8,53.8,0,0,1-10.1-.8,95.57,95.57,0,0,1,1,12.7h0Zm78.7-1.8a119.831,119.831,0,0,1,14.9-.8h12.5q0.1,29.5-7.1,43.7-7.3,12.7-24.8,20a21.519,21.519,0,0,1,8.3,8.3q29.8-18.3,31.2-48.6h27.9q-0.5,10.9-3.3,33.6-2.3,5.5-16.7,2.5a25.947,25.947,0,0,1,4.8,12q18-2.1,20.2-8.6,0.9-1.1,3.6-31.3,1.1-11.5,1.7-17.1-0.9.1-2.6,0.2-6.5.6-8.9,0.6h-26.1q0.1-3.5.4-8.9,0.3-5,.3-6.4h34a119.6,119.6,0,0,1,15.4,1v-9.7a13.782,13.782,0,0,0-1.4.1q-9.5.7-13.8,0.7h-55.2q-7,0-15.3-.8v9.5Zm162.3-9.7h-38.1q-4.7,0-12.3-.6-2.8-.1-3.9-0.2,0.1,0.9.2,2.5,0.5,4.8.6,10v17.7a115.846,115.846,0,0,1-.8,14.6,149,149,0,0,1,15.4-.8h13.9v10.4h-15.8a127.187,127.187,0,0,1-14.3-.7,4.383,4.383,0,0,0-.8-0.1v8.7a153.926,153.926,0,0,1,15.9-.8h15v11.9h-22.4a148.259,148.259,0,0,1-17.2-.8v8.8a164.127,164.127,0,0,1,18.2-.8h53.2a133.475,133.475,0,0,1,16.8.8v-8.8a124.227,124.227,0,0,1-17,.8h-23.2v-11.9h16.6a114.932,114.932,0,0,1,14.5.8v-8.7a112.1,112.1,0,0,1-14.7.8h-16.4v-10.4h17q10.1,0,13.7.8c0-.266-0.034-0.7-0.1-1.3a95.016,95.016,0,0,1-.7-11.6v-18.2a70.252,70.252,0,0,1,.8-13.7q-3.8.9-14.1,0.8h0Zm5,18.1h-21.6v-11h21.6v11Zm-30-11v11h-20.2v-11h20.2Zm0,18.1v10.9h-20.2v-10.9h20.2Zm30,10.9h-21.6v-10.9h21.6v10.9Zm87.8-2.4a13.415,13.415,0,0,1,8.3,3.6q6.3-13.1,8.8-17.7h28.4a38.786,38.786,0,0,1-7.2,13.9l10.5,2,8.2-23.8q-2.4.2-6.3,0.4-4.8.4-6,.4h-25.2q0.2-.4,1.4-3.8,1.5-3.9,2.5-6.7a8.939,8.939,0,0,1,3.5-4.6,1,1,0,0,0,.7-0.8q-0.8-1.2-12.7-2.8-2.9,24.1-14.9,39.9h0Zm-7.9-22v36.1h-12.1v-36.1h12.1Zm-1.8,64.7q7.1,4.2,8.5,8.1,25-12.1,28.4-36.9,2.9,22.2,23.4,35.1a21.319,21.319,0,0,1,9.1-8.7q-27.8-8.8-28.3-41.1a4.151,4.151,0,0,1,1.4-2.9,0.917,0.917,0,0,0,.5-1q-0.3-1.1-11.7-2,1.8,41.7-31.3,49.4h0Zm8.9-62.5a84.418,84.418,0,0,1,.4-8.9q-2.3,0-4.6.2-2.7.1-4.3,0.2h-9.7q-2,0-8-.4h-0.8q0.6,5.8.6,9.1v38.7q-0.1,6.3-1,15.8h8.8q-0.3-2-.4-10.7v-3.7h11.9q0,3.9-.4,8.7h8.5a106.75,106.75,0,0,1-1-14.3v-34.7Zm112.5-17.3q3.9,6,4.8,9h-20.8a126.37,126.37,0,0,1-15.3-1q0.6,16.3.4,29.3a138.825,138.825,0,0,1-1.2,18.5q-2.4,12-10.5,24.6a19.159,19.159,0,0,1,7.9,5.5,114.617,114.617,0,0,0,9.7-26.6q2.2-9.1,2.2-26.9h15.1v5.7a90.714,90.714,0,0,1-.6,9.1q5-.3,11.1-0.4h12.1q8.3,0.2,12.9.8a45.1,45.1,0,0,1-.6-8.9v-6.3h4.6q9.5,0.3,13.9.8v-7.4q-0.8,0-2.6.2-7.1.4-10.9,0.4h-5a18.469,18.469,0,0,1,.4-5.1,3.193,3.193,0,0,1,.6-1.3,1.484,1.484,0,0,0,.4-1.1q-0.3-1.2-8.9-1.2a57.393,57.393,0,0,1,.4,8.7h-20.5v-4.6a4.156,4.156,0,0,1,.7-1.8,2.419,2.419,0,0,0,.5-1.5q0-1-8.9-1a86.477,86.477,0,0,1,.4,8.9h-15.1v-10.9h50.8q3.7,0,15.7.6v-8.1q-7.1.8-15.9,1h-14.3a93.024,93.024,0,0,0-3.9-10.5,10.071,10.071,0,0,1-.5-1.1Zm-17,58.4q0.6,0,1.8-.1,5.6-.3,10.3-0.3h1.4l-7.4,3.9a101.729,101.729,0,0,0,13.7,10.7,87.9,87.9,0,0,1-30.6,5.2,44.315,44.315,0,0,1,6.6,8.7,162.814,162.814,0,0,0,30-9.9,151.681,151.681,0,0,0,30.1,10.7,35.727,35.727,0,0,1,7-9.3,94.207,94.207,0,0,1-30.2-5.8q9.8-6.7,17.9-20.2l-0.4-.6q-4.8.4-17.9,0.4h-19.6q-6.9-.1-12.7-0.4v7Zm37.1-26v8.5h-20.5v-8.5h20.5Zm-11,36.5a45.878,45.878,0,0,1-12.6-10.9h24.2a45.71,45.71,0,0,1-11.6,10.9h0Zm130.2-64.5q-5.7,1-19.2,1h-40.7q-7.2,0-13.2-.6h-0.3v9.3a76.482,76.482,0,0,1,13.7-1.2h17.6v21.8h-14.4a102.934,102.934,0,0,1-11.7-.6,2.858,2.858,0,0,0-.6-0.1v9.1a50.364,50.364,0,0,1,11.5-.8h15.2v29.5h-22q-9.906.1-15-1.2-0.9-.2-1.4-0.3v10.5q5.3-1.5,16.6-1.4h59.5c1.53,0.065,2.8.132,3.8,0.2a34.531,34.531,0,0,1,6.6,1v-10.1q-5.91,1.3-16.9,1.3h-22.4v-29.5h18a65.531,65.531,0,0,1,11.9.8v-9.1q-7,.7-12.7.7h-17.2v-21.8h15.1q13.8,0,19.4,1v-9.7a10.813,10.813,0,0,1-1.2.2h0Zm-25,48a66.09,66.09,0,0,1,13.7,15.3l8.3-5.6a194.864,194.864,0,0,0-14.5-14.9Zm59.1-50a149.612,149.612,0,0,1,8.6,14.9l7.9-4.2q-0.51-.8-1.5-2.5-5.5-8.8-7.8-11.8Zm-7.9,29.8v35.1q0,7.4-.9,16.7c-0.07.8-.1,1.366-0.1,1.7h9.9q-0.6-6.3-.6-17.6v-36.1a43.486,43.486,0,0,1,1-10,5.874,5.874,0,0,0,.2-1.9c0.4-1-2.64-1.533-9.1-1.6h-1.2a119.652,119.652,0,0,1,.8,13.7h0Zm63.1-28.6h-21.6q-4.8,0-10.4-.4v8.5a85.012,85.012,0,0,1,9.4-.5q3.195-.1,8.9-0.1h17.7v59.2q0.09,7.3-12.7,5.7a22.109,22.109,0,0,1,4.5,10.5q17.49-3.2,16.7-9.9v-59.5q0-9.7,1-13.9-4.9.4-13.5,0.4h0Zm78.2,13.5h-24.6q-8.1-.1-17.1-0.8v9.1c0.73-.065,2-0.132,3.8-0.2q7.7-.6,13.1-0.6h15.2v18.5h-19.6q-9.51-.2-16.5-1v9.3q6.9-.6,16.3-0.8h18.9q-6.105,21-39.9,28.8a26.858,26.858,0,0,1,9.1,8.5q27.6-10.8,37.3-30.9a58.882,58.882,0,0,0,36.1,28.9,28.29,28.29,0,0,1,9.1-10.3q-28.2-2.1-41.2-25h17.8q11,0.2,19.3.8v-9.1q-8.4.8-19.3,1h-19v-18.7h17.2q9.8,0.1,17.3.8v-9.1q-10,.7-17.5.8h-7.7a69.384,69.384,0,0,1,7.3-9.7,32.449,32.449,0,0,1,3.6-3.1,3.749,3.749,0,0,0,1.4-1.5q-1.5-2.2-10.7-5.6a107.632,107.632,0,0,1-9.7,19.9h0Zm-29-14.9a75.693,75.693,0,0,1,9.9,14.1l8.8-4.4a142.967,142.967,0,0,0-10.2-13.7Z"/>
  <path id="大写字母" class="cls-3" d="M224.86,504.226l6.66,19.5H218.08Zm19.32,37.98-16.8-44.88h-5.1l-16.32,44.88h5.7l4.98-13.8h16.32l4.92,13.8h6.3Zm36.539-12.66q-0.18,7.92-9.3,8.1h-13.68v-16.62h13.08q9.66,0.18,9.9,8.52h0Zm-1.8-21.06q-0.121,7.74-7.98,7.86h-13.2v-14.52h12.6q8.339,0.12,8.58,6.66h0Zm7.02,21q-0.06-8.22-8.7-10.98,6.78-2.64,6.78-10.14-0.6-10.74-14.28-11.04h-17.28v44.88h18.6q14.58-.3,14.88-12.72h0Zm27.839,9q-13.56-1.08-14.4-18.42,0.96-18.3,14.4-19.32,8.88-.3,12.48,10.5l5.16-1.92q-4.14-13.08-17.52-13.08-18.72,1.08-19.86,24.06,0.72,21.9,19.74,22.74,14.76,0.118,18.36-15.24l-5.28-1.44q-2.7,12.36-13.08,12.12h0Zm58.8-18.78q0.24,18.24-15.84,17.94h-9.72v-35.82h9.96q15.3,0.36,15.6,17.88h0Zm5.16-.12q-0.6-21.42-20.64-22.26h-15.24v44.88h14.88q21.06,0.058,21-22.62h0Zm15.72,1.56h24.6v-4.68h-24.6v-14.64h26.16v-4.5h-31.44v44.88h32.4v-4.56h-27.12v-16.5Zm67.319-23.82h-29.52v44.76h5.16v-21.06H457v-4.68h-20.58v-14.52h24.36v-4.5Zm29.939,25.68h14.04v9.78q-4.74,5.46-14.28,5.46-15.12-.84-16.2-18.42,1.14-17.7,15.96-19.08,10.32-.3,14.64,11.1l4.86-2.28q-4.86-13.32-19.5-13.32-19.86,1.5-21.18,23.82,1.02,21.9,21.42,22.74,13.26-.18,19.38-8.22v-16.2h-19.14v4.62Zm58.5-6.42H525.1v-19.26h-5.28v44.88h5.28v-20.94h24.12v20.94h5.28v-44.88h-5.28v19.26Zm23.519-19.26h-5.28v44.88h5.28v-44.88Zm29.58,0v31.08q0.239,10.08-7.86,9.72-6.48.42-8.22-9.84l-4.98,1.2q1.918,13.68,12.96,13.2,13.618,0.18,13.44-14.52v-30.84h-5.34Zm50.88,44.88-18.36-26.34,17.64-18.54h-7.26l-20.94,23.1v-23.1h-5.64v44.88h5.64v-15l7.38-7.86,14.52,22.86h7.02Zm13.8-4.56v-40.32h-5.4v44.88h27.42v-4.56h-22.02Zm72.839-40.32h-6.78l-12.54,31.44-1.62,6.3-1.8-6.18-12.48-31.56h-6.84v44.88h5.28v-31.2l-0.6-7.86,2.16,7.5,12.24,31.56h3.66l12.54-31.2,1.98-8.1-0.42,7.62v31.68h5.22v-44.88Zm40.56,0v32.22l0.48,6.72-2.46-5.28-21.66-33.66h-5.88v44.88h5.28v-32.28l-0.6-6.78,2.94,6.06,21.36,33h5.7v-44.88h-5.16Zm50.879,22.62q-0.72,17.28-15.72,18.3-14.04-1.08-14.88-18.06,0.779-18.18,15.36-19.08,14.458,0.96,15.24,18.84h0Zm5.22,0.12q-0.841-22.38-20.46-23.46-19.68,1.02-20.58,23.7,1.02,21.36,20.22,22.5,19.74-1.5,20.82-22.74h0Zm37.98-9.9q-0.18,9-8.82,9.18h-13.44v-17.52h13.08q9.18,0,9.18,8.34h0Zm5.22,0.12q-0.54-12.48-14.76-12.96h-18v44.88h5.28v-18.36h12.84q14.338-.3,14.64-13.56h0Zm13.2,9.66q0.959-17.58,15.72-18.84,14.878,1.14,15.72,18.72-0.54,17.16-16.08,17.82-14.4-1.14-15.36-17.7h0Zm36.66-.12q-1.08-21.84-20.7-23.22-20.4.72-21.3,23.46,1.019,21,20.82,22.14h0.96l9.18,11.04,6.9-1.26-10.38-10.62q14.279-4.74,14.52-21.54h0Zm29.4-18q8.76,0.06,8.82,7.5-0.06,8.04-8.34,8.1h-14.64v-15.6h14.16Zm2.04,20.16q11.82-1.38,11.88-12.66-0.24-11.82-15-12h-18.24v44.88h5.16v-20.22h10.2l14.4,20.22h7.02Zm39.6-25.74q-14.523.24-15.722,11.88-0.84,10.02,16.082,13.14,12.84,2.46,12.54,9.24-0.42,7.32-11.46,7.74-10.863.6-13.562-11.16l-5.1,1.68q3.12,14.52,18.662,14.04,16.14-.482,16.68-12.3,0.96-10.26-17.04-14.04-12.063-2.34-11.4-8.34,0.78-7.44,10.442-7.38,8.94-.36,11.82,9.54l4.98-1.68q-3.3-12.24-16.92-12.36h0Zm24.66,1.08v4.5h14.4v40.38h5.22v-40.38h14.28v-4.5h-33.9Zm59.88,40.92q-12,.12-11.88-15.12v-25.8h-5.28v25.8q-0.06,19.74,17.04,19.68,17.82,0.058,17.76-19.68v-25.8h-5.28v25.8q0.24,15.48-12.36,15.12h0Zm45.48-5.82-1.2,4.86-1.02-4.74-12.54-35.22h-5.58l16.56,44.76h4.98l16.92-44.76h-5.58Zm47.64-35.1-9.42,33.3-1.2,6-1.08-6.12-7.62-33.18h-5.58l11.64,44.88h5.04l9.84-33.48,1.08-6.18,1.08,6.3,9.42,33.36h4.98l12.18-44.88h-5.64l-7.98,33.06-1.08,6.24-1.14-6.12-8.82-33.18h-5.7Zm71.51,0h-5.94l-11.46,18.18-11.76-18.18h-6.06l14.76,21.66-16.68,23.22h6.3l13.32-19.68,13.02,19.68h6.54l-16.32-23.22Zm38.58,0-13.5,21.78-12.96-21.78h-5.94l16.2,25.68v19.2h5.1v-19.2l17.04-25.68h-5.94Zm12.6,0v4.5h24.36l-25.8,37.38v3h33.54v-4.56h-26.28l25.44-36.9v-3.42h-31.26Z"/>
  <path id="logo" class="cls-1" d="M706.266,1194.7a45.969,45.969,0,0,0-.118,5.15v5.16H677.555v-1.17l0.234-.94-1.406-.24c-1.1,0-2.659-.07-4.688-0.23h-3.281l-0.469,2.58a45.646,45.646,0,0,1-1.172,4.92,22.619,22.619,0,0,1-1.406,4.22,7.125,7.125,0,0,0-.82,2.23,6.584,6.584,0,0,0,2.109-.71c1.326-.54,2.615-1.13,3.867-1.76a11.566,11.566,0,0,0,3.516-2.81l1.641-1.64h66.8l1.875,1.88a14.477,14.477,0,0,0,3.75,2.81c1.406,0.62,2.655,1.17,3.75,1.64a1.036,1.036,0,1,0,1.171-1.17,17.1,17.1,0,0,1-1.406-3.99q-0.7-2.34-1.172-4.68a11.9,11.9,0,0,0-.7-3.05c0-.47-1.252-0.62-3.75-0.47-1.875.16-3.281,0.23-4.219,0.23a2.052,2.052,0,0,1-.937.24c-0.315,0-.469.31-0.469,0.94l0.235,0.93-13.594.24q-13.359,0-13.36-.24a2.838,2.838,0,0,1,.7-1.05,6.664,6.664,0,0,0,1.171-2.46,15.728,15.728,0,0,0,.469-4.22v-2.58h-4.687Q706.382,1194.46,706.266,1194.7Zm-31.289,28.12v4.22l21.093,0.23h21.094l-5.859,4.93q-5.4,4.215-8.2,6.56l-2.344,1.87v6.8H660.445v4.22h40.313v14.76c0,10.01-.158,15.47-0.469,16.41a13.152,13.152,0,0,1-1.172,3.05,21,21,0,0,1-2.578,3.04,16.962,16.962,0,0,1-3.75,2.82c-1.406.62-2.109,1.17-2.109,1.64s0.153,0.7.468,0.7a30.375,30.375,0,0,0,3.047-.47,34.353,34.353,0,0,0,4.922-1.4,16.4,16.4,0,0,0,4.688-1.88,11.74,11.74,0,0,0,3.515-2.34,12.264,12.264,0,0,0,2.344-2.58,13,13,0,0,0,1.172-2.58c0.311-.94.469-6.4,0.469-16.41v-14.76h38.2v-4.22h-38.2v-6.8l2.109-1.64q2.109-1.635,8.438-6.79,6.327-5.4,8.437-7.04a13.637,13.637,0,0,0,2.578-2.34q0-.225-28.828-0.23t-29.062.23h0Zm121.64-30.23-0.469,1.87a27.635,27.635,0,0,1-1.523,5.74c-0.861,2.43-1.681,4.65-2.461,6.68q-1.176,2.58-3.281,6.8-1.88,3.75-4.453,8.44-2.11,3.75-4.688,7.73-2.582,4.215-3.047,4.92a7.818,7.818,0,0,0-1.406,2.11c-0.157.47-.117,0.71,0.117,0.71a8.252,8.252,0,0,0,2.227-1.18q1.873-1.17,3.515-2.34,1.874-1.41,3.985-3.28a59.714,59.714,0,0,0,4.453-4.45l2.109-2.35,0.235,14.77,0.234,14.76h1.875a5.862,5.862,0,0,0,3.047-.7,5.457,5.457,0,0,0,1.875-1.17,11.374,11.374,0,0,0,1.406-1.64l0.469-.71h27.187v2.11l0.235,2.11h1.64a7.437,7.437,0,0,0,2.813-.47,9.072,9.072,0,0,0,2.109-1.17,4.666,4.666,0,0,0,1.407-1.64l0.7-.94h31.64v-4.45H838.336v-6.8H868.57v-4.45H838.336v-6.8H868.57v-4.68H838.336v-7.5H868.57v-4.69H837.164l0.938-1.17a23.668,23.668,0,0,0,1.406-2.35,6.445,6.445,0,0,0,.7-2.57,17.74,17.74,0,0,0,.469-4.93v-3.51H828.727v14.53H815.6q-13.129,0-13.125-.23c0-.16-0.158-0.24-0.469-0.24s0.311-1.41,1.875-4.22a69.182,69.182,0,0,0,3.281-7.5,16.732,16.732,0,0,0,1.406-3.98l0.235-1.17H796.617Zm31.406,22.03v7.5H802.477v-7.5h25.546Zm0,12.18v6.8H802.477v-6.8h25.546Zm0,11.25v6.8H802.477v-6.8h25.546Zm-3.515,16.88v5.16l-22.969.23H778.805v4.45h45.7v1.64c0,1.1-.081,1.64-0.235,1.64a40.222,40.222,0,0,1-4.687-1.17q-4.455-1.17-4.922-1.4-0.236,0-6.328,4.68-6.1,4.935-7.734,6.1-1.643.93-4.454,2.58a58.967,58.967,0,0,1-5.39,2.57q-2.812,1.185-5.391,2.23a35.226,35.226,0,0,1-5.859,1.76,17.416,17.416,0,0,0-3.047,1.05,6.06,6.06,0,0,0,1.289,1.06,3.994,3.994,0,0,0,1.992.94c0.469,0,2.344-.32,5.625-0.94s6.328-1.33,9.141-2.11q4.449-1.17,8.2-2.35a22.822,22.822,0,0,0,4.922-2.1q1.637-.945,9.14-6.1t7.618-5.04q0.115,0.12.117,13.48v13.12h1.406a7.357,7.357,0,0,0,2.813-.7,6.692,6.692,0,0,0,3.046-1.99,11.184,11.184,0,0,0,2.11-3.17,8.733,8.733,0,0,0,.586-2.34q0.115-1.17.117-6.33c0.154-4.68.271-7.11,0.352-7.26s1.442,0.55,4.1,2.11q3.982,2.1,6.8,3.51a34.945,34.945,0,0,0,6.328,2.58,54.282,54.282,0,0,0,6.328,1.64,52.974,52.974,0,0,0,5.625.94c1.718,0.16,4.219.23,7.5,0.23a38.521,38.521,0,0,0,5.86-.23,1.37,1.37,0,0,0,1.171-.94l0.235-1.17c0-.15-0.235-0.24-0.7-0.24-0.315,0-1.722-.23-4.219-0.7s-5-1.01-7.5-1.64q-3.516-.93-6.8-2.11-2.812-.93-5.625-2.11-2.346-1.17-10.078-6.33l-7.734-5.15,19.453-.24h19.453v-4.45H854.977l-20.157-.23v-2.58l-0.234-2.58H824.508Z"/>
</svg>
