<svg xmlns="http://www.w3.org/2000/svg" width="400" height="200" viewBox="0 0 400 200">
  <defs>
    <style>
      .cls-1 {
        fill: #fdfdfd;
        fill-rule: evenodd;
      }
    </style>
  </defs>
  <path id="庞门正道标题体" class="cls-1" d="M53.247,112.809V89.721h33.36V84.969H71.631l-0.72-1.68H63.039l0.768,1.68H46.575v27.84l-2.3,5.232H50.9Zm7.728,5.088,6.144-18.624h5.616v9.552l-8.112,8.3h6.816l1.92-1.968a5.191,5.191,0,0,0,1.872,1.992,5.074,5.074,0,0,0,2.736.744H84.3l2.064-4.656H80.175a1.475,1.475,0,0,1-1.488-1.488v-2.16l7.68-7.968H79.7l-1.008,1.008v-3.36h7.824l-3.072-7.536h-5.9l1.152,2.784H68.7l1.248-3.7H63.279l-1.2,3.7H55.023v4.752h5.52L54.591,117.9h6.384Zm45.264-27.6-3.024-6.912H95.343L98.415,90.3h7.824Zm1.632-1.344h15.984v23.328a1.475,1.475,0,0,1-1.488,1.488h-1.536l-1.824,4.128h6.24a5.244,5.244,0,0,0,5.28-5.28V84.2H107.871v4.752ZM95.3,87.369H88.623v30.576H95.3V87.369ZM136.863,92.7v20.256h-4.128V117.9h42v-4.944H157.7V102.681h17.04V97.737H157.7v-9.36h17.04V83.433h-42v4.944h17.952v24.576h-7.392V92.7h-6.432Zm79.68-9.36h-6.624l-1.632,2.736h-9.7l-1.584-2.736h-6.672l1.584,2.736h-4.032v3.888h9.84L196,91.929h-7.152v20.4h24.144a5.084,5.084,0,0,0,2.016-.408,5.245,5.245,0,0,0,1.68-1.128,5.592,5.592,0,0,0,1.152-1.68,4.964,4.964,0,0,0,.432-2.064V91.929h-14.88l1.776-1.968h13.824V86.073h-4.032Zm-21.024,19.2V101.1H211.6v1.44h-16.08Zm0,5.472v-1.536H211.6a1.493,1.493,0,0,1-.432,1.1,1.436,1.436,0,0,1-1.056.432H195.519ZM211.6,97.161h-16.08v-1.3H211.6v1.3ZM176.9,83.337l3.312,5.856h6.336l-3.312-5.856H176.9Zm8.592,25.728,2.208-7.872h-3.264l4.08-10.56H176.847V95h4.128l-4.032,10.416-0.1.192h4.032l-4.032,12.384h6.192l0.624-2.352,1.92,2.352H217.5l1.392-4.416h-29.9ZM239.3,83.433v4.752h22.992V83.433H239.3Zm-0.768,12.24h9.84v16.416a1.479,1.479,0,0,1-1.536,1.536h-0.864L244.1,117.9h4.7a5.137,5.137,0,0,0,2.088-.432,5.6,5.6,0,0,0,2.9-2.9,5.13,5.13,0,0,0,.432-2.088v-16.8h8.832V90.921H238.527v4.752Zm4.848,21.408,2.064-19.776h-5.376l-2.016,19.776h5.328Zm12.336-19.776,2.064,19.776H263.1l-2.016-19.776h-5.376Zm-28.992-13.92v2.3h-5.712v4.752h5.712v27.5h4.7v-27.5h5.232V85.689h-5.232v-2.3h-4.7ZM226,91.929h-3.7l-1.2,25.92h3.7Zm6.192,0,1.2,25.92h3.744l-1.2-25.92h-3.744Zm77.136-5.472V83.241H290.079v3.216h7.008l-0.768,2.352h-6.24v16.512h5.568l-6.144,7.92h6.816l3.216-4.128,3.216,4.128h6.528l-4.752-6.144h-3.36l1.344-1.776V95.913h-5.664v7.872l-0.912,1.248V92.025h6a1.557,1.557,0,0,1,1.152.432,1.534,1.534,0,0,1,.384,1.056v11.808h5.856V94.137a4.708,4.708,0,0,0-.12-1.08,5.689,5.689,0,0,0-.36-1.032c-0.192-.288-0.4-0.576-0.624-0.864a4.372,4.372,0,0,0-.768-0.768,6.253,6.253,0,0,0-1.824-1.152,6.17,6.17,0,0,0-2.16-.432h-1.488l0.768-2.352h6.576Zm-27.648,24.864h7.248v-3.552h-7.248v-3.12h7.248v-3.6H266.991v3.6h8.928v8.688l-1.776-1.632,0.576-5.232h-6.432l-1.3,11.568h6.48l0.144-1.824,2.4,1.728h33.312v-3.84H281.679v-2.784ZM284.415,98.7a4.114,4.114,0,0,0,1.776-.384,5.063,5.063,0,0,0,1.44-1.008,3.2,3.2,0,0,0,.912-1.392,3.92,3.92,0,0,0,.384-1.776v-10.9H266.991V98.7h17.424Zm-10.9-5.856h8.928v1.488a0.679,0.679,0,0,1-.768.768h-8.16V92.841Zm0-5.568h8.928v2.016h-8.928V87.273Zm70.272-3.936h-6.528v3.168H325.791v4.752h11.472v17.184H333.9v4.752h3.36v4.8h6.528v-4.8h3.36v-4.752h-3.36V91.257h11.472V86.505H343.791V83.337Zm-9.7,10.224h-5.952l-2.352,24.432h6Zm19.008,0h-6l2.352,24.432h5.952Zm-35.952,24.384H323.3V91.353h-1.776l3.36-8.064h-6.432L313.071,96.3h4.08v21.648Z"/>
</svg>
