<svg xmlns="http://www.w3.org/2000/svg" width="1540" height="1450" viewBox="0 0 1540 1450">
  <defs>
    <style>
      .cls-1 {
        fill: #fff;
      }

      .cls-1, .cls-2, .cls-3 {
        fill-rule: evenodd;
      }

      .cls-2 {
        fill: #fefefe;
      }

      .cls-3 {
        fill: #fdfdfd;
      }
    </style>
  </defs>
  <path id="字体名称" class="cls-1" d="M159.013,310.334v-96.2h139v-19.8h-62.4l-3-7h-32.8l3.2,7h-71.8v116l-9.6,21.8h27.6Zm32.2,21.2,25.6-77.6h23.4v39.8l-33.8,34.6h28.4l8-8.2a21.665,21.665,0,0,0,7.8,8.3,21.154,21.154,0,0,0,11.4,3.1h26.4l8.6-19.4h-25.8a6.146,6.146,0,0,1-6.2-6.2v-9l32-33.2h-27.8l-4.2,4.2v-14h32.6l-12.8-31.4h-24.6l4.8,11.6h-41.6l5.2-15.4h-27.8l-5,15.4h-29.4v19.8h23l-24.8,77.6h26.6Zm188.6-115-12.6-28.8h-32.8l12.8,28.8h32.6Zm6.8-5.6h66.6v97.2a6.146,6.146,0,0,1-6.2,6.2h-6.4l-7.6,17.2h26a21.852,21.852,0,0,0,22-22v-118.4h-94.4v19.8Zm-52.4-6.6h-27.8v127.4h27.8v-127.4Zm173.2,22.2v84.4h-17.2v20.6h175v-20.6h-71v-42.8h71v-20.6h-71v-39h71v-20.6h-175v20.6h74.8v102.4h-30.8v-84.4h-26.8Zm332-39h-27.6l-6.8,11.4h-40.4l-6.6-11.4h-27.8l6.6,11.4h-16.8v16.2h41l-7.2,8.2h-29.8v85h100.6a21.237,21.237,0,0,0,8.4-1.7,21.89,21.89,0,0,0,7-4.7,23.324,23.324,0,0,0,4.8-7,20.7,20.7,0,0,0,1.8-8.6v-63h-62l7.4-8.2h57.6v-16.2h-16.8Zm-87.6,80v-6h67v6h-67Zm0,22.8v-6.4h67a6.226,6.226,0,0,1-1.8,4.6,5.987,5.987,0,0,1-4.4,1.8h-60.8Zm67-45.2h-67v-5.4h67v5.4Zm-144.6-57.6,13.8,24.4h26.4l-13.8-24.4h-26.4Zm35.8,107.2,9.2-32.8h-13.6l17-44h-48.6v18.2h17.2l-16.8,43.4-0.4.8h16.8l-16.8,51.6h25.8l2.6-9.8,8,9.8h133l5.8-18.4h-124.6Zm224.2-106.8v19.8h95.8v-19.8h-95.8Zm-3.2,51h41v68.4a6.162,6.162,0,0,1-6.4,6.4h-3.6l-7.8,17.8h19.6a21.409,21.409,0,0,0,8.7-1.8,23.319,23.319,0,0,0,12.1-12.1,21.388,21.388,0,0,0,1.8-8.7v-70h36.8v-19.8h-102.2v19.8Zm20.2,89.2,8.6-82.4h-22.4l-8.4,82.4h22.2Zm51.4-82.4,8.6,82.4h22.2l-8.4-82.4h-22.4Zm-120.8-58v9.6h-23.8v19.8h23.8v114.6h19.6v-114.6h21.8v-19.8h-21.8v-9.6h-19.6Zm-3,35.6h-15.4l-5,108h15.4Zm25.8,0,5,108h15.6l-5-108h-15.6Zm321.4-22.8v-13.4h-80.2v13.4h29.2l-3.2,9.8h-26v68.8h23.2l-25.6,33h28.4l13.4-17.2,13.4,17.2h27.2l-19.8-25.6h-14l5.6-7.4v-39.2h-23.6v32.8l-3.8,5.2v-54.2h25a6.487,6.487,0,0,1,4.8,1.8,6.375,6.375,0,0,1,1.6,4.4v49.2h24.4v-46.6a19.572,19.572,0,0,0-.5-4.5,23.212,23.212,0,0,0-1.5-4.3q-1.2-1.8-2.6-3.6a18.116,18.116,0,0,0-3.2-3.2,26.021,26.021,0,0,0-7.6-4.8,25.708,25.708,0,0,0-9-1.8h-6.2l3.2-9.8h27.4Zm-115.2,103.6h30.2v-14.8h-30.2v-13h30.2v-15h-91.4v15h37.2v36.2l-7.4-6.8,2.4-21.8h-26.8l-5.4,48.2h27l0.6-7.6,10,7.2h138.8v-16h-115.2v-11.6Zm11.4-52.6a17.125,17.125,0,0,0,7.4-1.6,20.986,20.986,0,0,0,6-4.2,13.3,13.3,0,0,0,3.8-5.8,16.288,16.288,0,0,0,1.6-7.4v-45.4h-91.4v64.4h72.6Zm-45.4-24.4h37.2v6.2q0,3.2-3.2,3.2h-34v-9.4Zm0-23.2h37.2v8.4h-37.2v-8.4Zm292.8-16.4h-27.2v13.2h-47.8v19.8h47.8v71.6h-14v19.8h14v20h27.2v-20h14v-19.8h-14v-71.6h47.8v-19.8h-47.8v-13.2Zm-40.4,42.6h-24.8l-9.8,101.8h25Zm79.2,0h-25l9.8,101.8h24.8Zm-149.8,101.6h25.6v-110.8h-7.4l14-33.6h-26.8l-22.4,54.2h17v90.2Z"/>
  <path id="中文示例" class="cls-2" d="M366.447,712.05a9.194,9.194,0,0,0-.75-3.653,9.555,9.555,0,0,0-5.1-5.108,9.178,9.178,0,0,0-3.65-.752l-36.3.1v59.7l0.1,12.9h13.8v-20.4h19.1v7a3.075,3.075,0,0,1-3.1,3.1h-1.5l-3.3,9.9h9.7a10.6,10.6,0,0,0,4.2-.851,10.961,10.961,0,0,0,3.5-2.353,11.667,11.667,0,0,0,2.4-3.5,10.377,10.377,0,0,0,.9-4.306V712.05Zm-15.916.487a3.012,3.012,0,0,1,2.211.9,3.105,3.105,0,0,1,.9,2.3v8h-19.1v-11.2h15.984Zm-15.984,32.4v-11.3h19.1v11.3h-19.1Zm-56,29.9h26.9a10.63,10.63,0,0,0,4.2-.849,10.928,10.928,0,0,0,6.7-10.151v-61.2l-37.8.1v72.1Zm26.2-13a2.983,2.983,0,0,1-.906,2.2,3.151,3.151,0,0,1-2.316.9H290.147v-24.5h14.6v21.4Zm0-49.3v18h-14.6v-18h14.6Zm84.5,48.3v-7.8h55.4l-0.1,10.9a2.218,2.218,0,0,1-2.2,2.2h-11.4l-3.1,8.2h21.2a8.86,8.86,0,0,0,6.45-2.6,8.524,8.524,0,0,0,2.65-6.309V702.537h-82.6v58.28l-4.7,14.321h13.7Zm0-17.5v-11.6h55.3l0.1-.2v11.8h-55.4Zm55.4-30.9v9.6h-55.4v-9.6h55.4Zm108.8,31.2h-14.2v19.1a2.388,2.388,0,0,1-2.4,2.4h-19.3v-28.7h23.9a9.275,9.275,0,0,0,6.7-2.722,8.967,8.967,0,0,0,2.8-6.683v-20.1h-14.2v17.3a2.206,2.206,0,0,1-.7,1.6,2.315,2.315,0,0,1-1.7.7h-16.8v-23.8h-14.2v23.8h-19.6v-19.6h-14.3v29.5h33.9v28.7h-21.6v-21.5h-14.1v31.4h76.2a9.384,9.384,0,0,0,6.75-2.751,9.008,9.008,0,0,0,2.851-6.75v-21.9Zm9.3,31.2h16.4l27.6-28.3,26.5,28.3h16.8l-28.4-29.1h-14.2l5.4-5.5h37.4v-10.3h-37.1v-16.7h33.7v-10.3h-80.7v10.3h33.6v16.7h-37v10.3h33.8Zm129-.7h43a7.51,7.51,0,0,0,7.5-7.5v-53.9h-13.5v50a2.086,2.086,0,0,1-.6,1.45,1.953,1.953,0,0,1-1.5.649h-21.5v-61.2h-13.4v61.2h-23.6v-52.1h-13.4v61.4h37Zm181.667-71.3H859l-1.4,3.2H823.462l-1.4-3.2H807.646l1.4,3.2h-12.5v8h16.006l1.3,2.9h14.423l-1.3-2.9h27.137l-1.3,2.9h14.394l1.3-2.9h16v-8H872Zm-51.561,18.3H807.146l-10.6,23.2h8.6v19.6a10.929,10.929,0,0,0,11,11h60.3l4.4-8.5h-59.8a3.075,3.075,0,0,1-3.1-3.1v-17.6h46.8v4.1a3.164,3.164,0,0,1-.9,2.25,3.012,3.012,0,0,1-2.292.951H845.9l3.4,8.5H866.63a10.657,10.657,0,0,0,4.207-.849,10.948,10.948,0,0,0,5.858-5.851,10.861,10.861,0,0,0,.851-4.3v-5.8h7l-9-23.6H821.852Zm-7.506,16.1,3.6-7.9v0.3h47.4l2.324,7.6H814.346Zm94.4-3.5h5.8v31.3a9.426,9.426,0,0,0,.8,3.9,10.357,10.357,0,0,0,2.165,3.149,9.615,9.615,0,0,0,3.224,2.1,10.552,10.552,0,0,0,3.979.75h47.827l4-8.9h-45.2a2.9,2.9,0,0,1-2.9-2.9v-29.4h47.1v-9.1h-21.9l-2.5-5.7h-15l2.6,5.7h-30v9.1Zm-20.2-15.7,5.8,14.6h-5.8l7,17.5h13.3l-5.8-14.5h5.8l-7-17.6h-13.3Zm8.7,36-6,20.8h13.3l6-20.8h-13.3Zm70.339-51.2h-14.9l-1.8,4H915.476l-1.8-4h-14.9l1.7,4h-11.6v7.2h14.7l1.4,3.3h15.009l-1.409-3.3h29.209l-1.4,3.3h15l1.4-3.3h13.8v-7.2h-10.7Zm16.861,70.1h68.3l1,1.9h14.5l-12.5-25.6h-14.6l6.6,13.4h-43.6l11.9-25.2h52.2v-10.3h-87.5v10.3h20.5Zm2.2-59.6h75.7v-10.3h-75.7v10.3Zm178.2,35.7v-8.8h-4.6v-18.8h-54.7v18.8h-4v8.8h4v7.6a8.335,8.335,0,0,0,2.5,6.051,8.211,8.211,0,0,0,6.1,2.55h33.5v0.5a2.339,2.339,0,0,1-.7,1.7,2.172,2.172,0,0,1-1.6.6h-4l-3.8,7h14.8a8.242,8.242,0,0,0,5-1.7,7.685,7.685,0,0,0,2.9-6.2v-1.9h3v-7.7l-3-.1v-8.4h4.6Zm-55.6-46.5-6.5,14.8h61.8v-9.9h-42.6l2.3-4.9h-15Zm-23.5,39.2h13.8l-6.8-16.759h6.8l-9.3-22.441h-14l7,16.5h-7Zm4.5,33.5,9.3-28.8h-13.8l-9.5,28.8h14Zm27.6-45h29.8v10h-8.9l-2.2-7.5h-10.4l1.8,7.5h-10.1v-10Zm29.8,27.2h-9.3l-1.8-6.2h-10.4l1.5,6.2h-6.5a3.274,3.274,0,0,1-2.35-.9,3.005,3.005,0,0,1-.95-2.3v-5.2h29.8v8.4Zm44.6,13.1h35.3a10.908,10.908,0,0,0,7.8-3.206,10.953,10.953,0,0,0,3.2-7.815V720.938h-46.3v49.6Zm13.9-9.9v-9.9h18.5v6.8a3.072,3.072,0,0,1-3.1,3.1h-15.4Zm18.5-29.8v10h-18.5v-10h18.5Zm-38.1-28,6.4,14.4h16.4l-6.4-14.4h-16.4Zm25.1,11.6h34.9v48.8a3.072,3.072,0,0,1-3.1,3.1h-3.2l-3.9,8.7h13.1a10.926,10.926,0,0,0,11-11v-59.5h-48.8v9.9Zm-25.2-3.2h-13.9v63.8h13.9v-63.8Zm-886.5,193.211,64.1-14.95V877.537l-64.1,15.05V878.534h-13.7v29.3h-7.6v9.9h7.6v21.8a10.512,10.512,0,0,0,.85,4.25,10.832,10.832,0,0,0,5.7,5.7,10.545,10.545,0,0,0,4.25.849h13.6l3.3-8.5h-10.9a3.072,3.072,0,0,1-3.1-3.1v-21h18.8l29.3,32.6h17.4l-29.3-32.6h30.3v-9.9h-66.5v-3.389Zm154.9,45.389,3.5-9.312h-4.3a2.279,2.279,0,0,1-1.6-.65,2.049,2.049,0,0,1-.7-1.553V877.938h-76.2v60.984l-4.8,10.816h13.764l4.936-10.8v-51.1h48.9v53.1a8.875,8.875,0,0,0,8.9,8.9h7.6Zm-31.6-59.4q-2.2,4.5-4.5,8.8a65.758,65.758,0,0,1-5.2,8.2,65.3,65.3,0,0,1-5.2-8.2q-2.3-4.3-4.5-8.8h-12.6a61.582,61.582,0,0,0,5.2,13.649,77.385,77.385,0,0,0,8.3,12.75,49.379,49.379,0,0,1-13.5,7.5v12.5a42.212,42.212,0,0,0,11.6-3.95,58.7,58.7,0,0,0,10.7-7.05,58.6,58.6,0,0,0,10.7,7.05,42.189,42.189,0,0,0,11.6,3.95v-12.5a47.388,47.388,0,0,1-13.5-7.5,77.514,77.514,0,0,0,8.3-12.75,61.78,61.78,0,0,0,5.2-13.649h-12.6Zm60.5,47.1v-51.3h37.3v54.1a9.062,9.062,0,0,0,.75,3.7,9.455,9.455,0,0,0,4.95,4.95,9.054,9.054,0,0,0,3.7.75h3.1v0.2h12.7l3.3-8.5h-11.7a3.115,3.115,0,0,1-2.3-.9,2.993,2.993,0,0,1-.9-2.2v-60.5h-64.8v59.7l-6.4,12H477.4Zm71.6,11.1h13.5l12.9-38h45.1v28a2.218,2.218,0,0,1-2.2,2.2h-10.7l-3.4,8.2h19.5a8.532,8.532,0,0,0,6.35-2.6,8.665,8.665,0,0,0,2.55-6.3v-38.7h-54.1l4.5-13.4h52.9v-9.3h-87.5v9.3h21.1Zm179.1-7.1h-36.8v-6.6h32.6v-8.5h-32.6v-6.2h21.6a10.936,10.936,0,0,0,7.8-3.2,11.13,11.13,0,0,0,2.35-3.451,10.522,10.522,0,0,0,.85-4.25v-31.4h-78.9v42.3h32.4v6.2h-32.4v8.5h32.4v6.6h-37.1v8.4h87.8v-8.4Zm-36.8-29.7v-8.5h18.7v5.4a3.072,3.072,0,0,1-3.1,3.1h-15.6Zm18.7-16.9h-18.7v-8.6h18.7v8.6Zm-32.6-8.6v8.6h-18.5v-8.6h18.5Zm-18.5,25.5v-8.5h18.5v8.5h-18.5Zm148.8,38.6a16.081,16.081,0,0,0,2.25-.15,6.688,6.688,0,0,0,2.05-.651,11.425,11.425,0,0,0,3.6-2.3,15.16,15.16,0,0,0,2.3-3.5,6.708,6.708,0,0,0,.65-2.1,17.076,17.076,0,0,0,.15-2.3V879.137h-5.1v-0.1h-27.5v71.4h21.6Zm28.9-51.9v17.9l-19.3,33.7h14.7l12.2-22.3,14.2,22.3h15.2l-17.7-26.56h-9.3l3.4-6.414V906.438h13.3l10.9-24.6-32.8-.069,2-4.331h-14.9l-6.3,14.3h33.1l-5.3,12v-5.2h-13.4Zm-29.9-10.7v50.8a2.5,2.5,0,0,1-.9,2.1,2.919,2.919,0,0,1-2.3.9h-5.3v-53.8h8.5Zm153.2,38.5q-7,6-19.8,9.6-11.3-3.2-18.1-8.3h-13.7a34.993,34.993,0,0,0,10.8,10.1q1.4,0.9,2.8,1.7-6.9.8-14.7,1.1v9.3a173.828,173.828,0,0,0,20.6-1.4q6.4-.9,12.3-2.3a103,103,0,0,0,12.6,2.3,165.688,165.688,0,0,0,20,1.4v-9.3q-7.6-.3-14.3-1.1,2-1.1,3.8-2.3a31.783,31.783,0,0,0,10.5-10.8v-8.1h-65.5v8.1h52.7Zm14.7-44.8h-32.3l-1.6-3.6h-16.2l1.5,3.6h-35.4v57.4l-4.9,10.9h12.6l4.8-10.9v-48.8h71.5v-8.6Zm-5.1,10.5h-11.4v2.8h-37.1v-2.8h-11.4v2.8h-5v8.1h5v12.5h50.8a9.049,9.049,0,0,0,9.1-9.1v-3.4h3.9v-8.1h-3.9v-2.8Zm-14,15.3h-34.5v-4.4h37.1v1.8a2.282,2.282,0,0,1-.8,1.8,3.015,3.015,0,0,1-1.8.8h0Zm107.4,42.6h7.1l-10.4-26.1h-14l6.3,16h-18.9v-23.8h33.5v-10.3h-33.5v-17.7h34.6v-10.4h-83.1v10.4h34.6v17.7h-33.5v10.3h33.5v23.8h-36.8v10.3h80.6v-0.2Zm48.3-57.6-6.3-14.4h-16.4l6.4,14.4h16.3Zm3.4-2.8h33.3v48.6a3.075,3.075,0,0,1-3.1,3.1h-3.2l-3.8,8.6h13a10.926,10.926,0,0,0,11-11v-59.2h-47.2v9.9Zm-26.2-3.3h-13.9v63.7h13.9v-63.7Zm98.2,63.8,22-16.6,23.4,16.6h22.3l-30.8-20.8h-9.3l4.9-3.6v-1.8h34.9v-9.9h-34.9v-14.4h31.6v-9.9h-15.4l5.3-11.9h-14.5l-5.3,11.9h-21.5l-5.3-11.9h-14.5l5.3,11.9h-15.4v9.9h33.7v14.4h-37v9.9h34.5l-34.5,26.2h20.5Z"/>
  <path id="大写字母" class="cls-3" d="M62.168,536.766l4.68-11.088H85.064l4.68,11.088H101.7L81.824,488.742H70.088L50.216,536.766H62.168ZM82.832,517.11H69.152l6.84-16.776Zm57.815,19.656a29.266,29.266,0,0,0,9-1.044,9.988,9.988,0,0,0,4.968-3.78,13.294,13.294,0,0,0,2.232-7.848q0-8.136-6.984-11.3a10.485,10.485,0,0,0,5-4.464,13.246,13.246,0,0,0,.756-12.528,10.743,10.743,0,0,0-5.112-5.544q-2.88-1.512-9.288-1.512H114.079v48.024h26.568ZM124.3,497.31h14.112q3.526,0,5.04,1.008a4.719,4.719,0,0,1,2.088,4.248,5.682,5.682,0,0,1-2.232,4.752,4.871,4.871,0,0,1-1.908.936,16.577,16.577,0,0,1-3.2.216H124.3V497.31Zm0,19.728h14.112q3.526,0,5.04,1.008a4.719,4.719,0,0,1,2.088,4.248,5.682,5.682,0,0,1-2.232,4.752,4.314,4.314,0,0,1-1.872.936,17.2,17.2,0,0,1-3.24.216H124.3v-11.16Zm69.048,11.16q-6.121,0-9-2.3-4.1-3.312-4.1-13.968,0-7.92,2.664-10.944,3.166-3.672,10.008-3.672h15.12v-8.568H191.767A29.385,29.385,0,0,0,180,490.758a16.124,16.124,0,0,0-7.308,6.408q-3.746,6.048-3.744,15.7a33.114,33.114,0,0,0,2.448,13.536,16.642,16.642,0,0,0,12.6,9.864,39.6,39.6,0,0,0,7.272.5h16.776V528.2H193.351Zm29.015,8.568h20.376a59.217,59.217,0,0,0,9.972-.612,17,17,0,0,0,6.012-2.34,15.516,15.516,0,0,0,6.192-8.712,39.389,39.389,0,0,0,1.872-12.24,38.252,38.252,0,0,0-1.944-12.312,16.174,16.174,0,0,0-10.3-10.3q-4.176-1.512-11.808-1.512H222.366v48.024Zm20.376-39.456q5.9,0,8.64,2.448a12.167,12.167,0,0,1,3.024,5.256,24.971,24.971,0,0,1,1.152,7.776,25.965,25.965,0,0,1-.972,7.2,14.143,14.143,0,0,1-2.556,5.256q-2.592,2.952-9.288,2.952H232.59V497.31h10.152Zm57.167-8.568a27.727,27.727,0,0,0-8.028.936,15.409,15.409,0,0,0-5.652,3.312q-7.705,6.984-7.7,19.512,0,11.3,5.472,17.928a16.345,16.345,0,0,0,10.3,5.688,61.588,61.588,0,0,0,9.5.648h13.32V528.2H304.3q-7.416,0-10.512-2.412t-3.672-8.6h27v-8.568h-27a30.329,30.329,0,0,1,.684-4.9,8.64,8.64,0,0,1,1.476-2.88,7.677,7.677,0,0,1,3.96-2.808,28.521,28.521,0,0,1,7.56-.72h13.32v-8.568H299.909ZM341.957,508.4v-2.592q0.144-5.688,4.176-7.344,2.015-1.008,9.144-1.152h15.336v-8.568H353.981q-8.424,0-13.068,2.016a14.177,14.177,0,0,0-7.092,6.768q-1.944,3.384-2.016,14.184v25.056h10.152v-19.8h28.656V508.4H341.957Zm61.055,8.424H416.4V528.2h-9.288a21.037,21.037,0,0,1-5.94-.72,7.781,7.781,0,0,1-3.78-2.3,12.2,12.2,0,0,1-2.484-5.256,32.035,32.035,0,0,1-.9-7.92q0-8.568,3.456-11.88,2.878-2.808,9.288-2.808h19.8v-8.568H405.6a29.168,29.168,0,0,0-11.952,2.088,15.9,15.9,0,0,0-7.272,6.624q-3.6,6.192-3.6,15.48,0,14.256,7.56,20.088a15.79,15.79,0,0,0,5.94,2.916,37.417,37.417,0,0,0,8.82.828h21.456V508.254H403.012v8.568Zm68.112-28.08v19.584H452.548V488.742H442.324v48.024h10.224V516.894h18.576v19.872h10.152V488.742H471.124Zm37.367,48.024V488.742H498.267v48.024h10.224Zm23.9,0a60.422,60.422,0,0,0,10.3-.648q7.2-1.728,9.936-7.848a17,17,0,0,0,1.44-4.9,59.967,59.967,0,0,0,.36-7.632v-27H544.274v27a31.107,31.107,0,0,1-.612,7.272,6.352,6.352,0,0,1-2.2,3.528,6.422,6.422,0,0,1-3.348,1.332,51.369,51.369,0,0,1-6.8.324h-9.792v8.568h10.872Zm38.52-48.024v48.024h10.224V488.742H570.914Zm28.008,48.024h13.464L593.234,512.5l20.088-23.76H599.858L581.5,512.5Zm26.064-21.024a44.561,44.561,0,0,0,.792,10.08,13.784,13.784,0,0,0,10.08,10.08,51,51,0,0,0,11.16.864H657.89V528.2H648.1q-6.7,0-9.36-1.188a5.427,5.427,0,0,1-3.168-4.5q-0.216-1.656-.432-6.768v-27H624.986v27Zm45.864-27v48.024h9.72v-36l11.88,36h10.512l12.528-36v36h9.72V488.742h-14.9l-12.6,37.512-11.952-37.512h-14.9Zm100.8,48.024h12.528V488.742h-9.72v35.784l-19.08-35.784h-13.1v48.024h9.792V501.558Zm33.767-43.344q-6.842,5.832-6.84,19.584a29.392,29.392,0,0,0,2.664,13.1,16.9,16.9,0,0,0,7.7,7.92,30.892,30.892,0,0,0,14.112,3.024A29.709,29.709,0,0,0,834,535.182a17.6,17.6,0,0,0,9.5-9,30.659,30.659,0,0,0,2.448-12.744,36.208,36.208,0,0,0-2.016-12.672,16.928,16.928,0,0,0-9-9.864,30.77,30.77,0,0,0-12.672-2.448q-11.088.072-16.848,4.968h0Zm26.856,7.848q2.446,3.96,2.448,11.52,0,8.28-2.988,12.24t-9.324,3.96q-6.552,0-9.576-3.888-3.024-3.96-3.024-12.384,0-7.992,2.448-11.592,3.024-4.608,10.08-4.608,7.128,0.072,9.936,4.752h0Zm54.719,18.72a23.942,23.942,0,0,0,6.588-.72,12.388,12.388,0,0,0,4.572-2.592,14.048,14.048,0,0,0,3.708-5.364,18.269,18.269,0,0,0,1.332-6.948,16.9,16.9,0,0,0-2.016-8.136,13.249,13.249,0,0,0-7.488-6.552q-2.808-.936-9.36-0.936H860.351v48.024h10.224V519.99h16.416Zm-16.416-22.68h14.112a10.98,10.98,0,0,1,3.888.5q3.384,1.368,3.384,6.192,0,4.464-2.232,6.264-1.512,1.152-5.256,1.152h-13.9V497.31ZM956.4,528.2a24.2,24.2,0,0,0,5.328-15.768,33.62,33.62,0,0,0-2.088-11.664,16.762,16.762,0,0,0-3.456-5.976,17.881,17.881,0,0,0-5.544-3.888,30.456,30.456,0,0,0-12.672-2.448q-11.016,0-16.848,4.968-6.842,5.9-6.84,19.584a29.176,29.176,0,0,0,2.88,13.464,17.179,17.179,0,0,0,11.88,9.216,37.29,37.29,0,0,0,5.328.9q2.231,0.18,8.28.18h21.888V528.2H956.4Zm-8.568-26.928q2.592,4.248,2.592,11.016,0,7.416-2.16,11.3-2.808,5.112-10.152,5.112-7.849,0-10.512-5.544a26,26,0,0,1-2.016-11.088q0-7.848,3.06-11.7t9.4-3.852q6.838,0.072,9.792,4.752h0Zm49.1,17.28q5.333-.072,8.135,1.44a8.346,8.346,0,0,1,3.35,3.528,18.371,18.371,0,0,1,1.47,6.408,48.719,48.719,0,0,0,1.08,6.84h11.45a34.044,34.044,0,0,1-1.15-7.272,29.106,29.106,0,0,0-.61-4.68,17.014,17.014,0,0,0-1.26-3.312,10.062,10.062,0,0,0-2.59-3.276,15.816,15.816,0,0,0-4.25-2.124,13.652,13.652,0,0,0,5.69-3.384q3.45-3.744,3.45-10.584a13.361,13.361,0,0,0-1.47-6.228,11.712,11.712,0,0,0-4.22-4.572q-3.96-2.592-14.04-2.592H978.5v48.024h10.224V518.55h8.208Zm-8.208-21.24h14.323a12.95,12.95,0,0,1,3.96.432q3.465,1.224,3.46,5.616,0,3.96-2.3,5.544-1.515,1.08-5.12,1.08H988.727V497.31Zm72.283,39.456a57.822,57.822,0,0,0,8.28-.432,11.628,11.628,0,0,0,8.43-5.9,15.321,15.321,0,0,0,2.01-7.848,18.263,18.263,0,0,0-1.51-7.416,11.2,11.2,0,0,0-7.05-6.048,28.464,28.464,0,0,0-8.79-1.008h-7.7a15.127,15.127,0,0,1-6.05-.864q-2.745-1.152-2.74-4.608,0-4.1,3.24-4.9a38.466,38.466,0,0,1,6.41-.432h21.53v-8.568h-23.83c-2.84,0-4.97.072-6.41,0.216q-6.33.72-9.22,4.752a15.666,15.666,0,0,0-2.95,9.216,14.6,14.6,0,0,0,1.26,6.048,12.985,12.985,0,0,0,3.49,4.68q3.6,2.952,11.74,2.952h8.93a11.376,11.376,0,0,1,5.33.936,5.389,5.389,0,0,1,2.95,5.112,4.95,4.95,0,0,1-2.52,4.536q-1.725,1.008-6.99,1.008h-21.96v8.568h24.12Zm44,0h10.22V497.31h15.91v-8.568h-41.4v8.568h15.27v39.456Zm38.01-48.024v29.016a30.162,30.162,0,0,0,1.01,8.82,13.333,13.333,0,0,0,3.67,5.652q5.115,4.9,16.27,4.9,10.44,0,16.13-4.968a13.374,13.374,0,0,0,3.64-5.868,30.364,30.364,0,0,0,1.19-9.252v-28.3H1174.7v28.8q0,5.184-1.01,7.2a7.136,7.136,0,0,1-3.56,3.2,14.165,14.165,0,0,1-6.01,1.188q-5.4,0-8.43-2.952a7.676,7.676,0,0,1-1.94-3.276,19.19,19.19,0,0,1-.58-5.364v-28.8h-10.15Zm93.53,0-14.33,36.144-14.11-36.144h-11.52l20.23,48.024h10.22l21.03-48.024h-11.52Zm19.8,0,15.55,48.024h11.66l9.94-34.632,9.94,34.632h11.66l15.48-48.024h-10.51l-10.8,36.144-10.08-36.144h-11.38l-10.08,36.144-10.8-36.144h-10.58ZM1339,536.766h12.17l10.37-16.488,10.58,16.488h12.03L1367.87,512.5l16.28-23.76h-12.39l-10.22,15.84-9.43-15.84h-12.53l15.77,23.76Zm70.71,0h10.22V516.1l18.72-27.36h-12.17l-11.59,18.792-11.02-18.792h-11.95l17.79,27v21.024Zm38.95-8.28v8.28h41.69V528.2h-29.24l29.24-30.6v-8.856h-41.69v8.568h30.24Z"/>
  <path id="logo" class="cls-1" d="M706.266,1194.7a45.969,45.969,0,0,0-.118,5.15v5.16H677.555v-1.17l0.234-.94-1.406-.24c-1.1,0-2.659-.07-4.688-0.23h-3.281l-0.469,2.58a45.646,45.646,0,0,1-1.172,4.92,22.619,22.619,0,0,1-1.406,4.22,7.125,7.125,0,0,0-.82,2.23,6.584,6.584,0,0,0,2.109-.71c1.326-.54,2.615-1.13,3.867-1.76a11.566,11.566,0,0,0,3.516-2.81l1.641-1.64h66.8l1.875,1.88a14.477,14.477,0,0,0,3.75,2.81c1.406,0.62,2.655,1.17,3.75,1.64a1.036,1.036,0,1,0,1.171-1.17,17.1,17.1,0,0,1-1.406-3.99q-0.7-2.34-1.172-4.68a11.9,11.9,0,0,0-.7-3.05c0-.47-1.252-0.62-3.75-0.47-1.875.16-3.281,0.23-4.219,0.23a2.052,2.052,0,0,1-.937.24c-0.315,0-.469.31-0.469,0.94l0.235,0.93-13.594.24q-13.359,0-13.36-.24a2.838,2.838,0,0,1,.7-1.05,6.664,6.664,0,0,0,1.171-2.46,15.728,15.728,0,0,0,.469-4.22v-2.58h-4.687Q706.382,1194.46,706.266,1194.7Zm-31.289,28.12v4.22l21.093,0.23h21.094l-5.859,4.93q-5.4,4.215-8.2,6.56l-2.344,1.87v6.8H660.445v4.22h40.313v14.76c0,10.01-.158,15.47-0.469,16.41a13.152,13.152,0,0,1-1.172,3.05,21,21,0,0,1-2.578,3.04,16.962,16.962,0,0,1-3.75,2.82c-1.406.62-2.109,1.17-2.109,1.64s0.153,0.7.468,0.7a30.375,30.375,0,0,0,3.047-.47,34.353,34.353,0,0,0,4.922-1.4,16.4,16.4,0,0,0,4.688-1.88,11.74,11.74,0,0,0,3.515-2.34,12.264,12.264,0,0,0,2.344-2.58,13,13,0,0,0,1.172-2.58c0.311-.94.469-6.4,0.469-16.41v-14.76h38.2v-4.22h-38.2v-6.8l2.109-1.64q2.109-1.635,8.438-6.79,6.327-5.4,8.437-7.04a13.637,13.637,0,0,0,2.578-2.34q0-.225-28.828-0.23t-29.062.23h0Zm121.64-30.23-0.469,1.87a27.635,27.635,0,0,1-1.523,5.74c-0.861,2.43-1.681,4.65-2.461,6.68q-1.176,2.58-3.281,6.8-1.88,3.75-4.453,8.44-2.11,3.75-4.688,7.73-2.582,4.215-3.047,4.92a7.818,7.818,0,0,0-1.406,2.11c-0.157.47-.117,0.71,0.117,0.71a8.252,8.252,0,0,0,2.227-1.18q1.873-1.17,3.515-2.34,1.874-1.41,3.985-3.28a59.714,59.714,0,0,0,4.453-4.45l2.109-2.35,0.235,14.77,0.234,14.76h1.875a5.862,5.862,0,0,0,3.047-.7,5.457,5.457,0,0,0,1.875-1.17,11.374,11.374,0,0,0,1.406-1.64l0.469-.71h27.187v2.11l0.235,2.11h1.64a7.437,7.437,0,0,0,2.813-.47,9.072,9.072,0,0,0,2.109-1.17,4.666,4.666,0,0,0,1.407-1.64l0.7-.94h31.64v-4.45H838.336v-6.8H868.57v-4.45H838.336v-6.8H868.57v-4.68H838.336v-7.5H868.57v-4.69H837.164l0.938-1.17a23.668,23.668,0,0,0,1.406-2.35,6.445,6.445,0,0,0,.7-2.57,17.74,17.74,0,0,0,.469-4.93v-3.51H828.727v14.53H815.6q-13.129,0-13.125-.23c0-.16-0.158-0.24-0.469-0.24s0.311-1.41,1.875-4.22a69.182,69.182,0,0,0,3.281-7.5,16.732,16.732,0,0,0,1.406-3.98l0.235-1.17H796.617Zm31.406,22.03v7.5H802.477v-7.5h25.546Zm0,12.18v6.8H802.477v-6.8h25.546Zm0,11.25v6.8H802.477v-6.8h25.546Zm-3.515,16.88v5.16l-22.969.23H778.805v4.45h45.7v1.64c0,1.1-.081,1.64-0.235,1.64a40.222,40.222,0,0,1-4.687-1.17q-4.455-1.17-4.922-1.4-0.236,0-6.328,4.68-6.1,4.935-7.734,6.1-1.643.93-4.454,2.58a58.967,58.967,0,0,1-5.39,2.57q-2.812,1.185-5.391,2.23a35.226,35.226,0,0,1-5.859,1.76,17.416,17.416,0,0,0-3.047,1.05,6.06,6.06,0,0,0,1.289,1.06,3.994,3.994,0,0,0,1.992.94c0.469,0,2.344-.32,5.625-0.94s6.328-1.33,9.141-2.11q4.449-1.17,8.2-2.35a22.822,22.822,0,0,0,4.922-2.1q1.637-.945,9.14-6.1t7.618-5.04q0.115,0.12.117,13.48v13.12h1.406a7.357,7.357,0,0,0,2.813-.7,6.692,6.692,0,0,0,3.046-1.99,11.184,11.184,0,0,0,2.11-3.17,8.733,8.733,0,0,0,.586-2.34q0.115-1.17.117-6.33c0.154-4.68.271-7.11,0.352-7.26s1.442,0.55,4.1,2.11q3.982,2.1,6.8,3.51a34.945,34.945,0,0,0,6.328,2.58,54.282,54.282,0,0,0,6.328,1.64,52.974,52.974,0,0,0,5.625.94c1.718,0.16,4.219.23,7.5,0.23a38.521,38.521,0,0,0,5.86-.23,1.37,1.37,0,0,0,1.171-.94l0.235-1.17c0-.15-0.235-0.24-0.7-0.24-0.315,0-1.722-.23-4.219-0.7s-5-1.01-7.5-1.64q-3.516-.93-6.8-2.11-2.812-.93-5.625-2.11-2.346-1.17-10.078-6.33l-7.734-5.15,19.453-.24h19.453v-4.45H854.977l-20.157-.23v-2.58l-0.234-2.58H824.508Z"/>
</svg>
