<svg xmlns="http://www.w3.org/2000/svg" width="400" height="200" viewBox="0 0 400 200">
  <defs>
    <style>
      .cls-1 {
        fill: #fdfdfd;
        fill-rule: evenodd;
      }
    </style>
  </defs>
  <path id="源样明体" class="cls-1" d="M88.584,77.33a14.284,14.284,0,0,1,2.373,4.307q2.109,1.29,3.457-.117A2.834,2.834,0,0,0,94.707,78q-1.876-3.749-9.258-5.039l-0.586.469A23.714,23.714,0,0,1,88.584,77.33Zm-4.8,13.1a11.994,11.994,0,0,1,2.139,4.043q1.991,1.289,3.34-.059,1.406-1.347.352-3.516-1.758-3.516-8.73-4.57l-0.527.586A19,19,0,0,1,83.779,90.426Zm1.377,18.164a2.943,2.943,0,0,1-.7,1.025,1.53,1.53,0,0,1-.879.2H80.938v1.289a5.412,5.412,0,0,1,2.93.938q1,0.645,1.231,3.984a39.808,39.808,0,0,1-.41,8.028q0.292,3.105,2.109,3.105a3.174,3.174,0,0,0,2.549-1.143,5.287,5.287,0,0,0,1.084-3.193,20.337,20.337,0,0,0-.791-6.152,22.146,22.146,0,0,1-.908-4.336,20.489,20.489,0,0,1,.82-5.215q0.352-1.23,1.758-5.3t3.311-9.58q1.9-5.507,2.842-8.2l-1.113-.176Q86.269,106.539,85.156,108.59h0Zm19.571,8.056a37.153,37.153,0,0,1-5.45,6.768l0.645,0.7a33.482,33.482,0,0,0,7.09-5.1,40.9,40.9,0,0,0,5.508-6.153,1.929,1.929,0,0,0,2.226-.7l-6.094-3.047A41.882,41.882,0,0,1,104.727,116.646Zm23.32-20.6v6.738H110.938V96.051h17.109Zm0-1.641H110.938V87.672h17.109V94.41Zm0,12.774h0.762a6.6,6.6,0,0,0,2.431-.557,2.455,2.455,0,0,0,1.436-.908V88.434a4.155,4.155,0,0,0,2.4-1.172l-5.215-3.926-2.4,2.52h-9.609q2.577-3.867,2.988-4.57a1.97,1.97,0,0,0,2.168-1.172l-5.215-1.348h16.992a1.4,1.4,0,0,0,1.524-.879q-2.111-2.05-5.567-4.8l-2.988,3.984H103.672L98.34,74.606V91.656A117.906,117.906,0,0,1,96.9,111.08a42.919,42.919,0,0,1-5.772,15.557l0.879,0.644A32.657,32.657,0,0,0,97.93,119.2a34.782,34.782,0,0,0,3.31-9.609,87.471,87.471,0,0,0,1.289-9.024q0.323-3.924.323-8.964V78.766h13.71q-0.469,4.1-1,7.09H111.23l-4.687-1.992v23.965h0.7a6.142,6.142,0,0,0,2.49-.527c0.8-.352,1.2-0.664,1.2-0.938v-1.816h6.21v16.7a1.068,1.068,0,0,1-1.289,1.113q-1.288,0-6.562-.41v0.879q3.4,0.468,4.629,1.7a4.71,4.71,0,0,1,1.172,3.282q4.043-.352,5.361-1.934a6.967,6.967,0,0,0,1.318-4.57V104.547h6.27v2.637Zm1.2,9.111a19.1,19.1,0,0,1,2.666,6.123,0.919,0.919,0,0,1,.234.176q2.05,1.347,3.34-.176,1.407-1.639.176-4.453-2.109-4.8-10.312-7.91l-0.586.41A36.829,36.829,0,0,1,129.248,116.3Zm40.986-32.783q1.992,1.582,3.516.293,1.583-1.406.645-4.043-1.465-4.276-8.5-7.031l-0.644.351q4.276,5.86,4.98,10.43h0Zm-7.91,4.8a1.294,1.294,0,0,0,1.524-.937,61.885,61.885,0,0,0-5.1-4.57l-2.695,3.75h-1.582V74.84a2.264,2.264,0,0,0,2.168-1.7l-6.68-.7V86.559H141.23l0.469,1.758h7.324q-3.047,16.055-9.668,25.547l0.879,0.821a51.567,51.567,0,0,0,9.727-14.122v27.129H150.9a5.178,5.178,0,0,0,2.373-.615,1.878,1.878,0,0,0,1.2-1.025V95q3.631,4.864,4.277,8.555,1.758,1.406,3.1.293,1.407-1.113.645-3.516-1.349-4.043-8.027-6.8V88.316h7.851ZM180.02,110V98.57h11.66q1.464,0,1.64-.937Q191.27,95.7,187.988,93L185,96.871h-4.98V87.027H193.5a1.437,1.437,0,0,0,1.582-1,66.3,66.3,0,0,0-5.39-4.57L186.7,85.27h-5.332q3.984-4.219,7.91-9.2,1.817,0.176,2.344-.937L184.3,72.379a115.813,115.813,0,0,1-4.512,12.891H163.613l0.469,1.758h11.25v9.844H164.961l0.41,1.7h9.961V110h-14.59l0.469,1.758h14.121v16.113h0.762a7.157,7.157,0,0,0,2.08-.293,5.646,5.646,0,0,0,1.406-.586,0.82,0.82,0,0,0,.44-0.468V111.754h15.117a1.338,1.338,0,0,0,1.582-1q-2.052-1.992-5.449-4.688L188.281,110H180.02Zm37.851-17.4H207.617v-13.3h10.254v13.3Zm-10.254,1.758h10.254v13.769H207.617V94.352ZM217.871,114.8h0.7a5.759,5.759,0,0,0,2.461-.645,2.434,2.434,0,0,0,1.406-1.054V80.113a4.027,4.027,0,0,0,2.579-1.289l-5.332-4.043-2.4,2.813H208.32l-5.273-2.227v42.012h0.762a5.617,5.617,0,0,0,1.992-.352,4.632,4.632,0,0,0,1.377-.732,1.022,1.022,0,0,0,.439-0.615v-5.8h10.254V114.8Zm15.938-19.16V91.949h14.355v12.188H233.34a69.173,69.173,0,0,0,.469-8.5h0Zm14.355-5.449H233.809V78.18h14.355V90.191Zm-0.586-13.711h-12.89l-5.45-2.168V95.7a54.561,54.561,0,0,1-2.666,18.135q-2.667,7.53-10.283,13.33l0.7,0.7q13.536-7.091,16.113-21.914h15.059V120.66a1.5,1.5,0,0,1-.352,1.143,1.934,1.934,0,0,1-1.289.322q-1.524,0-9.023-.586v1q4.627,0.645,6.094,1.875a4.844,4.844,0,0,1,1.64,3.4q4.746-.471,6.153-1.993a6.63,6.63,0,0,0,1.406-4.628V79.059a4.3,4.3,0,0,0,2.519-1.172l-5.507-4.277Zm30.527-.527q1.935,0,2.344-1.172l-7.207-2.344a118.045,118.045,0,0,1-5.8,16.875,84.628,84.628,0,0,1-7.382,13.945l0.761,0.527a56.987,56.987,0,0,0,7.325-8.613V127.75h0.878a5.857,5.857,0,0,0,1.846-.322,7.182,7.182,0,0,0,1.524-.674,1.606,1.606,0,0,0,.615-0.527V92.77a2.113,2.113,0,0,0,1.816-1.172l-3.574-1.231a96.809,96.809,0,0,0,6.855-14.414h0Zm38.086,12.07a67.249,67.249,0,0,0-5.507-4.8L307.637,87.2h-10.43V75.6a2.194,2.194,0,0,0,2.051-1.7l-6.914-.7v14H275.293l0.469,1.758h14.121a72.53,72.53,0,0,1-6.738,14.473,55.941,55.941,0,0,1-9.61,12.011l0.645,0.762a55.722,55.722,0,0,0,18.164-20.332v17.813H282.266l0.468,1.7h9.61V127.75h0.937a5.9,5.9,0,0,0,2.608-.645q1.318-.645,1.318-1.113V115.387h9.727a1.387,1.387,0,0,0,1.582-.938q-1.877-1.873-4.922-4.511l-2.7,3.75h-3.691V88.961h0.176a59.567,59.567,0,0,0,6.533,15.762,38.538,38.538,0,0,0,9.99,11.484,6.647,6.647,0,0,1,3.34-4.863l0.117-.7a39.2,39.2,0,0,1-11.133-8.936,37.651,37.651,0,0,1-7.5-12.744h15.938a1.292,1.292,0,0,0,1.523-.937h0Z"/>
</svg>
