<svg xmlns="http://www.w3.org/2000/svg" width="1540" height="1450" viewBox="0 0 1540 1450">
  <defs>
    <style>
      .cls-1 {
        fill: #fff;
      }

      .cls-1, .cls-2, .cls-3 {
        fill-rule: evenodd;
      }

      .cls-2 {
        fill: #fefefe;
      }

      .cls-3 {
        fill: #fdfdfd;
      }
    </style>
  </defs>
  <path id="字体名称" class="cls-1" d="M310.415,138.671q7.2,9.4,9.888,17.944,8.789,5.373,14.4-.488t1.221-14.648q-7.817-15.623-38.574-21l-2.442,1.954A98.8,98.8,0,0,1,310.415,138.671ZM290.4,193.236q6.711,8.79,8.911,16.846,8.3,5.373,13.916-.244,5.859-5.613,1.464-14.649-7.323-14.647-36.376-19.043l-2.2,2.442A79.174,79.174,0,0,1,290.4,193.236Zm5.737,75.684q-1.711,3.421-2.93,4.272a6.388,6.388,0,0,1-3.662.855H278.555v5.371q8.3,0.732,12.207,3.906,4.147,2.69,5.127,16.6t-1.709,33.447q1.218,12.938,8.789,12.939a13.229,13.229,0,0,0,10.62-4.76q4.027-4.761,4.516-13.306a84.739,84.739,0,0,0-3.3-25.635q-3.789-13.915-3.785-18.066-0.246-7.325,3.418-21.729,1.466-5.127,7.325-22.094t13.794-39.917q7.93-22.945,11.84-34.18l-4.638-.732Q300.77,260.375,296.133,268.92h0Zm81.543,33.569a154.826,154.826,0,0,1-22.7,28.2l2.685,2.929a139.355,139.355,0,0,0,29.541-21.24,170.213,170.213,0,0,0,22.949-25.635q6.833,1.226,9.278-2.93l-25.391-12.695A174.473,174.473,0,0,1,377.676,302.489Zm97.168-85.815V244.75H403.555V216.674h71.289Zm0-6.836H403.555V181.762h71.289v28.076Zm0,53.223h3.174a27.529,27.529,0,0,0,10.131-2.32q5.734-2.317,5.982-3.784V184.936q7.565-1.706,10.01-4.883L482.412,163.7l-10.01,10.5H432.363q10.74-16.113,12.451-19.043,7.079,0.246,9.034-4.882l-21.729-5.616h70.8q5.127,0,6.348-3.662-8.79-8.543-23.194-20.019l-12.451,16.6H373.281l-22.217-10.254v71.045q0,45.411-5.981,80.933a178.81,178.81,0,0,1-24.048,64.819L324.7,346.8a136.114,136.114,0,0,0,24.658-33.692,144.991,144.991,0,0,0,13.794-40.039,365.334,365.334,0,0,0,5.372-37.6q1.338-16.355,1.342-37.354V144.652h57.129q-1.956,17.093-4.15,29.541H404.775l-19.531-8.3v99.853h2.93a25.562,25.562,0,0,0,10.376-2.2q5-2.2,5-3.906v-7.569h25.879v69.58q0,4.641-5.372,4.639t-27.343-1.709v3.662q14.156,1.952,19.287,7.08,4.395,4.149,4.883,13.672,16.845-1.465,22.339-8.057t5.493-19.043V252.074h26.123v10.987Zm5,37.963q8.663,13.8,11.108,25.513a3.944,3.944,0,0,1,.977.733q8.542,5.613,13.916-.733,5.859-6.832.732-18.555-8.788-20.015-42.969-32.959l-2.441,1.709A153.385,153.385,0,0,1,479.849,301.024Zm170.776-136.6q8.3,6.591,14.648,1.22,6.592-5.859,2.686-16.845-6.1-17.818-35.4-29.3l-2.686,1.465q17.818,24.415,20.752,43.457h0Zm-32.959,20.019q5.613,0,6.348-3.906A257.6,257.6,0,0,0,602.773,161.5l-11.23,15.625h-6.592V128.295q7.811-1.219,9.033-7.08l-27.832-2.93v58.838H529.775l1.954,7.324h30.517q-12.7,66.9-40.283,106.446l3.662,3.418a214.857,214.857,0,0,0,40.527-58.838V348.51h3.907a21.57,21.57,0,0,0,9.887-2.564q5-2.563,5-4.272V212.279q15.135,20.268,17.822,35.645,7.324,5.859,12.94,1.221,5.859-4.635,2.685-14.649-5.619-16.845-33.447-28.32V184.447h32.715Zm73.73,90.332V227.172H739.98q6.1,0,6.836-3.906-8.549-8.056-22.216-19.287l-12.452,16.113H691.4V179.076h56.153q5.367,0,6.592-4.15a276.734,276.734,0,0,0-22.461-19.043l-12.451,15.869H697.012q16.6-17.579,32.959-38.33,7.564,0.732,9.765-3.906l-30.517-11.475a482.077,482.077,0,0,1-18.8,53.711H623.037l1.953,7.324h46.875v41.016H628.652l1.709,7.08h41.5v47.607H611.074l1.953,7.325h58.838v67.138h3.174a29.783,29.783,0,0,0,8.667-1.221,23.434,23.434,0,0,0,5.859-2.441q1.831-1.224,1.831-1.953V282.1h62.989q5.859,0,6.592-4.151-8.55-8.3-22.706-19.531L725.82,274.779H691.4ZM849.111,202.27H806.387V146.85h42.724v55.42Zm-42.724,7.324h42.724v57.373H806.387V209.594Zm42.724,85.2h2.93a24.038,24.038,0,0,0,10.254-2.686q5.613-2.683,5.859-4.394V150.268q7.811-1.465,10.742-5.372L856.68,128.051,846.67,139.77H809.316l-21.972-9.278V305.541h3.174a23.437,23.437,0,0,0,8.3-1.465,19.239,19.239,0,0,0,5.738-3.052q1.83-1.584,1.831-2.563v-24.17h42.724V294.8Zm66.407-79.834V199.584h59.814v50.781H913.564a287.973,287.973,0,0,0,1.954-35.4h0Zm59.814-22.705H915.518V142.211h59.814V192.26Zm-2.441-57.129H919.18l-22.7-9.033v89.111q0,44.191-11.109,75.562T842.52,346.312l2.929,2.93q56.4-29.542,67.139-91.308h62.744v61.279q0,3.421-1.465,4.761t-5.371,1.342q-6.351,0-37.6-2.441v4.15q19.284,2.684,25.391,7.813,5.367,3.9,6.836,14.16,19.776-1.958,25.635-8.3t5.859-19.287V145.873q8.057-1.706,10.5-4.883l-22.952-17.822Zm127.2-2.2q8.055,0,9.76-4.883l-30.03-9.766a490.823,490.823,0,0,1-24.17,70.313q-14.895,34.67-30.76,58.1l3.18,2.2a237.645,237.645,0,0,0,30.51-35.888V348.754h3.67a24.4,24.4,0,0,0,7.69-1.343,29.717,29.717,0,0,0,6.34-2.807c1.55-.977,2.4-1.709,2.57-2.2V203q6.345-1.22,7.57-4.883l-14.9-5.127a403.571,403.571,0,0,0,28.57-60.058h0Zm158.69,50.293a280.847,280.847,0,0,0-22.95-20.02l-12.7,16.6h-43.45v-48.34q7.32-1.219,8.54-7.08l-28.81-2.93v58.35h-71.04l1.95,7.324h58.84a302.008,302.008,0,0,1-28.08,60.3,232.613,232.613,0,0,1-40.04,50.048l2.69,3.174a232.063,232.063,0,0,0,75.68-84.717V290.16h-41.99l1.96,7.08h40.03v51.514h3.91a24.585,24.585,0,0,0,10.86-2.686q5.5-2.69,5.5-4.638V297.24h40.53c3.74,0,5.93-1.3,6.59-3.906q-7.815-7.81-20.51-18.8l-11.23,15.625h-15.38V187.133h0.73a247.979,247.979,0,0,0,27.22,65.674q18.18,30.521,41.63,47.851,2.925-14.4,13.91-20.263l0.49-2.93q-25.14-13.183-46.38-37.232a156.769,156.769,0,0,1-31.25-53.1h66.4q5.61,0,6.35-3.906h0Z"/>
  <path id="中文示例" class="cls-2" d="M289.066,723.352H271.977V701.184h17.089v22.168Zm-17.089,2.929h17.089V749.23H271.977V726.281Zm17.089,34.082h1.172a9.621,9.621,0,0,0,4.1-1.074q2.246-1.074,2.344-1.758v-54.98q3.123-.587,4.3-2.149l-8.886-6.738-4,4.688H273.148l-8.789-3.711V764.66h1.27a9.369,9.369,0,0,0,3.32-.586,7.688,7.688,0,0,0,2.3-1.22,1.707,1.707,0,0,0,.733-1.026V752.16h17.089v8.2Zm26.563-31.933v-6.153h23.926V742.59H314.848a115.284,115.284,0,0,0,.781-14.16h0Zm23.926-9.082H315.629v-20.02h23.926v20.02ZM338.578,696.5H317.094l-9.082-3.613v35.644q0,17.678-4.444,30.225T286.43,780.969l1.172,1.172q22.559-11.817,26.855-36.524h25.1v24.512a2.513,2.513,0,0,1-.586,1.9,3.225,3.225,0,0,1-2.149.537q-2.539,0-15.039-.976v1.66q7.713,1.074,10.157,3.125,2.147,1.561,2.734,5.664,7.909-.783,10.254-3.32t2.344-7.715V700.793q3.222-.683,4.2-1.953l-9.18-7.129Zm50.684,32.52v-5.762h37.207v20.019H388.48a115.954,115.954,0,0,0,.782-14.257h0Zm37.207-8.789H389.262V700.793h37.207v19.434Zm-0.977-22.168H390.727l-9.571-3.907v34.961q0,17.383-4.1,29.883t-15.821,21.973l1.075,1.074q21.679-11.817,25.781-35.84h38.379v23.633q0,2.442-2.735,2.441-2.343,0-14.648-.976v1.562q7.031,0.978,10.059,3.223,2.147,1.758,2.636,5.957,8.007-.783,10.449-3.369t2.442-7.862V702.258a6.264,6.264,0,0,0,4.2-2.051l-9.473-7.129Zm111.914,72.07H510.258V731.164h22.168v5.371h1.465a11.843,11.843,0,0,0,4.3-.83q2.147-.828,2.148-1.416v-31.25q3.124-.487,3.418-2.637l-11.328-1.172v29.1H510.258V694.445q3.026-.488,3.515-2.832l-11.718-1.269v37.988H480.473V703.039q3.222-.487,3.515-2.637L472.66,699.23v37.793h1.465a11.6,11.6,0,0,0,4.2-.83q2.147-.828,2.149-1.416v-3.613h21.582v38.965H475.688V743.664q3.123-.487,3.417-2.637l-11.132-1.172v42.09h1.367a11.048,11.048,0,0,0,4.2-.879q2.147-.879,2.149-1.464v-6.543h61.718v8.007h1.465a11.061,11.061,0,0,0,4.2-.878q2.148-.879,2.149-1.563V743.664q3.222-.487,3.515-2.637l-11.328-1.172v30.274ZM648.441,730.48q-3.906-3.417-10.156-8.3l-5.664,6.836H607.914q0.975-9.277,1.367-26.075H648.93q2.343,0,2.734-1.562-3.908-3.516-10.449-8.4l-5.567,7.032h-73.73l0.684,2.929h37.6q-0.2,18.849-.976,26.075H565.336l0.879,3.027h32.617a68.567,68.567,0,0,1-3.369,14.111,54.221,54.221,0,0,1-6.592,12.451,51.229,51.229,0,0,1-11.377,11.475,96.03,96.03,0,0,1-17.139,10.01l1.075,1.758a107.149,107.149,0,0,0,20.605-9.571,53.062,53.062,0,0,0,13.623-11.67,52.465,52.465,0,0,0,7.862-13.183,67.612,67.612,0,0,0,4-15.381H608.3q5.955,35.353,37.011,50.2,1.074-6.056,7.715-6.933l0.2-1.075q-36.232-13.085-43.067-42.187h35.547q2.345,0,2.734-1.563h0Zm88.477,36.036H710.355V696.2q3.224-.487,3.516-2.734l-11.914-1.27v74.317H675.883V717.98q3.222-.488,3.711-2.832l-11.914-1.269v67.773h1.465a10.74,10.74,0,0,0,4.492-1.025q2.246-1.026,2.246-1.709v-9.57h61.035V780.09h1.66a10.863,10.863,0,0,0,4.443-.977q2.2-.977,2.2-1.758V717.492q3.222-.389,3.711-2.734l-12.012-1.172v52.93Zm73.34-50.879h1.172a15.61,15.61,0,0,0,4.541-.635q2.1-.635,2.1-1.416v-9.18H845.9v10.84h1.465a14.4,14.4,0,0,0,4.639-.83q1.9-.732,1.9-1.416v-8.594h21.875q2.441,0,2.735-1.562-3.42-3.224-9.18-7.91l-5.176,6.543H853.91v-8.4q3.223-.487,3.613-2.734L845.9,689.27v12.207H818.07v-8.4q3.125-.487,3.516-2.734l-11.328-1.074v12.207H786.137l0.683,2.929h23.438v11.231Zm29.492-4.3-10.742-5.078q-6.251,10.059-18.115,19.775a106.54,106.54,0,0,1-25.831,15.674l0.684,1.367a92.03,92.03,0,0,0,21.094-8.105v35.254q0,5.272,2.978,6.884t12.061,1.612h18.359q9.862,0,15.479-.2a62.471,62.471,0,0,0,8.984-.83,10.35,10.35,0,0,0,4.444-1.562,3.244,3.244,0,0,0,1.074-2.588,2.557,2.557,0,0,0-.928-2.051,9.441,9.441,0,0,0-3.271-1.465l-0.2-13.183h-1.269q-2.345,9.668-4.2,12.7-0.782,1.465-3.32,1.562-3.222.391-16.406,0.391H822.172a19.217,19.217,0,0,1-5.811-.537,2.128,2.128,0,0,1-1.318-2.2V739.27h32.422q-0.49,14.746-2.051,16.406a3.774,3.774,0,0,1-2.637.683q-0.879,0-10.547-.586v1.563q5.662,0.879,7.52,2.441,1.659,1.173,1.66,4.59,6.054,0,9.278-2.539,2.244-1.758,3.173-6.64a97.785,97.785,0,0,0,1.123-14.942q2.832-.487,3.711-1.465l-8.105-6.64-4.1,4.2H816.312l-6.64-2.832q15.821-8.5,24.9-19.434,11.72,18.75,39.063,25.488,1.172-5.955,6.64-7.324l0.1-.976a98.7,98.7,0,0,1-25.684-6.641q-12.11-4.98-18.75-12.3,2.832,0.586,3.809-.976h0Zm52.93,25.195a16.932,16.932,0,0,1,3.808,6.445q3.516,1.956,5.567-.488,2.147-2.439.293-5.762-3.224-5.76-15.137-6.445l-0.879.879A27.1,27.1,0,0,1,892.68,736.535Zm5.517-15.381a20.056,20.056,0,0,1,4.346,6.494q3.417,1.758,5.371-.586,2.147-2.439.2-5.859-3.515-5.859-15.625-6.348l-0.879.879A31.158,31.158,0,0,1,898.2,721.154Zm-1.611,35.4a5.482,5.482,0,0,1-1.318,1.513,3.341,3.341,0,0,1-1.514.244h-4.688v2.149a11.533,11.533,0,0,1,4.786,1.269q3.318,1.857,1.464,16.016,0.586,4.3,3.809,4.3a5.98,5.98,0,0,0,4.492-1.709,7.1,7.1,0,0,0,1.856-4.639,23.028,23.028,0,0,0-1.368-8.007,13.94,13.94,0,0,1,.489-13.379q0.681-1.66,3.711-7.52t6.884-13.232q3.858-7.372,5.616-11.084l-1.563-.782q-20.313,31.838-22.656,34.864h0ZM971.1,771.5a8.457,8.457,0,0,0-1.27.293c-0.717.2-1.237,0.327-1.562,0.391a6.3,6.3,0,0,1-1.319.146c-0.683.034-1.188,0.049-1.513,0.049q-1.857.2-12.11,0.2H940.043a11.88,11.88,0,0,1-4.541-.537,2.24,2.24,0,0,1-1.025-2.2v-37.7h41.6q2.147,0,2.539-1.563a104.346,104.346,0,0,0-9.179-7.715l-4.883,6.25H953.129V718.566q2.929-.488,3.125-2.636l-9.18-.879q2.93-.782,2.93-1.758v-8.5H975.2q2.441,0,2.735-1.563a108.177,108.177,0,0,0-9.278-8.007l-5.078,6.738H950v-8.594q3.318-.487,3.613-2.734L942,689.562v12.4h-20.7v-8.594q3.318-.487,3.516-2.734l-11.231-1.075v12.4H886.137l0.586,2.832h26.855V715.93h1.172a14.257,14.257,0,0,0,4.443-.684q2.1-.682,2.1-1.367V704.8H942v10.742h1.465c0.195,0,.488-0.015.879-0.049s0.683-.049.879-0.049v13.672H919.73l0.782,3.028h6.152V771.5q0,4.883,2.49,6.543t9.912,1.66h13.575q10.056,0,15.136-.439t6.934-1.416a3.139,3.139,0,0,0,1.855-2.93q0-2.538-4.394-3.418H971.1Zm96.582-70.117q-3.9-3.417-10.55-8.4l-5.56,7.032h-54.2l0.684,2.929h66.9q2.34,0,2.73-1.562h0Zm-81.153,26.172,0.782,2.832h33.981a280.311,280.311,0,0,1-13.57,37.695q-15.627.587-18.751,0.586l4.785,10.742a4.265,4.265,0,0,0,2.832-2.051q36.711-4.98,63.674-10.449a44.517,44.517,0,0,1,5.47,13.184,8.433,8.433,0,0,0,2.44,1.367q3.615,1.172,5.17-2.441,2.055-4.981-2.24-12.793-7.23-13.279-27.74-23.34l-1.27.781a113.035,113.035,0,0,1,16.8,21q-28.32,2.249-47.46,3.223a244.36,244.36,0,0,0,21.39-37.5h42.48q2.235,0,2.73-1.563-3.9-3.612-10.64-8.691l-5.77,7.422H986.527Zm112.643-29.59a24.9,24.9,0,0,1,3.96,7.129q3.51,2.149,5.76-.2t0.49-5.86q-3.135-6.247-15.43-8.4l-0.88.781A40.716,40.716,0,0,1,1099.17,697.961Zm-4.05,29.3q3.42,2.247,5.67-.2,2.145-2.244.48-5.566-2.925-5.859-14.55-7.617l-0.88.781q7.53,6.057,9.28,12.6h0Zm-0.98,23.828a4.175,4.175,0,0,1-1.07,1.709,2.783,2.783,0,0,1-1.56.342h-4.3v2.148a9.626,9.626,0,0,1,4.88,1.465c1.18,0.717,1.87,2.979,2.1,6.787a68.553,68.553,0,0,1-.73,13.428q0.39,4.98,3.71,4.98a5.263,5.263,0,0,0,4.3-1.9,8.613,8.613,0,0,0,1.66-5.322,34.216,34.216,0,0,0-1.32-10.352,36.814,36.814,0,0,1-1.51-7.226,30.373,30.373,0,0,1,1.46-8.789q1.275-5.077,12.79-40.137l-1.95-.391q-16.695,39.749-18.46,43.262h0Zm49.13-14.844q2.625,2.051,4.88.391,2.34-1.758,1.17-5.274-1.95-5.76-12.21-8.984l-0.97.684q6.24,7.323,7.13,13.183h0Zm-0.39,22.07q2.925,1.857,4.98,0,2.34-2.05.78-5.566-2.745-5.955-14.16-8.4l-1.08.683q7.71,6.936,9.48,13.281h0Zm-18.17-2.783c0.46-2.571.86-4.947,1.22-7.129s0.67-4.214.93-6.1h32.62q-0.69,10.546-2.05,19.043h-33.7C1123.93,760.038,1124.25,758.1,1124.71,755.529Zm34.86-16.064h-32.32q1.95-12.987,2.64-18.653h30.47q-0.4,12.7-.79,18.653h0Zm21.1,1.269q-3.03-3.026-8.01-7.422l-4.49,6.153H1167q0.09-1.367.34-7.569t0.34-9.912a6.448,6.448,0,0,0,4.2-1.66l-8.2-7.031-4.3,4.785h-27.44l-7.52-3.516q2.835-3.9,4.69-7.031h46.48q2.25,0,2.64-1.562-3.42-3.32-9.09-7.813l-4.98,6.446h-33.3q2.94-5.86,4.2-9.082,3.03,0.293,3.71-1.856l-11.32-3.711a98.618,98.618,0,0,1-6.94,19.922,77.565,77.565,0,0,1-9.76,15.918l1.27,1.074a64.989,64.989,0,0,0,11.32-10.84q-1.065,8.2-3.51,23.438h-11.82l0.78,2.832h10.55q-2.64,16.406-5.37,29.98,5.07,1.077,7.91-.488c0.13-.845.36-2.115,0.68-3.809s0.55-2.9.69-3.613h33.69q-1.08,5.274-2.74,6.934a5.478,5.478,0,0,1-3.9,1.367q-1.575,0-12.89-1.074l-0.1,1.758q7.23,1.268,9.18,3.125,1.755,1.367,1.76,5.371c4.94,0,8.79-1.465,11.52-4.395q3.12-3.613,4.78-13.086h12.5a2.4,2.4,0,0,0,2.64-1.66q-3.12-3.318-8.4-8.008l-4.59,6.641h-1.66a190.356,190.356,0,0,0,1.76-19.043h11.23q2.25,0,2.64-1.563h0Zm13.96,41.211a10.016,10.016,0,0,0,4.25-.976q2.1-.978,2.1-1.758V706.848q3.315-.487,3.81-2.93l-11.62-1.27v79.3h1.46Zm11.38-83.2a35.947,35.947,0,0,1,4.64,8.985q3.7,2.343,6.05-.2c1.57-1.692,1.63-4,.2-6.933q-3.525-7.324-16.9-11.231l-0.97.586A68.755,68.755,0,0,1,1206.01,698.742Zm14.4,39.844h22.86v17.09h-22.86v-17.09Zm22.86-2.93h-22.86V719.934h22.86v15.722Zm10.93-16.5-7.91-6.25-3.9,4.1H1221.2l-8.31-3.32v54.492h1.37a9.447,9.447,0,0,0,3.18-.537,8.019,8.019,0,0,0,2.24-1.123,1.625,1.625,0,0,0,.73-0.879v-7.032h22.86v7.618h1.27a9.025,9.025,0,0,0,4.05-1.123c1.46-.748,2.2-1.351,2.2-1.807V720.812a5.442,5.442,0,0,0,3.41-1.66h0Zm8.21-20.8h-40.82l0.97,3.027h40.92v68.457c0,1.562-.85,2.344-2.54,2.344q-2.34,0-13.96-.977v1.563q6.93,1.076,9.66,3.027,1.86,1.561,2.35,5.762,7.62-.685,9.96-3.223t2.34-7.617V702.746a6.719,6.719,0,0,0,4.3-2.051l-9.28-6.933ZM351.957,852.238q-3.808-3.612-9.863-8.3l-5.567,6.933H289.164V845.6a200.568,200.568,0,0,0,25.342-11.377,161.938,161.938,0,0,0,20.752-12.842q2.733,0.976,3.906-.293l-9.473-7.422A135.621,135.621,0,0,1,311.918,828.7a212.178,212.178,0,0,1-22.754,14.551v-29q3.516-.389,3.906-2.344l-12.207-1.562v40.527H261.625l0.879,2.93h18.359V887a4.1,4.1,0,0,1-.781,2.637,14.543,14.543,0,0,1-3.613,2.636l6.64,10.059a6.38,6.38,0,0,0,1.953-2.051q17.286-9.082,29.1-16.406l-0.293-1.367q-16.309,5.177-24.707,7.422V853.8H303.91q9.667,32.226,41.211,45.508,2.051-5.958,7.617-6.543l0.2-1.27a85.188,85.188,0,0,1-28.809-14.209A55.514,55.514,0,0,1,306.059,853.8h43.164q2.343,0,2.734-1.563h0Zm50.195,3.516q-10.254,19.826-23.437,32.91l1.367,1.172a103.054,103.054,0,0,0,25.977-27.93q7.617,12.891,9.863,20.9,2.146,1.661,3.808,1.269,2.832-.487,2.442-5.664-0.684-9.667-11.914-23.535a139.937,139.937,0,0,0,10.156-22.363q3.125,0.293,3.906-1.856l-10.937-3.808a158.823,158.823,0,0,1-8.008,22.265,141.314,141.314,0,0,0-18.262-16.6l-1.465.781q10.84,13.867,16.5,22.461h0Zm49.219,20.215q-1.075,4.98-3.125,11.328-0.684,2.05-2.246.879-3.808-2.637-6.25-10.352a78.356,78.356,0,0,1-3.223-17.236q-0.783-9.522-.976-20.313t0.488-19.58q3.224-.389,4.4-1.757l-9.082-7.911-4.688,4.981H382.23l-9.375-3.809v39.746q0,16.9-2.49,28.614a46.286,46.286,0,0,1-10.4,20.9l1.367,0.977a42.365,42.365,0,0,0,8.936-8.594,45.073,45.073,0,0,0,5.761-9.522,50.06,50.06,0,0,0,3.125-10.693,91.008,91.008,0,0,0,1.416-10.693q0.294-4.638.293-11.084V819.035h46.875q0,10.059-.049,19.678t0.782,18.994q0.828,9.375,2.246,17.09a55.349,55.349,0,0,0,4.345,13.867,25.687,25.687,0,0,0,7.032,9.375q7.031,5.955,10.644,2.539,2.05-2.05-1.465-7.91l1.27-16.5Zm97.266-1.66q-2.736,12.89-3.614,14.355a2.355,2.355,0,0,1-1.757,1.27,56.759,56.759,0,0,1-6.446.2h-6.347a4.591,4.591,0,0,1-2.93-.635,3.065,3.065,0,0,1-.684-2.3V821.477q3.223-.487,4.3-1.856l-9.179-7.715-4.493,5.274H491.215l-9.863-4v34.57a124.13,124.13,0,0,1-.831,15.234,81.383,81.383,0,0,1-2.978,13.672A45.388,45.388,0,0,1,471,889.836a56.029,56.029,0,0,1-10.938,11.328l1.172,1.172a61.28,61.28,0,0,0,10.938-7.227,40.518,40.518,0,0,0,7.812-8.545,61.329,61.329,0,0,0,5.03-9.033,44.878,44.878,0,0,0,3.027-9.863,88.834,88.834,0,0,0,1.367-9.912q0.342-4.54.342-10.108V820.012h28.809v69.726q0,4.885,2,6.641t7.861,1.758h8.008q9.668,0,13.33-1.172t3.662-3.906a3.355,3.355,0,0,0-.684-2.2,6.036,6.036,0,0,0-2.636-1.513l-0.293-15.039h-1.172Zm12.4-52.832,0.879,2.832h30.371q-0.1,5.859-.244,9.716t-0.635,9.62a80.524,80.524,0,0,1-1.416,10.058q-0.929,4.3-2.392,9.717a49.044,49.044,0,0,1-3.809,9.912q-2.345,4.492-5.469,9.326a59.754,59.754,0,0,1-7.519,9.326,98.8,98.8,0,0,1-9.766,8.692l1.27,1.562a89.1,89.1,0,0,0,15.918-11.67,62.628,62.628,0,0,0,10.937-13.232,74.2,74.2,0,0,0,6.592-13.721,84.52,84.52,0,0,0,3.662-14.7h28.711q-2.249,36.133-7.617,40.82a7.048,7.048,0,0,1-4.395,1.27q-4.687,0-16.992-1.367l-0.1,1.66q9.277,1.563,11.914,3.515,2.245,1.758,2.247,5.86,8.1,0,12.988-4.2,7.713-7.227,9.961-46.485a7.258,7.258,0,0,0,4.2-1.562l-8.594-7.325-4.492,4.786H599.809a195.657,195.657,0,0,0,1.66-21.582h48.144q2.344,0,2.637-1.563-3.808-3.516-10.156-8.3l-5.567,7.032H561.039Zm119.824,17.675h21.289v16.5H680.863v-16.5Zm21.289-2.832H680.863v-16.5h21.289v16.5Zm30.176,0h-21.68v-16.5h21.68v16.5Zm-21.68,2.832h21.68v16.5h-21.68v-16.5Zm0,56.153V877.238h31.836q2.345,0,2.637-1.562-3.908-3.516-10.059-8.2l-5.468,6.836H710.648V858.586h21.68v5.176H733.5a12.347,12.347,0,0,0,4.443-.977q2.492-.975,2.588-1.562V821.379a7.371,7.371,0,0,0,4.2-2.149l-9.082-7.031-4.3,4.883h-49.9l-8.887-3.906V865.52h1.27a11.489,11.489,0,0,0,4.736-1.026q2.293-1.024,2.3-1.709v-4.2h21.289v15.723H669.438l0.781,2.929h31.933v18.067h-41.6l0.879,2.929H750q2.343,0,2.734-1.562-3.906-3.516-10.449-8.4l-5.664,7.032H710.648Zm86.622-68.067h13.085v39.844H797.27V827.238Zm68.75,6.348a114.6,114.6,0,0,1-6.348,20.312l1.172,0.782a72.331,72.331,0,0,0,7.91-9.082,88.606,88.606,0,0,0,6.738-10.254q3.125-.294,3.906-1.172l-8.886-8.594-5.078,5.078H835.941a120.469,120.469,0,0,0,5.176-15.527q3.224-.1,3.711-2.246l-11.914-2.93q-3.42,25.782-14.844,43.164V828.7a7.39,7.39,0,0,0,4.3-2.051l-8.789-6.933-4.2,4.59H797.66l-8.008-3.711v64.355h1.172a9.618,9.618,0,0,0,4.444-1.025q2-1.026,2-1.807V869.914h13.085v8.5h1.172a11.194,11.194,0,0,0,4.151-.928q2.293-.927,2.392-1.513v-20.41l0.1,0.1q9.962-8.2,16.5-22.07h6.738q-0.1,5.567-.195,9.033t-0.488,8.447a62.1,62.1,0,0,1-1.123,8.3q-0.734,3.321-2,7.666a33.54,33.54,0,0,1-3.125,7.52q-1.857,3.174-4.59,6.933a39.891,39.891,0,0,1-6.25,6.787,83.844,83.844,0,0,1-8.2,6.153,82.953,82.953,0,0,1-10.45,5.859l1.27,1.66A96.378,96.378,0,0,0,826.615,891.5,46.8,46.8,0,0,0,839.408,878.7,53.875,53.875,0,0,0,846,864.689a82.763,82.763,0,0,0,2.832-16.259q1.953,19.533,7.08,32.812a45.056,45.056,0,0,0,15.674,20.9,9.626,9.626,0,0,1,7.715-7.032l0.293-.976a46.426,46.426,0,0,1-21.143-22.168q-6.789-14.649-8.838-37.207v-1.172H866.02Zm80.273,21.191H928.324v-12.7h17.969v12.7Zm-25.488-12.7v21h1.367a10.336,10.336,0,0,0,4.1-.879q2.052-.879,2.051-1.562v-3.028h17.969V862.4h1.367a11.28,11.28,0,0,0,4.3-.879q2.147-.879,2.148-1.563V842.082h20.7a2.394,2.394,0,0,0,2.636-1.66q-3.321-3.124-8.789-7.52l-4.785,6.25h-9.766v-6.836q3.124-.488,3.418-2.539l-11.23-1.074v10.449H928.324v-6.836q3.32-.488,3.614-2.539L920.805,828.7v10.449H903.422V825.578H975a2.4,2.4,0,0,0,2.637-1.66,123.929,123.929,0,0,0-9.473-8.105l-5.273,6.738H938.578v-8.887q3.32-.389,3.613-2.734l-11.425-1.075v12.7H904.789l-9.18-4v29.3a214.356,214.356,0,0,1-1.806,29.785,64.7,64.7,0,0,1-7.764,23.144l1.465,0.879a47.314,47.314,0,0,0,8.789-12.109,52.869,52.869,0,0,0,4.834-14.5,133.092,133.092,0,0,0,1.855-13.574q0.439-5.809.44-13.623v-5.762h17.383Zm16.894,41.8a42.406,42.406,0,0,1-15.918-14.063h29.785A52.441,52.441,0,0,1,937.7,883.879h0Zm14.453-16.895H906.938l0.781,2.832H919.34A48.868,48.868,0,0,0,932.719,887.1q-14.942,8.789-35.938,13.281l0.586,1.562Q920.9,899.21,937.6,890.617q12.693,7.911,34.863,11.328,1.267-6.152,6.445-7.324l0.1-1.172q-20.9-1.366-34.668-6.738a60.122,60.122,0,0,0,16.5-15.625q3.417-.1,4.492-1.367l-8.008-6.934Zm83.5,27.246v-37.7h30.47c1.49,0,2.37-.52,2.63-1.562q-3.81-3.516-10.15-8.3l-5.47,6.836h-17.48v-31.25h34.47c1.56,0,2.51-.553,2.83-1.66q-4.1-3.516-10.54-8.5l-5.67,7.128H992.484l0.977,3.028h33.589v31.25H996.977l0.683,3.027h29.39v37.7H986.723l0.879,2.93h87.7q2.235,0,2.73-1.66a124.122,124.122,0,0,0-10.55-8.5l-5.76,7.226h-26.07Zm15.92-21.435a26.43,26.43,0,0,1,4.59,10.107,3.8,3.8,0,0,0,.97.586q3.615,1.955,5.76-.976,2.445-3.124-.09-8.008-4.11-8.1-18.56-12.012l-0.88.879A56.345,56.345,0,0,1,1051.57,872.8Zm43.06,29.248a10.148,10.148,0,0,0,4.4-1.025c1.43-.684,2.15-1.319,2.15-1.9V826.848q3.21-.487,3.71-2.93l-11.72-1.27v79.395h1.46Zm13.14-83.057a36.951,36.951,0,0,1,4.93,9.327c0.06,0.065.13,0.131,0.19,0.2,2.48,1.367,4.46,1.172,5.96-.586q2.25-2.733,0-7.227-3.7-7.518-17.38-11.328l-1.08.684A65.568,65.568,0,0,1,1107.77,818.986Zm53.95-.244h-37.69l0.88,2.93h37.79v68.262c0,1.628-.85,2.441-2.54,2.441q-2.445,0-14.65-.977v1.563q7.23,1.075,9.96,3.223,2.055,1.367,2.54,5.664,7.815-.686,10.21-3.223t2.39-7.715V823.137a7.409,7.409,0,0,0,4.3-2.051l-9.28-7.129Zm51.17,1.66a27.488,27.488,0,0,1,4.59,9.668,1.235,1.235,0,0,0,.49.293q3.615,2.248,5.86-.39,2.445-2.832.2-7.52-3.81-7.909-17.97-12.109l-1.08.781A60.4,60.4,0,0,1,1212.89,820.4Zm64.65,39.453q-4.005-3.417-10.45-8.2l-5.56,6.934h-26.57a70.155,70.155,0,0,0,.4-7.715V836.32h33.39c1.5,0,2.35-.52,2.54-1.562a105.29,105.29,0,0,0-9.96-8.106l-5.37,6.641h-15.14a106.5,106.5,0,0,0,16.31-17.871c1.96,0.195,3.19-.391,3.71-1.758l-12.3-3.809a142.022,142.022,0,0,1-10.45,23.438h-44.92l0.78,3.027h32.91v14.649a49.76,49.76,0,0,1-.49,7.617h-39.55l0.78,2.832h38.38a42.006,42.006,0,0,1-11.47,21.533q-9.24,9.62-29.25,17.432l0.68,1.562a115.471,115.471,0,0,0,18.12-6.2,73.535,73.535,0,0,0,13.18-7.373,45.381,45.381,0,0,0,8.84-8.35,39.638,39.638,0,0,0,5.47-8.837,46.043,46.043,0,0,0,2.83-9.18q4.68,15.431,13.62,25.146t23.39,14.6q1.47-6.446,7.23-7.91l0.19-1.074a62.6,62.6,0,0,1-25.78-10.987,52.4,52.4,0,0,1-16.7-20.361h38.38c1.63,0,2.57-.52,2.83-1.563h0Z"/>
  <path id="大写字母" class="cls-3" d="M161.039,476.207L167.9,496.6H154.3Zm3.574-6.738h-3.808l-14,41.191-5.332.82v2.286h14.648V511.48l-6.445-.82,3.808-11.484h15.235l3.867,11.543-6.5.761v2.286h17.871V511.48l-5.156-.585Zm41.1,22.851h3.809q6.795,0,9.931,2.344t3.135,7.148a8.159,8.159,0,0,1-3.164,6.915q-3.165,2.4-9.258,2.4h-4.336q-0.119-5.918-.117-18.809h0Zm12.48-17.959q2.518,2.022,2.52,6.358,0,4.571-2.813,6.738t-8.73,2.168h-3.457q0-11.66.117-17.285h4.629Q215.671,472.34,218.191,474.361Zm-24.726-2.314,6.152,0.7q0.117,5.744.117,17.344v3.164q0,11.776-.117,17.578l-6.152.644v2.286H211.4q8.73,0,13.066-3.516a10.6,10.6,0,0,0,4.336-8.5,9.341,9.341,0,0,0-3.106-7.149q-3.107-2.87-9.55-3.808,5.273-1.113,7.851-3.867a9.13,9.13,0,0,0,2.578-6.446,9.444,9.444,0,0,0-3.72-7.763q-3.721-2.958-10.577-2.959H193.465v2.285Zm77.66,38.2a17.69,17.69,0,0,1-7.559,1.582,14.365,14.365,0,0,1-11.63-5.244q-4.367-5.244-4.366-14.854,0-9.492,4.571-14.795a14.712,14.712,0,0,1,11.66-5.3,15.16,15.16,0,0,1,6.738,1.64l1.641,8.379h3.574l-0.117-9.668a24.574,24.574,0,0,0-12.539-3.222,21.423,21.423,0,0,0-16,6.474q-6.328,6.476-6.329,16.494,0,10.256,6.182,16.612T263.1,514.7a26.966,26.966,0,0,0,13.125-3.164l0.175-9.668h-3.632Zm29.145-17.695V490.27q0-12.129.117-17.93h5.683q7.5,0,11.573,5.01t4.072,14.443q0,9.2-4.19,14.268t-11.982,5.068h-5.156q-0.118-5.918-.117-18.574h0Zm-12.247-20.508,6.153,0.7q0.117,5.744.117,17.52v2.285q0,12.538-.117,18.281l-6.153.644v2.286h17.93q10.077,0,16.318-5.8t6.241-16.172q0-10.488-5.772-16.26t-15.556-5.771H288.023v2.285ZM369.785,510.9H352.91q-0.118-5.8-.117-18.165h9.961l0.879,6.329h2.695V483.59h-2.695l-0.938,6.5h-9.9q0-11.718.117-17.4H368.5l1.758,8.672h3.223l-0.352-11.6H340.547v2.285l6.152,0.7q0.117,5.744.117,17.461v3.223q0,11.659-.117,17.4l-6.152.644v2.286h33.867l0.352-11.719h-3.223Zm46.078-29.532h3.223l-0.352-11.6H386.1v2.285l6.152,0.7q0.117,5.744.117,17.461v3.223q0,11.659-.117,17.4l-6.152.644v2.286H404.73V511.48l-6.269-.7q-0.119-5.74-.117-18.047h10.371l0.879,6.8h2.754V483.59h-2.754l-0.879,6.5H398.344q0-11.718.117-17.4h15.644Zm38.051,11.485v2.285l6.914,0.527,0.176,12.3v2.578a21.925,21.925,0,0,1-7.383,1.289q-7.617,0-12.041-5.361t-4.424-14.737q0-9.373,4.483-14.736a14.573,14.573,0,0,1,11.748-5.361,14.38,14.38,0,0,1,7.441,1.933l1.641,8.145h3.574l-0.176-9.727q-5.157-3.222-13.125-3.222-9.843,0-16.113,6.474t-6.27,16.494q0,10.079,6.182,16.524t16.025,6.445a30.639,30.639,0,0,0,14.3-3.808v-2.93q0-6.385.176-12.481l3.984-.351v-2.285H453.914Zm72.914-23.086H508.371v2.285l6.094,0.7q0.117,5.683.117,17.168H493.137q0-11.543.117-17.168l6.094-.7v-2.285H480.891v2.285l6.152,0.7q0.117,5.744.117,17.461v3.223q0,11.659-.117,17.4l-6.152.644v2.286h18.457V511.48l-6.094-.644q-0.119-5.683-.117-18.281h21.445q0,12.656-.117,18.281l-6.094.644v2.286h18.457V511.48l-6.152-.644q-0.119-5.8-.117-17.4v-3.223q0-11.778.117-17.461l6.152-.7v-2.285Zm30.317,0H538.629v2.285l6.152,0.7q0.117,5.744.117,17.461v3.223q0,11.659-.117,17.4l-6.152.644v2.286h18.516V511.48l-6.153-.7q-0.118-5.74-.117-17.343v-3.223q0-11.778.117-17.461l6.153-.7v-2.285Zm12.035,0v2.285l6.738,0.7q0.117,12.774.264,22.031t0.2,12.8q0.057,3.546.058,4.893,0,6.561-2.929,9.14l-1.758-1.465a7.6,7.6,0,0,0-4.688-1.992q-3.456,0-3.925,3.164,0.878,2.988,5.625,2.988a12.634,12.634,0,0,0,7.88-2.666,12.129,12.129,0,0,0,4.483-7.47q0.879-4.1.879-13.946V490.152q0-11.718.117-17.4l6.152-.7v-2.285h-19.1Zm52.347,16.64,11.133-13.535,6.27-.82v-2.285H623.871v2.285l5.215,0.937-17.637,21.68v-4.453q0-11.778.117-17.461l6.27-.7v-2.285H599.379v2.285l6.152,0.7q0.117,5.744.117,17.461v3.223q0,11.659-.117,17.4l-6.152.644v2.286h18.4V511.48l-6.211-.7q-0.117-4.393-.117-12.246l6.563-7.851,10.84,20.156-5.45.644v2.286h16.875V511.48l-5.156-.585Zm55.161,24.551H661.57q-0.117-5.742-.117-16.465v-4.336q0-11.658.117-17.4l6.211-.7v-2.285H649.207v2.285l6.152,0.7q0.117,5.683.118,17.461v3.4q0,11.427-.118,17.227l-6.152.644v2.286h32.578l0.469-12.364h-3.4Zm70.628-41.191H734.66l-14.18,36.5-14.824-36.5H693.645v2.285l5.976,0.762-0.059,37.851-5.917.82v2.286h14.707V511.48l-5.684-.82V489.8q0-.058-0.088-2.256t-0.176-5.566q-0.087-3.369-.146-5.889l15.41,37.676h2.812l14.825-37.793-0.059,17.636q0,11.544-.117,17.227l-5.742.644v2.286h17.871V511.48l-6.035-.644q-0.118-5.8-.118-17.4v-3.223q0-11.778.118-17.461l6.093-.7v-2.285Zm39.106,0v2.285l7.031,0.879L793.57,503.4l-24.316-33.633H759.117v2.285l4.688,0.644,0.644,0.821-0.117,37.207-5.508.761v2.286h15.528V511.48l-7.032-.878L767.2,477.32l26.836,36.856h2.344l0.058-41.309,5.508-.82v-2.285H786.422Zm39.867,4.8a10.539,10.539,0,0,1,7.5-2.929,10.336,10.336,0,0,1,7.441,2.929,16.776,16.776,0,0,1,4.395,7.354,36.508,36.508,0,0,1,0,19.658,16.758,16.758,0,0,1-4.395,7.383,10.328,10.328,0,0,1-7.441,2.93,10.531,10.531,0,0,1-7.5-2.93,16.483,16.483,0,0,1-4.453-7.383,36.508,36.508,0,0,1,0-19.658A16.5,16.5,0,0,1,826.289,474.566Zm-6.621.5q-5.976,6.3-5.977,16.67,0,10.665,5.918,16.817a18.985,18.985,0,0,0,14.18,6.152,18.7,18.7,0,0,0,14.063-6.269q5.918-6.27,5.918-16.7a27.608,27.608,0,0,0-1.67-9.814,20.417,20.417,0,0,0-4.483-7.266,19.91,19.91,0,0,0-6.387-4.365A18.967,18.967,0,0,0,819.668,475.064Zm74.086,7.764q0,5.04-2.783,7.881t-8.7,2.842h-4.219v-3.34q0-12.071.117-17.871h4.219q11.367,0,11.367,10.488h0Zm1.67,9.639a11.883,11.883,0,0,0,4.541-9.639,11.744,11.744,0,0,0-4.248-9.551q-4.25-3.514-12.276-3.515H865.805v2.285l6.152,0.7q0.117,5.744.117,17.461v3.223q0,11.659-.117,17.4l-6.152.644v2.286h18.633V511.48l-6.27-.7q-0.118-4.978-.117-14.589h3.457Q890.882,496.188,895.424,492.467Zm27.885-17.9a10.539,10.539,0,0,1,7.5-2.929,10.339,10.339,0,0,1,7.441,2.929,16.785,16.785,0,0,1,4.395,7.354,36.534,36.534,0,0,1,0,19.658,16.768,16.768,0,0,1-4.395,7.383,10.332,10.332,0,0,1-7.441,2.93,10.531,10.531,0,0,1-7.5-2.93,16.493,16.493,0,0,1-4.454-7.383,36.534,36.534,0,0,1,0-19.658A16.51,16.51,0,0,1,923.309,474.566Zm19.336,50.1A8.813,8.813,0,0,1,935.877,522q-2.491-2.667-2.549-7.471a18.951,18.951,0,0,0,12.422-7.119q5.039-6.122,5.039-15.674a27.608,27.608,0,0,0-1.67-9.814,20.4,20.4,0,0,0-4.482-7.266,19.921,19.921,0,0,0-6.387-4.365,18.967,18.967,0,0,0-21.562,4.775q-5.978,6.3-5.977,16.67,0,9.552,4.8,15.5a19.186,19.186,0,0,0,12.011,7.178,14.5,14.5,0,0,0,3.487,9.551,11.67,11.67,0,0,0,9.287,3.867,14.608,14.608,0,0,0,8.027-2.168l-0.644-1.816a21.353,21.353,0,0,1-5.039.82h0Zm32.543-52.324h5.683q10.02,0,10.02,8.906a9.142,9.142,0,0,1-2.7,6.885q-2.7,2.607-7.793,2.607H975.07q0-12.6.118-18.4h0ZM993.7,500.7a14.619,14.619,0,0,0-2.988-5.742,9.072,9.072,0,0,0-4.922-2.578,15.1,15.1,0,0,0,8.379-4.014,10.373,10.373,0,0,0-1.26-15.556q-4.189-3.046-11.631-3.047H962.824v2.285l6.153,0.7q0.115,5.744.117,17.461v3.223q0,11.659-.117,17.4l-6.153.644v2.286H981.34V511.48l-6.152-.7q-0.118-5.625-.118-17.519h3.457q4.219,0,6.094,1.289t2.871,5.215l2.7,10.488a4.832,4.832,0,0,0,2.05,3.223,9.028,9.028,0,0,0,4.629.937,16.816,16.816,0,0,0,4.983-.644V511.48l-5.1-.468Zm25.917-16.289a7.266,7.266,0,0,1-1.87-5.1,6.822,6.822,0,0,1,2.52-5.683,10.371,10.371,0,0,1,6.62-1.992,10.93,10.93,0,0,1,5.33,1.347l1.7,7.852h3.4l0.47-8.613a17.788,17.788,0,0,0-10.84-3.457,16.5,16.5,0,0,0-10.52,3.252,10.637,10.637,0,0,0-4.13,8.818,10.922,10.922,0,0,0,2.93,7.793,23.576,23.576,0,0,0,8.44,5.332l2.46,1a19.08,19.08,0,0,1,6.41,3.691,6.759,6.759,0,0,1,1.85,4.981,7.18,7.18,0,0,1-2.81,6.064,12.417,12.417,0,0,1-7.68,2.139,14.526,14.526,0,0,1-6.91-1.582l-1.64-8.262h-3.4l-0.41,9.258a22.943,22.943,0,0,0,12.77,3.457q6.975,0,11.22-3.369a11.023,11.023,0,0,0,4.25-9.111,11.188,11.188,0,0,0-2.69-7.676q-2.7-3.047-9.26-5.625l-2.64-1A14.857,14.857,0,0,1,1019.62,484.41Zm64.01-2.93h3.17l-0.41-11.718h-36.04l-0.53,11.718h3.29l1.81-8.789h10.31q0.12,5.743.12,17.52v3.223q0,11.659-.12,17.343l-6.79.7v2.286h19.8V511.48l-6.79-.7q-0.12-5.74-.12-17.343v-3.223q0-11.778.12-17.52h10.31Zm40.34-11.718v2.285l6.91,0.937,0.06,21.387q0,8.613-2.81,12.363t-8.73,3.75q-5.4,0-8.23-3.427-2.85-3.429-2.85-11.514v-5.391q0-11.658.12-17.343l6.62-.762v-2.285h-18.34v2.285l5.51,0.644q0.06,5.743.06,17.461v6.856q0,9.024,4.28,13.359t11.77,4.336q7.215,0,11.31-4.541,4.11-4.541,4.1-14.209l0.06-23.086,5.86-.82v-2.285h-15.7Zm52.35,0v2.519l6.09,0.645-10.66,32.988-11.55-33.047,6.39-.586v-2.519h-17.81v2.285l4.98,0.586,15.35,41.543h2.81l13.77-41.367,5.69-.821v-2.226h-15.06Zm69.39,0v2.285l6.22,0.879-8.5,31.582-10.02-31.641,6.74-.82v-2.285h-17.64v2.285l6.56,0.762-10.13,31.523-8.5-31.523,6.15-.762v-2.285H1198.9v2.285l5.45,0.644,11.83,41.485h2.7l10.9-34.805,11.31,34.805h2.75l11.19-41.367,5.63-.762v-2.285h-14.95Zm45.32,19.98,10.9-16.875,5.92-.82v-2.285h-15v2.285l5.86,0.879-8.97,14.531-8.73-14.707,6.21-.7v-2.285h-18.51v2.285l5.74,0.644,11.6,19.747-11.6,18.164-6.21.878v2.286h14.88v-2.227l-5.45-.879,9.79-15.937,9.43,16.113-6.15.644v2.286h18.4V511.48l-5.69-.644Zm65.65-17.695v-2.285H1341.8v2.285l6.21,0.82-9.73,20.567-9.61-20.684,6.45-.7v-2.285h-18.28v2.285l4.98,0.586,11.83,23.965q0,9.961-.11,14.179l-6.8.7v2.286h19.74V511.48l-6.73-.7q-0.12-4.335-.12-14.414l11.37-23.5Zm35.82,38.906h-21.03l25.25-38.906v-2.285h-30.76l-0.58,11.718h3.51l2.05-8.789h19.04l-25.31,38.848v2.227h32.99l0.41-11.895h-3.46Z"/>
  <path id="logo" class="cls-1" d="M706.266,1194.7a45.969,45.969,0,0,0-.118,5.15v5.16H677.555v-1.17l0.234-.94-1.406-.24c-1.1,0-2.659-.07-4.688-0.23h-3.281l-0.469,2.58a45.646,45.646,0,0,1-1.172,4.92,22.619,22.619,0,0,1-1.406,4.22,7.125,7.125,0,0,0-.82,2.23,6.584,6.584,0,0,0,2.109-.71c1.326-.54,2.615-1.13,3.867-1.76a11.566,11.566,0,0,0,3.516-2.81l1.641-1.64h66.8l1.875,1.88a14.477,14.477,0,0,0,3.75,2.81c1.406,0.62,2.655,1.17,3.75,1.64a1.036,1.036,0,1,0,1.171-1.17,17.1,17.1,0,0,1-1.406-3.99q-0.7-2.34-1.172-4.68a11.9,11.9,0,0,0-.7-3.05c0-.47-1.252-0.62-3.75-0.47-1.875.16-3.281,0.23-4.219,0.23a2.052,2.052,0,0,1-.937.24c-0.315,0-.469.31-0.469,0.94l0.235,0.93-13.594.24q-13.359,0-13.36-.24a2.838,2.838,0,0,1,.7-1.05,6.664,6.664,0,0,0,1.171-2.46,15.728,15.728,0,0,0,.469-4.22v-2.58h-4.687Q706.382,1194.46,706.266,1194.7Zm-31.289,28.12v4.22l21.093,0.23h21.094l-5.859,4.93q-5.4,4.215-8.2,6.56l-2.344,1.87v6.8H660.445v4.22h40.313v14.76c0,10.01-.158,15.47-0.469,16.41a13.152,13.152,0,0,1-1.172,3.05,21,21,0,0,1-2.578,3.04,16.962,16.962,0,0,1-3.75,2.82c-1.406.62-2.109,1.17-2.109,1.64s0.153,0.7.468,0.7a30.375,30.375,0,0,0,3.047-.47,34.353,34.353,0,0,0,4.922-1.4,16.4,16.4,0,0,0,4.688-1.88,11.74,11.74,0,0,0,3.515-2.34,12.264,12.264,0,0,0,2.344-2.58,13,13,0,0,0,1.172-2.58c0.311-.94.469-6.4,0.469-16.41v-14.76h38.2v-4.22h-38.2v-6.8l2.109-1.64q2.109-1.635,8.438-6.79,6.327-5.4,8.437-7.04a13.637,13.637,0,0,0,2.578-2.34q0-.225-28.828-0.23t-29.062.23h0Zm121.64-30.23-0.469,1.87a27.635,27.635,0,0,1-1.523,5.74c-0.861,2.43-1.681,4.65-2.461,6.68q-1.176,2.58-3.281,6.8-1.88,3.75-4.453,8.44-2.11,3.75-4.688,7.73-2.582,4.215-3.047,4.92a7.818,7.818,0,0,0-1.406,2.11c-0.157.47-.117,0.71,0.117,0.71a8.252,8.252,0,0,0,2.227-1.18q1.873-1.17,3.515-2.34,1.874-1.41,3.985-3.28a59.714,59.714,0,0,0,4.453-4.45l2.109-2.35,0.235,14.77,0.234,14.76h1.875a5.862,5.862,0,0,0,3.047-.7,5.457,5.457,0,0,0,1.875-1.17,11.374,11.374,0,0,0,1.406-1.64l0.469-.71h27.187v2.11l0.235,2.11h1.64a7.437,7.437,0,0,0,2.813-.47,9.072,9.072,0,0,0,2.109-1.17,4.666,4.666,0,0,0,1.407-1.64l0.7-.94h31.64v-4.45H838.336v-6.8H868.57v-4.45H838.336v-6.8H868.57v-4.68H838.336v-7.5H868.57v-4.69H837.164l0.938-1.17a23.668,23.668,0,0,0,1.406-2.35,6.445,6.445,0,0,0,.7-2.57,17.74,17.74,0,0,0,.469-4.93v-3.51H828.727v14.53H815.6q-13.129,0-13.125-.23c0-.16-0.158-0.24-0.469-0.24s0.311-1.41,1.875-4.22a69.182,69.182,0,0,0,3.281-7.5,16.732,16.732,0,0,0,1.406-3.98l0.235-1.17H796.617Zm31.406,22.03v7.5H802.477v-7.5h25.546Zm0,12.18v6.8H802.477v-6.8h25.546Zm0,11.25v6.8H802.477v-6.8h25.546Zm-3.515,16.88v5.16l-22.969.23H778.805v4.45h45.7v1.64c0,1.1-.081,1.64-0.235,1.64a40.222,40.222,0,0,1-4.687-1.17q-4.455-1.17-4.922-1.4-0.236,0-6.328,4.68-6.1,4.935-7.734,6.1-1.643.93-4.454,2.58a58.967,58.967,0,0,1-5.39,2.57q-2.812,1.185-5.391,2.23a35.226,35.226,0,0,1-5.859,1.76,17.416,17.416,0,0,0-3.047,1.05,6.06,6.06,0,0,0,1.289,1.06,3.994,3.994,0,0,0,1.992.94c0.469,0,2.344-.32,5.625-0.94s6.328-1.33,9.141-2.11q4.449-1.17,8.2-2.35a22.822,22.822,0,0,0,4.922-2.1q1.637-.945,9.14-6.1t7.618-5.04q0.115,0.12.117,13.48v13.12h1.406a7.357,7.357,0,0,0,2.813-.7,6.692,6.692,0,0,0,3.046-1.99,11.184,11.184,0,0,0,2.11-3.17,8.733,8.733,0,0,0,.586-2.34q0.115-1.17.117-6.33c0.154-4.68.271-7.11,0.352-7.26s1.442,0.55,4.1,2.11q3.982,2.1,6.8,3.51a34.945,34.945,0,0,0,6.328,2.58,54.282,54.282,0,0,0,6.328,1.64,52.974,52.974,0,0,0,5.625.94c1.718,0.16,4.219.23,7.5,0.23a38.521,38.521,0,0,0,5.86-.23,1.37,1.37,0,0,0,1.171-.94l0.235-1.17c0-.15-0.235-0.24-0.7-0.24-0.315,0-1.722-.23-4.219-0.7s-5-1.01-7.5-1.64q-3.516-.93-6.8-2.11-2.812-.93-5.625-2.11-2.346-1.17-10.078-6.33l-7.734-5.15,19.453-.24h19.453v-4.45H854.977l-20.157-.23v-2.58l-0.234-2.58H824.508Z"/>
</svg>
