<svg xmlns="http://www.w3.org/2000/svg" width="400" height="200" viewBox="0 0 400 200">
  <defs>
    <style>
      .cls-1 {
        fill: #fdfdfd;
        stroke: #000;
        stroke-width: 1px;
        fill-rule: evenodd;
      }
    </style>
  </defs>
  <path id="钟齐志莽行书" class="cls-1" d="M58.259,92.865a37.512,37.512,0,0,0-3,2.28l-1.98,1.62,1.2,0.54a3.6,3.6,0,0,0,2.88-.3q1.56-.72,1.92-0.39t0.12,1.95a6.483,6.483,0,0,1-.81,2.07,1.542,1.542,0,0,1-1.05.93,10.465,10.465,0,0,0-2.58,1.5l-3.84,2.76a8.886,8.886,0,0,0-1.59,1.5,2.779,2.779,0,0,0-.69,1.38,0.7,0.7,0,0,0,.3.78,3.028,3.028,0,0,0,1.26.3q0.779,0,2.13,1.53a4.332,4.332,0,0,1,1.35,2.43,6.594,6.594,0,0,0,.69,2.46,9.8,9.8,0,0,0,1.47,2.46,1.71,1.71,0,0,0,2.52.45q1.319-.928,4.62-5.61a23.343,23.343,0,0,0,2.22-4.71q1.139-3.088.9-3.81-0.24-.6-2.34,1.26-0.6.481-1.08,0.87a4.566,4.566,0,0,1-.78.54,0.421,0.421,0,0,1-.36.09,19.407,19.407,0,0,1,.96-3.48q1.02-3.178.57-4.02a4.613,4.613,0,0,1,.03-2.94,7.487,7.487,0,0,0,.09-3.03,1.791,1.791,0,0,0-1.05-1.53q-2.7-.84-4.08.12h0Zm-0.3,12.48a7.527,7.527,0,0,1-.51,2.19,12.193,12.193,0,0,1-.87,2.07q-0.78,1.26-2.94-.42l-1.14-.96,1.5-1.2,2.4-1.86a2.465,2.465,0,0,1,1.23-.69q0.329,0.031.33,0.87h0ZM81,76.185a11.236,11.236,0,0,0-1.86-.9q-0.18,0-.42,3.15t-0.45,7.68q-0.211,4.531-.36,5.37t-0.21,1.14q-0.06.3-3.18,1.74l-3.12,1.44,0.96,0.84a4.5,4.5,0,0,0,3,.72l2.1-.18,0.12,2.28a7.768,7.768,0,0,1-.09,2.13,2.614,2.614,0,0,1-1.29.93,4.116,4.116,0,0,1-1.44.48,4.221,4.221,0,0,1-1.5-.54,4.045,4.045,0,0,1-2.1-2.34,8.143,8.143,0,0,0-1.59-2.76q-1.291-1.62-1.71-1.62-0.24,0-.78,2.04a8.863,8.863,0,0,0-.03,3.18q0.27,1.742.81,1.74,0.419,0,1.02,1.38a2.514,2.514,0,0,1,.36,1.8,2.819,2.819,0,0,0,.42,1.86,1.7,1.7,0,0,0,1.26,1.2,10.545,10.545,0,0,0,2.73-.84,10.155,10.155,0,0,1,2.85-.84q0.66,0,.81,1.74a69.829,69.829,0,0,1-.15,7.44q-0.3,6.66.18,8.64,0.72,3.42,2.7,2.16a2.5,2.5,0,0,0,.63-1.83q0.09-1.41-.03-8.25-0.24-9.54.06-10.92a2.775,2.775,0,0,1,.63-1.38,9.2,9.2,0,0,1,1.71-1.26,13.242,13.242,0,0,1,4.56-1.44,7.018,7.018,0,0,0,1.95-.39,0.963,0.963,0,0,0,.39-0.93,1.178,1.178,0,0,0-.24-0.84,1.752,1.752,0,0,0-.9-0.36q-1.26-.3-1.26-0.6a4.037,4.037,0,0,1,1.41-1.41,10.25,10.25,0,0,1,2.01-1.35q1.319-.239,2.25-2.88t-0.03-3.18a9.709,9.709,0,0,0-2.88-.84,10.449,10.449,0,0,0-7.02.84q-2.04.841-2.34,0.39t-0.18-3.69a16.4,16.4,0,0,1,.78-5.04l1.08-1.98q1.2-2.16-1.62-3.72h0Zm4.62,18a15.209,15.209,0,0,1-2.82,3.18l-2.04,1.92-0.24-1.26a5.292,5.292,0,0,1-.21-2.67,4.189,4.189,0,0,1,1.95-1.47,9.073,9.073,0,0,1,3.12-.96,0.9,0.9,0,0,1,.75.15,3.52,3.52,0,0,1-.51,1.11h0Zm-27.9-20.34q-0.6,1.62-3.99,8.4a50.248,50.248,0,0,1-5.97,9.78,19.411,19.411,0,0,0-2.34,3.3,2.605,2.605,0,0,0-.3,2.04c0.039,0.081.08,0.16,0.12,0.24q0.84,1.08,3.36-2.94a29.846,29.846,0,0,1,8.64-8.1,19.475,19.475,0,0,1,4.08-2.28,16.693,16.693,0,0,0,4.38-1.38,1.434,1.434,0,0,0,.81-0.39,1.068,1.068,0,0,0-.51-0.57,3.224,3.224,0,0,0-1.77-.54,1.261,1.261,0,0,1-1.17-.42q-0.6-.959-4.32,1.26a7.578,7.578,0,0,1-1.32.78,9.287,9.287,0,0,1-1.05.42,0.667,0.667,0,0,1-.45.06,3.182,3.182,0,0,1,.78-1.8,19.19,19.19,0,0,0,1.65-3.81,12.876,12.876,0,0,0,.81-3.45,3.086,3.086,0,0,0-.42-1.68c-0.081-.159-0.16-0.219-0.24-0.18q-0.3,0-.78,1.26h0Zm66.3-.36a3.657,3.657,0,0,0,1.02,1.5q0.418,0.24.42,2.04a3.892,3.892,0,0,1-1.08,2.88,3.671,3.671,0,0,0-.84.96,1.14,1.14,0,0,0,.6-0.06,2.994,2.994,0,0,1,1.53.03,0.761,0.761,0,0,1,.63.72q0,0.51-3.66,2.43a41.82,41.82,0,0,1-6.24,2.76,25.027,25.027,0,0,0-2.82,1.02c-0.16.12-.081,0.33,0.24,0.63a5.031,5.031,0,0,0,1.2.81,2.826,2.826,0,0,0,1.2.36,14.522,14.522,0,0,0,4.59-.78q2.73-.84,3.21-1.68a0.885,0.885,0,0,1,.84-0.42q0.6,0-.45,1.65a9.214,9.214,0,0,0-1.05,1.86,6.341,6.341,0,0,1-1.02,1.56,7.842,7.842,0,0,1-3.6,2.31,38.346,38.346,0,0,0-7.98,4.08l-2.76,1.8a30.408,30.408,0,0,0-4.08,3.18q-2.822,2.52-2.73,4.32t3.09,1.74a2.677,2.677,0,0,0,2.22-.84,1.726,1.726,0,0,1,1.5-.78,1.615,1.615,0,0,0,.78-0.12,0.464,0.464,0,0,0,.06-0.54,1.453,1.453,0,0,1,.54-1.5,1.043,1.043,0,0,1,1.32-.42q0.418,0.242-.45.96t-0.42,1.05q0.45,0.331,1.89-.96a4.263,4.263,0,0,1,2.04-1.29,2.142,2.142,0,0,0,1.38-.78,4.172,4.172,0,0,1,1.86-1.08,0.972,0.972,0,0,1,.9.03,3,3,0,0,1,.18,1.41,8.065,8.065,0,0,1-1.08,3.72l-1.08,2.1,1.08,2.52q1.2,3,2.22,3.15t2.7-2.61a24.78,24.78,0,0,0,3.54-9.12q0.6-3.9,1.74-3.9,0.418,0,.12,1.2-0.36,1.742-.9,8.85t-0.54,9.87a20.456,20.456,0,0,1-.18,3.33,3.459,3.459,0,0,1-.66,1.53,9.3,9.3,0,0,0-.6.84q-0.42.66,0.42,0.66a3.179,3.179,0,0,1,1.62.72,3.561,3.561,0,0,0,1.32.6,0.983,0.983,0,0,0,.9-0.54,4.876,4.876,0,0,0,.66-1.8q0.238-1.2.6-3.66,0.418-2.88,1.08-5.94a87.07,87.07,0,0,0,1.02-10.77q0.418-7.83.12-8.73-0.9-1.859.78-1.86a9.172,9.172,0,0,0,2.76-.63,18.161,18.161,0,0,1,5.76-.57,28.508,28.508,0,0,0,3.24-.03,0.7,0.7,0,0,0,.72-0.57,2.067,2.067,0,0,0-.84-1.8,10.358,10.358,0,0,0-2.7-1.86l-1.8-.9-4.92.78q-4.982.661-5.25,0.36t0.87-3.18q0.779-2.039.9-2.55a1.165,1.165,0,0,0-.36-1.05,1.947,1.947,0,0,0-1.29-.78q-0.571,0-.33-1.11a8.362,8.362,0,0,0-.06-2.97,4.418,4.418,0,0,0-.63-1.8,10.288,10.288,0,0,0-1.83-1.8q-2.22-1.679-3.06-1.68a0.585,0.585,0,0,0-.57.15,2.8,2.8,0,0,0,.45.99h0Zm9.66,19.56a6.041,6.041,0,0,1-1.38,1.02,0.537,0.537,0,0,0-.24.06,6.9,6.9,0,0,1-3.66.84c-0.4-.039-0.5-0.159-0.3-0.36a5.78,5.78,0,0,1,1.83-.96,13.349,13.349,0,0,1,2.46-.72,1.47,1.47,0,0,1,1.29.12h0Zm-8.22,4.32a10.786,10.786,0,0,1-1.23,3.42,10.838,10.838,0,0,1-1.89,3.12,0.76,0.76,0,0,1-.75.24,4.109,4.109,0,0,1-1.11-.9q-2.22-2.1-.06-3.24a12.352,12.352,0,0,0,2.22-1.62,2.986,2.986,0,0,0,1.14-1.44c0-.279.279-0.42,0.84-0.42a0.743,0.743,0,0,1,.84.84h0Zm-11.16,3q-3.722,3.482-5.25,4.71a10.655,10.655,0,0,1-2.79,1.71q-2.52.9-2.46-.42,0.12-1.62,3.42-3.96,5.76-4.019,8.76-4.2,0.6,0-1.68,2.16h0Zm41.16,12.06a19.819,19.819,0,0,0,1.02,3.87,12.232,12.232,0,0,0,1.41,3.36,2,2,0,0,0,1.56.39,2.7,2.7,0,0,0,1.71-.6,1.62,1.62,0,0,0,.42-0.9,5.265,5.265,0,0,0-.36-1.38,14.07,14.07,0,0,0-2.61-3.45q-2.192-2.369-2.79-2.37-0.36,0-.36,1.08h0Zm27.72-9.42a13.061,13.061,0,0,1-2.73.87,23.529,23.529,0,0,1-3.75.21h-4.02v1.56a2.825,2.825,0,0,0,1.11,2.4,3.557,3.557,0,0,0,1.5.84,4.686,4.686,0,0,1,1.77,1.2q2.219,1.922,3.36.78,0.72-.72,3.51.78t2.79,2.64q0,0.6-2.16,1.32a18.633,18.633,0,0,1-4.44.9,20.634,20.634,0,0,1-11.1-2.04,14.941,14.941,0,0,0-3.48-1.44q-0.781.061,3.42,4.26a15.966,15.966,0,0,0,4.8,3.63q1.739,0.63,7.14.69a22.991,22.991,0,0,0,11.34-2.4,5.289,5.289,0,0,0,2.01-1.71,3.09,3.09,0,0,0,.03-2.31q-0.36-1.379-4.08-3.57a19.3,19.3,0,0,0-6.3-2.61q-2.4-.36-0.3-2.4a3.082,3.082,0,0,0,1.02-1.59,2.1,2.1,0,0,1,.84-1.29,1.648,1.648,0,0,0,.6-0.78q0.478-1.08-.12-0.96a17.487,17.487,0,0,0-2.76,1.02h0Zm7.32-5.52q-1.742,1.32-1.53,1.98t2.43,1.14a36.756,36.756,0,0,1,4.41,1.35,6.74,6.74,0,0,0,2.55.66,1.616,1.616,0,0,0,1.02-1.23,2.409,2.409,0,0,0-.33-2.43,7.689,7.689,0,0,0-3.15-1.89,10.3,10.3,0,0,0-3.21-.84,4.782,4.782,0,0,0-2.19,1.26h0Zm-23.1-18.36a0.746,0.746,0,0,0-.12.81,5.718,5.718,0,0,0,1.08,1.41,5.874,5.874,0,0,1,1.26,1.74,6.693,6.693,0,0,1,.24,2.1v2.16l-3.12,1.8q-7.982,4.56-9.54,4.56a3.081,3.081,0,0,0-1.68.36q-0.422.24-.36,0.39a0.8,0.8,0,0,0,.54.27,11.662,11.662,0,0,1,1.83.78,9.117,9.117,0,0,0,2.97.78,4.863,4.863,0,0,0,3.15-.45,15.8,15.8,0,0,0,3.75-3.15,6.5,6.5,0,0,1,2.34-1.86q0.54,0,.54,1.5a6.583,6.583,0,0,1-1.38,3.93,3.96,3.96,0,0,1-2.88,1.95,2.6,2.6,0,0,0-1.92.87,2.677,2.677,0,0,0-.84,1.89,3.438,3.438,0,0,0,.93,2.4,2.993,2.993,0,0,0,2.31,1.02q1.379,0,5.82-1.83a46.437,46.437,0,0,0,7.08-3.51,3.886,3.886,0,0,0,1.26-.99,2.3,2.3,0,0,0,.18-1.29,1.922,1.922,0,0,0-.33-1.05,1.835,1.835,0,0,0-.99-0.51,18.344,18.344,0,0,1-3.72-1.56q-1.862-1.02-1.86-1.44a12.672,12.672,0,0,1,.48-2.46,3,3,0,0,1,1.38-2.19,22.362,22.362,0,0,1,5.04-.93,25.689,25.689,0,0,0,4.11-.75,1.267,1.267,0,0,0,.93-1.29,1.394,1.394,0,0,0-1.11-1.26,12.586,12.586,0,0,0-3.75-.48,16.968,16.968,0,0,0-2.79.15,3.747,3.747,0,0,0-1.53.75,3.183,3.183,0,0,1-1.56.84c-0.24-.039-0.381-0.459-0.42-1.26a3.008,3.008,0,0,0-1.5-2.16l-2.82-1.74a6.049,6.049,0,0,0-1.92-.93,1.109,1.109,0,0,0-1.08.63h0Zm48.239,28.86a0.63,0.63,0,0,0-.18.48q0.18,0.481.84-.3c0.32-.4.33-0.6,0.03-0.6a0.757,0.757,0,0,0-.69.42h0Zm30.9-25.62q-0.24.36,1.62,2.19a14.5,14.5,0,0,0,2.88,2.37,2.347,2.347,0,0,0,2.1.18,1.666,1.666,0,0,0,.9-1.68,1.92,1.92,0,0,0-.57-1.59,10.383,10.383,0,0,0-2.91-1.11q-3.6-.959-4.02-0.36h0Zm-6.96-9q0.18,1.98-.36,2.46a34.125,34.125,0,0,1-5.34,2.01q-4.8,1.59-4.98,1.38t-2.34-3.39q-2.82-4.26-3.54-3.48-0.3.3,0.36,2.04a18.394,18.394,0,0,1,.96,3.6,3.569,3.569,0,0,1,0,1.68,3.6,3.6,0,0,1-1.32.84,4.054,4.054,0,0,1-2.52.48,0.718,0.718,0,0,0-.96.42q-0.36,1.32,1.44,3.36a5.255,5.255,0,0,0,1.5,1.38,4.6,4.6,0,0,0,1.74.24,3.751,3.751,0,0,0,2.64-.78,2.342,2.342,0,0,1,1.29-.6,4.366,4.366,0,0,1,1.71.66,2.686,2.686,0,0,0,1.08.48,1.452,1.452,0,0,0,.78-0.36,2.3,2.3,0,0,0,.15-2.22,2.309,2.309,0,0,1,.09-2.16,5.6,5.6,0,0,1,2.01-1.32,9.859,9.859,0,0,1,2.49-.81q1.02-.149,1.14.33a8.764,8.764,0,0,1-1.38,2.76,40.2,40.2,0,0,1-2.94,4.14q-1.8,2.22-1.8,3.42a2.95,2.95,0,0,1-1.47,2.28,25.524,25.524,0,0,1-5.31,2.58,47.323,47.323,0,0,1-4.62,1.68,11.84,11.84,0,0,0-1.92.48l-1.62.42,1.08,0.96a8.336,8.336,0,0,0,3.42,1.44,16.727,16.727,0,0,1,3.18.75q0.3,0.212-.42.93a28.121,28.121,0,0,1-3.48,2.94q-2.82,2.16-2.76,2.46,0.06,0.242,1.92-1.14a9,9,0,0,1,2.31-1.44q0.33,0-.81,1.44t-2.79,3.27a25.424,25.424,0,0,1-2.85,2.79q-3.24,2.88-3.93,3.45a1.992,1.992,0,0,1-1.11.57q-1.02-.238,1.92-3.54,2.58-2.7,2.28-2.94-0.24-.3-2.28,1.74t-2.04,2.55a0.415,0.415,0,0,1-.42.51q-0.48,0-.9,1.29a1.926,1.926,0,0,0-.06,1.71q0.84,0.72,2.67-.63a76.973,76.973,0,0,0,6.57-6.03q6.06-6.058,7.71-7.59a5.815,5.815,0,0,1,2.07-1.53,2.591,2.591,0,0,1,.3,1.59,20.046,20.046,0,0,1-.24,2.91,4.375,4.375,0,0,1-.54,1.92,13.224,13.224,0,0,1-3.42,1.86q-3.06,1.381-3.06,1.92-0.06,1.921,3.3,2.04a5.444,5.444,0,0,1,1.95.27,2.937,2.937,0,0,1,.69,1.47q0.84,2.761,1.56,2.76,0.9-.059,2.34-4.5a29.68,29.68,0,0,1,1.68-4.62,8.527,8.527,0,0,1,2.4-1.5,10.308,10.308,0,0,1,2.79-1.05,1.518,1.518,0,0,1,1.53.27,50.929,50.929,0,0,1,.63,5.7,34,34,0,0,1,0,7.92q-0.45,2.642-.54,3.39a2.945,2.945,0,0,1-1.05,1.65,2.053,2.053,0,0,0-.66,1.02,2.353,2.353,0,0,0,.3,1.2,1.836,1.836,0,0,0,.9,1.26,1.855,1.855,0,0,0,1.38-.6q1.2-1.02,1.86-5.7t1.14-15.42a7.5,7.5,0,0,1,.36-2.16,14.291,14.291,0,0,1,2.34-.81,29.956,29.956,0,0,1,3.54-.87,1.291,1.291,0,0,0,.9-0.39,1.682,1.682,0,0,0-.42-0.93,6.269,6.269,0,0,0-2.91-1.62q-2.19-.72-2.19-1.02,0-.48,2.28-1.44a17.02,17.02,0,0,1,3.84-1.2,5.1,5.1,0,0,0,2.52-.84,2.284,2.284,0,0,0,.72-1.86q0-1.44-3.9-2.58-0.96-.3-5.7.96a49.016,49.016,0,0,0-7.5,2.52q-1.8.841-1.98,0.66t0.42-.57a15.181,15.181,0,0,1,1.59-.87q0.99-.48,2.07-0.99a16.132,16.132,0,0,1,2.04-.81,5.447,5.447,0,0,1,1.32-.3,0.825,0.825,0,0,0,1.02-1.02q0-1.74-3.78-2.4a4.087,4.087,0,0,1-1.98-1.02,2.189,2.189,0,0,1-.84-1.56q0-.419,3.21-2.46a51.811,51.811,0,0,0,4.89-3.42,8.469,8.469,0,0,1,1.65-1.08,1.64,1.64,0,0,1,1.23,0,15.642,15.642,0,0,0,2.85.51,0.9,0.9,0,0,0,.75-0.75q0.54-1.56-2.52-2.94a6.1,6.1,0,0,1-1.98-1.14,1.771,1.771,0,0,0-1.41-.36,1.165,1.165,0,0,1-1.35-.84q-0.3-1.2-3.48-1.86l-1.32-.3Zm5.28,23.1a3,3,0,0,1-.9.66q-0.96.42-.96-0.42,0-.9,2.04-1.02,0.36,0-.18.78h0Zm-5.16,2.28a2.523,2.523,0,0,1-.72,2.04l-2.34,2.1a4.857,4.857,0,0,1-2.1,1.38q-0.42,0-.42-0.63a2.4,2.4,0,0,1,.42-1.29,0.724,0.724,0,0,0,.06-0.84,0.177,0.177,0,0,0-.12-0.06q-0.48-.118-1.8,2.4a2.11,2.11,0,0,1-1.17,1.26c-0.3,0-.38-0.129-0.24-0.39a3.833,3.833,0,0,0-.39-2.13,4.329,4.329,0,0,1-.18-0.48q-0.54-1.44-.12-1.89a13.293,13.293,0,0,1,3.54-1.53,8.323,8.323,0,0,1,1.08-.42,11.73,11.73,0,0,1,3.72-.99q0.78,0.09.78,1.47h0Zm53.4-16.38a1.113,1.113,0,0,0-.42.75q0.058,0.211.72,0.03a1.438,1.438,0,0,1,1.29.57,2.027,2.027,0,0,1,.39,1.59q-0.18,1.32-.3,2.61a11.771,11.771,0,0,1-1.14,3.51q-1.022,2.22-.72,2.4,0.418,0.121,2.73-1.14a19.07,19.07,0,0,0,3.39-2.22,5.02,5.02,0,0,0,1.14-1.41,6.279,6.279,0,0,0,.42-2.01,5.418,5.418,0,0,0-.54-3.18,5.32,5.32,0,0,0-3.51-2.25q-2.372-.509-3.45.75h0Zm-14.58-5.34a8.305,8.305,0,0,1-1.32,3.66,61.4,61.4,0,0,1-3.66,5.67,47.589,47.589,0,0,1-3.9,5.01,5.659,5.659,0,0,0-1.5,4.44,1.888,1.888,0,0,0,1.14.96,1.324,1.324,0,0,0,.99.24,2.938,2.938,0,0,0,.93-0.78,9.576,9.576,0,0,1,3.03-1.77,10,10,0,0,1,3.27-.99q2.28,0-4.14,9.66-1.44,2.042-2.01,2.67a4.062,4.062,0,0,1-1.17.93q-0.9.3-1.38,2.22t0.18,2.34a2.059,2.059,0,0,0,1.62-.33,7.225,7.225,0,0,0,2.04-1.41,2.707,2.707,0,0,1,1.44-.9,5.972,5.972,0,0,0,1.5-.3,0.682,0.682,0,0,1,.72.09,3.773,3.773,0,0,1,.12,1.29,3.086,3.086,0,0,1-.72,2.34,1.994,1.994,0,0,0-.54,1.56,1.454,1.454,0,0,0,.54,1.38,1.331,1.331,0,0,1,.36,1.14,2.9,2.9,0,0,0,.72,1.89,1.71,1.71,0,0,0,1.38.81q0.9-.118,1.38-1.77a26.67,26.67,0,0,1,1.77-4.23,22.7,22.7,0,0,0,1.77-4.5,24.282,24.282,0,0,1,1.38-4.26q1.26-2.7,1.74-.84a0.9,0.9,0,0,0,.45.84,2.494,2.494,0,0,1,.84,1.41,2.608,2.608,0,0,0,1.89,1.71,1.764,1.764,0,0,0,1.23-.06,6.634,6.634,0,0,0,1.41-1.32,13.24,13.24,0,0,1,2.58-2.28,1.878,1.878,0,0,1,.93-0.42,0.686,0.686,0,0,1,.57.36q0.959,1.141.96,5.52a30.989,30.989,0,0,1-.96,7.98,9.23,9.23,0,0,1-1.8,3.21,14.161,14.161,0,0,1-3.18,2.91q-1.08.72-.84,1.08t1.5,0q1.318-.418,2.46-0.66a6.6,6.6,0,0,0,3.12-2.13,9.206,9.206,0,0,0,2.28-3.09,8.267,8.267,0,0,1,1.2-2.64,12.529,12.529,0,0,0,1.5-4.32,16.5,16.5,0,0,0,.24-3.06,25.714,25.714,0,0,0-.66-3.6q-0.9-3.659-1.5-4.32a5.052,5.052,0,0,0-3.03-1.26,10.509,10.509,0,0,0-4.05.06q-2.1.481-2.46,1.08t-3.09.78q-2.732.18-2.73-.06a29.293,29.293,0,0,1,1.47-4.38,34.441,34.441,0,0,1,1.95-4.62q0.779-1.38.36-1.38-0.3,0-1.26,1.74t-3.84,7.38q-0.78,1.741-1.59,3.24t-1.32,2.31a1.983,1.983,0,0,1-.57.75,11.5,11.5,0,0,0-2.04-.6,3.213,3.213,0,0,1-1.65-.84q-0.27-.418.51-1.26a25.676,25.676,0,0,0,4.02-5.76q2.1-3.839,1.74-4.74a3.055,3.055,0,0,0-1.41-1.35,6.6,6.6,0,0,0-2.43-.87,2.146,2.146,0,0,1-1.62-.69q-0.18-.45,1.74-2.85,3.36-4.14,3.51-6.72t-2.79-4.14a1.609,1.609,0,0,0-1.14-.33,2.03,2.03,0,0,0-.18,1.17h0Zm66.72,8.58a1.46,1.46,0,0,0-.9,1.38,1.664,1.664,0,0,0,1.26,1.14,14.872,14.872,0,0,1,3.6,2.13,6.807,6.807,0,0,0,3.78,1.65,2.546,2.546,0,0,0,1.8-.36,2.96,2.96,0,0,0-.3-1.92,5.19,5.19,0,0,0-1.8-2.4,4.625,4.625,0,0,0-2.58-1.08,4.32,4.32,0,0,1-2.04-.54,3.9,3.9,0,0,0-1.56-.6,2.328,2.328,0,0,0-1.26.6h0Zm-12.54-3.66a4.488,4.488,0,0,0,.81,1.29q0.508,0.571.51,6.03v5.52l-3.36,1.68-5.1,2.64a3.628,3.628,0,0,0-1.56.96,4.178,4.178,0,0,0-.06,1.74,4.978,4.978,0,0,0,1.62,3.45,12.379,12.379,0,0,0,4.98,1.77q1.558,0.3,1.74.78,0.18,0.54-1.59,2.58a14.465,14.465,0,0,1-3.15,2.88,4.136,4.136,0,0,0-1.38,1.17,4.29,4.29,0,0,0-.24,1.77q-0.122,2.1.66,2.49t3.54-.21a32.123,32.123,0,0,0,4.56-1.23,36.954,36.954,0,0,1,7.2-1.23,42.835,42.835,0,0,0,4.86-.72,13.123,13.123,0,0,0,2.82-1.02,6.465,6.465,0,0,0,2.46-1.8,2.514,2.514,0,0,0,0-2.16,10.329,10.329,0,0,0-1.77-2.46,37.006,37.006,0,0,0-3.21-3.33q-1.62-1.469-1.8-1.29-0.242.18,0.36,2.16a2.129,2.129,0,0,1,.3.78q0.778,2.16.54,2.64t-2.58,1.26a5.914,5.914,0,0,0-.84.24q-1.561.481-3,.9-5.341,1.382-4.98.36a2.163,2.163,0,0,1,1.11-.96q0.868-.418,1.59-2.58a33.825,33.825,0,0,1,2.07-4.29,23.683,23.683,0,0,1,2.79-4.17,13.94,13.94,0,0,0,1.83-3,3.889,3.889,0,0,0,.51-2.22,3.1,3.1,0,0,0-2.1-1.71,5.462,5.462,0,0,0-3.06-.33,8.442,8.442,0,0,1-1.77.42q-0.391,0-.21-3.6a11.218,11.218,0,0,0-.24-4.38,5.628,5.628,0,0,0-2.58-2.4,5.778,5.778,0,0,0-2.1-1.08q-0.421,0-.18.66h0Zm6.72,16.32a5.007,5.007,0,0,1-1.8,1.86c-0.24.041-.281-0.18-0.12-0.66q0.18-.779.42-1.86a2.256,2.256,0,0,1,1.05-1.47,1.074,1.074,0,0,1,1.35-.15q0.418,0.36-.9,2.28h0Zm-6.3,4.02a3.265,3.265,0,0,1-.3,1.59,2.479,2.479,0,0,1-1.38.39,6.744,6.744,0,0,1-2.58,0q-0.54-.118-0.45-0.42a9.339,9.339,0,0,1,2.13-1.77,12.228,12.228,0,0,1,2.4-1.53q0.36,0,.18,1.74h0Z"/>
</svg>
