<svg xmlns="http://www.w3.org/2000/svg" width="1540" height="1450" viewBox="0 0 1540 1450">
  <defs>
    <style>
      .cls-1 {
        fill: #fff;
      }

      .cls-1, .cls-2, .cls-3 {
        stroke: #000;
        stroke-width: 1px;
        fill-rule: evenodd;
      }

      .cls-2 {
        fill: #fefefe;
      }

      .cls-3 {
        fill: #fdfdfd;
      }
    </style>
  </defs>
  <path id="字体名称" class="cls-1" d="M297.812,214.134a125.489,125.489,0,0,0-10,7.6l-6.6,5.4,4,1.8q4,1.6,9.6-1,5.2-2.4,6.4-1.3t0.4,6.5a21.631,21.631,0,0,1-2.7,6.9q-1.9,3.1-3.5,3.1-1.2,0-8.6,5l-12.8,9.2a29.6,29.6,0,0,0-5.3,5,9.251,9.251,0,0,0-2.3,4.6q-0.2,2,1,2.6a10.1,10.1,0,0,0,4.2,1q2.6,0,7.1,5.1t4.5,8.1q0,3,2.3,8.2a32.661,32.661,0,0,0,4.9,8.2q4,4.6,8.4,1.5t15.4-18.7q3.6-5.4,7.4-15.7t3-12.7q-0.8-2-7.8,4.2-2,1.6-3.6,2.9a15.377,15.377,0,0,1-2.6,1.8,1.417,1.417,0,0,1-1.2.3q-0.2-1,3.2-11.6t1.9-13.4q-1.5-2.8.1-9.8a24.956,24.956,0,0,0,.3-10.1q-0.9-4.3-3.5-5.1-9-2.8-13.6.4h0Zm-1,41.6a25.068,25.068,0,0,1-1.7,7.3,40.706,40.706,0,0,1-2.9,6.9q-2.6,4.2-9.8-1.4l-3.8-3.2,5-4,8-6.2q3-2.4,4.1-2.3t1.1,2.9h0Zm76.8-97.2q-5.6-3-6.2-3t-1.4,10.5q-0.8,10.5-1.5,25.6t-1.2,17.9q-0.5,2.8-.7,3.8t-10.6,5.8l-10.4,4.8,3.2,2.8q3.2,2.6,10,2.4l7-.6,0.4,7.6q0.2,5.8-.3,7.1t-4.3,3.1a13.739,13.739,0,0,1-4.8,1.6q-1.4,0-5-1.8a13.485,13.485,0,0,1-7-7.8q-1-3.8-5.3-9.2t-5.7-5.4q-0.8,0-2.6,6.8a29.55,29.55,0,0,0-.1,10.6q0.9,5.8,2.7,5.8,1.4,0,3.4,4.6t1.2,6q-0.6,2.2,1.4,6.2t4.2,4q2,0,9.1-2.8t9.5-2.8q2.2,0,2.7,5.8t-0.5,24.8q-1,22.2.6,28.8,2.4,11.4,9,7.2,1.8-1.4,2.1-6.1t-0.1-27.5q-0.8-31.8.2-36.4a9.238,9.238,0,0,1,2.1-4.6,30.522,30.522,0,0,1,5.7-4.2,44.094,44.094,0,0,1,15.2-4.8q5.2-.6,6.5-1.3t1.3-3.1a3.921,3.921,0,0,0-.8-2.8,5.842,5.842,0,0,0-3-1.2q-4.2-1-4.2-2t4.7-4.7a34.243,34.243,0,0,1,6.7-4.5q4.4-.8,7.5-9.6t-0.1-10.6q-1.6-1.2-9.6-2.8a34.83,34.83,0,0,0-23.4,2.8q-6.8,2.8-7.8,1.3t-0.6-12.3q0.8-13.2,2.6-16.8l3.6-6.6q4-7.2-5.4-12.4h0Zm15.4,60q-2.6,4.4-9.4,10.6l-6.8,6.4-0.8-4.2q-1.6-6.8-.7-8.9t6.5-4.9q7.2-3.2,10.4-3.2c1.6,0,2.431.169,2.5,0.5s-0.5,1.569-1.7,3.7h0Zm-93-67.8q-2,5.4-13.3,28t-19.9,32.6a64.84,64.84,0,0,0-7.8,11q-2,4-1,6.8,0.2,0.4.4,0.8,2.8,3.6,11.2-9.8,9.4-14.2,28.8-27,12-7.6,13.6-7.6,3.2,0,14.6-4.6,2.6-.8,2.7-1.3t-1.7-1.9a10.748,10.748,0,0,0-5.9-1.8q-3.1,0-3.9-1.4-2-3.2-14.4,4.2a25.221,25.221,0,0,1-4.4,2.6,30.815,30.815,0,0,1-3.5,1.4,2.215,2.215,0,0,1-1.5.2q-0.4-1.4,2.6-6a63.93,63.93,0,0,0,5.5-12.7q2.7-8.1,2.7-11.5a10.288,10.288,0,0,0-1.4-5.6c-0.269-.531-0.535-0.731-0.8-0.6q-1,0-2.6,4.2h0Zm221-1.2q2,4.2,3.4,5t1.4,6.8a12.975,12.975,0,0,1-3.6,9.6q-3,3-2.8,3.2,0,0.2,2-.2a9.988,9.988,0,0,1,5.1.1q2.1,0.7,2.1,2.4t-12.2,8.1a139.237,139.237,0,0,1-20.8,9.2q-9,3-9.4,3.4-0.8.6,0.8,2.1a16.756,16.756,0,0,0,4,2.7,9.429,9.429,0,0,0,4,1.2q6.2,0.2,15.3-2.6t10.7-5.6a2.953,2.953,0,0,1,2.8-1.4q2,0-1.5,5.5t-3.5,6.2q0,0.7-3.4,5.2t-12,7.7a127.9,127.9,0,0,0-26.6,13.6l-9.2,6a101.451,101.451,0,0,0-13.6,10.6q-9.4,8.4-9.1,14.4t10.3,5.8q5.6-.2,7.4-2.8a5.752,5.752,0,0,1,5-2.6,5.389,5.389,0,0,0,2.6-.4q0.6-.4.2-1.8-0.8-2.4,1.8-5t4.4-1.4q1.4,0.8-1.5,3.2t-1.4,3.5q1.5,1.1,6.3-3.2t6.8-4.3q2,0,4.6-2.6a13.9,13.9,0,0,1,6.2-3.6q2.4-.6,3,0.1t0.6,4.7q0,5.6-3.6,12.4l-3.6,7,3.6,8.4q4,10,7.4,10.5t9-8.7a82.577,82.577,0,0,0,11.8-30.4q2-13,5.8-13,1.4,0,.4,4-1.2,5.8-3,29.5t-1.8,32.9a68.214,68.214,0,0,1-.6,11.1,11.543,11.543,0,0,1-2.2,5.1,30.692,30.692,0,0,0-2,2.8q-1.4,2.2,1.4,2.2,2,0,5.4,2.4a11.891,11.891,0,0,0,4.4,2q1.6,0.2,3-1.8a16.24,16.24,0,0,0,2.2-6q0.8-4,2-12.2,1.4-9.6,3.6-19.8,2-9.8,3.4-35.9t0.4-29.1q-3-6.2,2.6-6.2,3.2,0,9.2-2.1t19.2-1.9a94.831,94.831,0,0,0,10.8-.1q2.2-.3,2.4-1.9,0.6-2.6-2.8-6a34.484,34.484,0,0,0-9-6.2l-6-3-16.4,2.6q-16.6,2.2-17.5,1.2t2.9-10.6q2.6-6.8,3-8.5a3.886,3.886,0,0,0-1.2-3.5q-2.4-2.6-4.3-2.6t-1.1-3.7a27.841,27.841,0,0,0-.2-9.9,14.73,14.73,0,0,0-2.1-6,34.365,34.365,0,0,0-6.1-6q-7.4-5.6-10.2-5.6c-1.2,0-1.834.169-1.9,0.5s0.432,1.435,1.5,3.3h0Zm32.2,65.2q0,0.4-4.6,3.4a1.8,1.8,0,0,0-.8.2,22.977,22.977,0,0,1-12.2,2.8q-2-.2-1-1.2,1.4-1.4,6.1-3.2a44.526,44.526,0,0,1,8.2-2.4q3.5-.6,4.3.4h0Zm-27.4,14.4q0,2.8-4.1,11.4t-6.3,10.4a2.535,2.535,0,0,1-2.5.8,13.789,13.789,0,0,1-3.7-3q-7.4-7-.2-10.8a41.222,41.222,0,0,0,7.4-5.4q3.8-3.4,3.8-4.8c0-.931.932-1.4,2.8-1.4a2.476,2.476,0,0,1,2.8,2.8h0Zm-37.2,10q-12.4,11.6-17.5,15.7a35.608,35.608,0,0,1-9.3,5.7q-8.4,3-8.2-1.4,0.4-5.4,11.4-13.2,19.2-13.4,29.2-14,2,0-5.6,7.2h0Zm137.2,40.2q0.2,3.2,3.4,12.9t4.7,11.2q1.5,1.5,5.2,1.3a8.986,8.986,0,0,0,5.7-2,5.391,5.391,0,0,0,1.4-3,17.541,17.541,0,0,0-1.2-4.6q-1.4-3.6-8.7-11.5t-9.3-7.9q-1.2,0-1.2,3.6h0Zm92.4-31.4a43.678,43.678,0,0,1-9.1,2.9,78.542,78.542,0,0,1-12.5.7h-13.4v5.2a9.423,9.423,0,0,0,3.7,8q3.7,2.8,5,2.8t5.9,4q7.4,6.4,11.2,2.6,2.4-2.4,11.7,2.6t9.3,8.8q0,2-7.2,4.4a62.084,62.084,0,0,1-14.8,3,68.8,68.8,0,0,1-37-6.8q-9.8-4.8-11.6-4.8-2.6.2,11.4,14.2,10.2,10,16,12.1t23.8,2.3q22.8,0.2,37.8-8,5.2-3,6.7-5.7t0.1-7.7q-1.2-4.6-13.6-11.9t-21-8.7q-8-1.2-1-8,3.4-3.6,3.4-5.3t2.8-4.3a5.5,5.5,0,0,0,2-2.6q1.6-3.6-.4-3.2-1,0-9.2,3.4h0Zm24.4-18.4q-5.8,4.4-5.1,6.6t8.1,3.8a121.621,121.621,0,0,1,14.7,4.5q6.5,2.5,8.5,2.2t3.4-4.1q1.6-4.8-1.1-8.1t-10.5-6.3q-8.2-3-10.7-2.8t-7.3,4.2h0Zm-77-61.2a2.489,2.489,0,0,0-.4,2.7,19.054,19.054,0,0,0,3.6,4.7q3.4,3.6,4.2,5.8a22.282,22.282,0,0,1,.8,7v7.2l-10.4,6q-26.6,15.2-31.8,15.2a10.277,10.277,0,0,0-5.6,1.2q-1.4.8-1.2,1.3a2.654,2.654,0,0,0,1.8.9,38.791,38.791,0,0,1,6.1,2.6,30.4,30.4,0,0,0,9.9,2.6,16.2,16.2,0,0,0,10.5-1.5q4.9-2.5,12.5-10.5,5.6-5.8,7.8-6.2,1.8,0,1.8,5a21.926,21.926,0,0,1-4.6,13.1q-4.6,6.3-9.6,6.5a8.677,8.677,0,0,0-6.4,2.9,8.927,8.927,0,0,0-2.8,6.3,11.47,11.47,0,0,0,3.1,8,9.985,9.985,0,0,0,7.7,3.4q4.6,0,19.4-6.1a154.827,154.827,0,0,0,23.6-11.7q3.4-2,4.2-3.3a7.649,7.649,0,0,0,.6-4.3,6.386,6.386,0,0,0-1.1-3.5,6.118,6.118,0,0,0-3.3-1.7,61.215,61.215,0,0,1-12.4-5.2q-6.2-3.4-6.2-4.8a42.334,42.334,0,0,1,1.6-8.2q1.4-5.8,4.6-7.3t16.8-3.1q10.6-1.4,13.7-2.5a4.219,4.219,0,0,0,3.1-4.3q0-2.8-3.7-4.2t-12.5-1.6a56.643,56.643,0,0,0-9.3.5,12.514,12.514,0,0,0-5.1,2.5q-4,3-5.2,2.8t-1.4-4.2a10.024,10.024,0,0,0-5-7.2l-9.4-5.8q-4.4-2.8-6.4-3.1t-3.6,2.1h0Zm160.8,96.2a2.084,2.084,0,0,0-.6,1.6q0.6,1.6,2.8-1,1.6-2,.1-2a2.519,2.519,0,0,0-2.3,1.4h0Zm103-85.4q-0.8,1.2,5.4,7.3t9.6,7.9q4,2,7,.6t3-5.6q0-3.8-1.9-5.3t-9.7-3.7q-12-3.2-13.4-1.2h0Zm-23.2-30q0.6,6.6-1.2,8.2-1.8,1.4-17.8,6.7t-16.6,4.6q-0.6-.7-7.8-11.3-9.4-14.2-11.8-11.6-1,1,1.2,6.8a61.609,61.609,0,0,1,3.2,12q0.6,4.6,0,5.6t-4.4,2.8q-5.4,2.4-8.4,1.6-2.4-.6-3.2,1.4-1.2,4.4,4.8,11.2,3.2,3.8,5,4.6a15.294,15.294,0,0,0,5.8.8q6.6-.2,8.8-2.6,2.6-2,4.3-2t5.7,2.2a8.923,8.923,0,0,0,3.6,1.6,4.852,4.852,0,0,0,2.6-1.2q2-2.2.5-7.4t0.3-7.2q1.8-2.2,6.7-4.4a32.866,32.866,0,0,1,8.3-2.7q3.4-.5,3.8,1.1,0,1.8-4.6,9.2a134.453,134.453,0,0,1-9.8,13.8q-6,7.4-6,11.4t-4.9,7.6q-4.9,3.6-17.7,8.6-14.4,5.6-15.4,5.6a39.487,39.487,0,0,0-6.4,1.6l-5.4,1.4,3.6,3.2q3.6,3,11.4,4.8,9.6,1.8,10.6,2.5t-1.4,3.1q-2.2,2.6-11.6,9.8t-9.2,8.2q0.2,0.8,6.4-3.8,6.6-4.8,7.7-4.8t-2.7,4.8q-3.8,4.8-9.3,10.9a85.267,85.267,0,0,1-9.5,9.3q-10.8,9.6-13.1,11.5t-3.7,1.9q-3.4-.8,6.4-11.8,8.6-9,7.6-9.8-0.8-1-7.6,5.8t-6.8,8.5c0,1.135-.469,1.7-1.4,1.7q-1.6,0-3,4.3t-0.2,5.7q2.8,2.4,8.9-2.1t21.9-20.1q20.2-20.2,25.7-25.3t6.9-5.1q1,1,1,5.3a67.161,67.161,0,0,1-.8,9.7q-0.8,5.4-1.8,6.4-1.2,1.6-11.4,6.2t-10.2,6.4q-0.2,6.4,11,6.8,5.4,0.2,6.5.9t2.3,4.9q2.8,9.2,5.2,9.2,3-.2,7.8-15,4.4-13.8,5.6-15.4t8-5a34.272,34.272,0,0,1,9.3-3.5q3.9-.7,5.1.9,0.6,1.4,2.1,19t0,26.4q-1.5,8.8-1.8,11.3t-3.5,5.5a6.808,6.808,0,0,0-2.2,3.4,7.829,7.829,0,0,0,1,4q1.4,3.8,3,4.2t4.6-2q4-3.4,6.2-19t3.8-51.4q0.6-6.4,1.2-7.2,0.8-.6,7.8-2.7a99.446,99.446,0,0,1,11.8-2.9q2.8-.6,3-1.3t-1.4-3.1q-2.4-3-9.7-5.4t-7.3-3.4q0-1.6,7.6-4.8a56.725,56.725,0,0,1,12.8-4q6-.8,8.4-2.8t2.4-6.2q0-4.8-13-8.6-3.2-1-19,3.2t-25,8.4q-6,2.8-6.6,2.2t1.4-1.9a50.547,50.547,0,0,1,5.3-2.9q3.3-1.6,6.9-3.3a53.775,53.775,0,0,1,6.8-2.7,18.166,18.166,0,0,1,4.4-1,2.751,2.751,0,0,0,3.4-3.4q0-5.8-12.6-8a13.6,13.6,0,0,1-6.6-3.4q-2.8-2.6-2.8-5.2,0-1.4,10.7-8.2a173.111,173.111,0,0,0,16.3-11.4,28.225,28.225,0,0,1,5.5-3.6,5.469,5.469,0,0,1,4.1,0q7.8,1.8,9.5,1.7t2.5-2.5q1.8-5.2-8.4-9.8-5.8-2.6-6.6-3.8t-4.7-1.2q-3.9,0-4.5-2.8-1-4-11.6-6.2l-4.4-1Zm17.6,77a10.058,10.058,0,0,1-3,2.2q-3.2,1.4-3.2-1.4,0-3,6.8-3.4,1.2,0-.6,2.6h0Zm-17.2,7.6q0,4.8-2.4,6.8l-7.8,7q-5.2,4.6-7,4.6-1.4,0-1.4-2.1a7.993,7.993,0,0,1,1.4-4.3q1-2,.2-2.8a0.594,0.594,0,0,0-.4-0.2q-1.6-.4-6,8-2.4,4.2-3.9,4.2c-1,0-1.269-.431-0.8-1.3s0.031-3.231-1.3-7.1a13.886,13.886,0,0,1-.6-1.6q-1.8-4.8-.4-6.3t11.8-5.1a27.705,27.705,0,0,1,3.6-1.4q9.8-3.6,12.4-3.3t2.6,4.9h0Zm178-54.6c-1.07,1.2-1.54,2.035-1.4,2.5s0.93,0.5,2.4.1a4.8,4.8,0,0,1,4.3,1.9,6.783,6.783,0,0,1,1.3,5.3c-0.4,2.935-.74,5.835-1,8.7s-1.54,6.769-3.8,11.7-3.07,7.6-2.4,8q1.4,0.4,9.1-3.8a63.531,63.531,0,0,0,11.3-7.4,16.851,16.851,0,0,0,3.8-4.7,21.113,21.113,0,0,0,1.4-6.7q0.39-7.2-1.8-10.6-3.81-5.8-11.7-7.5t-11.5,2.5h0Zm-48.6-17.8q0,4.4-4.4,12.2a206,206,0,0,1-12.2,18.9q-8.4,11.9-13,16.7a18.852,18.852,0,0,0-5,14.8q0.4,1.6,3.8,3.2,2.19,1.2,3.3.8a9.852,9.852,0,0,0,3.1-2.6q2.4-2.6,10.1-5.9t10.9-3.3q7.59,0-13.8,32.2-4.8,6.8-6.7,8.9a13.567,13.567,0,0,1-3.9,3.1q-3,1-4.6,7.4t0.6,7.8q1.395,0.8,5.4-1.1a24.235,24.235,0,0,0,6.8-4.7q3.2-3,4.8-3a20.006,20.006,0,0,0,5-1q1.995-.4,2.4.3c0.26,0.469.4,1.9,0.4,4.3q0,5.6-2.4,7.8-1.8,1.6-1.8,5.2t1.8,4.6q1.2,0.8,1.2,3.8a9.674,9.674,0,0,0,2.4,6.3q2.4,2.9,4.6,2.7,3-.4,4.6-5.9a88.144,88.144,0,0,1,5.9-14.1,76.139,76.139,0,0,0,5.9-15,80.355,80.355,0,0,1,4.6-14.2q4.2-9,5.8-2.8,0.6,2.8,1.5,2.8t2.8,4.7a8.677,8.677,0,0,0,6.3,5.7,5.891,5.891,0,0,0,4.1-.2,22.3,22.3,0,0,0,4.7-4.4,44.1,44.1,0,0,1,8.6-7.6,6.228,6.228,0,0,1,3.1-1.4,2.3,2.3,0,0,1,1.9,1.2q3.2,3.8,3.2,18.4a103.307,103.307,0,0,1-3.2,26.6,31,31,0,0,1-6,10.7,47.243,47.243,0,0,1-10.6,9.7c-2.4,1.6-3.34,2.8-2.8,3.6s2.2,0.8,5,0q4.395-1.4,8.2-2.2,3.99-.6,10.4-7.1,6.39-6.5,7.6-10.3a27.385,27.385,0,0,1,4-8.8q3.195-5,5-14.4a55.609,55.609,0,0,0,.8-10.2,86.658,86.658,0,0,0-2.2-12q-3-12.2-5-14.4-2.61-3-10.1-4.2a35.036,35.036,0,0,0-13.5.2q-7.005,1.6-8.2,3.6t-10.3,2.6q-9.105.6-9.1-.2,0-1.6,4.9-14.6t6.5-15.4q2.6-4.6,1.2-4.6-1.005,0-4.2,5.8-3.21,5.8-12.8,24.6-2.61,5.8-5.3,10.8t-4.4,7.7c-1.14,1.8-1.77,2.635-1.9,2.5a38.383,38.383,0,0,0-6.8-2q-4.6-1.4-5.5-2.8c-0.6-.931-0.04-2.331,1.7-4.2q6.39-6.4,13.4-19.2,6.99-12.8,5.8-15.8c-0.54-1.465-2.1-2.965-4.7-4.5a22,22,0,0,0-8.1-2.9q-4.8-.8-5.4-2.3t5.8-9.5q11.19-13.8,11.7-22.4,0.495-8.6-9.3-13.8c-2.14-1.065-3.4-1.431-3.8-1.1s-0.6,1.635-.6,3.9h0Zm222.4,28.6q-3.4,2.2-3,4.6t4.2,3.8q4.59,1.6,12,7.1t12.6,5.5q5.19,0,6-1.2t-1-6.4a17.306,17.306,0,0,0-6-8,15.437,15.437,0,0,0-8.6-3.6,14.391,14.391,0,0,1-6.8-1.8c-2.4-1.331-4.14-2-5.2-2s-2.47.669-4.2,2h0Zm-41.8-12.2a14.808,14.808,0,0,0,2.7,4.3q1.7,1.9,1.7,20.1v18.4l-11.2,5.6-17,8.8q-4.605,2-5.2,3.2t-0.2,5.8q0.99,8,5.4,11.5,4.395,3.5,16.6,5.9c3.46,0.669,5.4,1.535,5.8,2.6q0.6,1.8-5.3,8.6t-10.5,9.6q-3.81,2.4-4.6,3.9c-0.54,1-.8,2.969-0.8,5.9q-0.4,7,2.2,8.3t11.8-.7a107.338,107.338,0,0,0,15.2-4.1q5.6-2.1,24-4.1a143.03,143.03,0,0,0,16.2-2.4,43.861,43.861,0,0,0,9.4-3.4q6.6-3.4,8.2-6t0-7.2q-0.6-2-5.9-8.2a123.547,123.547,0,0,0-10.7-11.1q-5.4-4.9-6-4.3-0.81.6,1.2,7.2a7.083,7.083,0,0,1,1,2.6q2.6,7.2,1.8,8.8-0.81,1.6-8.6,4.2a19.238,19.238,0,0,0-2.8.8q-5.205,1.6-10,3-17.8,4.6-16.6,1.2a7.189,7.189,0,0,1,3.7-3.2q2.9-1.4,5.3-8.6a112.641,112.641,0,0,1,6.9-14.3,78.528,78.528,0,0,1,9.3-13.9,46.591,46.591,0,0,0,6.1-10q2.3-5.2,1.7-7.4-1.2-3.6-7-5.7t-10.2-1.1a28.141,28.141,0,0,1-5.9,1.4q-1.3,0-.7-12,0.8-10.6-.8-14.6t-8.6-8c-3.6-2.4-5.94-3.6-7-3.6q-1.41,0-.6,2.2h0Zm22.4,54.4q-4.2,5.8-6,6.2c-0.8.135-.94-0.6-0.4-2.2,0.4-1.731.86-3.8,1.4-6.2a7.508,7.508,0,0,1,3.5-4.9q2.9-1.9,4.5-.5,1.4,1.2-3,7.6h0Zm-21,13.4q-0.21,4.4-1,5.3c-0.54.6-2.07,1.035-4.6,1.3q-5.805.8-8.6,0-1.8-.4-1.5-1.4t7.1-5.9q6.795-4.9,8-5.1,1.2,0,.6,5.8h0Z"/>
  <path id="中文示例" class="cls-2" d="M362.147,711.237q-2.9,1.3-2.9,2.05t-2.2,3.151q-7.1,7.7-7.6,7.7a8.063,8.063,0,0,1-2.1-1.7,4.6,4.6,0,0,0-1.9-1.3,9.429,9.429,0,0,0-2.8,0,14.927,14.927,0,0,0-5.15,2.05,19.571,19.571,0,0,0-4.75,3.95l-1.7,2.2,0.5-4.5q0.4-4.5-.8-6.8-0.4-.7-0.7-1.3-0.8-1.2-1.2-1.1-0.7.1-.9,4.4a38.328,38.328,0,0,1-1.1,8.7,52.346,52.346,0,0,0-1.4,8.4q-1.1,8.7-2.9,13.1a7.045,7.045,0,0,0-.65,2.5,5.244,5.244,0,0,0,1.15,2.2q3.3,4.7,6-.9a11.657,11.657,0,0,0,1.4-4,69.151,69.151,0,0,1,2.15-8.9q2.149-7.8,2.45-9.2a10.749,10.749,0,0,1,2.5-4q2.1-2.4,3-2.4a0.851,0.851,0,0,1,.85.851,18.724,18.724,0,0,1-.15,3.849,17.409,17.409,0,0,1-.9,4.651,25.851,25.851,0,0,1-3,4.649q-3.4,4.6-3.4,5.4a40.258,40.258,0,0,0-.4,5.649,1.312,1.312,0,0,0,1,1.351q1.1,0.4,3.6,1.6,3.9,2.1,6,.5,0.9-.6,2.55-6.35a34.807,34.807,0,0,0,1.65-8.05,9.667,9.667,0,0,1,.95-4.2,4.11,4.11,0,0,1,2.25-2.4q1.6-.7,1.6-1.7,0-.9,1.95-3.75t4.05-5.35q2.1-2.5,2.5-2.1,0.2,0.2-.4,3.5a11.726,11.726,0,0,0,1.85,8.949,13.683,13.683,0,0,0,7.65,5.65q3.8,1.2,4.1,2.1,0.7,2-1.65,5.2a15.65,15.65,0,0,1-5.85,4.9,4.124,4.124,0,0,1-2.15.7,14.989,14.989,0,0,1-2.95-1.2,10.488,10.488,0,0,0-5-1.9h-1.8l0.2,5a24.911,24.911,0,0,1,0,4.549,9.738,9.738,0,0,1-1.1,3.05,11.248,11.248,0,0,0-1.4,3.2q0,0.5,2.85-.149a45.161,45.161,0,0,0,5.9-1.8q3.05-1.148,3.35-1.849,0.3-.9,3.6-1.9a51.62,51.62,0,0,0,7.1-2.8,13.484,13.484,0,0,0,3.65-2.35,23.138,23.138,0,0,0,2.95-4.15q4-6.8,1.85-10.4t-11.95-6q-2.9-.8-3.25-2.1t2.05-8.449q2.4-7.149,2.4-8.651,0-2.1-4.05-2.8a12.716,12.716,0,0,0-7.45.8h0Zm70-1.7q0,4.5-1.4,18.45t-2.1,14.951a5.072,5.072,0,0,0-.4,2.5q0.1,2.9-2.45,9.949a47.83,47.83,0,0,1-5.05,10.65,50.99,50.99,0,0,0-3.3,5.3q-0.6,1.4,2.2-1.5t3.3-2.9q1,0,4.4-4.75t3.9-6.951a18.538,18.538,0,0,1,.95-3.4q0.649-1.7,1.65-9.9l1.9-13.4q1.6-12.2-.8-18.6-1.5-4-2.15-4.151t-0.65,3.75h0Zm35.6-8a4.653,4.653,0,0,0-.95-4.1,6.907,6.907,0,0,0-4.2-2.35q-2.751-.549-4.1-0.951a4.263,4.263,0,0,0-2.85.2c-1,.4-1.5.834-1.5,1.3a0.642,0.642,0,0,1-.75.7,2.326,2.326,0,0,0-1.55.75,42.448,42.448,0,0,1-4.6,3.149,32.906,32.906,0,0,1-3.95,2.1,4.75,4.75,0,0,1-2.75.2,0.729,0.729,0,0,0-.8.7,3.415,3.415,0,0,0,1.5,3.5q1.9,1.7,5.3,1a15.372,15.372,0,0,0,6.8-3.6q2.1-1.7,2.1-1.1a40.086,40.086,0,0,1,.1,6.25q-0.1,5.952-.1,7.05,0,0.1-.45,0a6.092,6.092,0,0,1-1.2-.449q-0.75-.35-1.55-0.75a11.269,11.269,0,0,0-6.5-1.5,2.776,2.776,0,0,0-2.7,3,1.912,1.912,0,0,0,.3,1.349,1.673,1.673,0,0,0,1.4-.15,2.15,2.15,0,0,1,1.45.051,1.238,1.238,0,0,1,.35,1.05,8.9,8.9,0,0,1-.9,3.6q-0.9,2-1.5,2-1.1,0-1.1,1.7a26.492,26.492,0,0,1-2.5,9.9,13.578,13.578,0,0,0-.95,5.3,11.036,11.036,0,0,0,.75,4.9,4.373,4.373,0,0,0,2.4,2.1,6.2,6.2,0,0,1,2.5,2.75,8.177,8.177,0,0,1,1.3,3.949q0,0.8-2.1,4a43.677,43.677,0,0,1-4,5.3,6.166,6.166,0,0,0-1.1,1.5q-0.1,1.3,3.7-1.4,3.8-2.5,5.2-2t5.1,5.9a43.188,43.188,0,0,0,7.55,8.95q3.95,3.45,5.75,2.95,3.6-.9,3-9.8-0.7-9.1-2-12.4-1.3-3.4-1.95-23.249t0.45-24.151a43.956,43.956,0,0,0,1.15-5.75q0.349-2.748.45-3.45h0Zm-13.1,22.7q0.6,0.5,1.35,8.05t0.3,8q-0.45.45-5.15,0.151a24.451,24.451,0,0,1-3.85-.55,1.236,1.236,0,0,1-.75-1.351,8.35,8.35,0,0,1,.75-2.649,34.663,34.663,0,0,1,1.9-3.9q1.149-2.048,2.3-3.95a26.876,26.876,0,0,1,2.05-3q0.9-1.1,1.1-.8h0Zm-5.1,24.2a1.686,1.686,0,0,1-.95,1.3q-0.551.1-.95-0.9-0.7-1.8,1.4-1.8,0.8,0,.5,1.4h0Zm8.1,6.2c0.333-.065.65,0.45,0.95,1.551a20.778,20.778,0,0,1,.45,5.05,9.351,9.351,0,0,1-.1,2.6,1.024,1.024,0,0,1-.9.8q-1.1.3-3.55-1.85t-2.45-3.249q0-.8,2.3-2.8t3.3-2.1h0Zm70.1-53.3q-1.5,0-1.5,1.1a4.554,4.554,0,0,0,.7,2.3q0.6,1,1.4,9.451t0.4,9.649a5.566,5.566,0,0,1-1.8,1.6,24.236,24.236,0,0,1-3.15,1.849c-1.035.5-1.55,0.651-1.55,0.45a15.488,15.488,0,0,1,1-2.9q3.4-8.2-5.4-8.7-3.9-.3-4.3.7a1.719,1.719,0,0,0,.4,1.9q1.7,1.7-1.3,7.5-4.3,8.6-8.5,13a13.944,13.944,0,0,0-2.15,3.151,14.317,14.317,0,0,0-.15,4.449q0.1,3.8.95,4.851t3.35,0.85a3.007,3.007,0,0,0,1.65-.551,3.165,3.165,0,0,0,.85-1.75q0.6-2.2,6.9-8.1a94.7,94.7,0,0,1,8.8-7.6q4.6-3.5,5-2.9a22.23,22.23,0,0,1,.5,4.149,20.257,20.257,0,0,1,.1,4.45,1.281,1.281,0,0,1-1.2.8c-0.4,0-.685.668-0.85,2s-0.018,2.168.45,2.5q1,0.6.3,2.049a23.877,23.877,0,0,1-3.5,4.55q-5.7,6.1-9.2,6.1a5.282,5.282,0,0,0-3.5,1.9,6.555,6.555,0,0,0-1.85,4.15,8.7,8.7,0,0,0,.7,4.6,8.184,8.184,0,0,0,2.7,3.3,4.7,4.7,0,0,0,3.95.75,84.243,84.243,0,0,0,9.3-3.9,48.261,48.261,0,0,1,6.65-2.9,5.661,5.661,0,0,1,3.15.1,6.6,6.6,0,0,0,3.85.049q1.848-.548,1.85-1.75,0-.8,2.5-0.8a5.42,5.42,0,0,0,3.8-1.2,2.7,2.7,0,0,1,1.55-.75,10.477,10.477,0,0,1,2.85.55,11.9,11.9,0,0,0,5.35.351q2.448-.452,2.85-1.951a5.935,5.935,0,0,1,2-3.1q2.6-2.3,1.3-7.3-0.4-1.5-4.5-4.049t-5.3-2.15q-1.3.4-1.35,0.9a5.569,5.569,0,0,0,.85,2.2,8.51,8.51,0,0,1,1.1,4.5,6.21,6.21,0,0,1-.45,2.75,7.823,7.823,0,0,1-1.65,1.951q-3.5,2.9-4.4.7-0.3-1-3.3-2.3l-3-1.2-0.5-5.2q-0.5-5.2.5-7.2a29.644,29.644,0,0,1,3.6-4.95,22.292,22.292,0,0,1,3.7-3.75q1.8-1,6.05-6.05t4.25-6.25a3.571,3.571,0,0,0-.75-1.9,9.946,9.946,0,0,0-1.6-1.85c-0.568-.5-0.985-0.615-1.25-0.349q-0.3.4-3.15-.75a6.639,6.639,0,0,0-4.75-.45l-3.9,1.6a21.923,21.923,0,0,1-3.7,1.1q-1.2.2-1.35-.25a14.364,14.364,0,0,1,.15-3.351,11.855,11.855,0,0,0,.2-3.55,6.84,6.84,0,0,0-1.3-2.549,22.366,22.366,0,0,0-5.55-4.151q-4.152-2.448-5.85-2.449h0Zm16.9,26.5-2.3,3.2-0.2-2.3a4.23,4.23,0,0,1,.8-3,3.167,3.167,0,0,1,2.6-1.1,0.811,0.811,0,0,1,.5.1q0.7,0.1-1.4,3.1h0Zm85.6-26.8a29.271,29.271,0,0,0-4.35-1.1q-0.15.1-8.7,4.449t-11.45,4.75q-2.7.4-2.9,1.4t1.6,3.8a6.9,6.9,0,0,0,3.45,2.851,11.158,11.158,0,0,0,5.15.149q2.8-.6,2.8.051t-4.15,4.949q-4.151,4.3-4.15,4.95a2.7,2.7,0,0,0,1.05,1.651q1.05,1,1.05,4.3v3.2l-7.7,3.3q-7.7,3.2-9.95,3.6t-2.25,1.4q0,1.3,2.05,2.951a10.406,10.406,0,0,0,4.45,2.149,12.36,12.36,0,0,0,3.4.4,11.5,11.5,0,0,0,3.3-1.1q3.2-1.4,3.6-2.1a1.705,1.705,0,0,1,.9-0.8q1,0.1.6,2.8a27.187,27.187,0,0,1-4.95,11.449,29.575,29.575,0,0,1-9.95,8.55q-4.1,2.3-4.1,3.2t1.2,0.55q1.2-.348,6-1.55,5.6-1.2,7.55-2.65t6.55-7.25a23.387,23.387,0,0,0,2.6-5.1,15.891,15.891,0,0,0,1.4-5.2,1.7,1.7,0,0,1,.7-1.5q0.8-.5,5.75,3.9t10.55,10.4q4.9,5.2,6.55,6.55a13.459,13.459,0,0,0,4.55,2.25,44.6,44.6,0,0,0,8.8,1.6,29.318,29.318,0,0,0,4,.1,2.607,2.607,0,0,0,1.8-.9,3.273,3.273,0,0,0,1.05-2.6,2.766,2.766,0,0,0-1.75-2.1l-8-4.1a38.31,38.31,0,0,1-9.2-6.1q-5.5-5.1-14.2-11.7a44.71,44.71,0,0,1-5.45-4.5,2.185,2.185,0,0,1-.55-2.4q0.7-1.8,9.7-4.451t11.3-1.75q1,0.4,2.6-.9a2.869,2.869,0,0,0,1.1-3.05,4.408,4.408,0,0,0-2.5-2.95,29.226,29.226,0,0,0-5.85-.85q-4.95-.448-8.8-0.45t-4.55.4a2.138,2.138,0,0,0,1,1.3q1.2,0.9.95,1.55a4.139,4.139,0,0,1-1.85,1.55q-2.3,1.1-3.35.75t-2.55-2.85q-1.8-3.2-1.3-5.2,0.3-1.6,2.9-4.149t4-2.551q1,0,4.2-3a32.774,32.774,0,0,1,5.8-4.5q4-2.4,3.6-4.5t-5.1-3.3h0Zm75.2,9.9a8.974,8.974,0,0,0,1,2.1q1.1,1.5,1.5,6.8a61.134,61.134,0,0,1-.2,11,33.209,33.209,0,0,1-.8,4.65,1.539,1.539,0,0,1-1.5.951q-2.8.4-3,.849t1.4,2.25q2.6,2.8,2.4,3.75t-4,2.45q-4.5,1.9-4.75,1.6t0.85-2.8a10.33,10.33,0,0,0,.6-5.7,6.306,6.306,0,0,0-2.3-4.3q-1.8-1.5-2.8-1t-2,3.4a36.856,36.856,0,0,1-4.7,8.5q-3.7,5.4-4.9,5.9a4.653,4.653,0,0,0-2.4,2.15q-1.1,1.752-.5,2.551a20.379,20.379,0,0,1,1.8,4q1.2,3.2,2.8,3.7,2,0.5,24.9-8.5a54.418,54.418,0,0,1,7.75-2.75,38.316,38.316,0,0,1,7.05-.65q6.7-.3,8.7-1a2.815,2.815,0,0,1,1.85-.3,8.079,8.079,0,0,1,2.25,1.3q2.3,1.8,3.8,1.7a6.326,6.326,0,0,0,3.5-1.9,5.839,5.839,0,0,0,2-4.1,8.954,8.954,0,0,1,1.2-4.3q4-7.7-6.3-13.8a29.657,29.657,0,0,0-4.6-2.4,0.6,0.6,0,0,0-.55.7,5.587,5.587,0,0,0,.25,1.8,8.868,8.868,0,0,0,.8,2,13.518,13.518,0,0,1,1.05,5.55,11.487,11.487,0,0,1-1.35,5.351q-1.3,2.4-3,2.4a1.507,1.507,0,0,1-1.4-.649,4.206,4.206,0,0,0-2.45-1.151,19.627,19.627,0,0,1-4.15-1.55,11.811,11.811,0,0,0-4.9-1.15h-2.6v-7.7q0-11.8-2.8-17.2a7.052,7.052,0,0,0-1.75-2.25,10.431,10.431,0,0,0-3.15-1.451q-1.6-.5-2.4-0.7c-0.534-.132-0.984-0.25-1.35-0.349a1.063,1.063,0,0,0-.7-0.051,0.34,0.34,0,0,0-.15.3h0Zm122.5,30.3q-5.3,4.1-7,4.1a2.124,2.124,0,0,0-1.45.351,1.747,1.747,0,0,0-.35,1.25q0,1.6-2,2.8-1.9.9-1.95,1.6t1.55,2.4a6.538,6.538,0,0,1,1.7,2.85,38.2,38.2,0,0,1-.3,6.55q-0.5,6.2.6,8.8t5,4.3a23.627,23.627,0,0,0,8.35,2.15,25.443,25.443,0,0,0,8.35-1.25,21.646,21.646,0,0,0,7-3.651q2.2-1.948,1.4-3.85-0.8-2.2-7.8.3a22.346,22.346,0,0,1-7.1,1.3,16.642,16.642,0,0,1-6.4-.9q-2.3-1.1-2.3-2.2,0-1.7,6.2-5.5,5.8-3.5,6.6-3.6,1.5-.1,1.55-2.4t-1.45-2.7a1.077,1.077,0,0,1-.9-1.6q0.8-1.9,2.3-6.4a32.434,32.434,0,0,0,1.5-5.2q0-.9-1.65-1.95a9.458,9.458,0,0,0-3.85-1.349,4.3,4.3,0,0,0-2.85.349,38.8,38.8,0,0,0-4.75,3.45h0Zm4.5,5.6a17.318,17.318,0,0,1-1.5,3.5,6.637,6.637,0,0,1-1.5,2.1,1.915,1.915,0,0,0-.7,1.8,2.215,2.215,0,0,1-.35,1.1,1.614,1.614,0,0,1-.75.75,0.957,0.957,0,0,1-.8-0.049q-0.5-.7.4-3.8a11.369,11.369,0,0,1,2.3-4.6q1.8-2.2,2.6-2.3,0.7-.1.3,1.5h0Zm-22.6-48.6a33.141,33.141,0,0,0-.35,5.25,55.264,55.264,0,0,0,.25,6.55q0.1,1.4-2.15,2.5a13.606,13.606,0,0,0-3.05,1.851q-0.8.75-4.1,1.55-2.9.7-3.5,1.649t0.7,2.45a3.245,3.245,0,0,0,1.8,1.1,17.826,17.826,0,0,0,3.6.1,21.111,21.111,0,0,0,7.2-1.9l3.1-1.5,1.9,2.1a5.36,5.36,0,0,0,3.9,2.1,4.153,4.153,0,0,1,1.65.2,0.6,0.6,0,0,1,.15.8q-0.4.9-7.4,9.7-5.7,7.3-12.45,14.4t-7.95,7.1q-0.8,0-4.4,3.6a30.6,30.6,0,0,0-4.5,5.2,7.666,7.666,0,0,0-.4.9q-0.2,1.1,1.1,1,3.2-.5,8.8-5.7,4.3-3.9,7.5-6.35a66.807,66.807,0,0,0,8.3-8.15l10.8-11.7q1.9-2.2,2.75-3a26.812,26.812,0,0,1,2.1-1.75,11.468,11.468,0,0,1,1.7-1.149,6.456,6.456,0,0,1,1.95-.25,8.816,8.816,0,0,1,2.45.2q0.95,0.252,3.45.65a62.681,62.681,0,0,0,10,1.5,29.233,29.233,0,0,1,4.45.651,1.01,1.01,0,0,1,.4,1.349,1.04,1.04,0,0,0,.55,1.4,26.473,26.473,0,0,0,5.1.5,29.212,29.212,0,0,0,6.6.2q1.7-.3,1.7-1.4,0-1-2.35-2.75a32.131,32.131,0,0,0-5.55-3.25,13.267,13.267,0,0,0-4.55-1.3q-2.25-.2-10.55,0l-11.8.1,0.4-2.2q0.5-2.3,6-7.5l5.5-5.5,4.6,0.4a13.077,13.077,0,0,0,5-.35q1.3-.549.7-2.15-0.5-1.1-4.5-3.2t-5.5-2.1q-1.3,0-2.4-1.9a10.651,10.651,0,0,0-2.8-3.049,3.49,3.49,0,0,0-2.8-.951q-1,.5-0.4,3.6,0.3,2.8-.45,3.9t-3.05,1.1a13.381,13.381,0,0,0-4.55,1.049,21.514,21.514,0,0,0-4.85,2.551,5.145,5.145,0,0,1-2.9,1.3q-1.5,0-3.1-3.1a16.068,16.068,0,0,1-1.8-6.5q-0.3-1.6-.4-2.6-0.7-3.4-1.6.7h0Zm21.6,10.7a17.838,17.838,0,0,1-1,3.8,9.81,9.81,0,0,1-1.6,3.3,2.308,2.308,0,0,0-.8,1.6q0,2.1-4.1.9-3.7-.9-3.95-4t3.25-5.5a8.753,8.753,0,0,1,3.45-1.5,7.653,7.653,0,0,1,3.35-.05,1.511,1.511,0,0,1,1.4,1.451h0Zm60.5,22.9a32.007,32.007,0,0,1-1,4.8,4.27,4.27,0,0,0-.1.8q0,1.8,4.7-.5,2.8-1.5,2.8-3.651t-2.9-3.649q-2.2-1-2.75-.651t-0.75,2.85h0Zm24.1-8a1.386,1.386,0,0,0,.7,1.1q2,1.2-.65,5.649a41.663,41.663,0,0,1-7.95,9.25,40.745,40.745,0,0,1-10.1,7,12.347,12.347,0,0,0-3.3,1.7,2.6,2.6,0,0,0-.6,1.9v2.1l-2.6-.9a7.817,7.817,0,0,0-3-.5q-1.9.1-.5,1.9a3.811,3.811,0,0,1,.45,1.7,22.094,22.094,0,0,1-.45,3.9,63.815,63.815,0,0,1-1.95,7.3,6.7,6.7,0,0,0-.15,4.75,11.108,11.108,0,0,0,2.25,3.6,3.893,3.893,0,0,0,2.45,1.55q0.9,0,2.05-2.149t5.15-11.651a28.607,28.607,0,0,1,3.15-6.1,26.023,26.023,0,0,1,5.15-3.7,20.434,20.434,0,0,1,4.25-2.15,1.576,1.576,0,0,1,1.55,1.05q0.4,1.1-.35,4.25a12.122,12.122,0,0,1-1.85,4.551q-0.8,1,.25,4.5t2.35,4.4a3.966,3.966,0,0,0,3.35.55,49.11,49.11,0,0,0,7.15-2.75q3.9-1.7,10.5-3.949a95.744,95.744,0,0,1,10.4-3.051q2.4-.4,2.85-1.449t-1.05-3.051a6.647,6.647,0,0,0-2.05-1.449,13.587,13.587,0,0,0-3.85-.65q-4.5-.5-5.65.549a6.814,6.814,0,0,1-3.2,1.5,6.748,6.748,0,0,0-2.75,1.05,30.52,30.52,0,0,1-4.5,1.6q-3.6,1.1-3.8.9-0.5-.5.2-2.4,1.4-3.9-3.1-6.7-2.2-1.4-2.2-1.7-0.1-1,14.4-7.8a19.614,19.614,0,0,1,7.75-1.9q3.847-.1,4.55-1,0.8-.9-0.05-2.6a4.911,4.911,0,0,0-2.45-2.4,12.911,12.911,0,0,0-5.7-.7,16.7,16.7,0,0,0-6,1.3q-3,1.5-3.3,1.2t0.7-2.7q1.8-4.2-1.4-6.3a14.466,14.466,0,0,0-5.8-1.6c-0.8,0-1.235.168-1.3,0.5h0Zm-6.4-23.6-2.8,1.7,3-.1q3.2-.2,3.2.7,0,0.7-2.5,1.1-2.9.5-3.4-.3t-2.7,1a6.069,6.069,0,0,1-7.8.5q-1.9-1.3-2.55-1.051c-0.435.168-.65,0.785-0.65,1.85a1.905,1.905,0,0,1-1.05,1.65,26.75,26.75,0,0,1-5.05,1.85,36.488,36.488,0,0,0-3.9,1.4q-4.3,1.8-1.4,1.8a9.374,9.374,0,0,1,3.25,1.149,17.525,17.525,0,0,0,7.2,1.2q4.849,0.051,6.55,1.149a3.777,3.777,0,0,0,3.2.8,1.867,1.867,0,0,0,1.5-2,2.571,2.571,0,0,1,1.25-2.1,4.917,4.917,0,0,1,2.95-.9,0.916,0.916,0,0,1,.4.1q0.9,0.9-1.6,4.2a8.777,8.777,0,0,0-1.7,2.649,13.739,13.739,0,0,1-2.1,3.351l-3.1,4.5a3.407,3.407,0,0,0-.8,1.6q0,0.9,3.8-.9,2.8-1.5,9.55-7.95t8.05-8.951l1.1-2.1h9.9q10,0,11.3-.7,2.2-1.1.95-3.7a4.74,4.74,0,0,0-4.25-2.8,27.228,27.228,0,0,1-4.8-.8,7.18,7.18,0,0,0-4.8.2,7.972,7.972,0,0,1-4.15.9,5.4,5.4,0,0,1-3.55-1.3q-1.5-1.6-5.7-1.451a13.831,13.831,0,0,0-6.8,1.75h0Zm90.8,41.3a53.956,53.956,0,0,1-4.448,9.5,27.177,27.177,0,0,1-5.35,7.1,9.027,9.027,0,0,0-2.45,2.551,8.655,8.655,0,0,0-.45,3.349,10.607,10.607,0,0,0,.9,4.651q0.9,1.851,2.3,1.849,1.5,0,6.85-2.8a35.075,35.075,0,0,0,7.248-4.6,10.977,10.977,0,0,1,2.85-2.1,13.1,13.1,0,0,1,3.85-.7q4.2-.3,4.8.5,1.695,1.6,5.6.351a10.539,10.539,0,0,0,5.7-3.851,7.788,7.788,0,0,0,.95-4.35c-0.03-1.832-.41-3.082-1.15-3.75a15.912,15.912,0,0,0-4.55-2.3c-2.17-.8-3.58-1.066-4.25-0.8a0.657,0.657,0,0,0-.55.7,7.8,7.8,0,0,0,.95,2.1,6.506,6.506,0,0,1,.9,3.25,4.957,4.957,0,0,1-1.4,2.75,1.863,1.863,0,0,1-1.1.8,2.027,2.027,0,0,1-1.1-.6,10.7,10.7,0,0,0-3.5-1.65,14.359,14.359,0,0,0-4.2-.75h-2l0.5-3.5a11.5,11.5,0,0,0,.05-3.549,16.794,16.794,0,0,0-1.55-3.951q-1.89-3.9-3.05-3.95c-0.76-.032-1.55,1.218-2.35,3.75h0Zm25.8-22q-1.995,1.5-18.6,6.5a101.274,101.274,0,0,0-13.048,4.851,97.454,97.454,0,0,1-14.35,5.05q-8.5,2.6-10.9,3.45t-2.7,1.55q-0.2.8,1.25,1.4t6.95,2.3l5.2,1.5,4.7-1.5a71.818,71.818,0,0,0,13.3-6.8,46.328,46.328,0,0,1,8.8-4.649,55.064,55.064,0,0,1,10.1-2.05,81.2,81.2,0,0,0,10.85-1.651,49.579,49.579,0,0,1,7.1-1.349c3.37-.466,5.28-0.933,5.75-1.4s0.27-1.6-.6-3.4a5.949,5.949,0,0,0-1.6-2.35,8,8,0,0,0-2.8-.75q-3.09-.4-5.6-0.95a5.185,5.185,0,0,0-3.8.25h0Zm-12-15.1c-1-.133-2.07-0.316-3.2-0.551s-3.43.535-6.9,2.3a64.352,64.352,0,0,1-9.8,4.1q-4.6,1.452-4.6,2.151,0,0.6,2.45,2a22.365,22.365,0,0,0,4.85,2.1,12.357,12.357,0,0,0,5.348.05,9.543,9.543,0,0,0,4.55-1.75,15.6,15.6,0,0,1,4.35-2.2,47.021,47.021,0,0,1,6.05-2q2.8-.5,1.8-3-1.2-2.6-4.9-3.2h0Zm54.4,29.5a26.615,26.615,0,0,1-2.2,3.9,1.305,1.305,0,0,1-1.2.75,10.563,10.563,0,0,1-2.4-2.05c-1.73-1.665-2.82-2.5-3.25-2.5s-0.58,1.235-.45,3.7q0.195,3.1-1.8,13.551t-2.8,10.749c-0.67.2-.88,0.9-0.65,2.1a8.726,8.726,0,0,0,1.85,3.7q1.8,2.4,2.7,2.15t0.9,0.75c0,0.668.17,1,.5,1,1.47-.065,2.33-1.7,2.6-4.9,0.2-2.4.53-3.832,1-4.3s0.7-1.632.7-3.5a17.933,17.933,0,0,1,.6-4.9,68.378,68.378,0,0,0,2.4-11.1,39.859,39.859,0,0,1,1.75-6.7q1.455-4.4,1.05-4.6c-0.13-.132-0.57.6-1.3,2.2h0Zm-1.2-24.5a13.385,13.385,0,0,1-1.1,4.849c-0.73,1.835-.97,2.851-0.7,3.05,0.27,0.335,1.15-.1,2.65-1.3a8.108,8.108,0,0,0,2.55-2.7,5.817,5.817,0,0,0-.75-3.149c-0.63-1.366-1.22-2.151-1.75-2.35a0.453,0.453,0,0,0-.65.2,2.79,2.79,0,0,0-.25,1.4h0Zm21.3-7.1a18.774,18.774,0,0,1-.75,4.449,9.877,9.877,0,0,1-1.4,3.551,2.423,2.423,0,0,0-.65,1.7q0,0.7-2.45,4.351t-3.15,3.849a5.382,5.382,0,0,0-1.65,1.451,3.045,3.045,0,0,0-.85,1.649,4.133,4.133,0,0,0,.9,2.2,1.216,1.216,0,0,0,1.5.6,35.281,35.281,0,0,0,4.8-2.8q5.4-3.3,8.8-5.3l3.2-1.9-0.5,1.7a45.794,45.794,0,0,1-2.7,7.2,16.406,16.406,0,0,1-2.6,4.4,5.6,5.6,0,0,1-3.8,1.3,4.072,4.072,0,0,0-1.75.2,1.621,1.621,0,0,0-.05,1.3,5.741,5.741,0,0,0,1.5,2.6,2.436,2.436,0,0,1,.7,2.25,17.5,17.5,0,0,1-2.2,3.851,10.048,10.048,0,0,1-2.5,2.7,8.164,8.164,0,0,1-2.8.9c-1.93.268-3.27,0.168-4-.3a7.513,7.513,0,0,0-2.7-.5,1.924,1.924,0,0,0-1.8.7,9.906,9.906,0,0,0-.9,3.1,3.621,3.621,0,0,0-.15,2.1,4.661,4.661,0,0,0,1.35,1.5,5.6,5.6,0,0,0,3.35,1.4,2.117,2.117,0,0,1,1.95.7c0.33,0.535-.15,1.718-1.45,3.551s-2.42,2.917-3.35,3.25q-2.9,1.1-1.4,5.1a2.889,2.889,0,0,0,.85,1.4,1.53,1.53,0,0,0,1.25.1,56.57,56.57,0,0,1,8.7-1.2l7.4-.8,2.5,2.5q10.695,10.1,17.1,4.5a8.044,8.044,0,0,1,2.5-1.6,7.733,7.733,0,0,1,2.7.1,34.206,34.206,0,0,0,6.8.551c2.4-.033,3.67-0.283,3.8-0.75a1.293,1.293,0,0,0-.75-1.051,11.525,11.525,0,0,0-2.15-1.25c-2-.932-3.07-1.565-3.2-1.9a6.441,6.441,0,0,0-2.3-1.7c-1.67-.932-2.4-1.982-2.2-3.15s1.63-4.782,4.3-10.849q2.3-5,3.5-5.15t6.1-.151c2.8,0,4.48-.132,5.05-0.4s0.68-.9.35-1.9q-0.3-1-4.45-2.951t-5.95-1.95a1.3,1.3,0,0,1-1.2-.95,20.215,20.215,0,0,1-.9-3.649,46.843,46.843,0,0,0-1.65-7.6,4.444,4.444,0,0,0-2.55-2,15.177,15.177,0,0,0-6.05-.9,21.038,21.038,0,0,0-6.95,1.4q-4.5,1.7-5.3.551t1.6-5.851a20.806,20.806,0,0,1,5.8-6.8q4-3.2,3.7-4-0.2-.9-2.85-1.4c-1.77-.333-2.98-0.266-3.65.2-0.87.535-3.08,1.75-6.65,3.651a69.5,69.5,0,0,0-6.25,3.549,1.759,1.759,0,0,1-1.2.4c-0.47-.133-0.23-0.7.7-1.7q1.4-1.3,2.7-5.3c0.73-2.2.97-3.782,0.7-4.75s-1.13-1.515-2.6-1.65a1.881,1.881,0,0,0-1.45.1,2.121,2.121,0,0,0-.35,1.5h0Zm24,24.9q0.495,0,.6,4.151a19.207,19.207,0,0,1-.5,5.949,1.578,1.578,0,0,1-.75,1.25,5.618,5.618,0,0,1-2.05.25,4.669,4.669,0,0,1-2.35-.35,2.626,2.626,0,0,1-.65-1.65,3.957,3.957,0,0,0-1-1.9,8.588,8.588,0,0,0-2.6-1.5,9.024,9.024,0,0,1-2.5-1.351,0.82,0.82,0,0,1,.2-1.149,12.291,12.291,0,0,1,4.9-3.05q3.6-1.449,5.2-.95a4.254,4.254,0,0,0,1.5.3h0Zm-14.8,8.6c0.67,0.268,1,1.168,1,2.7a3.158,3.158,0,0,1-.4,1.95,5.963,5.963,0,0,1-2.2,1.05,24.109,24.109,0,0,1-2.55.6,7.062,7.062,0,0,1-1.7.149c-0.37-.032-0.55-0.149-0.55-0.349a17.159,17.159,0,0,1,1.7-3.4,7.976,7.976,0,0,1,2.25-2.75,3.263,3.263,0,0,1,2.45.05h0Zm12.1,12.2q-0.105,1.8-2.4,7.1a30.489,30.489,0,0,1-2.05,4.25,2.385,2.385,0,0,1-1.65,1.25,1.623,1.623,0,0,1-.5.1q-2.1-.1.2-5.5a23.833,23.833,0,0,0,1.9-5.7c0.07-.266.13-0.566,0.2-0.9q1.005-2.6,3-2.7c1.07-.133,1.5.567,1.3,2.1h0Zm-13.5,2.7a28.014,28.014,0,0,1-1.95,4.4c-0.83,1.535-1.45,2.3-1.85,2.3q-0.795,0-2.1-1.7l-1.2-1.5v1.5a1.343,1.343,0,0,1-1.25,1.6,4.533,4.533,0,0,1-2.95-1.2,3,3,0,0,1-1-2.5,3.3,3.3,0,0,1,1.9-2.15,8.083,8.083,0,0,1,4-.949,6.621,6.621,0,0,0,3-.651,5.786,5.786,0,0,1,2.6-.65,0.717,0.717,0,0,1,.85.25,2.347,2.347,0,0,1-.05,1.25h0Zm56.7-21.2a81.593,81.593,0,0,1,.45,10.6q-0.045,6.9-.65,13.1a30.717,30.717,0,0,0-.05,5.9,20.189,20.189,0,0,0,1.85,4.6,39.8,39.8,0,0,0,3.1,5.3,2.939,2.939,0,0,0,2.4,1.1h1.6v-12.3a137.227,137.227,0,0,1,.75-17.4,27.129,27.129,0,0,0,.45-6.9q-0.6-2-4.05-4.95t-5.45-2.949a0.728,0.728,0,0,0-.8.7,12.853,12.853,0,0,0,.4,3.2h0Zm26.9-2.5c-1.87,1.268-3.05,1.9-3.55,1.9a3.22,3.22,0,0,0-1.95,1.4,3.326,3.326,0,0,1-2.45,1.4,1.178,1.178,0,0,0-1.25,1.4c0,0.934.57,1.4,1.7,1.4,0.93,0,1.45.168,1.55,0.5a14.784,14.784,0,0,1-.15,3.4,74.825,74.825,0,0,0-.75,11.6q0.045,6.3.75,7.8c0.67,1.335,1.45,2.05,2.35,2.15s2.65-.35,5.25-1.35q4.695-1.7,6.9-2.4a4.523,4.523,0,0,0,3-3.75q0.6-2.947.3-12.65-0.195-8.8-.85-11.4a3.758,3.758,0,0,0-2.75-3.1,8.911,8.911,0,0,0-8.1,1.7h0Zm5.4,3.8a13.215,13.215,0,0,1,.4,4.1,7.182,7.182,0,0,1-.25,2.549,1.619,1.619,0,0,1-1.45.451,10.468,10.468,0,0,0-3.6.7c-1.07.4-1.67,0.517-1.8,0.349a12.247,12.247,0,0,1-.7-2.65,4.245,4.245,0,0,1,.2-2.449,10.719,10.719,0,0,1,2.7-2.151,21.47,21.47,0,0,1,3.4-1.849c0.4-.1.77,0.217,1.1,0.949h0Zm0.7,13a3.125,3.125,0,0,1-.35,2.25c-0.43.968-.82,1.385-1.15,1.25-1.33-.132-1.6.268-0.8,1.2a1.1,1.1,0,0,1,.1,1.65,7.16,7.16,0,0,1-3.1,1.149l-2.7.4,0.3-3.6a9.317,9.317,0,0,1,.55-3.15,5.324,5.324,0,0,1,2.45-1.25,16.793,16.793,0,0,1,3.5-.8,1.292,1.292,0,0,1,1.2.9h0Zm-15.1-38a20.3,20.3,0,0,1,.95,3.5,4.286,4.286,0,0,0,.85,2.3c1.33,0.735.77,1.635-1.7,2.7q-4.9,2.1-8.3-.1a5.208,5.208,0,0,0-1.7-.8q-1.1,0,.4,3.5,1.9,4.5,3.75,5.349t4.25-1.55q4.695-4.8,7.9-5.4a3.014,3.014,0,0,0,2.25-1.35c0.3-.632.88-1.782,1.75-3.45l1.2-2.3-1.9.5a3.217,3.217,0,0,1-1.95,0,7.376,7.376,0,0,1-2.25-1.6c-1.6-1.4-2.58-2.1-2.95-2.1a7.317,7.317,0,0,1-1.85-.4c-0.47-.2-0.75-0.215-0.85-0.049a2.049,2.049,0,0,0,.15,1.25h0Zm30.7-6.4a1.207,1.207,0,0,0-.9,1.25c0,0.634-.73,1.784-2.2,3.449a9.224,9.224,0,0,1-2.2,1.9,4.271,4.271,0,0,1-2.2.3c-1.53-.266-2.3-0.166-2.3.3a6.636,6.636,0,0,0,1.65,3.4,8.13,8.13,0,0,0,2.85,2.7q3.105,1.4,4.6-1.9,1.3-2.9,2.7-3,0.3,0,.8,7.35a94.186,94.186,0,0,0,1.1,10.4q0.6,3.053.2,19.451l-0.4,16.4-1.9,1c-1.2.667-1.82,1.184-1.85,1.55s0.48,0.884,1.55,1.549,2.33,2.335,3.8,5a14.887,14.887,0,0,0,3.35,4.25,2.42,2.42,0,0,0,2.85.05c0.8-.465,1.22-2.032,1.25-4.7s-0.32-11.9-1.05-27.7q-0.3-8.2.5-11.5a12.709,12.709,0,0,0,.55-3.8,40.1,40.1,0,0,0-.75-5.5,61.137,61.137,0,0,1-1.1-18.3,2.819,2.819,0,0,0-.3-1.851,6.112,6.112,0,0,0-1.9-1.35,14.242,14.242,0,0,0-4.45-1.1,8.2,8.2,0,0,0-4.25.4h0Zm-852.193,122.4q0,0.2-.3,11.5l-0.1,11.4-2.7,3.3-4.7,5.6-2,2.4,4.3-2.2q4.3-2.1,4.6-1.8a5.224,5.224,0,0,1,.65,2.45q0.249,2.05-.25,2.45-0.4.8-5.6,3.9t-10.9,6.1a42.882,42.882,0,0,1-4.7,2.2q-1.2.4-1.6-.2-0.5-.9-2.3-0.1a4.474,4.474,0,0,0-2.3,1.8q-0.3,1,.8,3.45t2.1,2.75q1.4,0.6,8.65-2.85t10.15-5.95a10.711,10.711,0,0,1,3.4-2.2q2.1-.9,2.4-0.4,0.5,0.8.45,8t-0.65,8.6q-0.8,2.2.45,6t3.15,4.5a3.072,3.072,0,0,0,3.4-1.05q1.5-1.65,4.6-7.75a109.97,109.97,0,0,1,5.5-9.7q1.9-2.8,3.6-3.4a2.961,2.961,0,0,1,1.95-.25,6.973,6.973,0,0,1,1.75,1.65,23.1,23.1,0,0,1,2.2,3.3,10.952,10.952,0,0,1-.15,4.95,9.911,9.911,0,0,1-1.85,4.75q-1.5,1.5-1.4,1.9,0.1,1.1,5.6-.7a13.1,13.1,0,0,0,6.25-3.55,4.8,4.8,0,0,0,1.05-4.95q-0.4-1.3-3.65-4.35t-4.25-3.05q-0.8,0-3.6-2.5a6.43,6.43,0,0,0-2.8-1.9q-0.9-.1-2.6,1.4-7.1,6.1-9.35,7.8t-2.65,1.3q-0.5-.5-0.5-8v-7.3l2.2-1.9q5.2-4.5,17.2-6.4,6.3-1.1,8.1-2.8a4.016,4.016,0,0,0,1.15-1.5,2.939,2.939,0,0,0-.75-1.5q-1.1-1.2-6.8-1.9a28.787,28.787,0,0,0-4.95-.5,2.883,2.883,0,0,0-1.85,1.2q-0.8,1.1-7.6,4.55t-7.4,3.05q-0.6-.3-0.6-3.1a5.682,5.682,0,0,1,.8-3.2,42.658,42.658,0,0,1,4.3-4.7,53.682,53.682,0,0,0,6.7-7.8q2.7-3.9,2.5-5.3-0.3-1-3.25-3.3t-4.25-2.3a1.093,1.093,0,0,0-1.05.45,4.42,4.42,0,0,0-.25,1.85,5.109,5.109,0,0,1-.8,2.9q-1.1,1.7-2,.2a2.918,2.918,0,0,1-.6-1.3q0-.5-1.75-2.2a37.1,37.1,0,0,0-3.4-2.95q-1.65-1.25-1.75-.85h0Zm64.7,17.8a1.063,1.063,0,0,0-.95.6q-0.351.6,0.35,2.5,1.4,3.7-.4,12.6a73.337,73.337,0,0,0-1.2,8,50.754,50.754,0,0,1-2.45,9.35,30.994,30.994,0,0,1-3.85,7.95q-1.8,2.4-1.8,3.25a2.195,2.195,0,0,1-1,1.65,1.925,1.925,0,0,0-.7,1.1q0.1,1.2,2,.1,10-5.1,11.3-18.7a54.553,54.553,0,0,1,2.1-10.9,41.318,41.318,0,0,0,1.9-7.5,7.629,7.629,0,0,0-.9-4.3,19.974,19.974,0,0,0-2.3-3.85q-1.4-1.85-2.1-1.85h0Zm30.4-22.6a51.406,51.406,0,0,1-7.8,6.1,96.921,96.921,0,0,1-8.8,5.6,35.184,35.184,0,0,0-4.1,1.9l-1.6.9,2.2,1.5q3.2,2.2,4.55,2.15t3.75-2.25q7.8-7,9.7-7a3.829,3.829,0,0,0,2.2-1.05,3.869,3.869,0,0,1,1.9-1.05q0.5,0.6.5,4a59.147,59.147,0,0,1-.55,7.6q-0.551,4.2-1.15,4.8-0.3.3-3.8-.9-7.4-2.5-8.9.3a1.546,1.546,0,0,0-.3,1.3,2.772,2.772,0,0,0,1.3.9q2.9,1.3.6,4.6l-1,1.6,3.3-.5q3.3-.4,5.2-0.8,1.3-.3,1.55.15a10.332,10.332,0,0,1,.25,3.15q-0.1,4.8-.8,5.95t-3.5,1.25a15.5,15.5,0,0,0-7.1,2.05,46.977,46.977,0,0,1-7.7,3.25,29.6,29.6,0,0,0-5,1.9,1.96,1.96,0,0,0-1,.7,3.141,3.141,0,0,0,1.1,1q1.5,1.2,6.35.85t5.25,0.25q0.7,1.1-5,6.9a13.569,13.569,0,0,0-2.7,3.45,10.791,10.791,0,0,0-.3,3.75,17.443,17.443,0,0,0,.45,3.1,1.183,1.183,0,0,0,1.05.9q1.2,0.3,5.05-.85a34.58,34.58,0,0,0,6.45-2.55,10.044,10.044,0,0,1,4.1-1.3,1.044,1.044,0,0,1,1.15.5,7.622,7.622,0,0,1-.05,2.3q-0.2,1.9-3,6.65a27.088,27.088,0,0,1-4.9,6.55,3.553,3.553,0,0,0-1.4,2c0,0.332.433,0.4,1.3,0.2a45.448,45.448,0,0,0,7.65-4.2q5.749-3.6,6.65-4.8a3.948,3.948,0,0,1,1.45-1.2,2.549,2.549,0,0,1,1.45.4,11.363,11.363,0,0,1,2,1.3q0.8,0.8,6.6.7a12.049,12.049,0,0,1,4.95.55q1.35,0.651,5.85.1t4.85,0q0.35,0.55,3.6-.85a16.887,16.887,0,0,0,4.75-2.8,4.223,4.223,0,0,0,1.4-2.2,6.06,6.06,0,0,0-1.1-3,5.641,5.641,0,0,0-4.9-3.2,16.315,16.315,0,0,1-4.85-1.15,35.083,35.083,0,0,1-5.85-2.65,16.1,16.1,0,0,0-4.7-1.8q-1.8-.2.4,1.9a19.907,19.907,0,0,0,5.6,3.9q1.9,0.8,1.7,2.4a1.9,1.9,0,0,1-.95,1.4,10.369,10.369,0,0,1-3.35.6,26.011,26.011,0,0,1-7.7-.15,17.65,17.65,0,0,1-6.3-2.05,7.666,7.666,0,0,1-3.3-4.2,21.65,21.65,0,0,1-.5-8q0.4-6.4,1.15-12.75a42.88,42.88,0,0,1,1.35-7.85,39.716,39.716,0,0,0,1.35-6.55q0.75-4.95,1.05-9.15a21.933,21.933,0,0,1,.9-5.9,17.778,17.778,0,0,0,.95-4.65,12.117,12.117,0,0,0,0-4.25,4.189,4.189,0,0,0-2.2-1.95,14.484,14.484,0,0,0-4.25-1.35,4.531,4.531,0,0,0-2.35,0,8.36,8.36,0,0,0-2.15,1.6h0Zm-3.5,53.6a5.313,5.313,0,0,1-.7,2.1,3.548,3.548,0,0,1-2,.8,7.377,7.377,0,0,1-2.7.1q-0.3-.3,2.25-3.05t2.85-2.55q0.5,0.3.3,2.6h0Zm61.9-32.2a3.734,3.734,0,0,0,1.2,1.9,12.679,12.679,0,0,1,3.15,4.85q0.548,2.05.55,9.95,0,11-1.7,16.9a22.362,22.362,0,0,1-5.9,10q-2.8,2.7-2.8,3.2a0.672,0.672,0,0,0,.45.1,5.552,5.552,0,0,0,1.05-.15,7.661,7.661,0,0,0,1.4-.45q4.5-1.5,8.6-6.9a25.78,25.78,0,0,0,5.1-10.7q0.5-3.1.3-13.4t-0.8-11.9q-0.3-.8-3-1.95a23.182,23.182,0,0,0-4.95-1.55q-2.25-.4-2.65.1h0Zm22.3-7.8a38.417,38.417,0,0,1-4.2,3.5q-2.7,2-4.3,3.4l-1.5,1.4,1.5,1.5q2.9,3,7.4-.1a11.451,11.451,0,0,1,4.1-1.9,1.75,1.75,0,0,1,1.5.25,7.324,7.324,0,0,1,.2,2.35,54.181,54.181,0,0,1-.9,7.15,91.256,91.256,0,0,0-.8,14.45,80.058,80.058,0,0,0,.3,9.1,15.771,15.771,0,0,0,1.7,4.6,11.793,11.793,0,0,0,2.3,3.4,19.742,19.742,0,0,0,4.1,2.5l4.5,2.3,9.3-.4a72.772,72.772,0,0,0,8.5-.8,12.929,12.929,0,0,0,4.1-1.9,14.5,14.5,0,0,0,4.8-4.6,7.821,7.821,0,0,0,1.4-4.4,21.071,21.071,0,0,0-1.5-6.5q-1.1-3.1-1.9-6a11.007,11.007,0,0,0-2.2-4q-2.3-3-2.7-1.5a18.476,18.476,0,0,0-.7,4.5q-0.7,7.1-5.45,10.85t-13.15,3.75a20.964,20.964,0,0,1-4.6-.3,2.685,2.685,0,0,1-1.6-1.5q-1.3-1.9-1.5-10.35t0.9-11.45q1-2.7,1.95-5.6a15.477,15.477,0,0,1,2.3-4.65,6.634,6.634,0,0,0,1.15-4.65,6.153,6.153,0,0,0-1.25-3.8,7.218,7.218,0,0,0-3.95-1.6q-7.5-1.4-9.8,1h0Zm114.3-3.4q-4.8,1.1-24.3,9-14.6,5.9-19.05,6.55t-4.85,1.05a0.407,0.407,0,0,0-.1.3q0,0.8,6.4,3.3,5.4,2.2,8,2.1t6.5-2.6a6.874,6.874,0,0,1,3.6-1.4,3.175,3.175,0,0,1,2.45,1.5,5.046,5.046,0,0,1,1.15,3.1q0,1.4-3.35,8.15t-4.55,7.75a2.655,2.655,0,0,0-1,2q0,2.8-6.25,10.3t-8.45,7.5q-1,0-1,.7t1.1,0.7q1.3,0,6.3-2.55a26.415,26.415,0,0,0,6.7-4.35q2.2-1.9,2.9-1.9t1.45,4.2q0.75,4.2,1.55,4.7,1.3,0.8,11.8.6,6.6-.1,10.25-2.25a15.408,15.408,0,0,0,5.95-7.15q1.3-2.9,1.75-10.5t-0.55-9.5q-0.9-1.7-5.35-3.95t-6.95-2.25a4.441,4.441,0,0,1-2.15-.35,2.444,2.444,0,0,1-.75-1.75,7.447,7.447,0,0,0-1.4-2.75,22.173,22.173,0,0,0-3.4-3.15q-2.1-1.3-1.7-2.35t7.8-4.05a45.894,45.894,0,0,1,7.6-2.55,70.807,70.807,0,0,1,8.2-.75q6.5-.3,8.25-1a1.8,1.8,0,0,0,1.25-2.4,4.01,4.01,0,0,1-.4-1.6q0-.6-4.6-1.95a22.77,22.77,0,0,0-6.3-1.25,25.914,25.914,0,0,0-4.5.8h0Zm-4,38.5a18.277,18.277,0,0,1-2.85,7.95,25.5,25.5,0,0,1-6.95,6.55q-3.6,2.4-5.35,1.9t-3.55-4.4q-1.2-3-.6-4.75t4.6-5.85l4.8-5.2h10.3Zm83.9-45.2q-2.8,1.1-11.1,5.1-6.6,3.2-9.6,4.35a14.317,14.317,0,0,1-4.8,1.15,1.964,1.964,0,0,0-1.3.25,1.829,1.829,0,0,0,0,1.25q0.9,3.2,5.5,3.2a8.1,8.1,0,0,0,5.1-1.7q1.9-1.7,2.7-1.15t0.6,3.55a6.148,6.148,0,0,1-.6,2.85,9.229,9.229,0,0,1-2.7,2.05q-6.4,3.9-7.2,1.6a3.274,3.274,0,0,0-2.2-2.2,23.73,23.73,0,0,1-4.1-2.3l-2.3-1.4v3.1a13.977,13.977,0,0,0,2.4,7.05,46.637,46.637,0,0,1,2.85,5.1,2.728,2.728,0,0,0,2.1,1.55,2.47,2.47,0,0,1,1.95,2.2,2.226,2.226,0,0,0,1.1,1.4,11.322,11.322,0,0,0,3.4.3q3.1,0,3.7.45t-0.1,2.75a2.514,2.514,0,0,1-1.7,1.75,74.351,74.351,0,0,1-7.3,2.25q-0.9.3-.4,1.9,0.6,2.2,1.65,2.7a9.552,9.552,0,0,0,4.25.2q3.5-.5,3.9.2,0.8,1-5.6,7.5a33.407,33.407,0,0,1-6.55,5.15,14.486,14.486,0,0,1-6.05,2.25q-3.3.4-3.8,1.15t-0.15,3.8a8.937,8.937,0,0,0,1.05,3.95q1.7,1.9,5.4,0a16.1,16.1,0,0,1,3.5-1.3q1.7-.4,7.35-4.2t8.95-4.7q1.8-.7,9.95-1.3t17.15-.7a15.42,15.42,0,0,1,2.8.5,4.44,4.44,0,0,0,3.05-.5,2.322,2.322,0,0,0,1.45-2q0-.8-4.5-3.4t-5.9-2.8a13.735,13.735,0,0,1-4.3-.9,8.265,8.265,0,0,0-2.05-.6q-0.45,0-.45.6a2.1,2.1,0,0,0,1.4,1.65q1.4,0.75,1.05,1.35t-7.35,1.5q-5.7.7-6.9,0.3t-1.2-3.2q0-2.8,6.5-6.9a26.3,26.3,0,0,0,5-4.15q2.2-2.349,1.7-3.45-0.4-1.2-3.2-1.85a11.839,11.839,0,0,0-5.4-.05,12.743,12.743,0,0,1-3.55.55q-0.45-.15-0.25-1.65a2.224,2.224,0,0,1,.75-1.55,6.764,6.764,0,0,1,2.15-1.05q3.5-1.1,7.45-6.4a30.014,30.014,0,0,0,5.25-10.4,36.656,36.656,0,0,1,1.7-5.2,14.7,14.7,0,0,0,1.1-7.3,2.571,2.571,0,0,0-.7-1.9,10.811,10.811,0,0,0-3-1.7,10.253,10.253,0,0,0-9.6-.6h0Zm5.7,4.8q1.4,1.7-1.3,8.3a7.7,7.7,0,0,1-1.4,2.35,2.275,2.275,0,0,1-1.6.55q-4.5,0-6.2-3.2a6.312,6.312,0,0,0-2.8-2.8q-1.6-.8-1.6-1.45t1.6-1.85a19.97,19.97,0,0,1,7.6-2.5q4.7-.7,5.7.6h0Zm-7.3,18.1a9.746,9.746,0,0,1-1.45,2.15,16.937,16.937,0,0,1-1.55,1.55q-0.7.6-.9,0.3-0.3-.3.4-3.2a5.433,5.433,0,0,1,.85-2.35,2.7,2.7,0,0,1,1.85-.45h2Zm-12.1,6a4.171,4.171,0,0,1-.15,2.15q-0.351.951-1.65-.35a2.636,2.636,0,0,1-1.05-1.2,1.885,1.885,0,0,1,.75-1.2,2.147,2.147,0,0,1,1.45-.9q0.45,0.1.65,1.5h0Zm134.9,23a5.782,5.782,0,0,1-3.6.35q-2.3-.35-3.1.75-1.3,1.5,1,1.8a8.831,8.831,0,0,1,3.1,1.95,20.821,20.821,0,0,0,6.6,3.25,17.106,17.106,0,0,1,5,2.25,40.329,40.329,0,0,1,4.7,5.45q2.8,3.7,4.45,4t2.85-2.6l1.3-2.6-2.5-4.5a45.74,45.74,0,0,0-3.9-5.7,6.577,6.577,0,0,0-3.2-2.1,9.8,9.8,0,0,1-3.6-1.7,7.754,7.754,0,0,0-4.5-1.35,8.625,8.625,0,0,0-4.6.75h0Zm-43.8-32.5q-0.5,3.8-4.45,12.1t-6.15,10.1a8.408,8.408,0,0,0-1.95,2.1,5.426,5.426,0,0,0,.45,2.8,24.813,24.813,0,0,1,.9,4.3q0.1,1.4,1.9,1.6a2.291,2.291,0,0,0,1.8-.6,17.038,17.038,0,0,0,2.3-2.9,4.223,4.223,0,0,0,.8-1.1q3.3-4.5,3.3-1.9a0.93,0.93,0,0,0,1,1.1q1,0,1.4,1.9a12.281,12.281,0,0,0,1.5,3.7,4.218,4.218,0,0,0,1.9,1.9,2.817,2.817,0,0,0,2.55-1.05,2.887,2.887,0,0,0,.85-2.65q-0.4-1.5,2.65-8a119.5,119.5,0,0,0,5.2-12.95q2.149-6.45,2.9-7.3t0.45-1.25a1.04,1.04,0,0,0-.65.55q-0.55.651-1.3,1.75t-1.65,2.6q-3.2,5.1-3.9,5.5a5.287,5.287,0,0,1-2.75.65,3.432,3.432,0,0,1-2.45-.55,2.928,2.928,0,0,0-2.5-.4q-1.7.3-1.9-.05t0.6-3.45a16.312,16.312,0,0,0,.75-6.7q-0.351-3.2-1.65-4.1-1-.7-1.3-0.35a7.6,7.6,0,0,0-.6,2.65h0Zm32.4-16.8a3.375,3.375,0,0,0,.8,1.8q0.9,1.5.15,5.1a27.614,27.614,0,0,1-2.95,7.6,124.576,124.576,0,0,1-7.4,13.1,11.141,11.141,0,0,1-5,4.2,5.146,5.146,0,0,0-2.85,2.6,1.736,1.736,0,0,0,.65,2.4q1.1,0.6,1.3,2.8a5.408,5.408,0,0,0,.6,2.6q0.4,0.6,2.85-.55a15.491,15.491,0,0,0,4.05-2.65q3.1-2.7,5.4-1.9t0.7,4.1a52.273,52.273,0,0,1-5.75,8.2,116.08,116.08,0,0,1-8.85,9.7q-6.2,6.1-5.9,6.4,0.6,0.6,5.8-2.4a19.9,19.9,0,0,1,2.9-1.3q1.2-.4,1.2-1.05t0.9-.65a3.006,3.006,0,0,0,2-1.15q1.1-1.149,5-4.55a149.351,149.351,0,0,0,11.5-11.3q2.7-2.7,3.4-2.7t3.5-2.5q2.7-2,5.25-7a28.032,28.032,0,0,0,3.05-8.8,8.858,8.858,0,0,0,.2-3.05,2.085,2.085,0,0,0-1.1-1.25q-4.5-2.4-13.1,2.1-5.7,2.9-6.1,2.4t1.6-3.2a22.541,22.541,0,0,0,2.35-4.05q0.849-1.95,2.55-7.05a11.008,11.008,0,0,0,.75-3.1,3.672,3.672,0,0,0-1.25-1.9,12.269,12.269,0,0,0-4.4-3.1q-3.8-1.8-3.8.1h0Zm11.4,29.1a10.8,10.8,0,0,1-3.25,3.05,3.614,3.614,0,0,1-3.05-.05,3.174,3.174,0,0,1-1.45-.85,2.789,2.789,0,0,1,.95-1.25,18.148,18.148,0,0,1,4.7-3.4q1-.6,1.65-0.95a4.516,4.516,0,0,1,1.1-.45,1.054,1.054,0,0,1,.65,0,0.4,0.4,0,0,1,.2.4q0.3,1.1-1.5,3.5h0Zm67.8-22.2a41.889,41.889,0,0,0-5.8,4,44.016,44.016,0,0,1-8.65,5.2,29.271,29.271,0,0,1-8.05,2.7,22.5,22.5,0,0,0-2.3.4q-2.3.7,1,1.9,2,0.9,7.15.45a26.946,26.946,0,0,0,8.25-1.8q3.1-1.35,3.45-1.05t-7.95,16.8q-1.3,2.4-6.6,12l-8.1,14.7a37.45,37.45,0,0,1-4.4,6.8,4.623,4.623,0,0,0-1.25,1.85,7.417,7.417,0,0,0,.05,2.85q1.4,9.7,6.5-.8a80.714,80.714,0,0,1,9.55-15.4,58.937,58.937,0,0,1,11.35-11.5,38.877,38.877,0,0,0,4.3-3.6,0.931,0.931,0,0,1,.75-0.65,2.491,2.491,0,0,1,1.05,1.15,3.154,3.154,0,0,0,1.2,1.1,2.544,2.544,0,0,0,1.5-.6,7.605,7.605,0,0,0,3.2-5.7,3.237,3.237,0,0,1,.6-1.65,5.416,5.416,0,0,1,1.35-1.5,0.975,0.975,0,0,1,1.15-.25q0.6,0.6-2,4.75a36.344,36.344,0,0,1-4.7,6.25q-2.6,2.6-2.6,4.6a5.707,5.707,0,0,1-.65,3.25,4.494,4.494,0,0,1-2.75,1.25,35.239,35.239,0,0,0-6.1,1.5,12.316,12.316,0,0,0-4.1,1.9q-1,.9-0.1,3.55a20,20,0,0,0,7.4,8.85,12.482,12.482,0,0,0,5.1.8q7.3,0.1,13.8-6.8a18.684,18.684,0,0,1,3.4-2.95,5.164,5.164,0,0,1,2.9-.15,30.6,30.6,0,0,1,7.25,2.4,21.534,21.534,0,0,1,6.05,3.5,3.587,3.587,0,0,1,1.05,1.4,2.545,2.545,0,0,1-.75,1.4,2.393,2.393,0,0,0-.8,1.1q0,0.6,4.3,1.3,2.7,0.4,4.45.75a2.274,2.274,0,0,0,2.65-1.35,3.827,3.827,0,0,0,.3-3.05,12.329,12.329,0,0,0-2.8-3.85q-4.1-4.1-14.8-7.4-4.4-1.2-5-2.2t1-4.5q2.5-5.8,1.55-8.2t-5.65-2.4h-2.9q-0.5,0,1.8-5.8l2.2-5.7,4.6-2.4q6.5-3.4,5-5.8-0.5-.6-4.5-0.4a12.667,12.667,0,0,1-3.55-.2,4.512,4.512,0,0,1-1.95-1.2,3.713,3.713,0,0,0-3.6-1.2,2.231,2.231,0,0,0-.8.3q-2.6.5-.8,1.6a2.038,2.038,0,0,1,1.1,2.15,2.676,2.676,0,0,1-1.7,2.05q-1.7.7-1.35,1.6t-2.15,2.7a12.956,12.956,0,0,1-1.9,1.1q-1.7.9-1.7-.4,0-1.1-2.3-2.9l-2.4-2,3.9-7.7q2.4-5,2.9-6.5a2.242,2.242,0,0,0,0-2.1,5.176,5.176,0,0,0-3.55-1.5,6.489,6.489,0,0,0-4.05,1.2h0Zm-0.3,26.1q-0.3,1.1-3.75,4.35t-3.95,2.75q-0.3-.4,2.2-5.1l3.6-6.6,1.1-2.1,0.6,2.5a9.327,9.327,0,0,1,.2,4.2h0Zm16.1,12.8c0.465,0,.55.5,0.25,1.5a31.975,31.975,0,0,1-1.55,3.9,4.88,4.88,0,0,1-1.5,2.2,7.814,7.814,0,0,1-3,.5,10.67,10.67,0,0,1-2.6-.1q-3.1-.4-1.2-2.1a35.072,35.072,0,0,1,5-3.4q4.1-2.5,4.6-2.5h0Zm-21.5,14q2-.5,3.6-0.95a31.177,31.177,0,0,1,5.95-.65q4.35-.2,4.35.8t-3.9,3.9q-3.4,2.5-5.6,2.75a5.483,5.483,0,0,1-4.4-1.85q-3.3-3.2,0-4h0Zm-1.1-69.6q0,0.6,2.35,2.9t2.35,3.45q0,1.151-2.4,3.65t-2.15,2.85q0.247,0.351,2.55-.6a8.871,8.871,0,0,1,4.6-.65,5.907,5.907,0,0,0,3.95-.75,3.278,3.278,0,0,0,1.75-2.95,5.506,5.506,0,0,0-.95-3.25,11.951,11.951,0,0,0-3.25-2.85,19.976,19.976,0,0,0-7.15-2.3q-1.451-.1-1.65.5h0Zm115.6,43.1-2,1.2,2.3,1.9c1.6,1.267,2.64,1.9,3.1,1.9s1.74,1.134,3.8,3.4a12.346,12.346,0,0,0,3.85,3.1,10.126,10.126,0,0,0,4.55.5q0.9-.1,1.8-2.4a5.473,5.473,0,0,0,.5-3.5q-0.39-.8-5.3-3.25a34.9,34.9,0,0,0-6.8-2.85,19.95,19.95,0,0,1-2.75-.65,4.331,4.331,0,0,0-3.05.65h0Zm-22.6-29.1q-10.7,4.1-13.25,4.75a5.027,5.027,0,0,1-3.85-.15,4.549,4.549,0,0,0-1.7-.5q-1.1-.2.7,2.8a9.433,9.433,0,0,0,3.6,3.85,10.974,10.974,0,0,0,5.4.95q3.6-.2,4.5.95t1.4,6.25l0.3,4.7-2.5,1.2a69.66,69.66,0,0,1-8,3.1,25.38,25.38,0,0,1-6.2,1.5,2.1,2.1,0,0,0-1.6.4,5.368,5.368,0,0,0-.3,2.4q0,3.9,1.65,4.85t6.05-.55l3.3-1.2,2,2.3q1.9,2.3,1.9,2.95t-5.6,6.35q-5.6,5.7-7.35,5.7a3.491,3.491,0,0,0-2.55.8q-0.8.8-.75,3.35a7.142,7.142,0,0,0,.85,3.75,2.206,2.206,0,0,0,1.95.85q1.25-.049,7.55-1.05,8.3-1.6,13.2-2.6,11.007-2.3,16.1-2.3c2.6,0,4.27-.2,5-0.6s1.1-1.266,1.1-2.6a4.909,4.909,0,0,0-.9-2.75,36.129,36.129,0,0,0-4-4.45q-4.89-4.8-5.3-4.35c-0.26.3-.4,1.75-0.4,4.35v3.8l-5.2.6a70.688,70.688,0,0,0-8.4,1.1,16.9,16.9,0,0,1-3.8.6q-0.7-.1.7-2a4.6,4.6,0,0,1,2.4-1.85,3.962,3.962,0,0,1,2.6.95q1.7,1.1,2.8.6a3.028,3.028,0,0,0,1.5-2.3,13.594,13.594,0,0,0-.1-4.9l-0.4-3.4,4.8-5.3q4.9-5.3,4.7-6.65t-4.5-3.45a23.676,23.676,0,0,1-3.35-1.95,1.776,1.776,0,0,1-.45-1.75q0.7-3.7-5.5-6.8-3.2-1.6-3.2-2,0-1.1,5-2.85a35.867,35.867,0,0,1,8.6-2.05,13.92,13.92,0,0,0,5.05-1.05,1.893,1.893,0,0,0,.95-2.35c-0.06-.666-1.13-1.4-3.2-2.2a20.277,20.277,0,0,0-6.5-1.5,20.658,20.658,0,0,0-6.8,1.7h0Zm66.1,18.3a28.237,28.237,0,0,0,.9,5,86.091,86.091,0,0,1,1.95,13.4q0.645,8.1-.05,10.7c-0.53,2.067-1,3.2-1.4,3.4a2.179,2.179,0,0,0-.75,1.3,8.1,8.1,0,0,0-.4,1.9c-0.03.534,0.08,0.834,0.35,0.9q0.6,0,2.5,3.9,3.105,6.2,6.3,4.4a2.555,2.555,0,0,0,.95-1.9,50.013,50.013,0,0,0,.35-5.8q0.1-7,.9-14.2,0.7-6.4,1-14.55t-0.25-8.45q-0.555-.3-1.35,3.75c-0.53,2.7-.97,4.05-1.3,4.05s-1.8-1.433-4.4-4.3a32.349,32.349,0,0,0-2.7-2.9q-2.6-2.5-2.6-.6h0Zm17.5-21.6q-0.8,1.4,3,5.6a9.118,9.118,0,0,1,1.25,1.85,1.273,1.273,0,0,1-.75,1.15c-0.67.8-2.13,1.317-4.4,1.55a9.529,9.529,0,0,1-5-.45,2.552,2.552,0,0,0-1.25-.5,2.82,2.82,0,0,0,.25,1.5q0.4,2,1.05,2.25a1.013,1.013,0,0,1,.65,1.05q0,1.1,1.8,1.6a8.623,8.623,0,0,0,3.7.2,10.766,10.766,0,0,0,5-3.4,13.342,13.342,0,0,1,4.3-3.45,2.2,2.2,0,0,0,1.7-2.05,2.463,2.463,0,0,1,1.3-2.2,2.179,2.179,0,0,0,1.3-1.4q0.105-.5-1.5-0.1-1.695.4-5.4-1.7-5.895-3.3-7-1.5h0Zm30.5-3.1-3.4,3.7c-1.33,1.467-2.6,2.2-3.8,2.2s-1.8.234-1.8,0.7q0,0.6,2.85,3.05t3.65,2.45c0.73,0,2.02-.85,3.85-2.55s2.9-2.4,3.2-2.1,0.52,2.517.65,6.65q0.495,15.7,2.3,37.4,0.9,9.7.05,11.2t-6.55,1.1c-1.33-.066-2.3-0.133-2.9-0.2-1,0-1.07.2-.2,0.6a47.316,47.316,0,0,1,11.5,6.3,16.358,16.358,0,0,0,4.85,2.95,2.485,2.485,0,0,0,2.75-.85q0.8-.8.5-10.35a114.649,114.649,0,0,0-1.1-14.25q-1.1-6-1.7-27.8-0.405-10.5-1.5-13.9a8.4,8.4,0,0,0-4.7-5.1,29.357,29.357,0,0,0-5.8-2.25,2.893,2.893,0,0,0-2.7,1.05h0Zm83.4,56.2a13.121,13.121,0,0,0,3.6,3.6,39.945,39.945,0,0,1,10.6,12q4.7,8.2,8.4,6.1a13.234,13.234,0,0,1,2.9-1.5q1.2-.4,1.2-3.1a5.7,5.7,0,0,0-.6-2.9,19.757,19.757,0,0,0-2.7-3.1,63.146,63.146,0,0,0-11.8-8.8,53.684,53.684,0,0,0-6.5-2.7,22.436,22.436,0,0,0-5.4-1.5q-0.6.1,0.3,1.9h0Zm-7.9-60.7a50.58,50.58,0,0,0-8.1,4.9,22.037,22.037,0,0,1-5,2.9,4.069,4.069,0,0,1-3-.4,1.391,1.391,0,0,0-1.4-.2q-1.395.5,0.9,4.9a11.455,11.455,0,0,0,1.75,2.6,3.315,3.315,0,0,0,2.05.7,2.112,2.112,0,0,0,1.8-.1,4.75,4.75,0,0,0,.7-2.2q1.095-5.8,6.9-9.7a13.36,13.36,0,0,1,3.4-1.7,12.971,12.971,0,0,1,3.5-.4c2.4,0,3.72.167,3.95,0.5s-0.32,1.9-1.65,4.7a25.455,25.455,0,0,1-4.15,6,26.7,26.7,0,0,1-5.95,5.1,11.939,11.939,0,0,1-1,.9c-0.8.8-.77,1.2,0.1,1.2a4.891,4.891,0,0,0,2.2-1.4,10.563,10.563,0,0,1,3.45-1.75,12.517,12.517,0,0,1,3.65-.85c0.33,0,.3.134-0.1,0.4a25.094,25.094,0,0,1-7.4,3.9,21.727,21.727,0,0,0-3.7,1.6c-0.4.534-1.72,1.15-3.95,1.85s-3.68.95-4.35,0.75a1.634,1.634,0,0,0-.4-0.1q-2-.3.1,3.9,1.995,3.9,5.9,3.1a8.317,8.317,0,0,1,1-.1q2.1-.2-2.1,3.6-3.105,2.8-3.1,3.25c0,0.3.77,0.317,2.3,0.05a3.517,3.517,0,0,1,2.05-.15,3.248,3.248,0,0,1,1.35,1.35,4.649,4.649,0,0,0,2.5,2.2,1.7,1.7,0,0,1,1.4,2.25,3.152,3.152,0,0,1-2.4,2.35,29.723,29.723,0,0,0-3.5,1.2q-3.405,1.5-10.7,4.35t-8.9,3.45c-1.8.467-2.87,0.367-3.2-.3a1.117,1.117,0,0,0-1.7-.25,2.215,2.215,0,0,0-1.1,2.05,7.341,7.341,0,0,0,1.8,4.1,6.411,6.411,0,0,0,2.1,2.15,9.1,9.1,0,0,0,3.2-.05,31.188,31.188,0,0,0,10.4-3.7q10.605-5.6,11.8-5.6a0.541,0.541,0,0,1,.6.4q0.7,2.2-3,7.6a64.07,64.07,0,0,1-8.25,9.05q-5.745,5.451-8.65,6.85a22.615,22.615,0,0,0-2.1,1.25,1.079,1.079,0,0,0-.7.85q0.3,0.4,5-.5a70.5,70.5,0,0,0,12.85-3.95q5.145-2.25,6.35-4.45a13.158,13.158,0,0,1,1.65-2.2,9.572,9.572,0,0,0,1.65-3.7,49.551,49.551,0,0,1,4.3-9.9c0.27-.666.73-1.633,1.4-2.9a5.93,5.93,0,0,1,3.3-2.75,16.9,16.9,0,0,1,5.4-1.25,12.757,12.757,0,0,0,4.85-1.05,26.078,26.078,0,0,1,7.45-1.45l5-.3v-2.6a2.891,2.891,0,0,0-.6-2.2,16.622,16.622,0,0,0-3.7-1.6,27.466,27.466,0,0,0-7.05-1.2c-1.83,0-4.52.034-8.05,0.1a37.244,37.244,0,0,1-13-1.6c-1.93-.8-2.7-1.566-2.3-2.3a25.51,25.51,0,0,1,4.4-3.3q7.9-5.5,10.2-7.2c1.53-1.133,2.3-1.966,2.3-2.5q0-2.1-4.9-4.7l-2.4-1.3,3.7-4.1a21.572,21.572,0,0,0,3.85-5.3,3.908,3.908,0,0,0-.55-3.6,6.552,6.552,0,0,0-5-2.85,15.253,15.253,0,0,0-7.4,1.35h0Zm7.1,40.2c0.6,0.334.63,0.667,0.1,1a1.688,1.688,0,0,1-1.6.2c-0.8-.266-1.07-0.633-0.8-1.1,0.47-.8,1.23-0.833,2.3-0.1h0Z"/>
  <path id="大写字母" class="cls-3" d="M268.328,488.638l-6.7-.144a36.621,36.621,0,0,0-15.192,3.528q-3.6,1.584-3.6,5.9a12.465,12.465,0,0,0,.864,4.176,17.828,17.828,0,0,0,12.672,11.736,12.667,12.667,0,0,0,2.736.36,9.157,9.157,0,0,0,6.588-2.592,14.771,14.771,0,0,0,3.888-6.948q1.188-4.356,2.34-9.54a21.348,21.348,0,0,0,5.76-.792q0.432,7.056.72,10.512l0.072,1.152q0.07,1.512.288,3.024a13.717,13.717,0,0,0,.288,1.692q0.144,0.54.4,1.476a5.244,5.244,0,0,0,.576,1.44q0.324,0.5.936,1.332a2.567,2.567,0,0,0,2.2.828,1.626,1.626,0,0,0,1.728-1.512,41.181,41.181,0,0,1,2.232-7.416,9.028,9.028,0,0,0,.432-2.556,6.229,6.229,0,0,0-1.3-3.06,7.028,7.028,0,0,1-.432-0.612c-0.241-.36-0.432-0.636-0.576-0.828s-0.36-.468-0.648-0.828a6.89,6.89,0,0,0-.756-0.828,3.9,3.9,0,0,0-.72-0.5,1.644,1.644,0,0,0-.792-0.216,1.1,1.1,0,0,0-.612.144q-0.146-3.456-.144-5.04a26.5,26.5,0,0,0,4.464-3.708q2.23-2.268,2.232-3.744T287.48,483.6a4.8,4.8,0,0,0-1.98,1.116,17.8,17.8,0,0,1-3.924,2.124q0.216-9,.864-14.76t0.648-6.264a4.7,4.7,0,0,0-2.268-4.1,7.852,7.852,0,0,0-4.32-1.512,21.747,21.747,0,0,0-2.736.108,2.356,2.356,0,0,0-1.3.72,2.494,2.494,0,0,0-.612,1.836v1.872q0,7.992-3.528,23.9h0Zm9.072-.72q-1.368.288-4.1,0.576,0.576-3.312,1.764-9.936t1.764-9.936q0.286,12.96.576,19.3h0Zm-10.728,7.272a49.717,49.717,0,0,1-2.088,5.76,8.226,8.226,0,0,1-1.62,2.592,9.483,9.483,0,0,1-2.232,1.512,7.6,7.6,0,0,1-3.492.72,16.838,16.838,0,0,1-5.184-1.044,12.751,12.751,0,0,1-5.04-2.988q-1.944-1.944-1.944-3.168,0-1.584,2.952-2.16a64.32,64.32,0,0,1,14.04-1.224h4.608ZM308,467.542q-0.216,2.376-1.152,14.472a5.336,5.336,0,0,0-2.16,3.96q-0.073.5-.324,1.872a12.475,12.475,0,0,0-.252,2.124,1.776,1.776,0,0,0,.468,1.26,1.805,1.805,0,0,0,1.188.576,76.515,76.515,0,0,0-.864,9.828q0,3.564.216,5.94a7.01,7.01,0,0,0-.864,3.06,2.462,2.462,0,0,0,1.368,2.16,5.992,5.992,0,0,0,3.168.828,22.345,22.345,0,0,0,4.68-.648q15.336-3.1,15.336-11.592a9.508,9.508,0,0,0-.432-2.88q-2.16-8.064-14.184-11.736a55.719,55.719,0,0,0,8.748-7.236q3.058-3.276,3.06-6.588a13.838,13.838,0,0,0-2.16-6.984q-3.817-6.336-13.9-6.336a36.578,36.578,0,0,0-13.968,2.736,1.115,1.115,0,0,0-.432-0.144q-0.718,0-.72,1.8v1.944q0,0.36.036,0.972a5.128,5.128,0,0,0,.144,1.008q0.108,0.4.252,0.828a1.093,1.093,0,0,0,.432.612,1.333,1.333,0,0,0,.72.18,7.182,7.182,0,0,0,2.016-.72,13.51,13.51,0,0,1,3.924-1.008,47.187,47.187,0,0,1,5.652-.288h0Zm11.52,3.384q0,1.728-8.64,8.28-0.073-.648-0.072-2.412a35.623,35.623,0,0,1,.36-4.5v-0.576a4.369,4.369,0,0,0-2.232-4.176q5.616,0,8.1,1.188t2.484,2.2h0Zm2.592,31.752q-6.986,4.248-10.584,4.248a1.768,1.768,0,0,1-1.944-2.052,4.394,4.394,0,0,1,.972-3.1,6.091,6.091,0,0,1,2.592-1.584q1.62-.54,1.62-1.044,0-.36-1.08-0.36a5.07,5.07,0,0,0-2.772,1.3,6.566,6.566,0,0,0-2.268,2.808,73.912,73.912,0,0,1,1.3-11.016,1.985,1.985,0,0,1,.9-0.216,4.6,4.6,0,0,1,1.332.288q7.415,2.232,10.368,5.976a4.3,4.3,0,0,1,1.08,2.628,2.486,2.486,0,0,1-1.512,2.124h0Zm40.824-8.64a35.216,35.216,0,0,0-1.728-10.08,58.169,58.169,0,0,1-5.076,13.356,40.8,40.8,0,0,1-8.1,10.908,40.873,40.873,0,0,1-1.584-12.168,71.766,71.766,0,0,1,4.536-25.128,28.423,28.423,0,0,1,1.728-4.176,1.74,1.74,0,0,1,1.584-.792,35.348,35.348,0,0,0,2.952,12.312,2.168,2.168,0,0,0,1.08,1.152q0.5,0,1.152-1.3a21.842,21.842,0,0,0,2.376-9.576q0-8.208-6.336-10.368a3.881,3.881,0,0,0-1.224-.216,0.543,0.543,0,0,0-.576.648,3.481,3.481,0,0,0,.432,1.512v2.16a5.966,5.966,0,0,1-.756-0.36c-0.36-.192-0.7-0.36-1.008-0.5a2.028,2.028,0,0,0-.828-0.216,2,2,0,0,0-1.08.864,71.689,71.689,0,0,0-8.064,15.912,48.452,48.452,0,0,0-3.168,16.56q0,11.88,5.184,15.84a11.351,11.351,0,0,0,7.128,2.16,5.5,5.5,0,0,0,4.176-1.584q7.2-7.56,7.2-16.92h0Zm10.007-24.624-0.072,2.232q0,2.52,1.476,2.52t5-2.88a20.322,20.322,0,0,1,2.016-1.512,18.8,18.8,0,0,1,.288,3.2,20.721,20.721,0,0,1-.072,2.124Q380,490.15,380.071,495.838v1.872q-1.728-1.872-3.024-1.872a2.184,2.184,0,0,0-.648.072q0.286,1.368.72,5.328,1.08,9.864,3.744,9.864a3.2,3.2,0,0,0,1.8-.576,2.782,2.782,0,0,0,.864-2.448v-2.3a110.285,110.285,0,0,1,1.62-15.732,109.479,109.479,0,0,0,1.62-15.048,43.971,43.971,0,0,0-.576-7.812,8.436,8.436,0,0,1,3.744-1.008,7.6,7.6,0,0,1,3.6,1.008q6.406,3.6,6.408,15.84a37.281,37.281,0,0,1-4.464,18.36,3.194,3.194,0,0,1-2.808,2.016q-1.728,0-2.988-2.664a10.977,10.977,0,0,1-1.26-4.5,16.339,16.339,0,0,1,.36-3.492q-2.45,1.008-3.6,4.9a24.93,24.93,0,0,0-1.152,7.02,8.638,8.638,0,0,0,1.44,5.148,4.671,4.671,0,0,0,4.032,2.016,6.719,6.719,0,0,0,4.9-2.448,60.168,60.168,0,0,0,8.136-12.312,32.637,32.637,0,0,0,3.96-15.12,28.019,28.019,0,0,0-1.584-9.432q-4.536-12.528-14.76-12.528a25.9,25.9,0,0,0-5.112.648,36.6,36.6,0,0,0-11.592,4.536,1.608,1.608,0,0,0-.792,1.44Zm51.911,8.856a8.664,8.664,0,0,1,.792-2.232,17.037,17.037,0,0,1,2.52-3.888,23,23,0,0,1,5.112-3.168l2.376-1.152a12.228,12.228,0,0,0-.72,2.772q0,0.612.432,0.612a2.357,2.357,0,0,0,.576-0.144q11.016-4.392,11.016-6.984a6.28,6.28,0,0,0-.576-1.8,2.463,2.463,0,0,0-2.376-1.44,8.626,8.626,0,0,0-1.224.144q-1.657-1.944-2.952-1.944a4.383,4.383,0,0,0-2.448.756q-1.152.756-5.724,3.384a46.825,46.825,0,0,0-7.38,5.076,8.584,8.584,0,0,0-3.312,6.768q0,6.624,6.984,8.856a32.112,32.112,0,0,0-7.668,3.744,14.3,14.3,0,0,0-4.788,6.228,18.314,18.314,0,0,0-1.8,7.02,10.993,10.993,0,0,0,2.016,5.976q3.672,5.9,11.3,5.9,12.312,0,16.7-5.76a7.391,7.391,0,0,0,1.44-4.644,6.353,6.353,0,0,0-2.556-4.932,9.324,9.324,0,0,0-6.228-2.16,13.246,13.246,0,0,0-7.056,2.088,16.134,16.134,0,0,0-5.472,5.616,3.075,3.075,0,0,0-.5,1.476q0,0.612.288,0.612a50.469,50.469,0,0,0,5.22-2.916q4.93-2.916,5.9-2.916a1.457,1.457,0,0,1,1.4.9,4.2,4.2,0,0,1,.432,1.836q0,2.808-4.14,4.284a21.818,21.818,0,0,1-7.128,1.476q-2.988,0-4.284-1.4a5.963,5.963,0,0,1-1.3-4.176,9.043,9.043,0,0,1,1.872-5.364,29.415,29.415,0,0,1,3.744-4.176,10.913,10.913,0,0,1,2.2-1.512q1.332-.72,2.088-1.116a19.312,19.312,0,0,1,2.412-.972q1.656-.576,2.376-0.792t2.7-.792q1.98-.576,2.7-0.792,2.376,0.432,2.664.432a0.8,0.8,0,0,0,.936-0.864,6.523,6.523,0,0,0-1.836-4.572q-1.836-1.98-3.06-1.98a7.916,7.916,0,0,0-2.448,1.08h-1.224q-10.008,0-10.008-2.448h0Zm58.248,1.8a65.471,65.471,0,0,0-.468-10.692,13.037,13.037,0,0,0-2.772-6.624,6.61,6.61,0,0,0-5.22-2.556,9.548,9.548,0,0,0-5.364,1.512q-3.385-3.384-4.032-3.384c-0.337,0-.5.312-0.5,0.936l0.072,1.8a12.283,12.283,0,0,1-1.44,5.724,21.279,21.279,0,0,1-3.168,4.644q-4.61,4.9-4.608,8.5a7.46,7.46,0,0,0,.108,1.224q0.108,0.648.216,1.764a7.017,7.017,0,0,0,.324,1.692q1.08,2.016,2.628,2.016t3.708-2.664a36.008,36.008,0,0,0,7.2-15.912,3.1,3.1,0,0,1,1.3-2.376,4.558,4.558,0,0,1,2.3-.576q2.808,0,3.312,3.168a42.353,42.353,0,0,1,.864,8.46q0,4.212-.144,5.58l-2.952,1.152a38.6,38.6,0,0,0-10.008,5.832,15.319,15.319,0,0,0-3.888,4.5,10.092,10.092,0,0,0-1.44,4.968,15.158,15.158,0,0,0,.612,4.428,43.79,43.79,0,0,0,1.548,4.248,8.828,8.828,0,0,0,2.448,3.168,7.788,7.788,0,0,0,4.824,2.16q3.959,0,7.128-6.192a61.852,61.852,0,0,0,6.408-18.072,20.053,20.053,0,0,0,9.864-7.92q1.87-2.808,1.872-3.708c0-.6-0.193-0.9-0.576-0.9s-3.769,1.368-10.152,4.1h0Zm-6.984,10.224a45.215,45.215,0,0,1-4.32,11.448,2.673,2.673,0,0,1-2.628,1.44q-1.91,0-4.86-2.916t-2.952-5.148q0-2.232,2.664-2.736,1.367-.288,4.284-0.576a35.644,35.644,0,0,0,4.428-.648Zm39.167,0a1.658,1.658,0,0,1,1.8,1.944q0,5.544-4.824,11.808-1.728,2.232-3.24,2.232a1.761,1.761,0,0,1-1.872-1.512,38.241,38.241,0,0,1-.864-9q0-10.3,5.688-24.408,2.447-6.192,3.024-6.192t0.576,0.936a21.64,21.64,0,0,0,.72,6.624c0.047,0.144.132,0.456,0.252,0.936s0.216,0.852.288,1.116a1.542,1.542,0,0,0,.54.756,1.525,1.525,0,0,0,1.008.36,1.014,1.014,0,0,0,1.08-1.008,6.123,6.123,0,0,1,.792-3.456q2.592-4.1,2.592-6.156a6.318,6.318,0,0,0-2.016-4.212,8,8,0,0,0-3.384-1.908,13.994,13.994,0,0,0-4.356-.756,2.735,2.735,0,0,0-2.772,1.656q-1.368,2.736-3.384,7.272-0.288.648-1.548,3.492t-1.62,3.924q-0.361,1.08-1.3,3.564a29.634,29.634,0,0,0-1.26,4q-0.324,1.512-.972,4.32a34.173,34.173,0,0,0-.648,7.416,32.061,32.061,0,0,0,2.232,11.952,8.107,8.107,0,0,0,4.248,4.356,15.533,15.533,0,0,0,6.624,1.4A10.164,10.164,0,0,0,521.405,507a19.483,19.483,0,0,0,3.672-10.728,14.81,14.81,0,0,0-1.872-6.984l-0.216-.648q0-.864,1.584-1.584a12.567,12.567,0,0,1,1.26-.612,16.016,16.016,0,0,0,1.584-.792q0.54-.324,1.3-0.864a3.881,3.881,0,0,0,1.116-1.152,3.1,3.1,0,0,0,.36-1.584,2.828,2.828,0,0,0-1.224-2.016,3.584,3.584,0,0,0-2.2-1.044A7.981,7.981,0,0,0,523.745,480q-2.052,1.008-7.272,3.384t-6.156,2.844a1.378,1.378,0,0,0-.936,1.188,2.984,2.984,0,0,0,1.3,1.836,5,5,0,0,0,3.384,1.116Zm25.7-1.512c-0.337,0-.5.228-0.5,0.684a8.763,8.763,0,0,0,1.26,2.952,24.391,24.391,0,0,0,2.2,3.42,4.767,4.767,0,0,0,3.24,1.44,64.538,64.538,0,0,0-.792,7.632,9.792,9.792,0,0,0,1.368,4.608,15.89,15.89,0,0,0,.684,1.44,9.508,9.508,0,0,0,1.26,2.016,1.883,1.883,0,0,0,1.476.648,2,2,0,0,0,1.62-1.152,4.326,4.326,0,0,0,.72-2.3l-0.72-4.9q0-1.872,1.872-10.008,2.663-.936,4.9-1.512-0.578,6.336-.576,9.972a8.992,8.992,0,0,0,3.24,6.66,2.682,2.682,0,0,0,1.512.792,1.52,1.52,0,0,0,1.368-1.3,7.319,7.319,0,0,0,.432-2.268,29.706,29.706,0,0,0-.576-4.1,28.811,28.811,0,0,1-.576-4.9q0-1.764.432-6.516c0.479-.144.936-0.288,1.368-0.432a10.828,10.828,0,0,0,2.52-1.836q1.871-1.62,2.376-2.052a1.19,1.19,0,0,0,.5-0.864q0-1.152-2.052-1.908a10.093,10.093,0,0,0-2.844-.756,7.915,7.915,0,0,0-1.224.072,173.8,173.8,0,0,1,3.024-20.016,7.1,7.1,0,0,0,.216-1.728q0-1.8-2.952-3.744a1.617,1.617,0,0,0-.9-0.36,0.322,0.322,0,0,0-.4.324,2.3,2.3,0,0,0,.36.972,2.347,2.347,0,0,1,.36,1.044,2.645,2.645,0,0,1-.144.828,150.649,150.649,0,0,0-4.752,23.76l-3.528.792q2.16-9.5,2.736-12.42a25.512,25.512,0,0,0,.576-4.68,12.867,12.867,0,0,0-1.476-4.932q-1.478-3.168-3.348-3.78a11.01,11.01,0,0,0-3.384-.612,3.6,3.6,0,0,0-2.376.72,102.608,102.608,0,0,0-12.528,10.44,4.034,4.034,0,0,0-1.152,2.7,11.4,11.4,0,0,0,1.224,4.14,14.009,14.009,0,0,1,.72,1.728q0.648,2.16,2.232,2.16a2.31,2.31,0,0,0,1.44-.576,58.855,58.855,0,0,0,10.008-10.44,1.661,1.661,0,0,0,.072-0.612,3.7,3.7,0,0,0-1.116-1.692,3.607,3.607,0,0,1-1.116-1.728q0-.72,1.692-1.152a11.354,11.354,0,0,1,2.556-.432q0.718,0,.72,1.152T551.5,477.766q-1.728,6.768-2.52,10.44a26.722,26.722,0,0,1-5.544,1.224Zm51.623-24.264v2.232a110.389,110.389,0,0,1-1.764,16.056q-1.765,10.8-2.34,15.048-0.216,2.016-.4,3.132t-0.756,1.116q-0.577,0-1.476-1.512t-1.836-1.512q-0.937,0-1.764,1.62a6.251,6.251,0,0,0-.828,2.7,3.6,3.6,0,0,0,1.08,2.3,40.826,40.826,0,0,0,3.384,3.672q0.934,0.936,2.736,2.664a5,5,0,0,0,3.168,1.728,1.653,1.653,0,0,0,1.584-1.584,216.391,216.391,0,0,0,3.888-38.088v-0.648q0.071-15.7-5.328-15.7a4.887,4.887,0,0,0-2.592.864,6.058,6.058,0,0,0-.972,1.116q-0.54.756-.756,1.116t-0.72,1.332q-0.505.972-.648,1.188a2.25,2.25,0,0,0-.936-0.288q-1.226,0-1.224.864a3.839,3.839,0,0,0,1.008,1.656q-1.512,2.952-3.744,7.956t-2.232,6.228a3.59,3.59,0,0,0,.72,2.2q0.718,0.972,1.548,2.34a14.139,14.139,0,0,0,1.44,2.052,1.838,1.838,0,0,0,1.4.684q1.007,0,1.764-1.764a50.448,50.448,0,0,0,1.98-7.128,41.359,41.359,0,0,0,1.224-7.056,14.8,14.8,0,0,0-.36-3.276,11.861,11.861,0,0,1-.36-2.16,4.939,4.939,0,0,1,1.044-2.088,2.783,2.783,0,0,1,2.052-1.512q1.006,0,1.008,2.448h0Zm38.159-5.472-21.816-.36a1.25,1.25,0,0,0-1.3,1.512q0,0.936.144,2.952,0.216,2.664,4.176,2.952,5.472,0.432,10.728.648a21.016,21.016,0,0,0-.792,5.868,58.129,58.129,0,0,0,1.008,9.036,57.945,57.945,0,0,1,1.008,8.928q0,10.44-6.408,10.872a16.616,16.616,0,0,0-2.952.36q-0.864.216-1.368,0.288a9.09,9.09,0,0,1,2.88-2.16q0.648-.36,2.592-1.26t1.944-1.548q0-.936-5.76-0.936a30.274,30.274,0,0,0-11.448,2.3q-1.15.432-1.512,3.168a12.867,12.867,0,0,0-.216,2.376,3.855,3.855,0,0,0,2.16,3.528A22.03,22.03,0,0,0,615,510.6a23.988,23.988,0,0,0,6.336-.864,6.668,6.668,0,0,0,4.536-4.248,20.568,20.568,0,0,0,1.08-3.06q0.36-1.4.648-3.1a31.271,31.271,0,0,0,.288-4.9q0-3.2-2.016-11.556a35.564,35.564,0,0,1-1.08-7.2,15.454,15.454,0,0,1,2.88-8.784q2.52,0,5.112.072a22.131,22.131,0,0,0,5.472-.576q5.616-1.3,5.616-4.176a2.683,2.683,0,0,0-1.44-2.34,5.987,5.987,0,0,0-3.24-.9Zm24.624,6.192q0.144-1.08,1.728-1.08a1.213,1.213,0,0,1,1.3,1.44q0,1.44-3.384,11.664-2.305,6.984-3.564,12.528a49.89,49.89,0,0,0-1.26,11.088q0,1.656.144,3.888t0.288,3.6a3,3,0,0,0,1.008,1.656q1.44,1.584,2.412,1.584a2.966,2.966,0,0,0,1.98-.936,2.526,2.526,0,0,0,1.008-1.656,13.129,13.129,0,0,0-.216-2.016,30.155,30.155,0,0,1-.216-4.356,40.7,40.7,0,0,1,1.08-8.1,2.043,2.043,0,0,0,1.908-1.188,2.183,2.183,0,0,1,1.872-1.26q1.116,0,1.908,1.872,0.648,1.368,2.736,7.56T670.3,510.2q2.088,2.484,3.276,2.484a5.584,5.584,0,0,0,3.024-1.368,6.25,6.25,0,0,0,2.2-2.34,12.318,12.318,0,0,0,.36-3.672q0-2.7-1.08-2.7a1.984,1.984,0,0,0-.792.36,1.983,1.983,0,0,1-1.008.36q-1.08,0-1.8-1.728-0.72-1.512-1.908-4.428t-1.476-3.492q-2.016-4.464-5.544-5.4-2.448,0-2.448-1.08a0.485,0.485,0,0,1,.144-0.36q12.383-13.1,17.784-25.344a2.509,2.509,0,0,0,.432-1.224,1.212,1.212,0,0,0-.54-0.936q-0.54-.432-1.512-1.332a2.73,2.73,0,0,0-1.692-.9q-1.08,0-1.08,1.8-0.793,1.656-4.536,7.56-0.72,1.08-2.52,3.96a57.591,57.591,0,0,1-8.208,10.728q0.144-.5.972-2.988t1.8-5.616a18.442,18.442,0,0,0,.972-5.292q0-4.464-3.024-6.048a8.581,8.581,0,0,0-4-1.152,5.574,5.574,0,0,0-3.276,1.008,58.053,58.053,0,0,0-13.608,13.248,4.366,4.366,0,0,0-.936,2.556,8.458,8.458,0,0,0,.756,3.1q0.756,1.836,1.98,1.836a3.587,3.587,0,0,0,1.656-.576,33.563,33.563,0,0,0,7.38-6.516q3.348-3.924,3.348-7.812v-1.656h0Zm46.944-3.456v0.432q-2.018-3.312-2.664-3.312t-0.936,2.2q-0.289,2.2-1.872,13.1t-2.16,16.6a27.248,27.248,0,0,1-2.952,10.152,28.161,28.161,0,0,0-6.336-1.584,5.819,5.819,0,0,0-2.7.648,1.984,1.984,0,0,0-1.26,1.8q0,2.088,3.384,5.508t5.58,3.42q2.194,0,4.716-3.456,6.766,3.528,11.664,3.528t5.976-4.536a29.929,29.929,0,0,0,.72-6.768c0-.864-0.157-1.3-0.468-1.3a1.718,1.718,0,0,0-1.116.864q-3.24,3.744-10.08,3.744a21.378,21.378,0,0,1-3.744-.36q3.6-7.7,4.176-20.016a61.8,61.8,0,0,1,.216-6.408q0.071-1.08.576-1.08,0.719,0,.9,1.656T705,478.27a2.181,2.181,0,0,0,1.224-1.008,10.279,10.279,0,0,0,2.232-6.588,28.322,28.322,0,0,0-.432-5.724,4.358,4.358,0,0,0-1.908-2.88q-1.478-.936-2.556-1.656a4.546,4.546,0,0,0-1.3-.72q-0.216,0-.216.288ZM689.451,504.19a1.962,1.962,0,0,1-.936.936c-0.385,0-.576-0.252-0.576-0.756s0.072-.756.216-0.756Zm83.159-17.208a2.325,2.325,0,0,0-.864,1.008q-2.3,4.1-3.384,5.94t-3.348,4.9a30.192,30.192,0,0,1-4.644,5.076v-1.368a73.256,73.256,0,0,1,.792-10.4q0.792-5.508,2.52-14a80.4,80.4,0,0,0,1.728-10.368q0-4.1-4.536-4.1a5.018,5.018,0,0,0-4.392,2.592,43.019,43.019,0,0,1-3.168,4.968,5.814,5.814,0,0,0-1.26-3.924,3.957,3.957,0,0,0-3.168-1.908q-1.764,0-4.068,2.016-1.08,1.008-1.512,1.368a22.43,22.43,0,0,0-.468-3.888,4.349,4.349,0,0,0-1.548-2.3,4.878,4.878,0,0,0-3.2-1.008,4.484,4.484,0,0,0-2.988.864,3.392,3.392,0,0,1-1.3.864,1.333,1.333,0,0,1-1.044-.936q-0.468-.936-2.412-3.816a37.668,37.668,0,0,1-3.168,10.872q-4.968,9.648-4.968,16.992a3.337,3.337,0,0,0,1.188,2.376,3.385,3.385,0,0,0,2.268,1.152,1.8,1.8,0,0,0,1.584-.72q4.176-6.264,5.184-16.272a9.8,9.8,0,0,1,.72-2.952,29.11,29.11,0,0,1,1.8-3.1q1.3-2.016,1.872-2.016t0.576,1.3v0.5q-0.144,1.872-.864,6.624-0.216,1.512-.576,3.492t-0.576,3.24q-0.216,1.26-.648,3.456t-0.648,3.2q-0.216,1.008-.756,3.456t-0.72,3.2q-0.18.756-.792,3.42t-1.044,4.464a12.8,12.8,0,0,0-.432,2.52,6.141,6.141,0,0,0,.468,1.98q0.468,1.26.756,1.944a5.39,5.39,0,0,0,1.188,1.584,2.946,2.946,0,0,0,2.16.9,1.959,1.959,0,0,0,1.836-1.008,7.468,7.468,0,0,0,.4-0.9q0.108-.324.288-1.152t0.5-2.16q0.324-1.332,1.476-6.444t1.656-6.984q0.216-1.008.684-2.952t0.828-3.312q0.36-1.368.864-3.24t1.008-3.2q0.5-1.332,1.332-3.492a9.231,9.231,0,0,1,1.908-3.24q-0.072.432-.756,4.1t-0.828,4.572q-0.144.9-.684,4t-0.684,4.608q-0.144,1.512-.432,4.032t-0.4,4.608q-0.108,2.088-.108,3.816a4.665,4.665,0,0,0,.864,2.88q2.52,3.384,4.752,3.384,1.656,0,1.944-2.3,0.144-1.08.36-3.24,1.8-18.432,8.136-31.248-4.536,25.92-4.824,27.9a23.577,23.577,0,0,0-.288,3.276q0,7.272,5.184,9.144,4.248-.144,6.12-2.232,5.688-6.336,6.84-20.016,0.072-.792.072-1.584t-0.36-.792h0Zm29.736,21.6,0.216-1.8a148.342,148.342,0,0,1,4.644-23,83.713,83.713,0,0,1,8.388-19.188q-0.5,2.664-1.872,9.576-4.466,21.672-4.464,26.064,0,4.968,2.376,7.56,0.216,0.216,1.3,1.044a3.247,3.247,0,0,0,1.8.828q1.656,0,3.708-2.808a21.373,21.373,0,0,0,3.168-8.208,50.592,50.592,0,0,0,1.116-10.224q0-1.368-.432-1.368t-2.772,3.852q-2.34,3.852-2.916,3.852-0.216,0-.216-1.8a18.228,18.228,0,0,1,.4-3.708q0.394-1.908,1.764-7.848t2.016-9.828a44.186,44.186,0,0,0,.648-7.236q0-3.348-.828-4.608t-4.068-1.26a3.017,3.017,0,0,0-2.232.792q-4.536,4.176-10.368,20.808,0.07-1.008.432-4.788t0.36-5.8q0-5.76-2.34-7.2a8.813,8.813,0,0,0-4.644-1.44,4.515,4.515,0,0,0-3.672,1.656,5.365,5.365,0,0,0-1.3-.144,1.86,1.86,0,0,0-1.4,1.152q-0.685,1.152-2.016,3.672t-3.636,6.8q-2.306,4.284-4.1,8.6a8.368,8.368,0,0,0-.5,2.916,7.063,7.063,0,0,0,1.44,3.708q1.44,2.16,3.24,2.16t2.88-2.592q3.6-9.432,5.544-14.076t1.944-5.508a3,3,0,0,0-.144-1.152,3.707,3.707,0,0,1,2.556-1.3q1.258,0,1.26,1.728v0.72q-0.5,3.888-2.34,14.652T795,499.15q-0.432,4.536-.5,5.04a8.173,8.173,0,0,0-.936,3.672,6.313,6.313,0,0,0,1.692,3.636q1.69,2.124,3.276,2.124a3.923,3.923,0,0,0,2.772-1.116,3.493,3.493,0,0,0,1.188-2.628Zm59.04-27.072a20.437,20.437,0,0,0-.576-4.68l-1.728,3.456a68.857,68.857,0,0,0,.5-7.7q0-9.936-3.1-12.384a6.828,6.828,0,0,0-4.248-1.08q-5.545,0-7.344,4.176-3.24-1.3-3.384-1.3-0.936,0-1.8,1.656-6.912,14.4-6.912,28.08a49.1,49.1,0,0,0,1.008,10.08q1.008,4.824,6.984,8.5a8.037,8.037,0,0,0,3.888,1.3q3.168,0,5.544-3.528,4.032-6.192,6.84-16.7a12.976,12.976,0,0,0,4.32-9.864h0ZM853.754,467.4a72.008,72.008,0,0,1-3.528,22.9,4.054,4.054,0,0,1-.936.144q-2.16,0-3.492-2.556a10.648,10.648,0,0,1-1.332-4.932q0-9.432,4.1-16.056a16.374,16.374,0,0,1,1.548-2.232,2.078,2.078,0,0,1,1.62-.792,1.653,1.653,0,0,1,1.476,1.152,5.539,5.539,0,0,1,.54,2.376h0ZM848.93,493.75a46.813,46.813,0,0,1-5.544,10.872,2.178,2.178,0,0,1-1.728,1.3q-1.368,0-2.016-2.16a48.006,48.006,0,0,1-1.8-13.932,32.761,32.761,0,0,1,3.1-14.436,28.2,28.2,0,0,0-.432,5.4,21.271,21.271,0,0,0,1.584,7.416,8.863,8.863,0,0,0,2.736,3.492,11.017,11.017,0,0,0,4.1,2.052h0Zm25.415,6.12q0,1.3-.432,1.3t-2.7-2.52q-2.268-2.52-2.808-2.52a0.512,0.512,0,0,0-.54.612,7.152,7.152,0,0,0,.216,1.548,37.007,37.007,0,0,0,4.032,10.872q1.44,2.376,2.736,2.376a6.118,6.118,0,0,0,2.88-.864,3.748,3.748,0,0,0,2.232-3.528l-0.072-1.08a97.911,97.911,0,0,1-.648-11.232v-3.1a5.948,5.948,0,0,0,4.248,1.368,18.735,18.735,0,0,0,6.12-1.152,12.768,12.768,0,0,0,8.28-8.568,26.758,26.758,0,0,0,1.368-8.208,17.547,17.547,0,0,0-4.032-11.376,12.756,12.756,0,0,0-10.368-4.968,20.889,20.889,0,0,0-6.66,1.332,39.232,39.232,0,0,0-6.732,2.988q-3.312,1.8-3.312,6.7,0,3.1,2.34,3.1t4.716-3.1a10.582,10.582,0,0,1,2.376-2.232,87.392,87.392,0,0,0-3.456,25.2Zm21.1-27.144q0,9.792-9.792,11.88a8.826,8.826,0,0,1-1.368.144q-2.664,0-2.664-3.456,0-2.952,4.9-2.952c0.479,0,.72-0.108.72-0.324s-0.36-.324-1.08-0.324q-4.1,0-6.048,2.3,0.144-1.656.5-4.9t0.5-4.608a22.86,22.86,0,0,0,.144-2.34,12.124,12.124,0,0,0-.36-2.556,7.786,7.786,0,0,1,4.32-1.08,12.516,12.516,0,0,1,7.344,2.016,7.045,7.045,0,0,1,2.88,6.192h0Zm37.943,33.192q-0.648,0-1.908,1.584a3.537,3.537,0,0,1-2.736,1.584q-1.476,0-3.708-2.088a55.5,55.5,0,0,0,6.66-15.984,67.566,67.566,0,0,0,2.34-16.6,54.258,54.258,0,0,0-1.152-12.276,8.624,8.624,0,0,0-4.392-5.256,7.077,7.077,0,0,0-3.456-.792,6.762,6.762,0,0,0-4.248,1.872,10.388,10.388,0,0,0-1.836,2.16q-0.972,1.44-1.44,2.268t-1.332,2.592q-0.864,1.764-1.08,2.2a1.769,1.769,0,0,0-1.08-.648q-0.432,0-.936,1.224-5.184,14.4-5.184,25.7a30.543,30.543,0,0,0,2.736,13.608,4.867,4.867,0,0,0,1.368,1.8c0.335,0.288.6,0.5,0.792,0.648s0.528,0.372,1.008.684a7.6,7.6,0,0,1,.864.612,6.985,6.985,0,0,0,4.176,1.728,4.535,4.535,0,0,0,3.528-1.944q3.168,3.312,6.768,3.312a5.026,5.026,0,0,0,3.816-1.512,5.554,5.554,0,0,0,1.44-4q0-2.484-1.008-2.484h0Zm-5.328-39.6a84.624,84.624,0,0,1-2.3,18,89.8,89.8,0,0,1-5.544,17.5,6.128,6.128,0,0,0-1.332-1.512,0.939,0.939,0,0,0-.18.864,15.872,15.872,0,0,0,.432,2.88A20.448,20.448,0,0,1,916.9,507.5q-3.96-2.736-3.96-12.528a38.669,38.669,0,0,1,.36-5.04q1.8,4.176,4.536,5.328a3.67,3.67,0,0,0,1.3.216,0.607,0.607,0,0,0,.72-0.648,0.585,0.585,0,0,0-.36-0.432,6.536,6.536,0,0,1-2.664-3.024,11.375,11.375,0,0,1-1.008-3.384q-0.145-1.44-.144-4.176,0-13.464,6.912-21.744a3.153,3.153,0,0,1,2.52-1.368q1.44,0,2.2,1.872a9.933,9.933,0,0,1,.756,3.744h0Zm15.552-4.9q-1.3,0-1.3,3.744a6.768,6.768,0,0,0,1.44,3.672q0.216,0.216.612,0.684a1.854,1.854,0,0,0,.864.612,4.593,4.593,0,0,0,1.3.144,3.063,3.063,0,0,0,1.944-1.116,9.135,9.135,0,0,1,3.924-1.908,2.057,2.057,0,0,1,.072.612,5.893,5.893,0,0,1-.216,1.26q-0.216.864-.72,4.032a206.4,206.4,0,0,0-1.8,23.112l0.288,3.384q0,1.224-.648,1.224a1.053,1.053,0,0,1-.576-0.612,4.712,4.712,0,0,0-1.116-1.224,2.774,2.774,0,0,0-1.8-.612q-1.044,0-1.044.648a3.1,3.1,0,0,0,.072.576q1.582,7.488,6.192,10.368a4.074,4.074,0,0,0,1.728.648q1.512,0,1.512-2.664l-0.072-6.264a88.722,88.722,0,0,1,.936-11.232l2.3-1.08a11.343,11.343,0,0,1,2.088,1.3q1.512,1.3,1.512,6.12l-0.144,3.816a13.471,13.471,0,0,0,2.124,6.984q2.123,3.528,5.364,3.528a5.469,5.469,0,0,0,4.248-2.232q3.168-4.176,3.168-6.7,0-.864-0.576-0.864a3.52,3.52,0,0,0-1.152.72,8.725,8.725,0,0,1-5.472,2.3q-2.592,0-2.592-4.968l0.072-3.1q0-6.336-4.752-8.856a47.656,47.656,0,0,0,9.72-6.264,15.742,15.742,0,0,0,3.708-4.716,12.953,12.953,0,0,0,1.332-5.94,9.247,9.247,0,0,0-2.52-6.192,14.954,14.954,0,0,0-6.048-4.212,22.177,22.177,0,0,0-7.884-1.332q-4.358,0-12.132,2.448a8.418,8.418,0,0,1-2.232.432Zm26.784,7.992a3.4,3.4,0,0,1-.432,1.44,26.508,26.508,0,0,1-13.68,11.664,102.56,102.56,0,0,0,.864-11.34,30.71,30.71,0,0,1,.216-4.932,26.972,26.972,0,0,1,4.212-.288,22.843,22.843,0,0,1,5.616.828q3.2,0.828,3.2,2.628h0Zm41.758-8.928a3.617,3.617,0,0,0-2.81-1.3,6.168,6.168,0,0,0-1.58.288,60.426,60.426,0,0,0-12.6,6.192,17.169,17.169,0,0,0-5.148,5.22,12.4,12.4,0,0,0-1.836,6.624,15.171,15.171,0,0,0,1.62,6.876,11.491,11.491,0,0,0,4.644,4.968q1.008,0.576,4.716,2.232a30.455,30.455,0,0,1,5.075,2.664,2.189,2.189,0,0,1,.94,1.584q0,0.792-1.8,1.8a10.662,10.662,0,0,0-2.45-1.62,6.031,6.031,0,0,0-2.593-.756q-10.224,0-14.832,3.456-1.944,1.44-1.944,2.844a3.353,3.353,0,0,0,1.728,2.628,4.787,4.787,0,0,0-1.008,2.88q0,4.608,5.04,4.608,9.5,0,21.669-7.56a5.369,5.369,0,0,0,1.91-2.2,6.166,6.166,0,0,0,.76-2.844,11.377,11.377,0,0,0-2.88-7.056q-1.8-2.3-8.787-6.048-3.456-1.8-3.888-2.088-2.88-1.656-2.88-3.528a5.637,5.637,0,0,1,.72-2.376q3.24-6.336,11.525-9.288a2.235,2.235,0,0,1,.68-0.144,0.238,0.238,0,0,1,.25.288,9.928,9.928,0,0,1-.97,2.16,7.015,7.015,0,0,0-.97,2.988q0,1.116.72,1.116a2.926,2.926,0,0,0,1.51-.864,82.089,82.089,0,0,0,7.92-7.7,2.578,2.578,0,0,0,.72-1.584q0-.72-3.17-4.464h0Zm-13.679,39.888q-5.544,3.1-7.488,3.1a0.417,0.417,0,0,1-.5-0.432q0-1.08,2.7-1.944a15.138,15.138,0,0,1,3.636-.864,8.508,8.508,0,0,1,1.656.144h0Zm34.919,0.288c0,0.384-.07.576-0.22,0.576a3.236,3.236,0,0,1-1.04-1.152,2.214,2.214,0,0,0-1.4-1.152c-0.39,0-.58.4-0.58,1.188a5.122,5.122,0,0,0,.72,2.484q3.6,7.344,6.91,7.344a1.878,1.878,0,0,0,2.16-2.088,29.5,29.5,0,0,0-.65-3.384,23.117,23.117,0,0,1-.64-3.96,21.916,21.916,0,0,1,.14-2.376q0.15-1.368.79-11.448a93.387,93.387,0,0,1,2.45-17.064q10.65,0.144,17.06-6.912a3.664,3.664,0,0,0,1.3-2.52,1.049,1.049,0,0,0-1.15-1.224,3.842,3.842,0,0,0-.79.144,46.5,46.5,0,0,1-14.84,2.736h-1.36c-0.39-.576-0.7-1.032-0.94-1.368l-0.58,1.3c-1.58-.144-3.16-0.216-4.75-0.216q-12.315,0-18.5,5.472a2.5,2.5,0,0,0-1.08,1.584,6.347,6.347,0,0,0,.14,1.3,11.921,11.921,0,0,1,.22,1.8,11.448,11.448,0,0,0,.21,1.728,2.2,2.2,0,0,0,.8,1.116,2.837,2.837,0,0,0,1.87.54,8.762,8.762,0,0,0,5.69-2.3,33.724,33.724,0,0,1,3.7-2.628,9,9,0,0,1,4.72-1.116c0.43,0,1.68.12,3.74,0.36a75.02,75.02,0,0,0-4.32,25.56Zm56.95-37.152a9.14,9.14,0,0,0,.43-2.628,1.032,1.032,0,0,0-1.15-1.188,8.992,8.992,0,0,0-3.2.864,18.507,18.507,0,0,0-3.21,1.656,1.352,1.352,0,0,0-.79,1.224l0.51,2.16a8.359,8.359,0,0,1-.44,2.16q-6.12,18.72-11.44,31.68-0.435,1.152-.87,1.152c-0.29,0-.43-0.408-0.43-1.224v-0.648a112.075,112.075,0,0,1,3.53-15.948q2.88-10.332,3.31-12.1a15.437,15.437,0,0,0,.43-3.708,7.735,7.735,0,0,0-.86-3.6,2.864,2.864,0,0,0-1.15-.972,12.073,12.073,0,0,0-1.34-.648c-0.31-.12-0.9-0.3-1.76-0.54s-1.46-.42-1.8-0.54a2.754,2.754,0,0,0-.9-0.18,10.646,10.646,0,0,0-2.05.5l-1.01-.792a82.407,82.407,0,0,1-9.58,13.9,4.458,4.458,0,0,0-1.22,3.024,8.09,8.09,0,0,0,.97,3.6,2.92,2.92,0,0,0,2.59,1.944c1.08,0,1.96-.7,2.63-2.088q0.435-.864,1.44-3.168c0.67-1.536,1.19-2.676,1.55-3.42a27.951,27.951,0,0,1,1.58-2.736,19.233,19.233,0,0,1,1.84-2.484,2.254,2.254,0,0,1,1.15-.864q0.36,0,.36.792a31.457,31.457,0,0,1-1.4,5.22q-1.41,4.428-2.74,10.476a54.222,54.222,0,0,0-1.33,11.7,47.328,47.328,0,0,0,.86,9.684,5.009,5.009,0,0,0,1.88,3.132,5.515,5.515,0,0,0,3.52,1.188q4.185,0,6.12-6.624,0.8-2.88,2.16-8.784c0.92-3.936,1.54-6.552,1.88-7.848q0.285,1.944.64,5.544c0.24,2.4.5,4.572,0.76,6.516s0.56,3.648.9,5.112a6.933,6.933,0,0,0,1.94,3.564,4.518,4.518,0,0,0,3.17,1.368q3.105,0,5.58-4.9t2.49-7.992a8.955,8.955,0,0,0-.72-4.284,2.209,2.209,0,0,0-1.08-1.188q-0.36,0-.36,1.44a15.609,15.609,0,0,1-4.61,9.792,1.11,1.11,0,0,1-.79.36q-2.025,0-2.02-13.176a81.316,81.316,0,0,1,4.03-25.488h0Zm29.95,33.12q0-1.872.36-5.472,0.075-1.152.33-2.736c0.17-1.056.31-1.92,0.43-2.592s0.32-1.584.61-2.736,0.49-1.992.61-2.52,0.36-1.428.72-2.7,0.6-2.124.72-2.556,0.39-1.344.8-2.736,0.73-2.484.97-3.276a10.175,10.175,0,0,0,.36-2.916,7.085,7.085,0,0,0-1.95-5.076,5.909,5.909,0,0,0-4.39-2.052,7.7,7.7,0,0,0-4.17,1.08q-9.51,5.832-12.17,11.664a6.12,6.12,0,0,0-.43,2.16,3.6,3.6,0,0,0,1.26,2.3,3.477,3.477,0,0,0,2.37,1.3,4.617,4.617,0,0,0,2.2-.576q2.37-1.368,6.48-6.984c0.19-.288.45-0.744,0.79-1.368a17.136,17.136,0,0,1,.97-1.62,4.665,4.665,0,0,1,1.26-1.224,2.52,2.52,0,0,1,1.23-.54,0.872,0.872,0,0,1,.86,1.08,3.377,3.377,0,0,1-.29,1.152q-6.2,15.552-6.19,29.088,0,8.5,4.54,12.672a4.734,4.734,0,0,0,3.16,1.44q2.745,0,4.9-3.672,10.215-17.928,10.22-35.5a51.018,51.018,0,0,0-1.51-12.96c-0.43-1.536-1.08-2.3-1.94-2.3-1.35,0-2.02.888-2.02,2.664,0,0.192.1,1.212,0.29,3.06a62.893,62.893,0,0,1,.29,6.372,66,66,0,0,1-6.48,28.44q-1.515,3.24-2.67,5.184a2.178,2.178,0,0,1-1.29,1.152q-1.23,0-1.23-6.7h0Zm60.84-37.008a4.145,4.145,0,0,0-3.81-2.232q-2.52,0-2.52,1.728a3.936,3.936,0,0,0,.79,2.232,35.218,35.218,0,0,1,5.33,18.828,49.8,49.8,0,0,1-4.83,20.772q-1.08,2.664-2.16,2.664-1.215,0-1.8-4.536a61.907,61.907,0,0,1-.57-7.416q0-2.88.79-11.3a1.179,1.179,0,0,0,.5-1.008c0-.432-0.41-0.7-1.22-0.792s-2.4-.144-4.75-0.144c-1.16,0-1.73.312-1.73,0.936a2.139,2.139,0,0,0,.5,1.3q-6.48,19.512-8.64,19.512a0.462,0.462,0,0,1-.5-0.54,4.9,4.9,0,0,1,.14-1.116,149.924,149.924,0,0,1,6.91-20.3q2.385-5.832,3.21-8.064a10.858,10.858,0,0,0,.83-3.312,5.65,5.65,0,0,0-2.42-4.752,8.471,8.471,0,0,0-5.18-1.8,15.792,15.792,0,0,0-6.23,1.512,22.015,22.015,0,0,0-6.23,4.1c-1.84,1.728-2.77,3.336-2.77,4.824a5.546,5.546,0,0,0,.94,3.456,2.963,2.963,0,0,0,2.48,1.224,9.638,9.638,0,0,0,3.06-.5,25.472,25.472,0,0,0,10.01-6.84q-1.44,2.88-2.38,5.112c-0.24.528-.68,1.488-1.33,2.88s-1.11,2.436-1.4,3.132-0.71,1.716-1.26,3.06-0.97,2.436-1.26,3.276-0.63,1.86-1.01,3.06a29.356,29.356,0,0,0-.83,3.1c-0.17.864-.32,1.776-0.47,2.736a17.394,17.394,0,0,0-.21,2.448,20.775,20.775,0,0,0,.11,2.16q0.1,1.152.18,2.52,0.36,4.176,1.72,5.616a5.306,5.306,0,0,0,3.75,1.584q2.805,0,4.32-3.024a59.461,59.461,0,0,0,2.48-5.508q1.485-3.636,2.05-4.788c0.1,0.48.3,1.668,0.62,3.564a33.5,33.5,0,0,0,1.26,5.22q1.725,5.256,6.26,5.256a7.169,7.169,0,0,0,6.48-3.96,45.4,45.4,0,0,0,.79-45.864h0Zm-24.48,4.1q-4.755,5.256-7.13,5.256c-0.57,0-.86-0.216-0.86-0.648a2.179,2.179,0,0,1,.79-1.44q2.385-2.376,7.2-3.168h0Zm72.15-2.3a5.059,5.059,0,0,1-.87-1.044,8.608,8.608,0,0,0-1.15-1.368,1.794,1.794,0,0,0-1.26-.54,2.678,2.678,0,0,0-1.69,1.368q-3.03,4.392-7.27,11.664,0-1.368-.15-3.96-0.285-5.544-5.9-7.632a9.715,9.715,0,0,0-3.64-.72,5.777,5.777,0,0,0-3.49,1.224c-0.29-1.3-.6-2.04-0.94-2.232-0.19,1.488-.36,2.664-0.5,3.528a31.2,31.2,0,0,0-3.78,6.084c-1.46,2.856-2.2,4.836-2.2,5.94a4.7,4.7,0,0,0,1.12,3.024,3.163,3.163,0,0,0,2.45,1.368q1.335,0,2.37-1.908c0.7-1.272,1.56-3.036,2.6-5.292s1.78-3.828,2.26-4.716,0.87-1.332,1.16-1.332q1.365,0,2.16,7.92c0.28,3.216.43,6.552,0.43,10.008q-1.515,2.952-8.5,18.216a1.07,1.07,0,0,1-.65.936l-1.08-1.152a3.174,3.174,0,0,0-1.9-1.08c-0.51,0-.76.36-0.76,1.08a16.677,16.677,0,0,0,.72,5.292,5.733,5.733,0,0,0,2.88,3.276,4.652,4.652,0,0,0,2.09.72q1.515,0,3.09-3.636t5.04-12.132a38.5,38.5,0,0,0,2.38,9.648,13.154,13.154,0,0,0,2.84,4.248,8.158,8.158,0,0,0,3.57,2.2,11.949,11.949,0,0,0,2.45.468,4.014,4.014,0,0,0,3.81-2.448,19.209,19.209,0,0,0,2.31-8.532c0-2.616-.32-3.924-0.94-3.924a2.312,2.312,0,0,0-1.22,1.3q-3.315,5.76-5.4,7.128a19.248,19.248,0,0,1-3.24-6.84q-1.155-4.536-1.16-15.7a109.877,109.877,0,0,1,8.14-14.472q0.435,5.688,1.3,5.688c0.76,0,1.58-1.248,2.44-3.744a19.07,19.07,0,0,0,1.3-5.292,3.393,3.393,0,0,0-1.22-2.628h0Zm46-3.6q-3.24,0-3.24,2.448a6.162,6.162,0,0,0,.15,1.224q-2.445,4.608-6.41,11.3c-0.62,1.008-1.49,2.424-2.59,4.248s-1.91,3.144-2.41,3.96-1.33,2.016-2.45,3.6a43.967,43.967,0,0,1-2.92,3.744,45.7,45.7,0,0,1-3.53,3.42c-1.53,1.368-2.71,2.052-3.52,2.052-0.87,0-1.3-.936-1.3-2.808s0.94-4.512,2.81-7.92q1.08-1.8,4.79-7.308a61.576,61.576,0,0,0,4.96-8.352,12.335,12.335,0,0,0,1.26-4.788,5.973,5.973,0,0,0-2.23-4.86,7.319,7.319,0,0,0-4.71-1.836,16.492,16.492,0,0,0-5.51,1.08,14.382,14.382,0,0,0-2.56,1.188q-1.62.9-2.16,1.26t-2.34,1.548q-1.8,1.188-2.01,1.332a3.778,3.778,0,0,0-1.66,3.312,8.549,8.549,0,0,0,.43,3.168,2.2,2.2,0,0,0,1.05,1.044,6.453,6.453,0,0,0,2.48.324,5.385,5.385,0,0,0,3.24-1.044,22.44,22.44,0,0,0,2.7-2.3,4,4,0,0,0,1.26-2.916l-0.07-.936a2.444,2.444,0,0,1,.36-1.008,5.508,5.508,0,0,1,1.65-.936,7.574,7.574,0,0,1,3.14-.648c1.12,0,1.69.336,1.69,1.008a2.547,2.547,0,0,1-.43,1.152q-4.26,6.192-6.27,9.144-1.08,1.728-2.59,4.428a59.706,59.706,0,0,0-2.99,6.228,17.5,17.5,0,0,0-1.47,6.732,13.588,13.588,0,0,0,1.33,5.976,18.25,18.25,0,0,0,1.98,3.492,7.1,7.1,0,0,0,5.4,2.3,8.743,8.743,0,0,0,6.19-2.952,28.156,28.156,0,0,0,2.48-2.628c0.65-.792,1.45-1.872,2.42-3.24s1.63-2.292,2.01-2.772a141.237,141.237,0,0,0-2.16,21.276q0,7.884,3.03,9.684a2.2,2.2,0,0,0,.86.288c0.96,0,1.85-.936,2.66-2.808q3.39-7.416,3.39-9.5a5.792,5.792,0,0,0-.9-2.412q-0.9-1.62-1.41-1.62a0.908,0.908,0,0,0-.43.72,0.8,0.8,0,0,1-.5.72q-0.87,0-.87-1.224a80.341,80.341,0,0,1,.8-8.64,90.509,90.509,0,0,1,11.16-34.56,4.08,4.08,0,0,0,.64-1.8q0-1.584-4.68-1.584h0Zm27.87,4.032a1.434,1.434,0,0,1-1.37-1.008l-0.5-1.224a7.416,7.416,0,0,0-.83-1.764,1.642,1.642,0,0,0-1.41-.54,29.136,29.136,0,0,0-5.86,1.728c-3.24,1.152-5.6,2.052-7.06,2.7a4.885,4.885,0,0,0-2.74,2.268,8.686,8.686,0,0,0-.54,3.312c0,1.344.28,2.2,0.83,2.556a4.943,4.943,0,0,0,2.63.54,20.411,20.411,0,0,0,10.58-2.448q5.04-.432,7.71-0.432,5.115,0,5.11,1.224c0,0.384-.62,1.308-1.87,2.772s-4.08,4.536-8.5,9.216-7.81,8.436-10.19,11.268-3.56,5.64-3.56,8.424a9.426,9.426,0,0,0,.86,3.96,7.449,7.449,0,0,0,4.11,4.32,19.55,19.55,0,0,0,6.84,1.008q12.165,0,14.04-6.192a5.96,5.96,0,0,0,.43-2.088,0.828,0.828,0,0,0-.94-0.936l-0.64.072a116.552,116.552,0,0,1-17,1.944c-1.77,0-2.66-.672-2.66-2.016q0-3.312,5.4-8.5,2.31-2.232,7.96-7.056c3.76-3.216,6.66-5.868,8.67-7.956a9.36,9.36,0,0,0,3.03-6.516,7.276,7.276,0,0,0-.44-2.448q-2.445-6.264-10-6.264Z"/>
  <path id="logo" class="cls-1" d="M706.266,1194.7a45.969,45.969,0,0,0-.118,5.15v5.16H677.555v-1.17l0.234-.94-1.406-.24c-1.1,0-2.659-.07-4.688-0.23h-3.281l-0.469,2.58a45.646,45.646,0,0,1-1.172,4.92,22.619,22.619,0,0,1-1.406,4.22,7.125,7.125,0,0,0-.82,2.23,6.584,6.584,0,0,0,2.109-.71c1.326-.54,2.615-1.13,3.867-1.76a11.566,11.566,0,0,0,3.516-2.81l1.641-1.64h66.8l1.875,1.88a14.477,14.477,0,0,0,3.75,2.81c1.406,0.62,2.655,1.17,3.75,1.64a1.036,1.036,0,1,0,1.171-1.17,17.1,17.1,0,0,1-1.406-3.99q-0.7-2.34-1.172-4.68a11.9,11.9,0,0,0-.7-3.05c0-.47-1.252-0.62-3.75-0.47-1.875.16-3.281,0.23-4.219,0.23a2.052,2.052,0,0,1-.937.24c-0.315,0-.469.31-0.469,0.94l0.235,0.93-13.594.24q-13.359,0-13.36-.24a2.838,2.838,0,0,1,.7-1.05,6.664,6.664,0,0,0,1.171-2.46,15.728,15.728,0,0,0,.469-4.22v-2.58h-4.687Q706.382,1194.46,706.266,1194.7Zm-31.289,28.12v4.22l21.093,0.23h21.094l-5.859,4.93q-5.4,4.215-8.2,6.56l-2.344,1.87v6.8H660.445v4.22h40.313v14.76c0,10.01-.158,15.47-0.469,16.41a13.152,13.152,0,0,1-1.172,3.05,21,21,0,0,1-2.578,3.04,16.962,16.962,0,0,1-3.75,2.82c-1.406.62-2.109,1.17-2.109,1.64s0.153,0.7.468,0.7a30.375,30.375,0,0,0,3.047-.47,34.353,34.353,0,0,0,4.922-1.4,16.4,16.4,0,0,0,4.688-1.88,11.74,11.74,0,0,0,3.515-2.34,12.264,12.264,0,0,0,2.344-2.58,13,13,0,0,0,1.172-2.58c0.311-.94.469-6.4,0.469-16.41v-14.76h38.2v-4.22h-38.2v-6.8l2.109-1.64q2.109-1.635,8.438-6.79,6.327-5.4,8.437-7.04a13.637,13.637,0,0,0,2.578-2.34q0-.225-28.828-0.23t-29.062.23h0Zm121.64-30.23-0.469,1.87a27.635,27.635,0,0,1-1.523,5.74c-0.861,2.43-1.681,4.65-2.461,6.68q-1.176,2.58-3.281,6.8-1.88,3.75-4.453,8.44-2.11,3.75-4.688,7.73-2.582,4.215-3.047,4.92a7.818,7.818,0,0,0-1.406,2.11c-0.157.47-.117,0.71,0.117,0.71a8.252,8.252,0,0,0,2.227-1.18q1.873-1.17,3.515-2.34,1.874-1.41,3.985-3.28a59.714,59.714,0,0,0,4.453-4.45l2.109-2.35,0.235,14.77,0.234,14.76h1.875a5.862,5.862,0,0,0,3.047-.7,5.457,5.457,0,0,0,1.875-1.17,11.374,11.374,0,0,0,1.406-1.64l0.469-.71h27.187v2.11l0.235,2.11h1.64a7.437,7.437,0,0,0,2.813-.47,9.072,9.072,0,0,0,2.109-1.17,4.666,4.666,0,0,0,1.407-1.64l0.7-.94h31.64v-4.45H838.336v-6.8H868.57v-4.45H838.336v-6.8H868.57v-4.68H838.336v-7.5H868.57v-4.69H837.164l0.938-1.17a23.668,23.668,0,0,0,1.406-2.35,6.445,6.445,0,0,0,.7-2.57,17.74,17.74,0,0,0,.469-4.93v-3.51H828.727v14.53H815.6q-13.129,0-13.125-.23c0-.16-0.158-0.24-0.469-0.24s0.311-1.41,1.875-4.22a69.182,69.182,0,0,0,3.281-7.5,16.732,16.732,0,0,0,1.406-3.98l0.235-1.17H796.617Zm31.406,22.03v7.5H802.477v-7.5h25.546Zm0,12.18v6.8H802.477v-6.8h25.546Zm0,11.25v6.8H802.477v-6.8h25.546Zm-3.515,16.88v5.16l-22.969.23H778.805v4.45h45.7v1.64c0,1.1-.081,1.64-0.235,1.64a40.222,40.222,0,0,1-4.687-1.17q-4.455-1.17-4.922-1.4-0.236,0-6.328,4.68-6.1,4.935-7.734,6.1-1.643.93-4.454,2.58a58.967,58.967,0,0,1-5.39,2.57q-2.812,1.185-5.391,2.23a35.226,35.226,0,0,1-5.859,1.76,17.416,17.416,0,0,0-3.047,1.05,6.06,6.06,0,0,0,1.289,1.06,3.994,3.994,0,0,0,1.992.94c0.469,0,2.344-.32,5.625-0.94s6.328-1.33,9.141-2.11q4.449-1.17,8.2-2.35a22.822,22.822,0,0,0,4.922-2.1q1.637-.945,9.14-6.1t7.618-5.04q0.115,0.12.117,13.48v13.12h1.406a7.357,7.357,0,0,0,2.813-.7,6.692,6.692,0,0,0,3.046-1.99,11.184,11.184,0,0,0,2.11-3.17,8.733,8.733,0,0,0,.586-2.34q0.115-1.17.117-6.33c0.154-4.68.271-7.11,0.352-7.26s1.442,0.55,4.1,2.11q3.982,2.1,6.8,3.51a34.945,34.945,0,0,0,6.328,2.58,54.282,54.282,0,0,0,6.328,1.64,52.974,52.974,0,0,0,5.625.94c1.718,0.16,4.219.23,7.5,0.23a38.521,38.521,0,0,0,5.86-.23,1.37,1.37,0,0,0,1.171-.94l0.235-1.17c0-.15-0.235-0.24-0.7-0.24-0.315,0-1.722-.23-4.219-0.7s-5-1.01-7.5-1.64q-3.516-.93-6.8-2.11-2.812-.93-5.625-2.11-2.346-1.17-10.078-6.33l-7.734-5.15,19.453-.24h19.453v-4.45H854.977l-20.157-.23v-2.58l-0.234-2.58H824.508Z"/>
</svg>
