<svg xmlns="http://www.w3.org/2000/svg" width="400" height="200" viewBox="0 0 400 200">
  <defs>
    <style>
      .cls-1 {
        fill: #fdfdfd;
        fill-rule: evenodd;
      }
    </style>
  </defs>
  <path id="沐瑶随心手写" class="cls-1" d="M78.8,104.789a1.521,1.521,0,0,1,.375.844,6.079,6.079,0,0,0-.656,1.781,45.451,45.451,0,0,1-7.406,4.125,6.309,6.309,0,0,1-1.312-.469,7.125,7.125,0,0,1-2.062-2.437q3.375-1.875,6.844-3.563a19.06,19.06,0,0,1,4.219-.281h0Zm-5.437-6.937a7.5,7.5,0,0,1,3.656,1.219V100.1q-4.97,1.314-10.219,2.156a6.206,6.206,0,0,1-2.719-2.813,6.368,6.368,0,0,1,1.875-.844q3.562-.468,7.406-0.75h0Zm3.281-7.5a7.413,7.413,0,0,1,1.5.656A1.651,1.651,0,0,1,77.3,92.7q-2.531,0-5.062.188-1.314-.562-2.344-1.125a19.151,19.151,0,0,1-1.969-2.25,61.475,61.475,0,0,1,8.719.844h0Zm8.531-3.469a12.075,12.075,0,0,1,3.656.563,2.6,2.6,0,0,1,.656.75q0.374,3.094.563,6.188a22.823,22.823,0,0,1,3.563.281A2.815,2.815,0,0,1,95.2,95.6v1.031l-5.25.75a9.163,9.163,0,0,0,0,2.625,90.028,90.028,0,0,0,10.125,4.406,1.441,1.441,0,0,1,.656,1.031,4.187,4.187,0,0,1-.75.75,45.851,45.851,0,0,1-10.219-3.562,39.869,39.869,0,0,0,.188,9.469c-0.187.126-.407,0.281-0.656,0.468a3.1,3.1,0,0,1-1.406-.468,19.425,19.425,0,0,0-1.594-1.594q-0.094-4.593-.375-9.188-1.6,2.064-3.094,3.938a3.775,3.775,0,0,1-2.062.187,5.352,5.352,0,0,1-1.687-2.062q1.688-2.906,3.281-5.625a14.352,14.352,0,0,1-1.594.094,4.746,4.746,0,0,1-2.812-2.906,62.018,62.018,0,0,1,7.688-.469,64.058,64.058,0,0,1-.469-7.594h0Zm39.281,5.063a2.974,2.974,0,0,1,1.875,1.125,1.284,1.284,0,0,1-.469,1.219q-1.406.189-2.718,0.281,0.091,2.345.281,4.875a16.583,16.583,0,0,0,3.375.844,0.981,0.981,0,0,1,.375.656,1.99,1.99,0,0,1-.469,1.313,8.363,8.363,0,0,0-3.094.75,14.622,14.622,0,0,0,1.032,4.406q2.061,0.094,4.031.281a17.251,17.251,0,0,0-1.5-1.5,0.475,0.475,0,0,1,.187-0.562,44.947,44.947,0,0,0,8.063-.75,35.076,35.076,0,0,1,0-5.156,7.677,7.677,0,0,0-3.469.843v3.75a3.76,3.76,0,0,0-.469.563,2.233,2.233,0,0,1-1.687-.281q-1.033-1.125-1.969-1.969a72.549,72.549,0,0,1-.375-7.406,15.583,15.583,0,0,0,.656-1.5,20.659,20.659,0,0,1,2.719.188,2.935,2.935,0,0,1,1.781,1.125,3.4,3.4,0,0,0,0,1.594q4.219-.187,8.438-0.094a24.885,24.885,0,0,1,4.781.844c0.249,0.251.5,0.5,0.75,0.75a1.229,1.229,0,0,1-.562,1.219,29.141,29.141,0,0,0-5.719,0,15.758,15.758,0,0,0-.375,5.437h4.594a9.531,9.531,0,0,1,3.281.938,1.2,1.2,0,0,1-.281,1.593,36.235,36.235,0,0,0-7.782.282,29.978,29.978,0,0,0,.094,6.281,17.586,17.586,0,0,1,4.406-.188V108.82a0.6,0.6,0,0,1,.469-0.468,21.689,21.689,0,0,1,2.813.375,2.6,2.6,0,0,1,1.5,1.218,41.219,41.219,0,0,0-.375,8.907,6.082,6.082,0,0,0-.657.562,3.785,3.785,0,0,1-1.5-.281,5.779,5.779,0,0,1-2.156-3,100.97,100.97,0,0,1-12.375.937,7.258,7.258,0,0,1-2.812-1.312q-1.125-1.312-2.344-2.625a7.758,7.758,0,0,1-.563-2.906q-4.032,1.125-8.156,1.968a5.322,5.322,0,0,1-1.687-.843A7.528,7.528,0,0,1,114.7,109.2a55.526,55.526,0,0,0,6.563-1.5,33.128,33.128,0,0,0-1.313-3.75,8.309,8.309,0,0,1-3.187.657,17.666,17.666,0,0,1-2.719-2.532,9.42,9.42,0,0,1,5.062-1.687,38.3,38.3,0,0,0-.468-5.906,4.585,4.585,0,0,0-1.875.188q-1.5-.468-2.813-0.937A7.872,7.872,0,0,1,111.8,91.2q6.655,0.376,12.656.75h0Zm3.188,18a4.743,4.743,0,0,1,2.906.75,33.281,33.281,0,0,0,.844,3.657,39.027,39.027,0,0,0,5.343-.188,8.589,8.589,0,0,0-.843-1.031q-0.189-2.532-.375-4.875a20.428,20.428,0,0,1-5.532.375,3.809,3.809,0,0,0-.937-0.563,6.15,6.15,0,0,1-1.406,1.875h0Zm14.718-25.031a10.465,10.465,0,0,0,2.063.188,3.184,3.184,0,0,1,2.156,1.313q-1.125,4.032-2.625,8.063a4.554,4.554,0,0,1-2.437.844,6.363,6.363,0,0,1-1.594-2.906,25.108,25.108,0,0,1,2.437-7.5h0Zm-8.343-.562a8.066,8.066,0,0,1,4.125,1.313,18.959,18.959,0,0,0-.657,4.5,3.554,3.554,0,0,1,.657,1.875,7.182,7.182,0,0,1-.75.656,3.283,3.283,0,0,1-1.782-.469q-1.032-1.125-1.968-1.969a13.569,13.569,0,0,1-.75-4.5,3.735,3.735,0,0,1,1.125-1.406h0Zm-3.844.563a4.144,4.144,0,0,1,.844.938,3.517,3.517,0,0,1-.282,1.406,10.447,10.447,0,0,0,1.407,4.125,9.32,9.32,0,0,1,1.406,1.313,1.4,1.4,0,0,1-.563,1.5,4.762,4.762,0,0,1-2.625-.937,39.532,39.532,0,0,1-3.093-3.469q-0.471-1.78-1.032-3.375a4.462,4.462,0,0,1,.282-2.062,9.535,9.535,0,0,1,3.656.563h0Zm10.406-4.594a6.368,6.368,0,0,1,3.563,1.969,1.8,1.8,0,0,1-.563,1.313,24.885,24.885,0,0,0-6.187-.562l-5.813,1.125q-0.751-.281-1.406-0.562a2.627,2.627,0,0,1-1.219-2.062q2.343-.749,4.875-1.312a34.743,34.743,0,0,1,6.75.094h0ZM159.8,86.414q4.781,0.189,9.656.656a31.8,31.8,0,0,1,6.375,1.594,2.135,2.135,0,0,1,.844,1.594,2.289,2.289,0,0,1-.469,1.125,8.245,8.245,0,0,1,3,1.406,3.57,3.57,0,0,1,.563,2.344,2.371,2.371,0,0,1-1.407.469,14.147,14.147,0,0,1-3.375-2.906q-1.406.844-2.625,1.688,1.313,0.657,2.813,1.594a9.053,9.053,0,0,1,2.25,3q0.092,0.844.187,1.875a6.274,6.274,0,0,1-1.5,2.062,13.806,13.806,0,0,1,5.063,0,3.622,3.622,0,0,1,1.687.844,1.953,1.953,0,0,1,.375,1.5,11.986,11.986,0,0,1-1.781,2.719,12.4,12.4,0,0,1,1.5,1.875,18.161,18.161,0,0,1-.094,3.187q4.125,1.033,8.532,1.969a14.166,14.166,0,0,1,3.656,1.5,0.9,0.9,0,0,1-.281.656h-2.438a136.82,136.82,0,0,1-19.219-4.687,7.5,7.5,0,0,1-1.968-2.438,23.417,23.417,0,0,1,6.937,1.594,5.942,5.942,0,0,0,.469-1.875,21.547,21.547,0,0,1-2.438-2.25,1.87,1.87,0,0,1,.469-1.125,4.16,4.16,0,0,1-2.344.75,7.335,7.335,0,0,1-2.812-2.531,0.729,0.729,0,0,1,.469-0.75l-3.844.187a36.856,36.856,0,0,0,.187,5.25q0.655,2.158,1.407,4.594a1.541,1.541,0,0,1-1.032.562,14.161,14.161,0,0,1-1.968-1.593q-0.657-1.5-1.219-2.907-0.657-3.28-1.125-6.562-0.376-7.032-.75-13.875a3.561,3.561,0,0,0-2.156.469,7.576,7.576,0,0,1-1.594-.656,3.4,3.4,0,0,1-1.688-2.437,4.84,4.84,0,0,1,1.688-.469h0Zm8.25,15.094q1.688-.282,3.469-0.656a6.424,6.424,0,0,0,2.25-1.594,3,3,0,0,0-.938-2.531,8.485,8.485,0,0,0-4.687-.75,53.1,53.1,0,0,0-.094,5.531h0Zm0.094-9a10.852,10.852,0,0,0,3.937-2.812q-1.968-.187-3.844-0.187a15.6,15.6,0,0,0-.093,3h0ZM189.8,82.383a8.524,8.524,0,0,1,3.75.656,1.647,1.647,0,0,1,.562,1.5,26.244,26.244,0,0,1-1.875,2.719,21.472,21.472,0,0,0,4.688.844,3.067,3.067,0,0,1,1.594.844,1.143,1.143,0,0,1-.657,1.406q-3.656-.374-7.406-0.656a6.7,6.7,0,0,0-1.406,1.688,13.424,13.424,0,0,1,3.937,1.594,16.641,16.641,0,0,1,3.188,2.813,23.259,23.259,0,0,1,1.5,2.719q0.468,2.625.844,5.437-0.189,2.532-.469,4.969a7.421,7.421,0,0,1-2.25,3.188,5.775,5.775,0,0,1-1.125-.094,11.267,11.267,0,0,1-1.969-1.875,20.1,20.1,0,0,0,2.25-3.938,5.332,5.332,0,0,0,0-1.406,26.214,26.214,0,0,0-6.375,1.031,7.561,7.561,0,0,0,.094,2.063q0.936,2.625,1.969,5.25a1.274,1.274,0,0,1-1.407.469,17.628,17.628,0,0,1-2.25-1.875q-0.751-1.687-1.5-3.282a63.235,63.235,0,0,1-1.031-11.25,13.335,13.335,0,0,0-2.437,4.125h-0.844a9.062,9.062,0,0,1-2.156-1.875,27.956,27.956,0,0,1,.937-2.719,49.606,49.606,0,0,1,3.844-6.281,8.7,8.7,0,0,1-2.625-2.625,12.115,12.115,0,0,1,2.625-1.031q1.217,0.094,2.531.094,1.78-2.342,3.469-4.5h0Zm-0.938,17.156a4.656,4.656,0,0,0-.281,2.531,22.858,22.858,0,0,1,6.469.938,10.323,10.323,0,0,0-.844-3.75,16.593,16.593,0,0,0-5.344.281h0Zm0.094-3.375q2.25,0.189,4.406.375a7.344,7.344,0,0,0-1.5-1.594,9.047,9.047,0,0,0-2.718-1.031,3.428,3.428,0,0,0-.188,2.25h0Zm44.438-2.719a23.79,23.79,0,0,1,7.5,1.969,4.9,4.9,0,0,1,1.125,1.125,1.637,1.637,0,0,1-.75,1.5q-3-.844-5.813-1.781-1.22-1.312-2.344-2.344c-0.063-.312.031-0.469,0.282-0.469h0Zm-19.125-3.187a17.848,17.848,0,0,1,3.937.844,2.338,2.338,0,0,1,.656.844,7.788,7.788,0,0,1-1.968,3.75,36.754,36.754,0,0,0-1.782,5.813,6.078,6.078,0,0,1-1.781.656,7.083,7.083,0,0,1-2.531-2.906q0.468-2.812.937-5.344,1.218-1.874,2.532-3.656h0Zm9.468-.187a9.7,9.7,0,0,1,4.219.938,4.818,4.818,0,0,0,.469.75,46.683,46.683,0,0,0-.375,6,19.527,19.527,0,0,1,.75,2.719,10.3,10.3,0,0,1-.844.75,6.733,6.733,0,0,1-1.312-.282,7.456,7.456,0,0,1-2.719-3.281,0.961,0.961,0,0,0-.75,1.031,16.993,16.993,0,0,0-.281,5.907,4.072,4.072,0,0,0,1.593,1.968,8.989,8.989,0,0,0,2.719-1.031,31.716,31.716,0,0,0,2.625-2.344,19.934,19.934,0,0,0,2.625-4.968,3.2,3.2,0,0,1,2.156,0,6.079,6.079,0,0,1,1.032,1.125q-0.189,1.22-.469,2.437-1.125,1.969-2.25,3.844l-2.25,2.25a10.814,10.814,0,0,1-3.656,1.406q-1.5-.281-2.907-0.469c-0.625-.375-1.251-0.717-1.875-1.031a22.313,22.313,0,0,1-3.562-3.844,20.427,20.427,0,0,1-.563-2.531q0-2.342.094-4.5a9.8,9.8,0,0,1,.656-1.781,11.657,11.657,0,0,1,4.782,1.5,13.655,13.655,0,0,1,.093-6.562h0Zm54-7.5a16.147,16.147,0,0,1,3.469.563,1.807,1.807,0,0,1,.938,1.875,3.178,3.178,0,0,1-.844.75l-2.25.188q-2.721,1.22-5.25,2.25a7.946,7.946,0,0,1,2.625,2.906q1.688-.281,3.469-0.469a26.9,26.9,0,0,1,2.906.563,1.429,1.429,0,0,1,.562,1.406,24.757,24.757,0,0,1-5.25,1.313,48.591,48.591,0,0,0,2.25,4.969,43.386,43.386,0,0,1,9,0,3.287,3.287,0,0,1,1.032.75,1.084,1.084,0,0,1-.469,1.125,54.889,54.889,0,0,0-8.531.281q0.563,2.344,1.312,4.969a24.217,24.217,0,0,1,0,3q-0.375,1.125-.844,2.344-0.657.657-1.312,1.406-1.877,1.125-3.844,2.062-2.719.752-5.344,1.5-2.719.189-5.437,0.469a4.359,4.359,0,0,0-1.969-.469,1.638,1.638,0,0,1-.75-1.031q3.657-.748,7.5-1.219a48.217,48.217,0,0,0,4.969-1.968,26.589,26.589,0,0,0,2.625-2.157,8,8,0,0,0,.937-1.968q0-1.407-.093-2.907a27.223,27.223,0,0,0-1.313-3.375,131.722,131.722,0,0,0-16.687,4.782,13.008,13.008,0,0,1-2.907-2.625,3.465,3.465,0,0,1,.094-0.844q6.561-1.781,13.313-3.281a46.371,46.371,0,0,0,5.062-.656q-1.125-2.155-2.156-4.125a25.09,25.09,0,0,0-7.031,2.813q-0.657.657-1.313,1.406a3.733,3.733,0,0,1-1.875-.094,13.726,13.726,0,0,1-2.625-2.812,16.46,16.46,0,0,1,2.156-1.969q4.22-1.5,8.719-2.625a8.182,8.182,0,0,0-1.594-2.344,29.343,29.343,0,0,0-4.5,2.063q-0.937-.187-1.687-0.375a2.832,2.832,0,0,1-1.313-2.156q5.625-3.186,11.157-6,1.5-.187,3.093-0.281h0Zm33.75,25.313q7.313,0,14.719.094a9.443,9.443,0,0,1,3.188.937,1.35,1.35,0,0,1-.469,1.406q-7.127.095-14.063,0.75a11.664,11.664,0,0,0-1.406,1.032h-1.219a7.777,7.777,0,0,1-2.718-2.813,10.33,10.33,0,0,1,1.968-1.406h0Zm6.094-18.75a16.662,16.662,0,0,0,2.719.375,3.309,3.309,0,0,1,1.406,1.125q-0.375,1.406-.75,2.719,3.375-.374,6.844-0.562a15.374,15.374,0,0,1,3.562,1.031,1.611,1.611,0,0,1-.75,1.594,34.951,34.951,0,0,0-11.25,2.156q-0.375,1.5-.656,2.813a13.332,13.332,0,0,1,6.656,0q1.313,0.469,2.813,1.031a22.814,22.814,0,0,1,4.031,2.906,17.412,17.412,0,0,1,1.969,3.094,30.04,30.04,0,0,1,.187,3.469,15.1,15.1,0,0,0-.656,1.781,22.468,22.468,0,0,1-2.906,2.625,34.368,34.368,0,0,1-3.938,1.594,46.366,46.366,0,0,1-5.156.469,3.907,3.907,0,0,1-2.437-1.407,2.272,2.272,0,0,1,.281-0.562,38.467,38.467,0,0,1,4.031-.375q1.781-.656,3.656-1.406a9.866,9.866,0,0,1,1.875-1.5,15.616,15.616,0,0,0,1.594-2.532,7.054,7.054,0,0,0-.469-3.843,6.839,6.839,0,0,0-1.781-1.969,6.53,6.53,0,0,0-5.437-1.031,35.077,35.077,0,0,0-4.969,2.812,5.422,5.422,0,0,1-1.5-.187q-1.22-1.125-2.25-2.157a60.53,60.53,0,0,1,1.969-12.281,4.291,4.291,0,0,1,1.312-1.781h0ZM310.453,82.1q1.407,0.094,2.813.281a2.066,2.066,0,0,1,1.5,1.594,37.206,37.206,0,0,1,4.593-.656h7.125q2.156,0.281,4.407.656a8.736,8.736,0,0,1,3.562,1.781,5.017,5.017,0,0,1,1.313,3.563,19.79,19.79,0,0,1-1.125,3.188,14.775,14.775,0,0,1-1.407,1.406h-1.125a11.478,11.478,0,0,1-2.343-2.25,10.088,10.088,0,0,0,2.062-3.656,3,3,0,0,0-.375-1.875q-1.219-.281-2.344-0.469a42.942,42.942,0,0,0-9.093.75q-2.345.751-4.594,1.688-0.657.563-1.219,1.125a2.194,2.194,0,0,0-1.125.094,55.514,55.514,0,0,0-.187,6.469,3.8,3.8,0,0,0,1.218,2.438,1.511,1.511,0,0,1-.375,1.219,3.349,3.349,0,0,1-1.125,0,11.308,11.308,0,0,1-2.906-2.812,14.7,14.7,0,0,1-.75-3.281V83.883a8.425,8.425,0,0,1,1.5-1.781h0Z"/>
</svg>
