<svg xmlns="http://www.w3.org/2000/svg" width="1540" height="1450" viewBox="0 0 1540 1450">
  <defs>
    <style>
      .cls-1 {
        fill: #fff;
      }

      .cls-1, .cls-2, .cls-3 {
        fill-rule: evenodd;
      }

      .cls-2 {
        fill: #fefefe;
      }

      .cls-3 {
        fill: #fdfdfd;
      }
    </style>
  </defs>
  <path id="字体名称" class="cls-1" d="M264.969,268.75a6.323,6.323,0,0,1,1.562,3.516,25.351,25.351,0,0,0-2.734,7.422,189.411,189.411,0,0,1-30.859,17.187,26.542,26.542,0,0,1-5.469-1.953q-6.253-5.072-8.594-10.156,14.063-7.81,28.516-14.844a79.271,79.271,0,0,1,17.578-1.172h0Zm-22.657-28.906a31.236,31.236,0,0,1,15.235,5.078v4.3q-20.709,5.475-42.578,8.984a25.842,25.842,0,0,1-11.328-11.719,26.526,26.526,0,0,1,7.812-3.515q14.841-1.95,30.859-3.125h0Zm13.672-31.25a30.884,30.884,0,0,1,6.25,2.734q0.779,3.909-3.515,7.031-10.547,0-21.094.782-5.475-2.344-9.766-4.688a79.872,79.872,0,0,1-8.2-9.375,256.107,256.107,0,0,1,36.328,3.516h0Zm35.547-14.453a50.33,50.33,0,0,1,15.235,2.343,10.85,10.85,0,0,1,2.734,3.125q1.557,12.891,2.344,25.782a95.125,95.125,0,0,1,14.844,1.171,11.727,11.727,0,0,1,6.64,3.907v4.3q-10.941,1.565-21.875,3.125a38.171,38.171,0,0,0,0,10.937,375.291,375.291,0,0,0,42.188,18.36,6,6,0,0,1,2.734,4.3,17.508,17.508,0,0,1-3.125,3.125,191.163,191.163,0,0,1-42.578-14.843,166.121,166.121,0,0,0,.781,39.453c-0.781.525-1.7,1.172-2.734,1.953a12.942,12.942,0,0,1-5.86-1.953,80.844,80.844,0,0,0-6.64-6.641q-0.394-19.134-1.563-38.281-6.647,8.6-12.89,16.406a15.709,15.709,0,0,1-8.594.781,22.312,22.312,0,0,1-7.031-8.593q7.03-12.1,13.671-23.438a59.66,59.66,0,0,1-6.64.391q-9.375-4.294-11.719-12.11a258.417,258.417,0,0,1,32.031-1.953,266.946,266.946,0,0,1-1.953-31.64h0ZM455.2,215.234a12.4,12.4,0,0,1,7.813,4.688A5.354,5.354,0,0,1,461.062,225q-5.859.788-11.328,1.172,0.386,9.768,1.172,20.312A69.186,69.186,0,0,0,464.969,250a4.078,4.078,0,0,1,1.562,2.734,8.285,8.285,0,0,1-1.953,5.469,34.872,34.872,0,0,0-12.89,3.125,60.936,60.936,0,0,0,4.3,18.36q8.588,0.393,16.8,1.171a71.23,71.23,0,0,0-6.25-6.25,1.979,1.979,0,0,1,.781-2.343,187.3,187.3,0,0,0,33.594-3.125,146.149,146.149,0,0,1,0-21.485,31.956,31.956,0,0,0-14.453,3.516V266.8a15.378,15.378,0,0,0-1.953,2.344,9.3,9.3,0,0,1-7.031-1.172q-4.3-4.687-8.2-8.2a301.6,301.6,0,0,1-1.563-30.86,65.406,65.406,0,0,0,2.735-6.25,86.088,86.088,0,0,1,11.328.782,12.234,12.234,0,0,1,7.422,4.687,14.186,14.186,0,0,0,0,6.641q17.577-.778,35.156-0.391a103.687,103.687,0,0,1,19.922,3.516q1.556,1.565,3.125,3.125a5.123,5.123,0,0,1-2.344,5.078,121.294,121.294,0,0,0-23.828,0,65.715,65.715,0,0,0-1.563,22.656H538.8a39.743,39.743,0,0,1,13.672,3.906q1.95,3.909-1.172,6.641a150.8,150.8,0,0,0-32.422,1.172,124.637,124.637,0,0,0,.391,26.172,73.189,73.189,0,0,1,18.359-.782V285.547a2.507,2.507,0,0,1,1.953-1.953,90.661,90.661,0,0,1,11.719,1.562,10.846,10.846,0,0,1,6.25,5.078,171.876,171.876,0,0,0-1.563,37.11,25.227,25.227,0,0,0-2.734,2.344,15.726,15.726,0,0,1-6.25-1.172q-7.032-5.466-8.984-12.5a420.884,420.884,0,0,1-51.563,3.906,30.241,30.241,0,0,1-11.719-5.469q-4.687-5.466-9.765-10.937a32.308,32.308,0,0,1-2.344-12.11q-16.8,4.688-33.984,8.2a22.245,22.245,0,0,1-7.032-3.515,31.364,31.364,0,0,1-7.031-8.985,231.387,231.387,0,0,0,27.344-6.25,138.5,138.5,0,0,0-5.469-15.625,34.631,34.631,0,0,1-13.281,2.735,73.626,73.626,0,0,1-11.328-10.547q8.588-6.245,21.094-7.031a159.6,159.6,0,0,0-1.954-24.61,19.128,19.128,0,0,0-7.812.781q-6.254-1.95-11.719-3.906a32.794,32.794,0,0,1-8.984-10.547q27.731,1.566,52.734,3.125h0Zm13.281,75a19.746,19.746,0,0,1,12.11,3.125,139.021,139.021,0,0,0,3.515,15.235,162.933,162.933,0,0,0,22.266-.782,35.9,35.9,0,0,0-3.516-4.3q-0.787-10.548-1.562-20.313a85.071,85.071,0,0,1-23.047,1.563,15.887,15.887,0,0,0-3.906-2.344,25.621,25.621,0,0,1-5.86,7.812h0Zm61.328-104.3a43.636,43.636,0,0,0,8.594.781,13.267,13.267,0,0,1,8.985,5.469q-4.687,16.8-10.938,33.593A18.972,18.972,0,0,1,526.3,229.3a26.511,26.511,0,0,1-6.641-12.109,104.713,104.713,0,0,1,10.156-31.25h0Zm-34.765-2.344a33.6,33.6,0,0,1,17.187,5.468,78.914,78.914,0,0,0-2.734,18.75,14.811,14.811,0,0,1,2.734,7.813,29.531,29.531,0,0,1-3.125,2.734,13.666,13.666,0,0,1-7.421-1.953q-4.3-4.687-8.2-8.2a56.548,56.548,0,0,1-3.125-18.75,15.563,15.563,0,0,1,4.688-5.859h0Zm-16.016,2.344a17.192,17.192,0,0,1,3.516,3.906,14.692,14.692,0,0,1-1.172,5.859,43.493,43.493,0,0,0,5.859,17.188,38.691,38.691,0,0,1,5.86,5.468,5.827,5.827,0,0,1-2.344,6.25,19.834,19.834,0,0,1-10.938-3.906,165.06,165.06,0,0,1-12.89-14.453q-1.959-7.416-4.3-14.062a18.621,18.621,0,0,1,1.172-8.594,39.723,39.723,0,0,1,15.234,2.344h0Zm43.36-19.141a26.517,26.517,0,0,1,14.843,8.2,7.492,7.492,0,0,1-2.343,5.469,103.748,103.748,0,0,0-25.782-2.344l-24.218,4.687q-3.132-1.172-5.86-2.343-5.08-3.9-5.078-8.594,9.759-3.121,20.313-5.469a144.749,144.749,0,0,1,28.125.391h0Zm80.078,25.391q19.921,0.786,40.234,2.734a132.6,132.6,0,0,1,26.563,6.64,8.9,8.9,0,0,1,3.515,6.641,9.528,9.528,0,0,1-1.953,4.688,34.345,34.345,0,0,1,12.5,5.859,14.873,14.873,0,0,1,2.344,9.766,9.877,9.877,0,0,1-5.86,1.953,58.86,58.86,0,0,1-14.062-12.11q-5.859,3.516-10.938,7.032,5.466,2.738,11.719,6.64a37.664,37.664,0,0,1,9.375,12.5q0.386,3.516.782,7.813a26.186,26.186,0,0,1-6.25,8.594,57.465,57.465,0,0,1,21.093,0,15.1,15.1,0,0,1,7.031,3.515,8.143,8.143,0,0,1,1.563,6.25,49.859,49.859,0,0,1-7.422,11.328,51.816,51.816,0,0,1,6.25,7.813,76.091,76.091,0,0,1-.391,13.281q17.185,4.3,35.547,8.2a59.078,59.078,0,0,1,15.235,6.25,3.744,3.744,0,0,1-1.172,2.734H738.016a569.757,569.757,0,0,1-80.078-19.531,31.222,31.222,0,0,1-8.2-10.156,97.57,97.57,0,0,1,28.907,6.641,24.76,24.76,0,0,0,1.953-7.813,89.9,89.9,0,0,1-10.156-9.375,7.772,7.772,0,0,1,1.953-4.687,17.34,17.34,0,0,1-9.766,3.125,30.563,30.563,0,0,1-11.719-10.547,3.038,3.038,0,0,1,1.953-3.125q-8.2.393-16.015,0.781a153.239,153.239,0,0,0,.781,21.875q2.728,8.991,5.859,19.141a6.412,6.412,0,0,1-4.3,2.343,59.337,59.337,0,0,1-8.2-6.64q-2.738-6.245-5.078-12.11-2.737-13.668-4.687-27.343-1.566-29.3-3.125-57.813a14.848,14.848,0,0,0-8.985,1.953,31.63,31.63,0,0,1-6.64-2.734q-6.647-4.687-7.031-10.156a20.132,20.132,0,0,1,7.031-1.953h0Zm34.375,62.89q7.03-1.172,14.453-2.734a26.725,26.725,0,0,0,9.375-6.641q0.384-6.638-3.906-10.547a35.371,35.371,0,0,0-19.532-3.125,221.12,221.12,0,0,0-.39,23.047h0Zm0.39-37.5a45.226,45.226,0,0,0,16.407-11.719q-8.2-.777-16.016-0.781a65.031,65.031,0,0,0-.391,12.5h0Zm90.235-42.187a35.5,35.5,0,0,1,15.625,2.734,6.866,6.866,0,0,1,2.344,6.25,109.7,109.7,0,0,1-7.813,11.328,89.49,89.49,0,0,0,19.531,3.516,12.783,12.783,0,0,1,6.641,3.515q0.779,4.3-2.735,5.86-15.234-1.557-30.859-2.735a27.891,27.891,0,0,0-5.859,7.032,55.93,55.93,0,0,1,16.406,6.64,69.212,69.212,0,0,1,13.281,11.719,96.624,96.624,0,0,1,6.25,11.328q1.95,10.941,3.516,22.656-0.787,10.548-1.953,20.7a30.931,30.931,0,0,1-9.375,13.281,24.033,24.033,0,0,1-4.688-.391,46.753,46.753,0,0,1-8.2-7.812,83.94,83.94,0,0,0,9.375-16.407,22.421,22.421,0,0,0,0-5.859,109.088,109.088,0,0,0-26.562,4.3,31.475,31.475,0,0,0,.39,8.594q3.9,10.94,8.2,21.875-1.959,2.738-5.859,1.953a73.3,73.3,0,0,1-9.375-7.813q-3.13-7.031-6.25-13.672a263.3,263.3,0,0,1-4.3-46.875A55.517,55.517,0,0,0,695.047,254.3h-3.516a37.88,37.88,0,0,1-8.984-7.813,116.56,116.56,0,0,1,3.906-11.328,207.026,207.026,0,0,1,16.016-26.172,36.26,36.26,0,0,1-10.938-10.937,50.567,50.567,0,0,1,10.938-4.3q5.072,0.393,10.547.391,7.414-9.761,14.453-18.75h0Zm-3.907,71.484a19.386,19.386,0,0,0-1.171,10.547,95.222,95.222,0,0,1,26.953,3.906,43.063,43.063,0,0,0-3.516-15.625,69.123,69.123,0,0,0-22.266,1.172h0Zm0.391-14.063q9.375,0.787,18.359,1.563a30.631,30.631,0,0,0-6.25-6.641,37.672,37.672,0,0,0-11.328-4.3,14.285,14.285,0,0,0-.781,9.374h0Zm185.156-11.328a99.1,99.1,0,0,1,31.25,8.2,20.327,20.327,0,0,1,4.688,4.687q0,4.3-3.125,6.25-12.507-3.516-24.219-7.422-5.08-5.466-9.765-9.765-0.394-1.951,1.171-1.954h0ZM829.422,208.2a74.392,74.392,0,0,1,16.406,3.516,9.759,9.759,0,0,1,2.734,3.515,32.465,32.465,0,0,1-8.2,15.625,152.877,152.877,0,0,0-7.421,24.219,25.343,25.343,0,0,1-7.422,2.734A29.52,29.52,0,0,1,814.969,245.7q1.95-11.718,3.906-22.265,5.072-7.81,10.547-15.235h0Zm39.453-.781a40.424,40.424,0,0,1,17.578,3.906,20.067,20.067,0,0,0,1.953,3.125,195.022,195.022,0,0,0-1.562,25,81.085,81.085,0,0,1,3.125,11.328,42.072,42.072,0,0,1-3.516,3.125,27.935,27.935,0,0,1-5.469-1.172q-8.2-5.859-11.328-13.672-2.737.394-3.125,4.3a70.87,70.87,0,0,0-1.172,24.61,16.993,16.993,0,0,0,6.641,8.2,37.536,37.536,0,0,0,11.328-4.3,132.522,132.522,0,0,0,10.938-9.766,83.168,83.168,0,0,0,10.937-20.7,13.358,13.358,0,0,1,8.985,0,25.262,25.262,0,0,1,4.3,4.688q-0.788,5.081-1.953,10.156-4.687,8.2-9.375,16.016l-9.375,9.375a45.024,45.024,0,0,1-15.234,5.859q-6.254-1.172-12.109-1.953-3.91-2.345-7.813-4.3a93.141,93.141,0,0,1-14.844-16.016,85.161,85.161,0,0,1-2.343-10.546q0-9.76.39-18.75a40.514,40.514,0,0,1,2.734-7.422,48.526,48.526,0,0,1,19.922,6.25,56.871,56.871,0,0,1,.391-27.344h0Zm225.005-31.25a67.294,67.294,0,0,1,14.45,2.344q4.29,2.343,3.9,7.812a13.128,13.128,0,0,1-3.51,3.125c-3.13.263-6.25,0.525-9.38,0.781q-11.325,5.082-21.87,9.375a33.147,33.147,0,0,1,10.94,12.11q7.02-1.172,14.45-1.953a111.913,111.913,0,0,1,12.11,2.343,5.944,5.944,0,0,1,2.34,5.86,103.143,103.143,0,0,1-21.87,5.469,202.526,202.526,0,0,0,9.37,20.7,180.776,180.776,0,0,1,37.5,0,13.662,13.662,0,0,1,4.3,3.125,4.508,4.508,0,0,1-1.95,4.687,228.988,228.988,0,0,0-35.55,1.172q2.34,9.768,5.47,20.7a104.26,104.26,0,0,1,0,12.5q-1.575,4.688-3.52,9.766c-1.82,1.825-3.65,3.778-5.47,5.859q-7.815,4.688-16.01,8.594-11.34,3.13-22.27,6.25-11.325.787-22.65,1.953a18.166,18.166,0,0,0-8.21-1.953,6.8,6.8,0,0,1-3.12-4.3q15.225-3.122,31.25-5.078a201.235,201.235,0,0,0,20.7-8.2,109.742,109.742,0,0,0,10.94-8.985,33.212,33.212,0,0,0,3.9-8.2q0-5.859-.39-12.109a113.317,113.317,0,0,0-5.46-14.063,549.422,549.422,0,0,0-69.54,19.922,54.464,54.464,0,0,1-12.11-10.937,14.069,14.069,0,0,1,.4-3.516q27.33-7.416,55.46-13.672a193.164,193.164,0,0,0,21.1-2.734q-4.695-8.982-8.99-17.188a104.546,104.546,0,0,0-29.29,11.719q-2.745,2.737-5.47,5.859a15.536,15.536,0,0,1-7.81-.39,56.841,56.841,0,0,1-10.94-11.719,69.049,69.049,0,0,1,8.98-8.2q17.58-6.245,36.33-10.938a33.984,33.984,0,0,0-6.64-9.765,122.436,122.436,0,0,0-18.75,8.594q-3.915-.778-7.03-1.563-5.475-4.293-5.47-8.984,23.43-13.275,46.48-25c4.17-.519,8.46-0.91,12.9-1.172h0ZM1234.5,281.641q30.465,0,61.33.39a39.244,39.244,0,0,1,13.28,3.907,5.615,5.615,0,0,1-1.95,5.859q-29.7.393-58.6,3.125a48.823,48.823,0,0,0-5.86,4.3h-5.08A32.462,32.462,0,0,1,1226.3,287.5a42.816,42.816,0,0,1,8.2-5.859h0Zm25.39-78.125a69.4,69.4,0,0,0,11.33,1.562,13.814,13.814,0,0,1,5.86,4.688q-1.575,5.859-3.13,11.328,14.07-1.557,28.52-2.344a64.072,64.072,0,0,1,14.84,4.3,6.715,6.715,0,0,1-3.12,6.641,145.6,145.6,0,0,0-46.88,8.984q-1.56,6.254-2.73,11.719a55.552,55.552,0,0,1,27.73,0q5.475,1.959,11.72,4.3a94.86,94.86,0,0,1,16.8,12.109,72.378,72.378,0,0,1,8.2,12.891,124.384,124.384,0,0,1,.78,14.453,62.685,62.685,0,0,0-2.73,7.421,94.321,94.321,0,0,1-12.11,10.938,143.309,143.309,0,0,1-16.41,6.641,192.46,192.46,0,0,1-21.48,1.953q-7.035-1.557-10.16-5.86a9.861,9.861,0,0,1,1.17-2.343,161.046,161.046,0,0,1,16.8-1.563q7.41-2.728,15.23-5.859a41.253,41.253,0,0,1,7.82-6.25,65.317,65.317,0,0,0,6.64-10.547,29.375,29.375,0,0,0-1.96-16.016,28.312,28.312,0,0,0-7.42-8.2,27.221,27.221,0,0,0-22.65-4.3,146.373,146.373,0,0,0-20.71,11.719,22.634,22.634,0,0,1-6.25-.781q-5.07-4.687-9.37-8.985a252.6,252.6,0,0,1,8.2-51.171,17.891,17.891,0,0,1,5.47-7.422h0Zm-29.69-29.3q5.865,0.393,11.72,1.172,4.695,1.172,6.25,6.64a155.131,155.131,0,0,1,19.14-2.734H1297q8.985,1.172,18.36,2.734a36.379,36.379,0,0,1,14.84,7.422q5.475,5.859,5.47,14.844a80.873,80.873,0,0,1-4.69,13.281,60.138,60.138,0,0,1-5.86,5.86h-4.68a47.726,47.726,0,0,1-9.77-9.376,42.04,42.04,0,0,0,8.6-15.234,12.546,12.546,0,0,0-1.57-7.812c-3.38-.782-6.64-1.429-9.76-1.954a178.943,178.943,0,0,0-37.89,3.126q-9.78,3.131-19.14,7.031-2.745,2.343-5.08,4.687a9.149,9.149,0,0,0-4.69.391,231.665,231.665,0,0,0-.78,26.953q0.39,5.475,5.08,10.156a6.322,6.322,0,0,1-1.56,5.078,13.939,13.939,0,0,1-4.69,0,47.043,47.043,0,0,1-12.11-11.718,61.357,61.357,0,0,1-3.13-13.672V181.641a35.118,35.118,0,0,1,6.25-7.422h0Z"/>
  <path id="中文示例" class="cls-2" d="M309.68,702.844a36.179,36.179,0,0,1,7.226,2.344,36.679,36.679,0,0,1,8.008,7.031q1.95,3.322,4.3,7.031,1.758,4.884,3.32,10.156,0.587,5.667.781,11.719a63.418,63.418,0,0,1-2.343,10.352,34.511,34.511,0,0,1-6.836,9.179,30.8,30.8,0,0,1-11.914,4.883,10.5,10.5,0,0,1-5.86-2.93,1.584,1.584,0,0,1,1.368-1.562,22.279,22.279,0,0,0,9.57-2.539,78.347,78.347,0,0,0,5.859-5.664q1.758-3.32,3.125-6.446a51.271,51.271,0,0,0,.391-14.062q-0.783-3.121-1.563-5.859a44.488,44.488,0,0,0-17.773,3.125,39.225,39.225,0,0,0-.391,7.812,41.267,41.267,0,0,1,12.7-.391,10.145,10.145,0,0,1,5.273,2.149v2.148q-9.183,1.566-18.359,3.516a33.982,33.982,0,0,0,1.367,10.937,3.523,3.523,0,0,1-2.539.586,21.813,21.813,0,0,1-4.688-4.492,28.3,28.3,0,0,1-.976-7.617,31.843,31.843,0,0,0-3.125-3.711,56.95,56.95,0,0,1-4.1,7.227,21.954,21.954,0,0,1-8.008,5.273,43.674,43.674,0,0,1-5.859,0,12.4,12.4,0,0,1-4.687-2.93,2.682,2.682,0,0,1-1.954.391,12.966,12.966,0,0,1-5.078-4.492q-0.783-5.466-1.562-10.742-0.783-.779-1.172-1.172a1.049,1.049,0,0,1,.976-1.367q-0.393-8.2-.781-15.821a16.406,16.406,0,0,0,2.539-5.859q2.148-1.365,4.3-2.93,3.122,0.395,6.445.977a77.083,77.083,0,0,1,13.282,7.812,34.486,34.486,0,0,0,3.125,3.125,53.2,53.2,0,0,1,3.32,6.641,45.737,45.737,0,0,1-.195,12.695l2.343-1.172q-0.393-9.96-.2-20.312a69.925,69.925,0,0,1,1.172-10.938,26.9,26.9,0,0,1,1.367-2.734q1.171,0.2,2.149.391a6.1,6.1,0,0,1-.977-2.149,29.411,29.411,0,0,1,6.641.391h0Zm-35.352,17.578q-0.393,5.667-.781,11.523a68.312,68.312,0,0,1,15.43,1.367q0.975,0.783.2,2.344A49.1,49.1,0,0,1,283.7,738a35.543,35.543,0,0,0-9.961.977,20.728,20.728,0,0,0,.781,8.007,6.735,6.735,0,0,1,3.321,1.368,15.248,15.248,0,0,0,7.812-3.516,55.908,55.908,0,0,0,3.516-4.688q0.975-3.707,1.758-7.617a27.891,27.891,0,0,0-1.953-9.57,28.765,28.765,0,0,1-2.149-3.32,28.04,28.04,0,0,0-4.3-2.93,18.292,18.292,0,0,0-5.273-1.172,20.3,20.3,0,0,0-2.93,4.883h0Zm34.18,0.586a59.194,59.194,0,0,1,14.453.586,33.639,33.639,0,0,0-6.25-10.742,12.6,12.6,0,0,0-5.664-2.344,32,32,0,0,0-2.539,12.5h0Zm80.664-18.75q4.688,0.585,9.57,1.367a31.472,31.472,0,0,1,4.883,2.148q2.344,2.152,4.687,4.688a75.3,75.3,0,0,1,5.274,9.57,100.434,100.434,0,0,1,2.539,11.524v12.89a96.921,96.921,0,0,1-3.32,13.477,20.661,20.661,0,0,1-5.469,7.617q-1.566-.192-2.93-0.391a4.553,4.553,0,0,1-2.148-3.32q2.147-2.733,4.3-5.469,1.56-3.9,2.929-7.812,0.39-5.859.977-9.57a93.441,93.441,0,0,0-1.367-9.766,106.843,106.843,0,0,0-20.117,2.93q-0.2,4.3-.2,8.789a73.288,73.288,0,0,1,9.766-.977,20.232,20.232,0,0,1,8.4,1.758,7.938,7.938,0,0,1-1.953,3.711,146.169,146.169,0,0,1-16.211,2.93,46.728,46.728,0,0,0,2.344,11.718,2.651,2.651,0,0,1-2.734.391q-1.954-1.758-3.516-3.125a49.868,49.868,0,0,1-3.125-13.867q-0.587-18.942-.391-37.5,0.587-.975,1.172-1.758a49.584,49.584,0,0,1,6.641-1.953h0Zm1.953,8.008a98.717,98.717,0,0,0-1.367,14.062,72.212,72.212,0,0,1,18.359,0q-0.98-3.318-2.148-6.25a31.732,31.732,0,0,0-6.446-9.18,13.6,13.6,0,0,0-8.4,1.368h0Zm87.5,36.914a7.486,7.486,0,0,1,1.367,1.953,14.271,14.271,0,0,0-.39,4.687,37.889,37.889,0,0,0,2.148,5.664,22.019,22.019,0,0,0,3.125,2.93h8.4a154.364,154.364,0,0,1,24.219-3.125,81.705,81.705,0,0,1,0-11.328,22.886,22.886,0,0,1,5.078.195,6.633,6.633,0,0,1,4.492,2.735q-0.585,10.157-.976,19.726a4.629,4.629,0,0,1-3.516-.195q-2.54-2.344-4.492-4.492a7.389,7.389,0,0,0-.195-1.758,128.148,128.148,0,0,0-18.945,3.32,44.443,44.443,0,0,1-15.04-.586q-2.738-1.56-5.078-3.125a45.531,45.531,0,0,1-6.836-7.617q-0.979-2.733-1.953-5.273a26.042,26.042,0,0,1,.391-4.688,14.313,14.313,0,0,1,8.2.977h0Zm22.07-49.219a22.269,22.269,0,0,1,1.563,1.758q-0.394,18.558-.586,36.914a29.4,29.4,0,0,1,10.742-1.172,132.155,132.155,0,0,1-.391-22.656,21.912,21.912,0,0,1,7.618,1.367,22.467,22.467,0,0,1,1.562,1.758,215.631,215.631,0,0,0,0,25.976,3.135,3.135,0,0,1-2.539.782,14.981,14.981,0,0,1-3.711-2.344,55.1,55.1,0,0,0-13.476,3.125q0.389,7.617.781,15.625a3.281,3.281,0,0,1-3.32.976q-2.344-1.95-4.3-3.906,0-5.662-.2-10.937a26.241,26.241,0,0,1-9.57.585,52.7,52.7,0,0,1-5.469-2.539q-2.343-2.535-4.687-4.687-0.98-2.733-1.758-5.274A80.1,80.1,0,0,1,474.719,713q0.975-1.758,2.148-3.711a58.32,58.32,0,0,1,6.445.781,4.819,4.819,0,0,1,2.735,2.344,99.826,99.826,0,0,0-4.688,16.992,48.919,48.919,0,0,0-.195,7.617,6.163,6.163,0,0,0,2.344,3.907,47.636,47.636,0,0,0,11.328-2.539q-1.172-21.095-1.953-41.6a20.479,20.479,0,0,1,7.812,1.172h0Zm100.586,21.094q0.779,0.98,1.758,2.148a69.013,69.013,0,0,1-2.734,7.227,93.028,93.028,0,0,1,18.164.976,6.669,6.669,0,0,1,1.758,1.563v2.148q-11.527.783-23.243,1.367a21.968,21.968,0,0,0-1.367,2.344,285.232,285.232,0,0,1,26.563,16.211,20.187,20.187,0,0,1,4.3,4.492,2.8,2.8,0,0,1-1.563,2.93,14.162,14.162,0,0,1-2.539-.586,74.123,74.123,0,0,0-6.836-6.055q-10.941-6.446-22.266-12.109a105.115,105.115,0,0,1-8.789,12.695q-2.343.395-4.492,0.586a18.239,18.239,0,0,1-2.344-1.953,22.658,22.658,0,0,0-.2-3.125,42.648,42.648,0,0,0,7.422-14.258,10.636,10.636,0,0,0-6.25,1.367,6.571,6.571,0,0,1-3.32-.781,19.209,19.209,0,0,1-4.883-5.664,4.781,4.781,0,0,1,2.734-1.562,92.711,92.711,0,0,0,15.235-.782,62.522,62.522,0,0,1,4.492-10.546,27.66,27.66,0,0,1,8.4,1.367h0Zm-15.429-11.914a181.921,181.921,0,0,1,26.953,3.906,13.284,13.284,0,0,0,2.734,1.367,5.218,5.218,0,0,1,.391,2.93,3.2,3.2,0,0,1-2.344.976,69.251,69.251,0,0,0-11.524-2.148,67.133,67.133,0,0,0-13.671.586,22.316,22.316,0,0,1-6.25-5.86q0.975-1.757,3.711-1.757h0Zm109.96,1.562a36.44,36.44,0,0,1,7.227,1.172,8.311,8.311,0,0,1,2.149,1.563q-1.173,16.213-2.735,32.226a74.684,74.684,0,0,0,16.406-5.078,62.548,62.548,0,0,1,0-15.625,26.94,26.94,0,0,1,8.4,1.758q0.779,0.979,1.562,1.953-0.98,12.891-.976,26.172a43.023,43.023,0,0,1,.976,4.687,12.464,12.464,0,0,1-1.172,1.367,6.83,6.83,0,0,1-3.71-.976q-1.956-2.147-3.516-3.711a31.227,31.227,0,0,1-1.563-8.594q-8.6,1.758-16.6,4.1a14.729,14.729,0,0,1-1.367,1.562q-8.4.2-17.969,0.977a26.208,26.208,0,0,1-7.422-2.539,52.141,52.141,0,0,1-6.445-6.836q-0.2-4.295-.586-7.813a48.179,48.179,0,0,1,3.515-6.25,26.968,26.968,0,0,1,8.4,1.758,3.361,3.361,0,0,1,1.562,3.32,31.81,31.81,0,0,0-2.734,4.493q-0.395,3.126-.586,6.64a4.457,4.457,0,0,0,1.563,1.563,44.537,44.537,0,0,0,13.867-1.758,355.74,355.74,0,0,1,1.757-36.133h0Zm133.4-16.992a6.022,6.022,0,0,1,3.711,2.734q-0.395,8.011-.391,15.625,5.466,0,10.938-.2a70.632,70.632,0,0,1,.781-16.8,36.838,36.838,0,0,1,7.422,1.172,4.8,4.8,0,0,1,1.758,2.148,120.1,120.1,0,0,0-.782,13.672,49.981,49.981,0,0,1,10.743,1.563,8.984,8.984,0,0,1,1.562,1.562,2.46,2.46,0,0,1-.976,2.344,84.577,84.577,0,0,0-11.524-.781,9.868,9.868,0,0,1-3.125,3.515H847.57a37.732,37.732,0,0,1-2.539-3.125,92.885,92.885,0,0,0-12.109.391,13.128,13.128,0,0,0,.976,6.641,27.014,27.014,0,0,1,3.321-1.758,30.261,30.261,0,0,1,7.617,1.367A3.617,3.617,0,0,1,846.2,725.5q11.522,7.617,22.852,16.8v1.758a2.977,2.977,0,0,1-2.735,1.172q-10.94-7.421-21.484-14.649-2.151-.585-3.906-1.172-3.91,3.324-7.422,6.641a77.424,77.424,0,0,1,19.531,3.711,72.408,72.408,0,0,1,6.836,3.711,18.783,18.783,0,0,1,2.734,4.1,20.956,20.956,0,0,1-.39,4.1q-1.566,1.566-3.125,2.93-4.1,1.565-8.008,3.125-6.057,1.172-11.719,1.757a14.764,14.764,0,0,0-2.734-1.562,5.15,5.15,0,0,1-1.563-3.32,49.228,49.228,0,0,1,7.813-1.368,55.031,55.031,0,0,0,9.765-4.492q2.345-1.758,1.368-3.906a28.11,28.11,0,0,0-10.157-2.734,40.475,40.475,0,0,0-8.984.976q-0.98,10.745-1.953,22.07,0.389,1.758.976,3.711a11.613,11.613,0,0,0,2.54,2.539h6.054a176.876,176.876,0,0,0,21.094-7.617,32.2,32.2,0,0,1,4.883.391,2.865,2.865,0,0,1,1.367,2.93q-10.158,4.688-20.7,8.4a53.686,53.686,0,0,1-9.18.781q-3.322-.783-6.25-1.758-4.1-3.515-7.031-6.445a32.679,32.679,0,0,1-1.953-6.445q0-8.79.195-16.406a89.658,89.658,0,0,0-9.766,12.5,14.269,14.269,0,0,1-2.539-.586q-1.954-1.95-3.515-3.711a202.167,202.167,0,0,1,12.5-17.774q4.293-5.273,8.984-10.156a18.4,18.4,0,0,1-4.3-4.1q-0.783-2.929-1.562-5.664-6.642.394-13.086,0.782a22.24,22.24,0,0,1-5.274-4.493,1.155,1.155,0,0,1,.2-1.953,123.53,123.53,0,0,1,16.992,0q-0.395-8.788-.2-18.75a47.693,47.693,0,0,1,5.859.391h0Zm87.109,55.273a34.143,34.143,0,0,1,8.008,1.758q0.587,0.783,1.367,1.758a2.642,2.642,0,0,1-1.562,2.539,80.978,80.978,0,0,0-15.235,2.93,14.4,14.4,0,0,1-5.664-5.86,30.556,30.556,0,0,1,5.078-2.343,79.005,79.005,0,0,0,8.008-.782h0Zm47.071-7.617a60.789,60.789,0,0,1,7.421,1.758,3.473,3.473,0,0,1,.782,2.93,7.838,7.838,0,0,0-1.172.976,43.563,43.563,0,0,0-10.938-.586q-3.909.587-7.617,0.977a146.1,146.1,0,0,0-4.687,22.266,8.951,8.951,0,0,1,.781,1.562,114.336,114.336,0,0,1,16.6-1.562,21.011,21.011,0,0,0,5.274.976,4.48,4.48,0,0,1,2.148,1.953,2.32,2.32,0,0,1-1.367,2.539q-11.133.395-21.679,1.758a26.922,26.922,0,0,1-3.907-1.758,43.49,43.49,0,0,1-5.469-5.664,28.872,28.872,0,0,1-.781-6.64,138.127,138.127,0,0,0-18.359,13.476h-2.344a23.541,23.541,0,0,1-5.859-5.469,21.946,21.946,0,0,1,2.343-2.734,117.667,117.667,0,0,1,18.36-10.937q3.516,0,6.836-.2,0.585-3.708.976-7.226a16.56,16.56,0,0,1-7.226,1.172,25.763,25.763,0,0,1-5.078-4.883,1.16,1.16,0,0,1,.2-1.172,81.49,81.49,0,0,1,15.039-3.321q9.764-.389,19.727-0.2h0Zm-52.735-8.4a117.754,117.754,0,0,1,16.406,1.953,6.543,6.543,0,0,1,3.321,2.344,3.2,3.2,0,0,1-1.172,2.929,31.147,31.147,0,0,0-12.5-.2q-2.738,1.171-5.273,2.148a11.366,11.366,0,0,1-2.93-1.171,30.9,30.9,0,0,0-4.1-4.1,12.868,12.868,0,0,1,6.25-3.906h0Zm34.961-6.055a19.151,19.151,0,0,1,7.617,1.172,33.405,33.405,0,0,1,4.1,10.937,9.122,9.122,0,0,1-1.758,1.368,8.242,8.242,0,0,1-3.32-.977q-2.541-2.537-4.492-4.492a17.16,17.16,0,0,1-2.149-8.008h0Zm5.664-31.836a17.767,17.767,0,0,1,7.813,1.367,13.189,13.189,0,0,1,1.172,1.367,75.941,75.941,0,0,0-2.539,14.063,4.67,4.67,0,0,1,4.492,2.148,2.188,2.188,0,0,1-1.172,2.344h-3.906a8.9,8.9,0,0,0-.782,4.688,8.668,8.668,0,0,1-4.687,3.515,22.944,22.944,0,0,1-4.1-7.422,136.762,136.762,0,0,0-14.648,1.563,19.612,19.612,0,0,0,1.172,7.812,5.253,5.253,0,0,1,1.758,1.954,2.955,2.955,0,0,1-1.172,2.343,9.494,9.494,0,0,1-2.735,0,41.693,41.693,0,0,1-6.445-6.25,40.833,40.833,0,0,0-1.367-4.687,17.04,17.04,0,0,1-4.492.586,23.1,23.1,0,0,1-3.516,2.148,23.518,23.518,0,0,0-2.734-.976,29.832,29.832,0,0,1-4.493-5.079,24.8,24.8,0,0,1,3.711-2.734,81.279,81.279,0,0,0,11.133-.781,2.544,2.544,0,0,0-.781-2.149q0.975-4.49,2.344-8.789a20.353,20.353,0,0,1,8.984,2.539,54.155,54.155,0,0,1-.977,8.008q7.421-.388,14.844-0.976a70.839,70.839,0,0,0,.586-9.18,26.24,26.24,0,0,1,2.539-7.422h0Zm99.809,29.1a13.974,13.974,0,0,1,8.2,3.125,3.046,3.046,0,0,1-.98,3.125,4.7,4.7,0,0,1-3.32-.782,45.469,45.469,0,0,0-14.06.977,5.607,5.607,0,0,1-.59,2.539,30.622,30.622,0,0,0-4.88,1.563,60.365,60.365,0,0,0-8.98,10.351,49.968,49.968,0,0,0-4.89,11.133,3.945,3.945,0,0,0,.2,2.148,64.784,64.784,0,0,0,11.33-2.539q4.29-2.343,8.79-4.492,2.145-1.758,4.29-3.711a9.545,9.545,0,0,0,3.91.391,47.55,47.55,0,0,1-3.71-12.11,20.989,20.989,0,0,1,9.37,2.54q3.525,11.329,7.82,22.265,2.73,3.324,5.46,6.641a4.683,4.683,0,0,1-1.56,2.344,5.993,5.993,0,0,1-4.1-1.368q-3.12-3.122-5.66-5.664a87.013,87.013,0,0,1-5.08-8.789,172.016,172.016,0,0,1-16.21,8.2,72.258,72.258,0,0,0-7.62,1.953h-6.05a44.057,44.057,0,0,1-4.5-1.757q-2.73-2.733-4.88-5.078v-3.907q1.365-5.076,3.13-9.961a80.118,80.118,0,0,1,4.68-8.789,28.252,28.252,0,0,0-6.83,2.344,6.556,6.556,0,0,1-3.32-.781,15.4,15.4,0,0,1-4.89-5.86q3.135-1.172,6.25-2.343,9.18-1.561,18.75-2.93,10.155-.586,19.93-0.781h0Zm-3.13-19.141a32.786,32.786,0,0,1,4.1,1.563c0.78,0.781,1.56,1.629,2.35,2.539v2.734a3.221,3.221,0,0,1-3.13.977,11.94,11.94,0,0,1-3.71-2.735,48.818,48.818,0,0,0-15.62-.586,20.619,20.619,0,0,1-6.84-5.664v-1.758a200.024,200.024,0,0,1,22.85,2.93h0Zm68.75,45.508q3.315,0.586,6.84,1.562a3.673,3.673,0,0,1,.97,3.125,200.746,200.746,0,0,1-21.68,8.4,13.289,13.289,0,0,1-2.73-.977,18.581,18.581,0,0,1-4.3-5.078,187.354,187.354,0,0,1,20.9-7.031h0Zm0.98-17.774c0.78,0.391,1.62.849,2.54,1.368a3.95,3.95,0,0,1,.78,2.539q-9.96,3.126-19.53,6.836a5.857,5.857,0,0,1-4.1-.977c-1.57-1.562-2.93-2.994-4.11-4.3a3.073,3.073,0,0,1,1.76-2.344,61.831,61.831,0,0,0,14.45-3.71,35.112,35.112,0,0,1,8.21.585h0ZM1106.95,713.2q8.775,0.783,17.38,2.344a3.555,3.555,0,0,1,1.56,3.516,14.786,14.786,0,0,0-1.56,1.367,76,76,0,0,0-17.19,0,14.437,14.437,0,0,1-4.88-5.664,24.65,24.65,0,0,1,4.69-1.563h0Zm32.22-16.992a33.814,33.814,0,0,1,6.25.586,7.411,7.411,0,0,1,2.74,2.344,13.185,13.185,0,0,1-.2,2.148,21.7,21.7,0,0,1-3.32,2.735,47.006,47.006,0,0,1-2.34,4.492h9.57a118.8,118.8,0,0,1,16.4,3.32,2.863,2.863,0,0,1,1.37,2.93,6.8,6.8,0,0,1-1.37,1.367q-5.85-1.171-11.52-1.953-6.84.393-13.48,0.781a13.754,13.754,0,0,1-5.66,2.149,58.38,58.38,0,0,0-3.13,8.593,7.333,7.333,0,0,0,0,4.1,31.344,31.344,0,0,0,2.74-5.664q2.145-1.562,4.3-3.321a35.182,35.182,0,0,0,10.93-.976,42.324,42.324,0,0,1,14.07,2.734,21.74,21.74,0,0,1,4.68,4.492c0.52,1.172,1.11,2.411,1.76,3.711a34.623,34.623,0,0,1,.98,8.4,3.413,3.413,0,0,0,1.36,1.367,23.162,23.162,0,0,1,4.11.391,4.13,4.13,0,0,1,2.73,2.929,8.73,8.73,0,0,0-.78,1.563,20.086,20.086,0,0,0-6.84,0,58.808,58.808,0,0,0-1.56,9.57,6.28,6.28,0,0,1,5.27,1.758V758.7q-4.29,1.172-8.39,2.735a41.648,41.648,0,0,1-4.11,5.664,6.312,6.312,0,0,1-3.9-1.172,49.811,49.811,0,0,1-13.09,5.468,57.874,57.874,0,0,1-10.94-.976,31.634,31.634,0,0,1-6.25-3.906,20.3,20.3,0,0,1-5.27-7.227,44.516,44.516,0,0,1,.59-9.57,15.573,15.573,0,0,1-6.45-5.469,21.637,21.637,0,0,1,8.4-1.172q2.34-6.446,5.27-12.695a6.293,6.293,0,0,1-3.51.195,39.973,39.973,0,0,1-4.88-4.492q1.95-7.42,4.1-14.844,2.535-5.662,5.08-11.328a13.061,13.061,0,0,1,4.29-3.711h0Zm-6.05,64.844a15.145,15.145,0,0,0,4.88,5.469,26.558,26.558,0,0,0,6.45,0,32.2,32.2,0,0,0,4.29-1.758,21.937,21.937,0,0,0-2.93-1.563,48.9,48.9,0,0,1-10.15-13.672,36.142,36.142,0,0,0-2.54,11.524h0Zm10.35-12.7q1.95,3.909,3.71,8.007a31.3,31.3,0,0,1,4.3,5.469,17.1,17.1,0,0,0-.2,2.344q5.865-3.121,11.72-6.445a30.6,30.6,0,0,0,3.52-11.524,192.225,192.225,0,0,0-23.05,2.149h0Zm-4.1-6.055q7.215-.39,14.45-0.781a48.379,48.379,0,0,1-6.05-11.133h-1.57a33.669,33.669,0,0,0-6.83,11.914h0Zm11.52-13.867a16.719,16.719,0,0,1,5.66.976q1.95,6.057,4.5,12.11a45.4,45.4,0,0,1,6.05-.782,47.732,47.732,0,0,0-2.54-13.476,4.7,4.7,0,0,0-2.34-1.563,21.464,21.464,0,0,0-11.33,2.735h0Zm50-6.446a51.506,51.506,0,0,1,6.25.782,4.854,4.854,0,0,1,2.74,2.343,53.672,53.672,0,0,0-.98,12.5,61.432,61.432,0,0,0,1.17,6.446,30.592,30.592,0,0,0,7.23,9.765,1.459,1.459,0,0,1-.59,1.563,11.841,11.841,0,0,1-6.05-2.344,55.786,55.786,0,0,1-7.23-7.812,41.96,41.96,0,0,1-3.32-9.571,74.872,74.872,0,0,1-.39-10.742,5.4,5.4,0,0,1,1.17-2.93h0Zm26.17-3.515q5.28,0.585,10.94,1.172a44.989,44.989,0,0,1,11.13,5.078c1.69,1.562,3.39,3.256,5.08,5.078a49.611,49.611,0,0,1,2.93,7.226,18.777,18.777,0,0,1-1.56,8.594c-1.44,1.3-2.8,2.606-4.1,3.906q-3.33,1.566-6.45,3.125a50.743,50.743,0,0,1-11.91.977c-1.44-.519-2.74-1.041-3.91-1.563q-3.7-3.318-6.64-6.054a26.639,26.639,0,0,1-.78-9.18c-1.3-.909-1.83-1.886-1.56-2.93a6.51,6.51,0,0,1,1.56-.2,75.16,75.16,0,0,0,1.76-8.008,10.282,10.282,0,0,1,3.9-3.515c-0.39-.391-0.71-0.714-0.97-0.977a3.609,3.609,0,0,1,.58-2.734h0Zm5.47,15.039q6.06,0,12.5.586a38.422,38.422,0,0,1,3.52,1.562q0.2,0.98.39,2.344l-1.17,1.172q-8.79.2-17.19,0.586a11.92,11.92,0,0,0,.39,8.984,18.924,18.924,0,0,0,6.64,0,61.3,61.3,0,0,0,7.42-3.32,23.864,23.864,0,0,0,4.3-5.274c0.13-1.821.19-3.579,0.19-5.273a29.411,29.411,0,0,0-1.95-5.078,16.275,16.275,0,0,0-8.2-4.688h-3.52q-1.755,3.91-3.32,8.4h0Zm-30.47-28.516a153.5,153.5,0,0,1,25.98,5.274,5.925,5.925,0,0,1-3.71,3.32,55.691,55.691,0,0,0-6.45-.391,102.132,102.132,0,0,1-12.11-3.32q-3.12-2.733-3.71-4.883h0Zm43.36-3.711a56.865,56.865,0,0,1,11.53,5.86q3.51,3.126,7.22,6.64a109.226,109.226,0,0,1,8.21,10.938q1.17,3.322,2.53,6.445a77.273,77.273,0,0,1,.79,8.594,17.7,17.7,0,0,0-.98,4.883c-1.3,2.343-2.61,4.754-3.91,7.226q-3.315,3.909-7.03,8.008a70.825,70.825,0,0,1-11.13,7.227c-1.7-.129-3.32-0.26-4.88-0.391a2.282,2.282,0,0,1-1.57-1.953,122.011,122.011,0,0,0,13.28-8.789q2.355-2.93,5.47-6.25a93.274,93.274,0,0,0,4.5-9.571v-7.031q-0.99-3.121-1.96-6.055a73.131,73.131,0,0,0-6.83-10.156q-3.33-3.121-6.84-6.25a26.938,26.938,0,0,0-7.62-3.515,16.178,16.178,0,0,1-4.29.2,17.359,17.359,0,0,1-5.86-5.274,0.7,0.7,0,0,1,.39-0.976,41.91,41.91,0,0,1,8.98.195h0ZM287.805,912.805a46.1,46.1,0,0,1,12.89,3.906q4.688,2.929,9.375,6.055,9.765,8.2,19.922,17.187v1.953q-0.783.587-1.562,1.172a8.344,8.344,0,0,1-2.735-.781,249.469,249.469,0,0,0-19.726-16.406,106.873,106.873,0,0,0-13.867-7.032q-2.737-2.733-5.079-5.078a0.941,0.941,0,0,1,.782-0.976h0ZM313,880.969a55.772,55.772,0,0,1,7.617,1.367,3.7,3.7,0,0,1,2.149,3.711,110.661,110.661,0,0,1-15.039,16.211q-2.737.2-5.079,0.195l-1.757-1.953q-0.2-2.147-.2-4.3Q306.748,888.2,313,880.969h0Zm-23.047-6.25q3.708,0.585,7.422,1.367a17.509,17.509,0,0,1,1.758,1.562,12.764,12.764,0,0,1,0,3.125q-4.5,11.916-9.375,23.243,8.981,0.2,18.554.39a21.755,21.755,0,0,1,8.594,2.93,8.019,8.019,0,0,1-.39,2.539q-6.254-.389-12.5-0.586a125.3,125.3,0,0,0-17.383,1.563,82.4,82.4,0,0,0-4.1,15.039,26.516,26.516,0,0,0,0,6.445,8.846,8.846,0,0,0,2.344,4.492,16.067,16.067,0,0,0,3.516-.39,72.03,72.03,0,0,0,14.257-7.813q2.931,0.586,6.25,1.367a2.7,2.7,0,0,1,.977,2.735q-1.566,1.368-3.125,2.734a71.479,71.479,0,0,1-13.672,6.25h-6.055a18.969,18.969,0,0,1-4.492-1.758,20.811,20.811,0,0,1-5.664-6.641,25.624,25.624,0,0,0-.781-4.882,116.492,116.492,0,0,1,1.758-15.625,9.451,9.451,0,0,1-4.3.976,22.586,22.586,0,0,1-6.445-5.664,11.943,11.943,0,0,1,6.64-3.906,49.7,49.7,0,0,0,6.25,0q4.879-15.234,9.961-29.492h0Zm101.563,26.367a45.876,45.876,0,0,1,8.007,1.562,3.945,3.945,0,0,1,1.758,3.516,70.761,70.761,0,0,1-7.226,8.4q4.1,2.737,8.4,6.25a3.44,3.44,0,0,1-.391,2.735h-3.124q-4.5-2.929-8.594-5.078a48.268,48.268,0,0,1-5.274,4.3,5.182,5.182,0,0,1-3.906-.977,19.077,19.077,0,0,1-3.516-4.1,36.512,36.512,0,0,1,4.493-4.493,17.406,17.406,0,0,1-6.25-7.226,32.305,32.305,0,0,1,10.156,2.343,42.2,42.2,0,0,1,5.469-7.226h0Zm10.156-22.266a84.553,84.553,0,0,1,9.766,1.368,18.773,18.773,0,0,1,4.882,2.343,17.045,17.045,0,0,1,2.93,3.907,34.318,34.318,0,0,1,.391,8.984,164.618,164.618,0,0,0-7.422,24.8,23.53,23.53,0,0,0,0,4.3,12.1,12.1,0,0,0,2.343,3.125,169.656,169.656,0,0,1,18.165,2.54,3.065,3.065,0,0,1,.976,2.539,18.087,18.087,0,0,1-1.953,1.367q-5.859-.39-11.523-0.586a28.881,28.881,0,0,1-7.813-2.539,31.08,31.08,0,0,1-5.859-5.86,16.479,16.479,0,0,1-.977-8.4q2.93-12.5,6.641-23.633a34.7,34.7,0,0,0-.391-7.422,2.38,2.38,0,0,0-1.367-1.562,68.786,68.786,0,0,0-10.352,0q-5.469.783-10.547,1.758a64.251,64.251,0,0,0-15.234,7.617,27.2,27.2,0,0,1,2.149,1.953q-1.956,9.183-3.711,18.75a104.165,104.165,0,0,0-.2,19.14,19.072,19.072,0,0,0,2.344,3.321,2.56,2.56,0,0,1-1.172,2.539h-1.758a34.283,34.283,0,0,1-5.273-4.3,16.914,16.914,0,0,1-2.149-5.078,227.306,227.306,0,0,1,0-32.617,34.454,34.454,0,0,1,2.149-4.883,12.953,12.953,0,0,0,5.859.195,21.683,21.683,0,0,1-5.468-5.469,32.209,32.209,0,0,1,3.71-3.515,100.577,100.577,0,0,1,14.258-4.1,139.367,139.367,0,0,1,16.6-.586h0Zm93.945,9.375a72.082,72.082,0,0,1,12.695,5.078,19.177,19.177,0,0,1,1.954,2.344,23.671,23.671,0,0,1,0,7.422q-3.128,8.2-5.664,16.8a7.253,7.253,0,0,0,.39,5.273,51.311,51.311,0,0,1,13.477.586,5.055,5.055,0,0,1,1.758,1.953,2.461,2.461,0,0,1-.977,2.344,47.271,47.271,0,0,1-14.844-.39,25.3,25.3,0,0,1-7.226-5.664,6.693,6.693,0,0,1-.586-3.516q2.535-10.74,5.468-20.9a40.42,40.42,0,0,0-.195-4.3,21.011,21.011,0,0,0-10.156-1.758A18.97,18.97,0,0,1,488,895.227q-1.566,9.182-3.32,19.14a59.185,59.185,0,0,0,.586,14.453,3.639,3.639,0,0,1-2.344.782,12.761,12.761,0,0,1-5.86-5.86q-0.393-12.3.391-24.023,0.975-6.446,2.344-12.7a66.431,66.431,0,0,1,15.82,1.172h0Zm118.945-1.172a33.051,33.051,0,0,1,9.961,1.954,4.787,4.787,0,0,1,.977,2.343,3.509,3.509,0,0,0-.977.977,90.388,90.388,0,0,0-18.75,0,13.9,13.9,0,0,0-3.32,4.492q2.929,0.395,6.25.781a24.52,24.52,0,0,1,10.352,4.883,33.2,33.2,0,0,1,4.687,7.031,31.083,31.083,0,0,1,0,4.883q-0.783,1.566-1.562,2.93-2.737,2.541-5.664,4.883a130.311,130.311,0,0,1-17.774,8.4,7.047,7.047,0,0,1-4.883-3.125,1.208,1.208,0,0,1,.391-1.367q4.688-2.344,9.766-4.688,4.688-3.122,8.789-6.445a18.158,18.158,0,0,1,2.734-3.515,17.967,17.967,0,0,0,0-3.711,15.173,15.173,0,0,0-2.344-3.711,18.357,18.357,0,0,0-9.961-.782,14.4,14.4,0,0,1-3.515,1.563c-0.781-.26-1.5-0.519-2.149-0.781a31.516,31.516,0,0,0-7.812,14.062,4.083,4.083,0,0,1-3.906.781q-2.152-2.147-3.907-4.1a28.89,28.89,0,0,1,1.172-5.078q3.708-7.81,7.422-14.453a31.989,31.989,0,0,0-11.914,4.3,17.147,17.147,0,0,1-3.125-1.367,11.149,11.149,0,0,1-3.711-4.687,9.163,9.163,0,0,1,3.516-2.735q10.547-1.95,21.679-3.515,8.982,0,17.578-.2h0Zm98.829,47.071a14.046,14.046,0,0,1,1.953,1.953,2.992,2.992,0,0,1-1.367,2.539q-11.331.393-22.461,1.172a31.99,31.99,0,0,0-5.86,1.367,10.333,10.333,0,0,1-3.515-1.367q-3.127-2.537-3.711-4.883l3.515-1.172q16.012-.586,31.446.391h0Zm-22.852-56.641a84.907,84.907,0,0,1,19.336,5.859q3.9,2.345,7.813,4.883a40.45,40.45,0,0,1,6.445,6.836,15.5,15.5,0,0,1,1.367,7.422,18.737,18.737,0,0,1-2.344,4.883A32.451,32.451,0,0,1,713,914.367a124.932,124.932,0,0,1-12.5,3.321,28.192,28.192,0,0,0,.391,4.687,18.782,18.782,0,0,1,8.593,1.563,3.065,3.065,0,0,1,.977,2.539,14.993,14.993,0,0,1-1.563,1.367,54.2,54.2,0,0,0-8.2,1.367v2.539a5.151,5.151,0,0,1-2.734,1.172,33.307,33.307,0,0,1-3.125-3.516,13.353,13.353,0,0,0-5.664,1.172q-1.37-.389-2.539-0.781-2.541-2.537-4.492-4.492a3.146,3.146,0,0,1,2.539-2.344,53.64,53.64,0,0,0,9.179,0,25.622,25.622,0,0,0-.781-4.883,33.042,33.042,0,0,0-6.25.2,2.789,2.789,0,0,1-1.172,2.149,10.9,10.9,0,0,1-2.148-.2,55.971,55.971,0,0,1-4.883-4.688,119.622,119.622,0,0,1-5.664-14.258,115.565,115.565,0,0,1-1.172-21.093,3.977,3.977,0,0,1,.977-2.93,90.614,90.614,0,0,1,17.773.195h0Zm-8.594,28.711a23.9,23.9,0,0,0,2.539,7.813q4.294,0,8.594-.391-0.2-4.88-.781-9.18a29.265,29.265,0,0,0-10.352,1.758h0Zm-0.781-21.289a61.589,61.589,0,0,0,0,13.867,104.554,104.554,0,0,1,11.133-.586,53.09,53.09,0,0,1,.195-13.672,26.151,26.151,0,0,1,7.813,1.563,22.467,22.467,0,0,1,1.562,1.758,37.757,37.757,0,0,0-.39,10.937,15.049,15.049,0,0,1,8.007,2.149,5.289,5.289,0,0,1-1.757,2.929,17.62,17.62,0,0,0-7.032.586,51.757,51.757,0,0,0,.2,7.813,44.676,44.676,0,0,0,8.007-2.735,35.031,35.031,0,0,0,7.618-6.445q0.975-2.147,1.757-4.1a29.046,29.046,0,0,0-.2-3.516,39.885,39.885,0,0,0-2.734-4.3,51.585,51.585,0,0,0-12.305-6.055q-4.1-1.172-8.2-1.953a52.706,52.706,0,0,0-7.813-.195,14.21,14.21,0,0,0-5.859,1.953h0ZM844.836,903.43a37.893,37.893,0,0,1,7.422,1.562,3.718,3.718,0,0,1,1.562,3.125q-3.712,6.254-7.617,12.305a138.322,138.322,0,0,1,13.281,9.375q7.617,3.516,15.039,7.617v2.148a7.6,7.6,0,0,1-1.757.977,154.073,154.073,0,0,1-18.164-8.4q-5.47-4.1-10.938-7.422a54.387,54.387,0,0,0-5.664,9.57,12.1,12.1,0,0,1-3.32-.391l-3.516-3.515a109.247,109.247,0,0,1,13.672-26.953h0Zm-1.563-25.586a4.675,4.675,0,0,1,3.125,2.734,86.02,86.02,0,0,0-4.3,11.914q7.419,0.2,16.015.2a35.536,35.536,0,0,1,11.719,3.124,8.938,8.938,0,0,1,2.93,4.1v3.711a35.927,35.927,0,0,1-3.125,6.836q-3.324,3.713-7.227,7.617h-4.687a11.318,11.318,0,0,0-1.758-1.758V913.2q2.146-1.758,4.3-3.906a47.726,47.726,0,0,0,4.492-8.4,3.343,3.343,0,0,0-.586-2.735,108.471,108.471,0,0,0-23.242,1.953,60.139,60.139,0,0,1-2.539,8.594,6.374,6.374,0,0,1-4.883-2.148q0.192,2.54.195,5.468-0.586,1.566-1.367,3.321-1.955,2.151-3.906,3.906a53.707,53.707,0,0,1-9.571,3.711q-5.081-.389-8.984-0.781a31.08,31.08,0,0,1-5.859-5.86,127.124,127.124,0,0,1-3.321-15.234,40.715,40.715,0,0,0,0-8.008,40.926,40.926,0,0,1,8.008-.39q6.638,1.172,13.281,2.539,2.148,1.172,4.883,2.343a52.317,52.317,0,0,1,4.688,4.492,107.337,107.337,0,0,1,1.757-17.382q1.952-3.708,3.711-7.227a26.118,26.118,0,0,1,6.25.391h0Zm-32.812,21.484a103.909,103.909,0,0,0,.195,10.938,27.868,27.868,0,0,0,1.758,7.226,20.974,20.974,0,0,0,8.4-2.539,14.116,14.116,0,0,0,4.883-5.859v-4.3a9.842,9.842,0,0,0-2.343-3.906,24.311,24.311,0,0,0-12.891-1.563h0Zm117.383-22.266q12.693,0.783,25.586,1.954a72.5,72.5,0,0,1,15.234,3.515v2.344a151.359,151.359,0,0,1-18.555-1.953,171.07,171.07,0,0,0-29.492.586q-2.151,3.712-4.1,7.617-0.783,4.1-1.368,8.008a39.855,39.855,0,0,1,5.86-.781,8.826,8.826,0,0,0-.391-4.688,45.87,45.87,0,0,1,4.3-7.226A26.157,26.157,0,0,1,932.727,888a3.375,3.375,0,0,1,1.367,2.93,12.165,12.165,0,0,0-3.125,6.836q8.788-.193,17.187-1.172-1.758-6.446-2.734-12.11a21.409,21.409,0,0,1,8.008,1.563l1.758,1.758a32.9,32.9,0,0,0,1.953,9.961,9.125,9.125,0,0,1,6.64,2.148,2.692,2.692,0,0,1-.976,2.734,27.206,27.206,0,0,0-5.274-.586,26.167,26.167,0,0,1,0,7.813,24.814,24.814,0,0,1-3.125,3.32,146.827,146.827,0,0,1-16.8,6.836,49.294,49.294,0,0,1,8.789-.39q4.881,0.585,9.766,1.562a26.368,26.368,0,0,1,4.688,2.344,20.868,20.868,0,0,1,2.539,3.711,16.84,16.84,0,0,1,0,6.25,28.432,28.432,0,0,1-4.3,5.469q-2.738,1.954-5.664,3.906a77.09,77.09,0,0,0,16.015,8.2,2.906,2.906,0,0,1,.782,2.148,2.765,2.765,0,0,1-2.735,1.172,165.948,165.948,0,0,1-17.969-9.179q-5.469,2.929-11.132,5.468-4.687,1.365-9.18,2.735a17.7,17.7,0,0,1-8.008-.977q-1.955-1.955-3.515-3.32a0.9,0.9,0,0,1,.585-0.977,19,19,0,0,0,8.985.586,72.564,72.564,0,0,0,15.234-6.836q-8.985-5.273-17.578-10.547a40.907,40.907,0,0,1-10.742-10.351,16.209,16.209,0,0,1,7.812,1.562q7.224-.975,14.844-2.343-2.343-.975-4.883-2.149a2.248,2.248,0,0,1-2.148,1.367,17,17,0,0,1-7.227-6.64,30.645,30.645,0,0,1-1.758-7.422,14.775,14.775,0,0,0-7.421,3.32,168.241,168.241,0,0,0-1.368,21.68q1.173,6.642,2.93,13.086a2.673,2.673,0,0,1-2.539.976,18.975,18.975,0,0,1-4.492-3.32,36.082,36.082,0,0,1-2.344-10.352q-0.585-14.84-.39-29.3A87.108,87.108,0,0,0,906.359,888a15.482,15.482,0,0,0,2.539-5.078,15.233,15.233,0,0,1-2.539-2.734,17.206,17.206,0,0,1,3.711-2.54,162.311,162.311,0,0,1,17.774-.586h0ZM942.883,925.7a84.128,84.128,0,0,1-12.891,2.93,101.735,101.735,0,0,0,16.6,10.352,48.385,48.385,0,0,0,7.226-6.641q0.975-1.758,1.953-3.516a3.941,3.941,0,0,0-1.953-4.1,60.028,60.028,0,0,0-10.937.976h0ZM929.6,903.82a19.325,19.325,0,0,0,.976,10.547,67.086,67.086,0,0,0,15.43-5.859,28.6,28.6,0,0,0,3.32-3.516,6.144,6.144,0,0,0-.39-3.125A114.458,114.458,0,0,0,929.6,903.82h0ZM930.383,863q5.273,0.98,10.742,1.953a27.337,27.337,0,0,1,8.594,4.492v2.149a4.583,4.583,0,0,1-2.149.976,41.709,41.709,0,0,0-6.836-2.734h-4.492a15.736,15.736,0,0,1-6.054,1.953,26.347,26.347,0,0,1-5.469-4.492,1.43,1.43,0,0,1-.2-1.563q2.931-1.364,5.86-2.734h0Zm116.8,48.438A75.374,75.374,0,0,1,1054.6,913q1.56,1.566,3.13,3.125a31.861,31.861,0,0,0,.19,3.516,20.084,20.084,0,0,1-2.54,2.148,8.152,8.152,0,0,1-1.95-.195,79.886,79.886,0,0,1-6.84-9.18c-0.13-.65.07-0.976,0.59-0.976h0Zm-28.91-26.368h21.1a18.853,18.853,0,0,1,7.61,1.953,4.807,4.807,0,0,1,.59,2.539l-1.17,1.172a73.038,73.038,0,0,0-7.62.391c0.78,1.172,1.5,2.344,2.15,3.516a99.169,99.169,0,0,0-.59,10.937,7.527,7.527,0,0,1,3.91,2.344,9.64,9.64,0,0,1-2.34,2.93,3.18,3.18,0,0,0-1.96.2,55.333,55.333,0,0,0-.19,15.43,101.335,101.335,0,0,1,18.94.585,1.962,1.962,0,0,1,1.57,1.563,4.764,4.764,0,0,1-1.57,2.344q-16.215.783-32.61,1.562a22.118,22.118,0,0,1-7.43-1.562,10.916,10.916,0,0,1-3.71-4.883q9.375-.192,18.56.195a5.256,5.256,0,0,0-1.76-2.734,94.994,94.994,0,0,0-.39-12.305,42.742,42.742,0,0,1-8.01.391,15.568,15.568,0,0,1-5.27-5.664,64.022,64.022,0,0,1,13.67-1.367,86.2,86.2,0,0,0-.98-13.282,23.848,23.848,0,0,1-9.37-.976,53.448,53.448,0,0,1-3.91-4.3,0.7,0.7,0,0,1,.78-0.977h0Zm93.17,25a6.664,6.664,0,0,1,2.73,1.953q0.195,4.1.39,8.4,2.94,7.228,5.47,14.844a3.387,3.387,0,0,1-3.51,1.367,57.473,57.473,0,0,1-5.86-5.078q-2.94-6.835-5.86-12.11a93.837,93.837,0,0,1-.59-10.351,48.685,48.685,0,0,1,7.23.976h0Zm35.15-20.312q4.7,1.758,9.57,3.906a45.487,45.487,0,0,1,9.38,7.813,50.57,50.57,0,0,1,3.91,6.835q0.975,3.516,1.75,7.618-0.39,3.323-.78,6.836a66.488,66.488,0,0,1-4.69,8.007,45.438,45.438,0,0,1-9.37,7.618c-1.69-.26-3.32-0.519-4.88-0.782a3.142,3.142,0,0,1-.98-3.711,30.5,30.5,0,0,0,9.18-7.031,40.235,40.235,0,0,0,4.1-8.2,56.543,56.543,0,0,0,0-6.641,43.247,43.247,0,0,0-4.49-9.57c-1.04-1.041-2.02-2.017-2.93-2.93a39.438,39.438,0,0,0-9.96-4.1,19.79,19.79,0,0,1-3.91.39,28.748,28.748,0,0,1-6.83-5.664,0.99,0.99,0,0,1,.39-1.171,72.035,72.035,0,0,1,10.54.781h0Zm-35.15-10.547a50.749,50.749,0,0,1,13.28,2.148c0.65,0.653,1.37,1.368,2.15,2.149a5.028,5.028,0,0,1,.19,3.125,4.218,4.218,0,0,1-3.9.781,36.382,36.382,0,0,0-7.23-2.344c-2.48-1.822-3.97-3.775-4.49-5.859h0Zm144.14-1.367a37.828,37.828,0,0,1,7.42,1.562,3.7,3.7,0,0,1,1.37,3.516,37.674,37.674,0,0,0-4.1,3.906q-3.135,4.884-6.45,9.961-2.34.783-4.49,1.563l-2.15-2.149q-0.39-2.733-.78-5.078,2.145-4.491,4.3-8.984a17.637,17.637,0,0,1,4.88-4.3h0Zm-27.35-2.93a27.276,27.276,0,0,1,7.23,1.367,6.638,6.638,0,0,1,1.56,1.758,19.575,19.575,0,0,1-1.95,6.641,144.168,144.168,0,0,0-1.56,15.429,22.115,22.115,0,0,0,1.56,4.1q8.6-1.758,17.38-2.734a44.734,44.734,0,0,1,7.03,1.367,3.647,3.647,0,0,1,.98,3.125,95.677,95.677,0,0,0-17.77,3.515,3.263,3.263,0,0,1,.58,2.539,23.663,23.663,0,0,0-2.93,6.055,101.889,101.889,0,0,0,12.89-1.953,30.688,30.688,0,0,1,7.82.977,4.312,4.312,0,0,1-.39,3.515q-10.56,1.955-20.71,4.1,10.74,7.813,21.49,14.843a3.293,3.293,0,0,1,.39,2.735,12.865,12.865,0,0,1-3.13.391q-8.205-4.491-15.82-9.376-3.7-2.929-7.42-6.25A81.51,81.51,0,0,0,1230.77,938a16.015,16.015,0,0,1-3.51.391,19.436,19.436,0,0,1-3.71-4.493,16.511,16.511,0,0,1,1.17-5.273,29.734,29.734,0,0,1-8.2,2.344,41.878,41.878,0,0,1-5.67-5.078,12.891,12.891,0,0,1,6.25-3.907q5.28-.777,10.55-1.757a59.157,59.157,0,0,0,3.71-8.594,36.211,36.211,0,0,1-12.89.781,11.089,11.089,0,0,1-4.69-5.664q8.6-.779,16.8-2.148a16.646,16.646,0,0,1-5.28-6.055q-0.39-8.789,0-17.188a27.283,27.283,0,0,1,2.93-6.445h0Z"/>
  <path id="大写字母" class="cls-3" d="M145.844,496.812a4.757,4.757,0,0,1,2.531,2.672q-0.564,11.391,0,22.782a6.593,6.593,0,0,0,1.266,1.687,2.1,2.1,0,0,1-.7,1.969q1.124,8.016,2.671,15.89a9.633,9.633,0,0,1-1.265.422,14.232,14.232,0,0,1-3.235-3.515q-1.126-6.609-2.531-12.938Q136,526.2,127.7,527.047a31.719,31.719,0,0,0-3.8,11.672H122.5q-1.407-1.687-2.672-3.094a45.758,45.758,0,0,1,2.953-9.422q-0.843-1.266-1.687-2.391a11.893,11.893,0,0,1,1.687-2.109,13.1,13.1,0,0,1,1.828.141q4.779-10.548,10.547-20.532,2.109-2.668,4.078-5.343a19.807,19.807,0,0,1,6.61.843h0Zm-9.985,15.469a49.364,49.364,0,0,0-5.2,9.422,87.574,87.574,0,0,0,13.219-.141,133.566,133.566,0,0,1-1.687-17.437,41.282,41.282,0,0,0-6.329,8.156h0Zm39.994-15.469a52.326,52.326,0,0,0,6.469,1.969,47.561,47.561,0,0,1,10.406,6.61,48.38,48.38,0,0,1,5.344,6.047c0.092,0.562.187,1.173,0.281,1.828a9.163,9.163,0,0,1-1.406,2.25q-4.08,2.393-8.3,4.5,4.357,1.407,9.422,3.234,1.266,1.126,2.812,2.531a21.992,21.992,0,0,1,1.688,3.657,22.408,22.408,0,0,1,0,3.515,10.758,10.758,0,0,1-2.391,3.656q-2.109.985-3.937,1.969-4.08.705-7.875,1.547-5.768.421-11.391,0.7a1.082,1.082,0,0,1-1.406.984,13.462,13.462,0,0,1-3.375-3.937q-0.142-17.156-.141-34.172a12.772,12.772,0,0,1,.985-3.515,13.662,13.662,0,0,1-1.688-2.954,10.027,10.027,0,0,1,4.5-.422h0Zm8.156,27.282q-3.8.843-7.453,1.406a72.506,72.506,0,0,0-.14,11.953q3.091,0,6.328-.141a52.443,52.443,0,0,0,10.828-2.812,30.991,30.991,0,0,0,3.8-2.953,7.084,7.084,0,0,1,.7-1.688,10.534,10.534,0,0,0-.563-4.359q-1.971-.843-3.8-1.547a66.834,66.834,0,0,0-9.7.141h0Zm-5.765-20.672a81.106,81.106,0,0,0-1.266,17.437,83.22,83.22,0,0,0,16.875-9.562v-1.266a20.333,20.333,0,0,0-5.625-5.062,35.225,35.225,0,0,0-6.328-2.953q-2.251-.423-4.219-0.7a1.631,1.631,0,0,0,.563,2.11h0Zm64.884-6.75a47.525,47.525,0,0,0,5.344,2.39,10.508,10.508,0,0,1,1.406,1.829,4.936,4.936,0,0,1-.422,1.968,7.137,7.137,0,0,1-3.937-1.406,39.007,39.007,0,0,0-6.61,0,18.682,18.682,0,0,0-7.593,5.2q-1.687,2.392-3.375,4.922a42.264,42.264,0,0,0-1.969,7.172,22.951,22.951,0,0,0,6.187,18.422q1.125,0.705,2.391,1.687a18.376,18.376,0,0,0,3.234,0,40.253,40.253,0,0,0,4.922-3.234,42.425,42.425,0,0,0,6.188-8.578,17.429,17.429,0,0,0,2.531.422,4.7,4.7,0,0,1,2.109,1.969,13.422,13.422,0,0,1-1.125,2.671q-3.516,3.8-6.89,7.313a16.677,16.677,0,0,1-5.063,2.812,12.183,12.183,0,0,1-5.765-1.265,36.785,36.785,0,0,1-4.219-3.375,50.771,50.771,0,0,1-5.766-8.578q-0.843-2.532-1.687-4.782a46.976,46.976,0,0,1-.563-7.172,31.708,31.708,0,0,1,1.407-7.453,59.732,59.732,0,0,1,3.937-7.171,27.662,27.662,0,0,1,4.219-3.938,13.885,13.885,0,0,1,3.515-1.828,34.3,34.3,0,0,1,7.594,0h0Zm42.244-.141a37.789,37.789,0,0,1,8.437,2.391,25.749,25.749,0,0,1,6.75,5.766q1.827,3.236,3.375,6.75,0.423,2.25.7,4.781a24.294,24.294,0,0,1-.7,5.906q-1.127,1.971-2.109,3.937-7.455,8.3-15.328,15.891-2.109-.281-3.656-0.562a13.469,13.469,0,0,1-2.25-4.079q-2.111-15.747-3.235-31.781A8.692,8.692,0,0,1,273,500.609a10.754,10.754,0,0,1,1.969-2.531,33.66,33.66,0,0,1,10.406-1.547h0Zm-1.125,4.922q-2.252.845-4.5,1.828a11.627,11.627,0,0,1,3.375,3.375q-0.284,5.627-.141,11.391,0.561,9.7,1.407,19.547h0.843q4.922-4.779,9.844-9.844a66.226,66.226,0,0,0,4.641-6.75,23.929,23.929,0,0,0,1.265-7.875,20.75,20.75,0,0,0-3.093-8.437,16.925,16.925,0,0,0-7.032-3.657,30.39,30.39,0,0,0-6.609.422h0Zm60.666-5.062a11.208,11.208,0,0,1,4.64,1.687,2.188,2.188,0,0,1-.422,2.672,149.2,149.2,0,0,0-16.875,1.266v4.359a81.432,81.432,0,0,0-2.531,13.641,79.814,79.814,0,0,1,17.016-5.063,8.917,8.917,0,0,1,4.359,1.406,4.15,4.15,0,0,1,.281,1.547q-5.2,1.971-10.687,3.516a121,121,0,0,0-11.391,6.187,6.047,6.047,0,0,0,.141,2.25,20.937,20.937,0,0,0,1.969,3.8q1.4,1.266,2.812,2.391,2.389,0.985,5.063,2.109,2.668,0.423,5.484.844a72.189,72.189,0,0,1,9.984-.141,7.552,7.552,0,0,1,1.407,1.125v1.266q-0.986.564-1.829,0.984h-6.328q-4.361-.981-8.859-1.687-3.094-1.266-5.906-2.531a20.731,20.731,0,0,1-6.469-6.61,42.569,42.569,0,0,1-2.531-7.875q1.124-11.812,2.25-24.047a9.416,9.416,0,0,0-.844-1.406q9-1.123,19.266-1.687h0Zm54.618,0.281a6.209,6.209,0,0,1,4.36,1.687,2.36,2.36,0,0,1-.422,1.829,24.658,24.658,0,0,0-2.672.14q-9.423,2.816-18.844,6.047A120.116,120.116,0,0,1,383.922,521a130.155,130.155,0,0,1,17.156-5.344,15.443,15.443,0,0,1,4.641.422,2.355,2.355,0,0,1,1.406,2.11,4.933,4.933,0,0,1-.984.984q-1.83,0-3.516.14-3.516,1.128-6.75,2.391-5.768,2.673-11.391,5.766,0.845,6.75,2.25,13.64a0.994,0.994,0,0,1-1.406.422q-1.549-1.825-2.812-3.656-0.845-4.219-1.547-8.437a4.1,4.1,0,0,1-2.531-1.688,20.881,20.881,0,0,1-1.829-2.953,16.48,16.48,0,0,1,2.953-1.688q-1.127-9.418-2.531-18.421a4.931,4.931,0,0,0-.984-1.547,14.467,14.467,0,0,1,1.828-1.547q10.827-2.67,21.656-4.922h0Zm42.807-.984a15.034,15.034,0,0,0,3.937.984,33.624,33.624,0,0,1,6.75,5.062q1.266,2.532,2.672,5.063a3.633,3.633,0,0,1-.422,2.25c-0.376.094-.7,0.189-0.984,0.281q-3.659-4.218-7.313-8.719a11.242,11.242,0,0,0-2.25-.843,18.087,18.087,0,0,0-3.937.14,13.138,13.138,0,0,0-5.2,2.672,20.33,20.33,0,0,0-4.782,6.61,40.73,40.73,0,0,0-2.109,7.734,43.319,43.319,0,0,0,.562,13.922,31.158,31.158,0,0,0,2.391,5.906,11.237,11.237,0,0,0,3.375,2.953H437.7a38.919,38.919,0,0,0,4.641-1.687,26.327,26.327,0,0,0,6.046-5.625,28.063,28.063,0,0,0,1.829-3.8q-0.143-2.39-.422-4.641-7.735,1.971-15.328,4.359a5.9,5.9,0,0,1-1.829-.562q-1.548-2.109-2.671-3.938a3.1,3.1,0,0,1,.984-1.265A126.666,126.666,0,0,0,444.166,521q4.218-1.4,8.437-2.953a11.67,11.67,0,0,1,3.938.7,4.647,4.647,0,0,1,1.125,1.406,1.9,1.9,0,0,1-.563,1.688,7.264,7.264,0,0,0-3.8.7,9.564,9.564,0,0,0,1.688,1.828q0.28,8.157.844,16.313a3.108,3.108,0,0,1-1.266.984,11.8,11.8,0,0,1-3.938-4.922q-3.375,2.532-6.609,4.922a15.107,15.107,0,0,1-6.609,1.125,13.95,13.95,0,0,1-5.766-3.235,22.606,22.606,0,0,1-4.219-7.031,50.66,50.66,0,0,1-1.687-9.281,49.589,49.589,0,0,1,1.125-13.078,33.509,33.509,0,0,1,3.375-8.3,19.875,19.875,0,0,1,3.094-3.656,26.734,26.734,0,0,1,3.937-2.11,17.406,17.406,0,0,1,5.063-.421h0Zm60.525,0.843q1.966,0.284,3.937.7a8.5,8.5,0,0,1,1.688,1.547q-0.143,9.142-.563,18.844-0.843,5.484-1.266,11.25-0.283,6.048-.14,12.375a1.7,1.7,0,0,1-1.688.844q-1.687-1.827-3.093-3.656,0.843-9.843.7-19.969-10.831-.281-20.25.14v18a1.891,1.891,0,0,1-1.828-.421q-1.128-1.689-2.25-3.235a258.789,258.789,0,0,1-1.407-27.422q0.561-1.825,1.125-3.656a13.2,13.2,0,0,1,4.922,1.266,9.232,9.232,0,0,1,.844,1.406,28.041,28.041,0,0,0-.984,8.437q6.186,0.423,12.375,1.407a29.814,29.814,0,0,0,7.734-.422,153.275,153.275,0,0,1,.141-17.438h0Zm43.228,0.7a12.041,12.041,0,0,0,2.39.7,5.315,5.315,0,0,1,1.828,1.968A6.985,6.985,0,0,1,548.9,502.3q-0.705,9.564-1.828,18.844a92.3,92.3,0,0,0,.563,16.171,8.071,8.071,0,0,1,3.656.844,3.152,3.152,0,0,1,1.406,1.688,5.294,5.294,0,0,1-1.969,1.828,60.958,60.958,0,0,0-11.812.562,15.672,15.672,0,0,1-4.781-4.5,43.837,43.837,0,0,1,7.171-.562q0.561-18,.422-35.86a3.215,3.215,0,0,0-2.672.844q-1.264-.7-2.39-1.265a22.354,22.354,0,0,1-2.813-3.375,37.971,37.971,0,0,1,12.235-.282h0Zm51.384-.422a16.86,16.86,0,0,1,3.8.422,5.208,5.208,0,0,1,1.969,1.828,7.218,7.218,0,0,1-.844,1.688,16.926,16.926,0,0,0-6.328,1.406,2.272,2.272,0,0,0,1.265,2.11q1.4,7.313,2.391,14.906a63.677,63.677,0,0,1-.562,10.406q-1.128,3.094-2.391,6.328-1.549,2.109-3.234,4.078a24.759,24.759,0,0,1-4.5,2.11q-3.659.141-7.172,0a29.957,29.957,0,0,1-5.2-2.672,17.226,17.226,0,0,1-4.782-7.875,8.076,8.076,0,0,1,3.375.7,3.2,3.2,0,0,1,1.125,2.953,6.859,6.859,0,0,0,2.953,3.375,24.454,24.454,0,0,0,6.891-.14,28.219,28.219,0,0,1,3.375-1.547,18.329,18.329,0,0,0,3.8-4.641,48.16,48.16,0,0,0,1.547-6.328,70.761,70.761,0,0,0-.563-12.656q-1.264-4.779-2.39-9.422a43.288,43.288,0,0,0-11.391,3.094,20.366,20.366,0,0,1-3.937-5.063q1.124-.561,2.25-1.266,4.356-.56,8.859-1.125,4.779-1.4,9.7-2.672h0Zm31.556,0.985c0.468,0.47.936,0.984,1.407,1.547a141.385,141.385,0,0,0-1.126,18.14,4.121,4.121,0,0,0,.985-0.14q7.874-9.563,16.312-19.125a17.246,17.246,0,0,1,5.2,1.406q0.561,0.844,1.126,1.828a9.082,9.082,0,0,1-1.266,2.25q-6.191,6.048-12.375,12.235a118.862,118.862,0,0,1,6.891,11.812q3.935,5.626,8.3,11.391a11.224,11.224,0,0,1,.141,1.828,1.729,1.729,0,0,1-1.406.7,19.331,19.331,0,0,1-2.11-1.828q-7.455-10.406-14.062-20.813h-0.985a48.867,48.867,0,0,0-7.031,8.157,60.825,60.825,0,0,0,0,13.078,1.676,1.676,0,0,1-1.265.984,25.546,25.546,0,0,1-3.657-4.219q-0.284-20.25.282-40.078a13.905,13.905,0,0,1,4.64.844h0Zm46.182-.281a14.324,14.324,0,0,1,4.5.984q0.56,0.843,1.265,1.828-0.843,17.719-.984,35.578,7.874,0,15.609-.281l3.656-1.125a14.857,14.857,0,0,1,4.079.562,3.979,3.979,0,0,1,1.968,2.11,3.422,3.422,0,0,1-.7,1.687q-13.078,1.549-25.875,2.11a22.039,22.039,0,0,1-4.078-4.781q-0.141-19.687.563-38.672h0Zm51.946-1.125a7.654,7.654,0,0,1,4.782,2.25,6.1,6.1,0,0,1,0,4.078,32.282,32.282,0,0,1,3.515,7.453q1.827,7.171,3.656,14.625,4.5-14.061,9.985-27.985a12.176,12.176,0,0,0,3.094.844,14.347,14.347,0,0,1,1.265,2.672q0.982,19.268,3.235,38.391a6.584,6.584,0,0,1-.844,1.828,2.99,2.99,0,0,1-1.688-.985q-0.843-1.686-1.687-3.093a281.29,281.29,0,0,0-2.531-28.407q-3.518,11.955-6.891,24.047l-1.125,1.125a3.834,3.834,0,0,1-3.234-1.687q-1.409-2.532-2.813-4.781-2.53-8.86-5.484-16.594A273.121,273.121,0,0,0,728,542.094h-1.125q-1.407-1.968-2.672-3.938a352.18,352.18,0,0,1,1.406-37.406,14.667,14.667,0,0,1,1.547-4.359h0Zm50.119,0.14a39.67,39.67,0,0,1,4.5,1.125A7.478,7.478,0,0,1,782.9,499.2a49.432,49.432,0,0,0-1.125,5.625q6.466,8.859,12.516,18.563a39.465,39.465,0,0,0,7.734,7.593q-0.564-14.765-2.109-29.672a11.818,11.818,0,0,1,3.8.422,7.079,7.079,0,0,1,1.968,1.828q0.844,16.173,1.688,32.626a0.9,0.9,0,0,0-.563.7,12.255,12.255,0,0,1-2.812-.844q-3.237-2.39-6.328-5.063-4.5-4.64-8.578-9.562a104.2,104.2,0,0,0-8.157-11.11q-1.264,15.751-1.406,31.641a2.839,2.839,0,0,1-1.266,0q-1.407-1.825-2.671-3.375-0.283-19.828.281-39.516,0.843-1.545,1.406-2.531h0Zm61.931-.7h3.235a32.781,32.781,0,0,1,7.593,2.953q1.406,1.266,2.954,2.672,2.109,3.8,3.937,7.875a57.3,57.3,0,0,1,1.406,6.328,37.737,37.737,0,0,1-1.125,10.406,77.816,77.816,0,0,1-5.484,11.25,20.66,20.66,0,0,1-6.328,5.2,38.216,38.216,0,0,1-4.641,0q-1.828-.982-3.656-1.828a57.525,57.525,0,0,1-4.219-4.079,85,85,0,0,1-4.922-9q-0.843-2.811-1.406-5.625a65.111,65.111,0,0,1-.422-9.562,47.073,47.073,0,0,1,3.235-13.219q1.124-.982,2.109-1.969a20.49,20.49,0,0,0,3.937.844,10.506,10.506,0,0,1,3.8-2.25h0Zm-2.672,9.563a6.439,6.439,0,0,1-2.109-1.125,25.458,25.458,0,0,0-3.516,8.718,58.861,58.861,0,0,0,0,14.063,26.8,26.8,0,0,0,3.235,7.594,13.352,13.352,0,0,0,5.344,4.64h2.671a17.477,17.477,0,0,0,5.063-3.093,65.913,65.913,0,0,0,5.2-8.3,45.906,45.906,0,0,0,2.25-8.719V514.25a47.477,47.477,0,0,0-3.094-10.547,14.237,14.237,0,0,0-5.484-3.234h-4.078a10.753,10.753,0,0,0-5.485,4.922h0Zm54.338-9.141a45.531,45.531,0,0,1,11.109,3.094,32.4,32.4,0,0,1,6.188,5.344A33.311,33.311,0,0,1,910,508.344V511.3a18.64,18.64,0,0,1-2.25,3.094q-10.409,5.625-20.672,10.968-1.687-1.4-3.094-2.812a157.046,157.046,0,0,0,1.407,18.984,1.561,1.561,0,0,1-1.547.563,17.845,17.845,0,0,1-2.672-2.672q-0.986-12.795-2.531-24.75-0.423-7.311-.422-14.625a8.787,8.787,0,0,1,.7-2.813,9.208,9.208,0,0,0,3.375-.984h8.578Zm-3.375,4.5a10.928,10.928,0,0,0-3.094.984,147.547,147.547,0,0,0-.562,20.391q3.091-1.4,7.031-3.094,6.186-3.513,12.234-7.593a12.263,12.263,0,0,1,1.829-1.969,6.955,6.955,0,0,0,.281-3.375,5.5,5.5,0,0,0-1.828-2.813q-1.83-1.124-3.516-1.969a34.229,34.229,0,0,0-4.219-.843q-4.641.141-8.156,0.281h0Zm53.775-4.5a4.519,4.519,0,0,1,2.109,2.25h3.8a23.943,23.943,0,0,1,7.735,3.094,15.362,15.362,0,0,0,2.109,2.25,45.725,45.725,0,0,1,2.25,5.344,80.962,80.962,0,0,1,.7,10.828q-0.421,4.218-.984,8.437a54.217,54.217,0,0,0-1.969,5.906,12.513,12.513,0,0,1,3.656,3.375,2.828,2.828,0,0,1-.422,2.25,24.8,24.8,0,0,1-4.64-2.672,41.364,41.364,0,0,1-4.782,6.188,29.822,29.822,0,0,1-5.062,2.25H941.7a29.256,29.256,0,0,1-5.625-2.25,32.3,32.3,0,0,1-5.766-7.453q-0.843-2.811-1.406-5.625a50.074,50.074,0,0,1-.141-6.469q0.423-4.779,1.266-9.422,2.247-7.593,4.922-14.765,1.826-1.968,3.375-3.938,1.124,0.143,2.953.422h0Zm3.234,6.047a32.448,32.448,0,0,0-5.2,3.234,71.989,71.989,0,0,0-3.8,7.594,57.122,57.122,0,0,0-3.375,13.922v5.906q0.7,2.532,1.547,5.063,1.123,1.407,2.11,2.672a25.7,25.7,0,0,0,3.515,1.968q2.109,0.143,4.5.141a19.733,19.733,0,0,0,5.766-2.953,21.956,21.956,0,0,0,3.375-4.782,45.242,45.242,0,0,0-5.485-4.218,11.134,11.134,0,0,0-2.671.281,9.387,9.387,0,0,1-3.375-5.2,12.272,12.272,0,0,1,7.171.984,52.2,52.2,0,0,0,5.766,5.2q0.7-1.4,1.406-2.953,0.844-4.641,1.547-9.14v-6.75a31.146,31.146,0,0,0-2.25-8.438,10.265,10.265,0,0,0-5.906-2.812,9.542,9.542,0,0,0-4.641.281h0Zm40.838,2.953a14.288,14.288,0,0,1,.984,1.125,93.541,93.541,0,0,0-.562,12.8q0.7,6.189,1.968,12.375,1.547,5.063,2.954,10.406a1.513,1.513,0,0,1-1.407.141A16.6,16.6,0,0,1,986.612,539a163.808,163.808,0,0,1-5.625-23.2,44.966,44.966,0,0,1,.282-11.25,9.638,9.638,0,0,1,4.078.7h0Zm9.984-9a45.555,45.555,0,0,1,7.739,2.109,26.227,26.227,0,0,1,5.76,4.219q1.125,1.55,2.25,3.234a9.859,9.859,0,0,1,.7,4.5,10.724,10.724,0,0,0-.84,2.391,53.417,53.417,0,0,1-5.2,6.047,37.268,37.268,0,0,0-5.21,4.078,147.032,147.032,0,0,0,11.82,14.906,1.912,1.912,0,0,1-.43,2.25,2.249,2.249,0,0,1-1.4-.422A183.58,183.58,0,0,1,998,525.078a26.2,26.2,0,0,1-7.594,4.5,35.355,35.355,0,0,1-2.672-2.672,63.163,63.163,0,0,0,9.563-5.765q4.215-3.936,8.3-8.3a24.933,24.933,0,0,1,1.82-3.094,11.277,11.277,0,0,0,.43-3.938c-0.28-.749-0.57-1.452-0.85-2.109a17.914,17.914,0,0,0-6.75-3.515,31.059,31.059,0,0,0-6.606.14,21.416,21.416,0,0,0-4.782,1.969,6.809,6.809,0,0,1-2.25,2.109,12.073,12.073,0,0,1-3.937-4.218q0.7-1.968,1.828-2.25a19.942,19.942,0,0,1,4.359-1.547,49.336,49.336,0,0,1,6.469-.141h0Zm53.919-.422q4.77,1.128,9.7,2.391a26.982,26.982,0,0,1,4.22,7.031,3.029,3.029,0,0,0-.42,1.125,2.089,2.089,0,0,1-1.83,0,17.093,17.093,0,0,1-2.81-3.656,29.222,29.222,0,0,0-5.77-2.672,11.434,11.434,0,0,0-5.34,1.547,14,14,0,0,0-3.66,4.078,10.234,10.234,0,0,0-1.12,3.516,17.726,17.726,0,0,0,.84,3.093,16.738,16.738,0,0,0,2.39,2.672q6.75,2.816,13.5,5.906a37.735,37.735,0,0,1,2.67,2.672,16.2,16.2,0,0,1,2.11,5.625c0,1.6-.05,3.094-0.14,4.5a34.1,34.1,0,0,1-1.27,3.235c-0.93,1.032-1.92,2.017-2.95,2.953q-2.955,1.407-5.9,2.531a39.321,39.321,0,0,1-7.46.422,26.259,26.259,0,0,1-5.2-3.094,58.414,58.414,0,0,1-6.89-9.7,24.43,24.43,0,0,1-2.11-6.75,4.112,4.112,0,0,1,3.66,1.125c0.28,1.125.51,2.3,0.7,3.516a28.954,28.954,0,0,0,5.48,9.562c1.03,0.752,2.06,1.5,3.1,2.25a31.233,31.233,0,0,0,7.31-1.125q2.115-1.124,4.36-2.531a15.352,15.352,0,0,0,3.23-5.625,17,17,0,0,0-.84-6.328,6.236,6.236,0,0,0-1.27-1.406A75.861,75.861,0,0,0,1047,518.75a31.436,31.436,0,0,1-5.07-3.656,36.747,36.747,0,0,1-3.51-5.625,6.776,6.776,0,0,1-.14-2.391,14.332,14.332,0,0,1,2.11-5.906,13.34,13.34,0,0,1,2.39-2.813,14.052,14.052,0,0,1,3.79-2.25,6.08,6.08,0,0,1,2.68-.281h0Zm61.65,0.7c0.84,0.189,1.78.422,2.81,0.7a3.918,3.918,0,0,1,.98,2.532,2.563,2.563,0,0,1-.84,1.265,53.037,53.037,0,0,0-8.86,1.547q-0.135,20.25-1.12,39.516a10.842,10.842,0,0,1-3.24-4.36q0.135-17.435-.56-34.312-6.33.843-12.38,2.109a14.969,14.969,0,0,1-1.12,1.266,2.035,2.035,0,0,1-1.55-.281,19.974,19.974,0,0,1-2.53-5.344,5.943,5.943,0,0,1,1.55-1.547q9.42-1.124,20.39-1.406a65.689,65.689,0,0,1,6.47-1.688h0Zm31.41,0.985a5.308,5.308,0,0,1,1.41,1.968,102.292,102.292,0,0,0-3.66,12.938,114.663,114.663,0,0,0-1.54,19.125c0.18,0.938.42,1.922,0.7,2.953a10.865,10.865,0,0,0,3.94,4.078,17.827,17.827,0,0,0,5.06-.422,28.263,28.263,0,0,0,4.22-3.234,48.958,48.958,0,0,0,5.76-10.688q0.99-4.077,2.11-7.875a134.625,134.625,0,0,0,.42-18.421,32.416,32.416,0,0,1,3.24.7,3.609,3.609,0,0,1,1.69,1.828q-0.15,5.346-.43,10.547-0.7,5.062-1.68,10.125-1.56,4.5-2.96,9.281a38.475,38.475,0,0,1-5.62,9.422,27.367,27.367,0,0,1-4.5,2.672,47.969,47.969,0,0,1-5.2,0,20,20,0,0,1-5.77-3.094q-2.115-2.532-3.94-4.922a18.645,18.645,0,0,1-1.4-5.484,147.813,147.813,0,0,1,0-16.032q0.975-7.172,1.54-13.5a32.216,32.216,0,0,1,1.83-2.953,18.947,18.947,0,0,1,4.78.985h0Zm72.34,0a10.367,10.367,0,0,1,1.41,1.828q-6.48,21.8-13.93,42.89a3.068,3.068,0,0,1-2.39-1.687c-0.93-1.688-1.78-3.186-2.53-4.5-0.75-2.531-1.4-5.014-1.97-7.453q-5.475-14.345-10.68-27.844a8.223,8.223,0,0,1,4.78,1.688,302.053,302.053,0,0,1,10.4,29.25,2.325,2.325,0,0,0,.71-0.141,284.8,284.8,0,0,0,11.25-34.313,5.584,5.584,0,0,1,2.95.282h0Zm50.12-1.688a3.652,3.652,0,0,1,2.67,1.125q-2.82,21.8-6.75,43.031a6.336,6.336,0,0,0-.98,1.266h-1.55a11.787,11.787,0,0,1-3.24-4.641q-1.68-5.905-3.09-11.531-1.545,8.157-3.37,16.313a11.174,11.174,0,0,1-1.55,1.968,3.979,3.979,0,0,1-2.25-.562,28.235,28.235,0,0,1-2.95-5.063q-4.08-13.922-7.18-27.984a23.8,23.8,0,0,1-.14-5.766q1.41,0.284,3.24.7c0.28,0.375.65,0.843,1.12,1.406a41.4,41.4,0,0,0,.28,4.64,227.457,227.457,0,0,0,5.91,27.422q3.375-12.093,5.77-24.609a3.884,3.884,0,0,1,2.81.844,181.575,181.575,0,0,0,3.94,20.25,72.124,72.124,0,0,0,2.11-7.032q2.94-15.89,5.2-31.781h0Zm26.91,2.25q4.365,8.016,8.02,16.031a1.142,1.142,0,0,0,.84.282,87.262,87.262,0,0,1,9.99-13.079,8.216,8.216,0,0,1,5.2,0A7.935,7.935,0,0,1,1317.7,503a3.512,3.512,0,0,1-.28,2.391,23.605,23.605,0,0,0-2.25.984,131.417,131.417,0,0,0-12.24,13.5,33.481,33.481,0,0,0,3.24,7.594q2.535,3.659,5.48,7.875,2.25,2.25,4.64,4.64a1.889,1.889,0,0,1-.42,1.828,8.669,8.669,0,0,1-3.51-2.531,121.029,121.029,0,0,1-11.39-16.031,89.225,89.225,0,0,0-12.1,13.641,7.831,7.831,0,0,1-2.53-3.235q5.91-7.452,11.53-15.328-5.34-10.827-10.97-21.375a7.284,7.284,0,0,1,4.78,1.125h0Zm49.28-.844q4.5,8.58,9.84,17.016,5.205-7.452,10.97-14.484a11.247,11.247,0,0,1,2.39-1.125c1.22,0.281,2.49.61,3.8,0.984a2.645,2.645,0,0,1,.98,2.531,43.046,43.046,0,0,0-6.47,5.344q-3.93,4.782-7.87,9.7V541.25a5.592,5.592,0,0,1-.7,1.266,2.471,2.471,0,0,1-1.83-.7q-0.99-1.4-1.83-2.671-0.135-10.405-.28-20.672-7.035-10.827-13.5-22.219a6.966,6.966,0,0,1,4.5.984h0Zm69.52,0.563a40.479,40.479,0,0,0,3.94.984,5,5,0,0,1,1.41,1.407,6.85,6.85,0,0,1-.85,3.374q-6.18,7.878-11.53,16.172a7.45,7.45,0,0,1,0,2.11,1.843,1.843,0,0,1-1.83.844,72.482,72.482,0,0,0-7.59,15.187q5.91-.281,11.95-0.281c3-.468,5.96-1.031,8.86-1.688a8.9,8.9,0,0,1,4.5,1.125,1.711,1.711,0,0,1-.28,2.25q-13.92,1.55-27.98,2.813a18.019,18.019,0,0,1-2.67-2.672q4.35-8.154,8.86-16.313a14.869,14.869,0,0,1-4.08-5.343,24.575,24.575,0,0,1,6.47.562q4.5-8.437,9.14-16.453a138.478,138.478,0,0,1-16.88-.984,14.948,14.948,0,0,1-4.08-4.36,207.5,207.5,0,0,0,22.64,1.266h0Z"/>
  <path id="logo" class="cls-1" d="M706.266,1194.7a45.969,45.969,0,0,0-.118,5.15v5.16H677.555v-1.17l0.234-.94-1.406-.24c-1.1,0-2.659-.07-4.688-0.23h-3.281l-0.469,2.58a45.646,45.646,0,0,1-1.172,4.92,22.619,22.619,0,0,1-1.406,4.22,7.125,7.125,0,0,0-.82,2.23,6.584,6.584,0,0,0,2.109-.71c1.326-.54,2.615-1.13,3.867-1.76a11.566,11.566,0,0,0,3.516-2.81l1.641-1.64h66.8l1.875,1.88a14.477,14.477,0,0,0,3.75,2.81c1.406,0.62,2.655,1.17,3.75,1.64a1.036,1.036,0,1,0,1.171-1.17,17.1,17.1,0,0,1-1.406-3.99q-0.7-2.34-1.172-4.68a11.9,11.9,0,0,0-.7-3.05c0-.47-1.252-0.62-3.75-0.47-1.875.16-3.281,0.23-4.219,0.23a2.052,2.052,0,0,1-.937.24c-0.315,0-.469.31-0.469,0.94l0.235,0.93-13.594.24q-13.359,0-13.36-.24a2.838,2.838,0,0,1,.7-1.05,6.664,6.664,0,0,0,1.171-2.46,15.728,15.728,0,0,0,.469-4.22v-2.58h-4.687Q706.382,1194.46,706.266,1194.7Zm-31.289,28.12v4.22l21.093,0.23h21.094l-5.859,4.93q-5.4,4.215-8.2,6.56l-2.344,1.87v6.8H660.445v4.22h40.313v14.76c0,10.01-.158,15.47-0.469,16.41a13.152,13.152,0,0,1-1.172,3.05,21,21,0,0,1-2.578,3.04,16.962,16.962,0,0,1-3.75,2.82c-1.406.62-2.109,1.17-2.109,1.64s0.153,0.7.468,0.7a30.375,30.375,0,0,0,3.047-.47,34.353,34.353,0,0,0,4.922-1.4,16.4,16.4,0,0,0,4.688-1.88,11.74,11.74,0,0,0,3.515-2.34,12.264,12.264,0,0,0,2.344-2.58,13,13,0,0,0,1.172-2.58c0.311-.94.469-6.4,0.469-16.41v-14.76h38.2v-4.22h-38.2v-6.8l2.109-1.64q2.109-1.635,8.438-6.79,6.327-5.4,8.437-7.04a13.637,13.637,0,0,0,2.578-2.34q0-.225-28.828-0.23t-29.062.23h0Zm121.64-30.23-0.469,1.87a27.635,27.635,0,0,1-1.523,5.74c-0.861,2.43-1.681,4.65-2.461,6.68q-1.176,2.58-3.281,6.8-1.88,3.75-4.453,8.44-2.11,3.75-4.688,7.73-2.582,4.215-3.047,4.92a7.818,7.818,0,0,0-1.406,2.11c-0.157.47-.117,0.71,0.117,0.71a8.252,8.252,0,0,0,2.227-1.18q1.873-1.17,3.515-2.34,1.874-1.41,3.985-3.28a59.714,59.714,0,0,0,4.453-4.45l2.109-2.35,0.235,14.77,0.234,14.76h1.875a5.862,5.862,0,0,0,3.047-.7,5.457,5.457,0,0,0,1.875-1.17,11.374,11.374,0,0,0,1.406-1.64l0.469-.71h27.187v2.11l0.235,2.11h1.64a7.437,7.437,0,0,0,2.813-.47,9.072,9.072,0,0,0,2.109-1.17,4.666,4.666,0,0,0,1.407-1.64l0.7-.94h31.64v-4.45H838.336v-6.8H868.57v-4.45H838.336v-6.8H868.57v-4.68H838.336v-7.5H868.57v-4.69H837.164l0.938-1.17a23.668,23.668,0,0,0,1.406-2.35,6.445,6.445,0,0,0,.7-2.57,17.74,17.74,0,0,0,.469-4.93v-3.51H828.727v14.53H815.6q-13.129,0-13.125-.23c0-.16-0.158-0.24-0.469-0.24s0.311-1.41,1.875-4.22a69.182,69.182,0,0,0,3.281-7.5,16.732,16.732,0,0,0,1.406-3.98l0.235-1.17H796.617Zm31.406,22.03v7.5H802.477v-7.5h25.546Zm0,12.18v6.8H802.477v-6.8h25.546Zm0,11.25v6.8H802.477v-6.8h25.546Zm-3.515,16.88v5.16l-22.969.23H778.805v4.45h45.7v1.64c0,1.1-.081,1.64-0.235,1.64a40.222,40.222,0,0,1-4.687-1.17q-4.455-1.17-4.922-1.4-0.236,0-6.328,4.68-6.1,4.935-7.734,6.1-1.643.93-4.454,2.58a58.967,58.967,0,0,1-5.39,2.57q-2.812,1.185-5.391,2.23a35.226,35.226,0,0,1-5.859,1.76,17.416,17.416,0,0,0-3.047,1.05,6.06,6.06,0,0,0,1.289,1.06,3.994,3.994,0,0,0,1.992.94c0.469,0,2.344-.32,5.625-0.94s6.328-1.33,9.141-2.11q4.449-1.17,8.2-2.35a22.822,22.822,0,0,0,4.922-2.1q1.637-.945,9.14-6.1t7.618-5.04q0.115,0.12.117,13.48v13.12h1.406a7.357,7.357,0,0,0,2.813-.7,6.692,6.692,0,0,0,3.046-1.99,11.184,11.184,0,0,0,2.11-3.17,8.733,8.733,0,0,0,.586-2.34q0.115-1.17.117-6.33c0.154-4.68.271-7.11,0.352-7.26s1.442,0.55,4.1,2.11q3.982,2.1,6.8,3.51a34.945,34.945,0,0,0,6.328,2.58,54.282,54.282,0,0,0,6.328,1.64,52.974,52.974,0,0,0,5.625.94c1.718,0.16,4.219.23,7.5,0.23a38.521,38.521,0,0,0,5.86-.23,1.37,1.37,0,0,0,1.171-.94l0.235-1.17c0-.15-0.235-0.24-0.7-0.24-0.315,0-1.722-.23-4.219-0.7s-5-1.01-7.5-1.64q-3.516-.93-6.8-2.11-2.812-.93-5.625-2.11-2.346-1.17-10.078-6.33l-7.734-5.15,19.453-.24h19.453v-4.45H854.977l-20.157-.23v-2.58l-0.234-2.58H824.508Z"/>
</svg>
