<svg xmlns="http://www.w3.org/2000/svg" width="1540" height="1450" viewBox="0 0 1540 1450">
  <defs>
    <style>
      .cls-1 {
        fill: #fff;
      }

      .cls-1, .cls-2, .cls-3 {
        fill-rule: evenodd;
      }

      .cls-2 {
        fill: #fefefe;
      }

      .cls-3 {
        fill: #fdfdfd;
      }
    </style>
  </defs>
  <path id="字体名称" class="cls-1" d="M227.8,196.289q-2.929,3.909-6.055,3.906H99.867q-3.909,0-2.734,2.735,1.172,2.93,5.078,2.343,3.708-.585,7.422-0.976H161q3.32,0,3.32,3.32v57.227q0,3.126-3.32,3.125H109.633q-3.516,0-2.149,3.125,1.173,2.539,5.078,1.953l6.836-.781H161q3.32,0,3.32,3.32v62.305q0,3.121-3.32,3.125H85.609q-3.712,0-2.344,2.929,0.975,2.537,5.469,1.563l5.859-.781H253.383q4.88,0.975,5.469-1.954a95.966,95.966,0,0,0-10.938-10.742q-4.5-4.1-7.226-.39l-4.3,5.468q-2.929,3.906-6.055,3.907H178.578q-3.126,0-3.125-3.125V275.586q0-3.32,3.125-3.32h56.445a21.634,21.634,0,0,0,4.3-.2q2.148-1.56-.976-4.1-3.909-3.123-7.813-6.836-3.515-3.319-7.031.976l-1.562,1.953q-3.324,3.91-6.446,3.907H178.578q-3.126,0-3.125-3.125V207.617q0-3.318,3.125-3.32H242.25a21.789,21.789,0,0,0,4.3-.195q1.561-2.537-2.735-5.079l-6.835-5.859q-3.713-3.318-7.618,1.172Zm73.047-8.984q12.5,12.7,16.6,25.976,2.537,3.516,3.516,3.321a13.775,13.775,0,0,0,6.445-8.79q1.95-7.809-9.961-15.429a162.822,162.822,0,0,0-15.429-8.008q-3.911-1.758-4.3-.781t3.125,3.711h0Zm114.648,9.57H349.867q-3.909,0-2.344,2.93,1.562,2.539,5.469,1.562l1.563-.195q3.708-.192,4.3,3.32a593.465,593.465,0,0,0,13.086,61.719,191.013,191.013,0,0,0,12.109,31.25,7.191,7.191,0,0,1-.781,7.812q-15.432,18.558-29.1,28.125a308.445,308.445,0,0,1-31.25,20.7q-4.5,2.732-4.1,3.32,0.586,0.192,4.493-1.367a210.787,210.787,0,0,0,44.922-25.2,141.478,141.478,0,0,0,19.531-17.968q3.318-3.708,5.859-.391a155.541,155.541,0,0,0,44.141,37.891q3.708,1.95,8.008-2.539a14.3,14.3,0,0,1,8.007-4.1q3.906-.393,4.3-0.977,0-.585-4.687-1.953-18.558-6.252-37.11-20.508a103.717,103.717,0,0,1-16.8-15.82q-2.541-2.93,0-6.64a108.153,108.153,0,0,0,13.867-27.344q9.179-25.974,17.578-62.5a6.9,6.9,0,0,1,1.953-3.906,7.854,7.854,0,0,1,3.906-1.954,4.206,4.206,0,0,0,1.563-.781q0.192-1.171-1.367-2.148l-7.813-5.86q-3.909-2.929-7.226.391-3.324,3.126-6.446,3.125h0Zm-8.4,61.523a158.91,158.91,0,0,1-13.282,31.25q-2.343,3.712-4.492.2a129.87,129.87,0,0,1-10.156-22.461,368.107,368.107,0,0,1-16.016-62.3q-0.782-4.1,2.344-4.1h50.977q3.122,0,2.734,3.32a386.363,386.363,0,0,1-12.109,54.1h0Zm-95.508,15.43a154.723,154.723,0,0,1-7.422,15.625q-3.126,4.5-7.422,5.274H285.023q-3.514,0-3.515,1.171,0,0.783,4.687,1.563a47.283,47.283,0,0,1,5.86,1.172q4.293,1.368,7.617,6.445,2.146,4.1,1.172,11.524-0.394,3.909-1.172,7.812-1.758,7.809-2.93,15.625Q294,348.828,304.359,354.3q8.2,3.516,8.4-4.883-1.171-11.718-1.953-23.437a132.352,132.352,0,0,1-1.172-17.774,105.325,105.325,0,0,1,3.711-18.555q13.476-38.475,27.539-77.148,1.171-3.9.781-4.1-0.393.2-2.148,4.1-14.062,30.666-27.93,61.328h0ZM283.656,229.1q11.133,11.131,15.235,24.023,2.343,3.712,6.836.195,5.465-7.222,1.171-13.672-6.839-8.005-22.851-14.648-3.713-1.561-4.3-.781-0.393.783,3.906,4.883h0ZM556.7,181.055q7.032,9.768,7.813,18.359,0.389,3.909-2.93,3.906H512.758q-3.128,0-3.516-3.32l-0.195-1.367q-0.2-3.9-.781-3.906-0.395,0-.977,3.906a57.076,57.076,0,0,1-10.742,25.39,82.392,82.392,0,0,0-6.25,7.813,4.939,4.939,0,0,0-.781,5.273,3.578,3.578,0,0,0,1.953,2.149q5.663,2.929,11.719-2.93a31.448,31.448,0,0,0,6.445-15.625,35.638,35.638,0,0,0,.39-9.375q0-4.1,3.125-4.1H624.477q3.318,0,1.953,3.32l-6.836,17.773q-1.37,3.516-.2,4.1,0.779,0.393,4.493-3.906,15.234-16.6,24.414-17.969,4.293-.975.976-4.492-5.859-4.88-11.719-9.571-3.711-3.122-6.835.977a17.8,17.8,0,0,1-1.368,1.953q-3.126,3.909-6.25,3.906H573.7q-3.323,0,.2-2.929a20.6,20.6,0,0,0,3.125-5.079q1.95-3.9-2.93-7.617a97.392,97.392,0,0,0-15.43-9.765q-3.712-1.95-4.492-1.172-0.586.393,2.539,4.3h0Zm45.117,55.273q-2.93,3.909-6.054,3.906h-79.1q-3.713,0-2.539,2.735,1.171,2.54,5.859,1.758l5.86-.782h90.429a21.773,21.773,0,0,0,4.3-.195,1.617,1.617,0,0,0,.586-1.172q0-.779-4.1-4.492l-5.86-5.274q-3.909-3.318-7.031.586Zm32.813,34.18q-2.93,3.909-6.055,3.906H487.953q-3.909,0-2.734,2.93,1.171,2.738,5.469,1.953,2.93-.587,5.859-0.977h62.695q3.32,0,3.32,3.321v51.953l-0.976,3.711q-1.955,3.9-5.078,3.711L533.266,337.7q-3.516-.585-3.516.586,0,0.587,4.492,1.953a86.244,86.244,0,0,1,11.719,4.883q7.809,4.688,9.18,9.961,1.172,3.708,5.078,2.734a23.437,23.437,0,0,0,7.812-4.3q5.861-6.057,6.446-15.625v-56.25q0-3.32,3.125-3.321h73.437q4.1,0.587,5.273-.781,0.587-1.562-1.953-3.125l-9.765-8.594q-3.909-3.515-7.032.782ZM485.414,347.07q-4.5,3.123-3.516,3.516,0.778,0.389,4.688-2.148,22.458-14.26,43.75-36.915,7.42-9.177,13.086-11.718,3.9-1.173,0-3.321l-7.031-3.906q-3.91-1.95-6.055,1.758-19.145,32.424-44.922,52.734h0Zm109.18-48.047q27.342,19.533,42.578,44.727,1.95,2.536,3.711,1.562a4.7,4.7,0,0,0,2.929-3.124q3.708-9.375-6.445-19.532a63.118,63.118,0,0,0-11.719-9.179,187.346,187.346,0,0,0-30.859-16.8q-3.909-1.758-4.3-.977-0.2.395,4.1,3.32h0ZM696.742,229.1q-3.712,9.768-11.914,14.257-4.1,1.758-1.758,5.469a28.872,28.872,0,0,1,1.953,2.93q2.537,3.909,6.446,2.539,12.3-4.1,28.125-8.2,3.9-.975,1.953,2.539Q711.585,266.408,705.531,275q-6.445,8.789-14.843,12.305-3.91.98-1.758,4.883,0.975,1.954,2.148,3.906,2.147,3.909,6.055,2.734,16.992-5.662,45.7-13.672,3.9-.975,3.906-2.148,0-.39-4.687,0-19.144,2.151-38.282,4.492-3.909.2-1.171-2.93,16.405-19.139,40.625-52.343,3.515-4.881,7.421-6.25,3.906-1.173,0-4.493l-5.859-4.882q-3.909-3.319-5.859.39-5.082,10.355-10.742,20.508-2.152,3.909-5.274,4.3l-23.242,1.758q-4.1.393-2.149-2.93,16.993-28.513,29.688-45.7,3.121-4.1,6.055-4.688,0.389-1.364-2.539-2.734l-9.571-5.859q-3.712-2.344-5.273,2.539A358.205,358.205,0,0,1,696.742,229.1h0Zm134.766-31.055H773.891a9.233,9.233,0,0,1-4.1-.586l-5.859-3.516q-3.91-2.343-3.907,1.563V352.539q0,3.9,3.907,3.516,4.688-.587,6.054-3.321a15.333,15.333,0,0,0,.391-4.687v-9.375q0-3.324,3.125-3.32h62.109q3.319,0,3.321,3.32v9.961q0,3.9,3.906,3.515,7.809-.585,6.445-8.007V209.961a8,8,0,0,1,2.93-5.859q2.343-3.123-1.563-6.641l-4.882-3.906q-3.516-2.93-7.422.976-3.713,3.516-6.836,3.516h0Zm-32.422,63.281q0,3.126-3.32,3.125H773.5q-3.126,0-3.125-3.125v-56.25q0-3.318,3.125-3.32h22.461q3.121,0,3.125,3.32v56.25Zm39.844,0q0,3.126-3.321,3.125H812.367q-3.126,0-3.125-3.125v-56.25q0-3.318,3.125-3.32h23.438q3.122,0,3.125,3.32v56.25Zm-39.844,67.188q0,3.121-3.32,3.125H773.5q-3.126,0-3.125-3.125V271.484q0-3.318,3.125-3.32h22.461q3.121,0,3.125,3.32v57.032Zm39.844,0q0,3.121-3.321,3.125H812.367q-3.126,0-3.125-3.125V271.484q0-3.318,3.125-3.32h23.438q3.122,0,3.125,3.32v57.032Zm-157.813,4.1,2.539,4.688q2.148,3.9,6.836,2.148,7.809-3.322,25.391-8.789l31.055-10.156q3.514-1.171,3.32-2.344-0.2-.586-4.492,0l-62.3,9.961q-4.5.779-2.344,4.492h0ZM923.305,180.664a41.46,41.46,0,0,1,6.445,17.188q0.192,3.909-3.125,3.906h-34.18q-3.515,0-2.148,2.93,0.975,2.54,4.883,1.953l7.031-.782h44.922q2.929,0,1.953,3.711-4.3,14.846-11.524,34.375-1.565,4.1-4.687,4.1H886.586q-3.713,0-2.539,2.734,1.171,2.541,5.078,1.953,3.319-.585,6.641-0.976h26.953q3.318,0,3.32,3.32v23.438q0,3.126-3.32,3.125H892.641q-3.712,0-2.344,2.734,0.975,2.541,4.883,1.953,3.515-.585,6.836-0.976h20.7q3.318,0,3.32,3.32v45.312q-1.955,6.637-6.641,5.469-5.272-.979-10.546-1.758-3.91-.585-3.907,0,0.192,0.39,4.1,2.149,9.178,4.293,10.742,11.328,0.586,3.9,4.492,2.93a20.28,20.28,0,0,0,7.813-4.688,25.792,25.792,0,0,0,4.3-11.719V288.672q0-3.32,3.125-3.32h33.789a21.74,21.74,0,0,0,4.3-.2,1.373,1.373,0,0,0,.781-1.172q0-.975-3.906-4.3L969.789,275q-3.713-3.32-6.836.781a10.227,10.227,0,0,1-1.562,1.953q-2.929,3.911-6.055,3.907h-15.82q-3.127,0-3.125-3.125V255.078q0-3.318,3.125-3.32h39.062q4.295,0.98,4.492-1.563a46.524,46.524,0,0,0-7.226-7.226q-4.5-4.1-7.227-.781l-1.562,1.953q-3.127,3.909-6.25,3.906H942.25q-3.516,0-1.367-3.32,6.247-10.154,12.695-20.508a24.389,24.389,0,0,1,6.055-7.227q4.1-2.146,3.711-2.93a8.165,8.165,0,0,0-1.563-1.171l-5.078-2.93q-3.713-2.536-3.906-3.125,0-.587,4.1-0.977h17.969q4.295,0.586,5.078-1.171,0-.778-3.125-3.907-2.738-2.733-5.468-5.273-3.91-3.516-6.836.39a10.208,10.208,0,0,1-1.563,1.954q-2.929,3.909-6.055,3.906H938.93q-3.324,0-.391-3.711,3.121-5.274,2.149-7.813Q936,183.6,925.844,178.32q-3.713-2.343-4.3-1.758t1.758,4.1h0Zm78.125,18.555a4.308,4.308,0,0,1-1.953-.391q-3.91-2.343-7.813-4.492t-3.906,1.758v88.281q-0.783,35.938-23.242,67.383-2.737,3.516-1.172,3.906,1.56,0.192,4.883-3.711l5.859-7.031q22.654-30.272,24.023-62.5V255.859q0-3.318,3.121-3.32h16.8q3.315,0,3.32,3.32V353.32q0,3.9,3.91,3.321,5.265-.98,6.44-4.688V255.859q0-3.318,3.13-3.32h18.75q4.485,0.587,4.49-1.172-0.195-.585-4.1-4.492-2.34-2.147-4.49-4.492-3.915-3.708-7.23.586l-1.56,1.953q-3.33,3.909-6.45,3.906h-33.01q-3.12,0-3.121-3.125V205.078q0-3.318,3.121-3.32a278.643,278.643,0,0,0,41.02-5.664,19.734,19.734,0,0,1,7.81,0c2.61,0.262,3.97.195,4.1-.2,0-.259-1.1-1.69-3.32-4.3l-4.29-5.079q-3.33-3.9-8.01-.781a106.82,106.82,0,0,1-37.11,13.477h0Zm-93.946,18.359a51.2,51.2,0,0,1,6.836,21.484q0.587,2.153,2.344,1.758,3.516-.585,6.055-4.882,2.929-4.294.976-7.813a43.932,43.932,0,0,0-14.453-13.477q-3.516-2.535-4.3-2.148-0.585.393,2.539,5.078h0ZM881.117,341.992q-2.541,3.516-2.148,4.3,0.388,0.587,4.1-3.125a240.578,240.578,0,0,0,25.977-32.226q3.9-4.689,7.617-5.665a3.551,3.551,0,0,0,1.563-1.171q0.192-.586-3.321-3.516-2.929-2.344-5.859-4.3-3.713-2.536-4.883,1.563a166.575,166.575,0,0,1-23.047,44.14h0ZM948.5,302.539a60.652,60.652,0,0,1,11.719,21.289q1.758,3.909,2.539,3.711,9.567-6.834,4.492-15.234a41.3,41.3,0,0,0-2.93-3.711,82.991,82.991,0,0,0-15.429-10.156q-3.712-1.952-4.3-.977-0.395.586,3.906,5.078h0Zm210.55-122.266a44.546,44.546,0,0,1,8.98,22.266q1.365,4.1-1.95,4.1h-50a2.959,2.959,0,0,1-3.32-3.125v-6.641c0-2.6-.33-3.906-0.98-3.906q-0.78,0-1.56,3.906a51.509,51.509,0,0,1-4.3,13.672,52.185,52.185,0,0,1-11.91,16.406c-1.96,2.216-3.06,4.038-3.32,5.469-0.39,3,1.1,5.014,4.49,6.055q6.255,1.756,11.33-4.493a33.292,33.292,0,0,0,6.83-19.531q0-4.1,3.13-4.1h113.87q3.315,0,1.36,3.32-5.85,9.768-11.32,19.336c-1.44,2.344-1.76,3.778-.98,4.3q0.78,0.585,4.69-3.907,16.59-17.577,28.12-19.336l4.49-.976q1.17-.975-1.75-3.32-5.67-4.1-11.14-8.789-4.485-3.516-7.03.195l-1.17,1.562q-2.925,3.91-6.06,3.907h-55.27c-2.47,0-2.15-.977.98-2.93a14.7,14.7,0,0,0,5.27-9.766q-1.17-5.464-11.52-11.718-3.915-2.537-7.81-4.688-3.915-2.146-4.69-1.562c-0.39.262,0.45,1.693,2.54,4.3h0Zm5.07,74.024c0,2.084-1.1,3.125-3.32,3.125h-67.57q-3.72,0-2.35,2.93,0.975,2.54,5.67,1.757,2.925-.585,5.86-0.976h50q3.315,0,1.56,3.32-5.67,10.355-11.72,20.508a153.368,153.368,0,0,1-26.17,32.031q-10.95,10.546-31.25,25c-2.61,1.953-3.58,3.189-2.93,3.711q0.585,0.587,4.88-1.758a239.9,239.9,0,0,0,54.3-43.164,244.136,244.136,0,0,0,22.65-30.859c0.26,0,.39,1.044.39,3.125V354.3c0,2.472,1.44,3.58,4.3,3.32q5.67-.585,6.84-4.1V264.453c0-2.212.58-3.32,1.76-3.32s2.01,1.108,2.53,3.32a114.273,114.273,0,0,0,19.54,41.016,87.733,87.733,0,0,0,33.79,27.343q3.7,1.758,8-1.367a29.012,29.012,0,0,1,14.46-5.273q3.315-.975-0.39-1.563-13.1-1.757-28.13-9.179a77.444,77.444,0,0,1-31.44-26.953,99.665,99.665,0,0,1-11.72-23.243c-1.05-2.734-.46-4.1,1.75-4.1h63.87a5.834,5.834,0,0,0,1.17-.391q1.17-1.758-1.17-3.125l-7.81-7.226c-2.09-2.082-4.23-1.691-6.45,1.171l-1.56,1.954q-3.315,3.909-6.44,3.906h-48.64q-3.12,0-3.12-3.125V230.273a6.281,6.281,0,0,1,3.12-5.273c1.96-1.172,1.63-2.344-.97-3.516l-9.57-3.32q-3.72-1.171-3.72,2.93v33.2Zm197.47-33.008q-3.525,3.909-2.74,4.688,0.585,0.585,4.1-2.149a171.155,171.155,0,0,0,20.32-18.945q3.51-3.9,6.64-3.906h9.18q2.925,0,4.68,3.515a50.761,50.761,0,0,1,5.28,17.969q0.78,3.909,1.17,4.3,1.56,0.393,4.1-1.367a8.24,8.24,0,0,0,4.1-5.469q1.56-6.052-9.76-15.43-3.915-3.516-.39-3.515h43.55a21.861,21.861,0,0,0,4.3-.2c0.39-.909-0.07-1.822-1.37-2.734q-3.7-3.319-7.23-6.836-3.9-3.9-7.03-.2l-1.76,1.953q-3.315,3.909-6.44,3.906h-38.67c-2.22,0-2.41-1.1-.59-3.32q5.28-7.032,8.99-8.789,3.9-.975,4.29-1.368,0-.388-3.9-3.125-3.525-1.95-6.84-3.711c-2.61-1.431-4.49-.845-5.66,1.758q-9.78,21.68-28.32,42.969h0Zm-76.76,7.813c-2.74,3.125-3.84,4.882-3.32,5.273q0.78,0.783,4.29-2.344a236.717,236.717,0,0,0,25.79-27.148q3.315-3.9,6.44-3.906h8.79q3.12,0,4.69,3.32a53.707,53.707,0,0,1,4.88,18.359q0.39,4.884,3.91,2.93,7.41-4.687,5.08-10.938a33.083,33.083,0,0,0-8.21-9.96c-2.73-2.472-2.93-3.711-.58-3.711h32.61c2.61,0,3.97-.2,4.1-0.586q0.2-.778-3.9-4.688l-3.91-3.515q-3.705-3.32-7.22.781-3.33,3.909-6.45,3.906h-30.66c-2.22,0-2.41-1.1-.59-3.32q4.485-6.445,8.01-8.008c2.6-.65,3.97-1.172,4.1-1.563l-0.39-.976q-5.085-3.122-10.16-6.055c-2.6-1.431-4.43-.845-5.47,1.758a210.438,210.438,0,0,1-31.83,50.391h0Zm28.32-7.227a61,61,0,0,1,15.43,23.437q0.78,2.737,2.34,2.735,7.815-4.687,5.08-11.914a17.972,17.972,0,0,0-6.25-7.422,115.323,115.323,0,0,0-15.63-9.18q-3.7-1.95-4.29-1.172c-0.26.391,0.84,1.563,3.32,3.516h0Zm115.23,6.641c-2.08,2.606-4.17,3.906-6.25,3.906h-72.46q-3.7,0-1.76,2.93,1.56,2.343,6.06,1.562a20.673,20.673,0,0,1,3.91-.781h66.79q3.315,0,3.32,3.32v97.07q0.78,6.249-6.83,6.446a83.327,83.327,0,0,1-19.14-1.758c-2.48-.263-2.54.128-0.2,1.172q5.28,2.343,9.38,4.687,4.29,2.93,5.66,6.25,1.56,3.9,5.47,3.125,8.4-1.368,12.69-5.078a12.492,12.492,0,0,0,3.13-7.812V241.406q0.39-3.708,5.47-6.25a2.83,2.83,0,0,0,1.36-.976q0.39-.587-3.12-3.711l-5.86-4.3q-3.7-2.733-6.84,1.367ZM1300.65,354.1q0,3.9,3.9,3.32,7.815-1.172,6.45-8.2V256.836c0-2.081.2-3.384,0.59-3.906q3.705-4.687-.2-6.446l-7.03-3.125c-2.48-1.171-3.71-.454-3.71,2.149V354.1Zm40.62-20.118q0,3.906,3.91,3.516c3.64-.912,5.73-2.344,6.25-4.3v-7.031q0-3.32,3.12-3.32h27.93c2.22,0,3.32,1.107,3.32,3.32v2.93q0,3.9,3.91,3.515a3.175,3.175,0,0,0,1.37-.39q3.9-.783,4.49-2.344a17.7,17.7,0,0,0,.39-4.883V268.164a8.616,8.616,0,0,1,2.93-6.055c2.6-2.081,3.13-3.643,1.56-4.687l-7.03-4.1q-3.7-2.146-6.64,1.172a8.591,8.591,0,0,1-6.05,2.93h-26.76q-3.135.979-8.99-3.711-3.7-2.147-3.71,1.758v78.515Zm44.53-49.414c0,2.085-1.1,3.125-3.32,3.125h-27.93q-3.12,0-3.12-3.125V264.453q0-3.318,3.12-3.32h28.13q3.12,0,3.12,3.32V284.57Zm0,31.25c0,2.085-1.1,3.125-3.32,3.125h-27.93q-3.12,0-3.12-3.125v-20.9q0-3.32,3.12-3.32h28.13q3.12,0,3.12,3.32v20.9Z"/>
  <path id="中文示例" class="cls-2" d="M319.133,703.137h-16.8a5.431,5.431,0,0,1-2.344-.391l-2.93-1.465q-1.954-1.072-1.953.879v46.289l-0.293,3.613a38.862,38.862,0,0,1-3.515,15.626q-4.786,8.594-14.942,15.527a62.194,62.194,0,0,1-7.812,4.687q-1.857.975-1.563,1.27,0.1,0.195,2.051-.488a79.7,79.7,0,0,0,12.3-5.86,65.685,65.685,0,0,0,7.812-5.469,26.2,26.2,0,0,0,6.348-8.593,43.83,43.83,0,0,0,4.3-15.528q0.195-2.051,1.758-2.05h19.629a1.467,1.467,0,0,1,1.66,1.66V777.16q0.488,3.32-3.321,3.711a51.566,51.566,0,0,1-10.449-1.465q-1.954-.391-2.051-0.1t1.856,0.781a37.935,37.935,0,0,1,4.883,1.758,9.844,9.844,0,0,1,4.394,4.785,2.167,2.167,0,0,0,2.93,1.269,15.56,15.56,0,0,0,5.371-2.343,6.614,6.614,0,0,0,1.465-3.907V708.41a4,4,0,0,1,1.758-2.93q1.464-1.659-.391-3.125L326.75,700.6q-1.856-1.269-4.2.879a5.379,5.379,0,0,1-3.418,1.66h0Zm-44.922,4.3H262.2a4.625,4.625,0,0,1-2.051-.293l-2.929-1.758q-1.954-1.172-1.953.781v59.473a1.551,1.551,0,0,0,1.953,1.758,4,4,0,0,0,2.832-1.27,8.355,8.355,0,0,0,.39-2.93v-6.054A1.427,1.427,0,0,1,262,755.48h14.258a1.468,1.468,0,0,1,1.66,1.661v5.371a1.551,1.551,0,0,0,1.953,1.758,5.4,5.4,0,0,0,2.734-.879,5.146,5.146,0,0,0,.489-3.125V713.488a3.337,3.337,0,0,1,1.66-2.734q2.637-1.562,1.172-2.442l-3.907-3.222q-1.757-1.465-3.808.293-2.541,2.735-4,2.051h0Zm48.633,16.5a1.426,1.426,0,0,1-1.66,1.562H301.848a1.38,1.38,0,0,1-1.563-1.562V706.75a1.426,1.426,0,0,1,1.563-1.66h19.433a1.427,1.427,0,0,1,1.563,1.66v17.188Zm-44.922,4.3a1.426,1.426,0,0,1-1.66,1.563H262a1.381,1.381,0,0,1-1.563-1.563V711.047a1.426,1.426,0,0,1,1.563-1.66h14.355a1.427,1.427,0,0,1,1.563,1.66v17.187Zm44.922,19.434a1.426,1.426,0,0,1-1.66,1.562H301.75a1.38,1.38,0,0,1-1.562-1.562l0.1-2.246V729.016a1.426,1.426,0,0,1,1.563-1.661h19.433a1.427,1.427,0,0,1,1.563,1.661v18.652Zm-44.922,4.3a1.426,1.426,0,0,1-1.66,1.562H262a1.381,1.381,0,0,1-1.563-1.562V733.312a1.426,1.426,0,0,1,1.563-1.66h14.355a1.474,1.474,0,0,1,1.563,1.758v18.555Zm139.258-50a4.43,4.43,0,0,1-3.028,1.562H385.637q-1.563.391-5.274-1.855-1.954-.975-1.953.976v43.457a106.487,106.487,0,0,1-.976,11.622q-1.857,16.8-20.02,30.078-1.954,1.367-1.758,1.66,0.1,0.389,2.051-.586a60.629,60.629,0,0,0,11.523-7.227,30.343,30.343,0,0,0,7.032-7.422,36.8,36.8,0,0,0,3.711-7.812,65.109,65.109,0,0,0,3.222-15.527q0.195-2.052,1.856-2.051H416.2a1.468,1.468,0,0,1,1.66,1.66v25.977a2.871,2.871,0,0,1-1.953,3.613,14.105,14.105,0,0,1-5.664.39l-7.715-1.464q-1.954-.391-2.051-0.1a4.835,4.835,0,0,0,1.954.781,40.372,40.372,0,0,1,4.492,1.465q2.637,0.879,4.98,4.883,1.074,2.245,2.93,1.66a42.483,42.483,0,0,0,5.762-2.051,5.358,5.358,0,0,0,2.441-4.59V708.117a4.113,4.113,0,0,1,1.66-3.027q1.367-1.659-.488-3.125l-2.539-1.758q-1.857-1.268-3.906,1.074Zm0.683,21.484a1.426,1.426,0,0,1-1.66,1.563H385.148a1.381,1.381,0,0,1-1.562-1.563V707.141a1.426,1.426,0,0,1,1.562-1.661H416.3a1.427,1.427,0,0,1,1.562,1.661v16.308Zm0,21.973a1.426,1.426,0,0,1-1.66,1.562H385.051a1.381,1.381,0,0,1-1.563-1.562l0.1-2.734V728.625a1.426,1.426,0,0,1,1.562-1.66H416.3a1.426,1.426,0,0,1,1.562,1.66v16.8Zm73.535-8.984a1.425,1.425,0,0,1-1.66,1.562H470.7a1.38,1.38,0,0,1-1.562-1.562V717.1a2.721,2.721,0,0,1,1.465-2.442q1.171-.879-0.977-1.953l-3.906-1.758q-1.954-.879-1.953,1.074v20.215q0.585,2.149-2.344,4.883-1.758,1.37.391,2.734l2.832,1.856q1.757,1.171,4-.391,1.952-1.952,3.515-1.465h17.578a1.468,1.468,0,0,1,1.66,1.661v36.718a1.426,1.426,0,0,1-1.66,1.563H466.4a1.381,1.381,0,0,1-1.562-1.563v-21A2.534,2.534,0,0,1,466.2,754.9q1.366-.879-0.488-1.856l-4.395-1.953q-1.954-.78-1.953,1.172v22.168q0.586,2.05-2.148,4.394-2.248,1.66-.293,2.93a29.9,29.9,0,0,0,2.539,1.758,3.433,3.433,0,0,0,4.3.1q2.637-2.539,4.1-1.953H521.77a1.467,1.467,0,0,1,1.66,1.66v3.809a1.552,1.552,0,0,0,1.953,1.758,5.056,5.056,0,0,0,.976-0.1q3.223-.684,2.539-3.808V758.117a3.245,3.245,0,0,1,1.368-2.637q1.367-1.172-.489-2.05l-4.394-1.856q-1.955-.879-1.953,1.074v25.586a1.427,1.427,0,0,1-1.66,1.563H498.527a1.381,1.381,0,0,1-1.562-1.563V741.516a1.426,1.426,0,0,1,1.562-1.661h19.336a1.388,1.388,0,0,1,1.66,1.465q0,1.27,1.954,1.172,4-.1,3.515-4.1V717.1a3.244,3.244,0,0,1,1.367-2.637q1.366-1.074-.488-1.953l-4.394-1.953q-1.956-.781-1.954,1.171v24.708a1.425,1.425,0,0,1-1.66,1.562H498.527a1.38,1.38,0,0,1-1.562-1.562V705.969a4.333,4.333,0,0,1,1.758-3.125q1.659-1.173-.586-1.856l-4.883-1.66q-1.857-.682-1.856,1.27v35.84Zm127.344-30.567a3.978,3.978,0,0,1-3.027,1.953H561.027q-1.955,0-1.367,1.367t2.637,0.977l2.93-.391h22.851a1.379,1.379,0,0,1,1.563,1.661q-0.2,11.622-1.172,22.167-0.1,1.956-1.758,1.954H554.387q-1.955,0-1.367,1.269a2.088,2.088,0,0,0,2.441,1.27q1.854-.294,3.711-0.489h27.344q1.56,0,1.269,1.758a82.151,82.151,0,0,1-3.906,17.578,35.783,35.783,0,0,1-3.906,7.813,56.622,56.622,0,0,1-12.891,12.3,94.431,94.431,0,0,1-15.137,8.594q-1.954.975-1.757,1.465,0.293,0.488,2.246-.1a70.779,70.779,0,0,0,20.9-9.668A45.073,45.073,0,0,0,586.906,762.9q4.1-7.617,6.055-23.34,0.195-1.952.977-1.953,0.681,0.1,1.074,1.758,1.659,7.617,3.125,12.891a59.358,59.358,0,0,0,6.25,15.625q6.347,10.546,21.972,18.359,1.953,0.879,3.711-1.074a8.009,8.009,0,0,1,5.86-2.93q1.952-.2,1.953-0.586t-1.856-.879a60.594,60.594,0,0,1-21.386-9.961,31.212,31.212,0,0,1-7.52-7.812,52.216,52.216,0,0,1-4.2-7.812,92.971,92.971,0,0,1-5.274-15.43q-0.585-2.147,1.075-2.149h32.031a12.959,12.959,0,0,0,2.246-.1q0.975-.487.391-1.172a6.952,6.952,0,0,0-1.563-1.66q-1.955-1.854-3.906-3.516-1.758-1.659-3.418.488l-1.465,1.953a3.978,3.978,0,0,1-3.027,1.954h-25a1.259,1.259,0,0,1-1.367-1.661q0.878-7.91,1.464-22.07,0.1-2.05,1.661-2.051h29.1a12.951,12.951,0,0,0,2.246-.1q0.975-.879-0.879-2.051l-3.906-3.418a2.077,2.077,0,0,0-3.418.293Zm71.387,70.313a1.426,1.426,0,0,1-1.66,1.562H666.3a1.382,1.382,0,0,1-1.563-1.562V725.207a2.65,2.65,0,0,1,1.465-2.344q1.268-.879-0.683-1.758l-4.3-1.953q-1.955-.78-1.953,1.172v53.321a5.041,5.041,0,0,1-1.758,4.394q-1.857,1.758,0,3.027l2.929,1.856q1.953,1.366,3.614-.586l0.39-.586q1.758-1.955,3.321-1.953h53.906a1.467,1.467,0,0,1,1.66,1.66v4.883a1.552,1.552,0,0,0,1.953,1.758q2.637-.49,3.418-1.953L728.8,784V727.355a4.771,4.771,0,0,1,1.367-3.125q1.465-1.464-.488-2.343l-4.395-1.953q-1.954-.879-1.953,1.074v55.176a1.426,1.426,0,0,1-1.66,1.562H697.16a1.381,1.381,0,0,1-1.562-1.562V706.945a3.8,3.8,0,0,1,1.757-2.929q1.66-1.173-.585-1.954-2.344-.878-4.786-1.66-1.856-.681-1.855,1.368v74.414ZM853.41,709a1.426,1.426,0,0,1-1.66,1.563H832.805A1.382,1.382,0,0,1,831.242,709v-4.1a3.06,3.06,0,0,1,1.27-2.54q1.367-1.172-.684-2.05l-3.808-1.66q-1.956-.781-1.954,1.171V709a1.426,1.426,0,0,1-1.66,1.563H802.043q-1.954,0-1.367,1.367a2.1,2.1,0,0,0,2.441,1.172q1.953-.294,3.809-0.489h17.48a1.468,1.468,0,0,1,1.66,1.661V721.5a1.552,1.552,0,0,0,1.954,1.758q2.343-.293,3.027-1.66a7.669,7.669,0,0,0,.195-2.344v-4.98a1.427,1.427,0,0,1,1.563-1.661H851.75a1.468,1.468,0,0,1,1.66,1.661v6.835a1.634,1.634,0,0,0,1.953,1.856,3.531,3.531,0,0,0,3.028-1.66,8.891,8.891,0,0,0,.2-2.442V714.27a1.426,1.426,0,0,1,1.562-1.661h24.317q2.05,0.2,2.539-.293a0.793,0.793,0,0,0-.1-0.976l-5.468-5.176q-1.758-1.659-3.321.488-0.783.978-1.465,1.953a3.975,3.975,0,0,1-3.027,1.954H860.148A1.381,1.381,0,0,1,858.586,709V704.5a3.059,3.059,0,0,1,1.269-2.539q1.366-1.074-.585-1.953l-3.907-1.66q-1.955-.879-1.953,1.074V709Zm-30.078,29A117.767,117.767,0,0,1,799.9,752.648q-2.249,1.173-2.051,1.563,0.292,0.489,2.148-.1a108.037,108.037,0,0,0,19.434-8.886q1.951-1.269,1.953.39V778.43a7.563,7.563,0,0,0,4,6.054,22.935,22.935,0,0,0,7.812,1.856q5.274,0.292,10.45.39h10.449a118.941,118.941,0,0,0,14.844-1.074q3.709-.2,7.812-3.515,1.562-1.565.2-3.711a13.326,13.326,0,0,1-1.367-5.86q0-4.2-.195-8.2a0.526,0.526,0,0,0-.391-0.293q-0.585,0-.879,1.856l-1.953,9.57a7.216,7.216,0,0,1-4,5.273,68.2,68.2,0,0,1-12.6,1.27H834.172a10.31,10.31,0,0,1-4.981-1.27,4.806,4.806,0,0,1-2.734-3.515v-27.93a1.426,1.426,0,0,1,1.563-1.66h27.734q1.561,0,1.269,1.758l-1.074,9.961a10.989,10.989,0,0,1-.781,3.906q-1.172,2.834-3.516,2.344a58.4,58.4,0,0,1-9.765-1.66q-1.955-.487-2.149-0.1-0.293.391,1.856,1.172a25.226,25.226,0,0,1,4.883,2.637,9.019,9.019,0,0,1,3.125,3.71,1.907,1.907,0,0,0,2.636,1.368q7.42-2.733,8.5-9.668l1.856-11.817a3.756,3.756,0,0,1,1.465-2.734,3.225,3.225,0,0,0,1.074-1.27,28.816,28.816,0,0,0-4.2-3.027q-1.954-1.366-3.223,0a3.707,3.707,0,0,1-2.832,1.465h-26.27q-1.563.292-4.2-1.563-1.662-.975.1-2.148a91.359,91.359,0,0,0,18.066-16.8q1.465-1.854,2.832-.2,8.5,10.254,17.09,15.039a115.482,115.482,0,0,0,15.528,7.226,3.756,3.756,0,0,0,4-.976,15.228,15.228,0,0,1,5.469-2.246q1.953-.2,1.953-0.489a4.417,4.417,0,0,0-1.953-.586,72.637,72.637,0,0,1-41.406-19.238q-1.466-1.464.195-1.855,1.562-.487,0-1.856-1.464-1.267-2.929-2.343-1.956-1.465-3.125.488A77.634,77.634,0,0,1,823.332,738h0Zm128.223-28.223a1.426,1.426,0,0,1-1.66,1.563H933.586a1.381,1.381,0,0,1-1.563-1.563v-3.125a2.327,2.327,0,0,1,.782-2.539q1.56-1.952-.391-2.832l-3.516-1.66q-1.954-.879-1.953,1.074v9.082a1.426,1.426,0,0,1-1.66,1.563H901.652q-1.856,0-1.172,1.465,0.487,1.271,2.832.976,1.465-.292,2.93-0.488h19.043a1.468,1.468,0,0,1,1.66,1.66V725.5a1.475,1.475,0,0,0,1.953,1.66,3.606,3.606,0,0,0,2.832-1.66,6,6,0,0,0,.293-2.441v-8.106a1.426,1.426,0,0,1,1.563-1.66H949.9a1.468,1.468,0,0,1,1.66,1.66v8.887a1.551,1.551,0,0,0,1.953,1.758,4.515,4.515,0,0,0,3.125-1.953,13.073,13.073,0,0,0,.1-2.247v-6.445a1.426,1.426,0,0,1,1.563-1.66h25.1a6.564,6.564,0,0,0,2.246-.2q0.975-.975-1.27-2.539l-3.906-3.516q-1.857-1.659-3.418.391l-1.465,1.953q-1.563,1.955-3.125,1.953h-14.16a1.381,1.381,0,0,1-1.563-1.563v-4.492a4.082,4.082,0,0,1,1.172-2.832q0.975-1.366-.879-2.344l-3.613-1.66q-1.856-.879-1.855,1.172v10.156Zm-42.774,17.676q5.957,4.688,8.008,9.277,1.268,1.956,1.66,1.954a3.875,3.875,0,0,0,2.637-2.246q1.854-2.931-.488-4.786a20.232,20.232,0,0,0-3.907-2.539,77.824,77.824,0,0,0-7.714-2.929q-1.857-.586-2.051-0.293-0.1.2,1.855,1.562h0Zm39.16,0.391q6.446,5.079,8.887,10.449,1.074,1.954-.586,1.953H929.387q-1.857,0-1.172,1.465,0.487,1.27,2.441.977a28.665,28.665,0,0,1,5.176-.391,1.468,1.468,0,0,1,1.66,1.66v34.082a4.258,4.258,0,0,1-1.269,2.93q-1.27,1.366.683,2.929,1.074,0.781,2.149,1.661,1.952,1.56,3.418-.2a4.4,4.4,0,0,1,3.125-1.66h36.914a5.592,5.592,0,0,0,2.148-.195q0.488-.783-0.781-1.66L979,777.453q-1.954-1.758-3.516.2l-1.464,1.954q-1.565,1.952-3.125,1.953H944.133a1.382,1.382,0,0,1-1.563-1.563V743.957a1.426,1.426,0,0,1,1.563-1.66h40.039a12.792,12.792,0,0,0,2.246-.1,1.011,1.011,0,0,0-.1-1.465l-3.906-3.613q-1.955-1.758-3.613.2l-0.781.977q-1.662,1.954-3.223,1.953H960.441q-1.757,0-.293-1.562,3.319-4.2-.293-6.739a47.736,47.736,0,0,0-11.718-5.273q-1.955-.587-2.149-0.391-0.1.2,1.953,1.563h0Zm-33.984,38.281a3.894,3.894,0,0,1-2.051,2.637q-1.464-.1-2.929-0.293-1.956-.294-3.711-0.489-1.758,0,.2,1.075,5.274,2.247,5.859,6.445a13.906,13.906,0,0,1-.781,3.906,31.741,31.741,0,0,0-1.465,3.906q-0.879,1.953,0,2.93,2.246,2.93,4.688,2.93,2.439,0.1,2.734-2.637-0.1-3.029-.293-6.152a45.314,45.314,0,0,1,1.953-16.406l8.5-31.25q0.586-2.052.1-2.149-0.391-.1-1.074,1.856Zm-12.4-22.461a25.709,25.709,0,0,1,8.105,10.352q0.587,2.539,2.246,1.562,2.345-1.758,2.442-3.711,0.488-3.417-4.493-6.055a78.712,78.712,0,0,0-7.714-3.515q-1.857-.78-2.149-0.391t1.563,1.758h0Zm162.015-36.523a3.989,3.989,0,0,1-3.03,1.953h-51.66q-1.86,0-1.17,1.367c0.32,0.847,1.14,1.172,2.44.977q1.755-.294,3.42-0.489h57.71c1.37,0.2,2.28,0,2.74-.586a9.441,9.441,0,0,0-1.86-2.246l-3.71-3.418q-1.755-1.758-3.42.489c-0.52.651-1.01,1.3-1.46,1.953h0ZM1077.34,734c-1.05,1.3-2.09,1.953-3.13,1.953h-71.48c-1.24,0-1.66.489-1.27,1.465,0.39,0.847,1.36,1.14,2.93.879l2.93-.293h25.97c1.11,0,1.43.586,0.98,1.758q-2.055,5.176-4.79,11.328a103.045,103.045,0,0,1-10.84,19.531,23.919,23.919,0,0,1-7.91,6.445q-1.755.879-.29,3.126l1.95,2.734a3.129,3.129,0,0,0,3.52,1.367q4.4-.879,8.79-1.367,22.56-3.224,47.07-5.567a6.335,6.335,0,0,1,.59,1.758,47.26,47.26,0,0,1,1.26,5.86,1.711,1.711,0,0,0,1.18,1.757q1.845,0.39,3.81-2.05,3.6-3.907.78-9.375-6.06-10.741-21.39-22.168c-1.3-.977-2.12-1.334-2.44-1.075s0.16,0.977,1.46,2.149a59.259,59.259,0,0,1,14.16,21.094,3.4,3.4,0,0,1-1.66.293l-50.68,2.539c-1.37,0-1.73-.522-1.07-1.563q12.585-19.431,20.5-30.762a5.335,5.335,0,0,1,2.35-1.562,5.555,5.555,0,0,0,2.15-.781,1.581,1.581,0,0,0-.88-1.074l-3.91-2.833c-1.37-1.04-1.46-1.562-.29-1.562h47.26a4.012,4.012,0,0,0,2.64-.293,0.7,0.7,0,0,0,0-.977q-0.78-.78-1.56-1.464l-3.91-3.614q-1.755-1.659-3.32.391Zm53.32-16.5a70.09,70.09,0,0,1-8.11,11.719c-1.43,1.562-2.05,2.409-1.85,2.539,0.19,0.2.91-.227,2.14-1.27a103.929,103.929,0,0,0,14.26-16.308,3.739,3.739,0,0,1,2.93-1.953h40.72c1.31,0,1.99-.162,2.05-0.489a3.88,3.88,0,0,0-1.46-1.66q-1.95-1.854-3.91-3.515c-1.1-1.041-2.28-.814-3.51.683l-0.78.977c-1.05,1.3-2.09,1.953-3.13,1.953H1141.4c-1.11,0-1.3-.552-0.59-1.66a17.135,17.135,0,0,1,4.4-5.664q1.95-.782,0-2.051l-3.42-1.855q-1.86-1.074-2.64.976a156.63,156.63,0,0,1-8.49,17.578h0Zm-22.56-14.941a26.217,26.217,0,0,1,5.17,7.226,32.73,32.73,0,0,1,1.66,3.907q0.885,1.757,2.64-.391,4.29-4.98-1.07-8.594a37.187,37.187,0,0,0-7.82-4.1c-1.3-.586-2.02-0.716-2.14-0.391q-0.3.49,1.56,2.344h0Zm3.12,44.531q-1.56,4.98-2.73,7.813-1.755,3.515-4.98,2.929h-2.44c-1.31,0-1.96.163-1.96,0.488s0.62,0.62,1.86.879a6.887,6.887,0,0,1,4.78,2.344c1.44,2.019,1.53,5.371.3,10.059l-0.88,3.906a20.269,20.269,0,0,0-.59,3.906,5.973,5.973,0,0,0,2.93,4.492q5.67,2.832,5.18-2.832l-1.08-11.718a42.472,42.472,0,0,1,1.08-15.625l10.35-39.063q0.675-2.245.39-2.344a4.913,4.913,0,0,0-.98,2.051q-5.655,16.311-11.23,32.715h0Zm-11.23-24.707a33.49,33.49,0,0,1,6.06,11.23c0.58,1.3,1.04,1.922,1.36,1.856a6.7,6.7,0,0,0,3.03-4.59q0.3-2.637-2.34-5.176a40.785,40.785,0,0,0-7.72-4.98c-1.3-.65-2.02-0.879-2.15-0.684-0.13.131,0.46,0.913,1.76,2.344h0Zm65.53,1.074h-25.49a4.293,4.293,0,0,1-2.64-.976l-0.97-.782q-1.86-1.464-2.25.489-1.665,9.864-3.22,19.629-0.39,1.955-1.95,1.953h-8.21c-1.3,0-1.75.456-1.36,1.367a2.1,2.1,0,0,0,2.44,1.172,36.87,36.87,0,0,1,6.74-.489,1.257,1.257,0,0,1,1.36,1.661l-3.12,18.359-1.37,1.074q-1.95,1.466,0,3.028l0.49,0.39q2.145,1.857,3.91.684,1.95-1.953,3.51-1.465h29.3c1.04,0,1.53.586,1.46,1.758a21.256,21.256,0,0,1-1.27,6.445c-1.23,3.125-3.19,4.361-5.86,3.711-2.6-.586-5.21-1.108-7.81-1.562-1.5-.327-2.31-0.391-2.44-0.2-0.13.325,0.42,0.65,1.66,0.977,0.98,0.325,1.95.683,2.93,1.074a9.438,9.438,0,0,1,5.18,4.492c0.52,1.563,1.36,2.149,2.53,1.758a13.069,13.069,0,0,0,6.64-4.785,24.528,24.528,0,0,0,3.52-11.621c0.06-1.367.62-2.051,1.66-2.051h12.7c1.43,0,2.01-.227,1.75-0.684a5.6,5.6,0,0,0-.48-0.781l-4.4-3.906q-1.95-1.854-3.51.1l-1.08,1.464q-1.56,1.954-3.12,1.954h-1.76c-0.98,0-1.43-.553-1.37-1.661l1.27-18.164c0.13-1.367.72-2.051,1.76-2.051h12.01a13.074,13.074,0,0,0,2.25-.1q0.675-1.074-1.86-2.832c-1.04-1.041-2.02-1.985-2.93-2.832q-1.665-1.466-3.51.781l-0.79.977q-1.56,1.955-3.12,1.953h-1.76c-0.98,0-1.43-.553-1.37-1.66q0.39-6.541.88-12.891a4.611,4.611,0,0,1,1.76-3.223q1.56-1.367-.49-2.929l-1.95-1.465a2.152,2.152,0,0,0-3.32.195,3.839,3.839,0,0,1-2.93,1.66h0Zm0.68,18.36c-0.06,1.3-.65,1.953-1.75,1.953H1137c-1.04,0-1.46-.553-1.27-1.66q1.08-7.324,2.35-14.551c0.26-1.367.94-2.051,2.05-2.051h25.68a1.432,1.432,0,0,1,1.57,1.66q-0.69,7.325-1.18,14.649h0Zm-19.43-12.3a28.631,28.631,0,0,1,2.64,7.226c0.13,1.3.32,2.605,0.58,3.907a1.073,1.073,0,0,0,.88.976,4.761,4.761,0,0,0,3.32-2.734,3.6,3.6,0,0,0,.39-3.906q-1.755-3.224-6.54-6.739c-1.11-.781-1.82-1.04-2.15-0.781-0.13.066,0.16,0.749,0.88,2.051h0Zm17.77,36.23c-0.06,1.3-.65,1.954-1.75,1.954H1133.1c-1.04,0-1.47-.553-1.27-1.661q1.365-9.081,3.03-18.164,0.285-2.051,1.95-2.051h27.73c0.91,0,1.34.62,1.27,1.856q-0.48,9.082-1.27,18.066h0ZM1145.3,751.77a31.136,31.136,0,0,1,3.42,11.718,4.142,4.142,0,0,0,.3,1.367q1.455,1.27,3.41-1.269,2.445-3.124.59-5.859a28.993,28.993,0,0,0-6.45-6.934c-1.17-.977-1.92-1.367-2.24-1.172-0.13.066,0.19,0.781,0.97,2.149h0Zm69.15-51.758a36.308,36.308,0,0,1,7.03,12.3,4.84,4.84,0,0,0,1.07,2.149,5.212,5.212,0,0,0,3.13-3.027q2.235-3.81-2.64-8.106a57.809,57.809,0,0,0-7.81-4.98c-1.31-.586-2.02-0.716-2.15-0.391s0.32,1.01,1.37,2.051h0Zm59.08,3.906c-1.11,1.3-2.18,1.953-3.23,1.953h-36.32c-1.24,0-1.53.488-.88,1.465,0.58,0.912,1.59,1.205,3.02.879a10.712,10.712,0,0,1,1.96-.391h33.88a1.466,1.466,0,0,1,1.66,1.66v69.141l-0.09,1.855a3.571,3.571,0,0,1-2.74,1.758q-3.7.586-11.62-.879-1.95-.392-1.95-0.2c0,0.2.62,0.52,1.85,0.977a28.709,28.709,0,0,1,5.67,2.441,8.017,8.017,0,0,1,3.32,3.418,2.214,2.214,0,0,0,2.73,1.465,28.635,28.635,0,0,0,4.98-1.563,6.415,6.415,0,0,0,3.42-5.468V712.512a3.417,3.417,0,0,1,1.17-3.418,7.856,7.856,0,0,0,2.25-1.563q0-.388-2.25-2.441l-2.93-2.246q-1.755-1.367-3.51.683Zm-69.44,83.2a1.555,1.555,0,0,0,1.96,1.758,3.765,3.765,0,0,0,3.32-1.563,6.65,6.65,0,0,0,.19-2.246V715.441a3.141,3.141,0,0,1,1.56-2.636c1.05-.65.95-1.2-0.29-1.66l-4.78-1.758c-1.31-.455-1.96-0.032-1.96,1.269v76.465Zm43.85-63.281h-16.31a5.073,5.073,0,0,1-2.44-.488,15.618,15.618,0,0,0-1.95-1.172q-1.95-1.173-1.95.781v47.07a1.474,1.474,0,0,0,1.95,1.66c1.76-.325,2.76-1.008,3.03-2.05v-2.735a1.425,1.425,0,0,1,1.56-1.66h18.26a1.466,1.466,0,0,1,1.66,1.66v1.953a1.475,1.475,0,0,0,1.95,1.661,2.89,2.89,0,0,0,.69-0.1c1.3-.455,2.05-0.911,2.24-1.367a8.771,8.771,0,0,0,.2-2.442V729.992a3.308,3.308,0,0,1,1.85-2.734,16.185,16.185,0,0,0,2.05-1.758,11.14,11.14,0,0,0-2.05-1.953,22.445,22.445,0,0,0-2.44-1.953,2.712,2.712,0,0,0-3.81,0q-2.925,2.929-4.49,2.246h0Zm3.81,17.676a1.424,1.424,0,0,1-1.66,1.562h-18.26a1.379,1.379,0,0,1-1.56-1.562V727.453a1.425,1.425,0,0,1,1.56-1.66h18.36a1.473,1.473,0,0,1,1.56,1.758v13.965Zm0,20.312a1.425,1.425,0,0,1-1.66,1.563h-18.26a1.38,1.38,0,0,1-1.56-1.563V746.594a1.425,1.425,0,0,1,1.56-1.66h18.36a1.425,1.425,0,0,1,1.56,1.66v15.234Zm-983.5,150.684a1.426,1.426,0,0,1-1.66,1.562H251.262q-1.954,0-1.27,1.465,0.587,1.27,2.637.977c0.976-.2,1.953-0.357,2.93-0.489h11.035a1.468,1.468,0,0,1,1.66,1.661v33.4a10.373,10.373,0,0,1-2.246,5.176,2.379,2.379,0,0,0,.1,3.808l1.465,1.368q2.344,2.05,4.3.488A265.6,265.6,0,0,1,295.4,947.277q1.953-1.072,1.758-1.66-0.2-.487-2.539.391-9.279,3.712-18.457,7.617-2.05.78-2.051-.879V917.688a1.427,1.427,0,0,1,1.563-1.661h13.086a2.015,2.015,0,0,1,2.05,1.661,56.679,56.679,0,0,0,3.809,10.058q4.98,10.645,15.82,19.824a55.043,55.043,0,0,0,15.625,8.789,4.376,4.376,0,0,0,3.907-.781,19.436,19.436,0,0,1,7.91-2.734q1.952-.1,1.953-0.586,0-.392-2.051-0.586a60.58,60.58,0,0,1-26.465-10.059,48.115,48.115,0,0,1-18.164-23.535q-0.783-2.05.879-2.051h35.742a12.951,12.951,0,0,0,2.246-.1,0.808,0.808,0,0,0,.293-0.586q0-.39-2.05-2.442l-2.539-2.343q-1.956-1.758-3.809.586l-0.781.976a4.234,4.234,0,0,1-3.125,1.953H275.676a1.381,1.381,0,0,1-1.563-1.562v-30.86a3.8,3.8,0,0,1,1.758-2.929,8.98,8.98,0,0,0,1.758-1.758,5.329,5.329,0,0,0-2.051-1.074l-5.469-2.246q-1.855-.781-1.855,1.269v37.6Zm11.719-8.2q-1.857,1.172-1.465,1.757,0.389,0.49,2.441-.488a228.99,228.99,0,0,0,29.3-18.066,25.567,25.567,0,0,1,7.715-3.711q1.953-.879.391-2.93l-3.321-3.32q-1.856-1.854-3.515.195a155.649,155.649,0,0,1-31.543,26.563h0ZM415.52,878.234a3.743,3.743,0,0,1-2.93,1.954H368.84a5.379,5.379,0,0,1-2.149-.293l-3.906-2.051q-1.954-1.074-1.953.879v40.918A128,128,0,0,1,359.367,938a60.054,60.054,0,0,1-9.668,23.438q-1.662,2.244-1.465,2.636,0.195,0.294,2.149-1.367a44.86,44.86,0,0,0,8.887-10.254,42.865,42.865,0,0,0,4.492-11.719,129.119,129.119,0,0,0,2.636-24.218V883.7a1.426,1.426,0,0,1,1.563-1.66h45.9a1.468,1.468,0,0,1,1.661,1.66v42.676a68.138,68.138,0,0,0,3.32,19.336q2.343,8.4,11.035,15.039,4.98,3.612,7.813,3.808a1.143,1.143,0,0,0,1.269-.976,5.194,5.194,0,0,0-.488-2.344,14.286,14.286,0,0,1-.977-3.906,34.305,34.305,0,0,1,.293-11.426l0.879-7.226q0.293-1.953-.1-2.051-0.489-.195-1.171,1.66L432.9,951.77a2.29,2.29,0,0,1-1.464,1.367q-1.857.1-4-2.539a31.512,31.512,0,0,1-4.1-7.813,53.237,53.237,0,0,1-2.637-15.918v-39.16q-0.585-2.83,3.028-5.273,2.343-1.074-.1-2.539l-3.906-3.516q-1.758-1.562-3.125.391-0.587.782-1.074,1.464h0Zm-23.536,34.473q-0.976,1.954-2.441.488a176.85,176.85,0,0,0-14.355-13.574,5.8,5.8,0,0,0-1.954-1.269q-0.2.2,1.368,2.05,7.226,8.5,12.988,16.6a3.457,3.457,0,0,1,.293,3.906,179.727,179.727,0,0,1-21,29.3q-2.05,2.245-1.856,2.637,0.294,0.487,1.953-.879a136.878,136.878,0,0,0,24.707-29,7.668,7.668,0,0,1,1.465,1.953q7.812,11.916,10.938,21.289,1.171,3.224,3.418,1.074a7.1,7.1,0,0,0,2.05-3.906q0.39-3.516-2.734-7.812a120.735,120.735,0,0,0-10.937-15.039q-1.565-1.953-.489-3.516a140.362,140.362,0,0,0,8.5-15.625,2.427,2.427,0,0,1,.684-0.879,17.662,17.662,0,0,0,2.344-.977q1.951-.878,1.855-1.171-3.515-2.148-7.129-4-1.855-1.074-2.636,1.172a128.11,128.11,0,0,1-7.032,17.187h0ZM499.7,883.215H482.316a5.679,5.679,0,0,1-2.539-.488,29.592,29.592,0,0,0-2.929-1.368q-1.954-.879-1.953,1.075v41.113a76.858,76.858,0,0,1-1.563,13.574q-1.662,8.6-10.156,16.8a75.255,75.255,0,0,1-11.524,8.789q-1.954,1.172-1.757,1.465,0.194,0.195,2.148-.586a64.489,64.489,0,0,0,14.16-8.2,25.235,25.235,0,0,0,7.91-8.5,32.845,32.845,0,0,0,3.321-7.813,60.119,60.119,0,0,0,2.539-15.82V886.828a1.426,1.426,0,0,1,1.562-1.66h19.434a1.468,1.468,0,0,1,1.66,1.66v69.531q0.683,4.3,4.785,4.59h16.895a21.129,21.129,0,0,0,11.23-3.808q1.953-1.565.2-3.321a6.75,6.75,0,0,1-2.05-3.906A101.124,101.124,0,0,1,532.8,933.7q-0.1-2.146-.391-2.148-0.586,0-.879,1.855l-2.344,13.574q-0.489,5.175-2.734,6.739a8.867,8.867,0,0,1-5.859,2.148H509.855a2.127,2.127,0,0,1-1.367-.781,5.383,5.383,0,0,1-.293-2.149v-62.5a3.93,3.93,0,0,1,1.953-4q1.953-1.66,1.856-1.954a4.857,4.857,0,0,0-1.074-.879l-3.907-3.027q-1.954-1.464-4,.684-1.758,1.955-3.321,1.953h0Zm125.293-3.125q-1.563,1.954-3.125,1.953H553.41q-1.856,0-1.172,1.465,0.487,1.27,2.832.976,1.465-.293,2.93-0.488h26.074q1.562,0,1.465,1.758-1.171,21-3.223,31.934a95.13,95.13,0,0,1-4.2,15.624,47.194,47.194,0,0,1-9.375,15.626,92.522,92.522,0,0,1-16.8,13.281q-1.954,1.267-1.855,1.465,0.2,0.293,2.051-.293a73.676,73.676,0,0,0,12.6-6.348q10.254-7.032,15.137-15.527a53.968,53.968,0,0,0,6.152-15.625q1.66-6.933,3.028-15.528,0.293-2.051,1.953-2.051h23.144a1.378,1.378,0,0,1,1.563,1.661l-1.27,34.375a18.251,18.251,0,0,1-.586,5.761q-1.563,6.249-7.226,4.883-5.079-.684-11.621-2.148-1.955-.392-2.051.1-0.1.294,2.148,0.879a34.39,34.39,0,0,1,8.789,3.321,8.987,8.987,0,0,1,3.125,3.711q0.879,2.051,2.735,1.367,8.5-3.224,9.765-10.449a34.314,34.314,0,0,0,.977-9.18l0.781-30.176a2.752,2.752,0,0,1,1.465-3.32q2.832-1.269.977-2.442l-3.907-2.734a2.511,2.511,0,0,0-3.711.391q-1.757,1.955-3.32,1.953H591.2a1.259,1.259,0,0,1-1.367-1.66q1.074-9.277,1.855-18.555Q591.886,884,593.449,884H632.8a12.8,12.8,0,0,0,2.246-.1,1,1,0,0,0-.293-1.66l-4.883-4.394q-1.955-1.661-3.418.293Zm90.625-1.074a4.5,4.5,0,0,1-3.125,1.562H673.039q-1.563.49-5.273-2.148-1.954-1.173-1.954.781v49.512q0,1.856,2.344,1.465l1.953-.684q1.66-1.074,1.27-3.809v-1.757a1.426,1.426,0,0,1,1.562-1.661h16.211a1.468,1.468,0,0,1,1.66,1.661V938.2a1.426,1.426,0,0,1-1.66,1.563H661.516q-1.758,0-1.075,1.562,0.586,1.27,2.539.977l3.418-.391h22.754a1.467,1.467,0,0,1,1.66,1.66v13.379a1.426,1.426,0,0,1-1.66,1.563H653.508q-1.955,0-1.367,1.465,0.681,1.367,2.636.976l3.418-.39H734.66q2.345,0.389,2.735-.782-2.931-3.027-5.957-5.761-1.565-1.565-3.028.586-0.783.975-1.465,1.953a3.982,3.982,0,0,1-3.027,1.953H697.941a1.381,1.381,0,0,1-1.562-1.563V943.566a1.426,1.426,0,0,1,1.562-1.66h30.371q1.074-1.171-1.269-2.636l-3.32-3.125q-1.955-1.854-3.614.1-0.684.783-1.269,1.563-1.662,1.954-3.223,1.953H697.941a1.381,1.381,0,0,1-1.562-1.563V923.938a1.426,1.426,0,0,1,1.562-1.661h16.6a1.468,1.468,0,0,1,1.66,1.661V925.5q0,1.855,1.953,1.66a5.151,5.151,0,0,0,2.93-.976,3.531,3.531,0,0,0,.684-1.954v-37.6a4.332,4.332,0,0,1,1.757-3.125,2.137,2.137,0,0,0-.1-3.418l-2.93-2.442q-1.855-1.56-3.906.391Zm-24.8,19.922a1.425,1.425,0,0,1-1.66,1.562H672.941a1.38,1.38,0,0,1-1.562-1.562V884.094a1.425,1.425,0,0,1,1.562-1.66H689.25a1.426,1.426,0,0,1,1.562,1.66v14.844Zm25.391,0a1.426,1.426,0,0,1-1.66,1.562h-16.6a1.38,1.38,0,0,1-1.562-1.562V884.094a1.425,1.425,0,0,1,1.562-1.66h16.7a1.426,1.426,0,0,1,1.562,1.66v14.844Zm-25.391,19.824a1.425,1.425,0,0,1-1.66,1.562H672.941a1.38,1.38,0,0,1-1.562-1.562V904.016a1.426,1.426,0,0,1,1.562-1.661H689.25a1.426,1.426,0,0,1,1.562,1.661v14.746Zm25.391,0a1.426,1.426,0,0,1-1.66,1.562h-16.6a1.38,1.38,0,0,1-1.562-1.562V904.016a1.426,1.426,0,0,1,1.562-1.661h16.7a1.427,1.427,0,0,1,1.562,1.661v14.746Zm122.168-18.555a96.44,96.44,0,0,1-8.2,15.625q-1.27,1.954-1.074,2.246,0.292,0.2,2.246-2.051a125.25,125.25,0,0,0,11.328-17.578A3.3,3.3,0,0,1,845.4,896.5h27.637q1.659,0,.781,1.66l-4.98,10.352q-0.978,1.955-.684,2.148t1.856-1.758a61.733,61.733,0,0,1,5.761-6.152q4.3-4.2,7.52-4.59l2.148-.586q0.781-.585-0.683-1.562l-5.762-4.3q-1.758-1.268-3.418.879a3.978,3.978,0,0,1-3.027,1.953h-26.27q-1.563,0-.683-1.66,2.733-5.37,4.98-10.449a12.2,12.2,0,0,1,2.442-3.907q2.244-1.464.292-2.636l-3.71-1.953q-1.857-1.074-2.442.878a255.409,255.409,0,0,1-8.789,25.391h0Zm-16.6-13.379a5.527,5.527,0,0,1-3.418,1.563h-9.473a5.046,5.046,0,0,1-2.441-.489l-1.954-1.269q-1.954-1.172-1.953.781v54.395a1.55,1.55,0,0,0,1.953,1.757q2.733-.585,3.125-2.05v-6.543a1.427,1.427,0,0,1,1.563-1.661H820.4a1.468,1.468,0,0,1,1.66,1.661v1.855q0,1.857,1.954,1.66l1.953-.39a1.757,1.757,0,0,0,1.074-1.27,8.84,8.84,0,0,0,.2-2.441V894.25a3.708,3.708,0,0,1,1.856-2.832q1.56-1.562.1-3.027l-2.929-2.344a2.722,2.722,0,0,0-3.809.195Zm0.292,42.871a1.426,1.426,0,0,1-1.66,1.563h-11.23a1.382,1.382,0,0,1-1.563-1.563V891.906a1.426,1.426,0,0,1,1.563-1.66H820.5a1.426,1.426,0,0,1,1.562,1.66V929.7Zm24.9-.976a51.647,51.647,0,0,1-6.348,15.625,32.679,32.679,0,0,1-7.324,7.812,116.159,116.159,0,0,1-15.625,9.863q-1.954,1.074-1.856,1.465,0.1,0.195,2.442-.683a70.423,70.423,0,0,0,20.508-11.231,35.206,35.206,0,0,0,6.933-7.519q6.249-10.936,8.3-26.953a8.433,8.433,0,0,1,.684-2.149,1.262,1.262,0,0,1,.586,1.074A84.146,84.146,0,0,0,862,943.371a49.218,49.218,0,0,0,11.621,15.43,2.714,2.714,0,0,0,3.906,0,7.873,7.873,0,0,1,5.567-1.66q1.952-.1,1.953-0.293,0-.294-1.758-0.977-2.345-.976-4.688-2.148a36.889,36.889,0,0,1-14.355-13.965,66.371,66.371,0,0,1-8.105-30.86,3.42,3.42,0,0,1,.683-2.441l0.684-.781q0.1-.2-1.856-0.879l-4.394-1.563q-1.857-.681-1.856,1.368a121.9,121.9,0,0,1-2.441,24.121h0Zm98.047-45.606q0.389,2.051-1.27,2.051H919.621a5.061,5.061,0,0,1-2.441-.488l-2.93-1.465q-1.955-.975-1.953.976v30.371q-0.2,7.618-.879,15.528a71.636,71.636,0,0,1-9.863,30.957,6.072,6.072,0,0,0-1.075,2.246q0.195,0.293,2.442-1.953,7.226-7.815,9.863-15.625,4.3-13.086,4.59-32.813V888.879a1.426,1.426,0,0,1,1.563-1.66h65.136q2.246,0.489,2.051-.781l-5.957-5.665q-1.758-1.659-3.418.489l-1.465,1.953a3.978,3.978,0,0,1-3.027,1.953H949.113q-1.662,0-.1-1.66a6.051,6.051,0,0,0,1.562-4.1q-2.541-3.222-8.5-5.761a6.427,6.427,0,0,0-2.246-.782q-0.391.294,1.269,2.149a15.836,15.836,0,0,1,3.907,8.105h0Zm-8.887,16.895a1.426,1.426,0,0,1-1.66,1.562h-12.6q-1.955,0-1.367,1.465,0.586,1.37,2.734.977c0.977-.2,1.954-0.357,2.93-0.489h8.3a1.468,1.468,0,0,1,1.66,1.661v15.527a1.634,1.634,0,0,0,1.953,1.855q3.32-.585,2.734-2.929,0-1.269,1.563-1.27h14.746q1.659,0,1.66,2.246a1.677,1.677,0,0,0,1.953,1.953,3.183,3.183,0,0,0,2.637-1.465,10.969,10.969,0,0,0,.1-2.148V905.188a1.426,1.426,0,0,1,1.562-1.661h17.774a14.115,14.115,0,0,0,2.246-.1q0.879-1.173-1.27-2.442l-3.418-3.027q-1.955-1.659-3.515.293l-1.172,1.367a3.98,3.98,0,0,1-3.028,1.953h-7.617a1.38,1.38,0,0,1-1.562-1.562v-2.93a3.519,3.519,0,0,1,1.269-2.637q0.975-.975-1.074-1.855l-2.93-1.27q-1.954-.879-1.953,1.075v7.617a1.426,1.426,0,0,1-1.66,1.562H942.375a1.381,1.381,0,0,1-1.563-1.562v-3.321a2.882,2.882,0,0,1,1.172-2.441q1.173-1.171-.976-2.051l-2.93-1.269q-1.955-.879-1.953,1.074v8.008Zm22.656,14.843a1.426,1.426,0,0,1-1.66,1.563H942.375a1.381,1.381,0,0,1-1.563-1.563v-9.667a1.427,1.427,0,0,1,1.563-1.661h14.844a1.427,1.427,0,0,1,1.562,1.661v9.667Zm3.418,11.329q-1.563,1.955-3.125,1.953H925.48q-1.955,0-1.171,1.172a2.545,2.545,0,0,0,2.734.879l0.977-.1h5.273a2.507,2.507,0,0,1,2.344,1.562l2.929,6.641a35.4,35.4,0,0,0,4.883,7.812q1.659,1.857.1,3.125A91.74,91.74,0,0,1,913.273,963.1q-1.954.585-1.66,0.879,0.39,0.488,2.149.2a97.215,97.215,0,0,0,32.519-12.207,2.827,2.827,0,0,1,3.516.1,68.587,68.587,0,0,0,9.765,4.981,111.086,111.086,0,0,0,15.528,5.078q1.951,0.488,3.711-1.562a6.914,6.914,0,0,1,4.687-2.442q1.953-.292,1.953-0.488t-1.855-.391a105.421,105.421,0,0,1-14.551-2.734q-10.158-2.736-15.137-5.371-1.856-1.269-.293-2.539a155.22,155.22,0,0,0,13.086-13.086,7.865,7.865,0,0,1,3.418-2.051q1.953-.293,1.953-0.586a10.9,10.9,0,0,0-1.074-1.172l-4.883-4.492q-1.855-1.561-3.515.488Zm-12.5,17.773q-1.464,1.465-3.125-.1a51.334,51.334,0,0,1-8.5-11.816q-0.976-1.953.684-1.953h21.093q1.758,0,.391,1.758A90.208,90.208,0,0,1,949.7,943.957h0ZM1068.74,879.6q-1.56,1.954-3.12,1.953h-55.67c-1.17,0-1.53.522-1.07,1.562,0.39,0.847,1.23,1.172,2.54.977l3.42-.391h22.75a1.466,1.466,0,0,1,1.66,1.66v29.1a1.424,1.424,0,0,1-1.66,1.562h-24.22c-1.3,0-1.76.457-1.37,1.368q0.5,1.368,2.64.976l2.93-.391h20.02a1.466,1.466,0,0,1,1.66,1.661v36.621a1.425,1.425,0,0,1-1.66,1.562h-34.08c-1.31,0-1.76.455-1.37,1.367,0.46,0.911,1.33,1.236,2.64.977a22.229,22.229,0,0,1,2.93-.391h75.49a15.227,15.227,0,0,0,2.34-.1c0.98-.652.58-1.563-1.17-2.735-1.44-1.367-2.9-2.7-4.4-4-1.36-1.237-2.54-1.237-3.51,0q-1.17,1.466-2.25,2.93-1.56,1.953-3.12,1.953h-24.81a1.38,1.38,0,0,1-1.56-1.562V919.641a1.425,1.425,0,0,1,1.56-1.661h26.66a13.074,13.074,0,0,0,2.25-.1,0.663,0.663,0,0,0,.39-0.977,19.848,19.848,0,0,0-2.05-1.953l-3.91-3.418q-1.755-1.56-3.42.586l-1.46,1.953a3.989,3.989,0,0,1-3.03,1.953h-15.43a1.379,1.379,0,0,1-1.56-1.562v-29.1a1.425,1.425,0,0,1,1.56-1.66h30.18c1.36,0.261,2.24,0,2.63-.781,0.07-.2-0.48-0.845-1.66-1.953q-1.95-1.953-3.9-3.711-1.755-1.562-3.32.39Zm-12.01,49.414a35.567,35.567,0,0,1,7.62,18.066,1.094,1.094,0,0,0,1.07.977,4.807,4.807,0,0,0,3.42-1.954q2.25-2.732,1.46-4.882-2.04-5.762-12.79-13.184c-1.3-.911-2.05-1.3-2.24-1.172-0.14.131,0.35,0.847,1.46,2.149h0Zm57.13-53.028q6.06,8.008,6.74,15.625a1.4,1.4,0,0,0,1.66.977q2.535-.39,4.29-3.711,2.25-4.1-3.71-8.789-3.615-2.93-7.91-5.762c-1.17-.781-1.98-1.008-2.44-0.683-0.32.2,0.13,0.976,1.37,2.343h0Zm59.96,4.492a4.487,4.487,0,0,1-3.12,1.563h-32.43c-1.23,0-1.53.488-.88,1.465,0.59,0.847,1.66,1.14,3.23.879a10.367,10.367,0,0,1,1.95-.391h29.79a1.47,1.47,0,0,1,1.66,1.66v67.285q0.39,3.319-3.81,3.614a70.067,70.067,0,0,1-11.43-.977,6.6,6.6,0,0,0-1.85,0c3.32,1.236,5.72,2.213,7.22,2.93a8.657,8.657,0,0,1,3.71,3.515,2.5,2.5,0,0,0,2.93,1.661,30.885,30.885,0,0,0,4.79-1.368,7.249,7.249,0,0,0,3.22-2.832,8.206,8.206,0,0,0,.78-3.32v-66.8q-0.585-2.439,2.35-4.2a1.678,1.678,0,0,0,1.17-.781,12.21,12.21,0,0,0-1.86-1.953l-3.42-2.735a2.425,2.425,0,0,0-3.51.293Zm-68.94,79.883q0,1.854,1.95,1.66,2.73-.39,3.51-1.855a12.262,12.262,0,0,0,.1-2.246v-62.5a3.041,3.041,0,0,1,1.66-2.539,7.039,7.039,0,0,0,1.37-.879,5.469,5.469,0,0,0-2.05-.879l-4.69-1.563c-1.24-.39-1.85.1-1.85,1.465v69.336Zm141.99-64.648c-0.92,1.3-1.89,1.953-2.93,1.953h-35.45c-1.3,0-1.76.456-1.37,1.367,0.39,0.977,1.24,1.367,2.54,1.172,1.24-.2,2.47-0.357,3.71-0.488h23.34a1.466,1.466,0,0,1,1.66,1.66,175.677,175.677,0,0,1-.98,20.117c-0.13,1.3-.74,1.953-1.85,1.953h-30.66c-1.24,0-1.63.489-1.18,1.465,0.33,0.847,1.14,1.172,2.44.977l3.42-.391h25.59a1.376,1.376,0,0,1,1.56,1.66q-1.47,9.962-5.27,15.723a36.4,36.4,0,0,1-14.65,12.4,137.746,137.746,0,0,1-15.63,7.422c-1.43.586-2.01,1.074-1.75,1.465s1.04,0.39,2.34,0a136.659,136.659,0,0,0,20.12-8.887,58.606,58.606,0,0,0,7.81-5.273,23.819,23.819,0,0,0,6.15-6.934,50.217,50.217,0,0,0,5.76-15.527c0.2-1.367.62-2.051,1.27-2.051,0.52,0,.95.554,1.27,1.66a61.292,61.292,0,0,0,3.32,8.3,51.172,51.172,0,0,0,28.03,25.391,4.136,4.136,0,0,0,4.1-.391,18.562,18.562,0,0,1,8.3-2.93c1.17-.065,1.76-0.261,1.76-0.586q0-.293-1.95-0.488a61.427,61.427,0,0,1-22.07-7.422,39.908,39.908,0,0,1-14.75-13.769,58.39,58.39,0,0,1-4.1-7.715c-0.59-1.367-.36-2.051.68-2.051h35.35c1.37,0.2,2.28.066,2.74-.391q0.48-.78-0.78-1.66-2.64-2.439-5.28-4.785-1.95-1.659-3.51.293l-1.86,2.539q-1.56,1.954-3.12,1.953h-26.95a1.383,1.383,0,0,1-1.57-1.562q1.17-10.741,1.37-20.117c0.06-1.368.62-2.051,1.66-2.051h31.84a6.456,6.456,0,0,0,2.24-.2q0.885-1.172-1.85-2.929l-3.91-3.418q-1.755-1.562-3.42.586l-1.46,1.953a3.989,3.989,0,0,1-3.03,1.953h-16.8c-1.17,0-1.23-.552-0.19-1.66q1.755-1.953,3.32-3.906l8.4-11.719a6.431,6.431,0,0,1,1.66-1.66,8.18,8.18,0,0,0,2.44-1.465c0.06-.13-0.65-0.586-2.15-1.367l-3.71-1.758q-1.86-.879-2.64,1.172a111.749,111.749,0,0,1-9.37,20.41h0Zm-25.39-19.238q7.995,7.715,9.37,15.82,0.78,2.735,3.32.586,3.225-3.612.78-6.836a20.814,20.814,0,0,0-5.37-5.371,84.736,84.736,0,0,0-7.71-5.176c-1.24-.781-1.96-1.074-2.15-0.879-0.13.066,0.45,0.684,1.76,1.856h0Z"/>
  <path id="大写字母" class="cls-3" d="M101.805,524.523a49.865,49.865,0,0,1-2.672,5.625,4.729,4.729,0,0,1-2.6,2.18q-1.407.351-1.406,0.774,0,0.351,1.406.351h9.563q1.406,0,1.406-.351,0-.423-1.406-0.563A3.767,3.767,0,0,1,103,530.43a9.762,9.762,0,0,1-.141-2.672,59.039,59.039,0,0,1,3.516-9.7,1.891,1.891,0,0,1,1.758-1.477h17.648A1.671,1.671,0,0,1,127.4,517.7a95.331,95.331,0,0,1,3.235,9.281,5.223,5.223,0,0,1,.07,2.813,3.07,3.07,0,0,1-1.265,2.039,6.436,6.436,0,0,1-2.813.7q-1.407.139-1.406,0.563,0,0.351,1.406.351h13.289q1.406,0,1.406-.492,0-.352-1.617-0.633a4.249,4.249,0,0,1-2.742-1.687,27.224,27.224,0,0,1-4.008-8.438l-14.7-39.3q-0.493-1.334-.985.141Zm23.976-11.461q0.563,1.478-.633,1.477H108.484q-1.125,0-.7-1.195,4.288-12.164,8.719-24.258,0.563-1.547,1.055-.281,4.077,12.165,8.226,24.257h0Zm28.083-29.742a18.029,18.029,0,0,1,3.375.7,3.18,3.18,0,0,1,2.18,2.25,11.537,11.537,0,0,1,.562,2.813V526.07a8.939,8.939,0,0,1-.914,3.446,2.712,2.712,0,0,1-.984,1.406,7.247,7.247,0,0,1-4.219,1.547q-1.407.139-1.406,0.562t1.406,0.422h22.781a19.318,19.318,0,0,0,7.032-1.687,12.611,12.611,0,0,0,6.609-7.594,14.917,14.917,0,0,0-.422-9.563,10.826,10.826,0,0,0-4.359-5.2,23.147,23.147,0,0,0-5.625-2.39,0.769,0.769,0,0,1-.7-0.563,3.283,3.283,0,0,1,1.125-.773,12.036,12.036,0,0,0,3.515-1.688A9.7,9.7,0,0,0,187.9,499a13.577,13.577,0,0,0,.633-5.555,10.779,10.779,0,0,0-3.867-7.664,13.538,13.538,0,0,0-5.625-2.6,38,38,0,0,0-5.625-.844H153.864q-1.407,0-1.406.422t1.406,0.562h0Zm11.883,0.774h5.836a22.865,22.865,0,0,1,5.133.914q7.381,2.462,7.875,9.07a11.823,11.823,0,0,1-1.055,6.4,7.614,7.614,0,0,1-3.164,2.953,16.7,16.7,0,0,1-7.031,1.406h-7.875a2.315,2.315,0,0,1-.563.07,0.994,0.994,0,0,1-1.125-1.125V486.344a1.538,1.538,0,0,1,1.336-2.039Zm15.187,26.226A10.8,10.8,0,0,1,186,518.477a12.911,12.911,0,0,1-1.336,7.312,11.118,11.118,0,0,1-8.016,5.414,24.4,24.4,0,0,1-7.664.492,5.737,5.737,0,0,1-3.234-.562,3.461,3.461,0,0,1-1.969-2.531v-20.25a1.027,1.027,0,0,1,1.125-1.2,55.374,55.374,0,0,1,10.406.774,16.941,16.941,0,0,1,5.625,2.39h0Zm26.185-16.1a31.845,31.845,0,0,0-2.742,11.25v4.289a33.231,33.231,0,0,0,2.39,11.39,21.561,21.561,0,0,0,6.821,9,21.012,21.012,0,0,0,11.25,4.219h3.867a21.218,21.218,0,0,0,9.492-3.094,17.035,17.035,0,0,0,5.695-4.851q0.984-1.335.7-1.828-0.21-.281-1.617,1.195a20.858,20.858,0,0,1-12.867,6.469A18.22,18.22,0,0,1,219,529.516a21.569,21.569,0,0,1-9.352-13.782,39.493,39.493,0,0,1-.773-5.625v-4.57q0.21-3.022.562-5.344a26.752,26.752,0,0,1,4.5-11.25,16.057,16.057,0,0,1,5.414-4.289,21.582,21.582,0,0,1,10.688-1.687q6.468,0.7,10.336,7.383a32.964,32.964,0,0,1,2.179,5.625q0.423,1.617.844,1.617,0.49,0,.422-1.406-0.212-6.82-.352-13.641,0-1.335-.773-1.336a1.411,1.411,0,0,0-.984.914,2.557,2.557,0,0,1-1.9,1.547,5.63,5.63,0,0,1-2.109-.492l-4.219-1.2a25.4,25.4,0,0,0-11.039-.422q-10.056,2.463-15.328,12.657h0Zm50.231-10.9a15.385,15.385,0,0,1,2.813.774,4.316,4.316,0,0,1,2.179,2.461,22.322,22.322,0,0,1,.492,2.812v37.406a6.917,6.917,0,0,1-.984,3.235,2.965,2.965,0,0,1-1.758,1.687,10.733,10.733,0,0,1-2.812.844q-1.408.139-1.407,0.563c0,0.234.468,0.351,1.407,0.351h19.476l2.672-.211a24.4,24.4,0,0,0,11.25-4.078,22.374,22.374,0,0,0,6.891-8.016,28.907,28.907,0,0,0,2.953-11.25v-3.8a29.1,29.1,0,0,0-2.742-11.18q-4.078-7.383-10.407-9.984a29.6,29.6,0,0,0-5.625-1.9q-2.812-.422-5.625-0.7H257.28q-1.408,0-1.407.492,0,0.353,1.477.492h0Zm16.383,0.844,0.773,0.07q7.242,0.7,11.25,2.883a20.1,20.1,0,0,1,8.157,10.547,31.079,31.079,0,0,1,1.617,8.438v4.007a31.614,31.614,0,0,1-1.617,8.438,18.036,18.036,0,0,1-8.93,10.476,27.924,27.924,0,0,1-11.25,2.672h-3.586a3.139,3.139,0,0,1-3.375-2.812v-42.4a2.737,2.737,0,0,1,2.6-2.32h4.36ZM313,483.32l1.2,0.282a4.442,4.442,0,0,1,3.726,2.742q0.351,1.407.633,2.812v37.758q-0.353,1.2-.562,2.25a3.758,3.758,0,0,1-2.18,2.391,11.638,11.638,0,0,1-2.813.914q-1.407.139-1.406,0.562T313,533.453h33.328a1.566,1.566,0,0,0,1.688-1.406l2.18-9.211q0.351-1.406-.141-1.406-0.421,0-1.125,1.687a18.991,18.991,0,0,1-4.078,5.766q-2.742,2.391-8.3,2.812h-6.187a21.986,21.986,0,0,1-6.329-.773,3.343,3.343,0,0,1-1.617-2.461V508.914a1.027,1.027,0,0,1,1.125-1.195h12.235a12.566,12.566,0,0,1,3.3.7,4.53,4.53,0,0,1,2.25,2.461,27.1,27.1,0,0,1,.774,2.812q0.139,1.408.633,1.407t0.492-1.407V499.562q0-1.406-.492-1.406t-0.774,1.406a10.74,10.74,0,0,1-1.055,3.446,3.743,3.743,0,0,1-2.6,1.9,8.781,8.781,0,0,1-2.813.563H323.542a0.994,0.994,0,0,1-1.125-1.125V485.922a2.238,2.238,0,0,1,1.477-1.828h13.992a12.988,12.988,0,0,1,5.414,1.336,8.106,8.106,0,0,1,2.813,5.414q0.21,1.407.7,1.406t0.422-1.406q-0.143-3.516-.141-7.1a1.243,1.243,0,0,0-1.406-1.406H313q-1.407,0-1.406.422T313,483.32h0Zm48.685,0a14.6,14.6,0,0,1,2.812.844,3.848,3.848,0,0,1,2.11,2.461q0.279,1.407.492,2.813v36.351a17.3,17.3,0,0,1-.633,3.305,4.358,4.358,0,0,1-2.109,2.531,9.888,9.888,0,0,1-2.813.773q-1.407.212-1.406,0.633t1.406,0.422h15.047q1.406,0,1.406-.422t-1.406-.562a11.2,11.2,0,0,1-2.742-.7,4.355,4.355,0,0,1-2.25-2.461,13.875,13.875,0,0,1-.633-2.813V508.914a1.027,1.027,0,0,1,1.125-1.195h11.32A20.737,20.737,0,0,1,385.8,508a3.8,3.8,0,0,1,2.672,1.477,12.3,12.3,0,0,1,1.195,4.218q0.212,1.408.774,1.407,0.631,0,.632-1.407V499.562q0-1.406-.632-1.406-0.564,0-.7,1.406a16.925,16.925,0,0,1-.7,3.235,3.553,3.553,0,0,1-2.179,2.391,11.364,11.364,0,0,1-2.813.492H372.086a0.994,0.994,0,0,1-1.125-1.125v-17.93a2.58,2.58,0,0,1,.633-1.687,2.915,2.915,0,0,1,2.531-.844h12.164a18.936,18.936,0,0,1,5.344,1.195,8.9,8.9,0,0,1,2.812,5.555q0.212,1.407.774,1.406,0.49,0,.422-1.406-0.143-3.444-.141-6.891a1.344,1.344,0,0,0-1.406-1.617H361.539q-1.407,0-1.406.492,0,0.353,1.547.492h0Zm47.629,10.688a29.139,29.139,0,0,0-2.953,11.25v4.5a31.763,31.763,0,0,0,2.039,10.054,22.323,22.323,0,0,0,8.719,11.18,24.042,24.042,0,0,0,11.25,3.375h4.219a36.2,36.2,0,0,0,12.164-3.656,3.271,3.271,0,0,0,1.336-2.531V512.289a6.8,6.8,0,0,1,.7-2.812,2.942,2.942,0,0,1,1.828-1.618l1.406-.351q1.406-.211,1.477-0.563,0-.351-1.406-0.351H436.8c-0.939,0-1.407.117-1.407,0.351q0,0.282,1.336.493,1.406,0.141,2.813.421a3.56,3.56,0,0,1,2.109,2.391,11.545,11.545,0,0,1,.563,2.812v14.7q-0.494,2.109-3.938,3.8a17.84,17.84,0,0,1-12.445.773,19.714,19.714,0,0,1-11.11-8.859,26.569,26.569,0,0,1-3.937-11.25,35.486,35.486,0,0,1,3.375-19.547q4.147-6.891,10.266-9.141a15.421,15.421,0,0,1,7.382-.984,13.662,13.662,0,0,1,8.508,4.289,29.371,29.371,0,0,1,4.289,8.086q0.492,1.407,1.125,1.406,0.423,0,.422-1.476l-0.492-12.164q-0.071-1.547-.7-1.547t-1.336,1.547q-1.476,2.04-3.375,1.195-2.109-.7-4.219-1.477a20.221,20.221,0,0,0-9.984-1.054q-10.267,1.125-16.735,12.656h0Zm53.536-10.758a7.922,7.922,0,0,1,3.867,1.336,5.687,5.687,0,0,1,1.618,4.148v36.493a12.734,12.734,0,0,1-.7,3.656,5.033,5.033,0,0,1-1.969,2.672,9.445,9.445,0,0,1-2.813.914q-1.407.21-1.406,0.633,0,0.351,1.406.351h15.117q1.407,0,1.407-.422t-1.407-.562a6.386,6.386,0,0,1-5.132-3.516,13.553,13.553,0,0,1-.563-2.812V509.055a1.027,1.027,0,0,1,1.125-1.2h21.656a1.057,1.057,0,0,1,1.2,1.2v16.593q-0.282,3.729-1.9,5.274a7.255,7.255,0,0,1-3.515,1.547q-1.408.139-1.407,0.562t1.407,0.422h14.836q1.406,0,1.406-.492,0-.352-1.617-0.563a17.01,17.01,0,0,1-2.813-1.054A5.154,5.154,0,0,1,500.6,528.6a13.562,13.562,0,0,1-.562-2.813V489.016a11.056,11.056,0,0,1,.562-2.532,4.032,4.032,0,0,1,2.25-2.39,17.739,17.739,0,0,1,2.813-.774q1.406-.21,1.406-0.632,0-.353-1.406-0.352H490.83q-1.408,0-1.407.422,0,0.353,1.407.562,1.406,0.282,2.812.7a4.171,4.171,0,0,1,1.336.985,6.986,6.986,0,0,1,1.266,3.515v16.313a1.027,1.027,0,0,1-1.2,1.125H473.392a0.994,0.994,0,0,1-1.125-1.125v-16.1a4.058,4.058,0,0,1,.141-1.125,4.516,4.516,0,0,1,2.742-3.726q1.406-.351,2.812-0.633,1.407-.139,1.407-0.562,0-.353-1.407-0.352H462.845q-1.407,0-1.406.422,0,0.353,1.406.492h0Zm56.138,0.141q3.865,0.492,5.133,2.25a9.671,9.671,0,0,1,1.2,4.218v36.493l-0.141.773a5.313,5.313,0,0,1-3.586,4.852,16.536,16.536,0,0,1-2.812.562q-1.407.139-1.406,0.563,0,0.351,1.406.351h16.8q1.406,0,1.406-.422t-1.406-.492a11.357,11.357,0,0,1-2.743-.562,4.839,4.839,0,0,1-3.375-3.3,20.1,20.1,0,0,1-.632-2.813V490l0.211-1.406q0.631-3.8,3.726-4.782,1.405-.279,2.813-0.492,1.406-.14,1.406-0.492,0-.421-1.406-0.422H518.561c-0.8,0-1.2.188-1.2,0.563q0,0.21,1.617.422h0Zm34.692-.141a9.4,9.4,0,0,1,2.672.773,4.389,4.389,0,0,1,2.812,2.883q0.28,1.407.493,2.813v37.828a9.435,9.435,0,0,1-.7,2.812,3.532,3.532,0,0,1-2.39,2.25q-1.83.563-2.531-.421a6.925,6.925,0,0,1-.774-1.407l-0.633-1.406a3.585,3.585,0,0,0-2.461-2.039,1.788,1.788,0,0,0-2.25,1.547q-0.7,2.04,1.336,4.219a5.158,5.158,0,0,0,2.813,1.265q6.4,0.492,9.562-4.781a18.88,18.88,0,0,0,2.11-8.438V489.789a25.679,25.679,0,0,1,.632-3.305,5.009,5.009,0,0,1,2.25-2.461,14.885,14.885,0,0,1,2.813-.843q1.406-.141,1.406-0.563t-1.406-.422h-15.75q-1.336,0-1.336.422t1.336,0.633h0Zm29.489,0.07a9.609,9.609,0,0,1,2.461.492,3.5,3.5,0,0,1,2.461,2.04,10.3,10.3,0,0,1,.7,2.812v37.2a13.956,13.956,0,0,1-.633,3.375,4.159,4.159,0,0,1-2.179,2.461,10.886,10.886,0,0,1-2.813.774q-1.407.139-1.406,0.562t1.406,0.422h15.258q1.406,0,1.406-.351,0-.423-1.406-0.563a10.937,10.937,0,0,1-3.445-1.125,4.745,4.745,0,0,1-1.688-1.969,19.422,19.422,0,0,1-.492-2.812v-14.2a3.241,3.241,0,0,1,1.125-2.25q0.843-.913,1.758-1.758,1.124-1.124,2.039-.07l6.539,8.086a85.162,85.162,0,0,1,8.367,11.25q1.968,2.6-.07,4.148a3.12,3.12,0,0,1-1.407.422l-1.406.211q-1.407.139-1.406,0.562t1.406,0.422h16.664q1.406,0,1.406-.351,0-.423-1.687-0.633-3.446-.352-7.313-4.781-1.968-2.25-4.64-5.626l-13.43-16.453a1.779,1.779,0,0,1,0-2.531q7.734-8.506,15.61-17.016a8.042,8.042,0,0,1,5.343-2.742q0.7-.069,1.407-0.07,1.405-.139,1.406-0.492,0-.421-1.406-0.422H609.32q-1.407,0-1.406.422,0,0.353,1.406.492,0.492,0.071,1.055.211a2.013,2.013,0,0,1,1.9,2.672,7.675,7.675,0,0,1-1.265,2.812q-3.939,5.907-16.735,18.774-1.476,1.407-1.476.211V488.523a3.776,3.776,0,0,1,.141-1.054,4.31,4.31,0,0,1,2.812-3.657,19.84,19.84,0,0,1,2.812-.492q1.407-.14,1.407-0.562t-1.407-.422h-15.4q-1.407,0-1.406.422t1.406,0.562h0Zm54.45,0a17.368,17.368,0,0,1,2.742.7,4.4,4.4,0,0,1,2.18,2.532,15.6,15.6,0,0,1,.633,2.812V526a17.388,17.388,0,0,1-.633,2.883,5.992,5.992,0,0,1-2.109,2.672,9.47,9.47,0,0,1-2.813.914q-1.407.139-1.406,0.562t1.406,0.422H670.8a1.662,1.662,0,0,0,1.757-1.406q1.125-4.781,2.321-9.563,0.351-1.405-.141-1.406-0.422,0-1.125,1.547l-0.633,1.406q-3.727,6.962-10.125,7.242l-5.625.422h-4.218a9.894,9.894,0,0,0-2.321-.14,7.325,7.325,0,0,1-2.6-.7,3.853,3.853,0,0,1-1.055-3.164V489.3a7.331,7.331,0,0,1,1.687-4.641,6.125,6.125,0,0,1,4.219-1.476q1.406-.069,1.406-0.422,0-.421-1.406-0.422H637.614q-1.407,0-1.406.422t1.406,0.562h0Zm48.684-.07a15.617,15.617,0,0,1,2.461.352,2.54,2.54,0,0,1,1.618,1.687q0.279,1.407.492,2.813v37.2a22.388,22.388,0,0,1-.774,4.851,4.87,4.87,0,0,1-3.937,2.321q-1.407.139-1.406,0.562t1.406,0.422h11.953q1.405,0,1.406-.492,0-.282-1.687-0.563a5.489,5.489,0,0,1-4.078-2.32,16.7,16.7,0,0,1-1.2-5.625V487.047q0-1.124.422-.985a1.508,1.508,0,0,1,.914,1.055l17.086,45.141q0.563,1.476,1.2-.211,8.718-22.851,17.579-45.7a1.946,1.946,0,0,1,.773-0.563q0.563-.421.563,0.774v39.234a12.323,12.323,0,0,1-.7,3.516,4.165,4.165,0,0,1-2.179,2.461,9.484,9.484,0,0,1-2.813.7q-1.407.21-1.406,0.633,0,0.351,1.406.351H740.3q1.407,0,1.407-.422T740.3,532.4a5.183,5.183,0,0,1-4.921-3.234,14.811,14.811,0,0,1-.563-2.812V489.016a12.675,12.675,0,0,1,.492-2.532q1.266-2.882,3.586-2.953a7.515,7.515,0,0,1,1.406-.281q1.407-.139,1.407-0.562,0-.353-1.407-0.352h-9.351a2,2,0,0,0-1.969,1.476Q721.1,504.2,713.369,524.594q-0.494,1.476-1.055.281l-15.258-41.133a1.876,1.876,0,0,0-1.9-1.406H686.3q-1.407,0-1.406.422,0,0.353,1.406.492h0Zm67.177-.141q2.389,0.143,4.078,3.164a3.135,3.135,0,0,1,.492,1.829v36.984a22.533,22.533,0,0,1-.281,2.953,4.162,4.162,0,0,1-1.477,2.813,7.386,7.386,0,0,1-2.812,1.476q-1.407.281-1.406,0.7t1.406,0.422h11.883q1.406,0,1.406-.422t-1.477-.633a6.483,6.483,0,0,1-4.218-3.023,17.618,17.618,0,0,1-1.2-5.555V490.984q0-1.194.493-1.195,0.49-.069,1.476,1.195l29.6,41.485q1.055,1.405,1.054,0V491.125a22.445,22.445,0,0,1,1.125-6.047,3.255,3.255,0,0,1,2.039-1.406l1.407-.352q1.406-.21,1.406-0.7,0-.421-1.406-0.422H785.186q-1.407,0-1.406.493,0,0.422,1.406.562a11.491,11.491,0,0,1,2.109.492,3.863,3.863,0,0,1,2.532,2.039,21.84,21.84,0,0,1,1.054,5.625v31.149q0,1.2-1.054.07L762.334,483.6a3.04,3.04,0,0,0-2.461-1.407h-6.468q-1.336,0-1.336.493,0,0.353,1.406.421h0Zm62.747,4.922a27.463,27.463,0,0,0-3.867,5.766,35.21,35.21,0,0,0-2.743,11.25v5.484a29.64,29.64,0,0,0,2.672,10.828q5.837,12.095,17.368,13.008h3.656a18.142,18.142,0,0,0,5.344-1.195q6.117-2.109,10.335-8.719a30.778,30.778,0,0,0,4.149-14.062v-5.274a34.667,34.667,0,0,0-2.32-10.476Q846.244,484.587,836.4,481.7a21.114,21.114,0,0,0-7.946-.351q-6.47.563-12.234,6.679h0Zm18-5.414q8.226,2.181,12.094,11.11a33.648,33.648,0,0,1,2.531,11.25v5.343a31.648,31.648,0,0,1-2.11,10.407q-4.288,10.829-14.062,12.234a14.816,14.816,0,0,1-7.453-1.406,17.736,17.736,0,0,1-5.906-5.063,30.382,30.382,0,0,1-5.274-16.875v-3.656q0.421-9.492,4.43-15.82,4.71-6.821,11.461-7.805a14.039,14.039,0,0,1,4.289.281h0Zm31.669,0.774a7.935,7.935,0,0,1,3.515,1.476,6.518,6.518,0,0,1,1.617,4.219v36.633q-0.28,3.657-1.757,5.062a6.476,6.476,0,0,1-3.516,1.617q-1.407.28-1.406,0.7,0,0.351,1.406.351h15.117q1.406,0,1.406-.422t-1.406-.562a9.678,9.678,0,0,1-3.515-1.125,5.214,5.214,0,0,1-1.969-2.742,19.459,19.459,0,0,1-.492-2.813v-14.2a1.026,1.026,0,0,1,1.125-1.195q1.545,0,3.023.14h3.867A21.7,21.7,0,0,0,893.1,508a11.89,11.89,0,0,0,4.71-5.062,17.075,17.075,0,0,0,1.547-8.438q-0.492-6.468-6.82-9.984a26.12,26.12,0,0,0-8.437-2.18H865.75q-1.407,0-1.406.492,0,0.282,1.547.563h0Zm11.179,0.773h3.868l2.742,0.352a14.469,14.469,0,0,1,8.437,3.726,10.29,10.29,0,0,1,2.742,5.625,13.736,13.736,0,0,1-1.828,9.7,9.753,9.753,0,0,1-4.992,4.008,19.941,19.941,0,0,1-5.625,1.125h-4.148l-1.969-.141a1.375,1.375,0,0,1-1.406-1.406v-20.6q0.422-2.25,1.687-2.25Zm36.239,9a32.142,32.142,0,0,0-2.882,11.25v5.063a29.6,29.6,0,0,0,2.953,11.39q4.78,8.79,12.3,10.758a2.2,2.2,0,0,1,1.407.563q1.545,1.757,2.953,3.515a19.409,19.409,0,0,0,8.226,5.7,35.555,35.555,0,0,0,11.321,2.11H953.6q1.407-.071,1.407-0.492t-1.407-.493a31.607,31.607,0,0,1-6.187-.984,23.126,23.126,0,0,1-11.672-7.453q-0.843-1.336.352-1.547a17.757,17.757,0,0,0,5.273-1.547,21.947,21.947,0,0,0,9.844-10.054,31.931,31.931,0,0,0,2.742-11.25v-5.063a29.646,29.646,0,0,0-4.008-13.711,20.845,20.845,0,0,0-4.851-5.414,21.26,21.26,0,0,0-11.25-4.359h-3.586a24.416,24.416,0,0,0-7.313,2.039,22.288,22.288,0,0,0-9.633,9.984h0Zm25.1-9.422a18.739,18.739,0,0,1,9,9.914,33.109,33.109,0,0,1,2.32,11.25v4.852a35.314,35.314,0,0,1-1.828,9.211,22.355,22.355,0,0,1-3.023,5.625,15.834,15.834,0,0,1-18.352,5.484,16.87,16.87,0,0,1-5.976-4.289,21.847,21.847,0,0,1-3.446-5.555,35.19,35.19,0,0,1-2.32-11.25v-3.656q0.563-10.054,4.5-15.609a18.9,18.9,0,0,1,5.2-5.063,15.126,15.126,0,0,1,6.258-2.25,14.393,14.393,0,0,1,7.664,1.336h0Zm28.364-.281a6.711,6.711,0,0,1,2.812.984,4.854,4.854,0,0,1,1.9,2.672,19.761,19.761,0,0,1,.492,2.813v35.508a18.8,18.8,0,0,1-.633,3.3,5.39,5.39,0,0,1-4.711,3.727q-1.407.21-1.406,0.633,0,0.351,1.406.351h14.907q1.405,0,1.406-.422t-1.406-.562a5.993,5.993,0,0,1-5.133-3.586,19.412,19.412,0,0,1-.492-2.813V510.461a1.1,1.1,0,0,1,1.125-1.266q1.9-.14,3.726-0.14a2.428,2.428,0,0,1,2.25,1.195l14.836,21.8a2.864,2.864,0,0,0,2.387,1.406h6.47q1.41,0,1.41-.422t-1.41-.633c-2.72-.609-4.47-1.546-5.27-2.812L991.1,514.117q-1.9-2.881-4.008-5.765a2.827,2.827,0,0,1,1.2-.352,19.274,19.274,0,0,0,7.734-2.953,10.442,10.442,0,0,0,3.8-5.414,15.128,15.128,0,0,0-.492-9.7,11.578,11.578,0,0,0-4.922-5.344,24.114,24.114,0,0,0-8.438-2.25H966.634q-1.407,0-1.406.492,0,0.353,1.547.633h0Zm27.984,6.4a12.533,12.533,0,0,1,1.2,7.313q-0.633,5.766-6.68,8.437-4.008,1.548-12.234,1.758a0.994,0.994,0,0,1-1.125-1.125V486.977a2.379,2.379,0,0,1,1.828-2.461,19.533,19.533,0,0,1,11.6.914,10.768,10.768,0,0,1,5.414,4.429h0Zm27.381-.281a14.965,14.965,0,0,0-.56,5.555,13.021,13.021,0,0,0,5.06,9c1.87,1.453,3.75,2.812,5.62,4.078s3.75,2.6,5.63,4.008q4.5,3.516,5.69,5.906a10.5,10.5,0,0,1,1.2,6.187,8.912,8.912,0,0,1-3.38,6.047,8.629,8.629,0,0,1-2.6,1.688q-7.3,2.671-13.15-3.375a25.915,25.915,0,0,1-4.57-8.3q-0.555-1.406-1.05-1.406c-0.33,0-.42.469-0.28,1.406l1.69,12.586c0.09,0.937.32,1.406,0.7,1.406a0.663,0.663,0,0,0,.7-0.562,2.676,2.676,0,0,1,2.74-2.039,21.708,21.708,0,0,1,2.82.914,14.336,14.336,0,0,0,5.62,1.687,15.554,15.554,0,0,0,8.44-1.476q5.13-3.165,6.33-7.664,2.805-9-7.17-16.8l-8.44-6.047q-5.91-4.077-7.6-8.367a9.14,9.14,0,0,1-.21-5.485,8.961,8.961,0,0,1,7.1-5.906q7.185-.843,11.68,6.891a22.415,22.415,0,0,1,2.18,5.625q0.27,1.407.84,1.406c0.37,0,.52-0.468.42-1.406q-0.705-6.258-1.12-12.586c-0.1-.937-0.33-1.406-0.71-1.406a0.919,0.919,0,0,0-.77.914,2.339,2.339,0,0,1-.98,1.547q-1.125.632-4.22-.844a19.64,19.64,0,0,0-5.63-1.617,10.716,10.716,0,0,0-5.62.984,11.811,11.811,0,0,0-6.4,7.453h0Zm40.25,3.305c0,0.938.18,1.406,0.56,1.406,0.33,0,.58-0.468.77-1.406,0.14-.609.31-1.195,0.49-1.758a9.188,9.188,0,0,1,3.31-5.555,15.513,15.513,0,0,1,5.62-1.476h5.35a1.056,1.056,0,0,1,1.19,1.195v40.149a9.527,9.527,0,0,1-1.68,5.2,8.723,8.723,0,0,1-4.22,1.828q-1.41.139-1.41,0.562t1.41,0.422h16.03c0.93,0,1.4-.117,1.4-0.351,0-.282-0.47-0.493-1.4-0.633a8.8,8.8,0,0,1-3.38-.985,4.6,4.6,0,0,1-2.18-2.531,10.022,10.022,0,0,1-.56-2.812V485.289a1.03,1.03,0,0,1,1.13-1.195h4.92a16.654,16.654,0,0,1,5.06,1.054,5.735,5.735,0,0,1,2.67,2.11,24.524,24.524,0,0,1,2.04,5.625q0.21,1.407.84,1.406,0.36,0,.36-1.547l-0.29-9a1.238,1.238,0,0,0-1.4-1.406h-34.95a1.279,1.279,0,0,0-1.33,1.547q-0.21,4.5-.35,9h0Zm49.81-9.7a24.955,24.955,0,0,1,2.81.7,3.752,3.752,0,0,1,2.25,2.39,11.526,11.526,0,0,1,.56,2.813V517.7a22.44,22.44,0,0,0,2.39,10.266,11.518,11.518,0,0,0,5.41,4.922,15.282,15.282,0,0,0,5.63,1.476h4.08a17.682,17.682,0,0,0,7.45-2.039,11.886,11.886,0,0,0,4.85-4.922,10.892,10.892,0,0,0,1.13-2.812,37.849,37.849,0,0,0,1.33-8.438v-25.1a10.5,10.5,0,0,1,1.9-6.188,6.887,6.887,0,0,1,3.52-1.476c0.93-.234,1.4-0.493,1.4-0.774s-0.47-.422-1.4-0.422h-11.74q-1.41,0-1.41.493,0,0.353,1.62.632a4.629,4.629,0,0,1,3.86,4.36c0.19,0.938.33,1.875,0.43,2.812V517.7a27.406,27.406,0,0,1-1.34,7.313q-3.51,6.96-10.13,7.664h-3.16a14.767,14.767,0,0,1-4.99-1.336,12.543,12.543,0,0,1-4.85-4.922,21.863,21.863,0,0,1-2.04-8.438V488.875a6.121,6.121,0,0,1,1.62-4.148,6.675,6.675,0,0,1,4.21-1.477q1.41-.212,1.41-0.633t-1.41-.422h-15.54c-0.89,0-1.33.165-1.33,0.493,0,0.235.49,0.4,1.48,0.492h0Zm56.06,0.14q2.955,0.282,4.5,3.727a38.406,38.406,0,0,1,2.46,5.625q5.835,15.609,14.91,39.3,0.495,1.405,1.05-.141l14.77-40.781a40.533,40.533,0,0,1,2.46-5.625,4.7,4.7,0,0,1,2.6-2.11c0.94-.186,1.41-0.422,1.41-0.7s-0.47-.422-1.41-0.422h-9.98q-1.41,0-1.41.422,0,0.352,1.41.563a5.54,5.54,0,0,1,1.19.14,2.791,2.791,0,0,1,2.39,1.969q0.705,3.164-1.96,9.844-6.54,17.3-10.34,28.125c-0.38,1.031-.77,1.031-1.2,0q-4.56-12.3-9.21-24.61-2.67-7.1-3.93-11.25-0.855-3.3,3.02-4.007,0.705-.141,1.41-0.211c0.93-.094,1.4-0.282,1.4-0.563s-0.47-.422-1.4-0.422h-14.21c-0.89,0-1.33.165-1.33,0.493,0,0.281.46,0.492,1.4,0.632h0Zm55.23,0.071a7.057,7.057,0,0,1,3.93,3.586,30.008,30.008,0,0,1,2.32,5.625q6.54,19.9,12.45,39.3c0.33,0.89.63,0.82,0.91-.211q4.86-16.382,9.78-32.7c0.28-.89.61-0.844,0.98,0.141q5.49,15.891,10.55,32.343c0.33,1.125.63,1.242,0.91,0.352q6.75-24.047,13.01-44.156c0.8-2.484,2.27-3.914,4.43-4.289q1.41-.281,1.41-0.774,0-.421-1.41-0.422h-9.21q-1.41,0-1.41.493c0,0.281.56,0.539,1.69,0.773a2.966,2.966,0,0,1,2.04,2.32,24.188,24.188,0,0,1-1.55,9.563q-4.08,13.921-8.08,27.773c-0.29.8-.59,0.7-0.92-0.281q-5.7-17.577-11.25-35.156-0.915-2.25,1.9-3.868a13.877,13.877,0,0,1,2.81-.632q1.41-.212,1.41-0.563,0-.421-1.41-0.422h-14.13q-1.41,0-1.41.422t1.41,0.492a3.857,3.857,0,0,1,3.16,1.2,13.037,13.037,0,0,1,2.61,4.922q0.84,2.813,1.82,5.625a2.635,2.635,0,0,1-.21,2.109l-7.59,25.312a1.351,1.351,0,0,1-.35.774q-0.705.352-.99-0.7-4.635-14.766-9.35-29.532-1.05-3.3-1.55-5.624-0.345-2.532,2.47-3.586c0.46-.141.93-0.258,1.4-0.352q1.41-.212,1.41-0.633t-1.41-.422h-12.58c-0.9,0-1.34.141-1.34,0.422,0,0.235.44,0.492,1.34,0.774h0Zm72.23,0,0.78,0.14c2.25,0.235,4.26,1.571,6.05,4.008a64.055,64.055,0,0,1,5.55,8.438l6.4,10.968a2.091,2.091,0,0,1-.28,2.391l-9.64,13.359q-2.46,3.517-4.21,5.625-2.955,3.657-5.49,4.008-1.41.281-1.41,0.7t1.41,0.422h11.81q1.41,0,1.41-.492c0-.235-0.56-0.492-1.69-0.773a4.008,4.008,0,0,1-2.6-2.954,3.909,3.909,0,0,1,.84-2.812q3.03-4.922,11.61-16.805a5.217,5.217,0,0,1,.98,1.406q3.585,5.978,6.96,11.954a19.393,19.393,0,0,1,2.32,5.625,3.158,3.158,0,0,1-1.4,2.742,8.626,8.626,0,0,1-2.82,1.054c-0.94.187-1.4,0.422-1.4,0.7,0,0.234.46,0.351,1.4,0.351h16.17q1.41,0,1.41-.422t-1.41-.562q-4.425-.422-7.17-6.117l-11.6-19.336a2.209,2.209,0,0,1,.28-2.461l9.42-13.36a51.637,51.637,0,0,1,4.36-5.625,5.786,5.786,0,0,1,2.82-1.9c0.46-.141.93-0.257,1.4-0.352q1.41-.14,1.41-0.562t-1.41-.422h-12.23q-1.41,0-1.41.422t1.41,0.562a5.075,5.075,0,0,1,1.83.352,2.677,2.677,0,0,1,1.97,2.32q-0.075,2.32-3.73,7.031l-7.95,11.391a3.508,3.508,0,0,1-.84-1.055,124.657,124.657,0,0,1-8.44-14.836,5.409,5.409,0,0,1-.56-2.812,3.271,3.271,0,0,1,2.95-2.25l1.41-.211q1.41-.139,1.41-0.492,0-.421-1.41-0.422h-16.67c-0.93,0-1.4.141-1.4,0.422s0.47,0.492,1.4.633h0Zm56-.071c1.97-.14,3.84,1.079,5.63,3.657a50.694,50.694,0,0,1,3.72,5.625l9.85,16.875a3.531,3.531,0,0,1,.42,1.828v13.851q-0.15.915-.21,1.828a5.08,5.08,0,0,1-3.31,4.922,16.5,16.5,0,0,1-2.81.633q-1.41.139-1.41,0.563,0,0.351,1.41.351h16.95c0.93,0,1.4-.141,1.4-0.422s-0.47-.422-1.4-0.422l-2.68-.562a4.658,4.658,0,0,1-3.44-3.235,13.41,13.41,0,0,1-.56-2.812V511.305a3.965,3.965,0,0,1,.14-1.407q5.055-8.437,10.26-16.875,1.695-2.811,3.52-5.625a16.254,16.254,0,0,1,2.39-2.742,6.093,6.093,0,0,1,2.81-1.125q1.41-.21,1.41-0.7t-1.41-.492h-10.83c-0.93,0-1.4.188-1.4,0.562,0,0.282.51,0.47,1.54,0.563,2.21,0.516,3.14,1.641,2.82,3.375a6.315,6.315,0,0,1-1.06,2.531q-5.055,8.368-9.91,16.735-0.84,1.337-1.62.07-7.32-11.812-10.41-17.227a5.371,5.371,0,0,1-.77-3.234,2.951,2.951,0,0,1,1.41-1.617,8.585,8.585,0,0,1,2.81-.563q1.41-.14,1.41-0.7,0-.49-1.41-0.492h-15.26c-0.94,0-1.4.165-1.4,0.492s0.46,0.492,1.4.492h0Zm55.44,9.7c-0.14.939,0.02,1.407,0.49,1.407q0.555,0,.84-1.547a18.952,18.952,0,0,1,1.83-4.922,5.972,5.972,0,0,1,2.6-2.32,16.486,16.486,0,0,1,5.63-1.547h18.56q1.2,0,.42,1.195-16.1,24.047-32.13,48.023a2.749,2.749,0,0,0,1.4.141h34.88a1.4,1.4,0,0,0,1.55-1.406c0.32-3.235.7-6.492,1.12-9.774,0.14-.937.05-1.406-0.28-1.406s-0.63.469-.91,1.406c-0.24.844-.52,1.688-0.85,2.532a10.091,10.091,0,0,1-4.08,5.273,13.058,13.058,0,0,1-5.62,1.617h-20.95c-0.85,0-.99-0.4-0.43-1.2q15.48-23.343,31.22-46.758c0.57-.937.38-1.406-0.56-1.406h-32.2a1.47,1.47,0,0,0-1.48,1.547Z"/>
  <path id="logo" class="cls-1" d="M706.266,1194.7a45.969,45.969,0,0,0-.118,5.15v5.16H677.555v-1.17l0.234-.94-1.406-.24c-1.1,0-2.659-.07-4.688-0.23h-3.281l-0.469,2.58a45.646,45.646,0,0,1-1.172,4.92,22.619,22.619,0,0,1-1.406,4.22,7.125,7.125,0,0,0-.82,2.23,6.584,6.584,0,0,0,2.109-.71c1.326-.54,2.615-1.13,3.867-1.76a11.566,11.566,0,0,0,3.516-2.81l1.641-1.64h66.8l1.875,1.88a14.477,14.477,0,0,0,3.75,2.81c1.406,0.62,2.655,1.17,3.75,1.64a1.036,1.036,0,1,0,1.171-1.17,17.1,17.1,0,0,1-1.406-3.99q-0.7-2.34-1.172-4.68a11.9,11.9,0,0,0-.7-3.05c0-.47-1.252-0.62-3.75-0.47-1.875.16-3.281,0.23-4.219,0.23a2.052,2.052,0,0,1-.937.24c-0.315,0-.469.31-0.469,0.94l0.235,0.93-13.594.24q-13.359,0-13.36-.24a2.838,2.838,0,0,1,.7-1.05,6.664,6.664,0,0,0,1.171-2.46,15.728,15.728,0,0,0,.469-4.22v-2.58h-4.687Q706.382,1194.46,706.266,1194.7Zm-31.289,28.12v4.22l21.093,0.23h21.094l-5.859,4.93q-5.4,4.215-8.2,6.56l-2.344,1.87v6.8H660.445v4.22h40.313v14.76c0,10.01-.158,15.47-0.469,16.41a13.152,13.152,0,0,1-1.172,3.05,21,21,0,0,1-2.578,3.04,16.962,16.962,0,0,1-3.75,2.82c-1.406.62-2.109,1.17-2.109,1.64s0.153,0.7.468,0.7a30.375,30.375,0,0,0,3.047-.47,34.353,34.353,0,0,0,4.922-1.4,16.4,16.4,0,0,0,4.688-1.88,11.74,11.74,0,0,0,3.515-2.34,12.264,12.264,0,0,0,2.344-2.58,13,13,0,0,0,1.172-2.58c0.311-.94.469-6.4,0.469-16.41v-14.76h38.2v-4.22h-38.2v-6.8l2.109-1.64q2.109-1.635,8.438-6.79,6.327-5.4,8.437-7.04a13.637,13.637,0,0,0,2.578-2.34q0-.225-28.828-0.23t-29.062.23h0Zm121.64-30.23-0.469,1.87a27.635,27.635,0,0,1-1.523,5.74c-0.861,2.43-1.681,4.65-2.461,6.68q-1.176,2.58-3.281,6.8-1.88,3.75-4.453,8.44-2.11,3.75-4.688,7.73-2.582,4.215-3.047,4.92a7.818,7.818,0,0,0-1.406,2.11c-0.157.47-.117,0.71,0.117,0.71a8.252,8.252,0,0,0,2.227-1.18q1.873-1.17,3.515-2.34,1.874-1.41,3.985-3.28a59.714,59.714,0,0,0,4.453-4.45l2.109-2.35,0.235,14.77,0.234,14.76h1.875a5.862,5.862,0,0,0,3.047-.7,5.457,5.457,0,0,0,1.875-1.17,11.374,11.374,0,0,0,1.406-1.64l0.469-.71h27.187v2.11l0.235,2.11h1.64a7.437,7.437,0,0,0,2.813-.47,9.072,9.072,0,0,0,2.109-1.17,4.666,4.666,0,0,0,1.407-1.64l0.7-.94h31.64v-4.45H838.336v-6.8H868.57v-4.45H838.336v-6.8H868.57v-4.68H838.336v-7.5H868.57v-4.69H837.164l0.938-1.17a23.668,23.668,0,0,0,1.406-2.35,6.445,6.445,0,0,0,.7-2.57,17.74,17.74,0,0,0,.469-4.93v-3.51H828.727v14.53H815.6q-13.129,0-13.125-.23c0-.16-0.158-0.24-0.469-0.24s0.311-1.41,1.875-4.22a69.182,69.182,0,0,0,3.281-7.5,16.732,16.732,0,0,0,1.406-3.98l0.235-1.17H796.617Zm31.406,22.03v7.5H802.477v-7.5h25.546Zm0,12.18v6.8H802.477v-6.8h25.546Zm0,11.25v6.8H802.477v-6.8h25.546Zm-3.515,16.88v5.16l-22.969.23H778.805v4.45h45.7v1.64c0,1.1-.081,1.64-0.235,1.64a40.222,40.222,0,0,1-4.687-1.17q-4.455-1.17-4.922-1.4-0.236,0-6.328,4.68-6.1,4.935-7.734,6.1-1.643.93-4.454,2.58a58.967,58.967,0,0,1-5.39,2.57q-2.812,1.185-5.391,2.23a35.226,35.226,0,0,1-5.859,1.76,17.416,17.416,0,0,0-3.047,1.05,6.06,6.06,0,0,0,1.289,1.06,3.994,3.994,0,0,0,1.992.94c0.469,0,2.344-.32,5.625-0.94s6.328-1.33,9.141-2.11q4.449-1.17,8.2-2.35a22.822,22.822,0,0,0,4.922-2.1q1.637-.945,9.14-6.1t7.618-5.04q0.115,0.12.117,13.48v13.12h1.406a7.357,7.357,0,0,0,2.813-.7,6.692,6.692,0,0,0,3.046-1.99,11.184,11.184,0,0,0,2.11-3.17,8.733,8.733,0,0,0,.586-2.34q0.115-1.17.117-6.33c0.154-4.68.271-7.11,0.352-7.26s1.442,0.55,4.1,2.11q3.982,2.1,6.8,3.51a34.945,34.945,0,0,0,6.328,2.58,54.282,54.282,0,0,0,6.328,1.64,52.974,52.974,0,0,0,5.625.94c1.718,0.16,4.219.23,7.5,0.23a38.521,38.521,0,0,0,5.86-.23,1.37,1.37,0,0,0,1.171-.94l0.235-1.17c0-.15-0.235-0.24-0.7-0.24-0.315,0-1.722-.23-4.219-0.7s-5-1.01-7.5-1.64q-3.516-.93-6.8-2.11-2.812-.93-5.625-2.11-2.346-1.17-10.078-6.33l-7.734-5.15,19.453-.24h19.453v-4.45H854.977l-20.157-.23v-2.58l-0.234-2.58H824.508Z"/>
</svg>
