<svg xmlns="http://www.w3.org/2000/svg" width="400" height="200" viewBox="0 0 400 200">
  <defs>
    <style>
      .cls-1 {
        fill: #fdfdfd;
        fill-rule: evenodd;
      }
    </style>
  </defs>
  <path id="卓健橄榄简体" class="cls-1" d="M73.059,113.185H49.839v-6.18h13.38a5.455,5.455,0,0,0,4.05-1.68,5.677,5.677,0,0,0,1.65-4.14V83.845H41.859v-3.54h28.5v-3.06h-28.5v-2.4h-5.88v9h-10.2v20.1H31.6v-7.44h31.56v4.56a2.806,2.806,0,0,1-.84,2.01,2.728,2.728,0,0,1-2.04.87H31.6v3.06h12.42v6.18H20.859v3.06h23.16v10.02h5.82v-10.02h23.22v-3.06ZM31.6,93.445v-6.6h31.56v6.6H31.6Zm85.02,27h5.7v-5.34h8.1v-3.24h-8.1v-4.44h8.1v-3.3h-8.1v-5.22h5.88a2.784,2.784,0,0,0,2.07-.9,3,3,0,0,0,.87-2.16v-6h2.82v-3.66h-2.82v-8.52h-8.82v-2.82h-5.7v2.82h-6.48v3.12h6.48v5.4h-6.48v3.66h6.48v6h-6.48v3.06h6.48v5.22h-6.48v3.3h6.48v4.44h-6.48v3.24h6.48v5.34Zm-19.74-45.48h-6.72a33.814,33.814,0,0,1-4.17,7.14,55.253,55.253,0,0,1-4.83,5.64l4.86,2.82,1.02-.84v36.12h5.82V82.825a44.806,44.806,0,0,0,2.85-5.16,24.314,24.314,0,0,0,1.17-2.7h0Zm19.32,47.04q-8.582-.96-13.02-7.56l5.34-18.48a2,2,0,0,0,.12-0.6,1.807,1.807,0,0,0-.6-1.35,1.95,1.95,0,0,0-1.38-.57H103.3l3.96-13.68a1.854,1.854,0,0,0,.06-0.54,2.248,2.248,0,0,0-.6-1.56,1.945,1.945,0,0,0-1.5-.66h-8.34v3.06h4.62l-4.8,16.38h6.12l-2.94,10.14a51.848,51.848,0,0,1-1.14-6.36H93.4a41.556,41.556,0,0,0,4.08,14.64l-2.04,7.02,4.74,2.94,1.26-4.44a18.114,18.114,0,0,0,13.2,5.1H134.2v-3.48h-18Zm6.12-41.22h3.18v5.4h-3.18v-5.4Zm0,9.06h3.18v5.16a0.769,0.769,0,0,1-.27.6,0.849,0.849,0,0,1-.57.24h-2.34v-6Zm73.019-11.82h-9a23.967,23.967,0,0,0,.9-3.54h-5.16a12.836,12.836,0,0,1-.36,2.01,20.853,20.853,0,0,1-1.5,4.02,24.5,24.5,0,0,1-3.18,4.95v-0.24h-2.58v-8.64H160v3.06h8.58v5.58h-10.62v3H160v12.12a65.018,65.018,0,0,1-2.13-8.37q-0.69-3.87-.69-4.53h-2.46v-3.84h5.7v-3.06h-5.7v-6.06h-5.04v6.06h-5.76v3.06h5.76v2.1h-3.3a106.2,106.2,0,0,1-1.41,12.45q-1.111,6.511-2.34,11.88t-1.23,5.07l3.78,2.52q2.64-6.779,4.5-19.86v28.08h5.04V99.505q0.6,2.4,1.23,4.32t0.99,2.85c0.24,0.621.4,1.011,0.48,1.17l2.58-1.8v9q-1.561.122-2.49,0.15c-0.621.021-1.011,0.03-1.17,0.03v3.42q0.48,0,2.4-.03t4.95-.21q3.029-.18,6.21-0.66v7.92h5.82v-9q1.44-.3,2.46-0.6v-3.54l-2.46.72V88.225h1.32v-0.6l2.4,1.5,0.42-.36a80.179,80.179,0,0,0,.75,10.17,63.062,63.062,0,0,0,2.91,12.15,66.727,66.727,0,0,1-2.82,6.33q-1.44,2.79-2.4,4.29t-1.26,1.86l3.78,2.28a31.385,31.385,0,0,0,5.52-7.8,56.385,56.385,0,0,0,4.44,7.8l4.5-2.82a45.61,45.61,0,0,1-6.36-11.1,75.357,75.357,0,0,0,3.78-16.59,132.069,132.069,0,0,0,.96-14.25h1.68v-3.06Zm-9.18,24.9a60.923,60.923,0,0,1-1.44-13.14q0-1.319.06-2.13c0.039-.54.06-0.87,0.06-0.99h-3.18a41.623,41.623,0,0,0,3.42-5.58h3.36q0.12,2.4.12,3.6a71.916,71.916,0,0,1-2.4,18.24h0Zm-16.26-8.88h-4.08v-5.82h4.08v5.82Zm0,9.24h-4.08v-6.24h4.08v6.24Zm-4.08,11.46v-8.4h4.08v7.98q-2.58.242-4.08,0.42h0Zm72.419-39.9h-5.82v18.3h5.82v-18.3Zm9.6,4.2q0.12-1.5.12-4.2h-6.3a52.453,52.453,0,0,1-.51,8.88,18.574,18.574,0,0,1-2.55,6.66l4.5,2.64q3.36-3.3,4.44-10.98h9v-3h-8.7Zm-27.12,29.22,4.74-2.82v7.08h5.82v-15H248.5v15h5.82V94.465h-28.86v10.86a54.765,54.765,0,0,1-2.97-7.89,62.451,62.451,0,0,1-1.56-6.51q-0.45-2.64-.45-3.06H217.6v-3.84h6.48v-3.06H217.6v-6.06h-5.76v6.06h-6.48v3.06h6.48v2.1h-3.72a90.091,90.091,0,0,1-1.56,12.48q-1.26,6.541-2.67,11.91t-1.41,5.07l4.32,2.46q3.3-7.38,5.04-19.86v28.14h5.76V99.985q0.66,2.4,1.35,4.26a29.979,29.979,0,0,0,1.17,2.82q0.48,0.962.6,1.2h0Zm10.44-32.4H225.4v15.9h5.76v-15.9Zm24.66,14.28a12.472,12.472,0,0,0-3.96-6.6H251.8l-4.38,2.58a17.253,17.253,0,0,1,2.16,3.18,22.436,22.436,0,0,1,1.38,3.72Zm-11.94,28.86v-11.76H241.3a24.128,24.128,0,0,0,.57-3.6q0.09-1.44.09-2.28h-5.82q0.24,7.322-3.27,12.15a26.729,26.729,0,0,1-7.98,7.47q-4.47,2.64-4.47,2.16l4.56,2.76a22.963,22.963,0,0,0,13.08-10.32v3.42a5.576,5.576,0,0,0,1.71,4.14,5.655,5.655,0,0,0,4.11,1.68h12.48v-3h-9.72a2.612,2.612,0,0,1-1.95-.84,2.758,2.758,0,0,1-.81-1.98h0Zm26.4-30.96a27.285,27.285,0,0,0,2.76-7.08h5.22v4.26h5.82v-4.26h7.8v-3.06h-18.24a17.086,17.086,0,0,0,.21-1.89c0.019-.5.03-0.83,0.03-0.99h-5.82a18.148,18.148,0,0,1-.45,4.41,32.889,32.889,0,0,1-1.08,3.9q-0.571,1.59-.75,2.01Zm28.98-10.14q0.18-1.08.24-1.86c0.039-.519.06-0.86,0.06-1.02h-5.88a18.175,18.175,0,0,1-.42,4.26,33.351,33.351,0,0,1-1.05,3.93q-0.571,1.651-.75,2.13l4.5,2.7a26.963,26.963,0,0,0,2.7-7.08h5.16v4.26h5.88v-4.26h7.86v-3.06h-18.3Zm16.38,12.48h-27a8.345,8.345,0,0,1-3.78-.9,9.762,9.762,0,0,1-3.12-2.46h-6.72l1.8,2.64a9.183,9.183,0,0,0,3.18,2.76,8.442,8.442,0,0,0,4.02,1.02h25.8v22.8q0,5.64-6.96,8.28l4.62,2.76a14.35,14.35,0,0,0,5.79-4.26,11.814,11.814,0,0,0,2.37-7.74v-24.9Zm-46.5,35.94h5.82V93.445h-5.82v32.88Zm34.74-11.58V97.585h-23.22v19.86h5.88v-7.74h11.52v4.8a2.852,2.852,0,0,1-.84,2.1,2.777,2.777,0,0,1-2.04.84h-8.64v3.06h11.58a5.736,5.736,0,0,0,5.76-5.76h0Zm-17.34-8.1v-6h11.52v6h-11.52Zm75.719-24.18h13.2v-3.06h-13.2v-4.8h-5.82v4.8h-13.2v3.06h13.2v23.76h-5.88v3.06h5.88v17.22h5.82v-17.22h5.94v-3.06h-5.94V82.465Zm-19.5-7.56h-6.72a24.465,24.465,0,0,1-3.27,6.81,46.447,46.447,0,0,1-4.59,5.82,15.021,15.021,0,0,1-2.34,2.31l4.62,2.76,2.1-1.8v35.46h5.82V83.845H338.2a45.094,45.094,0,0,0,2.4-4.08q1.02-1.98,1.53-3.24t0.63-1.62h0Zm5.16,10.62a57.693,57.693,0,0,1-1.71,13.26,109.141,109.141,0,0,1-3.63,12.03q-1.98,5.31-1.98,4.89l4.86,2.94a79.825,79.825,0,0,0,5.01-14.01,122.033,122.033,0,0,0,2.67-12.78q0.778-5.43.78-6.33h-6Zm23.1,0h-6q0,0.78.93,6.24a126.658,126.658,0,0,0,3,12.81,85.949,85.949,0,0,0,5.31,14.07l4.8-2.94q0,0.422-2.1-4.59a92.194,92.194,0,0,1-3.9-11.73,61.29,61.29,0,0,1-2.04-13.86h0Z"/>
</svg>
