<svg xmlns="http://www.w3.org/2000/svg" width="400" height="200" viewBox="0 0 400 200">
  <defs>
    <style>
      .cls-1 {
        fill: #fdfdfd;
        fill-rule: evenodd;
      }
    </style>
  </defs>
  <path id="Smart_Font_UI" data-name="Smart Font UI" class="cls-1" d="M34.887,93.129V90.2A4.041,4.041,0,0,1,36.5,86.577a6.854,6.854,0,0,1,3.912-1.08H53.175V82.233H40.791a18.808,18.808,0,0,0-3.744.36,8.75,8.75,0,0,0-3.12,1.248,6.394,6.394,0,0,0-2.136,2.376,7.8,7.8,0,0,0-.792,3.7v3.264a7.893,7.893,0,0,0,.888,3.984,7.1,7.1,0,0,0,2.352,2.472,10.934,10.934,0,0,0,3.336,1.392q1.872,0.457,3.84.744,0.96,0.144,1.92.264t1.92,0.264q0.911,0.144,1.752.336t1.56,0.432a6.294,6.294,0,0,1,2.376,1.416,3.28,3.28,0,0,1,.888,2.424V110.7a4.973,4.973,0,0,1-.552,2.5,3.9,3.9,0,0,1-1.488,1.488,5.982,5.982,0,0,1-2.16.7,18.358,18.358,0,0,1-2.52.168H32.1v3.264H45.159a18.946,18.946,0,0,0,3.768-.384,10.956,10.956,0,0,0,3.408-1.272,7.083,7.083,0,0,0,2.448-2.376,6.908,6.908,0,0,0,.936-3.744v-4.32a6.468,6.468,0,0,0-.912-3.6,6.717,6.717,0,0,0-2.376-2.208,12.137,12.137,0,0,0-3.36-1.224q-1.9-.407-3.816-0.7l-1.92-.288q-0.961-.144-1.92-0.336A14.206,14.206,0,0,1,38.1,97.5a5.644,5.644,0,0,1-2.352-1.608,4.16,4.16,0,0,1-.864-2.76h0Zm59.9,25.68h3.888v-20.3a8.492,8.492,0,0,0-2.064-6.072,7.178,7.178,0,0,0-5.472-2.184,10.191,10.191,0,0,0-2.424.312,13.946,13.946,0,0,0-2.52.888,14.106,14.106,0,0,0-2.4,1.416,13.479,13.479,0,0,0-2.064,1.848A6.348,6.348,0,0,0,79.191,91.4a7.591,7.591,0,0,0-4.224-1.152,11.506,11.506,0,0,0-4.584,1.056,13.3,13.3,0,0,0-4.344,3.072l-0.288-3.312H62.583v27.744h3.792V97.4a17.525,17.525,0,0,1,1.56-1.464,13.645,13.645,0,0,1,1.872-1.32,11.422,11.422,0,0,1,2.016-.936,6.165,6.165,0,0,1,2.04-.36,4.488,4.488,0,0,1,3.528,1.368,5.6,5.6,0,0,1,1.224,3.864v20.256H82.5v-20.3l-0.1-1.056a21.836,21.836,0,0,1,1.632-1.464,15.953,15.953,0,0,1,1.92-1.344,10.931,10.931,0,0,1,2.064-.96,6.372,6.372,0,0,1,2.064-.36,4.427,4.427,0,0,1,3.48,1.368,5.6,5.6,0,0,1,1.224,3.864v20.256Zm12.816-28.32v3.024h9.5a16.5,16.5,0,0,1,2.328.168,6.827,6.827,0,0,1,2.088.624,3.822,3.822,0,0,1,1.488,1.32,4,4,0,0,1,.576,2.256v3.456q-1.345-.047-2.832-0.072t-3.024-.024q-1.538,0-3.072.144a17,17,0,0,0-2.928.528,12.352,12.352,0,0,0-2.592,1.032,7.128,7.128,0,0,0-2.088,1.7,7.788,7.788,0,0,0-1.392,2.544,10.948,10.948,0,0,0-.5,3.5,9.438,9.438,0,0,0,.672,3.792,6.5,6.5,0,0,0,1.9,2.52,7.559,7.559,0,0,0,2.9,1.416,14.823,14.823,0,0,0,3.7.432,15.807,15.807,0,0,0,5.208-.84,9.058,9.058,0,0,0,4.152-3l0.192,3.792h3.36V97.833a7.168,7.168,0,0,0-.84-3.648,6.18,6.18,0,0,0-2.232-2.256,9.469,9.469,0,0,0-3.192-1.128,21.787,21.787,0,0,0-3.72-.312h-9.648Zm15.984,13.632v8.016a10.449,10.449,0,0,1-3.84,2.736,12.061,12.061,0,0,1-4.656.912,11.226,11.226,0,0,1-2.4-.24,4.749,4.749,0,0,1-1.92-.864,4.155,4.155,0,0,1-1.272-1.632,6.167,6.167,0,0,1-.456-2.544,7.246,7.246,0,0,1,.648-3.288,4.72,4.72,0,0,1,1.752-1.944,7.136,7.136,0,0,1,2.592-.912,20,20,0,0,1,3.168-.24h6.384Zm15.7-6.912-0.432-6.72h-3.216v28.32h3.84V100.665q1.344-1.728,2.448-3.024,0.528-.672,1.032-1.2a11.517,11.517,0,0,1,1.032-.96,7.358,7.358,0,0,1,2.352-1.3,10.659,10.659,0,0,1,3.312-.432h0.768V90.489h-0.768a10.077,10.077,0,0,0-6.816,2.3,13.528,13.528,0,0,0-1.056,1.08q-0.48.552-.912,1.128Zm29.9-6.624h-8.448V83.529H157.19L157,90.585h-4.272v2.88h4.224v17.808q0,3.888,1.728,5.712t5.376,1.824h5.136l-0.1-3.264h-4.9q-2.16,0-2.808-1.152a6.373,6.373,0,0,1-.648-3.12V93.465h8.448v-2.88Zm54.048-8.448H199.382v36.672h3.792V101.433h17.04v-3.12H203.126V85.4h20.112V82.137Zm13.295,8.352q-9.744,0-9.744,8.064v12.24q0,8.017,9.744,8.016h2.5q9.84,0,9.84-8.016V98.553a7.312,7.312,0,0,0-2.5-6.048q-2.5-2.016-7.344-2.016h-2.5Zm8.5,20.208a6.563,6.563,0,0,1-.432,2.64,3.112,3.112,0,0,1-1.224,1.44,4.806,4.806,0,0,1-1.9.624,18.611,18.611,0,0,1-2.4.144h-2.544a16.339,16.339,0,0,1-2.208-.144,4.5,4.5,0,0,1-1.9-.7,3.7,3.7,0,0,1-1.32-1.584,6.761,6.761,0,0,1-.48-2.808V98.649a6.572,6.572,0,0,1,.432-2.64,3.33,3.33,0,0,1,1.2-1.464,4.376,4.376,0,0,1,1.848-.648,18.053,18.053,0,0,1,2.376-.144h2.64a18.611,18.611,0,0,1,2.4.144,4.4,4.4,0,0,1,1.872.648,3.33,3.33,0,0,1,1.2,1.464,6.572,6.572,0,0,1,.432,2.64V110.7Zm29.616,8.112h3.84v-20.3a8.494,8.494,0,0,0-2.064-6.072,7.421,7.421,0,0,0-5.664-2.184,14.383,14.383,0,0,0-5.76,1.3,15.924,15.924,0,0,0-5.28,3.744l-0.288-4.224h-3.168v27.744h3.792V98.6a9.142,9.142,0,0,1,1.7-1.9,15.7,15.7,0,0,1,2.4-1.7,13.725,13.725,0,0,1,2.76-1.224,9.209,9.209,0,0,1,2.784-.456,4.755,4.755,0,0,1,3.7,1.368,5.534,5.534,0,0,1,1.248,3.864v20.256ZM300.42,90.585h-8.448V83.529H288.42l-0.192,7.056h-4.272v2.88h4.224v17.808q0,3.888,1.728,5.712t5.376,1.824h5.136l-0.1-3.264h-4.9q-2.16,0-2.808-1.152a6.373,6.373,0,0,1-.648-3.12V93.465h8.448v-2.88Zm55.2,19.728V82.137h-3.84v28.176a6.291,6.291,0,0,1-.576,2.976,3.921,3.921,0,0,1-1.368,1.536,4.049,4.049,0,0,1-1.7.576,14.816,14.816,0,0,1-1.536.1h-7.1a14.455,14.455,0,0,1-1.56-.1,4.015,4.015,0,0,1-1.68-.576,3.921,3.921,0,0,1-1.368-1.536,6.291,6.291,0,0,1-.576-2.976V82.137H330.42v28.176a9.044,9.044,0,0,0,.936,4.416,7.19,7.19,0,0,0,2.328,2.592,7.978,7.978,0,0,0,2.976,1.2,16,16,0,0,0,2.832.288h7.056a16.011,16.011,0,0,0,2.832-.288,7.985,7.985,0,0,0,2.976-1.2,7.2,7.2,0,0,0,2.328-2.592,9.044,9.044,0,0,0,.936-4.416h0ZM368,82.137h-3.84v36.672H368V82.137Z"/>
</svg>
