<svg xmlns="http://www.w3.org/2000/svg" width="1540" height="1450" viewBox="0 0 1540 1450">
  <defs>
    <style>
      .cls-1 {
        fill: #fff;
      }

      .cls-1, .cls-2, .cls-3 {
        fill-rule: evenodd;
      }

      .cls-2 {
        fill: #fefefe;
      }

      .cls-3 {
        fill: #fdfdfd;
      }
    </style>
  </defs>
  <path id="字体名称" class="cls-1" d="M152.293,225.674v-10.98q0-9.538,6.03-13.59a25.7,25.7,0,0,1,14.67-4.05h47.88v-12.24h-46.44a70.529,70.529,0,0,0-14.04,1.35,32.81,32.81,0,0,0-11.7,4.68,23.981,23.981,0,0,0-8.01,8.91q-2.97,5.582-2.97,13.86v12.24q0,9.18,3.33,14.94a26.618,26.618,0,0,0,8.82,9.27,41.044,41.044,0,0,0,12.51,5.22q7.02,1.713,14.4,2.79,3.6,0.54,7.2.99t7.2,0.99q3.417,0.54,6.57,1.26t5.85,1.62a23.548,23.548,0,0,1,8.91,5.31q3.329,3.333,3.33,9.09v14.22a18.661,18.661,0,0,1-2.07,9.36,14.646,14.646,0,0,1-5.58,5.58,22.52,22.52,0,0,1-8.1,2.61,69.128,69.128,0,0,1-9.45.63h-48.78v12.24h48.96a71.122,71.122,0,0,0,14.13-1.44,41.154,41.154,0,0,0,12.78-4.77,26.609,26.609,0,0,0,9.18-8.91q3.51-5.577,3.51-14.04v-16.2q0-8.277-3.42-13.5a25.146,25.146,0,0,0-8.91-8.28,45.422,45.422,0,0,0-12.6-4.59q-7.113-1.527-14.31-2.61l-7.2-1.08q-3.6-.54-7.2-1.26a53.274,53.274,0,0,1-12.42-3.24,21.165,21.165,0,0,1-8.82-6.03q-3.24-3.869-3.24-10.35h0Zm224.637,96.3h14.58v-76.14q0-14.58-7.74-22.77t-20.52-8.19a38.214,38.214,0,0,0-9.09,1.17,52.3,52.3,0,0,0-9.45,3.33,52.9,52.9,0,0,0-9,5.31,50.534,50.534,0,0,0-7.74,6.93,23.8,23.8,0,0,0-9.54-12.42,28.465,28.465,0,0,0-15.84-4.32,43.149,43.149,0,0,0-17.19,3.96,49.861,49.861,0,0,0-16.29,11.52l-1.08-12.42H256.15v104.04h14.22v-80.28a65.686,65.686,0,0,1,5.85-5.49,51.127,51.127,0,0,1,7.02-4.95,42.824,42.824,0,0,1,7.56-3.51,23.116,23.116,0,0,1,7.65-1.35q8.64,0,13.23,5.13t4.59,14.49v75.96h14.58v-76.14l-0.36-3.96a81.864,81.864,0,0,1,6.12-5.49,59.785,59.785,0,0,1,7.2-5.04,40.985,40.985,0,0,1,7.74-3.6,23.9,23.9,0,0,1,7.74-1.35q8.458,0,13.05,5.13t4.59,14.49v75.96Zm48.06-106.2v11.34h35.64a61.838,61.838,0,0,1,8.73.63,25.556,25.556,0,0,1,7.83,2.34,14.322,14.322,0,0,1,5.58,4.95,15,15,0,0,1,2.16,8.46v12.96q-5.041-.177-10.62-0.27t-11.34-.09q-5.763,0-11.52.54a63.559,63.559,0,0,0-10.98,1.98,46.3,46.3,0,0,0-9.72,3.87,26.775,26.775,0,0,0-7.83,6.39,29.19,29.19,0,0,0-5.22,9.54,41.043,41.043,0,0,0-1.89,13.14,35.44,35.44,0,0,0,2.52,14.22,24.44,24.44,0,0,0,7.11,9.45,28.4,28.4,0,0,0,10.89,5.31,55.6,55.6,0,0,0,13.86,1.62A59.282,59.282,0,0,0,469.72,319a33.972,33.972,0,0,0,15.57-11.25l0.72,14.22h12.6v-78.66q0-8.277-3.15-13.68a23.135,23.135,0,0,0-8.37-8.46,35.494,35.494,0,0,0-11.97-4.23,81.672,81.672,0,0,0-13.95-1.17H424.99Zm59.94,51.12v30.06a39.186,39.186,0,0,1-14.4,10.26,45.271,45.271,0,0,1-17.46,3.42,42.227,42.227,0,0,1-9-.9,17.909,17.909,0,0,1-7.2-3.24,15.634,15.634,0,0,1-4.77-6.12,23.16,23.16,0,0,1-1.71-9.54q0-7.56,2.43-12.33a17.69,17.69,0,0,1,6.57-7.29,26.714,26.714,0,0,1,9.72-3.42,74.709,74.709,0,0,1,11.88-.9h23.94Zm58.858-25.92-1.62-25.2h-12.06v106.2h14.4v-68.04q5.037-6.48,9.18-11.34,1.978-2.519,3.87-4.5a42.9,42.9,0,0,1,3.87-3.6,27.572,27.572,0,0,1,8.82-4.86,39.97,39.97,0,0,1,12.42-1.62h2.88v-12.24h-2.88a37.787,37.787,0,0,0-25.56,8.64,50.428,50.428,0,0,0-3.96,4.05q-1.8,2.072-3.42,4.23Zm112.14-24.84h-31.68v-26.46h-13.32l-0.72,26.46h-16.02v10.8h15.84v66.78q0,14.58,6.48,21.42t20.16,6.84h19.26l-0.36-12.24h-18.36q-8.1,0-10.53-4.32t-2.43-11.7v-66.78h31.68v-10.8Zm202.678-31.68h-89.46v137.52h14.22v-65.16h63.9v-11.7h-64.08v-48.42h75.42v-12.24Zm49.858,31.32q-36.543,0-36.54,30.24v45.9q0,30.063,36.54,30.06h9.36q36.9,0,36.9-30.06v-45.9q0-15.12-9.36-22.68t-27.54-7.56h-9.36Zm31.86,75.78q0,6.3-1.62,9.9a11.686,11.686,0,0,1-4.59,5.4,18.072,18.072,0,0,1-7.11,2.34,69.814,69.814,0,0,1-9,.54h-9.54a61.249,61.249,0,0,1-8.28-.54,16.9,16.9,0,0,1-7.11-2.61,13.868,13.868,0,0,1-4.95-5.94q-1.8-3.869-1.8-10.53v-43.74a24.646,24.646,0,0,1,1.62-9.9,12.48,12.48,0,0,1,4.5-5.49,16.4,16.4,0,0,1,6.93-2.43,67.7,67.7,0,0,1,8.91-.54h9.9a69.814,69.814,0,0,1,9,.54,16.528,16.528,0,0,1,7.02,2.43,12.5,12.5,0,0,1,4.5,5.49,24.646,24.646,0,0,1,1.62,9.9v45.18Zm111.056,30.42h14.4v-76.14q0-14.58-7.74-22.77t-21.24-8.19a53.963,53.963,0,0,0-21.6,4.86,59.71,59.71,0,0,0-19.8,14.04l-1.08-15.84h-11.88v104.04h14.22v-75.78a34.31,34.31,0,0,1,6.387-7.11,59.054,59.054,0,0,1,9-6.39,51.576,51.576,0,0,1,10.35-4.59,34.549,34.549,0,0,1,10.44-1.71q9.18,0,13.86,5.13t4.68,14.49v75.96Zm96.66-105.84h-31.68v-26.46h-13.32l-0.72,26.46H1086.3v10.8h15.84v66.78q0,14.58,6.48,21.42t20.16,6.84h19.26l-0.36-12.24h-18.36q-8.1,0-10.53-4.32t-2.43-11.7v-66.78h31.68v-10.8Zm207,73.98V184.454h-14.4v105.66q0,7.2-2.16,11.16a14.737,14.737,0,0,1-5.13,5.76,15.243,15.243,0,0,1-6.39,2.16,55.992,55.992,0,0,1-5.76.36h-26.64a54.716,54.716,0,0,1-5.85-.36,15.151,15.151,0,0,1-6.3-2.16,14.737,14.737,0,0,1-5.13-5.76q-2.16-3.957-2.16-11.16V184.454h-14.58v105.66q0,10.26,3.51,16.56a27.027,27.027,0,0,0,8.73,9.72,29.964,29.964,0,0,0,11.16,4.5,60.04,60.04,0,0,0,10.62,1.08h26.46a60.04,60.04,0,0,0,10.62-1.08,29.964,29.964,0,0,0,11.16-4.5,27.027,27.027,0,0,0,8.73-9.72q3.51-6.3,3.51-16.56h0Zm46.44-105.66h-14.4v137.52h14.4V184.454Z"/>
  <path id="中文示例" class="cls-2" d="M324.947,755.637v21.3q0,3.9-3.5,3.9a53.719,53.719,0,0,1-5.7-.3q-2.8-.3-5.7-0.8l0.9,7.6q3.1,0.4,6.2.55t6.3,0.149a9.17,9.17,0,0,0,6.15-1.849q2.149-1.853,2.15-5.851v-76.3h-35.5v46.2A53.983,53.983,0,0,1,293,768.988a35.562,35.562,0,0,1-10.95,15.249l5.4,5.4a49.968,49.968,0,0,0,11.05-15.55,52.91,52.91,0,0,0,4.35-18.451h22.1Zm-61.8,16.4v-6.7h23.9v-58.6h-30.7v65.3h6.8Zm39.8-61.6h22v16.1h-22v-16.1Zm-22.7,2.3v19.5h-17.1v-19.5h17.1Zm22.7,20h22v16.9h-22v-16.9Zm-22.7,5.5v20.9h-17.1v-20.9h17.1Zm139.5-34.2h-49.5v36.5q0,5.6-.2,11.251a75.655,75.655,0,0,1-1.2,11.049,52.7,52.7,0,0,1-3.1,10.5,36.244,36.244,0,0,1-5.9,9.6l5.4,6.7a54.6,54.6,0,0,0,5.2-8,53.091,53.091,0,0,0,3.45-8.1,58.569,58.569,0,0,0,2.1-8.5,87.066,87.066,0,0,0,1.05-9.2h35.6v19.3a6.337,6.337,0,0,1-.65,3.251q-0.652,1.048-2.85,1.05-4.2,0-8.1-.351t-7.8-.949l1.2,7.7q4,0.4,8,.6t8.2,0.2q5,0,7.05-1.9t2.05-6.8v-73.9Zm-7.1,6.5v16.1h-35.2v-16.1h35.2Zm-35.2,39.1v-16.8h35.2v16.8h-35.2Zm149.5-38h-7.2v24.1h-21.8v-34.2h-7.4v34.2h-21.4v-24.1h-7.1v35.9h7.1v-5.3h21.4v33.7h-25.2v-22.3h-7v35.3h7v-6.5h58.4v6.5h7v-35.3h-7v22.3h-25.8v-33.7h21.8v5.3h7.2v-35.9Zm72,30.9h29.7v-6.7h-31.2v-21.3h35.9v-6.9h-77.9v6.9h34.4v21.3h-29.3v6.7h29a47.371,47.371,0,0,1-4.25,13.55,45.527,45.527,0,0,1-7.6,11,49.261,49.261,0,0,1-10.5,8.45,59.078,59.078,0,0,1-12.95,5.8l4.9,6.5a76.318,76.318,0,0,0,12.95-6.2,51.053,51.053,0,0,0,10.5-8.35,44.6,44.6,0,0,0,11.95-24.349,65.049,65.049,0,0,0,14,22.05,69.274,69.274,0,0,0,21.6,15.15l5-7.1a70.033,70.033,0,0,1-11.8-6,62.89,62.89,0,0,1-10.45-8.249,59.645,59.645,0,0,1-8.35-10.2,47.876,47.876,0,0,1-5.6-12.05h0Zm129.2-23.6h-7.2v53.3h-23v-70.8h-7.5v70.8h-22.4v-53.3h-7.3v67.6h7.3v-7.4h52.9v6.8h7.2v-67Zm104-11.5v-8.5h-6.9v8.5h-21.7v5.8h21.7v7.8h6.9v-7.8h24.1v7.8h6.9v-7.8h22.6v-5.8h-22.6v-8.5h-6.9v8.5h-24.1Zm-1.2,29.7h28.2v-4.6q6.1,3.1,12.25,5.7t12.55,4.8l3.9-5.8a176.252,176.252,0,0,1-21.2-7.95,92.667,92.667,0,0,1-19.3-11.55h-6.9a63.676,63.676,0,0,1-17.75,13.651,94.274,94.274,0,0,1-20.95,7.849l3.6,6q6.9-2.3,13.3-5.1a87.21,87.21,0,0,0,12.3-6.6v3.6Zm2.4-5.3q2.8-1.9,5.5-4.149t5.3-4.451q3.2,2.4,6.6,4.5t7.1,4.1h-24.5Zm39.4,30.9v-21.9h-53.8v16.1a46.333,46.333,0,0,1-.7,8.449,28.713,28.713,0,0,1-2.2,6.95,26.571,26.571,0,0,1-3.95,6.051,51.107,51.107,0,0,1-6.05,5.849l4.9,5.2a47.048,47.048,0,0,0,9.7-12.1,37.464,37.464,0,0,0,4.6-14.6h47.5Zm-47.2-17.2h40.6v3.8h-40.6v-3.8Zm40.6,12.5h-40.6v-4h40.6v4Zm3.2,27.1v3.8h6.7v-21.4h-51v21.4h6.8v-3.8h37.5Zm0-12.1v6.6h-37.5v-6.6h37.5Zm64.2-62.9v-11.2h-7.1v11.2h-24.4v6.3h24.4v10.3h7.1v-10.3h21.2v8.3h7.1v-8.3h25.2v-6.3h-25.2v-11.2h-7.1v11.2h-21.2Zm-9.2,32.5,4.3-5.6a71.17,71.17,0,0,0-7.2-5.75,88.113,88.113,0,0,0-8-4.95l-4,5.3a61.909,61.909,0,0,1,7.7,5.1q3.6,2.8,7,5.9h0.2Zm18,2.2h43.4v-6.3h-23.9v-10.6h-7.1v10.6h-19.4v37.5a13.894,13.894,0,0,0,.8,4.8,6.926,6.926,0,0,0,3.2,3.6,10.235,10.235,0,0,0,4.2,1.15q3,0.348,6.4.55t6.5,0.2h4.6q11.5,0,22.9-.9v-7.3q-6.2.7-12.4,1.05t-12.5.349H956.1q-2.05,0-4.3-.1t-4.25-.25a9.832,9.832,0,0,1-2.7-.451,3.11,3.11,0,0,1-2-1.6,6.768,6.768,0,0,1-.5-2.8v-29.5Zm-23.4,14.2,4.7-5.6a82.21,82.21,0,0,0-7.15-6,63.823,63.823,0,0,0-8.05-5.1l-4.1,5.1a75.182,75.182,0,0,1,7.45,5.449q3.548,2.952,6.95,6.151h0.2Zm-11,29.7a127.818,127.818,0,0,0,13.2-13.351q6-7.048,11.4-14.65l-4.1-5.9q-5.7,7.6-11.9,14.75a102.682,102.682,0,0,1-13.6,13.05Zm104.9-86.2v6h28v5.9h-35.3v20.6h7v-15.1h28.3v24.1h6.7v-24.1h28.9v15.1h6.9v-20.6h-35.8v-5.9h28.5v-6h-63.2Zm3.7,28.4h20.2v-5.2h-20.2v5.2Zm35.1,0h20.8v-5.2h-20.8v5.2Zm-35.1,10.8h20.2v-5.1h-20.2v5.1Zm35.1,0h20.8v-5.1h-20.8v5.1Zm-40.2,12.2h65.9v-5.5h-65.9v5.5Zm75.5,12.5v-5.8h-84.9v5.8h25.9c-1.14,2.267-2.45,4.584-3.95,6.949s-2.92,4.518-4.25,6.45c-0.74,0-1.52.018-2.35,0.051s-1.62.05-2.35,0.05q-1.9.1-3.75,0.1h-3.75l2.5,7q15.195-.7,29.9-1.8t29.6-3.1q1.59,1.8,3.15,3.7,1.545,1.9,3.15,3.8l6.1-4.6q-4.305-4.9-8.95-9.4a119.777,119.777,0,0,0-9.95-8.6l-5.7,3.2q2,1.7,3.95,3.5t3.75,3.7q-9.6.8-18.85,1.3t-18.75.8q2.49-3.2,4.8-6.5,2.3-3.3,4.2-6.6h50.5Zm97.3-50.7v-6h-43.3q0.9-2.218,1.65-4.642t1.45-4.643l-6.9-1.514a95.846,95.846,0,0,1-5.75,15.9,67.492,67.492,0,0,1-8.95,14.2l4.4,5.2a103.076,103.076,0,0,0,6.35-9,84.025,84.025,0,0,0,5.15-9.5h45.9Zm-64.8,5.6,4.9-5.9q-3.105-3.5-6.45-6.8a76.572,76.572,0,0,0-7.15-6.2l-4.7,5.6a71.7,71.7,0,0,1,13.2,13.3h0.2Zm15.7,3.7-0.3,3.5q-0.4,4.4-.85,8.9t-1.25,8.9h-9.6v5.8h8.9q-1.2,6.9-2.4,13.651t-2.6,13.65l6.8,1.2c0.13-1,.3-2.015.5-3.049a23.089,23.089,0,0,1,.8-3.051h34.4a24.864,24.864,0,0,1-.15,2.75,8.448,8.448,0,0,1-.6,2.4,4.122,4.122,0,0,1-1.45,1.75,4.642,4.642,0,0,1-2.7.7q-3.105,0-6.05-.251t-5.85-.75l1.1,6.9a122.145,122.145,0,0,0,12.2.6,14.848,14.848,0,0,0,5.45-.8,6.036,6.036,0,0,0,2.9-2.3,8.56,8.56,0,0,0,1.2-3.55q0.24-2.049.45-4.65c0-.466.01-0.933,0.05-1.4s0.08-.933.15-1.4h9.1v-5.8h-8.8l0.3-5.6c0.13-1.732.21-3.565,0.25-5.5s0.11-3.765.25-5.5h10v-5.8h-9.8q0.2-5.4.35-10.649c0.1-3.5.21-7.05,0.35-10.651h-43.1Zm-18.9,19.5,4.8-5.7a82.624,82.624,0,0,0-6.75-7.1q-3.555-3.3-7.35-6.3l-4.6,5.6a63.464,63.464,0,0,1,7.25,6.3q3.345,3.4,6.45,7.2h0.2Zm36.4-13.7-0.9,12.9-0.1.7-0.2,1.9h-12a3.268,3.268,0,0,0,.1-0.9,12.081,12.081,0,0,1,.3-2.5c0.06-.333.11-0.651,0.15-0.951a9.47,9.47,0,0,0,.05-0.95l1-9.3a1.908,1.908,0,0,1,.05-0.45,2.576,2.576,0,0,0,.05-0.45h11.5Zm19,0q-0.105,3.8-.2,7.75t-0.4,7.75h-13v-0.9c0-2.466.11-4.9,0.35-7.3s0.45-4.833.65-7.3h12.6Zm-68.8,51.3,5.8,6.1a128.179,128.179,0,0,0,8.05-15.351q3.45-7.848,6.25-15.949l-5.5-5.4q-2.91,8.1-6.45,15.8a111.509,111.509,0,0,1-8.25,14.8h0.1Zm48.2-30c-0.2,2.8-.44,5.568-0.7,8.3s-0.57,5.5-.9,8.3h-13.3l0.6-4,0.7-4.2c0.26-1.333.5-2.733,0.7-4.2s0.36-2.865.5-4.2h12.4Zm19.9,0-0.4,5.5c-0.14,1.8-.25,3.651-0.35,5.551s-0.22,3.75-.35,5.55h-13.8q0.5-4.2.8-8.3c0.2-2.733.46-5.5,0.8-8.3h13.3Zm42.3,36.8v-54.8h27.2v-30.5h-34.1v85.3h6.9Zm69.4-85.3h-34.8v30.5h28v44q0,3.2-3.03,3.2c-1.74,0-3.51-.082-5.29-0.25s-3.54-.382-5.28-0.649l0.9,7.2a40.4,40.4,0,0,0,5.57.6q2.775,0.1,5.58.1,4.635,0,6.49-1.549t1.86-6.242v-76.91Zm-48.6,5.5v7.1h-20.8v-7.1h20.8Zm41.8,0v7.1h-21.6v-7.1h21.6Zm-41.8,12.2v7.3h-20.8v-7.3h20.8Zm41.8,0v7.3h-21.6v-7.3h21.6Zm-43.4,61v-5.9h30.5v-34.6h-36.9v40.5h6.4Zm24.1-26.2h-24.1v-8.6h24.1v8.6Zm0,14.6h-24.1v-9.1h24.1v9.1Zm-936.5,127.7v-6h-41.8v-7.1h44.8v-6.2h-51.5v40.1h-14.4v6.2h14.4v29h0.1l-11.5,2.6,2.4,7.2q9.2-2.4,18.05-5.3t17.65-6.5l-0.5-6q-4.7,1.7-9.7,3.2t-9.8,3v-27.2h12.4a62.46,62.46,0,0,0,5.95,12.2,64.246,64.246,0,0,0,31.55,25.8l4-6.5a56.382,56.382,0,0,1-11.55-5,63.017,63.017,0,0,1-10.45-7.3q4.2-3.2,8.5-6.949t8-7.45l-5.3-4.6a112.909,112.909,0,0,1-15.6,14.4,57.859,57.859,0,0,1-4.6-6.85,49.157,49.157,0,0,1-3.7-7.75h34.5v-6.2h-53.7v-7.6h41.8v-6h-41.8v-7.2h41.8Zm102.7-19.4h-59v31.3q0,6.3-.2,12.7a97.547,97.547,0,0,1-1.2,12.549,73.5,73.5,0,0,1-3,12,46.676,46.676,0,0,1-5.6,11.151l5,6.3a65.342,65.342,0,0,0,6.6-13.1,76.453,76.453,0,0,0,3.55-13.4,105.716,105.716,0,0,0,1.4-13.85q0.249-7.05.25-14.351v-24.9h45.3v10.2q0,1-.05,2t-0.05,2q0,6.8.2,14.1t0.85,14.4a136.487,136.487,0,0,0,1.9,13.551,55.808,55.808,0,0,0,3.35,11.35q0.4,1,1.15,2.65a28.026,28.026,0,0,0,1.75,3.25,13.28,13.28,0,0,0,2.25,2.75,3.876,3.876,0,0,0,2.65,1.149,2.682,2.682,0,0,0,2.15-1.3,12.918,12.918,0,0,0,1.65-3.25,32.159,32.159,0,0,0,1.2-4.4q0.5-2.448.8-4.7t0.5-4.1q0.2-1.848.3-2.75l-5.9-6.4q-0.2,3.2-.35,6.5a53.043,53.043,0,0,1-.65,6.3q0,0.2-.05.7c-0.035.334-.084,0.667-0.15,1s-0.167.767-.3,1.3a2.266,2.266,0,0,1-.45-0.9q-0.351-.9-0.55-1.6a0.4,0.4,0,0,1-.1-0.3,0.757,0.757,0,0,1-.1-0.3,85.176,85.176,0,0,1-4.25-20.9q-0.851-10.9-.85-21.4v-27.3Zm-47.7,23,14.6-1.5h0.2v8.7h-14.1v28.9h6.2v-5.6h8v16.3h0.1q-4.9.8-9.9,1.25t-10.1.851l2,7.1q9.6-1.3,18.65-2.8t17.85-3.8q1.1,2.3,2.1,4.55t1.9,4.55l5.8-4.3q-2.3-5.2-5-10.2t-5.9-10l-5.2,2.9q1.1,1.8,2,3.649t1.9,3.75h0.1q-2,.5-4,0.8l-4,.6-1.5.2-0.9.2v-15.6h14.6v-23.3h-14.6v-9.5h-0.1q4.2-.8,8.5-1.55t8.7-1.75l-4.6-5.7a133.082,133.082,0,0,1-17.95,3.7q-8.95,1.2-18.05,1.7Zm14.9,24.8h-8v-11.9h8v11.9Zm14.3-11.9v11.9h-8.4v-11.9h8.4Zm96.2,8.3a98.227,98.227,0,0,1-1.75-10.151q-0.653-5.347-1.15-10.349-0.6-7.3-.9-14.4t-0.5-14.4h-7q0.1,12.1.85,25a156.915,156.915,0,0,0,3.35,24.7h-41.3v5.8h17.4a46.549,46.549,0,0,1-4.7,16.9,32.111,32.111,0,0,1-11.7,12.8l4.9,5.6a39.988,39.988,0,0,0,10.5-10.4,42.066,42.066,0,0,0,5.9-13.4,82,82,0,0,1,12.9,10.5l4.9-5.7a85.039,85.039,0,0,0-7.95-5.75,96.677,96.677,0,0,0-8.75-4.95h0.1l0.6-5.6h18.8a79.925,79.925,0,0,0,3.85,9,73.487,73.487,0,0,0,5.05,8.6,78.075,78.075,0,0,1-10.8,6.75,65.7,65.7,0,0,1-11.9,4.75l4,6.2a91.433,91.433,0,0,0,23-12.7,49.6,49.6,0,0,0,4.05,3.349q2.45,1.852,5.15,3.5a37.475,37.475,0,0,0,5.4,2.75,13.336,13.336,0,0,0,5,1.1,4.183,4.183,0,0,0,3.55-2.3,21.5,21.5,0,0,0,2.35-5.3,43.532,43.532,0,0,0,1.35-5.949q0.45-2.949.65-4.351l-6.6-3.7v0.5q-0.2,1-.45,3.151t-0.7,4.3a27.818,27.818,0,0,1-1.05,3.8q-0.6,1.652-1.5,1.651a8.043,8.043,0,0,1-3.15-.7,22.335,22.335,0,0,1-3.3-1.75,35.833,35.833,0,0,1-3.15-2.25q-1.5-1.2-2.6-2.2a71.347,71.347,0,0,0,6.3-6.75,63.67,63.67,0,0,0,5.3-7.449l-6-3.5q-2.3,3.5-4.7,6.649a58.845,58.845,0,0,1-5.2,5.951,49.207,49.207,0,0,1-3.9-6.5,64.3,64.3,0,0,1-3-7h35v-5.8h-16.7l3.4-2.4a31.341,31.341,0,0,0-3.2-3.5,22.155,22.155,0,0,0-3.8-2.9q2.9-.3,5.7-0.65t5.7-.85c0.2,0.534.415,1.149,0.65,1.85s0.45,1.417.65,2.15l5.8-2.6a60.714,60.714,0,0,0-3.15-7.649q-1.851-3.75-4.15-7.45l-5,2.2a25.763,25.763,0,0,1,1.9,3.5q0.8,1.8,1.5,3.5-3.2.3-6.45,0.449t-6.45.25q4.5-5.1,8.6-10.6t7.6-10.9l-5.5-3.8q-2.5,4.1-4.85,7.649t-4.65,6.751q-1.8-2.8-3.6-5.4,2.8-3.3,5.5-7.1t4.7-7.3l-6-3.6q-1.7,3.7-3.6,7.049a75.357,75.357,0,0,1-4.1,6.451l-1.5-1.9q-0.4-.5-0.8-1.051c-0.267-.365-0.535-0.715-0.8-1.049l-4.3,4.9a65.791,65.791,0,0,1,5.8,6.65q2.7,3.552,5.1,7.051l-1.1,1.4q-1,1.3-1.95,2.55t-2.05,2.45a8.381,8.381,0,0,0-1.55-.05c-0.5.035-1.017,0.05-1.55,0.05a7.778,7.778,0,0,1-1.3.1h-1.2l1.9,6.1,6.85-.4q3.45-.2,6.85-0.7l-4.8,3.3q1.5,1.2,3.1,2.649t3,2.851h-16.7Zm-45.7-11.8,1.7,6.2q6.9-.4,13.6-0.949t13.3-1.65q0.3,0.8.55,1.65t0.45,1.649l0.3,1.1,6-2.6q-1.3-4.1-2.9-8.05a54.641,54.641,0,0,0-3.9-7.75l-5.2,2.3a31.607,31.607,0,0,1,1.7,3.55q0.7,1.752,1.4,3.45h0.1q-2.5.3-4.85,0.4t-4.85.2q-0.6,0-1.2.05t-1.2.05q4.6-5.6,8.65-11.5t7.55-11.9l-5.8-3.6q-2,3.8-4,7.4t-4.2,6.9l-1.3-1.8q-0.7-.9-1.35-1.9t-1.35-1.9a81.3,81.3,0,0,0,5.15-7.2q2.349-3.7,4.35-7.4l-6.2-3.2a63.465,63.465,0,0,1-3.2,6.8q-1.8,3.3-3.8,6.5l-0.7-.7a36.532,36.532,0,0,0-2.7-3l-4.2,5a84.319,84.319,0,0,1,6.2,6.7q2.9,3.5,5.5,7.3-2.7,3.9-5.5,7.7Zm142.5,12.8h26.2v-27.6h-11.7v-7h25.3v-6.2h-25.3v-9.5h-6.9v9.5h-21.4v-9.5h-6.9v9.5h-24.4v6.2h24.4v7h-11.3v27.6h25.6v5.7h-32.5v34h7v-28.5h25.5v10.4q-5.4.3-10.6,0.451t-10.6.25l2,6.9q9.6-.5,18.9-1.6t18.7-2.2l0.9-.1,1.5-.3q0.6,1.5,1.25,3.05t1.15,3.049l5.8-3.2q-1.9-4-4.2-7.9t-5-7.9l-5.5,2.5q1.8,2.8,3.6,5.8-1.7.1-3.4,0.2t-3.5.3l-4.6.4v-10.1h26.3v18.484a4.683,4.683,0,0,1-.55,2.361,2.159,2.159,0,0,1-2.05.955,36.007,36.007,0,0,1-4.8-.325q-2.4-.324-4.8-0.758l-1.3-.217,1.2,6.5a49,49,0,0,0,5.7.649q2.8,0.151,5.7.151,4.3,0,6-1.646t1.7-5.931V929.938h-33.1v-5.7Zm-13.8-27.6v-7h21.4v7h-21.4Zm7.4,11.2h-18.8v-6.1h18.8v6.1Zm25.8-6.1v6.1h-19.4v-6.1h19.4Zm-25.8,11v6.4h-18.8v-6.4h18.8Zm6.4,6.4v-6.4h19.4v6.4h-19.4Zm55.9-31.7h82.6v-5.7h-38v-7.8h-7.2v7.8h-37.4v5.7Zm83.739,48.1v-5.5H697.347v-4.6h34.7v-5.2h-34.7v-4.5h28.5v-24.4h-63v24.4h28.2v4.5h-34v5.2h34v4.6H652.111v5.5h33a89.9,89.9,0,0,1-7.975,4.3q-4.191,2-8.589,3.6t-8.9,2.8q-4.5,1.2-8.8,1.9l3.7,5.9q5.3-1.3,10.4-2.9a90.8,90.8,0,0,0,10.2-3.9v9a5.623,5.623,0,0,0-1.3.2l-0.6.1q-3.7.6-7.6,0.9l-3.4.3,2.6,6.4q9.7-1.4,19.05-3.349t18.75-4.451l-0.2-5.7q-5.2,1.5-10.3,2.551t-10.2,1.949v-11.2h-0.1q3.192-1.8,6.284-3.95a61.316,61.316,0,0,0,5.686-4.45h0.2a48.145,48.145,0,0,0,7.331,9.6,65.237,65.237,0,0,0,9.279,7.8,74.217,74.217,0,0,0,10.636,6.149,101.451,101.451,0,0,0,11.3,4.55l4.8-6.3q-5.2-1.3-10.75-3.25a57.874,57.874,0,0,1-10.15-4.649l-0.4-.3a71.225,71.225,0,0,0,6.4-4.3q3.2-2.4,6.1-4.7l-6-3.9a66.673,66.673,0,0,1-5.5,5.1q-2.9,2.4-5.994,4.6-3-2.5-5.492-4.9a43.62,43.62,0,0,1-4.792-5.5h36.1Zm-45.839-39.1v4.5h-21.6v-4.5h21.6Zm6.3,4.5v-4.5h22.1v4.5h-22.1Zm-6.3,4.9v4.8h-21.6v-4.8h21.6Zm6.3,4.8v-4.8h22.1v4.8h-22.1Zm154.9-12.3v8a87.33,87.33,0,0,1-1.35,15.5,61.082,61.082,0,0,1-4.35,14.2,50.629,50.629,0,0,1-7.85,12.349,51.746,51.746,0,0,1-11.85,10.051l5.6,6.2a57.526,57.526,0,0,0,16.05-17.3,61.754,61.754,0,0,0,7.75-22.3,58.5,58.5,0,0,0,9.5,20.95,85.768,85.768,0,0,0,16.1,16.75l5.2-7.2a84.9,84.9,0,0,1-11.55-9.7,58.236,58.236,0,0,1-8.75-11.25,51.99,51.99,0,0,1-5.5-13.049,57.049,57.049,0,0,1-1.9-15v-8.2h16.3a88.334,88.334,0,0,1-4.45,10.151q-2.55,4.95-5.45,9.649l5.9,4.1a117.585,117.585,0,0,0,7.15-13.3q3.05-6.7,5.65-13.6l-3.7-3.5h-32.2q0.8-2.5,1.35-5t1.05-5l1-4.6-7.2-1.5a140.577,140.577,0,0,1-4.95,20.35,89.48,89.48,0,0,1-8.65,18.951l5.5,5.5a95.16,95.16,0,0,0,5.55-10.85,117.383,117.383,0,0,0,4.25-11.351h5.8Zm-39.8,51.3v-7.8h18.6v-54.7h-25.3v62.5h6.7Zm12-56.2v42.1h-12v-42.1h12Zm91.9-2.6h66.3v-6h-33.4v-10.9h-7.4v10.9h-32.4V914.1q0,5.6-.15,11.287a96.413,96.413,0,0,1-.95,11.236,70.06,70.06,0,0,1-2.45,10.836,45.128,45.128,0,0,1-4.65,10.186l5.2,6.393a93.5,93.5,0,0,0,4.7-9.3,47.379,47.379,0,0,0,3.1-9.9,89.641,89.641,0,0,0,1.75-14.1q0.35-7.4.35-14.5v-8.7h15.2v14h32.5v-14h19.1v-6h-19.1v-7.7h-6.6v7.7h-19.3v-7.7h-6.6v7.7h-15.2v-10.7Zm41.1,16.7v8.5h-19.3v-8.5h19.3Zm27.2,48.477q-7.4-1-14.55-2.656a82.955,82.955,0,0,1-13.95-4.563h0.1a68.33,68.33,0,0,0,9.15-8.623,86.331,86.331,0,0,0,7.45-9.827l-3.4-3.208h-49v6h8a54.547,54.547,0,0,0,7.25,8.8,62.942,62.942,0,0,0,8.85,7.3,61.189,61.189,0,0,1-14.25,6,109.877,109.877,0,0,1-15.05,3.2l3.7,6.3a139.96,139.96,0,0,0,16.35-4.613,72.977,72.977,0,0,0,15.15-7.319,82.276,82.276,0,0,0,14.5,6.267q7.6,2.454,15.4,4.16Zm-22.4-22.877a33.422,33.422,0,0,1-5.55,6.9,80.619,80.619,0,0,1-6.65,5.7,50.567,50.567,0,0,1-7.75-5.651,48.868,48.868,0,0,1-6.45-6.95h26.4Zm113.2-12.2v-6.7h-27.7v-23.1h31.1v-6.9h-68.6v6.9h30v23.1h-26.4v6.7h26.4v28.5h-33.1v6.9h74.8v-6.9h-34.2v-28.5h27.7Zm-10.1,24.6,5.4-5.1a87.82,87.82,0,0,0-5.35-7.7,73.757,73.757,0,0,0-6.75-7.5l-5.2,4.6a45.638,45.638,0,0,1,6.05,7.3q2.745,4.1,5.35,8.4h0.5Zm68.6-30.6v4.7h6.6v-40.6h-31.6v84.9h7v-49h18Zm46-35.9h-32.1v40.6h6.7v-4.7h18.5v36.8q0,3.7-3.5,3.7c-2.34,0-4.6-.1-6.8-0.3s-4.4-.465-6.6-0.8l1.3,7.9a52.066,52.066,0,0,0,6.4.6q3.2,0.1,6.6.1a21,21,0,0,0,4.35-.4,6.323,6.323,0,0,0,2.95-1.4,6.157,6.157,0,0,0,1.65-2.7,14.419,14.419,0,0,0,.55-4.3v-75.1Zm-46,6.2v9h-18v-9h18Zm39.1,0v9h-18.5v-9h18.5Zm-39.1,14.5v9.2h-18v-9.2h18Zm39.1,0v9.2h-18.5v-9.2h18.5Zm38.3,64.2v-60.9h29.3v-25.8h-35.7v86.7h6.4Zm72.6-86.7h-36.2v25.8h29.8v50.3q0,3.3-3.3,3.3c-1.87,0-3.7-.065-5.5-0.2s-3.6-.333-5.4-0.6l1.19,7q2.88,0.3,5.72.351t5.73,0.05c2.91,0,4.97-.518,6.16-1.55s1.8-3.018,1.8-5.95v-78.5Zm-49.6,5.2v5.3h-23v-5.3h23Zm43.2,0v5.3h-23.4v-5.3h23.4Zm-43.2,10.1v5.4h-23v-5.4h23Zm43.2,0v5.4h-23.4v-5.4h23.4Zm-3.1,37.9q-1.11-3.2-2.5-6.3a58.43,58.43,0,0,0-3.3-6.2l-4.41,2q0.3,0.7.6,1.35a9.044,9.044,0,0,1,.5,1.349c0.2,0.468.41,0.935,0.61,1.4s0.4,0.9.6,1.3l-9.57.3q2.895-3,5.95-6.449t5.65-6.65l-4.6-3.5q-1.9,2.9-3.7,5.151t-3.7,4.55l-2.5-3c1.2-1.333,2.49-2.833,3.85-4.5a41.526,41.526,0,0,0,3.45-4.8l-4.6-2.9q-1.4,2.4-2.85,4.6a43.325,43.325,0,0,1-3.04,4.1l-3.1-3.1-3.29,4.1q2.3,2.2,4.54,4.5c1.5,1.534,2.91,3.134,4.25,4.8a16.18,16.18,0,0,1-1.5,1.7c-0.6.6-1.13,1.134-1.6,1.6h-2.6a11.806,11.806,0,0,1-1.5.1h-1.39l2.2,5.4c3.61-.132,7.18-0.365,10.73-0.7s7.01-.765,10.42-1.3c0.26,0.668.5,1.318,0.7,1.951s0.4,1.317.6,2.049Zm-51.6-4.2c-1.54.067-3.02,0.117-4.46,0.149s-2.92.051-4.45,0.051l2,5.7q5.895-.2,11.5-0.75t11.21-1.55a4.175,4.175,0,0,1,.25,1.1,4.663,4.663,0,0,0,.25,1.2l0.2,1.4,5.3-1.9a53.242,53.242,0,0,0-1.85-6.4q-1.155-3.2-2.65-6.4l-4.6,1.6a27.042,27.042,0,0,1,1.1,2.55q0.495,1.348.9,2.55l-4.22.2-4.21.3q3.09-3.1,6.3-6.6,3.195-3.5,5.9-7l-4.5-3.3q-1.9,2.6-3.75,5t-3.85,5a34.616,34.616,0,0,0-2.39-2.7c1.32-1.6,2.64-3.25,3.94-4.95s2.45-3.316,3.45-4.851l-4.8-2.9q-1.305,2.6-2.69,4.95a38.783,38.783,0,0,1-2.99,4.35l-3.49-3.3-3.1,4.4a44.169,44.169,0,0,1,4.54,4.151q2.145,2.25,4.14,4.549a13.528,13.528,0,0,1-.89,1.1c-0.4.4-.77,0.8-1.1,1.2a8.86,8.86,0,0,1-1.09,1.1h0.1Zm18.2,7.3h-6.1v11.2h-7.6v-9.4h-6v14.5h12.8a13.811,13.811,0,0,1-4.15,5.651,24.041,24.041,0,0,1-5.95,3.649l3.9,4.6q6.9-2.9,10-8.2a24.384,24.384,0,0,0,3.1-12.5v-9.5Zm26.6,1.8h-6v9.4h-7.7v-11.2h-6.1v28.2h6.1v-11.9h13.7v-14.5Z"/>
  <path id="大写字母" class="cls-3" d="M226.992,466.883q2.954-13.147,3.8-17.86h0.281q1.266,6.4,3.8,17.86l1.9,8.578H225.094Zm20.32,29.883-12.374-52.805h-7.876l-12.374,52.805h5.624l3.727-16.454H237.82l3.727,16.454h5.765Zm25.13,0q7.873,0,12.305-3.9t4.43-11.425q0-10.687-9.7-12.657v-0.422a9.809,9.809,0,0,0,5.59-4.218,13.537,13.537,0,0,0,1.864-7.243q0-12.936-14.907-12.937h-9.984v52.805h10.406Zm-4.5-47.954h3.445q5.133,0,7.383,2t2.25,6.856q0,4.5-2.285,6.785t-7.7,2.285h-3.094v-17.93Zm0,22.36h4.219q5.7,0,8.4,2.461t2.707,7.594q0,10.757-11.531,10.757h-3.8V471.172Zm65.278,19.9-3.586-3.515q-3.656,4.921-8.226,4.922-5.415,0-8.754-5.59t-3.34-16.629q0-10.758,3.41-16.348t8.543-5.59q4.147,0,7.524,4.219l3.515-3.727q-4.782-5.694-11.179-5.695-7.806,0-12.9,7t-5.1,20.356q0,13.288,4.992,20.215t12.8,6.925q7.171,0,12.3-6.539h0Zm22.669,5.7q9.492,0,14.695-7.032t5.2-19.617q0-12.446-5.239-19.3t-14.871-6.855h-8.367v52.805h8.578Zm-2.6-47.813h3.023a10.91,10.91,0,0,1,9.949,5.485q3.339,5.484,3.34,15.679,0,10.336-3.34,16a10.84,10.84,0,0,1-9.949,5.66h-3.023v-42.82Zm64.575,47.813v-5.133H398.245V471.594H414v-5.133h-15.75V449.094h18.914v-5.133H392.2v52.805h25.665Zm24.707,0V472.719h15.821v-5.133H442.57V449.094H461.2v-5.133H436.594v52.805h5.976Zm61.974-4.782V469.7H491.536v5.063h7.453v14.976a7.527,7.527,0,0,1-6.258,2.743q-5.133,0-8.226-5.942t-3.094-16.277q0-10.194,3.2-16.067t8.473-5.871a6.744,6.744,0,0,1,4.183,1.3,17.852,17.852,0,0,1,3.481,3.691l3.586-3.8q-4.993-6.4-11.25-6.4-7.947,0-12.9,7.383t-4.957,19.969q0,12.446,4.887,19.793t12.551,7.347a14.847,14.847,0,0,0,11.883-5.625h0Zm21.262,4.782V471.594h15.258v25.172h5.977V443.961h-5.977V466.32H525.806V443.961h-6.047v52.805h6.047Zm63.45,0v-4.993h-9.633V449.094h9.633v-5.133H563.944v5.133h9.633v42.679h-9.633v4.993h25.312Zm36.521-52.805V482.07q0,10.407-7.665,10.407-4.992,0-8.156-5.907l-3.937,3.586a15.193,15.193,0,0,0,5.484,5.555,13.762,13.762,0,0,0,6.961,1.9q6.962,0,10.125-4.078t3.164-10.828V443.961h-5.976Zm30.473,52.805V480.523l6.891-11.25,10.547,27.493h6.117l-13.078-32.977,11.39-19.828h-6.258l-15.328,27.211H656.25V443.961h-5.906v52.805h5.906Zm64.505,0v-5.133h-19.2V443.961h-5.976v52.805h25.172Zm19.645,0v-31.43q0-2.46-.562-8.719t-0.563-6.469h0.281l2.672,10.829L747.713,482h3.3l5.485-21.023,2.461-10.829h0.281q-0.986,14.275-.985,15.188v31.43h4.993V443.961h-6.118l-5.625,22.078-1.968,8.859h-0.282l-1.968-8.859-5.625-22.078h-6.118v52.805H740.4Zm43.833,0v-28.9q0-2.882-.7-16.1h0.281l3.726,11.32,12.235,33.68h6.187V443.961h-4.992v28.828q0,3.164.7,16.172h-0.281l-3.656-11.18-12.3-33.82h-6.187v52.805h4.992Zm66.825-26.649q0-13.289-4.113-20.144T835.8,443.117q-7.032,0-11.145,6.856t-4.113,20.144q0,13.36,4.149,20.426t11.109,7.066q6.962,0,11.109-7.066t4.149-20.426h0Zm-24.328,0q0-21.8,9.07-21.8t9.07,21.8q0,22.359-9.07,22.36t-9.07-22.36h0Zm45.731,26.649V475.391h3.656q18.071,0,18.071-16.032,0-8.295-4.5-11.847t-13.571-3.551h-9.633v52.805h5.977Zm0-47.883h2.812q6.891,0,9.915,2.32t3.023,8.156q0,5.838-3.094,8.508t-9.844,2.672h-2.812V448.883Zm49.739-.563q9.07,0,9.07,21.8,0,11.391-2.39,17.016t-6.68,5.625q-4.29,0-6.68-5.625t-2.39-17.016Q913.13,448.322,922.2,448.32Zm11.531,56.6q-6.117,0-8.508-7.664,5.7-1.477,8.965-8.4t3.27-18.738q0-13.289-4.114-20.144T922.2,443.117q-7.032,0-11.145,6.856t-4.113,20.144q0,11.955,3.375,18.914t9.141,8.3a20.238,20.238,0,0,0,5.2,9.141,11.922,11.922,0,0,0,8.578,3.375,11.563,11.563,0,0,0,5.2-1.055l-1.2-4.57a8.425,8.425,0,0,1-3.516.7h0Zm25.06-56.039h4.078q5.484,0,8.191,2.25t2.707,7.453q0,10.547-10.9,10.547h-4.078v-20.25Zm11.39,24.187q9.492-3.093,9.492-14.484,0-14.624-15.82-14.625H952.814v52.805h5.977V473.984h5.625l9.984,22.782h6.328Zm49.039,20.567a13.66,13.66,0,0,0,3.93-10.02,14.615,14.615,0,0,0-2.25-8.508,22.166,22.166,0,0,0-6.46-5.906l-5.28-3.375a21.193,21.193,0,0,1-5.52-4.676,8.964,8.964,0,0,1-1.58-5.449,7.138,7.138,0,0,1,2.08-5.344,7.06,7.06,0,0,1,5.16-2.039q4.65,0,9.28,5.133l3.31-3.867q-5.49-6.468-12.59-6.469a13,13,0,0,0-9.559,3.692,12.56,12.56,0,0,0-3.727,9.316,13.483,13.483,0,0,0,2.215,7.98,22.964,22.964,0,0,0,6.291,5.8l5.42,3.446a19.682,19.682,0,0,1,5.34,4.746,10.24,10.24,0,0,1,1.83,6.222,7.9,7.9,0,0,1-2.29,5.907,8.2,8.2,0,0,1-6.01,2.25q-5.91,0-10.9-6.68l-3.8,4.078q5.906,7.736,14.694,7.734A14.017,14.017,0,0,0,1019.22,493.637Zm35.6,3.129V449.094h12.8v-5.133h-31.64v5.133h12.87v47.672h5.97Zm50.13-3.164q3.825-4.008,3.83-13.008V443.961h-5.76v36.7q0,11.813-8.02,11.813a6.558,6.558,0,0,1-5.48-2.778q-2.115-2.776-2.11-9.035v-36.7h-5.98v36.633q0,9.071,3.69,13.043a12.829,12.829,0,0,0,9.88,3.972A13.155,13.155,0,0,0,1104.95,493.6Zm36.98,3.164,12.09-52.805h-5.98l-5.97,29.18q-2.61,13.149-3.66,17.718h-0.28q-0.63-3.093-3.59-17.718l-5.97-29.18h-6.19l12.09,52.805h7.46Zm33.92,0,4.14-22.782q0.705-4.639,1.27-9.562h0.28q0.78,6.609,1.27,9.562l4.14,22.782h6.47l5.28-52.805h-4.93l-2.88,33.891q-0.705,9.069-.84,12.515h-0.28q-1.485-9-2.11-12.515l-3.8-20.18h-4.43l-3.87,20.18q-0.765,4.289-2.11,12.515h-0.28q-0.63-9.492-.91-12.515l-2.95-33.891h-5.35l5.56,52.805h6.33Zm39.54,0,5.48-14.133q0.42-1.335,1.62-4.5t1.69-4.711h0.28q0.7,1.688,3.3,9.211l5.63,14.133h6.4l-11.46-26.789,10.82-26.016h-5.9l-5.2,13.43c-0.29.8-.77,2.109-1.45,3.937s-1.2,3.259-1.58,4.289h-0.28c-1.73-4.359-2.79-7.1-3.16-8.226l-5.28-13.43h-6.25L1220.8,469.2l-11.39,27.563h5.98Zm55.43,0V477.852l13.01-33.891h-6.05l-5.62,16.031q-0.705,2.251-2.15,6.328t-2.07,5.907h-0.28q-0.42-1.407-4.01-12.165l-5.69-16.1h-6.19l13.01,33.891v18.914h6.04Zm54.73,0v-4.993h-22l21.72-44.226v-3.586h-26.79v5.133h19.76l-21.79,44.226v3.446h29.1Z"/>
  <path id="logo" class="cls-1" d="M706.266,1194.7a45.969,45.969,0,0,0-.118,5.15v5.16H677.555v-1.17l0.234-.94-1.406-.24c-1.1,0-2.659-.07-4.688-0.23h-3.281l-0.469,2.58a45.646,45.646,0,0,1-1.172,4.92,22.619,22.619,0,0,1-1.406,4.22,7.125,7.125,0,0,0-.82,2.23,6.584,6.584,0,0,0,2.109-.71c1.326-.54,2.615-1.13,3.867-1.76a11.566,11.566,0,0,0,3.516-2.81l1.641-1.64h66.8l1.875,1.88a14.477,14.477,0,0,0,3.75,2.81c1.406,0.62,2.655,1.17,3.75,1.64a1.036,1.036,0,1,0,1.171-1.17,17.1,17.1,0,0,1-1.406-3.99q-0.7-2.34-1.172-4.68a11.9,11.9,0,0,0-.7-3.05c0-.47-1.252-0.62-3.75-0.47-1.875.16-3.281,0.23-4.219,0.23a2.052,2.052,0,0,1-.937.24c-0.315,0-.469.31-0.469,0.94l0.235,0.93-13.594.24q-13.359,0-13.36-.24a2.838,2.838,0,0,1,.7-1.05,6.664,6.664,0,0,0,1.171-2.46,15.728,15.728,0,0,0,.469-4.22v-2.58h-4.687Q706.382,1194.46,706.266,1194.7Zm-31.289,28.12v4.22l21.093,0.23h21.094l-5.859,4.93q-5.4,4.215-8.2,6.56l-2.344,1.87v6.8H660.445v4.22h40.313v14.76c0,10.01-.158,15.47-0.469,16.41a13.152,13.152,0,0,1-1.172,3.05,21,21,0,0,1-2.578,3.04,16.962,16.962,0,0,1-3.75,2.82c-1.406.62-2.109,1.17-2.109,1.64s0.153,0.7.468,0.7a30.375,30.375,0,0,0,3.047-.47,34.353,34.353,0,0,0,4.922-1.4,16.4,16.4,0,0,0,4.688-1.88,11.74,11.74,0,0,0,3.515-2.34,12.264,12.264,0,0,0,2.344-2.58,13,13,0,0,0,1.172-2.58c0.311-.94.469-6.4,0.469-16.41v-14.76h38.2v-4.22h-38.2v-6.8l2.109-1.64q2.109-1.635,8.438-6.79,6.327-5.4,8.437-7.04a13.637,13.637,0,0,0,2.578-2.34q0-.225-28.828-0.23t-29.062.23h0Zm121.64-30.23-0.469,1.87a27.635,27.635,0,0,1-1.523,5.74c-0.861,2.43-1.681,4.65-2.461,6.68q-1.176,2.58-3.281,6.8-1.88,3.75-4.453,8.44-2.11,3.75-4.688,7.73-2.582,4.215-3.047,4.92a7.818,7.818,0,0,0-1.406,2.11c-0.157.47-.117,0.71,0.117,0.71a8.252,8.252,0,0,0,2.227-1.18q1.873-1.17,3.515-2.34,1.874-1.41,3.985-3.28a59.714,59.714,0,0,0,4.453-4.45l2.109-2.35,0.235,14.77,0.234,14.76h1.875a5.862,5.862,0,0,0,3.047-.7,5.457,5.457,0,0,0,1.875-1.17,11.374,11.374,0,0,0,1.406-1.64l0.469-.71h27.187v2.11l0.235,2.11h1.64a7.437,7.437,0,0,0,2.813-.47,9.072,9.072,0,0,0,2.109-1.17,4.666,4.666,0,0,0,1.407-1.64l0.7-.94h31.64v-4.45H838.336v-6.8H868.57v-4.45H838.336v-6.8H868.57v-4.68H838.336v-7.5H868.57v-4.69H837.164l0.938-1.17a23.668,23.668,0,0,0,1.406-2.35,6.445,6.445,0,0,0,.7-2.57,17.74,17.74,0,0,0,.469-4.93v-3.51H828.727v14.53H815.6q-13.129,0-13.125-.23c0-.16-0.158-0.24-0.469-0.24s0.311-1.41,1.875-4.22a69.182,69.182,0,0,0,3.281-7.5,16.732,16.732,0,0,0,1.406-3.98l0.235-1.17H796.617Zm31.406,22.03v7.5H802.477v-7.5h25.546Zm0,12.18v6.8H802.477v-6.8h25.546Zm0,11.25v6.8H802.477v-6.8h25.546Zm-3.515,16.88v5.16l-22.969.23H778.805v4.45h45.7v1.64c0,1.1-.081,1.64-0.235,1.64a40.222,40.222,0,0,1-4.687-1.17q-4.455-1.17-4.922-1.4-0.236,0-6.328,4.68-6.1,4.935-7.734,6.1-1.643.93-4.454,2.58a58.967,58.967,0,0,1-5.39,2.57q-2.812,1.185-5.391,2.23a35.226,35.226,0,0,1-5.859,1.76,17.416,17.416,0,0,0-3.047,1.05,6.06,6.06,0,0,0,1.289,1.06,3.994,3.994,0,0,0,1.992.94c0.469,0,2.344-.32,5.625-0.94s6.328-1.33,9.141-2.11q4.449-1.17,8.2-2.35a22.822,22.822,0,0,0,4.922-2.1q1.637-.945,9.14-6.1t7.618-5.04q0.115,0.12.117,13.48v13.12h1.406a7.357,7.357,0,0,0,2.813-.7,6.692,6.692,0,0,0,3.046-1.99,11.184,11.184,0,0,0,2.11-3.17,8.733,8.733,0,0,0,.586-2.34q0.115-1.17.117-6.33c0.154-4.68.271-7.11,0.352-7.26s1.442,0.55,4.1,2.11q3.982,2.1,6.8,3.51a34.945,34.945,0,0,0,6.328,2.58,54.282,54.282,0,0,0,6.328,1.64,52.974,52.974,0,0,0,5.625.94c1.718,0.16,4.219.23,7.5,0.23a38.521,38.521,0,0,0,5.86-.23,1.37,1.37,0,0,0,1.171-.94l0.235-1.17c0-.15-0.235-0.24-0.7-0.24-0.315,0-1.722-.23-4.219-0.7s-5-1.01-7.5-1.64q-3.516-.93-6.8-2.11-2.812-.93-5.625-2.11-2.346-1.17-10.078-6.33l-7.734-5.15,19.453-.24h19.453v-4.45H854.977l-20.157-.23v-2.58l-0.234-2.58H824.508Z"/>
</svg>
