<svg xmlns="http://www.w3.org/2000/svg" width="400" height="200" viewBox="0 0 400 200">
  <defs>
    <style>
      .cls-1 {
        fill: #fdfdfd;
        fill-rule: evenodd;
      }
    </style>
  </defs>
  <path id="王漢宗中明體_注音" data-name="王漢宗中明體 注音" class="cls-1" d="M80.848,61.84a0.934,0.934,0,0,1-1.231.176,21.417,21.417,0,0,0-2-1.266,4.657,4.657,0,0,0-1.406-.633,0.227,0.227,0,0,0-.141.106q1.511,1.09,3.023,2.25a0.587,0.587,0,0,1,.07,1.019,26.914,26.914,0,0,1-3.8,2.988q-0.738.457-.562,0.527a2.049,2.049,0,0,0,.492-0.106,16.484,16.484,0,0,0,4.5-2.918,0.732,0.732,0,0,1,1.125,0q1.019,0.879,1.934,1.828a1.522,1.522,0,0,0,1.16.914q0.878-.422.211-1.2a18.1,18.1,0,0,0-2.742-2.25,0.579,0.579,0,0,1-.035-0.984l0.738-.984a5.088,5.088,0,0,1,1.09-1.336,0.986,0.986,0,0,0,.211-0.352,1.3,1.3,0,0,0-.7-0.844q-0.563-.316-0.6.317a5.365,5.365,0,0,1-1.336,2.742h0Zm5.308,7.594a0.442,0.442,0,0,0-.141.633q0.7,0.985,1.512-.281A17.153,17.153,0,0,0,89.5,67.148q0.07-.351-0.668.176Zm-6.891.492a2.3,2.3,0,0,1,.176,1.3l-0.141.949a0.7,0.7,0,0,1-.668.6q-1.758.106-2.848,0.106l-0.211.07a0.6,0.6,0,0,0,.246.457,1.319,1.319,0,0,0,1.406.281,11.916,11.916,0,0,1,1.16-.281q0.667-.07.527,0.457a10.157,10.157,0,0,1-3.481,4.43,1.769,1.769,0,0,0-.633.668,0.8,0.8,0,0,0,.738-0.141,10.556,10.556,0,0,0,3.832-4.008,1.848,1.848,0,0,1,.352-0.6L79.617,77.1a1.851,1.851,0,0,0,1.723,1.969h3.094a0.671,0.671,0,0,0,.7-0.527,0.4,0.4,0,0,0-.316-0.422,4.156,4.156,0,0,0-1.336.106,12.238,12.238,0,0,1-1.582.105A1.354,1.354,0,0,1,80.25,77.2a14.382,14.382,0,0,1,.211-2.988,0.917,0.917,0,0,0-.211-0.668Q80,73.266,80.6,73.2l0.844-.07a4.628,4.628,0,0,1,1.441.106,1.592,1.592,0,0,0,.668,0,0.448,0.448,0,0,0,.387-0.387,0.578,0.578,0,0,0-.633-0.457,8.1,8.1,0,0,0-1.512.105l-1.125.106q-0.668.035-.6-0.492a8.752,8.752,0,0,1,.387-2.25,0.5,0.5,0,0,0-.281-0.387,0.938,0.938,0,0,0-1.09-.07,0.744,0.744,0,0,0,.176.527h0ZM64.254,56H42.141q-1.02,0-.879.527a1.2,1.2,0,0,0,1.2.387H53.32a0.762,0.762,0,0,1,.844.879V68.063a0.762,0.762,0,0,1-.879.844H43.652q-0.949,0-.808.563a1.107,1.107,0,0,0,1.16.387H53.32a0.762,0.762,0,0,1,.844.879V82.02a0.762,0.762,0,0,1-.879.844H40.031q-1.02,0-.879.527a1.2,1.2,0,0,0,1.2.387H70.02a1.3,1.3,0,0,0,1.266-.492q0.211-.457-1.09-1.477l-0.352-.281a1.476,1.476,0,0,0-2.145.281,2.911,2.911,0,0,1-1.9,1.055H57.082a0.762,0.762,0,0,1-.844-0.879V70.7a0.762,0.762,0,0,1,.879-0.844h9.738a1.223,1.223,0,0,0,1.23-.527q0.176-.456-1.125-1.477l-0.352-.281a1.477,1.477,0,0,0-2.145.281,2.911,2.911,0,0,1-1.9,1.055H57.082a0.762,0.762,0,0,1-.844-0.879V57.762a0.762,0.762,0,0,1,.879-0.844h11.32a1.34,1.34,0,0,0,1.3-.492q0.211-.456-0.809-1.266l-0.668-.527a1.466,1.466,0,0,0-2.109.316A2.911,2.911,0,0,1,64.254,56h0Zm66.8,3.27q-0.528-.176-0.6.316a2.153,2.153,0,0,1,.352,1.3,18.556,18.556,0,0,1-2.5,6.609c-0.329.563-.422,0.821-0.282,0.773a4.064,4.064,0,0,0,.739-0.7,13.028,13.028,0,0,0,2.285-4.676l0.773-2.742a0.618,0.618,0,0,1,.563-0.211q3.62-.351,5.062-0.352a1.482,1.482,0,0,0,.774-0.246q0.175-.457-0.6-0.633a8.432,8.432,0,0,0-2.039.246,13.731,13.731,0,0,1-4.535.316h0Zm9.07,8.859a25.753,25.753,0,0,0,3.41,2.285,2.025,2.025,0,0,0-.351-0.7q-1.02-1.3-2.075-2.531a0.573,0.573,0,0,0-.984-0.07,0.6,0.6,0,0,0,0,1.02h0Zm-4.781,1.582q-2.391.246-4.957,0.352a1.533,1.533,0,0,0-.668.246,0.419,0.419,0,0,0,.316.281,1.157,1.157,0,0,1,.563.422,3.289,3.289,0,0,1-1.16,2.883,0.952,0.952,0,0,0-.387,1.441,0.6,0.6,0,0,0,.6-0.035,4.222,4.222,0,0,1,1.335-.562,29.891,29.891,0,0,1,5.485-.387q0.738,0.141.457,0.633a11.419,11.419,0,0,1-1.9,3.34,3.419,3.419,0,0,0-.7.809,0.3,0.3,0,0,0,.246.316,2.079,2.079,0,0,0,.774-0.562,8.488,8.488,0,0,0,2.074-2.812,2.2,2.2,0,0,1,.387-0.668,1.308,1.308,0,0,0,.492-0.984q-0.879-1.125-1.547-.773a6.125,6.125,0,0,1-.949.141q-0.669,0-.422-0.527a8.035,8.035,0,0,1,1.23-2.039,1.24,1.24,0,0,0,.528-0.773,1.352,1.352,0,0,0-.6-0.773,0.663,0.663,0,0,0-.844-0.141,0.608,0.608,0,0,1-.351.176h0Zm0.246,1.406q-0.528,1.055-1.125,2.145a1.032,1.032,0,0,1-.844.6,20.6,20.6,0,0,0-2.707.281q-0.667.071-.281-0.492a9.093,9.093,0,0,0,.457-0.808,1.826,1.826,0,0,0,.1-1.652q-0.175-.316.352-0.527a17.669,17.669,0,0,1,4.008-.281q0.386,0.211.035,0.738h0ZM107.777,54.879a0.762,0.762,0,0,1-.879.844h-3.55q-1.02,0-.879.527a1.2,1.2,0,0,0,1.2.387h3.27a0.762,0.762,0,0,1,.843.879v4.043a0.882,0.882,0,0,0,1.055,1.02,1.163,1.163,0,0,0,.984-1.23q0-.914,1.2-0.914a0.9,0.9,0,0,1,1.125.879v1.547a0.762,0.762,0,0,1-.879.844h-4.465a1.744,1.744,0,0,1-1.617-.422q-1.055-.527-1.055.527V70a0.888,0.888,0,0,0,.949,1.09q1.442,0,1.09-1.09,0-.562.879-0.562h4.184a0.729,0.729,0,0,1,.808.879,5.393,5.393,0,0,1-.07,1.231,0.992,0.992,0,0,1-.984,1.055h-7.489q-1.02,0-.879.527a1.2,1.2,0,0,0,1.2.387h7.1q0.808,0,.633.949l-0.211.984a1.268,1.268,0,0,1-1.2,1.055h-8.649q-0.948,0-.808.563a1.107,1.107,0,0,0,1.16.387h7.875q0.843,0,.457.844a13.475,13.475,0,0,1-8.227,6.082q-1.089.281-.949,0.668,0.211,0.456,1.406.176a25.517,25.517,0,0,0,4.922-1.828,11.008,11.008,0,0,0,4.922-4.781q0.563-1.125.985-.281a14.789,14.789,0,0,0,9.421,6.785,1.091,1.091,0,0,0,1.266-.281,2.774,2.774,0,0,1,.844-1.019,1.129,1.129,0,0,0,.562-0.633q0-.211-1.336-0.316A13.592,13.592,0,0,1,114.6,78.5q-0.774-1.055.07-1.055h8.894a1.17,1.17,0,0,0,1.2-.492,1,1,0,0,0,.14-0.527l-1.617-1.266a1.473,1.473,0,0,0-2.109.281,2.911,2.911,0,0,1-1.9,1.055H113.9q-0.774,0-.528-0.949l0.246-.984a1.12,1.12,0,0,1,1.09-1.055h6.891a1.341,1.341,0,0,0,1.3-.492q0.245-.456-0.95-1.406-1.089-.949-0.351-1.019,0.738-.035.738-1.16V66.3a1.4,1.4,0,0,1,.352-1.125q1.335-.878-0.387-1.723a1.242,1.242,0,0,0-1.582-.211,2.019,2.019,0,0,1-1.371.457H115.02a0.762,0.762,0,0,1-.844-0.879V61.277q0-.844,1.195-0.844a0.994,0.994,0,0,1,1.125,1.125,0.882,0.882,0,0,0,1.055,1.02,1.225,1.225,0,0,0,.984-1.336V57.481a0.762,0.762,0,0,1,.879-0.844h4.008a1.435,1.435,0,0,0,1.336-.492q0.176-.492-0.809-1.3a1.671,1.671,0,0,1-.422-0.317,1.474,1.474,0,0,0-2.109.176,2.886,2.886,0,0,1-1.969,1.02,0.792,0.792,0,0,1-.914-0.879,0.842,0.842,0,0,1,.317-0.914q1.194-.422.562-1.23a3.849,3.849,0,0,0-1.512-.316l-0.351-.035a0.838,0.838,0,0,0-1.055.949v1.582a0.762,0.762,0,0,1-.879.844H110.66a0.762,0.762,0,0,1-.844-0.879,0.893,0.893,0,0,1,.563-0.984q0.949-.492.351-1.125a2.775,2.775,0,0,0-.984-0.281l-0.984-.141a0.836,0.836,0,0,0-.985,1.02v1.547ZM96.6,54.6a9.28,9.28,0,0,1,2,2.566,4.471,4.471,0,0,0,.633.844,0.933,0.933,0,0,0,1.512-.633,2.284,2.284,0,0,0-.492-1.547,6.932,6.932,0,0,0-3.762-2.32q-1.02-.351-1.16-0.035-0.105.282,1.266,1.125h0Zm19.9,4.078a0.762,0.762,0,0,1-.879.844H110.66a0.762,0.762,0,0,1-.844-0.879v-1.16a0.762,0.762,0,0,1,.879-0.844h4.993a0.765,0.765,0,0,1,.808.914v1.125Zm-20.355,15.4a2.607,2.607,0,0,1-2.25,1.582,1.136,1.136,0,0,0-1.125.492q-0.035.387,1.02,0.527a2.987,2.987,0,0,1,1.617.492,10.215,10.215,0,0,1,.141,4.254,10.482,10.482,0,0,0,.176,2.883,1.361,1.361,0,0,0,1.019,1.125,1.087,1.087,0,0,0,1.231-.773q0.562-1.758-.7-5.449a4.822,4.822,0,0,1-.211-2.531,53.01,53.01,0,0,1,1.969-5.625L103.1,60.223q0.421-1.055,0-1.231-0.388-.14-0.879,1.02-3.094,7.032-6.082,14.063h0ZM94.172,63.035A6.831,6.831,0,0,1,95.859,65.5a1.7,1.7,0,0,0,1.371,1.477q1.3-.281.668-1.969a6.327,6.327,0,0,0-3.445-2.918q-1.055-.422-1.23-0.141-0.141.282,0.949,1.09h0Zm17.965,4.641a0.762,0.762,0,0,1-.879.844H107a0.762,0.762,0,0,1-.844-0.879V65.5a0.762,0.762,0,0,1,.879-0.844h4.324a0.771,0.771,0,0,1,.774.949v2.074Zm8.156,0a0.762,0.762,0,0,1-.879.844H115.02a0.762,0.762,0,0,1-.844-0.879V65.5a0.762,0.762,0,0,1,.879-0.844h4.465a0.771,0.771,0,0,1,.773.949v2.074Zm-0.738,3.973a2.664,2.664,0,0,1-1.793.949h-2.953a0.7,0.7,0,0,1-.774-0.879,5.638,5.638,0,0,0,.07-1.231,0.9,0.9,0,0,1,.915-1.055h4.464a0.66,0.66,0,0,1,.809.668,2.185,2.185,0,0,1-.738,1.547h0ZM189.41,55.09l-5.168.527a1.444,1.444,0,0,0-.7.281,0.333,0.333,0,0,0,.281.316,1,1,0,0,0,.668.176l1.864-.316q0.667-.105.7,0.422l0.175,1.934v1.688a18.174,18.174,0,0,0-.1,2.426,1.433,1.433,0,0,0,.07.457,0.987,0.987,0,0,0,.493.6,0.9,0.9,0,0,0,.351-0.879V60.961l-0.211-4.605a0.54,0.54,0,0,1,.563-0.562l1.2-.141a1.3,1.3,0,0,1,1.055.106,0.709,0.709,0,0,1,.175.633,16.257,16.257,0,0,1-.246,1.863,1.316,1.316,0,0,1-.562,1.16,2.781,2.781,0,0,1-.774-0.176,0.941,0.941,0,0,0-.7-0.141q-0.141.211,0.352,0.457a3.071,3.071,0,0,1,.6.633q0.387,0.985,1.161.07a6.954,6.954,0,0,0,1.019-3.34,5.925,5.925,0,0,1,.281-1.3,0.357,0.357,0,0,0-.14-0.422,1.673,1.673,0,0,0-1.758-.176,2.885,2.885,0,0,1-.633.07h0Zm0.6,11.039a4.2,4.2,0,0,1-.914,1.266,1.016,1.016,0,0,1-1.2.281l-2.531-1.09a2.484,2.484,0,0,0-.773-0.176q-0.141.071,0.668,0.527l2,1.09q0.668,0.387.105,0.773a24.743,24.743,0,0,1-3.305,2.039,1.093,1.093,0,0,0-.6.457,12.481,12.481,0,0,0,4.57-2.109,0.935,0.935,0,0,1,1.16.035l0.668,0.492A10.492,10.492,0,0,1,191.2,70.8q0.808,0.633,1.02-.352a2.639,2.639,0,0,0-.6-0.668,19.775,19.775,0,0,0-1.863-1.09q-0.562-.351-0.035-0.844l0.949-.949a2.218,2.218,0,0,0,.7-0.7,1.411,1.411,0,0,0-.457-0.633,0.551,0.551,0,0,0-.738-0.106,5.827,5.827,0,0,1-.176.668h0Zm-2.074,9.246a2.987,2.987,0,0,1-.7,1.828,15.481,15.481,0,0,1-3.128,4.148,0.872,0.872,0,0,0-.317,1.441,1.1,1.1,0,0,0,.844-0.07,18.9,18.9,0,0,1,7.523-.6q0.845-.176.141-0.773a1.924,1.924,0,0,0-1.441-.211q-2.778.422-5.309,0.6a0.479,0.479,0,0,1-.457-0.141,0.98,0.98,0,0,1,.316-0.633l3.375-4.57a3.7,3.7,0,0,0,.528-0.844,1.212,1.212,0,0,0-1.512-.984,3.192,3.192,0,0,0,.141.809h0ZM162.551,56.25a0.762,0.762,0,0,1-.879.844h-9.211a0.7,0.7,0,0,1-.844-0.738q0.035-.633-0.351-0.6a1.607,1.607,0,0,0-.422,1.09,8.574,8.574,0,0,1-3.129,4.5,0.914,0.914,0,0,0,.668,1.441,1.906,1.906,0,0,0,1.969-1.23,11.613,11.613,0,0,0,.914-2.461,1.118,1.118,0,0,1,1.089-1.055h22.676q0.844,0,.528.844a15.764,15.764,0,0,1-1.09,1.9q-0.7.985-.422,1.23,0.281,0.211,1.547-.984a3.025,3.025,0,0,0,.668-0.668q1.23-1.687,2.215-1.266,0.738,0.141.914-.844a5.524,5.524,0,0,0-1.371-1.512,1.26,1.26,0,0,0-1.688-.211,2.562,2.562,0,0,1-1.582.563h-9.281a0.762,0.762,0,0,1-.844-0.879q-0.246-1.933.492-2.566,0.914-.633.281-1.125l-1.863-.352q-0.984-.14-0.984.984V56.25ZM168,63.6H154.184q-1.02,0-.879.527a1.2,1.2,0,0,0,1.195.387h17.754a1.3,1.3,0,0,0,1.23-.492q0.211-.386-0.773-1.266l-0.668-.527a1.5,1.5,0,0,0-2.145.316A2.911,2.911,0,0,1,168,63.6h0Zm5.625,5.906h-24.75q-1.02,0-.879.527a1.2,1.2,0,0,0,1.195.387h12.516a0.762,0.762,0,0,1,.844.879V81.949a1.172,1.172,0,0,1-1.336,1.09l-1.828-.281q-1.055-.211-1.2.211-0.071.422,0.985,0.844a3.2,3.2,0,0,1,1.969,1.547q0.1,0.527,1.16.211A3.1,3.1,0,0,0,164.625,83V71.262a0.762,0.762,0,0,1,.879-0.844h12.305a1.338,1.338,0,0,0,1.3-.492q0.211-.456-0.843-1.3l-0.633-.492a1.466,1.466,0,0,0-2.11.316,2.909,2.909,0,0,1-1.9,1.055h0ZM148.383,82.3q-1.02.949-.774,1.3,0.175,0.211,1.336-.492a22.03,22.03,0,0,0,6.293-6.469q0.774-1.125,1.231-1.055a1,1,0,0,0,.633-0.246A1.771,1.771,0,0,0,155.59,74a0.916,0.916,0,0,0-1.477.492,23.022,23.022,0,0,1-5.73,7.8h0Zm21.234-7.066a17.911,17.911,0,0,1,5.977,7.313,2.647,2.647,0,0,0,.668.809,0.936,0.936,0,0,0,1.336-.527,2.135,2.135,0,0,0-.246-1.793,20.058,20.058,0,0,0-7.383-6.609q-0.949-.422-1.231-0.035-0.141.282,0.879,0.844h0Zm71.156-20.285a2.914,2.914,0,0,0,.317.6,11.916,11.916,0,0,1,.211,3.164,0.543,0.543,0,0,1-.528.6l-0.7.07a1.917,1.917,0,0,1-.773,0,0.813,0.813,0,0,1-.176-0.633,1.849,1.849,0,0,0-.035-1.336,0.684,0.684,0,0,0-.668-0.457q-0.246,0,0,.773a3.26,3.26,0,0,1-.07,1.617,2.1,2.1,0,0,0-.246.844q0.28,0.633.738,0.352a4.5,4.5,0,0,1,1.793-.6,0.627,0.627,0,0,1,.7.668v0.773a0.542,0.542,0,0,1-.527.6q-1.232.105-2.461,0.281a2.156,2.156,0,0,1-.668.035q-0.669-.281-0.879.105a1.279,1.279,0,0,0,.6.527,1.225,1.225,0,0,0,.668.176,26.733,26.733,0,0,1,4.641-.6,12.959,12.959,0,0,1,3.27.035,2.442,2.442,0,0,0,.738.141q0.456-.456-0.035-0.738a1.5,1.5,0,0,0-1.336-.316,10.761,10.761,0,0,1-2.672.211A0.518,0.518,0,0,1,242,61.313V60.4a0.543,0.543,0,0,1,.527-0.6,5.812,5.812,0,0,1,.879-0.07q0.633,0,.668.387,0.035,0.493.422,0.316a1.829,1.829,0,0,0,.352-1.406,5.778,5.778,0,0,1,.316-1.863,0.422,0.422,0,0,0-.281-0.492,1.49,1.49,0,0,0-.774-0.176,1.573,1.573,0,0,0,.035.738,3.459,3.459,0,0,1,0,1.23,0.605,0.605,0,0,1-.6.668l-0.844.035a0.537,0.537,0,0,1-.668-0.527,12.337,12.337,0,0,1,.176-2.988A0.556,0.556,0,0,0,242,55.02a0.957,0.957,0,0,0-1.055-.316,0.446,0.446,0,0,0-.176.246h0Zm2.883,11.18a4.166,4.166,0,0,1-.914,1.266,1.015,1.015,0,0,1-1.195.281l-2.531-1.09a2.489,2.489,0,0,0-.774-0.176q-0.141.071,0.668,0.527l2,1.09q0.668,0.387.106,0.773a24.872,24.872,0,0,1-3.305,2.039,1.094,1.094,0,0,0-.6.457,12.477,12.477,0,0,0,4.571-2.109,0.935,0.935,0,0,1,1.16.035l0.668,0.492a10.636,10.636,0,0,1,1.336,1.09q0.807,0.633,1.019-.352a2.639,2.639,0,0,0-.6-0.668,19.523,19.523,0,0,0-1.863-1.09q-0.562-.351-0.035-0.844l0.949-.949a2.206,2.206,0,0,0,.7-0.7,1.411,1.411,0,0,0-.457-0.633,0.551,0.551,0,0,0-.738-0.106,5.443,5.443,0,0,1-.176.668h0Zm-2.074,9.246a2.984,2.984,0,0,1-.7,1.828,15.483,15.483,0,0,1-3.129,4.148,0.872,0.872,0,0,0-.316,1.441,1.1,1.1,0,0,0,.843-0.07,18.9,18.9,0,0,1,7.524-.6q0.843-.176.14-0.773a1.923,1.923,0,0,0-1.441-.211q-2.778.422-5.309,0.6a0.48,0.48,0,0,1-.457-0.141,0.984,0.984,0,0,1,.317-0.633l3.375-4.57a3.718,3.718,0,0,0,.527-0.844,1.212,1.212,0,0,0-1.512-.984,3.25,3.25,0,0,0,.141.809h0ZM216.2,58.957a0.762,0.762,0,0,1-.879.844h-9.1a1.6,1.6,0,0,1-1.617-.457q-1.055-.527-1.055.527V74.953q0,1.09,1.371.984a1.328,1.328,0,0,0,.6-0.246,12.961,12.961,0,0,0,.07-1.9,0.762,0.762,0,0,1,.879-0.844h8.894a0.762,0.762,0,0,1,.844.879V84.34a0.854,0.854,0,0,0,.949,1.055,2.765,2.765,0,0,0,1.055-.246,4.978,4.978,0,0,0,.07-1.2V73.793a0.762,0.762,0,0,1,.879-0.844h9a0.762,0.762,0,0,1,.844.879v0.879q0,1.09,1.336.984,1.055,0,.7-1.266V62.578a0.954,0.954,0,0,1,.563-1.266,0.769,0.769,0,0,0,.668-0.492q0.21-.878-1.371-1.477a1.437,1.437,0,0,0-1.723-.105,2.284,2.284,0,0,1-1.512.563h-8.543a0.762,0.762,0,0,1-.844-0.879V55.371a1.54,1.54,0,0,1,.6-1.3q1.02-.527.352-1.2a4.755,4.755,0,0,0-1.969-.422,0.772,0.772,0,0,0-1.055.879v5.625Zm0,12.2a0.762,0.762,0,0,1-.879.844h-8.894a0.762,0.762,0,0,1-.844-0.879V61.559a0.762,0.762,0,0,1,.879-0.844h8.894a0.762,0.762,0,0,1,.844.879v9.562Zm12.8,0a0.762,0.762,0,0,1-.879.844h-9a0.762,0.762,0,0,1-.844-0.879V61.559a0.762,0.762,0,0,1,.879-0.844h9a0.762,0.762,0,0,1,.844.879v9.562ZM293.191,55.9a3.4,3.4,0,0,1-1.195,0,2.025,2.025,0,0,0-.773.035,1.432,1.432,0,0,0,.211.773,11.314,11.314,0,0,1,.281,4.5,1.814,1.814,0,0,0,.527,1.828q0.211,0.105.352-.246a1.049,1.049,0,0,0,.07-0.668l-0.352-5.379a1.305,1.305,0,0,1,.563-0.176q2.355-.351,4.992-0.633a0.877,0.877,0,0,1,.879.316,1.737,1.737,0,0,1,.106.984q-0.247,2.672-.387,5.309a0.808,0.808,0,0,0,.176.7c0.163,0.211.316,0.188,0.457-.07a1.465,1.465,0,0,0,.281-0.809,33.69,33.69,0,0,1,.351-5.66,3.87,3.87,0,0,0,.106-0.668,1.034,1.034,0,0,0-.774-0.773,3.748,3.748,0,0,0-1.265,0q-2.075.387-4.606,0.633h0Zm4.465,12.551-5.308.387-0.668-.07a1.967,1.967,0,0,0-.809-0.035q-0.105.071,0.211,0.492a1.616,1.616,0,0,0,1.371.527,15.744,15.744,0,0,1,3.867-.668h1.864q0.772,0.036,1.546.141,0.844,0.035.774-.562a1.042,1.042,0,0,0-.563-0.281,2.022,2.022,0,0,0-1.652,0Zm4.219,5.484q0.422,0.949,1.09.422a17.392,17.392,0,0,0,2.074-2.285,1.031,1.031,0,0,0,.281-0.738L302.3,73.266a0.616,0.616,0,0,0-.422.668h0Zm-6.293,1.055,0.035,0.352a2.464,2.464,0,0,1-.07.7,19.632,19.632,0,0,1-3.586,5.273,1.305,1.305,0,0,0-.633.914,1.261,1.261,0,0,0,.281.563,1.331,1.331,0,0,0,.844-0.106,19.91,19.91,0,0,1,6.891-.633,1.815,1.815,0,0,0,.6.035c0.282-.117.387-0.246,0.317-0.387a1.484,1.484,0,0,0-1.547-.6,40.825,40.825,0,0,1-5.2.6,1.579,1.579,0,0,1-.633-0.07A0.98,0.98,0,0,1,293.191,81q2.355-3.34,3.832-5.309a1.127,1.127,0,0,0-.773-1.09,0.957,0.957,0,0,0-.7-0.035,0.955,0.955,0,0,0,.035.422h0ZM282.328,54h-7.1a1.543,1.543,0,0,1-1.442-.352q-1.055-.6-1.055.457v6.4q-0.071,5.661-.281,7.664a44.182,44.182,0,0,1-1.019,5.625q-1.371,6.61-8.227,10.688-0.915.562-.633,1.019a1.894,1.894,0,0,0,1.3-.352q8.051-3.9,9.914-11.707a1.167,1.167,0,0,1,1.125-1.055h7.945a0.762,0.762,0,0,1,.844.879v8.4q0.141,1.617-1.652,1.266a7.778,7.778,0,0,0-1.266-.176q-1.055-.176-1.16.211-0.036.386,1.02,0.738a2.018,2.018,0,0,1,1.582,1.336q0.175,0.527,1.23.316a2.967,2.967,0,0,0,2.32-1.969V56.637a0.958,0.958,0,0,1,.563-1.02q1.125-.738-0.668-1.863a1.364,1.364,0,0,0-1.793-.316,2.419,2.419,0,0,1-1.547.563h0ZM256.1,75.8a0.915,0.915,0,0,0,1.019,1.09,2,2,0,0,0,.984-0.387,14.661,14.661,0,0,0,.071-2,0.762,0.762,0,0,1,.879-0.844h5.379a0.762,0.762,0,0,1,.843.879V75.41q0,1.09,1.371,1.019a1.02,1.02,0,0,0,.668-1.477V57.41a0.857,0.857,0,0,1,.6-0.984q1.968-.738-0.246-2.426-1.055-1.055-1.9-.211a2.358,2.358,0,0,1-1.653.809h-5.1a1.778,1.778,0,0,1-1.829-.809q-1.089-.808-1.089.246V75.8ZM283.7,61.77a0.762,0.762,0,0,1-.879.844h-7.172a0.761,0.761,0,0,1-.843-0.879V55.793a0.761,0.761,0,0,1,.879-0.844h7.171a0.762,0.762,0,0,1,.844.879V61.77Zm-18.422,1.09a0.762,0.762,0,0,1-.879.844H259.02a0.762,0.762,0,0,1-.844-0.879V56.356a0.762,0.762,0,0,1,.879-0.844H264.5a0.771,0.771,0,0,1,.773.949v6.4Zm18.422,7.77a0.762,0.762,0,0,1-.879.844h-7.734a0.682,0.682,0,0,1-.774-0.844q0.282-2.249.422-6.047a0.918,0.918,0,0,1,.914-1.055h7.207a0.762,0.762,0,0,1,.844.879v6.223Zm-18.422,1.23a0.762,0.762,0,0,1-.879.844H259.02a0.762,0.762,0,0,1-.844-0.879V65.5a0.762,0.762,0,0,1,.879-0.844H264.5a0.771,0.771,0,0,1,.773.949v6.258Zm83.848-13.254a4.9,4.9,0,0,1-.457,2.742,0.836,0.836,0,0,1-.773.668l-2.848.141q-0.7.106-.492,0.422a1.128,1.128,0,0,0,1.371.387q0.808-.211,1.652-0.351,0.633-.07.457,0.492a9.692,9.692,0,0,1-1.3,2.5,1.1,1.1,0,0,0-.211.6,0.842,0.842,0,0,0,.985.668,7.163,7.163,0,0,1,1.336-.352l2.531-.387a0.843,0.843,0,0,1,.879.457l0.422,0.527q0.245,0.246.422,0.07,0.456-.7-0.844-2.074a2.648,2.648,0,0,0-1.371-1.02,1.387,1.387,0,0,0,.316.809q0.387,0.633-.176.738-1.406.246-2.812,0.422-0.633.105-.668-0.352a3.47,3.47,0,0,1,.316-0.773q0.351-.914.774-1.793a0.97,0.97,0,0,1,.808-0.7,13.689,13.689,0,0,1,4.289,0,2.756,2.756,0,0,0,.739.07q0.421-.386-0.035-0.668a1.292,1.292,0,0,0-1.336-.211q-1.653.176-3.34,0.281-0.633.035-.422-0.492a19.068,19.068,0,0,0,.844-2.461,0.892,0.892,0,0,0-.141-0.809,0.725,0.725,0,0,0-.914-0.281,1.642,1.642,0,0,0,0,.738h0Zm8.121,11.777q0.738,0.949,1.442-.422l1.371-2.637a1.234,1.234,0,0,0,.1-0.668,0.542,0.542,0,0,0-.246.141q-0.669.738-1.406,1.477a0.934,0.934,0,0,1-1.336,0l-1.125-1.16q-0.6-.527-0.6-0.352ZM351.938,73.9l-5.309.352a3.227,3.227,0,0,1-1.266-.035,2.025,2.025,0,0,0-.773.035,0.723,0.723,0,0,0,.316.527,2.052,2.052,0,0,0,1.055.422,18.857,18.857,0,0,0,2-.387q1.335-.175,2.672-0.246h1.687l1.512,0.07a0.759,0.759,0,0,0,.668-0.07q0.28-.176.141-0.352a1.155,1.155,0,0,0-.563-0.387,2.722,2.722,0,0,0-1.477-.07,1.041,1.041,0,0,1-.667.141h0ZM329.121,54.7a0.762,0.762,0,0,1-.879.844H326.8a2.655,2.655,0,0,1-1.266-.281q-1.055-.527-1.055.527v6.82q0,0.844-.984.07a1.217,1.217,0,0,0-1.687-.211q-0.74.6-.739-0.317V56.672a1.062,1.062,0,0,1,.7-1.441,1.129,1.129,0,0,0,.6-0.527,2.187,2.187,0,0,0-1.336-1.266,1.474,1.474,0,0,0-1.758-.246,2.281,2.281,0,0,1-1.511.563h-3.34a1.484,1.484,0,0,1-1.547-.457q-1.055-.6-1.055.457v8.4q0,0.844-.527.844a0.563,0.563,0,0,1-.527-0.633,0.509,0.509,0,0,0-.422-0.527q-0.317.036-.422,1.09a9.509,9.509,0,0,1-1.653,3.3,0.72,0.72,0,0,0,.282.879,0.871,0.871,0,0,0,.984.07A3.026,3.026,0,0,0,310.664,65a1.032,1.032,0,0,1,1.02-1.055h9.07q0.738,0,.6.984l-0.106.316A2.5,2.5,0,0,0,321,66.481l0.352,0.246a5.093,5.093,0,0,0,1.125-1.055q0.807-1.16,1.476-.914,0.528,0,.527.949a0.854,0.854,0,0,0,.95,1.02,2.2,2.2,0,0,0,1.019-.352,1.592,1.592,0,0,0,.071-0.6q0-.422.878-0.422h9.879q0.844,0,.844.6,0,0.633.563,0.527,0.385-.035-0.176.773a1.549,1.549,0,0,1-1.336.7H324.164q-1.02,0-.879.527a1.2,1.2,0,0,0,1.195.387h15.891a1.012,1.012,0,0,0,1.125-.492,1.89,1.89,0,0,0-.773-1.231,2.287,2.287,0,0,1-.563-1.687v-7.1a0.953,0.953,0,0,1,.809-1.336,0.728,0.728,0,0,0,.351-1.09l-1.265-.773a1.463,1.463,0,0,0-1.723-.176,2.528,2.528,0,0,1-1.687.563q-0.986,0-.985-0.527a1.409,1.409,0,0,1,.281-0.844Q337,53.3,336.5,52.84a17.129,17.129,0,0,0-1.828-.387,0.811,0.811,0,0,0-1.055.914V54.7a0.762,0.762,0,0,1-.879.844H332q-0.845,0-.844-0.527a1.447,1.447,0,0,1,.317-0.879,6.822,6.822,0,0,0,.7-0.914,0.945,0.945,0,0,0-1.02-.6l-1.019-.176a0.781,0.781,0,0,0-1.02.914V54.7ZM319,56.813a0.832,0.832,0,0,1-1.019.844,2.641,2.641,0,0,1-1.372-.316q-1.055-.6-1.054.457v4.359a0.762,0.762,0,0,1-.879.844,0.747,0.747,0,0,1-.809-0.879V55.512a0.762,0.762,0,0,1,.879-0.844h3.446a0.765,0.765,0,0,1,.808.914v1.23Zm10.125,2.25a0.762,0.762,0,0,1-.879.844h-0.879a0.761,0.761,0,0,1-.843-0.879V57.34A0.761,0.761,0,0,1,327.4,56.5h0.879a0.762,0.762,0,0,1,.844.879v1.688Zm4.5,0a0.762,0.762,0,0,1-.879.844H332a0.762,0.762,0,0,1-.844-0.879V57.34a0.762,0.762,0,0,1,.879-0.844h0.738a0.762,0.762,0,0,1,.844.879v1.688Zm4.5,0a0.762,0.762,0,0,1-.879.844H336.5a0.762,0.762,0,0,1-.844-0.879V57.34a0.762,0.762,0,0,1,.879-0.844h0.738a0.762,0.762,0,0,1,.844.879v1.688ZM319,62.156a0.731,0.731,0,0,1-.808.844,0.721,0.721,0,0,1-.739-0.879V59.449a0.731,0.731,0,0,1,.809-0.844,0.721,0.721,0,0,1,.738.879v2.672Zm10.125,1.406a0.762,0.762,0,0,1-.879.844h-0.879a0.761,0.761,0,0,1-.843-0.879V61.7a0.761,0.761,0,0,1,.878-0.844h0.914a0.765,0.765,0,0,1,.809.914v1.793Zm4.5,0a0.762,0.762,0,0,1-.879.844H332a0.762,0.762,0,0,1-.844-0.879V61.7a0.762,0.762,0,0,1,.879-0.844h0.773a0.765,0.765,0,0,1,.809.914v1.793Zm4.5,0a0.762,0.762,0,0,1-.879.844H336.5a0.762,0.762,0,0,1-.844-0.879V61.7a0.762,0.762,0,0,1,.879-0.844h0.773a0.765,0.765,0,0,1,.809.914v1.793Zm-26.3,21.094q0,1.089,1.371.984,1.02-.211.668-1.406V78.293a0.762,0.762,0,0,1,.879-0.844h3.129a0.762,0.762,0,0,1,.844.879v3.8q0.317,1.582-1.3,1.09-0.949-.176-1.019.352a0.546,0.546,0,0,0,.421.563,1.58,1.58,0,0,1,1.09,1.16q0.106,0.456,1.371.176a1.754,1.754,0,0,0,1.477-1.652V70.1a1.081,1.081,0,0,1,.316-1.02q1.546-.773-0.281-1.828-1.125-.914-1.617-0.457a1.888,1.888,0,0,1-1.336.457H314.5a1.6,1.6,0,0,1-1.617-.457q-1.055-.562-1.055.492V84.656Zm6.891-13.641a0.762,0.762,0,0,1-.879.844h-3.129a0.762,0.762,0,0,1-.844-0.879V69.012a0.762,0.762,0,0,1,.879-0.844h3.2a0.771,0.771,0,0,1,.774.949v1.9Zm6.469,6.891a0.87,0.87,0,0,0,.949,1.055q1.442,0,1.09-1.09c0-.375.292-0.562,0.879-0.562h8.332a0.716,0.716,0,0,1,.843.773q0,0.738,1.02.7a1.046,1.046,0,0,0,1.019-1.231V74.18a1.182,1.182,0,0,1,.493-1.125q1.123-1.089-.528-1.723a1.255,1.255,0,0,0-1.547-.211,2.055,2.055,0,0,1-1.406.492h-8.473a1.6,1.6,0,0,1-1.617-.457q-1.054-.527-1.054.527v6.223Zm12.093-2.391a0.762,0.762,0,0,1-.879.844h-8.332a0.761,0.761,0,0,1-.843-0.879V73.371a0.761,0.761,0,0,1,.879-0.844h8.332a0.762,0.762,0,0,1,.843.879v2.109Zm-18.562.141a0.762,0.762,0,0,1-.879.844h-3.129a0.762,0.762,0,0,1-.844-0.879V73.652a0.762,0.762,0,0,1,.879-0.844h3.164a0.765,0.765,0,0,1,.809.914v1.933Zm15.293,7a1.379,1.379,0,0,1-1.266,1.055H323.18q-1.02,0-.879.527a1.2,1.2,0,0,0,1.195.387h17.016a0.977,0.977,0,0,0,1.09-.492,2.492,2.492,0,0,0-.95-1.477q-0.984-1.02-1.722,0a2.106,2.106,0,0,1-1.618,1.055h-1.757q-0.844,0-.211-0.879l0.844-1.3q0.7-1.336,1.265-1.266a0.583,0.583,0,0,0,.527-0.562,0.8,0.8,0,0,0-.949-0.633l-1.054-.211a0.891,0.891,0,0,0-1.161.914,17.237,17.237,0,0,1-.808,2.883h0Zm-6.047-2a11.318,11.318,0,0,1,.246,1.969,1.1,1.1,0,0,0,.844.633,0.941,0.941,0,0,0,1.054-.809q0.423-1.126-1.125-2.637-1.055-.773-1.3-0.527t0.281,1.371h0ZM186.492,121.324a3.843,3.843,0,0,1,.422,1.864v2.039a0.445,0.445,0,0,1,0,.246,0.556,0.556,0,0,1-.527.7l-0.809.105a1.259,1.259,0,0,1-.6,0,0.437,0.437,0,0,1-.21-0.246,5.672,5.672,0,0,1,.07-1.476,0.952,0.952,0,0,0-.879-1.055,1.039,1.039,0,0,0,.1.738,5.37,5.37,0,0,1-.14,2.11,1.008,1.008,0,0,0-.176.668c0.117,0.328.258,0.469,0.422,0.421a1.386,1.386,0,0,0,.738-0.281,6.169,6.169,0,0,1,1.406-.351c0.445-.023.668,0.14,0.668,0.492v1.23a0.533,0.533,0,0,1-.562.6q-1.266.105-2.567,0.281a2.267,2.267,0,0,1-.667.035,1.678,1.678,0,0,0-.739,0,0.258,0.258,0,0,0,.071.352,1.684,1.684,0,0,0,1.546.387,37.364,37.364,0,0,1,5.028-.6h1.687a4.679,4.679,0,0,1,.914.141,1.522,1.522,0,0,0,.739.07,0.336,0.336,0,0,0,.211-0.387,1.248,1.248,0,0,0-1.512-.6,13.487,13.487,0,0,1-2.848.176q-0.667.036-.668-0.492v-1.3a0.52,0.52,0,0,1,.6-0.527l0.914-.035q0.633-.034.633,0.211,0.1,0.7.492,0.351a1.129,1.129,0,0,0,.281-0.879,10.607,10.607,0,0,1,.281-2.5q0.246-.492-0.527-0.808-0.492-.175-0.527.07a5.061,5.061,0,0,0,.1.773,12.04,12.04,0,0,1-.035,1.583,0.5,0.5,0,0,1-.562.527l-0.985.07a0.527,0.527,0,0,1-.633-0.633q0-1.23.071-2.39a3.238,3.238,0,0,1,.07-0.7,0.853,0.853,0,0,0-.387-1.266,0.774,0.774,0,0,0-.808-0.035,0.241,0.241,0,0,0-.106.316h0Zm7.629,9.809a25.747,25.747,0,0,0,3.41,2.285,2.023,2.023,0,0,0-.351-0.7q-1.02-1.3-2.075-2.531a0.573,0.573,0,0,0-.984-0.071,0.6,0.6,0,0,0,0,1.02h0Zm-5.73,5.1a0.706,0.706,0,0,1-1.055.282q-1.476-.984-2.6-1.653a1.155,1.155,0,0,0-.738-0.246q-0.141.072,0.633,0.739a24.537,24.537,0,0,1,2,1.546,0.657,0.657,0,0,1,.14,1.09,26.265,26.265,0,0,1-3.585,2.953q-0.669.458-.458,0.493a2.462,2.462,0,0,0,.528-0.141,12.439,12.439,0,0,0,4.008-2.707,0.874,0.874,0,0,1,1.3-.035,19.292,19.292,0,0,1,1.829,1.863q0.666,1.02,1.195.668a0.655,0.655,0,0,0,.07-1.02,15.653,15.653,0,0,0-2.531-2.214,0.688,0.688,0,0,1-.07-1.16l0.492-.668q0.633-.915.984-1.336,0.633-.562.246-0.985a1.379,1.379,0,0,0-.879-0.6,1.442,1.442,0,0,0-.281.7,6.093,6.093,0,0,1-1.23,2.425h0ZM166,122.766a0.761,0.761,0,0,1-.879.843H158.3q-0.95,0-.809.563a1.108,1.108,0,0,0,1.16.387h6.5a0.762,0.762,0,0,1,.844.879v7.874a0.762,0.762,0,0,1-.879.844h-5.836q-0.95,0-.808.563a1.107,1.107,0,0,0,1.16.386h5.519a0.762,0.762,0,0,1,.844.879v9.282a0.761,0.761,0,0,1-.879.843h-9.633q-0.948,0-.808.563a1.107,1.107,0,0,0,1.16.387H178.09a1.221,1.221,0,0,0,1.23-.528q0.176-.458-1.125-1.476l-0.351-.282a1.477,1.477,0,0,0-2.145.282,2.91,2.91,0,0,1-1.9,1.054h-4.922a0.762,0.762,0,0,1-.844-0.879v-9.281a0.762,0.762,0,0,1,.879-0.844h6.4a1.17,1.17,0,0,0,1.2-.492,1,1,0,0,0,.14-0.527l-1.617-1.266a1.476,1.476,0,0,0-2.144.282,2.91,2.91,0,0,1-1.9,1.054h-2.109a0.762,0.762,0,0,1-.844-0.879V125.4a0.761,0.761,0,0,1,.879-0.843h8.051a1.221,1.221,0,0,0,1.23-.528q0.176-.456-1.125-1.511l-0.351-.247a1.478,1.478,0,0,0-2.145.282,2.91,2.91,0,0,1-1.9,1.054h-3.8a0.761,0.761,0,0,1-.844-0.879v-3.761a2.415,2.415,0,0,1,.563-1.547,1.273,1.273,0,0,0,.351-0.914,1.479,1.479,0,0,0-.879-0.317l-1.054-.175a0.793,0.793,0,0,0-1.02.914v5.836Zm-15.68-5.45a9.1,9.1,0,0,1,2,3.516q0.528,1.512,1.758.633,0.772-1.125-.668-2.813a13.059,13.059,0,0,0-2.637-2.214q-0.984-.492-1.23-0.176c-0.118.164,0.141,0.516,0.773,1.054h0Zm0.071,19.582a2.451,2.451,0,0,1-1.828,1.582,2.569,2.569,0,0,1-.7.176q-1.054.141-1.089,0.528-0.036.351,1.019,0.457l0.7,0.105a1.687,1.687,0,0,1,1.371,1.055,10.76,10.76,0,0,1,.141,2.672,12.15,12.15,0,0,0,.141,3.937q0.7,1.512,1.828.809a3.13,3.13,0,0,0,.527-2.707,30.779,30.779,0,0,1-1.23-5.625,55,55,0,0,1,1.722-5.625q1.758-5.413,3.621-10.828,0.316-.984-0.175-1.2-0.316-.1-0.739.985Zm-2.567-10.476a12.184,12.184,0,0,1,1.934,3.516,0.779,0.779,0,0,0,.633.738,0.768,0.768,0,0,0,1.054-.246q0.633-1.337-.808-2.918a9.752,9.752,0,0,0-2.426-2.039q-0.949-.562-1.23-0.176-0.141.246,0.843,1.125h0Zm96.153-.7-4.114.281a11.335,11.335,0,0,1-2.671.035,2.064,2.064,0,0,0-.739.07,1.845,1.845,0,0,0,1.477.915,22.118,22.118,0,0,1,7-.6,2.888,2.888,0,0,0,1.547-.035c0.14-.117.176-0.223,0.105-0.317a1.233,1.233,0,0,0-1.16-.527,1.169,1.169,0,0,0-.738-0.035,5.686,5.686,0,0,1-.7.211h0Zm-4.852,7.593a7.844,7.844,0,0,1-1.2,3.657,0.883,0.883,0,0,0-.492,1.125,0.294,0.294,0,0,0,.351.211,1.119,1.119,0,0,0,.809-0.387,5.864,5.864,0,0,1,1.336-.281,34.213,34.213,0,0,1,3.972-.352,1.223,1.223,0,0,1,.914.211,0.676,0.676,0,0,1,.036.633,23.457,23.457,0,0,1-1.3,3.2q-0.352.563,0.035,0.633a3.851,3.851,0,0,0,1.371-1.758q0.422-.984.914-2a1.293,1.293,0,0,0,0-1.3,0.744,0.744,0,0,0-.633-0.351l-1.336.141a17.706,17.706,0,0,0-4.464.421,2.123,2.123,0,0,1-.633.036,1.268,1.268,0,0,1,.246-0.7,28.25,28.25,0,0,0,1.09-2.671,0.516,0.516,0,0,0-.352-0.809,1.133,1.133,0,0,0-.773-0.106,1.041,1.041,0,0,0,.105.457h0Zm-23.414-14.449a0.762,0.762,0,0,1-.879.844H203.543q-1.02,0-.879.527a1.2,1.2,0,0,0,1.2.387h25.875a1.211,1.211,0,0,0,1.231-.492q0.21-.456-1.09-1.512l-0.352-.281a1.5,1.5,0,0,0-2.144.316,2.912,2.912,0,0,1-1.9,1.055h-6.89a0.832,0.832,0,0,1-.844-1.019q-0.282-1.02,1.02-2.321a0.923,0.923,0,0,0-1.02-.562,4.846,4.846,0,0,0-.984-0.176,0.772,0.772,0,0,0-1.055.879v2.355Zm4.711,8.789a1.707,1.707,0,0,1-1.441,1.055h-16.84q-0.95,0-.844.527a1.105,1.105,0,0,0,1.16.387H232.02a1.21,1.21,0,0,0,1.23-.492,1.014,1.014,0,0,0,.141-0.527l-1.618-1.266a1.5,1.5,0,0,0-2.144.316,2.912,2.912,0,0,1-1.9,1.055h-5.906q-0.843,0-.14-0.949a30.167,30.167,0,0,0,2.039-3.164,2.274,2.274,0,0,1,1.019-1.16q0.984-.211.563-0.844a1.537,1.537,0,0,0-.844-0.387l-1.055-.281a0.92,0.92,0,0,0-1.265.808,21.409,21.409,0,0,1-1.723,4.922h0Zm-10.688-3.937a11.41,11.41,0,0,1,1.055,3.164q0.281,1.548,1.442,1.019a1.747,1.747,0,0,0,.351-2.179,9.2,9.2,0,0,0-2.074-2.742q-1.054-.809-1.3-0.563t0.527,1.3h0Zm13.114,9.633H209.73a2.647,2.647,0,0,1-1.265-.282q-1.054-.561-1.055.493v13.886a1.7,1.7,0,0,0,.176,1.125,2.881,2.881,0,0,0,1.793-.316,2.953,2.953,0,0,0,.07-0.879,0.721,0.721,0,0,1,.879-0.738H223.3a0.832,0.832,0,0,1,.844,1.019,0.824,0.824,0,0,0,1.054.914,1.057,1.057,0,0,0,.985-1.23V136.16a0.9,0.9,0,0,1,.632-1.3q0.739-.245.633-0.738a2.924,2.924,0,0,0-1.23-1.125,1.586,1.586,0,0,0-1.934-.141,2.191,2.191,0,0,1-1.441.493h0Zm1.3,5.168a0.762,0.762,0,0,1-.879.843H210.293a0.761,0.761,0,0,1-.844-0.879V135.1a0.761,0.761,0,0,1,.879-0.843H223.3a0.762,0.762,0,0,1,.844.879v3.375Zm0,6.363a0.763,0.763,0,0,1-.879.844H210.293a0.762,0.762,0,0,1-.844-0.879v-3.692a0.761,0.761,0,0,1,.879-0.843h13.043a0.771,0.771,0,0,1,.774.949v3.621Z"/>
</svg>
