<svg xmlns="http://www.w3.org/2000/svg" width="1540" height="1450" viewBox="0 0 1540 1450">
  <defs>
    <style>
      .cls-1 {
        fill: #fff;
      }

      .cls-1, .cls-2, .cls-3 {
        stroke: #000;
        stroke-width: 1px;
        fill-rule: evenodd;
      }

      .cls-2 {
        fill: #fefefe;
      }

      .cls-3 {
        fill: #fdfdfd;
      }
    </style>
  </defs>
  <path id="字体名称" class="cls-1" d="M357.412,197.334h-75.2v87.4h12.6v-12.6h62.6v87.6h12.4v-87.6h62.4v12.6h12.6v-75h12.6v-12.4h-12.6v-12.6h-12.6v12.6h-62.4v-37.6h-12.4v37.6Zm0,62.4h-62.6v-50h62.6v50Zm74.8,0h-62.4v-50h62.4v50Zm112.6-87.6h12.6v25.2h-87.6v12.4h37.6v12.4h12.4v25.2h12.4v24.8h12.6v12.6h12.6v12.6h-12.6v12.4h-12.6v12.4h-12.4v12.6h-25v12.6h-25v12.4h25v-12.4h25v-12.6h12.4v-12.6h12.6v-12.4h12.6v-12.4h12.4v12.4h12.4v12.4h25.2v12.6h12.4v12.6h12.4v12.4h12.6v-12.4h12.6v-12.6h-37.6v-12.6h-12.4v-12.4h-25.2v-12.4h-12.4v-12.6h12.4v-12.6h12.6v-12.4h12.6v-25h12.4v-25h37.6v-12.4h-12.6v-12.6h-12.6v12.6h-62.4v-25.2h-12.4v-12.4h-12.6v12.4Zm62.6,62.6h-12.6v25h-12.6v12.4h-12.4v12.6h-12.4v-12.6h-12.6v-24.8h-12.6v-25.2h-12.4v-12.4h87.6v25Zm112.4-37.4h-12.4v24.8h-12.6v12.6h-12.6v12.6h-12.4v12.4h12.4v-12.4h12.6v-12.6h12.6v125h12.4v-137.6h12.4v12.6h37.6v12.6h-12.4v12.4h-25.2v12.4h25.2v-12.4h12.4v-12.4h12.4v24.8h-12.4v12.6h-37.6v12.6h37.6v-12.6h12.4v-12.6h12.6v25.2h-12.6v12.4h-24.8v12.4h-25.2v12.6h25.2v-12.6h24.8v-12.4h12.6v37.6h-12.6v-12.6h-12.4v12.6h12.4v12.4h12.6v-12.4h12.6v-50h12.4v12.4h12.4v12.4h25.2v-12.4h-25.2v-12.4h-12.4v-25.2h12.4v-12.4h12.6v-12.4h-12.6v12.4h-12.4v12.4h-12.4v-12.4h-12.6v-12.4h-12.6v-12.6h62.6v-25h12.6v-12.4h-12.6v-12.6h-12.6v12.6h-24.8v-12.6h12.4v-12.6h-50v-12.4h-12.4v25h-12.6v12.6h-12.6v-37.6h-12.4v37.6Zm75,0h-37.4v-12.6h37.4v12.6Zm-62.6,12.4h-12.4v-12.4h12.4v12.4Zm50,12.4h-37.4v-12.4h37.4v12.4Zm50,0h-37.4v-12.4h37.4v12.4Zm125.2-37.4h-75.2v12.6h75.2v12.4h-62.6v12.4h62.6v12.6h-87.6v12.6h62.4v12.4h-24.8v12.4h50v12.6h-12.6v12.6h-37.4v12.4h50v37.6h-12.6v-12.6h-12.6v-12.6h-12.4v12.6h-12.4v12.6h-12.6v12.4h12.6v-12.4h12.4v-12.6h12.4v12.6h12.6v12.4h12.6v-12.4h12.4v-37.6h50v-12.4h-12.4v-12.6h-12.6v12.6h-37.4v-12.6h12.4v-12.6h25v-12.4h12.6v-12.4h50v-12.6h-87.6v-12.6h62.4v-12.4h-62.4v-12.4h75v-12.6h-12.6v-12.6h-12.4v12.6h-50v-25h-12.4v25Zm37.4,75h-50v-12.4h50v12.4Zm0,75h12.6v12.6h12.4v12.4h12.4v-25h-24.8v-12.6h-12.6v12.6Zm112.6-137.4h-12.6v24.8h-12.6v12.6h-12.4v12.6h12.4v-12.6h12.6v125h12.6v-50h12.4v-12.4h12.4v-25.2h12.6v-24.8h12.6v-25.2h12.4v62.6h-25v12.6h25v62.4h12.4v-62.4h25.2v-12.6h-25.2v-62.6h12.6v25.2h12.6v24.8h12.4v25.2h12.4v12.4h12.6v-12.4h12.6v-12.6h-25.2v-12.6h-12.4v-24.8h-12.4v-25.2h37.4v-12.4h-12.6v-12.4h-12.4v12.4h-37.6v-50h-12.4v50h-50v12.4h25v25.2h-12.6v24.8h-12.4v25.2h-12.4v-100h12.4v-37.6h-12.4v37.6Z"/>
  <path id="中文示例" class="cls-2" d="M334.747,723.137h-31.2v68.8h-6.2v12.5h-6.3v6.3h-6.3v6.2h6.3v-6.2h6.3v-6.3h6.2v-12.5h6.2v-12.5h25v31.3h-6.2v-6.3h-6.2v6.3h6.2v6.2h6.2v-6.2h6.3v-81.3h6.3v-6.3h-6.3v-6.2h-6.3v6.2Zm0,25h-25v-18.7h25v18.7Zm0,25h-25v-18.7h25v18.7Zm-50-43.7h-25v62.5h6.3v-6.2h18.7v6.2h6.3v-56.2h6.3v-6.3h-6.3v-6.3h-6.3v6.3Zm0,25h-18.7v-18.7h18.7v18.7Zm0,25h-18.7v-18.7h18.7v18.7Zm137.6-56.3h-43.8v68.8h-6.2v12.5h-6.3v6.3h-6.3v6.2h6.3v-6.2h6.3v-6.3h6.2v-12.5h6.2v-12.5h37.6v31.3h-6.3v-6.3h-6.3v6.3h6.3v6.2h6.3v-6.2h6.2v-81.3h6.2v-6.3h-6.2v-6.2h-6.2v6.2Zm0,25h-37.6v-18.7h37.6v18.7Zm0,25h-37.6v-18.7h37.6v18.7Zm75-18.7h-25v-25h-6.3v37.5h6.3v-6.2h25v43.7h-31.3v-31.3h-6.3v43.8h6.3v-6.2h68.7v6.2h6.3v-43.8h-6.3v31.3h-31.2v-43.7h25v6.2h6.2v-37.5h-6.2v25h-25v-37.5h-6.2v37.5Zm131.2-31.3h-68.8v6.3h37.6v25h-43.8v6.3h43.8v6.2h-6.3v12.5h-6.3v12.5h-6.2v6.2h-6.2v6.3h-6.3v6.3h-12.5v6.2h12.5v-6.2h6.3v-6.3h6.2v-6.3h6.2v-6.2h6.3v-12.5h6.3v-12.5h6.2v12.5h6.2v12.5h6.3v6.2h6.3v6.3h6.2v6.3h6.2v6.2h6.3v-6.2h6.3v-6.3h-18.8v-6.3h-6.2v-6.2h-6.3v-12.5h-6.3v-12.5h-6.2v-6.2h43.8v-6.3h-6.3v-6.3h-6.3v6.3h-31.2v-25h37.5v-6.3h-6.3v-6.2h-6.2v6.2Zm68.8,75h-31.3v-56.2h-6.3v68.8h6.3v-6.3h68.7v6.3h6.3v-68.8h-6.3v56.2h-31.2v-81.2h-6.2v81.2Zm127.4-68.7h-31.2v6.3h31.2v6.2h6.3v-6.2h18.7v6.2h6.3v-6.2h31.3v-6.3h-6.3v-6.3h-6.3v6.3h-18.7v-12.5h-6.3v12.5h-18.7v-12.5h-6.3v12.5Zm12.6,18.7h-6.3v6.3h-6.3v6.3h-12.4v6.2h-12.6v6.2h-6.2v6.3h6.2v-6.3h12.6v-6.2h6.2v37.5h6.2v6.3h43.8v-18.8h-6.2v12.5h-37.6v-31.3h31.3v12.6h-6.3v-6.3h-6.2v6.3h6.2v6.2h6.3v-6.2h6.3v-18.8h6.2v6.2h6.2v6.3h6.3v-6.3h6.3v-6.2h-18.8v-6.2h-12.5v-6.3h-6.3v-6.3h-6.2v-6.2h-6.2v6.2Zm6.2,6.3h6.2v6.3h6.3v6.2h-31.3v-6.2h6.3v-6.3h6.3v-6.3h6.2v6.3Zm75-25h-25v6.3h25v6.2h6.2v-6.2h31.3v6.2h6.3v-6.2h25v-6.3h-6.3v-6.3h-6.3v6.3h-12.4v-12.5h-6.3v12.5h-31.3v-12.5h-6.2v12.5Zm-12.5,18.7h6.3v12.6h6.2v-12.6h-6.2v-6.2h-6.3v6.2Zm37.5,6.3h6.2v6.3h-25v6.2h12.6v43.8h43.7v-6.3h-6.3v-6.3h-6.2v6.3h-25v-37.5h43.8v-6.2h-6.3v-6.3h-6.3v6.3h-18.7v-6.3h-6.3v-6.3h-6.2v6.3Zm-50,6.3h6.2v12.4h6.3v-12.4h-6.3v-6.3h-6.2v6.3Zm25,18.7h-6.2v6.3h-18.8v6.2h12.5v25h6.3v-31.2h6.2v-6.3h6.2v-6.3h-6.2v6.3Zm137.5-50h-43.7v6.3h56.2v-6.3h-6.2v-6.3h-6.3v6.3Zm18.7,25h-81.2v6.3h37.5v12.4h-6.3v12.6h-6.2v12.4h-6.2v6.3h-6.3v6.3h62.5v6.2h6.2v-12.5h-6.2v-6.3h-6.2v-6.2h-6.3v6.2h6.3v6.3h-43.8v-6.3h6.2v-12.4h6.3v-12.6h6.3v-12.4h50v-6.3h-6.3v-6.3h-6.3v6.3Zm56.3-18.7h-6.3v6.2h-6.2v-12.5h-12.5v-6.3h-6.3v6.3h6.3v6.3h6.3v6.2h6.2v6.2h6.2v-6.2h6.3v25h-6.3v-6.2h-6.2v6.2h-6.2v6.2h-6.3v6.3h-12.5v6.3h12.5v31.2h6.3v-43.8h12.4v25h43.8v12.6h-6.2v-6.3h-6.3v6.3h6.3v6.2h6.2v-6.2h6.2v-12.6h6.3v-6.2h-6.3v-18.8h12.6v-6.2h-12.6v-25h-43.7v-6.2h50v-6.3h-6.3v-6.3h-6.2v6.3h-31.2v-12.5h-6.3v18.8Zm12.5,18.7h6.2v-6.3h18.8v18.8h-31.2v-18.8h6.2v6.3Zm0,25h6.2v-6.3h18.8v18.8h-37.5v-18.8h12.5v6.3Zm6.2-18.7h6.3v-6.3h-6.3v6.3Zm0,25h6.3v-6.3h-6.3v6.3Zm-56.2-37.6h6.2v6.3h6.3v6.3h6.3v-12.6h-12.6v-6.2h-6.2v6.2Zm112.5-25h6.3v6.3h6.2v6.3h6.2v-12.6h-12.4v-6.2h-6.3v6.2Zm68.7,0h-43.7v6.3h43.7v81.3h-6.2v-6.3h-6.2v-56.3h6.2v-6.2h-6.2v-6.2h-6.3v6.2h-37.5v62.5h6.2v-6.3h31.3v6.3h6.3v6.3h6.2v6.2h6.2v-6.2h6.3v-81.3h6.3v-6.3h-6.3v-6.2h-6.3v6.2Zm-18.7,43.8h-31.3v-18.8h31.3v18.8Zm0,25h-31.3v-18.8h31.3v18.8Zm-56.3,25h6.3v-81.2h-6.3v81.2Zm-921.2,118.8h-25v6.2h25v50h6.2v-6.2h12.6v-6.3h6.2v-6.3h-6.2v6.3h-12.6v-37.5h12.6v12.5h6.2v6.3h6.2v6.2h6.3v6.2h6.3v6.3h6.2v6.3h6.2v-6.3h6.3v-6.3h-18.7v-6.2h-6.3v-6.2h-6.3v-6.3h-6.2v-12.5h43.8v-6.2h-6.3v-6.3h-6.3v6.3h-50v-43.8h-6.2v43.8Zm43.8-31.3h-6.3v6.3h-6.3v6.2h-6.2v6.2h-6.2v6.3h6.2v-6.3h6.2v-6.2h6.3v-6.2h12.5v-12.6h-6.2v6.3Zm100-6.3h-56.3v81.3h-6.3v6.3h-6.2v6.2h6.2v-6.2h6.3v-6.3h12.5v-6.3h6.2v-6.2h6.3v-6.2h6.3v-12.6h6.2v12.6h6.2v12.4h6.3v-12.4h-6.3v-12.6h-6.2v-12.4h6.2v-12.6h6.3v-12.4h-6.3v12.4h-6.2v12.6h-6.2v-12.6h-6.3v-6.2h-6.3v-6.2h-6.2v6.2h6.2v6.2h6.3v12.6h6.3v12.4h-6.3v12.6h-6.3v6.2h-6.2v6.2h-6.2v-68.7h50v75h6.2v6.3h6.2v6.2h12.6v-18.8h-6.3v12.6h-6.3v-6.3h-6.2v-75h6.2v-6.3h-6.2v-6.2h-6.2v6.2Zm87.4,0h-31.2v75h-6.2v6.3h-6.3v6.3h-6.3v6.2h6.3v-6.2h6.3v-6.3h6.2v-6.3h6.2v-68.7h25v75h6.3v6.3h31.3v-18.8h-6.3v12.5h-25v-75h6.3v-6.3h-6.3v-6.2h-6.3v6.2Zm125,6.3h-81.2v6.3h37.5v37.4h-6.3v18.8h-6.2v6.2h-6.2v6.3h-6.3v6.3h-6.3v6.2h6.3v-6.2h6.3v-6.3h6.2v-6.3h6.2v-6.2h6.3v-18.8h6.3v-12.4h25v43.7h-6.3v6.3h-6.3v-6.3h-6.2v6.3h6.2v6.2h6.3v-6.2h6.3v-6.3h6.2v-43.7h6.2v-6.3h-6.2v-6.3h-6.2v6.3h-25v-18.7h50v-6.3h-6.3v-6.3h-6.3v6.3Zm93.8-6.3h-62.5v50h31.3v12.6h-37.6v6.2h37.6v12.5h-43.8v6.3h93.8v-6.3h-6.3v-6.3h-6.3v6.3h-31.2v-12.5h37.5v-6.2h-6.3v-6.3h-6.2v6.3h-25v-12.6h31.2v-43.7h6.3v-6.3h-6.3v-6.2h-6.2v6.2Zm-31.2,18.8h-25v-12.5h25v12.5Zm31.2,0h-25v-12.5h25v12.5Zm-31.2,25h-25v-18.8h25v18.8Zm31.2,0h-25v-18.8h25v18.8Zm115-25h-6.2v6.2h-6.3v6.3h6.3v-6.3h6.2v-6.2h31.2v6.2h-6.2v6.3h6.2v-6.3h6.3v-12.4h-31.3v-18.8h-6.2v25Zm-25-12.5h-18.8v68.7h6.3v-6.2h12.5v6.2h6.2v-62.4h6.3v-6.3h-6.3v-6.3h-6.2v6.3Zm0,56.3h-12.5v-50h12.5v50Zm31.2-6.3h-6.2v12.5h-6.2v6.2h-6.3v6.3h-6.3v6.3h-6.2v6.2h6.2v-6.2h6.3v-6.3h6.3v-6.3h6.2v-6.2h6.2v-12.5h6.3v12.5h6.3v6.2h6.2v12.6h6.2v6.2h6.3v-6.2h6.3v-6.3h-12.6v-6.3h-6.2v-6.2h-6.2v-12.5h-6.3v-31.3h-6.3v31.3Zm87.6-56.3h6.2v6.3h-37.5v68.7h-6.3v6.3h-6.2v6.3h6.2v-6.3h6.3v-6.3h6.3v-43.7h18.7v12.5h31.3v-12.5h18.7v-6.3h-6.3v-6.2h-6.2v6.2h-6.2v-12.4h25v-6.3h-6.3v-6.3h-6.3v6.3h-25v-6.3h-6.2v-6.2h-6.2v6.2Zm-6.3,25h-18.7v-12.4h18.7v12.4Zm25,0h-18.7v-12.4h18.7v12.4Zm0,12.6h-18.7v-6.3h18.7v6.3Zm-37.5,18.7h12.5v6.3h6.3v6.2h6.2v6.2h-12.5v6.3h-12.5v6.3h-12.5v6.2h12.5v-6.2h12.5v-6.3h12.5v-6.3h6.2v6.3h12.6v6.3h12.4v6.2h6.3v-6.2h6.3v-6.3h-25v-6.3h-12.6v-6.2h6.3v-6.2h6.3v-6.3h6.2v-6.3h-50v6.3Zm37.5,6.3h-6.3v6.2h-6.2v-6.2h-6.2v-6.3h18.7v6.3Zm112.5-62.6h-68.8v6.3h37.6v31.3h-31.3v6.2h31.3v37.5h-43.8v6.3h93.8v-6.3h-6.3v-6.3h-6.3v6.3h-31.2v-37.5h31.2v-6.2h-6.2v-6.3h-6.2v6.3h-18.8v-31.3h37.5v-6.3h-6.3v-6.2h-6.2v6.2Zm-18.8,62.6h6.3v6.2h6.3v6.2h6.2v-12.4h-12.5v-6.3h-6.3v6.3Zm56.3-62.6h6.3v6.3h6.2v6.3h6.2v-12.6h-12.4v-6.2h-6.3v6.2Zm68.7,0h-43.7v6.3h43.7v81.3h-6.2v-6.3h-6.2v6.3h6.2v6.2h6.2v-6.2h6.3v-81.3h6.3v-6.3h-6.3v-6.2h-6.3v6.2Zm-75,93.8h6.3v-87.5h-6.3v87.5Zm112.6-93.8h6.2v6.3h6.2v12.5h-25v6.2h37.6v18.8h-43.8v6.2h43.8v6.3h-6.3v12.5h-6.3v6.2h-6.2v6.3h-12.5v6.3h-12.5v6.2h12.5v-6.2h12.5v-6.3h6.2v-6.3h6.3v-6.2h6.3v-12.5h6.2v12.5h6.2v6.2h6.3v6.3h12.5v6.3h6.2v6.2h6.3v-6.2h6.3v-6.3h-18.8v-6.3h-12.5v-6.2h-6.3v-12.5h-6.2v-6.3h43.8v-6.2h-6.3v-6.2h-6.3v6.2h-31.2v-18.8h37.5v-6.2h-6.3v-6.2h-6.2v6.2h-12.5v-6.2h6.3v-6.3h12.4v-6.3h-6.2v-6.2h-6.2v12.5h-6.3v6.3h-6.3v6.2h-18.7v-12.5h-6.3v-6.3h-6.2v-6.2h-6.2v6.2Z"/>
  <path id="大写字母" class="cls-3" d="M233.712,477.39h-3.024v5.952h-2.976v6.048h-3.024v8.976h-2.976v8.976h-3.024v3.024h9.024v-3.024h-3.024V501.39h3.024v-3.024h12v3.024h2.976v5.952h-2.976v3.024h12v-3.024h-3.024v-8.976h-2.976V489.39h-3.024v-6.048h-2.976V477.39h-3.024v-3.024h-2.976v3.024Zm2.976,12h3.024v5.952h-12V489.39h2.976v-6.048h3.024v-2.976h2.976v9.024Zm25.2-12h3.024v29.952h-3.024v3.024h24v-3.024h6v-2.976h3.024v-9.024h-3.024v-2.976h-2.976v-6h2.976V477.39h-6v-3.024h-24v3.024Zm21.024,2.976h2.976v6h-2.976v3.024h-12v-12h12v2.976Zm2.976,14.976h3.024v9.024h-6v2.976h-12V492.366h14.976v2.976ZM315.6,477.39h-3.024v2.976H309.6v2.976h-2.976V501.39H309.6v2.976h2.976v2.976H315.6v3.024h15.024v-3.024H333.6v-2.976h2.976V501.39H333.6v2.976h-6v2.976h-8.976v-2.976H315.6V501.39h-3.024V483.342H315.6v-2.976h3.024V477.39H327.6v2.976h3.024v2.976h5.952V477.39h-5.952v-3.024H315.6v3.024Zm32.687,0h3.024v29.952h-3.024v3.024H369.31v-3.024h6v-2.976h2.976V501.39h3.024V483.342h-3.024v-2.976H375.31V477.39h-6v-3.024H348.286v3.024Zm18,2.976h6v2.976h3.024V501.39h-3.024v2.976h-6v2.976H357.31V477.39h8.976v2.976Zm26.736-2.976H396v29.952h-2.976v3.024h29.952V501.39H420v2.976h-2.976v2.976H402V492.366h12v2.976h3.024v-8.976H414v3.024H402v-12h15.024v2.976H420v2.976h2.976v-8.976H393.022v3.024Zm43.2,0H439.2v29.952h-2.976v3.024h12v-3.024H445.2V492.366h12v2.976h3.024v-8.976H457.2v3.024h-12v-12h15.024v2.976H463.2v2.976h2.976v-8.976H436.221v3.024Zm50.687,0h-3.024v2.976h-2.976v2.976h-3.024V501.39h3.024v2.976h2.976v2.976h3.024v3.024h18v-3.024h2.976v-8.976h3.024v-3.024h-12v3.024h2.976v8.976h-12v-2.976h-2.976V501.39h-3.024V483.342h3.024v-2.976h2.976V477.39h12v2.976h3.024v2.976h2.976v3.024h3.024V477.39h-6v-3.024h-18v3.024Zm34.176,0h3.024v29.952h-3.024v3.024h12v-3.024h-2.976V492.366h14.976v14.976h-2.976v3.024h12v-3.024h-3.024V477.39h3.024v-3.024h-12v3.024h2.976v12H530.108v-12h2.976v-3.024h-12v3.024Zm44.111,0h3.024v29.952H565.2v3.024h12v-3.024h-3.024V477.39H577.2v-3.024h-12v3.024Zm41.088,0h3.024v29.952h-9.024V501.39h-8.976v2.976h2.976v2.976h3.024v3.024h14.976v-3.024h3.024V477.39h2.976v-3.024h-12v3.024Zm23.711,0h3.024v29.952h-3.024v3.024h12v-3.024H638.97V492.366h3.024v2.976h3.024v3.024h2.976v3.024h2.976v2.976h3.024v6h12v-3.024H662.97v-2.976h-2.976V501.39h-2.976v-3.024h-3.024v-3.024H650.97v-2.976h-2.976v-6h2.976v-3.024h3.024v-2.976h3.024V477.39h5.952v-3.024H647.994v3.024h2.976v2.976h-2.976v2.976h-2.976v3.024h-3.024v3.024H638.97v-12h3.024v-3.024h-12v3.024Zm46.224,0h2.976v29.952h-2.976v3.024H706.17V501.39h-2.976v2.976h-2.976v2.976H685.194V477.39h3.024v-3.024h-12v3.024Zm39.887,0h2.976v29.952h-2.976v3.024h8.976v-3.024h-2.976v-24h2.976v6.048h3.024v5.952h2.976v6.048h3.024v5.952h2.976V501.39h3.024v-9.024h2.976v-9.024h3.024v24h-3.024v3.024h12v-3.024h-2.976V477.39h2.976v-3.024h-8.976v6h-3.024v2.976h-2.976v6.048h-3.024v8.976h-2.976V489.39h-3.024v-6.048h-2.976v-2.976h-3.024v-6h-8.976v3.024Zm48.912,0h2.976v29.952h-2.976v3.024h8.976v-3.024h-3.024V480.366h3.024v6h3.024v6h2.976v6h2.976v6h3.024v2.976h3.024v3.024h2.976V477.39h2.976v-3.024h-8.976v3.024h3.024v20.976h-3.024v-6h-3.024v-6h-2.976v-6h-2.976V477.39h-3.024v-3.024h-8.976v3.024Zm50.687,0H812.68v2.976H809.7v2.976H806.68V501.39H809.7v2.976h2.976v2.976H815.7v3.024H830.68v-3.024H833.7v-2.976h2.976V501.39H839.7V483.342H836.68v-2.976H833.7V477.39H830.68v-3.024H815.7v3.024Zm12,2.976h2.976v2.976H833.7V501.39H830.68v2.976H827.7v2.976H818.68v-2.976H815.7V501.39H812.68V483.342H815.7v-2.976h2.976V477.39H827.7v2.976Zm23.712-2.976h2.976v29.952h-2.976v3.024h12v-3.024h-3.024v-12h15.024v-2.976h2.976V489.39h2.976v-9.024h-2.976V477.39h-2.976v-3.024h-24v3.024Zm20.976,2.976h3.024v9.024h-3.024v2.976h-12V477.39h12v2.976ZM902.1,477.39h-6v2.976h-3.024v18H896.1v3.024h2.976v2.976H902.1v2.976h8.976v6.048H914.1v2.976h6V513.39h2.976v-3.024H920.1v3.024h-6v-6.048h6v-2.976h2.976V501.39H926.1V480.366h-3.024V477.39h-6v-3.024H902.1v3.024Zm12,2.976h6V501.39h-3.024v2.976H914.1v-6h-3.024v6h-6V501.39H902.1v-3.024h-3.024v-18h6V477.39H914.1v2.976Zm-6,18h-3.024v3.024H908.1v-3.024h2.976v-3.024H908.1v3.024Zm28.175-20.976H939.3v29.952h-3.024v3.024h12v-3.024H945.3v-12h6v3.024h2.976v3.024H957.3v5.952h2.976v3.024H969.3v-3.024h-3.024v-2.976H963.3v-6h-6v-3.024h2.976v-2.976H963.3V489.39h2.976v-9.024H963.3V477.39h-3.024v-3.024h-24v3.024Zm21.024,2.976h2.976v9.024H957.3v2.976h-12V477.39h12v2.976Zm29.664-2.976H983.99v2.976h-2.976v6h2.976v3.024h6v2.976h12v2.976h3.02v9.024h-3.02v2.976h-12v-2.976h-6V501.39h-2.976v8.976h2.976v-3.024h2.976v3.024h15.024v-3.024h6v-2.976h2.98v-9.024h-2.98v-2.976h-2.98V489.39h-12v-3.024h-6.048v-6h3.024V477.39h15.02v2.976h2.98v2.976h2.98v-8.976h-2.98v3.024h-2.98v-3.024H986.966v3.024Zm34.224,8.976h3.02v-6h2.98V477.39h9.02v29.952h-3.02v3.024h12v-3.024h-3.02V477.39h9.02v2.976h2.98v6h3.02v-12h-36v12Zm44.69-8.976h3.02v26.976h2.98v2.976h3.02v3.024h14.98v-3.024h3.02v-2.976h2.98V477.39h3.02v-3.024h-9.02v3.024h3.02v24h-3.02v2.976h-2.98v2.976h-9.02v-2.976h-2.98V477.39h2.98v-3.024h-12v3.024Zm41.71,0h3.02v8.976h2.98v8.976h2.97v6.048h3.03v5.952h3.02v3.024h2.98v-3.024h2.97V501.39h3.03v-6.048h3.02V489.39h2.98v-6.048h2.97V477.39h3.03v-3.024h-8.98v3.024h2.98v5.952h-2.98v6.048h-3.02v5.952h-3.03v6.048h-2.97v2.976h-2.98v-9.024h-3.02v-8.976h-3.03V477.39h3.03v-3.024h-12v3.024Zm42.91,0h2.98v8.976h3.02V501.39h2.98v8.976h6V501.39h3.02v-9.024h2.98v9.024h3.02v5.952h2.98v3.024h3.02v-6h2.98V489.39h3.02v-12h2.98v-3.024h-8.98v3.024h2.98v12h-2.98v14.976h-3.02v-12h-2.98V477.39h2.98v-3.024h-12v3.024h3.02v14.976h-3.02v9.024h-2.98V486.366h-3.02V477.39h3.02v-3.024h-12v3.024Zm47.38,0h3.02v2.976h2.98v6h3.02v3.024h2.98v5.952h-2.98v3.024h-3.02v6h-2.98v2.976h-3.02v3.024h9.02v-3.024h-3.02v-2.976h3.02V501.39h2.98v-3.024h3.02v-3.024h2.98v6.048h3.02v2.976h2.98v2.976h-2.98v3.024h12v-3.024h-3.02v-2.976h-2.98V501.39h-3.02v-6.048h-2.98V489.39h2.98v-3.024h3.02v-3.024h2.98V477.39h3.02v-3.024h-9.02v3.024h3.02v2.976h-3.02v2.976h-2.98v3.024h-3.02v3.024h-2.98v-6.048h-3.02v-2.976h-2.98V477.39h2.98v-3.024h-12v3.024Zm41.08,0h3.03v2.976h3.02v2.976h2.98v3.024h2.97v3.024h3.03v2.976h3.02v14.976h-3.02v3.024h12v-3.024h-3.03V492.366h3.03V489.39h3.02v-3.024h2.98v-3.024h2.97v-2.976h3.03V477.39h3.02v-3.024h-12v3.024h2.98v2.976h-2.98v2.976h-3.02v3.024h-3.03v3.024h-2.97v-3.024h-2.98v-3.024h-3.02v-2.976h-3.03V477.39h3.03v-3.024h-15.03v3.024Zm50.11,2.976h3.03V477.39h24v2.976h-3.03v2.976h-2.97v3.024h-3.03v3.024h-2.97v2.976h-3.03v2.976h-2.97v3.024h-3.03v3.024h-2.97v2.976h-3.03v6h33.03V501.39h-3.03v2.976h-2.97v2.976h-21.03v-2.976h3.03V501.39h2.97v-3.024h3.03v-3.024h2.97v-2.976h3.03V489.39h2.97v-3.024h3.03v-3.024h2.97v-2.976h3.03v-6h-33.03v6Z"/>
  <path id="logo" class="cls-1" d="M706.266,1194.7a45.969,45.969,0,0,0-.118,5.15v5.16H677.555v-1.17l0.234-.94-1.406-.24c-1.1,0-2.659-.07-4.688-0.23h-3.281l-0.469,2.58a45.646,45.646,0,0,1-1.172,4.92,22.619,22.619,0,0,1-1.406,4.22,7.125,7.125,0,0,0-.82,2.23,6.584,6.584,0,0,0,2.109-.71c1.326-.54,2.615-1.13,3.867-1.76a11.566,11.566,0,0,0,3.516-2.81l1.641-1.64h66.8l1.875,1.88a14.477,14.477,0,0,0,3.75,2.81c1.406,0.62,2.655,1.17,3.75,1.64a1.036,1.036,0,1,0,1.171-1.17,17.1,17.1,0,0,1-1.406-3.99q-0.7-2.34-1.172-4.68a11.9,11.9,0,0,0-.7-3.05c0-.47-1.252-0.62-3.75-0.47-1.875.16-3.281,0.23-4.219,0.23a2.052,2.052,0,0,1-.937.24c-0.315,0-.469.31-0.469,0.94l0.235,0.93-13.594.24q-13.359,0-13.36-.24a2.838,2.838,0,0,1,.7-1.05,6.664,6.664,0,0,0,1.171-2.46,15.728,15.728,0,0,0,.469-4.22v-2.58h-4.687Q706.382,1194.46,706.266,1194.7Zm-31.289,28.12v4.22l21.093,0.23h21.094l-5.859,4.93q-5.4,4.215-8.2,6.56l-2.344,1.87v6.8H660.445v4.22h40.313v14.76c0,10.01-.158,15.47-0.469,16.41a13.152,13.152,0,0,1-1.172,3.05,21,21,0,0,1-2.578,3.04,16.962,16.962,0,0,1-3.75,2.82c-1.406.62-2.109,1.17-2.109,1.64s0.153,0.7.468,0.7a30.375,30.375,0,0,0,3.047-.47,34.353,34.353,0,0,0,4.922-1.4,16.4,16.4,0,0,0,4.688-1.88,11.74,11.74,0,0,0,3.515-2.34,12.264,12.264,0,0,0,2.344-2.58,13,13,0,0,0,1.172-2.58c0.311-.94.469-6.4,0.469-16.41v-14.76h38.2v-4.22h-38.2v-6.8l2.109-1.64q2.109-1.635,8.438-6.79,6.327-5.4,8.437-7.04a13.637,13.637,0,0,0,2.578-2.34q0-.225-28.828-0.23t-29.062.23h0Zm121.64-30.23-0.469,1.87a27.635,27.635,0,0,1-1.523,5.74c-0.861,2.43-1.681,4.65-2.461,6.68q-1.176,2.58-3.281,6.8-1.88,3.75-4.453,8.44-2.11,3.75-4.688,7.73-2.582,4.215-3.047,4.92a7.818,7.818,0,0,0-1.406,2.11c-0.157.47-.117,0.71,0.117,0.71a8.252,8.252,0,0,0,2.227-1.18q1.873-1.17,3.515-2.34,1.874-1.41,3.985-3.28a59.714,59.714,0,0,0,4.453-4.45l2.109-2.35,0.235,14.77,0.234,14.76h1.875a5.862,5.862,0,0,0,3.047-.7,5.457,5.457,0,0,0,1.875-1.17,11.374,11.374,0,0,0,1.406-1.64l0.469-.71h27.187v2.11l0.235,2.11h1.64a7.437,7.437,0,0,0,2.813-.47,9.072,9.072,0,0,0,2.109-1.17,4.666,4.666,0,0,0,1.407-1.64l0.7-.94h31.64v-4.45H838.336v-6.8H868.57v-4.45H838.336v-6.8H868.57v-4.68H838.336v-7.5H868.57v-4.69H837.164l0.938-1.17a23.668,23.668,0,0,0,1.406-2.35,6.445,6.445,0,0,0,.7-2.57,17.74,17.74,0,0,0,.469-4.93v-3.51H828.727v14.53H815.6q-13.129,0-13.125-.23c0-.16-0.158-0.24-0.469-0.24s0.311-1.41,1.875-4.22a69.182,69.182,0,0,0,3.281-7.5,16.732,16.732,0,0,0,1.406-3.98l0.235-1.17H796.617Zm31.406,22.03v7.5H802.477v-7.5h25.546Zm0,12.18v6.8H802.477v-6.8h25.546Zm0,11.25v6.8H802.477v-6.8h25.546Zm-3.515,16.88v5.16l-22.969.23H778.805v4.45h45.7v1.64c0,1.1-.081,1.64-0.235,1.64a40.222,40.222,0,0,1-4.687-1.17q-4.455-1.17-4.922-1.4-0.236,0-6.328,4.68-6.1,4.935-7.734,6.1-1.643.93-4.454,2.58a58.967,58.967,0,0,1-5.39,2.57q-2.812,1.185-5.391,2.23a35.226,35.226,0,0,1-5.859,1.76,17.416,17.416,0,0,0-3.047,1.05,6.06,6.06,0,0,0,1.289,1.06,3.994,3.994,0,0,0,1.992.94c0.469,0,2.344-.32,5.625-0.94s6.328-1.33,9.141-2.11q4.449-1.17,8.2-2.35a22.822,22.822,0,0,0,4.922-2.1q1.637-.945,9.14-6.1t7.618-5.04q0.115,0.12.117,13.48v13.12h1.406a7.357,7.357,0,0,0,2.813-.7,6.692,6.692,0,0,0,3.046-1.99,11.184,11.184,0,0,0,2.11-3.17,8.733,8.733,0,0,0,.586-2.34q0.115-1.17.117-6.33c0.154-4.68.271-7.11,0.352-7.26s1.442,0.55,4.1,2.11q3.982,2.1,6.8,3.51a34.945,34.945,0,0,0,6.328,2.58,54.282,54.282,0,0,0,6.328,1.64,52.974,52.974,0,0,0,5.625.94c1.718,0.16,4.219.23,7.5,0.23a38.521,38.521,0,0,0,5.86-.23,1.37,1.37,0,0,0,1.171-.94l0.235-1.17c0-.15-0.235-0.24-0.7-0.24-0.315,0-1.722-.23-4.219-0.7s-5-1.01-7.5-1.64q-3.516-.93-6.8-2.11-2.812-.93-5.625-2.11-2.346-1.17-10.078-6.33l-7.734-5.15,19.453-.24h19.453v-4.45H854.977l-20.157-.23v-2.58l-0.234-2.58H824.508Z"/>
</svg>
