<svg xmlns="http://www.w3.org/2000/svg" width="1540" height="1450" viewBox="0 0 1540 1450">
  <defs>
    <style>
      .cls-1 {
        fill: #fff;
      }

      .cls-1, .cls-2, .cls-3 {
        fill-rule: evenodd;
      }

      .cls-2 {
        fill: #fefefe;
      }

      .cls-3 {
        fill: #fdfdfd;
      }
    </style>
  </defs>
  <path id="字体名称" class="cls-1" d="M197.812,253.334l7.8,8.6,7.6-8-9-7.4Zm-15.6,11.6,8-13.4-6.8-4.2-10.8,17.6h-18v4.4l15.2,0.2-26.6,43.4,7,4.4,29-47.8h47v-4.6h-44Zm40.8,16.6-5.6-5.8-8.4,8.2v-9.8h-26.2q0,8.2.1,16.6a31.232,31.232,0,0,0,4.1,15.4l-8.4,8.4,5.8,5.6,7.6-7.8a37.725,37.725,0,0,0,9.3,5.6,59.631,59.631,0,0,0,13.7,3.8l11.2-20.4a43.165,43.165,0,0,1-9.6-3.8,16.032,16.032,0,0,1-5.2-4.6Zm-42.8-60.6-11-9-8,8.4,9.8,10.6Zm-34.8,21h61.6v-4.6h-94.6v11q0,5.8-.2,10.8a26.143,26.143,0,0,1-1.8,8.9,19.833,19.833,0,0,1-5.1,7.1,33.067,33.067,0,0,1-9.9,5.8l15,23q14.8-5,22.1-12.1a39.978,39.978,0,0,0,13-30q-0.1-7.5-.1-13.5v-6.4Zm201.6-5v4.6h28.4l-5.2,68.2h40.6l-5.6-72.8h-58.2Zm-34.6,72.8h6.8l2-64.8h-10.4Zm7.4-77.6,9.8,10.6,9-9.8-11-9Zm258,69,1.6-32.4h23.6v-4.6h-23.2l1.6-31.8h23.4v-4.6h-86.2v4.6h28.8l4.4,68.8h-15.6l1.2-44h-11.2l1.8,44h-12.8v4.6h91.2v-4.6h-28.6Zm249.2-52.2v-4.6h-90.8v4.6h29.2l1.6,13.4h-19l1.4,45.2v4.6h64.8l3.8-49.8h-29.8l3.6-13.4h35.2Zm-123.8,74.6h88.2v-4.6h-67l12.6-58.8h-42.4v4.6h9.6Zm56.8-113.2-15.4,11.6,16.4,18,12.2-8.2Zm28.2,86.6,1,10.6h-32.6l0.4-10.6h31.2Zm-30.4-15h29.4l0.8,10.4h-30.8Zm0.6-15h27.6l0.8,10.4h-28.8Zm46.4-57-21.6,25.8,5.8,4.4,23.2-24.2Zm-84.4,45,9-10-11-9.2-7.8,8.6Zm223.8,18.2h9.2v-4.6h-8.8l0.2-11.6-9,.2,0.4,11.4h-7.4a62.949,62.949,0,0,0,6.8-11.9,67.918,67.918,0,0,0,4.8-16.5h16v-4.6h-15.6a41.777,41.777,0,0,0,.4-5.9q0-3.1-.2-6.5h-19.4v3.6a83.223,83.223,0,0,1-.6,8.8h-11v4.6h9.8a50.27,50.27,0,0,1-4.3,12.3,35.73,35.73,0,0,1-8.9,11.3l12,15.6q1-.8,2-1.6,0.8-.8,1.9-1.8a38.846,38.846,0,0,0,2.7-2.8h11.2l0.4,14h-26.8v4.6h27l0.6,18.6,5.4-.2,0.6-18.4h12.8v-4.6h-12.6Zm14.2-48.4v4.6h21.8q-1.4,9.4-6,15.3a39.284,39.284,0,0,1-9.6,9.1,38.633,38.633,0,0,1-13.2,5.6l11.2,14a61.759,61.759,0,0,0,17-7.1,58.04,58.04,0,0,0,12-9.7l16.8,16.8,6.6-6.6-17.6-17.6a44.346,44.346,0,0,0,4.6-9c1.07-2.931,1.93-5.6,2.6-8q0.795-3.8,1.2-7.4h-47.4Zm35,57h14.6v-4.6h-47.6v4.6h14.6l3.2,22.2h-19.8v4.6h51.6v-4.6h-19.8Zm214.4,3,5,14.8-36.6,3.2a71.714,71.714,0,0,0,6.1-6,88.005,88.005,0,0,0,6.6-8.2,75.15,75.15,0,0,0,6.1-10.2,50.338,50.338,0,0,0,4.2-12.2l-7.2-3.6a104.279,104.279,0,0,1-5.4,14.2,124.414,124.414,0,0,1-8.3,13.2,67.721,67.721,0,0,1-13.1,13.6l4.4,4.6,44.4-4,2.4,7.4,15.8-6.6-12.8-24.6Zm35.2-26.4-29.6-21-7.2,8.8,25.4,26.4Zm-61.6-36.6a78.656,78.656,0,0,1-7,13.2,88.668,88.668,0,0,1-9.7,11.7,68.189,68.189,0,0,1-14.3,11.1l18.8,16.4a76.629,76.629,0,0,0,15.4-9.8,73.909,73.909,0,0,0,12.1-12.7,48.739,48.739,0,0,0,8.5-18.5Zm-47.8,49,9.6,10.4,9-10-10.8-9Zm15.4-21.6v-4.6h-15.4l1.4-17.4h-26.6l1.4,17.4h-19.4v4.6h19.8l4.6,59.2h13.8l4.6-59.2h15.8Zm-51.4,21.4a44.052,44.052,0,0,1-2.9,16.7,44.937,44.937,0,0,1-6.7,11.7,47,47,0,0,1-9.4,9.2l7.2,3.8a48.444,48.444,0,0,0,10-10.2,59.641,59.641,0,0,0,7.1-12.8,46.992,46.992,0,0,0,3.3-18.4v-10.6h-8.6v10.6Zm214.2-47.6a91.736,91.736,0,0,1-7.8,14.6,101.493,101.493,0,0,1-10.7,13,69.9,69.9,0,0,1-15.9,12.2l20.6,18.4q1.4-.6,3-1.4a55.772,55.772,0,0,0,6.8-4.2l1,22.2h14l0.6-27.2h-8.6a88.448,88.448,0,0,0,13.6-14.4,55.507,55.507,0,0,0,9.6-20.4Zm105.8,32.4-10.6,7.8,20,38.8,17.2-13.2Zm-14.2-5.8h27.4v-4.6h-27.2l2-24-37.4.2,2,23.8h-32.6v4.6h33l3.6,41.6h-13.8v4.6h14.2l1.4,15.8,22.2-.2,1.4-15.6h14.2v-4.6h-13.8Zm-54.2,21.6a42.684,42.684,0,0,1-3,16.7,49.628,49.628,0,0,1-16.2,20.9l7.2,3.8a46.116,46.116,0,0,0,10.2-10.2,59.641,59.641,0,0,0,7.1-12.8,46.992,46.992,0,0,0,3.3-18.4v-12h-8.6v12Z"/>
  <path id="中文示例" class="cls-2" d="M345.347,768.938l-1.1-52.1h-41.1q0,8.6.2,16a118.884,118.884,0,0,1-.35,13.6,41.319,41.319,0,0,1-2.55,11.35,26.725,26.725,0,0,1-6.4,9.449l4.5,3.8a44.577,44.577,0,0,0,3.25-3.4,20.808,20.808,0,0,0,2.8-4.3,40.373,40.373,0,0,0,2.3-5.8,62.624,62.624,0,0,0,1.85-7.7h14.1l-0.9,19.1h23.4Zm-47.7-10.7-0.7-34.1h0.1v-2.4h-29.4l1.1,36.5h28.9Zm-17.3-2.3,1.1-14.7h11.5l-0.5,14.7h-12.1Zm13-31.9-0.3,14.9h-11.4l1.1-14.9h10.6Zm16,22.4q0.3-2.5.45-5.451t0.35-6.349h13.3l-0.5,11.8h-13.6Zm14.4-15.3h-13.5v-10.8h13.9Zm104.1,31.5-2.8-38.8h-30.6V740.5a30.177,30.177,0,0,1-1.45,9.926,40.166,40.166,0,0,1-3.15,7.032,22.148,22.148,0,0,1-4.6,5.487l3.6,1.8a31.644,31.644,0,0,0,3.5-3.7,26.1,26.1,0,0,0,3-4.7,31.53,31.53,0,0,0,2.5-7h10.5l-0.7,13.3h20.2Zm-18.4-36.5-0.5,9.2h-10.1v-9.2h10.6Zm-11.2,20.9q0.3-1.6.45-3.2t0.15-3.4v-2.8h10l-0.4,9.4h-10.2Zm120.6,3.6,0.8,12.2h-10l1.1-15.5h13.3l0.9-15.3h-6.9l0.7,13h-7.8l1.5-22.3h-11.8l1.6,22.3h-7.9l0.6-13h-6.8l0.8,15.3h13.5l1.1,15.5h-10.1l0.7-12.2h-6.9l0.9,14.5h36.8l0.8-14.5h-6.9Zm109.7-11.8v-2.3h-14.6v-12.7h10.5v-2.3h-35.7v2.3h11.1v12.7h-15.3v2.3h15.2a19.229,19.229,0,0,1-1.05,5.4,13.391,13.391,0,0,1-2.45,4.15,18.039,18.039,0,0,1-4.05,3.4,38.121,38.121,0,0,1-5.85,2.949l8.4,9.3a63.688,63.688,0,0,0,8.8-4.549,20.684,20.684,0,0,0,6.5-6.55l13.3,13.4,3.3-3.4-14.5-14.5a34.2,34.2,0,0,0,1.8-9.6h14.6Zm95.9-4.5,1,27.5h-14.7l3.8-38h-16.1l3.9,38h-14.8l1-27.5h-7.1l1.1,29.8h47.8l1.2-29.8h-7.1Zm112-12.9a46.889,46.889,0,0,1-5.7,5.9,59.957,59.957,0,0,1-6.9,4.851,32.5,32.5,0,0,1-9.3,3.75l7.4,11.5a54.3,54.3,0,0,0,10.1-3.7,56.336,56.336,0,0,0,8.7-5.5,27.686,27.686,0,0,0,7.5-8.8Zm-7.8.9h6.1l0.5-4.9h8.2l0.1,4.9h12.7l1.1-4.9h8.7v-2.1h-8.2l1.2-5.5h-15.7l0.1,5.5h-8l0.4-5.5h-9.9l1.1,5.5h-7.3v2.1h7.9Zm24.8,37.8-0.7-13.8h-20.8v11a24.135,24.135,0,0,0,1.6,9.2,31.377,31.377,0,0,0,3.4,6.4,22.168,22.168,0,0,0,5.2,5.1l3.6-1.906a18.123,18.123,0,0,1-4.7-4.615,21.792,21.792,0,0,1-3.3-5.819,22.745,22.745,0,0,1-1.4-8.43v-8.829h7.6l-1.4,11.7h10.9Zm16.1-16.7-19.7-9.7-2.5,3.6,18.6,11.8Zm97.4,0.8v-2.3h-37.8v2.3h7.1l1.6,22.9h29.1v-2.3h-17.6l2.8-20.6h14.8Zm-21.5-4.5,4.5-4.9-5.5-4.6-3.8,4.2Zm-25.1-15.8h7.8l1,5.2h6.1l0.3-5.2h8l0.1,5.2h12.4l1.1-5.1,8.3-.1v-2.3h-7.9l1.2-5.6h-15.3l0.1,5.6h-7.8l0.4-5.6h-9.6l1.1,5.6h-7.3v2.3Zm1.7,27.5,4.5-5-5.5-4.6-3.9,4.3Zm1.5-16.5,4.9,5.4,4.6-5.1-5.5-4.5Zm4.2,16.5a22.191,22.191,0,0,1-1.55,8.149,30.8,30.8,0,0,1-3.15,5.851,19.687,19.687,0,0,1-4.8,4.6l3.7,1.8a22.218,22.218,0,0,0,5-5,29.034,29.034,0,0,0,3.5-6.3,24.611,24.611,0,0,0,1.7-9.1h-4.4Zm133.8-25.1h-39v2.3h39v-2.3Zm3,15.3v-2.3h-45.1v2.3h12a13.446,13.446,0,0,1-.25,2.249,11.037,11.037,0,0,1-1.15,3.051,16.444,16.444,0,0,1-2.6,3.5,16.072,16.072,0,0,1-4.5,3.2l7.4,6.4h0.1l20.4-1.7,1.2,3.2,8-3.4-7.2-12.3-6,2.5,3,7.7-14.7,1.2a21.458,21.458,0,0,0,4.5-5.6,23.38,23.38,0,0,0,2.7-10h22.2Zm111.6,9.6h-7.5l-0.4-14.3h-36.9l-0.1,14.3h-6.5v2.3h6.5v14.3h21.5l-0.8,3.9h17.4l-0.1-3.9h2.8v-2.3h-2.9l-0.4-12h7.4v-2.3Zm-23.1,14.3h-18.2l0.7-12h19.6Zm2.5-14.3h-19.9l0.8-12h21.2Zm-6.2,8-4.2-3.5-3.1,3.3,3.7,4Zm0-14.2-4.2-3.5-3.1,3.3,3.7,4.1Zm-31.9-3.4-5.5-4.5-4,4.2,4.8,5.4Zm-3.1-11.4,4.8,5.2,4.6-4.9-5.5-4.5Zm-1.7,36.8a22.267,22.267,0,0,0,5.1-4.9,30.652,30.652,0,0,0,3.45-6.4,26.727,26.727,0,0,0,1.75-9h-4.3a21.552,21.552,0,0,1-1.6,8.15,26.336,26.336,0,0,1-3.3,5.75,20.5,20.5,0,0,1-4.7,4.6Zm56.7-36.5v-2.3h-25.8a33.137,33.137,0,0,0,1.8-4.5,23.761,23.761,0,0,0,1-5.6l-10.4-2a20.314,20.314,0,0,1-1.3,4.7q-0.9,2.2-2.3,4.851a30.264,30.264,0,0,1-3.7,5.349l8.9,4.4c0.4-.333.86-0.733,1.4-1.2a16.8,16.8,0,0,0,3.2-3.7h27.2Zm99.6,34.9-2.6-36.4h-33.4v2.3h18.3l-2.5,34.1h20.2Zm-23.1-26.8h-21.2l0.7,26.6h19.2Zm-30.1,26.8h3.5l1-32.4h-5.2Zm18.6-12.6h5.5l0.2,10.1h-6.1Zm0.4-11.9h4.8l0.2,9.6h-5.3Zm-5.8-13.9-5.5-4.5-4,4.1,4.9,5.3Zm-932.6,186.5h-7v2.3h7.2l1.2,13.8-4.2,1.6,2.4,4.9,13.3-7.2-1.6-3.2-3.6,1.4,1-11.3h18.7v-2.3h-18.5l1.1-12.4h-11.1Zm22.3,24.1,4.9-3.3-11.4-16.5-3.3,1.6Zm-8.1-25.1,8.1-8.9-4.3-3.3-6.6,10.1Zm75.4-10.4h30.2v8.1q0,3.1-.05,6.849a21.221,21.221,0,0,0,1.35,7.6,19.542,19.542,0,0,0,5.05,7.35q3.649,3.5,11.15,6l7.3-11.5a15.768,15.768,0,0,1-4.9-2.9,10.009,10.009,0,0,1-2.5-3.6,13.193,13.193,0,0,1-.9-4.4q-0.1-2.4-.1-5.5v-10.3h-50.9v16.5a22.266,22.266,0,0,1-4.8,14.3,20.421,20.421,0,0,1-4.7,4.6l3.6,1.9a23.117,23.117,0,0,0,5.1-5.1,32.241,32.241,0,0,0,3.45-6.5,23.967,23.967,0,0,0,1.65-9.2v-14.2Zm5.5,29.9,7.8-7.7,8.3,7,4.6-4.5-7.4-8,6.2-6.1-3.7-3.7-6,5.9-6.3-6.8-6.7,6.8,7,6-7.8,7.7Zm99.9-32.2q0,5.5-.2,10.151a46.1,46.1,0,0,1-1.25,8.95,32.972,32.972,0,0,1-3.25,8.25,40.356,40.356,0,0,1-6.1,8.05l3,2.5q2.2-2.2,4.35-4.7a25.784,25.784,0,0,0,3.9-6.5,48.051,48.051,0,0,0,2.9-9.8,87.486,87.486,0,0,0,1.35-14.6h9.1q0,6.1.1,12.051a32.841,32.841,0,0,0,1.9,10.85,19.1,19.1,0,0,0,6.05,8.349q4.25,3.452,12.25,4.651l7.1-12.8a40.972,40.972,0,0,1-6.5-3,7.821,7.821,0,0,1-3.3-4,20.947,20.947,0,0,1-1.1-6.9q-0.1-4.3.1-11.5h-30.4Zm138.6,2.6v-2.3h-46.9v2.3h12v14.6a21.629,21.629,0,0,1-1.5,8.45,23.51,23.51,0,0,1-3.4,5.849,19.646,19.646,0,0,1-4.7,4.7l3.6,1.7a24.188,24.188,0,0,0,5.1-5,36.414,36.414,0,0,0,3.45-6.5,23.5,23.5,0,0,0,1.65-9.2v-2.6h11.9l-2.4,21.1h18.6l-1-23.4h-27.1v-9.7h30.7Zm78.1,28.6h16.3v-2.3h-16.2l0.2-6.2h17.8l1.1-24h-40l0.7,21.71v2.291h12.1l0.1,6.2h-11.4v2.3h11.4l0.1,6.1h-16.9v2.3h46.4v-2.3h-21.8Zm-16.5-10.8,0.5-8.9h7.8l0.1,8.9h-8.4Zm0.8-19.4h7.3l0.2,8.2h-7.8Zm16.3,10.5h5l0.8,8.9h-6Zm0.2-10.5h4.1l0.6,8.2h-4.9Zm96.9,3.7,1.4,23.4v1.5h26.9l-1-24.9h-27.3Zm14.3,22.6,1.4-20.3h7.4l-0.9,20.3h-7.9Zm47.3-22.4-2.5,4.9,5,3,6.8-7.8-7.1-4.3-1,1.9h-14.4a32.9,32.9,0,0,0,1.5-4.651,19.618,19.618,0,0,0,.5-5.349l-11.8-2.3a27.551,27.551,0,0,1-1.5,6.6,45.728,45.728,0,0,1-2.9,6.3,29.269,29.269,0,0,1-5.1,6.7l10.3,5a32.242,32.242,0,0,0,2.7-2.6q1.2-1.3,2.65-3.149a25.032,25.032,0,0,0,2.65-4.25h14.2Zm11,39.6-14.5-14.5a40.019,40.019,0,0,0,1.6-12.1l-0.1-4.6h-14.1l0.1,4.7a27.642,27.642,0,0,1-.65,6.4,13.216,13.216,0,0,1-2.25,4.849,16.838,16.838,0,0,1-4.1,3.851,41.178,41.178,0,0,1-6.3,3.4l8.5,9.2a71.657,71.657,0,0,0,8.65-4.651,20.861,20.861,0,0,0,6.45-6.55l13.4,13.4Zm92.5-22.1h-29.7v2.3h17.3a15.134,15.134,0,0,1-1.3,6.25,14.72,14.72,0,0,1-3.1,4.25l-8-8.2-2.7,2.7,7.6,7.6a36.763,36.763,0,0,1-3.95,1.4q-2.05.6-4.05,1.1l5.3,9.7a42.516,42.516,0,0,0,5.85-1.75q2.749-1.05,5.15-2.25l4.9,5,2.6-2.7-4.5-4.5a19.7,19.7,0,0,0,6.8-8.849,30.784,30.784,0,0,0,1.8-11.951v-0.1Zm-19.9-30-5.6-4.6-3.9,4.2,4.9,5.3Zm17.6,16.5,0.4-2.3-11.4.1v2.2h-6.5l0.1-2.3-5.6.1,0.2,2.2h-6.7v2.3h7l0.7,8.8h12.3l7.7,0.1,1.5-8.9h5v-2.3h-4.7Zm-10.9,8.8h-6.9l0.2-6.5h6.7v6.5Zm-22-14.9h28.7v-2.3h-45.1v5.4q0,3-.1,5.45a14.261,14.261,0,0,1-.85,4.449,9.058,9.058,0,0,1-2.55,3.6,17.565,17.565,0,0,1-4.9,2.9l7.4,11.5q7.4-2.5,11.05-6.05a20.091,20.091,0,0,0,5.05-7.349,21.052,21.052,0,0,0,1.35-7.6q-0.051-3.8-.05-6.8v-3.2Zm119.7,29.9,4.6-4.9-5.5-4.5-3.9,4.2Zm8.7-30.3v-2.3h-44v2.3h13.4l1.3,13.1h-12.6v2.3h12.9l1.7,18h-16.7v2.3h44v-2.3h-16.7l1.7-18h12.9v-2.3h-12.6l1.3-13.1h13.4Zm71.1,1.8v2.3h14.2l-2.6,34.1h20.3l-2.8-36.4h-29.1Zm-17.3,36.4h3.4l1-32.4h-5.2Zm3.7-38.8,4.9,5.3,4.5-4.9-5.5-4.5Zm144,22.4v-2.3h-16.6c0.06-.6.1-1.2,0.1-1.8v-2l-0.1-8.1h12.7v-2.3h-39.2v2.3h12.4l0.2,8.2c0,0.667-.04,1.3-0.1,1.9s-0.14,1.2-.2,1.8h-16.2v2.3h15.9a13.756,13.756,0,0,1-4,7.2,30.93,30.93,0,0,1-8.8,5.3l8.5,9.2a69.165,69.165,0,0,0,8.75-4.651,20.318,20.318,0,0,0,6.35-6.45l13.4,13.3,3.3-3.3-14.5-14.6q0.39-1.3.75-2.8a31.544,31.544,0,0,0,.55-3.2h16.8Zm-25.8-22.5-6.6-10.6-7.8,5.7,8.2,9Zm20.4-8.8-3.7-2.8-10.9,12.8,3,2.2Z"/>
  <path id="大写字母" class="cls-3" d="M182.448,529.294l2.808,10.512h16.56l-11.88-35.28H172.3l-10.656,35.28H166.9l2.808-10.512h12.744Zm-6.336-23.76,5.544,21.024H170.5Zm71.5,31.32,1.008-13.464-2.088-2.88h-1.368l2.664-11.592-3.456-4.392h-25.2l0.648,35.28h24.192Zm-22.32-13.608h11.16l1.08,13.824H225.071Zm0.36-15.984h10.44l-0.72,13.248H225.359Zm69.839-.288v-2.808h-23.04l-4.464,6.048,0.864,25.7,4.32,4.248h22.32v-2.808H280.222l1.008-30.384h14.256Zm46.584,28.44,1.3-23.472-5.76-7.416h-24.12l0.648,35.28H338.11Zm-22.176-28.152H331.27l0.864,29.808H319.462Zm69.119,32.544V537.07H374.325l0.432-13.68h13.032v-2.808h-12.96l0.5-13.32h13.68v-2.736H361.869l1.152,35.28h25.992Zm20.088,0h11.16l0.576-16.416h13.608v-2.808H420.909l0.432-13.32H435.6v-2.736h-27.72Zm60.552-19.224v2.808h7.776l0.5,13.68H465.909l1.008-29.808H480.6v-2.736H458.853l-5.184,7.056,0.792,23.76,5.76,4.464h20.664l0.648-19.224h-11.88Zm32.831-16.056,0.648,35.28h5.256l0.216-16.2h11.448l0.5,16.2H530.2l1.944-35.28h-12.6l0.432,16.2h-11.3l0.216-16.2h-6.408Zm59.328,35.28,1.8-35.28h-12.6l1.08,35.28h9.72Zm35.28-4.968,1.584-30.312H586.148l1.008,32.544h-7.92v2.736h14.616Zm35.424-30.312H618.908l1.152,35.28h11.3l0.288-10.3,9,9.144,1.944-1.944-10.8-10.8,0.216-7.56,1.728,1.944,9.072-7.632-4.608-4.9-5.976,6.768ZM685,539.806V537.07H673.267l1.152-32.544H660.811l1.152,35.28H685Zm35.856-20.232,0.648,20.232h11.232l1.152-35.28H718.915l-5.04,27.216-5.04-27.216h-8.352l0.576,35.28h5.184l0.432-21.6,4.68,21.6h5.112Zm51.047,10.152-8.424-25.2h-9.36l0.648,35.28h5.256l0.432-29.232,10.8,29.232h10.584l1.944-35.28h-12.6ZM833.826,537l0.5-28.224-3.384-4.248H805.53l-2.88,4.032,1.44,26.928,5.472,4.32h21.384Zm-18.288-29.736h11.376l0.432,29.808H814.674Zm67.608,14.04,0.432-14.112-2.16-2.664H854.562l1.152,35.28h11.16l0.576-16.416h13.68Zm-15.12-14.04h11.016l0.5,13.32H867.522Zm61.488,32.184,2.448-3.168,1.3-25.344L928,504.094H906.618l-3.1,3.528,0.432,28.584,3.456,3.24h16.056l8.5,8.5L933.834,546l-6.552-6.552h2.232Zm-8.784-2.808H909.282l0.576-29.736H921.09l0.864,27.216-3.1-3.1-1.872,1.944Zm58.247-13.248,2.16-2.664,0.432-12.96-2.3-3.24H952.553l1.152,35.28h11.16l0.576-16.416h7.488l5.256,16.416h2.88l-3.96-16.416h1.872Zm-13.464-2.808,0.5-13.32h11.016l0.5,13.32H965.513Zm61.267,16.056,0.72-11.3-3.31-4.752h-11.01l0.86-13.32h14.33v-2.736h-24.19l-3.24,3.96,0.57,10.008,4.32,4.9h8.57l0.86,13.68h-12.81v2.736h20.45Zm18.29-29.376h9.22l1.15,32.544h11.23l1.01-32.544h9.36v-2.736h-31.97v2.736Zm51.34,32.544h19.58l5.19-4.9,1.65-30.384h-12.6l0.94,32.544H1098.5l0.57-32.544h-6.48l0.58,30.96Zm59.4-1.008-9.22-34.272h-5.25l10.65,35.28h17.64l11.88-35.28h-16.56Zm67.1-7.632-5.76-26.64h-5.11l-5.69,26.208-3.53-26.208h-5.25l3.52,35.28h8.5l4.97-27.216,5.04,27.216h13.75l5.4-35.28h-13.54Zm51.7-1.728,7.2,10.368h4.6l-9.64-13.968,12.96-21.312h-16.64l-4.82,9-6.26-9h-4.54l8.78,12.816-12.02,22.464h14.04Zm40.67-6.048,0.44,16.416h5.32l0.44-16.416h3.81l11.23-18.864h-14.04l-7.41,15.48-7.85-15.48h-4.61l9.51,18.864h3.16Zm35.93-18.864v2.736h11.67l-14.19,32.544h27.79V537.07h-15.12l16.28-32.544h-26.43Z"/>
  <path id="logo" class="cls-1" d="M706.266,1194.7a45.969,45.969,0,0,0-.118,5.15v5.16H677.555v-1.17l0.234-.94-1.406-.24c-1.1,0-2.659-.07-4.688-0.23h-3.281l-0.469,2.58a45.646,45.646,0,0,1-1.172,4.92,22.619,22.619,0,0,1-1.406,4.22,7.125,7.125,0,0,0-.82,2.23,6.584,6.584,0,0,0,2.109-.71c1.326-.54,2.615-1.13,3.867-1.76a11.566,11.566,0,0,0,3.516-2.81l1.641-1.64h66.8l1.875,1.88a14.477,14.477,0,0,0,3.75,2.81c1.406,0.62,2.655,1.17,3.75,1.64a1.036,1.036,0,1,0,1.171-1.17,17.1,17.1,0,0,1-1.406-3.99q-0.7-2.34-1.172-4.68a11.9,11.9,0,0,0-.7-3.05c0-.47-1.252-0.62-3.75-0.47-1.875.16-3.281,0.23-4.219,0.23a2.052,2.052,0,0,1-.937.24c-0.315,0-.469.31-0.469,0.94l0.235,0.93-13.594.24q-13.359,0-13.36-.24a2.838,2.838,0,0,1,.7-1.05,6.664,6.664,0,0,0,1.171-2.46,15.728,15.728,0,0,0,.469-4.22v-2.58h-4.687Q706.382,1194.46,706.266,1194.7Zm-31.289,28.12v4.22l21.093,0.23h21.094l-5.859,4.93q-5.4,4.215-8.2,6.56l-2.344,1.87v6.8H660.445v4.22h40.313v14.76c0,10.01-.158,15.47-0.469,16.41a13.152,13.152,0,0,1-1.172,3.05,21,21,0,0,1-2.578,3.04,16.962,16.962,0,0,1-3.75,2.82c-1.406.62-2.109,1.17-2.109,1.64s0.153,0.7.468,0.7a30.375,30.375,0,0,0,3.047-.47,34.353,34.353,0,0,0,4.922-1.4,16.4,16.4,0,0,0,4.688-1.88,11.74,11.74,0,0,0,3.515-2.34,12.264,12.264,0,0,0,2.344-2.58,13,13,0,0,0,1.172-2.58c0.311-.94.469-6.4,0.469-16.41v-14.76h38.2v-4.22h-38.2v-6.8l2.109-1.64q2.109-1.635,8.438-6.79,6.327-5.4,8.437-7.04a13.637,13.637,0,0,0,2.578-2.34q0-.225-28.828-0.23t-29.062.23h0Zm121.64-30.23-0.469,1.87a27.635,27.635,0,0,1-1.523,5.74c-0.861,2.43-1.681,4.65-2.461,6.68q-1.176,2.58-3.281,6.8-1.88,3.75-4.453,8.44-2.11,3.75-4.688,7.73-2.582,4.215-3.047,4.92a7.818,7.818,0,0,0-1.406,2.11c-0.157.47-.117,0.71,0.117,0.71a8.252,8.252,0,0,0,2.227-1.18q1.873-1.17,3.515-2.34,1.874-1.41,3.985-3.28a59.714,59.714,0,0,0,4.453-4.45l2.109-2.35,0.235,14.77,0.234,14.76h1.875a5.862,5.862,0,0,0,3.047-.7,5.457,5.457,0,0,0,1.875-1.17,11.374,11.374,0,0,0,1.406-1.64l0.469-.71h27.187v2.11l0.235,2.11h1.64a7.437,7.437,0,0,0,2.813-.47,9.072,9.072,0,0,0,2.109-1.17,4.666,4.666,0,0,0,1.407-1.64l0.7-.94h31.64v-4.45H838.336v-6.8H868.57v-4.45H838.336v-6.8H868.57v-4.68H838.336v-7.5H868.57v-4.69H837.164l0.938-1.17a23.668,23.668,0,0,0,1.406-2.35,6.445,6.445,0,0,0,.7-2.57,17.74,17.74,0,0,0,.469-4.93v-3.51H828.727v14.53H815.6q-13.129,0-13.125-.23c0-.16-0.158-0.24-0.469-0.24s0.311-1.41,1.875-4.22a69.182,69.182,0,0,0,3.281-7.5,16.732,16.732,0,0,0,1.406-3.98l0.235-1.17H796.617Zm31.406,22.03v7.5H802.477v-7.5h25.546Zm0,12.18v6.8H802.477v-6.8h25.546Zm0,11.25v6.8H802.477v-6.8h25.546Zm-3.515,16.88v5.16l-22.969.23H778.805v4.45h45.7v1.64c0,1.1-.081,1.64-0.235,1.64a40.222,40.222,0,0,1-4.687-1.17q-4.455-1.17-4.922-1.4-0.236,0-6.328,4.68-6.1,4.935-7.734,6.1-1.643.93-4.454,2.58a58.967,58.967,0,0,1-5.39,2.57q-2.812,1.185-5.391,2.23a35.226,35.226,0,0,1-5.859,1.76,17.416,17.416,0,0,0-3.047,1.05,6.06,6.06,0,0,0,1.289,1.06,3.994,3.994,0,0,0,1.992.94c0.469,0,2.344-.32,5.625-0.94s6.328-1.33,9.141-2.11q4.449-1.17,8.2-2.35a22.822,22.822,0,0,0,4.922-2.1q1.637-.945,9.14-6.1t7.618-5.04q0.115,0.12.117,13.48v13.12h1.406a7.357,7.357,0,0,0,2.813-.7,6.692,6.692,0,0,0,3.046-1.99,11.184,11.184,0,0,0,2.11-3.17,8.733,8.733,0,0,0,.586-2.34q0.115-1.17.117-6.33c0.154-4.68.271-7.11,0.352-7.26s1.442,0.55,4.1,2.11q3.982,2.1,6.8,3.51a34.945,34.945,0,0,0,6.328,2.58,54.282,54.282,0,0,0,6.328,1.64,52.974,52.974,0,0,0,5.625.94c1.718,0.16,4.219.23,7.5,0.23a38.521,38.521,0,0,0,5.86-.23,1.37,1.37,0,0,0,1.171-.94l0.235-1.17c0-.15-0.235-0.24-0.7-0.24-0.315,0-1.722-.23-4.219-0.7s-5-1.01-7.5-1.64q-3.516-.93-6.8-2.11-2.812-.93-5.625-2.11-2.346-1.17-10.078-6.33l-7.734-5.15,19.453-.24h19.453v-4.45H854.977l-20.157-.23v-2.58l-0.234-2.58H824.508Z"/>
</svg>
