<svg xmlns="http://www.w3.org/2000/svg" width="400" height="200" viewBox="0 0 400 200">
  <defs>
    <style>
      .cls-1 {
        fill: #fdfdfd;
        fill-rule: evenodd;
      }
    </style>
  </defs>
  <path id="字体视界法棍体" class="cls-1" d="M52.922,90.883q-2.628.378-3.844,0.656t-2.906.75q-1.687.47-1.5,1.594t1.688,0.656q1.5-.466,4.5-1.219a41.029,41.029,0,0,1,8.063-.937q3.375,0.378.938,3.938a29.677,29.677,0,0,1-5.062,5.813q-13.126.752-16.406,1.594T35.578,105.7c0.311,0.75,1,.909,2.063.469a35.317,35.317,0,0,1,7.313-1.312A88.252,88.252,0,0,1,54.8,104.2l0.188,9.75q0.373,5.625-1.594,5.063a7.016,7.016,0,0,1-3.281-1.969q-1.314-1.406-2.062-.75t0.375,1.969a9.191,9.191,0,0,0,3.094,2.25,5.178,5.178,0,0,0,3.469.562q1.5-.378,1.969-2.531T57.047,104.2a48.932,48.932,0,0,1,14.437.75q3,0.941,3.469-.187t-1.125-1.594a39.982,39.982,0,0,0-5.812-.937,72.047,72.047,0,0,0-10.031-.282,28.24,28.24,0,0,0,4.594-5.812,5.236,5.236,0,0,0,.656-3.562,4.874,4.874,0,0,0-4.312-2.25q-3.375.189-6,.563h0Zm2.156-12q-1.033,0-.094,2.063l0.563,2.063q-10.125.94-13.125,3,0.373-2.435-1.687-2.625a2.82,2.82,0,0,0-2.25,1.688,14.718,14.718,0,0,0-1.312,8.813q0.563,2.25,2.063,2.156T41.2,93.977q0.466-1.969,1.031-5.719,1.5-1.31,7.125-2.625A49.7,49.7,0,0,1,62.3,85.07q6.934,0.94,8.344,3.281a6.332,6.332,0,0,1,.75,4.969q-0.659,2.628.656,2.438T73.641,92.2a7.991,7.991,0,0,0-2.25-6.187q-2.531-2.812-13.969-3l-0.562-2.062Q56.108,78.884,55.078,78.883ZM116.2,86.945a18.155,18.155,0,0,1,4.969.938q2.061,0.751,2.437-.281t-2.25-1.687a31.572,31.572,0,0,0-4.687-.844q-2.065-.185-4.5-0.187a21.446,21.446,0,0,0-.844-5.625q-0.659-1.872-1.969-1.875T108.8,79.164a21.272,21.272,0,0,1,1.125,5.719,71.811,71.811,0,0,0-7.313.844,23.686,23.686,0,0,0-4.5,1.313q-2.065.844-1.594,1.594t2.813-.187q2.343-.936,10.781-1.687,0.184,3.19.375,6.563a40.1,40.1,0,0,0-8.625,9.188,52.577,52.577,0,0,0-4.593,7.687q-1.033,2.439.094,3t2.907-4.125q1.779-4.684,10.218-13.312,0,7.875-.75,15.562-3.19-.562-4.125-0.093t-0.187,1.031q0.747,0.563,4.312,1.125a14.188,14.188,0,0,1-1.031,3.75q-0.843,2.066.375,2.156t1.969-1.875a15.211,15.211,0,0,0,.937-4.031q5.81-.184,5.813-1.313c0-.75-0.627-1.031-1.875-0.843a16.428,16.428,0,0,1-3.938.093q0.563-7.686.563-15.375,2.435,1.314,6.187,7.032t3.563,7.968q-0.189,2.25.844,1.875t0.937-3.187q-0.1-2.812-4.687-9.094t-6.844-6.469q0-3.56-.188-7.125A18.757,18.757,0,0,1,116.2,86.945Zm-29.344-.937q-4.5,6.188-4.312,9.563a1.144,1.144,0,0,0,1.313.75h0.188q2.435-.185,7.688-6.562,4.685-6.372,4.5-9,0-1.5-1.125-1.312-3.19.378-8.25,6.563h0Zm5.344,31.5a18.778,18.778,0,0,1-1.5-5.063,42.077,42.077,0,0,1,.188-7.687A66.692,66.692,0,0,1,92.2,95.664q0.844-3.656.281-4.312t-0.937-.094a12.775,12.775,0,0,0-1.031,2.625,56.662,56.662,0,0,0-1.406,8.719,54.367,54.367,0,0,0-.469,9.843,13.856,13.856,0,0,0,1.5,5.438q1.217,2.25,2.156,2.437Q93.422,120.32,92.2,117.508Zm38.344-25.5a1.149,1.149,0,0,0,1.594,1.031q1.406-.281,2.531-0.562a27.015,27.015,0,0,1,4.125-.469,22.453,22.453,0,0,1,5.062.563q2.434,0.563-.375,4.5a65.754,65.754,0,0,1-10.875,10.688q-2.25,1.5-1.406,2.344t3.563-1.219a30.021,30.021,0,0,0,4.218-3.75q-0.378,4.127-.375,7.125a36.532,36.532,0,0,0,0,5.437q0.374,3.749,1.875,3.938t0.75-1.875a11.053,11.053,0,0,1-.75-3.75q0-1.687.188-3.938a53.906,53.906,0,0,1,.562-9,23.608,23.608,0,0,0,4.313,4.125q2.25,0.378,1.5-.843a10.187,10.187,0,0,0-2.063-2.344,16.254,16.254,0,0,1-2.437-2.625,34.7,34.7,0,0,0,4.687-6.188q1.688-2.812-1.312-4.312-2.812-1.5-10.5-.75Q130.36,90.7,130.547,92.008Zm6.75-7.687q0.563,3.753,2.437,3.938,2.25,0,2.438-4.125-0.378-3.749-2.625-4.125-2.25.563-2.25,4.313h0Zm24,25.688q0.184-1.5.281-3.375t-1.031-1.969q-1.125-.092-1.313,3.844a31.3,31.3,0,0,0,0,4.875,10.482,10.482,0,0,0,.563,3.937q1.309,3.564,6.75,3.375,5.809-.378,5.062-6.187-0.751-4.873-2.25-4.406t-0.562,2.25a6.683,6.683,0,0,1,.656,4.031q-0.281,2.25-3.656,2.25-3.375.563-4.5-3.375A34.843,34.843,0,0,1,161.3,110.008Zm-9.938-30q-1.876-.374-1.875,3.938a175.047,175.047,0,0,0-.187,17.813q0.184,4.689,2.437,4.687,2.061,0.563,2.438-4.687,0.184-2.434.75-18.188,1.872-.747,3.656-1.312a12.062,12.062,0,0,1,3.656-.562q5.063-.374,5.438,4.875a56.2,56.2,0,0,1-.188,12.188,35.97,35.97,0,0,1-.75,4.781q-0.562,2.532.75,3t1.875-5.719q1.309-11.25,0-17.062-0.941-4.122-7.125-4.312a16.031,16.031,0,0,0-7.687,2.25,3.378,3.378,0,0,0-3.188-1.687h0Zm9,11.344q-1.314-.655-1.406,1.594a40.572,40.572,0,0,1-1.219,6.938,64.729,64.729,0,0,1-7.312,18.375c-1.377,1.377-1.688,2.279-.938,2.719s1.688-.22,2.813-1.969a65.272,65.272,0,0,0,7.312-18.188Q161.67,92.009,160.359,91.352Zm31.594-12.469q-5.158,1.125-5.906,1.875a5.422,5.422,0,0,0-2.813-2.25q-2.439,1.125-2.25,4.688a59.386,59.386,0,0,0,2.25,12.188q0.936,3.753,3.563,4.125a2.858,2.858,0,0,0,2.062-2.25q3.375,0.189,8.25.188,4.122-.185,5.813-0.375-1.314.94,2.062,2.438,6.75,3.938,13.5,8.437,1.688,1.125,2.25.282t-0.562-1.594a146.016,146.016,0,0,0-15.938-9.563q2.061,0,6.563-.187,2.434,0.189,2.812-.469t-0.562-1.594a28.676,28.676,0,0,0,.75-5.062,14.767,14.767,0,0,0,.375-3.187q0.374-7.686-8.25-8.25A52.661,52.661,0,0,0,191.953,78.883Zm0.938,19.688q-1.033-.747-1.969,1.125-3.375,4.315-12.563,11.438-1.125,1.125-.656,1.687c0.311,0.375.844,0.314,1.594-.187a56.514,56.514,0,0,0,13.312-12Q193.919,99.323,192.891,98.57Zm0.187,5.719c-0.562.065-.908,0.656-1.031,1.781a45.042,45.042,0,0,1-4.125,13.125q-0.941,1.688,0,2.063a1.348,1.348,0,0,0,1.687-.75,47.021,47.021,0,0,0,4.5-14.438C193.983,104.822,193.641,104.228,193.078,104.289Zm10.125,1.594q0.093,1.688.188,7.219t0.093,7.125c0,1.06.311,1.623,0.938,1.687s0.937-.533.937-1.781v-7.125q0-5.247-.093-7.031c-0.065-1.187-.469-1.782-1.219-1.782Q203.106,104.2,203.2,105.883Zm8.719-20.25a36.984,36.984,0,0,1-1.125,9,114.008,114.008,0,0,1-12.563.75,50.463,50.463,0,0,0,.563-7.5,28.428,28.428,0,0,1,5.156.469q2.532,0.47,2.531-1.031t-7.875-1.5a28.616,28.616,0,0,0-.562-5.625,37.721,37.721,0,0,1,7.5,0q6.188,0.751,6.375,5.438h0ZM195.8,80.383a38.162,38.162,0,0,1,.75,5.438,40.2,40.2,0,0,0-9.188,1.5,39.4,39.4,0,0,1-.75-4.687,30.09,30.09,0,0,1,9.188-2.25h0Zm0.75,7.5a50.463,50.463,0,0,1-.563,7.5q-4.878,0-7.125-.187a48.691,48.691,0,0,1-.937-5.812,50.131,50.131,0,0,1,8.625-1.5h0Zm54.656-9a16.871,16.871,0,0,1,1.031,4.313,45.594,45.594,0,0,0-7.312.75q-4.316.563-3.563,2.063,0.184,0.94,4.125,0a28.5,28.5,0,0,1,6.75-.562,15.309,15.309,0,0,1-.937,8.438q-5.814.563-9.188,1.125-4.5.563-4.312,1.313-0.378,1.688,4.312.75,4.684-.562,6.938-0.75a48.9,48.9,0,0,1-3.281,6.094q-2.347,3.846-4.594,7.969-2.439,4.878-1.125,6.375,1.688,2.066,6,1.5a132.364,132.364,0,0,0,17.437-2.438q0.185,0.941.375,2.25,0.374,2.439,1.5,2.063t0-5.438a30.8,30.8,0,0,0-3.187-9.187q-2.25-3.559-3.094-2.625t1.406,3.75q0.747,1.688,1.5,3.562a18.116,18.116,0,0,1,1.125,3.375,77.293,77.293,0,0,1-17.812,2.438q-2.628.378-3.188-.938c-0.252-.249-0.187-0.937.188-2.062q2.813-5.436,5.25-9.375,2.061-3.559,4.687-7.688,2.434,0,10.688.188,5.063,0.751,4.781-.469T263.3,94.07q-5.625-.374-9.375-0.375a18.146,18.146,0,0,0,.562-8.437c0.249,0,1.093.064,2.532,0.188s2.592,0.188,3.468.188q4.122,0.751,3.75-.375,0-1.872-4.5-1.687a34.714,34.714,0,0,0-5.25-.375,15.961,15.961,0,0,0-1.125-4.594q-0.751-1.591-1.687-1.219Q250.547,77.383,251.2,78.883ZM231.8,107.2a54.549,54.549,0,0,0-2.438,5.25,19.37,19.37,0,0,0-1.125,3q-0.941,3.564.563,5.25,2.25,0.747,4.312-2.625a39.235,39.235,0,0,0,3.938-9.187q0.936-4.122-1.313-4.875-2.066-.747-3.937,3.187h0Zm0-26.062q-2.439-.562-2.438.375t1.875,1.406a4.827,4.827,0,0,1,2.907,1.969q1.028,1.5,1.968,1.313t0-2.062A7.644,7.644,0,0,0,231.8,81.133Zm-2.25,13.031q-2.628-.655-2.719.281t1.969,1.5a5.722,5.722,0,0,1,3.187,2.063q1.125,1.5,1.969,1.125t-0.094-1.687A7.147,7.147,0,0,0,229.547,94.164Zm63-9.656a86.56,86.56,0,0,0,0,11.438q0.563,3.564,2.812,4.688a2.8,2.8,0,0,0,2.438-1.5h7.312q3.749-.185,7.125-0.562,2.813-.185,3.094-1.125t-1.406-1.125a22.847,22.847,0,0,0,.75-9.937A6.523,6.523,0,0,0,309.8,81.32a29.321,29.321,0,0,0-8.813-.187,7.438,7.438,0,0,0-3.75,1.688,3.42,3.42,0,0,0-2.25-2.437q-2.25.751-2.437,4.125h0ZM305.3,99.883q-1.125.189-1.5,2.812a54.366,54.366,0,0,0-.188,11.813,7.418,7.418,0,0,0,7.125,6.187q5.625,0.185,6.563-3.375a8.419,8.419,0,0,0,.375-3.937q-0.378-2.061-1.313-2.25t-0.562,1.875q-0.189,1.125-.375,2.25,0,3.938-5.063,3.375-3.564-1.125-4.5-3.75-0.562-1.687-.375-6.938a26.722,26.722,0,0,1,6-.843c1.125,0.064,2,.093,2.625.093q2.435,0.563,2.063-1.125-2.812-1.872-10.688-.187,0.374-3.186.375-3.938Q306.422,99.7,305.3,99.883ZM294.7,102.7q0.282-1.309-.844-1.218t-1.687,2.906q-1.5,6.939-.75,11.062a4.98,4.98,0,0,0,4.5,4.313,7.1,7.1,0,0,0,5.25-1.875q1.5-1.309.656-1.969c-0.562-.436-1.189-0.31-1.875.375a6.787,6.787,0,0,1-2.906,1.594q-3.191-.184-3.563-2.625-0.562-2.061.188-8.063a13.955,13.955,0,0,1,6.937.563q1.31,0,1.125-1.125T299.3,105.32a13.482,13.482,0,0,0-5.25-.187A22.938,22.938,0,0,0,294.7,102.7Zm11.344-12.75q2.434,0.563,2.437-.375t-3.187-1.5a14.813,14.813,0,0,0-7.5.938,30.666,30.666,0,0,0-.188-3.937,6.73,6.73,0,0,1,4.313-2.062,13.275,13.275,0,0,1,5.437,0q3.56,0.378,4.875,2.813,1.5,3.19-.375,10.688a59.065,59.065,0,0,1-7.5.563q-3.375,0-6.375-.187V91.07a18.339,18.339,0,0,1,8.063-1.125h0Zm-17.625,10.219q1.688,1.407,2.156.469t-0.844-2.25q-1.314-1.31-5.437-2.062a45.993,45.993,0,0,1,.375-8.062,13.593,13.593,0,0,1,4.5.563q1.5,0.563,1.031-.844T284.859,86.2a25.356,25.356,0,0,1,.563-4.406q0.563-2.9-.656-2.719T282.8,86.2a20.7,20.7,0,0,0-6,.75q-2.439.378-2.25,1.5,0,1.125,2.25.375a18.85,18.85,0,0,1,5.812-.562c0,0.375-.064,1.219-0.187,2.531s-0.188,2.657-.188,4.031q-1.314,0-2.812,1.875-2.628,4.878-5.25,9.563-1.5,3.375.187,4.5a3.559,3.559,0,0,0,3.938-2.25q1.688-1.872,3.937-7.5,0,6.75.188,9.469t0.656,6.656q0.467,3.938,1.406,3.75,0.936,0.374,1.125-1.875A93.94,93.94,0,0,1,284.3,106.82V98.57A7.132,7.132,0,0,1,288.422,100.164ZM356.2,86.945a18.155,18.155,0,0,1,4.969.938q2.061,0.751,2.437-.281t-2.25-1.687a31.572,31.572,0,0,0-4.687-.844q-2.066-.185-4.5-0.187a21.446,21.446,0,0,0-.844-5.625q-0.658-1.872-1.969-1.875T348.8,79.164a21.272,21.272,0,0,1,1.125,5.719,71.811,71.811,0,0,0-7.313.844,23.69,23.69,0,0,0-4.5,1.313q-2.065.844-1.593,1.594t2.812-.187q2.343-.936,10.781-1.687,0.185,3.19.375,6.563a40.1,40.1,0,0,0-8.625,9.188,52.471,52.471,0,0,0-4.593,7.687q-1.034,2.439.093,3t2.907-4.125q1.779-4.684,10.218-13.312,0,7.875-.75,15.562-3.19-.562-4.125-0.093t-0.187,1.031q0.747,0.563,4.312,1.125a14.188,14.188,0,0,1-1.031,3.75q-0.843,2.066.375,2.156t1.969-1.875a15.211,15.211,0,0,0,.937-4.031q5.81-.184,5.813-1.313c0-.75-0.627-1.031-1.875-0.843a16.428,16.428,0,0,1-3.938.093q0.563-7.686.563-15.375,2.434,1.314,6.187,7.032t3.563,7.968q-0.189,2.25.844,1.875t0.937-3.187q-0.1-2.812-4.687-9.094t-6.844-6.469q0-3.56-.188-7.125A18.757,18.757,0,0,1,356.2,86.945Zm-29.344-.937q-4.5,6.188-4.312,9.563a1.144,1.144,0,0,0,1.312.75h0.188q2.434-.185,7.687-6.562,4.685-6.372,4.5-9,0-1.5-1.125-1.312-3.19.378-8.25,6.563h0Zm5.344,31.5a18.811,18.811,0,0,1-1.5-5.063,42.09,42.09,0,0,1,.188-7.687,66.685,66.685,0,0,1,1.312-9.094q0.845-3.656.281-4.312t-0.937-.094a12.75,12.75,0,0,0-1.031,2.625,56.551,56.551,0,0,0-1.407,8.719,54.3,54.3,0,0,0-.468,9.843,13.837,13.837,0,0,0,1.5,5.438q1.216,2.25,2.156,2.437Q333.422,120.32,332.2,117.508Z"/>
</svg>
