<svg xmlns="http://www.w3.org/2000/svg" width="1540" height="1450" viewBox="0 0 1540 1450">
  <defs>
    <style>
      .cls-1 {
        fill: #fff;
      }

      .cls-1, .cls-2, .cls-3 {
        fill-rule: evenodd;
      }

      .cls-2 {
        fill: #fefefe;
      }

      .cls-3 {
        fill: #fdfdfd;
      }
    </style>
  </defs>
  <path id="字体名称" class="cls-1" d="M173.812,278.935l3.2,4.8c1.2,1.8,3.2,6,6,12.8l13.6-16.8v43.2c0,4.8,0,9.2-.4,13,0,3.8-.4,8.8-0.8,14.6q6.6-.6,8.4-0.6c1.6,0,4.4.2,9.2,0.6l-0.4-6.4v-20.4h19.6v5a8.378,8.378,0,0,1-.4,2.8v4.4a85.522,85.522,0,0,1,10-.8h6.4a64.935,64.935,0,0,1-11.2,12.4l-4.8,3.8,8.8,4c2,0.8,5.2,3.2,9.6,7.4l3.6-4.8c9.2-12.2,14.8-22.4,17.2-30,2.4-8,4-14.2,5.2-19.2,0.8-4.8,1.6-9.4,2-13.8a70.492,70.492,0,0,0,1.2-12.6c0-4,.4-8.4.8-13h51.6l-2.4,8.4a85.632,85.632,0,0,1-2.8,10.2c-2,4.6-3.6,8.8-5.2,12.6a90.2,90.2,0,0,1-7.2,13.2l-3.6-6.2a43.582,43.582,0,0,1-3.6-8.8c-1.2-3.8-2.8-11-5.6-21.6a44.072,44.072,0,0,1-16.8,2c4.8,15,8,25,10,29.8s4.8,10.6,8.4,17.4a114.109,114.109,0,0,1-15.2,11.2,83.819,83.819,0,0,1-18,8l-6.8,2a61.961,61.961,0,0,1,9.6,9.2,59.614,59.614,0,0,1,4,6.4l8-4.6a169.049,169.049,0,0,0,29.6-20.8,208.333,208.333,0,0,0,29.6,20.2l7.2,4.4c2.8-5.8,5.2-10,7.2-12.4a49.491,49.491,0,0,1,7.2-8.6l-7.6-1.4a81.99,81.99,0,0,1-17.6-5.4c-5.2-2.4-8.8-4.2-10.4-5.2-1.2-1-2.8-2.4-4.8-4a229.16,229.16,0,0,0,13.6-25.2,162.847,162.847,0,0,0,8.8-24.6c2-8.8,4-16.2,5.2-22.6-8.8.6-15.6,1-20.4,1h-14.8v-32.4h23.6l-1.6,5.4c-0.8,2.6-3.2,7.2-6,13.8q8.4-.6,12,0c2,0.4,4,1,6.8,1.8l11.6-37.8c-8,.6-14.8,1-20,1h-26.4v-17.2c0.4-2.8.4-6.8,0.8-12a74.878,74.878,0,0,1-9.6.8,60.67,60.67,0,0,1-8.8-.8l0.8,11.6c0.4,1.8.4,5.6,0.4,11.4v6.2h-17.2c-4.4.2-11.2-.2-21.2-1l1.2,35v17.2q0,13.2-1.2,27a144.684,144.684,0,0,1-4,25.2,90.856,90.856,0,0,1-9.2,23.8l-0.8-12.2v-64.8c0-2.4.4-5.8,0.8-9.6a171.9,171.9,0,0,1-17.2,1h-16.8c2.8-8.2,4.8-14.2,6-18.2,0.8-3.8,2.4-8.4,3.6-13.8h6.8c5.6,0,13.2.4,22.8,1l-0.8-6.2v-2.6a12.34,12.34,0,0,1,.4-3.6,34.773,34.773,0,0,1,.4-5.8c-7.6.6-15.2,1-22.8,1h-27.2c-6.8,0-14.4-.4-22.8-1l0.4,5.6v6.6a39.554,39.554,0,0,1-.4,6c10-.6,17.6-0.8,22.8-1h4c-1.6,5.8-2.8,10.8-4,15-1.6,4-3.2,8.6-5.6,14a61.826,61.826,0,0,1-7.6,14,106.417,106.417,0,0,1-8,10.4c-2.8,3-4.4,5-5.6,6.2Zm38.8,29.4v-46h19.6v46h-19.6Zm68.4-54.4v-32.4h20.4v32.4h-20.4Zm99.4,96.4c7.4,2.4,12.2,4.4,14.2,6a47.657,47.657,0,0,1,6.2,5.4l4.2-6.6c8.2-13.4,13.2-24.2,15.6-32.8a166.584,166.584,0,0,0,4-24c0.6-7.4.8-13.4,1-18.4s0.4-10.4.6-16.2h98.8q17.1,0,34.2,1.2l-0.6-5.8a4.8,4.8,0,0,1,0-2.4v-3.2c0.2-1.2.4-3,.6-5.2q-20.1,1.2-34.2,1.2h-15.8q7.5-13.2,9.6-16.8l5.4-9a77.73,77.73,0,0,1-17.2-7.4h12.4q18,0,36,1.2l-0.4-5.8a9.025,9.025,0,0,1-.2-2.6,23.123,23.123,0,0,1,.2-3.4c0-1.4.2-3.2,0.4-5.8-13.8,1-26,1.4-36.6,1.4h-33.4a94.65,94.65,0,0,1,11.8-3.2l-16-25.6a51.9,51.9,0,0,1-10.2,5.4,46.913,46.913,0,0,1-8.4,2.6l4.2,5.2a57.016,57.016,0,0,1,7.4,11.4l2,4.2h-36.6c-10.4,0-22.4-.4-36-1.4l0.6,5.6v6.4c-0.2,1-.4,3-0.6,5.6q17.7-1.2,36-1.2h65.6l-2.6,8.2c-1.8,5.8-5.4,14.2-10.8,25h-34.4c3.2-1.4,6.6-2.6,10-4l-19.2-27.8a46.194,46.194,0,0,1-8.4,4.6c-2.4.6-5,1.4-8.4,2.2l5.2,5.8a54.193,54.193,0,0,1,9,13.8l2,5.4h-20.2c-4.6,0-11-.4-19.6-1l1.2,19.6v3.8c-0.2,1-.2,4-0.4,8.4,0,4.8-.2,9.6-0.4,14.6a131.813,131.813,0,0,1-2,15.2,56.847,56.847,0,0,1-6,16.4,61.908,61.908,0,0,1-13,17.2Zm199-67.4,0.8,7.2a26.437,26.437,0,0,1-.4,5.4,43.5,43.5,0,0,1-.4,7c12-1,21.6-1.6,28.8-1.6h57.2v27.8c0,4.8-.4,8-1.6,9.2-0.8,1.6-2.8,2.6-5.2,3.2-2.8.8-8,.8-16,0l-4.8-.6a96.442,96.442,0,0,1,5.6,10.8c0.8,2.6,1.2,4.6,1.6,6.2a22.808,22.808,0,0,0,.4,5.2c14.8-2,24-4,28.4-6,4-2,6.8-4.2,8-6.8a31.925,31.925,0,0,0,1.6-10.2v-38.8h47.6c6.8,0,16.4.4,29.2,1.4l-0.8-5.4v-7.4c0.4-1.4.4-3.6,0.8-6.6-13.6,1-23.2,1.4-29.2,1.4h-47.6v-8.2l3.6-2.2a169.246,169.246,0,0,1,18-11.6c7.2-4.6,12.4-7,15.2-7.4l4.4-.4-0.4-6.2c-0.4-.6-0.4-1.4-0.4-2.8v-4.4c0-1.2.4-3.6,0.8-6.6-12,1-20.8,1.4-26.8,1.4l-58.8.2c-4,0-12.4-.6-24.8-1.6l0.4,6.6a10.53,10.53,0,0,1,0,5c0,1.8-.4,3.8-0.4,6,11.6-1,20-1.4,24.8-1.4h58.4a147.68,147.68,0,0,1-27.6,16l-5.2,2.6,0.8,6.4v8.6h-57.2C603.412,284.335,593.812,283.935,579.412,282.935Zm7.6-40.6a164.983,164.983,0,0,1,20,0l-0.8-5.6c0-1.4-.4-4-0.4-7.8v-13.8h128v19.8c-0.4,1.8-.4,4.2-0.8,7a59.5,59.5,0,0,1,9.6-.4c2,0,5.6.2,10,.4l-0.4-6.8a37.887,37.887,0,0,1-.4-7.4v-12.6a49.689,49.689,0,0,1,.4-7.6,86.021,86.021,0,0,1,.8-9.2c-11.6.8-18.8,1.2-22,1.2h-45.6l-6.4-23-6.4,1.8c-1.6.6-6.8,1-15.2,1.4l4.8,9.4c0.8,1.2,2,4.6,4,10.4h-56.4q-3.6,0-22.8-1.2l0.4,8c0.4,3.8.8,6.8,0.8,8.6v14c0,2.2-.4,4.4-0.4,6.2A64.973,64.973,0,0,1,587.012,242.336Zm186.8,17c4.4,3.4,7.2,6.4,8.4,8.6,1.6,2.4,2.8,5,4.4,7.8l1.6-2.6c5.6-8.6,10.8-17.4,16-26.2v79.8c0,6.2-.4,11.8-0.4,16.8q-0.6,7.8-1.2,19.8c4.4-.4,7.6-0.6,10.4-0.6a40.216,40.216,0,0,1,9.2.6l-1.2-13.8c-0.4-3.8-.4-9-0.4-15.8v-12.2c4.8,2,8,3.6,9.6,5,1.2,1.4,2.8,2.6,4,3.8l3.2-3.8a181.683,181.683,0,0,0,12.8-17.2l0.8,4.8v5.8a49.085,49.085,0,0,0-.8,5.2c8.8-.6,14.4-1,17.2-1h16v25.8a134.768,134.768,0,0,0-.8,13.6,74.878,74.878,0,0,1,9.6-.8c1.6,0.2,4.8.4,10,.8l-0.8-12.2c-0.4-6-.4-9.6-0.4-10.6v-16.6h14.4c2.8-.2,8.4.2,16.4,1l-0.8-6.4v-10.2c4.8,6.8,9.2,13,13.6,18.8l2.8,3.2,6.8-6.2c1.2-1.4,5.2-4.2,11.6-8.4l-3.2-2c-3.2-1.8-8-6-14-12.4a97.6,97.6,0,0,1-15.6-21.8,107.9,107.9,0,0,1-10.4-24.6c-2.8-8.2-4-13.8-4.8-16.8a84.037,84.037,0,0,0-1.6-9.4h22c3.2,0,10.8.6,22.8,1.6l-0.8-5.8v-2.8a11.729,11.729,0,0,1,.4-4,38.731,38.731,0,0,1,.4-5.8c-10.4,1-18,1.4-22.8,1.4h-37.2v-12.4c0-2.2,0-5.4.4-9.8,0-4.4.4-9.6,0.8-15.6a86.008,86.008,0,0,1-9.6,1,82.685,82.685,0,0,1-10-1l0.4,13.2c0.4,6.6.4,10.6,0.4,12v12.6h-33.6a207.4,207.4,0,0,1-21.2-1.4l0.4,6.4a12.3,12.3,0,0,1,0,5.4c0,2-.4,4.2-0.4,6.6,10.8-1,18-1.6,21.2-1.6h18.4c-2.8,9.6-5.2,18.4-7.6,26.2a171,171,0,0,1-13.2,28.8,104.1,104.1,0,0,1-21.6,28l-5.2,4.4v-98.8c7.2-15.2,12-24.6,14.4-28l3.6-6.6a135.045,135.045,0,0,1-19.2-9l-2,7c-3.2,10.6-5.6,18.4-7.6,23.4s-5.2,11.2-8.8,18.6a164.546,164.546,0,0,1-12,19.4,155.016,155.016,0,0,1-12.8,14.4Zm77.2,48.8,5.2-7.6c1.2-1.8,3.2-6.2,6.8-12.8,3.2-6.6,6-13.2,8.8-19.6a158.709,158.709,0,0,0,6.4-20.2c2-7.2,3.2-13.6,4.8-19l0.4,0.2v80.4l-16.8-.2A120.267,120.267,0,0,1,851.011,308.135Zm50,1.4v-80.6h1.2l2.4,12.6c0.8,4.4,2,9.8,3.6,16s4,13.4,6.8,21.6c2.8,8,8,17.6,15.6,29a109.93,109.93,0,0,1-15.2,1.2Zm128.8-99,3.6,6.6a55.474,55.474,0,0,1,4.8,14.8l0.8,4.6a102.479,102.479,0,0,1,16.4-3.6l-10.4-27-6.4,2.6C1037.81,209.136,1034.61,209.736,1029.81,210.536Zm58,21.2,8.8,3.4c0.8,0.2,2.4,1.2,5.6,3l13.6-26.4a102.583,102.583,0,0,1-15.6-6.4l-0.8,3.8a82.434,82.434,0,0,1-3.2,8.2,91.942,91.942,0,0,1-4.8,9Zm-88.8,52c8.8-1,16-1.6,22-1.4h44v14.4h-53.2c-7.6,0-17.2-.6-28.4-1.6l0.8,5.6v2.8a9.931,9.931,0,0,1-.4,3.6,24.98,24.98,0,0,1-.4,4.8c14.8-1,24.4-1.4,28.4-1.4h119.6c5.6,0,15.2.4,29.2,1.4l-0.8-5.2v-6.2c0-1,.4-2.8.8-5.4-11.6,1-21.2,1.6-29.2,1.6h-50.4v-14.4h42.4c4.4-.2,12.4.4,23.6,1.4l-0.8-5.6v-6c0.4-1.4.4-3.2,0.8-5.6-11.6,1-19.6,1.6-23.6,1.6h-42.4v-14.4h42c4.4,0,11.2.4,20.8,1.2l-0.8-8.8-0.8-6v-38c0-1.4.4-3.4,0.4-6.4,0.4-3,.8-6.2,1.2-9.8-8.8.8-15.6,1.2-20.8,1.2h-98.4q-8.4,0-20.4-1.2l1.2,16.2v38c0,3.6,0,6.2-.4,7.6,0,1.4-.4,3.8-0.8,7.2q13.8-1.2,20.4-1.2h40.4v14.4h-44c-1.2,0-8.4-.6-22-1.6l0.8,5.8v6Zm22-42.6v-41h44v41h-44Zm60,0v-41h45.2v41h-45.2Zm31.6,81.8,3.2,2.8a61.771,61.771,0,0,1,6,6.2,52.167,52.167,0,0,1,6.8,7.4c1.2,2,3.2,4.8,5.2,8.6s3.6,6.4,4,8.2l2,4.8c5.6-4.2,12.4-7.6,19.6-10.6l-28.8-35-4.8,2.6A107.23,107.23,0,0,1,1112.61,322.934Zm-21.2-4.6-4.4,2.2a106.869,106.869,0,0,1-12,4l3.2,4.2a89.512,89.512,0,0,1,8.4,14c2.4,5,3.6,8.2,4.4,9.6l1.6,6c6-2.2,10-3.8,12-4.4,2.4-.6,5.2-1,8-1.6Zm-55.6,8,3.6,5.8a50,50,0,0,1,5.6,14.2c0.8,4.8,1.2,8.4,1.6,11v4.6a137.173,137.173,0,0,1,20.8-3l-13.2-36.6C1050.61,323.734,1044.61,325.134,1035.81,326.334Zm-56.8,27c7.6,3.6,11.6,5.8,12.8,7,1.6,0.8,3.2,2.4,5.2,4.2l2.4-3.6,5.2-7.6,9.2-14.2c2.4-3,4.4-6,6.4-8.6l4.4-5.2-8-3c-1.2-.6-4.4-2.2-9.6-5.2l-2,4.4a116.347,116.347,0,0,1-6,11.4c-3.2,5.6-8.4,11.4-16,17.4Zm194.8-94c4.4,3.4,7.2,6.4,8.4,8.6,1.6,2.4,2.8,5,4.4,7.8l1.6-2.6c5.6-8.6,10.8-17.4,16-26.2v79.8c0,6.2-.4,11.8-0.4,16.8q-0.6,7.8-1.2,19.8c4.4-.4,7.6-0.6,10.4-0.6a40.216,40.216,0,0,1,9.2.6l-1.2-13.8c-0.4-3.8-.4-9-0.4-15.8v-12.2c4.8,2,8,3.6,9.6,5,1.2,1.4,2.8,2.6,4,3.8l3.2-3.8a181.683,181.683,0,0,0,12.8-17.2l0.8,4.8v5.8a49.085,49.085,0,0,0-.8,5.2c8.8-.6,14.4-1,17.2-1h16v25.8a134.768,134.768,0,0,0-.8,13.6,74.878,74.878,0,0,1,9.6-.8c1.6,0.2,4.8.4,10,.8l-0.8-12.2c-0.4-6-.4-9.6-0.4-10.6v-16.6h14.4c2.8-.2,8.4.2,16.4,1l-0.8-6.4v-10.2c4.8,6.8,9.2,13,13.6,18.8l2.8,3.2,6.8-6.2c1.2-1.4,5.2-4.2,11.6-8.4l-3.2-2c-3.2-1.8-8-6-14-12.4a97.6,97.6,0,0,1-15.6-21.8,107.9,107.9,0,0,1-10.4-24.6c-2.8-8.2-4-13.8-4.8-16.8a84.037,84.037,0,0,0-1.6-9.4h22c3.2,0,10.8.6,22.8,1.6l-0.8-5.8v-2.8a11.729,11.729,0,0,1,.4-4,38.731,38.731,0,0,1,.4-5.8c-10.4,1-18,1.4-22.8,1.4h-37.2v-12.4c0-2.2,0-5.4.4-9.8,0-4.4.4-9.6,0.8-15.6a86.043,86.043,0,0,1-9.6,1,82.685,82.685,0,0,1-10-1l0.4,13.2c0.4,6.6.4,10.6,0.4,12v12.6h-33.6a207.435,207.435,0,0,1-21.2-1.4l0.4,6.4a12.3,12.3,0,0,1,0,5.4c0,2-.4,4.2-0.4,6.6,10.8-1,18-1.6,21.2-1.6h18.4c-2.8,9.6-5.2,18.4-7.6,26.2a171,171,0,0,1-13.2,28.8,104.1,104.1,0,0,1-21.6,28l-5.2,4.4v-98.8c7.2-15.2,12-24.6,14.4-28l3.6-6.6a135,135,0,0,1-19.2-9l-2,7c-3.2,10.6-5.6,18.4-7.6,23.4s-5.2,11.2-8.8,18.6a164.546,164.546,0,0,1-12,19.4,155.016,155.016,0,0,1-12.8,14.4Zm77.2,48.8,5.2-7.6c1.2-1.8,3.2-6.2,6.8-12.8,3.2-6.6,6-13.2,8.8-19.6a158.709,158.709,0,0,0,6.4-20.2c2-7.2,3.2-13.6,4.8-19l0.4,0.2v80.4l-16.8-.2A120.267,120.267,0,0,1,1251.01,308.135Zm50,1.4v-80.6h1.2l2.4,12.6c0.8,4.4,2,9.8,3.6,16s4,13.4,6.8,21.6c2.8,8,8,17.6,15.6,29a109.93,109.93,0,0,1-15.2,1.2Z"/>
  <path id="中文示例" class="cls-2" d="M263.047,702.833l0.6,8.1c0.1,0.8.1,2.2,0.1,4.2v46.6c0,1.7-.1,3.8-0.3,6.4-0.2,2.7-.4,5.6-0.5,8.7q3.452-.3,5.1-0.3a37.286,37.286,0,0,1,4.2.3l-0.4-13.3h14.2v5c-0.1.4-.1,1-0.2,1.7q3.3-.3,4.8-0.3c1.1,0.1,2.6.2,4.6,0.3l-0.5-7.3c-0.1-1.7-.2-4.3-0.2-7.7v-40.1c0-1.9,0-3.7.1-5.3,0-1.6.1-3.9,0.4-7-5.5.5-8.9,0.7-10,.7h-11.5C272.148,703.533,268.648,703.333,263.047,702.833Zm8.8,53.5v-20.2h14.3l-0.1,20.2h-14.2Zm0-27.1v-18.3h14.3l-0.1,18.3h-14.2Zm12.7,56,5.1,1.7a36.494,36.494,0,0,1,5.5,3.2l1.8-1.7c1.5-1.7,2.9-3.2,4.3-4.7a60.971,60.971,0,0,0,4.4-6.4,59.86,59.86,0,0,0,4.2-8.4c1-3,1.8-5.2,2.2-7,0.4-1.6.8-3.5,1.1-5.5h21.8l-0.1,17.4a7.624,7.624,0,0,1-1,3.9c-0.5,1-2.1,1.4-4.7,1.4a34.573,34.573,0,0,1-8.1-1.3,39.793,39.793,0,0,1,3.1,4.6,11.422,11.422,0,0,1,.9,2.6c0.2,0.9.3,1.8,0.4,2.5v1.9a98.154,98.154,0,0,0,12.9-1.9,8.364,8.364,0,0,0,3.7-2.1,4.744,4.744,0,0,0,1.2-2.8,39.526,39.526,0,0,0,.3-6v-59.8c0-2.2,0-4.4.1-6.5s0.2-4.9.5-8.3c-3.2.3-6.9,0.4-11,.4h-17.4q-4.651,0-11.1-.6l0.7,14.8c0.1,1.2.1,3.1,0.1,5.5-0.1,2.6-.1,5.6,0,9.2v8.3c-0.1,3.9-.2,7.3-0.4,10.1a59.919,59.919,0,0,1-.9,8.4,48.3,48.3,0,0,1-2.4,8.6,36.928,36.928,0,0,1-4.7,8.7,29.856,29.856,0,0,1-8.9,7.7Zm29.1-35.9,0.1-15.8h21.2l-0.1,15.8h-21.2Zm0.1-23v-15.9h21.2l-0.1,15.9h-21.1Zm51.3,58.4a19.579,19.579,0,0,1,6.2,2,19.024,19.024,0,0,1,4.9,3.5l1.3-1.7a85.432,85.432,0,0,0,7.2-9.6,68.877,68.877,0,0,0,4.4-8.4,60.615,60.615,0,0,0,2.8-8.2c0.6-2.9,1.2-5.2,1.5-6.7l38.7-.1v16.9c0,2.2-.3,3.6-0.8,4.2-0.6.6-1.9,0.9-4,.9a22.856,22.856,0,0,1-2.5-.2l-3.4-.7-2.1-.3a43.417,43.417,0,0,1,3.1,6.8,12.441,12.441,0,0,1,.5,3.1,26.2,26.2,0,0,0,.1,2.8c10.3-.5,15.9-1.7,16.9-3.6s1.5-5.1,1.5-9.8v-61.7c0-1.1.1-2.6,0.2-4.6s0.3-4.5.5-7.6c-7.1.5-11.8,0.7-14.1,0.7h-30.1c-2.9,0-7.3-.2-13.4-0.7l0.8,13.3a57.925,57.925,0,0,1,0,6.1l0.1,13.1c-0.1,2.7-.2,6.2-0.3,10.7a124.864,124.864,0,0,1-2.2,16.4c-1.4,6.5-3.6,11.3-7,14.5a72.364,72.364,0,0,1-8.7,7.5Zm29.1-37.1,0.2-14.4h37.7v14.4h-37.9Zm0.2-22.4v-14.6h37.6l0.1,14.6h-37.7Zm72,60.7c4-.3,7.6-0.4,11-0.4h53.8v2.1a3.994,3.994,0,0,1-.2,1.3v2.3q3-.3,4.8-0.3c1.4,0,3,.1,5,0.3l-0.4-5.9a37.6,37.6,0,0,1-.2-6v-17.8a48.967,48.967,0,0,1,.2-5.9c0-1.5.2-3.6,0.4-6.3a45.356,45.356,0,0,1-5.2.4,42.775,42.775,0,0,1-5-.4l0.4,6.1a55.38,55.38,0,0,1,.2,6.1v15.5h-23v-34.8h20.4v0.7a4.5,4.5,0,0,1-.2,1.4v2.2c2.6-.3,4.4-0.4,5-0.4s2.2,0.1,5,.4l-0.4-5.8a39.109,39.109,0,0,1-.2-5.9v-22c0.2-1.5.2-3.7,0.6-6.5a37.649,37.649,0,0,1-5.2.4c-1.2-.1-3-0.2-5-0.4l0.2,6.5a59.325,59.325,0,0,1,.2,6.4v14.8h-20.4v-16.5c0-2.7,0-5.7.2-8.8q0-4.652.6-11.4a54.109,54.109,0,0,1-5.6.4,45.356,45.356,0,0,1-5.2-.4l0.4,10c0.2,3.1.2,6.4,0.2,9.9v16.8h-19.8v-13.7a61.326,61.326,0,0,1,.2-6.5c0-1.7.2-4.1,0.4-7.2-2.8.3-4.4,0.5-5,.5-0.6-.1-2.2-0.2-5-0.5l0.4,7.1v23.8c-0.2,1.3-.2,3-0.4,5.2,3.4-.3,6.4-0.4,9.6-0.5h19.6v34.8h-23v-16a49.663,49.663,0,0,1,.2-5.5c0-1.9.2-4.2,0.4-6.9-2.8.2-4.4,0.3-5.2,0.3a24.167,24.167,0,0,1-4.8-.3l0.4,6.3v25.4C466.548,781.638,466.548,783.538,466.348,785.938Zm90.3-6.9,4,2.6c1.3,0.9,2.9,3.1,5,6.8l1.4-.7,5.2-2.4a78.685,78.685,0,0,0,9.4-4.9,51.7,51.7,0,0,0,10.8-8.9,41.175,41.175,0,0,0,7.8-10.8c1.4-3.3,2.3-5.8,2.8-7.4q0.6-2.25,1.5-5.7c0.8,3.3,1.5,5.7,2.1,7.4,0.7,1.7,2.3,4.9,4.8,9.9a28.539,28.539,0,0,0,9.9,11.2,94.546,94.546,0,0,0,11.5,6.6c3.5,1.7,6.2,3,8.1,3.7l2,0.7,0.7-2.2c0.7-2.5,3-5.4,6.8-8.7l-2-.2-3.9-.4a45.367,45.367,0,0,1-7-1.7,31.738,31.738,0,0,1-9.1-5,74.218,74.218,0,0,1-6.6-5.6,37.958,37.958,0,0,1-4.4-6.4,48.042,48.042,0,0,1-3.8-7.5c-0.8-2.1-1.5-4-2.1-5.8h21c1.3,0,5.9.2,13.8,0.7l-0.4-2.8a8.618,8.618,0,0,1-.1-1.6,14.084,14.084,0,0,1,.1-2c0.1-.8.2-2,0.4-3.5-6.6.5-11.2,0.7-13.8,0.7h-25.2l2.1-20h15.5c3.5,0,8.3.2,14.3,0.7l-0.3-3.1a15.35,15.35,0,0,1,0-3.5l0.3-3c-7.7.5-12.4,0.7-14.3,0.7h-40.2c-3.6,0-8.6-.2-15-0.7l0.1,3.1v1.6a4.157,4.157,0,0,1,0,1.6,30.216,30.216,0,0,0-.1,3.3c7.5-.5,12.5-0.7,15-0.7h15.1l-0.3,5.7c0,1.9-.5,6.7-1.4,14.3h-22.3c-2.6,0-7-.2-13.2-0.7l0.4,3.6a7.569,7.569,0,0,1,.1,1.5c0,0.6-.1,1.2-0.1,1.8-0.1.8-.3,1.7-0.4,3,7.2-.5,11.8-0.7,13.8-0.7h20l-0.9,3.3c-0.3,1.3-1.2,3.7-2.5,7.2a45.852,45.852,0,0,1-7.2,11.4,32.945,32.945,0,0,1-13.9,9.4q-8.85,3.45-13.5,3.9Zm109.3,4.7c3.4-.2,6.9-0.4,10.5-0.5s22-.5,55.2-1.1v1.9a14.158,14.158,0,0,1-.1,1.9,25.35,25.35,0,0,1-.1,2.6c2.1-.1,3.7-0.2,5-0.3a21.178,21.178,0,0,1,4.8.3l-0.4-9.3c-0.1-2.9-.2-5.9-0.2-9v-30.4c0-4.1,0-7.2.1-9.1,0.1-2,.2-5,0.5-8.9-2.6.2-4.3,0.3-5.3,0.3a23.868,23.868,0,0,1-4.8-.3l0.4,8.9c0.1,1,.1,4,0.1,9.1v34.1l-23.6.4v-52.2c0-3.1.1-6.4,0.2-9.8,0.1-3.6.3-7.8,0.6-12.9a42.7,42.7,0,0,1-5.5.4,43.9,43.9,0,0,1-5.5-.4l0.4,11.4c0.1,2.7.2,6.5,0.2,11.3v52.3l-23.2.4v-37.1c0-3.1,0-5.8.1-7.8,0.1-2.1.2-5,.5-8.7a23.509,23.509,0,0,1-5,.3c-1.3,0-2.9-.1-5-0.3l0.4,8.2c0.1,1.6.2,4.3,0.2,8.1v29.9c0,2.5-.1,4.9-0.1,7.3C666.248,777.038,666.048,780.038,665.948,783.738Zm124.7-36.2,5,4.5a23.321,23.321,0,0,1,2.4,3.9l2-1.1c4.4-2.6,8.6-5,12.2-7.3l0.4,4.1c0,1.3.2,2.7,0.2,4.2v26.1a15.434,15.434,0,0,0,.6,3.8c0.6,1.4,2,2.5,4.6,3,2.4,0.5,9.4.8,20.6,0.7,10.4,0,17.2-.1,20.4-0.2a31.251,31.251,0,0,0,7.6-.9,7.545,7.545,0,0,0,3.8-2,32.486,32.486,0,0,0,2.4-3.8,76.184,76.184,0,0,0,3.8-9.1,16.323,16.323,0,0,1-5-2,22.523,22.523,0,0,1-4.6-4l-0.4,1.9-0.2,2.5c-0.2.8-.6,1.9-1,3.5a7.131,7.131,0,0,1-1.4,3.4,6.332,6.332,0,0,1-2.4,1.6,14.377,14.377,0,0,1-4.6.6c-2.2.2-8.8,0.2-20,.3-7.8.1-12.2-.1-13.4-0.4a2.976,2.976,0,0,1-2.2-1.5c0-.8-0.2-1.7-0.2-2.9v-23.2h29l-0.4,6.3a1.837,1.837,0,0,0-.2,1.2c-0.2.5-.2,1-0.4,1.4a3.289,3.289,0,0,1-1,1.6c-0.4.7-2.2,0.9-5.4,0.7-1.4-.1-3.4-0.3-6.4-0.7l2.8,3.2a11.529,11.529,0,0,1,1,1.8,18.576,18.576,0,0,1,.8,2.6c0,0.8.2,1.7,0.2,2.7a74.288,74.288,0,0,0,11.4-2.5c2.4-.8,3.8-1.8,4.2-3.1a12.958,12.958,0,0,0,.8-3.3c0.2-.9.2-1.7,0.4-2.2l0.8-9.9v-3.3c0.2-1,.4-2.2.6-3.7q4.5,2.25,9.6,4.5t6.6,2.7l1.2,0.5a53.14,53.14,0,0,1,3.6-7c0.8-.9,1.6-1.8,2.6-2.8l-2.2-.4a91.6,91.6,0,0,1-13.8-3.7,68.124,68.124,0,0,1-14.8-6.9,93.641,93.641,0,0,1-11.4-9l1.6-1.9a56.958,56.958,0,0,1-9.2-4.2l-1.2,2.2a46.754,46.754,0,0,1-3.6,4.3c-1.8,1.9-4.2,4.3-7,7.2-3,2.9-7.4,5.9-13.4,9.1a68.669,68.669,0,0,1-15.8,6.5Zm25-2.2a193.565,193.565,0,0,0,20-16.8,91.585,91.585,0,0,0,8.4,8.2,109.355,109.355,0,0,0,14.2,8.6c-3,.3-6,0.5-8.8.5h-25.4C821.448,745.836,818.648,745.636,815.648,745.336Zm-24.4-28.5c9.6-.5,16-0.7,19.4-0.7h5.2v4.2a11.443,11.443,0,0,1-.2,2.8c0,0.7-.2,1.8-0.2,3.1a43.719,43.719,0,0,1,4.6-.3q1.8,0,4.8.3l-0.4-3a11.067,11.067,0,0,1-.2-2.9v-4.2h23.4v6.4c-0.2,1-.2,2.2-0.4,3.6,2-.2,3.4-0.3,4.6-0.3,1,0,2.6.1,4.6,0.3l-0.4-3.2c0-.7-0.2-1.8-0.2-3.2v-3.6h7.2c3.8,0,10.4.2,19.6,0.7l-0.4-3.1v-3.2l0.4-3c-9.2.5-15.8,0.7-19.6,0.7h-7.2v-3.1a17.2,17.2,0,0,1,.2-3.2,35.782,35.782,0,0,1,.4-4l-4.6.4a26.77,26.77,0,0,1-4.6-.4l0.4,3.6v6.7h-23.4v-6.6c0.2-.9.2-2.1,0.4-3.7a35.064,35.064,0,0,1-4.6.4,43.636,43.636,0,0,1-4.8-.4l0.4,3.6a17.887,17.887,0,0,1,.2,3.7v3h-5.2c-4,0-10.4-.2-19.4-0.7l0.4,2.7v1.7a6.516,6.516,0,0,1-.2,1.8A20.919,20.919,0,0,1,791.246,716.834Zm99.1,0.6c6-.5,12.3-0.7,18.8-0.7h10.7v1.4a23.6,23.6,0,0,1-.2,3.2c0,1.4-.1,3.1-0.2,4.8a40.435,40.435,0,0,1,4.4-.3c1,0,2.5.1,4.4,0.3l-0.2-4.1c-0.1-.9-0.1-2.2-0.1-3.9v-1.4h18.1v1.4a22.749,22.749,0,0,1-.1,2.4c-0.1,1-.1,2.2-0.2,3.5,2.4-.3,3.9-0.4,4.4-0.4s2,0.1,4.5.4l-0.2-3a17.214,17.214,0,0,0-.2-2.5,0.918,0.918,0,0,1,.1-0.6v-1.2h10.9c6.1,0,11.9.2,17.5,0.7l-0.3-3.1a3.808,3.808,0,0,1-.1-1.3,11.483,11.483,0,0,1,.1-1.9,21.618,21.618,0,0,1,.3-2.9c-6.2.5-12,.8-17.5,0.8h-10.9v-1.5a7.193,7.193,0,0,1-.1-1.8c0.1-.8.1-2,0.2-3.4,0.1-1.3.2-3.3,0.4-5.8-2.3.2-3.9,0.3-4.6,0.3s-2.3-.1-4.6-0.3l0.3,5.3c0.1,0.9.1,2.8,0.1,5.6v1.6h-18.1v-1.6c0-2.2,0-3.9.1-5.2a41.232,41.232,0,0,1,.4-5.3,26.081,26.081,0,0,1-9.1,0l0.3,5.2c0.1,1.3.2,3.1,0.2,5.4v1.5h-10.6c-5.9,0-12.2-.3-18.9-0.8l0.2,2.8a10.9,10.9,0,0,1,.1,1.7v1.8C890.546,715.134,890.446,716.134,890.346,717.434Zm0.6,28.6,2.4,1.2a40.619,40.619,0,0,1,4.6,2.8,30.394,30.394,0,0,1,4.4,3.6l1.7,1.8,1.7-2.7a62.2,62.2,0,0,1,4.9-4.7l-13.3-9.1-0.9,1.7C895.547,742.236,893.647,744.036,890.946,746.036Zm4,38.1c3.7,1.5,6.1,2.6,7.1,3.5a34.576,34.576,0,0,1,2.6,2.3l1.1-3.2a31.2,31.2,0,0,1,1.5-3.3l4-8.8,3.9-8a23.022,23.022,0,0,1,1.7-3.3l1-1.7a35.816,35.816,0,0,1-5.2-4.6c-0.6-.9-1.2-2-1.9-3.3l-1,3a129.814,129.814,0,0,1-6.7,14.8,57.455,57.455,0,0,1-6.5,10.6Zm3.1-56.2,2.2,1.7,5,4.1a14.552,14.552,0,0,1,3,3.4l1.3,1.9a23.051,23.051,0,0,1,4.5-4.5,33.23,33.23,0,0,1,3.7-2.3l-12.2-10.3-2.3,2.7A17.789,17.789,0,0,1,898.047,727.935Zm19.3,17.8,4.9-.2,4.9-.3h2.5v30.4a41.847,41.847,0,0,1-.2,5.2c0,1.5-.2,3.4-0.3,5.6,4.2-.3,8-0.5,11.3-0.5h24.2c3.1,0,7.8.2,13.9,0.5l-0.3-2.9a12.647,12.647,0,0,1-.1-1.6,9.233,9.233,0,0,1,.1-1.5c0.1-.7.2-1.6,0.3-2.8-6,.3-10.6.5-13.9,0.5h-25.9v-32.9h28.2c5.5,0,10.9.2,16.4,0.6l-0.3-2.8a4.153,4.153,0,0,1-.1-1.3,29.563,29.563,0,0,1,.4-4.1c-6.5.4-11.9,0.6-16.4,0.6h-19.6l1.7-1.1c0.8-.5,3.2-1.2,7.1-2l-4.5-10.2a63.569,63.569,0,0,1-6.1,2c-1,.1-2.2.3-3.6,0.4l1.5,2.4a14.793,14.793,0,0,1,2.2,4.6c0.3,1.5.6,2.8,0.8,3.9h-11.6c-4.8,0-10.6-.2-17.5-0.6l0.3,2.5a4.227,4.227,0,0,1,0,1.6v1.4C917.548,743.736,917.448,744.636,917.348,745.736Zm76-4.8c11.5-.5,19.1-0.7,23-0.7h13.6l-1.6,3.2c-0.7,1.3-1.7,3.2-3.2,5.7s-2.8,4.7-4,6.6c-1.3,1.9-3.5,4.9-6.8,9-3.2,4.2-5.9,6.9-8,8a40.441,40.441,0,0,1-6.9,2.5l2.3,5.2c0.3,0.6.8,2.4,1.7,5.4,2.3-.5,5.5-1,9.6-1.7q6.15-.9,27-1.8l23.6-1c1.5,2.4,2.6,4.1,3.1,5l1.5,2.9,4.2-3.2a33.619,33.619,0,0,1,5.3-2.9l-23.2-30.4-3.7,2.6a21.071,21.071,0,0,1-4.9,2.4l2.8,2.9a110.937,110.937,0,0,1,10.5,13.7l-43.6,1c6.7-7.9,11.3-13.3,13.7-16.3l6.7-8.7,4.9-6.3a47.089,47.089,0,0,1-7.8-3.8h23.1c4.2,0,12.2.2,24.1,0.7l-0.4-3.2a3.158,3.158,0,0,1,0-1.4v-2.1c0.1-.7.2-1.7,0.4-3.1-11.2.5-19.2,0.8-24.1,0.8h-40c-4.7,0-12.3-.3-22.9-0.8l0.3,3.3a9.757,9.757,0,0,1-.1,2.9C993.547,738.335,993.447,739.635,993.347,740.935Zm12.2-27,7.2-.3c4.4-.1,6.7-0.2,6.8-0.2h32.6c1.5,0,3.6.1,6.4,0.1,2.8,0.2,6,.3,9.6.4l-0.3-3.1a5.313,5.313,0,0,1-.1-1.4,12.115,12.115,0,0,1,.1-1.9c0.1-.7.2-1.8,0.3-3.1l-16.1.7h-32.5c-1.2,0-3-.1-5.6-0.2-2.4-.1-5.3-0.3-8.4-0.5l0.3,3.2a10.913,10.913,0,0,1,.1,1.7,9.735,9.735,0,0,1-.1,1.6Q1005.7,711.984,1005.55,713.934Zm135.6,42.2,1.2,2.2c0.9,1.7,1.5,3,2.1,4.2a25.735,25.735,0,0,1,1.1,3.6l0.6,2.5,4-1.3a32.015,32.015,0,0,1,4.5-.9l-5.9-12.4A50.354,50.354,0,0,1,1141.15,756.136Zm0.9-23,1.1,2.1a21.825,21.825,0,0,1,1.5,3.3q0.45,1.5.9,3.6l0.4,2.1,4.1-1.4a27.071,27.071,0,0,1,4.1-.4l-4.1-11.5A55.746,55.746,0,0,1,1142.05,733.135Zm-28.1-7.3,3.7,1a16.232,16.232,0,0,1,5.1,3.3l3.4-4.6,0.1,2.3c0,0.3-.1,1.7-0.2,4l-0.9,13.6h-2.1q-1.65,0-7.8-.6l0.3,3a4.512,4.512,0,0,1,.1,1.3c-0.1.5-.1,1.1-0.2,1.7,0,0.6-.1,1.5-0.2,2.6l4.2-.4,3.6-.3h1.7l-0.8,16.1-0.3,3.9c-0.2,1.3-.4,2.9-0.6,4.7a84.012,84.012,0,0,1,8.5-.5h30.8l-0.4,1.8a2.4,2.4,0,0,1-1.5,1.8,7.6,7.6,0,0,1-4.3.7,50.173,50.173,0,0,1-8-.9c2.4,2.9,3.9,4.8,4.3,6a10.661,10.661,0,0,1,1,2.5c0.1,0.6.2,1.5,0.3,2.6a50.8,50.8,0,0,0,7.5-1.4,24.942,24.942,0,0,0,4.4-2.1,7.273,7.273,0,0,0,3.2-3.8,53.906,53.906,0,0,0,1.5-7.2h2.2c2.1,0,4.8.2,7.9,0.5l-0.3-2.6a3.623,3.623,0,0,1-.1-1.4v-1.3c0.1-.5.2-1.4,0.4-2.5-3,.3-5.6.5-7.9,0.5h-1.9l0.7-17.4h3.4c0.7,0,1.8.1,3.3,0.2,1.6,0.2,3.4.4,5.3,0.5l-0.3-2.6a8.636,8.636,0,0,1-.1-1.5,10.364,10.364,0,0,1,.1-1.6c0.1-.6.2-1.6,0.3-2.9-4.2.4-7.1,0.6-8.6,0.6h-3.1l0.6-13c0-1.6.1-3.1,0.2-4.7,0.2-1.4.4-3.2,0.6-5.2-3.8.3-6.7,0.5-8.6,0.5h-29.4c-1.4,0-3.5-.2-6.4-0.5l5.3-6.8h34.6c2.1,0,5.6.2,10.7,0.6l-0.2-2.7c-0.1-.7-0.2-1.3-0.2-1.6a13.892,13.892,0,0,0,.2-1.5c0-.7.1-1.7,0.2-3.1-4.6.4-8.2,0.6-10.7,0.6h-29.2c1.5-2,2.7-3.6,3.7-4.7l2.8-3.2-5-1.6a28.521,28.521,0,0,1-5.2-2.3l-0.9,2.4-1.5,3.6a48.582,48.582,0,0,1-2.7,4.7c-1.3,2.1-3.1,4.8-5.5,8.2a35.422,35.422,0,0,1-9.5,9.4Zm17.7,44.3,0.8-17.4h31.3l-0.8,17.4h-31.3Zm1.2-24.7,1-15.3h30.6l-0.5,15.3h-31.1Zm-34.8-38.1,3.2,2.1a57.774,57.774,0,0,1,9,7.8l2,2.1,2.9-3.9a41.453,41.453,0,0,1,3.5-3.9l-14.2-10.9-2.9,3.4A45.1,45.1,0,0,1,1098.05,707.333Zm-7.7,21.9,2.2,1.1a59.381,59.381,0,0,1,12,7.9l1.8,1.5,3.1-4.6a34.708,34.708,0,0,1,2.9-3.4l-16.4-10-2.3,3.6A41.269,41.269,0,0,1,1090.35,729.235Zm3.3,51.9,5.1,3.1a40.939,40.939,0,0,1,4.3,3.4c0.7-3.1,1.8-7.1,3.2-11.8s2.5-8.6,3.3-11.5c0.8-3,1.4-5.1,1.8-6.4s1.1-3.4,2-6.1a15.694,15.694,0,0,1-4.6-2.5c-0.9-1-2.1-2.2-3.5-3.7l-0.4,2.4c-0.3,2-1.4,6.4-3.2,13.1a76.148,76.148,0,0,1-6.3,16.8Zm103.8-64.3,0.4,7.2a57.768,57.768,0,0,1,.2,6.8v43.7a59.208,59.208,0,0,1-.2,6.2c0,1.7-.2,4-0.4,6.9,2.2-.2,3.6-0.3,4.4-0.3s2.4,0.1,5,.3l-0.4-6.5a53.965,53.965,0,0,1-.2-6.7v-49.7c0.2-2.1.2-4.7,0.4-7.9a28.536,28.536,0,0,1-4.6.4A32.6,32.6,0,0,1,1197.45,716.834Zm7.4-14.3,2,2.7c1.4,1.9,2.4,3.3,3.2,4.3a29.807,29.807,0,0,1,2,3.2c0.8,1.3,1.4,2.1,1.6,2.6l1,2.4,2.6-1.9a31.855,31.855,0,0,1,6-3.3l-9.6-14.1a36.785,36.785,0,0,1-5.4,3.1C1207.25,701.833,1206.05,702.233,1204.85,702.533Zm13,69c3-.3,5.6-0.5,8-0.5h20.8a85.949,85.949,0,0,1,8.6.5l-0.4-4a19.707,19.707,0,0,1-.2-4.2v-34.6c0.2-.9.2-2.3,0.6-4.1-3.8.3-6.6,0.5-8.4,0.5h-21c-1.8,0-4.4-.2-8-0.5l0.4,4a24.246,24.246,0,0,1,.2,4v30.9a22.345,22.345,0,0,1-.2,3.7A40.379,40.379,0,0,1,1217.85,771.537Zm8-27.9v-11h21v11h-21Zm0,19.9v-12.9h21v12.9h-21Zm3.4-59.8,0.2,3v1.5a3.407,3.407,0,0,1,0,2c0,0.6-.2,1.5-0.2,2.8q7.5-.6,13.2-0.6h24.4v65.1a3.724,3.724,0,0,1-.6,1.5q-0.6,1.05-3.6.9l-4.2-.1a34.647,34.647,0,0,1-4.6-.7,34.746,34.746,0,0,1,2.8,6.2c0.4,1.1.6,2,.8,2.7,0,0.7.2,1.6,0.2,2.6,9-1.2,14-2.3,15.2-3.5a6.866,6.866,0,0,0,2.2-2.4,5.617,5.617,0,0,0,.4-1.5v-64.1c0-2.1,0-4.4.2-6.7a76.164,76.164,0,0,1,.6-8.6c-4.4.3-7.6,0.5-10,.5h-23.8Q1236.75,704.333,1229.25,703.733Zm-972.1,216c5-.5,8.4-0.7,10.8-0.7h10.6l-0.2,28.2a24.821,24.821,0,0,1-.8,5.3,12.7,12.7,0,0,1-1.4,2.4,24.258,24.258,0,0,0-2,1.4,53.264,53.264,0,0,1,4,5.6c0.6,1.6,1.4,3.1,2.2,4.8l2.8-2.8a172.17,172.17,0,0,1,13.8-11l8.4-6.1-1.2-2.2a14.7,14.7,0,0,1-1.2-3.3q-0.3-2.25-.6-4.2a100.744,100.744,0,0,1-11,10.2l-3.8,2.9,0.2-31.2,14-.1a91.018,91.018,0,0,0,8.2,17.8c3.4,5.3,7,9.4,11,12.2,4,2.7,7.4,5,10.4,6.6,2.8,1.8,5,2.9,6.2,3.6l1.8,0.8c1.8-3.1,3-5.3,4.2-6.5a10.022,10.022,0,0,1,2.8-2.5,16.1,16.1,0,0,1,3.6-2.1l-2.4-.2a41.707,41.707,0,0,1-20.4-7.7c-5.8-4.4-9.6-8-11.6-11a65.992,65.992,0,0,1-5.6-11l23.8,0.1c2.6,0,7,.2,13.2.7l-0.2-3v-3.3a25.085,25.085,0,0,1,.2-3.5c-5.8.5-10.2,0.8-13.2,0.8h-46v-26.9a39.382,39.382,0,0,1,.2-4.7,44.581,44.581,0,0,1,.6-6.6c-2.6.3-4.4,0.5-5.6,0.6a36.98,36.98,0,0,1-5.2-.6l0.6,6.2c0,2,.2,3.7.2,5.1v26.9h-10.6c-2.2,0-5.8-.3-10.8-0.8l0.4,3.4v3.4A27.785,27.785,0,0,0,257.147,919.736Zm36.8-18.9a38.9,38.9,0,0,1,5.4,3.5,16.876,16.876,0,0,1,2.6,2.7l2.4-1.8c0-.1,4.4-3.6,13.2-10.7l13.2-10.6,4.4-3.6-4.4-3.1a45.01,45.01,0,0,1-4-3.4l-2.4,2.9c-1,1.3-2.6,2.9-4.6,5-2.2,2.1-5,4.7-8.4,8a70.363,70.363,0,0,1-14.4,9.5Zm61.1,56.4,2.9,2.4c0.8,0.6,2.2,2.7,4.1,6.2l3.5-5.8a53.781,53.781,0,0,0,5.9-12.3,71.328,71.328,0,0,0,3.4-13,130.4,130.4,0,0,0,1.3-16.7l0.2-15.2,0.2-16.3h50.8q-0.6,17.1-.9,25.8c-0.3,5.9-.4,11-0.3,15.4a75.752,75.752,0,0,0,1.1,12.2,55.324,55.324,0,0,0,3.9,12.8c2,4.8,4.2,8,6.6,9.5s4.1,2.3,5,2.2c2.4-.1,4.2-1.9,5.4-5.2s2.5-7.2,3.9-11.6l-3.4-1.4c-1.2-.5-2.9-2.5-5-6l-0.7,5.3a10.6,10.6,0,0,1-.9,3.6c-0.5,1.2-.9,1.8-1.4,1.9s-1.4-1.6-2.6-5.1a49.161,49.161,0,0,1-2.5-9.4,93.139,93.139,0,0,1-.6-12.5c-0.1-3.3-.1-6.7.1-10.3,0-3.6.2-7.4,0.4-11.4q0.15-5.852.9-14.1l0.9-11.1c-4.2.3-7.4,0.5-9.5,0.5h-50.8c-2.1,0-5.3-.2-9.8-0.5l0.5,11.1v3.5c0.1,1.3,0,6.6-.2,16-0.1,9.3-.3,15.6-0.6,18.7a80.991,80.991,0,0,1-1.9,12.1,32.29,32.29,0,0,1-4.8,11.8Q357,954.838,355.047,957.238Zm21.2-11.5,5,2.4a34.043,34.043,0,0,1,3.9,3.2l3.8-4.2c0.8-.9,2.7-3.2,5.6-6.8,2.9-3.7,4.7-5.9,5.5-6.8,0.6-.9,1.7-2.3,3.2-4.4a108.9,108.9,0,0,1,9.9,15.8l2.2,4.6,3.9-2.8a28.664,28.664,0,0,1,5-2.4l-16.1-22.7,5.2-9.5,4.3-8.8,3.1-6.2-5.4-1.9a20.163,20.163,0,0,1-4-2.6l-2.1,6.9c-0.9,2.9-3,8-6.2,15.3l-15.9-19.3-3.3,3.3a23.826,23.826,0,0,1-3.4,2.3l4.8,5a130.232,130.232,0,0,1,13.2,16.4c-6.1,8.5-11.7,14.9-16.9,19Zm80.9,8.5c2.8,1.9,4.8,3.1,5.6,3.7,0.8,0.7,1.4,1.3,2,1.8l1.8,2.7,2.4-2.1c5-4.1,8.6-7.5,10.6-10.2a52.267,52.267,0,0,0,6-8.8,35.888,35.888,0,0,0,3.8-10.4c0.8-3.6,1.2-6.8,1.6-9.2,0.2-2.6.4-5,.4-7.3,0.2-2.3.2-5.3,0.2-8.9v-19.7h22.2l-1.4,58.8v4.9a18.077,18.077,0,0,0,1,4.4c0.4,1.8,2.2,3,5,3.5s7.6,0.7,14.4.7a31.1,31.1,0,0,0,8.2-.6,15.857,15.857,0,0,0,3.2-1.8,11.094,11.094,0,0,0,2-3c0.6-1.2,1-2.6,1.6-4,0.4-1.5,1.2-3.7,2.2-6.8a17.085,17.085,0,0,1-5.4-2.4,17.448,17.448,0,0,1-4.4-4.3l-0.2,2.6a32.369,32.369,0,0,1-.6,4.7c-0.4,2.2-.8,3.8-1.6,4.6a4.093,4.093,0,0,1-2,1.8,8.132,8.132,0,0,1-3.4.5c-3.2,0-5.6,0-6.8-.1a11.844,11.844,0,0,1-2.6-.4,3.191,3.191,0,0,1-1-1,5.476,5.476,0,0,1-.6-2.4v-2.3a5.858,5.858,0,0,1,0-2.7l1.2-48.4c0.2-2.7.2-5.1,0.4-7.1,0-2,.4-4.7.6-8-4.4.3-7.8,0.5-10.2,0.5h-21.6c-2.4,0-5.6-.2-10-0.5l0.8,15.1a22.512,22.512,0,0,1,0,5.4v9.6c0,4.1-.2,7.9-0.4,11.4-0.4,3.5-1,7.2-1.8,11a40.351,40.351,0,0,1-5.8,12.1c-3,4.2-6,7-8.8,8.5s-5,2.5-6.6,3.2Zm100.6,0.2a61.066,61.066,0,0,1,6.6,5.5,19.757,19.757,0,0,1,1.8,3l2.6-1.8c1.4-.9,3.2-2.4,5.8-4.4,2.6-2.1,5.2-4.5,8-7.2a41.659,41.659,0,0,0,7.2-8.7,60.247,60.247,0,0,0,4.2-8.5,36.708,36.708,0,0,0,2.2-7.2c0.6-2.3,1.2-6,2.2-11.3h28.8l-2.6,27.8c0,0.7-.2,1.7-0.4,3.2a37.4,37.4,0,0,1-1.4,4.4c-0.8,1.5-2.8,2.2-6.6,2.1a54.572,54.572,0,0,1-10-.9l2,3.6c0.8,1.5,1.6,4.3,2.6,8.6l2.4-.4c4.4-.8,8-1.5,10.4-2.2a14.069,14.069,0,0,0,5.2-2.7,10.3,10.3,0,0,0,2.6-3.4,19.711,19.711,0,0,0,1-4.8l3.8-35.9,0.4-3.4a23.614,23.614,0,0,1,.6-4.3,81.268,81.268,0,0,1-8.4.6h-29.8l0.4-14.5h32.2c3.2,0,9.2.2,17.8,0.7l-0.4-2.9v-3.5l0.4-2.8c-8,.4-13.8.6-17.8,0.6h-54.2c-3.2,0-8.2-.2-14.8-0.7l0.2,2.9v2.9a18.866,18.866,0,0,0-.2,3.5c7.4-.5,12.4-0.7,14.8-0.7h12.6v4.2c0,2,0,4.9-.2,8.7a75.712,75.712,0,0,1-.6,10c-0.6,2.8-1.2,5.7-1.8,8.4-0.8,2.7-2,6.1-3.4,10-1.6,3.9-4.8,7.8-9.4,11.7a49.18,49.18,0,0,1-13.2,8.3Zm101,7.5c12.4-.5,21.4-0.7,26.8-0.7h34c6,0,15.6.2,28.8,0.7l-0.2-3.2v-1.6a3.4,3.4,0,0,1,0-2c0-.6.2-1.6,0.2-3-13.6.5-23.2,0.7-28.8,0.7h-11.6v-10.9h9.2c7.4,0,15,.2,22.4.6l-0.2-3.3a3.463,3.463,0,0,1-.2-1.7c0-.9.2-2.4,0.4-4.5-8.6.4-16,.6-22.6,0.6h-9v-9.6h20c2.6,0,6.2.2,10.8,0.5l-0.2-4.4a33.375,33.375,0,0,1-.2-5v-30.5c0.2-1.6.2-3.6,0.4-6-3.8.3-7.4,0.4-10.8,0.4h-48c-3.2,0-6.6-.1-10.6-0.4l0.4,5.5a39.456,39.456,0,0,1,.2,5.2v25.5a31.686,31.686,0,0,1-.2,4.4c0,1.4-.2,3.2-0.4,5.3,4.6-.3,8.2-0.5,10.4-0.5h19v9.6h-10.4c-5.8,0-13-.2-21-0.6l0.2,2.9a6.889,6.889,0,0,1,.2,1.8,3.438,3.438,0,0,0-.2,1.6c0,0.7-.2,1.8-0.2,3.2,6.4-.3,13.6-0.5,21.2-0.6l10.2-.1v11.1l-13.2-.1c-6,0-15-.2-26.8-0.7l0.2,3.2a7.534,7.534,0,0,1,0,3C658.947,959.438,658.747,960.638,658.747,961.938Zm20.2-45.5v-10.7l19.8,0.1v10.6h-19.8Zm0-18.4v-10.8h19.8v10.8h-19.8Zm29,18.4v-10.7h21v10.7h-21Zm0-18.4v-10.8h21v10.8h-21Zm84.2,50.9a21.647,21.647,0,0,1,4-.2c0.7,0,2.3.1,4.6,0.2l-0.2-2.5c-0.1-.9-0.1-2.1-0.1-3.5v-8.6h11.9v3.9a14.89,14.89,0,0,1-.1,1.7,26.2,26.2,0,0,0-.1,2.8c2.4-.1,3.9-0.2,4.6-0.2a22.946,22.946,0,0,1,4.1.2l-0.2-6q-0.3-5.4-.3-6.6v-16.6c3,0.3,5,.8,5.9,1.5s1.9,1.4,2.9,2.2l1.7-3.1c1.4-2.6,2.7-5.2,4-7.9s2.4-5,3.5-7.1h28.6l-1.2,4a32.235,32.235,0,0,1-4.1,7.5l-1.7,2.5c3.7,0.4,6,.8,7,1,1.1,0.3,2.3.8,3.8,1.3,3.1-9.2,6-17.5,8.6-24.9-3.6.3-7.2,0.5-10.7,0.5h-27.3c1.3-3.9,2.8-7.9,4.3-12l1.6-4.3a32.919,32.919,0,0,1-6.8-1,22.1,22.1,0,0,1-4.1-1.4l-0.6,3.2-0.8,3.7c-0.5,2.6-.9,4.3-1.1,5.1s-0.6,2.2-1.2,4.4c-0.6,2-1.4,4.6-2.5,7.5a39.438,39.438,0,0,1-4.2,8.5c-1.8,2.6-3.1,4.4-3.9,5.3l-1.7,2.1v-24.4c0.1-1.2.2-2.7,0.4-4.6-3.1.3-5.8,0.5-8.3,0.5h-12c-2.5,0-5.2-.2-8.2-0.5l0.3,3.9c0.1,1.1.2,2.6,0.2,4.5v42.4c0,1.9-.1,4.2-0.2,6.6C792.446,943.137,792.246,945.837,792.146,948.938Zm8.3-21.9v-35.5l12-.1-0.1,35.6h-11.9Zm10.6,29.9a24.6,24.6,0,0,1,5.3,4,19.012,19.012,0,0,1,3.3,4.7l2.2-1.3a105.862,105.862,0,0,0,9.3-6c1.5-1.4,3.1-2.8,4.8-4.4,1.6-1.6,2.8-3,3.7-4a44.581,44.581,0,0,0,2.7-4.2c0.8-1.7,1.5-3.1,2-4.2a43.793,43.793,0,0,0,1.4-4.3c0.5-1.7.8-3,1.1-3.9,0.3-1,.6-2.5,1-4.6,1.1,4.5,1.9,7.4,2.3,8.7a38.65,38.65,0,0,0,2,4.8,32.994,32.994,0,0,0,2.8,5,49.658,49.658,0,0,0,5,6.5,50.74,50.74,0,0,0,9.3,8.3l2.9,2a24.109,24.109,0,0,1,3.6-4.7,31.1,31.1,0,0,1,5.8-4.2l-4.3-1.8a48.28,48.28,0,0,1-9.8-5.7,27.485,27.485,0,0,1-8-8.7,42.387,42.387,0,0,1-4.3-9.6,44.142,44.142,0,0,1-1.8-8.6c-0.4-2.5-.5-4.5-0.6-5.8a29.168,29.168,0,0,1,.2-3.3l0.3-3.7a59.873,59.873,0,0,1-10.5-1.5v4.5a27.478,27.478,0,0,1-.2,4,39.263,39.263,0,0,1-.6,5.7,67.509,67.509,0,0,1-2.1,10.1,36.675,36.675,0,0,1-4.8,11,32.812,32.812,0,0,1-8.1,8.1,50.151,50.151,0,0,1-12.7,6Zm81,1.7a50.91,50.91,0,0,1,5.6,3.3c0.8,0.7,1.6,1.5,2.6,2.5l2-4a118.894,118.894,0,0,0,4.6-12.3,60.938,60.938,0,0,0,3.2-12.6c0.6-3.3.8-6,1-8,0.2-2.2.4-4.5,0.6-7.2,0.2-2.6.2-4.6,0.4-6.1v-5.3h15.4v6.7a23.687,23.687,0,0,1-.2,4.1,39.561,39.561,0,0,1-.2,4.5c3.8-.3,6.8-0.5,9-0.5h18.4c2.2,0,5.4.2,9.4,0.5l-0.4-4.5a21.442,21.442,0,0,1-.2-4.3v-6.5h7.2a110.565,110.565,0,0,1,11.2.4l-0.2-2.6a2.165,2.165,0,0,1-.2-1.2v-1.5c0.2-.6.2-1.5,0.4-2.6-4.2.3-7.8,0.5-11.2,0.5h-7.2v-5.6c0.2-.7.2-1.8,0.6-3.2-2.6.3-4,.4-4.6,0.4a39.942,39.942,0,0,1-4-.4l0.2,3.3a13.856,13.856,0,0,1,.2,3.4v2.1h-20.6v-2.5a13.732,13.732,0,0,1,.2-3.1,30.207,30.207,0,0,1,.4-3.2c-2.8.3-4.2,0.4-4.8,0.4-0.4,0-1.6-.1-3.8-0.4l0.2,3.2a10.7,10.7,0,0,1,.2,3v2.6h-15.2v-11h49c1.6,0,7.8.2,18.4,0.6l-0.2-2.8a1.663,1.663,0,0,1-.2-1.1,4.678,4.678,0,0,0,.2-1.7c0-.7.2-1.6,0.2-2.8-7.2.4-13.4,0.6-18.4,0.6h-12.6l-4-12.3a51.471,51.471,0,0,1-9.4,3l1.4,2.7c1,1.9,2,4.1,3.2,6.6h-25c-2.8,0-6.6-.2-11.4-0.5l0.6,15.1v7.9a81.224,81.224,0,0,1-.2,9.7,62.656,62.656,0,0,1-.6,9.4c-0.2,2.5-.6,5.3-1,8.4a42.816,42.816,0,0,1-2,8.2,37.331,37.331,0,0,1-2.8,7.1,50.783,50.783,0,0,1-2.8,5.7Zm43-41.3v-8.4l20.6,0.1v8.3h-20.6Zm-27.6,38.4,2.4,2.9,1.4,1.9c0.2,0.3,1.2,1.7,2.8,4.4l3.2-.7c1-.2,4-1,8.8-2.4,5-1.4,8.4-2.5,10.4-3.3,2.2-.9,5-2.1,8.2-3.6,3,1.5,6.4,3.1,10.4,4.7a101.715,101.715,0,0,0,11,3.7c3.4,1,5,1.4,5.2,1.4l3,1,1.4-2.5c0.2-.2.6-1,1.6-2.3,1-1.4,1.6-2.4,2-2.8a14.894,14.894,0,0,1,2.2-2.2l-3-.3-5.6-.4a63.709,63.709,0,0,1-10.8-1.5c-2.6-.8-6.2-2-10.2-3.6,7.4-6.9,12-11.9,13.8-14.9q2.4-4.5,3.6-6.9c-4.6.3-8.6,0.5-11.8,0.5h-27.4c-3,0-7-.2-12.4-0.5,0.2,2.1.4,3.3,0.4,3.8a3.406,3.406,0,0,1-.2,1.4,12.866,12.866,0,0,1-.2,2.5c4.8-.4,8.8-0.6,11.8-0.6h1.6a45.919,45.919,0,0,1-6.8,3.9c5,5,8,7.9,9.2,8.7a25.714,25.714,0,0,0,3.2,2.2,67.908,67.908,0,0,1-26,5.5h-3.2Zm47.6-20.2c-2.4,3.7-4.4,6.2-6.2,7.5-1.6,1.3-3.4,2.5-5,3.6-3.4-2.4-5.6-4.1-7-5.2a47.941,47.941,0,0,1-5.2-6Zm37.4,24.6c13.8-.5,23.8-0.8,29.8-0.8h27.4c6.2,0,16.8.3,31.6,0.8l-0.2-3.4a3.416,3.416,0,0,1-.2-1.5,8.219,8.219,0,0,1,.2-2.1c0-.7.2-1.8,0.2-3.2-14.6.5-25.2,0.8-31.6,0.8h-8.2v-30.5h12.6c5.6,0,11.4.2,17.8,0.5l-0.4-3.1v-3.4c0.2-.7.2-1.7,0.4-3.1-6.6.3-12.4,0.5-17.6,0.5h-12.8v-22.4h12.4c6.8,0,14.4.2,23,.6l-0.2-3.3a5.286,5.286,0,0,1-.2-1.6v-1.8c0.2-.7.2-1.8,0.4-3.2-7.6.3-15.2,0.5-22.8,0.5h-31c-1.8.1-9.4-.1-22.8-0.5l0.2,3.1a7.581,7.581,0,0,1,.2,1.9v1.8c-0.2.7-.2,1.7-0.4,3.1,11.2-.4,18.8-0.6,22.6-0.6l9.4-.1v22.5h-10.4c-5.4,0-11.2-.2-17.4-0.5l0.2,2.8a5.537,5.537,0,0,1,.2,1.8v2a27.785,27.785,0,0,0-.4,3c6.2-.3,12-0.5,17.4-0.5h10.4v30.5h-10c-6,0-15.8-.3-29.8-0.8l0.2,3.1v3.7C992.646,957.538,992.446,958.638,992.446,960.138Zm64.8-35.2a35.024,35.024,0,0,1-4.4,3.6,23.555,23.555,0,0,1-3.4,2l3.2,3.3a42.543,42.543,0,0,1,3.6,3.9q2.4,3,3.6,4.2a13.248,13.248,0,0,1,1.6,2.5l1.6,2.7a32.67,32.67,0,0,1,5.4-4.4c0.8-.5,2-1.1,3.2-1.7Zm40.8,37.6c2-.2,3.6-0.3,4.4-0.3s2.4,0.1,4.8.3l-0.4-7.4a56.231,56.231,0,0,1-.2-7.4v-40a61.555,61.555,0,0,1,.2-6.8c0-1.5.2-3.9,0.4-7a26.77,26.77,0,0,1-4.6.4c-0.4,0-2-.1-4.6-0.4l0.4,7a58.76,58.76,0,0,1,.2,6.9v39.9c0,2.7-.2,5-0.2,7C1098.25,956.638,1098.25,959.238,1098.05,962.538Zm8-85,1.8,2.4c0.2,0.4,1,1.3,1.8,2.7l3,4.7a11.679,11.679,0,0,1,1.4,2.7l1.2,2.4,2.4-1.8a37.831,37.831,0,0,1,6.2-2.9l-9.8-14.9-2.2,1.7C1111.65,874.733,1109.65,875.733,1106.05,877.533Zm24,9c4.4-.3,8.2-0.4,11.8-0.4h24.4v62.9a6.251,6.251,0,0,1-.4,1.4,2.161,2.161,0,0,1-1.4,1.4,17.909,17.909,0,0,1-5.4.5,22.074,22.074,0,0,1-5.2-.3c2.2,4.5,3.6,7.1,3.8,7.9a26.727,26.727,0,0,1,.6,3.2c9.2-1.8,14.2-3.6,15.2-5.4a8.422,8.422,0,0,0,1.4-3.8,14.166,14.166,0,0,0,.2-3v-65c0.2-2.2.4-4.9,0.6-8-3.2.3-6.4,0.5-9.2,0.5h-24.6c-3.8,0-7.6-.2-11.8-0.5l0.4,2.9v1.3l-0.2,1.8A13.8,13.8,0,0,1,1130.05,886.534Zm60,68.9c4,2.5,6.6,4.4,7.6,5.7,0.8,1.3,1.6,2.5,2.2,3.6l4-1.9c0.4-.3,2.4-1.3,5.8-3.1s5.8-3.1,7-3.8a61.346,61.346,0,0,0,7.8-5.6c4-3,6.8-6.1,8.4-9.4l4.2-9.6,1.8,4.1a47.1,47.1,0,0,0,3.2,5.6,32.621,32.621,0,0,0,6,7.1,74.686,74.686,0,0,0,7.6,5.9,58.3,58.3,0,0,0,10,5.5l5.2,2.2,3,1.3a30.6,30.6,0,0,1,3.8-6.4c1-1.4,3.2-3.1,6-5.1l-4-.3a49.439,49.439,0,0,1-24.2-9.1,35.841,35.841,0,0,1-7.6-7.4,47.3,47.3,0,0,1-3.2-4.8,18.245,18.245,0,0,1-1.8-3.7h12c5.6,0,13.6.2,24.2,0.7-0.2-2.4-.4-3.9-0.4-4.4a7.881,7.881,0,0,1,.2-2,30.207,30.207,0,0,1,.4-3.2c-12,.5-20,0.7-24.4.7h-15l0.8-18.4h16.6c0.6,0,6.8.3,18.6,0.8l-0.2-3.1a3.887,3.887,0,0,1-.2-1.5,7.182,7.182,0,0,1,.2-1.9c0-.7.2-1.8,0.2-3.2-7.4.4-13.6,0.6-18.4,0.6h-7.6c1-1.1,2.6-3.3,5-6.6,2.2-3.2,3.6-5,3.8-5.5l2.6-3.9a103.426,103.426,0,0,1-10-4l-1.8,4.6a99.25,99.25,0,0,1-8.4,15.4h-21c-5.6,0-12.6-.2-21.4-0.6l0.2,3.1a8.443,8.443,0,0,1,.2,1.9,3.664,3.664,0,0,0-.2,1.6c0,0.7-.2,1.7-0.2,3.1,14-.5,21.2-0.8,21.4-0.8h11.6v7.3c0,1.5-.2,5.2-0.4,11.1h-12c-4,.1-12.4-0.2-24.8-0.7l0.2,3.1a5.629,5.629,0,0,0,.2,1.6,6.478,6.478,0,0,1-.2,2c0,0.6-.2,1.6-0.2,2.9,11-.5,19.6-0.7,25.2-0.7h9.8l-1.4,4a29.467,29.467,0,0,1-3.4,6.6,28.282,28.282,0,0,1-7.8,7.6,78.188,78.188,0,0,1-10.8,5.9,61.125,61.125,0,0,1-11,3.9Zm31.8-64.7a80.247,80.247,0,0,1,9.2-4.7l-10.8-14.2a42.687,42.687,0,0,1-4.8,2.9c-1.2.5-2.4,0.9-3.8,1.4l2.6,3a40.039,40.039,0,0,1,6.2,9Z"/>
  <path id="大写字母" class="cls-3" d="M68.944,543.766h5.4l5.472-14.69H100.7l5.544,14.69h6.625L94.146,493.793H87.738Zm12.385-18.722c5.689-15.553,8.353-23.546,8.929-26.21,0.432,2.664,2.376,8.064,8.929,26.21H81.329Zm47.807,18.722h17.858a31.311,31.311,0,0,0,3.672-.144c8.209-.792,15.481-6.193,15.481-13.394,0-6.768-6.912-11.449-14.113-12.6,8.281-2.088,12.1-6.768,12.1-11.3,0-5.04-5.04-12.529-19.01-12.529H129.136v49.973Zm6.049-4.033V522.668L135.257,520h8.568a31.274,31.274,0,0,1,3.673.072c6.768,0.648,12.745,4.68,12.745,10.08,0,3.817-3.961,9.577-14.834,9.577H135.185Zm0-24.194V500.346l0.072-2.52h8.208c11.089,0,14.978,5.112,14.978,8.568,0,4.321-5.041,9.145-14.618,9.145h-8.64Zm47.014,3.24c0,13.826,9.433,26.571,23.618,26.571,6.049,0,8.929-.936,13.97-3.961l-0.433-5.04c-3.6,2.3-6.048,4.392-13.465,4.392-9.865,0-17.209-9.792-17.209-21.962,0-12.1,7.344-21.961,16.993-21.961,5.689,0,8.713,1.656,12.241,3.816l1.08-5.977a34.194,34.194,0,0,0-14.257-2.448C194.44,492.209,182.2,502.434,182.2,518.779Zm55.3,24.987h17.857a27.755,27.755,0,0,0,3.457-.144c10.153-1.152,19.8-10.585,19.8-24.483,0-8.64-3.888-17.281-11.016-21.961a20.51,20.51,0,0,0-12.386-3.385H237.5v49.973Zm6.264-4.033V497.826h10.3c12.1,0,18.29,9.792,18.29,21.386a22.689,22.689,0,0,1-4.248,13.9,16.729,16.729,0,0,1-14.042,6.624h-10.3Zm52.847,4.033H329.8v-5.185h-3.313l-1.584.072H310.935l-1.728.072h-6.121V520.076h23.762v-4.393H303.086V498.618l2.521,0.072h17.281l1.8,0.072h4.105v-4.753H296.606v49.757Zm50.183,0h6.48V521.084h21.674v-4.393H353.269V498.618l2.3,0.072h16.706l1.728,0.072h3.96v-4.753H346.789v49.757Zm46.15-24.987c0,14.618,10.225,26.571,23.4,26.571a34.265,34.265,0,0,0,14.978-3.457V522.236H416.125V526.7H425.7v12.529a31.761,31.761,0,0,1-9.288,1.512c-9.5,0-16.994-9.72-16.994-22.034,0-11.377,6.841-21.889,17.066-21.889,6.624,0,10.008,2.448,13.177,4.824l1.08-5.977a29.344,29.344,0,0,0-14.4-3.456C403.308,492.209,392.939,504.018,392.939,518.779Zm57.24,24.987h6.481V520h24.482v23.762h6.48V493.793h-6.48v21.746H456.66V493.793h-6.481v49.973Zm58.176,0h6.48V493.793h-6.48v49.973Zm23.4-1.44a27.087,27.087,0,0,0,12.313,3.024c5.833,0,12.673-2.52,12.673-12.745V493.793h-6.264v38.668c0,6.768-4.465,8.424-8.5,8.424a12.824,12.824,0,0,1-9.289-3.96Zm45.071,1.44h6.193V527.348l9.577-9.721,17.5,26.139h6.769L596.555,513.6v-0.072l19.3-19.73h-6.7l-26.138,26.715V493.793h-6.193v49.973Zm57.095,0h29.163v-4.753l-8.641.072H640.4V493.793H633.92v49.973Zm46.656,0h5.616V498.834c0.648,3.168,2.377,7.7,5.185,15.337l10.8,28.01h5.184l11.089-28.874,4.32-11.809,0.721-2.664,0.072,2.3v42.628h5.616V493.793H720.9L709.81,522.74c-3.528,9.217-4.68,12.817-4.9,14.4h-0.072c-0.288-1.656-2.016-6.481-4.968-14.473l-11.089-28.875h-8.209v49.973Zm69.84,0h5.616V498.834l2.809,5.76,19.729,39.172h9V493.793h-5.616v44.932l-2.809-5.76-19.729-39.172h-9v49.973Zm55.295-24.843c0,15.338,10.657,26.427,22.466,26.427,11.665,0,22.466-10.945,22.466-26.427,0-15.121-10.441-26.714-22.394-26.714C816.08,492.209,805.711,503.874,805.711,518.923Zm6.481-1.008c0-13.033,7.7-21.1,15.985-21.1,8.353,0,16.057,8.064,16.057,21.1,0,12.745-6.912,22.754-16.057,22.754C818.528,540.669,812.192,530.084,812.192,517.915Zm56.591,25.851h6.48v-20.81h8.425c0.792,0,1.584.072,2.376,0.072,12.241,0,17.786-8.137,17.786-14.761,0-4.681-2.592-8.929-6.985-11.665a19.486,19.486,0,0,0-11.089-2.809H868.783v49.973Zm6.264-24.987V497.826h9.577c11.161,0,13.393,6.768,13.393,10.441,0,4.176-2.736,10.512-13.393,10.512h-9.577Zm44.063,0.144c0,14.978,10.369,26.427,22.466,26.427a19.506,19.506,0,0,0,6.912-1.224l6.049,8.64H962.1l-8.569-11.377c2.88-2.3,10.585-9,10.585-22.466,0-15.049-10.441-26.714-22.538-26.714C929.911,492.209,919.11,503.3,919.11,518.923ZM925.374,519c0-12.385,6.7-21.961,16.058-22.177H941.5c9.073,0,16.345,9.216,16.345,22.177,0,11.017-5.04,16.2-7.344,18.29h-0.072l-5.617-7.561h-6.408l7.272,10.369a15.7,15.7,0,0,1-4.032.648C932.431,540.741,925.374,531.381,925.374,519Zm56.808,24.771h6.264V521.012h11.377l13.467,22.754h6.48l-14.33-23.474c8.35-2.377,12.31-7.849,12.31-13.106,0-5.112-4.75-13.393-19.295-13.393H982.182v49.973Zm6.264-27.219V497.826h9.721c11.013,0,13.753,5.688,13.753,9.432s-2.66,9.289-13.969,9.289h-9.5Zm43.774,23.834a30,30,0,0,0,16.49,4.969c9.87,0,16.27-7.417,16.27-15.194,0-7.2-5.04-11.953-9.64-13.9-2.6-1.08-8.72-2.16-10.81-3.024-3.16-1.3-5.76-4.176-5.76-7.705,0-4.248,3.89-8.5,10.44-8.5,5.91,0,8.93,2.016,12.25,4.608l1-5.977a25.213,25.213,0,0,0-13.17-3.456c-10.16,0-16.28,7.2-16.28,14.185,0,7.489,5.98,12.1,11.09,13.466,6.27,1.656,7.2,1.728,8.93,2.376a9.515,9.515,0,0,1,6.19,8.641c0,4.68-3.96,9.5-10.51,9.5-7.13,0-11.95-3.24-15.41-5.976Zm46.51-41.475h10.23l8.49-.072v44.932h6.41V498.834l8.43,0.072h10.22v-4.753h-43.78v4.753Zm60.41,27.218c0,13.465,10.15,19.226,18.15,19.226,8.06,0,17.78-6.049,17.78-18.938V493.793h-5.69v31.395c0,0.432.07,0.864,0.07,1.3,0,11.521-7.27,14.833-12.16,14.833-4.4,0-11.74-2.664-11.74-15.121,0-.864.07-1.656,0.07-2.52V493.793h-6.48v32.331Zm50.9-32.331,19.66,49.973h6.63l19.65-49.973h-5.61l-11.16,28.731c-4.04,10.441-5.33,14.4-5.62,16.2-0.79-3.384-2.16-6.7-5.83-16.561l-11.02-28.371h-6.7Zm55.23,0,14.69,49.973h5.76l8.06-27.939c0.07-.144,3.96-13.825,4.25-16.993,0.58,3.744.58,3.744,4.54,18.361l7.7,26.571h6.27l14.61-49.973h-5.18l-8.43,29.163c-0.21.792-3.6,12.6-3.81,15.769l-0.29-1.872-1.37-5.688-2.09-7.777-8.49-29.6h-5.91l-8.28,29.091c-1.3,4.752-3.46,12.6-3.74,15.841-0.36-3.168-1.59-7.848-3.68-15.625l-8.35-29.307h-6.26Zm75.16,49.973h6.92L1342.9,521.8l15.91,21.962h7.56L1346,517.483v-0.072l17.35-23.618h-6.91l-13.54,18.794L1329,493.793h-7.56l18.29,23.618v0.072Zm54.36-49.973,20.67,29.955v20.018h6.26V523.748l20.6-29.955h-6.34c-2.3,3.313-14.76,21.386-16.78,24.914-1.08-2.016-3.09-4.824-6.26-9.576l-10.59-15.338h-7.56Zm59.04,49.973h36.37v-4.753h-11.45l-1.66.072h-14.98l26.79-40.9c0.86-1.368.94-1.3,0.94-2.665v-1.728h-35v4.537h14.91l11.81-.072-26.79,40.971c-0.94,1.368-.94,1.368-0.94,2.736v1.8Z"/>
  <path id="logo" class="cls-1" d="M706.266,1194.7a45.969,45.969,0,0,0-.118,5.15v5.16H677.555v-1.17l0.234-.94-1.406-.24c-1.1,0-2.659-.07-4.688-0.23h-3.281l-0.469,2.58a45.646,45.646,0,0,1-1.172,4.92,22.619,22.619,0,0,1-1.406,4.22,7.125,7.125,0,0,0-.82,2.23,6.584,6.584,0,0,0,2.109-.71c1.326-.54,2.615-1.13,3.867-1.76a11.566,11.566,0,0,0,3.516-2.81l1.641-1.64h66.8l1.875,1.88a14.477,14.477,0,0,0,3.75,2.81c1.406,0.62,2.655,1.17,3.75,1.64a1.036,1.036,0,1,0,1.171-1.17,17.1,17.1,0,0,1-1.406-3.99q-0.7-2.34-1.172-4.68a11.9,11.9,0,0,0-.7-3.05c0-.47-1.252-0.62-3.75-0.47-1.875.16-3.281,0.23-4.219,0.23a2.052,2.052,0,0,1-.937.24c-0.315,0-.469.31-0.469,0.94l0.235,0.93-13.594.24q-13.359,0-13.36-.24a2.838,2.838,0,0,1,.7-1.05,6.664,6.664,0,0,0,1.171-2.46,15.728,15.728,0,0,0,.469-4.22v-2.58h-4.687Q706.382,1194.46,706.266,1194.7Zm-31.289,28.12v4.22l21.093,0.23h21.094l-5.859,4.93q-5.4,4.215-8.2,6.56l-2.344,1.87v6.8H660.445v4.22h40.313v14.76c0,10.01-.158,15.47-0.469,16.41a13.152,13.152,0,0,1-1.172,3.05,21,21,0,0,1-2.578,3.04,16.962,16.962,0,0,1-3.75,2.82c-1.406.62-2.109,1.17-2.109,1.64s0.153,0.7.468,0.7a30.375,30.375,0,0,0,3.047-.47,34.353,34.353,0,0,0,4.922-1.4,16.4,16.4,0,0,0,4.688-1.88,11.74,11.74,0,0,0,3.515-2.34,12.264,12.264,0,0,0,2.344-2.58,13,13,0,0,0,1.172-2.58c0.311-.94.469-6.4,0.469-16.41v-14.76h38.2v-4.22h-38.2v-6.8l2.109-1.64q2.109-1.635,8.438-6.79,6.327-5.4,8.437-7.04a13.637,13.637,0,0,0,2.578-2.34q0-.225-28.828-0.23t-29.062.23h0Zm121.64-30.23-0.469,1.87a27.635,27.635,0,0,1-1.523,5.74c-0.861,2.43-1.681,4.65-2.461,6.68q-1.176,2.58-3.281,6.8-1.88,3.75-4.453,8.44-2.11,3.75-4.688,7.73-2.582,4.215-3.047,4.92a7.818,7.818,0,0,0-1.406,2.11c-0.157.47-.117,0.71,0.117,0.71a8.252,8.252,0,0,0,2.227-1.18q1.873-1.17,3.515-2.34,1.874-1.41,3.985-3.28a59.714,59.714,0,0,0,4.453-4.45l2.109-2.35,0.235,14.77,0.234,14.76h1.875a5.862,5.862,0,0,0,3.047-.7,5.457,5.457,0,0,0,1.875-1.17,11.374,11.374,0,0,0,1.406-1.64l0.469-.71h27.187v2.11l0.235,2.11h1.64a7.437,7.437,0,0,0,2.813-.47,9.072,9.072,0,0,0,2.109-1.17,4.666,4.666,0,0,0,1.407-1.64l0.7-.94h31.64v-4.45H838.336v-6.8H868.57v-4.45H838.336v-6.8H868.57v-4.68H838.336v-7.5H868.57v-4.69H837.164l0.938-1.17a23.668,23.668,0,0,0,1.406-2.35,6.445,6.445,0,0,0,.7-2.57,17.74,17.74,0,0,0,.469-4.93v-3.51H828.727v14.53H815.6q-13.129,0-13.125-.23c0-.16-0.158-0.24-0.469-0.24s0.311-1.41,1.875-4.22a69.182,69.182,0,0,0,3.281-7.5,16.732,16.732,0,0,0,1.406-3.98l0.235-1.17H796.617Zm31.406,22.03v7.5H802.477v-7.5h25.546Zm0,12.18v6.8H802.477v-6.8h25.546Zm0,11.25v6.8H802.477v-6.8h25.546Zm-3.515,16.88v5.16l-22.969.23H778.805v4.45h45.7v1.64c0,1.1-.081,1.64-0.235,1.64a40.222,40.222,0,0,1-4.687-1.17q-4.455-1.17-4.922-1.4-0.236,0-6.328,4.68-6.1,4.935-7.734,6.1-1.643.93-4.454,2.58a58.967,58.967,0,0,1-5.39,2.57q-2.812,1.185-5.391,2.23a35.226,35.226,0,0,1-5.859,1.76,17.416,17.416,0,0,0-3.047,1.05,6.06,6.06,0,0,0,1.289,1.06,3.994,3.994,0,0,0,1.992.94c0.469,0,2.344-.32,5.625-0.94s6.328-1.33,9.141-2.11q4.449-1.17,8.2-2.35a22.822,22.822,0,0,0,4.922-2.1q1.637-.945,9.14-6.1t7.618-5.04q0.115,0.12.117,13.48v13.12h1.406a7.357,7.357,0,0,0,2.813-.7,6.692,6.692,0,0,0,3.046-1.99,11.184,11.184,0,0,0,2.11-3.17,8.733,8.733,0,0,0,.586-2.34q0.115-1.17.117-6.33c0.154-4.68.271-7.11,0.352-7.26s1.442,0.55,4.1,2.11q3.982,2.1,6.8,3.51a34.945,34.945,0,0,0,6.328,2.58,54.282,54.282,0,0,0,6.328,1.64,52.974,52.974,0,0,0,5.625.94c1.718,0.16,4.219.23,7.5,0.23a38.521,38.521,0,0,0,5.86-.23,1.37,1.37,0,0,0,1.171-.94l0.235-1.17c0-.15-0.235-0.24-0.7-0.24-0.315,0-1.722-.23-4.219-0.7s-5-1.01-7.5-1.64q-3.516-.93-6.8-2.11-2.812-.93-5.625-2.11-2.346-1.17-10.078-6.33l-7.734-5.15,19.453-.24h19.453v-4.45H854.977l-20.157-.23v-2.58l-0.234-2.58H824.508Z"/>
</svg>
