<svg xmlns="http://www.w3.org/2000/svg" width="400" height="200" viewBox="0 0 400 200">
  <defs>
    <style>
      .cls-1 {
        fill: #fdfdfd;
        fill-rule: evenodd;
      }
    </style>
  </defs>
  <path id="思源宋体" class="cls-1" d="M88.737,110.934a12.872,12.872,0,0,1-1.846,3.4,9.049,9.049,0,0,1-2.3,2.2,5.094,5.094,0,0,0-2.051,1.846,2.778,2.778,0,0,0-.176,2.607A2.69,2.69,0,0,0,84.68,122.7a4.226,4.226,0,0,0,3.076-.747,8.026,8.026,0,0,0,2.563-3.047,11.977,11.977,0,0,0,1.231-5.112,18.147,18.147,0,0,0-1.274-6.9H89.4A10.665,10.665,0,0,1,88.737,110.934Zm18.531-23.848H95.988V77.652h11.28v9.434Zm16.728,0H112.717V77.652H124v9.434Zm-11.279,1.729H124v9.844H112.717V88.815Zm-16.729,0h11.28v9.844H95.988V88.815ZM124,103.58h0.967a7.105,7.105,0,0,0,2.021-.322,13.339,13.339,0,0,0,1.89-.7,1.548,1.548,0,0,0,.835-0.586V78.619a5.279,5.279,0,0,0,1.6-.542,2.935,2.935,0,0,0,.923-0.718l-5.948-4.629-2.871,3.193H96.4l-6.123-2.578v31.2h0.85a7.914,7.914,0,0,0,3.325-.7q1.538-.7,1.538-1.172v-2.285H124v3.193Zm-15.527,2.813a22.326,22.326,0,0,1,1.963,3.881,13.2,13.2,0,0,1,.908,4,3.678,3.678,0,0,0,2.549.953,2.766,2.766,0,0,0,1.977-1.055,3.965,3.965,0,0,0,.835-2.417,5.948,5.948,0,0,0-.879-3.135,10.238,10.238,0,0,0-3.164-3.223,20.841,20.841,0,0,0-6.064-2.666l-0.528.44A24.669,24.669,0,0,1,108.469,106.393Zm15.644,6q-0.762,2.609-1.377,4.5a13.584,13.584,0,0,1-1.084,2.651,1.744,1.744,0,0,1-.615.674,2.548,2.548,0,0,1-1.055.2q-0.762.058-2.607,0.073t-4.16.015h-7.94a7.1,7.1,0,0,1-2.4-.235,0.915,0.915,0,0,1-.469-0.908v-11.66a1.937,1.937,0,0,0,1.846-1.494l-7.559-.7v15a6.34,6.34,0,0,0,.63,3.12,3.423,3.423,0,0,0,2.3,1.509,21.6,21.6,0,0,0,4.834.41h8.262q6,0,9.17-.323a10.957,10.957,0,0,0,4.321-1.054,2.256,2.256,0,0,0,1.157-1.992,2.009,2.009,0,0,0-.469-1.363,4.183,4.183,0,0,0-1.875-.981l-0.175-7.442h-0.733Zm3.926-1.508a28.469,28.469,0,0,1,2.578,4.76,17.424,17.424,0,0,1,1.319,4.864,3.758,3.758,0,0,0,2.768,1.054,2.824,2.824,0,0,0,2.08-1.259,4.649,4.649,0,0,0,.733-2.842,7.839,7.839,0,0,0-1.231-3.736,13.759,13.759,0,0,0-3.808-3.925,25.114,25.114,0,0,0-7.046-3.355l-0.528.44A32,32,0,0,1,128.039,110.89ZM148.62,76.437a13.7,13.7,0,0,1,2.3,4.526,3.387,3.387,0,0,0,2.93.63,2.9,2.9,0,0,0,1.86-1.714,3.545,3.545,0,0,0-.147-2.871,6.745,6.745,0,0,0-3.017-2.915,18.029,18.029,0,0,0-6.782-1.831l-0.557.469A21.26,21.26,0,0,1,148.62,76.437Zm-4.043,13.535a12.355,12.355,0,0,1,2.095,4.116,3.3,3.3,0,0,0,2.827.63,2.726,2.726,0,0,0,1.787-1.611,3.351,3.351,0,0,0-.117-2.7,6.146,6.146,0,0,0-2.813-2.71,16.016,16.016,0,0,0-6.372-1.582l-0.5.469A20.387,20.387,0,0,1,144.577,89.972Zm8.262,3.984q-1.832,4.673-2.886,7.354t-1.6,4.028q-0.541,1.347-.835,1.992t-0.615,1.289a2.756,2.756,0,0,1-.688,1.084,1.661,1.661,0,0,1-.864.176h-2.666v1.2a8.981,8.981,0,0,1,1.669.293,4.383,4.383,0,0,1,1.348.674,3.474,3.474,0,0,1,.967,2.226,22.2,22.2,0,0,1,.249,4.439,44.464,44.464,0,0,1-.571,5.757,3.972,3.972,0,0,0,.966,2.256,2.3,2.3,0,0,0,1.67.732,3.774,3.774,0,0,0,2.959-1.245,5.228,5.228,0,0,0,1.2-3.384,14.343,14.343,0,0,0-.38-4.409q-0.5-1.8-1.04-3.252a8.849,8.849,0,0,1-.572-2.944,14.39,14.39,0,0,1,.205-2.622q0.234-1.451.586-2.915,0.206-.937.733-3.018t1.26-4.819q0.731-2.739,1.567-5.742t1.626-5.874q0.79-2.871,1.406-5.127l-1.025-.176Q154.669,89.284,152.839,93.956Zm15.322,19.365a52.4,52.4,0,0,1-3.017,5.552,34.4,34.4,0,0,1-3.677,4.922l0.674,0.732a34.553,34.553,0,0,0,7.192-5.9,45.53,45.53,0,0,0,5.171-6.519,3.238,3.238,0,0,0,1.538-.087,1.378,1.378,0,0,0,.688-0.7l-6.562-3.1A39.38,39.38,0,0,1,168.161,113.321Zm20.171,0.117a37.591,37.591,0,0,1,2.651,4.512,17.514,17.514,0,0,1,1.568,4.468,3.066,3.066,0,0,0,2.8.806,2.56,2.56,0,0,0,1.684-1.875,5.629,5.629,0,0,0-.366-3.589,11.967,11.967,0,0,0-3.325-4.38,25.424,25.424,0,0,0-7.266-4.234l-0.644.44Q186.838,111.256,188.332,113.438Zm0.322-18.911H173.479V87.5h15.175v7.031Zm-15.175,1.729h15.175v6.533H173.479V96.256Zm-7.735-19.482-6.3-2.461V91.041q0,5.889-.395,12.1a78.121,78.121,0,0,1-1.758,12.246,43.879,43.879,0,0,1-4.263,11.367l0.821,0.527a30.785,30.785,0,0,0,6.093-8.423,41.942,41.942,0,0,0,3.282-9.448,62.615,62.615,0,0,0,1.333-9.58q0.278-4.717.278-8.789v-12.6h12.715q-0.117,1.963-.381,3.867t-0.557,3.457h-2.842l-5.39-2.285v23.936h0.791a6.827,6.827,0,0,0,2.93-.645q1.376-.644,1.377-0.966v-1.26h4.98v15.527a1.1,1.1,0,0,1-.234.791,1.3,1.3,0,0,1-.909.235q-0.41,0-1.42-.044t-2.125-.1q-1.113-.059-2.695-0.146v0.82a11.829,11.829,0,0,1,2.974.762,4.519,4.519,0,0,1,1.6,1.113,3.87,3.87,0,0,1,.777,1.6,11.508,11.508,0,0,1,.307,2.3,10.316,10.316,0,0,0,4.585-1.23,4.575,4.575,0,0,0,1.993-2.49,11.538,11.538,0,0,0,.483-3.487V104.547h4.863v2.285h0.85a6.556,6.556,0,0,0,1.846-.293,12.031,12.031,0,0,0,1.713-.63,1.309,1.309,0,0,0,.748-0.542V88.346a5.362,5.362,0,0,0,1.479-.5,2.851,2.851,0,0,0,.864-0.645l-5.508-4.277-2.578,2.842h-9.316a24.185,24.185,0,0,0,2.227-2.153q1.083-1.187,2.05-2.358a2.093,2.093,0,0,0,2.2-1.377l-5.86-1.436h16.846q1.464,0,1.641-.967-1.143-1.055-2.564-2.212t-3.5-2.769l-3.252,4.277H165.744Zm61.582-.981a11.285,11.285,0,0,1,1.406,4.5,4.171,4.171,0,0,0,2.784.981,3.256,3.256,0,0,0,2.168-.981,3.632,3.632,0,0,0,1-2.183,4.04,4.04,0,0,0-.733-2.666,7.214,7.214,0,0,0-3.047-2.4,17.873,17.873,0,0,0-5.947-1.392l-0.527.439A12.957,12.957,0,0,1,227.326,75.792Zm20.318,11.279q-0.631,2.007-1.216,3.5l0.615,0.41a41.182,41.182,0,0,0,4.351-3.105,44.9,44.9,0,0,0,3.852-3.428,8.274,8.274,0,0,0,1.406-.19,1.845,1.845,0,0,0,.879-0.483l-5.742-5.566-3.31,3.34H210.744a19.279,19.279,0,0,0-.908-3.4h-0.908a6.868,6.868,0,0,1-.557,3.267,9.8,9.8,0,0,1-1.728,2.7,8.9,8.9,0,0,1-2.139,1.772,5.151,5.151,0,0,0-2.095,1.846,2.924,2.924,0,0,0-.249,2.637,3.005,3.005,0,0,0,2.4,1.963,3.905,3.905,0,0,0,3.106-.645,7.01,7.01,0,0,0,2.549-3.076,10.562,10.562,0,0,0,.762-5.3h37.734Q248.273,85.064,247.644,87.071Zm8.393,10.21q-1.171-1.083-2.607-2.256t-3.516-2.783l-3.34,4.248H232.453V87.262a2.86,2.86,0,0,0,1.524-.6,1.731,1.731,0,0,0,.527-1.011l-7.734-.791V96.49h-23l0.557,1.758h19.307a53.685,53.685,0,0,1-5.244,9.814,57.866,57.866,0,0,1-7.456,8.98,51.707,51.707,0,0,1-9.361,7.31l0.528,0.82q16.317-7.148,24.668-19.863v22.148h1.084a6.966,6.966,0,0,0,2.094-.337,7.642,7.642,0,0,0,1.787-.791,1.245,1.245,0,0,0,.718-0.776V98.834a55.569,55.569,0,0,0,8.35,15.2,41.579,41.579,0,0,0,11.806,10.43q1.349-4.189,4.864-4.746l0.175-.616a44.86,44.86,0,0,1-9.2-4.848A50.792,50.792,0,0,1,240,107.066a42.367,42.367,0,0,1-6.46-8.818h20.889q1.436,0,1.611-.967h0Zm20.274-15.41q1.347-3.135,2.519-6.445a3.034,3.034,0,0,0,1.611-.352,1.652,1.652,0,0,0,.733-0.908L272.8,71.647A103.887,103.887,0,0,1,269.836,83.1a111.166,111.166,0,0,1-4.014,10.708,79,79,0,0,1-4.453,8.8l0.791,0.5q1.7-1.64,3.325-3.5t3.15-3.882v31.728h1.084a6.58,6.58,0,0,0,2.124-.352,9.109,9.109,0,0,0,1.728-.761,1.5,1.5,0,0,0,.718-0.615V90.016a2.4,2.4,0,0,0,1.846-1.143l-2.7-.967Q274.963,85.006,276.311,81.871Zm40.4,3.516q-1.143-1.083-2.534-2.314t-3.413-2.959L307.4,84.625h-8.409V74.313a3.347,3.347,0,0,0,1.641-.63,1.848,1.848,0,0,0,.586-1.069l-7.852-.82V84.625H277.1l0.468,1.728h12.744a81.934,81.934,0,0,1-3.471,10.767,71.325,71.325,0,0,1-5.1,10.313,52.325,52.325,0,0,1-6.577,8.8l0.791,0.733a55.806,55.806,0,0,0,10.122-10,59.643,59.643,0,0,0,7.28-12.026v18.487h-9.609l0.5,1.728h9.111v12.422h1.084a6.4,6.4,0,0,0,2.11-.366,7.458,7.458,0,0,0,1.743-.835,1.289,1.289,0,0,0,.688-0.762V115.152h9.024a1.314,1.314,0,0,0,1.552-.966q-0.937-1-2.153-2.124t-3-2.71l-2.812,4.072h-2.608V86.354h0.2a81.2,81.2,0,0,0,5.538,17.579,39.456,39.456,0,0,0,8.613,12.48,8.023,8.023,0,0,1,2.051-3.237,5.8,5.8,0,0,1,2.929-1.509l0.235-.586A35.062,35.062,0,0,1,311.364,105a51.62,51.62,0,0,1-6.328-8.54,54.087,54.087,0,0,1-4.7-10.107H315.07a1.457,1.457,0,0,0,1.641-.967h0Z"/>
</svg>
