<svg xmlns="http://www.w3.org/2000/svg" width="400" height="200" viewBox="0 0 400 200">
  <defs>
    <style>
      .cls-1 {
        fill: #fdfdfd;
        fill-rule: evenodd;
      }
    </style>
  </defs>
  <path id="阿里巴巴普惠体" class="cls-1" d="M37.4,121.649h3.408V84.017H47.1q-0.673,2.977-1.68,6.12t-2.208,6.024q0.672,1.008,1.3,2.088a14.9,14.9,0,0,1,1.08,2.328,17.636,17.636,0,0,1,.744,2.784,18.862,18.862,0,0,1,.288,3.456,3.53,3.53,0,0,1-.576,2.376,3.373,3.373,0,0,1-2.016.792l-2.256.288,1.248,3.36,2.736-.384a5.587,5.587,0,0,0,2.088-.672,3.327,3.327,0,0,0,1.224-1.272,5.748,5.748,0,0,0,.6-1.9,17.111,17.111,0,0,0,.168-2.544,23.615,23.615,0,0,0-.264-3.768,18.2,18.2,0,0,0-.7-2.88,16.529,16.529,0,0,0-.984-2.328q-0.552-1.055-1.08-2.16,1.1-2.927,1.9-5.64t1.56-6.072V80.609H37.4v41.04Zm40.08-40.176H51.9v3.408h18v29.808a8.112,8.112,0,0,1-.1,1.392,1.766,1.766,0,0,1-.36.84,1.515,1.515,0,0,1-.72.456,5.313,5.313,0,0,1-1.224.192l-4.08.288,1.2,3.5,3.312-.288a18.509,18.509,0,0,0,2.664-.408,4.331,4.331,0,0,0,1.728-.792,2.807,2.807,0,0,0,.912-1.368,7.273,7.273,0,0,0,.264-2.136V84.881h3.984V81.473ZM65.1,91.409H52.471v18.432H65.1V91.409Zm-3.264,15.216h-6.1v-12h6.1v12Zm43.152,10.032v-6h15.408v-3.312H104.983v-5.328h14.4V80.705H86.7v21.312h14.688v5.328H86.071v3.312h15.312v6H81.943v3.264h42.624v-3.264H104.983Zm-3.6-32.736v5.9H90.1v-5.9h11.28Zm14.4,5.9h-10.8v-5.9h10.8v5.9ZM90.1,98.8V92.9h11.28v5.9H90.1Zm14.88,0V92.9h10.8v5.9h-10.8Zm62.16,10.512c-0.032.417-.065,0.864-0.1,1.344-0.065.417-.12,0.888-0.168,1.416s-0.12,1.08-.216,1.656a4.991,4.991,0,0,1-.624,1.752,2.182,2.182,0,0,1-1.824.792q-1.3.1-3.216,0.168t-4.2.12q-2.28.049-4.776,0.048t-4.872-.024q-2.376-.022-4.464-0.1t-3.624-.168q-1.776-.144-1.776-1.536v-13.92H166.9V81.185H133.591v34.128a6.168,6.168,0,0,0,.216,1.584,3.935,3.935,0,0,0,.792,1.512,4.652,4.652,0,0,0,1.536,1.176,5.783,5.783,0,0,0,2.4.528q2.592,0.144,6.12.192t7.2,0.024q3.672-.024,7.032-0.1t5.616-.168a13.813,13.813,0,0,0,2.232-.24,3.469,3.469,0,0,0,1.584-.744,4.155,4.155,0,0,0,1.08-1.56,12.246,12.246,0,0,0,.72-2.688q0.144-.864.216-1.632c0.048-.511.1-0.943,0.168-1.3,0.063-.415.112-0.8,0.144-1.152ZM137.287,84.545h11.328V97.409H137.287V84.545Zm25.872,12.864h-10.9V84.545h10.9V97.409Zm51.215,11.9c-0.032.417-.064,0.864-0.1,1.344-0.064.417-.12,0.888-0.168,1.416s-0.12,1.08-.216,1.656a4.991,4.991,0,0,1-.624,1.752,2.182,2.182,0,0,1-1.824.792q-1.3.1-3.216,0.168t-4.2.12q-2.28.049-4.776,0.048t-4.872-.024q-2.376-.022-4.464-0.1t-3.624-.168q-1.776-.144-1.776-1.536v-13.92h29.616V81.185H180.822v34.128a6.168,6.168,0,0,0,.216,1.584,3.935,3.935,0,0,0,.792,1.512,4.662,4.662,0,0,0,1.536,1.176,5.783,5.783,0,0,0,2.4.528q2.592,0.144,6.12.192t7.2,0.024q3.672-.024,7.032-0.1t5.616-.168a13.813,13.813,0,0,0,2.232-.24,3.469,3.469,0,0,0,1.584-.744,4.155,4.155,0,0,0,1.08-1.56,12.246,12.246,0,0,0,.72-2.688q0.144-.864.216-1.632t0.168-1.3q0.1-.623.144-1.152ZM184.518,84.545h11.328V97.409H184.518V84.545ZM210.39,97.409h-10.9V84.545h10.9V97.409Zm40.992-1.68V86.465h12.48V83.393H253.014q0.816-1.1,1.608-2.208t1.272-1.92l-2.736-1.68q-0.336.576-.84,1.32t-1.08,1.536q-0.576.792-1.176,1.56t-1.128,1.392h-9.792l1.392-1.056q-0.816-1.2-1.9-2.5t-1.9-2.256l-2.64,1.776q0.672,0.768,1.536,1.824t1.632,2.208H226.038v3.072h12.48v9.264H223.83V98.8h42.192V95.729h-14.64Zm-9.5-9.264h6.144v9.264h-6.144V86.465Zm-5.808,6.528q-0.48-.623-1.224-1.512t-1.56-1.776q-0.816-.888-1.632-1.7t-1.44-1.392l-2.208,2.16a18.066,18.066,0,0,1,1.416,1.368q0.792,0.84,1.608,1.824t1.536,1.968q0.72,0.984,1.2,1.752Zm19.824,2.256q0.576-.576,1.368-1.416t1.608-1.752q0.816-.911,1.584-1.8t1.3-1.56L259.3,86.8q-0.48.673-1.2,1.536t-1.512,1.752q-0.792.889-1.584,1.728t-1.416,1.464Zm-25.488,26.5h3.36v-2.208h22.368v2.16h3.36V102.449H230.406v19.3Zm25.728-16.128V109.6H233.766v-3.984h22.368Zm-22.368,10.848v-3.888h22.368v3.888H233.766ZM290.55,87.713H276.2v13.3H290.55v3.6q-2.834.1-5.592,0.144t-5.064.1q-2.3.05-3.984,0.1t-2.3.048l0.192,3.024q0.672,0,3.024-.1t5.568-.192q3.215-.094,6.912-0.216t7.128-.24q3.43-.118,6.216-0.192t4.128-.12q0.767,1.057,1.488,2.088t1.248,1.944l2.3-2.16q-0.674-1.008-1.512-2.136t-1.7-2.184q-0.864-1.055-1.68-1.968t-1.44-1.536h2.448v-13.3h-14.16V84.977H311.91V82.1H293.766V78.5l-3.216-.144V82.1H272.406v2.88H290.55v2.736Zm0,2.688v2.688H279.7V90.4H290.55Zm13.872,0v2.688H293.766V90.4h10.656Zm-24.72,7.92V95.489H290.55v2.832H279.7Zm14.064-2.832h10.656v2.832H293.766V95.489Zm6.12,8.928q-2.856.049-6.12,0.144v-3.552h11.472l-2.16,1.44c0.223,0.257.472,0.537,0.744,0.84s0.568,0.633.888,0.984Q302.741,104.371,299.886,104.417Zm-10.008,4.752q0.384,0.386,1.08,1.128t1.44,1.656q0.744,0.913,1.464,1.872t1.152,1.68l2.352-2.208q-0.48-.622-1.2-1.464t-1.464-1.656q-0.745-.815-1.464-1.56t-1.152-1.176Zm-15.984,11.424a23.661,23.661,0,0,0,1.488-2.016q0.766-1.152,1.536-2.472t1.512-2.736q0.744-1.415,1.368-2.808l-2.976-1.392q-0.48,1.152-1.152,2.448t-1.464,2.592q-0.792,1.3-1.656,2.5t-1.632,2.112Zm30.144-9.7a38.494,38.494,0,0,1,3.1,4.176q1.558,2.4,2.952,4.944l2.832-2.064q-0.72-1.152-1.56-2.4t-1.68-2.4q-0.84-1.152-1.656-2.184t-1.488-1.8Zm-4.368,5.5a1.505,1.505,0,0,1-.552.7,2.705,2.705,0,0,1-.984.36,11.541,11.541,0,0,1-1.536.168,46.278,46.278,0,0,1-7.3,0,5.1,5.1,0,0,1-2.4-.6,2.4,2.4,0,0,1-.624-1.992v-4.992l-3.648-.192v6.432a3.8,3.8,0,0,0,1.248,3.24,8.23,8.23,0,0,0,4.272,1.128q2.3,0.144,4.7.144t4.7-.144a23.255,23.255,0,0,0,2.352-.264,3.95,3.95,0,0,0,1.584-.6,2.944,2.944,0,0,0,.984-1.2,8.771,8.771,0,0,0,.6-2.064c0.064-.48.127-0.967,0.192-1.464s0.127-.984.192-1.464l-3.264-1.2c-0.032.48-.065,0.953-0.1,1.416s-0.08.921-.144,1.368A4.818,4.818,0,0,1,299.67,116.393Zm59.376-26.28V86.705H346.038V78.689l-3.648-.144v8.16H330.822v3.408h9.5a45.351,45.351,0,0,1-5.688,11.328,62.35,62.35,0,0,1-7.56,9.024V90.353q1.44-3.168,2.4-5.88t1.584-4.776l-3.408-1.056a69.79,69.79,0,0,1-3.888,10.584,63.887,63.887,0,0,1-7.056,11.736l2.688,2.4q1.2-1.535,2.232-3.12t1.944-3.12v24.24h3.5v-10.8l2.688,2.592a67.47,67.47,0,0,0,7.536-9.72,46.689,46.689,0,0,0,5.088-10.968v17.568h-7.968l-0.1,3.312h8.064v8.4h3.648v-8.4h8.352v-3.312h-8.352V91.841q1.152,3.121,2.448,5.952a51.445,51.445,0,0,0,2.928,5.5,50.033,50.033,0,0,0,3.695,5.232,47.56,47.56,0,0,0,4.753,5.064l2.544-3.072a43.981,43.981,0,0,1-8.064-8.832,51.159,51.159,0,0,1-3.24-5.376q-1.512-2.88-2.856-6.192h10.8Z"/>
</svg>
