<svg xmlns="http://www.w3.org/2000/svg" width="1540" height="1450" viewBox="0 0 1540 1450">
  <defs>
    <style>
      .cls-1 {
        fill: #fff;
      }

      .cls-1, .cls-2, .cls-3 {
        fill-rule: evenodd;
      }

      .cls-2 {
        fill: #fefefe;
      }

      .cls-3 {
        fill: #fdfdfd;
      }
    </style>
  </defs>
  <path id="字体名称" class="cls-1" d="M160.3,200.609H228.07v137.11q-0.2,5.466-5.664,5.469-3.126,0-19.531-2.54l-0.781,4.493q12.5,2.343,15.625,4.3,3.515,2.343,4.687,8.984,15.234-2.738,15.235-16.6V200.609h15.82q2.536,0,2.539-2.261,0-.75-1.562-2.447L242.719,185.57l-9.766,9.766-72.656-.2a110.114,110.114,0,0,1-14.453-1.172q-1.369-.187-3.906-0.565l3.906,8.377a97.9,97.9,0,0,1,14.453-1.172h0Zm-8.789,81.836q0,0.783-.586,10.157-0.395,4.494-.391,4.882,0,4.3,5.078,4.3t5.079-3.125v-4.1h47.265q2.733,0,2.735-1.758,0-1.365-2.344-3.32l-3.711-2.93V241.82q7.809-2.93,7.812-6.054,0-2.344-3.906-4.688l-8.008-5.273-6.64,7.422h-30.86l-11.523-6.446v55.664Zm9.18-43.359h34.765V288.7l-34.765.2V239.086Zm-41.407-45.117q-7.814,26.175-17.187,50,11.325,13.284,15.82,21.875a51.451,51.451,0,0,1,6.445,24.8q0,18.165-8.984,18.164-3.909,0-19.727-3.515L94.867,309.2q11.133,3.516,13.086,4.688,3.9,1.954,4.492,8.2,11.133-1.561,16.6-8.008,5.859-7.032,5.859-21.875,0-13.866-8.594-27.149-6.252-8.981-19.14-22.07,8.981-16.209,22.07-45.9l2.735-1.172q4.879-1.95,4.882-4.3t-4.882-6.25l-6.446-5.078-7.031,8.4H90.375l-11.523-8.789q0.975,7.032,1.367,14.453v162.5q0,3.906,5.368,3.907t5.374-4.493a42.156,42.156,0,0,0-.391-4.882A205.867,205.867,0,0,1,89.4,330.3V193.969h29.883Zm300.977,85.156v2.734q-0.2,2.738,4.492,2.735,5.859,0,6.055-5.078-0.2-1.173-.586-7.813-0.394-4.293-.391-7.031V201q6.249-3.9,6.25-5.469,0-2.343-3.516-4.687l-7.031-5.078-6.25,6.64H309.125l-10.937-7.422v79.3l-0.782,15.625q0,5.082,5.86,5.078,4.688,0,4.687-3.515v-2.344h51.563v27.539H306.391a95.159,95.159,0,0,1-22.461-2.344l3.711,8.4a178.323,178.323,0,0,1,18.75-.781h53.125v32.617h-66.8a86.892,86.892,0,0,1-22.461-2.539l3.711,8.593q8.2-.781,18.75-0.781H456.2q2.733,0,2.539-2.261a5.386,5.386,0,0,0-1.757-2.637l-11.719-10.336-9.57,9.961H368.7V311.938h72.071q2.733,0,2.734-2.262,0-1.126-1.758-2.637L429.828,296.9l-9.57,9.766H368.7V279.125h51.563Zm-112.3-41.016h51.563v35.157H307.953V238.109Zm60.742,0h51.563v35.157H368.7V238.109Zm-60.742-39.843h51.563V232.25H307.953V198.266Zm60.742,0h51.563V232.25H368.7V198.266Zm264.453,66.211q6.637,0,6.641-2.735,0-1.95-2.539-3.515l-3.32-2.149V201.391q8.592-4.294,8.593-7.227,0-1.561-4.687-4.687l-8.2-5.665-7.022,8.008H497.782L485.3,183.812l0.781,13.868V331.469q0,7.617,3.824,11.523,3.826,3.708,17.075,5.664Q524.161,351,587.445,351q31.248,0,52.344-3.516,15.624-2.343,15.625-7.031,0-1.758-2.148-3.32-3.91-2.344-4.493-3.321a16.652,16.652,0,0,1-.781-5.859v-3.906L649.555,301l-4.688-.391q-3.516,27.348-5.469,31.446-2.738,5.662-12.5,7.617-10.94,2.343-65.234,2.344-40.626,0-57.812-2.93-8.6-1.37-8.594-10.352V264.477h137.89ZM555.414,259.2H495.258V197.68h60.156V259.2ZM624.75,197.68V259.2H564.984V197.68H624.75Zm208.4,66.8q6.637,0,6.641-2.735,0-1.95-2.539-3.515l-3.32-2.149V201.391q8.592-4.294,8.593-7.227,0-1.561-4.687-4.687l-8.2-5.665-7.022,8.008H697.782L685.3,183.812l0.781,13.868V331.469q0,7.617,3.824,11.523,3.826,3.708,17.075,5.664Q724.161,351,787.445,351q31.248,0,52.344-3.516,15.624-2.343,15.625-7.031,0-1.758-2.148-3.32-3.91-2.344-4.493-3.321a16.652,16.652,0,0,1-.781-5.859v-3.906L849.555,301l-4.688-.391q-3.516,27.348-5.469,31.446-2.738,5.662-12.5,7.617-10.94,2.343-65.234,2.344-40.626,0-57.812-2.93-8.6-1.37-8.594-10.352V264.477h137.89ZM755.414,259.2H695.258V197.68h60.156V259.2ZM824.75,197.68V259.2H764.984V197.68H824.75Zm187.5,158.932q0,2.59,3.58,2.591,6.765,0,6.77-4.5v-1.371q-1.17-16.452-1.17-21.939V298.1q7.425-3.132,7.42-5.875,0-1.959-3.71-4.7l-8.21-5.468-6.65,7.422H917.74l-11.74-8.4a163.389,163.389,0,0,1,1.367,17.188v34.765l-0.39,7.422-0.2,7.813-0.586,5.859q-0.393,5.466,5.561,5.469,4.6,0,4.791-3.586v-6.57h95.7v7.174Zm-95.7-40.573v-20.7h95.7v20.7h-95.7Zm95.7,28.125h-95.7V321.312h95.7v22.852ZM894.672,264.281a89.262,89.262,0,0,1-22.266-2.148l3.516,8.789a178.323,178.323,0,0,1,18.75-.781H1052.88q2.34,0,2.34-2.829,0-.806-1.56-2.423l-11.72-10.569-9.57,9.961H984.125V211.742h58.985c1.69,0,2.54-.876,2.54-2.627a4.453,4.453,0,0,0-1.56-2.625l-11.72-10.373-9.57,9.766H904.438a101.679,101.679,0,0,1-22.461-2.149l3.711,8.789a185.619,185.619,0,0,1,18.75-.781H940.57v52.539h-45.9Zm55.078-52.539h24.8v52.539h-24.8V211.742Zm58.79-24.609c2.47-.26,3.71-0.977,3.71-2.149q0-1.95-3.13-3.32l-10.737-4.492q-6.446,15.234-15.039,24.414l2.344,2.539a81.919,81.919,0,0,0,18.752-16.6Zm-2.15,52.539q-4.29,6.254-11.328,15.625l3.126,2.344a236.529,236.529,0,0,0,24.412-25.782l4.49-.781c2.87-.519,4.23-1.431,4.11-2.734,0.12-1.3-1.5-2.6-4.89-3.906l-10.93-4.493a79.149,79.149,0,0,1-8.99,19.727h0ZM917.914,182.25q10.35,6.445,14.648,15.039,3.123,6.446,6.446,6.445,3.9,0,3.906-5.078-0.2-9.375-23.242-19.531ZM899.75,222.68q13.279,13.087,16.211,23.047,1.561,5.667,2.344,6.835a3.973,3.973,0,0,0,3.32,1.954,3.749,3.749,0,0,0,2.734-1.172,6.5,6.5,0,0,0,2.344-5.274q0-11.325-24.609-27.734Zm196.09-24.61h62.89v16.211h-45.7l-11.91-8.789a123.417,123.417,0,0,1,1.36,15.848v19.608a173.814,173.814,0,0,1-1.17,20.587,41.867,41.867,0,0,0-.39,4.7q0,4.688,5.47,4.688c1.82,0,3.06-.324,3.71-0.977q1.95-1.56,1.95-2.929v-1.954h46.68v17.969q-27.345.783-40.43,0.781-20.9,0-38.08-1.562l5.86,15.625c0.78,1.953,1.76,2.93,2.93,2.93,0.91,0,1.76-.846,2.54-2.539l1.56-4.3,8.01-.2,26.17-1.171q52.53-2.536,68.55-3.711,19.53-1.561,27.35-1.758a71.9,71.9,0,0,1,9.37,11.133c2.35,3.387,4.49,5.078,6.45,5.078q4.875,0,4.88-6.446,0-8.394-17.19-18.164a116.5,116.5,0,0,0-20.7-9.375l-1.95,3.321a136.349,136.349,0,0,1,14.06,9.179q-28.515,1.173-49.81,1.172V265.062h48.64l-0.2,2.93q-0.39,4.1,5.47,4.1c3.52,0,5.27-1.563,5.27-4.688,0-1.04-.06-2.606-0.19-4.7a187.4,187.4,0,0,1-1.17-20.588V222.909q7.62-3.333,7.61-6.08,0-2.156-3.9-4.7l-8.21-5.274-6.64,7.422H1168.3V198.07h83.79c1.83,0,2.67-.876,2.54-2.627a4.491,4.491,0,0,0-1.56-2.829l-11.91-10.364-9.38,9.961H1168.3v-6.958l4.11-1.163q4.68-1.158,4.68-3.866t-8.2-4.639l-10.74-2.319a134.723,134.723,0,0,1,.58,15.466v3.479h-62.89a104.364,104.364,0,0,1-22.65-2.149l3.9,8.79q8.205-.779,18.75-0.782h0Zm16.21,44.727h46.68v16.992h-46.68V242.8Zm104.89,0v16.992H1168.3V242.8h48.64Zm-104.89-22.656h46.68v17.382h-46.68V220.141Zm104.89,0v17.382H1168.3V220.141h48.64Zm-125,104.3a32.172,32.172,0,0,1-13.48,16.015q-6.84,4.294-6.84,7.813c0,3.125,1.83,4.687,5.47,4.687q7.815,0,14.07-8.984,5.85-8.79,8.2-29.1,0.39-1.95.78-6.25l-3.91-.586q-1.95,11.329-4.29,16.407h0Zm111.1,10.937q-1.965,7.809-8.42,9.375-7.44,1.562-28.58,1.562-24.66,0-30.14-1.562-5.49-1.954-5.49-8.594V313.5l4.11-.781q4.875-1.171,4.88-4.3,0-2.537-8.4-4.3l-10.55-2.344q0.78,3.909.78,15.625v23.828a17.137,17.137,0,0,0,1.96,7.227q2.73,5.274,16.4,6.445,16.41,1.173,26.57,1.172,51.945,0,51.95-10.547a3.933,3.933,0,0,0-1.76-3.125q-4.3-2.93-4.7-3.711-1.77-3.322-1.76-12.3,0-3.906.58-12.11l-4.11-.781q-2.145,17.578-3.32,21.875h0Zm-49.38-33.594q16.2,10.546,21.09,20.313c2.08,3.906,3.52,6.25,4.3,7.031a7.478,7.478,0,0,0,3.9,1.758q5.085,0,5.08-6.445,0-13.669-32.62-26.172Zm67.96,6.641a140.6,140.6,0,0,1,10.94,10.937,57.536,57.536,0,0,1,10.55,20.7q2.34,7.619,7.03,7.618,5.46,0,5.27-8.008,0-9.375-13.28-21.094a203.852,203.852,0,0,0-17.77-13.281Zm125.67-79.3h22.42q-16.605,52.346-62.5,93.75l2.15,2.734q21.48-14.451,42.97-43.359a213.536,213.536,0,0,0,25.37-45.117l0.18,75.781h-19.77q-13.5,0-22.51-2.344l3.72,8.985a182.557,182.557,0,0,1,18.79-.782h19.77V334.4q0,6.052-.4,11.914-0.39,6.445-.39,9.571,0,4.293,4.22,4.3c3.57,0,5.49-2.085,5.74-6.25V318.773h41.41c1.82,0,2.74-.781,2.74-2.343a2.811,2.811,0,0,0-1.18-2.149l-11.72-9.765-8.78,8.4h-22.47V229.906q15.825,43.359,34.77,69.922,12.105,17.188,23.83,26.172,3.9-6.249,10.55-6.25h2.92l0.98-3.516a87.226,87.226,0,0,1-17.97-10.742q-12.5-9.96-23.43-26.172-13.68-20.31-19.54-33.008-6.63-14.451-8-17.187h56.44c1.82,0,2.67-.754,2.54-2.261a5.414,5.414,0,0,0-1.76-2.637l-11.72-10.141-9.57,9.766h-40.04V192.211l4.11-1.172q4.875-1.363,4.88-3.906,0-2.733-8.59-4.688l-10.36-2.343q0.39,3.126.79,15.625v28.125h-31.1a98.24,98.24,0,0,1-22.09-2.344l3.89,8.4q10.53-.779,18.71-0.781h0Zm-52.23-7.422q-8.985,22.074-26.95,47.266l2.73,2.734a209.7,209.7,0,0,0,22.27-30.078,48.076,48.076,0,0,0,3.12-5.078v120.7q0,4.294,3.91,4.3,6.645,0,6.64-4.1a14,14,0,0,0-.39-2.929,105.519,105.519,0,0,1-.59-14.258V239.281l4.89-1.953a2.766,2.766,0,0,0,1.95-2.734q0-1.95-2.34-2.735l-8.99-3.32q7.425-14.254,16.02-39.258l5.86-.976q3.9-.587,3.9-2.735,0-2.343-3.71-3.711l-14.26-5.468q-2.73,17.577-14.06,45.312h0Z"/>
  <path id="中文示例" class="cls-2" d="M314.747,699.237v32.7q0,10.3-.55,17.149a46.615,46.615,0,0,1-2.4,12,33.423,33.423,0,0,1-5.35,9.551,94.334,94.334,0,0,1-9.4,9.9l5.7,4.5q4.1-3.9,7.15-7.45a51.734,51.734,0,0,0,5.25-7.251,38.816,38.816,0,0,0,3.55-7.849,60.678,60.678,0,0,0,2.15-9.151h23.4v15.4a15.01,15.01,0,0,1-.25,3.05,3.194,3.194,0,0,1-1.1,1.85,5.241,5.241,0,0,1-2.3,1,33.689,33.689,0,0,1-3.85.5l-6.5.5,2.5,7.4,5.1-.5a47.8,47.8,0,0,0,6.5-1.05,10.272,10.272,0,0,0,4.15-1.951,7.043,7.043,0,0,0,2.2-3.449,19.646,19.646,0,0,0,.65-5.551v-71.3h-36.6Zm-10.5,2h-29.2v66.6h29.2v-66.6Zm40,5.2v16.5h-22.3v-16.5h22.3Zm-46.5,2.1v22.1h-16v-22.1h16Zm23.9,37.7q0.3-4.8.3-10.6v-5.8h22.3v16.4h-22.6Zm-39.9,14.4v-22.8h16v22.8h-16Zm102.8-62.4v35.8q0,9.4-.55,15.8a51.347,51.347,0,0,1-2.15,11.351,34.729,34.729,0,0,1-4.65,9.3,87.746,87.746,0,0,1-7.95,9.55l7,4.8q3.6-4.2,6.2-7.851a51.586,51.586,0,0,0,4.4-7.35,45.1,45.1,0,0,0,2.9-7.649,61.172,61.172,0,0,0,1.7-8.651h42.6v14.4a12.573,12.573,0,0,1-.7,4.8,3.258,3.258,0,0,1-3,1.8l-9.7.9,2.5,7.3,8.1-.8a20.361,20.361,0,0,0,5.45-1.1,7.081,7.081,0,0,0,3.15-2.25,8.426,8.426,0,0,0,1.5-3.6,30,30,0,0,0,.4-5.35v-71.2h-57.2Zm49.5,7.2v17.1h-41.8v-17.1h41.8Zm-42,40.8q0.1-2.6.15-5.349t0.05-5.95v-5.3h41.8v16.6h-42Zm147.9-2.5v28h-25.7v-35.7h29.3v-33.5l-7.7-.3v26.4h-21.6v-35l-7.5-.2v35.2h-21.4v-26.1l-7.7-.3v33.8h29.1v35.7h-25.4v-27.4l-7.8-.4v35.3h66.4v4.8h7.9v-40Zm110.3-7v-7.4h-37.8v-21.4h32.5v-7.2h-72.6v7.2h32.2v21.4h-37.5v7.4h36.9q-4.2,23.8-39.7,40.5l5.1,7q16.6-8.4,26.2-18t13.6-19.6a51.111,51.111,0,0,0,5.65,11.1,58.351,58.351,0,0,0,8.25,9.65,84.2,84.2,0,0,0,11.15,8.8,151.058,151.058,0,0,0,14.45,8.449l4.7-7.7a104.244,104.244,0,0,1-14.7-7.8,72.628,72.628,0,0,1-11.5-9.1,53.127,53.127,0,0,1-8.45-10.65,56.348,56.348,0,0,1-5.55-12.65h37.1Zm86.5-26.2v58.8h-25.5v-74.1l-7.6-.5v74.6h-25.5v-58.3l-7.6-.5v66.4h66.2v6.2h7.6v-72.1Zm75.2,7.6h7.3v-8.6h24.6v8.6h7.3v-8.6h22v-7h-22v-8.7l-7.3-.3v9h-24.6v-8.7l-7.3-.3v9h-22.1v7h22.1v8.6Zm18.1,39.2,2.4,6.7,5.1-.4a46.251,46.251,0,0,0,8.651-1.3,12.494,12.494,0,0,0,5-2.45,7.58,7.58,0,0,0,2.349-3.8,28.264,28.264,0,0,0,.8-5.45q0-.6.1-2.25t0.149-3.7q0.049-2.049.15-4t0.1-3.151q4.2,2.2,9,4.25t10.5,4.05l3.6-7.5a123.553,123.553,0,0,1-12.8-4.649q-6.2-2.649-11.6-5.6a93.8,93.8,0,0,1-9.849-6.149,68.145,68.145,0,0,1-7.651-6.3h-8.8a108.637,108.637,0,0,1-17.3,12.649,122.477,122.477,0,0,1-24.7,10.95l3.8,7.2q4.4-1.7,8.45-3.451t7.85-3.75v27.7a28.152,28.152,0,0,0,.7,6.9,8.639,8.639,0,0,0,2.351,4.251,9.495,9.495,0,0,0,4.449,2.2,34.9,34.9,0,0,0,6.9.75q15.4,0.6,30.9,0a61.431,61.431,0,0,0,7-.5,21.341,21.341,0,0,0,4.6-1.1,7,7,0,0,0,2.7-1.7,6.006,6.006,0,0,0,1.3-2.4q0.3-1.1.6-2.6t0.6-3.1q0.3-1.6.5-3.2t0.4-2.9l-7.7-2.8q-0.2,2.2-.45,4.3t-0.851,5a4.186,4.186,0,0,1-2.75,2.9,25.769,25.769,0,0,1-7.75,1.1q-13.7.6-27.4,0a25.977,25.977,0,0,1-4.25-.45,5.6,5.6,0,0,1-2.651-1.251,4.547,4.547,0,0,1-1.349-2.5,20.845,20.845,0,0,1-.351-4.3v-22h33.9c0,0.334-.017.8-0.049,1.4s-0.068,1.234-.1,1.9-0.067,1.3-.1,1.9-0.049,1.035-.049,1.3q-0.2,2-.451,3.25a3.067,3.067,0,0,1-1.2,1.949,6.552,6.552,0,0,1-2.849,1q-1.9.3-5.3,0.6Zm-20.1-20.6a125.6,125.6,0,0,0,11.849-7.6,116.67,116.67,0,0,0,9.75-7.9,87.708,87.708,0,0,0,9.45,7.951,98.62,98.62,0,0,0,12.25,7.549h-43.3Zm101.7-16.9h7.4v-9.1h23.3v8.3h7.3v-8.3h22.3v-7.2h-22.3v-10.2l-7.3-.2v10.4h-23.3v-10l-7.4-.4v10.4h-23.8v7.2h23.8v9.1Zm-19.6,3.6q1.7,1,4.05,2.5t4.8,3.2q2.449,1.7,4.7,3.4t3.75,3l3.2-6.8a43.784,43.784,0,0,0-3.75-2.849q-2.25-1.549-4.65-3.1t-4.75-2.95q-2.351-1.4-4.15-2.3Zm81.4,15.4v-7.2h-25.8q-0.8-2.9-2-6.151t-2-5.25l-7.2,1.3q0.8,1.7,1.8,4.45t1.8,5.651h-26.5v7.2h5.5v40.7h49.5v-7.2h-41.7v-33.5h46.6Zm-65.6,6.6q-1.6-1.2-3.95-2.8t-4.85-3.15q-2.5-1.548-4.95-2.9t-4.25-2.149l-3.2,6q1.7,0.8,4.15,2.25t5,3.1q2.55,1.648,4.9,3.449a39.611,39.611,0,0,1,3.85,3.3Zm-2.8,9.1q-1.2,2.5-3.15,5.9t-4.2,6.9q-2.25,3.5-4.5,6.65t-3.95,5.25l6.1,4.4q1.6-2.1,3.85-5.35t4.5-6.849q2.25-3.6,4.2-7.051a60.78,60.78,0,0,0,3.05-6.05l-2.4-1.5Zm157.3-55h-68.4v7.4h68.4v-7.4Zm8.6,34.3v-7.4h-85.3v7.4h33.8q-2.205,4.1-5,8.5t-5.8,8.55q-3,4.152-6.05,7.851t-5.549,6.3a36.049,36.049,0,0,1-3.15,2.35,18.333,18.333,0,0,1-4.15,1.85l2.2,7.7q2.9-.5,5.15-0.8t5.149-.5q1.695-.1,5.55-0.3t8.85-.45c3.33-.167,6.87-0.349,10.6-0.549s7.37-.385,10.9-0.551,6.78-.315,9.75-0.45,5.35-.232,7.15-0.3q1.305,2.2,2.5,4.351t2.3,4.45l7-5.7q-2.1-3.8-5.2-8.55t-6.4-9.551q-3.3-4.8-6.6-9.249t-5.9-7.751l-6.4,4.6q3.2,3.9,6.8,9.051t7.4,11.05l-45.5,2.3q2.6-2.8,5.85-6.9t6.5-8.75q3.255-4.648,6.3-9.5t5.25-9.05h42Zm100.6,13.2v-6.8h-11q0.105-4,.25-7.7t0.3-6.649c0.1-1.966.17-3.583,0.2-4.851s0.05-2.065.05-2.4h-46.5q1.605-2.2,3.15-4.5t3.05-4.6h46.5v-6.6h-42.6q1.2-2.3,2.3-4.5t2.1-4.4l-7.1-1.6a75.009,75.009,0,0,1-3.35,7.2q-1.95,3.7-4.35,7.4t-5.1,7.151a82.714,82.714,0,0,1-5.6,6.45l5.4,4.9c0.87-1,1.73-2.015,2.6-3.05s1.7-2.115,2.5-3.25l-2.2,21h-8.6v6.8h7.8l-2.4,22.4h43.6v0.1a10.168,10.168,0,0,1-.6,3.151,4.163,4.163,0,0,1-1.65,2,9.11,9.11,0,0,1-3.15,1.149,32.187,32.187,0,0,1-5.1.5l-8.3.4,2.9,7.2,6.3-.3a51.144,51.144,0,0,0,7.95-.849,11.951,11.951,0,0,0,5-2.1,8,8,0,0,0,2.65-3.75,19.841,19.841,0,0,0,.9-5.8v-0.6a7.749,7.749,0,0,1,.1-1.1h8.8v-7.1h-8.6q0.195-3.2.3-7.149t0.3-8.15h11.2Zm-63.4-37.8q-1.4-1.3-3.6-3.2t-4.6-3.8q-2.4-1.9-4.75-3.6t-4.05-2.7l-4.1,5.5c1.07,0.734,2.38,1.684,3.95,2.849s3.17,2.418,4.8,3.75,3.2,2.685,4.7,4.05a49.984,49.984,0,0,1,3.75,3.75Zm-4.2,21.9a48.029,48.029,0,0,0-3.75-3.3q-2.355-1.9-4.95-3.8t-5.15-3.55q-2.55-1.648-4.35-2.65l-4,5.5c1.13,0.735,2.52,1.7,4.15,2.9s3.32,2.468,5.05,3.8,3.4,2.7,5,4.1a35.6,35.6,0,0,1,3.9,3.9Zm16.8-5.8h11l-3.4,4.7q1.2,0.8,2.85,2c1.1,0.8,2.22,1.668,3.35,2.6s2.25,1.9,3.35,2.9,2.02,1.9,2.75,2.7h-21.6Zm20.2,14.9,3.6-5.8c-0.67-.6-1.5-1.316-2.5-2.151s-2.07-1.665-3.2-2.5-2.25-1.632-3.35-2.4-2.05-1.45-2.85-2.051h22c0,0.668-.07,2.385-0.2,5.15s-0.27,6.018-.4,9.75h-13.1Zm-45,5.8q-0.9,3.5-2.45,8.2t-3.45,9.6q-1.9,4.9-3.9,9.4c-1.33,3-2.57,5.532-3.7,7.6l7.6,2.6q1.395-3.1,3.2-7.65t3.55-9.45q1.755-4.9,3.25-9.6t2.4-8.2l-3-1.1Zm22.3,1h12l-3.4,4.9q1.2,0.8,2.85,2c1.1,0.8,2.22,1.684,3.35,2.649s2.25,1.95,3.35,2.95a30.2,30.2,0,0,1,2.75,2.8h-22.6Zm21.5,15.3,3.5-5.6c-0.73-.665-1.62-1.432-2.65-2.3s-2.12-1.75-3.25-2.65-2.27-1.766-3.4-2.6-2.13-1.551-3-2.15h22.7q-0.2,4.2-.35,8.15t-0.35,7.149h-13.2Zm48.8-63.5c1.07,0.867,2.28,1.967,3.65,3.3s2.73,2.75,4.1,4.25,2.68,3.018,3.95,4.551a50.479,50.479,0,0,1,3.1,4.1l4.9-6.4q-1.2-1.5-3.15-3.549t-4.05-4.2q-2.1-2.148-4.2-4.1t-3.6-3.15Zm22.9,1.3v7.4h44.3v59.4a22.758,22.758,0,0,1-.3,4.149,4.314,4.314,0,0,1-1.2,2.4,5.618,5.618,0,0,1-2.6,1.251,29.539,29.539,0,0,1-4.4.6l-6.3.4,2.5,7.5,5.1-.5a50.959,50.959,0,0,0,7.35-1.1,10.563,10.563,0,0,0,4.55-2.2,7.782,7.782,0,0,0,2.35-3.95,26.628,26.628,0,0,0,.65-6.55v-68.8h-52Zm-24.6,82.6h7.5v-70.6l-7.5-.3v70.9Zm56.6-62.6h-36.9v47.8h36.9v-47.8Zm-7,7v13.4h-22.8v-13.4h22.8Zm-22.8,33.6v-13.1h22.8v13.1h-22.8Zm-857.193,153.1v-7.5h-61.9v-36.8l-7.7-.3v37.1h-16.4v7.5h16.4v33a3.853,3.853,0,0,1-.95,2.6,10.114,10.114,0,0,1-2.75,2.1l3.7,8.3a25.68,25.68,0,0,1,3.3-2,28.274,28.274,0,0,1,3.3-1.4q1-.4,3.1-1.2t4.65-1.851q2.55-1.048,5.45-2.2t5.45-2.15q2.55-1,4.65-1.85t3.1-1.15l-0.5-7.8q-1.6.7-5.15,2.1t-7.5,2.9q-3.952,1.5-7.4,2.8t-4.75,1.7v-33.9h12.4a77.4,77.4,0,0,0,7.8,13.851,68.1,68.1,0,0,0,10.05,11.2,79.228,79.228,0,0,0,12.7,9.2,139.7,139.7,0,0,0,15.95,7.951l5.2-7.5a124.189,124.189,0,0,1-15.3-6.4,68.969,68.969,0,0,1-11.9-7.55,52.94,52.94,0,0,1-9.1-9.25,62.491,62.491,0,0,1-6.9-11.5h41Zm-13.4-41.2a182.533,182.533,0,0,1-21.85,12.051,164.161,164.161,0,0,1-23.65,8.949l3.7,7.2q5.8-1.9,11.75-4.25t11.8-5.05q5.85-2.7,11.4-5.7t10.55-6.2Zm108.3,58.9q-0.4,3.1-.85,5.6t-1.25,5.4a37.24,37.24,0,0,1-1.3,3.7,1.889,1.889,0,0,1-1.7,1.4q-1,0-2.1-5A71.437,71.437,0,0,1,443,932.188q-0.351-6.649-.35-17.45v-41.4h-64.5v41.1q0,5.7-.35,10.9a60.2,60.2,0,0,1-1.55,10.151,48.363,48.363,0,0,1-3.5,9.7,52.02,52.02,0,0,1-6.1,9.55l6.9,3.5a55.468,55.468,0,0,0,9.65-20.6,100.177,100.177,0,0,0,2.55-22.7v-34.3h49.3v37.8q0,6.4.25,11.149t0.65,8.4a61.818,61.818,0,0,0,1,6.4q0.6,2.753,1.2,4.95a12.806,12.806,0,0,0,3.45,6.2,7.075,7.075,0,0,0,4.75,2,7.189,7.189,0,0,0,4.9-2.25q2.4-2.25,3.7-7.35,0.7-2.6,1.4-5.95t1.2-7.151Zm-28.4-44.8a167.524,167.524,0,0,1-11.5,23.9q-4.1-6.3-7.85-11.9t-6.65-9.7l-5.8,4.1q3.2,4.5,7.4,10.95t8.7,13.651a169.466,169.466,0,0,1-10.35,14.55,140.776,140.776,0,0,1-11.45,12.75l5.7,5.1a136.156,136.156,0,0,0,10.5-11.849q5.1-6.45,9.8-13.651,3.9,6.4,7.6,12.7t6.8,11.7l6.2-5.3q-3.4-5.6-7.55-12.4t-8.65-13.8q4-6.7,7.45-13.651t6.25-13.85Zm49.7,72.1q4.3-4,7.5-7.4a53.03,53.03,0,0,0,5.5-6.851,39.926,39.926,0,0,0,3.8-7.149,45.621,45.621,0,0,0,2.4-8.2,76.139,76.139,0,0,0,1.25-10.05q0.348-5.55.35-12.75v-23.4h29.9v62a19.1,19.1,0,0,0,.6,5.25,7.192,7.192,0,0,0,1.85,3.25,7.066,7.066,0,0,0,3.25,1.7,23.6,23.6,0,0,0,4.8.6q4.5,0.2,9,0a23.758,23.758,0,0,0,4.25-.5,6.872,6.872,0,0,0,2.85-1.3,6.141,6.141,0,0,0,1.7-2.2,15.25,15.25,0,0,0,1-3.2,54.562,54.562,0,0,0,1.05-7.8q0.247-4,.45-8.1l-7.3-2.7q0,3.2-.25,6.4t-0.75,6.4q-0.5,3.1-1.55,4.05a5.823,5.823,0,0,1-3.45,1.151,21.991,21.991,0,0,1-4.2,0,16.809,16.809,0,0,1-2.85-.35,3.369,3.369,0,0,1-1.65-.851,2.868,2.868,0,0,1-.75-1.7,22.344,22.344,0,0,1-.15-2.9v-67.1h-45.6v31.3a151.5,151.5,0,0,1-.75,16.6,42.226,42.226,0,0,1-2.85,11.6,32.812,32.812,0,0,1-5.85,9.2,115.471,115.471,0,0,1-9.65,9.4Zm179-76.4v-7.4h-84v7.4h24.9q-0.1,2-.2,4.25t-0.2,4.449q-0.1,2.2-.2,4.1t-0.2,3.3a114.4,114.4,0,0,1-2.2,17.151,52.821,52.821,0,0,1-4.85,13.5,57.083,57.083,0,0,1-8.35,11.75,131.375,131.375,0,0,1-12.6,11.9l6.1,5.8a118.442,118.442,0,0,0,12-11.5,67.149,67.149,0,0,0,8.4-11.6,62.827,62.827,0,0,0,5.45-12.75,88.383,88.383,0,0,0,3.05-14.951h32.9q-0.1,1.6-.35,5.5t-0.55,8.25q-0.3,4.352-.55,8.25t-0.35,5.5a30.227,30.227,0,0,1-.95,5.9,7.118,7.118,0,0,1-2,3.4,7.514,7.514,0,0,1-3.6,1.651,42.346,42.346,0,0,1-5.65.65l-8.6.6,2.8,7.7,8.2-.7a54.29,54.29,0,0,0,8.55-1.2,11.543,11.543,0,0,0,5.15-2.549,10,10,0,0,0,2.75-4.8,44.2,44.2,0,0,0,1.25-8.05q0.1-1.2.3-4.1t0.45-6.649q0.249-3.75.5-8t0.5-8q0.249-3.75.4-6.7t0.25-4.151h-40.6a6.037,6.037,0,0,1,.05-0.849,6.182,6.182,0,0,0,.05-0.851q0.2-3.4.35-7.75t0.35-8.449h51.3Zm59.4,65.9v-12.5h32.1v-6.9h-32.1v-11.1h30v-44.4h-68.1v44.4h30.6v11.1h-31.9v6.9h31.9v12.5h-40.5v6.8h88.8v-6.8h-40.8Zm-7.5-68.2v12.3h-23.5v-12.3h23.5Zm30,12.3h-22.5v-12.3h22.5v12.3Zm-53.5,18.7v-12.3h23.5v12.3h-23.5Zm31,0v-12.3h22.5v12.3h-22.5Zm107.6-3.2,6.4,3.4a126.746,126.746,0,0,0,10.4-21.1h29.3q-1.9,4.5-3.849,8.95a65.762,65.762,0,0,1-4.45,8.449l6.5,2.5q2.6-4.8,4.849-9.9t4.151-10.3v-6.9h-33.8q1.2-3.3,2.25-6.8t2.149-7.2l-7.6-.8q-1.2,5.4-2.55,10.25a93.31,93.31,0,0,1-3.25,9.6,100.883,100.883,0,0,1-4.4,9.5,96.87,96.87,0,0,1-6.1,9.951v-29.3h-26v67.1h26v-37.4Zm-7.1,30h-11.9v-52.6h11.9v52.6Zm36.75-30.45q0.049-.549.05-1.05,0-.7.051-2.051t0.1-2.9q0.05-1.55.1-2.951c0.033-.932.051-1.7,0.051-2.3l-7.5-.4v4.95q0,1.65-.051,3.2t-0.05,2.25a78.937,78.937,0,0,1-1.5,13.8,40.88,40.88,0,0,1-4.5,11.95,48.358,48.358,0,0,1-8.649,10.9,86.673,86.673,0,0,1-13.851,10.551l6.1,5.7a100.945,100.945,0,0,0,17.1-16.1,54.853,54.853,0,0,0,9.5-17.1q6.2,18.8,26.7,32.3l4.8-6q-13.7-8.6-20.549-19.351a52.407,52.407,0,0,1-7.951-24.349C848.242,908.205,848.258,907.855,848.292,907.488Zm53.95-22.151h69.6v-6.6h-32.4q-0.9-2.8-1.95-5.9t-1.85-4.9l-7.4,1.4q0.7,1.7,1.55,4.25t1.65,5.149h-36.4v29.2q0,9.5-.55,16.1a72.964,72.964,0,0,1-1.9,11.9,60.57,60.57,0,0,1-3.5,10.05,110.492,110.492,0,0,1-5.45,10.349l6.9,3.5q2.9-5.5,5.1-10.349a64.909,64.909,0,0,0,3.65-10.4,86.6,86.6,0,0,0,2.2-12.45,155.527,155.527,0,0,0,.75-16.5v-24.8Zm53.1,31v-14.4h16.2v-6.3h-16.2v-7.3l-7.2-.2v7.5h-23.2v-7.3l-7.1-.2v7.5h-13.1v6.3h13.1v14.4h37.5Zm-7.2-14.4v8.2h-23.2v-8.2h23.2Zm26.1,49.3q-10.2-1.4-17.75-2.851a119.723,119.723,0,0,1-13.55-3.349,68.27,68.27,0,0,0,10.35-7.151,60.418,60.418,0,0,0,8.35-8.649v-6.4h-55.6v6.3h45.8a49.263,49.263,0,0,1-7.45,6.95,55.612,55.612,0,0,1-9.55,5.75,54.075,54.075,0,0,1-8.8-5.25,57.031,57.031,0,0,1-7.9-7.149l-5.2,4.1a61.867,61.867,0,0,0,7,6.4,76.632,76.632,0,0,0,7.4,5.1,127.494,127.494,0,0,1-13.3,4q-7.3,1.8-16.3,3.4l3.3,6.7q10.4-2.3,18.75-4.8a152.436,152.436,0,0,0,15.25-5.4,103.746,103.746,0,0,0,16.55,5.3q8.948,2.1,19.95,4Zm57.8-4.9v-32.1h33.1v-7.4h-33.1v-24.1h35.1v-7.4h-77.9v7.4h34.6v24.1h-32.5v7.4h32.5v32.1h-39.4v7.4h87.6v-7.4h-40Zm29.7-11c-0.87-1.332-1.93-2.815-3.2-4.45s-2.57-3.282-3.9-4.949-2.68-3.266-4.05-4.8-2.58-2.865-3.65-4l-5.9,5c1.07,1.135,2.28,2.518,3.65,4.151s2.72,3.349,4.05,5.15,2.6,3.567,3.8,5.3,2.2,3.234,3,4.5Zm28.2-61.3a49.418,49.418,0,0,1,3.7,3.4q2.1,2.1,4.25,4.4t4.1,4.7q1.95,2.4,3.25,4.3l5.1-6.6q-1.3-1.6-3.3-3.75t-4.2-4.35q-2.205-2.2-4.35-4.2t-3.75-3.3Zm74.8,1.5h-50.4v7.3h42.7v58.5a21.936,21.936,0,0,1-.3,4.1,4.282,4.282,0,0,1-1.2,2.35,4.9,4.9,0,0,1-2.55,1.15q-1.65.3-4.35,0.5l-8.7.6,2.4,7.9,8.7-.8a66.5,66.5,0,0,0,6.65-.949,9.07,9.07,0,0,0,4.2-1.9,7.4,7.4,0,0,0,2.2-3.8,26.628,26.628,0,0,0,.65-6.55v-68.4Zm-76.2,11.4v70.6h7.4v-70.2Zm176.7,33.6v-7.5h-36.9v-0.8l0.2-17.3h31.1v-7.2h-19.7q3-4,5.7-8.351t4.9-8.549l-7-2.9a104.664,104.664,0,0,1-5.8,10,109.085,109.085,0,0,1-7.1,9.8h-18.6l4.2-3.1q-0.9-1.7-2.4-3.949t-3.1-4.6c-1.07-1.566-2.13-3.066-3.2-4.5s-2-2.616-2.8-3.551l-6,3.8c0.73,0.867,1.55,1.934,2.45,3.2s1.83,2.635,2.8,4.1,1.88,2.951,2.75,4.451,1.63,2.884,2.3,4.15h-20.1v7.2h31.4v18.1h-36.7v7.5h35.7a30,30,0,0,1-3.8,8.049,37.478,37.478,0,0,1-7.2,7.851,70.893,70.893,0,0,1-11.45,7.7,132.242,132.242,0,0,1-16.45,7.5l4.5,7.3q15.195-6.4,24.95-13.8t14.35-16.4a42.711,42.711,0,0,0,6.95,10.4,58.348,58.348,0,0,0,9.6,8.5,70.657,70.657,0,0,0,11.45,6.6,94.6,94.6,0,0,0,12.5,4.7l4-7.7q-15.795-4.4-25.9-12.05a40.581,40.581,0,0,1-14.1-18.65h36.5Z"/>
  <path id="大写字母" class="cls-3" d="M140.392,496.766h6.84L128.368,446.8h-8.64l-18.936,49.968h6.624l5.472-14.9h22.1ZM115.048,476.1l8.568-23.256h0.864L132.9,476.1H115.048Zm46.8,20.664h15.84a30.573,30.573,0,0,0,8.244-.936,12.432,12.432,0,0,0,5.22-2.772,9.98,9.98,0,0,0,2.736-4.5,21.226,21.226,0,0,0,.792-6.048,18.253,18.253,0,0,0-.432-4.1,9.755,9.755,0,0,0-1.476-3.384A8.9,8.9,0,0,0,190,472.466a13.176,13.176,0,0,0-4.248-1.548V470.63a9.484,9.484,0,0,0,5.616-3.96,12.563,12.563,0,0,0,1.656-6.624,19.394,19.394,0,0,0-.792-5.868,8.979,8.979,0,0,0-2.7-4.14,12.121,12.121,0,0,0-5.148-2.448,35.012,35.012,0,0,0-8.136-.792h-14.4v49.968Zm6.48-28.08V452.27h4.9q3.6,0,6.156.252a11.755,11.755,0,0,1,4.176,1.08,5.113,5.113,0,0,1,2.376,2.448,10.439,10.439,0,0,1,.756,4.356,9.619,9.619,0,0,1-.756,4.068,5.68,5.68,0,0,1-2.376,2.556,11.577,11.577,0,0,1-4.176,1.3,44.976,44.976,0,0,1-6.156.36h-4.9Zm0,22.536V473.8h6.7a33.131,33.131,0,0,1,6.336.5,10.806,10.806,0,0,1,4.032,1.548,5.817,5.817,0,0,1,2.16,2.664,10.575,10.575,0,0,1,.648,3.924,13.344,13.344,0,0,1-.612,4.392,5.169,5.169,0,0,1-2.124,2.7,10.133,10.133,0,0,1-4.068,1.332,46.918,46.918,0,0,1-6.372.36h-6.7Zm73.584,5.652a24.39,24.39,0,0,0,5.184-1.548V489.71a34.755,34.755,0,0,1-5.616,1.476,37.475,37.475,0,0,1-6.264.468,25.8,25.8,0,0,1-7.236-.9,10.434,10.434,0,0,1-5.04-3.168,14.576,14.576,0,0,1-2.952-6.12,41.175,41.175,0,0,1-.972-9.828,35.891,35.891,0,0,1,1.044-9.4,15.03,15.03,0,0,1,3.132-6.12,11.6,11.6,0,0,1,5.256-3.348,24.52,24.52,0,0,1,7.416-1.008,33.469,33.469,0,0,1,5.9.468,28.528,28.528,0,0,1,4.752,1.26v-5.976a28.571,28.571,0,0,0-4.788-1.08,43.718,43.718,0,0,0-6.012-.36,34.166,34.166,0,0,0-9.756,1.3,17.155,17.155,0,0,0-7.38,4.32,20.063,20.063,0,0,0-4.68,7.956,38.447,38.447,0,0,0-1.656,12.132,42.555,42.555,0,0,0,1.62,12.852,18.428,18.428,0,0,0,4.608,7.848,16.009,16.009,0,0,0,7.164,3.924,37.413,37.413,0,0,0,9.36,1.08A35.849,35.849,0,0,0,241.911,496.874Zm22.1-50.076v49.968h14.4a37.9,37.9,0,0,0,9.828-1.188,18.054,18.054,0,0,0,7.6-4.068,19.029,19.029,0,0,0,4.932-7.668,35.267,35.267,0,0,0,1.764-12.06,38.047,38.047,0,0,0-1.764-12.672,17.8,17.8,0,0,0-4.932-7.632,16.975,16.975,0,0,0-7.6-3.708,45.923,45.923,0,0,0-9.828-.972h-14.4Zm6.48,44.28V452.414h7.776a29.233,29.233,0,0,1,7.02.792,12.61,12.61,0,0,1,5.544,2.916,14.15,14.15,0,0,1,3.672,5.9,35.9,35.9,0,0,1,.072,19.116,14.161,14.161,0,0,1-3.6,5.94,13.164,13.164,0,0,1-5.58,3.1,26.582,26.582,0,0,1-7.128.9H270.5Zm57.527-.144V473.51h19.872v-5.472H328.022v-15.48h21.312V446.8H321.542v49.968h29.592v-5.832H328.022Zm68.544-38.376V446.8H368.774v49.968h6.48V474.518h19.872v-5.76H375.254v-16.2h21.312Zm47.844,44.316a46.7,46.7,0,0,0,6.516-1.476V469.982h-16.2v5.472h10.008v15.48a21.833,21.833,0,0,1-4.068.72q-2.341.216-4.068,0.216a32.674,32.674,0,0,1-7.452-.756,11.414,11.414,0,0,1-5.436-2.916,13.332,13.332,0,0,1-3.348-6.084,38.867,38.867,0,0,1-1.116-10.332,34.7,34.7,0,0,1,1.188-9.936,14.238,14.238,0,0,1,3.456-6.12,12.161,12.161,0,0,1,5.544-3.1,29.282,29.282,0,0,1,7.452-.864,45.329,45.329,0,0,1,7.02.5,26.535,26.535,0,0,1,5.724,1.512v-5.76A18.42,18.42,0,0,0,447,447.23q-1.55-.36-3.276-0.612t-3.564-.4q-1.836-.144-3.564-0.144a36.533,36.533,0,0,0-10.116,1.3,17.641,17.641,0,0,0-7.6,4.32,19.6,19.6,0,0,0-4.752,7.956,38.447,38.447,0,0,0-1.656,12.132,42.555,42.555,0,0,0,1.62,12.852,18.233,18.233,0,0,0,4.644,7.848,16.266,16.266,0,0,0,7.344,3.924,40.48,40.48,0,0,0,9.792,1.08A53.849,53.849,0,0,0,444.41,496.874Zm57.2-50.076v20.376h-24.7V446.8h-6.48v49.968h6.48V472.574h24.7v24.192h6.552V446.8h-6.552Zm27,49.968h6.48V446.8h-6.48v49.968Zm30.167,9.216q3.311-3.818,3.312-10.368V446.8h-6.48v48.168a11.7,11.7,0,0,1-1.692,6.624q-1.692,2.519-5.652,2.52a18.422,18.422,0,0,1-2.88-.18l-1.944-.324v5.76a18.633,18.633,0,0,0,2.484.324q1.476,0.108,2.556.108Q555.467,509.8,558.78,505.982Zm38.592-35.928L617.82,446.8h-8.064l-17.5,20.808h-3.528V446.8h-6.48v49.968h6.48V473.294h3.528l17.856,23.472h8.352Zm42.768,20.88V446.8h-6.48v49.968h28.152v-5.832H640.14Zm37.223,5.832H683.7V453.35h0.432l12.96,32.112h7.056l12.816-32.112H717.4v43.416h6.48V446.8H713.651l-12.744,32.184h-0.432L687.731,446.8H677.363v49.968Zm66.959,0h6.336V452.774h0.432l24.48,43.992h8.568V446.8h-6.48V488.27h-0.432L754.474,446.8H744.322v49.968Zm89.712-.468a14.6,14.6,0,0,0,6.732-4.1,18.715,18.715,0,0,0,4.068-7.884,57.884,57.884,0,0,0,0-25.02,19.011,19.011,0,0,0-4.068-7.884,14.471,14.471,0,0,0-6.732-4.14,33.233,33.233,0,0,0-9.36-1.188,32.836,32.836,0,0,0-9.324,1.188,14.7,14.7,0,0,0-6.732,4.14,18.736,18.736,0,0,0-4.1,7.884,57.884,57.884,0,0,0,0,25.02,18.448,18.448,0,0,0,4.1,7.884,14.843,14.843,0,0,0,6.732,4.1,32.836,32.836,0,0,0,9.324,1.188A33.233,33.233,0,0,0,834.034,496.3Zm-16.776-5.508a9.448,9.448,0,0,1-4.5-3.6,15.778,15.778,0,0,1-2.232-6.264,58.6,58.6,0,0,1-.612-9.144,57.5,57.5,0,0,1,.612-9,16.1,16.1,0,0,1,2.232-6.3,9.8,9.8,0,0,1,4.5-3.708,19.131,19.131,0,0,1,7.416-1.224,19.366,19.366,0,0,1,7.488,1.224,9.809,9.809,0,0,1,4.5,3.708,16.128,16.128,0,0,1,2.232,6.3,57.744,57.744,0,0,1,.612,9,58.848,58.848,0,0,1-.612,9.144,15.808,15.808,0,0,1-2.232,6.264,9.457,9.457,0,0,1-4.5,3.6,20.456,20.456,0,0,1-7.488,1.152A20.206,20.206,0,0,1,817.258,490.79Zm48.024,5.976h6.48V479.054h7.416a33.66,33.66,0,0,0,8.316-.9,13.524,13.524,0,0,0,5.688-2.844,11.482,11.482,0,0,0,3.24-5.04,23.61,23.61,0,0,0,1.044-7.488,26.412,26.412,0,0,0-.864-7.2,10.476,10.476,0,0,0-2.988-4.968,13.257,13.257,0,0,0-5.652-2.88,34.888,34.888,0,0,0-8.784-.936h-13.9v49.968Zm6.48-23.112v-21.24h6.84a26.789,26.789,0,0,1,5.832.54,8.527,8.527,0,0,1,3.78,1.764,6.814,6.814,0,0,1,2.016,3.2,16.68,16.68,0,0,1,.612,4.86,19.065,19.065,0,0,1-.612,5.256,7.043,7.043,0,0,1-2.016,3.348,8.039,8.039,0,0,1-3.78,1.764,28.641,28.641,0,0,1-5.832.5h-6.84Zm83.95-14.364a19,19,0,0,0-4.068-7.884,14.466,14.466,0,0,0-6.732-4.14,33.223,33.223,0,0,0-9.36-1.188,32.841,32.841,0,0,0-9.324,1.188,14.71,14.71,0,0,0-6.732,4.14,18.759,18.759,0,0,0-4.1,7.884,57.884,57.884,0,0,0,0,25.02,18.47,18.47,0,0,0,4.1,7.884,14.848,14.848,0,0,0,6.732,4.1,32.841,32.841,0,0,0,9.324,1.188h0.36l6.984,9.72h7.7l-8.28-10.3a18.013,18.013,0,0,0,6.408-2.34,14.44,14.44,0,0,0,4.608-4.644,22.361,22.361,0,0,0,2.808-7.416,53.05,53.05,0,0,0,.936-10.728A47.722,47.722,0,0,0,955.712,459.29Zm-27.576,31.5a9.452,9.452,0,0,1-4.5-3.6,15.793,15.793,0,0,1-2.232-6.264,58.724,58.724,0,0,1-.612-9.144,57.621,57.621,0,0,1,.612-9,16.112,16.112,0,0,1,2.232-6.3,9.8,9.8,0,0,1,4.5-3.708,19.135,19.135,0,0,1,7.416-1.224,19.359,19.359,0,0,1,7.488,1.224,9.8,9.8,0,0,1,4.5,3.708,16.112,16.112,0,0,1,2.232,6.3,57.621,57.621,0,0,1,.612,9,58.724,58.724,0,0,1-.612,9.144,15.793,15.793,0,0,1-2.232,6.264,9.452,9.452,0,0,1-4.5,3.6,20.448,20.448,0,0,1-7.488,1.152A20.21,20.21,0,0,1,928.136,490.79Zm84.524,5.976-14.972-20.88a12.645,12.645,0,0,0,7.7-4.5q2.52-3.348,2.52-9.828a20.724,20.724,0,0,0-1.01-6.948,9.644,9.644,0,0,0-3.27-4.572,14.478,14.478,0,0,0-5.906-2.484,44.5,44.5,0,0,0-8.892-.756H976.16v49.968h6.48V476.678h7.452a9.6,9.6,0,0,0,1.188-.072l13.75,20.16h7.63Zm-30.02-25.488V452.414h5.616a42.13,42.13,0,0,1,5.94.36,10.277,10.277,0,0,1,4.068,1.368,5.961,5.961,0,0,1,2.336,2.808,11.883,11.883,0,0,1,.76,4.608,14.217,14.217,0,0,1-.76,5.112,5.893,5.893,0,0,1-2.336,2.952,9.912,9.912,0,0,1-4.068,1.332,46.748,46.748,0,0,1-5.94.324H982.64Zm70.45,22.788q4.5-3.42,4.5-10.764a20.46,20.46,0,0,0-.79-6.156,9.918,9.918,0,0,0-2.59-4.212,13.835,13.835,0,0,0-4.72-2.844,58.584,58.584,0,0,0-7.09-2.124,45.043,45.043,0,0,1-5.4-1.548,10.3,10.3,0,0,1-3.1-1.692,4.3,4.3,0,0,1-1.4-2.2,11.933,11.933,0,0,1-.32-2.988,10.678,10.678,0,0,1,.61-3.96,5.041,5.041,0,0,1,1.91-2.376,8.171,8.171,0,0,1,3.24-1.188,27.764,27.764,0,0,1,4.53-.324,39.1,39.1,0,0,1,6.84.612,33.858,33.858,0,0,1,5.62,1.4v-5.9a14.627,14.627,0,0,0-2.27-.684c-0.94-.216-1.97-0.408-3.1-0.576s-2.3-.3-3.52-0.4-2.44-.144-3.64-0.144q-8.49,0-12.56,3.348t-4.07,10.188a17.6,17.6,0,0,0,.75,5.544,9.079,9.079,0,0,0,2.42,3.78,12.878,12.878,0,0,0,4.32,2.556,56.161,56.161,0,0,0,6.48,1.944q3.525,0.864,5.76,1.656a11.5,11.5,0,0,1,3.52,1.872,5.358,5.358,0,0,1,1.77,2.628,13.573,13.573,0,0,1,.47,3.852q0,4.68-2.88,6.552c-1.92,1.248-4.76,1.872-8.5,1.872-1.49,0-2.95-.06-4.39-0.18s-2.81-.288-4.11-0.5-2.49-.456-3.6-0.72a20.2,20.2,0,0,1-2.73-.828v5.976a16.505,16.505,0,0,0,2.48.684c1.03,0.216,2.21.42,3.53,0.612s2.74,0.347,4.25.468,3.03,0.18,4.57.18Q1048.6,497.486,1053.09,494.066Zm52.6-47.268h-35.64v5.76h14.61v44.208h6.48V452.558h14.55V446.8Zm47.81,46.692q4.74-4,4.75-12.852V446.8h-6.41v32.4a26.054,26.054,0,0,1-.58,6.012,7.863,7.863,0,0,1-2.01,3.852,8.434,8.434,0,0,1-3.85,2.088,23.67,23.67,0,0,1-6.02.648,22.524,22.524,0,0,1-5.83-.648,8.646,8.646,0,0,1-3.85-2.088,8.241,8.241,0,0,1-2.12-3.852,23.227,23.227,0,0,1-.65-6.012V446.8h-6.41v33.84q0,9.144,4.68,13t14.11,3.852Q1148.745,497.486,1153.5,493.49Zm36.35,3.276h8.07l17.21-49.968h-6.56l-14.25,43.128h-0.43L1179.85,446.8h-6.92Zm47.09,0h8.21l10.37-37.008h0.43l10.15,37.008h8.21l11.88-49.968h-6.55l-9.29,42.408h-0.43l-10.15-36.576h-7.78l-10.15,36.576h-0.43l-9.36-42.408h-6.77Zm59.98,0h7.27l13.46-21.456h0.44l12.81,21.456h7.56l-16.2-25.848,15.63-24.12h-7.06l-12.67,20.52h-0.43l-11.88-20.52h-7.56l15.04,24.552Zm68.54,0h6.48V475.238l17.79-28.44h-7.13l-13.39,22.608h-0.44L1355.31,446.8h-7.49l17.64,28.512v21.456Zm36.07,0h37.8v-5.832h-30.81V490.5l29.16-37.512V446.8h-34.71v5.76h27.22l0.07,0.432-28.73,37.152v6.624Z"/>
  <path id="logo" class="cls-1" d="M706.266,1194.7a45.969,45.969,0,0,0-.118,5.15v5.16H677.555v-1.17l0.234-.94-1.406-.24c-1.1,0-2.659-.07-4.688-0.23h-3.281l-0.469,2.58a45.646,45.646,0,0,1-1.172,4.92,22.619,22.619,0,0,1-1.406,4.22,7.125,7.125,0,0,0-.82,2.23,6.584,6.584,0,0,0,2.109-.71c1.326-.54,2.615-1.13,3.867-1.76a11.566,11.566,0,0,0,3.516-2.81l1.641-1.64h66.8l1.875,1.88a14.477,14.477,0,0,0,3.75,2.81c1.406,0.62,2.655,1.17,3.75,1.64a1.036,1.036,0,1,0,1.171-1.17,17.1,17.1,0,0,1-1.406-3.99q-0.7-2.34-1.172-4.68a11.9,11.9,0,0,0-.7-3.05c0-.47-1.252-0.62-3.75-0.47-1.875.16-3.281,0.23-4.219,0.23a2.052,2.052,0,0,1-.937.24c-0.315,0-.469.31-0.469,0.94l0.235,0.93-13.594.24q-13.359,0-13.36-.24a2.838,2.838,0,0,1,.7-1.05,6.664,6.664,0,0,0,1.171-2.46,15.728,15.728,0,0,0,.469-4.22v-2.58h-4.687Q706.382,1194.46,706.266,1194.7Zm-31.289,28.12v4.22l21.093,0.23h21.094l-5.859,4.93q-5.4,4.215-8.2,6.56l-2.344,1.87v6.8H660.445v4.22h40.313v14.76c0,10.01-.158,15.47-0.469,16.41a13.152,13.152,0,0,1-1.172,3.05,21,21,0,0,1-2.578,3.04,16.962,16.962,0,0,1-3.75,2.82c-1.406.62-2.109,1.17-2.109,1.64s0.153,0.7.468,0.7a30.375,30.375,0,0,0,3.047-.47,34.353,34.353,0,0,0,4.922-1.4,16.4,16.4,0,0,0,4.688-1.88,11.74,11.74,0,0,0,3.515-2.34,12.264,12.264,0,0,0,2.344-2.58,13,13,0,0,0,1.172-2.58c0.311-.94.469-6.4,0.469-16.41v-14.76h38.2v-4.22h-38.2v-6.8l2.109-1.64q2.109-1.635,8.438-6.79,6.327-5.4,8.437-7.04a13.637,13.637,0,0,0,2.578-2.34q0-.225-28.828-0.23t-29.062.23h0Zm121.64-30.23-0.469,1.87a27.635,27.635,0,0,1-1.523,5.74c-0.861,2.43-1.681,4.65-2.461,6.68q-1.176,2.58-3.281,6.8-1.88,3.75-4.453,8.44-2.11,3.75-4.688,7.73-2.582,4.215-3.047,4.92a7.818,7.818,0,0,0-1.406,2.11c-0.157.47-.117,0.71,0.117,0.71a8.252,8.252,0,0,0,2.227-1.18q1.873-1.17,3.515-2.34,1.874-1.41,3.985-3.28a59.714,59.714,0,0,0,4.453-4.45l2.109-2.35,0.235,14.77,0.234,14.76h1.875a5.862,5.862,0,0,0,3.047-.7,5.457,5.457,0,0,0,1.875-1.17,11.374,11.374,0,0,0,1.406-1.64l0.469-.71h27.187v2.11l0.235,2.11h1.64a7.437,7.437,0,0,0,2.813-.47,9.072,9.072,0,0,0,2.109-1.17,4.666,4.666,0,0,0,1.407-1.64l0.7-.94h31.64v-4.45H838.336v-6.8H868.57v-4.45H838.336v-6.8H868.57v-4.68H838.336v-7.5H868.57v-4.69H837.164l0.938-1.17a23.668,23.668,0,0,0,1.406-2.35,6.445,6.445,0,0,0,.7-2.57,17.74,17.74,0,0,0,.469-4.93v-3.51H828.727v14.53H815.6q-13.129,0-13.125-.23c0-.16-0.158-0.24-0.469-0.24s0.311-1.41,1.875-4.22a69.182,69.182,0,0,0,3.281-7.5,16.732,16.732,0,0,0,1.406-3.98l0.235-1.17H796.617Zm31.406,22.03v7.5H802.477v-7.5h25.546Zm0,12.18v6.8H802.477v-6.8h25.546Zm0,11.25v6.8H802.477v-6.8h25.546Zm-3.515,16.88v5.16l-22.969.23H778.805v4.45h45.7v1.64c0,1.1-.081,1.64-0.235,1.64a40.222,40.222,0,0,1-4.687-1.17q-4.455-1.17-4.922-1.4-0.236,0-6.328,4.68-6.1,4.935-7.734,6.1-1.643.93-4.454,2.58a58.967,58.967,0,0,1-5.39,2.57q-2.812,1.185-5.391,2.23a35.226,35.226,0,0,1-5.859,1.76,17.416,17.416,0,0,0-3.047,1.05,6.06,6.06,0,0,0,1.289,1.06,3.994,3.994,0,0,0,1.992.94c0.469,0,2.344-.32,5.625-0.94s6.328-1.33,9.141-2.11q4.449-1.17,8.2-2.35a22.822,22.822,0,0,0,4.922-2.1q1.637-.945,9.14-6.1t7.618-5.04q0.115,0.12.117,13.48v13.12h1.406a7.357,7.357,0,0,0,2.813-.7,6.692,6.692,0,0,0,3.046-1.99,11.184,11.184,0,0,0,2.11-3.17,8.733,8.733,0,0,0,.586-2.34q0.115-1.17.117-6.33c0.154-4.68.271-7.11,0.352-7.26s1.442,0.55,4.1,2.11q3.982,2.1,6.8,3.51a34.945,34.945,0,0,0,6.328,2.58,54.282,54.282,0,0,0,6.328,1.64,52.974,52.974,0,0,0,5.625.94c1.718,0.16,4.219.23,7.5,0.23a38.521,38.521,0,0,0,5.86-.23,1.37,1.37,0,0,0,1.171-.94l0.235-1.17c0-.15-0.235-0.24-0.7-0.24-0.315,0-1.722-.23-4.219-0.7s-5-1.01-7.5-1.64q-3.516-.93-6.8-2.11-2.812-.93-5.625-2.11-2.346-1.17-10.078-6.33l-7.734-5.15,19.453-.24h19.453v-4.45H854.977l-20.157-.23v-2.58l-0.234-2.58H824.508Z"/>
</svg>
