<svg xmlns="http://www.w3.org/2000/svg" width="400" height="200" viewBox="0 0 400 200">
  <defs>
    <style>
      .cls-1 {
        fill: #fdfdfd;
        fill-rule: evenodd;
      }
    </style>
  </defs>
  <path id="站酷小微LOGO" class="cls-1" d="M67.641,80.2v21.094H64.547v-0.844H60.516v9.75l-0.094,9.844h0.656a2.7,2.7,0,0,0,1.219-.281,3.271,3.271,0,0,0,.844-0.563,9.393,9.393,0,0,0,.656-0.75,5.25,5.25,0,0,0,.469-1.031l0.188-.844,0.094-.281H74.766v3.75l0.75-.094a2.684,2.684,0,0,0,1.219-.281,2.772,2.772,0,0,0,.938-0.75,3.589,3.589,0,0,0,.656-0.937,10.136,10.136,0,0,0,.375-1.219q0.092-.656.094-8.531v-7.782H74.766v0.844H70.453l0.188-.281a3.17,3.17,0,0,0,.469-0.75,4.047,4.047,0,0,0,.375-1.313,26.072,26.072,0,0,0,.188-4.219V91.258h8.344V89.383H71.672V80.2H67.641Zm7.125,22.875v11.344H64.547v-5.531q0-5.531.047-5.672a35.585,35.585,0,0,1,5.109-.141h5.063ZM50.25,80.711q-0.048.141-.047,3.516V87.7l0.844-.094a2.9,2.9,0,0,0,1.313-.281,5.8,5.8,0,0,0,1.031-.656A6.029,6.029,0,0,0,54,85.492a9.866,9.866,0,0,0,.234-2.766V80.57H52.266A5.843,5.843,0,0,0,50.25,80.711Zm-5.953,8.3v0.844l0.094,0.938H57.984V89.008H44.3Zm9.188,5.625V95.1q0,0.376-.375,7.031a61.633,61.633,0,0,1-.656,7.5q-0.281.843-.656,1.687t-0.75,1.5l-0.469.75a0.791,0.791,0,0,0,.516.235,1.54,1.54,0,0,0,1.172-.235,13.749,13.749,0,0,0,1.406-.937,5.252,5.252,0,0,0,1.219-1.266,11.928,11.928,0,0,0,.938-1.547l0.469-.937,0.656-6.844q0.749-6.842.75-7.125V94.633H53.484ZM43.031,99.086a5.3,5.3,0,0,1,.7.937,6.663,6.663,0,0,1,.656,1.547q0.373,1.034.656,1.969t0.656,2.813q0.373,1.688.656,3.468a6.883,6.883,0,0,0,.375,1.782,7.177,7.177,0,0,0,1.781-.563l1.875-.75a2.028,2.028,0,0,0,0-.937q-0.189-.75-0.469-1.594a10.429,10.429,0,0,0-.844-1.969,15.61,15.61,0,0,0-1.219-2.156q-0.751-1.031-1.594-2.156-0.938-1.03-2.156-2.25A10.117,10.117,0,0,0,42.8,98.008c-0.063,0-.094.126-0.094,0.375A0.98,0.98,0,0,0,43.031,99.086Zm1.266,15.8v0.844l0.094,0.937H57.047v-1.781H44.3Zm73.312-34.219v7.781h-1.781a12.511,12.511,0,0,1-1.781-.047,6.833,6.833,0,0,1,.281-0.7q0.188-.374,1.031-2.156,0.656-1.593.657-1.641a10.314,10.314,0,0,0-1.594-.047h-1.594l-0.656,1.781Q111.7,86.947,110.2,90.7q-1.405,3.47-1.875,4.406a13.368,13.368,0,0,0-.562,1.406l0.281,0.094a0.512,0.512,0,0,0,.562-0.281,8.957,8.957,0,0,0,1.313-1.594,16.723,16.723,0,0,0,1.687-2.344,17.911,17.911,0,0,0,1.032-1.594l0.281-.469h4.687v7.5h-8.343V99.7h18.75V97.82h-7.407a3.028,3.028,0,0,1-.656-0.047c-0.126-.031-0.157-0.047-0.094-0.047a4.176,4.176,0,0,1,.282-0.75,5.213,5.213,0,0,0,.375-1.312q0.091-.749.093-3.094V90.32l2.813-.094h2.812l0.094-.937V88.445h-5.719V80.664h-3Zm-27,2.063V84.32l2.438,0.094h2.344V89.57h-0.75c-0.438,0-.672-0.078-0.7-0.234S93.422,89.1,92.484,89.1h-1.5V118.82h0.375a3.408,3.408,0,0,0,.8-0.468,4.676,4.676,0,0,0,.891-0.844,6.67,6.67,0,0,0,.469-0.938l0.094-.281H104.3l0.094,1.313a3.059,3.059,0,0,0,.093,1.218,2.7,2.7,0,0,0,.563-0.187,3.6,3.6,0,0,0,.937-0.656,2.664,2.664,0,0,0,.657-1.032,6.482,6.482,0,0,0,.468-1.312q0.188-.75.188-13.594V89.1h-1.5c-0.938,0-1.422.079-1.453,0.234a0.591,0.591,0,0,1-.61.281c-0.375.032-.562-0.047-0.562-0.234a14.909,14.909,0,0,1,0-2.625V84.414H107.3V82.539H98.953q-8.251,0-8.344.188h0Zm9.657,1.688-0.094,2.531V89.57H99.328a1.122,1.122,0,0,1-.937-0.094,13.955,13.955,0,0,1-.094-2.531,11.932,11.932,0,0,1,.094-2.437,1.858,1.858,0,0,1,.938-0.094h0.938Zm-4.875,7.031v5.813q0,5.814.188,5.812a2.16,2.16,0,0,0,.7-0.234,2.641,2.641,0,0,0,.891-0.656,3.86,3.86,0,0,0,.563-0.8,6.1,6.1,0,0,0,.328-0.8,39.248,39.248,0,0,0,.234-4.734l0.094-4.312,0.938-.094h0.938v5.813q0,5.814.187,5.812a1.624,1.624,0,0,0,.656-0.281,3.576,3.576,0,0,0,.938-0.656,6.923,6.923,0,0,0,.515-0.8,3.934,3.934,0,0,0,.376-1.078,39.9,39.9,0,0,0,.14-4.688V91.445h1.313v22.969h-10.5V91.445h1.5Zm-0.562,14.907v1.781h8.813v-1.781H94.828Zm17.156-3.188q-0.094.094-.093,8.156v8.063h0.187a1.815,1.815,0,0,0,.844-0.375,3.246,3.246,0,0,0,1.031-.844,5.93,5.93,0,0,0,.656-1.406l0.188-.75h8.062v3.562l0.469-.187a4.031,4.031,0,0,0,1.031-.656,3.247,3.247,0,0,0,.844-1.032,5.862,5.862,0,0,0,.375-1.125,11.178,11.178,0,0,0,.141-1.734q0.047-1.358.047-5.2v-6.469h-2.907V104.1l-4.031.093h-3.937V103.07h-1.407a4.637,4.637,0,0,0-1.5.094h0Zm10.875,2.813v8.062l-4.031.094h-3.937v-8.156h7.968ZM154.641,80.2v39.844H155.3a1.765,1.765,0,0,0,1.031-.328,3.314,3.314,0,0,0,.75-0.7,6.167,6.167,0,0,0,.75-1.313q0.374-.843.61-1.547t0.234-18.328V80.2h-4.031Zm8.343,11.531L162.7,92.1l0.656,0.656a8.37,8.37,0,0,1,1.079,1.359,17.19,17.19,0,0,1,1.171,2.3,28.716,28.716,0,0,1,1.407,3.094q0.468,1.314.937,2.812,0.282,0.657.938,2.907a8.7,8.7,0,0,0,.468,1.593l2.625-.187q2.813-.282,2.907-0.281h0.281l-0.188-.469q-0.189-.468-0.937-2.063-0.844-1.593-1.688-3t-1.5-2.343a18.315,18.315,0,0,0-1.406-1.875,22.419,22.419,0,0,0-1.875-2.156,20.5,20.5,0,0,0-1.922-1.734,8.207,8.207,0,0,0-1.64-.984l-0.75-.375a0.653,0.653,0,0,0-.282.375h0Zm-18.375-.187V96.7a51.943,51.943,0,0,1-.187,6.094,7.252,7.252,0,0,1-.469,1.594q-0.281.843-.562,1.594-0.471.751-1.032,1.5a9.761,9.761,0,0,1-2.343,2.25l-0.563.375v0.75a1.5,1.5,0,0,0,.094.843,5.108,5.108,0,0,0,.937-0.562,5.649,5.649,0,0,0,1.594-.938q0.655-.468,1.5-1.031a14.073,14.073,0,0,0,1.5-1.547,11.149,11.149,0,0,0,1.219-1.734q0.468-.75,1.031-1.875a15.558,15.558,0,0,0,.75-1.969,12.584,12.584,0,0,0,.422-2.062q0.141-1.125.141-4.781V91.539h-4.032ZM202.359,80.2V90.414h-1.5V86.383l0.094-3.937h-2.906v5.438q0,5.344.094,5.344a2.791,2.791,0,0,0,.468-0.094,2.489,2.489,0,0,0,.844-0.562l0.469-.375h7.969v0.563c0,0.313.047,0.469,0.14,0.469a3.244,3.244,0,0,0,.7-0.187,4.958,4.958,0,0,0,.938-0.75,3.972,3.972,0,0,0,.75-1.031,4.206,4.206,0,0,0,.375-1.406,25.22,25.22,0,0,0,.187-4.125V82.445h-3.093v7.969h-1.125a8.022,8.022,0,0,1-1.125-.094q0.092-.187.281-0.562a3.372,3.372,0,0,0,.281-0.937,25.54,25.54,0,0,0,.188-4.5V80.289h-2.063Zm-8.531.281-0.187.563q-0.282.657-.75,1.5-0.562,1.125-1.125,2.063-0.751,1.033-1.313,1.688a14.939,14.939,0,0,1-1.5,1.781q-0.937.938-1.687,1.594l-0.75.563v0.563c0,0.375.046,0.563,0.14,0.563a5.845,5.845,0,0,0,1.172-.562,11.854,11.854,0,0,0,2.063-1.219,14.837,14.837,0,0,0,1.968-1.5,9.7,9.7,0,0,0,1.688-1.5c0.436-.5.844-1,1.219-1.5a13.518,13.518,0,0,0,1.125-1.687q0.468-.844.937-1.781a2.054,2.054,0,0,0,.375-1.031,5.826,5.826,0,0,0-1.687-.094h-1.688Zm20.86,0.047q-0.049.048-.8,2.766-0.657,2.531-1.125,3.844-0.471,1.033-1.219,2.813-0.939,1.876-1.594,3.094a14.2,14.2,0,0,0-.656,1.5,1.666,1.666,0,0,0,.891.094,3.03,3.03,0,0,0,1.64-.469l0.563-.281a0.728,0.728,0,0,1,.281-0.094c0,0.126.061,0.656,0.187,1.594q0.188,1.22.469,3.094,0.374,1.969.75,3.562a31.228,31.228,0,0,0,1.031,3.563l0.563,1.781-0.656,1.312a22.559,22.559,0,0,1-1.219,2.438q-0.562.938-1.219,1.969-0.657.938-1.406,1.875a3.727,3.727,0,0,1-.75.843,1.733,1.733,0,0,1-.469-0.656,13.113,13.113,0,0,1-.562-1.687q-0.189-.655-0.469-2.063-0.189-1.217-.281-6.656V99.227H197.672V104.1q0,4.689-.094,5.812c-0.063.689-.157,1.406-0.281,2.156q-0.282,1.125-.563,2.063a10.942,10.942,0,0,1-.562,1.406,10.128,10.128,0,0,0-.563.844,1.6,1.6,0,0,0-.281.984c0,0.406.062,0.61,0.188,0.61a6.177,6.177,0,0,0,1.031-.844,19.544,19.544,0,0,0,1.594-1.781,15,15,0,0,0,1.125-1.5q0.281-.468.656-1.219a9.651,9.651,0,0,0,.562-1.5,15.567,15.567,0,0,0,.563-1.875,37.613,37.613,0,0,0,.281-4.594l0.094-3.75h3.469l0.093,3.656a34.868,34.868,0,0,0,.282,4.594,8.294,8.294,0,0,0,.468,1.781,13.1,13.1,0,0,0,.844,2.063q0.563,0.938,1.219,1.875c0.436,0.562.844,1.063,1.219,1.5l0.562,0.562-1.312,1.313-1.219,1.219H207.7a3.227,3.227,0,0,0,1.781-.75,5.171,5.171,0,0,1,1.313-.75,0.166,0.166,0,0,0,.187-0.188,2.267,2.267,0,0,1,.8-0.844q0.8-.654,2.391-2.25a33.589,33.589,0,0,0,2.344-2.718l0.843-1.032a3.138,3.138,0,0,1,.657.844q0.563,0.752,1.218,1.688,0.655,0.751,1.782,1.968,0.749,0.939,2.437,2.907a12.966,12.966,0,0,0,1.406,1.687,26.917,26.917,0,0,0,.657-3.562l0.562-3.563-2.062-2.062q-1.969-2.061-2.625-2.907-0.376-.468-1.032-1.312l-0.281-.469,0.375-.937q0.374-.936.75-1.969,0.374-1.218.656-2.156,0.188-1.03.469-2.25,0.188-1.312.375-4.125,0.093-3,.188-3.562l0.093-.656h0.75l0.844-.094,0.094-.844V88.633h-7.688a12.122,12.122,0,0,1,.375-1.219q0.282-1.031,1.125-3.937,0.655-2.437.75-2.906a0.948,0.948,0,0,0-.422-0.094h-1.828A22.331,22.331,0,0,0,214.688,80.523Zm3.7,9.984L218.3,93.6q-0.094,3.094-.188,4.031-0.095,1.033-.328,2.39a11.035,11.035,0,0,1-.281,1.407q-0.048.048-.141-0.141t-0.656-1.5q-0.751-1.687-1.312-3-0.471-1.312-1.032-2.812l-0.468-1.219,0.656-.656q0.563-.655.937-1.125l0.375-.469h2.532ZM193.547,89.1l-0.656,1.406a25.677,25.677,0,0,1-1.5,2.438Q190.64,94.07,189.8,95.2q-0.844.938-2.156,2.25a21.4,21.4,0,0,1-2.063,1.875,1.968,1.968,0,0,0-.844,1.032,1.47,1.47,0,0,0-.046.609,4.961,4.961,0,0,0,1.171-.328q1.125-.373,2.157-0.75a13.289,13.289,0,0,0,1.875-1.031l0.843-.562V118.82h0.657a2.489,2.489,0,0,0,1.125-.281,3.293,3.293,0,0,0,1.031-.656,5.867,5.867,0,0,0,.656-1.031,2.094,2.094,0,0,0,.281-0.657q0.093-.373.188-0.656a23.246,23.246,0,0,0,.14-2.625q0.046-2.156.047-8.437V94.164l0.469-.75q0.374-.655.75-1.406t0.75-1.5a4.557,4.557,0,0,0,.375-1.219L197.3,89.1h-3.75Zm3.281,6.375a1.885,1.885,0,0,0-.094.844l0.094,0.75h13.594V95.289h-6.75q-6.844,0-6.844.188h0ZM237.8,112.633h12.281a2.158,2.158,0,1,1,0,4.312H235.547a1.9,1.9,0,0,1-2.156-2.156V86.57a1.989,1.989,0,0,1,2.25-2.25,1.959,1.959,0,0,1,2.156,2.156v26.156Zm35.812-.094a10.6,10.6,0,0,0,7.875-3.375,11.709,11.709,0,0,0,3.282-8.344,11.392,11.392,0,0,0-3.282-8.25,10.779,10.779,0,0,0-15.843,0,11.384,11.384,0,0,0-3.282,8.25,11.7,11.7,0,0,0,3.282,8.344,10.7,10.7,0,0,0,7.968,3.375h0Zm0-27.75a14.425,14.425,0,0,1,10.782,4.688,16.548,16.548,0,0,1,0,22.687,14.85,14.85,0,0,1-21.657,0,16.548,16.548,0,0,1,0-22.687,14.524,14.524,0,0,1,10.875-4.687h0Zm34.969,32.156a13.237,13.237,0,0,1-10.312-4.781,17.593,17.593,0,0,1,.093-22.969,13.24,13.24,0,0,1,10.313-4.781q7.218,0,11.531,6.938l0.375,0.563v0.094l0.188,0.938q0,2.158-1.969,2.156a1.867,1.867,0,0,1-1.781-1.125q-3.189-5.249-8.344-5.25a9.86,9.86,0,0,0-7.594,3.563,12.924,12.924,0,0,0,0,16.781,9.583,9.583,0,0,0,7.5,3.563q7.5,0,9.188-8.156H305.109a2.068,2.068,0,0,1-.093-4.125h15a1.8,1.8,0,0,1,1.875,2.062l-0.094.281a15.748,15.748,0,0,1-3.938,10.219,11.979,11.979,0,0,1-9.281,4.031h0Zm34.125-4.406a10.6,10.6,0,0,0,7.875-3.375,11.708,11.708,0,0,0,3.281-8.344,11.391,11.391,0,0,0-3.281-8.25,10.78,10.78,0,0,0-15.844,0,11.387,11.387,0,0,0-3.281,8.25,11.7,11.7,0,0,0,3.281,8.344,10.7,10.7,0,0,0,7.969,3.375h0Zm0-27.75a14.423,14.423,0,0,1,10.781,4.688,16.548,16.548,0,0,1,0,22.687,14.849,14.849,0,0,1-21.656,0,16.548,16.548,0,0,1,0-22.687A14.524,14.524,0,0,1,342.7,84.789h0Z"/>
</svg>
