<svg xmlns="http://www.w3.org/2000/svg" width="1540" height="1450" viewBox="0 0 1540 1450">
  <defs>
    <style>
      .cls-1 {
        fill: #fff;
      }

      .cls-1, .cls-2, .cls-3 {
        fill-rule: evenodd;
      }

      .cls-2 {
        fill: #fefefe;
      }

      .cls-3 {
        fill: #fdfdfd;
      }
    </style>
  </defs>
  <path id="字体名称" class="cls-1" d="M216.984,173.609V261.5h-12.89v-3.516H187.3v40.625l-0.391,41.016h2.735a11.215,11.215,0,0,0,5.078-1.172,13.607,13.607,0,0,0,3.515-2.344,39.358,39.358,0,0,0,2.735-3.125,21.953,21.953,0,0,0,1.953-4.3l0.781-3.516L204.094,324h42.578v15.625l3.125-.391a11.2,11.2,0,0,0,5.078-1.172,11.557,11.557,0,0,0,3.906-3.124,15.01,15.01,0,0,0,2.735-3.907,42.116,42.116,0,0,0,1.562-5.078q0.384-2.728.391-35.547V257.984h-16.8V261.5H228.7l0.781-1.172a13.172,13.172,0,0,0,1.954-3.125A16.84,16.84,0,0,0,233,251.734q0.779-3.122.781-17.578V219.7h34.766v-7.812H233.781V173.609h-16.8Zm29.688,95.313v47.266H204.094V293.141q0-23.045.195-23.633t21.289-.586h21.094ZM144.523,175.758q-0.2.585-.195,14.648v14.453l3.516-.39a12.087,12.087,0,0,0,5.468-1.172,24.1,24.1,0,0,0,4.3-2.735,25.1,25.1,0,0,0,2.539-4.882q0.97-2.536.977-11.524v-8.984h-8.2Q144.719,175.172,144.523,175.758Zm-24.8,34.57v3.516l0.39,3.906H176.75v-7.422H119.719ZM158,233.766v1.953q0,1.565-1.562,29.3-1.566,27.346-2.735,31.25-1.172,3.514-2.734,7.031t-3.125,6.25l-1.953,3.125c0,0.262.714,0.586,2.148,0.976a6.408,6.408,0,0,0,4.883-.976,57.4,57.4,0,0,0,5.859-3.906,21.878,21.878,0,0,0,5.078-5.274,49.754,49.754,0,0,0,3.907-6.445l1.953-3.906,2.734-28.516q3.121-28.509,3.125-29.687v-1.172H158ZM114.445,252.32a22.032,22.032,0,0,1,2.93,3.907,27.65,27.65,0,0,1,2.734,6.445q1.557,4.3,2.735,8.2t2.734,11.719q1.557,7.031,2.734,14.453t1.563,7.422q0,0.393,7.422-2.344L145.109,299c0.257-.256.257-1.562,0-3.906-0.525-2.082-1.171-4.3-1.953-6.641a43.406,43.406,0,0,0-3.515-8.2,65.033,65.033,0,0,0-5.079-8.984q-3.131-4.295-6.64-8.985-3.909-4.293-8.984-9.375t-5.469-5.078c-0.263,0-.391.525-0.391,1.563A4.084,4.084,0,0,0,114.445,252.32Zm5.274,65.821v3.515l0.39,3.906h52.735v-7.421H119.719ZM425.188,175.562v32.422h-7.422q-7.425,0-7.422-.2a27.856,27.856,0,0,1,1.172-2.93q0.777-1.556,4.3-8.984,2.728-6.638,2.735-6.836t-6.641-.195h-6.64l-2.735,7.422q-1.959,5.475-8.2,21.093-5.859,14.457-7.812,18.36a56.03,56.03,0,0,0-2.344,5.859l1.172,0.391q1.171,0.393,2.344-1.172,1.556-1.172,5.468-6.641a69.63,69.63,0,0,0,7.032-9.765,74.971,74.971,0,0,0,4.3-6.641l1.172-1.953h19.532v31.25H390.422v7.812h78.125v-7.812H437.688a12.654,12.654,0,0,1-2.735-.195c-0.525-.129-0.653-0.2-0.391-0.2a17.479,17.479,0,0,1,1.172-3.125,21.627,21.627,0,0,0,1.563-5.469q0.384-3.122.391-12.89V215.8l11.718-.391h11.719l0.391-3.906v-3.516H437.688V175.562h-12.5Zm-112.5,8.594V190.8l10.156,0.391h9.765v21.484h-3.125q-2.738,0-2.929-.977c-0.135-.647-2.149-0.976-6.055-0.976h-6.25V334.547h1.562a14.277,14.277,0,0,0,3.321-1.953,19.441,19.441,0,0,0,3.711-3.516,27.8,27.8,0,0,0,1.953-3.906L325.188,324h44.531l0.39,5.469c0,3.381.129,5.078,0.391,5.078a11.212,11.212,0,0,0,2.344-.781,15.021,15.021,0,0,0,3.906-2.735,11.059,11.059,0,0,0,2.734-4.3,26.848,26.848,0,0,0,1.954-5.468q0.777-3.123.781-56.641V210.719h-6.25q-5.86,0-6.055.976c-0.134.653-.976,1.044-2.539,1.172s-2.344-.195-2.344-0.976q-0.393-.778,0-10.938v-9.765h17.188v-7.813H347.453q-34.378,0-34.765.781h0Zm40.234,7.032-0.391,10.546v10.938h-3.515c-2.344.262-3.65,0.134-3.907-.391q-0.393-.384-0.39-10.547t0.39-10.156c0-.256,1.3-0.39,3.907-0.39h3.906Zm-20.313,29.3V244.7q0,24.225.782,24.219a9.054,9.054,0,0,0,2.929-.977,10.99,10.99,0,0,0,3.711-2.734,15.951,15.951,0,0,0,2.344-3.32,25.272,25.272,0,0,0,1.367-3.321q0.586-1.758.977-19.726l0.39-17.969,3.907-.391h3.906V244.7q0,24.225.781,24.219a6.84,6.84,0,0,0,2.735-1.172,14.877,14.877,0,0,0,3.906-2.734,28.96,28.96,0,0,0,2.148-3.321,16.492,16.492,0,0,0,1.563-4.492q0.585-2.728.586-19.531V220.484h5.468v95.7h-43.75v-95.7h6.25Zm-2.343,62.11v7.422h36.718v-7.422H330.266Zm71.484-13.282q-0.393.394-.391,33.985v33.594h0.782a7.563,7.563,0,0,0,3.515-1.563,13.5,13.5,0,0,0,4.3-3.516,24.751,24.751,0,0,0,2.735-5.859l0.781-3.125h33.593v14.844l1.954-.781a16.8,16.8,0,0,0,4.3-2.735,13.5,13.5,0,0,0,3.516-4.3,24.683,24.683,0,0,0,1.563-4.687,47.249,47.249,0,0,0,.586-7.227q0.192-5.658.2-21.679V269.312h-12.11v3.907l-16.8.39H413.859v-4.687H408c-4.169,0-6.25.134-6.25,0.39h0Zm45.312,11.719v33.594l-16.8.391H413.859V281.031h33.2ZM579.484,173.609V339.625h2.735a7.36,7.36,0,0,0,4.3-1.367,13.845,13.845,0,0,0,3.125-2.93,25.784,25.784,0,0,0,3.125-5.469q1.556-3.514,2.539-6.445t0.976-76.367V173.609h-16.8Zm34.766,48.047-1.172,1.563,2.734,2.734a34.75,34.75,0,0,1,4.493,5.664,71.254,71.254,0,0,1,4.883,9.571,120.123,120.123,0,0,1,5.859,12.89q1.95,5.475,3.906,11.719,1.172,2.737,3.906,12.109,1.557,6.253,1.953,6.641l10.938-.781q11.718-1.173,12.109-1.172h1.172l-0.781-1.953q-0.787-1.95-3.906-8.594-3.516-6.638-7.032-12.5t-6.25-9.766a76.64,76.64,0,0,0-5.859-7.812,93.726,93.726,0,0,0-7.812-8.985,85.81,85.81,0,0,0-8.008-7.226,34.237,34.237,0,0,0-6.836-4.1l-3.125-1.562c-0.263,0-.653.525-1.172,1.562h0Zm-76.562-.781v21.484q0,21.488-.782,25.391a30.147,30.147,0,0,1-1.953,6.641q-1.171,3.514-2.344,6.64-1.959,3.132-4.3,6.25a40.633,40.633,0,0,1-9.765,9.375l-2.344,1.563v3.125c0,2.344.128,3.515,0.391,3.515a21.372,21.372,0,0,0,3.906-2.343,23.529,23.529,0,0,0,6.641-3.907q2.727-1.95,6.25-4.3a59.111,59.111,0,0,0,6.25-6.445,46.44,46.44,0,0,0,5.078-7.226q1.95-3.123,4.3-7.813a65.356,65.356,0,0,0,3.125-8.2,52.551,52.551,0,0,0,1.757-8.594q0.587-4.687.586-19.922V220.875h-16.8Zm240.624-47.266v42.579h-6.25v-16.8l0.391-16.407H760.344v22.657q0,22.265.39,22.265a11.651,11.651,0,0,0,1.954-.39,10.386,10.386,0,0,0,3.515-2.344l1.953-1.563h33.2v2.344c0,1.306.2,1.953,0.586,1.953a13.5,13.5,0,0,0,2.93-.781A20.559,20.559,0,0,0,808.781,224a16.486,16.486,0,0,0,3.125-4.3,17.465,17.465,0,0,0,1.563-5.859q0.779-3.123.781-17.188V182.984H801.359v33.2h-4.687a33.566,33.566,0,0,1-4.688-.391q0.385-.779,1.172-2.344a13.95,13.95,0,0,0,1.172-3.906q0.779-1.95.781-18.75V174h-8.593Zm-35.546,1.172-0.782,2.344a69.776,69.776,0,0,1-3.125,6.25q-2.343,4.688-4.687,8.594-3.132,4.3-5.469,7.031a62.351,62.351,0,0,1-6.25,7.422q-3.909,3.909-7.031,6.64l-3.125,2.344v2.344q0,2.343.586,2.344t4.883-2.344a49.316,49.316,0,0,0,8.593-5.078,61.933,61.933,0,0,0,8.2-6.25,40.377,40.377,0,0,0,7.032-6.25q2.728-3.121,5.078-6.25a55.876,55.876,0,0,0,4.687-7.031q1.95-3.516,3.907-7.422t1.562-4.3c0-.256-2.344-0.391-7.031-0.391h-7.031Zm86.914,0.2q-0.2.2-3.321,11.523-2.738,10.547-4.687,16.016-1.959,4.3-5.078,11.718-3.909,7.819-6.641,12.891a59.323,59.323,0,0,0-2.734,6.25c0,0.262,1.233.391,3.711,0.391a12.625,12.625,0,0,0,6.836-1.954l2.343-1.171a3.043,3.043,0,0,1,1.172-.391c0,0.525.257,2.734,0.781,6.641q0.779,5.081,1.954,12.89,1.556,8.2,3.125,14.844a129.956,129.956,0,0,0,4.3,14.844l2.343,7.422-2.734,5.468a93.037,93.037,0,0,1-5.078,10.157q-2.345,3.909-5.078,8.2-2.737,3.909-5.86,7.812-2.737,3.516-3.125,3.516t-1.953-2.735a54.742,54.742,0,0,1-2.344-7.031q-0.788-2.728-1.953-8.593-0.787-5.073-1.172-27.735V252.906h-45.7v20.313q0,19.538-.39,24.219-0.394,4.3-1.172,8.984-1.172,4.688-2.344,8.594a45.531,45.531,0,0,1-2.344,5.859,41.884,41.884,0,0,0-2.343,3.516,6.651,6.651,0,0,0-1.172,4.1c0,1.691.256,2.539,0.781,2.539q0.384,0,4.3-3.515a81.091,81.091,0,0,0,6.64-7.422,61.607,61.607,0,0,0,4.688-6.25q1.171-1.95,2.734-5.078a40.032,40.032,0,0,0,2.344-6.25,64.646,64.646,0,0,0,2.344-7.813q0.779-3.9,1.172-19.141l0.39-15.624h14.453l0.391,15.234q0.384,15.628,1.172,19.14a34.552,34.552,0,0,0,1.953,7.422,54.356,54.356,0,0,0,3.516,8.594q2.343,3.909,5.078,7.813,2.728,3.514,5.078,6.25l2.344,2.343-5.469,5.469-5.078,5.078h2.734q3.121,0,7.422-3.125,4.688-3.13,5.469-3.125a0.692,0.692,0,0,0,.781-0.781q0-.787,3.32-3.516t9.961-9.375a139.424,139.424,0,0,0,9.766-11.328l3.515-4.3q0.385,0,2.735,3.516,2.343,3.13,5.078,7.031,2.728,3.132,7.422,8.2,3.121,3.911,10.156,12.11,5.466,7.031,5.859,7.031t2.735-14.844l2.344-14.843-8.594-8.594q-8.2-8.587-10.938-12.11-1.565-1.95-4.3-5.468l-1.171-1.954,1.562-3.906q1.557-3.9,3.125-8.2,1.557-5.071,2.734-8.984,0.779-4.295,1.954-9.375,0.777-5.466,1.562-17.188,0.384-12.5.781-14.844l0.391-2.734h3.125l3.516-.39,0.39-3.516v-3.906H839.25a49.838,49.838,0,0,1,1.562-5.078q1.173-4.294,4.688-16.407,2.728-10.154,3.125-12.109a3.961,3.961,0,0,0-1.758-.391H839.25Q829.875,174.781,829.68,174.977Zm15.429,41.6-0.39,12.891q-0.395,12.89-.781,16.8-0.394,4.3-1.368,9.961a46.361,46.361,0,0,1-1.172,5.859q-0.2.2-.586-0.586t-2.734-6.25q-3.13-7.032-5.469-12.5-1.959-5.466-4.3-11.719l-1.953-5.078,2.735-2.734q2.343-2.728,3.906-4.688l1.562-1.953h10.547Zm-103.515-5.859-2.735,5.859a106.414,106.414,0,0,1-6.25,10.156q-3.13,4.688-6.64,9.375-3.516,3.91-8.985,9.375a89.585,89.585,0,0,1-8.593,7.813q-3.132,2.343-3.516,4.3a6.237,6.237,0,0,0-.2,2.539q0.192,0.2,4.882-1.367t8.985-3.125a55.285,55.285,0,0,0,7.812-4.3L729.875,249v85.547h2.734a10.406,10.406,0,0,0,4.688-1.172,13.721,13.721,0,0,0,4.3-2.734,24.565,24.565,0,0,0,2.734-4.3,8.748,8.748,0,0,0,1.172-2.735c0.256-1.037.519-1.953,0.781-2.734a96.047,96.047,0,0,0,.586-10.937q0.192-8.982.2-35.157V231.812l1.954-3.124q1.556-2.728,3.125-5.86t3.125-6.25a19,19,0,0,0,1.562-5.078l0.391-.781H741.594Zm13.672,26.562c-0.263.263-.391,1.435-0.391,3.516l0.391,3.125h56.64V236.5H783.781q-28.518,0-28.515.781h0Zm170.7,71.485h51.172q9.375,0,9.375,8.984t-9.375,8.984H916.594q-8.991,0-8.985-8.984V200.172q0-9.375,9.375-9.375,8.587,0,8.985,8.984V308.766Zm149.221-.391q19.125,0,32.81-14.063a48.8,48.8,0,0,0,13.67-34.765q0-20.307-13.67-34.375-13.68-14.446-32.81-14.453-19.545,0-33.21,14.453-13.665,14.063-13.67,34.375a48.8,48.8,0,0,0,13.67,34.765,44.584,44.584,0,0,0,33.21,14.063h0Zm0-115.625q26.16,0,44.92,19.531t18.75,47.266q0,27.741-18.75,47.265t-44.92,19.532q-26.565,0-45.31-19.532t-18.76-47.265q0-27.732,18.76-47.266t45.31-19.531h0Zm145.7,133.984q-25.4,0-42.97-19.922-17.58-19.527-17.58-48.046,0-27.732,17.97-47.657,17.58-19.922,42.97-19.921,30.075,0,48.05,28.906l1.56,2.344v0.39l0.78,3.906q0,8.991-8.2,8.985a7.773,7.773,0,0,1-7.42-4.688q-13.29-21.872-34.77-21.875-18.36,0-31.64,14.844-12.885,14.456-12.89,34.766,0,20.709,12.89,35.156,12.885,14.85,31.25,14.844,31.245,0,38.28-33.985h-52.73q-8.2,0-8.21-8.593,0-8.2,7.82-8.594h62.5q7.8,0.393,7.81,8.594l-0.39,1.171q-1.17,25.782-16.41,42.579-15.225,16.8-38.67,16.8h0Zm142.19-18.359q19.125,0,32.81-14.063a48.8,48.8,0,0,0,13.67-34.765q0-20.307-13.67-34.375-13.68-14.446-32.81-14.453-19.545,0-33.2,14.453-13.68,14.063-13.68,34.375a48.761,48.761,0,0,0,13.68,34.765,44.547,44.547,0,0,0,33.2,14.063h0Zm0-115.625q26.16,0,44.92,19.531t18.75,47.266q0,27.741-18.75,47.265t-44.92,19.532q-26.565,0-45.31-19.532t-18.75-47.265q0-27.732,18.75-47.266t45.31-19.531h0Z"/>
  <path id="中文示例" class="cls-2" d="M309.086,700.109v27.93q0,27.736-.195,29.688a17.144,17.144,0,0,1-.782,3.711,24.576,24.576,0,0,1-1.171,3.71,28.645,28.645,0,0,1-2.149,3.516,15.681,15.681,0,0,1-2.734,3.125,14.769,14.769,0,0,1-2.539,2.149l-1.172.585v1.758c0,1.041.064,1.563,0.195,1.563a19.538,19.538,0,0,0,2.539-1.172,24.209,24.209,0,0,0,4.3-2.734,21.915,21.915,0,0,0,3.711-3.321,41.056,41.056,0,0,0,3.125-3.808,20.194,20.194,0,0,0,2.051-3.711,37.7,37.7,0,0,0,1.465-4,24.992,24.992,0,0,0,1.171-4.688,40.49,40.49,0,0,0,.391-6.054v-3.516H330.18l0.195,16.016v16.015h1.172a2.464,2.464,0,0,0,1.953-.39,5.209,5.209,0,0,0,1.953-1.563,24.222,24.222,0,0,0,1.465-2.539,30.245,30.245,0,0,0,1.27-2.93l0.39-1.562,0.2-33.789V700.109h-4.3l-4.1.2v1.172l-0.195,1.367H317.289v-2.735h-8.2Zm21.094,6.25v14.453H317.289V706.359H330.18Zm0,18.164v16.6H317.289v-16.6H330.18Zm-55.86-23.242v56.25h0.586c0.26-.128.617-0.323,1.074-0.586a7.153,7.153,0,0,0,1.465-1.172,6.558,6.558,0,0,0,1.563-1.757,6.663,6.663,0,0,0,.781-1.758l0.391-.977,5.859-.195H291.9v6.445h0.586c0.26-.128.782-0.357,1.563-0.683a6.05,6.05,0,0,0,2.148-1.563,8.817,8.817,0,0,0,1.367-1.855q0.39-.975.782-2.344,0.389-1.172.39-25.586V701.281h-3.515q-3.324,0-3.321.391t-5.761.39q-5.763,0-5.762-.39t-2.93-.391H274.32Zm17.578,4.688v19.14H280.375v-19.14H291.9Zm0,22.851v18.555H280.375V728.82H291.9Zm97.266-28.711-0.195,29.3q0,29.3-.391,30.86a28.068,28.068,0,0,1-1.172,3.515,21.729,21.729,0,0,1-1.758,3.516,19.87,19.87,0,0,1-3.32,4.1,17.921,17.921,0,0,1-3.125,2.735l-0.781.39v1.758a4.678,4.678,0,0,0,.1,1.563q0.1,0,2.441-1.172a23.825,23.825,0,0,0,3.711-2.344,16.5,16.5,0,0,0,2.93-2.344,24.943,24.943,0,0,0,3.125-3.32q1.364-1.95,2.148-3.223a27.629,27.629,0,0,0,1.465-2.734,30.306,30.306,0,0,0,1.269-3.223,31.207,31.207,0,0,0,.977-3.711,25.22,25.22,0,0,0,.586-6.25l0.195-3.906h29.1V759.68q0.192,11.329.195,12.7l0.391,1.367a12.859,12.859,0,0,0,1.953-.976,10.482,10.482,0,0,0,2.832-1.758,7.958,7.958,0,0,0,1.758-2.344,9.183,9.183,0,0,0,.879-2.539q0.192-1.363.2-33.594V700.109h-8.2v1.758h-29.1v-1.758h-8.2Zm37.305,6.25V721.4h-29.1V706.359h29.1Zm0,19.336v15.43h-29.1V725.7h29.1Zm75.976-27.343v33.2h-15.82V721.008l-0.195-10.547h-3.907l-4.1-.2v31.64h1.172a4.484,4.484,0,0,0,2.344-.586,7.4,7.4,0,0,0,1.757-2.148,6.939,6.939,0,0,0,1.367-2.539l0.586-1.172,8.4-.2h8.4v34.961H482.328V744.25H474.32l-0.195,17.578v17.578h1.367a3.888,3.888,0,0,0,2.344-.586,8.949,8.949,0,0,0,1.562-1.562,6.381,6.381,0,0,0,1.172-1.953l0.586-1.172H530.57v5.078l1.172,0.195a9.789,9.789,0,0,0,1.66-.1,3.015,3.015,0,0,0,1.27-.879q0.585-.587,1.562-1.758a8.773,8.773,0,0,0,1.172-2.734,13.475,13.475,0,0,0,.977-2.735q0.389-1.561.39-14.062v-12.7h-4.1l-4.1.2v25.586H507.523l0.977-1.758a20.8,20.8,0,0,0,1.562-3.516q0.39-1.758.586-15.625V735.266h16.993v8.007h1.171a4.968,4.968,0,0,0,1.758-.293,4.264,4.264,0,0,0,1.66-1.367,14.091,14.091,0,0,0,1.661-2.636,19.72,19.72,0,0,0,1.269-3.223q0.486-1.658.684-12.793V711.828h-8.2v19.727H510.648v-33.2h-8.2Zm84.961,2.343a4.72,4.72,0,0,0-.195,1.953v1.758h18.164v20.9H574.711v1.953l-0.2,1.758h30.859v5.078a34.629,34.629,0,0,1-.391,6.64c-0.262,1.172-.521,2.216-0.781,3.125q-0.586,1.566-1.367,3.516a32.406,32.406,0,0,1-1.953,3.711,28.993,28.993,0,0,1-2.149,3.32,28.132,28.132,0,0,1-2.929,3.321,27.569,27.569,0,0,1-3.907,3.906q-2.151,1.955-4.492,3.711a36.492,36.492,0,0,1-4.687,3.125,39.592,39.592,0,0,1-5.274,2.929,40.953,40.953,0,0,1-5.859,2.93q-3.126,1.172-3.223,1.856c-0.067.454-.033,0.683,0.1,0.683a36.6,36.6,0,0,0,4.492-1.562q4.688-1.758,6.445-2.539a62.111,62.111,0,0,0,6.055-2.735q3.708-1.758,6.445-3.125,2.931-1.758,5.469-3.515a61.187,61.187,0,0,0,5.274-3.907q2.343-2.147,3.711-3.515,1.364-1.562,2.539-3.125,0.975-1.562,2.148-3.516a7.14,7.14,0,0,1,.391-0.976q0.585-.779.781-0.391t0.977,2.148a39.782,39.782,0,0,0,1.953,3.809q0.975,1.662,2.734,4.2,1.95,2.344,4.2,4.59t4.2,4.2q1.758,1.37,4.493,3.516,2.535,1.758,3.906,2.734a4.739,4.739,0,0,0,1.758.977q0.192,0,.2-4.492v-4.493l-2.539-1.757q-2.541-1.95-5.274-3.907-2.539-2.147-5.664-5.078-2.738-2.733-4.687-5.078t-3.516-4.492l-1.367-2.344v-1.367q0.192-1.562.2-6.836v-5.273h30.665v-3.711H613.773V714.953l0.2-10.547h17.969l-0.2-1.953V700.7h-22.07q-22.074-.192-22.266,0h0Zm115.235,0v67.383h-1.563q-1.955,0-7.812.2-5.274.2-9.18,0.391h-3.125V716.32l-4.1-.2h-4.3v26.758q0,26.953.391,28.125a4.61,4.61,0,0,0,.781,2.148,5.9,5.9,0,0,0,1.368,1.953,5.392,5.392,0,0,0,2.246,1.368,8.329,8.329,0,0,0,2.441.39h1.172v-2.148q0-2.148.586-2.344,0.389,0,10.156-.391,8.982-.192,24.805-0.781,15.037-.389,15.137-0.293a19.282,19.282,0,0,1,.1,3.028v2.929h1.367a6.23,6.23,0,0,0,2.637-.586,7.782,7.782,0,0,0,2.246-1.562,12.174,12.174,0,0,0,1.367-2.149q0.39-1.172.782-2.539,0.192-1.56.2-27.539l-0.2-26.172-4.1-.2h-4.3v50.781l-0.39.2q-0.587,0-9.375.2-8.2.2-11.329,0.391l-2.539.2,0.782-.781a12.216,12.216,0,0,0,1.367-2.149,8.437,8.437,0,0,0,.781-2.734q0.389-1.562.2-31.446V700.891h-4.3Zm117.968-.586v8.2H794.047l0.195,1.954v1.757h13.086l13.281,0.2v3.515l0.2,3.516h1.367a6.273,6.273,0,0,0,2.344-.391,10.231,10.231,0,0,1,1.562-.976,6.3,6.3,0,0,0,1.465-1.758,11.536,11.536,0,0,0,1.269-2.539l0.2-1.367h15.234v7.031h1.367a6.269,6.269,0,0,0,2.344-.391,6.663,6.663,0,0,0,1.953-1.269,6.327,6.327,0,0,0,1.563-2.246,8.738,8.738,0,0,0,.781-2.149l0.2-.976,12.3-.2h12.109v-1.757l0.2-1.954H852.641v-8.2h-8.4v4.1l-0.195,4.1H829.4v-8.2h-8.789Zm13.086,12.3-0.2.391q-0.98,1.565-1.758,2.734-1.368,2.151-2.93,4.3-1.565,1.955-3.71,4.492-2.737,2.738-4.3,4.492a40.15,40.15,0,0,1-3.711,3.321q-1.37,1.172-3.321,2.734a39.423,39.423,0,0,1-3.711,2.734,51.407,51.407,0,0,1-5.859,3.711,57.288,57.288,0,0,1-5.859,3.516,10.841,10.841,0,0,0-2.832,1.66c-0.067.2-.034,0.293,0.1,0.293q0,0.2,2.93-.977,2.537-.975,5.664-2.148,3.32-1.561,5.859-2.734,2.931-1.561,3.028-1.563t0.1,19.141v19.336h49.8l0.977-.586a4.156,4.156,0,0,0,1.953-1.367,8.29,8.29,0,0,0,1.562-2.149,9.689,9.689,0,0,0,.489-1.367q0.293-.975.488-1.758,0.192-1.95.195-6.836V758.7h-8.594v15.43H820.609l0.586-1.172q0.39-1.172.586-15.625V742.688h23.633v17.187h1.367a6.05,6.05,0,0,0,2.735-.684,5.876,5.876,0,0,0,2.05-1.562,7.7,7.7,0,0,0,1.075-1.856,13.132,13.132,0,0,0,.781-2.148q0.389-1.171.39-7.813v-7.031H814.164l2.93-1.758q2.343-1.56,5.468-3.711,2.537-1.757,5.469-4.1t6.055-5.273l3.32-2.93,1.758,2.148a39.745,39.745,0,0,0,4.688,5.078,35.518,35.518,0,0,0,4.882,4.493,27.912,27.912,0,0,0,5.274,2.929,40.076,40.076,0,0,0,5.859,2.735q2.344,0.98,5.274,2.148l2.539,0.781,3.711-1.562c0.781-.391,1.464-0.714,2.05-0.977s1.2-.519,1.856-0.781a34.535,34.535,0,0,0-4.492-1.367q-4.3-1.172-8.789-2.735-4.687-1.56-6.739-2.441a26.786,26.786,0,0,1-4.589-2.637q-2.541-1.758-4.688-3.515-2.541-1.95-4.3-3.516-2.151-1.95-2.539-2.344-0.2-.389,1.563-2.539t1.562-2.344q0-.389-1.758-0.781a15.1,15.1,0,0,1-1.953-.293q-1.566-.293-2.344-0.488Zm82.617-15.039v9.18H905.18l-11.133.2v3.516H905.18l11.132,0.2v5.859h1.563a5.6,5.6,0,0,0,2.539-.586,5.746,5.746,0,0,0,1.953-1.562,18.412,18.412,0,0,0,1.563-2.344l0.586-1.562,10.937,0.2h11.133v2.93l0.195,2.929h1.172a5.183,5.183,0,0,0,2.344-.488,14.087,14.087,0,0,0,1.562-.879,8.883,8.883,0,0,0,1.563-1.562,6.878,6.878,0,0,0,.976-1.953l0.391-1.172h22.266v-3.711H955.18v-9.18h-8.594v9.18h-21.68v-9.18h-8.594Zm27.149,23.047v10.351H922.172v3.907h4.883v22.656l0.2,22.656h1.367a5.445,5.445,0,0,0,2.637-.586,8.142,8.142,0,0,0,1.855-1.367c0.65-.781,1.172-1.434,1.563-1.953l0.39-1.172h36.719V771.2H935.844V734.68H974.32v-3.907H950.1l0.586-.585a18.258,18.258,0,0,0,.878-2.247,19.724,19.724,0,0,0,.684-4.589v-2.93h-8.789Zm-43.555,4.3v1.758l0.2,1.562h7.812l8.008,0.2v-3.906h-7.813q-8.01,0-8.2.391h0Zm0,14.648v1.953l0.2,1.368,7.812,0.2h8.008v-3.711h-7.813q-8.01,0-8.2.195h0Zm4.1,14.453v26.563h1.367a4.889,4.889,0,0,0,2.539-.586,11.174,11.174,0,0,0,1.953-1.367,6.022,6.022,0,0,0,1.367-1.953,13.256,13.256,0,0,0,.782-2.149q0.389-1.363.39-10.937V753.82h-8.4Zm102.542-49.609v3.516h58.4v-3.516h-58.4Zm-9.769,22.656v3.711h16.409l16.4,0.2-7.81,11.133q-1.56,2.345-4.3,6.153t-4.49,6.445q-1.755,2.637-2.73,3.808c-2.61,3.779-4.49,6.513-5.67,8.2q-2.145,2.93-1.95,2.929,0.2,0.2,17.38-.781,16.605-.975,19.14-1.172,0.39,0,3.81-.195t5.76-.391l7.62-.39a5.578,5.578,0,0,1,.39,1.953,22.24,22.24,0,0,1,.49,3.32,3.33,3.33,0,0,0,.29,1.66,57.385,57.385,0,0,0,6.35-1.562q6.15-1.657,6.25-1.758a12.481,12.481,0,0,0-1.27-2.637,50.145,50.145,0,0,0-3.12-5.273q-1.965-2.93-3.13-4.492-1.56-1.758-3.51-3.711a28.331,28.331,0,0,0-4.11-3.516,17.1,17.1,0,0,0-3.51-2.148,11.794,11.794,0,0,0-2.93-1.368l-1.17-.39v1.172a4.267,4.267,0,0,0,.78,1.757,14.635,14.635,0,0,1,1.76,2.735,34.085,34.085,0,0,1,3.12,5.469q1.755,3.323,1.56,3.515l-13.47.977q-4.11.2-11.14,0.683t-8.39.684q-6.06.393-6.16,0.195a54.735,54.735,0,0,1,3.81-6.054q1.365-1.758,4.49-6.348t4.3-6.152q6.45-9.375,7.23-10.547l2.73-4.1h36.53v-3.711H996.781Zm9.769-22.656v3.516h58.4v-3.516h-58.4Zm124.02-8.4-2.93,6.055a79.554,79.554,0,0,1-4.49,8.4c-0.91,1.3-1.99,2.734-3.22,4.3s-2.64,3.193-4.2,4.883c-1.7,1.694-3.06,3-4.11,3.907a6.726,6.726,0,0,0-1.36,1.367,3.214,3.214,0,0,0,1.56.195h1.37l3.32-2.539q3.12-2.344,5.76-4.59t4.98-4.394l2.54-2.344H1146q16.215-.192,18.07-0.684a19.847,19.847,0,0,0,3.81-1.465,10.222,10.222,0,0,0,3.12-2.148,6.988,6.988,0,0,0,1.95-2.344l0.78-1.172-0.58-1.562a7.6,7.6,0,0,0-.88-1.563,1.572,1.572,0,0,0-.49.586c-0.26.391-.72,0.977-1.37,1.758a8.173,8.173,0,0,1-2.14,1.563,18.441,18.441,0,0,1-2.35.976q-1.17.2-16.8,0.2H1133.6a3.908,3.908,0,0,1,.58-1.27q0.69-1.268,1.86-3.027,2.34-4.294,2.54-4.688c0-.128-0.04-0.195-0.1-0.195a4.51,4.51,0,0,1-.59-0.1,6.059,6.059,0,0,0-1.17-.1h-6.15Zm-33.4,7.813v1.758q0,1.758.69,1.855t7.91,0.1l7.22-.2v-3.516h-15.82Zm27.15,15.625v21.289h-5.08l-4.88.2v1.758l0.19,1.758,4.89,0.2h4.88v22.071h1.56a5.611,5.611,0,0,0,2.54-.586,6.754,6.754,0,0,0,2.15-1.758l0.78-.977h24.61v18.946h0.59a3.025,3.025,0,0,0,1.56,0,4.875,4.875,0,0,0,2.15-.586,9.487,9.487,0,0,0,1.85-1.465,7.736,7.736,0,0,0,1.47-2.051,15.4,15.4,0,0,0,.58-2.344,34.388,34.388,0,0,0,.39-6.836V763.2h5.08v-3.906h-5.08V744.445h8.01v-3.711l-3.9-.2h-4.11V719.25h-4.29l-4.1.2v0.977l-0.2.781h-23.05V719.25h-8.59Zm31.64,5.859v15.625l-11.52-.2h-11.53v-15.43h23.05Zm0,19.336v14.844h-23.44l0.2-.586a67.521,67.521,0,0,0,.19-7.422v-6.836h23.05Zm-21.68-15.722c0,0.2.55,0.586,1.66,1.172a23.38,23.38,0,0,1,3.42,2.246,22.547,22.547,0,0,1,3.12,2.929,19,19,0,0,1,1.96,2.93l0.78,1.367,1.17-1.367c0.65-.65,1.5-1.562,2.54-2.734l1.17-1.368-1.17-1.171a11.026,11.026,0,0,0-2.64-1.954,18.892,18.892,0,0,0-2.93-1.269,16.34,16.34,0,0,0-3.61-.684,22.081,22.081,0,0,0-3.91-.39Q1134.28,728.43,1134.28,728.723Zm0,18.261c0,0.263.46,0.586,1.37,0.977a14.179,14.179,0,0,1,2.73,1.758,22.3,22.3,0,0,1,3.03,2.636,16.426,16.426,0,0,1,2.64,3.223,9.148,9.148,0,0,0,.58.977,2.025,2.025,0,0,1,.39.781,0.961,0.961,0,0,0,.69-0.293c0.19-.2.42-0.455,0.68-0.781a17.088,17.088,0,0,1,1.17-1.27l2.54-2.734-0.78-.781a5.23,5.23,0,0,0-1.95-1.758,15.1,15.1,0,0,0-2.74-1.563,10.853,10.853,0,0,0-2.93-.781,14.435,14.435,0,0,0-4.49-.586C1135.26,746.661,1134.28,746.725,1134.28,746.984Zm-36.91-18.75a4.517,4.517,0,0,0,0,1.954v1.367l7.81,0.2h7.81v-3.711h-7.81q-7.815,0-7.81.2h0Zm3.9,22.266v26.758h1.18a5.511,5.511,0,0,0,2.73-.781,8.153,8.153,0,0,0,2.05-1.563,9.058,9.058,0,0,0,1.27-1.953,8.246,8.246,0,0,0,.78-2.539q0.39-1.758.39-10.742V750.5h-8.4Zm107.62-54.688V696.4c0.13,0.263.39,0.977,0.78,2.149a8.477,8.477,0,0,0,1.37,3.125,19.679,19.679,0,0,0,2.83,3.418,17.287,17.287,0,0,0,4.3,3.125,9.932,9.932,0,0,0,4.59,1.269h1.95l-0.78-.976a9.018,9.018,0,0,1-1.56-2.344,28.057,28.057,0,0,1-1.37-3.223c-0.39-1.1-.85-2.5-1.37-4.2l-0.78-2.734h-5.08Zm-9.96,8.008v78.321h0.78a4.869,4.869,0,0,0,1.95-.782,7.77,7.77,0,0,0,2.54-1.953,10.7,10.7,0,0,0,1.96-2.734,7.716,7.716,0,0,0,1.17-3.125,30.291,30.291,0,0,0,.39-6.543q0-5.37.19-29V703.82h-8.98Zm30.08,0v3.907h34.37v74.414l0.78-.2a11.574,11.574,0,0,0,1.96-.586,8.432,8.432,0,0,0,2.15-1.562,8.543,8.543,0,0,0,1.75-1.953,12.319,12.319,0,0,0,1.37-2.93l0.59-1.953V703.82h-42.97Zm-10.55,13.868v55.468h0.59a12.294,12.294,0,0,0,2.05-.781,5.566,5.566,0,0,0,2.05-1.563,4.471,4.471,0,0,0,1.37-1.562l0.39-.586h20.5v4.492H1246a9.855,9.855,0,0,0,1.95-.781,18.717,18.717,0,0,0,1.96-1.367,8.663,8.663,0,0,0,1.85-2.149,13.612,13.612,0,0,0,1.47-3.125l0.78-1.757V717.688h-8.6v1.757h-18.36v-1.757h-8.59Zm26.95,5.664v19.921h-18.36V723.352h18.36Zm0,23.828v17.578h-9.37q-6.645,0-8.01-.2l-1.17-.2q0-.389.19-8.789v-8.4h18.36ZM289.945,875.7q-0.2.2-.195,16.8V908.9H265.922v3.907H289.75v39.062h1.367a7.127,7.127,0,0,0,2.735-.488,5.317,5.317,0,0,0,1.953-1.367,12.5,12.5,0,0,0,1.367-1.856q0.388-.975.781-1.953a24.443,24.443,0,0,0,.293-3.711q0.1-2.929.1-13.476V912.805h8.4v0.586q0.39,1.565.977,3.32a24.5,24.5,0,0,0,1.562,4.687,39.858,39.858,0,0,0,1.856,4.3q1.071,2.152,2.343,4.2a40.2,40.2,0,0,0,2.832,4,39.686,39.686,0,0,0,3.711,4.3,35.8,35.8,0,0,0,4.3,3.711q2.148,1.566,7.813,5.078a53.18,53.18,0,0,0,6.25,3.516,1.482,1.482,0,0,0,.488-0.977q0.293-.975.879-4.3a51.153,51.153,0,0,0,.879-5.372q-0.1-.1-5.957-3.027a46.307,46.307,0,0,1-7.813-4.1q-1.757-1.173-3.711-2.735a29.034,29.034,0,0,1-3.515-3.32,32.877,32.877,0,0,1-2.735-3.125q-1.368-1.758-2.929-4.1t-2.735-4.492a22.672,22.672,0,0,1-.976-2.051q0-.1,18.359-0.1h18.36V908.9H298.344v-2.343c0-1.691.128-2.6,0.39-2.735a12.046,12.046,0,0,0,3.125-1.172,46.776,46.776,0,0,0,6.055-2.734q3.516-1.758,5.664-2.93a37.42,37.42,0,0,0,4.492-2.929,54.629,54.629,0,0,0,4.688-3.516q2.343-1.95,5.273-4.883,2.536-2.535,4.492-4.883a14.609,14.609,0,0,0,1.758-2.343c0-.128-0.131-0.2-0.39-0.2q-0.2,0-4.883-.586l-4.492-.586-1.954,2.344q-2.151,2.738-3.71,4.688-1.758,1.955-3.516,3.906-1.954,1.955-4.3,3.906-2.343,2.153-3.906,3.516l-5.274,3.516-3.32,2.343-0.195-12.89V875.7h-4.1A19.141,19.141,0,0,0,289.945,875.7Zm90.43-1.562-0.195.586q-0.2.585-.2,26.367,0,25.978-.39,27.148a12.963,12.963,0,0,1-.782,2.637,24.441,24.441,0,0,1-1.757,3.418,32.807,32.807,0,0,1-2.93,3.711q-1.954,2.151-4.492,4.688a59.69,59.69,0,0,1-4.688,4.3q-1.368,1.173-4.3,3.516-2.343,1.758-2.441,2.539c-0.067.519-.034,0.781,0.1,0.781s1.431-.653,3.906-1.953a57.274,57.274,0,0,0,7.227-4.1q3.318-2.345,5.468-4.1,2.344-2.147,4.688-4.492a27.6,27.6,0,0,0,3.515-4.688,31.2,31.2,0,0,0,2.344-3.906l0.977-1.758,2.539-1.172a33.038,33.038,0,0,0,4.3-2.148,30.91,30.91,0,0,0,3.906-2.344q1.95-1.363,3.906-2.929a26.54,26.54,0,0,0,2.93-2.637,4.027,4.027,0,0,1,1.172-1.074,5.331,5.331,0,0,1,1.367,1.172,31.855,31.855,0,0,0,2.637,2.343q1.464,1.172,4.2,3.125,3.122,2.345,5.273,3.711,2.929,1.955,3.125,1.758a12.649,12.649,0,0,0,2.149-1.367q1.758-1.172,1.758-.586a23.759,23.759,0,0,0,1.367,2.734,27.394,27.394,0,0,0,2.148,3.906q1.172,1.758,2.832,3.809a48.5,48.5,0,0,0,3.418,3.809,40.015,40.015,0,0,0,3.711,2.929,42.912,42.912,0,0,0,4.688,3.516,71.46,71.46,0,0,0,6.64,3.711,29,29,0,0,0,3.809,1.758c0.195,0,.293-0.229.293-0.684s-0.717-1.2-2.149-2.246-3-2.277-4.687-3.711q-2.929-2.537-5.078-4.687a39.97,39.97,0,0,1-4.1-4.3q-1.566-1.95-2.539-3.125-0.783-1.365-1.562-2.93a9.161,9.161,0,0,1-.977-2.148q-0.393-.975-0.586-27.93V874.328H406.547Zm44.141,3.906V922.57q-1.566-.975-2.735-1.562-2.151-1.365-5.078-3.125-2.343-1.562-4.1-2.735A21.608,21.608,0,0,1,409.867,913l-0.976-.781,1.367-2.149q1.363-2.147,2.93-5.078a40.918,40.918,0,0,0,2.343-5.078q0.587-1.758,1.367-4.1,0.39-1.757.977-4.3c0.259-1.563.391-2.408,0.391-2.539s-0.977-.2-2.93-0.2h-2.93l-0.39,2.149a31.518,31.518,0,0,1-.586,4.1q-0.395,1.566-1.368,4.883a52.945,52.945,0,0,1-2.539,6.055,12.62,12.62,0,0,1-1.562,2.929q-0.395,0-1.953-1.953-1.566-2.343-2.442-3.711t-2.441-4.3a42.363,42.363,0,0,1-2.148-5.469,18.2,18.2,0,0,1-.977-3.516l-0.391-1.172-0.39.781q-0.394.587-.2,3.321a34,34,0,0,0,.782,5.273,36.682,36.682,0,0,0,1.367,4.883,30.791,30.791,0,0,0,2.148,4.883,38.429,38.429,0,0,0,2.344,4.1l1.172,1.758-0.977,1.172a29.921,29.921,0,0,1-3.711,3.906,32.306,32.306,0,0,1-4.492,3.907,30.941,30.941,0,0,1-4.1,2.929,15.246,15.246,0,0,1-2.344,1.367,9.755,9.755,0,0,0,.293-1.074,8.819,8.819,0,0,1,.293-1.074l0.391-1.953,0.195-22.461V878.039h36.133Zm59.375,0.391v0.586q0,0.585-.2,27.05T483.109,933.9a17.807,17.807,0,0,1-.976,3.125,11.755,11.755,0,0,1-1.367,2.93,18.263,18.263,0,0,1-2.735,2.93,13.257,13.257,0,0,1-3.906,2.734,15.251,15.251,0,0,1-3.906,1.563,6.09,6.09,0,0,0-1.758.586,1.162,1.162,0,0,0,0,.976,0.806,0.806,0,0,0,.977.684,23.523,23.523,0,0,0,3.515-1.074,31.538,31.538,0,0,0,5.469-2.149,30.251,30.251,0,0,0,4.394-2.441,25.5,25.5,0,0,0,3.614-3.028,22.932,22.932,0,0,0,2.734-3.125q0.975-1.56,1.563-2.539a11.916,11.916,0,0,0,1.074-2.539q0.485-1.56.683-19.336,0-5.663.1-14.257t0.1-9.18v-5.664h23.828l0.195,32.031q0,32.034.391,32.031a11.832,11.832,0,0,0,1.758-.586q1.364-.585,9.179-0.586h7.813v0.586a0.479,0.479,0,0,0,.488.586,4.543,4.543,0,0,0,1.66-.586,6.2,6.2,0,0,1,1.367-.586,6.073,6.073,0,0,0,1.465-1.269,9.961,9.961,0,0,0,2.051-3.027,12.812,12.812,0,0,0,1.367-3.711q0.192-1.95.2-8.008v-6.055h-8.594v18.555h-6.055q-6.254,0-6.25-.2a4.74,4.74,0,0,1,.488-1.171,10.017,10.017,0,0,0,.782-2.735q0.293-1.758.293-31.25V878.43h-8.4v1.758H492.68V878.43h-8.789Zm83.4-1.758v3.711h29.883v0.976q0,0.587-.391,4.688-0.2,3.516-.586,7.617t-0.976,7.422q-0.587,3.126-1.367,6.641-0.783,3.712-1.758,7.031-1.173,3.516-2.344,6.445a46.621,46.621,0,0,1-2.539,6.055q-1.566,2.737-2.93,5.078-1.564,2.151-2.734,3.711a39.155,39.155,0,0,1-3.32,3.32,34.6,34.6,0,0,1-4.1,3.516,20.9,20.9,0,0,1-3.711,1.953q-1.566.783-3.516,1.562l-1.953.586-0.2,2.149c0,1.3.2,1.953,0.586,1.953a10.775,10.775,0,0,0,2.148-.586,32.426,32.426,0,0,0,3.907-1.172q2.343-.975,4.687-2.148,2.344-1.365,3.906-2.344a38.183,38.183,0,0,0,3.907-2.734,42.645,42.645,0,0,0,4.882-4.3,55.366,55.366,0,0,0,4.2-4.59q1.464-1.854,3.222-4.395a51.289,51.289,0,0,0,3.125-5.468q1.561-3.123,2.735-6.055t2.343-6.641a60.589,60.589,0,0,0,1.563-6.054l0.586-2.54H625.3V950.7h0.781a6.24,6.24,0,0,0,1.758-.39,11.262,11.262,0,0,0,2.539-.782,8.483,8.483,0,0,0,2.344-1.464,9.012,9.012,0,0,0,1.758-2.247q0.585-1.364.976-2.539t0.586-24.218V896.2H625.3v2.149H607.328V897.18a1.334,1.334,0,0,0,.2-0.879,13.887,13.887,0,0,1,.1-1.563,12.292,12.292,0,0,1,.293-1.66,54.433,54.433,0,0,0,.391-7.031q0.192-3.9.2-4.688l0.2-.976h39.258v-3.711H567.289ZM677.25,875.7v6.641q-0.2,6.254-.2,22.266v15.82l1.562-.2a6.056,6.056,0,0,0,2.735-.586,5.935,5.935,0,0,0,1.953-1.368,17.921,17.921,0,0,0,1.367-1.953l0.39-.976H702.25V929.6H675.492v3.71H702.25v14.844H684.867l-17.383.2v3.515h78.125v-3.515l-18.359-.2q-18.164,0-18.164-.195a1.091,1.091,0,0,1,.391-0.586,7.849,7.849,0,0,0,.781-1.758q0.585-1.363.586-6.836v-5.469H737.6V929.6H710.844V915.344h16.6v4.883h1.367a6.05,6.05,0,0,0,2.735-.684,8.239,8.239,0,0,0,2.148-1.465,6.777,6.777,0,0,0,1.367-2.148,19.58,19.58,0,0,0,.782-5.664q0.192-4.491.195-19.336V875.7h-8.594v2.93h-41.6v-1.367l-0.2-1.563h-8.4Zm25,6.641v12.891h-16.6v-6.446q0-6.247.2-6.347t8.2-.1h8.2Zm25.2,0v12.891h-16.6v-6.446q0-6.247.195-6.347t8.2-.1h8.2Zm-25.2,16.6v12.7h-16.6v-12.7h16.6Zm25.2,0-0.2,6.25v6.25l-8.2.2h-8.2v-12.7h16.6ZM830.18,875.7V904.6h1.367a5.459,5.459,0,0,0,2.637-.586,8.108,8.108,0,0,0,1.855-1.368q0.779-.975,1.563-2.148a15.1,15.1,0,0,0,.781-2.734,20.123,20.123,0,0,0,.195-3.125v-1.953h23.438l-0.2.585a6.3,6.3,0,0,1-.586,1.758,10.9,10.9,0,0,1-.976,2.149q-0.587,1.172-.391,1.172c0,0.131.519,0,1.563-.391a15.106,15.106,0,0,0,3.125-1.367,10.259,10.259,0,0,0,3.125-2.149,9.745,9.745,0,0,0,2.148-2.539,7.837,7.837,0,0,0,.977-2.929,11.808,11.808,0,0,0,.39-1.563q-0.2,0-3.32-.195-3.516-.39-3.906-0.391a1.1,1.1,0,0,0-.977,1.172l-0.195.977-12.109.2h-12.11V875.7h-8.4ZM800.1,880.773v57.618h1.367a5.613,5.613,0,0,0,2.539-.586,6.769,6.769,0,0,0,2.148-1.758l0.977-.977h7.031v1.563l0.2,1.562,1.172,0.2a5.829,5.829,0,0,0,2.442-.489,6.366,6.366,0,0,0,2.05-1.562,8.866,8.866,0,0,0,1.368-1.856,7.658,7.658,0,0,0,.879-2.343q0.293-1.365.292-26.563v-24.8h-4.1q-4.1,0-4.2.489t-2.832.488q-2.737,0-2.832-.488t-4.2-.489h-4.3Zm14.062,4.493v46.289h-5.859l0.2-1.172V885.266h5.664ZM844.242,896.2v12.109q-0.2,12.112-.586,14.063-0.585,1.758-1.367,4.1-0.98,1.954-1.758,3.906a29.21,29.21,0,0,1-2.148,3.32q-1.172,1.566-2.735,3.32a39.483,39.483,0,0,1-3.32,3.321q-1.758,1.564-3.32,2.929-1.566,1.173-4.395,3.125t-5.175,3.321c-0.654.39-1.206,0.714-1.661,0.976a1.226,1.226,0,0,0-.683.586,7.959,7.959,0,0,1,1.367.391l1.172,0.195,4.3-2.148q3.9-1.95,7.617-4.1,3.318-1.95,5.664-3.32,1.95-1.365,4.1-2.93,1.561-1.363,2.93-2.734,1.365-1.562,2.344-2.735a18.859,18.859,0,0,0,2.148-3.515q0.975-2.147,1.758-4.3c0.391-1.3.714-2.57,0.977-3.809s0.39-5.89.39-13.965V896.2h-7.617Zm8.008,35.938c-0.131,0-.2.2-0.2,0.586a3.25,3.25,0,0,0,1.367,1.757,27.542,27.542,0,0,1,2.734,2.735,32.234,32.234,0,0,1,2.539,3.32,31.252,31.252,0,0,1,1.953,3.32,14.561,14.561,0,0,1,1.172,3.321,29.2,29.2,0,0,1,.977,3.125,4.909,4.909,0,0,0,.293,1.562q0.1,0,2.832-2.734a32.616,32.616,0,0,0,3.906-4.1l1.367-1.367-0.781-1.367a10.8,10.8,0,0,0-1.758-2.735,11.853,11.853,0,0,0-2.539-2.539,29.155,29.155,0,0,0-3.515-2.148,20.888,20.888,0,0,0-3.516-1.563c-1.044-.259-2.148-0.518-3.32-0.781q-1.566-.388-2.735-0.586a1.133,1.133,0,0,0-.781.2h0Zm83.789-58.789v6.836h-27.93v27.734l-0.2,27.93-0.391,1.757a42.9,42.9,0,0,1-1.757,4.3,19.46,19.46,0,0,1-2.539,4.1,17.773,17.773,0,0,1-3.125,3.125,13.616,13.616,0,0,1-2.344,1.758,2.307,2.307,0,0,0-.586,1.953c0,1.04.064,1.562,0.195,1.562a14.385,14.385,0,0,0,2.149-.976q2.147-1.173,3.906-2.344a32.961,32.961,0,0,0,3.711-2.93,45.26,45.26,0,0,0,3.32-3.711q1.365-1.95,2.735-4.3a23.863,23.863,0,0,0,1.953-4.882,33.365,33.365,0,0,0,1.171-4.493q0.193-1.757.391-3.125,0-1.172.2-22.46V884.094h55.079v-3.906H956.938q-15.236,0-15.235-.1a4.3,4.3,0,0,1,.586-0.879,10.3,10.3,0,0,0,.977-1.563q0.389-.975.781-1.953a6.5,6.5,0,0,0,.195-1.562l0.2-.781h-8.4ZM929.5,885.266q-0.1.2-.1,5.078v5.078H918.461v3.711H929.4v19.336h1.368a5.616,5.616,0,0,0,2.539-.586,9.119,9.119,0,0,0,1.757-1.367l0.977-.782h16.6V917.1l0.2,1.367H954.2a14.2,14.2,0,0,0,2.539-.586,9.157,9.157,0,0,0,1.758-1.367,7.425,7.425,0,0,0,1.367-1.954,13.443,13.443,0,0,0,.977-2.734,36.036,36.036,0,0,0,.39-7.031v-5.664h10.743V897.18l0.2-1.758H961.234l-0.2-5.078v-5.078h-8.2l-0.2,5.078v5.078h-7.422l-7.422-.2v-4.883l-0.2-5.078H933.7Q929.594,885.073,929.5,885.266Zm23.145,13.867v12.89H937.406l0.2-.585a52.5,52.5,0,0,0,.2-6.446v-5.859h14.844Zm-30.664,20.508v3.711H929.4v1.757a23.928,23.928,0,0,0,.293,3.516,19.144,19.144,0,0,0,.684,3.125q0.586,1.368,1.172,2.734a10.7,10.7,0,0,0,1.758,2.735,15.363,15.363,0,0,0,1.953,2.343,12.8,12.8,0,0,0,2.344,2.149q1.172,0.98.683,1.367t-4.59,2.539a74.521,74.521,0,0,1-7.031,3.125q-2.541.975-6.25,2.149a13.7,13.7,0,0,0-3.32,1.367,1.767,1.767,0,0,0-.2,1.074,2.335,2.335,0,0,0,.1.977,19.575,19.575,0,0,0,3.223-.293q3.514-.587,5.469-0.977a53.082,53.082,0,0,0,5.468-1.172q3.32-.979,6.055-1.758,2.733-.98,5.469-2.148l2.539-1.172,2.539,1.172a52.454,52.454,0,0,0,5.078,1.953,53.005,53.005,0,0,0,6.25,1.758q3.516,0.975,6.25,1.562,2.537,0.39,5.664.782l2.539,0.39q0.192,0,0-1.172v-1.172l-4.3-1.367q-4.3-1.368-7.031-2.539-3.126-1.363-4.3-1.953-1.566-.779-3.906-1.953a15.472,15.472,0,0,1-2.149-1.465,12.638,12.638,0,0,1,1.563-1.465,26.8,26.8,0,0,0,2.734-2.734,23.97,23.97,0,0,0,2.149-2.93,17.325,17.325,0,0,0,1.367-2.539,18.871,18.871,0,0,0,.781-2.734,22.523,22.523,0,0,0,.586-6.25l0.2-4.492H921.977Zm30.664,3.711v1.562a11.7,11.7,0,0,1-.293,2.637,17.427,17.427,0,0,1-1.075,3.027q-0.782,1.37-2.148,3.32-1.368,1.566-2.539,2.93l-1.367,1.367-1.758-1.757a40.025,40.025,0,0,1-2.93-3.711,20.071,20.071,0,0,1-1.953-3.711,20.858,20.858,0,0,1-.781-3.711l-0.2-1.953h15.039Zm48.829-41.6v3.906h29.88v22.656H1004.4v3.711h26.95v30.665H995.023V946.2h81.057v-3.515h-18.95q-11.13,0-14.25-.2l-4.5-.195q0.195-.587.78-1.953l0.59-1.563V912.023h26.95v-3.711h-26.95V885.656h29.88V881.75h-68.16Zm45.51,36.523v0.782a4.8,4.8,0,0,0,.97,2.05,26.963,26.963,0,0,1,1.96,3.614,40.748,40.748,0,0,1,1.56,3.906,27.047,27.047,0,0,1,1.27,4.2,18.5,18.5,0,0,1,.49,3.028v0.781l1.36-.2q0.975,0,4.5-.2c1.3-.128,2.08-0.195,2.34-0.195s0.32-.128.19-0.391a13,13,0,0,0-.97-2.344c-0.65-1.171-1.37-2.407-2.15-3.71a35.328,35.328,0,0,0-2.93-4.1,16.018,16.018,0,0,0-3.12-3.32,12.851,12.851,0,0,0-2.35-2.149,20.122,20.122,0,0,0-2.34-1.172Zm66.6-44.335c-0.26.262-.2,0.848,0.19,1.757a24.222,24.222,0,0,1,1.18,2.93,21.873,21.873,0,0,1,.97,3.711,27.388,27.388,0,0,1,.39,4.492,19.964,19.964,0,0,1-.19,3.125,2.151,2.151,0,0,0,0,1.367q0,0.2,3.9-.976a41.3,41.3,0,0,0,4.01-1.367c0.19-.129.16-0.553-0.1-1.27s-0.85-1.984-1.76-3.809a37.521,37.521,0,0,0-2.73-4.687,20.066,20.066,0,0,0-3.13-4.1,6.666,6.666,0,0,0-2.15-1.757,1.143,1.143,0,0,0-.58.586h0Zm47.36,10.546q-0.105.394-16.11,0.391h-16.02v3.516h32.03v66.015h1.37a5.536,5.536,0,0,0,2.74-.781,5.453,5.453,0,0,0,2.24-1.758,8.191,8.191,0,0,0,1.27-2.344,20.117,20.117,0,0,0,.78-2.539q0.195-1.56.2-32.226V884.094h-4.3Q1161.045,884.094,1160.94,884.484Zm-59.28.391v69.531h1.37a5.252,5.252,0,0,0,2.35-.586,6.674,6.674,0,0,0,1.95-1.269,4.858,4.858,0,0,0,1.37-2.051,9.833,9.833,0,0,0,.97-2.344q0.195-1.171.2-32.226V884.875h-8.21Zm112.31-11.523v3.906a29.26,29.26,0,0,0,.39,5.566,12.71,12.71,0,0,0,.98,3.028,9.533,9.533,0,0,0,1.85,2.734,8.541,8.541,0,0,0,2.83,2.051,8.686,8.686,0,0,0,3.52.683h1.76V873.352h-11.33Zm35.15,0V891.32h2.15a6.919,6.919,0,0,0,5.67-2.539,7.008,7.008,0,0,0,1.95-2.539,11.105,11.105,0,0,0,1.17-3.125,32.375,32.375,0,0,0,.39-5.859v-3.906h-11.33Zm-49.6,19.14v4.3h16.4q16.41,0,16.41.2,0,0.394-.39,3.125-0.39,2.345-1.47,6.543c-0.71,2.8-1.27,4.853-1.66,6.153l-0.58,2.148h-34.18v4.1h16.4q16.215,0,16.21.2a24.612,24.612,0,0,1-1.36,2.93,37.661,37.661,0,0,1-2.54,4.687c-0.91,1.435-1.83,2.735-2.74,3.906a58.989,58.989,0,0,1-4.29,4.688,56.417,56.417,0,0,1-5.08,4.883c-1.44,1.3-2.93,2.539-4.49,3.711a60.423,60.423,0,0,1-5.08,3.515,57.1,57.1,0,0,1-5.47,3.321,8.928,8.928,0,0,0-2.93,2.343,2.252,2.252,0,0,0-.1,1.075,6.108,6.108,0,0,0,1.86-.489q1.95-.585,5.47-1.953a75.379,75.379,0,0,0,7.22-3.32,42.71,42.71,0,0,0,5.67-2.93q2.145-1.171,4.68-2.734a49.987,49.987,0,0,0,5.28-3.906q2.535-2.148,4.69-4.3a31.161,31.161,0,0,0,3.51-4.1,27.822,27.822,0,0,0,2.93-4.3c0.78-1.431,1.24-2.246,1.37-2.441s0.52,0.033,1.17.683q0.975,1.173,7.23,7.813,6.435,7.031,7.61,7.91c0.78,0.586,1.69,1.206,2.74,1.856a19.535,19.535,0,0,0,3.71,2.148q2.34,1.171,4.69,2.148a51.4,51.4,0,0,0,5.07,1.954,38.043,38.043,0,0,0,4.89,1.171q2.73,0.779,3.9.977l1.57,0.2,0.39-.976a2.061,2.061,0,0,0,.48-1.074,26.692,26.692,0,0,0-2.83-.879,53.064,53.064,0,0,1-5.47-2.149q-2.34-1.171-4.49-2.344-2.34-1.364-3.71-2.343a18.656,18.656,0,0,1-2.73-2.344,20.667,20.667,0,0,1-3.13-3.516q-0.39-.389-3.12-3.711c-1.83-2.212-3.32-4.034-4.5-5.468l-5.66-6.836h31.25v-4.1h-17.58q-17.58,0-17.58-.1c0-.064.33-1.269,0.98-3.613q0.975-2.929,2.34-8.008c0.79-3.515,1.24-5.4,1.37-5.664l0.2-.781h27.54v-4.1l-36.14-.2h-35.93Z"/>
  <path id="大写字母" class="cls-3" d="M109.609,543.484a2.558,2.558,0,0,1-1.406-1.546,3.014,3.014,0,0,1-.141-2.391l10.547-31.078a2.594,2.594,0,0,1,1.407-1.688,2.379,2.379,0,0,1,2.109-.14,2.568,2.568,0,0,1,1.406,1.547,3.064,3.064,0,0,1,.141,2.39L113.125,541.8a3.136,3.136,0,0,1-1.406,1.687,2.734,2.734,0,0,1-2.11,0h0Zm28.547-1.687-14.765-42.609a3.482,3.482,0,0,1,0-2.391,3.1,3.1,0,0,1,1.547-1.547,2.741,2.741,0,0,1,2.109,0,3.15,3.15,0,0,1,1.406,1.828l14.766,42.469a4.132,4.132,0,0,1-.141,2.391,2.564,2.564,0,0,1-1.406,1.546,2.734,2.734,0,0,1-2.11,0,3.136,3.136,0,0,1-1.406-1.687h0Zm26.044-4.5h16.312a7.488,7.488,0,0,0,3.516-.563,8.973,8.973,0,0,0,2.672-1.828,7.449,7.449,0,0,0,1.547-4.781,6.523,6.523,0,0,0-2.813-5.906,8.032,8.032,0,0,0-2.531-1.266c-0.376-.092-0.751-0.187-1.125-0.281-0.281-.092-0.562-0.187-0.844-0.281H164.2V537.3Zm0-21.235h9.141a6.671,6.671,0,0,0,3.234-.843,7.931,7.931,0,0,0,2.672-1.969,7.345,7.345,0,0,0,1.828-5.2,6.762,6.762,0,0,0-5.344-6.609,2.654,2.654,0,0,1-.844-0.141H164.2v14.765Zm-5.906,24.469V498.062a3.364,3.364,0,0,1,.843-2.25,2.865,2.865,0,0,1,2.11-.843h13.219v-0.141a12.115,12.115,0,0,1,8.015,2.953q4.358,3.517,4.641,9.985a14.545,14.545,0,0,1-2.25,8.578,11.765,11.765,0,0,1,6.047,3.8,15.726,15.726,0,0,1,3.375,9.7,13.848,13.848,0,0,1-3.235,9.7,13.237,13.237,0,0,1-8.3,4.078,2.643,2.643,0,0,1-.843.141H161.247a2.665,2.665,0,0,1-2.11-.985,3.041,3.041,0,0,1-.843-2.25h0Zm74.559,3.235a22.386,22.386,0,0,1-9-1.828,23.824,23.824,0,0,1-7.453-5.063,21.963,21.963,0,0,1-4.922-7.453,23.767,23.767,0,0,1,0-18.281,21.963,21.963,0,0,1,4.922-7.453,23.875,23.875,0,0,1,7.453-5.063,22.852,22.852,0,0,1,18.844.422,3.919,3.919,0,0,1,1.547,1.125,2.986,2.986,0,0,1,.7,1.969,3.1,3.1,0,0,1-.984,2.25,2.865,2.865,0,0,1-2.11.843,2.943,2.943,0,0,1-1.547-.422,17.024,17.024,0,0,0-7.453-1.687,17.272,17.272,0,0,0-6.609,1.266,16.8,16.8,0,0,0-9.141,9.14,18.641,18.641,0,0,0,0,13.5,20.745,20.745,0,0,0,3.656,5.344,18.48,18.48,0,0,0,5.485,3.8,17.272,17.272,0,0,0,6.609,1.266,16.373,16.373,0,0,0,9.281-2.813,3.064,3.064,0,0,1,4.5,0,3.358,3.358,0,0,1,.844,2.25,3.1,3.1,0,0,1-1.406,2.672,22.625,22.625,0,0,1-13.219,4.219h0Zm31.669-45v-0.282a4.074,4.074,0,0,1,.984-2.25,2.721,2.721,0,0,1,3.938,0,3.1,3.1,0,0,1,.984,2.25V537.3h8.438a15.8,15.8,0,0,0,11.531-5.2,17.341,17.341,0,0,0,3.516-5.625,18.75,18.75,0,0,0,1.265-6.891,18.389,18.389,0,0,0-1.265-6.75,18.763,18.763,0,0,0-3.375-5.625,17.991,17.991,0,0,0-5.063-3.8,15.907,15.907,0,0,0-6.187-1.547h-0.141a2.861,2.861,0,0,1-2.109-.843,3.544,3.544,0,0,1-.844-2.391,3.358,3.358,0,0,1,.844-2.25,2.666,2.666,0,0,1,2.109-.984,22.242,22.242,0,0,1,8.437,1.968,20.268,20.268,0,0,1,7.032,5.2A24.379,24.379,0,0,1,299.4,510.3a25.49,25.49,0,0,1,1.687,9.281A26.6,26.6,0,0,1,299.4,529a24.352,24.352,0,0,1-4.781,7.734,23.146,23.146,0,0,1-7.032,5.063,20.374,20.374,0,0,1-8.718,1.969H264.522v-45Zm53.325,0v-0.422a3.37,3.37,0,0,1,3.234-3.235h21.375a3.1,3.1,0,0,1,2.25.985,2.82,2.82,0,0,1,.985,2.25,3.1,3.1,0,0,1-.985,2.25,3.363,3.363,0,0,1-2.25.844h-18.14v14.906h18.7a3.368,3.368,0,0,1,3.234,3.234,2.817,2.817,0,0,1-.984,2.25,3.1,3.1,0,0,1-2.25.984h-18.7V537.3h18.14a3.358,3.358,0,0,1,2.25.844,3.1,3.1,0,0,1,.985,2.25,2.819,2.819,0,0,1-.985,2.25,3.1,3.1,0,0,1-2.25.984h-20.39a3.173,3.173,0,0,1-3.235-.844,2.811,2.811,0,0,1-.984-2.25V498.766Zm45.731,0.422v-0.563a3.368,3.368,0,0,1,3.234-3.234h21.8a3.264,3.264,0,0,1,2.391.984,3.363,3.363,0,0,1,.844,2.25,3.043,3.043,0,0,1-.844,2.25,3.256,3.256,0,0,1-2.391.984H370.188v15.188h18.984a2.821,2.821,0,0,1,2.25.984,3.1,3.1,0,0,1,.984,2.25,3.257,3.257,0,0,1-.984,2.391,3.046,3.046,0,0,1-2.25.844H370.188v17.578a3.157,3.157,0,0,1-1.126,2.109,2.819,2.819,0,0,1-2.25.985,3.37,3.37,0,0,1-3.234-3.235V499.188Zm65,44.578a19.861,19.861,0,0,1-15.469-7.172,26.388,26.388,0,0,1,.141-34.453,19.857,19.857,0,0,1,15.469-7.172q10.827,0,17.3,10.406l0.562,0.844v0.14l0.281,1.407q0,3.235-2.953,3.234a2.8,2.8,0,0,1-2.672-1.688q-4.782-7.874-12.515-7.874a14.789,14.789,0,0,0-11.391,5.343,19.386,19.386,0,0,0,0,25.172,14.372,14.372,0,0,0,11.25,5.344q11.249,0,13.781-12.235H423.372q-2.954,0-2.953-3.093,0-2.954,2.812-3.094h22.5q2.813,0.141,2.813,3.094l-0.141.422q-0.422,9.28-5.906,15.328a17.971,17.971,0,0,1-13.922,6.047h0Zm72.45-3.094q-0.141,3.094-3.094,3.094-3.235,0-3.234-3.094v-20.11H472.2v20.11a2.878,2.878,0,0,1-3.235,3.094q-3.094,0-3.093-3.094V498.766q0-3.234,3.093-3.235a2.879,2.879,0,0,1,3.235,3.094v15.609h22.5V498.766q0-3.234,3.234-3.235,2.954,0,3.094,3.094v42.047Zm28.856-39.094v36h1.828a2.878,2.878,0,0,1,3.094,3.234q0,3.1-3.094,3.094h-9.843q-3.237,0-3.235-3.094a2.877,2.877,0,0,1,3.094-3.234h1.828v-36h-1.687q-3.237,0-3.235-3.234,0-2.954,3.094-3.094h9.984q3.092,0.141,3.094,3.094,0,3.235-3.094,3.234h-1.828Zm25.2,36q7.595-.281,10.828-3.937a11.808,11.808,0,0,0,2.532-5.2,7.692,7.692,0,0,0,.281-2.11l0.14-1.406V498.344q0-3.091,3.094-3.094t3.094,3.094v28.547a22.2,22.2,0,0,1-1.125,5.062,16.778,16.778,0,0,1-3.375,5.906q-5.062,5.485-15.188,5.907H554.8q-3.094,0-3.094-3.094,0-3.234,3.094-3.234Zm65.56-41.484q2.53,1.971.421,4.5l-14.484,18,14.484,18q2.111,2.673-.421,4.64-2.532,2.11-4.641-.422l-15.891-19.828a3.557,3.557,0,0,1-.7-1.828,3.687,3.687,0,0,1,.563-2.812L616,496.516q1.968-2.532,4.641-.422h0Zm-25.172,47.812q-3.237,0-3.235-3.234V498.2q0-3.091,3.235-3.094,3.091,0,3.093,2.953v42.75q0,3.1-3.093,3.094h0Zm50.512-6.609H664.4q3.375,0,3.375,3.234t-3.375,3.235h-21.8q-3.236,0-3.234-3.235V498.2q0-3.375,3.375-3.375,3.092,0,3.234,3.234V537.3Zm81.872,2.812q0.28,3.237-2.531,3.657-2.673.422-3.094-2.672v-0.141l-3.8-29.812-9.562,28.125h-0.141a2.8,2.8,0,0,1-5.344,0l-9.562-28.125-3.8,29.812v0.141q-0.421,3.094-3.094,2.672-2.814-.423-2.531-3.657l5.2-42.047,0.281-.562v-0.281l0.422-.7,0.282-.282,0.562-.422,0.281-.281h0.141l0.422-.14h0.844l0.281,0.14,0.7,0.281,0.281,0.141,0.563,0.563,0.14,0.281,0.282,0.562,10.968,32.063,10.969-32.063h0.141a2.692,2.692,0,0,1,1.125-1.547h0.14l0.844-.281,0.141-.14h0.7l0.562,0.14,0.282,0.141,0.7,0.562a3.233,3.233,0,0,1,.984,1.828Zm54.028-44.437q3.092,0,3.094,3.094v26.578q0,3.094-3.094,3.094t-3.094-3.094V498.766q0-3.092,3.094-3.094h0Zm1.688,43.031q1.825,2.532-.7,4.359t-4.36-.7l-27.844-34.734v31.922q0,3.094-3.093,3.094t-3.094-3.094V498.906a2.815,2.815,0,0,1,.984-2.25l0.422-.281q2.39-1.825,4.219.7Zm40.247-1.547a15.894,15.894,0,0,0,11.812-5.062,17.563,17.563,0,0,0,4.922-12.516,17.086,17.086,0,0,0-4.922-12.375,16.171,16.171,0,0,0-23.766,0,17.081,17.081,0,0,0-4.921,12.375,17.558,17.558,0,0,0,4.921,12.516,16.047,16.047,0,0,0,11.954,5.062h0Zm0-41.625a21.638,21.638,0,0,1,16.171,7.031,24.823,24.823,0,0,1,0,34.032,22.275,22.275,0,0,1-32.484,0,24.823,24.823,0,0,1,0-34.032,21.789,21.789,0,0,1,16.313-7.031h0Zm43.9,18.7h13.359v-0.14q7.311,0.141,7.594-6.891a5.047,5.047,0,0,0-1.406-3.937,6.816,6.816,0,0,0-3.8-1.688c-0.47-.092-0.985-0.187-1.547-0.281h-14.2v12.937Zm-3.375,29.532q-3.237,0-3.235-3.235V498.062q0-3.233,3.235-3.234h18q1.4,0.143,2.812.281a12.834,12.834,0,0,1,6.75,3.375,10.049,10.049,0,0,1,2.391,3.235,13.719,13.719,0,0,1,1.125,5.625Q895,520.7,881.359,520.7h-13.64v19.828q0,3.237-3.375,3.235h0ZM944.809,529.7a16.741,16.741,0,1,0-4.64,3.656l-3.938-5.906q-1.55-2.389.844-4.078,2.53-1.546,4.078.844Zm-12.375-34.172a22.971,22.971,0,0,1,16.032,39.375l2.812,4.078q1.546,2.532-.844,4.078-2.531,1.689-4.218-.843l-2.532-3.8a22.414,22.414,0,0,1-11.25,2.953,22.061,22.061,0,0,1-16.172-6.75,21.761,21.761,0,0,1-6.75-16.172,23.047,23.047,0,0,1,22.922-22.922h0Zm56.7,28.828a3.1,3.1,0,0,1,2.672,1.407l10.544,12.515c1.41,1.6,1.31,3.094-.28,4.5s-3.092,1.312-4.5-.281l-10.828-12.8a3.589,3.589,0,0,1-.844-1.828v-0.422q0-3.091,3.234-3.094h0Zm-11.953-9.843h13.078v-0.141q7.173,0.141,7.313-6.75a5.047,5.047,0,0,0-1.406-3.937A5.928,5.928,0,0,0,992.65,502a9.683,9.683,0,0,0-1.547-.141h-0.562v-0.14h-13.36v12.8Zm-6.328,3.093V498.625q0-3.234,3.234-3.234h16.032V495.25h1.406a22.975,22.975,0,0,1,2.672.422,13.344,13.344,0,0,1,6.613,3.234,10.908,10.908,0,0,1,2.25,3.375,12.75,12.75,0,0,1,1.12,5.485q-0.42,13.219-13.639,13.218h-0.422l0.14-.14H977.181v19.547q0,3.236-3.094,3.234-3.236,0-3.234-3.234V517.609Zm62.187-16.171a5.109,5.109,0,0,0-3.66,1.687,7.968,7.968,0,0,0-1.97,6.328q0.285,6.893,9.71,7.031h3.51a13.535,13.535,0,0,1,9.56,3.516q4.365,4.08,4.08,10.969-0.285,7.876-5.62,10.828a12.1,12.1,0,0,1-4.78,1.687,32.027,32.027,0,0,1-4.5.282h-11.82q-3.09,0-3.09-3.235,0-3.091,3.09-3.093h9.71q10.125-.139,10.4-6.75c0.19-3.376-.94-5.672-3.37-6.891a6.012,6.012,0,0,0-2.67-.844l-0.99-.141-4.64-.14a20.124,20.124,0,0,1-4.22-.422,17.854,17.854,0,0,1-4.92-1.688q-5.775-3.232-6.05-10.687a13.5,13.5,0,0,1,4.36-11.109,12.112,12.112,0,0,1,9-3.657h14.91q3.09,0,3.09,3.094,0,3.237-3.09,3.235h-16.03Zm70.34-6.047q3.225,0.141,3.23,3.093,0,3.237-3.37,3.235h-12.66v39.093h-0.14q0,3.1-3.23,3.094-3.375,0-3.38-3.234V501.719h-13.92q-3.375,0-3.38-3.235,0-2.952,3.24-3.093h33.61Zm50.79,0c2.06,0,3.1,1.032,3.1,3.093v27.844l-0.15.7a17.6,17.6,0,0,1-.98,4.922,18.581,18.581,0,0,1-3.52,5.906q-4.92,5.485-14.34,5.907h-0.98q-7.875,0-12.66-4.782a14.849,14.849,0,0,1-3.8-6.046,22.1,22.1,0,0,1-1.26-5.485l-0.28-1.125V498.484q0-3.091,3.09-3.093t3.09,3.093v26.578h0.14v1.407a18.69,18.69,0,0,0,.43,2.39,11.053,11.053,0,0,0,3.09,5.766q3.09,3.094,9,2.953,6.615-.281,9.98-3.937a11.786,11.786,0,0,0,2.54-5.2,7.929,7.929,0,0,0,.28-2.11v-1.406h0.14V498.484q0-3.091,3.09-3.093h0Zm57.12,0.562q2.955,0.986,1.83,3.8l-11.67,30.375q-1.125,2.673-3.94,1.687-2.8-1.124-1.83-3.8l11.82-30.375c0.65-1.875,1.92-2.437,3.79-1.688h0Zm-15.32,43.031q1.11,2.815-1.69,3.8-2.82,1.128-3.94-1.687l-16.45-41.344q-1.125-2.811,1.83-3.8c1.87-.749,3.14-0.187,3.79,1.688Zm77.79-43.453q3.225,0.421,2.81,3.657l-5.9,41.906a3.283,3.283,0,0,1-.99,1.828l-0.98.562v0.141h-0.14l-0.99.141h-0.42l-0.28-.141-0.85-.281-0.28-.141-0.56-.562-0.28-.282-0.28-.562-12.38-31.922L1240.01,541.8h-0.14a2.56,2.56,0,0,1-1.27,1.547h-0.14l-0.84.281-0.28.141h-0.42a2.735,2.735,0,0,1-3.1-2.672l-5.9-41.906q-0.435-3.234,2.81-3.657,2.955-.421,3.51,2.672l4.22,29.813,10.83-27.985a2.573,2.573,0,0,1,1.83-1.828l1.12-.281,1.13,0.281a2.978,2.978,0,0,1,1.97,1.828l10.83,27.985,4.07-29.813q0.57-3.091,3.52-2.672h0ZM1328.35,538c1.41,1.969,1.17,3.61-.7,4.922q-2.955,1.968-4.93-.844l-10.68-15.187q-1.98-2.812.84-4.922,2.955-1.968,4.92.843Zm-35.44-37.125q-1.965-2.811.85-4.781,2.805-2.109,4.92.844l10.54,15.187q2.115,2.814-.84,4.781-2.82,2.109-4.78-.844Zm30.1-3.937q1.965-2.953,4.78-.844,2.955,1.971.84,4.781l-10.55,15.187q-2.1,2.953-4.92.844c-1.87-1.312-2.16-2.9-.84-4.781Zm-19.27,25.874q2.115-2.811,4.92-.843,2.955,2.109.85,4.922l-10.55,15.187q-2.115,2.811-4.92.844-2.955-1.968-.85-4.922Zm59.51-2.109a3.564,3.564,0,0,1,.71,2.109v17.86c0,2.063-1.04,3.094-3.1,3.094s-3.09-1.031-3.09-3.094V523.516l-14.2-24.047c-0.66-1.969,0-3.281,1.96-3.938q2.82-.983,3.94,1.969Zm12.94-24.891c1.97,0.752,2.62,2.11,1.97,4.079l-9.14,15.468q-0.99,2.953-3.94,1.969c-1.97-.749-2.62-2.109-1.97-4.078l9.14-15.469q0.99-2.954,3.94-1.969h0Zm51.36,41.766q3.09,0,3.09,3.094t-3.09,3.094h-20.11q-3.105,0-3.1-3.094t3.1-3.094h20.11Zm3.23-41.2,0.28,0.281q1.83,2.532-.7,4.36l-30.8,41.343c-1.68,1.22-3.14.985-4.36-.7s-0.98-3.14.71-4.359l25.59-35.719h-21.52q-3.09,0-3.09-3.094,0-3.232,3.09-3.234h28.41a3.067,3.067,0,0,1,2.39,1.125h0Z"/>
  <path id="logo" class="cls-1" d="M706.266,1194.7a45.969,45.969,0,0,0-.118,5.15v5.16H677.555v-1.17l0.234-.94-1.406-.24c-1.1,0-2.659-.07-4.688-0.23h-3.281l-0.469,2.58a45.646,45.646,0,0,1-1.172,4.92,22.619,22.619,0,0,1-1.406,4.22,7.125,7.125,0,0,0-.82,2.23,6.584,6.584,0,0,0,2.109-.71c1.326-.54,2.615-1.13,3.867-1.76a11.566,11.566,0,0,0,3.516-2.81l1.641-1.64h66.8l1.875,1.88a14.477,14.477,0,0,0,3.75,2.81c1.406,0.62,2.655,1.17,3.75,1.64a1.036,1.036,0,1,0,1.171-1.17,17.1,17.1,0,0,1-1.406-3.99q-0.7-2.34-1.172-4.68a11.9,11.9,0,0,0-.7-3.05c0-.47-1.252-0.62-3.75-0.47-1.875.16-3.281,0.23-4.219,0.23a2.052,2.052,0,0,1-.937.24c-0.315,0-.469.31-0.469,0.94l0.235,0.93-13.594.24q-13.359,0-13.36-.24a2.838,2.838,0,0,1,.7-1.05,6.664,6.664,0,0,0,1.171-2.46,15.728,15.728,0,0,0,.469-4.22v-2.58h-4.687Q706.382,1194.46,706.266,1194.7Zm-31.289,28.12v4.22l21.093,0.23h21.094l-5.859,4.93q-5.4,4.215-8.2,6.56l-2.344,1.87v6.8H660.445v4.22h40.313v14.76c0,10.01-.158,15.47-0.469,16.41a13.152,13.152,0,0,1-1.172,3.05,21,21,0,0,1-2.578,3.04,16.962,16.962,0,0,1-3.75,2.82c-1.406.62-2.109,1.17-2.109,1.64s0.153,0.7.468,0.7a30.375,30.375,0,0,0,3.047-.47,34.353,34.353,0,0,0,4.922-1.4,16.4,16.4,0,0,0,4.688-1.88,11.74,11.74,0,0,0,3.515-2.34,12.264,12.264,0,0,0,2.344-2.58,13,13,0,0,0,1.172-2.58c0.311-.94.469-6.4,0.469-16.41v-14.76h38.2v-4.22h-38.2v-6.8l2.109-1.64q2.109-1.635,8.438-6.79,6.327-5.4,8.437-7.04a13.637,13.637,0,0,0,2.578-2.34q0-.225-28.828-0.23t-29.062.23h0Zm121.64-30.23-0.469,1.87a27.635,27.635,0,0,1-1.523,5.74c-0.861,2.43-1.681,4.65-2.461,6.68q-1.176,2.58-3.281,6.8-1.88,3.75-4.453,8.44-2.11,3.75-4.688,7.73-2.582,4.215-3.047,4.92a7.818,7.818,0,0,0-1.406,2.11c-0.157.47-.117,0.71,0.117,0.71a8.252,8.252,0,0,0,2.227-1.18q1.873-1.17,3.515-2.34,1.874-1.41,3.985-3.28a59.714,59.714,0,0,0,4.453-4.45l2.109-2.35,0.235,14.77,0.234,14.76h1.875a5.862,5.862,0,0,0,3.047-.7,5.457,5.457,0,0,0,1.875-1.17,11.374,11.374,0,0,0,1.406-1.64l0.469-.71h27.187v2.11l0.235,2.11h1.64a7.437,7.437,0,0,0,2.813-.47,9.072,9.072,0,0,0,2.109-1.17,4.666,4.666,0,0,0,1.407-1.64l0.7-.94h31.64v-4.45H838.336v-6.8H868.57v-4.45H838.336v-6.8H868.57v-4.68H838.336v-7.5H868.57v-4.69H837.164l0.938-1.17a23.668,23.668,0,0,0,1.406-2.35,6.445,6.445,0,0,0,.7-2.57,17.74,17.74,0,0,0,.469-4.93v-3.51H828.727v14.53H815.6q-13.129,0-13.125-.23c0-.16-0.158-0.24-0.469-0.24s0.311-1.41,1.875-4.22a69.182,69.182,0,0,0,3.281-7.5,16.732,16.732,0,0,0,1.406-3.98l0.235-1.17H796.617Zm31.406,22.03v7.5H802.477v-7.5h25.546Zm0,12.18v6.8H802.477v-6.8h25.546Zm0,11.25v6.8H802.477v-6.8h25.546Zm-3.515,16.88v5.16l-22.969.23H778.805v4.45h45.7v1.64c0,1.1-.081,1.64-0.235,1.64a40.222,40.222,0,0,1-4.687-1.17q-4.455-1.17-4.922-1.4-0.236,0-6.328,4.68-6.1,4.935-7.734,6.1-1.643.93-4.454,2.58a58.967,58.967,0,0,1-5.39,2.57q-2.812,1.185-5.391,2.23a35.226,35.226,0,0,1-5.859,1.76,17.416,17.416,0,0,0-3.047,1.05,6.06,6.06,0,0,0,1.289,1.06,3.994,3.994,0,0,0,1.992.94c0.469,0,2.344-.32,5.625-0.94s6.328-1.33,9.141-2.11q4.449-1.17,8.2-2.35a22.822,22.822,0,0,0,4.922-2.1q1.637-.945,9.14-6.1t7.618-5.04q0.115,0.12.117,13.48v13.12h1.406a7.357,7.357,0,0,0,2.813-.7,6.692,6.692,0,0,0,3.046-1.99,11.184,11.184,0,0,0,2.11-3.17,8.733,8.733,0,0,0,.586-2.34q0.115-1.17.117-6.33c0.154-4.68.271-7.11,0.352-7.26s1.442,0.55,4.1,2.11q3.982,2.1,6.8,3.51a34.945,34.945,0,0,0,6.328,2.58,54.282,54.282,0,0,0,6.328,1.64,52.974,52.974,0,0,0,5.625.94c1.718,0.16,4.219.23,7.5,0.23a38.521,38.521,0,0,0,5.86-.23,1.37,1.37,0,0,0,1.171-.94l0.235-1.17c0-.15-0.235-0.24-0.7-0.24-0.315,0-1.722-.23-4.219-0.7s-5-1.01-7.5-1.64q-3.516-.93-6.8-2.11-2.812-.93-5.625-2.11-2.346-1.17-10.078-6.33l-7.734-5.15,19.453-.24h19.453v-4.45H854.977l-20.157-.23v-2.58l-0.234-2.58H824.508Z"/>
</svg>
