<svg xmlns="http://www.w3.org/2000/svg" width="1540" height="1450" viewBox="0 0 1540 1450">
  <defs>
    <style>
      .cls-1 {
        fill: #fff;
      }

      .cls-1, .cls-2, .cls-3 {
        fill-rule: evenodd;
      }

      .cls-2 {
        fill: #fefefe;
      }

      .cls-3 {
        fill: #fdfdfd;
      }
    </style>
  </defs>
  <path id="字体名称" class="cls-1" d="M118.914,222.289a141.382,141.382,0,0,1,33.4-3.711q5.077,0,5.469,4.883,0.779,11.718.781,23.437,0.193,5.861-4.687,5.86-13.871-.192-27.734.195-9.573,1.758-9.766,9.961,1.758,6.446,7.422,6.641a19.264,19.264,0,0,0,7.812-.391q8.007-1.363,21.485-2.539,5.859,0.587,5.859,5.273,0,14.457-.976,28.907-0.981,5.859-5.665,5.859-27.539-.586-55.078.195-6.056-.192-14.258,4.3-10.941,7.617-2.93,14.649a27.117,27.117,0,0,0,8.984,1.367q59.958-12.5,116.016-6.25,18.355,2.343,31.25,7.812,14.841,6.836,25.2-14.257,0.39-3.708-2.93-4.883-39.065-1.758-78.124-2.93-5.86,0-6.446-4.687-0.783-15.037-.781-30.079,0-4.687,4.883-4.687l24.8,0.586q8.79-1.95,7.618-7.813,0.192-3.121-3.516-5.273-7.814-2.93-28.125-1.758-5.859,0-5.859-4.883,0-12.108.781-23.632,0.389-5.86,5.469-5.86,13.476,0.2,26.757.977a7.729,7.729,0,0,0,6.446-4.688q3.122-7.617-6.25-9.57-44.925,1.954-78.711-1.367-8.4-2.148-15.235,6.836-4.884,9.96,6.641,11.523h0Zm234.57-19.141q0.779,4.1-3.906,4.1-13.284-1.758-20.117.391a11.017,11.017,0,0,0-8.984,8.789q0.192,5.081,3.515,6.25a22.394,22.394,0,0,0,5.664.39,172.551,172.551,0,0,1,20.313-3.906q5.859-.587,6.445,2.539,0,2.929-4.883,2.93-7.814.585-9.375,7.422,1.561,7.617,10.156,5.859a84.864,84.864,0,0,1,16.6-1.367q4.688,0,5.078,3.32-0.2,3.128-4.883,3.125l-18.554.391q-15.042-.39-11.328,15.82,0,17.579,15.039,13.477a136.143,136.143,0,0,1,14.453-1.758q4.688,0,4.687,3.125-0.393,3.126-5.273,3.125a129.764,129.764,0,0,0-29.3,1.953q-5.859,1.954-6.25,5.469-1.37,4.1,4.3,6.64a8.154,8.154,0,0,0,3.906.586,173.084,173.084,0,0,1,26.172-3.515q4.688,0,4.3,3.32-0.586,3.126-5.274,3.125-13.087.587-26.172,1.758-14.456-.192-19.531,1.953-8.2,7.031-5.469,13.281,4.881,6.253,15.235.781a91.856,91.856,0,0,1,31.25-6.835q5.859,0,2.148,5.078-13.476,13.476-30.859,16.211-8.012,1.368-5.664,8.984,2.343,5.274,6.445,5.859,29.883-3.126,44.336-30.468,2.537-5.861,7.227-6.055,28.514,0,52.539,11.133,9.96,4.884,18.359-8.2,1.562-1.758.2-4.883-0.585-.779-6.445-1.953-39.651-6.053-62.109-6.641-4.687,0-3.907-3.516,0.193-2.929,5.274-2.734a242.865,242.865,0,0,1,26.953,3.711q11.719,2.541,11.914-8.789-0.783-3.516-5.273-3.711a264.135,264.135,0,0,0-31.641-2.344q-5.859-.389-5.664-3.515,0.587-2.931,5.273-2.93a76.9,76.9,0,0,1,14.454.586q12.889,3.126,15.82-9.18a15.841,15.841,0,0,1,1.367-7.812q0.975-7.032-5.859-10.157-8.6-2.147-24.219-1.757-4.687,0-4.688-3.125,0.39-3.123,5.079-3.125,9.96,0,19.921.586,5.274,0,6.641-4.493,1.172-4.293-4.687-6.25a49.077,49.077,0,0,0-7.227-.586q-5.859-.192-5.273-3.711a4.915,4.915,0,0,1,5.468-3.906q10.35,0.587,20.7,1.953,4.491,0,9.18-4.687,5.274-6.249-2.734-8.4-11.329-.192-22.656.2-5.861,0-5.274-3.711-0.2-8.007-7.422-8.985-6.839,1.369-6.64,6.836-0.394,6.057-5.274,6.055H372.82q-4.687,0-5.468-5.078-1.758-9.567-10.352-7.227-4.884,3.324-3.516,8.2h0ZM288.25,222.094l7.812,2.539a49.132,49.132,0,0,1,7.813,3.125q4.491,3.126,8.4.195,3.123-5.076-1.367-9.18a24.948,24.948,0,0,1-5.664-4.882q-8.4-11.912-19.14-4.3-8.011,8.2,2.148,12.5h0Zm94.336,2.734H373.8q-4.687,0-5.274-3.711,0-3.708,4.688-3.711h12.305q4.293,0,3.711,4.1-0.783,3.516-6.641,3.32h0Zm-8.594,31.836q0,3.324-4.883,3.32a82.06,82.06,0,0,1-14.843.2q-1.173-.587-1.758-3.321-0.2-2.146,5.078-2.929a88.686,88.686,0,0,1,15.43-.977q0.975,0.2.976,3.711h0Zm33.2-.391a3.816,3.816,0,0,1-.781,2.735q-3.909,1.368-14.062.39-5.861,0-5.86-3.32t4.883-3.32a64.083,64.083,0,0,1,9.766.39q5.859,1.173,6.054,3.125h0ZM281.609,271.117q8.79-.389,24.024,1.758,4.688-1.172,3.32-6.055-0.393-2.929-4.687-4.882a51.1,51.1,0,0,1-7.813-3.516q-6.445-4.491-9.765-4.3-6.84.393-11.329,7.813-2.738,7.227,6.25,9.179h0Zm2.93,42.188q-8.4,5.47-8.008,9.57,6.249,15.624,17.188,6.445a81.474,81.474,0,0,1,7.226-11.718,68.081,68.081,0,0,0,9.766-15.625q2.929-7.224-4.1-7.227-4.3,1.368-8.593,6.641Zm105.273-1.758q-1.565,6.253,11.719,18.164,12.3,11.521,21.485,12.305,8.005-1.566,8.2-8.594a7.342,7.342,0,0,0-4.1-7.227,88.105,88.105,0,0,1-31.25-15.625q-1.758-1.758-4.883-.195a1.754,1.754,0,0,0-1.172,1.172h0ZM554.461,199.438l1.367,6.445q0.39,4.1-4.883,4.1-41.409-.585-56.836,4.493-2.343,1.756-4.492,7.226l-1.953,7.813q-7.228,23.831-4.883,33.789,2.733,6.838,9.571,5.078,5.273-2.733,5.859-9.18a99.667,99.667,0,0,1,1.367-19.531q1.172-11.521,7.813-14.453,8.592-2.536,23.437-3.321,62.888-1.363,87.5,1.954,8.2,0.585,10.352,6.054a45.7,45.7,0,0,1,3.711,15.625,48.953,48.953,0,0,0,2.734,15.625q5.466,12.3,12.7,2.149,4.491-7.81-1.172-19.532a43.2,43.2,0,0,1-2.734-17.968q-5.859-14.649-22.461-15.039-23.437-.975-46.875-0.586-4.687,0-4.1-4.688,4.1-8.788-1.954-14.453-5.667-3.708-12.7-.391-4.3,3.516-1.367,8.79h0Zm-33.594,52.734q1.562,3.713,7.227,3.711,11.521-2.345,33.984-2.93,19.337-.975,30.274,1.953,10.935,3.127,16.406-6.25,3.121-6.248-3.906-7.812-4.3-1.173-13.282-.782a433.619,433.619,0,0,1-50.976.586q-9.572-1.172-13.672.977-7.032,4.5-6.055,10.547h0Zm-20.7,22.266q-4.687,6.839,2.539,10.546a35.934,35.934,0,0,0,16.211-1.562,211.235,211.235,0,0,1,34.961-3.125q5.859,0.586,6.445,6.445a305.287,305.287,0,0,1-.39,31.641q-1.566,13.284,1.758,22.07,2.343,6.446,7.226,5.078,6.249-5.08,5.469-13.867-0.587-23.437.195-46.289,0.587-4.687,5.274-4.687a104.441,104.441,0,0,1,28.71,4.687q9.375,5.081,15.626,1.758,9.567-6.834,11.328-13.477,0.585-2.535-3.321-3.515-74.025-3.32-117.578-1.953-7.617-.39-14.453,6.25h0Zm-0.391,56.445q-4.3,4.491-1.562,6.836a4.313,4.313,0,0,0,4.883.781,107.365,107.365,0,0,0,23.437-16.992,91.167,91.167,0,0,1,13.477-10.352q2.535-2.93,2.148-5.664-5.08-19.335-16.211-5.859a287.048,287.048,0,0,1-26.172,31.25h0Zm98.243-23.242q13.083,18.163,25.39,29.3,8.2,4.88,19.532-3.321,5.859-5.08-4.493-10.156-14.846-9.375-31.054-21.875-8.4-7.617-12.891-3.32-1.368,3.909,3.516,9.375h0ZM758.953,199.633q-0.98,4.1-.391,15.234,0,5.082-4.3,5.078-11.133,0-27.539.977a141.648,141.648,0,0,1-18.75,1.172q-11.527-1.561-13.477,9.375-0.393,10.158,1.562,29.883,0.779,12.3,5.665,16.992,3.515,2.93,10.351,1.367,13.866-4.294,41.211-3.125,5.859,0.393,5.859,5.078,0,22.659-.976,45.313-1.37,11.718,5.859,15.039a4.133,4.133,0,0,0,4.688.195q6.637-5.471,5.469-16.211-0.783-22.266-.782-44.531,0-4.687,4.883-4.688,10.35-.192,20.508.2,19.336,1.368,27.93-.977,5.465-2.146,6.445-14.258,0.192-10.547,1.172-20.508,3.121-16.209-10.742-18.945a298.316,298.316,0,0,0-45.313-2.344q-3.909,0-3.906-5.468,2.146-11.523-2.735-18.165-3.515-3.707-7.812-1.757-4.884,2.93-4.883,5.078h0Zm0,38.672V257.25q0,5.859-4.687,5.859-18.361.783-36.719,0.782-6.446,1.171-8.008-6.055V244.75q0.192-6.638,4.688-8.789,16.013-2.93,39.843-2.539,4.879,0,4.883,4.883h0Zm58.594,0.195a23.22,23.22,0,0,1,1.172,5.664v11.914q-1.758,6.254-6.446,7.031H778.484q-5.272,0-5.273-5.273-0.2-9.962.195-19.336,0-4.879,4.883-4.883a332.345,332.345,0,0,1,34.375,1.367q3.9-.585,4.883,3.516h0Zm91.015-27.93-8.593-.39a11.884,11.884,0,0,0-11.719,1.562,11.668,11.668,0,0,0-3.711,5.664q-0.2,8.012,9.766,6.641,6.834-.779,13.672-0.977,4.688,0,1.171,4.688-11.132,10.355-22.265,14.453-10.941,4.3-9.375,10.156,4.1,6.057,9.18,4.492,12.106-3.121,22.07-13.281,4.688-4.687,4.687.391-0.98,13.871,1.367,18.554,1.365,1.956-3.32,1.954-9.96-.778-16.6,1.757-3.324,2.541-3.321,5.86,2.148,8.6,10.742,5.664,11.912-1.365,36.524-1.172,8.98-2.733,3.32-9.961-4.5-1.758-14.258-1.953-3.712,0-2.343-5.469a112.755,112.755,0,0,0,.781-19.922q0-4.491,3.516.391a13.825,13.825,0,0,1,1.953,3.906q5.076,11.526,13.281,5.274,4.88-8.982-4.883-14.649-8.01-5.859-12.695-3.906-0.98.783-.977-3.32t4.883-4.1h3.906a33.008,33.008,0,0,0,7.813-.586q4.879-2.343,4.3-6.25-1.758-5.076-5.664-4.687a48.155,48.155,0,0,0-8.594-.782q-5.859,0-5.86-4.687,0.193-8.4-7.421-10.352-6.445.979-6.641,9.18,0,5.859-4.688,5.859h0Zm84.766-2.929q-0.393,5.859-5.078,5.859l-10.938-.391q-9.571-2.535-17.578,4.493-3.126,3.514-.586,7.031,2.148,2.541,6.641,2.734,10.738-1.56,21.484-2.344,5.86-.192,5.86,3.907t-4.883,4.1l-21.68.391a38.824,38.824,0,0,0-8.984.976q-8.986,3.516-7.617,10.352,2.343,4.3,8.008,4.1a252.447,252.447,0,0,1,28.515-3.711q6.638-.194,6.641,3.906,0,4.688-4.883,4.687l-18.359-.2q-5.667.394-8.789,3.125-5.86,7.425,2.343,11.133a22.544,22.544,0,0,0,10.157-.391q6.834-.975,13.671-1.367,5.86,0,5.86,4.688v57.031l0.781,6.054q1.172,8.2,8.006,6.25,5.475-5.272,4.1-13.671-0.195-11.133.2-22.266,0-4.687,6.05-.977,10.155,9.183,20.51,27.149,5.67,9.178,15.43,7.617,9.96-1.566,12.89-7.031,0.585-1.566-5.86-6.445-14.25-8.4-29.1-24.61-5.475-4.687.78-6.445l15.63-4.688q9.375-2.929,3.32-12.109-1.965-2.537-3.52-2.93-3.315-.192-8.79,3.516-7.02,3.516-14.06,7.617-5.865,3.126-9.57,1.563c-2.48-.26-3.71-1.954-3.71-5.079V269.164q0-4.293,5.47-4.3a83.2,83.2,0,0,1,11.33,1.367q13.08,4.886,15.43-11.328,0.975-5.859,1.95-5.859,10.35,7.03,18.36-2.93,7.41-7.421,2.34-10.156-7.425-.779-14.26-0.977c-4.03-.128-5.86-1.757-5.46-4.882q4.095-7.421-.4-12.305-7.425-4.491-29.49-4.3c-3.12,0-4.69-1.562-4.69-4.688q0.78-9.375-4.68-13.085-5.864-2.537-8.6,6.054Zm33.592,23.242q0,2.929-4.69,2.929l-9.96-.39c-3.9,0-5.86-1.563-5.86-4.688,0-2.993,1.57-4.62,4.69-4.882a53.455,53.455,0,0,1,12.5,1.171q4.29,1.37,3.32,5.86h0Zm-0.39,18.945q-1.17,3.713-6.25,3.711h-8.01c-3.9,0-5.86-1.431-5.86-4.3s1.63-4.3,4.89-4.3l9.37,0.391q6.06,0.587,5.86,4.492h0Zm-65.038,37.5q11.133,2.738,16.211,5.664,5.662,2.929,8.985,1.172,4.1-4.491-.2-8.789-15.82-15.426-24.609-8.789-6.446,4.5-.391,10.742h0Zm-81.445-.781q-4.1,4.5-1.172,9.18,4.295,4.1,14.258.39a125.118,125.118,0,0,1,13.476-1.953q5.86-.192,6.25,4.883l-0.39,30.859q1.171,10.154,6.25,11.133,4.688-.2,5.664-4.3l0.976-7.812q0-15.235.586-30.469,0.587-4.687,5.274-4.492a77.543,77.543,0,0,1,10.937.781q7.224,0.587,11.328-3.516,7.617-7.617-2.539-8.984-29.883,0-59.179.586a19.948,19.948,0,0,0-11.719,3.711h0Zm4.3,33.2q-9.962,7.425-.2,14.258,9.962,2.733,16.8-11.719a50.281,50.281,0,0,0,6.836-15.625q0.779-3.121-2.343-5.273-1.566-.975-6.836,4.1a81.975,81.975,0,0,1-14.258,14.258h0Zm47.07-7.422a73.031,73.031,0,0,1,7.422,11.719q5.662,9.375,12.109,3.906,6.052-6.445-1.757-14.258-8.2-8.2-15.626-10.937-5.081-2.344-6.835,2.344,0,1.172,4.687,7.226h0Zm28.125,6.055q-8.012,3.323-3.32,14.453,4.491,8.98,10.547.976l14.648-15.429q10.35-10.154,6.836-14.844-1.566-1.758-5.469-.195-14.062,11.329-23.242,15.039h0Zm188.671-112.3-14.45-.781a23.058,23.058,0,0,0-15.63,1.562q-4.875,2.737-5.08,7.032a5.373,5.373,0,0,0,3.72,5.078q2.925,1.954,9.76.195,11.52-1.171,22.85-1.562,4.89,0,5.08,2.734,0.195,3.126-5.47,2.93-37.11-.975-57.03,1.172a20.789,20.789,0,0,0-14.06,5.468,7.576,7.576,0,0,0-2.15,5.469q1.95,8.4,11.13,5.859a327.518,327.518,0,0,1,63.28-7.031q4.695,0,4.69,3.125,0,2.737-5.86,2.734l-27.54-.2q-6.84,1.37-8.98,4.492-1.95,3.127-1.37,4.883,2.925,6.84,9.18,6.055a251.909,251.909,0,0,1,29.88-3.125q4.695,0,4.69,2.93t-5.86,2.929h-25.78q-10.545,1.171-10.16,8.789c0.4,2.085,1.89,3.711,4.5,4.883q5.07,0.587,14.06-1.172a114.026,114.026,0,0,1,17.58-.976c3.38,0.131,5.08,1.434,5.08,3.906q0,2.151-5.28,2.148H1127.9q-14.46-3.318-23.44,4.3-3.12,2.929-2.93,5.86a6.049,6.049,0,0,0,3.52,6.054q5.265,1.37,16.79-1.953,31.455-6.248,80.28-1.562,11.715,3.712,18.94-8.008,0.975-3.122-2.73-4.492-23.445-.779-46.29,0c-3,0-4.49-1.105-4.49-3.321,0-1.69,1.62-2.539,4.88-2.539l20.7,0.586q5.475,1.171,8.79-1.562,4.695-6.637-2.34-9.18a221.3,221.3,0,0,0-27.54-1.172q-4.695,0-4.69-3.515,0-3.123,4.69-3.516a62.35,62.35,0,0,1,17.38,1.562q8.79,0.981,10.74-5.859l1.96-5.859q1.17-5.861,5.86-5.664a155.309,155.309,0,0,1,26.56,7.226q9.57,5.471,18.55-8.594,6.45-7.617-2.54-8.984l-39.84-.781c-3.78-.128-5.27-1.431-4.49-3.906q3.51-10.35-8.4-12.891a104.948,104.948,0,0,0-26.95-1.367c-1.05,0-1.5-.846-1.37-2.539q0-8.982-8.4-10.938-9.375,1.37-7.81,8.985,0.2,4.1-5.08,4.1h0Zm42.19,16.406q0,1.369-6.84,1.172l-11.33-.195q-4.68,0-4.68-3.32,0-3.123,5.07-3.125a42.207,42.207,0,0,1,12.9,1.367q4.68,1.566,4.88,4.1h0Zm0.19,14.063q-1.365,4.1-6.44,2.734l-10.94.391q-5.865,0-5.86-2.93,0-2.733,4.88-2.734h12.89q5.67,0.585,5.47,2.539h0Zm-73.04,63.476a157,157,0,0,0,.19,28.516q-0.78,8.789,5.67,12.891a20.649,20.649,0,0,0,6.83.781q21.69-4.884,63.09-1.758,9.18,1.172,14.45-6.836,1.56-4.3.98-15.429a123.055,123.055,0,0,1,1.56-14.454q-0.975-9.375-8.98-10.156-21.885-2.343-72.66-.781-9.96-.779-11.13,7.226h0Zm76.95,6.836q0.39,2.345-4.49,2.539-27.735.783-55.47,0c-2.87-.259-4.23-1.1-4.1-2.539q0.195-1.171,4.88-2.343,22.455-2.733,53.71-.782c3.25,0.653,5.08,1.694,5.47,3.125h0Zm0,17.383q-0.78,1.954-5.47,2.93-17.385-.192-33.98.195-11.535.586-22.27,0.195-4.875-7.222,2.93-5.664,23.235-1.364,54.49-.39,4.695,0.585,4.3,2.734h0Zm97.85-118.75q-7.815,2.541-7.62,8.2,2.16,6.254,6.84,6.25,5.865,0.394,15.63-7.031,7.41-6.051,11.71-5.664a113.667,113.667,0,0,1,32.82.781q4.1,1.566,12.3.2,6.06-4.687,3.71-9.375a9.714,9.714,0,0,0-7.03-2.149q-17.775-1.363-36.91-1.172-4.11,0-4.89-1.367-5.46-5.274-10.93,2.148-8.2,6.84-15.63,9.18h0Zm82.42,10.156q-8.985,6.643-4.68,11.719,4.29,1.566,8.79-1.367a32.371,32.371,0,0,0,7.61-7.031,7.806,7.806,0,0,1,3.71-2.149q20.9-5.859,39.46.977,6.825,2.541,11.52-3.32,7.23-12.108-6.64-10.743-16.605-.192-32.62.2c-2.99,0-4.56-.782-4.69-2.344a24.881,24.881,0,0,0-2.93-6.25q-7.215-7.032-10.35.781a33.278,33.278,0,0,1-9.18,19.531h0Zm-75.39,13.672q-15.81,0-21.48,4.1-4.7,6.056,2.34,9.18a15.694,15.694,0,0,0,9.77-.391,39,39,0,0,1,6.44-.977c2.87-.518,3.84.977,2.93,4.493a35.894,35.894,0,0,0-1.36,6.25q-2.94,8.789,7.61,9.765a129.93,129.93,0,0,1,22.85-1.953q6.645,0,1.18,4.688-8.79,3.323-5.08,9.179,4.485,5.274,9.18,2.93,2.73-.975.78,1.562-3.135,5.471,7.81,9.375,6.645,2.344,1.95,3.516a42.7,42.7,0,0,0-6.25,2.539c-4.16,2.084-5.99,4.755-5.46,8.008q2.73,6.642,12.69,7.226a94.219,94.219,0,0,1,15.82,2.93q5.865,1.758,6.25,6.446a69.087,69.087,0,0,0,.2,21.484q3.705,8.005,9.96,3.516,4.29-8.2,2.54-23.438-0.195-5.466,5.07-7.227a71.309,71.309,0,0,1,15.43-6.25q11.925-3.514,7.62-12.3-6.435-7.421-14.26-6.25c-2.34,1.953-3.06,3.906-2.14,5.859q0.975,2.738-3.72,5.078-11.13,4.3-31.64.782-3.9-.779,1.57-2.93,11.715-3.708,23.24-6.836a81.776,81.776,0,0,1,15.62-5.274q14.655-6.051,2.15-14.453-7.23-5.464-11.33-1.367a5.664,5.664,0,0,0-.58,5.86q0.585,1.368-4.1,3.124-12.9,4.1-22.46,2.93-5.865-.975.39-3.125,12.885-3.318,19.53-6.445,5.655-2.147,2.73-9.57-1.755-2.733,2.93-3.516a95.237,95.237,0,0,0,19.53-7.422q6.45-4.491,10.55-.781l21.68,20.9q10.155,3.909,18.75-2.343,7.425-5.274,2.54-8.985a183.448,183.448,0,0,1-35.35-17.969q-4.695-2.929-1.57-7.617a25.153,25.153,0,0,0,3.91-10.742q-2.535-9.567-9.76-5.859a5.872,5.872,0,0,0-2.35,4.3,30.826,30.826,0,0,1-1.76,7.618q-2.145,3.712-7.03.976a26.866,26.866,0,0,1-6.05-4.883q-9.375-5.272-15.43,2.149-2.94,8.2,6.83,8.594a20.965,20.965,0,0,1,5.67,1.172q6.045,2.343.78,4.882a31.58,31.58,0,0,1-15.04,3.125q-6.45-.585-4.49-1.172,3.315-1.95,3.71-3.906,2.535-8.005-7.42-8.2l-6.45-.781q-5.85-.192-4.3-5.274l1.18-2.539q0.78-9.567-10.16-11.132-20.31-.39-40.62-0.2-5.28,1.37-7.43,11.524-1.95,5.859-6.64,6.054h0Zm30.47-4.3q0.78,4.1-4.88,3.907h-4.3c-2.99,0-4.04-.977-3.12-2.93a9.171,9.171,0,0,1,7.61-4.688q4.5-.192,4.69,3.711h0Zm15.43,4.883c-2.73-.128-4.04-0.845-3.9-2.148a7.6,7.6,0,0,0-1.96-5.078q-1.365-1.173,2.93-.782,7.62,0,7.42,5.664c0,1.563-1.49,2.344-4.49,2.344h0Zm-20.31,9.961q-0.78.587-.78,4.688,0.39,3.909-4.3,3.906l-3.32-.2c-3.78-.129-5.4-1.627-4.88-4.493q0-5.859,7.81-4.492,5.865-.192,5.47.586h0Zm19.73,5.274q-1.575,3.515-5.86,3.515-3.135,0-3.32-3.515a11.9,11.9,0,0,0-2.74-4.688q-1.755-1.172,2.93-1.172a39.462,39.462,0,0,1,6.84.586q4.1,0.395,2.15,5.274h0Zm23.24-1.368c4.42,0.654,6.25,1.108,5.47,1.368q-6.06,2.929-1.18,8.984,1.95,1.758-1.95,6.445-8.205,6.642-21.68,9.375-6.645,1.954-2.34-3.125,3.315-5.076,8.4-2.929,9.18,2.151,10.74-4.883,0-7.224-8.4-8.985-1.755-.192-0.2-4.492,1.365-3.318,6.65-2.539Zm-63.87,90.039q2.535,6.052,6.05,5.86,7.035,0.585,15.63-4.1,16.215-7.617,21.68-15.82,0.195-8.4-7.42-4.1-10.155,4.885-26.56,7.618-12.51,1.758-9.38,10.546h0Zm114.65,4.883q9.765,4.879,19.53-8.984-0.39-6.249-7.81-6.25-10.545-1.95-31.25-8.4-7.815,0-3.91,6.25,8.6,8.2,23.44,17.383h0Z"/>
  <path id="中文示例" class="cls-2" d="M295.523,714.66a72.014,72.014,0,0,1,1.27,29.688q-3.126,13.575-17.188,22.949a64.231,64.231,0,0,0-7.031,4.785,3.045,3.045,0,0,0-.293,3.125q4,4.98,9.18,1.074,11.718-7.42,18.848-21.875,1.464-2.83,3.808-3.027,5.566-.975,17.774-0.293,3.222,0.292,3.125,3.027l-0.2,19.434a6.166,6.166,0,0,0,1.856,4q3.516,2.245,5.469-2.539,0.585-2.05.39-7.91-1.464-36.328.293-49.219,3.612-7.325-5.176-9.18-12.793-.195-25.293.293-5.079-.975-6.543,2.442a12.467,12.467,0,0,0-.293,3.222h0Zm29.688,3.125,0.195,6.25a2.507,2.507,0,0,1-2.344,2.735q-8.009.2-15.722-.1a2.618,2.618,0,0,1-2.735-2.93,21.946,21.946,0,0,0-.195-4.2,4.033,4.033,0,0,1,2.246-4.1,147.594,147.594,0,0,1,15.137-.683,3.7,3.7,0,0,1,3.418,3.027h0Zm-72.168,5.078q0.1,13.77.488,27.539,1.758,6.544,8.2,4.2,6.054-1.173,19.239-.391a5.749,5.749,0,0,0,4.882-4q0.781-2.05.391-6.738-0.1-7.713.586-16.9,1.659-5.467-2.539-8.2a29.2,29.2,0,0,0-7.813-1.172q-9.96,0-18.847.293-4.884,1.075-4.59,5.371h0Zm26.562,3.418,0.2,2.637q0.194,2.929-2.832,3.027l-14.356.1q-3.222-.2-3.222-2.637a6.1,6.1,0,0,0,.1-1.855,4.258,4.258,0,0,1,2.832-3.711,104.891,104.891,0,0,1,13.575-.488,4.076,4.076,0,0,1,3.71,2.929h0Zm45.606,10.547v4.981q0,2.343-2.539,2.441-7.911.293-15.82,0.1-3.127-.195-2.93-2.344a36.865,36.865,0,0,0,.39-5.176q0.294-2.929,2.637-3.125a137.771,137.771,0,0,1,15.137-.195q3.222,0.391,3.125,3.32h0ZM280,740.93l-0.195,2.441q-0.879,3.126-3.125,3.223l-11.035.683a12.989,12.989,0,0,1-4.493,0q-1.368-1.367-1.562-5.761a2.643,2.643,0,0,1,2.637-2.93q7.323-.195,14.648-0.1,3.224,0.294,3.125,2.442h0Zm97.266-4.1a39.841,39.841,0,0,1-3.614,16.016A35.5,35.5,0,0,1,362.32,767.3q-3.906,2.833-7.812,5.273-2.541,2.539-.684,4.688,4.688,4.491,10.938-1.074a33.807,33.807,0,0,0,7.324-7.422,70.763,70.763,0,0,0,8.691-14.649q1.173-2.93,3.516-3.125,10.642-.681,24.512-0.2,2.343,0.293,2.246,3.223-0.2,10.743-.1,21.484a6.96,6.96,0,0,0,1.172,3.027q4.3,4.1,6.641-1.953a30.13,30.13,0,0,0,.293-7.031q-0.978-25.291-.782-49.316,0.683-2.733,1.661-5.469a4.153,4.153,0,0,0-1.075-3.906A9.549,9.549,0,0,0,413,708.117q-15.626,0-30.957.293-8.2-1.171-6.641,7.129a77.827,77.827,0,0,1,1.856,21.289h0Zm33.105-21.582a40.419,40.419,0,0,1,.781,8.3q0.1,2.929-2.343,3.125a205.569,205.569,0,0,1-22.071,0,2.387,2.387,0,0,1-2.343-2.637V719.25a3.779,3.779,0,0,1,2.441-3.809q6.738-1.172,20.117-.683a11.977,11.977,0,0,1,3.418.488h0Zm0.879,21.094-0.1,5.176q0,2.343-2.539,2.441-11.035.391-22.07,0-2.929-.1-2.734-2.441a31.012,31.012,0,0,1,.293-4.395q0.1-3.222,2.343-3.32a207.352,207.352,0,0,1,21.875-.2q2.931,0.391,2.93,2.735h0Zm79.883-20.41q-0.392,6.738-.391,13.379,0.1,2.929-2.246,2.929-4.493.1-8.691,0.586-3.127.1-3.906-2.246a144.076,144.076,0,0,1-2.344-14.941q-1.075-4.2-4.492-3.614a2.353,2.353,0,0,0-2.344,1.758,29.22,29.22,0,0,0,.293,7.129q0.78,7.815,2.246,15.625-0.293,4.3,4.2,5.176a12.628,12.628,0,0,0,4.883-1.563,56.025,56.025,0,0,1,11.719-1.66q13.768-.389,22.168,1.66,5.468,3.42,8.593-3.613a26.293,26.293,0,0,0,1.856-9.765,28.89,28.89,0,0,1,2.051-7.813,4.994,4.994,0,0,0-.293-4.59q-2.541-3.417-5.371-.976a110.461,110.461,0,0,0-4.1,15.136,6.066,6.066,0,0,1-1.172,3.614q-0.489.489-3.418,0.39l-9.472-.293q-2.931-.194-2.93-2.539,0.879-11.326.293-16.7-1.465-4.687-4.883-3.125a6.289,6.289,0,0,0-2.246,6.055h0Zm-0.879,29.59a33.231,33.231,0,0,1-.879,9.277q-0.489,2.149-4.492,5.566-3.516,3.808-6.641,7.617a5.941,5.941,0,0,1-4.59,3.028q-4.1,1.171-4.687-2.637-1.172-5.663-1.953-11.328-0.2-8.788-2.637-11.719-5.079-2.83-5.762,2.93,0.488,5.859,1.368,11.719l2.539,15.625q-0.2,3.417,3.906,4.492a11.007,11.007,0,0,0,5.859-1.563q13.77-3.418,37.7-.976a19.356,19.356,0,0,1,7.812,2.148q4.3,1.562,6.738-2.344a15.817,15.817,0,0,0,2.246-6.738,110.322,110.322,0,0,1,3.614-15.625q2.93-4.687,1.172-7.812-1.956-2.929-3.516-2.344a3,3,0,0,0-2.734,1.953,180.5,180.5,0,0,0-6.055,21.387,5.023,5.023,0,0,1-4.492,2.929,4.345,4.345,0,0,1-4-2.441q-2.541-3.9-11.328-11.719a7.756,7.756,0,0,1-2.344-3.711,53.178,53.178,0,0,1,.195-6.445,8.688,8.688,0,0,0-.195-3.906q-1.857-4.882-4.785-3.125-2.442,1.855-2.051,5.762h0Zm4.3,15.82q3.025,2.834,6.445,6.348,2.344,2.929,0,2.929-6.543-.292-13.086-0.195-2.93-.1-0.195-2.832l2.051-2.246,1.66-1.953q2.343-2.345,3.125-2.051h0Zm68.75-45.215a2.226,2.226,0,0,0,.879,2.441,6,6,0,0,0,4.687.879q7.617-.681,15.137-0.976a2.388,2.388,0,0,1,2.637,2.343l0.488,8.5q0,2.343-2.93,2.441H570.426l-2.93.586q-3.614,1.171-3.32,4.785,0.193,1.076,2.441,2.539a13.01,13.01,0,0,0,3.321.293,86.43,86.43,0,0,1,14.355-1.269q2.538,0,2.246,2.148-1.466,9.766-12.207,17.285-12.891,8.5-23.437,10.352-3.516.684-2.637,3.711,2.146,6.446,7.031,5.078,8.007-2.442,19.531-10.352,10.156-7.324,14.16-14.551,1.173-2.343,3.711-.781a216.367,216.367,0,0,1,23.34,18.848,84.538,84.538,0,0,0,7.813,6.738q6.247,3.223,14.551-1.367,2.831-2.247,2.832-3.125a4.947,4.947,0,0,0-4.1-2.637q-12.3-3.612-27.344-13.867A66.2,66.2,0,0,1,593.18,742l0.293-1.953q0.389-1.466,2.734-1.465l15.234,0.391q3.027,0.39,4.493-1.172,2.147-3.417-1.563-5.274a27.51,27.51,0,0,0-3.906-.683H596.7q-2.343,0-2.343-2.442l0.2-10.644q0.292-.39,2.832-0.489,13.084,0.1,17.969-.2,5.955-4.687-1.368-6.64l-36.425.39-6.153-.781a6.352,6.352,0,0,0-5.371.976q-2.735,1.857-2.734,4.1h0Zm127.637,27.832q-0.879,5.274-9.18,14.551a56.233,56.233,0,0,0-5.566,7.129,4.2,4.2,0,0,1-3.809,2.246l-1.856.195q-3.418.49-4.1-1.66-2.051-8.3-2.149-28.32,0.587-6.445-4.2-7.813-1.662-.292-3.222,1.856a19.208,19.208,0,0,0-.489,6.347q0.487,16.7,2.93,35.84,3.516,5.175,8.594,2.246a13.019,13.019,0,0,1,3.906-1.269q14.158-2.637,33.5-1.27,10.35,0.488,15.625,2.637,5.762,2.245,8.5-4.492a26.439,26.439,0,0,0,1.367-7.813q0.39-15.82,2.832-25.293a6.914,6.914,0,0,0,.1-3.906q-1.563-4.1-4.98-3.418a5.763,5.763,0,0,0-3.223,5.176l-3.027,27.539a4.286,4.286,0,0,1-2.735,3.808,11.617,11.617,0,0,1-3.125,0,4,4,0,0,1-3.808-2.636A48.841,48.841,0,0,0,699.82,750.7a5.079,5.079,0,0,1-1.953-5.761q0.488-7.324.293-24.024l-0.293-3.515q-0.783-5.37-5.078-4.786-3.029,1.465-2.832,5.371-0.1,8.3.977,25.977h0Zm13.086,20.7q2.05,3.029-.391,2.93-8.009-.488-18.262-0.2-2.735.1-.781-2.54,3.222-3.9,6.738-7.812,2.246-1.953,3.418-1.465,3.612,1.955,9.278,9.082h0Zm118.261-53.906q0.587,1.27-1.758.976a9.1,9.1,0,0,0-7.226,1.563q-6.153,3.029-3.32,6.445a4.382,4.382,0,0,0,4.394.391,62.562,62.562,0,0,1,6.738-.977q2.733-.1,3.223,2.149a11.742,11.742,0,0,0,1.563,2.929,2.243,2.243,0,0,0,1.562.782q2.538-.195,2.441-3.516,0.294-3.025,2.637-3.418l3.32-.293a10.548,10.548,0,0,0,3.516-.683q1.953-1.465.1-3.711-1.758-1.269-6.934-.879-2.343,0-2.148-1.465a3.55,3.55,0,0,0-1.563-4.3q-3.808-2.05-6.445.977a2.489,2.489,0,0,0-.1,3.027h0Zm33.2,2.051a47.037,47.037,0,0,0-6.054,0q-2.248,1.172-2.442,2.832a2.824,2.824,0,0,0,1.367,3.222,11.389,11.389,0,0,0,3.418-.2l3.418-.195q2.148,0,1.856,2.539a4.262,4.262,0,0,0,.879,3.711q4,1.855,4.59-2.539,0.975-3.223,3.027-2.93,5.663,1.466,9.082,2.637,2.05,0.489,5.273-1.66,3.906-3.223,2.344-5.567a22.069,22.069,0,0,0-6.64-1.074q-3.712-.389-7.129-0.488-3.127-.1-2.344-1.27,1.464-2.637-2.149-5.176-4.785-1.367-5.664,3.516a2.533,2.533,0,0,1-2.832,2.637h0Zm-26.367,14.648q-13.281,6.057-23.437,6.738a7.612,7.612,0,0,0-4.395,2.149,2.584,2.584,0,0,0-.683,2.344q1.268,4.1,5.664,3.515a74.507,74.507,0,0,0,21.484-7.226q3.124-1.66,3.223-.879a3.567,3.567,0,0,0,3.418,2.344q5.859-.781,20.7-0.782,2.245-1.267,1.855-2.929-0.1-1.173,1.758-.293,7.032,3.713,12.891,7.519,3.9,2.736,7.714,5.859,4.883,1.857,10.547-.976,4.783-2.441,1.075-5.176a18.179,18.179,0,0,0-3.711-1.367q-13.477-4.3-39.063-16.406a12.958,12.958,0,0,1-3.808-2.539q-3.029-2.344-4.786,0a23.019,23.019,0,0,1-10.449,8.105h0Zm18.262,0.2,3.32,1.172q2.832,1.27,1.172,1.27l-12.012-.2q-5.763.585,0.293-2.247a4.918,4.918,0,0,1,2.539-1.367,11.973,11.973,0,0,1,4.688,1.367h0ZM825.5,742.3a18.009,18.009,0,0,1,.781,6.933q0.293,8.3-6.055,12.4a53.624,53.624,0,0,1-15.625,6.445,6.275,6.275,0,0,0-4.1,3.32q-1.465,4.59,3.808,5.274,7.618-.978,17.579-8.2a33.816,33.816,0,0,0,7.226-6.446q2.051-3.611,7.324-3.711,16.308-.681,22.071.293,4.1,1.077,5.957-3.613,0.487-6.738,1.074-10.254,1.465-5.468-3.223-6.25a176.3,176.3,0,0,0-33.593-.586q-4.395.978-3.223,4.395h0Zm32.617,1.465q0.293,0.489-2.051.683-9.96.294-19.922,0.1-2.929-.1-2.929-0.586,0-.683,2.246-0.977,8.592-.389,17.09-0.1a13.558,13.558,0,0,1,5.566.879h0Zm-0.1,7.519a1.828,1.828,0,0,1-2.246,1.367q-12.7-.293-19.922.2-2.929.1-3.222-.977-0.2-1.267,2.148-1.367,10.058-.586,20.215-0.293,3.125,0.391,3.027,1.074h0ZM830.191,767.59a38.627,38.627,0,0,1,2.832,8.008q1.366,7.617,7.129,4.785,5.957-2.249,16.211-.1,5.469,1.172,7.422-1.855a25.748,25.748,0,0,0,3.809-7.813q3.808-4.882-.586-7.324-2.149-1.074-7.813-1.758a212.014,212.014,0,0,0-25.586.2q-5.469,1.173-3.418,5.86h0Zm30.86,0.586a9.987,9.987,0,0,1-.684,2.734q-1.563,2.834-3.906,2.93a106.064,106.064,0,0,0-14.16.1,4.33,4.33,0,0,1-4.3-2.833q-0.587-3.026,1.855-3.613A142.117,142.117,0,0,1,857.633,767q3.222,0.587,3.418,1.172h0Zm60.84-53.711q0.78,2.929-1.758,2.734l-5.664-.586q-4.982.391-9.473,5.176a2.3,2.3,0,0,0,.977,3.223,5.021,5.021,0,0,0,4.687.39,58.568,58.568,0,0,1,10.742-1.074q2.052-.1,2.442,2.442a19.011,19.011,0,0,0,.976,3.906q0.975,2.343,3.125,1.66,2.539-1.953,1.953-6.543,0-2.05,2.637-2.441a23.667,23.667,0,0,1,3.711-.293q2.441,0.2,3.32-1.465-0.2-4.1-4.3-3.809l-3.711-.195q-2.149,0-1.856-2.735,1.953-6.444-5.078-6.543-5.471,1.857-2.734,6.153h0Zm37.011,0.293q-0.293,2.833-2.929,2.832H949.82q-2.834-.488-4,1.465-2.343,2.93,1.172,5.078a40.777,40.777,0,0,1,7.91-.977q3.027-.1,2.735,2.93a7.7,7.7,0,0,0,.879,5.078q1.464,1.466,2.636.684,1.854-1.269,2.54-5.274,0.681-2.929,1.074-3.125a40.7,40.7,0,0,1,9.277,2.149q4.588,1.955,9.277-3.907,1.366-2.732,0-3.418a111.065,111.065,0,0,0-15.136-.878q-2.442,0-1.075-3.223,1.758-2.246-.683-4.883-2.541-2.538-5.86-.391-2.05,1.956-1.66,5.86h0ZM906.949,736.73q-1.464,4.3,3.321,5.079a69.786,69.786,0,0,1,7.031,1.757q5.076,2.833,5.566-1.269a3.442,3.442,0,0,0-1.465-2.93,29.268,29.268,0,0,1-3.906-2.832q-3.126-3.417-5.859-2.832-3.712,1.27-4.688,3.027h0Zm40.723,5.079a113.9,113.9,0,0,1,20.019-.684q3.612-.488,3.321-3.223,0.293-1.952-2.051-2.636a25.472,25.472,0,0,0-5.762-.489l-10.156-.1q-5.567-.487-7.91,2.246-1.271,4,2.539,4.883h0Zm-18.555,12.3a3.071,3.071,0,0,0,3.125,1.172,41.6,41.6,0,0,1,4.883-.488q2.929-.195,2.93,2.734-0.879,10.646,1.367,15.821a9.72,9.72,0,0,0,8.887,5.566,200.578,200.578,0,0,0,24.414.391,5.6,5.6,0,0,0,5.371-3.028q1.171-3.612-3.125-4.785a55.09,55.09,0,0,0-8.594.684,59.451,59.451,0,0,1-17.871-.489,3.29,3.29,0,0,1-3.223-2.539,23.75,23.75,0,0,1,0-12.109,3.978,3.978,0,0,1,3.516-3.418h9.277q10.841,0.293,15.43,1.758,6.639,2.343,10.937-4.981,1.366-2.246-.781-2.929a17.873,17.873,0,0,0-3.808-.1q-28.125,1.171-44.434-.391-4.1-.293-5.859.977-4.2,3.029-2.442,6.152h0Zm-28.906,1.172q0.1,1.563,2.246,2.442,4.2,0.293,8.3.2,4.784,0.879,6.152-.2,2.246-2.931-1.66-5.079a18.1,18.1,0,0,1-3.906-1.269q-3.516-2.246-5.86-2.051-5.177,1.37-5.273,5.957h0Zm7.129,16.309q-3.42,2.929-.488,6.738,4.688,5.175,9.082-2.051,4.1-4.393,8.105-8.4,2.245-3.417,2.149-4.3a2.224,2.224,0,0,0-2.247-1.66,17.462,17.462,0,0,0-5.761,3.125q-6.642,4.98-10.84,6.543h0Zm113.38-56.543a30.692,30.692,0,0,0,7.91-.293c2.99-.26,5.96-0.391,8.89-0.391q2.73,0,3.12,1.856c0.06,1.367-.68,2.05-2.25,2.05q-10.74-.193-21.19.293-7.815-.194-8.88,5.957-3.615,9.766-2.15,14.844a3.848,3.848,0,0,0,2.93,2.246c2.21,0.2,3.55-.911,4-3.32l0.39-1.953a27.888,27.888,0,0,1,.88-8.2,4.313,4.313,0,0,1,3.42-2.735,115.854,115.854,0,0,1,20.41-1.562q2.34,0,2.25,3.027,0,6.936.39,13.77,0.2,3.713,2.05,4.394,1.845,1.076,3.02-.879a8.582,8.582,0,0,0,1.37-3.906q-0.195-7.126-.1-13.965a2.118,2.118,0,0,1,2.44-2.343q6.84,0.1,13.68.585c3.9,0.261,6.64.913,8.2,1.954a11.143,11.143,0,0,1,1.17,3.515,49.4,49.4,0,0,0,1.37,7.813c0.98,2.279,2.21,3.256,3.71,2.929a2.784,2.784,0,0,0,2.15-1.66,8.988,8.988,0,0,0,.58-6.836,13.161,13.161,0,0,1-.87-3.906q0.78-6.153-5.38-8.4a24.51,24.51,0,0,0-10.15-1.563q-7.23-.2-14.46-0.1-2.34,0-2.34-1.855c0.13-1.3,1.21-1.985,3.22-2.051h11.04a6.427,6.427,0,0,0,4.39-.293q2.055-1.171,1.86-2.636c-0.07-1.822-.88-2.735-2.44-2.735q-3.81-.389-7.62-0.488a285.445,285.445,0,0,1-31.64-.586q-6.645-.879-7.42,5.273a3.118,3.118,0,0,0,2.05,2.149h0Zm31.83,17.773a23.7,23.7,0,0,0,4.3-.195q4.395-.389,8.69-0.488c1.17-.586,1.73-1.139,1.66-1.661q0.39-4-4.29-3.613-7.335-1.366-11.53.879-2.535,2.929,1.17,5.078h0Zm-31.93-3.906q-1.17,3.42,2.34,4.492l8.4-.586a11.038,11.038,0,0,0,4.4-.293c1.89-1.106,2.37-2.473,1.46-4.1-0.19-.391-1.56-0.846-4.1-1.368a27.123,27.123,0,0,0-9.28-.2,6.173,6.173,0,0,0-3.22,2.051h0Zm29.88,7.52q-1.755,4.98,4.4,4.589,5.37-.488,10.74-0.683a2.531,2.531,0,0,0,1.95-1.66c0.59-1.888-.13-2.994-2.14-3.321q-7.92-1.172-11.53-.683a4.744,4.744,0,0,0-3.42,1.758h0Zm-30.95,3.124c0.58,1.954,1.56,2.9,2.93,2.833,3.64-.325,7.29-0.521,10.93-0.586q4.89-1.074,2.74-4.883a22.717,22.717,0,0,0-4.2-.879q-7.125-1.268-11.13.683a3.261,3.261,0,0,0-1.27,2.832h0Zm2.63,10.45q0.2,4.005,4.4,3.418,18.45-3.027,33.79.2a4.02,4.02,0,0,0,3.32-2.637c0.97-2.539,0-3.872-2.93-4q-10.455-1.56-33.69-.293-4,.686-4.89,3.321h0Zm-15.52,8.789q-3.915.684-6.25,5.371-1.082,2.541.58,3.906a4.61,4.61,0,0,0,4.1,1.172,79.594,79.594,0,0,1,21.88-5.957q3.315-.389,2.24,1.66a50.543,50.543,0,0,1-3.8,5.078q-2.745,3.128-2.25,5.86,2.64,4.881,6.93,3.125a30.946,30.946,0,0,1,7.82.586,95.972,95.972,0,0,0,17.09-.977q13.77-1.563,6.15-12.109-2.25-3.223-.1-2.93a68.919,68.919,0,0,1,20.8,6.152,5.332,5.332,0,0,0,5.86-2.05q4.005-4.3,2.25-6.153a5.166,5.166,0,0,0-1.66-.488,291.88,291.88,0,0,0-62.99-3.32,174.318,174.318,0,0,1-18.65,1.074h0Zm39.45,3.613a7.443,7.443,0,0,1,5.18,2.246q1.455,0.783,3.41,4.785c1.18,1.824.52,2.866-1.95,3.125a34.1,34.1,0,0,1-16.99.782,9.569,9.569,0,0,1-3.42-1.172q-0.1-.487,1.56-2.832,4.11-3.224,5.08-6.055c0.06-.586.98-0.879,2.73-0.879h4.4ZM1139.86,709q-0.195,4.2-5.37,7.227a36.671,36.671,0,0,1-7.81,3.906q-5.97,2.442-1.76,6.543,5.07,3.808,14.06-5.957,2.64-2.93,4.98-3.223,22.455-2.05,33.59.2,5.67,1.464,7.04-4.493c-0.14-2.017-1.53-2.832-4.2-2.441q-16.125-.2-32.23-0.1-2.34,0-2.25-.976-0.48-5.86-5.17-4.3a4.937,4.937,0,0,0-.88,3.613h0Zm-30.27,7.227a35.478,35.478,0,0,1,9.76,3.125c1.63,0.651,2.74.424,3.32-.684,0.98-2.212.03-4.134-2.83-5.762a31.447,31.447,0,0,1-4.49-4.1q-3.525-1.953-7.33.781-4.485,4.3,1.57,6.641h0Zm26.17,23.535q-0.78,2.929-3.13,3.027l-6.34.1a7.258,7.258,0,0,0-6.74,3.125q-2.25,4,.19,5.762c0.91,0.781,2.21.944,3.91,0.488,2.21-.977,4.43-1.856,6.64-2.637q3.03-.879,2.34,1.563-1.65,6.738-2.44,11.523c-0.52,2.214.69,3.647,3.61,4.3q6.06-.2,12.02-0.781a93.893,93.893,0,0,1,13.47.488c1.96,0.326,2.18,1.53.69,3.613a26.743,26.743,0,0,1-5.47,5.274c-1.63,1.692-1.43,3.254.58,4.687,1.18,0.911,2.22,1.2,3.13.879q4.785-1.171,10.06-9.668,1.56-3.025,3.9-2.539a29.281,29.281,0,0,1,7.13,2.344q5.37,1.856,6.55-2.832,0-3.612-3.81-4.883c-1.17-.65-3.39-1.172-6.64-1.563q-2.835-.389-2.15-2.929l1.85-6.543q0.585-2.93,3.13-2.149a58.459,58.459,0,0,1,5.56,2.246q4.785,3.127,9.18-3.906c1.44-2.408.52-3.645-2.73-3.711l-11.04-1.562c-1.43-.13-2.01-1.074-1.75-2.832l0.97-7.715q2.355-4.4-2.63-7.129a43.067,43.067,0,0,0-11.72-1.074l-18.75-.781a6.3,6.3,0,0,0-5.76,1.855q-1.77,3.614-3.81,13.965h0Zm17.58-8.789a4.1,4.1,0,0,0-.88,4.785,9.872,9.872,0,0,1,1.17,2.93c0.84,1.953.49,2.929-1.08,2.929q-4,0-7.71.293c-1.89.131-2.6-.65-2.15-2.344q1.47-5.76,2.64-7.617c0.58-.911,1.82-1.4,3.71-1.465l1.95-.1c2.21-.2,3,0,2.35.586h0Zm17.38,8.3c-0.26,2.148-1.08,3.158-2.44,3.027q-4.4-.39-8.5-0.488-2.64-.1-1.27-2.735a50.127,50.127,0,0,0,1.37-5.371,3.881,3.881,0,0,0-1.86-3.125c-0.45-.325.23-0.488,2.05-0.488a28.727,28.727,0,0,1,6.94.781q5.175,1.662,3.71,8.4h0Zm-66.8.878a42.208,42.208,0,0,1,9.77,2.149q3.315,0.684,3.51-2.149a3.615,3.615,0,0,0-1.66-3.125,16.357,16.357,0,0,1-3.9-2.636q-4.89-5.077-9.67-.684c-2.48,3.191-1.82,5.339,1.95,6.445h0Zm47.37,8.2a4.2,4.2,0,0,0-1.27,3.32,12.639,12.639,0,0,0,1.27,3.906,7.474,7.474,0,0,0,1.26,3.809c0.33,0.326-.26.456-1.75,0.39q-5.28-.293-10.26-0.2c-1.75,0-2.57-.781-2.44-2.344a47.671,47.671,0,0,1,1.37-6.347q0.975-3.027,3.32-3.321,4.1-.389,8.1-0.488c1.24,0,1.37.424,0.4,1.27h0Zm17.48,2.343q-0.885,3.615-2.15,7.227-1.08,3.029-3.42,2.832a48.6,48.6,0,0,0-5.27-.488q-2.94-.2-2.25-0.782,0.975-1.367,1.66-5.468,2.25-3.808-1.76-6.446-1.17-.488,1.47-0.488c3.12,0.131,6.25.391,9.37,0.781q2.94,0.391,2.35,2.832h0Zm-64.16,18.457q-3.33,2.929-1.08,5.86,3.615,4.881,7.62,1.172,2.835-4.882,5.96-9.766a32.14,32.14,0,0,0,4.19-7.129q0.795-3.025,0-3.809-2.34-1.852-5.76,2.54a73.867,73.867,0,0,1-10.93,11.132h0Zm107.03-59.472q0.195,17.871-.3,25.976-0.48,19.142-8.69,31.25a22.774,22.774,0,0,0-4.1,7.813,3.452,3.452,0,0,0,1.37,4.2q4.1,1.758,6.74-3.027,11.22-18.358,11.13-37.11a4.174,4.174,0,0,1,2.93-3.711,77.6,77.6,0,0,1,16.31-.293q4.785-.879,5.37-5.957l1.46-15.625q0.585-3.318-3.12-5.371a12.5,12.5,0,0,0-3.91-.879q-12.495-.389-19.82,0-4.89,0-5.37,2.735h0Zm40.72,1.269a94.133,94.133,0,0,0,.68,16.8,12.07,12.07,0,0,0,.49,5.859c0.52,0.913,1.76,1.5,3.71,1.758q10.545-2.147,16.8-1.562a3.516,3.516,0,0,1,3.22,3.418q0,23.243.88,34.472a31.539,31.539,0,0,0,1.47,7.52,3.136,3.136,0,0,0,3.8,1.66,3.962,3.962,0,0,0,2.74-3.223,24.959,24.959,0,0,0-.1-7.324,164.3,164.3,0,0,1-2.44-26.855q-0.69-18.458,1.76-27.539,2.235-6.541-4.1-8.008a183.956,183.956,0,0,1-21.98-.391,13.692,13.692,0,0,0-4.29.293,3.3,3.3,0,0,0-2.64,3.125h0Zm-15.72,4.688c0.13,0.976-.59,1.53-2.15,1.66a73.734,73.734,0,0,1-13.58.195c-2.01,0-2.99-.455-2.93-1.367a3.133,3.133,0,0,1,1.08-2.539q4.785-1.758,13.57-1.074c2.61,0,3.94,1.042,4.01,3.125h0Zm37.2-2.735q4.11,0.391,3.91,3.223c-0.07.912-.88,1.4-2.44,1.465q-6.93.292-13.87,0.1-3.12-.2-3.03-1.465,0.975-3.124,5.18-3.028a55.747,55.747,0,0,1,10.25-.293h0Zm-40.23,10.84q3.225,0.2,3.12,1.856a4.245,4.245,0,0,1-.78,2.05q-5.565,2.249-15.04,1.856a2.864,2.864,0,0,1-2.93-3.125c0-1.5.92-2.278,2.74-2.344l2.24-.1c3.72-.2,7.26-0.26,10.65-0.2h0Zm43.75,2.442q-0.1,1.856-.78,2.148a42.634,42.634,0,0,0-7.62.1,25.754,25.754,0,0,1-7.81.586,1.915,1.915,0,0,1-2.25-1.758c-0.26-1.953.39-3.028,1.96-3.223a72.623,72.623,0,0,1,13.67-.1c1.95,0.2,2.89.944,2.83,2.246h0Zm-47.66,22.754q0,8.2-.39,16.406a8.762,8.762,0,0,0,.2,2.441c1.49,2.539,3.81,2.866,6.93.977a164.335,164.335,0,0,1,17.09-.489l2.54,0.586q4.98,1.857,6.15-3.711a44.351,44.351,0,0,0,.39-5.859q0-5.955.3-11.621a9.357,9.357,0,0,0-.1-5.859q-1.08-2.44-5.27-2.149-9.285-.2-18.27-0.1a14.2,14.2,0,0,1-4.49-.585q-3.615-.587-4.88,3.125c-0.46,1.367-.52,3.646-0.2,6.836h0Zm25.3,1.367a147.866,147.866,0,0,1-16.21.2c-1.96-.13-2.93-0.977-2.93-2.539a3.276,3.276,0,0,1,.58-2.637,5.961,5.961,0,0,1,2.64-.293q8.2-.1,16.4.2a6.36,6.36,0,0,1,.88,2.734c0,1.5-.45,2.28-1.36,2.344h0Zm0.88,8.984a3.114,3.114,0,0,1-.88,3.027l-15.34.293c-1.95.066-3.06-.064-3.32-0.39a4.306,4.306,0,0,1-.48-2.637,2.506,2.506,0,0,1,2.34-2.734q4.485-.682,14.84-0.1c1.96,0.131,2.9.977,2.84,2.539h0ZM275.211,886.242q-0.2,13.283-.1,26.465,0,2.541-2.343,2.539h-5.665q-8.106-1.561-13.769,1.563-3.42,3.222-1.66,6.445,2.051,2.343,5.664,1.172a105.541,105.541,0,0,1,23.437-3.516,237.27,237.27,0,0,1,46,1.758,7.4,7.4,0,0,0,6.836-2.539q4.1-4.1-1.074-5.078l-47.851.195q-2.931-.1-2.832-2.344,0-2.538,2.05-2.832,15.332-1.172,25.586.489,3.808,1.269,6.153-2.832,1.171-3.516-2.246-3.809-14.748-.293-29.493-0.2-2.343,0-2.343-1.661-0.587-2.831,1.562-2.441,15.234-1.366,26.27.391a5.429,5.429,0,0,0,5.859-1.563q3.32-5.368-2.734-5.176-14.261-.389-28.223-0.1-2.344,0-2.441-.391,0.1-4.1,3.418-4.2l3.222-.391q10.936,0,21.485.293a7.692,7.692,0,0,0,3.515-.39q4.3-3.9-1.172-6.25-16.6.392-33.2,0-3.321.585-3.906,4.394h0Zm11.426,45.8q-4.1,2.734-1.953,4.3,2.244,1.171,7.617-1.856,3.125-1.464,5.273.1,13.378,9.668,26.66,18.848a6.96,6.96,0,0,0,3.907,1.953q3.123,0.195,7.812-2.735,3.711-1.954,4.4-3.515,0.389-1.854-1.856-2.149a86.027,86.027,0,0,1-34.375-14.257q-2.93-2.44-.976-3.028,4.588-1.758,2.148-6.152-2.442-3.516-4.883-1.953Zm-15.723,10.84a2.883,2.883,0,0,1-2.637,3.125,13.432,13.432,0,0,0-5.664,3.711q-4.2,4.1.586,6.25a8.444,8.444,0,0,0,4.688-.977,132.735,132.735,0,0,1,23.437-6.64q4.882-.39,7.031-3.516,0.781-2.832-2.343-3.32a72.055,72.055,0,0,0-15.528,2.05q-2.929.686-2.832-1.66a64.163,64.163,0,0,1,1.075-13.476q0.488-5.274-3.321-6.641-3.613-1.074-4.785,3.711a81.462,81.462,0,0,1,.293,17.383h0Zm93.164-52.539a188.9,188.9,0,0,1,.488,33.984A29.543,29.543,0,0,1,363,932.141q-3.516,6.25-11.719,12.6-2.541,2.05-2.344,3.809a4.144,4.144,0,0,0,3.711,4.59q4.1,0,7.813-4.2A39.9,39.9,0,0,0,370.914,925.5q0.975-14.842.781-29.688,0.195-4.881,4.688-5.761,8.1-1.758,27.929-.391,4.785,0,7.325,2.051a7.629,7.629,0,0,1,.293,2.832q-1.662,23.342.976,37.012,1.269,13.281,16.211,21.582,4.491,3.222,9.766-1.66,5.567-5.567-.1-6.446a27.51,27.51,0,0,0-3.906-.683,19.361,19.361,0,0,1-11.621-6.25q-4.687-5.662-5.371-15.625a75.343,75.343,0,0,1,1.758-27.539q1.172-4.687.488-7.032a3.44,3.44,0,0,0-2.149-2.246,57.006,57.006,0,0,0-15.625-2.441q-16.5-.2-34.082.488-4.687.978-4.2,6.641h0Zm9.375,15.332q0.975,2.247,2.442,2.246a38.48,38.48,0,0,1,8.886-2.051q2.929,0,3.028,2.344a14.589,14.589,0,0,0,.1,2.93q0,2.929-2.344,2.929a69.691,69.691,0,0,0-9.765.781q-1.954,1.173-1.856,2.344a53.69,53.69,0,0,0,.1,11.621q0.389,4.1,3.613,4.785a42.989,42.989,0,0,0,6.641-.781q3.025-.292,1.074,2.246a41.462,41.462,0,0,1-6.738,5.86q-2.93,3.515-2.441,5.761,2.93,5.274,7.031,5.176,7.226,0.782,17.676-1.562a11.905,11.905,0,0,1,3.906-.391q5.175,2.05,5.371-3.711-1.37-5.567-8.2-11.035-3.42-2.05-4.1,1.465a8.343,8.343,0,0,0,2.344,4.492q1.465,2.929-.879,3.32l-6.641.879q-5.956.587-8.789-.683-0.2-.39,2.93-2.832l3.906-2.051a6.671,6.671,0,0,0,3.614-4.3q0.681-2.929,3.027-2.93a26.282,26.282,0,0,1,3.906.1q6.346,1.27,7.715-5.176a23.964,23.964,0,0,1,.195-4.394q2.344-6.446-3.418-8.594a27.9,27.9,0,0,0-8.1-.586q-2.736.1-2.637-2.539l0.195-2.735q0.294-2.929,2.637-2.832a38.849,38.849,0,0,1,5.469.391A6.052,6.052,0,0,0,409.2,904.7q2.733-2.245,1.27-4.1a5.686,5.686,0,0,0-3.613-1.075H393.18a20.792,20.792,0,0,1-7.91-.293q-3.907-2.05-8.5,1.465-4,2.248-3.32,4.981h0ZM388,922.082q0.683,5.567-2.93,4.492H384.1q-3.224.1-3.711-2.344-1.27-4.881,2.246-4.3l2.441-.2q2.929,0,2.93,2.344h0Zm14.258,1.074q-0.392,2.637-.879,2.93l-3.321.1a2.689,2.689,0,0,1-3.124-2.832v-1.465q0-2.344,2.441-2.344h1.953a3.62,3.62,0,0,1,2.93,3.613h0Zm97.07-28.418q-3.516,4.395,2.441,6.836,2.832,1.37-.1,2.93-4.3,2.541-3.418,6.348,0.975,2.051,4.394,3.32a9.5,9.5,0,0,1,3.907,2.148q3.9,2.541,9.375.489a23.983,23.983,0,0,1,4.882-3.125q6.446-6.933-.683-11.036-2.833-.78-0.586-2.734,4.784-4.1,1.758-7.715-5.763-4.491-7.617.391,2.831,3.808-.586,4.98-2.344,2.736-5.372.391-1.756-1.466.489-4,9.96-6.834,5.859-12.109-3.516-2.637-5.371,1.757-1.368,4.982-9.375,11.133h0Zm-8.4,23.926q0.78,3.126-1.563,3.125l-31.152.2q-5.372,1.954-5.176,6.348,1.366,4.787,8.594,2.246a61.216,61.216,0,0,1,6.64-1.562q2.832-.39,2.832,2.246a19.984,19.984,0,0,1-.976,6.836,13.342,13.342,0,0,1-6.641,6.445,30.507,30.507,0,0,1-7.812,2.734q-4.2.978-1.758,4.688,2.245,3.709,5.273,2.441a33.163,33.163,0,0,0,15.332-10.058q1.953-2.929,4.883-.879,2.929,2.149,5.86,4.687,4.2,2.246,6.152-.488,1.562-2.345-1.563-5.371a41.142,41.142,0,0,0-8.984-5.664,4.006,4.006,0,0,1-2.832-4.2v-2.246q0-2.345,2.539-2.54,5.859-.488,9.863-0.488a4.413,4.413,0,0,1,4.1,2.344,34.41,34.41,0,0,0,6.152,9.082q2.637,2.833.2,5.078a90.481,90.481,0,0,0-6.934,7.52q-1.37,3.123,1.172,3.515,3.318-1.171,10.254-7.422,2.343-1.758,4.98.2,10.742,8.5,17.578,9.277a10.855,10.855,0,0,0,7.813-3.906q2.929-3.516-1.953-4.3a76.984,76.984,0,0,1-16.8-5.957q-2.93-1.562-.391-3.125a26.368,26.368,0,0,1,3.321-1.66q2.929-.975,2.734-3.028,0.292-3.9-2.442-5.468-0.878-.294-3.906,1.855a37.624,37.624,0,0,0-4.785,3.711,3.77,3.77,0,0,1-5.273,0,35.326,35.326,0,0,1-4-4.492q-1.954-3.026.488-3.028a141.867,141.867,0,0,1,23.926,1.954q6.054,0.489,8.691-5.274a1.619,1.619,0,0,0-.976-1.758,22.514,22.514,0,0,0-8.789-.586q-2.637,0-1.172-.781,5.369-2.538.976-7.812-0.976-1.074-2.636-.2a6.272,6.272,0,0,0-2.442,3.028l-1.855,2.929q-2.442,2.929-5.371,2.93h-12.7a3.064,3.064,0,0,1-3.125-2.344,69.113,69.113,0,0,1-1.367-21.093,22.282,22.282,0,0,1,1.27-8.106q1.951-5.663-3.028-8.2-3.321-.975-4.2,3.125-1.855,20.412.977,33.5h0Zm-20.508-33.008a18.779,18.779,0,0,1-6.25,7.422q-5.274,3.126-5.078,6.738a8.115,8.115,0,0,0,4.687,3.321q2.929,1.271.195,2.343a7.231,7.231,0,0,0-4.882,4.3q-0.392,2.637,1.269,3.711l7.813,3.907a8.739,8.739,0,0,0,3.906,1.464,10.11,10.11,0,0,0,8.5-2.441q8.789-4.783,5.176-10.352a7.925,7.925,0,0,0-4.981-2.929q-1.464.2,1.465-1.758,5.077-3.9,1.66-7.813-2.442-2.636-4.882-2.148-3.81,1.758-1.661,4.394,0.294,1.465-2.734,3.711a9.183,9.183,0,0,1-2.441.879,11.445,11.445,0,0,1-2.735-.976q-2.541-1.466-.39-3.711l1.855-1.563q7.713-4.2,6.055-9.57-1.954-3.417-4.981-1.367a13.184,13.184,0,0,0-1.562,2.441h0Zm45.6,21.192q0.975,1.464.2,2.441a6.194,6.194,0,0,1-6.836,1.27q-2.93-1.561-.1-3.809l2.734-1.465q3.027-1.951,2.735-1.269-0.586,1.368,1.269,2.832h0Zm-37.011,1.269q1.365,1.075-.586,2.93-3.713,2.149-8.5.391-2.344-1.173,0-2.735l5.371-2.734q3.123-1.854,2.441-.977-0.978,1.955,1.27,3.125h0Zm95.019-20.605q1.268,3.027-1.172,3.027a86.548,86.548,0,0,1-9.179-.488,12.381,12.381,0,0,0-7.129,2.051q-4.981,2.834-3.321,5.664a4.856,4.856,0,0,0,5.176,1.172q7.032-1.074,14.551-1.661a3.028,3.028,0,0,1,3.515,2.735q1.366,2.442-.39,2.636-3.615.978-3.32,3.516-0.686,4-.1,14.648,0,8.4,6.738,6.641a43.161,43.161,0,0,1,7.52-.879q2.93-.1,2.929,1.758-0.2,1.954-2.636,1.953-16.017-.292-23.047,2.246-1.37.879-1.953,3.711-3.712,11.524-3.125,15.625a3.837,3.837,0,0,0,2.05,3.711q5.175,1.659,5.762-4a31.319,31.319,0,0,1,1.66-11.719q1.366-2.636,3.516-2.441a68.592,68.592,0,0,1,12.012-1.172q3.222,0,1.269,2.246-2.833,3.127-5.664,5.762a6.714,6.714,0,0,0-1.66,4q0.683,5.274,4.59,4.394a46.913,46.913,0,0,1,17.285-2.05l6.836,0.586q3.808-1.077,3.32-3.614-0.489-3.417-7.617-9.57-2.541-1.953,0-1.855a64.288,64.288,0,0,1,14.648,1.171,2.8,2.8,0,0,1,2.344,1.368,42.732,42.732,0,0,1,1.465,11.23q0.389,3.711,1.953,5.176,2.246,1.951,4.492-.684a8.607,8.607,0,0,0,1.075-7.812,12.936,12.936,0,0,1-.684-7.813A7.039,7.039,0,0,0,625.6,933.9a15.94,15.94,0,0,0-8.79-3.32q-8.886-.292-17.773-0.293-2.343,0-2.539-1.953,0-1.854,2.441-1.855a47.473,47.473,0,0,1,7.813.488q6.346,0.585,7.226-5.469a135.846,135.846,0,0,1,.684-14.648,4.574,4.574,0,0,0-4.2-4q-0.978-.1-0.2-0.586a4.331,4.331,0,0,0,1.367-2.832q0.681-3.125,2.929-3.028a43.506,43.506,0,0,1,12.989,2.735q5.859,3.126,11.035-4.3,1.854-3.711-2.93-3.418-8.008-.78-18.75-1.074-2.929-.1-2.148-2.344,0.975-4.687-4.2-5.469-4.59.978-4,4.785-0.1,2.931-2.539,2.832-4.1-.879-6.543.684-2.052,1.857-1.661,3.809,1.074,3.418,4.981,1.757a19.552,19.552,0,0,1,3.223-.488q1.952,0.1,1.953,3.418a9.427,9.427,0,0,0,1.074,2.734q0.389,0.391-2.344.391-10.546-.389-20.8-0.1-2.343,0-1.757-1.562a11.51,11.51,0,0,0,.293-3.223q0-1.268,2.636-1.562a23.667,23.667,0,0,1,3.711-.293q4-1.659.2-4.785a10.931,10.931,0,0,0-4.394-.489q-2.247,0-2.051-2.539,1.074-3.026-1.269-4.394a6.506,6.506,0,0,0-4.883-.684q-3.516,1.563-2.344,4.688h0Zm33.2,22.168q0.294,1.368-2.734,1.465a44.971,44.971,0,0,0-5.176.1q-3.029.1-2.93-1.855,0.294-1.854,2.637-1.856a38.606,38.606,0,0,1,4.785.293q2.93,0.49,3.418,1.856h0Zm-17.578-.2q0,1.857-2.344,1.856l-5.761-.1q-2.931-.292-2.832-1.465,0.193-1.072,2.539-1.562a43.615,43.615,0,0,1,5.761-.391q2.539-.1,2.637,1.66h0Zm17.676,8.887q-0.2,2.442-3.516,2.149h-5.176q-2.343,0-2.343-1.856,0-1.758,2.441-1.758l5.957,0.2q2.733,0.293,2.637,1.269h0Zm-19.727,2.344a40.933,40.933,0,0,1-7.422.1,2.245,2.245,0,0,1-.976-1.757q-0.2-1.66,1.855-1.758l6.739-.2q2.244,0,2.246,1.953,0,1.661-2.442,1.66h0Zm10.84,24.121q-3.908-.195-7.812,0-3.321.489-1.368-1.856a23.914,23.914,0,0,1,4.2-3.906q2.147,0.49,5.078,3.418,2.245,2.736-.1,2.344h0Zm94.434-60.352q0.293,1.565-2.051,1.563a101.393,101.393,0,0,1-13.281-.293q-7.032-.389-9.766,2.441-2.637,2.833-.488,5.371a5.068,5.068,0,0,0,4.3.684q20.31-4.882,47.656-1.562a6.479,6.479,0,0,0,6.055-2.051q2.244-2.148,1.367-3.516-0.49-.682-3.321-1.172H703.727q-2.443.1-2.539-1.367-1.27-4.588-5.958-3.613-3.126.783-2.343,3.515h0Zm-18.75,12.6,2.929,11.719a5.56,5.56,0,0,0,3.907,5.664,27.385,27.385,0,0,1,9.863-1.953q2.929,0,2.93.976-0.1.978-2.442,0.977-4.687-.1-9.082.195-3.613.49-4.3,1.27-1.856,3.614,1.758,4.59a10.416,10.416,0,0,0,3.906-.2,60.473,60.473,0,0,1,6.739-.586q2.93-.1,3.222.293,0.2,2.051-2.636,1.367-8.3.879-16.309,1.368-3.126-.2-5.371,3.515a3.874,3.874,0,0,0-.2,3.418q2.636,3.128,6.152.879a53.294,53.294,0,0,1,5.078-1.855q2.832-.487.586,0.879a57.1,57.1,0,0,1-20.9,4.882q-5.764-.193-7.911,2.051-1.757,3.128,2.344,5.176,9.57,1.27,22.266-4.1,2.929-.975,2.929,1.368l-0.1,6.64q-0.684,5.859.293,7.91,2.245,3.516,5.371,1.661l15.625-6.836A13.869,13.869,0,0,0,704.7,946.2q2.344-3.417,0-4.1-4.98-.2-14.551,3.515-3.222,1.075-3.711.488a13.876,13.876,0,0,1-.293-3.71q1.074-4.785.293-7.52-0.879-1.562,1.758-3.516a7.27,7.27,0,0,0,3.516-3.808q0.1-.39,3.027-0.586a42.5,42.5,0,0,1,8.887.293q2.929,0.585-.1,3.125a21.539,21.539,0,0,1-7.812,2.734,11.635,11.635,0,0,0-3.907,1.172q-3.711,2.05-.292,5.273,2.147,1.37,5.859.489,4.3-1.659,5.859-1.367,10.35,2.442,21.485,13.086,7.42,5.76,15.625-1.27,1.56-1.368.488-2.344a10.28,10.28,0,0,0-3.516-1.465,227.107,227.107,0,0,1-26.269-11.523q-3.029-1.172-1.66-2.93a6.461,6.461,0,0,0,1.074-2.539q-0.1-.879,2.246-0.293,5.955,3.809,9.961-2.051,2.05-2.439,1.074-3.613a7.746,7.746,0,0,0-4.2-.976q-8.009-.879-15.723-1.368-2.929-.193-3.027-0.781-0.2-.879,2.051-0.781,4.1,0,8.105.293a13.7,13.7,0,0,0,3.906-.293q1.953-1.172,1.563-2.344a1.882,1.882,0,0,0-1.66-2.246,71.6,71.6,0,0,0-11.914-.586q-2.344,0-2.344-1.172,0-.975,2.344-0.879a40.642,40.642,0,0,0,9.179,1.27,6.511,6.511,0,0,0,4.688-5.176q1.267-3.9,2.148-7.812,3.223-4.687-2.441-6.641a34.2,34.2,0,0,0-8.789-1.27,226.88,226.88,0,0,0-31.055.879q-2.833,1.173-2.441,3.223h0Zm34.765,1.367q3.124,0.392,3.223,1.074-0.1.685-3.027,0.782a56.4,56.4,0,0,0-5.762.1q-2.833.1-2.734-1.172,0.1-.878,2.734-0.878a52.984,52.984,0,0,1,5.566.1h0Zm-15.527,1.172q-0.1.978-2.441,0.977l-6.641-.2q-2.929-.293-2.93-0.781,0.195-.389,2.539-0.879,3.516-.292,7.032-0.293,2.343,0,2.441,1.172h0Zm17.48,7.031q-0.489.978-2.832,0.879l-5.273-.195q-2.343,0-2.344-1.172,0.1-.975,2.442-0.976h5.371q2.929,0.489,2.636,1.464h0Zm-19.628.879a51.357,51.357,0,0,0-5.469.293q-2.93.1-3.516-1.172-0.2-.879,2.442-1.172l6.738-.2q2.146,0,2.148,1.172,0,0.879-2.343,1.074h0Zm139.257,4q-2.636,4.4.293,5.274a4.852,4.852,0,0,0,3.907-1.368,33.215,33.215,0,0,0,5.957-7.714,7.407,7.407,0,0,1,4.1-3.614q10.449-3.515,18.653-.781,2.538,0.587,1.269,3.223a31.645,31.645,0,0,1-5.762,7.812q-2.735,1.857-2.734,3.418,0.1,1.857,2.148,1.758,9.765-2.637,16.114-14.16,2.051-4.4-3.321-6.738-8.2-2.733-21.484-2.247-3.222-.293-2.148-2.539l0.683-1.171a11.865,11.865,0,0,0,1.27-2.93q-0.1-5.762-5.957-7.227-3.127,0-3.028,3.907,0.682,11.718-9.961,25.1h0ZM800.9,918.273l0.39,3.711q0.78,5.178,5.957,4.1a25.816,25.816,0,0,1,10.352-.586q9.081,1.955,10.449-7.324l0.1-10.254,0.39-4.395a5.383,5.383,0,0,0-4.883-3.613,103.276,103.276,0,0,0-16.21.293q-4.006-1.366-5.958,1.953-0.878,5.079-.585,16.113h0Zm19.628-8.4a41.24,41.24,0,0,1-.2,5.664,2.749,2.749,0,0,1-2.93,2.539h-5.859q-3.126-.195-3.418-2.441a43.978,43.978,0,0,1-.195-5.86q0.585-2.93,2.929-3.515a40.454,40.454,0,0,1,8.5.2q0.585,0.49,1.171,3.418h0Zm23.438,10.254q-1.27,13.575-16.6,21.68-3.906,1.368-7.812,3.125-2.929,1.856-3.027,3.418-0.783,2.147,1.66,3.613,2.147,1.464,5.859.195,12.792-3.614,21.777-18.066,1.66-3.125,3.809-1.66,7.226,5.371,21.582,20.605,3.125,3.224,5.957,2.93a19.575,19.575,0,0,0,11.914-3.809q1.562-2.734-3.418-3.906-16.212-5.076-33.2-22.559-3.808-2.831-.977-9.082,1.269-3.809-2.148-5.664a4.8,4.8,0,0,0-4.883,1.172q-0.879,2.051-.488,8.008h0Zm99.609-33.008q0.587,3.126-1.758,3.125-6.543.1-12.792-.195a36.245,36.245,0,0,0-8.008-.1,6.818,6.818,0,0,0-4.981,3.32,18.242,18.242,0,0,0-.1,4.981q0.975,4,.39,15.137a65.921,65.921,0,0,1-2.344,15.625q-3.222,6.543-14.257,15.82-2.736,3.516,0,5.859a3.285,3.285,0,0,0,3.906.684Q910.953,948.546,917.2,938q7.128-14.257,6.152-36.719-0.2-2.929.879-3.808,25.489-1.173,42.383-1.075a59.338,59.338,0,0,1,7.031.586q4.688,0.685,5.469-3.32a3.277,3.277,0,0,0-2.441-3.223,11.81,11.81,0,0,0-3.906-.683q-9.669,0-19.043.293-2.931.1-2.344-2.246,1.366-3.417-.684-5.274-2.734-2.343-6.64-.683-1.857,1.856-.489,5.273h0ZM938,900.6q-0.391,2.93-2.734,2.832-6.837-.682-10.059,2.929-2.442,4.1,1.758,5.567a20.484,20.484,0,0,0,8.008-1.367q2.929-.39,3.125,2.246,0.1,2.636-1.465,3.418-3.028,1.955-2.442,4.785,1.854,3.222,6.446,1.465,8.1-2.148,19.336-1.172,4.784,1.076,7.714-3.711-0.1-2.733-3.613-2.344-3.126,0-2.93-2.93,0.487-2.929,2.832-2.832,3.319,0.2,6.543.684,3.319,1.076,7.032-3.223,1.464-2.733-2.149-3.418H965.348q-2.929.1-2.93-1.66-0.783-5.467-4.98-3.808a3.653,3.653,0,0,0-1.563,2.929,3.044,3.044,0,0,1-3.32,2.539h-5.078q-2.736,0-2.93-1.953-1.37-5.175-4.688-3.711A2.81,2.81,0,0,0,938,900.6h0Zm13.769,14.648h-4.3q-2.345,0-2.637-2.832-0.2-2.733,2.734-3.125l4.688-.1q2.637,0,2.343,2.93-0.39,3.126-2.832,3.125h0Zm-15.82,17.09a12.833,12.833,0,0,1,3.418,1.66l7.129,4.395q3.222,2.051.977,3.418-11.427,6.836-23.145,6.25-4.787.2-3.32,4.3a5.067,5.067,0,0,0,2.929,3.711q5.567,1.466,12.7-1.66a54.366,54.366,0,0,0,15.625-8.1q3.125-2.345,5.859-.586,8.789,5.272,17.578,10.156a11.009,11.009,0,0,0,4.883,2.051q3.222,0.292,8.789-4,2.538-1.563,2.344-3.125a2.651,2.651,0,0,0-2.149-1.367A130.34,130.34,0,0,1,963.2,941.32q-2.929-1.464-.683-3.808,9.96-9.57-.391-12.5-12.795,1.076-18.457-.1-4-1.561-7.91,3.125-1.857,2.929.195,4.3h0Zm20.215-1.563q2.343,0,2.637.391a14.363,14.363,0,0,1-2.246,3.223q-2.249,2.54-4.395,1.172l-3.223-2.149q-2.735-1.758-.39-2.148l1.172-.1a33.32,33.32,0,0,1,6.445-.391h0Zm60.542-36.621q0.975,3.615,4.79,3.028a70.6,70.6,0,0,1,14.94-1.856c1.76,0,2.7.749,2.83,2.246q0.495,6.349.59,12.7a2.118,2.118,0,0,1-2.44,2.343q-7.32-.1-14.36.2a9.738,9.738,0,0,0-3.61,1.269q-3.135,3.809.1,6.055a4.662,4.662,0,0,0,1.95.683,155.846,155.846,0,0,1,15.53-1.367q2.925-.1,2.83,3.125a119.2,119.2,0,0,1-.39,15.137c-0.2,2.019-1.11,3.027-2.74,3.027q-19.335-.1-30.07.586-7.14,2.736-6.84,7.813c0.59,1.887,1.56,2.864,2.93,2.929a16.354,16.354,0,0,0,7.81-1.757,66.2,66.2,0,0,1,15.63-2.93,183.755,183.755,0,0,1,37.69.586,62.33,62.33,0,0,1,15.63,3.906q5.265,1.367,9.47-4.3c2.99-3.189,2.38-5.078-1.86-5.664q-18.45-.78-36.91-1.172a2.756,2.756,0,0,1-2.93-2.734l-0.39-16.309c0-1.562.81-2.343,2.44-2.343q6.15-.1,12.21.1,5.76,0.879,5.76-4.1a3.315,3.315,0,0,0-3.22-2.442,130.7,130.7,0,0,0-14.94-.39,2.117,2.117,0,0,1-2.35-2.442,106.132,106.132,0,0,1,.49-11.816c0.2-2.017,1.11-3.027,2.74-3.027q6.15,0,12.3.39,5.67-1.171,4-5.371c-0.58-1.041-1.82-1.692-3.71-1.953a250.825,250.825,0,0,1-37.5-.391,14.008,14.008,0,0,0-3.61.293q-4.98,2.345-4.79,5.957h0Zm39.75,39.746a15.455,15.455,0,0,1,3.81,3.418q3.42,2.833,4.59-.586a8.5,8.5,0,0,0-1.56-4.492,24.6,24.6,0,0,0-1.57-3.906q-3.7-5.761-7.81-4.1-4.59,5.373,2.54,9.668h0Zm57.03-52.343q-4.005.879-3.61,3.711V898.84a115.214,115.214,0,0,1-2.54,27.93,40.514,40.514,0,0,1-6.64,15.625q-4.59,6.251-3.71,9.765,2.055,3.612,5.37,1.856a17.2,17.2,0,0,0,4.88-5.469q9.285-14.745,9.28-30.567,0.285-2.343.78-2.734a10.452,10.452,0,0,1,4.49-.879,122.776,122.776,0,0,1,12.89-.1q3.03-.195,4.11-2.247a18.485,18.485,0,0,0,1.46-7.812l1.27-15.625q0.885-5.662-6.35-6.934-3.9-.681-13.96-0.2Zm36.62,6.738c0,3.516.17,7.292,0.49,11.328a89.315,89.315,0,0,1,.49,10.254c0.39,3.452,2.11,4.819,5.18,4.1a50.347,50.347,0,0,1,15.13-1.661c1.96,0.2,3.06.489,3.32,0.879q1.365,28.224,3.62,39.649a3.472,3.472,0,0,0,2.24,2.929q4.2,0.879,4.88-3.613a36.122,36.122,0,0,0-.19-5.371q-1.56-8.984-2.34-15.625-2.445-27.832.19-40.43,1.56-3.71-.29-5.859a4.649,4.649,0,0,0-3.81-2.051q-13.68.2-21.39-.39a13.046,13.046,0,0,0-5.08.39,5.271,5.271,0,0,0-2.44,5.469h0Zm-15.72,3.809q0.09,2.247-3.12,2.343-6.06.2-12.11,0-2.835-.193-2.64-2.734-0.69-3.417,3.32-4.1a38.844,38.844,0,0,1,10.16-.293c3.25,0.132,4.72,1.726,4.39,4.786h0Zm35.55-4.2q5.565-.293,5.27,3.809,0.195,2.541-2.73,2.734H1158.9c-1.76-.129-2.57-0.911-2.44-2.343q0.39-3.711,5.18-3.907a50.994,50.994,0,0,1,8.3-.293h0Zm-38.67,19.629a65.965,65.965,0,0,1-11.92,1.172,2.394,2.394,0,0,1-2.64-2.344l-0.09-2.05q0-2.931,2.34-3.223,6.255-.195,12.4,0,2.94,0.292,2.74,2.93a4.151,4.151,0,0,1-2.83,3.515h0Zm42.87-.976q-6.36-.2-8.79.488a23.1,23.1,0,0,1-6.06.293c-1.75-.13-2.57-1.172-2.44-3.125-0.19-1.953.55-2.994,2.25-3.125q6.54-.195,13.08,0c1.96,0.195,2.9,1.14,2.84,2.832-0.27,1.628-.56,2.507-0.88,2.637h0Zm36.91-20.41q0.975,22.071-1.46,37.988a38.359,38.359,0,0,1-5.38,15.625,58.894,58.894,0,0,0-4.39,7.812q-1.86,3.9.68,6.25,2.055,1.366,3.42.489,2.94-.978,5.08-6.934a101.519,101.519,0,0,0,8.89-40.918c0.26-.455,1.2-0.845,2.83-1.172a74.605,74.605,0,0,1,10.06-.293q2.925,0.1,2.73.488a10.3,10.3,0,0,1-4.1,2.735q-5.67,2.05-7.32,6.543,0.39,3.613,4.68,3.808,2.55,0.49-.39,1.563c-2.54.781-4.03,2.246-4.49,4.394q0.195,4.2,5.96,4.1a10.422,10.422,0,0,1,3.9,1.074c1.96,0.717,2.74,1.3,2.35,1.758a5.965,5.965,0,0,0-.3,2.344c0.53,1.953,0,3.061-1.56,3.32l-2.44.586q-3.81.879-2.83-3.613,0.675-3.809-3.22-4.492a2.71,2.71,0,0,0-2.35,1.855q-1.065,7.521.59,11.231a3.966,3.966,0,0,0,3.12,1.66c2.87-1.172,5.11-1.66,6.74-1.465q2.34,0.2,0,2.637a42.3,42.3,0,0,1-9.76,4.1,2.955,2.955,0,0,0-1.76,2.539q1.17,4.688,5.47,4,8.985-2.541,13.28-12.012,2.925-9.375-.29-13.183c-0.27-.2.42-0.65,2.05-1.367a23.636,23.636,0,0,0,3.8-3.418q3.03-4.882-.87-6.641-3.33-1.465-1.18-2.734,6.165-3.808-1.36-7.618-2.94-.879-3.03-1.953a3.226,3.226,0,0,0-.29-1.562c-0.33-.391-0.26-0.65.19-0.781a8.2,8.2,0,0,0,1.66-.879c0.46-.391.91-1.627,1.37-3.711a101.007,101.007,0,0,0,2.05-12.989,4.956,4.956,0,0,0-1.86-3.32q-2.04-1.464-6.44-1.66a161.081,161.081,0,0,0-19.63.195q-3.7-.388-4.2,3.614h0Zm41.9-1.563q-0.795,1.857-.4,6.934l0.79,7.812a19.679,19.679,0,0,0,.39,4.492,3.872,3.872,0,0,0,2.83,2.246,24.77,24.77,0,0,0,6.05-.878,51.951,51.951,0,0,1,11.33-.684c1.95,0.261,3.13,1.172,3.52,2.734q0.675,32.325,3.02,44.727c0.26,1.887,1.05,2.994,2.35,3.32a3.2,3.2,0,0,0,3.9-.976q1.575-2.344.79-7.813a185.349,185.349,0,0,1-3.42-32.324q-0.69-15.917,1.46-24.317a5.36,5.36,0,0,0-.97-5.859q-2.55-2.146-8.11-1.465-8.685,0-17.09-.39h-2.64q-3.12.879-3.8,2.441h0Zm21.67,3.125a2.682,2.682,0,0,1,2.93,2.539c-0.06.391-1.07,0.62-3.02,0.684l-13.28-.1q-2.64,0-2.25-.879a6.346,6.346,0,0,1,5.37-2.441,41.531,41.531,0,0,1,10.25.2h0Zm-39.06,1.953c0.07,0.522-.75.847-2.44,0.977a86.4,86.4,0,0,1-12.69.2c-2.02-.064-2.84-0.455-2.45-1.172a3.4,3.4,0,0,1,1.37-.976,35.234,35.234,0,0,1,12.99-.684c1.95,0.652,3.03,1.205,3.22,1.66h0Zm0,7.715c-0.06.261-1.14,0.749-3.22,1.465a96.61,96.61,0,0,1-11.72.976c-1.89-.129-2.83-0.65-2.83-1.562q-0.105-1.172,2.25-1.367a118.155,118.155,0,0,1,12.69-.293c1.89,0.065,2.83.326,2.83,0.781h0Zm41.7,0.586c-0.06.651-.81,1.01-2.24,1.074-3.07-.325-5.21-0.259-6.45.2a19.092,19.092,0,0,1-8.4.293,3.733,3.733,0,0,1-.88-1.464c-0.13-.586.59-0.943,2.15-1.075a133.217,133.217,0,0,1,13.48-.1q2.34,0.293,2.34,1.074h0Zm-22.85,11.621a13.338,13.338,0,0,0-3.91,2.637q-4.68,5.273,2.05,7.031c2.22,0.327,2.41.847,0.59,1.562q-5.955,2.443-4.39,6.543a4.3,4.3,0,0,0,3.41,1.758,17.379,17.379,0,0,1,7.82,1.953q7.02,1.857,11.32-4.394,2.94-4.3-1.17-6.543-3.12-1.268-1.07-2.441,6.45-4.3-1.47-7.813-2.925-.879-2.73-1.953c-0.59-2.539-2.18-3.092-4.79-1.66a13.549,13.549,0,0,1-5.66,3.32h0Zm-15.62,4.3c0.19,0.261-.59.586-2.35,0.976a12.39,12.39,0,0,1-4.39,0q-2.835-.488-1.27-1.855a8.561,8.561,0,0,1,4.2-.879,6.728,6.728,0,0,1,3.81,1.758h0Zm26.17,1.367a11.481,11.481,0,0,1-5.86.488c-1.96-.454-2.87-0.845-2.74-1.172q4.005-3.222,7.62-.878c0.91,0.717,1.24,1.237.98,1.562h0Zm-26.17,9.082q-2.445,1.563-6.74.488c-1.44-.52-1.24-1.3.58-2.343s3.91-1.009,6.25.1q1.08,1.27-.09,1.758h0Zm27.05,0.2q-2.25,2.149-6.35,1.172-3.03-.78-0.59-2.343a6.435,6.435,0,0,1,5.28-.586c1.56,0.586,2.11,1.172,1.66,1.757h0Zm-14.85,10.352v15.918a14.822,14.822,0,0,0,.3,3.809q3.7,4.784,5.56-.489a8.617,8.617,0,0,0,.39-4.492c0-1.953.78-3.091,2.35-3.418l3.61-.1q5.76,1.662,7.32-3.222a13.566,13.566,0,0,1,1.47-3.906,6.4,6.4,0,0,0,.78-4.883,2.6,2.6,0,0,0-1.95-2.442q-4.785-1.172-4.89,4.786a4.967,4.967,0,0,1-.78,4,7.026,7.026,0,0,1-2.83.2l-2.15-.2q-2.925-.293-2.73-2.734a14.332,14.332,0,0,0,.1-3.613q-1.38-5.567-5.08-3.321-0.885.685-1.47,4.1h0Z"/>
  <path id="大写字母" class="cls-3" d="M58.57,476.3a5.75,5.75,0,0,1-.562,2.812,187.475,187.475,0,0,1-11.039,22.5,66.779,66.779,0,0,1-8.3,11.25q-1.477,1.2-.141,2.743,5.484,3.516,8.156-.563,1.968-4.569,4.148-9.141a3.673,3.673,0,0,1,2.742-2.32q12.656-1.476,18.844.141a3.744,3.744,0,0,1,2.883,2.109q1.688,4.079,3.586,8.156,2.32,5.766,8.859,2.25,1.617-.843,1.055-2.179a47.285,47.285,0,0,1-7.031-8.578,1.881,1.881,0,0,1,.7-2.813q2.6-1.756,2.742-4.008-0.844-1.968-2.531-1.336l-2.812.774a2.161,2.161,0,0,1-2.6-1.2q-4.36-8.859-8.508-17.718a8.817,8.817,0,0,1-1.125-2.813q-0.564-5.765-6.188-4.148-3.306,1.476-2.883,4.078h0Zm8.438,9.773q2.179,5.344,4.57,10.688,0.844,2.18-.844,2.109-9.07-.21-14.7.211-2.109.071-1.055-2.109A117.065,117.065,0,0,0,61.8,481.5a5.7,5.7,0,0,1,.773-1.688q0.913-.561,1.617.633a25.117,25.117,0,0,1,2.813,5.625h0Zm29.138-10.336a2.008,2.008,0,0,0-.352,2.461,3.139,3.139,0,0,0,3.023,1.407q2.109-.07,2.461.281a21.714,21.714,0,0,1,1.125,4.5q1.123,7.454.07,24.187a3.155,3.155,0,0,1-2.25,2.532,7.072,7.072,0,0,0-4.359,3.093q-0.915,3.306,2.672,3.235,8.507-2.32,20.672-.7h10.054q9.494-.141,13.149-7.875,3.375-8.788-7.031-14.977-2.11-1.054-.352-2.531,4.992-4.781,4.078-9.563-0.352-7.1-7.664-8.508-2.812-.49-5.625-0.7-17.439-.14-24.117.282a8.2,8.2,0,0,0-5.555,2.882h0Zm36.492,7.243a6.581,6.581,0,0,1-3.234,6.4q-1.687,1.125-5.344.914-5.273.422-14.484,0.281a1.523,1.523,0,0,1-1.688-1.758,42.52,42.52,0,0,1,.211-6.468q0.07-4.149,2.954-4.641a37.238,37.238,0,0,1,13.359-.633q6.608,0.282,8.226,5.907h0ZM129.684,496.9a9.859,9.859,0,0,1,5.274,4.079q1.827,4.361-.281,7.664a5.45,5.45,0,0,1-3.586,1.9,55.523,55.523,0,0,1-14.907.844,18.611,18.611,0,0,1-6.961-.914,3.245,3.245,0,0,1-.914-2.321,54.629,54.629,0,0,1-.422-9.914,2.321,2.321,0,0,1,1.688-2.32,27.639,27.639,0,0,1,5.273-1.055,44.8,44.8,0,0,1,14.836,2.039h0Zm30.614-18.21a16.828,16.828,0,0,0-4.359,5.554q-3.939,9.985-1.266,18.352a18.92,18.92,0,0,0,7.805,10.617q12.8,7.453,26.789.562a17.978,17.978,0,0,0,8.578-10.125q1.266-3.093-.211-4.71-2.952-2.883-4.781-2.883-0.774-.281-1.2.843l-0.352,4.219q-1.054,6.329-8.226,9.633-5.626,3.024-13.219.773a13.534,13.534,0,0,1-5.695-3.867q-7.314-10.476-1.336-23.2,5.063-6.75,10.687-7.312a18.365,18.365,0,0,1,12.305,2.25,13.17,13.17,0,0,1,4.289,4.429q1.827,6.189,6.469,1.688,1.827-3.516-.282-4.43a3.423,3.423,0,0,1-1.406-.914,23.27,23.27,0,0,0-8.3-5.906,25.2,25.2,0,0,0-15.047-.914,26.032,26.032,0,0,0-11.25,5.344h0Zm50.583-3.938q-2.952,2.462-1.336,4.922a4.991,4.991,0,0,0,2.321-.211,2.84,2.84,0,0,1,2.672,1.9q1.333,9.071.492,23.274a11.443,11.443,0,0,1-1.617,5.836,20.657,20.657,0,0,0-2.532,1.195,4.311,4.311,0,0,0-1.828,4.43,1.811,1.811,0,0,0,2.18,1.054,85.6,85.6,0,0,1,22.57-.914,21.184,21.184,0,0,0,7.735-.351q6.608-.984,10.195-7.524a27.668,27.668,0,0,0,2.812-11.25,22.37,22.37,0,0,0-2.039-13.007,16.693,16.693,0,0,0-9.281-9.352,38,38,0,0,0-11.25-2.039q-8.437.282-16.664,0.211a9.512,9.512,0,0,0-4.43,1.828h0Zm27.141,3.375a15.412,15.412,0,0,1,9.422,9,22.823,22.823,0,0,1,.562,12.375l-1.547,5.625q-2.531,5.344-7.312,5.906l-9.211-.07q-3.446-.212-6.117-0.141-2.391.143-2.742-1.687-0.494-5.625-.774-11.25a91.551,91.551,0,0,1,.563-18.281,2.719,2.719,0,0,1,.914-1.336,8.9,8.9,0,0,1,4.289-1.2,32.372,32.372,0,0,1,11.953,1.055h0Zm26.395-2.25q-1.546,3.024,1.758,3.516a1.989,1.989,0,0,1,2.461,1.406,30.107,30.107,0,0,1,1.336,8.437q0.422,12.165-.844,19.266-0.492,2.251-3.445,2.812a4.371,4.371,0,0,0-3.235,3.3q0.351,2.954,3.024,2.25a63.072,63.072,0,0,1,28.336-1.406l5.625,1.125q7.031,1.828,12.094-5.274,1.265-2.742-2.18-2.39a67.419,67.419,0,0,1-16.735,1.266q-7.454-.492-14.7-0.7a3.093,3.093,0,0,1-1.9-.7q-1.758-3.936-1.266-10.9a1.9,1.9,0,0,1,1.688-2.039,44.174,44.174,0,0,1,14.132-.7,23.625,23.625,0,0,0,7.1.07q3.022-.984,2.461-3.094a3.1,3.1,0,0,0-1.9-2.109,24.842,24.842,0,0,0-5.273,0,93.8,93.8,0,0,1-16.383.211,1.565,1.565,0,0,1-1.617-1.828,40.7,40.7,0,0,1,.492-6.4,7.006,7.006,0,0,1,.563-3.094,4.455,4.455,0,0,1,2.531-1.125,86.314,86.314,0,0,1,13.219-.421q2.6,0.071,5.133.351a15.532,15.532,0,0,0,5.625.211q3.936-1.123,4.57-4.711a1.607,1.607,0,0,0-2.11-.844q-11.671,1.266-33.117.282-4.994.07-7.453,3.234h0Zm62.325-2.672q-5.273,1.83-4.078,5.133a2.8,2.8,0,0,0,2.742,1.125,2.482,2.482,0,0,1,1.406.07,8.018,8.018,0,0,1,.774,4.571q0.422,11.321-.281,29.39a3.654,3.654,0,0,0,.914,2.6q2.39,1.758,4.5-.7a6.163,6.163,0,0,0,1.9-5.625,56.2,56.2,0,0,1-1.758-11.321q-0.07-2.109,1.618-2.32a80.07,80.07,0,0,1,15.609.352,15.555,15.555,0,0,0,5.625.211q2.672-.562,3.164-2.532,0.281-1.335-1.9-2.953-1.477-.843-4.922-0.211a90.608,90.608,0,0,1-17.578.7,1.719,1.719,0,0,1-1.688-1.9,63.438,63.438,0,0,1,.7-10.336q0.28-1.476,2.25-1.688a139.715,139.715,0,0,1,20.039.493,47.735,47.735,0,0,0,7.313,0,18.143,18.143,0,0,0,2.812-2.532q2.462-3.163-.14-4.078-10.689,2.109-27.211,1.477-8.437-.984-11.813.07h0Zm55.153,8.789a25.62,25.62,0,0,0-3.586,22.289,18.644,18.644,0,0,0,8.86,10.055q14.2,7.313,26.437-2.531,2.038-1.9,2.18-.071a5.844,5.844,0,0,0,1.687,3.938q2.6,1.9,4.36-1.547a8.986,8.986,0,0,0,.211-2.32,54.192,54.192,0,0,1-.141-7.735,2.5,2.5,0,0,1,2.039-2.39,7.081,7.081,0,0,0,4.5-2.18q2.6-2.672-.422-3.586-12.165.282-24.047,0.281a5.948,5.948,0,0,0-5.554,3.164q-1.054,2.252,1.265,3.094,2.461,0.774,8.016-1.195a11.939,11.939,0,0,1,5.906-.352,2.13,2.13,0,0,1,1.547,2.391q-0.633,3.516-5.414,6.187a19.009,19.009,0,0,1-17.578,1.336q-6.4-3.654-7.664-10.125a22.063,22.063,0,0,1,1.266-13.078q2.109-6.186,9.07-9.492,5.7-2.389,12.8-.211a12.683,12.683,0,0,1,6.609,5.063l1.477,2.812q2.952,3.728,6.539-1.547,0.984-1.9-.492-2.672a9.952,9.952,0,0,1-2.743-2.461,14.425,14.425,0,0,0-5.414-4.429,26,26,0,0,0-15.187-2.321q-9.282,1.127-16.524,9.633h0Zm61.13-5.765a15.771,15.771,0,0,0,1.2,5.625,25.611,25.611,0,0,1,.563,6.539,2.506,2.506,0,0,1-1.9,2.531,9.915,9.915,0,0,0-3.8,2.953q-1.125,3.306,2.532,3.8,2.248-.141,1.9,1.406a33.608,33.608,0,0,1-3.375,9.422q-2.812,4.078-.844,6.539a5.583,5.583,0,0,0,3.305,1.969,3.316,3.316,0,0,0,3.656-2.32,75.174,75.174,0,0,0,3.516-16.172,2.525,2.525,0,0,1,1.969-2.461q12.373-2.462,21.937-.422,2.109,0.564,2.11,2.25-0.212,5.063-.7,10.125a9.723,9.723,0,0,0,.563,5.625,5.278,5.278,0,0,0,2.32,2.883q2.32,0.913,3.516-1.547,1.617-2.883.141-10.2a35,35,0,0,1-.915-5.554,2.574,2.574,0,0,1,1.969-2.883q3.375-1.827,3.727-4.781a1.235,1.235,0,0,0-.985-1.828,8.932,8.932,0,0,0-2.953.07q-2.109.141-2.109-1.547a37.991,37.991,0,0,1,1.547-11.531q2.248-4.641-3.586-3.657-3.939.915-3.375,4.711,0.563,3.868.844,10.9A1.638,1.638,0,0,1,474.1,490.5a168.633,168.633,0,0,1-21.656.211q-2.181-.069-2.18-1.828a44.617,44.617,0,0,0-2.25-15.821q-2.179-2.389-3.8.352a5.633,5.633,0,0,0-1.2,2.813h0Zm56.841-2.743q-2.04.845-1.477,3.727,2.883,14.2.774,32.344,0,4.57,1.757,6.4a2.768,2.768,0,0,0,4.078.211,6.86,6.86,0,0,0,1.547-6.328l-0.914-5.625q-2.179-15.117.7-27.422a4.177,4.177,0,0,0-.7-3.164,5.22,5.22,0,0,0-2.812-.7,20.134,20.134,0,0,1-2.953.562h0ZM550.1,475.1a18.9,18.9,0,0,0,.984,6.75,62.858,62.858,0,0,1,1.336,20.32q-1.2,7.593-7.453,9.281a27.354,27.354,0,0,1-10.969.7q-6.821-1.827-6.258-7.8,0.212-2.179-.351-2.672-3.517-1.478-6.117,2.953-1.9,4.43,2.6,8.367a14.582,14.582,0,0,0,8.438,3.445q10.615,1.2,14.836-.07,7.593-2.109,9.843-7.875a29.7,29.7,0,0,0,.633-12.867,50.9,50.9,0,0,1,1.125-20.18,2.87,2.87,0,0,0,.071-1.406q-1.056-2.532-3.727-1.336a21.283,21.283,0,0,0-3.445,0A2.973,2.973,0,0,0,550.1,475.1h0Zm56.348-.211q-0.282,3.163-5.343,6.117a89.034,89.034,0,0,1-21.8,9.773q-2.11.564-2.11-1.125a68.435,68.435,0,0,1,1.828-13.078q0.351-2.46-.281-3.094a2.543,2.543,0,0,0-2.531-.632q-2.885-.28-3.8.281a2.727,2.727,0,0,0-1.336,1.9,24.833,24.833,0,0,0,.774,5.485,84.283,84.283,0,0,1,.632,18.632q-0.353,6.892-.984,11.25a7.7,7.7,0,0,0,1.406,5.625q2.742,3.165,5.485-.421,2.178-2.953.773-5.625a83.8,83.8,0,0,1-1.617-10.688q-0.143-2.25,1.406-2.742l2.25-.7q2.109-.774,4.359,1.125,3.516,3.024,7.032,6.258,8.295,8.438,13.289,12.656,4.641,1.758,8.226-.071,2.532-1.194,2.039-2.671a6.916,6.916,0,0,0-2.25-1.336q-12.516-5.062-24.4-17.157-1.548-1.545.352-2.39,4.92-2.179,9.773-4.711,5.625-3.164,11.25-6.68,3.164-1.757,1.617-5.2-1.9-3.865-5.2-3.726a2.635,2.635,0,0,0-.844,2.953h0Zm22.388,33.187q-0.212,2.181-.985,2.672a6.788,6.788,0,0,0-4.64,4.922q0.7,3.306,4.289,1.828a52.333,52.333,0,0,1,22.711-1.617q5.624,0.843,11.25,1.406a7.768,7.768,0,0,0,7.1-2.25q3.656-3.726,2.532-5.484-0.282-.351-2.953.211-12.728,2.461-30.235,1.336a3.082,3.082,0,0,1-2.672-2.18,107.752,107.752,0,0,1,1.336-33.188,4.475,4.475,0,0,0-.914-2.812,5.345,5.345,0,0,0-4.711-.914q-2.391-.772-3.094,2.18a107.785,107.785,0,0,1,.985,33.89h0Zm100.715-35.016q-2.742-.7-3.234,1.688a6.31,6.31,0,0,1-1.055,2.812q-5.415,7.736-14.132,25.313-0.564,1.548-1.336,1.195a4.761,4.761,0,0,1-1.477-2.32l-6.961-14.062q-2.812-5.625-5.344-11.25a5.1,5.1,0,0,0-4.64-3.727q-4.361-.281-6.68,2.039-2.462,2.6.211,3.8,2.532,0.352,2.531,3.234,0.211,4.219.141,8.438-1.125,11.954-5.625,19.476-1.758,3.657.211,6.258,3.585,2.742,5.836-1.547a20.423,20.423,0,0,0,2.109-5.625,79.158,79.158,0,0,0,1.758-26.3,3.078,3.078,0,0,1,.352-1.968q0.351-.141,1.406,1.757a144.462,144.462,0,0,1,7.664,14.977q3.3,7.736,3.515,11.25a2.814,2.814,0,0,0,2.04,2.32,10.668,10.668,0,0,0,3.656.282q3.655-.07,4.781-4.29,3.375-10.686,13.5-25.312,2.46-4.359,2.109-.773,0.141,10.335,0,20.39l-0.421,5.906a46.059,46.059,0,0,0-.493,7.032q0.633,3.024,3.516,2.672,1.827-.212,3.094-2.6,1.688-2.811.07-7.875-1.97-19.476,0-29.039,1.124-2.672-.773-4.149a2.142,2.142,0,0,0-2.321-.281,12.562,12.562,0,0,1-4.008.281h0Zm55.857,1.055q2.811,12.8,1.2,30.445-0.212,2.181-2.039.7a97.765,97.765,0,0,1-7.805-8.157q-12.165-13.357-16.664-22.5-1.054-3.726-4.64-2.109-3.518,1.407-3.094,4.008a19.47,19.47,0,0,1,3.164,7.8,41.588,41.588,0,0,1-6.047,24.258q-3.869,4.712.07,8.3,2.321,1.688,4.149-.844,5.484-10.4,5.625-16.875,0.561-5.694.562-12.234-0.282-2.109,1.9,0a132.492,132.492,0,0,1,9.211,10.266,103.5,103.5,0,0,1,12.164,16.875q2.178,2.952,5.484.562,5.2-2.46,4.008-6.047a114.95,114.95,0,0,1-.211-27.14,17.128,17.128,0,0,1,1.687-5.555q0.633-3.375-3.515-3.937a7.641,7.641,0,0,0-4.36.421,2.115,2.115,0,0,0-.843,1.758h0Zm41.3-.7q-6.47.564-14.062,6.82a17.553,17.553,0,0,0-3.727,5.625q-4.782,9.846-.07,22.219a15.541,15.541,0,0,0,4.57,5.344,21.5,21.5,0,0,0,11.25,4.359,29.193,29.193,0,0,0,13.5-1.547q9.351-3.3,13.641-13.007,3.726-12.514-5.133-23.274-5.836-6.046-11.391-6.961a5.753,5.753,0,0,1-2.742-1.476,2.629,2.629,0,0,0-3.867.632,5.942,5.942,0,0,1-1.969,1.266h0Zm10.266,5.344q8.295,4.361,10.125,12.445a20.271,20.271,0,0,1-2.11,12.235q-4.359,6.821-10.335,8.648-4.29,1.618-12.235.141-8.087-2.179-9.633-11.391a22.732,22.732,0,0,1,1.125-12.445q4.922-12.093,17.438-10.9a18.912,18.912,0,0,1,5.625,1.266h0Zm40.528-5.344a46.83,46.83,0,0,0-9.352.281,9.547,9.547,0,0,0-5.625,2.6q-1.617,1.688-1.546,2.812a1.676,1.676,0,0,0,2.179,1.407,4.564,4.564,0,0,1,1.688.351,11.081,11.081,0,0,1,.914,5.344q0.912,16.031-.633,26.719a6.256,6.256,0,0,0,.422,3.3q2.671,2.814,5.133-.211a8.9,8.9,0,0,0,1.687-6.187,62.061,62.061,0,0,1-.984-8.016,2.025,2.025,0,0,1,1.9-2.25q2.813-.351,5.555-0.492,16.1,0.7,25.172-2.531a9.678,9.678,0,0,0,4.359-5.063,13.279,13.279,0,0,0,1.125-7.031,12.616,12.616,0,0,0-6.328-10.406q-7.1-2.883-18.422-.633H877.5Zm22.359,6.328q6.328,5.415,1.2,11.672a7.088,7.088,0,0,1-4.149,2.039q-9.844,2.04-23.344.211a2.212,2.212,0,0,1-2.039-2.531l0.071-7.875a4.264,4.264,0,0,1,2.32-4.711,58.53,58.53,0,0,1,8.508-1.125q11.531-.281,17.437,2.32h0Zm41.372-7.031A38.925,38.925,0,0,0,931.387,477q-11.883,9.282-10.195,21.164,0.563,9.914,9.352,16.172,10.194,5.415,22.64,1.547a3.738,3.738,0,0,1,3.8.7,17.671,17.671,0,0,0,4.781,3.867q2.25,0.563,7.032-1.969,2.321-1.405,1.828-2.812-0.985-1.054-3.3-.7a32.887,32.887,0,0,1-5.555-1.407q-2.179-1.054-.21-2.882a19.883,19.883,0,0,0,5.062-9.844q2.46-9.561-3.727-19.336-6.187-8.718-16.242-9.281-2.25-1.2-3.093-.985a18.471,18.471,0,0,0-2.321,1.477h0Zm19.617,16.031a22.249,22.249,0,0,1-4.218,18.844,3.226,3.226,0,0,1-4.219.352,15.333,15.333,0,0,1-4.43-4.29,6.376,6.376,0,0,0-1.265-2.46q-1.126-.844-2.532.562a5.064,5.064,0,0,0-1.9,3.445q-0.352,2.252,2.672,3.094l3.445,1.969q2.109,1.407.422,1.969a21.009,21.009,0,0,1-12.375-.7,13.143,13.143,0,0,1-5.484-4.218q-3.869-4.853-3.727-12.516a19.6,19.6,0,0,1,3.3-10.828q10.125-9.984,21.093-5.273,6.962,3.728,9.211,10.054h0Zm27.521-15.68q-6.611.211-9.492,3.868-1.9,2.462.562,3.234,2.46-.49,2.953,1.336,1.477,9.563.211,28.477a14.355,14.355,0,0,0-.141,5.625,2.7,2.7,0,0,0,2.532,1.687q2.321-.069,3.586-2.953a9.2,9.2,0,0,0,.984-4.219,44.472,44.472,0,0,1-.984-8.367q-0.072-2.109,1.617-2.391a113.555,113.555,0,0,1,15.253-.632,3.158,3.158,0,0,1,2.75,1.687q3.3,5.415,6.89,10.828,3.3,5.274,6.33,5.274a15.632,15.632,0,0,0,8.64-2.039q2.325-2.812-.7-3.375a20.142,20.142,0,0,1-7.03-2.11q-3.585-2.249-7.45-8.437c-0.94-1.5-.85-2.367.28-2.6l3.09-.7q6.615-1.617,8.16-8.859a15.207,15.207,0,0,0-2.96-12.235,11.365,11.365,0,0,0-5.62-3.3,29.047,29.047,0,0,0-10.34-.493q-5.625,1.2-19.121.7h0Zm28.551,6.4q5.97,5.063,1.82,11.039a5.891,5.891,0,0,1-4.14,2.531q-9.855,2.181-23.911.422-2.109-.421-2.109-2.109,0-5.413.281-10.617a3.249,3.249,0,0,1,1.406-2.039,9.019,9.019,0,0,1,2.813-.774,52.936,52.936,0,0,1,5.273-.7q11.666-.562,18.567,2.25h0Zm29.48-3.656a10.646,10.646,0,0,0-3.72,6.187q-1.065,7.454,4.92,11.32,6.75,2.885,16.87,3.024a48.262,48.262,0,0,1,5.63.633q6.255,1.9,4.71,8.578-0.78,2.953-4.36,5.062-14.205,4.993-27.21-5.2c-1.27-1.452-2.6-1.944-4.01-1.476-0.61.235-.91,0.938-0.91,2.109a10.6,10.6,0,0,0,3.73,6.188,36.189,36.189,0,0,0,16.87,4.711q8.865,0.774,14.7-2.11a15.7,15.7,0,0,0,5.48-4.289,12.386,12.386,0,0,0,1.9-11.25,10.484,10.484,0,0,0-4.22-5.273,16.936,16.936,0,0,0-8.44-2.954,54.55,54.55,0,0,1-15.61-1.968c-2.44-.656-3.84-1.945-4.22-3.867q-0.705-4.641,4.01-6.68,8.445-2.672,15.26.281,4.29,1.758,6.33,1.055a6.726,6.726,0,0,0,3.65-5.836q-0.21-2.883-3.16-1.2a12.735,12.735,0,0,1-2.81.773,17.685,17.685,0,0,1-5.35-.844,54.652,54.652,0,0,0-10.12-.562,19.881,19.881,0,0,0-9.92,3.586h0Zm90.31-2.532-17.79-.211q-14.76.915-21.02,0.7-3.93-.633-6.47,4.078a2.12,2.12,0,0,0,1.62,2.883,6.611,6.611,0,0,0,3.16.351,78.372,78.372,0,0,1,15.75-3.3c1.5-.046,2.3.446,2.39,1.477a143.11,143.11,0,0,1-.91,31.008,6.761,6.761,0,0,0,1.76,5.554,3.8,3.8,0,0,0,3.65,1.2q4.44-2.811,2.47-7.031a39.827,39.827,0,0,1-1.83-8.438,68.463,68.463,0,0,1,1.83-22.008c0.32-1.406,1.05-2.109,2.18-2.109a44.145,44.145,0,0,1,11.39,1.336q5.895,1.125,9-2.461c1.17-1.219,1.4-2.25.7-3.094a3.361,3.361,0,0,0-2.53-.281Zm19.3,2.6a94.079,94.079,0,0,1,.42,18.07q-1.125,8.51.84,14.274a14.671,14.671,0,0,0,10.2,7.664,31.446,31.446,0,0,0,25.45-5.344,14.465,14.465,0,0,0,4.36-5.484,18,18,0,0,0,1.27-5.625,81.69,81.69,0,0,1,1.54-23.133q0.21-4.077-4.36-3.656-4.14,1.336-2.95,6.679,0.135,9.282,0,18.563-0.075,8.508-8.79,12.234-10.545,3.587-18.49-1.195a10.264,10.264,0,0,1-3.8-6.891,86.874,86.874,0,0,1,2.53-24.539,4.753,4.753,0,0,0-1.12-4.078q-2.745-2.811-5.98-.281a2.582,2.582,0,0,0-1.12,2.742h0Zm54.66-3.445c-2.16,1.125-2.95,2.274-2.39,3.445q9.06,15.469,18.42,30.937a32.869,32.869,0,0,1,2.32,5.626q0.7,4.851,5.13,4.148,4.08-.844,3.73-4.148,0.285-1.828,3.09-5.626l9.92-16.874a122.415,122.415,0,0,0,6.04-11.25q2.115-3.8,2.04-5.626-0.915-2.531-3.72-1.054l-2.82.914a2.316,2.316,0,0,0-1.05.562,13.381,13.381,0,0,0-.84,3.094q-3.585,13.922-15.05,30.445-1.41,1.477-2.95-.351a42.389,42.389,0,0,1-6.47-9.844q-2.955-5.625-5.63-11.25a64.1,64.1,0,0,1-4.43-11.25q0.705-4.077-3.3-2.812a9.033,9.033,0,0,0-2.04.914h0Zm57.61,1.336q-1.545,2.461.42,5.836,4.365,9,9.36,22.5a84.861,84.861,0,0,1,3.86,11.25q0.285,4.149,3.94,3.586a12.524,12.524,0,0,1,2.25-.352q3.165,0.141,4.08-3.938a37.906,37.906,0,0,1,2.04-5.625,160,160,0,0,0,6.75-22.007c0.33-1.078.65-.914,0.98,0.492a126.025,126.025,0,0,0,4.78,15.4,108.638,108.638,0,0,1,3.59,11.25,4.754,4.754,0,0,0,3.59,4.641c2.99,0.516,4.78-.82,5.34-4.008a48.87,48.87,0,0,1,4.85-14.062l4.85-11.25a56.263,56.263,0,0,1,6.33-11.25q3.03-3.655-1.19-4.43a6.441,6.441,0,0,0-5.21,1.476,2.627,2.627,0,0,0-.56,1.2,18.417,18.417,0,0,0-1.55,4.078q-5.9,18.141-10.68,27.633c-0.9,1.36-1.62,1.406-2.18.14q-5.775-11.6-7.6-29.039a3.971,3.971,0,0,0-.63-3.515q-3.03-3.3-7.38-.352a5.032,5.032,0,0,0-.71,3.375,94.736,94.736,0,0,1-9.28,30.586q-1.125,2.321-2.11.633-2.805-5.484-5.13-10.758a100.676,100.676,0,0,1-6.26-22.5q0.36-5.343-4.08-2.812a5.568,5.568,0,0,0-2.46,1.828h0Zm84.55,7.453q5.265,4.851,10.54,9.422a2.544,2.544,0,0,1,.14,4.078q-9.06,9.071-17.93,18.14-1.755,2.814,1.41,3.446a8.734,8.734,0,0,0,6.47-1.688,166.566,166.566,0,0,1,13.64-16.875q1.755-1.9,3.3-.211,9.36,10.407,12.24,16.1,1.335,2.813,3.58,3.164a13.921,13.921,0,0,0,5.63-1.477c2.44-.656,3.02-1.663,1.76-3.023q-8.655-4.781-18.99-16.875-1.755-1.757.35-3.516,8.52-7.662,13.15-11.39,3.375-4.289.57-7.1c-2.35-1.171-4.29-.375-5.84,2.391a65.247,65.247,0,0,1-10.55,13.007q-2.1,2.041-4.08-.07-9.69-8.859-12.02-14.836-1.2-1.757-3.51-.633-5.28,3.939.14,7.946h0Zm75.4,8.437q-1.965,2.181-4.22-.351a65.9,65.9,0,0,1-11.6-10.9,21.519,21.519,0,0,1-4.01-5.625q-0.915-1.545-3.23-.211-3.735,3.165-1.41,6.4,4.215,2.954,8.44,6.117a55.687,55.687,0,0,1,10.47,10.617,12.379,12.379,0,0,1,1.55,7.945q-0.21,4.15-.7,8.227-0.42,6.611,5.06,4.219,3.03-2.109,2.67-3.867a54.553,54.553,0,0,1-1.26-8.438q-0.57-5.906.56-8.086a22.144,22.144,0,0,1,5.13-6.469,125.73,125.73,0,0,1,14.28-12.726c1.07-.8,1.5-1.57,1.26-2.32-0.37-1.078-1.76-1.875-4.15-2.391q-3.51-1.055-4.71,2.672-4.29,7.593-14.13,15.187h0Zm32.65-12.023a1.946,1.946,0,0,0,1.2,1.547,17.853,17.853,0,0,0,5.9-.492,130.419,130.419,0,0,1,21.59-1.336c1.41,0.047,2.11.164,2.11,0.351q-15.33,19.266-31.71,30.375a12.251,12.251,0,0,0-2.46,2.18q-0.63,2.883,2.88,6.4,2.325,1.548,6.33.071a47.2,47.2,0,0,1,13.43-.7,116.2,116.2,0,0,0,13.57.844q5.97,0.143,7.73-5.555,0.15-2.811-2.81-1.687a208.455,208.455,0,0,1-29.04,1.195c-1.45-.186-1.64-0.89-0.56-2.109q14.7-15.609,28.62-27.773,1.965-1.125,2.04-2.532c0.18-.937-0.26-2.343-1.34-4.218q-1.755-2.461-4.01-2.11a132.011,132.011,0,0,1-24.4.563,7.811,7.811,0,0,1-2.67-.914q-1.26-.7-3.87,1.054a5.713,5.713,0,0,0-2.53,4.852h0Z"/>
  <path id="logo" class="cls-1" d="M706.266,1194.7a45.969,45.969,0,0,0-.118,5.15v5.16H677.555v-1.17l0.234-.94-1.406-.24c-1.1,0-2.659-.07-4.688-0.23h-3.281l-0.469,2.58a45.646,45.646,0,0,1-1.172,4.92,22.619,22.619,0,0,1-1.406,4.22,7.125,7.125,0,0,0-.82,2.23,6.584,6.584,0,0,0,2.109-.71c1.326-.54,2.615-1.13,3.867-1.76a11.566,11.566,0,0,0,3.516-2.81l1.641-1.64h66.8l1.875,1.88a14.477,14.477,0,0,0,3.75,2.81c1.406,0.62,2.655,1.17,3.75,1.64a1.036,1.036,0,1,0,1.171-1.17,17.1,17.1,0,0,1-1.406-3.99q-0.7-2.34-1.172-4.68a11.9,11.9,0,0,0-.7-3.05c0-.47-1.252-0.62-3.75-0.47-1.875.16-3.281,0.23-4.219,0.23a2.052,2.052,0,0,1-.937.24c-0.315,0-.469.31-0.469,0.94l0.235,0.93-13.594.24q-13.359,0-13.36-.24a2.838,2.838,0,0,1,.7-1.05,6.664,6.664,0,0,0,1.171-2.46,15.728,15.728,0,0,0,.469-4.22v-2.58h-4.687Q706.382,1194.46,706.266,1194.7Zm-31.289,28.12v4.22l21.093,0.23h21.094l-5.859,4.93q-5.4,4.215-8.2,6.56l-2.344,1.87v6.8H660.445v4.22h40.313v14.76c0,10.01-.158,15.47-0.469,16.41a13.152,13.152,0,0,1-1.172,3.05,21,21,0,0,1-2.578,3.04,16.962,16.962,0,0,1-3.75,2.82c-1.406.62-2.109,1.17-2.109,1.64s0.153,0.7.468,0.7a30.375,30.375,0,0,0,3.047-.47,34.353,34.353,0,0,0,4.922-1.4,16.4,16.4,0,0,0,4.688-1.88,11.74,11.74,0,0,0,3.515-2.34,12.264,12.264,0,0,0,2.344-2.58,13,13,0,0,0,1.172-2.58c0.311-.94.469-6.4,0.469-16.41v-14.76h38.2v-4.22h-38.2v-6.8l2.109-1.64q2.109-1.635,8.438-6.79,6.327-5.4,8.437-7.04a13.637,13.637,0,0,0,2.578-2.34q0-.225-28.828-0.23t-29.062.23h0Zm121.64-30.23-0.469,1.87a27.635,27.635,0,0,1-1.523,5.74c-0.861,2.43-1.681,4.65-2.461,6.68q-1.176,2.58-3.281,6.8-1.88,3.75-4.453,8.44-2.11,3.75-4.688,7.73-2.582,4.215-3.047,4.92a7.818,7.818,0,0,0-1.406,2.11c-0.157.47-.117,0.71,0.117,0.71a8.252,8.252,0,0,0,2.227-1.18q1.873-1.17,3.515-2.34,1.874-1.41,3.985-3.28a59.714,59.714,0,0,0,4.453-4.45l2.109-2.35,0.235,14.77,0.234,14.76h1.875a5.862,5.862,0,0,0,3.047-.7,5.457,5.457,0,0,0,1.875-1.17,11.374,11.374,0,0,0,1.406-1.64l0.469-.71h27.187v2.11l0.235,2.11h1.64a7.437,7.437,0,0,0,2.813-.47,9.072,9.072,0,0,0,2.109-1.17,4.666,4.666,0,0,0,1.407-1.64l0.7-.94h31.64v-4.45H838.336v-6.8H868.57v-4.45H838.336v-6.8H868.57v-4.68H838.336v-7.5H868.57v-4.69H837.164l0.938-1.17a23.668,23.668,0,0,0,1.406-2.35,6.445,6.445,0,0,0,.7-2.57,17.74,17.74,0,0,0,.469-4.93v-3.51H828.727v14.53H815.6q-13.129,0-13.125-.23c0-.16-0.158-0.24-0.469-0.24s0.311-1.41,1.875-4.22a69.182,69.182,0,0,0,3.281-7.5,16.732,16.732,0,0,0,1.406-3.98l0.235-1.17H796.617Zm31.406,22.03v7.5H802.477v-7.5h25.546Zm0,12.18v6.8H802.477v-6.8h25.546Zm0,11.25v6.8H802.477v-6.8h25.546Zm-3.515,16.88v5.16l-22.969.23H778.805v4.45h45.7v1.64c0,1.1-.081,1.64-0.235,1.64a40.222,40.222,0,0,1-4.687-1.17q-4.455-1.17-4.922-1.4-0.236,0-6.328,4.68-6.1,4.935-7.734,6.1-1.643.93-4.454,2.58a58.967,58.967,0,0,1-5.39,2.57q-2.812,1.185-5.391,2.23a35.226,35.226,0,0,1-5.859,1.76,17.416,17.416,0,0,0-3.047,1.05,6.06,6.06,0,0,0,1.289,1.06,3.994,3.994,0,0,0,1.992.94c0.469,0,2.344-.32,5.625-0.94s6.328-1.33,9.141-2.11q4.449-1.17,8.2-2.35a22.822,22.822,0,0,0,4.922-2.1q1.637-.945,9.14-6.1t7.618-5.04q0.115,0.12.117,13.48v13.12h1.406a7.357,7.357,0,0,0,2.813-.7,6.692,6.692,0,0,0,3.046-1.99,11.184,11.184,0,0,0,2.11-3.17,8.733,8.733,0,0,0,.586-2.34q0.115-1.17.117-6.33c0.154-4.68.271-7.11,0.352-7.26s1.442,0.55,4.1,2.11q3.982,2.1,6.8,3.51a34.945,34.945,0,0,0,6.328,2.58,54.282,54.282,0,0,0,6.328,1.64,52.974,52.974,0,0,0,5.625.94c1.718,0.16,4.219.23,7.5,0.23a38.521,38.521,0,0,0,5.86-.23,1.37,1.37,0,0,0,1.171-.94l0.235-1.17c0-.15-0.235-0.24-0.7-0.24-0.315,0-1.722-.23-4.219-0.7s-5-1.01-7.5-1.64q-3.516-.93-6.8-2.11-2.812-.93-5.625-2.11-2.346-1.17-10.078-6.33l-7.734-5.15,19.453-.24h19.453v-4.45H854.977l-20.157-.23v-2.58l-0.234-2.58H824.508Z"/>
</svg>
