<svg xmlns="http://www.w3.org/2000/svg" width="400" height="200" viewBox="0 0 400 200">
  <defs>
    <style>
      .cls-1 {
        fill: #fdfdfd;
        fill-rule: evenodd;
      }
    </style>
  </defs>
  <path id="思源黑体" class="cls-1" d="M125.9,86.3h-14.22v-7.56H125.9V86.3Zm0,11.4h-14.22v-7.62H125.9V97.7ZM92.72,90.081H107.3V97.7H92.72v-7.62Zm0-11.34H107.3V86.3H92.72v-7.56Zm37.559-3.96H88.52V101.66h41.759V74.781Zm-12.24,36.539a53.8,53.8,0,0,0-12.539-8.46l-2.94,2.7c4.44,2.4,9.839,6.06,12.419,8.76ZM86.78,123.859c2.94-3.84,5.04-10.079,6.48-15l-3.96-1.38c-1.32,4.68-3.6,10.56-6.54,14.279Zm18.66-2.28c-3.36,0-3.96-.3-3.96-1.98V107.78H97.04v11.879c0,4.74,1.68,6.06,8.1,6.06H117.2c5.46,0,6.9-2.04,7.5-10.139a13.968,13.968,0,0,1-4.14-1.68c-0.3,6.719-.78,7.679-3.72,7.679h-11.4Zm18.6-13.139c3.42,4.68,6.9,10.919,8.1,14.939l4.32-1.92c-1.38-4.079-4.979-10.139-8.459-14.639Zm33.6-29.219a113.373,113.373,0,0,0-10.02-6.36l-2.58,3.06c3.24,2.1,7.68,5.04,9.96,6.84Zm-2.82,15.6c-2.34-1.62-6.9-4.14-10.14-5.94L142.1,92a99.206,99.206,0,0,1,10.079,6.42Zm-2.34,9.6a189.131,189.131,0,0,1-9.12,19.2l3.96,2.46c2.82-5.52,6.18-12.9,8.64-19.2Zm11.88-25.259h32.1v-4.08H159.98V91.461c0,9.839-.6,23.339-7.38,32.938a13.616,13.616,0,0,1,3.66,2.34c7.08-10.019,8.1-24.839,8.1-35.278v-12.3ZM169.879,110a40.493,40.493,0,0,1-7.139,11.1,33.8,33.8,0,0,1,3.6,2.28,59.5,59.5,0,0,0,7.559-12.3Zm1.92-12.06h18.24v5.28H171.8V97.94Zm0-8.46h18.24V94.7H171.8v-5.22Zm22.379,17.159V86.061H181.1c0.78-1.56,1.62-3.3,2.46-5.04L178.579,80a59.619,59.619,0,0,1-1.74,6.06h-9.06V106.64h10.74v15.6c0,0.66-.24.84-1.02,0.9-0.66,0-3.3.06-6.18-.06a15.974,15.974,0,0,1,1.26,3.84c4.02,0.06,6.54.06,8.16-.6,1.68-.66,2.04-1.8,2.04-4.02V106.64h11.4Zm-7.379,4.38a118.939,118.939,0,0,1,6.6,11.759l4.08-1.8c-1.5-2.879-4.5-7.8-6.839-11.459Zm50.52-20.7c1.56-2.4,3.54-6.12,5.22-9.36l-3.48-1.32a62.88,62.88,0,0,1-4.62,9.48Zm-20.579-9.6a36,36,0,0,1,3.72,8.94l3.12-1.2a31.3,31.3,0,0,0-3.9-8.76Zm-3.36,10.439V78.2h13.979V91.161H213.38Zm32.159,0h-13.8V78.2h13.8V91.161Zm10.619,17.759H231.739v-5.4h19.38V99.86h-19.38v-4.92h18.24V74.421H209.12V94.941h18.239v4.92H208.1v3.66h19.259v5.4H203.18v3.96h52.978v-3.96Zm-48.778,18.3c2.88-2.7,5.28-7.08,6.78-10.919l-4.26-1.02a26.689,26.689,0,0,1-6.66,9.959ZM220.1,116.78a57.06,57.06,0,0,1,1.08,9.839l4.38-.6a45.8,45.8,0,0,0-1.32-9.539Zm12.3,0.12a69.847,69.847,0,0,1,3.18,9.719l4.38-1.08a55.7,55.7,0,0,0-3.42-9.479Zm12.12-.24a60.361,60.361,0,0,1,7.619,10.379l4.32-1.68a56.842,56.842,0,0,0-7.919-10.079ZM274.88,72.381c-3,9.06-7.86,18-13.139,23.819a33.36,33.36,0,0,1,2.579,4.38,64.268,64.268,0,0,0,5.1-6.9v33.179h4.26V86.3a101.154,101.154,0,0,0,5.34-12.659Zm41.758,16.139V84.2H298.759V72.381h-4.32V84.2h-16.8v4.32h14.1c-3.66,10.14-9.9,20.279-16.439,25.5a21.464,21.464,0,0,1,3.24,3.36c6.3-5.76,12.059-15.6,15.9-25.979v20.4H284.66v4.08h9.779v10.739h4.32V115.88h9.66V111.8h-9.66V90.981c3.66,10.439,9.42,20.519,15.719,26.279a15.761,15.761,0,0,1,3.36-3.54c-6.479-5.22-12.659-15.18-16.2-25.2h15Z"/>
</svg>
