<svg xmlns="http://www.w3.org/2000/svg" width="400" height="200" viewBox="0 0 400 200">
  <defs>
    <style>
      .cls-1 {
        fill: #fdfdfd;
        fill-rule: evenodd;
      }
    </style>
  </defs>
  <path id="贤二体" class="cls-1" d="M109.663,67.625a5.257,5.257,0,0,0,.108,1.26,4.1,4.1,0,0,1,.108,1.044,4.79,4.79,0,0,0,.252,1.44,15.88,15.88,0,0,1,.432,1.692q0.18,0.9.576,2.412t0.72,3.348q0.324,1.836,1.512,6.444A46.379,46.379,0,0,1,114.6,90.7q0.036,0.829.18,2.772h0.72a7.86,7.86,0,0,1,.72-1.26,7.117,7.117,0,0,1,.72-0.684q0.5-.432.216-2.052a3.03,3.03,0,0,1,.684-2.7,4.245,4.245,0,0,0,.864-3.168,25.942,25.942,0,0,0-.324-3.24,29.743,29.743,0,0,1-.36-3.24,10.416,10.416,0,0,0-.324-2.016q-0.252-.935-0.36-1.512a3.886,3.886,0,0,0-.4-1.116q-0.288-.54-1.224-1.98l-0.72-1.08a4.449,4.449,0,0,1-.828-0.54,2.422,2.422,0,0,0-1.4-.36,3.513,3.513,0,0,1-1.476-.288,1.262,1.262,0,0,0-.684-0.216,2.539,2.539,0,0,1-.432.036l-0.432-.432h-0.072Zm13.032,1.8a7.338,7.338,0,0,0,.792,3.456l1.368,0.792,0.072,0.432,0.576,0.36-0.36.36,0.792,0.576a22.747,22.747,0,0,0,2.52.864,8.769,8.769,0,0,0,1.8.252,11.035,11.035,0,0,1,2.124.324q1.188,0.289,1.692.36a23.167,23.167,0,0,1-.792,5.472l-0.576.216a4.058,4.058,0,0,1-1.26-.792,1.5,1.5,0,0,0-.792-0.468q-0.468-.108-1.116-0.324a16.654,16.654,0,0,1-1.944-.864l-0.5.216-0.864-.288-0.432-.72v1.116a6.215,6.215,0,0,0,.18,1.44,7.316,7.316,0,0,0,.648,1.656,5.317,5.317,0,0,1,.5,1.152,0.856,0.856,0,0,1-.252.612l1.8,2.592a0.872,0.872,0,0,0,.432.036,0.562,0.562,0,0,1,.468.216,5.083,5.083,0,0,0,1.044.684,10.944,10.944,0,0,1-3.456,4.536l-1.224.648,0.216,0.432a3.207,3.207,0,0,0,2.448.36,27.376,27.376,0,0,0,3.888-3.6l1.08-.576,0.5-.5,1.62,0.54a3.149,3.149,0,0,0,1.188.144,2.08,2.08,0,0,1,1.116.216,12.784,12.784,0,0,0,1.4.612,16.809,16.809,0,0,0,4.9.288l-0.072-.288-0.864-.576-1.368-1.512-2.376-1.584q-0.216-.432-0.36-0.756a2.55,2.55,0,0,0-.9-0.828,1.419,1.419,0,0,1-.756-0.792,0.369,0.369,0,0,1,.144-0.36,0.808,0.808,0,0,0,.288-0.288h0.432a14.27,14.27,0,0,1,1.116-2.376,8.035,8.035,0,0,0,.828-1.764,7.781,7.781,0,0,1,.756-1.656,2.163,2.163,0,0,0,.252-1.548,6.077,6.077,0,0,1-.216-3.1,12.086,12.086,0,0,0-1.4-.972q-0.468-.251-1.116-0.684a4.441,4.441,0,0,0-1.332-.612,5.271,5.271,0,0,0-1.548-.144,15.439,15.439,0,0,1-3.456-.612,24.774,24.774,0,0,0-4.392-.756,5.166,5.166,0,0,1-2.3-.468,1.023,1.023,0,0,0-.864-0.252,0.888,0.888,0,0,1-.612,0,5.9,5.9,0,0,0-.9-0.252ZM99.367,71.441a0.971,0.971,0,0,0,.468.468q0.467,0.324.612,2.3t0.108,3.492a9.183,9.183,0,0,0,.5,3.132,16.24,16.24,0,0,0,1.008,2.484,4.363,4.363,0,0,0,1.044,1.332,0.956,0.956,0,0,1,.468.936,2.891,2.891,0,0,0,.36,1.548,5.054,5.054,0,0,0,.9,1.512,1.162,1.162,0,0,1,.4.5,0.45,0.45,0,0,0,.036.288l0.864-.5a7.069,7.069,0,0,0-.036-2.2,1.8,1.8,0,0,1,.108-1.3,14.916,14.916,0,0,0,.648-1.44,7.147,7.147,0,0,0,.18-2.988,26.749,26.749,0,0,1-.072-3.888,2.65,2.65,0,0,0-.72-2.412,10.834,10.834,0,0,1-1.908-1.98q-0.5-.287-1.044-0.648a1.989,1.989,0,0,0-1.116-.36,1.61,1.61,0,0,1-.9-0.216,1.153,1.153,0,0,0-.756-0.18,1.254,1.254,0,0,1-.648-0.072,3.389,3.389,0,0,1-.5-0.324v0.5Zm9.36,25.992a18.1,18.1,0,0,1,.108,2.2,1.119,1.119,0,0,0,.4.936,3.335,3.335,0,0,1,.756,1.476,12.073,12.073,0,0,1,.324,3.24,10.291,10.291,0,0,0,.72,3.924,12.5,12.5,0,0,0,1.332,2.592q0.612,0.829,1.008,1.332a5.094,5.094,0,0,1,.72,1.4q0.324,0.9,1.476,3.492l0.648,0.432,0.432-.072a1.281,1.281,0,0,1,.18-0.792,1.275,1.275,0,0,0,.216-0.72,5.315,5.315,0,0,1,.252-1.188,7.164,7.164,0,0,0,.288-1.584,11.792,11.792,0,0,1,.324-1.908,8.571,8.571,0,0,0,.252-2.088,7.253,7.253,0,0,1,.144-1.656,2.584,2.584,0,0,0,.108-0.864,7.565,7.565,0,0,1-.036-0.864l-0.36-2.16v-0.576a9.455,9.455,0,0,1-.4-1.548,2.47,2.47,0,0,0-1.152-1.62,9.724,9.724,0,0,1-1.4-1.08l-0.432.144q-0.936-.791-1.3-1.116a1.182,1.182,0,0,0-.972-0.252,2.6,2.6,0,0,1-1.08-.072,2.006,2.006,0,0,1-.72-0.36,0.581,0.581,0,0,0-.54-0.144,3.4,3.4,0,0,1-.792.072Zm10.152,3.24,2.376,1.584a2.476,2.476,0,0,0,1.044.936,22,22,0,0,0,3.312.612,8.042,8.042,0,0,0,3.672,0,6.171,6.171,0,0,1,3.024-.108,11.913,11.913,0,0,1,2.232.4,0.559,0.559,0,0,0,.4.108,6.928,6.928,0,0,0,.4,1.4,9.091,9.091,0,0,1,.144,2.952,22.809,22.809,0,0,1-.468,3.924,19.547,19.547,0,0,1-.576,2.16q-0.216.577-.792,1.728l0.432,0.288h0.648a9.225,9.225,0,0,0,3.384-4.608l1.008-.648a16.037,16.037,0,0,1,.864-2.2,9.159,9.159,0,0,0,.684-2.016q0.324-1.33.72-3.312t0.612-2.916a1.269,1.269,0,0,0-.4-0.288c-0.12-.047-0.336-0.144-0.648-0.288a1.876,1.876,0,0,0-.936-0.18,1.68,1.68,0,0,1-.9-0.18,3.793,3.793,0,0,0-1.44-.252,18.366,18.366,0,0,0-1.98.036,4.341,4.341,0,0,1-1.908-.288,10.769,10.769,0,0,0-3.168-.432q-2.232-.071-3.672-0.036a11.661,11.661,0,0,1-2.664-.216,10.605,10.605,0,0,0-2.448-.216,10.32,10.32,0,0,1-2.628-.288,6.072,6.072,0,0,1-1.692-.54,3.35,3.35,0,0,0,1.368,2.88h0Zm4.392,5.616a4.989,4.989,0,0,0-.108,1.692,1.373,1.373,0,0,1-.324,1.08,3.436,3.436,0,0,0-.4,2.016,12.355,12.355,0,0,1-.252,2.808q-0.288,1.4-.5,2.808a17.1,17.1,0,0,0-.18,2.988,17.029,17.029,0,0,1-.216,3.132,13.211,13.211,0,0,1-.576,2.412,6.587,6.587,0,0,0-.4,1.836,4.688,4.688,0,0,1-.648,1.98q-0.576,1.008-.72,1.332t-0.36.756l0.864,0.36,1.584-1.08a43.35,43.35,0,0,0,2.952-5.256l0.5-.288a6.245,6.245,0,0,0,.972.936,0.473,0.473,0,0,1,.288.432,3.658,3.658,0,0,0-.036.576l0.432-.216,1.8,2.016,3.1,2.016,0.576-.288,1.944,1.3a5.041,5.041,0,0,0,1.332-.252,4.717,4.717,0,0,0,1.224-.828,3.9,3.9,0,0,1,1.224-.792,3.819,3.819,0,0,1,1.116-.144,5.084,5.084,0,0,1,.036-0.684,1.007,1.007,0,0,0-.684-0.648,1.872,1.872,0,0,1-.936-1.044,2.62,2.62,0,0,0-1.224-1.26,2.616,2.616,0,0,1-1.224-1.26,2.2,2.2,0,0,0-.792-1.08q-0.576-.432-2.088-1.872l-4.176-2.592a1.792,1.792,0,0,1,.4-0.648,1.335,1.335,0,0,0,.288-0.756,7.625,7.625,0,0,1,.36-1.3,11.56,11.56,0,0,0,.468-1.908,12.3,12.3,0,0,0,.216-2.088,1.955,1.955,0,0,0-.576-1.44,4.969,4.969,0,0,1-.9-1.188,2.952,2.952,0,0,0-.792-0.972q-0.468-.359-1.548-1.152l-1.368-.576Zm56.016-21.024a2.091,2.091,0,0,0,.432.54,1.867,1.867,0,0,1,.432.72q0.216,0.54.792,1.764l0.792,0.5a18.925,18.925,0,0,0,3.168,4.968l0.72,0.144,0.36,0.432q1.224,0,1.728-.036a3.2,3.2,0,0,1,1.116.144,8.742,8.742,0,0,0,2.16.18,10.768,10.768,0,0,0,2.3-.18,5.606,5.606,0,0,1,1.548-.144,14.249,14.249,0,0,0,1.944-.072,2.221,2.221,0,0,0,1.332-.36,0.413,0.413,0,0,1,.468-0.18,1.942,1.942,0,0,0,1.008-.216,4.049,4.049,0,0,1,1.512-.288,3.733,3.733,0,0,0,1.62-.4,3.75,3.75,0,0,1,1.62-.4A3.966,3.966,0,0,0,206,92q0.864-.395,1.692-0.864a5.88,5.88,0,0,1,1.692-.648,5.687,5.687,0,0,0,1.764-.72,3.616,3.616,0,0,1,1.368-.576,4.216,4.216,0,0,0,1.188-.324l0.648-.792-0.144-.144a14.9,14.9,0,0,1-2.052.432,8.172,8.172,0,0,1-1.332.036,10.17,10.17,0,0,0-1.872.144,11.792,11.792,0,0,1-2.16.144,4.615,4.615,0,0,1-1.4-.216,3.079,3.079,0,0,0-1.224-.144,3.894,3.894,0,0,1-1.692-.36,16.4,16.4,0,0,0-3.78-.72,72.055,72.055,0,0,0-7.74-.324,19.087,19.087,0,0,1-7.2-1.008,20.8,20.8,0,0,0-2.736-1.08,2.852,2.852,0,0,1-1.008-.432Zm41.544,21.6a4.9,4.9,0,0,1-1.116.72,15.7,15.7,0,0,1-2.124.72,31.492,31.492,0,0,1-4.716.792q-3.2.361-9.9,0.432t-7.6-.36a4.276,4.276,0,0,0-1.872-.432,3.677,3.677,0,0,0-1.188.108,4.2,4.2,0,0,0-.432.252c-0.144-.095-0.264-0.18-0.36-0.252a3.99,3.99,0,0,0-1.332-.108,15.062,15.062,0,0,1-1.98-.108,6.532,6.532,0,0,1-.864-0.144,3.011,3.011,0,0,1-.288-0.18,1.617,1.617,0,0,1-.756.18q-0.54.038-3.024-.144t-3.348-.252a9.872,9.872,0,0,1-1.692-.288,11.161,11.161,0,0,0-2.124-.288,5.4,5.4,0,0,0-2.088.216l1.008,1.44,1.368,1.224,2.664,3.168a5.908,5.908,0,0,0,.792.792,1.166,1.166,0,0,0,.72.216,1.712,1.712,0,0,1,.864.252,1.532,1.532,0,0,0,1.116.108,1.432,1.432,0,0,1,1.152.18,2.051,2.051,0,0,0,1.4.216,9.642,9.642,0,0,1,2.412.108,35.58,35.58,0,0,0,3.96.288,9.326,9.326,0,0,0,3.132-.216,1.524,1.524,0,0,1,1.08-.144,2.076,2.076,0,0,0,1.188-.072,6.45,6.45,0,0,1,1.764-.216,2.569,2.569,0,0,0,1.368-.252,1.385,1.385,0,0,1,.972-0.18,4.361,4.361,0,0,0,1.728-.288,17.925,17.925,0,0,1,2.052-.54,16.433,16.433,0,0,0,2.2-.612,11.679,11.679,0,0,1,1.764-.5,1.177,1.177,0,0,0,.756-0.36,1.129,1.129,0,0,1,.684-0.36,2.176,2.176,0,0,0,.828-0.324,2.277,2.277,0,0,1,.9-0.324,3.451,3.451,0,0,0,.972-0.288,2.684,2.684,0,0,1,.828-0.252,1.547,1.547,0,0,0,.828-0.468,4.145,4.145,0,0,1,1.692-.756,21.138,21.138,0,0,0,3.456-1.4l0.936-.864,0.648-.144-0.216-.288h-0.216Zm52.416-37.224a2.879,2.879,0,0,0-.216.972,14.167,14.167,0,0,0,.18,1.62q0.18,1.225.468,5.364t0.288,5.8q0,1.657.036,2.736a14.887,14.887,0,0,0,.144,1.764,4.274,4.274,0,0,1,.036,1.224,21.892,21.892,0,0,0-.072,2.268,23.808,23.808,0,0,1-5.328-.576l-0.288.144a1.515,1.515,0,0,0-1.224-.432,10.557,10.557,0,0,1-2.088-.252,4.964,4.964,0,0,1-1.692-.576q-0.468-.324-1.26-0.972a2.227,2.227,0,0,1-1.08-1.3l-0.648.288-1.224,1.3h-0.288q0.576,0.864.864,1.224a7.134,7.134,0,0,1,.612.936,7.045,7.045,0,0,0,1.044,1.332q0.72,0.756,1.332,1.476a25.905,25.905,0,0,1,1.764,2.52,5.83,5.83,0,0,0,1.044.756,1.714,1.714,0,0,0,.756.252,38.709,38.709,0,0,1-.792,3.816,8.7,8.7,0,0,0-.36,1.656,4.628,4.628,0,0,1-.288,1.26,2.808,2.808,0,0,0-.216,1.044,5.313,5.313,0,0,1-.108,1.044q-0.108.54-.288,2.052a12.508,12.508,0,0,1-.468,2.376,4.8,4.8,0,0,0-.252,1.728,14.611,14.611,0,0,1-.36,2.916,14.907,14.907,0,0,0-.36,3.024,6.455,6.455,0,0,1-.144,1.728,5.478,5.478,0,0,0-.18,1.188,5.074,5.074,0,0,0,.036.684,4.161,4.161,0,0,0,.18.684l-0.576.36a2.1,2.1,0,0,0,.36,1.656,3.357,3.357,0,0,0-.72,2.232,8.4,8.4,0,0,1,.324-1.3,6.411,6.411,0,0,1,.324-0.9,1.469,1.469,0,0,0,.072-0.612q0.576-1.367.828-1.908a4.759,4.759,0,0,0,.36-1.08,2.06,2.06,0,0,1,.324-0.828,1.164,1.164,0,0,0,.216-0.72l0.288-.216,1.08-2.16A8.537,8.537,0,0,0,267.2,115l0.288-.216,0.936-1.728q0.36-.718.54-1.008a4,4,0,0,0,.324-0.648,3.587,3.587,0,0,1,.432-0.756,26.318,26.318,0,0,0,1.4-2.88q1.116-2.484,1.44-3.456t0.468-1.476a9.027,9.027,0,0,1,.936-0.216l0.144-.36,0.648,0.072a9.93,9.93,0,0,1,.288,1.8,3.643,3.643,0,0,0,.144,1.008,4.968,4.968,0,0,1,.18,1.008q0.036,0.505.144,2.3t0.18,2.3a15.846,15.846,0,0,1,.072,1.872,2.754,2.754,0,0,0-.252.144,0.475,0.475,0,0,1-.4-0.036l-0.864-.324-0.72-.72a9.443,9.443,0,0,0-1.512-.5l-0.072-.36-1.08-.936a7.49,7.49,0,0,1-.864,1.3,2.6,2.6,0,0,0,.108.864q0.108,0.29.54,1.116a5.125,5.125,0,0,0,1.224,1.512,4.407,4.407,0,0,1,1.08,1.26q0.288,0.578.792,1.656a2.6,2.6,0,0,0,.648.5,0.823,0.823,0,0,0,.5.108,0.718,0.718,0,0,1,.468.108,2.322,2.322,0,0,0,.828.216,3.468,3.468,0,0,0,.4.648,0.6,0.6,0,0,1,.036.612,2.231,2.231,0,0,0-.036,1.08q0.108,0.685.252,2.484l0.288,0.072-0.072.36-0.216.072a2.392,2.392,0,0,1,.54,1.26c-0.024.265-.036,0.684-0.036,1.26l0.432,0.216q0.144-5.184.468-5.76a4,4,0,0,0,.432-1.044q0.108-.467.4-1.548a2.291,2.291,0,0,1,1.152-.288l0.288-.576a7.175,7.175,0,0,1,1.3-.54,1.6,1.6,0,0,0,.756-0.432,1.983,1.983,0,0,1,.576-0.432c0.168-.072.4-0.155,0.684-0.252l0.576-1.08a7.981,7.981,0,0,1-4.176-.864v-0.324a1.129,1.129,0,0,1,.144-0.468,3.394,3.394,0,0,0,.252-0.792,2.849,2.849,0,0,0,.036-1.008,2.371,2.371,0,0,1,0-.828,0.721,0.721,0,0,0-.144-0.612l0.5-1.008a3.278,3.278,0,0,1-.108-0.4,1.42,1.42,0,0,1,.144-0.648,8.756,8.756,0,0,0,.36-1.44,3.785,3.785,0,0,0,.036-1.548,1.184,1.184,0,0,1,0-.828,1.359,1.359,0,0,0,.108-0.756,1.824,1.824,0,0,1,.432-1.152,4.329,4.329,0,0,0,.612-1.08,1.687,1.687,0,0,0,.108-0.72,9.428,9.428,0,0,1-.036-1.008,0.372,0.372,0,0,0,.252.324,7.489,7.489,0,0,1,1.116,1.98,21.883,21.883,0,0,1,1.224,2.916,16.124,16.124,0,0,0,.756,2.016q0.468,1.045.972,2.2a7.464,7.464,0,0,1,.612,2.052,2.5,2.5,0,0,0,.864,1.584,5.105,5.105,0,0,1,1.26,2.052,5.5,5.5,0,0,0,1.116,1.98,1.684,1.684,0,0,1,.612.972,0.955,0.955,0,0,0,.252.648,0.591,0.591,0,0,1,.216.432,0.963,0.963,0,0,0,.036.432l1.008,0.5,0.432,0.792a4.474,4.474,0,0,0,.54.576,0.916,0.916,0,0,0,.576.144,1.3,1.3,0,0,0,.864-0.468,8.317,8.317,0,0,1,1.692-1.152,9.669,9.669,0,0,1,1.872-.864,3.362,3.362,0,0,0,.864-0.324,3.124,3.124,0,0,0,.576-0.576,4.827,4.827,0,0,1,.72-0.9,0.519,0.519,0,0,0,.252-0.432,2.016,2.016,0,0,1-.036-0.4c-0.432-.383-0.744-0.648-0.936-0.792s-0.348-.263-0.468-0.36a4.727,4.727,0,0,1-.4-0.36,8.516,8.516,0,0,0-.936-1.872l-1.512-1.44q-0.5-1.512-.648-2.124a3.925,3.925,0,0,0-.54-1.224,4.842,4.842,0,0,1-.612-1.584q-0.216-.972-5.328-8.964a1.073,1.073,0,0,1,.792-0.288,4.866,4.866,0,0,1,1.728-.864h0.648l0.36-.36h0.5V95.273a14.841,14.841,0,0,1-1.8-.072,4.775,4.775,0,0,1-.828-0.18,1.273,1.273,0,0,0-.576-0.072,2.805,2.805,0,0,1-1.116-.36,18.023,18.023,0,0,0-3.1-.9q-2.232-.5-3.96-0.936a1.2,1.2,0,0,1-.252-0.54,3.215,3.215,0,0,1,.036-0.792,6.715,6.715,0,0,0,.072-0.756,1.777,1.777,0,0,0-.108-0.54,1.405,1.405,0,0,1,.072-0.864,1.111,1.111,0,0,0,.036-0.828,0.935,0.935,0,0,1,.036-0.756,7.955,7.955,0,0,0,.18-2.2,10.019,10.019,0,0,0-.324-2.808,1.864,1.864,0,0,1,0-1.548,1.4,1.4,0,0,0,.216-1.08,2.541,2.541,0,0,0-.54-1.152,1.729,1.729,0,0,1-.432-1.08,0.786,0.786,0,0,0-.288-0.72,2.794,2.794,0,0,1-.72-0.972l-0.5-.432a2.809,2.809,0,0,1-.4-0.612,0.663,0.663,0,0,0-.36-0.36,1.516,1.516,0,0,1-.54-0.468l-2.808-2.016-0.288-.576-0.648-.36a1.537,1.537,0,0,1-.5-0.864l-1.224-.648Zm-19.728,6.912-0.36.072,0.216,0.648a8.678,8.678,0,0,0-1.26,2.2,25.439,25.439,0,0,0-1.152,2.52,3.7,3.7,0,0,1-.252.684,2.612,2.612,0,0,1-.288.468,1.279,1.279,0,0,0-.216.4,1.359,1.359,0,0,0-.072.432l-0.144.144c-0.144.241-.24,0.4-0.288,0.468a1.736,1.736,0,0,0-.144.54,1.63,1.63,0,0,1-.252.684,9.44,9.44,0,0,0-.54.936q-0.36.685-.576,1.044a3.627,3.627,0,0,0-.36.864,3.284,3.284,0,0,1-.468.972,3.843,3.843,0,0,0-.5,1.044,6.761,6.761,0,0,1-.4,1.008,2.316,2.316,0,0,0-.252.792,1.1,1.1,0,0,1-.612.72l0.216,0.5a16.213,16.213,0,0,0-.864,1.692,6,6,0,0,0-.432,1.26,1.951,1.951,0,0,1-.252.72,0.691,0.691,0,0,0-.144.468,1.274,1.274,0,0,0,.108.324l-0.5.5a0.416,0.416,0,0,0-.072.4,0.49,0.49,0,0,1-.18.468,1.176,1.176,0,0,0-.288.684,1.756,1.756,0,0,1-.144.612,6.81,6.81,0,0,1-.4.648l0.144,0.5c-0.1.241-.2,0.5-0.324,0.792a1.925,1.925,0,0,0-.18.684,2.722,2.722,0,0,1-.252.864,2.729,2.729,0,0,0-.252.9,2.045,2.045,0,0,1-.144.684,1.644,1.644,0,0,1-.36.612l0.216,0.576a6.254,6.254,0,0,0-.468.5,2.422,2.422,0,0,0-.216.36,1.116,1.116,0,0,0-.108.5,1.478,1.478,0,0,1-.216.684,6.606,6.606,0,0,0-.432,1.044l0.576-.36a1.242,1.242,0,0,1,.072-0.5,1.961,1.961,0,0,1,.5-0.468,1.483,1.483,0,0,0,.54-1.008,2.532,2.532,0,0,1,.5-1.188,2.827,2.827,0,0,0,.54-1.116,1.694,1.694,0,0,1,.468-0.9,4.041,4.041,0,0,0,.468-0.468,2.148,2.148,0,0,0,.288-0.54,9.5,9.5,0,0,1,.864-0.792,0.61,0.61,0,0,1,.432-0.18,0.4,0.4,0,0,0,.288-0.036,13.466,13.466,0,0,1,2.952-3.888l0.432-.072,0.72-.864a3.73,3.73,0,0,0,.648-0.432,1.571,1.571,0,0,1,.5.9A5.336,5.336,0,0,1,251,99.485a8.307,8.307,0,0,0,.108,1.3q0.108,0.685.18,1.764t0.216,2.268q0.144,1.188.18,2.448a12.346,12.346,0,0,0,.216,2.124,8.291,8.291,0,0,1,.18,1.692,10.43,10.43,0,0,0,.108,1.548q0.108,0.721.324,2.736t0.252,3.024a9.712,9.712,0,0,0,.216,1.8,7.809,7.809,0,0,1,.18,1.728q0,0.938.108,2.556a6.556,6.556,0,0,0,.252,1.836l-0.288.648,0.432,0.432,0.216-.144a13.468,13.468,0,0,0,.36-1.332,2.092,2.092,0,0,0,.036-0.648,0.778,0.778,0,0,1,.108-0.5,4.819,4.819,0,0,0,.288-0.612c-0.048-.191-0.084-0.36-0.108-0.5a0.869,0.869,0,0,1,.144-0.54,1.772,1.772,0,0,1,.4-0.5q0.216-.178.5-0.468a6.157,6.157,0,0,1-.036-1.26,6.355,6.355,0,0,1,.216-1.512,5.383,5.383,0,0,0,.216-1.188,4.143,4.143,0,0,0,0-.792,1.1,1.1,0,0,1,0-.4,0.53,0.53,0,0,0-.108-0.4,1.73,1.73,0,0,0,.36-0.324,0.452,0.452,0,0,0,.036-0.324,0.416,0.416,0,0,1,.18-0.4,2.38,2.38,0,0,0,.36-1.224,3.77,3.77,0,0,0,.036-1.368,1.72,1.72,0,0,1-.108-0.5,0.343,0.343,0,0,1,.144-0.288,1.049,1.049,0,0,0,.18-0.684q0.036-.574.36-2.34a20.266,20.266,0,0,0,.216-4.392q-0.108-2.627-.108-3.816a9.139,9.139,0,0,1,.108-1.692,3.034,3.034,0,0,0,.036-1.044,1.79,1.79,0,0,0-.36-0.9,5.315,5.315,0,0,1-.648-1.584A3.905,3.905,0,0,1,256,95.129a0.416,0.416,0,0,0-.4-0.18,1.64,1.64,0,0,1-.576-0.036l-1.08-1.08a3.69,3.69,0,0,1,.864-1.728l0.36-.144a8.056,8.056,0,0,1,.612-1.26,4.13,4.13,0,0,0,.54-1.332l0.576-.36a11,11,0,0,1,1.116-1.656,2,2,0,0,0,.5-0.936,1.216,1.216,0,0,0-.036-0.792,1.209,1.209,0,0,1-.144-0.54,1.433,1.433,0,0,1,.18-0.612,4.042,4.042,0,0,0-.144-1.908,5.1,5.1,0,0,0-.72-2.016,4.593,4.593,0,0,1-.612-0.9l-0.36-.072a24.6,24.6,0,0,0-3.024-4.032,0.827,0.827,0,0,0-.144,1.008h0Z"/>
</svg>
