<svg xmlns="http://www.w3.org/2000/svg" width="400" height="200" viewBox="0 0 400 200">
  <defs>
    <style>
      .cls-1 {
        fill: #fdfdfd;
        fill-rule: evenodd;
      }
    </style>
  </defs>
  <path id="清松手写体2" class="cls-1" d="M66.549,72.825a15.192,15.192,0,0,0-.03,2.4l0.12,2.4-0.66-.12q-0.121,0-2.82-.36a24.89,24.89,0,0,0-2.82-.3,2.912,2.912,0,0,0-1.32.3,1.251,1.251,0,0,0-.9,1.44,2.276,2.276,0,0,0,1.41,1.62,11.44,11.44,0,0,0,3.75.84,8.679,8.679,0,0,1,3,.6,2.356,2.356,0,0,1,.72,1.68,1.278,1.278,0,0,1-.18,1.14,0.619,0.619,0,0,1-.63.27q-0.45-.03-3.51-0.51a26.161,26.161,0,0,0-3.36-.33,1.647,1.647,0,0,0-1.14.45,1.764,1.764,0,0,0-.51,1.56,1.861,1.861,0,0,0,.99,1.32q1.5,0.72,7.26,1.08l1.44,0.12v4.2l-3.18-.06a38.235,38.235,0,0,1-4.32-.3q-0.9-.12-2.7-0.18a3.836,3.836,0,0,0-1.98.3,2.175,2.175,0,0,0-.33,1.29,1.956,1.956,0,0,0,.27,1.29,4.626,4.626,0,0,0,2.76.9,129.562,129.562,0,0,0,16.32.42q5.76-.059,7.29-0.27t1.59-.99a1.39,1.39,0,0,0-.96-1.38,6.571,6.571,0,0,0-1.86-.36q-1.32-.12-7.08-0.36a12.568,12.568,0,0,1-3.06-.3,1.387,1.387,0,0,1-.24-0.96,10.376,10.376,0,0,1,.21-1.89,5.417,5.417,0,0,1,.33-1.29,14.347,14.347,0,0,1,3.18-.54,25.492,25.492,0,0,0,4.35-.66,1.427,1.427,0,0,0,1.23-1.02,0.69,0.69,0,0,0-.21-0.63,1.623,1.623,0,0,0-.81-0.39,30.654,30.654,0,0,0-6.42-.42h-1.5v-1.2a3.732,3.732,0,0,1,.12-1.32,8.468,8.468,0,0,1,2.58-.36q5.76-.36,7.14-1.56a1.675,1.675,0,0,0,.42-1.08l0.06-.78-4.5-.06a42.594,42.594,0,0,1-4.5-.21,1.693,1.693,0,0,1-1.26-.75,8.634,8.634,0,0,1-.84-3.24q-0.24-2.039-.54-2.16a2.731,2.731,0,0,0-1.62,0A1.159,1.159,0,0,0,66.549,72.825Zm-23.91,9.72a2.913,2.913,0,0,0,.15,1.11,2.109,2.109,0,0,0,.81.75,35.521,35.521,0,0,0,6.18,3.18,8.382,8.382,0,0,0,2.07.66,0.906,0.906,0,0,0,.93-0.42,0.8,0.8,0,0,0,.27-0.72,4.517,4.517,0,0,0-.69-1.08,20.713,20.713,0,0,0-2.94-2.52,8.568,8.568,0,0,0-2.7-1.44,4.614,4.614,0,0,1-1.44-.66,1.479,1.479,0,0,0-1.68-.3,1.538,1.538,0,0,0-.96,1.44h0ZM39.4,95.865a1.474,1.474,0,0,0,.09,1.59,2.77,2.77,0,0,0,1.71,1.05,29.94,29.94,0,0,0,7.56.72,16.179,16.179,0,0,0,1.86-.06,1.41,1.41,0,0,0,.66-0.3,0.974,0.974,0,0,0,.27-0.9,1.042,1.042,0,0,0-.51-0.78,32.4,32.4,0,0,0-4.32-1.47,21.165,21.165,0,0,0-4.02-.99,6.524,6.524,0,0,0-1.14.12q-1.8.3-2.16,1.02h0Zm25.32,4.26a5.4,5.4,0,0,1-1.38.42,0.818,0.818,0,0,0-.6.36,4.706,4.706,0,0,1-1.38,1.02,4.32,4.32,0,0,0-1.65,1.56,12.5,12.5,0,0,0-.69,3.42q-0.42,3.9-.48,8.01a20.951,20.951,0,0,0,.36,5.43,7.058,7.058,0,0,0,1.14,2.37,1.919,1.919,0,0,0,1.38.93,0.56,0.56,0,0,0,.63-0.48,6.627,6.627,0,0,0-.21-1.98,24.174,24.174,0,0,1-.45-2.73,0.938,0.938,0,0,1,.21-0.81q0.239-.118,7.23-0.3t7.35-.06a0.682,0.682,0,0,1,.36.57q0.12,0.51.3,2.37,0.3,3.9,0,4.2a0.894,0.894,0,0,1-.66-0.42q-1.14-.96-1.86-0.24a1.478,1.478,0,0,0-.18,1.08,3.2,3.2,0,0,0,.42,1.44,3.329,3.329,0,0,0,1.5,1.56,2.721,2.721,0,0,0,1.98.3,1.924,1.924,0,0,0,1.44-1.53,15.916,15.916,0,0,0,0-4.47q-0.121-1.74-.24-6.36-0.3-7.2-.78-10.29t-1.38-3.81a9.364,9.364,0,0,0-3.03-1.29,23.328,23.328,0,0,0-4.35-.75,15.529,15.529,0,0,0-3.6-.06q-0.18.06-1.38,0.54h0Zm7.5,3.3a7.229,7.229,0,0,1,2.07,1.62,3.022,3.022,0,0,1,.99,1.74,0.348,0.348,0,0,1-.09.33,1.6,1.6,0,0,1-.51-0.03q-0.661-.058-10.02-0.66a10.264,10.264,0,0,1-2.28-.3q-0.3-.3.48-2.22,0.3-.72,2.16-0.96a24.379,24.379,0,0,1,2.7-.12,22.725,22.725,0,0,1,2.64.12,6.05,6.05,0,0,1,1.86.48h0Zm3.54,7.26a3.687,3.687,0,0,1,.3,1.77,4.087,4.087,0,0,1-.18,1.89,0.689,0.689,0,0,1-.78.24q-0.78-.118-4.26-0.36-5.82-.478-8.34-0.96l-1.02-.12v-3l0.54-.06a30.628,30.628,0,0,1,4.14-.21q3.18-.029,5.64.15,3.54,0.18,3.96.66h0Zm-26.64,0q-0.36.242-1.56,1.08t-1.74,1.2a48.61,48.61,0,0,0-4.2,3.09,2.351,2.351,0,0,0-.96,1.59,1.408,1.408,0,0,0,.36.87,1.244,1.244,0,0,0,.78.51q1.02,0.3,2.88-.9a42.38,42.38,0,0,0,4.35-3.99,27.447,27.447,0,0,0,3.63-4.05,0.426,0.426,0,0,0-.06-0.63,0.729,0.729,0,0,0-.48-0.18c-0.12.021-.441,0.111-0.96,0.27a9.189,9.189,0,0,0-2.04,1.14h0Zm78.84-31.86a6.342,6.342,0,0,0,1.74,1.74,86.15,86.15,0,0,1,6.54,6.09,51.341,51.341,0,0,1,5.04,5.85q1.98,2.76,2.76,2.76a1.893,1.893,0,0,0,.81-0.27,1.034,1.034,0,0,0,.57-0.51q0.3-.66-1.14-2.88a64.836,64.836,0,0,0-7.8-9.42q-4.2-4.32-5.52-4.8a2.171,2.171,0,0,0-2.04.06,1.31,1.31,0,0,0-.96,1.38h0Zm-21.6,1.32a6.1,6.1,0,0,0-.66,2.52q-0.12,1.741-.12,2.04v0.36h-3.12a17.9,17.9,0,0,0-3.33.18,1.841,1.841,0,0,0-1.11.84,0.73,0.73,0,0,0,0,.96,2.22,2.22,0,0,0,1.47.96,24.2,24.2,0,0,0,3.63.54,6.738,6.738,0,0,1,1.98.3,1.205,1.205,0,0,1,.42,1.05q0.06,0.87,0,3.57a16.39,16.39,0,0,1-.36,3.96,59.882,59.882,0,0,1-3.72,6q-4.56,6.722-4.56,7.62a1.46,1.46,0,0,0,.57.96,2.863,2.863,0,0,0,1.29.72,7.96,7.96,0,0,0,2.28.06,10.943,10.943,0,0,0,2.58-.48,2.285,2.285,0,0,1,1.44-.18q0.3,0.54-.12,6.3-0.12,1.98-.09,2.49a2.227,2.227,0,0,0,.21.87,0.842,0.842,0,0,0,.54.54,1.061,1.061,0,0,0,1.17-.9,34.445,34.445,0,0,0,.57-4.8l0.18-2.52q0.12-1.678.12-2.1a4.343,4.343,0,0,1,.3-1.68,7.5,7.5,0,0,1,1.26-1.02,49.105,49.105,0,0,0,5.22-4.32,0.865,0.865,0,0,0,.36-0.84,0.544,0.544,0,0,0-.48-0.3,8.662,8.662,0,0,0-1.8.78,19.659,19.659,0,0,1-4.26,1.8q-0.42,0-.06-4.74a12.337,12.337,0,0,1,.96-4.62l0.36-.66-0.42-.96a4.719,4.719,0,0,1-.36-1.26q-0.06-.54-0.06-2.64-0.12-2.82.12-3.06,0.3-.419,3.12-0.78t3.42-.9q0.54-.54-0.12-2.1l-0.3-.66-0.72.06q-0.54.06-3,.12l-2.34.06-0.06-1.02a8.74,8.74,0,0,1,.18-2.22,6.614,6.614,0,0,0,.21-1.35,1.551,1.551,0,0,0-.39-0.63q-0.9-.959-1.56-0.24a7.68,7.68,0,0,0-.84,1.32h0Zm-1.68,28.2a4.521,4.521,0,0,1-2.01,1.17q-1.65.63-1.89,0.39-0.18-.119.6-1.44,0.24-.36.72-1.17t0.6-.99a20.21,20.21,0,0,1,2.04-3,0.485,0.485,0,0,1,.3-0.24q0.24,0.061.24,1.8,0,2.7-.6,3.48h0ZM120.249,86a21.225,21.225,0,0,0-2.31,3.45q-3.96,7.681-3.96,9.54a1.25,1.25,0,0,0,.27,1.08,1.184,1.184,0,0,0,.93-0.66q0.6-.72,2.37-3.48t3.15-5.22q1.62-2.759,2.88-4.68a9.249,9.249,0,0,0,1.26-2.22,0.857,0.857,0,0,0-.48-0.48,1.658,1.658,0,0,0-.66-0.3,4.827,4.827,0,0,0-1.02.6A11.954,11.954,0,0,0,120.249,86Zm4.65,14.73q-1.5,1.98-5.7,11.22-1.2,2.7-1.44,3.51a9.016,9.016,0,0,0-.24,2.4,6.333,6.333,0,0,0,.21,2.07,6.02,6.02,0,0,0,1.29,1.5,6.161,6.161,0,0,0,1.83,1.2,8.8,8.8,0,0,0,2.55.36,14.986,14.986,0,0,0,5.37-.72,43.258,43.258,0,0,0,7.17-3.48l2.28-1.26,0.42,0.42a6.9,6.9,0,0,1,.96,1.08,7.524,7.524,0,0,0,1.89,1.83,4.388,4.388,0,0,0,1.83.99,1.076,1.076,0,0,0,.72-0.33,1,1,0,0,0,.36-0.75q0-.9-1.74-3.06a30.881,30.881,0,0,0-3-3.24,37.869,37.869,0,0,0-3.3-2.94,4.632,4.632,0,0,0-1.59-.9,1.784,1.784,0,0,0-1.23.24,1.173,1.173,0,0,0-.63,1.29,7.367,7.367,0,0,0,1.29,2.43,16.353,16.353,0,0,1,1.02,1.68,4.294,4.294,0,0,1-1.2.69q-1.26.63-2.91,1.32t-2.55.99a17.04,17.04,0,0,1-5.58.78,6.385,6.385,0,0,1-1.11-.06,2.257,2.257,0,0,1-.75-0.42l-0.6-.54-0.06-1.26a8.348,8.348,0,0,1,.36-2.97,53.662,53.662,0,0,1,2.22-4.89q1.92-3.838,2.91-5.43a27.618,27.618,0,0,1,2.61-3.45,10.357,10.357,0,0,0,1.62-2.16,1.866,1.866,0,0,0-.54-1.17,1.438,1.438,0,0,0-.96-0.63,1.481,1.481,0,0,0-.84.36,14.48,14.48,0,0,0-2.94,3.3h0Zm51.24-23.52q-7.26.481-8.7,1.26a1.434,1.434,0,0,0-.84.9,0.911,0.911,0,0,0,.3,1.02,5.76,5.76,0,0,0,2.25.39q2.01,0.15,4.47.09,2.4-.12,2.7.18a5.162,5.162,0,0,1,.75,1.17,8.958,8.958,0,0,1,.63,1.47,0.945,0.945,0,0,1-.12.96q-0.42.481-3.54,0.9a33.518,33.518,0,0,0-4.32.72q-2.04.6-1.5,1.56a2.432,2.432,0,0,0,1.8.75,50.51,50.51,0,0,0,5.34.27,26.1,26.1,0,0,1,2.94.12l0.78,0.12,0.3,0.96a56.169,56.169,0,0,1,1.38,6.24,0.745,0.745,0,0,1-.06.72,75.265,75.265,0,0,1-8.52.9l-4.68.45a25.237,25.237,0,0,0-2.58.36,3.351,3.351,0,0,0-1.26.42,0.719,0.719,0,0,0-.24.57,1.705,1.705,0,0,0,1.02,1.44,1.338,1.338,0,0,0,.78.33q0.42,0.031,2.1.03,2.52,0,5.61-.27t5.91-.33a9.27,9.27,0,0,1,2.7.21,2.263,2.263,0,0,1,.72,1.47,50.1,50.1,0,0,1,1.02,10.62v3.3l-0.42.84a6.477,6.477,0,0,1-3.96,3.12,5.144,5.144,0,0,1-2.49.21,14.734,14.734,0,0,1-3.33-1.23,27.987,27.987,0,0,1-5.58-3.42q-2.28-1.8-3.48-1.8a1.661,1.661,0,0,0-1.08.6,1.444,1.444,0,0,0-.54,1.14,0.836,0.836,0,0,0,.18.51,4.358,4.358,0,0,0,.78.33,10.9,10.9,0,0,1,1.41.66,18.081,18.081,0,0,1,1.77,1.32q1.68,1.26,4.05,2.7a18.729,18.729,0,0,0,3.51,1.8,16.28,16.28,0,0,0,4.02.63,9.045,9.045,0,0,0,3.48-.39,6.212,6.212,0,0,0,3.33-3.21,16.658,16.658,0,0,0,1.23-6.57,90.332,90.332,0,0,0-.6-10.56,17.912,17.912,0,0,1-.18-2.52q0.12-.239,3-0.48,0.9-.119,6-0.3a46.013,46.013,0,0,0,5.64-.42,1.245,1.245,0,0,0,.96-1.38,4.8,4.8,0,0,0-.3-1.23,0.876,0.876,0,0,0-.42-0.63q-1.08,0-14.16.48l-2.1.12-0.12-.42q-0.18-.84-0.75-3.69t-0.63-3.45a2.152,2.152,0,0,1,0-.75,0.583,0.583,0,0,1,.3-0.27,27.718,27.718,0,0,1,3.18-.3,19.875,19.875,0,0,0,4.02-.48,1.213,1.213,0,0,0,.9-1.26,1.942,1.942,0,0,0-.18-0.96q-0.66-1.26-6.06-.66-2.28.18-2.64,0.18a0.7,0.7,0,0,1-.6-0.48,14.471,14.471,0,0,1-.69-1.53,11.7,11.7,0,0,1-.57-1.65,0.661,0.661,0,0,1,0-.42,1.527,1.527,0,0,1,.42-0.18q0.6-.059,4.14-0.3a42.972,42.972,0,0,0,5.34-.51,2.13,2.13,0,0,0,1.56-.99,1.413,1.413,0,0,0,0-1.14,1.622,1.622,0,0,0-.75-0.93,4.4,4.4,0,0,0-1.71-.33,6.975,6.975,0,0,0-1.38,0q-0.3.121-11.64,0.9h0Zm58.32,0a76.83,76.83,0,0,0-8.76.72q-1.38.42-2.4,4.2a9.165,9.165,0,0,0-.3,4.68,3.631,3.631,0,0,0,.57,1.47,1.222,1.222,0,0,0,.99.39,1.4,1.4,0,0,0,1.41-.69,5.142,5.142,0,0,0,.09-2.55,5.736,5.736,0,0,1,.09-2.7,2.1,2.1,0,0,1,1.53-1.02,101.2,101.2,0,0,1,10.38-.51q9-.21,12.96-0.03,1.44,0.06,2.01.09a5.446,5.446,0,0,1,1.2.21,3.251,3.251,0,0,1,.75.27,0.808,0.808,0,0,1,.12.57,1.854,1.854,0,0,1-.18.84q-0.18.36-.6,1.32a14.718,14.718,0,0,1-1.08,2.1,2.324,2.324,0,0,0-.45,1.62q0.15,0.6,1.05.42a2.555,2.555,0,0,0,1.26-.87,12.809,12.809,0,0,0,1.47-1.86,14.974,14.974,0,0,1,1.59-2.01,15.428,15.428,0,0,0,1.44-1.77,2.259,2.259,0,0,0,.36-1.23,1.7,1.7,0,0,0-.33-1.08,3.466,3.466,0,0,0-1.17-.84q-2.1-1.08-8.16-1.74-1.5-.18-6.27-0.3a40.271,40.271,0,0,0-4.95,0q-0.06.06-4.62,0.3h0Zm-5.82,10.08q-0.84,2.88-1.14,11.4l-0.12,2.52,1.38,1.26,1.38,1.26,5.22-.24q4.56-.239,7.32-0.15t6.36,0.57a34.332,34.332,0,0,1,5.07,1.05,2.273,2.273,0,0,1,1.71,1.29q0.48,2.041-1.77,6.51a20.4,20.4,0,0,1-4.77,6.57,4.02,4.02,0,0,1-2.46.9,1.426,1.426,0,0,0-.87.21,0.616,0.616,0,0,0-.15.69,2.316,2.316,0,0,0,1.92,2.16q1.38,0.24,4.02-2.28a24,24,0,0,0,4.14-4.74,22.284,22.284,0,0,0,2.37-5.49,16.419,16.419,0,0,0,.75-5.31,3.078,3.078,0,0,0-.42-1.92,5.755,5.755,0,0,0-3.36-1.68q-3.48-.778-8.94-1.44a45.332,45.332,0,0,0-9.84-.24q-2.46.18-3.33,0.15a2.664,2.664,0,0,1-1.41-.39,1.472,1.472,0,0,1-.72-0.87,8.838,8.838,0,0,1-.24-2.01,3.36,3.36,0,0,1,.27-2.07,7.97,7.97,0,0,1,2.67-.51,101.984,101.984,0,0,1,13.38-.66,4.256,4.256,0,0,0,2.16-.12,2.355,2.355,0,0,0,1.08-1.08,0.98,0.98,0,0,0,0-1.14,5.52,5.52,0,0,0-2.55-.63q-2.07-.21-7.95-0.39-7.86-.18-8.28-0.48a2.24,2.24,0,0,1,0-1.56,4.367,4.367,0,0,0,.15-1.53,1.146,1.146,0,0,0-.63-0.69,1.557,1.557,0,0,0-1.8.18,1.99,1.99,0,0,0-.6.9h0Zm-0.99,23.34q-3.63.36-4.35,1.14a1.169,1.169,0,0,0-.33,1.32,1.755,1.755,0,0,0,1.23,1.02,8.061,8.061,0,0,0,3,.18q1.98-.059,4.32-0.3,2.04-.239,9.72-0.6l7.74-.48,1.02,0.42a2.622,2.622,0,0,0,2.07.27,1,1,0,0,0,.66-0.99,2.18,2.18,0,0,0-.75-1.38,4.515,4.515,0,0,0-1.17-.9,6.944,6.944,0,0,0-1.77-.42,51.927,51.927,0,0,0-7.08-.06Q231.279,110.267,227.649,110.625Zm75.75-33.9a7.386,7.386,0,0,1,.12,2.58,13.842,13.842,0,0,1-.24,2.64l-0.24.66-4.44.06-4.44.12-0.3.36a1.381,1.381,0,0,0-.33,1.08,1.814,1.814,0,0,0,.39,1.14,2.32,2.32,0,0,0,1.35.66,27.457,27.457,0,0,0,3.75.24,17.779,17.779,0,0,1,3.42.36q0.54,0.3-.12,1.68a81.362,81.362,0,0,1-6.6,9.36,45.307,45.307,0,0,0-4.5,6.66q-1.26,2.4.24,3.54a0.909,0.909,0,0,0,.96.06,0.807,0.807,0,0,0,.54-0.78q0-1.44,6.6-9.66,0.78-.959,1.2-1.44,1.38-1.74,1.56-1.5a49.064,49.064,0,0,1,.24,5.28q0.18,7.261.24,8.64l0.06,3.48h-1.32q-3.66,0-4.56.54a2.269,2.269,0,0,0-.78.84,1.179,1.179,0,0,0-.12,1.02,1.9,1.9,0,0,0,1.14.9,27.228,27.228,0,0,0,3.66.78,5.743,5.743,0,0,1,2.07.51,3.252,3.252,0,0,1,.27,1.14,7.9,7.9,0,0,1,.06,1.65l-0.06.78-0.72.24a1.426,1.426,0,0,0-.93.72,4.374,4.374,0,0,0-.15,1.74,4.857,4.857,0,0,0,.72,2.7,1.442,1.442,0,0,0,1.44.36,2.111,2.111,0,0,0,1.44-.9q0.66-1.02.84-5.04a13.834,13.834,0,0,1,.24-2.94,1.313,1.313,0,0,1,1.08-.66,41.489,41.489,0,0,1,4.14-.54q2.82-.36,3.93-0.57a12.678,12.678,0,0,0,2.43-.75,4.1,4.1,0,0,0,1.86-1.05,1.235,1.235,0,0,0-.81-1.44q-0.27-.028-1.53.03-1.92.121-3.24,0.24-1.5.121-4.71,0.12a20.209,20.209,0,0,1-3.39-.12q-0.48-.3-0.48-11.04v-4.29q0-1.409.06-2.34a4.317,4.317,0,0,1,.15-1.11q0.09-.18.33-0.06a28.284,28.284,0,0,1,2.58,1.74q5.4,3.84,10.26,6.96,4.44,2.761,6.18,2.76a1.9,1.9,0,0,0,1.41-.51,0.757,0.757,0,0,0,.15-1.05q-0.48-.72-4.02-2.76-1.68-1.019-4.89-3.18t-4.11-2.94q-0.9-.779-2.46-1.92a28.087,28.087,0,0,1-2.82-2.34,13.636,13.636,0,0,1-1.59-1.77,3.341,3.341,0,0,1-.75-1.29q0-.36.9-0.48t4.2-.18q3.6-.12,4.65-0.24a1.355,1.355,0,0,0,1.23-.6,2.442,2.442,0,0,0-.12-1.98,1.6,1.6,0,0,0-1.2-.81,36.039,36.039,0,0,0-4.08-.21q-3.9-.12-4.32-0.18l-0.42-.12-0.06-3.42q-0.12-2.52-.18-3a1.528,1.528,0,0,0-.3-0.78,2.891,2.891,0,0,0-1.68-.9,0.988,0.988,0,0,0-.96.3,1.949,1.949,0,0,0-.12,2.22h0Zm-17.58,4.56a15.643,15.643,0,0,1-1.8,2.52,19.751,19.751,0,0,0-2.46,3.54q-0.42.72-.66,1.14a10.472,10.472,0,0,0-1.08,1.38q-0.78,1.14-1.68,2.28-1.98,2.34-1.92,3.18a0.962,0.962,0,0,0,.42.66,1.244,1.244,0,0,0,.78.36,1.994,1.994,0,0,0,1.14-.51,3.974,3.974,0,0,0,.96-0.99,8.825,8.825,0,0,1,2.1-2.52l0.6-.54v3.6q-0.12,2.34-.06,13.68v10.08l0.72,0.78q1.08,1.38,1.98,1.02a0.858,0.858,0,0,0,.3-1.02q-0.18-1.02-.3-7.08-0.36-9.418.12-18.42a26.538,26.538,0,0,1,.72-6.24,5.658,5.658,0,0,0,.42-1.65,2.355,2.355,0,0,1,.72-1.53,7.032,7.032,0,0,1,1.68-1.26,5.2,5.2,0,0,0,1.47-1.08,1.841,1.841,0,0,0,.39-1.2,1.821,1.821,0,0,0-.96-1.74,2.685,2.685,0,0,0-2.22,0,5.11,5.11,0,0,0-1.38,1.56h0Zm55.92-1.5a8.427,8.427,0,0,0-2.7,2.52q-1.38,2.22-1.08,2.82a1.56,1.56,0,0,0,.45.66,0.962,0.962,0,0,0,.63.3,0.844,0.844,0,0,0,.48-0.27,0.771,0.771,0,0,0,.3-0.57,1.821,1.821,0,0,1,1.14-1.2,15.865,15.865,0,0,1,5.16-1.92,17.042,17.042,0,0,1,3.3-.12h1.74l1.14,0.6q2.1,1.5,2.1,2.04l-6.06,7.44a87.235,87.235,0,0,0-6.96,8.82,70.732,70.732,0,0,0-4.89,9.15q-2.31,5.13-2.13,6.33a2.705,2.705,0,0,0,1.74,1.62,26.2,26.2,0,0,0,5.64,1.26q3.96,0.24,9.24.36a69.928,69.928,0,0,0,7.02-.06q2.34-.42,1.98-2.22a1.185,1.185,0,0,0-1.23-1.11q-1.17-.148-7.05-0.27-9.24-.36-11.7-0.63t-2.46-.93a6.212,6.212,0,0,1,.96-3,9.767,9.767,0,0,1,.63-1.29q0.51-.928.69-1.35a74.752,74.752,0,0,1,5.31-8.88,57.757,57.757,0,0,1,6.57-7.08,47.925,47.925,0,0,1,5.28-4.8,4.058,4.058,0,0,0,1.8-2.22q0.18-1.02-1.98-3.66a9.474,9.474,0,0,0-3.96-3.24q-2.7-.959-3.54-0.66a9.147,9.147,0,0,0-1.5.12,21.21,21.21,0,0,0-6.06,1.44h0Z"/>
</svg>
