<svg xmlns="http://www.w3.org/2000/svg" width="400" height="200" viewBox="0 0 400 200">
  <defs>
    <style>
      .cls-1 {
        fill: #fdfdfd;
        fill-rule: evenodd;
      }
    </style>
  </defs>
  <path id="王漢宗細圓體繁" class="cls-1" d="M34.484,81.8a1.13,1.13,0,0,0,.8,1.219H52.156a0.994,0.994,0,0,1,1.125,1.125V97.133a0.994,0.994,0,0,1-1.125,1.125H37.906a5.539,5.539,0,0,0-1.828.188,0.973,0.973,0,0,0-.469.844,1.139,1.139,0,0,0,.891,1.172H52.156a0.994,0.994,0,0,1,1.125,1.125V116.68a0.994,0.994,0,0,1-1.125,1.125H34.625a6.11,6.11,0,0,0-1.734.14,1.548,1.548,0,0,0-.422.844,1.011,1.011,0,0,0,.375.938,4.881,4.881,0,0,0,1.875.234H74a6.659,6.659,0,0,0,1.594-.094,0.848,0.848,0,0,0,.609-0.656,1.13,1.13,0,0,0-.75-1.406H56.609a1.016,1.016,0,0,1-1.125-1.172V101.586a1.015,1.015,0,0,1,1.172-1.125H71.141a5.492,5.492,0,0,0,1.828-.188,1.106,1.106,0,0,0,.094-1.781,4.881,4.881,0,0,0-1.875-.234H56.609a1.016,1.016,0,0,1-1.125-1.172V84.148a1.015,1.015,0,0,1,1.172-1.125H71.609A6.606,6.606,0,0,0,73.2,82.93a1.246,1.246,0,0,0,.516-1.547,0.834,0.834,0,0,0-.469-0.469,14.777,14.777,0,0,0-1.641-.047H36.734a8.2,8.2,0,0,0-1.687.094,0.9,0.9,0,0,0-.562.844h0Zm63.094-1.547a0.994,0.994,0,0,1-1.125,1.125H92.844a6.662,6.662,0,0,0-1.781.141,1.361,1.361,0,0,0-.469.938,0.985,0.985,0,0,0,.422.891,4.865,4.865,0,0,0,1.875.234h3.563a0.994,0.994,0,0,1,1.125,1.125,4.328,4.328,0,0,0,1.313,3.844,4.107,4.107,0,0,0,1.734.656h4.453a0.994,0.994,0,0,1,1.125,1.125v1.125a0.994,0.994,0,0,1-1.125,1.125H96.594a6.83,6.83,0,0,0-1.922.188,2.373,2.373,0,0,0-1.594,2.016v3.375a2.664,2.664,0,0,0,2.344,2.2h9.656a0.994,0.994,0,0,1,1.125,1.125v1.641a0.994,0.994,0,0,1-1.125,1.125H95.141a2.971,2.971,0,0,0-1.922.234,1.147,1.147,0,0,0,.281,1.875,7.34,7.34,0,0,0,1.641.094h9.937a0.994,0.994,0,0,1,1.125,1.125l-0.047,1.734a1.2,1.2,0,0,1-1.312,1.125H93.125a7.258,7.258,0,0,0-1.828.141,1.224,1.224,0,0,0-.516,1.125,1.121,1.121,0,0,0,.656.844,7.372,7.372,0,0,0,1.641.093h11.25q1.125,0,.375,1.172a13.236,13.236,0,0,1-6.609,4.5,34.275,34.275,0,0,1-7.5,1.688,2.909,2.909,0,0,0-1.078.234,1.417,1.417,0,0,0-.562,1.219,1.042,1.042,0,0,0,.609.844,2.5,2.5,0,0,0,1.031.14l0.984-.093a30.9,30.9,0,0,0,11.25-3.844,12.721,12.721,0,0,0,4.031-4.125q0.563-1.171,1.36-.094a19.927,19.927,0,0,0,7.734,6,24.865,24.865,0,0,0,7.5,2.063,1.064,1.064,0,0,0,1.313-.891,1.131,1.131,0,0,0-.985-1.313,24.852,24.852,0,0,1-9.375-2.906,13.229,13.229,0,0,1-3.984-3.469q-0.845-1.125.328-1.125h11.859a6.626,6.626,0,0,0,1.594-.093,1.1,1.1,0,0,0,.656-0.75,1.2,1.2,0,0,0-.609-1.313,14.716,14.716,0,0,0-1.641-.047H109.484a2.194,2.194,0,0,1-1.265-.187,3.451,3.451,0,0,1,.047-1.266l0.093-1.406a1.092,1.092,0,0,1,1.219-1.125h10.969a6.058,6.058,0,0,0,1.734-.141,3.224,3.224,0,0,0,.375-0.422,1.114,1.114,0,0,0-.656-1.64H109.531a1.016,1.016,0,0,1-1.125-1.172v-1.594a1.016,1.016,0,0,1,1.172-1.125h9.656a2.772,2.772,0,0,0,2.25-2.39V94.883a2.438,2.438,0,0,0-2.25-2.3h-9.7a1.015,1.015,0,0,1-1.125-1.172V90.336a1.016,1.016,0,0,1,1.172-1.125h4.031q2.532-.281,3.094-2.016a5.224,5.224,0,0,0,.328-2.484,1.016,1.016,0,0,1,1.172-1.125H122a5.512,5.512,0,0,0,1.828-.187,1.235,1.235,0,0,0,.375-1.453,0.84,0.84,0,0,0-.515-0.469,7.409,7.409,0,0,0-1.641-.094h-3.891a0.974,0.974,0,0,1-1.125-1.078,4.279,4.279,0,0,0-.093-1.172,1.093,1.093,0,0,0-1.36-.656,1.569,1.569,0,0,0-.75,1.781,0.994,0.994,0,0,1-1.125,1.125H100.859a1.015,1.015,0,0,1-1.125-1.172q0.281-1.64-.891-1.922a0.977,0.977,0,0,0-.984.281,2.37,2.37,0,0,0-.281,1.688h0ZM82.438,81.8a25.815,25.815,0,0,1,6.188,5.109,1.088,1.088,0,0,0,1.688.094,1.053,1.053,0,0,0,.047-1.406,34.967,34.967,0,0,0-6.7-5.625,1.055,1.055,0,0,0-1.594.938,0.957,0.957,0,0,0,.375.891h0ZM113,87.055H101.328a1.945,1.945,0,0,1-1.594-2.344,1.015,1.015,0,0,1,1.172-1.125H113.75a1,1,0,0,1,1.078,1.172,1.954,1.954,0,0,1-1.828,2.3h0ZM81.453,93.2A25.639,25.639,0,0,1,87.5,98.211a1.157,1.157,0,0,0,1.734.047q0.8-1.078-.984-2.484a29.34,29.34,0,0,0-5.578-4.406A1.111,1.111,0,0,0,81.453,93.2h0Zm16.031,1.359h7.594A0.994,0.994,0,0,1,106.2,95.68v1.547a0.994,0.994,0,0,1-1.125,1.125H96.547a1.334,1.334,0,0,1-1.172-.8,5.365,5.365,0,0,1-.094-1.359,1.4,1.4,0,0,1,.844-1.547,5.408,5.408,0,0,1,1.359-.094h0Zm21.7,0.75a4.259,4.259,0,0,1,.14,1.875,1.286,1.286,0,0,1-1.266,1.172h-8.531a1.016,1.016,0,0,1-1.125-1.172v-1.5a1.016,1.016,0,0,1,1.172-1.125h7.547a2.4,2.4,0,0,1,1.734.281,1,1,0,0,1,.329.469h0Zm-31.407,9.7a37.95,37.95,0,0,1-6.187,15,1.5,1.5,0,0,0-.375,1.172,1.02,1.02,0,0,0,1.406.8,4.376,4.376,0,0,0,1.641-1.735,48.751,48.751,0,0,0,5.672-15q0.656-1.781-.469-2.344a1.043,1.043,0,0,0-1.406.7,11.087,11.087,0,0,0-.281,1.406h0Zm61.313-26.016v3a0.994,0.994,0,0,1-1.125,1.125H133.25a3.354,3.354,0,0,0-.844.188,3.83,3.83,0,0,0-2.625,3.141v4.828a5.075,5.075,0,0,0,.235,1.875,1.11,1.11,0,0,0,1.687.141,3.1,3.1,0,0,0,.281-2.016V87.336a2.22,2.22,0,0,1,1.969-2.062h33.235a1.954,1.954,0,0,1,1.828,1.594,13.135,13.135,0,0,1-1.172,4.594,1.541,1.541,0,0,0-.141,1.406,1.07,1.07,0,0,0,1.828.094,15.891,15.891,0,0,0,.8-1.875q1.359-3.516.938-5.2a3.242,3.242,0,0,0-2.86-2.766H152.375a1.016,1.016,0,0,1-1.125-1.172v-1.5a5.059,5.059,0,0,0-.188-1.781,1.128,1.128,0,0,0-1.359-.422,1.013,1.013,0,0,0-.609.75h0Zm-13.36,13.969a0.929,0.929,0,0,0,.422.891,4.867,4.867,0,0,0,1.875.234H161.7a6.605,6.605,0,0,0,1.594-.094,2.2,2.2,0,0,0,.562-0.422,1.133,1.133,0,0,0-.656-1.641H137.984a5.074,5.074,0,0,0-1.781.188,0.92,0.92,0,0,0-.469.844h0Zm-5.531,9.656a3.1,3.1,0,0,0,2.016.281h16.687a0.994,0.994,0,0,1,1.125,1.125v12.891a7.1,7.1,0,0,1-.281,1.781,1.937,1.937,0,0,1-1.734.938,21.19,21.19,0,0,1-5.157-.516,1.919,1.919,0,0,0-2.062.094q-0.844,1.266.7,1.781a22.145,22.145,0,0,0,7.875.75,2.527,2.527,0,0,0,1.828-1.078,6.843,6.843,0,0,0,.985-3.75V104.023a1.015,1.015,0,0,1,1.171-1.125h15.61a4.626,4.626,0,0,0,1.734-.187,1.18,1.18,0,0,0,.375-1.406,0.96,0.96,0,0,0-.75-0.563h-38.2a6.359,6.359,0,0,0-1.734.141,1.191,1.191,0,0,0-.188,1.734h0Zm30.7,6.7a51.836,51.836,0,0,1,8.719,9.75,3.957,3.957,0,0,0,.563.7q1.077,0.7,1.687-.609a1.32,1.32,0,0,0-.047-0.656,55.824,55.824,0,0,0-8.812-10.219,3.561,3.561,0,0,0-1.875-1.312,1.16,1.16,0,0,0-1.125.89,1.3,1.3,0,0,0,.89,1.453h0Zm-20.953-1.687a33.085,33.085,0,0,1-10.547,9.515,1.272,1.272,0,0,0-.89.891,1.252,1.252,0,0,0,.468,1.172,1.829,1.829,0,0,0,1.875-.281,34.388,34.388,0,0,0,10.735-9.985,1.013,1.013,0,0,0,.094-0.937,0.949,0.949,0,0,0-1.735-.375h0Zm40.594-21.8a1.1,1.1,0,0,1-1.781.422q-1.08-.515-1.454,0a1.08,1.08,0,0,0,0,1.594,58.63,58.63,0,0,1,5.438,4.266,1.48,1.48,0,0,1,.328,2.156q-1.875,2.579-3.562,4.5a2.207,2.207,0,0,1-.938.656q-0.7.047-1.406,0.141a1.141,1.141,0,0,0-.984,1.36,1.3,1.3,0,0,0,.328.515,1.8,1.8,0,0,0,1.5.188q2.718-.282,5.437-0.469a0.95,0.95,0,0,1,1.125,1.078v17.531a6.6,6.6,0,0,0,.094,1.594,0.965,0.965,0,0,0,.562.656,1.157,1.157,0,0,0,1.454-.656,7.443,7.443,0,0,0,.093-1.64V101.961a1.146,1.146,0,0,1,1.125-1.266l2.532-.234a1.153,1.153,0,0,1,1.359,1.031l0.094,0.516a3.807,3.807,0,0,0,.8,1.5,0.966,0.966,0,0,0,1.312-.469,3.99,3.99,0,0,0,.094-1.125,52.391,52.391,0,0,0-2.344-8.531,1.074,1.074,0,0,0-2.016,0,7.409,7.409,0,0,0,.375,1.875q0.234,0.891.516,1.781,0.375,1.219-.7,1.313l-6.984.7q-1.08.047-.094-1.172a59.422,59.422,0,0,0,8.25-13.453,1.172,1.172,0,0,0-.141-1.406,1.111,1.111,0,0,0-1.594.141,52.612,52.612,0,0,1-3.515,7.031q-0.657,1.172-1.828.141l-1.266-1.125a1.506,1.506,0,0,1-.609-2.109,40.959,40.959,0,0,0,3.656-7.5,0.789,0.789,0,0,0-.375-0.891,1.119,1.119,0,0,0-1.781.656,57.679,57.679,0,0,1-3.094,6.469h0ZM198.359,80.4a3.883,3.883,0,0,0-2.531,3.234V117.1a3.932,3.932,0,0,0,1.547,2.718,5.1,5.1,0,0,0,1.875.7h15.8a3.607,3.607,0,0,0,2.765-1.593,4.223,4.223,0,0,0,.657-1.875V83.773a3.879,3.879,0,0,0-3.422-3.516H199.2a6,6,0,0,0-.844.141h0Zm6.469,2.063a0.994,0.994,0,0,1,1.125,1.125V97.133a0.994,0.994,0,0,1-1.125,1.125h-5.672a1.016,1.016,0,0,1-1.125-1.172v-12.8a1.919,1.919,0,0,1,1.828-1.828h4.969Zm11.438,1.922v12.75a0.994,0.994,0,0,1-1.125,1.125h-5.907a1.016,1.016,0,0,1-1.125-1.172v-13.5a1.016,1.016,0,0,1,1.172-1.125h4.969a2.133,2.133,0,0,1,2.016,1.922h0ZM205.953,117.2a0.994,0.994,0,0,1-1.125,1.125h-5.016a2.08,2.08,0,0,1-1.781-1.968V101.586a1.016,1.016,0,0,1,1.172-1.125h5.672a1,1,0,0,1,1.078,1.172V117.2Zm10.313-.984a2.082,2.082,0,0,1-2.016,2.109h-5.016a1.016,1.016,0,0,1-1.125-1.172V101.586a1.016,1.016,0,0,1,1.172-1.125h5.907a1,1,0,0,1,1.078,1.172v14.578Zm-39.422,2.3a1.029,1.029,0,0,0,.8.984,0.791,0.791,0,0,0,1.031-.422,6.592,6.592,0,0,0,.656-1.875,104.382,104.382,0,0,0,1.828-11.25,1.029,1.029,0,0,0-.515-0.8q-1.5-.514-1.641,1.172a111.358,111.358,0,0,1-2.156,12.188h0Zm14.531-1.969a1.086,1.086,0,0,0,1.547.469,1.071,1.071,0,0,0,.516-1.453q-0.7-4.22-1.313-8.438a5.178,5.178,0,0,0-.328-1.406,1.354,1.354,0,0,0-.938-0.469,1.171,1.171,0,0,0-1.078,1.5ZM228.5,80.773a3.519,3.519,0,0,0-1.594,2.719v33.844a3.768,3.768,0,0,0,3.328,3.375h32.11a3.655,3.655,0,0,0,2.672-1.594,4.234,4.234,0,0,0,.656-1.875V83.586q-0.657-3.281-3.422-3.469H230.234a3.585,3.585,0,0,0-1.734.656h0Zm33,1.5a2.114,2.114,0,0,1,1.969,1.922v32.2a2.14,2.14,0,0,1-2.11,2.157H230.891a2.215,2.215,0,0,1-1.829-2.157V84.148a0.747,0.747,0,0,0,.094-0.328,1.925,1.925,0,0,1,1.782-1.547H261.5Zm-27.469,4.641v2.813a2.584,2.584,0,0,0,2.25,2.109h20.063a2.582,2.582,0,0,0,2.2-2.3V87.055a2.516,2.516,0,0,0-2.25-2.25h-20.2a2.522,2.522,0,0,0-2.063,2.109h0Zm20.2-.328a2.141,2.141,0,0,1,1.782.375,2.71,2.71,0,0,1,.234,2.2,1.3,1.3,0,0,1-1.172.891H238.531a4.214,4.214,0,0,1-1.64-.234,1.27,1.27,0,0,1-.7-0.8,5.969,5.969,0,0,1,.093-1.5,1.418,1.418,0,0,1,1.078-.937h16.875ZM232.906,96.8v12.7a3.092,3.092,0,0,0,2.766,2.578h21.422a3.171,3.171,0,0,0,2.578-2.672V96.945a2.949,2.949,0,0,0-2.531-2.625H235.484a3.034,3.034,0,0,0-2.578,2.484h0Zm23.156-.656a1.383,1.383,0,0,1,1.266.938,3.262,3.262,0,0,1,.141,1.594,0.994,0.994,0,0,1-1.125,1.125H236.188a1.016,1.016,0,0,1-1.126-1.172V97.648a1.724,1.724,0,0,1,1.5-1.5h19.5Zm1.407,7.782a0.994,0.994,0,0,1-1.125,1.125H236.188a1.016,1.016,0,0,1-1.126-1.172v-1.172a1.016,1.016,0,0,1,1.172-1.125h20.157a1,1,0,0,1,1.078,1.172v1.172Zm-1.594,6.328H236.656a3.974,3.974,0,0,1-1.078-.469,2.093,2.093,0,0,1-.516-1.828,1.016,1.016,0,0,1,1.172-1.125h20.11a1.042,1.042,0,0,1,1.172,1.125,1.956,1.956,0,0,1-1.641,2.3h0Zm-23.016,5.719q-1.5.327-1.078,1.593a0.863,0.863,0,0,0,.422.563,2.263,2.263,0,0,0,1.547-.094,30.989,30.989,0,0,0,7.5-2.906,1.067,1.067,0,0,0,.469-0.938q-0.516-1.593-1.828-.8a31.783,31.783,0,0,1-7.032,2.579h0Zm17.672-1.875a1.387,1.387,0,0,0,1.407,1.265,41.066,41.066,0,0,1,6.562,2.578,1.655,1.655,0,0,0,1.781.282q1.079-.986-0.234-1.829a45.184,45.184,0,0,0-7.5-3.046,1.338,1.338,0,0,0-1.688.046,0.864,0.864,0,0,0-.328.7h0Zm48.375-33.7a1.038,1.038,0,0,1-1.125,1.219h-2.812a2.889,2.889,0,0,0-2.625,2.672V94.648a3,3,0,0,0,2.859,2.625h16.641q2.625-.7,2.765-2.859V84.242a3.144,3.144,0,0,0-2.718-2.625H308.8a1.016,1.016,0,0,1-1.125-1.172,4.943,4.943,0,0,0-.188-1.641,1.1,1.1,0,0,0-1.359-.375,0.983,0.983,0,0,0-.609.563q-0.048.75-.047,1.5a0.994,0.994,0,0,1-1.125,1.125h-2.156a1.038,1.038,0,0,1-1.126-1.219,4.831,4.831,0,0,0-.14-1.5,1.346,1.346,0,0,0-.563-0.469,1.022,1.022,0,0,0-1.265.328,4.944,4.944,0,0,0-.188,1.641h0Zm-23.25.844a3.727,3.727,0,0,0-.75,1.875V91.6a2.266,2.266,0,0,1-.844,1.828,3.86,3.86,0,0,0-1.031,2.2v1.781a6.593,6.593,0,0,0,.094,1.594,1,1,0,0,0,1.219.75,0.749,0.749,0,0,0,.609-0.375,3.176,3.176,0,0,0,.235-1.969,2.391,2.391,0,0,1,2.015-2.953h10.5q2.063,0.422,1.453,2.016-0.234.938-.562,1.875a0.906,0.906,0,0,0,.562,1.266q1.125,0.516,1.594-.844a12.066,12.066,0,0,0,.844-3.281,2.836,2.836,0,0,0-2.156-3.047,1.265,1.265,0,0,1-1.126-1.359V83.117a3,3,0,0,0-2.906-3h-7.5a2.839,2.839,0,0,0-2.25,1.125h0Zm8.625,1.031a1.972,1.972,0,0,1,1.875,2.25,0.994,0.994,0,0,1-1.125,1.125,7.365,7.365,0,0,0-3.469.328,3.016,3.016,0,0,0-1.687,2.578v2.578q0,1.125-1.406,1.125a1.151,1.151,0,0,1-1.407-1.172V83.914a2.076,2.076,0,0,1,.891-1.359,3.072,3.072,0,0,1,1.875-.281h4.453Zm13.5,1.5a0.994,0.994,0,0,1,1.125,1.125v2.3a0.994,0.994,0,0,1-1.125,1.125h-2.109a1.016,1.016,0,0,1-1.125-1.172V85.273a1.714,1.714,0,0,1,1.5-1.5h1.734Zm7.688,3.422a0.994,0.994,0,0,1-1.125,1.125h-2.156a1.016,1.016,0,0,1-1.126-1.172V84.9a1.016,1.016,0,0,1,1.172-1.125h2.157a1,1,0,0,1,1.078,1.172V87.2Zm6.937,0a0.994,0.994,0,0,1-1.125,1.125H308.8a1.016,1.016,0,0,1-1.125-1.172V84.9a1.015,1.015,0,0,1,1.172-1.125h2.109a1.42,1.42,0,0,1,1.172.75,5.7,5.7,0,0,1,.281,2.672h0Zm-27.375.422a0.994,0.994,0,0,1,1.125,1.125v2.391a0.994,0.994,0,0,1-1.125,1.125h-2.062a1.016,1.016,0,0,1-1.125-1.172V90.242a4.749,4.749,0,0,1,.187-1.594,1.856,1.856,0,0,1,1.219-1.031h1.781Zm13.875,6.375a0.994,0.994,0,0,1-1.125,1.125h-1.64a1.84,1.84,0,0,1-1.594-1.547V91.648a1.015,1.015,0,0,1,1.172-1.125h2.062a0.994,0.994,0,0,1,1.125,1.125v2.344Zm6.563,0a0.994,0.994,0,0,1-1.125,1.125h-2.156a1.016,1.016,0,0,1-1.126-1.172v-2.3a1.016,1.016,0,0,1,1.172-1.125h2.11a0.994,0.994,0,0,1,1.125,1.125v2.344Zm6.937-.562a1.912,1.912,0,0,1-1.687,1.688H308.8a1.016,1.016,0,0,1-1.125-1.172v-2.3a1.015,1.015,0,0,1,1.172-1.125h2.437a0.994,0.994,0,0,1,1.125,1.125V93.43Zm-36.75,26.343a3.229,3.229,0,0,0,.282,1.969,1,1,0,0,0,.562.328,1.11,1.11,0,0,0,1.172-.515,6.051,6.051,0,0,0,.187-1.875v-4.407a1.016,1.016,0,0,1,1.172-1.125h6.188a0.994,0.994,0,0,1,1.125,1.125v2.813a1.414,1.414,0,0,1-1.032,1.687,10.037,10.037,0,0,1-1.406-.093,10.307,10.307,0,0,0-1.875-.282,1.084,1.084,0,0,0-.656,1.969,9.03,9.03,0,0,0,5.063.656,2.41,2.41,0,0,0,1.64-1.359,4.844,4.844,0,0,0,.469-1.875V100.93a2.226,2.226,0,0,1-.141-0.61,2.779,2.779,0,0,0-2.672-2.2h-7.5a3.043,3.043,0,0,0-2.578,2.672v18.984Zm8.3-19.5a4.586,4.586,0,0,1,1.453.141,3.244,3.244,0,0,1,.8.8,6.228,6.228,0,0,1,.141,1.594v1.453a0.994,0.994,0,0,1-1.125,1.125h-6.235a1.016,1.016,0,0,1-1.125-1.172v-2.625a1.48,1.48,0,0,1,1.36-1.313h4.734Zm7.688,2.157a7.368,7.368,0,0,0,1.64.093h20.2a7.029,7.029,0,0,0,1.594-.093,0.918,0.918,0,0,0,.563-0.75,1.062,1.062,0,0,0-.563-1.266,7.411,7.411,0,0,0-1.64-.094H291.875a0.98,0.98,0,0,0-.891,1.032,1.006,1.006,0,0,0,.657,1.078h0Zm1.265,8.2q-0.421,3.093,2.485,3.7a1.455,1.455,0,0,1,1.453,1.172q0.375,1.218.8,2.484,0.327,1.125-.8,1.125h-6.469a0.965,0.965,0,0,0-.75.516,1.151,1.151,0,0,0,.469,1.547,7.437,7.437,0,0,0,1.64.093h22.407a6.681,6.681,0,0,0,1.593-.093,1.1,1.1,0,0,0,.094-2.016,14.7,14.7,0,0,0-1.64-.047H310.25q-1.125,0-.75-1.172l0.938-2.484a1.669,1.669,0,0,1,1.359-1.172,2.571,2.571,0,0,0,2.391-2.25V107.82a2.843,2.843,0,0,0-2.157-2.437H295.2a2.668,2.668,0,0,0-2.3,2.25v3Zm-6.562.234a0.994,0.994,0,0,1-1.125,1.125h-6.235a1.015,1.015,0,0,1-1.125-1.172v-2.109a1.016,1.016,0,0,1,1.172-1.125h6.235a1,1,0,0,1,1.078,1.172v2.109Zm24.562-3.281a1.423,1.423,0,0,1,1.125,1.219v2.109a1.387,1.387,0,0,1-1.406,1.266h-14.25a1.512,1.512,0,0,1-1.078-.61,2.956,2.956,0,0,1-.235-1.734,5.356,5.356,0,0,1,.094-1.359,1.485,1.485,0,0,1,1.266-.891h14.484Zm-3.7,10.406a1.628,1.628,0,0,1-1.594,1.125h-4.265a1.409,1.409,0,0,1-1.453-1.172,23.16,23.16,0,0,0-.8-2.484q-0.329-1.125.8-1.125h7.64q1.125,0,.61,1.172-0.518,1.266-.938,2.484h0ZM347.375,83.82a9.984,9.984,0,0,1-2.531,3.75,0.814,0.814,0,0,0-.516.891q0.7,1.828,1.969.7a11.719,11.719,0,0,0,2.015-2.578q0.657-1.078,1.172.094a40.685,40.685,0,0,0,3.141,5.953,1.406,1.406,0,0,1-.234,2.156,39.822,39.822,0,0,1-7.453,4.266,1.173,1.173,0,0,0-.469.938,1.221,1.221,0,0,0,1.922.8,43.622,43.622,0,0,0,7.359-4.406,1.636,1.636,0,0,1,2.344.234,24.084,24.084,0,0,0,6.562,4.36,1.236,1.236,0,0,0,1.594-.188,1.039,1.039,0,0,0-.375-1.641,20.735,20.735,0,0,1-6.375-4.031,1.487,1.487,0,0,1-.328-2.2,20.854,20.854,0,0,0,3.75-8.016,1.346,1.346,0,0,1,1.5-1.125,5.309,5.309,0,0,0,1.594-.141,1.065,1.065,0,0,0,.515-0.656,1.106,1.106,0,0,0-.562-1.312,14.784,14.784,0,0,0-1.641-.047H351.781a0.774,0.774,0,0,1-.843-1.125,7.04,7.04,0,0,0,.281-1.5,1.082,1.082,0,0,0-.75-0.984,0.758,0.758,0,0,0-1.078.656q-0.986,2.578-2.016,5.156h0Zm-26.016,1.453a2.982,2.982,0,0,0-.468.75q0.327,1.923,1.921.938a13.569,13.569,0,0,0,3.047-3.375,2.316,2.316,0,0,1,1.922-1.125h14.438a6.072,6.072,0,0,0,1.734-.141,2.615,2.615,0,0,0,.422-0.422,1.137,1.137,0,0,0-.469-1.547,7.39,7.39,0,0,0-1.64-.094H328.812q-1.125,0-.89-0.75a0.994,0.994,0,0,0-.281-1.219q-1.125-.749-1.782.7a12.24,12.24,0,0,1-4.5,6.281h0Zm34.547,6a1.019,1.019,0,0,1-1.828-.141,33.122,33.122,0,0,1-3.094-6.234q-0.375-1.125.75-1.125h6.047a0.845,0.845,0,0,1,.891,1.172,18.615,18.615,0,0,1-2.766,6.328h0Zm-29.859-4.031a10.807,10.807,0,0,1-.328,1.688,1.33,1.33,0,0,1-1.407,1.125h-1.265a9.912,9.912,0,0,0-1.781.094,1.691,1.691,0,0,0-.469.609,1.176,1.176,0,0,0,.8,1.453H323.7a0.774,0.774,0,0,1,.844,1.125A5.271,5.271,0,0,0,324.5,96.8a3.209,3.209,0,0,0,2.3,1.031h9.469q1.125,0,.937.7a1.46,1.46,0,0,1-1.031,1.172,12.756,12.756,0,0,1-3.563-.375,2.233,2.233,0,0,0-1.687.422q-0.562,1.361.656,1.734a11.436,11.436,0,0,0,5.531.469,3.611,3.611,0,0,0,2.391-3,1.469,1.469,0,0,1,1.688-1.125,5.269,5.269,0,0,0,1.828-.187,1.58,1.58,0,0,0,.375-0.422,1.1,1.1,0,0,0-.375-1.359,5.17,5.17,0,0,0-1.688-.187,0.868,0.868,0,0,1-.937-1.219l0.187-1.125a1.2,1.2,0,0,1,1.313-1.125h2.015a5.519,5.519,0,0,0,1.688-.141,0.9,0.9,0,0,0,.562-0.609,1.085,1.085,0,0,0-.75-1.406h-3.234a0.95,0.95,0,0,1-1.078-1.125V88.648a10.547,10.547,0,0,0-.094-2.3,2.035,2.035,0,0,0-1.781-1.734H328.438a2.589,2.589,0,0,0-2.391,2.625h0Zm4.547-.469a1.4,1.4,0,0,1,1.453,1.125l0.375,0.938q0.563,1.219-.563,1.219h-2.906a0.836,0.836,0,0,1-.937-1.125l0.14-1.031a1.018,1.018,0,0,1,.985-1.125h1.453Zm8.2,2.156a1.042,1.042,0,0,1-1.172,1.125h-1.734q-1.125,0-1.079-.234a4.491,4.491,0,0,0-.562-1.922q-0.516-1.125.609-1.125h1.922a2.538,2.538,0,0,1,1.735.281,3.316,3.316,0,0,1,.281,1.875h0ZM330.734,93.8a6.89,6.89,0,0,1,.469.7q0.609,1.172-.515,1.172h-2.016q-2.861.235-1.734-2.344a1.47,1.47,0,0,1,1.5-1.125h0.89q0.984,0,.891.375a1.707,1.707,0,0,0,.515,1.219h0Zm7.407,0.75a1.33,1.33,0,0,1-1.407,1.125h-1.828q-1.125,0-1.031-.562a3.608,3.608,0,0,0-.75-1.781q-0.8-1.125.328-1.125h3.891a0.9,0.9,0,0,1,.984,1.172Zm-1.969,10.312a1.877,1.877,0,0,1-2.25.094,2.588,2.588,0,0,1-.516-0.234,13.227,13.227,0,0,0-1.875-.938q-1.406-.609-1.828.094-0.75,1.266,1.031,1.922a43.493,43.493,0,0,1,6.563,3.7,1.056,1.056,0,0,0,1.828-.516,1.482,1.482,0,0,0-.937-1.406q-1.173-.8-0.094-1.547a54.166,54.166,0,0,0,4.406-3.328q1.313-1.031.891-1.828-0.752-1.218-2.016-.188-2.812,2.439-5.2,4.172h0Zm2.812,5.953a2.22,2.22,0,0,1-.937.328q-8.111.282-16.172,0.61a0.978,0.978,0,0,0-.75.7,1.047,1.047,0,0,0,.516,1.312,3.006,3.006,0,0,0,1.593.094l17.063-.562a0.95,0.95,0,0,1,1.125,1.078v7.172a1.069,1.069,0,0,0,1.125.89,1.089,1.089,0,0,0,.891-0.515,6.051,6.051,0,0,0,.187-1.875v-5.766a1.042,1.042,0,0,1,1.125-1.172l14.156-.515a2.586,2.586,0,0,1,2.156.984l0.8,0.8A3.557,3.557,0,0,0,363.5,115.6a1.013,1.013,0,0,0,.75-0.75,4.065,4.065,0,0,0-.938-1.782q-2.437-2.857-6-6.375-1.734-2.2-2.812-.89-0.469.8,0.609,1.593,0.845,0.939,1.782,1.829,1.125,1.125,0,1.218l-13.172.469q-1.125.048,0.093-.844a28.259,28.259,0,0,0,7.547-7.031,0.685,0.685,0,0,0,.047-0.937,1.057,1.057,0,0,0-1.734-.235,40.769,40.769,0,0,1-10.688,8.953h0Zm-16.265,8.953a1.15,1.15,0,0,0-.8.657,1.014,1.014,0,0,0,.469,1.265,4.025,4.025,0,0,0,2.343-.187,36.117,36.117,0,0,0,9.375-4.313,1.178,1.178,0,0,0,.7-1.5,0.868,0.868,0,0,0-1.312-.422,29.454,29.454,0,0,1-10.781,4.5h0Zm28.969-2.437a46.5,46.5,0,0,1,9.374,3.891q1.172,0.936,1.876-.047a1.023,1.023,0,0,0-.141-1.407,61.973,61.973,0,0,0-10.781-4.64,1.06,1.06,0,0,0-1.407.609q-0.468,1.313,1.079,1.594h0Z"/>
</svg>
