<svg xmlns="http://www.w3.org/2000/svg" width="400" height="200" viewBox="0 0 400 200">
  <defs>
    <style>
      .cls-1 {
        fill: #fdfdfd;
        fill-rule: evenodd;
      }
    </style>
  </defs>
  <path id="思源柔黑" class="cls-1" d="M94.031,83.914a0.468,0.468,0,0,1-.492-0.562V74.773a0.469,0.469,0,0,1,.492-0.562h16.735a0.5,0.5,0,0,1,.562.563v8.578a0.5,0.5,0,0,1-.562.563H94.031Zm0,13.781a0.435,0.435,0,0,1-.492-0.492V88.414a0.435,0.435,0,0,1,.492-0.492h16.735a0.469,0.469,0,0,1,.562.492V97.2a0.469,0.469,0,0,1-.562.492H94.031Zm-5.7-9.773a0.436,0.436,0,0,1,.492.492V97.2a0.435,0.435,0,0,1-.492.492H71.18a0.468,0.468,0,0,1-.562-0.492V88.414a0.469,0.469,0,0,1,.563-0.492H88.336Zm0-13.711a0.469,0.469,0,0,1,.492.563v8.578a0.469,0.469,0,0,1-.492.563H71.18a0.5,0.5,0,0,1-.562-0.562V74.773a0.5,0.5,0,0,1,.563-0.562H88.336Zm-18.07-4.219a3.955,3.955,0,0,0-2.953,1.231,4.043,4.043,0,0,0-1.2,2.918v23.7a4.042,4.042,0,0,0,1.2,2.918,3.949,3.949,0,0,0,2.953,1.23h41.625a3.953,3.953,0,0,0,2.953-1.23,4.048,4.048,0,0,0,1.2-2.918v-23.7a4.049,4.049,0,0,0-1.2-2.918,3.959,3.959,0,0,0-2.953-1.231H70.266Zm17.578,34.664a3.1,3.1,0,0,0-1.477-.422,2.759,2.759,0,0,0-1.969.914,1.341,1.341,0,0,0-.457,1.266,1.635,1.635,0,0,0,.738,1.195,81.811,81.811,0,0,1,11.531,8.016,2.3,2.3,0,0,0,1.688.6,2.368,2.368,0,0,0,1.652-.7,2.09,2.09,0,0,0,.633-1.618,1.941,1.941,0,0,0-.739-1.511,67.225,67.225,0,0,0-11.6-7.735h0Zm-17.156,8.227a2.2,2.2,0,0,0-.141-1.723A2.435,2.435,0,0,0,69.211,110a2.041,2.041,0,0,0-1.652.141,2.151,2.151,0,0,0-1.09,1.336,53.31,53.31,0,0,1-5.836,13.078,2.21,2.21,0,0,0-.352,1.195,1.54,1.54,0,0,0,.07.492,1.934,1.934,0,0,0,1.055,1.406,2.438,2.438,0,0,0,1.863.247,2.559,2.559,0,0,0,1.582-1.09,61.72,61.72,0,0,0,5.836-13.922h0ZM81.938,126a1.945,1.945,0,0,1-.914-1.934v-12.3a2.391,2.391,0,0,0-4.781,0v12.3q0,4.008,1.934,5.379t7.488,1.371h14.977q4.429,0,6.117-1.933t2.25-7.7a2.469,2.469,0,0,0-.457-1.828,3.665,3.665,0,0,0-1.582-1.266,1.578,1.578,0,0,0-1.512.07,1.37,1.37,0,0,0-.738,1.266q-0.352,4.43-1.2,5.73t-3.3,1.3H85.945A10.874,10.874,0,0,1,81.938,126Zm35.93-.246a2.323,2.323,0,0,0,1.336,1.406,2.085,2.085,0,0,0,1.828,0,2.554,2.554,0,0,0,1.407-1.476,2.413,2.413,0,0,0,0-1.969,73.9,73.9,0,0,0-8.016-13.43,3.018,3.018,0,0,0-1.617-1.125,4.033,4.033,0,0,0-.774-0.07,3.176,3.176,0,0,0-1.125.211,1.911,1.911,0,0,0-1.054,1.2,2.02,2.02,0,0,0-.071.492,1.773,1.773,0,0,0,.352,1.055,72.837,72.837,0,0,1,7.734,13.711h0ZM138.68,68.516a2.653,2.653,0,0,0-1.2-.281,3.305,3.305,0,0,0-.632.07,2.921,2.921,0,0,0-1.547.914,1.957,1.957,0,0,0-.352,1.512,1.681,1.681,0,0,0,.914,1.23,58.6,58.6,0,0,1,8.227,5.555,2.358,2.358,0,0,0,1.722.563,1.965,1.965,0,0,0,1.512-.844,2.338,2.338,0,0,0,.527-1.793,2.368,2.368,0,0,0-.878-1.652,50.109,50.109,0,0,0-8.3-5.273h0Zm-3.586,19.125a2.624,2.624,0,0,0-1.793-.211,2.471,2.471,0,0,0-1.512.984,1.778,1.778,0,0,0-.351,1.055v0.422a1.913,1.913,0,0,0,.984,1.266,55.914,55.914,0,0,1,8.367,5.133,2.03,2.03,0,0,0,1.652.527,2.077,2.077,0,0,0,1.512-.879,2.39,2.39,0,0,0-.422-3.375,50.216,50.216,0,0,0-8.437-4.922h0Zm-1.828,38.742a2.7,2.7,0,0,0-.352,1.336,1.713,1.713,0,0,0,.141.633,2.366,2.366,0,0,0,1.125,1.617,2.223,2.223,0,0,0,3.234-.914q4.851-9.633,8.648-18.774a2.526,2.526,0,0,0,.106-1.9,2.861,2.861,0,0,0-1.16-1.547,1.731,1.731,0,0,0-1.547-.246,1.787,1.787,0,0,0-1.2,1.09,193.846,193.846,0,0,1-9,18.7h0Zm23.132-2.391a1.842,1.842,0,0,0,.422,2.813,2.484,2.484,0,0,0,3.305-.422,55.841,55.841,0,0,0,7.1-11.742,1.718,1.718,0,0,0-.036-1.547,1.805,1.805,0,0,0-1.23-.985,2.3,2.3,0,0,0-1.793.176,2.547,2.547,0,0,0-1.23,1.3,46.187,46.187,0,0,1-6.54,10.406h0Zm31.29-27.211a0.436,0.436,0,0,1,.492.492v5.766a0.435,0.435,0,0,1-.492.492H165.82a0.434,0.434,0,0,1-.492-0.492V97.273a0.435,0.435,0,0,1,.492-0.492h21.868Zm0-10.266a0.436,0.436,0,0,1,.492.492v5.625a0.469,0.469,0,0,1-.492.563H165.82a0.468,0.468,0,0,1-.492-0.562V87.008a0.435,0.435,0,0,1,.492-0.492h21.868Zm4.992,0.352a4.2,4.2,0,0,0-4.149-4.148H177.773a0.348,0.348,0,0,1-.351-0.492q0.7-2.179,1.9-6.539a0.962,0.962,0,0,0-.1-0.668,0.748,0.748,0,0,0-.527-0.387h14.624a2.28,2.28,0,0,0,2.25-2.25,2.054,2.054,0,0,0-.667-1.547,2.229,2.229,0,0,0-1.583-.633H156.047a4.2,4.2,0,0,0-4.149,4.148V89.891q0,4.993-.246,9.141t-0.949,9.387a54.041,54.041,0,0,1-2.355,10.125,43.636,43.636,0,0,1-4.114,8.895,2.208,2.208,0,0,0-.351,1.2,2.307,2.307,0,0,0,.07.562,2.133,2.133,0,0,0,1.055,1.407,2.212,2.212,0,0,0,1.758.386,2.044,2.044,0,0,0,1.476-1.019q8.3-13.5,8.3-40.078V75.125a0.435,0.435,0,0,1,.492-0.492h16.735a0.4,0.4,0,0,1,.492.492q-0.422,2.813-1.477,7.1a0.607,0.607,0,0,1-.633.492h-6.96a4.2,4.2,0,0,0-4.149,4.148v16.242a3.948,3.948,0,0,0,1.231,2.953,4.038,4.038,0,0,0,2.918,1.2h8.437a0.5,0.5,0,0,1,.563.562v19.336a1.029,1.029,0,0,1-.282.809,1.511,1.511,0,0,1-.984.246h-5.484a1.433,1.433,0,0,0-1.336,1.969,2.968,2.968,0,0,0,1.054,1.511,2.7,2.7,0,0,0,1.688.6h0.633a24.172,24.172,0,0,0,6.89-.633,3.114,3.114,0,0,0,1.9-1.511,6.917,6.917,0,0,0,.492-2.918V107.82a0.5,0.5,0,0,1,.562-0.562h9.211a4.042,4.042,0,0,0,2.918-1.2,3.952,3.952,0,0,0,1.231-2.953V86.867Zm-1.055,38.25a2.124,2.124,0,0,0,1.266,1.195,1.864,1.864,0,0,0,.843.211,2.01,2.01,0,0,0,.914-0.211,2.616,2.616,0,0,0,1.336-1.406,2.451,2.451,0,0,0,.141-0.773,2.647,2.647,0,0,0-.211-1.055,70.653,70.653,0,0,0-6.539-10.406,2.462,2.462,0,0,0-1.477-.984,4.722,4.722,0,0,0-.773-0.071,2.657,2.657,0,0,0-1.055.211,1.683,1.683,0,0,0-.984,1.125,2.064,2.064,0,0,0-.07.492,1.73,1.73,0,0,0,.281.985,69.152,69.152,0,0,1,6.328,10.687h0Zm73.406-16.805H238.312a0.468,0.468,0,0,1-.492-0.562v-1.266a3,3,0,0,0-3.023-3.023,8.765,8.765,0,0,0,1.9-.422,3.647,3.647,0,0,0,2.11-1.406,5.687,5.687,0,0,0,.562-2.883v-10.2a0.5,0.5,0,0,1,.563-0.562h18a0.228,0.228,0,0,1,.211.141,0.3,0.3,0,0,1,0,.281,76.521,76.521,0,0,1-6.329,6.891,1.426,1.426,0,0,0-.421,1.336,1.31,1.31,0,0,0,.843,1.055,3.7,3.7,0,0,0,1.547.352,3.1,3.1,0,0,0,2.25-.984,113.409,113.409,0,0,0,9.141-10.406,1.435,1.435,0,0,0,.246-1.266,1.381,1.381,0,0,0-.879-0.984l-1.055-.352a2.931,2.931,0,0,0-1.546-.141,0.288,0.288,0,0,1-.211.07H246.75a0.062,0.062,0,0,1-.07-0.07c0.234-.281.186-0.492-0.141-0.633q-1.758-.773-4.711-1.9a0.123,0.123,0,0,1-.14-0.141,0.225,0.225,0,0,1,.14-0.211,73.747,73.747,0,0,0,14.7-7.875,1.353,1.353,0,0,0,.633-1.2,1.609,1.609,0,0,0-.562-1.266l-0.844-.7a1.959,1.959,0,0,0-1.195-.422,2.348,2.348,0,0,0-.563.07,0.621,0.621,0,0,1-.281.07h-40.5a1.969,1.969,0,1,0,0,3.938h34.453a0.125,0.125,0,0,1,.106.106,0.16,0.16,0,0,1-.036.176,61.925,61.925,0,0,1-11.39,5.2,1.747,1.747,0,0,1-.985,0q-5.2-1.477-9.421-2.391a2.67,2.67,0,0,0-.844-0.141,3,3,0,0,0-2.391,1.2,1.094,1.094,0,0,0-.211,1.125,0.946,0.946,0,0,0,.844.7,104.261,104.261,0,0,1,14.133,4.148c0.046,0,.058.035,0.035,0.106a0.123,0.123,0,0,1-.106.105H207.164a2.027,2.027,0,0,0-1.441.563,1.85,1.85,0,0,0-.6,1.406,2.041,2.041,0,0,0,2.039,2.039h20.25a0.168,0.168,0,0,1,.176.141,0.212,0.212,0,0,1-.035.211q-8.3,6.892-21.094,11.109a1.5,1.5,0,0,0-1.055,1.09,1.579,1.579,0,0,0,.282,1.441,3.819,3.819,0,0,0,1.722,1.2,2.936,2.936,0,0,0,2,0,81.51,81.51,0,0,0,13.254-6.5,55.608,55.608,0,0,0,10.934-8.4,0.872,0.872,0,0,1,.632-0.281,0.311,0.311,0,0,1,.352.352V98.68a1.028,1.028,0,0,1-.281.809,1.92,1.92,0,0,1-1.055.316q-0.774.071-2.32,0.07-1.687,0-4.149-.07a1.291,1.291,0,0,0-1.16.6,1.224,1.224,0,0,0-.105,1.231,2.894,2.894,0,0,0,2.812,2.039q2.532,0,4.149-.07a0.469,0.469,0,0,1,.492.562v3.586a0.468,0.468,0,0,1-.492.562H205.828a2.171,2.171,0,0,0-1.547.6,2.122,2.122,0,0,0,0,3.024,2.17,2.17,0,0,0,1.547.6h21.727a0.227,0.227,0,0,1,.211.141,0.139,0.139,0,0,1-.071.211,53.491,53.491,0,0,1-10.336,7.769,67.558,67.558,0,0,1-12.445,5.8,1.594,1.594,0,0,0-1.019,1.125,1.617,1.617,0,0,0,.316,1.547,3.449,3.449,0,0,0,3.867,1.195,74.882,74.882,0,0,0,13.465-7.066,56.886,56.886,0,0,0,11.074-9.316,0.323,0.323,0,0,1,.246-0.036,0.164,0.164,0,0,1,.106.176V129.9a2.383,2.383,0,0,0,.7,1.758,2.462,2.462,0,0,0,3.445,0,2.387,2.387,0,0,0,.7-1.758V114.359a0.162,0.162,0,0,1,.106-0.175,0.327,0.327,0,0,1,.246.035,51.316,51.316,0,0,0,11.074,9.07,70.8,70.8,0,0,0,13.746,6.68,3.15,3.15,0,0,0,2.074,0,3.62,3.62,0,0,0,1.793-1.266,1.785,1.785,0,0,0,.352-1.055,1.346,1.346,0,0,0-.07-0.421,1.511,1.511,0,0,0-1.055-1.125,65.287,65.287,0,0,1-12.8-5.52,46,46,0,0,1-10.336-7.7,0.139,0.139,0,0,1-.07-0.211,0.223,0.223,0,0,1,.211-0.141h21.937a2.171,2.171,0,0,0,1.547-.6,2.122,2.122,0,0,0,0-3.024,2.172,2.172,0,0,0-1.547-.6h0Zm56.742-31.148a1.725,1.725,0,0,0,.071-1.441,1.7,1.7,0,0,0-.985-1.02,1.987,1.987,0,0,0-1.511.035,2.062,2.062,0,0,0-1.09,1.09,64.328,64.328,0,0,1-4.149,8.227,1.345,1.345,0,0,0-.14,1.2,1.477,1.477,0,0,0,.843.914,1.867,1.867,0,0,0,1.336.07,2.018,2.018,0,0,0,1.125-.844q1.828-3.093,4.5-8.227h0Zm-25.8,7.031a1.7,1.7,0,0,0,.879,1.055,1.562,1.562,0,0,0,1.371.07,2.093,2.093,0,0,0,1.16-.984,1.72,1.72,0,0,0,.1-1.477,35.6,35.6,0,0,0-3.515-7.383,2.114,2.114,0,0,0-1.125-.949,1.947,1.947,0,0,0-1.406.035,1.267,1.267,0,0,0-.844.844,1.5,1.5,0,0,0,.07,1.2,33.073,33.073,0,0,1,3.305,7.594h0Zm-8.578-11.672a0.468,0.468,0,0,1,.562-0.492h16.453a0.435,0.435,0,0,1,.492.492V87.57a0.435,0.435,0,0,1-.492.492H287.953a0.468,0.468,0,0,1-.562-0.492V72.523Zm22.781,15.539a0.434,0.434,0,0,1-.492-0.492V72.523a0.435,0.435,0,0,1,.492-0.492H326.2a0.469,0.469,0,0,1,.563.492V87.57a0.469,0.469,0,0,1-.563.492H310.172Zm0,21.376a0.435,0.435,0,0,1-.492-0.493V102.9a0.435,0.435,0,0,1,.492-0.492h20.953a1.888,1.888,0,0,0,1.371-.6,1.953,1.953,0,0,0,0-2.813,1.89,1.89,0,0,0-1.371-.6H310.172a0.468,0.468,0,0,1-.492-0.562v-5.2a0.468,0.468,0,0,1,.492-0.562h17.3a4.2,4.2,0,0,0,4.148-4.148V72.1a4.2,4.2,0,0,0-4.148-4.148h-40.5A4.2,4.2,0,0,0,282.82,72.1v15.82a4.2,4.2,0,0,0,4.149,4.148h17.437a0.469,0.469,0,0,1,.492.563v5.2a0.468,0.468,0,0,1-.492.563H283.453a1.887,1.887,0,0,0-1.371.6,1.953,1.953,0,0,0,0,2.813,1.885,1.885,0,0,0,1.371.6h20.953a0.435,0.435,0,0,1,.492.492v6.047a0.435,0.435,0,0,1-.492.493H277.688a2.023,2.023,0,0,0-1.477.632,2.122,2.122,0,0,0,0,3.024,2.024,2.024,0,0,0,1.477.633h59.343a2.1,2.1,0,0,0,1.547-.633,2.122,2.122,0,0,0,0-3.024,2.1,2.1,0,0,0-1.547-.632H310.172Zm-22.641,10.828a1.945,1.945,0,0,0-.07-1.688,1.91,1.91,0,0,0-1.336-1.055,2.75,2.75,0,0,0-1.828.211,2.988,2.988,0,0,0-1.406,1.336,31.533,31.533,0,0,1-5.344,8.157,1.783,1.783,0,0,0-.492,1.195,1.7,1.7,0,0,0,.914,1.617,3.412,3.412,0,0,0,1.547.352,2.123,2.123,0,0,0,.492-0.071,2.739,2.739,0,0,0,1.828-.984,34.608,34.608,0,0,0,5.695-9.07h0Zm9.844,7.8a2.244,2.244,0,0,0,.773,1.547,2.371,2.371,0,0,0,1.336.422h0.282a2.528,2.528,0,0,0,1.687-.914,2.417,2.417,0,0,0,.563-1.758,48.737,48.737,0,0,0-.985-6.89,2.485,2.485,0,0,0-.984-1.547,2.2,2.2,0,0,0-1.688-.422,1.743,1.743,0,0,0-1.476.773,1.78,1.78,0,0,0-.422,1.2,1.143,1.143,0,0,0,.07.351,70.336,70.336,0,0,1,.844,7.242h0Zm16.875-.14a2.536,2.536,0,0,0,1.125,1.511,2.385,2.385,0,0,0,1.828.317,2.514,2.514,0,0,0,1.442-1.16,2.141,2.141,0,0,0,.246-1.793,61.412,61.412,0,0,0-2.6-6.891,2.365,2.365,0,0,0-1.266-1.336,2.949,2.949,0,0,0-1.9-.211,1.514,1.514,0,0,0-1.195.914,1.868,1.868,0,0,0-.211.844,2.448,2.448,0,0,0,.14.773,62.435,62.435,0,0,1,2.391,7.032h0Zm19.336,0.773a2.923,2.923,0,0,0,1.617,1.266,2.894,2.894,0,0,0,.914.14,2.647,2.647,0,0,0,1.055-.211,1.9,1.9,0,0,0,1.195-1.265,1.729,1.729,0,0,0,.141-0.633,2.109,2.109,0,0,0-.352-1.125,58.2,58.2,0,0,0-6.82-8.3,3.21,3.21,0,0,0-2.391-1.125,3.626,3.626,0,0,0-1.336.281,1.7,1.7,0,0,0-.984,1.477,1.518,1.518,0,0,0,.422.984,62.3,62.3,0,0,1,6.539,8.508h0Z"/>
</svg>
