<svg xmlns="http://www.w3.org/2000/svg" width="1540" height="1450" viewBox="0 0 1540 1450">
  <defs>
    <style>
      .cls-1 {
        fill: #fff;
      }

      .cls-1, .cls-2, .cls-3 {
        fill-rule: evenodd;
      }

      .cls-2 {
        fill: #fefefe;
      }

      .cls-3 {
        fill: #fdfdfd;
      }
    </style>
  </defs>
  <path id="字体名称" class="cls-1" d="M403.09,179.32c-1.141,0-1.709-.648-1.709-1.953V147.582q0-1.951,1.709-1.953H461.2a1.727,1.727,0,0,1,1.953,1.953v29.785a1.725,1.725,0,0,1-1.953,1.953H403.09Zm0,47.852a1.51,1.51,0,0,1-1.709-1.709V194.945a1.511,1.511,0,0,1,1.709-1.709H461.2c1.3,0,1.953.573,1.953,1.709v30.518q0,1.71-1.953,1.709H403.09Zm-19.776-33.936a1.513,1.513,0,0,1,1.709,1.709v30.518a1.511,1.511,0,0,1-1.709,1.709h-59.57q-1.956,0-1.953-1.709V194.945c0-1.136.649-1.709,1.953-1.709h59.57Zm0-47.607c1.137,0,1.709.652,1.709,1.953v29.785c0,1.305-.572,1.953-1.709,1.953h-59.57a1.724,1.724,0,0,1-1.953-1.953V147.582a1.726,1.726,0,0,1,1.953-1.953h59.57ZM320.57,130.98a13.734,13.734,0,0,0-10.254,4.273,14.043,14.043,0,0,0-4.15,10.132V227.66a14.037,14.037,0,0,0,4.15,10.132,13.718,13.718,0,0,0,10.254,4.272H465.1a13.727,13.727,0,0,0,10.253-4.272,14.05,14.05,0,0,0,4.151-10.132V145.385a14.056,14.056,0,0,0-4.151-10.132A13.742,13.742,0,0,0,465.1,130.98H320.57Zm61.035,120.362a10.733,10.733,0,0,0-5.126-1.465,9.566,9.566,0,0,0-6.836,3.174,4.651,4.651,0,0,0-1.587,4.394,5.68,5.68,0,0,0,2.563,4.151q23.677,13.915,40.039,27.832a7.984,7.984,0,0,0,5.86,2.075,8.227,8.227,0,0,0,5.737-2.441,7.25,7.25,0,0,0,2.2-5.616,6.735,6.735,0,0,0-2.563-5.249q-15.627-13.423-40.284-26.855h0Zm-59.57,28.564a7.629,7.629,0,0,0-.488-5.981,8.458,8.458,0,0,0-4.639-4.029,7.1,7.1,0,0,0-5.737.489,7.472,7.472,0,0,0-3.784,4.638q-8.549,27.346-20.264,45.411a7.685,7.685,0,0,0-1.221,4.15,5.37,5.37,0,0,0,.244,1.709,6.719,6.719,0,0,0,3.663,4.883,8.458,8.458,0,0,0,6.469.854,8.872,8.872,0,0,0,5.493-3.784q10.5-16.845,20.264-48.34h0ZM361.1,325.438q-3.177-1.584-3.174-6.713V276a8.3,8.3,0,0,0-16.6,0v42.725q0,13.915,6.714,18.676t26,4.761h52q15.381,0,21.24-6.714t7.813-26.733a8.56,8.56,0,0,0-1.587-6.348,12.74,12.74,0,0,0-5.493-4.394,5.472,5.472,0,0,0-5.249.244,4.752,4.752,0,0,0-2.564,4.394q-1.224,15.381-4.15,19.9t-11.475,4.516h-49.56Q364.268,327.025,361.1,325.438Zm124.756-.854a8.069,8.069,0,0,0,4.638,4.883,7.247,7.247,0,0,0,6.348,0,8.865,8.865,0,0,0,4.883-5.127,8.346,8.346,0,0,0,0-6.836q-9.768-21.973-27.832-46.631a10.467,10.467,0,0,0-5.616-3.906,13.949,13.949,0,0,0-2.685-.244,11.041,11.041,0,0,0-3.906.732,6.644,6.644,0,0,0-3.663,4.15,7.125,7.125,0,0,0-.244,1.709A6.16,6.16,0,0,0,459,276.977q17.579,25.148,26.856,47.607h0Zm72.265-198.73a9.187,9.187,0,0,0-4.15-.977,11.517,11.517,0,0,0-2.2.244,10.145,10.145,0,0,0-5.371,3.174,6.8,6.8,0,0,0-1.22,5.249,5.827,5.827,0,0,0,3.174,4.272A203.433,203.433,0,0,1,576.918,157.1a8.194,8.194,0,0,0,5.981,1.953,6.822,6.822,0,0,0,5.249-2.93,8.127,8.127,0,0,0,1.831-6.226,8.228,8.228,0,0,0-3.051-5.737,173.816,173.816,0,0,0-28.809-18.31h0ZM545.668,192.26a9.108,9.108,0,0,0-6.226-.733,8.582,8.582,0,0,0-5.249,3.418,6.176,6.176,0,0,0-1.22,3.662v1.465a6.647,6.647,0,0,0,3.418,4.4,194.126,194.126,0,0,1,29.052,17.822,7.047,7.047,0,0,0,5.738,1.831,7.21,7.21,0,0,0,5.249-3.052,8.3,8.3,0,0,0-1.465-11.718,174.335,174.335,0,0,0-29.3-17.09h0ZM539.32,326.781a9.386,9.386,0,0,0-1.22,4.639,5.967,5.967,0,0,0,.488,2.2,8.221,8.221,0,0,0,3.906,5.615,7.719,7.719,0,0,0,11.231-3.173q16.845-33.446,30.029-65.186a8.79,8.79,0,0,0,.366-6.592,9.923,9.923,0,0,0-4.028-5.371,6.005,6.005,0,0,0-5.371-.854,6.214,6.214,0,0,0-4.151,3.784,672.628,672.628,0,0,1-31.25,64.941h0Zm80.323-8.3a6.4,6.4,0,0,0,1.464,9.766,8.626,8.626,0,0,0,11.475-1.465A193.77,193.77,0,0,0,657.24,286.01a5.961,5.961,0,0,0-.122-5.371,6.267,6.267,0,0,0-4.272-3.418,7.965,7.965,0,0,0-6.226.61,8.85,8.85,0,0,0-4.272,4.517,160.337,160.337,0,0,1-22.7,36.132h0ZM728.285,224a1.512,1.512,0,0,1,1.709,1.709v20.02a1.511,1.511,0,0,1-1.709,1.709H652.357a1.51,1.51,0,0,1-1.709-1.709v-20.02A1.511,1.511,0,0,1,652.357,224h75.928Zm0-35.644a1.512,1.512,0,0,1,1.709,1.708v19.532c0,1.3-.572,1.953-1.709,1.953H652.357q-1.71,0-1.709-1.953V190.062a1.511,1.511,0,0,1,1.709-1.708h75.928Zm17.334,1.22a14.589,14.589,0,0,0-14.4-14.4H693.861a1.278,1.278,0,0,1-1.1-.488,1.262,1.262,0,0,1-.122-1.221q2.438-7.565,6.591-22.705a3.321,3.321,0,0,0-.366-2.319,2.592,2.592,0,0,0-1.831-1.343h50.781a7.922,7.922,0,0,0,7.813-7.813,7.124,7.124,0,0,0-2.319-5.371,7.727,7.727,0,0,0-5.494-2.2H618.422a14.589,14.589,0,0,0-14.4,14.4v53.955q0,17.339-.855,31.739t-3.3,32.592a187.48,187.48,0,0,1-8.179,35.157,151.6,151.6,0,0,1-14.282,30.883,7.68,7.68,0,0,0-1.22,4.151,7.989,7.989,0,0,0,.244,1.953,7.4,7.4,0,0,0,3.662,4.883,7.681,7.681,0,0,0,6.1,1.342,7.1,7.1,0,0,0,5.127-3.54q28.8-46.875,28.809-139.16V148.8a1.511,1.511,0,0,1,1.709-1.709h58.105c1.3,0,1.87.572,1.709,1.709q-1.464,9.767-5.127,24.658a2.11,2.11,0,0,1-2.2,1.709H650.16a14.589,14.589,0,0,0-14.4,14.4v56.4a13.722,13.722,0,0,0,4.272,10.254,14.037,14.037,0,0,0,10.132,4.15h29.3a1.727,1.727,0,0,1,1.953,1.953v67.139a3.572,3.572,0,0,1-.976,2.807,5.254,5.254,0,0,1-3.418.855H657.973a4.976,4.976,0,0,0-4.639,6.836A10.326,10.326,0,0,0,657,345.214a9.387,9.387,0,0,0,5.859,2.075h2.2q17.818,0,23.926-2.2,4.879-1.711,6.591-5.249t1.709-10.132V262.328a1.726,1.726,0,0,1,1.953-1.953h31.983a14.043,14.043,0,0,0,10.132-4.15,13.737,13.737,0,0,0,4.272-10.254v-56.4Zm-3.662,132.813a7.379,7.379,0,0,0,4.395,4.15,6.5,6.5,0,0,0,2.929.733,7.008,7.008,0,0,0,3.174-.733,9.1,9.1,0,0,0,4.639-4.883,8.58,8.58,0,0,0,.488-2.685,9.208,9.208,0,0,0-.732-3.662,245.467,245.467,0,0,0-22.705-36.133,8.555,8.555,0,0,0-5.127-3.418,16.765,16.765,0,0,0-2.686-.244,9.183,9.183,0,0,0-3.662.732,5.836,5.836,0,0,0-3.418,3.906,7.125,7.125,0,0,0-.244,1.709,6,6,0,0,0,.976,3.418,240.29,240.29,0,0,1,21.973,37.11h0Zm254.883-58.35H904.066c-1.14,0-1.709-.648-1.709-1.953v-4.395a10.419,10.419,0,0,0-10.5-10.5,30.567,30.567,0,0,0,6.592-1.464q5.367-1.706,7.324-4.883t1.954-10.01v-35.4a1.726,1.726,0,0,1,1.953-1.954h62.5a0.787,0.787,0,0,1,.732.489,1.052,1.052,0,0,1,0,.976,265.538,265.538,0,0,1-21.973,23.926,4.951,4.951,0,0,0-1.464,4.639,4.552,4.552,0,0,0,2.929,3.662,12.837,12.837,0,0,0,5.371,1.221,10.749,10.749,0,0,0,7.813-3.418q12.205-11.719,31.738-36.133a4.977,4.977,0,0,0,.855-4.4,4.793,4.793,0,0,0-3.052-3.418l-3.662-1.22a10.19,10.19,0,0,0-5.371-.489,1,1,0,0,1-.733.244h-52a0.215,0.215,0,0,1-.244-0.244q1.22-1.464-.488-2.2-6.1-2.683-16.358-6.592a0.429,0.429,0,0,1-.488-0.488,0.78,0.78,0,0,1,.488-0.732A256.148,256.148,0,0,0,967.3,141.967a4.7,4.7,0,0,0,2.2-4.151,5.578,5.578,0,0,0-1.953-4.394l-2.93-2.442a6.8,6.8,0,0,0-4.15-1.464,8.137,8.137,0,0,0-1.953.244,2.165,2.165,0,0,1-.977.244H816.908a6.837,6.837,0,1,0,0,13.672H936.537a0.428,0.428,0,0,1,.366.366,0.559,0.559,0,0,1-.122.61,215.007,215.007,0,0,1-39.551,18.067,6.059,6.059,0,0,1-3.418,0q-18.069-5.127-32.714-8.3a9.261,9.261,0,0,0-2.93-.488,10.4,10.4,0,0,0-8.3,4.15,3.791,3.791,0,0,0-.732,3.906,3.283,3.283,0,0,0,2.929,2.442,361.847,361.847,0,0,1,49.073,14.4c0.16,0,.2.122,0.122,0.366a0.428,0.428,0,0,1-.366.366H795.912a7.043,7.043,0,0,0-5,1.954,6.423,6.423,0,0,0-2.075,4.882,7.084,7.084,0,0,0,7.08,7.08h70.313a0.581,0.581,0,0,1,.61.489,0.734,0.734,0,0,1-.122.732Q837.9,218.63,793.471,233.275a5.223,5.223,0,0,0-3.662,3.785,5.48,5.48,0,0,0,.976,5,13.271,13.271,0,0,0,5.982,4.151,10.194,10.194,0,0,0,6.958,0,282.916,282.916,0,0,0,46.02-22.583q22.826-13.791,37.964-29.175a3.039,3.039,0,0,1,2.2-.977,1.08,1.08,0,0,1,1.221,1.221V230.59a3.558,3.558,0,0,1-.977,2.807,6.646,6.646,0,0,1-3.662,1.1q-2.689.246-8.056,0.244-5.861,0-14.4-.244A4.478,4.478,0,0,0,860,236.571a4.245,4.245,0,0,0-.366,4.273q2.929,7.083,9.765,7.08,8.79,0,14.4-.244c1.137,0,1.709.652,1.709,1.953v12.451c0,1.305-.572,1.953-1.709,1.953h-92.53a7.54,7.54,0,0,0-5.371,2.075,7.369,7.369,0,0,0,0,10.5,7.523,7.523,0,0,0,5.371,2.076h75.44a0.786,0.786,0,0,1,.732.488,0.483,0.483,0,0,1-.244.732q-14.648,14.409-35.889,26.978A234.8,234.8,0,0,1,788.1,327.025a5.535,5.535,0,0,0-3.54,3.907,5.618,5.618,0,0,0,1.1,5.371,11.973,11.973,0,0,0,13.428,4.15,260.126,260.126,0,0,0,46.753-24.536q22.826-15.015,38.452-32.349a1.131,1.131,0,0,1,.855-0.122,0.567,0.567,0,0,1,.366.611v54.931a8.278,8.278,0,0,0,2.441,6.1,8.549,8.549,0,0,0,11.963,0,8.293,8.293,0,0,0,2.441-6.1V285.033a0.566,0.566,0,0,1,.367-0.61,1.131,1.131,0,0,1,.854.122q15.381,17.091,38.452,31.494a245.593,245.593,0,0,0,47.73,23.193,10.931,10.931,0,0,0,7.2,0,12.6,12.6,0,0,0,6.228-4.394,6.215,6.215,0,0,0,1.22-3.662,4.7,4.7,0,0,0-.25-1.465,5.218,5.218,0,0,0-3.66-3.906,226.773,226.773,0,0,1-44.432-19.165q-21.486-12.085-35.888-26.734a0.479,0.479,0,0,1-.244-0.732,0.778,0.778,0,0,1,.732-0.488H996.84a7.519,7.519,0,0,0,5.37-2.076,7.362,7.362,0,0,0,0-10.5,7.535,7.535,0,0,0-5.37-2.075h0Zm197.02-108.154a6.036,6.036,0,0,0,.25-5.005,5.934,5.934,0,0,0-3.42-3.54,6.907,6.907,0,0,0-5.25.122,7.2,7.2,0,0,0-3.79,3.784,222.774,222.774,0,0,1-14.4,28.565,4.658,4.658,0,0,0-.49,4.15,5.149,5.149,0,0,0,2.93,3.174,6.489,6.489,0,0,0,4.64.244,7.011,7.011,0,0,0,3.91-2.93q6.345-10.74,15.62-28.564h0Zm-89.6,24.414a5.914,5.914,0,0,0,3.05,3.662,5.428,5.428,0,0,0,4.76.244,7.246,7.246,0,0,0,4.03-3.418,5.945,5.945,0,0,0,.37-5.127q-3.66-11.472-12.21-25.635a7.324,7.324,0,0,0-3.9-3.295,6.778,6.778,0,0,0-4.89.122,4.414,4.414,0,0,0-2.93,2.929,5.2,5.2,0,0,0,.25,4.151,115.125,115.125,0,0,1,11.47,26.367h0Zm-29.78-40.527c0-1.137.65-1.709,1.95-1.709h57.13a1.512,1.512,0,0,1,1.71,1.709v52.246a1.511,1.511,0,0,1-1.71,1.709h-57.13q-1.95,0-1.95-1.709V139.77Zm79.1,53.955a1.511,1.511,0,0,1-1.71-1.709V139.77a1.512,1.512,0,0,1,1.71-1.709h55.66c1.3,0,1.96.572,1.96,1.709v52.246c0,1.14-.66,1.709-1.96,1.709h-55.66Zm0,74.218a1.51,1.51,0,0,1-1.71-1.709v-21a1.512,1.512,0,0,1,1.71-1.709h72.75a6.535,6.535,0,0,0,4.76-2.075,6.772,6.772,0,0,0,0-9.766,6.554,6.554,0,0,0-4.76-2.075h-72.75c-1.14,0-1.71-.648-1.71-1.953V209.594q0-1.951,1.71-1.953h60.06a14.588,14.588,0,0,0,14.4-14.4V138.305a14.588,14.588,0,0,0-14.4-14.4H1073.01a14.588,14.588,0,0,0-14.4,14.405v54.931a14.588,14.588,0,0,0,14.4,14.405h60.55q1.71,0,1.71,1.953V227.66c0,1.305-.57,1.953-1.71,1.953H1060.8a6.554,6.554,0,0,0-4.76,2.075,6.794,6.794,0,0,0,0,9.766,6.535,6.535,0,0,0,4.76,2.075h72.76a1.512,1.512,0,0,1,1.71,1.709v21a1.51,1.51,0,0,1-1.71,1.709h-92.77a7.015,7.015,0,0,0-5.13,2.2,7.362,7.362,0,0,0,0,10.5,7.013,7.013,0,0,0,5.13,2.2h206.05a7.3,7.3,0,0,0,5.37-2.2,7.362,7.362,0,0,0,0-10.5,7.305,7.305,0,0,0-5.37-2.2h-93.26Zm-78.62,37.6a6.71,6.71,0,0,0-.24-5.859,6.622,6.622,0,0,0-4.64-3.662,9.527,9.527,0,0,0-6.35.732,10.4,10.4,0,0,0-4.88,4.639q-8.055,17.091-18.55,28.32a6.212,6.212,0,0,0-1.71,4.15,5.884,5.884,0,0,0,3.17,5.616,11.875,11.875,0,0,0,5.37,1.22,7.3,7.3,0,0,0,1.71-.244,9.523,9.523,0,0,0,6.35-3.418q11.22-12.452,19.77-31.494h0Zm34.18,27.1a7.8,7.8,0,0,0,2.69,5.371,8.218,8.218,0,0,0,4.64,1.465h0.98a8.76,8.76,0,0,0,5.85-3.174,8.376,8.376,0,0,0,1.96-6.1,169.6,169.6,0,0,0-3.42-23.926,8.651,8.651,0,0,0-3.42-5.371,7.651,7.651,0,0,0-5.86-1.464,6.049,6.049,0,0,0-5.12,2.685,6.154,6.154,0,0,0-1.47,4.15,4.058,4.058,0,0,0,.24,1.221,240.339,240.339,0,0,1,2.93,25.147h0Zm58.6-.489a8.826,8.826,0,0,0,3.9,5.249,8.289,8.289,0,0,0,6.35,1.1,8.7,8.7,0,0,0,5.01-4.028,7.411,7.411,0,0,0,.85-6.226,213.63,213.63,0,0,0-9.03-23.926,8.218,8.218,0,0,0-4.4-4.638,10.213,10.213,0,0,0-6.59-.733,5.258,5.258,0,0,0-4.15,3.174,6.476,6.476,0,0,0-.73,2.93,8.417,8.417,0,0,0,.49,2.685,217.158,217.158,0,0,1,8.3,24.414h0Zm67.14,2.686a10.265,10.265,0,0,0,8.79,4.883,9.185,9.185,0,0,0,3.66-.733,6.6,6.6,0,0,0,4.15-4.394,6.145,6.145,0,0,0,.49-2.2,7.343,7.343,0,0,0-1.22-3.906,202.231,202.231,0,0,0-23.69-28.808,11.137,11.137,0,0,0-8.3-3.907,12.575,12.575,0,0,0-4.64.977,4.577,4.577,0,0,0-3.17,3.662,4.681,4.681,0,0,0-.24,1.465,5.293,5.293,0,0,0,1.46,3.418,216.754,216.754,0,0,1,22.71,29.541h0Z"/>
  <path id="中文示例" class="cls-2" d="M287.02,729.789a0.651,0.651,0,0,1-.684.781H267.977a0.65,0.65,0,0,1-.684-0.781V711.332a0.6,0.6,0,0,1,.684-0.684h18.359a0.605,0.605,0,0,1,.684.684v18.457Zm-19.727,7.617a0.651,0.651,0,0,1,.684-0.781h18.359a0.652,0.652,0,0,1,.684.781v19.336a0.6,0.6,0,0,1-.684.684H267.977a0.6,0.6,0,0,1-.684-0.684V737.406Zm25.977-27.051a5.837,5.837,0,0,0-5.762-5.761h-20.7a5.837,5.837,0,0,0-5.762,5.761v59.571a3.125,3.125,0,0,0,6.25,0v-5.567a0.6,0.6,0,0,1,.684-0.683h19.531a5.836,5.836,0,0,0,5.762-5.762V710.355Zm16.113,27.637v-4.2a0.651,0.651,0,0,1,.683-0.781h27.539a0.691,0.691,0,0,1,.782.781v16.895a0.691,0.691,0,0,1-.782.781H309.383a0.6,0.6,0,0,1-.684-0.781,116.872,116.872,0,0,0,.684-12.7h0Zm29-11.816a0.69,0.69,0,0,1-.782.781H310.066a0.65,0.65,0,0,1-.683-0.781v-16.5a0.651,0.651,0,0,1,.683-0.781h27.539a0.691,0.691,0,0,1,.782.781v16.5ZM308.6,702.738a5.836,5.836,0,0,0-5.762,5.762v29.492q0,5.178-.244,9.278a77.939,77.939,0,0,1-1.221,9.375,53.743,53.743,0,0,1-2.637,9.57,47.23,47.23,0,0,1-4.687,8.887,41.644,41.644,0,0,1-7.227,8.3,2.684,2.684,0,0,0-.976,2.051,2.784,2.784,0,0,0,.976,2.149,3.979,3.979,0,0,0,2.442,1.074,3.36,3.36,0,0,0,2.441-.781q12.207-10.841,15.918-29.59a0.8,0.8,0,0,1,.879-0.782h29.1a0.691,0.691,0,0,1,.782.782v22.07a2.362,2.362,0,0,1-.586,1.807,3.4,3.4,0,0,1-2.051.634q-1.856.1-4.883,0.1-2.637,0-6.25-.1a2.028,2.028,0,0,0-1.806.977,2.179,2.179,0,0,0-.147,2.148,5.688,5.688,0,0,0,1.758,2.393,4.141,4.141,0,0,0,2.637.928q10.056,0,13.574-1.27a5.218,5.218,0,0,0,3.222-2.539,11.66,11.66,0,0,0,.879-5.078V708.5a5.625,5.625,0,0,0-1.66-4.053,5.5,5.5,0,0,0-4.1-1.709H308.6Zm71.972,29.785a0.6,0.6,0,0,1,.684-0.683h45.117a0.651,0.651,0,0,1,.781.683v16.211a0.691,0.691,0,0,1-.781.782H380.086a0.52,0.52,0,0,1-.586-0.684,130.126,130.126,0,0,0,1.074-16.309h0Zm46.582-7.812a0.69,0.69,0,0,1-.781.781H381.258a0.65,0.65,0,0,1-.684-0.781V708.7a0.6,0.6,0,0,1,.684-0.683h45.117a0.651,0.651,0,0,1,.781.683v16.016ZM379.6,701.469a5.837,5.837,0,0,0-5.762,5.761v24.415q0,7.227-.586,13.037A103.455,103.455,0,0,1,371,757.621a47.943,47.943,0,0,1-5.469,13.574,49.1,49.1,0,0,1-7.031,9.082,2.781,2.781,0,0,0-.977,2.149,3.157,3.157,0,0,0,1.075,2.441,3.968,3.968,0,0,0,2.441,1.074,3.043,3.043,0,0,0,2.441-.976q10.449-10.742,14.551-28.32a0.844,0.844,0,0,1,.879-0.684h47.461a0.691,0.691,0,0,1,.781.781v20.215a3.073,3.073,0,0,1-.683,2.295,3.423,3.423,0,0,1-2.344.635q-3.224.1-7.031,0.1-3.713,0-7.91-.1a2.3,2.3,0,0,0-2,1.074,2.235,2.235,0,0,0-.245,2.246,7.165,7.165,0,0,0,1.954,2.637,4.947,4.947,0,0,0,2.929.976h0.1q13.279-.2,17.09-1.367a6.8,6.8,0,0,0,3.906-2.783,11.1,11.1,0,0,0,1.172-5.713V707.23a5.837,5.837,0,0,0-5.762-5.761H379.6Zm154.98,74.414a0.69,0.69,0,0,1-.781.781H506.16a0.65,0.65,0,0,1-.683-0.781v-33.3a0.651,0.651,0,0,1,.683-0.781h25.391a5.67,5.67,0,0,0,5.761-5.762v-24.8a3.363,3.363,0,0,0-.976-2.392,3.3,3.3,0,0,0-4.785,0,3.355,3.355,0,0,0-.977,2.392v23.34a0.69,0.69,0,0,1-.781.781H506.16a0.65,0.65,0,0,1-.683-0.781V702.152a3.2,3.2,0,0,0-.977-2.343,3.418,3.418,0,0,0-4.785,0,3.192,3.192,0,0,0-.977,2.343v32.422a0.651,0.651,0,0,1-.683.781H475.4a0.69,0.69,0,0,1-.781-0.781v-23.34a3.284,3.284,0,0,0-.928-2.343,3.044,3.044,0,0,0-2.294-.977,3.336,3.336,0,0,0-3.321,3.32v24.8a5.67,5.67,0,0,0,5.762,5.762h24.219a0.651,0.651,0,0,1,.683.781v33.3a0.651,0.651,0,0,1-.683.781H471.59a0.689,0.689,0,0,1-.781-0.781V751.664a3.223,3.223,0,1,0-6.446,0v34.57a3.165,3.165,0,0,0,.928,2.246,3.184,3.184,0,0,0,4.59,0,3.169,3.169,0,0,0,.928-2.246v-2.343a0.69,0.69,0,0,1,.781-0.782H533.9a0.6,0.6,0,0,1,.683.684v2.051a3.355,3.355,0,0,0,.977,2.392,3.3,3.3,0,0,0,4.785,0,3.363,3.363,0,0,0,.976-2.392V751.859a3.318,3.318,0,0,0-.976-2.441,3.418,3.418,0,0,0-4.785,0,3.311,3.311,0,0,0-.977,2.441v24.024Zm105.567-38.672h-34.18a0.6,0.6,0,0,1-.684-0.684q0.1-1.854.1-5.371V713.773a0.651,0.651,0,0,1,.683-0.781h36.719a3.2,3.2,0,0,0,2.344-.976,3.419,3.419,0,0,0,0-4.786,3.2,3.2,0,0,0-2.344-.976H562.312a3.2,3.2,0,0,0-2.343.976,3.419,3.419,0,0,0,0,4.786,3.192,3.192,0,0,0,2.343.976h35.45a0.651,0.651,0,0,1,.683.781v17.383q0,3.516-.1,5.371a0.765,0.765,0,0,1-.879.684H565.34a3.28,3.28,0,0,0-2.393,1.025,3.339,3.339,0,0,0-1.025,2.442,3.175,3.175,0,0,0,1.025,2.392,3.356,3.356,0,0,0,2.393.977h31.445c0.52,0,.716.229,0.586,0.683a42.316,42.316,0,0,1-3.223,10.547,45.83,45.83,0,0,1-6.4,9.912,48.516,48.516,0,0,1-11.035,9.522,83.163,83.163,0,0,1-16.26,8.008,2.345,2.345,0,0,0-1.465,1.66,2.858,2.858,0,0,0-.1.683,2.612,2.612,0,0,0,.488,1.563,4.531,4.531,0,0,0,2.344,1.758,3.335,3.335,0,0,0,2.734,0,93.237,93.237,0,0,0,15.723-7.666,55.954,55.954,0,0,0,11.328-9.033,46.454,46.454,0,0,0,11.426-19.922,0.285,0.285,0,0,1,.244-0.2,0.289,0.289,0,0,1,.244.2,65.326,65.326,0,0,0,14.355,22.949,56.925,56.925,0,0,0,22.657,13.769,3.653,3.653,0,0,0,1.464.293,5.232,5.232,0,0,0,1.66-.293,6.047,6.047,0,0,0,2.54-2.05,2.482,2.482,0,0,0,.488-1.465,3.251,3.251,0,0,0-.1-0.781,2.375,2.375,0,0,0-1.66-1.661,53.147,53.147,0,0,1-23.242-13.818,61.982,61.982,0,0,1-13.965-23.975,0.8,0.8,0,0,1,.146-0.488,0.516,0.516,0,0,1,.44-0.195h31.934a3.357,3.357,0,0,0,2.392-.977,3.172,3.172,0,0,0,1.025-2.392,3.336,3.336,0,0,0-1.025-2.442,3.281,3.281,0,0,0-2.392-1.025h0Zm95.019,33.008a0.69,0.69,0,0,1-.781.781H706.258a0.65,0.65,0,0,1-.684-0.781v-68.75a3.418,3.418,0,0,0-6.836,0v68.75a0.651,0.651,0,0,1-.683.781H670.906a0.65,0.65,0,0,1-.683-0.781V723.148a3.321,3.321,0,0,0-6.641,0v59.571a3.321,3.321,0,0,0,6.641,0v-4.492a0.6,0.6,0,0,1,.683-0.684h63.477a0.652,0.652,0,0,1,.781.684v3.906a3.309,3.309,0,0,0,.977,2.441,3.418,3.418,0,0,0,4.785,0,3.316,3.316,0,0,0,.976-2.441V723.148a3.318,3.318,0,0,0-.976-2.441,3.418,3.418,0,0,0-4.785,0,3.311,3.311,0,0,0-.977,2.441v47.071Zm102.93-55.176V711.43a0.6,0.6,0,0,1,.683-0.684H865.34a0.6,0.6,0,0,1,.683.684v3.515a3.19,3.19,0,0,0,.977,2.344,3.184,3.184,0,0,0,4.59,0,3.2,3.2,0,0,0,.976-2.344V711.43a0.6,0.6,0,0,1,.684-0.684h20.215a2.57,2.57,0,0,0,1.953-.83,2.818,2.818,0,0,0,.781-2,2.669,2.669,0,0,0-2.734-2.734H873.25a0.651,0.651,0,0,1-.684-0.782v-2.734a3.045,3.045,0,0,0-.976-2.295,3.3,3.3,0,0,0-4.59,0,3.039,3.039,0,0,0-.977,2.295V704.4a0.651,0.651,0,0,1-.683.782H838.777a0.651,0.651,0,0,1-.683-0.782v-2.734a3.046,3.046,0,0,0-.977-2.295,3.226,3.226,0,0,0-2.295-.928,3.06,3.06,0,0,0-2.246.928,3.119,3.119,0,0,0-.928,2.295V704.4a0.69,0.69,0,0,1-.781.782H811.824a2.669,2.669,0,0,0-2.734,2.734,2.809,2.809,0,0,0,.781,2,2.567,2.567,0,0,0,1.953.83h19.043a0.651,0.651,0,0,1,.781.684v3.613a3.114,3.114,0,0,0,.928,2.295,3.056,3.056,0,0,0,2.246.928,3.222,3.222,0,0,0,2.295-.928,3.041,3.041,0,0,0,.977-2.295h0ZM879.5,781.449a0.6,0.6,0,0,1-.684.684H834.578a0.6,0.6,0,0,1-.683-0.684v-8.691a0.6,0.6,0,0,1,.683-0.684h44.238a0.605,0.605,0,0,1,.684.684v8.691Zm-47.949,8.008a2.335,2.335,0,0,0,2.344-2.344,0.259,0.259,0,0,1,.293-0.293h45.019a0.259,0.259,0,0,1,.293.293,2.335,2.335,0,0,0,2.344,2.344h0.976a3.044,3.044,0,0,0,2.295-.977,3.169,3.169,0,0,0,.928-2.246V773.051a5.836,5.836,0,0,0-5.762-5.762H833.309a5.836,5.836,0,0,0-5.762,5.762v13.281a3.169,3.169,0,0,0,3.125,3.125h0.879Zm19.824-69.141a0.826,0.826,0,0,1,1.172,0,76.642,76.642,0,0,0,11.719,8.106c0.064,0,.08.049,0.048,0.146a0.226,0.226,0,0,1-.244.147H840.438a0.169,0.169,0,0,1-.147-0.147,0.218,0.218,0,0,1,.049-0.244,68.114,68.114,0,0,0,11.035-8.008h0Zm24.9,26.368a0.69,0.69,0,0,1-.781.781H829.012a0.69,0.69,0,0,1-.782-0.781v-4a0.691,0.691,0,0,1,.782-0.782H875.5a0.691,0.691,0,0,1,.781.782v4Zm-48.047,5.468a0.651,0.651,0,0,1,.782-0.683H875.5a0.651,0.651,0,0,1,.781.683v4.688a0.651,0.651,0,0,1-.781.683H828.719c-0.522,0-.749-0.227-0.684-0.683q0.2-2.441.2-4.688h0Zm2.149-24.9a121.369,121.369,0,0,1-20.606,8.2,2.336,2.336,0,0,0-1.464,1.465,3.178,3.178,0,0,0-.1.781,2.805,2.805,0,0,0,.293,1.27,4.54,4.54,0,0,0,2.051,1.709,3.6,3.6,0,0,0,2.539.146q4-1.366,8.3-3.125a0.44,0.44,0,0,1,.439.049,0.481,0.481,0,0,1,.244.44v12.89q0,20.12-10.937,31.055a2.755,2.755,0,0,0-.83,2.148,3.1,3.1,0,0,0,.927,2.149,3.2,3.2,0,0,0,2.344.976,0.284,0.284,0,0,0,.2.1,2.81,2.81,0,0,0,2.051-.879q9.083-9.178,11.524-23.926a0.75,0.75,0,0,1,.781-0.781h48.535a5.67,5.67,0,0,0,5.762-5.762V743.168a5.623,5.623,0,0,0-1.66-4.053,5.5,5.5,0,0,0-4.1-1.709H822.859a0.155,0.155,0,0,1-.146-0.1c-0.034-.064.015-0.13,0.146-0.2a118.154,118.154,0,0,0,13.477-6.445c0.195-.064.293,0,0.293,0.2a2.149,2.149,0,0,0,.683,1.563,2.258,2.258,0,0,0,1.661.683h27.05a2.229,2.229,0,0,0,1.563-.634,2,2,0,0,0,.684-1.514c0-.2.064-0.259,0.2-0.2a132.9,132.9,0,0,0,22.851,9.179,4.224,4.224,0,0,0,2.832-.2A4.463,4.463,0,0,0,896.3,737.8a2.255,2.255,0,0,0,.391-1.27,4.642,4.642,0,0,0-.1-0.879,2.1,2.1,0,0,0-1.563-1.367,118.545,118.545,0,0,1-20.459-7.226,82.932,82.932,0,0,1-17.334-10.45,8.666,8.666,0,0,0-5.566-2.05A7.957,7.957,0,0,0,846.3,716.7,73.37,73.37,0,0,1,830.379,727.25Zm93.066,26.465a3.441,3.441,0,0,0,2.491.586,3.051,3.051,0,0,0,2.1-1.27,3.275,3.275,0,0,0,.537-2.49,2.887,2.887,0,0,0-1.318-2,86.938,86.938,0,0,0-13.477-6.25,4.245,4.245,0,0,0-2.539,0,3.882,3.882,0,0,0-2.05,1.465,1.94,1.94,0,0,0-.489,1.269,2.816,2.816,0,0,0,.1.684,2.06,2.06,0,0,0,1.367,1.465,78.99,78.99,0,0,1,13.281,6.543h0Zm-2.636-28.32a3.641,3.641,0,0,0-2.539-.245,4.371,4.371,0,0,0-2.149,1.319,2.227,2.227,0,0,0-.439,1.953,2.2,2.2,0,0,0,1.22,1.562,80.164,80.164,0,0,1,13.184,7.715,3.428,3.428,0,0,0,2.295.586,2.727,2.727,0,0,0,2.1-1.172,2.885,2.885,0,0,0,.733-2.343,2.928,2.928,0,0,0-1.221-2.149,75.469,75.469,0,0,0-13.183-7.226h0Zm14.648,40.722a3.741,3.741,0,0,0,1.025-2.441,4.648,4.648,0,0,0-.732-2.637,2.069,2.069,0,0,0-1.807-1.025,2.42,2.42,0,0,0-2,.83q-9.572,10.839-19.14,19.824a3.729,3.729,0,0,0-1.27,2.588,3.683,3.683,0,0,0,.879,2.685,3.165,3.165,0,0,0,2.344,1.172h0.195a3.259,3.259,0,0,0,2.246-.879q8.886-9.081,18.262-20.117h0Zm30.762-47.363a3.32,3.32,0,0,0,6.64,0V713.48a0.651,0.651,0,0,1,.684-0.781h19.629a3.027,3.027,0,1,0,0-6.054H973.543a0.651,0.651,0,0,1-.684-0.782v-4.1a3.32,3.32,0,0,0-6.64,0v4.1a0.652,0.652,0,0,1-.684.782H939.07a0.651,0.651,0,0,1-.683-0.782v-4.2a3.046,3.046,0,0,0-.977-2.295,3.3,3.3,0,0,0-4.59,0,3.042,3.042,0,0,0-.976,2.295v4.2a0.652,0.652,0,0,1-.684.782H912.117a3.027,3.027,0,1,0,0,6.054H931.16a0.652,0.652,0,0,1,.684.781v5.665a3.192,3.192,0,0,0,.976,2.343,3.184,3.184,0,0,0,4.59,0,3.2,3.2,0,0,0,.977-2.343V713.48a0.651,0.651,0,0,1,.683-0.781h26.465a0.652,0.652,0,0,1,.684.781v5.274Zm-15.088,59.814q-1.515-1.512-1.514-5.127V741.605a0.69,0.69,0,0,1,.781-0.781h43.555a3.09,3.09,0,0,0,2.2-.879,2.951,2.951,0,0,0,0-4.3,3.089,3.089,0,0,0-2.2-.878H974.91a0.69,0.69,0,0,1-.781-0.782v-7.129a3.336,3.336,0,0,0-3.32-3.32,3.04,3.04,0,0,0-2.295.977,3.275,3.275,0,0,0-.928,2.343v7.129a0.691,0.691,0,0,1-.781.782H948.836a5.67,5.67,0,0,0-5.762,5.761v32.715q0,7.325,3.125,10.205t10.938,2.881h28.808q5.274,0,8.692-.293a2.779,2.779,0,0,0,2.148-1.172,3.442,3.442,0,0,0,.586-1.953v-0.488a3.2,3.2,0,0,0-1.269-2.1,2.976,2.976,0,0,0-2.344-.635q-4.005.391-7.91,0.391h-29.1Q952.645,780.082,951.131,778.568Zm97.119-57.861a0.651,0.651,0,0,1,.68.781v21.094a3,3,0,0,0,.93,2.2,3.063,3.063,0,0,0,2.25.928,3.2,3.2,0,0,0,2.29-.928,2.936,2.936,0,0,0,.98-2.2V721.488a0.651,0.651,0,0,1,.68-0.781h31.45a0.69,0.69,0,0,1,.78.781V733.6a3.026,3.026,0,0,0,.88,2.246,2.911,2.911,0,0,0,2.15.879,3.084,3.084,0,0,0,2.19-.879,2.954,2.954,0,0,0,.93-2.246V721.2a5.838,5.838,0,0,0-5.76-5.761h-32.62a0.6,0.6,0,0,1-.68-0.684V708.5a0.651,0.651,0,0,1,.68-0.781h30.28a2.643,2.643,0,0,0,1.95-.781,2.715,2.715,0,0,0,0-3.809,2.647,2.647,0,0,0-1.95-.781h-67.68a2.647,2.647,0,0,0-1.95.781,2.715,2.715,0,0,0,0,3.809,2.643,2.643,0,0,0,1.95.781h29.59a0.651,0.651,0,0,1,.68.781v6.25a0.6,0.6,0,0,1-.68.684h-31.64a5.838,5.838,0,0,0-5.76,5.761v12.6a2.8,2.8,0,0,0,.88,2.051,2.847,2.847,0,0,0,2.1.879,2.722,2.722,0,0,0,2.05-.879,2.908,2.908,0,0,0,.83-2.051v-12.3a0.69,0.69,0,0,1,.78-0.781h30.76Zm-7.23,22.852a2.5,2.5,0,0,0,2.44-2.442,2.18,2.18,0,0,0-.73-1.66,2.437,2.437,0,0,0-1.71-.684h-18.45a2.419,2.419,0,0,0-1.71.684,2.19,2.19,0,0,0-.74,1.66,2.518,2.518,0,0,0,2.45,2.442h18.45Zm-16.5-16.211a2.344,2.344,0,1,0,0,4.687h16.6a2.344,2.344,0,1,0,0-4.687h-16.6Zm58.01,28.222a2.527,2.527,0,0,0,1.85-.781,2.715,2.715,0,0,0,0-3.809,2.534,2.534,0,0,0-1.85-.781h-60.26a2.534,2.534,0,0,0-1.85.781,2.715,2.715,0,0,0,0,3.809,2.527,2.527,0,0,0,1.85.781h60.26Zm-19.14-16.8a2.373,2.373,0,0,0-1.76.684,2.242,2.242,0,0,0-.68,1.66,2.4,2.4,0,0,0,.68,1.709,2.289,2.289,0,0,0,1.76.733h19.53a2.5,2.5,0,0,0,2.44-2.442,2.18,2.18,0,0,0-.73-1.66,2.437,2.437,0,0,0-1.71-.684h-19.53Zm-0.1-6.738h16.99a2.344,2.344,0,1,0,0-4.687h-16.99a2.344,2.344,0,1,0,0,4.687h0Zm30.86,31.25h-83.2a2.7,2.7,0,0,0-1.91.781,2.6,2.6,0,0,0,0,3.809,2.7,2.7,0,0,0,1.91.781h22.07a0.4,0.4,0,0,1,.39.2,0.445,0.445,0,0,1,0,.39,119.563,119.563,0,0,1-6.94,11.035,1.311,1.311,0,0,1-1.17.586q-6.06.1-8.5,0.2a2.619,2.619,0,0,0-2.05.879,2.756,2.756,0,0,0-.68,2.148,3.021,3.021,0,0,0,1.07,2.051,2.909,2.909,0,0,0,2.25.781c3.78-.066,8.41-0.18,13.92-0.342s10.36-.326,14.6-0.488,10.09-.359,17.57-0.586,13.02-.407,16.61-0.537a2.05,2.05,0,0,1,1.36.488c0.91,0.781,1.83,1.6,2.74,2.442a3.887,3.887,0,0,0,2.44,1.269,2.937,2.937,0,0,0,.68.1,3.917,3.917,0,0,0,2.05-.586,2.4,2.4,0,0,0,1.27-1.856,2.355,2.355,0,0,0-.68-2.148,127,127,0,0,0-18.46-14.063,5.149,5.149,0,0,0-2.83-.879,5.326,5.326,0,0,0-2.54.684,1.64,1.64,0,0,0-.98,1.563,1.894,1.894,0,0,0,.88,1.66q3.525,2.343,7.82,5.566a0.237,0.237,0,0,1,.14.293,0.224,0.224,0,0,1-.24.2q-27.645.783-39.65,0.977a0.3,0.3,0,0,1-.29-0.2,0.39,0.39,0,0,1,0-.391,117.8,117.8,0,0,0,7.61-10.84,1.319,1.319,0,0,1,1.18-.586h51.56a2.689,2.689,0,0,0,1.9-.781,2.6,2.6,0,0,0,0-3.809,2.7,2.7,0,0,0-1.9-.781h0Zm24.22-62.4a3.64,3.64,0,0,0-2.49-.293,4.09,4.09,0,0,0-2.2,1.269,2.71,2.71,0,0,0-.49,2.1,2.327,2.327,0,0,0,1.27,1.709,81.655,81.655,0,0,1,11.43,7.715,3.259,3.259,0,0,0,2.39.781,2.725,2.725,0,0,0,2.1-1.172,3.441,3.441,0,0,0-.49-4.785,69.541,69.541,0,0,0-11.52-7.324h0Zm-4.89,26.367a3.64,3.64,0,0,0-2.49-.293,3.457,3.457,0,0,0-2.1,1.367,2.212,2.212,0,0,0-.58,1.465,1.72,1.72,0,0,0,.1.586,2.359,2.359,0,0,0,1.27,1.66,71.173,71.173,0,0,1,11.52,7.227,3.48,3.48,0,0,0,2.39.683,2.722,2.722,0,0,0,2.1-1.172,3.419,3.419,0,0,0,.69-2.587,3.063,3.063,0,0,0-1.37-2.2,76.33,76.33,0,0,0-11.53-6.738h0Zm15.63,31.543a4.471,4.471,0,0,0-1.37-4.981,2.627,2.627,0,0,0-2.24-.341,2.457,2.457,0,0,0-1.66,1.513q-5.865,13.674-12.7,26.172a3.3,3.3,0,0,0-.59,1.856,2.432,2.432,0,0,0,.2.879,3.667,3.667,0,0,0,1.56,2.343,2.932,2.932,0,0,0,2.54.391,3.26,3.26,0,0,0,2.05-1.66q6.06-11.816,12.21-26.172h0Zm65.33-47.754H1150.3a0.523,0.523,0,0,1-.44-0.195,0.514,0.514,0,0,1-.05-0.489q1.47-3.611,2.74-7.324a2.7,2.7,0,0,0-.2-2.441,2.983,2.983,0,0,0-2.05-1.465,3.331,3.331,0,0,0-2.54.391,3.651,3.651,0,0,0-1.76,2.05q-5.07,15.04-13.28,25.2a2.486,2.486,0,0,0-.63,2.246,3.184,3.184,0,0,0,1.32,2.051,3.9,3.9,0,0,0,2.63.634,2.909,2.909,0,0,0,2.25-1.318,70.587,70.587,0,0,0,8.01-12.7,1.185,1.185,0,0,1,1.07-.684h47.07a2.926,2.926,0,0,0,2.15-.879,2.944,2.944,0,0,0,0-4.2,2.926,2.926,0,0,0-2.15-.879h0Zm-27.05,43.066a0.75,0.75,0,0,1,.78-0.781h14.94a0.611,0.611,0,0,1,.69.781q-0.585,9.375-1.18,14.649a0.705,0.705,0,0,1-.78.684h-15.62c-0.52,0-.75-0.228-0.68-0.684q0.375-2.832,1.85-14.649h0Zm-7.52,14.649a0.764,0.764,0,0,1-.88.684h-13.87a0.605,0.605,0,0,1-.68-0.782q1.17-7.42,2.15-14.551a0.745,0.745,0,0,1,.78-0.781h13.58c0.45,0,.65.261,0.58,0.781q-0.585,6.349-1.66,14.649h0Zm2.54-22.266a0.755,0.755,0,0,1-.78.782h-13.38a0.548,0.548,0,0,1-.59-0.733c0.07-.488.31-2.425,0.74-5.81s0.7-5.924.83-7.618a0.759,0.759,0,0,1,.88-0.683h12.79a0.6,0.6,0,0,1,.68.781q-0.285,4.395-1.17,13.281h0Zm6.93-13.281a0.69,0.69,0,0,1,.78-0.781h13.97a0.6,0.6,0,0,1,.68.781q-0.195,7.13-.48,13.281a0.7,0.7,0,0,1-.79.782h-14.74a0.653,0.653,0,0,1-.69-0.782q0.975-9.081,1.27-13.281h0Zm26.86,14.063h-4.98a0.69,0.69,0,0,1-.78-0.782l0.68-14.453a5.187,5.187,0,0,0-1.56-3.808,5.586,5.586,0,0,0-4.1-1.661h-35.75a6.379,6.379,0,0,0-6.34,5.664q-0.78,6.252-1.86,14.258a0.745,0.745,0,0,1-.78.782h-6.54a3.027,3.027,0,1,0,0,6.054h5.66c0.46,0,.65.261,0.59,0.781q-1.755,12.012-3.62,21.875a2.656,2.656,0,0,0,.49,2.295,3.087,3.087,0,0,0,2.05,1.221,3.567,3.567,0,0,0,2.44-.684,3.064,3.064,0,0,0,1.27-2.148,6.632,6.632,0,0,1,.2-0.781,0.579,0.579,0,0,1,.59-0.586h37.01a0.6,0.6,0,0,1,.68.781q-0.975,4.787-2.34,6.348-0.975,1.267-3.81,1.269c-3.26,0-6.25-.033-8.99-0.1a1.411,1.411,0,0,0-1.41.732,2.347,2.347,0,0,0-.34,1.807,5.134,5.134,0,0,0,1.27,2.051,3.288,3.288,0,0,0,2.14.976c1.96,0.064,3.75.1,5.38,0.1s3.12-.034,4.49-0.1a8.306,8.306,0,0,0,6.64-3.32q2.145-2.345,3.32-9.766a0.871,0.871,0,0,1,.88-0.781h7.03a2.9,2.9,0,0,0,2.05-.83,2.693,2.693,0,0,0,.88-2.051,2.853,2.853,0,0,0-.88-2.1,2.816,2.816,0,0,0-2.05-.878h-6.35c-0.46,0-.65-0.26-0.58-0.782q0.585-5.273,1.17-14.551a0.69,0.69,0,0,1,.78-0.781h5.37a3.027,3.027,0,1,0,0-6.054h0Zm45.21-31.055a0.6,0.6,0,0,1-.68.683h-21.48a0.607,0.607,0,0,1-.69-0.683V708.7a0.653,0.653,0,0,1,.69-0.781h21.48a0.647,0.647,0,0,1,.68.781v7.52Zm-22.85,6.445a0.607,0.607,0,0,1,.69-0.683h21.48a0.6,0.6,0,0,1,.68.683v7.91a0.647,0.647,0,0,1-.68.782h-21.48a0.653,0.653,0,0,1-.69-0.782v-7.91Zm29.2-14.16a5.838,5.838,0,0,0-5.76-5.762h-24.22a5.838,5.838,0,0,0-5.76,5.762v77.832a3.059,3.059,0,0,0,.98,2.246,3.131,3.131,0,0,0,2.29.977,3.17,3.17,0,0,0,2.3-.977,3.086,3.086,0,0,0,.97-2.246V737.309a0.654,0.654,0,0,1,.69-0.782H1242a5.613,5.613,0,0,0,4.05-1.66,5.486,5.486,0,0,0,1.71-4.1V708.5Zm16.9,50.1a0.689,0.689,0,0,1-.78.781h-23.05a0.689,0.689,0,0,1-.78-0.781v-8.3a0.69,0.69,0,0,1,.78-0.781h23.05a0.69,0.69,0,0,1,.78.781v8.3Zm-24.61,6.64a0.651,0.651,0,0,1,.78-0.683h23.05a0.651,0.651,0,0,1,.78.683v8.887a0.65,0.65,0,0,1-.78.684h-23.05a0.65,0.65,0,0,1-.78-0.684v-8.887Zm30.76-15.136a5.648,5.648,0,0,0-1.66-4.053,5.509,5.509,0,0,0-4.1-1.709h-25.3a5.509,5.509,0,0,0-4.1,1.709,5.607,5.607,0,0,0-1.66,4.053V782.23a3,3,0,0,0,.88,2.1,2.955,2.955,0,0,0,4.3,0,3,3,0,0,0,.88-2.1v-1.562a0.475,0.475,0,0,1,.58-0.488h24.42a5.5,5.5,0,0,0,4.1-1.709,5.648,5.648,0,0,0,1.66-4.053V750.1Zm-7.33-27.442a0.607,0.607,0,0,1,.69-0.683h22.17a0.6,0.6,0,0,1,.68.683v8.008a0.65,0.65,0,0,1-.68.781h-22.17a0.653,0.653,0,0,1-.69-0.781V722.66Zm23.54-6.445a0.6,0.6,0,0,1-.68.683h-22.17a0.607,0.607,0,0,1-.69-0.683V708.7a0.653,0.653,0,0,1,.69-0.781h22.17a0.651,0.651,0,0,1,.68.781v7.52Zm-24.22-13.477a5.838,5.838,0,0,0-5.76,5.762v22.363a5.489,5.489,0,0,0,1.71,4.1,5.613,5.613,0,0,0,4.05,1.66h23.54a0.651,0.651,0,0,1,.68.781v42.969a2.444,2.444,0,0,1-.49,1.758,2.959,2.959,0,0,1-1.85.586c-1.31.064-2.93,0.1-4.89,0.1h-5.66a1.925,1.925,0,0,0-1.86.928,2.419,2.419,0,0,0-.29,2.2,5.12,5.12,0,0,0,1.71,2.539,4.206,4.206,0,0,0,2.69.977q9.855,0,13.08-1.172a6.366,6.366,0,0,0,3.22-2.783,10.962,10.962,0,0,0,.98-5.127V708.5a5.838,5.838,0,0,0-5.76-5.762h-25.1ZM315.633,939.652a0.884,0.884,0,0,1-1.172-.1,56.1,56.1,0,0,1-10.156-13.965,0.5,0.5,0,0,1,.049-0.488,0.42,0.42,0,0,1,.341-0.2h39.258a3.027,3.027,0,1,0,0-6.054H283.406a0.69,0.69,0,0,1-.781-0.782v-7.617a0.69,0.69,0,0,1,.781-0.781h48.145a2.735,2.735,0,1,0,0-5.469H283.406a0.689,0.689,0,0,1-.781-0.781V896a0.651,0.651,0,0,1,.781-0.684h48.047a2.727,2.727,0,0,0,2-.83,2.713,2.713,0,0,0,0-3.906,2.735,2.735,0,0,0-2-.83H283.406a0.689,0.689,0,0,1-.781-0.781v-7.422a0.651,0.651,0,0,1,.781-0.684H334.48a2.832,2.832,0,0,0,0-5.664H281.648a5.837,5.837,0,0,0-5.761,5.762V918.07a0.652,0.652,0,0,1-.684.782H261.238a3.027,3.027,0,1,0,0,6.054H275.2a0.652,0.652,0,0,1,.684.782v26.953a0.766,0.766,0,0,1-.684.879q-5.371.878-8.984,1.367a3.817,3.817,0,0,0-1.416.683,2.506,2.506,0,0,0-.879,1.27,3.161,3.161,0,0,0-.049,1.66,3.521,3.521,0,0,0,1.563,2,3.485,3.485,0,0,0,2.441.537q13.866-2.343,39.062-7.031a3.34,3.34,0,0,0,2.1-1.172,3.136,3.136,0,0,0,.732-2.344,2.363,2.363,0,0,0-.878-1.9,2.436,2.436,0,0,0-2.051-.537q-3.42.585-9.668,1.66-8.986,1.662-13.867,2.441c-0.457.066-.684-0.161-0.684-0.683V925.688a0.69,0.69,0,0,1,.781-0.782h13.282a1,1,0,0,1,.976.684q12.108,27.538,43.066,36.035a3.7,3.7,0,0,0,1.172.2,4.547,4.547,0,0,0,1.856-.39,6.191,6.191,0,0,0,2.441-2.051,2.3,2.3,0,0,0,.293-2.149,2.132,2.132,0,0,0-1.66-1.464,67.976,67.976,0,0,1-25.195-11.524,0.6,0.6,0,0,1-.2-0.439,0.359,0.359,0,0,1,.293-0.342,160.573,160.573,0,0,0,19.922-11.719,2.251,2.251,0,0,0-.1-3.711,4.442,4.442,0,0,0-2.539-.879,4.815,4.815,0,0,0-2.832.977,169.65,169.65,0,0,1-18.555,11.523h0Zm70.8-27.636a0.651,0.651,0,0,1,.683-0.782h10.742a0.691,0.691,0,0,1,.782.782v14.453a0.69,0.69,0,0,1-.782.781H387.117a0.65,0.65,0,0,1-.683-0.781V912.016ZM416.9,926.469a0.651,0.651,0,0,1-.683.781H405.477a0.69,0.69,0,0,1-.782-0.781V912.016a0.691,0.691,0,0,1,.782-0.782h10.742a0.652,0.652,0,0,1,.683.782v14.453Zm1.368,18.945a0.4,0.4,0,0,1,.048.488,0.418,0.418,0,0,1-.341.2l-12.6.879a0.651,0.651,0,0,1-.684-0.782V933.5a0.691,0.691,0,0,1,.782-0.781H416.9a5.836,5.836,0,0,0,5.762-5.762v-15.43a5.837,5.837,0,0,0-5.762-5.761H405.379a0.6,0.6,0,0,1-.684-0.684v-8.594a0.766,0.766,0,0,1,.684-0.879A155.5,155.5,0,0,0,421.3,892.68a1.67,1.67,0,0,0,1.465-1.27,1.793,1.793,0,0,0-.489-1.855,5.619,5.619,0,0,0-4.1-1.758,7.668,7.668,0,0,0-1.66.195q-12.209,2.93-35.742,4.59a1.76,1.76,0,0,0-1.368.928,1.989,1.989,0,0,0-.195,1.709,3.341,3.341,0,0,0,3.223,2.441h0.195q6.933-.389,15.332-1.172a0.561,0.561,0,0,1,.684.684v7.812a0.691,0.691,0,0,1-.782.782H386.824a5.837,5.837,0,0,0-5.762,5.761v15.43a5.836,5.836,0,0,0,5.762,5.762h11.035a0.691,0.691,0,0,1,.782.781v13.086a0.69,0.69,0,0,1-.782.781q-3.906.2-11.523,0.684-5.274.292-8.594,0.488a3.128,3.128,0,0,0-2.148,1.074,2.756,2.756,0,0,0-.733,2.246,3.134,3.134,0,0,0,1.123,2.1,2.983,2.983,0,0,0,2.246.732Q400.3,953.032,421,951.664a0.854,0.854,0,0,1,.976.586q1.074,2.442,1.856,4.395a2.9,2.9,0,0,0,3.711,1.855,3.2,3.2,0,0,0,1.709-1.611,2.7,2.7,0,0,0,.049-2.295,60.772,60.772,0,0,0-3.809-7.813,71.8,71.8,0,0,0-5.957-9.179,3.263,3.263,0,0,0-2.734-1.465,4.994,4.994,0,0,0-1.563.293,1.908,1.908,0,0,0-1.221,1.269,1.994,1.994,0,0,0,.245,1.856q2.929,4.005,4,5.859h0ZM368.562,908.4q0,6.936-.39,12.549t-1.514,12.695A64.276,64.276,0,0,1,363,947.172a46.977,46.977,0,0,1-4.59,8.789,2.924,2.924,0,0,0-.488,1.562,2.141,2.141,0,0,0,.1.684,3.416,3.416,0,0,0,1.367,2.051,3.734,3.734,0,0,0,2.344.586,2.426,2.426,0,0,0,1.953-1.172q11.133-17.286,11.132-51.27V883.7a0.6,0.6,0,0,1,.684-0.683h53.613a0.652,0.652,0,0,1,.782.683q0,2.05.1,5.567,0.294,39.551,1.856,52.734,2.538,20.215,9.961,20.215,3.612-.1,5.078-4.1a32.533,32.533,0,0,0,1.758-11.23,6.861,6.861,0,0,0-2.149-4.785,1.038,1.038,0,0,0-1.221-.342,1.15,1.15,0,0,0-.83,1.025q-0.292,12.6-1.855,12.6-2.149,0-3.565-6.494t-2-19.58q-0.586-13.086-.684-24.121-0.2-9.178-.195-22.657a5.837,5.837,0,0,0-5.762-5.761H374.324a5.837,5.837,0,0,0-5.762,5.761V908.4Zm142.383,5.03a3.049,3.049,0,0,0,2.149.634q3.025-.194,12.011-0.878t14.258-1.075a0.858,0.858,0,0,1,.977.489q0.487,1.076.879,2.05a2.648,2.648,0,0,0,1.562,1.465,2.74,2.74,0,0,0,2.149-.1,2.837,2.837,0,0,0,1.513-1.612,2.489,2.489,0,0,0-.146-2.2,82.693,82.693,0,0,0-7.813-12.988,3.118,3.118,0,0,0-1.855-1.27,3.768,3.768,0,0,0-2.246.1,2.078,2.078,0,0,0-1.172,1.416,1.958,1.958,0,0,0,.293,1.806q1.951,2.736,3.613,5.469a0.422,0.422,0,0,1,0,.391,0.622,0.622,0,0,1-.39.293q-7.815.489-15.528,0.781a0.31,0.31,0,0,1-.293-0.2,0.24,0.24,0,0,1,0-.293,209.566,209.566,0,0,0,16.6-20.41,2.575,2.575,0,0,0,.439-2.1,2.237,2.237,0,0,0-1.22-1.611,3.158,3.158,0,0,0-4.1,1.074q-3.516,5.274-7.422,10.449a0.583,0.583,0,0,1-.976.1,66.937,66.937,0,0,0-5.372-4.492,0.732,0.732,0,0,1-.2-1.075q3.32-4.3,7.617-11.132a2.621,2.621,0,0,0-1.172-3.711,2.832,2.832,0,0,0-2.246-.049,3.225,3.225,0,0,0-1.757,1.513,106.11,106.11,0,0,1-6.25,10.743,0.431,0.431,0,0,1-.684.1,8.581,8.581,0,0,1-.977-0.683,2.742,2.742,0,0,0-1.953-.44,2.6,2.6,0,0,0-1.758,1.026,2.365,2.365,0,0,0-.537,1.855,2.54,2.54,0,0,0,1.026,1.66,94.594,94.594,0,0,1,10.84,9.082,0.676,0.676,0,0,1,.1,1.075q-3.222,4-6.347,7.421a1.741,1.741,0,0,1-.977.489H512.02a2.5,2.5,0,0,0-1.856.976,2.361,2.361,0,0,0-.488,1.953A3.324,3.324,0,0,0,510.945,913.432Zm-49.8,1.709a3.084,3.084,0,0,0,2.246.683q4.489-.292,14.16-0.879t13.086-.781a0.693,0.693,0,0,1,.683.488,8.74,8.74,0,0,1,.586,1.465,2.918,2.918,0,0,0,1.514,1.416,2.27,2.27,0,0,0,2-.049,2.844,2.844,0,0,0,1.514-1.562,2.609,2.609,0,0,0-.049-2.149,107.05,107.05,0,0,0-6.934-12.4,3.038,3.038,0,0,0-1.611-1.221,2.838,2.838,0,0,0-2,.049,1.9,1.9,0,0,0-1.221,1.221,1.848,1.848,0,0,0,.147,1.709q1.854,3.126,3.027,5.469a0.525,0.525,0,0,1,0,.439,0.38,0.38,0,0,1-.391.244q-1.757.1-4.687,0.2t-5.322.2q-2.394.1-4.444,0.195a0.31,0.31,0,0,1-.293-0.195,0.319,0.319,0,0,1,.1-0.391q8.4-9.471,16.8-21a2.435,2.435,0,0,0,.391-2.1,2.353,2.353,0,0,0-1.368-1.612,2.963,2.963,0,0,0-2.3-.244,3.215,3.215,0,0,0-1.9,1.416q-3.42,5.274-7.519,10.84-0.391.586-.879,0-2.249-2.245-4.883-4.59a0.673,0.673,0,0,1-.1-1.074q2.44-3.417,7.715-11.719a2.723,2.723,0,0,0-1.074-3.808,3.125,3.125,0,0,0-2.295-.1,2.658,2.658,0,0,0-1.611,1.465,108.558,108.558,0,0,1-6.446,11.426,0.457,0.457,0,0,1-.781.1q-0.684-.585-1.367-1.074a2.77,2.77,0,0,0-2-.586,2.467,2.467,0,0,0-1.807.977,2.3,2.3,0,0,0-.586,1.806,2.5,2.5,0,0,0,.879,1.709,93.517,93.517,0,0,1,10.938,9.961,0.826,0.826,0,0,1,0,1.172q-3.808,4.688-6.25,7.227a1.483,1.483,0,0,1-1.172.585l-3.321.1a2.315,2.315,0,0,0-1.9.928,2.414,2.414,0,0,0-.537,2A3.568,3.568,0,0,0,461.141,915.141Zm56.933,29.882a0.621,0.621,0,0,1-.976-0.2,76.867,76.867,0,0,1-6.25-14.551,0.622,0.622,0,0,1,.488-0.781h33.008a2.813,2.813,0,0,0,2-.781,2.575,2.575,0,0,0,.83-1.953,2.834,2.834,0,0,0-2.832-2.832h-9.278a0.2,0.2,0,0,1-.146-0.049c-0.034-.032-0.017-0.081.049-0.147a2.018,2.018,0,0,0,0-3.027,52.225,52.225,0,0,0-8.5-5.957,3.543,3.543,0,0,0-4.395.391,1.823,1.823,0,0,0-.635,1.562,1.987,1.987,0,0,0,.83,1.563,74.573,74.573,0,0,1,7.325,5.175,0.449,0.449,0,0,1,.048.342,0.226,0.226,0,0,1-.244.147H509.773a0.841,0.841,0,0,1-.878-0.684q-4.885-19.237-5.176-46.387a3.2,3.2,0,0,0-.977-2.343,3.184,3.184,0,0,0-4.59,0,3.2,3.2,0,0,0-.976,2.343q0.389,26.466,5.078,46.387,0.195,0.684-.586.684H461.043a2.834,2.834,0,0,0-2.832,2.832,2.567,2.567,0,0,0,.83,1.953,2.809,2.809,0,0,0,2,.781h13.769a0.538,0.538,0,0,1,.586.781Q472.077,950.2,459.969,958.4a2.42,2.42,0,0,0-.977,1.758,2.5,2.5,0,0,0,.684,1.953,3.788,3.788,0,0,0,2.148,1.221,3.131,3.131,0,0,0,2.344-.439q10.547-7.228,15.234-21.68a0.525,0.525,0,0,1,.879-0.293,159.929,159.929,0,0,1,12.7,10.156,3.317,3.317,0,0,0,2.294.879,2.983,2.983,0,0,0,2.2-.879,2.916,2.916,0,0,0,.927-2.246,2.647,2.647,0,0,0-1.025-2.051,137.4,137.4,0,0,0-12.305-9.179,3.53,3.53,0,0,0-2.05-.782,3.781,3.781,0,0,0-2.442.977c0,0.065-.033.082-0.1,0.049s-0.066-.081,0-0.147q0.878-3.222,1.66-7.422a0.8,0.8,0,0,1,.879-0.781H503.23a0.874,0.874,0,0,1,.879.781,77.325,77.325,0,0,0,7.618,18.067,0.623,0.623,0,0,1-.2.976,96.225,96.225,0,0,1-20.605,8.985,2.187,2.187,0,0,0-1.416,1.465,2.224,2.224,0,0,0,.342,2.05,4.551,4.551,0,0,0,2.246,1.758,3.955,3.955,0,0,0,2.734,0,111.639,111.639,0,0,0,20.313-9.277,0.731,0.731,0,0,1,1.074.195q8.4,9.863,20.019,9.863,5.469,0,8.008-3.027t3.711-11.23v-0.684a4.35,4.35,0,0,0-2.441-3.809,1.973,1.973,0,0,0-1.807-.1,1.562,1.562,0,0,0-1.025,1.367q-0.586,6.446-1.954,8.887a4.582,4.582,0,0,1-4.3,2.441q-8.3,0-14.942-7.324a0.578,0.578,0,0,1,.1-0.977,63.129,63.129,0,0,0,14.16-13.672,2.487,2.487,0,0,0,.342-2.2,2.527,2.527,0,0,0-1.416-1.709,3.573,3.573,0,0,0-2.588-.195,4.4,4.4,0,0,0-2.2,1.465,58.129,58.129,0,0,1-11.817,11.425h0Zm58.594-33.691a0.6,0.6,0,0,1,.684-0.684h21.191a0.605,0.605,0,0,1,.684.684v6.445a0.652,0.652,0,0,1-.684.782H577.352a0.651,0.651,0,0,1-.684-0.782v-6.445Zm21.875-12.988a0.605,0.605,0,0,1,.684.683v6.153a0.651,0.651,0,0,1-.684.781H577.352a0.65,0.65,0,0,1-.684-0.781v-6.153a0.6,0.6,0,0,1,.684-0.683h21.191Zm7.715,7.617a0.65,0.65,0,0,1-.684-0.781v-6.153a0.6,0.6,0,0,1,.684-0.683h21.68a0.6,0.6,0,0,1,.683.683v6.153a0.651,0.651,0,0,1-.683.781h-21.68Zm0,12.6a0.651,0.651,0,0,1-.684-0.782v-6.445a0.6,0.6,0,0,1,.684-0.684h21.68a0.605,0.605,0,0,1,.683.684v6.445a0.651,0.651,0,0,1-.683.782h-21.68Zm0,11.132a0.6,0.6,0,0,1-.684-0.683v-4.883a0.6,0.6,0,0,1,.684-0.684H629.4a5.837,5.837,0,0,0,5.762-5.761V899.223a5.5,5.5,0,0,0-1.709-4.1,5.623,5.623,0,0,0-4.053-1.66h-53.32a5.623,5.623,0,0,0-4.053,1.66,5.492,5.492,0,0,0-1.709,4.1V917.68a5.837,5.837,0,0,0,5.762,5.761h22.461a0.605,0.605,0,0,1,.684.684v4.883a0.6,0.6,0,0,1-.684.683H569.832a5.5,5.5,0,0,0-4.1,1.709,5.621,5.621,0,0,0-1.66,4.053v25.879a3.125,3.125,0,0,0,6.25,0v-25.2a0.652,0.652,0,0,1,.782-0.684h27.441a0.605,0.605,0,0,1,.684.684V946.1a0.651,0.651,0,0,1-.684.781q-9.375.391-18.555,0.781a2.693,2.693,0,0,0-2.1.928,2.9,2.9,0,0,0,.341,4.2,3.363,3.363,0,0,0,2.247.83q17.673-.975,41.015-2.246a1.09,1.09,0,0,1,1.074.586q0.682,1.37,1.27,2.734a2.86,2.86,0,0,0,1.514,1.514,2.753,2.753,0,0,0,2.1.049,2.685,2.685,0,0,0,1.563-1.416,2.624,2.624,0,0,0,.1-2.1,60.391,60.391,0,0,0-8.2-13.183,3.435,3.435,0,0,0-2.734-1.465,4.187,4.187,0,0,0-1.465.293,1.528,1.528,0,0,0-1.172,1.123,1.8,1.8,0,0,0,.293,1.709,40.2,40.2,0,0,1,2.93,4.1,0.527,0.527,0,0,1,0,.44,0.381,0.381,0,0,1-.391.244l-12.109.586q-0.684.1-.684-0.684v-9.765a0.6,0.6,0,0,1,.684-0.684h28.418a0.652,0.652,0,0,1,.781.684v21.191a1.5,1.5,0,0,1-.293,1.123,1.958,1.958,0,0,1-1.172.244q-1.075.1-3.613,0.1H626.57a1.819,1.819,0,0,0-1.562.83,1.8,1.8,0,0,0-.2,1.807,4.6,4.6,0,0,0,1.514,2.05,3.693,3.693,0,0,0,2.295.782q7.911-.1,10.352-0.879a4.774,4.774,0,0,0,2.343-2.149,9.487,9.487,0,0,0,.586-3.808V935.453a5.625,5.625,0,0,0-1.66-4.053,5.5,5.5,0,0,0-4.1-1.709H606.258Zm16.7-53.125a3.046,3.046,0,0,0-.977-2.3,3.3,3.3,0,0,0-4.589,0,3.039,3.039,0,0,0-.977,2.3v2.442a0.6,0.6,0,0,1-.684.683H588.777a0.6,0.6,0,0,1-.683-0.683v-2.442a3.046,3.046,0,0,0-.977-2.3,3.289,3.289,0,0,0-2.344-.927,3.168,3.168,0,0,0-3.222,3.222v2.442a0.6,0.6,0,0,1-.684.683H562.508a2.62,2.62,0,0,0-1.9.83,2.827,2.827,0,0,0,0,4,2.612,2.612,0,0,0,1.9.83H580.77a0.652,0.652,0,0,1,.781.684v2.734A3.17,3.17,0,0,0,584.773,892a3.278,3.278,0,0,0,2.344-.928,3.04,3.04,0,0,0,.977-2.295v-2.734a0.6,0.6,0,0,1,.683-0.684H615.73a0.605,0.605,0,0,1,.684.684v2.734a3.033,3.033,0,0,0,.977,2.295,3.3,3.3,0,0,0,4.589,0,3.04,3.04,0,0,0,.977-2.295v-2.734a0.6,0.6,0,0,1,.684-0.684h19.043a2.619,2.619,0,0,0,1.9-.83,2.829,2.829,0,0,0,0-4,2.627,2.627,0,0,0-1.9-.83H623.641a0.6,0.6,0,0,1-.684-0.683v-2.442Zm83.3,4.688a0.65,0.65,0,0,1-.684-0.781v-4a3.223,3.223,0,1,0-6.445,0v4a0.651,0.651,0,0,1-.684.781h-36.23a2.5,2.5,0,0,0-2.539,2.539,2.618,2.618,0,0,0,.732,1.855,2.374,2.374,0,0,0,1.807.782h80.859a2.375,2.375,0,0,0,1.807-.782,2.618,2.618,0,0,0,.732-1.855,2.5,2.5,0,0,0-2.539-2.539H706.258ZM676.57,906.742a0.6,0.6,0,0,1,.684-0.683h21.191a0.6,0.6,0,0,1,.684.683v4.883a0.6,0.6,0,0,1-.684.684H677.254a0.6,0.6,0,0,1-.684-0.684v-4.883Zm21.875-10.84a0.652,0.652,0,0,1,.684.782v4.589a0.652,0.652,0,0,1-.684.782H677.254a0.651,0.651,0,0,1-.684-0.782v-4.589a0.652,0.652,0,0,1,.684-0.782h21.191Zm7.813,6.153a0.651,0.651,0,0,1-.684-0.782v-4.589a0.652,0.652,0,0,1,.684-0.782h21.68a0.652,0.652,0,0,1,.683.782v4.589a0.651,0.651,0,0,1-.683.782h-21.68Zm0,10.254a0.6,0.6,0,0,1-.684-0.684v-4.883a0.6,0.6,0,0,1,.684-0.683h21.68a0.6,0.6,0,0,1,.683.683v4.883a0.6,0.6,0,0,1-.683.684h-21.68Zm13.769,35.253a1.141,1.141,0,0,1-1.269-.2,40.935,40.935,0,0,1-9.473-9.179,0.313,0.313,0,0,1,0-.342,0.318,0.318,0,0,1,.293-0.244h34.766a2.637,2.637,0,0,0,0-5.274H706.258a0.6,0.6,0,0,1-.684-0.683v-4a0.6,0.6,0,0,1,.684-0.684h31.054a2.456,2.456,0,0,0,1.807-.732,2.475,2.475,0,0,0,0-3.516,2.456,2.456,0,0,0-1.807-.732H706.258a0.651,0.651,0,0,1-.684-0.782v-3.808a0.652,0.652,0,0,1,.684-0.782h23.047a5.613,5.613,0,0,0,4.052-1.66,5.489,5.489,0,0,0,1.709-4.1V897.27a5.837,5.837,0,0,0-5.761-5.762H676.082a5.836,5.836,0,0,0-5.762,5.762v13.574a5.485,5.485,0,0,0,1.709,4.1,5.615,5.615,0,0,0,4.053,1.66h22.363a0.652,0.652,0,0,1,.684.782V921.2a0.652,0.652,0,0,1-.684.782H667.586a2.456,2.456,0,0,0-1.807.732,2.477,2.477,0,0,0,0,3.516,2.456,2.456,0,0,0,1.807.732h30.859a0.605,0.605,0,0,1,.684.684v4a0.6,0.6,0,0,1-.684.683h-37.5a2.653,2.653,0,0,0-1.953.781,2.595,2.595,0,0,0,0,3.711,2.646,2.646,0,0,0,1.953.782h30.567c0.129,0,.2.048,0.2,0.146a0.333,0.333,0,0,1-.1.244q-13.476,7.229-32.226,11.035a1.559,1.559,0,0,0-1.27,1.075,1.841,1.841,0,0,0-.1.586,1.676,1.676,0,0,0,.39,1.074,4.474,4.474,0,0,0,3.516,1.953,7.031,7.031,0,0,0,1.172-.1,148.471,148.471,0,0,0,16.7-4.98,0.44,0.44,0,0,1,.439.049,0.414,0.414,0,0,1,.245.341v7.129a0.8,0.8,0,0,1-.782.879q-4.1.587-8.691,1.074a2.37,2.37,0,0,0-1.758,1.026,2.394,2.394,0,0,0-.391,2.1,3.4,3.4,0,0,0,1.221,1.807,2.727,2.727,0,0,0,2.2.537q12.987-1.758,38.184-5.273a2.885,2.885,0,0,0,1.758-1.026,2.531,2.531,0,0,0,.586-1.9,2.131,2.131,0,0,0-.781-1.66,2.248,2.248,0,0,0-1.758-.586l-22.657,2.93a0.6,0.6,0,0,1-.781-0.684v-8.887a1.071,1.071,0,0,1,.684-1.074,84.7,84.7,0,0,0,13.379-7.422,1.625,1.625,0,0,1,1.025-.39,0.921,0.921,0,0,1,.83.488,49.832,49.832,0,0,0,15.772,15.967,75.238,75.238,0,0,0,22.9,9.716,3.694,3.694,0,0,0,1.172.2,4.73,4.73,0,0,0,3.809-2.246,1.856,1.856,0,0,0,.293-1.9,1.79,1.79,0,0,0-1.368-1.22,69.542,69.542,0,0,1-20.9-7.618,0.308,0.308,0,0,1-.2-0.292,0.311,0.311,0,0,1,.2-0.293,127.931,127.931,0,0,0,13.281-5.957,1.594,1.594,0,0,0,1.074-1.417,1.921,1.921,0,0,0-.683-1.709,3.7,3.7,0,0,0-2.539-1.074,4.3,4.3,0,0,0-2.051.586,117.765,117.765,0,0,1-13.477,6.738h0Zm97.266-17.382a0.69,0.69,0,0,1-.781-0.782V889.555a0.651,0.651,0,0,1,.781-0.684H830.77a0.652,0.652,0,0,1,.781.684V929.4a0.691,0.691,0,0,1-.781.782H817.293Zm72.168-32.91q0.683,0,.488.683-2.149,8.986-4.687,16.6a2.832,2.832,0,0,0,.146,2.246,2.475,2.475,0,0,0,1.612,1.367,3.181,3.181,0,0,0,2.392-.147,2.81,2.81,0,0,0,1.514-1.709q2.83-7.518,6.836-22.07v-0.683a2.808,2.808,0,0,0-.293-1.27A2.076,2.076,0,0,0,896,891.215l-1.27-.391a4.017,4.017,0,0,0-2.148,0H855.281a0.511,0.511,0,0,1-.439-0.195,0.5,0.5,0,0,1-.049-0.488q1.366-5.175,2.832-11.914a3.416,3.416,0,0,0-.537-2.686,3.113,3.113,0,0,0-2.2-1.416,2.939,2.939,0,0,0-.684-0.1,3.928,3.928,0,0,0-2.051.586,3.753,3.753,0,0,0-1.465,2.344q-4.394,22.755-12.6,35.645a0.134,0.134,0,0,1-.2.146,0.229,0.229,0,0,1-.2-0.244V888.383a5.623,5.623,0,0,0-1.66-4.053,5.5,5.5,0,0,0-4.1-1.709H816.316a5.493,5.493,0,0,0-4.1,1.709,5.615,5.615,0,0,0-1.66,4.053v54.59a2.808,2.808,0,0,0,.879,2.05,2.947,2.947,0,0,0,4.2,0,2.808,2.808,0,0,0,.879-2.05v-5.86a0.69,0.69,0,0,1,.781-0.781h14.648a5.492,5.492,0,0,0,4.1-1.709,5.62,5.62,0,0,0,1.66-4.053V917.387a0.311,0.311,0,0,1,.2-0.293,0.422,0.422,0,0,1,.391,0,4.036,4.036,0,0,0,2.441.781,4.921,4.921,0,0,0,.977-0.1,3.9,3.9,0,0,0,2.734-1.953,97.8,97.8,0,0,0,7.911-17.871,0.9,0.9,0,0,1,.976-0.683h9.961a0.651,0.651,0,0,1,.781.683v15.625a38.213,38.213,0,0,1-.634,6.4,50.343,50.343,0,0,1-2.588,8.837,54.11,54.11,0,0,1-5.078,10.059,48.944,48.944,0,0,1-8.692,9.863,56.157,56.157,0,0,1-12.695,8.5,2.633,2.633,0,0,0-1.465,1.807,2.435,2.435,0,0,0,.488,2.2,4.19,4.19,0,0,0,2.344,1.563,2.61,2.61,0,0,0,.977.195,3.686,3.686,0,0,0,1.66-.39,57.685,57.685,0,0,0,12.3-8.448,51.2,51.2,0,0,0,8.741-9.961,63.709,63.709,0,0,0,5.127-9.326,37.647,37.647,0,0,0,2.539-8.008c0-.064.048-0.1,0.146-0.1s0.147,0.033.147,0.1a46.748,46.748,0,0,0,2.3,7.862,75.06,75.06,0,0,0,4.394,9.326,48.193,48.193,0,0,0,7.422,9.961,49.273,49.273,0,0,0,10.3,8.3,4.333,4.333,0,0,0,1.953.488,4.642,4.642,0,0,0,.879-0.1,3.63,3.63,0,0,0,2.343-1.562,2.847,2.847,0,0,0,.489-2.393,2.975,2.975,0,0,0-1.465-2,49.184,49.184,0,0,1-10.84-8.5,46.614,46.614,0,0,1-7.422-9.814,65.718,65.718,0,0,1-6.64-18.7,37.989,37.989,0,0,1-.586-6.152V897.953a0.65,0.65,0,0,1,.781-0.683h18.164ZM993.367,883.4H959.48a0.65,0.65,0,0,1-.781-0.683v-5.86a3.318,3.318,0,0,0-.976-2.441,3.418,3.418,0,0,0-4.785,0,3.311,3.311,0,0,0-.977,2.441v5.86a0.651,0.651,0,0,1-.781.683H920.809a5.836,5.836,0,0,0-5.762,5.762v23.047a205.781,205.781,0,0,1-1.416,25,65.892,65.892,0,0,1-5.908,20.8,3.452,3.452,0,0,0-.391,1.562,2.606,2.606,0,0,0,.2.977,3.313,3.313,0,0,0,1.465,2.051,3.211,3.211,0,0,0,2.3.488,2.358,2.358,0,0,0,1.807-1.367q8.3-16.8,8.3-49.512V890.238a0.6,0.6,0,0,1,.683-0.683h71.289a3.088,3.088,0,0,0,2.2-.879,2.848,2.848,0,0,0,.928-2.149,3.169,3.169,0,0,0-3.125-3.125h0Zm-20.508,33.887a0.69,0.69,0,0,1-.781.781H948.25a0.65,0.65,0,0,1-.684-0.781v-9.863a0.6,0.6,0,0,1,.684-0.684h23.828a0.652,0.652,0,0,1,.781.684v9.863Zm6.543-9.863a0.652,0.652,0,0,1,.782-0.684h12.793a2.57,2.57,0,0,0,1.953-.83,2.757,2.757,0,0,0,.781-1.953,2.6,2.6,0,0,0-.781-1.9,2.652,2.652,0,0,0-1.953-.782H980.184a0.69,0.69,0,0,1-.782-0.781v-4.98a3.287,3.287,0,0,0-.927-2.344,3.046,3.046,0,0,0-2.3-.977,3.336,3.336,0,0,0-3.321,3.321v4.98a0.69,0.69,0,0,1-.781.781H948.25a0.65,0.65,0,0,1-.684-0.781v-5.078a3.122,3.122,0,0,0-.927-2.295,3.183,3.183,0,0,0-4.493,0,3.118,3.118,0,0,0-.927,2.295v5.078a0.651,0.651,0,0,1-.684.781h-12.89a2.813,2.813,0,0,0-2,.782,2.517,2.517,0,0,0-.831,1.9,2.668,2.668,0,0,0,.831,1.953,2.723,2.723,0,0,0,2,.83h12.89a0.605,0.605,0,0,1,.684.684V917.68a5.837,5.837,0,0,0,5.761,5.761h26.661a5.492,5.492,0,0,0,4.1-1.709,5.619,5.619,0,0,0,1.66-4.052V907.426Zm-17.675,41.5a1.673,1.673,0,0,1-1.368,0,45.83,45.83,0,0,1-16.015-12.6,0.411,0.411,0,0,1,0-.391,0.312,0.312,0,0,1,.293-0.2H978.23a0.314,0.314,0,0,1,.293.2,0.416,0.416,0,0,1,0,.391,47.531,47.531,0,0,1-16.8,12.6h0Zm21.289-18.653h-54a2.647,2.647,0,0,0-1.953.782,2.588,2.588,0,0,0-.782,1.9,2.749,2.749,0,0,0,.782,1.953,2.566,2.566,0,0,0,1.953.83h12.207v0.2a2.641,2.641,0,0,0-1.758,1.807,2.467,2.467,0,0,0,.488,2.393,53.977,53.977,0,0,0,13.574,11.621,0.281,0.281,0,0,1,.147.342,0.25,0.25,0,0,1-.244.244,123.874,123.874,0,0,1-27.735,6.054,1.829,1.829,0,0,0-1.562,1.075,2.791,2.791,0,0,0,0,2.05,4.883,4.883,0,0,0,1.855,1.953,3.838,3.838,0,0,0,2.539.489q18.847-2.637,31.739-8.008a1.67,1.67,0,0,1,1.367,0,113.3,113.3,0,0,0,29.1,8.2,4.608,4.608,0,0,0,.879.1,5.239,5.239,0,0,0,4.493-2.637,2.6,2.6,0,0,0,.293-1.172,3.251,3.251,0,0,0-.1-0.781,2.059,2.059,0,0,0-1.563-1.27,117.2,117.2,0,0,1-26.074-5.957,0.247,0.247,0,0,1-.244-0.244,0.278,0.278,0,0,1,.146-0.342q12.4-7.03,18.848-17.578a2.057,2.057,0,0,0,.2-1.758,2.4,2.4,0,0,0-1.171-1.464l-1.172-.586a2.252,2.252,0,0,0-1.27-.391,2.188,2.188,0,0,0-.683.1,0.762,0.762,0,0,1-.293.1h0Zm72.554-10.644a0.608,0.608,0,0,1,.69-0.684h29.1a3.016,3.016,0,0,0,2.2-.928,3.2,3.2,0,0,0,0-4.492,3.023,3.023,0,0,0-2.2-.927h-29.1a0.653,0.653,0,0,1-.69-0.782V885.062a0.607,0.607,0,0,1,.69-0.683h32.81a3.1,3.1,0,0,0,2.25-.977,3.272,3.272,0,0,0-2.25-5.566h-72.66a3.086,3.086,0,0,0-2.24.976,3.177,3.177,0,0,0,0,4.59,3.08,3.08,0,0,0,2.24.977h31.45a0.6,0.6,0,0,1,.68.683V911.82a0.651,0.651,0,0,1-.68.782h-27.34a3.119,3.119,0,0,0-2.3.927,3.177,3.177,0,0,0,0,4.492,3.112,3.112,0,0,0,2.3.928h27.34a0.6,0.6,0,0,1,.68.684v31.25a0.65,0.65,0,0,1-.68.781h-36.52a3.093,3.093,0,0,0-2.25.977,3.176,3.176,0,0,0,0,4.589,3.093,3.093,0,0,0,2.25.977h82.61a3.093,3.093,0,0,0,2.25-.977,3.176,3.176,0,0,0,0-4.589,3.093,3.093,0,0,0-2.25-.977h-37.69a0.653,0.653,0,0,1-.69-0.781v-31.25Zm25.88,24.8a3.086,3.086,0,0,0,2.25,1.171h0.29a3.3,3.3,0,0,0,3.32-3.32,2.909,2.909,0,0,0-.88-2.148q-5.37-5.567-14.35-13.672a3.707,3.707,0,0,0-2.25-.977h-0.19a3.566,3.566,0,0,0-2.2.781,2.474,2.474,0,0,0-1.03,2.051,2.426,2.426,0,0,0,.88,1.856,192.171,192.171,0,0,1,14.16,14.258h0Zm59.57-54.1a0.65,0.65,0,0,1-.78.684h-20.7a0.65,0.65,0,0,1-.78-0.684v-8.008a0.69,0.69,0,0,1,.78-0.781h20.7a0.69,0.69,0,0,1,.78.781v8.008Zm-22.26,6.641a0.69,0.69,0,0,1,.78-0.782h20.7a0.69,0.69,0,0,1,.78.782v8.789a0.65,0.65,0,0,1-.78.683h-20.7a0.65,0.65,0,0,1-.78-0.683v-8.789Zm-0.78-21a5.838,5.838,0,0,0-5.77,5.762v77.149a3.2,3.2,0,0,0,.98,2.343,3.184,3.184,0,0,0,4.59,0,3.2,3.2,0,0,0,.98-2.343V912.8a0.651,0.651,0,0,1,.78-0.684h22.07a5.838,5.838,0,0,0,5.76-5.761v-24.61a5.838,5.838,0,0,0-5.76-5.762h-23.63Zm45.5,21a0.694,0.694,0,0,1,.79-0.782h21.87a0.647,0.647,0,0,1,.68.782v8.789a0.647,0.647,0,0,1-.68.781h-21.87a0.693,0.693,0,0,1-.79-0.781v-8.789Zm23.34-6.641a0.6,0.6,0,0,1-.68.684h-21.87a0.654,0.654,0,0,1-.79-0.684v-8.008a0.693,0.693,0,0,1,.79-0.781h21.87a0.647,0.647,0,0,1,.68.781v8.008ZM1162.8,875.98a5.838,5.838,0,0,0-5.76,5.762v24.707a5.838,5.838,0,0,0,5.76,5.762h23.34a0.647,0.647,0,0,1,.68.781v39.844a2.513,2.513,0,0,1-.58,1.9,3.193,3.193,0,0,1-1.95.635q-7.53,0-12.02-.1a2.109,2.109,0,0,0-1.85,1.026,2.392,2.392,0,0,0-.3,2.2,5.081,5.081,0,0,0,1.76,2.539,4.163,4.163,0,0,0,2.74.977q11.025-.2,14.45-1.172a5.957,5.957,0,0,0,3.42-2.686,11.5,11.5,0,0,0,.97-5.322V881.742a5.821,5.821,0,0,0-5.76-5.762h-24.9Zm81.15,70.606a0.794,0.794,0,0,1-.88.781h-8.49a0.653,0.653,0,0,1-.69-0.781v-6.25a2.5,2.5,0,0,0-2.44-2.441,2.2,2.2,0,0,0-1.66.732,2.449,2.449,0,0,0-.68,1.709V946a5.838,5.838,0,0,0,5.76,5.762H1242a0.384,0.384,0,0,1,.39.2,0.447,0.447,0,0,1,0,.391q-2.34,4.2-8.59,6.543a1.634,1.634,0,0,0-1.03,1.171,1.615,1.615,0,0,0,.34,1.563,3.571,3.571,0,0,0,2.64,1.465,3.5,3.5,0,0,0,1.37-.293,25.426,25.426,0,0,0,6.05-3.565,13.6,13.6,0,0,0,3.62-4.345,18.488,18.488,0,0,0,1.61-4.541,26.635,26.635,0,0,0,.44-5.127v-6.348a2.516,2.516,0,0,0-2.45-2.441,2.312,2.312,0,0,0-1.7.732,2.345,2.345,0,0,0-.74,1.709v7.715h0Zm-3.22-51.367a0.647,0.647,0,0,1,.68.781v6.25a0.6,0.6,0,0,1-.68.684h-21.97a0.607,0.607,0,0,1-.69-0.684V896a0.653,0.653,0,0,1,.69-0.781h21.97Zm0.68-5.371a0.6,0.6,0,0,1-.68.683h-21.97a0.607,0.607,0,0,1-.69-0.683V883.5a0.653,0.653,0,0,1,.69-0.781h21.97a0.647,0.647,0,0,1,.68.781v6.348Zm3.62,39.16c0.19,0.261.13,0.424-.2,0.488-3.38.2-5.86,0.327-7.42,0.391a0.318,0.318,0,0,1-.29-0.147,0.255,0.255,0,0,1,.09-0.342,146.509,146.509,0,0,0,10.94-11.718,1.641,1.641,0,0,0,.39-1.514,1.758,1.758,0,0,0-.97-1.221,3.269,3.269,0,0,0-1.27-.293,2.493,2.493,0,0,0-2.05,1.27q-1.86,2.343-4.98,6.055a0.557,0.557,0,0,1-.98,0,32.37,32.37,0,0,0-2.93-3.125,0.707,0.707,0,0,1,0-1.075,71.92,71.92,0,0,0,5.76-6.738,1.916,1.916,0,0,0,.34-1.709,1.633,1.633,0,0,0-1.12-1.221v-0.2H1242a5.613,5.613,0,0,0,4.05-1.66,5.489,5.489,0,0,0,1.71-4.1V883.5a5.838,5.838,0,0,0-5.76-5.762h-24.61a5.838,5.838,0,0,0-5.76,5.762v77.832a3.22,3.22,0,1,0,6.44,0V908.7a0.653,0.653,0,0,1,.69-0.781h18.45a0.442,0.442,0,0,1,.35.2,0.278,0.278,0,0,1-.05.391q-2.64,4-5.08,7.129a0.45,0.45,0,0,1-.64.049c-0.22-.162-0.53-0.406-0.92-0.733a2.8,2.8,0,0,0-1.47-.488,2.385,2.385,0,0,0-1.56.684,1.531,1.531,0,0,0-.59,1.22,1.45,1.45,0,0,0,.69,1.221,45.852,45.852,0,0,1,7.52,7.52,0.834,0.834,0,0,1,0,1.171c-1.17,1.238-2.35,2.41-3.52,3.516a1.6,1.6,0,0,1-1.17.488l-3.42.1a1.953,1.953,0,0,0-1.56.684,2.143,2.143,0,0,0-.49,1.66,2.262,2.262,0,0,0,.83,1.513,2.175,2.175,0,0,0,1.71.538q14.355-.879,19.24-1.172a0.353,0.353,0,0,1,.49.244,3.232,3.232,0,0,0,.19.537,1.912,1.912,0,0,0,1.08,1.123,2,2,0,0,0,1.56.049,1.941,1.941,0,0,0,1.22-1.074,2.02,2.02,0,0,0,.05-1.563,32.175,32.175,0,0,0-4.2-7.226,2.538,2.538,0,0,0-2.05-1.172,2.633,2.633,0,0,0-.98.2,1.659,1.659,0,0,0-.93.977,1.361,1.361,0,0,0,.15,1.269,13.786,13.786,0,0,1,1.37,2.051h0Zm30.76,11.328a2.374,2.374,0,0,0-.73-1.709,2.307,2.307,0,0,0-1.66-.732,2.274,2.274,0,0,0-1.66.732,2.345,2.345,0,0,0-.74,1.709v6.25a0.646,0.646,0,0,1-.68.781h-8.98a0.653,0.653,0,0,1-.69-0.781v-7.617a2.447,2.447,0,0,0-.73-1.807,2.482,2.482,0,0,0-3.52,0,2.486,2.486,0,0,0-.73,1.807V960.16a2.374,2.374,0,0,0,.73,1.709,2.479,2.479,0,0,0,3.52,0,2.334,2.334,0,0,0,.73-1.709v-7.715a0.607,0.607,0,0,1,.69-0.683h8.69a5.838,5.838,0,0,0,5.76-5.762v-5.664ZM1263.48,896a0.653,0.653,0,0,1,.69-0.781h22.75a0.653,0.653,0,0,1,.69.781v6.25a0.607,0.607,0,0,1-.69.684h-22.75a0.607,0.607,0,0,1-.69-0.684V896Zm24.13-6.152a0.607,0.607,0,0,1-.69.683h-22.75a0.607,0.607,0,0,1-.69-0.683V883.5a0.653,0.653,0,0,1,.69-0.781h22.75a0.653,0.653,0,0,1,.69.781v6.348Zm-24.81-12.11a5.838,5.838,0,0,0-5.76,5.762v19.434a4.993,4.993,0,0,0,4.98,4.98,0.306,0.306,0,0,1,.29.2,0.39,0.39,0,0,1,0,.391q-3.03,4.493-5.27,7.324a0.37,0.37,0,0,1-.59,0q-0.585-.388-1.17-0.781a2.236,2.236,0,0,0-3.12.1,1.487,1.487,0,0,0-.59,1.171,1.6,1.6,0,0,0,.68,1.368,49.255,49.255,0,0,1,7.62,7.519,0.676,0.676,0,0,1-.1,1.074q-3.315,3.127-3.9,3.711a1.066,1.066,0,0,1-.78.293h-1.08a2,2,0,0,0-1.41.782,1.781,1.781,0,0,0-.35,1.562,2.506,2.506,0,0,0,.98,1.563,2.439,2.439,0,0,0,1.76.488c1.62-.13,4.67-0.325,9.13-0.586s7.96-.488,10.5-0.684a0.47,0.47,0,0,1,.58.293c0.2,0.391.36,0.75,0.49,1.075a2.313,2.313,0,0,0,1.17,1.123,2.019,2.019,0,0,0,1.57.048,2.544,2.544,0,0,0,1.17-1.171,1.664,1.664,0,0,0,0-1.563,34.584,34.584,0,0,0-4.79-8.105,2.6,2.6,0,0,0-2.15-1.172,3.427,3.427,0,0,0-1.07.2,1.323,1.323,0,0,0-.93.928,1.3,1.3,0,0,0,.25,1.318q0.78,1.27,1.56,2.539a0.328,0.328,0,0,1,.1.391,0.4,0.4,0,0,1-.39.195c-4.95.2-8.44,0.327-10.45,0.391a0.346,0.346,0,0,1-.3-0.147c-0.06-.1-0.03-0.178.1-0.244a158.294,158.294,0,0,0,11.43-11.426,1.784,1.784,0,0,0,.44-1.513,1.632,1.632,0,0,0-.93-1.221,3.178,3.178,0,0,0-1.37-.391,2.571,2.571,0,0,0-2.15,1.27q-2.145,2.637-5.07,5.762a0.557,0.557,0,0,1-.98,0,29.662,29.662,0,0,0-2.83-2.832,0.707,0.707,0,0,1,0-1.075q3.21-3.515,6.34-7.617a1.457,1.457,0,0,0,.3-1.367,1.5,1.5,0,0,0-.88-1.074c-0.07,0-.1-0.016-0.1-0.049s0.03-.049.1-0.049h21.09a0.653,0.653,0,0,1,.69.781v47.168a2.076,2.076,0,0,1-.35,1.367,2.165,2.165,0,0,1-1.41.489c-0.65.064-1.56,0.1-2.74,0.1-1.1,0-2.41-.033-3.9-0.1a2.164,2.164,0,0,0-1.86.976,2.308,2.308,0,0,0-.29,2.149,5.264,5.264,0,0,0,1.66,2.441,4.017,4.017,0,0,0,2.64.977h0.09q6.84-.1,9.28-1.27a4.667,4.667,0,0,0,2.59-2.441,11.942,11.942,0,0,0,.73-4.688V883.5a5.838,5.838,0,0,0-5.76-5.762H1262.8Z"/>
  <path id="大写字母" class="cls-3" d="M226.992,466.883q2.6-11.46,3.8-17.719a0.141,0.141,0,1,1,.281,0q1.757,8.649,3.8,17.719l1.758,8.086c0.093,0.328-.047.492-0.422,0.492H225.656q-0.562,0-.422-0.492Zm19.266,29.039a2.445,2.445,0,0,0,.492-1.406,2.365,2.365,0,0,0-.07-0.563l-10.828-46.125a4.677,4.677,0,0,0-1.723-2.777,5.036,5.036,0,0,0-6.258,0,4.668,4.668,0,0,0-1.723,2.777l-10.828,46.2a2.315,2.315,0,0,0-.07.563,2.143,2.143,0,0,0,.492,1.336,2.075,2.075,0,0,0,1.758.844,3.4,3.4,0,0,0,2.215-.774,3.506,3.506,0,0,0,1.23-1.969l2.953-13.218a0.608,0.608,0,0,1,.633-0.493h12.8a0.609,0.609,0,0,1,.633.493l2.883,13.148a3.526,3.526,0,0,0,1.3,2,3.581,3.581,0,0,0,2.285.809,2.271,2.271,0,0,0,1.828-.844h0Zm26.184,0.844q7.945,0,12.34-3.9t4.4-11.425q0-10.548-9.493-12.657a0.187,0.187,0,0,1-.211-0.211,0.277,0.277,0,0,1,.211-0.281,9.6,9.6,0,0,0,5.414-4.254,13.64,13.64,0,0,0,1.829-7.137q0-12.936-14.907-12.937h-5.836a4.2,4.2,0,0,0-4.148,4.148v44.508a4.2,4.2,0,0,0,4.148,4.149h6.258Zm-4.5-47.391a0.469,0.469,0,0,1,.492-0.563h2.953q5.133,0,7.383,2t2.25,6.856q0,4.5-2.285,6.785t-7.7,2.285h-2.6a0.468,0.468,0,0,1-.492-0.562V449.375Zm0,22.359a0.469,0.469,0,0,1,.492-0.562h3.727q5.765,0,8.437,2.461t2.672,7.594q0,5.484-2.883,8.121t-8.648,2.636h-3.3a0.434,0.434,0,0,1-.492-0.492V471.734ZM331.6,492.969a2.3,2.3,0,0,0,.7-1.688,2.7,2.7,0,0,0-.843-1.969,2.291,2.291,0,0,0-1.758-.632,2.576,2.576,0,0,0-1.688.773,8.9,8.9,0,0,1-6.609,3.024q-5.415,0-8.754-5.59t-3.34-16.629q0-10.758,3.41-16.348t8.543-5.59a8.465,8.465,0,0,1,5.766,2.321,2.726,2.726,0,0,0,1.793.738,2.224,2.224,0,0,0,1.722-.668,2.778,2.778,0,0,0,.774-1.934,2.316,2.316,0,0,0-.774-1.793,13.614,13.614,0,0,0-9.421-3.867,14.614,14.614,0,0,0-6.926,1.688,17.4,17.4,0,0,0-5.7,4.957,24.687,24.687,0,0,0-3.937,8.613,46.508,46.508,0,0,0-1.441,12.094q0,13.288,4.992,20.215t12.8,6.925a14.537,14.537,0,0,0,10.687-4.64h0Zm24.286,3.8q9.492,0,14.695-7.032t5.2-19.617q0-12.446-5.239-19.3t-14.871-6.855h-4.219a3.958,3.958,0,0,0-2.953,1.23,4.046,4.046,0,0,0-1.195,2.918v44.508a4.043,4.043,0,0,0,1.195,2.918,3.951,3.951,0,0,0,2.953,1.231h4.43Zm-2.6-47.25a0.469,0.469,0,0,1,.492-0.563h2.531a10.91,10.91,0,0,1,9.949,5.485q3.339,5.484,3.34,15.679,0,10.336-3.375,16a10.859,10.859,0,0,1-9.914,5.66H353.78a0.434,0.434,0,0,1-.492-0.492V449.516Zm61.973,47.25a2.557,2.557,0,0,0,1.828-.739,2.387,2.387,0,0,0,.774-1.793,2.642,2.642,0,0,0-2.6-2.6H398.808a0.469,0.469,0,0,1-.563-0.492V472.086a0.469,0.469,0,0,1,.563-0.492h12.656a2.382,2.382,0,0,0,1.793-.774,2.559,2.559,0,0,0,.738-1.828,2.52,2.52,0,0,0-2.531-2.531H398.808a0.5,0.5,0,0,1-.563-0.563V449.656a0.5,0.5,0,0,1,.563-0.562h15.82a2.521,2.521,0,0,0,2.531-2.532,2.562,2.562,0,0,0-.738-1.828,2.388,2.388,0,0,0-1.793-.773H396.347a4.2,4.2,0,0,0-4.149,4.148v44.508a4.2,4.2,0,0,0,4.149,4.149h18.914Zm27.309-2.954v-20.6a0.435,0.435,0,0,1,.492-0.492h12.727a2.557,2.557,0,0,0,1.828-.739,2.387,2.387,0,0,0,.774-1.792,2.642,2.642,0,0,0-2.6-2.6H443.062a0.435,0.435,0,0,1-.492-0.492V449.656a0.469,0.469,0,0,1,.492-0.562H458.6a2.559,2.559,0,0,0,1.828-.739,2.386,2.386,0,0,0,.773-1.793,2.64,2.64,0,0,0-2.6-2.6h-17.86a3.958,3.958,0,0,0-2.953,1.23,4.042,4.042,0,0,0-1.195,2.918v45.7a2.894,2.894,0,0,0,.844,2.075,2.8,2.8,0,0,0,2.109.879,2.916,2.916,0,0,0,2.144-.879,2.837,2.837,0,0,0,.879-2.075h0Zm58.95,1.055q3.023-2.178,3.024-7.031V473.844A4.2,4.2,0,0,0,500.4,469.7h-6.328a2.532,2.532,0,1,0,0,5.063h4.36a0.469,0.469,0,0,1,.562.492v13.922a1.235,1.235,0,0,1-.351.914,7.878,7.878,0,0,1-5.907,2.391q-5.2,0-8.261-5.942t-3.059-16.277q0-10.194,3.2-16.067t8.473-5.871a8.078,8.078,0,0,1,6.047,2.883,2.241,2.241,0,0,0,1.652.844,2.122,2.122,0,0,0,1.723-.633,3.088,3.088,0,0,0,.843-1.934,2.519,2.519,0,0,0-.7-1.933,12.905,12.905,0,0,0-9.562-4.43q-7.947,0-12.9,7.383t-4.957,19.969q0,12.446,4.887,19.793t12.551,7.347a15.14,15.14,0,0,0,8.859-2.742h0Zm24.286-1.125V472.086a0.469,0.469,0,0,1,.563-0.492H540.5a0.469,0.469,0,0,1,.562.492v21.726a2.894,2.894,0,0,0,.844,2.075,2.8,2.8,0,0,0,2.109.879,2.92,2.92,0,0,0,2.145-.879,2.841,2.841,0,0,0,.879-2.075V446.984a3,3,0,0,0-3.024-3.023,2.8,2.8,0,0,0-2.109.879,2.981,2.981,0,0,0-.844,2.144v18.774a0.5,0.5,0,0,1-.562.562H526.369a0.5,0.5,0,0,1-.563-0.562V446.984a2.955,2.955,0,0,0-.879-2.109,2.824,2.824,0,0,0-2.109-.914,2.937,2.937,0,0,0-2.145.914,2.9,2.9,0,0,0-.914,2.109v46.758a2.864,2.864,0,0,0,.914,2.145,2.993,2.993,0,0,0,2.145.879,2.876,2.876,0,0,0,2.109-.879,2.918,2.918,0,0,0,.879-2.145h0Zm60.989,3.024a2.326,2.326,0,0,0,1.758-.739,2.548,2.548,0,0,0,0-3.515,2.329,2.329,0,0,0-1.758-.739h-6.609a0.468,0.468,0,0,1-.563-0.492V449.656a0.5,0.5,0,0,1,.563-0.562h6.539a2.521,2.521,0,0,0,2.531-2.532,2.562,2.562,0,0,0-.738-1.828,2.388,2.388,0,0,0-1.793-.773h-20.25a2.388,2.388,0,0,0-1.793.773,2.562,2.562,0,0,0-.738,1.828,2.521,2.521,0,0,0,2.531,2.532h6.539a0.5,0.5,0,0,1,.563.562v41.625a0.469,0.469,0,0,1-.563.492h-6.609a2.328,2.328,0,0,0-1.758.739,2.548,2.548,0,0,0,0,3.515,2.324,2.324,0,0,0,1.758.739h20.39Zm38.982-49.782V482.07q0,10.407-7.665,10.407-3.867,0-6.75-3.727a2.476,2.476,0,0,0-1.617-.914,2.181,2.181,0,0,0-1.758.492A3.307,3.307,0,0,0,607,490.3v0.351a2.8,2.8,0,0,0,.563,1.688,13.7,13.7,0,0,0,10.9,5.273,15.348,15.348,0,0,0,6.223-1.16,9.955,9.955,0,0,0,4.148-3.234,14.1,14.1,0,0,0,2.215-4.676,22.4,22.4,0,0,0,.7-5.836V446.984a2.919,2.919,0,0,0-.879-2.144,2.971,2.971,0,0,0-4.219,0,2.918,2.918,0,0,0-.878,2.144h0Zm30.473,46.828v-12.8a1.968,1.968,0,0,1,.281-0.985l6.328-10.336a0.2,0.2,0,0,1,.246-0.105,0.334,0.334,0,0,1,.247.176l9.21,24.117a4.278,4.278,0,0,0,1.618,2.109,4.351,4.351,0,0,0,2.531.774,2.023,2.023,0,0,0,1.758-.914,2.11,2.11,0,0,0,.351-1.125,2.082,2.082,0,0,0-.14-0.774l-11.742-29.672a0.907,0.907,0,0,1,.07-0.914L676.57,446.7a1.766,1.766,0,0,0-.035-1.828,1.714,1.714,0,0,0-1.582-.914,5.008,5.008,0,0,0-4.641,2.742L656.6,471.1a0.289,0.289,0,0,1-.211.07,0.124,0.124,0,0,1-.141-0.141V446.914a2.839,2.839,0,0,0-.879-2.074,2.88,2.88,0,0,0-2.109-.879,2.76,2.76,0,0,0-2.074.879,2.9,2.9,0,0,0-.844,2.074v46.9a2.894,2.894,0,0,0,.844,2.075,2.76,2.76,0,0,0,2.074.879,2.88,2.88,0,0,0,2.109-.879,2.837,2.837,0,0,0,.879-2.075h0Zm61.9,2.954a2.524,2.524,0,0,0,1.863-.739,2.437,2.437,0,0,0,.739-1.793,2.559,2.559,0,0,0-.739-1.828,2.469,2.469,0,0,0-1.863-.773H702.122a0.469,0.469,0,0,1-.563-0.492V446.984a2.984,2.984,0,0,0-.843-2.144,2.8,2.8,0,0,0-2.11-.879,3,3,0,0,0-3.023,3.023v45.633a4.2,4.2,0,0,0,4.148,4.149h18.422Zm22.247-2.391V465.336q0-2.532-.562-8.719t-0.563-6.258c0-.14.046-0.211,0.141-0.211a0.125,0.125,0,0,1,.14.141l2.672,10.688,5.133,19.476a1.791,1.791,0,0,0,.7,1.125,2.216,2.216,0,0,0,2.6,0,1.808,1.808,0,0,0,.7-1.125l5.133-19.476,2.461-10.688a0.124,0.124,0,0,1,.14-0.141c0.094,0,.141.071,0.141,0.211q-0.071,1.055-.352,4.465t-0.457,6.012q-0.175,2.6-.176,4.5v28.969a2.356,2.356,0,0,0,.739,1.722,2.459,2.459,0,0,0,3.515,0,2.359,2.359,0,0,0,.739-1.722v-47.25a3.121,3.121,0,0,0-3.094-3.094,3.722,3.722,0,0,0-2.391.844,4.027,4.027,0,0,0-1.406,2.179l-4.852,19.055-1.968,8.719a0.141,0.141,0,0,1-.282,0l-1.968-8.719-4.852-19.055a4.032,4.032,0,0,0-1.406-2.179,3.724,3.724,0,0,0-2.391-.844,3.123,3.123,0,0,0-3.094,3.094v47.32a2.294,2.294,0,0,0,.7,1.687,2.459,2.459,0,0,0,3.445,0,2.3,2.3,0,0,0,.7-1.687h0Zm43.833-.141V467.867q0-3.093-.7-15.961a0.124,0.124,0,0,1,.14-0.14,0.226,0.226,0,0,1,.211.14l3.656,11.18,11.18,30.8a4.447,4.447,0,0,0,1.653,2.074,4.281,4.281,0,0,0,2.5.809,2.945,2.945,0,0,0,2.214-.914,3.035,3.035,0,0,0,.879-2.18v-47.18a2.441,2.441,0,0,0-.738-1.793,2.463,2.463,0,0,0-3.516,0,2.441,2.441,0,0,0-.738,1.793v26.3q0,3.306.7,16.031a0.124,0.124,0,0,1-.14.141,0.222,0.222,0,0,1-.211-0.141l-3.586-11.039-11.25-30.867a4.417,4.417,0,0,0-1.653-2.144,4.283,4.283,0,0,0-2.5-.809,2.94,2.94,0,0,0-2.214.914,3.033,3.033,0,0,0-.879,2.18v47.179a2.44,2.44,0,0,0,.738,1.793,2.461,2.461,0,0,0,3.516,0,2.44,2.44,0,0,0,.738-1.793h0Zm66.825-24.117q0-13.289-4.113-20.144T835.8,443.117q-7.032,0-11.145,6.856t-4.113,20.144q0,13.431,4.149,20.461t11.109,7.031q6.962,0,11.109-7.031t4.149-20.461h0Zm-24.328,0q0-21.8,9.07-21.8t9.07,21.8q0,22.359-9.07,22.36t-9.07-22.36h0Zm45.731,23.695V475.883a0.435,0.435,0,0,1,.492-0.492h3.164q8.789,0,13.43-4.008t4.641-12.024q0-8.295-4.5-11.847t-13.571-3.551h-5.484a3.956,3.956,0,0,0-2.953,1.23,4.043,4.043,0,0,0-1.2,2.918v45.7a2.837,2.837,0,0,0,.879,2.075,2.971,2.971,0,0,0,4.219,0,2.837,2.837,0,0,0,.879-2.075h0Zm0-44.367a0.469,0.469,0,0,1,.492-0.562h2.32q6.891,0,9.915,2.32t3.023,8.156q0,5.838-3.094,8.508t-9.844,2.672h-2.32a0.435,0.435,0,0,1-.492-0.492v-20.6Zm43.059,4.289q2.39-5.341,6.68-5.343t6.68,5.343q2.389,5.345,2.39,16.524,0,11.321-2.39,16.945t-6.68,5.625q-4.29,0-6.68-5.625t-2.39-16.945Q913.13,459.079,915.52,453.734Zm18.211,51.258a7.509,7.509,0,0,1-5.027-1.828,11.835,11.835,0,0,1-3.34-5.273,0.452,0.452,0,0,1,.352-0.633,12.62,12.62,0,0,0,6.187-4.43,24.356,24.356,0,0,0,4.078-9.07,54.761,54.761,0,0,0,1.477-13.5q0-13.29-4.114-20.145T922.2,443.258q-7.032,0-11.145,6.855t-4.113,20.145q0,11.671,3.2,18.6t8.825,8.473a0.868,0.868,0,0,1,.632.633,20.074,20.074,0,0,0,5.2,8.789,11.865,11.865,0,0,0,8.437,3.234,13.024,13.024,0,0,0,3.023-.351,1.92,1.92,0,0,0,1.407-1.125,2.522,2.522,0,0,0,.281-1.125,4.838,4.838,0,0,0-.07-0.774,2.292,2.292,0,0,0-1.09-1.3,3.1,3.1,0,0,0-1.793-.387,10.486,10.486,0,0,1-1.266.07h0Zm25.06-55.547a0.468,0.468,0,0,1,.492-0.562h3.586q5.484,0,8.191,2.25t2.707,7.453q0,10.547-10.9,10.547h-3.586a0.468,0.468,0,0,1-.492-0.563V449.445Zm11.6,24.117a0.4,0.4,0,0,1,.281-0.632,13.09,13.09,0,0,0,6.61-5.168,16.338,16.338,0,0,0,2.39-9.176q0-14.624-15.82-14.625h-6.891a3.958,3.958,0,0,0-2.953,1.23,4.046,4.046,0,0,0-1.2,2.918v45.7a2.833,2.833,0,0,0,.879,2.075,2.971,2.971,0,0,0,4.219,0,2.841,2.841,0,0,0,.879-2.075V474.547a0.469,0.469,0,0,1,.492-0.563h4.57a0.773,0.773,0,0,1,.774.493l8.507,19.406a4.494,4.494,0,0,0,1.793,2.109,4.855,4.855,0,0,0,2.637.774,1.92,1.92,0,0,0,1.723-.95,1.978,1.978,0,0,0,.175-1.933Zm48.828,20.075a13.66,13.66,0,0,0,3.93-10.02,15.929,15.929,0,0,0-1.26-6.5,13.993,13.993,0,0,0-2.99-4.5,29.862,29.862,0,0,0-4.46-3.41l-5.28-3.375a22.669,22.669,0,0,1-5.52-4.711,8.808,8.808,0,0,1-1.58-5.414,7.138,7.138,0,0,1,2.08-5.344,7.06,7.06,0,0,1,5.16-2.039,11.024,11.024,0,0,1,7.53,3.305,2.432,2.432,0,0,0,1.79.668,2.122,2.122,0,0,0,1.65-.809,2.662,2.662,0,0,0,.7-1.863,2.521,2.521,0,0,0-.77-1.863,15.54,15.54,0,0,0-10.9-4.641,13,13,0,0,0-9.559,3.692,12.56,12.56,0,0,0-3.727,9.316,13.64,13.64,0,0,0,2.18,7.98,22.245,22.245,0,0,0,6.326,5.8l5.42,3.446a18.81,18.81,0,0,1,5.34,4.675,10.365,10.365,0,0,1,1.83,6.293,7.923,7.923,0,0,1-2.29,5.871,8.124,8.124,0,0,1-6.01,2.286q-4.785,0-9.069-4.5a2.561,2.561,0,0,0-1.864-.879,2.423,2.423,0,0,0-1.863.738,3.107,3.107,0,0,0-.844,2.18,2.574,2.574,0,0,0,.774,1.9,17.458,17.458,0,0,0,12.866,5.695A14.017,14.017,0,0,0,1019.22,493.637Zm35.6,0.175V449.656a0.5,0.5,0,0,1,.57-0.562h9.7a2.525,2.525,0,0,0,2.53-2.532,2.572,2.572,0,0,0-.74-1.828,2.383,2.383,0,0,0-1.79-.773h-26.58a2.383,2.383,0,0,0-1.79.773,2.572,2.572,0,0,0-.74,1.828,2.525,2.525,0,0,0,2.53,2.532h9.84a0.473,0.473,0,0,1,.5.562v44.156a2.822,2.822,0,0,0,.88,2.075,2.96,2.96,0,0,0,4.21,0,2.822,2.822,0,0,0,.88-2.075h0Zm45.49,2.918a11.932,11.932,0,0,0,7.38-8.085,26.443,26.443,0,0,0,1.09-8.051v-33.75a2.88,2.88,0,1,0-5.76,0v33.82q0,6.26-2.18,9.035a7.049,7.049,0,0,1-5.84,2.778,6.558,6.558,0,0,1-5.48-2.778q-2.115-2.776-2.11-9.035v-33.68a3,3,0,0,0-.85-2.144,2.791,2.791,0,0,0-2.11-.879,3,3,0,0,0-3.02,3.023v33.61q0,9.071,3.69,13.043a12.829,12.829,0,0,0,9.88,3.972A15.1,15.1,0,0,0,1100.31,496.73Zm42.46-3.621,10.62-46.195a2.7,2.7,0,0,0,.07-0.562,2.358,2.358,0,0,0-.56-1.477,2.207,2.207,0,0,0-1.83-.914,3.6,3.6,0,0,0-2.36.844,3.379,3.379,0,0,0-1.23,2.109l-5.41,26.227q-3.165,15.75-3.59,17.578a0.23,0.23,0,0,1-.21.14,0.125,0.125,0,0,1-.14-0.14q-0.84-3.656-2.07-9.914c-0.83-4.172-1.33-6.726-1.52-7.664l-5.34-26.086a3.825,3.825,0,0,0-1.34-2.215,3.627,3.627,0,0,0-2.39-.879,2.417,2.417,0,0,0-1.97.984,2.383,2.383,0,0,0-.49,1.477,2.684,2.684,0,0,0,.07.562l10.55,46.125a4.415,4.415,0,0,0,1.65,2.637,4.69,4.69,0,0,0,5.84,0,4.462,4.462,0,0,0,1.65-2.637h0Zm32.37,2.778a3.484,3.484,0,0,0,1.27-2.215l3.58-19.688q0.705-4.569,1.27-9.422a0.14,0.14,0,0,1,.28,0q0.78,6.471,1.27,9.422l3.58,19.618a3.619,3.619,0,0,0,1.3,2.25,3.788,3.788,0,0,0,2.5.914,3.5,3.5,0,0,0,2.42-.914,3.452,3.452,0,0,0,1.16-2.321l4.65-47.109a2.056,2.056,0,0,0-.53-1.723,2.151,2.151,0,0,0-1.65-.738,2.614,2.614,0,0,0-1.83.7,2.519,2.519,0,0,0-.85,1.758l-2.67,31.43q-0.705,9.069-.84,12.375a0.125,0.125,0,0,1-.14.14,0.211,0.211,0,0,1-.21-0.14q-1.98-12.163-2.04-12.375l-3.38-18a2.653,2.653,0,0,0-.95-1.582,2.673,2.673,0,0,0-3.37,0,2.7,2.7,0,0,0-.95,1.582l-3.45,18q-0.06.21-2.04,12.375a0.211,0.211,0,0,1-.21.14,0.125,0.125,0,0,1-.14-0.14q-0.63-9.139-.91-12.375l-2.74-31.219a2.714,2.714,0,0,0-.92-1.9,2.823,2.823,0,0,0-1.97-.773,2.211,2.211,0,0,0-1.75.809,2.515,2.515,0,0,0-.64,1.863l4.93,46.969a3.568,3.568,0,0,0,3.51,3.164A3.714,3.714,0,0,0,1175.14,495.887Zm39.72,0.105a4.318,4.318,0,0,0,1.58-2.039l4.43-11.32q0.42-1.266,1.59-4.395t1.65-4.676a0.213,0.213,0,0,1,.21-0.14,0.231,0.231,0,0,1,.21.14q0.765,1.9,3.23,9.071l4.43,11.179a4.781,4.781,0,0,0,1.76,2.145,4.547,4.547,0,0,0,2.6.809,2.04,2.04,0,0,0,1.83-.985,1.846,1.846,0,0,0,.35-1.125,1.883,1.883,0,0,0-.21-0.844l-9.98-23.343a1.208,1.208,0,0,1,0-.985l9.49-22.781a2.053,2.053,0,0,0-.21-1.863,1.821,1.821,0,0,0-1.62-.879,4.069,4.069,0,0,0-2.42.773,4.416,4.416,0,0,0-1.59,2.039l-4.14,10.618c-0.29.8-.77,2.1-1.45,3.9s-1.18,3.2-1.51,4.184a0.228,0.228,0,0,1-.42,0q-2.04-5.133-3.09-8.086l-4.08-10.477a4.905,4.905,0,0,0-1.72-2.144,4.41,4.41,0,0,0-2.57-.809,2,2,0,0,0-1.76.949,1.812,1.812,0,0,0-.14,1.934l9.28,21.867a1.205,1.205,0,0,1,0,.984l-10.05,24.328a1.957,1.957,0,0,0-.14.774,1.74,1.74,0,0,0,.35,1.055,1.784,1.784,0,0,0,1.62.914A4.2,4.2,0,0,0,1214.86,495.992Zm55.96-2.25v-15.4a2.5,2.5,0,0,1,.21-0.985l11.75-30.515a2.578,2.578,0,0,0,.14-0.774,2.255,2.255,0,0,0-.35-1.195,2.035,2.035,0,0,0-1.76-.914,4.3,4.3,0,0,0-4.01,2.883l-4.64,13.148q-0.705,2.251-2.15,6.328c-0.96,2.719-1.62,4.641-2,5.766a0.227,0.227,0,0,1-.42,0q-0.78-2.672-3.94-12.024l-4.71-13.148a4.036,4.036,0,0,0-1.58-2.144,4.289,4.289,0,0,0-2.5-.809,2,2,0,0,0-1.76.984,1.88,1.88,0,0,0-.42,1.125,2.14,2.14,0,0,0,.14.774l11.75,30.515a2.5,2.5,0,0,1,.21.985v15.4a3.02,3.02,0,1,0,6.04,0h0Zm52.27,3.024a2.5,2.5,0,0,0,0-4.993h-19.05a0.275,0.275,0,0,1-.28-0.14,0.282,0.282,0,0,1,0-.281l20.74-42.258a7.38,7.38,0,0,0,.77-3.375,1.688,1.688,0,0,0-.52-1.231,1.716,1.716,0,0,0-1.23-.527h-22.5a2.389,2.389,0,0,0-1.8.773,2.572,2.572,0,0,0-.74,1.828,2.525,2.525,0,0,0,2.54,2.532h16.73a0.275,0.275,0,0,1,.28.176,0.351,0.351,0,0,1,0,.316l-20.81,42.187a7.088,7.088,0,0,0-.77,3.235,1.65,1.65,0,0,0,.52,1.265,1.738,1.738,0,0,0,1.23.493h24.89Z"/>
  <path id="logo" class="cls-1" d="M706.266,1194.7a45.969,45.969,0,0,0-.118,5.15v5.16H677.555v-1.17l0.234-.94-1.406-.24c-1.1,0-2.659-.07-4.688-0.23h-3.281l-0.469,2.58a45.646,45.646,0,0,1-1.172,4.92,22.619,22.619,0,0,1-1.406,4.22,7.125,7.125,0,0,0-.82,2.23,6.584,6.584,0,0,0,2.109-.71c1.326-.54,2.615-1.13,3.867-1.76a11.566,11.566,0,0,0,3.516-2.81l1.641-1.64h66.8l1.875,1.88a14.477,14.477,0,0,0,3.75,2.81c1.406,0.62,2.655,1.17,3.75,1.64a1.036,1.036,0,1,0,1.171-1.17,17.1,17.1,0,0,1-1.406-3.99q-0.7-2.34-1.172-4.68a11.9,11.9,0,0,0-.7-3.05c0-.47-1.252-0.62-3.75-0.47-1.875.16-3.281,0.23-4.219,0.23a2.052,2.052,0,0,1-.937.24c-0.315,0-.469.31-0.469,0.94l0.235,0.93-13.594.24q-13.359,0-13.36-.24a2.838,2.838,0,0,1,.7-1.05,6.664,6.664,0,0,0,1.171-2.46,15.728,15.728,0,0,0,.469-4.22v-2.58h-4.687Q706.382,1194.46,706.266,1194.7Zm-31.289,28.12v4.22l21.093,0.23h21.094l-5.859,4.93q-5.4,4.215-8.2,6.56l-2.344,1.87v6.8H660.445v4.22h40.313v14.76c0,10.01-.158,15.47-0.469,16.41a13.152,13.152,0,0,1-1.172,3.05,21,21,0,0,1-2.578,3.04,16.962,16.962,0,0,1-3.75,2.82c-1.406.62-2.109,1.17-2.109,1.64s0.153,0.7.468,0.7a30.375,30.375,0,0,0,3.047-.47,34.353,34.353,0,0,0,4.922-1.4,16.4,16.4,0,0,0,4.688-1.88,11.74,11.74,0,0,0,3.515-2.34,12.264,12.264,0,0,0,2.344-2.58,13,13,0,0,0,1.172-2.58c0.311-.94.469-6.4,0.469-16.41v-14.76h38.2v-4.22h-38.2v-6.8l2.109-1.64q2.109-1.635,8.438-6.79,6.327-5.4,8.437-7.04a13.637,13.637,0,0,0,2.578-2.34q0-.225-28.828-0.23t-29.062.23h0Zm121.64-30.23-0.469,1.87a27.635,27.635,0,0,1-1.523,5.74c-0.861,2.43-1.681,4.65-2.461,6.68q-1.176,2.58-3.281,6.8-1.88,3.75-4.453,8.44-2.11,3.75-4.688,7.73-2.582,4.215-3.047,4.92a7.818,7.818,0,0,0-1.406,2.11c-0.157.47-.117,0.71,0.117,0.71a8.252,8.252,0,0,0,2.227-1.18q1.873-1.17,3.515-2.34,1.874-1.41,3.985-3.28a59.714,59.714,0,0,0,4.453-4.45l2.109-2.35,0.235,14.77,0.234,14.76h1.875a5.862,5.862,0,0,0,3.047-.7,5.457,5.457,0,0,0,1.875-1.17,11.374,11.374,0,0,0,1.406-1.64l0.469-.71h27.187v2.11l0.235,2.11h1.64a7.437,7.437,0,0,0,2.813-.47,9.072,9.072,0,0,0,2.109-1.17,4.666,4.666,0,0,0,1.407-1.64l0.7-.94h31.64v-4.45H838.336v-6.8H868.57v-4.45H838.336v-6.8H868.57v-4.68H838.336v-7.5H868.57v-4.69H837.164l0.938-1.17a23.668,23.668,0,0,0,1.406-2.35,6.445,6.445,0,0,0,.7-2.57,17.74,17.74,0,0,0,.469-4.93v-3.51H828.727v14.53H815.6q-13.129,0-13.125-.23c0-.16-0.158-0.24-0.469-0.24s0.311-1.41,1.875-4.22a69.182,69.182,0,0,0,3.281-7.5,16.732,16.732,0,0,0,1.406-3.98l0.235-1.17H796.617Zm31.406,22.03v7.5H802.477v-7.5h25.546Zm0,12.18v6.8H802.477v-6.8h25.546Zm0,11.25v6.8H802.477v-6.8h25.546Zm-3.515,16.88v5.16l-22.969.23H778.805v4.45h45.7v1.64c0,1.1-.081,1.64-0.235,1.64a40.222,40.222,0,0,1-4.687-1.17q-4.455-1.17-4.922-1.4-0.236,0-6.328,4.68-6.1,4.935-7.734,6.1-1.643.93-4.454,2.58a58.967,58.967,0,0,1-5.39,2.57q-2.812,1.185-5.391,2.23a35.226,35.226,0,0,1-5.859,1.76,17.416,17.416,0,0,0-3.047,1.05,6.06,6.06,0,0,0,1.289,1.06,3.994,3.994,0,0,0,1.992.94c0.469,0,2.344-.32,5.625-0.94s6.328-1.33,9.141-2.11q4.449-1.17,8.2-2.35a22.822,22.822,0,0,0,4.922-2.1q1.637-.945,9.14-6.1t7.618-5.04q0.115,0.12.117,13.48v13.12h1.406a7.357,7.357,0,0,0,2.813-.7,6.692,6.692,0,0,0,3.046-1.99,11.184,11.184,0,0,0,2.11-3.17,8.733,8.733,0,0,0,.586-2.34q0.115-1.17.117-6.33c0.154-4.68.271-7.11,0.352-7.26s1.442,0.55,4.1,2.11q3.982,2.1,6.8,3.51a34.945,34.945,0,0,0,6.328,2.58,54.282,54.282,0,0,0,6.328,1.64,52.974,52.974,0,0,0,5.625.94c1.718,0.16,4.219.23,7.5,0.23a38.521,38.521,0,0,0,5.86-.23,1.37,1.37,0,0,0,1.171-.94l0.235-1.17c0-.15-0.235-0.24-0.7-0.24-0.315,0-1.722-.23-4.219-0.7s-5-1.01-7.5-1.64q-3.516-.93-6.8-2.11-2.812-.93-5.625-2.11-2.346-1.17-10.078-6.33l-7.734-5.15,19.453-.24h19.453v-4.45H854.977l-20.157-.23v-2.58l-0.234-2.58H824.508Z"/>
</svg>
