<?xml version="1.0" encoding="UTF-8"?>
<svg width="900px" height="140px" viewBox="0 0 900 140" version="1.1" xmlns="http://www.w3.org/2000/svg" xmlns:xlink="http://www.w3.org/1999/xlink">
    <!-- Generator: Sketch 59.1 (86144) - https://sketch.com -->
    <title>preview</title>
    <desc>Created with Sketch.</desc>
    <g id="preview" stroke="none" stroke-width="1" fill="none" fill-rule="evenodd">
        <path d="M271.582031,91.4140625 C270.371088,91.2578117 269.199224,90.984377 268.066406,90.59375 C266.933588,90.203123 265.898442,89.5781293 264.960938,88.71875 C263.945307,87.7031199 263.300783,86.5117256 263.027344,85.1445312 C262.753905,83.7773369 262.578125,82.371101 262.5,80.9257812 C262.734376,78.1913926 263.457025,75.4179828 264.667969,72.6054688 C265.878912,69.7929547 267.304679,67.3320418 268.945312,65.2226562 C267.695306,64.363277 266.406257,63.6015658 265.078125,62.9375 C263.749993,62.2734342 262.539068,61.3554746 261.445312,60.1835938 C260.507808,59.1679637 259.687504,58.0937557 258.984375,56.9609375 C258.281246,55.8281193 257.929688,54.5586008 257.929688,53.1523438 C258.242189,51.6679613 259.023431,50.3593807 260.273438,49.2265625 C262.148447,47.6640547 264.296863,46.6093777 266.71875,46.0625 C269.140637,45.5156223 271.660143,45.2812496 274.277344,45.359375 C276.230479,45.4375004 277.949211,46.023432 279.433594,47.1171875 C279.902346,47.7421906 280.058595,48.4843707 279.902344,49.34375 C279.667968,49.9296904 279.277346,50.3398426 278.730469,50.5742188 L277.792969,50.5742188 C277.167966,50.1835918 276.660158,49.6953154 276.269531,49.109375 C274.472647,48.718748 272.558604,48.6015617 270.527344,48.7578125 C268.925773,48.9921887 267.402351,49.3730442 265.957031,49.9003906 C264.643104,50.3797964 263.442185,51.0932455 262.354243,52.0407562 L262.03125,52.3320312 C261.484372,52.8007836 261.25,53.3867152 261.328125,54.0898438 C262.26563,56.2773547 263.671866,57.9570254 265.546875,59.1289062 C267.421884,60.3007871 269.277335,61.5117125 271.113281,62.7617188 L271.464844,62.7617188 C272.871101,61.4335871 274.316399,60.1640686 275.800781,58.953125 C277.285164,57.7421814 278.808586,56.6289113 280.371094,55.6132812 L281.308594,55.6132812 C281.933597,55.8476574 282.36328,56.2773406 282.597656,56.9023438 L282.597656,57.8398438 C281.535151,58.7773484 280.422659,59.6898421 279.260158,60.5773422 L278.378906,61.2382812 C276.894524,62.3320367 275.449226,63.5429621 274.042969,64.8710938 L274.042969,65.2226562 C275.449226,66.1601609 276.601558,67.2734311 277.5,68.5625 C278.398442,69.8515689 279.238277,71.1601496 280.019531,72.4882812 C280.72266,73.8164129 281.171874,75.4960836 281.367188,77.5273438 C281.562501,79.5586039 281.621094,81.4140541 281.542969,83.09375 C281.308593,84.2656309 280.976565,85.4179631 280.546875,86.5507812 C280.117185,87.6835994 279.433598,88.7187453 278.496094,89.65625 C277.558589,90.4375039 276.484381,90.9257803 275.273438,91.1210938 C274.062494,91.3164072 272.832038,91.4140625 271.582031,91.4140625 Z M276.152344,87.1953125 C277.089848,86.101557 277.695311,84.8515695 277.96875,83.4453125 C278.242189,82.0390555 278.300782,80.5351643 278.144531,78.9335938 C277.753904,77.3710859 277.167973,75.6718842 276.386719,73.8359375 C275.605465,71.9999908 274.667974,70.4570375 273.574219,69.2070312 C272.949216,68.5820281 272.246098,68.1132828 271.464844,67.8007812 C269.941399,69.6757906 268.67188,71.9023309 267.65625,74.4804688 C266.64062,77.0586066 266.054688,79.5781127 265.898438,82.0390625 C265.898438,83.7578211 266.445307,85.2421813 267.539062,86.4921875 C268.476567,87.0390652 269.462885,87.4492174 270.498047,87.7226562 C271.533208,87.9960951 272.636713,88.0937504 273.808594,88.015625 L276.152344,87.1953125 Z M292.851562,93.171875 L291.5625,92.46875 C291.249998,92.078123 291.132812,91.5703156 291.210938,90.9453125 L291.679688,90.125 C294.492202,88.4062414 297.373032,86.7461018 300.322266,85.1445312 C303.271499,83.5429607 305.566398,81.1992342 307.207031,78.1132812 L307.441406,75.4179688 C306.660152,74.4804641 305.722662,73.738284 304.628906,73.1914062 C302.285145,72.332027 299.814466,71.7265643 297.216797,71.375 C294.619128,71.0234357 292.304698,69.9882898 290.273438,68.2695312 C289.335933,67.1757758 288.90625,65.8867262 288.984375,64.4023438 C289.375002,60.9648266 290.07812,57.5761886 291.09375,54.2363281 C292.10938,50.8964677 293.59374,47.7422023 295.546875,44.7734375 C296.093753,44.3046852 296.757809,44.1093746 297.539062,44.1875 C298.08594,44.4218762 298.476561,44.8124973 298.710938,45.359375 L298.710938,46.4140625 L298.242188,47.3515625 L298.59375,47.3515625 C300.664073,47.0390609 302.714834,46.7851572 304.746094,46.5898438 C306.777354,46.3945303 308.886708,46.296875 311.074219,46.296875 C311.621096,46.5312512 312.011718,46.9218723 312.246094,47.46875 L312.246094,48.40625 C312.011718,48.9531277 311.621096,49.3437488 311.074219,49.578125 C308.496081,49.6562504 305.947278,49.8417954 303.427734,50.1347656 C300.908191,50.4277358 298.39845,50.7304672 295.898438,51.0429688 C295.039058,53.2304797 294.277347,55.496082 293.613281,57.8398438 C292.949215,60.1836055 292.539063,62.6054563 292.382812,65.1054688 L293.085938,66.2773438 C295.820326,67.52735 298.720688,68.3671854 301.787109,68.796875 C304.853531,69.2265646 307.558582,70.6132695 309.902344,72.9570312 C310.761723,74.2851629 311.07422,75.8476473 310.839844,77.6445312 C310.527342,79.1289137 309.960942,80.486322 309.140625,81.7167969 C308.320308,82.9472718 307.324225,84.1093695 306.152344,85.203125 C304.121084,86.8437582 301.962902,88.2890563 299.677734,89.5390625 C297.392567,90.7890687 295.117199,91.9999941 292.851562,93.171875 Z M329.179688,90.9453125 C328.63281,90.7109363 328.242189,90.3203152 328.007812,89.7734375 L327.890625,87.546875 C328.066407,84.4120937 328.220215,81.2773477 328.352051,78.142584 L328.476562,75.0078125 C328.632813,70.8281041 328.828124,66.6679895 329.0625,62.5273438 L329.0625,54.7929688 L329.296875,52.4492188 L329.0625,52.4492188 C327.890619,53.9336012 326.445321,54.7148434 324.726562,54.7929688 C324.179685,54.5585926 323.789064,54.1679715 323.554688,53.6210938 L323.554688,52.5664062 C323.867189,51.824215 324.374996,51.2968766 325.078125,50.984375 C325.937504,50.5156227 326.77734,49.929691 327.597656,49.2265625 C328.417973,48.523434 329.238277,47.8593781 330.058594,47.234375 C330.29297,46.6874973 330.683591,46.2968762 331.230469,46.0625 L332.285156,46.0625 C332.910159,46.2968762 333.339843,46.7265594 333.574219,47.3515625 L333.574219,48.2890625 C333.183592,49.2265672 332.929688,50.2714786 332.8125,51.4238281 C332.695312,52.5761776 332.597657,53.6992133 332.519531,54.7929688 L332.519531,62.5273438 C332.20703,67.2148672 331.992188,71.9316169 331.875,76.6777344 C331.757812,81.4238519 331.386722,86.0624773 330.761719,90.59375 C330.371092,90.9062516 329.843753,91.0234379 329.179688,90.9453125 Z M372.832031,95.6328125 L372.011719,95.1640625 C371.621092,94.6953102 371.464843,94.1093785 371.542969,93.40625 C372.949226,90.0468582 373.94531,87.0097792 374.53125,84.2949219 C375.11719,81.5800646 375.449218,78.347675 375.527344,74.5976562 L370.136719,74.5976562 C367.011703,74.9101578 363.876969,75.32031 360.732422,75.828125 C357.587875,76.33594 354.492203,76.9414027 351.445312,77.6445312 C350.898435,77.4101551 350.507814,77.019534 350.273438,76.4726562 L350.273438,75.4179688 L350.742188,74.5976562 C353.867203,73.738277 357.060531,73.035159 360.322266,72.4882812 C363.584001,71.9414035 366.855452,71.5117203 370.136719,71.1992188 L375.644531,71.1992188 L375.644531,68.1523438 L375.292969,63.4648438 L373.535156,63.4648438 C371.777335,63.6601572 369.978846,63.8012153 368.139652,63.8880208 L367.03125,63.9335938 C364.804676,64.0117191 362.636729,64.2070297 360.527344,64.5195312 L359.179688,63.8164062 C358.867186,63.3476539 358.75,62.8007844 358.828125,62.1757812 C359.179689,61.5507781 359.667966,61.1210949 360.292969,60.8867188 L361.230469,60.8867188 L361.816406,61.0039062 C364.003917,60.6914047 366.191395,60.4960941 368.378906,60.4179688 C370.566417,60.3398434 372.753895,60.222657 374.941406,60.0664062 L374.941406,59.2460938 C374.70703,57.8398367 374.492188,56.4433663 374.296875,55.0566406 C374.101562,53.6699149 373.691409,52.3515687 373.066406,51.1015625 C371.269522,50.8671863 369.472665,50.6718758 367.675781,50.515625 C365.878897,50.3593742 364.199227,49.929691 362.636719,49.2265625 C362.324217,48.8359355 362.207031,48.3281281 362.285156,47.703125 C362.519532,47.1562473 362.910154,46.7656262 363.457031,46.53125 L364.511719,46.53125 C368.183612,47.0781277 371.894513,47.5664041 375.644531,47.9960938 C379.39455,48.4257834 383.027326,49.1484324 386.542969,50.1640625 C386.85547,50.5546895 386.972657,51.0624969 386.894531,51.6875 C386.660155,52.2343777 386.269534,52.6249988 385.722656,52.859375 L384.550781,52.859375 C383.574214,52.598957 382.556969,52.3927952 381.499025,52.2408856 L380.859375,52.15625 C379.570306,51.9999992 378.300788,51.8046887 377.050781,51.5703125 L377.050781,51.8046875 C377.363283,53.1328191 377.636718,54.4706964 377.871094,55.8183594 C378.10547,57.1660224 378.261718,58.5429617 378.339844,59.9492188 L386.777344,59.9492188 L387.949219,60.7695312 C388.26172,61.1601582 388.378907,61.6679656 388.300781,62.2929688 C388.066405,62.8398465 387.675784,63.2304676 387.128906,63.4648438 L386.191406,63.4648438 L386.074219,63.3476562 L378.691406,63.3476562 L378.691406,63.8164062 L379.042969,71.1992188 L392.34375,72.1367188 L397.96875,72.6054688 L399.023438,73.3085938 C399.335939,73.6992207 399.453125,74.2070281 399.375,74.8320312 C399.140624,75.378909 398.750003,75.7695301 398.203125,76.0039062 L392.34375,75.5351562 L379.160156,74.5976562 C378.847655,78.5820512 378.39844,82.1269376 377.8125,85.2324219 C377.22656,88.3379062 376.074227,91.687482 374.355469,95.28125 C373.964842,95.5937516 373.457034,95.7109379 372.832031,95.6328125 Z M438.691406,98.09375 C438.144529,97.8593738 437.753907,97.4687527 437.519531,96.921875 L437.402344,94.578125 L438.222656,86.375 L436.816406,86.375 C433.334246,86.7098231 429.859305,87.1450873 426.391507,87.6808026 L424.658203,87.9570312 C420.615214,88.6210971 416.56252,89.1874977 412.5,89.65625 L411.210938,88.953125 C410.898436,88.562498 410.78125,88.0546906 410.859375,87.4296875 L411.328125,86.609375 L425.068359,84.4707031 L425.068359,84.4707031 C429.697289,83.7480433 434.316383,83.1914082 438.925781,82.8007812 C439.160157,81.160148 439.472654,79.5195395 439.863281,77.8789062 L439.628906,77.8789062 C438.222649,78.1132824 436.835937,78.3867172 435.46875,78.6992188 C434.101556,79.0117203 432.636727,79.1289066 431.074219,79.0507812 C429.980463,78.9726559 428.945317,78.7578143 427.96875,78.40625 C426.992183,78.0546857 426.113285,77.4101609 425.332031,76.4726562 C424.785154,75.6914023 424.414063,74.7929738 424.21875,73.7773438 C424.023437,72.7617137 423.925781,71.7460988 423.925781,70.7304688 C424.082032,68.386707 424.511715,66.1211047 425.214844,63.9335938 C425.917972,61.7460828 426.972649,59.7148531 428.378906,57.8398438 C428.925784,57.2148406 429.628902,56.980468 430.488281,57.1367188 C431.035159,57.3710949 431.42578,57.761716 431.660156,58.3085938 L431.660156,59.3632812 L430.957031,60.3007812 L430.722656,60.3007812 C429.785152,61.7070383 429.121096,63.1913984 428.730469,64.7539062 L429.316406,64.7539062 C431.582043,64.1289031 433.906238,63.6601578 436.289062,63.3476562 C438.671887,63.0351547 441.113269,62.9179684 443.613281,62.9960938 C444.238284,63.2304699 444.667968,63.6601531 444.902344,64.2851562 L444.902344,65.2226562 C444.667968,65.769534 444.277346,66.1601551 443.730469,66.3945312 C440.917955,66.2382805 438.183607,66.3945289 435.527344,66.8632812 C432.87108,67.3320336 430.214857,67.8789031 427.558594,68.5039062 L427.324219,72.2539062 C427.402344,73.2695363 427.792965,74.1289027 428.496094,74.8320312 C430.058602,75.5351598 431.777334,75.8085945 433.652344,75.6523438 C434.90235,75.4648428 436.127342,75.2398445 437.327342,74.9773443 L438.222656,74.7734375 C439.707039,74.4218732 441.230461,74.1679695 442.792969,74.0117188 C443.339846,74.2460949 443.730468,74.636716 443.964844,75.1835938 L443.964844,76.4726562 C443.574217,77.4882863 443.26172,78.5234322 443.027344,79.578125 L442.558594,81.6614572 C442.480469,82.0043386 442.402344,82.3450504 442.324219,82.6835938 L448.417969,82.6835938 C450.722668,82.9179699 452.98827,83.2695289 455.214844,83.7382812 C457.441417,84.2070336 459.492178,85.0859311 461.367188,86.375 C461.679689,86.8437523 461.796875,87.3906219 461.71875,88.015625 C461.484374,88.5625027 461.093753,88.9531238 460.546875,89.1875 L459.609375,89.3046875 C457.968742,88.210932 456.191416,87.468752 454.277344,87.078125 C452.363272,86.687498 450.410166,86.3750012 448.417969,86.140625 L441.738281,86.140625 C441.503905,88.0937598 441.308595,90.0468652 441.152344,92 C440.996093,93.9531348 440.683596,95.8671781 440.214844,97.7421875 C439.824217,98.0546891 439.316409,98.1718754 438.691406,98.09375 Z M412.382812,64.2851562 C411.835935,64.0507801 411.445314,63.660159 411.210938,63.1132812 L411.09375,61.5898438 C411.484377,58.7773297 412.265619,56.0918097 413.4375,53.5332031 C414.609381,50.9745966 415.976555,48.5234492 417.539062,46.1796875 C418.007815,45.7890605 418.59375,45.6328121 419.296875,45.7109375 C419.882815,45.9453137 420.292968,46.3359348 420.527344,46.8828125 L420.527344,47.9375 C418.847648,50.3593871 417.441412,52.9277208 416.308594,55.6425781 C415.175776,58.3574354 414.375002,61.1210797 413.90625,63.9335938 C413.515623,64.2460953 413.007816,64.3632816 412.382812,64.2851562 Z M451.054688,59.0117188 C450.50781,58.7773426 450.097658,58.3867215 449.824219,57.8398438 L449.824219,56.9023438 C450.332034,56.0429645 451.015621,55.4375018 451.875,55.0859375 L455.390625,53.4453125 L455.390625,53.2109375 C454.218744,52.4296836 452.93946,51.9218762 451.552734,51.6875 C450.166009,51.4531238 448.769538,51.2187512 447.363281,50.984375 L439.277344,50.984375 C435.996077,51.2187512 432.753922,51.6289033 429.550781,52.2148438 C426.34764,52.8007842 423.125016,53.4843711 419.882812,54.265625 C419.335935,54.0312488 418.945314,53.6406277 418.710938,53.09375 L418.710938,52.15625 L419.648438,50.984375 C422.812516,50.1249957 426.03514,49.4218777 429.316406,48.875 C432.597673,48.3281223 435.917952,47.8984391 439.277344,47.5859375 L447.363281,47.5859375 C449.433604,47.8984391 451.445303,48.230467 453.398438,48.5820312 C455.351572,48.9335955 457.070305,49.9296793 458.554688,51.5703125 C459.02344,52.3515664 459.179688,53.2499949 459.023438,54.265625 C458.398434,55.3203178 457.57813,56.1406221 456.5625,56.7265625 C455.54687,57.3125029 454.531255,57.8398414 453.515625,58.3085938 C452.812496,58.8554715 451.992192,59.0898441 451.054688,59.0117188 Z M493.652344,98.09375 C493.417968,98.0156246 493.183595,97.8593762 492.949219,97.625 C492.714843,97.3906238 492.558594,97.1562512 492.480469,96.921875 L492.480469,95.515625 L492.714844,94.34375 L492.714844,93.171875 L493.066406,91.53125 L493.066406,90.0078125 L493.183594,89.890625 L493.183594,88.25 L493.300781,88.1328125 L493.300781,86.2578125 L493.417969,86.140625 L493.417969,84.2070312 L493.535156,84.0898438 L493.535156,79.6367188 L493.183594,79.6367188 C491.933588,80.8085996 490.703131,81.9804629 489.492188,83.1523438 C488.281244,84.3242246 487.050788,85.5253845 485.800781,86.7558594 C484.550775,87.9863343 483.33985,89.2070252 482.167969,90.4179688 C480.996088,91.6289123 479.843756,92.8593688 478.710938,94.109375 L477.773438,94.109375 C477.539061,94.0312496 477.304689,93.8750012 477.070312,93.640625 C476.835936,93.4062488 476.679688,93.1718762 476.601562,92.9375 L476.601562,92 C477.460942,90.593743 478.505853,89.2656312 479.736328,88.015625 L483.398438,84.2949219 L483.398438,84.2949219 C484.306645,83.3720657 485.225829,82.4656992 486.156004,81.5758073 L487.089844,80.6914062 C488.33985,79.5195254 489.550775,78.3086 490.722656,77.0585938 L489.316406,77.0585938 C488.378902,77.2148445 487.460942,77.3515619 486.5625,77.46875 L483.867188,77.8203125 L483.867188,77.8203125 C482.968746,77.9375006 482.060551,78.074218 481.142578,78.2304688 C480.224605,78.3867195 479.335942,78.5820301 478.476562,78.8164062 L477.304688,78.8164062 L476.015625,78.1132812 C475.859374,77.8789051 475.761719,77.6445324 475.722656,77.4101562 C475.683594,77.1757801 475.664062,76.9023453 475.664062,76.5898438 C475.742188,76.3554676 475.898436,76.1210949 476.132812,75.8867188 C476.367189,75.6523426 476.601561,75.4960941 476.835938,75.4179688 L478.242188,75.4179688 C479.179692,75.1835926 480.16601,74.988282 481.201172,74.8320312 C481.891279,74.7278641 482.58572,74.6323784 483.284504,74.545573 L484.335938,74.421875 C485.126957,74.3339839 485.906982,74.2241214 486.676024,74.0922855 L487.441406,73.953125 C488.457036,73.7578115 489.472651,73.6210941 490.488281,73.5429688 L492.949219,73.5429688 L493.535156,73.1914062 L493.652344,73.0742188 L493.652344,64.2851562 C493.730469,64.0507801 493.886718,63.8164074 494.121094,63.5820312 C494.35547,63.3476551 494.589843,63.1914066 494.824219,63.1132812 L495.878906,63.1132812 C496.113282,63.1914066 496.347655,63.3476551 496.582031,63.5820312 C496.816407,63.8164074 496.972656,64.0507801 497.050781,64.2851562 L497.050781,72.9570312 L497.402344,73.3085938 L505.253906,73.3085938 L505.371094,73.4257812 L507.363281,73.4257812 L507.480469,73.5429688 L510.585938,73.5429688 C510.960939,73.6679694 511.348437,73.7554689 511.748437,73.8054688 L512.050781,73.8359375 C512.558596,73.8750002 513.066404,73.9531244 513.574219,74.0703125 C514.082034,74.1875006 514.531248,74.4414043 514.921875,74.8320312 C515.078126,75.0664074 515.175781,75.3007801 515.214844,75.5351562 C515.253906,75.7695324 515.273438,76.0429672 515.273438,76.3554688 C515.195312,76.5898449 515.039064,76.8242176 514.804688,77.0585938 C514.570311,77.2929699 514.335939,77.4492184 514.101562,77.5273438 L512.929688,77.5273438 L510.585938,76.9414062 L507.480469,76.9414062 L507.363281,76.8242188 L505.371094,76.8242188 L505.253906,76.7070312 L497.402344,76.7070312 L497.050781,77.0585938 L497.050781,79.5195312 L496.933594,79.6367188 L496.933594,84.0898438 L496.816406,84.2070312 L496.816406,86.140625 L496.699219,86.2578125 L496.699219,88.1328125 L496.582031,88.25 L496.582031,89.890625 L496.464844,90.0078125 L496.464844,91.53125 L496.113281,93.171875 L496.113281,94.34375 C496.061198,94.604168 496.017795,94.8645833 495.983073,95.1249996 L495.9375,95.515625 C495.898437,95.906252 495.839844,96.296873 495.761719,96.6875 C495.683593,97.078127 495.488283,97.4296859 495.175781,97.7421875 C494.941405,97.8984383 494.707032,97.9960936 494.472656,98.0351562 C494.23828,98.0742189 493.964845,98.09375 493.652344,98.09375 Z M512.34375,91.765625 C511.32812,90.9843711 510.263677,90.2617221 509.150391,89.5976562 C508.037104,88.9335904 506.914068,88.3085967 505.78125,87.7226562 C504.648432,87.1367158 503.515631,86.5410187 502.382812,85.9355469 C501.249994,85.3300751 500.214848,84.5976605 499.277344,83.7382812 L499.277344,82.8007812 C499.355469,82.5664051 499.511718,82.3320324 499.746094,82.0976562 C499.98047,81.8632801 500.214843,81.7070316 500.449219,81.6289062 L501.855469,81.6289062 C502.949224,82.3320348 504.042963,82.9570285 505.136719,83.5039062 L507.337238,84.6106764 C507.706161,84.7973081 508.07617,84.9850251 508.447266,85.1738281 C509.560552,85.7402372 510.624995,86.3945275 511.640625,87.1367188 C512.656255,87.87891 513.593746,88.7187453 514.453125,89.65625 L514.453125,90.59375 C514.375,90.8281262 514.218751,91.0624988 513.984375,91.296875 C513.749999,91.5312512 513.515626,91.6874996 513.28125,91.765625 L512.34375,91.765625 Z M518.085938,72.8398438 C517.617185,72.5273422 517.14844,72.2734385 516.679688,72.078125 C516.210935,71.8828115 515.703128,71.707032 515.15625,71.5507812 C514.609372,71.3945305 514.082034,71.2578131 513.574219,71.140625 C513.066404,71.0234369 512.539065,70.9257816 511.992188,70.8476562 L510.703125,70.8476562 L509.746874,70.6601561 C509.282813,70.5664063 508.839846,70.4726567 508.417969,70.3789062 C507.71484,70.2226555 506.992191,70.046876 506.25,69.8515625 C505.507809,69.656249 504.804691,69.3632832 504.140625,68.9726562 C503.476559,68.5820293 502.871096,68.113284 502.324219,67.5664062 C502.089843,67.2539047 501.914063,66.9023457 501.796875,66.5117188 C501.679687,66.1210918 501.601563,65.7304707 501.5625,65.3398438 C501.523437,64.9492168 501.503906,64.5585957 501.503906,64.1679688 C501.660157,63.3085895 501.992185,62.4882852 502.5,61.7070312 C502.906252,61.0820281 503.349999,60.4945321 503.831249,59.9445322 L504.199219,59.5390625 C504.824222,58.8749967 505.410154,58.1718787 505.957031,57.4296875 C506.503909,56.6874963 506.855468,55.867192 507.011719,54.96875 L504.199219,54.03125 C503.261714,53.7187484 502.304692,53.4843758 501.328125,53.328125 C500.351558,53.1718742 499.355474,53.0156258 498.339844,52.859375 C497.324214,52.7031242 496.308599,52.5859379 495.292969,52.5078125 L488.964844,52.5078125 C488.053381,53.7447979 487.209746,55.0021126 486.43392,56.279783 L485.976562,57.0488281 C485.302731,58.2060605 484.606935,59.3468005 483.889162,60.4710673 L483.164062,61.5898438 C482.187495,63.0742262 481.279301,64.6171795 480.439453,66.21875 C479.599605,67.8203205 478.593756,69.2851496 477.421875,70.6132812 L476.484375,70.6132812 C476.249999,70.5351559 476.015626,70.3789074 475.78125,70.1445312 C475.546874,69.9101551 475.390625,69.6757824 475.3125,69.4414062 L475.3125,68.2695312 C475.937503,66.9413996 476.640621,65.6328189 477.421875,64.34375 C478.203129,63.0546811 478.994137,61.7656314 479.794922,60.4765625 L481.383463,57.9114597 C481.646049,57.4861132 481.907551,57.0618511 482.167969,56.6386719 C482.949223,55.3691343 483.730465,54.0703191 484.511719,52.7421875 L484.277344,52.5078125 L480.058594,52.5078125 C479.628904,52.4296871 479.238283,52.3515629 478.886719,52.2734375 C478.535154,52.1953121 478.242189,52.0000016 478.007812,51.6875 C477.851562,51.4531238 477.753906,51.2187512 477.714844,50.984375 C477.675781,50.7499988 477.65625,50.4765641 477.65625,50.1640625 C477.734375,49.9296863 477.890624,49.6953137 478.125,49.4609375 C478.359376,49.2265613 478.593749,49.0703129 478.828125,48.9921875 L480.175781,48.9921875 L480.292969,49.109375 L486.855469,49.109375 C487.324221,48.6406227 487.753904,48.1328152 488.144531,47.5859375 C488.535158,47.0390598 488.94531,46.4921902 489.375,45.9453125 C489.80469,45.3984375 490.195311,44.8320342 490.546875,44.2460938 C490.898439,43.6601533 491.386716,43.2109391 492.011719,42.8984375 L492.949219,42.8984375 C493.183595,42.9765629 493.417968,43.1328113 493.652344,43.3671875 C493.88672,43.6015637 494.042968,43.8359363 494.121094,44.0703125 L494.121094,45.0078125 L491.542969,48.9921875 L491.660156,49.109375 L495.292969,49.109375 C496.542975,49.2656258 497.832025,49.4414053 499.160156,49.6367188 C500.488288,49.8320322 501.796869,50.0468738 503.085938,50.28125 C504.375006,50.5156262 505.624994,50.828123 506.835938,51.21875 C508.046881,51.609377 509.14062,52.3124949 510.117188,53.328125 L510.585938,54.1484375 L510.585938,55.9648438 C510.351561,56.824223 509.970706,57.6249963 509.443359,58.3671875 C508.916013,59.1093787 508.359378,59.8320277 507.773438,60.5351562 C507.187497,61.2382848 506.582034,61.9414027 505.957031,62.6445312 C505.332028,63.3476598 504.980469,64.1679641 504.902344,65.1054688 C505.058595,65.4179703 505.273436,65.652343 505.546875,65.8085938 C505.820314,65.9648445 506.074218,66.121093 506.308594,66.2773438 C506.777346,66.5117199 507.246091,66.6679684 507.714844,66.7460938 C508.183596,66.8242191 508.671872,66.9218744 509.179688,67.0390625 C509.687503,67.1562506 510.19531,67.292968 510.703125,67.4492188 L511.992188,67.4492188 C512.46094,67.5533859 512.929688,67.6488716 513.398437,67.735677 L514.101562,67.859375 C514.804691,67.9765631 515.507809,68.1132805 516.210938,68.2695312 C516.914066,68.425782 517.597653,68.6406236 518.261719,68.9140625 C518.925785,69.1875014 519.531247,69.5976535 520.078125,70.1445312 C520.234376,70.3789074 520.332031,70.6132801 520.371094,70.8476562 C520.410156,71.0820324 520.429688,71.3554672 520.429688,71.6679688 C520.351562,71.9023449 520.195314,72.1367176 519.960938,72.3710938 C519.726561,72.6054699 519.492189,72.7617184 519.257812,72.8398438 L518.085938,72.8398438 Z M553.417969,96.5703125 L552.128906,95.8671875 L551.660156,94.578125 L552.363281,93.2890625 C553.300786,92.8984355 554.12109,92.3125039 554.824219,91.53125 C555.527347,90.7499961 556.269527,90.007816 557.050781,89.3046875 C557.675784,88.3671828 558.164061,87.1464919 558.515625,85.6425781 C558.867189,84.1386644 558.964845,82.761725 558.808594,81.5117188 L555.410156,81.5117188 C553.613272,81.8242203 551.855477,82.2734346 550.136719,82.859375 C548.41796,83.4453154 546.738289,84.0703092 545.097656,84.734375 C544.550779,84.4609361 544.160157,84.050784 543.925781,83.5039062 L543.925781,82.4492188 L544.394531,81.6289062 C546.347666,80.4570254 548.437489,79.597659 550.664062,79.0507812 C552.890636,78.5039035 555.214832,78.1914066 557.636719,78.1132812 L557.636719,77.8789062 L555.878906,76.0039062 L554.121094,75.8867188 L553.769531,76.0039062 L552.480469,75.3007812 C552.167967,74.9101543 552.050781,74.4023469 552.128906,73.7773438 C552.363282,73.230466 552.792966,72.8007828 553.417969,72.4882812 C554.433599,72.0976543 555.410152,71.5507848 556.347656,70.8476562 C557.285161,70.1445277 558.183589,69.3632855 559.042969,68.5039062 C559.433596,68.0351539 559.589844,67.4492223 559.511719,66.7460938 L559.277344,66.1601562 C557.636711,65.4570277 555.800791,65.2226551 553.769531,65.4570312 C551.738271,65.9257836 549.785166,66.5507773 547.910156,67.3320312 C546.035147,68.1132852 544.160166,68.9335895 542.285156,69.7929688 C541.738279,69.5585926 541.347657,69.1679715 541.113281,68.6210938 L540.996094,67.9179688 L541.816406,66.5117188 C544.238293,65.1054617 546.757799,63.9726605 549.375,63.1132812 C551.992201,62.253902 554.785141,61.902343 557.753906,62.0585938 C559.394539,62.2929699 560.800775,62.9960879 561.972656,64.1679688 C562.832036,65.2617242 563.144532,66.5898359 562.910156,68.1523438 C562.597655,69.6367262 561.77735,70.8867137 560.449219,71.9023438 L558.457031,73.4257812 L558.457031,73.7773438 C559.472661,74.636723 560.292966,75.6132758 560.917969,76.7070312 L561.503906,78.2304688 C562.597662,78.6210957 563.710932,79.0312479 564.84375,79.4609375 C565.976568,79.8906271 567.011714,80.4960898 567.949219,81.2773438 C568.886723,82.0585977 569.316407,83.0742125 569.238281,84.3242188 C569.003905,84.9101592 568.613284,85.3203113 568.066406,85.5546875 L567.011719,85.5546875 C566.464841,85.3203113 566.07422,84.9101592 565.839844,84.3242188 L565.488281,83.6210938 L562.207031,82.2148438 C562.363282,84.5195428 561.894537,86.8046762 560.800781,89.0703125 C559.707026,91.3359488 558.261728,93.2109301 556.464844,94.6953125 C555.605464,95.6328172 554.58985,96.2578109 553.417969,96.5703125 Z M532.851562,71.7851562 C532.304685,71.5507801 531.914064,71.160159 531.679688,70.6132812 L531.5625,69.2070312 C531.875002,65.7695141 532.695306,62.4687658 534.023438,59.3046875 C535.351569,56.1406092 536.835929,53.0156404 538.476562,49.9296875 C538.867189,49.6171859 539.394528,49.4999996 540.058594,49.578125 C540.605471,49.8125012 540.996093,50.2031223 541.230469,50.75 L541.230469,51.8046875 C539.707024,54.9687658 538.281257,58.1718588 536.953125,61.4140625 C535.624993,64.6562662 534.765627,67.9960766 534.375,71.4335938 C533.984373,71.7460953 533.476566,71.8632816 532.851562,71.7851562 Z M570.820312,61.1210938 C570.273435,60.8867176 569.863283,60.4960965 569.589844,59.9492188 L569.589844,59.0117188 C570.159043,58.2751079 570.799982,57.595904 571.512674,56.9740921 L571.875,56.6679688 C572.734379,55.9648402 573.476559,55.2031291 574.101562,54.3828125 C572.929682,53.9140602 571.679694,53.6015633 570.351562,53.4453125 L563.496094,53.4453125 C560.136702,53.8359395 556.835954,54.4121056 553.59375,55.1738281 C550.351546,55.9355507 547.128922,56.7070273 543.925781,57.4882812 L542.636719,56.7851562 C542.324217,56.3945293 542.207031,55.8867219 542.285156,55.2617188 C542.519532,54.6757783 542.910154,54.2656262 543.457031,54.03125 C546.738298,53.2499961 550.039046,52.507816 553.359375,51.8046875 C556.679704,51.101559 560.058577,50.5156273 563.496094,50.046875 L570.351562,50.046875 C571.601569,50.2031258 572.812494,50.4179674 573.984375,50.6914062 C575.156256,50.9648451 576.171871,51.5703078 577.03125,52.5078125 C577.656253,53.2890664 577.890626,54.2460881 577.734375,55.3789062 C577.031246,56.5507871 576.132818,57.585933 575.039062,58.484375 C573.945307,59.382817 572.851568,60.2617145 571.757812,61.1210938 L570.820312,61.1210938 Z M559.394531,48.7578125 C557.753898,47.9765586 556.074227,47.3320338 554.355469,46.8242188 C552.63671,46.3164037 550.878915,45.8281273 549.082031,45.359375 C548.76953,44.968748 548.652343,44.4609406 548.730469,43.8359375 C548.964845,43.2890598 549.355466,42.8984387 549.902344,42.6640625 L551.894531,42.6640625 C553.535164,43.0546895 555.136711,43.4843727 556.699219,43.953125 C558.261727,44.4218773 559.746087,45.1249953 561.152344,46.0625 C561.464845,46.453127 561.582032,46.9609344 561.503906,47.5859375 C561.26953,48.1328152 560.878909,48.5234363 560.332031,48.7578125 L559.394531,48.7578125 Z M624.199219,96.921875 C623.652341,96.6874988 623.26172,96.2968777 623.027344,95.75 L622.207031,87.546875 L620.683594,87.546875 L616.699219,88.0156247 C616.152341,87.7812488 615.76172,87.3906277 615.527344,86.84375 L615.527344,85.90625 L616.582031,84.6757812 L621.972656,84.0898438 L621.972656,82.2148438 L621.855469,79.7539062 L621.972656,79.6367188 L621.972656,72.6054688 L622.089844,68.8554688 L621.855469,68.8554688 C620.605463,70.8346453 619.355469,72.8224826 618.105471,74.819007 L616.230469,77.8203125 C614.355459,80.82814 612.480478,83.7968604 610.605469,86.7265625 L609.667969,86.7265625 C609.121091,86.4921863 608.73047,86.1015652 608.496094,85.5546875 L608.496094,84.3242188 C610.527354,80.4179492 612.734363,76.6289246 615.117188,72.9570312 C617.500012,69.2851379 619.902332,65.6914238 622.324219,62.1757812 L622.089844,62.1757812 C619.667957,62.4882828 617.246106,62.8593729 614.824219,63.2890625 C612.402332,63.7187521 610.019543,64.1289043 607.675781,64.5195312 L606.386719,63.8164062 C606.074217,63.4257793 605.957031,62.9179719 606.035156,62.2929688 L606.503906,61.4726562 C607.050784,60.9257785 607.71484,60.730468 608.496094,60.8867188 L609.082031,61.0039062 C611.269542,60.5351539 613.496082,60.1054707 615.761719,59.7148438 C618.027355,59.3242168 620.292957,59.0117199 622.558594,58.7773438 L622.910156,53.4453125 L622.910156,46.53125 L623.730469,44.890625 C624.121096,44.5781234 624.628903,44.4609371 625.253906,44.5390625 C625.800784,44.7734387 626.191405,45.1640598 626.425781,45.7109375 L626.425781,46.8828125 L626.308594,47 L626.308594,53.4453125 L625.957031,58.5429688 L626.191406,58.5429688 C627.363287,58.386718 628.564447,58.2695316 629.794922,58.1914062 L633.398438,57.9570312 L633.398438,57.9570312 L638.085938,57.9570312 C638.632815,58.1914074 639.023436,58.5820285 639.257812,59.1289062 L639.257812,60.0664062 C639.023436,60.613284 638.632815,61.0039051 638.085938,61.2382812 L633.433231,61.4140624 C632.907108,61.4335936 632.377932,61.4531249 631.845703,61.4726562 C629.716786,61.5507816 627.675791,61.7070301 625.722656,61.9414062 L625.371094,72.9570312 L625.605469,72.9570312 C625.76172,72.4101535 626.113279,72.0585945 626.660156,71.9023438 L627.714844,71.9023438 C629.501962,72.6640663 631.267088,73.4367665 633.010251,74.2204575 L634.746094,75.0078125 C637.050793,76.0625053 639.374988,77.0976512 641.71875,78.1132812 C642.031252,78.5039082 642.148438,79.0117156 642.070312,79.6367188 C641.835936,80.1835965 641.445315,80.5742176 640.898438,80.8085938 L639.726562,80.8085938 C637.382801,79.9492145 635.068371,78.9921928 632.783203,77.9375 C630.498035,76.8828072 628.222668,75.8476613 625.957031,74.8320312 L625.605469,74.1289062 L625.371094,74.1289062 L625.371094,79.6367188 L625.253906,82.0976562 L625.371094,83.7382812 L626.542969,83.7382812 L630.9375,83.6210938 C631.95313,83.6210938 632.812496,83.8945285 633.515625,84.4414062 C633.828127,84.8320332 633.945313,85.3593717 633.867188,86.0234375 C633.632811,86.5703152 633.24219,86.9609363 632.695312,87.1953125 L631.054688,87.1953125 L626.660156,87.078125 L625.488281,87.1953125 L625.488281,87.546875 C625.722657,88.8750066 625.917968,90.2226494 626.074219,91.5898438 C626.23047,92.9570381 626.308594,94.343743 626.308594,95.75 C626.074218,96.2968777 625.683596,96.6874988 625.136719,96.921875 L624.199219,96.921875 Z M598.007812,96.5703125 C597.460935,96.3359363 597.070314,95.9453152 596.835938,95.3984375 L595.429688,73.3085938 L595.429688,73.3085938 L595.195312,73.3085938 C594.179682,75.4961047 593.300785,77.761707 592.558594,80.1054688 C591.816403,82.4492305 591.250002,84.8515502 590.859375,87.3125 C590.468748,87.6250016 589.960941,87.7421879 589.335938,87.6640625 C588.78906,87.4296863 588.398439,87.0390652 588.164062,86.4921875 L588.046875,84.9101562 C589.531257,78.0351219 591.816391,71.4336254 594.902344,65.1054688 C597.988297,58.7773121 601.113265,52.4687814 604.277344,46.1796875 C604.746096,45.8671859 605.292966,45.7499996 605.917969,45.828125 C606.464846,46.0625012 606.855468,46.4531223 607.089844,47 L607.089844,47.9375 C605.683587,51.0848372 604.198426,54.1819112 602.63433,57.22879 L601.845703,58.7480469 C599.990225,62.2832208 598.32032,65.8867004 596.835938,69.5585938 C597.382815,69.5585938 597.851561,69.7929664 598.242188,70.2617188 C598.789065,74.4023645 599.179686,78.5722446 599.414062,82.7714844 C599.648439,86.9707241 599.902342,91.1796664 600.175781,95.3984375 C599.902342,95.9453152 599.49219,96.3359363 598.945312,96.5703125 L598.007812,96.5703125 Z" id="851手写杂字体" fill="#000000" fill-rule="nonzero"></path>
    </g>
</svg>