<svg xmlns="http://www.w3.org/2000/svg" width="900" height="140" viewBox="0 0 900 140">
  <defs>
    <style>
      .cls-1 {
        fill-rule: evenodd;
      }
    </style>
  </defs>
  <path id="cwTeX中仿宋體" class="cls-1" d="M218.619,72.749a3.8,3.8,0,0,0,2.564.879,2.9,2.9,0,0,0,2.27-.989,3.767,3.767,0,0,0,.879-2.6,6.524,6.524,0,0,0-3.076-5.383,13.135,13.135,0,0,0-7.91-2.234,14.983,14.983,0,0,0-11.719,5.09,17.408,17.408,0,0,0-4.541,11.975,16.52,16.52,0,0,0,2.49,8.716,14.171,14.171,0,0,0,5.676,5.64,16.1,16.1,0,0,0,8.02,2.124,11.486,11.486,0,0,0,8.46-3.406q3.405-3.406,3.406-6.042a0.931,0.931,0,0,0-.586-0.769,0.8,0.8,0,0,0-1.1.33l-0.439,1.245a11.894,11.894,0,0,1-3.04,4.541,8.487,8.487,0,0,1-6.042,2.27,10.014,10.014,0,0,1-4.834-1.318l-1.026-.732q-4.761-3.955-4.76-12.231a26.4,26.4,0,0,1,.988-7.69,11.537,11.537,0,0,1,2.6-4.834,11.219,11.219,0,0,1,3.223-2.344,7.9,7.9,0,0,1,3.3-.733,11.657,11.657,0,0,1,7.617,2.637q-3.444.368-3.442,3.589A2.85,2.85,0,0,0,218.619,72.749Zm27.759,21.533,7.251-20.361H253.7a0.3,0.3,0,0,0,.073.22l7.178,20.142q0.585,1.684,1.611,1.685,1.026-.148,1.612-1.831,0.366-.879,4.5-12.561t4.358-12.048a6.026,6.026,0,0,1,5.713-3.589v-2.27q-3.077.22-6.079,0.22t-6.006-.22v2.27a6.231,6.231,0,0,1,1.428.183,4.563,4.563,0,0,1,1.721.952,2.685,2.685,0,0,1,1.026,2.014,4.3,4.3,0,0,1-.073,1.025l-6.885,19.482H263.81a2.208,2.208,0,0,1-.147-0.4,1.618,1.618,0,0,1-.073-0.33l-6.885-19.336a7.035,7.035,0,0,1-.439-1.282,2.46,2.46,0,0,1,.109-1.062,1.54,1.54,0,0,1,1.209-.952,11.274,11.274,0,0,1,2.93-.293v-2.27q-4.1.22-7.618,0.22t-6.591-.22v2.27h0.512q3.076,0,3.955.879a7.664,7.664,0,0,1,1.136,2.234,9.5,9.5,0,0,1,.7,2.234v0.073l-6.153,17.212-0.146-.293-6.739-18.9a6,6,0,0,1-.366-1.172,2.42,2.42,0,0,1,.11-1.062,1.581,1.581,0,0,1,1.245-.915,11.348,11.348,0,0,1,2.893-.293v-2.27q-4.321.22-7.983,0.22t-6.885-.22v2.27a9.557,9.557,0,0,1,3.845.513,4.395,4.395,0,0,1,1.721,2.49l9.009,25.122a2.315,2.315,0,0,0,.44,1.135,1.49,1.49,0,0,0,1.1.769,2.121,2.121,0,0,0,1.685-1.685h0Zm46.289,0.879q5.933-.22,12.891-0.22t14.868,0.22v-2.27q-7.471,0-9.046-.549t-1.574-3.626V50.85a4.1,4.1,0,0,1,.439-2.234,2.686,2.686,0,0,1,1.978-.769H316.4q6.811,0,9.3,2.71,2.05,2.051,2.783,11.5h1.831q-0.366-3.662-1.391-16.479H284.171q-1.026,12.818-1.392,16.48h1.831q0.66-8.715,2.93-11.462t9.155-2.747h1.319q3.807,0,4.834.732a5.436,5.436,0,0,1,.439,2.856v37.28a4.644,4.644,0,0,1-.622,2.856,4.265,4.265,0,0,1-2.6,1.025,60.432,60.432,0,0,1-7.4.293v2.27Zm67.2-28.821a12.072,12.072,0,0,0-9.485-3.992,14.48,14.48,0,0,0-7.178,1.978,15.02,15.02,0,0,0-5.969,6.116A17.464,17.464,0,0,0,335,78.975a17.7,17.7,0,0,0,.879,5.493,18.054,18.054,0,0,0,1.5,3.149,26.4,26.4,0,0,0,2.71,3.7,13.212,13.212,0,0,0,4.541,3.332,15.12,15.12,0,0,0,12.012.147,10.479,10.479,0,0,0,3.955-2.856,16.336,16.336,0,0,0,2.051-3.149,5.973,5.973,0,0,0,.7-2.417,1.192,1.192,0,0,0-.147-0.513,0.855,0.855,0,0,0-1.538.22q-2.637,8.058-10.254,8.057-3.516,0-7.031-3.516-3.15-3.881-3.149-12.378h20.434a2.582,2.582,0,0,0,1.465-.256,1.546,1.546,0,0,0,.293-1.135Q363.419,70.333,359.867,66.34Zm-1.575,7.288,0.146,1.685a7.679,7.679,0,0,0,.074,1.392H341.3a14.9,14.9,0,0,1,2.637-9.119q2.635-3.552,6.3-3.552a6.9,6.9,0,0,1,3.919,1.1,6.728,6.728,0,0,1,2.453,2.893,24.978,24.978,0,0,1,1.172,3.04,15.117,15.117,0,0,1,.513,2.49v0.073Zm23.291,13.184,9.741-14.429,0.073,0.147a0.066,0.066,0,0,1,.074.073l10.986,16.626a4.932,4.932,0,0,1,.806,1.538,2.148,2.148,0,0,1-1.5,1.465,7.7,7.7,0,0,1-3.259.659v2.27q5.859-.22,10.84-0.22,5.126,0,9.375.22v-2.27a23.493,23.493,0,0,1-4.834-.366,5.246,5.246,0,0,1-2.234-.915A10.956,10.956,0,0,1,410,89.448q-4.542-6.738-8.35-12.6t-4.943-7.581a16.745,16.745,0,0,0-1.722-2.307V66.89l0.074-.073,8.349-12.231,0.147-.147a0.212,0.212,0,0,0,.073-0.146,25.747,25.747,0,0,1,2.563-3.552,10.415,10.415,0,0,1,3.516-2.27,14.748,14.748,0,0,1,5.933-1.062V45.137q-2.492.148-8.13,0.147-6.008,0-9.375-.147v2.271a4.583,4.583,0,0,1,3.442,1.208A3.338,3.338,0,0,1,402.75,50.7q0,0.659-3.772,6.445a91.616,91.616,0,0,1-5.383,7.69l-1.758-2.71L386.2,53.56q-2.49-3.442-2.49-4.028,0.072-1.025,1.794-1.575a10,10,0,0,1,2.967-.549V45.137q-3.883.148-10.84,0.147-6.52,0-9.375-.147v2.271h2.93c0.146,0,.524.025,1.135,0.073a2.872,2.872,0,0,1,1.245.293,9.759,9.759,0,0,0,.989.549,3.959,3.959,0,0,1,1.135.842,11.865,11.865,0,0,1,.989,1.245l8.349,12.6,4.761,7.324a2.273,2.273,0,0,1-.366.733L379.312,86.006a18.421,18.421,0,0,1-4.76,5.237q-2.418,1.648-7.251,1.648v2.27q3.735-.22,8.056-0.22t9.375,0.22v-2.27a4.513,4.513,0,0,1-3.442-1.172,3.313,3.313,0,0,1-1.1-2.124,6.34,6.34,0,0,1,1.392-2.783h0Zm92.505-42.773-4.175-3.223-1.025-.146a1.119,1.119,0,0,0-.367.806,22.763,22.763,0,0,1,1.465,6.885l-0.073,8.2-15.015,1.1-1.977-4.395-1.318-.22a1.462,1.462,0,0,0-.586,1.245v0.073l0.439,2.49,0.147,13.7a17.433,17.433,0,0,1-1.319,4.688,0.422,0.422,0,0,0,.073.293l3.516,4.321,0.732,0.22a9.706,9.706,0,0,0,.44-3.662q2.928-.146,8.313-0.586t6.628-.439q0,13.4-.073,14.5v0.073l-0.806,4.248a3.467,3.467,0,0,0-.586,1.245,20.215,20.215,0,0,0,2.088,2.783,7.045,7.045,0,0,0,2.161,1.978,0.3,0.3,0,0,0,.292-0.366l0.293-24.756a2.981,2.981,0,0,1,.806-0.073q19.042-1.538,19.556-1.977a2.042,2.042,0,0,0-.44-1.245l-1.684-1.685,1.245-9.814a3.16,3.16,0,0,1,1.391-2.234,2.531,2.531,0,0,0,1.246-1.428q0-1.025-1.685-2.38a17.112,17.112,0,0,1-1.831-1.575,0.643,0.643,0,0,0-.806-0.147,1.7,1.7,0,0,0-.549.366c-0.073.1-.306,0.379-0.7,0.842A13.81,13.81,0,0,1,488.59,55.1q-8.569.733-15.381,1.172V53.853a34.966,34.966,0,0,1,.513-7.324q0.512-2.05.512-2.124a0.5,0.5,0,0,0-.146-0.366h0Zm13.476,26.733-14.209,1.172v-12.6l15.967-1.392Zm-32.446,2.637V60.737l14.8-1.245V72.31Zm91.04-31.494-1.465-.439L544.474,42.5a61.539,61.539,0,0,0,6,11.426,1.758,1.758,0,0,0,1.392-.44,16.645,16.645,0,0,0,1.025-4.98Zm-0.7,51.819a54.843,54.843,0,0,0,4.725,5.9l1.1,0.293a5.236,5.236,0,0,0,2.2-2.2,35.952,35.952,0,0,0,2.564-6.079l3.662-12.231q0.072-.292.439-2.27a15.968,15.968,0,0,1,1.062-3.552,5,5,0,0,1,2.088-2.38q0-1.9-2.93-4.1a1.051,1.051,0,0,0-1.1.037,5,5,0,0,0-1.172.952,2.939,2.939,0,0,1-.806.7q-0.074,0-2.637.659a30.714,30.714,0,0,1-7.251.659,19.665,19.665,0,0,1,1.026-3.845,9.045,9.045,0,0,1,.988-1.941,1.588,1.588,0,0,0,.4-0.952v-0.22l-0.952-2.27,21.094-2.563A1.132,1.132,0,0,0,570.621,57L569.6,55.977a4.547,4.547,0,0,0-2.93-1.245h-0.293l-3.076.733q-4.175.879-15.747,2.38t-16.919,1.941a1.09,1.09,0,0,0-.586.952,4.662,4.662,0,0,0,3.223,2.051h0.8L544.84,61.4q-1.318,19.7-16.992,35.669l-0.074.733a2.144,2.144,0,0,0,1.319.439,35.5,35.5,0,0,0,8.166-7.764,43.975,43.975,0,0,0,5.237-8.2l4.028-9.155a7.316,7.316,0,0,0,2.271.293l3.076-.22q5.274-.805,6.006-0.806-3.37,15.235-5.64,20.068a2.685,2.685,0,0,1-1.538,1.392,12.716,12.716,0,0,1-3.625-2.49q-2.455-2.123-3.772-2.124Q543.3,90.621,545.462,93.733ZM530.924,51.069q4.028-4.321,4.028-5.347a4.143,4.143,0,0,0-.989-2.161,8.619,8.619,0,0,1-1.062-1.648l-1.025-1.172a2.1,2.1,0,0,0-1.1.366q-2.564,8.717-11.572,19.189L509.83,70.625v0.439q3.3,0,13.257-10.913l0.146,0.073V87.837a20.982,20.982,0,0,1-1.684,7.031,4.739,4.739,0,0,0,1.1,2.49l2.637,2.71,0.293,0.147a1.343,1.343,0,0,0,.733-0.733l0.146-42.7q3.588-4.686,4.468-5.713h0ZM603.067,41.4l4.688,9.814a7.066,7.066,0,0,0,.879.146L609.293,51l1.245-2.27a2.1,2.1,0,0,0,.366-1.1q0-1.319-3.149-3.992t-4.614-2.82Zm-14.795,8.423a0.5,0.5,0,0,0-.109.256,1.408,1.408,0,0,0-.037.256q-0.879,3.076-1.648,5.383t-1.172,3.3q-0.4.989-.659,1.611c-0.172.416-.293,0.708-0.366,0.879a1.39,1.39,0,0,0-.11.549,5.342,5.342,0,0,0,.4,1.611,3.685,3.685,0,0,0,.915,1.538,3.77,3.77,0,0,0,1.538-.22q1.466-1.978,2.71-7.4L623.5,54.146h1.9a16.693,16.693,0,0,0-2.563,6.3,1.239,1.239,0,0,0,1.318.586,92.362,92.362,0,0,1,7.324-7.983V51.875L628.336,48.8l-0.879-.293-0.513.22a1.56,1.56,0,0,1-.293.513l-1.684,1.538-32.886,3.369h-2.124a9.262,9.262,0,0,1-.293-1.282q-0.147-.841-0.256-1.245c-0.074-.268-0.172-0.586-0.293-0.952a3,3,0,0,0-.476-0.916Zm19.52,8.386a6.746,6.746,0,0,0-3.113-1.575,1.185,1.185,0,0,0-.513.147l0.586,2.27a31.619,31.619,0,0,1,.806,6.3,12.8,12.8,0,0,1-.22,2.49q-0.513,0-5.2.366t-8.057.586h-0.659c-0.293,0-.684.025-1.172,0.073q-5.274.22-5.273,1.172a3.615,3.615,0,0,0,1.1,1.685,2.688,2.688,0,0,0,1.831.952q1.1,0,4.688-.439t9.594-.806a79.623,79.623,0,0,1-21.9,21.826,3.15,3.15,0,0,0-1.245,1.392l0.146,0.073a0.065,0.065,0,0,0,.074.073l0.8,0.147a27.091,27.091,0,0,0,3.955-1.685,57.591,57.591,0,0,0,11.5-8.386A69.884,69.884,0,0,0,605.338,72.9l0.073,0.147V87.764a21.3,21.3,0,0,1-.366,4.431,8.541,8.541,0,0,1-.7,2.2,2.118,2.118,0,0,0-.329.7q0,1.39,3.881,4.834c0.488,0,.733-0.073.733-0.22l0.293-28.125L622.7,90.327a4.553,4.553,0,0,0,2.71,1.758,56.331,56.331,0,0,1,5.713-.476,28.005,28.005,0,0,0,4.065-.33,1.074,1.074,0,0,0,.989-1.1q0-.44-1.9-0.916t-4.651-1.355a13.244,13.244,0,0,1-4.212-2.051,68.421,68.421,0,0,1-13.989-15.381q2.489-.659,17.871-1.9a1.148,1.148,0,0,0,.879-1.172c-0.049-.048-0.208-0.22-0.476-0.513s-0.44-.476-0.513-0.549-0.232-.22-0.476-0.439a2.5,2.5,0,0,0-.622-0.439,6.043,6.043,0,0,0-.623-0.22,2.8,2.8,0,0,0-.806-0.11h-0.439l-5.274.806q-6.3.953-12.158,1.465a16.039,16.039,0,0,1,.586-4.358q0.585-2.087.586-2.234Q609.952,59.786,607.792,58.21Zm88.439,10.877-7.47,1.245q-5.347.733-9.412,1.025t-5.31.366a3.508,3.508,0,0,0-1.758.439,2.546,2.546,0,0,0,.989,1.794,3.2,3.2,0,0,0,2.234.916,30.941,30.941,0,0,0,4.175-.586l8.935-1.025q6.811-.659,8.2-0.806A20.3,20.3,0,0,0,700,72.273a3.284,3.284,0,0,0,1.319-.4,0.823,0.823,0,0,0,.256-0.659q-1.246-2.123-4.687-2.124h-0.66Zm-20.654,7.031,0.586,4.614v0.147l-0.806,4.175a2.287,2.287,0,0,0,.55,1.318q0.549,0.733,1.208,1.465a7.8,7.8,0,0,1,1.282,2.307,12.262,12.262,0,0,1,.769,3.625q-6.227.367-11.279,0.513V72.529q0-1.318,1.9-3.223a3.856,3.856,0,0,1,.366-1.611,16.706,16.706,0,0,1,3.15-3.662l0.146,0.073-0.879,2.49a7.008,7.008,0,0,0,.806,1.318l2.783,3.223,0.44,0.073q0.511-.511.512-2.71l21.826-2.417,0.147-.366-0.073-.659-1.245-1.831q0.73-10.619,3-11.645a1.114,1.114,0,0,0,.147-0.439V50.85a1.736,1.736,0,0,0-.549-1.172,7.618,7.618,0,0,0-1.392-1.135,8.074,8.074,0,0,1-1.062-.769,2.444,2.444,0,0,0-1.978,1.318l-0.952,1.245L690.958,51l0.22-3.223v-0.22l0.512-1.172a2.952,2.952,0,0,0,.44-1.318,1.406,1.406,0,0,0-.44-1.025,17.7,17.7,0,0,1-2.16-1.465,5.481,5.481,0,0,0-2.893-1.318l-0.147.879q1.171,3.076,1.172,9.228l-3.955.513a22.054,22.054,0,0,1,1.245-6.079,1.516,1.516,0,0,0-1.025-.952,8.9,8.9,0,0,1-1.172-.952,10.089,10.089,0,0,0-1.685-1.245,3.36,3.36,0,0,0-1.684-.513,1.734,1.734,0,0,0-.22,1.1q1.171,2.711,1.172,8.789a9.429,9.429,0,0,1-2.417.439,2.207,2.207,0,0,1-1.978-1.355,5.427,5.427,0,0,0-1.245-1.721,2.019,2.019,0,0,0-1.391.073v0.513q0.364,5.128.366,8.935v1.318a4.6,4.6,0,0,1-.549-0.366,5.666,5.666,0,0,0-.77-0.476,1.429,1.429,0,0,0-.585-0.183,2.161,2.161,0,0,0-1.392.879,2.817,2.817,0,0,1-1.245.952,88.574,88.574,0,0,1,.659-10.657,4.111,4.111,0,0,1,1.758-3.039l-0.147-.806-0.512-.879L668.546,43.6a1.345,1.345,0,0,0-1.758.879,8.724,8.724,0,0,1-.952,1.758q-7.545,1.1-8.569,1.172l-0.806-1.245q-1.1-1.83-2.124-1.831a0.617,0.617,0,0,0-.733.659l0.44,2.344a38.139,38.139,0,0,1,.293,5.2v0.073l-0.073,9.668a5.457,5.457,0,0,1-1.978.22l-0.22-3.3a1.49,1.49,0,0,0-.732-0.513l-0.513.879-1.611,4.321-1.172,2.344q-1.1,2.271-1.245,2.71a9.711,9.711,0,0,1,.659.879,7.43,7.43,0,0,0,1.026,1.209,1.586,1.586,0,0,0,1.1.476,4.506,4.506,0,0,0,1.685-2.124l1.1-4.175,15.674-1.318h1.831a25.9,25.9,0,0,1-1.831,2.563,1.583,1.583,0,0,0-1.025-.439,2.046,2.046,0,0,0-1.428.952,6.632,6.632,0,0,1-.916,1.025l-8.5,1.538a4.44,4.44,0,0,1-.879-0.7,7.718,7.718,0,0,0-1.245-.952,2.416,2.416,0,0,0-1.245-.4,1.165,1.165,0,0,0-.147.513l0.586,2.417,0.147,17.725a14.212,14.212,0,0,1-1.1,5.786,3.893,3.893,0,0,0,.659,2.27l2.637,3.076,0.439,0.147,0.367-.22L656.681,84.1l0.952-.147q6.738-1.025,6.738-2.344,0-.659-1.831-1.465l-6.079,1.245,0.22-3.442,7.4-1.025a2.925,2.925,0,0,0-1.1-2.417,42.049,42.049,0,0,0-6.518.952l0.22-3.516,8.056-1.318V92.744l-0.439.586a5.234,5.234,0,0,1-2.344-1.135,4.527,4.527,0,0,0-2.2-1.062v0.22a25.82,25.82,0,0,0,5.713,8.13L666.2,99.7l0.586-.586a13.134,13.134,0,0,0,1.245-2.564l0.952,0.659a3.588,3.588,0,0,0,1.685.293q0.219,0,6.628-.513t14.392-1.209q7.983-.7,11.353-1.062a2.968,2.968,0,0,0,.146-1.318,4.064,4.064,0,0,0-3.295-1.831,5.082,5.082,0,0,0-.953.073l-9.668,1.318a30.534,30.534,0,0,1,3.809-5.273,1.512,1.512,0,0,0-.183-1.318,2.355,2.355,0,0,1-.4-0.879h0.293a5.956,5.956,0,0,0,2.417-.513,2.151,2.151,0,0,0-.586-2.051,11.761,11.761,0,0,1,.513-4.468V78.389l0.586-.586a1.945,1.945,0,0,0,.952-1.245,1.852,1.852,0,0,0-.659-1.245l-2.271-1.685a1.712,1.712,0,0,0-1.465.22l-1.611,1.685-11.719,1.831q-0.073-.072-1.281-0.989a3.66,3.66,0,0,0-2.015-.915,2.252,2.252,0,0,1-.073.659h0Zm19.409-18.9-0.073.073-3.809.293V53.633l4.468-.659Zm-0.659,6.226-3.149.439L691.1,60.518h0.074l3.442-.44Zm-10.4-4.834-0.073-3.955L687.662,54v4.175Zm0,6.152L683.854,61.4q1.243-.22,3.808-0.513v3.369Zm-6.812-5.42V55.317l3.15-.293v4.028a16.413,16.413,0,0,0-3.15.293h0Zm0,5.859V62.056h0.073l3.077-.147v3.149ZM661.7,52.131a1.96,1.96,0,0,0-1.868-.989l-0.439.439a81.094,81.094,0,0,1,.366,10.254l-2.344.22V50.044q2.05-.292,9.155-1.392l-0.219,3.882a9.206,9.206,0,0,0-1.355.293,7.546,7.546,0,0,1-1.722.293A1.718,1.718,0,0,1,661.7,52.131Zm4.284,9.119-3.149.22V55.537l3.369-.513Zm24.756,21.021-11.352,1.9V80L691.1,78.535Zm-1.465,3.3-2.636,7.617h-0.074l-4.1.366a6.2,6.2,0,0,0,.146-1.1,4.458,4.458,0,0,0-.366-1.794,28.135,28.135,0,0,0-2.2-3.479Z"/>
</svg>
