<svg xmlns="http://www.w3.org/2000/svg" width="900" height="140" viewBox="0 0 900 140">
  <defs>
    <style>
      .cls-1 {
        fill-rule: evenodd;
      }
    </style>
  </defs>
  <path id="cwTeX中明體" class="cls-1" d="M250.619,71.749a3.8,3.8,0,0,0,2.564.879,2.9,2.9,0,0,0,2.27-.989,3.767,3.767,0,0,0,.879-2.6,6.524,6.524,0,0,0-3.076-5.383,13.135,13.135,0,0,0-7.91-2.234,14.983,14.983,0,0,0-11.719,5.09,17.408,17.408,0,0,0-4.541,11.975,16.52,16.52,0,0,0,2.49,8.716,14.171,14.171,0,0,0,5.676,5.64,16.1,16.1,0,0,0,8.02,2.124,11.486,11.486,0,0,0,8.46-3.406q3.405-3.406,3.406-6.042a0.931,0.931,0,0,0-.586-0.769,0.8,0.8,0,0,0-1.1.33l-0.439,1.245a11.894,11.894,0,0,1-3.04,4.541,8.487,8.487,0,0,1-6.042,2.27,10.014,10.014,0,0,1-4.834-1.318l-1.026-.732q-4.761-3.955-4.76-12.231a26.4,26.4,0,0,1,.988-7.69,11.537,11.537,0,0,1,2.6-4.834,11.219,11.219,0,0,1,3.223-2.344,7.9,7.9,0,0,1,3.3-.733,11.657,11.657,0,0,1,7.617,2.637q-3.444.368-3.442,3.589A2.85,2.85,0,0,0,250.619,71.749Zm27.759,21.533,7.251-20.361H285.7a0.3,0.3,0,0,0,.073.22l7.178,20.142q0.585,1.684,1.611,1.685,1.026-.148,1.612-1.831,0.366-.879,4.5-12.561t4.358-12.048a6.026,6.026,0,0,1,5.713-3.589v-2.27q-3.077.22-6.079,0.22t-6.006-.22v2.27a6.231,6.231,0,0,1,1.428.183,4.563,4.563,0,0,1,1.721.952,2.685,2.685,0,0,1,1.026,2.014,4.3,4.3,0,0,1-.073,1.025l-6.885,19.482H295.81a2.208,2.208,0,0,1-.147-0.4,1.618,1.618,0,0,1-.073-0.33l-6.885-19.336a7.035,7.035,0,0,1-.439-1.282,2.46,2.46,0,0,1,.109-1.062,1.54,1.54,0,0,1,1.209-.952,11.274,11.274,0,0,1,2.93-.293v-2.27q-4.1.22-7.618,0.22t-6.591-.22v2.27h0.512q3.077,0,3.955.879a7.664,7.664,0,0,1,1.136,2.234,9.5,9.5,0,0,1,.7,2.234v0.073l-6.153,17.212-0.146-.293-6.739-18.9a6,6,0,0,1-.366-1.172,2.42,2.42,0,0,1,.11-1.062,1.581,1.581,0,0,1,1.245-.915,11.348,11.348,0,0,1,2.893-.293v-2.27q-4.321.22-7.983,0.22t-6.885-.22v2.27a9.557,9.557,0,0,1,3.845.513,4.395,4.395,0,0,1,1.721,2.49l9.009,25.122a2.315,2.315,0,0,0,.44,1.135,1.49,1.49,0,0,0,1.1.769,2.121,2.121,0,0,0,1.685-1.685h0Zm46.289,0.879q5.933-.22,12.891-0.22t14.868,0.22v-2.27q-7.471,0-9.046-.549t-1.574-3.626V49.85a4.1,4.1,0,0,1,.439-2.234,2.686,2.686,0,0,1,1.978-.769H348.4q6.811,0,9.3,2.71,2.05,2.051,2.783,11.5h1.831q-0.366-3.662-1.391-16.479H316.171q-1.026,12.818-1.392,16.48h1.831q0.66-8.715,2.93-11.462t9.155-2.747h1.319q3.807,0,4.834.732a5.436,5.436,0,0,1,.439,2.856v37.28a4.644,4.644,0,0,1-.622,2.856,4.265,4.265,0,0,1-2.6,1.025,60.432,60.432,0,0,1-7.4.293v2.27Zm67.2-28.821a12.072,12.072,0,0,0-9.485-3.992,14.48,14.48,0,0,0-7.178,1.978,15.02,15.02,0,0,0-5.969,6.116A17.464,17.464,0,0,0,367,77.975a17.7,17.7,0,0,0,.879,5.493,18.054,18.054,0,0,0,1.5,3.149,26.4,26.4,0,0,0,2.71,3.7,13.212,13.212,0,0,0,4.541,3.332,15.12,15.12,0,0,0,12.012.147,10.479,10.479,0,0,0,3.955-2.856,16.336,16.336,0,0,0,2.051-3.149,5.973,5.973,0,0,0,.7-2.417,1.192,1.192,0,0,0-.147-0.513,0.855,0.855,0,0,0-1.538.22q-2.637,8.058-10.254,8.057-3.516,0-7.031-3.516-3.15-3.881-3.149-12.378h20.434a2.582,2.582,0,0,0,1.465-.256,1.546,1.546,0,0,0,.293-1.135Q395.419,69.333,391.867,65.34Zm-1.575,7.288,0.146,1.685a7.679,7.679,0,0,0,.074,1.392H373.3a14.9,14.9,0,0,1,2.637-9.119q2.635-3.552,6.3-3.552a6.9,6.9,0,0,1,3.919,1.1,6.728,6.728,0,0,1,2.453,2.893,24.978,24.978,0,0,1,1.172,3.04,15.117,15.117,0,0,1,.513,2.49v0.073Zm23.291,13.184,9.741-14.429,0.073,0.147a0.066,0.066,0,0,1,.074.073l10.986,16.626a4.932,4.932,0,0,1,.806,1.538,2.148,2.148,0,0,1-1.5,1.465,7.7,7.7,0,0,1-3.259.659v2.27q5.859-.22,10.84-0.22,5.126,0,9.375.22v-2.27a23.493,23.493,0,0,1-4.834-.366,5.246,5.246,0,0,1-2.234-.915A10.956,10.956,0,0,1,442,88.448q-4.542-6.738-8.35-12.6t-4.943-7.581a16.745,16.745,0,0,0-1.722-2.307V65.89l0.074-.073,8.349-12.231,0.147-.147a0.212,0.212,0,0,0,.073-0.146,25.747,25.747,0,0,1,2.563-3.552,10.415,10.415,0,0,1,3.516-2.27,14.748,14.748,0,0,1,5.933-1.062V44.137q-2.492.148-8.13,0.147-6.008,0-9.375-.147v2.271a4.583,4.583,0,0,1,3.442,1.208A3.338,3.338,0,0,1,434.75,49.7q0,0.659-3.772,6.445a91.616,91.616,0,0,1-5.383,7.691l-1.758-2.71L418.2,52.56q-2.49-3.442-2.49-4.028,0.072-1.025,1.794-1.575a10,10,0,0,1,2.967-.549V44.137q-3.883.148-10.84,0.147-6.52,0-9.375-.147v2.271h2.93c0.146,0,.524.025,1.135,0.073a2.872,2.872,0,0,1,1.245.293,9.759,9.759,0,0,0,.989.549,3.959,3.959,0,0,1,1.135.842,11.865,11.865,0,0,1,.989,1.245l8.349,12.6,4.761,7.324a2.273,2.273,0,0,1-.366.733L411.312,85.006a18.421,18.421,0,0,1-4.76,5.237q-2.418,1.648-7.251,1.648v2.27q3.735-.22,8.056-0.22t9.375,0.22v-2.27a4.513,4.513,0,0,1-3.442-1.172,3.313,3.313,0,0,1-1.1-2.124,6.34,6.34,0,0,1,1.392-2.783h0Zm92.139-43.359q0-.511,1.648-1.355t1.648-1.648a1.19,1.19,0,0,0-.22-0.732,2.08,2.08,0,0,0-.952-0.549,11.76,11.76,0,0,0-1.429-.4q-0.7-.146-2.233-0.366-1.319-.22-2.051-0.366a0.913,0.913,0,0,0-.733.659l0.22,2.637q0.072,0.659.073,2.2,0.147,4.395.147,5.42,0,1.758-.147,3.223a1.346,1.346,0,0,1-.659.879,25.25,25.25,0,0,1-5.493.293q-4.4,0-12.231-.22l-1.392-.732a14.365,14.365,0,0,0-3.662-1.831l-0.44.513q0.221,4.614.22,15.894,0,7.545-.073,13.55,0,2.271.513,2.71a0.3,0.3,0,0,1,.219.073h1.758a1.53,1.53,0,0,0,1.282-.513,3.718,3.718,0,0,0,.476-1.977,1.75,1.75,0,0,1,1.208-1.794,40.5,40.5,0,0,1,6.189-.256H491q3.807,0,5.9.073a20.308,20.308,0,0,1,3.149.293,3.023,3.023,0,0,1,1.319.476,1.165,1.165,0,0,1,.256.842v2.783q0,8.277-.366,19.555a1.843,1.843,0,0,0,1.684,1.026,3.556,3.556,0,0,0,2.344-.55,2.26,2.26,0,0,0,.586-1.721q0-1.026-.22-6.115t-0.219-8.679q0-3.222.293-6.592a0.919,0.919,0,0,1,.915-0.952q0.915-.146,6.043-0.146h4.834q6,0,7.031.146,0.731,0.148.915,1.538a2.189,2.189,0,0,0,1.062,1.831l1.246,0.073a2.038,2.038,0,0,0,1.9-1.978l-0.44-9.009a2.218,2.218,0,0,1-.073-0.659l0.22-12.671a2.893,2.893,0,0,1,1.245-2.087,2.825,2.825,0,0,0,1.245-1.794q0-.585-2.087-2.417t-3.113-1.172l-2.417,2.124-4.688.147q-2.635.148-7.543,0.146-3.516,0-5.2-.073a0.952,0.952,0,0,1-1.062-.659,17.719,17.719,0,0,1-.256-3.149,35.51,35.51,0,0,1,.22-5.933h0Zm0.146,12.671a10.165,10.165,0,0,1,3-.293h15.747q0.732,0,.733,1.1V74.752q-0.075.513-1.026,0.513-1.026.148-3.442,0.293l-14.063-.073a1.173,1.173,0,0,1-1.135-1.245q-0.183-1.245-.183-7.91a108.2,108.2,0,0,1,.366-11.206h0ZM483.017,75.265a0.788,0.788,0,0,1-.66-0.952q0-.511-0.109-4.285t-0.11-8.166q0-2.563.036-3.882a19.25,19.25,0,0,1,.147-2.087,2.039,2.039,0,0,1,.256-0.916,0.715,0.715,0,0,1,.513-0.146h17.724a0.527,0.527,0,0,1,.513.293,5.565,5.565,0,0,1,.293,1.355,28.248,28.248,0,0,1,.183,3.076q0.036,2.015.037,5.676,0,6.52-.147,8.24t-0.805,1.794H483.017ZM596.1,38.863l-1.978,2.051h-15.6a8.5,8.5,0,0,1-1.245-.842,12.2,12.2,0,0,0-1.538-1.025,2.8,2.8,0,0,0-1.318-.4,0.56,0.56,0,0,0-.44.659l0.44,18.091v1.1a79.9,79.9,0,0,1-1.868,18.823,34.216,34.216,0,0,1-5.237,12.122,35.867,35.867,0,0,1-9.228,8.46l-4.175,2.49a0.4,0.4,0,0,0-.146.219,4.774,4.774,0,0,0,.146.806,1.267,1.267,0,0,0,.33.476,0.937,0.937,0,0,0,.7.257,7.484,7.484,0,0,0,3.3-1.319L562.7,97.97a30.647,30.647,0,0,0,12.6-15.82l1.465-4.614a0.854,0.854,0,0,1,.879-0.952q2.636,0,6.445-.037T589,76.51q4.1,0,4.614.037a1.4,1.4,0,0,1,.952.549v16.48q0,1.245-3.222,1.245l-8.5-.806a1.707,1.707,0,0,0-.623.733,1.262,1.262,0,0,0,.073,1.172,2.352,2.352,0,0,0,1.5,1.025l2.783,0.439a6.612,6.612,0,0,1,2.71.732,3.177,3.177,0,0,1,1.318,1.172,3.715,3.715,0,0,0,.806,1.062,1.86,1.86,0,0,0,1.318.476,6.161,6.161,0,0,0,3.772-1.758,5.075,5.075,0,0,0,2.161-3.442,11.8,11.8,0,0,1,.073-1.538l-0.146-11.353q0-14.722.293-24.39V53.219a71.722,71.722,0,0,1,.219-7.617,0.423,0.423,0,0,1,.074-0.293l0.732-.806a2.924,2.924,0,0,0,1.318-1.831q0-.951-1.794-2.527t-2.527-1.575a2.317,2.317,0,0,0-.805.293h0Zm-36.548,2.783q-1.978.074-5.2,0.073a27.667,27.667,0,0,1-6.042-.476,6.816,6.816,0,0,1-2.71-1.135,3.39,3.39,0,0,0-1.5-.806,0.723,0.723,0,0,0-.513.879q0,0.148.073,4.688t0.073,13.037q0,17.286-.512,25.269a1.637,1.637,0,0,0,1.831,1.318,2.554,2.554,0,0,0,.732-0.073l0.952-.366q0.732-.659.733-3.589,0.072-2.269,1.245-2.27h1.611q1.978-.072,5.127-0.073a25.926,25.926,0,0,1,5.054.293,0.457,0.457,0,0,1,.256.073,0.366,0.366,0,0,1,.147.22c0.024,0.1.048,0.2,0.073,0.293a1.765,1.765,0,0,1,.037.4v1.428a4.158,4.158,0,0,0,.4,2.234,1.4,1.4,0,0,0,1.209.549q2.416-.146,2.49-1.9l0.073-1.025-0.146-8.057V50.8q0-3.516.073-4.321a1.262,1.262,0,0,1,.147-0.366l0.659-.733a4.764,4.764,0,0,1,.512-0.439,4.231,4.231,0,0,0,.4-0.33c0.074-.073.171-0.158,0.293-0.256a0.646,0.646,0,0,0,.22-0.256c0.024-.073.048-0.158,0.073-0.256a1.218,1.218,0,0,0,.037-0.293,2.7,2.7,0,0,0-.952-1.831l-2.2-1.831a1.405,1.405,0,0,0-1.025-.44,3.067,3.067,0,0,0-1.685,1.062,3.027,3.027,0,0,1-1.757,1.062,0.425,0.425,0,0,1-.293.073h0Zm19.336,14.868-0.367-.439q-0.073-3-.073-7.4,0-3.588.037-4.028a1.623,1.623,0,0,1,.549-0.952h15.234l0.513,0.586V55.929a0.82,0.82,0,0,1-.8.659ZM594.564,72.7a1,1,0,0,1-.695.879,16.175,16.175,0,0,1-2.674.22l-13.4-.073-0.366-.366,0.439-4.321q0.366-7.323.513-8.46a1.078,1.078,0,0,1,1.1-1.135h14.794a0.85,0.85,0,0,1,.513.733v0.366a2.234,2.234,0,0,0,.037.366,8.085,8.085,0,0,1,.036.989v2.014a83.991,83.991,0,0,1-.293,8.789h0Zm-46.215-14.8q-0.588-.22-0.586-5.713,0-4.467.146-7.471a1.607,1.607,0,0,1,1.026-.293,3.379,3.379,0,0,1,.878-0.073L556.7,44.43l3.809,0.073q0.659,0.074.659,1.392,0.145,6.3.146,7.544,0,2.637-.109,3.516a0.9,0.9,0,0,1-.7.952H548.349ZM557.8,75.558l-9.6-.22-0.439-.44q-0.149-6.444-.147-7.983v-2.71a7.736,7.736,0,0,1,.037-0.842q0.036-.33.073-0.732t0.073-.659a2.035,2.035,0,0,1,.147-0.513,1.178,1.178,0,0,1,.22-0.366,0.957,0.957,0,0,1,.256-0.183l1.9-.293a8.474,8.474,0,0,0,1.392.073q8.495,0.148,8.789.22a1.094,1.094,0,0,1,.586.952v1.1q0.146,6.006.146,7.324a27.77,27.77,0,0,1-.183,4.248,0.827,0.827,0,0,1-.769.806q-1.611.148-2.49,0.22h0ZM666.635,55.526q-0.073-3.112-.147-4.321t-0.073-1.355a4.7,4.7,0,0,1,1.538-3.882V45.821l-0.293-1.1a5.471,5.471,0,0,0-1.611-1.868q-1.1-.841-1.758-0.4l-1.172,1.172q-0.659.659-3.589,0.659a2.877,2.877,0,0,1-1.867-.366,3.955,3.955,0,0,1-.33-2.124l0.073-.146,0.733-.659q1.464-1.025,1.172-1.685a2.764,2.764,0,0,0-1.758-1.135,8.082,8.082,0,0,0-2.344-.476,1.166,1.166,0,0,0-1.245.586l0.146,5.347-0.146.22a0.761,0.761,0,0,1-.659.22q-0.22.074-4.1,0.073a1.482,1.482,0,0,1-.513-1.465,2.422,2.422,0,0,1,1.172-2.2q1.172-.731,1.026-1.318a1.907,1.907,0,0,0-1.355-1.208,6.655,6.655,0,0,0-2.454-.476,1.51,1.51,0,0,0-1.355.439,4.455,4.455,0,0,0-.256,1.9q0.072,0.807.073,2.051a7.327,7.327,0,0,1-.22,2.124,5.177,5.177,0,0,1-2.124.366,7.55,7.55,0,0,1-2.453-.439,17.805,17.805,0,0,1-2.161-.879,4.652,4.652,0,0,0-1.025-.44,0.574,0.574,0,0,0-.586.44q0.072,3.224.073,8.057,0,6.592-.293,6.665a2.573,2.573,0,0,1-1.355-.916,1.708,1.708,0,0,0-1.355-.769,4.882,4.882,0,0,0-.659.513,6.812,6.812,0,0,1-.879.659,0.666,0.666,0,0,1-.733,0l-0.146-3.223q0-7.1-.073-7.617a4.054,4.054,0,0,1,.512-2.527,13.518,13.518,0,0,1,.989-1.538q0.33-.4-0.329-1.648L630.6,38.57a1.8,1.8,0,0,0-1.8.7,5.347,5.347,0,0,1-1.355,1.062l-9.3.073a4.462,4.462,0,0,1-1.721-.879,3.545,3.545,0,0,0-1.867-.806h-0.293q0,2.2.183,6.812t0.183,7.617a29.759,29.759,0,0,1-.147,3.845,0.826,0.826,0,0,1-.8.842,2.936,2.936,0,0,1-.476-1.1,2.235,2.235,0,0,0-.55-1.1,0.865,0.865,0,0,0-1.391.44,23.3,23.3,0,0,0-.623,3.259q-0.4,2.675-.549,3.113a11.623,11.623,0,0,1-.952,1.758,5.011,5.011,0,0,0-.879,2.344,1.908,1.908,0,0,0,.512,1.355,1.328,1.328,0,0,0,1.392.33,3.389,3.389,0,0,0,2.161-2.087,15.212,15.212,0,0,0,.988-3.369,3.431,3.431,0,0,1,.733-2.014l18.017-.366,0.22,0.366-0.073.073-2.124,3.369a1.585,1.585,0,0,0-1.025.22l-1.685,1.611q-2.2.22-4.321,0.22t-4.322-.22c-0.146-.1-0.452-0.3-0.915-0.623a11.352,11.352,0,0,0-1.282-.769,2.482,2.482,0,0,0-1.1-.293,0.559,0.559,0,0,0-.659.439l0.147,5.566L615,90.06V91.3q-0.073,3.15-.073,7.4v1.1a15.391,15.391,0,0,0,.11,2.453,0.726,0.726,0,0,0,.842.476,2.341,2.341,0,0,0,2.161-.805,7.7,7.7,0,0,0,.476-3.369q0-.733-0.11-3.809t-0.11-4.981V88.009a2.364,2.364,0,0,1,.146-0.879,1.064,1.064,0,0,1,.257-0.44,3.263,3.263,0,0,1,.476-0.22l8.2-.073,0.586,0.513q0.145,2.2.146,3.223v1.611q0,1.612-.146,4.834a2.573,2.573,0,0,1-2.2.732c-0.245,0-.636-0.025-1.172-0.073s-1.026-.073-1.465-0.073q-2.2,0-2.2,1.245,0.072,0.366,2.746,1.135t3.26,2.454H627.3a4.4,4.4,0,0,0,2.746-1.172,3.741,3.741,0,0,0,1.5-2.783q0-.294-0.037-1.282t-0.073-2.966q-0.037-1.977-.037-4.1V72.335A5.733,5.733,0,0,1,632.211,69a6.077,6.077,0,0,0,.806-1.282l-0.293-.806a1.505,1.505,0,0,1-.513-1.868,16.035,16.035,0,0,1,3.223-3.772l0.878-.146,0.367,0.293a4.486,4.486,0,0,0,.586,2.783,2.327,2.327,0,0,0,1.831.659,1.511,1.511,0,0,0,1.245-1.1l0.586-1.172q4.394-.146,8.716-0.147,8.129,0,8.642.147h4.248l0.513,0.293,0.659,1.318a1.392,1.392,0,0,0,.659.366,0.894,0.894,0,0,1,.659.659,2.809,2.809,0,0,1-1.9,1.758,93.62,93.62,0,0,1-9.448.22l-12.6.073-5.786-.659a0.681,0.681,0,0,0-.732.806l0.073,0.439c0.1,0.245.207,0.513,0.33,0.806a5.062,5.062,0,0,0,.476.879,1.64,1.64,0,0,0,.586.586q9.668-.659,22.485-0.659l10.986-.073a1.161,1.161,0,0,0,1.1-1.172,6.568,6.568,0,0,0-1.978-2.527,8.237,8.237,0,0,1-1.9-2.087Q666.708,58.639,666.635,55.526ZM656.088,97.677c-0.2,0-.293-0.2-0.293-0.586q0.879-1.318,1.538-2.344a14.349,14.349,0,0,0,.879-1.5q0.219-.475.4-0.842a3.587,3.587,0,0,1,.293-0.513,1.355,1.355,0,0,1,.329-0.293l0.879-.366A1.905,1.905,0,0,0,661.8,90.5a1.064,1.064,0,0,0-.073-0.842,0.7,0.7,0,0,1,.073-0.842,4.912,4.912,0,0,0,1.867-.513,1.546,1.546,0,0,0,.733-0.7,2.716,2.716,0,0,0,.11-0.842v-1.9a47.061,47.061,0,0,0-.293-5.566,2.587,2.587,0,0,1,.805-2.051,3.135,3.135,0,0,0,.953-1.758,6.167,6.167,0,0,0-2.161-2.124,1.726,1.726,0,0,0-2.087.073,6.438,6.438,0,0,1-1.319.952,31.149,31.149,0,0,1-5.347.22q-5.567-.146-6.738-0.147a24.5,24.5,0,0,0-3.149.147l-1.026.073a5.379,5.379,0,0,1-2.71-1.025,14.05,14.05,0,0,0-2.05-1.172,1.2,1.2,0,0,0-.44.733l0.147,4.834q0,0.953-.147,10.181a2.03,2.03,0,0,0,1.612.586,3.24,3.24,0,0,0,1.464-.366l0.513-.806a1.622,1.622,0,0,1,.806-1.245l2.783-.22,14.136,0.073,0.512,0.439a3.9,3.9,0,0,1,.147,2.051,0.3,0.3,0,0,0-.22-0.073l-2.856-1.318a0.427,0.427,0,0,0-.293-0.146,0.924,0.924,0,0,0-1.026.586l-1.9,6.665q-1.026,3.076-2.344,3.223h-4.1l-0.293-.293a1.016,1.016,0,0,1,.366-0.842,2.426,2.426,0,0,0,.439-1.648,8.064,8.064,0,0,0-1.684-4.541q-1.686-2.417-3.076-2.417-0.952,0-.659,1.1l0.952,2.051a4.49,4.49,0,0,1,.366,1.318q0.439,1.978,1.025,3.882,0.366,1.1,0,1.318a13.9,13.9,0,0,1-2.417.147h-1.1a39.254,39.254,0,0,1-8.277-.659l-0.732.513a3.022,3.022,0,0,0,1.1,2.71q8.057-.366,24.17-0.439h1.026q1.683,0,4.138.037t3.186,0.037q1.1,0,2.271-.037t1.245-.037A0.72,0.72,0,0,0,670.956,99a1.426,1.426,0,0,0-.293-0.732l-3.442-3.589a1.175,1.175,0,0,0-.513-0.147q-0.807,0-1.9,1.575a3.231,3.231,0,0,1-2.71,1.575h-6.006Zm1.831-46.143a0.154,0.154,0,0,0-.037-0.11c-0.025-.024-0.049-0.048-0.073-0.073a0.786,0.786,0,0,1-.11-0.22,1.872,1.872,0,0,1-.11-0.439q-0.038-.256-0.073-0.806t-0.037-1.209a13.168,13.168,0,0,1,.074-1.758l1.538-.366h1.1a6.547,6.547,0,0,1,2.637.366,13.506,13.506,0,0,1,.22,2.124,13.032,13.032,0,0,1-.22,2.417,11.135,11.135,0,0,1-2.563.293,11.932,11.932,0,0,1-2.344-.22h0Zm4.687,2.71q0.66,0.513.66,2.93a13.2,13.2,0,0,1-.22,2.27q-0.074.807-3.223,0.806a4.119,4.119,0,0,1-2.051-.366,31.364,31.364,0,0,1-.219-5.273q0.145-.659,2.417-0.659a12.876,12.876,0,0,1,2.636.293h0Zm-13.183-2.563a0.683,0.683,0,0,1-.659-0.659,27.31,27.31,0,0,1,.146-3.589,1.1,1.1,0,0,1,.733-1.025l4.028,0.22q0.659,0.587.659,3.149a2.558,2.558,0,0,1-.366,1.721,2.46,2.46,0,0,1-1.538.33A18.194,18.194,0,0,1,649.423,51.681Zm3.149,8.5q-0.293,0-.842.037c-0.366.025-.623,0.037-0.769,0.037a4.855,4.855,0,0,1-1.831-.22,7.831,7.831,0,0,1-.366-2.71q0-2.637.586-3.076h4.541l0.366,0.513v4.175a1.353,1.353,0,0,1-.586,1.245h-1.1Zm-12.085-8.936q0-3.442.074-3.735L641,46.847a3.539,3.539,0,0,1,1.758-.293q0.439,0,2.344.147,0.659,0.659.659,2.93a2.837,2.837,0,0,1-.4,1.941,3.77,3.77,0,0,1-2.014.33q-2.565,0-2.857-.659h0Zm0.147,3.3a2.886,2.886,0,0,1,1.172-.439l3.3,0.146q0.731,0,.732,3a15.522,15.522,0,0,1-.22,2.563q-0.439.513-2.636,0.513c-0.392,0-.721-0.011-0.989-0.037s-0.489-.048-0.659-0.073a0.86,0.86,0,0,1-.4-0.147,1.919,1.919,0,0,0-.22-0.146,0.384,0.384,0,0,1-.146-0.183l-0.074-.146q0-3.442.147-5.054h0Zm-16.406-7.178A6.738,6.738,0,0,0,622.1,46.7a0.86,0.86,0,0,0-.806.366v1.977q0.072,1.832.073,4.688a39.28,39.28,0,0,1-.146,3.955,5.161,5.161,0,0,1-1.831.439,1.725,1.725,0,0,1-.769-0.11,1.983,1.983,0,0,1-.44-0.916,9.664,9.664,0,0,1-.293-2.527q-0.038-1.72-.037-5.09,0-2.856.293-6.226h0.074l2.343-.293q1.318-.072,3.516-0.073a23.143,23.143,0,0,1,3.809.22,7.169,7.169,0,0,1,.366,2.27A5.607,5.607,0,0,1,628,47.543a1.352,1.352,0,0,1-1.282.476A6.731,6.731,0,0,1,624.228,47.359Zm2.27,3.076a1.544,1.544,0,0,1,1.538.623,10.018,10.018,0,0,1,.293,3.186,28.435,28.435,0,0,1-.146,3.3,1.942,1.942,0,0,1-1.538.513,5.31,5.31,0,0,1-1.685-.293q-0.439-.439-0.439-4.248a6.719,6.719,0,0,1,.292-2.454,1.1,1.1,0,0,1,1.1-.623H626.5Zm33.618,33.252q-0.368,0-5.09.147t-7.727.147a24.8,24.8,0,0,1-3.809-.147q-0.879-.072-0.879-3.662a7.8,7.8,0,0,1,.44-2.856q0.585-.366,17.358-0.366,0.585,0.587.586,3.442,0,3.3-.879,3.3h0Zm-41.308-9.082a6.746,6.746,0,0,1-.44-2.637,20.209,20.209,0,0,1,.22-2.856l0.146-.147,1.245-.293h0.733q5.859,0.074,6.885.22,0.512,0.587.512,3.369a6.5,6.5,0,0,1-.293,2.051q-0.513.513-5.273,0.513a30.134,30.134,0,0,1-3.735-.22h0Zm9.155,3.662-0.073,5.054a0.244,0.244,0,0,0-.22.11,0.65,0.65,0,0,1-.183.183,1.856,1.856,0,0,1-.586.146,8.776,8.776,0,0,1-1.282.073q-1.611.074-4.028,0.073a15.368,15.368,0,0,1-2.783-.147q-0.368-.292-0.367-2.417,0-3.442.586-4.028,1.83-.072,8.5-0.073l0.44,0.513v0.513Z"/>
</svg>
