<?xml version="1.0" encoding="UTF-8"?>
<svg width="900px" height="140px" viewBox="0 0 900 140" version="1.1" xmlns="http://www.w3.org/2000/svg" xmlns:xlink="http://www.w3.org/1999/xlink">
    <!-- Generator: Sketch 59.1 (86144) - https://sketch.com -->
    <title>preview</title>
    <desc>Created with Sketch.</desc>
    <g id="preview" stroke="none" stroke-width="1" fill="none" fill-rule="evenodd">
        <path d="M356.25,52.25 C358.750013,54.9062633 361.015615,57.8749836 363.046875,61.15625 C363.046875,61.4687516 362.57813,62.4062422 361.640625,63.96875 C361.328123,64.4375023 361.093751,64.75 360.9375,64.90625 C360.624998,65.2187516 360.46875,65.1406273 360.46875,64.671875 C359.687496,61.3906086 358.125012,57.4062734 355.78125,52.71875 L356.25,52.25 Z M380.625,63.5 C382.031257,64.4375047 383.124996,65.2968711 383.90625,66.078125 C384.062501,66.2343758 383.984376,66.3125 383.671875,66.3125 L381.913654,66.43577 C379.896464,66.5833693 377.513801,66.7766532 374.765625,67.015625 L367.397648,67.7789833 C363.738743,68.1656574 361.116624,68.4580783 359.53125,68.65625 L359.956422,69.002765 C361.23548,70.0664021 361.875,70.8102657 361.875,71.234375 C361.093746,72.0156289 360.546877,72.9531195 360.234375,74.046875 C360.234375,74.2031258 360.15625,74.3593742 360,74.515625 L359.467455,76.1354506 C359.101331,77.2671065 358.810097,78.2115347 358.59375,78.96875 L358.881505,78.9633929 C360.573594,78.9044649 364.071402,78.3593802 369.375,77.328125 C369.843752,77.0156234 370.390622,76.3906297 371.015625,75.453125 L371.23698,75.1666656 C371.584203,74.7326367 371.822916,74.515625 371.953125,74.515625 C373.04688,75.1406281 373.984371,76.156243 374.765625,77.5625 C373.359368,78.6562555 372.578126,79.5156219 372.421875,80.140625 L372.011623,81.9271333 C368.74761,95.9611942 365.915637,103.803117 363.515625,105.453125 C363.359374,105.453125 362.812505,104.828131 361.875,103.578125 C360.312492,101.234363 358.671884,98.9687609 356.953125,96.78125 L357.421875,96.546875 C359.921888,98.4218844 361.953117,99.6718719 363.515625,100.296875 C366.48439,96.0781039 368.671868,89.0469242 370.078125,79.203125 L369.682124,79.2466251 C368.083621,79.4363751 365.559392,79.8906214 362.109375,80.609375 L361.354935,80.7314168 C360.872317,80.8063058 360.576924,80.84375 360.46875,80.84375 C359.999998,80.6874992 359.29688,80.3750023 358.359375,79.90625 C354.609356,92.7188141 347.031307,101.859348 335.625,107.328125 L335.15625,106.859375 C347.343811,99.0468359 354.687487,88.4219422 357.1875,74.984375 C357.65625,72.9531148 357.734377,70.8437609 357.421875,68.65625 C351.796847,69.2812531 346.171903,70.0624953 340.546875,71 L339.140625,71.234375 L338.363924,70.8614915 C336.257792,69.8277487 335.344826,69.1707988 335.625,68.890625 C335.781251,68.7343742 337.499984,68.5781258 340.78125,68.421875 L342.858698,68.279276 C358.312232,67.187503 370.900882,65.5944254 380.625,63.5 Z M435.234375,57.640625 L435.721031,57.9449882 C437.427851,59.0311464 438.28125,59.7890604 438.28125,60.21875 L438.298972,60.2205222 C438.280366,60.2329276 437.41509,60.3104612 435.703125,60.453125 L434.366541,60.5200099 C428.447228,60.8310243 423.814672,61.2774755 420.46875,61.859375 C421.718756,63.1093812 422.421874,63.9687477 422.578125,64.4375 C422.578125,64.5937508 422.500001,64.7499992 422.34375,64.90625 C422.031248,65.3750023 421.796876,66.312493 421.640625,67.71875 L421.640625,67.953125 C421.484374,71.7031438 421.484374,74.9843609 421.640625,77.796875 L422.659622,77.6448473 C428.487918,76.7580199 432.288842,75.8712038 434.0625,74.984375 L434.549156,75.2887382 C436.255976,76.3748964 437.109375,77.1328104 437.109375,77.5625 C431.796848,78.0312523 426.64065,78.8124945 421.640625,79.90625 L421.640625,97.71875 L424.320362,97.5201264 C433.603827,96.8050821 438.960533,96.0900459 440.390625,95.375 C443.046888,96.781257 444.296876,97.7187477 444.140625,98.1875 C426.953039,98.9687539 411.875065,100.296866 398.90625,102.171875 L398.391792,101.82536 C396.829995,100.761723 395.90774,100.017859 395.625,99.59375 L396.5625,99.59375 C399.531265,99.59375 403.124979,99.3593773 407.34375,98.890625 L407.332064,96.9390112 C407.290513,93.1578494 407.138159,87.7146737 406.875,80.609375 C406.875,77.4843594 406.32813,74.9843844 405.234375,73.109375 L405.703125,72.875 L406.796879,73.6106796 C408.489591,74.7608555 409.531248,75.531248 409.921875,75.921875 C409.921875,76.0781258 409.843751,76.3124984 409.6875,76.625 C409.39453,77.5039106 409.238891,78.863456 409.220581,80.7036727 L409.453125,98.65625 L409.453125,98.65625 L415.430496,98.233153 C416.949053,98.1216993 418.159718,98.0283569 419.0625,97.953125 L419.181143,90.7982838 C419.368096,77.9794473 419.328549,69.9738335 419.0625,66.78125 C418.906249,64.2812375 418.593752,62.640625 418.125,61.859375 C414.06248,62.1718766 409.921896,62.7187461 405.703125,63.5 L404.615623,63.6500003 C404.184373,63.7062503 403.921875,63.734375 403.828125,63.734375 C402.73437,63.1093719 401.875003,62.4062539 401.25,61.625 L409.23757,60.9240441 C423.61745,59.6205093 432.282971,58.5260461 435.234375,57.640625 Z M471.328125,52.484375 L472.03125,52.25 L472.563284,53.1007848 C474.067976,55.5336055 474.750001,56.8906236 474.609375,57.171875 C474.609375,57.3281258 474.531251,57.4843742 474.375,57.640625 C472.812492,59.046882 470.54689,62.249975 467.578125,67.25 L467.576273,100.326624 C467.54973,105.456121 467.23785,107.946181 466.640625,107.796875 C465.54687,106.546869 464.609379,104.828136 463.828125,102.640625 C463.828125,102.484374 463.984375,102.093753 464.296875,101.46875 C465.078129,99.75 465.46875,98.1093828 465.46875,96.546875 L465.703125,69.828125 L464.287378,71.4392429 C459.595774,76.7540756 456.395842,80.1232568 454.6875,81.546875 L453.984375,81.078125 L454.863578,80.077632 C466.144685,67.1664414 471.632814,57.9687774 471.328125,52.484375 Z M482.578125,53.1875 L483.28125,52.71875 L484.522646,54.0238515 C487.364568,57.0363712 489.06013,59.023196 489.609375,59.984375 C489.765626,61.390632 489.218756,63.1093648 487.96875,65.140625 C487.812499,65.140625 487.500002,64.5156312 487.03125,63.265625 C485.624993,59.671857 484.140633,56.3125156 482.578125,53.1875 Z M501.796875,66.078125 C503.515625,66.8593789 504.687497,67.6406211 505.3125,68.421875 L503.671875,68.65625 L502.242376,68.8325161 C497.399907,69.4394387 491.782702,70.2400518 485.390625,71.234375 L487.03125,73.8125 C486.406247,74.5937539 485.937502,75.9218656 485.625,77.796875 C485.312498,78.8906305 485.078126,79.9062453 484.921875,80.84375 C487.89064,80.5312484 490.937484,79.9843789 494.0625,79.203125 C494.531252,79.0468742 495.078122,78.578125 495.703125,77.796875 L495.9375,77.328125 C496.562503,77.4843758 497.578118,78.4218664 498.984375,80.140625 C498.04687,80.7656281 497.421877,81.3124977 497.109375,81.78125 L496.658793,84.0180827 C493.411777,99.8706867 490.593247,107.796875 488.203125,107.796875 C488.046874,107.796875 487.890626,107.640627 487.734375,107.328125 C486.79687,105.140614 484.921889,102.250018 482.109375,98.65625 L482.578125,97.953125 L488.4375,103.109375 C490.781262,100.921864 492.812491,93.6563117 494.53125,81.3125 C491.874987,81.6250016 489.53126,82.0156227 487.5,82.484375 C487.031248,82.6406258 486.718751,82.71875 486.5625,82.71875 C485.937497,82.71875 485.234379,82.4843773 484.453125,82.015625 C480.859357,93.7344336 475.703159,102.015601 468.984375,106.859375 L468.515625,106.15625 C478.046923,96.1562 482.968748,84.5938156 483.28125,71.46875 L481.931764,71.6374357 C478.851091,72.0386041 476.247305,72.4927529 474.120352,72.9998914 L473.671875,73.109375 C473.046872,73.2656258 472.734375,73.2656258 472.734375,73.109375 C471.328118,72.3281211 470.390627,71.6250031 469.921875,71 L472.797667,70.7456272 C487.566639,69.3970139 497.154829,67.8411935 501.5625,66.078125 L501.796875,66.078125 Z M536.71875,52.25 L537.1875,51.78125 L538.157048,52.503604 C541.148391,54.7515361 542.856443,56.2294886 543.28125,56.9375 C542.968748,58.6562586 542.343755,60.2968672 541.40625,61.859375 C541.249999,61.859375 541.093751,61.5468781 540.9375,60.921875 C539.999995,58.1093609 538.593759,55.2187648 536.71875,52.25 Z M538.125,67.015625 C539.687508,67.7968789 541.093744,68.8124938 542.34375,70.0625 L542.34375,70.765625 C541.718747,72.4843836 541.40625,74.6718617 541.40625,77.328125 C547.812532,76.8593727 552.187488,76.1562547 554.53125,75.21875 L555,75.21875 C556.718759,76.0000039 557.812498,76.9374945 558.28125,78.03125 L557.109375,78.03125 C553.203105,78.1875008 548.515652,78.5781219 543.046875,79.203125 C546.796894,84.9844039 550.703105,90.0624781 554.765625,94.4375 C556.796885,96.1562586 560.078102,97.4843703 564.609375,98.421875 L564.609375,99.125 L560.816379,99.3052886 C558.88591,99.4014422 557.103374,99.4975957 555.46875,99.59375 L555.118749,99.6479169 C554.41458,99.747223 554.0625,99.7291673 554.0625,99.59375 L552.421875,97.015625 L551.424034,95.3188391 C547.060174,87.939824 543.642818,82.7242158 541.171875,79.671875 L541.171875,103.109375 C541.171875,106.390641 541.015627,108.03125 540.703125,108.03125 C539.921871,107.562498 538.906256,105.921889 537.65625,103.109375 L537.890625,102.875 C538.671879,101.781245 539.0625,100.062512 539.0625,97.71875 L539.0625,80.375 C531.249961,90.8438023 523.515663,98.1874789 515.859375,102.40625 L515.15625,101.703125 C523.437541,95.9218461 530.468721,88.6562938 536.25,79.90625 L533.034365,80.3468764 C529.084359,80.896877 526.484381,81.2968738 525.234375,81.546875 C524.14062,80.9218719 523.203129,80.1406297 522.421875,79.203125 L524.765625,78.96875 C529.453148,78.6562484 534.218726,78.1875031 539.0625,77.5625 L539.058445,76.6185079 C539.015193,71.6963433 538.625923,68.573536 537.890625,67.25 L538.125,67.015625 Z M558.046875,59.75 C559.609383,60.8437555 560.703122,62.0156188 561.328125,63.265625 C561.328125,63.4218758 561.171877,63.5781242 560.859375,63.734375 C559.140616,64.9843812 557.031263,67.4843563 554.53125,71.234375 L553.828125,70.53125 L556.640625,63.96875 L553.065419,64.2208322 C549.373695,64.4950429 543.456079,64.9578887 535.3125,65.609375 L525.833335,66.4760415 C525.527779,66.5024304 525.250001,66.5260416 525,66.546875 L524.911867,67.2756684 C524.274597,72.2585799 523.210227,74.75 521.71875,74.75 C521.093747,73.343743 520.78125,72.0937555 520.78125,71 L521.015625,70.765625 C522.890634,69.0468664 523.906249,65.3750281 524.0625,59.75 L525,59.984375 L525.234375,64.671875 L529.530061,64.3400204 C545.30499,63.104714 554.341763,62.1997126 556.640625,61.625 C556.796876,61.625 557.109373,61.2343789 557.578125,60.453125 L558.046875,59.75 Z" id="方正仿宋" fill="#000000" fill-rule="nonzero"></path>
    </g>
</svg>