<?xml version="1.0" encoding="UTF-8"?>
<svg width="900px" height="140px" viewBox="0 0 900 140" version="1.1" xmlns="http://www.w3.org/2000/svg" xmlns:xlink="http://www.w3.org/1999/xlink">
    <!-- Generator: Sketch 59.1 (86144) - https://sketch.com -->
    <title>preview</title>
    <desc>Created with Sketch.</desc>
    <g id="preview" stroke="none" stroke-width="1" fill="none" fill-rule="evenodd">
        <path d="M352.734375,50.25 L353.203125,49.78125 L354.068291,50.2478318 C358.856119,52.8794963 361.692704,55.3020723 362.578125,57.515625 C362.578125,60.4843898 361.328138,62.1249984 358.828125,62.4375 C358.359373,62.4375 358.046876,61.8125062 357.890625,60.5625 C357.578123,56.968732 355.859391,53.5312664 352.734375,50.25 Z M382.5,59.15625 L388.359375,64.078125 L388.125,64.546875 L358.59375,64.546875 L358.537412,65.0487948 C358.327995,66.7605542 357.799903,69.8744734 356.953125,74.390625 L370.546875,74.390625 C370.859377,74.390625 371.874991,73.4531344 373.59375,71.578125 L374.607873,72.5457597 C376.900551,74.7510579 378.046875,75.9910024 378.046875,76.265625 L377.34375,76.96875 L376.730218,77.3836148 C375.795312,78.0263621 375.298649,78.4256404 375.240218,78.5814577 L375.234375,78.609375 C375.078124,79.5468797 374.921876,81.3437367 374.765625,84 L374.581801,85.9204235 C373.861823,93.1879673 373.141854,97.4696626 372.421875,98.765625 C371.171875,101.421888 368.515645,103.374994 364.453125,104.625 C364.765627,101.656235 362.109403,99.6250055 356.484375,98.53125 L356.484375,97.828125 L357.313504,97.9890008 C363.693781,99.1875071 367.381778,98.9363527 368.377594,97.2355318 L368.4375,97.125 C369.357643,95.4380703 370.202516,89.9882893 370.972142,80.7754977 L371.08774,79.4123493 C371.219952,77.9275095 371.352163,76.7223604 371.484375,75.796875 L356.71875,75.796875 C355.156242,92.203207 347.265696,102.281231 333.046875,106.03125 L332.8125,105.328125 C346.562569,99.5468461 353.749997,85.953232 354.375,64.546875 L335.390625,64.546875 L332.578125,65.25 L331.171875,63.140625 L379.21875,63.140625 L382.5,59.15625 Z M439.21875,53.296875 L444.84375,58.453125 L444.609375,58.921875 L422.8125,58.921875 L422.8125,77.203125 L433.59375,77.203125 L436.171875,73.6875 L441.09375,78.375 L441.09375,78.609375 L422.8125,78.609375 L422.8125,100.875 L437.8125,100.875 L440.625,96.65625 L447.1875,101.8125 L446.953125,102.28125 L397.03125,102.28125 L393.515625,102.75 L391.640625,100.875 L402.890625,100.875 L402.890625,79.3125 L402.65625,70.40625 C402.968752,70.5625008 403.359373,70.7187492 403.828125,70.875 L405.266879,71.4055203 C407.721546,72.325518 408.882576,72.8517986 408.75,72.984375 C408.75,73.296875 408.046882,73.9999945 406.640625,75.09375 L406.640625,100.875 L418.59375,100.875 L418.59375,58.921875 L401.25,58.921875 L397.734375,59.859375 L395.859375,57.515625 L436.40625,57.515625 L439.21875,53.296875 Z M475.078125,64.078125 L475.078125,49.78125 L476.406256,50.2268537 C479.7396,51.3534005 481.40625,51.9861104 481.40625,52.125 C481.40625,52.2572115 481.18251,52.5572278 480.735023,53.0250544 L480.46875,53.296875 C479.531245,54.2343797 479.0625,54.8593734 479.0625,55.171875 L479.0625,64.078125 L490.546875,64.078125 C490.859377,64.078125 491.562495,63.4531312 492.65625,62.203125 L493.359375,61.5 C494.45313,62.1250031 495.937491,63.4531148 497.8125,65.484375 L496.875,66.1875 L496.470043,66.3927522 C495.778473,66.7487071 495.366587,66.9927878 495.234375,67.125 L494.0625,78.84375 L498.28125,78.84375 C498.593752,78.84375 499.140621,78.2968805 499.921875,77.203125 L500.175384,76.8922182 C500.653701,76.3182369 500.959821,76.03125 501.09375,76.03125 C503.593763,77.5937578 505.234371,78.9999938 506.015625,80.25 L505.3125,80.71875 C503.906243,81.6562547 503.125001,82.3593727 502.96875,82.828125 L502.96875,84 L502.884027,84.9828749 C502.266896,91.9040459 501.435769,96.1857557 500.390625,97.828125 C498.515616,99.7031344 496.328138,100.874998 493.828125,101.34375 L493.59375,100.640625 C493.28125,97.8281109 491.250019,96.1093781 487.5,95.484375 L487.5,95.015625 L488.295837,95.1151625 C493.879889,95.7953357 496.895831,95.7621565 497.34375,95.015625 C498.750007,91.1093555 499.531249,86.1875297 499.6875,80.25 L479.0625,80.25 L479.296875,103.6875 C478.671872,104.78125 477.265636,105.484373 475.078125,105.796875 L475.078125,80.25 L457.96875,80.25 L454.6875,80.953125 L453.28125,78.84375 L475.078125,78.84375 L475.078125,65.484375 L462.421875,65.484375 L459.609375,65.953125 L458.203125,64.078125 L475.078125,64.078125 Z M489.84375,54 L489.84375,53.53125 L490.763662,53.6576394 C497.230279,54.5733833 500.986106,55.7031183 502.03125,57.046875 C504.06251,59.7031383 504.140634,61.9687406 502.265625,63.84375 C501.953123,63.84375 501.32813,63.2968805 500.390625,62.203125 C497.42186,58.4531062 493.90627,55.7187586 489.84375,54 Z M479.0625,65.484375 L479.0625,78.84375 L490.3125,78.84375 L491.71875,65.71875 L491.71875,65.484375 L479.0625,65.484375 Z M535.078125,50.015625 C539.296896,51.2656312 541.796871,52.515625 542.578125,53.765625 C543.67188,55.6406344 543.125011,57.4374914 540.9375,59.15625 L558.984375,59.15625 L559.610972,58.2235295 C560.778067,56.5015858 561.428571,55.640625 561.5625,55.640625 L562.5,56.34375 L564.107149,57.5921605 C567.053587,59.9072179 568.392858,61.1316958 568.125,61.265625 C568.125,61.4218758 567.968752,61.4218758 567.65625,61.265625 C564.374984,60.9531234 560.312524,63.5312227 555.46875,69 L554.765625,68.53125 L555.19013,67.8795445 C555.498644,67.398838 555.904015,66.7567004 556.40625,65.953125 L557.165532,64.53985 C558.648371,61.7531359 559.254647,60.4273642 558.984375,60.5625 L521.71875,60.5625 C521.875001,64.6250203 520.781262,67.359368 518.4375,68.765625 C517.031243,69.3906281 515.703131,69.3125039 514.453125,68.53125 C513.40312,67.7812463 513.433119,66.959254 514.54312,66.0652505 L514.687495,65.953125 C514.687495,65.953125 514.765624,65.8750008 514.921875,65.71875 C518.203141,64.1562422 519.999998,60.6406523 520.3125,55.171875 L521.25,55.171875 L521.71875,59.15625 L539.296875,59.15625 C539.012783,58.8721577 538.79326,58.3298073 538.638301,57.5291849 L538.59375,57.28125 C538.124998,54.4687359 536.87501,52.2031336 534.84375,50.484375 L535.078125,50.015625 Z M537.1875,62.203125 L538.536987,62.5729361 C541.699843,63.4569135 543.28125,64.0367633 543.28125,64.3125 L542.34375,65.015625 C541.718747,65.3281266 541.328126,65.5624992 541.171875,65.71875 L541.171875,74.859375 L556.640625,74.859375 L559.921875,70.875 L566.015625,75.796875 L566.015625,76.265625 L543.75,76.265625 C548.125022,86.7344273 556.093692,93.0624891 567.65625,95.25 L567.65625,95.953125 C564.687485,95.953125 562.421883,97.0468641 560.859375,99.234375 C551.95308,94.7031023 545.703143,87.0469289 542.109375,76.265625 L541.171875,76.265625 L541.171875,104.625 C539.609367,105.562505 538.203131,106.03125 536.953125,106.03125 L537.014436,104.490667 C537.275288,97.4627423 537.332975,89.1482161 537.1875,79.546875 C530.312466,89.3906742 521.718802,97.0468477 511.40625,102.515625 L510.9375,101.8125 C522.500058,93.6874594 530.31248,85.1719195 534.375,76.265625 L517.734375,76.265625 L514.453125,76.96875 L513.046875,74.859375 L537.421875,74.859375 L537.447016,73.7775147 C537.568124,68.1200535 537.481619,64.2619588 537.1875,62.203125 Z" id="方正书宋" fill="#000000" fill-rule="nonzero"></path>
    </g>
</svg>