<?xml version="1.0" encoding="UTF-8"?>
<svg width="513px" height="140px" viewBox="0 0 513 140" version="1.1" xmlns="http://www.w3.org/2000/svg" xmlns:xlink="http://www.w3.org/1999/xlink">
    <!-- Generator: Sketch 59.1 (86144) - https://sketch.com -->
    <title>preview</title>
    <desc>Created with Sketch.</desc>
    <g id="preview" stroke="none" stroke-width="1" fill="none" fill-rule="evenodd">
        <rect fill="#FFFFFF" x="0" y="0" width="513" height="140"></rect>
        <path d="M163.015625,45.875 C161.453117,44.6249938 161.68749,44 163.71875,44 C167.156267,44.3125016 169.656242,45.0156195 171.21875,46.109375 C173.25001,49.8593937 173.015637,51.734375 170.515625,51.734375 C169.42187,51.2656227 167.703137,49.9375109 165.359375,47.75 L164.699297,47.1903682 C163.94515,46.55899 163.38393,46.1205369 163.015625,45.875 Z M184.578125,54.78125 C187.54689,54.6249992 189.890616,55.3281172 191.609375,56.890625 C192.70313,58.296882 191.609391,59 188.328125,59 L186.453125,59 C180.828097,58.8437492 174.656284,59.0781219 167.9375,59.703125 C169.343757,60.7968805 170.046875,61.5781227 170.046875,62.046875 C170.203126,62.3593766 169.968753,62.9843703 169.34375,63.921875 L169.054397,64.3153946 C168.743826,64.7474936 168.527778,65.0850682 168.40625,65.328125 C170.43751,66.0535751 172.266655,66.442204 173.893733,66.4940211 L174.265625,66.5 C174.890628,66.5 175.281249,66.5781242 175.4375,66.734375 C178.093763,67.9843812 179.812496,69.3906172 180.59375,70.953125 C180.59375,71.1093758 180.359377,71.3437484 179.890625,71.65625 C178.640619,72.4375039 177.937501,73.6874914 177.78125,75.40625 C176.843745,80.2500242 175.203137,84.5468562 172.859375,88.296875 C171.140616,91.1093891 169.187511,92.2812523 167,91.8125 C166.687498,91.8125 166.375002,91.109382 166.0625,89.703125 C165.593748,87.6718648 164.89063,86.1093805 163.953125,85.015625 L163.749566,84.7520532 C162.754751,83.4112167 163.213226,83.1084522 165.125,83.84375 C167.15626,84.7812547 168.562496,85.1718758 169.34375,85.015625 C172.781267,81.2656063 174.578124,76.4219047 174.734375,70.484375 C174.421873,69.8593719 173.328134,69.1562539 171.453125,68.375 C169.578116,67.7499969 168.328128,67.1250031 167.703125,66.5 C160.984341,77.5938055 153.250044,84.8593578 144.5,88.296875 L144.050056,88.4184034 C141.606951,89.0578744 140.975689,88.8611163 142.15625,87.828125 C156.06257,79.0780812 163.796867,69.7812992 165.359375,59.9375 L164.044803,60.1372253 C157.359603,61.1735865 152.329089,62.2788767 148.953125,63.453125 L148.406249,63.5833337 C148.093749,63.6527781 147.885417,63.6875 147.78125,63.6875 L146.963772,63.4701548 C142.802854,62.328282 141.825357,61.4632382 144.03125,60.875 L146.834684,60.5584314 C160.970251,58.9359251 172.145048,57.2445879 180.359375,55.484375 L181.050338,55.328665 C182.712864,54.9637201 183.888783,54.78125 184.578125,54.78125 Z M238.71875,47.28125 L239.272569,47.3259985 C243.210441,47.6833951 244.432073,48.684095 242.9375,50.328125 L242.475236,50.4676152 C239.897376,51.2202126 235.520251,52.1112081 229.34375,53.140625 C231.062509,53.9218789 231.921875,54.6249969 231.921875,55.25 C231.921875,55.4062508 231.843751,55.7968719 231.6875,56.421875 L231.604209,57.0417117 C231.333031,59.1853104 231.126421,62.1036747 230.984375,65.796875 C232.703134,65.3281227 234.734363,64.7031289 237.078125,63.921875 L238.34766,63.5855025 C239.306861,63.3409999 239.899304,63.21875 240.125,63.21875 C242.15626,63.21875 243.562496,63.5312469 244.34375,64.15625 C244.968753,64.78125 244.656256,65.4062469 243.40625,66.03125 C241.843742,66.8125039 237.781283,67.5156219 231.21875,68.140625 L230.75,80.328125 L236.140645,79.6249972 C244.34379,78.5833275 248.640623,78.192707 249.03125,78.453125 C251.531262,78.9218773 253.249995,79.9374922 254.1875,81.5 C254.812503,83.0625078 253.875012,83.6875016 251.375,83.375 C239.187439,81.6562414 225.359452,82.5156078 209.890625,85.953125 L208.683874,86.160738 C207.503077,86.3715945 206.733458,86.5367641 206.375,86.65625 L205.567506,86.4061456 C201.111494,84.99333 200.286918,84.139206 203.09375,83.84375 L203.684473,83.8054846 C206.33754,83.6189412 210.2031,83.1629501 215.28125,82.4375 C215.124999,81.031243 215.046875,79.2343859 215.046875,77.046875 C214.890624,75.3281164 214.8125,73.8437562 214.8125,72.59375 C214.656249,68.2187281 213.875007,65.1718836 212.46875,63.453125 C212.156248,62.9843727 212.078124,62.5937516 212.234375,62.28125 C214.421886,61.3437453 216.453116,62.2812359 218.328125,65.09375 L218.328125,66.03125 C218.015623,67.9062594 217.937499,70.7968555 218.09375,74.703125 L218.09375,81.96875 L220.202689,81.6639285 C223.395923,81.2149674 225.896051,80.9259517 227.703125,80.796875 L227.833488,77.505903 C228.299467,64.7358867 228.099764,56.6923243 227.234375,53.375 C225.515616,53.8437523 223.562511,54.078125 221.375,54.078125 C218.718737,53.9218742 216.92188,53.5312531 215.984375,52.90625 C215.515623,52.4374977 216.453113,52.0468766 218.796875,51.734375 C222.859395,51.2656227 227.781221,50.1718836 233.5625,48.453125 L234.527754,48.1887489 C236.77176,47.583747 238.168747,47.28125 238.71875,47.28125 Z M297.546875,41.1875 L297.78125,41.1875 C300.437513,42.4375062 301.531252,43.6093745 301.0625,44.703125 C301.0625,44.8593758 300.984376,45.0156242 300.828125,45.171875 C299.89062,47.5156367 299.421875,50.2499844 299.421875,53.375 C302.859392,51.4999906 304.734373,49.7812578 305.046875,48.21875 C305.359377,46.9687438 306.140619,46.8906195 307.390625,47.984375 L307.795479,48.3677664 C309.662682,50.1736721 310.23085,51.2958647 309.5,51.734375 C308.249994,51.8906258 306.296888,52.5156195 303.640625,53.6093745 L302.404952,54.0171051 C301.101328,54.4424014 300.02885,54.7752392 299.1875,55.015625 L299.192881,56.0721105 C299.222776,58.8722628 299.377231,60.5513364 299.65625,61.1093745 C300.125002,62.3593812 301.453114,62.984375 303.640625,62.984375 C306.296888,62.984375 308.249994,62.5156297 309.5,61.578125 C310.550005,61.1281243 311.239999,59.6701372 311.57,57.2041265 L311.609375,56.890625 C311.765626,55.6406188 311.999998,55.015625 312.3125,55.015625 C312.468751,55.015625 312.703123,55.718743 313.015625,57.125 C313.171874,58.531257 313.562497,59.937493 314.1875,61.34375 C314.812503,62.1250039 314.656255,62.7499977 313.71875,63.21875 C308.406223,66.5000164 303.562522,66.9687617 299.1875,64.625 C297.312491,63.3749938 296.531248,60.5625219 296.84375,56.1875 L296.84375,55.015625 C296.84375,54.5468727 296.921874,53.8437547 297.078125,52.90625 C297.546877,47.4374727 297.156256,44.000007 295.90625,42.59375 C295.593748,41.9687469 295.593748,41.5781258 295.90625,41.421875 C296.218752,41.1093745 296.765621,41.0312492 297.546875,41.1875 Z M273.171875,41.65625 C276.921894,42.7500055 278.562502,43.999993 278.09375,45.40625 C277.312496,46.65625 276.765627,49.4687281 276.453125,53.84375 L276.344791,54.9937529 C276.260763,55.956253 276.21875,56.6666644 276.21875,57.125 C281.375026,55.8749938 283.640628,56.1093664 283.015625,57.828125 C282.859374,58.2968773 281.843759,58.6874984 279.96875,59 C278.406242,59.3125016 277.07813,59.6249984 275.984375,59.9375 L275.984375,66.734375 C277.859384,67.2031273 279.421869,67.9843695 280.671875,69.078125 C281.76563,70.0156297 282.078127,71.1093688 281.609375,72.359375 C281.140623,73.1406289 280.35938,73.0625047 279.265625,72.125 L278.694336,71.5390625 C278.020509,70.8359393 277.039069,69.781257 275.75,68.375 L275.75,74.9375 L275.975,85.8875012 C275.98125,86.3374996 275.984375,86.6718739 275.984375,86.890625 L275.946474,87.5806548 C275.750836,90.5904761 275.216599,92.3135754 274.34375,92.75 C273.406245,93.0625016 272.468755,91.7343898 271.53125,88.765625 C271.374999,88.2968727 271.453123,87.5156305 271.765625,86.421875 C272.348961,84.08853 272.79618,81.3468884 273.107291,78.1968778 L273.248373,76.7115858 C273.522896,73.6798954 273.73177,69.729191 273.875,64.859375 C269.343727,72.0469109 265.281268,77.0468609 261.6875,79.859375 L261.270061,80.2033115 C259.661327,81.5124884 258.784856,82.022838 258.640625,81.734375 C258.496874,81.3031228 259.146618,80.2767576 260.589873,78.6552519 L260.984375,78.21875 C265.828149,72.9062234 269.812484,67.046907 272.9375,60.640625 L271.577339,60.8542706 C267.489137,61.4779722 264.739422,61.7192547 263.328125,61.578125 C262.39062,61.4218742 261.687502,61.1093773 261.21875,60.640625 C260.906248,60.1718727 261.140621,59.8593758 261.921875,59.703125 L262.859375,59.46875 L264.250047,59.2350237 C266.826225,58.7987355 269.956396,58.251648 273.640625,57.59375 L273.640625,56.421875 C274.265628,50.1718438 273.875007,46.1093844 272.46875,44.234375 C271.999998,43.2968703 271.765625,42.6718766 271.765625,42.359375 C271.921876,41.8906227 272.390621,41.65625 273.171875,41.65625 Z M284.65625,47.28125 C287.375014,48.1875045 288.633683,49.2397514 288.432292,50.4380203 L288.40625,50.5625 C288.093748,51.968757 287.9375,53.374993 287.9375,54.78125 L291.6875,53.375 C292.156252,53.0624984 292.468749,52.90625 292.625,52.90625 C294.812511,52.7499992 295.750002,53.1406203 295.4375,54.078125 C294.343745,55.484382 291.765645,56.1875 287.703125,56.1875 L287.46875,63.6875 L287.46875,63.6875 C288.093753,63.6875 289.656237,62.984382 292.15625,61.578125 C293.406256,60.9531219 294.265623,60.7968734 294.734375,61.109375 C294.734375,61.4218766 294.109381,62.0468703 292.859375,62.984375 C290.671864,64.2343812 288.093765,66.3437352 285.125,69.3125 C283.406241,69.7812523 282.781248,68.6093891 283.25,65.796875 C284.812508,64.5468688 285.515626,61.6562727 285.359375,57.125 C285.203124,53.531232 284.656255,50.7968844 283.71875,48.921875 C283.249998,48.4531227 283.093749,48.0625016 283.25,47.75 C283.562502,47.2812477 284.031247,47.1249992 284.65625,47.28125 Z M293.09375,66.734375 L293.881336,66.9499825 C296.266446,67.631442 297.175784,68.1845682 296.609375,68.609375 C295.51562,69.3906289 293.718763,71.1093617 291.21875,73.765625 C294.500016,73.1406219 297.468737,72.2812555 300.125,71.1875 L300.447267,71.0849606 C300.740235,70.9970699 300.945312,70.953125 301.0625,70.953125 C304.96877,71.5781281 306.921875,72.8281156 306.921875,74.703125 C306.140621,76.2656328 305.828124,78.6874836 305.984375,81.96875 L305.984375,85.953125 C305.828124,90.4843977 304.656261,93.453118 302.46875,94.859375 C301.999998,95.1718766 301.453128,94.1562617 300.828125,91.8125 C300.359373,89.6249891 299.890627,88.0625047 299.421875,87.125 L289.34375,87.828125 C289.500001,90.3281375 289.265628,91.6562492 288.640625,91.8125 C287.54687,91.4999984 286.843752,90.3281352 286.53125,88.296875 C286.843752,83.7656023 286.375006,79.3125219 285.125,74.9375 C284.656248,74.1562461 284.656248,73.6875008 285.125,73.53125 C285.593752,73.53125 286.687491,73.8437469 288.40625,74.46875 L289.34375,74.234375 C291.37501,72.0468641 292.156252,70.0156344 291.6875,68.140625 L291.6875,67.90625 C291.218748,67.1249961 291.687493,66.734375 293.09375,66.734375 Z M300.359375,74.234375 L299.65625,74.234375 L299.469723,74.2376189 C298.362455,74.2722207 295.455906,74.5836368 290.75,75.171875 C289.968746,75.3281258 289.343752,75.40625 288.875,75.40625 L289.109375,79.859375 L289.898003,79.6815002 C296.861124,78.1371287 300.191966,78.118296 299.890625,79.625 C298.640619,81.031257 295.125029,81.6562508 289.34375,81.5 L289.34375,86.421875 L290.974672,86.2055282 C293.913841,85.8088932 296.573305,85.4122616 298.953125,85.015625 C299.265627,84.8593742 299.812496,85.2499953 300.59375,86.1875 C301.062502,86.6562523 301.375,86.890625 301.53125,86.890625 C302.781252,86.4218727 303.093753,83.3750281 302.46875,77.75 C301.999998,75.4062383 301.29688,74.234375 300.359375,74.234375 Z M349.109375,43.0625 C352.07814,44.0000047 353.406252,45.0156195 353.09375,46.109375 C352.468747,46.8906289 352.078126,50.484343 351.921875,56.890625 C354.421888,56.4218727 356.765614,55.8750031 358.953125,55.25 C359.578128,54.9374984 360.046873,54.78125 360.359375,54.78125 C364.265645,54.9375008 365.828129,55.7968672 365.046875,57.359375 L364.674974,57.4446025 C364.070635,57.5724435 363.257107,57.7002835 362.234375,57.828125 C359.26561,57.9843745 356.062517,58.3749969 352.625,59 C358.875031,69.7813039 365.749963,76.3437383 373.25,78.6875 L373.665227,78.8464539 C374.638413,79.2276184 375.125,79.4871317 375.125,79.625 C375.125,79.9375016 374.57813,80.09375 373.484375,80.09375 C368.953102,80.5625023 365.750009,80.4062539 363.875,79.625 C361.84374,78.5312445 357.859405,72.1250586 351.921875,60.40625 L351.859694,61.8412015 C351.744897,65.0363528 351.6875,70.1830002 351.6875,77.28125 L352.659722,77.0266206 C353.122683,76.9012351 353.657983,76.751737 354.265625,76.578125 C355.35938,75.9531219 356.218747,75.7187492 356.84375,75.875 C358.250007,76.1875016 358.953125,76.6562469 358.953125,77.28125 C358.953125,77.9062531 358.171883,78.2968742 356.609375,78.453125 C356.453124,78.453125 355.984379,78.6093734 355.203125,78.921875 C353.953119,79.0781258 352.85938,79.3124984 351.921875,79.625 L351.921875,86.65625 C351.921875,91.8125258 351.45313,94.4687492 350.515625,94.625 C349.265619,93.9999969 348.328128,92.5156367 347.703125,90.171875 C347.703125,90.0156242 347.781249,89.7031273 347.9375,89.234375 C348.718754,87.0468641 349.109375,84.0000195 349.109375,80.09375 C347.703118,80.4062516 346.375006,80.4843745 345.125,80.328125 C343.874994,80.1718742 342.859379,79.9375016 342.078125,79.625 C341.765623,79.3124984 342.07812,79.0000016 343.015625,78.6875 L344.112273,78.583333 C346.905491,78.3055546 348.649302,78.0277792 349.34375,77.75 L349.34375,70.25 L349.450083,67.4002766 C349.535445,64.904707 349.578125,62.9640015 349.578125,61.578125 C346.60936,69.8594164 341.531286,76.3437266 334.34375,81.03125 L333.40625,80.796875 C333.40625,82.5156336 333.328126,84.4687391 333.171875,86.65625 L333.171875,87.828125 L333.139161,88.347239 C332.947902,90.9225772 332.411936,91.8432802 331.53125,91.109375 C330.437495,89.703118 329.812501,87.5937641 329.65625,84.78125 C329.499999,83.9999961 329.734372,82.906257 330.359375,81.5 L330.729746,80.1805543 C330.864776,79.6886573 330.975694,79.269099 331.0625,78.921875 L331.126041,78.5116477 C331.406957,76.5653005 331.62015,73.2645707 331.765625,68.609375 L331.762181,67.4906839 C331.737692,63.6784252 331.582591,61.6294657 331.296875,61.34375 C327.546856,66.8125273 324.031266,70.5624898 320.75,72.59375 C320.124997,73.0625023 319.734376,73.2187508 319.578125,73.0625 C319.421874,72.7499984 319.578123,72.2812531 320.046875,71.65625 C328.171916,62.4374539 332.781245,54.1562867 333.875,46.8125 C333.718749,46.0312461 333.796873,45.5625008 334.109375,45.40625 C334.265626,45.0937484 334.656247,45.0937484 335.28125,45.40625 C338.406266,47.1250086 339.500005,48.687493 338.5625,50.09375 C337.781246,50.7187531 336.296886,52.9062313 334.109375,56.65625 L333.593471,57.6755759 C333.047983,58.7388161 332.594954,59.5709105 332.234375,60.171875 C333.953134,61.4218812 334.500003,62.6718688 333.875,63.921875 L333.841518,64.0773281 C333.702008,64.8147326 333.562501,66.6731756 333.422991,69.6527008 L333.40625,70.015625 C333.249999,73.7656438 333.249999,77.1249852 333.40625,80.09375 C339.34378,76.3437312 344.109357,69.6250484 347.703125,59.9375 L346.429315,60.153697 C344.268646,60.5276588 342.662012,60.8462158 341.609375,61.109375 L341.116722,60.9884072 C338.839299,60.4037296 338.066025,59.8190553 338.796875,59.234375 C342.234392,58.9218734 345.828106,58.2968797 349.578125,57.359375 L349.596042,56.3966898 C349.697735,49.7799266 349.301141,45.7258597 348.40625,44.234375 C348.093748,43.9218734 348.015624,43.6093766 348.171875,43.296875 C348.328126,42.9843745 348.640623,42.9062492 349.109375,43.0625 Z" id="方正楷体" fill="#000000" fill-rule="nonzero"></path>
    </g>
</svg>