<?xml version="1.0" encoding="UTF-8"?>
<svg width="900px" height="140px" viewBox="0 0 900 140" version="1.1" xmlns="http://www.w3.org/2000/svg" xmlns:xlink="http://www.w3.org/1999/xlink">
    <!-- Generator: Sketch 59.1 (86144) - https://sketch.com -->
    <title>FangZhengKaiTi</title>
    <desc>Created with Sketch.</desc>
    <g id="FangZhengKaiTi" stroke="none" stroke-width="1" fill="none" fill-rule="evenodd">
        <rect fill="#FFFFFF" x="0" y="0" width="900" height="140"></rect>
        <path d="M354.436304,47.7656255 C352.873796,46.5156193 353.108168,45.8906255 355.139429,45.8906255 C358.576946,46.2031271 361.076921,46.906245 362.639429,48.0000005 C364.670689,51.7500193 364.436316,53.6250005 361.936304,53.6250005 C360.842548,53.1562482 359.123815,51.8281364 356.780054,49.6406255 L356.119975,49.0809937 C355.365829,48.4496155 354.804609,48.0111624 354.436304,47.7656255 Z M375.998804,56.6718755 C378.967568,56.5156247 381.311295,57.2187427 383.030054,58.7812505 C384.123809,60.1875075 383.03007,60.8906255 379.748804,60.8906255 L377.873804,60.8906255 C372.248775,60.7343747 366.076962,60.9687474 359.358179,61.5937505 C360.764436,62.687506 361.467554,63.4687482 361.467554,63.9375005 C361.623804,64.2500021 361.389432,64.8749958 360.764429,65.8125005 L360.475076,66.2060201 C360.164505,66.6381191 359.948457,66.9756937 359.826929,67.2187505 C361.858189,67.9442006 363.687334,68.3328295 365.314411,68.3846466 L365.686304,68.3906255 C366.311307,68.3906255 366.701928,68.4687497 366.858179,68.6250005 C369.514442,69.8750068 371.233175,71.2812427 372.014429,72.8437505 C372.014429,73.0000013 371.780056,73.2343739 371.311304,73.5468755 C370.061297,74.3281294 369.358179,75.5781169 369.201929,77.2968755 C368.264424,82.1406497 366.623815,86.4374818 364.280054,90.1875005 C362.561295,93.0000146 360.60819,94.1718778 358.420679,93.7031255 C358.108177,93.7031255 357.79568,93.0000075 357.483179,91.5937505 C357.014426,89.5624903 356.311308,88.000006 355.373804,86.9062505 L355.170245,86.6426787 C354.17543,85.3018422 354.633904,84.9990777 356.545679,85.7343755 C358.576939,86.6718802 359.983175,87.0625013 360.764429,86.9062505 C364.201946,83.1562318 365.998803,78.3125302 366.155054,72.3750005 C365.842552,71.7499974 364.748813,71.0468794 362.873804,70.2656255 C360.998794,69.6406224 359.748807,69.0156286 359.123804,68.3906255 C352.40502,79.484431 344.670722,86.7499833 335.920679,90.1875005 L335.470734,90.3090289 C333.027629,90.9484999 332.396367,90.7517418 333.576929,89.7187505 C347.483248,80.9687068 355.217546,71.6719247 356.780054,61.8281255 L355.465482,62.0278508 C348.780282,63.064212 343.749767,64.1695022 340.373804,65.3437505 L339.826927,65.4739592 C339.514428,65.5434036 339.306096,65.5781255 339.201929,65.5781255 L338.384451,65.3607803 C334.223532,64.2189075 333.246035,63.3538637 335.451929,62.7656255 L338.255362,62.4490569 C352.39093,60.8265506 363.565727,59.1352134 371.780054,57.3750005 L372.471016,57.2192905 C374.133543,56.8543456 375.309462,56.6718755 375.998804,56.6718755 Z M430.139429,49.1718755 L430.693247,49.216624 C434.63112,49.5740206 435.852751,50.5747205 434.358179,52.2187505 L433.895915,52.3582407 C431.318054,53.1108381 426.94093,54.0018336 420.764429,55.0312505 C422.483187,55.8125044 423.342554,56.5156224 423.342554,57.1406255 C423.342554,57.2968763 423.264429,57.6874974 423.108179,58.3125005 L423.024888,58.9323372 C422.753709,61.0759359 422.5471,63.9943002 422.405054,67.6875005 C424.123812,67.2187482 426.155042,66.5937544 428.498804,65.8125005 L429.768338,65.476128 C430.72754,65.2316254 431.319983,65.1093755 431.545679,65.1093755 C433.576939,65.1093755 434.983175,65.4218724 435.764429,66.0468755 C436.389432,66.6718755 436.076935,67.2968724 434.826929,67.9218755 C433.264421,68.7031294 429.201961,69.4062474 422.639429,70.0312505 L422.170679,82.2187505 L427.561324,81.5156227 C435.764469,80.473953 440.061302,80.0833325 440.451929,80.3437505 C442.951941,80.8125028 444.670674,81.8281177 445.608179,83.3906255 C446.233182,84.9531333 445.295691,85.5781271 442.795679,85.2656255 C430.608118,83.5468669 416.780131,84.4062333 401.311304,87.8437505 L400.104553,88.0513635 C398.923756,88.26222 398.154136,88.4273896 397.795679,88.5468755 L396.988185,88.2967711 C392.532173,86.8839555 391.707596,86.0298315 394.514429,85.7343755 L395.105151,85.6961101 C397.758218,85.5095667 401.623778,85.0535756 406.701929,84.3281255 C406.545678,82.9218685 406.467554,81.1250114 406.467554,78.9375005 C406.311303,77.2187419 406.233179,75.7343818 406.233179,74.4843755 C406.076928,70.1093536 405.295686,67.0625091 403.889429,65.3437505 C403.576927,64.8749982 403.498803,64.4843771 403.655054,64.1718755 C405.842565,63.2343708 407.873794,64.1718614 409.748804,66.9843755 L409.748804,67.9218755 C409.436302,69.7968849 409.358178,72.687481 409.514429,76.5937505 L409.514429,83.8593755 L411.623367,83.554554 C414.816602,83.1055929 417.316729,82.8165772 419.123804,82.6875005 L419.254167,79.3965285 C419.720146,66.6265122 419.520443,58.5829498 418.655054,55.2656255 C416.936295,55.7343778 414.98319,55.9687505 412.795679,55.9687505 C410.139415,55.8124997 408.342558,55.4218786 407.405054,54.7968755 C406.936301,54.3281232 407.873792,53.9375021 410.217554,53.6250005 C414.280074,53.1562482 419.2019,52.0625091 424.983179,50.3437505 L425.948432,50.0793744 C428.192439,49.4743725 429.589426,49.1718755 430.139429,49.1718755 Z M488.967554,43.0781255 L489.201929,43.0781255 C491.858192,44.3281318 492.951931,45.5 492.483179,46.5937505 C492.483179,46.7500013 492.405054,46.9062497 492.248804,47.0625005 C491.311299,49.4062622 490.842554,52.1406099 490.842554,55.2656255 C494.280071,53.3906161 496.155052,51.6718833 496.467554,50.1093755 C496.780055,48.8593693 497.561297,48.781245 498.811304,49.8750005 L499.216157,50.2583919 C501.083361,52.0642976 501.651529,53.1864902 500.920679,53.6250005 C499.670672,53.7812513 497.717567,54.406245 495.061304,55.5 L493.825631,55.9077306 C492.522006,56.3330269 491.449529,56.6658647 490.608179,56.9062505 L490.61356,57.962736 C490.643454,60.7628883 490.797909,62.4419619 491.076929,63 C491.545681,64.2500068 492.873793,64.8750005 495.061304,64.8750005 C497.717567,64.8750005 499.670672,64.4062552 500.920679,63.4687505 C501.970684,63.0187498 502.660678,61.5607627 502.990678,59.094752 L503.030054,58.7812505 C503.186304,57.5312443 503.420677,56.9062505 503.733179,56.9062505 C503.889429,56.9062505 504.123802,57.6093685 504.436304,59.0156255 C504.592552,60.4218825 504.983175,61.8281185 505.608179,63.2343755 C506.233182,64.0156294 506.076933,64.6406232 505.139429,65.1093755 C499.826902,68.3906419 494.9832,68.8593872 490.608179,66.5156255 C488.733169,65.2656193 487.951927,62.4531474 488.264429,58.0781255 L488.264429,56.9062505 C488.264429,56.4374982 488.342553,55.7343802 488.498804,54.7968755 C488.967556,49.3280982 488.576935,45.8906325 487.326929,44.4843755 C487.014427,43.8593724 487.014427,43.4687513 487.326929,43.3125005 C487.63943,43 488.1863,42.9218747 488.967554,43.0781255 Z M464.592554,43.5468755 C468.342572,44.640631 469.983181,45.8906185 469.514429,47.2968755 C468.733175,48.5468755 468.186305,51.3593536 467.873804,55.7343755 L467.76547,56.8843784 C467.681442,57.8468785 467.639429,58.5572899 467.639429,59.0156255 C472.795704,57.7656193 475.061307,57.9999919 474.436304,59.7187505 C474.280053,60.1875028 473.264438,60.5781239 471.389429,60.8906255 C469.826921,61.2031271 468.498809,61.5156239 467.405054,61.8281255 L467.405054,68.6250005 C469.280063,69.0937528 470.842547,69.874995 472.092554,70.9687505 C473.186309,71.9062552 473.498806,72.9999943 473.030054,74.2500005 C472.561301,75.0312544 471.780059,74.9531302 470.686304,74.0156255 L470.115014,73.429688 C469.441188,72.7265648 468.459748,71.6718825 467.170679,70.2656255 L467.170679,76.8281255 L467.395679,87.7781267 C467.401929,88.2281251 467.405054,88.5624994 467.405054,88.7812505 L467.367152,89.4712803 C467.171515,92.4811016 466.637278,94.2042009 465.764429,94.6406255 C464.826924,94.9531271 463.889433,93.6250153 462.951929,90.6562505 C462.795678,90.1874982 462.873802,89.406256 463.186304,88.3125005 C463.76964,85.9791555 464.216858,83.2375139 464.52797,80.0875033 L464.669051,78.6022113 C464.943575,75.5705209 465.152449,71.6198165 465.295679,66.7500005 C460.764406,73.9375364 456.701947,78.9374864 453.108179,81.7500005 L452.69074,82.093937 C451.082006,83.4031139 450.205535,83.9134635 450.061304,83.6250005 C449.917553,83.1937483 450.567296,82.1673831 452.010552,80.5458774 L452.405054,80.1093755 C457.248828,74.7968489 461.233163,68.9375325 464.358179,62.5312505 L462.998018,62.7448961 C458.909815,63.3685977 456.160101,63.6098802 454.748804,63.4687505 C453.811299,63.3124997 453.108181,63.0000028 452.639429,62.5312505 C452.326927,62.0624982 452.5613,61.7500013 453.342554,61.5937505 L454.280054,61.3593755 L455.670725,61.1256492 C458.246903,60.689361 461.377075,60.1422735 465.061304,59.4843755 L465.061304,58.3125005 C465.686307,52.0624693 465.295686,48.0000099 463.889429,46.1250005 C463.420676,45.1874958 463.186304,44.5625021 463.186304,44.2500005 C463.342554,43.7812482 463.8113,43.5468755 464.592554,43.5468755 Z M476.076929,49.1718755 C478.795692,50.07813 480.054362,51.1303769 479.85297,52.3286458 L479.826929,52.4531255 C479.514427,53.8593825 479.358179,55.2656185 479.358179,56.6718755 L483.108179,55.2656255 C483.576931,54.9531239 483.889428,54.7968755 484.045679,54.7968755 C486.23319,54.6406247 487.17068,55.0312458 486.858179,55.9687505 C485.764423,57.3750075 483.186324,58.0781255 479.123804,58.0781255 L478.889429,65.5781255 L478.889429,65.5781255 C479.514432,65.5781255 481.076916,64.8750075 483.576929,63.4687505 C484.826935,62.8437474 485.686301,62.6874989 486.155054,63.0000005 C486.155054,63.3125021 485.53006,63.9374958 484.280054,64.8750005 C482.092543,66.1250068 479.514443,68.2343607 476.545679,71.2031255 C474.82692,71.6718778 474.201926,70.5000146 474.670679,67.6875005 C476.233186,66.4374943 476.936304,63.5468982 476.780054,59.0156255 C476.623803,55.4218575 476.076933,52.6875099 475.139429,50.8125005 C474.670676,50.3437482 474.514428,49.9531271 474.670679,49.6406255 C474.98318,49.1718732 475.451925,49.0156247 476.076929,49.1718755 Z M484.514429,68.6250005 L485.302015,68.840608 C487.687125,69.5220675 488.596463,70.0751937 488.030054,70.5000005 C486.936298,71.2812544 485.139441,72.9999872 482.639429,75.6562505 C485.920695,75.0312474 488.889415,74.171881 491.545679,73.0781255 L491.867945,72.9755861 C492.160914,72.8876954 492.365991,72.8437505 492.483179,72.8437505 C496.389448,73.4687536 498.342554,74.7187411 498.342554,76.5937505 C497.5613,78.1562583 497.248803,80.5781091 497.405054,83.8593755 L497.405054,87.8437505 C497.248803,92.3750232 496.07694,95.3437435 493.889429,96.7500005 C493.420676,97.0625021 492.873807,96.0468872 492.248804,93.7031255 C491.780051,91.5156146 491.311306,89.9531302 490.842554,89.0156255 L480.764429,89.7187505 C480.920679,92.218763 480.686307,93.5468747 480.061304,93.7031255 C478.967548,93.3906239 478.26443,92.2187607 477.951929,90.1875005 C478.26443,85.6562278 477.795685,81.2031474 476.545679,76.8281255 C476.076926,76.0468716 476.076926,75.5781263 476.545679,75.4218755 C477.014431,75.4218755 478.10817,75.7343724 479.826929,76.3593755 L480.764429,76.1250005 C482.795689,73.9374896 483.576931,71.9062599 483.108179,70.0312505 L483.108179,69.7968755 C482.639426,69.0156216 483.108172,68.6250005 484.514429,68.6250005 Z M491.780054,76.1250005 L491.076929,76.1250005 L490.890401,76.1282444 C489.783134,76.1628462 486.876584,76.4742623 482.170679,77.0625005 C481.389425,77.2187513 480.764431,77.2968755 480.295679,77.2968755 L480.530054,81.7500005 L481.318681,81.5721257 C488.281803,80.0277542 491.612644,80.0089215 491.311304,81.5156255 C490.061297,82.9218825 486.545708,83.5468763 480.764429,83.3906255 L480.764429,88.3125005 L482.395351,88.0961537 C485.334519,87.6995187 487.993984,87.3028871 490.373804,86.9062505 C490.686305,86.7499997 491.233175,87.1406208 492.014429,88.0781255 C492.483181,88.5468778 492.795679,88.7812505 492.951929,88.7812505 C494.201931,88.3124982 494.514432,85.2656536 493.889429,79.6406255 C493.420676,77.2968638 492.717558,76.1250005 491.780054,76.1250005 Z M540.530054,44.9531255 C543.498818,45.8906302 544.82693,46.906245 544.514429,48.0000005 C543.889425,48.7812544 543.498804,52.3749685 543.342554,58.7812505 C545.842566,58.3124982 548.186293,57.7656286 550.373804,57.1406255 C550.998807,56.8281239 551.467552,56.6718755 551.780054,56.6718755 C555.686323,56.8281263 557.248808,57.6874927 556.467554,59.2500005 L556.095652,59.335228 C555.491314,59.463069 554.677786,59.590909 553.655054,59.7187505 C550.686289,59.875 547.483196,60.2656224 544.045679,60.8906255 C550.29571,71.6719294 557.170641,78.2343638 564.670679,80.5781255 L565.085905,80.7370794 C566.059092,81.1182439 566.545679,81.3777572 566.545679,81.5156255 C566.545679,81.8281271 565.998809,81.9843755 564.905054,81.9843755 C560.373781,82.4531278 557.170688,82.2968794 555.295679,81.5156255 C553.264418,80.42187 549.280083,74.0156841 543.342554,62.2968755 L543.280372,63.731827 C543.165576,66.9269783 543.108179,72.0736257 543.108179,79.1718755 L544.0804,78.9172461 C544.543362,78.7918606 545.078662,78.6423625 545.686304,78.4687505 C546.780059,77.8437474 547.639425,77.6093747 548.264429,77.7656255 C549.670686,78.0781271 550.373804,78.5468724 550.373804,79.1718755 C550.373804,79.7968786 549.592561,80.1874997 548.030054,80.3437505 C547.873803,80.3437505 547.405058,80.4999989 546.623804,80.8125005 C545.373797,80.9687513 544.280058,81.2031239 543.342554,81.5156255 L543.342554,88.5468755 C543.342554,93.7031513 542.873808,96.3593747 541.936304,96.5156255 C540.686297,95.8906224 539.748807,94.4062622 539.123804,92.0625005 C539.123804,91.9062497 539.201928,91.5937528 539.358179,91.1250005 C540.139433,88.9374896 540.530054,85.890645 540.530054,81.9843755 C539.123797,82.2968771 537.795685,82.375 536.545679,82.2187505 C535.295672,82.0624997 534.280058,81.8281271 533.498804,81.5156255 C533.186302,81.2031239 533.498799,80.8906271 534.436304,80.5781255 L535.532952,80.4739585 C538.32617,80.1961801 540.069981,79.9184047 540.764429,79.6406255 L540.764429,72.1406255 L540.870762,69.2909021 C540.956123,66.7953325 540.998804,64.854627 540.998804,63.4687505 C538.030039,71.7500419 532.951965,78.2343521 525.764429,82.9218755 L524.826929,82.6875005 C524.826929,84.4062591 524.748804,86.3593646 524.592554,88.5468755 L524.592554,89.7187505 L524.55984,90.2378645 C524.368581,92.8132028 523.832615,93.7339057 522.951929,93.0000005 C521.858173,91.5937435 521.233179,89.4843896 521.076929,86.6718755 C520.920678,85.8906216 521.15505,84.7968825 521.780054,83.3906255 L522.150424,82.0711798 C522.285455,81.5792828 522.396373,81.1597245 522.483179,80.8125005 L522.546719,80.4022732 C522.827636,78.455926 523.040829,75.1551962 523.186304,70.5000005 L523.18286,69.3813094 C523.15837,65.5690507 523.003269,63.5200912 522.717554,63.2343755 C518.967535,68.7031528 515.451945,72.4531153 512.170679,74.4843755 C511.545675,74.9531278 511.155054,75.1093763 510.998804,74.9531255 C510.842553,74.6406239 510.998801,74.1718786 511.467554,73.5468755 C519.592594,64.3280794 524.201923,56.0469122 525.295679,48.7031255 C525.139428,47.9218716 525.217552,47.4531263 525.530054,47.2968755 C525.686304,46.9843739 526.076925,46.9843739 526.701929,47.2968755 C529.826944,49.0156341 530.920683,50.5781185 529.983179,51.9843755 C529.201925,52.6093786 527.717565,54.7968568 525.530054,58.5468755 L525.01415,59.5662014 C524.468662,60.6294416 524.015632,61.461536 523.655054,62.0625005 C525.373812,63.3125068 525.920682,64.5624943 525.295679,65.8125005 L525.262196,65.9679536 C525.122687,66.7053581 524.983179,68.5638011 524.84367,71.5433263 L524.826929,71.9062505 C524.670678,75.6562693 524.670678,79.0156107 524.826929,81.9843755 C530.764458,78.2343568 535.530036,71.5156739 539.123804,61.8281255 L537.849994,62.0443225 C535.689325,62.4182843 534.08269,62.7368413 533.030054,63.0000005 L532.5374,62.8790327 C530.259978,62.2943551 529.486703,61.7096808 530.217554,61.1250005 C533.655071,60.8124989 537.248785,60.1875052 540.998804,59.2500005 L541.016721,58.2873153 C541.118413,51.6705521 540.721819,47.6164852 539.826929,46.1250005 C539.514427,45.8124989 539.436303,45.5000021 539.592554,45.1875005 C539.748804,44.875 540.061301,44.7968747 540.530054,44.9531255 Z" id="方正楷体" fill="#000000" fill-rule="nonzero"></path>
    </g>
</svg>