<svg xmlns="http://www.w3.org/2000/svg" width="900" height="140" viewBox="0 0 900 140">
  <defs>
    <style>
      .cls-1 {
        fill-rule: evenodd;
      }
    </style>
  </defs>
  <path id="思源柔黑" class="cls-1" d="M340.505,52.5a0.3,0.3,0,0,1-.293-0.366V43.348a0.259,0.259,0,0,1,.293-0.293h17.139a0.3,0.3,0,0,1,.366.293v8.789a0.324,0.324,0,0,1-.366.366H340.505Zm0,14.209a0.259,0.259,0,0,1-.293-0.293V57.557a0.3,0.3,0,0,1,.293-0.366h17.139a0.324,0.324,0,0,1,.366.366v8.862a0.3,0.3,0,0,1-.366.293H340.505Zm-6.079-9.522a0.3,0.3,0,0,1,.293.366v8.862a0.259,0.259,0,0,1-.293.293H316.848a0.3,0.3,0,0,1-.367-0.293V57.557a0.324,0.324,0,0,1,.367-0.366h17.578Zm0-14.136a0.26,0.26,0,0,1,.293.293v8.789a0.3,0.3,0,0,1-.293.366H316.848a0.324,0.324,0,0,1-.367-0.366V43.348a0.3,0.3,0,0,1,.367-0.293h17.578Zm-20.581-4.98a2.421,2.421,0,0,0-1.831.769,2.518,2.518,0,0,0-.733,1.794V69.056a2.606,2.606,0,0,0,.733,1.868,2.421,2.421,0,0,0,1.831.769h47.021a2.462,2.462,0,0,0,1.8-.769,2.545,2.545,0,0,0,.769-1.868V40.638a2.628,2.628,0,0,0-2.564-2.564H313.845Zm20.874,36.255a3.344,3.344,0,0,0-1.612-.439,1.639,1.639,0,0,0-.512.073,3.838,3.838,0,0,0-1.978.879,1.819,1.819,0,0,0-.549,1.575,1.689,1.689,0,0,0,.915,1.355,75.644,75.644,0,0,1,11.426,7.983,2.914,2.914,0,0,0,1.9.659,2.485,2.485,0,0,0,1.832-.733l0.146-.146a2.32,2.32,0,0,0-.073-3.516,70.372,70.372,0,0,0-11.5-7.69h0Zm-18.311,8.862a2.5,2.5,0,0,0-.146-2.051,2.741,2.741,0,0,0-1.538-1.318H314.65a2.27,2.27,0,0,0-1.9.11,2.325,2.325,0,0,0-1.245,1.5,55.368,55.368,0,0,1-5.933,13.257,2.041,2.041,0,0,0-.439,1.245,2.393,2.393,0,0,0,.073.586,1.993,1.993,0,0,0,1.172,1.465l0.366,0.22a3.066,3.066,0,0,0,2.124.256,2.6,2.6,0,0,0,1.685-1.209,62.12,62.12,0,0,0,5.859-14.062h0Zm11.939,12.927a2.083,2.083,0,0,1-.879-2.014V81.946a2.626,2.626,0,0,0-2.637-2.637h-0.366a2.459,2.459,0,0,0-1.795.769,2.546,2.546,0,0,0-.769,1.868V94.178q0,4.468,2.051,6.006t8.057,1.538H347.1q4.686,0,6.591-2.051t2.564-7.983a3.275,3.275,0,0,0-.549-2.051,3.219,3.219,0,0,0-1.722-1.318,2.731,2.731,0,0,1-.366-0.147,1.782,1.782,0,0,0-1.648.073,1.589,1.589,0,0,0-.842,1.318q-0.294,4.468-1.135,5.749t-3.333,1.282H332.375A10.4,10.4,0,0,1,328.347,96.119ZM364.9,96.375a2.758,2.758,0,0,0,1.391,1.392,2.017,2.017,0,0,0,1.831,0l0.659-.293a2.69,2.69,0,0,0,1.465-1.465,2.572,2.572,0,0,0,.22-1.025,2.1,2.1,0,0,0-.22-0.952,79.144,79.144,0,0,0-8.056-13.843,3.982,3.982,0,0,0-1.831-1.245,5.419,5.419,0,0,0-.879-0.073,4.154,4.154,0,0,0-1.319.22l-0.073.073a1.975,1.975,0,0,0-1.245,1.318,2.72,2.72,0,0,0-.073.659,2.185,2.185,0,0,0,.366,1.172A71.194,71.194,0,0,1,364.9,96.375h0Zm22.412-59.692a2.832,2.832,0,0,0-1.392-.366,3.451,3.451,0,0,0-.659.073,2.812,2.812,0,0,0-1.758,1.1,1.959,1.959,0,0,0-.439,1.758,2.213,2.213,0,0,0,1.1,1.465,61.341,61.341,0,0,1,8.2,5.493,2.51,2.51,0,0,0,1.831.586,2.3,2.3,0,0,0,1.685-.879l0.146-.22a2.936,2.936,0,0,0,.586-2.014,2.325,2.325,0,0,0-.952-1.794,51.059,51.059,0,0,0-8.349-5.2h0Zm-3.589,19.849a3.34,3.34,0,0,0-2.124-.183,3.3,3.3,0,0,0-1.831,1.135,2.042,2.042,0,0,0-.44,1.245,2.136,2.136,0,0,0,.073.513,1.987,1.987,0,0,0,1.1,1.392,58.9,58.9,0,0,1,8.35,5.127,2.438,2.438,0,0,0,1.867.549,2.22,2.22,0,0,0,1.648-.915l0.147-.293a2.608,2.608,0,0,0,.513-1.978,2.537,2.537,0,0,0-1.026-1.758,59.111,59.111,0,0,0-8.276-4.834h0Zm-2.637,40.21a2.684,2.684,0,0,0-.366,1.318,3.722,3.722,0,0,0,.073.732,2.721,2.721,0,0,0,1.245,1.611l0.586,0.44a2.461,2.461,0,0,0,1.9.256,2.1,2.1,0,0,0,1.465-1.208q4.467-9.155,8.643-19.336a3.251,3.251,0,0,0,.11-2.2,2.887,2.887,0,0,0-1.282-1.684l-0.147-.147a1.9,1.9,0,0,0-1.757-.293,1.978,1.978,0,0,0-1.319,1.245q-4.321,10.327-9.155,19.263h0ZM405.69,94.1a2.211,2.211,0,0,0-.512,1.794,2.042,2.042,0,0,0,.952,1.5,0.064,0.064,0,0,0,.073.073,2.605,2.605,0,0,0,1.978.513,2.8,2.8,0,0,0,1.831-1.025,55.824,55.824,0,0,0,7.031-11.792,2.02,2.02,0,0,0-.037-1.868,2.112,2.112,0,0,0-1.5-1.135,3.054,3.054,0,0,0-2.014.256,3.2,3.2,0,0,0-1.5,1.5,44.854,44.854,0,0,1-6.3,10.181h0Zm32.154-27.612a0.3,0.3,0,0,1,.293.366v5.933a0.259,0.259,0,0,1-.293.293H415.651a0.259,0.259,0,0,1-.293-0.293V66.858a0.3,0.3,0,0,1,.293-0.366h22.193Zm0-10.547a0.26,0.26,0,0,1,.293.293V62.1a0.3,0.3,0,0,1-.293.366H415.651a0.3,0.3,0,0,1-.293-0.366V56.238a0.259,0.259,0,0,1,.293-0.293h22.193Zm5.493-1.685a2.626,2.626,0,0,0-2.637-2.637H428.029a0.2,0.2,0,0,1-.219-0.293q0.585-1.9,2.124-7.4,0.145-.292-0.22-0.366H443.63a2.458,2.458,0,0,0,1.794-.769,2.5,2.5,0,0,0,.769-1.831,2.383,2.383,0,0,0-.769-1.794,2.522,2.522,0,0,0-1.794-.733H403.2a2.627,2.627,0,0,0-2.637,2.637v17.8q0,5.2-.219,9.448t-0.952,9.741a57.306,57.306,0,0,1-2.417,10.547A47.025,47.025,0,0,1,392.8,97.84a2.3,2.3,0,0,0-.366,1.245,3.391,3.391,0,0,0,.073.659,2.48,2.48,0,0,0,1.1,1.538c0.1,0.048.195,0.1,0.293,0.147a2.593,2.593,0,0,0,1.941.4,2.156,2.156,0,0,0,1.575-1.062q8.642-14.209,8.643-41.895V43.86a0.259,0.259,0,0,1,.293-0.293h17.212c0.243,0,.341.1,0.292,0.293q-0.586,3.663-1.464,7.471a0.348,0.348,0,0,1-.367.293h-9.008a2.626,2.626,0,0,0-2.637,2.637V74.769a2.626,2.626,0,0,0,2.637,2.637h10.4a0.3,0.3,0,0,1,.366.293V97.4a1.07,1.07,0,0,1-.293.842,1.576,1.576,0,0,1-1.025.256h-5.2a1.522,1.522,0,0,0-1.355.732,1.647,1.647,0,0,0-.183,1.539,3.322,3.322,0,0,0,1.171,1.721,3.011,3.011,0,0,0,1.9.7h0.439q5.346,0,7.251-.733a3.437,3.437,0,0,0,2.051-1.721,8.2,8.2,0,0,0,.513-3.259V77.7a0.3,0.3,0,0,1,.366-0.293H440.7a2.626,2.626,0,0,0,2.637-2.637V54.261Zm-1.685,41.382a2.436,2.436,0,0,0,1.392,1.392,2.971,2.971,0,0,0,.952.147,2.587,2.587,0,0,0,1.025-.22l0.22-.073a2.687,2.687,0,0,0,1.392-1.538,2.1,2.1,0,0,0,.22-0.952,2.6,2.6,0,0,0-.22-1.025,62.9,62.9,0,0,0-6.3-10.4,3.031,3.031,0,0,0-1.758-1.245,5.018,5.018,0,0,0-.805-0.073,4.154,4.154,0,0,0-1.319.22,2.224,2.224,0,0,0-1.172,1.392,2.406,2.406,0,0,0-.073.586,1.958,1.958,0,0,0,.366,1.172,73.1,73.1,0,0,1,6.079,10.62h0Zm76.612-17.651H490.725a0.3,0.3,0,0,1-.293-0.366V75.794a2.626,2.626,0,0,0-2.637-2.637H487.5a9.225,9.225,0,0,0,1.758-.439,3.833,3.833,0,0,0,2.234-1.538,6.423,6.423,0,0,0,.622-3.223V57.7a0.324,0.324,0,0,1,.366-0.366H510.72c0.243,0,.293.1,0.146,0.293a76.257,76.257,0,0,1-6.225,7.031,1.556,1.556,0,0,0-.513,1.5,1.424,1.424,0,0,0,1.025,1.209l0.074,0.073a5.3,5.3,0,0,0,1.684.293,3.644,3.644,0,0,0,2.637-1.172,100.291,100.291,0,0,0,9.228-10.693,1.573,1.573,0,0,0,.257-1.5,1.66,1.66,0,0,0-1.062-1.135l-1.245-.439a3.329,3.329,0,0,0-1.831-.073,0.3,0.3,0,0,1-.22.073H499.733V52.723a0.418,0.418,0,0,0-.219-0.733q-2.2-.951-4.834-1.9a0.065,0.065,0,0,1-.074-0.073,0.21,0.21,0,0,1,.074-0.147,71.335,71.335,0,0,0,15.014-8.13,1.613,1.613,0,0,0,.733-1.392,1.881,1.881,0,0,0-.659-1.465l-0.953-.659a2.154,2.154,0,0,0-1.464-.586,2.432,2.432,0,0,0-.586.073,0.652,0.652,0,0,1-.293.073h-41.6a2.271,2.271,0,1,0,0,4.541h34.863a0.123,0.123,0,0,1,.074.22,75.229,75.229,0,0,1-11.426,5.2,1.182,1.182,0,0,1-.586,0q-5.2-1.538-9.668-2.49a5.419,5.419,0,0,0-.879-0.073,3.825,3.825,0,0,0-2.856,1.318,1.116,1.116,0,0,0-.293,1.208,1.332,1.332,0,0,0,.952.916,121.867,121.867,0,0,1,14.209,4.028,0.073,0.073,0,0,1,0,.147H458.425a2.271,2.271,0,1,0,0,4.541H478.64a0.123,0.123,0,0,1,.073.22,66.192,66.192,0,0,1-21.24,11.133,1.659,1.659,0,0,0-1.062,1.172,1.528,1.528,0,0,0,.329,1.538,2.377,2.377,0,0,0,.293.366,3.983,3.983,0,0,0,1.795,1.245,3,3,0,0,0,2.16-.073A76.163,76.163,0,0,0,474.5,66.273a57.367,57.367,0,0,0,11.1-8.716,0.79,0.79,0,0,1,.586-0.22,0.324,0.324,0,0,1,.366.366V67.811a1.18,1.18,0,0,1-.293.916,1.719,1.719,0,0,1-1.1.256q-1.247.074-3.076,0.073-1.465,0-3.369-.073a1.479,1.479,0,0,0-1.282.7,1.443,1.443,0,0,0-.183,1.428,3.754,3.754,0,0,0,1.318,1.721,3.339,3.339,0,0,0,1.978.623q2.488,0,4.028-.073a0.3,0.3,0,0,1,.293.366v3.882a0.3,0.3,0,0,1-.293.366H457.106a2.5,2.5,0,0,0-2.49,2.49,2.275,2.275,0,0,0,.733,1.721,2.454,2.454,0,0,0,1.757.7h22.046a0.128,0.128,0,0,1,.11.11q0.036,0.11-.036.11a59.32,59.32,0,0,1-10.694,7.8,66.587,66.587,0,0,1-12.671,5.75,1.572,1.572,0,0,0-1.1,1.172,1.884,1.884,0,0,0,.293,1.611l0.512,0.513a3.571,3.571,0,0,0,1.8,1.282,3.45,3.45,0,0,0,2.16-.037,77.491,77.491,0,0,0,13.733-7.141,58.576,58.576,0,0,0,11.39-9.485,0.123,0.123,0,0,1,.219.073v15.967a2.626,2.626,0,0,0,2.637,2.637H487.8a2.626,2.626,0,0,0,2.637-2.637V84.949a0.118,0.118,0,0,1,.073-0.11,0.121,0.121,0,0,1,.146.037,56.743,56.743,0,0,0,11.463,9.192,73.536,73.536,0,0,0,13.879,6.775,3.474,3.474,0,0,0,3.955-1.319,5.724,5.724,0,0,0,.513-0.586,1.406,1.406,0,0,0,.439-1.025,2.188,2.188,0,0,0-.073-0.513,1.76,1.76,0,0,0-1.1-1.1,69.509,69.509,0,0,1-13.111-5.53,49.2,49.2,0,0,1-10.693-7.654c-0.049,0-.062-0.037-0.037-0.11A0.127,0.127,0,0,1,496,82.9h22.266a2.457,2.457,0,0,0,1.757-.7,2.279,2.279,0,0,0,.733-1.721,2.5,2.5,0,0,0-2.49-2.49h0Zm59.4-31.86a1.941,1.941,0,0,0,.11-1.685,1.867,1.867,0,0,0-1.209-1.172,2.025,2.025,0,0,0-1.721.037,2.388,2.388,0,0,0-1.208,1.282,68.129,68.129,0,0,1-3.955,8.057,1.493,1.493,0,0,0-.183,1.392,1.661,1.661,0,0,0,.915,1.025,2.425,2.425,0,0,0,1.611.037,2.179,2.179,0,0,0,1.246-.989q1.537-2.637,4.394-7.983h0Zm-27.026,6.812a1.889,1.889,0,0,0,.952,1.209,1.784,1.784,0,0,0,1.538.11,2.414,2.414,0,0,0,1.282-1.172,2.379,2.379,0,0,0,.183-1.685,33.351,33.351,0,0,0-3.369-7.178,2.354,2.354,0,0,0-1.245-1.025,2.3,2.3,0,0,0-1.612,0,1.435,1.435,0,0,0-.989.916,1.557,1.557,0,0,0,.11,1.355,41.962,41.962,0,0,1,3.15,7.471h0ZM542.287,41a0.3,0.3,0,0,1,.293-0.366h16.846a0.324,0.324,0,0,1,.366.366V56.531a0.323,0.323,0,0,1-.366.366H542.58a0.3,0.3,0,0,1-.293-0.366V41ZM565.578,56.9a0.3,0.3,0,0,1-.293-0.366V41a0.3,0.3,0,0,1,.293-0.366h16.553A0.324,0.324,0,0,1,582.5,41V56.531a0.323,0.323,0,0,1-.366.366H565.578Zm0,22.192a0.258,0.258,0,0,1-.293-0.293V72.645a0.3,0.3,0,0,1,.293-0.366h21.68a2.271,2.271,0,1,0,0-4.541h-21.68a0.3,0.3,0,0,1-.293-0.366v-5.42a0.3,0.3,0,0,1,.293-0.366H585.5a2.628,2.628,0,0,0,2.563-2.563V38.514A2.628,2.628,0,0,0,585.5,35.95H539.65a2.541,2.541,0,0,0-1.867.769,2.459,2.459,0,0,0-.769,1.794V59.022a2.457,2.457,0,0,0,.769,1.794,2.541,2.541,0,0,0,1.867.769h19.776a0.324,0.324,0,0,1,.366.366v5.42a0.323,0.323,0,0,1-.366.366h-21.46a2.271,2.271,0,1,0,0,4.541h21.46a0.324,0.324,0,0,1,.366.366V78.8a0.3,0.3,0,0,1-.366.293H532.033a2.4,2.4,0,0,0-1.758.733,2.389,2.389,0,0,0,0,3.442,2.4,2.4,0,0,0,1.758.733H593.41a2.317,2.317,0,0,0,1.685-.733,2.389,2.389,0,0,0,0-3.442,2.322,2.322,0,0,0-1.685-.733H565.578ZM542.287,90.735a2.02,2.02,0,0,0-.037-1.868,2.087,2.087,0,0,0-1.428-1.135l-0.366-.147a3.8,3.8,0,0,0-.732-0.073,2.7,2.7,0,0,0-1.319.366,3,3,0,0,0-1.465,1.538,32.374,32.374,0,0,1-5.419,8.2,1.815,1.815,0,0,0-.586,1.318,1.606,1.606,0,0,0,1.025,1.611l0.513,0.293a3.39,3.39,0,0,0,1.538.366,2.769,2.769,0,0,0,.659-0.073,3.493,3.493,0,0,0,1.977-1.1,37.3,37.3,0,0,0,5.64-9.3h0Zm9.741,7.837a2.368,2.368,0,0,0,.879,1.758,2.046,2.046,0,0,0,1.392.513h0.366l0.293-.073a2.863,2.863,0,0,0,1.831-.989,2.6,2.6,0,0,0,.659-1.941A49.617,49.617,0,0,0,556.5,91.1a3.055,3.055,0,0,0-3.149-2.417l-0.074.073a1.836,1.836,0,0,0-1.611.879,2.045,2.045,0,0,0-.513,1.392v0.439a68.333,68.333,0,0,1,.879,7.1h0Zm17.432,0.147a2.646,2.646,0,0,0,1.172,1.574,2.269,2.269,0,0,0,1.9.257l0.513-.073a2.621,2.621,0,0,0,1.575-1.209,2.369,2.369,0,0,0,.256-1.941,51.306,51.306,0,0,0-2.49-7.031,3,3,0,0,0-1.465-1.538,3.4,3.4,0,0,0-2.2-.293l-0.074.073a2.016,2.016,0,0,0-1.465,1.1,2.058,2.058,0,0,0-.293,1.025,2.555,2.555,0,0,0,.147.806,63.162,63.162,0,0,1,2.417,7.251h0ZM586.672,95.5q1.61,2.2,2.783,3.955a3.058,3.058,0,0,0,1.611,1.319,2.591,2.591,0,0,0,1.026.219,2.767,2.767,0,0,0,1.1-.219l0.586-.22a1.98,1.98,0,0,0,1.245-1.319,1.957,1.957,0,0,0,.147-0.732,1.852,1.852,0,0,0-.366-1.1,56.012,56.012,0,0,0-6.665-8.5,3.76,3.76,0,0,0-2.783-1.318,4.52,4.52,0,0,0-1.539.293h-0.073a1.775,1.775,0,0,0-1.172,1.245,1.622,1.622,0,0,0-.073.513,1.658,1.658,0,0,0,.44,1.1q1.9,2.2,3.735,4.761h0Z"/>
</svg>
