<?xml version="1.0" encoding="UTF-8"?>
<svg width="900px" height="140px" viewBox="0 0 900 140" version="1.1" xmlns="http://www.w3.org/2000/svg" xmlns:xlink="http://www.w3.org/1999/xlink">
    <!-- Generator: Sketch 59.1 (86144) - https://sketch.com -->
    <title>preview</title>
    <desc>Created with Sketch.</desc>
    <g id="preview" stroke="none" stroke-width="1" fill="none" fill-rule="evenodd">
        <path d="M304.646632,76.2532673 C304.665138,76.2525402 304.673064,76.2624198 304.677028,76.2762629 L304.68,76.3 C304.68,76.3800004 304.7,76.4399998 304.74,76.48 L304.68,76.48 C304.960001,76.9200022 305.08,77.4299971 305.04,78.01 C305,78.5900029 304.840001,79.1099977 304.56,79.57 C304.279999,80.0300023 303.900002,80.3799988 303.42,80.62 C302.939998,80.8600012 302.400003,80.8600012 301.8,80.62 C300.719995,80.219998 299.910003,79.6500037 299.37,78.91 C298.829997,78.1699963 298.450001,77.3400046 298.23,76.42 C298.009999,75.4999954 297.93,74.5300051 297.99,73.51 C298.05,72.4899949 298.139999,71.480005 298.26,70.48 L298.56,68.05 L298.56,68.05 C298.680001,67.0699951 298.859999,66.0900049 299.1,65.11 C299.340001,64.1299951 299.659998,63.1900045 300.06,62.29 C300.460002,61.3899955 300.959997,60.6800026 301.56,60.16 C301.56,60.0319994 301.5984,59.9168001 301.6752,59.8144002 L301.74,59.74 C303.020006,58.2199924 304.449992,56.9500051 306.03,55.93 C307.610008,54.9099949 309.179992,54.3200008 310.74,54.16 C312.300008,53.9999992 313.769993,54.3399958 315.15,55.18 C316.530007,56.0200042 317.639996,57.5199892 318.48,59.68 L318.727201,60.3340013 C319.0664,61.2460009 319.443998,62.3179938 319.86,63.55 C320.380003,65.0900077 320.869998,66.7299913 321.33,68.47 C321.790002,70.2100087 322.169999,72.0099907 322.47,73.87 C322.770001,75.7300093 322.9,77.5199914 322.86,79.24 C322.82,80.9600086 322.570002,82.5499927 322.11,84.01 C321.649998,85.4700073 320.900005,86.6599954 319.86,87.58 C318.579994,88.7400058 317.240007,88.8000052 315.84,87.76 L315.18,87.28 C314.699998,86.9199982 314.43,86.5000024 314.37,86.02 C314.31,85.5399976 314.389999,85.0800022 314.61,84.64 C314.830001,84.1999978 315.149998,83.8200016 315.57,83.5 C315.990002,83.1799984 316.419998,82.9800004 316.86,82.9 C317.140001,82.8599998 317.409999,82.4500039 317.67,81.67 C317.930001,80.8899961 318.149999,80.0300047 318.33,79.09 C318.510001,78.1499953 318.65,77.2900039 318.75,76.51 L318.883333,75.416666 C318.894444,75.312222 318.9,75.2466668 318.9,75.22 C318.98,73.6599922 318.910001,72.1000078 318.69,70.54 C318.513999,69.2919938 318.306001,68.0568024 318.066001,66.8344022 L317.88,65.92 C317.639999,64.719994 317.370002,63.4800064 317.07,62.2 C316.769998,60.9199936 316.300003,59.8300045 315.66,58.93 C315.019997,58.0299955 314.110006,57.4200016 312.93,57.1 C311.749994,56.7799984 310.16001,56.9799964 308.16,57.7 C307.399996,57.9800014 306.670004,58.3599976 305.97,58.84 C305.269996,59.3200024 304.580003,59.7799978 303.9,60.22 C304.100001,60.5400016 304.100001,60.8799982 303.9,61.24 C303.82,61.840003 303.74,62.4899965 303.66,63.19 C303.58,63.8900035 303.5,64.6199962 303.42,65.38 C304.020003,65.4200002 304.619997,65.4699997 305.22,65.53 C305.670002,65.5750002 306.119999,65.5918752 306.569999,65.5806251 L307.02,65.56 C308.300006,65.5199998 309.549994,65.3700013 310.77,65.11 C311.990006,64.8499987 313.239994,64.620001 314.52,64.42 C315.240004,64.2999994 315.839998,64.3999984 316.32,64.72 C316.800002,65.0400016 317.109999,65.4499975 317.25,65.95 C317.390001,66.4500025 317.350001,66.9699973 317.13,67.51 C316.909999,68.0500027 316.460003,68.4599986 315.78,68.74 C314.939996,69.1000018 314.000005,69.3699991 312.96,69.55 C311.919995,69.7300009 310.840006,69.8100001 309.72,69.79 C308.599994,69.7699999 307.490005,69.6400012 306.39,69.4 C305.289994,69.1599988 304.260005,68.8200022 303.3,68.38 C303.3,69.0600034 303.32,69.7499965 303.36,70.45 C303.4,71.1500035 303.46,71.8199968 303.54,72.46 C304.100003,72.5400004 304.669997,72.6299995 305.25,72.73 C305.830003,72.8300005 306.399997,72.8600002 306.96,72.82 C307.817147,72.7857141 308.666936,72.6559194 309.509386,72.4306127 L309.93,72.31 C310.910005,72.0099985 311.899995,71.8799998 312.9,71.92 C313.300002,71.92 313.719998,71.9899993 314.16,72.13 C314.600002,72.2700007 314.969998,72.4699987 315.27,72.73 C315.570001,72.9900013 315.76,73.3099981 315.84,73.69 C315.92,74.0700019 315.820001,74.4999976 315.54,74.98 C315.219998,75.5400028 314.730003,75.9799984 314.07,76.3 C313.409997,76.6200016 312.690004,76.8599992 311.91,77.02 C311.129996,77.1800008 310.350004,77.26 309.57,77.26 C308.789996,77.26 308.120003,77.2200004 307.56,77.14 C306.56924,77.0211089 305.598127,76.7255342 304.646632,76.2532673 L304.653248,76.2466238 L304.646632,76.2532673 Z M290.82,79.54 C291.060001,79.0199974 291.349998,78.4400032 291.69,77.8 C292.030002,77.1599968 292.269999,76.5200032 292.41,75.88 C292.550001,75.2399968 292.550001,74.6500027 292.41,74.11 C292.269999,73.5699973 291.840004,73.1400016 291.12,72.82 C290.439997,72.4999984 289.730004,72.34 288.99,72.34 C288.249996,72.34 287.540003,72.3799996 286.86,72.46 L286.507348,72.4697959 C286.38245,72.4746938 286.230001,72.4814285 286.05,72.49 C285.629998,72.5100001 285.200002,72.5599996 284.76,72.64 C285.160002,74.0000068 285.559998,75.3499933 285.96,76.69 C286.360002,78.0300067 286.719998,79.399993 287.04,80.8 C287.12,80.9600008 287.16,81.1199992 287.16,81.28 L287.16,81.76 C287.800003,81.84 288.339998,81.8200006 288.78,81.7 L290.58,81.16 C290.5,80.5999972 290.579999,80.0600026 290.82,79.54 Z M293.1525,69.4241664 L293.34,69.52 C294.540006,70.120003 295.429997,70.8799954 296.01,71.8 C296.590003,72.7200046 296.939999,73.7199946 297.06,74.8 C297.180001,75.8800054 297.140001,76.9999942 296.94,78.16 C296.739999,79.3200058 296.460002,80.4399946 296.1,81.52 C295.899999,82.0800028 295.630002,82.5099985 295.29,82.81 C294.949998,83.1100015 294.580002,83.3399992 294.18,83.5 C292.899994,84.7800064 291.160011,85.3800004 288.96,85.3 C288.359997,85.2599998 287.690004,85.1900005 286.95,85.09 C286.209996,84.9899995 285.500003,84.7800016 284.819999,84.46 C284.179997,84.6200008 283.540003,84.5600014 282.9,84.28 C282.219997,83.9999986 281.710002,83.5300033 281.37,82.87 C281.029998,82.2099967 280.790001,81.4700041 280.65,80.65 C280.509999,79.8299959 280.45,79.0100041 280.47,78.19 C280.49,77.3699959 280.52,76.660003 280.56,76.06 L280.71,74.44 L280.71,74.44 C280.77,73.7999968 280.869999,73.1700031 281.01,72.55 C281.150001,71.9299969 281.379998,71.3800024 281.7,70.9 C282.020002,70.4199976 282.459997,70.1200006 283.02,70 L283.44,70 C283.640001,69.8799994 283.849999,69.7600006 284.07,69.64 C284.290001,69.5199994 284.539999,69.4200004 284.819999,69.34 C284.819999,69.2866664 284.815555,69.2422221 284.806667,69.2066667 L284.79,69.16 C284.77,69.1199998 284.76,69.0600004 284.76,68.98 C284.72,68.4999976 284.7,68.0100025 284.7,67.51 L284.7,66.04 C283.539994,65.5999978 282.460005,65.0700031 281.46,64.45 C280.459995,63.8299969 279.520004,63.120004 278.64,62.32 C278.319999,61.9999984 278.239999,61.6700017 278.4,61.33 C278.560001,60.9899983 278.799998,60.7800004 279.12,60.7 L279.12,60.64 C280.160005,60.4799992 281.169995,60.4899991 282.15,60.67 C283.130005,60.8500009 284.139995,60.9799996 285.18,61.06 C285.380001,59.7799936 285.629998,58.5000064 285.93,57.22 C286.230002,55.9399936 286.539998,54.6800062 286.86,53.44 C286.980001,53.039998 287.219998,52.7500009 287.58,52.57 C287.940002,52.3899991 288.299998,52.3199998 288.66,52.36 C289.020002,52.4000002 289.329999,52.5499987 289.59,52.81 C289.850001,53.0700013 289.96,53.4199978 289.92,53.86 L289.68,57.34 C289.6,58.5000058 289.56,59.679994 289.56,60.88 L293.76,60.28 C294.440003,60.1599994 295.019998,60.299998 295.5,60.7 C295.980002,61.100002 296.309999,61.5899971 296.49,62.17 C296.670001,62.7500029 296.680001,63.3499969 296.52,63.97 C296.359999,64.5900031 295.980003,65.0799982 295.38,65.44 C293.779992,66.440005 291.98001,66.94 289.98,66.94 L290.16,68.08 C290.2,68.2000006 290.22,68.4399982 290.22,68.8 C290.860003,68.8800004 291.449997,68.9699995 291.99,69.07 C292.440002,69.1533338 292.827499,69.2713883 293.1525,69.4241664 L293.1525,69.4241664 Z M383.28,82.54 C383.440001,83.6200054 383.330002,84.6299953 382.95,85.57 C382.569998,86.5100047 382.020004,87.3499963 381.3,88.09 C380.579996,88.8300037 379.740005,89.4499975 378.78,89.95 C377.819995,90.4500025 376.860005,90.799999 375.9,91 C374.859995,91.2000003 373.830005,91.2500005 372.81,91.15 C371.789995,91.0499995 370.830004,90.7900021 369.93,90.37 C369.029996,89.9499979 368.240003,89.3900035 367.56,88.69 C366.879997,87.9899965 366.360002,87.1200052 366,86.08 C365.639998,84.9999946 365.46,83.9100055 365.46,82.81 C365.46,81.7099945 365.579999,80.6000056 365.82,79.48 C365.9,79.3599994 365.96,79.100002 366,78.7 C365.679998,78.7400002 365.380001,78.76 365.1,78.76 L364.2,78.76 C364.12,79.7200048 363.820003,80.6799952 363.3,81.64 C362.779997,82.6000048 362.240003,83.3999968 361.68,84.04 C361.319998,84.440002 360.780004,84.8799976 360.06,85.36 C359.339996,85.8400024 358.600004,86.1999988 357.84,86.44 C357.079996,86.6800012 356.380003,86.7100009 355.74,86.53 C355.145711,86.3628563 354.741123,85.8594428 354.526225,85.0197458 L354.48,84.82 C354.4,84.5399986 354.4,84.2500015 354.48,83.95 C354.56,83.6499985 354.709999,83.3900011 354.93,83.17 C355.150001,82.9499989 355.399999,82.8000004 355.68,82.72 C355.960001,82.6399996 356.259998,82.6599994 356.58,82.78 C356.860001,82.9000006 357.179998,82.8900007 357.54,82.75 C357.900002,82.6099993 358.239998,82.4200012 358.56,82.18 C358.880002,81.9399988 359.179999,81.6700015 359.46,81.37 L359.7672,81.0339996 C359.9064,80.8779999 360.024,80.7400006 360.12,80.62 C360.400001,80.2999984 360.689999,79.9600018 360.99,79.6 C361.290002,79.2399982 361.599998,78.8400022 361.92,78.4 C360.999995,78.199999 360.130004,77.8700023 359.31,77.41 C358.489996,76.9499977 357.780003,76.3400038 357.18,75.58 C356.899999,75.2599984 356.92,74.900002 357.24,74.5 L357.3,74.44 C357.42,74.3199994 357.579999,74.2699999 357.78,74.29 C357.980001,74.3100001 358.139999,74.3799994 358.26,74.5 L359.64,74.5 C359.880001,74.5 360.111111,74.5044444 360.333333,74.5133333 L361.26,74.56 L361.26,74.56 C361.860003,74.6000002 362.469997,74.62 363.09,74.62 C363.710003,74.62 364.319997,74.5800004 364.92,74.5 C366.240007,74.3399992 367.489994,74.0200024 368.67,73.54 C369.850006,73.0599976 371.039994,72.5800024 372.24,72.1 C372.720002,71.899999 373.189998,71.9099989 373.65,72.13 C374.110002,72.3500011 374.469999,72.6699979 374.73,73.09 C374.990001,73.5100021 375.11,73.9699975 375.09,74.47 C375.07,74.9700025 374.840002,75.3999982 374.4,75.76 C373.639996,76.360003 372.750005,76.8799978 371.73,77.32 C370.709995,77.7600022 369.620006,78.1199986 368.46,78.4 L368.46,78.64 C368.299999,79.440004 368.18,80.2799956 368.1,81.16 C368.02,82.0400044 368.099999,82.8999958 368.34,83.74 C368.780002,85.2200074 369.599994,86.1999976 370.8,86.68 C372.000006,87.1600024 373.279993,87.2400016 374.64,86.92 C375.160003,86.7999994 375.749997,86.5700017 376.41,86.23 C377.070003,85.8899983 377.589998,85.4900023 377.97,85.03 C378.350002,84.5699977 378.52,84.1100023 378.48,83.65 C378.44,83.1899977 377.980004,82.7800018 377.1,82.42 C376.42,82.0999984 376.139999,81.5800036 376.26,80.86 C376.380001,80.0199958 376.799996,79.3900021 377.52,78.97 C378.240004,78.5499979 378.999996,78.439999 379.8,78.64 C380.720005,78.840001 381.489997,79.3199962 382.11,80.08 C382.730003,80.8400038 383.119999,81.6599956 383.28,82.54 Z M371.291898,59.6819578 L371.323319,59.679996 C370.649365,59.6796715 370.004932,59.659673 369.39,59.62 C368.769997,59.5799998 368.120003,59.5200004 367.44,59.44 C367.640001,59.9600026 367.859999,60.4799974 368.1,61 C368.340001,61.5200026 368.619998,62.0199976 368.94,62.5 C369.620003,61.5799954 370.319996,60.7000042 371.04,59.86 C371.075829,59.7525144 371.159794,59.6931675 371.291898,59.6819578 L371.323319,59.679996 L371.291898,59.6819578 Z M355.98,54.64 C355.739999,54.3999988 355.689999,54.0900019 355.83,53.71 C355.970001,53.3299981 356.239998,53.1599998 356.64,53.2 C357.760006,53.3200006 358.869994,53.479999 359.97,53.68 C361.070005,53.880001 362.199994,54.079999 363.36,54.28 C363.44,53.2399948 363.609999,52.2700045 363.87,51.37 C364.130001,50.4699955 364.459998,49.620004 364.86,48.82 C364.980001,48.619999 365.149999,48.5299999 365.37,48.55 C365.590001,48.5700001 365.74,48.679999 365.82,48.88 C366.260002,49.8000046 366.51,50.7399952 366.57,51.7 C366.63,52.6600048 366.68,53.6599948 366.72,54.7 C366.880001,54.7 367.035556,54.7044444 367.186666,54.7133333 L367.41,54.73 C367.630001,54.7500001 367.859999,54.76 368.1,54.76 C368.836004,54.76 369.559199,54.7216004 370.269599,54.6448002 L370.8,54.58 C371.680004,54.4599994 372.579995,54.3800002 373.5,54.34 L373.847756,54.3448979 C374.060001,54.3514285 374.233061,54.3644897 374.366939,54.3840816 L375.42,54.58 L375.42,54.58 C375.473334,54.58 375.517778,54.5844444 375.553333,54.5933333 L375.6,54.61 C375.64,54.6300001 375.7,54.64 375.78,54.64 C376.140002,54.9600016 376.389999,55.3699975 376.53,55.87 C376.670001,56.3700025 376.680001,56.8699975 376.56,57.37 C376.439999,57.8700025 376.180002,58.319998 375.78,58.72 C375.424443,59.0755573 374.974076,59.3046914 374.42889,59.4074074 L374.22,59.44 C373.779998,59.5200004 373.340002,59.5699999 372.9,59.59 C372.459998,59.6100001 372.020002,59.6399998 371.58,59.68 C371.940002,59.68 372.16,59.8599982 372.24,60.22 C372.360001,61.020004 372.340001,61.8099961 372.18,62.59 C372.019999,63.3700039 371.760002,64.159996 371.4,64.96 C371.960003,65.2800016 372.549997,65.4300001 373.17,65.41 C373.721114,65.3922221 374.295924,65.2085202 374.894444,64.8588895 L375.12,64.72 C375.600002,64.3999984 376.119997,64.3599988 376.68,64.6 C377.240003,64.8400012 377.599999,65.2399972 377.76,65.8 C378.040001,67.000006 377.810004,67.9499965 377.07,68.65 C376.329996,69.3500035 375.400006,69.799999 374.28,70 C373.279995,70.200001 372.300005,70.1800012 371.34,69.94 C370.379995,69.6999988 369.480004,69.3200026 368.64,68.8 C368.279998,69.1600018 367.920002,69.4999984 367.56,69.82 C367.199998,70.1400016 366.840002,70.4399986 366.48,70.72 C366.079998,71.0000014 365.630002,71.2899985 365.13,71.59 C364.629998,71.8900015 364.120003,72.1499989 363.6,72.37 C363.079997,72.5900011 362.550003,72.7699993 362.01,72.91 C361.469997,73.0500007 360.960002,73.0800004 360.48,73 C359.479995,72.8799994 358.780002,72.4300039 358.38,71.65 C357.979998,70.8699961 357.999998,70.0400044 358.44,69.16 C358.600001,68.8399984 358.859998,68.6200006 359.22,68.5 C359.580002,68.3799994 359.919998,68.3599996 360.24,68.44 C360.600002,68.5600006 361.029998,68.5600006 361.53,68.44 C362.030003,68.3199994 362.529998,68.1400012 363.03,67.9 C363.530003,67.6599988 364.019998,67.3700017 364.5,67.03 C364.980002,66.6899983 365.399998,66.3600016 365.76,66.04 C364.399993,63.9999898 363.600001,61.5200146 363.36,58.6 C360.639986,57.799996 358.220011,56.5200088 356.1,54.76 C356.02,54.76 355.98,54.7200004 355.98,54.64 Z M374.1,54.22 C374.780003,54.1399996 375.319998,54.2799982 375.72,54.64 C375.519999,54.573333 375.250557,54.5066668 374.911667,54.4400001 L374.7,54.4 C374.259998,54.3199996 374.06,54.2600002 374.1,54.22 Z M345.54,76.48 C346.340004,77.1600034 347.069997,77.5199998 347.73,77.56 C348.390003,77.6000002 348.979997,77.4300019 349.5,77.05 C350.020003,76.6699981 350.469998,76.1200036 350.85,75.4 C351.230002,74.6799964 351.539999,73.920004 351.78,73.12 C352.020001,72.319996 352.18,71.5100041 352.26,70.69 C352.34,69.8699959 352.36,69.160003 352.32,68.56 C352.24,67.759996 352.130001,66.960004 351.99,66.16 C351.849999,65.359996 351.600002,64.6400032 351.24,64 C350.879998,63.3599968 350.380003,62.84 349.74,62.44 C349.099997,62.039998 348.260005,61.84 347.22,61.84 C346.739998,61.84 346.270002,61.8999994 345.81,62.02 C345.349998,62.1400006 344.900002,62.2799992 344.46,62.44 C344.660001,63.3600046 344.76,64.2899953 344.76,65.23 L344.76,68.08 C344.96,68.0399998 345.159999,68.02 345.36,68.02 C345.560001,68.02 345.759999,67.9800004 345.96,67.9 C346.440002,67.8199996 346.909998,67.7100007 347.37,67.57 C347.830002,67.4299993 348.299998,67.260001 348.78,67.06 C349.340003,66.859999 349.839998,66.8899987 350.28,67.15 C350.720002,67.4100013 351.029999,67.7699977 351.21,68.23 C351.390001,68.6900023 351.430001,69.1699975 351.33,69.67 C351.23,70.1700025 350.940002,70.5599986 350.46,70.84 C349.699996,71.2800022 348.800005,71.5799992 347.76,71.74 C346.719995,71.9000008 345.740005,71.8200016 344.82,71.5 C344.88,72.13 344.9625,72.7543727 345.0675,73.3731233 L345.18,73.99 C345.340001,74.8100041 345.46,75.6399958 345.54,76.48 Z M355.62,69.94 C355.7,71.0200054 355.7,72.1999936 355.62,73.48 C355.54,74.7600064 355.310002,75.9899941 354.93,77.17 C354.549998,78.3500059 353.990004,79.4199952 353.25,80.38 C352.509996,81.3400048 351.540006,82.0399978 350.34,82.48 C349.379995,82.8400006 348.310006,82.9300009 347.13,82.75 C345.949994,82.5699991 344.900005,82.180003 343.98,81.58 L343.86,81.58 C343.259997,81.780001 342.680003,81.7700011 342.12,81.55 C341.559997,81.3299989 341.100002,80.9600026 340.74,80.44 C340.299998,79.839997 339.990001,79.1100043 339.81,78.25 C339.629999,77.3899957 339.53,76.5000046 339.51,75.58 C339.49,74.6599954 339.51,73.7400046 339.57,72.82 C339.63,71.8999954 339.7,71.0800036 339.78,70.36 C339.940001,69.0399934 340.169999,67.6300075 340.47,66.13 C340.770002,64.6299925 341.339996,63.3200056 342.18,62.2 C342.460001,61.4399962 342.929997,60.8200024 343.59,60.34 C344.250003,59.8599976 344.989996,59.520001 345.81,59.32 C346.630004,59.119999 347.479996,59.0499997 348.36,59.11 C349.240004,59.1700003 350.019997,59.3399986 350.7,59.62 C351.660005,60.0600022 352.439997,60.6699961 353.04,61.45 C353.640003,62.2300039 354.119998,63.0999952 354.48,64.06 C354.840002,65.0200048 355.099999,66.0099949 355.26,67.03 C355.420001,68.0500051 355.54,69.0199954 355.62,69.94 Z M375.880193,54.6504444 L375.876696,54.6700081 L375.876696,54.6700081 L375.72,54.64 C375.790805,54.64 375.844203,54.6434815 375.880193,54.6504444 L375.90753,54.6775061 L375.880193,54.6504444 Z M420.3,72.94 C420.820003,72.4599976 421.439996,72.0400018 422.16,71.68 C422.880004,71.3199982 423.639996,71.040001 424.44,70.84 C423.999998,70.1999968 423.68,69.4600042 423.48,68.62 C423.279999,67.7799958 423.15,66.9100045 423.09,66.01 C423.03,65.1099955 423.01,64.2200044 423.03,63.34 C423.05,62.4599956 423.1,61.6600036 423.18,60.94 L423.3,59.44 C422.259995,59.6800012 421.240005,59.9299987 420.24,60.19 C419.239995,60.4500013 418.220005,60.6199996 417.18,60.7 C417.740003,61.2600028 418.199998,61.9499959 418.56,62.77 C418.920002,63.5900041 419.209999,64.44 419.43,65.32 C419.650001,66.2000044 419.81,67.0699957 419.91,67.93 L420.18,70.24 L420.18,70.24 C420.22,70.640002 420.25,71.0599978 420.27,71.5 C420.29,71.94 420.3,72.4199974 420.3,72.94 Z M440.156683,85.5400009 C440.128035,85.5387799 440.113083,85.5340281 440.105607,85.5255383 L440.1,85.51 C440.1,85.4899999 440.08,85.48 440.04,85.48 C440.480002,85.4399998 440.859998,85.5399988 441.18,85.78 C441.500002,86.0200012 441.729999,86.3199982 441.87,86.68 C442.010001,87.0400018 442.05,87.4299979 441.99,87.85 C441.93,88.2700021 441.760001,88.6199986 441.48,88.9 C440.799997,89.5800034 440.030004,90.0399988 439.17,90.28 C438.309996,90.5200012 437.430004,90.6000004 436.53,90.52 C435.629996,90.4399996 434.740004,90.2100019 433.86,89.83 C432.979996,89.4499981 432.180004,89.0000026 431.46,88.48 L430.74,87.94 C430.099997,88.540003 429.410004,89.0699977 428.67,89.53 C427.929996,89.9900023 427.140004,90.319999 426.3,90.52 C425.259995,90.7600012 424.160006,90.780001 423,90.58 C421.839994,90.379999 420.920003,89.8400044 420.24,88.96 C419.679997,88.2799966 419.39,87.5200042 419.37,86.68 C419.35,85.8399958 419.699996,85.1400028 420.42,84.58 C420.620001,84.4199992 420.859999,84.3300001 421.14,84.31 C421.420001,84.2899999 421.659999,84.3999988 421.86,84.64 C422.820005,85.8000058 423.819995,86.3100007 424.86,86.17 C425.900005,86.0299993 426.899995,85.560004 427.86,84.76 C427.059996,83.6399944 426.370003,82.480006 425.79,81.28 C425.209997,80.079994 424.780001,78.9200056 424.5,77.8 C424.42,77.599999 424.479999,77.4300007 424.68,77.29 C424.880001,77.1499993 425.079999,77.1399994 425.28,77.26 C426.280005,77.860003 427.149996,78.5999956 427.89,79.48 C428.630004,80.3600044 429.399996,81.2399956 430.2,82.12 C430.880003,81.1599952 431.459998,80.1900049 431.94,79.21 C432.420002,78.2299951 432.759999,77.4000034 432.96,76.72 C433.280002,75.5999944 433.260002,74.7500029 432.9,74.17 C432.539998,73.5899971 432.000004,73.200001 431.28,73 C430.559996,72.799999 429.750004,72.7399996 428.85,72.82 C427.949995,72.9000004 427.120004,73.0199992 426.36,73.18 C425.919998,73.2600004 425.420003,73.3699993 424.86,73.51 C424.299997,73.6500007 423.740003,73.819999 423.18,74.02 C422.619997,74.220001 422.090002,74.4499987 421.59,74.71 C421.089997,74.9700013 420.680002,75.2599984 420.36,75.58 L420.24,75.58 C420.16,77.380009 419.840003,79.0899919 419.28,80.71 C418.719997,82.3300081 417.780007,83.4799966 416.46,84.16 C415.819997,84.4800016 415.180003,84.5600008 414.54,84.4 C413.899997,84.2399992 413.380002,83.9300023 412.98,83.47 C412.579998,83.0099977 412.36,82.480003 412.32,81.88 C412.283636,81.3345427 412.495204,80.8056217 412.95471,80.2932237 L413.1,80.14 C413.940004,79.2999958 414.609998,77.980009 415.11,76.18 C415.610003,74.379991 415.929999,72.4700101 416.07,70.45 C416.210001,68.4299899 416.140001,66.4900093 415.86,64.63 C415.579999,62.7699907 415.080004,61.3800046 414.36,60.46 C414.159999,60.259999 414.11,60.060001 414.21,59.86 C414.310001,59.659999 414.459999,59.5400002 414.66,59.5 C415.660005,58.699996 416.969992,57.9600034 418.59,57.28 C420.210008,56.5999966 421.939991,56.060002 423.78,55.66 C424.020001,54.3799936 424.359998,53.1500059 424.8,51.97 C425.240002,50.7899941 425.859996,49.6800052 426.66,48.64 C426.860001,48.3599986 427.099999,48.2699995 427.38,48.37 C427.660001,48.4700005 427.82,48.6799984 427.86,49 C427.94,50.0400052 427.95,51.0699949 427.89,52.09 C427.83,53.1100051 427.76,54.1399948 427.68,55.18 C429.360008,55.0999996 430.949993,55.1999986 432.45,55.48 C433.950007,55.7600014 435.179995,56.3399956 436.14,57.22 C436.940004,57.9400036 437.419999,58.7299957 437.58,59.59 C437.740001,60.4500043 437.680001,61.2899959 437.4,62.11 C437.119999,62.9300041 436.680003,63.6799966 436.08,64.36 C435.479997,65.0400034 434.820004,65.5399984 434.1,65.86 C433.379996,66.1800016 432.660004,66.2700007 431.94,66.13 C431.219996,65.9899993 430.600003,65.520004 430.08,64.72 C429.799999,64.1999974 429.879998,63.7800016 430.32,63.46 C430.530001,63.2799991 430.7625,63.1056252 431.017499,62.9368753 L431.28,62.77 C431.640002,62.5499989 431.969998,62.3100013 432.27,62.05 C432.570001,61.7899987 432.809999,61.5100015 432.99,61.21 C433.170001,60.9099985 433.200001,60.560002 433.08,60.16 C432.959999,59.6799976 432.680002,59.3300011 432.24,59.11 C431.799998,58.8899989 431.310003,58.7500003 430.77,58.69 C430.229997,58.6299997 429.670003,58.6199998 429.09,58.66 L427.869376,58.7499999 C427.743126,58.7599999 427.620001,58.7699999 427.5,58.78 L427.5,60.88 C427.5,61.6400038 427.569999,62.3999962 427.71,63.16 C427.803334,63.6666692 427.901111,64.1777777 428.003333,64.6933324 L428.16,65.47 C428.320001,66.2500039 428.459999,67.0299961 428.58,67.81 C428.700001,68.5900039 428.72,69.3399964 428.64,70.06 C429.080002,70.0199998 429.499998,69.9900001 429.9,69.97 C430.300002,69.9499999 430.659998,69.9599998 430.98,70 C432.260006,70.0800004 433.289996,70.3699975 434.07,70.87 C434.850004,71.3700025 435.419998,72.0099961 435.78,72.79 C436.140002,73.5700039 436.33,74.459995 436.35,75.46 C436.37,76.460005 436.240001,77.5199944 435.96,78.64 C435.719999,79.6800052 435.380002,80.7299947 434.94,81.79 C434.499998,82.8500053 433.940003,83.879995 433.26,84.88 L433.44,85 C434.360005,85.6400032 435.249996,85.9400002 436.11,85.9 C436.970004,85.8599998 437.919995,85.7600008 438.96,85.6 L439.26,85.5925 L439.26,85.5925 L439.858342,85.5475831 L439.858342,85.5475831 L440.150463,85.5397938 L440.156683,85.5400009 Z M408.36,79.18 C408.520001,79.0999996 408.709999,79.0999996 408.93,79.18 C409.150001,79.2600004 409.3,79.3599994 409.38,79.48 C409.780002,80.080003 410.01,80.6999968 410.07,81.34 C410.13,81.9800032 410.070001,82.6199997 409.89,83.26 C409.709999,83.9000032 409.430002,84.5099971 409.05,85.09 C408.669998,85.6700029 408.280002,86.1999976 407.88,86.68 C407.479998,87.1600024 406.940003,87.6499975 406.26,88.15 C405.579997,88.6500025 404.860004,89.0599984 404.1,89.38 C403.339996,89.7000016 402.580004,89.8699999 401.82,89.89 C401.059996,89.9100001 400.400003,89.6600026 399.84,89.14 C399.119996,88.4599966 398.8,87.6500047 398.88,86.71 C398.96,85.7699953 399.419996,85.0200028 400.26,84.46 C400.644002,84.2039987 401.053599,83.9928001 401.488799,83.8264002 L401.82,83.71 C402.380003,83.5299991 402.899998,83.2800016 403.38,82.96 C403.900003,82.6399984 404.359998,82.2900019 404.76,81.91 C405.160002,81.5299981 405.579998,81.140002 406.02,80.74 C406.300001,80.4999988 406.569999,80.2600012 406.83,80.02 C407.090001,79.7799988 407.379998,79.5800008 407.7,79.42 C407.74,79.42 407.819999,79.4000002 407.94,79.36 L408.45,79.1875 C408.49,79.1725 408.52,79.1600001 408.54,79.15 C408.58,79.1299999 408.520001,79.1399998 408.36,79.18 Z M409.8,70.06 C410.440003,70.3800016 410.829999,70.8499969 410.97,71.47 C411.110001,72.0900031 411.080001,72.6799972 410.88,73.24 C410.679999,73.8000028 410.320003,74.2499983 409.8,74.59 C409.279997,74.9300017 408.680003,74.9800012 408,74.74 C406.999995,74.4199984 406.080004,73.9400032 405.24,73.3 C404.399996,72.6599968 403.640003,71.940004 402.96,71.14 L402.696,70.828 C402.552,70.6600004 402.390001,70.474001 402.21,70.27 C401.909999,69.9299983 401.640001,69.560002 401.4,69.16 C401.159999,68.759998 400.980001,68.3500021 400.86,67.93 C400.739999,67.5099979 400.759999,67.1200018 400.92,66.76 C401.240002,66.159997 401.679997,65.9999986 402.24,66.28 C402.640002,66.4933344 403.031111,66.7155555 403.413333,66.9466662 L403.98,67.3 C404.540003,67.6600018 405.119997,67.9999984 405.72,68.32 C406.264003,68.6080014 406.807999,68.8511999 407.351999,69.0495998 L407.76,69.19 C408.440003,69.4100011 409.119997,69.6999982 409.8,70.06 Z M406.02,61.66 C405.019995,61.4199988 404.120004,60.9300037 403.32,60.19 C402.519996,59.4499963 401.900002,58.6200046 401.46,57.7 C401.259999,57.3399982 401.080001,56.9200024 400.92,56.44 C400.759999,55.9599976 400.65,55.4800024 400.59,55 C400.53,54.5199976 400.55,54.0500023 400.65,53.59 C400.75,53.1299977 400.979998,52.7400016 401.34,52.42 C401.620001,52.1799988 401.929998,52.0999996 402.27,52.18 C402.610002,52.2600004 402.929999,52.4099989 403.23,52.63 C403.530002,52.8500011 403.809999,53.1099985 404.07,53.41 C404.330001,53.7100015 404.559999,53.9399992 404.76,54.1 C405.274288,54.5800024 405.825304,54.9718362 406.41306,55.2755098 L406.71,55.42 C407.410004,55.7400016 408.059997,56.1599974 408.66,56.68 C409.220003,57.1600024 409.53,57.7199968 409.59,58.36 C409.65,59.0000032 409.530002,59.5899973 409.23,60.13 C408.929999,60.6700027 408.490003,61.0999984 407.91,61.42 C407.329997,61.7400005 406.700003,61.8200008 406.02,61.66 Z M484.62,75.22 L484.14,75.34 C484.166667,75.5533344 484.188889,75.7622223 484.206667,75.9666664 L484.23,76.27 C484.25,76.5700015 484.3,76.8799984 484.38,77.2 C484.46,77.8800034 484.579999,78.5299969 484.74,79.15 C484.900001,79.7700031 485.079999,80.3999968 485.28,81.04 L485.64,80.92 C485.519999,78.9599902 485.579999,76.9200106 485.82,74.8 L485.52,74.9125 L485.52,74.9125 L485.22,75.01 C485.019999,75.0700003 484.820001,75.1399996 484.62,75.22 Z M492.6,75.58 C492.52,74.9399968 492.12,74.5400008 491.4,74.38 C490.679996,74.2199992 489.920004,74.1599998 489.12,74.2 L489.12,76.3 L489.3,78.94 L490.087499,78.4393754 C490.182499,78.3781254 490.279999,78.3150003 490.38,78.25 C490.780002,77.9899987 491.149998,77.7100015 491.49,77.41 C491.830002,77.1099985 492.109999,76.8100015 492.33,76.51 C492.550001,76.2099985 492.64,75.9000016 492.6,75.58 Z M498.78,87.16 C498.980001,87.4000012 499.169999,87.619999 499.35,87.82 C499.530001,88.020001 499.66,88.2799984 499.74,88.6 C499.860001,89.000002 499.88,89.4099979 499.8,89.83 C499.731428,90.1900018 499.574695,90.4985709 499.329796,90.755714 L499.08,91 C498.719998,91.3200016 498.240003,91.5399994 497.64,91.66 C497.039997,91.7800006 496.500002,91.6800016 496.02,91.36 C495.139996,90.8799976 494.540002,90.0000064 494.22,88.72 C492.979994,89.2400026 491.660007,89.6599984 490.26,89.98 C488.859993,90.3000016 487.500007,90.5199994 486.18,90.64 C484.579992,90.8000008 483.230006,90.6600022 482.13,90.22 C481.029994,89.7799978 479.840006,89.160004 478.56,88.36 C478.319999,88.1999992 478.23,88.020001 478.29,87.82 C478.35,87.619999 478.519999,87.4800004 478.8,87.4 C479.440003,87.2799994 480.089997,87.2299999 480.75,87.25 L482.7,87.31 L482.7,87.31 C483.340003,87.3300001 483.979997,87.3300001 484.62,87.31 C485.260003,87.2899999 485.919997,87.180001 486.6,86.98 C486.399999,86.7399988 486.250001,86.4800014 486.15,86.2 C486.05,85.9199986 485.98,85.6400014 485.94,85.36 C485.94,85.2533328 485.935556,85.1555555 485.926667,85.0666668 L485.91,84.94 C485.89,84.8199994 485.88,84.7000006 485.88,84.58 C485.759999,84.6200002 485.65,84.6499999 485.55,84.67 C485.449999,84.6900001 485.340001,84.7 485.22,84.7 C484.939999,85.100002 484.580002,85.4199988 484.14,85.66 C483.419996,85.9800016 482.740003,86.0200012 482.1,85.78 C481.459997,85.5399988 480.920002,85.1400028 480.48,84.58 C479.799997,83.7399958 479.380001,82.7100061 479.22,81.49 C479.059999,80.2699939 479.02,79.1400052 479.1,78.1 C479.14,77.6199976 479.19,77.1000028 479.25,76.54 C479.31,75.9799972 479.419999,75.4300027 479.58,74.89 C479.740001,74.3499973 479.939999,73.8500023 480.18,73.39 C480.420001,72.9299977 480.759998,72.5200018 481.2,72.16 C481.520002,71.9199988 481.879998,71.8 482.28,71.8 C482.680002,71.8 482.999999,71.999998 483.24,72.4 L483.3,72.5125 L483.3,72.5125 L483.36,72.61 C483.4,72.6700003 483.44,72.7399996 483.48,72.82 C483.960002,72.4999984 484.449997,72.240001 484.95,72.04 C485.450002,71.839999 485.979997,71.640001 486.54,71.44 C486.660001,71.039998 486.799999,70.6500019 486.96,70.27 C487.120001,69.8899981 487.299999,69.5400016 487.5,69.22 C487.660001,68.9399986 487.879999,68.8399996 488.16,68.92 C488.440001,69.0000004 488.62,69.1599988 488.7,69.4 C488.78,69.6800014 488.84,69.9499987 488.88,70.21 L489,70.96 L489,70.96 C489.200001,70.96 489.399999,70.9500001 489.6,70.93 C489.800001,70.9099999 489.999999,70.9199998 490.2,70.96 C490.800003,70.96 491.439997,71.0399992 492.12,71.2 C492.800003,71.3600008 493.439997,71.5999984 494.04,71.92 C494.640003,72.2400016 495.159998,72.6499975 495.6,73.15 C496.040002,73.6500025 496.339999,74.2199968 496.5,74.86 C496.660001,75.5800036 496.590001,76.2799966 496.29,76.96 C495.989998,77.6400034 495.580003,78.2599972 495.06,78.82 C494.539997,79.3800028 493.960003,79.8899977 493.32,80.35 L492.580799,80.8780005 C492.2256,81.13 491.892002,81.3639989 491.58,81.58 L489.72,82.78 L489.9,84.1 C490.300002,84.500002 490.46,84.999997 490.38,85.6 C490.900003,85.399999 491.429997,85.2100009 491.97,85.03 C492.510003,84.8499991 493.059997,84.7000006 493.62,84.58 C493.7,84.5399998 493.859999,84.52 494.1,84.52 L494.22,83.47 L494.22,83.47 C494.26,83.1299983 494.32,82.8000016 494.4,82.48 C494.44,82.1999986 494.569999,81.9900007 494.79,81.85 C495.010001,81.7099993 495.239999,81.64 495.48,81.64 C495.720001,81.64 495.949999,81.7099993 496.17,81.85 C496.390001,81.9900007 496.54,82.1799988 496.62,82.42 L498.18,86.08 C498.380001,86.5600024 498.579999,86.9199988 498.78,87.16 Z M500.253703,65.6211104 L500.4,65.8 C500.68,66.1200016 500.83,66.4399984 500.85,66.76 C500.87,67.0800016 500.800001,67.439998 500.64,67.84 L500.28,68.5 C500.039999,68.9400022 499.700002,69.2699989 499.26,69.49 C498.819998,69.7100011 498.380002,69.82 497.94,69.82 C496.01999,69.8600002 494.09001,69.5700031 492.15,68.95 C490.20999,68.3299969 488.380009,67.4600056 486.66,66.34 C485.259993,67.740007 483.760008,68.8199962 482.16,69.58 C480.559992,70.3400038 478.920008,70.5400018 477.24,70.18 C476.719997,70.0599994 476.330001,69.7900021 476.07,69.37 C475.809999,68.9499979 475.68,68.5000024 475.68,68.02 C475.68,67.5399976 475.809999,67.0900021 476.07,66.67 C476.330001,66.2499979 476.719997,66.0000004 477.24,65.92 C477.373334,65.8666664 477.511111,65.8177777 477.653333,65.7733334 L477.87,65.71 C478.090001,65.6499997 478.299999,65.5800004 478.5,65.5 C478.660001,65.4199996 478.879999,65.38 479.16,65.38 C479.840003,65.0999986 480.499997,64.7900017 481.14,64.45 C481.780003,64.1099983 482.379997,63.7200022 482.94,63.28 C482.259997,62.5599964 481.630003,61.800004 481.05,61 C480.469997,60.199996 479.960002,59.3400046 479.52,58.42 C479.399999,58.1799988 479.429999,57.9700009 479.61,57.79 C479.790001,57.6099991 479.999999,57.5799994 480.24,57.7 C481.160005,58.1800024 482.039996,58.6999972 482.88,59.26 C483.720004,59.8200028 484.579996,60.3799972 485.46,60.94 C485.513334,60.8866664 485.562222,60.8288889 485.606667,60.7666668 L485.67,60.67 C485.73,60.5699995 485.8,60.4800004 485.88,60.4 C485.079996,60.2399992 484.330004,59.8100035 483.63,59.11 C482.929997,58.4099965 482.58,57.660004 482.58,56.86 C482.58,56.5399984 482.709999,56.3000008 482.97,56.14 C483.230001,55.9799992 483.499999,55.9799992 483.78,56.14 C484.060001,56.3000008 484.309999,56.4699991 484.53,56.65 C484.750001,56.8300009 485.019998,56.9599996 485.34,57.04 C485.596001,57.1680006 485.871199,57.2448003 486.165599,57.2704001 L486.39,57.28 C486.706668,57.28 487.002499,57.3494437 487.2775,57.488333 L487.44,57.58 C487.52,57.6200002 487.57,57.6599998 487.59,57.7 C487.61,57.7400002 487.64,57.7799998 487.68,57.82 C487.920001,57.419998 488.129999,57.020002 488.31,56.62 C488.490001,56.219998 488.58,55.8500017 488.58,55.51 C488.58,55.1699983 488.440001,54.8900011 488.16,54.67 C487.879999,54.4499989 487.420003,54.3200002 486.78,54.28 C486.671999,54.28 486.337203,54.3285995 485.775601,54.4257999 L485.58,54.46 C485.035997,54.5560005 484.460001,54.6647997 483.852001,54.7863998 L483.39,54.88 C482.765997,55.0080006 482.193201,55.1359997 481.671601,55.2639998 L480.982561,55.4413226 C480.567519,55.5543806 480.36,55.6272726 480.36,55.66 C480.36,55.860001 480.280001,56.0099995 480.12,56.11 C479.959999,56.2100005 479.780001,56.2000006 479.58,56.08 C479.54,56.08 479.48,56.0400004 479.4,55.96 C479.159999,55.8399994 479.08,55.6200016 479.16,55.3 C479.280001,54.6199966 479.699996,54.0400024 480.42,53.56 C481.140004,53.0799976 481.959995,52.6800016 482.88,52.36 C483.800005,52.0399984 484.719995,51.7900009 485.64,51.61 C486.560005,51.4299991 487.299997,51.3200002 487.86,51.28 C489.340007,51.1999996 490.499996,51.559996 491.34,52.36 C492.18,53.160004 492.520001,54.3199924 492.36,55.84 C492.239999,56.9600056 491.920003,58.1499937 491.4,59.41 C490.879997,60.6700063 490.200004,61.899994 489.36,63.1 L490.86,63.7 C492.020006,64.1400022 493.119995,64.36 494.16,64.36 C494.992004,64.36 495.862398,64.3855997 496.771198,64.4367998 L497.46,64.48 C498.140003,64.5200002 498.689998,64.6099993 499.11,64.75 C499.483335,64.8744451 499.864567,65.1648127 500.253703,65.6211104 L500.253703,65.6211104 Z M470.28,75.64 C470.480001,76.3200034 470.370002,76.8999976 469.95,77.38 C469.529998,77.8600024 469.000003,78.1599994 468.36,78.28 C467.679997,78.4000006 466.920004,78.4999996 466.08,78.58 C465.239996,78.6600004 464.410004,78.6500005 463.59,78.55 C462.769996,78.4499995 461.990004,78.2500015 461.25,77.95 C460.509996,77.6499985 459.900002,77.1800032 459.42,76.54 C459.34,76.3799992 459.33,76.2300007 459.39,76.09 C459.438,75.9779994 459.518,75.8979999 459.63,75.85 L459.72,75.82 C460.320003,75.619999 460.939997,75.4900003 461.58,75.43 C462.220003,75.3699997 462.859997,75.3300001 463.5,75.31 C464.140003,75.2899999 464.769997,75.2300005 465.39,75.13 C466.010003,75.0299995 466.619997,74.8200016 467.22,74.5 C467.700002,74.2199986 468.209997,74.1399994 468.75,74.26 C469.290003,74.3800006 469.719998,74.6799976 470.04,75.16 L470.28,75.64 Z M468.72,67.96 C469.840006,68.0400004 470.919995,68.2199986 471.96,68.5 C473.000005,68.7800014 473.919996,69.3799954 474.72,70.3 C475.520004,71.2600048 476.039999,72.3699937 476.28,73.63 C476.520001,74.8900063 476.540001,76.1699935 476.34,77.47 C476.139999,78.7700065 475.750003,80.019994 475.17,81.22 C474.589997,82.420006 473.880004,83.419996 473.04,84.22 C472.479997,84.7800028 471.890003,85.0400002 471.27,85 C470.649997,84.9599998 470.110002,84.740002 469.65,84.34 C469.189998,83.939998 468.870001,83.4200032 468.69,82.78 C468.527999,82.2039971 468.584698,81.628002 468.8601,81.0520007 L468.96,80.86 C469.320002,80.1799966 469.799997,79.3300051 470.4,78.31 C471.000003,77.2899949 471.419999,76.2900049 471.66,75.31 C471.900001,74.3299951 471.840002,73.4600038 471.48,72.7 C471.119998,71.9399962 470.180008,71.4800008 468.66,71.32 C468.339998,71.2933332 468.011111,71.2711111 467.673334,71.2533333 L467.16,71.23 C466.639997,71.2099999 466.130002,71.1800002 465.63,71.14 C465.129998,71.0999998 464.630002,71.0300005 464.13,70.93 C463.629998,70.8299995 463.160002,70.6400014 462.72,70.36 C461.959996,69.8799976 461.470001,69.2600038 461.25,68.5 C461.029999,67.7399962 460.989999,66.9500041 461.13,66.13 C461.270001,65.3099959 461.549998,64.5200038 461.97,63.76 C462.390002,62.9999962 462.879997,62.3800024 463.44,61.9 C463.640001,61.7799994 463.839999,61.7599996 464.04,61.84 C464.240001,61.9200004 464.34,62.0799988 464.34,62.32 C464.31,62.5600012 464.263125,62.8224995 464.199375,63.1074994 L464.13,63.4 C464.03,63.800002 463.94,64.2099979 463.86,64.63 C463.78,65.0500021 463.73,65.4499981 463.71,65.83 C463.69,66.2100019 463.739999,66.5199988 463.86,66.76 C464.100001,67.2000022 464.409998,67.4999992 464.79,67.66 C465.170002,67.8200008 465.589998,67.9199998 466.05,67.96 C466.395002,67.9900002 466.74,67.9975002 467.084999,67.9825001 L467.43,67.96 C467.890002,67.9199998 468.319998,67.9199998 468.72,67.96 Z M461.64,59.2 C461.239998,59.2800004 460.950001,59.120002 460.77,58.72 C460.589999,58.319998 460.679999,57.9600016 461.04,57.64 C461.720003,57.0799972 462.549995,56.600002 463.53,56.2 C464.510005,55.799998 465.529995,55.5200008 466.59,55.36 C467.650005,55.1999992 468.699995,55.1699995 469.74,55.27 C470.780005,55.3700005 471.699996,55.6399978 472.5,56.08 C473.460005,56.6400028 474.169998,57.3699955 474.63,58.27 C475.090002,59.1700045 475.32,60.1299949 475.32,61.15 C475.32,62.1700051 475.110002,63.179995 474.69,64.18 C474.269998,65.180005 473.679999,66.0199966 472.92,66.7 C472.439998,67.1400022 471.880003,67.36 471.24,67.36 C470.599997,67.36 470.040002,67.2100015 469.56,66.91 C469.079998,66.6099985 468.740001,66.1900027 468.54,65.65 C468.339999,65.1099973 468.439998,64.5000034 468.84,63.82 C469.160002,63.2999974 469.509998,62.8100023 469.89,62.35 C470.270002,61.8899977 470.559999,61.3800028 470.76,60.82 C470.920001,60.419998 470.95,60.0800014 470.85,59.8 C470.75,59.5199986 470.580001,59.2900009 470.34,59.11 C470.099999,58.9299991 469.820002,58.8000004 469.5,58.72 C469.179999,58.6399996 468.860002,58.5800002 468.54,58.54 C467.508884,58.4333328 466.485682,58.4846901 465.470372,58.6940737 L465.09,58.78 C463.949994,59.0600014 462.800006,59.2 461.64,59.2 Z M531.12,69.7 C531.560002,69.7800004 531.979998,69.8999992 532.38,70.06 L532.698368,70.1824493 C532.943266,70.2722452 533.137142,70.3314284 533.28,70.36 C533.880003,70.4800006 534.499997,70.5200002 535.14,70.48 C535.780003,70.4399998 536.419997,70.4399998 537.06,70.48 L537.18,70.36 C537.460001,70.1199988 538.019996,69.7700023 538.86,69.31 C539.700004,68.8499977 540.459997,68.3600026 541.14,67.84 C541.820003,67.3199974 542.219999,66.8200024 542.34,66.34 C542.460001,65.8599976 541.960006,65.5000012 540.84,65.26 C539.319992,64.9799986 537.740008,64.84 536.1,64.84 L533.88,64.84 C533.719999,64.7999999 533.580001,64.7899999 533.46,64.81 C533.339999,64.8300001 533.24,64.84 533.16,64.84 L531.12,69.7 Z M559.74,77.08 C560.180002,77.1200002 560.539999,77.2699987 560.82,77.53 C561.100001,77.7900013 561.299999,78.0999982 561.42,78.46 C561.540001,78.8200018 561.6,79.199998 561.6,79.6 C561.6,80.000002 561.520001,80.3599984 561.36,80.68 C560.599996,82.3200082 559.490007,83.7299941 558.03,84.91 C556.569993,86.0900059 554.920009,87.0699961 553.08,87.85 C551.239991,88.6300039 549.270011,89.219998 547.17,89.62 C545.06999,90.020002 542.98001,90.2299999 540.9,90.25 C538.81999,90.2700001 536.830009,90.1300015 534.93,89.83 C533.02999,89.5299985 531.340007,89.0600032 529.86,88.42 C528.019991,87.6599962 526.660004,86.6500063 525.78,85.39 C524.899996,84.1299937 524.370001,82.7500075 524.19,81.25 C524.009999,79.7499925 524.109998,78.1800082 524.49,76.54 C524.870002,74.8999918 525.419996,73.280008 526.14,71.68 C526.860004,70.079992 527.689995,68.580007 528.63,67.18 C529.570005,65.779993 530.499995,64.5600052 531.42,63.52 L531.54,63.4 C531.58,63.4 531.6,63.3800002 531.6,63.34 C532.120003,62.939998 532.719997,62.6500009 533.4,62.47 C534.080003,62.2899991 534.779996,62.1800002 535.5,62.14 C536.220004,62.0999998 536.949996,62.0999998 537.69,62.14 L538.9464,62.212 C539.208799,62.2279999 539.459999,62.2439999 539.7,62.26 C540.620005,62.3400004 541.619995,62.479999 542.7,62.68 C543.780005,62.880001 544.659997,63.3599962 545.34,64.12 C546.180004,65.0800048 546.520001,66.1399942 546.36,67.3 C546.199999,68.4600058 545.750004,69.5799946 545.01,70.66 C544.269996,71.7400054 543.360005,72.679996 542.28,73.48 C541.199995,74.280004 540.200005,74.779999 539.28,74.98 C538.759997,75.1000006 538.240003,75.0800008 537.72,74.92 C536.919996,75.0400006 536.080004,75.0100009 535.2,74.83 C534.319996,74.6499991 533.520004,74.4200014 532.8,74.14 C532.399998,73.9799992 531.950002,73.7500015 531.45,73.45 C530.949997,73.1499985 530.520002,72.7800022 530.16,72.34 C530.039999,72.6600016 529.930001,72.9899983 529.83,73.33 C529.763333,73.5566678 529.701111,73.7788889 529.643333,73.9966663 L529.56,74.32 C529.239998,75.5600062 529.020001,76.6999948 528.9,77.74 C528.779999,78.7800052 528.849999,79.7199958 529.11,80.56 C529.370001,81.4000042 529.879996,82.1399968 530.64,82.78 C531.400004,83.4200032 532.499993,83.9599978 533.94,84.4 C535.420007,84.8400022 537.18999,85.0999996 539.25,85.18 C541.31001,85.2600004 543.37999,85.1099998 545.46,84.73 C547.54001,84.3499981 549.519991,83.7500041 551.4,82.93 C553.280009,82.1099998 554.799994,81.0200068 555.96,79.66 L555.9,79.6 C555.579998,79.3199986 555.469999,78.980002 555.57,78.58 C555.670001,78.179998 555.879998,77.880001 556.2,77.68 C556.560002,77.4399988 556.859999,77.2700005 557.1,77.17 C557.340001,77.0699995 557.579999,77.0000002 557.82,76.96 C558.060001,76.9199998 558.329998,76.9199998 558.63,76.96 L559.0236,77.008 C559.237199,77.032 559.475999,77.0559999 559.74,77.08 Z M532.04,59.3333331 L531.84,59.62 C531.319997,60.3800038 530.750003,61.1499961 530.13,61.93 C529.509997,62.7100039 528.840004,63.4199968 528.12,64.06 C527.399996,64.7000032 526.610004,65.2399978 525.75,65.68 C524.889996,66.1200022 523.980005,66.3599998 523.02,66.4 C522.299996,66.4400002 521.710002,66.2700019 521.25,65.89 C520.789998,65.5099981 520.490001,65.0500027 520.35,64.51 C520.209999,63.9699973 520.219999,63.400003 520.38,62.8 C520.540001,62.199997 520.899997,61.700002 521.46,61.3 C521.940002,60.9399982 522.425624,60.6081252 522.916874,60.3043755 L523.41,60.01 C524.070003,59.6299981 524.719997,59.1600028 525.36,58.6 C525.920003,58.0799974 526.459997,57.5500027 526.98,57.01 L527.76,56.1925 L527.76,56.1925 L528.54,55.36 C529.340004,54.5279958 530.101599,53.657602 530.824799,52.7488017 L531.36,52.06 C532.240004,50.8999942 533.199995,49.820005 534.24,48.82 L534.42,48.58 C534.46,48.58 534.5,48.5600002 534.54,48.52 L534.9,48.16 L534.9,48.22 C535.060001,48.0999994 535.239999,48.0300001 535.44,48.01 C535.640001,47.9899999 535.839999,47.9999999 536.04,48.04 C536.240001,48.0800002 536.399999,48.1799992 536.52,48.34 C536.640001,48.4999999 536.68,48.6999988 536.64,48.94 C536.479999,50.0600056 536.220002,51.1399948 535.86,52.18 C535.499998,53.2200052 535.060003,54.239995 534.54,55.24 C535.460005,55.0799992 536.419995,54.9700003 537.42,54.91 C538.420005,54.8499997 539.389995,54.8100001 540.33,54.79 C541.082004,54.7739999 541.801999,54.7707999 542.489999,54.7804 L544.013878,54.8102041 L544.013878,54.8102041 L545.16,54.82 C546.240005,54.82 547.359994,54.8499997 548.52,54.91 C549.680006,54.9700003 550.799995,55.1199988 551.88,55.36 C552.960005,55.6000012 553.979995,55.9799974 554.94,56.4999999 C555.900005,57.0200026 556.719997,57.7599952 557.4,58.72 C558.120004,59.7600052 558.569999,60.9099937 558.75,62.17 C558.930001,63.4300063 558.910001,64.7099935 558.69,66.01 C558.469999,67.3100065 558.060003,68.5799938 557.46,69.82 C556.859997,71.0600062 556.120004,72.1599952 555.24,73.12 C554.359996,74.0800048 553.370005,74.859997 552.27,75.46 C551.169995,76.060003 550.000006,76.3799998 548.76,76.42 C548.159997,76.42 547.640002,76.2400018 547.2,75.88 C546.759998,75.5199982 546.450001,75.0900025 546.27,74.59 C546.089999,74.0899975 546.079999,73.5700027 546.24,73.03 C546.400001,72.4899973 546.759997,72.0600016 547.32,71.74 L549.592499,70.4237507 C549.837499,70.2812508 550.079999,70.1400006 550.32,69.9999999 C551.280005,69.4399972 552.119996,68.7000046 552.84,67.78 C553.160002,67.379998 553.459999,66.9400024 553.74,66.46 C554.020001,65.9799976 554.2,65.4999999 554.28,65.02 C554.440001,64.2999964 554.360002,63.5800036 554.04,62.86 C553.719998,62.1399964 553.280003,61.4700031 552.72,60.85 C552.159997,60.2299969 551.530004,59.6800024 550.83,59.2 C550.129996,58.7199976 549.460003,58.380001 548.82,58.18 C547.539994,57.779998 546.240007,57.58 544.92,57.58 C543.599993,57.58 542.270007,57.6199996 540.93,57.7 L536.91,57.94 C535.569993,58.0200004 534.280006,57.960001 533.04,57.76 L532.44,58.72 C532.306666,58.9333344 532.173333,59.1377779 532.04,59.3333331 L532.04,59.3333331 Z M611.4,77.74 C611.32,77.6599996 611.26,77.6100001 611.22,77.59 C611.18,77.5699999 611.14,77.5200004 611.1,77.44 C610.339996,76.5599956 609.580004,75.5700055 608.82,74.47 C608.059996,73.3699945 607.360003,72.1800064 606.72,70.9 C606.76,73.2600118 606.879999,75.5999884 607.08,77.92 C607.590003,77.92 608.094374,77.9031252 608.593124,77.8693751 L609.09,77.83 C609.750003,77.7699997 610.439996,77.74 611.16,77.74 L611.4,77.74 Z M601.86,77.08 C601.9,75.5599924 601.989999,74.0700073 602.13,72.61 L602.52,68.5 L602.52,68.5 C602.039998,69.7800064 601.500003,71.019994 600.9,72.22 C600.299997,73.420006 599.620004,74.5399948 598.86,75.58 C599.220002,75.9400018 599.669997,76.2399988 600.21,76.48 C600.750003,76.7200012 601.299997,76.9199992 601.86,77.08 Z M622.5,77.86 C622.980002,78.3000022 623.120001,78.8399968 622.92,79.48 C622.639999,80.8400068 622.150004,81.7399978 621.45,82.18 C620.749996,82.6200022 619.950004,82.7700007 619.05,82.63 C618.149995,82.4899993 617.220005,82.1500027 616.26,81.61 C615.299995,81.0699973 614.400004,80.4600034 613.56,79.78 C613.48,80.1000016 613.340001,80.4199984 613.14,80.74 C612.939999,81.0600016 612.640002,81.3799984 612.24,81.7 C611.599997,82.1800024 610.880004,82.4899993 610.08,82.63 C609.279996,82.7700007 608.440004,82.8000004 607.56,82.72 C607.760001,84.0000064 607.91,85.2199942 608.01,86.38 C608.110001,87.5400058 607.960002,88.7599936 607.56,90.04 C607.319999,90.7200034 606.840004,91.0999996 606.12,91.18 C605.399996,91.2600004 604.840002,91.0200028 604.44,90.46 C603.559996,89.1799936 602.930002,87.7100083 602.55,86.05 C602.169998,84.3899917 601.94,82.6400092 601.86,80.8 C601.82,80.7599998 601.78,80.74 601.74,80.74 C601.179997,80.4199984 600.480004,79.9200034 599.64,79.24 C598.799996,78.5599966 598.140002,77.8600036 597.66,77.14 C597.019997,77.8600036 596.460002,78.3999982 595.98,78.76 C595.619998,79.0800016 595.210002,79.3899985 594.75,79.69 C594.289998,79.9900015 593.800003,80.2199992 593.28,80.38 C592.759997,80.5400008 592.250002,80.6000002 591.75,80.56 C591.249998,80.5199998 590.780002,80.300002 590.34,79.9 C590.3,79.8599998 590.26,79.8300001 590.22,79.81 C590.18,79.7899999 590.14,79.7400004 590.1,79.66 C590.380001,80.5800046 590.739998,81.4199962 591.18,82.18 C591.580002,82.9000036 591.700001,83.5999966 591.54,84.28 C591.379999,84.9600034 591.060002,85.5099979 590.58,85.93 C590.099998,86.3500021 589.510004,86.5799998 588.81,86.62 C588.109997,86.6600002 587.440003,86.4200026 586.8,85.9 C585.959996,85.2199966 585.300002,84.3900049 584.82,83.41 C584.339998,82.4299951 584.000001,81.3900055 583.8,80.29 C583.599999,79.1899945 583.49,78.0700057 583.47,76.93 C583.45,75.7899943 583.48,74.720005 583.56,73.72 L583.608,73.3024 L583.608,73.3024 L583.68,72.55 C583.72,72.0899977 583.78,71.6000026 583.86,71.08 C583.419998,71.3600014 583.000002,71.5899991 582.6,71.77 C582.199998,71.9500009 581.800002,72.1199992 581.4,72.28 C580.799997,72.480001 580.150004,72.4700011 579.45,72.25 C578.749996,72.0299989 578.260001,71.6400028 577.98,71.08 C577.94,70.9599994 577.88,70.8600004 577.8,70.78 C577.359998,69.9399958 577.279999,69.1500037 577.56,68.41 C577.840001,67.6699963 578.419996,67.100002 579.3,66.7 C581.500011,65.7799954 583.459991,64.4600086 585.18,62.74 C586.180005,61.7799952 587.079996,60.700006 587.88,59.5 C588.136001,59.1159981 588.3536,58.7384007 588.5328,58.3672007 L588.66,58.09 C588.860001,57.6299977 589.179998,57.200002 589.62,56.8 C589.900001,56.6399992 590.159999,56.659999 590.4,56.86 C590.920003,57.3800026 591.21,58.0099963 591.27,58.75 C591.33,59.4900037 591.260001,60.259996 591.06,61.06 C590.859999,61.860004 590.580002,62.6299963 590.22,63.37 L589.921224,63.9773481 C589.680408,64.4610212 589.460001,64.8885696 589.26,65.26 C589.206666,65.3666672 589.144445,65.4688889 589.073334,65.5666665 L588.96,65.71 C588.839999,65.8500007 588.74,66.019999 588.66,66.22 L588.78,68.02 C588.84,68.620003 588.8775,69.2199993 588.8925,69.8199989 L588.9,70.42 C588.9,71.220004 588.94,72.019996 589.02,72.82 L589.26,75.31 L589.26,75.31 C589.34,76.1300041 589.459999,76.939996 589.62,77.74 C589.740001,77.2599976 589.979998,76.8400018 590.34,76.48 C590.620001,76.279999 590.909999,76.2299995 591.21,76.33 C591.510002,76.4300005 591.7,76.6399984 591.78,76.96 C591.82,77.1200008 592.009998,77.0800012 592.35,76.84 C592.690002,76.5999988 593.069998,76.3000018 593.49,75.94 C593.910002,75.5799982 594.299998,75.2300017 594.66,74.89 L595.32,74.26 L595.32,74.26 C595.920003,73.5399964 596.469998,72.780004 596.97,71.98 C597.470002,71.179996 597.959998,70.3600042 598.44,69.52 C598.856002,68.7839963 599.246399,68.0224017 599.611199,67.2352015 L599.88,66.64 C600.320002,65.639995 600.799997,64.6600048 601.32,63.7 C599.519991,63.2599978 597.900007,62.5700047 596.46,61.63 C595.019993,60.6899953 593.900004,59.3800084 593.1,57.7 C592.899999,57.299998 592.969998,56.9600014 593.31,56.68 C593.650002,56.3999986 593.999998,56.359999 594.36,56.56 C595.920008,57.4800046 597.459992,58.0999984 598.98,58.42 C600.500008,58.7400016 602.039992,58.9399996 603.6,59.02 C603.920002,57.0599902 604.349997,55.1500093 604.89,53.29 C605.430003,51.4299907 606.139996,49.6400086 607.02,47.92 C607.180001,47.6399986 607.379999,47.5599994 607.62,47.68 C607.860001,47.8000006 608,47.9799988 608.04,48.22 C608.04,50.020009 607.970001,51.819991 607.83,53.62 C607.689999,55.420009 607.540001,57.219991 607.38,59.02 L610.68,58.78 L610.68,58.78 C611.800006,58.6999996 612.939994,58.66 614.1,58.66 C614.780003,58.66 615.339998,58.8899977 615.78,59.35 C616.220002,59.8100023 616.49,60.3299971 616.59,60.91 C616.69,61.4900029 616.610001,62.0499973 616.35,62.59 C616.089999,63.1300027 615.600004,63.4799992 614.88,63.64 C613.839995,63.8800012 612.710006,64.0499995 611.49,64.15 C610.269994,64.2500005 609.020006,64.3199998 607.74,64.36 C608.660005,65.8800076 609.539996,67.3999924 610.38,68.92 C611.220004,70.4400076 612.279994,71.899993 613.56,73.3 L614.325,74.1175001 C614.574999,74.3824994 614.819999,74.6399987 615.06,74.89 C615.540002,75.3900025 616.049997,75.839998 616.59,76.24 C617.130003,76.640002 617.719997,76.9599988 618.36,77.2 C619.000003,77.4400012 619.719996,77.56 620.52,77.56 C620.975002,77.56 621.292187,77.5217191 621.471562,77.4451564 L621.54,77.41 C621.700001,77.3099995 622.019998,77.459998 622.5,77.86 Z" id="" fill="#000000" fill-rule="nonzero"></path>
    </g>
</svg>