<?xml version="1.0" encoding="UTF-8"?>
<svg width="900px" height="140px" viewBox="0 0 900 140" version="1.1" xmlns="http://www.w3.org/2000/svg" xmlns:xlink="http://www.w3.org/1999/xlink">
    <!-- Generator: Sketch 59.1 (86144) - https://sketch.com -->
    <title>preview</title>
    <desc>Created with Sketch.</desc>
    <g id="preview" stroke="none" stroke-width="1" fill="none" fill-rule="evenodd">
        <path d="M399.433594,97.15625 L398.144531,96.453125 C397.83203,96.062498 397.714843,95.5546906 397.792969,94.9296875 C400.214856,93.2109289 402.138665,91.4921961 403.564453,89.7734375 C404.990242,88.0546789 405.957029,85.9941526 406.464844,83.5917969 C406.972659,81.1894411 407.226562,76.4336293 407.226562,69.3242188 C407.460939,68.777341 407.85156,68.3867199 408.398438,68.1523438 L409.453125,68.1523438 C410.000003,68.3867199 410.390624,68.777341 410.625,69.3242188 L410.859375,70.7304688 L410.817032,73.1214341 C410.730515,77.1805475 410.58838,79.9186941 410.390625,81.3359375 C410.156249,83.0156334 409.843752,84.6953041 409.453125,86.375 C410.54688,87.8593824 411.757806,89.2460873 413.085938,90.5351562 C414.414069,91.8242252 415.742181,93.0546816 417.070312,94.2265625 L417.070312,95.1640625 C416.835936,95.7109402 416.445315,96.1015613 415.898438,96.3359375 L414.726562,96.3359375 C413.476556,95.4765582 412.285162,94.5000055 411.152344,93.40625 C410.019526,92.3124945 408.98438,91.1406312 408.046875,89.890625 C407.031245,91.296882 405.888678,92.5859316 404.619141,93.7578125 C403.349603,94.9296934 402.011726,95.9453082 400.605469,96.8046875 L399.433594,97.15625 Z M388.769531,97.0390625 L387.597656,96.453125 C387.207029,95.9843727 386.972657,95.4375031 386.894531,94.8125 L386.542969,82.4492188 C385.371088,84.089852 384.375004,85.7597571 383.554688,87.4589844 C382.734371,89.1582116 381.894536,90.8281168 381.035156,92.46875 C380.410153,93.0156277 379.667973,93.2500004 378.808594,93.171875 L377.636719,92.5859375 C377.167966,92.0390598 376.972656,91.3359418 377.050781,90.4765625 C378.066411,88.1328008 379.179681,85.7988397 380.390625,83.4746094 C381.601569,81.150379 382.949211,78.8945422 384.433594,76.7070312 L381.269531,76.9414062 C380.219526,77.1289072 379.637531,76.3084155 379.523531,74.4799074 L378.925781,63.2304688 C379.003907,61.8242117 379.374997,61.0820316 380.039062,61.0039062 L380.294688,60.9796605 C381.176263,60.9096172 383.29807,60.8395747 386.660156,60.7695312 L386.542969,55.5546875 L381.738281,55.8476562 C381.113278,55.7695309 380.566409,55.5156271 380.097656,55.0859375 C379.628904,54.5390598 379.433593,53.8359418 379.511719,52.9765625 L380.097656,51.8046875 C380.957036,51.2578098 381.933588,51.0039061 383.027344,51.0429688 C384.121099,51.0820314 385.214838,51.0625004 386.308594,50.984375 L386.191406,45.59375 L386.777344,44.421875 C387.324221,43.9531227 388.027339,43.7578121 388.886719,43.8359375 L390.058594,44.421875 C390.605471,45.2812543 390.878906,46.2773381 390.878906,47.4101562 L390.878906,50.75 L396.035156,50.75 L397.207031,51.3359375 C397.675784,51.8828152 397.871094,52.5859332 397.792969,53.4453125 L397.207031,54.6171875 C396.347652,55.1640652 395.371099,55.4179689 394.277344,55.3789062 C393.183588,55.3398436 392.128911,55.3203125 391.113281,55.3203125 L391.230469,60.6523438 C393.183604,60.4179676 394.794916,60.3789055 396.064453,60.5351562 C397.270514,60.6835945 397.894874,61.3079536 397.937549,62.4082511 L397.939771,63.3789202 C397.957314,65.1549477 398.06463,68.9335648 398.261719,74.7148438 C398.066405,75.96485 397.529301,76.6484369 396.650391,76.765625 C395.77148,76.8828131 394.316416,76.8242199 392.285156,76.5898438 L396.621094,80.6914062 L396.738281,82.0976562 L396.152344,83.2695312 C395.527341,83.7382836 394.785161,83.9335941 393.925781,83.8554688 L391.113281,81.8632812 L391.464844,95.28125 L390.878906,96.453125 C390.332029,96.9218773 389.628911,97.1171879 388.769531,97.0390625 Z M365.625,96.921875 C364.999997,96.8437496 364.453127,96.609377 363.984375,96.21875 C363.515623,95.5937469 363.320312,94.8515668 363.398438,93.9921875 L364.21875,92.5859375 C365.546882,91.7265582 366.874993,90.8085986 368.203125,89.8320312 C369.531257,88.8554639 370.937493,88.1328148 372.421875,87.6640625 L373.59375,88.25 C374.062502,88.7968777 374.257813,89.4999957 374.179688,90.359375 L373.242188,91.765625 L367.382812,96.21875 C366.835935,96.609377 366.250003,96.8437496 365.625,96.921875 Z M402.363281,88.1328125 C401.738278,88.0546871 401.191409,87.8203145 400.722656,87.4296875 L400.67227,87.3234376 C399.998026,85.7126986 399.565607,76.9591345 399.375,61.0625 C399.257812,59.2265533 399.667964,58.3085938 400.605469,58.3085938 L403.455462,58.2752606 C404.68046,58.2558162 406.24999,58.2278648 408.164062,58.1914062 C408.554689,56.6288984 409.726553,53.601585 411.679688,49.109375 L405.351562,49.2265625 L402.949219,54.6171875 C402.558592,54.9296891 402.050784,55.0468754 401.425781,54.96875 C400.878904,54.7343738 400.488282,54.3437527 400.253906,53.796875 L400.136719,53.09375 L402.421875,46.7070312 L402.421875,46.7070312 C402.695314,45.96484 403.632804,45.6328121 405.234375,45.7109375 L408.763314,45.6789316 C412.878654,45.6580987 415.208183,45.7175952 415.751953,45.8574219 C416.43555,46.033204 416.484378,46.7265564 415.898438,47.9375 L414.690187,51.0037004 C413.298714,54.5029009 412.295221,56.8987862 411.679688,58.1914062 L415.78125,58.0742188 C416.914068,57.917968 417.5,58.5038996 417.539062,59.8320312 L417.304688,81.0429688 L417.304688,81.0429688 C417.304688,82.5273512 417.070315,83.894525 416.601562,85.1445312 C416.054685,85.6523463 415.351567,85.8671879 414.492188,85.7890625 L413.320312,85.1445312 C412.617184,83.9726504 412.382811,82.6445387 412.617188,81.1601562 L412.96875,62.7617188 L404.121094,62.8789062 L404.765625,86.2578125 L404.121094,87.4296875 C403.574216,87.8203145 402.988284,88.0546871 402.363281,88.1328125 Z M386.660156,72.0195312 L386.660156,65.3398438 L382.441406,65.4570312 L382.910156,72.2539062 L386.660156,72.0195312 Z M394.746094,72.0195312 L394.511719,65.2226562 L391.230469,65.2226562 L391.230469,72.0195312 L394.746094,72.0195312 Z M372.890625,64.9882812 C371.765619,64.6757797 370.628127,64.4007815 369.478127,64.1632816 L368.613281,63.9921875 C367.167962,63.7187486 365.742195,63.3476586 364.335938,62.8789062 C363.867185,62.3320285 363.671875,61.6289105 363.75,60.7695312 L364.335938,59.5976562 C365.195317,59.0507785 366.210932,58.855468 367.382812,59.0117188 C368.632819,59.3242203 369.882806,59.5976551 371.132812,59.8320312 C372.382819,60.0664074 373.613275,60.4570285 374.824219,61.0039062 C375.292971,61.550784 375.488282,62.253902 375.410156,63.1132812 L374.824219,64.2851562 C374.238278,64.6757832 373.593754,64.9101559 372.890625,64.9882812 Z M375.292969,53.328125 C374.225255,53.0156234 373.148872,52.7118055 372.063804,52.4166671 L370.429688,51.9804688 C368.789054,51.5507791 367.187508,51.1015648 365.625,50.6328125 C365.078122,50.0078094 364.84375,49.2656293 364.921875,48.40625 L365.507812,47.234375 C366.210941,46.6874973 367.070307,46.4921867 368.085938,46.6484375 C369.57032,47.0390645 371.064446,47.4296855 372.568359,47.8203125 C374.072273,48.2109395 375.527337,48.6796848 376.933594,49.2265625 C377.480471,49.8515656 377.714844,50.5937457 377.636719,51.453125 L377.050781,52.625 C376.503904,53.015627 375.917972,53.2499996 375.292969,53.328125 Z M428.320312,96.8046875 L427.148438,96.21875 C426.679685,95.5937469 426.484375,94.8515668 426.5625,93.9921875 C429.296889,88.6015355 431.054684,82.9472952 431.835938,77.0292969 C432.617191,71.1112985 432.96875,64.9101887 432.890625,58.4257812 C432.96875,56.66796 433.623041,55.7109383 434.853516,55.5546875 L435.408962,55.4913104 C436.478796,55.3816959 437.831974,55.308255 439.468519,55.2709862 L457.868215,55.0155668 C466.415393,54.9204345 471.253545,55.0610777 472.382812,55.4375 C473.554693,55.828127 474.062501,56.7167899 473.90625,58.1035156 L473.845426,58.6193042 C473.679174,59.9746661 473.406482,61.824207 473.027344,64.1679688 L472.877311,65.0778986 C472.506284,67.2837865 472.165673,68.9726504 471.855469,70.1445312 C471.503904,71.4726629 470.234386,71.9804703 468.046875,71.6679688 L437.167969,71.7851562 C436.621091,76.0039273 435.917973,80.1933386 435.058594,84.3535156 C434.199214,88.5136927 432.656261,92.4687312 430.429688,96.21875 C429.88281,96.6875023 429.179692,96.8828129 428.320312,96.8046875 Z M467.8125,67.0976562 L468.75,59.8320312 L437.636719,60.0664062 L437.652469,60.3881572 C437.701344,61.704909 437.61797,63.9804526 437.402344,67.2148438 L467.8125,67.0976562 Z M456.621094,53.9140625 C454.82421,52.8984324 452.988291,51.9414107 451.113281,51.0429688 C449.238272,50.1445268 447.363291,49.2656293 445.488281,48.40625 C445.019529,47.7812469 444.824218,47.0390668 444.902344,46.1796875 L445.488281,45.0078125 C446.19141,44.4609348 447.050776,44.2656242 448.066406,44.421875 C449.441413,45.1718788 450.841403,45.8843739 452.266404,46.5593739 L453.339844,47.0585938 C455.136728,47.8789104 456.894523,48.7968699 458.613281,49.8125 C459.160159,50.4375031 459.394532,51.2187453 459.316406,52.15625 L458.730469,53.328125 C458.183591,53.7968773 457.480473,53.9921879 456.621094,53.9140625 Z M496.464844,96.5703125 C495.839841,96.4921871 495.292971,96.2578145 494.824219,95.8671875 C494.199216,93.4453004 493.857422,91.1406359 493.798828,88.953125 L493.725002,86.8117998 C493.585029,83.1379193 493.267843,75.785328 492.773438,64.7539062 L487.265625,75.0664062 C486.718747,75.5351586 486.015629,75.7304691 485.15625,75.6523438 L483.984375,75.0664062 C483.437497,74.4414031 483.242187,73.6601609 483.398438,72.7226562 C485.260426,68.4973747 487.393179,64.3788261 489.79675,60.3669068 L490.458984,59.2753906 C493.134779,54.9199001 495.527333,50.437523 497.636719,45.828125 C498.261722,45.2812473 499.003902,45.0468746 499.863281,45.125 L501.035156,45.7109375 C501.582034,46.3359406 501.777345,47.1171828 501.621094,48.0546875 C500.884483,49.3270153 500.233978,50.6280254 499.669564,51.9577467 L499.394531,52.625 C498.769528,54.1875078 498.06641,55.7695232 497.285156,57.3710938 L498.808594,94.6953125 L498.222656,95.8671875 C497.675779,96.2578145 497.089847,96.4921871 496.464844,96.5703125 Z M519.433594,96.8046875 L518.261719,96.21875 C517.769529,95.5156215 517.498828,94.7492218 517.449609,93.9195323 L517.207031,84.9101562 C515.253896,85.066407 513.457039,84.7929723 511.816406,84.0898438 C511.347654,83.542966 511.152343,82.839848 511.230469,81.9804688 L511.816406,80.8085938 C512.675786,80.1835906 513.730462,79.9882801 514.980469,80.2226562 L517.089844,80.3398438 L516.972656,68.3867188 C514.863271,71.042982 512.968758,73.8163918 511.289062,76.7070312 C509.609367,79.5976707 507.910165,82.4492047 506.191406,85.2617188 C505.644529,85.7695338 504.941411,85.9843754 504.082031,85.90625 L502.910156,85.2617188 C502.519529,84.714841 502.285157,84.0898473 502.207031,83.3867188 C504.082041,79.8710762 506.074208,76.4140795 508.183594,73.015625 C510.292979,69.6171705 512.402333,66.238298 514.511719,62.8789062 L503.496094,63.3476562 C502.871091,63.2695309 502.324221,63.0351582 501.855469,62.6445312 C501.386716,62.0976535 501.191406,61.3945355 501.269531,60.5351562 L501.855469,59.3632812 C502.558597,58.8164035 503.417964,58.5820309 504.433594,58.6601562 L516.738281,58.3085938 L516.738281,48.171875 C516.816407,47.5468719 517.050779,47.0000023 517.441406,46.53125 C517.988284,46.0624977 518.691402,45.8671871 519.550781,45.9453125 L520.722656,46.53125 L521.308594,47.703125 L521.308594,58.0742188 L534.023438,57.7226562 L535.195312,58.3085938 C535.664065,58.8554715 535.859375,59.5585895 535.78125,60.4179688 L535.195312,61.5898438 C534.179682,62.2148469 533.007819,62.4882816 531.679688,62.4101562 L522.246094,62.6445312 L523.417745,63.9464169 C529.164989,70.3002011 533.247058,74.3193275 535.664062,76.0039062 C536.21094,76.6289094 536.445313,77.3710895 536.367188,78.2304688 L535.78125,79.4023438 C535.234372,79.8710961 534.531254,80.0664066 533.671875,79.9882812 C532.73437,79.5976543 531.875004,79.0703158 531.09375,78.40625 C530.399302,77.8159693 529.627704,77.0868089 528.778936,76.2187512 L521.542969,68.6210938 L521.542969,68.6210938 L521.660156,80.3398438 L528.164062,79.8710938 L529.335938,80.4570312 C529.80469,81.003909 530,81.707027 529.921875,82.5664062 L529.335938,83.7382812 C528.242182,84.3632844 527.021491,84.6757812 525.673828,84.6757812 C524.326165,84.6757812 523.02735,84.7539055 521.777344,84.9101562 L522.128906,95.046875 L521.542969,96.21875 C520.996091,96.6875023 520.292973,96.8828129 519.433594,96.8046875 Z" id="濑户体" fill="#000000" fill-rule="nonzero"></path>
    </g>
</svg>