<?xml version="1.0" encoding="UTF-8"?>
<svg width="900px" height="140px" viewBox="0 0 900 140" version="1.1" xmlns="http://www.w3.org/2000/svg" xmlns:xlink="http://www.w3.org/1999/xlink">
    <!-- Generator: Sketch 59.1 (86144) - https://sketch.com -->
    <title>preview</title>
    <desc>Created with Sketch.</desc>
    <g id="preview" stroke="none" stroke-width="1" fill="none" fill-rule="evenodd">
        <path d="M193.957031,100.753906 C193.21484,100.714844 192.726564,100.343754 192.492188,99.640625 C192.414062,98.6249949 192.511717,97.6093801 192.785156,96.59375 C193.136721,94.5234271 193.351562,92.4140732 193.429688,90.265625 C193.859377,85.8906031 194.367185,81.4961158 194.953125,77.0820312 C195.265627,74.933583 195.539061,72.7656359 195.773438,70.578125 C195.773438,69.6015576 195.851562,68.6054738 196.007812,67.5898438 C196.398439,66.6132764 196.496095,65.6171926 196.300781,64.6015625 C195.714841,64.2890609 195.070316,64.2304678 194.367188,64.4257812 C193.234369,64.4648439 192.101568,64.4648439 190.96875,64.4257812 C189.054678,64.8164082 187.492194,64.3476629 186.28125,63.0195312 C186.007811,62.1992146 186.320308,61.7304693 187.21875,61.6132812 C188.23438,61.4960932 189.289057,61.4179689 190.382812,61.3789062 C191.398443,61.3398436 192.394526,61.3593746 193.371094,61.4375 C194.269536,61.6328135 195.167964,61.6328135 196.066406,61.4375 C196.808597,61.2421865 197.199219,60.7343791 197.238281,59.9140625 L197.589844,56.984375 C197.667969,56.0078076 197.765624,55.0117238 197.882812,53.9960938 C197.726562,53.1367145 197.941403,52.3750033 198.527344,51.7109375 C199.19141,51.5546867 199.894528,51.4570314 200.636719,51.4179688 C201.574223,51.1835926 202.570307,51.0078131 203.625,50.890625 C205.343759,51.1640639 206.046877,52.1992098 205.734375,53.9960938 C205.578124,54.6992223 205.421876,55.3828092 205.265625,56.046875 C205.070312,57.0625051 204.933594,58.0585889 204.855469,59.0351562 C204.58203,59.6210967 204.542968,60.1874973 204.738281,60.734375 C205.402347,61.24219 206.144527,61.3203143 206.964844,60.96875 C208.527352,60.8515619 210.128898,60.7734377 211.769531,60.734375 L211.652344,60.734375 C212.082033,60.6562496 212.550779,60.6757807 213.058594,60.7929688 C213.957036,60.7148434 214.796871,60.929685 215.578125,61.4375 C216.046877,62.0625031 216.007815,62.6679658 215.460938,63.2539062 C214.757809,63.6835959 213.976567,63.8593754 213.117188,63.78125 C210.968739,64.0156262 208.839854,64.0351572 206.730469,63.8398438 C205.832027,63.6445303 205.011722,63.7617166 204.269531,64.1914062 C203.644528,64.8554721 203.410155,65.6367143 203.566406,66.5351562 C203.058591,70.8711154 202.531253,75.1874785 201.984375,79.484375 C201.47656,83.9375223 201.007815,88.3906027 200.578125,92.84375 C200.460937,93.742192 200.32422,94.6406205 200.167969,95.5390625 C200.089843,96.0078148 200.089843,96.437498 200.167969,96.828125 C200.285157,97.2578146 200.265626,97.6093736 200.109375,97.8828125 C200.304688,98.1953141 200.343751,98.527342 200.226562,98.8789062 C200.148437,99.5820348 199.757816,100.031249 199.054688,100.226562 C198.156246,100.382813 197.277348,100.5 196.417969,100.578125 C196.027342,100.65625 195.656252,100.695312 195.304688,100.695312 C194.835935,100.65625 194.386721,100.675781 193.957031,100.753906 Z M215.871094,100.871094 C215.480467,100.753906 215.070315,100.734375 214.640625,100.8125 C214.171873,100.734375 213.722658,100.675781 213.292969,100.636719 C212.199213,100.597656 211.164067,100.382814 210.1875,99.9921875 C209.328121,99.6406232 208.527347,99.1718779 207.785156,98.5859375 C206.925777,98.0781225 206.183597,97.4335977 205.558594,96.6523438 C204.621089,95.1679613 204.26953,93.5078217 204.503906,91.671875 C204.464844,90.7343703 204.699216,89.8164107 205.207031,88.9179688 C205.597658,88.2929656 206.203121,87.9609377 207.023438,87.921875 C207.726566,87.6093734 208.468746,87.3750008 209.25,87.21875 C210.148442,87.0234365 211.066402,86.9453123 212.003906,86.984375 C212.707035,87.2578139 213.058594,87.8046834 213.058594,88.625 C212.785155,89.4453166 212.453127,90.2070277 212.0625,90.9101562 C211.671873,92.7070402 212.160149,94.2109314 213.527344,95.421875 C214.19141,95.92969 214.933593,96.3007801 215.753906,96.5351562 C216.53516,97.0039086 217.374996,97.3164055 218.273438,97.4726562 C219.171879,97.7070324 220.10937,97.8046877 221.085938,97.765625 C222.14063,97.7265623 223.195307,97.628907 224.25,97.4726562 C226.359386,97.3945309 228.468739,97.2382824 230.578125,97.0039062 C231.255212,96.9518227 231.940972,96.9084201 232.635415,96.8736979 L233.683594,96.828125 C234.113283,96.828125 234.562498,96.7304697 235.03125,96.5351562 C235.500002,96.6523443 235.968748,96.7499996 236.4375,96.828125 C237.218754,96.7499996 237.941403,96.906248 238.605469,97.296875 C238.996096,98.0781289 238.859378,98.7617158 238.195312,99.3476562 C236.945306,100.011722 235.617195,100.207033 234.210938,99.9335938 L228,100.050781 L228,100.050781 C227.023433,100.089844 226.066411,100.148437 225.128906,100.226562 C223.996088,100.343751 222.882818,100.402344 221.789062,100.402344 C220.812495,100.558595 219.855473,100.695312 218.917969,100.8125 C218.410154,100.851563 217.921877,100.812501 217.453125,100.695312 C216.906247,100.773438 216.378909,100.832031 215.871094,100.871094 Z M228.878906,81.0664062 C227.863276,80.9492182 226.847661,80.890625 225.832031,80.890625 C225.050777,81.0078131 224.406253,80.7734404 223.898438,80.1875 C223.546873,79.3281207 223.781246,78.5664096 224.601562,77.9023438 L226.945312,75.4414062 C227.531253,74.7382777 228.195309,74.0937529 228.9375,73.5078125 C229.210939,72.9999975 228.957035,72.7656248 228.175781,72.8046875 L221.789062,72.6875 L221.789062,72.6875 C220.73437,72.5703119 219.738286,72.5703119 218.800781,72.6875 C217.707026,72.8437508 216.613287,72.9023439 215.519531,72.8632812 C214.464838,72.8632812 213.429693,72.9023434 212.414062,72.9804688 C211.35937,73.0195314 210.324224,72.9609383 209.308594,72.8046875 C208.683591,72.6874994 208.009769,72.4726578 207.287109,72.1601562 C206.56445,71.8476547 206.359373,71.3593783 206.671875,70.6953125 C206.921876,70.601562 207.196874,70.5328124 207.496874,70.4890625 L207.726562,70.4609375 C208.117189,70.4218748 208.527342,70.2851574 208.957031,70.0507812 C209.308596,70.0117186 209.660154,69.9140633 210.011719,69.7578125 L211.476562,69.7578125 C212.375004,69.7578125 213.312495,69.7773436 214.289062,69.8164062 C215.26563,69.8554689 216.242183,69.8554689 217.21875,69.8164062 C219.25001,69.8945316 221.300771,69.8554695 223.371094,69.6992188 C225.363291,69.5039053 227.355459,69.5429674 229.347656,69.8164062 C230.285161,69.9335943 231.222652,69.9140633 232.160156,69.7578125 C232.511721,69.8750006 232.863279,69.9726559 233.214844,70.0507812 C233.683596,70.0898439 234.152341,70.0898439 234.621094,70.0507812 C235.44141,70.0507812 236.261715,70.0898434 237.082031,70.1679688 C237.863285,70.1289061 238.50781,70.4023408 239.015625,70.9882812 C239.367189,71.6914098 239.367189,72.3359346 239.015625,72.921875 C238.820312,73.1953139 238.60547,73.4492176 238.371094,73.6835938 C238.019529,73.9570326 237.687502,74.1718742 237.375,74.328125 C236.593746,74.9140654 235.871097,75.5195281 235.207031,76.1445312 C234.386715,76.7304717 233.644535,77.3554654 232.980469,78.0195312 C232.427081,78.5403672 231.941515,79.1018863 231.523764,79.7041005 L231.28125,80.0703125 C231.046874,80.4609395 230.734377,80.7148432 230.34375,80.8320312 C229.835935,80.8710939 229.347659,80.9492182 228.878906,81.0664062 Z M284.484375,101.515625 C283.078118,101.398437 281.789068,101.046878 280.617188,100.460938 C279.445307,99.6015582 278.58594,98.468757 278.039062,97.0625 C277.492185,95.6953057 277.453123,94.2890697 277.921875,92.84375 C278.351565,91.1640541 278.781248,89.4648523 279.210938,87.7460938 C279.328126,87.1210906 279.523436,86.4765658 279.796875,85.8125 C280.109377,85.2265596 280.558591,84.7382832 281.144531,84.3476562 C281.691409,83.9179666 282.277341,83.5273455 282.902344,83.1757812 C283.527347,82.7460916 284.191403,82.3945326 284.894531,82.1210938 C285.636722,82.0039057 286.398434,81.9843746 287.179688,82.0625 C287.921879,82.0234373 288.68359,81.906251 289.464844,81.7109375 C290.28516,81.5937494 291.105465,81.6132805 291.925781,81.7695312 C292.550784,82.0039074 293.136716,81.9257832 293.683594,81.5351562 C293.800782,81.7695324 293.996092,81.8281256 294.269531,81.7109375 C294.503907,81.5937494 294.640625,81.3789078 294.679688,81.0664062 C294.796876,80.0117135 294.816407,78.9375055 294.738281,77.84375 C294.738281,75.7734271 294.308598,73.8007906 293.449219,71.9257812 C292.675777,70.3788985 291.712505,68.9585979 290.559376,67.6648452 L290.167969,67.2382812 C289.582028,66.5742154 288.937504,66.0078148 288.234375,65.5390625 C287.414058,65.343749 287.003906,65.7148391 287.003906,66.6523438 C285.949213,70.597676 284.601571,74.4257627 282.960938,78.1367188 C282.257809,80.0898535 281.496098,81.9843658 280.675781,83.8203125 C279.738277,85.6953219 278.703131,87.4921789 277.570312,89.2109375 C276.476557,90.8906334 275.285163,92.4531178 273.996094,93.8984375 C272.628899,95.1484437 271.125008,96.1835896 269.484375,97.0039062 C267.765616,97.8632855 265.949228,98.4296861 264.035156,98.703125 C261.964833,99.2500027 259.894542,99.6210928 257.824219,99.8164062 C255.832021,100.128908 253.937509,99.835942 252.140625,98.9375 C250.539054,98.1171834 249.308598,96.886727 248.449219,95.2460938 C246.925774,91.7695139 246.554684,88.1172066 247.335938,84.2890625 C247.414063,83.3124951 247.55078,82.3359424 247.746094,81.359375 C248.058595,80.3437449 248.429685,79.3281301 248.859375,78.3125 C249.679692,76.3984279 250.597651,74.5039156 251.613281,72.6289062 L253.019531,69.9335938 C253.332033,68.9960891 253.781247,68.1562537 254.367188,67.4140625 C254.718752,67.1796863 255.05078,66.9257826 255.363281,66.6523438 C255.63672,66.3789049 255.929686,66.046877 256.242188,65.65625 C256.476564,65.4609365 256.710936,65.2070328 256.945312,64.8945312 C257.101563,64.4257789 257.023439,63.9960957 256.710938,63.6054688 C256.359373,62.7851521 256.046876,61.9453168 255.773438,61.0859375 L254.484375,58.625 C254.093748,57.7656207 253.839844,56.8867232 253.722656,55.9882812 C253.410155,55.0507766 253.664058,54.2695344 254.484375,53.6445312 C255.187504,53.3710924 255.949215,53.1953129 256.769531,53.1171875 C257.707036,52.8437486 258.644527,52.8242176 259.582031,53.0585938 C260.675787,53.8398477 261.320312,54.8749936 261.515625,56.1640625 C261.945315,57.5703195 262.41406,58.9570244 262.921875,60.3242188 C262.921875,60.9101592 263.214841,61.2617182 263.800781,61.3789062 C264.50391,61.3789062 265.207028,61.2226578 265.910156,60.9101562 C267.277351,60.4414039 268.664055,59.9726586 270.070312,59.5039062 C270.773441,59.3476555 271.49609,59.2500002 272.238281,59.2109375 C272.589846,59.2109375 272.960936,59.1328133 273.351562,58.9765625 L273.644531,58.9765625 C273.761719,58.9374998 273.859375,58.8593756 273.9375,58.7421875 L273.9375,58.9179688 C274.914067,58.8007807 275.910151,58.7031254 276.925781,58.625 C277.941411,58.7031254 278.996088,58.7421875 280.089844,58.7421875 C280.480471,58.8203129 280.871092,58.8007818 281.261719,58.6835938 C281.496095,58.4101549 281.613281,58.0390648 281.613281,57.5703125 C281.88672,56.5156197 282.121093,55.4218807 282.316406,54.2890625 C282.277344,53.5468713 282.374999,52.8046912 282.609375,52.0625 C283.044645,51.4095949 283.681996,51.1103506 284.521444,51.1647599 L284.71875,51.1835938 C285.539067,51.2617191 286.378902,51.3593744 287.238281,51.4765625 C288.097661,51.4374998 288.878903,51.6914035 289.582031,52.2382812 C290.089846,53.7226637 289.992191,55.2070238 289.289062,56.6914062 L289.132813,57.6028641 C289.106771,57.7504333 289.080729,57.8958326 289.054688,58.0390625 C288.898437,58.4296895 288.761719,58.8203105 288.644531,59.2109375 C288.566406,59.5625018 288.703123,59.7773434 289.054688,59.8554688 C289.445314,60.0507822 289.796873,60.2656238 290.109375,60.5 C290.890629,61.007815 291.730464,61.4179672 292.628906,61.7304688 C293.488286,62.2382838 294.328121,62.7656223 295.148438,63.3125 C296.63282,64.4453182 297.92187,65.7538988 299.015625,67.2382812 C300.773446,69.6992311 301.906247,72.3945166 302.414062,75.3242188 C303.000003,78.6836105 302.902348,81.9843588 302.121094,85.2265625 C302.707034,85.4609387 303.214842,85.8906219 303.644531,86.515625 C304.308597,87.1015654 304.91406,87.7070281 305.460938,88.3320312 C305.968753,89.1132852 306.515622,89.8359342 307.101562,90.5 C307.726566,91.1250031 308,91.8671832 307.921875,92.7265625 C307.570311,93.3515656 307.082034,93.6835936 306.457031,93.7226562 C306.066404,93.7617189 305.695314,93.7617189 305.34375,93.7226562 C304.91406,93.8398443 304.503908,93.9374996 304.113281,94.015625 C303.214839,94.2500012 302.316411,94.2304701 301.417969,93.9570312 C300.988279,93.8789059 300.656251,93.6640643 300.421875,93.3125 C300.265624,93.0390611 300.050783,92.7851574 299.777344,92.5507812 C299.58203,93.1757844 299.250002,93.7031229 298.78125,94.1328125 C298.312498,94.8750037 297.824221,95.5781217 297.316406,96.2421875 C296.691403,96.9062533 296.046878,97.4726539 295.382812,97.9414062 C294.835935,98.5664094 294.230472,99.0742168 293.566406,99.4648438 C292.003898,99.8945334 290.480476,100.38281 288.996094,100.929688 C288.253903,101.281252 287.492191,101.457031 286.710938,101.457031 C286.281248,101.496094 285.871096,101.496094 285.480469,101.457031 C285.128904,101.378906 284.796877,101.398437 284.484375,101.515625 Z M260.34375,96.0664062 C261.242192,96.1835943 262.140621,96.0859391 263.039062,95.7734375 C264.01563,95.4609359 264.933589,95.0117217 265.792969,94.4257812 C266.53516,93.9179662 267.179685,93.3125035 267.726562,92.609375 C268.117189,91.710933 268.078127,90.8125045 267.609375,89.9140625 C265.929679,85.8124795 264.269539,81.691427 262.628906,77.5507812 C261.769527,75.7538973 260.988285,73.8984471 260.285156,71.984375 C260.089843,70.6562434 259.542973,70.2265602 258.644531,70.6953125 C258.253904,71.5156291 257.941407,72.3164023 257.707031,73.0976562 C257.277342,74.0351609 256.808596,74.9140584 256.300781,75.734375 C255.832029,76.5156289 255.460939,77.3359332 255.1875,78.1953125 C254.718748,79.1328172 254.347658,80.0703078 254.074219,81.0078125 C253.878905,81.9843799 253.761719,82.9609326 253.722656,83.9375 C253.605468,84.9140674 253.546875,85.8906201 253.546875,86.8671875 C253.625,87.8437549 253.722656,88.8007766 253.839844,89.7382812 C253.800781,90.6757859 254.015623,91.5156213 254.484375,92.2578125 C254.367187,92.5312514 254.445311,92.8242172 254.71875,93.1367188 C255.187502,93.8007846 255.734372,94.3671852 256.359375,94.8359375 C256.984378,95.6562541 257.746089,95.968751 258.644531,95.7734375 C258.605469,95.8125002 258.712889,95.9296865 258.966797,96.125 C259.220704,96.3203135 259.679684,96.3007824 260.34375,96.0664062 Z M272.941406,84.4648438 C273.019532,84.1914049 273.136718,83.9179701 273.292969,83.6445312 C273.488282,83.1757789 273.703124,82.6875025 273.9375,82.1796875 C274.328127,81.2421828 274.738279,80.3046922 275.167969,79.3671875 C275.988285,77.4531154 276.789059,75.50001 277.570312,73.5078125 C279.015632,69.8749818 280.109371,66.1054883 280.851562,62.1992188 C279.953121,62.2382814 279.074223,62.2382814 278.214844,62.1992188 C277.863279,62.1210934 277.531252,62.0625002 277.21875,62.0234375 C276.749998,62.0625002 276.300783,62.1406244 275.871094,62.2578125 C274.113272,62.6484395 272.375009,62.9804674 270.65625,63.2539062 C268.898429,63.4492197 267.218758,63.8398408 265.617188,64.4257812 C264.953122,65.5976621 265.187494,66.7499943 266.320312,67.8828125 C267.687507,71.281267 268.976556,74.6992016 270.1875,78.1367188 C270.851566,79.5820385 271.437497,81.0273365 271.945312,82.4726562 C271.945312,83.4101609 272.27734,84.0742168 272.941406,84.4648438 Z M286.359375,96.7109375 C286.984378,96.515624 287.609372,96.2226582 288.234375,95.8320312 L289.464844,94.71875 L289.464844,94.71875 C290.402348,94.3671857 291.027342,93.742192 291.339844,92.84375 C291.691408,92.7265619 291.867188,92.4335961 291.867188,91.9648438 C292.062501,91.3007779 292.394529,90.6953152 292.863281,90.1484375 C293.097657,88.8984313 293.468747,87.6875059 293.976562,86.515625 C293.312497,86.2812488 292.62891,86.1250004 291.925781,86.046875 C291.066402,86.1250004 290.187504,86.1640625 289.289062,86.1640625 C287.80468,86.5156268 286.886721,87.4531174 286.535156,88.9765625 C286.261717,89.7187537 286.007814,90.4609338 285.773438,91.203125 C285.421873,92.0625043 285.16797,92.9023396 285.011719,93.7226562 C284.816405,94.5039102 284.835936,95.2656213 285.070312,96.0078125 C285.304689,96.6718783 285.734372,96.906251 286.359375,96.7109375 Z M345.1875,101.808594 C344.679685,101.691406 344.21094,101.652344 343.78125,101.691406 C343.390623,101.652344 343.000002,101.574219 342.609375,101.457031 C342.140623,101.613282 341.671877,101.652344 341.203125,101.574219 C340.656247,101.457031 340.109378,101.398438 339.5625,101.398438 C339.093748,101.476563 338.644533,101.457032 338.214844,101.339844 C337.785154,101.261718 337.33594,101.203125 336.867188,101.164062 C335.773432,100.929686 334.718755,100.734376 333.703125,100.578125 C332.648432,100.5 331.613286,100.343751 330.597656,100.109375 C329.542963,99.8359361 328.488287,99.6015635 327.433594,99.40625 C326.457026,99.2890619 325.500005,99.0546893 324.5625,98.703125 C323.585933,98.4296861 322.687504,98.019534 321.867188,97.4726562 C319.328112,95.2460826 317.824221,92.3945486 317.355469,88.9179688 C316.925779,87.863276 316.867186,86.7695369 317.179688,85.6367188 C317.428268,85.1750687 317.822118,84.9232628 318.361247,84.8812951 L318.527344,84.875 C319.464848,84.8359373 320.42187,84.8749994 321.398438,84.9921875 C322.921883,85.2656264 323.781249,86.203117 323.976562,87.8046875 C324.093751,89.3281326 324.44531,90.7929617 325.03125,92.1992188 C325.343752,92.94141 325.812497,93.5859348 326.4375,94.1328125 C327.062503,94.7578156 327.74609,95.3046852 328.488281,95.7734375 C329.19141,96.2031271 329.953121,96.4570309 330.773438,96.5351562 C331.710942,96.8085951 332.648433,97.1015609 333.585938,97.4140625 C335.382821,97.9218775 337.218741,98.2539055 339.09375,98.4101562 C340.929697,98.6445324 342.785147,98.7421877 344.660156,98.703125 C346.496103,98.4296861 348.351553,98.4687482 350.226562,98.8203125 C350.890628,98.9375006 351.398436,99.2499975 351.75,99.7578125 C351.828125,100.656254 351.457035,101.066407 350.636719,100.988281 C350.324217,101.535159 349.835941,101.691407 349.171875,101.457031 C347.804681,101.378906 346.476569,101.496092 345.1875,101.808594 Z M347.53125,92.0234375 C346.828121,91.7499986 346.281252,91.3007844 345.890625,90.6757812 C345.617186,89.9726527 345.421876,89.2109416 345.304688,88.390625 C344.718747,86.5546783 344.074222,84.6992281 343.371094,82.8242188 C343.019529,81.9648395 342.687502,81.085942 342.375,80.1875 C342.179687,79.7578104 342.023438,79.3085961 341.90625,78.8398438 C341.828125,78.4101541 341.691407,77.9804709 341.496094,77.5507812 C341.027341,77.3945305 340.539065,77.3945305 340.03125,77.5507812 L339.145834,77.3945313 C338.993924,77.3684897 338.839845,77.342448 338.683594,77.3164062 C338.292967,77.5117197 337.941408,77.5507818 337.628906,77.4335938 C337.39453,77.7070326 337.082033,77.7265637 336.691406,77.4921875 C336.066403,77.3749994 335.421878,77.3749994 334.757812,77.4921875 C333.937496,77.5312502 333.117192,77.5312502 332.296875,77.4921875 C331.671872,77.687501 331.08594,77.6484389 330.539062,77.375 C329.796871,77.6093762 329.015629,77.6093762 328.195312,77.375 C327.296871,77.2187492 326.398442,77.2382803 325.5,77.4335938 C325.07031,77.5898445 324.660158,77.5898445 324.269531,77.4335938 C323.917967,77.3164057 323.566408,77.3164057 323.214844,77.4335938 C322.277339,77.3945311 321.359379,77.2968758 320.460938,77.140625 C319.679684,77.0624996 319.05469,76.7304717 318.585938,76.1445312 C318.195311,75.7539043 318.195311,75.3437521 318.585938,74.9140625 C318.937502,74.7578117 319.308592,74.6601564 319.699219,74.6210938 C320.207034,74.464843 320.734372,74.3085945 321.28125,74.1523438 C322.101567,74.0156243 322.936826,73.9985344 323.787047,74.101074 L324.152344,74.1523438 C325.167974,74.3085945 326.20312,74.3671877 327.257812,74.328125 C328.23438,74.3671877 329.210933,74.4257809 330.1875,74.5039062 C331.281255,74.5429689 332.414057,74.5429689 333.585938,74.5039062 C334.601568,74.5039062 335.636713,74.5429684 336.691406,74.6210938 C337.667974,74.7382818 338.664057,74.8359371 339.679688,74.9140625 C340.539067,74.718749 340.812502,74.2304727 340.5,73.4492188 L340.14375,72.549218 C339.975,72.1179688 339.820313,71.7148456 339.679688,71.3398438 C339.679688,70.9882795 339.621094,70.6367205 339.503906,70.2851562 C339.308593,69.8554666 339.132813,69.4062523 338.976562,68.9375 C338.664061,67.9218699 338.371095,66.886724 338.097656,65.8320312 C337.980468,65.1289027 337.609378,64.6015643 336.984375,64.25 C336.398435,64.0546865 335.812503,64.0351555 335.226562,64.1914062 C334.640622,64.2695316 334.05469,64.2890627 333.46875,64.25 C333.117186,64.2109373 332.785158,64.1523441 332.472656,64.0742188 C331.925779,63.9570307 331.39844,63.9765617 330.890625,64.1328125 C329.992183,64.2890633 329.074223,64.3281254 328.136719,64.25 L325.03125,64.25 C324.01562,64.2109373 323.019536,64.1914062 322.042969,64.1914062 C321.105464,64.1132809 320.167973,64.0156256 319.230469,63.8984375 C317.667961,63.8984375 317.199216,63.2539127 317.824219,61.9648438 C318.401145,61.4239757 319.094556,61.1826683 319.904469,61.2409161 L320.109375,61.2617188 C321.085942,61.3789068 322.121088,61.4375 323.214844,61.4375 C324.191411,61.3593746 325.207026,61.3007814 326.261719,61.2617188 C327.105473,61.3554692 327.974217,61.4117189 328.867967,61.4304688 L329.542969,61.4375 C330.402348,61.4375 331.281246,61.4570311 332.179688,61.4960938 C333.117192,61.4570311 334.074214,61.4375 335.050781,61.4375 C336.535164,60.8124969 336.65235,59.6796957 335.402344,58.0390625 C335.011717,57.2578086 334.69922,56.4375043 334.464844,55.578125 C334.308593,54.7187457 334.132813,53.8398482 333.9375,52.9414062 C334.210939,52.2773404 334.738277,51.769533 335.519531,51.4179688 C335.832033,51.4960941 336.124999,51.437501 336.398438,51.2421875 C336.789064,51.1249994 337.218748,51.0859373 337.6875,51.125 C338.468754,51.0468746 339.249996,51.1445299 340.03125,51.4179688 C341.085943,52.3554734 341.652343,53.5468678 341.730469,54.9921875 C341.925782,55.9296922 342.179686,56.8281207 342.492188,57.6875 C342.804689,58.5078166 343.078124,59.3281209 343.3125,60.1484375 C343.273437,60.851566 343.527341,61.3593734 344.074219,61.671875 C344.855473,61.8281258 345.656246,61.7695326 346.476562,61.4960938 C348.195321,61.3007803 349.933585,61.3398424 351.691406,61.6132812 C352.355472,61.4570305 353.039059,61.4960926 353.742188,61.7304688 C354.328128,62.3164092 354.484376,62.9999961 354.210938,63.78125 C353.820311,64.4062531 353.273441,64.6601568 352.570312,64.5429688 C352.10156,64.4257807 351.652346,64.3281254 351.222656,64.25 C350.792967,64.3671881 350.363283,64.3671881 349.933594,64.25 C348.175772,64.4843762 346.437509,64.5234383 344.71875,64.3671875 C344.796875,65.2265668 344.992186,66.0468711 345.304688,66.828125 L345.304688,67.4140625 C345.34375,67.609376 345.421874,67.8046865 345.539062,68 L345.890625,69.640625 C346.125001,70.5781297 346.378905,71.4960893 346.652344,72.3945312 C346.730469,73.3320359 347.062497,74.1328092 347.648438,74.796875 C348.273441,75.0703139 348.937496,75.109376 349.640625,74.9140625 C350.695318,74.8749998 351.769526,74.8164066 352.863281,74.7382812 L355.910156,74.7382812 C356.730473,74.7382812 357.433591,75.0312471 358.019531,75.6171875 C358.332033,76.6718803 358.019536,77.3261706 357.082031,77.5800781 C356.144527,77.8339856 355.28516,77.9609375 354.503906,77.9609375 C353.214837,78.0390629 351.945319,78.0195318 350.695312,77.9023438 C350.148435,77.746093 349.621096,77.746093 349.113281,77.9023438 C348.605466,78.4882842 348.585935,79.132809 349.054688,79.8359375 C349.601565,81.437508 350.226559,82.9804613 350.929688,84.4648438 C351.007813,84.8554707 351.105468,85.2070297 351.222656,85.5195312 C351.222656,85.8710955 351.320312,86.2031234 351.515625,86.515625 C351.867189,87.0625027 352.140624,87.6679654 352.335938,88.3320312 C353.078129,89.4648494 353.156253,90.5390574 352.570312,91.5546875 C351.867184,91.9453145 351.125004,92.0820318 350.34375,91.9648438 C349.367183,91.9257811 348.429692,91.9453121 347.53125,92.0234375 Z M367.570312,100.929688 C367.335936,100.812499 367.062502,100.714844 366.75,100.636719 C366.476561,100.480468 366.300782,100.265626 366.222656,99.9921875 C366.183594,99.3281217 366.476559,98.8398453 367.101562,98.5273438 C367.492189,98.0195287 367.902342,97.4726592 368.332031,96.8867188 C368.917972,96.4960918 369.44531,96.0078154 369.914062,95.421875 L370.573242,94.6894533 C370.797851,94.4355477 371.027343,94.1718764 371.261719,93.8984375 C371.613283,93.3515598 372.062497,92.8437523 372.609375,92.375 C373.234378,92.1406238 373.898434,92.1015617 374.601562,92.2578125 C375.317712,92.4205737 376.033852,92.5155168 376.749999,92.5426433 L377.179688,92.5507812 C377.804691,92.5507812 378.371091,92.6679676 378.878906,92.9023438 C379.230471,93.4492215 379.191408,94.0156221 378.761719,94.6015625 C378.371092,95.0898462 377.93978,95.5238708 377.467774,95.9036453 L377.179688,96.125 C376.593747,96.5546896 376.066409,97.023435 375.597656,97.53125 C375.441405,97.8437516 375.304688,98.1367174 375.1875,98.4101562 C374.992187,98.7617205 374.757814,99.0351553 374.484375,99.2304688 C374.054685,99.8554719 373.507816,100.324217 372.84375,100.636719 C371.984371,100.753907 371.125004,100.734376 370.265625,100.578125 C369.32812,100.617188 368.429692,100.734374 367.570312,100.929688 Z M373.546875,77.1992188 C372.882809,77.2382814 372.414064,76.9843777 372.140625,76.4375 C371.828123,75.7734342 371.378909,75.1875025 370.792969,74.6796875 C370.285154,74.2499979 369.816408,73.7617215 369.386719,73.2148438 C369.074217,73.0195303 368.800782,72.7851576 368.566406,72.5117188 C368.33203,72.1601545 368.058595,71.8476576 367.746094,71.5742188 C367.121091,71.3398426 366.789063,70.9296904 366.75,70.34375 C366.984376,69.7187469 367.472653,69.3476568 368.214844,69.2304688 C369.777352,68.683591 371.378898,68.5859357 373.019531,68.9375 C374.152349,69.5625031 375.109371,70.4218695 375.890625,71.515625 C376.39844,72.1015654 376.94531,72.667966 377.53125,73.2148438 C377.96094,73.8007842 378.468747,74.3085916 379.054688,74.7382812 C379.640628,74.9335947 379.914063,75.3046848 379.875,75.8515625 C379.484373,76.3984402 378.957035,76.6328129 378.292969,76.5546875 C377.511715,76.6718756 376.710942,76.7304688 375.890625,76.7304688 C375.031246,76.7304688 374.25,76.8867172 373.546875,77.1992188 Z M374.132812,61.4960938 C373.820311,61.4960938 373.546876,61.4765627 373.3125,61.4375 C373.039061,61.3203119 372.82422,61.1250014 372.667969,60.8515625 C372.238279,60.2265594 371.730472,59.6601588 371.144531,59.1523438 C370.675779,58.6835914 370.207034,58.234375 369.738281,57.8046875 C369.074215,57.2578098 368.468753,56.632816 367.921875,55.9296875 C367.296872,55.4609352 367.121092,54.8750035 367.394531,54.171875 C367.785158,53.6249973 368.351559,53.3515625 369.09375,53.3515625 C369.445314,53.3515625 369.796873,53.3906246 370.148438,53.46875 C370.421876,53.4296873 370.734373,53.4101562 371.085938,53.4101562 C371.828129,53.3710936 372.609371,53.3125004 373.429688,53.234375 C374.445318,53.5468766 375.22656,54.2109324 375.773438,55.2265625 C376.710942,56.4765687 377.765619,57.6093699 378.9375,58.625 C379.52344,59.015627 379.914062,59.5429654 380.109375,60.2070312 C379.966145,60.7083358 379.658802,60.9634609 379.187338,60.9724122 L379.054688,60.96875 C378.195308,60.9296873 377.394535,60.9101562 376.652344,60.9101562 C375.792964,61.1445324 374.953129,61.339843 374.132812,61.4960938 Z M390.1875,99.4648438 C389.406246,99.2304676 388.625004,99.1914055 387.84375,99.3476562 C387.648437,99.3476562 387.453126,99.3281252 387.257812,99.2890625 L386.893229,99.3671875 C386.836806,99.3802083 386.782552,99.3932291 386.730469,99.40625 C386.300779,99.4843754 385.929689,99.3671891 385.617188,99.0546875 C385.460937,99.3281264 385.226564,99.3671885 384.914062,99.171875 C384.367185,99.0546869 383.800784,99.0351559 383.214844,99.1132812 C382.785154,94.8163848 382.667968,90.5000217 382.863281,86.1640625 C382.863281,84.0156143 382.824219,81.8476672 382.746094,79.6601562 C382.707031,77.4726453 382.746093,75.2851672 382.863281,73.0976562 C382.902344,72.0820262 382.882813,71.0273492 382.804688,69.9335938 C382.648437,69.0742145 382.785154,68.2539102 383.214844,67.4726562 C384.347662,66.3789008 385.734367,65.9296865 387.375,66.125 C387.648439,66.1640627 387.921874,66.1835938 388.195312,66.1835938 C388.468751,66.1054684 388.742186,66.0859373 389.015625,66.125 C389.992192,66.2812508 390.968745,66.359375 391.945312,66.359375 C392.296877,66.3203123 392.667967,66.3203123 393.058594,66.359375 C393.410158,66.5156258 393.781248,66.5546879 394.171875,66.4765625 C395.10938,66.7109387 395.988277,66.6132834 396.808594,66.1835938 C397.62891,64.9335875 397.863283,63.5273516 397.511719,61.9648438 C397.23828,59.8554582 397.140625,57.7070422 397.21875,55.5195312 L397.21875,52.5898438 C397.179687,51.7304645 397.335936,50.9296912 397.6875,50.1875 C398.195315,49.6406223 398.820309,49.4062496 399.5625,49.484375 C399.914064,49.484375 400.304685,49.5429682 400.734375,49.6601562 C401.085939,49.9335951 401.437498,49.9531262 401.789062,49.71875 C402.062501,50.0312516 402.433591,50.0898447 402.902344,49.8945312 C403.72266,49.6992178 404.347654,49.9531215 404.777344,50.65625 C404.933595,51.554692 404.85547,52.4140584 404.542969,53.234375 C404.347655,54.3281305 404.308593,55.4023385 404.425781,56.4570312 C404.582032,58.6054795 404.679687,60.7538955 404.71875,62.9023438 C404.523437,63.8789111 404.464843,64.8359328 404.542969,65.7734375 C404.724331,66.39007 405.1583,66.7035641 405.844885,66.7139271 L406.007812,66.7109375 C406.945317,66.7109375 407.902339,66.6718754 408.878906,66.59375 C409.972662,66.6718754 411.066401,66.6718754 412.160156,66.59375 C414.269542,66.3593738 416.339834,66.4570291 418.371094,66.8867188 C419.660163,68.136725 419.97266,69.6992094 419.308594,71.5742188 C418.957029,73.722667 418.742188,75.871083 418.664062,78.0195312 C418.820313,82.3164277 418.781251,86.5741977 418.546875,90.7929688 C418.312499,92.7851662 418.253906,94.7578027 418.371094,96.7109375 C418.488282,97.6093795 418.234378,98.3124975 417.609375,98.8203125 C416.828121,99.1328141 416.046879,99.2695314 415.265625,99.2304688 C414.835935,99.3476568 414.406252,99.3867189 413.976562,99.3476562 L412.804688,99.2304688 C411.867183,99.3085941 410.929692,99.2304699 409.992188,98.9960938 C409.054683,98.8789057 408.136723,98.8984367 407.238281,99.0546875 C406.808592,99.1328129 406.417971,99.0742197 406.066406,98.8789062 C405.519529,98.8398436 404.99219,98.8593746 404.484375,98.9375 C403.468745,98.9765627 402.492192,98.9960938 401.554688,98.9960938 C400.499995,99.3085953 399.464849,99.3281264 398.449219,99.0546875 C398.058592,99.0156248 397.687502,99.0546869 397.335938,99.171875 C396.867185,99.171875 396.437502,99.1328129 396.046875,99.0546875 C395.734373,99.1718756 395.402346,99.2304688 395.050781,99.2304688 C394.89453,99.1523434 394.757813,99.0937502 394.640625,99.0546875 L394.119792,99.1328125 C394.037327,99.1458333 393.957032,99.1588541 393.878906,99.171875 L393.878906,99.0546875 C393.21484,99.1718756 392.570316,99.2499998 391.945312,99.2890625 C391.671874,99.2109371 391.41797,99.2109371 391.183594,99.2890625 C390.871092,99.484376 390.539064,99.5429691 390.1875,99.4648438 Z M392.765625,96.828125 C393.898443,96.6718742 395.070306,96.6523432 396.28125,96.7695312 C396.632814,96.1445281 396.73047,95.4609412 396.574219,94.71875 C396.574219,93.6249945 396.632812,92.5117244 396.75,91.3789062 C396.867188,90.3242135 396.925781,89.2695365 396.925781,88.2148438 C396.847656,87.7070287 396.789062,87.1601592 396.75,86.5742188 C396.828125,86.1054664 396.886719,85.61719 396.925781,85.109375 C397.121095,84.210933 397.003908,83.3710977 396.574219,82.5898438 C395.910153,82.0820287 395.187504,81.9648424 394.40625,82.2382812 C394.132811,81.9648424 393.800783,81.9453113 393.410156,82.1796875 C392.472652,82.4140637 391.554692,82.4335947 390.65625,82.2382812 C390.15144,82.2022234 389.896264,82.4157937 389.890717,82.8789982 L389.894531,83 C389.933594,83.9375047 389.933594,84.8749953 389.894531,85.8125 C389.777343,87.7656348 389.757812,89.7382713 389.835938,91.7304688 C389.796875,92.7851615 389.816406,93.8007764 389.894531,94.7773438 C389.972657,95.2460961 390.03125,95.6953104 390.070312,96.125 C390.03125,96.4765643 390.167967,96.7109369 390.480469,96.828125 L390.480469,96.6523438 C390.949221,96.7304691 391.437497,96.7500002 391.945312,96.7109375 C392.218751,96.9843764 392.492186,97.0234385 392.765625,96.828125 Z M395.167969,79.953125 L395.226562,79.8945312 L395.226562,80.0117188 C395.382813,80.0117188 395.539062,79.9726566 395.695312,79.8945312 C395.929689,79.8945312 396.164061,79.9335934 396.398438,80.0117188 L396.398438,79.71875 C396.476563,79.7578127 396.554687,79.7578127 396.632812,79.71875 C396.789063,79.5234365 396.886719,79.3085949 396.925781,79.0742188 C396.955078,78.6640604 396.962403,78.2429205 396.947754,77.8107919 L396.925781,77.375 C396.847656,76.1640564 396.847656,74.9531311 396.925781,73.7421875 C396.925781,72.648432 396.945312,71.5156309 396.984375,70.34375 C397.140626,69.9140604 397.160157,69.4648461 397.042969,68.9960938 C396.925781,68.8007803 396.750001,68.6640629 396.515625,68.5859375 C396.281249,68.5859375 396.085938,68.5468754 395.929688,68.46875 C395.499998,68.6640635 395.050784,68.6445324 394.582031,68.4101562 C393.644527,68.1757801 392.726567,68.0976559 391.828125,68.1757812 C391.085934,68.2929693 390.63672,68.7226525 390.480469,69.4648438 L390.363281,70.8125 L390.363281,70.8125 C390.246093,71.2812523 390.1875,71.7499977 390.1875,72.21875 L390.1875,75.1484375 C390.1875,76.1250049 390.128907,77.0820266 390.011719,78.0195312 C389.73828,78.6835971 389.855466,79.2304666 390.363281,79.6601562 C390.714846,79.816407 391.085936,79.8554691 391.476562,79.7773438 C391.906252,79.7773438 392.335935,79.8164059 392.765625,79.8945312 L392.765625,79.7773438 C393.234377,79.8554691 393.722654,79.8945312 394.230469,79.8945312 C394.503908,80.050782 394.816404,80.0703131 395.167969,79.953125 Z M407.941406,96.828125 C408.13672,96.697916 408.359157,96.6355248 408.608723,96.6409504 L408.761719,96.6523438 C409.113283,96.6914064 409.503904,96.6914064 409.933594,96.6523438 C410.59766,96.7304691 410.988281,96.4375033 411.105469,95.7734375 C411.144531,95.0312463 411.164062,94.230473 411.164062,93.3710938 C411.164062,92.4726518 411.261718,91.5742232 411.457031,90.6757812 C411.496094,89.816402 411.515625,88.9570355 411.515625,88.0976562 L411.632812,85.4023438 L411.632812,85.4023438 C411.789063,84.5820271 411.769532,83.7812539 411.574219,83 C411.144529,82.6484357 410.675784,82.5507805 410.167969,82.7070312 C410.011718,82.4335924 409.777345,82.3749992 409.464844,82.53125 C408.839844,82.4531246 408.234378,82.3554693 407.648438,82.2382812 C406.992184,82.3320317 406.335939,82.3757816 405.679689,82.3695314 L405.1875,82.3554688 C404.523434,82.3164061 404.191406,82.6289029 404.191406,83.2929688 C404.152344,85.0117273 404.132812,86.7304602 404.132812,88.4492188 C404.171875,89.308598 404.191406,90.1289023 404.191406,90.9101562 C403.95703,91.6523475 403.937499,92.3554654 404.132812,93.0195312 C403.976562,93.0976566 403.9375,93.214843 404.015625,93.3710938 C404.054688,93.6835953 403.996095,93.9570301 403.839844,94.1914062 C404.113283,94.9335975 404.230469,95.7148396 404.191406,96.5351562 C404.660159,96.8476578 405.207028,96.925782 405.832031,96.7695312 C406.261721,96.6914059 406.671873,96.6523438 407.0625,96.6523438 C407.335939,96.8476572 407.628905,96.9062504 407.941406,96.828125 Z M408.46875,80.1289062 L410.8125,80.1289062 C410.968751,80.1289062 411.164061,80.0898441 411.398438,80.0117188 C411.515626,79.7382799 411.574219,79.425783 411.574219,79.0742188 C411.535156,76.9648332 411.593749,74.8554793 411.75,72.7460938 C412.492191,70.792959 412.042977,69.5234404 410.402344,68.9375 L407.355469,68.8203125 L407.355469,68.8203125 C406.847654,68.8593752 406.339846,68.8593752 405.832031,68.8203125 C405.402342,68.9765633 404.992189,68.9570322 404.601562,68.7617188 C404.484374,69.3476592 404.40625,69.9335908 404.367188,70.5195312 C404.171874,71.2226598 404.113281,71.9257777 404.191406,72.6289062 L404.191406,73.625 C404.074218,73.8593762 404.035156,74.0742178 404.074219,74.2695312 C404.191407,75.0117225 404.210938,75.7539025 404.132812,76.4960938 C403.781248,77.7851627 403.99609,78.8984328 404.777344,79.8359375 C405.246096,80.031251 405.792966,80.1289062 406.417969,80.1289062 C407.082035,80.2460943 407.765621,80.2460943 408.46875,80.1289062 Z M436.828125,100.8125 C436.124996,100.656249 435.832031,100.167973 435.949219,99.3476562 C435.910156,98.2539008 435.890625,97.1210996 435.890625,95.9492188 C435.890625,93.2538928 435.949218,90.5586072 436.066406,87.8632812 C436.183594,86.6523377 436.183594,85.4218812 436.066406,84.1718747 C436.144532,82.9609314 436.203125,81.7500061 436.242188,80.5390625 C436.203125,79.2499936 436.183594,77.9414129 436.183594,76.6132812 C436.144531,76.0273408 436.164062,75.4218781 436.242188,74.796875 C436.437501,74.3281227 436.41797,73.8789084 436.183594,73.4492188 C436.41797,73.3320307 436.476563,73.078127 436.359375,72.6875 C436.164062,71.9453088 436.105468,71.1835977 436.183594,70.4023438 C436.261719,69.7382779 436.300781,69.03516 436.300781,68.2929688 C436.027342,67.6679656 436.007811,67.0039098 436.242188,66.3007812 C435.890623,66.5742201 435.695313,66.906248 435.65625,67.296875 C435.304686,68.1171916 435.031251,68.9179648 434.835938,69.6992188 C434.328122,71.3007893 433.859377,72.9023357 433.429688,74.5039062 C433.117186,76.0664141 432.648441,77.5507742 432.023438,78.9570312 C431.671873,79.503909 431.203128,79.855468 430.617188,80.0117188 C430.265623,80.2070322 429.953126,80.2070322 429.679688,80.0117188 C429.015622,79.8945307 428.546876,80.011717 428.273438,80.3632812 C427.179682,80.3242186 426.476564,79.8359422 426.164062,78.8984375 C426.398439,78.1171836 426.671873,77.3359414 426.984375,76.5546875 C427.257814,75.4999947 427.609373,74.4453178 428.039062,73.390625 C428.625003,71.3593648 429.230466,69.3086041 429.855469,67.2382812 C430.050782,66.4179646 430.285155,65.5781293 430.558594,64.71875 C430.988283,63.9765588 431.632808,63.6445309 432.492188,63.7226562 C433.625006,63.878907 434.757807,63.8984381 435.890625,63.78125 C436.515628,63.1953096 436.710939,62.4335984 436.476562,61.4960938 L436.532812,61.0929687 C436.565625,60.8773442 436.605469,60.6406263 436.652344,60.3828125 C436.574218,59.4843705 436.535156,58.5664109 436.535156,57.6289062 C436.378905,55.5976461 436.378905,53.5664164 436.535156,51.5351562 C436.457031,50.675777 436.828121,50.0703143 437.648438,49.71875 C438.234378,49.6406246 438.839841,49.6601557 439.464844,49.7773438 C440.167972,49.7382811 440.890621,49.7578121 441.632812,49.8359375 C442.960944,50.8906303 443.332034,52.3554594 442.746094,54.2304688 C442.55078,57.0429828 442.453125,59.8554547 442.453125,62.6679688 C442.414062,64.1523512 442.355469,65.6171803 442.277344,67.0625 C442.238281,67.6875031 442.179688,68.2929658 442.101562,68.8789062 C441.984374,69.5039094 442.023437,70.1093721 442.21875,70.6953125 C442.101562,71.0078141 442.0625,71.339842 442.101562,71.6914062 C442.101562,72.238284 442.199218,72.7460914 442.394531,73.2148438 L442.21875,73.2148438 C442.21875,73.4882826 442.257812,73.7226553 442.335938,73.9179688 C442.257812,74.269533 442.21875,74.5624988 442.21875,74.796875 C442.335938,75.5390662 442.375,76.2617152 442.335938,76.9648438 C442.218749,77.6289096 442.218749,78.2734344 442.335938,78.8984375 L441.984375,80.890625 C441.984375,82.3750074 441.945313,83.8398365 441.867188,85.2851562 C441.945313,86.7695387 441.945313,88.2343678 441.867188,89.6796875 C441.710937,91.1250072 441.652344,92.5703053 441.691406,94.015625 C441.730469,95.5000074 441.828124,96.9453055 441.984375,98.3515625 C442.023438,99.445318 441.593754,100.207029 440.695312,100.636719 C439.953121,100.832032 439.230472,100.871094 438.527344,100.753906 C438.253905,100.714844 438.000001,100.714844 437.765625,100.753906 C437.414061,100.753906 437.101564,100.773437 436.828125,100.8125 Z M445.96875,76.4960938 C445.734374,76.3789057 445.48047,76.3007814 445.207031,76.2617188 C444.855467,76.2226561 444.54297,76.0664076 444.269531,75.7929688 C443.95703,75.1679656 443.859374,74.5039098 443.976563,73.8007812 C443.898437,72.0038973 443.605471,70.2070402 443.097656,68.4101562 C442.355465,67.0429619 442.394527,65.7734434 443.214844,64.6015625 C444.347662,64.1718729 445.519525,64.1132797 446.730469,64.4257812 C447.316409,64.3476559 447.863279,64.4453111 448.371094,64.71875 C448.839846,65.3437531 448.957032,66.02734 448.722656,66.7695312 C448.683594,68.6836033 448.976559,70.5195225 449.601563,72.2773438 C450.14844,73.4882873 450.226564,74.6601506 449.835938,75.7929688 C449.210934,76.3007838 448.527347,76.4765633 447.785156,76.3203125 C447.12109,76.1640617 446.515628,76.2226549 445.96875,76.4960938 Z M476.085937,99.9921875 C474.015615,99.5234352 471.945323,99.2695314 469.875,99.2304688 C467.765614,99.3085941 465.656261,99.2890631 463.546875,99.171875 C463.078123,99.0546869 462.628908,99.0156248 462.199219,99.0546875 C461.730466,99.1718756 461.281252,99.2499998 460.851562,99.2890625 C459.757807,99.2890625 458.683599,99.2500004 457.628906,99.171875 C457.160154,99.0546869 456.691409,98.9765627 456.222656,98.9375 C455.792967,99.0156254 455.363283,99.0156254 454.933594,98.9375 L453.46875,98.9375 L452.355469,98.8203125 L452.355469,98.8203125 C451.378901,98.8593752 450.460942,98.7421889 449.601562,98.46875 C448.507807,97.8828096 448.488276,97.2773469 449.542969,96.6523438 C450.28516,96.496093 451.066402,96.3984377 451.886719,96.359375 C452.863286,96.2031242 453.839839,96.2031242 454.816406,96.359375 L456.105469,96.4765625 C456.535158,96.6328133 456.984373,96.7304686 457.453125,96.7695312 C458.39063,96.7695312 459.347651,96.7890623 460.324219,96.828125 C460.558595,96.9062504 460.792968,96.8867193 461.027344,96.7695312 C461.300783,96.7695312 461.554686,96.7500002 461.789062,96.7109375 C462.257815,96.3984359 462.394532,95.9492217 462.199219,95.3632812 C462.199219,93.214833 462.277343,91.085948 462.433594,88.9765625 C462.433594,87.9218697 462.453125,86.8671928 462.492187,85.8125 C462.570313,84.7578072 462.589844,83.7031303 462.550781,82.6484375 C461.769527,81.2031178 460.460947,80.7343725 458.625,81.2421875 L455.695312,80.890625 C454.679682,81.0859385 453.839847,80.8906279 453.175781,80.3046875 C453.097656,78.7812424 454.035146,78.1367176 455.988281,78.3710938 C456.964849,78.3710938 457.960932,78.449218 458.976562,78.6054688 C459.875004,78.8398449 460.812495,78.9375002 461.789062,78.8984375 C462.570316,78.7421867 462.902344,78.2343793 462.785156,77.375 C462.628905,76.3984326 462.570312,75.4218799 462.609375,74.4453125 C462.570312,72.2968643 462.550781,70.1289172 462.550781,67.9414062 C462.707032,67.199215 462.687501,66.457035 462.492187,65.7148438 C462.296874,65.3632795 462.003908,65.2265621 461.613281,65.3046875 C461.105466,65.3828129 460.61719,65.3828129 460.148437,65.3046875 C459.210933,65.109374 458.332035,65.1289051 457.511719,65.3632812 C456.886716,65.7539082 456.574219,66.2812467 456.574219,66.9453125 C456.652344,68.3515695 456.281254,69.601557 455.460937,70.6953125 C454.91406,71.0078141 454.347659,71.1640625 453.761719,71.1640625 C452.941402,71.3203133 452.16016,71.3203133 451.417969,71.1640625 C449.933586,70.2265578 449.621089,68.8203219 450.480469,66.9453125 C450.714845,64.953115 451.066404,62.9804785 451.535156,61.0273438 C451.73047,60.0898391 451.867187,59.1328174 451.945312,58.15625 L452.414062,54.9335938 L452.414062,54.9335938 C452.531251,53.8398383 452.628906,52.7460992 452.707031,51.6523438 C452.707031,50.7148391 453.156246,50.0312521 454.054687,49.6015625 C455.031255,49.4453117 456.04687,49.4648428 457.101562,49.6601562 C458.039067,49.6992189 458.703123,50.1289021 459.09375,50.9492188 C459.132813,52.199225 458.89844,53.4101504 458.390625,54.5820312 C458.156249,55.9492256 457.902345,57.2968684 457.628906,58.625 C457.238279,59.6796928 457.121093,60.7343697 457.277344,61.7890625 C457.433595,62.2968775 457.785154,62.6093744 458.332031,62.7265625 C458.60547,62.8437506 458.898436,62.8828127 459.210937,62.84375 C459.171875,62.84375 459.152344,62.8242189 459.152344,62.7851562 C459.425783,62.7460936 459.718748,62.7851557 460.03125,62.9023438 C460.500002,62.9804691 460.988279,63.0195312 461.496094,63.0195312 C462.112726,62.8381687 462.40938,62.421041 462.386061,61.7681368 L462.375,61.6132812 C462.296875,60.6367139 462.238281,59.6406301 462.199219,58.625 L462.433594,55.2851562 L462.433594,55.2851562 C462.394531,54.3085889 462.296876,53.3320361 462.140625,52.3554688 C461.906249,51.5742148 462.042966,50.8515658 462.550781,50.1875 C463.25391,49.8359357 464.015621,49.7382805 464.835937,49.8945312 C465.851568,49.7773432 466.847651,49.9335916 467.824219,50.3632812 C468.371096,50.8710963 468.605469,51.49609 468.527344,52.2382812 C468.527344,52.7460963 468.585937,53.2148416 468.703125,53.6445312 L468.703125,55.2851562 C468.546874,57.3554791 468.449219,59.4257709 468.410156,61.4960938 C468.253905,62.4335984 468.605464,62.980468 469.464844,63.1367188 C469.894533,63.0585934 470.343748,63.0390623 470.8125,63.078125 C471.359378,63.1562504 471.906247,63.2148436 472.453125,63.2539062 L474.276041,63.0195314 C474.5842,62.9804689 474.89453,62.9414064 475.207031,62.9023438 C476.027348,62.9023438 476.847652,62.980468 477.667969,63.1367188 C478.253909,63.2539068 478.722654,63.5468727 479.074219,64.015625 C479.269532,64.7187535 479.113284,65.2851541 478.605469,65.7148438 C477.277337,66.3789096 475.890632,66.4375027 474.445312,65.890625 C473.574772,65.7566958 472.704244,65.7088643 471.833707,65.7471299 L471.398437,65.7734375 C470.85156,65.8125002 470.343752,65.8125002 469.875,65.7734375 C469.44531,65.6953121 469.054689,65.7734363 468.703125,66.0078125 C468.429686,66.5546902 468.371093,67.0820287 468.527344,67.5898438 C468.605469,68.6835992 468.625,69.7578072 468.585937,70.8125 C468.546875,71.9062555 468.488282,72.9804635 468.410156,74.0351562 C468.488282,75.0507863 468.527344,76.0664012 468.527344,77.0820312 C468.371093,77.7070344 468.429686,78.2539039 468.703125,78.7226562 C468.937501,78.9960951 469.230467,79.0937504 469.582031,79.015625 C470.089846,78.9765623 470.617185,78.9960934 471.164062,79.0742188 C472.609382,79.1132814 473.976556,79.4257783 475.265625,80.0117188 C475.695315,80.5976592 475.656253,81.0859355 475.148437,81.4765625 C474.562497,81.7890641 473.937503,81.8671883 473.273437,81.7109375 C472.999999,81.7109375 472.824219,81.8085928 472.746094,82.0039062 C472.433592,81.9648436 472.140626,81.9453125 471.867187,81.9453125 L470.695312,81.828125 C470.539062,81.828125 470.382813,81.7890629 470.226562,81.7109375 C470.109374,81.6328121 470.03125,81.6328121 469.992187,81.7109375 C469.718749,81.8281256 469.464845,81.8476566 469.230469,81.7695312 C468.644528,81.8476566 468.332031,82.1601535 468.292969,82.7070312 C468.332031,83.6054732 468.351562,84.4648396 468.351562,85.2851562 C468.273437,87.1992283 468.214844,89.0937406 468.175781,90.96875 C468.136719,91.9062547 468.15625,92.8242143 468.234375,93.7226562 C468.117187,94.6210982 468.17578,95.4999957 468.410156,96.359375 C468.917971,96.86719 469.542965,97.0429695 470.285156,96.8867188 C471.183598,96.8867188 472.082027,96.8671877 472.980469,96.828125 C474.816415,96.7499996 476.652335,96.906248 478.488281,97.296875 C479.582037,97.4531258 480.187499,97.9609332 480.304687,98.8203125 C479.874998,99.4062529 479.308597,99.7382809 478.605469,99.8164062 C477.746089,99.6992182 476.906254,99.7578113 476.085937,99.9921875 Z M524.889107,99.1480034 L524.71875,99.171875 C522.882803,99.4453139 521.183602,99.1718791 519.621094,98.3515625 C518.996091,97.7656221 518.42969,97.1210973 517.921875,96.4179688 C517.179684,95.6757775 516.437504,94.9531285 515.695312,94.25 C512.687485,91.2031098 509.757827,88.0976721 506.90625,84.9335938 C505.499993,83.4101486 504.093757,81.8671953 502.6875,80.3046875 C501.359368,78.7421797 499.933601,77.2968816 498.410156,75.96875 C497.707028,75.6562484 497.257813,75.148441 497.0625,74.4453125 C497.335939,73.742184 497.902339,73.390625 498.761719,73.390625 C499.660161,73.2734369 500.57812,73.1953127 501.515625,73.15625 C502.414067,73.1953127 503.175778,73.5664027 503.800781,74.2695312 C505.011725,75.5195375 506.203119,76.7890561 507.375,78.078125 C508.703132,79.3281312 509.97265,80.6171809 511.183594,81.9453125 C511.574221,82.648441 512.12109,83.1171863 512.824219,83.3515625 C513.56641,83.1953117 514.152342,82.7656285 514.582031,82.0625 C515.910163,80.7734311 517.277337,79.4648504 518.683594,78.1367188 C519.230471,77.5507783 519.796872,76.9257846 520.382812,76.2617188 C520.851565,75.6367156 521.339841,75.0312529 521.847656,74.4453125 L523.664062,72.8632812 L523.664062,72.8632812 C524.328128,72.1601527 524.992184,71.4179727 525.65625,70.6367188 C528.195325,68.0976436 530.421865,65.2851717 532.335938,62.1992188 C531.35937,62.1601561 530.382817,62.140625 529.40625,62.140625 C528.97656,62.140625 528.566408,62.1601561 528.175781,62.1992188 C527.550778,62.2382814 526.945315,62.2382814 526.359375,62.1992188 C524.171864,62.1601561 522.023448,62.1601561 519.914062,62.1992188 C519.484373,62.1601561 519.035159,62.1015629 518.566406,62.0234375 C518.058591,62.0234375 517.550784,62.0039064 517.042969,61.9648438 C516.574216,62.0429691 516.125002,62.0820312 515.695312,62.0820312 L514.113281,62.0820312 C513.644529,62.1210939 513.195315,62.1015629 512.765625,62.0234375 C512.335935,62.0234375 511.906252,62.0429686 511.476562,62.0820312 C510.382807,62.0429686 509.308599,61.9843754 508.253906,61.90625 C507.277339,62.0234381 506.300786,62.1015623 505.324219,62.140625 L503.976562,62.0234375 L503.976562,62.0234375 L502.277344,62.140625 L502.277344,62.140625 C500.128896,62.1796877 497.980479,62.1601566 495.832031,62.0820312 L494.367188,62.1992188 L494.367188,62.1992188 C493.898435,62.1601561 493.468752,62.0625008 493.078125,61.90625 C492.14062,61.90625 491.242192,61.7304705 490.382812,61.3789062 C489.718747,60.8320285 489.757809,60.3632832 490.5,59.9726562 C491.398442,59.6601547 492.335933,59.5234373 493.3125,59.5625 C495.304697,59.6406254 497.316396,59.7773428 499.347656,59.9726562 L505.96875,59.7382812 L505.96875,59.7382812 C510.304709,59.7382812 514.679665,59.7578123 519.09375,59.796875 C521.203136,59.8750004 523.332021,59.8945314 525.480469,59.8554688 C527.550792,59.6210926 529.660146,59.5429684 531.808594,59.6210938 C532.746098,59.6992191 533.683589,59.640626 534.621094,59.4453125 C535.636724,59.3671871 536.67187,59.3867182 537.726562,59.5039062 C538.585942,59.5039062 539.406246,59.6601547 540.1875,59.9726562 C540.929691,60.5976594 541.08594,61.3007773 540.65625,62.0820312 C540.343748,62.2773447 540.050783,62.4531242 539.777344,62.609375 C539.496092,62.7968759 539.252344,63.0093744 539.046094,63.2468745 L538.898438,63.4296875 C538.273434,64.1718787 537.707034,64.9335898 537.199219,65.7148438 C535.949212,67.3945396 534.621101,68.957024 533.214844,70.4023438 C530.40233,73.5273594 527.511734,76.5546729 524.542969,79.484375 C523.058586,80.9296947 521.515633,82.2968686 519.914062,83.5859375 C519.132809,84.2500033 518.351566,84.8945281 517.570312,85.5195312 C516.671871,85.9882836 516.281249,86.6914016 516.398438,87.6289062 C516.828127,88.4101602 517.43359,89.0156229 518.214844,89.4453125 C518.917972,90.0703156 519.523435,90.7539025 520.03125,91.4960938 C520.656253,92.1601596 521.281247,92.8046844 521.90625,93.4296875 C522.609379,94.2109414 523.332028,94.9335904 524.074219,95.5976562 C524.894535,96.0664086 525.578122,96.6718713 526.125,97.4140625 C526.235678,98.4101612 525.823717,98.9881366 524.889107,99.1480034 L524.889107,99.1480034 Z M572.824219,81.2421875 C571.496087,81.0859367 570.187506,80.7929709 568.898438,80.3632812 L567.023438,79.6601562 C566.47656,79.5820309 566.066408,79.3476582 565.792969,78.9570312 C565.832031,78.9570312 565.871094,78.9375002 565.910156,78.8984375 C565.636717,78.7421867 565.343752,78.6445314 565.03125,78.6054688 C564.562498,78.5273434 564.132814,78.390626 563.742188,78.1953125 C562.882808,77.9609363 562.062504,77.6093773 561.28125,77.140625 C559.367178,76.2812457 557.433604,75.5000035 555.480469,74.796875 C554.230462,74.5234361 553.605469,73.8789113 553.605469,72.8632812 C554.074221,72.4726543 554.640622,72.2773438 555.304688,72.2773438 C556.35938,72.1992184 557.433588,72.1992184 558.527344,72.2773438 C559.425786,72.3945318 560.226559,72.7460908 560.929688,73.3320312 C561.710941,73.9179717 562.531246,74.386717 563.390625,74.7382812 C565.265634,75.6757859 567.21874,76.4960902 569.25,77.1992188 C570.148442,77.5898457 571.085933,77.9218736 572.0625,78.1953125 C572.882817,78.390626 573.703121,78.6835918 574.523438,79.0742188 C575.148441,79.5820338 575.207034,80.1289033 574.699219,80.7148438 C574.152341,81.1445334 573.527347,81.3203129 572.824219,81.2421875 Z M556.066406,101.984375 C555.363278,101.945312 554.933595,101.593753 554.777344,100.929688 C555.01172,100.343747 555.499996,100.011719 556.242188,99.9335938 C558.31251,99.4648414 560.363271,98.8984408 562.394531,98.234375 C566.300801,96.828118 570.089825,95.0898541 573.761719,93.0195312 C577.628926,90.9882711 581.515605,88.8984482 585.421875,86.75 C587.218759,85.851558 588.996085,84.8750053 590.753906,83.8203125 C591.457035,83.3515602 592.199215,82.8828148 592.980469,82.4140625 C593.917973,82.1796871 594.894526,82.1210932 595.910156,82.2382812 C596.69141,82.2773439 597.453121,82.4335924 598.195312,82.7070312 C599.054692,83.1757836 599.230471,83.8007773 598.722656,84.5820312 C598.097653,85.0507836 597.414066,85.3242184 596.671875,85.4023438 C595.656245,85.753908 594.679692,86.1445291 593.742188,86.5742188 C589.953106,88.33204 586.242206,90.2070213 582.609375,92.1992188 C575.226526,96.6133033 567.433635,99.8163963 559.230469,101.808594 C558.683591,101.886719 558.156253,101.925781 557.648438,101.925781 C557.10156,101.847656 556.574221,101.867187 556.066406,101.984375 Z M574.816406,64.484375 C574.308591,64.4062496 573.820315,64.3671875 573.351562,64.3671875 C572.88281,64.3281248 572.433596,64.2500006 572.003906,64.1328125 C570.988276,64.0546871 570.070317,63.7421902 569.25,63.1953125 C567.453116,62.1796824 565.636728,61.2421918 563.800781,60.3828125 C561.847646,59.4453078 559.972665,58.3906309 558.175781,57.21875 C557.355465,56.828123 556.53516,56.4179709 555.714844,55.9882812 C555.128903,55.4023408 555.207028,54.8750023 555.949219,54.40625 C556.769535,54.2109365 557.628902,54.1328123 558.527344,54.171875 C559.464848,54.0937496 560.363277,54.230467 561.222656,54.5820312 C562.00391,55.128909 562.785152,55.6562475 563.566406,56.1640625 C564.464848,56.7890656 565.382808,57.3359352 566.320312,57.8046875 C568.117196,58.9375057 569.992178,59.9140584 571.945312,60.734375 C572.843754,61.1640646 573.742183,61.5156236 574.640625,61.7890625 C575.382816,62.0625014 575.83203,62.5898398 575.988281,63.3710938 C575.871093,64.0742223 575.480472,64.4453123 574.816406,64.484375 Z M585.070312,61.7890625 C584.328121,61.8671879 583.644534,61.7500016 583.019531,61.4375 C582.550779,61.0078104 582.277344,60.4804719 582.199219,59.8554688 C581.691404,58.1757729 581.125003,56.4961021 580.5,54.8164062 C579.835934,53.7226508 580.050776,52.9218775 581.144531,52.4140625 C581.886722,52.2968744 582.667965,52.2773434 583.488281,52.3554688 C583.878908,52.3945314 584.269529,52.4140625 584.660156,52.4140625 C585.011721,52.2968744 585.382811,52.2773434 585.773438,52.3554688 C586.164064,52.7460957 586.398437,53.2343721 586.476562,53.8203125 C586.710939,54.6015664 586.964842,55.3828086 587.238281,56.1640625 C587.433595,56.9843791 587.687498,57.7460902 588,58.4492188 C588.390627,59.1132846 588.683593,59.8164025 588.878906,60.5585938 C588.097652,61.8867254 586.828134,62.2968775 585.070312,61.7890625 Z M590.104714,53.8173921 C589.482915,53.4268646 589.191503,52.8614375 589.230469,52.1210938 C589.464845,51.4570279 589.972652,51.1640621 590.753906,51.2421875 L594.035156,51.2421875 C594.503909,51.1249994 594.933592,51.2226547 595.324219,51.5351562 C595.558595,51.9257832 595.753905,52.3164043 595.910156,52.7070312 L597.199219,55.6367188 C597.550783,56.6523488 597.941404,57.6093705 598.371094,58.5078125 C598.957034,59.2890664 598.898441,59.9531223 598.195312,60.5 C597.374996,60.6562508 596.554692,60.7539061 595.734375,60.7929688 C595.304685,60.6757807 594.875002,60.5976564 594.445312,60.5585938 C593.937497,60.5976564 593.449221,60.5000012 592.980469,60.265625 C592.355466,59.6796846 591.964845,58.9179734 591.808594,57.9804688 C591.496092,57.0429641 591.125002,56.1250045 590.695312,55.2265625 C590.338414,54.8696636 590.143211,54.4588719 590.109701,53.9941787 L590.104714,53.8173921 L590.104714,53.8173921 Z M616.728459,81.6683042 L616.668211,81.7254701 C616.155109,81.4382483 615.642011,81.3748111 615.128906,81.5351562 C615.011718,81.2617174 614.796877,81.1445311 614.484375,81.1835938 C614.289062,80.9492176 614.191406,80.6757828 614.191406,80.3632812 C613.996093,79.2695258 613.781251,78.1562557 613.546875,77.0234375 C613.03906,74.9921773 612.550784,72.9609477 612.082031,70.9296875 C611.886718,70.0703082 612.140621,69.3476592 612.84375,68.7617188 C613.507816,68.4882799 614.230465,68.3515625 615.011719,68.3515625 C615.714847,68.0781236 616.417965,68.0390615 617.121094,68.234375 C617.289571,68.605026 617.501645,68.9320741 617.75732,69.2155265 L617.696658,69.2548192 C617.677398,69.2334082 617.662935,69.2087983 617.653271,69.1809897 L617.698037,69.1893008 C618.464391,72.1709697 619.268163,75.1338828 620.109375,78.078125 C620.578127,79.1718805 620.480472,80.1289021 619.816406,80.9492188 C619.308591,81.300783 618.761722,81.4570314 618.175781,81.4179688 C617.824217,81.4960941 617.492189,81.5351562 617.179688,81.5351562 C616.919847,81.5676363 616.660011,81.5866128 616.400172,81.5920861 L616.424747,81.5879661 C616.538684,81.5944262 616.639921,81.6212055 616.728459,81.6683042 L616.668211,81.7254701 L616.728459,81.6683042 Z M617.696658,69.2548192 L617.75732,69.2155265 L617.882812,69.3476562 L617.882812,69.3476562 C617.799374,69.3309685 617.737322,69.3000229 617.696658,69.2548192 Z M617.698037,69.1893008 L617.653271,69.1809897 C617.635578,69.1300791 617.633967,69.0684472 617.648438,68.9960938 L617.698037,69.1893008 L617.698037,69.1893008 L617.653271,69.1809897 L617.698037,69.1893008 Z M616.424747,81.5879661 L616.400172,81.5920861 L616.242188,81.59375 L616.242188,81.59375 C616.306287,81.5866278 616.36714,81.5846998 616.424747,81.5879661 Z M616.668211,81.7254701 L616.728459,81.6683042 C616.840675,81.727999 616.932491,81.820335 617.003906,81.9453125 C616.892008,81.8613886 616.780109,81.7881078 616.668211,81.7254701 L616.728459,81.6683042 L616.668211,81.7254701 Z M625.617188,81.4179688 C624.874996,81.1054672 624.464844,80.5390666 624.386719,79.71875 L623.683594,76.4375 L623.800781,76.4375 L622.863281,71.8671875 C622.238278,70.7343693 622.218747,69.6210992 622.804688,68.5273438 C623.703129,67.9414033 624.718744,67.7265617 625.851562,67.8828125 C626.515628,67.7265617 627.160153,67.804687 627.785156,68.1171875 C628.253909,68.5078145 628.546874,68.9960908 628.664062,69.5820312 L629.210937,72.524738 C629.302083,73.0108483 629.393229,73.4947893 629.484375,73.9765625 C629.835939,75.4609449 630.148436,76.9453051 630.421875,78.4296875 C630.734377,79.6015684 630.402349,80.5195279 629.425781,81.1835938 C628.175775,81.535158 626.906256,81.6132822 625.617188,81.4179688 Z M623.800781,102.570312 C623.371093,102.374999 623.019533,102.082033 622.746094,101.691406 C622.433592,101.144529 622.316406,100.578128 622.394531,99.9921875 C622.589845,99.4843725 622.863279,99.0351582 623.214844,98.6445312 C623.605471,98.1367162 623.976561,97.6093777 624.328125,97.0625 C624.679689,96.6328104 624.953124,96.164065 625.148438,95.65625 C625.265626,95.2265604 625.499998,94.8554703 625.851562,94.5429688 C626.593754,93.5664014 627.179685,92.4726623 627.609375,91.2617188 C627.609375,91.5351576 627.589844,91.7695303 627.550781,91.9648438 C628.566411,90.2460852 629.621088,88.5078213 630.714844,86.75 C631.769537,84.8749906 632.824213,82.9804783 633.878906,81.0664062 C635.011724,79.2304596 636.124995,77.3554783 637.21875,75.4414062 C637.64844,74.5429643 638.117185,73.6445357 638.625,72.7460938 C639.015627,71.8867177 639.503903,71.0664102 640.089844,70.2851562 C640.32422,69.7382785 640.656248,69.21094 641.085938,68.703125 C641.945317,68.3515607 642.843745,68.2929676 643.78125,68.5273438 C645.304695,68.6445318 646.242186,69.406243 646.59375,70.8125 C646.476562,71.6718793 646.164065,72.4335904 645.65625,73.0976562 C645.031247,73.9570355 644.464846,74.8554641 643.957031,75.7929688 C642.902338,77.6289154 641.82813,79.4257725 640.734375,81.1835938 C639.367181,83.4882928 638.039069,85.7734262 636.75,88.0390625 C636.046871,89.2109434 635.382816,90.3632756 634.757812,91.4960938 C634.210935,92.5507865 633.56641,93.5273393 632.824219,94.4257812 C632.082028,95.3632859 631.398441,96.3593697 630.773438,97.4140625 C630.421873,97.8828148 630.148438,98.3515602 629.953125,98.8203125 C629.757812,99.2109395 629.464846,99.4648432 629.074219,99.5820312 C628.566404,100.363285 628.019534,101.046872 627.433594,101.632812 C626.261713,102.101565 625.050788,102.414062 623.800781,102.570312 Z M680.460938,101.574219 C679.562496,101.574219 678.742191,101.476563 678,101.28125 C677.296871,100.773435 677.238278,100.207034 677.824219,99.5820312 C678.019532,99.3867178 678.214843,99.1328141 678.410156,98.8203125 C678.644532,98.5078109 678.917967,98.175783 679.230469,97.8242188 C679.855472,97.0039021 680.421872,96.1250047 680.929688,95.1875 C683.078136,91.5546693 685.18749,87.8633 687.257812,84.1132812 C687.414063,83.761717 687.648436,83.410158 687.960938,83.0585938 L688.488281,82.0039062 C689.035159,81.1054643 689.562497,80.2070357 690.070312,79.3085938 C691.04688,77.4335844 692.062495,75.5781342 693.117188,73.7421875 C694.250006,72.0234289 695.324214,70.265634 696.339844,68.46875 C696.691408,67.6484334 697.10156,66.8281291 697.570312,66.0078125 C698.156253,65.1874959 698.722654,64.3476605 699.269531,63.4882812 C700.089848,61.7695227 700.988276,60.089852 701.964844,58.4492188 C702.277345,57.7851529 702.062504,57.4335939 701.320312,57.3945312 C700.890623,57.3164059 700.500002,57.3164059 700.148438,57.3945312 C699.992187,57.550782 699.835938,57.6289062 699.679688,57.6289062 C699.328123,57.6289062 699.035157,57.5898441 698.800781,57.5117188 C697.863277,57.4726561 696.925786,57.4140629 695.988281,57.3359375 C694.933588,57.2968748 693.85938,57.2968748 692.765625,57.3359375 C690.578114,57.4531256 688.410167,57.4531256 686.261719,57.3359375 C684.113271,57.2968748 682.003917,57.2773438 679.933594,57.2773438 C679.035152,57.1992184 678.156254,57.2187494 677.296875,57.3359375 C676.593746,57.7265645 676.066408,58.273434 675.714844,58.9765625 C673.566396,62.6093932 671.476573,66.2617004 669.445312,69.9335938 C668.351557,71.8086031 667.29688,73.7031154 666.28125,75.6171875 C665.968748,76.3593787 665.480472,76.8867172 664.816406,77.1992188 C663.839839,77.3554695 662.902348,77.3750006 662.003906,77.2578125 C661.261715,77.4140633 660.519535,77.3554701 659.777344,77.0820312 C659.191403,76.5351535 659.230465,75.9296908 659.894531,75.265625 C661.027349,73.7812426 661.984371,72.160165 662.765625,70.4023438 C664.835948,66.6132623 666.984364,62.8242377 669.210938,59.0351562 C670.26563,57.1601469 671.359369,55.2851656 672.492188,53.4101562 C673.039065,52.667965 673.546873,51.8671918 674.015625,51.0078125 L674.206055,50.451172 C674.274414,50.25586 674.347656,50.0507823 674.425781,49.8359375 C674.621095,49.4453105 674.992185,49.2304689 675.539062,49.1914062 C676.476567,49.1914062 677.433589,49.2695305 678.410156,49.4257812 C679.230473,49.4257812 679.953122,49.699216 680.578125,50.2460938 C680.695313,51.0273477 680.539065,51.7304656 680.109375,52.3554688 C679.562497,53.09766 679.074221,53.820309 678.644531,54.5234375 C680.597666,54.9531271 682.589834,55.1093756 684.621094,54.9921875 L687.726562,55.109375 L687.726562,55.109375 C688.820318,55.0703123 689.933588,55.0507812 691.066406,55.0507812 C693.175792,55.0898439 695.304677,55.0312508 697.453125,54.875 C699.562511,54.9140627 701.691396,54.8554695 703.839844,54.6992188 C704.777348,54.6601561 705.73437,54.6992182 706.710938,54.8164062 C707.648442,54.8164062 708.566402,54.9531236 709.464844,55.2265625 C710.363286,56.320318 710.285162,57.4335881 709.230469,58.5664062 C708.722654,59.2304721 708.253908,59.8945279 707.824219,60.5585938 C707.277341,61.4960984 706.750003,62.4531201 706.242188,63.4296875 C705.070307,65.1875088 703.917974,66.9453037 702.785156,68.703125 C701.027335,71.6328271 699.289071,74.5820164 697.570312,77.5507812 C695.773429,80.7148596 694.015634,83.8788904 692.296875,87.0429688 C691.398433,88.5273512 690.539067,89.9726492 689.71875,91.3789062 C688.70312,92.8632887 687.804691,94.3867109 687.023438,95.9492188 C686.124996,97.4336012 685.207036,98.8788992 684.269531,100.285156 C683.95703,100.910159 683.507815,101.281249 682.921875,101.398438 C682.062496,101.398438 681.242191,101.457031 680.460938,101.574219 Z" id="" fill="#000000" fill-rule="nonzero"></path>
    </g>
</svg>