<?xml version="1.0" encoding="UTF-8"?>
<svg width="900px" height="140px" viewBox="0 0 900 140" version="1.1" xmlns="http://www.w3.org/2000/svg" xmlns:xlink="http://www.w3.org/1999/xlink">
    <!-- Generator: Sketch 59.1 (86144) - https://sketch.com -->
    <title>preview</title>
    <desc>Created with Sketch.</desc>
    <g id="preview" stroke="none" stroke-width="1" fill="none" fill-rule="evenodd">
        <path d="M260.273438,74.65625 C257.382798,76.062507 254.531264,77.5468672 251.71875,79.109375 C252.187502,80.1250051 253.046869,81.1406199 254.296875,82.15625 C254.765627,82.3906262 255.312497,82.5859367 255.9375,82.7421875 C259.140641,81.3359305 262.226548,79.6171977 265.195312,77.5859375 C265.351563,76.8046836 265.624998,76.0625035 266.015625,75.359375 C265.9375,74.8906227 265.781251,74.5390637 265.546875,74.3046875 C263.749991,74.2265621 261.992196,74.3437484 260.273438,74.65625 Z M249.492188,66.5703125 C248.632808,66.8046887 247.851566,67.1562477 247.148438,67.625 C247.851566,69.1093824 248.984367,70.2812457 250.546875,71.140625 C254.921897,70.4374965 259.179667,69.539068 263.320312,68.4453125 L263.320312,67.15625 C262.070306,66.2968707 260.546884,65.7890633 258.75,65.6328125 C255.546859,65.8671887 252.460952,66.1796855 249.492188,66.5703125 Z M251.953125,55.203125 C252.578128,56.0625043 253.398432,56.9999949 254.414062,58.015625 C255.273442,58.4843773 256.249995,58.9531227 257.34375,59.421875 C259.453136,59.2656242 261.562489,59.1875 263.671875,59.1875 C264.531254,58.5624969 264.882813,57.8593789 264.726562,57.078125 C264.023434,56.687498 263.39844,56.4140633 262.851562,56.2578125 C259.101544,55.6328094 255.468768,55.2812504 251.953125,55.203125 Z M274.101562,61.4140625 C270.820296,61.4140625 267.617203,61.609373 264.492188,62 C264.96094,63.5625078 266.132803,64.7734332 268.007812,65.6328125 C268.632816,65.6328125 269.296871,65.5937504 270,65.515625 L268.387499,68.2718764 C267.571876,69.6687483 266.742192,71.0937427 265.898438,72.546875 C266.36719,73.5625051 267.070308,74.421875 268.007812,75.125 C268.945317,75.2812508 269.804684,75.2031266 270.585938,74.890625 C271.835944,73.3281172 273.124993,71.6875086 274.453125,69.96875 C274.687501,73.7968941 274.84375,77.6249809 274.921875,81.453125 C275.546878,82.0000027 276.210934,82.6640586 276.914062,83.4453125 C277.382815,83.7578141 277.968746,83.9531246 278.671875,84.03125 L279.028125,83.7687497 C279.196875,83.646875 279.351562,83.539063 279.492188,83.4453125 C278.94531,79.539043 278.867186,75.5937699 279.257812,71.609375 C283.242207,73.5625098 287.499977,75.0468699 292.03125,76.0625 C292.421877,75.7499984 292.734374,75.4375016 292.96875,75.125 C292.890625,74.5781223 292.61719,74.1484391 292.148438,73.8359375 C287.851541,72.2734297 283.632833,70.4375105 279.492188,68.328125 C279.335937,67.2343695 279.335937,66.1406305 279.492188,65.046875 L286.054688,64.109375 L286.054688,64.109375 L286.054688,62.8203125 C285.50781,62.1953094 284.843754,61.8046883 284.0625,61.6484375 C282.578118,61.4140613 281.093757,61.296875 279.609375,61.296875 C279.453124,58.7187371 279.218752,56.1406379 278.90625,53.5625 C278.671874,53.171873 278.398439,52.8593762 278.085938,52.625 C276.601555,52.1562477 275.078133,51.921875 273.515625,51.921875 C273.515625,54.9687652 273.710936,58.1327961 274.101562,61.4140625 Z M306.796875,57.3125 C307.343753,58.4062555 308.242181,59.4609324 309.492188,60.4765625 C310.585943,60.8671895 311.757806,61.2578105 313.007812,61.6484375 C313.710941,61.4140613 314.492183,61.3359371 315.351562,61.4140625 C315.742189,63.914075 315.9375,66.3749879 315.9375,68.796875 C313.437487,68.9531258 311.328134,69.6562438 309.609375,70.90625 C310.54688,72.0000055 311.679681,73.0546824 313.007812,74.0703125 C314.335944,74.0703125 315.664056,73.7968777 316.992188,73.25 C317.617191,74.7343824 318.16406,76.2968668 318.632812,77.9375 C315.976549,78.7187539 313.242202,79.3437477 310.429688,79.8125 C310.89844,80.7500047 311.601558,81.6484332 312.539062,82.5078125 C313.164066,82.9765648 313.867184,83.3281238 314.648438,83.5625 C318.085955,82.8593715 321.484358,82.0390672 324.84375,81.1015625 C324.84375,82.3515687 325.078123,83.5624941 325.546875,84.734375 C326.562505,85.8281305 327.539058,86.9218695 328.476562,88.015625 C329.492193,88.7968789 330.664056,89.3437484 331.992188,89.65625 C337.226589,89.5781246 342.382787,89.1875035 347.460938,88.484375 C347.851564,89.890632 348.749993,91.1406195 350.15625,92.234375 C350.703128,92.4687512 351.328121,92.5859375 352.03125,92.5859375 C352.265626,92.3515613 352.539061,92.1171887 352.851562,91.8828125 C352.617186,87.8984176 352.773435,84.1875172 353.320312,80.75 C352.85156,79.9687461 352.226566,79.4609387 351.445312,79.2265625 C350.273432,78.9921863 349.101568,78.8359379 347.929688,78.7578125 C347.617186,78.8359379 347.421875,79.0312484 347.34375,79.34375 L347.34375,85.4375 C345.546866,85.2812492 343.710947,85.3593734 341.835938,85.671875 C341.523436,83.1718625 341.484374,80.5547012 341.71875,77.8203125 C345.000016,77.3515602 348.242171,77.2343738 351.445312,77.46875 C352.070316,76.9218723 352.187502,76.2578164 351.796875,75.4765625 C350.546869,74.8515594 349.179695,74.4609383 347.695312,74.3046875 L341.953125,74.3046875 C341.718749,71.9609258 341.874997,69.6953234 342.421875,67.5078125 C344.765637,67.2734363 347.148425,67.2734363 349.570312,67.5078125 C350.11719,67.1171855 350.351563,66.6093781 350.273438,65.984375 L349.335938,65.046875 C347.382803,64.4999973 345.390635,64.1484383 343.359375,63.9921875 C339.843732,63.9140621 336.328143,63.9531242 332.8125,64.109375 C332.656249,63.4843719 332.656249,62.820316 332.8125,62.1171875 C332.187497,61.3359336 331.445317,60.8671883 330.585938,60.7109375 C329.414057,60.5546867 328.281255,60.4765625 327.1875,60.4765625 C326.953124,61.1015656 326.679689,61.7265594 326.367188,62.3515625 C326.367188,65.4765781 326.523436,68.5624848 326.835938,71.609375 C327.617191,72.3125 328.437496,73.1328078 329.296875,74.0703125 C329.921878,74.4609395 330.624996,74.5781258 331.40625,74.421875 C331.562501,74.1874988 331.757811,73.9531262 331.992188,73.71875 L331.992188,69.03125 C333.398445,68.3281215 334.843743,67.9765625 336.328125,67.9765625 C336.171874,69.8515719 336.171874,71.9999879 336.328125,74.421875 C332.890608,75.0468781 329.531266,75.359375 326.25,75.359375 C326.015624,75.5156258 325.9375,75.7499984 326.015625,76.0625 C326.562503,76.5312523 327.187496,77.1562461 327.890625,77.9375 C326.249992,77.7812492 324.570321,77.6640629 322.851562,77.5859375 C322.148434,75.8671789 321.718751,74.0312598 321.5625,72.078125 C322.734381,71.5312473 324.02343,71.2187504 325.429688,71.140625 C325.820314,70.6718727 326.015625,70.1250031 326.015625,69.5 C325.9375,69.109373 325.781251,68.8359383 325.546875,68.6796875 C323.984367,68.4453113 322.578131,68.0937523 321.328125,67.625 C321.171874,65.5156145 321.054688,63.4843848 320.976562,61.53125 C322.070318,61.4531246 323.203119,61.3359383 324.375,61.1796875 C324.843752,60.7890605 325.039063,60.2812531 324.960938,59.65625 C324.335934,58.8749961 323.554692,58.4062508 322.617188,58.25 L318.043354,57.9687496 C314.428515,57.7499999 310.679707,57.5312511 306.796875,57.3125 Z M328.359375,78.40625 C328.750002,78.5625008 329.140623,78.7968734 329.53125,79.109375 C331.875012,79.2656258 334.179676,79.1093773 336.445312,78.640625 L336.726562,82.2406233 C336.789062,83.0593715 336.851562,83.8906208 336.914062,84.734375 C337.226564,85.0468766 337.578123,85.4765598 337.96875,86.0234375 C335.624988,86.2578137 333.398448,86.3359379 331.289062,86.2578125 C330.82031,84.6171793 330.468751,83.093757 330.234375,81.6875 C329.14062,80.9843715 327.929694,80.6718746 326.601562,80.75 C327.304691,80.1249969 327.890623,79.3437547 328.359375,78.40625 Z M341.953125,58.8359375 C342.265627,60.1640691 342.929682,61.3749945 343.945312,62.46875 C345.117193,62.3906246 346.132808,62.0390656 346.992188,61.4140625 C348.242194,58.0546707 349.335933,54.6953293 350.273438,51.3359375 C349.570309,50.3984328 348.67188,49.8515633 347.578125,49.6953125 C346.64062,49.6953125 345.781254,49.6171883 345,49.4609375 C343.515618,52.351577 342.500003,55.4765457 341.953125,58.8359375 Z M333.164062,50.515625 C333.164062,52.4687598 333.476559,54.343741 334.101562,56.140625 C334.882816,56.8437535 335.703121,57.6640578 336.5625,58.6015625 C337.187503,58.9921895 337.929683,59.1875 338.789062,59.1875 C339.101564,58.9531238 339.414061,58.6796891 339.726562,58.3671875 C339.648437,57.4296828 339.375002,56.6484406 338.90625,56.0234375 C338.984375,53.914052 339.25781,52.0390707 339.726562,50.3984375 C338.164062,49.3828074 336.445322,48.8359379 334.570312,48.7578125 C334.023435,49.1484395 333.554689,49.7343711 333.164062,50.515625 Z M325.195312,48.7578125 C324.882811,49.5390664 324.765625,50.3984328 324.84375,51.3359375 C325.312502,52.6640691 325.742186,54.0703051 326.132812,55.5546875 C327.304693,57.0390699 328.593743,58.484368 330,59.890625 C330.937505,60.5937535 332.031244,60.9843746 333.28125,61.0625 C333.906253,60.5937477 334.140626,59.9687539 333.984375,59.1875 C333.437497,58.5624969 332.851566,58.0156273 332.226562,57.546875 C331.289058,55.9843672 330.703126,54.2656344 330.46875,52.390625 C330.703126,51.8437473 330.820312,51.2578156 330.820312,50.6328125 C330.507811,50.1640602 330.156252,49.7734391 329.765625,49.4609375 C328.203117,48.9140598 326.679695,48.6796871 325.195312,48.7578125 Z M334.335938,43.6015625 C332.226552,44.0703148 330.195322,44.6171844 328.242188,45.2421875 C328.242188,46.1796922 328.749995,47.0390586 329.765625,47.8203125 C330.312503,48.0546887 330.898434,48.2890613 331.523438,48.5234375 L338.789062,47.1171875 C341.523451,47.0390621 344.10155,47.2734348 346.523438,47.8203125 C346.99219,47.3515602 347.226562,46.8046906 347.226562,46.1796875 C345.976556,44.8515559 344.492196,44.0312516 342.773438,43.71875 C340.039049,43.4062484 337.226577,43.3671863 334.335938,43.6015625 Z M364.6875,51.921875 C364.765625,53.0156305 365.468743,54.0312453 366.796875,54.96875 C367.343753,55.2812516 368.007809,55.5546863 368.789062,55.7890625 C369.570316,55.3203102 370.468745,55.1249996 371.484375,55.203125 L372.234375,69.0406165 C372.296875,70.2062418 372.359375,71.3749941 372.421875,72.546875 C372.812502,75.2812637 373.281247,78.0156113 373.828125,80.75 C374.296877,81.9218809 374.804685,83.1328063 375.351562,84.3828125 C375.976566,85.0078156 376.79687,85.6718715 377.8125,86.375 C378.359378,86.2968746 378.789061,86.062502 379.101562,85.671875 L377.34375,79.9296875 L377.34375,79.9296875 C377.109374,77.7421766 377.03125,75.5546984 377.109375,73.3671875 L381.914062,73.1328125 L381.914062,73.1328125 C381.523436,73.2890633 381.328125,73.6015602 381.328125,74.0703125 C382.1875,75.3984441 383.359368,76.4531211 384.84375,77.234375 C385.85938,77.234375 386.835933,76.9218781 387.773438,76.296875 C387.460936,76.6093766 387.265625,77.0781219 387.1875,77.703125 C388.046879,78.6406297 389.062494,79.5781203 390.234375,80.515625 C390.15625,81.3750043 389.960939,82.1562465 389.648438,82.859375 C386.914049,81.7656195 384.023453,81.1015637 380.976562,80.8671875 C381.445315,81.8828176 382.265619,82.8984324 383.4375,83.9140625 C391.171914,86.414075 399.179646,88.3671805 407.460938,89.7734375 L410.507812,89.7734375 C410.742189,89.5390613 410.859375,89.2656266 410.859375,88.953125 C409.374993,88.0937457 407.85157,87.468752 406.289062,87.078125 C402.617169,86.2968711 399.062517,85.4765668 395.625,84.6171875 C395.781251,83.2890559 395.820313,81.9609441 395.742188,80.6328125 C395.117184,79.6953078 394.492191,78.9140656 393.867188,78.2890625 C394.804692,77.195307 395.546872,76.0625059 396.09375,74.890625 C396.171875,74.1093711 396.015627,73.4843773 395.625,73.015625 C394.999997,72.4687473 394.296879,72.1171883 393.515625,71.9609375 C391.328114,71.5703105 389.21876,71.5703105 387.1875,71.9609375 C387.968754,71.257809 388.593748,70.3984426 389.0625,69.3828125 L388.96875,68.3890617 C388.921875,67.9109376 388.875,67.4609396 388.828125,67.0390625 C388.124996,65.5546801 387.1875,64.3046926 386.015625,63.2890625 C384.765619,62.5078086 383.593755,61.8437527 382.5,61.296875 C383.51563,60.5937465 384.609369,59.8906285 385.78125,59.1875 C386.875005,60.5156316 388.281241,61.726557 390,62.8203125 C390.625003,62.8203125 391.210935,62.625002 391.757812,62.234375 C391.835938,61.0624941 391.601565,60.0859414 391.054688,59.3046875 C389.882807,58.4453082 388.632819,57.8593766 387.304688,57.546875 C387.617189,57.156248 387.8125,56.6875027 387.890625,56.140625 C387.8125,55.2812457 387.460941,54.6171898 386.835938,54.1484375 C384.2578,53.2109328 381.601576,52.546877 378.867188,52.15625 C374.804667,51.765623 370.78127,51.4921883 366.796875,51.3359375 C366.015621,51.4140629 365.312503,51.6093734 364.6875,51.921875 Z M377.226562,63.2890625 C379.335948,63.0546863 381.289054,63.3671832 383.085938,64.2265625 C383.945317,65.0078164 384.335938,66.0624934 384.257812,67.390625 C383.476559,68.2500043 382.539068,68.9140602 381.445312,69.3828125 C379.96093,69.6953141 378.515632,69.9687488 377.109375,70.203125 C377.03125,67.7812379 377.070312,65.4765734 377.226562,63.2890625 Z M377.34375,55.203125 C378.906258,55.203125 380.507804,55.2812492 382.148438,55.4375 C380.74218,57.0000078 379.101572,58.1718711 377.226562,58.953125 C377.148437,57.6249934 377.1875,56.3750059 377.34375,55.203125 Z M399.960938,51.921875 C398.867182,51.921875 397.812505,51.8828129 396.796875,51.8046875 C395.624994,52.1171891 394.531255,52.5468723 393.515625,53.09375 C394.218754,54.2656309 395.312493,55.3593699 396.796875,56.375 C394.999991,58.8750125 393.398445,61.4921738 391.992188,64.2265625 C391.523435,65.3984434 391.132814,66.5312445 390.820312,67.625 C391.523441,68.4843793 392.42187,69.2656215 393.515625,69.96875 L394.570312,69.96875 C395.351566,67.9374898 396.367181,66.218757 397.617188,64.8125 C397.617188,69.421898 398.046871,74.1093512 398.90625,78.875 C399.531253,80.2031316 400.156247,81.5703055 400.78125,82.9765625 C401.562504,83.7578164 402.499995,84.5390586 403.59375,85.3203125 C404.375004,85.4765633 404.960936,85.2812527 405.351562,84.734375 C404.492183,82.5468641 403.671879,80.3593859 402.890625,78.171875 C402.734374,77.3124957 402.695312,76.4531293 402.773438,75.59375 C405.039074,74.8906215 407.695297,74.4609383 410.742188,74.3046875 C410.820312,74.8515652 410.820312,75.4374969 410.742188,76.0625 C409.960934,77.859384 409.023443,79.4999926 407.929688,80.984375 C408.632816,81.8437543 409.45312,82.6249965 410.390625,83.328125 C410.781252,83.4062504 411.249997,83.4453125 411.796875,83.4453125 C413.046881,82.4296824 413.984372,81.1015707 414.609375,79.4609375 C414.843751,77.4296773 415.039062,75.3593855 415.195312,73.25 C414.882811,70.9062383 414.531252,68.6406359 414.140625,66.453125 C413.593747,65.2812441 412.968754,64.148443 412.265625,63.0546875 C411.015619,61.6484305 409.687507,60.4765672 408.28125,59.5390625 C406.718742,58.6015578 405.078134,57.937502 403.359375,57.546875 C403.750002,56.8437465 404.335934,56.1406285 405.117188,55.4375 C408.242203,55.6718762 411.32811,55.9453109 414.375,56.2578125 C415.078129,55.9453109 415.351563,55.3593793 415.195312,54.5 C414.648435,53.9531223 413.984379,53.6015633 413.203125,53.4453125 C411.093739,53.2890617 409.140634,52.9375027 407.34375,52.390625 C408.203129,51.2968695 408.984371,50.1640684 409.6875,48.9921875 C409.765625,48.2109336 409.531253,47.5859398 408.984375,47.1171875 C407.499993,46.4921844 405.937508,46.2187496 404.296875,46.296875 C402.890618,48.093759 401.44532,49.9687402 399.960938,51.921875 Z M409.804688,67.390625 C410.429691,68.796882 410.78125,70.3593664 410.859375,72.078125 C408.203112,71.2968711 405.507826,70.90625 402.773438,70.90625 C402.617187,69.6562438 402.734373,68.6015668 403.125,67.7421875 C405.15626,67.2734367 407.3828,67.1562488 409.804688,67.390625 Z M403.476562,60.7109375 C404.648443,60.9453137 405.781245,61.3749969 406.875,62 C407.578129,62.5468777 408.203122,63.2109375 408.75,63.9921875 L406.025391,63.7578125 C405.107424,63.6796877 404.179692,63.6015629 403.242188,63.5234375 C403.007811,62.5078074 403.085936,61.5703168 403.476562,60.7109375 Z M458.4375,60.7109375 C459.375005,61.5703168 460.351557,62.5468695 461.367188,63.640625 C463.710949,64.4218789 466.1328,65.164059 468.632812,65.8671875 C469.257816,65.4765605 469.570312,64.8515668 469.570312,63.9921875 C469.179686,63.4453098 468.71094,62.9765645 468.164062,62.5859375 C465.195298,61.2578059 462.070329,60.4375016 458.789062,60.125 C458.476561,60.125 458.359375,60.3203105 458.4375,60.7109375 Z M431.71875,60.7109375 L431.383928,62.5476748 C431.104911,64.1022009 430.825894,65.7165095 430.546875,67.390625 C431.250004,68.8750074 432.30468,70.0859328 433.710938,71.0234375 C434.492191,70.8671867 435.234371,70.593752 435.9375,70.203125 C436.484378,67.7031125 437.226558,65.2812617 438.164062,62.9375 C439.414069,61.6093684 440.234373,60.046884 440.625,58.25 C440.390624,57.7812477 440.117189,57.4296887 439.804688,57.1953125 C438.164054,56.6484348 436.523446,56.2968758 434.882812,56.140625 C433.789057,57.6250074 432.73438,59.1484297 431.71875,60.7109375 Z M446.601562,64.109375 C444.882804,63.0937449 442.890636,62.4687512 440.625,62.234375 C440.312498,62.8593781 440.039064,63.6015582 439.804688,64.4609375 C439.726562,66.2578215 439.6875,68.1328027 439.6875,70.0859375 C439.843751,71.1015676 440.078123,72.1562445 440.390625,73.25 C441.562506,74.8906332 443.046866,76.4921797 444.84375,78.0546875 C445.625004,78.4453145 446.406246,78.8749977 447.1875,79.34375 C448.359381,79.5000008 449.570306,79.6953113 450.820312,79.9296875 C452.460946,79.6171859 453.984368,79.0312543 455.390625,78.171875 L458.203125,75.359375 C459.14063,73.7968672 460.07812,72.1953207 461.015625,70.5546875 C461.250001,69.5390574 461.445312,68.5234426 461.601562,67.5078125 C461.210936,66.9609348 460.781252,66.4921895 460.3125,66.1015625 C459.374995,65.7890609 458.476567,65.7890609 457.617188,66.1015625 C456.835934,68.2890734 455.742195,70.3593652 454.335938,72.3125 C453.320307,73.3281301 452.226568,74.3046828 451.054688,75.2421875 C449.960932,75.8671906 448.828131,76.2968738 447.65625,76.53125 C446.718745,75.90625 446.054689,75.0859426 445.664062,74.0703125 C445.351561,71.5703 445.468747,69.1093871 446.015625,66.6875 C446.09375,65.90625 446.406247,65.4765629 446.953125,65.3984375 C447.578128,66.9609453 448.710929,68.3281191 450.351562,69.5 C450.820315,69.6562508 451.367184,69.7734371 451.992188,69.8515625 C452.382814,69.5390609 452.734373,69.2265641 453.046875,68.9140625 C452.812499,67.7421816 452.500002,66.6093805 452.109375,65.515625 C452.109375,62.9374871 452.265623,60.4375121 452.578125,58.015625 C452.343749,57.7031234 452.148438,57.3906266 451.992188,57.078125 C450.351554,56.2968711 448.593759,55.90625 446.71875,55.90625 C446.015621,58.4843879 445.976559,61.2187355 446.601562,64.109375 Z M510.351562,46.8828125 C505.742164,49.2265742 501.093773,51.7265492 496.40625,54.3828125 C496.40625,55.3203172 496.95312,56.2187457 498.046875,57.078125 C498.671878,57.2343758 499.374996,57.3906242 500.15625,57.546875 C501.953134,56.53125 503.828115,55.6718785 505.78125,54.96875 C506.562504,55.7500039 507.22656,56.7265566 507.773438,57.8984375 C504.023419,58.8359422 500.390643,59.9296813 496.875,61.1796875 C495.85937,61.9609414 494.960941,62.7812457 494.179688,63.640625 C495.039067,64.8906312 496.132806,66.0624945 497.460938,67.15625 C498.164066,67.3906262 498.945308,67.4296883 499.804688,67.2734375 C500.351565,66.6484344 500.898435,66.0625027 501.445312,65.515625 C504.257827,63.8749918 507.187485,62.7031285 510.234375,62 L512.929688,67.15625 L512.929688,67.15625 C510.820302,67.546877 508.710948,67.8203117 506.601562,67.9765625 C500.976534,69.2265687 495.429715,70.5937426 489.960938,72.078125 C489.882812,72.3906266 489.84375,72.7421855 489.84375,73.1328125 C490.85938,74.3828187 492.070305,75.4765578 493.476562,76.4140625 C500.195346,73.9921754 507.148402,72.0000078 514.335938,70.4375 C514.960941,71.7656316 515.50781,73.1718676 515.976562,74.65625 C516.054688,75.9062562 516.09375,77.1171816 516.09375,78.2890625 C515.859374,79.0703164 515.468753,79.8906207 514.921875,80.75 C513.82812,81.7656301 512.73438,82.6640586 511.640625,83.4453125 C509.609365,84.3828172 507.539073,85.2031215 505.429688,85.90625 C502.226546,86.296877 499.101578,86.8046844 496.054688,87.4296875 C496.132813,87.8984398 496.44531,88.328123 496.992188,88.71875 C497.851567,88.71875 498.671871,88.9140605 499.453125,89.3046875 C501.718761,89.0703113 503.984364,88.8750008 506.25,88.71875 C508.437511,88.0937469 510.664051,87.4687531 512.929688,86.84375 C514.570321,86.0624961 516.171867,85.2031297 517.734375,84.265625 C518.281253,83.6406219 518.828122,83.0546902 519.375,82.5078125 C519.765627,81.4921824 520.117186,80.5156297 520.429688,79.578125 C520.507813,78.3281187 520.507813,77.0781312 520.429688,75.828125 C519.804684,73.6406141 519.257815,71.5703223 518.789062,69.6171875 C522.22658,69.2265605 525.781232,69.1093742 529.453125,69.265625 C529.921877,68.9531234 530.117188,68.4843781 530.039062,67.859375 C529.57031,67.3906227 529.140627,67.0781258 528.75,66.921875 C524.999981,66.53125 521.250019,66.53125 517.5,66.921875 C516.406245,64.8124895 515.468754,62.7421977 514.6875,60.7109375 C516.953136,60.3984359 519.140614,59.8515664 521.25,59.0703125 C521.328125,58.2890586 521.093753,57.703127 520.546875,57.3125 C519.296869,56.9999984 518.085943,56.7656258 516.914062,56.609375 C515.42968,56.7656258 513.984382,56.9609363 512.578125,57.1953125 C511.718746,55.6328047 510.625007,54.4218793 509.296875,53.5625 C511.406261,52.7031207 513.593739,51.7656301 515.859375,50.75 L518.671875,50.515625 C519.062502,50.2812488 519.414061,49.968752 519.726562,49.578125 C519.804688,48.4843695 519.414067,47.7031273 518.554688,47.234375 C517.14843,46.843748 515.703132,46.6093754 514.21875,46.53125 C512.890618,46.6093754 511.601569,46.7265617 510.351562,46.8828125 Z M553.945312,79.9296875 C554.726566,81.3359445 555.859368,82.5078078 557.34375,83.4453125 L558.867188,83.4453125 C559.414065,82.9765602 559.999997,82.546877 560.625,82.15625 C566.406279,81.6093723 572.265595,81.2968754 578.203125,81.21875 C578.750003,80.7499977 578.945312,80.164066 578.789062,79.4609375 C577.539056,78.8359344 576.210945,78.4453133 574.804688,78.2890625 C568.632782,78.2109371 562.50003,78.171875 556.40625,78.171875 C555.546871,78.6406273 554.726566,79.226559 553.945312,79.9296875 Z M562.382812,56.9609375 C561.054681,61.8828371 560.234377,66.9999734 559.921875,72.3125 C560.781254,73.1718793 561.718745,74.0703078 562.734375,75.0078125 C563.281253,75.1640633 563.906246,75.2421875 564.609375,75.2421875 C566.56251,73.9140559 568.632802,72.7421926 570.820312,71.7265625 C571.601566,71.5703117 572.460933,71.4921875 573.398438,71.4921875 C574.804695,71.7265637 576.21093,72.234375 577.617188,73.015625 C578.476567,73.6406281 579.218747,74.4609324 579.84375,75.4765625 C580.468753,76.8828195 580.664064,78.484366 580.429688,80.28125 C579.88281,81.3750055 579.218754,82.4296824 578.4375,83.4453125 C577.656246,83.9140648 576.875004,84.5390586 576.09375,85.3203125 C574.531242,85.9453156 573.00782,86.5312473 571.523438,87.078125 C569.726554,87.1562504 568.046883,87.3124988 566.484375,87.546875 C566.328124,87.7812512 566.210938,88.0156238 566.132812,88.25 C566.757816,89.1093793 567.77343,89.6953109 569.179688,90.0078125 C571.367198,89.9296871 573.515614,89.734375 575.625,89.421875 C577.265633,88.8749973 578.906242,88.2109414 580.546875,87.4296875 C581.796881,86.4921828 583.007807,85.3984437 584.179688,84.1484375 C584.414064,83.3671836 584.687498,82.6250035 585,81.921875 C585,80.3593672 584.921875,78.9140691 584.765625,77.5859375 C584.062496,76.1796805 583.242192,74.8906309 582.304688,73.71875 C580.74218,72.312493 579.062509,71.1015676 577.265625,70.0859375 L575.803124,69.542187 C575.090625,69.2796876 574.406253,69.0312512 573.75,68.796875 C570.937486,68.0937465 568.164076,68.0937465 565.429688,68.796875 C565.664064,67.7031195 565.937498,66.5312562 566.25,65.28125 C570.625022,63.6406168 575.312475,62.7421883 580.3125,62.5859375 C581.015629,62.1171852 581.328125,61.4531293 581.25,60.59375 C579.765618,59.9687469 578.281257,59.5390637 576.796875,59.3046875 C573.906236,59.4609383 571.054702,59.6953109 568.242188,60.0078125 C568.554689,58.914057 568.867186,57.7812559 569.179688,56.609375 C568.63281,55.9062465 568.046878,55.4375012 567.421875,55.203125 C566.171869,55.1249996 565.039068,54.9687512 564.023438,54.734375 C563.320309,55.2812527 562.773439,56.0234328 562.382812,56.9609375 Z M553.242188,48.171875 L553.242188,60.0078125 C553.398438,61.4140695 553.710935,62.7812434 554.179688,64.109375 C555.117192,65.4375066 556.328118,66.6093699 557.8125,67.625 C558.203127,67.7031254 558.671872,67.7031254 559.21875,67.625 C559.609377,67.1562477 559.765625,66.6484402 559.6875,66.1015625 C558.749995,65.1640578 558.242188,64.148443 558.164062,63.0546875 C558.085937,60.3202988 558.164061,57.6250133 558.398438,54.96875 C558.789064,54.8124992 559.25781,54.7734371 559.804688,54.8515625 C560.27344,54.3828102 560.781247,53.9140648 561.328125,53.4453125 C563.203134,52.6640586 565.117178,51.9609406 567.070312,51.3359375 C570.66408,50.632809 574.453105,50.3203121 578.4375,50.3984375 C579.375005,50.5546883 580.351557,50.7499988 581.367188,50.984375 C581.757814,51.6093781 581.914063,52.3906203 581.835938,53.328125 C581.28906,55.0468836 580.429693,56.5703059 579.257812,57.8984375 C580.039066,58.9140676 581.015619,59.8515582 582.1875,60.7109375 L583.59375,60.7109375 C584.218753,60.1640598 584.804685,59.5781281 585.351562,58.953125 C585.976566,57.546868 586.445311,56.2187562 586.757812,54.96875 C586.757812,53.171866 586.210943,51.6875059 585.117188,50.515625 C583.789056,49.4218695 582.304696,48.6796895 580.664062,48.2890625 C578.789053,47.9765609 576.953134,47.7031262 575.15625,47.46875 L566.25,47.46875 C564.296865,47.6250008 562.382822,47.8984355 560.507812,48.2890625 C560.195311,47.195307 559.570317,46.5312512 558.632812,46.296875 C557.460932,46.1406242 556.289068,46.0234379 555.117188,45.9453125 C554.414059,46.5703156 553.789065,47.3124957 553.242188,48.171875 Z M615.351562,54.265625 C614.179682,55.8281328 612.890632,57.1953066 611.484375,58.3671875 C609.609366,60.5546984 608.125005,63.0156113 607.03125,65.75 C606.640623,66.9218809 606.40625,68.2499926 606.328125,69.734375 C607.109379,70.5937543 608.007807,71.4140586 609.023438,72.1953125 L610.3125,72.1953125 C611.093754,70.085927 611.992182,68.0937594 613.007812,66.21875 C614.257819,71.2969004 615.937489,76.140602 618.046875,80.75 C618.906254,81.6093793 619.921869,82.5078078 621.09375,83.4453125 C621.718753,83.5234379 622.343747,83.4453137 622.96875,83.2109375 C622.96875,82.8203105 623.046874,82.4687516 623.203125,82.15625 C621.874993,79.4999867 620.820316,76.8828254 620.039062,74.3046875 C619.804686,72.2734273 619.453127,70.3984461 618.984375,68.6796875 C618.749999,66.4921766 618.710937,64.3828227 618.867188,62.3515625 C618.32031,61.8046848 617.851564,61.4140637 617.460938,61.1796875 C618.632818,60.085932 619.843744,59.0703172 621.09375,58.1328125 C622.031255,57.9765617 622.968745,57.8593754 623.90625,57.78125 C624.453128,57.1562469 624.609376,56.492191 624.375,55.7890625 L623.4375,54.8515625 C621.874992,54.4609355 620.35157,54.1484387 618.867188,53.9140625 C617.617181,53.8359371 616.445318,53.9531234 615.351562,54.265625 Z M634.453125,45.2421875 C635.625006,45.1640621 636.874993,45.2421863 638.203125,45.4765625 C638.984379,45.6328133 639.726559,46.1015586 640.429688,46.8828125 C640.273437,50.3984551 640.234375,53.9140449 640.3125,57.4296875 C642.187509,57.2734367 644.101553,57.1953125 646.054688,57.1953125 C647.382819,57.2734379 648.671869,57.5468727 649.921875,58.015625 C650.312502,58.3281266 650.507812,58.835934 650.507812,59.5390625 C650.351562,59.8515641 650.117189,60.1249988 649.804688,60.359375 C646.289045,60.2812496 642.968766,60.7109328 639.84375,61.6484375 C639.765625,62.2734406 639.804687,62.8984344 639.960938,63.5234375 C640.742191,63.5234375 641.484371,63.7578102 642.1875,64.2265625 C644.843763,66.1015719 647.578111,68.1718637 650.390625,70.4375 C651.796882,71.7656316 652.929683,73.2499918 653.789062,74.890625 L653.789062,76.4140625 C653.476561,76.6484387 653.203126,76.8828113 652.96875,77.1171875 C652.265621,77.1171875 651.640628,77.0000012 651.09375,76.765625 C650.156245,75.8281203 649.257817,74.9687539 648.398438,74.1875 C648.242187,73.1718699 647.851566,72.3125035 647.226562,71.609375 C644.804675,69.7343656 642.3047,68.1328191 639.726562,66.8046875 C639.335936,69.5390762 639.257811,72.351548 639.492188,75.2421875 C641.054695,75.1640621 642.61718,75.2421863 644.179688,75.4765625 C645.039067,75.6328133 645.898433,75.9453102 646.757812,76.4140625 C646.914063,76.8828148 646.992188,77.4687465 646.992188,78.171875 C644.492175,78.7187527 641.953138,79.2265602 639.375,79.6953125 C639.453125,83.2890805 639.999995,86.7656082 641.015625,90.125 C640.859374,90.2812508 640.703126,90.4765613 640.546875,90.7109375 C639.765621,90.7890629 639.140627,90.6718766 638.671875,90.359375 C637.73437,89.4999957 637.031252,88.6796914 636.5625,87.8984375 C636.484375,85.2421742 636.250002,82.664075 635.859375,80.1640625 C635.390623,80.2421879 634.921877,80.28125 634.453125,80.28125 C632.890617,79.4218707 631.562505,78.2500074 630.46875,76.765625 C631.796882,75.7499949 633.476552,75.2421875 635.507812,75.2421875 C635.507812,71.9609211 635.234378,68.9140766 634.6875,66.1015625 C631.874986,68.5234496 629.492197,71.2187352 627.539062,74.1875 C627.148436,75.2031301 626.796877,76.2187449 626.484375,77.234375 C626.718751,77.7031273 626.835938,78.289059 626.835938,78.9921875 C626.679687,79.3046891 626.445312,79.5390617 626.132812,79.6953125 C625.507809,79.6953125 624.921878,79.6562504 624.375,79.578125 C623.35937,78.7187457 622.421879,77.8203172 621.5625,76.8828125 C621.406249,76.1015586 621.406249,75.3203164 621.5625,74.5390625 C622.031252,73.2109309 622.53906,71.843757 623.085938,70.4375 C624.335944,68.4062398 625.624993,66.4921965 626.953125,64.6953125 C625.781244,64.6953125 624.843754,64.4218777 624.140625,63.875 C623.124995,62.8593699 622.304691,61.9609414 621.679688,61.1796875 C625.664082,59.7734305 629.999977,58.7968777 634.6875,58.25 C634.453124,53.7968527 634.375,49.4609586 634.453125,45.2421875 Z" id="沐瑶随心手写体" fill="#000000" fill-rule="nonzero"></path>
    </g>
</svg>