<svg xmlns="http://www.w3.org/2000/svg" width="900" height="140" viewBox="0 0 900 140">
  <defs>
    <style>
      .cls-1 {
        fill-rule: evenodd;
      }
    </style>
  </defs>
  <path id="破产字体仿宋" class="cls-1" d="M230.642,84.835l-1.05-1.05c2.55-3.075,4.65-5.775,6.225-8.1a77.257,77.257,0,0,0,6.75-12.6,45.017,45.017,0,0,0,2.474-8.625l-1.8.3-1.875.3a22.091,22.091,0,0,0-4.275,1.2l-3.075-2.025a0.616,0.616,0,0,1-.375-0.375c0-.375.225-0.525,0.675-0.525q4.837-.787,10.574-1.35c5.475-.825,9.375-1.8,11.55-2.85l3.45,2.175a0.974,0.974,0,0,1,.375.525,2.052,2.052,0,0,1-.3.375l-2.175.375-9.9,1.425c0.525,1.125,1.125,2.175,1.725,3.225a6.669,6.669,0,0,0-2.4,2.4l-1.425,3.225a26.525,26.525,0,0,0-1.425,2.925,21.273,21.273,0,0,1-1.2,2.625c0.3,0.675.6,1.275,0.974,1.95l8.55-1.05a15.561,15.561,0,0,1,1.425-2.175,0.9,0.9,0,0,1,.6-0.375,3.656,3.656,0,0,1,.525.225q1.012,0.787,2.25,1.575a0.952,0.952,0,0,1,.525.825,6.03,6.03,0,0,1-1.125,1.575c-0.6.675-.975,2.1-1.125,4.2l-0.75,9.375c0.45,0.375.975,0.825,1.575,1.275a2.127,2.127,0,0,1,.675.75,0.479,0.479,0,0,1-.45.45,1.113,1.113,0,0,0-.525.075c-6.9.75-10.725,1.2-11.55,1.35l0.225,7.05c-0.075,1.05-.225,1.575-0.6,1.575-0.225,0-.6-0.525-1.2-1.575a33.309,33.309,0,0,1-2.325-3.9,13.3,13.3,0,0,1,.9-2.1c0.075-1.425.15-2.7,0.225-3.9l-0.675-14.1c-1.275,1.725-2.55,3.525-3.75,5.325a15.128,15.128,0,0,1-1.575,2.025c-0.6.75-1.2,1.5-1.875,2.25C232.817,82.51,231.692,83.785,230.642,84.835Zm13.949,1.2c0.825-.15,1.65-0.225,2.475-0.3,2.175-.375,3.9-0.675,5.025-0.825l0.975-13.2c-1.425.225-2.85,0.375-4.125,0.6l-4.875.6Zm4.275,22.949a13.058,13.058,0,0,1-1.05-.9l3.9-4.8a54.767,54.767,0,0,0,8.7-17.024,56.712,56.712,0,0,0,1.875-10.35c0.375-4.35.525-9.15,0.525-14.4-0.075-3.525-.225-6.9-0.525-10.125,0.3-.15.6-0.3,0.975-0.45a68.847,68.847,0,0,0,3.075,6.225l8.249-1.05V49.286c-0.075-4.95-.45-8.7-1.2-11.175a3.933,3.933,0,0,1,.825-0.75l5.025,4.725a15.873,15.873,0,0,0-1.275,2.4,18.465,18.465,0,0,0-.6,5.55v5.7l7.35-1.05,2.625-.45,1.5-2.25a0.907,0.907,0,0,1,.675-0.45,4.422,4.422,0,0,0,.6.3l2.849,3.15a2.022,2.022,0,0,1-.824.825,6.6,6.6,0,0,0-.75.45,6.14,6.14,0,0,0-1.8,2.175l-4.2,7.65a8.68,8.68,0,0,0-1.2-.825c1.425-3.525,2.4-6.3,3.075-8.325l-9.9,1.275V71.335c1.725-.375,3.45-0.6,5.175-0.825,0.525-.675,1.05-1.275,1.65-1.95a0.689,0.689,0,0,1,.45-0.3,1.209,1.209,0,0,1,.525.3q1.238,1.013,2.475,2.25a1.429,1.429,0,0,1,.375.75,2.344,2.344,0,0,1-.375.75,5.224,5.224,0,0,0-1.875,1.95,5.047,5.047,0,0,0-.75,1.575,20.6,20.6,0,0,1-1.05,2.55,125.747,125.747,0,0,1-5.85,11.175,60.97,60.97,0,0,0,4.05,5.925,47.183,47.183,0,0,0,3.6,4.2,14.048,14.048,0,0,0,8.624,4.05,19.066,19.066,0,0,1,3.075.225v1.5c-6.374.45-10.424,0.75-12,.975-0.3-.675-0.6-1.35-0.9-1.95l-1.725-2.925-5.025-7.874c-0.45-.675-0.9-1.35-1.35-1.95a72.413,72.413,0,0,1-11.624,11.474,48.816,48.816,0,0,1-10.5,6.075c-0.3-.45-0.525-0.825-0.75-1.2a60.8,60.8,0,0,0,11.55-7.95c4.724-4.275,8.024-7.874,9.824-10.874l-5.25-7.5a29.442,29.442,0,0,0-3.6-3.9l0.225-.9c1.5,0.15,3,.3,4.5.525a8.529,8.529,0,0,0,1.275,3.45c0.975,1.575,2.4,3.675,4.125,6.225a53.41,53.41,0,0,0,6-14.1l-6,.9c-1.65.225-3.3,0.45-4.875,0.75-1.35.225-2.625,0.525-3.824,0.825-0.075-.075-0.825-0.6-2.1-1.5a82.009,82.009,0,0,1-1.35,9.075,39.039,39.039,0,0,1-1.8,6.15,61.911,61.911,0,0,1-7.35,12.674A69.114,69.114,0,0,1,248.866,108.984ZM274.59,58.661l-8.7,1.2-0.45,12.974c2.924-.3,5.924-0.675,9.149-1.2V58.661Zm30.977,49.873a2.879,2.879,0,0,1,.825-0.825,61.538,61.538,0,0,0,7.35-8.85,35.678,35.678,0,0,0,5.174-14.849c0.3-2.025.525-4.275,0.75-6.75l0.375-5.1c-0.075-1.2-.225-4.275-0.525-9.15a5.064,5.064,0,0,1,1.05-.15l2.775,6.825,7.95-.6,13.124-1.35q1.8-5.625,2.475-8.55l0.675-4.125,0.075-3c0.375-.075.675-0.15,1.05-0.225l4.125,4.8a8.312,8.312,0,0,0-2.775,3.3,79.154,79.154,0,0,0-3.375,7.575c4.575-.375,8.325-0.75,11.25-1.2a26.666,26.666,0,0,0,3.675-.675c0.975-.225,2.1-0.525,3.225-0.9l3.674,3a2.393,2.393,0,0,1,.45.525l-0.45.225-3.974.3c-0.45.075-9.3,0.825-26.624,2.325l-14.55,1.275c-0.225,2.925-.525,5.55-0.825,7.8-0.225,2.1-.45,3.975-0.75,5.55a37.072,37.072,0,0,1-2.325,7.8c-2.324,5.325-6.3,10.425-12,15.3a4.815,4.815,0,0,0-.975.75A13.058,13.058,0,0,0,305.567,108.534Zm35.549-58.948a7.96,7.96,0,0,1-.75-1.95l-1.425-3.225c-1.125-2.025-2.4-4.125-3.75-6.375l-0.45-.9a2.879,2.879,0,0,1,.825-0.825c0.9,0.675,3.375,2.775,7.5,6.3a10.358,10.358,0,0,1,1.274,1.425l-2.174,5.475,9-.975c2.25-.225,4.125-0.45,5.625-0.75a40.749,40.749,0,0,0,6.9-1.8c2.85,1.95,4.424,3.075,4.8,3.45a0.865,0.865,0,0,1-.824.45c-1.65.075-3.225,0.15-4.725,0.3-3,.225-11.55,1.125-25.649,2.55l-14.1,1.425c-3,.45-5.924.975-8.7,1.575q-3.15-2.475-3.6-2.925a0.963,0.963,0,0,1,.75-0.3l21.674-1.95A65.11,65.11,0,0,1,341.116,49.586Zm-12.825,6.375a6.256,6.256,0,0,1,.9-0.6,1.035,1.035,0,0,0,.3.225l6.6,6.3a2.219,2.219,0,0,1,1.05,1.5c-0.15.3-.3,0.6-0.45,0.975l-1.125,2.475c-0.45.975-.825,1.425-1.125,1.425a0.749,0.749,0,0,0-.375-0.3,81.717,81.717,0,0,1-3.225-7.65A48.556,48.556,0,0,0,328.291,55.961Zm64.951,24.3,20.249-2.175a63.5,63.5,0,0,0-3.45-7.95,12.124,12.124,0,0,1-.75-1.35l1.05-.675,1.05,1.275a27.943,27.943,0,0,1,3.075,4.35l6.674-7.8,2.625-3.45c-1.125.075-2.25,0.225-3.3,0.375l-15.674,2.1a45.84,45.84,0,0,0-5.25,1.125,2.694,2.694,0,0,0-.75-0.525,11.815,11.815,0,0,1-2.325-2.1q0-.45.9-0.45l7.2-.75,10.425-1.125,9.224-1.275a14.6,14.6,0,0,1,1.8-1.95,0.913,0.913,0,0,1,.75-0.45c0.075,0.075.6,0.375,1.575,0.975l2.55,2.55a16.06,16.06,0,0,1-2.1,1.575c-0.375.3-.75,0.525-1.05,0.75a28.574,28.574,0,0,0-4.725,4.2q-6.525,6.525-7.649,7.875c0.3,0.75.6,1.575,0.975,2.475l14.924-1.725a33.539,33.539,0,0,0,8.325-2.025l3.9,2.85a0.749,0.749,0,0,1,.3.375,0.762,0.762,0,0,1-.75.525l-26.1,2.475a60.831,60.831,0,0,1,.675,8.475,57.6,57.6,0,0,1-1.35,12.674,36.332,36.332,0,0,1-1.575,5.25c-0.675,1.275-1.2,1.875-1.5,1.875a1.1,1.1,0,0,1-.3-0.15L402.166,97.584l0.9-.9a14.321,14.321,0,0,0,1.575,1.125l7.2,4.725c0.225-.075.675-0.9,1.275-2.475a60.917,60.917,0,0,0,1.425-13.949,42.262,42.262,0,0,0-.525-5.55l-17.1,2.025-4.049.45c-1.275.225-3,.525-5.025,1.05-0.225-.225-1.2-1.05-2.85-2.325a1.639,1.639,0,0,1-.225-0.375,0.5,0.5,0,0,1,.525-0.45C388.067,80.635,390.767,80.41,393.242,80.26Zm15.224-43.423a4.5,4.5,0,0,1,.9-0.825c4.65,3.675,7.125,5.7,7.425,6a3.785,3.785,0,0,1,1.35,1.725,36.147,36.147,0,0,0-1.125,3.75c-0.375,1.125-.75,1.725-1.125,1.725a0.78,0.78,0,0,1-.675-0.675l-0.45-1.05a51.844,51.844,0,0,0-5.4-9.45C409.066,37.587,408.766,37.212,408.466,36.837Zm27.224,11.55,1.8-2.4a1.665,1.665,0,0,1,.75-0.675l0.9,0.6c2.1,2.1,3.15,3.225,3.225,3.375a3.393,3.393,0,0,1-1.2,1.125,15.878,15.878,0,0,0-3.675,3.225l-5.1,6.675a11.534,11.534,0,0,1-.975-0.9c0.525-1.275,1.8-4.05,3.9-8.325l-40.874,3.975a53.253,53.253,0,0,1-1.949,7.725c-0.825,2.025-1.35,3-1.725,3a1.8,1.8,0,0,1-.9-1.2,26.284,26.284,0,0,1-1.5-3.3c-0.375-.525-0.075-1.2.9-1.95a14.053,14.053,0,0,0,1.725-3.3c0.825-1.95,1.275-5.025,1.5-9.3,0.075-.675.075-1.35,0.15-2.025h1.124l0.15,2.025c0.15,1.875.3,3.675,0.525,5.475Zm19.127,26.1c0.45-.525.9-1.125,1.425-1.725,2.175-2.775,3.975-5.1,5.325-6.975a63.1,63.1,0,0,0,4.275-6.6,77.163,77.163,0,0,0,6.974-14.324,21.221,21.221,0,0,0,1.275-7.05,3.651,3.651,0,0,1,.9-0.075l3.75,6a4.712,4.712,0,0,0-1.8,1.575,6.256,6.256,0,0,0-.6.9c-0.3.075-.6,0.6-0.975,1.575a29.362,29.362,0,0,0-1.65,3.525,7.951,7.951,0,0,0-.825,1.575,3.531,3.531,0,0,0-.15.375c-0.75,1.35-1.425,2.7-2.1,3.975V94.36a43.224,43.224,0,0,1,3.225-3.675c0.75-.825,1.95-2.325,3.525-4.425,1.425-1.875,2.625-3.675,3.675-5.25a104.873,104.873,0,0,0,10.05-20.7l-7.5,1.125-4.875,1.05-3.675-2.175a1.731,1.731,0,0,1-.375-0.525c0-.375.375-0.525,1.2-0.525l8.175-.675,9.374-.975V46.661a33.769,33.769,0,0,0-.824-6.45c-0.225-.825-0.525-1.95-0.975-3.375a2.694,2.694,0,0,1,.75-0.525l5.774,4.65a4.644,4.644,0,0,0-1.2,2.55,17.55,17.55,0,0,0-.6,5.25v8.475l7.425-.975a39.8,39.8,0,0,0,5.775-1.05,17.261,17.261,0,0,0,3.75-1.35l3.375,2.4a1.008,1.008,0,0,1,.45.525,1.279,1.279,0,0,1-.825.45c-1.425.15-2.775,0.3-4.125,0.525l-15.075,1.8,3.9,6.9,5.85,9.45c4.05,6.525,7.275,10.575,9.675,12a28.1,28.1,0,0,0,6.749,2.475c-0.075.375-.15,0.675-0.225,1.05l-10.424.6-2.325-4.5-13.95-24.6,0.15,23.324c2.775-.3,4.95-0.6,6.45-0.9a22.926,22.926,0,0,0,3.075-.9c0.975,0.825,1.95,1.575,3,2.4a0.974,0.974,0,0,1,.375.525,0.865,0.865,0,0,1-.825.45c-3.675.225-6.825,0.45-9.45,0.75l-2.625.225v12.524l-0.225,5.7a6.3,6.3,0,0,1-.375,2.025,0.648,0.648,0,0,1-.45.225c-0.375-.075-0.825-0.75-1.425-1.875a36.585,36.585,0,0,1-1.949-4.275,2.023,2.023,0,0,1,.525-1.725,7.039,7.039,0,0,0,.749-2.325,0.464,0.464,0,0,1,.075-0.375c0.076-1.2.15-4.425,0.15-9.675a29.9,29.9,0,0,1-3.374.45,3.5,3.5,0,0,1-1.275.225c-0.375.075-1.35,0.225-2.85,0.6a7.678,7.678,0,0,1-2.1.675l-3.15-2.4a0.616,0.616,0,0,1-.375-0.375,0.383,0.383,0,0,1,.375-0.3c0.675-.075,2.625-0.225,6-0.525,2.25-.375,4.5-0.6,6.749-0.825l-0.15-22.649c-1.5,3.375-3.074,6.675-4.649,9.75-0.825,1.575-1.65,3.075-2.475,4.35-0.825,1.35-1.575,2.55-2.325,3.6a91.429,91.429,0,0,1-11.475,12.974l-1.275,1.05-0.6-.6-0.225,8.7c0,2.85-.15,4.575-0.45,5.25a0.412,0.412,0,0,1-.375.225c-0.3,0-.825-0.825-1.649-2.4a22.294,22.294,0,0,1-2.025-4.2,2.416,2.416,0,0,1,.525-1.725c0.225-.375.375-0.675,0.525-0.975a14.894,14.894,0,0,0,.825-3.75l0.075-35.249q-2.812,4.05-5.625,7.425-4.725,5.175-5.4,5.85a9.07,9.07,0,0,0-1.2,1.2A4.5,4.5,0,0,1,454.817,74.485Zm92.549,34.574,1.35-1.35a65.593,65.593,0,0,0,7.575-9.825,78.869,78.869,0,0,0,5.25-10.425c0.975-2.4,1.875-5.175,2.85-8.4s1.8-6.75,2.625-10.725a32.241,32.241,0,0,0,.525-3.375c0.225-1.725.3-2.625,0.3-2.85a10.281,10.281,0,0,1-.15-1.575l-8.4,1.275a25.579,25.579,0,0,0-4.575,1.575l-3.525-2.25a1.665,1.665,0,0,1-.675-0.75,0.712,0.712,0,0,1,.825-0.6l7.2-.825,12-1.575,9.075-1.2c3-.45,5.475-0.9,7.35-1.35a24.389,24.389,0,0,0,5.025-1.5,42.6,42.6,0,0,1,4.049,3,0.576,0.576,0,0,1-.675.6l-4.724.6-21.075,2.775,2.925,2.55a9.387,9.387,0,0,0-1.5,3.225c-0.525,2.025-.975,4.125-1.425,6.225l11.7-1.65a29.682,29.682,0,0,1,1.65-2.55,0.868,0.868,0,0,1,.525-0.375,2.584,2.584,0,0,1,.825.375l2.55,2.325a1.036,1.036,0,0,1,.45.825,1.01,1.01,0,0,1-.375.675,3.889,3.889,0,0,0-2.25,2.55l-2.775,14.849c-0.45,2.325-.825,4.2-1.2,5.7-1.275,5.925-2.325,9.6-3.075,11.025-0.45.975-.9,1.8-1.35,2.625a1.889,1.889,0,0,1-.975.9,1.645,1.645,0,0,1-1.05-.75l-3.975-6.525-4.424-6.6,0.825-.9c5.1,5.175,7.724,7.875,7.949,8.025,0.375-.075.9-0.75,1.5-2.025l1.575-5.4c0.975-4.275,1.575-7.35,1.875-9.075l1.35-7.275c0.375-2.775.6-4.65,0.675-5.7l-12.75,1.65a96.326,96.326,0,0,1-7.2,18.749,53.851,53.851,0,0,1-12.15,15.224c-0.45.375-.825,0.675-1.2,1.05A11.535,11.535,0,0,0,547.366,109.059Zm19.575-73.272,4.724,5.775,2.925,3.9c1.05,1.275,1.575,2.175,1.575,2.85a2.66,2.66,0,0,1-.45,1.2,20.192,20.192,0,0,0-1.2,2.175c-0.75,1.275-1.2,1.875-1.425,1.875a0.82,0.82,0,0,1-.675-0.975,3.575,3.575,0,0,1-.3-1.5,48.188,48.188,0,0,0-2.1-6.075c-0.45-1.125-1.874-3.9-4.2-8.175ZM530.267,74.56a21.4,21.4,0,0,1,2.1-2.175l3.375-4.05a8.376,8.376,0,0,0,1.05-1.35,96.077,96.077,0,0,0,7.8-11.925,68.218,68.218,0,0,0,4.8-10.5,33.816,33.816,0,0,0,1.35-5.85c-0.075-.9-0.075-1.65-0.15-2.25a10.971,10.971,0,0,1,.975-0.675l3.45,5.775a3.8,3.8,0,0,1,.675,1.2,11.548,11.548,0,0,1-.9.975,2.547,2.547,0,0,0-.9.9q-0.225.45-1.8,3.15l-4.725,8.475-0.075,47.248c-0.075.9-.15,1.8-0.15,2.775-0.075,1.5-.075,2.625-0.15,3.375q-0.338,1.125-.675,1.125c-0.3.075-.675-0.375-1.125-1.275a11.259,11.259,0,0,1-.825-1.65,12.789,12.789,0,0,1-1.574-3.525,12.433,12.433,0,0,1,.674-2.25,14.511,14.511,0,0,0,.675-3.075l0.3-38.4a109.478,109.478,0,0,1-12,13.5c-0.525.525-.975,0.975-1.425,1.5C530.717,75.235,530.492,74.86,530.267,74.56Zm78,26.1,0.6-.45a115.086,115.086,0,0,0,13.124-11.624,116.46,116.46,0,0,0,12.3-15.749h-0.975q-6.525.675-7.65,0.9c-0.75.075-2.7,0.525-5.775,1.275a10.8,10.8,0,0,1-.974-0.675c-1.575-1.275-2.4-1.875-2.4-1.95,0-.375.225-0.525,0.675-0.525,1.649-.225,3.3-0.3,4.949-0.375,7.425-.9,12.675-1.425,15.75-1.65-0.075-2.025-.15-4.125-0.15-6.15a19.522,19.522,0,0,0-1.575-7.125,7.971,7.971,0,0,1,.825-0.675l5.325,4.275a7.1,7.1,0,0,0-1.125,2.475,18.574,18.574,0,0,0-.375,3.375v3.675l7.8-1.125q7.313-1.013,9.675-2.025l3.375,2.4a0.954,0.954,0,0,1,.525.675,0.735,0.735,0,0,1-.825.375H660.84c-2.925.225-8.85,0.75-17.624,1.725l6.9,9.6a47.12,47.12,0,0,0,4.575,5.85,19.9,19.9,0,0,0,8.55,6.225,38.618,38.618,0,0,0,7.574,1.725,6.863,6.863,0,0,0,.075,1.2l-13.424.75-4.875-7.575c-7.725-11.249-11.549-16.874-11.549-16.949h-0.225l-0.15,25.124-0.225,8.175a6.469,6.469,0,0,1-.375,2.325,0.586,0.586,0,0,1-.3.225c-0.3,0-.675-0.45-1.2-1.425-1.275-2.25-2.175-3.825-2.625-4.8a16.715,16.715,0,0,1,1.5-1.95,25.663,25.663,0,0,0,.375-5.475l0.075-21.149-3.45,4.275a113.491,113.491,0,0,1-12.375,13.65,94.942,94.942,0,0,1-12.524,9.674,1.345,1.345,0,0,0-.525.375Zm10.574-53.473a8.152,8.152,0,0,1,1.35-.075l0.225,1.5a41.141,41.141,0,0,1,.3,5.1l39.074-4.425c0.6-.825,1.2-1.65,1.875-2.475a0.913,0.913,0,0,1,.75-0.45,1.533,1.533,0,0,1,.675.375l3.375,3.15a1.771,1.771,0,0,1,.45.675,3.555,3.555,0,0,1-.75.75,6.7,6.7,0,0,0-2.1,1.575c-0.3.075-1.425,1.5-3.375,4.125a43.176,43.176,0,0,0-3.075,4.575c-0.375-.3-0.75-0.525-1.05-0.75a3.212,3.212,0,0,1,.45-1.275c1.2-3.225,2.25-5.85,3.15-7.725l-22.049,2.475-17.55,2.025a23.317,23.317,0,0,1-1.649,6.675,12.246,12.246,0,0,1-1.35,2.475,2.5,2.5,0,0,1-1.05.975q-0.45,0-.675-1.125a29.647,29.647,0,0,1-1.05-3.225,1.431,1.431,0,0,1,.525-1.425,10.122,10.122,0,0,0,2.625-5.025,45.52,45.52,0,0,0,.824-7.2A7.712,7.712,0,0,1,618.841,47.186Zm16.425-10.65a7.944,7.944,0,0,1,.9.75l2.925,2.25,3.375,3a2.691,2.691,0,0,1,.974,1.425,5.269,5.269,0,0,1-.3.75l-1.35,3.6c-0.15.375-.225,0.6-0.3,0.75a0.85,0.85,0,0,1-.675.525,0.954,0.954,0,0,1-.675-0.525,9.328,9.328,0,0,1-.3-1.2,52.159,52.159,0,0,0-4.65-9.675c-0.225-.375-0.45-0.675-0.6-0.975Z"/>
</svg>
