<svg xmlns="http://www.w3.org/2000/svg" width="900" height="140" viewBox="0 0 900 140">
  <defs>
    <style>
      .cls-1 {
        fill-rule: evenodd;
      }
    </style>
  </defs>
  <path id="破产字体黑体" class="cls-1" d="M226.242,73.56l1.2,1.8a34.312,34.312,0,0,1,2.25,4.8l5.1-6.3v16.2c0,1.8,0,3.45-.15,4.875,0,1.425-.15,3.3-0.3,5.475q2.475-.225,3.15-0.225c0.6,0,1.65.075,3.45,0.225l-0.15-2.4V90.36h7.349v1.875a3.141,3.141,0,0,1-.15,1.05v1.65a32.081,32.081,0,0,1,3.75-.3h2.4a24.351,24.351,0,0,1-4.2,4.65l-1.8,1.425,3.3,1.5a14.152,14.152,0,0,1,3.6,2.775l1.35-1.8c3.45-4.575,5.55-8.4,6.45-11.25,0.9-3,1.5-5.325,1.95-7.2,0.3-1.8.6-3.525,0.75-5.175a26.432,26.432,0,0,0,.45-4.725c0-1.5.15-3.15,0.3-4.875h19.35l-0.9,3.15a32.112,32.112,0,0,1-1.05,3.825c-0.75,1.725-1.35,3.3-1.95,4.725a33.826,33.826,0,0,1-2.7,4.95l-1.35-2.325a16.342,16.342,0,0,1-1.35-3.3c-0.45-1.425-1.05-4.125-2.1-8.1a16.532,16.532,0,0,1-6.3.75c1.8,5.625,3,9.375,3.75,11.175s1.8,3.975,3.15,6.525a42.817,42.817,0,0,1-5.7,4.2,31.418,31.418,0,0,1-6.749,3l-2.55.75a23.231,23.231,0,0,1,3.6,3.45,22.355,22.355,0,0,1,1.5,2.4l3-1.725a63.4,63.4,0,0,0,11.1-7.8,78.132,78.132,0,0,0,11.1,7.575l2.7,1.65a24.612,24.612,0,0,1,2.7-4.65,18.559,18.559,0,0,1,2.7-3.225l-2.85-.525a30.725,30.725,0,0,1-6.6-2.025c-1.95-.9-3.3-1.575-3.9-1.95-0.45-.375-1.05-0.9-1.8-1.5a85.96,85.96,0,0,0,5.1-9.45,60.951,60.951,0,0,0,3.3-9.225c0.75-3.3,1.5-6.075,1.95-8.475-3.3.225-5.849,0.375-7.649,0.375h-5.55V52.036h8.85l-0.6,2.025c-0.3.975-1.2,2.7-2.25,5.175a21.661,21.661,0,0,1,4.5,0c0.749,0.15,1.5.375,2.549,0.675l4.35-14.174c-3,.225-5.55.375-7.5,0.375h-9.9v-6.45c0.15-1.05.15-2.55,0.3-4.5a28.079,28.079,0,0,1-3.6.3,22.76,22.76,0,0,1-3.3-.3l0.3,4.35a28.094,28.094,0,0,1,.15,4.275v2.325h-6.45a73.635,73.635,0,0,1-7.949-.375l0.45,13.124v6.45q0,4.95-.45,10.125a54.253,54.253,0,0,1-1.5,9.45,34.071,34.071,0,0,1-3.45,8.925l-0.3-4.575v-24.3c0-.9.15-2.175,0.3-3.6a64.461,64.461,0,0,1-6.45.375h-6.3c1.05-3.075,1.8-5.325,2.25-6.825,0.3-1.425.9-3.15,1.35-5.175h2.55c2.1,0,4.95.15,8.55,0.375l-0.3-2.325V46.786a4.627,4.627,0,0,1,.15-1.35,13.038,13.038,0,0,1,.15-2.175c-2.85.225-5.7,0.375-8.55,0.375h-10.2c-2.55,0-5.4-.15-8.55-0.375l0.15,2.1v2.475a14.832,14.832,0,0,1-.15,2.25c3.75-.225,6.6-0.3,8.55-0.375h1.5c-0.6,2.175-1.05,4.05-1.5,5.625-0.6,1.5-1.2,3.225-2.1,5.25a23.194,23.194,0,0,1-2.85,5.25,39.9,39.9,0,0,1-3,3.9c-1.05,1.125-1.65,1.875-2.1,2.325Zm14.55,11.025V67.335h7.349V84.585h-7.349Zm25.648-20.4V52.036h7.65v12.15h-7.65Zm37.277,36.149a20.435,20.435,0,0,1,5.325,2.25,17.871,17.871,0,0,1,2.325,2.025l1.575-2.475a51.107,51.107,0,0,0,5.849-12.3,62.478,62.478,0,0,0,1.5-9c0.225-2.775.3-5.025,0.375-6.9s0.15-3.9.225-6.075H357.94q6.412,0,12.824.45l-0.225-2.175a1.8,1.8,0,0,1,0-.9v-1.2c0.075-.45.15-1.125,0.225-1.95q-7.536.45-12.824,0.45h-5.925q2.813-4.95,3.6-6.3l2.025-3.375a29.154,29.154,0,0,1-6.45-2.775h4.65q6.75,0,13.5.45l-0.15-2.175a3.384,3.384,0,0,1-.075-0.975,8.669,8.669,0,0,1,.075-1.275c0-.525.075-1.2,0.15-2.175-5.174.375-9.749,0.525-13.724,0.525H343.09a35.493,35.493,0,0,1,4.425-1.2l-6-9.6a19.436,19.436,0,0,1-3.824,2.025,17.593,17.593,0,0,1-3.15.975l1.575,1.95a21.389,21.389,0,0,1,2.775,4.275l0.75,1.575H325.916c-3.9,0-8.4-.15-13.5-0.525l0.225,2.1v2.4c-0.075.375-.15,1.125-0.225,2.1q6.636-.45,13.5-0.45h24.6l-0.975,3.075a68.3,68.3,0,0,1-4.05,9.375h-12.9c1.2-.525,2.475-0.975,3.75-1.5l-7.2-10.425a17.327,17.327,0,0,1-3.15,1.725c-0.9.225-1.875,0.525-3.15,0.825l1.95,2.175a20.32,20.32,0,0,1,3.375,5.175l0.75,2.025h-7.575c-1.725,0-4.125-.15-7.349-0.375l0.45,7.35v1.425c-0.075.375-.075,1.5-0.15,3.15,0,1.8-.075,3.6-0.15,5.475a49.429,49.429,0,0,1-.75,5.7,21.318,21.318,0,0,1-2.25,6.15,23.214,23.214,0,0,1-4.875,6.45ZM378.342,75.06l0.3,2.7a9.913,9.913,0,0,1-.15,2.025,16.313,16.313,0,0,1-.15,2.625c4.5-.375,8.1-0.6,10.8-0.6h21.449V92.234c0,1.8-.15,3-0.6,3.45a2.849,2.849,0,0,1-1.95,1.2,18.938,18.938,0,0,1-6,0l-1.8-.225a36.167,36.167,0,0,1,2.1,4.05c0.3,0.975.45,1.725,0.6,2.325a8.553,8.553,0,0,0,.15,1.95c5.55-.75,9-1.5,10.65-2.25a6.136,6.136,0,0,0,3-2.55,11.97,11.97,0,0,0,.6-3.825V81.81h17.85c2.55,0,6.149.15,10.949,0.525l-0.3-2.025V77.535c0.15-.525.15-1.35,0.3-2.475-5.1.375-8.7,0.525-10.949,0.525H417.34V72.51l1.35-.825a63.442,63.442,0,0,1,6.75-4.35c2.7-1.725,4.65-2.625,5.7-2.775l1.65-.15-0.15-2.325a1.928,1.928,0,0,1-.15-1.05v-1.65c0-.45.15-1.35,0.3-2.475-4.5.375-7.8,0.525-10.05,0.525l-22.049.075c-1.5,0-4.65-.225-9.3-0.6l0.15,2.475a3.974,3.974,0,0,1,0,1.875c0,0.675-.15,1.425-0.15,2.25,4.349-.375,7.5-0.525,9.3-0.525h21.9a55.352,55.352,0,0,1-10.349,6l-1.95.975,0.3,2.4v3.225H389.142C387.342,75.585,383.742,75.435,378.342,75.06Zm2.85-15.224a61.868,61.868,0,0,1,7.5,0l-0.3-2.1c0-.525-0.15-1.5-0.15-2.925V49.636h48v7.425c-0.15.675-.15,1.575-0.3,2.625a22.312,22.312,0,0,1,3.6-.15c0.75,0,2.1.075,3.749,0.15l-0.15-2.55a14.206,14.206,0,0,1-.15-2.775V49.636a18.632,18.632,0,0,1,.15-2.85,32.255,32.255,0,0,1,.3-3.45c-4.349.3-7.049,0.45-8.249,0.45h-17.1l-2.4-8.625-2.4.675a31.566,31.566,0,0,1-5.7.525l1.8,3.525a26.3,26.3,0,0,1,1.5,3.9H389.742q-1.35,0-8.55-.45l0.15,3c0.15,1.425.3,2.55,0.3,3.225v5.25c0,0.825-.15,1.65-0.15,2.325A24.363,24.363,0,0,1,381.192,59.836Zm70.05,6.375a12.1,12.1,0,0,1,3.15,3.225c0.6,0.9,1.05,1.875,1.65,2.925l0.6-.975c2.1-3.225,4.05-6.525,6-9.825V91.484c0,2.325-.15,4.425-0.15,6.3q-0.225,2.925-.45,7.425c1.65-.15,2.85-0.225,3.9-0.225a15.076,15.076,0,0,1,3.449.225l-0.45-5.175c-0.15-1.425-.15-3.375-0.15-5.925V89.535a14.833,14.833,0,0,1,3.6,1.875c0.45,0.525,1.05.975,1.5,1.425l1.2-1.425a68.132,68.132,0,0,0,4.8-6.45l0.3,1.8v2.175a18.435,18.435,0,0,0-.3,1.95c3.3-.225,5.4-0.375,6.45-0.375h6v9.675a50.538,50.538,0,0,0-.3,5.1,28.079,28.079,0,0,1,3.6-.3c0.6,0.075,1.8.15,3.75,0.3l-0.3-4.575c-0.15-2.25-.15-3.6-0.15-3.975V90.509h5.4a46.713,46.713,0,0,1,6.15.375l-0.3-2.4V84.66c1.8,2.55,3.45,4.875,5.1,7.05l1.049,1.2,2.55-2.325a29.778,29.778,0,0,1,4.35-3.15l-1.2-.75a26.5,26.5,0,0,1-5.25-4.65,36.626,36.626,0,0,1-5.849-8.175,40.461,40.461,0,0,1-3.9-9.225c-1.05-3.075-1.5-5.175-1.8-6.3a31.508,31.508,0,0,0-.6-3.525h8.25c1.2,0,4.049.225,8.549,0.6l-0.3-2.175v-1.05a4.4,4.4,0,0,1,.15-1.5,14.522,14.522,0,0,1,.15-2.175c-3.9.375-6.749,0.525-8.549,0.525H498.94v-4.65c0-.825,0-2.025.15-3.675,0-1.65.15-3.6,0.3-5.85a32.266,32.266,0,0,1-3.6.375,31.007,31.007,0,0,1-3.75-.375l0.15,4.95c0.15,2.475.15,3.975,0.15,4.5v4.725h-12.6a77.811,77.811,0,0,1-7.95-.525l0.15,2.4a4.612,4.612,0,0,1,0,2.025c0,0.75-.15,1.575-0.15,2.475,4.05-.375,6.75-0.6,7.95-0.6h6.9c-1.05,3.6-1.95,6.9-2.85,9.825a64.125,64.125,0,0,1-4.95,10.8,39.037,39.037,0,0,1-8.1,10.5l-1.95,1.65V50.536a99.893,99.893,0,0,1,5.4-10.5l1.35-2.475a50.624,50.624,0,0,1-7.2-3.375l-0.75,2.625c-1.2,3.975-2.1,6.9-2.849,8.775s-1.95,4.2-3.3,6.975a61.7,61.7,0,0,1-4.5,7.275,58.2,58.2,0,0,1-4.8,5.4Zm28.949,18.3,1.95-2.85c0.45-.675,1.2-2.325,2.55-4.8,1.2-2.475,2.25-4.95,3.3-7.35a59.517,59.517,0,0,0,2.4-7.575c0.75-2.7,1.2-5.1,1.8-7.125l0.15,0.075V85.035l-6.3-.075A45.1,45.1,0,0,1,480.191,84.51Zm18.749,0.525V54.811h0.45l0.9,4.725c0.3,1.65.75,3.675,1.35,6s1.5,5.025,2.55,8.1a51.244,51.244,0,0,0,5.85,10.875,41.224,41.224,0,0,1-5.7.45Zm48.3-37.123,1.35,2.475a20.8,20.8,0,0,1,1.8,5.55l0.3,1.725a38.43,38.43,0,0,1,6.15-1.35l-3.9-10.125-2.4.975A13.2,13.2,0,0,1,547.241,47.911Zm21.749,7.95,3.3,1.275a16.143,16.143,0,0,1,2.1,1.125l5.1-9.9a38.478,38.478,0,0,1-5.85-2.4l-0.3,1.425a30.912,30.912,0,0,1-1.2,3.075,34.473,34.473,0,0,1-1.8,3.375Zm-33.3,19.5a59.06,59.06,0,0,1,8.249-.525h16.5v5.4H540.492c-2.85,0-6.45-.225-10.65-0.6l0.3,2.1v1.05a3.724,3.724,0,0,1-.15,1.35,9.366,9.366,0,0,1-.15,1.8c5.55-.375,9.15-0.525,10.65-0.525H585.34c2.1,0,5.7.15,10.949,0.525l-0.3-1.95V81.66c0-.375.15-1.05,0.3-2.025-4.35.375-7.949,0.6-10.949,0.6h-18.9v-5.4h15.9a83.73,83.73,0,0,1,8.849.525l-0.3-2.1V71.01c0.15-.525.15-1.2,0.3-2.1-4.349.375-7.349,0.6-8.849,0.6h-15.9v-5.4h15.75c1.65,0,4.2.15,7.8,0.45l-0.3-3.3-0.3-2.25V44.761c0-.525.15-1.275,0.15-2.4,0.15-1.125.3-2.325,0.45-3.675-3.3.3-5.85,0.45-7.8,0.45h-36.9q-3.15,0-7.649-.45l0.45,6.075V59.011a13.448,13.448,0,0,1-.15,2.85c0,0.525-.15,1.425-0.3,2.7q5.175-.45,7.649-0.45h15.15v5.4h-16.5c-0.45,0-3.149-.225-8.249-0.6l0.3,2.175v2.25Zm8.249-15.974V44.011h16.5V59.386h-16.5Zm22.5,0V44.011h16.95V59.386H566.44ZM578.29,90.06l1.2,1.05a23.171,23.171,0,0,1,2.25,2.325,19.563,19.563,0,0,1,2.55,2.775c0.45,0.75,1.2,1.8,1.95,3.225a17.8,17.8,0,0,1,1.5,3.075l0.75,1.8a34.257,34.257,0,0,1,7.349-3.975L585.04,87.21l-1.8.975A40.191,40.191,0,0,1,578.29,90.06Zm-7.95-1.725-1.65.825a39.969,39.969,0,0,1-4.5,1.5l1.2,1.575a33.632,33.632,0,0,1,3.149,5.25c0.9,1.875,1.35,3.075,1.65,3.6l0.6,2.25c2.25-.825,3.75-1.425,4.5-1.65,0.9-.225,1.95-0.375,3-0.6Zm-20.849,3,1.35,2.175a18.751,18.751,0,0,1,2.1,5.325c0.3,1.8.45,3.15,0.6,4.125v1.725a51.44,51.44,0,0,1,7.8-1.125l-4.95-13.724A32.818,32.818,0,0,1,549.491,91.334Zm-21.3,10.125a24.317,24.317,0,0,1,4.8,2.625,10.526,10.526,0,0,1,1.95,1.575l0.9-1.35,1.95-2.85,3.45-5.325c0.9-1.125,1.649-2.25,2.4-3.225l1.65-1.95-3-1.125c-0.45-.225-1.649-0.825-3.6-1.95l-0.75,1.65a43.513,43.513,0,0,1-2.25,4.275,23.491,23.491,0,0,1-6,6.525Zm73.05-35.249a12.1,12.1,0,0,1,3.15,3.225c0.6,0.9,1.05,1.875,1.65,2.925l0.6-.975c2.1-3.225,4.05-6.525,6-9.825V91.484c0,2.325-.15,4.425-0.15,6.3q-0.225,2.925-.45,7.425c1.65-.15,2.85-0.225,3.9-0.225a15.076,15.076,0,0,1,3.449.225l-0.45-5.175c-0.15-1.425-.15-3.375-0.15-5.925V89.535a14.833,14.833,0,0,1,3.6,1.875c0.45,0.525,1.05.975,1.5,1.425l1.2-1.425a68.132,68.132,0,0,0,4.8-6.45l0.3,1.8v2.175a18.435,18.435,0,0,0-.3,1.95c3.3-.225,5.4-0.375,6.45-0.375h6v9.675a50.538,50.538,0,0,0-.3,5.1,28.079,28.079,0,0,1,3.6-.3c0.6,0.075,1.8.15,3.75,0.3l-0.3-4.575c-0.15-2.25-.15-3.6-0.15-3.975V90.509h5.4a46.713,46.713,0,0,1,6.15.375l-0.3-2.4V84.66c1.8,2.55,3.45,4.875,5.1,7.05l1.049,1.2,2.55-2.325a29.778,29.778,0,0,1,4.35-3.15l-1.2-.75a26.5,26.5,0,0,1-5.25-4.65,36.626,36.626,0,0,1-5.849-8.175,40.461,40.461,0,0,1-3.9-9.225c-1.05-3.075-1.5-5.175-1.8-6.3a31.508,31.508,0,0,0-.6-3.525h8.25c1.2,0,4.049.225,8.549,0.6l-0.3-2.175v-1.05a4.4,4.4,0,0,1,.15-1.5,14.522,14.522,0,0,1,.15-2.175c-3.9.375-6.749,0.525-8.549,0.525H648.94v-4.65c0-.825,0-2.025.15-3.675,0-1.65.15-3.6,0.3-5.85a32.266,32.266,0,0,1-3.6.375,31.007,31.007,0,0,1-3.75-.375l0.15,4.95c0.15,2.475.15,3.975,0.15,4.5v4.725h-12.6a77.811,77.811,0,0,1-7.95-.525l0.15,2.4a4.612,4.612,0,0,1,0,2.025c0,0.75-.15,1.575-0.15,2.475,4.05-.375,6.75-0.6,7.95-0.6h6.9c-1.05,3.6-1.95,6.9-2.85,9.825a64.125,64.125,0,0,1-4.95,10.8,39.037,39.037,0,0,1-8.1,10.5l-1.95,1.65V50.536a99.893,99.893,0,0,1,5.4-10.5l1.35-2.475a50.624,50.624,0,0,1-7.2-3.375l-0.75,2.625c-1.2,3.975-2.1,6.9-2.849,8.775s-1.95,4.2-3.3,6.975a61.7,61.7,0,0,1-4.5,7.275,58.2,58.2,0,0,1-4.8,5.4Zm28.949,18.3,1.95-2.85c0.45-.675,1.2-2.325,2.55-4.8,1.2-2.475,2.25-4.95,3.3-7.35a59.517,59.517,0,0,0,2.4-7.575c0.75-2.7,1.2-5.1,1.8-7.125l0.15,0.075V85.035l-6.3-.075A45.1,45.1,0,0,1,630.191,84.51Zm18.749,0.525V54.811h0.45l0.9,4.725c0.3,1.65.75,3.675,1.35,6s1.5,5.025,2.55,8.1a51.244,51.244,0,0,0,5.85,10.875,41.224,41.224,0,0,1-5.7.45Z"/>
</svg>
