<svg xmlns="http://www.w3.org/2000/svg" width="900" height="140" viewBox="0 0 900 140">
  <defs>
    <style>
      .cls-1 {
        fill-rule: evenodd;
      }
    </style>
  </defs>
  <path id="破产字体楷体" class="cls-1" d="M267.215,36.437h0a5.5,5.5,0,0,0,.825,2.25,5.506,5.506,0,0,1,.9,2.55,30.317,30.317,0,0,1,1.05,6.45,46.221,46.221,0,0,1,0,6.45l-0.75.15c-1.95.3-3.749,0.45-5.474,0.6-1.725,0-3.45,0-5.325-.15a5.351,5.351,0,0,1-1.425-.15c-0.225-.15-0.15.225,0.375,1.2a50.743,50.743,0,0,1,0,20.174q-2.025,9.787-10.575,19.8a3.775,3.775,0,0,0,.975-0.3,1.051,1.051,0,0,0,.525-0.3c6.45-5.325,10.425-11.175,11.775-17.549a63.446,63.446,0,0,0,1.65-18.6V57.436c-0.075-.3.375-0.375,1.2-0.225,0.9-.075,1.8-0.075,2.625-0.225a12.883,12.883,0,0,0,2.774-.375,6.018,6.018,0,0,0,1.35-.3c0.375-.15.525,0.225,0.45,1.05-0.075,1.65-.15,3.225-0.3,4.8s-0.3,3.15-.45,4.875a6.767,6.767,0,0,1-2.849.975,24.4,24.4,0,0,0-2.85.525,0.916,0.916,0,0,0-.75.6,1.529,1.529,0,0,0,.9.675,7.4,7.4,0,0,0,1.35.6,4.411,4.411,0,0,0,1.575-.15l9.074-1.725a3.3,3.3,0,0,0,1.35-.15c0.075-.075.075,0.3,0,1.275-0.375,1.5-.75,2.925-1.2,4.275a24.338,24.338,0,0,1-1.5,4.5,9.186,9.186,0,0,0-.525,1.275c-0.075.225-.45,0-1.2-0.825l-6-4.95a3.3,3.3,0,0,0-2.025-1.05c-0.525.075-1.125,0.075-1.65,0.15-0.3.075-.375,0.225-0.15,0.3a4.526,4.526,0,0,1,.6.6l7.2,6.6a9.084,9.084,0,0,0,1.35,1.275c0.225,0.225,0,.675-0.675,1.5a31.4,31.4,0,0,1-7.124,5.85,37.141,37.141,0,0,1-7.05,3.075c-0.45,0-.6,0-0.525.075a1.306,1.306,0,0,0,.675.075,31.707,31.707,0,0,0,8.1-1.65,23.6,23.6,0,0,0,8.174-4.95,4.39,4.39,0,0,1,.975-1.05,13.952,13.952,0,0,1,.9,1.2c1.2,1.95,2.475,3.75,3.75,5.475a17,17,0,0,0,5.175,4.5c2.625-.075,5.025-0.225,7.424-0.45,2.25-.225,4.725-0.6,7.35-1.05a0.766,0.766,0,0,1,.525-0.3c0.15,0,0-.075-0.375-0.15a106.808,106.808,0,0,1-11.1-3.825,39.844,39.844,0,0,1-10.875-6.675c-0.6-.525-1.05-0.825-1.275-1.05a0.842,0.842,0,0,1,.15-1.125c0.825-2.1,1.5-3.975,2.1-5.7a24.011,24.011,0,0,1,3.15-5.325l2.025-1.875a5.019,5.019,0,0,0-2.25-2.4,3.6,3.6,0,0,0-2.85-.525l-4.95,1.125a9.229,9.229,0,0,1-1.575.3,2,2,0,0,1,.075-1.2c0.3-1.425.525-2.85,0.675-4.05,0.15-1.35.3-2.625,0.525-3.975a7.5,7.5,0,0,1,0-1.875c0.075-.375.6-0.6,1.575-0.75,1.05-.225,2.025-0.45,3-0.6a13.138,13.138,0,0,1,3-.3,9.791,9.791,0,0,1,1.275-.075c0.225,0,.225.45-0.075,1.275l-1.05,4.2h0.45a36.565,36.565,0,0,1,4.35-2.55,23.524,23.524,0,0,1,4.275-1.8,4.5,4.5,0,0,1,.975-0.6,1.439,1.439,0,0,0-.525-0.75,24.654,24.654,0,0,0-3.075-2.475,27.331,27.331,0,0,0-2.925-1.725c-1.8.6-3.525,1.2-5.025,1.725-1.575.525-3.225,1.125-4.95,1.65a1.905,1.905,0,0,0-.9.225c-0.225,0-.3-0.225-0.225-0.825,0.15-2.025.3-3.975,0.525-5.775a49.126,49.126,0,0,1,.75-5.55c0.6-2.25.075-3.75-1.65-4.5a10.112,10.112,0,0,0-5.1-.75,1.464,1.464,0,0,1-.525.075C267.215,35.912,267.141,36.062,267.215,36.437ZM250.941,49.786l-5.55,1.575c-1.05.225-3.074,0.6-6,1.125-3,.525-4.05,1.275-3.075,2.1a9.322,9.322,0,0,0,3.525.75,15.55,15.55,0,0,0,3.449-.45c0.45-.375.6-0.375,0.525-0.15a1.847,1.847,0,0,0-.075.9,124.112,124.112,0,0,1-6,16.424,84.186,84.186,0,0,1-9.825,16.2c-0.225.3-.3,0.45-0.225,0.525,0,0,.225-0.15.525-0.375a34.973,34.973,0,0,0,5.775-5.775,40,40,0,0,0,4.2-6.075c0.3-.525.45-0.6,0.525-0.375s0.15,0.525.225,0.825c0.3,1.65.525,3.225,0.675,4.8a12.135,12.135,0,0,0,1.65,4.875c0.375,0.375.6,0.525,0.75,0.3a4.994,4.994,0,0,0,.45-0.9l0.15-2.325,1.124-.45c1.425-.225,2.7-0.45,3.9-0.675a29.466,29.466,0,0,0,3.9-1.275c0.825-.225,1.275-0.525,1.2-0.975a3.563,3.563,0,0,0-.75-1.65c-0.675-.375-1.05-0.6-1.2-0.675s-0.15-.375,0-1.05a16.589,16.589,0,0,1,.9-3.225,9.989,9.989,0,0,1,1.575-3.075c1.125-1.125,1.425-1.8,1.05-1.875a13.266,13.266,0,0,1-2.175-1.35c-0.825-.375-1.35-0.6-1.65-0.75s-0.825.075-1.575,0.6a21.983,21.983,0,0,1-2.925,1.2,19,19,0,0,1-2.85.525c-0.375.15-.6,0.15-0.6-0.075a1.875,1.875,0,0,1,.374-0.6,28.759,28.759,0,0,1,2.025-5.4c0.75-1.65,1.65-3.375,2.625-5.175a3.525,3.525,0,0,0,.675-1.725,12.314,12.314,0,0,0-1.425-1.2,2.119,2.119,0,0,1-.75-0.9,3.663,3.663,0,0,1,1.05-.15c1.5-.45,2.925-0.75,4.275-1.05a19.6,19.6,0,0,0,4.35-1.125c0.825-.6,1.2-1.05,1.05-1.425a2.219,2.219,0,0,0-1.575-.6,7.435,7.435,0,0,0-2.175-.45A6.985,6.985,0,0,0,250.941,49.786Zm-1.65,20.174v0.9c-0.075,1.575-.225,3.15-0.3,4.575a25.175,25.175,0,0,1-.675,4.5c-0.975.375-1.95,0.675-2.775,1.05a10.194,10.194,0,0,1-2.625.525l-1.349-6.45-0.15-1.575c-0.075-.675-0.225-1.05-0.225-1.275-0.15-.225.3-0.375,1.125-0.6l5.249-1.35a5.933,5.933,0,0,0,.975-0.375C248.991,69.66,249.216,69.735,249.291,69.96Zm89.25-34.574h0a44.986,44.986,0,0,0,4.649,5.85c1.95,2.25,3.45,2.025,4.575-.45a7.854,7.854,0,0,0-.375-2.25,4.076,4.076,0,0,0-1.65-1.95,21.961,21.961,0,0,0-3.3-1.35c-1.049-.225-2.1-0.45-3.149-0.6a2.782,2.782,0,0,1-1.05-.15C338.016,34.412,338.166,34.712,338.541,35.387Zm18.3,7.05h0a134.177,134.177,0,0,1-16.649,3.525c-4.8.675-9.975,1.2-15.6,1.725-0.45.225-.6,0.525-0.375,0.825a2.709,2.709,0,0,0,.975.825c0.975,0.525,1.875.9,2.7,1.275a4.054,4.054,0,0,0,2.7.15l17.174-2.175a3.092,3.092,0,0,1,1.125-.3c0.225,0,.375.375,0.3,1.05a31.446,31.446,0,0,1-.9,7.65,25.347,25.347,0,0,1-3.45,7.725,90.039,90.039,0,0,1-10.5,1.425,20.741,20.741,0,0,1-10.425-1.875,1.305,1.305,0,0,0-1.275-.075c-0.3.15-.3,0.525-0.075,1.125a48.084,48.084,0,0,1-2.325,20.174c-2.175,6.525-6.974,12.975-14.4,19.5-0.375.225-.375,0.3,0,0.15s0.675-.225.9-0.3c7.95-3.975,13.349-9.075,16.124-15.449a53.5,53.5,0,0,0,4.5-19.574,11.167,11.167,0,0,1-.075-1.275c0.075-.225.525-0.225,1.425-0.15,6.675-.525,13.05-0.975,18.974-1.5,6-.525,12.3-1.2,18.975-2.175l0.6-.3a1.533,1.533,0,0,0,.975-0.975,0.914,0.914,0,0,0-.825-0.9,14.584,14.584,0,0,0-2.624-1.35,2.783,2.783,0,0,0-2.55.15c-2.475.375-4.8,0.825-7.05,1.2-2.1.45-4.425,0.9-6.825,1.275a2.606,2.606,0,0,0-.975.075c-0.15.075,0-.225,0.375-0.825a47.168,47.168,0,0,1,3.075-5.025c1.125-1.575,2.4-3.15,3.825-4.8a6.072,6.072,0,0,0,.975-1.425,4.3,4.3,0,0,0-.975-1.35,17.29,17.29,0,0,1-1.725-1.35,4.688,4.688,0,0,0-1.5-.975c-0.225-.3-0.3-0.45-0.15-0.525a0.846,0.846,0,0,1,.6.075c1.725-.375,3.375-0.6,4.95-0.825a35.112,35.112,0,0,1,4.95-.3c0.975-.15,1.5-0.525,1.5-0.975,0.15-.6-0.225-1.125-1.05-1.8a6.662,6.662,0,0,0-3.075-1.425A4.617,4.617,0,0,0,356.84,42.436Zm-24.6,10.95h0a21.8,21.8,0,0,0,2.475,4.95,40.584,40.584,0,0,0,3.525,4.275,2.237,2.237,0,0,0,1.2-1.275,8.313,8.313,0,0,0,.525-1.65c-0.375-2.325-1.275-3.9-2.7-4.8a13.627,13.627,0,0,0-5.025-2.025v0.525Zm75-17.1,0.15,0.6a15.268,15.268,0,0,0,2.7,3.45c1.05,1.05,2.175,2.1,3.45,3.15a4.826,4.826,0,0,0,2.025-1.65,1.91,1.91,0,0,0,0-2.325,8.367,8.367,0,0,0-3.375-3.3,7.558,7.558,0,0,0-3.75-.975,3.166,3.166,0,0,0-1.2,0C406.866,35.237,406.866,35.612,407.241,36.287Zm19.649,8.175h0c-6.075,1.125-11.849,2.025-17.1,2.775-5.4.75-10.95,1.35-16.8,1.8a1.874,1.874,0,0,0-.3-1.05,4.1,4.1,0,0,0-.674-1.05,1.947,1.947,0,0,1-.675-0.9c-0.075-.15-0.15.15-0.225,0.825a10.4,10.4,0,0,1-1.725,4.5,31.415,31.415,0,0,0-2.4,4.425,3.117,3.117,0,0,0,.525,3.15c0.75,0.75,1.725.6,3-.525a16.347,16.347,0,0,0,2.1-3.45,9.829,9.829,0,0,0,.824-3.15l7.8-1.5c4.875-.675,9.525-1.2,13.8-1.65,4.349-.45,9-0.9,13.874-1.275,0.45-.075.6,0,0.525,0.15a1.234,1.234,0,0,0-.075.75,30.557,30.557,0,0,0-1.275,2.85,10.462,10.462,0,0,1-1.5,2.85c-0.225.375-.375,0.675-0.45,0.75-0.15.075,0.075,0.075,0.75-.15a24.862,24.862,0,0,1,5.325-2.85,36.98,36.98,0,0,1,5.325-1.8c0.525-.15.825-0.3,1.05-0.375s0-.45-0.6-0.975a13.9,13.9,0,0,0-5.25-3.75,7.543,7.543,0,0,0-5.325-.525ZM415.266,55.336h0a38.611,38.611,0,0,1-8.775,2.55,48.561,48.561,0,0,1-7.725.675,2.322,2.322,0,0,0-1.425,1.125c-0.075.375,0.3,0.825,1.125,1.5a4.275,4.275,0,0,0,3.075,1.05c0.9-.15,1.95-0.375,3.075-0.6,1.95-.825,3.75-1.65,5.325-2.25a29.3,29.3,0,0,1,5.325-1.575,4.168,4.168,0,0,1,1.125-.225,1.136,1.136,0,0,1-.075,1.125,40.691,40.691,0,0,1-1.275,3.975c-0.6,1.2-1.125,2.55-1.8,3.9a11.784,11.784,0,0,0-.675,1.275,5.022,5.022,0,0,1-1.2-.525l-2.775-1.05c-0.525-.075-0.675,0-0.45.15a6.132,6.132,0,0,0,.675.6,22.028,22.028,0,0,1,1.875,2.625,13.633,13.633,0,0,1,1.35,2.775l-0.975.45c-5.325.825-10.275,1.5-14.85,1.95-4.574.525-9.449,1.05-14.474,1.725-0.675.225-.975,0.45-0.975,0.825a1.526,1.526,0,0,0,.975,1.05,27.274,27.274,0,0,0,2.85,1.5,3.418,3.418,0,0,0,2.85,0c4.35-1.2,8.4-2.175,12.3-2.925,3.75-.75,7.875-1.425,12.15-1.95a7.081,7.081,0,0,0,1.05-.075c0.15-.15.225,0.15,0.3,0.825,0.375,3.525.6,6.9,0.675,10.275a19.079,19.079,0,0,1-2.85,10.275,10.325,10.325,0,0,1-4.575.225c-1.575-.15-3.075-0.375-4.35-0.525a1.462,1.462,0,0,1-.6-0.075c-0.225,0-.075.15,0.3,0.525a29,29,0,0,1,4.125,2.85q2.025,1.687,4.05,3.6c0.825,1.05,1.575,1.35,2.025.975a16.564,16.564,0,0,0,2.1-1.725,26.012,26.012,0,0,0,3.449-13.275c-0.15-4.275-.449-8.7-0.824-13.124a2.269,2.269,0,0,1-.15-1.125c0.075-.225.375-0.225,1.049-0.15,3.975-.225,7.8-0.225,11.325-0.15,3.6,0.075,7.35.3,11.325,0.6a3.579,3.579,0,0,0,2.1-1.65c0.225-.525-0.3-1.275-1.5-2.175a12.794,12.794,0,0,0-2.175-1.2,3.148,3.148,0,0,0-2.175-.15q-5.287.338-9.9,0.675c-3.075.3-6.225,0.75-9.6,1.275-1.2.075-1.8,0.075-1.875-.075a5.964,5.964,0,0,0-.9-1.725c-0.525-.525-0.75-0.9-0.6-0.975,0.075-.15.375-0.525,0.75-1.05a19.754,19.754,0,0,1,4.2-4.725,23.831,23.831,0,0,1,5.025-3.075,0.779,0.779,0,0,0,.525-0.375,2.1,2.1,0,0,0-.375-0.6,12.923,12.923,0,0,0-4.725-3.525A5.389,5.389,0,0,0,415.266,55.336Zm72.975-15.524,0.15,0.825c0.6,2.775,1.05,5.475,1.35,7.95a54.779,54.779,0,0,1,.525,8.025l-1.125.3c-2.325.375-4.5,0.675-6.45,0.825-2.1.3-4.125,0.6-6.3,1.125-0.525.075-.75,0.225-0.75,0.525a6.833,6.833,0,0,0,.75.75,12.808,12.808,0,0,0,1.725.9,2.882,2.882,0,0,0,1.8.15,29.163,29.163,0,0,0,3.825-.6,26.411,26.411,0,0,0,3.9-.9,3.658,3.658,0,0,1,.825-0.3,1.577,1.577,0,0,1-.225.9,57.774,57.774,0,0,1-5.475,11.474,67.656,67.656,0,0,1-9.3,11.4,3.947,3.947,0,0,0-1.05.9c-0.3.375-.075,0.375,0.6,0a46.1,46.1,0,0,0,10.275-8.925,35.539,35.539,0,0,0,6.3-10.425c-0.075-.375-0.075-0.6,0-0.525a0.976,0.976,0,0,1,.225.675c0.075,2.775.15,5.475,0.075,8.025,0,2.475,0,5.175.075,8.1a14.318,14.318,0,0,0-.15,1.5c0,0.45-.45.675-1.275,0.675l-6.45,1.275c-0.9.3-1.35,0.6-1.2,0.9a2.077,2.077,0,0,0,1.35,1.05,4.377,4.377,0,0,0,3.225.3c1.125-.3,2.175-0.525,3.225-0.75a3.238,3.238,0,0,1,1.05-.3,1.51,1.51,0,0,1,.075,1.05c-0.075,1.575-.15,3.075-0.3,4.5s-0.375,3-.675,4.575a9.374,9.374,0,0,0,.45,3.225,4.279,4.279,0,0,0,2.025,2.775,0.84,0.84,0,0,0,.9-0.6,5.838,5.838,0,0,0,.449-1.125,50.276,50.276,0,0,0,.3-6.6c-0.075-2.025,0-4.125.075-6.3a6.073,6.073,0,0,1-.15-1.8c0.075-.225.6-0.375,1.65-0.45,0.975-.15,1.95-0.3,2.85-0.45a24.276,24.276,0,0,0,3-.675c1.2-.675,1.65-1.2,1.5-1.575a2.958,2.958,0,0,0-1.95-.825,9.165,9.165,0,0,0-2.85.225,17.768,17.768,0,0,0-2.7.675,3.292,3.292,0,0,0-1.35.225c-0.225,0-.225-0.3-0.15-1.125V63.511a2.89,2.89,0,0,1,0-1.2c0.075-.15.3,0.15,0.75,0.9,2.625,3.975,5.025,7.875,7.2,11.775a34.267,34.267,0,0,0,9.675,10.8,16.216,16.216,0,0,0,5.025.3,51.1,51.1,0,0,0,5.1-1.05c0.45-.15.75-0.225,1.05-0.3,0.15,0-.075-0.15-0.75-0.375a53.577,53.577,0,0,1-15.749-9.9,58.231,58.231,0,0,1-11.7-14.924c-0.375-.525-0.6-0.825-0.45-0.9a1.9,1.9,0,0,1,.9-0.225q4.162-.45,7.875-0.675c2.475-.225,5.025-0.45,7.8-0.825,0.675-.375,1.05-0.75.975-1.125a2.174,2.174,0,0,0-1.125-1.05,4.4,4.4,0,0,0-1.575-.9,2.5,2.5,0,0,0-1.5,0l-12,2.25c-0.675.075-1.05,0.15-1.35,0.15-0.15,0-.225-0.375-0.15-1.05a47.619,47.619,0,0,1,.3-5.85,42.036,42.036,0,0,1,1.05-5.55,3.054,3.054,0,0,0-1.35-3.9,6.022,6.022,0,0,0-4.049-.975Zm-18,2.775h0a81.979,81.979,0,0,1-5.849,15.674c-2.475,5.025-6.45,10.2-11.775,15.674a54.476,54.476,0,0,0,7.5-5.4,59.511,59.511,0,0,0,6.6-7.05c0.225-.45.3-0.6,0.375-0.45a3.444,3.444,0,0,0,.075.75,83.549,83.549,0,0,1,.225,14.924,70.627,70.627,0,0,1-2.7,14.924,6.648,6.648,0,0,0-.15,2.7,8.652,8.652,0,0,0,1.125,2.7,2.969,2.969,0,0,0,1.65,1.275c0.374,0,.824-0.45,1.274-1.425,0.75-6,1.275-11.625,1.65-16.874,0.3-5.25.525-10.725,0.6-16.349a7.941,7.941,0,0,0-.375-2.325,6.509,6.509,0,0,0-1.725-2.175,3.422,3.422,0,0,1,.825-1.95c0.6-.9,1.05-1.65,1.425-2.175a37.7,37.7,0,0,0,1.95-3.9c0.6-1.125,1.2-2.325,1.95-3.6a3.9,3.9,0,0,0,0-4.05,5.657,5.657,0,0,0-3.675-2.25,0.573,0.573,0,0,0-.75.45Zm73.8-4.875h0a23.566,23.566,0,0,1,2.25,7.65c0.225,2.625.375,5.175,0.375,7.65v2.025c0.075,0.975-.075,1.575-0.375,1.725a5.8,5.8,0,0,1-1.8.45c-2.174.45-4.124,0.825-6,1.125-1.8.3-3.675,0.6-5.7,0.975-0.525.075-.75,0.225-0.75,0.45a1.206,1.206,0,0,0,.75.825,11.365,11.365,0,0,0,1.875.975,3.582,3.582,0,0,0,2.025.075q2.137-.337,4.05-0.675c1.275-.225,2.624-0.45,4.049-0.825a7.558,7.558,0,0,0,1.35-.3,6.4,6.4,0,0,1-.3,1.35,99.573,99.573,0,0,1-6.3,12.3,67.813,67.813,0,0,1-9.225,12l-1.35,1.35,1.35-.75a49.315,49.315,0,0,0,9.375-8.025,45.8,45.8,0,0,0,6.524-9.375c0.225-.525.375-0.675,0.375-0.375a3.651,3.651,0,0,0,.075.9c-0.225,4.425-.6,8.55-0.975,12.45-0.45,3.9-1.05,8.025-1.8,12.45a6.421,6.421,0,0,0,0,2.925,12.536,12.536,0,0,0,1.2,3q1.012,1.462,1.8,1.35c0.525,0,.975-0.525,1.275-1.65,0.525-5.4.75-10.425,0.825-15.149s0-9.6-.075-14.774a6.35,6.35,0,0,1-.075-0.975c0-.15.3,0,0.9,0.525l3.525,2.925c1.125,1.275,2.025,1.425,2.775.45a2.379,2.379,0,0,0-.15-2.925,10,10,0,0,0-2.85-1.8,12.384,12.384,0,0,0-2.7-.825,3.333,3.333,0,0,0-1.35-.15c-0.3,0-.225-0.375.075-1.2l0.225-6.15a8.608,8.608,0,0,1,3.45-.75,12.877,12.877,0,0,0,3.6-.975,0.987,0.987,0,0,0,.9-0.975,1.208,1.208,0,0,0-1.05-.9,3.7,3.7,0,0,0-2.7-.45q-1.237.225-2.7,0.45c-0.75.075-1.2,0.15-1.35,0.15-0.225.075-.225-0.3-0.15-1.05,0-2.325.15-4.5,0.3-6.6a35.245,35.245,0,0,1,1.35-6.3c0.675-1.95.3-3.375-1.2-4.2a8.667,8.667,0,0,0-4.35-1.5,1.182,1.182,0,0,0-1.05.15A2.389,2.389,0,0,0,544.041,37.712Zm31.349,0.75h0a39.748,39.748,0,0,1,1.35,15.374c-0.525,5.55,2.025,9.45,7.725,11.775a44.661,44.661,0,0,0,5.475.075,29.551,29.551,0,0,0,5.4-.825c0.825-.225,1.425-0.3,1.725-0.375s0.375-.6.3-1.575c-0.075-1.725-.225-3.225-0.375-4.725-0.225-1.35-.525-2.925-0.9-4.5a6.806,6.806,0,0,0-.45-1.2c-0.15-.075-0.225.3-0.3,1.2-0.675,3.675-1.725,6.3-3.3,7.8q-2.361,2.363-7.874.9a7.351,7.351,0,0,1-4.35-4.5,8.592,8.592,0,0,1-.15-5.475l4.95-1.65c1.35-.525,2.7-0.975,3.975-1.425,1.275-.525,2.625-1.125,3.974-1.8,0.9-.375,1.275-0.75,1.275-1.2a4.552,4.552,0,0,0-1.125-1.725,3.452,3.452,0,0,0-1.724-1.2c-0.45-.15-0.975.225-1.35,1.05a21.893,21.893,0,0,1-4.35,3.75,17.589,17.589,0,0,1-4.2,2.25c-0.525.225-.975,0.375-1.275,0.525s-0.375-.15-0.3-0.9a28.942,28.942,0,0,1,.3-4.5,30.668,30.668,0,0,1,.975-4.2c0.6-1.425.3-2.4-.9-3.075a7.343,7.343,0,0,0-3.45-.975,1.125,1.125,0,0,0-.9.45A3.8,3.8,0,0,1,575.39,38.462Zm-15.824,6.15,0.3,0.9a36.772,36.772,0,0,1,2.025,10.5,12.3,12.3,0,0,1-3.6,9.825l0.15,0.75c0.15,0.525.3,1.05,0.45,1.5a6,6,0,0,0,.975,1.575c0,0.375.15,0.375,0.375,0.075a5.47,5.47,0,0,1,.825-0.675,55.878,55.878,0,0,1,4.8-5.325c1.65-1.65,3.374-3.3,5.249-5.025l1.35-1.05c0.3-.45.225-0.525-0.075-0.375a8.638,8.638,0,0,0-.825.525c-1.275.525-2.4,1.125-3.525,1.65a15.6,15.6,0,0,0-3.449,2.175,2.19,2.19,0,0,1-1.05.375c0-.075.075-0.3,0.15-0.825a28.786,28.786,0,0,0,.45-3.3c0.15-.9.225-1.95,0.3-3a4.465,4.465,0,0,1,0-1.5c0-.225.45-0.225,1.425-0.15,1.05-.075,2.024-0.15,3-0.3a10.984,10.984,0,0,0,3-.525,3.129,3.129,0,0,0,1.275-2.025c-0.15-.525-0.675-0.9-1.725-1.05a6.577,6.577,0,0,0-2.925.375,17.127,17.127,0,0,1-2.774.9,3.155,3.155,0,0,1-1.275.375,2.671,2.671,0,0,1,0-1.2l0.825-3.525a3.541,3.541,0,0,0-1.725-2.025,9.156,9.156,0,0,0-2.475-.75,3.578,3.578,0,0,0-1.275,0Q559.454,43.6,559.566,44.611Zm11.849,21.674h0a8.212,8.212,0,0,1-1.875,3.9c-0.975,1.2-2.024,2.4-3.074,3.6a2.435,2.435,0,0,1-1.875,1.425,3.151,3.151,0,0,1-2.25-.375c-0.375-.225-0.6-0.225-0.525-0.075a1.881,1.881,0,0,0,.375.6,31.681,31.681,0,0,1,1.65,11.1,33.969,33.969,0,0,0,1.275,11.025c0.225,0.525.375,0.9,0.45,1.05s0.375-.075,1.05-0.75a10.623,10.623,0,0,1,.525-1.65,4.393,4.393,0,0,0,.224-1.425,10.576,10.576,0,0,0-.3-1.275c-0.074-.3.3-0.375,1.125-0.3l9.825-.75a8.167,8.167,0,0,0,1.425-.075c0.375-.075.6,0.375,0.675,1.275l1.875,5.85c0.675,1.275,1.125,1.8,1.35,1.65a23.491,23.491,0,0,0,1.725-1.95,16.287,16.287,0,0,0,1.725-6.45,59.353,59.353,0,0,0-.15-6.3,34.127,34.127,0,0,1-.225-5.475,12.277,12.277,0,0,1,1.275-5.25,2.383,2.383,0,0,1,.6-0.975,1.394,1.394,0,0,0-.45-0.9,17.33,17.33,0,0,0-3.675-2.325,3.726,3.726,0,0,0-3.525.3c-2.325.675-4.425,1.2-6.45,1.725s-4.125.975-6.3,1.35a0.964,0.964,0,0,0-.525-0.075c-0.224,0-.224-0.15.151-0.375a20.012,20.012,0,0,1,3.674-3.15,38.907,38.907,0,0,1,3.75-2.325c1.2-.375,1.65-0.825,1.275-1.425a4.983,4.983,0,0,0-1.875-1.5,2.493,2.493,0,0,0-1.8-.6A1.385,1.385,0,0,0,571.415,66.285Zm9.825,8.25h0a3.112,3.112,0,0,1,.9,0,8.506,8.506,0,0,1,.15,1.425l0.45,15.224c0.075,0.825-.075,1.125-0.3,1.05a8.4,8.4,0,0,1-1.35-.6,17.768,17.768,0,0,1-1.8-1.2c-0.375-.3-0.975-0.3-1.95.075l-8.85,1.275a3.166,3.166,0,0,0-1.2,0c-0.149.15-.3-0.225-0.225-0.9v-4.2a9.8,9.8,0,0,0-.074-1.725q-0.112-.45,1.349-0.225a19.1,19.1,0,0,0,4.8-.6,27.946,27.946,0,0,0,4.725-1.875,1.57,1.57,0,0,0,.6-0.975c0-.225-0.225-0.375-0.75-0.45a6.615,6.615,0,0,0-2.175-.45,2.907,2.907,0,0,0-2.025.9c-0.975.375-1.8,0.6-2.475,0.9-0.75.15-1.575,0.45-2.4,0.675a3.613,3.613,0,0,0-1.275,0c-0.374.075-.524-0.15-0.449-0.75l-0.3-5.1,8.474-1.65Zm57-34.724,0.15,0.825c0.6,2.775,1.05,5.475,1.35,7.95a54.779,54.779,0,0,1,.525,8.025l-1.125.3c-2.325.375-4.5,0.675-6.45,0.825-2.1.3-4.125,0.6-6.3,1.125-0.525.075-.75,0.225-0.75,0.525a6.833,6.833,0,0,0,.75.75,12.808,12.808,0,0,0,1.725.9,2.882,2.882,0,0,0,1.8.15,29.163,29.163,0,0,0,3.825-.6,26.411,26.411,0,0,0,3.9-.9,3.658,3.658,0,0,1,.825-0.3,1.577,1.577,0,0,1-.225.9,57.774,57.774,0,0,1-5.475,11.474,67.656,67.656,0,0,1-9.3,11.4,3.947,3.947,0,0,0-1.05.9c-0.3.375-.075,0.375,0.6,0a46.1,46.1,0,0,0,10.275-8.925,35.539,35.539,0,0,0,6.3-10.425c-0.075-.375-0.075-0.6,0-0.525a0.976,0.976,0,0,1,.225.675c0.075,2.775.15,5.475,0.075,8.025,0,2.475,0,5.175.075,8.1a14.318,14.318,0,0,0-.15,1.5c0,0.45-.45.675-1.275,0.675l-6.45,1.275c-0.9.3-1.35,0.6-1.2,0.9a2.077,2.077,0,0,0,1.35,1.05,4.377,4.377,0,0,0,3.225.3c1.125-.3,2.175-0.525,3.225-0.75a3.238,3.238,0,0,1,1.05-.3,1.51,1.51,0,0,1,.075,1.05c-0.075,1.575-.15,3.075-0.3,4.5s-0.375,3-.675,4.575a9.374,9.374,0,0,0,.45,3.225,4.279,4.279,0,0,0,2.025,2.775,0.84,0.84,0,0,0,.9-0.6,5.838,5.838,0,0,0,.449-1.125,50.276,50.276,0,0,0,.3-6.6c-0.075-2.025,0-4.125.075-6.3a6.073,6.073,0,0,1-.15-1.8c0.075-.225.6-0.375,1.65-0.45,0.975-.15,1.95-0.3,2.85-0.45a24.276,24.276,0,0,0,3-.675c1.2-.675,1.65-1.2,1.5-1.575a2.958,2.958,0,0,0-1.95-.825,9.165,9.165,0,0,0-2.85.225,17.768,17.768,0,0,0-2.7.675,3.292,3.292,0,0,0-1.35.225c-0.225,0-.225-0.3-0.15-1.125V63.511a2.89,2.89,0,0,1,0-1.2c0.075-.15.3,0.15,0.75,0.9,2.625,3.975,5.025,7.875,7.2,11.775a34.267,34.267,0,0,0,9.675,10.8,16.216,16.216,0,0,0,5.025.3,51.1,51.1,0,0,0,5.1-1.05c0.45-.15.75-0.225,1.05-0.3,0.15,0-.075-0.15-0.75-0.375a53.577,53.577,0,0,1-15.749-9.9,58.231,58.231,0,0,1-11.7-14.924c-0.375-.525-0.6-0.825-0.45-0.9a1.9,1.9,0,0,1,.9-0.225q4.162-.45,7.875-0.675c2.475-.225,5.025-0.45,7.8-0.825,0.675-.375,1.05-0.75.975-1.125a2.174,2.174,0,0,0-1.125-1.05,4.4,4.4,0,0,0-1.575-.9,2.5,2.5,0,0,0-1.5,0l-12,2.25c-0.675.075-1.05,0.15-1.35,0.15-0.15,0-.225-0.375-0.15-1.05a47.619,47.619,0,0,1,.3-5.85,42.036,42.036,0,0,1,1.05-5.55,3.054,3.054,0,0,0-1.35-3.9,6.022,6.022,0,0,0-4.049-.975Zm-18,2.775h0a81.979,81.979,0,0,1-5.849,15.674c-2.475,5.025-6.45,10.2-11.775,15.674a54.476,54.476,0,0,0,7.5-5.4,59.511,59.511,0,0,0,6.6-7.05c0.225-.45.3-0.6,0.375-0.45a3.444,3.444,0,0,0,.075.75,83.549,83.549,0,0,1,.225,14.924,70.627,70.627,0,0,1-2.7,14.924,6.648,6.648,0,0,0-.15,2.7,8.652,8.652,0,0,0,1.125,2.7,2.969,2.969,0,0,0,1.65,1.275c0.374,0,.824-0.45,1.274-1.425,0.75-6,1.275-11.625,1.65-16.874,0.3-5.25.525-10.725,0.6-16.349a7.941,7.941,0,0,0-.375-2.325,6.509,6.509,0,0,0-1.725-2.175,3.422,3.422,0,0,1,.825-1.95c0.6-.9,1.05-1.65,1.425-2.175a37.7,37.7,0,0,0,1.95-3.9c0.6-1.125,1.2-2.325,1.95-3.6a3.9,3.9,0,0,0,0-4.05,5.657,5.657,0,0,0-3.675-2.25,0.573,0.573,0,0,0-.75.45Z"/>
</svg>
