<svg xmlns="http://www.w3.org/2000/svg" width="900" height="140" viewBox="0 0 900 140">
  <defs>
    <style>
      .cls-1 {
        fill-rule: evenodd;
      }
    </style>
  </defs>
  <path id="全字庫正楷體" class="cls-1" d="M255.837,47.334a64.386,64.386,0,0,1-3.882,5.347q-3.224,4.1-5.933,6.958a66.47,66.47,0,0,1-5.566,5.127q-2.784,2.2-4.468,3.369l-3.3,2.27-1.977,1.318a1.373,1.373,0,0,0-.733.879,0.292,0.292,0,0,0,.074.22,0.337,0.337,0,0,0,.366.22,1.193,1.193,0,0,0,.366-0.073l1.978-.879q1.1-.439,3.955-1.9,2.928-1.464,5.713-3.149a36.248,36.248,0,0,0,6.152-4.761,56.687,56.687,0,0,0,5.64-5.859q2.416-2.856,3.662-4.687,1.243-1.758,2.636-3.955l4.395,4.907,4.687,5.273,5.274,6.006q1.17,1.246,3.149,3a16.012,16.012,0,0,0,3.15,2.27,7.314,7.314,0,0,0,2.929.513h0.806a28.223,28.223,0,0,0,3.589-.293q2.928-.366,3.589-0.513c0.487-.1.9-0.194,1.245-0.293l1.538-.513a1.057,1.057,0,0,0,.952-0.733V67.329A1.118,1.118,0,0,0,294.8,66.6l-1.758-.513q-2.784-.731-4.1-1.172T285.061,63.3q-2.565-1.171-4.981-2.49a32.7,32.7,0,0,1-3.882-2.417,43.5,43.5,0,0,1-3.515-2.856q-1.979-1.61-3.736-3.3t-4.394-4.468q-2.565-2.709-3.736-3.735a11.353,11.353,0,0,0-1.831-1.538,14.569,14.569,0,0,0-1.538-.732,10.768,10.768,0,0,0-1.611-.586q-0.733-.146-2.051-0.293a17.728,17.728,0,0,0-1.9-.147l-1.245.366a0.969,0.969,0,0,0-.806.659v0.146a0.7,0.7,0,0,0,.44.659,2.259,2.259,0,0,0,1.025.22q0.659,0,1.684.073a7.834,7.834,0,0,1,1.832.44,8.863,8.863,0,0,1,1.318.586,12.788,12.788,0,0,0,1.1.806ZM256.716,92.3L239.8,93.623l-1.685.146a2.523,2.523,0,0,0-1.025.293,0.554,0.554,0,0,0-.073.22,1.321,1.321,0,0,0,.219.659,8.041,8.041,0,0,0,2.124,1.318,18.51,18.51,0,0,0,2.271,1.025,5.152,5.152,0,0,0,1.465.146,13.87,13.87,0,0,0,2.783-.586,38.336,38.336,0,0,1,5.859-.952l6.592-.659a45.046,45.046,0,0,1,4.541-.293l15.088-.22a22.35,22.35,0,0,0,4.981-.366,0.914,0.914,0,0,0,.732-0.659,2.11,2.11,0,0,0-.44-1.025,5.566,5.566,0,0,0-1.9-1.245,17.671,17.671,0,0,0-2.563-.879,9.05,9.05,0,0,0-1.831-.293,7.733,7.733,0,0,0-1.026.22q-0.879.146-3.662,0.366l-11.572,1.1,0.439-10.107,7.178-.733a8.168,8.168,0,0,0,3.15-.586,1.015,1.015,0,0,0,.512-0.806V79.634a1.556,1.556,0,0,0-1.025-.879,13.241,13.241,0,0,0-2.564-.806,11.285,11.285,0,0,0-2.124-.293,12.791,12.791,0,0,0-1.758.147l-3.295.659,0.219-3.076a11.413,11.413,0,0,1,.367-2.563,7.547,7.547,0,0,0,.146-1.245v-0.22a1.35,1.35,0,0,0-.513-0.806,3.408,3.408,0,0,0-1.025-.659l10.4-1.245q1.39-.146,1.392-0.659V67.842a1.067,1.067,0,0,0-.513-0.879,6.418,6.418,0,0,0-1.245-.732,6.7,6.7,0,0,0-1.391-.44c-0.538-.048-0.978-0.073-1.319-0.073q-0.44.074-1.758,0.366a35.02,35.02,0,0,1-3.515.513l-14.5,1.538-1.319.146q-1.245,0-1.318.293v0.146a1.234,1.234,0,0,0,.439.659,4.443,4.443,0,0,0,2.051.952,12.3,12.3,0,0,0,2.2.293l5.126-.439,0.44,1.1a5.828,5.828,0,0,1,.586,2.124q0.145,1.318.22,2.564,0.072,1.318.073,3l-8.057,1.1a6.377,6.377,0,0,0-2.051.439,0.669,0.669,0,0,0-.439.513,1.167,1.167,0,0,0,.513.732A6.294,6.294,0,0,0,248,82.49a9.66,9.66,0,0,0,2.49.293,5.757,5.757,0,0,0,.952.073q0.587,0,1.319-.073,1.391-.146,3.735-0.439ZM328.493,74.58q-6.445.733-8.056,0.879l-5.567.366q-2.93.294-3.369,0.293l-2.856.146a1.18,1.18,0,0,0-.953.439v0.147a2.323,2.323,0,0,0,.733,1.172,7.33,7.33,0,0,0,2.856,1.538,11.89,11.89,0,0,0,2.637.586,7.829,7.829,0,0,0,1.9-.44,37.089,37.089,0,0,1,4.029-.732l5.639-.806q3.588-.511,5.933-0.732L336.184,77l-0.074,6.811q0,1.686-.146,3.589t-0.293,3.223a10.372,10.372,0,0,1-.586,2.49,3.576,3.576,0,0,1-.732,1.318,1.039,1.039,0,0,1-.44.073,3.5,3.5,0,0,1-1.025-.22L331.2,93.77l-2.124-.732-1.318-.366a3.132,3.132,0,0,0-.586-0.073,0.464,0.464,0,0,0-.44.146v0.147a1.367,1.367,0,0,0,.586.879l1.319,1.172q0.8,0.805,1.9,2.051a18.993,18.993,0,0,1,1.611,1.758q0.512,0.585,1.465,1.9a2.794,2.794,0,0,0,1.392,1.319h0.219a2.153,2.153,0,0,0,1.172-.586,7.475,7.475,0,0,0,1.758-2.051,13.14,13.14,0,0,0,1.172-2.93,19.659,19.659,0,0,0,.659-3.516q0.22-2.051.293-4.614,0.072-2.637.073-4.541l-0.293-7.1,6.446-.293L352,76.265q4.174-.146,4.907-0.146l4.981,0.146,3.222-.146a11.066,11.066,0,0,0,1.905-.293,1.205,1.205,0,0,0,.878-0.659,1.469,1.469,0,0,0-.439-0.806,12.092,12.092,0,0,0-1.685-1.172,11.633,11.633,0,0,0-2.49-1.1,9.179,9.179,0,0,0-2.27-.586,23.227,23.227,0,0,0-2.491.22l-4.541.513q-2.784.367-2.929,0.366l-4.907.366-6.08.586-0.146-1.9a3.037,3.037,0,0,0-.44-1.538,5.437,5.437,0,0,0-.878-1.1l6.591-4.834q1.539-1.025,2.491-1.538l2.563-1.1a2.506,2.506,0,0,0,.952-1.025V60.371a2.169,2.169,0,0,0-.586-1.245,10.66,10.66,0,0,0-2.343-1.9,9.194,9.194,0,0,0-2.784-1.392,5.615,5.615,0,0,0-1.464-.22h-0.293q-0.294.074-1.319,0.439t-3.515,1.025l-3.37.879-3.808.806q-1.612.294-3.955,0.586-2.346.22-2.93,0.293h-1.392a1.615,1.615,0,0,0-.952.366,1.7,1.7,0,0,0,.22.659,2.8,2.8,0,0,0,1.025.952,11.308,11.308,0,0,0,1.465.806,3.519,3.519,0,0,0,1.245.22h0.293a1.614,1.614,0,0,0,.513-0.073q0.366-.072,2.124-0.586l4.761-1.1,5.859-1.245q1.539-.292,1.978-0.366a0.786,0.786,0,0,1,.732.366,0.664,0.664,0,0,1,.073.293,2.134,2.134,0,0,1-.439,1.1q-0.66.953-1.611,2.2-1.028,1.318-1.392,1.831L336.7,68.135l-2.2-.733a1.137,1.137,0,0,0-.439-0.146,0.492,0.492,0,0,0-.44.22,0.706,0.706,0,0,0-.22.513,0.632,0.632,0,0,0,.074.293,5.067,5.067,0,0,0,.732,1.1,5.859,5.859,0,0,1,.952,1.465,10.316,10.316,0,0,1,.513,1.318,12.862,12.862,0,0,1,.293,1.685Zm0.147-26.221-6.885.586-3.3.073-0.22-1.318a2.676,2.676,0,0,0-.512-1.392,1.172,1.172,0,0,0-.806-0.659h-0.073a1.075,1.075,0,0,0-.66.659,8.953,8.953,0,0,0-.585,1.831,16.8,16.8,0,0,1-.879,2.344,13.315,13.315,0,0,1-1.392,2.49,7.76,7.76,0,0,0-1.1,1.978,5.1,5.1,0,0,0-.219,1.465v0.366a3.738,3.738,0,0,0,.586,1.758,1.574,1.574,0,0,0,1.391.806,2.111,2.111,0,0,0,1.465-.732,8.9,8.9,0,0,0,1.465-2.344,19.852,19.852,0,0,0,1.172-2.417q0.291-.805.586-1.758l1.172,0.073h1.464a15.3,15.3,0,0,0,2.637-.366L329.006,51l5.786-.879q2.637-.292,7.764-0.952,5.2-.659,7.763-0.952,2.637-.366,3.809-0.439a2.76,2.76,0,0,1,1.245.293,1.1,1.1,0,0,1,.659.732v0.147a2.145,2.145,0,0,1-.586,1.172q-0.587.733-1.245,1.685l-0.952,1.392-0.879,1.245a2.366,2.366,0,0,0-.513,1.025v0.073a0.5,0.5,0,0,0,.367.146,1.678,1.678,0,0,0,.586-0.146l2.783-1.025q1.464-.512,3.515-1.025l2.71-.586,2.124-.22a2.372,2.372,0,0,0,1.612-.513,0.907,0.907,0,0,0,.146-0.513,2.431,2.431,0,0,0-.146-0.732,5.235,5.235,0,0,0-1.172-1.831,29.686,29.686,0,0,0-2.417-2.27,15.58,15.58,0,0,0-2.637-1.9,3.412,3.412,0,0,0-1.758-.586h-0.146q-0.294.074-1.245,0.366a20.717,20.717,0,0,1-3.516.732l-2.93.439-9.887,1.245,0.512-1.172a4.1,4.1,0,0,0,.293-1.538,5.429,5.429,0,0,0-.073-0.879,7.468,7.468,0,0,0-.952-2.051,5.943,5.943,0,0,0-1.9-1.9,20.946,20.946,0,0,0-2.491-1.465,4.722,4.722,0,0,0-2.05-.586h-0.147a0.865,0.865,0,0,0-.732.22,0.581,0.581,0,0,0-.073.366,4.374,4.374,0,0,0,.073.659,22.924,22.924,0,0,0,.879,2.417l1.318,2.93a14.19,14.19,0,0,0,1.245,1.9,18.474,18.474,0,0,0,1.392,1.538Zm85.986-.586a0.3,0.3,0,0,0-.147.293,1.379,1.379,0,0,0,.074.439,7.482,7.482,0,0,0,.512,1.465,8.409,8.409,0,0,1,.586,1.9l0.367,2.856-0.147-.073-8.789,1.172-1.1.146a0.984,0.984,0,0,0-.805.22,0.3,0.3,0,0,0-.074.22,1.2,1.2,0,0,0,.074.366,2.036,2.036,0,0,0,.879.806c0.439,0.2.853,0.366,1.245,0.513a3.309,3.309,0,0,0,1.172.22q0.585,0,1.611-.073l6.006-.659v4.541l-9.668,1.1-2.344-.366a4.089,4.089,0,0,1-.806-0.073,0.789,0.789,0,0,0-.585.22,0.759,0.759,0,0,0-.22.659,2.89,2.89,0,0,0,.952,1.1,3.887,3.887,0,0,1,1.1,1.1,8.823,8.823,0,0,1,.439,1.611l1.978,10.767a4.848,4.848,0,0,0,.366,1.318,1.349,1.349,0,0,0,.879,1.025,1.186,1.186,0,0,0,.732-0.22,1.577,1.577,0,0,0,.44-0.952l6.665-.513-0.074,4.834-9.228.952a59.048,59.048,0,0,1-7.324.439L395.8,85.2a4.114,4.114,0,0,0-1.026.22,0.772,0.772,0,0,0-.293.659,2.127,2.127,0,0,0,1.1,1.172,10.484,10.484,0,0,0,2.344,1.172,4.7,4.7,0,0,0,1.831.366h0.513a12.106,12.106,0,0,0,2.2-.366,35.19,35.19,0,0,1,4.248-.806q2.637-.366,4.541-0.586,1.83-.146,4.687-0.439V97.285q-0.074,1.758-.073,2.637l0.147,1.9a4.552,4.552,0,0,0,.293,1.392,1,1,0,0,0,.439.586,0.658,0.658,0,0,0,.293.073h0.22a1.127,1.127,0,0,0,.439-0.147,4.245,4.245,0,0,0,.659-1.538,14.387,14.387,0,0,0,.733-2.929q0.219-1.538.439-3.955t0.293-3.882q0.072-1.464.293-4.98l4.248-.293q2.782-.146,7.4-0.22,4.686,0,8.056.073l3.223,0.146a1.773,1.773,0,0,0,1.025-.22l0.44-.439a0.651,0.651,0,0,1,.073-0.293,1.588,1.588,0,0,0-.366-0.806,5.728,5.728,0,0,0-2.051-1.611,8.228,8.228,0,0,0-3.369-1.172,19.117,19.117,0,0,0-2.637.293q-1.758.294-4.687,0.586-2.931.367-3.736,0.439l-7.617.586,0.073-4.98,6.006-.659,0.513,1.245q0,0.294.659,0.366h0.586c0.195-.048.44-0.121,0.732-0.22a7.268,7.268,0,0,0,.879-0.879A19.432,19.432,0,0,0,431.4,74.36l2.784-7.617a10.1,10.1,0,0,1,.805-1.978l0.879-1.1a1.531,1.531,0,0,0,.22-0.806,1.232,1.232,0,0,0-.073-0.366,3.614,3.614,0,0,0-1.538-1.392l-1.392-.732a4.812,4.812,0,0,0-2.2-.732l-3.662.732-6.812,1.172,0.147-4.468,7.177-1.1,1.758-.439a3.2,3.2,0,0,0,1.318-.439,0.88,0.88,0,0,0,.22-0.44,1.679,1.679,0,0,0-.22-0.659,4.382,4.382,0,0,0-1.611-.879,6.152,6.152,0,0,0-1.977-.513L424,53.193l-3.369.732,0.293-1.9a8.145,8.145,0,0,1,.293-1.758,2.268,2.268,0,0,0,.293-0.879,1.282,1.282,0,0,0-.366-0.733,3.265,3.265,0,0,0-1.392-.806q-1.026-.292-1.685-0.439a11.755,11.755,0,0,1-1.538-.293l3-.22a28.82,28.82,0,0,0,3.369-.147,0.954,0.954,0,0,0-.586-0.073l9.082-.586h2.564a10.647,10.647,0,0,0,1.318-.073,1.8,1.8,0,0,0,.733-0.293,0.43,0.43,0,0,0,.219-0.366V45.283a1.257,1.257,0,0,0-.219-0.586,6.608,6.608,0,0,0-1.612-1.318,8.492,8.492,0,0,0-1.831-1.025,2.815,2.815,0,0,0-1.391-.293l-3.662.586-7.984,1.025,0.659-1.1a3.582,3.582,0,0,0,.293-1.684,3.4,3.4,0,0,0-.293-1.392,3.359,3.359,0,0,0-1.318-1.318,14.808,14.808,0,0,0-3.442-1.392l-2.124-.586a3.171,3.171,0,0,0-.806-0.147,0.716,0.716,0,0,0-.513.147,0.5,0.5,0,0,0-.219.439,1.073,1.073,0,0,0,.292.586l0.879,1.392q0.879,1.392,1.538,2.344,0.587,0.879,2.125,2.93l-13.4,1.831-7.1.806q-1.539.22-1.831,0.293a0.429,0.429,0,0,0-.293.366v0.147a0.418,0.418,0,0,0,.146.293,0.984,0.984,0,0,0,.659.439L396.1,48.8l0.512,0.952a7.143,7.143,0,0,1,.367,1.392,8.886,8.886,0,0,1,.146,1.318v0.293q0,0.439-.22,3.662-0.292,3.224-.732,6.665a42.058,42.058,0,0,1-1.9,7.837q-1.392,4.395-3,8.2-1.686,3.735-2.93,6.226a33.739,33.739,0,0,1-2.71,4.468,29.889,29.889,0,0,1-2.637,3.3L381.667,94.5a1.4,1.4,0,0,0-.513.879,0.368,0.368,0,0,0,.367.366,1.626,1.626,0,0,0,.732-0.366l1.9-1.318a18.19,18.19,0,0,0,3.076-2.49,27.6,27.6,0,0,0,2.93-3.3,44.312,44.312,0,0,0,2.93-4.834,45.979,45.979,0,0,0,2.344-4.761,39.346,39.346,0,0,0,1.831-5.127q0.951-3.222,1.245-4.394l0.879-3.809q0.585-2.489.879-4.468l1.318-8.276a9.058,9.058,0,0,1,.293-1.318q0.145-.44.439-1.172a1.682,1.682,0,0,0,.147-0.586,4.309,4.309,0,0,0-.44-0.586l2.784-.366q4.833-.659,5.786-0.806,0.951-.072,2.05-0.146,1.1-.146,2.417-0.293Zm1.538,21.387-7.544.879-0.732-4.981,8.276-1.1v5.2Zm-0.146,7.324-6.446.439L408.986,71.8l7.105-.146Zm9.008-1.245h-0.219a10.393,10.393,0,0,0-1.319.146q-1.247.22-3.222,0.439l0.146-4.761,5.42-.659q0.221,0,2.637-.366l-1.685,5.566Zm-4.541-11.645,6.885-.733H428.4a5.943,5.943,0,0,1,.732.293,1.082,1.082,0,0,1,.366.513,1.934,1.934,0,0,1,.073.586,6.175,6.175,0,0,1-.073.806L429.2,66.67q-0.074.659-.293,1.978l-2.417-.806a6.088,6.088,0,0,0-1.318-.22,9.443,9.443,0,0,0-1.758.22q-1.026.148-3.076,0.586Zm54.493,8.789q0-2.489.073-3.223l0.073-.806a8.247,8.247,0,0,1,.293-1.685,6.639,6.639,0,0,0,.439-1.611,1.768,1.768,0,0,0-1.025-.952,7.861,7.861,0,0,0-2.051-.806,20.037,20.037,0,0,0-2.124-.293A3.46,3.46,0,0,0,470,62.935a1.057,1.057,0,0,0-.879.293,1.324,1.324,0,0,0-.22.659,7.963,7.963,0,0,0,.44,1.1,5.542,5.542,0,0,1,.586,1.538q0.146,0.733.366,2.71,0.145,1.978.147,2.71l0.292,15.82-5.566.586-6.811.44-2.71.146a4.229,4.229,0,0,0-1.612.366,1.087,1.087,0,0,0-.293.513,1.007,1.007,0,0,0,.367.659,6.432,6.432,0,0,0,1.831,1.172,22.7,22.7,0,0,0,2.49,1.025,8.13,8.13,0,0,0,1.831.293H460.4a6.368,6.368,0,0,0,1.978-.439q1.537-.44,4.687-1.025l3.37-.659q2.928-.439,7.1-0.879t8.716-.806q4.686-.366,6.885-0.513,2.343-.146,7.47-0.147l9.375-.147,6.592-.073,2.93-.146H520.1a2.923,2.923,0,0,0,.8-0.073,1.062,1.062,0,0,0,.66-0.732V87.251a1.975,1.975,0,0,0-.513-1.1,7.564,7.564,0,0,0-1.9-1.245,28.511,28.511,0,0,0-3.15-1.245,9.316,9.316,0,0,0-2.637-.586,13.35,13.35,0,0,0-2.27.366q-1.686.367-4.028,0.659l-5.567.732q-1.465.148-2.71,0.293l-9.082.732,0.22-17.285,1.465,0.293a6.167,6.167,0,0,0,1.684.293h0.44a21.652,21.652,0,0,0,3.589-.366l3.369-.659q3.956-.585,4.468-0.733l1.684-.439c0.39-.1.806-0.22,1.245-0.366a0.979,0.979,0,0,0,.659-0.879,1.553,1.553,0,0,0-.732-1.025,9.161,9.161,0,0,0-2.344-1.025,3.52,3.52,0,0,0-3.589-.073,27.417,27.417,0,0,1-3.735,1.1l-3,.806-5.2,1.318,0.22-8.789a23.818,23.818,0,0,1,.219-2.783,23.041,23.041,0,0,1,.513-2.49,5.982,5.982,0,0,0,.22-1.318,1.577,1.577,0,0,0-.733-0.952,7.32,7.32,0,0,0-2.343-1.245l3.955-.586q5.125-.879,7.47-1.318l2.93-.659a3.361,3.361,0,0,0,1.758-.659,2.247,2.247,0,0,0,.586-0.513V45.137a2.332,2.332,0,0,0-.513-0.806,6.351,6.351,0,0,0-2.2-1.1,9.439,9.439,0,0,0-2.417-.586,6.633,6.633,0,0,0-1.611.366q-1.1.367-3.516,1.025-2.492.659-4.248,0.952-1.758.439-7.837,1.392t-7.4,1.1l-2.93.293-1.611.22a1.747,1.747,0,0,0-1.246.513,0.815,0.815,0,0,0-.073.366,0.968,0.968,0,0,0,.22.586,3.44,3.44,0,0,0,1.684.952,9.528,9.528,0,0,0,2.564.366h0.659a17.626,17.626,0,0,0,2.2-.147l6.885-.659,0.586,0.879a6.715,6.715,0,0,1,.879,2.49,19.721,19.721,0,0,1,.293,3.516l0.293,29.3-10.62.952Zm73.095-4.248,4.029,6.152q1.024,1.466,1.831,1.465a1.8,1.8,0,0,0,1.391-.659,2.252,2.252,0,0,0,.44-1.392v-0.22a4.541,4.541,0,0,0-.293-1.684,3.858,3.858,0,0,0-1.026-1.538,6.428,6.428,0,0,0-1.9-1.392,22.236,22.236,0,0,0-2.2-1.025L548,66.963l0.293-5.566,7.031-1.611a5.467,5.467,0,0,0,2.124-.733,1.494,1.494,0,0,0,.659-0.879V58.027a1.443,1.443,0,0,0-.878-0.879,10.545,10.545,0,0,0-2.051-.732,10.975,10.975,0,0,0-1.172-.073h-0.44q-0.219.074-1.025,0.366a27.161,27.161,0,0,1-2.637.732l-1.318.366,0.293-4.687q0.145-2.928.293-3.882,0.145-.879.439-2.051a14.6,14.6,0,0,1,.44-1.831,4.7,4.7,0,0,0,.293-1.318V43.892a2.269,2.269,0,0,0-.806-1.1,7.553,7.553,0,0,0-1.684-1.172,7.716,7.716,0,0,0-1.465-.806l-1.1-.366a4.713,4.713,0,0,0-.732-0.073,1.206,1.206,0,0,0-.66.147,1.275,1.275,0,0,0-.366.659v0.073a2.8,2.8,0,0,0,.366,1.1,8.859,8.859,0,0,1,.586,2.271q0.292,1.538.367,2.27t0.073,2.344l0.146,3.955v5.42l-6.811,1.318a23.762,23.762,0,0,1-3.736.586l-2.343.293a1.219,1.219,0,0,0-.879.44v0.073a1,1,0,0,0,.366.659,2.676,2.676,0,0,0,1.172.732,5.936,5.936,0,0,0,2.27.44q1.171,0,2.857-.146a25.937,25.937,0,0,0,3-.439l3.076-.513-0.879,2.124a48.544,48.544,0,0,1-2.49,5.347q-1.318,2.565-3.223,5.566T534.3,79.854q-1.318,1.686-2.71,3.223-1.319,1.466-1.978,2.124l-0.659.732a0.8,0.8,0,0,0-.293.513,0.232,0.232,0,0,0,.147.22,0.293,0.293,0,0,0,.219.073,1.172,1.172,0,0,0,.513-0.146l1.245-.659q0.585-.366,2.271-1.611a35.772,35.772,0,0,0,3.369-3,30.129,30.129,0,0,0,3.589-4.248A43.69,43.69,0,0,0,542.8,72.9l2.124-3.589-0.733,12.085q-0.147,1.392-.293,3.369a34.52,34.52,0,0,1-.439,3.589q-0.22,1.612-.586,3.223a10.277,10.277,0,0,0-.439,2.2,8.209,8.209,0,0,0,.146,1.611,9.184,9.184,0,0,0,.586,1.758l0.586,1.611a1.98,1.98,0,0,0,.586.879,1.177,1.177,0,0,0,.732.513,1.833,1.833,0,0,0,.733-0.513,5.112,5.112,0,0,0,.879-1.318q0.364-.733.586-1.318,0.145-.587.293-1.1,0.072-.513.146-3.662l0.147-13.916Zm30.908-19.775a20.087,20.087,0,0,1,.147-2.124l0.146-1.318a6.24,6.24,0,0,1,.586-1.977,8.179,8.179,0,0,1,.513-0.952,1.645,1.645,0,0,0-.586-1.1,3.679,3.679,0,0,0-1.176-1.025,6.276,6.276,0,0,0-1.568-.879,8.064,8.064,0,0,0-1.718-.586,1.787,1.787,0,0,0-.885.146,0.794,0.794,0,0,0-.219.586,3.3,3.3,0,0,0,.293,1.1,13.381,13.381,0,0,1,.512,2.71q0.221,1.977.22,2.417a16.546,16.546,0,0,1,.147,1.685l-0.074-.073v1.685L575.1,57.588v1.025a18.578,18.578,0,0,0,.146,2.563,8.052,8.052,0,0,0,.974,2.637,6.389,6.389,0,0,0,2.322,2.271,11.455,11.455,0,0,0,3.516,1.318,15.35,15.35,0,0,0,4.248.586A16.955,16.955,0,0,0,590.7,67.4a14.388,14.388,0,0,0,3.662-1.318,5.68,5.68,0,0,0,2.344-1.758,2.881,2.881,0,0,0,.586-1.245V62.935a5.029,5.029,0,0,0-.513-1.025,8.957,8.957,0,0,1-.8-1.538,7.358,7.358,0,0,1-.586-1.758L595.1,56.27,594.948,55.1a0.8,0.8,0,0,0-.439-0.659h-0.147a0.3,0.3,0,0,0-.293.366L593.85,56.27a26.187,26.187,0,0,1-.66,2.856,6.554,6.554,0,0,1-1.171,2.564,5.18,5.18,0,0,1-2.93,1.465,11.435,11.435,0,0,1-2.93.366c-0.538,0-1.074-.024-1.611-0.073a9.251,9.251,0,0,1-3.662-.806,4.512,4.512,0,0,1-1.758-1.465,5.783,5.783,0,0,1-.586-2.124,15.4,15.4,0,0,1-.073-1.538q0-.731.073-1.538l0.22-2.49,1.391,0.147c0.341,0,1.026-.048,2.051-0.147q1.538-.292,2.637-0.439l3.735-.806a9.752,9.752,0,0,0,2.637-.732,1.164,1.164,0,0,0,.952-0.952,2.262,2.262,0,0,0-.293-0.879,5.469,5.469,0,0,0-1.758-.952,5.268,5.268,0,0,0-1.684-.366h-0.367a3.409,3.409,0,0,0-1.1.366q-0.807.294-3.516,1.1l-4.614,1.318Zm-16.04,8.2V55.757l1.758-.22,4.1-.439,2.344-.586a4.046,4.046,0,0,0,1.611-.439,1.154,1.154,0,0,0,.439-0.586V53.413a0.817,0.817,0,0,0-.512-0.659A6.074,6.074,0,0,0,571,51.948a7.314,7.314,0,0,0-1.465-.366,2.266,2.266,0,0,0-.879.293,19.329,19.329,0,0,1-2.636.879l-3,.952-0.074-1.318q0-.366.147-1.758,0.219-1.39.293-1.685a4.127,4.127,0,0,1,.293-0.952,3.4,3.4,0,0,0,.293-1.172,1.166,1.166,0,0,0-.586-0.806,4.1,4.1,0,0,0-1.319-.806,9.463,9.463,0,0,0-1.538-.513,5.765,5.765,0,0,0-1.245-.146,1.215,1.215,0,0,0-1.172.366,0.5,0.5,0,0,0-.146.366,1.1,1.1,0,0,0,.293.659l0.513,0.806a6.257,6.257,0,0,1,.586,1.611q0.146,0.953.219,1.9,0,1.172-.146,6.519t-0.22,6.3q-0.073.953-.22,1.831a3.336,3.336,0,0,1-.512,1.392l-0.367.513a0.651,0.651,0,0,0-.073.293,1.771,1.771,0,0,0,.147.659,6.471,6.471,0,0,0,.512,1.172,5.754,5.754,0,0,0,.806,1.245,1.357,1.357,0,0,0,.952.733,2.006,2.006,0,0,0,1.172-.733l1.465-1.465,2.637-2.344,5.493-4.541,0.805-.732a0.6,0.6,0,0,0,.22-0.366,0.254,0.254,0,0,0-.22-0.22,0.789,0.789,0,0,0-.439-0.147,1.4,1.4,0,0,0-.439.073l-1.1.513L566.6,62.715l-1.978.879a4.064,4.064,0,0,1-1.392.513,0.422,0.422,0,0,1-.293-0.073,0.857,0.857,0,0,1-.293-0.732V61.69l0.22-5.127h0.073Zm6.739,18.311,2.2-2.27q1.17-1.245,1.758-1.758l1.172-.952a3.611,3.611,0,0,0,.439-0.513V69.16a1.519,1.519,0,0,0-.439-0.952,8.732,8.732,0,0,0-1.319-1.1,7.541,7.541,0,0,0-1.684-.879,2.846,2.846,0,0,0-1.172-.366,0.653,0.653,0,0,0-.293.073,0.991,0.991,0,0,0-.659.439,1,1,0,0,0-.074.439,4.277,4.277,0,0,0,.074.659,1.651,1.651,0,0,1,.073.513,4.334,4.334,0,0,1-.293,1.465,12.351,12.351,0,0,1-1.025,2.49,16.656,16.656,0,0,1-1.319,2.344q-0.659,1.027-1.684,2.417l-2.051-.806a4.681,4.681,0,0,0-1.319-.293,0.6,0.6,0,0,0-.439.146,0.916,0.916,0,0,0-.366.513v0.147a2.788,2.788,0,0,0,.366,1.1,5.143,5.143,0,0,1,.513,1.978,18.483,18.483,0,0,1,.146,2.417l-0.073,7.178a14.251,14.251,0,0,1-.293,2.417,16.127,16.127,0,0,1-.366,1.758,5.044,5.044,0,0,0-.22,1.172,6.235,6.235,0,0,0,.513,2.124,9.183,9.183,0,0,0,1.172,2.2,1.428,1.428,0,0,0,.805.732,1.658,1.658,0,0,0,.586-0.293,2.033,2.033,0,0,0,.44-1.025l0.293-1.318,16.992-1.172,0.146,1.685a8.269,8.269,0,0,0,.22,1.392,6.147,6.147,0,0,0,.586,1.758,1.267,1.267,0,0,0,.879.659h0.146a1.476,1.476,0,0,0,.879-0.439,6.93,6.93,0,0,0,1.026-1.392,11.518,11.518,0,0,0,.8-1.465,4.74,4.74,0,0,0,.293-1.758l-0.219-3.369,0.073-9.082a27.105,27.105,0,0,1,.146-3.3,8.451,8.451,0,0,1,.733-2.124,2.485,2.485,0,0,0,.439-1.1,1.578,1.578,0,0,0-.732-0.952,10.458,10.458,0,0,0-2.2-1.465,14.232,14.232,0,0,0-2.125-1.025,3.494,3.494,0,0,0-.952-0.147,5.221,5.221,0,0,0-1.391.366q-0.952.294-2.93,0.732-1.977.367-2.856,0.513l-6.812,1.172Zm-4.1,12.6,1.758,0.293h1.758a13.118,13.118,0,0,0,1.758-.293l1.757-.293,9.888-1.465V93.77l-2.124-1.025a5.148,5.148,0,0,0-1.758-.439l-2.783.366-10.547,1.245Zm0.147-8.716,1.611-.073a19.538,19.538,0,0,0,2.783-.586q2.343-.511,4.614-0.879,2.27-.292,4.761-0.44a3.942,3.942,0,0,1,1.978.293,5.077,5.077,0,0,1,.512,1.025,4.586,4.586,0,0,1,.367,1.685l0.146,4.468-1.685-.439a10.252,10.252,0,0,0-1.757-.439,10.138,10.138,0,0,0-2.344.439,28.763,28.763,0,0,1-4.028.732l-7.105,1.1Zm67.236-31.567a6.41,6.41,0,0,1,.879-2.2,5.242,5.242,0,0,0,.732-1.025,1.556,1.556,0,0,0-.732-1.025,9.737,9.737,0,0,0-1.465-1.172,7.422,7.422,0,0,0-1.758-.879,4.736,4.736,0,0,0-1.391-.293,6.219,6.219,0,0,1-.953.44q-0.732.294-2.71,0.952a34.287,34.287,0,0,1-3.295.952l-5.42,1.245-1.465-.659a8.683,8.683,0,0,0-2.344-.586,1.164,1.164,0,0,0-.952.293,0.594,0.594,0,0,0-.147.44,1.351,1.351,0,0,0,.074.439l0.586,1.831q0.145,0.659.439,2.27l1.538,13.55-1.465.293a3.119,3.119,0,0,1-.952.146q-0.879.074-2.93,0.366L608.5,61.543a0.235,0.235,0,0,0-.22-0.146,1.121,1.121,0,0,0-.439.146,1.475,1.475,0,0,0-.366.879,8.59,8.59,0,0,1-.367,1.318q-0.219.587-.659,1.538l-0.879,1.978a4.351,4.351,0,0,0-.659,1.465,8.343,8.343,0,0,0-.073,1.172,4.356,4.356,0,0,0,.22,1.392,1.853,1.853,0,0,0,.879.952,1.776,1.776,0,0,0,.659.147,1.186,1.186,0,0,0,.732-0.22,4.058,4.058,0,0,0,1.245-1.685,10.984,10.984,0,0,0,.879-2.417,9.174,9.174,0,0,0,.293-1.977,3.711,3.711,0,0,0,0-1.465l4.907-.806,6.958-1.1q3.516-.511,5.933-1.025a21.4,21.4,0,0,1,3.735-.44,1.52,1.52,0,0,1,.879.293,0.374,0.374,0,0,1,.147.366,2.318,2.318,0,0,1-.147.659,11.83,11.83,0,0,1-.512,1.392,11.587,11.587,0,0,1-.806,1.465l-0.513.806a0.565,0.565,0,0,0-.073.22,0.5,0.5,0,0,0,.146.366,0.3,0.3,0,0,0,.22.073,0.705,0.705,0,0,0,.366-0.146l1.026-.733q0.951-.659,2.124-1.392a14.087,14.087,0,0,1,1.758-.879q0.511-.22,1.464-0.513a1.5,1.5,0,0,0,1.1-.586,0.657,0.657,0,0,0,.073-0.293,1.189,1.189,0,0,0-.146-0.513,3.271,3.271,0,0,0-1.172-1.172,8.275,8.275,0,0,0-1.465-1.025,10.385,10.385,0,0,0-1.758-.806,4.449,4.449,0,0,0-1.611-.439h-0.146a5.542,5.542,0,0,0-1.832.513Zm-9.155,4.688,0.586,0.147h0.146a3.074,3.074,0,0,0,.733-0.147q0.731-.22,1.318-0.44l1.9-.806-0.586,8.862-2.417.439a15.832,15.832,0,0,1-2.27.439Zm-4.468,9.155q-0.294.074-1.685,0.293H617.58l-0.732-14.868,8.548-2.2a7.081,7.081,0,0,1,1.917-.293,1.417,1.417,0,0,1,.442-0.073,1.211,1.211,0,0,1,.885.293,2.531,2.531,0,0,1,.219,1.318v0.513l-0.219,3.3-1.184-.22a6.282,6.282,0,0,0-.812-0.073h-0.3a7.731,7.731,0,0,0-1.478.513l-1.257.586-1.183-.439q-0.666-.22-1.4-0.439a2.454,2.454,0,0,0-.735-0.147,0.6,0.6,0,0,0-.439.147,0.42,0.42,0,0,0-.147.293,0.3,0.3,0,0,0,.073.22,2.228,2.228,0,0,0,.22.806,3.151,3.151,0,0,1,.293,1.025q0.072,0.513.147,1.758l0.366,7.4Zm19.775,3.955a2.908,2.908,0,0,0,.586,1.685,1.329,1.329,0,0,0,.952.439,1.083,1.083,0,0,0,.806-0.586,5.224,5.224,0,0,0,.439-1.465l16.553-1.245,0.806,1.392a1.146,1.146,0,0,0,.806.586h0.146a2.02,2.02,0,0,0,1.318-.732,12.185,12.185,0,0,0,1.612-3.076l2.71-7.69a4.237,4.237,0,0,1,.659-1.538,4.32,4.32,0,0,1,.806-0.879,2.117,2.117,0,0,0,.585-0.806V51a2,2,0,0,0-.732-1.245,8.292,8.292,0,0,0-2.417-1.538,21.586,21.586,0,0,0-2.344-.952,5.175,5.175,0,0,0-1.172-.293,7.363,7.363,0,0,0-1.757.366l-2.491.586,0.733-5.127a8.475,8.475,0,0,1,.586-2.49,3.314,3.314,0,0,0,.366-1.172V38.984a1.786,1.786,0,0,0-.44-0.879,4.067,4.067,0,0,0-1.831-1.1q-1.465-.511-2.2-0.806a3.165,3.165,0,0,0-.805-0.147,0.6,0.6,0,0,0-.44.147,1.611,1.611,0,0,0-.293.659v0.146a4.3,4.3,0,0,0,.22,1.172q0.291,0.953.439,1.611a5.969,5.969,0,0,1,.074,1.172q0,0.879-.074,2.344l-0.439,5.64-4.981.806V42.793a1.78,1.78,0,0,1,.147-0.659,2.006,2.006,0,0,0,.293-0.659,0.9,0.9,0,0,0-.22-0.513,4.177,4.177,0,0,0-.952-0.586,14.415,14.415,0,0,0-1.538-.513l-1.538-.293a1.408,1.408,0,0,0-1.1.293,0.784,0.784,0,0,0-.146.439v0.146a7.652,7.652,0,0,0,.439,1.245,7.511,7.511,0,0,1,.513,2.27l0.439,6.079-4.394.366-3.516-.952a1.815,1.815,0,0,0-.659-0.146,0.525,0.525,0,0,0-.513.293,1.261,1.261,0,0,0-.22.586v0.073a2.715,2.715,0,0,0,.806.952,3.841,3.841,0,0,1,1.172,1.611A13.317,13.317,0,0,1,637.5,54.8l0.952,6.079,0.073,1.392Zm5.347-12.964,0.513,4.248-3.955.586-0.513-4.541Zm-2.124,6.3a2.35,2.35,0,0,0,.879.146h0.366q0.879-.146,1.538-0.22l0.366,4.541-3.589.366-0.585-5.127Zm5.713-6.592,4.687-.586-0.219,4.1-4.4.732Zm0.146,6.226,4.248-.586-0.366,4.614-3.808.44Zm7.691-1.245h1.1c0.195,0,.66-0.048,1.392-0.147s1.562-.22,2.49-0.366l-0.952,3.369q-0.147.367-.732,2.2l-2.051-.366a2.608,2.608,0,0,0-.733-0.073q-0.513,0-1.318.073Zm0.659-6.152,1.9-.146a9.248,9.248,0,0,1,1.465-.147,1.927,1.927,0,0,1,.586.073,2.335,2.335,0,0,1,.879.659,1.381,1.381,0,0,1,.146.732,9.032,9.032,0,0,1-.146,1.392L661.013,55.1l-3.15-.806h-0.146a11.955,11.955,0,0,0-1.685.22ZM626.955,81.9l-0.293,7.178a30.288,30.288,0,0,1-.365,3.076,1.517,1.517,0,0,1-.949,1.318,1.294,1.294,0,0,1-.583.146,1.948,1.948,0,0,1-.73-0.146,13.469,13.469,0,0,1-1.753-.806l-1.022-.513a0.816,0.816,0,0,0-.45-0.146,0.429,0.429,0,0,0-.3.146,0.416,0.416,0,0,0-.147.293,0.409,0.409,0,0,0,.147.22l1.025,1.1a9.4,9.4,0,0,0,.952,1.245l1.172,1.538a12.371,12.371,0,0,1,1.172,1.9,1.947,1.947,0,0,0,.879,1.1,0.658,0.658,0,0,0,.293.073,1.774,1.774,0,0,0,.952-0.439,4.672,4.672,0,0,0,1.611-1.9,7.693,7.693,0,0,0,1.172-2.856,9.85,9.85,0,0,0,.22-2.417V91.206q0-2.2-.073-4.614V83.809l0.146-8.5a12.344,12.344,0,0,1,.293-2.93,5.949,5.949,0,0,1,.733-1.9q0.512-.731.586-0.879a1.472,1.472,0,0,0-.44-0.806,3.6,3.6,0,0,0-1.245-1.1q-0.913-.585-1.685-1.025a2.942,2.942,0,0,0-1.252-.439,6.959,6.959,0,0,0-.956.366q-0.663.294-2.282,0.806-1.622.44-3.018,0.733l-4.2.879-1.177-.439a12.146,12.146,0,0,0-1.766-.366,1.277,1.277,0,0,0-.732.293,0.418,0.418,0,0,0-.074.293,2.093,2.093,0,0,0,.074.513l0.439,1.025a10.154,10.154,0,0,1,.293,1.685,11.868,11.868,0,0,1,.22,1.831l-0.074,3.808q-0.147,1.466-.292,3.735t-0.367,4.175a23.9,23.9,0,0,1-.732,3.809l-1.1,3.589q-0.732,1.758-1.1,2.71l-0.806,1.611-0.293.659a0.812,0.812,0,0,0-.073.366,0.651,0.651,0,0,0,.073.293,0.233,0.233,0,0,0,.22.147,0.806,0.806,0,0,0,.512-0.293l0.513-.439a4.9,4.9,0,0,0,1.245-1.245,14.883,14.883,0,0,0,1.612-2.563q0.877-1.758,1.464-3.223a11.642,11.642,0,0,0,.733-2.417q0.291-.879.439-1.538l0.879,0.733a3.094,3.094,0,0,0,1.465,1.025,1.823,1.823,0,0,0,.806.22,0.813,0.813,0,0,0,.366-0.073,1.844,1.844,0,0,0,.586-0.513l1.025-1.245q0.732-.879.879-1.025t1.465-1.392l3.662-3.223V81.9Zm-4.541.732q-1.612.807-2.27,1.1l-1.685.659a9.7,9.7,0,0,0-1.318.44c-0.245.049-.562,0.1-0.953,0.147l0.22-1.392q0-.072.22-1.831t0.293-3.369q0.072-1.61.146-2.051,0.072-.512.22-1.978l0.742,0.659a7.323,7.323,0,0,0,1.185,1.025l1.927,1.465a6.824,6.824,0,0,0,1.78,1.025,3.631,3.631,0,0,0,1.324.293h0.22a2.305,2.305,0,0,0,1.245-.366,1.154,1.154,0,0,0,.513-1.1v-0.22a2.2,2.2,0,0,0-.733-1.538,5.7,5.7,0,0,0-2.051-1.025,15.942,15.942,0,0,0-2.447-.586q-1.039-.146-1.78-0.22-0.817-.072-1.925-0.22V73.481l0.147-.806,0.146-.952a3.719,3.719,0,0,0,.147-1.245l4.174-.659q1.685-.22,2.93-0.366a2.1,2.1,0,0,1,1.538.366,1.487,1.487,0,0,1,.44.806q0,0.513.073,1.758l0.073,8.057Zm29,2.2,6.006-.586H658.6a3.17,3.17,0,0,0,1.611-.439V83.662a1.179,1.179,0,0,0-.586-0.732l-0.879-.586,0.879-1.465a12.98,12.98,0,0,1,1.9-2.344,6.1,6.1,0,0,0,1.026-.879V77.51a1.767,1.767,0,0,0-.366-1.025,3.693,3.693,0,0,0-1.172-1.1q-0.807-.511-2.124-1.245a4.721,4.721,0,0,0-1.978-.732q-0.219.074-.952,0.366a11.769,11.769,0,0,1-1.465.439q-0.734.074-3.442,0.513l-9.009,1.318-1.611-.293-1.319-.22a5.028,5.028,0,0,0-.805-0.073,0.849,0.849,0,0,0-.586.147,0.631,0.631,0,0,0-.22.439v0.147a2.646,2.646,0,0,0,.513.659,8.832,8.832,0,0,1,.879,1.1,4.825,4.825,0,0,1,.732,1.831l0.879,4.688a6.617,6.617,0,0,0,.513,1.758,5.494,5.494,0,0,1,.366.806l-0.073.586a1.71,1.71,0,0,0,.439.659q0.366,0.513.439,0.586l2.784,5.347-4.541.439q-2.052.292-3.443,0.366-1.392.146-3,.22l-2.49.147a0.843,0.843,0,0,0-.586.146,0.5,0.5,0,0,0-.146.366v0.073a0.815,0.815,0,0,0,.439.659,16.733,16.733,0,0,0,1.611,1.1,3.356,3.356,0,0,0,1.905.732h0.732q0.292-.074,2.2-0.439,1.83-.367,4.908-0.806,3-.44,4.76-0.659,1.611-.148,5.494-0.293,3.881-.22,6.079-0.293,2.709,0,6.006.146,3.368,0.072,3.662.073h0.879a1.057,1.057,0,0,0,.878-0.366,0.6,0.6,0,0,0,.147-0.439,1.72,1.72,0,0,0-.22-0.733,4.019,4.019,0,0,0-1.977-1.465,7.628,7.628,0,0,0-2.2-.732h-0.952l-3,.293-3.515.366q-1.467.146-4.468,0.366l3.3-3.442a5.382,5.382,0,0,1,1.538-1.318,2.036,2.036,0,0,0,.806-0.659,0.3,0.3,0,0,0,.073-0.22,1.314,1.314,0,0,0-.22-0.659,4.152,4.152,0,0,0-1.318-1.318,11.9,11.9,0,0,0-1.612-.952,3.482,3.482,0,0,0-.952-0.22,0.428,0.428,0,0,0-.293.073,2.135,2.135,0,0,0-.366,1.025,11.638,11.638,0,0,1-.439,1.978,32.68,32.68,0,0,1-1.319,3.3l-1.1,2.49-4.908.366,0.293-1.465a2.458,2.458,0,0,0,.074-0.586,2.355,2.355,0,0,0-.66-1.611,7.3,7.3,0,0,0-1.9-1.611l-2.49-1.392,0.439-.806a8.894,8.894,0,0,0,.293-1.172Zm-8.35-4.541-0.146-1.978,2.93-.732L649.66,77a22.307,22.307,0,0,1,4.1-.586,3.513,3.513,0,0,1,.805.073,2.352,2.352,0,0,1,1.538.806,1.9,1.9,0,0,1,.074.586,3.381,3.381,0,0,1-.074.659L655.446,81.9l-12.085,1.318Zm-2.783-9.668v0.147a1.049,1.049,0,0,0,.366.732,3.4,3.4,0,0,0,1.465.659,8.365,8.365,0,0,0,1.685.22q0.585,0,2.637-.147l3.955-.439,4.687-.659q1.758-.146,2.051-0.22l0.952-.147a4.749,4.749,0,0,0,1.172-.366,0.869,0.869,0,0,0,.439-0.513V69.819a1.093,1.093,0,0,0-.8-0.732,9.245,9.245,0,0,0-2.124-.659q-1.318-.146-1.685-0.147a6.193,6.193,0,0,0-1.025.147l-1.465.293q-0.44.074-2.93,0.44t-2.637.366l-3.515.366-1.9.22a1.862,1.862,0,0,0-1.319.513h0Z"/>
</svg>
