<svg xmlns="http://www.w3.org/2000/svg" width="900" height="140" viewBox="0 0 900 140">
  <defs>
    <style>
      .cls-1 {
        fill-rule: evenodd;
      }
    </style>
  </defs>
  <path id="摄图摩登小方体" class="cls-1" d="M145.99,38.241l0.7,27.6-8.5,1.4,2.3,9.4,34.6-7.3,0.1,6.4,7.6-1,0.2-7,11.3-2.4-2-7-9.1,1.5,0.5-22.3,6.4-.1,0.8-9.8-53.5,2.4,1.5,8.3Zm-17.8,42.2,9.5-5.6-3.3-6.4-6.2,2.9-0.1-18,6.8-.1,0.5-10.6-7.3.6v-14.3l-10.5-1.2,0.3,16.4-11.6,1,1.5,8.6,10.3-.2,0.4,22.3-11.7,5.4,4.8,8.9,7.1-4.2,0.3,15.4-6.4-3.3-4.6,5.5,11.2,9v0.1h0.1l8.9-2.2v-30Zm46.8-19.2-20.1,3.3,0.1-5.9,15.9-.2,0.7-6.8-16.5,1.1,0.1-3.7,15.7-.1,0.7-7-16.3,1.1,0.1-5,19.2-.3Zm-9.8,41.5-5.3-4.5,5.9-14.9-6-5.8-20.4,1.8,0.9,7.4,3.7-.2-3.7,3.7,7.9,8.3-11.8,7.7,4.9,7.2,12.6-8.8,5,5.2Zm29.3,3.1-7.5-7.1,6.7-15.1-6.8-6.1-20.3,1.8,0.9,7.4,4-.1-3.6,3.2,7.9,8.8-12,7.8,4.7,7,12.6-8.8,7.3,8.1Zm-38-20.1-2.9,7.1-7.5-6.5Zm26.8,0.8-2.5,6.2-6.4-6.1Zm93.3-58.3-52,2.6v-1.4l-12.4-.5,0.6,83.9,10-1v-1.3h53.8v1.9l9.8-.7,2.2-77.9Zm-53.6,73.7,1.4-62,52.2-.6v60.8Zm35.8-35.2,10.2-12.5-6.2-5.7-15.7.9,1.6-2.4-7.2-4.5-12.6,21.5,6,4,3.3-5,7.1,4.3-18.6,7.4,3.1,7.8,23.5-10.4,17.7,10.6,4.5-6.8Zm-16.1-10.5,14.4-.6-5.6,7.1-9.6-5.3Zm4.2,24.8,12.1,5.5,2.6-5-11-6.5Zm-7.3,9.8,18.9,7,2.5-5.7-18.3-8.2Zm149.5-45.8,1.1-10.9-30.3,1.2-6.7-9.1-7.2,5.7,3.5,3.8-22.4.9v-1.3l-10.9-1.4,0.2,64.2-6.5,12.7,9.6,4,5.6-13.7,1.7-55.3Zm-30.1,5.1-11.2.7,0.2-3.8-7.6-.9,0.1,5.2-11.7.7,0.7,6.1h6.4l-7.3,10.3,5.3,4.1,6.9-10.5,0.3,12.7,5.4-.6,0.7-12.2,5.1,7.7,5.4-4.2-5.7-7.3h6.4Zm31.6,0-11.3.7,0.2-3.8-7.5-.9,0.1,5.2-11.7.7,0.7,6.1h6.3l-8.4,11.4,5.6,4.3,7.8-11.8,0.3,11,5.4-.6,0.5-9.9,6.8,10,5.5-4.6-7.7-9.8h6.7Zm-25.5,43.6,19.9-.4,0.7-7.6-20.4.9,0.2-3.7,19-1-0.6-8.3-51.1,4.6,0.6,6.4,22.9-1.2v3.6l-22.9,1,0.7,6.3,22.3-.4v3l-28.6.6,0.9,6.3,27.8-.1v3.9l-5.7-1.3-2.2,5.4,8,3.1,7.8-.7,0.4-10.4,24.9-.1,0.7-7.4-25.4.5Zm48.1-21.2,12.6-7.9,0.7,3,46.3-.8,0.9-7.3,11.6,12.7,7.9-7.9-14.2-14.3,10-8.1-7.2-7-8.9,9.1-4-4.1,8.7-6.9-7.3-7-7.6,7.7-4.3-4.3-6.7,6.1,19.8,21.6-36.9,2,4.6-2.9,11.7-19.3-8.9-7.2-30.2,2.3,2,8.2,22.8-.5-6.1,11.5-2.9,1.6-8.9-9.6-6.4,4.4,6.5,9.9-11.2,6Zm55.5,23.5-6.6-3.4,3.8-.2v1.4l8.9-1.7,2.3-15.8-11.2-7.4-31.1,3.2v-1.2l-11.7-.2,1.9,24.9,9-1.2v-0.9l2.9-.1-6.2,4.4,5.7,8-23.5,1.1,1.9,8.1,71.9-.9,0.9-10.8-23.4,1.1Zm-34.2-16.3,31.4-1.3v5.9l-31.6,1.9Zm5.2,13.6,19.4-.6-5,12.2-8.9.4Zm106.6,10.5-8.7-1.5-2.4,7,11.1,4.7,9.3-2.6,1.8-83.3-10.7-1.1Zm-18.3-53.6-19.9,38.3,9.8,5.2,17.8-39.3Zm45.8,0.6-7.7,4.2,16.8,38.7,9.8-5.2Zm115.7-.5,0.8-10.9-34.7,1,1.9-1.4-8-12.7-8.5,5.9,6.9,8.4-37.4,1.1,1.6,9,17.9-.1-2.5,35.8-13.5,21,9.4,7.2,14.3-24.2,1.2-15.8,33.3-1.3-1.5,31.7-8-2.6-3.1,6.6,10.6,5.7,9.4-.9,4.3-45-11.2-6.5-33,1.8,1-13.5Zm49-17.4-8.9-6.5-23.4,32.6,7.3,4.9,5.7-7.1v55.4l8.4-.9,2-63.8-2.4-.6Zm46.5,67.4,9.6-4.6-18.1-40.8,12.2-.1,0.9-11.5-20.9.9,0.4-16-10.9-1.3v17.8l-23,1,1.2,9.5,13.3-.1-5.4,20.3-14.5,18.5,8.5,6.7,15.1-22.8,4.8-18v29.3l-12.1,1.1,1.4,8.9,10.7-.5v16l8.8-1.2,0.4-15.2,9.9-.4,0.9-10.6-10.6,1,0.8-30.4Z"/>
</svg>
