<svg xmlns="http://www.w3.org/2000/svg" width="900" height="140" viewBox="0 0 900 140">
  <defs>
    <style>
      .cls-1 {
        fill-rule: evenodd;
      }
    </style>
  </defs>
  <path id="王漢宗超明體繁" class="cls-1" d="M243.725,39.354q-1.832,2.2-3.589,2.2H195.9q-2.2,0-1.757,1.025t2.636,1.025h18.238a1.587,1.587,0,0,1,1.757,1.831v21.9a1.587,1.587,0,0,1-1.831,1.758H198.534q-1.977,0-1.391,1.172,0.364,0.807,2.563.806h15.308a1.587,1.587,0,0,1,1.757,1.831V97.215a1.587,1.587,0,0,1-1.831,1.758H192.382q-1.979,0-1.392,1.172,0.366,0.8,2.564.805H256.1a3.889,3.889,0,0,0,3.076-1.025q0.879-1.027-1.392-2.93l-5.2-4.468q-2.125-1.684-3.955.586l-2.857,3.662q-1.832,2.2-3.588,2.2H231.64a1.587,1.587,0,0,1-1.758-1.831V72.825a1.587,1.587,0,0,1,1.831-1.758h19.116a3.975,3.975,0,0,0,3.15-1.1q0.8-.879-1.1-2.49L247.9,63.231q-2.124-1.758-3.955.586l-2.49,3.076q-1.905,2.2-3.662,2.2H231.64a1.587,1.587,0,0,1-1.758-1.831v-21.9a1.587,1.587,0,0,1,1.831-1.758h21.46a3.883,3.883,0,0,0,3.076-1.025q0.879-1.025-1.318-2.93l-4.688-3.882q-2.05-1.758-4.028.586-1.392,1.538-2.49,3h0Zm48.413,1.318a1.587,1.587,0,0,1-1.831,1.758H286.5q-2.2,0-1.831,1.025,0.512,1.026,2.71,1.025h3a1.587,1.587,0,0,1,1.758,1.831v6.665q0,1.977,2.49,1.685l4.687-.586q2.2-.146,2.2,1.611v1.465a1.587,1.587,0,0,1-1.831,1.758q-3.225.513-11.426-3-2.344-.511-2.93-1.538-0.368.074-1.611,2.27l-13.4,24.17a3.763,3.763,0,0,1-2.271.952q-2.271.22-2.27,0.952,0.072,0.659,2.27,1.318,3.588,1.173,2.856,4.175-2.2,7.617-1.757,11.206a5.388,5.388,0,0,0,3.369,3.735q6.517,1.684,9.228-3.955,1.245-5.273-2.417-11.646a5.211,5.211,0,0,1-.293-2.93l5.86-25.488q0.8-2.05.805-.439V72.679q0,2.2,2.2,1.9,3.368-.659,6.665-1.1,2.2-.439,2.2-1.611,0-1.1,2.417-1.1,2.343,0,2.344,1.831l-0.147,1.9q-0.293,2.2-2.051,2.2H288.256q-1.977,0-1.392,1.172,0.366,0.807,2.564.806h9.594a1.485,1.485,0,0,1,1.685,1.758l-0.513,2.563q-0.807,2.2-2.563,2.2H285.619q-2.2,0-1.758,1.1,0.44,1.026,2.637,1.025h10.4q1.758,0,.586,2.271A33.878,33.878,0,0,1,283.5,101.829q-2.2,1.1-2.051,1.9,0.22,0.805,2.417.367a58.559,58.559,0,0,0,13.111-3.809,27.445,27.445,0,0,0,11.206-8.862q1.391-2.343,2.124-.586a18.782,18.782,0,0,0,6.811,8.569,38.633,38.633,0,0,0,11.133,4.761q2.27,0.585,2.637-2.2a16.025,16.025,0,0,1,1.977-5.86q2.05-2.2,2.051-2.93-0.073-.659-2.27-0.732-12.893-.585-19.629-3.516-2.492-1.61-.586-1.611h18.75a3.644,3.644,0,0,0,3-1.025q0.585-1.025-1.245-2.71-1.832-1.61-3.663-3-2.2-1.9-.732-1.9a2.569,2.569,0,0,0,2.124-1.025q0.66-.951-1.465-2.71l-1.465-1.172q-1.977-1.684,0-2.124a2.17,2.17,0,0,0,1.9-2.49V65.355a2.527,2.527,0,0,1,1.172-2.417,1.859,1.859,0,0,0,1.1-1.392q-0.293-.879-2.344-2.051-2.49-1.83-4.98-3.442a2.856,2.856,0,0,0-3.809.293L320.043,57a6.889,6.889,0,0,1-4.541,1.9q-2.271,0-2.271-1.831V55.613q0-1.61,1.905-1.9l3.515-.44a2.351,2.351,0,0,0,2.2-2.563V46.238a1.587,1.587,0,0,1,1.831-1.758H330.3a3.736,3.736,0,0,0,3.076-1.1q0.585-1.025-1.538-2.783l-2.93-2.344q-2.416-1.9-4.175,0L322.9,40.379q-2.051,2.271-2.05.146a2.066,2.066,0,0,1,1.025-2.051q2.269-1.318.439-2.344a27.328,27.328,0,0,0-5.273-.513q-2.565-.292-5.127-0.366a1.873,1.873,0,0,0-2.2,2.124v3.3a1.587,1.587,0,0,1-1.831,1.758h-2.93a1.621,1.621,0,0,1-1.758-1.9q0-1.758,1.026-2.051,2.122-.951.732-2.2a16.038,16.038,0,0,0-5.493-.659q-2.565-.292-5.127-0.366a1.807,1.807,0,0,0-2.2,2.051v3.369ZM270.6,40.306a9.172,9.172,0,0,1,2.2,5.859q2.343,6.08,7.4,3.662a4.784,4.784,0,0,0,2.344-2.637,5.961,5.961,0,0,0-.659-5.933,7.694,7.694,0,0,0-5.567-3.442q-2.784-.439-5.346-0.586-1.979,0-2.344.659-0.22.367,1.977,2.417h0Zm39.112,8.057a1.587,1.587,0,0,1-1.831,1.758h-2.93a1.587,1.587,0,0,1-1.758-1.831V46.238a1.587,1.587,0,0,1,1.831-1.758h2.93a1.587,1.587,0,0,1,1.758,1.831v2.051Zm-43.36,9.522a9.046,9.046,0,0,1,1.905,4.175,8.808,8.808,0,0,0,.512,2.93q3.442,6.372,8.423,1.318,2.05-2.489.366-6.738a8.087,8.087,0,0,0-5.346-4.1,30.97,30.97,0,0,0-5.2-.732q-2.126,0-2.417.586-0.294.513,1.757,2.563h0Zm35.157,9.155q0,1.758-2.417,1.758-2.346,0-2.344-1.831V62.571q0-1.758,2.49-1.758,2.269,0,2.271,1.9v4.321Zm16.406,0q0,1.758-2.417,1.758-2.271,0-2.271-1.831V62.571q0-1.758,2.417-1.758,2.269,0,2.271,1.9v4.321Zm1.758,5.786q1.758-.22.219,1.831a4.825,4.825,0,0,1-3.515,2.051H314.7a1.484,1.484,0,0,1-1.684-1.758,9.143,9.143,0,0,0,.073-1.978q0.072-2.2,2.563-2.2,2.269,0,2.271,1.318,0,1.1,1.758.732h0Zm3.3,10.181q-1.832,2.2-3.589,2.2h-6.446q-1.756,0-1.318-1.758l0.659-2.564q0.44-2.2,2.2-2.2H324.95q1.611,0-.146,2.124a23.816,23.816,0,0,0-1.831,2.2h0Zm46.8-38.892a1.587,1.587,0,0,1-1.831,1.758H354.906q-1.611,0-2.2-2.417-0.587-2.2-1.318-2.27-0.588,0-1.172,2.27a8.247,8.247,0,0,1-4.029,4.761,32.158,32.158,0,0,0-2.929,1.831q-4.542,3.809-1.026,7.91a5.571,5.571,0,0,0,3.662,1.685q5.495,0.587,7.178-4.321a18.524,18.524,0,0,0,.513-5.2q0-2.2,1.758-2.2H394.9q1.758,0,1.246,1.758l-0.66,2.051q-0.732,2.417-2.124,1.172-1.537-1.391-3.735,1.245l-1.758,2.2q-1.832,2.2-3.589,2.2h-30.1q-1.978,0-1.465,1.172,0.44,0.807,2.637.806h41.162a3.644,3.644,0,0,0,3-1.025q0.585-.951-0.733-2.124-1.392-1.171.806-2.27l1.465-.732q3.077-2.05,8.862-1.392,3.222-.805.366-4.175l-7.91-6.006q-2.126-1.61-4.248.879-1.977,2.2-3.735,2.2H384.35a1.587,1.587,0,0,1-1.758-1.831V40.818a2.1,2.1,0,0,1,1.318-2.2q2.269-1.1.806-2.417a9.184,9.184,0,0,0-2.051-.586l-10.84-.733q-2.05-.072-2.051,2.27v6.958Zm28.272,23.877q-1.977,2.2-3.735,2.2h-50.1q-2.2,0-1.758,1.025t2.637,1.025h22.632a1.587,1.587,0,0,1,1.757,1.831V91.356a1.587,1.587,0,0,1-1.831,1.758h-6.738q-2.2,0-2.27.586,0,0.512,2.856,1.611,4.98,2.856,5.859,7.251a2.571,2.571,0,0,0,2.857,2.2q6.591,0.145,9.961-2.344a5.867,5.867,0,0,0,1.611-5.127V74a1.587,1.587,0,0,1,1.831-1.758h23.438a4.135,4.135,0,0,0,3.149-1.025q0.732-.951-1.392-2.856L404.418,64.7q-2.126-1.758-4.028.439ZM344.213,95.823q-1.173,2.637-.806,3.223,0.366,0.511,2.49-.879a77.152,77.152,0,0,0,15.6-14.282,4.711,4.711,0,0,1,2.783-1.392,3.9,3.9,0,0,0,1.172-.659q0.585-1.464-2.051-2.564-4.833-2.123-9.448-4.321-2.05-.879-2.856,1.831a157.877,157.877,0,0,1-6.885,19.043h0Zm43.8-16.04a25.157,25.157,0,0,1,6.079,10.254,20.766,20.766,0,0,0,2.27,5.859q3.442,4.027,7.251,1.392A9.211,9.211,0,0,0,407.2,91.5q0.293-7.177-7.91-11.133a65.489,65.489,0,0,0-10.986-3.809q-2.2-.439-2.564.073-0.368.659,2.271,3.149h0Zm38.379-33.838A1.587,1.587,0,0,1,424.56,47.7H418.7q-2.2,0-1.831,1.025,0.511,1.027,2.71,1.025h5.054a1.587,1.587,0,0,1,1.758,1.831V58.25a1.587,1.587,0,0,1-1.831,1.758h-7.325q-2.2,0-1.831,1.025,0.512,1.027,2.71,1.025h8.57a1.587,1.587,0,0,1,1.757,1.831v2.93q0,1.686-1.9,1.392-3.224-.659-6.445-1.1-2.2-.292-2.2,1.9v7.69q0.219,14.942-2.71,24.1-0.807,2.2-.147,2.563,0.512,0.22,2.271-2.124a44.777,44.777,0,0,0,7.1-13.55q0.66-2.269,1.758-.293,10.107,14.722,24.683,15.381h28.564q2.2,0,2.417-2.417a17.817,17.817,0,0,1,1.318-5.127q1.758-2.2,1.758-2.93-0.073-.731-2.27-0.732H448.729a41.72,41.72,0,0,1-7.324-.879q-2.2-.585-2.2-2.344V76.927a1.587,1.587,0,0,1,1.831-1.758h4.688A1.587,1.587,0,0,1,447.484,77V88.206q0,2.2,2.564,1.831l6.592-1.025q2.2-.439,2.2-1.9,0-1.39,1.831-1.392h6.152a1.587,1.587,0,0,1,1.758,1.831q0,1.686,2.344,1.318l7.4-1.025a2.351,2.351,0,0,0,2.2-2.563v-12.3a2.583,2.583,0,0,1,1.1-2.417q2.051-1.318,0-2.637l-5.346-3.442q-1.979-1.245-.66-1.611a4.426,4.426,0,0,0,3-2.637q2.269-4.76,2.491-14.136,0.145-2.2,1.318-2.71,3.076-1.977-.806-3.955-2.49-1.758-4.98-3.3a2.813,2.813,0,0,0-3.809.366q-2.93,3.516-4.687,2.71H447.411q-1.977,0-1.391,1.172,0.365,0.807,2.563.806h1.685a1.553,1.553,0,0,1,1.757,1.758,55.888,55.888,0,0,1-2.05,14.282q-0.954,1.978-2.857.439L445.8,56.639q-2.344-1.83-4.248.147l-0.806.879q-2.125,2.345-2.637,2.344-0.658-.072-0.659-1.831V51.512a1.587,1.587,0,0,1,1.831-1.758h6.739q2.2,0,2.929-1.1,0.44-1.025-1.758-2.783l-2.05-1.611q-2.052-1.61-3.662.22l-0.733.879q-2.125,2.345-2.637,2.344-0.658-.072-0.659-1.831V41.185a2.2,2.2,0,0,1,1.172-2.271q2.416-.879,1.318-2.344a9.723,9.723,0,0,0-3.3-.659l-8.057-.732a1.873,1.873,0,0,0-2.2,2.124v8.643Zm42.993,6.445q-0.513,2.345-2.271,2.344h-3.955q-2.2,0-2.2.952,0,0.733,1.831,1.172,3.882,1.392,3.662,4.614a2.049,2.049,0,0,0,2.344,2.2q2.562,0,1.245,1.245a4.861,4.861,0,0,1-3.369,1.538q-8.13.513-10.913-.952L452.9,64.476q-2.2-.805.074-2.124,5.493-3.735,7.47-7.983a31.344,31.344,0,0,0,2.564-10.986q0.219-2.2,1.977-2.2h3.589a1.587,1.587,0,0,1,1.758,1.831,67.437,67.437,0,0,1-.952,9.375h0Zm-24.976,13.7a2.5,2.5,0,0,0,1.9-.22q1.172-.511,1.172,1.318v2.783q0,1.758-2.05.22-2.126-1.684-4.175.732-2.052,2.051-2.051.293v-7.4a1.587,1.587,0,0,1,1.831-1.758h4.321q1.9,0,.22,1.9-1.832,1.832-1.172,2.124h0Zm24.17,15.894a1.587,1.587,0,0,1-1.831,1.758H460.6a1.587,1.587,0,0,1-1.758-1.831V70.262a1.587,1.587,0,0,1,1.831-1.758h6.226q1.683,0,1.684,1.9V81.981Zm-40.137-9.229V82.2q0,1.758-1.318.659a3.357,3.357,0,0,1-.806-3.076l0.953-6.152q0.219-2.05.732-2.417,0.44-.292.439,1.538h0Zm115.8-34.79q-1.758,2.2-3.515,2.2h-4.468a7.2,7.2,0,0,1-2.637-.366l-8.056-3.223q-2.2-.805-2.2,1.392v35.3a54.275,54.275,0,0,1-1.684,11.5,43.538,43.538,0,0,1-8.789,16.772q-1.906,2.124-1.538,2.71,0.365,0.512,2.563-.659,16.99-9.009,20.288-25.342,0.439-2.2,2.2-2.2h5.127a1.587,1.587,0,0,1,1.758,1.831v12.6a1.587,1.587,0,0,1-1.831,1.758h-6.006q-2.125,0-2.124.806,0,0.439,2.49,1.318a10.284,10.284,0,0,1,3.736,3.076,17.334,17.334,0,0,1,1.611,5.127,2.357,2.357,0,0,0,2.637,2.124,20.35,20.35,0,0,0,7.471-1.465q3.735-1.978,3.955-5.127V45.652a2.781,2.781,0,0,1,1.318-2.563q2.928-2.2-.806-3.516l-6.445-3.809q-2.125-1.244-4.468,1.465ZM492.309,91.136a1.746,1.746,0,0,0,2.2,1.978q3.368-.587,6.665-0.952a2.35,2.35,0,0,0,2.2-2.563v-3a1.587,1.587,0,0,1,1.831-1.758h1.758a1.587,1.587,0,0,1,1.758,1.831v1.245a1.807,1.807,0,0,0,2.2,2.051q3.368-.512,6.665-0.806a2.259,2.259,0,0,0,2.2-2.49v-37.5a3.7,3.7,0,0,1,1.612-3q1.319-1.538-.879-3.149l-5.42-3.369a2.955,2.955,0,0,0-4.1.806l-0.586.733a5.442,5.442,0,0,1-4.1,2.2,8.85,8.85,0,0,1-3.736-.806l-8.056-3.516q-2.2-1.025-2.2,1.172v50.9Zm50.976-36.475a1.587,1.587,0,0,1-1.831,1.758h-4.687a1.587,1.587,0,0,1-1.758-1.831V43.821a1.587,1.587,0,0,1,1.831-1.758h4.834q1.61,0,1.611,1.977v10.62Zm-34.57,5.713a1.587,1.587,0,0,1-1.831,1.758h-1.758a1.587,1.587,0,0,1-1.758-1.831V47.044a1.587,1.587,0,0,1,1.831-1.758h1.758a1.587,1.587,0,0,1,1.758,1.831V60.374Zm34.57,11.938a1.587,1.587,0,0,1-1.831,1.758H536.62q-1.758,0-1.611-2.2V60.228a1.587,1.587,0,0,1,1.831-1.758h4.687a1.587,1.587,0,0,1,1.758,1.831V72.313ZM508.715,81.1a1.587,1.587,0,0,1-1.831,1.758h-1.758a1.587,1.587,0,0,1-1.758-1.831V65.794a1.587,1.587,0,0,1,1.831-1.758h1.9q1.61,0,1.611,1.978V81.1Zm97.412-41.016q0,1.758-1.245,1.758a8.3,8.3,0,0,1-2.857-.879q-1.832-.951-3.662-1.684-2.2-.951-2.2,1.245V55.687q0,1.758-.879,1.172a1,1,0,0,0-1.318-.147q-0.439.294-.44-1.465V43.675a2.7,2.7,0,0,1,1.172-2.49q1.024-.951-1.758-2.857l-2.2-1.318q-2.2-1.318-3.662.146a4.478,4.478,0,0,1-3.223,1.465h-5.053q-1.832.294-5.054-1.392-2.2-.879-2.2,1.318v18.9q0,1.612-.66-0.146a4.315,4.315,0,0,0-.732-1.978q-0.294-.146-1.1,2.637a6.354,6.354,0,0,1-2.49,2.71,5.151,5.151,0,0,0-1.758,5.786q2.343,3.15,4.981,1.611,0.585-.292.586,1.465v32.959q0,1.978,2.49,1.612l4.687-.733a2.351,2.351,0,0,0,2.2-2.563V88.353a1.587,1.587,0,0,1,1.831-1.758h1.684a1.587,1.587,0,0,1,1.758,1.831v3.809q0,1.758-2.49,1.758-2.416,0-2.49.439a9.237,9.237,0,0,0,2.27,2.124,7.206,7.206,0,0,1,1.9,4.541,2.259,2.259,0,0,0,2.49,2.2l2.636-.293q4.395-.074,5.347-5.127V71.946a3.426,3.426,0,0,1,.293-1.977c0.147-.1.293-0.024,0.44,0.22q0.219,0.294,2.417.293H631.1q2.2,0,2.856-1.025,0.585-.951-1.392-2.564-1.832-1.464-1.391-1.611,0.44-.072.439-2.27V47.41a3.631,3.631,0,0,1,1.245-2.857q0.951-1.1.586-1.685l-5.566-3.516a2.653,2.653,0,0,0-3.735.659q-1.612,1.832-2.491,1.831t-0.879-2.2q0-2.123.44-2.344,1.464-.805.659-1.538-2.784-.366-5.347-0.513a1.807,1.807,0,0,0-2.2,2.051v2.783q0,1.758-.952,1.758-0.879,0-.879-2.2,0-2.05.586-2.417a5.686,5.686,0,0,0,.952-0.879q0-.366-2.2-0.879l-3.589-.22a1.773,1.773,0,0,0-2.124,2.051v2.783Zm-20.508,4.761a1.493,1.493,0,0,1-1.611,1.758,5.165,5.165,0,0,1-2.344-.513q-2.2-.951-2.2,1.245V57.371q0,1.758-.733,1.831Q578,59.13,578,57.371V42.43a1.587,1.587,0,0,1,1.831-1.758h4.1q1.683,0,1.684,1.9v2.27Zm20.508,4.907q0,1.758-.952,1.758-0.807,0-.806-1.831v-4.1q0-1.758.952-1.758,0.805,0,.806,1.831v4.1Zm8.2,0q0,1.758-.952,1.758-0.879,0-.879-1.831v-4.1q0-1.758.952-1.758,0.879,0,.879,1.831v4.1Zm8.2,0q0,1.758-.952,1.758-0.807,0-.806-1.831v-4.1q0-1.758.953-1.758,0.8,0,.805,1.831v4.1Zm-36.914,7.617q0,1.758-.732,1.831-0.733-.072-0.733-1.831v-7.1q0-1.758.806-1.758,0.659,0,.659,1.831v7.031Zm20.508,2.637q0,1.758-.952,1.758-0.807,0-.806-1.831V55.247q0-1.758.952-1.758,0.805,0,.806,1.9v4.614Zm8.2,0q0,1.758-.952,1.758-0.879,0-.879-1.831V55.247q0-1.758,1.025-1.758,0.806,0,.806,1.9v4.614Zm8.2,0q0,1.758-.952,1.758-0.807,0-.806-1.831V55.247q0-1.758.953-1.758,0.8,0,.805,1.9v4.614ZM589.5,64.256q-1.392-.731-3.076.879a4.762,4.762,0,0,1-3.369,1.611h-2.491q-1.832.294-6.518-1.685-2.2-.805-2.271-2.417,0-1.538,1.758-1.538h16.7q1.611,0,1.1,2.124-0.44,1.977-1.831,1.025h0Zm34.2,1.758q1.39-.072.293,1.172a3.983,3.983,0,0,1-3,1.318H597.851a4.206,4.206,0,0,1-2.857-.952q-1.026-.659.073-1.538,1.1-.731,1.1.073t2.2,0.659l3.809-.439q2.2-.292,2.2-1.465,0-1.1,1.831-1.1h14.649q1.683,0,1.684,1.245a0.939,0.939,0,0,0,1.172,1.025h0Zm-38.672,7.764a1.587,1.587,0,0,1-1.831,1.758h-1.684A1.587,1.587,0,0,1,579.76,73.7V70.555a1.587,1.587,0,0,1,1.831-1.758h1.831q1.61,0,1.611,1.978v3Zm33.252,0.879H608.69a6.773,6.773,0,0,1-4.028-.806l-5.127-1.685q-2.2-.659-2.2,1.538V89.085q0,2.2,1.684,1.978,0.951-.072,2.564,1.831a8.419,8.419,0,0,1,1.245,4.541q0.732,2.2-1.025,2.2h-4.688q-2.125,0-1.611,1.1,0.44,0.805,2.637.806h33.764q2.2,0,2.857-1.025,0.585-.879-1.758-2.783L632.128,97q-2.565-2.2-4.175-.293-2.344,3.807-4.321,2.93h-2.124q-1.832,0,.439-1.611,2.49-1.758,4.981-3.3,2.269-.367,2.563-0.879-0.439-1.612-3.442-2.27-4.542-1.1-.586-1.538a31.987,31.987,0,0,1,3.589-.513,2.35,2.35,0,0,0,2.2-2.564V80.955a2.1,2.1,0,0,1,.952-2.124q2.49-1.684-.805-3.3l-5.054-3.369a3.11,3.11,0,0,0-4.1.513,6.293,6.293,0,0,1-3.955,1.977h0Zm1.9,9.375a1.587,1.587,0,0,1-1.831,1.758H609.35a1.587,1.587,0,0,1-1.758-1.831V78.392a1.587,1.587,0,0,1,1.831-1.758h9.082q1.685,0,1.684,1.9v5.493Zm-35.156-1.172a1.587,1.587,0,0,1-1.831,1.758h-1.684a1.587,1.587,0,0,1-1.758-1.831V79.344a1.587,1.587,0,0,1,1.831-1.758h1.831q1.61,0,1.611,1.978v3.3Zm34.131,6.226q-1.026-.366-1.611,1.831l-1.758,6.519q-0.66,2.2-2.417,2.2H610.6q-1.758,0-.879-1.318,3.3-6.52-4.248-7.764-0.22-.22.952-0.586a1.213,1.213,0,0,0,1.172-1.245q0-.951,1.831-0.952h8.935q1.758,0,1.758.806,0.072,0.807-.952.513h0ZM678.2,50.633l-0.732,1.025a1.418,1.418,0,0,0-.879.586q-1.758,1.758-1.758-.366A2.8,2.8,0,0,1,676,49.388a2.34,2.34,0,0,0,.952-1.1q0-.44-2.124-1.9l-3.442-2.27a2.881,2.881,0,0,0-3.882.366,5.22,5.22,0,0,1-3.589,1.831h-8.276a6.993,6.993,0,0,1-3-.586q-1.246-.585,0-1.9a4.48,4.48,0,0,1,3.222-1.465h20.581q2.2,0,2.857-.952,0.585-.951-1.685-2.856L676.146,37.3q-2.271-1.83-4.028.22-2.125,3.809-4.175,2.93H657.47q-1.758,0-.952-0.952a5.262,5.262,0,0,1,1.538-1.025q1.537-.659.8-1.538a2.73,2.73,0,0,0-1.831-.732q-3.954-.659-7.91-1.1-1.9-.292-2.71,2.124a55.638,55.638,0,0,1-5.127,11.133q-1.758,2.271-1.538,2.637a10,10,0,0,0,2.49-.586,4.947,4.947,0,0,1,1.319-.513q2.123-1.1,1.9.806l-0.22,2.051q-0.368,2.2-2.124,2.2h-1.025q-2.2,0-1.831,1.025,0.512,1.026,2.417,1.025a1.454,1.454,0,0,1,1.684,1.831l-1.318,9.448q-0.294,2.271,2.49,2.051a30.692,30.692,0,0,1,3.662-.22,2.539,2.539,0,0,0,2.564-2.344q0.44-2.2,2.2-2.2h8.569q1.758,0,1.831.293,0.147,1.318-1.977.879h-2.856q-2.125,0-2.125.659,0,0.439,1.758.879,3.369,1.1,2.637,4.321-0.879,2.2-2.71,1.538l-4.98-1.172q-2.2-.366-2.564,0-0.219.367,2.271,2.93a14.56,14.56,0,0,1,2.2,3.735q0.806,2.271-1.026,2.344-4.175,0-8.349.22-2.416.148-2.051,2.564l0.44,2.93a27.827,27.827,0,0,0,1.245,6.3q1.243,1.318,2.2-.513,0.439-1.538,3.3-1.611,2.2-.44,1.025,1.318a34.065,34.065,0,0,1-8.276,8.13q-2.345,1.611-2.2,2.051,0.072,0.511,2.783.147a45.41,45.41,0,0,0,19.043-6.739,5.25,5.25,0,0,1,2.2-.806q2.2-.294,2.2,1.465v4.98q0,2.124,2.344,1.831l7.4-.879a2.26,2.26,0,0,0,2.2-2.49V87.327a2.163,2.163,0,0,1,1.831-2.2l10.107-2.2a2.551,2.551,0,0,1,3.15,1.245l0.586,1.831q2.2,6.592,7.324,2.71,3.367-3.955.879-7.324-3.516-3.807-11.646-5.273-2.49-.585-2.783-0.22-0.367.367,2.2,2.783,1.684,1.977-.073,2.051-6.666.148-13.33,0.513-2.492,0,.146-1.245l8.2-4.321a4.136,4.136,0,0,1,1.464-.586q2.49,0.148,2.124-1.758a17.138,17.138,0,0,0-2.563-1.758l-2.49-1.465q-2.492-1.538-.806-1.978l4.468-1.465q1.758-.731,3.735.952a58.185,58.185,0,0,0,7.324,4.761q2.563,1.246,3.077-1.172a11.082,11.082,0,0,1,3.369-6.006,7.012,7.012,0,0,0,2.417-1.977q0-.585-2.344-1.318l-4.761-1.465q-2.416-.805-1.245-2.49a38.172,38.172,0,0,0,4.4-10.474q0.658-2.2,1.977-2.2a2.328,2.328,0,0,0,1.9-1.1q0.586-.805-1.538-2.637-1.466-1.245-2.929-2.271a2.564,2.564,0,0,0-4.029.439q-3.075,4.614-4.98,3.662h-3.882q-1.612,0-.439-1.977,1.537-2.783,2.563-3.149,1.611-.731,1.172-1.392a5.554,5.554,0,0,0-2.49-1.025L685.3,34.813q-2.125-.292-2.783,2.637A68.272,68.272,0,0,1,678.2,50.633h0Zm13.4,1.1q-0.66,2.2-2.124.586a18.053,18.053,0,0,1-1.392-2.2q-1.392-2.343-.293-3.516a3.867,3.867,0,0,1,3.149-1.318q1.978,0,1.685,1.831a37.215,37.215,0,0,1-1.025,4.614h0Zm-34.058.952q0.44,2.271-1.831,2.27-2.2,0-2.051-1.758l0.44-2.783q0.365-2.2,1.318-2.2A9.381,9.381,0,0,1,657.1,50.56a4.288,4.288,0,0,1,.439,2.124h0Zm6.519-4.468a1.553,1.553,0,0,1,1.757,1.758l-0.073,2.783q-0.219,2.2-2.051,2.2-1.758,0-1.318-.513,2.2-3.3-1.172-5.127-2.784-1.1,0-1.1h2.857ZM686.327,58.25a3.285,3.285,0,0,1-.879,3.882,39.49,39.49,0,0,1-9.961,5.786q-2.271.953-1.9,1.9,0.293,0.659,2.93.22,2.269-.512.8,1.465L670.8,79.344a5.552,5.552,0,0,1-4.029,2.2q-2.124.074-1.611-1.392a9.223,9.223,0,0,0-.073-2.124q-0.368-.659,1.465-1.758l2.71-1.611q2.856-1.025,2.783-1.538a3.067,3.067,0,0,0-1.172-1.172q-0.659-.439.439-1.172a5.509,5.509,0,0,0,1.758-3q0.732-2.2,2.491-2.2h2.124q2.2,0,2.71-1.1,0.291-1.025-1.758-3.076-1.906-1.9-3.15-.073-1.392,1.905-1.025-.513l0.146-1.611q0.221-2.2,1.978-2.2h2.637q2.2,0,2.563-.952a1.709,1.709,0,0,0-.732-1.977q-1.1-.805,1.245-2.344,2.123-1.61,2.49.366a40.347,40.347,0,0,0,1.538,6.152h0Zm-30.029,3q0.585,2.271-1.831,2.271a1.617,1.617,0,0,1-1.831-2.051l0.293-2.2q0.291-2.269,1.1-2.27a6.523,6.523,0,0,1,1.685,2.124,4.516,4.516,0,0,1,.586,2.124h0ZM663.622,57a1.554,1.554,0,0,1,1.758,1.758l-0.293,2.563q-0.368,2.2-2.124,2.2t-1.025-1.245q1.464-2.489-1.758-4.321-1.686-.951,0-0.952h3.442Zm22.046,32.739q5.274,5.126,6.152,9.741a6.171,6.171,0,0,0,3.516,3.736q4.175,1.39,6.592-3.369,2.2-5.567-4.907-9.082a62.788,62.788,0,0,0-10.84-3.076q-2.2-.366-2.491,0-0.147.367,1.978,2.051h0Zm-17.139.293v2.051q0,1.758-2.05.366a17.2,17.2,0,0,0-2.051-1.392q-2.346-1.538-.366-1.9l1.318-.293,0.952-.22q2.2-.366,2.2,1.392h0Z"/>
</svg>
