<svg xmlns="http://www.w3.org/2000/svg" width="1200" height="140" viewBox="0 0 1200 140">
  <defs>
    <style>
      .cls-1 {
        fill-rule: evenodd;
      }
    </style>
  </defs>
  <path id="王漢宗中明體破音一" class="cls-1" d="M183.405,50.212a10.379,10.379,0,0,1-2.636,5.2q-1.247,1.392-2.344.659a56.288,56.288,0,0,0-6.153-3.735,3.512,3.512,0,0,0-1.025-.22q-0.44.074,1.172,1.245,2.269,1.686,4.541,3.516,1.391,1.1.366,2.2a83.743,83.743,0,0,1-7.544,6.079q-1.392,1.027-1.245,1.172a3.155,3.155,0,0,0,1.538-.513,28.582,28.582,0,0,0,8.57-5.713q1.024-1.025,2.417.146a37.919,37.919,0,0,1,4.687,4.907q1.1,1.173,2.051.293a1.069,1.069,0,0,0,.22-1.392,11.44,11.44,0,0,0-3.15-3.223q-1.318-1.1-2.71-2.124a1.284,1.284,0,0,1-.22-2.124,14.417,14.417,0,0,0,1.319-1.685,14.888,14.888,0,0,1,2.27-2.93q1.318-1.171-.146-2.2a1.9,1.9,0,0,0-1.538-.733,2.1,2.1,0,0,0-.44,1.172h0Zm9.449,18.53a53.454,53.454,0,0,0,7.1,4.761,4.216,4.216,0,0,0-.732-1.465q-2.125-2.709-4.322-5.273a1.193,1.193,0,0,0-2.05-.146q-1.173,1.172,0,2.124h0Zm-14.5,3.735a4.791,4.791,0,0,1,.366,1.978,12.125,12.125,0,0,1-.22,2.637,1.574,1.574,0,0,1-1.465,1.465q-2.271.22-4.541,0.293a10.607,10.607,0,0,0-1.684.073q-0.294.22,0.439,1.025a3.619,3.619,0,0,0,1.611.659l3.882-.732q1.245-.146.952,0.879-1.611,4.614-7.617,9.595-1.171,1.027-.952,1.318,0.146,0.22,1.538-.513,6-4.027,7.984-8.5,0.585-1.464.659,0l-0.22,3.149a8.2,8.2,0,0,0,.22,3.3,3.886,3.886,0,0,0,3.515,2.71h6.226a1.948,1.948,0,0,0,1.465-.732,0.789,0.789,0,0,0-.293-1.025,1.641,1.641,0,0,0-1.612-.22,25.379,25.379,0,0,1-5.786.366q-2.563-.659-2.417-2.49a25.718,25.718,0,0,1,.293-5.347,2.8,2.8,0,0,0,.074-1.392q-0.807-1.39.293-1.538a26.335,26.335,0,0,1,4.1-.146q1.977,0.439,2.637-.073a0.523,0.523,0,0,0,.22-0.806,1.394,1.394,0,0,0-1.026-.586,23.861,23.861,0,0,0-5.713.366q-1.392.074-1.245-1.1a18.492,18.492,0,0,1,.806-4.761,1.046,1.046,0,0,0-.586-0.806q-1.539-.805-2.271-0.147a1.548,1.548,0,0,0,.367,1.1h0Zm-31.275-29H101.008q-2.126,0-1.831,1.1,0.292,0.807,2.49.806H124.3a1.587,1.587,0,0,1,1.758,1.831V68.6a1.587,1.587,0,0,1-1.831,1.758H104.157q-1.977,0-1.684,1.172,0.219,0.807,2.417.806H124.3a1.587,1.587,0,0,1,1.758,1.831V97.673a1.587,1.587,0,0,1-1.831,1.758H96.613q-2.125,0-1.831,1.1,0.292,0.806,2.49.806h61.817q2.124,0,2.637-1.025,0.44-.953-2.271-3.077l-0.732-.586q-2.2-1.686-4.468.586-2.2,2.2-3.955,2.2H132.136a1.587,1.587,0,0,1-1.758-1.831V74.089a1.587,1.587,0,0,1,1.831-1.758H152.5q2.049,0,2.564-1.1,0.364-.951-2.344-3.076l-0.733-.586q-2.2-1.684-4.467.586-2.2,2.2-3.955,2.2H132.136a1.587,1.587,0,0,1-1.758-1.831V47.136a1.587,1.587,0,0,1,1.831-1.758h23.584q2.2,0,2.71-1.025,0.44-.951-1.685-2.637l-1.391-1.1q-2.126-1.61-4.395.659-2.2,2.2-3.955,2.2h0Zm139.16,6.812q-1.1-.366-1.245.659a4.473,4.473,0,0,1,.733,2.71,38.629,38.629,0,0,1-5.2,13.77q-1.026,1.758-.586,1.611a8.4,8.4,0,0,0,1.539-1.465,27.126,27.126,0,0,0,4.76-9.741l1.612-5.713a1.286,1.286,0,0,1,1.172-.439q7.542-.731,10.546-0.733a3.08,3.08,0,0,0,1.612-.513q0.365-.951-1.245-1.318a17.542,17.542,0,0,0-4.248.513,28.62,28.62,0,0,1-9.449.659h0Zm18.9,18.457a53.586,53.586,0,0,0,7.1,4.761,4.194,4.194,0,0,0-.732-1.465q-2.125-2.709-4.321-5.273a1.194,1.194,0,0,0-2.051-.146q-1.173,1.172,0,2.124h0Zm-9.961,3.3q-4.982.513-10.327,0.732a3.2,3.2,0,0,0-1.392.513,0.874,0.874,0,0,0,.659.586,2.406,2.406,0,0,1,1.172.879,6.851,6.851,0,0,1-2.417,6.006q-1.9,1.318-.806,3a1.256,1.256,0,0,0,1.246-.073,8.81,8.81,0,0,1,2.783-1.172,62.27,62.27,0,0,1,11.426-.806q1.537,0.293.952,1.318a23.827,23.827,0,0,1-3.955,6.958,7.1,7.1,0,0,0-1.465,1.685,0.631,0.631,0,0,0,.513.659,4.341,4.341,0,0,0,1.611-1.172,17.667,17.667,0,0,0,4.321-5.859A4.611,4.611,0,0,1,300.3,83.9q1.245-1.464,1.025-2.051-1.832-2.343-3.222-1.611a12.805,12.805,0,0,1-1.978.293q-1.392,0-.879-1.1a16.71,16.71,0,0,1,2.564-4.248,2.581,2.581,0,0,0,1.1-1.611,2.811,2.811,0,0,0-1.245-1.611,1.382,1.382,0,0,0-1.758-.293,1.271,1.271,0,0,1-.732.366h0Zm0.513,2.93q-1.1,2.2-2.344,4.468a2.152,2.152,0,0,1-1.758,1.245,42.883,42.883,0,0,0-5.64.586q-1.392.148-.586-1.025a18.916,18.916,0,0,0,.953-1.685,3.8,3.8,0,0,0,.219-3.442q-0.367-.659.733-1.1a36.8,36.8,0,0,1,8.349-.586q0.805,0.44.074,1.538h0ZM237.751,41.13a1.587,1.587,0,0,1-1.831,1.758h-7.4q-2.124,0-1.831,1.1,0.292,0.807,2.491.806h6.811a1.587,1.587,0,0,1,1.758,1.831v8.423q0,2.271,2.2,2.124A2.423,2.423,0,0,0,242,54.606q0-1.9,2.49-1.9,2.343,0,2.344,1.831v3.223A1.587,1.587,0,0,1,245,59.514h-9.3a3.635,3.635,0,0,1-3.369-.879q-2.2-1.1-2.2,1.1V72.624q0,2.345,1.977,2.27,3,0,2.271-2.27,0-1.171,1.831-1.172h8.716a1.52,1.52,0,0,1,1.684,1.831,11.22,11.22,0,0,1-.146,2.564q-0.294,2.2-2.051,2.2h-15.6q-2.124,0-1.831,1.1,0.292,0.807,2.491.806h14.8q1.683,0,1.318,1.978l-0.44,2.051q-0.732,2.2-2.49,2.2H224.641q-1.978,0-1.685,1.172,0.221,0.807,2.417.806h16.406q1.758,0,.952,1.758-6.811,10.253-17.138,12.671-2.271.585-1.978,1.392,0.439,0.951,2.93.366a53.167,53.167,0,0,0,10.254-3.809,22.931,22.931,0,0,0,10.254-9.961q1.17-2.343,2.051-.586,6.591,10.839,19.628,14.136,2.2,0.366,2.637-.586a5.8,5.8,0,0,1,1.758-2.124q1.245-.953,1.172-1.318,0-.44-2.783-0.659-12.014-.879-19.556-9.082-1.613-2.2.146-2.2h18.531q2.049,0,2.49-1.025a2.1,2.1,0,0,0,.293-1.1l-3.369-2.637q-2.2-1.61-4.395.586t-3.955,2.2H250.5q-1.611,0-1.1-1.978l0.513-2.051q0.512-2.2,2.271-2.2h14.355q2.2,0,2.71-1.025,0.512-.951-1.977-2.93-2.271-1.978-.733-2.124,1.539-.072,1.538-2.417V64.934a2.917,2.917,0,0,1,.733-2.344Q271.589,60.76,268,59q-2.125-1.464-3.3-.439a4.2,4.2,0,0,1-2.856.952h-9.009a1.587,1.587,0,0,1-1.758-1.831V54.46q0-1.758,2.49-1.758a2.072,2.072,0,0,1,2.344,2.344q0,2.271,2.2,2.124a2.553,2.553,0,0,0,2.051-2.783V46.55a1.587,1.587,0,0,1,1.831-1.758h8.35q2.2,0,2.783-1.025,0.366-1.025-1.685-2.71a3.443,3.443,0,0,1-.879-0.659,3.07,3.07,0,0,0-4.394.366,6.013,6.013,0,0,1-4.1,2.124,1.651,1.651,0,0,1-1.9-1.831q0-1.758.659-1.9,2.49-.879,1.172-2.563-0.368-.366-3.149-0.659l-0.733-.073a1.746,1.746,0,0,0-2.2,1.978v3.3a1.587,1.587,0,0,1-1.831,1.758H243.757A1.587,1.587,0,0,1,242,41.057a1.859,1.859,0,0,1,1.172-2.051q1.977-1.025.732-2.344a5.8,5.8,0,0,0-2.05-.586l-2.051-.293q-2.052-.22-2.051,2.124V41.13Zm-23.291-.586a19.349,19.349,0,0,1,4.175,5.347,9.316,9.316,0,0,0,1.318,1.758q2.27,1.246,3.15-1.318a4.755,4.755,0,0,0-1.026-3.223q-2.49-3.3-7.837-4.834-2.125-.731-2.417-0.073-0.219.587,2.637,2.344h0Zm41.455,8.5a1.587,1.587,0,0,1-1.831,1.758H243.757A1.587,1.587,0,0,1,242,48.967V46.55a1.587,1.587,0,0,1,1.831-1.758h10.4q1.685,0,1.685,1.9V49.04ZM213.508,81.12q-1.758,3.224-4.688,3.3-2.2.22-2.343,1.025-0.075.807,2.124,1.1a6.227,6.227,0,0,1,3.369,1.025q1.024,3.224.293,8.862a21.837,21.837,0,0,0,.366,6.006,2.834,2.834,0,0,0,2.124,2.343,2.264,2.264,0,0,0,2.563-1.611q1.172-3.663-1.464-11.352a10.041,10.041,0,0,1-.44-5.273,110.364,110.364,0,0,1,4.1-11.719l8.5-22.559q0.879-2.2,0-2.564-0.807-.292-1.831,2.124-6.447,14.65-12.671,29.3h0Zm-4.1-23a14.221,14.221,0,0,1,3.516,5.127,3.544,3.544,0,0,0,2.856,3.076q2.709-.585,1.392-4.1-1.831-3.807-7.178-6.079-2.2-.879-2.563-0.293-0.294.587,1.977,2.271h0Zm37.427,9.668A1.587,1.587,0,0,1,245,69.548H236.14a1.587,1.587,0,0,1-1.758-1.831V63.249a1.587,1.587,0,0,1,1.831-1.758h9.009q1.609,0,1.611,1.978V67.79Zm16.992,0a1.587,1.587,0,0,1-1.831,1.758h-9.155a1.587,1.587,0,0,1-1.758-1.831V63.249a1.587,1.587,0,0,1,1.831-1.758h9.3q1.609,0,1.611,1.978V67.79Zm-1.538,8.276a5.545,5.545,0,0,1-3.735,1.977H252.4a1.456,1.456,0,0,1-1.611-1.831,11.8,11.8,0,0,0,.147-2.564q0.072-2.2,1.9-2.2h9.3q1.683,0,1.684,1.392a4.552,4.552,0,0,1-1.538,3.223h0Zm145.532-34.5-10.766,1.1a3.006,3.006,0,0,0-1.465.586,0.694,0.694,0,0,0,.586.659,2.091,2.091,0,0,0,1.391.366l3.882-.659q1.391-.22,1.465.879l0.366,4.028v3.516a37.657,37.657,0,0,0-.219,5.054,2.982,2.982,0,0,0,.146.952q0.732,1.318,1.025,1.245a1.868,1.868,0,0,0,.733-1.831V53.8l-0.44-9.595a1.127,1.127,0,0,1,1.172-1.172l2.491-.293a2.707,2.707,0,0,1,2.2.22,1.477,1.477,0,0,1,.366,1.318,33.827,33.827,0,0,1-.513,3.882,2.738,2.738,0,0,1-1.172,2.417,5.777,5.777,0,0,1-1.611-.366q-1.392-.511-1.465-0.293c-0.195.293,0.048,0.611,0.733,0.952a6.423,6.423,0,0,1,1.245,1.318q0.805,2.051,2.417.146a14.487,14.487,0,0,0,2.124-6.958,12.213,12.213,0,0,1,.586-2.71,0.743,0.743,0,0,0-.293-0.879,3.483,3.483,0,0,0-3.662-.366,6.021,6.021,0,0,1-1.319.146h0Zm1.245,23a8.694,8.694,0,0,1-1.9,2.637,2.115,2.115,0,0,1-2.49.586L399.4,65.519a5.183,5.183,0,0,0-1.611-.366q-0.294.148,1.392,1.1l4.175,2.27q1.391,0.807.219,1.611a51.623,51.623,0,0,1-6.884,4.248q-1.394.807-1.246,0.952a26,26,0,0,0,9.522-4.395,1.949,1.949,0,0,1,2.417.073l1.391,1.025a22.065,22.065,0,0,1,2.784,2.27q1.683,1.318,2.124-.732a5.492,5.492,0,0,0-1.245-1.392,41.049,41.049,0,0,0-3.882-2.27q-1.173-.731-0.073-1.758l1.977-1.977a4.615,4.615,0,0,0,1.465-1.465,2.958,2.958,0,0,0-.952-1.318,1.148,1.148,0,0,0-1.538-.22,11.722,11.722,0,0,1-.367,1.392h0ZM404.743,83.83q0.22,1.246-1.465,3.809a32.244,32.244,0,0,1-6.518,8.642q-1.979,1.1-.659,3a2.284,2.284,0,0,0,1.757-.147,39.38,39.38,0,0,1,15.674-1.245q1.758-.367.293-1.611a4.008,4.008,0,0,0-3-.439q-5.787.879-11.059,1.245a1,1,0,0,1-.952-0.293,2.034,2.034,0,0,1,.659-1.318l7.031-9.522a7.742,7.742,0,0,0,1.1-1.758,2.526,2.526,0,0,0-3.15-2.051,6.728,6.728,0,0,0,.293,1.685h0ZM351.862,43.986a1.587,1.587,0,0,1-1.831,1.758H330.842q-1.758,0-1.758-1.538,0.072-1.318-.732-1.245-0.439.074-.879,2.27-1.1,4.834-6.519,9.375-1.1,2.2,1.392,3,2.343,0.439,4.1-2.563a24.162,24.162,0,0,0,1.9-5.127q0.512-2.2,2.27-2.2h47.241q1.758,0,1.1,1.758a32.793,32.793,0,0,1-2.271,3.955q-1.465,2.051-.879,2.563,0.586,0.44,3.223-2.051a6.283,6.283,0,0,0,1.392-1.392q2.562-3.516,4.614-2.637,1.537,0.294,1.9-1.758-0.073-.585-2.856-3.149-1.832-1.61-3.516-.439a5.335,5.335,0,0,1-3.3,1.172H357.941a1.586,1.586,0,0,1-1.757-1.831q-0.515-4.027,1.025-5.347,1.9-1.318.586-2.344l-3.882-.733q-2.051-.292-2.051,2.051v6.445Zm11.353,15.308H334.431q-2.125,0-1.831,1.1,0.291,0.807,2.49.806h36.987q1.979,0,2.564-1.025,0.44-.805-1.612-2.637l-1.391-1.1q-2.2-1.61-4.468.659-2.2,2.2-3.955,2.2h0Zm11.719,12.3H323.371q-2.125,0-1.831,1.1,0.292,0.807,2.49.806H350.1a1.587,1.587,0,0,1,1.758,1.831V97.526a2.441,2.441,0,0,1-2.783,2.27l-3.808-.586q-2.2-.439-2.491.44-0.147.878,2.051,1.758,3.516,1.464,4.1,3.223,0.219,1.1,2.417.439,4.465-1.684,4.834-5.346V75.261a1.587,1.587,0,0,1,1.831-1.758h25.634q2.2,0,2.71-1.025,0.44-.951-1.757-2.71l-1.319-1.025q-2.126-1.61-4.394.659-2.2,2.2-3.955,2.2h0Zm-52.588,26.66q-2.126,1.977-1.612,2.71,0.366,0.44,2.784-1.026a45.907,45.907,0,0,0,13.11-13.477q1.61-2.343,2.563-2.2a2.091,2.091,0,0,0,1.319-.513q-0.149-1.83-3.15-2.783-2.2-1.171-3.076,1.025a47.982,47.982,0,0,1-11.938,16.26h0Zm44.238-14.722a37.313,37.313,0,0,1,12.451,15.234,5.526,5.526,0,0,0,1.392,1.685q2.269,0.585,2.783-1.1a4.441,4.441,0,0,0-.513-3.735,41.769,41.769,0,0,0-15.381-13.77q-1.977-.879-2.563-0.073-0.294.587,1.831,1.758h0ZM514.826,41.276a6.057,6.057,0,0,0,.659,1.245,24.712,24.712,0,0,1,.44,6.592,1.13,1.13,0,0,1-1.1,1.245l-1.465.146a4,4,0,0,1-1.611,0,1.7,1.7,0,0,1-.366-1.318,3.859,3.859,0,0,0-.073-2.783,1.427,1.427,0,0,0-1.392-.952q-0.513,0,0,1.611a6.774,6.774,0,0,1-.147,3.369,4.4,4.4,0,0,0-.512,1.758q0.585,1.318,1.538.732a9.371,9.371,0,0,1,3.735-1.245A1.305,1.305,0,0,1,516,53.068V54.68a1.13,1.13,0,0,1-1.1,1.245q-2.563.22-5.127,0.586a4.486,4.486,0,0,1-1.391.073q-1.392-.585-1.831.22-0.074.22,1.245,1.1a2.547,2.547,0,0,0,1.392.366,55.663,55.663,0,0,1,9.667-1.245,27,27,0,0,1,6.812.073,5.079,5.079,0,0,0,1.538.293q0.951-.951-0.073-1.538a3.12,3.12,0,0,0-2.783-.659,22.431,22.431,0,0,1-5.567.439,1.08,1.08,0,0,1-1.391-1.1v-1.9a1.13,1.13,0,0,1,1.1-1.245,12.084,12.084,0,0,1,1.831-.147q1.319,0,1.392.806,0.072,1.026.879,0.659a3.805,3.805,0,0,0,.732-2.93,12.058,12.058,0,0,1,.659-3.882,0.878,0.878,0,0,0-.585-1.025,3.1,3.1,0,0,0-1.612-.366,3.273,3.273,0,0,0,.073,1.538,7.252,7.252,0,0,1,0,2.563,1.261,1.261,0,0,1-1.245,1.392l-1.758.073q-1.392,0-1.391-1.1a25.634,25.634,0,0,1,.366-6.226,1.158,1.158,0,0,0-.439-1.318,1.994,1.994,0,0,0-2.2-.659,0.921,0.921,0,0,0-.366.513h0Zm6.006,23.291a8.728,8.728,0,0,1-1.9,2.637,2.115,2.115,0,0,1-2.49.586l-5.274-2.271a5.183,5.183,0,0,0-1.611-.366q-0.294.148,1.391,1.1l4.175,2.27q1.391,0.807.22,1.611a51.7,51.7,0,0,1-6.885,4.248q-1.392.807-1.245,0.952a25.993,25.993,0,0,0,9.521-4.395,1.949,1.949,0,0,1,2.417.073l1.392,1.025a21.974,21.974,0,0,1,2.783,2.27q1.685,1.318,2.124-.732a5.469,5.469,0,0,0-1.245-1.392,40.923,40.923,0,0,0-3.882-2.27q-1.171-.731-0.073-1.758l1.978-1.977a4.606,4.606,0,0,0,1.464-1.465,2.942,2.942,0,0,0-.952-1.318,1.148,1.148,0,0,0-1.538-.22,11.534,11.534,0,0,1-.366,1.392h0Zm10.034,13.916q2.418,1.612,4.834,2.93a9.408,9.408,0,0,0,1.538.732q0.147-.146-0.879-1.538-2.345-2.563-4.834-4.834a0.791,0.791,0,0,0-.8,0q-2.346,1.758.146,2.71h0ZM516.511,83.83q0.219,1.246-1.465,3.809a32.266,32.266,0,0,1-6.519,8.642q-1.977,1.1-.659,3a2.287,2.287,0,0,0,1.758-.147A39.379,39.379,0,0,1,525.3,97.893q1.758-.367.293-1.611a4.009,4.009,0,0,0-3-.439q-5.787.879-11.06,1.245a1,1,0,0,1-.952-0.293,2.04,2.04,0,0,1,.659-1.318l7.032-9.522a7.715,7.715,0,0,0,1.1-1.758,2.524,2.524,0,0,0-3.149-2.051,6.728,6.728,0,0,0,.293,1.685h0Zm-52.881-34.2a1.587,1.587,0,0,1-1.831,1.758h-18.97a3.332,3.332,0,0,1-3.369-.952q-2.2-1.1-2.2,1.1V82.951q0,2.271,2.856,2.051a2.753,2.753,0,0,0,1.245-.513,26.832,26.832,0,0,0,.147-3.955,1.587,1.587,0,0,1,1.831-1.758h18.53a1.587,1.587,0,0,1,1.758,1.831v21.9q0,2.343,1.977,2.2a5.753,5.753,0,0,0,2.2-.513,10.413,10.413,0,0,0,.146-2.49V80.534a1.587,1.587,0,0,1,1.831-1.758h18.75a1.587,1.587,0,0,1,1.758,1.831v1.831q0,2.271,2.783,2.051,2.2,0,1.465-2.637V57.17q-0.44-2.05,1.172-2.637a1.6,1.6,0,0,0,1.392-1.025q0.44-1.83-2.857-3.076-2.2-1.318-3.589-.22a4.755,4.755,0,0,1-3.149,1.172h-17.8a1.587,1.587,0,0,1-1.758-1.831v-7.4a3.208,3.208,0,0,1,1.245-2.71q2.124-1.1.733-2.49a9.9,9.9,0,0,0-4.1-.879q-2.2-.439-2.2,1.831V49.626Zm0,25.415A1.587,1.587,0,0,1,461.8,76.8h-18.53a1.587,1.587,0,0,1-1.758-1.831V55.046a1.587,1.587,0,0,1,1.831-1.758h18.53a1.587,1.587,0,0,1,1.758,1.831V75.041Zm26.66,0a1.587,1.587,0,0,1-1.831,1.758h-18.75a1.587,1.587,0,0,1-1.758-1.831V55.046a1.587,1.587,0,0,1,1.831-1.758h18.75a1.587,1.587,0,0,1,1.758,1.831V75.041ZM624.03,43.254a7.084,7.084,0,0,1-2.49,0,4.22,4.22,0,0,0-1.611.073,3,3,0,0,0,.439,1.611,23.549,23.549,0,0,1,.586,9.375q-0.368,2.711,1.1,3.809c0.293,0.146.536-.024,0.732-0.513a2.183,2.183,0,0,0,.147-1.392L622.2,45.012a2.709,2.709,0,0,1,1.172-.366q4.907-.731,10.4-1.318a1.828,1.828,0,0,1,1.832.659,3.609,3.609,0,0,1,.219,2.051q-0.513,5.567-.8,11.06a1.685,1.685,0,0,0,.366,1.465q0.512,0.659.952-.147a3.034,3.034,0,0,0,.586-1.684,70.114,70.114,0,0,1,.732-11.792,8.129,8.129,0,0,0,.22-1.392q-0.734-1.61-1.611-1.611a7.82,7.82,0,0,0-2.637,0q-4.323.807-9.6,1.318h0Zm9.3,26.147-11.06.806-1.391-.146a4.1,4.1,0,0,0-1.685-.073q-0.219.148,0.44,1.025a3.366,3.366,0,0,0,2.856,1.1,32.8,32.8,0,0,1,8.057-1.392h3.882q1.61,0.074,3.222.293,1.758,0.074,1.612-1.172a2.175,2.175,0,0,0-1.172-.586,4.215,4.215,0,0,0-3.443,0Zm8.789,11.426q0.879,1.978,2.271.879a36.323,36.323,0,0,0,4.321-4.761q0.806-1.391.586-1.538L643,79.436q-1.1.659-.879,1.392h0Zm-13.11,2.2,0.073,0.732a5.165,5.165,0,0,1-.146,1.465q-3.736,7.4-7.471,10.986a2.72,2.72,0,0,0-1.319,1.9,2.635,2.635,0,0,0,.586,1.172,2.772,2.772,0,0,0,1.758-.22,41.474,41.474,0,0,1,14.356-1.318,3.788,3.788,0,0,0,1.245.073q0.879-.367.659-0.806a3.093,3.093,0,0,0-3.223-1.245,85.044,85.044,0,0,1-10.84,1.245,3.292,3.292,0,0,1-1.318-.147,2.04,2.04,0,0,1,.659-1.318q4.907-6.957,7.984-11.059a2.352,2.352,0,0,0-1.612-2.27q-1.392-.292-1.464-0.073a1.974,1.974,0,0,0,.073.879h0ZM601.4,39.3H586.6a3.213,3.213,0,0,1-3-.732q-2.2-1.245-2.2.952v13.33q-0.147,11.793-.586,15.967a91.933,91.933,0,0,1-2.124,11.719Q575.837,94.3,561.555,102.8q-1.906,1.17-1.319,2.124,0.221,0.366,2.71-.733Q579.718,96.062,583.6,79.8q0.585-2.2,2.343-2.2H602.5a1.587,1.587,0,0,1,1.758,1.831v17.5q0.291,3.368-3.443,2.637a16.171,16.171,0,0,0-2.636-.366q-2.2-.367-2.417.44-0.073.8,2.124,1.538,2.928,0.951,3.3,2.784,0.365,1.1,2.563.659a6.183,6.183,0,0,0,4.834-4.1V44.792a1.994,1.994,0,0,1,1.172-2.124q2.343-1.538-1.392-3.882-2.2-1.83-3.735-.659A5.042,5.042,0,0,1,601.4,39.3h0ZM546.76,84.709q0,2.345,2.124,2.27a4.182,4.182,0,0,0,2.051-.806A30.827,30.827,0,0,0,551.081,82a1.587,1.587,0,0,1,1.831-1.758h11.206a1.587,1.587,0,0,1,1.758,1.831V83.9q0,2.271,2.856,2.124,2.124-.659,1.392-3.076V46.4q0-1.758,1.245-2.051,4.1-1.538-.513-5.054-2.2-2.2-3.955-.439a4.907,4.907,0,0,1-3.442,1.685h-10.62q-1.758.587-3.809-1.684-2.271-1.684-2.27.513V84.709Zm57.5-29.224a1.587,1.587,0,0,1-1.831,1.758H587.482a1.587,1.587,0,0,1-1.757-1.831V43.034a1.587,1.587,0,0,1,1.831-1.758H602.5a1.587,1.587,0,0,1,1.758,1.831V55.485Zm-38.379,2.27a1.587,1.587,0,0,1-1.831,1.758H552.839a1.587,1.587,0,0,1-1.758-1.831V44.206a1.587,1.587,0,0,1,1.831-1.758h11.353q1.609,0,1.611,1.978v13.33Zm38.379,16.187a1.587,1.587,0,0,1-1.831,1.758H586.311a1.421,1.421,0,0,1-1.612-1.758q0.585-4.686.879-12.6,0.145-2.2,1.9-2.2H602.5a1.587,1.587,0,0,1,1.758,1.831V73.942Zm-38.379,2.563a1.587,1.587,0,0,1-1.831,1.758H552.839a1.587,1.587,0,0,1-1.758-1.831V63.249a1.587,1.587,0,0,1,1.831-1.758h11.353q1.609,0,1.611,1.978V76.506ZM740.559,48.894a10.21,10.21,0,0,1-.953,5.713A1.741,1.741,0,0,1,738,56l-5.933.293q-1.465.22-1.025,0.879a2.35,2.35,0,0,0,2.857.806q1.683-.439,3.442-0.732,1.319-.146.952,1.025a20.191,20.191,0,0,1-2.71,5.2,2.269,2.269,0,0,0-.439,1.245,1.752,1.752,0,0,0,2.05,1.392,14.925,14.925,0,0,1,2.784-.733l5.273-.806a1.755,1.755,0,0,1,1.831.952l0.879,1.1q0.511,0.513.879,0.146,0.951-1.464-1.758-4.321-1.832-2.05-2.856-2.124-0.221,0,.659,1.685,0.806,1.318-.366,1.538-2.931.513-5.86,0.879-1.319.22-1.391-.732a7.174,7.174,0,0,1,.659-1.611q0.73-1.9,1.611-3.735a2.021,2.021,0,0,1,1.685-1.465q6.738-.659,8.935,0a5.73,5.73,0,0,0,1.538.146q0.879-.805-0.073-1.392a2.69,2.69,0,0,0-2.783-.439q-3.444.367-6.958,0.586-1.318.074-.879-1.025a39.68,39.68,0,0,0,1.758-5.127,1.857,1.857,0,0,0-.293-1.685q-1.1-1.1-1.9-.586a3.384,3.384,0,0,0,0,1.538h0ZM757.478,73.43q1.538,1.977,3-.879l2.857-5.493a2.59,2.59,0,0,0,.22-1.392,1.124,1.124,0,0,0-.513.293q-1.392,1.538-2.93,3.076a1.945,1.945,0,0,1-2.783,0l-2.344-2.417q-1.247-1.1-1.245-.733Zm-11.06,7.324-11.06.732a6.716,6.716,0,0,1-2.636-.073,4.229,4.229,0,0,0-1.612.073q-0.147.22,0.66,1.1a4.268,4.268,0,0,0,2.2.879,39.2,39.2,0,0,0,4.175-.806q2.782-.366,5.566-0.513h3.516l3.149,0.147a1.581,1.581,0,0,0,1.392-.147q0.585-.366.293-0.732a2.407,2.407,0,0,0-1.172-.806,5.667,5.667,0,0,0-3.076-.147,2.179,2.179,0,0,1-1.392.293h0Zm-47.534-39.99a1.587,1.587,0,0,1-1.831,1.758h-3a5.525,5.525,0,0,1-2.637-.586q-2.2-1.1-2.2,1.1V57.243q0,1.758-2.051.146-1.977-1.684-3.516-.439t-1.538-.659V44.865a2.213,2.213,0,0,1,1.465-3,2.351,2.351,0,0,0,1.245-1.1q-0.219-1.318-2.783-2.637-2.271-1.538-3.662-.513a4.757,4.757,0,0,1-3.149,1.172h-6.958a3.094,3.094,0,0,1-3.223-.952q-2.2-1.245-2.2.952v17.5q0,1.758-1.1,1.758-0.952,0-1.1-1.318a1.058,1.058,0,0,0-.879-1.1q-0.659.074-.878,2.27a19.847,19.847,0,0,1-3.443,6.885,1.5,1.5,0,0,0,.586,1.831q0.585,0.659,2.051.146,1.758-1.1,2.344-4.541,0.364-2.2,2.124-2.2h18.9q1.539,0,1.245,2.051l-0.219.659q-0.733,2.2-.513,2.564l0.732,0.513a10.555,10.555,0,0,0,2.344-2.2q1.684-2.417,3.076-1.9,1.1,0,1.1,1.978,0,2.2,1.977,2.124a4.572,4.572,0,0,0,2.124-.732,3.321,3.321,0,0,0,.147-1.245q0-.879,1.831-0.879h20.581q1.758,0,1.758,1.245,0,1.318,1.172,1.1,0.8-.072-0.367,1.611a3.223,3.223,0,0,1-2.783,1.465h-27.1q-2.126,0-1.831,1.1,0.291,0.807,2.49.806h33.105q2.05,0,2.344-1.025,0.145-.805-1.611-2.564a4.769,4.769,0,0,1-1.172-3.516V48.381q-0.513-2.417,1.684-2.783,1.539-1.025.733-2.271l-2.637-1.611q-2.344-1.391-3.589-.366a5.269,5.269,0,0,1-3.515,1.172q-2.052,0-2.051-1.1a2.92,2.92,0,0,1,.586-1.758q2.2-1.83,1.172-2.783a35.671,35.671,0,0,0-3.809-.806q-2.2-.292-2.2,1.9v2.783a1.587,1.587,0,0,1-1.831,1.758H704.89q-1.758,0-1.758-1.1a3.016,3.016,0,0,1,.659-1.831,14.072,14.072,0,0,0,1.465-1.9q-0.22-1.1-2.124-1.245l-2.124-.366q-2.126-.366-2.124,1.9v2.783ZM677.79,45.158q0,1.758-2.124,1.758a5.494,5.494,0,0,1-2.856-.659q-2.2-1.245-2.2.952v9.082a1.587,1.587,0,0,1-1.831,1.758,1.556,1.556,0,0,1-1.684-1.831V42.448a1.587,1.587,0,0,1,1.831-1.758h7.177q1.684,0,1.685,1.9v2.563Zm21.094,4.688a1.587,1.587,0,0,1-1.831,1.758h-1.831a1.587,1.587,0,0,1-1.758-1.831V46.257A1.587,1.587,0,0,1,695.3,44.5h1.831a1.587,1.587,0,0,1,1.758,1.831v3.516Zm9.375,0a1.587,1.587,0,0,1-1.831,1.758H704.89a1.587,1.587,0,0,1-1.758-1.831V46.257a1.587,1.587,0,0,1,1.831-1.758H706.5a1.587,1.587,0,0,1,1.758,1.831v3.516Zm9.375,0A1.587,1.587,0,0,1,715.8,51.6h-1.538a1.587,1.587,0,0,1-1.758-1.831V46.257a1.587,1.587,0,0,1,1.831-1.758h1.538a1.587,1.587,0,0,1,1.758,1.831v3.516ZM677.79,56.291a1.522,1.522,0,0,1-1.685,1.758q-1.537,0-1.538-1.831V50.651a1.522,1.522,0,0,1,1.685-1.758q1.538,0,1.538,1.831v5.566Zm21.094,2.93a1.587,1.587,0,0,1-1.831,1.758h-1.831a1.587,1.587,0,0,1-1.758-1.831V55.339a1.587,1.587,0,0,1,1.831-1.758h1.9q1.685,0,1.685,1.9v3.735Zm9.375,0a1.587,1.587,0,0,1-1.831,1.758H704.89a1.587,1.587,0,0,1-1.758-1.831V55.339a1.587,1.587,0,0,1,1.831-1.758h1.611q1.685,0,1.685,1.9v3.735Zm9.375,0a1.587,1.587,0,0,1-1.831,1.758h-1.538a1.587,1.587,0,0,1-1.758-1.831V55.339a1.587,1.587,0,0,1,1.831-1.758h1.611q1.685,0,1.685,1.9v3.735Zm-54.785,43.945q0,2.27,2.856,2.051,2.124-.439,1.392-2.93V89.909a1.587,1.587,0,0,1,1.831-1.758h6.518a1.587,1.587,0,0,1,1.758,1.831v7.91q0.66,3.3-2.71,2.27-1.977-.367-2.124.733a1.141,1.141,0,0,0,.879,1.171q2.269,1.172,2.271,2.417,0.219,0.951,2.856.367a3.655,3.655,0,0,0,3.076-3.443V72.844q0-1.83.659-2.124,3.222-1.61-.586-3.809-2.345-1.9-3.369-.952a3.927,3.927,0,0,1-2.783.952h-6.958a3.333,3.333,0,0,1-3.369-.952q-2.2-1.171-2.2,1.025v36.182ZM677.2,74.748a1.587,1.587,0,0,1-1.831,1.758h-6.519a1.587,1.587,0,0,1-1.757-1.831v-4.1a1.587,1.587,0,0,1,1.831-1.758h6.665q1.61,0,1.611,1.978v3.955ZM690.681,89.1q0,2.271,1.977,2.2,3,0,2.271-2.27,0-1.171,1.831-1.172h17.358a1.493,1.493,0,0,1,1.758,1.611q0,1.538,2.124,1.465,2.124-.146,2.124-2.564V81.34A2.465,2.465,0,0,1,721.149,79q2.345-2.269-1.1-3.589-2.052-1.39-3.223-.439a4.285,4.285,0,0,1-2.93,1.025H696.247a3.333,3.333,0,0,1-3.369-.952q-2.2-1.1-2.2,1.1V89.1Zm25.195-4.98a1.587,1.587,0,0,1-1.831,1.758H696.687a1.587,1.587,0,0,1-1.758-1.831V79.655A1.587,1.587,0,0,1,696.76,77.9h17.358a1.587,1.587,0,0,1,1.758,1.831v4.395Zm-38.672.293a1.587,1.587,0,0,1-1.831,1.758h-6.519a1.586,1.586,0,0,1-1.757-1.831v-4.1a1.587,1.587,0,0,1,1.831-1.758h6.592q1.683,0,1.684,1.9v4.028Zm31.86,14.575q-0.877,2.2-2.636,2.2H686.506q-2.125,0-1.831,1.1,0.291,0.805,2.49.806h35.449q1.978,0,2.271-1.026,0.219-.732-1.978-3.076-2.051-2.125-3.589,0-1.611,2.2-3.369,2.2h-3.662q-1.758,0-.439-1.831l1.757-2.71q1.466-2.784,2.637-2.637a1.215,1.215,0,0,0,1.1-1.172,1.664,1.664,0,0,0-1.978-1.318l-2.2-.439q-1.977-.512-2.417,1.9a35.988,35.988,0,0,1-1.685,6.006h0Zm-12.6-4.175a23.552,23.552,0,0,1,.512,4.1,2.286,2.286,0,0,0,1.758,1.318,1.963,1.963,0,0,0,2.2-1.684q0.879-2.345-2.344-5.493-2.2-1.61-2.71-1.1t0.586,2.856h0ZM851.228,50.139a7.369,7.369,0,0,1-3.223,3.735Q846.54,54.9,847.419,56a2.831,2.831,0,0,0,1.465-.146,23.6,23.6,0,0,1,7.544-1.318,3.588,3.588,0,0,1,1.465.293q-0.149,1.686-2.564,4.395a1.7,1.7,0,0,1-2.051.732L849.25,58.2q-1.392-.585-1.465-0.366-0.073.294,1.172,1.1a27.693,27.693,0,0,1,3,1.831q1.17,0.733-.073,1.831A63.69,63.69,0,0,1,844.27,67.5q-1.319.807-1.246,1.025,0.147,0.294,1.831-.366a39.584,39.584,0,0,0,8.716-4.834,1.71,1.71,0,0,1,2.2-.146,38.266,38.266,0,0,1,4.321,3.516,4.442,4.442,0,0,0,2.051,1.465,0.665,0.665,0,0,0,.952-0.586,6.7,6.7,0,0,0-3.516-4.248q-1.246-.805-2.417-1.465-1.171-.585.073-1.9a20.809,20.809,0,0,0,1.978-2.783,7.368,7.368,0,0,1,2.2-2.563,1.062,1.062,0,0,0,0-1.392q-0.879-1.025-2.71-.22a13.211,13.211,0,0,1-2.783.366l-2.783.22q-1.392.439-1.758-.366,0.585-1.1,1.318-2.2l0.953-1.392a1.051,1.051,0,0,0,.293-1.1,1.576,1.576,0,0,0-1.9-1.245,1.14,1.14,0,0,0-.146.806,3.174,3.174,0,0,1-.659,2.051h0ZM868,68.742a53.586,53.586,0,0,0,7.1,4.761,4.172,4.172,0,0,0-.732-1.465q-2.125-2.709-4.321-5.273A1.194,1.194,0,0,0,868,66.618q-1.173,1.172,0,2.124h0Zm-18.384,7.4a27.3,27.3,0,0,1-3.662.293q-1.466,0-1.538.293a1.275,1.275,0,0,0,.366.659,3.06,3.06,0,0,0,2.564.732,33.178,33.178,0,0,1,5.566-1.025,1.081,1.081,0,0,1,1.392,1.1v3.735a1.073,1.073,0,0,1-1.538.732,9.08,9.08,0,0,0-4.175.366,4.856,4.856,0,0,0-2.417,2.27q-1.392,2.711,1.245,5.054,3.222,2.637,8.5,2.344a11.768,11.768,0,0,0,5.566-1.9q1.466-.879,1.172-1.9-0.147-.292-1.538.22a15.724,15.724,0,0,1-5.932,1.978,13.188,13.188,0,0,1-5.274-.952,4.687,4.687,0,0,1-1.9-2.124q-0.513-3.516,2.93-3.882a6.43,6.43,0,0,1,3.076.733q1.61,0.587,1.831-1.538V78.044a1.261,1.261,0,0,1,1.391-1.245,35.147,35.147,0,0,1,4.029.147,3.127,3.127,0,0,0,2.124-.073,1.553,1.553,0,0,0,.512-0.293,0.852,0.852,0,0,0-.439-1.392,7,7,0,0,0-2.2-.147l-3.3.366ZM814.68,45.817a1.587,1.587,0,0,1-1.831,1.758h-6.592q-1.612.44-4.028-1.465-2.2-1.391-2.2.806V62.59a147.411,147.411,0,0,1-3,27.393,37.534,37.534,0,0,1-4.76,11.573q-1.393,2.2-.879,2.71,0.511,0.44,2.49-1.685,1.464-1.9,2.563-3.589a62.009,62.009,0,0,0,7.471-28.564q0.22-2.2,2.051-2.2a2.022,2.022,0,0,1,2.051,1.977,50.444,50.444,0,0,0,7.251,18.164,2.779,2.779,0,0,1-.22,3.955q-8.351,7.4-15.527,10.181-2.2.951-1.831,1.758,0.365,0.73,2.563.073a47.142,47.142,0,0,0,16.7-9.155q1.978-1.832,4.029.22a42.889,42.889,0,0,0,11.352,8.423q2.416,1.1,2.783-.146a11.553,11.553,0,0,1,1.978-2.417q1.1-.734,1.025-1.172,0-.368-2.856-1.245a40.381,40.381,0,0,1-11.719-6.592q-1.977-1.758-.073-4.1a53.334,53.334,0,0,0,7.4-14.575,7.3,7.3,0,0,1,1.172-2.564q2.783,0.074,2.71-1.9a6.82,6.82,0,0,0-1.977-2.417q-2.2-2.2-3.956-1.318a7.314,7.314,0,0,1-3.515.952h-4.614a1.587,1.587,0,0,1-1.758-1.831V51.237a1.587,1.587,0,0,1,1.831-1.758h7.4a1.307,1.307,0,0,1,1.465,1.758,24.654,24.654,0,0,1-1.611,4.98q-1.027,2.345-.44,2.563,0.587,0.294,2.417-1.831a42.723,42.723,0,0,0,2.637-3.662q1.171-2.343,2.637-1.978a1.755,1.755,0,0,0,2.051-1.245q0.219-1.61-3-3.516-2.2-1.684-3.663-.366a4.586,4.586,0,0,1-3.222,1.392h-6.738a1.587,1.587,0,0,1-1.758-1.831V42.229a4.494,4.494,0,0,1,.952-2.93q1.758-1.464.879-2.344a16.317,16.317,0,0,0-3.955-.806q-2.125-.292-2.124,1.9v7.764Zm-29.663-1.831H772.272q-1.977,0-1.684,1.172,0.219,0.807,2.417.806h3.882q1.683,0,1.538,1.9a72.9,72.9,0,0,1-8.57,30.615q-1.317,2.271-.732,2.856,0.585,0.44,2.637-1.977,1.537-2.05,2.71-3.882,1.243-1.9,1.245.439v25.122q0,2.2,1.9,2.124a7.013,7.013,0,0,0,2.2-.439q0.22-3.59.147-6.958a1.587,1.587,0,0,1,1.831-1.758h5.054q1.758,0,1.757,2.417,0,2.343,2.124,2.27a2.235,2.235,0,0,0,2.125-2.49v-24.1a1.941,1.941,0,0,1,1.611-2.783,1.507,1.507,0,0,0,.806-2.271l-2.637-1.611q-2.344-1.39-3.589-.366a4.6,4.6,0,0,1-3.149,1.245h-5.347q-1.758,0-1.245-1.758a79.1,79.1,0,0,0,3.369-16.406q0.291-2.2,2.051-2.2h8.935q2.2,0,2.783-1.025,0.439-.951-1.831-2.783l-1.391-1.1q-2.052-1.464-4.322.806-2.124,2.125-3.881,2.124h0ZM814.68,64.567a1.587,1.587,0,0,1-1.831,1.758h-6.885a1.587,1.587,0,0,1-1.758-1.831l0.073-2.563V51.237a1.587,1.587,0,0,1,1.831-1.758H813q1.685,0,1.685,1.9V64.567ZM788.605,90.349a1.587,1.587,0,0,1-1.831,1.758h-5.053a1.587,1.587,0,0,1-1.758-1.831V69.987a1.587,1.587,0,0,1,1.831-1.758h5.127q1.684,0,1.684,1.9V90.349Zm32.081-4.907q-1.686,2.345-3.37.366a51.038,51.038,0,0,1-7.324-15.381q-0.586-2.2,1.172-2.2h15.015q1.758,0,1.391,1.9a44.663,44.663,0,0,1-6.884,15.308h0Zm150.8-27.979-8.569.586a23.7,23.7,0,0,1-5.567.073,4.245,4.245,0,0,0-1.538.146,3.841,3.841,0,0,0,3.077,1.9,46.11,46.11,0,0,1,14.575-1.245,5.988,5.988,0,0,0,3.222-.073q0.439-.366.22-0.659-0.513-1.025-2.417-1.1a2.427,2.427,0,0,0-1.538-.073,11.769,11.769,0,0,1-1.465.439h0Zm8.789,11.279a53.516,53.516,0,0,0,7.105,4.761,4.209,4.209,0,0,0-.733-1.465q-2.124-2.709-4.321-5.273a1.194,1.194,0,0,0-2.051-.146q-1.171,1.172,0,2.124h0ZM961.457,73.43q-0.587,5.567-3.516,8.643a0.942,0.942,0,0,0-.146,1.1q0.511,0.953,1.831.293a6.423,6.423,0,0,1,3.882-1.172,71.658,71.658,0,0,1,9.155-.732q1.39,0.22,1.025,1.318a45.58,45.58,0,0,1-2.636,6.665,3.948,3.948,0,0,0-.586,1.538,0.353,0.353,0,0,0,.513.146,5.476,5.476,0,0,0,1.9-2.2,44.591,44.591,0,0,0,2.783-5.493,2.714,2.714,0,0,0,.073-2.783,1.909,1.909,0,0,0-1.977-.732l-2.124.293a50.474,50.474,0,0,0-9.449.806,6.136,6.136,0,0,1-1.538.073,3.063,3.063,0,0,1,.513-1.245q1.245-2.637,2.417-5.493a1.2,1.2,0,0,0-.659-1.831,1.5,1.5,0,0,0-1.611-.293,1.619,1.619,0,0,0,.146,1.1h0ZM912.6,43.181a1.587,1.587,0,0,1-1.831,1.758h-23.51q-2.125,0-1.831,1.1,0.291,0.807,2.49.806h53.906q2.124,0,2.564-1.025,0.439-.951-2.271-3.149l-0.732-.586q-2.2-1.61-4.468.659-2.2,2.2-3.955,2.2H918.61q-1.758,0-1.757-2.124-0.588-2.124,2.124-4.834-0.367-1.171-2.124-1.172a10.159,10.159,0,0,0-2.051-.366q-2.2-.44-2.2,1.831v4.907Zm9.815,18.31q-1.247,2.2-3,2.2H884.333q-1.977,0-1.758,1.1,0.22,0.807,2.417.806h61.6q2.124,0,2.563-1.025a2.1,2.1,0,0,0,.293-1.1l-3.369-2.637q-2.2-1.61-4.468.659-2.2,2.2-3.955,2.2h-12.3q-1.758,0-.293-1.978a62.557,62.557,0,0,0,4.248-6.592q1.391-2.343,2.124-2.417,2.049-.439,1.172-1.758a3.188,3.188,0,0,0-1.758-.806l-2.2-.586a1.92,1.92,0,0,0-2.637,1.685,44.653,44.653,0,0,1-3.589,10.254h0Zm-22.266-8.2a23.824,23.824,0,0,1,2.2,6.592q0.585,3.224,3,2.124a3.64,3.64,0,0,0,.732-4.541,19.186,19.186,0,0,0-4.321-5.713q-2.2-1.684-2.71-1.172t1.1,2.71h0Zm27.32,20.068h-27.32a5.521,5.521,0,0,1-2.636-.586q-2.2-1.171-2.2,1.025v28.931q0,2.2.367,2.343a6,6,0,0,0,3.735-.659,6.182,6.182,0,0,0,.146-1.831q0-1.537,1.831-1.538h27.027q1.758,0,1.758,2.124t2.2,1.9q2.049-.219,2.051-2.563V79.216q-0.66-2.123,1.318-2.71,1.537-.512,1.318-1.538,0-.585-2.563-2.344-2.565-1.538-4.028-.293a4.569,4.569,0,0,1-3,1.025h0Zm2.71,10.767a1.587,1.587,0,0,1-1.831,1.758H901.325a1.587,1.587,0,0,1-1.758-1.831V77.019a1.587,1.587,0,0,1,1.831-1.758h27.027a1.587,1.587,0,0,1,1.758,1.831v7.031Zm0,13.257a1.587,1.587,0,0,1-1.831,1.758H901.325a1.587,1.587,0,0,1-1.758-1.831v-7.69a1.587,1.587,0,0,1,1.831-1.758h27.173q1.611,0,1.612,1.977V97.38ZM1092.63,60.026a0.95,0.95,0,0,0-.29,1.392q1.17,1.392,1.98.659a35.323,35.323,0,0,0,4.54-5.566,2.936,2.936,0,0,0,.88-1.538c-0.2-.244-0.49-0.171-0.88.22Zm-9.74,9.155c-1.8.049-3.64,0.172-5.49,0.366a37.541,37.541,0,0,1-7.54.22,2.53,2.53,0,0,0-1.54.147,3.478,3.478,0,0,0,4.1,1.758,24.225,24.225,0,0,1,5.49-.879,44.472,44.472,0,0,1,10.77-.073,1.562,1.562,0,0,0,.95-0.439c0.24-.293.17-0.586-0.22-0.879a4.469,4.469,0,0,0-2.42-.659,1.215,1.215,0,0,0-1.31,0,16.7,16.7,0,0,1-2.79.439h0Zm-33.62-1.1H996.54q-1.977,0-1.758,1.1,0.22,0.807,2.417.806h61.961c1.47,0,2.39-.341,2.79-1.025q0.435-.951-1.62-2.637l-2.19-1.758a2.71,2.71,0,0,0-3.96.22q-3.075,4.249-4.91,3.3h0Z"/>
</svg>
