<svg xmlns="http://www.w3.org/2000/svg" width="900" height="140" viewBox="0 0 900 140">
  <defs>
    <style>
      .cls-1 {
        fill-rule: evenodd;
      }
    </style>
  </defs>
  <path id="王漢宗粗楷體簡" class="cls-1" d="M229.22,47.213a135.228,135.228,0,0,1-17.578,2.271,2.56,2.56,0,0,0-1.612.806q-1.319,1.758,2.124,3.589a19.5,19.5,0,0,0,10.62.806,1.225,1.225,0,0,1,1.612.879,45.764,45.764,0,0,1,.659,11.353,1.285,1.285,0,0,1-1.172,1.392q-4.468.733-8.716,1.025a4.085,4.085,0,0,0-2.636.879,1.135,1.135,0,0,0-.44.952A4.465,4.465,0,0,0,214.5,73.58a17.188,17.188,0,0,0,9.009.659q1.464-.146,1.465,1.025l-0.22,11.206a1.194,1.194,0,0,1-1.172,1.318q-6.591.513-13.184,1.245A76.4,76.4,0,0,1,200,89.4q-3.444-.146-2.783,2.856a7.031,7.031,0,0,0,3.735,3.589,8.866,8.866,0,0,0,2.93,1.1,7.7,7.7,0,0,0,2.93-.586q8.789-1.686,20.507-2.93,6.738-.292,11.719-0.732a91.941,91.941,0,0,1,16.48.586,9.288,9.288,0,0,0,3.076.073,2.542,2.542,0,0,0,1.9-2.051q0.366-1.9-3.882-4.614-1.977-1.245-2.929-1.758a5.389,5.389,0,0,0-4.175-.146,136.357,136.357,0,0,1-17.578,2.27q-1.467.074-1.465-1.1l0.22-11.352a1.546,1.546,0,0,1,1.245-1.685l9.448-1.978a4.137,4.137,0,0,0,1.831-.586q2.343-2.343-1.318-4.321a8.694,8.694,0,0,0-6.592-.366l-2.93.806q-1.465.294-1.391-.879a67.254,67.254,0,0,1,.585-9.3,4.361,4.361,0,0,0-.073-2.2q-0.368-.659.879-0.879,3.516-.585,6.958-1.1a26.379,26.379,0,0,0,5.86-1.318q2.2-1.025,1.757-2.49a4.149,4.149,0,0,0-2.417-2.417,10.211,10.211,0,0,0-6.518-.806q-6.226,1.612-8.789,2.124h0Zm50.83-4.248q-1.027,1.978,1.538,4.175a38.525,38.525,0,0,1,4.468,3.809,4.744,4.744,0,0,0,2.929,1.758,2.489,2.489,0,0,0,3.15-1.831,6.623,6.623,0,0,0-.147-3.442,5.853,5.853,0,0,0-4.76-4.248,21.083,21.083,0,0,0-5.86-1.172,1.81,1.81,0,0,0-1.318.952h0ZM306.2,53.146a92.108,92.108,0,0,1-11.718,1.685,11.707,11.707,0,0,0-3.223.293,1.6,1.6,0,0,0-1.026,1.245q-0.074,2.051,2.344,3.223,2.2,1.392,6.812.146,7.323-2.123,11.426-2.856a3.585,3.585,0,0,1,1.611-.073v1.025a66.013,66.013,0,0,1-5.2,15.894q-0.734,1.466-1.758.366-2.271-2.709-4.541-5.786-2.418-3.588-5.42-4.395-3-1.025-3.955,1.025a2.517,2.517,0,0,0,1.172,2.2,56.581,56.581,0,0,1,9.521,11.426,2.189,2.189,0,0,1-.22,2.93,54.923,54.923,0,0,1-10.62,8.789l-5.859,3.662a1.466,1.466,0,0,0-.366,2.344,2.8,2.8,0,0,0,1.977.366,53.2,53.2,0,0,0,9.449-3.809,29.646,29.646,0,0,0,8.935-6.006q1.39-1.538,2.49-.22,2.929,3.735,6.812,8.057a5.643,5.643,0,0,0,2.856,1.9,52.2,52.2,0,0,0,8.789.879l6.885,0.073a5.263,5.263,0,0,0,3-1.025q0.951-1.246-.586-2.2-5.348-2.637-11.719-5.273-5.493-1.978-11.718-7.617a2.121,2.121,0,0,1-.586-2.856,55.467,55.467,0,0,0,6.811-15.381,22.739,22.739,0,0,1,.879-2.93,13.483,13.483,0,0,1,1.978-2.93q3.807-3.442-1.026-5.493a27.705,27.705,0,0,0-2.929-1.025,6.986,6.986,0,0,0-5.42.586ZM272.506,58.2a4.17,4.17,0,0,0,.659,1.685,43.416,43.416,0,0,0,6.3,5.933q3.148,2.2,4.98-.586Q286.129,61.2,281,58.053a21.254,21.254,0,0,0-5.859-1.977,2.352,2.352,0,0,0-2.344.659,2.739,2.739,0,0,0-.293,1.465h0Zm13.623,12.817q-4.469,7.325-8.862,14.648a9.589,9.589,0,0,1-2.857,2.563,2.908,2.908,0,0,0-.806,3.3A14.948,14.948,0,0,0,275,95.919,7.657,7.657,0,0,0,277.34,98.7a3.285,3.285,0,0,0,2.2.806q1.685-.148,1.831-2.27a14.459,14.459,0,0,1,.22-1.465q1.537-6.372,8.5-23.437a8.708,8.708,0,0,0,.879-2.93q-0.074-1.758-1.685-1.465-1.538.513-3.149,3.076h0Zm85.547-32.959q-1.1,1.466.586,3.662a28.7,28.7,0,0,0,7.251,5.786,3.316,3.316,0,0,0,2.343.732q3.224-.951,2.71-4.1-0.292-2.856-4.248-4.834a27.2,27.2,0,0,0-5.859-1.9,4.8,4.8,0,0,0-1.465.073,5.789,5.789,0,0,0-1.318.586h0Zm-9.888,13.11a6.635,6.635,0,0,0-2.856-2.417q-1.467-.292-2.051,1.465a5.064,5.064,0,0,0-.22,1.465,7.936,7.936,0,0,1-2.124,4.395,8.374,8.374,0,0,0-2.563,7.544,5.144,5.144,0,0,0,2.124,3.809q1.9,0.733,3.222-1.245a34.1,34.1,0,0,0,3.3-7.251,1.618,1.618,0,0,1,1.758-1.245,11.939,11.939,0,0,0,4.468-.879,140.891,140.891,0,0,1,26.367-4.614,3.974,3.974,0,0,1,1.392.146q0.219,0.074-.22,1.318-1.026,2.711-1.9,5.347a1.169,1.169,0,0,0,.366,1.465,1.66,1.66,0,0,0,1.465.439,5.908,5.908,0,0,0,2.929-1.611,21.874,21.874,0,0,1,5.86-3.223,14.978,14.978,0,0,0,2.929-1.172q1.9-1.171.22-2.783a36.69,36.69,0,0,0-4.394-3.516,6.746,6.746,0,0,0-5.64-1.685q-14.136,2.051-32.446,5.2a1.649,1.649,0,0,1-1.978-.952h0Zm17.651,8.862a63.437,63.437,0,0,1-11.718,2.49,3.041,3.041,0,0,0-1.905,1.025,1.889,1.889,0,0,0-.146,1.025,2.383,2.383,0,0,0,1.611,1.831,9.794,9.794,0,0,0,6.3.879q2.928-.805,5.859-1.318,2.929-.731,5.86-1.318,2.2-.439,2.93-0.659,2.2-1.319,1.391-3a5.207,5.207,0,0,0-4.614-2.124q-2.71.439-5.567,1.172h0ZM357.76,74.679a1.334,1.334,0,0,0-1.1.806q-0.219,1.466,1.9,2.93a6.04,6.04,0,0,0,5.787.513,83.8,83.8,0,0,1,8.715-1.9,1.227,1.227,0,0,1,1.612,1.1,61.487,61.487,0,0,1,.073,12.451,5.636,5.636,0,0,1-.513,2.051,5.994,5.994,0,0,1-2.343-.22,15.67,15.67,0,0,0-2.93-.586,2.2,2.2,0,0,0-2.857,1.172q-0.292,1.466,1.612,2.563,2.343,1.684,4.394,3.442a18.562,18.562,0,0,1,1.685,1.611,3.382,3.382,0,0,0,1.538,1.246q2.269,1.537,3.516-.367a16.5,16.5,0,0,0,2.27-7.324,108.684,108.684,0,0,1,.293-13.7,6.509,6.509,0,0,0-.366-3.3q-0.66-1.245.512-1.392,7.691-.659,13.7-0.732,1.319-.146,2.563-0.366,3.149-.805.879-3.589a13.918,13.918,0,0,0-4.394-2.49,7.283,7.283,0,0,0-4.322.147q-13.111,2.784-32.226,5.933h0Zm28.564,7.983a3.741,3.741,0,0,0,1.831,2.783q4.322,4.395,8.13,8.789a8.268,8.268,0,0,0,2.637,2.417q1.537,0.879,2.856-.733,1.465-1.905.513-5.127-0.659-3.222-4.541-5.933a48.912,48.912,0,0,0-8.789-4.248,1.628,1.628,0,0,0-1.978.22,1.9,1.9,0,0,0-.659,1.831h0Zm-26.733.659a45.763,45.763,0,0,1-4.395,5.859,5.662,5.662,0,0,0-1.172,2.2,6.529,6.529,0,0,0-.073,3.516,2.433,2.433,0,0,0,1.245,1.977,3.045,3.045,0,0,0,3.443-.586,12.731,12.731,0,0,0,3.149-3.442,20.073,20.073,0,0,0,2.344-9.595q-0.952-3.368-3.589-1.392a8.311,8.311,0,0,0-.952,1.465h0Zm75.293-42.847a4.963,4.963,0,0,0,.659,1.465,18.978,18.978,0,0,1,1.978,9.448l-0.293,13.7a1.578,1.578,0,0,1-1.246,1.758q-7.764,1.686-15.747,2.856-2.2,1.1-1.245,2.93a6.073,6.073,0,0,0,2.49,1.9,6.841,6.841,0,0,0,5.86,0q2.709-.951,5.493-1.831,1.245-.366.293,1.1a121.362,121.362,0,0,1-12.3,15.381,9.086,9.086,0,0,0-2.343,2.93,0.863,0.863,0,0,0,.219,1.025,2.288,2.288,0,0,0,2.564.22,8.825,8.825,0,0,0,2.929-1.978,57.309,57.309,0,0,0,11.573-11.865q1.025-1.464.952-.146A61.8,61.8,0,0,1,435.1,92.11q-1.906,4.614,1.1,10.547,1.319,2.051,2.71,1.392a2.545,2.545,0,0,0,.659-0.44,7.107,7.107,0,0,0,1.978-3.662,20.316,20.316,0,0,0,.366-5.347l0.293-13.843q0-1.464,1.172-.513L444.7,81.49a4.4,4.4,0,0,0,2.93,1.685A2.12,2.12,0,0,0,449.679,82q0.879-1.61-.22-4.394a6.271,6.271,0,0,0-2.71-2.344,13.629,13.629,0,0,0-2.93-1.1,1.572,1.572,0,0,1-1.391-1.611V71.9a1.57,1.57,0,0,1,1.172-1.758q3.661-.805,7.324-1.318a2.5,2.5,0,0,0,1.465-.659,1.6,1.6,0,0,0,.366-2.2,4.324,4.324,0,0,0-2.783-1.758,11.15,11.15,0,0,0-5.786.586q-1.539.367-1.539-.806V63.546q0-1.538.513-1.392a1.939,1.939,0,0,0,1.538-.44,60.569,60.569,0,0,1,7.324-5.273,1.787,1.787,0,0,0,1.1-1.685,5.614,5.614,0,0,0-2.27-3.149,6.621,6.621,0,0,0-2.93-1.245,2.061,2.061,0,0,0-2.2.806,1.834,1.834,0,0,0-.293,1.465q0.291,1.538-1.831,4.761-0.807,1.246-.733.073a63.572,63.572,0,0,1,1.465-11.938q1.684-3.442-1.9-5.493-1.467-1.025-2.93-1.9-2.49-1.318-4.175.22-0.807.513-.439,2.124h0ZM460.3,51.827a3.2,3.2,0,0,1-2.637-.659q-2.271-1.464-4.028-.513a1.681,1.681,0,0,0-.659,2.71,17.028,17.028,0,0,1,1.684,5.786q0,14.65.22,29.3a1.36,1.36,0,0,1-1.172,1.611q-4.1.367-8.057,0.879a2.358,2.358,0,0,0-1.684.732q-0.952,1.538,1.391,3.223a6.847,6.847,0,0,0,6.446.732q11.937-2.343,32.519-1.978a2.571,2.571,0,0,0,2.417-1.831q0.221-1.9-2.343-3.3a10.174,10.174,0,0,0-7.911-1.465q-1.466.22-1.464-.952,0.291-13.329,1.171-24.756a10.73,10.73,0,0,1,1.831-5.859,2.954,2.954,0,0,0-.805-3.662,32.425,32.425,0,0,0-4.4-2.783,3.59,3.59,0,0,0-3.808-.293,41.978,41.978,0,0,1-8.716,3.076h0Zm-33.692,4.761q1.611,2.93,2.93,5.859a4.18,4.18,0,0,0,1.685,2.051q2.049,1.612,3.442-.659a6.223,6.223,0,0,0,.806-2.93,4.144,4.144,0,0,0-.659-3,17.836,17.836,0,0,0-5.64-4.614q-2.271-.951-2.783,1.611a2.841,2.841,0,0,0,.219,1.685h0Zm42.994-.952v6.958q0,1.172-1.172.293-2.125-1.318-6.372,0-1.467.44-1.465-.732,0-2.269.146-4.541a1.516,1.516,0,0,1,1.172-1.538q2.343-.731,5.347-1.465l0.805-.22a1.14,1.14,0,0,1,1.539,1.245h0Zm-0.293,18.018q-0.075,1.538-1.538.586a9.293,9.293,0,0,0-5.787-.073q-1.537.513-1.538-.659l0.074-3.882a1.353,1.353,0,0,1,1.1-1.538l6.665-1.172q1.245-.439,1.172.659Zm-0.586,13.33a1.389,1.389,0,0,1-1.392,1.538l-5.493.659q-1.465.074-1.465-1.1l0.073-6.958a1.547,1.547,0,0,1,1.245-1.684q2.929-.439,5.86-0.733,1.537-.292,1.465.879-0.221,3.735-.293,7.4h0Zm37.353-47.827a5.685,5.685,0,0,0,.513,1.758,11.365,11.365,0,0,1,2.051,5.127q0.145,4.908.073,9.888a1.584,1.584,0,0,1-1.245,1.538,65.431,65.431,0,0,1-10.547,2.49A3.071,3.071,0,0,0,494.8,61.2q-0.587,1.612,1.465,2.563a9.812,9.812,0,0,0,6.3.659l2.856-.806q1.464-.366.952,0.879a115.809,115.809,0,0,1-13.623,23.071q-1.537,1.832,0,2.856a2.023,2.023,0,0,0,2.2-.22,63.488,63.488,0,0,0,12.525-15.161q0.806-1.318.805-.073-0.292,7.764-.805,12.231-0.294,1.538-1.1,4.395a7.771,7.771,0,0,0-.439,3.369,14.777,14.777,0,0,0,2.2,7.178q1.9,1.9,3.662-.367a9.275,9.275,0,0,0,1.758-5.859q0-8.861.22-20.654,0-1.171,1.172-.146,0.731,0.733,1.391,1.318,2.709,2.637,3.882-.952c0-.195.1-0.22,0.293-0.073q1.391,0.807,2.71-1.025a77.33,77.33,0,0,1,9.375-8.2q2.637-1.758,1.391-3.516a1.4,1.4,0,0,0-1.464-.293q-2.2.807-4.395,1.685-1.465.587-1.465-.586l0.293-4.321a1.162,1.162,0,0,1,1.1-1.392,43.424,43.424,0,0,0,6.445-1.392q1.318-.439,1.319.659a28.747,28.747,0,0,0,1.318,8.936,3.68,3.68,0,0,0,2.344,2.417,10.1,10.1,0,0,0,1.464.732,39.315,39.315,0,0,0,8.79,1.538,17.731,17.731,0,0,0,7.763-.586q3.222-1.538,2.124-4.468a46.173,46.173,0,0,1-1.758-8.789,2.511,2.511,0,0,0-1.391-1.977,1.354,1.354,0,0,0-1.612.586,4.744,4.744,0,0,0-.659,1.978,24.926,24.926,0,0,1-1.611,5.859,2.056,2.056,0,0,1-1.318,1.025,16.9,16.9,0,0,1-6.519.22,5.614,5.614,0,0,1-2.856-.952,19.944,19.944,0,0,1-.953-6.006,1.84,1.84,0,0,1,1.1-1.977q4.761-1.61,7.984-3,1.317-.44,2.563-0.733,1.9-.879,1.025-3a11.623,11.623,0,0,0-2.417-3.076q-2.271-2.343-4.248-.732a1.177,1.177,0,0,0-.293.732,2.908,2.908,0,0,1-1.1,2.124,13.833,13.833,0,0,1-3,2.49q-1.467,1.027-1.319-.146a26.354,26.354,0,0,1,1.539-6.885q0.438-3.148-4.541-5.347-2.052-.951-2.93,0a1.984,1.984,0,0,0-.44,2.856,9,9,0,0,1,1.026,5.2,38.647,38.647,0,0,0-.147,5.2q0,1.172-1.172.732-1.757-.512-5.932.659-1.539.439-1.538-.732a9.9,9.9,0,0,1,.293-2.417q0.511-1.538-1.245-2.856-2.931-2.709-5.127-2.051-2.271.953-.806,3.223,2.124,5.274,1.318,12.964a11.782,11.782,0,0,1-1.318,5.859,17.128,17.128,0,0,0-1.685,2.49,0.976,0.976,0,0,1-1.538.659l-1.684-.586a1.914,1.914,0,0,1-1.465-1.758q0-2.489.146-4.834a1.613,1.613,0,0,1,1.172-1.611,23.738,23.738,0,0,0,3.589-1.172,2.511,2.511,0,0,0,1.465-1.977A2.206,2.206,0,0,0,518.673,56a7.173,7.173,0,0,0-2.93-.879q-1.538.074-1.538-1.025a49.373,49.373,0,0,1,1.465-9.668q1.318-2.269-.293-3.662-1.466-1.1-5.127-3.516a3.26,3.26,0,0,0-2.783-.073,2.574,2.574,0,0,0-1.392,1.977h0Zm25.562,30.615q0.146,2.051-2.344,7.178-0.658,1.392-1.245,1.392a2.171,2.171,0,0,1-1.1-.293q-3-2.2-4.394-.952a1.28,1.28,0,0,0-.586,1.392,20.512,20.512,0,0,1,1.465,4.394,43.367,43.367,0,0,1,.586,11.06,13.887,13.887,0,0,0,.439,4.688,6.354,6.354,0,0,0,2.051,3.076q2.343,1.611,3.222-1.318A1.485,1.485,0,0,1,531.051,99a69.042,69.042,0,0,1,8.13-.659,2.341,2.341,0,0,1,2.27,1.1l2.564,4.541a2.022,2.022,0,0,0,2.929.293,7.657,7.657,0,0,0,2.637-4.248,23.046,23.046,0,0,0,.732-7.178q-0.219-2.637-.146-7.031a12.484,12.484,0,0,1,.952-4.468q1.83-2.417-1.172-4.175a22.311,22.311,0,0,0-4.394-2.563,2.685,2.685,0,0,0-2.2-.147,37,37,0,0,1-7.251,2.417q-1.466.294-.292-0.879l1.611-1.685a11.729,11.729,0,0,1,1.245-1.1q2.709-2.489-.147-4.175a9.182,9.182,0,0,0-5.859-1.392q-1.538,1.1-1.025,2.124h0Zm12.3,11.865a91.112,91.112,0,0,1-.512,11.645q-0.148,1.464-1.612.439a4.757,4.757,0,0,0-3.662-.659q-3.514.733-6.958,1.318-1.465.22-1.538-.952v-1.1a1.36,1.36,0,0,1,1.172-1.611q3.882-.585,7.69-1.1a6.313,6.313,0,0,0,2.93-.732,1.41,1.41,0,0,0,.733-1.465,2.349,2.349,0,0,0-.66-1.318,4.413,4.413,0,0,0-2.2-1.318,5.717,5.717,0,0,0-2.783-.147,42.545,42.545,0,0,0-5.493,1.245q-1.467.513-1.465-.659a6.876,6.876,0,0,0,.073-0.952,1.547,1.547,0,0,1,1.245-1.684q6.153-1.318,11.866-2.344a1.3,1.3,0,0,1,1.171,1.392h0Zm58.081-42.114a3.625,3.625,0,0,0,.806,2.563,13.671,13.671,0,0,1,2.051,5.859q-0.073,3.883.146,7.764,0,0.22-1.318.439-6.006,1.1-12.085,2.27a18.68,18.68,0,0,0-2.49.513q-1.318.733-.806,1.685a3.642,3.642,0,0,0,1.172,1.392,6.028,6.028,0,0,0,5.859,1.1q2.344-.731,5.494-1.465,1.317-.22.878,0.879-4.542,10.547-15.161,21.314-1.171,1.172-1.172-.366a97.784,97.784,0,0,1,.806-16.26,3.156,3.156,0,0,0-.806-2.637l-1.025-1.1q-1.318-1.391-.293-2.637a95.092,95.092,0,0,0,6.738-9.888,16.3,16.3,0,0,1,2.344-2.856q2.051-3.076-2.124-5.933-3.15-2.343-5.2-1.465a2.2,2.2,0,0,0-.952,1.392,5.642,5.642,0,0,0,.366,2.27,4.309,4.309,0,0,1,.293,1.611q-4.395,11.719-17.212,26.294a1.625,1.625,0,0,0,0,1.758,2.263,2.263,0,0,0,1.831.513q3.222-.805,8.057-6.592,1.17-1.39,1.465-.073l0.293,1.758a60.942,60.942,0,0,1-1.758,21.167,8.273,8.273,0,0,0,2.343,8.057q2.418,1.831,3.882-1.538a13.477,13.477,0,0,0,.879-4.907q-0.073-1.684,0-3.369a0.9,0.9,0,0,1,1.026-1.1,4.373,4.373,0,0,0,2.49-1.025q5.712-3.222,11.645-11.5,2.2-3.148,3.589-5.566,0.806-1.464.806-.293-0.073,5.421-.073,10.767a1.52,1.52,0,0,1-1.319,1.611l-4.1.513q-1.906.22-2.637,0.366a2.553,2.553,0,0,0-1.611,1.318q-0.149.659,1.245,2.051a6.37,6.37,0,0,0,3.369,1.172,8.244,8.244,0,0,0,3.223-.513q1.391-.22,1.245,1.1-0.294,2.125-.952,4.834a11.04,11.04,0,0,0,.732,8.79,5.506,5.506,0,0,0,1.758,2.563,1.506,1.506,0,0,0,1.831-.22q3.148-3.075,2.49-8.716-0.147-4.175-.146-8.35a1.285,1.285,0,0,1,1.171-1.392l3.077-.439a9.808,9.808,0,0,0,2.929-.586q2.637-1.39.147-3.3A6.687,6.687,0,0,0,611.4,80.1q-1.466.22-1.464-.952l0.073-10.84q0-1.245.952,0.293,4.541,7.105,9.668,13.916a5.7,5.7,0,0,0,2.856,1.9,70.211,70.211,0,0,0,12.671.586,4.129,4.129,0,0,0,1.026-.659q1.17-1.684-1.392-2.856a53.037,53.037,0,0,1-14.648-8.936q-4.4-4.686-9.668-11.353-1.028-1.244.146-1.392,4.1-.585,8.277-0.806a28.658,28.658,0,0,0,6.518-.586q3.222-.731,1.026-3.516a10.124,10.124,0,0,0-9.888-1.758l-5.86,1.318q-1.466.367-1.464-.806a30.681,30.681,0,0,1,1.684-9.375q0.732-2.05-.732-2.856a42.121,42.121,0,0,0-4.395-2.93,3.352,3.352,0,0,0-4.321.366,1.545,1.545,0,0,0-.44.659h0ZM681.783,39.6q0.732,6.226-4.468,13.184-1.1,1.466-2.05,2.93a2.165,2.165,0,0,0-.367,2.27q0.22,0.733,1.685.513a6.251,6.251,0,0,0,2.856-1.758,31.248,31.248,0,0,0,5.054-5.64,1.686,1.686,0,0,1,1.758-1.025q0.951,0.22.073,0.366a1.528,1.528,0,0,0-1.025,1.025,1.972,1.972,0,0,0,.732,2.27,47.368,47.368,0,0,0,5.713,3.882q1.464,0.659.147,0.879a25.786,25.786,0,0,0-3.3.879q-7.764,1.686-11.719,2.2a3.861,3.861,0,0,0-1.9.439,1.662,1.662,0,0,0,.073,2.563,6.559,6.559,0,0,0,2.93,1.758,7.587,7.587,0,0,0,4.76-.659q5.785-1.83,8.5-1.684a4.392,4.392,0,0,1,1.539.439,20.147,20.147,0,0,1,.439,2.344,188.265,188.265,0,0,1,.366,27.466,1.41,1.41,0,0,1-1.391,1.465l-3.3-.732a4.479,4.479,0,0,0-1.905-.147,1.516,1.516,0,0,0-1.171,1.392,1.68,1.68,0,0,0,.732,1.465,50.81,50.81,0,0,1,5.933,4.98l0.878,0.952q3.516,3.588,5.494-.146a20.664,20.664,0,0,0,1.611-10.254q-1.026-14.354-.952-25.2a9.342,9.342,0,0,1,1.1-3.735q0.806-2.269-1.538-3.662l-2.856-1.758q-1.319-.511-0.952-1.025a5.123,5.123,0,0,0-2.124-6.226,11.278,11.278,0,0,0-2.857-.879q-1.171-.22-0.073-0.366a12.757,12.757,0,0,0,1.9-.293l8.789-2.344a2.425,2.425,0,0,0,1.758-.879q1.539-1.758-.659-3.076-2.93-1.758-7.471-.146a32.48,32.48,0,0,1-5.566,1.685q-1.466.22-.806-0.952,0.732-1.39,1.538-2.783,1.026-2.05-1.391-3.442a7.875,7.875,0,0,0-4.981-1.538q-2.2.587-1.538,3h0ZM659.3,42.086Q660.323,47.8,654.83,54.1q-1.318,1.466-2.49,2.93-1.247,1.538-.44,2.71A3.96,3.96,0,0,0,655.782,59a32.308,32.308,0,0,0,5.786-5.127q1.172-1.39,1.026-.806a3.226,3.226,0,0,0,1.611,2.71,26.314,26.314,0,0,1,2.93,2.27,5.3,5.3,0,0,0,2.929,1.758q2.345,0.22,2.71-2.27a4.735,4.735,0,0,0-1.977-4.248,16.547,16.547,0,0,0-5.859-1.758,4.287,4.287,0,0,0-1.465.147q-0.368.148,0-.366,0.291-.44,1.465-0.147a13.9,13.9,0,0,0,6.372-.586q1.464-.439,2.929-0.732a17.741,17.741,0,0,0,2.93-.732q2.637-1.61.586-3.369a5.447,5.447,0,0,0-4.468-.952,41.7,41.7,0,0,0-5.493,1.538q-1.465.294-.806-0.586,1.611-2.709-2.563-4.761a6.932,6.932,0,0,0-2.564-.879,2.794,2.794,0,0,0-2.05.659,3.892,3.892,0,0,0-.513,1.318h0Zm3.076,20.8a42.331,42.331,0,0,0,3.369,3.442q2.637,2.345,4.395.586,1.464-1.464.219-4.395a4.853,4.853,0,0,0-2.636-2.2,20.877,20.877,0,0,0-4.395-1.538,1.459,1.459,0,0,0-1.538.806q-0.879,1.538.586,3.3h0Zm-7.324,1.172a5.3,5.3,0,0,0,.586,1.685,16.84,16.84,0,0,1,.879,4.394,76.012,76.012,0,0,1-.074,14.5,78.884,78.884,0,0,0-1.9,11.646,6.78,6.78,0,0,0,.733,3.369q1.39,2.782,3.222,1.978a4.234,4.234,0,0,0,1.685-1.978,24.106,24.106,0,0,0,1.684-8.789,150.463,150.463,0,0,1,1.245-23.657,3.762,3.762,0,0,0-2.27-3.369,10.311,10.311,0,0,0-2.93-1.465,2.554,2.554,0,0,0-2.27.439,2.253,2.253,0,0,0-.586,1.245h0Zm16.919,6.885a2.215,2.215,0,0,1-1.465-.22,5.515,5.515,0,0,0-2.93-.806,1.676,1.676,0,0,0-1.1,2.563q2.268,5.2.512,13.477-1.026,1.686.44,5.054,2.2,3.809,4.028.952a2.234,2.234,0,0,1,1.758-1.611q2.416-.366,4.834-0.659a2.11,2.11,0,0,1,2.051.952,32.117,32.117,0,0,1,1.9,3.149,2.224,2.224,0,0,0,2.783,1.025,6.725,6.725,0,0,0,2.564-4.248,24.27,24.27,0,0,0,.219-7.471q-0.439-6.079.367-8.936,1.391-1.758-.879-3.589a11.13,11.13,0,0,0-2.93-1.684,3.262,3.262,0,0,0-3.442-.366,60.726,60.726,0,0,1-8.716,2.417h0Zm9.009,2.49q0.8-.22.952,1.245a52.83,52.83,0,0,1-.22,9.888q-0.147,1.466-1.318.732a10.915,10.915,0,0,0-6.3.293q-1.467.439-1.465-.732V83.834a1.275,1.275,0,0,1,1.245-1.318q1.684-.366,3.369-0.586a12.87,12.87,0,0,0,2.93-.513,1.579,1.579,0,0,0,1.465-1.685q-1.173-2.928-5.127-2.564a9.186,9.186,0,0,0-2.344.586q-1.466.513-1.465-.659V76.51a1.607,1.607,0,0,1,1.392-1.611l4.761-1.025q1.756-.366,1.757-0.586a0.262,0.262,0,0,0,.367.147h0Z"/>
</svg>
