<svg xmlns="http://www.w3.org/2000/svg" width="900" height="140" viewBox="0 0 900 140">
  <defs>
    <style>
      .cls-1 {
        fill-rule: evenodd;
      }
    </style>
  </defs>
  <path id="王漢宗顏楷體繁" class="cls-1" d="M215.16,42.723a16.159,16.159,0,0,0-5.859,1.392q-4.468,2.417-2.783,6.592,4.1,6.52,10.62,4.321,2.2-.439,2.49,0-0.513,5.054-.732,10.034a1.919,1.919,0,0,1-1.539,1.392,11.776,11.776,0,0,0-5.859,2.124q-2.93,2.856-1.758,5.786,2.124,4.614,6.665,3.955,3.442-.22,2.564,3.076a53.048,53.048,0,0,1-.147,5.566,2.224,2.224,0,0,1-1.9,1.318q-7.324.807-14.648,1.831-3.371,1.172-.22,6.738,3.148,3.735,5.713,2.27,18.164-5.493,33.1-3a9.41,9.41,0,0,0,6.519-1.538,3.419,3.419,0,0,0,1.391-3.223q0.072-3.222-3.3-4.321-4.393-1.245-14.282-.147-3.589.22-2.783-2.783-0.073-4.686.146-9.155a2.634,2.634,0,0,1,1.539-1.538l4.394-1.758a5.245,5.245,0,0,0,3.516-2.93q0.879-5.493-5.567-5.933-3.514.879-2.929-2.637l-0.074-2.637a39.325,39.325,0,0,0-1.391-5.493,1.563,1.563,0,0,1,1.318-1.392l2.93-.879a21.016,21.016,0,0,0,5.859-1.685,4.06,4.06,0,0,0,1.9-3.369,2.423,2.423,0,0,0-1.1-2.271,6.143,6.143,0,0,0-2.93-1.685q-3-1.025-9.155.366a76.82,76.82,0,0,1-11.719,1.611h0Zm97.266-2.417a3.244,3.244,0,0,1-3.369,2.856q-2.637,1.172-2.857-1.172,0.879-2.417-2.051-4.468-1.832-.805-2.417-0.073a14.578,14.578,0,0,0-2.05,5.2q-0.44,3.224-3.15,2.93a13.14,13.14,0,0,0-4.98,1.392q-1.173,1.686.293,3.735,1.9,3.224,5.346,1.538,2.345-1.025,2.344,2.051,0.366,4.029,2.2,4.614a7.915,7.915,0,0,1,2.051-.806q1.9,0.587.586,2.71l-3.3.586q-4.1.807-6.372-.732a2.3,2.3,0,0,0-2.856.439,3.009,3.009,0,0,0-.806,3,12.463,12.463,0,0,0,2.783,5.859q3,4.029,6.3,3.076,2.343-.146,2.417.513a1.849,1.849,0,0,1-2.124,1.538,67.019,67.019,0,0,0-6.518,1.611,1.05,1.05,0,0,0-.367,1.1q0.732,1.977,3.589,1.685,3.3-.659,3.443,1.1-0.807,2.856-3.956,2.563l-8.789,1.318q-3.663.659-2.05,3.076,2.343,2.271,4.394,1.978l2.93-.293q2.2,0,2.49.366a1.948,1.948,0,0,1-.879,1.758,46.326,46.326,0,0,0-6.372,8.569q-0.659,2.2-.22,2.2a34.652,34.652,0,0,0,15.015-13.183,3.561,3.561,0,0,1,2.856-1.611q9.669-1.684,20.508-2.49,3.516-.659,2.344-3.589-0.294-.951-2.27-1.538a11.434,11.434,0,0,0-5.787,0q-7.03.807-11.718,1.611a5.088,5.088,0,0,1-2.564-.439,1.93,1.93,0,0,1,.147-1.465,4.3,4.3,0,0,1,3.3-1.392l5.859-.952q3.3-.731,4.248-2.856a2.427,2.427,0,0,0-2.344-1.392,50.544,50.544,0,0,0-7.544.806,1.287,1.287,0,0,1-1.684-1.1q0.219-2.563,3.442-2.783a31.638,31.638,0,0,0,9.155-2.856l1.612-2.564q3.441-3.588.439-5.64a8.122,8.122,0,0,0-5.859-.586,45.391,45.391,0,0,0-5.347.879q-2.126.513-2.417-1.318a7.067,7.067,0,0,1,2.051-1.392,10.511,10.511,0,0,0,4.907-6.519,3.487,3.487,0,0,1,2.2-2.49q4.4-.366,5.054-2.783,0.66-2.563-2.783-3.076a2.551,2.551,0,0,1-1.9-2.417q-1.027-3-3.443-3.3-1.611-.511-2.563,1.685a15.534,15.534,0,0,0-.586,2.93h0Zm-35.01,6.885a22.2,22.2,0,0,1,3.589,3.955q2.709,3.076,4.834.659,2.416-5.565-3.369-9.082a7.193,7.193,0,0,0-6.226-.879q-2.637,2.93,1.172,5.347h0ZM310.6,51.8a4.2,4.2,0,0,1-2.344,1.758q-2.2.513-2.563,0.147-2.125-4.614,2.856-4.834,3.368-.731,2.051,2.93h0Zm-37.72,11.353a18.337,18.337,0,0,1,4.395,3.516q2.123,3.589,4.028.439,2.2-5.054-4.028-7.471-3.3-1.538-4.834-.439-1.686,2.125.439,3.955h0Zm44.385-1.1a4.86,4.86,0,0,1-2.637,3.662q-3.589,2.051-4.834,1.465a2.757,2.757,0,0,1,0-2.49,3.261,3.261,0,0,1,2.271-2.344,21.463,21.463,0,0,1,4.321-1.245q1.025,0.294.879,0.952h0Zm-13.477,4.395a2.748,2.748,0,0,1-1.172,2.344q-2.784,1.466-3.808-1.465-0.44-1.318.073-1.758a6.235,6.235,0,0,1,2.637-.806q3.149-1.538,2.27,1.685h0ZM276.757,82.933a17.842,17.842,0,0,1-2.637,2.783,3.355,3.355,0,0,0-1.025,1.465,13.162,13.162,0,0,0,1.318,9.375q1.464,2.489,2.637,2.637a1.893,1.893,0,0,0,2.563-.732q2.637-3.224.659-5.859a10.644,10.644,0,0,1-1.464-7.91,39.534,39.534,0,0,1,1.757-6.445q-0.219-.292-1.9,1.758a25.006,25.006,0,0,0-1.9,2.93h0Zm37.793,8.716q3.661,6.152,6.811,8.57,2.49,1.464,3.077.879a4.869,4.869,0,0,0,1.1-3.443,12.513,12.513,0,0,0-8.057-9.3q-2.71-1.245-3.881.22-0.22.367,0.952,3.076h0Zm55.517-48.706a3.975,3.975,0,0,1-2.2.806q-6.151.587-12.085,1.685a3.209,3.209,0,0,1-2.856-1.392q-1.831-2.269-3.076-1.318a37.38,37.38,0,0,0-2.344,16.186,6.62,6.62,0,0,0,.879,3.589,1.112,1.112,0,0,0,1.391.22q4.54-3.368,3.809-6.958-0.587-4.1,2.051-4.98a46.846,46.846,0,0,1,13.183-3.369q2.637-.585,2.344,2.124a1.819,1.819,0,0,0,1.1,2.2q3.88,0.807,5.713-4.175a3.035,3.035,0,0,1,2.856-1.318l2.93-.147a42.492,42.492,0,0,1,6.811-.146,0.707,0.707,0,0,1,.44.879,8.309,8.309,0,0,1-1.319,1.9l-1.538,1.538q-2.271,2.125.806,1.1a8.833,8.833,0,0,1,2.93-.513,28.439,28.439,0,0,0,6.518.733q4.541-.805,1.758-5.054a10.272,10.272,0,0,0-1.831-2.856q-2.125-2.856-4.248-2.2a8.22,8.22,0,0,1-2.93,1.172H379.442a2.881,2.881,0,0,1-1.611-1.465q-2.416-3.807-5.347-4.395-5.346-1.245-3.3,3.955a3.72,3.72,0,0,1,.879,2.2h0Zm-5.273,13.989a7.031,7.031,0,0,0-2.71.879q-1.465,2.051,1.465,4.468a6.836,6.836,0,0,0,6.079.879A47.7,47.7,0,0,0,381.347,58.4q1.83-1.025,1.684-2.271-1.686-4.98-6.518-2.93a74.3,74.3,0,0,1-11.719,3.735h0Zm2.124,11.938Q356.883,69.9,351.83,72.093a3.533,3.533,0,0,0,.073,3.955q1.611,2.637,4.1,2.051a28.372,28.372,0,0,0,5.859-1.1l6.006-1.172q2.928-1.1,2.93,1.978a62.37,62.37,0,0,1-.733,13.916q-0.659,4.321-4.174,3.735a9.622,9.622,0,0,0-2.124-.439q-2.126-.367-1.831.147,3.587,2.928,3.442,5.347,1.245,3.222,3.662.879a27.705,27.705,0,0,1,6.445-4.1,4.7,4.7,0,0,0,1.538-3.809q1.539-10.107-.146-16.626-0.66-2.856,2.49-3,5.493-.879,14.5-1.392,1.977-.659,1.685-2.417a5.837,5.837,0,0,0-4.615-4.321,12.044,12.044,0,0,0-3.515.293q-10.255,1.172-20.508,2.856h0Zm21.24,17.651a4.932,4.932,0,0,0,1.1,2.783q2.2,2.491,4.1,1.465,3.148-2.489,1.978-5.859-0.734-4.247-6.152-6.738-3.955-.22-2.93,3.442a15.6,15.6,0,0,1,1.9,4.907h0Zm-37.134,2.2q1.026,5.2,5.567,3.369,0.879-.512.073-2.417a7.213,7.213,0,0,1,1.1-5.127q1.61-2.05.879-1.758a3.957,3.957,0,0,1-3.955-.586q-2.126-.879-3,2.124a11.063,11.063,0,0,0-.66,4.395h0Zm80.127-48.56q2.49,1.246,1.831,3.369a1.763,1.763,0,0,1-1.611,1.611q-3.077.439-5.933,0.586-2.344,1.392-1.1,3.662a3.714,3.714,0,0,0,2.344,1.9q0.951,0.294,3.662-.586,2.928-.731,5.859-1.245,2.2-.585,2.417.293-0.513,1.538-3.882,3.955a6,6,0,0,1-3.882-.586,3.1,3.1,0,0,0-3.149.44q-2.492,2.856.586,3.369a10.925,10.925,0,0,1,1.831.806q0.659,1.612-1.318,4.1-0.954,2.491,1.464.879l2.417-1.685a4.453,4.453,0,0,1,5.86-.439q1.977,0.513,1.977,1.611a8.239,8.239,0,0,1-2.2.952q-7.69,2.271-14.136,3.662-3.224,1.173-1.172,3.809a7.672,7.672,0,0,1,.953,2.93,111.614,111.614,0,0,1-2.93,14.649,111.354,111.354,0,0,0-2.49,10.986q-0.294,2.05,1.391-.147a65.236,65.236,0,0,0,6.3-13.916l3.223-11.719a3.293,3.293,0,0,1,.879-2.637,12.541,12.541,0,0,1,3.222-1.245q5.859-1.1,11.719-2.49a3.293,3.293,0,0,0,2.93-2.49,1.757,1.757,0,0,0-1.026-2.051,16.157,16.157,0,0,0-2.929-.732q-1.832-.292-1.245-1.684,0.072-.879-2.564-2.637a1.423,1.423,0,0,1-.22-2.417,6.036,6.036,0,0,1,1.319-.879q2.269-1.61,2.051-2.271a8.79,8.79,0,0,0-.66-1.611q-2.271-2.123.44-2.783,3.955-.659,3.3-3.589a1.682,1.682,0,0,0-1.172-1.392,5.324,5.324,0,0,0-3.369.293q-2.418.807-2.417-.952,0.291-2.417-2.637-3.662a13.325,13.325,0,0,0-2.93-1.245q-3.15-1.025-4.248.586-0.879,1.466,1.245,2.637h0Zm22.7,1.9q-2.563,1.1-2.71,2.856,1.026,4.322,5.274,4.028a14.266,14.266,0,0,1,4.321-.073q0.366,0.22-.586,2.124l-1.172,2.344q-0.44,2.711-2.563,1.392-2.126-1.464-3.3,1.538a65.929,65.929,0,0,0-1.9,15.234q-0.588,8.937,1.538,15.015,1.538,2.491.805,3.882a34.818,34.818,0,0,0-4.907,7.837q-0.587,2.489-.219,2.637,0.291,0.072,2.856-2.2a104.3,104.3,0,0,1,7.764-7.69,3.654,3.654,0,0,0,1.611-2.417q0.145-2.124,2.417-1.831,3.368-.44,3.223,2.051-0.294,1.1,1.538,2.856a22.89,22.89,0,0,1,3.589,5.859q1.757,3.881,4.467,3.076a2.775,2.775,0,0,0,1.758-1.611q1.758-3.37-2.93-7.544a2.724,2.724,0,0,1-1.171-2.124,7.146,7.146,0,0,1,1.684-2.93,11.373,11.373,0,0,0,1.9-7.178,168.558,168.558,0,0,0-.732-19.336A11.24,11.24,0,0,0,473.778,54q-2.49-3.588-5.859-.147a19.38,19.38,0,0,1-5.859.952,1.183,1.183,0,0,1-1.539-.586q0.586-1.391,3.589-3.076,1.611-.072,2.344-2.124,1.024-1.83,1.831-1.831l5.054-.586q4.027-.439,4.541-3.809a2.943,2.943,0,0,0-1.465-2.71,8.167,8.167,0,0,0-5.859-1.318q-6.592,1.612-16.7,3.3h0Zm15.6,17.871q-0.147,9.3-.073,18.6a2.924,2.924,0,0,1-1.465,3.442q-3.735.22-7.251,0.732-2.2.148-2.49-.147-1.247-1.391-.147-3.589a5.526,5.526,0,0,1,2.564-.952q4.32-1.1,6.079-3.369,0.659-1.464-1.319-2.051a6.6,6.6,0,0,0-5.712.952q-2.491,1.392-2.564-1.611a3.317,3.317,0,0,1,.586-1.9l3.076-.952q4.98-1.538,5.64-3.662A1.655,1.655,0,0,0,464.77,63.6a9.286,9.286,0,0,0-6.226,1.392q-1.173-.072-0.879-1.611a3.486,3.486,0,0,1,2.124-3.589q4.395-2.637,7.69-2.344a2.939,2.939,0,0,1,1.978,2.49h0ZM433.788,74.949q-1.905,1.905.073,1.611l5.274-.879a34.7,34.7,0,0,0,4.394-.879q1.83-.951.733-2.417-1.247-1.977-3-1.318a17.762,17.762,0,0,0-7.471,3.882h0Zm-0.513,9.375q-1.684,1.978,1.1.952A18.69,18.69,0,0,0,441.7,82.42q2.637-1.684,2.417-3.955-2.051-1.538-4.907.513a26.819,26.819,0,0,0-5.933,5.347h0Zm6.592,4.761a38.407,38.407,0,0,0-9.3,8.862q-1.317,2.269.879,1.318A57.261,57.261,0,0,0,443.09,92.6q3.735-3.148,3.662-5.713-0.952-2.343-2.417-2.637a1.959,1.959,0,0,0-1.9,1.465,12.257,12.257,0,0,1-2.564,3.369h0ZM533.1,55.98a8.758,8.758,0,0,0,2.564,5.786,15.059,15.059,0,0,0,11.645,2.124q4.615-1.171,5.494-2.93l1.172-2.783q0.877-3-1.685-3.882a11.016,11.016,0,0,1-1.758-2.2q-0.219-.731-0.586,1.465a5.318,5.318,0,0,1-2.856,4.834,7.063,7.063,0,0,1-6.153.806q-3.3-2.05-2.49-6.445a2.852,2.852,0,0,1,2.637-1.538,23.371,23.371,0,0,0,8.789-3.15q2.343-1.977.293-3.369-3.15-1.464-8.057.952a1.6,1.6,0,0,1-1.758.22,3.321,3.321,0,0,1,.513-2.637,3.478,3.478,0,0,0-.732-4.395q-2.565-2.05-4.175.366A31.334,31.334,0,0,0,533.1,55.98h0Zm-29.589-6.592a2.309,2.309,0,0,1-1.465,1.977q-6.153,2.491-8.2,4.98a2.808,2.808,0,0,0,.366,2.563q3.222,3.224,4.98,3.3,3.442-.292,1.978,2.71a77.31,77.31,0,0,0-6.958,14.648q-0.587,2.345,1.465-.147,2.637-3,5.566-6.006,1.1-1.1,1.685-.659a7.258,7.258,0,0,1,.439,2.417V94.5a8.976,8.976,0,0,0,.879,4.175q0.879,1.245,2.93-.659a10.771,10.771,0,0,0,2.051-5.347q-0.294-10.033,0-20.068a1.681,1.681,0,0,1,1.757-.513,4.885,4.885,0,0,0,3.223.293q2.783-4.027-2.344-6.006-3.369-.659-2.636-3.3-0.22-3.662,1.025-5.2,6.152-4.395,4.394-8.789a3.346,3.346,0,0,0-2.783-1.465,1.644,1.644,0,0,1-1.318-.44,5.2,5.2,0,0,1-.073-2.71q0.658-4.614-2.784-6.3-3.3-.292-4.174,4.1v7.1Zm14.575-3.882-0.22,15.161q-0.879,1.466-1.758,1.465a3.6,3.6,0,0,0-1.318.806q-0.22.367,1.245,3,2.637,3.809,5.566.952a41.483,41.483,0,0,0,6.373-8.716l1.757-1.685a0.478,0.478,0,0,0-.366-0.513,11.254,11.254,0,0,0-1.831.806,7.933,7.933,0,0,1-3.149,1.318q-1.392-.585-0.952-2.637a3.374,3.374,0,0,1,1.245-3.442,9.911,9.911,0,0,0,5.42-2.2q1.244-1.39-.074-2.417a3.631,3.631,0,0,0-3.662-.733,1.561,1.561,0,0,1-2.27-1.172q0.145-3.368-2.051-4.907-1.686-.585-2.124,0a8.718,8.718,0,0,0-1.831,4.907h0Zm11.133,20.947a14.273,14.273,0,0,0-1.465,2.2q-1.539,2.2-2.051,2.344a1.86,1.86,0,0,1-1.1-.586q-1.466-1.1-2.563,1.1-1.832,3.663-2.417,11.719-0.807,9.888,3.149,15.674,1.39,1.538,2.271.439a12.986,12.986,0,0,1,8.569-1.978,3.419,3.419,0,0,1,2.124,2.564q0,3.077,2.637,1.758,7.03-3.3,7.983-10.621a84.073,84.073,0,0,1-.146-10.767,16.724,16.724,0,0,0-2.857-8.643q-1.9-2.637-3.808-2.27-4.1,3.3-7.91,1.392,0-.366,2.2-1.611,2.783-1.758.659-4.1-1.832-1.977-3.589-.659a8.922,8.922,0,0,0-1.684,2.051h0Zm9.594,11.133q-0.147,6.226-.073,12.378,0.511,3.516-2.71,2.71a41.327,41.327,0,0,0-7.471.586q-1.756.292-2.343-1.758-1.028-3.662.952-4.687a18.567,18.567,0,0,0,5.273-.952q2.49-1.391,2.124-2.783a2.7,2.7,0,0,0-2.417-1.538,7.236,7.236,0,0,0-2.929.147q-2.052.953-2.857-.073-1.026-3.442,3-5.054a20.638,20.638,0,0,1,5.86-1.9q3.222-.731,3.588,2.93h0Zm74.927-36.035a1.712,1.712,0,0,1-2.563,1.465,3.084,3.084,0,0,1-.293-2.637,6.611,6.611,0,0,0-.147-1.831q-1.246-1.83-2.417.22a7.991,7.991,0,0,0-1.391,4.248,2.786,2.786,0,0,1-1.392,2.051q-3.223,2.051-4.614,0a4.35,4.35,0,0,0-1.831-.952q-2.857.879-2.71,5.054a84.955,84.955,0,0,0,1.9,8.5q-0.147.733-1.9,0.073a8.294,8.294,0,0,1-3.443-2.2,24.508,24.508,0,0,1,.513-3.223q1.611-7.177-1.1-11.719a2.416,2.416,0,0,0-2.929-.586q-1.467.879-5.567,0.586a13,13,0,0,0-2.856.44,3.075,3.075,0,0,1-2.93-.366q-2.271-2.05-3.955,1.245a10.494,10.494,0,0,0-.952,2.93,45.9,45.9,0,0,0,1.025,12.085q0.293,2.2-.219,2.71a3,3,0,0,1-2.857-.073,1.249,1.249,0,0,0-1.465-.073,23.658,23.658,0,0,0-1.977,12.744q0.879,2.2,1.318,2.2,3.222-2.2,3.223-4.321-0.294-3.881.879-5.64,3.735-2.489,6.079-2.563,4.4-.951,8.789-1.611a13.189,13.189,0,0,1,3.223-.44q0.511,0.367.293,2.124-1.319,3.809-3.15,3a1.89,1.89,0,0,0-1.9-.073q-2.931.659-5.86,1.025a6.056,6.056,0,0,1-2.2-.073q-2.2-1.025-2.637,2.051a54.464,54.464,0,0,0-1.9,13.037,106.583,106.583,0,0,0-.073,16.48,3.742,3.742,0,0,0,1.9,3.076,2.586,2.586,0,0,0,1.612-1.831,21.866,21.866,0,0,0,.878-8.423q-0.293-1.171,1.172-1.977a48.361,48.361,0,0,0,5.127-1.172,5.167,5.167,0,0,1,1.685-.586q1.318,0.587.879,2.71a13.329,13.329,0,0,1-.147,2.783q-0.513,4.1-3.589,2.71-2.05-.22-0.659,1.392a13.1,13.1,0,0,1,1.026,2.344q-0.149,1.9,2.05,2.637,1.611,0.219,2.93-1.831a14.729,14.729,0,0,1,1.758-1.611,3.418,3.418,0,0,0,1.318-2.344,63.37,63.37,0,0,0,.293-14.941,37.948,37.948,0,0,0-1.684-11.938q-0.807-1.9,1.391-3.735a10.741,10.741,0,0,1,5.054-1.465,5.186,5.186,0,0,0,2.124-.806q1.024-.951,2.124.806,1.83,3.735,3.735,1.685A4.987,4.987,0,0,1,606.2,63.89a55.715,55.715,0,0,0,17.578-5.64q1.611-1.171.952-2.27a2.041,2.041,0,0,1,.293-2.051,12.464,12.464,0,0,0,1.9-2.93q2.343-5.126,1.172-7.324-2.565-4.1-5.054-2.27-2.565,1.758-4.248.879a1.941,1.941,0,0,1-.733-1.831,4.71,4.71,0,0,0-1.757-3.516,1.067,1.067,0,0,0-1.1-.22,6.816,6.816,0,0,0-1.465,4.834h0Zm-25.122,3.076q0.732,3.443-.513,4.614-2.564.953-3.662-.073a1.867,1.867,0,0,0-1.611-.44q-1.977,1.538-2.2,5.2a27.916,27.916,0,0,1,0,4.028,1.374,1.374,0,0,1-1.538.952,1.8,1.8,0,0,1-1.392-1.831q-0.073-3.588.073-7.178-0.074-3.076,3.955-4.028l1.465-.879a8.716,8.716,0,0,1,3.736-2.051q1.683,0.367,1.684,1.685h0ZM621.8,45.359a16.117,16.117,0,0,1-1.978,8.862q-1.392,3-3.369,3.149-1.1-.585-0.732-2.27a3.011,3.011,0,0,1,1.684-2.2,2.383,2.383,0,0,0,1.319-.879q0.511-1.464-1.612-2.856-0.513-3.662,3.369-4.687a1.128,1.128,0,0,1,1.319.879h0Zm-8.57,4.541a2.349,2.349,0,0,1-3.149.952q-0.952-2.05,1.392-2.93,2.782-.366,1.757,1.977h0ZM606.493,51a2,2,0,0,1-1.245,2.27,1.2,1.2,0,0,0-.879,1.245,1.827,1.827,0,0,0,1.392,1.318,2.394,2.394,0,0,1,.879,2.27q-0.075,3.224-2.417,1.831a25.942,25.942,0,0,1-1.978-7.91q-0.367-2.417,1.9-2.783,2.05-.44,2.344,1.758h0Zm-18.164,1.685a11.232,11.232,0,0,1-.22,4.834q-1.1.953-3.955,0.513a1.952,1.952,0,0,1-.8-2.124,2.227,2.227,0,0,1,.732-2.2,7.765,7.765,0,0,1,1.9-.44l1.758-.659a0.833,0.833,0,0,1,.586.073h0Zm22.412,6.079a1.293,1.293,0,0,1-1.172-1.611,2.144,2.144,0,0,1,.44-1.538q1.319-1.39,2.344-.44,0.8,2.637-1.612,3.589h0Zm-6.811,8.569q-2.785.879-3,1.392a4.373,4.373,0,0,0,4.614,3.223,92.506,92.506,0,0,1,10.254-2.2,19.164,19.164,0,0,0,5.859-1.172q2.637-.731,1.538-2.563a5.88,5.88,0,0,0-5.42-1.611q-7.03,1.318-13.842,2.93h0ZM585.766,68.8a7.976,7.976,0,0,1,.219,6.592,5.138,5.138,0,0,1-1.977-.147,7.081,7.081,0,0,0-3.076.22q-1.758.148-2.124-.366-1.1-3.368,2.2-5.2a5.933,5.933,0,0,1,3.735-1.611,1.312,1.312,0,0,1,1.026.513h0ZM603.344,74.8q-2.2-.951-3.15,1.611-1.171,4.468,3.882,9.521,1.539,1.538,2.857.146a6.933,6.933,0,0,1,4.394-1.465,21.794,21.794,0,0,0,5.2-.732,16.922,16.922,0,0,0,6.153-7.251q1.318-3.881-2.93-4.248a57.934,57.934,0,0,0-13.477,1.9,9.055,9.055,0,0,1-2.929.513h0Zm10.766,2.71q1.245,2.2-1.318,3.809-3.884,1.318-5.64.659-1.466-2.124,0-3.369a10.146,10.146,0,0,1,3.736-1.392q2.343-.585,3.222.293h0Zm-27.319,3.076q0.366,2.565-.439,3.442a8.148,8.148,0,0,0-5.274-.146q-3.883,1.392-2.783-3.369a1.99,1.99,0,0,1,2.27-1.1,18.789,18.789,0,0,0,5.347-1.392q1.319,0.513.879,2.563h0Zm28.638,9.3q-1.539,3.881-5.054,3.149-3,.805-4.248-0.732a5.021,5.021,0,0,0-1.978-3.955q-2.05-1.464-3.222.293a5.659,5.659,0,0,0,.366,4.395,1.661,1.661,0,0,1-2.051,1.245q-6.226,1.171-3.882,5.054a3.082,3.082,0,0,0,2.93.879A206.018,206.018,0,0,1,618.8,97.581a32.1,32.1,0,0,1,7.544.586q4.174,0.22,4.028-2.417,0.072-2.125-2.417-3.3a19.841,19.841,0,0,0-7.764.073q-2.271.072-2.343-.659a8.916,8.916,0,0,1,2.27-2.051q4.686-3.222,2.71-5.566-1.832-2.05-3.589-.22a43.722,43.722,0,0,0-3.808,5.859h0Zm38.232-45.7q-1.171,2.2-.806,2.27,2.418-1.464,4.761-2.71a3.478,3.478,0,0,1,4.1-.366,3.377,3.377,0,0,0,1.758.22q6-.146,8.789-1.465,3.587-1.538,1.611-3.3a3.333,3.333,0,0,0-3.369-.366l-4.395.732q-1.392.148-2.49-2.051-2.49-2.637-5.566,1.172A34.308,34.308,0,0,0,653.661,44.188Zm23.071,7.1a3.638,3.638,0,0,1-.878,2.563q-2.273.439-2.491-1.758a6.735,6.735,0,0,0-.439-3.516q-1.246-2.343-2.49-2.051a4.179,4.179,0,0,1-1.465.44q-3.224-.292-6.226-0.366a3.819,3.819,0,0,1-2.344-1.172,2.482,2.482,0,0,0-1.1-.659q-0.513.074-2.271,2.856l-1.9,2.93a27.394,27.394,0,0,1-2.637,4.394,5.844,5.844,0,0,1-2.929.732,14.947,14.947,0,0,0-2.93.293q-2.637.148-1.685,2.051,1.318,2.637,3.589,1.758,1.539-.366,1.612,1.025-0.075,1.758-2.417,2.93,0.8,3.516,3.442,2.93a4.888,4.888,0,0,1,2.93-.806q3-.366,6-0.513,3-.366,3.443,1.025-2.2,2.784-5.2,1.758-0.952-.439-0.074,1.611,0.511,2.271,3.223,1.9a4.614,4.614,0,0,1,1.465-.586,20.136,20.136,0,0,1,2.93-.366,4.889,4.889,0,0,0,2.343-2.49,3.186,3.186,0,0,1,2.417-1.538q2.418-.146,1.1-2.051a3.732,3.732,0,0,1-.44-3.223q0.732-4.247,2.71-4.98,1.465-.951,2.124.146a1.937,1.937,0,0,0,.879.952,6.935,6.935,0,0,1,3.882,2.856q0.072,1.905-2.124,2.344l-2.051.952q-2.271,1.832.22,1.025,2.637-.805,5.274-1.392,1.464-.366,2.929,1.318a31.918,31.918,0,0,0,5.786,4.688q5.274,3.3,8.789,1.318a9.777,9.777,0,0,1,3.443-.293q2.343,0.148-.147-1.978a8.188,8.188,0,0,1-1.464-.952,61.264,61.264,0,0,1-11.719-6.738,3.227,3.227,0,0,1-.586-4.395q0.585-2.929,1.465-5.859a3.61,3.61,0,0,1,3.369-3q2.269-.366,2.783-1.9a3.227,3.227,0,0,0-1.538-3.149,2.3,2.3,0,0,0-2.271-.22q-4.1,2.271-6.152,1.978-0.294-.292,0-2.2,0.879-2.269-1.172-4.834-1.832-1.245-3,1.025a41.913,41.913,0,0,0-6.006,13.184h0Zm-7.91-2.2q0.806,3-.732,4.541-2.856,1.173-3.589-2.344-1.1-1.758,1.1-2.344l0.586-.146q2.2-.146,2.636.293h0Zm18.6,0.732q-0.294,4.688-1.758,6.152a1.95,1.95,0,0,1-.879.22l-3-1.172q-2.05-.805-1.172-2.417,1.245-2.124,2.49-2.417a4,4,0,0,0,1.465-.366q2.49-.511,2.857,0h0Zm-26.807,4.761q-2.711.733-3.369-.513a5.673,5.673,0,0,1,1.1-2.344q1.609-2.417,2.929-.366,1.539,2.345-.659,3.223h0Zm4.1,7.91q-1.467.22-1.978-1.611a2.479,2.479,0,0,0-.293-1.1q-1.1-2.783,2.271-2.563,2.27-.44,3.076.879-0.073,3.809-3.076,4.395h0Zm-5.493-.22a6.7,6.7,0,0,1-2.564.073,5.354,5.354,0,0,1-2.637-.366q-0.587-2.783,2.71-3.809,3,0.148,2.491,4.1h0Zm6.3,11.353q-3.15-1.171-4.467,1.538-0.22,2.125,2.2,3.3,5.2,2.125,1.1,4.321l-2.343.952a5.27,5.27,0,0,0-1.758.732q-1.686,4.542,2.856,4.761a47.612,47.612,0,0,0,8.277-1.392q2.417-.659,2.563,1.611,0.66,5.639-.732,8.13a3.646,3.646,0,0,1-2.49.513q-1.758-.368-0.586.586,1.683,1.61,1.611,2.636,0.806,2.858,2.783,2.271a28.611,28.611,0,0,1,2.857-1.9A1.9,1.9,0,0,0,679,100.511a23.08,23.08,0,0,0,.659-11.5q-1.246-3.148,1.611-3.369l2.491-.513q2.928-.731,3.3,1.831,0.365,1.686,1.025,1.318,3.661-2.343,3.223-5.2a4.342,4.342,0,0,0-1.246-2.051q-3.223-3-6.152-1.9a1.341,1.341,0,0,0-.146,1.831,0.871,0.871,0,0,1-.513.952l-5.64.806a25.981,25.981,0,0,1-6.3.439,0.785,0.785,0,0,1-.439-0.586,9.6,9.6,0,0,1,1.611-1.245q5.859-2.417,11.719-5.2,3.222-1.318,2.417-3.809-1.318-3.442-3.735-1.9-4.395,2.71-8.789,5.64-2.637,1.977-3.736,1.978-2.711-.731-0.732-2.857a21.769,21.769,0,0,1,2.93-1.611q4.175-1.464,3.955-4.687,0.145-1.245-1.465-1.245-3.224.44-6.665,4.175-1.613,1.905-2.857,1.831h0Zm22.925,19.922a11.657,11.657,0,0,1,1.758,2.93q0,1.318,2.051,2.71,2.856,1.025,4.321-2.637a2.505,2.505,0,0,0-.439-2.2,7.864,7.864,0,0,0-5.494-3.735q-2.49-.879-3.442.293-0.734,1.027,1.245,2.637h0Zm-33.105,2.49q-0.294,5.565,4.394,4.395a1.444,1.444,0,0,0,1.392-1.392,6.946,6.946,0,0,1,.293-4.834q1.538-2.2.513-1.758a2.175,2.175,0,0,1-2.564-.659q-2.052-1.538-3.149,1.318a5.649,5.649,0,0,0-.879,2.93h0Z"/>
</svg>
