<svg xmlns="http://www.w3.org/2000/svg" width="900" height="140" viewBox="0 0 900 140">
  <defs>
    <style>
      .cls-1 {
        fill-rule: evenodd;
      }
    </style>
  </defs>
  <path id="王漢宗中仿宋繁" class="cls-1" d="M204.906,45.579q-2.345-.439-3.149.879a7.124,7.124,0,0,0,1.831,1.9,6.066,6.066,0,0,0,4.614.586q5.493-.879,10.913-1.465,2.2-.22,2.49,1.611,0.44,7.179.293,16.7a1.791,1.791,0,0,1-1.757,1.978q-8.569,1.246-15.015,1.611-0.807-.292-1.611.879,2.562,3.37,5.2,2.71L219.7,71.507q2.2-.146,2.2,1.611l-0.073,17.725q0,1.612-1.977,1.831-13.7,1.464-23.511,2.051a3.71,3.71,0,0,0-1.172.22q-1.026.512-.513,1.318,3,3.148,6.079,2.27,33.984-4.322,49.805-5.42,4.614-.513-0.073-4.175a3.418,3.418,0,0,0-2.93-.22q-8.277,1.538-19.775,3.076-2.2.22-2.2-1.538-0.221-8.789-.22-17.578a1.976,1.976,0,0,1,1.758-2.124q7.031-.951,16.113-1.831,2.417-.659,2.2-1.318a5.634,5.634,0,0,0-3-3q-0.732-.366-2.929.44a35.817,35.817,0,0,1-5.86,1.025l-6.006.879a1.816,1.816,0,0,1-2.343-1.9,90.268,90.268,0,0,1,.439-12.817A8.37,8.37,0,0,0,226,48.069q-0.733-1.171,1.025-1.465,10.694-1.538,18.164-2.2,2.564,0.22,2.564-1.318-2.125-4.027-5.127-2.71a314.471,314.471,0,0,1-37.72,5.2h0Zm105.176-8.5L309.5,42.942q-0.219,2.2-1.977,2.49l-6.373.952a1.887,1.887,0,0,1-2.417-1.9V40.232l0.22-1.318q0.292-1.61-1.758-2.637-2.416-1.171-2.71-1.025a1.532,1.532,0,0,0-.073,1.685A25.436,25.436,0,0,1,295.8,44.92q0.145,2.2-1.685,2.417l-6.372.732q-2.2.439-2.27,1.1A5.607,5.607,0,0,0,291.7,51l2.2-.439q2.2-.146,2.2,1.611a31.41,31.41,0,0,0,.219,3.735A4.461,4.461,0,0,0,298,58.4a1.032,1.032,0,0,0,1.318-1.025q0.22-.585,1.758-0.732,1.464-.072,1.392,1.758a1.919,1.919,0,0,1-1.758,2.124l-5.054.732q-2.2.367-2.856-.952-0.879-2.417-2.344-.952a6.807,6.807,0,0,0,.293,2.564,18.41,18.41,0,0,1,.073,7.178q-0.879,1.758,2.344,5.273,1.1-.072,1.025-1.611,0.074-1.025,1.978-1.245l3.516-.439q2.2-.22,2.05,1.685a2.009,2.009,0,0,1-1.831,2.124l-3.3.439a33.338,33.338,0,0,1-6.445.733q-1.319.148-1.172,0.952a4.572,4.572,0,0,0,4.615,1.978q2.636-.512,5.273-0.806,2.343-.366,2.051,1.685a2.3,2.3,0,0,1-2.271,2.051q-5.932.807-11.645,1.318-2.2.148-2.564,0.586a0.9,0.9,0,0,0,.22,1.1,5.382,5.382,0,0,0,3.589,1.611q4.395-.731,8.789-1.172,2.2-.146,1.1,2.051-3.444,6.666-13.257,13.4-2.711,1.758-2.637,2.27,0.805,1.979,3.149.147,11.059-4.469,16.919-16.26,0.951-2.343,1.978-2.49,1.1-.146,2.637,1.831,4.686,5.86,9.448,13.184,1.464,3.368,3.589,2.93,4.393-.44,8.789-0.659,3.077-.074,2.051-2.124-0.44-.513-2.784-0.586a15.922,15.922,0,0,1-4.394-.732q-5.2-.733-13.33-12.524-1.467-1.978.293-2.2,7.615-1.1,14.062-1.611,2.418,0.074,2.271-1.318Q325.1,77.44,322.973,78.1a40.7,40.7,0,0,1-5.86,1.245l-11.206,1.611q-1.611.294-1.318-1.685a2.17,2.17,0,0,1,1.831-2.124q6.3-1.1,12.6-1.685,2.489,0.148,2.343-1.465-1.9-3.076-3.808-2.051L307.738,73.7q-2.49.513-2.343-1.392a2.2,2.2,0,0,1,1.977-2.27,74.992,74.992,0,0,1,8.569-1.1,7.533,7.533,0,0,0,3.223-.439,1.226,1.226,0,0,0-.513-1.9q-0.807-.659-0.366-2.417a12.632,12.632,0,0,1,.879-2.49,6.675,6.675,0,0,0,.952-2.93,3.789,3.789,0,0,0-2.051-2.271,19.373,19.373,0,0,1-9.814,2.93q-2.2.22-2.124-1.611a1.934,1.934,0,0,1,1.9-2.051l2.857-.293q2.343-.659,2.49-1.1a2.461,2.461,0,0,0-1.025-1.392,2.942,2.942,0,0,1-.66-2.93,2.65,2.65,0,0,1,2.2-2.344q5.42-.805,10.839-1.318a4.158,4.158,0,0,0,1.246-.586q0.219-.22-0.879-1.684-2.052-2.489-4.322-1.1a29.615,29.615,0,0,1-5.932,1.172q-2.2.367-1.978-1.392a27.556,27.556,0,0,1,1.538-5.127,10.655,10.655,0,0,0-1.757-1.977q-1.758-1.391-2.2-1.1-0.368.294-.366,2.49h0Zm-33.765,6.079q2.344,2.93,4.322,5.859,1.39,2.71,2.783,1.025l0.513-2.637q-0.954-3.442-7.4-7.1-1.686-.879-1.831.293-0.074,1.1,1.611,2.564h0Zm32.154,7.69a2.162,2.162,0,0,1-2.051,2.124l-4.834.586q-2.2.294-2.417-1.685a1.781,1.781,0,0,1,1.685-2.2l5.932-.879q1.977-.22,1.685,2.051h0Zm-38.379,6.885a47.774,47.774,0,0,1,5.493,7.324q1.1,1.758,2.27.366,0.732-3.148.293-4.175Q276.831,59.2,272,55.98q-2.71-1.391-3.076-.806-0.587,1.246,1.172,2.563h0Zm5.639,32.227q-0.805,2.345-2.417,1.245-2.784-2.563-4.028-.659a9.29,9.29,0,0,0,1.685,2.49q1.83,2.2,3.369,4.395,1.025,1.977,2.344,1.685,0.511-.294,1.464-3.149,2.344-9.081,7.325-33.691a8.461,8.461,0,0,0,.366-3.223q-1.173-1.171-2.051.659-4.468,18.311-8.057,30.249h0Zm39.405-26.44a2.787,2.787,0,0,1-2.2,2.417l-4.98.879q-2.271.44-2.124-1.758a2.285,2.285,0,0,1,1.831-2.49l4.1-.586,1.464-.22q2.563-.439,1.905,1.758h0ZM302.245,65.5q-0.219,2.271-1.684,2.344l-4.834.586q-1.612.22-1.685-1.9a1.938,1.938,0,0,1,1.611-2.27q2.269-.439,4.541-0.659a1.621,1.621,0,0,1,2.051,1.9h0Zm71.777-18.97q1.319,0.294,1.758-2.344a5.38,5.38,0,0,0,.366-1.465q0.073-2.417-6-6.3-2.271-1.171-2.71-1.025-1.027,1.392.952,2.783a59.723,59.723,0,0,1,5.639,8.35h0Zm12.452,0.879-29.3,3.369q-2.2.22-2.344-1.538a5.758,5.758,0,0,0-1.172-3.149,0.931,0.931,0,0,0-1.391.22q0,6.739-2.051,9.961a5.321,5.321,0,0,0-1.172,2.2,4.843,4.843,0,0,0,2.27,3.662,3,3,0,0,0,1.831-2.27,19.1,19.1,0,0,0,1.1-3,2.962,2.962,0,0,1,2.344-2.49q16.7-2.124,33.325-3.955,2.2-.146,1.758,1.611a14.712,14.712,0,0,1-1.026,2.637,7.392,7.392,0,0,0-.805,2.49q0.73,1.612,2.051.366l1.684-2.49a31.115,31.115,0,0,1,4.468-5.786A2.17,2.17,0,0,0,398.632,48q0-.585-2.49-2.856a1.607,1.607,0,0,0-2.491.366q-1.832,1.392-7.177,1.9h0ZM362.23,61.546q-2.416-.44-3.076.952a6.061,6.061,0,0,0,5.127,2.417q8.13-1.538,20.655-2.783a6.017,6.017,0,0,0,2.417-.659q-1.758-4.834-5.2-3.15a192.725,192.725,0,0,1-19.922,3.223h0ZM347.069,73.338q-1.247,1.318.806,2.417a6.283,6.283,0,0,0,4.395,1.172q6.663-1.1,16.918-2.124,2.2-.072,2.271,1.685,0.44,7.4.366,19.556-0.292,1.9-2.344.952-2.784-1.538-5.346-2.783a0.909,0.909,0,0,0-1.1.879,2.245,2.245,0,0,0,1.172,1.758,77.6,77.6,0,0,1,7.69,6.665,3.683,3.683,0,0,0,1.172.659q0.587,0.072,1.319-2.857,0.879-6.08.659-23.51a17.513,17.513,0,0,1,.732-3.076q-0.073-.512,1.905-0.806,10.326-1.245,21.606-2.124,1.319-1.1-.806-3.076-1.905-1.83-2.929-1.318-26.734,4.395-48.487,5.933h0ZM347.216,95.9a7.033,7.033,0,0,0-2.051,2.051,1.022,1.022,0,0,0,1.1,1.025q0.585,0.072,3.3-1.685A56.71,56.71,0,0,0,362.3,85.936q2.783-2.783,2.929-3.442-0.513-3.588-2.417-4.541-0.732,0-1.538,2.271-3.809,7.69-14.062,15.674h0Zm35.742-13.4a101.522,101.522,0,0,1,11.133,8.936,12.62,12.62,0,0,0,2.71,2.27,1.4,1.4,0,0,0,.952-2.051q0.512-3.3-1.611-4.834-5.86-3.3-11.719-6.372-2.856-.951-3.15-0.293,0,0.513,1.685,2.344h0Zm63.354-44.019a78.955,78.955,0,0,1,1.026,13.257,1.88,1.88,0,0,1-1.758,2.051q-6.151.807-12.085,1.831a2.325,2.325,0,0,1-2.637-1.465q-0.587-2.489-1.977-1.684a1.54,1.54,0,0,0-.513,1.758,57.43,57.43,0,0,1-.513,19.043q-1.245,2.345.733,5.859,1.024,2.271,2.051,1.978a4.592,4.592,0,0,0,.732-1.831,2.15,2.15,0,0,1,1.758-2.124l11.865-1.758q2.2-.22,2.2,1.538,0,14.576-1.464,20.068a4.13,4.13,0,0,0,1.1,4.395q2.2,2.562,2.71,2.49,1.171-.588.879-2.857l0.22-24.829q0-1.61,1.977-1.977,7.471-1.318,16.773-2.344a5.707,5.707,0,0,0,2.417-.586q0.512-.805-0.733-1.9a13.212,13.212,0,0,1-2.343-1.831l1.9-12.817a7.271,7.271,0,0,1,1.1-2.49,2.747,2.747,0,0,0,.805-1.465q-2.49-4.175-4.321-2.417a8.536,8.536,0,0,1-2.344,1.831L452.831,52.61q-2.2.367-2.2-1.392a49.554,49.554,0,0,1,1.025-11.792,8.272,8.272,0,0,0-4.98-3.809,0.783,0.783,0,0,0-.733.806,5.933,5.933,0,0,0,.366,2.051h0Zm20.582,17.212q-0.879,5.128-1.539,10.254-0.366,2.417-2.05,2.71a89.091,89.091,0,0,1-10.4,1.977q-2.271.44-2.27-1.392V58.4a1.976,1.976,0,0,1,1.758-2.124q6.3-1.171,12.6-2.124,2.2-.22,1.905,1.538h0Zm-19.7,14.429q0,1.538-2.05,1.758l-11.06,1.611q-2.345.367-2.27-1.392,0-5.2.219-10.4,0.072-2.269,1.905-2.563,5.493-1.025,10.986-1.758,2.416-.292,2.417,1.318Zm47.315-2.856a15.59,15.59,0,0,0-2.271,2.637,0.8,0.8,0,0,0,.293,1.318,1.706,1.706,0,0,0,1.831-.439,97.725,97.725,0,0,0,9.888-10.693q1.685-2.343,1.685-.44,0,22.34-.586,33.618a9.013,9.013,0,0,1-.513,2.93,7.138,7.138,0,0,0,.659,6.08q0.805,1.977,1.9,1.977a1.572,1.572,0,0,0,.879-1.684l0.367-7.032,0.512-40.356A6.173,6.173,0,0,1,510.18,51.8q2.782-4.395,5.859-8.789,2.709-2.2.732-4.395l-0.878-1.465q-0.879-2.05-2.051-1.758-0.807.22-1.026,2.417Q510.4,50.34,494.506,67.259h0Zm37.646-18.677q1.1,2.345,1.538,2.49,0.439-.072,1.978-2.783a3.521,3.521,0,0,0-.659-4.395L530.4,38.035q-1.906-1.978-2.271-1.978a0.964,0.964,0,0,0-.732,1.172q3.661,8.13,4.76,11.353h0Zm6.226,6.226q-12.453,2.637-23.438,3.882-2.49-.072-2.563,1.318,2.564,2.856,5.42,1.978a59.408,59.408,0,0,1,8.276-1.685q1.539-.146,1.831,1.9,0.512,8.863-5.42,21.9a107.587,107.587,0,0,1-12.451,18.018,1.058,1.058,0,0,0,.952,1.318q0.44,0,2.124-1.831,11.207-12.232,15.747-25.634,0.806-2.2,1.392-1.9a4.833,4.833,0,0,0,2.344-.22l6.445-1.611q2.343-.585,2.2,1.172-1.977,14.576-6.591,24.463-0.294.22-2.051-1.025-2.418-1.977-4.834-4.321-1.467-.805-1.758.22-0.219.511,1.685,3.149a63.785,63.785,0,0,1,4.394,6.445q1.464,2.123,1.978,2.2,0.364,0,2.27-2.2,4.761-9.377,7.471-24.9a19.873,19.873,0,0,1,1.611-5.859q2.418-2.709-.073-3.662-1.246-1.464-2.2-.879-3.59,2.565-10.62,3.442-2.2.294-1.9-1.538l1.245-6.226a3.936,3.936,0,0,0-.219-2.71q-0.44-.44,1.318-0.879,9.74-1.83,19.482-3.369a5.9,5.9,0,0,0,2.491-.806,2.87,2.87,0,0,0-.367-1.025q-1.9-2.637-3.442-2.27a86.213,86.213,0,0,1-12.744,3.149h0ZM594.848,37.6l3.881,7.324a2.551,2.551,0,0,0,.806,1.1q0.511,0.22,1.538-1.172a13.211,13.211,0,0,0,.879-2.783q-0.732-2.637-5.493-6.738-2.125-2.343-3.076-.879-0.149.44,1.465,3.149h0Zm21.826,7.91a98.786,98.786,0,0,1-11.719,1.758Q593.529,48.73,582.1,50.413q-2.273.294-2.344-1.831,0.585-4.1-1.1-4.614a1.979,1.979,0,0,0-.952,1.685q0,7.325-2.344,11.719a2.8,2.8,0,0,0-.659,2.93q1.391,2.784,1.978,2.856,0.512-.146,1.757-2.271a20.338,20.338,0,0,0,1.1-4.395q0.293-2.2,2.051-2.49,16.845-2.417,33.691-4.541,2.418-.366,1.978,1.318-1.173,3-2.637,5.933,0.072,1.686,1.9,1.025,3.516-5.419,5.933-8.5a8.321,8.321,0,0,0,1.9-2.344q-2.856-4.834-4.76-2.637a6.911,6.911,0,0,1-2.93,1.245h0ZM596.752,55.833q0.366,4.175.439,8.35,0,1.905-1.611,2.051-10.547,1.538-15.527,1.9-2.565.22-3.076,0.952-0.22.44,1.977,1.9a5.77,5.77,0,0,0,1.465.513,20.157,20.157,0,0,0,5.859-.659q2.637-.44,5.2-0.659,2.268-.22,1.245,1.611-7.4,12.013-20.874,22.339a8.285,8.285,0,0,0-2.417,2.2,1.058,1.058,0,0,0,.512,1.245q0.44,0.146,2.637-1.172,12.011-7.69,23.218-23,1.464-2.417,1.465-.439,0.145,15.968-.879,23.511-0.879,2.783,1.831,6.226,1.318,0.659,1.758-.952,0.44-7.251.366-28.858,0-1.83,1.391.147,8.423,12.013,13.4,20.288a2.522,2.522,0,0,0,2.856.952q4.4-.659,8.789-1.025,1.539-.733,1.319-1.465a2.37,2.37,0,0,0-2.271-1.392,12.552,12.552,0,0,1-11.5-5.2q-5.567-7.1-10.547-14.209-1.611-2.343.293-2.563,7.032-1.1,14.063-1.685,2.783-.511.879-2.2a4.074,4.074,0,0,0-2.344-1.9,89.811,89.811,0,0,1-14.136,2.563q-2.05.294-2.051-1.611a18.8,18.8,0,0,1,.879-6.079q0.366-1.464-1.611-2.93-1.977-1.978-3-1.025a13.729,13.729,0,0,0,0,2.27h0ZM656.591,37.01q-1.467,7.105-8.423,16.26-1.538,1.686-.732,2.563,1.024,0.733,2.929-2.051,2.343-2.783,4.1-5.347,1.464-2.2,3.222-1.9h1.026a135.265,135.265,0,0,1,15.6-2.783,6.339,6.339,0,0,0,2.417-.732,3.251,3.251,0,0,0-2.636-2.783q-4.834,1.246-14.356,2.857-2.2.367-.952-1.758,1.611-2.2,1.611-2.93a6.311,6.311,0,0,0-1.611-2.93q-0.659-1.318-1.611-.879a8.11,8.11,0,0,0-.586,2.417h0Zm20.947,16.26q-1.1,2.2-1.831,1.611a2.287,2.287,0,0,0-2.563-.22q-0.954.22-.513-1.684l0.439-1.9a6.591,6.591,0,0,0,1.172-2.71q-2.05-3.148-3.735-1.611a3.491,3.491,0,0,1-1.392,1.025l-9.741,2.051a1.385,1.385,0,0,1-1.9-1.245q-0.221-1.538-1.319-1.611a6.79,6.79,0,0,0-.952,2.49q-0.44,3.224-1.172,6.445a2.513,2.513,0,0,1-2.343,2.344l-4.981.586a8.145,8.145,0,0,0-2.563.659q-0.44.953,1.757,2.2a8.774,8.774,0,0,0,5.347-.22q1.539-.22.952,1.831a14.416,14.416,0,0,1-1.172,3.149,4.135,4.135,0,0,0,2.124,2.637q3.369-1.318,11.426-2.051,2.2-.146,2.71.879a2.373,2.373,0,0,0,.879,1.318q0.366,0.074-1.318,2.27a27.653,27.653,0,0,1-7.178,5.786,10.385,10.385,0,0,0-2.563,1.245,1.846,1.846,0,0,0,1.025,2.124q0.951,0.953,3.223.147,3.88-.951,7.69-1.685,2.637-.511.879,0.659-6.74,4.395-11.719,5.347-2.271.367-2.563,0.806a3.027,3.027,0,0,0,.659,1.611q1.17,1.246,3.882,1.025,4.76-1.025,9.521-1.831,2.2-.22,2.2,1.538,0.073,4.249-.146,8.5-0.22,1.978-1.978,1.025a8.233,8.233,0,0,1-1.757-1.025,7.276,7.276,0,0,0-2.637-1.245q-1.686.585-.073,2.051,3.147,3,6.3,6.226,1.319,1.683,2.344.219a18.686,18.686,0,0,0,.586-3.222q0.44-6.446.586-12.671,0.072-2.269,1.9-2.564,4.4-.805,8.716-1.318a4.313,4.313,0,0,1,3.516,1.465,9.49,9.49,0,0,0,2.417,2.27,1.955,1.955,0,0,0,.879-2.417,6.688,6.688,0,0,0-2.93-4.248,35.735,35.735,0,0,0-5.42-2.783q-2.417-.805-2.783-0.293-0.147.733,1.465,2.051,1.683,1.392-.073,1.758-6.447,1.027-12.891,1.758-2.271.22-.293-0.952,8.13-5.126,11.572-6.958,3.222-.512,1.758-3.3a3.791,3.791,0,0,0-.659-1.685q-1.319-.585-2.564,1.245l-1.464,1.392a6.765,6.765,0,0,1-2.93,1.831l-8.35,1.538q-2.784.513-.879-0.806a31.949,31.949,0,0,1,4.908-3.735,4.868,4.868,0,0,0-1.026-4.028,0.883,0.883,0,0,1-.22-1.172q0.147-.585,2.051-0.879l2.783-.22a1.347,1.347,0,0,0,1.612-.879q-1.028-2.929-3.516-2.27-2.05.367-1.611-2.051a2.624,2.624,0,0,1,2.2-2.49q1.758-.072,1.611.439a1.113,1.113,0,0,0,.147,1.1q1.685,0.513,2.856-2.71a2.753,2.753,0,0,0,.513-0.879q1.318-2.343,2.417-.586l2.2,2.49a3.289,3.289,0,0,1,.147,4.395,41.661,41.661,0,0,1-6.812,5.933,9.655,9.655,0,0,0-2.49,2.124,0.661,0.661,0,0,0,.732.659q4.1-.366,10.035-6.592,1.977-2.2,3.515-.44l0.879,1.1,4.688,5.493a4.9,4.9,0,0,0,1.684.147,34.622,34.622,0,0,0,9.082-1.685q0.366-1.171-.146-1.465a7.094,7.094,0,0,0-2.564-.366q-5.566.074-11.133-5.054-2.2-2.2-1.171-3.882a28.818,28.818,0,0,0,3.149-6.885q1.39-1.318.513-2.344-0.44-.585,1.318-0.952L697.094,48a6.738,6.738,0,0,0,2.71-.439q0.511-1.171-1.026-2.051a4.771,4.771,0,0,0-3.222-.513,94.284,94.284,0,0,1-10.4,2.051q-2.344.44-1.758-1.245,1.171-3,2.564-6.006a3.83,3.83,0,0,0-.659-3.735,4.954,4.954,0,0,0-2.124-1.538q-0.588,0-.659,2.344-0.588,7.325-4.981,16.406h0Zm9.961,2.563q-1.173,2.2-2.637.44a11.84,11.84,0,0,1-1.538-2.124,2.479,2.479,0,0,0-3.149-.732q-0.22.22,0.586-1.392a2.954,2.954,0,0,1,1.245-1.392q2.709-.585,5.347-0.952,2.343-.292,2.05,1.392a36.553,36.553,0,0,1-1.9,4.761h0Zm-17.8-3.516-0.146.879q-0.367,2.417-1.978,2.563l-0.806.146q-2.2.22-2.05-.366a1.684,1.684,0,0,0-.074-1.1q-1.538-2.343.147-2.71l1.025-.22,1.465-.293q2.637-.731,2.417,1.1h0Zm-9.448,4.761-2.051.293q-1.537.22-.879-2.124,0.44-1.978,1.612-2.344,1.244-.22,2.27,1.758,0.879,2.2-.952,2.417h0Zm7.983,3.735-0.146.879q-0.66,2.2-2.2,2.344-1.467.22-1.319-.879a2.355,2.355,0,0,0-.732-2.563q-0.588-.659,1.172-1.025l1.172-.146q2.343-.366,2.05,1.392h0ZM659.96,64.7a17.4,17.4,0,0,0-2.856.22q-2.2.074-1.758-1.9a3.052,3.052,0,0,1,5.932-.439q0.806,1.977-1.318,2.124h0Zm22.119,27.319a76.361,76.361,0,0,1,10.034,6.958q1.539,2.049,2.783,1.245,0.366-.294.147-3.076a2.918,2.918,0,0,0-1.758-2.637,61.844,61.844,0,0,0-8.789-4.1q-3.444-1.977-4.761-1.025-0.293,1.612,2.344,2.637h0ZM650,100.291q-2.2,1.1-2.344,1.538-0.586,1.391.952,1.392a51.893,51.893,0,0,0,9.229-4.834,47.492,47.492,0,0,1,5.859-4.028,1.418,1.418,0,0,0,.659-2.051,3.74,3.74,0,0,0-1.831-3,9.062,9.062,0,0,0-1.684,2.417A44.985,44.985,0,0,1,650,100.291h0Z"/>
</svg>
