<svg xmlns="http://www.w3.org/2000/svg" width="900" height="140" viewBox="0 0 900 140">
  <defs>
    <style>
      .cls-1 {
        fill-rule: evenodd;
      }
    </style>
  </defs>
  <path id="王漢宗中明體繁" class="cls-1" d="M241.772,43.356H195.7q-2.126,0-1.831,1.1,0.292,0.807,2.49.806h22.632a1.587,1.587,0,0,1,1.758,1.831V68.479a1.587,1.587,0,0,1-1.831,1.758H198.853q-1.979,0-1.685,1.172,0.219,0.807,2.417.806h19.409a1.587,1.587,0,0,1,1.758,1.831V97.556a1.587,1.587,0,0,1-1.831,1.758H191.309q-2.126,0-1.831,1.1,0.291,0.805,2.49.806h61.816q2.124,0,2.637-1.026,0.44-.952-2.271-3.076l-0.732-.586q-2.2-1.686-4.468.586-2.2,2.2-3.955,2.2H226.831a1.587,1.587,0,0,1-1.758-1.831V73.972a1.587,1.587,0,0,1,1.831-1.758h20.288q2.05,0,2.564-1.1,0.366-.951-2.344-3.076l-0.732-.586q-2.2-1.684-4.468.586-2.2,2.2-3.955,2.2H226.831a1.587,1.587,0,0,1-1.758-1.831V47.019a1.587,1.587,0,0,1,1.831-1.758h23.584q2.2,0,2.71-1.025,0.44-.951-1.684-2.637l-1.392-1.1q-2.125-1.61-4.394.659-2.2,2.2-3.956,2.2h0Zm53.174-2.344a1.587,1.587,0,0,1-1.831,1.758h-7.4q-2.126,0-1.831,1.1,0.291,0.807,2.49.806h6.811a1.587,1.587,0,0,1,1.758,1.831v8.423q0,2.271,2.2,2.124a2.423,2.423,0,0,0,2.05-2.563q0-1.9,2.491-1.9,2.343,0,2.343,1.831v3.223A1.587,1.587,0,0,1,302.2,59.4h-9.3a3.637,3.637,0,0,1-3.37-.879q-2.2-1.1-2.2,1.1V72.507q0,2.345,1.978,2.27,3,0,2.27-2.27,0-1.171,1.831-1.172h8.716a1.52,1.52,0,0,1,1.685,1.831,11.164,11.164,0,0,1-.147,2.564q-0.294,2.2-2.051,2.2h-15.6q-2.126,0-1.831,1.1,0.291,0.807,2.49.806h14.795q1.685,0,1.318,1.977l-0.439,2.051q-0.733,2.2-2.49,2.2H281.836q-1.977,0-1.685,1.172,0.22,0.807,2.417.806h16.407q1.756,0,.952,1.758-6.812,10.253-17.139,12.671-2.271.585-1.977,1.391,0.44,0.951,2.929.367a53.209,53.209,0,0,0,10.254-3.809,22.927,22.927,0,0,0,10.254-9.961q1.171-2.343,2.051-.586Q312.89,100.7,325.928,104q2.2,0.366,2.636-.586a5.8,5.8,0,0,1,1.758-2.124q1.245-.952,1.172-1.318,0-.44-2.783-0.659-12.014-.879-19.556-9.082-1.611-2.2.147-2.2h18.53q2.049,0,2.49-1.025a2.1,2.1,0,0,0,.293-1.1l-3.369-2.637q-2.2-1.61-4.394.586t-3.956,2.2H307.69q-1.611,0-1.1-1.978l0.512-2.051q0.513-2.2,2.271-2.2H323.73q2.2,0,2.71-1.025,0.512-.951-1.977-2.93-2.271-1.978-.733-2.124,1.539-.072,1.539-2.417V64.816A2.917,2.917,0,0,1,326,62.473q2.783-1.83-.806-3.589-2.124-1.464-3.3-.44a4.2,4.2,0,0,1-2.856.952h-9.009a1.587,1.587,0,0,1-1.758-1.831V54.343q0-1.758,2.491-1.758a2.071,2.071,0,0,1,2.343,2.344q0,2.271,2.2,2.124a2.553,2.553,0,0,0,2.05-2.783V46.433a1.587,1.587,0,0,1,1.831-1.758h8.35q2.2,0,2.783-1.025,0.366-1.025-1.684-2.71a3.445,3.445,0,0,1-.879-0.659,3.071,3.071,0,0,0-4.4.366,6.013,6.013,0,0,1-4.1,2.124,1.651,1.651,0,0,1-1.9-1.831q0-1.758.66-1.9,2.489-.879,1.171-2.564-0.366-.366-3.149-0.659l-0.732-.073a1.746,1.746,0,0,0-2.2,1.977v3.3a1.587,1.587,0,0,1-1.831,1.758H300.952a1.587,1.587,0,0,1-1.758-1.831,1.861,1.861,0,0,1,1.172-2.051q1.979-1.025.733-2.344a5.814,5.814,0,0,0-2.051-.586L297,35.666q-2.05-.22-2.051,2.124v3.223Zm-23.291-.586a19.328,19.328,0,0,1,4.175,5.347,9.362,9.362,0,0,0,1.318,1.758q2.269,1.246,3.15-1.318a4.755,4.755,0,0,0-1.026-3.223q-2.49-3.3-7.836-4.834-2.125-.731-2.417-0.073-0.221.587,2.636,2.344h0Zm41.455,8.5a1.587,1.587,0,0,1-1.831,1.758H300.952a1.587,1.587,0,0,1-1.758-1.831V46.433a1.587,1.587,0,0,1,1.831-1.758h10.4q1.683,0,1.684,1.9v2.344ZM270.7,81q-1.758,3.224-4.687,3.3-2.2.22-2.344,1.025-0.074.807,2.124,1.1a6.226,6.226,0,0,1,3.369,1.025q1.024,3.224.293,8.862a21.871,21.871,0,0,0,.366,6.005,2.836,2.836,0,0,0,2.124,2.344,2.265,2.265,0,0,0,2.564-1.611q1.17-3.663-1.465-11.353a10.051,10.051,0,0,1-.44-5.273,110.587,110.587,0,0,1,4.1-11.719l8.5-22.559q0.879-2.2,0-2.563-0.807-.292-1.831,2.124Q276.929,66.356,270.7,81h0Zm-4.1-23a14.231,14.231,0,0,1,3.515,5.127,3.544,3.544,0,0,0,2.857,3.076q2.709-.585,1.391-4.1-1.832-3.807-7.177-6.079-2.2-.879-2.564-0.293-0.294.587,1.978,2.27h0Zm37.426,9.668a1.587,1.587,0,0,1-1.831,1.758h-8.862a1.587,1.587,0,0,1-1.758-1.831V63.132a1.587,1.587,0,0,1,1.831-1.758h9.009q1.61,0,1.611,1.978v4.321Zm16.993,0a1.588,1.588,0,0,1-1.832,1.758h-9.155a1.587,1.587,0,0,1-1.758-1.831V63.132a1.587,1.587,0,0,1,1.831-1.758h9.3q1.611,0,1.612,1.978v4.321Zm-1.539,8.276a5.546,5.546,0,0,1-3.735,1.978H309.6a1.457,1.457,0,0,1-1.612-1.831,11.8,11.8,0,0,0,.147-2.563q0.072-2.2,1.9-2.2h9.3q1.684,0,1.685,1.392a4.55,4.55,0,0,1-1.539,3.223h0Zm52.076-32.08a1.587,1.587,0,0,1-1.831,1.758h-19.19q-1.758,0-1.758-1.538,0.072-1.318-.732-1.245-0.44.074-.879,2.27-1.1,4.834-6.519,9.375-1.1,2.2,1.392,3,2.343,0.44,4.1-2.563a24.1,24.1,0,0,0,1.9-5.127q0.511-2.2,2.27-2.2h47.242q1.757,0,1.1,1.758a32.783,32.783,0,0,1-2.27,3.955q-1.467,2.051-.879,2.563,0.585,0.439,3.222-2.051a6.261,6.261,0,0,0,1.392-1.392q2.564-3.516,4.614-2.637,1.539,0.294,1.905-1.758-0.075-.585-2.857-3.149-1.832-1.61-3.515-.439a5.338,5.338,0,0,1-3.3,1.172H377.637a1.587,1.587,0,0,1-1.758-1.831q-0.513-4.027,1.025-5.347,1.9-1.318.586-2.344l-3.882-.733q-2.05-.292-2.05,2.051v6.445ZM382.91,59.177H354.126q-2.125,0-1.831,1.1,0.291,0.807,2.49.806h36.987q1.978,0,2.564-1.025,0.44-.805-1.611-2.637l-1.392-1.1q-2.2-1.61-4.468.659-2.2,2.2-3.955,2.2h0Zm11.719,12.3H343.066q-2.124,0-1.831,1.1,0.293,0.807,2.491.806H369.8a1.587,1.587,0,0,1,1.758,1.831V97.409a2.442,2.442,0,0,1-2.784,2.27l-3.808-.586q-2.2-.44-2.49.439-0.149.879,2.05,1.758,3.516,1.464,4.1,3.223,0.219,1.1,2.417.439,4.467-1.686,4.834-5.347V75.144a1.587,1.587,0,0,1,1.831-1.758h25.635q2.2,0,2.71-1.025,0.44-.951-1.758-2.71l-1.318-1.025q-2.125-1.61-4.395.659-2.2,2.2-3.955,2.2h0Zm-52.588,26.66q-2.125,1.978-1.611,2.71,0.364,0.439,2.783-1.026a45.906,45.906,0,0,0,13.11-13.477q1.611-2.343,2.564-2.2a2.09,2.09,0,0,0,1.318-.513q-0.147-1.83-3.149-2.783-2.2-1.171-3.077,1.025a47.955,47.955,0,0,1-11.938,16.26h0ZM386.279,83.42A37.3,37.3,0,0,1,398.73,98.654a5.541,5.541,0,0,0,1.392,1.685q2.269,0.585,2.783-1.1a4.441,4.441,0,0,0-.512-3.735,41.768,41.768,0,0,0-15.381-13.77q-1.978-.879-2.564-0.073-0.293.587,1.831,1.758h0Zm59.546-33.911a1.587,1.587,0,0,1-1.831,1.758h-18.97a3.333,3.333,0,0,1-3.369-.952q-2.2-1.1-2.2,1.1V82.834q0,2.271,2.856,2.051a2.764,2.764,0,0,0,1.246-.513,26.969,26.969,0,0,0,.146-3.955,1.587,1.587,0,0,1,1.831-1.758h18.53a1.587,1.587,0,0,1,1.758,1.831v21.9q0,2.343,1.978,2.2a5.766,5.766,0,0,0,2.2-.513,10.413,10.413,0,0,0,.146-2.49V80.417a1.587,1.587,0,0,1,1.832-1.758h18.75a1.587,1.587,0,0,1,1.757,1.831v1.831q0,2.271,2.784,2.051,2.2,0,1.464-2.637V57.053q-0.44-2.05,1.172-2.637a1.6,1.6,0,0,0,1.392-1.025q0.439-1.83-2.857-3.076-2.2-1.319-3.588-.22a4.759,4.759,0,0,1-3.15,1.172H451.9a1.587,1.587,0,0,1-1.758-1.831v-7.4a3.209,3.209,0,0,1,1.246-2.71q2.123-1.1.732-2.49a9.9,9.9,0,0,0-4.1-.879q-2.2-.44-2.2,1.831V49.509Zm0,25.415a1.587,1.587,0,0,1-1.831,1.758h-18.53a1.587,1.587,0,0,1-1.758-1.831V54.929a1.587,1.587,0,0,1,1.831-1.758h18.53A1.587,1.587,0,0,1,445.825,55V74.924Zm26.66,0a1.587,1.587,0,0,1-1.831,1.758H451.9a1.587,1.587,0,0,1-1.758-1.831V54.929a1.587,1.587,0,0,1,1.832-1.758h18.75A1.587,1.587,0,0,1,472.485,55V74.924Zm73.609-35.742H531.3a3.213,3.213,0,0,1-3-.732q-2.2-1.245-2.2.952v13.33q-0.149,11.793-.586,15.967a92.11,92.11,0,0,1-2.124,11.719q-2.857,13.771-17.139,22.266-1.9,1.17-1.318,2.124,0.219,0.364,2.71-.733,16.77-8.13,20.654-24.389,0.585-2.2,2.344-2.2h16.552a1.587,1.587,0,0,1,1.758,1.831v17.5q0.292,3.368-3.442,2.637a16.177,16.177,0,0,0-2.637-.366q-2.2-.368-2.417.439-0.073.805,2.124,1.538,2.928,0.951,3.3,2.783,0.366,1.1,2.564.66a6.182,6.182,0,0,0,4.833-4.1V44.675a2,2,0,0,1,1.172-2.124q2.343-1.538-1.391-3.882-2.2-1.83-3.736-.659a5.039,5.039,0,0,1-3.222,1.172h0Zm-54.639,45.41q0,2.345,2.124,2.27a4.182,4.182,0,0,0,2.051-.806,30.827,30.827,0,0,0,.146-4.175,1.587,1.587,0,0,1,1.831-1.758h11.206a1.587,1.587,0,0,1,1.758,1.831v1.831q0,2.271,2.857,2.124,2.122-.659,1.391-3.076V46.286q0-1.758,1.245-2.051,4.1-1.538-.512-5.054-2.2-2.2-3.955-.439a4.911,4.911,0,0,1-3.443,1.685h-10.62q-1.758.587-3.808-1.685-2.271-1.684-2.271.513V84.592Zm57.5-29.224a1.587,1.587,0,0,1-1.831,1.758H532.178a1.587,1.587,0,0,1-1.758-1.831V42.917a1.587,1.587,0,0,1,1.831-1.758h14.941a1.587,1.587,0,0,1,1.758,1.831V55.368Zm-38.379,2.27A1.587,1.587,0,0,1,508.74,59.4H497.534a1.587,1.587,0,0,1-1.758-1.831V44.089a1.587,1.587,0,0,1,1.831-1.758H508.96q1.61,0,1.611,1.977v13.33ZM548.95,73.825a1.587,1.587,0,0,1-1.831,1.758H531.006a1.42,1.42,0,0,1-1.611-1.758q0.585-4.686.878-12.6,0.147-2.2,1.9-2.2h15.014a1.587,1.587,0,0,1,1.758,1.831V73.825Zm-38.379,2.564a1.587,1.587,0,0,1-1.831,1.758H497.534a1.587,1.587,0,0,1-1.758-1.831V63.132a1.587,1.587,0,0,1,1.831-1.758H508.96q1.61,0,1.611,1.978V76.389Zm95.508-35.742a1.587,1.587,0,0,1-1.831,1.758h-3a5.529,5.529,0,0,1-2.637-.586q-2.2-1.1-2.2,1.1V57.126q0,1.758-2.051.147-1.977-1.684-3.515-.44t-1.538-.659V44.748a2.212,2.212,0,0,1,1.464-3,2.353,2.353,0,0,0,1.246-1.1q-0.221-1.318-2.784-2.637-2.271-1.538-3.662-.513a4.755,4.755,0,0,1-3.149,1.172h-6.958a3.094,3.094,0,0,1-3.223-.952q-2.2-1.245-2.2.952v17.5q0,1.758-1.1,1.758-0.953,0-1.1-1.318a1.06,1.06,0,0,0-.879-1.1q-0.66.074-.879,2.271a19.847,19.847,0,0,1-3.443,6.885,1.5,1.5,0,0,0,.586,1.831q0.587,0.659,2.051.146,1.758-1.1,2.344-4.541,0.366-2.2,2.124-2.2h18.9q1.539,0,1.246,2.051l-0.22.659q-0.734,2.2-.513,2.563l0.733,0.513a10.565,10.565,0,0,0,2.343-2.2q1.685-2.417,3.076-1.9,1.1,0,1.1,1.977,0,2.2,1.978,2.124a4.577,4.577,0,0,0,2.124-.732,3.349,3.349,0,0,0,.146-1.245q0-.879,1.831-0.879h20.581q1.758,0,1.758,1.245,0,1.318,1.172,1.1,0.806-.072-0.366,1.611a3.226,3.226,0,0,1-2.783,1.465h-27.1q-2.125,0-1.831,1.1,0.291,0.807,2.49.806h33.106q2.049,0,2.343-1.025,0.147-.805-1.611-2.563a4.769,4.769,0,0,1-1.172-3.516V48.264q-0.513-2.417,1.685-2.783,1.538-1.025.732-2.27L628.857,41.6q-2.344-1.39-3.588-.366a5.271,5.271,0,0,1-3.516,1.172q-2.052,0-2.051-1.1a2.926,2.926,0,0,1,.586-1.758q2.2-1.83,1.172-2.783a35.568,35.568,0,0,0-3.809-.806q-2.2-.292-2.2,1.9v2.783a1.587,1.587,0,0,1-1.831,1.758h-1.538q-1.758,0-1.758-1.1a3.016,3.016,0,0,1,.659-1.831,13.982,13.982,0,0,0,1.465-1.9q-0.219-1.1-2.124-1.245l-2.124-.366q-2.126-.366-2.124,1.9v2.783Zm-21.094,4.394q0,1.758-2.124,1.758a5.494,5.494,0,0,1-2.856-.659q-2.2-1.244-2.2.952v9.082a1.587,1.587,0,0,1-1.831,1.758,1.557,1.557,0,0,1-1.685-1.831V42.331a1.587,1.587,0,0,1,1.831-1.758H583.3q1.683,0,1.684,1.9v2.563Zm21.094,4.688a1.587,1.587,0,0,1-1.831,1.758h-1.831a1.587,1.587,0,0,1-1.758-1.831V46.14a1.587,1.587,0,0,1,1.831-1.758h1.831a1.587,1.587,0,0,1,1.758,1.831v3.516Zm9.375,0a1.587,1.587,0,0,1-1.831,1.758h-1.538a1.587,1.587,0,0,1-1.758-1.831V46.14a1.587,1.587,0,0,1,1.831-1.758H613.7a1.587,1.587,0,0,1,1.758,1.831v3.516Zm9.375,0A1.587,1.587,0,0,1,623,51.486H621.46a1.587,1.587,0,0,1-1.758-1.831V46.14a1.587,1.587,0,0,1,1.831-1.758h1.538a1.587,1.587,0,0,1,1.758,1.831v3.516Zm-39.844,6.445a1.522,1.522,0,0,1-1.684,1.758q-1.539,0-1.538-1.831V50.534a1.521,1.521,0,0,1,1.684-1.758q1.539,0,1.538,1.831v5.566Zm21.094,2.93a1.587,1.587,0,0,1-1.831,1.758h-1.831a1.587,1.587,0,0,1-1.758-1.831V55.222a1.587,1.587,0,0,1,1.831-1.758h1.9q1.683,0,1.684,1.9V59.1Zm9.375,0a1.587,1.587,0,0,1-1.831,1.758h-1.538a1.587,1.587,0,0,1-1.758-1.831V55.222a1.587,1.587,0,0,1,1.831-1.758h1.612q1.683,0,1.684,1.9V59.1Zm9.375,0A1.587,1.587,0,0,1,623,60.861H621.46A1.587,1.587,0,0,1,619.7,59.03V55.222a1.587,1.587,0,0,1,1.831-1.758h1.612q1.683,0,1.684,1.9V59.1Zm-54.785,43.946q0,2.269,2.856,2.051,2.124-.439,1.392-2.93V89.792a1.587,1.587,0,0,1,1.831-1.758h6.519a1.587,1.587,0,0,1,1.757,1.831v7.91q0.66,3.3-2.71,2.271-1.977-.368-2.124.732a1.141,1.141,0,0,0,.879,1.172q2.27,1.171,2.271,2.417,0.219,0.951,2.856.366a3.652,3.652,0,0,0,3.076-3.442V72.727q0-1.83.66-2.124,3.222-1.61-.586-3.809-2.346-1.9-3.369-.952a3.932,3.932,0,0,1-2.784.952H575.61a3.333,3.333,0,0,1-3.369-.952q-2.2-1.171-2.2,1.025v36.182ZM584.4,74.631a1.587,1.587,0,0,1-1.831,1.758H576.05a1.587,1.587,0,0,1-1.758-1.831v-4.1a1.587,1.587,0,0,1,1.831-1.758h6.665q1.611,0,1.611,1.978v3.955Zm13.477,14.355q0,2.271,1.978,2.2,3,0,2.27-2.27,0-1.171,1.831-1.172h17.358a1.493,1.493,0,0,1,1.758,1.611q0,1.538,2.124,1.465,2.124-.146,2.124-2.564V81.223a2.463,2.463,0,0,1,1.026-2.344q2.343-2.269-1.1-3.589-2.05-1.39-3.223-.439a4.283,4.283,0,0,1-2.929,1.025H603.442a3.333,3.333,0,0,1-3.369-.952q-2.2-1.1-2.2,1.1V88.986Zm25.2-4.98a1.587,1.587,0,0,1-1.831,1.758H603.882a1.587,1.587,0,0,1-1.758-1.831V79.538a1.587,1.587,0,0,1,1.831-1.758h17.358a1.587,1.587,0,0,1,1.758,1.831v4.395ZM584.4,84.3a1.587,1.587,0,0,1-1.831,1.758H576.05a1.587,1.587,0,0,1-1.758-1.831v-4.1a1.587,1.587,0,0,1,1.831-1.758h6.592q1.684,0,1.684,1.9V84.3ZM616.26,98.874q-0.879,2.2-2.637,2.2H593.7q-2.126,0-1.831,1.1,0.293,0.805,2.49.806h35.45q1.977,0,2.27-1.026,0.22-.732-1.977-3.076-2.052-2.125-3.589,0-1.613,2.2-3.369,2.2h-3.663q-1.756,0-.439-1.831l1.758-2.71q1.464-2.784,2.637-2.637a1.215,1.215,0,0,0,1.1-1.172,1.664,1.664,0,0,0-1.977-1.318l-2.2-.439q-1.977-.512-2.417,1.9a36.07,36.07,0,0,1-1.684,6.006h0Zm-12.6-4.175a23.554,23.554,0,0,1,.513,4.1,2.283,2.283,0,0,0,1.758,1.318,1.963,1.963,0,0,0,2.2-1.684q0.879-2.345-2.344-5.493-2.2-1.61-2.71-1.1t0.586,2.856h0Zm37.061-46q-2.2,2.2-1.758,2.71,0.511,0.587,3.149-1.392a26.833,26.833,0,0,0,5.127-5.2q1.685-2.2,3.443-2.2h20.581q2.2,0,2.563-1.1,0.732-1.245-2.637-3.369-2.2-1.684-4.321.44-2.05,2.051-3.808,2.051h-11.28q-1.758,0-1.465-.732,0.66-1.464,1.612-1.1,1.464-.072,1.245-1.025-0.439-1.538-3.809-2.124-1.977-.585-2.636,1.978a29.658,29.658,0,0,1-6.006,11.06h0ZM676.9,50.461q-1.686,2.417-1.318,2.856,0.585,0.587,2.783-1.245l2.051-2.27q1.758-2.2,2.27-.44a46.541,46.541,0,0,0,4.615,10.181q0.951,1.612-1.245,3.809a44.716,44.716,0,0,1-8.13,6.3q-2.2,1.318-1.9,1.831,0.293,0.659,3-.366a39.409,39.409,0,0,0,9.742-6.006q1.537-1.318,3.149.586a45.618,45.618,0,0,0,7.983,6.445,3.219,3.219,0,0,0,4.175-.439l1.392-.879q2.2-.659,2.27-1.1,0-.292-2.2-0.879a32.979,32.979,0,0,1-10.986-5.933q-1.907-1.61-.586-3.223a36.669,36.669,0,0,0,6.006-11.939q0.658-2.2,2.417-2.2h1.171q2.2,0,2.857-1.025,0.366-.951-1.978-3.149-2.124-2.123-3.735,0-1.612,2.2-3.369,2.2H686.426q-1.758,0-1.026-1.758l0.44-.879q1.024-2.2,1.9-2.344,1.464-.22,1.172-1.245-0.734-.951-3.809-1.611-2.2-.512-2.71,2.051A39.374,39.374,0,0,1,676.9,50.461h0Zm-13.4-3.369H652.222a4.78,4.78,0,0,1-2.417-.586q-2.052-1.245-2.344,1.172l-1.392,7.544q-0.586,2.2-2.343,2.2H640.5q-2.125,0-1.831,1.1,0.291,0.807,2.49.806h2.051a1.307,1.307,0,0,1,1.465,1.758l-2.857,9.155q-0.659,2.2-.293,2.49a6.834,6.834,0,0,0,3.882-.22A7.19,7.19,0,0,0,646,70.6q0.66-2.2,2.417-2.2H661.6q1.61,0,.805,1.538-1.392,2.71-5.639,1.1-2.2-.512-2.417.366-0.221.807,1.9,2.051a4.817,4.817,0,0,1,.952,1.831q0.221,1.392,2.93,1.1,4.686-.44,6.518-5.786,0.806-2.2,2.564-2.2h3.515q2.05,0,2.637-1.1,0.366-.805-1.758-2.93-2.05-1.9-3.662.22l-0.586.732q-1.685,2.051-1.318-.366l0.586-3.442q0.511-2.2,2.27-2.2h3.589q2.124,0,2.417-1.1,0.147-.805-1.9-2.856-1.977-1.978-3.442.146-1.467,1.905-1.831,1.9-0.294-.146-0.147-1.9l0.147-1.172a17.137,17.137,0,0,1,.512-3.3,3.6,3.6,0,0,1,1.319-.806,1.838,1.838,0,0,0,1.245-1.025,8.517,8.517,0,0,0-2.2-2.27q-2.49-1.977-4.028-.879a4.862,4.862,0,0,1-3.076,1.025h0Zm28.052,9.375q-1.467,2.2-2.857.293a44.3,44.3,0,0,1-4.541-9.009q-0.732-2.2,1.026-2.2h9.228q1.758,0,1.319,1.831a33.334,33.334,0,0,1-4.175,9.082h0Zm-26.221-1.245q-0.294,2.2-2.051,2.2H651.123q-1.758,0-1.172-2.49a32.731,32.731,0,0,1,.806-3.662q0.585-2.2,2.344-2.2h11.132q1.685,0,1.465,2.49ZM656.1,53.464A21.475,21.475,0,0,1,658.447,55q1.758,1.758,3.223.366a1.932,1.932,0,0,0-.293-2.637,8.927,8.927,0,0,0-5.566-1.538q-2.052,0-2.124.879,0,0.439,2.417,1.392h0Zm7.983,10.84q-0.513,2.2-2.271,2.2h-12.89a1.307,1.307,0,0,1-1.465-1.758l0.879-3.223q0.658-2.2,2.417-2.2h12.451q1.685,0,1.392,1.9Zm-8.936-1.1,3.37,2.2q2.2-.146,2.05-2.051-0.879-2.2-2.636-2.27a16.014,16.014,0,0,0-2.637-.22q-2.417,0-2.49.659,0,0.659,2.343,1.685h0ZM664.819,78q-2.05,1.832-3.955.732a19.344,19.344,0,0,0-2.71-.879q-2.05-.731-2.27.366-0.221.659,2.49,1.831a23.793,23.793,0,0,1,5.127,5.566,1.5,1.5,0,0,0,1.9.366q2.2-1.171.366-4.1-1.026-.951.733-2.051a40.22,40.22,0,0,0,5.566-3.955,2.478,2.478,0,0,1,1.465-.586q1.979-.366.44-1.9a20.338,20.338,0,0,0-2.417-.659q-2.126-.585-3.589,1.685A35.243,35.243,0,0,1,664.819,78h0Zm3.443,9.155a6.636,6.636,0,0,1-3.443,1.025h-9.668L646,87.741q-2.05-.146-1.611,2.27l0.805,3.809q0.732,1.684,1.758,1.392a1.3,1.3,0,0,0,1.465-1.465,1.841,1.841,0,0,1,.586-1.1l20.142-1.465q2.2-.072,2.2,1.685v10.108q0,2.2,1.9,2.124a7,7,0,0,0,2.2-.44,9.223,9.223,0,0,0,.147-2.417V92.282a1.976,1.976,0,0,1,1.758-2.124q9.3-1.538,17.724-3.589a3.329,3.329,0,0,1,3.662,1.245l1.832,2.71q0.878,2.125,2.417,1.9,2.635-.805,1.538-3.662a23.57,23.57,0,0,0-10.254-7.837q-2.271-.731-2.637,0t1.685,1.611q1.9,1.466-.147,1.9-9.228,1.832-18.457,2.856-2.637.294-.732-1.1a103.722,103.722,0,0,0,11.132-7.764q2.2-1.9,2.93-1.831,1.464,0.367,1.465-.952-0.073-.439-2.71-1.831-2.125-.879-3.882,1.392a80.287,80.287,0,0,1-14.648,11.938h0Zm-23.877,16.114q-2.418.658-2.2,1.171,0.291,0.879,2.856.66a30.254,30.254,0,0,0,16.113-6.079,3.205,3.205,0,0,1,2.564-.439,3.022,3.022,0,0,0,1.538-.44q0.73-1.392-2.564-3a3.005,3.005,0,0,0-4.1.513,32.483,32.483,0,0,1-14.209,7.618h0Zm41.235-6.885a56.588,56.588,0,0,1,11.719,6.3,8.065,8.065,0,0,0,3.3,1.977q2.783-.952,1.758-3a14.324,14.324,0,0,0-6.006-4.175A52,52,0,0,0,685.4,94.406q-2.2-.439-2.27.366,0.145,0.805,2.49,1.611h0Z"/>
</svg>
