<svg xmlns="http://www.w3.org/2000/svg" width="1200" height="140" viewBox="0 0 1200 140">
  <defs>
    <style>
      .cls-1 {
        fill-rule: evenodd;
      }
    </style>
  </defs>
  <path id="王漢宗中楷體注音" class="cls-1" d="M246.292,55.483a1.946,1.946,0,0,1-2.563.366,44.717,44.717,0,0,0-4.175-2.637,9.715,9.715,0,0,0-2.93-1.318,0.474,0.474,0,0,0-.293.22q3.149,2.271,6.3,4.688,1.318,1.1.146,2.124a56.046,56.046,0,0,1-7.91,6.226q-1.537.953-1.172,1.1a4.277,4.277,0,0,0,1.026-.22,34.345,34.345,0,0,0,9.375-6.079,1.524,1.524,0,0,1,2.343,0q2.124,1.832,4.029,3.809,1.17,1.905,2.417,1.9,1.83-.879.439-2.49a37.69,37.69,0,0,0-5.713-4.687,1.208,1.208,0,0,1-.073-2.051l1.538-2.051a10.6,10.6,0,0,1,2.271-2.783,2.058,2.058,0,0,0,.439-0.732,2.716,2.716,0,0,0-1.465-1.758q-1.172-.659-1.245.659a11.179,11.179,0,0,1-2.783,5.713h0Zm11.06,15.82a0.921,0.921,0,0,0-.293,1.318q1.464,2.051,3.149-.586a35.778,35.778,0,0,0,4.1-5.493q0.145-.731-1.392.366ZM243,72.329a4.78,4.78,0,0,1,.366,2.71l-0.293,1.977a1.452,1.452,0,0,1-1.391,1.245q-3.663.22-5.933,0.22l-0.439.147a1.247,1.247,0,0,0,.512.952,2.748,2.748,0,0,0,2.93.586,24.8,24.8,0,0,1,2.417-.586q1.391-.146,1.1.952-1.758,4.908-7.251,9.228a3.7,3.7,0,0,0-1.319,1.392q0.147,0.294,1.538-.293a21.991,21.991,0,0,0,7.984-8.35,3.857,3.857,0,0,1,.732-1.245l-0.219,6.006a3.857,3.857,0,0,0,3.588,4.1h6.446a1.4,1.4,0,0,0,1.465-1.1,0.833,0.833,0,0,0-.66-0.879,8.66,8.66,0,0,0-2.783.22,25.5,25.5,0,0,1-3.3.22q-2.929.22-3.442-2.344a29.928,29.928,0,0,1,.439-6.226,1.912,1.912,0,0,0-.439-1.392q-0.513-.585.732-0.732l1.758-.147a9.644,9.644,0,0,1,3,.22,3.317,3.317,0,0,0,1.392,0,0.932,0.932,0,0,0,.805-0.806,1.2,1.2,0,0,0-1.318-.952,16.861,16.861,0,0,0-3.149.22l-2.344.22q-1.392.074-1.245-1.025a18.229,18.229,0,0,1,.8-4.687,1.043,1.043,0,0,0-.586-0.806q-1.537-.805-2.27-0.146a1.545,1.545,0,0,0,.366,1.1h0ZM177.225,52.993a5.6,5.6,0,0,0-2.491.732,0.96,0.96,0,0,0,.22.732q4.761,2.93,10.986.952a2.6,2.6,0,0,1,3,2.051l0.147,10.62a2.077,2.077,0,0,1-1.758,2.2q-4.1.879-8.2,1.465a4.3,4.3,0,0,0-2.564.879q-0.147.367,2.051,1.318a19.979,19.979,0,0,0,8.35-.147q2.2-.22,2.27,1.538,0,6.08.22,12.158,0.072,2.2-1.685,2.417-12.012,1.173-23.8,2.563-2.784.733-.879,2.417,3,2.2,5.786,1.245A272.605,272.605,0,0,1,201.1,92.91q13.623-.659,19.116.146a9.282,9.282,0,0,0,4.248-.366q2.049-1.171.366-2.637a12.731,12.731,0,0,0-5.859-3.076q-3.3.074-6.372,0.439L195.1,89.1q-2.2.148-2.124-1.611l0.586-12.964a2.091,2.091,0,0,1,1.977-2.051q3.588-.731,7.178-1.245,2.637-.585,3-1.172a1.819,1.819,0,0,0-.44-2.344,7.3,7.3,0,0,0-4.1-.586l-5.2,1.172q-2.2.44-2.2-1.318a72.667,72.667,0,0,1,.513-8.716q0.145-2.2-.952-3-1.026-.659.732-1.025a122.2,122.2,0,0,0,12.085-2.344,3.086,3.086,0,0,0,2.417-1.758q0.22-.585-2.417-1.831a11.024,11.024,0,0,0-6.225.439,118.03,118.03,0,0,1-22.705,4.248h0Zm173.657-2.857q-1.1-.366-1.245.659a4.471,4.471,0,0,1,.732,2.71,38.628,38.628,0,0,1-5.2,13.77q-1.026,1.758-.586,1.611a8.4,8.4,0,0,0,1.538-1.465,27.111,27.111,0,0,0,4.761-9.741l1.611-5.713a1.286,1.286,0,0,1,1.172-.439q7.543-.731,10.547-0.732a3.072,3.072,0,0,0,1.611-.513q0.366-.951-1.245-1.318a17.563,17.563,0,0,0-4.248.513,28.609,28.609,0,0,1-9.448.659h0Zm18.9,18.457a53.526,53.526,0,0,0,7.1,4.761,4.209,4.209,0,0,0-.733-1.465q-2.124-2.709-4.321-5.273a1.194,1.194,0,0,0-2.051-.147q-1.172,1.173,0,2.124h0Zm-9.961,3.3q-4.982.513-10.327,0.733a3.2,3.2,0,0,0-1.391.513,0.872,0.872,0,0,0,.659.586,2.41,2.41,0,0,1,1.172.879,6.853,6.853,0,0,1-2.417,6.006q-1.906,1.318-.806,3a1.254,1.254,0,0,0,1.245-.073,8.817,8.817,0,0,1,2.783-1.172,62.276,62.276,0,0,1,11.426-.806q1.539,0.294.952,1.318a23.806,23.806,0,0,1-3.955,6.958,7.133,7.133,0,0,0-1.465,1.685,0.632,0.632,0,0,0,.513.659,4.331,4.331,0,0,0,1.611-1.172,17.686,17.686,0,0,0,4.322-5.859,4.6,4.6,0,0,1,.805-1.392q1.245-1.464,1.026-2.051-1.832-2.343-3.223-1.611a12.762,12.762,0,0,1-1.977.293q-1.393,0-.879-1.1a16.711,16.711,0,0,1,2.563-4.248,2.58,2.58,0,0,0,1.1-1.611,2.81,2.81,0,0,0-1.245-1.611,1.382,1.382,0,0,0-1.758-.293,1.27,1.27,0,0,1-.733.366h0Zm0.513,2.93q-1.1,2.2-2.344,4.468a2.15,2.15,0,0,1-1.757,1.245,42.845,42.845,0,0,0-5.64.586q-1.392.148-.586-1.025a18.937,18.937,0,0,0,.952-1.685,3.8,3.8,0,0,0,.22-3.442q-0.368-.659.732-1.1a36.82,36.82,0,0,1,8.35-.586q0.805,0.44.073,1.538h0ZM316.238,37.979a6.055,6.055,0,0,1,.513,1.245,12.233,12.233,0,0,1-.147,3.662l-0.292,2.124a2.756,2.756,0,0,1-2.124,2.637q-2.491.659-4.761,1.025a1.645,1.645,0,0,1-2.271-1.538q0-4.175-2.344-5.42a6.617,6.617,0,0,0-4.321-.366q-0.368.294,1.319,3a25.63,25.63,0,0,1,1.245,3.882q0.44,1.538-1.612,1.9l-4.321.513a4.985,4.985,0,0,0-2.783.513q-0.44.367,2.49,1.685a7.358,7.358,0,0,0,5.054-.146,1.983,1.983,0,0,1,2.71,1.392l0.659,2.71q1.318,2.784,1.9,2.417a1.329,1.329,0,0,1,.952-0.44q0.44,0.074,1.319,2.27a1.6,1.6,0,0,1-1.392,2.271,37.441,37.441,0,0,1-9.228,1.1q-2.2-.292-2.637.073-0.147.367,1.684,2.564a36.188,36.188,0,0,1,2.125,4.394,6.188,6.188,0,0,0,1.464,2.637,0.966,0.966,0,0,0,1.612.147,2.03,2.03,0,0,1,1.684-.586l3.223-.439q2.27-.292,2.124,1.978-0.294,2.345-1.978,2.637l-6.884,1.025a8.95,8.95,0,0,0-3.37.659,0.786,0.786,0,0,0,.074.733q3.368,1.466,9.155.366,2.2-.22,1.758,2.051A3.12,3.12,0,0,1,306.5,85.22q-6.006.953-13.184,1.392-1.172.587-.585,1.245a10.8,10.8,0,0,0,6.811,1.392,50.519,50.519,0,0,1,5.2-.879q2.343-.22,1.465,1.538a25.55,25.55,0,0,1-10.84,11.353q-3,1.83-.146,1.611,9.888-2.856,14.868-13.037a7.749,7.749,0,0,1,1.465-2.417A33.9,33.9,0,0,1,313.9,90.64L317.85,96.5q3.514,5.785,6.225,6.006a48.943,48.943,0,0,0,13.037-1.245q0.439-.368.22-0.586-4.542-1.1-9.082-2.49-5.567-1.392-11.719-8.862-2.126-2.2-.219-2.49,7.251-.805,15.747-1.025a11.6,11.6,0,0,0,3.149-.22q1.758-2.2-1.392-3.516a14.564,14.564,0,0,0-8.789.073l-11.206,1.9q-1.466.22-1.025-2.124a2.5,2.5,0,0,1,2.124-2.27l10.107-1.465a7.062,7.062,0,0,0,2.784-.732q1.1-1.758-.953-2.271a10.165,10.165,0,0,0-2.563-.22l-8.276,1.465q-2.2.294-1.978-1.831,0.22-2.2,2.051-2.417l7.178-1.025a12.3,12.3,0,0,0,2.636-.439q1.1-.731.22-1.465-0.586-.585.659-2.124a12.964,12.964,0,0,1,4.1-2.93,3.375,3.375,0,0,0-1.685-2.564q-4.248-3.516-7.324-1.392a50.857,50.857,0,0,1-5.347,1.392q-1.538.367-1.465-.366a5.538,5.538,0,0,0-1.684-1.977q-1.613-.951.439-1.318l2.124-.293a8.105,8.105,0,0,0,2.564-.659,1.312,1.312,0,0,0-.22-0.879,2.257,2.257,0,0,1,0-2.124l0.806-2.49q0.585-2.2,2.343-2.344,4.1-.44,8.2-0.586a9.908,9.908,0,0,0,2.783-.22q1.17-1.464-.586-2.564-2.931-1.83-8.789-.146-2.418.44-1.9-1.172l0.732-2.271q0.659-2.2-1.538-4.175-2.784-1.758-4.395-.806a1,1,0,0,0,.293.732h0Zm-27.466,14.5q2.637,1.686,3.809-.44,0.879-6.884-7.837-8.13-2.345.074-.806,2.93a18.3,18.3,0,0,0,4.834,5.64h0Zm26.587,0.439a2.884,2.884,0,0,1-2.124,2.637l-3.3.732q-2.2.513-2.343-1.318a3.183,3.183,0,0,0-.074-1.172q-0.073-2.2,1.685-2.637l4.321-.806q2.269-.439,2.051,1.318ZM282.693,69.033q3.077,1.246,3.589-1.538,0.292-3.368-3.149-5.493a15.459,15.459,0,0,0-5.86-1.611q-2.49.22-1.025,2.344,4.1,5.347,6.445,6.3h0Zm40.357-2.71a3.235,3.235,0,0,1-2.71,2.344l-3.736.586q-2.2.44-1.977-1.538l0.146-1.684q0.147-2.2,1.9-2.49a34.011,34.011,0,0,1,4.394-.586q3.735-.072,1.978,3.369h0Zm-38.819,15.82a15.793,15.793,0,0,1-6.225,6.592,4.682,4.682,0,0,0-1.1.879q-0.513,2.93,2.564,7.617,2.343,3.222,3.589-.293,2.049-6.884,6.445-17.578,2.269-5.933,4.248-11.865,0.366-2.2.073-2.49-0.294,0-1.684,2.49Zm26.148-15.308v1.025q-0.221,2.417-1.685,2.71l-3.369.659q-2.416.367-2.783-1.245l-0.439-1.9q-0.515-1.61,1.464-1.831l2.857-.586,1.684-.366a1.61,1.61,0,0,1,2.271,1.538h0ZM471.146,41.421l-10.767,1.1a3.005,3.005,0,0,0-1.465.586,0.7,0.7,0,0,0,.586.659,2.093,2.093,0,0,0,1.392.366l3.881-.659q1.39-.22,1.465.879l0.366,4.028v3.516a37.825,37.825,0,0,0-.219,5.054,2.983,2.983,0,0,0,.146.952q0.732,1.318,1.026,1.245a1.87,1.87,0,0,0,.732-1.831V53.652l-0.439-9.595a1.126,1.126,0,0,1,1.171-1.172l2.491-.293a2.706,2.706,0,0,1,2.2.22,1.477,1.477,0,0,1,.366,1.318,33.833,33.833,0,0,1-.513,3.882,2.739,2.739,0,0,1-1.171,2.417,5.775,5.775,0,0,1-1.612-.366q-1.392-.512-1.465-0.293-0.292.439,0.733,0.952a6.423,6.423,0,0,1,1.245,1.318q0.806,2.051,2.417.147a14.476,14.476,0,0,0,2.124-6.958,12.276,12.276,0,0,1,.586-2.71,0.743,0.743,0,0,0-.293-0.879,3.483,3.483,0,0,0-3.662-.366,6.019,6.019,0,0,1-1.318.147h0Zm1.245,23a8.715,8.715,0,0,1-1.905,2.637,2.115,2.115,0,0,1-2.49.586l-5.273-2.27A5.185,5.185,0,0,0,461.111,65q-0.293.148,1.392,1.1l4.175,2.27q1.391,0.807.219,1.611a51.633,51.633,0,0,1-6.884,4.248q-1.392.807-1.245,0.952a25.991,25.991,0,0,0,9.521-4.395,1.949,1.949,0,0,1,2.417.073L472.1,71.89a21.973,21.973,0,0,1,2.783,2.271q1.685,1.318,2.124-.733a5.5,5.5,0,0,0-1.245-1.392,40.923,40.923,0,0,0-3.882-2.27q-1.173-.731-0.073-1.758l1.977-1.978a4.615,4.615,0,0,0,1.465-1.465,2.942,2.942,0,0,0-.952-1.318,1.149,1.149,0,0,0-1.538-.22,11.907,11.907,0,0,1-.366,1.392h0Zm-4.322,19.263q0.22,1.246-1.465,3.809a32.246,32.246,0,0,1-6.518,8.643q-1.977,1.1-.659,3a2.286,2.286,0,0,0,1.758-.146,39.377,39.377,0,0,1,15.673-1.245q1.758-.367.293-1.611a4.008,4.008,0,0,0-3-.439q-5.786.879-11.059,1.245a1,1,0,0,1-.952-0.293,2.035,2.035,0,0,1,.659-1.318l7.031-9.521a7.7,7.7,0,0,0,1.1-1.758A2.525,2.525,0,0,0,467.776,82a6.727,6.727,0,0,0,.293,1.685h0Zm-48.12-36.255a1.433,1.433,0,0,0,1.465-1.1q0.879-3.881-2.856-6.3a15.246,15.246,0,0,0-5.64-1.538q-2.491-.072-0.586,2.71,3.956,5.567,7.617,6.226h0ZM425,50.137l-22.632,3.516q-2.2.367-2.417-.879A2.825,2.825,0,0,0,398.2,50.8q-0.44,0-1.391,2.2a16.756,16.756,0,0,1-3,5.64q-2.858,3.735-2.49,6.372a1.384,1.384,0,0,0,1.757,1.172q4.027-1.538,5.786-7.471,0.951-2.417,2.564-2.271a5.633,5.633,0,0,0,3-.366,224.038,224.038,0,0,1,29.224-3.955q2.2,0.074,2.563.513,0.292,1.758-1.978,6.225a8.527,8.527,0,0,0-1.025,2.637q0.293,0.22,2.49-1.1a58.525,58.525,0,0,1,6.592-4.541q6.738-2.343,2.344-5.859-4.982-4.247-7.91-2.637A44.911,44.911,0,0,1,425,50.137h0ZM406.839,64.272q-2.125-.072-2.417,1.1a9.655,9.655,0,0,0,6.372,1.685q6.884-1.171,13.769-2.637,3.224-.439,2.71-2.563a5.991,5.991,0,0,0-3.3-1.172q-1.978-.292-5.42,1.245a103.549,103.549,0,0,1-11.719,2.344h0ZM395.926,76.284q-1.1.439-.733,1.245,3.737,1.905,6.3,1.538,4.174-.879,8.35-1.465a3.508,3.508,0,0,1,3.589,1.978q1.9,4.468,1.245,13.7a12.788,12.788,0,0,1-.659,2.93q-1.467,2.343-1.392,2.93a13.411,13.411,0,0,0,1.978,4.394q0.951,1.464,1.977.879a3.085,3.085,0,0,0,1.758-3.369q-0.513-16.186,1.025-21.826a2.746,2.746,0,0,0-1.9-1.758q-1.1-.585.806-0.952a166.275,166.275,0,0,1,18.09-1.318q4.028-.22,1.1-3.3a8.723,8.723,0,0,0-5.054-.952q-5.053.587-13.33,2.344a153.588,153.588,0,0,1-23.144,3h0Zm37.28,13.843q2.856,4.686,6.006,5.054,1.17,0.146,1.538-1.392a6.374,6.374,0,0,0-1.538-5.859,21.632,21.632,0,0,0-12.305-6.592q-0.44.22,1.758,2.93,2.416,2.93,4.541,5.859h0Zm-35.229-.073q-3.37,3.444-3.223,6.079,0.291,1.684,1.465,1.392a5.9,5.9,0,0,0,3.515-1.831q6.225-6.518,3.736-12.378-0.513-.805-1.685,1.611a17.913,17.913,0,0,1-3.808,5.127h0ZM578.592,41.128a6.057,6.057,0,0,0,.659,1.245,24.721,24.721,0,0,1,.439,6.592,1.13,1.13,0,0,1-1.1,1.245l-1.465.146a3.99,3.99,0,0,1-1.611,0,1.7,1.7,0,0,1-.367-1.318,3.859,3.859,0,0,0-.073-2.783,1.425,1.425,0,0,0-1.391-.952q-0.514,0,0,1.611a6.786,6.786,0,0,1-.147,3.369,4.4,4.4,0,0,0-.513,1.758q0.587,1.318,1.538.732a9.38,9.38,0,0,1,3.736-1.245,1.306,1.306,0,0,1,1.465,1.392v1.611a1.13,1.13,0,0,1-1.1,1.245q-2.565.22-5.127,0.586a4.492,4.492,0,0,1-1.392.073q-1.392-.585-1.831.22-0.074.22,1.246,1.1a2.544,2.544,0,0,0,1.391.366,55.685,55.685,0,0,1,9.668-1.245,27.007,27.007,0,0,1,6.812.073,5.08,5.08,0,0,0,1.538.293q0.951-.951-0.074-1.538a3.12,3.12,0,0,0-2.783-.659,22.421,22.421,0,0,1-5.566.44,1.08,1.08,0,0,1-1.392-1.1v-1.9a1.13,1.13,0,0,1,1.1-1.245,12.084,12.084,0,0,1,1.831-.146q1.319,0,1.392.806,0.072,1.027.878,0.659a3.807,3.807,0,0,0,.733-2.93,12.058,12.058,0,0,1,.659-3.882,0.879,0.879,0,0,0-.586-1.025,3.1,3.1,0,0,0-1.611-.366,3.258,3.258,0,0,0,.073,1.538,7.252,7.252,0,0,1,0,2.563,1.262,1.262,0,0,1-1.245,1.392l-1.758.073q-1.392,0-1.391-1.1a25.634,25.634,0,0,1,.366-6.226,1.159,1.159,0,0,0-.44-1.318,1.993,1.993,0,0,0-2.2-.659,0.917,0.917,0,0,0-.366.513h0ZM584.6,64.419a8.715,8.715,0,0,1-1.9,2.637,2.115,2.115,0,0,1-2.49.586l-5.273-2.27A5.185,5.185,0,0,0,573.318,65q-0.292.148,1.392,1.1l4.175,2.27q1.39,0.807.219,1.611a51.633,51.633,0,0,1-6.884,4.248q-1.392.807-1.245,0.952a25.991,25.991,0,0,0,9.521-4.395,1.949,1.949,0,0,1,2.417.073L584.3,71.89a21.973,21.973,0,0,1,2.783,2.271q1.685,1.318,2.124-.733a5.5,5.5,0,0,0-1.245-1.392,40.923,40.923,0,0,0-3.882-2.27q-1.173-.731-0.073-1.758l1.977-1.978a4.615,4.615,0,0,0,1.465-1.465,2.942,2.942,0,0,0-.952-1.318,1.149,1.149,0,0,0-1.538-.22,11.907,11.907,0,0,1-.366,1.392h0Zm-4.322,19.263q0.221,1.246-1.464,3.809a32.269,32.269,0,0,1-6.519,8.643q-1.977,1.1-.659,3a2.286,2.286,0,0,0,1.758-.146,39.377,39.377,0,0,1,15.673-1.245q1.758-.367.293-1.611a4.008,4.008,0,0,0-3-.439q-5.785.879-11.059,1.245a1,1,0,0,1-.952-0.293A2.035,2.035,0,0,1,575,95.327l7.031-9.521a7.7,7.7,0,0,0,1.1-1.758A2.525,2.525,0,0,0,579.983,82a6.727,6.727,0,0,0,.293,1.685h0ZM526.59,54.092q0,1.612-1.978,1.9L513.7,57.241q-2.2.148-2.856-.513a6.656,6.656,0,0,0-4.834-.659,0.791,0.791,0,0,0-.22.733,16.289,16.289,0,0,1,1.9,3.369,55.368,55.368,0,0,1,2.491,14.648q-0.149,4.323,2.417,4.834a2.979,2.979,0,0,0,.8-1.831q0.293-1.538.806-1.318a6.331,6.331,0,0,0,2.124.147l8.057-.586q2.2,0,2.2,1.758v23.072q-0.367,2.856,1.025,3.076,2.563-2.71,3.076-10.4,0.22-8.13.147-16.04a1.881,1.881,0,0,1,1.758-2.051q6.883-.659,13.769-1.1a6.652,6.652,0,0,0,1.9-.366q1.39-1.318-.953-2.564-1.319-.439-0.512-2.2,3.075-6.957,6.518-9.448a1.956,1.956,0,0,0,.733-2.856q-4.908-5.493-10.035-4.248a55.47,55.47,0,0,1-10.986,2.124q-2.2.22-2.2-1.538-0.148-6.738,1.538-10.474a2.889,2.889,0,0,0,.293-1.318q-1.465-2.783-5.566-3.809-3.076-1.171-3.736.293a26.182,26.182,0,0,1,3.223,16.113h0Zm18.384,4.248a71.593,71.593,0,0,1-2.491,10.254q-0.805,2.345-2.563,2.637l-6.885.732q-2.2.148-2.2-1.611V59.365a1.881,1.881,0,0,1,1.758-2.051q8.055-1.1,11.5-.733,1.319,0.733.879,1.758h0ZM526.59,60.1V70.864a1.791,1.791,0,0,1-1.758,1.978l-8.936.952q-2.271.22-2.343-1.538a83.034,83.034,0,0,0-1.245-10.4q-0.368-1.83,1.684-1.831l10.4-1.465q2.2-.22,2.2,1.538h0ZM684.28,49.99q-1.611-.292-2.124.513-0.147.148,1.172,1.025a4.943,4.943,0,0,0,2.783-.073,24.3,24.3,0,0,1,2.71-.293q1.318-.146.952,1.025a21.928,21.928,0,0,1-1.1,2.783q-0.66,1.392-.366,1.758a1.688,1.688,0,0,0,1.977.073,22.672,22.672,0,0,1,5.64-.733,1.636,1.636,0,0,1,1.977.659,12.637,12.637,0,0,1-2.417,7.471q-1.1,1.758-2.636.952l-1.026-.366q-1.392-.731-1.538-0.513a5.011,5.011,0,0,0,1.172,1.538,3.484,3.484,0,0,1,.732,1.392,1.081,1.081,0,0,0,.733.806q2.562,0.148,4.175-2.783a13.552,13.552,0,0,0,2.27-5.566,15.252,15.252,0,0,1,.879-2.783q1.172-1.318-1.172-2.27a1.7,1.7,0,0,0-1.318-.073,28.532,28.532,0,0,1-5.493.659q-2.271.294-1.319-1.831l0.44-1.1A2.23,2.23,0,0,1,693,50.649a47.068,47.068,0,0,1,9.522-.073q1.39,0.22,1.464-.952a5.81,5.81,0,0,0-1.538-.879,2.757,2.757,0,0,0-1.977,0A143.052,143.052,0,0,1,684.28,49.99h0Zm24.829,23.291q1.539,1.978,3-.879l2.857-5.493a2.568,2.568,0,0,0,.219-1.392,1.128,1.128,0,0,0-.512.293q-1.392,1.538-2.93,3.076a1.944,1.944,0,0,1-2.783,0l-2.344-2.417q-1.247-1.1-1.245-.732Zm-24.975,1.392a2.708,2.708,0,0,0,.952,1.245,2.423,2.423,0,0,1,.952,2.051,4,4,0,0,1-1.245,2.417q-1.392,1.318-.952,2.124a0.963,0.963,0,0,0,.879.586,26.864,26.864,0,0,1,5.053-.732q1.171,0,.44,1.392a20.473,20.473,0,0,1-6.006,6.885,3.321,3.321,0,0,0-1.245,1.318q0.219,0.513,1.1,0a19.722,19.722,0,0,0,8.2-8.423A2.528,2.528,0,0,1,694.1,82l2.49-.073a6.7,6.7,0,0,1,1.611-.073,1.074,1.074,0,0,1,.659.806,19.018,19.018,0,0,1-2.783,8.2,4.549,4.549,0,0,0-.732,1.538,1.113,1.113,0,0,0,1.245-.293,15.741,15.741,0,0,0,3-5.127,13.355,13.355,0,0,1,1.1-2.71,3.841,3.841,0,0,0,.8-1.758q-1.318-2.709-3.955-2.2l-2.49.22q-1.392.148-.952-0.952l0.439-1.245a3.023,3.023,0,0,0,.293-2.124q-0.294-.659.806-0.659l2.71-.22h3.515q1.39-.366.879-1.392a2.787,2.787,0,0,0-1.831-.439,137.834,137.834,0,0,1-14.868.879,2.593,2.593,0,0,0-1.9.293h0Zm8.642,2.124-0.732,2.71a1.932,1.932,0,0,1-1.611,1.538l-2.344.147a2.668,2.668,0,0,1-1.245-.147,0.925,0.925,0,0,1,.073-1.245q0.585-1.318,1.025-2.49a1.765,1.765,0,0,1,1.538-1.465l1.246-.073,0.732-.073q1.538-.072,1.318,1.1h0ZM625.027,57.607a2.2,2.2,0,0,1-1.831,2.27q-5.933,1.538-11.865,2.71a0.961,0.961,0,0,0-.22.732,7.112,7.112,0,0,0,2.417.879,25.115,25.115,0,0,0,8.716-.879q2.124-.366,1.318,1.611-3.588,10.767-13.33,20.142-1.977,1.978-.878,2.051,1.977-.072,5.2-2.71a37.226,37.226,0,0,0,9.082-10.767q1.39-1.9,1.245.732-0.22,13.4-1.538,20.361a9.4,9.4,0,0,0,.219,5.42q1.245,2.343,1.685,2.344,0.44-.073,1.685-2.93,1.319-9.009,1.172-26.147,0-1.9,1.318.147a26.277,26.277,0,0,0,3.149,3.589q2.783,2.345,3.589-.806,0.732-3.735-5.786-6.006-2.2-.879-2.2-2.637V63.687a2.163,2.163,0,0,1,1.831-2.2q2.856-.805,5.639-1.318a1.448,1.448,0,0,0,1.392-1.611q-0.073-1.025-1.831-1.392a10.075,10.075,0,0,0-4.761.732q-2.2.513-2.2-1.245A67,67,0,0,1,629.275,44.2q0.951-3.076-3.955-4.614-2.2-.22-1.611,2.71,1.391,4.982,1.318,15.308h0Zm28.418-16.04a31.322,31.322,0,0,1,1.319,3.735q0.219,4.834-.074,17.358,0.439,4.1,3,5.64a15.387,15.387,0,0,0,8.643,1.685q7.1-.22,9.3-4.834A59.7,59.7,0,0,1,674.246,59q-0.44-2.2-.659-1.977a26.787,26.787,0,0,0-.952,3.223A5.733,5.733,0,0,1,668.46,65q-6.3,1.246-9.3-.44-1.538-2.269-.952-7.69,0.072-2.2,1.831-2.124A67.493,67.493,0,0,0,670,51.968q2.124-.585,1.025-2.051-1.9-1.391-4.687-.073l-5.786,2.051q-2.2.587-1.978-1.172a28.69,28.69,0,0,1,1.612-7.471q-3.37-3.516-6.372-2.564Zm-15.234,6.885q2.27,4.175,1.392,13.037a16.908,16.908,0,0,1-2.051,5.859,7.083,7.083,0,0,0-.659,2.93q1.683,5.421,4.614,1.538,3.807-3.881,7.544-7.178a13.114,13.114,0,0,0,2.417-2.563q-0.073-.512-3,1.1L644.876,65q-2.271,1.246-2.271-.586l0.22-6.152a1.307,1.307,0,0,1,1.758-1.465,13.094,13.094,0,0,0,4.98-1.172q2.2-1.025,2.344-1.538a1.064,1.064,0,0,0-.439-1.465,3.756,3.756,0,0,0-3.3-.22l-2.93,1.245q-2.2.659-1.977-1.1a15.926,15.926,0,0,0,.439-3.882,4.457,4.457,0,0,0-2.124-2.051q-3.077-1.83-4.614-.732-0.149.367,1.245,2.563h0Zm6.738,27.832q-1.832,1.905-3.076,1.685a2.494,2.494,0,0,0-1.538.293,9,9,0,0,0,1.025,2.563q1.171,3.735.66,11.572a6.754,6.754,0,0,1-.66,2.051,4.744,4.744,0,0,0,.074,4.395q1.83,3.588,3.442.439,0.293-.807,2.051-0.513l12.378-1.392a12.891,12.891,0,0,1,1.465,2.564,3.13,3.13,0,0,1,.439.953q1.1,2.488,1.685,2.343a6.049,6.049,0,0,0,2.49-3.222,26.257,26.257,0,0,0,1.391-10.694,27.052,27.052,0,0,1,.586-8.2q1.172-2.637,1.026-3.223-0.588-1.245-3.809-2.783a8.049,8.049,0,0,0-2.2-.732,69.184,69.184,0,0,1-13.843,3.442q-2.2.148-.146-1.611a32.506,32.506,0,0,0,6.811-5.786q-0.807-1.464-4.175-2.27-1.9-.22-2.563,2.27a19.914,19.914,0,0,1-3.516,5.859h0Zm17.578,4.834q0.292,10.621-.879,14.282-0.219.292-.366-0.22-1.832-1.392-5.42-.439l-8.276,1.392q-2.344.366-2.271-1.758V90.713a1.485,1.485,0,0,1,1.758-1.685q5.274-.585,10.547-1.538,2.124-.366,2.49-0.879,0.511-1.39-1.611-1.9-1.758-.292-5.859.952l-5.127.952q-2.2.294-2.2-1.465V82.29a2.077,2.077,0,0,1,1.758-2.2q6.3-1.1,12.525-1.9a2.768,2.768,0,0,1,2.929,2.93h0ZM804.178,48.745a10.209,10.209,0,0,1-.952,5.713,1.743,1.743,0,0,1-1.612,1.392l-5.932.293q-1.467.22-1.026,0.879a2.35,2.35,0,0,0,2.857.806q1.683-.439,3.442-0.732,1.318-.146.952,1.025a20.19,20.19,0,0,1-2.71,5.2,2.27,2.27,0,0,0-.439,1.245,1.752,1.752,0,0,0,2.051,1.392,14.9,14.9,0,0,1,2.783-.732l5.273-.806a1.755,1.755,0,0,1,1.831.952l0.879,1.1q0.512,0.513.879,0.147,0.951-1.464-1.758-4.321-1.832-2.05-2.856-2.124-0.221,0,.659,1.685,0.805,1.318-.366,1.538-2.931.513-5.86,0.879-1.317.22-1.391-.732a7.174,7.174,0,0,1,.659-1.611q0.732-1.9,1.611-3.735a2.022,2.022,0,0,1,1.685-1.465q6.738-.659,8.935,0a5.733,5.733,0,0,0,1.539.147q0.877-.805-0.074-1.392a2.691,2.691,0,0,0-2.783-.44q-3.444.367-6.958,0.586-1.318.074-.879-1.025a39.676,39.676,0,0,0,1.758-5.127,1.853,1.853,0,0,0-.293-1.684q-1.1-1.1-1.9-.586a3.384,3.384,0,0,0,0,1.538h0ZM821.1,73.281q1.537,1.978,3-.879l2.856-5.493a2.59,2.59,0,0,0,.22-1.392,1.125,1.125,0,0,0-.513.293q-1.392,1.538-2.93,3.076a1.944,1.944,0,0,1-2.783,0l-2.344-2.417q-1.245-1.1-1.245-.732Zm-11.06,7.324-11.059.732a6.72,6.72,0,0,1-2.637-.073,4.228,4.228,0,0,0-1.612.073q-0.147.22,0.66,1.1a4.27,4.27,0,0,0,2.2.879,39.156,39.156,0,0,0,4.175-.806q2.783-.366,5.566-0.513h3.516l3.149,0.147A1.582,1.582,0,0,0,815.384,82q0.585-.366.293-0.733a2.4,2.4,0,0,0-1.172-.806,5.666,5.666,0,0,0-3.076-.147,2.179,2.179,0,0,1-1.392.293h0ZM769.9,42.3a43.645,43.645,0,0,1-.146,5.054q-0.073,2.051-2.564,2.564-2.124.439-1.977-1.465l0.073-1.025a4.7,4.7,0,0,0-1.758-3.809,7.52,7.52,0,0,0-4.028-1.1,0.869,0.869,0,0,0-.513.513,10.187,10.187,0,0,1,2.491,5.64q0.365,2.271-1.465,2.637-4.4,1.246-6.079.22a6.6,6.6,0,0,0-2.564,0q-0.219.294,1.026,2.563a83.167,83.167,0,0,1,3.662,11.719,5.24,5.24,0,0,0,1.977,3.882q0.732,0.074.879-1.025,0.145-.659,1.685-0.513,6.663-1.025,13.256-1.831a3.369,3.369,0,0,1,2.857.659q1.977,1.612,2.783-1.684l3.735-11.719a15.777,15.777,0,0,0,1.612-2.637q-4.908-5.2-7.471-3.662l-2.417.806q-1.611.513-1.392-1.611a16.474,16.474,0,0,1,.513-2.856,7.909,7.909,0,0,0,.586-2.71,7.474,7.474,0,0,0-3.149-1.9q-3-.585-1.978,1.831A5.4,5.4,0,0,1,769.9,42.3h0Zm-36.84,4.248q-2.271.513-2.857,0a8.6,8.6,0,0,0-1.9-.513q-2.417-.072-2.344.513a9.871,9.871,0,0,0,.879,1.831q2.343,5.273,2.637,13.843,0.512,2.271-1.245,2.637-1.832.294-2.2-.513a5.941,5.941,0,0,0-1.172-1.245q-0.513-.22-1.245,2.637L723.172,67.2q-2.2,3.955-2.271,5.859a1.437,1.437,0,0,0,1.392,1.831q2.489-.731,3.516-5.786,0.585-2.2,2.343-2.051a151.827,151.827,0,0,1,16.626-2.564q2.2,0.074,2.564.513l-0.513,2.93q-0.659,2.637,2.344,0a30.656,30.656,0,0,1,2.93-2.344q3.587-1.61.512-3.809Q749.392,59,746.756,60.9a2.891,2.891,0,0,1-.952.366q-1.686.44-1.172-1.538,1.83-7.69,2.856-10.913,1.171-2.269-1.025-4.1-2.784-2.417-5.2-.659a81.605,81.605,0,0,1-8.2,2.49h0Zm9.814,3.369a2.712,2.712,0,0,1-2.344,2.417,4.97,4.97,0,0,1-3.589,0,8.031,8.031,0,0,0-1.831-.44q-0.367.294,0.147,2.49a30.464,30.464,0,0,1,.366,7.324,1.962,1.962,0,0,1-1.831,2.051q-1.9.367-1.758-1.685a74.543,74.543,0,0,0-.659-11.06q-0.294-2.2,1.611-2.563a55.82,55.82,0,0,1,5.567-1.025q4.614-1.538,4.321,2.49h0Zm35.449,3.809A62.588,62.588,0,0,1,776.858,62q-0.366,1.612-3,1.685-2.344.367-2.2-1.392l0.147-1.245a2.861,2.861,0,0,1,2.2-2.563q2.2,0.22,2.344-1.538a1.812,1.812,0,0,0-1.538-1.025,1.746,1.746,0,0,1-1.978-2.2l0.147-1.025q0.145-1.538,2.2-1.9,3.735-.731,3.149,2.93h0Zm-8.935,1.025a2.863,2.863,0,0,1-2.417,2.71q-2.052.367-2.051-1.392v-1.9q0-1.758,2.27-2.124t2.271,1.392a4.041,4.041,0,0,1-.073,1.318h0Zm-7.251,1.465q0.072,2.2-1.392,2.417l-1.9.366a0.417,0.417,0,0,0-.073.659l1.171,0.44q2.345,0.22,2.417,1.9v1.392a2.3,2.3,0,0,1-1.684,2.71q-1.9.294-2.2-1.392l-1.172-9.3q-0.44-1.538,1.538-2.051l0.8-.147q2.344-.366,2.417,1.318Zm-20.508,3.735q-0.294,2.417-2.124,2.71-1.9.367-1.465-1.538a13.3,13.3,0,0,1,.366-3.735q0.439-2.2,2.2-2.344a1.133,1.133,0,0,1,1.464,1.465Zm27.026,2.49a2.325,2.325,0,0,1-1.977,2.49,1.4,1.4,0,0,1-1.831-1.538V61.856a1.964,1.964,0,0,1,1.977-2.051q2.124-.366,1.978,1.172Zm-34.863,7.91a4.83,4.83,0,0,1-2.93-.366q-2.856-.879-3.149-0.513a7.484,7.484,0,0,0,1.025,2.71,24.141,24.141,0,0,1,.733,4.321,88.017,88.017,0,0,1-1.1,18.237,6.5,6.5,0,0,0,1.1,7.471q1.537-.587,1.9-3.735a75.9,75.9,0,0,0,.586-9.815q0-1.977,1.611-1.758a25.444,25.444,0,0,0,3.882-.293,5.645,5.645,0,0,0,2.637-.732q0.072-2.709-3.662-1.9l-2.2.586q-2.2.439-2.2-1.318a7.337,7.337,0,0,1,.073-1.831,1.307,1.307,0,0,1,1.758-1.465,14.91,14.91,0,0,0,3.3-.513,5.65,5.65,0,0,0,2.564-.879,1.043,1.043,0,0,0-.22-1.538,3.889,3.889,0,0,0-3.3-.293,11.091,11.091,0,0,0-2.051.659q-2.05.659-1.977-1.318l0.073-.879a2.932,2.932,0,0,1,2.2-2.71q4.686-1.538,6.445-.732a12.891,12.891,0,0,1,.586,5.713q0.073,7.031-.219,14.063,0.219,4.614-4.248,3.076-2.491-.22-0.66,2.124l2.2,3.076q1.83,2.124,2.343,2.124a7.524,7.524,0,0,0,3.516-4.907l0.513-2.93q-0.22-10.033-.22-20.068a1.815,1.815,0,0,0,.22-0.806q0.879-2.269.586-2.783-2.931-3.222-5.86-2.051a12.152,12.152,0,0,1-5.859,1.978h0Zm22.559,2.124q-3.225.659-.513,1.611a17.915,17.915,0,0,0,5.347-.073q8.789-.951,17.578-2.2a1.317,1.317,0,0,0,1.391-1.245,2,2,0,0,0-2.124-1.392,12.1,12.1,0,0,0-3.808.293q-8.351,1.612-17.871,3h0Zm2.71,5.713a6.456,6.456,0,0,0-4.175-.732q-0.513.439,1.684,3.149a35,35,0,0,1,2.564,5.859,8.18,8.18,0,0,0,1.318,2.051q1.39,0.659,1.392-.952,0-.585,1.684-0.806L775.32,85.44q2.269-.292,2.417-0.879a2.211,2.211,0,0,0-.586-0.952q-0.513-.44.367-1.978a9.425,9.425,0,0,1,2.05-2.417q2.05-1.83-.073-3.516-3.223-2.856-7.251-.366a45.864,45.864,0,0,1-13.183,2.857h0Zm15.161,1.758-0.293.952a3.233,3.233,0,0,1-2.491,2.49q-3.954.587-7.69,1.392-2.2.367-2.563-1.392a3.53,3.53,0,0,0-.22-1.245q-0.588-2.2,1.172-2.49,5.053-.731,10.034-1.758,3.222-.585,2.051,2.051h0Zm-2.857,13.77a4.182,4.182,0,0,1-3,2.417,155.865,155.865,0,0,1-16.7,1.685q-2.565-.074-3.3.513-0.368.366,2.344,1.758a21.28,21.28,0,0,0,8.35-.22,231.267,231.267,0,0,1,25.854-1.758,9.421,9.421,0,0,0,2.93-.293q1.39-1.832-1.831-3.076-3-.807-10.987.439-2.2.22-.439-1.538l1.611-1.611q2.2-1.9,0-3.882-2.71-1.977-3.882-1.025,1.39,3.15-.952,6.592h0Zm-7.69,1.611q1.1-.953.22-3a5.808,5.808,0,0,0-4.908-2.564q-2.124-.072-0.439,2.417,2.562,3.442,5.127,3.149h0Zm152.71-47.168a8.01,8.01,0,0,1,.879,3.882v4.248a0.926,0.926,0,0,1,0,.513,1.158,1.158,0,0,1-1.1,1.465l-1.685.22a2.607,2.607,0,0,1-1.245,0,0.92,0.92,0,0,1-.439-0.513,11.957,11.957,0,0,1,.146-3.076,1.983,1.983,0,0,0-1.831-2.2q-0.219.148,0.22,1.538a11.186,11.186,0,0,1-.293,4.395,2.091,2.091,0,0,0-.366,1.392q0.366,1.027.879,0.879a2.9,2.9,0,0,0,1.538-.586,12.889,12.889,0,0,1,2.93-.732q1.39-.072,1.391,1.025v2.563a1.11,1.11,0,0,1-1.172,1.245q-2.637.22-5.346,0.586a4.752,4.752,0,0,1-1.392.073,3.441,3.441,0,0,0-1.538,0,0.537,0.537,0,0,0,.146.732q1.905,1.318,3.223.806a78.031,78.031,0,0,1,10.474-1.245h3.515a9.819,9.819,0,0,1,1.9.293,3.132,3.132,0,0,0,1.538.146A0.7,0.7,0,0,0,929.2,65a2.594,2.594,0,0,0-3.149-1.245,28.221,28.221,0,0,1-5.933.366q-1.392.074-1.391-1.025v-2.71a1.084,1.084,0,0,1,1.245-1.1l1.9-.073q1.318-.072,1.318.439,0.22,1.466,1.026.732a2.361,2.361,0,0,0,.586-1.831,21.96,21.96,0,0,1,.586-5.2q0.512-1.025-1.1-1.685-1.026-.366-1.1.147a10.615,10.615,0,0,0,.22,1.611,25.2,25.2,0,0,1-.073,3.3,1.047,1.047,0,0,1-1.172,1.1l-2.051.146a1.1,1.1,0,0,1-1.318-1.318q0-2.563.146-4.98a6.683,6.683,0,0,1,.147-1.465,1.776,1.776,0,0,0-.806-2.637A1.619,1.619,0,0,0,916.6,47.5a0.5,0.5,0,0,0-.219.659h0Zm15.893,20.435a53.526,53.526,0,0,0,7.105,4.761,4.209,4.209,0,0,0-.733-1.465q-2.124-2.709-4.321-5.273a1.194,1.194,0,0,0-2.051-.147q-1.172,1.173,0,2.124h0ZM920.34,79.214q-1.1,1.392-2.2.586-3.077-2.05-5.42-3.442a2.4,2.4,0,0,0-1.538-.513q-0.294.148,1.318,1.538a50.591,50.591,0,0,1,4.175,3.223q1.391,1.172.293,2.27a54.823,54.823,0,0,1-7.471,6.152q-1.392.953-.952,1.025a5.133,5.133,0,0,0,1.1-.293,25.865,25.865,0,0,0,8.35-5.64,1.823,1.823,0,0,1,2.71-.073,39.963,39.963,0,0,1,3.809,3.882q1.391,2.125,2.49,1.392a1.362,1.362,0,0,0,.146-2.124,32.554,32.554,0,0,0-5.273-4.614q-1.392-1.025-.147-2.417l1.026-1.392q1.318-1.9,2.051-2.783,1.319-1.171.512-2.051a2.878,2.878,0,0,0-1.831-1.245,3.013,3.013,0,0,0-.586,1.465,12.719,12.719,0,0,1-2.563,5.054h0Zm-41.6-26.294q3-.146,2.2-3.149-0.588-3.955-5.787-4.907a22.928,22.928,0,0,0-6.372-.147q-0.293.148,1.612,2.417,4.9,5.347,8.349,5.786h0Zm-23.8,2.124q1.683,0,1.391-1.758,0.145-3.148-3.149-5.127a19.285,19.285,0,0,0-5.127-1.538q-2.2.074-.293,2.783,4.32,5.273,7.178,5.64h0Zm4.467,5.493a1.177,1.177,0,0,0-.293.732,11.1,11.1,0,0,0,6.592,1.685q2.637-.511,5.274-0.806,2.122-.22,2.2,1.758l0.293,7.4q0.072,2.271-1.758,2.49-4.174.659-8.35,1.025-2.124-.072-2.124,1.1a6.389,6.389,0,0,0,4.541,1.611,53.371,53.371,0,0,0,5.64-.44q2.2-.072,2.2,1.685l0.074,8.13q0.072,2.2-1.685,2.417L855.154,91.3a6.271,6.271,0,0,0-2.71.732q-0.073.294,2.71,2.2a7.841,7.841,0,0,0,2.93.586,155.225,155.225,0,0,1,34.424-2.637,57.671,57.671,0,0,0,6.665.366q1.685-.22,1.9-0.952,0.439-1.318-1.391-2.564-3.736-2.637-6.3-2.051L879.4,88.442q-2.2.148-2.2-1.611-0.074-4.175.073-8.13,0.073-2.2,1.831-2.49a27.728,27.728,0,0,0,9.522-1.831q1.758-.879.952-2.051a8.472,8.472,0,0,0-5.347-1.172q-2.563.587-5.127,1.392-1.538.367-1.464-1.684a29.681,29.681,0,0,1,.586-4.321q1.317-2.489,0-4.028-1.027-1.025.732-1.392l4.907-.732a24.7,24.7,0,0,0,5.86-1.025,3.08,3.08,0,0,0,2.343-1.465q0-1.9-2.343-2.051a10.261,10.261,0,0,0-6.519.659q-7.837,2.271-23.8,4.028h0Zm-14.428,9.082q2.489,1.173,3-1.172a5.554,5.554,0,0,0-2.564-5.054,13.564,13.564,0,0,0-5.493-1.831q-2.491-.072-0.952,2.2a18.636,18.636,0,0,0,6.006,5.859h0Zm3.149,11.572a20.72,20.72,0,0,1-6.079,8.5q-1.758.659-1.465,1.611a11.725,11.725,0,0,0,2.2,5.2q2.124,3.735,3.443,1.025,1.1-4.688,4.541-14.648,1.977-5.859,3.589-11.719a7.907,7.907,0,0,0,.219-2.124q-0.368-.511-1.684,1.9-2.492,5.128-4.761,10.254h0ZM1035.18,57.315l-8.57.586a23.637,23.637,0,0,1-5.56.073,4.264,4.264,0,0,0-1.54.147,3.834,3.834,0,0,0,3.08,1.9,46.083,46.083,0,0,1,14.57-1.245,5.978,5.978,0,0,0,3.22-.073c0.3-.244.37-0.463,0.22-0.659-0.34-.683-1.14-1.049-2.41-1.1a2.433,2.433,0,0,0-1.54-.073,11.924,11.924,0,0,1-1.47.44h0Zm-10.1,15.82a16.411,16.411,0,0,1-2.49,7.617c-1.08.782-1.42,1.563-1.03,2.344a0.61,0.61,0,0,0,.73.44,2.336,2.336,0,0,0,1.69-.806,12.174,12.174,0,0,1,2.78-.586,71.836,71.836,0,0,1,8.28-.733,2.544,2.544,0,0,1,1.9.439c0.2,0.1.22,0.538,0.07,1.318a47.911,47.911,0,0,1-2.71,6.665c-0.48.782-.46,1.221,0.08,1.318a7.99,7.99,0,0,0,2.85-3.662c0.59-1.366,1.22-2.758,1.91-4.175a2.681,2.681,0,0,0,0-2.71,1.549,1.549,0,0,0-1.32-.733l-2.78.293a36.869,36.869,0,0,0-9.3.879,4.431,4.431,0,0,1-1.32.073,2.619,2.619,0,0,1,.51-1.465,58.757,58.757,0,0,0,2.27-5.566,1.073,1.073,0,0,0-.73-1.685,2.357,2.357,0,0,0-1.61-.22,2.115,2.115,0,0,0,.22.952h0ZM977.4,44.937q3.075,3,5.273,1.1,2.343-3.662-2.051-5.786A19.139,19.139,0,0,0,974.905,39q-2.124-.072-0.659,2.27a28.343,28.343,0,0,0,3.15,3.662h0Zm-17.212,8.13q-0.514.294,0.439,1.245a4.741,4.741,0,0,0,4.395,1.245q7.031-.731,16.7-2.271a1.935,1.935,0,0,1,2.49,1.685q-0.073,3.15-2.417,9.229a3.544,3.544,0,0,1-2.783,2.344q-13.843,1.977-27.686,4.175a4.476,4.476,0,0,0-2.71.806q-0.147.294,2.71,2.2a7.05,7.05,0,0,0,5.86-.22q27.465-6.079,46.139-5.054a20.275,20.275,0,0,0,5.94.147q2.625-1.319,0-3.15a9.379,9.379,0,0,0-7.26-2.051l-17.061,2.2q-1.611.22-.219-1.758,3-4.321,6.3-8.423a9.2,9.2,0,0,0-2.564-2.124q-1.686-.805.513-1.172l6.592-1.025q1.464-.585,1.171-1.392-1.9-2.563-7.543-1.9a121.948,121.948,0,0,1-29,5.273h0Zm10.327,11.645q1.61,1.246,2.636.513a3.641,3.641,0,0,0,.44-3.223,6.66,6.66,0,0,0-5.347-4.687q-2.126-.146-1.1,2.124a27.5,27.5,0,0,0,3.369,5.273h0Zm1.025,12.378a3.618,3.618,0,0,1-2.783-.586,7.011,7.011,0,0,0-1.538-.439q-2.271-.146-2.564.366a8.183,8.183,0,0,0,1.172,2.637A8.419,8.419,0,0,1,966.7,82l-0.073,9.668a12.532,12.532,0,0,1-.513,3.516q-0.659,3.076.147,4.175,1.9,2.636,2.563,2.563a2.837,2.837,0,0,0,1.392-2.49q0.072-1.026,1.977-1.245l9.595-1.1q2.417-.294,3.369,1.245l1.245,2.417a9.21,9.21,0,0,0,1.9,3.223q1.024,0.145,2.124-1.978a12.794,12.794,0,0,0,1.831-5.859l0.366-13.477a9.048,9.048,0,0,1,.659-2.93,3.81,3.81,0,0,0-1.025-4.614,12.31,12.31,0,0,0-3.882-1.758,7.122,7.122,0,0,0-3,.732,101.642,101.642,0,0,1-13.843,3h0Zm16.553,3.369a110.176,110.176,0,0,1-.44,13.184q-0.658,1.538-2.05.513a5.848,5.848,0,0,0-1.978-.439q-5.493.731-10.986,1.685-2.2.292-2.271-1.465V91.152a1.958,1.958,0,0,1,1.831-2.344L982.3,87.2q2.2-.512,2.49-1.025a3.655,3.655,0,0,0-4.028-2.124q-4.1.807-8.2,1.831-2.346.587-2.344-1.1l-0.073-3.735a1.958,1.958,0,0,1,1.9-1.977q6.663-1.245,13.257-1.978,2.856,0.22,2.783,3.369h0Z"/>
</svg>
