<svg xmlns="http://www.w3.org/2000/svg" width="900" height="140" viewBox="0 0 900 140">
  <defs>
    <style>
      .cls-1 {
        fill-rule: evenodd;
      }
    </style>
  </defs>
  <path id="王漢宗中魏碑簡" class="cls-1" d="M207.2,51.926q-0.587.513,0,1.977,0.292,1.466.659,2.93a3.6,3.6,0,0,0,.733,1.685,3.747,3.747,0,0,0,1.684-.147q3.662-.731,6.885-1.172,1.464-.22,1.465,1.025V68.259a1.189,1.189,0,0,1-1.245,1.245q-4.1.587-9.229,0.806a0.75,0.75,0,0,0-.659.879q0.366,1.977.806,3.955a1.881,1.881,0,0,0,2.27,1.172q4.028-.659,6.592-0.952,1.464-.146,1.465,1.1v9.814a1.175,1.175,0,0,1-1.245,1.318q-6.006.439-11.939,1.025a41.623,41.623,0,0,1-6.811.366q-1.539.22-1.245,1.538,0.291,1.246.659,2.49a1.982,1.982,0,0,0,2.27,1.172,99.909,99.909,0,0,1,11.353-1.538q16.187-1.39,29.663-1.392a22.328,22.328,0,0,1,6.812,1.978q2.2,1.1,2.05-1.1a8.969,8.969,0,0,0-.952-2.93l-1.465-2.857a1.861,1.861,0,0,0-2.05-1.392q-3.077.513-7.4,0.806l-11.645.952q-1.539.074-1.539-1.1,0-5.054.074-10.034a1.257,1.257,0,0,1,1.245-1.392,61.29,61.29,0,0,0,6.811-1.1,3.452,3.452,0,0,0,2.124-.952q2.344-2.637.733-5.273a3.616,3.616,0,0,0-1.685.22q-4.029.807-7.617,1.245-1.537.148-1.538-1.025,0-4.834.146-9.521a1.462,1.462,0,0,1,1.172-1.685q3.809-.585,7.91-1.611a2.941,2.941,0,0,0,1.465-.879,3.691,3.691,0,0,0,1.026-3.516,1.729,1.729,0,0,0-2.124-1.245A191.549,191.549,0,0,1,208.3,51.706a2.922,2.922,0,0,0-1.1.22h0Zm72,2.783a4.732,4.732,0,0,0,.44,2.344q3.075,2.856,5.859,2.124a1.526,1.526,0,0,0,1.025-1.978,14,14,0,0,0-1.611-4.395,18.47,18.47,0,0,1-2.124-5.786q-0.807-1.39-2.051.366a22.685,22.685,0,0,0-1.538,7.324h0Zm19.7,1.611a3.2,3.2,0,0,0-1.464.879l0.366,0.513,1.245,1.465a1.324,1.324,0,0,0,1.391.806,33.474,33.474,0,0,1,8.79-2.417,3.134,3.134,0,0,1,1.1.147,1.916,1.916,0,0,1,.806,2.2,30.269,30.269,0,0,1-4.981,14.941,3.209,3.209,0,0,1-.586.586,4.028,4.028,0,0,1-1.538-1.172q-6.812-6.078-8.862-10.4a2.8,2.8,0,0,0-1.611-1.245,4.317,4.317,0,0,0-.806,1.465,25.264,25.264,0,0,0-.439,2.563,3.36,3.36,0,0,0-.074,1.831,2.644,2.644,0,0,0,1.538,1.538,54.982,54.982,0,0,1,8.716,6.958q1.245,1.246.22,2.344a44.376,44.376,0,0,1-13.55,10.4,18.22,18.22,0,0,0-2.93,1.831,9.55,9.55,0,0,0-1.464,1.538,2.37,2.37,0,0,0,1.9.879,26.217,26.217,0,0,0,5.859-.293,5.938,5.938,0,0,0,4.248-2.344q1.611-1.61,3.15-2.93a46.969,46.969,0,0,0,5.932-5.42q1.1-1.391,2.051-.147a21.55,21.55,0,0,1,3.3,4.688,13.823,13.823,0,0,1,.659,4.394q1.024,2.637,4.468,3.076a93.607,93.607,0,0,0,16.113,1.245q1.464-.148,1.392-0.366a11.181,11.181,0,0,0-2.344-1.685,35.051,35.051,0,0,0-7.324-4.1,95.961,95.961,0,0,1-14.282-10.4,1.737,1.737,0,0,1-.367-2.417,57.918,57.918,0,0,0,4.761-10.986,16.738,16.738,0,0,1,6.372-7.837,3.808,3.808,0,0,0,1.319-1.538,4.506,4.506,0,0,0-2.344-2.637q-3.663-2.343-6.006-1.831A126.974,126.974,0,0,0,298.9,56.32h0ZM271.729,76.682a29.427,29.427,0,0,0,.878,13.989,12.588,12.588,0,0,0,3.882,5.713q2.27,2.269,3.443.439a27.116,27.116,0,0,1,3.222-6.592,16.349,16.349,0,0,0,2.417-5.859A44.9,44.9,0,0,0,287.7,72.727q0-1.464-.366,0a58.279,58.279,0,0,1-4.761,11.426,16.116,16.116,0,0,1-1.9,2.93q-1.758,2.2-3.735.952a4.994,4.994,0,0,1-2.783-4.028A13.227,13.227,0,0,1,274,79.9a19.939,19.939,0,0,1,6.519-12.012,1.21,1.21,0,0,0,.293-1.465,1.575,1.575,0,0,0-1.172-1.1,7.623,7.623,0,0,1-2.857-2.124,2.882,2.882,0,0,0-1.245-.586q-0.294,0-.952,1.611a114.116,114.116,0,0,0-2.856,12.451h0Zm98.95-31.494a2.586,2.586,0,0,0,1.025,2.856,8.742,8.742,0,0,0,2.93,1.611q2.416,0.879,3.735-.366a5.723,5.723,0,0,0-1.245-4.248,11.594,11.594,0,0,1-1.831-5.859,2.182,2.182,0,0,0-.586-1.611q-0.368-.292-0.952.293a23.908,23.908,0,0,0-3.076,7.324h0ZM360.5,56.76a1.549,1.549,0,0,0-.732,1.025,5.728,5.728,0,0,0,1.464,3.149,0.928,0.928,0,0,0,.879-0.513,6.446,6.446,0,0,1,1.392-.952,18.724,18.724,0,0,1,2.93-.952q12.156-3.3,20.8-3a11.844,11.844,0,0,1,4.834.879,2.25,2.25,0,0,1,.733,1.758q-0.879,3.224-4.688,4.541-1.466.879,0,1.1a27.538,27.538,0,0,0,6.153.44,24.414,24.414,0,0,1,2.563.293q2.343,0.294,3-.513a21.561,21.561,0,0,0-2.2-6.812,6.33,6.33,0,0,0-2.564-2.563,13.5,13.5,0,0,0-5.859-2.051,38.956,38.956,0,0,0-6.885-.22A113.8,113.8,0,0,0,360.5,56.76h0Zm-10.84,9.888a7.429,7.429,0,0,0,2.93,1.392,4.419,4.419,0,0,0,2.783.22,4.856,4.856,0,0,0,.293-1.611,19.687,19.687,0,0,1,1.392-5.859,5.7,5.7,0,0,0,.512-1.685q0-.22-1.464.586-3.225,2.051-6.3,4.395-1.539,1.392-.147,2.563h0Zm15.821,0a1.465,1.465,0,0,0-1.539,1.685,6.316,6.316,0,0,0,.66,1.831q0.658,1.612,1.9,1.025a67.937,67.937,0,0,1,8.057-1.245,51.362,51.362,0,0,0,5.859-1.172,2.629,2.629,0,0,0,1.758-.952,3.5,3.5,0,0,0,.293-1.831l-0.147-1.1q-0.44-1.39-2.344-.952-7.031,1.538-14.5,2.71h0Zm20.214,8.569q-5.127.294-17.578,2.051-3.369.439-5.859,0.952a78.676,78.676,0,0,1-11.279,1.392,1.113,1.113,0,0,0-.879,1.758,4.406,4.406,0,0,0,2.124,2.49,130.053,130.053,0,0,1,17.285-3.076,1.713,1.713,0,0,1,1.9,1.172A10.03,10.03,0,0,1,372,84.592q0.072,6.152-.073,12.3a2.226,2.226,0,0,1-1.831,1.611,13.831,13.831,0,0,1-6.885-1.025q-1.466-.879-1.172-0.293a6.647,6.647,0,0,0,1.172,1.172,16.556,16.556,0,0,1,2.93,2.271q4.905,4.541,10.254,4.98a1.809,1.809,0,0,0,1.538-.366,1.246,1.246,0,0,0,.146-1.318,15.462,15.462,0,0,1-1.1-5.86,111.4,111.4,0,0,1-.22-12.231,7.746,7.746,0,0,1,.952-4.248,1.362,1.362,0,0,1,1.318-1.538q11.5-.879,16.114-0.806a11.918,11.918,0,0,0,4.394.073q0.22-.146-0.22-1.538a13.744,13.744,0,0,0-1.9-4.321,2.958,2.958,0,0,0-1.465-.22,55.822,55.822,0,0,1-10.254,1.978h0Zm-3.881,11.06a46.793,46.793,0,0,1,8.935,11.572q1.611,2.489,2.564.806a24.371,24.371,0,0,0,1.171-7.324,2.743,2.743,0,0,0-1.611-2.344q-5.2-1.9-10.254-3.3-1.466-.439-1.465-0.22a1.068,1.068,0,0,0,.66.806h0Zm-32.007,9.741a6.7,6.7,0,0,0,2.783,2.051,9.5,9.5,0,0,0,4.321,1.025,2.4,2.4,0,0,0,.44-1.538q0.659-4.614,4.834-9.375a6.451,6.451,0,0,0,1.245-1.611q-0.221-.22-1.685.513-5.932,3.955-10.62,7.544a7.3,7.3,0,0,0-1.318,1.392h0Zm94.7-53.613a58.73,58.73,0,0,1,.146,6.519l0.147,7.471a1.286,1.286,0,0,1-1.172,1.392q-6.52,1.026-11.865,2.27a2.361,2.361,0,0,1-1.685,0l-0.439-.147-3.077.659a2.738,2.738,0,0,0-1.831.513,2.707,2.707,0,0,0-.293,1.831,27.083,27.083,0,0,0,1.465,6.519q0.512,1.466.952,2.93a14.338,14.338,0,0,0,1.319,2.93,26.209,26.209,0,0,1,3.076,5.859,2.335,2.335,0,0,0,2.344,1.392q0.659-.22,1.318-0.513,2.49-1.391,8.716-2.49,1.538-.292,1.538.879l0.293,22.266a7.815,7.815,0,0,1-.147,1.538,1.115,1.115,0,0,0-.073.659,5.666,5.666,0,0,0,3.662.732,1.542,1.542,0,0,0,1.392-1.758l-0.439-3.369q0-7.764.219-20.507a1.176,1.176,0,0,1,1.245-1.318Q455.2,78.22,459.082,78a3.043,3.043,0,0,1,1.392.073,2.253,2.253,0,0,0,.952.586,7.234,7.234,0,0,0,3.589-.366,2.645,2.645,0,0,0,2.05-1.245l1.831-4.395A49.11,49.11,0,0,1,474.023,62.4a5.126,5.126,0,0,0,1.319-1.685,7.6,7.6,0,0,0-1.392-1.392,25.578,25.578,0,0,0-7.617-3.442q-6.593,0-14.062.659-1.539.148-1.539-1.025A69.118,69.118,0,0,1,451.9,43.064a3,3,0,0,0-.293-2.27,7.032,7.032,0,0,0-1.391-.586q-4.1-1.025-5.64.22a2.317,2.317,0,0,0-.073,1.977h0ZM465.82,62.326q-1.685,5.127-3.442,10.181a1.856,1.856,0,0,1-1.758,1.538q-4.687,0-8.789.366-1.538.074-1.538-1.1l0.293-11.645a1.378,1.378,0,0,1,1.245-1.611q5.274-.659,11.206-1.025,3.882-.146,2.783,3.3h0Zm-20.947-.073q0.072,5.567.22,11.06A1.462,1.462,0,0,1,443.921,75q-4.029.513-7.983,1.1a3.077,3.077,0,0,1-2.93-.659,3.881,3.881,0,0,1-.879-1.465,30.67,30.67,0,0,1-1.392-7.617,1.713,1.713,0,0,1,1.1-1.9,46.012,46.012,0,0,0,5.127-1.758q3.222-.805,5.859-1.245l0.513-.073q1.538-.366,1.538.879h0Zm84.375-13.184a50.828,50.828,0,0,0-3.3,5.493q-0.807,1.466-.366,1.685,0.291,0.22-.879.659a8.208,8.208,0,0,1-2.71.44,3.582,3.582,0,0,0-1.611-.073l-0.147.293a9.75,9.75,0,0,0,.147,2.783,59.664,59.664,0,0,0,3.369,11.719,6.609,6.609,0,0,0,1.977,3.076,1.537,1.537,0,0,0,1.246-.293,4.928,4.928,0,0,1,1.318-.513q1.39-.292.952,1.025-3.884,10.621-7.983,15.82-1.318,1.466-1.612.586a2.516,2.516,0,0,0-1.025-1.1l-3.3-.952q-1.465-.585-0.586-1.758,5.054-7.543,5.713-11.645-0.073-1.39-2.124-2.2-1.538-.44-1.758.659a1.387,1.387,0,0,1-1.391,1.245q-2.052.294-3.956,0.659-1.684.294-.659-0.732,0.805-.951.22-1.318-0.879-.512-0.513-0.952a2.572,2.572,0,0,1,1.026-.293,1.7,1.7,0,0,0,1.465-1.978,21.732,21.732,0,0,1-.147-3.735q0.146-1.171,1.318-.586a27.658,27.658,0,0,1,4.248,2.93,1.276,1.276,0,0,0,.66.366,4.387,4.387,0,0,0,.732-1.538q0.732-2.05-.146-2.93a21.269,21.269,0,0,0-5.494-.879q-1.245,0-1.245-1.611a1.934,1.934,0,0,1,1.172-2.051,31.573,31.573,0,0,1,3.369-1.245A2.143,2.143,0,0,0,518.7,58.3q-0.147-1.171-1.538-.806l-2.783.659q-1.465.294-1.465-1.025l0.073-.513A5.692,5.692,0,0,0,513.281,55a5.541,5.541,0,0,0-3.735-.806,3.24,3.24,0,0,1-1.538,0l0.513-.879a5.088,5.088,0,0,1,2.2-2.051,20.248,20.248,0,0,1,6.592-1.611,5.468,5.468,0,0,0,.952-0.146,4.8,4.8,0,0,0-.293-1.978l-0.293-.732a4.034,4.034,0,0,0-.806-1.392,4.2,4.2,0,0,0-1.611.879,7.315,7.315,0,0,1-2.93.879q-5.493,1.905-11.059,8.057-1.393,1.466,0,1.465a40.331,40.331,0,0,0,5.493-1.318q1.391-.951,1.684.293a15.92,15.92,0,0,1,.074,2.637,1.406,1.406,0,0,1-1.246,1.465,102.225,102.225,0,0,1-10.913,2.344,3.036,3.036,0,0,0-1.611.44A5.306,5.306,0,0,0,496,66.208a3.212,3.212,0,0,0,1.611-.366,64.88,64.88,0,0,1,8.35-2.344q1.538-.292.586,1.025a19.946,19.946,0,0,1-3.735,4.028,32.219,32.219,0,0,1-5.42,4.175,3.943,3.943,0,0,0-1.465,1.1A3.622,3.622,0,0,0,497.534,75q1.319,0.733,4.395-2.124,2.783-2.343,5.493-4.541,1.245-1.025,1.465.147a11.137,11.137,0,0,1,0,3.589,2.363,2.363,0,0,0-.44,1.1q0,0.44-.586.366a0.806,0.806,0,0,0-.952.22q-0.44,1.392-.805,2.71a1.913,1.913,0,0,1-1.612,1.392q-6.811,1.246-12.524,1.9-1.319.148-1.319,1.1,0.221,0.807.513,1.611a1.643,1.643,0,0,0,1.9.586,74.307,74.307,0,0,1,9.815-1.978q1.245-.146.513,1.318a17.25,17.25,0,0,1-2.93,3.955,0.641,0.641,0,0,0,.439.952,29.464,29.464,0,0,1,8.277,2.856,3.637,3.637,0,0,1-1.1,1.245A26.617,26.617,0,0,1,496.8,95.725q-1.467.512-1.245,0.806a2.564,2.564,0,0,0,.732.366,16.2,16.2,0,0,0,7.617,1.025q2.343-.294,2.857-1.392a4.855,4.855,0,0,1,1.025-1.392q1.318-1.1,2.637-2.27a1.649,1.649,0,0,1,2.49-.073q1.1,0.951,2.2,1.978a31.019,31.019,0,0,0,3.3,3q0.585,0.659.952,0.439a1.475,1.475,0,0,0,.733-1.172,9.762,9.762,0,0,0,.073-2.2,1.275,1.275,0,0,1,1.1-1.611,5.194,5.194,0,0,0,2.636-.879,4.36,4.36,0,0,0,1.831-1.978,5.33,5.33,0,0,1,.367-1.465,83.014,83.014,0,0,1,6.738-11.719q0.512-.511.806-0.293a3.477,3.477,0,0,1,.219,2.051,77.49,77.49,0,0,0-1.391,8.569,12.157,12.157,0,0,0,1.758,7.251q1.243,1.464,2.343,2.93a13.149,13.149,0,0,0,6.006,1.172,47.36,47.36,0,0,0,9.6-.439,4.531,4.531,0,0,1,3.223-.293,3.969,3.969,0,0,0,1.611-.073,1.154,1.154,0,0,0-.073-0.879,10.61,10.61,0,0,1-.147-2.856,23.47,23.47,0,0,0-.879-6.006,12.411,12.411,0,0,1-.879-2.93A20.771,20.771,0,0,0,554,79.9q-0.66-1.464-.806,0a90.824,90.824,0,0,1-.952,10.913q-0.807,3.444-4.687,3.955a18.51,18.51,0,0,1-9.961-1.392,5.746,5.746,0,0,1-2.491-5.64,45.586,45.586,0,0,1,1.831-8.789q1.539-2.563-1.9-2.49-1.465.074-1.465-.147l0.44-.806a1.257,1.257,0,0,0-.659-1.318q-0.807-.805.439-0.952l5.42-.733a3.135,3.135,0,0,1,2.124,0,1.878,1.878,0,0,0,2.2-1.318q1.172-4.321,2.857-9.522a9.212,9.212,0,0,1,1.538-2.93A1.251,1.251,0,0,0,548,57.273a6.139,6.139,0,0,0-2.71-2.27,4.462,4.462,0,0,0-2.93-.44q-7.179.587-14.648,1.685-1.026.148-.952-0.44l0.879-.732a32.618,32.618,0,0,0,7.47-5.859,2.377,2.377,0,0,0,.293-2.93l-1.611-2.051q-0.807-1.025-1.245-.879a3.286,3.286,0,0,0-.879,1.611,19.442,19.442,0,0,1-2.417,4.1h0Zm11.206,9.3a5.064,5.064,0,0,1,.22,1.465,35.139,35.139,0,0,1-1.1,9.229,2.4,2.4,0,0,1-2.124,1.1l-1.391.22q-1.539.22-1.539-.952V67.38a1.612,1.612,0,0,1,1.172-1.611,4.159,4.159,0,0,0,2.2-.879,7.6,7.6,0,0,0,.073-1.538q-0.367-1.318-2.051-1.025-1.537.367-1.538-.879l-0.073-2.27a1.35,1.35,0,0,1,1.172-1.685q1.464-.146,2.929-0.22a1.544,1.544,0,0,1,2.051,1.1h0Zm-9.668,3.516a1.429,1.429,0,0,1-1.245,1.611,6.793,6.793,0,0,0-1.465.147,1.387,1.387,0,0,0-1.245,1.758l0.147,0.366a2.01,2.01,0,0,0,2.417,1.1q1.464-.22,1.464,1.025,0,0.953.074,1.831a1.462,1.462,0,0,1-1.172,1.685l-2.783.293a1.435,1.435,0,0,1-1.1-1.172,35.037,35.037,0,0,1-1.025-9.009,2.535,2.535,0,0,1,1.171-2.051,21.5,21.5,0,0,1,3.443-1.025q1.244-.22,1.245.879,0,1.318.073,2.563h0Zm11.06,14.5a35.4,35.4,0,0,1-4.248,8.057,2.024,2.024,0,0,0-.806,2.563q0.732,2.051,2.637.22a46.962,46.962,0,0,1,4.76-2.051q1.318-.659,1.392.439a1.934,1.934,0,0,0,1.685,1.9q0.511,0.22,1.1.513,1.464,0.879,1.612.366a7.692,7.692,0,0,0-1.612-4.248,13.47,13.47,0,0,1-1.391-2.856q-0.733-1.391-1.1-.806a2.563,2.563,0,0,0-.293,1.025,2.859,2.859,0,0,1-1.611,2.051,1.919,1.919,0,0,1-2.71.22,32.849,32.849,0,0,1,3.3-6.445,1.55,1.55,0,0,0,0-1.465,2.241,2.241,0,0,0-1.172-1.465,0.848,0.848,0,0,0-.806.366,6.432,6.432,0,0,0-.732,1.611h0ZM515.7,79.611a32.6,32.6,0,0,1-3.515,7.1,1.818,1.818,0,0,1-2.271.879,28.033,28.033,0,0,0-3.369-1.172,1.5,1.5,0,0,1-1.318-.879,3.246,3.246,0,0,1,.512-1.465l1.831-2.93a1.415,1.415,0,0,1,1.172-1.025q2.563-.659,5.127-1.245l0.513-.073q1.464-.366,1.318.806h0Zm84.375-32.666q-1.686,2.856-3.442,5.713a15.569,15.569,0,0,1-2.344.513,2.61,2.61,0,0,0-.732.22,3.243,3.243,0,0,0,.073,1.538A61.5,61.5,0,0,0,597.8,69.87a1.582,1.582,0,0,0,2.27.806,6.892,6.892,0,0,1,1.612-.513q1.317-.292.512,0.879a28.252,28.252,0,0,1-5.127,5.127q-1.538,1.466-1.318,1.611a0.531,0.531,0,0,1,.22.513,3.183,3.183,0,0,1-1.245.513,10.484,10.484,0,0,1-3.663.293q-1.245.22-.8-1.1a28.136,28.136,0,0,1,1.465-3.809q1.318-1.318.512-2.2-2.635-3.368-4.907-2.417l-1.465.293a41.328,41.328,0,0,0-8.423,1.758q-1.466.294-.586-0.879a36.256,36.256,0,0,0,3.516-5.054,30.994,30.994,0,0,1,3.662-5.42q1.391-1.171,1.319-1.611-0.075-.366,1.1-0.806,1.464-.511,2.857-0.879a6.082,6.082,0,0,0,1.318-.586,5.464,5.464,0,0,0-.366-1.611l-0.44-1.318a1.665,1.665,0,0,0-2.343-.806,47.83,47.83,0,0,1-14.649,2.856,1.789,1.789,0,0,0-1.318.439,19.444,19.444,0,0,0,.586,3.809q0.585,1.612,1.977,1.1a28.6,28.6,0,0,1,3.882-.732q1.464-.146.879,1.025-1.1,2.125-4.395,7.324a34.383,34.383,0,0,1-7.983,9.668,7.825,7.825,0,0,0-2.27,2.783,2.882,2.882,0,0,0,1.611.366,21.4,21.4,0,0,0,3.076.073,3.289,3.289,0,0,0,2.2-1.172,5.641,5.641,0,0,0,.293-0.733q0.44-1.464,1.026-2.93,0.731-1.538,1.1-.22a46.4,46.4,0,0,0,3.076,8.5,3.64,3.64,0,0,0,1.319,1.685,6.906,6.906,0,0,0,1.9-.732,57.189,57.189,0,0,1,5.86-1.465,3.876,3.876,0,0,1,1.318.366q1.245,0.659,1.538-1.318a19.05,19.05,0,0,1,.806-2.564q0.585-1.464.952-.366a9.654,9.654,0,0,0,1.465,3.735,3.178,3.178,0,0,0,1.611-.439,78.692,78.692,0,0,1,14.282-2.637q1.464-.146,1.538,1.1l0.586,15.6a38.578,38.578,0,0,1,0,4.761,1.489,1.489,0,0,0,1.319,1.831l0.952,0.073a6.331,6.331,0,0,0,1.684-.146q0.44-.22.366-1.685l-0.073-1.171q-0.073-7.326.147-19.483a1.289,1.289,0,0,1,1.245-1.538,64.548,64.548,0,0,1,8.057-.22A32.989,32.989,0,0,1,629,81.809q1.464,0.294,1.684-.073a1.568,1.568,0,0,0,.074-1.392,18.452,18.452,0,0,0-1.978-4.395,1.935,1.935,0,0,0-2.051-1.465,5.892,5.892,0,0,1-2.124.513l-8.715,1.1q-1.539.148-1.465-1.025a10.027,10.027,0,0,1,.073-1.245,2.669,2.669,0,0,0-.147-1.9,5.06,5.06,0,0,0-2.563-.879,5.143,5.143,0,0,0-3.149.659,1.18,1.18,0,0,0,.146,1.1,11.553,11.553,0,0,1,.22,2.71,1.36,1.36,0,0,1-1.172,1.611q-3.59.44-7.178,0.952a3.883,3.883,0,0,1-1.758-.293,3.325,3.325,0,0,1,1.1-1.1q1.977-.879,3.955-1.978,1.464-.879,1.172-1.245-0.439-1.1.879-2.637a2.916,2.916,0,0,1,2.051-1.611q2.635-.292,6-0.439a7.357,7.357,0,0,1,3.15.586,2.17,2.17,0,0,0,1.1.293,2.545,2.545,0,0,0,1.757-.073,2.95,2.95,0,0,0,.733-1.538,87.762,87.762,0,0,1,4.1-11.719,7.054,7.054,0,0,0,.952-2.93,1.842,1.842,0,0,0-.292-1.465,9.307,9.307,0,0,0-4.395-2.2,18.932,18.932,0,0,0-7.4-.439q-4.834.587-11.719,2.124-1.028.294-1.1-.366,0.072-.146.586-0.879a29.024,29.024,0,0,0,3.809-3.735A17.007,17.007,0,0,1,608.13,43.8q3.88-2.637-.22-5.347a1.985,1.985,0,0,0-2.71.44q-2.2,3.076-5.127,8.057h0ZM618.457,52a3.6,3.6,0,0,1,.147,1.392,31.561,31.561,0,0,1-2.344,11.06,2.782,2.782,0,0,1-2.124,1.1l-1.612.147a18.392,18.392,0,0,0-2.856.366q-1.465.148-.952-1.172a17.906,17.906,0,0,0,.732-3,1.427,1.427,0,0,1,1.245-1.465q1.172-.22,2.344-0.366a5.5,5.5,0,0,0,1.831-.293,1.1,1.1,0,0,0,.806-0.952,2.61,2.61,0,0,0-.586-1.977,6.754,6.754,0,0,0-1.685.147q-1.1.148-2.05,0.366-1.612.22-1.612-.952a7.485,7.485,0,0,1,.366-2.271q0.587-.731-0.512-1.318-0.513-.439.879-0.659,2.856-.511,5.273-0.732a3.494,3.494,0,0,1,2.71.586h0Zm-12.744,1.978a9.735,9.735,0,0,1,.293,2.71,1.462,1.462,0,0,1-1.172,1.685l-2.2.293a1.356,1.356,0,0,0-1.245,1.685,1.736,1.736,0,0,0,.512,1.245,5.921,5.921,0,0,0,1.612-.22,2.714,2.714,0,0,0,.659-0.073q1.538-.292,1.538.952a12.08,12.08,0,0,1-.586,3,2.262,2.262,0,0,1-1.685,1.685,26.1,26.1,0,0,1-3.369.366,13.615,13.615,0,0,1-.879-5.713q-0.219-2.929-.293-5.859a1.418,1.418,0,0,1,1.026-1.245,8.037,8.037,0,0,1,2.929-.879l0.733-.146q1.684-.366,2.124.513h0Zm-19.629,19.7a21.618,21.618,0,0,1-.366,4.98q-0.22,2.856-1.831,3.076a28.918,28.918,0,0,1-3.369.952,2.207,2.207,0,0,1-2.2-1.392,40.382,40.382,0,0,1-.439-4.687,2.423,2.423,0,0,1,.439-2.2,10.928,10.928,0,0,1,5.64-2.344q1.83-.585,2.124,1.611h0Zm87.305-16.187a4.267,4.267,0,0,0-.879,1.465,3.484,3.484,0,0,0,1.611-.586,12.909,12.909,0,0,0,6.006-5.2q1.245-1.391,1.465-.732,0.219,0.807,1.684.22l0.953-.147q1.464-.146.952,1.025a26.372,26.372,0,0,0-1.026,4.395,1.031,1.031,0,0,0,.586,1.318,17.558,17.558,0,0,0,7.91,1.465q1.1,0.22.733-.732a2.838,2.838,0,0,0-1.172-2.051l-2.93-1.978a12.406,12.406,0,0,1-1.9-2.27q-0.587-1.464.586-1.758a99.487,99.487,0,0,0,10.181-2.783q1.683-.585,1.318-1.978l-0.44-1.318a1.67,1.67,0,0,0-2.417-.659,36.873,36.873,0,0,1-10.913,3q-1.611.22-.512-1.1,1.61-1.978,3.515-4.028,1.464-1.61.44-2.93a4.784,4.784,0,0,0-1.465-.879,4.231,4.231,0,0,0-2.124-.586A2.144,2.144,0,0,0,684.3,40.28a149.253,149.253,0,0,1-10.913,17.212h0Zm-13.916-9.228-4.029,5.859a32.137,32.137,0,0,1-5.273,5.933q-1.466,1.172,0,1.318a9.27,9.27,0,0,0,6.225-2.2,3.586,3.586,0,0,0,.953-1.465,4.663,4.663,0,0,1,1.1-2.2q0.879-1.464,1.9-2.93,0.951-1.318,1.318.366a1.478,1.478,0,0,0,1.758,1.1q1.024-.22.512,1.1a12,12,0,0,0-.732,2.49,2.845,2.845,0,0,0,.073,1.831,9.712,9.712,0,0,0,4.541,1.611,2.545,2.545,0,0,0,1.538-.293,3.656,3.656,0,0,0-.659-2.49,7.747,7.747,0,0,1-2.344-3.662,1.2,1.2,0,0,1,.879-1.611,9.357,9.357,0,0,1,1.612-.293,31.553,31.553,0,0,0,5.859-1.392q1.83-.585,1.685-3.369-0.294-.879-1.758-0.366a69.031,69.031,0,0,1-10.767,2.2q-1.466.074-.513-1.245,2.05-2.783,4.468-5.493,1.024-1.318-.586-2.563l-1.465-.732a1.53,1.53,0,0,0-2.2.439,41.474,41.474,0,0,1-4.1,8.057h0Zm-1.319,15.894a9.049,9.049,0,0,0-.659,2.93,1.757,1.757,0,0,0,.806,2.124q3.222,2.637,5.859,1.392,1.1-1.1-.073-2.856a16.637,16.637,0,0,1-2.564-3.149L660.5,62.473a0.992,0.992,0,0,0-1.392.146,6.031,6.031,0,0,0-.952,1.538h0Zm11.5,0.952q-1.832.513-1.318,1.758a3.429,3.429,0,0,0,.952,2.49,48.149,48.149,0,0,1,6.738-2.564q5.567-1.61,8.936-.439,2.417,1.172,2.2,3.076,1.611,16.773-.146,27.978a3.078,3.078,0,0,1-.952,1.685,5.226,5.226,0,0,1-3.589.293,48.846,48.846,0,0,1-5.567-1.1q-1.466-.367,0,0.952A28.956,28.956,0,0,0,686.06,104q1.464,0.439,2.929,1.025a3.668,3.668,0,0,0,1.465.44q2.051,0.44,2.783-.366a4.363,4.363,0,0,0,0-1.685,34.784,34.784,0,0,1-.659-5.054q-0.073-9.594-.293-19.263a66.2,66.2,0,0,1,.293-9.522,6.908,6.908,0,0,1,.806-2.93q1.537-1.538.073-2.27a32.123,32.123,0,0,0-12.085-.952q-7.47.807-11.719,1.685h0ZM668.7,74.045a3.752,3.752,0,0,1-2.417.073,1.913,1.913,0,0,0-1.977.293,3.415,3.415,0,0,0,.146,1.611q0,3.076-.22,6.152-0.292,3.59-.293,7.1a2.572,2.572,0,0,0,1.1,2.783,1.819,1.819,0,0,0,1.318-.513,19.028,19.028,0,0,1,5.86-1.392,3.5,3.5,0,0,1,2.929.879A12.018,12.018,0,0,0,677.71,92.5q1.245,0.953,1.978,0a11.37,11.37,0,0,0,.366-2.71,110.84,110.84,0,0,1,.879-14.941q0.73-1.464-1.026-2.27a9.143,9.143,0,0,0-5.566-.293Zm-16.26,25.342q0.366,2.2,1.9,1.318,2.2-1.466,1.831-2.71a82.973,82.973,0,0,1,1.172-20.727q0.951-2.05-.513-2.71l-1.465-.659q-2.125-1.171-2.27.879-0.734,12.525-.66,24.609h0Zm24.61-22.632-0.073,10.107a2.7,2.7,0,0,1-.367,1.245,2.257,2.257,0,0,1-1.757.22q-1.319-.22-1.392-0.586a2.051,2.051,0,0,0-2.271-.439l-2.929.366a1.139,1.139,0,0,1-1.685-1.025,4.359,4.359,0,0,1-.073-1.392,1.735,1.735,0,0,1,1.392-1.685,35.359,35.359,0,0,0,4.76-1.172,1.984,1.984,0,0,0,1.465-1.684q-0.219-1.025-1.684-.732l-3.809.659q-1.466.294-1.465-.879a12.7,12.7,0,0,1,.513-2.93,17.462,17.462,0,0,1,6.811-2.564q1.979-.292,2.564,2.49h0Z"/>
</svg>
