<svg xmlns="http://www.w3.org/2000/svg" width="900" height="140" viewBox="0 0 900 140">
  <defs>
    <style>
      .cls-1 {
        fill-rule: evenodd;
      }
    </style>
  </defs>
  <path id="王漢宗勘亭流繁" class="cls-1" d="M201.024,48.7a24.633,24.633,0,0,1-5.859,2.2q-2.71.513-3,1.1-0.513,3.444,3.076,5.127,6.593,3.3,15.308,1.392a4.087,4.087,0,0,1,3.3.513,2.9,2.9,0,0,1,1.758,2.417v3.3a2.417,2.417,0,0,1-1.758,2.417q-10.328,3.076-16.773,4.468-2.784,1.538-.512,4.614a15.31,15.31,0,0,0,5.42,3.516q2.636,0.807.878,1.685-10.4,5.347-9.887,13.4,0.879,6.372,7.91,9.228a25.066,25.066,0,0,0,17.578-.22q16.332-4.907,30.322-.659,5.419,3.077,8.2-2.05,3.369-6.592-5.786-12.232a24.5,24.5,0,0,0-16.772-2.637q-2.2.294-2.271-1.611l-0.293-5.273a2.138,2.138,0,0,1,1.978-2.417,22.447,22.447,0,0,1,9.741.366,10.949,10.949,0,0,0,5.86.732,5.448,5.448,0,0,0,3.955-4.834q0.879-5.054-4.908-8.057-5.861-3.588-14.355-2.49-2.2.22-2.637-1.538a11.024,11.024,0,0,0-1.758-3.882q-1.977-2.269-.146-2.49a55.311,55.311,0,0,1,15.088.513q5.933,1.466,8.642.879a6.087,6.087,0,0,0,2.637-3.516q1.464-5.639-6.445-9.741-8.13-3.881-19.19-2.417a114.828,114.828,0,0,0-29.3,8.2h0ZM215.16,85.544a30.462,30.462,0,0,0-.073,3.662,2.223,2.223,0,0,1-1.9,2.27l-6.812,2.344a22.815,22.815,0,0,1-5.859,1.685q-3,.072-3-2.783a4.069,4.069,0,0,1,1.758-2.856,29.673,29.673,0,0,1,11.718-5.2l1.465-.293q2.783-.512,2.71,1.172h0Zm97.852-47.681q0.364,0.587-1.538.879-3.225.513-6.446,1.318a2.929,2.929,0,0,1-3.515-1.172q-2.125-2.489-4.175-2.637-5.787-.512-3.955,4.248a4.827,4.827,0,0,1,1.1,1.831q0.147,0.733-1.831,1.318l-2.856.659a5.288,5.288,0,0,0-2.344,1.025q-0.513.439-1.758-1.318a11.892,11.892,0,0,0-7.251-5.127,5.558,5.558,0,0,0-5.786,2.124q-2.344,3.224-.512,5.859a24.794,24.794,0,0,0,5.566,5.2q2.416,2.417-1.538,3.149-10.327,4.175-7.105,12.451a11.641,11.641,0,0,0,4.981,5.2q3.3,1.246.22,3.955-6.96,8.937-3.3,17.578,3.661,7.251,9.668,8.936,7.836,1.538,6.958-7.178-0.075-2.051,1.611-1.1a12.161,12.161,0,0,0,2.856.513q2.49-.148.293,2.051a17.306,17.306,0,0,1-2.2,1.758,1.405,1.405,0,0,0-1.1,1.465,5.3,5.3,0,0,0,2.343,2.124q6.444,4.466,11.719,1.1a23.828,23.828,0,0,0,5.713-8.642q1.1-2.2,3.369-.879,4.246,2.709,11.719,8.423,4.027,2.268,6.3,1.391a8.706,8.706,0,0,0,2.124-2.124q1.83-2.71-1.319-5.713l-3.369-2.637q0.145-1.025,2.051-.513,3,1.318,4.028-1.1,1.391-2.856-3-5.127-6.372-2.124-15.966-1.245-2.2.074-2.344-.22l0.073-.952q0.293-.659,2.2-0.879a54.965,54.965,0,0,1,13.33.366,6.528,6.528,0,0,0,3.223.293,2.982,2.982,0,0,0,1.245-2.49q0-2.489-2.93-3.809a28.817,28.817,0,0,0-13.11-1.172q-2.416.148-2.27-1.1t2.124-1.538a29.243,29.243,0,0,1,7.324-.22q7.69,2.784,8.642-5.566,0.805-3.955-.073-5.859-2.417-3.442-4.248-4.248A19.155,19.155,0,0,0,314.7,57.126a4.814,4.814,0,0,1-3.955-.513l-1.172-.513q-2.345-.731,0-1.318l3-.732a4.2,4.2,0,0,1,2.637.147,7.025,7.025,0,0,0,7.4-1.1,8.179,8.179,0,0,0,1.246-5.347q-0.294-2.417,1.391-2.344a40.4,40.4,0,0,1,5.347,1.172,2.232,2.232,0,0,0,2.637-1.538q1.464-3.222-2.564-5.2a20.166,20.166,0,0,0-5.42-1.685,5.472,5.472,0,0,1-3.735-1.684q-3.37-3.148-6.738-2.2-2.637,1.612-1.758,3.589h0Zm0.293,9.521a1.928,1.928,0,0,1-1.831,1.977,50.78,50.78,0,0,0-6.812,1.831,1.434,1.434,0,0,1-1.245-1.025q-0.807-2.929,1.685-2.856,3.735-.879,6.005-1.172,2.269-.439,2.2,1.245h0Zm-18.6,3.442a9.549,9.549,0,0,0,1.245,4.761q2.05,2.565,3.882,2.49a1.564,1.564,0,0,1,1.318,1.538q0.22,1.392-1.831,2.344-2.124.879-2.343,0.22a5.779,5.779,0,0,0-4.981-2.051q-3.808,1.172-1.758,3.882a3.711,3.711,0,0,1,.293,1.9,16.25,16.25,0,0,0-.366,2.637q-1.026,5.421,4.175,8.862a8.228,8.228,0,0,0,4.761.22q2.269-.511,2.124.659-0.149,1.026-1.905,1.611l-5.493,1.245a6.413,6.413,0,0,0-2.636.513q-1.027,1.686,0,2.564a5.809,5.809,0,0,0,5.419,2.2q2.2-.22,2.344.146a4.148,4.148,0,0,1-.512,1.611l-6.08,1.611a12.629,12.629,0,0,1-2.929.659,5.122,5.122,0,0,0-2.051.073q-0.659.367-1.025-1.611a76.28,76.28,0,0,1-.953-11.5,6.506,6.506,0,0,1,1.539-3.809q1.464-3.807,0-5.859a5.247,5.247,0,0,1-1.1-3.223v-5.64a2.889,2.889,0,0,1,1.172-2.563,10.982,10.982,0,0,0,1.831-2.49q0.879-1.684-.293-4.468-0.733-2.2,1.025-1.318a13.221,13.221,0,0,0,2.857.806Q294.7,49,294.7,50.827h0Zm-10.62,8.35-0.146,2.417q-0.075,2.491-1.905,1.172a13.037,13.037,0,0,0-2.783-1.831q-1.977-1.758.22-2.564a13.681,13.681,0,0,1,2.344-.586q2.2-.366,2.27,1.392h0Zm36.768,6.006a2.136,2.136,0,0,1-2.2,1.611l-0.952.073q-2.344.367-2.344-1.538a2.033,2.033,0,0,1,1.978-2.051l1.245-.073q2.709-.805,2.271,1.977h0Zm-17.432,3.662a2.8,2.8,0,0,1-2.2,1.831l-1.245.439q-2.786,1.466-2.857-1.392l0.073-1.465a3.3,3.3,0,0,1,1.905-.439l2.563-.22q2.27-.292,1.758,1.245h0ZM282.763,88.107q-0.588,1.173-1.392.879-1.318-.072-2.563-2.49-1.319-3.222,1.757-6.445,2.344-2.124,2.344-.22,0.072,4.175-.146,8.276h0Zm82.4-43.579q1.685,2.271-.073,3.149l-5.713,2.93q-1.686.879-2.93-1.025-3.882-4.175-7.1-3-1.758,2.637.879,4.395,1.1,1.612.146,5.64-2.49,5.713.073,8.789,1.611,2.125.879,2.344a1.147,1.147,0,0,0-1.171,1.318,2.626,2.626,0,0,0,1.318,1.758q5.565,2.637,13.843-.586,19.846-7.471,37.939-4.614a4.915,4.915,0,0,0,3.15-1.172,3.924,3.924,0,0,0-.879-4.907q-1.027-.951.659-2.27,3.441-2.929,3.442-5.493,0.145-6.592-7.837-9.595a31.056,31.056,0,0,0-17.578-.952q-2.2.513-4.175-1.684l-1.465-1.1q-7.689-3.588-13.037.22-2.711,2.491-.366,5.859h0Zm31.421,4.395a7.528,7.528,0,0,1-1.9,3.369l-1.685,2.124a5.194,5.194,0,0,1-3.662,2.124q-12.378.953-28.2,7.251-2.344.953-2.344-.879l-0.22-3q-0.219-1.684,1.758-1.465,6,0.22,14.429-3.3,6.3-2.709,11.719-5.347,5.565-2.563,9.082-2.124,1.243,0.439,1.025,1.245h0Zm-34.57,26.953a4.6,4.6,0,0,1-4.4-.659q-3.369-1.1-3.222,2.563,0.145,0.807-1.758,1.685a19.13,19.13,0,0,1-2.71.879q-3.15.659-.44,3.442a13.809,13.809,0,0,0,2.417,1.392q1.611,0.659.659,2.637L350,93.381q-1.613,2.123-1.392,3.149a9.049,9.049,0,0,0,2.857,5.64q5.932,3,7.471-3.076,0.8-2.2,3-.586a26.755,26.755,0,0,0,18.383,4.834,6.3,6.3,0,0,0,4.322-2.2,9.9,9.9,0,0,0,1.464-7.251q-0.147-3.442-.073-6.885a20.029,20.029,0,0,0-1.318-4.541q-1.028-1.758-.879-2.051,0.146-.366,1.9-0.513a2.425,2.425,0,0,0,1.026-.073,4.8,4.8,0,0,1,4.1,1.9A20.315,20.315,0,0,1,394.6,93.454a9.973,9.973,0,0,0,2.2,5.859q2.637,3.442,5.639,3.37,3.516,0,5.054-3.809a7.646,7.646,0,0,0,.293-5.859,19.913,19.913,0,0,0-5.933-11.206q-1.832-1.684.586-1.685l3.589,0.586a4.174,4.174,0,0,0,3.516-.806,4.424,4.424,0,0,0,.293-5.273,13.124,13.124,0,0,0-7.105-4.248,42.771,42.771,0,0,0-17.285-.293,104.98,104.98,0,0,0-23.437,5.786h0Zm10.547,8.5-0.147,6.592q-0.513,2.345-2.27,2.49a40.242,40.242,0,0,1-7.178-.586q-2.345-.22-1.831-2.124l1.025-3.369a2.781,2.781,0,0,1,2.124-2.71l4.248-1.318,1.465-.366q2.269-.585,2.564,1.392h0Zm63.794-43.066a1.2,1.2,0,0,1,.293,1.025,48.557,48.557,0,0,0-7.1,3q-1.758.953-2.2-.952-1.978-5.932-6.885-6.3-2.345,1.172-.806,3.516a4.936,4.936,0,0,1,1.026,3.369l0.219,2.124a2.206,2.206,0,0,1-1.245,2.417,2.118,2.118,0,0,0-1.9,1.685,3.177,3.177,0,0,0,1.978,2.49,2.1,2.1,0,0,1,1.1,2.27q0.072,12.892-.439,19.116a5.99,5.99,0,0,1-1.831,4.394,4.918,4.918,0,0,0-.879,4.248q1.024,2.2.439,3-0.952,1.612.733,3a2.521,2.521,0,0,1,.952,1.318q-1.539,6.592.513,10.547,3.222,4.467,7.031,2.783a8.94,8.94,0,0,1,2.929.293l2.564-.073q8.349-1.612,11.719-1.465a18.233,18.233,0,0,1,5.859,1.172,3.7,3.7,0,0,0,3.223-.366,4.152,4.152,0,0,1,2.856-.074q4.834,0.513,6.738-4.467,1.172-2.051,3.077.146,4.247,4.1,11.132,2.93a7.556,7.556,0,0,0,4.761-6.372,152.19,152.19,0,0,0,2.344-30.029,18.674,18.674,0,0,0-1.758-8.789,16.015,16.015,0,0,0-10.181-7.983,1.777,1.777,0,0,1-1.538-2.27,9.144,9.144,0,0,0-.805-4.98,5.379,5.379,0,0,0-3.882-3.223,7.645,7.645,0,0,0-5.86,1.025q-3.808,2.491-.585,5.64,0.8,1.905-.074,7.324a5.036,5.036,0,0,1-1.172,2.93l-6,7.324a10.862,10.862,0,0,0-2.124,2.637q-0.44.953-.66,0.732-0.368-7.031-.512-14.062,0.072-2.2,1.611-2.27a3.707,3.707,0,0,0,3.369-3.076q0.511-4.98-6.006-6.445a5.1,5.1,0,0,1-3.149-1.025q-4.175-3.955-7.764-2.93-2.49,1.612-1.1,4.688h0Zm3,11.938V56.1q0,1.905-2.416.659a14.48,14.48,0,0,0-3.516-1.245q-2.417-.511-2.344-0.952a9.492,9.492,0,0,1,4.028-1.758l1.465-.513q2.782-.879,2.783.952h0Zm34.424,5.566a12.4,12.4,0,0,1,.293,4.028,198.193,198.193,0,0,1-3.222,26.294,2.877,2.877,0,0,1-2.2,1.611q-2.271-.072-1.757-1.978A89.962,89.962,0,0,0,469.311,71.7q0.146-5.346.585-10.474a3.336,3.336,0,0,1,2.637-3.882,1.725,1.725,0,0,1,1.245,1.465h0ZM431.151,64.3l-3.222,1.538q-0.294-.146-0.44-2.2,0.221-1.977,2.271-1.538a6.69,6.69,0,0,1,2.49.293q0.732,0.587-1.1,1.9h0Zm8.423,2.27q0,1.758-1.977,1.392l-1.465.073q-3,.807-3.369-1.538,1.1-2.343,4.541-1.685,2.27-.146,2.27,1.758h0Zm17.8,6.592A41.151,41.151,0,0,0,456.64,78q-0.514,1.905-.952.293,0-1.978-2.344-3.589a4.291,4.291,0,0,1-2.71-2.856,16.022,16.022,0,0,1-.366-5.127q0.44-.072,1.611,1.685a6.819,6.819,0,0,0,3.3,2.71q2.416,0.439,2.2,2.051h0Zm-23.73,2.417q2.2,0.367.586,1.392a32.915,32.915,0,0,0-3.882,2.124Q428,80.565,428,78.659l-0.073-2.2q-0.073-2.05,1.977-1.538Zm-10.254,7.544a2.57,2.57,0,0,1-2.124.146q-2.052-1.025-.513-2.856,0.512-.585,2.27,1.1,1.39,1.173.367,1.611h0ZM455.1,85.1a13.462,13.462,0,0,1-.879,2.93q-0.368.439-1.1-.806a2.394,2.394,0,0,0-1.538-2.2,14.013,14.013,0,0,0-6.006.879q-1.613-.44-1.1-2.271,0-1.538,1.978-1.9a18.843,18.843,0,0,1,5.713.439q2.343,0.22,3-1.318,1.1-1.245.513,1.318Zm-13.843,7.251q2.269,1.39,2.124,1.685a7.017,7.017,0,0,1-2.051.513,40.576,40.576,0,0,0-12.451,3.662q-3.735,2.124-3.076-2.417L426.1,94.04q0.364-.148,2.563,1.611,3.222,1.025,4.175-1.1a15.839,15.839,0,0,0,1.9-5.42,6.469,6.469,0,0,0,.44-2.93q-0.22-.585,1.977-1.831,2.05-.805,1.905,1.1-0.221,4.468,2.2,6.885h0Zm-11.865-2.71a9.441,9.441,0,0,1-3,2.344,3.712,3.712,0,0,1-.733-1.758q-0.587-1.61,1.172-1.9a7.224,7.224,0,0,0,1.758-.22q2.488-.439.806,1.538h0Zm23.51,3.442q-0.807,2.269-2.71,1.611a23.685,23.685,0,0,0-3-.366q-1.977-.22-1.757-0.659a13.381,13.381,0,0,1,5.639-1.758,2.944,2.944,0,0,0,1.465-.879q1.758-1.758.659,1.025Zm60.352-50.464q0.291,1.1-1.685,1.685a124.819,124.819,0,0,0-14.135,5.347,14.52,14.52,0,0,0-2.637.732,2.166,2.166,0,0,0,.805,2.49,9.5,9.5,0,0,0,4.615,1.9q2.343,0.294,1.318,2.124-2.416,6.885,1.1,10.327a14.145,14.145,0,0,0,5.786,3.589,8.654,8.654,0,0,0,5.859.293,109.786,109.786,0,0,1,35.449-3.223q3.076-.072,5.567-3.369a12.579,12.579,0,0,0,.659-5.493q0.292-3.662-3.735-6.665-5.348-2.783-13.843-1.684A153.572,153.572,0,0,0,509.667,57.2q-2.271.587-1.758-.732a9.613,9.613,0,0,1,5.64-4.248A80.142,80.142,0,0,1,552.953,49q2.709,0.294,3.662-.879,2.49-4.395-3.222-7.324-7.179-3-17.5-1.831a4.616,4.616,0,0,1-3.809-1.318,17.172,17.172,0,0,0-12.6-2.051q-6.519,1.466-6.225,7.031h0ZM543.212,59.03q0,1.246-1.831,1.318a143.021,143.021,0,0,0-30.1,5.2q-3.369.44-4.1-2.051-0.368-1.464,1.465-1.465a20.306,20.306,0,0,0,6.079-.879q5.859-1.538,11.718-2.49,11.06-2.05,15.455-1.685a1.869,1.869,0,0,1,1.318,2.051h0ZM506.371,75.437a3.872,3.872,0,0,1-3.589-1.831q-2.637-2.783-5.493-2.564-1.9,1.392-.586,3.076a2.854,2.854,0,0,1,1.026,1.318,51.392,51.392,0,0,1-.147,9.448,9.869,9.869,0,0,0,.659,6.372q2.051,3.3,5.054,2.783,1.024-.294,2.27,2.051,3.588,5.346,7.471,7.251,11.573,4.98,21.094,2.344,6.518-1.978,6.665-8.277a15.138,15.138,0,0,0-1.245-6.372q-0.66-2.417.952-2.93a54.39,54.39,0,0,1,13.916,1.538q3.662,0.44,4.468-1.977a5.519,5.519,0,0,0-.366-4.541q-0.514-.585.878-2.2,3-4.834-1.831-8.423a22.782,22.782,0,0,0-8.789-2.417q-6.372-.292-18.823,2.051Zm38.745,3.149a4.116,4.116,0,0,1-2.929,1.1A109.248,109.248,0,0,0,520.434,83.2,43.336,43.336,0,0,1,508.5,85.031a3.318,3.318,0,0,0-2.856.439q-0.879.659-.952-1.538-0.075-2.123,1.757-2.124a77.885,77.885,0,0,0,8.789-1.172q19.118-4.614,29.444-4.468,2.416,0.587.439,2.417h0ZM524.315,90.6q2.344-.659,2.344,1.245a21.385,21.385,0,0,1-.293,3.516q-0.147,2.05-1.758,2.344a24.074,24.074,0,0,1-17.358-3.955q-2.125-1.758-2.051-3.589,0-2.123,1.612-.732a15.156,15.156,0,0,0,6.665,2.564A42.064,42.064,0,0,0,524.315,90.6h0Zm75-49.439q1.39,2.2-.512,3.076a37.883,37.883,0,0,1-8.057,3.882q-2.271.367-2.93-1.392-6.225-9.96-14.428-10.181a4.552,4.552,0,0,0-4.175,2.124q-2.491,4.1.659,7.324a20.586,20.586,0,0,0,5.786,4.321q4.834,2.71,0,4.321a14.975,14.975,0,0,0-7.983,6.592q-2.856,6.666,3.369,11.938,2.124,1.466,2.124,2.124a4.824,4.824,0,0,1-1.172,1.9q-7.764,9.888-3,18.091,4.467,7.251,10.474,7.544,4.32,0.366,5.493-2.783,0.585-1.612,1.392.586a4.541,4.541,0,0,0,2.27,2.49q5.274,2.2,6.738-4.1l0.66-2.93q0.73-5.859,1.757-11.719,1.466-6.518-4.1-10.108a3.8,3.8,0,0,0-4.1.439q-1.026,2.2.366,3.516a3.187,3.187,0,0,1,.879,2.563,42.367,42.367,0,0,1-4.394,12.231,0.931,0.931,0,0,1-.879.513,109.356,109.356,0,0,1,.586-28.052l0.952-11.719a3.437,3.437,0,0,1,.952-1.831,12.177,12.177,0,0,0,5.2,2.2q2.418,0.074.952,1.978-5.346,6.959-4.76,12.158a3.535,3.535,0,0,0,2.2,2.49,14.12,14.12,0,0,0,8.2.879q1.977-.366,1.9,1.025a5.638,5.638,0,0,0,.733,2.49,2.64,2.64,0,0,1,1.1,2.124,121.694,121.694,0,0,1-1.025,18.311q-0.073,5.126,4.834,7.617,3.149,1.245,4.541-1.9a31.074,31.074,0,0,0,.293-5.64,101.631,101.631,0,0,1,.659-13.4q-0.439-1.977,2.71-6.226,1.758-2.856,3.516-.366a9.543,9.543,0,0,1,.146,2.2q-1.758,14.43.074,20.947a5.306,5.306,0,0,0,3.149,3.808q6.078,2.418,9.814-.073a8.615,8.615,0,0,0,2.417-8.862,30.478,30.478,0,0,0-5.346-11.719,5.874,5.874,0,0,1-1.1-2.93,8.8,8.8,0,0,0-.659-3.516q-1.537-2.343.366-2.2,3.882,0.587,6.3-4.1,0.293-1.9-1.1-5.859-1.319-5.565-8.13-12.231-2.271-1.464-1.245-2.27a10.841,10.841,0,0,1,3.3.659L630,50.022q3.076,0.294,3.882-1.978,1.17-5.565-6.079-8.716A18.806,18.806,0,0,0,616.6,38.3a3.669,3.669,0,0,1-3.589-1.318,12.069,12.069,0,0,0-12.525-1.172q-3.075,2.637-1.172,5.347h0Zm15.894,10.034,1.025,1.465a8.119,8.119,0,0,1,1.245,2.637,92.939,92.939,0,0,0-17.871,7.837,3.18,3.18,0,0,1-3.222.806q-0.807-1.464,1.025-2.93a62,62,0,0,1,7.4-6.372,21.992,21.992,0,0,1,5.786-4.761l0.8-.366q2.2-.585,3.809,1.685h0ZM585.766,56.54q-0.954,5.347-1.612,10.693-0.293,1.978-1.611-.147a24.588,24.588,0,0,0-5.493-5.127A3.521,3.521,0,0,1,575,59.982a1.336,1.336,0,0,1,1.1-1.538,39.8,39.8,0,0,1,5.859-2.27l1.465-.439q2.562-1.025,2.344.806h0ZM622.24,66.5a17.71,17.71,0,0,0,2.2,4.614q-0.075.294-2.417-.513-3.589-1.025-8.057,3.3-2.125,1.978-3.735-.293a9.571,9.571,0,0,0-2.93-2.344q-2.052-1.1-.293-1.9,5.346-2.05,10.693-3.882l1.465-.439q2.488-.585,3.076,1.465h0ZM581.811,89.572q-0.807,3.076-3.589,1.245a8.357,8.357,0,0,1-3-4.907q-0.439-4.175,6.225-9.448,1.758-1.758,1.392.879a116.345,116.345,0,0,0-1.025,12.231h0Zm48.046,0.439q0.147,4.468-3.515,2.783a3.082,3.082,0,0,1-.659-2.71,24.828,24.828,0,0,1,2.124-7.764q0.439-.366,1.025,1.465a38.452,38.452,0,0,0,1.025,6.226h0Zm50.831-53.247a4.908,4.908,0,0,0,.952,2.563,1.29,1.29,0,0,1-.879,1.685,20.31,20.31,0,0,0-3.882,3q-1.686,1.758-2.124.22-2.637-7.91-8.2-7.91-7.325,1.612-17.578,11.426-1.758.807-2.637-.073-1.246-1.538,1.1-3.369a12.5,12.5,0,0,1,5.712-2.49,2.211,2.211,0,0,0,1.465-1.978q0-2.637-3.735-3.809a4.961,4.961,0,0,0-5.054.659q-0.952.953-.073,2.563,1.1,1.612-1.318,2.637a7.643,7.643,0,0,0-3.223,4.395,5.176,5.176,0,0,0,3.149,4.614,11.03,11.03,0,0,0,6.446,1.245q2.489,0-.293,1.1-2.2,1.538-3.589.513a3.168,3.168,0,0,0-2.051-.586q-2.125.807-.439,2.49,0.439,0.44.366,2.71-0.368,2.2-1.758,2.124a7.075,7.075,0,0,0-1.685.293q-0.732.879,0.586,1.831l1.9,1.318q-1.978,4.029.805,6.372,1.758,0.807,2.637-.073,0.585-.511,2.857-0.439a5.123,5.123,0,0,0,1.538-.073q2.2-.146,2.27.22-1.9,3.443-4.028,3.662a9.64,9.64,0,0,0-2.857,2.27q-1.758,2.345,2.051,5.566,2.2,2.051,2.051,2.344a16.858,16.858,0,0,0-3.955,2.124q-3.3,3.663.439,6.445,1.1,0.733.733,2.71a4.381,4.381,0,0,1-.806,1.392q-2.929,3.735,0,5.786,4.247,3.442,6.519-1.318,1.1-2.345,2.856-1.319,10.4,7.4,19.409,3.736,2.564-.953,2.783-5.347a14.089,14.089,0,0,0-.8-5.786q-1.1-2.269.732-2.93,1.758-.44,3.809,1.611a28.322,28.322,0,0,1,5.713,8.2q3.222,5.639,7.4,3.735a4.51,4.51,0,0,0,2.71-3.223q0.366-1.466-1.245-4.394a16.383,16.383,0,0,0-7.031-7.251q-2.271-1.171-.147-1.758l3-.879a3.117,3.117,0,0,1,3.516,1.392q4.1,4.908,7.91,2.856a4.352,4.352,0,0,0,1.685-4.907,18.9,18.9,0,0,0-9.229-9.155q-2.125-1.1-.659-1.831a3.487,3.487,0,0,0,2.27-2.856q0.66-3.076-3.662-4.98-2.05-.951-0.293-2.2a2.523,2.523,0,0,1,3.516.073l1.172,1.318q2.343,3.883,6.225,1.685a7.544,7.544,0,0,0,1.538-2.124,6.076,6.076,0,0,0-2.783-7.031q-2.05-1.464-.732-3.809,2.27-3.148-.073-5.713-1.028-1.1.439-1.1,2.928,0.439,2.93-2.856-0.22-3.516-4.175-4.395a19.477,19.477,0,0,0-7.617,1.538q-1.907.879-2.491-1.025a6.983,6.983,0,0,0-4.76-4.541,7.65,7.65,0,0,0-6.519-.293,2.742,2.742,0,0,0-.805,1.392h0Zm-11.646,8.716q-6.372,2.491-8.862,3.809-1.467.439-1.465-.513a51.982,51.982,0,0,0,5.713-5.713q3.662-4.541,5.932-.806a2.2,2.2,0,0,1-1.318,3.223h0Zm18.237-1.245q0.366,0.293-1.465,1.685-4.394,3.444-7.251,3.662a1.5,1.5,0,0,1-1.757-1.465,10.623,10.623,0,0,1,8.423-4.1,5.4,5.4,0,0,1,2.05.22h0Zm7.91,6.885a3.573,3.573,0,0,1-3.588,1.245l-1.246-.293q-2.856,0-.439-1.1a27.512,27.512,0,0,1,4.761-2.2q2.637-.805,1.465,1.1Zm-19.116,1.611q1.9,1.1.586,2.71-0.879,1.538-1.538,1.392-0.658-.22-1.1-1.9a7.075,7.075,0,0,0-3.149-4.248q-2.126-1.318.366-1.172,1.9-.22,2.2.659a6.94,6.94,0,0,0,2.636,2.563h0Zm-12.817,3.662q-2.2.148-2.124-.806a3.1,3.1,0,0,0-1.1-1.611q-0.732-.44,1.245-1.465,4.322-2.563,4.615,1.611a2.54,2.54,0,0,1-2.637,2.271h0Zm-11.719,2.27q-2.417.733-2.344-.439t1.9-1.318q3.515-1.318,3,.293-0.294.953-2.564,1.465h0Zm34.863,0.22q-3.369,2.345-5.786,2.417-1.466.22-1.977-1.538-0.439-1.684,2.124-2.71a12.843,12.843,0,0,1,5.566-.22q1.978,0.587.073,2.051h0Zm-23.437,4.395q-2.491.513-2.49-.879,0.072-1.245,2.563-1.685,2.269-.146,2.271,1.172,0,1.246-2.344,1.392h0Zm13.769,2.49q-2.344,1.246-2.343-.586V63.132q0-1.83.8-1.977,0.66,0,1.538,1.977,1.758,1.905,0,2.637h0Zm-25.927.146q-2.271.879-2.271-.073a4.075,4.075,0,0,1,.147-1.245,4.88,4.88,0,0,1,2.417-1.025q2.27-.731,2.05.586,0,1.027-2.343,1.758h0Zm14.428,2.124a3.285,3.285,0,0,0,2.124,2.49q1.245,0.659-.219,1.611-1.539,1.173-3.076-.513a17.784,17.784,0,0,0-3.37-2.27q-2.49-.879-0.293-1.611a1.837,1.837,0,0,0,.953-0.22l1.464-.22q2.418-.22,2.417.733h0Zm18.6,4.468q-4.029,1.027-8.057,2.344a5.612,5.612,0,0,1-2.563.293,9.891,9.891,0,0,1,2.124-2.271,55.189,55.189,0,0,1,5.859-4.248q3.222-2.05,3.882,0,2.416,3.076-1.245,3.882h0Zm6.152,6.519q2.05,1.905.293,2.344a331.255,331.255,0,0,0-34.057,8.2,5.181,5.181,0,0,1-1.9.073q-1.318-.731-0.879-1.392a2.7,2.7,0,0,1,1.978-1.611l5.859-1.831a223.71,223.71,0,0,1,23.438-7.324q1.464-.44,5.273,1.538h0Zm-33.252,1.245a6.03,6.03,0,0,1-5.053.366q-0.879-.951,0-1.538a5.349,5.349,0,0,1,6.665-.439q0.364,0.439-1.612,1.611h0ZM666.845,94.48a12.351,12.351,0,0,1,.146,4.688q-1.246,1.977-3.662.732-3-.953-5.786-1.611-2.2-.513-2.124-2.417a1.756,1.756,0,0,1,1.977-1.9,52.885,52.885,0,0,0,8.716-1.392,4.106,4.106,0,0,1,.733,1.9h0Z"/>
</svg>
