<svg xmlns="http://www.w3.org/2000/svg" viewBox="0 0 900 140" width="900" height="140">
	<style>
		tspan { white-space:pre }
		.shp0 { fill: #000000 } 
	</style>
	<path id="文泉驿正黑 " class="shp0" d="M324.31,81.97c-5.23,-6.68 -8.93,-14.88 -11.07,-24.61h-5.98c-2.5,0 -5,0.06 -7.5,0.18c0.16,-1.37 0.16,-2.71 0,-4.04c2.5,0.12 5,0.18 7.5,0.18h38.61c2.5,0 5,-0.06 7.5,-0.18c-0.16,1.33 -0.16,2.68 0,4.04c-2.5,-0.12 -5,-0.18 -7.5,-0.18h-5.62c-0.66,6.33 -2.58,12.29 -5.74,17.87c-1.41,2.5 -2.97,4.8 -4.69,6.91c2.66,2.66 6.04,5 10.14,7.03c4.14,2.03 8.81,3.2 14,3.52c-1.21,1.25 -1.87,2.73 -1.99,4.45c-5.23,-0.43 -9.94,-1.76 -14.12,-3.98c-4.18,-2.27 -7.75,-4.94 -10.72,-8.03c-3.01,2.97 -6.68,5.63 -11.02,7.97c-4.3,2.34 -9.18,3.83 -14.65,4.45c0.04,-1.8 -0.47,-3.44 -1.52,-4.92c5.16,-0.55 9.8,-1.82 13.95,-3.81c4.14,-1.99 7.62,-4.28 10.43,-6.86zM331.69,50.21l-3.87,2.81c-2.58,-3.52 -5.39,-6.84 -8.44,-9.96l3.4,-3.34c3.24,3.28 6.21,6.78 8.91,10.49zM327.06,79.04c1.48,-1.84 2.71,-3.83 3.69,-5.98c1.99,-4.84 3.5,-10.08 4.51,-15.7h-17.99c1.91,8.4 5.18,15.63 9.79,21.68zM389.35,75.53v16.11c0,1.56 -0.59,2.87 -1.76,3.93c-1.56,1.41 -4.49,2.09 -8.79,2.05c0.43,-1.87 -0.02,-3.52 -1.35,-4.92c1.21,0.12 2.66,0.2 4.34,0.23c1.68,0 2.68,-0.12 2.99,-0.35c0.31,-0.27 0.47,-1.04 0.47,-2.29v-22.97h-17.11c0.51,-6.87 0.51,-13.73 0,-20.57h12.01c0.43,-0.47 1.35,-1.68 2.75,-3.63l1.29,-1.87c1.17,0.98 2.4,1.82 3.69,2.52c-0.59,0.98 -1.33,1.97 -2.23,2.99h20.68c-0.51,6.84 -0.53,13.69 -0.06,20.57h-16.76c1.48,3.91 3.24,7.27 5.27,10.08c4.26,-2.38 8.67,-5.2 13.24,-8.44c0.74,1.29 1.6,2.5 2.58,3.63c-3.44,2.54 -7.85,5.2 -13.24,7.97c4.69,5.12 10.63,8.4 17.81,9.84c-1.29,1.02 -2.09,2.3 -2.4,3.87c-5.04,-1.09 -9.53,-3.28 -13.48,-6.56c-3.95,-3.32 -7.27,-7.38 -9.96,-12.19zM362.22,76.7c0.12,-1.09 0.12,-2.19 0,-3.28c2.03,0.08 4.06,0.12 6.09,0.12h15.82c-4.88,9.41 -12.03,16.52 -21.45,21.33c-1.05,-1.25 -2.3,-2.3 -3.75,-3.16c7.93,-3.16 14.02,-8.22 18.28,-15.18h-8.91c-2.03,0 -4.06,0.06 -6.09,0.18zM382.32,49.69h-10.08v5.74h30v-5.74h-19.39l-0.29,0.35c-0.08,-0.12 -0.16,-0.23 -0.23,-0.35zM402.24,58.42h-30v5.92h30zM458.37,97.27c-1.52,-0.2 -3.05,-0.2 -4.57,0c0.16,-2.81 0.23,-5.61 0.23,-8.38v-3.81h-5.8c-2.11,0 -4.2,0.06 -6.27,0.18c0.12,-1.17 0.12,-2.32 0,-3.46c2.07,0.12 4.16,0.18 6.27,0.18h5.8v-8.09h-2.99c-2.07,0 -4.16,0.06 -6.27,0.18c0.12,-1.13 0.12,-2.29 0,-3.46c2.11,0.12 4.2,0.18 6.27,0.18h2.99c-0.04,-2.27 -0.12,-4.53 -0.23,-6.8c1.52,0.16 3.05,0.16 4.57,0c-0.12,2.27 -0.2,4.53 -0.23,6.8h6.21c2.11,0 4.22,-0.06 6.33,-0.18c-0.16,1.17 -0.16,2.32 0,3.46c-2.11,-0.12 -4.22,-0.18 -6.33,-0.18h-6.21v8.09h9.32c2.11,0 4.22,-0.06 6.33,-0.18c-0.12,1.13 -0.12,2.29 0,3.46c-2.11,-0.12 -4.22,-0.18 -6.33,-0.18h-9.32v3.81c0,2.77 0.08,5.57 0.23,8.38zM442.67,46.99c0.12,-1.13 0.12,-2.27 0,-3.4c2.07,0.08 4.16,0.12 6.27,0.12h21.86c-2.93,5.12 -6.62,9.63 -11.07,13.54c3.79,2.66 8.61,4.36 14.47,5.1c-1.17,1.17 -1.84,2.56 -1.99,4.16c-5.47,-0.7 -10.64,-2.97 -15.53,-6.8c-4.22,3.2 -8.83,5.7 -13.83,7.5c-0.9,-1.41 -2.01,-2.62 -3.34,-3.63c5.12,-1.33 9.79,-3.55 14,-6.68c-3.01,-2.93 -5.62,-6.27 -7.85,-10.02c-1.02,0.04 -2.01,0.08 -2.99,0.12zM418.47,78.93c4.22,-0.47 7.95,-1.33 11.19,-2.58c1.17,-0.43 2.97,-1.15 5.39,-2.17l0.35,2.81c-6.56,2.62 -11.56,4.86 -15,6.74c-0.2,-1.76 -0.84,-3.36 -1.93,-4.8zM436.57,89.53v-19.04h-14.71l1.29,-10.72c0.31,-2.77 0.57,-5.55 0.76,-8.32c1.48,0.31 2.97,0.47 4.45,0.47c-0.43,2.77 -0.8,5.55 -1.11,8.32l-0.88,7.15h5.39l2.46,-20.86h-8.26c-2.11,0 -4.22,0.06 -6.33,0.18c0.12,-1.13 0.12,-2.27 0,-3.4c2.11,0.12 4.22,0.18 6.33,0.18h12.77l-2.81,23.91h4.75v23.26c0,1.48 -0.57,2.75 -1.7,3.81c-1.64,1.45 -4.63,2.15 -8.96,2.11c0.43,-1.91 -0.02,-3.59 -1.35,-5.04c1.21,0.16 2.68,0.25 4.39,0.29c1.76,0 2.77,-0.12 3.05,-0.35c0.31,-0.27 0.47,-0.92 0.47,-1.93zM463.23,46.82h-13.24c2.03,3.09 4.18,5.68 6.45,7.79c2.58,-2.3 4.84,-4.9 6.8,-7.79zM535.54,89.71c-0.16,1.29 -0.16,2.58 0,3.87c-2.38,-0.12 -4.77,-0.18 -7.15,-0.18h-42.19c-2.38,0 -4.77,0.06 -7.15,0.18c0.16,-1.29 0.16,-2.58 0,-3.87c2.38,0.12 4.77,0.18 7.15,0.18h2.46v-20.21c0,-2.89 -0.08,-5.8 -0.23,-8.73c1.6,0.16 3.18,0.16 4.75,0c-0.16,2.93 -0.23,5.84 -0.23,8.73v20.21h13.36v-42.19h-17.58c-2.38,0 -4.77,0.06 -7.15,0.18c0.12,-1.29 0.12,-2.58 0,-3.87c2.38,0.12 4.77,0.18 7.15,0.18h37.44c2.38,0 4.77,-0.06 7.15,-0.18c-0.12,1.29 -0.12,2.58 0,3.87c-2.38,-0.12 -4.77,-0.18 -7.15,-0.18h-15.59v17.99h11.89c2.38,0 4.77,-0.04 7.15,-0.12c-0.12,1.29 -0.12,2.58 0,3.87c-2.38,-0.12 -4.77,-0.18 -7.15,-0.18h-11.89v20.63h17.81c2.38,0 4.77,-0.06 7.15,-0.18zM595.95,96.09l-3.75,2.11c-2.42,-4.3 -5.43,-8.14 -9.02,-11.54l2.93,-3.11c3.91,3.67 7.19,7.85 9.84,12.54zM580.3,94.69l-3.75,2.17c-1.84,-3.24 -3.91,-6.31 -6.21,-9.2l3.4,-2.7c2.42,3.09 4.61,6.33 6.56,9.73zM559.8,85.72l5.27,9.61l-3.75,2.11l-5.33,-9.61zM543.63,98.26l-3.69,-2.23c2.07,-3.44 3.89,-7.01 5.45,-10.72l3.98,1.7c-1.64,3.87 -3.55,7.62 -5.74,11.25zM595.48,78.98c-0.08,0.98 -0.08,1.95 0,2.93c-1.8,-0.08 -3.61,-0.12 -5.45,-0.12h-45.41c-1.84,0 -3.67,0.04 -5.51,0.12c0.08,-0.98 0.08,-1.95 0,-2.93c1.84,0.08 3.67,0.12 5.51,0.12h20.86v-6.15h-15.7c-1.84,0 -3.67,0.04 -5.51,0.12c0.12,-0.98 0.12,-1.97 0,-2.99c1.84,0.08 3.67,0.12 5.51,0.12h15.7v-5.62h-19.63c0.51,-7.23 0.51,-14.45 0,-21.68h43.01c-0.47,7.23 -0.47,14.45 0,21.68h-19.45v5.63h15.47c1.8,0 3.61,-0.04 5.45,-0.12c-0.08,1.02 -0.08,2.01 0,2.99c-1.84,-0.08 -3.65,-0.12 -5.45,-0.12h-15.47v6.15h20.63c1.84,0 3.65,-0.04 5.45,-0.12zM584.93,45.59h-15.53v16.29h15.53zM565.48,61.88v-16.29h-15.64v16.29zM578.55,46.82c1.17,0.86 2.42,1.56 3.75,2.11c-1.56,2.97 -3.14,5.45 -4.75,7.44l-3.05,4.28c-0.98,-0.98 -2.15,-1.58 -3.52,-1.82c2.3,-3.24 4.82,-7.25 7.56,-12.01zM561.79,58.01l-3.87,1.88c-1.84,-3.75 -3.93,-7.36 -6.27,-10.84l3.63,-2.4c2.42,3.63 4.59,7.42 6.5,11.37z" />
</svg>