<svg xmlns="http://www.w3.org/2000/svg" viewBox="0 0 900 140" width="900" height="140">
	<style>
		tspan { white-space:pre }
		.shp0 { fill: #000000 } 
	</style>
	<path id="新叶念体 " class="shp0" d="M368,45.83c2.19,0.63 3.52,0.94 3.98,0.94c0.47,-0.31 0.86,-0.47 1.17,-0.47c0.78,0.16 1.25,0.23 1.41,0.23c0.63,-0.16 0.94,-0.23 0.94,-0.23c0.63,0.31 1.09,0.47 1.41,0.47c0,1.41 -1.09,2.11 -3.28,2.11c-1.09,0 -2.34,0 -3.75,0h-1.41c-1.56,0 -2.34,-0.55 -2.34,-1.64c0,-0.78 0.63,-1.25 1.88,-1.41zM375.97,51.69c0.31,0.16 0.47,0.39 0.47,0.7c0,0.31 -1.02,2.11 -3.05,5.39c-1.72,3.59 -2.58,6.25 -2.58,7.97h0.94c1.25,-1.09 2.66,-2.89 4.22,-5.39c0.16,-0.16 0.47,-0.23 0.94,-0.23h0.7c0.63,0 1.02,0.16 1.17,0.47c-0.16,1.09 -1.33,2.97 -3.52,5.63v0.47h0.7c1.56,0 2.34,0.23 2.34,0.7c-0.62,1.72 -1.64,3.05 -3.05,3.98c-0.62,0.94 -0.94,1.64 -0.94,2.11v1.64c0,0.16 0.16,0.23 0.47,0.23c4.38,-1.72 6.56,-2.89 6.56,-3.52v-4.92c0,-0.16 -0.08,-0.23 -0.23,-0.23l0.23,-0.47v-0.7l-1.41,-1.41v-0.23c0.78,-1.09 2.34,-3.36 4.69,-6.8c0.16,0 0.86,-0.86 2.11,-2.58c0.31,0 1.09,-0.78 2.34,-2.34h0.7v0.23l0.23,-0.23c0.94,0 1.41,0.55 1.41,1.64c0,0.47 -0.86,1.33 -2.58,2.58c-3.75,3.91 -5.62,6.09 -5.62,6.56v0.23c0.63,0 1.09,1.02 1.41,3.05c0,0.16 0,0.55 0,1.17v1.41c0,3.13 -0.23,5.16 -0.7,6.09l0.23,0.47c-0.16,0.16 -0.23,0.39 -0.23,0.7l0.23,0.94c-0.62,2.5 -1.09,3.83 -1.41,3.98c-0.31,0 -0.55,0.08 -0.7,0.23c-0.31,-0.31 -0.62,-0.47 -0.94,-0.47v1.17c0,0.94 -0.55,1.41 -1.64,1.41c-1.56,-1.72 -2.58,-3.12 -3.05,-4.22c0.31,-0.62 0.86,-0.94 1.64,-0.94c1.25,0 2.27,0.7 3.05,2.11l0.47,-3.28c-0.16,-0.31 -0.23,-0.86 -0.23,-1.64c-4.53,2.03 -6.8,3.44 -6.8,4.22c0,0.31 -0.08,0.63 -0.23,0.94c0.16,0.78 0.23,1.33 0.23,1.64c0,0.31 -0.08,0.7 -0.23,1.17c0.16,0.78 0.23,1.33 0.23,1.64l-0.23,1.41l0.23,0.94c-0.47,3.13 -1.25,4.69 -2.34,4.69c-0.94,0 -1.48,-0.39 -1.64,-1.17c0.16,-0.31 0.23,-0.62 0.23,-0.94v-3.75c0,-0.16 -0.08,-0.23 -0.23,-0.23l0.23,-0.23v-2.11c0,-2.19 -0.16,-3.28 -0.47,-3.28l-3.75,1.88c0.47,0.31 0.86,1.56 1.17,3.75c0.47,0.31 1.02,0.94 1.64,1.88v0.47c-0.16,0.31 -0.7,0.7 -1.64,1.17c-1.87,0 -3.28,-1.87 -4.22,-5.62c-0.16,-0.16 -0.31,-0.23 -0.47,-0.23c-3.12,1.09 -5.39,1.8 -6.8,2.11c-0.94,-0.31 -1.41,-0.7 -1.41,-1.17c0,-0.94 1.09,-1.8 3.28,-2.58c3.13,-1.87 5.78,-3.59 7.97,-5.16c0,-0.16 1.72,-1.72 5.16,-4.69c-0.31,0 -1.33,0.39 -3.05,1.17c-1.41,0.78 -2.42,1.17 -3.05,1.17c-0.78,-0.62 -1.17,-1.17 -1.17,-1.64c0,-0.47 1.02,-1.17 3.05,-2.11c0.31,-0.31 0.63,-2.58 0.94,-6.8c0.94,-2.81 1.64,-5 2.11,-6.56v-0.23h-0.23c0,0 -0.94,0.55 -2.81,1.64c-1.09,0.47 -2.11,0.7 -3.05,0.7c-0.31,0 -0.62,-0.55 -0.94,-1.64c0,-0.78 1.33,-1.56 3.98,-2.34c3.13,-1.87 6.09,-3.12 8.91,-3.75zM398,58.72c0.63,0 1.09,0.63 1.41,1.88c-0.94,0.94 -2.42,2.03 -4.45,3.28c-0.62,0.47 -0.94,0.78 -0.94,0.94c0.31,0.47 0.47,0.78 0.47,0.94c-0.31,1.72 -0.62,5.47 -0.94,11.25c0,0.31 0.08,1.02 0.23,2.11c-0.31,1.41 -0.62,3.36 -0.94,5.86l0.47,0.7c-0.31,2.81 -0.78,4.61 -1.41,5.39l0.47,0.47c-0.31,1.56 -0.94,2.34 -1.87,2.34l-0.7,-0.23v-0.23c0,-0.31 0.23,-0.94 0.7,-1.87c-0.16,-1.41 -0.23,-2.66 -0.23,-3.75v-0.47c0,-0.94 0.08,-1.72 0.23,-2.34l-0.23,-0.47c0.16,-5.94 0.47,-12.03 0.94,-18.28h-0.23c-0.31,0 -1.25,0.23 -2.81,0.7c-0.47,0 -1.09,-0.55 -1.87,-1.64v-0.47c0,-0.62 1.88,-1.41 5.63,-2.34c0.78,-0.62 1.95,-1.25 3.52,-1.87c0.47,-0.62 1.33,-1.25 2.58,-1.87zM367.53,78.17c0.16,0.16 0.31,0.23 0.47,0.23c1.72,-0.47 2.58,-0.94 2.58,-1.41v-1.17h-0.7c-1.25,0.94 -2.03,1.72 -2.34,2.34zM441.13,47.23c1.25,0 2.03,0.63 2.34,1.88c-0.16,2.81 -0.23,5.08 -0.23,6.8v1.17c0.94,0 1.88,-0.55 2.81,-1.64c1.25,0 1.88,0.55 1.88,1.64c0,0.63 -1.56,1.95 -4.69,3.98v0.7c-0.94,15.78 -1.41,26.09 -1.41,30.94c-0.47,0.78 -1.02,1.17 -1.64,1.17c-0.62,0 -1.33,-1.02 -2.11,-3.05c0,-1.56 0.39,-7.89 1.17,-18.98c-0.16,-2.66 -0.23,-4.45 -0.23,-5.39l0.23,-2.34c-0.16,-0.62 -0.23,-0.94 -0.23,-0.94c-0.78,0 -3.75,1.02 -8.91,3.05c-0.16,0.16 -0.62,0.23 -1.41,0.23l-1.41,-1.87v-0.47c0,-0.78 3.2,-2.19 9.61,-4.22c1.41,-0.31 2.27,-0.78 2.58,-1.41v-1.64c0,-5.31 0.55,-8.52 1.64,-9.61zM409.02,59.19c0.78,0 1.56,1.88 2.34,5.63c0.47,1.25 1.64,6.17 3.52,14.77c0,0.31 -0.31,0.63 -0.94,0.94h-0.23c-1.56,-0.78 -2.81,-2.89 -3.75,-6.33c-1.72,-7.03 -2.81,-11.41 -3.28,-13.12c0,-1.25 0.78,-1.87 2.34,-1.87zM424.48,59.89h0.23c1.72,0.31 2.58,1.09 2.58,2.34c-1.25,3.59 -2.89,7.27 -4.92,11.02c0,2.66 -1.56,4.77 -4.69,6.33c-1.56,-0.78 -2.34,-1.48 -2.34,-2.11c1.09,-1.09 2.73,-3.75 4.92,-7.97c2.19,-2.19 3.28,-4.14 3.28,-5.86c-0.31,0 -0.47,0 -0.47,0c-4.37,0.63 -6.56,0.94 -6.56,0.94h-1.17c-0.47,0 -1.41,-0.55 -2.81,-1.64v-0.94c0,-0.62 2.66,-1.09 7.97,-1.41c0,-0.47 1.33,-0.7 3.98,-0.7zM473,47.47c1.25,0 1.88,0.47 1.88,1.41c-0.79,3.47 -1.65,6.28 -2.57,8.43l1.63,-0.7c7.19,1.41 11.72,2.11 13.59,2.11c0.16,0 0.63,-0.16 1.41,-0.47c0.63,0.31 1.17,0.7 1.64,1.17c-0.47,1.41 -1.41,2.11 -2.81,2.11c-2.81,0 -4.61,-0.16 -5.39,-0.47c-0.16,0 -0.31,0.08 -0.47,0.23c-6.41,-1.41 -9.61,-2.42 -9.61,-3.05l0,-0.92c-0.53,1.23 -1.07,2.24 -1.64,3.03c-1.09,1.41 -2.97,3.67 -5.62,6.8c-3.59,4.06 -6.25,6.25 -7.97,6.56c-0.78,-0.31 -1.17,-0.62 -1.17,-0.94v-0.7c4.22,-3.59 7.73,-7.19 10.55,-10.78c2.03,-2.97 3.05,-4.69 3.05,-5.16c1.25,-3.44 1.88,-5.55 1.88,-6.33c0.31,-1.56 0.86,-2.34 1.64,-2.34zM472.77,62.94c2.03,0 3.75,0.94 5.16,2.81c-0.31,0.63 -0.47,1.25 -0.47,1.88h-1.17c-0.78,-0.47 -2.19,-1.02 -4.22,-1.64c-0.31,-0.47 -0.62,-0.7 -0.94,-0.7c0,-1.56 0.55,-2.34 1.64,-2.34zM481.91,68.8c0.31,0 0.94,0.31 1.88,0.94c0,2.34 -3.12,5.94 -9.37,10.78c-0.94,0.78 -2.11,1.64 -3.52,2.58c2.34,1.88 5.31,3.67 8.91,5.39c1.88,0.31 3.05,0.63 3.52,0.94h2.58c3.59,-0.94 5.39,-1.48 5.39,-1.64c0,-0.31 -1.02,-1.56 -3.05,-3.75v-1.17h1.88c0.94,0 3.05,1.56 6.33,4.69c-0.78,2.19 -1.95,3.28 -3.52,3.28c-3.12,1.25 -5.86,1.88 -8.2,1.88c-0.62,-0.16 -0.94,-0.23 -0.94,-0.23v0.23c-3.59,-0.47 -5.78,-1.09 -6.56,-1.87c-1.41,-0.31 -3.98,-1.95 -7.73,-4.92c-2.66,-1.09 -3.98,-2.03 -3.98,-2.81c0,-0.78 1.17,-1.25 3.52,-1.41c4.53,-3.28 7.27,-5.86 8.2,-7.73c0.27,0 0.7,-0.56 1.3,-1.69l-8.1,2.39c-0.31,0 -1.09,-0.55 -2.34,-1.64c0,-1.25 2.11,-2.19 6.33,-2.81c3.28,-0.94 5.78,-1.41 7.5,-1.41zM478.52,72.26l2.21,-0.65h-1.87c-0.12,0.24 -0.23,0.45 -0.34,0.65zM493.86,74.89c1.88,0.78 2.81,1.64 2.81,2.58c0,0.63 -0.39,1.09 -1.17,1.41h-0.23c-1.09,0 -2.42,-0.62 -3.98,-1.87v-0.94c0.78,-0.78 1.64,-1.17 2.58,-1.17zM480.5,78.64c0.47,0 1.02,0.23 1.64,0.7c0.31,0 0.7,-0.23 1.17,-0.7h0.94c0.63,0.31 0.94,0.86 0.94,1.64c-1.41,1.25 -2.73,1.88 -3.98,1.88h-0.23c-1.41,0 -2.19,-0.55 -2.34,-1.64c0,-0.78 0.63,-1.41 1.88,-1.87zM463.39,78.88c1.41,0 2.11,1.41 2.11,4.22c0,0.94 -0.31,2.66 -0.94,5.16h0.47c-1.56,3.13 -2.66,4.77 -3.28,4.92h-0.7l-0.94,-0.47l1.88,-8.67v-0.47c-0.16,-1.72 -0.39,-2.58 -0.7,-2.58c0.63,-1.41 1.33,-2.11 2.11,-2.11zM532.77,47.94c0.47,0 0.86,0.39 1.17,1.17c-0.16,2.19 -0.23,3.52 -0.23,3.98c0.47,0 0.94,-0.31 1.41,-0.94h0.94c0.47,0 0.78,0.55 0.94,1.64c0,0.47 -1.56,1.95 -4.69,4.45c-0.31,1.72 -0.62,2.81 -0.94,3.28v0.47h0.23c0.94,0 1.88,-0.23 2.81,-0.7c4.22,0.47 6.33,1.41 6.33,2.81v0.47c-0.94,1.41 -1.56,2.19 -1.87,2.34v0.47l0.7,1.17l-0.23,0.94c0.16,0.94 0.31,1.41 0.47,1.41l0.23,0.23l4.45,-1.17c0.63,0.47 1.17,1.02 1.64,1.64c0,1.25 -2.03,2.19 -6.09,2.81c-0.94,0.31 -1.41,1.17 -1.41,2.58c0,0.16 0.08,0.39 0.23,0.7c-0.31,11.88 -0.94,17.81 -1.87,17.81c0,0 0,0.16 0,0.47c-2.03,-0.47 -3.05,-0.94 -3.05,-1.41c0.63,-2.5 0.94,-3.98 0.94,-4.45c0,-0.47 0,-1.48 0,-3.05c0.16,-1.41 0.23,-2.11 0.23,-2.11h-0.47c0.47,-0.47 0.78,-1.64 0.94,-3.52c-0.31,-0.62 -0.47,-0.94 -0.47,-0.94c0.47,-1.72 0.7,-3.05 0.7,-3.98c0,-0.16 -0.16,-0.23 -0.47,-0.23c-0.62,0 -4.69,1.48 -12.19,4.45c-0.62,0 -1.09,-0.47 -1.41,-1.41l0.23,-1.64c0,0 -0.08,-0.31 -0.23,-0.94c2.97,-6.25 4.92,-11.25 5.86,-15c-0.31,0 -1.8,1.17 -4.45,3.52c-0.62,0.63 -0.94,0.78 -0.94,0.47c-0.94,-0.31 -1.41,-0.7 -1.41,-1.17v-0.23c0,-0.62 1.48,-2.27 4.45,-4.92c0,-0.31 1.25,-1.33 3.75,-3.05c0.63,-1.25 1.41,-3.98 2.34,-8.2c0.47,-0.16 0.94,-0.23 1.41,-0.23zM519.88,49.58c1.56,0.63 2.34,0.94 2.34,0.94c0,1.25 -2.73,5.78 -8.2,13.59v0.23c0.31,0.31 0.86,1.72 1.64,4.22l-0.23,0.94v0.23c0.31,1.09 0.47,1.72 0.47,1.88v2.58c0,0.16 0.08,0.23 0.23,0.23c-0.47,12.5 -1.25,18.75 -2.34,18.75h-0.94l-0.47,-2.58l0.23,-15.94c-0.16,-1.41 -0.23,-2.42 -0.23,-3.05l0.23,-1.41c-0.62,-1.41 -0.94,-2.11 -0.94,-2.11c-0.78,0 -2.11,1.56 -3.98,4.69c-0.62,0.63 -1.41,1.09 -2.34,1.41c-0.31,0 -0.62,0 -0.94,0v-0.7c0,-0.94 0.86,-2.34 2.58,-4.22c0,-0.16 1.88,-2.81 5.63,-7.97c3.28,-4.84 5.47,-8.59 6.56,-11.25c0.47,0 0.7,-0.16 0.7,-0.47zM530.19,64.11c-2.37,4.61 -4.13,8.67 -5.28,12.17c1.32,-0.29 4.57,-3.02 9.73,-8.18c1.41,-1.72 2.11,-2.66 2.11,-2.81v-0.7c0,-0.16 -0.78,-0.23 -2.34,-0.23c0,0 -0.16,0.16 -0.47,0.47l-1.41,-0.47c0,0.16 -0.31,0.23 -0.94,0.23c-0.78,-0.31 -1.25,-0.47 -1.41,-0.47zM524.91,76.28c-0.04,0.01 -0.07,0.01 -0.11,0.02h-0.47v1.88c0.17,-0.61 0.36,-1.24 0.58,-1.89zM532.53,72.78l0.23,0.23c2.34,-0.31 3.52,-0.94 3.52,-1.87v-1.41c0,-0.16 -0.16,-0.23 -0.47,-0.23v0.47c-1.72,1.88 -2.81,2.81 -3.28,2.81z" />
</svg>