<svg xmlns="http://www.w3.org/2000/svg" width="900" height="140" viewBox="0 0 900 140">
  <defs>
    <style>
      .cls-1 {
        fill-rule: evenodd;
      }
    </style>
  </defs>
  <path id="演示佛系体" class="cls-1" d="M255.89,27.041a0.744,0.744,0,0,0,.2.15,0.163,0.163,0,0,1,.1.15,1.041,1.041,0,0,0,1,.8,0.682,0.682,0,0,1,.5.2l0.9,1,1,0.4a21.808,21.808,0,0,0,1.4,2.4,4.86,4.86,0,0,1,.9,3,2.951,2.951,0,0,1-.3.75,3.6,3.6,0,0,0-.3.65l-0.1.1a2.254,2.254,0,0,0-.9.55,4.264,4.264,0,0,1-.9.65,0.406,0.406,0,0,1-.3.1c-0.267-.066-0.5-0.133-0.7-0.2s-0.4-.133-0.6-0.2a0.977,0.977,0,0,0-.7.2,3.191,3.191,0,0,1-2,1,0.975,0.975,0,0,0-.5.2,4.073,4.073,0,0,0,.3-1.4,3.056,3.056,0,0,0-.1-0.9,6.019,6.019,0,0,1-.6-2.1,14.815,14.815,0,0,1,.3-3.4,1.252,1.252,0,0,0,.1-0.55,2.363,2.363,0,0,1,.2-0.85,3.8,3.8,0,0,1,.2-0.5,1.157,1.157,0,0,1,.2-0.3,0.291,0.291,0,0,1,.2-0.1,0.088,0.088,0,0,0,.1-0.1q0.3-1.3.4-1.7h0Zm-18.8,29.2a4.167,4.167,0,0,1-.95.65,1.746,1.746,0,0,0-.85.85,0.483,0.483,0,0,1-.45-0.35,1.657,1.657,0,0,0-.25-0.45,4,4,0,0,0-.9-1.2l-0.1-.3a12.955,12.955,0,0,1-.6-2.3l0.1-2.5v-2.55a14.7,14.7,0,0,1,.5-3.95,0.407,0.407,0,0,0,.1-0.3,13.323,13.323,0,0,1,.6-1.8,1.667,1.667,0,0,1,.5-0.7,0.952,0.952,0,0,1,.8-0.4,1.082,1.082,0,0,1,.8.3,15.525,15.525,0,0,0,1.5,1.5,0.594,0.594,0,0,0,.5.25,0.988,0.988,0,0,0,.7-0.15,17.743,17.743,0,0,1,4.1-.8,4.228,4.228,0,0,0,1.7-.5q0.6-.1,1.25-0.15a5.125,5.125,0,0,0,1.25-.25q0.5-.1,1.5-0.2a5.772,5.772,0,0,0,1.5-.3,5.55,5.55,0,0,1,1.1-.2,8.245,8.245,0,0,0,1.7-.25,5.188,5.188,0,0,1,1.8-.15,6.592,6.592,0,0,0,2-.2h0.4l1.2-.2h0.5a9.156,9.156,0,0,0,1.3-.1,10.768,10.768,0,0,1,1.5-.1,18.27,18.27,0,0,0,2.3-.1l2.7-.1h3.1a1.608,1.608,0,0,1,.7-0.05,2.132,2.132,0,0,0,.8-0.05h2.4a19.425,19.425,0,0,0,2.4-.1h1.4q1.7-.1,5-0.1l1.6,0.1h0.4a1.508,1.508,0,0,1,.85.05,2.468,2.468,0,0,0,.75.15l1.6,0.1a6.448,6.448,0,0,0,1.5.1c0.066,0,.25-0.016.55-0.05a2.43,2.43,0,0,1,.85.05,1.516,1.516,0,0,1,1.2.6c0,0.2.066,0.3,0.2,0.3a1.561,1.561,0,0,1,.8.8,0.844,0.844,0,0,0,.5.3,1.179,1.179,0,0,1,.6.6,1.421,1.421,0,0,1-.4.5,3.623,3.623,0,0,0-.3.85,3.689,3.689,0,0,1-.3.85l-0.9,2.8a5.753,5.753,0,0,1-.4.85q-0.3.551-.5,0.85l-0.4.2a4.074,4.074,0,0,0-1.4.3q-2,.4-2.6.5a1.082,1.082,0,0,1-.8.3,1.105,1.105,0,0,1-.5-0.1,0.182,0.182,0,0,0-.25,0,0.483,0.483,0,0,1-.25.1,9.063,9.063,0,0,0-2,.7,6.644,6.644,0,0,1,.7-1.4,0.808,0.808,0,0,1,.05-0.25c0.033-.1.016-0.15-0.05-0.15l-1.1-4.5c0-.333-0.1-0.5-0.3-0.5h-2.7l-4.6.1a24.01,24.01,0,0,1-2.65.05q-1.151-.049-2.05-0.05h-3.4q-2.3,0-3.5.1a37.476,37.476,0,0,0-3.9.6q-1.4.1-4.1,0.1l-3.3.4-2-.1a40.965,40.965,0,0,0-6.2,1.2,5.379,5.379,0,0,1-1.55.45c-0.634.1-1.084,0.184-1.35,0.25a0.4,0.4,0,0,1-.4.2,0.785,0.785,0,0,0-.6.8q0,1.5-.2,4.5l-0.1,2a1.475,1.475,0,0,1-.7,1.4,0.743,0.743,0,0,1-.25.3,0.757,0.757,0,0,0-.25.3,2.05,2.05,0,0,1-.55.45,0.581,0.581,0,0,1-.45-0.35Zm-13.6-.7a2.749,2.749,0,0,0,.15.55,0.613,0.613,0,0,1-.45.75l-0.3.3v1.5q0.3,1.3-1.2,1.5a0.5,0.5,0,0,0-.25.1,0.483,0.483,0,0,1-.25.1q0.5,0.7-.4.8l-0.3.3a1.236,1.236,0,0,1-.5.3,4.8,4.8,0,0,0-1.4.8h-0.2l-1.8.3a1.6,1.6,0,0,1-.95-0.05,1.909,1.909,0,0,1-.55-0.85,2.458,2.458,0,0,0-.25-0.75,0.706,0.706,0,0,0-.65-0.25h-0.2q-0.5-1.2-.9-2a0.624,0.624,0,0,0-.5-0.5,1.6,1.6,0,0,1-1-1.5l0.1-.5a16.945,16.945,0,0,0,.2-2.3,2.473,2.473,0,0,0-.2-0.9q-0.2-.5-0.3-0.8l-1.3-2.1a0.578,0.578,0,0,1,.1-0.4,0.866,0.866,0,0,0,.4-0.7,1.125,1.125,0,0,0-.1-0.5,0.787,0.787,0,0,1,.3-1,1.143,1.143,0,0,0,.2-0.45,0.463,0.463,0,0,1,.5-0.35,2.218,2.218,0,0,1,1,.5,1.242,1.242,0,0,0,.3-0.55,0.374,0.374,0,0,1,.3-0.35,1.13,1.13,0,0,1,.5.1l-0.4-2.4a0.41,0.41,0,0,1,.3-0.1q1.5,1.2,1.6,1.3a1.11,1.11,0,0,1,.2.35q0.1,0.251.2,0.45a1.218,1.218,0,0,0,.55.8,4.971,4.971,0,0,1,.55.4l0.6,0.3a4.121,4.121,0,0,0,2.8,1.7,2.559,2.559,0,0,1,1.2.6,4.308,4.308,0,0,0,1.6.7,3.729,3.729,0,0,1,1.9.7,5.416,5.416,0,0,0,.6.35,5.68,5.68,0,0,1,.6.35,0.923,0.923,0,0,1,.7.6,1.731,1.731,0,0,1-.3.7l-0.1.2a0.868,0.868,0,0,1-.25.8,1.149,1.149,0,0,0-.35.6,0.636,0.636,0,0,1-.6.2,1.385,1.385,0,0,1-.7.05,0.94,0.94,0,0,0-.8.25h0Zm52.7-1.1a2.733,2.733,0,0,0,.7.8,8.134,8.134,0,0,1-1.6,1.2,0.224,0.224,0,0,1-.25.05,0.229,0.229,0,0,0-.25.05,0.479,0.479,0,0,0-.35.15,0.411,0.411,0,0,1-.25.15,0.675,0.675,0,0,1-.5.2c-0.467,0-.984-0.016-1.55-0.05a15.028,15.028,0,0,0-2.05.05q-2.4,0-6.8.2-2.3.3-8.2,1.1a40.129,40.129,0,0,0-4.1.7l-0.3.2a0.454,0.454,0,0,0-.25.25,0.174,0.174,0,0,1-.15.15,1.239,1.239,0,0,1-.9-0.4,4.567,4.567,0,0,0-1.5-.8,0.575,0.575,0,0,1-.4-0.1l-1-1a0.163,0.163,0,0,0-.1-0.15,0.454,0.454,0,0,0-.2-0.05,1.429,1.429,0,0,0-.8-1.2,2.962,2.962,0,0,1-.35-0.2,3.607,3.607,0,0,0-.35-0.2,4.435,4.435,0,0,1,.75-0.3,2.253,2.253,0,0,0,.65-0.3c0.266,0,.4-0.1.4-0.3a1.172,1.172,0,0,1,1-.4l3-.4h1l2.4-.3a5.06,5.06,0,0,0,.85-0.1,6.306,6.306,0,0,0,.85-0.2q0.6,0,2.6-.2,2.3,0,3.5-.1h0.1q0.4-.1,1.3-0.3a7.878,7.878,0,0,1,1.7-.2l3.8-.2,1.8-.1,2.4,0.2q1,0,3.4.2a8.163,8.163,0,0,0,1.7.5,0.327,0.327,0,0,1,.25.4,0.464,0.464,0,0,0,.05.4,0.862,0.862,0,0,0-.5.3,2.979,2.979,0,0,1-.65.2,3.9,3.9,0,0,1-.85.1h0Zm-2.1,22.7a2.624,2.624,0,0,1,.1.8,6.257,6.257,0,0,1-.1,1.2q-0.1.5-.2,0.9v0.6l-0.3,2.2a22.942,22.942,0,0,0-.6,4.3l-0.2,1.9q-0.1.3-.6,1.9a1.5,1.5,0,0,1-.8.5,2.771,2.771,0,0,1-1.2.2l-0.2.4a0.408,0.408,0,0,0-.1.3,1.828,1.828,0,0,1-1.1-.7,3.016,3.016,0,0,1-.9-0.1,1.709,1.709,0,0,1-.5-0.2,3.323,3.323,0,0,1-.8-0.5,2.277,2.277,0,0,0-.3.65,2.312,2.312,0,0,1-.3.65,0.548,0.548,0,0,1-.6.3,1.126,1.126,0,0,1-.45.2,0.633,0.633,0,0,0-.45.5,0.548,0.548,0,0,1-.6.3q-1.1.2-2.9,0.4-1.3.3-3.9,0.7a9.71,9.71,0,0,1-1.5.3,10.051,10.051,0,0,0-1.5.3,6.34,6.34,0,0,0-1.45.4c-0.5.2-.85,0.334-1.05,0.4a0.375,0.375,0,0,1-.35.05,2.182,2.182,0,0,0-.35-0.05h-0.4a1,1,0,0,1-1-.15,1.392,1.392,0,0,1-.6-0.95,1.423,1.423,0,0,0-.45-0.6,0.8,0.8,0,0,1-.35-0.5l-0.4.1a0.357,0.357,0,0,1-.35.15,0.962,0.962,0,0,1-.35-0.25,0.322,0.322,0,0,0-.3-0.2,0.577,0.577,0,0,0-.4.2,1.978,1.978,0,0,0-.25.35,0.421,0.421,0,0,1-.35.25l-0.3-.1-0.7-2.2-0.2-.8a0.675,0.675,0,0,1-.2-0.5v-4.5q0.1-.5.2-1.25a9.52,9.52,0,0,0,.1-1.15v-2a0.569,0.569,0,0,0,.05-0.4,0.471,0.471,0,0,0-.35-0.3,0.089,0.089,0,0,0-.1-0.1,1.354,1.354,0,0,1,.1-0.85,4.074,4.074,0,0,1,.4-0.85l0.2-.4,0.1-5.4a5.632,5.632,0,0,0-.4-1.2c0-.2-0.034-0.3-0.1-0.3a3.269,3.269,0,0,1,.4-0.5l0.4-.4a2.46,2.46,0,0,1,.9-0.5l0.6,0.2a0.959,0.959,0,0,0,.8.05,1.908,1.908,0,0,1,.6-0.15,8.868,8.868,0,0,1,1.95-1.15,16.384,16.384,0,0,1,2.15-.75q2.8-.7,3.4-0.8a0.46,0.46,0,0,0,.6-0.6l0.2-2.1q0.3-1.5.4-1.8a4.014,4.014,0,0,1,.1-1.1,8.589,8.589,0,0,1,.8-2.1,1.6,1.6,0,0,0,.25-0.45,0.549,0.549,0,0,1,.55-0.35,0.413,0.413,0,0,1,.3.1,1.475,1.475,0,0,1,.7.5,2.2,2.2,0,0,0,.8,1.1,2.425,2.425,0,0,1,.6,1.3v0.2a7.526,7.526,0,0,0-.1,1.4,5.4,5.4,0,0,0,.4,2.2l0.1,0.4a0.573,0.573,0,0,0,.05.55,0.775,0.775,0,0,0,.55.15q2.6,0,3.9.1a21.456,21.456,0,0,1,2.2.2l2.1,0.3a4.226,4.226,0,0,1,.95.4q0.549,0.3.85,0.5a1.676,1.676,0,0,1,.5.7,4.822,4.822,0,0,0,.5.7,1.869,1.869,0,0,1,.4,1.2v0.2a9.269,9.269,0,0,0,.5,3.3,3.611,3.611,0,0,1,.3.9,4.311,4.311,0,0,1,.1.7,0.679,0.679,0,0,1-.2.5h0Zm-65.7-.2,0.1-1.7a10.666,10.666,0,0,1-.25-1.5,4.206,4.206,0,0,0-.85-2.1,2.544,2.544,0,0,1-.7-1.7,3.249,3.249,0,0,1,.7-1.8,1.3,1.3,0,0,1,1.2-.7h0.5q0.8,0,.4-0.7a1.705,1.705,0,0,1-.1-0.7q-0.3-.8.8-0.8a1.55,1.55,0,0,1,1.3,1l0.3,1a3.048,3.048,0,0,0,2.6,1.7q4.1,0.7,5.7,1a9.81,9.81,0,0,1,1.9.4,2.721,2.721,0,0,1,.4.25c0.133,0.1.166,0.184,0.1,0.25a1.379,1.379,0,0,1-.5.9,4.353,4.353,0,0,0-1.2,1.3,0.99,0.99,0,0,1-.3.35,2.915,2.915,0,0,0-.3.25l-1.2,1.4a2.347,2.347,0,0,1-1.1.5,7.336,7.336,0,0,0-1.25.7,5.777,5.777,0,0,1-1.35.7,1.543,1.543,0,0,1-.65.1,2.434,2.434,0,0,0-.75.1,20.98,20.98,0,0,1-2.4.2h-0.5a6.639,6.639,0,0,0-.95-0.15,1.815,1.815,0,0,1-.85-0.25,0.573,0.573,0,0,0-.4-0.05,1.6,1.6,0,0,1-.4.05h0Zm59.5,1.4v-0.8a9.827,9.827,0,0,0,.1-1.55,9.722,9.722,0,0,1,.1-1.55,3.768,3.768,0,0,0-.05-1.35,6.32,6.32,0,0,1-.15-1.05,0.53,0.53,0,0,0-.6-0.6q-0.8,0-2.1-.05t-3-.25c-0.334,0-.5.234-0.5,0.7q-0.3,1.7-.7,5.1v0.6h1.2a9.708,9.708,0,0,1,1.5-.5l0.3,0.1a2.721,2.721,0,0,0,.3.25,0.663,0.663,0,0,0,.4.15,26.661,26.661,0,0,1,3.2.8h0Zm-12-6.1h-0.2l-2.3.9c-0.267.134-.517,0.25-0.75,0.35s-0.417.184-.55,0.25c-0.2.2-.417,0.434-0.65,0.7a1.488,1.488,0,0,1-.75.5,1,1,0,0,0-.35.3,0.43,0.43,0,0,1-.35.2,0.442,0.442,0,0,0-.5.5q0.1,0.7.5,2.6a0.68,0.68,0,0,0,.05.3,0.253,0.253,0,0,0,.25.1h1.9a3.3,3.3,0,0,1,1-.2,2.2,2.2,0,0,0,.7-0.1l1.8-.2q0.2-4.2.2-6.2h0Zm11.8,7.4-0.1-.1-0.4.4,0.3,0.4Zm-8.7,9.1a26.982,26.982,0,0,1,2.7-.1l2.4-.4h0.3l1.7,0.4a0.463,0.463,0,0,0,.5-0.3l0.1-1.4a6.035,6.035,0,0,1,.35-1.6,4.224,4.224,0,0,0,.25-1.8l0.1-.3,0.2-2.3h-0.8l-0.5.25a1.181,1.181,0,0,1-.5.15,43.506,43.506,0,0,1-4.3.7,0.643,0.643,0,0,0-.5.5l-0.5,2.8a4.755,4.755,0,0,0-.25.75,0.815,0.815,0,0,1-.65.65,0.285,0.285,0,0,0-.2.2,0.772,0.772,0,0,0-.1.3Zm-8.7-.4h0.2a1.1,1.1,0,0,0,.3.2,0.662,0.662,0,0,1,.3.3,1.06,1.06,0,0,0,.3.65,1.208,1.208,0,0,0,.7.15q0.8,0,3.4-.2,0.8,0,.5-0.9a0.584,0.584,0,0,0-.1-0.4,18.236,18.236,0,0,1-.7-4.7c0.066-.266-0.067-0.4-0.4-0.4l-4,.3a0.611,0.611,0,0,0-.45.15,0.413,0.413,0,0,0-.05.45v4.4Zm-46.8,4.5a1.316,1.316,0,0,0,.35-0.25,0.408,0.408,0,0,0,.15-0.25,8.373,8.373,0,0,1,1-.9l1.1-.6c0.2-.2.25-0.366,0.15-0.5a0.6,0.6,0,0,1-.15-0.3l1.5-1a1.274,1.274,0,0,1,.75-0.15,1.028,1.028,0,0,1,.65.45l0.1-.4,0.1,0.1a1.171,1.171,0,0,0,.6.6l1-.1,0.8-.1c0.133-.066.283-0.15,0.45-0.25a2.777,2.777,0,0,1,.55-0.25q1.3-.3,3.9-1.1a8.788,8.788,0,0,0,1.9-1.2l0.9-.7a8.576,8.576,0,0,1,.8,1.4l-0.4.7,0.8,0.5a0.29,0.29,0,0,0-.1.2,0.283,0.283,0,0,1-.2.2,0.743,0.743,0,0,1,.35.45,1.078,1.078,0,0,1-.05.55,6.628,6.628,0,0,1-.6,1.1,0.99,0.99,0,0,1-.3.35,2.915,2.915,0,0,0-.3.25,0.992,0.992,0,0,0-.15.7,5.405,5.405,0,0,1,.05.6,0.89,0.89,0,0,0,.15.45,0.29,0.29,0,0,1,.05.35l-1,1a1.13,1.13,0,0,0-.5.4,3.655,3.655,0,0,1-1.4,2.4,6.788,6.788,0,0,0-.7.4,6.336,6.336,0,0,1-.7.4l-1.8.7a0.844,0.844,0,0,0-.7.5q-0.1.4-.8,0.3c-0.134-.066-0.334-0.15-0.6-0.25a2.039,2.039,0,0,0-.7-0.15l-0.5.2c0,0.067-.05.1-0.15,0.1s-0.15-.033-0.15-0.1a1.7,1.7,0,0,0-.8-0.35,5.448,5.448,0,0,0-.6-0.05,1.642,1.642,0,0,1-.8-0.55,1.41,1.41,0,0,1-.4-0.95c0-.133-0.017-0.366-0.05-0.7a0.819,0.819,0,0,0-.45-0.7v-0.2a1.2,1.2,0,0,0-.9-1.3l-2.1-1.5-0.2-.5h0.1Zm51.5,21.4a0.622,0.622,0,0,0-.25-0.15,0.457,0.457,0,0,1-.25-0.25,0.71,0.71,0,0,1-.7.5,1.659,1.659,0,0,1-.65-0.15,1.662,1.662,0,0,0-.65-0.15l-0.1.9a0.578,0.578,0,0,1-.1-0.4,3.526,3.526,0,0,0-.9-2.1,2.388,2.388,0,0,1-.8-1.7,2.771,2.771,0,0,1,.2-1.2q0.1-.5.25-1.45a13.866,13.866,0,0,1,.35-1.65l0.4-1.7,0.5-1.3a0.691,0.691,0,0,1,.4-0.3,3.419,3.419,0,0,1,.5-1q0.2-.2.6-0.7l0.4-.2a1.374,1.374,0,0,1,1.1.8,6.663,6.663,0,0,0,2.1,3.5,3.513,3.513,0,0,1,.85,1.15,5.222,5.222,0,0,0,.75,1.15v0.1q-0.1.6-.3,1.85a6.551,6.551,0,0,1-.7,2.15v0.3a14.722,14.722,0,0,1-.7,1.8q-0.2.5-.6,0.2a1.754,1.754,0,0,1-.5-0.2,0.746,0.746,0,0,0-1.2.2h0Zm12.3-.7a0.929,0.929,0,0,0-.5-0.6,2.2,2.2,0,0,0-.8.3,2.549,2.549,0,0,1-.6.3,1.158,1.158,0,0,0-.5.7,0.583,0.583,0,0,1-.4.1,0.7,0.7,0,0,0-1,.2q-0.4.6-.9,0-0.3-.5-1.1-1.75a6.561,6.561,0,0,1-1-2.55,7.5,7.5,0,0,1-.2-2.1,0.576,0.576,0,0,1,.5-0.8,0.9,0.9,0,0,0,.4-0.1,0.759,0.759,0,0,1,.3-0.1l0.7,0.1a0.4,0.4,0,0,1,.2-0.4h0.2l2.1,1.8,1.4,0.8,0.4,0.4a0.534,0.534,0,0,0,.4.3,1.352,1.352,0,0,1,.6.9,1.721,1.721,0,0,0,.4,1.1,1.544,1.544,0,0,1,0,.8,2.43,2.43,0,0,1-.6.6h0Zm105.2-78-0.6.3a10.234,10.234,0,0,1-2.5,1.1h-0.5a0.963,0.963,0,0,0-.7.8,1.352,1.352,0,0,1-.8,1.3,0.894,0.894,0,0,0-.8.9l0.1,0.3a0.407,0.407,0,0,1,0,.4,1.638,1.638,0,0,0-.1.5l0.1,0.7a2.425,2.425,0,0,0-.6,1.3l0.1,0.4a0.176,0.176,0,0,1-.2.2,1.6,1.6,0,0,0-.2.25,0.328,0.328,0,0,0-.05.3,2.144,2.144,0,0,0,.25.45l-0.2.1-1.7.7h-0.3a2.742,2.742,0,0,1-1.4.5,5.4,5.4,0,0,1-1.2-.2h-0.3a27.023,27.023,0,0,1-2.7.4,1.794,1.794,0,0,0-.65.1c-0.167.067-.317,0.134-0.45,0.2h-2.4a1.172,1.172,0,0,0-.35.1,0.317,0.317,0,0,1-.35,0q-0.5-.1-0.7.7a0.354,0.354,0,0,1-.3.3l-1.5.25a9.428,9.428,0,0,1-1.5.15,6.586,6.586,0,0,1-1.25-.15q-0.75-.15-1.35-0.25l-0.8.1h-0.55a1.88,1.88,0,0,0-.85.2c0,0.067-.067.1-0.2,0.1h-3.2a16.417,16.417,0,0,0-2.1-.2,1.626,1.626,0,0,0-.8,0,4.263,4.263,0,0,1-.8.1l-1.1-.3-1.4-.2a3.07,3.07,0,0,0-.9-0.1,1.561,1.561,0,0,0-.65-0.05,2.007,2.007,0,0,1-.35.05,15.037,15.037,0,0,1-2,.1l-0.4.2a1.322,1.322,0,0,1-1.3-.1c-0.4-.266-0.767-0.5-1.1-0.7s-0.6-.366-0.8-0.5a7.452,7.452,0,0,1-1.3-1.1l-1.2-1.7-0.2-.2a0.729,0.729,0,0,1-.6-0.7,0.669,0.669,0,0,0-.15-0.4,3.143,3.143,0,0,0-.25-0.3,2.467,2.467,0,0,1-.6-1.4v-0.3l0.3-1.2a0.8,0.8,0,0,0-.1-0.5,7.352,7.352,0,0,1-1.7-4,0.412,0.412,0,0,0-.1-0.3,1.168,1.168,0,0,1,.05-1,1.4,1.4,0,0,1,.75-0.7c0.133,0,.2-0.1.2-0.3a0.6,0.6,0,0,0,0-.5l0.1-.4a0.9,0.9,0,0,0,.7-0.35,1.866,1.866,0,0,1,.5-0.45,2.287,2.287,0,0,1,1.3-.5,1.64,1.64,0,0,1,1,.6,6.878,6.878,0,0,0,2.9,1.2,27.709,27.709,0,0,0,3.9.2h3a26.48,26.48,0,0,0,2.7-.2h2.7l2.5-.1q1.5-.1,4.5-0.1a7.068,7.068,0,0,1,1.45-.05,6.851,6.851,0,0,0,1.45-.05h5.3a10.358,10.358,0,0,1,2.2.2,9.726,9.726,0,0,0,1.75.3q1.05,0.1,1.75.2a31.641,31.641,0,0,1,3.5.5,10.748,10.748,0,0,1,2.2.6l0.9,0.8,0.9,0.6,1.8,0.6a0.567,0.567,0,0,1,.3.2h0Zm19.9,15.3a0.636,0.636,0,0,1-.2.6,0.57,0.57,0,0,0,.1.9l-0.4.2a1.575,1.575,0,0,0-.4.3,0.578,0.578,0,0,0-.1.4,0.413,0.413,0,0,1,.3.1h0.4v0.1l-0.4.2a2.047,2.047,0,0,0-1.2.9,2.824,2.824,0,0,1-.5.6l-0.2-.1,0.4,1.4-1.5.6q-0.6.1-.3,0.7v0.1h-0.1a4.175,4.175,0,0,1-.4.6,1.113,1.113,0,0,1-.9.6,0.426,0.426,0,0,0-.4.4l-0.3.7a1.95,1.95,0,0,0-.15.4,0.558,0.558,0,0,0,.05.4,0.606,0.606,0,0,1,0,.9,3.891,3.891,0,0,0-.5,1.4v0.2a1.212,1.212,0,0,1-.3,1.05,2.269,2.269,0,0,1-1,.65,19.127,19.127,0,0,0-2,.8,12.981,12.981,0,0,0-1.8.4l-1.2.4a0.8,0.8,0,0,0-.5.1l-0.8.2a25.167,25.167,0,0,1-2.6.1q-1.9.3-2,.3a33.048,33.048,0,0,1-5.4.5h-2.9l-2.9.1h-5a6.054,6.054,0,0,0-1,.2l-0.1,1a13.873,13.873,0,0,0,.05,2.6q0.15,1.5.15,2.2a9.2,9.2,0,0,0,.2,1.8q0.2,1,.3,1.4a17.441,17.441,0,0,0,.4,2.5l0.3,1.7,0.2,2.6,0.1,2a1.705,1.705,0,0,0,.1.7q0.1,0.8.2,1.85t0.1,2.55l-0.1,2,0.1,2.9v2.1a12.616,12.616,0,0,1,.2,2,5.547,5.547,0,0,1-.2,1.1l-0.1,1.7a2.158,2.158,0,0,1-.05.35,0.309,0.309,0,0,1-.35.25c-0.067,0-.1.066-0.1,0.2l-0.2.3a0.462,0.462,0,0,0-.5.35,2.217,2.217,0,0,0-.1.45l-0.4,1.6a0.709,0.709,0,0,1-.6.6l-0.5.5-0.9,1.1a0.6,0.6,0,0,1-.8,0,0.725,0.725,0,0,0-1,0l-0.6.6a0.418,0.418,0,0,1-.4.15,0.447,0.447,0,0,1-.3-0.25,20.751,20.751,0,0,0-1.1-2.5,9.889,9.889,0,0,1-1-3,56.58,56.58,0,0,1-.4-7,12.927,12.927,0,0,0-.1-1.9l-0.3-4.8-0.2-7.2a37.884,37.884,0,0,0-.3-4.7,21.319,21.319,0,0,0-.2-2.4l-0.3-2.4a12.772,12.772,0,0,1-.1-1.9l-0.1-.7a11.884,11.884,0,0,1-.2-1.7,2.033,2.033,0,0,0-.1-0.9,2.038,2.038,0,0,0-.9-0.1l-3.5.1a10.286,10.286,0,0,1-1.55-.1q-0.651-.1-1.15-0.2l-1.8-.2q-0.8,0-1.95-.05t-2.75-.25a12.177,12.177,0,0,1-1.7-.1,10.915,10.915,0,0,1-1.1-.2q-2-.2-3-0.2a26.982,26.982,0,0,0-2.7.1l-2.7.1-3.4-.4-2.5-.2h-0.8a4.712,4.712,0,0,0-1.95.3,6.826,6.826,0,0,1-1.85.4,3.016,3.016,0,0,1-.9-0.1,3.383,3.383,0,0,1-1.9-.9l-0.9-.6-0.5-.5-0.1-.2-1.2-.6a0.752,0.752,0,0,1-.35-0.2,0.441,0.441,0,0,1-.05-0.6,2.093,2.093,0,0,0,0-1.3,3.689,3.689,0,0,1-.1-0.9v-0.7a5.51,5.51,0,0,0-.2-1.2l-0.5-1.4a0.706,0.706,0,0,1-.1-0.6,3.62,3.62,0,0,1,1.2-2,0.584,0.584,0,0,1,.4-0.1,3.016,3.016,0,0,0,.9.1,2.121,2.121,0,0,0,1.1-.2,0.334,0.334,0,0,1,.5.05,4.259,4.259,0,0,0,.3.35,2.061,2.061,0,0,0,1.9.8l4.2-.3h3.2a11.846,11.846,0,0,0,1.7-.2l2,0.1h0.4a3.282,3.282,0,0,1,1.8-.4h0.7a8.459,8.459,0,0,1,1.5-.2,4.8,4.8,0,0,1,1.1-.1l0.9-.1,4.7-.3q2.6,0,3.9-.1l2.4-.3a4.575,4.575,0,0,1,1.15-.05,4.431,4.431,0,0,0,1.15-.05,3.475,3.475,0,0,0,1.1-.2l0.3-.1,3.1-.1,2.1-.2,3.4-.4q2-.1,6-0.5l3.5-.4,4.6-.5q3.4-.4,5.1-0.5,4-.4,6-0.5,2.6-.2,4-0.2a20.563,20.563,0,0,1,2.4-.05c0.666,0.034,1.233.05,1.7,0.05h2.1l2.1,0.1a3.183,3.183,0,0,1,.4.05,0.521,0.521,0,0,1,.4.45l0.5,0.1a2.347,2.347,0,0,0,1.1-.5l0.4-.1a0.089,0.089,0,0,1,.1.1h0Zm-73.5,49.3v-0.6l0.6-1a0.34,0.34,0,0,0,.1-0.25,0.339,0.339,0,0,1,.1-0.25,6.056,6.056,0,0,1,.7-1.3,4.641,4.641,0,0,0,.8-1.2l0.9-1.8,0.5-1.2a3.678,3.678,0,0,1,1.6-1.6,6.636,6.636,0,0,1,1.4-.7l0.6,0.1a0.789,0.789,0,0,0,.5-0.1,0.832,0.832,0,0,1,.75-0.55c0.366-.033.616-0.05,0.75-0.05a0.78,0.78,0,0,0,.7-0.3,1.483,1.483,0,0,1,1-.7,3.1,3.1,0,0,0,1.6-1,2.864,2.864,0,0,1,.6-0.5,6.621,6.621,0,0,0,2.3-1.1,3.51,3.51,0,0,1,.8-0.5,17.684,17.684,0,0,0,1.8-1h0.1a1.333,1.333,0,0,0,.95-0.2,1.988,1.988,0,0,1,.85-0.3,0.585,0.585,0,0,1,.4.1c0.066,0.067.116,0.084,0.15,0.05a0.2,0.2,0,0,1,.15-0.05,1.548,1.548,0,0,1,.6.2,1.679,1.679,0,0,1,.25.5,0.755,0.755,0,0,0,.45.5l0.1,0.2a2.314,2.314,0,0,0,.9,1.8,23.421,23.421,0,0,1,2,3,0.888,0.888,0,0,0,.3.45,1,1,0,0,1,.3.35l0.3,0.8-0.1.5a1.142,1.142,0,0,1-.2,1,4.464,4.464,0,0,1-1.1.7,4.961,4.961,0,0,0-1.6,1.1,1.662,1.662,0,0,1-.7.5l-0.6.3a1.265,1.265,0,0,0-.5.3,1.236,1.236,0,0,1-.5.3,6.168,6.168,0,0,0-1.25.6,3.614,3.614,0,0,1-1.15.5,5.3,5.3,0,0,0-1.15.4c-0.434.2-.75,0.334-0.95,0.4l-0.6.1-2,.3-0.3-.1-0.3-.1a2.68,2.68,0,0,1-1.4.05,3.585,3.585,0,0,0-1.3-.05,1.71,1.71,0,0,1-.7.1l-1.4-.3-3-.3h-0.1l-1.5.3a4.871,4.871,0,0,0-1.75.55,20.183,20.183,0,0,0-1.75,1.05h0Zm67.8-1-2,.2-0.6.1a0.343,0.343,0,0,1,.1.25,0.336,0.336,0,0,0,.1.25,0.482,0.482,0,0,0,.1.25,0.824,0.824,0,0,1,.1.45,0.434,0.434,0,0,1-.2.35,0.52,0.52,0,0,1-.5.05h-0.2q-0.8,0-.8.4a1.111,1.111,0,0,0,.1.5,16.546,16.546,0,0,1-1.9.2l-0.3.4,0.3,0.2v0.1h-0.2a3.829,3.829,0,0,0-1.35.05,2.866,2.866,0,0,1-1.45-.05,10.27,10.27,0,0,1-2.5-1.1l-2.2-1.2-2.2-1.4a5.581,5.581,0,0,0-2.3-1.1,0.6,0.6,0,0,1-.4-0.4,8.314,8.314,0,0,0-.7-1.2l-1.8-2.7a3.819,3.819,0,0,1-.5-1.5q-0.2-.8-0.4-2a0.408,0.408,0,0,1,.1-0.3q0-.8.6-0.3,0.4,0.3.5-.1a0.946,0.946,0,0,1,.3-0.4,0.34,0.34,0,0,0,.1-0.25,0.339,0.339,0,0,1,.1-0.25l0.8,0.4a0.844,0.844,0,0,1,.7-0.5,1.956,1.956,0,0,1,1,.4l3.5,1.4,0.8,0.2,2.5,1.5c0.133,0.067.283,0.134,0.45,0.2s0.35,0.134.55,0.2q3,1.6,3.4,1.8t2.5,1.3q1.2,0.7,1.4.8a2.467,2.467,0,0,1,1,.9,8.711,8.711,0,0,0,.9,1.1,6.389,6.389,0,0,1,.5.8h0Zm25.6-51.7a3.589,3.589,0,0,1-1.8-.4,2.406,2.406,0,0,0,.3-0.8,2.419,2.419,0,0,0-.3-0.8,2.122,2.122,0,0,1-.2-1.1,4.531,4.531,0,0,0-1-3.2,5.474,5.474,0,0,1-.4-2.5,2.182,2.182,0,0,0-.9-1.8,1.681,1.681,0,0,1-.7-1.6v-1.2l0.9-3.3a0.7,0.7,0,0,1,.35-0.15,0.693,0.693,0,0,1,.45.05q0.9,0.2.9-.9,0.2,0.2.6,0.55a1.922,1.922,0,0,0,.8.45,1.412,1.412,0,0,0,.8.2l1.2,0.4a1.993,1.993,0,0,1,.7.5,1.093,1.093,0,0,0,.7.4l0.6-.1q2.6-.8,4.1-1.4a4.982,4.982,0,0,1,1-.45,5.871,5.871,0,0,0,1.3-.65q2.4-.7,6.5-1.5h0.1a2.357,2.357,0,0,1,1-.3,8.5,8.5,0,0,1,1.4.2q0.6,0.1,1.6.3a8.8,8.8,0,0,0,1.7.2,1.724,1.724,0,0,1,1.1.9,3.16,3.16,0,0,1,.5,1.7v0.55a0.87,0.87,0,0,0,.5.75,4.332,4.332,0,0,1-.45.85,1.857,1.857,0,0,0-.35.95,1.142,1.142,0,0,0,.5.9l-0.2.4q-0.7.4,0,.9a0.82,0.82,0,0,1,.3.5,1.731,1.731,0,0,1-.3.7,0.3,0.3,0,0,0-.05.3,1.408,1.408,0,0,1,.05.3l0.1,0.1q-1.7,1.4-1.6,1.3a7.827,7.827,0,0,1-2,1.5,0.52,0.52,0,0,0-.1.5,0.717,0.717,0,0,1-.4.8l-1.3.5-0.2.2a5.579,5.579,0,0,1-2.6,2.5,2.565,2.565,0,0,0-.6.3,2.446,2.446,0,0,1-.6.3,15.683,15.683,0,0,1-3.9,1.7,3.32,3.32,0,0,1-1.8.5,16.369,16.369,0,0,1-2.6.5q-0.7.1-1.35,0.25c-0.434.1-.884,0.184-1.35,0.25a0.443,0.443,0,0,1-.05.2,0.69,0.69,0,0,0-.05.3,1.245,1.245,0,0,0-.45.1,0.317,0.317,0,0,1-.35,0,1.524,1.524,0,0,1-1.1-.5,0.491,0.491,0,0,1-.5-0.6l-0.1-.6a1.578,1.578,0,0,0-.4-0.6v-0.3Zm54.7,62.6a0.318,0.318,0,0,0-.3.2,0.88,0.88,0,0,0-.1.4l-0.4.6a1.15,1.15,0,0,0-.3-0.2,0.651,0.651,0,0,1-.3-0.3,4.743,4.743,0,0,1-.7-1.3q-0.1-.4-0.2-1.05a6.971,6.971,0,0,1-.1-0.95l-0.3-5.9q-0.1-2.9,0-5.7l0.3-4.8q0.4-5.6.4-8.3v-2.4l0.1-4.2v-0.6l-1.3.2q-4,.6-6,1a0.4,0.4,0,0,0-.4.5q0,0.4-.05,1.05a11.442,11.442,0,0,1-.25,1.55q-0.2.9-.4,2.2a7.239,7.239,0,0,1-.6,2.1,11.447,11.447,0,0,0-.4,1.75q-0.1.75-.2,1.25a3.9,3.9,0,0,1-.5,1.1,0.707,0.707,0,0,0-.1.6,12.915,12.915,0,0,1-2.1,2.3,22.828,22.828,0,0,1-2.2,2,6.665,6.665,0,0,1-3.8,1.7h-0.5a8.394,8.394,0,0,0-1.5-.1,2.978,2.978,0,0,1-1.8-.4,0.575,0.575,0,0,1-.4-0.1,1.486,1.486,0,0,1-1.2-.7,0.424,0.424,0,0,0-.25-0.35,1.873,1.873,0,0,1-.35-0.25l-0.7-.7-0.9-1.2-0.3-.2a2.713,2.713,0,0,1,.7-0.6,4.258,4.258,0,0,1,.7.2q0.3,0.1,1.15.3a6.752,6.752,0,0,0,1.55.2,9.776,9.776,0,0,0,4.9-1,10.6,10.6,0,0,0,1.5-1.3,1.855,1.855,0,0,0,.9-1.3v-1.6q0.1-2.2.1-6.5v-0.6a8.632,8.632,0,0,0-1.8.6l-3.2,1.2-2.1.7a7.31,7.31,0,0,1-.8.45q-0.5.251-1,.55a3.147,3.147,0,0,1-1.7.5,5.555,5.555,0,0,1-1.3-.2,2.636,2.636,0,0,0-.8-0.1v0.1q-0.7-2.1-1.1-3.7a0.244,0.244,0,0,1,0-.3,0.891,0.891,0,0,0,.1-0.4q0.2-.9.5-2.45a7.868,7.868,0,0,1,.9-2.55q0.6-1.1,2-3.3a1.918,1.918,0,0,1,.9-0.5,9.065,9.065,0,0,1,.6,3.2q0,1.4-.1,2.4t-0.2,1.6l1.9-.6,7-2.6a0.708,0.708,0,0,0,.5-0.7v-9.8l-1.8.3-9.7,2.3a12.38,12.38,0,0,0-1.75.6q-0.951.4-1.35,0.6a1.217,1.217,0,0,0-.8.7,1.007,1.007,0,0,1-1.2.3,0.427,0.427,0,0,1-.2-0.05,0.707,0.707,0,0,0-.3-0.05l0.6-.2a0.541,0.541,0,0,0-.5-0.35,1.906,1.906,0,0,1-.6-0.15c-0.2-.066-0.4-0.133-0.6-0.2a2.446,2.446,0,0,1-.6-0.3,0.406,0.406,0,0,0-.2-0.5,2.846,2.846,0,0,1-.4-0.3,4.189,4.189,0,0,0-.65-0.75,1.719,1.719,0,0,1-.55-1.25l0.1-.5a0.228,0.228,0,0,0,.05-0.25,0.174,0.174,0,0,0-.15-0.15,1.738,1.738,0,0,0-.7-0.1l-0.6.2,0.2-.6,0.1-.7a0.578,0.578,0,0,1,.1-0.4,2.4,2.4,0,0,1,1.9-.8,3.552,3.552,0,0,1,1,.1,0.45,0.45,0,0,0,.5.1l5.1-1.3a20.628,20.628,0,0,1,2.7-.55,17.094,17.094,0,0,0,2-.35l3.4-.6q3.4-.6,4.7-0.8a0.555,0.555,0,0,0,.5-0.6l0.3-6.3a0.361,0.361,0,0,0-.5-0.4,18.241,18.241,0,0,0-2.6.7l-1.7.7a9.431,9.431,0,0,1-1.5.5h-0.2a1.326,1.326,0,0,0-.8.05,1.92,1.92,0,0,1-.6.15,2.565,2.565,0,0,0-.6.3,0.964,0.964,0,0,1-.5.2,1.822,1.822,0,0,0-.85,0,1.779,1.779,0,0,1-.85,0l-1-.6a15.821,15.821,0,0,0-1.7-.9,0.957,0.957,0,0,0-.55-0.05,1.382,1.382,0,0,1-.65-0.05h-0.5a1.114,1.114,0,0,0,.5-0.6,0.511,0.511,0,0,0-.5-0.5,2.459,2.459,0,0,1-1.3-1.3q-0.1-.2-0.35-0.6a1.369,1.369,0,0,1-.25-0.7v-0.3l-0.2-.2-0.4-.2q-0.8-.3-0.6-0.6a1.2,1.2,0,0,1,.8-0.8,3.148,3.148,0,0,1,.65-0.2,3.506,3.506,0,0,1,.65-0.1h0.1q0.9-.2,2.45-0.6a16.138,16.138,0,0,0,2.65-.9,37.36,37.36,0,0,1,9.2-3.4,4.243,4.243,0,0,1,.8-0.25,3.2,3.2,0,0,1,.5-0.05c0.666-.066,1-0.3,1-0.7a1.236,1.236,0,0,0-.3-0.7,1.51,1.51,0,0,1-.3-0.4c-0.067-.133-0.134-0.266-0.2-0.4l-0.6-.7a0.783,0.783,0,0,1-.2-1.3,1.035,1.035,0,0,1,.9-0.3l1.4-.1a4.8,4.8,0,0,1,1.1-.1h0.5l1.2,0.1a7.341,7.341,0,0,1,3.2,1.1,1.36,1.36,0,0,1,1,1.3,0.491,0.491,0,0,0,.5.6h0.3l6-.6a2.9,2.9,0,0,0,.4-0.05,0.568,0.568,0,0,0,.4-0.2,1.072,1.072,0,0,0,.1-0.55l-0.1-3.2a0.393,0.393,0,0,0-.3-0.4,0.177,0.177,0,0,1-.2-0.2,7.593,7.593,0,0,0-.55-0.9,6.608,6.608,0,0,1-.65-1.2,0.841,0.841,0,0,1-.1-0.65,0.591,0.591,0,0,1,.5-0.15h0.3q0.4,0.1,1.7.5h0.4a3.528,3.528,0,0,1,2,.6q0.4,0.2.85,0.4t0.85,0.4l1.4,0.9a3.28,3.28,0,0,1,1.2,1.3,0.407,0.407,0,0,1,0,.4,1.638,1.638,0,0,0-.1.5l0.3,2.2c0,0.134.166,0.2,0.5,0.2q0.6,0,1.6.05t2.3,0.25a62.469,62.469,0,0,1,6.4,1.1,12.328,12.328,0,0,1,2.9.9l3.9,1.9a9.244,9.244,0,0,1,1.2.8,0.089,0.089,0,0,1,.1.1,2.16,2.16,0,0,0,.8,1.1,2.345,2.345,0,0,1,.8,1v0.4q-0.6,1.3-.95,2.3t-0.55,1.6a1.961,1.961,0,0,0-.5.7l-0.2.1a2.249,2.249,0,0,1-.55.9,7.72,7.72,0,0,0-.65.8,1.084,1.084,0,0,1-.55.55,1.633,1.633,0,0,1-.75.25h-0.1l-1.3,1.2h-0.2a0.654,0.654,0,0,0-.5,0,4.1,4.1,0,0,0-.5.2l-1.6.5a3.785,3.785,0,0,0-1.2.8,3.739,3.739,0,0,0,1-2.6,12.062,12.062,0,0,0-.2-1.7l-0.3-2.8a0.288,0.288,0,0,1-.2.1,0.089,0.089,0,0,0-.1.1,1.14,1.14,0,0,1-.9.8l-0.6-.1q-4.3-.9-5.9-1.1a14.974,14.974,0,0,0-2.1-.1h-2.2a0.667,0.667,0,0,0-.8.7q-0.3,1.7-.4,3t-0.2,2.1v1.6a0.353,0.353,0,0,0,.4.4h2.6a25.634,25.634,0,0,1,2.6.1l2.1,0.2q2.6,0.2,3.9.4a2.423,2.423,0,0,1,1.3.6c0.2,0.134.2,0.3,0,.5l-0.4.2c-0.267.134-.267,0.3,0,0.5q0.5,0.4-.1.8l-0.3.3a0.391,0.391,0,0,1-.3.4,1.618,1.618,0,0,1-.4.1l-3.1.4-0.5.3a2.339,2.339,0,0,0-.4.6h-0.2l0.6,0.3a4.336,4.336,0,0,1-2.1.4q-1.3,0-3.7-.2h-1.8a0.354,0.354,0,0,0-.3.3l-0.3,8.6,2.4-.2q1.1-.1,3.2-0.1a42.08,42.08,0,0,1,6.1.4q2.4,0.4,3.6.7a23.8,23.8,0,0,1,2.9.8l1.5,0.5a2.448,2.448,0,0,1,1.4,2.2v0.3a6.078,6.078,0,0,1-.2,1.8,18.316,18.316,0,0,1-1.4,3.4l-2.1,3.3q-0.8,1.4-1.3,2.1l-0.7.8q-0.1.2-.2,0.45t-0.2.45a16.88,16.88,0,0,0-1.7,1.9,5.62,5.62,0,0,1-1.35,1.3,19.142,19.142,0,0,1-1.75,1.1,9.009,9.009,0,0,1-4,1.4,16.34,16.34,0,0,0-2.1.1h-0.2a2.361,2.361,0,0,0-1-.3,2.862,2.862,0,0,0-.95.2,7,7,0,0,1-1.05.3,0.9,0.9,0,0,0-.4.1,0.765,0.765,0,0,1-.3.1c-0.467-.066-0.7.1-0.7,0.5a4.512,4.512,0,0,0,.05.65,2.593,2.593,0,0,1-.05.85l-0.1,2.2a5.939,5.939,0,0,0-.1,1.3,17.166,17.166,0,0,0,.1,2.2q0,0.5-.05,1.25a10.583,10.583,0,0,0,.05,1.75,3.121,3.121,0,0,0,.1.85,2.741,2.741,0,0,1,.1.75,7.879,7.879,0,0,1,0,2.5q0,0.2-.6,2.5l-0.4.5a0.293,0.293,0,0,1-.2.1,0.088,0.088,0,0,0-.1.1,1.157,1.157,0,0,1-1.3.7,0.553,0.553,0,0,0-.3.2q-0.8.7-1.3-.3Zm-0.4-62.9a12.971,12.971,0,0,0-1.9.1l-2.9.2a6.529,6.529,0,0,1-1.6.2,0.945,0.945,0,0,0-1,.8,6.9,6.9,0,0,1-.1,1.3,17.739,17.739,0,0,1-.4,2.5l-0.3,3.1,0.3,0.2,7-.6a0.4,0.4,0,0,0,.5-0.4,21.081,21.081,0,0,1,.2-2.4q0.2-3.4.2-5h0Zm-42.5,12.2,0.5,0.9a8.146,8.146,0,0,1,1.7,2.3,6.353,6.353,0,0,1,.8,2.85q0.1,1.65.1,1.95c0.066,0.4.15,0.834,0.25,1.3a15.735,15.735,0,0,1,.25,1.8,12.935,12.935,0,0,0,.7,4,6.953,6.953,0,0,0,.1.95,7.442,7.442,0,0,0,.3,1.25,1.545,1.545,0,0,0,.15.7,1.331,1.331,0,0,1,.15.6l0.2,2.4a21.266,21.266,0,0,1,.1,2.4,6.381,6.381,0,0,0,.1,1.15,5.5,5.5,0,0,1,.1.95v0.3a1.569,1.569,0,0,0,.1.9,4.861,4.861,0,0,0,.1,1.05,3.624,3.624,0,0,1,.1.75,0.461,0.461,0,0,1,.05.35,0.808,0.808,0,0,0-.05.25v0.4a26.634,26.634,0,0,1-.2,4.6q-0.2,1.4-.4,2.2-0.1.4-.2,0.9a6.2,6.2,0,0,0-.1,1.2,5.378,5.378,0,0,0,.3,1.7v1.8a7.968,7.968,0,0,0-.5,2.3,6.418,6.418,0,0,1-.4,1.05q-0.3.65-.5,1.15a1.556,1.556,0,0,1-.4.45q-0.3.249-.5,0.45a1.332,1.332,0,0,1-.8.3l-0.5-.2h-0.3a0.8,0.8,0,0,1-.6.35c-0.267.033-.434,0.05-0.5,0.05a0.893,0.893,0,0,0-.45.15,0.875,0.875,0,0,1-.35.15,8.834,8.834,0,0,1-1.3.2,1.928,1.928,0,0,1-1.5-.55,6.2,6.2,0,0,1-1-1.75q-0.7-3.7-.8-4.5-0.1-1.6-.1-5l0.2-5.1a17.473,17.473,0,0,1,.45-2.65,21.957,21.957,0,0,0,.45-2.25,21.543,21.543,0,0,0,.2-2.5,19.581,19.581,0,0,0,.3-2.35q0.1-1.35.1-1.85a7.016,7.016,0,0,1,.1-1.25q0.1-.548.2-0.95a27.919,27.919,0,0,0,.2-3.9l0.1-4.5a46.24,46.24,0,0,1,.5-4.7l0.3-1.4a0.408,0.408,0,0,1,.1-0.3,1.16,1.16,0,0,0,.9-1.1,0.4,0.4,0,0,1,.2-0.25,3.733,3.733,0,0,0,.4-0.35,0.944,0.944,0,0,1,.4.3v-1.4h0.2Zm41.5,6h0.1v-3.8a0.475,0.475,0,0,0-.7-0.6,16.386,16.386,0,0,0-2.1.2q-3.2.2-4.6,0.4a0.587,0.587,0,0,0-.5.4,12.912,12.912,0,0,1-.1,1.9c-0.067.334-.167,0.75-0.3,1.25a5,5,0,0,0-.2,1.25l0.1,0.4v2.7l-0.2,1a0.594,0.594,0,0,0,.05.7,0.8,0.8,0,0,0,.65.3h0.2q3.4-.6,4.6-0.8,0.5-.1,1.25-0.2a9.608,9.608,0,0,1,1.15-.1,0.784,0.784,0,0,0,.6-0.8v-4.2Zm6,26.3a21.746,21.746,0,0,0,6-3.7l2.55-2.55a42.364,42.364,0,0,0,3.75-4.25q0.6-.7,1.05-1.3t0.85-1.1a6.715,6.715,0,0,0,1.7-3.2,0.554,0.554,0,0,0-.1-0.55,0.62,0.62,0,0,0-.5-0.25q-0.5,0-1.15.05a8.3,8.3,0,0,1-1.55-.05q-2.1,0-3-.1l-3.5-.4q-1.4,0-4.2.2l-1.3.1a39.513,39.513,0,0,0-1.1,9.6,64.01,64.01,0,0,0,.5,7.5h0Zm116.2-51.4a4.437,4.437,0,0,1-1.5.4v0.1a0.894,0.894,0,0,1-.9,1.1,0.291,0.291,0,0,0-.2.1,0.408,0.408,0,0,0-.1.3,0.936,0.936,0,0,1-.6.7,1.688,1.688,0,0,0-.65.3,2.526,2.526,0,0,1-.45.3l-1,.3q-0.8.1-1.5,0.25c-0.467.1-.967,0.184-1.5,0.25h-2.3a16.34,16.34,0,0,0-2.1.1,2.068,2.068,0,0,1-.8-0.1,2.513,2.513,0,0,0-1.1.05,4.1,4.1,0,0,1-.9.15,0.577,0.577,0,0,1-.4.1,12.105,12.105,0,0,0-1.8-.2l-1.2.1-3.1-.1-1.4-.2a0.291,0.291,0,0,0-.2.1,0.124,0.124,0,0,1-.2,0,16.1,16.1,0,0,1-2.1-.2h-0.7a0.448,0.448,0,0,0-.2.05,0.161,0.161,0,0,1-.2-0.05,6.554,6.554,0,0,0-1.9-.2q-0.4,0-1.05.05a8.3,8.3,0,0,1-1.55-.05l-1.1-.3h-0.9l-1.7-.1a7.5,7.5,0,0,1-1.4-.1l-0.5-.1a0.344,0.344,0,0,0-.25-0.1,0.336,0.336,0,0,1-.25-0.1l-0.1-.2a7.949,7.949,0,0,1-1,.3,3.091,3.091,0,0,1-1.4-.3,0.607,0.607,0,0,0-.5,0,0.792,0.792,0,0,0-.1.5l0.1,0.9a2.546,2.546,0,0,1-.25,1.45,2.723,2.723,0,0,1-.95,1.15,2.512,2.512,0,0,0-.65.45l-0.45.45-2.4,2.3a16.813,16.813,0,0,0-2,1.7q0.1-.1-2.5,2.2-0.1.1-1.6,1.3l-1.9,1.7a3.851,3.851,0,0,0,.9.4c0.2,0,.483.017,0.85,0.05a7.044,7.044,0,0,1,1.25.25,4.176,4.176,0,0,0,1,.1,7.47,7.47,0,0,0,.85-0.05,3.934,3.934,0,0,1,1.05.05h1a1.775,1.775,0,0,0,1.7-1l1.2-2.6,0.2-.2a2.39,2.39,0,0,0,.8-1.7,1.51,1.51,0,0,1,1.1-1.3,17.012,17.012,0,0,1,1.6-1,10.672,10.672,0,0,1,3.4-.9q2.4-.2,3.8-0.2a0.78,0.78,0,0,0,.7-0.3l0.5,0.1,0.7,0.5a1.049,1.049,0,0,1,1.1.2,1.056,1.056,0,0,0,.4.2,1.625,1.625,0,0,0,.5.1l2,0.3,0.2,0.2,1.1,0.7a2.978,2.978,0,0,0,.6.2,0.646,0.646,0,0,1,.5.5,1.067,1.067,0,0,0,.5.4,1.492,1.492,0,0,1,.9,1.5l-0.1.5a3.2,3.2,0,0,1-1,2q-0.2.3-.9,1.15a6.247,6.247,0,0,1-1.5,1.35,3.93,3.93,0,0,0-.7.65q-0.4.45-.6,0.65a0.29,0.29,0,0,0-.1.2,0.088,0.088,0,0,1-.1.1,1.265,1.265,0,0,0-.7.5,5.909,5.909,0,0,1-.4.5,2.618,2.618,0,0,0-.4.55,2.6,2.6,0,0,1-.4.55l-2.7,2.4-0.9.8-1.8,1.5-2.4,1.7-1.8,1.4-0.7.6a6.03,6.03,0,0,0-.8.6,0.475,0.475,0,0,1-.3.55c-0.267.167-.467,0.284-0.6,0.35a4.477,4.477,0,0,1-.9.85q-0.6.45-.9,0.65a0.339,0.339,0,0,0-.1.25,0.34,0.34,0,0,1-.1.25,0.4,0.4,0,0,0-.6-0.05,0.752,0.752,0,0,0-.3.35,9.384,9.384,0,0,0-1.2,1.1c-0.067,0-.084.034-0.05,0.1a0.453,0.453,0,0,1,.05.2h0.1l-0.2.4h0.1a19.212,19.212,0,0,0,2.9.5h1a8.7,8.7,0,0,1,1.6-.05,8.433,8.433,0,0,0,1.6-.05h1.05a8.2,8.2,0,0,0,1.35-.1,1.932,1.932,0,0,0,.8-0.25,6.774,6.774,0,0,1,.8-0.35l1.5-.4q1.3-.6,1.3-1.3l-0.1-.5a12.608,12.608,0,0,1-.4-1.8,0.451,0.451,0,0,1-.05-0.35,1.113,1.113,0,0,0,.05-0.35l0.7,0.3v-0.1a0.782,0.782,0,0,1,.25-0.95q0.45-.349.55-0.45h0.3a0.789,0.789,0,0,0,.5-0.1,0.6,0.6,0,0,0,0-.5v-0.2c0.266-.066.466,0.1,0.6,0.5s0.333,0.567.6,0.5a0.654,0.654,0,0,0,.5-0.6v-0.2l-0.2-.6,0.5-.2c0.2,0.134.433,0.3,0.7,0.5s0.566,0.434.9,0.7a0.877,0.877,0,0,1,1.1-.2,0.727,0.727,0,0,0,.6-0.1,1.535,1.535,0,0,0,.4-0.3,0.68,0.68,0,0,1,.5-0.2,0.547,0.547,0,0,1,.4.25,0.863,0.863,0,0,1,.2.55l-0.1,1.6v0.3a1.679,1.679,0,0,1,.25.5,1.656,1.656,0,0,0,.35.6,0.383,0.383,0,0,1,.05.35,2.275,2.275,0,0,0-.05.45l-0.3,1-0.3.5-1.2,1.1,0.1,0.1a0.581,0.581,0,0,1-.1.4l-1.5,1.5-0.5.7a12.013,12.013,0,0,0-1.7,1.3l-0.5.7-0.1.3c-0.267.2-.567,0.434-0.9,0.7s-0.7.534-1.1,0.8a3.981,3.981,0,0,1-1.8.6q-0.7.1-1.7,0.2t-1.5.1q-0.8.1-1.9,0.2t-2.6.1q-4.4.2-6.8,0.2a2.7,2.7,0,0,1-.75-0.1,3.177,3.177,0,0,0-.85-0.1l-1.1.1q-2.1,0-3.2-.1c-0.2,0-.484.017-0.85,0.05a6.339,6.339,0,0,1-1.35-.05,1.093,1.093,0,0,1-.7-0.4,2.16,2.16,0,0,1-.8-0.9l-0.7-1.5a3.416,3.416,0,0,1-.2-1.4,1.551,1.551,0,0,1-.05-1.05,4.9,4.9,0,0,0,.15-1.05v-0.4l-0.5-.8a2.847,2.847,0,0,1-.7-2.1,1.417,1.417,0,0,1,.9-1.4l0.4-.5,1.6-1.2,0.1-.1a1.413,1.413,0,0,0,1.05-.65,5.6,5.6,0,0,1,.45-0.65l0.4-.4a1.866,1.866,0,0,0,.95-0.55l0.65-.65q0.1-.1,2.5-2.2l0.6-.6q1.2-1.1,3.6-3.1l2.8-2.3,2.4-2.1,1.5-1.5a2.356,2.356,0,0,1,.6-0.4l1-1.4c-0.2-.066-0.4-0.133-0.6-0.2a2.25,2.25,0,0,0-.7-0.1h-1.6a0.536,0.536,0,0,0-.6.4l-0.3.8a0.554,0.554,0,0,0-.1.7,0.58,0.58,0,0,1-.1.7q-0.3.9-.4,1.1c-0.334,0-.5.234-0.5,0.7a0.4,0.4,0,0,1-.2.25,2.915,2.915,0,0,0-.3.25,1.176,1.176,0,0,1-.85.7,6.127,6.127,0,0,1-.65.1,2.011,2.011,0,0,0-1.2.9,0.176,0.176,0,0,1-.2.2,7.913,7.913,0,0,0-2.3,1.4l-0.2.2a0.649,0.649,0,0,0-.6.35,1.361,1.361,0,0,0-.2.45,0.847,0.847,0,0,1-.45.35c-0.234.1-.417,0.184-0.55,0.25-0.2.067-.417,0.134-0.65,0.2s-0.45.134-.65,0.2l-2.1.6a8.331,8.331,0,0,1-1.5.2,6.741,6.741,0,0,1-.75-0.05,3.14,3.14,0,0,0-.95.05,2.035,2.035,0,0,0-.7.15,1.92,1.92,0,0,1-.6.15q-0.2.1-.75,0.3a3.049,3.049,0,0,1-1.05.2h-0.85a0.626,0.626,0,0,1-.55-0.3,1.247,1.247,0,0,1,0-1.5,1.463,1.463,0,0,0,.1-0.9,4.274,4.274,0,0,1,.3-2.3,0.734,0.734,0,0,0,.1-0.8,1.389,1.389,0,0,1-.05-0.65,4.169,4.169,0,0,0,.05-0.55,2.211,2.211,0,0,1,.1-0.7,2.233,2.233,0,0,0,.1-0.7,1.237,1.237,0,0,0-.2-0.7,1.383,1.383,0,0,1,.3-1.6,0.951,0.951,0,0,0,.85-0.2c0.233-.2.383-0.333,0.45-0.4a2.864,2.864,0,0,1,.6-0.5l1-.5,1-.7,0.2-.2a1.172,1.172,0,0,1,.65-0.8,3.536,3.536,0,0,0,.75-0.5l0.8-.7,1.7-1.4,1.4-1.1,1.9-1.5q1.8-1.4,2.7-2l1.5-1.1a1.787,1.787,0,0,0,.5-0.5,1.8,1.8,0,0,1,.5-0.5,8.5,8.5,0,0,0-1.4-.2q-1.2-.1-3.8-0.1l-2.8-.1-1.1.1h-0.6l-1.1.1h-0.1a28.031,28.031,0,0,0-3.9.1,1.238,1.238,0,0,0-.7-0.2h-0.8l-0.1-.1h-5.1a4.951,4.951,0,0,0-1.05.1c-0.3.067-.584,0.134-0.85,0.2l-2.6.2q-2.5.4-3.5,0.5-1.3.2-3.5,0.4l-3.1-.1h-0.4a1.75,1.75,0,0,1-.8-0.5,0.389,0.389,0,0,1,.1-0.7c0.333,0,.5-0.066.5-0.2a2.507,2.507,0,0,0-.1-0.9,5.14,5.14,0,0,1-.6-2.3,3.5,3.5,0,0,1,.1-1,2.184,2.184,0,0,0-.5-1.6,2.668,2.668,0,0,1-.25-0.3,0.661,0.661,0,0,1-.15-0.4v-0.2a0.5,0.5,0,0,0-.1-0.25,1.731,1.731,0,0,0-.2-0.25,0.639,0.639,0,0,1,.15-0.65l0.35-.35,1-.8,0.8-.3q0.5-.2.9-0.4a5.6,5.6,0,0,1,.7-0.3,1.5,1.5,0,0,1,.95-0.1,0.973,0.973,0,0,1,.75.5l0.7,0.3,2.3-.1a1.544,1.544,0,0,1,.9-0.1,7.877,7.877,0,0,0,2.25-.15q1.35-.248,2.15-0.35,1-.1,2.3-0.3t2.9-.3a17,17,0,0,1,1.9-.25q0.8-.049,1.3-0.05l2.4-.1a8.459,8.459,0,0,1,1.5-.2h1.4q0.8-.1,2-0.2t2.8-.1q2.1-.1,6.3-0.1h4.5a16.273,16.273,0,0,1,2.15-.05c0.633,0.034,1.15.05,1.55,0.05h1.3l0.4,0.1h0.3a3.105,3.105,0,0,1,1.3-.2h1.8l2.8,0.1q1.2,0,4-.2l1.8,0.1a3.026,3.026,0,0,0,.5-0.05,1.765,1.765,0,0,1,.7.05l1.9,0.1h3.9q3.6-.2,5.5-0.2a12.971,12.971,0,0,1,1.9-.1h0.8q3.7,0.4,5.3.7a5.707,5.707,0,0,1,1.1.1q0.5,0.1.9,0.2l0.4,0.3,0.1,0.2a4.707,4.707,0,0,1,1.2.8,0.549,0.549,0,0,1,.3.6l0.4,0.7-0.3.9a0.622,0.622,0,0,1-.5.5,10.168,10.168,0,0,1-1.3.4l0.6,0.5-0.6.4,0.5,0.5a0.9,0.9,0,0,1,.45.35,0.888,0.888,0,0,1-.15.55,1.931,1.931,0,0,1-1.5,1,1.389,1.389,0,0,1-.6.1,1.242,1.242,0,0,0-.15.65,0.879,0.879,0,0,0,.45.35h0Zm-42.9,48.2,0.4-.1,0.5-1.3a7.957,7.957,0,0,1,1-.4l0.4,0.4v-0.7a11.806,11.806,0,0,0,.95,1.3,4.388,4.388,0,0,1,.85,1.5q0.1,0.5.25,1t0.25,1a16.615,16.615,0,0,1,.2,2.2v3.8a5.476,5.476,0,0,0-.2,1.1l0.1,3.1c0,0.266.016,0.583,0.05,0.95a6.52,6.52,0,0,1-.05,1.35q0,0.4.05,1.35a5.084,5.084,0,0,1-.15,1.65q-0.2.8-1,2.9a0.854,0.854,0,0,1-.45.35,1.662,1.662,0,0,1-.65.15h-0.1a2.938,2.938,0,0,1-.7-0.8,1.158,1.158,0,0,0-.55-0.35,1.053,1.053,0,0,0-.65.15,1.3,1.3,0,0,0-.6.6q-0.2.4-.3,0.6-0.2-.5-0.55-1.2a2.922,2.922,0,0,1-.35-1.3,12.143,12.143,0,0,1,.2-1.6q0-1.8.1-2.8v-3.3l0.3-1.5,0.2-2.2,0.4-3q0.2-1.2.4-4a1.125,1.125,0,0,0-.1-0.5c-0.067-.133-0.134-0.266-0.2-0.4h0Zm-23.8,23.2a0.849,0.849,0,0,0-.4-0.55,0.959,0.959,0,0,0-.6.15,14.606,14.606,0,0,1-1.5,1l-0.4.2-0.5-.7a0.961,0.961,0,0,1,.6-0.9c0.066,0,.1-0.067.1-0.2a0.342,0.342,0,0,0,.1-0.25,0.337,0.337,0,0,1,.1-0.25v-0.2l-0.6-1.4a1.3,1.3,0,0,0,.4-1.1v-0.8a1.6,1.6,0,0,1,.2-0.7,6.55,6.55,0,0,1,.5-1.2,0.692,0.692,0,0,1,.6-0.6l0.4-.2,1.3-.8a6.292,6.292,0,0,1,1.1-.7l0.7-.5a2.192,2.192,0,0,0,.8-0.4l0.9-.8q0.5-.3,1.2-0.65a10.368,10.368,0,0,0,1.4-.85c0.2-.133.416-0.283,0.65-0.45s0.45-.316.65-0.45a5.764,5.764,0,0,0,1.8-1.2,3.045,3.045,0,0,0,.35-0.2,3.491,3.491,0,0,1,.35-0.2,4.465,4.465,0,0,1,.9-0.5,6.943,6.943,0,0,0,1.5-.9,0.342,0.342,0,0,1,.25-0.1,0.338,0.338,0,0,0,.25-0.1l0.6-.3a1.1,1.1,0,0,1,.75-0.15,1.079,1.079,0,0,1,.65.25c0.133,0.067.266,0.134,0.4,0.2s0.266,0.134.4,0.2l0.4,2.4a3.148,3.148,0,0,1-.1.85c-0.067.234-.134,0.45-0.2,0.65l-0.1.5a6.176,6.176,0,0,1-1.7,2.3l-2.6,2.2-1.9,1.2q-0.4.3-.9,0.7a14.4,14.4,0,0,1-1.3.9l-2.7,1.8-1.3.9a6.136,6.136,0,0,1-1.3.7Zm35.8-12.3a1.413,1.413,0,0,1,.6.1,0.544,0.544,0,0,1,.25-0.4,0.444,0.444,0,0,0,.05-0.6l0.7-.3-0.3-.5q0.9,0.2,2.5.4a9.091,9.091,0,0,1,1.9.5l2.1,0.6,3.3,1,2.1,0.6,4,0.8a27.912,27.912,0,0,1,3.1.4q0.5,0.1,2,.5l1.2,0.3a5.74,5.74,0,0,0,3,1.1,5.5,5.5,0,0,0,1.2-.2l0.7,0.1a0.177,0.177,0,0,1,.2.2l0.3,1.2a1.082,1.082,0,0,0,.4.5l0.4,0.3-0.1.1-0.6.1a2.531,2.531,0,0,0-1.4.8,1.617,1.617,0,0,1-.7.2l-0.7.3,0.4,0.5,0.1,0.2a5.768,5.768,0,0,0-.8.7,1.444,1.444,0,0,1-1,.5h-0.2l-0.2.1a1.531,1.531,0,0,1-1.1.5h-0.2a2.988,2.988,0,0,0-1.2.05,5.608,5.608,0,0,1-1.1.15h-0.2a18.878,18.878,0,0,1-2.2-.1q-1.1-.2-3.3-0.8-2.4-.8-3.6-1.3a26.455,26.455,0,0,1-5.2-2.5,2.351,2.351,0,0,1-.8-0.5,1.119,1.119,0,0,1-.4-0.6,1.613,1.613,0,0,0-.8-1.2q-0.2-.1-0.6-0.35a1.606,1.606,0,0,1-.6-0.65,0.761,0.761,0,0,0-.5-0.45c-0.267-.1-0.467-0.184-0.6-0.25l-1-1Zm140.2-55.6-1.7-.2-4-.7-2.4-.3q-6.3-.3-7.2-0.3-3.1,0-4.4.1l-7,.5a41.163,41.163,0,0,1-5.1.3,0.4,0.4,0,0,1-.4-0.5,8.956,8.956,0,0,0-.4-1.3,3.907,3.907,0,0,1-.3-1.3,5.2,5.2,0,0,1,.15-1.15q0.15-.649.25-0.95a21.227,21.227,0,0,0,.1-2.4,8.935,8.935,0,0,0-.4-1.45,4.487,4.487,0,0,1-.3-1.45,3.151,3.151,0,0,1,.2-0.9,0.983,0.983,0,0,0-.5-0.9l-1.5-2.6a8.47,8.47,0,0,1-.9-0.75,3.217,3.217,0,0,0-1.5-.75,8.512,8.512,0,0,0-.9-0.2l-0.4.1a0.415,0.415,0,0,0-.1.6h-0.9a5.377,5.377,0,0,1,.1,1.2,0.793,0.793,0,0,0-1,.1,2.582,2.582,0,0,0-.5,1.7,1.394,1.394,0,0,0-.1.6l0.3,1.7c0.066,0.2.133,0.417,0.2,0.65a2.756,2.756,0,0,1,.1.75,1.733,1.733,0,0,1,.1.7,2.586,2.586,0,0,0,.1.8,0.975,0.975,0,0,1-.2.7,2.233,2.233,0,0,1-.1.7l-0.1.4,0.4,3.9a4.342,4.342,0,0,0,.1.95,3.975,3.975,0,0,1,.1.85v0.3a0.432,0.432,0,0,1-.2.35,0.667,0.667,0,0,1-.4.15l-6.5.5-3.8.3-6.3,1-1.8.2a8.628,8.628,0,0,0-1.45.3q-0.651.2-1.05,0.3l-2.4.2a0.611,0.611,0,0,0-.45.15,0.411,0.411,0,0,1-.25.15l-0.2.1h-1.2a6.179,6.179,0,0,1-1.2.1h-1.6a2.1,2.1,0,0,0-1.3,0l0.2-.2a0.287,0.287,0,0,1,.35-0.15,1.983,1.983,0,0,0,.35.05,0.839,0.839,0,0,1,.05-0.65,0.934,0.934,0,0,1,.65-0.35,0.557,0.557,0,0,0,.3-0.2q0.2-.4.35-0.65c0.1-.166.216-0.383,0.35-0.65a0.7,0.7,0,0,1,.35-0.15,0.682,0.682,0,0,0,.35-0.15,0.291,0.291,0,0,1,.2-0.1,0.088,0.088,0,0,0,.1-0.1,3.38,3.38,0,0,0,.7-0.7,1.146,1.146,0,0,1,.9-0.5l0.2-.2v-0.55a0.5,0.5,0,0,1,.3-0.55,0.578,0.578,0,0,1,.1-0.4,0.383,0.383,0,0,1,.35-0.05,2.227,2.227,0,0,0,.45.05,40.017,40.017,0,0,0,2.6-4.7,7.3,7.3,0,0,1-3-1.6,1.07,1.07,0,0,1-.35-0.7,1.583,1.583,0,0,1,.55-0.6c0.133-.066.333-0.183,0.6-0.35a0.674,0.674,0,0,0,.4-0.45,2.213,2.213,0,0,1,.7-1.3,0.587,0.587,0,0,0,.3-0.5,0.27,0.27,0,0,0-.15-0.2,0.625,0.625,0,0,0-.35-0.1l-3.7-.6a0.977,0.977,0,0,0-.7.2q-1.8.9-2.1,1-3.4,1-4,1.2a18.578,18.578,0,0,1-1.85.65,12.813,12.813,0,0,0-1.95.75,14.127,14.127,0,0,1-1.6,1.1,14.066,14.066,0,0,0-2.1.9l-2.5,1.1c0,0.067-.067.1-0.2,0.1a0.4,0.4,0,0,1-.3-0.1q-0.9-.5-1.5-0.9l-1.4.7a0.946,0.946,0,0,0-.3.4,2.081,2.081,0,0,1-1,.65,4.989,4.989,0,0,1-.8.25,11.557,11.557,0,0,1-1.45.7q-0.75.3-1.45,0.6a1.1,1.1,0,0,0-.4.7l0.1,0.4a6.44,6.44,0,0,0,.75,1,9.737,9.737,0,0,1,.85,1.1,2.182,2.182,0,0,1,.9,1.8,3.076,3.076,0,0,1-.4,1.2,1.139,1.139,0,0,0,.1,1.2q0.1,0.2.2,0.45a0.322,0.322,0,0,1,0,.35,0.735,0.735,0,0,0,0,.9,4.894,4.894,0,0,0,1,.7,1.838,1.838,0,0,1,.7,1.1,2.4,2.4,0,0,0,1.4,1.4,2.531,2.531,0,0,0,.55.4,0.929,0.929,0,0,1,.45.5,3.41,3.41,0,0,0,1.3,1.05,6.634,6.634,0,0,1,1.3.85,0.674,0.674,0,0,0,.5.2,2.241,2.241,0,0,1,.95,0,1.36,1.36,0,0,0,.95-0.1h0.2a1.655,1.655,0,0,0,1.4-.25c0.466-.3.8-0.516,1-0.65l0.3-.3a0.68,0.68,0,0,1,.5-0.2h0.3c0,0.067.016,0.084,0.05,0.05l0.15-.15a16.3,16.3,0,0,1,2.4-2.3,0.648,0.648,0,0,1,.25-0.15,0.451,0.451,0,0,0,.25-0.25,11.453,11.453,0,0,1,2.2-2v0.1a3.339,3.339,0,0,0-.3,1.5v0.5a3.909,3.909,0,0,1,.4,1.1l0.2,1.4v0.6a0.576,0.576,0,0,0-.35.55,3.8,3.8,0,0,1-.15.75,3.263,3.263,0,0,0-.2.55,2.142,2.142,0,0,0-.1.55,1.323,1.323,0,0,0,.1.7,0.334,0.334,0,0,0,.15.3,0.48,0.48,0,0,0,.25.1c0.066,0.067.133,0.134,0.2,0.2s0.133,0.134.2,0.2a0.412,0.412,0,0,1,.1.3,0.963,0.963,0,0,0,.2.5c0,0.267.066,0.367,0.2,0.3a0.945,0.945,0,0,1,.85.3,1.669,1.669,0,0,1,.55,1,1.752,1.752,0,0,0,.5.8,1.111,1.111,0,0,0,.6.4,8.482,8.482,0,0,1,1.5.2,6.329,6.329,0,0,0,1.8.4,1.331,1.331,0,0,0,.6-0.15,1.2,1.2,0,0,1,.4-0.15,2.453,2.453,0,0,0,.7-0.3v0.1h4.1a0.707,0.707,0,0,0,.7.5,1.52,1.52,0,0,0,.6-0.2,1.667,1.667,0,0,1,.8-0.1l1.5-.3,4.8-1.2q0.6-.1,1.3-0.2t1.3-.2a16.968,16.968,0,0,1,1.85-.5q0.949-.2,1.95-0.5a3.516,3.516,0,0,1,1.1-.2l1.7,0.1a11.909,11.909,0,0,0-.2,1.7l0.1,4.4-0.1,1.5v0.4a18.951,18.951,0,0,1-.2,3.3,12.1,12.1,0,0,0-.5,3.2q0,0.8-.05,2.35a21.157,21.157,0,0,1-.25,2.75l-0.1,5.9-0.2,4.5a0.442,0.442,0,0,1-.5.5,20.678,20.678,0,0,0-2.2-.1,15.017,15.017,0,0,1-2-.1,1.793,1.793,0,0,1-1.15-.45q-0.551-.45-0.65-0.55a0.575,0.575,0,0,1-.1-0.4v-0.4q0.1-.8.2-1.75a20.9,20.9,0,0,0,.1-2.15q0.2-6.6.4-9.9a1.483,1.483,0,0,0-.1-0.55,1.458,1.458,0,0,1-.1-0.55,8.192,8.192,0,0,1,.1-1.25,8.3,8.3,0,0,0,.1-1.25,6.1,6.1,0,0,0-.3-1.7q-0.3-1-.5-1.6a2.381,2.381,0,0,0-2.1-2.2l-0.2-.2-0.9-.2v0.7l-0.9-.1,0.2,0.8-0.6-.3a0.417,0.417,0,0,0-.7.2,3.3,3.3,0,0,1-.2,1,30.131,30.131,0,0,0-1.7,7.2l-0.4,3.4a22.19,22.19,0,0,0-.45,2.9q-0.15,1.6-.25,2.2,0,1.3-.2,3.7-0.2,2.8-.2,3.8-0.2,1.1-.4,4.1l-0.4,3.8-0.1,2.3v0.5q0.2,2.7.4,4a2.486,2.486,0,0,0,1.1,2,6.889,6.889,0,0,0,2.3,1.4l0.8,0.2h0.3a2.035,2.035,0,0,1,1,.05,1.866,1.866,0,0,1,.8.45,3.12,3.12,0,0,0,1.1.8,3.847,3.847,0,0,0,.15-0.65,0.848,0.848,0,0,1,.15-0.45,2,2,0,0,0,.8-1.5v-0.5a1.621,1.621,0,0,1-.3-1q-0.1-.3-0.4-1.85a9.391,9.391,0,0,1-.1-3.05l0.1-3.6a0.6,0.6,0,0,1,.4-0.4,2.468,2.468,0,0,0,.75-0.15,2.468,2.468,0,0,1,.75-0.15,0.96,0.96,0,0,1,.7.3,2.068,2.068,0,0,0,.8.1l0.7-.1q1,0.1,3.5.1c0.466,0,.633.234,0.5,0.7a0.578,0.578,0,0,0-.1.4v0.4a13.361,13.361,0,0,1,.05,1.95q-0.051.851-.05,1.45a11.558,11.558,0,0,1-.15,1.9,9.483,9.483,0,0,0,.1,3.85q0.249,1.25.35,2.15a1.819,1.819,0,0,0,1,1.3,13.255,13.255,0,0,1,2,1,1.018,1.018,0,0,0,.75.3,0.678,0.678,0,0,0,.65-0.4l0.2-.1a4.126,4.126,0,0,1,2.15.8,11.388,11.388,0,0,0,1.35.9,0.581,0.581,0,0,1,.1.4,0.614,0.614,0,0,0,.1.35,3.378,3.378,0,0,1,.2.35q0.3-.2.95-0.6a1.865,1.865,0,0,0,.85-1.1,0.91,0.91,0,0,1,.7-0.6,2.284,2.284,0,0,0,.85-0.25,1.4,1.4,0,0,0,.65-0.45,2.83,2.83,0,0,0,.7-1.7,17.42,17.42,0,0,0,.2-2.4v-0.9a16.452,16.452,0,0,0-.1-1.8,16.207,16.207,0,0,1-.1-1.8q-0.4-3.2-.5-4.2a2.593,2.593,0,0,1,.1-0.8,0.392,0.392,0,0,1,.4-0.3l1,0.2a5.62,5.62,0,0,0,2.7-.2,1.225,1.225,0,0,1-.4-0.35,1.806,1.806,0,0,0-.6-0.45,1.109,1.109,0,0,1-.6-0.9,0.805,0.805,0,0,1,.4-0.6,8.938,8.938,0,0,1,1.2-.9l0.4-.2a28.008,28.008,0,0,0,1,4.8l1,4.6a0.463,0.463,0,0,1-.4.7,2.235,2.235,0,0,0,1.7,1.1l0.7,0.2,2,0.6a0.164,0.164,0,0,0,.2.05,0.162,0.162,0,0,0,.1-0.15,1.763,1.763,0,0,1,.8-0.2,1.222,1.222,0,0,1,.9.3,7.611,7.611,0,0,1,1.7,1.6h0.1l0.1-.2a1.669,1.669,0,0,1,1-1.5,0.089,0.089,0,0,0,.1-0.1,0.285,0.285,0,0,1,.1-0.2,5.938,5.938,0,0,1-.1-1.3q-0.1-.6-0.3-1.6a8.844,8.844,0,0,1-.2-1.7q-0.1-.7-0.25-2.75a26.868,26.868,0,0,0-.55-3.85q-0.4-4.1-.7-5.9,0-.9-0.05-2.3t-0.25-3.3a16.666,16.666,0,0,0-.4-3.8l-0.4-2.1a10.531,10.531,0,0,0-.4-2.1q-0.8-4.3-1.2-8.3a14.977,14.977,0,0,0-.7-3.1,2.348,2.348,0,0,1-.5-1.1l-0.5-.7a3.474,3.474,0,0,0-.7-0.35,7.968,7.968,0,0,1-.8-0.35,1.87,1.87,0,0,0-2-.2q-0.2.1-.7,0.4a1.622,1.622,0,0,0-.7.8l0.1,0.8a16.354,16.354,0,0,0-1.2,5.9q0,3,.2,9.2a6.381,6.381,0,0,0,.1,1.15,6.486,6.486,0,0,1,.1,1.15v0.4c0,0.334-.017.8-0.05,1.4a8.113,8.113,0,0,0,.05,1.6l0.1,2.7a11.652,11.652,0,0,0,.1,1.55,11.841,11.841,0,0,1,.1,1.55q0,0.7-.6.6-1.4-.1-2.35-0.2t-1.55-.2q0-.6-0.2-2.6a20.683,20.683,0,0,0-.35-2.05q-0.25-1.148-.35-1.95-0.2-.9-0.45-1.8t-0.45-1.8a22.792,22.792,0,0,1-.2-2.8,6.355,6.355,0,0,1,.4-1.7,6.45,6.45,0,0,0,.4-1.9v-2.3l-0.1-3.4v-1.4q-0.1-.9-0.3-2.75a30.49,30.49,0,0,1-.2-3.25q0-1.1,1.5-1.1l2.6-.1q2.4,0,3.4-.1,1.2,0,4.2-.2,0.9-.1,1.85-0.2t2.05-.2a7.474,7.474,0,0,1,1.5-.05,8.433,8.433,0,0,0,1.6-.05q2.3,0,3.2-.1a5.608,5.608,0,0,0,1.1-.15q0.7-.15,1.4-0.25a4.593,4.593,0,0,0,1.3-.6,6.579,6.579,0,0,1,1.8-1.4,0.959,0.959,0,0,0,.3-0.7,2.78,2.78,0,0,1,1-1.9,1.53,1.53,0,0,0,.2-0.6,4.353,4.353,0,0,1,.1-0.95,4.4,4.4,0,0,0,.1-0.95,1.41,1.41,0,0,0-.1-0.6l0.2-.5a9.6,9.6,0,0,1,1.1-1.8,1.1,1.1,0,0,1,.8-0.5,1.274,1.274,0,0,0,.8-0.35,1.384,1.384,0,0,0,.2-0.85,0.808,0.808,0,0,0-.4-0.8h0Zm-67.8,50.6a9.865,9.865,0,0,0-.15-1.6q-0.15-.9-0.25-1.6l-0.1-1.1v-0.3a5.89,5.89,0,0,0,.2-1.4l-0.1-.9a25.02,25.02,0,0,0-.9-4.3v-0.1a4.266,4.266,0,0,0,.2-1.5,6.423,6.423,0,0,0-.4-2.2c-0.067-.2-0.15-0.466-0.25-0.8a3.456,3.456,0,0,1-.15-1,28.172,28.172,0,0,1-.6-4.7l-0.1-.8a3.186,3.186,0,0,0,.2-0.9,3.758,3.758,0,0,0-.1-0.9,3.689,3.689,0,0,1-.1-0.9l-0.2-.9a1.891,1.891,0,0,0-.15-0.75,1.88,1.88,0,0,1-.15-0.75l-0.2-2.7a0.336,0.336,0,0,1-.1-0.25,0.343,0.343,0,0,0-.1-0.25,9.945,9.945,0,0,0-2-1.4l-1.7-1a1.037,1.037,0,0,0-1-.1l-0.1.6v0.3l-0.5-.1a1.526,1.526,0,0,0-.8-0.4,3.186,3.186,0,0,1-.2.9l0.1,0.2-0.2,1.4a4.087,4.087,0,0,1-.45,1,8.34,8.34,0,0,0-.55,1.1,13.455,13.455,0,0,0-.5,2.3,38.332,38.332,0,0,1-.9,4.5,12.5,12.5,0,0,0-.2,2q-0.1,2.4,0,4.6a21.9,21.9,0,0,0,.1,3.5v3.1q0.2,3.6.2,5.7,0,0.9.05,2.4t-0.05,3.5a17.142,17.142,0,0,0,.8,5.6,4.418,4.418,0,0,0,2.2,2.2,2.721,2.721,0,0,0,1.7.8,7.251,7.251,0,0,1,1.2.1,6.8,6.8,0,0,0,1.1.1,0.941,0.941,0,0,1,1.1.5,3.963,3.963,0,0,1,.4.9c0.133,0.266.3,0.3,0.5,0.1a1.176,1.176,0,0,0,.6-1,0.611,0.611,0,0,1,.15-0.45,0.34,0.34,0,0,1,.45.05q0.1-.2.45-0.85a3.333,3.333,0,0,1,.85-1.05,5.571,5.571,0,0,0,.5-2.5,19.81,19.81,0,0,1,.1-2.3,0.429,0.429,0,0,0,0-.4,0.244,0.244,0,0,1,0-.3,10.082,10.082,0,0,0,.2-2.3,26.86,26.86,0,0,0-.1-2.7h0Z"/>
</svg>
