<svg xmlns="http://www.w3.org/2000/svg" width="900" height="140" viewBox="0 0 900 140">
  <defs>
    <style>
      .cls-1 {
        fill-rule: evenodd;
      }
    </style>
  </defs>
  <path id="演示悠然小楷" class="cls-1" d="M226.89,45.641a33.806,33.806,0,0,1,3.1-1.7l-1-1.3a4.9,4.9,0,0,1-.8-2.1v-0.4a1.631,1.631,0,0,1,.1-0.4,0.664,0.664,0,0,0-.1-0.6l0.3-.3a1.533,1.533,0,0,1-.2-0.25,0.611,0.611,0,0,1-.1-0.35v-0.3l0.4,0.1q0.5,0.4,1.05.85t1.25,0.95l0.7,0.2a11.527,11.527,0,0,0,1.9-.3,5.387,5.387,0,0,1,1.2-.1,9.176,9.176,0,0,1,1.6.1,1.143,1.143,0,0,1,.8.4,1.639,1.639,0,0,1,.2.9,2.653,2.653,0,0,1-1.2,1.7,6,6,0,0,1-1.15,1.05q-0.75.551-1.25,0.95l-0.3.1q-2.8.7-4.7,1.1a1.825,1.825,0,0,1-1.2,0,0.479,0.479,0,0,1-.35-0.15,0.411,0.411,0,0,0-.25-0.15h0Zm-6.3,52.3-0.2-.4-1,.6a3.153,3.153,0,0,0-.3-0.7,1.933,1.933,0,0,0-.4-0.9l-0.1-.7,0.3-1.3a1.229,1.229,0,0,1,.5-0.3,2.531,2.531,0,0,1,.55-0.4,2.7,2.7,0,0,0,.55-0.4q2.6-2.3,3.8-3.3l1.7-1.7,0.7-.6a0.283,0.283,0,0,0,.2-0.2,0.29,0.29,0,0,1,.1-0.2l-0.7-.2a0.611,0.611,0,0,1-.35-0.1,3.607,3.607,0,0,0-.35-0.2,1.918,1.918,0,0,1-.55-0.6,3.592,3.592,0,0,0-.45-0.6,4.7,4.7,0,0,0-1-.6,0.908,0.908,0,0,1,.8-0.55,0.993,0.993,0,0,0,.8-0.45,0.581,0.581,0,0,1,.2.4l1.5-.6,2.7-1.1a0.883,0.883,0,0,0,.45-0.3,0.52,0.52,0,0,0,.05-0.5l-0.2-1.9v-0.3a7.464,7.464,0,0,1-3.7.7,0.675,0.675,0,0,0,.2.5,4.147,4.147,0,0,1,.5,1.3,2.417,2.417,0,0,1-.3,1.4,1.021,1.021,0,0,1-1,.3h-0.2l-0.8-.4q-1.2-.7-1.4-0.8a2.778,2.778,0,0,1-1.15-.9q-0.45-.6-0.55-0.7a15.6,15.6,0,0,1-1.6-4.5q-0.2-1.1-.4-3.7a10.93,10.93,0,0,1,.4-2.4,4.687,4.687,0,0,0,.25-0.8,1.9,1.9,0,0,1,.45-0.9,17.959,17.959,0,0,1,1.5-1.6q0.4,0.7.5,0.9a2.617,2.617,0,0,1-.1.8,0.571,0.571,0,0,0-.1.9,6.883,6.883,0,0,1,.9,1c0.2,0,.3.067,0.3,0.2l2.6-1.1,4.6-2a0.509,0.509,0,0,0,.5-0.5l0.3-3.4v-0.8a0.307,0.307,0,0,0-.2-0.35,0.927,0.927,0,0,0-.5.05l-3.6,1.6a3.636,3.636,0,0,1-.75.15,2.13,2.13,0,0,0-.65.15,9.746,9.746,0,0,1,1.4-1.2l-0.1-.2h-1.8a2.848,2.848,0,0,1-1.8-.7,1.344,1.344,0,0,0-1-.7h-0.2l-0.4-.5v-0.3a0.342,0.342,0,0,1,.25-0.1,0.338,0.338,0,0,0,.25-0.1,0.946,0.946,0,0,0-.3-0.4,0.451,0.451,0,0,1-.05-0.35,0.5,0.5,0,0,1,.35-0.25,0.884,0.884,0,0,0,.4-0.1,0.9,0.9,0,0,1,.4-0.1,0.946,0.946,0,0,0-.3.4,0.89,0.89,0,0,0,.6.5,0.363,0.363,0,0,0,.5,0l3-1.3q5.4-2.2,6.7-2.8,0.5-.2.95-0.4t0.95-.4a5.094,5.094,0,0,1,1.8-.3,0.165,0.165,0,0,1,.2-0.05,0.427,0.427,0,0,0,.2.05,0.924,0.924,0,0,0,.9.65c0.466,0.034.766,0.05,0.9,0.05q-0.3.3,0.3,0.5a5.616,5.616,0,0,0,1.3.8l2-1.5,3.1-2,1-.8a0.25,0.25,0,0,0,0-.4l-3-2.3a0.943,0.943,0,0,0-.8-0.1l-3.3,1-4.7,1.6-3.7,1.2-4.2,1.3a3.945,3.945,0,0,0-.7.4,2.61,2.61,0,0,1-1.6.8,14.038,14.038,0,0,1-1.9.1,5.43,5.43,0,0,1-1.1-.2,7.647,7.647,0,0,0-1.4-.1h-0.5a3.534,3.534,0,0,0-1,.8,6.075,6.075,0,0,0-.8,1.5q-0.2.4-.6,1.35a12.14,12.14,0,0,0-.6,1.75,12.684,12.684,0,0,0-.4,2l-0.4,1.3a0.288,0.288,0,0,1-.1.2l-0.2.2a0.86,0.86,0,0,0-.7-0.2,2.146,2.146,0,0,0-.5.4,1.817,1.817,0,0,1-.85-0.4c-0.234-.2-0.384-0.333-0.45-0.4a2.387,2.387,0,0,0-.45-0.35,2.265,2.265,0,0,1-.45-0.35,0.584,0.584,0,0,1-.3-0.3,4.184,4.184,0,0,1-.1-1,0.639,0.639,0,0,0-.2-0.6,3.188,3.188,0,0,0-.05-0.5,0.8,0.8,0,0,1,.05-0.5,3.963,3.963,0,0,0,.4-0.9,13.5,13.5,0,0,1,1.6-4l0.9-1.5,1.8-2.3,3.6-4.2,0.3-.1,0.1,0.8a5.357,5.357,0,0,1-.1,1.2,5.571,5.571,0,0,1-.8,2.1,20.166,20.166,0,0,1-1.1,2.6l0.1,0.1,1-.5a6.119,6.119,0,0,1,1.8-.5l1.6-.6,3.4-1.5q0.9-.3,2.35-0.95a17.9,17.9,0,0,1,2.55-.95q3.6-1.2,8.8-2.8a15.908,15.908,0,0,1,4.5-1,9.489,9.489,0,0,1,1.5.1l0.3,0.1a0.909,0.909,0,0,0,.65.6c0.366,0.134.65,0.234,0.85,0.3a8.01,8.01,0,0,1,1.15.6q0.65,0.4.95,0.6a15.79,15.79,0,0,1,2.9,2.6,0.748,0.748,0,0,1,.3.8c-0.067,0-.084.017-0.05,0.05a0.209,0.209,0,0,1,.05.15v0.1a1.115,1.115,0,0,1,.25.65,0.994,0.994,0,0,1-.55.35,5.672,5.672,0,0,1-1.8.6,1.487,1.487,0,0,0-.55.1,1.091,1.091,0,0,0-.35.2,15.554,15.554,0,0,1-2.05.95,15.867,15.867,0,0,0-1.55.65l-2.3,1-0.4.2a6.465,6.465,0,0,1-1.5.8,3.3,3.3,0,0,0-.95.35,6.123,6.123,0,0,1-1.05.45,5.862,5.862,0,0,1-1.2.45,8.612,8.612,0,0,0-1.1.35,2.179,2.179,0,0,0-1.65.25c-0.5.3-.817,0.484-0.95,0.55a6.475,6.475,0,0,0-1.05.55,6.309,6.309,0,0,1-1.05.55,0.752,0.752,0,0,0-.4.25,0.269,0.269,0,0,0,.1.35,6.447,6.447,0,0,1,.8.95q0.3,0.45.5,0.75a0.322,0.322,0,0,1,.2.3,0.83,0.83,0,0,1-.05.25,0.224,0.224,0,0,0,.05.25q0.1,0.2.8,1.4,1.5-.6,3.7-1.3a14.354,14.354,0,0,1,2.6-.5,0.463,0.463,0,0,1,.5.3l0.4,0.2a17.517,17.517,0,0,1,2.6,1.2,5.416,5.416,0,0,0,.6.35,2.35,2.35,0,0,1,.6.45q1.5,1.2,1.6,1.3l1.1,1a1.158,1.158,0,0,1,.4.8v0.2a0.4,0.4,0,0,0,.4.5,0.247,0.247,0,0,1,0,.3q-0.1.8-.5,2.9a12.893,12.893,0,0,1-.4,1.8,17.084,17.084,0,0,1-.8,2.2l-1.5,2.9a2.359,2.359,0,0,1-1,1.2,5.116,5.116,0,0,0-.85.85,2.414,2.414,0,0,1-.95.75,2.927,2.927,0,0,1-.3.25,0.667,0.667,0,0,1-.4.15h-0.2a0.4,0.4,0,0,0-.25.2,0.974,0.974,0,0,1-.35.3,0.51,0.51,0,0,0-.5.2,0.642,0.642,0,0,0-.6.4l-0.4-.1q-0.4.2-.75,0.4t-0.55.3a0.789,0.789,0,0,1-.5.1,1.625,1.625,0,0,1-1.2-.4q-0.3-.4-0.6-0.75t-0.5-.55l-0.2-.1-1.9.8a8.7,8.7,0,0,0-2.6,1.8q-0.6.5-1.45,1.35l-1.45,1.45-2.3,2.6q-1,1.2-1.5,1.7l-3.5,3.3a3.754,3.754,0,0,1-1.9,1.1h0Zm-18.7-44.9a10.647,10.647,0,0,0-.3-1.4l-0.1-.4q-0.1-.1,1.4,1.1a0.858,0.858,0,0,0,.45.25,0.673,0.673,0,0,0,.45-0.05l1.8-.9c0.2-.066.533-0.2,1-0.4a3.526,3.526,0,0,1,1.4-.3,1.707,1.707,0,0,0,.7.05,3.2,3.2,0,0,1,.5-0.05,2.572,2.572,0,0,1,1.6.4,1.383,1.383,0,0,0,.6.1q0.6,0,.4.6a1.6,1.6,0,0,0,.4,1.3,0.679,0.679,0,0,1,.1,1l-0.2.1a1.345,1.345,0,0,1-.3,1.1,2.918,2.918,0,0,0-.5.8,6.926,6.926,0,0,1-.65.75,4.385,4.385,0,0,0-.55.65l-1.3,1.9a8.209,8.209,0,0,1-1.5,1.3l-0.7.7a5.007,5.007,0,0,0,.5-1.2,5.562,5.562,0,0,0,.5-1.3l0.3-1.3a1.2,1.2,0,0,0-.75.05,0.52,0.52,0,0,0-.45.35l-0.8.2a2.3,2.3,0,0,1-1.4-.5l-0.3-.2a0.937,0.937,0,0,1-.3-0.4l-0.1-.1a1.475,1.475,0,0,1-.4-0.7,3.225,3.225,0,0,0-.2-0.6,0.9,0.9,0,0,0-.3-0.45,0.97,0.97,0,0,1-.3-0.35,2.373,2.373,0,0,1-.5-1.15,6.489,6.489,0,0,0-.2-0.95h0Zm2.1,20.7a5.914,5.914,0,0,1-1,.2,7.666,7.666,0,0,1-2.3-.6,14.351,14.351,0,0,1-3-1.7,2.06,2.06,0,0,1-.9-1.4,4.3,4.3,0,0,0-.9-1.5,2.184,2.184,0,0,1-.4-1.4v-0.5l0.9,1.1a2.523,2.523,0,0,0,1.7.9,1.6,1.6,0,0,0,.7-0.2l4.3-1.7a8.6,8.6,0,0,1,3.8-.7,0.5,0.5,0,0,1,.25.1,1.761,1.761,0,0,1,.25.2l1.4,0.9a0.265,0.265,0,0,1-.15.2,0.27,0.27,0,0,0-.15.2,1.985,1.985,0,0,0,0,.9,0.816,0.816,0,0,1,.35.6,0.755,0.755,0,0,1-.35.4q-0.5.2,0.1,0.7c0.266,0.134.3,0.3,0.1,0.5l-1.2,1.4-0.9,1.4c-0.134.2-.317,0.484-0.55,0.85a5.074,5.074,0,0,1-.65.85,0.844,0.844,0,0,1-1.1,0,1.072,1.072,0,0,1-.6-0.7,0.408,0.408,0,0,1,.1-0.3,0.636,0.636,0,0,0,.15-0.3,1.65,1.65,0,0,0,.05-0.4h0Zm32.5-1.4q1.7-.4,2.3-0.5a11.113,11.113,0,0,1,2.5-.4,3.183,3.183,0,0,1,.4.05,3.935,3.935,0,0,1,.7.2,0.76,0.76,0,0,1,.5.55l0.3,0.1,0.4-.3a5.476,5.476,0,0,1,.2-1.1,10.219,10.219,0,0,0,.3-1.45,9.992,9.992,0,0,1,.3-1.45,0.991,0.991,0,0,0-.6-0.9h-0.2l-1.9.9a12.009,12.009,0,0,0-1.9.8l-2.9,1.1a0.291,0.291,0,0,0-.2.1,0.408,0.408,0,0,0-.1.3,13.751,13.751,0,0,0-.1,2h0Zm-24.6,6.6,3-5.3,1.9-3.2-0.1,1.1v0.3a5.338,5.338,0,0,1-.45,2q-0.45,1.1-.65,1.7-0.5,2-1.7,5.8a10.964,10.964,0,0,1-.35,1.25,3.978,3.978,0,0,0-.25,1.15v0.8l-0.7,2.1a0.407,0.407,0,0,1-.1.3,0.29,0.29,0,0,0-.1.2,1.6,1.6,0,0,0,.05.4,0.921,0.921,0,0,1-.05.5,3.532,3.532,0,0,1-.3,1l-1.1,3.6a11.21,11.21,0,0,1-1.5,2.4l-0.4.2-0.2.4-0.6.6a5.563,5.563,0,0,1-1.1.2,2.865,2.865,0,0,1-1.3-.3q-0.4-.2-1.05-0.6a4.027,4.027,0,0,1-1.05-.9,2.272,2.272,0,0,0-.9-0.5,2.013,2.013,0,0,1-.9-0.65,3.586,3.586,0,0,1-.7-1.05,0.846,0.846,0,0,0-.5-0.7,1.482,1.482,0,0,1-.6-0.7,0.8,0.8,0,0,1,.4-0.5,2.356,2.356,0,0,1,.6-0.4,1.122,1.122,0,0,0,.7-0.7v-0.4l0.9,0.6a0.6,0.6,0,0,0,.9,0,4.338,4.338,0,0,0,1.3-1.2l2.9-3.7a44.707,44.707,0,0,0,4-5.8h0Zm18.7-5.2,0.1-1.4-0.8.3c-0.334.134-.734,0.3-1.2,0.5a6.218,6.218,0,0,1-1.2.4,10.168,10.168,0,0,1-1.3.4l-1.7-.1,0.9,2.9,0.2-.1,4.5-2.1a0.944,0.944,0,0,0,.4-0.3,0.792,0.792,0,0,0,.1-0.5h0Zm11.1,3.5,0.9-2.2a5.442,5.442,0,0,0-3.1,1.2,7.911,7.911,0,0,1-3.1,1.5,0.983,0.983,0,0,0-.9.5,1.581,1.581,0,0,0-.2,1,0.284,0.284,0,0,0,.1.2c0.066,0.067.133,0.134,0.2,0.2a0.433,0.433,0,0,0,.2-0.05l0.3-.15a1.511,1.511,0,0,0,.6.2h0.5l0.5,0.1a1.468,1.468,0,0,1,.9-0.1,3.994,3.994,0,0,1,.8.3h0.6a0.176,0.176,0,0,0,.2-0.2q1.2-2,1.5-2.5h0Zm9.2,20.1a0.284,0.284,0,0,0-.2-0.2,2.143,2.143,0,0,0-.8.4,2.739,2.739,0,0,0-1.2,1.1,6.883,6.883,0,0,1-.9,1,0.456,0.456,0,0,1-.5.1,0.448,0.448,0,0,1-.2-0.05q-0.1-.052,0-0.15a1.359,1.359,0,0,0,.05-1.2q-0.25-.7-0.35-1a13.551,13.551,0,0,0-.3-2.1,8.693,8.693,0,0,0-.1-0.9,3.951,3.951,0,0,0-.5-1.4l-1-1.1a16.26,16.26,0,0,0-1.5-1.4,11.582,11.582,0,0,0-2.1-1.6l-1.7-.7,2.9,0.3a9.551,9.551,0,0,1,2.35.55q1.249,0.45,1.85.65l3.2,1.3a3.426,3.426,0,0,1,1.3.9,0.752,0.752,0,0,1,.45.45,1.6,1.6,0,0,0,.25.45,1.421,1.421,0,0,1,.4.5,15.219,15.219,0,0,1,.1,2l-0.3.3-0.2.2a0.947,0.947,0,0,1-.4.65,0.943,0.943,0,0,0-.4.55,0.4,0.4,0,0,0-.2.4h0Zm52.2-44.6h0.1a0.682,0.682,0,0,1,.5.2l0.1-.1a4.247,4.247,0,0,0-.2-0.7l0.9,0.2a3.171,3.171,0,0,1,2.1,1.6q0,0.3.3,0l1-.6,3-1.9q0.7-.4,1.35-0.8t1.35-.8q3-1.6,4.5-2.5a26.643,26.643,0,0,1,3.2-1.7h0.1a0.974,0.974,0,0,1,.4-0.6,5.019,5.019,0,0,1,.5-0.3,2.539,2.539,0,0,1,.7-0.3l0.3-.1,0.3-.1a0.575,0.575,0,0,0,.6.25c0.266-.033.433-0.05,0.5-0.05h1.2a1.13,1.13,0,0,1,.5.1l0.6,0.2q0.3,0.8.4,1a0.571,0.571,0,0,0,.2.4,1.517,1.517,0,0,1,.6,1.2,2.1,2.1,0,0,1-.3,1.1,4.175,4.175,0,0,1-.4.6,4.73,4.73,0,0,1-1.2,1,3.36,3.36,0,0,0-.5.4,1.535,1.535,0,0,1-.4.3l-2.7,1.5-3.6,2.6a3.851,3.851,0,0,1-.9.4q-1.8,1.3-2,1.4l-1.3.7-0.5.5a1.748,1.748,0,0,0-.65.55,4.237,4.237,0,0,1-.35.45l-0.8.4q-0.5.5-.95,0.9t-0.85.8a6.013,6.013,0,0,1-.9.7,2.453,2.453,0,0,1-.7.3,8.8,8.8,0,0,1-1.6.8l-0.7.3a34.908,34.908,0,0,0,3.4-3.7v-0.1l-1.6.4a3.215,3.215,0,0,1-.8-0.2,11.273,11.273,0,0,1-1.15-.3q-0.651-.2-1.35-0.4a1.839,1.839,0,0,1-1-.9,1.682,1.682,0,0,0-.1-0.4,0.463,0.463,0,0,0-.5-0.3,0.707,0.707,0,0,1-.5-0.7v-0.2l0.2-.8v-0.45a0.743,0.743,0,0,1,.2-0.55v-0.4q-0.4-.9-0.6-1.3h0Zm17.5,15.6-0.4.2a1.688,1.688,0,0,0,.5.5,2.327,2.327,0,0,1,1,1.5l0.4,0.6,0.6,0.9a8.215,8.215,0,0,1,.9,2.5,0.569,0.569,0,0,1,.2.3l0.3,0.3,0.3,1.6a12.8,12.8,0,0,1,.5,1.7v0.2a2.735,2.735,0,0,0,.05,1.15,5.2,5.2,0,0,1,.15,1.15,1.88,1.88,0,0,0,.15.75,1.664,1.664,0,0,1,.15.65,12.078,12.078,0,0,1,.2,1.8v4.7a0.68,0.68,0,0,0-.1.45v0.55l-0.1.9-0.4,1.6c0,0.2-.067.3-0.2,0.3l-0.3,1.2a1.044,1.044,0,0,1-.4.7,0.838,0.838,0,0,0-.35.45,1.657,1.657,0,0,1-.25.45h-0.3a0.507,0.507,0,0,0-.5.2,0.946,0.946,0,0,1-.3.4q-0.1.1-.15,0.15a0.2,0.2,0,0,0-.05.15,2.56,2.56,0,0,1-1.3,1.2,0.5,0.5,0,0,1-.6,0,1.279,1.279,0,0,0-1,0,1.784,1.784,0,0,1-.5.2,1.064,1.064,0,0,1-.9,0,0.9,0.9,0,0,1-.6-0.6v-0.15c0-.034-0.034-0.05-0.1-0.05a35.168,35.168,0,0,0-2.6-2.9,4.51,4.51,0,0,1-.8-0.8,9.8,9.8,0,0,0-.7-0.8l-3.6-3.4-1.1-1.1a0.571,0.571,0,0,1-.2-0.4,15.732,15.732,0,0,0-1.1-1.5v-0.2a0.69,0.69,0,0,1-.3-0.4l-0.4.4a2.181,2.181,0,0,0-.8.9l-0.4.4-1.4,1.5-0.8,1a1.459,1.459,0,0,1-.45.45,1.95,1.95,0,0,0-.35.25,2.418,2.418,0,0,0-.6.8,0.578,0.578,0,0,0-.1.4,0.634,0.634,0,0,1-.4.7,8.6,8.6,0,0,1-1.9.4,4.258,4.258,0,0,1-.7.2,1.732,1.732,0,0,1-.7-0.1,1.035,1.035,0,0,1-.8-0.9,1.781,1.781,0,0,1-.5-1,6.52,6.52,0,0,0-.2-0.9,0.82,0.82,0,0,0-.2-0.6,0.968,0.968,0,0,1-.25-0.35,0.8,0.8,0,0,1-.05-0.25,1.238,1.238,0,0,1,0-.7,2.757,2.757,0,0,0,.1-0.6v-0.3a0.718,0.718,0,0,1,.4-0.9,0.807,0.807,0,0,0,.4-0.8,1.934,1.934,0,0,1,.3-1,1.768,1.768,0,0,1,.7-0.7h0.3a1.365,1.365,0,0,0,.8-0.5,11.789,11.789,0,0,1,1.6-1.4,2.709,2.709,0,0,0,.6-0.7,0.984,0.984,0,0,1,1-.1,0.177,0.177,0,0,1,.2.2l-0.1.6v0.5a2.316,2.316,0,0,0-.4,1.6,0.647,0.647,0,0,0,.7.3l0.9-.1a22.634,22.634,0,0,0,2.2-.8l1.6-.9,2.5-1.4a13.087,13.087,0,0,0,1.4-.7,0.949,0.949,0,0,1-.3,1.3l-2,1.9-0.7.6a0.549,0.549,0,0,0,.2.9c0.2,0.134.433,0.3,0.7,0.5a10.331,10.331,0,0,0,.9.6l2.8,2.4q0.7,0.4,2.4,1.6a11.79,11.79,0,0,0,2.7.8,0.354,0.354,0,0,0,.4-0.4q0.2-1.9.2-5.9l-0.2-3.2-0.4-4.1-0.3-2.3a5.066,5.066,0,0,0-.25-0.75,4.836,4.836,0,0,1-.25-0.75l-0.7-2.7v-0.4l-1.5.7a6.336,6.336,0,0,1-.7.4,6.788,6.788,0,0,0-.7.4l-1,.5q-1.2.7-2.25,1.25t-1.85,1.05l-3.7,2-4.3,1.8a0.918,0.918,0,0,1-.6,0l-1.5-.3-0.1-.1a1.367,1.367,0,0,0-1-.6,1.057,1.057,0,0,1-.7-0.25c-0.2-.166-0.334-0.283-0.4-0.35a1.811,1.811,0,0,1-.5-0.45,1.351,1.351,0,0,0-.7-0.45l-0.1-.1v-1.2l-0.1-.2a1.1,1.1,0,0,1,.1-1.2,1.766,1.766,0,0,1,1.3-.9q0.8-.3,1-0.4l1.1-.6,0.8-.7v0.4a0.4,0.4,0,0,0,.2.4c0.2,0.134.2,0.3,0,.5a0.56,0.56,0,0,0-.3.2l0.1,0.1,0.7-.3q0.7-.4,1.3-0.7,1.9-1.2,4.6-2.7l2.5-1.4q1.6-1,2.4-1.4l6.7-3.2,5.2-2.4a3.024,3.024,0,0,1,.8-0.35,4.21,4.21,0,0,0,1.1-.55c0.133-.066.283-0.15,0.45-0.25a2.44,2.44,0,0,1,.75-0.25,21.527,21.527,0,0,1,2.05-1.1q1.25-.6,1.85-0.9l2.5-1q0.9-.8,1.2-1.1l0.3-.1a2.309,2.309,0,0,0,.6-0.4,1.538,1.538,0,0,1,.6-0.2,3.5,3.5,0,0,1,1.4.1,1.738,1.738,0,0,1,.7.1,0.864,0.864,0,0,0,.6.3,0.625,0.625,0,0,1,.35.1,1.761,1.761,0,0,1,.25.2,1.566,1.566,0,0,0,.4.6,4.519,4.519,0,0,1,1,1.3,0.412,0.412,0,0,1,.1.3,3.186,3.186,0,0,1-.4,1.2,2.479,2.479,0,0,1-.7,1,5.612,5.612,0,0,1-.7.55,1.371,1.371,0,0,0-.6.75,1.1,1.1,0,0,1-.8.5,2.317,2.317,0,0,1-1,.5q-0.3.1-.75,0.3a7.527,7.527,0,0,0-1.05.6q-1.6.6-2.2,0.9a9.91,9.91,0,0,0-1.05.5,10.74,10.74,0,0,1-1.35.6,8.812,8.812,0,0,1-2.1,1l-1.4.7-1.6.8a8.77,8.77,0,0,0-2.1,1.1,0.9,0.9,0,0,0-.4.1l-0.4.2h0Zm20.9,17.6a1.2,1.2,0,0,1-.15.4,1.331,1.331,0,0,0-.15.6,3.531,3.531,0,0,1-.1,1l-0.7,1.9a1.891,1.891,0,0,1-.35.6,0.938,0.938,0,0,0-.25.6v0.2a0.844,0.844,0,0,1-.5.7,1.521,1.521,0,0,1-.4.45,1.507,1.507,0,0,0-.4.45,0.177,0.177,0,0,1-.2.2,3.249,3.249,0,0,1-.6.2,3.36,3.36,0,0,0-.9.4,0.328,0.328,0,0,1-.4-0.1l-0.3-.3-0.1-.4a1.186,1.186,0,0,0-.3-1,0.336,0.336,0,0,1-.1-0.25,0.343,0.343,0,0,0-.1-0.25l-0.3-1v-0.7a5.377,5.377,0,0,0-.1-1.2,22.8,22.8,0,0,0-.4-2.8q-0.1-.4-0.2-0.8c-0.067-.266-0.134-0.5-0.2-0.7l-1.5-3.9a0.176,0.176,0,0,1-.2-0.2q-0.2-.3-0.4-0.6t-0.4-.6c-0.067-.066-0.034-0.133.1-0.2a2.128,2.128,0,0,0,.7-0.4,0.647,0.647,0,0,1,.3-0.15,0.3,0.3,0,0,1,.3.05q0.5,0.1,1.05.25a11.31,11.31,0,0,0,1.15.25,6.7,6.7,0,0,1,2.4,1.2l0.6,0.4a4.2,4.2,0,0,1,1.4,1.6,14.073,14.073,0,0,1,.9,1.4,6.9,6.9,0,0,1,.5,1.4q0.2,0.8.3,1.3h0Zm55.9-27.3-0.1.2c-0.067.134,0.1,0.3,0.5,0.5a1.735,1.735,0,0,0,.45.15,0.888,0.888,0,0,1,.45.25,0.228,0.228,0,0,1,.05.25,0.224,0.224,0,0,0,.05.25,8.375,8.375,0,0,0-.2,1.4l-0.2,1.5a3.739,3.739,0,0,1-.1.9,3.707,3.707,0,0,0-.1.9q0,0.9-.2,3.1,0,1-.2,3.2l-0.1.4a6.839,6.839,0,0,0,.05.75,3.909,3.909,0,0,1-.05,1.05,5.476,5.476,0,0,0-.2,1.1v0.3l-0.1.1a0.125,0.125,0,0,0,0,.2,0.647,0.647,0,0,1,.15.25,0.613,0.613,0,0,0,.15.25c0.066,0.067.166,0.184,0.3,0.35a1.043,1.043,0,0,0,.5.35,5.456,5.456,0,0,0,1.3.5,0.555,0.555,0,0,0,.4.05,0.628,0.628,0,0,0,.3-0.15,4.175,4.175,0,0,0,.4-0.6c0-.066.066-0.1,0.2-0.1a3.7,3.7,0,0,0,.5-0.2l0.4-.2h0.1l0.3-1.3v-0.1l0.2,0.3a4.007,4.007,0,0,1,.75.75,0.657,0.657,0,0,0,.45.35,1.374,1.374,0,0,0,1.1.8l0.6-.1a5.343,5.343,0,0,0,2-.4q1-.4,1.2-0.5a3.354,3.354,0,0,1,1.2-.7q0.7-.3,1.4-0.55a11.575,11.575,0,0,0,1.3-.55,5.317,5.317,0,0,0,1.5-1q1.8-1.4,2.2-1.8c0.266-.266.466-0.3,0.6-0.1q3.6,1.7,3.7,1.7l0.7,0.5q-0.2.1-1.1,0.4-2.6.8-3.8,1.3l-1.4.6a16.8,16.8,0,0,0,1.8.2,8.309,8.309,0,0,0,1.5.2l0.2,0.2a0.294,0.294,0,0,1,.2.1,0.4,0.4,0,0,0,.3.1h3a12.105,12.105,0,0,1,1.8-.2,1.88,1.88,0,0,1,1,.2h0.9l0.9,0.1h0.2a5.646,5.646,0,0,0,.35-0.6l0.25-.5a1.016,1.016,0,0,0,.2-0.55,0.994,0.994,0,0,1,.1-0.45l-0.1-.7c-0.134-.133-0.167-0.2-0.1-0.2a3.68,3.68,0,0,0-.05-0.6,1.718,1.718,0,0,1,.05-0.7,0.82,0.82,0,0,0-.5-1.1,0.288,0.288,0,0,0-.2-0.2,0.284,0.284,0,0,1-.2-0.1,3.58,3.58,0,0,0-1.25-.95q-0.75-.349-1.05-0.45a7.666,7.666,0,0,0-1.5-.65,7.429,7.429,0,0,1-1.5-.65l-1.7-.7a9.085,9.085,0,0,0,1.8-3.3c0.066-.066.183-0.2,0.35-0.4a0.943,0.943,0,0,0,.25-0.6,0.412,0.412,0,0,0-.1-0.3l0.1-.4-0.1-.3a1.434,1.434,0,0,1-.45-0.45,2.031,2.031,0,0,0-.25-0.35,1.747,1.747,0,0,1-.7-0.7,4.172,4.172,0,0,0-.6-0.8l-0.3-.7-0.8-1.3a0.792,0.792,0,0,1,.1-0.5l1.9-1.1,3-1.7a11.048,11.048,0,0,0,1.5-.7,2.128,2.128,0,0,0,.7-0.4,17.923,17.923,0,0,0,1-1.8,0.579,0.579,0,0,0,0-.65,1.216,1.216,0,0,1-.2-0.55v-0.1h-0.1a2.035,2.035,0,0,0-1.5-.6,1.073,1.073,0,0,1-1.2-.4,0.477,0.477,0,0,0-.7-0.3,1.69,1.69,0,0,0-.7.7,0.716,0.716,0,0,1-.7.4,0.4,0.4,0,0,0-.5.4c0.133,0.067.1,0.2-.1,0.4a6.107,6.107,0,0,0-1.3.7l-4.7,2.5q-2,1.2-3,1.7l-0.8.3v-0.1l0.3-.9,0.5-1.8,1.4-4.7,0.9-3.6,0.3-.7a1.229,1.229,0,0,0-.7-1.8q-0.4-.2-0.85-0.45c-0.3-.166-0.65-0.35-1.05-0.55l-1-.2a2.636,2.636,0,0,0-.8-0.1,8.482,8.482,0,0,0-1.5-.2,3.193,3.193,0,0,0-.9.2,1.074,1.074,0,0,0-.6.8l0.1,0.4a0.848,0.848,0,0,1,1.3.4,1.091,1.091,0,0,0,.7.8,0.649,0.649,0,0,1,.4.3,0.429,0.429,0,0,1,0,.4q-0.1.6-.5,2.3-0.8,2.8-1.1,4.2l-1.6,7.3-0.2.3a0.791,0.791,0,0,0-.3.9,0.793,0.793,0,0,1-.1,1l0.2,0.4a3.669,3.669,0,0,0,1.3,1.8l0.6,0.3,0.2-.4a0.181,0.181,0,0,0,0-.25q-0.1-.15,0-0.15a0.744,0.744,0,0,0,.45-0.45,1.63,1.63,0,0,1,.25-0.45,6.793,6.793,0,0,0,.6-1.5,0.814,0.814,0,0,1,.6-0.5h0.4a10.268,10.268,0,0,0,2.5.3,0.691,0.691,0,0,1,.45-0.05,1.983,1.983,0,0,0,.35.05h1l1.1-.6a2.055,2.055,0,0,0,.8-0.4,11.611,11.611,0,0,1,1,2.4,0.858,0.858,0,0,1,.2.7,6.611,6.611,0,0,1-.7,1.4l-1.5,2.3-0.9,1a0.4,0.4,0,0,1-.4.2,39.48,39.48,0,0,0-4.9-.3l-3.5.1-0.2.1q0.4,0.3,2.3,1.45a14.088,14.088,0,0,0,3.9,1.65,23.676,23.676,0,0,1-3.1,2.6,11.121,11.121,0,0,1-1.7,1.4q-1.7.8-1.9,0.9l-0.8.2a3.058,3.058,0,0,1-1.2-.4,6.259,6.259,0,0,1-1.4-.6v-0.5a6.687,6.687,0,0,0,.5-1.2l0.4-.8a0.961,0.961,0,0,1,.3-0.7,3.153,3.153,0,0,0,.3-0.7,6.465,6.465,0,0,0,.35-0.85,6.419,6.419,0,0,1,.35-0.85l0.7-1.5a3.9,3.9,0,0,1,.4-0.7l0.6-1.1v-0.2a0.585,0.585,0,0,0-.3.3q-1.3,1.6-1.4,1.7-0.3.4-.65,0.95t-0.85,1.25a1.078,1.078,0,0,1-.5.4,2.167,2.167,0,0,0-.05-0.35,1.519,1.519,0,0,1,.05-0.65,3.056,3.056,0,0,0-.1-0.9l-0.1-1.2a2.717,2.717,0,0,1,.1-0.75,3.148,3.148,0,0,0,.1-0.85l-0.1-1.9c0-.066.016-0.233,0.05-0.5a0.764,0.764,0,0,1,.55-0.6l0.1-.1,0.1-.4,0.2-.6a1.648,1.648,0,0,0-1.1-.8,2.717,2.717,0,0,1-1.3-.5l-0.2-.1h-2.5a0.579,0.579,0,0,0-.8.2h0Zm-4.9,3.6a3.072,3.072,0,0,1,.05-0.5,2.345,2.345,0,0,0-.05-0.8,0.681,0.681,0,0,0-.2-0.5,7.878,7.878,0,0,1-1-1.1,6.107,6.107,0,0,0-1.2-1.4l-0.2-.2,2.4-3.1a0.29,0.29,0,0,1,.1-0.2l0.2-.2,1.8-2.3c0.133-.2.316-0.466,0.55-0.8a6.054,6.054,0,0,1,.65-0.8,3.452,3.452,0,0,1,.6-0.65q0.4-.349.7-0.65a2.262,2.262,0,0,0,.7-0.6l0.3-1.5a6.46,6.46,0,0,0-.4-1.9,0.177,0.177,0,0,0-.2-0.2,5.042,5.042,0,0,1-.9-1.3,3.062,3.062,0,0,0-1.3-1.3,8.461,8.461,0,0,1-1.6-.8l-0.4-.1a3.8,3.8,0,0,0-1.8-.3h-0.9q0.9,1.2,1,1.4a5.7,5.7,0,0,1,.6,1.7,0.916,0.916,0,0,1,.1.7l-1.4,2.1-2.2,2.9-3.8,5.2-3.5,4.9q-2.1,2.9-2.6,3.6a2.464,2.464,0,0,1-.45.55,1.619,1.619,0,0,0-.45.75,0.541,0.541,0,0,1-.25.4,0.761,0.761,0,0,1-.35.2l-0.2.6a4.136,4.136,0,0,0-.2.7,16.209,16.209,0,0,0-.2,2.1,1.753,1.753,0,0,0,.5,1.3,0.507,0.507,0,0,0,.5.2l1.1-.6,1-.9,0.8-.2a0.773,0.773,0,0,0,.9-0.2l0.8-.7,1-1.1,1-1.4,1.4-2.1,1.8-2a12.214,12.214,0,0,1,.9-1.2l0.2,0.6v2.4a11.909,11.909,0,0,0-.2,1.7,5.746,5.746,0,0,0-.05,1.3,5.861,5.861,0,0,1-.05,1.3,27.919,27.919,0,0,1-.2,3.9q0,0.5-.05,1.65a7.535,7.535,0,0,1-.35,2.05,1.108,1.108,0,0,0,.2,1.4l0.1,0.3q0.1,0.3.2,0.75a4.671,4.671,0,0,0,.4,1.05,2.857,2.857,0,0,0,1.3,1.6,0.482,0.482,0,0,0,.7-0.2q0.1-.2.35-0.6a1.105,1.105,0,0,1,.55-0.5,0.2,0.2,0,0,0,.15-0.05,0.2,0.2,0,0,0,.05-0.15,15.363,15.363,0,0,1,.8-1.8q0.1-.3.2-0.75a3.963,3.963,0,0,0,.1-0.85,14.057,14.057,0,0,1-.1-1.9,25.5,25.5,0,0,0,.1-2.6v-1.1l-0.1-4a4.392,4.392,0,0,1,.2-1.8l0.2-1.4a0.56,0.56,0,0,0-.3.2c-0.067,0-.1-0.066-0.1-0.2h0Zm48.4,19.7a3.355,3.355,0,0,0-1.5-1.4,9.187,9.187,0,0,0-2.6-1.3,3.521,3.521,0,0,0-1.1-.2,0.623,0.623,0,0,0-.35.1,0.814,0.814,0,0,1-.45.1,1.212,1.212,0,0,1-.45-0.1,1.253,1.253,0,0,0-.45-0.1,6.6,6.6,0,0,1,.6,2.8,3.589,3.589,0,0,1-.6,2.2l0.6,1.1a1.41,1.41,0,0,1,.1.6,6.73,6.73,0,0,1,.15,1.05,1.958,1.958,0,0,0,.35,1.05,1.285,1.285,0,0,1,.3.6,3.007,3.007,0,0,0,.2.6l0.6,0.6a4.634,4.634,0,0,1,.45.55,0.689,0.689,0,0,0,.55.35h0.3l0.1,0.2,0.1-.5a0.358,0.358,0,0,0,.5-0.2,1.8,1.8,0,0,0,.25-0.6,1.086,1.086,0,0,1,.55-0.7,0.936,0.936,0,0,0,.6-0.7,3.062,3.062,0,0,1,.7-0.8,0.442,0.442,0,0,0,.5-0.5,1.394,1.394,0,0,1,.1-0.6l0.5-1.7v-0.6a2.824,2.824,0,0,0-.6-1.9h0Zm-12.2,11.1v-0.15c0-.034-0.034-0.05-0.1-0.05q-1.2-1.4-1.7-2.1a1.133,1.133,0,0,1-1.3-.2l-1.5-1.2a12.645,12.645,0,0,1-2.2-2.4c-0.067-.066-0.217-0.25-0.45-0.55a2.027,2.027,0,0,0-.85-0.65,2.206,2.206,0,0,1-1.3-.7,2.583,2.583,0,0,0-1-.9,0.488,0.488,0,0,1,0-.6,1.316,1.316,0,0,0,.35-0.25,1.336,1.336,0,0,1,.35-0.25q0.9-.4,2.15-0.9a13.009,13.009,0,0,0,2.05-1,8.993,8.993,0,0,1,.95-0.5,8.8,8.8,0,0,0,.95-0.5,0.557,0.557,0,0,0,.3-0.2,6.693,6.693,0,0,0-1.4.1,25.98,25.98,0,0,0-2.8.5,21.977,21.977,0,0,0-2.6.2q-3.2.6-4.7,1a1.21,1.21,0,0,1-1.1-.1,2.254,2.254,0,0,0-.7-0.3c-0.267-.066-0.5-0.133-0.7-0.2v0.1a3.677,3.677,0,0,0,.75.45,4.088,4.088,0,0,1,.65.35h-0.2a24.928,24.928,0,0,0-2.9,1.5l-1.8,1a0.553,0.553,0,0,1-.7-0.1l-1.2-1.1a4.572,4.572,0,0,1-1.7-1.9,0.5,0.5,0,0,0-.35.25,0.451,0.451,0,0,0,.05.35,1.618,1.618,0,0,1,.2.7l-0.1,1a2.581,2.581,0,0,0,.8,1.8,1.933,1.933,0,0,1,.4.9v0.2a2.191,2.191,0,0,0,.3,1.05,1.7,1.7,0,0,0,.7.75,0.828,0.828,0,0,1,.45.1,2.962,2.962,0,0,0,.35.2,11.921,11.921,0,0,0,1.75,1.05,3.838,3.838,0,0,0,1.65.35,2.121,2.121,0,0,0,1.1-.2q0.1-.1.35-0.3a0.541,0.541,0,0,0,.25-0.4l-0.1-.3c-0.067-.066,0-0.2.2-0.4a2.419,2.419,0,0,1,.3-0.8,4.046,4.046,0,0,1,1.1-1.6,5.607,5.607,0,0,1,.85-0.7,5.561,5.561,0,0,0,.85-0.7,1.269,1.269,0,0,1,.55-0.3,0.839,0.839,0,0,1,.45.3,5.756,5.756,0,0,0,.7.8,3.079,3.079,0,0,1,.7,1,0.176,0.176,0,0,0,.2.2,0.337,0.337,0,0,1,.3.15,0.5,0.5,0,0,1,.1.25,0.569,0.569,0,0,1,.2.3,3.582,3.582,0,0,1,1,1l1.4,1.9q0.7,1.2.8,1.4l0.3,0.9a2.393,2.393,0,0,1-.6.4q-1.8,1-2.7,1.4a16.634,16.634,0,0,1-3.9,1.4,37.8,37.8,0,0,1-4.6.4,15.866,15.866,0,0,1-8.9-2.7,7.907,7.907,0,0,0-.95-0.8q-0.55-.4-1.15-0.9-0.8-.6-2.4-2a12.4,12.4,0,0,1-2-2.1,4.684,4.684,0,0,1-.6-1.3l-0.1-.4h-0.1a5.6,5.6,0,0,0-.2,1.3v0.2a11.659,11.659,0,0,0,.45,1.3c0.166,0.4.316,0.734,0.45,1q0.2,0.5.6,1.6a4.571,4.571,0,0,0,1,1.7q0.2,0.3.5,0.85a3.574,3.574,0,0,0,.5.75,8.181,8.181,0,0,0,.75.85,5.41,5.41,0,0,0,.75.65,12.341,12.341,0,0,0,4.2,3.2q1.4,0.7,2.9,1.3a12.66,12.66,0,0,0,2.9.8q1.1,0.2,3.3.4h1.2a0.566,0.566,0,0,1-.2.3h1.8c0.466,0,.7-0.167.7-0.5h0.2a3.094,3.094,0,0,0,1.4-.3,8.346,8.346,0,0,1,1.5-.2,3.515,3.515,0,0,0,1.1-.2l0.9-.3,1.3-.4v0.2a25.2,25.2,0,0,0,5.8-3.2q-0.5-.4.1-0.4a0.965,0.965,0,0,0,.8-0.7,1.785,1.785,0,0,0,.2-0.8,2.478,2.478,0,0,0-.2-1.3,0.963,0.963,0,0,0-.25-0.4,0.486,0.486,0,0,1,.15-0.7h0Zm-38.3-10.6a4.212,4.212,0,0,0-.55.05,0.735,0.735,0,0,0-.55.45l-0.1.1-0.6.4a1.739,1.739,0,0,1-1.3,1l-0.2.2-1.1,1.2q-0.8,1.1-2.6,3.1l-1.2,1.3-0.6,1a1.269,1.269,0,0,0-.35.8,3.886,3.886,0,0,1-.15.8v0.2a1.612,1.612,0,0,1,.2.7,4.934,4.934,0,0,0,1,3.4,0.893,0.893,0,0,0,.4.25,0.3,0.3,0,0,0,.3-0.05,1.693,1.693,0,0,1,.7-0.9,1.148,1.148,0,0,1,.8-0.4,1.518,1.518,0,0,1,.25-0.2,0.765,0.765,0,0,0,.25-0.3,0.4,0.4,0,0,1,.1-0.3q0.2-.3.7-1.05a5.879,5.879,0,0,0,.7-1.35,9.6,9.6,0,0,1,1.1-1.8,18.988,18.988,0,0,0,1.1-1.8l0.6-1.3a5.105,5.105,0,0,0,1.1-2.5,5.614,5.614,0,0,1,.15-1.1q0.15-.7.25-1.1l0.4-1v-0.2a1.73,1.73,0,0,1-.5.2c0,0.134-.1.2-0.3,0.2h0Zm31.4,19.1,0.1,0.2,2.3-.8v-0.1a24.01,24.01,0,0,1-2.4.7h0Zm44.4-16.3a0.407,0.407,0,0,0,0-.4,1.529,1.529,0,0,1,0-1.1,0.237,0.237,0,0,1,.2-0.25,0.3,0.3,0,0,1,.3.05l1.1,0.6a4.525,4.525,0,0,0,1.6.3,2.189,2.189,0,0,0,.9-0.4,6.117,6.117,0,0,0,.5-0.4l2.4-2.3a14.208,14.208,0,0,0,1.6-1.9l0.9-.8q0.2-.3,1.5-1.9h-0.4a1.332,1.332,0,0,1-.8.3,1.524,1.524,0,0,1-1.1-.5,9.3,9.3,0,0,1-1.4-1.3,13.088,13.088,0,0,1-1.3-1.9,2.473,2.473,0,0,1-.6-1.1q0.5-.2.4-0.5a1.615,1.615,0,0,1-.1-0.4v-0.1a3.215,3.215,0,0,0,.8.2h0.2l1.6,1.2a6.9,6.9,0,0,1,.7.4,2.446,2.446,0,0,0,.6.3l2.7,0.8a0.417,0.417,0,0,0,.7-0.2q1.5-1.9,2.5-3.4l0.2-.4a0.6,0.6,0,0,0-.8,0,1.383,1.383,0,0,1-.65.05,1.976,1.976,0,0,0-.75.05,0.822,0.822,0,0,1-.7-0.8l-0.4-.5h0.2l0.1-.1-0.7-.5q-0.4-.3-1.1-0.9a6.58,6.58,0,0,0-1.3-.9,1.949,1.949,0,0,0-.7-0.45,6.464,6.464,0,0,1-.6-0.25,8.02,8.02,0,0,0-1-.4v-0.1l0.6-.1q1.1,0,3.3.2l2.8,0.6a6.942,6.942,0,0,1,1.6.3,8.682,8.682,0,0,1,1.9.5l0.5,0.1q0.2-.3,1.5-2.5,1-1.6,3.2-4.8a16.535,16.535,0,0,1,1.4-2.4l0.4-.8v-0.3h-0.4q-2,1-3,1.6a39.97,39.97,0,0,0-4,2.6,5.8,5.8,0,0,0-1.5,1.1,1.157,1.157,0,0,0-.2.3,1.151,1.151,0,0,1-.2.3q-0.1.2-.25,0.45a2.406,2.406,0,0,0-.25.65l-0.1.1a7.324,7.324,0,0,0-1.05.3,2.688,2.688,0,0,1-.85.2h-1.7a0.586,0.586,0,0,1-.7-0.5l-0.2-.2a0.926,0.926,0,0,0-.5-1.2q-0.4-.1,0-0.8a0.726,0.726,0,0,0,0-1,0.318,0.318,0,0,1,0-.35,1.333,1.333,0,0,1,.3-0.45l1.7-.6,0.25-.25a0.408,0.408,0,0,0,.15-0.25,26.509,26.509,0,0,0,2.4-3.8q0.4-.6.95-1.55a11.166,11.166,0,0,1,1.05-1.55q0.4-.6.85-1.3t0.95-1.6l1.2-1.8a0.734,0.734,0,0,0-.1-0.8,3.413,3.413,0,0,0-.5-0.4,2.526,2.526,0,0,1-.6-0.6l-0.8-1a0.675,0.675,0,0,1-.05-0.45,2.326,2.326,0,0,0,.05-0.45,0.392,0.392,0,0,0,.4.3h0.5l1.1,0.4,0.9,0.3,0.1,0.1a3.457,3.457,0,0,1,.6.45,1.922,1.922,0,0,0,.8.45,1.2,1.2,0,0,1,.9.8l0.2,0.1a1.275,1.275,0,0,1,.8,1c0.133,0,.133.067,0,0.2a4.644,4.644,0,0,0-.25.8,2.857,2.857,0,0,1-.55,1.1,3.082,3.082,0,0,0-.2.6,1.269,1.269,0,0,1-.3.6l-2.2,3.5a2.289,2.289,0,0,0-.4.9l1.8-.9a20.783,20.783,0,0,1,2.5-1.1,8.311,8.311,0,0,1,2.1.1,7.5,7.5,0,0,0,1,.4,0.863,0.863,0,0,1,.6.7l0.1,0.2a0.817,0.817,0,0,0,.5.3l1.6,0.3q2.5,0.5,3.4.7a3.569,3.569,0,0,0,.85.3q0.45,0.1.85,0.2,0.5-2.1.6-2.3a5.317,5.317,0,0,1,.1-1.2,0.719,0.719,0,0,0-.4-0.7l-2.2-1.7-0.7-.8a0.762,0.762,0,0,1-.15-0.65,0.656,0.656,0,0,1,.25-0.55,1.215,1.215,0,0,1,1.1-.1l3.3,1.3q0.3,0.1,2.3.9a4.244,4.244,0,0,1,1.1.8,2.582,2.582,0,0,1,.6.8l-0.1.2a1.546,1.546,0,0,0-.45,1c-0.034.4-.05,0.667-0.05,0.8a12.684,12.684,0,0,0-.4,2,3.222,3.222,0,0,0-.4,1.4,0.552,0.552,0,0,0,.2.3,34.583,34.583,0,0,0,5.2,1.1,1.918,1.918,0,0,1,.6.1,1.873,1.873,0,0,0,.6.1h2a0.638,0.638,0,0,0,.5.4,3.1,3.1,0,0,1,1.2.4,0.288,0.288,0,0,1,.2.2,0.247,0.247,0,0,1,0,.3,2.008,2.008,0,0,1-.9,1.2,0.407,0.407,0,0,1-.1.3,1.227,1.227,0,0,1-.9.8l-0.7.5a3.36,3.36,0,0,0-.5.4,1.535,1.535,0,0,1-.4.3q-0.5.3-1.05,0.6a12.487,12.487,0,0,0-1.25.8q-0.2.1-4.4,2.5-0.9.5-1.7,0.9t-1.5.8a2.582,2.582,0,0,1-.55.4,2.642,2.642,0,0,0-.55.4,0.9,0.9,0,0,0-.5.8,40.662,40.662,0,0,1-3.6,5.8,17.01,17.01,0,0,1-2.8,3,8.53,8.53,0,0,1-1.9,1.9,7.548,7.548,0,0,1-.8.7,6.5,6.5,0,0,0-.7.6l-1.8,1.5a4.558,4.558,0,0,1-1.8.8l1.1-1.7a1.591,1.591,0,0,0,1.6-1.3q0.6-1,2.4-4.9l1.2-2.3,1.2-2.7v-0.2a4.241,4.241,0,0,1-1.9-.5,2.149,2.149,0,0,1-.8-0.8,0.2,0.2,0,0,1,.05-0.15c0.033-.033.016-0.05-0.05-0.05a1.555,1.555,0,0,1-.4-0.9,1.074,1.074,0,0,0-.6-0.8l-0.4-.4a6.471,6.471,0,0,1,1.9.4,3.851,3.851,0,0,0,.9.4h0.5a18.773,18.773,0,0,1,2.3-1.3,1.508,1.508,0,0,0,.5-0.6l0.5-1.75a15,15,0,0,1,.6-1.75q1.2-3.4,1.4-4l0.8-2.1a0.28,0.28,0,0,0-.2-0.4q-2-.8-3-1.1a12.048,12.048,0,0,0-1.9-.8l0.7,0.8a1.035,1.035,0,0,1-.1,1.5,1.247,1.247,0,0,0-.3.5,3.123,3.123,0,0,0-.35.75,4.827,4.827,0,0,1-.45.95l-1,2.3q-0.2.3-.5,0.8a4.122,4.122,0,0,1-.6.8,11.005,11.005,0,0,0-.7,1.1,10.815,10.815,0,0,1-.7,1.1,4.029,4.029,0,0,0-.75,1.15,13.988,13.988,0,0,1-.65,1.25l-0.8,1.3q-0.4.6-.9,1.3t-1.1,1.6l-1.4,2.1-1.4,2.2q-1.2,1.6-1.9,2.4-0.2.3-.55,0.75a8.212,8.212,0,0,1-.65.75,20.006,20.006,0,0,1-4.3,3.3q-0.5.2-1,.45l-1.1.55a7.187,7.187,0,0,1-3.5,1,3.167,3.167,0,0,0-.85.1c-0.234.067-.45,0.134-0.65,0.2a4,4,0,0,1-1.1.1,9,9,0,0,1-1.6-.1,3.567,3.567,0,0,1-1.3-.7,0.088,0.088,0,0,0,.1-0.1h0Zm47.5-34.5,0.4-.2c0.133,0,.2-0.1.2-0.3a0.329,0.329,0,0,1,0-.35,0.323,0.323,0,0,1,.4-0.05l2.5,0.3a0.163,0.163,0,0,1,.15.1,0.159,0.159,0,0,0,.15.1,3.839,3.839,0,0,0,.7.4,2.709,2.709,0,0,0,.35.5,0.875,0.875,0,0,1,.25.5,0.675,0.675,0,0,0,.2.5,1.36,1.36,0,0,1,.4,1,1.723,1.723,0,0,1-.1.7,0.976,0.976,0,0,1-.8.7,0.653,0.653,0,0,0-.3.3,1.151,1.151,0,0,1-.2.3l-0.5.9a0.482,0.482,0,0,1-.7,0,3.953,3.953,0,0,1-.5-0.6,4.013,4.013,0,0,0-.5-0.6v-0.1a0.837,0.837,0,0,1-.35-0.4,1.929,1.929,0,0,0-.35-0.5l0.1-.7c0-.066-0.034-0.316-0.1-0.75a1.464,1.464,0,0,0-.8-1.05,1.257,1.257,0,0,1-.6-0.7h0Zm-10.1,12.7,0.1,0.1,4.8-2.8q-2.2-1.1-3.2-1.7a34.377,34.377,0,0,0-1.7,4.4h0Zm-0.8,9.5-0.8-.5h0.4a12.07,12.07,0,0,0-1.5-.8,6.938,6.938,0,0,1,1.3-.1,12.638,12.638,0,0,1,2,.2,30.427,30.427,0,0,1,8.1,2.6l2.8,1.8q1,0.7,3,2.3a5.762,5.762,0,0,1,1,1.1l0.7,1.2a0.431,0.431,0,0,0,.05.2,0.164,0.164,0,0,1-.05.2,11.343,11.343,0,0,1-.9,1.1l-0.1.2a3.9,3.9,0,0,1-.5,1.1v0.2a0.345,0.345,0,0,1-.15.45,1.95,1.95,0,0,0-.35.25c0,0.067-.067.1-0.2,0.1a1.609,1.609,0,0,0-.7-0.05,5.533,5.533,0,0,1-.7.05l-0.6-.2-1-.9a6.454,6.454,0,0,0-.8-1.1,48.066,48.066,0,0,0-5.9-5.5q-1-.7-1.7-1.3t-1.2-1a13.664,13.664,0,0,1-1.3-.9c-0.334-.266-0.634-0.5-0.9-0.7h0Zm21.1,20.4a9.715,9.715,0,0,0-.9-2.3l-0.8-1.3q-1.3-.9-2.4-1.8l-1.4-.9a15.95,15.95,0,0,0-2.3-1.2,1.881,1.881,0,0,1-.75-0.15c-0.234-.1-0.417-0.183-0.55-0.25a2.893,2.893,0,0,0-1.05-.25,1.232,1.232,0,0,1-.95-0.45h-0.1a0.845,0.845,0,0,0,.3.5l0.8,0.6,2.2,2.6q0.2,0.3.9,1.2a4.725,4.725,0,0,1,.9,1.7,3.935,3.935,0,0,1,.45,1.2c0.1,0.466.183,0.8,0.25,1v0.2c-0.134.133-.167,0.216-0.1,0.25a0.16,0.16,0,0,1,.1.15,0.412,0.412,0,0,0,.15.25c0.1,0.1.116,0.183,0.05,0.25a0.764,0.764,0,0,0,0,.55,2.163,2.163,0,0,1,.1.55,6.687,6.687,0,0,1,.5,1.2,3.128,3.128,0,0,0,.4.3c0.133,0.066.333,0.15,0.6,0.25a1.672,1.672,0,0,1,.6.35l0.7,0.5a0.361,0.361,0,0,0,.5,0,2.275,2.275,0,0,1,.6-0.4,0.846,0.846,0,0,0,.5-0.7,1.2,1.2,0,0,1,.15-0.4,1.331,1.331,0,0,0,.15-0.6,1.532,1.532,0,0,0,.5-1.1v-0.2a2.489,2.489,0,0,0-.1-1.6h0Zm-19.7-6.1h-0.1l-0.5.1a4.507,4.507,0,0,1-1.5.7l-0.5-.1a7.294,7.294,0,0,0-1.4-.6,11.64,11.64,0,0,1-1.5-.6l0.1,0.1a1.59,1.59,0,0,1,.8,1.1v0.5l1,1.7,0.5,0.4a1.925,1.925,0,0,1,1.3.4l0.6,0.2a0.174,0.174,0,0,0,.15-0.15,0.83,0.83,0,0,0,.05-0.25l0.1-.4a2.081,2.081,0,0,1,.9-2.1c0.133-.133.1-0.266-0.1-0.4a0.415,0.415,0,0,1,.1-0.6h0Zm-12.5,2.1-1.5-.5a3.411,3.411,0,0,1-1.4-.2h-0.1a0.176,0.176,0,0,0,.2.2l0.4,1.4a1.676,1.676,0,0,0,.1,1.3l0.8,0.9a0.571,0.571,0,0,0,.4.4,5.249,5.249,0,0,1,1.15.4,6.368,6.368,0,0,0,1.05.4,0.7,0.7,0,0,0,.8-0.4,2.485,2.485,0,0,0,.3-1.1,1.869,1.869,0,0,0-.4-1.2,3.086,3.086,0,0,0-1.8-1.6h0Zm-11.7,1-0.5-.6a8.422,8.422,0,0,0-2,1.45q-1,.952-1.6,1.45a1.833,1.833,0,0,0-.6-0.8l-0.3-.9a3.831,3.831,0,0,0-.7-1,3.925,3.925,0,0,0-1.1-.4,0.407,0.407,0,0,1-.1.3q-0.6,1.1-.7,1.3l-0.5,1.4a5.8,5.8,0,0,0-.8,1.65,10.39,10.39,0,0,1-.5,1.35,1.669,1.669,0,0,1-.1.5,0.288,0.288,0,0,0,.1.4,6.163,6.163,0,0,0,1.3,1,0.817,0.817,0,0,0,.5.3,6.718,6.718,0,0,0,1.6.4,2.072,2.072,0,0,1,.8.1,4.176,4.176,0,0,1,1-.1h0.2a2.365,2.365,0,0,1,1.5-.4h0.35a0.36,0.36,0,0,0,.35-0.2q0.2-.2-0.3-0.4a1.892,1.892,0,0,1-.5-1.4,0.816,0.816,0,0,1,.3-0.5l1.3-2.6a1.731,1.731,0,0,0,.2-0.25,0.619,0.619,0,0,0,.1-0.35,10.288,10.288,0,0,0,.7-1.5,0.1,0.1,0,1,0,0-.2h0Zm101.5-40.8-1.2.2v-0.7a0.162,0.162,0,0,1,.1-0.15,0.16,0.16,0,0,0,.1-0.15,14.756,14.756,0,0,1,1.8-.7l0.3-.3,0.3-.6a1.363,1.363,0,0,1,1-.6,1.427,1.427,0,0,1,.8.2l0.5,0.4h1.2q0.1-.2.3,0l0.6,0.1a1,1,0,0,1,1,.4l0.3,0.2,0.2,0.1a0.763,0.763,0,0,0,.55.55,5.7,5.7,0,0,1,.65.25,0.584,0.584,0,0,1,.1.4,0.683,0.683,0,0,0,.6.5,0.744,0.744,0,0,0,.2.15q0.1,0.052.3,0.15a0.711,0.711,0,0,1,.5.7l-0.1.4a0.489,0.489,0,0,0,.4.7,1.808,1.808,0,0,1,.5.5v0.15c0,0.034-.034.05-0.1,0.05a16.044,16.044,0,0,0-1.4,1.5,2.077,2.077,0,0,0-.1.8,0.9,0.9,0,0,0-.05.5,1.67,1.67,0,0,1,.05.4v2.3a6.786,6.786,0,0,0-.05,1.4c0.033,0.4.05,0.734,0.05,1l0.1,1.3-0.1,1.3a7.515,7.515,0,0,0,.1,1.4,3.23,3.23,0,0,0,.2.8v5l0.1,1.1-0.1,3.1v3.2l0.1,0.6,0.1,1.7a2.233,2.233,0,0,1-.1.7,1.878,1.878,0,0,0-.1.6,2.752,2.752,0,0,0,.05.55,1.549,1.549,0,0,1-.05.65c0,0.2.016,0.484,0.05,0.85a1.743,1.743,0,0,1-.15.95,0.162,0.162,0,0,0-.05.2,0.453,0.453,0,0,1,.05.2v1.1a16.11,16.11,0,0,0-.1,2.1v0.2a9.854,9.854,0,0,0-.15,1.05,10.264,10.264,0,0,1-.15,1.05,0.354,0.354,0,0,1-.3.3,0.864,0.864,0,0,0-.3.6,2.122,2.122,0,0,1-.05.35,0.382,0.382,0,0,1-.45.25,0.32,0.32,0,0,0-.3.2c0,0.067-.017.1-0.05,0.1h-0.15a0.828,0.828,0,0,0-.45.1,0.75,0.75,0,0,0-.25.4l-0.1.5a0.451,0.451,0,0,1-.15.4,0.5,0.5,0,0,1-.25.1,0.534,0.534,0,0,0-.4.3l-0.5.5a0.551,0.551,0,0,0-.3.2,0.361,0.361,0,0,1-.5,0,1.3,1.3,0,0,0-.3.05,0.927,0.927,0,0,1-.5-0.05c-0.134-.067-0.284-0.134-0.45-0.2s-0.35-.134-0.55-0.2l-0.1-.1-0.8-.3-3.6-1.4a16.921,16.921,0,0,0-2.3-.7,0.842,0.842,0,0,1-.5-0.7l-0.3-.1-1-.5a0.861,0.861,0,0,0-.5-0.9,17.684,17.684,0,0,1-1.8-1,2.763,2.763,0,0,1-.6-0.5l-0.7-.8-2.2-2q-0.4-.4-0.7-0.75t-0.5-.55l-0.5-1a0.569,0.569,0,0,1,.2-0.6c0-.066.033-0.083,0.1-0.05a0.427,0.427,0,0,0,.2.05l2.5,1.7,0.8,0.3,2.3,1a15.963,15.963,0,0,0,3.1.8,26.784,26.784,0,0,0,2.8.2l2-.1a1.774,1.774,0,0,0,1.05-.6,1.867,1.867,0,0,0,.45-1.3,0.412,0.412,0,0,0-.1-0.3,7.376,7.376,0,0,0,.3-1.9l-0.1-1.9a21.151,21.151,0,0,0,.05-2.45q-0.051-1.05-.05-1.75,0-3.1-.1-4.6l0.1-2.5v-5l-0.1-4.3,0.1-3v-4.4l0.1-1.2a0.393,0.393,0,0,0-.3-0.4,4.741,4.741,0,0,1-1.05-.35q-0.55-.248-1.15-0.45h0Zm34.2,32v1.5a0.679,0.679,0,0,0-1,.7v0.3a1.529,1.529,0,0,0-.2.6l-0.3.7-0.6,1.1a2,2,0,0,1-.2.45,1.647,1.647,0,0,1-.2.25c-0.134.2-.267,0.267-0.4,0.2a0.814,0.814,0,0,1-.45-0.1,3.607,3.607,0,0,0-.35-0.2,6.776,6.776,0,0,1-1.4-1.4l-0.2-.2a2.927,2.927,0,0,1-1.9-1.9,1.1,1.1,0,0,0-.4-0.5,8.973,8.973,0,0,1-.45-1.15,2.744,2.744,0,0,0-.55-1.05,3.968,3.968,0,0,1-.75-1.45c-0.167-.566-0.284-0.95-0.35-1.15l-1.4-2.8a6.153,6.153,0,0,0-.7-1.3,4.206,4.206,0,0,0-2.3-1.9,13.716,13.716,0,0,0-2.3-1.5,0.682,0.682,0,0,0-.5-0.2l-0.4-.4a6.347,6.347,0,0,0,.65-0.05,1.8,1.8,0,0,1,.75.05h3.3a8.618,8.618,0,0,0,1.3.2l1,0.2a12.5,12.5,0,0,1,2.8.8,3.094,3.094,0,0,1,1.8,1.1l1.4,1.4,0.9,1.1,0.1,0.1a0.29,0.29,0,0,1,.4.1,1.1,1.1,0,0,0,.2.3,6.454,6.454,0,0,1,.8,1.1q0.1,0.2,1.1,1.7a2.057,2.057,0,0,0,.3.95,4.228,4.228,0,0,1,.4.95c0.066,0.134.133,0.267,0.2,0.4a0.9,0.9,0,0,1,.1.4,0.407,0.407,0,0,1-.1.3,0.408,0.408,0,0,0-.1.3h0Zm-42.3-11.4h0.4a2.02,2.02,0,0,1-1.1,1.5,0.549,0.549,0,0,0-.3.6l-1,1.1v0.2a0.449,0.449,0,0,1-.15.4,1.706,1.706,0,0,0-.25.2q-1.5,1.2-1.4,1.1a2.585,2.585,0,0,0-.65.7,3.462,3.462,0,0,1-.45.6,5.7,5.7,0,0,1-1,1.2q-0.1.2-.2,0.45a1.74,1.74,0,0,1-.4.55,3.4,3.4,0,0,0-.5,1.1,3.387,3.387,0,0,1-.5,1.1,6.9,6.9,0,0,0-.65.95,3.371,3.371,0,0,1-.55.75,4.64,4.64,0,0,0-.6,1.9,0.407,0.407,0,0,1,0,.4,0.718,0.718,0,0,0-.8-0.4l-0.8.3a3.262,3.262,0,0,1-1,.2,1.105,1.105,0,0,1-.5-0.1l-0.2-.2a10.957,10.957,0,0,1-.7-1.5,1.985,1.985,0,0,1-.3-1.2v-0.6a0.408,0.408,0,0,1,.1-0.3v-0.15c0-.033-0.034-0.05-0.1-0.05a11.3,11.3,0,0,1-.6-1.1,3.03,3.03,0,0,0-1-1.2l-0.6-.9a0.921,0.921,0,0,1-.05-0.8,1.086,1.086,0,0,1,.55-0.7l1.6-.6a0.641,0.641,0,0,0,.6-0.4,11.187,11.187,0,0,1,1.4-2.4,4.757,4.757,0,0,0,1.4-2.1c0-.133.1-0.2,0.3-0.2,0.266,0,.4.067,0.4,0.2a1.158,1.158,0,0,1,.4.8,1.121,1.121,0,0,1-.1.5,2.393,2.393,0,0,0-.1.75v0.65a3.5,3.5,0,0,0-.1,1c0,0.134.05,0.2,0.15,0.2a0.338,0.338,0,0,0,.25-0.1q0.5-.2,2.9-1.4l2-.9q0.4-.2.85-0.4t0.85-.4a21.806,21.806,0,0,1,2.5-1.3h0Zm99.7,4.6-0.2-.2-0.7-.5-0.2-.1q-0.6-.2-1.4-0.4a27.817,27.817,0,0,0-2.9-.5,11.573,11.573,0,0,0-1.55-.25q-0.651-.049-1.05-0.05h-0.7a3.188,3.188,0,0,0-.05-0.5,0.465,0.465,0,0,1,.05-0.4,0.772,0.772,0,0,1,.1-0.3,0.891,0.891,0,0,0,.1-0.4,4.184,4.184,0,0,1-.1-1v-8.2l0.1-.3a1.91,1.91,0,0,1,.5-0.35,2.35,2.35,0,0,0,.6-0.45q0.4-.3,2-1.2l0.1-.3,0.5-.4a1.488,1.488,0,0,0,.75-0.5,3.505,3.505,0,0,1,.65-0.6h-0.4c-0.2,0-.234-0.1-0.1-0.3,0.133-.4.266-0.766,0.4-1.1a0.88,0.88,0,0,0,.05-0.95,1.369,1.369,0,0,0-.85-0.75,18.122,18.122,0,0,0-2.7-.8,0.4,0.4,0,0,1-.3-0.1,3.371,3.371,0,0,1-.65-0.1,7.3,7.3,0,0,1-.75-0.2,0.4,0.4,0,0,1-.4-0.5q-0.2-3.2-.2-4.9a11.849,11.849,0,0,1,.1-1.8l0.1-2.6a0.209,0.209,0,0,0-.05-0.15c-0.034-.033-0.084-0.016-0.15.05a0.911,0.911,0,0,1-.6-0.45,1.333,1.333,0,0,1-.2-0.45,0.288,0.288,0,0,0-.2-0.2,7.828,7.828,0,0,0-1.3-.9l-1.2-.4a9.519,9.519,0,0,0-2.6-.6,3.3,3.3,0,0,0-1,.2c-0.134.2-.034,0.434,0.3,0.7a11.216,11.216,0,0,1,1.7,1.4c0.133,0,.2.134,0.2,0.4v2.1a8.3,8.3,0,0,1-.1,1.25,8.192,8.192,0,0,0-.1,1.25c0,0.2.016,0.517,0.05,0.95a3.419,3.419,0,0,1-.05,1.05v0.9a9.307,9.307,0,0,1-1.7-.7,1.651,1.651,0,0,0-.8,0c0.333,0.2.683,0.434,1.05,0.7s0.75,0.567,1.15.9a0.569,0.569,0,0,1,.2.3,24.22,24.22,0,0,1,.1,2.5l0.1,2.1,0.1,0.9v0.2a2.219,2.219,0,0,0-.2,1v0.3l-0.1.5-2,1.5-1.9,1.4a7.525,7.525,0,0,0-1.3,1.1l-2.6,1.8a0.9,0.9,0,0,1-.7.1,8.579,8.579,0,0,0-1.15-.3q-0.55-.1-1.05-0.2a0.757,0.757,0,0,0,.1.3,0.281,0.281,0,0,0,.2.2,1.492,1.492,0,0,1,.4,1.1,1.326,1.326,0,0,0,.3.8,1.808,1.808,0,0,0,.8.6,6.928,6.928,0,0,0,2.5.5h1a1.948,1.948,0,0,0,1.5,0,18,18,0,0,1,1.8-1,2.811,2.811,0,0,0,.6-0.5l0.5-.3c0.133,0,.2.034,0.2,0.1l-1.2,1.5a1.08,1.08,0,0,1-.4.5l-1,1.4a13.077,13.077,0,0,1-1.5,2.1l-1.1,1.6-1,1.4q-0.3.4-1.2,1.7l-1.4,2.1-0.9,1.5-1.7,2.8-0.9,1.3a22,22,0,0,0-1,2.1,12.953,12.953,0,0,0-.7,1.6l-0.5,1a1.52,1.52,0,0,0,.6-0.2,0.406,0.406,0,0,0,.3-0.1l2.2-2.1a30.5,30.5,0,0,0,2.4-2.8l0.9-.7q0.1,0.2.2,0.45a1.8,1.8,0,0,1,.1.65q1.1,1.9,1.3,2.2a11.574,11.574,0,0,0,1.1,2.1q0.3,0.5,1.5,2.5a19.389,19.389,0,0,0,1.2,1.7q1.3,1.4,2.7,2.7a9.04,9.04,0,0,0,2.1,1.3,3.438,3.438,0,0,0,1.4.2h0.5a0.648,0.648,0,0,0,.7-0.3,1.218,1.218,0,0,1,.55-0.3,2.2,2.2,0,0,1,.45-0.1,1.045,1.045,0,0,0,1.1-.9v-0.6l0.3-1.1a0.323,0.323,0,0,1,.15-0.35,0.449,0.449,0,0,1,.35.05v-5.5a3.164,3.164,0,0,0-.1-0.85,2.7,2.7,0,0,1-.1-0.75l0.1-.9q-0.2-2.4-.4-4a12.3,12.3,0,0,0-.2-1.9,21.025,21.025,0,0,1-.2-2.4q0-.4.4-0.2,3.8,0.6,5.2.8a3.016,3.016,0,0,0,.9-0.1,0.584,0.584,0,0,1,.4-0.1h0.8l0.2-.8a1.933,1.933,0,0,0,.4-0.9,0.412,0.412,0,0,0-.1-0.3,1.112,1.112,0,0,1,.1-0.5l0.1-.3h-0.1Zm31.8-13.3a0.816,0.816,0,0,1-.3-0.5,0.427,0.427,0,0,0-.4-0.4l-1.7-.2a4.215,4.215,0,0,0-1.9.4h-0.3l-0.8.2a2.587,2.587,0,0,0-.6.6,5.773,5.773,0,0,1-.5.6,0.392,0.392,0,0,1-.4.3,0.587,0.587,0,0,1-.5-0.3l-0.2-.2a1.376,1.376,0,0,0-.9,1.2,0.533,0.533,0,0,1-.3.4q-0.6.2-1.4,0.45t-1.7.45a7.639,7.639,0,0,1-2,.2,0.652,0.652,0,0,1-.6-0.5,2.1,2.1,0,0,0-.1-0.8v-0.5a0.644,0.644,0,0,0-.4-0.6,1.421,1.421,0,0,0,.4-0.5,3.056,3.056,0,0,0,.1-0.9v-0.2l0.3-1.1a1.243,1.243,0,0,0,.05-0.6,0.8,0.8,0,0,1,.05-0.5,10.568,10.568,0,0,1,.1-1.2q0.1-.8.2-1.3a6.157,6.157,0,0,1,.5-1.6,0.177,0.177,0,0,1,.2-0.2l1.3-.5q0.5-.1,1.5-0.35a6.659,6.659,0,0,0,1.7-.65l2.1-1.4a6.284,6.284,0,0,0,1.7-2.3,0.584,0.584,0,0,0-.1-0.4,2.128,2.128,0,0,0-1.3-1.2,1.808,1.808,0,0,1-.8-0.6q-0.1-.2-0.15-0.3a0.265,0.265,0,0,0-.3-0.05,2.007,2.007,0,0,1-.35.05,0.952,0.952,0,0,1-.7-0.1,2.261,2.261,0,0,1-.8-0.15,1.92,1.92,0,0,0-.6-0.15,1.732,1.732,0,0,0-.7.1l-1.1.6a12.714,12.714,0,0,1,1.6.9l-2.9,3.2-0.1-.1v-0.6l0.3-2.4a5.533,5.533,0,0,0,.2-1.1,1.546,1.546,0,0,0-.2-0.6,0.3,0.3,0,0,1-.05-0.3,1.379,1.379,0,0,0,.05-0.3l-0.1-.4-0.4-.5-1-.9a3.558,3.558,0,0,0-.8-0.5,0.644,0.644,0,0,0-.6-0.4,1.02,1.02,0,0,0-.55-0.2,0.983,0.983,0,0,1-.45-0.1c-0.2-.066-0.384-0.133-0.55-0.2s-0.317-.133-0.45-0.2a1.75,1.75,0,0,0-.2.5,6.1,6.1,0,0,0-1.1-.5,7.661,7.661,0,0,0,1,1.4,1.641,1.641,0,0,1,.5,1.2,2.617,2.617,0,0,1-.1.8l-0.8,4.4a3.6,3.6,0,0,1-.3,1.6,0.774,0.774,0,0,1-.55,0,1.253,1.253,0,0,0-.45-0.1,10.425,10.425,0,0,1-2.3-.6q-0.6-.3-3.8-2l-1-.3,0.2,0.9-0.5-.2a0.508,0.508,0,0,1-.5-0.5,1.843,1.843,0,0,0-.6-1,10.448,10.448,0,0,0-1.7-1,1.482,1.482,0,0,0-.7-0.5,2.276,2.276,0,0,1-1.3-.5,2.2,2.2,0,0,0-1.6,0q0,0.6-.6.3-0.5-.2-0.6.1a0.4,0.4,0,0,0,.3.1,0.961,0.961,0,0,1,.9.6l0.6,0.8a0.584,0.584,0,0,1,.1.4q0.1,0.9.1,2.8l-0.1,2.5v2.2l-0.1,6.5,0.1,3.3v0.8a3.151,3.151,0,0,0-.2.9,1.384,1.384,0,0,0,.1.6,3.183,3.183,0,0,1,.2.7,0.93,0.93,0,0,0,.5.7,0.159,0.159,0,0,0,.1.15,0.163,0.163,0,0,1,.1.15,2.06,2.06,0,0,0,1.6,1.1,5.3,5.3,0,0,0,1.2-.1,10.916,10.916,0,0,0,2.8-1.4l0.9,1.3a0.491,0.491,0,0,1,0,.6l-1.4,2.3-2.1,3.1a10.244,10.244,0,0,0-.6,1.15,3.134,3.134,0,0,1-1.2,1.35,0.653,0.653,0,0,0-.3.3,1.151,1.151,0,0,1-.2.3,0.758,0.758,0,0,0-.2,1v0.3l0.3-.2a4.512,4.512,0,0,0,.05.65,2.593,2.593,0,0,1-.05.85,29.873,29.873,0,0,0,.2,6.2q0.2,1.5.8,4.5l0.9,2.1a7.555,7.555,0,0,0,1.6,2,1.425,1.425,0,0,0,.8.2,0.537,0.537,0,0,0,.6-0.4v-0.3l-0.1-.3h0.1a2.45,2.45,0,0,1,1.1.9,2.205,2.205,0,0,0,1.6.7,1.738,1.738,0,0,0,.7-0.1,20.928,20.928,0,0,0,4.2-1.3,1.873,1.873,0,0,1,.35-0.25,0.89,0.89,0,0,0,.35-0.35,0.472,0.472,0,0,1,.5-0.4,13.886,13.886,0,0,0,2.6,2.1q0.4,0.3,1.15.95a2.93,2.93,0,0,0,1.55.75l1.3,0.1v-0.1l0.4-.1a4.114,4.114,0,0,0,.55-0.1,0.916,0.916,0,0,0,.65-0.5l0.1-.1,1.3-.7,0.7,0.3a1.043,1.043,0,0,0,.7-0.4,2.247,2.247,0,0,0,.3-0.8,0.406,0.406,0,0,1,.3.1c0-.2.066-0.3,0.2-0.3l0.4-.9,0.4-1.5a2.36,2.36,0,0,1,.1-0.65,2.187,2.187,0,0,0,.1-0.55v-0.2a0.99,0.99,0,0,1-.15-0.7c0.033-.266.05-0.433,0.05-0.5l0.3-1.5a0.949,0.949,0,0,0,.05-0.55,0.936,0.936,0,0,1,.05-0.55,1.257,1.257,0,0,0,0-1,0.089,0.089,0,0,1,.1-0.1,0.088,0.088,0,0,0,.1-0.1,11.983,11.983,0,0,0,.1-1.8,4.014,4.014,0,0,1,.1-1.1,8.431,8.431,0,0,0,.2-1.5,1.41,1.41,0,0,0-.1-0.6v-0.2l0.1-.4-0.2-1.1v-1.8a3.243,3.243,0,0,0-1.2-2.4,0.855,0.855,0,0,0-.45-0.35,3.923,3.923,0,0,1-.65-0.35l-0.4-.1c-0.2-.133-0.434-0.283-0.7-0.45s-0.567-.35-0.9-0.55a4.62,4.62,0,0,1-1.3-1.2l-0.8-.4a6.085,6.085,0,0,0-1.8.2q-0.9.2-1.7,0.45t-1.6.45a14.711,14.711,0,0,0-5.4,2.3,2,2,0,0,0-.7.6,0.845,0.845,0,0,1-.5.5,3.963,3.963,0,0,1-.65.35,4.045,4.045,0,0,0-.65.35,0.774,0.774,0,0,0-.2.9l1.3-.6a1.362,1.362,0,0,1,.9-0.2,0.8,0.8,0,0,1,.5-0.1,2.387,2.387,0,0,0,.75.1,1.569,1.569,0,0,1,.65.1,2.765,2.765,0,0,0,1.2.2,3.492,3.492,0,0,0,1-.1,4.918,4.918,0,0,0,1.05-.15q0.649-.15.95-0.25a10.09,10.09,0,0,0,1.95-.6q0.95-.4,1.25-0.5a8.324,8.324,0,0,0,1.4-.2,3.539,3.539,0,0,1,.1,1,24.319,24.319,0,0,1-.4,3.7,17.483,17.483,0,0,0-.4,2.5q-0.1,1.1-.5,3.8l-0.5,2.6a0.176,0.176,0,0,1-.2.2,5.417,5.417,0,0,1-1.2.2q-1,.2-3.2.4a1.8,1.8,0,0,1-1.7-.2,6,6,0,0,1-1.9-1.5l1.1-1.2,1.5-1.3,0.9-.8,0.7-.7a1.941,1.941,0,0,0,1-.4l0.4-.1a6.564,6.564,0,0,0,1.2-.5,0.751,0.751,0,0,0,.3-0.25,1.6,1.6,0,0,1,.2-0.25l0.3-.7a1.152,1.152,0,0,0,.4-0.8l-0.1-.4a1.344,1.344,0,0,0-1-.7h-0.6a1.5,1.5,0,0,1-1.4-.3,0.969,0.969,0,0,0-.45-0.2,0.839,0.839,0,0,0-.45.3,1.786,1.786,0,0,1-.9.6l-2.4.6a19.372,19.372,0,0,0-4.8,1.9c-0.134.067-.317,0.15-0.55,0.25s-0.484.217-.75,0.35a0.575,0.575,0,0,1-.4-0.1,2.019,2.019,0,0,1-.9-1.8,3.106,3.106,0,0,0-.2-1.3,2.859,2.859,0,0,0-.3-0.85,3.555,3.555,0,0,1-.3-0.65,4.093,4.093,0,0,1-.2-0.7,0.451,0.451,0,0,0-.15-0.4,1.518,1.518,0,0,1-.25-0.2,1.594,1.594,0,0,1-.7-0.2l0.7-.7c0.2-.133.383-0.266,0.55-0.4s0.35-.266.55-0.4l0.9-.8,1-.9a2.164,2.164,0,0,1,.7-0.4l0.5-.2,1.6-.8a0.406,0.406,0,0,0,.7,0,7.467,7.467,0,0,1,1.3-.8,2.164,2.164,0,0,0,1.3-.95q0.5-.75.7-1.05l-0.8-.9a3.137,3.137,0,0,0-1.1-.8l-0.7-.5h0.8a3.256,3.256,0,0,0,1,.2v0.4h0.2l1.5-.3,1.7-.2a12.627,12.627,0,0,1,2-.2h0.5a4.21,4.21,0,0,0,1.3,0l2.8-.5q1.9-.5,2.2-0.6a15.8,15.8,0,0,0,1.8-.65q0.8-.349,1.4-0.55a6.04,6.04,0,0,0,1.5-.8l1.8-1.2a1.468,1.468,0,0,0,.5-0.7,5.821,5.821,0,0,0,.6-1.7v-0.3a2.2,2.2,0,0,1-.1-0.7h0Zm-27.3-9.6a4.415,4.415,0,0,0-.1-0.95q-0.1-.45-0.2-0.75v-1.1l0.9,0.7a19.912,19.912,0,0,1,1.7,1.2l1.6,1.5a0.415,0.415,0,0,1-.1.6q-2.4,1.8-3.7,2.6v-1q0-1.8-.1-2.8h0Zm0.8,12.5h-0.3a1.513,1.513,0,0,1-.2-0.6l0.3-2.1v-0.4a0.914,0.914,0,0,1,.7-0.6,4.731,4.731,0,0,1,.8-0.25,1.9,1.9,0,0,0,.9-0.45q0.2-.1.85-0.45a1.673,1.673,0,0,0,.85-1.05,1.786,1.786,0,0,0,1.25-.55,1.718,1.718,0,0,0,.85-1.15,0.4,0.4,0,0,0,.5-0.2,1.128,1.128,0,0,1,.4-0.4,1.784,1.784,0,0,1,.2.5,1.967,1.967,0,0,1,.05.75,4.529,4.529,0,0,0-.05.65,0.29,0.29,0,0,0-.1.2,0.283,0.283,0,0,1-.2.2,16.822,16.822,0,0,1-2.6,2.5q-2.2,1.8-3.3,2.8Zm4.9,4.8-0.2-.4a0.953,0.953,0,0,0-.8-0.4,2.722,2.722,0,0,1-1.05,0,7.406,7.406,0,0,0-1.05-.1,0.41,0.41,0,0,0-.3.1,0.616,0.616,0,0,1-.8.2l0.7-.5a1.316,1.316,0,0,0,.35-0.25l0.35-.35,1.8-1.6a0.842,0.842,0,0,0,.35-0.4,1.683,1.683,0,0,1,.25-0.4,5.441,5.441,0,0,0,1.6-1.8,2.944,2.944,0,0,1,.7-0.8l0.7,2.8a6.394,6.394,0,0,0,1.9,2.5,6.779,6.779,0,0,1-2.65,1.05q-1.45.251-1.85,0.35h0Zm-24.7,2.3h0.1l0.1,0.4a2.393,2.393,0,0,0-.1.75v0.65c0,0.2-.067.3-0.2,0.3l-2,.5a0.162,0.162,0,0,1-.2.05,0.454,0.454,0,0,0-.2-0.05,34.884,34.884,0,0,1,2.5-2.6h0Zm0.4,20.1a1.121,1.121,0,0,1-.1.5l-0.6-.2a4.616,4.616,0,0,0-1.2-1.3,0.89,0.89,0,0,0-.35-0.35,2.265,2.265,0,0,1-.45-0.35l-0.6-.6a5.719,5.719,0,0,0-.8-0.9,2.392,2.392,0,0,0-.4-0.6,1.51,1.51,0,0,1-.3-0.4l-1.3-1.6-0.4-.4a3.963,3.963,0,0,0-.4-0.9q0-.4-0.5-0.2a0.451,0.451,0,0,0-.05-0.45,0.892,0.892,0,0,0-.35-0.35l-0.2-.1a1.6,1.6,0,0,0-.5-0.9,0.889,0.889,0,0,1,.3-1q1.8-2.6,2.3-3.2,0.2-.3.9-1.3a1.388,1.388,0,0,1,1.1-.7h0.2a5.914,5.914,0,0,0,1-.2h1.3a6.953,6.953,0,0,1,1.3.1v6.5q0,4.3.1,6.5l-0.1.4a13.9,13.9,0,0,1,.1,2h0Zm19.9-3.7q1.3-.5,4.1-1.3l2-.5a26.1,26.1,0,0,1-1.5,3.1q-0.1-.1-0.75-0.65a3.588,3.588,0,0,0-1.45-.75l0.3,0.3a2.766,2.766,0,0,1,1,1.8h-0.4c0,0.2.033,0.3,0.1,0.3,0.266,0.134.266,0.4,0,.8a6.28,6.28,0,0,0-.4.5,1.253,1.253,0,0,1-.7.5,9.055,9.055,0,0,1-1.7.4q-0.5-2.5-.6-2.8a3.711,3.711,0,0,1-.2-0.5,2.2,2.2,0,0,1-.1-0.7c0-.333.1-0.5,0.3-0.5h0Zm11.3,5.4a2.031,2.031,0,0,0,.25-0.35,1.434,1.434,0,0,1,.45-0.45,1.167,1.167,0,0,0,.7-0.8,1,1,0,0,1,.7-0.5h0.1a3.186,3.186,0,0,1-.2.9,8.449,8.449,0,0,1-.2,1.5,0.507,0.507,0,0,1-.8.4l-0.8-.3-0.2-.2a0.125,0.125,0,0,1,0-.2h0Zm-8.8-.2a3.539,3.539,0,0,1,.6-1.1q0.4-.5.6-0.7a0.416,0.416,0,0,1,.6.1,6.039,6.039,0,0,0,.7.9,15.938,15.938,0,0,1-2.5.8h0Z"/>
</svg>
