<svg xmlns="http://www.w3.org/2000/svg" width="900" height="140" viewBox="0 0 900 140">
  <defs>
    <style>
      .cls-1 {
        fill-rule: evenodd;
      }
    </style>
  </defs>
  <path id="演示夏行楷" class="cls-1" d="M213.59,29.041a2.583,2.583,0,0,1,.9,1.3,1.952,1.952,0,0,1,.25.65,2.773,2.773,0,0,0,.45.95,5.958,5.958,0,0,1,.5,1.5l-0.1.6a4.553,4.553,0,0,1-.65,2.15,2.3,2.3,0,0,1-1.25,1.05,0.96,0.96,0,0,0-.55.3,1.213,1.213,0,0,0-.15.7,0.586,0.586,0,0,0,.25.55,6.173,6.173,0,0,0,1.55.35,2.491,2.491,0,0,1,1,.4,1.594,1.594,0,0,0,.7.2,0.265,0.265,0,0,1,.3.3,1.154,1.154,0,0,0,.9.4,15.737,15.737,0,0,0,1.9.3q0.6,0.1.85,0.15c0.166,0.034.25,0.084,0.25,0.15l-0.1.6c0,0.134.166,0.1,0.5-.1a1.708,1.708,0,0,1,.8-0.3l0.7-.4a1.791,1.791,0,0,1,.9-0.3,0.884,0.884,0,0,0,.4-0.1,0.283,0.283,0,0,0,.2-0.2,5.624,5.624,0,0,0-.2-1.85,7.145,7.145,0,0,0-.6-1.95,2.1,2.1,0,0,1-.3-1.1,1.953,1.953,0,0,0-.4-1,2.275,2.275,0,0,1-.5-0.9,8.76,8.76,0,0,0-1.7-2.05,8.969,8.969,0,0,0-1.8-1.65,1.374,1.374,0,0,1-.9-0.5,3.927,3.927,0,0,0-1.2-.45,17.075,17.075,0,0,0-2.2-.25,3.256,3.256,0,0,1-.8-0.1,2.809,2.809,0,0,0-.6-0.1Zm20,9.9q-2.8.5-7.3,1.8a23,23,0,0,1-4.3,1.2,67.826,67.826,0,0,0-7.05,1.9,29.067,29.067,0,0,0-4.95,1.8,2.483,2.483,0,0,1-1.1.6,2.993,2.993,0,0,0-1.5.8,3.518,3.518,0,0,1-1.3.7l-0.6.2,0.6,0.4a1.791,1.791,0,0,0,.9.3l1.1-.1,1.2-.1a3.134,3.134,0,0,1,1.3.4,3.242,3.242,0,0,0,.9.3,1.389,1.389,0,0,0,.6-0.1,1.611,1.611,0,0,1,.9-0.1,11.247,11.247,0,0,0,2.1-.5,37.4,37.4,0,0,1,9.5-1.6,11.207,11.207,0,0,0,2.9-.7q0.6-.2,1.3-0.4t1.2-.3a1.052,1.052,0,0,1,.4.05,0.468,0.468,0,0,1,0,.45,2.676,2.676,0,0,1-.7,1.4,30.036,30.036,0,0,0-2,2.4,12.278,12.278,0,0,1-2,2.1l-0.7.6-1.2-.3a13.531,13.531,0,0,0-2.2-.2h-2.9l-1,.9a5.8,5.8,0,0,1-4.1,1.7,18.035,18.035,0,0,1-3.6-.5c-0.734-.2-1.1-0.166-1.1.1a0.842,0.842,0,0,0,.5.5,3.466,3.466,0,0,0,1.1.8,7.549,7.549,0,0,1,1.9,1.6,8.793,8.793,0,0,0,1.8,1.35,6.708,6.708,0,0,0,1.8.55l0.9,0.2-0.9.1q-1.4.3-1.4,0.9c0,0.267-.067.4-0.2,0.4a0.177,0.177,0,0,0-.2.2c0,0.067.133,0.1,0.4,0.1a1,1,0,0,1,1.05.2,1.524,1.524,0,0,1,.45,1.2,0.8,0.8,0,0,1-.65.55q-0.651.251-2.45,0.85l-3.2.7a4.882,4.882,0,0,0-2.4.7,1.144,1.144,0,0,1-.9.5h-0.4a1.524,1.524,0,0,0-.7,1.1,27.555,27.555,0,0,0-.8,6,8.02,8.02,0,0,0,.2,2.2l0.3,1.7a5.487,5.487,0,0,0,1.5,3.6q0.9,1.1,1.1.9a1.975,1.975,0,0,1,1.1.3,2.871,2.871,0,0,1,1.2,1.6,3.838,3.838,0,0,0,1.25,1.7,6.536,6.536,0,0,0,2.45.6,8.871,8.871,0,0,0,2.8-.2,3.894,3.894,0,0,1,1.5-.4,2.653,2.653,0,0,0,1.2-.5,3.9,3.9,0,0,1,1.4-.5,0.865,0.865,0,0,1,.9.7,1.4,1.4,0,0,0,1.2.6,5.073,5.073,0,0,1,1.3.3,0.785,0.785,0,0,0,.5.1,0.413,0.413,0,0,1,.3.1,0.294,0.294,0,0,1,.1.2,0.627,0.627,0,0,0,.85.2,4.194,4.194,0,0,0,1.45-.9,0.637,0.637,0,0,1,.55-0.25q0.249,0.052.05,0.45c-0.334.334-.35,0.4-0.05,0.2a6.341,6.341,0,0,0,.95-0.8,2.407,2.407,0,0,1,1.1-.8,4.209,4.209,0,0,0,1.7-1.3,4.347,4.347,0,0,1,1.5-1.3,0.622,0.622,0,0,0,.6-0.25,6.666,6.666,0,0,0,1-1.25l1.4-2.5,1.6-2.9a10.461,10.461,0,0,0,1.2-4.7,13.43,13.43,0,0,0-.05-1.35,1.727,1.727,0,0,0-.35-0.85,1.939,1.939,0,0,1-.4-1,1.445,1.445,0,0,0-.5-1,10.277,10.277,0,0,1-1.2-1.7,8.528,8.528,0,0,0-3.5-3.1,4.249,4.249,0,0,0-1.2-.5,10,10,0,0,0-1.7-.1,32.817,32.817,0,0,0-3.9.3q-2.4.3-4.2,0.7a8.417,8.417,0,0,1-1.6.3,0.645,0.645,0,0,1-.6-0.7,1.236,1.236,0,0,1-.1-0.8l1.8-1q3.5-1.8,3.7-2.8l0.4-.8a1.13,1.13,0,0,0,.2-0.9,1.717,1.717,0,0,1,.05-1.3,4.128,4.128,0,0,1,1.65-.7q3.6-.8,3.9-0.5,0.2,0.3.6,0a9.56,9.56,0,0,1,3.3-1,4.172,4.172,0,0,1,1.6.2,1.92,1.92,0,0,0,.9.4,8.258,8.258,0,0,0,2.6-1,13.365,13.365,0,0,1,1.4-.5l0.4,0.1a0.878,0.878,0,0,0,.4.1,0.537,0.537,0,0,0,.4-0.3,1.914,1.914,0,0,1,1.1-.8,1.139,1.139,0,0,0,.8-0.9,8.5,8.5,0,0,0-.2-0.9,4.524,4.524,0,0,1-.4-1.5,2.506,2.506,0,0,0-.3-1.3,6.779,6.779,0,0,0-1-1.2,9.583,9.583,0,0,1-1.2-1.4,0.849,0.849,0,0,0-.5-0.5,0.745,0.745,0,0,1-.45-0.2,3.292,3.292,0,0,1-.55-0.6,7.927,7.927,0,0,0-1.7-1.1,3.77,3.77,0,0,0-1.5-.3,10.678,10.678,0,0,1-1.8-.1h-1.5Zm-28.7,3.1a4.863,4.863,0,0,1-1.2,1.6,17.486,17.486,0,0,0-3.6,7.4,17.032,17.032,0,0,0-.6,4.5,6.387,6.387,0,0,0,.2,2,2.426,2.426,0,0,0,.5.9,0.865,0.865,0,0,1,.4.7,0.983,0.983,0,0,0,.35.55,3.177,3.177,0,0,0,.75.05l1.7,0.2,0.8,0.1h0.2q0-2.2-.2-4.7l-0.1-3.7a9.484,9.484,0,0,1,.3-2.3,10.133,10.133,0,0,1,.5-1.8l0.1-.6a6.451,6.451,0,0,0,.6-2.5,17.273,17.273,0,0,0-.2-1.8l-0.2-1.3Zm-23.1.3a1.883,1.883,0,0,1,.6.8,3.1,3.1,0,0,0,1.3,1.2q1.5,0.9,1.5,1.3a0.407,0.407,0,0,0,.3.4,0.924,0.924,0,0,1,.6.7l0.5,0.6-0.7,2.1a22.685,22.685,0,0,0-1,3.2,7.643,7.643,0,0,1-.7,1.9l-0.4,1q0,0.2,1.1.1a7.287,7.287,0,0,0,1.9-.4,1.791,1.791,0,0,1,.9-0.3,0.864,0.864,0,0,0,.6-0.3,4.517,4.517,0,0,1,1-.4,1.357,1.357,0,0,0,.9-0.2,0.816,0.816,0,0,1,.6-0.2,0.96,0.96,0,0,0,.7-0.3,0.432,0.432,0,0,1,.55-0.15,0.705,0.705,0,0,1,.25.65v0.2c-0.067.267-.017,0.35,0.15,0.25a8.214,8.214,0,0,0,.85-0.65l1.1-1.1,0.1-.7a1.591,1.591,0,0,0-.1-1.1,2.737,2.737,0,0,1-.6-1.4,6.576,6.576,0,0,0-1.5-2.3,7.268,7.268,0,0,1-1.2-1.3,2,2,0,0,0-.8-0.8,15.046,15.046,0,0,0-1.7-1.1,11.511,11.511,0,0,0-2.15-.85,8.16,8.16,0,0,0-2.15-.45,3.144,3.144,0,0,1-1.7-.5q-1.2-.6-1.2-0.4a1.408,1.408,0,0,0,.4.5h0Zm-0.6,21.3a17.88,17.88,0,0,0,.2,2.9,25.282,25.282,0,0,1-.15,5.05,41.069,41.069,0,0,1-.85,5.75q-0.2.8-.35,1.65t-0.25,1.45a16.128,16.128,0,0,1-.9,3.2l-1.8,5.2-0.4,1.5a5.808,5.808,0,0,0-.3,1.5,1.686,1.686,0,0,0,.45,1.05q0.45,0.551,1.25,1.35l1.6,1.7,1.8-.1a6.6,6.6,0,0,0,1.4-.1,1.76,1.76,0,0,0,.8-0.5l4.8-5.9c0.133-.133.116-0.166-0.05-0.1s-0.317.134-.45,0.2c-0.534.334-.8,0.4-0.8,0.2q0-.7,2.1-3.4a3.915,3.915,0,0,0,.8-1.4,13.177,13.177,0,0,1,1.1-1.6,15.165,15.165,0,0,0,1-1.7l0.2-.7a0.885,0.885,0,0,0,.25-0.4,0.571,0.571,0,0,0-.05-0.4l0.2-.9a1.08,1.08,0,0,0,.3-0.8,2.213,2.213,0,0,1,.6-1.7,3.649,3.649,0,0,0,.7-1.8,1.621,1.621,0,0,1,.3-1,1.379,1.379,0,0,0,.5-0.9,0.975,0.975,0,0,1,.2-0.7,2.924,2.924,0,0,0,.4-1.2,8.911,8.911,0,0,0,.2-1.7v-0.2q-0.2-.2-1.5,1.6l-2.1,2.6q-0.8.9-1.4,1.6t-0.9,1.1a29.273,29.273,0,0,1-2.5,2.8,7.941,7.941,0,0,1-1.7,1.5q-0.2,0-.1-1.2a2.654,2.654,0,0,1,.2-1.4,2.617,2.617,0,0,0,.1-0.8,5.074,5.074,0,0,1,.1-1l0.1-4a12.663,12.663,0,0,0-.1-3.1,4.073,4.073,0,0,1-.3-1.4,4.827,4.827,0,0,0-.75-2.05,5.653,5.653,0,0,0-1.45-1.85,3.239,3.239,0,0,1-1-1,0.756,0.756,0,0,0-.25-0.4,0.526,0.526,0,0,0-.45,0,1.034,1.034,0,0,1-.6-0.1q-0.2-.1-0.25.3a6.178,6.178,0,0,0,.05,1.3h0Zm48.9,1.3a1.789,1.789,0,0,1,.4,1.3,9.922,9.922,0,0,1-1.35,5.05,21.586,21.586,0,0,1-4.15,5.75,1.075,1.075,0,0,1-.7.6l-0.4-.1a12.53,12.53,0,0,0-3.4-.4,2.072,2.072,0,0,1-1.2-.2q-0.2-.2.2-0.7,0.1-.2.35-0.6a5.687,5.687,0,0,0,.45-0.9,2.826,2.826,0,0,1,.6-0.9q1.1-.2,3.2-0.65t3.3-.75a1.206,1.206,0,0,0,.7-0.7,2.5,2.5,0,0,0,.1-0.9,1.367,1.367,0,0,0-.2-0.9l-0.2-.4q0-.9-2.8-0.9a3.9,3.9,0,0,1-1.2-.1,2.787,2.787,0,0,0-1.05,0,1.625,1.625,0,0,0-.85.3c0,0.134-.1.2-0.3,0.2-0.134,0-.217-0.133-0.25-0.4a10.36,10.36,0,0,1-.05-1.2v-1.5l1.3-.4a18.038,18.038,0,0,1,2.8-.75,20.026,20.026,0,0,1,2.8-.15,12.165,12.165,0,0,1,1.25.05,1.079,1.079,0,0,1,.65.25h0Zm-20.5,2.6a7.738,7.738,0,0,0,2.2.6,12.093,12.093,0,0,0,3,.2h1.1v0.6a2.789,2.789,0,0,1-.25,1.45,3.9,3.9,0,0,1-1.55.85,20.036,20.036,0,0,1-2.5.8,1.731,1.731,0,0,1-1.2,0,0.463,0.463,0,0,0-.35-0.05,1,1,0,0,0-.35.25q-0.4.7-1-.7-0.3-.8-0.7-1.65a6.974,6.974,0,0,0-.8-1.35l-0.3-.5,0.5-.4a1.866,1.866,0,0,1,1.2-.4,1.621,1.621,0,0,1,1,.3h0Zm2,9.5a0.777,0.777,0,0,0,.7.3,0.383,0.383,0,0,1,.45.3,0.657,0.657,0,0,1-.35.6,1.015,1.015,0,0,1-.75.25,0.5,0.5,0,0,1-.45-0.35,2.921,2.921,0,0,1-.2-1.1c0-.2.033-0.3,0.1-0.3a0.82,0.82,0,0,1,.5.3h0Zm18.3,8.4a16.931,16.931,0,0,1,3.7,4.5l1.2,1.9,0.9,1.8,0.2,0.8-0.8.4a7.347,7.347,0,0,1-2.1.5,3.328,3.328,0,0,0-1.2.4l0.1,0.1a0.534,0.534,0,0,0,.4.3,0.588,0.588,0,0,1,.5.4,1.284,1.284,0,0,0,.9.7,3.968,3.968,0,0,1,.9.5,0.806,0.806,0,0,1,.4.5,3.951,3.951,0,0,0,.75.85,2.585,2.585,0,0,0,.95.75,0.177,0.177,0,0,1,.2.2q0,0.4.3,0.4a1.363,1.363,0,0,1,.6.8,3.451,3.451,0,0,0,1.25,1.4,4.052,4.052,0,0,0,1.85.9,0.821,0.821,0,0,1,.8.6q0.2,0.6.75,0.2a4.251,4.251,0,0,0,1.1-1.4,7.025,7.025,0,0,0,.75-2l0.2-1.5a1.816,1.816,0,0,0,.15-0.5,2.529,2.529,0,0,1,.25-0.7,2.8,2.8,0,0,0,.4-1.4,2.869,2.869,0,0,0-.3-1.3l-0.6-1.5-0.6-1.1-0.4-.8a8.03,8.03,0,0,0-2.3-2,13.828,13.828,0,0,1-2.2-1.7,12.636,12.636,0,0,0-3.3-2.35,7.515,7.515,0,0,0-3.2-.95,2.406,2.406,0,0,1-1-.1,5.073,5.073,0,0,0-1.3-.3l-1.1-.1Zm-27.3,3.2a0.176,0.176,0,0,0,.2.2c0.066,0,.1-0.066.1-0.2,0-.2-0.034-0.3-0.1-0.3-0.134,0-.2.1-0.2,0.3h0Zm-1.3,1.8a9.947,9.947,0,0,0-1.35,1.75,6.3,6.3,0,0,0-.55,1.95,8.5,8.5,0,0,0,0,1.9,5.526,5.526,0,0,1,.3,1.1,6.2,6.2,0,0,0,2.2,3.6,10.565,10.565,0,0,0,1.85,1.45,4.576,4.576,0,0,0,1.75.45l1.1,0.1,1.5-1.6a16.68,16.68,0,0,0,1.5-1.8,1.179,1.179,0,0,1,.6-0.6,0.792,0.792,0,0,0,.4-0.6,0.707,0.707,0,0,1,.2-0.6,10.709,10.709,0,0,1,.6-0.9,0.951,0.951,0,0,0,.4-0.8,1.678,1.678,0,0,1,.6-0.9,1.078,1.078,0,0,0,.5-0.4,0.5,0.5,0,0,0-.1-0.5,2.083,2.083,0,0,1,.05-1.35,7.936,7.936,0,0,1,.75-1.85,5.016,5.016,0,0,0,.4-0.9,0.177,0.177,0,0,0-.2-0.2,2.5,2.5,0,0,0-1,.4l-1,.5q-0.2.1-1.1,0.4a26.173,26.173,0,0,0-2.6,1.1,43.388,43.388,0,0,1-5.45,2.05q-1.45.352-1.45-.35a6.319,6.319,0,0,1,.8-2.7,4.175,4.175,0,0,0,.7-1.9c0-.133-0.034-0.2-0.1-0.2a3.583,3.583,0,0,0-1.3,1.4h0Zm115.4-48.3q-1.1.6,0.6,2.2l2,2.4a23.658,23.658,0,0,0,2.6,2.8,10.241,10.241,0,0,0,2.3,1.8,1.4,1.4,0,0,1,.8.6,18.413,18.413,0,0,1-1.4,1.5q-1.1,1.1-2.8,2.7a4.435,4.435,0,0,0-.8.9,0.546,0.546,0,0,0,.2.3,0.613,0.613,0,0,0,.45.2,1.219,1.219,0,0,0,.65-0.3,2.49,2.49,0,0,1,1-.4,1.24,1.24,0,0,0,.8-0.1,1.773,1.773,0,0,1,.8-0.2h0.2a4.151,4.151,0,0,0,1.8-.6,5.875,5.875,0,0,1,1.8-.7,14.442,14.442,0,0,0,3.9-1,9.081,9.081,0,0,1,2.8-.9,9.419,9.419,0,0,0,4.8-2.2,3.562,3.562,0,0,0,.75-0.95,3.56,3.56,0,0,0,.15-1.25,2.553,2.553,0,0,0-.4-1.2,2.879,2.879,0,0,0-.9-0.9,0.864,0.864,0,0,1-.3-0.6,2.839,2.839,0,0,0-.95-1.2,9.308,9.308,0,0,0-1.65-1.3l-1.8-.6a15.224,15.224,0,0,0-3.6-.3,47.1,47.1,0,0,0-5.2.3,21.947,21.947,0,0,1-3,0,21.033,21.033,0,0,1-3.7-.9,8.516,8.516,0,0,0-1.4-.4,0.815,0.815,0,0,0-.5.3h0Zm24.7,14.9a38.165,38.165,0,0,0-5.1,1.15q-3.9,1.05-6.4,1.75l-12.3,3.9-5.5,1.8a55.532,55.532,0,0,1-5.5,1.55,24.113,24.113,0,0,1-4.2.75,2.621,2.621,0,0,1-1.25-.35,16.439,16.439,0,0,1-2.05-1.45,5.421,5.421,0,0,0-1.7-1.2c-0.268,0-.4.3-0.4,0.9a4.331,4.331,0,0,0,.8,2,10.117,10.117,0,0,1,1.2,2,8.872,8.872,0,0,0,2.4,2.7,18.169,18.169,0,0,0,3.5,2.4,6.506,6.506,0,0,0,1.6.4,2.532,2.532,0,0,0,1.5-.5,3.316,3.316,0,0,1,1.8-.5,4.784,4.784,0,0,0,2.2-.6l2.1-1.2a2.469,2.469,0,0,1,1.4-.4,18.017,18.017,0,0,0,2.3-.9,8.161,8.161,0,0,1,2.5-.9,2.659,2.659,0,0,0,1.1-.4c0-.133.165-0.2,0.5-0.2a8.306,8.306,0,0,0,1.45-.5,2.63,2.63,0,0,0,1.05-.6,2.493,2.493,0,0,1,1.1-.2h0.2l0.7,0.9,0.6,0.8v2.2a28.868,28.868,0,0,1-.3,4.6,64.988,64.988,0,0,0-.3,7.6,12.173,12.173,0,0,1-.5,3.2,20.417,20.417,0,0,1-.75,2.35,16.129,16.129,0,0,1-1.15,2.15,7.811,7.811,0,0,1-1.65,1.85,3.4,3.4,0,0,1-2.05.55q-0.5,0-2.1-.2l-1.9-.1a0.694,0.694,0,0,0-.3.05,0.16,0.16,0,0,0-.1.15c0,0.2.232,0.3,0.7,0.3a1.585,1.585,0,0,1,1.05.3,3.6,3.6,0,0,1,.75,1.3l0.7,1.2,0.6,1.1a20.28,20.28,0,0,0,1.45,1.9,3.209,3.209,0,0,0,1.05,1,0.5,0.5,0,0,1,.25.1,1.776,1.776,0,0,1,.25.2,0.775,0.775,0,0,0,.7.3c0.332,0,.5.067,0.5,0.2l0.9,0.6a6.619,6.619,0,0,0,2.6.4,4.743,4.743,0,0,0,2.1-.3,5.143,5.143,0,0,0,1.3-1.6,5.576,5.576,0,0,1,.9-1.4,9.285,9.285,0,0,0,1.55-2.05,7.788,7.788,0,0,0,.55-1.95,5.435,5.435,0,0,1,.4-1.7,16.676,16.676,0,0,0,.2-3,27.286,27.286,0,0,0-.4-5.3,11.166,11.166,0,0,1,.1-2.6,18.659,18.659,0,0,0,0-2.7l-0.2-2.1a30.839,30.839,0,0,0-.1-4.2,14.467,14.467,0,0,0-.4-2.8,9.2,9.2,0,0,0-2.5-3.5,2.461,2.461,0,0,1-.9-0.9q0-.6,2.7-1.6a24.275,24.275,0,0,0,2.5-1,7.914,7.914,0,0,1,3.8-1.1,18.526,18.526,0,0,0,2.65-.25,14.48,14.48,0,0,0,2.75-.65,23.066,23.066,0,0,1,5.2-.4l4.4,0.1a3.09,3.09,0,0,0,1.35-.15,4.1,4.1,0,0,0,1.35-.55,0.875,0.875,0,0,0,.35-0.5,2.033,2.033,0,0,0,.15-0.7,1.391,1.391,0,0,0-.5-0.9,5.422,5.422,0,0,0-1.75-.9,20.063,20.063,0,0,0-2.75-.8,43.353,43.353,0,0,0-9-1,9.766,9.766,0,0,0-1.8.1h0Zm24.8,14.6,0.2,0.2c0.065,0,.1-0.066.1-0.2a0.178,0.178,0,0,0-.2-0.2c-0.068,0-.1.067-0.1,0.2h0Zm-24,1.7c0,0.134-.135.2-0.4,0.2q-0.2,0-.15.15a1.449,1.449,0,0,0,.35.45q3.4,4,3.4,4.5c0,0.267-.068.4-0.2,0.4a1.282,1.282,0,0,0-.1.8,2.8,2.8,0,0,1-.35,1.2,1.931,1.931,0,0,1-.75.9l-0.5.3-1,.4-1.2.6a0.864,0.864,0,0,1-.6.3c-0.2,0-.135.1,0.2,0.3a1.252,1.252,0,0,1,.4.9,1.957,1.957,0,0,0,.2.9c0.4,0.267,1.015.634,1.85,1.1a5.191,5.191,0,0,0,1.55.7l0.5,0.2a0.67,0.67,0,0,0,.6.3,3.579,3.579,0,0,1,1,.4,2.24,2.24,0,0,1,.9,1.3,3.877,3.877,0,0,0,.6,1.25,1.056,1.056,0,0,0,.7.55,1.105,1.105,0,0,1,.7.4,2.551,2.551,0,0,0,1.2.5,8.21,8.21,0,0,0,1.8.2,1.991,1.991,0,0,0,1.45-.45,3.619,3.619,0,0,0,.65-1.95,22.7,22.7,0,0,0,.3-3.2,7.217,7.217,0,0,0-.9-3.6,22.717,22.717,0,0,0-2.1-2.5l-2.8-3q-1.1-1.3-1.75-2a7.278,7.278,0,0,0-1.45-1.2,10.237,10.237,0,0,0-2.65-1.25c-0.968-.3-1.45-0.316-1.45-0.05h0Zm-24.8,5.9a19.7,19.7,0,0,0-2.4,1.7,44.369,44.369,0,0,1-4.5,2.5,31.438,31.438,0,0,1-2.9,1.4c-0.535.2-.8,0.2-0.8,0a7.453,7.453,0,0,0-1-2.15,5.593,5.593,0,0,0-1.2-1.75q-1.7,0-2.3,4a20.224,20.224,0,0,0-.3,2.6,2.517,2.517,0,0,0,.5,1.5,5.678,5.678,0,0,1,1,2,9.789,9.789,0,0,0,2,2.8,9.141,9.141,0,0,0,1.45,1.4,3.22,3.22,0,0,0,1.15.3,2.791,2.791,0,0,0,1.7-.3,3.965,3.965,0,0,0,1.8-2.7q0.5-1.5.6-1.7l0.4-1,0.9-1.7,0.9-1.6,0.6-1a2.684,2.684,0,0,0,.5-1.3,2.354,2.354,0,0,1,.25-0.95,1.377,1.377,0,0,1,.45-0.65,5.178,5.178,0,0,0,1-1.2,8.585,8.585,0,0,0,.8-1.4,1.858,1.858,0,0,1,.3-0.9,0.66,0.66,0,0,0,.15-0.25,0.232,0.232,0,0,0-.05-0.25Zm154.5-49a30.518,30.518,0,0,0-5.5,1.3,44.024,44.024,0,0,1-6.1,1.4,19.123,19.123,0,0,0-2.7.6q-2.6.6-6.4,1.3a29.425,29.425,0,0,0-3.35.5q-1.35.3-2.95,0.8l-2.5.6a4.61,4.61,0,0,0-1.4.5,3.7,3.7,0,0,1-1.5.4,17.441,17.441,0,0,0-1.75.55,16.8,16.8,0,0,1-1.75.55q-1.3.4-2.25,0.65a6.9,6.9,0,0,1-1.75.25,12.906,12.906,0,0,1-2.4-.3,21.863,21.863,0,0,0-3.6-.3q-3.1,0-3.4.5a1.505,1.505,0,0,0,.4.9l0.5,0.9a9.061,9.061,0,0,0,1.5,2.1c0.066,0.134.15,0.3,0.25,0.5a1.879,1.879,0,0,0,.35.5,8.38,8.38,0,0,0,1.55,1.3,4.7,4.7,0,0,0,1.55.9,3.182,3.182,0,0,1,1.7.7,8.818,8.818,0,0,0,4.5,1,16.815,16.815,0,0,0,3.1-.3,7.653,7.653,0,0,0,1.2-.3,3.292,3.292,0,0,1,.8-0.2,0.717,0.717,0,0,1,.7-0.4l1.8-.6a14.072,14.072,0,0,1,3.2-1.1,25.287,25.287,0,0,0,3.3-.9,2.357,2.357,0,0,1,1-.3c0.133,0,.2.034,0.2,0.1a7.019,7.019,0,0,1-1.4,1.6q-2.8,2.7-4.1,4.25a45.6,45.6,0,0,0-2.9,3.95,36.114,36.114,0,0,0-5.3,12.5,12.289,12.289,0,0,0-.4,2.4,1.705,1.705,0,0,0,.1.7,1.237,1.237,0,0,1,.2.7,0.815,0.815,0,0,1-.2.6,0.56,0.56,0,0,0-.05.4,0.3,0.3,0,0,0,.35.2,0.858,0.858,0,0,1,.5.8,1.878,1.878,0,0,0,.1.6,0.637,0.637,0,0,0,.3.4,1.919,1.919,0,0,1,.6,1.1,10.64,10.64,0,0,0,1.3,2.2,3.569,3.569,0,0,0,1.3,1.4q0.6,0-3.6,4.5-3.1,3.3-3.3,3.6a0.571,0.571,0,0,1-.4.4l-1.9,2a97.4,97.4,0,0,1-9.6,9.4,6.63,6.63,0,0,0-1,1.1,3.487,3.487,0,0,1-.5.8,1.285,1.285,0,0,0-.5,1.2,5.38,5.38,0,0,0,.3,1.7,1.711,1.711,0,0,0,1.2,1.3l1.4,0.5a2.215,2.215,0,0,0,1,.2,4.045,4.045,0,0,0,2.6-1.6l3.5-3.6a1.129,1.129,0,0,1,1.05.25,2.431,2.431,0,0,1,1.05.85,3.376,3.376,0,0,0,1.4.7l1.6,1.2a10.4,10.4,0,0,0,2.2,1.6,13.888,13.888,0,0,0,3.1,1,1.157,1.157,0,0,1,.8.4,1.533,1.533,0,0,0,1.4.5l2.1,0.2q5,0.5,12-5l2.2-1.4q1.1,0,4.6,3.2,2.2,1.6,5.35,3.75t5.85,3.85a6.47,6.47,0,0,0,2.7.9,8.259,8.259,0,0,1,1.7.25,10.761,10.761,0,0,1,2,.65,32.167,32.167,0,0,0,5.6,1.2q1,0,1-.4a0.864,0.864,0,0,0-.3-0.6,0.886,0.886,0,0,1-.1-0.4,0.534,0.534,0,0,1,.3-0.4,0.968,0.968,0,0,0,.5-0.4,1.078,1.078,0,0,0,.2-0.6l-0.1-.2a3.213,3.213,0,0,1-.6-1.1q-0.7-1.4-4.5-4.2a4.589,4.589,0,0,1-1.4-1.2q0.2-.3-0.6-0.9l-1.1-1q-0.7-.6-1.9-1.55t-2-1.55l-4.1-2.6a4.171,4.171,0,0,0-.5-0.2,1.229,1.229,0,0,1-.5-0.3,4.231,4.231,0,0,0-.9-0.4,5.07,5.07,0,0,1-1.3-.7,4.283,4.283,0,0,0-1.7-.8q-1.4-.4-1.4-1a2.205,2.205,0,0,1,.5-1,32.948,32.948,0,0,0,2.3-4.8,10.673,10.673,0,0,0,.3-2.9,8.562,8.562,0,0,0-.4-2.45,6.212,6.212,0,0,0-1.4-1.85,10.038,10.038,0,0,0-1.65-1.4q-0.651-.4-1.85-1-1.3-.5-2.25-0.8a6.131,6.131,0,0,0-1.85-.3,29.879,29.879,0,0,0-3.65.15,12.9,12.9,0,0,0-2.45.65,8.582,8.582,0,0,1-2,.6h-0.1l0.2-.2,0.4-.2a3.856,3.856,0,0,0,.85-0.65q0.75-.649,1.35-1.15,0.3-.3,1.15-1.1a5.444,5.444,0,0,0,1.15-1.4,1.9,1.9,0,0,1,1.9-1.5h0.3a1.414,1.414,0,0,0,.8-0.2,5.785,5.785,0,0,0,.8-0.7,20.57,20.57,0,0,0,2.2-6.6q1.3-6.2,1-8.2a3.472,3.472,0,0,1-.1-0.85,3.531,3.531,0,0,0-.1-0.85,18.807,18.807,0,0,0-.5-2.3,14.3,14.3,0,0,1-.3-3,5.208,5.208,0,0,0-.9-3.2,7.3,7.3,0,0,0-1.8-1.6,4.978,4.978,0,0,0-2.1-.9l-1.2-.2,0.5-.4a17.167,17.167,0,0,1,2.9-2.1,9.03,9.03,0,0,1,2.3-1.1,32.288,32.288,0,0,0,5.2-1.6,8.367,8.367,0,0,1,1.6-.5,17.128,17.128,0,0,1,2.3-.1h3.8a3.734,3.734,0,0,0,1.9-.3c0.2-.066.433-0.15,0.7-0.25a5.475,5.475,0,0,1,1-.25,6.277,6.277,0,0,0,1.9-.4l1.4-.4a1.166,1.166,0,0,0,.8-1.2,1.729,1.729,0,0,0-.6-1.2,15.536,15.536,0,0,0-2.8-2,5.908,5.908,0,0,0-2.4-1.1,3.745,3.745,0,0,1-1.2-.2,4.105,4.105,0,0,0-1.3-.2,13.522,13.522,0,0,0-2.2.2h0Zm-14.9,16.7a1.445,1.445,0,0,1,1,.6,8.592,8.592,0,0,1,.3,2.35q0.1,1.95.1,5.35a42.766,42.766,0,0,1-.4,4.4q-0.5,2.2-1.2,4.85a10.612,10.612,0,0,1-.9,2.75,0.8,0.8,0,0,1-.8,0,1.287,1.287,0,0,1-.65-0.45,5.348,5.348,0,0,1-.35-1.35l-0.3-1.8v-0.1a3.9,3.9,0,0,0-.25-1.3,10.629,10.629,0,0,0-.45-1.1,2.16,2.16,0,0,1-.8-0.9,13.476,13.476,0,0,1-.7-1.4,6.092,6.092,0,0,1-.3-2.1q0-1.3.1-2.3,0.1-3.3-.5-4.1a1.126,1.126,0,0,1-.45-0.5,0.433,0.433,0,0,1,.35-0.4l0.6-.2a9.808,9.808,0,0,0,1.55-.9q1.05-.7,1.95-1.3a2.471,2.471,0,0,1,1.1-.4,2.361,2.361,0,0,1,1,.3h0Zm-8.2,7.7a16.393,16.393,0,0,0-.5,3.3,6.705,6.705,0,0,0,.5,2.4,6.3,6.3,0,0,1,.3,2v1.1l-1.4.9a22.73,22.73,0,0,1-3.1,2.2,10.936,10.936,0,0,1-2.4,1.3q-0.3,0,0-1.55t1-3.95a22.167,22.167,0,0,1,2.1-4.6l0.3-.7a12.536,12.536,0,0,1,1.25-2.15,19.157,19.157,0,0,1,1.65-2.35q0.6-.7.65-0.3a12.243,12.243,0,0,1-.35,2.4h0Zm0.1,14.4c0.266,0.134.316,0.25,0.15,0.35a7.543,7.543,0,0,1-1.45.45,17.7,17.7,0,0,0-3.1,1.1,6.4,6.4,0,0,1-1.7.5c-0.134.067-.267-0.05-0.4-0.35a1.925,1.925,0,0,1-.2-0.75v-0.2c0.066,0,.35-0.05.85-0.15s1.083-.183,1.75-0.25q2.8-.6,2.9-0.6a2.342,2.342,0,0,1,1.2-.1h0Zm10.4,11.5a1.939,1.939,0,0,1,.85.55,3.183,3.183,0,0,0,.65.55,1.609,1.609,0,0,1,.7,1.1,5.378,5.378,0,0,1-1,2.3,20.194,20.194,0,0,1-1.75,3.1,13.19,13.19,0,0,1-1.95,2.5l-0.5.5-2.3-.7q-3-.9-3.7-1.2a29.323,29.323,0,0,0-3.7-1.15,15.655,15.655,0,0,0-2.9-.55q-0.9,0-.9-0.3a0.8,0.8,0,0,0-.5-0.1l-1-.2-0.5-.2,1.2-.6a21.71,21.71,0,0,1,3.3-1.6l4.4-2a27.055,27.055,0,0,1,6.2-2.1,8.162,8.162,0,0,1,1.6-.1,4.982,4.982,0,0,1,1.8.2h0Zm-19.3,7.4a1.5,1.5,0,0,0,.9.8l1.9,1.4a12.718,12.718,0,0,1,2,1.5,62.7,62.7,0,0,0,6.3,4.2l0.8,0.4-1.1.9a20.638,20.638,0,0,1-2.35,1.4,5.186,5.186,0,0,1-1.85.7,2.426,2.426,0,0,0-1.2.6,2.868,2.868,0,0,1-1.3.3h-0.6a24.821,24.821,0,0,1-2.65-.35,14.146,14.146,0,0,0-1.65-.25,2.5,2.5,0,0,0-1.3-.3,1.645,1.645,0,0,1-.8-0.1c0-.133-0.2-0.2-0.6-0.2a5.276,5.276,0,0,1-1.45-.3,3.469,3.469,0,0,1-1.15-.5,1.737,1.737,0,0,0-1.2-.3q-1.1-.2-1.1-0.7,0-.6,2.1-3.3,0.3-.4,1.1-1.35a2.839,2.839,0,0,0,.8-1.35,9.776,9.776,0,0,1,2-1.8,7.419,7.419,0,0,1,2.3-1.6c0.066,0,.1.067,0.1,0.2h0Zm136.1-51.5a4.351,4.351,0,0,0,1.3.8,15.089,15.089,0,0,1,2.15,1.35,5.827,5.827,0,0,1,1.15.95,0.816,0.816,0,0,1-.3.5l-0.9,1.1a25.891,25.891,0,0,1-2.3,2.55q-1.9,1.95-3.2,3.05a19.583,19.583,0,0,0-2.1,1.8,51.92,51.92,0,0,1-4.4,3.75,36.4,36.4,0,0,1-3.7,2.55q-1.9,1-1.9,4.3a17.049,17.049,0,0,0,.25,2.8,8.386,8.386,0,0,0,.65,2.3,10.311,10.311,0,0,0,1.45,2.1,3.923,3.923,0,0,0,1.65,1.3,7.528,7.528,0,0,0,2.5.7,7.867,7.867,0,0,0,1.3-.1,11.428,11.428,0,0,1,2.3-.3,10.23,10.23,0,0,0,2.1-.45q1.6-.45,3.2-0.95a5.967,5.967,0,0,1,1.5-.5,12.726,12.726,0,0,0,1.3-.4,2.761,2.761,0,0,1,1-.45,4.1,4.1,0,0,1,.9-0.15,0.973,0.973,0,0,1,.75.45,11.182,11.182,0,0,1,.85,1.35,6.127,6.127,0,0,1,.6,1.45,11.588,11.588,0,0,1,.3,1.95l0.5,3a9.3,9.3,0,0,1,.2,1.8,20.735,20.735,0,0,1-.4,3.5l-0.9,4.7a33.5,33.5,0,0,1-1.6,5.75,16.748,16.748,0,0,1-2.5,4.25,85.535,85.535,0,0,1-8,9.4,20.747,20.747,0,0,0-1.7,2,0.586,0.586,0,0,1-.5.4,3.135,3.135,0,0,0-.6.8,1.038,1.038,0,0,1-.5.7,1.37,1.37,0,0,0-.8.5l-1,.8a20.923,20.923,0,0,0-2.15,1.35,2.87,2.87,0,0,0-1.05.95q0,0.3,1.2.2a4.032,4.032,0,0,1,1.8,0l0.6,0.2-0.6.3q-0.7.5-.3,0.5a5.95,5.95,0,0,0,1.95-.7,23.5,23.5,0,0,0,3.05-1.8,1.379,1.379,0,0,1,1-.3h0.2a0.885,0.885,0,0,0,.9-0.3,18.768,18.768,0,0,1,1.9-1.15,2.924,2.924,0,0,1,1.4-.55q0.4,0.2,3.6-2.4a6.943,6.943,0,0,1,2.2-1.4,9.614,9.614,0,0,0,3.5-3.4,18.007,18.007,0,0,0,1.75-3.15,19.425,19.425,0,0,0,1.35-3.55l1-3.7a20.652,20.652,0,0,0,.9-3.2l0.6-1.8a9.148,9.148,0,0,0,.5-3.4,5.637,5.637,0,0,0-.2-1.7,1.651,1.651,0,0,0-.15-0.45,0.462,0.462,0,0,1,.05-0.55q0.4-.5-0.15-2.05a32.294,32.294,0,0,0-2.25-4.55l-1.5-2.7a12.175,12.175,0,0,0-2.1-3.1l-1.3-1.5a2.47,2.47,0,0,1,.9-0.5l2.1-.8a9.687,9.687,0,0,1,2.65-.55q1.65-.15,4.15-0.15a22.732,22.732,0,0,1,3.2.15,28.368,28.368,0,0,1,3.7,1.15l0.9,0.3,0.5-.7a4.574,4.574,0,0,1,1.4-1,1.873,1.873,0,0,0,1-1.4,4.247,4.247,0,0,0-.2-0.7,13.966,13.966,0,0,0-2.1-2.35,9.11,9.11,0,0,0-2.3-1.85l-1.9-.8a10.243,10.243,0,0,0-2.95-.95,27.4,27.4,0,0,0-4.15-.25,20.716,20.716,0,0,0-5.5.8l-2,.5-1.9.5a4.994,4.994,0,0,0-1.5.6l-1,.3-0.9.4-2,.7q-2.3.9-3.4,1.4a9.8,9.8,0,0,1-2.4.7l-2.3.6a12.639,12.639,0,0,1-2.8.6,1.092,1.092,0,0,1-.7,0,2.242,2.242,0,0,1-.3-0.6,8.814,8.814,0,0,1-.3-2.1,3.712,3.712,0,0,1,.85-2.3,19.335,19.335,0,0,1,3.35-3,19.866,19.866,0,0,1,3.45-2.25,10.673,10.673,0,0,1,3.25-1.15,5.064,5.064,0,0,0,2-.6,6.054,6.054,0,0,1,1-.2h0.3a3.339,3.339,0,0,0,1.5-.3,6.088,6.088,0,0,1,1.8-.55,23.511,23.511,0,0,1,2.6-.35,7.183,7.183,0,0,1,2.8.7,8.736,8.736,0,0,0,2,0,2.662,2.662,0,0,0,1.9-.8,0.775,0.775,0,0,0,.3-0.9,2.187,2.187,0,0,0-.1-0.55,2.7,2.7,0,0,1-.1-0.75,3.2,3.2,0,0,0-.4-1.2,3.161,3.161,0,0,1-.8-1.4,6.27,6.27,0,0,0-1.6-1.9l-2.5-2a7.331,7.331,0,0,0-2.4-1.45,18.42,18.42,0,0,0-3.7-.55,21.334,21.334,0,0,0-3-.2c-0.467,0-.7.067-0.7,0.2h0Zm-23.2,2.4a2.034,2.034,0,0,0,0,.9,0.962,0.962,0,0,1,.15.9,7.786,7.786,0,0,1-.65,1.4,39.571,39.571,0,0,1-2.9,3.8l-1.6,2a34.81,34.81,0,0,1-2.4,2.9q-1.5,1.8-4.85,5.1a30.191,30.191,0,0,1-3.85,3.5,0.969,0.969,0,0,0-.7.9v0.1a1.575,1.575,0,0,1-.1.9,1.718,1.718,0,0,0-.05.7,0.887,0.887,0,0,0,.25.5,2.4,2.4,0,0,1,.5,1.4q0.4,2,.9,2.3a1.645,1.645,0,0,0,.8.1,2.736,2.736,0,0,0,1.6-1q1.7-1.7,2.75-2.6a18.9,18.9,0,0,1,2.15-1.6,15.309,15.309,0,0,1,1.7-1l1.3-.8,1.2-.6q0.2,0-.85,1.7a32.086,32.086,0,0,1-2.25,3.2l-2.2,2.7a35.616,35.616,0,0,1-4.05,4.8,13.952,13.952,0,0,1-3.55,2.7,1.786,1.786,0,0,0-.6.45,1.008,1.008,0,0,0-.2.65,3.116,3.116,0,0,1-.3.9,1.435,1.435,0,0,0,0,1.15,4.5,4.5,0,0,0,.6,1.65,4.592,4.592,0,0,0,.9,1l0.5,0.4,0.6-.4,1.2-.8q3-2.5,3.8-3.2l2.5-2.3q2-1.6,2.7-1.6,0.5,0-.3,3.7l-0.9,6a2.739,2.739,0,0,1-.1.75c-0.067.234-.134,0.45-0.2,0.65a6.2,6.2,0,0,0-.55,2,7.509,7.509,0,0,0-.05,1.9,5.308,5.308,0,0,1-.1,1.7l-0.2.7,1.3,1.3,2,2.2a6.547,6.547,0,0,0,1.35,1.2,2.419,2.419,0,0,0,1.25.5,12.726,12.726,0,0,0,1.3-.4,1.822,1.822,0,0,0,1.3-1.6l-0.1-.7a2.551,2.551,0,0,1,.1-1.25q0.2-.548.6-1.45a5.882,5.882,0,0,0,.4-2.2,6.012,6.012,0,0,1,.4-1.55,5.818,5.818,0,0,1,.8-1.65l0.4-1.2a8.254,8.254,0,0,1,1.2-2.3,3.926,3.926,0,0,0,.8-1.7v-0.2a3.733,3.733,0,0,1,.1-1.4,3.907,3.907,0,0,0,.3-1.3l-0.1-1.2a7.67,7.67,0,0,1,.6-2.4l0.5-1.9a8.273,8.273,0,0,0-.75,1.05,17.641,17.641,0,0,0-1.15,2.15q-3,5.5-3.5,5.2c0-.066-0.017-0.283-0.05-0.65s-0.05-1.083-.05-2.15v-2.6l-0.7-1.3a10.364,10.364,0,0,0-2-2.5c-0.334-.266-0.617-0.5-0.85-0.7a0.947,0.947,0,0,1-.35-0.4l0.8-1a42.391,42.391,0,0,0,3.1-4l0.5-.8a4.4,4.4,0,0,0,.9-1.4,10.3,10.3,0,0,0,.8-2l0.2-.9a2.363,2.363,0,0,0-.3-1,6.455,6.455,0,0,0-.7-1.5,2.418,2.418,0,0,0-1-.7,5.5,5.5,0,0,0-1.5-.35,15.576,15.576,0,0,0-2.1-.15,4.629,4.629,0,0,0-1.2.1,2.2,2.2,0,0,1-.7.1,4.389,4.389,0,0,1,1.25-1.3,16.134,16.134,0,0,1,1.85-1.5q0.8-.6,3-2.7a20.428,20.428,0,0,0,2.7-2.9,14.688,14.688,0,0,0,1-1.8,4.266,4.266,0,0,0,.2-1.5,4.465,4.465,0,0,0-.4-2,4.082,4.082,0,0,0-1.75-1.45,11.153,11.153,0,0,0-3.15-.65,2.117,2.117,0,0,0-.75-0.05,0.737,0.737,0,0,0-.45.35h0Zm154.1-11.2a4.573,4.573,0,0,0-2.1.75,2.524,2.524,0,0,0-1.2,1.55,5.8,5.8,0,0,0-.2,1.4c0,0.267.032,0.4,0.1,0.4a1.143,1.143,0,0,0,.65-0.25,5.158,5.158,0,0,0,.65-0.55q0.9-1.2,1.3,1.1a30.773,30.773,0,0,1,.4,6.3q0,2.5-.1,3.5-0.2,2.2-.4,3.45a6.919,6.919,0,0,1-.4,1.65,3.765,3.765,0,0,1-.9,1q-4.4,4.2-6.3,6.1-1.5,1.5-3.35,3.05a11.164,11.164,0,0,1-2.05,1.55l-0.1-3.2v-3.2l-0.6-.5a1.076,1.076,0,0,1-.5-0.8v-0.5a1.889,1.889,0,0,1,.8-1.4,3.7,3.7,0,0,0,.9-0.7,9.127,9.127,0,0,1,1.65-.95,2.81,2.81,0,0,1,1.25-.45l0.5-.3a3.13,3.13,0,0,1,1.5-.7,1.42,1.42,0,0,1,.6.1,2.247,2.247,0,0,0,.7.2,0.539,0.539,0,0,0,.4-0.3,1.3,1.3,0,0,1,1.1-.4c0.465,0,.7.067,0.7,0.2s0.115,0.15.35,0.05a3.035,3.035,0,0,0,.85-0.65,2.308,2.308,0,0,0,.7-1.2,8.807,8.807,0,0,0-.2-0.9l-0.2-1.2a1.058,1.058,0,0,0-.4-0.9,1.708,1.708,0,0,1-.3-0.8q0-.3-1.8-1.4a11.386,11.386,0,0,0-1.8-.9,4.542,4.542,0,0,0-1.6-.3,13.254,13.254,0,0,0-1.5.2,5.976,5.976,0,0,1-1.9.3,3.514,3.514,0,0,0-1.45.5,1.872,1.872,0,0,0-.95.7c0,0.067-.135.1-0.4,0.1-0.135.067-.168,0.117-0.1,0.15s0.2,0.117.4,0.25a3.875,3.875,0,0,0,1.5.6c0.665,0.2,1,.867,1,2v0.5a6.573,6.573,0,0,1-1.5,3.7,15.768,15.768,0,0,0-3.3,7.5,16.635,16.635,0,0,1-.5,2.5,17.121,17.121,0,0,0-.2,2.4,5.149,5.149,0,0,0,.2,1.6,3.1,3.1,0,0,1,.3,1.4,3.453,3.453,0,0,0,.7,1.5,2.492,2.492,0,0,1,.5.9,5.488,5.488,0,0,0,1.1,1.2,2.814,2.814,0,0,0,1.7.9,2.738,2.738,0,0,0,1.65-.65,3.847,3.847,0,0,0,1.25-1.65q0.8-1.3,1.6-2.4a17.022,17.022,0,0,0,1.6-2.6l1.3-1.9a3.413,3.413,0,0,0,1-1.4,0.716,0.716,0,0,1,.4-0.7,0.683,0.683,0,0,0,.2-0.5,3.255,3.255,0,0,1,.95-1.3,2.631,2.631,0,0,1,1.05-.9l-0.3,1.7q-0.4,1.6-.6,2.7a13.926,13.926,0,0,0-.2,2.5,7.45,7.45,0,0,0,.3,2.7,1.644,1.644,0,0,1,.25.55,0.667,0.667,0,0,0,.15.35l0.5,0.9a6.816,6.816,0,0,0,.35.6,6.012,6.012,0,0,1,.45.9q0.2,0.3.45,0.65a2.626,2.626,0,0,1,.35.65,0.78,0.78,0,0,1,.2.9q-0.2.3-2.65,2.85a19.4,19.4,0,0,1-2.65,2.55,17.686,17.686,0,0,0-2.55,2.45,22.268,22.268,0,0,0-2.45,2.75,0.411,0.411,0,0,1-.1.3,0.291,0.291,0,0,1-.2.1c-0.067,0-.1.067-0.1,0.2a2.912,2.912,0,0,1-1.1,1.2,4.364,4.364,0,0,0-1.1,1.5,2.573,2.573,0,0,1-.3.7q-0.4.4-1.1,5.4a13.823,13.823,0,0,0-.2,2.3,2.373,2.373,0,0,1-.3,1.5q-0.4.5,0.3,0.7a1.7,1.7,0,0,1,.7.85,3.194,3.194,0,0,1,.3,1.35,3.986,3.986,0,0,0,.6,1.6l1.1,1.5a0.848,0.848,0,0,0,.9.6,2.425,2.425,0,0,1,.8.3c0.465,0.4.7,0.3,0.7-.3a3.306,3.306,0,0,1,.05-0.65,0.254,0.254,0,0,1,.25-0.25,13.556,13.556,0,0,1,1.5.7,11.864,11.864,0,0,0,2.3.9,13.15,13.15,0,0,1,2.4.9,15.573,15.573,0,0,1,2.2,1.1,3.826,3.826,0,0,0,.9.8l0.8,0.8,1.3,1.3a2.84,2.84,0,0,0,1.2,1,0.578,0.578,0,0,0,.4-0.1,1.711,1.711,0,0,0,.9-0.7q0.6-.4,1.6-0.95a3.9,3.9,0,0,1,1.3-.55,3.887,3.887,0,0,0,1.4-1.3,6.572,6.572,0,0,0,1.4-1.8,31.983,31.983,0,0,0,1-4.1,22.719,22.719,0,0,0,.6-3.7l0.2-3.1a32.778,32.778,0,0,0,.5-4.1l0.2-2.1-0.6-1.7a16.927,16.927,0,0,0-1-2.65,6.7,6.7,0,0,0-1-1.65,1.365,1.365,0,0,0-.9-0.6l-1.3-.9a6.118,6.118,0,0,0-1.35-.95,3.016,3.016,0,0,0-1.25-.25l-0.8.1a64.557,64.557,0,0,0-6.7,1.2l-1.2.3a4.065,4.065,0,0,1,1.15-1.3,15.878,15.878,0,0,1,1.85-1.6l0.5-.5a0.531,0.531,0,0,1,.4-0.3,0.864,0.864,0,0,0,.6-0.3,4.273,4.273,0,0,1,1.3-.7,10.8,10.8,0,0,0,2.4-1,5.615,5.615,0,0,1,2-1,12.4,12.4,0,0,0,1.65-.9q0.948-.6,1.65-1.1c0.332-.266.7-0.55,1.1-0.85a3.78,3.78,0,0,1,.9-0.55,3.536,3.536,0,0,0,.8-0.5,1.512,1.512,0,0,1,.9-0.4,2.3,2.3,0,0,0,1.35-.65,4.306,4.306,0,0,0,1.25-1.15,1.549,1.549,0,0,1,1.1-.3,0.233,0.233,0,0,0,.25-0.15,1.528,1.528,0,0,0,.05-0.45v-0.5a3.777,3.777,0,0,0-.55-2,3.214,3.214,0,0,0-1.45-1.3,7.976,7.976,0,0,1-1.1-.6,0.829,0.829,0,0,0-.9-0.1,1.351,1.351,0,0,1-.9-0.2,2.8,2.8,0,0,0-1.2-.2,16.7,16.7,0,0,0-2.7.25,7,7,0,0,0-2.2.65q-0.8.3-1.9,0.65a6.029,6.029,0,0,1-1.6.35q-0.2-.2,1-3.9l1.5-3.9,0.6-2a0.674,0.674,0,0,1,.2-0.5c0.132,0,.165.334,0.1,1l-0.1.9a0.508,0.508,0,0,0,.2-0.4,6.423,6.423,0,0,0,.4-1.9,3.822,3.822,0,0,1,.5-1.5,12.644,12.644,0,0,1,2.4-1.7,12.624,12.624,0,0,0,2.4-2,3.755,3.755,0,0,1,1.4-1.1,1.155,1.155,0,0,0,.5-1.2,3.222,3.222,0,0,0-.2-0.9,2.447,2.447,0,0,0-.4-0.6,0.822,0.822,0,0,0-.6-0.2h-0.5a1.731,1.731,0,0,1-1.2,0,0.842,0.842,0,0,0-.8,0,1.612,1.612,0,0,1-.8,0,0.864,0.864,0,0,0-.6-0.3,0.864,0.864,0,0,1-.6-0.3,0.822,0.822,0,0,0-.5-0.3,2.771,2.771,0,0,0-.6.1,0.735,0.735,0,0,1-.9,0,16.211,16.211,0,0,1-.55-2,11.017,11.017,0,0,1-.35-2,13.462,13.462,0,0,0-.55-2.8,4.079,4.079,0,0,0-.95-1.9,0.587,0.587,0,0,1-.3-0.5,0.5,0.5,0,0,0-.1-0.25,0.778,0.778,0,0,0-.3-0.25,2.2,2.2,0,0,0-1.3-.3Zm-36.7,8.7q-0.1.3-1.7,0.3c-0.868,0-1.3.067-1.3,0.2l0.1,0.2a6.276,6.276,0,0,0,1.3,1.15,3.633,3.633,0,0,0,1.4.65,2.136,2.136,0,0,1,1.3,1,2.363,2.363,0,0,1,.3,1v0.3a12.172,12.172,0,0,0-.3,2,30.537,30.537,0,0,1-.5,3.4q-0.3,2-.55,4.15a32.972,32.972,0,0,0-.25,3.75,1.013,1.013,0,0,1-.2.65,4.965,4.965,0,0,1-1.2.8q-1,.551-1.5.85-1.1.6-2,1.1t-1.5.8a5.4,5.4,0,0,1-2.2.7h-0.5a2.548,2.548,0,0,1-1.05-.2,4.686,4.686,0,0,1-1.05-.7l-1.2-.9c-0.135,0-.2.234-0.2,0.7a4.8,4.8,0,0,0,.9,1.9l0.8,1.4a2.9,2.9,0,0,0,.9,1,3.363,3.363,0,0,0,1.1.8c0.332,0,.5.067,0.5,0.2a11.637,11.637,0,0,0,1.95,1,8.321,8.321,0,0,0,2.15.8,0.4,0.4,0,0,1,.5.4,9.56,9.56,0,0,1-.5,1.65,6.632,6.632,0,0,1-.5,1.15l-0.3,1a11.868,11.868,0,0,1-1.5,3.2l-1.3,2.2a30.016,30.016,0,0,1-4.1,6.1q-1.9,2.3-2.6,2.5a0.628,0.628,0,0,0-.3,1.1,0.761,0.761,0,0,1,.3.8,1.362,1.362,0,0,0,.6,1,1.449,1.449,0,0,1,.5,1,0.672,0.672,0,0,0,.3.6c0.2,0,.3.234,0.3,0.7,0,0.534.132,0.8,0.4,0.8h0.3a2.2,2.2,0,0,0,1.1-1,18.222,18.222,0,0,1,2.1-2.5,7.136,7.136,0,0,1,1.9-1.5l1.5-1.1,1-.9q0.2,0,.5,2.9a7.816,7.816,0,0,0,.8,3.6l0.5,1a0.866,0.866,0,0,0,.1.4,0.278,0.278,0,0,0,.2.2,0.589,0.589,0,0,1,.1.4,1.536,1.536,0,0,0,.5.85,1.344,1.344,0,0,0,.8.55,1.491,1.491,0,0,1,.7.5,4.242,4.242,0,0,0,1.4.8l0.8,0.2a0.564,0.564,0,0,0,.3-0.2q0.7-1.4,1-6.9,0.3-7.5.6-8l0.2-1.6,0.1-1.4,1.2-1.3q0.6-.7,1.05-1.2c0.3-.333.515-0.566,0.65-0.7l2.3-2.3a10.862,10.862,0,0,0,1.8-2l0.6-.8a4.146,4.146,0,0,0,1.2-2.6,1.352,1.352,0,0,1,.4-1,4,4,0,0,0,.4-1.15,6.568,6.568,0,0,0,.2-1.45v-0.2c0-.066-0.035-0.066-0.1,0l-0.2.2a14.654,14.654,0,0,1-3.2,3.3,23.87,23.87,0,0,1-4.3,3.1l-0.9.6a3.92,3.92,0,0,1-.7.4q-0.2,0-.25-0.45c-0.035-.3-0.05-0.85-0.05-1.65q0-3.1.6-3.8a2.3,2.3,0,0,1,.9-0.4,4.322,4.322,0,0,0,1.35-.65,7.964,7.964,0,0,0,1.25-.95,0.407,0.407,0,0,1,.3-0.1,3.009,3.009,0,0,0,1.3-.3,4.133,4.133,0,0,1,1.3-.5l0.4-.2a1.338,1.338,0,0,1,1-.5,0.764,0.764,0,0,0,.7-0.5,1.556,1.556,0,0,1,.7-0.7,0.9,0.9,0,0,0,.6-0.8c0-.333.065-0.5,0.2-0.5a0.418,0.418,0,0,0,.15-0.4,0.548,0.548,0,0,0-.45-0.3,2.952,2.952,0,0,1-.95-1.05,2.69,2.69,0,0,1-.45-1.35,1.213,1.213,0,0,0-.15-0.7,3.383,3.383,0,0,0-1.05-.6,7.359,7.359,0,0,0-2.9-.7,8.655,8.655,0,0,0-2.7.5c-0.2.067-.318,0.05-0.35-0.05a1.58,1.58,0,0,1,.05-0.65,1.381,1.381,0,0,1,.3-1l0.3-1.4,0.7-2.7a9.12,9.12,0,0,0,.4-1.8v-1.3a3.621,3.621,0,0,0-.15-1.5,12.974,12.974,0,0,0-.55-1.6,8.995,8.995,0,0,0-1.55-1.85,8.984,8.984,0,0,0-1.85-1.55,5.839,5.839,0,0,0-2.6-.5,1.337,1.337,0,0,0-.7.1h0Zm41.2,41.5,0.8,1.1a2.99,2.99,0,0,1,.35,1.35q0.049,0.851.05,2.55c0,1.134-.035,2.034-0.1,2.7s-0.167.8-.3,0.4a4.358,4.358,0,0,0-.8-1,3.639,3.639,0,0,0-1.25-.85,26.825,26.825,0,0,0-3.35-.75,5.411,5.411,0,0,0-1.2-.1,13.408,13.408,0,0,0-4.1.75,15.113,15.113,0,0,0-3.9,1.85,1.888,1.888,0,0,1-.8.6c-0.068,0-.1-0.133-0.1-0.4a4.956,4.956,0,0,1,2-2.1,6.273,6.273,0,0,0,1.2-1l0.5-.7,0.4-.6a4.653,4.653,0,0,1,1-1.3,6.72,6.72,0,0,1,1.4-1.3,7.284,7.284,0,0,1,3.8-.9,4.743,4.743,0,0,0,2.1-.3,3.55,3.55,0,0,1,1.3-.2,1.883,1.883,0,0,1,1,.2h0Zm-43.6,3.4c0,0.2-.068.3-0.2,0.3-0.068.067-.1,0.034-0.1-0.1,0-.2.032-0.3,0.1-0.3,0.132,0,.2.034,0.2,0.1h0Zm38,7.6a1.482,1.482,0,0,0,.15.75,2.507,2.507,0,0,0,.85.65,5.858,5.858,0,0,0,1,.2h0.3c0.465-.066.7-0.033,0.7,0.1s0.132,0.2.4,0.2a0.822,0.822,0,0,1,.6.2q0.1,0.2.8-.05a2.921,2.921,0,0,0,1.1-.65l0.4-.5v0.5a10.267,10.267,0,0,1-.3,1.95,5.26,5.26,0,0,1-.6,1.75,2.49,2.49,0,0,1-.7,1l-0.7,1-0.4.4-2.2-.5a27.208,27.208,0,0,1-3.05-.8,8.135,8.135,0,0,1-1.95-.8l-1-.6a1.419,1.419,0,0,1-1-1.1,1.1,1.1,0,0,1,.1-0.5,5.343,5.343,0,0,1,2.4-2.6,7.642,7.642,0,0,1,1.35-.85,2.759,2.759,0,0,1,1.15-.25,1.489,1.489,0,0,1,.5.05,0.576,0.576,0,0,1,.1.45h0Z"/>
</svg>
