<svg xmlns="http://www.w3.org/2000/svg" width="900" height="140" viewBox="0 0 900 140">
  <defs>
    <style>
      .cls-1 {
        fill-rule: evenodd;
      }
    </style>
  </defs>
  <path id="演示秋鸿楷" class="cls-1" d="M278.89,49.141c-0.334,0-.7-0.016-1.1-0.05a6.97,6.97,0,0,0-1.4.05,13.769,13.769,0,0,0-2.6.5,17.649,17.649,0,0,0-2.5,1h-0.2a6.546,6.546,0,0,0-2.35.25,15.99,15.99,0,0,1-1.95.45q-0.7.2-3.2,1.1l-1.6.2-1.1.2a12.38,12.38,0,0,0-1.75.6q-0.951.4-1.35,0.6-0.6.1-1.15,0.2t-1.05.2l-1.7.4-1.3.2q-0.4.1-.95,0.2a6.374,6.374,0,0,1-1.15.1l-1.6.1a2.839,2.839,0,0,1-1.7-.5,2.138,2.138,0,0,0-1.1-.2q-0.5-.2-0.5.4,0.1,1.3.1,3.6l0.1,0.6a1.539,1.539,0,0,1,.1.9,24.321,24.321,0,0,1-1.4,5.4,14.673,14.673,0,0,1-1.3,3,9.392,9.392,0,0,1-1.5,1.7,1.552,1.552,0,0,1-1.1.3h-0.3a1.432,1.432,0,0,1-1.1-1.3,5.651,5.651,0,0,0-.2-1.3q-0.2-.8-0.3-1.3-0.6-3.2-.8-4.4a0.893,0.893,0,0,1,.05-0.65c0.1-.233.183-0.45,0.25-0.65q0.6-1.2,1.3-2.8a18.131,18.131,0,0,0,.9-6.4,17.675,17.675,0,0,0-.4-2.6h0.4a28.281,28.281,0,0,1,2.8.9,1.521,1.521,0,0,1,.8.7,2.079,2.079,0,0,0,1.6.8,5.417,5.417,0,0,0,1.2-.2q4.3-1.1,8.3-2.4,0.8-.1.8-0.5l-0.1-.6-0.1-.3q0.1-.8.2-2t0.1-2.8a13.037,13.037,0,0,0-.1-1.6,12.053,12.053,0,0,1-.1-1.5,26.559,26.559,0,0,1-.1-2.7,8.889,8.889,0,0,0-1-4.2,0.946,0.946,0,0,0-.3-0.4,1.933,1.933,0,0,1-.1-1,1.1,1.1,0,0,1,.4-0.2,0.654,0.654,0,0,1,.5,0c0.2,0.067.433,0.134,0.7,0.2a3.684,3.684,0,0,0,.9.1,1.71,1.71,0,0,0,.7-0.1,1.7,1.7,0,0,1,1.4.5,8.184,8.184,0,0,0,1.8,1.05,18.142,18.142,0,0,1,2,1.05,9.417,9.417,0,0,1,1.9,1.2,3.366,3.366,0,0,1,1.5,3,4.3,4.3,0,0,1-.8,2.6,4.539,4.539,0,0,0-.8,2.3,4.017,4.017,0,0,1-1,2q-0.1.1-.55,0.5a1.846,1.846,0,0,0-.55,1.2,3.492,3.492,0,0,0,1-.1l4.7-1.1a25.911,25.911,0,0,0,3.2-.8q0.9-.2,1.75-0.35t1.75-.35a25.415,25.415,0,0,0,3.8-1.2,0.82,0.82,0,0,0,.5-0.3,1.58,1.58,0,0,1,.6-0.4,4.56,4.56,0,0,0,.5-0.3,1.236,1.236,0,0,1,.7-0.2l0.4,0.1a0.785,0.785,0,0,0,.5.1,2.057,2.057,0,0,1,2,1.3,1.174,1.174,0,0,0,1,.6h0.3l1.4,1.4c0.133,0.067.266,0.134,0.4,0.2s0.266,0.134.4,0.2a12.724,12.724,0,0,1,4.1,2.9,2.526,2.526,0,0,1,.6,1.7,5.337,5.337,0,0,1-.5,1.9,2.883,2.883,0,0,1-2.2,1.6l-0.4.2a5.771,5.771,0,0,1-1.25.8,3.22,3.22,0,0,0-1.35,1.2h-0.2l-0.4.2a28.708,28.708,0,0,1-2.5,1.6,1.113,1.113,0,0,1-.9.6,0.4,0.4,0,0,1-.3-0.1h-0.2q-1.9.4-2.7,0.5a1.434,1.434,0,0,1-1-.5,4.28,4.28,0,0,1-.65-0.55q-0.351-.349-0.65-0.65a1.917,1.917,0,0,1-.6-1.4,2.282,2.282,0,0,1,.5-1.3,8.565,8.565,0,0,0,1.7-3.1,20.8,20.8,0,0,1,.5-2.1h0Zm-61.2-5.7a0.831,0.831,0,0,1,.2-0.8,0.959,0.959,0,0,1,.7-0.3,2.921,2.921,0,0,0,.7-0.15,3.163,3.163,0,0,1,.9-0.15,3.3,3.3,0,0,1,.8.2,22.987,22.987,0,0,0,2.5.95q1.4,0.45,2,.65,0.3,0.1,2.5.9a2.547,2.547,0,0,1,.65.45q0.249,0.251.45,0.45t2.2,1.6a0.477,0.477,0,0,1,.3.7,1.426,1.426,0,0,1,.2.8,2.785,2.785,0,0,1-.35,1.2,2.7,2.7,0,0,0-.35,1,15.661,15.661,0,0,1-1.1,3.4,12.324,12.324,0,0,1-1.7,2.1,0.972,0.972,0,0,1-1.05.2,2.083,2.083,0,0,1-1.05-.7l-1.8-2.3q-1.1-1.4-1.5-2l-0.9-1.8a6.25,6.25,0,0,0-.7-1.1,8.906,8.906,0,0,1-.7-1q-0.2-.5-0.4-0.9t-0.4-.9a10.765,10.765,0,0,0-.95-1.6,2.785,2.785,0,0,0-1.15-.9h0Zm34.3,31.2q0.5-.1,1.6-0.3a7.049,7.049,0,0,0,1.9-.6,1.616,1.616,0,0,1,.7-0.2,3.023,3.023,0,0,0,.6-0.2,0.4,0.4,0,0,0,.2-0.4v-0.5q0-.5-0.1-1.45t-0.2-1.65a0.667,0.667,0,0,0-.8-0.7,1.625,1.625,0,0,1-.5-0.1,2.25,2.25,0,0,0-.7-0.1,7.877,7.877,0,0,1-3.1-1.4,4.987,4.987,0,0,0-1-.7,2.4,2.4,0,0,1-1-1q-0.3-.7-1.3-2.6a3.54,3.54,0,0,0,1.6.4,11.1,11.1,0,0,0,3-.7l2.5-.6a17.727,17.727,0,0,1,2.1-.5q0.4-.1,1.45-0.35a6.105,6.105,0,0,0,1.85-.75,15.608,15.608,0,0,1,1.8-.8,3.547,3.547,0,0,1,1-.1,4.114,4.114,0,0,1,.55.1,0.672,0.672,0,0,0,.75-0.4q0-.2.9,0a12.981,12.981,0,0,1,1.8.4q0.4,0.2,1.2.6a3.55,3.55,0,0,1,1.2.9,1.279,1.279,0,0,1,.4,1.2v0.9a2.275,2.275,0,0,1-1.7,2.1l-0.5.5a3.451,3.451,0,0,1-1.45.7,6.753,6.753,0,0,1-1.05.2q-0.2,0-2.8.6a8.4,8.4,0,0,0-.9.2l1.8,1.7a0.265,0.265,0,0,1,.3.3,1.8,1.8,0,0,1,.3,1.1,0.535,0.535,0,0,0,.9.4,4.251,4.251,0,0,0,1.05-.3q0.45-.2.75-0.3l4.5-1.2a1.835,1.835,0,0,0,1.1-1l0.3,0.1a1.064,1.064,0,0,1,.9,0,2.438,2.438,0,0,1,.5.3l2.2,1.7h0.2a1.626,1.626,0,0,0,.75,1.35,10.6,10.6,0,0,1,.95.75q0.2,0.2.55,0.6a1.931,1.931,0,0,1,.45.9,2.742,2.742,0,0,0,.35.8,2.836,2.836,0,0,1,.35.8,1.465,1.465,0,0,1,.3.9,1.925,1.925,0,0,1-.3,1,5.787,5.787,0,0,1-1.1,2.1,3.96,3.96,0,0,0-.45,1.3,9.856,9.856,0,0,1-.25,1.1,14.028,14.028,0,0,1-.7,2q-0.2.7-.4,1.7-0.1.3-.35,0.9a2.792,2.792,0,0,1-.55.9q-0.3.5-.8,1.25a5.8,5.8,0,0,0-.7,1.35,2.518,2.518,0,0,1-.6,1l-0.6.6a11.005,11.005,0,0,0-.7,1.1,10.815,10.815,0,0,1-.7,1.1,2.01,2.01,0,0,1-1.7,1.1,2.21,2.21,0,0,1-1-.2,1.747,1.747,0,0,1-.7-0.7,1.79,1.79,0,0,1-.3-0.9c0-.666-0.234-1-0.7-1l-0.4.1-1.5.7-1.7.5q-0.6.2-1.8,0.55a12.427,12.427,0,0,1-2.1.45,5.17,5.17,0,0,0-1,.4,2.49,2.49,0,0,1-1.1.3,1.105,1.105,0,0,1-.5-0.1,2.159,2.159,0,0,0-1.2.4,4.315,4.315,0,0,1-2.1.7l-0.7-.1h-0.3l-1.8.8a0.587,0.587,0,0,0,.5.3q0.5,0.3,1.25.8a7.86,7.86,0,0,1,1.15.9,2.258,2.258,0,0,1,1,1.6,3.419,3.419,0,0,1-.4,2.4,1.234,1.234,0,0,1-.4.55,2.863,2.863,0,0,1-.5.35l-1.9,1.1q-0.6.5-1.3,1t-1.3,1a0.553,0.553,0,0,0-.3.2,1.521,1.521,0,0,1-.95.8q-0.651.2-.95,0.3a7.074,7.074,0,0,0-1.9.9,3.3,3.3,0,0,1-1.55.6c-0.567.066-.917,0.1-1.05,0.1a4.492,4.492,0,0,0-.6.25,4.628,4.628,0,0,1-.6.25,3.694,3.694,0,0,0-.9.1,3.755,3.755,0,0,1-.9.1h-0.3a10.68,10.68,0,0,1-2.2-.6l-0.4-.2c-0.134-.067-0.1-0.2.1-0.4v-0.1a0.786,0.786,0,0,1,.5-1.1q1.4-.5,1.8-0.7a1.459,1.459,0,0,0,.45-0.45,2.279,2.279,0,0,1,.35-0.45q1.2-1,1.4-1.2,0.6-.6,1.75-1.7a22.081,22.081,0,0,0,1.95-2.1,8.737,8.737,0,0,0,2-4,0.333,0.333,0,0,0,0-.35,0.337,0.337,0,0,0-.3-0.15,7.727,7.727,0,0,1-3.4-2,6.815,6.815,0,0,1-.6-0.45q-0.3-.248-0.6-0.45l1.8-.6,1.8-.6a0.337,0.337,0,0,0,.3-0.15,0.824,0.824,0,0,0,.1-0.45l-0.3-.9a15.085,15.085,0,0,1-.8-4q-0.1-1-.9-7.3a0.808,0.808,0,0,0-.4-0.8,3.848,3.848,0,0,1-1.1-1.2q-0.5-.8-0.7-1.2-0.8-1.6-.9-1.9a1.384,1.384,0,0,1-.1-0.6h0.5a2.487,2.487,0,0,0,1.1.3,1.621,1.621,0,0,0,1-.3,0.248,0.248,0,0,1,.3,0,2.468,2.468,0,0,1,.75.15c0.3,0.1.55,0.184,0.75,0.25a6.571,6.571,0,0,0,.8.2,4.254,4.254,0,0,0,.8.1,12.07,12.07,0,0,1,1.5.8l0.4,0.2a1.757,1.757,0,0,1,1.5,1.2l0.4,0.5a3.167,3.167,0,0,1,.4,1.1,1.4,1.4,0,0,1-.1.6,0.765,0.765,0,0,0,0,.55,2.408,2.408,0,0,1,.1.65,4.512,4.512,0,0,0,.05.65,1.963,1.963,0,0,1-.05.75q0,0.8.6,0.6l2.4-.6a7.148,7.148,0,0,1,1.05-.4,6.883,6.883,0,0,0,1.05-.4,0.354,0.354,0,0,0,.4-0.4q0-1.1-.2-3.3a0.265,0.265,0,0,0-.3-0.3,4.431,4.431,0,0,1-3.6-1.6Zm-44.4-11.9q0.5,0,2.15-.05a8.276,8.276,0,0,1,3.05.45q0.6,0.2,1.6.55a14.4,14.4,0,0,1,1.6.65,3.938,3.938,0,0,0,1.3.45,10.031,10.031,0,0,1,1.1.25,1.58,1.58,0,0,1,.6.4,3.644,3.644,0,0,0,.5.2,0.649,0.649,0,0,1,.4.3,3.28,3.28,0,0,1,1.2,1.3,0.64,0.64,0,0,1,.3.35,1.038,1.038,0,0,0,.2.35,6.741,6.741,0,0,1,.5,2.4,8.431,8.431,0,0,1-.2,1.5q-0.2.6-.45,1.25t-0.55,1.55a1.717,1.717,0,0,1-.75.7,2.37,2.37,0,0,1-1.15.3,1.222,1.222,0,0,1-.9-0.3,20.2,20.2,0,0,1-3.4-2.6,20.6,20.6,0,0,1-1.35-1.8q-0.75-1.1-1.25-1.7l-2.4-3.6a2.95,2.95,0,0,0-.55-0.75,6.818,6.818,0,0,1-.65-0.75,9.5,9.5,0,0,1-.9-1.4h0Zm62.5,12.2-4.8,1.1a0.56,0.56,0,0,0-.3.2,1.894,1.894,0,0,0-.7,1.5,2.2,2.2,0,0,0,.1.7q0.2,0.9.8,0.4a2.1,2.1,0,0,1,.8-0.1,4.407,4.407,0,0,1,2.9.5q0.7,0.4.8-.3l0.4-1.9v-2.1Zm-51.2,27.7a0.328,0.328,0,0,0-.1-0.4,1.553,1.553,0,0,0-.4-0.3,0.981,0.981,0,0,1-.5-0.9,1.108,1.108,0,0,1,.1-0.5,0.58,0.58,0,0,0,.1-0.7,8.814,8.814,0,0,0-.65-1.1,7.1,7.1,0,0,1-.55-0.9l-0.3-.3v-0.2l1.3,0.1a1.989,1.989,0,0,0,1.6-.5,9.331,9.331,0,0,0,1.55-2.45q0.65-1.448.85-1.95l2.9-5.8,2.1-4.2a2.246,2.246,0,0,0,.15-0.7,0.815,0.815,0,0,1,.45-0.7l0.6-.2a0.549,0.549,0,0,1,.3.6,13.651,13.651,0,0,1,.7,2.9l0.1,1.7a1.55,1.55,0,0,1-.3,1.1,0.578,0.578,0,0,0-.1.4,8.1,8.1,0,0,1-.15,2.3q-0.25,1.3-.35,1.9a8.853,8.853,0,0,0-.25,1.4c-0.034.4-.05,0.734-0.05,1s-0.034.4-.1,0.4a4.25,4.25,0,0,0-.5,1.9v0.4a2.949,2.949,0,0,1-.25,1.5,12.265,12.265,0,0,0-.45,1.3,6.609,6.609,0,0,0-.1,1.4v1.7l-0.1.4a4.54,4.54,0,0,1-1,3.4,1.644,1.644,0,0,1-1.3.9,2.417,2.417,0,0,1-1.3-.6,6.462,6.462,0,0,1-1.9-2.4,3.4,3.4,0,0,0-.7-0.7,3.876,3.876,0,0,0-.9-0.4Zm49.9-20-2.3.6a3.07,3.07,0,0,0-.9.1,3.3,3.3,0,0,0-.95.35,1.443,1.443,0,0,0-.65.75,3.529,3.529,0,0,0-.6,2,0.9,0.9,0,0,0,1.1.9h0.4a19.735,19.735,0,0,1,2.4-.1c0.066,0,.233-0.016.5-0.05a0.588,0.588,0,0,0,.5-0.55q0.1-1.1.5-4h0Zm-17,2.8c0.066,0.4.133,0.884,0.2,1.45a16.056,16.056,0,0,1,.1,1.85l-0.2.8a3.056,3.056,0,0,1-.1.9,1.677,1.677,0,0,1,.4.05,0.9,0.9,0,0,0,.5-0.05q0.4-.1,1.05-0.2a7.33,7.33,0,0,0,1.45-.4l2.3-.6a5.8,5.8,0,0,0-.3-1,5.551,5.551,0,0,1-.3-1,2.037,2.037,0,0,0-.25-0.8,0.652,0.652,0,0,0-.55-0.2h-0.4a2.571,2.571,0,0,1-2.3-.5,3.173,3.173,0,0,0-1.1-.4,1.127,1.127,0,0,0-.5.1h0Zm15.7,10.9q2.2-.6,1.9-0.5h2a5.95,5.95,0,0,1,3.1.9,20.5,20.5,0,0,0,2.9.8,4.258,4.258,0,0,1,.7.2,2.125,2.125,0,0,1,1,.7c0,0.134.166,0.2,0.5,0.2a1.7,1.7,0,0,1,.85.2,1.6,1.6,0,0,1,.6.7c0.166,0.334.283,0.567,0.35,0.7a4.049,4.049,0,0,1,.1,1.1q0,0.4.05,1.35a8.707,8.707,0,0,1-.05,1.65l-0.1,1.1-0.3,1.8a14.722,14.722,0,0,1-.7,1.8,0.615,0.615,0,0,1-.45.4,0.752,0.752,0,0,1-.65-0.1l-1.6-1.1a35.849,35.849,0,0,1-2.5-2.7q-0.3-.3-2.3-2.8l-2.2-2.6a3.554,3.554,0,0,0-.5-0.8v-0.1a7.716,7.716,0,0,1-.85-1.15,3.145,3.145,0,0,0-1.15-1.15,2.713,2.713,0,0,1-.7-0.6h0Zm68.6-50.8a1.627,1.627,0,0,0,.9-0.2q0.6-.2,1.4-0.55t1.7-.65l4.7-1.8q1.4-.4,4.2-1.4a5.862,5.862,0,0,1,1.2-.45,8.414,8.414,0,0,0,1.1-.35l3-1.3a16.005,16.005,0,0,0,2.5-.7,3.608,3.608,0,0,0,.7-0.6,1.1,1.1,0,0,1,.7-0.4,0.585,0.585,0,0,1,.4.1l1.6,0.3h0.1q0.4,0.3,1,.8a3.123,3.123,0,0,1,.8.9,10.681,10.681,0,0,1,.85,1.4,3.316,3.316,0,0,1,.35,1.5,16.965,16.965,0,0,1,.2,2.3l-0.3.7a1.75,1.75,0,0,0-.2.5,1.443,1.443,0,0,1-1.4,1.4l-0.3.1a4.876,4.876,0,0,1-1.15.85,6.057,6.057,0,0,1-1.5.55,6.753,6.753,0,0,1-1.05.2q-0.2,0-3.6,1.3a6.718,6.718,0,0,0-1.6.4l-1.8.6a4.766,4.766,0,0,1-1.05.35c-0.434.1-.784,0.184-1.05,0.25a2.409,2.409,0,0,0-.8.3,3.262,3.262,0,0,1-1,.2,16.55,16.55,0,0,0-1.9.2,3.743,3.743,0,0,1-2,.4h-0.55a3.066,3.066,0,0,1-.75-0.1,5.252,5.252,0,0,0-.75-0.4,8.7,8.7,0,0,1-.95-0.5,3,3,0,0,1-1.3-1.6,2.79,2.79,0,0,0-.4-0.85,4.577,4.577,0,0,0-.5-0.65c-0.2-.266-0.434-0.6-0.7-1a2.9,2.9,0,0,0-.9-0.9c-0.134,0-.2-0.133-0.2-0.4a0.611,0.611,0,0,1,.15-0.45,0.478,0.478,0,0,0,.15-0.35h0Zm-14.7,23.6a0.577,0.577,0,0,1,.4-0.2q0.4-.1,1.25-0.35a5.571,5.571,0,0,1,1.55-.25,3.07,3.07,0,0,1,.9.1,0.555,0.555,0,0,0,.4.05,1.664,1.664,0,0,1,.4-0.05q1.2-.5,2.3-0.85t1.9-.65l3-1.1q2.6-1,3.9-1.4a16.69,16.69,0,0,0,2.3-.7q2.4-.6,3.5-1l3.9-1.2q2.8-.8,4.1-1.3a23.352,23.352,0,0,0,3.8-1.1q1.3-.3,3.9-1.1l8-2.5,5.5-1.8c0.2-.066.5-0.15,0.9-0.25a2.939,2.939,0,0,0,.9-0.35,1.311,1.311,0,0,1,.9.15,6.274,6.274,0,0,0,.8.35,10.089,10.089,0,0,0,1.7.7,5.727,5.727,0,0,1,3.4,2.7,3.443,3.443,0,0,1,.2,1.4,5.357,5.357,0,0,1-.1,1.2,6.174,6.174,0,0,1-.6,1.9,1.77,1.77,0,0,1-1.8,1.4q-1.8.2-2.8,0.4a3.314,3.314,0,0,1-1,.05,3.417,3.417,0,0,0-1,.05,2.632,2.632,0,0,0-.8.1c-0.2.067-.4,0.134-0.6,0.2a13.842,13.842,0,0,0-1.4.1q-0.9.1-1.5,0.2l-2.3.4a20.214,20.214,0,0,1-1.95.6q-1.151.3-1.95,0.5a9.708,9.708,0,0,0-1.5.5l-0.3.1a2.984,2.984,0,0,0-1.65.3q-0.851.4-1.15,0.5l-1.3.3a1.741,1.741,0,0,0-1.1,1.5v0.2a12.3,12.3,0,0,1,.2,1.9,2.784,2.784,0,0,1-.2,1.2,0.494,0.494,0,0,0,0,.45,2.337,2.337,0,0,1,.1.45v1.8q-0.1.4-.25,1.05a5.2,5.2,0,0,0-.15,1.15l0.1,0.6a6.682,6.682,0,0,1,.1,1.4q-0.2,3-.2,4.4,0,2.1.1,3.2,0,0.5.05,1.2a7.769,7.769,0,0,1-.05,1.5,11.884,11.884,0,0,0,.2,1.7l-0.1,2.3,0.1,1.6a19.889,19.889,0,0,1,.3,2.15q0.1,1.151.1,1.65l0.1,0.4,0.1,0.3a7.362,7.362,0,0,1-.1,2.8q-0.2.5-.45,1.15a9.278,9.278,0,0,0-.35,1.05,3.214,3.214,0,0,1-1,1.25,2.271,2.271,0,0,1-1.4.55h-2.2a0.708,0.708,0,0,1-.7-0.5,5.05,5.05,0,0,0-1.8-1.6,5.626,5.626,0,0,0-1.2-.85,9.8,9.8,0,0,1-1.3-.85,25.3,25.3,0,0,1-2.6-2.4,0.453,0.453,0,0,1-.15-0.6,1.209,1.209,0,0,1,.45-0.6l4.7-.9a0.893,0.893,0,0,0,.8-0.9v-2.5l-0.1-3.3q-0.2-1.3-.4-3.9l-0.1-3.5v-8.4a12.457,12.457,0,0,0-.2-2.4,0.375,0.375,0,0,1-.05-0.35,2.326,2.326,0,0,0,.05-0.45l0.2-1.6v-0.1a1.353,1.353,0,0,0,.05-0.6,0.307,0.307,0,0,0-.35-0.2h-0.5a18.4,18.4,0,0,0-1.9.4,2.916,2.916,0,0,0-1,.6,1.669,1.669,0,0,0-.7.5,5.863,5.863,0,0,0-2.7,1h-0.9a7.325,7.325,0,0,1-2.2.8,15.894,15.894,0,0,1-3.3.8,12.246,12.246,0,0,1-2.2.5,17.5,17.5,0,0,0-1.8.45,6.146,6.146,0,0,1-2.3.25h-0.3l-1.9-.6-0.4-.3a3.243,3.243,0,0,1-1.1-1c-0.134-.066-0.5-0.3-1.1-0.7a5.465,5.465,0,0,0-.85-0.6,8.01,8.01,0,0,0-1.15-.6,1.9,1.9,0,0,1-.6-1.1l-0.4-.9h-0.1Zm43.8,6.6q0-.3.4-0.3a3.508,3.508,0,0,1,2.5.4,0.949,0.949,0,0,0,.55.4,2.2,2.2,0,0,0,.45.1,0.575,0.575,0,0,0,.4.1,1.8,1.8,0,0,0,1.4.8l2.3,1.1a20.752,20.752,0,0,1,5,2.8,1.784,1.784,0,0,1,.55.7q0.249,0.5.35,0.7a5.646,5.646,0,0,1,.35.6c0.1,0.2.183,0.367,0.25,0.5q0.1,0.3.3,0.75a4.557,4.557,0,0,1,.3.95,5.142,5.142,0,0,1,.4,2.1,7.376,7.376,0,0,1-.3,1.9,7.1,7.1,0,0,1-.05.75,5.286,5.286,0,0,1-.25,1.05,1.741,1.741,0,0,1-.85.85,2.8,2.8,0,0,1-1.35.35h-0.4a3.131,3.131,0,0,1-1.9-1.2,44.773,44.773,0,0,1-4.3-5.6l-1.5-1.8a1.758,1.758,0,0,0-.55-0.35,0.839,0.839,0,0,1-.45-0.35,10.038,10.038,0,0,1-1.5-2.1l-1.3-1.7a3.476,3.476,0,0,1-.8-2.4v-1.1Zm-30.6,4.3a2.419,2.419,0,0,1,.3.8,16.559,16.559,0,0,1,.2,1.9,2.485,2.485,0,0,1-.3,1.1,5.128,5.128,0,0,0-.4,1l-0.7,1.4a3.171,3.171,0,0,1-.05.5,4.194,4.194,0,0,1-.25.8q-0.6,1-1.1,1.9t-0.9,1.7a7.429,7.429,0,0,1-.7.8l-0.8.8-0.6.6a18.281,18.281,0,0,0-2.2,1.8c-0.134.267-.3,0.334-0.5,0.2a14.213,14.213,0,0,0-1.6-.4,0.126,0.126,0,0,0-.2,0,1.688,1.688,0,0,1-1.5-.7,3.614,3.614,0,0,1-.9-2.8l0.1-.3a2.617,2.617,0,0,0,.1-0.8,3.48,3.48,0,0,1,.3-1,6.677,6.677,0,0,1,1.8-2.4,10.036,10.036,0,0,0,1.3-1.35,9.975,9.975,0,0,1,1.3-1.35q1.8-2.2,2.6-3.3a1.151,1.151,0,0,0,.2-0.3,1.563,1.563,0,0,1,.3-0.4l0.2-.2a0.62,0.62,0,0,0,.65-0.45,1.706,1.706,0,0,1,.25-0.55,1.85,1.85,0,0,1,.5-0.75,0.945,0.945,0,0,1,.6-0.25,2.25,2.25,0,0,1,.7.1,1.875,1.875,0,0,1,1.4,1.2v0.6Zm91.7-6.3a1.127,1.127,0,0,0-.5.1,0.479,0.479,0,0,0-.35.15,0.48,0.48,0,0,1-.35.15,3.053,3.053,0,0,0-1.8.15q-0.9.352-1.2,0.45c-0.267.067-.5,0.134-0.7,0.2s-0.434.134-.7,0.2q-1.1.3-2.2,0.65a7.928,7.928,0,0,0-2,.95,3.2,3.2,0,0,1-2,.8,3.717,3.717,0,0,1-2.2-.8q-1-.6-5.3-3a1.476,1.476,0,0,1-.9-1.3,4.011,4.011,0,0,1,1.8-.6,21.42,21.42,0,0,0,5.1-1.5q1.1-.5,2.55-1t2.15-.8a18.732,18.732,0,0,0,2.1-.7q4-1.5,7.3-2.6l2.9-1.2a0.27,0.27,0,0,0,.2-0.15,0.181,0.181,0,0,0,0-.25q0-3.3-.1-5v-2.2l-0.3-.7-1.3-2.3a0.675,0.675,0,0,0-.9-0.4c-0.134.067-.35,0.167-0.65,0.3a5.056,5.056,0,0,1-.85.3l-3,.9-1.2.4-0.4.1a1.34,1.34,0,0,0-.95.2c-0.367.2-.617,0.334-0.75,0.4a3.373,3.373,0,0,1-1.7.4l-1.7-.1h-0.3a0.99,0.99,0,0,1-.9-0.4,0.512,0.512,0,0,1-.2-0.55,1.333,1.333,0,0,1,.3-0.45l3.3-2.2q0.9-.7,2.2-1.6t2-1.4q0.7-.5,1.45-1.1t1.55-1.3a10.169,10.169,0,0,0,1.85-1.65q0.95-1.05,1.35-1.45,1.2-1.2,3.2-3.6,0.5-.5.85-0.9c0.233-.266.45-0.5,0.65-0.7a0.606,0.606,0,0,0,0-.9,8.268,8.268,0,0,1-.7-2.7,2.449,2.449,0,0,1,1.3.15q0.6,0.251,1.2.55,0.5,0.3,1.35.9a5.275,5.275,0,0,0,1.55.8,1.509,1.509,0,0,1,.75.5q0.35,0.4.55,0.6,1.5,1.2,1.6,1.3a1.987,1.987,0,0,1,.5.7,4.8,4.8,0,0,1,.6,1.3,1.405,1.405,0,0,1,.1,1.2q-0.1.4-.2,0.85a3.689,3.689,0,0,1-.3.85,1.445,1.445,0,0,1-1.3.9,2.864,2.864,0,0,0-.6.5,25.233,25.233,0,0,1-2.8,2.1l-2.4,1.5a4.7,4.7,0,0,1-2.9.9,0.978,0.978,0,0,0-.8.7,0.675,0.675,0,0,0,.2.5,17.224,17.224,0,0,0,2.8,1.4,3.826,3.826,0,0,0,.6.15,1.857,1.857,0,0,1,.5.15,10.164,10.164,0,0,1,1.7,1.3,2.99,2.99,0,0,1,.8,1.5,1.738,1.738,0,0,1-.2,1,0.869,0.869,0,0,0-.1.9,1.385,1.385,0,0,1,.15.8c-0.034.267-.05,0.434-0.05,0.5v2.3a0.429,0.429,0,0,0,.2.35,0.663,0.663,0,0,0,.4.15,4.711,4.711,0,0,1,1.7.35q0.9,0.352,1.2.45a2.442,2.442,0,0,1,1.5,2.1,7.162,7.162,0,0,1,.2.8,4.371,4.371,0,0,1,.1.8v1.2a0.489,0.489,0,0,0-.1.35,0.488,0.488,0,0,1-.1.35,0.936,0.936,0,0,1-.6.7l-2.3.5a5.522,5.522,0,0,0-1.4.8q-0.7.7,0.3,1a6.3,6.3,0,0,1,1.4.4,6.9,6.9,0,0,1,2.8,1.4l0.4,0.3a18.7,18.7,0,0,0,1.5,1.3,0.363,0.363,0,0,1,0,.5q-0.1.5-.5,2-0.1.3-.25,0.75t-0.35.95a1.17,1.17,0,0,1-1,.8,1.511,1.511,0,0,1-.6-0.2q-0.7-.3-1.25-0.55t-0.95-.45l-0.2-.2a1.979,1.979,0,0,0-.85-0.9,5.3,5.3,0,0,1-.95-0.7,0.46,0.46,0,0,0-.5-0.2,0.641,0.641,0,0,0-.3.4,5.3,5.3,0,0,0,.1,1.2,0.611,0.611,0,0,0,.1.35,0.824,0.824,0,0,1,.1.45,12.927,12.927,0,0,1,.1,1.9v0.8l-0.1,2.8c-0.067.2-.134,0.434-0.2,0.7a4.193,4.193,0,0,0-.1,1l0.3,3.1a6.924,6.924,0,0,1,.1,1.3v0.6a5.939,5.939,0,0,0-.1,1.3,9.56,9.56,0,0,1-.3,2.8,9.11,9.11,0,0,1-1.3,2.8l-0.3.3-0.3,1.7a2.588,2.588,0,0,0-.1.8,3.1,3.1,0,0,1-.8,1.9,0.882,0.882,0,0,1-.9.2,1.747,1.747,0,0,1-1-.4,7.36,7.36,0,0,1-.55-0.85,7.407,7.407,0,0,0-.55-0.85,0.9,0.9,0,0,0-.3-0.45,0.982,0.982,0,0,1-.3-0.35l-0.1-.3a0.792,0.792,0,0,0,.1-0.85c-0.134-.3-0.234-0.516-0.3-0.65l-0.1-.3-0.1-4.2c0-.266-0.017-0.7-0.05-1.3a8.117,8.117,0,0,1,.05-1.6l0.1-3.8q0.1-1.6.1-4.7v-1.9l-0.1-.5a0.862,0.862,0,0,0-.5.3,1.315,1.315,0,0,0-.6.6q-0.6.7-1.1,1.4t-1.1,1.4q-2.4,2.2-2.8,2.6l-1.9,1.9q-2,1.7-2.6,2.1a5.761,5.761,0,0,1-1.7.8,15.237,15.237,0,0,1-1.7.9l-1.6.6q-0.5.2-1.1,0.4t-1.1.4a4.969,4.969,0,0,1-2,.6,18.585,18.585,0,0,1-3.2.8,2.582,2.582,0,0,1-.8-0.1,0.79,0.79,0,0,1-.25-0.05,0.172,0.172,0,0,1-.15-0.15,0.677,0.677,0,0,1,.2-0.5q0.1-.1,1.3-1l4.2-3,4.7-3.6a22.922,22.922,0,0,0,2.3-2.1,17.571,17.571,0,0,0,2.1-2.7l1.8-2.7,1.8-2.5,1.3-2a6.039,6.039,0,0,1,.7-0.9Zm13.8,27,1.6-.9a41.368,41.368,0,0,0,7.5-7.4l1.7-2.5a21.778,21.778,0,0,0,2.15-3.1q1.05-1.8,1.55-2.6,1.4-3,2.4-5.8a8.57,8.57,0,0,0,.35-1.1,8.494,8.494,0,0,1,.35-1.1,30.221,30.221,0,0,0,1.3-6.9v-0.4l-0.1-.1-1,1a2.359,2.359,0,0,1-1.5.7,2.645,2.645,0,0,1-1.2-.5,6.077,6.077,0,0,1-2.1-2.2,4.827,4.827,0,0,1-.45-0.95,3.161,3.161,0,0,0-.35-0.75q-0.3-.5-0.6-0.95c-0.2-.3-0.4-0.616-0.6-0.95q-0.1-.2-0.6-1.4-0.1-.4-0.2-0.9a4.474,4.474,0,0,0-.4-1.1,9.661,9.661,0,0,0-.65-0.95q-0.351-.45-0.55-0.75l-0.3-.7a0.7,0.7,0,0,1,.35-0.15,0.682,0.682,0,0,0,.35-0.15,5.747,5.747,0,0,1,3.5.7q0.5,0.2,1.35.55a10.622,10.622,0,0,1,1.35.65,14.79,14.79,0,0,1,4.2,3.4h0.1l0.2-.6,0.2-4.8q0.2-4.4.2-6.5a32.547,32.547,0,0,0-.3-4.4q-0.2-2-.2-3.2a9.519,9.519,0,0,0-.65-2.8q-0.55-1.4-.75-1.9a1.6,1.6,0,0,1-.2-0.7q0.2-1.8.2-2.6a3.305,3.305,0,0,1,2.2,1.2,11.349,11.349,0,0,0,1.25.85q0.75,0.45,1.15.65t1.1,0.55a6.923,6.923,0,0,1,1.2.75,5.026,5.026,0,0,1,2.2,3.7,0.165,0.165,0,0,1,.05.2,0.44,0.44,0,0,0-.05.2l-0.3,2.6a5.518,5.518,0,0,1-.3.7,1.529,1.529,0,0,0-.2.6,3.642,3.642,0,0,0,0,1.7,1.348,1.348,0,0,1,.05.95,2.383,2.383,0,0,0-.15.65q-0.4,2-.5,3a7.316,7.316,0,0,1-.1,1.05q-0.1.652-.2,1.15a5.85,5.85,0,0,0-.2,1.4,12.959,12.959,0,0,0,.2,1.5l1.5-2.2a18.067,18.067,0,0,0,1.1-1.95q0.4-.848.7-1.35l2-3.7a2.784,2.784,0,0,0,.2-1.2,12.062,12.062,0,0,0-.2-1.7,1.745,1.745,0,0,0-.2-0.9l0.7,0.2,1.3,0.3a2.841,2.841,0,0,1,.8.3,2.07,2.07,0,0,0,.95.65,5.24,5.24,0,0,1,.95.45q0.7,0.4,3.3,2a2.12,2.12,0,0,1,.7,1.7,2.1,2.1,0,0,1-.3,1.1,0.339,0.339,0,0,0-.1.25,0.34,0.34,0,0,1-.1.25,0.679,0.679,0,0,1-.2.5,2.372,2.372,0,0,0-.8.75q-0.4.551-.6,0.85a1.078,1.078,0,0,1-.5.4,1.667,1.667,0,0,0-1,.55q-0.4.45-.6,0.65l-1.6,1.4-2,1.5-0.8.8-0.8.8a8.671,8.671,0,0,1-1.4.65,8.87,8.87,0,0,0-1.4.65l-1.6.6a0.563,0.563,0,0,0-.2.3l-0.1,2a8.372,8.372,0,0,0-.2,1.5,3.022,3.022,0,0,0,.1.9l0.1,0.6a3.028,3.028,0,0,0,1.1,2.8,15.651,15.651,0,0,1,2.4,3.4,22.948,22.948,0,0,0,4,5.4q2.2,2.1,3.8,3.9a45.155,45.155,0,0,0,4.1,3.8l3.3,2.8,3,2.8c0.2,0.2.45,0.484,0.75,0.85a3.7,3.7,0,0,0,.95.85,29.84,29.84,0,0,0,2.5,2l2.4,1.5a1.176,1.176,0,0,1,.6,1,1.36,1.36,0,0,1-.4,1,2.823,2.823,0,0,1-1.9.6h-0.8q-1-.1-2.4-0.3a17.788,17.788,0,0,0-2.5-.2h-0.3a5.853,5.853,0,0,1-1.2-.15,5.515,5.515,0,0,0-1-.15l-1.6-.3h-0.1a2.422,2.422,0,0,0-1.4-.3h-1.2l-0.9-.1a5.16,5.16,0,0,1-3.4-1.9,17.878,17.878,0,0,1-2.05-3.05q-0.951-1.748-1.25-2.25a15.285,15.285,0,0,0-.85-1.65q-0.45-.75-0.75-1.35c-0.2-.4-0.367-0.766-0.5-1.1s-0.267-.633-0.4-0.9q-1-1.9-1.9-3.4l-1-1.8q-0.2-.5-0.5-1.1l-0.6-1.2a0.942,0.942,0,0,0-.5-0.6c-0.334-.2-0.5-0.066-0.5.4l-0.3,1.2a12.775,12.775,0,0,0-1.3,2.3l-0.3.4a6.819,6.819,0,0,0-1.3,2.8,5.879,5.879,0,0,1-.7,1.35,7.724,7.724,0,0,1-.7.95l-0.3.6a3.9,3.9,0,0,0-.4.7l-0.4.5a2.947,2.947,0,0,1-.7.9,2.618,2.618,0,0,0-.4.55,2.6,2.6,0,0,1-.4.55,19.169,19.169,0,0,1-1.3,1.5,16.487,16.487,0,0,1-2.3,2,1.913,1.913,0,0,1-1.2.7,0.56,0.56,0,0,0-.3.2l-0.3.3q-2.2,1.2-2.6,1.4-2,.7-4.9,1.6a7.484,7.484,0,0,1-4.2,0h0Zm124.6-68.9,0.2,0.4a6.022,6.022,0,0,1,.8,1.2,6.442,6.442,0,0,1,.6,1.3,12.635,12.635,0,0,1-.55,2.25,14.534,14.534,0,0,1-1.05,2.75l-0.7,1.8q-0.6,1.5-2.15,4.65t-3.05,5.95q-2.7,4.2-3.1,4.7a0.685,0.685,0,0,0-.15.6,0.365,0.365,0,0,0,.35.4,6.973,6.973,0,0,0,1.6-.5,3.84,3.84,0,0,1,1.5-.5,0.557,0.557,0,0,0,.3-0.2l0.5-.1a1.067,1.067,0,0,0,.6-0.2,2.244,2.244,0,0,1,.7-0.3,3.763,3.763,0,0,1,1.7-.4,4.645,4.645,0,0,0,2.4-.8l1.6-.7,0.7-.4a1.515,1.515,0,0,1,.9-0.4,1.523,1.523,0,0,0,.55-0.15,3.731,3.731,0,0,0,.75-0.45l1.2-.5a5.727,5.727,0,0,1,.2,2.2,44.69,44.69,0,0,1-.2,5l-0.9,8.7q-0.1.4-.2,0.85a3.107,3.107,0,0,1-.2.65,2.186,2.186,0,0,1-1.4,0,8.643,8.643,0,0,1-2.1-.6l-0.7-.2a0.948,0.948,0,0,0-.2.8,2.54,2.54,0,0,0,.8,1.5l2.2,2.2a5.45,5.45,0,0,1,1.4,1.7q-1,.4-3.8,1.35a20.773,20.773,0,0,1-3.2.95,1.723,1.723,0,0,1,0-.95,12.562,12.562,0,0,1,.3-1.75,3.157,3.157,0,0,0,.4-1.1v-0.1l0.3-1.3a17.815,17.815,0,0,0,.6-3.4,6.711,6.711,0,0,0,0-1.65,3.133,3.133,0,0,0-.4-1.05,2.826,2.826,0,0,0-.7-1.1l-1.1-.9-1.4-.9c-0.134-.066-0.3-0.15-0.5-0.25a0.463,0.463,0,0,1-.3-0.25,9.078,9.078,0,0,0-1.3-1,16.087,16.087,0,0,0-1.7-1,1.079,1.079,0,0,0-.6-0.2l0.5,2a7.008,7.008,0,0,1,.5,2.1l-0.2,1.6a11.874,11.874,0,0,1-.4,2.7l-0.3,2a5.415,5.415,0,0,1-.4,2.2q-0.3,2.4-.3,3.2a7.469,7.469,0,0,1-.8,3.15,3.736,3.736,0,0,1-2,1.45,28.466,28.466,0,0,0-2.8.9,1.078,1.078,0,0,1-.5.4,0.359,0.359,0,0,0-.2.35,0.2,0.2,0,0,0,.2.25,6.44,6.44,0,0,1,1.1.8q3.2,2.8,4.8,2.8a3.179,3.179,0,0,1,.7.3q0.2,0.2,1.2-.5a5.524,5.524,0,0,0,.75-0.35,1.945,1.945,0,0,0,.35-0.25l0.3-.1a4.394,4.394,0,0,0,1.2-.6,9.027,9.027,0,0,1,2.3-.9,22.226,22.226,0,0,0,3.7-1.3l1.2-.5a11.4,11.4,0,0,0,2.2-.8,8.151,8.151,0,0,1,2.5-1,3.519,3.519,0,0,0,1.3-.3l1.1-.1a3.612,3.612,0,0,0,1.7-.3,2.471,2.471,0,0,1,1.1-.4h0.3a1.863,1.863,0,0,0,1.5-.4,3.3,3.3,0,0,1,1.05-.5,4.951,4.951,0,0,1,1.05-.1l1.1,0.2-0.1.7a39.469,39.469,0,0,1-3.45,10.9,30.039,30.039,0,0,1-2.35,4.2l-0.9,1.3a0.49,0.49,0,0,1-.1.25,0.751,0.751,0,0,1-.3.25,4.571,4.571,0,0,0-.7.8,0.81,0.81,0,0,1-.6.5,2.164,2.164,0,0,0-.7.4,2.49,2.49,0,0,1-1.1.3,1.758,1.758,0,0,1-.8-0.2l-1.5-.3-1-.2a4.229,4.229,0,0,0-.7.2,0.887,0.887,0,0,0-.45.35,1.071,1.071,0,0,0,.3.65,15.938,15.938,0,0,0,1.05,1.3,2.03,2.03,0,0,1,.7,1,0.4,0.4,0,0,0,.2.4,5.8,5.8,0,0,1,.75,1.05,4.2,4.2,0,0,1,.55,1.25,0.806,0.806,0,0,0,.4.8,1.342,1.342,0,0,1,.4,1q0.3,1.2.6,1.2a0.583,0.583,0,0,0,.4-0.1,1.238,1.238,0,0,1,.7,0,1.291,1.291,0,0,0,1,0,4.722,4.722,0,0,1,1.1-.1,1.993,1.993,0,0,0,1.15-.5,18.464,18.464,0,0,0,1.65-1.5,7.246,7.246,0,0,1,1.9-1.3,7.8,7.8,0,0,0,2.4-2.2l0.6-.8a8.231,8.231,0,0,0,1.1-1.7,14.058,14.058,0,0,0,.9-1.9l0.3-1a4.036,4.036,0,0,0,.4-0.85q0.3-.75.6-1.45l0.7-2.2,0.5-.8a31.024,31.024,0,0,1,1.1-3l0.2-.9,0.3-1.2a7.03,7.03,0,0,0,.5-1.6c0-.466.066-0.7,0.2-0.7a1.189,1.189,0,0,0,.4-0.65,3.07,3.07,0,0,0,.2-1.05,1.082,1.082,0,0,1,.3-0.8,3.79,3.79,0,0,0,.3-1.8,5.7,5.7,0,0,0-.35-1.75,3.263,3.263,0,0,0-1.05-1.15,2.005,2.005,0,0,1-.8-0.9,5.685,5.685,0,0,0-.7-1q-0.5-.6-0.5-0.4l-0.9-.3a2.545,2.545,0,0,0-1.2-.4h-0.2a1.353,1.353,0,0,1-.9-0.2,3.487,3.487,0,0,0-.55-0.2,2.767,2.767,0,0,0-.75-0.1l-1-.3-0.9.2q-1,.3-2.3.6a20.755,20.755,0,0,1-2.4.6l-0.7.1,0.6-1.2a10.763,10.763,0,0,0,.75-2.35,37.759,37.759,0,0,0,.45-4.25l0.2-2.4a1.344,1.344,0,0,0,.2-0.55,3.466,3.466,0,0,0,.1-0.65,18.8,18.8,0,0,1,.5-4l0.2-1.8q0.3-3.3.5-3.3c0.133,0,.183-0.166.15-0.5s-0.084-.7-0.15-1.1a4.153,4.153,0,0,0-1.4-1.8,3.3,3.3,0,0,0-2-.9,2.354,2.354,0,0,1-.65-0.1,3.13,3.13,0,0,1-.55-0.2l-1.1-.4a4.777,4.777,0,0,1-1.4-.5,1.88,1.88,0,0,0-1-.2,1.513,1.513,0,0,0-1.2.6,1.378,1.378,0,0,1-.9.5,2.543,2.543,0,0,0-1.1.6,1.906,1.906,0,0,1-.8.5c-0.067,0-.1-0.066-0.1-0.2a0.569,0.569,0,0,1,.2-0.6l0.8-.8a3.839,3.839,0,0,1,.9-1.3q0.7-.8,2.8-3.6a5.613,5.613,0,0,0,.9-1.9,2.431,2.431,0,0,1,.25-0.75,0.493,0.493,0,0,1,.45-0.25,1.17,1.17,0,0,0,.55-0.75,6.19,6.19,0,0,0,.35-1.45,0.848,0.848,0,0,0-.05-0.85,4.624,4.624,0,0,0-.35-0.45c-0.134-.133-0.3-0.283-0.5-0.45s-0.4-.35-0.6-0.55a1.648,1.648,0,0,1-.6-0.5c-0.134-.066-0.467-0.25-1-0.55a8.062,8.062,0,0,0-1.1-.55,1.076,1.076,0,0,1-.9-0.6,1.761,1.761,0,0,0-.25-0.2,0.625,0.625,0,0,0-.35-0.1,0.575,0.575,0,0,1-.4-0.1,3.249,3.249,0,0,0-.6-0.2q-0.4-.1-0.8-0.2c-0.267-.066-0.55-0.15-0.85-0.25a2.7,2.7,0,0,0-.85-0.15c-0.334-.133-0.5-0.166-0.5-0.1h0Zm-45.5,6.5a0.241,0.241,0,0,0-.1.35q0.1,0.251.2,0.45a1.731,1.731,0,0,1,.2.25,0.5,0.5,0,0,1,.1.25,3.264,3.264,0,0,0,.45,1,9.66,9.66,0,0,0,.85,1.3,9.358,9.358,0,0,1,1.2,2,15.631,15.631,0,0,0,1.3,2.4l1.2,1.7,1,1.3a3.781,3.781,0,0,0,.7,1,1.5,1.5,0,0,0,.6.75,11.872,11.872,0,0,0,1.7.75,3.03,3.03,0,0,0,1.1.3c0.266,0,.4-0.066.4-0.2a1.154,1.154,0,0,1,.4-0.8,1.369,1.369,0,0,0,.5-0.8,0.463,0.463,0,0,1,.3-0.5,1.19,1.19,0,0,0,.2-0.9,14.023,14.023,0,0,1-.1-2.5,8.028,8.028,0,0,0-.7-3.45,3.292,3.292,0,0,0-2.2-1.45,21.055,21.055,0,0,1-2.7-1l-0.6-.2a9.18,9.18,0,0,1-.95-0.3q-0.55-.2-1.05-0.4a6.462,6.462,0,0,0-1.7-.5,0.817,0.817,0,0,1-.5-0.3,0.392,0.392,0,0,0-.4-0.3,1.257,1.257,0,0,1-.8-0.1,0.553,0.553,0,0,0-.35-0.2,0.342,0.342,0,0,0-.25.1h0Zm26.5,11.3a1.05,1.05,0,0,1-.45.8,1.505,1.505,0,0,1-.85.6,0.817,0.817,0,0,0-.5.3c0,0.2-.067.3-0.2,0.3l-1.5.8a59.066,59.066,0,0,1-6,3.2,4.392,4.392,0,0,1-1.8.4l-0.8.1a0.811,0.811,0,0,0,.5.6,0.82,0.82,0,0,1,.3.5,5.431,5.431,0,0,0,.9,1q0.9,0.9,1.6,1.5l1.2,0.9a5.07,5.07,0,0,0,1.3.7,1.758,1.758,0,0,0,.8.2,2.2,2.2,0,0,0,.7-0.1l0.8-.2,0.2,0.1q0.1,0.1.1,6.5,0,3-.05,4.85t-0.8,2.35a7.807,7.807,0,0,0-.95.7l-3.1,2.7q-1,.9-1.75,1.55t-1.05.95a8.3,8.3,0,0,0-1.6,1.2,2.05,2.05,0,0,1-.55.45c-0.1.034-.217-0.083-0.35-0.35a3.836,3.836,0,0,1-.4-0.7,0.672,0.672,0,0,1-.1-0.65,14.544,14.544,0,0,1,.5-1.55,4.163,4.163,0,0,0,.2-1.6,2.089,2.089,0,0,0-.15-0.9,2.35,2.35,0,0,0-.45-0.6,0.855,0.855,0,0,0-.6-0.6,0.861,0.861,0,0,1-.15.35,2.406,2.406,0,0,0-.25.65q-0.4,1.1-1.45,3.3t-2.45,4.7a43.75,43.75,0,0,1-2.5,4,10.356,10.356,0,0,0-.9,1.4,10.1,10.1,0,0,1-1,1.4l-2,2.5q-0.9,1.4-1.6,1.4-1.4.3-1.4,0.7l0.5,0.3a1.137,1.137,0,0,1,.5.4,2.933,2.933,0,0,0,1,.8,2.263,2.263,0,0,1,1,.8,4.4,4.4,0,0,1,.9,1,1.763,1.763,0,0,1,.9.9,0.18,0.18,0,0,0,0,.25,0.335,0.335,0,0,0,.3.15,6.112,6.112,0,0,1,1.6,1.1,4.7,4.7,0,0,0,1.3,1.1,7.889,7.889,0,0,1,1.3.1,5.991,5.991,0,0,0,.9-0.05,0.52,0.52,0,0,0,.4-0.45,0.762,0.762,0,0,0,.3-0.25,0.494,0.494,0,0,0,.1-0.25,3.722,3.722,0,0,1,.2-0.5,1.116,1.116,0,0,1,.2-0.3,0.648,0.648,0,0,0,.3-0.7v-0.6a2.66,2.66,0,0,1,.2-1.5,3.825,3.825,0,0,0,.3-1.2,1.581,1.581,0,0,1,.2-1,2.494,2.494,0,0,0,.2-1.1,3.089,3.089,0,0,1,.2-1.3,23.409,23.409,0,0,0,.4-5.1,2.233,2.233,0,0,0,.1-0.7,1.394,1.394,0,0,1,.1-0.6,1.636,1.636,0,0,0,.25-0.5,2.258,2.258,0,0,0,.15-0.8,10.085,10.085,0,0,1,.35-1.75,1.834,1.834,0,0,1,.35-0.85,7.811,7.811,0,0,1,1.7,1.3q2.1,1.9,2.75,2.35a2.209,2.209,0,0,0,1.25.45,2.318,2.318,0,0,0,.9-0.3,4.8,4.8,0,0,0,.7-0.6,1.341,1.341,0,0,1,1-.7,3.751,3.751,0,0,0,1.4-1.1l1.3-1.1,0.3-.5a0.926,0.926,0,0,1,.5-0.6,3.946,3.946,0,0,0,.8-0.9,12.342,12.342,0,0,0,1.5-2.3,16.77,16.77,0,0,1,2.1-3.1,1.7,1.7,0,0,0,.8-0.9,1.027,1.027,0,0,1,.2-0.4,1.8,1.8,0,0,1,.5-0.5,2.911,2.911,0,0,0,.6-1,0.473,0.473,0,0,1,.4-0.5,9.355,9.355,0,0,0,.85-1,3.055,3.055,0,0,0,.55-1l-0.4-.5a5.449,5.449,0,0,1-.6-1.6q-0.3-1.4-.7-1.4a1.949,1.949,0,0,0-1.1,1,2.831,2.831,0,0,1-.9,1.2c-0.2.067-.317,0.034-0.35-0.1a4.777,4.777,0,0,1-.05-0.9l0.1-2.8v-5.2a2.564,2.564,0,0,1,.4-1.6,4.961,4.961,0,0,1,1.6-1.1,10.829,10.829,0,0,0,2.1-1.35,2.949,2.949,0,0,0,1-1.15l0.1-2.3q0-1.2-.6-1.2a3.306,3.306,0,0,1-.7-0.35,4.461,4.461,0,0,1-.8-0.65,7.268,7.268,0,0,0-1.7-1.35,4.589,4.589,0,0,0-2-.35,8.17,8.17,0,0,0-1.05.05c-0.234.034-.35,0.117-0.35,0.25h0Zm15.2,7.6q-0.3.5,1.55,3.35a27.594,27.594,0,0,0,3.45,4.45l0.7,0.5a0.557,0.557,0,0,0,.3-0.2,0.68,0.68,0,0,1,.5-0.2,2.457,2.457,0,0,0,1.5-.9,2.749,2.749,0,0,0,.9-1.6,0.921,0.921,0,0,0,.05-0.5,2.5,2.5,0,0,0-.3-0.6,3.592,3.592,0,0,0-.45-0.6,5.649,5.649,0,0,0-1.4-1,1.138,1.138,0,0,1-.65-0.25,3.985,3.985,0,0,1-.45-0.35,1.332,1.332,0,0,0-.8-0.3l-0.4-.2a1.128,1.128,0,0,0-.6-0.4,3.989,3.989,0,0,1-1.6-.6,14.788,14.788,0,0,0-2.1-.8,0.177,0.177,0,0,0-.2.2h0Zm-52.8,3.5a0.652,0.652,0,0,1,.15.3,0.618,0.618,0,0,0,.15.3,7.867,7.867,0,0,1,.55.65,11.674,11.674,0,0,0,.95,1.05l1.3,1.2a1.678,1.678,0,0,0,.6.9,5.154,5.154,0,0,1,.85.85q0.45,0.551.65,0.75a10.561,10.561,0,0,0,1.2,1.7,9.034,9.034,0,0,0,1.3,1.6l1.1,1.6a7.461,7.461,0,0,0,1.55,1.85,13.178,13.178,0,0,0,2.05,1.55q1.5,1,1.6,1.1a0.959,0.959,0,0,0,.7.3,2.88,2.88,0,0,0,1-.85,3.68,3.68,0,0,0,.9-1.25,5.723,5.723,0,0,0,.4-2,17.428,17.428,0,0,0-.1-2.8l-1.6-2.9a14.023,14.023,0,0,0-.8-1.7,5.1,5.1,0,0,0-.6-0.9,0.551,0.551,0,0,1-.3-0.2,3.063,3.063,0,0,0-2.2-1q-1.2-.3-2.6-0.8a6.141,6.141,0,0,0-2-.5,1.353,1.353,0,0,1-.9-0.2l-1-.1q-1.8-.1-3.15-0.25a8.109,8.109,0,0,1-1.85-.35Zm60.8,25.5a1.621,1.621,0,0,1-1,.3l-0.8-.2a1.555,1.555,0,0,0-1.1.2,9.579,9.579,0,0,1-3.1.8,8.088,8.088,0,0,0-2.4.5q-2,.4-3.4.6l-2.7.7-2.5.5-3.5.8-2.9.6a15.25,15.25,0,0,1-3.3.6,0.41,0.41,0,0,0-.3.1,0.244,0.244,0,0,0,0,.3,1.131,1.131,0,0,0,.25.45,0.409,0.409,0,0,0,.25.15l0.7,0.4a15.734,15.734,0,0,0,2.7,1.8,12.976,12.976,0,0,0,3.1,1,4.176,4.176,0,0,0,1,.1,8.417,8.417,0,0,0,1.6-.3q2.4-.6,3.75-0.85t1.85-.35a3.262,3.262,0,0,0,1-.2,5.55,5.55,0,0,1,1.1-.2l0.9-.1a9.29,9.29,0,0,1,1.5-.4,20.124,20.124,0,0,1,2.1-.3,3.769,3.769,0,0,0,1.5-.2,3.791,3.791,0,0,1,1.8-.3q3.4-.3,3.7-0.7a3.355,3.355,0,0,1,1.2-.1,6.941,6.941,0,0,0,1.7-.2,1.067,1.067,0,0,0,.6-0.35,5.147,5.147,0,0,0,.5-0.85,2.861,2.861,0,0,0,.5-1.5,1.186,1.186,0,0,0-.45-0.9,3.011,3.011,0,0,0-1.05-.6,3.047,3.047,0,0,1-.9-0.3c0-.133-0.1-0.2-0.3-0.2a1.111,1.111,0,0,1-.6-0.4,0.474,0.474,0,0,0-.5-0.4,0.363,0.363,0,0,1-.5,0,0.952,0.952,0,0,0-.8-0.2,2.79,2.79,0,0,0-1.2.2h0Zm62-7.5a2.353,2.353,0,0,0-1.3,1q-0.6.8-1.5,1.95t-1.5,1.85a18.09,18.09,0,0,1-1.9,2.6l-0.2.2a1.4,1.4,0,0,0-.75.7,7.66,7.66,0,0,1-.45.8q-1,1.1-1.5,1.6l-1,1.1a0.2,0.2,0,0,0-.15.05,0.2,0.2,0,0,1-.15.05q-0.6.4-2.05,1.55a13.848,13.848,0,0,1-2.75,1.75l-0.9.4a1.594,1.594,0,0,1-.9.5l-1.1.3a12.86,12.86,0,0,1-2.7.9,0.833,0.833,0,0,1-.8,0l-2.4-.3a1.151,1.151,0,0,0,.2-0.3,0.653,0.653,0,0,1,.3-0.3,6.847,6.847,0,0,0,1.9-1.45q0.9-.949,1.2-1.25,1.4-1.2,4.6-4.2a37.279,37.279,0,0,0,5.7-6.5,43.485,43.485,0,0,0,2.9-4.2,48,48,0,0,0,3.4-5.4l4.4-7.8q0.4-.9-0.5-0.6l-1.9.6-0.2.2a0.406,0.406,0,0,1-.3.1,4.294,4.294,0,0,0-1.3.4,3.931,3.931,0,0,1-1.3.65q-0.8.251-1.2,0.35a20.583,20.583,0,0,1-2.9.7,0.584,0.584,0,0,0-.4.1,3.226,3.226,0,0,1-1.8.6,2.657,2.657,0,0,1-1.6-.6q-0.7-.5-2.1-1.3l-3.5-2.7-0.2-.3a0.508,0.508,0,0,0-.2-0.6,3.167,3.167,0,0,1-.5-0.4,1.23,1.23,0,0,1,.2-0.7l0.5-.5a1.791,1.791,0,0,1,.9-0.3h0.4a6.329,6.329,0,0,0,1.8-.4l3.6-1.4q1.7-.7,8.2-3.1,2.9-1.3,3.4-1.5a1.786,1.786,0,0,0,1.6-1.8v-0.3a9.274,9.274,0,0,1-.05-1.65q0.049-.75.05-1.35l0.4-8.5q0-2.4-.1-3.5-0.2-1-.45-1.9t-0.45-1.9a15.8,15.8,0,0,1-.1-2.2l0.7,0.6,1.7,0.7q2,1.2,3,1.7a12.363,12.363,0,0,0,2.5,1.3,4.04,4.04,0,0,1,2.1,2.1,4.271,4.271,0,0,1,.4,2.8,3.426,3.426,0,0,1-.35.7q-0.25.4-.35,0.6a1.113,1.113,0,0,0-.6.9l0.1,0.4a2.238,2.238,0,0,1,.05,1.55q-0.251.851-.35,1.15a21.779,21.779,0,0,0-.4,2.4l-0.4,1.6-0.3,1.6a5.939,5.939,0,0,0-.1,1.3,3.171,3.171,0,0,0,1.3,1.8l0.5,0.8a11.073,11.073,0,0,0,.55,1.15,11.959,11.959,0,0,1,.65,1.45,11.983,11.983,0,0,1,.1,1.8,3.071,3.071,0,0,1-.3,1.05,1.333,1.333,0,0,1-.7.55,4.81,4.81,0,0,0-.75.35,4.529,4.529,0,0,1-.75.35,0.426,0.426,0,0,0-.25.25,0.9,0.9,0,0,0-.15.45v3.1l-0.4,1.5a2.2,2.2,0,0,0,.7.1,3.612,3.612,0,0,1,1.8.4,29.169,29.169,0,0,1,3.3,2,1.8,1.8,0,0,1,1.1,1.1c0.2,0.534.333,0.9,0.4,1.1a0.786,0.786,0,0,0,.1.5,1.055,1.055,0,0,1,.4.9,2.357,2.357,0,0,1-.3,1,1.677,1.677,0,0,1-1.6,1.2h-0.2a4.909,4.909,0,0,0-1.2-.05,3.879,3.879,0,0,1-1.1-.05,3.567,3.567,0,0,1-1.3-.7,8.123,8.123,0,0,1-1.1-.6l-1.5-1.2a2.3,2.3,0,0,0-.6,1.7q0,0.4.05,1.2a5.241,5.241,0,0,1-.05,1.3q0,0.5.05,1.6a6.675,6.675,0,0,1-.15,1.9,4.73,4.73,0,0,0,.1,1.6v1.6q0.2,2.2.2,3.3v1.2a5.481,5.481,0,0,1-.2,1.2l-0.1.8a1.379,1.379,0,0,1-.05.3,0.3,0.3,0,0,0,.05.3,3.056,3.056,0,0,1,.1.9,2.037,2.037,0,0,1-.5,1.5v0.6a2.663,2.663,0,0,1,.3,1.2l-0.1,1.1a4.212,4.212,0,0,1-.35,1.4,4.481,4.481,0,0,0-.35,1.6,2.233,2.233,0,0,1-.1.7,2.419,2.419,0,0,1-.5,1.1v0.1l-0.6,2.1a4.009,4.009,0,0,1-.5,1.3,0.494,0.494,0,0,1-.1.25,0.18,0.18,0,0,0,0,.25,2.271,2.271,0,0,1,.05,1.25c-0.1.433-.184,0.75-0.25,0.95a0.98,0.98,0,0,1-.8.7,2.76,2.76,0,0,1-2.4-1.4,3.412,3.412,0,0,1-.35-0.7,3.437,3.437,0,0,0-.35-0.7l-0.6-1.2a2.281,2.281,0,0,1-.5-1.3,1.386,1.386,0,0,1,.1-0.6v-0.3q-0.1-1.4-.1-4.2,0-2.2.4-6.4,0.2-1.4.4-4.4t0.2-4.7l0.1-2.3Zm38.4-26-1.5.6-2,.9a18.019,18.019,0,0,1-2.7,1.3,4.624,4.624,0,0,1-2.1.5,14.029,14.029,0,0,0-4.2,1.1,1,1,0,0,0-.6.8l-0.5,1.8-0.2,2a8.67,8.67,0,0,0,1.6-.45,2.217,2.217,0,0,0,1-.85c0-.133.133-0.2,0.4-0.2a1.438,1.438,0,0,0,.5-0.05,0.788,0.788,0,0,0,.2-0.45,10.094,10.094,0,0,0,1.6.1h0.6a4.7,4.7,0,0,1,1.55.3c0.566,0.2.95,0.334,1.15,0.4a1.425,1.425,0,0,1,1,1.1,1.983,1.983,0,0,1-.2.9,3.111,3.111,0,0,1-2.5,1.9q-0.5.2-1.15,0.45t-1.35.45a2.721,2.721,0,0,1-1.3.5c-0.267.134-.634,0.3-1.1,0.5a6.218,6.218,0,0,1-1.2.4,15.851,15.851,0,0,1-4.5,1,3.488,3.488,0,0,1-1-.1,2.605,2.605,0,0,1-2.1-1.3c-0.067-.133-0.134-0.266-0.2-0.4a1.611,1.611,0,0,0-.3-0.4l1.5-.5a1.136,1.136,0,0,0,.4-0.6q0.1-.8.2-1.9a21.2,21.2,0,0,1,.4-2.5l0.3-3.9a0.406,0.406,0,0,0,0-.4,1.615,1.615,0,0,1-.1-0.4,1.259,1.259,0,0,0-.25-0.45q-0.25-.349.25-0.55a0.947,0.947,0,0,0,.2-0.8l0.6-7a1.671,1.671,0,0,0-.4-1.15q-0.4-.45-0.5-0.55a7.964,7.964,0,0,1-1.4-2.1,14.365,14.365,0,0,1-.5-3.4,1.75,1.75,0,0,1,.2-0.5,0.625,0.625,0,0,1,.35.1,2.962,2.962,0,0,0,.35.2,8.4,8.4,0,0,0,1.4,1.2,7.874,7.874,0,0,0,2,.95q1.1,0.352,2.2.65a3.517,3.517,0,0,1,.65.1,2.228,2.228,0,0,1,.75.3l1.1,1.3a1.953,1.953,0,0,1,.4,1,12.036,12.036,0,0,1-.2,1.7,4.332,4.332,0,0,1-.45.85,3.374,3.374,0,0,0-.45.95,7,7,0,0,0-.2,2,2.031,2.031,0,0,1-.4,1.1l-0.1.4v0.8a2.072,2.072,0,0,0,.8-0.1q1.2-.6,4-2.2l0.6-.3a1.615,1.615,0,0,0,.5-0.6,1.6,1.6,0,0,1,.55-0.5,1.491,1.491,0,0,1,.75-0.2h0.3a1.414,1.414,0,0,1,.3.05,0.557,0.557,0,0,0,.4-0.05,2.843,2.843,0,0,1,1.25.1q0.75,0.2,1.15.3a4.968,4.968,0,0,1,1.05.45,11.009,11.009,0,0,0,1.15.55h0.2a19.336,19.336,0,0,1,.5-2.1q0.2-2.4.4-3.8l0.3-4.1a5.872,5.872,0,0,0-.15-1.2,5.5,5.5,0,0,1-.15-1,3.608,3.608,0,0,0-.7-2,6.187,6.187,0,0,1-.2-0.95,1.632,1.632,0,0,0-.3-0.85,1.985,1.985,0,0,1-.3-1.2v-0.5a0.6,0.6,0,0,1,.4-0.4l2.7,0.5a4.25,4.25,0,0,1,1.7.8q0.5,0.3,1.05.65a6.232,6.232,0,0,0,1.05.55,5.7,5.7,0,0,1,2.7,3.3,2.617,2.617,0,0,1-.1.8q-0.5,2.3-.7,3.1l-0.3,1.1a4.12,4.12,0,0,0-.5,1.3v0.2a2.271,2.271,0,0,1-.05,1.05c-0.1.367-.184,0.684-0.25,0.95h0.2l1.6-1.5,4.2-4a1.345,1.345,0,0,0,.6-0.8,1.237,1.237,0,0,0-.2-0.7l-0.5-1.2a6.269,6.269,0,0,0,.85.2,5.048,5.048,0,0,0,.85.1l2.1,0.6a2.879,2.879,0,0,1,1.7,1.2,5.679,5.679,0,0,0,1,1.1,1.934,1.934,0,0,1,.6,1.7,3.694,3.694,0,0,1-1.5,3,1.736,1.736,0,0,1-.75.35,5.193,5.193,0,0,0-.95.35,14.386,14.386,0,0,0-4.4,3.1q-0.4.3-1,.8t-1.3,1.1a3.98,3.98,0,0,0-1.2.9q-0.3.2-.75,0.45a3.064,3.064,0,0,0-.65.45,0.338,0.338,0,0,1-.25.1c-0.1,0-.15.034-0.15,0.1a3.912,3.912,0,0,1-.3.8,1.6,1.6,0,0,0-.2.7,0.575,0.575,0,0,0,.1.4,0.661,0.661,0,0,1,0,.7q-0.1,1-.5,3a0.578,0.578,0,0,0,.6.7,11.822,11.822,0,0,0,1.8-.1q1.7-.2,3.05-0.45t2.25-.45l2.1-.4a1.075,1.075,0,0,0,.7-0.6,1.9,1.9,0,0,1,1.6-.8,2.29,2.29,0,0,1,1.3.5,23.047,23.047,0,0,1,2.2,2,3.078,3.078,0,0,1,.9,1.6,0.738,0.738,0,0,1-.1.6q-0.6.8-1.3,1.6a3.782,3.782,0,0,1-1.5,1.1,4.078,4.078,0,0,1-2,.4,2.653,2.653,0,0,0-1.5.3l-0.2.1q-0.2.1-1.1,0.45a4.913,4.913,0,0,1-1.8.35h-0.55a1.259,1.259,0,0,0-.55.1,6.5,6.5,0,0,1-2.7.5h-1c-0.4,0-.917-0.016-1.55-0.05a22.538,22.538,0,0,1-2.25-.25,6.677,6.677,0,0,1-2.1-1.3,13.55,13.55,0,0,1-1.15-1.35,15.251,15.251,0,0,1-.95-1.35,4.762,4.762,0,0,1-1.1-3v-1.4a28.3,28.3,0,0,0,.2-3.8,8.375,8.375,0,0,1,.2-1.4h0Zm-13.3,47.4a7.717,7.717,0,0,1-.6-2.5,35.217,35.217,0,0,1,.5-6.5,8.646,8.646,0,0,0,.05-1.6,8.484,8.484,0,0,1,.05-1.6q0-2.7.2-8.3a8.759,8.759,0,0,0-.2-2.2,5.7,5.7,0,0,0-1.2-1.7,2,2,0,0,1-.7-1.6,0.681,0.681,0,0,0-.2-0.5l-0.3-1.3a3.013,3.013,0,0,1,2.15.2,7.488,7.488,0,0,0,1.55.6l1.6,0.4,1.2-2.2q1.1-2,2.4-4.2a31.25,31.25,0,0,1,2.6-3.8,4.958,4.958,0,0,1,1.1.4q2.9,0.9,3.8,1.3a2.071,2.071,0,0,1,.55.55,8.06,8.06,0,0,0,.65.75,2.171,2.171,0,0,1,.5,1.1l-0.1.3a5.187,5.187,0,0,0-.2,1.6,0.681,0.681,0,0,0,1-.5,0.867,0.867,0,0,1,.7-0.4,1.331,1.331,0,0,0,.6-0.15,1.177,1.177,0,0,1,.5-0.15,8.459,8.459,0,0,1,1.5-.2,3.179,3.179,0,0,1,1.6.4,21.008,21.008,0,0,1,3.5,1.9,1.739,1.739,0,0,0,.5.15,1.857,1.857,0,0,1,.5.15,5.641,5.641,0,0,0,.6.5,1.34,1.34,0,0,1,.5.6,2.663,2.663,0,0,1,.6,1.6,1.4,1.4,0,0,1-.1.6,3.227,3.227,0,0,0-.35,1.1,2.238,2.238,0,0,1-.55,1.2c-0.067,0-.1.067-0.1,0.2q-0.3,1.8-.7,5.6a2.752,2.752,0,0,1-.5,1.4,0.982,0.982,0,0,0-.1,1,8.638,8.638,0,0,1,.2,1.6,2.494,2.494,0,0,1-.2,1.1,0.792,0.792,0,0,0-.1.5,1.5,1.5,0,0,1,.1.95,5.4,5.4,0,0,0-.1.95v2.3l-0.1.4a11.983,11.983,0,0,1-.1,1.8l0.1,0.8c-0.067.334-.184,0.85-0.35,1.55a5.239,5.239,0,0,0-.15,1.85,3.2,3.2,0,0,1-.05,1.25,4.921,4.921,0,0,0-.15,1.05,9.324,9.324,0,0,1-.2,2.3,3.861,3.861,0,0,0-.5,1.6v0.3a1.523,1.523,0,0,1-.15.55c-0.1.233-.184,0.416-0.25,0.55l-0.2,1.2a1.932,1.932,0,0,1-.9.75,2.936,2.936,0,0,1-1.3.35h-0.2l-0.8-.2a1.566,1.566,0,0,0-.6-0.4,0.407,0.407,0,0,1-.1-0.3q-1.6-1.1-1.8-4.2v-1.1q0-.9-0.6-0.9h-0.2a4.224,4.224,0,0,1-1.1.05,3.33,3.33,0,0,0-1,.05,4.79,4.79,0,0,1-1.1.1h-1.2a5.577,5.577,0,0,0-1.3.2,2.417,2.417,0,0,1-.8.3,4.165,4.165,0,0,0-1.55.1q-0.851.2-1.25,0.3a9.9,9.9,0,0,1-2.4.2,20.994,20.994,0,0,0-2.4.1,2.461,2.461,0,0,1-1.9-.9l-0.5-.4a1.566,1.566,0,0,1-.4-0.6Zm17.3-22.3a8.977,8.977,0,0,0-.1-1.35,8.818,8.818,0,0,1-.1-1.35,4.193,4.193,0,0,1,.1-1c0.133-.466-0.034-0.7-0.5-0.7a1.127,1.127,0,0,0-.5.1l-0.9.3-2,.2a9.419,9.419,0,0,1-2.1.3,6.248,6.248,0,0,0-2.3.5,3.494,3.494,0,0,1-1,.5,3.99,3.99,0,0,0-.9.4,0.463,0.463,0,0,0-.3.5,5.663,5.663,0,0,0,.3,1.8,1.906,1.906,0,0,1-.1.6,1.638,1.638,0,0,0-.1.5l-0.3,1.7a8.337,8.337,0,0,0,.2,1.5c0,0.534.1,0.8,0.3,0.8l0.5-.2q0.4-.1,2.05-0.75a6.276,6.276,0,0,1,3.15-.45q0.3,0,1.15.05a7.722,7.722,0,0,1,1.7.3,2.786,2.786,0,0,1,1.45,1.05l0.3,0.1v-5.4Zm-11.5,19.6q0.6-.2,1.2-0.4t1.2-.4a8.613,8.613,0,0,0,1.2-.35,8.991,8.991,0,0,1,1.2-.35q1-.2,2.4-0.45t3.3-.45a0.684,0.684,0,0,0,.6-0.5q0-1.1.2-3.7,0-1.9.2-5.1a2.24,2.24,0,0,0-.1-0.7,4.816,4.816,0,0,1-1.2,1.2q-0.6.3-1.6,0.7t-1.7.7a1.108,1.108,0,0,1-.5.1,8.208,8.208,0,0,0-3.9.9q-0.5.2-1,.45t-1,.45a0.541,0.541,0,0,0-.45.3,0.9,0.9,0,0,0,.05.5,2.119,2.119,0,0,0,.1.55,2.408,2.408,0,0,1,.1.65v0.1a6.045,6.045,0,0,0-.2,1.8,3.279,3.279,0,0,1-.4,1.8v2.2h0.3Z"/>
</svg>
