<svg xmlns="http://www.w3.org/2000/svg" width="900" height="140" viewBox="0 0 900 140">
  <defs>
    <style>
      .cls-1 {
        fill-rule: evenodd;
      }
    </style>
  </defs>
  <path id="演示春风楷" class="cls-1" d="M228.09,32.941a1.171,1.171,0,0,0-.8.5,1.345,1.345,0,0,0,.6.8,4.19,4.19,0,0,1,1.25,1.7q0.549,1.2,2.35,6a14.539,14.539,0,0,1,1,4.7,3.531,3.531,0,0,1-.1,1,3.083,3.083,0,0,1-.8,1.7,4.18,4.18,0,0,1-1.9.6q-0.7.1-4,1.1a9.769,9.769,0,0,1-2.7.9,0.441,0.441,0,0,1-.5-0.5,1.241,1.241,0,0,0-.2-0.55c-0.134-.233-0.234-0.416-0.3-0.55a6.053,6.053,0,0,1-.6-1.1,2.8,2.8,0,0,0-1.45-1.4,9.7,9.7,0,0,0-2.55-1l-1.8-.2q-0.6,0-.6.3v0.1l0.7,0.9a1.552,1.552,0,0,1,.3,1.1,8.217,8.217,0,0,1-.4,2.4,7.275,7.275,0,0,1-.6,2.05,5.491,5.491,0,0,1-.8,1.45,5.292,5.292,0,0,0-.75,1.85,4.966,4.966,0,0,0-.25,1.85,6.4,6.4,0,0,0,1.05,2.3,8.677,8.677,0,0,0,1.45,1.9,1.7,1.7,0,0,1,.65.3,2.456,2.456,0,0,0,.45.3l0.5,0.5,0.8-.6a37.788,37.788,0,0,0,2.7-5.2,22.681,22.681,0,0,0,1.3-2.4,4.356,4.356,0,0,1,1.65-1.4,6.327,6.327,0,0,1,2.25-1,22.652,22.652,0,0,0,2.7-1.1,9.461,9.461,0,0,1,3.5-1.2,14.318,14.318,0,0,0,3.6-.6,16.737,16.737,0,0,1,2.8-.5l2-.3,5.7-.3q2-.2,3.4-0.2l2.4,0.1,2.7,0.3-0.1.7a14.7,14.7,0,0,1-2.15,4.05,10.506,10.506,0,0,1-2.85,3.15,1.712,1.712,0,0,1-.8.3,0.934,0.934,0,0,1-.9-0.9,2.16,2.16,0,0,0-.2-0.65,0.593,0.593,0,0,0-.5-0.15l-1.1-.5q-0.4-.4-0.6-0.2t-0.4-.2a10.039,10.039,0,0,0-2.9-.3,9.123,9.123,0,0,1-2.7-.4,0.776,0.776,0,0,0-.9.3,9.2,9.2,0,0,1-2.4,1l-4.3,1.8a21.036,21.036,0,0,1-2.95,1.2,18.1,18.1,0,0,1-2.55.5,2.246,2.246,0,0,0-.7.1,1.1,1.1,0,0,0-.4.2,8.947,8.947,0,0,0,1.7,1.8,7.592,7.592,0,0,0,2.2,1.7,1.953,1.953,0,0,0,.9.35,7.142,7.142,0,0,0,1.5.15,8.287,8.287,0,0,1,1.3.25,0.811,0.811,0,0,1,.6.45c0,0.067.016,0.3,0.05,0.7s0.05,1.134.05,2.2l0.2,2.5-1.9.7a25.655,25.655,0,0,1-6.7,1.9,3.9,3.9,0,0,0-1.2.3,1.768,1.768,0,0,0-.7.7l-0.6.9-1.5-1.2a5.985,5.985,0,0,0-1.3-1.2,7.8,7.8,0,0,0-1.9-.4q-2.4-.2-2.4.3a0.8,0.8,0,0,0,.4.5,2.7,2.7,0,0,1,.9.6,1.327,1.327,0,0,1,.55.9,15.1,15.1,0,0,1,.45,2.1,15.453,15.453,0,0,0,.9,4.3q0.1,0.4.35,1.45a7.622,7.622,0,0,1,.25,1.45,5.248,5.248,0,0,0,.5,2.05,16.839,16.839,0,0,0,1.6,2.25,6.23,6.23,0,0,0,2.1,1.5,4.848,4.848,0,0,1,1.2.5,1.148,1.148,0,0,0,.8.4h0.1a6.1,6.1,0,0,1,1.7.8,4.58,4.58,0,0,0,1.3.6q0.7,0.2,1.8.4a18.111,18.111,0,0,0,5.7-.3,8.036,8.036,0,0,1,1.3-.1,1.082,1.082,0,0,1,.8.3,1.093,1.093,0,0,0,.7.4,3.879,3.879,0,0,0,1.4-.5,19.517,19.517,0,0,1,2.1-.7,3.277,3.277,0,0,1,1.4-.2,11.243,11.243,0,0,0,3.2-1.4q1.1-.6,1.3-0.7a8.255,8.255,0,0,0,2.7-2.05,11.45,11.45,0,0,0,2.4-2.95l1.2-1.5,0.6-1.4a5.36,5.36,0,0,1,.7-1.4,0.975,0.975,0,0,0,.2-0.7,5.913,5.913,0,0,1,.5-1.5,8.681,8.681,0,0,0,.95-2.55,12.673,12.673,0,0,0,.35-2.75q-0.7-3-1.2-3.3a11.245,11.245,0,0,0-4.25-2,20.184,20.184,0,0,0-5.45-.8,9.954,9.954,0,0,0-2.6.3,16.587,16.587,0,0,0-3.2,1.1,11.688,11.688,0,0,1-2.8.8,1.519,1.519,0,0,1-.3-1.2,3.092,3.092,0,0,0-1-1.8,2.263,2.263,0,0,1-.7-1.3,5.058,5.058,0,0,1,1.3-.3,6.814,6.814,0,0,0,2.3-.3l2-.5q3.2-.6,3.6-0.6,1.1,0,3-1.8a2.852,2.852,0,0,1,1-.8,0.567,0.567,0,0,1,.3.2q0.2,0.3,1.5-.4a23.431,23.431,0,0,1,2.3-.7q0.3,0,3.1-.6a11.6,11.6,0,0,1,3-.6,4.936,4.936,0,0,0,1.5-.3l1.6-.6a9.561,9.561,0,0,1,2.3-.7,7.412,7.412,0,0,0,1.45-.4,0.6,0.6,0,0,0,.45-0.5v-0.3a1.82,1.82,0,0,1,.2-1.1,0.983,0.983,0,0,0,.1-1,1.569,1.569,0,0,1-.1-0.9q0.2-.5-1.35-1.95a8.1,8.1,0,0,0-2.75-1.85,13.908,13.908,0,0,0-6.3-1.5,98.2,98.2,0,0,0-11.1,1q-7.7,1-10.2,1.6c-0.134.067-.134,0,0-0.2a2.664,2.664,0,0,1,1.2-.5,0.615,0.615,0,0,0,.7-0.5,3.739,3.739,0,0,1,.55-0.9,6.574,6.574,0,0,1,1.05-1.1q1.5-2.2,1.6-2.4a4.506,4.506,0,0,1,.35-0.55,0.662,0.662,0,0,1,.45-0.35,0.636,0.636,0,0,0,.2-0.6,3.767,3.767,0,0,1-.2-1.5,6.178,6.178,0,0,0-1.35-3.15,6.806,6.806,0,0,0-3.05-2.15,30.733,30.733,0,0,0-4.3-1.1,23.135,23.135,0,0,0-4.1-.5,2.1,2.1,0,0,0-.8.1h0Zm-38,14.9c-0.934.134-1.4,0.3-1.4,0.5a3.381,3.381,0,0,0,1.5,1.2q3.4,1.7,4.3,3.5,0.5,1,2.1,3.9a5.486,5.486,0,0,1,.7,2.3c0,0.6.066,0.9,0.2,0.9a2.046,2.046,0,0,0,.9-0.25,1.767,1.767,0,0,0,.7-0.55,0.659,0.659,0,0,1,.35-0.5,4.565,4.565,0,0,1,1.25-.1,2.612,2.612,0,0,0,1.6-.3,1.16,1.16,0,0,1,.8-0.2,2.956,2.956,0,0,0,1.7-.8,5.15,5.15,0,0,1,.65-0.55q0.35-.248.45-0.15a0.594,0.594,0,0,0,.6-0.1,0.975,0.975,0,0,0,.2-0.7,8.392,8.392,0,0,0-1.4-3.9,6.905,6.905,0,0,0-1.75-2.1,7.506,7.506,0,0,0-2.55-1,27.738,27.738,0,0,1-3.3-.9,24.321,24.321,0,0,0-4.7-.4,20.567,20.567,0,0,0-2.9.2h0Zm-2.6,19a6.954,6.954,0,0,0-1.95.25,14.737,14.737,0,0,0-2.25.95q-2.2,1.3-2.5,1.1a0.177,0.177,0,0,0-.2.2c0,0.2.066,0.3,0.2,0.3a0.348,0.348,0,0,1,.3.3q0,0.3,1.65,1.1a24.091,24.091,0,0,0,2.85,1.2,17.369,17.369,0,0,1,2.6.6,58.7,58.7,0,0,0,7.6.9,4.279,4.279,0,0,0,2.4-.5,4.714,4.714,0,0,0,1.1-1.45,3.517,3.517,0,0,0,.5-1.45,2.192,2.192,0,0,0-.8-1.3,2.4,2.4,0,0,1-.8-1.1q0-.5-2.1-0.9a27.2,27.2,0,0,0-5-.4q-1.2,0-3.6.2h0Zm17,5.3a70.77,70.77,0,0,1-10.6,14.4q-1.4,1.6-3.6,3.8l-0.8,1-1.1-.5-1.9-1.2a2.246,2.246,0,0,0-1.2-.8,0.089,0.089,0,0,0-.1.1v0.2a23.5,23.5,0,0,1,1.2,4.3,3.518,3.518,0,0,0,.7,1.3,0.808,0.808,0,0,1,.4.6,2.334,2.334,0,0,0,.6,1.25,2.671,2.671,0,0,0,.9,1.05,0.76,0.76,0,0,1,.45.2,1.721,1.721,0,0,0,.55.3,10.3,10.3,0,0,0,2.6,1.25,9.576,9.576,0,0,0,3,.75q1.6,0,1.6-.8c0-.333.066-0.5,0.2-0.5a1.659,1.659,0,0,0,.1-0.8,14.177,14.177,0,0,1,.35-3.2,12.7,12.7,0,0,1,.85-3.3,3.348,3.348,0,0,0,.7-1.35,5.271,5.271,0,0,0,.3-1.45,3.184,3.184,0,0,1,.45-1.9q0.65-1.6.85-2a13.773,13.773,0,0,0,1-2.5,9.554,9.554,0,0,1,1.1-3l0.9-3.4a10.469,10.469,0,0,1,.9-3.3,11.89,11.89,0,0,0,.6-1.8l-0.1-.1a0.8,0.8,0,0,0-.3.45,7.742,7.742,0,0,1-.6.95h0Zm42.2,1.5a15.576,15.576,0,0,1-.35,1.8,0.576,0.576,0,0,1-.55.5l-0.6-.2a14.462,14.462,0,0,0-2.3-.5,18.515,18.515,0,0,0-2.9-.3,1.584,1.584,0,0,0-1,.2,0.813,0.813,0,0,1-.6.2,2.408,2.408,0,0,1-.1-1,4.828,4.828,0,0,1,.2-2,44.452,44.452,0,0,1,5.5-.6c0.866,0,1.45-.016,1.75-0.05s0.483-.05.55-0.05q0.4-.4.4,1v1Zm-19.5-.4a19.837,19.837,0,0,0,4.2.5,8.04,8.04,0,0,0,1.6-.1l0.8-.3-0.2,1.8v1.9l-3.1,1.5a28.645,28.645,0,0,0-3.2,1.7q-0.1.4,1.2,0.85a10.2,10.2,0,0,0,2.5.55,7.069,7.069,0,0,1,1.35.25,2.752,2.752,0,0,0,.55.15,3.672,3.672,0,0,1,.2,1.7v3.8l-1.2.2a10.157,10.157,0,0,1-2,.55q-1.3.251-2.1,0.35a0.244,0.244,0,0,1,0-.3l0.2-.4a4.8,4.8,0,0,0,.3-1.7,8.439,8.439,0,0,0-1.3-4.3,11.626,11.626,0,0,0-1.5-2.4,6.943,6.943,0,0,1-.9-1.5,5.227,5.227,0,0,1-.5-1.35,10.812,10.812,0,0,1-.1-1.75q0.1-2.1.8-2.1Zm17.3,7.2a8.5,8.5,0,0,1-1.3,2.4,9.263,9.263,0,0,1-1.8,2.3,2.012,2.012,0,0,1-.9.1h-1.8v-1.2a6.07,6.07,0,0,1,0-2.2l0.2-.8,1.6-.4,1.8-.3a1.362,1.362,0,0,1,.9-0.2q1.3,0,1.3.3h0Zm-26,11.8q0.4,2.1-2,6.25a25.027,25.027,0,0,1-5.2,6.55l-1.9,1.4,1.2,0.1a3.3,3.3,0,0,0,1,.2,0.818,0.818,0,0,0,.6-0.2,0.6,0.6,0,0,1,.8,0q0.3,0.3.4,0,0-.3.6-0.3a1.247,1.247,0,0,0,.9-0.4l0.7-.1a2.92,2.92,0,0,0,1.2-.7,13.872,13.872,0,0,1,1.8-1.2,21.754,21.754,0,0,0,3.2-3.3,19.8,19.8,0,0,0,2.7-3.8,3.886,3.886,0,0,0,.3-1.1,4.91,4.91,0,0,0-.3-1.2l-0.6-1.2a1.683,1.683,0,0,0-.6-0.5,3.063,3.063,0,0,0-1.4-.65q-1-.248-2.5-0.55l-1-.1Zm32.8-.4a0.359,0.359,0,0,0-.15.35,0.841,0.841,0,0,0,.35.35,13.072,13.072,0,0,1,2.1,2.5,21.75,21.75,0,0,1,2.1,3.2,1.281,1.281,0,0,1,.25.8,2.754,2.754,0,0,1-.65,1,11.187,11.187,0,0,1-1.7,2,2.085,2.085,0,0,0-1.2.9,2.436,2.436,0,0,0,1.45.45,6.511,6.511,0,0,0,1.95.15,0.677,0.677,0,0,1,.85,0,6.877,6.877,0,0,1,1.35,1.6,9.452,9.452,0,0,0,.8,1.05,1.106,1.106,0,0,0,.6.45,1.744,1.744,0,0,1,.5.25,2.6,2.6,0,0,0,.4.25,3.756,3.756,0,0,0,1.4.95,4.192,4.192,0,0,0,1.6.45,1.381,1.381,0,0,0,1-.3,2.052,2.052,0,0,1,.8-0.4,0.863,0.863,0,0,0,.75-0.35,7.046,7.046,0,0,0,.65-1.55,17.194,17.194,0,0,0,.2-1.8,9.442,9.442,0,0,0-.1-1.5,17.34,17.34,0,0,0-1.2-3.4,5.559,5.559,0,0,0-1.7-2.3,37.623,37.623,0,0,0-5.9-3.4,19.125,19.125,0,0,0-3.3-1.1q-0.7-.2-1.5-0.45a3.473,3.473,0,0,1-.9-0.35,0.516,0.516,0,0,0-.8.2h0Zm87-45.7a99.355,99.355,0,0,0-11.9,3.1q-0.3,0-3.7,1-0.9.2-2.5,0.6a18.852,18.852,0,0,1-2.6.5q-2,0-2,.2a1.92,1.92,0,0,0,1.15,1.05,7.314,7.314,0,0,0,2.15.85,49.294,49.294,0,0,0,5.75,1.05q4.449,0.652,4.85.45a6.422,6.422,0,0,1,1.6-.1,11.309,11.309,0,0,0,2.1-.4l1.8-.2a4.773,4.773,0,0,0,1.5-.2q1.3-.4,1.7-0.5a3.016,3.016,0,0,0,.9-0.1,1.687,1.687,0,0,1,.4-0.1l1.5-.2q7.6-.9,8.4-1.5a4.91,4.91,0,0,1,1.2-.3,0.523,0.523,0,0,0,.7-0.7v-0.6a1.729,1.729,0,0,0-.6-1.2,1.069,1.069,0,0,1-.6-0.8l0.1-.2a6.218,6.218,0,0,0-1.3-.4,12,12,0,0,0-1.4-.5q-0.7-.2-1.3-0.4l-1.9-.7a2.476,2.476,0,0,1-1.1-.2,4.873,4.873,0,0,0-2,0Zm16.8,14.4a32.509,32.509,0,0,1-4.2.4,118.942,118.942,0,0,0-12.2,1.8q-5.3.9-17.1,3.8-4.3,1.1-6.4,1.4a77.711,77.711,0,0,0-8.7,2.1,9.522,9.522,0,0,1-2.7.6l-0.7.1a5.234,5.234,0,0,0,1.7,1.6,12.7,12.7,0,0,0,2.7,1.7,8.491,8.491,0,0,0,1.85.7,14.193,14.193,0,0,0,2.15.3,7.959,7.959,0,0,0,.9.2,3.84,3.84,0,0,0,1.2-.3c0.533-.2.966-0.366,1.3-0.5q2.2-.8,2-1c-0.067-.266.2-0.5,0.8-0.7l2.2-1a4.11,4.11,0,0,1,1.5-.6l1.4-.4q1.2-.5,4.15-1.4a35.177,35.177,0,0,1,4.25-1.1,118.967,118.967,0,0,1,15.3-2.3l3.2-.1q3.3,0,6.25.15t4.55,0.35a4,4,0,0,0,1.1.1,14.763,14.763,0,0,0,2.6-.3,6.324,6.324,0,0,0,1.6-.5,0.777,0.777,0,0,0,.3-0.7v-0.6a3.539,3.539,0,0,0-.1-1,1.34,1.34,0,0,0-.5-0.6,1.082,1.082,0,0,0-.8-0.3,1.646,1.646,0,0,1-1.2-.7,9.418,9.418,0,0,0-2.5-1.05,10.317,10.317,0,0,0-2.7-.55,5.536,5.536,0,0,1-1.3.2q-1.1.1-1.9,0.2h0Zm-22.2,8.2q-0.1.1,0.1,0.3a3.167,3.167,0,0,0,.5.4,3.564,3.564,0,0,1,.8,1.35,17.292,17.292,0,0,1,.6,2.85,35.65,35.65,0,0,1,.3,4.8,48.078,48.078,0,0,1-.9,9.15,31.811,31.811,0,0,1-2.4,7.75,3.39,3.39,0,0,1-.55.85,2.216,2.216,0,0,1-.75.45,2.469,2.469,0,0,1-1.4,0,16.071,16.071,0,0,0-2.5-.45q-1.4-.15-2.1-0.15-0.5.3,0.3,1.1a37.416,37.416,0,0,0,3.5,2.8,4.511,4.511,0,0,1,1.3,1q1.1,1,1.95,1.65t1.15,0.85a1.082,1.082,0,0,1,.8.3,2.116,2.116,0,0,0,1.4.5,2.777,2.777,0,0,0,1.2-.2,1.44,1.44,0,0,1,1-.5,3.134,3.134,0,0,0,1.25-.75,5.377,5.377,0,0,0,1.25-1.25q0.4-.7,1.3-2.5a2.148,2.148,0,0,1,.4-1.2,5.016,5.016,0,0,0,.4-0.9,8.342,8.342,0,0,1,.3-1.9q0.7-2.7.7-12.3a46.081,46.081,0,0,0-.4-7.9,10.27,10.27,0,0,0-.65-2.4,2.763,2.763,0,0,0-1.35-.8q-1.5-.7-1.9-0.9a9.415,9.415,0,0,0-2.55-1.35,11.34,11.34,0,0,0-2.45-.85,0.816,0.816,0,0,0-.6.2h0Zm21.4,9.3q0.3,0.3.1,0.3-0.3-.2,1,1a23.862,23.862,0,0,1,5.8,8.5,6.7,6.7,0,0,0,1.4,2.15,9.671,9.671,0,0,0,2.6.85,8.814,8.814,0,0,0,2.1.3q1.2,0,1.3-.4c0-.133.166-0.2,0.5-0.2a0.742,0.742,0,0,0,.4-0.6,0.354,0.354,0,0,1,.4-0.4q0.5,0,.9-1.2a0.915,0.915,0,0,0,.1-0.7,5.217,5.217,0,0,0-.7-1.1,4.541,4.541,0,0,1-.8-1.5,2.672,2.672,0,0,0-.6-1.25,5.657,5.657,0,0,0-1.3-1.35,16.051,16.051,0,0,0-3.9-2.3l-2.9-1q-1.6-.6-2.9-1a12.174,12.174,0,0,0-2.7-.5h-1.2Zm-39.7,2a0.256,0.256,0,0,0-.25.1,0.309,0.309,0,0,0,.15.3c0.066,0.067,0,.1-0.2.1-0.134,0-.167.084-0.1,0.25a1.724,1.724,0,0,0,.4.55,1.368,1.368,0,0,1,.6,1v0.5q-0.5,2-4.6,7-2.7,3.3-2.8,3.3a20.877,20.877,0,0,0-1.6,1.55,4.424,4.424,0,0,0-.9,1.05h0.8a5.1,5.1,0,0,0,1.9-.8,11.8,11.8,0,0,1,1.8-1.1,2.593,2.593,0,0,0,.4-0.25,2.62,2.62,0,0,1,.4-0.25q0.5-.3.6,0a0.4,0.4,0,0,0,.3.1,0.964,0.964,0,0,0,.5-0.2,3.337,3.337,0,0,1,1.2-.6,20.007,20.007,0,0,0,2.1-.55q1.5-.45,1.7-0.55l1.2-.8a7.084,7.084,0,0,0,1.4-1.1l0.5-.2a0.411,0.411,0,0,0,.25-0.15,1.144,1.144,0,0,0,.25-0.45,1.778,1.778,0,0,1,.8-0.5,0.845,0.845,0,0,0,.5-0.5,2.781,2.781,0,0,0,.25-0.3,1.753,1.753,0,0,0,.25-0.5,2.373,2.373,0,0,0,.3-1.5,10.7,10.7,0,0,1-.1-1.8,1.384,1.384,0,0,0-.25-0.9,11.663,11.663,0,0,0-1.75-1.3,13.257,13.257,0,0,0-2.45-1.15,11.143,11.143,0,0,0-2.25-.35h-1.3Zm126.8-49.3a8.363,8.363,0,0,1-1.6,1.2,1.16,1.16,0,0,0-.7,1,0.176,0.176,0,0,0,.2.2,1.746,1.746,0,0,1,1,.5,5.594,5.594,0,0,0,1.8.9l1.2,0.6-0.1,1.2a11.942,11.942,0,0,1-.1,2.55,12.438,12.438,0,0,1-.7,2.95,1.719,1.719,0,0,1-.3.9,2.289,2.289,0,0,1-.9.4,3.221,3.221,0,0,1-1.4.4,16.766,16.766,0,0,0-2.8.8l-3.1.9q-8,2.3-11.7,2.3c-0.535,0-.8.067-0.8,0.2q-0.2.2,2.05,1.45a22.451,22.451,0,0,0,3.45,1.65q2.3,0.9,3.75,1.35a8.137,8.137,0,0,0,2.15.45,2.586,2.586,0,0,0,.8-0.1,10.293,10.293,0,0,0,2-.7,8.224,8.224,0,0,1,2.35-1.45,6.965,6.965,0,0,1,2.25-.75q0.4,0,.3.6t-0.7,2.6a10.273,10.273,0,0,1-.8,2.35,1.98,1.98,0,0,1-1.3.65,11,11,0,0,0-3,.8q-3.7,1.2-5.45,1.7a10.6,10.6,0,0,1-2.45.5q-1.5,0-1.5.3a2.817,2.817,0,0,0,.8,1,18.521,18.521,0,0,0,2.5,2.2,4.159,4.159,0,0,0,2.1,1.1,3.123,3.123,0,0,0,1.6-.7,10.517,10.517,0,0,1,2.25-1.2,6.968,6.968,0,0,1,1.85-.6,0.138,0.138,0,0,1,.15.2c-0.035.134-.085,0.367-0.15,0.7l-3.7,7.3a4.983,4.983,0,0,1-1.7.5,25.09,25.09,0,0,0-2.4.8q-0.7.4-10,2a15.5,15.5,0,0,1-3.9.5l-2.6.1,0.8,0.8a16.625,16.625,0,0,0,3.1,2.4,9.342,9.342,0,0,0,2.8,1.5,3.428,3.428,0,0,0,2.8-.9,1.942,1.942,0,0,1,.65-0.55c0.365-.233.65-0.416,0.85-0.55a24.635,24.635,0,0,1,3.5-1.25,10.892,10.892,0,0,1,2.7-.65q0.1,0.3-3,4.1l-2,2.2a59.47,59.47,0,0,1-5.7,5.5,69.932,69.932,0,0,1-6.5,5.3,17.139,17.139,0,0,1-1.6,1.15,9.456,9.456,0,0,0-1.3.95,1.951,1.951,0,0,0-1.1.9c0,0.067.133,0.1,0.4,0.1l2.9-.2,3-.1q0.9-.4,2.65-1.1t3.45-1.2a34.057,34.057,0,0,0,3.7-2.95,17.894,17.894,0,0,0,3-2.95,0.959,0.959,0,0,1,.2-0.5,1.8,1.8,0,0,1,.5-0.5,6.758,6.758,0,0,1,1.2-1.7,7.213,7.213,0,0,0,.6-0.85,2.583,2.583,0,0,1,.4-0.55,1.958,1.958,0,0,0,.25-0.35,5.631,5.631,0,0,0,.35-0.75l0.9-.9a2.45,2.45,0,0,0,.5-0.9,2.73,2.73,0,0,1,.45-0.7c0.3-.4.515-0.7,0.65-0.9a7.671,7.671,0,0,0,1.6-2.2,4.844,4.844,0,0,1,.25-0.75,1.726,1.726,0,0,1,.35-0.55,5.252,5.252,0,0,0,.8-1.1,3.631,3.631,0,0,1,.7-0.95,1.9,1.9,0,0,1,.9-0.35,7.209,7.209,0,0,0,1-.35,5.392,5.392,0,0,1,1.3-.35q2.6-1.1,10-1.7a26.48,26.48,0,0,0,2.7-.2l2.3-.2,1.7-.1,2.1,1.7q1.9,1.7,4.35,4.35a22.733,22.733,0,0,1,2.85,3.45,36.458,36.458,0,0,0,4.9,5.9,39.454,39.454,0,0,0,6.2,5.6,10.452,10.452,0,0,0,2.75,1.65,10.582,10.582,0,0,0,3.15.35q7.3,0,8.6-.5a4.629,4.629,0,0,1,1.2-.1,1.506,1.506,0,0,0,.65.05,0.52,0.52,0,0,0,.35-0.45,1.427,1.427,0,0,0-.1-1.15,2.969,2.969,0,0,0-1-1.15,49.889,49.889,0,0,0-6.1-2.9c-0.267-.133-0.585-0.283-0.95-0.45s-0.785-.35-1.25-0.55q-6.6-2.8-8.5-4.3l-2.9-2.1-2.2-1.8a12.66,12.66,0,0,0-2.2-1.9,19.406,19.406,0,0,1-2-1.9,7.4,7.4,0,0,0-2.1-1.7,12.307,12.307,0,0,1-1.7-1.25,0.958,0.958,0,0,1-.5-0.75q0.1-.2,4.45.2a37.119,37.119,0,0,1,4.85.6,8.309,8.309,0,0,0,3.2.4,15.089,15.089,0,0,0,2.5-.2,2.017,2.017,0,0,0,.8-0.25,1.662,1.662,0,0,0,.4-0.75l0.5-.7-0.8-1.4-0.9-1.6-1.2-.8a10.493,10.493,0,0,0-1.7-1,3.214,3.214,0,0,1-1.4-.4,5.177,5.177,0,0,0-2.3-.6,4.231,4.231,0,0,0-1.25-.4,3.38,3.38,0,0,1-.85-0.2,3.425,3.425,0,0,0-1.8.1l-3.1.7a29.328,29.328,0,0,1-4.2.8,33.635,33.635,0,0,1-3.9.8,5.271,5.271,0,0,1-1.7-.5,16.772,16.772,0,0,0-2.8-.55c-0.935-.1-1.4-0.083-1.4.05a3.875,3.875,0,0,0,.9.8q0.6,0.3.85,0.45a2.07,2.07,0,0,1,.35.25,2.117,2.117,0,0,1-.85.45q-0.851.352-1.45,0.55a15.877,15.877,0,0,0-3.3.8,27.327,27.327,0,0,0-3.8,1.1l-3.3.7c-0.267.067-.4-0.016-0.4-0.25a2.16,2.16,0,0,1,.5-1.05,7.581,7.581,0,0,0,1.1-1.8c0.133-.333.265-0.633,0.4-0.9l0.3-.6,1-2q0.3-.6.55-1.2a2.994,2.994,0,0,1,.35-0.7,12.35,12.35,0,0,1,3.6-.85,35.721,35.721,0,0,1,5.2-.45l3.2,0.1c0.665,0.067,1.6.1,2.8,0.1a21.024,21.024,0,0,0,3.3-.2,4.076,4.076,0,0,0,1.6-.5,0.962,0.962,0,0,0,0-1.3l-0.9-1.1a1.533,1.533,0,0,0-1-1.1l-1.3-.9a2.7,2.7,0,0,0-1.5-.7,4.056,4.056,0,0,1-1.3-.2,12.306,12.306,0,0,0-2.5-.8,2.483,2.483,0,0,0-1.1-.4,1.474,1.474,0,0,0-.8.4,1.621,1.621,0,0,1-1,.3,7.746,7.746,0,0,0-1.75.35,22.458,22.458,0,0,0-2.25.75,1.516,1.516,0,0,1-.6.25,1.565,1.565,0,0,0-.6.25q-0.9.1-.9-0.4a0.669,0.669,0,0,1,.15-0.4,2.576,2.576,0,0,0,.25-0.4,2.542,2.542,0,0,0,.6-1.1,5.1,5.1,0,0,1,.7-1.7,4.615,4.615,0,0,1,.85-1.2,4.354,4.354,0,0,1,1.75-.55q1.4-.248,3.8-0.55a20.556,20.556,0,0,1,5-.4,24.43,24.43,0,0,0,2.8.1,8.463,8.463,0,0,0,2-.1,1.337,1.337,0,0,1,.7-0.1,1.773,1.773,0,0,0,1.1-.25,1.051,1.051,0,0,0,.3-0.85,3.912,3.912,0,0,0-.5-1.4,1.615,1.615,0,0,0-.8-1,9.941,9.941,0,0,1-1.4-1.1,7.141,7.141,0,0,0-2.4-1,3.169,3.169,0,0,0-.75-0.35,1.676,1.676,0,0,1-.55-0.25,11.147,11.147,0,0,0-3.1-.7,2.663,2.663,0,0,0-1.2.3,11.124,11.124,0,0,1-1.9.5,2.762,2.762,0,0,1-1.2.1,15.036,15.036,0,0,1,.5-1.45,14.592,14.592,0,0,1,.9-1.95,2.357,2.357,0,0,0,.3-1,6.891,6.891,0,0,0-2.1-2.5,11.609,11.609,0,0,0-3.2-1.9l-2.7-.9a5.368,5.368,0,0,0-2.1-.6,2.2,2.2,0,0,0-1.6.7h0Zm15.6,44.7-1.3.7a16.006,16.006,0,0,1-3.8,1.1l-5.6,1.2a17.6,17.6,0,0,1-5.3.7,5.582,5.582,0,0,1-1.7-.2q-1.1-.6,1.1,2a9.46,9.46,0,0,0,2.5,2.2,5.521,5.521,0,0,0,2.5.6,1.973,1.973,0,0,0,.9-0.2l2.8-1.4a29.363,29.363,0,0,0,3.6-1.8q2.8-1.9,4.4-1.7a1.068,1.068,0,0,1,.65.6,7.714,7.714,0,0,1,.15,2v2a13.482,13.482,0,0,1-.15,2.75q-0.15.45-.65,0.05a2.371,2.371,0,0,0-1.1-.65,8,8,0,0,0-1.8-.15,13.6,13.6,0,0,0-2.95.3,4.7,4.7,0,0,0-1.95.8,14.679,14.679,0,0,1-2.95,1.75,29.633,29.633,0,0,1-3.35,1.45,5.168,5.168,0,0,0-1.5.5q-0.2.3,1.8,1.4a4.8,4.8,0,0,0,1.7.3l2-.1a17.072,17.072,0,0,0,4.5-.5,15.909,15.909,0,0,1,2.9-.6,5.219,5.219,0,0,0,2.4-.6,1.1,1.1,0,0,1,.7-0.4c0.2,0,.3.234,0.3,0.7l-0.2,2.3q-0.1,2.5-.35,4.45a6.663,6.663,0,0,1-.45,2.15,4.386,4.386,0,0,1-1.1-.4,2.859,2.859,0,0,0-.9-0.45,3.186,3.186,0,0,0-.9-0.15,8.523,8.523,0,0,0-2.65,0,4.894,4.894,0,0,0-2.15.5,1.155,1.155,0,0,1-.8.2,1.16,1.16,0,0,0-.8.2,13.44,13.44,0,0,1-3.35,1.4q-2.95,1-3.25.7a2.118,2.118,0,0,1-.3-1.5,10.062,10.062,0,0,1,.2-2,34.348,34.348,0,0,0,.4-5.2,21.509,21.509,0,0,0-.1-2.4,12.328,12.328,0,0,0-.35-2.9,28.853,28.853,0,0,0-1.35-2.8,11.781,11.781,0,0,0-1.9-2.85,9.324,9.324,0,0,0-2.6-1.85,6.472,6.472,0,0,0-1.7-.5,2.532,2.532,0,0,0-1.2.4,0.355,0.355,0,0,0-.15.35,1.465,1.465,0,0,0,.35.45,27.543,27.543,0,0,1,2.15,2.45,4.784,4.784,0,0,1,.65,1.95q0.2,2.2.2,2.9,0,0.8-.4,4-0.7,4.7-.8,6a21.4,21.4,0,0,1-.7,4,1.985,1.985,0,0,0,0,.9l0.6,1.9a5.553,5.553,0,0,0,.9,2.1,6.175,6.175,0,0,0,.65,1.05c0.233,0.3.415,0.55,0.55,0.75l0.7,0.9,1.3-.1a8.765,8.765,0,0,0,1.75-.25,0.984,0.984,0,0,0,.6-0.8,13.8,13.8,0,0,0,.15-2.55,11.147,11.147,0,0,1,.2-3.2,9.827,9.827,0,0,1,3.1,0q1.5,0.1,5.9.1a16.969,16.969,0,0,1,2.75,0,2.417,2.417,0,0,1,.95.5,19,19,0,0,1,1.5,2.3,9.933,9.933,0,0,0,1.8,2.9,10.373,10.373,0,0,0,.75,1.25,7.668,7.668,0,0,1,.75,1.35,5.951,5.951,0,0,0,1,1.1l0.7-.2a2.3,2.3,0,0,1,1.3-.4,4.1,4.1,0,0,0,1.8-1,5.194,5.194,0,0,0,1.1-1.2,10.483,10.483,0,0,0,.5-2.1q0.5-3.5.8-11.1,0.1-3.1.1-7.5a23.122,23.122,0,0,0-.1-2.9,12.68,12.68,0,0,1,0-3.2,24.134,24.134,0,0,0,.3-2.5,1.7,1.7,0,0,0-.2-0.85,3.83,3.83,0,0,0-.6-0.75,7.45,7.45,0,0,0-1.3-1.2,31.57,31.57,0,0,1-3.5-1.2,4.254,4.254,0,0,0-2-.6,2.1,2.1,0,0,0-1.1.3h0Zm-0.5,26.7a0.461,0.461,0,0,1-.3.5,0.451,0.451,0,0,1-.5-0.1c-0.135-.133-0.1-0.3.1-0.5a0.815,0.815,0,0,1,.5-0.3c0.133,0,.2.134,0.2,0.4h0Zm118.2-61.4-2.7.6q-1.3.3-4.6,0.7a82.074,82.074,0,0,0-8.2,1.3,79.259,79.259,0,0,0-8.9,2.6l-3.9,1.3a0.6,0.6,0,0,1-.8,0,12.981,12.981,0,0,0-1.8-.4,14.633,14.633,0,0,0-2.4-.2l-3.2.2a4.412,4.412,0,0,0-2.4.7,3.49,3.49,0,0,1-.9.6,0.682,0.682,0,0,0-.2,1.3,1.46,1.46,0,0,0,.9.3,5.332,5.332,0,0,1,1.7.35,2.533,2.533,0,0,1,1.1.55q0.3,0.6.3,11.1,0,10.3-.3,13.2-0.1.9-.9,4.5a24.593,24.593,0,0,0-1.2,3.9,17.686,17.686,0,0,1-2,4.1,15.237,15.237,0,0,1-2.8,3.4,6.71,6.71,0,0,1-1.7.85,6,6,0,0,1-2,.35,5.555,5.555,0,0,1-1.3-.2,3.158,3.158,0,0,0-.75-0.1,1.152,1.152,0,0,0-.65.2,0.994,0.994,0,0,0-.55.35,0.794,0.794,0,0,0,.35.55,0.961,0.961,0,0,1,.3.7,3.065,3.065,0,0,0,1.35,1.4,10.954,10.954,0,0,0,2.35,1.4,8.444,8.444,0,0,0,2,.4,5.754,5.754,0,0,0,2.2-.5,5.842,5.842,0,0,1,1.9-.6,5.554,5.554,0,0,0,2.35-1.4,12.286,12.286,0,0,0,2.35-2.5,3.611,3.611,0,0,1,1.1-1.1,1.4,1.4,0,0,0,.65-0.7,11.863,11.863,0,0,0,.85-1.6,2.321,2.321,0,0,1,.5-1c0.2-.2.233-0.333,0.1-0.4a2.219,2.219,0,0,1,.2-1c0.066-.2.2-0.566,0.4-1.1a7.2,7.2,0,0,0,.4-1.5l0.9-2.5a55.284,55.284,0,0,0,.2-7.2q0-6.2-.1-8.6a19.325,19.325,0,0,1,.1-4.5q0.7-4,.8-4.1l0.5-2.4q-0.1.4,0.7-3.4a4,4,0,0,0,.2-0.5,1.906,1.906,0,0,0,.1-0.6l-0.1-.2c-0.067-.2-0.017-0.283.15-0.25s0.516,0.117,1.05.25a8.8,8.8,0,0,0,1.7.2,11.252,11.252,0,0,0,3.7-.7q5.7-1.7,6.4-1.9,3.8-1,5.65-1.3t6.25-.6q1-.1,2.3-0.1a3.155,3.155,0,0,1,1.45.25,4.273,4.273,0,0,1,1.05.95,1.754,1.754,0,0,1,.5.9,6.924,6.924,0,0,1,.1,1.3,3.667,3.667,0,0,1-.2,1.7q-0.3.2-1,7.3a11.9,11.9,0,0,1-.4,3.6l-0.3,1.7a11.831,11.831,0,0,1-.2,2.3l-0.4,3.5q-0.2,2.5-.35,3.75a4.526,4.526,0,0,1-.35,1.55,1.2,1.2,0,0,0-.1.8q0.1,0.4-.1.1a16.345,16.345,0,0,1-.9-1.9,9.4,9.4,0,0,1-.5-1.5q0-.5-1.2-0.9-0.4-.2-3.2-1.7l-2-1.2,0.8-.9a2.82,2.82,0,0,0,.9-1.2,1.328,1.328,0,0,1,.7-0.9l1.2-1.5a6.947,6.947,0,0,1,.9-1.2,2.2,2.2,0,0,0,.8-0.85,3.521,3.521,0,0,0,.5-1.25,1.1,1.1,0,0,0-.4-1.3,3.886,3.886,0,0,1-.3-1.1v-0.3a1.125,1.125,0,0,0-.1-0.5,0.724,0.724,0,0,0-.5-0.3,1.687,1.687,0,0,1-.8-0.7q-0.4-.6-4.6-1.7a8.909,8.909,0,0,1-1.6-.4,1.5,1.5,0,0,0-1.8,0,2.461,2.461,0,0,1-1.4.4,1.165,1.165,0,0,0-.9.4,1,1,0,0,0,.75.45,4.093,4.093,0,0,0,1.25.25,1.13,1.13,0,0,1,.5.1c0.133,0.067.266,0.134,0.4,0.2a0.456,0.456,0,0,1,.2.45,6.192,6.192,0,0,1-.1.95,46.183,46.183,0,0,1-1.7,4.5,17.835,17.835,0,0,1-1.7,3.5,4.8,4.8,0,0,1-2.4-.5,36.931,36.931,0,0,0-4.5-1.2l-2.8-.7a3.311,3.311,0,0,0-1-.2c-0.534,0-.8.1-0.8,0.3a2.066,2.066,0,0,0,.95,1.15,11.265,11.265,0,0,0,1.95,1.25,16.171,16.171,0,0,1,2.2,1.3,11.219,11.219,0,0,0,2.4,1.8l1.4,1-1,1.6a6.638,6.638,0,0,1-2,2.4,28.371,28.371,0,0,0-3.3,3.5,8.211,8.211,0,0,1-1.3,1.5,1.075,1.075,0,0,0-.6.7,0.672,0.672,0,0,1-.3.6,0.56,0.56,0,0,0-.3.2c-0.134.134-.134,0.2,0,0.2a15.309,15.309,0,0,0,1.8-.4,4.859,4.859,0,0,0,1.5-.6,3.167,3.167,0,0,1,1.1-.4,2.157,2.157,0,0,0,1.1-.5,8.055,8.055,0,0,1,1.3-.6l1.4-.7a1.381,1.381,0,0,1,.9-0.5,13.986,13.986,0,0,0,2.3-1.9,25.263,25.263,0,0,1,2.2-1.9,21.844,21.844,0,0,1,2.9,2q1.3,0.8,2.25,1.5t1.45,1a5.7,5.7,0,0,1,1.6,1.7,7.076,7.076,0,0,0,1.1,1.2,2.924,2.924,0,0,0,1-.9,9.942,9.942,0,0,0,1.2-1.6,1.124,1.124,0,0,1,.7-0.7q0.3,0,.3,1.8v1.8a19.9,19.9,0,0,0,.15,4.95,14.672,14.672,0,0,0,1.55,3.85,15.326,15.326,0,0,0,1.4,1.85,22.4,22.4,0,0,0,1.9,1.75,42.5,42.5,0,0,0,3.6,2.6,13.32,13.32,0,0,0,2.8,1.3l2.7,1a22.064,22.064,0,0,0,4.5.8l2.8,0.4a29.426,29.426,0,0,0,5.2.3q2,0,2.95-.05a6.083,6.083,0,0,0,1.95-.45q1.8-.6,1.8-1.5a0.681,0.681,0,0,0-.2-0.5q-0.1-.1-1-1.9a5.716,5.716,0,0,0-1.2-2,0.761,0.761,0,0,1-.35-0.55,6.947,6.947,0,0,1-.05-0.95,6.828,6.828,0,0,0-1-3.5,7.884,7.884,0,0,1-.3-1,1.678,1.678,0,0,0-.6-0.9,6.34,6.34,0,0,1-.7-1.1,0.486,0.486,0,0,0-.5-0.35,0.762,0.762,0,0,0-.5.55q-1.1,5-1.55,6.3a3.919,3.919,0,0,1-1.45,2,2.342,2.342,0,0,1-1,.5,8.245,8.245,0,0,1-1.5.1,28.675,28.675,0,0,1-4.6-.45,30.244,30.244,0,0,1-4.5-1.05,17.137,17.137,0,0,1-3-1.25,3.59,3.59,0,0,1-1.6-1.25,23.849,23.849,0,0,1-.2-4.8l-0.2-4.9a4.3,4.3,0,0,1,.1-1.5,9.31,9.31,0,0,1,.5-2.3l0.4-2a22.556,22.556,0,0,0,.65-3.35q0.349-2.449.45-3.45a33.025,33.025,0,0,1,.8-4.7q0-.1.5-2.2,0.5-2.3.8-4.6l0.7-3.3a16.505,16.505,0,0,1,2.4-2.5,1.327,1.327,0,0,0,.6-0.9,1.1,1.1,0,0,0-.4-0.7,3.46,3.46,0,0,1-.3-1,3.114,3.114,0,0,0-.4-1.05,5.575,5.575,0,0,0-1.3-.85,19.812,19.812,0,0,1-2.2-1.5,13.093,13.093,0,0,0-2.4-1.2,8.128,8.128,0,0,0-2.2-.7l-1.9-.6-1.9-.6Zm77.1-6.8a6.188,6.188,0,0,1,.4,2.3q0,0.4.5,3.2,0.6,2.2,1.3,6.05t1,6.35a14.777,14.777,0,0,1,.1,1.8,1.546,1.546,0,0,1-.25,1.05,5.8,5.8,0,0,1-1.55.75l-2.9,1.1a47.032,47.032,0,0,1-6.1,2.7,6.732,6.732,0,0,1-3,.8,2.25,2.25,0,0,0-1.4.4l0.8,0.8a3.457,3.457,0,0,1,.6.45,0.957,0.957,0,0,1,.4.55q0,0.8,3.8,2.8a23.425,23.425,0,0,0,5.9,2.4,3.09,3.09,0,0,1,1.5.4q0.2,0-.2,1.5a5.324,5.324,0,0,0-.5,1.9q0,0.6-.2.6a1.58,1.58,0,0,0-.45.65,8.411,8.411,0,0,1-.65,1.05,20.565,20.565,0,0,1-3.5,4.9l-2.2,2.9a12.232,12.232,0,0,1-2.2,2.8,14.684,14.684,0,0,1-1.5,1.5l-1.8,1.9q-2.5,2.5-3.85,3.9a19.105,19.105,0,0,0-1.5,1.65,0.839,0.839,0,0,0-.05.65,2.154,2.154,0,0,0,.95.95,4.157,4.157,0,0,0,1.65.25,4.533,4.533,0,0,0,1.6-.3q0.8-.3,1.9-0.8,0.7-.3,3.6-1.9a43.412,43.412,0,0,0,4.35-3.75q3.15-2.948,3.15-3.35a2.241,2.241,0,0,1,.8-1.2,6.538,6.538,0,0,0,1-1.1,1.512,1.512,0,0,1,.7-0.85q0.7-.548.8-0.35,0.2,0.1-.35,5.35a57.727,57.727,0,0,1-.95,6.75q-0.3,2.1-1.3,2.4a4.983,4.983,0,0,0,.55,1.7,20.86,20.86,0,0,0,1.05,2.3,1.58,1.58,0,0,1,.4.9l1.2,2.7a2.507,2.507,0,0,0,1.15,1.05,3.614,3.614,0,0,0,1.55.35,3.391,3.391,0,0,0,2.5-1l0.8-.7-0.1-3.6q-0.4-8.1-.4-15.1v-5.2q0-2.6-.1-4.5a24.883,24.883,0,0,1,.15-3.4q0.15-.9.65-0.9a1.111,1.111,0,0,1,.8.45,1.328,1.328,0,0,1,.4.85,0.757,0.757,0,0,0,.1.3,0.638,0.638,0,0,0,.3.3,3.813,3.813,0,0,1,.8,1.2,14.673,14.673,0,0,0,1.8,1.95,17.649,17.649,0,0,0,2,1.75l1.6,0.4a1.907,1.907,0,0,0,1.05-.05,6.876,6.876,0,0,0,.95-0.85,2.2,2.2,0,0,0,.9-1.3q-1.3-2.9-1.8-3.1a19.963,19.963,0,0,0-2.4-1.35,24.962,24.962,0,0,0-3.2-1.35,12.226,12.226,0,0,1-1.45-.45,2.615,2.615,0,0,1-.85-0.45,2.981,2.981,0,0,1,0-1.1,4.217,4.217,0,0,0-.4-1.9,2.865,2.865,0,0,1-.3-1.3,2.68,2.68,0,0,1,.85-0.45,6.266,6.266,0,0,1,1.35-.35l3.4-1.2a18.145,18.145,0,0,1,3.5-1.1,12.834,12.834,0,0,0,1.55-.55,1.109,1.109,0,0,0,.65-0.55,1.187,1.187,0,0,1,.7-0.7,1.494,1.494,0,0,0,1-.9l0.6-.9-0.6-.4-2-1.6a10.926,10.926,0,0,0-2.6-1.8,19.966,19.966,0,0,0-2.9-1.3,5.456,5.456,0,0,1-1.3-.5,1.548,1.548,0,0,0-.6-0.2,2.7,2.7,0,0,1-1.5,0h-1l0.2-1.2a14.87,14.87,0,0,1,.9-2.5,5.4,5.4,0,0,0,1-2.2,2.015,2.015,0,0,0,0-.9,6.694,6.694,0,0,0-.6-1.1,2.145,2.145,0,0,1-.9-1.3,2.908,2.908,0,0,0-.85-1.5,6.327,6.327,0,0,0-1.55-1.4,20.458,20.458,0,0,1-5.2-3.7,23.073,23.073,0,0,0-2.1-1.8,5.513,5.513,0,0,1-1.2-.4l-0.8-.3a0.089,0.089,0,0,0-.1.1v0.2Zm46.1,3.4a1.726,1.726,0,0,0-.8,1.2q-0.2.3-.5,0.8a1.615,1.615,0,0,1-.5.6,1.082,1.082,0,0,0-.3.8c0,0.134.033,0.2,0.1,0.2a1.073,1.073,0,0,0,.8-0.6,1.441,1.441,0,0,1,1-.5h0.5a2.949,2.949,0,0,1,1.2.4,26.381,26.381,0,0,1,.2,3.55q0.1,3.45,0,5.05a0.364,0.364,0,0,1-.5.3,0.965,0.965,0,0,1-.6-0.4,0.606,0.606,0,0,0-.6-0.45q-0.5-.049-1.6-0.05t-1.7.05a0.676,0.676,0,0,0-.7.45q-1,.7-3.4,2.2a13.6,13.6,0,0,1-2.7,1.5q-0.2,0,0-1.9l0.2-2.1-1-1.4a18.211,18.211,0,0,0-1.6-1.9,13.176,13.176,0,0,0-2.25-1.2,7.806,7.806,0,0,0-2.25-.8,1.659,1.659,0,0,1-.65-0.15c-0.234-.1-0.45-0.183-0.65-0.25a8.512,8.512,0,0,0-.9-0.2l-0.5.1a3.417,3.417,0,0,1-1.4.2h-1.1l1.1,0.5a8.987,8.987,0,0,1,2.1,1.25,4.951,4.951,0,0,1,1.4,1.45q0.6,1.2.6,9.2a45.141,45.141,0,0,1-.4,7.8,2.229,2.229,0,0,1-.35,1.1,7.04,7.04,0,0,1-1.05.9q-0.3.2-2.3,1.2a4.647,4.647,0,0,0-1,.6,1.157,1.157,0,0,0-.2.8,16.2,16.2,0,0,0,.65,3.95q0.649,2.452,1.15,2.65a1.9,1.9,0,0,0,1.4.1,5.334,5.334,0,0,0,1.8-.8,39.3,39.3,0,0,1,5.2-2.7,32.972,32.972,0,0,0,3.7-2.4q3.1-2.4,5.5-4a13.407,13.407,0,0,1,2.7-1.6,6.314,6.314,0,0,1,.1,1.7,6.584,6.584,0,0,0,.15,1.75,8.677,8.677,0,0,0,.85,1.55,7.963,7.963,0,0,1,1.6,2.5,4.519,4.519,0,0,0,1.65,1.85,4.618,4.618,0,0,0,2.35.55q0.1-.2,4.5-0.4,2.4-.2,6-0.2,3.5,0,3.8-1.1a0.735,0.735,0,0,0,.05-0.7,2.747,2.747,0,0,0-.65-0.9l-0.9-1.3a1.729,1.729,0,0,0-1.1-.8,13.824,13.824,0,0,0-3.15-1.15,14.687,14.687,0,0,0-3.35-.65,3.256,3.256,0,0,1-1-.2,1.244,1.244,0,0,0-1.3.2,7.791,7.791,0,0,1-2.9.6,1.034,1.034,0,0,1-.6-0.1,19.223,19.223,0,0,1-.1-2.25,22.075,22.075,0,0,1,.1-2.35,6.93,6.93,0,0,1,1.35-.75,8.4,8.4,0,0,1,1.65-.65q0.1,0,2.1-.9l2.3-1.4a5.5,5.5,0,0,0,2-1.3,7.049,7.049,0,0,1,.95-0.65,1.631,1.631,0,0,1,.65-0.25l1.4-1.2a3.491,3.491,0,0,1,1.7-1.2,0.536,0.536,0,0,0,.6-0.4,3.354,3.354,0,0,1,1.2-.7,0.97,0.97,0,0,0,.7-0.9,1.519,1.519,0,0,0-.4-0.9,1.674,1.674,0,0,1-.7-1.1,8.219,8.219,0,0,0-1.85-2,14.045,14.045,0,0,0-2.55-2,5.522,5.522,0,0,1-.9-0.45q-0.4-.248-0.8-0.45a2.361,2.361,0,0,0-1-.3q-0.4,0-.4.3v0.2a9.577,9.577,0,0,1-1.15,2.85,12.161,12.161,0,0,1-1.65,2.85,3.51,3.51,0,0,0-.8,1.1q-0.3.3-.8,0.9t-1.2,1.3l-1.5,1.5,0.2-2.7a13.671,13.671,0,0,1,.15-2.2,3.8,3.8,0,0,1,.55-1.5,13.414,13.414,0,0,0,.75-2.6,15.5,15.5,0,0,0,.35-3.1,4.107,4.107,0,0,0-2-3.8,9.393,9.393,0,0,0-1.6-.95,8.8,8.8,0,0,0-1.7-.45l-2.3-.4a3.957,3.957,0,0,0-1.2.1h0Zm0.9,16.6a27.379,27.379,0,0,1-.2,3.05,5.506,5.506,0,0,1-.4,1.95,10.627,10.627,0,0,1-2.5-.7q-0.7-.1-1.95-0.4a8.9,8.9,0,0,0-1.75-.3q-1.2,0-1.2.3v0.2a0.737,0.737,0,0,1-.45.65,9.6,9.6,0,0,1-1.25.55q-0.6.2-1.25,0.45a1.08,1.08,0,0,1-.75.15q-0.4-.3-0.4-2.3v-2.3l0.7-.2a13.093,13.093,0,0,1,2.5-.2,18.469,18.469,0,0,0,4.8-1.1,23.583,23.583,0,0,0,3.2-1.2l0.5-.1q0.4,0,.4,1.5h0Zm-9.5,16.4a10.8,10.8,0,0,0-.7,1.8,5.764,5.764,0,0,1-1,2.1,11.809,11.809,0,0,0-1.8,2.4,4.471,4.471,0,0,1-1.2,1.4,1.382,1.382,0,0,0-.5.9,1.473,1.473,0,0,0,1.4.7l0.5-.1a1.426,1.426,0,0,1,1.2.2,2.279,2.279,0,0,0,.8.2,6.683,6.683,0,0,0,1.65-.6q1.35-.6,3.65-1.7,3.8-1.8,4.4-3.4,0.2-.3-0.7-1.8a6.438,6.438,0,0,0-5.3-3,3.9,3.9,0,0,1-1.2-.1q-0.2-.4-0.45-0.15a6.077,6.077,0,0,0-.75,1.15h0Zm11.4,6.1a5.405,5.405,0,0,1-2,.7,36.811,36.811,0,0,0-6.4,2.6q-5.4,2.5-5.6,2.9-0.1.4,0.5,0.45a0.73,0.73,0,0,0,.8-0.35,0.88,0.88,0,0,1,.45-0.25,1.561,1.561,0,0,1,.65.05,12.329,12.329,0,0,0,2.4.2,39.165,39.165,0,0,0,7.3-.7,9.641,9.641,0,0,1,3-.4q1.8,0,1.9.4a3.672,3.672,0,0,1,.2,1.7q0,1.2-.1,2.25a11.653,11.653,0,0,1-.2,1.45q-0.3.1-2-1.4l-1.6-1.5-2.4.1a6.318,6.318,0,0,1-3-.4,1.155,1.155,0,0,0-.75.05,3.568,3.568,0,0,0-.95.75,10.161,10.161,0,0,1-2.8,1.8,20.278,20.278,0,0,1-3.4,1.3,2.372,2.372,0,0,0-1.05.25,0.969,0.969,0,0,0-.15.65,2.648,2.648,0,0,0,.5,1.2,7.175,7.175,0,0,0,1.5.85,2.262,2.262,0,0,0,1.2.35,25.042,25.042,0,0,1,3.1-.3,25.212,25.212,0,0,0,4.7-.8,12.351,12.351,0,0,0,1.45-.35,10.245,10.245,0,0,1,1.85-.35l2.7-.3a0.741,0.741,0,0,1,.6-0.1,0.8,0.8,0,0,1,.1.5,9.229,9.229,0,0,1-.45,2.25,4.07,4.07,0,0,1-.85,1.85,0.461,0.461,0,0,1-.55.05,6.383,6.383,0,0,1-.95-0.55,2.538,2.538,0,0,0-.75-0.55,1.888,1.888,0,0,0-.75-0.15h-0.8a26.1,26.1,0,0,1-2.8-.1l-1.2-.2a1.245,1.245,0,0,0-.9.4,18.779,18.779,0,0,1-3.4,2.1l-2.7,1.3a4.588,4.588,0,0,0,.9.1,4,4,0,0,1,1.05.15,2.99,2.99,0,0,1,.85.35,5.663,5.663,0,0,0,1.8.3l3-.1,3.2-.2a1.588,1.588,0,0,1,1,.2l1.2,1.9q0.8,1.4,1.2,2.1a6.672,6.672,0,0,0,1.1,1.4l1.4,1.8a2.786,2.786,0,0,0,2,1.1,10.558,10.558,0,0,0,2.2-.5,6.82,6.82,0,0,0,2.65-1.65,6.9,6.9,0,0,0,1.35-2.85,41.421,41.421,0,0,0,.9-5.8q0.2-3.2.2-5.5l-0.1-3.4a8.759,8.759,0,0,0-.8-2.75,10.68,10.68,0,0,0-1.4-2.65,7.3,7.3,0,0,0-2.25-2.1,9.246,9.246,0,0,0-2.85-1.3,12.34,12.34,0,0,1-2.5-.6q-1-.2-1.1-0.2a3.9,3.9,0,0,0-1.4.5h0Zm-25.4,5a10.968,10.968,0,0,0,1.15.85,5.021,5.021,0,0,1,.75.55l0.3,1.8a27.285,27.285,0,0,1,.8,3.25,15.2,15.2,0,0,1,.3,2.45v2.1q0,1.6-.15,3.4a6.8,6.8,0,0,1-.35,2.1q-0.3.4,2.6,3.9a10.292,10.292,0,0,1,1.1,1.4,1.4,1.4,0,0,0,1,.7,4.6,4.6,0,0,0,1.6.4h0.2a0.845,0.845,0,0,0,.7-1,27.681,27.681,0,0,0-.6-4.1,60.932,60.932,0,0,1-.6-7.8l-0.3-4.9-0.9-1.3a12.7,12.7,0,0,0-2.45-2.75,6.968,6.968,0,0,0-2.55-1.65q-2.2-.4-2.8-0.5l-1.8-.1Z"/>
</svg>
