<?xml version="1.0" encoding="UTF-8"?>
<svg width="900px" height="140px" viewBox="0 0 900 140" version="1.1" xmlns="http://www.w3.org/2000/svg" xmlns:xlink="http://www.w3.org/1999/xlink">
    <!-- Generator: Sketch 59.1 (86144) - https://sketch.com -->
    <title>preview</title>
    <desc>Created with Sketch.</desc>
    <g id="preview" stroke="none" stroke-width="1" fill="none" fill-rule="evenodd">
        <path d="M376.992188,74.7714844 L380.654297,70.3183594 C382.509775,71.9394612 384.111321,73.5605388 385.458984,75.1816406 L384.726562,76.3828125 L335.097656,76.3828125 L334.570312,74.7714844 L376.992188,74.7714844 Z M400.488281,57.3691406 C402.890637,60.1230606 404.091797,62.7988151 404.091797,65.3964844 C404.091797,66.9199295 403.544927,67.6816406 402.451172,67.6816406 C401.533199,67.6816406 401.074219,66.9199295 401.074219,65.3964844 C401.015625,62.6620957 400.478521,60.1816518 399.462891,57.9550781 L400.488281,57.3691406 Z M399.550781,52.6816406 L413.847656,52.6816406 L416.015625,49.9863281 L416.504632,50.3882074 C418.463793,52.0191664 419.443359,53.1059001 419.443359,53.6484375 C419.443359,53.7991079 419.335739,53.9497764 419.120496,54.1004462 L417.392578,55.2011719 L417.392578,73.3066406 L414.287109,73.3066406 L414.287109,71.8125 L408.193359,71.8125 L408.193359,77.7597656 L412.529297,77.7597656 L415.224609,74.5664062 C416.142583,75.2500034 417.138667,76.1972596 418.212891,77.4082031 L418.828125,78.0527344 L418.154297,79.2539062 L408.193359,79.2539062 L408.193359,84.6445312 C411.572283,84.2734356 415.234355,83.7168006 419.179688,82.9746094 L419.53125,84.4101562 C412.089807,86.2656343 404.169964,87.8476497 395.771484,89.15625 C395.400389,90.562507 395.000002,91.265625 394.570312,91.265625 C393.749996,91.265625 393.066409,89.6445475 392.519531,86.4023437 L394.177041,86.2526129 C397.224999,85.9669481 400.813096,85.5774079 404.941406,85.0839844 L404.941406,79.2539062 L394.6875,79.2539062 L394.013672,77.7597656 L404.941406,77.7597656 L404.941406,71.8125 L399.023438,71.8125 L399.023438,74.3320312 L395.771484,74.3320312 L395.771484,50.5722656 C396.904303,51.1386747 398.164056,51.8417927 399.550781,52.6816406 Z M399.023438,54.1757812 L399.023438,70.3183594 L405,70.3183594 L405,54.1757812 L399.023438,54.1757812 Z M414.287109,70.3183594 L414.287109,59.0390625 C413.896482,59.1757812 413.593751,59.2539062 413.378906,59.2734375 C412.343745,62.5547039 411.210944,65.4745966 409.980469,68.0332031 L408.779297,67.6816406 C409.69727,64.3027175 410.371092,60.5625205 410.800781,56.4609375 L411.43204,56.619782 C412.839819,56.9850782 413.791501,57.3129868 414.287109,57.6035156 L414.287109,54.1757812 L408.193359,54.1757812 L408.193359,70.3183594 L414.287109,70.3183594 Z M425.800781,79.9277344 L430.429688,79.9277344 L430.429688,50.2792969 L431.115979,50.3127791 C434.779562,50.5153463 436.611328,51.0217593 436.611328,51.8320312 C436.611328,52.3203149 435.673837,52.8964811 433.798828,53.5605469 L433.798828,64.4882812 L440.625,64.4882812 L443.583984,60.4160156 L444.199679,61.0875573 C445.586096,62.6149655 446.62109,63.8657178 447.304688,64.8398437 L446.572266,65.9824219 L433.798828,65.9824219 L433.798828,79.9277344 L440.625,79.9277344 L443.027344,76.9101562 C445.449231,78.9023537 446.660156,80.1914033 446.660156,80.7773437 C446.660156,81.0507826 446.494142,81.2851553 446.162109,81.4804687 L444.550781,82.5644531 L444.550781,103.306641 L441.240234,103.306641 L441.240234,99.5273437 L425.15625,99.5273437 L425.15625,103.306641 L421.728516,103.306641 L421.728516,77.8769531 L421.998699,77.9948642 C422.779949,78.3459444 424.0473,78.9902297 425.800781,79.9277344 Z M425.15625,81.421875 L425.15625,98.0332031 L441.240234,98.0332031 L441.240234,81.421875 L425.15625,81.421875 Z M413.378906,88.2480469 C417.441427,90.2402443 419.472656,92.3788948 419.472656,94.6640625 C419.472656,96.0312568 418.828131,96.7148437 417.539062,96.7148437 C416.679683,96.7148437 416.16211,96.1972708 415.986328,95.1621094 C415.556638,93.0136611 414.414072,91.011728 412.558594,89.15625 L413.378906,88.2480469 Z M403.417969,90.9140625 C405.312509,93.5703258 406.259766,96.0800663 406.259766,98.4433594 C406.259766,100.806652 405.478523,101.988281 403.916016,101.988281 C402.880854,101.988281 402.363281,101.548833 402.363281,100.669922 C402.363281,100.49414 402.421874,100.132815 402.539062,99.5859375 C402.734376,98.6679642 402.832031,97.6718804 402.832031,96.5976562 C402.832031,95.0156171 402.607424,93.199229 402.158203,91.1484375 L403.417969,90.9140625 Z M397.96875,91.265625 L399.345703,91.6171875 L399.419532,92.4175804 C399.507032,93.4425812 399.550781,94.2988247 399.550781,94.9863281 C399.550781,97.8379049 398.984381,100.064445 397.851562,101.666016 C397.070309,102.818365 396.250004,103.394531 395.390625,103.394531 C393.925774,103.394531 393.193359,102.750006 393.193359,101.460937 C393.193359,100.894528 393.486325,100.337893 394.072266,99.7910156 C396.240245,97.9550689 397.53906,95.1133005 397.96875,91.265625 Z M407.753906,89.7714844 C411.308612,92.2910282 413.085938,94.9667827 413.085938,97.7988281 C413.085938,99.3222732 412.38282,100.083984 410.976562,100.083984 C410.078121,100.083984 409.59961,99.5273493 409.541016,98.4140625 C409.482422,95.8749873 408.583993,93.2480604 406.845703,90.5332031 L407.753906,89.7714844 Z M470.712891,87.8378906 L459.550781,87.8378906 L459.550781,94.1367187 L456.064453,94.1367187 L456.064453,53.5605469 C457.197271,54.0292992 458.564453,54.7128861 460.166016,55.6113281 L470.244141,55.6113281 L472.470703,52.7988281 L472.95553,53.1751479 C474.897946,54.7016184 475.869141,55.7089819 475.869141,56.1972656 C475.869141,56.4316418 475.693361,56.695311 475.341797,56.9882812 L474.082031,57.9550781 L474.082031,91.8515625 L470.712891,91.8515625 L470.712891,87.8378906 Z M484.628906,55.5527344 L484.628906,66.8320312 L493.886719,66.8320312 L496.025391,63.9609375 C497.197271,65.1328184 498.173824,66.255854 498.955078,67.3300781 L498.398438,68.3261719 L484.628906,68.3261719 L484.628906,76.6757812 C484.628906,77.5546919 484.589844,78.833976 484.511719,80.5136719 L493.886719,80.5136719 L496.025391,77.671875 C497.17774,78.8046932 498.154293,79.9179633 498.955078,81.0117187 L498.398438,82.0078125 L484.453125,82.0078125 C483.964841,87.203151 482.656261,91.480452 480.527344,94.8398437 C478.398427,98.1992355 475.244162,101.05077 471.064453,103.394531 L469.980469,102.193359 C474.121114,99.0292811 477.011711,95.455098 478.652344,91.4707031 C480.19532,87.6620903 480.966797,82.730499 480.966797,76.6757812 L480.966797,52.0078125 C482.216803,52.5546902 483.574211,53.2382771 485.039062,54.0585937 L498.984375,54.0585937 L501.386719,51.1289062 L502.111595,51.7017671 C504.011165,53.2276506 504.960938,54.2085637 504.960938,54.6445312 C504.960938,54.8984388 504.804689,55.162108 504.492188,55.4355469 L503.115234,56.578125 L503.115234,97.6230469 C503.115234,100.943376 501.035177,102.603516 496.875,102.603516 C496.738281,101.490229 496.181646,100.738283 495.205078,100.347656 C494.07226,99.8789039 491.748064,99.4296896 488.232422,99 L488.232422,97.3300781 C491.552751,97.6425797 494.697251,97.7988281 497.666016,97.7988281 C498.896491,97.7988281 499.511719,97.1543033 499.511719,95.8652344 L499.511719,55.5527344 L484.628906,55.5527344 Z M470.712891,86.34375 L470.712891,72.1640625 L459.550781,72.1640625 L459.550781,86.34375 L470.712891,86.34375 Z M470.712891,70.6699219 L470.712891,57.1054687 L459.550781,57.1054687 L459.550781,70.6699219 L470.712891,70.6699219 Z M521.162109,53.2089844 L529.628906,53.2089844 L531.708984,50.6894531 C533.701182,52.3886804 534.697266,53.511716 534.697266,54.0585937 C534.697266,54.2343759 534.59961,54.3906243 534.404297,54.5273437 L532.96875,55.4355469 L532.96875,68.6484375 L533.876953,68.6484375 L535.605469,66.3046875 L536.064471,66.7421269 C537.750665,68.37082 538.59375,69.4457005 538.59375,69.9667969 C538.59375,70.188966 538.489076,70.3363648 538.279725,70.4089965 L536.455078,70.9335937 L535.996035,71.6471224 C535.172254,72.9082193 534.446367,73.9106033 533.818359,74.6542969 L534.101275,74.9448397 C534.576729,75.4482616 534.814453,75.7908645 534.814453,75.9726562 C534.814453,76.1875011 534.677736,76.3828116 534.404297,76.5585937 L533.144531,77.4082031 L533.144531,98.3261719 C533.144531,99.9668051 532.763676,101.109372 532.001953,101.753906 C531.220699,102.476566 529.960946,102.837891 528.222656,102.837891 C528.164062,101.763667 527.724613,101.021486 526.904297,100.611328 C526.08398,100.240233 524.912117,99.9179701 523.388672,99.6445312 L523.388672,98.2089844 C525.009774,98.5019546 526.640617,98.6484375 528.28125,98.6484375 C529.453131,98.6484375 530.039062,98.0625059 530.039062,96.890625 L530.039062,90.3574219 L520.517578,90.3574219 L520.517578,103.306641 L517.324219,103.306641 L517.324219,73.3359375 C518.222661,73.6289077 519.472648,74.2246049 521.074219,75.1230469 L529.804688,75.1230469 L531.767578,72.7792969 C531.897787,72.8834641 532.032335,73.0006509 532.171224,73.1308591 L532.382812,73.3359375 C532.539063,73.4921883 532.65625,73.5898436 532.734375,73.6289062 C533.222659,72.4179627 533.603514,71.2558649 533.876953,70.1425781 L516.123047,70.1425781 C516.16211,70.5917991 516.181641,71.1679652 516.181641,71.8710937 C516.181641,75.7187692 515.205088,77.6425781 513.251953,77.6425781 C511.923821,77.6425781 511.259766,77.0859431 511.259766,75.9726562 C511.259766,75.4648412 511.503904,74.9472683 511.992188,74.4199219 C513.398445,72.8183514 514.130859,70.3183764 514.189453,66.9199219 L515.595703,67.0957031 L515.719401,67.6718759 C515.793186,68.0364587 515.849609,68.3619777 515.888672,68.6484375 L517.617188,68.6484375 L517.617188,51.3339844 C518.769537,51.8808621 519.951166,52.5058559 521.162109,53.2089844 Z M520.664062,54.703125 L520.664062,68.6484375 L523.798828,68.6484375 L523.798828,58.0136719 L524.196687,58.2118778 C524.77563,58.5072569 525.756286,59.027123 527.138672,59.7714844 L529.980469,59.7714844 L529.980469,54.703125 L520.664062,54.703125 Z M529.980469,68.6484375 L529.980469,61.265625 L526.728516,61.265625 L526.728516,68.6484375 L529.980469,68.6484375 Z M520.517578,76.6171875 L520.517578,81.65625 L530.039062,81.65625 L530.039062,76.6171875 L520.517578,76.6171875 Z M530.039062,88.8632812 L530.039062,83.1503906 L520.517578,83.1503906 L520.517578,88.8632812 L530.039062,88.8632812 Z M543.896484,80.6308594 L559.160156,80.6308594 L561.123047,78.4042969 L561.627049,78.7513608 C563.478556,80.0465528 564.404297,80.9367163 564.404297,81.421875 C564.404297,81.6367198 564.248048,81.8710925 563.935547,82.125 L562.734375,83.0332031 L562.734375,91.3242187 L559.628906,91.3242187 L559.628906,89.3320312 L543.427734,89.3320312 L543.427734,91.6757812 L540.322266,91.6757812 L540.322266,78.9609375 C541.552741,79.4101585 542.744135,79.9667936 543.896484,80.6308594 Z M543.427734,82.125 L543.427734,87.8378906 L559.628906,87.8378906 L559.628906,82.125 L543.427734,82.125 Z M556.376953,55.6113281 L560.478516,55.6113281 L562.382812,53.2089844 L562.859539,53.586725 C564.690167,55.0581613 565.605469,56.0552858 565.605469,56.578125 C565.605469,56.7539071 565.488282,56.9296866 565.253906,57.1054687 L563.818359,58.0136719 L563.818359,71.578125 L560.771484,71.578125 L560.771484,69.7617187 L542.255859,69.7617187 L542.255859,72.1054687 L539.208984,72.1054687 L539.208984,53.765625 L539.988623,54.1404324 C541.113043,54.6895677 542.034798,55.1798629 542.753906,55.6113281 L546.357422,55.6113281 L546.357422,49.6640625 L547.001285,49.6907681 C550.009557,49.8392951 551.513672,50.2698427 551.513672,50.9824219 C551.513672,51.4902369 550.771492,52.0175754 549.287109,52.5644531 L549.287109,55.6113281 L553.447266,55.6113281 L553.447266,49.6054687 L554.091129,49.6430274 C557.099401,49.8416529 558.603516,50.288114 558.603516,50.9824219 C558.603516,51.4902369 557.861336,52.0175754 556.376953,52.5644531 L556.376953,55.6113281 Z M560.771484,63.3457031 L556.376953,63.3457031 L556.376953,68.2675781 L560.771484,68.2675781 L560.771484,63.3457031 Z M560.771484,61.8515625 L560.771484,57.1054687 L556.376953,57.1054687 L556.376953,61.8515625 L560.771484,61.8515625 Z M553.447266,57.1054687 L549.287109,57.1054687 L549.287109,61.8515625 L553.447266,61.8515625 L553.447266,57.1054687 Z M546.357422,57.1054687 L542.255859,57.1054687 L542.255859,61.8515625 L546.357422,61.8515625 L546.357422,57.1054687 Z M542.255859,68.2675781 L546.357422,68.2675781 L546.357422,63.3457031 L542.255859,63.3457031 L542.255859,68.2675781 Z M549.287109,68.2675781 L553.447266,68.2675781 L553.447266,63.3457031 L549.287109,63.3457031 L549.287109,68.2675781 Z M553.681641,99.9082031 C554.443363,98.0917878 555.224605,95.1914262 556.025391,91.2070312 L556.667321,91.41198 C559.559693,92.3586846 561.005859,93.1692675 561.005859,93.84375 C561.005859,94.3710964 560.28321,94.6347656 558.837891,94.6347656 C558.095699,96.1386794 556.953133,97.8964743 555.410156,99.9082031 L561.650391,99.9082031 L564.433594,96.3046875 C565.761725,97.5742251 566.894527,98.8730402 567.832031,100.201172 L567.128906,101.402344 L535.751953,101.402344 L535.078125,99.9082031 L553.681641,99.9082031 Z M544.130859,91.4414062 C547.666033,93.1796962 549.433594,95.2402225 549.433594,97.6230469 C549.433594,98.9902412 548.730476,99.6738281 547.324219,99.6738281 C546.481929,99.6738281 546.00872,99.2704279 545.904579,98.4636162 L545.888672,98.296875 C545.71289,96.0898327 544.873054,94.0878996 543.369141,92.2910156 L544.130859,91.4414062 Z M561.005859,74.7714844 L563.759766,72.0761719 C565.029303,72.9355512 566.249994,73.951166 567.421875,75.1230469 L566.689453,76.265625 L536.513672,76.265625 L535.927734,74.7714844 L561.005859,74.7714844 Z" id="一點明體" fill="#000000" fill-rule="nonzero"></path>
    </g>
</svg>