<?xml version="1.0" encoding="UTF-8"?>
<svg width="900px" height="140px" viewBox="0 0 900 140" version="1.1" xmlns="http://www.w3.org/2000/svg" xmlns:xlink="http://www.w3.org/1999/xlink">
    <!-- Generator: Sketch 59.1 (86144) - https://sketch.com -->
    <title>preview</title>
    <desc>Created with Sketch.</desc>
    <g id="preview" stroke="none" stroke-width="1" fill="none" fill-rule="evenodd">
        <path d="M312.011719,64.6210938 C314.121104,63.7226518 316.347645,63.9374934 318.691406,65.265625 C320.214851,66.164067 321.777336,66.8476539 323.378906,67.3164062 C324.316411,67.5898451 325.058591,68.1171836 325.605469,68.8984375 C326.464848,69.9140676 326.621096,70.8906203 326.074219,71.828125 C325.683592,72.4531281 325.136722,72.765625 324.433594,72.765625 C322.675772,72.6874996 320.332046,71.8476643 317.402344,70.2460938 C315.957024,69.699216 314.550788,69.347657 313.183594,69.1914062 C309.160136,69.1914062 303.925813,69.7187447 297.480469,70.7734375 C292.636695,71.5937541 287.949241,72.6874932 283.417969,74.0546875 C280.827495,74.2027146 278.149412,73.6670985 275.383648,72.4478239 L274.921875,72.2382812 C274.726562,72.1601559 274.531251,72.0429695 274.335938,71.8867188 C273.554684,71.3007783 273.652339,70.8515641 274.628906,70.5390625 C275.136721,70.343749 275.917963,70.1875006 276.972656,70.0703125 L286.347656,68.1953125 C293.886756,66.9062436 301.640585,65.9492219 309.609375,65.3242188 C310.390629,65.4023441 311.191402,65.1679715 312.011719,64.6210938 Z M364.570312,47.2773438 L366.796875,47.21875 C367.500004,47.2968754 368.281246,47.5703102 369.140625,48.0390625 C369.492189,48.3125014 369.863279,48.527343 370.253906,48.6835938 C371.660163,49.1523461 372.14844,49.9531193 371.71875,51.0859375 C371.484374,51.4765645 371.367188,51.9843719 371.367188,52.609375 C371.289062,54.914074 371.25,57.2382695 371.25,59.5820312 C371.25,60.2070344 371.640621,60.4804691 372.421875,60.4023438 C373.984383,60.1289049 375.527336,59.6406285 377.050781,58.9375 C378.852261,58.0551426 380.376901,57.7091246 381.624742,57.8994375 L381.855469,57.9414062 C382.871099,58.097657 383.339844,58.800775 383.261719,60.0507812 C383.183593,60.597659 382.460944,61.320308 381.09375,62.21875 L372.539062,66.4960938 C371.757811,66.8867207 371.562498,66.6914102 371.953125,65.9101562 C372.057292,65.6757801 372.170139,65.4327258 372.291666,65.1809901 L372.480469,64.796875 C372.832033,64.1328092 372.714847,63.8007812 372.128906,63.8007812 C371.503903,63.7226559 371.191406,63.9765596 371.191406,64.5625 C371.113281,67.4922021 371.074219,70.4609225 371.074219,73.46875 C371.074219,74.0937531 371.484371,74.3085947 372.304688,74.1132812 L376.933594,73.1757812 C378.535164,72.7070289 380.273428,73.1757742 382.148438,74.5820312 C384.492199,76.1836018 384.726572,77.9218656 382.851562,79.796875 L381.972656,80.3242188 C381.230465,80.7148457 380.566409,81.3984326 379.980469,82.375 L377.695312,85.1289062 C377.22656,85.7539094 377.382809,86.1054684 378.164062,86.1835938 C379.72657,86.4960953 380.605468,87.3749928 380.800781,88.8203125 C380.64453,89.6015664 380.156254,90.167967 379.335938,90.5195312 C378.828122,90.7539074 378.183598,90.8320316 377.402344,90.7539062 L376.332088,90.8024293 C373.901053,90.9263307 371.933601,91.1249986 370.429688,91.3984375 C369.765622,91.4765629 369.433594,91.6914045 369.433594,92.0429688 C368.964841,93.80079 367.871102,94.4257838 366.152344,93.9179688 C365.488278,93.6054672 364.804691,92.9218803 364.101562,91.8671875 C363.437497,90.8906201 362.75391,90.14844 362.050781,89.640625 C361.425778,89.1718727 361.054688,88.56641 360.9375,87.8242188 C360.9375,87.2382783 360.820314,87.0820299 360.585938,87.3554688 C359.257811,88.4101615 358.164067,88.4296926 357.304688,87.4140625 C357.031249,87.1015609 356.835938,86.7109398 356.71875,86.2421875 C356.054684,84.6015543 354.86329,82.8828215 353.144531,81.0859375 C352.779946,80.5390598 352.245229,80.4005189 351.540365,80.6703122 L343.886719,83.8984375 C343.222653,84.1328137 343.242184,84.3085932 343.945312,84.4257812 C344.609378,84.6601574 345.292965,84.9726543 345.996094,85.3632812 C348.183605,86.6914129 349.218751,88.0976488 349.101562,89.5820312 C348.828124,91.1445391 347.949226,91.9257812 346.464844,91.9257812 C346.26953,91.9257812 346.07422,91.8671881 345.878906,91.75 C345.292966,91.359373 344.921876,90.8125035 344.765625,90.109375 C344.570312,89.3671838 344.257811,88.5859416 343.828125,87.765625 C342.929683,86.4374934 342.5,85.3632854 342.539062,84.5429688 C342.656251,84.386718 342.324223,84.4453111 341.542969,84.71875 C340.800778,84.9140635 340.429688,85.3828088 340.429688,86.125 L340.425,86.5140638 C340.414063,86.9296894 340.383985,87.2113281 340.334766,87.3589843 L340.3125,87.4140625 C339.843748,88.4687553 340.175776,89.2890596 341.308594,89.875 C342.324224,90.5781285 342.890624,91.3203086 343.007812,92.1015625 C342.890624,93.5078195 342.089851,94.1523443 340.605469,94.0351562 C339.277337,94.0742189 338.183598,93.4296941 337.324219,92.1015625 C336.816404,91.1249951 336.503907,90.363284 336.386719,89.8164062 C335.917966,88.5664 336.249994,87.4726609 337.382812,86.5351562 C337.773439,86.183592 338.066405,85.8710951 338.261719,85.5976562 C338.41797,85.2851547 338.339845,85.0703131 338.027344,84.953125 C337.753905,84.6796861 337.460939,84.3476582 337.148438,83.9570312 C336.835936,83.5664043 336.464846,83.2539074 336.035156,83.0195312 C335.683592,82.7851551 335.312502,82.21875 334.921875,81.3203125 L334.453125,80.3828125 C334.062498,79.6015586 334.257811,79.386717 335.039062,79.7382812 L337.03125,80.6757812 C337.46094,80.9492201 338.085933,80.9882822 338.90625,80.7929688 L339.226876,80.7280936 C340.535003,80.4463436 342.752328,79.7843802 345.878906,78.7421875 C346.503909,78.546874 346.816406,78.2539082 346.816406,77.8632812 C346.816406,77.4280112 346.513276,77.2621961 345.907008,77.3658321 L345.761719,77.3945312 C344.863277,77.5898447 344.687497,77.2968789 345.234375,76.515625 C345.74219,75.7343711 345.605473,75.3828121 344.824219,75.4609375 C342.363269,75.7734391 340.136729,75.1875074 338.144531,73.703125 C337.324215,73.19531 336.816407,72.7656268 336.621094,72.4140625 C336.582031,72.2578117 336.660155,72.1406254 336.855469,72.0625 C337.636723,71.9453119 338.613275,72.0039051 339.785156,72.2382812 C340.683598,72.4335947 341.562496,72.53125 342.421875,72.53125 C343.51563,72.2968738 344.707025,71.9648459 345.996094,71.5351562 C346.621097,71.3007801 346.933594,70.8710969 346.933594,70.2460938 L346.992188,69.3085938 C346.992188,68.5273398 346.796877,68.1562498 346.40625,68.1953125 C346.015623,68.2343752 345.78125,68.4492168 345.703125,68.8398438 C345.312498,69.8164111 344.511725,70.2851564 343.300781,70.2460938 C342.949217,70.2070311 342.558596,69.9726584 342.128906,69.5429688 C341.660154,68.8789029 341.230471,68.2148471 340.839844,67.5507812 C340.332029,66.5351512 339.746097,65.77344 339.082031,65.265625 C338.183589,64.367183 337.890623,63.2734439 338.203125,61.984375 C338.398438,61.6328107 338.378907,61.0468791 338.144531,60.2265625 C337.519528,58.3124904 337.480466,56.3203229 338.027344,54.25 C338.222657,53.4687461 338.496092,52.9609387 338.847656,52.7265625 C338.925782,52.7656252 339.199216,53.1757773 339.667969,53.9570312 C339.902345,54.4257836 340.136718,55.2070258 340.371094,56.3007812 C340.566407,58.2148533 341.191401,60.1288967 342.246094,62.0429688 C342.636721,62.6289092 342.734376,62.5312539 342.539062,61.75 C342.5,61.0468715 342.597655,60.5390641 342.832031,60.2265625 C343.336841,59.2169421 343.641943,58.4736051 343.747342,57.9965333 L343.769531,57.8828125 C343.886719,57.2578094 344.023437,56.769533 344.179688,56.4179688 C344.531252,55.7539029 344.31641,55.3046887 343.535156,55.0703125 C342.832028,54.8359363 342.265627,54.6015637 341.835938,54.3671875 C341.132809,53.8593725 340.78125,53.5273445 340.78125,53.3710938 C340.820313,53.0585922 341.093747,52.8046885 341.601562,52.609375 C342.500004,52.3749988 343.281247,52.1210951 343.945312,51.8476562 C347.460955,50.3632738 350.585924,49.4062521 353.320312,48.9765625 C355.351573,48.6640609 357.050774,48.8398404 358.417969,49.5039062 C359.199223,49.8164078 359.88281,50.4609326 360.46875,51.4375 C360.625001,51.6328135 360.80078,51.828124 360.996094,52.0234375 C362.167975,52.9609422 362.343754,54.0742123 361.523438,55.3632812 C361.171873,55.7929709 360.937501,56.3789025 360.820312,57.1210938 C360.039059,60.9492379 359.062506,64.0742066 357.890625,66.4960938 C357.617186,67.0820342 357.246096,67.6679658 356.777344,68.2539062 C356.191403,68.9570348 356.074217,69.406249 356.425781,69.6015625 C356.816408,69.8750014 357.050781,70.1679672 357.128906,70.4804688 C357.558596,72.2773527 356.601574,73.429685 354.257811,73.9375 C353.437496,74.2500016 352.617192,74.6015605 351.796875,74.9921875 C351.132809,75.2656264 350.800781,75.6953096 350.800781,76.28125 C350.800781,76.8305692 351.144101,77.0022293 351.830749,76.7962344 L351.972656,76.75 C354.082042,76.0468715 356.230458,75.3828156 358.417969,74.7578125 C358.925784,74.4453109 359.570309,74.484373 360.351562,74.875 C360.703127,75.3046896 360.644534,75.8320281 360.175781,76.4570312 C359.86328,76.8085955 359.511721,77.0624992 359.121094,77.21875 L354.726562,79.2695312 C354.062497,79.5429701 354.12109,79.7968738 354.902344,80.03125 C356.699228,80.6171904 358.261712,81.4960879 359.589844,82.6679688 L359.776759,82.8689463 C360.300589,83.4068396 360.492188,83.3593782 360.351562,82.7265625 C360.273437,81.4765563 360.527341,79.9336029 361.113281,78.0976562 L361.283862,77.7634279 C361.578796,77.1989849 361.77584,76.9002405 361.875,76.8671875 C361.940104,76.8671875 362.032335,76.9350037 362.151692,77.0706377 L362.226562,77.1601562 C362.343751,77.3554697 362.773434,77.1210971 363.515625,76.4570312 C364.257811,76.105467 365.039058,75.8710943 365.859375,75.7539062 C366.523441,75.5585928 366.679689,75.0898475 366.328125,74.3476562 C365.742185,73.3710889 365.83984,72.4140672 366.621094,71.4765625 C366.738282,71.3593744 366.816406,71.203126 366.855469,71.0078125 C366.933594,64.5234051 366.953125,58.0390949 366.914062,51.5546875 C366.757811,50.6171828 365.97657,49.5625059 364.570312,48.390625 C363.789059,47.6874965 363.789059,47.3164064 364.570312,47.2773438 Z M355.429688,52.375 C353.86718,52.4531254 352.128916,52.9023396 350.214844,53.7226562 C349.589841,53.9960951 349.472654,54.2109367 349.863281,54.3671875 C350.253908,54.6015637 350.605467,54.875 350.917969,55.1875 C351.113282,55.5390643 351.328124,55.6757816 351.5625,55.5976562 C351.796876,55.4804682 351.777345,55.2265645 351.503906,54.8359375 C351.152342,54.4453105 351.386715,54.25 352.207031,54.25 C353.183599,54.2109373 354.374993,54.2695305 355.78125,54.4257812 C356.484379,54.6210947 356.855469,54.34766 356.894531,53.6054688 C356.894531,53.2148418 356.855469,52.941407 356.777344,52.7851562 C356.699218,52.6679682 356.250004,52.5312508 355.429688,52.375 Z M345.761719,55.5976562 C345.605468,55.5976562 345.703123,55.9882773 346.054688,56.7695312 L346.347656,57.4726562 C346.54297,58.0976562 346.718749,58.3515631 346.875,58.234375 C346.992188,58.1562496 346.953126,57.7265664 346.757812,56.9453125 C346.71875,56.7890617 346.660157,56.6328133 346.582031,56.4765625 C346.191404,55.8906221 345.91797,55.5976562 345.761719,55.5976562 Z M355.479053,59.476269 L354.726562,60.2265625 C353.710932,61.1640672 352.812504,61.8671852 352.03125,62.3359375 C351.44531,62.7656271 351.484372,62.9609377 352.148438,62.921875 C352.968754,62.9609377 353.63281,63.058593 354.140625,63.2148438 C354.726565,63.5444352 355.158004,63.3762091 355.434952,62.71016 L355.488281,62.5703125 C355.712004,61.9950255 355.922649,61.223628 356.120222,60.2561036 L356.25,59.5820312 C356.398438,58.8769496 356.141459,58.8416955 355.479053,59.476269 L355.479053,59.476269 Z M346.992188,63.390625 C346.992188,62.6484338 346.835939,62.5898406 346.523438,63.2148438 L346.230469,63.9765625 C345.878904,64.6015656 345.917967,64.8554693 346.347656,64.7382812 C346.777346,64.5820305 346.992188,64.1328162 346.992188,63.390625 Z M344.765625,64.9726562 C344.492186,64.8945309 344.394531,64.9140619 344.472656,65.03125 C344.589844,65.1875008 344.707031,65.2460939 344.824219,65.2070312 C345.058595,65.1289059 345.039064,65.0507816 344.765625,64.9726562 Z M351.796875,68.6640625 C351.282167,68.149354 351.009677,68.1709797 350.979401,68.7289408 L350.976562,68.8398438 C350.9375,69.5039096 351.13281,69.7578133 351.5625,69.6015625 C352.070315,69.406249 352.148439,69.0937521 351.796875,68.6640625 Z M376.757812,78.0976562 C376.914063,77.4726531 376.601566,77.2187494 375.820312,77.3359375 C374.257805,77.6484391 372.675789,77.980467 371.074219,78.3320312 C369.855463,78.5820325 368.611721,78.7820312 367.342971,78.9320311 L366.386719,79.0351562 C365.292963,79.1523443 364.433597,79.3085928 363.808594,79.5039062 C363.183591,79.6210943 362.929687,80.0703086 363.046875,80.8515625 C363.437502,83.1562615 364.531241,85.3242086 366.328125,87.3554688 C366.914065,87.9414092 367.597652,88.1171887 368.378906,87.8828125 C369.238286,87.6093736 370.117183,87.3554699 371.015625,87.1210938 C371.640628,86.964843 372.207029,86.4960977 372.714844,85.7148438 C374.55079,82.7460789 375.898433,80.2070418 376.757812,78.0976562 Z M348.52937,84.3809328 L348.339844,84.0742188 C347.832029,83.2929648 347.714842,82.6875021 347.988281,82.2578125 C348.574222,82.062499 349.316402,82.1992164 350.214844,82.6679688 C351.074223,83.0585957 351.855465,83.527341 352.558594,84.0742188 C354.511722,85.5586012 355.000005,87.0820234 354.023438,88.6445312 C353.710936,89.1523463 353.242191,89.4843742 352.617188,89.640625 C351.835934,89.8750012 351.113285,89.5820354 350.449219,88.7617188 C350.136717,87.9804648 349.863282,87.1992227 349.628906,86.4179688 C349.385849,85.8624104 349.01934,85.1834039 348.52937,84.3809328 L348.52937,84.3809328 Z M404.648438,45.8710938 C405.273441,45.6367176 406.171869,45.7343729 407.34375,46.1640625 C408.125004,46.5937521 408.906246,47.0624975 409.6875,47.5703125 C410.820318,48.3515664 411.484374,49.0546844 411.679688,49.6796875 C412.031252,50.5000041 411.777348,51.2812463 410.917969,52.0234375 L410.449219,52.5507812 C409.971275,53.1390195 410.046966,53.4677364 410.676294,53.5369404 L410.800781,53.546875 C412.988292,53.6640631 414.98046,54.5234295 416.777344,56.125 C417.285159,56.7890658 417.714842,57.0820316 418.066406,57.0039062 C418.730472,56.9648436 419.355466,57.140623 419.941406,57.53125 C420.019532,57.6484381 420.312497,57.7656244 420.820312,57.8828125 L421.171875,57.9414062 C421.953129,58.1757824 422.34375,58.722652 422.34375,59.5820312 C422.148437,60.5195359 422.070312,61.3593713 422.109375,62.1015625 L421.992188,67.84375 C421.992188,68.4296904 422.324215,68.644532 422.988281,68.4882812 C423.69141,68.2148424 424.746087,67.9023455 426.152344,67.5507812 C426.777347,67.3945305 427.363279,66.9257852 427.910156,66.1445312 C428.261721,65.6757789 428.652342,65.2070336 429.082031,64.7382812 L429.250782,64.5320303 C429.700784,63.9624967 429.644534,63.8359359 429.082031,64.1523438 C428.417965,64.5820334 427.734379,65.0703098 427.03125,65.6171875 C426.562498,65.9296891 426.23047,66.281248 426.035156,66.671875 C425.488279,67.3359408 424.921878,67.6679688 424.335938,67.6679688 C423.710934,67.7460941 423.183596,67.3945352 422.753906,66.6132812 C421.93359,64.6992092 422.382804,63.0000074 424.101562,61.515625 C424.960942,60.1874934 425.449218,59.0937543 425.566406,58.234375 C425.722657,57.5312465 425.429691,57.1992186 424.6875,57.2382812 C423.398431,57.2382812 421.601574,56.7500049 419.296875,55.7734375 L418.870873,55.4541603 C418.412685,55.1033945 418.183594,54.8973217 418.183594,54.8359375 C418.222656,54.7187494 418.632809,54.5234389 419.414062,54.25 L419.718183,54.1940418 C420.549444,54.052119 421.912904,53.8949917 423.808594,53.7226562 C427.910177,53.2148412 432.59763,52.1992264 437.871094,50.6757812 C439.042975,50.5195305 439.843748,50.5390615 440.273438,50.734375 C440.94141,51.0156264 441.625193,51.5183562 442.324804,52.2425771 L442.558594,52.4921875 C443.769537,53.7421937 444.00391,54.914057 443.261719,56.0078125 C442.519528,57.2968814 442.148438,58.8593658 442.148438,60.6953125 C442.031249,69.7187951 442.22656,78.1171486 442.734375,85.890625 C442.929688,88.3125121 443.222654,90.6562387 443.613281,92.921875 C443.925783,94.2890693 444.121093,95.4609326 444.199219,96.4375 C444.277344,97.4531301 443.769537,97.9999996 442.675781,98.078125 C441.154289,97.744139 439.544685,96.669833 437.846925,94.8551771 L437.578125,94.5625 C435.195301,91.9843621 433.33985,89.445325 432.011719,86.9453125 C431.855468,86.7109363 431.796875,86.5156258 431.835938,86.359375 C431.835938,85.2265568 432.324214,84.7578115 433.300781,84.953125 C433.769534,85.0703131 434.140624,85.3046857 434.414062,85.65625 C435.39063,86.7500055 436.445307,87.8632756 437.578125,88.9960938 C438.203128,89.6210969 438.515625,89.6210969 438.515625,88.9960938 C438.320312,85.1679496 438.164063,81.3398629 438.046875,77.5117188 C438.007812,76.8867156 437.890626,76.9648398 437.695312,77.7460938 C437.22656,80.0507928 436.28907,81.9843672 434.882812,83.546875 C434.062496,84.2109408 432.988288,84.7187482 431.660156,85.0703125 L431.298827,85.084961 C430.74544,85.1012372 430.436198,85.0768232 430.371094,85.0117188 C430.292968,84.8164053 430.312499,84.5625016 430.429688,84.25 C430.820314,83.4687461 431.269529,82.7851592 431.777344,82.1992188 C432.207033,81.4960902 432.050785,81.2421865 431.308594,81.4375 L429.764058,81.86172 C427.832806,82.3992205 426.414067,82.8242172 425.507812,83.1367188 L424.335938,83.7226562 C423.671872,83.9960951 423.183595,84.0156262 422.871094,83.78125 C421.816401,82.9609334 421.347656,82.0429738 421.464844,81.0273438 C421.582032,80.4023406 421.73828,80.0507816 421.933594,79.9726562 C422.16797,79.8945309 422.402343,79.4648477 422.636719,78.6835938 C423.027346,77.4335875 423.183594,75.9882895 423.105469,74.3476562 C423.144531,74.0351547 423.222656,73.7421889 423.339844,73.46875 C423.808596,72.7656215 423.69141,72.4531246 422.988281,72.53125 C422.207027,72.3359365 421.796875,72.6289023 421.757812,73.4101562 C421.406248,79.3476859 420.585944,84.0546701 419.296875,87.53125 C418.242182,90.3047014 416.640636,92.8437385 414.492188,95.1484375 C414.101561,95.5390645 413.710939,95.7734371 413.320312,95.8515625 C412.47472,95.9618572 412.027059,95.5877261 411.977319,94.7291584 L411.972656,94.5625 C411.933594,94.2109357 412.148435,93.6835973 412.617188,92.9804688 C414.218758,90.1679547 415.468746,87.1797033 416.367188,84.015625 C416.562501,83.3124965 416.347659,83.1953102 415.722656,83.6640625 C411.738261,86.3984512 407.148463,89.2695162 401.953125,92.2773438 C401.01562,92.7460961 400.214847,93.0195309 399.550781,93.0976562 C399.003904,93.1757816 398.496096,93.0390643 398.027344,92.6875 L396.386719,90.8125 C395.878904,90.5390611 395.585938,90.0703158 395.507812,89.40625 L395.507812,87.53125 C395.507812,86.7890588 395.859371,86.7499967 396.5625,87.4140625 C397.500005,88.7421941 398.437495,89.054691 399.375,88.3515625 C399.843752,88.0781236 400.332029,87.843751 400.839844,87.6484375 C401.50391,87.3359359 401.796875,87.1210943 401.71875,87.0039062 C401.757813,86.8085928 402.031247,86.3398475 402.539062,85.5976562 C403.08594,85.0117158 403.613279,84.4648463 404.121094,83.9570312 C404.707034,83.3320281 405,82.8632828 405,82.5507812 C405,82.199217 404.609379,82.3359344 403.828125,82.9609375 C403.359373,83.664066 402.500006,83.8593766 401.25,83.546875 C400.351558,83.2343734 399.589847,82.6875039 398.964844,81.90625 L396.914062,79.5625 C396.132809,78.7031207 396.132809,78.3906238 396.914062,78.625 C397.656254,78.8203135 398.437496,79.0351551 399.257812,79.2695312 C400.000004,79.5429701 400.585935,79.5820322 401.015625,79.3867188 C401.992192,78.9179664 403.007807,78.410159 404.0625,77.8632812 C404.726566,77.4726543 405.058594,76.9648469 405.058594,76.3398438 L405.058594,75.6367188 C405.058594,74.901421 404.712576,74.6505578 404.020532,74.8841233 L403.886719,74.9335938 C402.832026,75.3242207 402.070315,75.6757797 401.601562,75.9882812 C400.820309,76.4179709 400.039066,76.6523436 399.257812,76.6914062 C397.929681,76.5351555 396.367196,75.8320375 394.570312,74.5820312 C393.632808,74.0351535 393.554684,73.6640635 394.335938,73.46875 C397.460953,72.7265588 400.624984,71.8671924 403.828125,70.890625 C404.492191,70.6562488 404.687501,70.1679725 404.414062,69.4257812 L403.59375,68.078125 C403.203123,67.4140592 402.617191,67.0820312 401.835938,67.0820312 C401.367185,67.0039059 400.89844,66.8867195 400.429688,66.7304688 C399.804684,66.4570299 399.179691,66.6328094 398.554688,67.2578125 C397.382807,68.5078187 395.820322,69.8945236 393.867188,71.4179688 C393.632811,71.6132822 393.24219,71.6914064 392.695312,71.6523438 C391.914059,71.5742184 391.5625,71.1445352 391.640625,70.3632812 C391.5625,69.9726543 391.914059,69.3867227 392.695312,68.6054688 L396.152344,64.5039062 C396.269532,64.3476555 396.308594,64.2109381 396.269531,64.09375 C396.347657,63.9765619 396.464843,63.8789066 396.621094,63.8007812 C396.738282,63.7617186 397.011717,63.4882838 397.441406,62.9804688 C399.941419,59.8945158 402.246083,56.7695471 404.355469,53.6054688 L406.113281,50.5585938 C406.347657,49.9335906 406.289064,49.3085969 405.9375,48.6835938 C405.624998,48.2539041 405.273439,47.8046898 404.882812,47.3359375 C404.453123,46.7109344 404.374999,46.222658 404.648438,45.8710938 Z M437.226562,55.0703125 C434.023421,55.6953156 430.820329,56.3007783 427.617188,56.8867188 C426.992184,56.9648441 426.972653,57.3554652 427.558594,58.0585936 C427.988283,58.6054715 428.203125,59.1718721 428.203125,59.7578125 C428.242188,60.4218783 428.613278,60.5781268 429.316406,60.2265625 C430.52735,59.523434 431.874993,59.0546887 433.359375,58.8203125 C433.750002,58.5859363 434.042968,58.4492189 434.238281,58.4101562 C435.058598,58.3710936 436.01562,58.9570252 437.109375,60.1679688 C437.695315,60.7929719 438.007812,60.7929719 438.046875,60.1679688 L438.28125,56.0078125 C438.28125,55.304684 437.929691,54.9921871 437.226562,55.0703125 Z M408.515625,56.7109375 C407.812496,56.515624 407.246096,56.7109346 406.816406,57.296875 C406.425779,57.8437509 406.562497,57.9804701 407.226562,57.7070312 L408.75,57.2382812 C409.296878,57.0820305 409.218754,56.906251 408.515625,56.7109375 Z M406.582031,59.2304688 C406.037944,59.0128337 405.544385,59.1656939 405.101344,59.6890539 L405,59.8164062 C404.179683,60.871099 403.320317,61.945307 402.421875,63.0390625 C401.91406,63.6640656 402.050777,63.8984383 402.832031,63.7421875 L409.511719,61.2226562 C411.230477,60.363277 412.832024,60.4023391 414.316406,61.3398438 C415.175786,62.082035 415.175786,63.0195256 414.316406,64.1523438 C413.925779,64.6601588 413.359379,64.9921867 412.617188,65.1484375 C411.367181,65.6171898 409.824228,66.3203078 407.988281,67.2578125 C407.436808,67.5519316 407.490873,67.8979492 408.150478,68.2958745 L408.28125,68.3710938 C408.437501,68.4492191 408.593749,68.5859365 408.75,68.78125 C408.894231,68.9615394 409.254805,68.8921985 409.83173,68.5732253 L409.980469,68.4882812 C411.113287,67.7851527 412.578116,67.6679664 414.375,68.1367188 C415.859382,68.488283 416.855466,69.0937457 417.363281,69.953125 C417.480469,70.851567 417.070317,71.574216 416.132812,72.1210938 C415.898436,72.2382818 415.41016,72.2578129 414.667969,72.1796875 C413.183586,71.8281232 411.718757,71.9648406 410.273438,72.5898438 C409.570309,72.8242199 409.21875,73.2539031 409.21875,73.8789062 C409.21875,74.5429721 409.492185,74.5625031 410.039062,73.9375 C410.390627,73.546873 410.839841,73.2734383 411.386719,73.1171875 C412.5586,72.8437486 414.101553,73.332025 416.015625,74.5820312 C416.757816,75.2070344 417.089844,75.9882766 417.011719,76.9257812 C416.816405,77.6679725 416.152349,78.1171867 415.019531,78.2734375 C414.003901,78.2734375 413.281252,78.7031207 412.851562,79.5625 C412.099606,80.5537159 411.362612,81.4252911 410.640565,82.1772451 L410.332031,82.4921875 C409.667965,83.1562533 409.765621,83.2929707 410.625,82.9023438 L414.726562,81.0273438 C415.234378,80.5976541 415.898433,80.5390609 416.71875,80.8515625 C416.953126,81.0078133 417.128906,80.6953164 417.246094,79.9140625 C417.656252,77.145494 417.931824,74.3919152 418.072815,71.6532631 L418.169749,69.462329 C418.304659,65.9732764 418.211618,63.2658045 417.890625,61.3398438 C417.499998,60.5585898 417.187501,60.2265619 416.953125,60.34375 C416.249996,60.5781262 415.703127,60.5781262 415.3125,60.34375 C414.062494,59.953123 412.539071,59.7187504 410.742188,59.640625 C409.374993,59.6796877 407.988288,59.5429703 406.582031,59.2304688 Z M437.929688,64.2695312 C437.929688,63.4882773 437.734377,63.2539047 437.34375,63.5664062 C436.75781,63.722657 436.171878,63.8984365 435.585938,64.09375 C435.117185,64.3671889 434.628909,64.6992168 434.121094,65.0898438 C433.535153,65.5976588 433.593746,65.7539072 434.296875,65.5585938 C435.078129,65.5195311 435.937495,65.7148416 436.875,66.1445312 C437.578129,66.2617193 437.929688,66.0273467 437.929688,65.4414062 L437.929688,64.2695312 Z M436.757812,70.1875 C435.820308,69.9140611 434.589851,69.874999 433.066406,70.0703125 C432.40234,70.1484379 432.148437,70.3437484 432.304688,70.65625 C432.421876,70.9687516 432.792966,71.125 433.417969,71.125 C434.042972,71.0859373 434.804683,71.2812479 435.703125,71.7109375 C436.093752,71.8671883 436.484373,72.0624988 436.875,72.296875 C437.578129,72.8828154 437.929688,72.8632844 437.929688,72.2382812 L437.929688,71.59375 C437.929688,70.8124961 437.539066,70.3437508 436.757812,70.1875 Z M427.910156,72.0039062 C427.67578,71.3007777 427.48047,71.3203088 427.324219,72.0625 C427.285156,72.1796881 427.207032,72.2968744 427.089844,72.4140625 C426.621091,73.1953164 426.562498,73.761717 426.914062,74.1132812 C427.773442,74.7773471 427.812504,75.5781203 427.03125,76.515625 L426.621094,77.8632812 C426.464843,78.5273471 426.640622,78.8007818 427.148438,78.6835938 C427.656253,78.5664057 427.949218,78.0976604 428.027344,77.2773438 C428.144532,75.2851463 428.10547,73.5273514 427.910156,72.0039062 Z M433.183594,73.6445312 C432.558591,73.2148416 432.207032,73.37109 432.128906,74.1132812 L431.894531,76.4570312 C431.894531,77.0820344 432.187497,77.3359381 432.773438,77.21875 C433.398441,77.1796873 433.769531,76.7890662 433.886719,76.046875 C433.925781,75.4218719 433.90625,74.7968781 433.828125,74.171875 C433.710937,73.8984361 433.496095,73.7226566 433.183594,73.6445312 Z M482.167969,41.828125 C483.535163,41.6718742 484.941399,42.0234332 486.386719,42.8828125 C487.792976,43.4687529 488.320314,44.2890572 487.96875,45.34375 L486.855469,47.6289062 C486.56135,48.2171445 486.751659,48.4593571 487.426402,48.35555 L487.558594,48.3320312 C490.058606,47.9023416 492.304678,47.1015684 494.296875,45.9296875 C495.703132,45.0312455 497.207023,45.1679629 498.808594,46.3398438 C499.746098,46.8867215 500.214844,47.41406 500.214844,47.921875 C500.292969,49.2500066 499.550789,50.0312488 497.988281,50.265625 C496.972651,50.2265623 495.664071,50.3828107 494.0625,50.734375 C493.449516,50.8425486 493.152736,51.0006463 493.172152,51.2086721 L493.183594,51.2617188 C493.261719,51.5351576 492.91016,51.9648408 492.128906,52.5507812 C491.113276,53.8789129 489.863289,55.0703072 488.378906,56.125 C487.675778,56.5937523 487.71484,56.828125 488.496094,56.828125 C489.628912,56.7890623 490.70312,57.3749939 491.71875,58.5859375 C492.070314,58.9765645 492.343749,59.2304682 492.539062,59.3476562 C493.155695,59.8191988 493.384986,60.3917781 493.226941,61.0654091 L493.183594,61.2226562 C493.066406,61.5351578 493.398434,61.5156268 494.179688,61.1640625 C495.312506,60.4999967 496.601555,60.7539004 498.046875,61.9257812 C498.632815,62.5117217 499.414058,63.0390602 500.390625,63.5078125 C501.171879,63.8593768 501.953121,64.2499979 502.734375,64.6796875 C503.437504,65.1093771 503.847656,65.6367156 503.964844,66.2617188 C504.160157,67.1601607 503.828129,67.9023408 502.96875,68.4882812 C501.679681,69.0742217 500.117197,68.6054764 498.28125,67.0820312 C496.796868,65.9882758 495.234383,65.3828131 493.59375,65.265625 C492.695308,65.3046877 491.796879,65.3632809 490.898438,65.4414062 C490.234372,65.5195316 489.667971,65.9296838 489.199219,66.671875 L488.90625,67.0820312 C488.47656,67.7070344 488.65234,68.1562486 489.433594,68.4296875 C490.410161,68.8203145 490.898438,69.386715 490.898438,70.1289062 C490.742187,71.4961006 490.039069,72.1210943 488.789062,72.0039062 C486.796865,71.652342 484.707042,71.7695283 482.519531,72.3554688 C481.816403,72.4726568 481.464844,72.8046848 481.464844,73.3515625 C481.464844,73.8984402 481.874996,74.0742197 482.695312,73.8789062 C484.843761,73.2539031 486.5039,72.9804684 487.675781,73.0585938 C488.730474,73.2539072 489.511716,73.6445283 490.019531,74.2304688 C490.761722,75.5586004 490.371101,76.6328084 488.847656,77.453125 L487.480464,77.8518893 C485.299471,78.4975064 483.606777,79.0481748 482.402344,79.5039062 C481.777341,79.7382824 481.464844,79.9726551 481.464844,80.2070312 C481.464844,80.4804701 481.855465,80.5781254 482.636719,80.5 L487.324219,79.8554688 C488.183598,79.8164061 488.96484,79.6601576 489.667969,79.3867188 C491.777354,78.6835902 493.437494,78.6835902 494.648438,79.3867188 C495.039064,79.6601576 495.429686,79.8164061 495.820312,79.8554688 C496.992193,79.8554688 497.85156,80.4218693 498.398438,81.5546875 C498.86719,82.6875057 498.417976,83.527341 497.050781,84.0742188 C496.347653,84.2304695 495.585942,84.2109385 494.765625,84.015625 C493.437493,83.6640607 491.738292,83.6054676 489.667969,83.8398438 C487.285144,83.9570318 484.863294,84.1718734 482.402344,84.484375 C481.777341,84.5625004 481.464844,84.9140594 481.464844,85.5390625 L481.523438,91.515625 C481.445312,92.5312551 481.582029,93.4882768 481.933594,94.3867188 C482.636722,95.7148504 482.832033,96.8671826 482.519531,97.84375 C482.20703,98.7812547 481.542974,99.1328137 480.527344,98.8984375 C479.824215,98.703124 479.140628,98.0585992 478.476562,96.9648438 L476.953125,94.6210938 C476.01562,93.566401 475.917965,92.3945377 476.660156,91.1054688 C477.285159,90.5195283 477.636718,89.9335967 477.714844,89.3476562 L477.773438,86.0078125 C477.773438,85.4218721 477.412952,85.1792592 476.691972,85.2799681 L476.542969,85.3046875 C473.333818,85.8094977 470.440907,86.414152 467.864162,87.1186661 L467.226562,87.296875 C465.117177,87.9218781 463.476568,87.9023471 462.304688,87.2382812 C461.367183,86.9257797 460.410161,86.339848 459.433594,85.4804688 C459.160155,85.2851553 458.945313,84.9726584 458.789062,84.5429688 C458.75,84.3476553 458.906248,84.1523447 459.257812,83.9570312 C459.921878,83.7617178 460.683589,83.6835936 461.542969,83.7226562 C463.183602,83.6054682 464.746086,83.4296887 466.230469,83.1953125 C469.707049,82.5312467 473.222638,81.925784 476.777344,81.3789062 C477.402347,81.2617182 477.714844,81.0859387 477.714844,80.8515625 C477.714844,80.656249 477.617188,80.3632832 477.421875,79.9726562 C477.226562,79.5429666 476.738285,79.3476561 475.957031,79.3867188 C474.19921,79.6210949 472.71485,79.5820328 471.503906,79.2695312 C470.527339,79.1523432 469.355476,78.5273494 467.988281,77.3945312 C467.558592,77.1210924 467.285157,76.8085955 467.167969,76.4570312 C467.167969,76.3007805 467.578121,76.125001 468.398438,75.9296875 L469.138023,76.0151045 C470.684034,76.182119 471.863277,76.2317712 472.675781,76.1640625 C473.925787,75.968749 475.214837,75.7148453 476.542969,75.4023438 C477.207035,75.246093 477.539062,74.8750029 477.539062,74.2890625 C477.539062,73.6640594 477.12891,73.4687488 476.308594,73.703125 C475.52734,73.8593758 474.765629,74.0742174 474.023438,74.3476562 C472.382804,75.1289102 470.82032,75.070317 469.335938,74.171875 C468.603512,73.7324197 467.871095,73.2709969 467.138673,72.7875986 L466.40625,72.296875 C465.507808,71.7109346 465.429684,71.3789066 466.171875,71.3007812 C469.50996,70.9456658 472.62202,70.4937071 475.508132,69.9448935 L476.367188,69.7773438 C477.070316,69.6601557 477.402344,69.3085967 477.363281,68.7226562 C477.363281,68.0585904 476.953129,67.8242178 476.132812,68.0195312 C473.007797,68.6445344 469.902359,69.3085902 466.816406,70.0117188 C466.035152,70.1289068 465.25391,70.3242174 464.472656,70.5976562 C461.894518,71.7695371 459.042984,71.4961023 455.917969,69.7773438 C455.019527,69.2695287 454.980465,68.7617213 455.800781,68.2539062 C456.191408,68.0585928 456.582029,67.9414064 456.972656,67.9023438 L459.652577,67.3798061 C464.155029,66.5158791 469.687467,65.5181899 476.25,64.3867188 C476.875003,64.2695307 477.1875,63.9960959 477.1875,63.5664062 C477.148437,63.0976539 476.816409,62.9414055 476.191406,63.0976562 C473.730456,64.152349 471.328137,64.3085975 468.984375,63.5664062 C468.085933,63.2929674 467.324222,62.8828152 466.699219,62.3359375 C465.99609,61.7109344 466.093746,61.203127 466.992188,60.8125 C467.382814,60.6562492 467.773436,60.5195318 468.164062,60.4023438 C469.57032,60.2070303 471.015618,59.9726576 472.5,59.6992188 C473.203129,59.5820307 473.22266,59.1718785 472.558594,58.46875 C472.128904,57.4140572 471.542972,56.4570355 470.800781,55.5976562 C470.097653,54.855465 469.414066,54.855465 468.75,55.5976562 C466.328113,58.4882957 464.082042,60.4609322 462.011719,61.515625 C460.449211,62.3750043 459.31641,62.7460943 458.613281,62.6289062 C458.45703,62.3945301 458.476562,62.1601574 458.671875,61.9257812 C459.101565,61.18359 459.687496,60.4218789 460.429688,59.640625 C464.335957,55.5781047 467.011712,51.6718937 468.457031,47.921875 C468.808596,47.3749973 468.691409,46.7890656 468.105469,46.1640625 L466.523438,44.875 C465.781246,44.2499969 465.800777,43.9375 466.582031,43.9375 C468.417978,43.7421865 470.019524,43.9765592 471.386719,44.640625 L472.558594,45.1679688 C473.730475,45.7539092 474.082034,46.6132756 473.613281,47.7460938 C473.466796,48.097658 473.29834,48.4602045 473.107911,48.8337395 L472.910156,49.2109375 C472.558592,49.8359406 472.792965,50.0117201 473.613281,49.7382812 C474.785162,49.3476543 475.820308,48.7812537 476.71875,48.0390625 C477.73438,47.5312475 478.828119,47.6679648 480,48.4492188 C480.742191,48.9960965 481.289061,48.9375033 481.640625,48.2734375 C482.343754,46.9453059 482.773437,45.8710979 482.929688,45.0507812 C482.929688,44.8554678 482.871094,44.6601572 482.753906,44.4648438 C482.480467,44.1132795 481.914067,43.585941 481.054688,42.8828125 C480.390622,42.2968721 480.468746,41.9648441 481.289062,41.8867188 L482.167969,41.828125 Z M485.384115,52.0559897 L485.039062,52.0234375 C484.453122,51.9453121 483.906253,52.1992158 483.398438,52.7851562 C482.773434,53.5664102 481.894537,54.4648387 480.761719,55.4804688 C480.136716,55.9882838 480.156247,56.4765602 480.820312,56.9453125 C481.523441,57.3359395 482.128904,57.2382842 482.636719,56.6523438 C484.082038,55.4023375 485.371088,54.1718811 486.503906,52.9609375 C486.972659,52.3359344 486.81641,52.0429686 486.035156,52.0820312 C485.826822,52.0820312 485.609809,52.0733508 485.384115,52.0559897 L485.384115,52.0559897 Z M477.128906,54.4257812 L478.066406,53.3125 C478.613284,52.6874969 478.476567,52.4531242 477.65625,52.609375 L474.960938,53.3125 C474.296872,53.5078135 474.335934,53.8789035 475.078125,54.4257812 C475.742191,55.2070352 476.425778,55.2070352 477.128906,54.4257812 Z M476.777344,58.5859375 C476.738281,58.4687494 476.679688,58.4687494 476.601562,58.5859375 C476.445312,58.8203137 476.445312,58.9375 476.601562,58.9375 C476.757813,58.8984373 476.816406,58.781251 476.777344,58.5859375 Z M486.503906,60.5195312 L485.976562,60.6367188 C484.843744,60.8710949 483.710943,61.1249986 482.578125,61.3984375 C481.953122,61.5546883 481.621094,61.9453094 481.582031,62.5703125 C481.542969,63.1562529 481.914059,63.3906256 482.695312,63.2734375 C483.750005,63.078124 484.785151,62.9218756 485.800781,62.8046875 C486.425784,62.6874994 486.914061,62.2773473 487.265625,61.5742188 C487.539064,60.7539021 487.28516,60.4023432 486.503906,60.5195312 Z M483.229149,66.5334248 L482.460938,66.671875 C481.796872,66.8281258 481.464844,67.1992158 481.464844,67.7851562 C481.464844,68.3981401 481.581337,68.6782785 481.814326,68.625578 L481.875,68.6054688 C482.148439,68.5273434 482.597653,68.1953154 483.222656,67.609375 L483.457031,67.3164062 C484.012133,66.6872913 483.936173,66.4262996 483.229149,66.5334248 Z M528.222656,44.0546851 C528.369716,43.4664491 528.793587,43.3972453 529.494282,43.8470746 L529.628906,43.9375 C530.292972,44.3671896 531.386711,45.3046803 532.910156,46.75 C533.222658,47.0625016 533.398437,47.4531227 533.4375,47.921875 C533.4375,48.6250035 533.144534,49.4843699 532.558594,50.5 C532.285155,51.1640658 532.519528,51.4570316 533.261719,51.3789062 C533.886722,51.2617182 534.550778,51.203125 535.253906,51.203125 C537.441417,50.8515607 539.277336,51.7695203 540.761719,53.9570312 C541.07422,54.5820344 541.601559,54.5820344 542.34375,53.9570312 C544.37501,51.808583 545.781246,49.9531328 546.5625,48.390625 C547.187503,47.4531203 547.265627,46.281257 546.796875,44.875 C546.601562,44.0937461 546.894527,43.703125 547.675781,43.703125 C548.535161,43.5078115 549.492182,43.9765568 550.546875,45.109375 C552.226571,46.515632 552.40235,47.8632748 551.074219,49.1523438 C550.683592,49.5429707 550.371095,49.9335918 550.136719,50.3242188 L549.316406,51.4960938 L549.163834,51.7252759 C548.788573,52.3249579 548.898023,52.5024683 549.492188,52.2578125 C550.625006,51.9453109 551.699214,51.3398482 552.714844,50.4414062 C554.121101,49.7773404 555.722647,50.1093684 557.519531,51.4375 C558.22266,52.0625031 558.41797,52.8242143 558.105469,53.7226562 C557.363278,54.6210982 557.03125,56.0468652 557.109375,58 L557.109375,66.6132812 C557.109375,67.2773471 557.499996,67.4921887 558.28125,67.2578125 L560.625,66.3789062 C562.500009,65.9101539 564.609363,66.3203061 566.953125,67.609375 C567.57292,68.0104187 567.750349,68.5305528 567.485417,69.1697911 L567.421875,69.3085938 C566.953123,70.4023492 566.054694,70.8320324 564.726562,70.5976562 C562.65624,70.3242174 560.468762,70.4999969 558.164062,71.125 C557.499997,71.2421881 557.1875,71.6718713 557.226562,72.4140625 C557.265625,72.609376 557.265625,72.8046865 557.226562,73 C557.265625,73.6250031 557.597653,73.9375 558.222656,73.9375 C559.785164,74.0156254 561.289055,74.2695291 562.734375,74.6992188 C563.945319,75.0898457 565.07812,75.91015 566.132812,77.1601562 C566.445314,77.6679713 566.972653,78.1953098 567.714844,78.7421875 C568.496098,79.5625041 568.53516,80.5390568 567.832031,81.671875 C567.480467,82.1406273 567.128908,82.9218695 566.777344,84.015625 C565.839839,86.7500137 564.804693,89.0937402 563.671875,91.046875 C563.236605,91.8169681 562.743943,92.5009553 562.193878,93.0988512 L561.914062,93.390625 C561.132809,94.2109416 560.449222,94.9726527 559.863281,95.6757812 C559.667968,95.9492201 559.492188,96.261717 559.335938,96.6132812 C558.007806,98.0976637 556.816412,98.0390705 555.761719,96.4375 C555.253904,95.6953088 554.707034,95.2070324 554.121094,94.9726562 C553.33984,94.1914023 552.494031,93.1518972 551.583646,91.8541144 L551.308594,91.4570312 C551.152343,91.2617178 551.015626,90.8906277 550.898438,90.34375 C550.742187,89.5624961 551.074215,89.171875 551.894531,89.171875 C552.59766,89.171875 553.183591,89.4648408 553.652344,90.0507812 C554.550786,90.9101605 555.449214,91.5742164 556.347656,92.0429688 C557.011722,92.3164076 557.656247,92.1601592 558.28125,91.5742188 C561.289078,87.5116984 562.773438,83.6054875 562.734375,79.8554688 C562.578124,78.9570268 561.992193,78.332033 560.976562,77.9804688 C560.351559,77.824218 559.648441,77.7265627 558.867188,77.6875 C558.242184,77.6875 557.890625,77.7851553 557.8125,77.9804688 C557.773437,78.1757822 557.558596,78.3906238 557.167969,78.625 C556.972655,78.7031254 557.265621,78.937498 558.046875,79.328125 C558.828129,79.7578146 559.58984,80.2851531 560.332031,80.9101562 C561.152348,81.6523475 561.542969,82.2578102 561.503906,82.7265625 C561.816408,83.8593807 561.425787,84.7773402 560.332031,85.4804688 C559.550777,85.8710957 558.964846,85.968751 558.574219,85.7734375 C557.87109,85.5390613 557.421876,85.050785 557.226562,84.3085938 C556.914061,83.4492145 556.542971,82.6875033 556.113281,82.0234375 L554.589844,79.796875 L554.47751,79.459873 C554.296989,78.8852599 554.25631,78.5483779 554.355469,78.4492188 C554.472657,78.3710934 554.140629,78.4101555 553.359375,78.5664062 L551.074219,79.328125 C550.410153,79.5234385 550.410153,79.7382801 551.074219,79.9726562 C551.972661,80.2460951 553.046869,80.8710889 554.296875,81.8476562 C555.156254,82.6289102 555.566406,83.4101523 555.527344,84.1914062 C555.488281,85.4023498 554.804694,86.2421852 553.476562,86.7109375 C552.499995,87.0625018 551.757815,86.5351633 551.25,85.1289062 C550.937498,83.9960881 550.292974,82.5898521 549.316406,80.9101562 C549.238281,80.2460904 548.886722,80.0312488 548.261719,80.265625 C547.675778,80.4609385 547.089847,80.6171869 546.503906,80.734375 C545.83984,80.8125004 545.917965,81.0664041 546.738281,81.4960938 C547.988288,82.0820342 549.121089,83.1562422 550.136719,84.71875 C550.527346,85.617192 550.312504,86.5937447 549.492188,87.6484375 C549.140623,88.0390645 548.750002,88.2539061 548.320312,88.2929688 C547.148432,88.644533 546.406252,88.0976635 546.09375,86.6523438 C545.742186,85.2851494 545.058599,83.722665 544.042969,81.9648438 C543.613279,81.1835898 543.007816,80.7148445 542.226562,80.5585938 C541.132807,80.3632803 540.390627,80.0312523 540,79.5625 C539.921875,79.4453119 539.941406,79.3085945 540.058594,79.1523438 C540.72266,78.5273406 541.640619,78.0781264 542.8125,77.8046875 C543.515629,77.5703113 543.652346,77.082035 543.222656,76.3398438 C542.753904,75.5195271 542.285159,74.9921887 541.816406,74.7578125 C540.605463,73.7812451 540.644525,72.7070371 541.933594,71.5351562 C542.246095,71.4179682 542.480468,70.9687539 542.636719,70.1875 C543.183596,66.7109201 543.398438,63.3711098 543.28125,60.1679688 C543.164062,59.5429656 542.968751,59.328124 542.695312,59.5234375 C542.382811,59.6796883 541.835941,59.562502 541.054688,59.171875 C540.898437,59.0156242 540.507816,58.8984379 539.882812,58.8203125 C539.140621,58.5859363 538.359379,58.7031227 537.539062,59.171875 C536.562495,59.7968781 535.332039,60.2265613 533.847656,60.4609375 C533.18359,60.5000002 533.105466,60.8320281 533.613281,61.4570312 C533.925783,62.003909 534.101562,62.4921854 534.140625,62.921875 C534.101562,63.312502 534.414059,63.2929709 535.078125,62.8632812 C536.367194,62.0820273 537.832023,62.3749932 539.472656,63.7421875 C540.761725,64.7187549 540.878912,65.6562455 539.824219,66.5546851 C538.691401,67.0234398 537.890627,67.2187504 537.421875,67.140625 C536.640621,67.2187504 535.546882,67.453123 534.140625,67.84375 C533.476559,68.0390635 533.242187,68.2929672 533.4375,68.6054688 C533.554688,68.9960957 533.613281,69.3281236 533.613281,69.6015625 C533.613281,69.9140641 534.003902,69.9335951 534.785156,69.6601562 C535.253909,69.4648428 535.917964,69.4453117 536.777344,69.6015625 C538.496102,70.0703148 539.023441,71.0078055 538.359375,72.4140625 C538.28125,72.6875014 537.929691,73.0195293 537.304688,73.4101562 C536.429683,73.7226578 535.604689,74.0601554 534.829689,74.4226555 L534.257812,74.6992188 C533.593747,75.0117203 533.261719,75.2851551 533.261719,75.5195312 C533.261719,75.7539074 533.65234,75.7539074 534.433594,75.5195312 C536.26954,75.3242178 537.578121,75.5585904 538.359375,76.2226562 C538.593751,76.4570324 538.730469,76.7499982 538.769531,77.1015625 C538.808594,78.0390672 538.35938,78.703123 537.421875,79.09375 C536.757809,79.2890635 535.976567,79.3867188 535.078125,79.3867188 L534.023438,79.5625 C533.398434,79.7187508 533.066406,80.1093719 533.027344,80.734375 C533.027344,81.3984408 533.398434,81.6132824 534.140625,81.3789062 C535.859384,80.6757777 537.734365,80.8515572 539.765625,81.90625 C540.351565,82.2578143 540.820311,82.2187521 541.171875,81.7890625 C541.835941,80.9296832 542.38281,80.851559 542.8125,81.5546851 C543.007813,82.1796906 543.105469,83.2538986 543.105469,84.7773438 C543.105469,85.4023469 543.281248,85.792968 543.632812,85.9492188 C544.531254,86.6132846 544.941407,87.6093684 544.863281,88.9375 C545.058595,90.1093809 544.472663,90.7929678 543.105469,90.9882812 C542.011713,91.0664066 541.191409,90.4023508 540.644531,88.9960938 C540.292967,88.3320279 540.019532,87.4726615 539.824219,86.4179688 C539.785156,85.7539029 539.375004,85.4023439 538.59375,85.3632812 C537.890621,85.1679678 537.109379,85.1289057 536.25,85.2460938 C533.671862,85.5585953 530.546893,86.1835891 526.875,87.1210938 C526.601561,87.1992191 526.308595,87.2382812 525.996094,87.2382812 C525.332028,87.1601559 525.039062,87.4921838 525.117188,88.234375 C525.390626,89.640632 526.210931,91.3593648 527.578125,93.390625 C528.125003,94.289067 528.203127,94.9335918 527.8125,95.3242188 C526.679682,96.3007861 525.468756,96.2226619 524.179688,95.0898438 C523.359371,94.3476525 522.714846,93.5664104 522.246094,92.7460938 C521.972655,92.199216 521.69922,91.8085949 521.425781,91.5742188 C520.566402,90.9882783 520.078126,90.4804709 519.960938,90.0507812 C519.648436,89.1523393 519.882809,88.3906281 520.664062,87.765625 C521.054689,87.5312488 521.269531,87.0234414 521.308594,86.2421875 C521.308594,82.0624791 521.445311,77.9023645 521.71875,73.7617188 C521.757813,73.1367156 521.503909,73.2148398 520.957031,73.9960938 C519.78515,75.753915 518.437508,77.4335857 516.914062,79.0351562 C515.937495,80.2070371 514.980473,80.5000029 514.042969,79.9140625 C513.691404,79.0937459 513.710936,78.4687521 514.101562,78.0390625 C518.281271,71.5155924 521.757799,65.2851859 524.53125,59.3476562 C524.804689,58.7226531 524.550785,58.332032 523.769531,58.1757812 C522.901471,57.9674469 521.909967,57.6510917 520.794996,57.2267078 L520.371094,57.0625 C519.707028,56.7890611 519.511717,56.9062475 519.785156,57.4140625 C520.097658,57.8828148 520.13672,58.4882775 519.902344,59.2304688 C519.355466,60.1679734 519.472652,61.0468709 520.253906,61.8671875 C521.113286,62.6875041 521.425782,63.5664016 521.191406,64.5039062 C521.035155,65.1289094 520.683596,65.5585926 520.136719,65.7929688 C518.496086,66.2617211 517.265629,65.6953205 516.445312,64.09375 C516.069334,63.1708938 515.812988,62.1882359 515.67627,61.1457535 L515.625,60.6953125 C515.507812,59.8749959 515.937495,59.0546851 516.914062,58.234375 C517.382815,57.9999988 517.695312,57.4531293 517.851562,56.59375 C518.007813,56.3984365 518.027344,56.222657 517.910156,56.0664062 C518.261721,55.3632777 518.535155,55.1484361 518.730469,55.421875 C518.88672,55.7343766 519.355465,55.7929697 520.136719,55.5976562 C521.592692,55.4200985 522.951797,55.0004227 524.214068,54.3386179 L524.589844,54.1328125 C525.136721,53.8203109 525.703122,53.5664072 526.289062,53.3710938 C526.914066,53.0976549 527.36328,52.5703164 527.636719,51.7890625 C528.300785,49.9140531 528.671875,48.449224 528.75,47.3945312 C528.75,47.1601551 528.691407,46.769534 528.574219,46.2226562 C528.339843,45.363277 528.222656,44.6406279 528.222656,44.0546851 Z M535.722656,54.953125 C534.199211,54.9921877 532.69532,55.2656225 531.210938,55.7734375 C530.585934,56.0078137 530.156251,56.4570279 529.921875,57.1210938 C529.648436,57.8242223 529.746091,58.3124986 530.214844,58.5859375 C530.683596,58.8383426 531.202267,58.7579073 531.770871,58.3446289 L531.914062,58.234375 C532.424482,57.8333313 533.394264,57.2961835 534.823436,56.6229173 L535.136719,56.4765625 C535.332032,56.3984371 535.527343,56.2617197 535.722656,56.0664062 C536.50391,55.4023404 536.50391,55.0312504 535.722656,54.953125 Z M551.894531,55.421875 L551.308594,55.5390625 C549.941399,55.8125014 548.437508,55.9882809 546.796875,56.0664062 C546.054684,56.0664062 546.113277,56.3789031 546.972656,57.0039062 C547.246095,57.3945332 547.460937,57.7851543 547.617188,58.1757812 C547.695313,58.6054709 548.124996,58.6835951 548.90625,58.4101562 C550.312507,57.7070277 551.328122,57.3359377 551.953125,57.296875 C552.46094,57.3359377 552.773437,57.0039098 552.890625,56.3007812 C552.96875,55.55859 552.636722,55.2656242 551.894531,55.421875 Z M551.706251,61.4312009 L551.191406,61.75 L551.191406,61.75 L547.96875,63.5078125 L547.646483,63.6738287 C547.158201,63.9342458 546.914062,64.1132808 546.914062,64.2109375 C546.914062,64.4453137 547.285153,64.4843758 548.027344,64.328125 C548.652347,64.1718742 549.264843,63.9656258 549.864843,63.7093756 L550.3125,63.5078125 C550.859378,63.2343736 551.445309,63.1171873 552.070312,63.15625 C552.460939,63.2343754 552.65625,62.8632854 552.65625,62.0429688 C552.65625,61.3565032 552.339586,61.1525816 551.706251,61.4312009 Z M551.706251,61.4312009 C551.618799,61.4696731 551.525309,61.5173457 551.425781,61.5742188 L551.770376,61.3824401 C551.783116,61.3763005 551.78734,61.3752173 551.783048,61.3791906 L551.706251,61.4312009 L551.706251,61.4312009 Z M528.867188,61.9257812 C528.476561,61.3398408 528.125002,61.3593719 527.8125,61.984375 L526.816406,64.09375 C526.699218,64.3281262 526.621094,64.5820299 526.582031,64.8554688 C526.42578,65.5195346 526.738277,65.7929693 527.519531,65.6757812 L529.570312,65.2070312 C530.195316,65.0117178 530.27344,64.5234414 529.804688,63.7421875 C529.648437,63.2343725 529.33594,62.6289098 528.867188,61.9257812 Z M552.890625,67.4921875 C552.851562,66.9453098 552.500003,66.8281234 551.835938,67.140625 L548.847656,68.6054688 C548.105465,68.957033 548.124996,69.0937504 548.90625,69.015625 L552.304688,68.4296875 C552.695314,68.3906248 552.890625,68.0781279 552.890625,67.4921875 Z M529.042969,70.0117188 C528.808593,69.3867156 528.378909,69.1132809 527.753906,69.1914062 L526.757812,69.25 C526.132809,69.2109373 525.761719,69.5820273 525.644531,70.3632812 L525.585938,70.890625 C525.507812,71.5546908 525.859371,71.9453119 526.640625,72.0625 C527.265628,72.1015627 527.812498,72.0429695 528.28125,71.8867188 C528.906253,71.6914053 529.199219,71.2031289 529.160156,70.421875 C529.160156,70.3046869 529.121094,70.1679695 529.042969,70.0117188 Z M552.847223,72.2187499 L552.773438,72.2382812 C552.460936,72.3164066 552.421874,72.433593 552.65625,72.5898438 C552.968752,72.7851572 553.125,72.7656262 553.125,72.53125 C553.125,72.2881932 553.032408,72.1840272 552.847223,72.2187499 L552.847223,72.2187499 Z M548.027344,73.4101562 L547.265625,73.46875 L546.975076,73.4145142 C546.582836,73.347688 546.386719,73.3462355 546.386719,73.4101562 C546.464844,73.957034 546.699217,74.5039035 547.089844,75.0507812 C547.714847,75.8320352 548.417965,76.1054699 549.199219,75.8710938 L550.371094,75.5195312 C550.961374,75.3350685 550.924483,74.9067113 550.260417,74.2344479 L550.136719,74.1132812 C549.511716,73.4882781 548.808598,73.2539055 548.027344,73.4101562 Z M526.289062,74.7578125 C525.703122,74.5014636 525.374679,74.7085993 525.303726,75.379226 L525.175781,77.0429688 C525.175781,77.6679719 525.566402,77.9023445 526.347656,77.7460938 L528.28125,77.2773438 C528.906253,77.121093 529.21875,76.7304719 529.21875,76.1054688 C529.21875,75.4414029 528.828129,75.109375 528.046875,75.109375 C527.460935,75.0312496 526.875003,74.9140633 526.289062,74.7578125 Z M526.230469,80.4414062 C525.488278,80.3242182 525.097656,80.6562461 525.058594,81.4375 C525.019531,81.7109389 525,82.0039047 525,82.3164062 C525,82.9414094 525.390621,83.1953131 526.171875,83.078125 L528.105469,82.7265625 C528.691409,82.6093744 529.023437,82.1992223 529.101562,81.4960938 C529.179688,80.7539025 528.828129,80.4023436 528.046875,80.4414062 L526.230469,80.4414062 Z M610.371094,43.9960938 C610.17578,43.1757771 610.488277,42.8437492 611.308594,43 C612.832039,43.1171881 614.160151,44.0742098 615.292969,45.8710938 C615.644533,46.4179715 615.664064,47.2773379 615.351562,48.4492188 C615.234374,48.7226576 615.175781,49.0156234 615.175781,49.328125 C615.058593,49.9921908 615.312497,50.3242188 615.9375,50.3242188 C618.437513,50.2460934 620.332025,51.0078045 621.621094,52.609375 C622.011721,53.11719 622.460935,53.6054664 622.96875,54.0742188 C624.218756,55.0117234 624.394536,56.1445246 623.496094,57.4726562 C623.222655,57.7070324 622.94922,58.0976535 622.675781,58.6445312 C621.816402,61.5742334 620.66407,64.1132705 619.21875,66.2617188 C618.593747,67.0429727 618.476561,67.511718 618.867188,67.6679688 C619.570316,68.0585957 619.882813,68.6054652 619.804688,69.3085938 C619.726562,70.2070357 619.160162,70.8515605 618.105469,71.2421875 C615.527331,71.8281279 613.085949,72.4531217 610.78125,73.1171875 L610.614997,73.1788227 C610.266271,73.3146636 610.419344,73.3136496 611.074219,73.1757812 C612.011723,72.9804678 612.773435,72.7460951 613.359375,72.4726562 C614.609381,71.9648412 616.171866,72.5312418 618.046875,74.171875 C618.750004,74.7578154 619.101562,75.4414023 619.101562,76.2226562 C619.0625,76.7304713 618.769534,77.1796855 618.222656,77.5703125 C617.832029,77.7265633 617.402346,78.0195291 616.933594,78.4492188 C616.425779,78.9179711 616.367186,79.2695301 616.757812,79.5039062 C617.695317,80.1679721 617.949221,80.9882764 617.519531,81.9648438 C617.285155,82.316408 617.285155,82.5898428 617.519531,82.7851562 C618.22266,83.6445355 618.125004,84.5429641 617.226562,85.4804688 C616.640622,86.1835973 615.976566,86.9062463 615.234375,87.6484375 C614.609372,88.2343779 614.648434,88.4492195 615.351562,88.2929688 C616.523443,87.7070283 618.066397,87.7070283 619.980469,88.2929688 C621.425788,89.1132854 622.968742,89.8164033 624.609375,90.4023438 C625.504562,90.8678409 626.120741,91.4646237 626.457926,92.1927075 L626.542969,92.3945312 C626.933596,93.2148479 626.601568,93.9374969 625.546875,94.5625 C625.351562,94.6406254 625.097658,94.6992186 624.785156,94.7382812 C623.496087,94.8164066 621.69923,94.1718818 619.394531,92.8046875 C618.183588,92.1796844 616.835945,91.8867186 615.351562,91.9257812 C610.273412,92.3945336 605.585959,93.1562447 601.289062,94.2109375 L598.945312,95.03125 C598.281247,95.1875008 597.246101,95.0898455 595.839844,94.7382812 C595.214841,94.5429678 594.902344,94.7382783 594.902344,95.3242188 C594.863281,95.9101592 594.628908,96.3007803 594.199219,96.4960938 C593.457028,96.847658 592.460944,96.6132854 591.210938,95.7929688 C588.906238,94.3085863 586.660167,92.062515 584.472656,89.0546875 C584.143065,88.5419896 583.84781,88.5614439 583.586884,89.1130518 L583.535156,89.2304688 C582.324213,92.1601709 580.019548,94.6210838 576.621094,96.6132812 C576.152341,96.9257828 575.722658,97.1015623 575.332031,97.140625 C575.01953,97.1015623 574.999999,96.7890654 575.273438,96.203125 C575.585939,95.5390592 576.074215,94.757817 576.738281,93.859375 C578.02735,92.1406164 579.003903,90.578132 579.667969,89.171875 C581.269539,85.7734205 581.894533,81.0078432 581.542969,74.875 C581.503906,74.1718715 581.328127,73.5078156 581.015625,72.8828125 C580.312496,72.179684 580.234372,71.4960971 580.78125,70.8320312 C580.937501,70.6367178 580.683597,70.3828141 580.019531,70.0703125 L579.736616,69.8664471 C579.261162,69.5155772 579.023438,69.2905654 579.023438,69.1914062 C579.101563,68.8007793 579.589839,68.5468756 580.488281,68.4296875 C582.79298,68.3124994 585.429673,67.6875057 588.398438,66.5546875 C589.062503,66.2812486 589.140628,65.8125033 588.632812,65.1484375 C588.124997,64.4843717 587.480473,64.249999 586.699219,64.4453125 C584.98046,64.9531275 583.515631,65.5390592 582.304688,66.203125 C581.484371,66.7890654 580.703129,67.1015623 579.960938,67.140625 C579.335934,67.0234369 578.710941,66.9453127 578.085938,66.90625 C577.460934,67.0234381 577.109375,67.4531213 577.03125,68.1953125 C576.953125,68.9375037 577.109373,69.4648422 577.5,69.7773438 C577.968752,70.2070334 578.242187,70.6171855 578.320312,71.0078125 C578.390625,71.5000025 578.239455,71.9447253 577.866797,72.3419917 L577.734375,72.4726562 C577.304685,72.9414086 576.46485,73.0585949 575.214844,72.8242188 C574.0039,72.3945291 573.242189,71.1640727 572.929688,69.1328125 C572.812499,68.1171824 573.339838,67.3359402 574.511719,66.7890625 C574.707032,66.6328117 574.921874,66.359377 575.15625,65.96875 C575.390626,65.4999977 575.64453,65.0117213 575.917969,64.5039062 L576.070862,64.2521351 C576.384279,63.764157 576.58165,63.6500988 576.662979,63.9099575 L576.679688,63.9765625 C576.757813,64.3671895 577.187496,64.3281273 577.96875,63.859375 L579.609375,63.15625 C580.195315,62.9218738 580.351564,62.4726596 580.078125,61.8085938 L579.667969,60.9296875 C578.808589,59.9921828 578.554686,58.8203195 578.90625,57.4140625 C578.945313,56.5937459 578.828126,55.4609447 578.554688,54.015625 C578.398437,53.0781203 578.691403,51.6328223 579.433594,49.6796875 C579.746095,49.0156217 580.078123,48.9374975 580.429688,49.4453125 C580.546876,49.6796887 580.99609,49.6992197 581.777344,49.5039062 L582.698963,49.145793 C586.774761,47.5957347 589.885496,46.8752689 592.03125,46.984375 C593.398444,47.1015631 594.511714,47.7460879 595.371094,48.9179688 L596.015625,50.0898438 C596.992192,51.0273484 597.285158,52.0039012 596.894531,53.0195312 C596.425779,53.9179732 596.152344,54.6992154 596.074219,55.3632812 C595.839843,56.7304756 595.507815,58.0976494 595.078125,59.4648438 C594.921874,60.0898469 595.234371,60.499999 596.015625,60.6953125 L596.601562,60.9296875 C597.226566,61.2238066 597.488242,61.0507982 597.386597,60.410657 L597.363281,60.2851562 C596.933592,58.1757707 596.992185,56.5351621 597.539062,55.3632812 C597.734376,54.4257766 598.066404,53.5859412 598.535156,52.84375 C598.886721,52.6874992 599.121093,52.9414029 599.238281,53.6054688 C599.316407,53.957033 599.765621,54.0156262 600.585938,53.78125 C601.132815,53.7031246 601.699216,53.5664072 602.285156,53.3710938 C602.910159,53.1367176 603.164063,52.6289102 603.046875,51.8476562 L602.226562,48.6835938 C602.263021,47.990882 602.571699,46.9579055 603.152604,45.5846367 L603.28125,45.2851562 C603.578126,44.5800746 603.857372,44.6329544 604.118994,45.4437982 L604.511719,46.75 C604.589844,47.1796896 604.765624,47.5703107 605.039062,47.921875 C606.171881,48.9375051 606.777343,49.8945268 606.855469,50.7929688 C606.933594,51.4179719 607.363277,51.6718756 608.144531,51.5546875 C608.613284,51.3984367 609.082029,51.2812504 609.550781,51.203125 C610.131141,51.0943075 610.458885,50.6992021 610.53402,50.0177981 L610.608399,49.0585906 C610.766603,46.7382712 610.687502,45.0507865 610.371094,43.9960938 Z M591.679688,50.5585938 C591.445311,50.2851549 590.937504,50.2460928 590.15625,50.4414062 L589.277344,50.6757812 C588.574215,50.9101574 588.515622,51.3593717 589.101562,52.0234375 C589.257813,52.2578137 589.296875,52.6874969 589.21875,53.3125 C589.101562,53.9375031 589.374997,54.3867174 590.039062,54.6601562 C590.117188,54.7382816 590.214843,54.7773438 590.332031,54.7773438 C591.069882,55.2569468 591.476719,55.1442217 591.552554,54.4391644 L591.5625,54.3085938 C591.679688,52.9804621 591.71875,51.7304746 591.679688,50.5585938 Z M581.074219,51.90625 C581.23047,54.0156355 581.718746,56.0273342 582.539062,57.9414062 C582.812501,58.5664094 583.16406,58.5664094 583.59375,57.9414062 C584.492192,56.4179611 584.999999,54.8750078 585.117188,53.3125 C585.078125,52.6874969 584.843752,52.4335932 584.414062,52.5507812 C583.828122,52.7460947 583.04688,52.6093773 582.070312,52.140625 L581.782225,52.0364579 C581.342771,51.8845477 581.106771,51.8411455 581.074219,51.90625 Z M618.105469,54.71875 C617.753904,54.1718723 616.855476,53.9179686 615.410156,53.9570312 C614.785153,54.0351566 614.414063,54.4062467 614.296875,55.0703125 C614.21875,55.8125037 614.570309,56.1054695 615.351562,55.9492188 C615.937503,55.9101561 616.562497,55.9492182 617.226562,56.0664062 L617.519048,56.1400118 C617.917099,56.2329872 618.132102,56.2475145 618.164062,56.1835938 C618.203125,55.7148414 618.183594,55.226565 618.105469,54.71875 Z M609.023438,55.421875 L608.4375,55.5976562 C607.820867,55.8152913 607.541055,56.2350099 607.598055,56.8568233 L607.617188,57.0039062 C607.695313,57.7070348 608.105465,57.9609385 608.847656,57.765625 C609.589847,57.5312488 610,57.0234414 610.078125,56.2421875 C610.15625,55.4609336 609.804691,55.1874988 609.023438,55.421875 Z M600.585938,56.2421875 C599.960934,56.0078113 599.667969,56.2226529 599.707031,56.8867188 C599.824219,58.3711012 600.21484,59.8359303 600.878906,61.28125 C601.386721,62.5703189 601.972653,63.5859338 602.636719,64.328125 C603.027346,64.8750027 603.378905,65.1093754 603.691406,65.03125 C604.003908,64.9531246 604.121094,64.5429725 604.042969,63.8007812 C604.072266,63.6249991 604.07959,63.449219 604.064942,63.2734378 L604.042969,63.0976562 C604.003906,62.4726531 603.593754,62.1406252 602.8125,62.1015625 L601.582031,61.8085938 C601.42578,61.6914057 601.269532,61.5156262 601.113281,61.28125 C600.644529,60.6171842 600.683591,60.0507836 601.230469,59.5820312 C601.699221,59.3085924 602.265622,59.171875 602.929688,59.171875 C603.515628,59.0546869 603.789063,58.6835969 603.75,58.0585938 C603.671875,57.3554652 603.320316,56.9648441 602.695312,56.8867188 L600.585938,56.2421875 Z M588.515625,58.703125 C587.968747,57.9999965 587.578126,57.843748 587.34375,58.234375 C587.148437,58.5859393 587.324216,59.0546846 587.871094,59.640625 C588.378909,60.1875027 588.984371,60.4218754 589.6875,60.34375 L590.046095,60.2992186 C590.439845,60.2429686 590.496095,60.1992189 590.214844,60.1679688 C589.785154,60.3242195 589.218754,59.8359432 588.515625,58.703125 Z M616.464844,60.34375 L616.113281,60.4609375 C615.488278,60.6171883 614.863284,60.8124988 614.238281,61.046875 C613.652341,61.2421885 613.320313,61.5937475 613.242188,62.1015625 C613.164062,62.5312521 613.515621,62.7656248 614.296875,62.8046875 C614.648439,62.8046875 615.019529,62.8828117 615.410156,63.0390625 C616.074222,63.3906268 616.562498,63.1757852 616.875,62.3945312 L617.34375,61.046875 C617.500001,60.3828092 617.207035,60.1484365 616.464844,60.34375 Z M585.9375,60.6367188 C585.859375,60.4414053 585.58594,60.5195295 585.117188,60.8710938 L584.933904,60.9976082 C584.587746,61.2471225 584.572811,61.3367359 584.889097,61.2664498 L585.058594,61.2226562 C585.72266,61.0664055 586.015625,60.8710949 585.9375,60.6367188 Z M608.982929,62.8220486 L608.847656,62.8046875 C608.417967,62.7265621 608.203125,62.9023416 608.203125,63.3320312 C608.203125,63.7259134 608.383652,63.890029 608.74471,63.8243817 L608.847656,63.8007812 C609.277346,63.7226559 609.492188,63.5468764 609.492188,63.2734375 C609.492188,63.0303807 609.322436,62.8799189 608.982929,62.8220486 L608.982929,62.8220486 Z M593.789062,63.7421875 C593.686523,63.7080076 593.569031,63.7934559 593.436585,63.9985348 L593.378906,64.09375 C593.105467,64.5234396 593.164061,64.5820328 593.554688,64.2695312 C593.867189,63.9960924 593.945313,63.8203129 593.789062,63.7421875 Z M598.359375,67.0234375 C596.83593,66.6328105 595.683598,66.7109348 594.902344,67.2578125 C594.277341,67.4921887 594.08203,67.8046855 594.316406,68.1953125 C594.863284,69.0937545 594.78516,69.8749967 594.082031,70.5390625 C593.535154,71.1640656 593.28125,72.1015563 593.320312,73.3515625 C593.28125,73.9765656 593.65234,73.9570346 594.433594,73.2929688 C594.746095,72.9804672 595.214841,72.7656256 595.839844,72.6484375 C596.648671,72.5749077 597.007665,72.881998 596.916834,73.5697172 L596.894531,73.703125 C596.816406,74.2500027 596.679688,74.6406238 596.484375,74.875 L594.140625,77.8046875 L593.806998,78.2136493 C593.451848,78.6608758 593.28962,78.9151783 593.320312,78.9765625 C593.398438,83.0781455 593.652342,86.9452943 594.082031,90.578125 C594.154948,91.1250027 594.500084,91.3486122 595.117447,91.2489585 L601.054688,90.1679688 C601.718753,90.0507807 601.933595,89.7773459 601.699219,89.3476562 C601.308592,87.9413992 601.660151,86.5156322 602.753906,85.0703125 C603.261721,84.4453094 603.339846,83.9179709 602.988281,83.4882812 C602.519529,83.0976543 602.109377,82.8046885 601.757812,82.609375 C600.898433,81.9453092 600.585936,81.1250049 600.820312,80.1484375 C600.898438,80.0312494 600.839845,79.5820352 600.644531,78.8007812 C600.410155,78.0195273 600.351562,77.3359404 600.46875,76.75 L600.651795,75.8609225 C600.806754,75.1326168 600.941051,74.5696043 601.054688,74.171875 C601.328126,73.5468719 601.074223,73.1562508 600.292969,73 C599.511715,72.8046865 598.339852,72.1406307 596.777344,71.0078125 C596.230466,70.3437467 596.074218,69.9531256 596.308594,69.8359375 C597.246098,69.7187494 598.359369,69.8164047 599.648438,70.1289062 C600.898444,70.3242197 602.460928,70.1875023 604.335938,69.71875 L612.070312,68.0195312 C612.695316,67.8632805 612.871095,67.6289078 612.597656,67.3164062 C612.324217,67.0039047 611.796879,66.9257805 611.015625,67.0820312 C608.867177,67.5898463 606.953133,67.8828121 605.273438,67.9609375 C604.72656,68.0000002 604.433594,68.2148418 604.394531,68.6054688 C604.160155,69.3867227 603.632817,69.8359369 602.8125,69.953125 C601.914058,69.9921877 601.113285,69.6406287 600.410156,68.8984375 C600.17578,68.5859359 600.000001,68.2734391 599.882812,67.9609375 C599.570311,67.257809 599.062504,66.9453121 598.359375,67.0234375 Z M588.632812,70.1875 L588.164062,70.3632812 L586.230469,70.890625 C585.617485,71.0348565 585.353988,71.179086 585.439973,71.3233172 L585.46875,71.359375 C585.859377,71.7890646 585.957032,72.2187479 585.761719,72.6484375 C585.722656,73.1953134 586.035153,73.3320326 586.699219,73.0585938 C586.972658,72.902343 587.265623,72.7851566 587.578125,72.7070312 C588.203128,72.355467 588.671873,72.2187496 588.984375,72.296875 C589.335939,72.296875 589.53125,71.925785 589.570312,71.1835938 C589.609375,71.0664057 589.628906,70.9687504 589.628906,70.890625 C589.667969,70.1874965 589.335941,69.9531238 588.632812,70.1875 Z M605.273438,73.0585938 L604.804688,73.1171875 L603.046875,73.1757812 C602.463539,73.2122398 602.254512,73.4868898 602.419791,73.9997391 L602.460938,74.1132812 C602.656251,74.7382844 603.124996,74.9921881 603.867188,74.875 L606.328125,74.2890625 L606.609702,74.2320962 C607.027455,74.1398652 607.1875,74.0611982 607.089844,73.9960938 C606.738279,73.7617176 606.542969,73.5078139 606.503906,73.234375 C606.503906,73.0390615 606.093754,72.9804684 605.273438,73.0585938 Z M587.988281,77.1015625 L587.402344,77.5703125 L586.523438,78.0976562 C585.820309,78.2929697 585.449219,78.742184 585.410156,79.4453125 L585.351562,79.9726562 C585.3125,80.5976594 585.68359,80.6757836 586.464844,80.2070312 C587.12891,79.7382789 587.773434,79.2500025 588.398438,78.7421875 C589.023441,78.1953098 589.335938,77.6289092 589.335938,77.0429688 C589.335938,76.3789029 588.886723,76.398434 587.988281,77.1015625 Z M604.042969,77.3945312 C603.417966,77.042967 603.222655,77.1992154 603.457031,77.8632812 C603.847658,78.7226605 604.374997,79.4843717 605.039062,80.1484375 C605.664066,80.6562525 606.367184,80.7929699 607.148438,80.5585938 L609.433594,79.9140625 C609.628907,79.9140625 609.824218,79.8359383 610.019531,79.6796875 C610.605472,79.1718725 611.191403,78.6250029 611.777344,78.0390625 C612.480472,77.2578086 612.500003,76.9062496 611.835938,76.984375 C610.351555,77.2578139 608.886726,77.5507797 607.441406,77.8632812 C606.425776,78.0976574 605.292975,77.941409 604.042969,77.3945312 Z M588.164062,83.6640625 L587.578125,84.0742188 C586.953122,84.3867203 586.308597,84.6601551 585.644531,84.8945312 C585.058591,84.9335939 584.726563,85.1679666 584.648438,85.5976562 C584.570312,86.0273459 584.843747,86.437498 585.46875,86.828125 C586.601568,87.6875043 587.773431,88.5078086 588.984375,89.2890625 C589.648441,89.7187521 589.941407,89.5429727 589.863281,88.7617188 C589.70703,87.0429602 589.589844,85.3242273 589.511719,83.6054688 C589.511719,82.9023402 589.062504,82.9218713 588.164062,83.6640625 Z M610.722656,83.3710938 C610.410155,83.3710938 610.117189,83.3906248 609.84375,83.4296875 L609.638073,83.4488202 C609.284117,83.4918686 609.274552,83.5636156 609.609375,83.6640625 C610.307908,83.9581816 610.487405,84.4945087 610.14787,85.2730584 L610.078125,85.421875 C610,85.6171885 609.863282,85.792968 609.667969,85.9492188 C608.691401,86.7304727 607.714849,87.550777 606.738281,88.4101562 C605.957027,89.1132848 605.917965,89.4062506 606.621094,89.2890625 L608.085938,89.1132812 C608.593753,89.0742186 609.003905,88.8984391 609.316406,88.5859375 C610.371099,87.5703074 611.249996,86.5742236 611.953125,85.5976562 C612.343751,84.9726531 612.441407,84.4257836 612.246094,83.9570312 C611.894529,83.4882789 611.386722,83.2929684 610.722656,83.3710938 Z M608.085938,83.6640625 C608.281251,83.6249998 608.242189,83.683593 607.96875,83.8398438 C607.729491,83.9423833 607.609863,83.9552008 607.609863,83.8782961 L607.617188,83.8398438 C607.617188,83.7226557 607.773436,83.6640625 608.085938,83.6640625 Z" id="" fill="#000000" fill-rule="nonzero"></path>
    </g>
</svg>