<svg xmlns="http://www.w3.org/2000/svg" viewBox="0 0 900 140" width="900" height="140">
	<style>
		tspan { white-space:pre }
		.shp0 { fill: #000000 } 
	</style>
	<path id="优设标题黑 " class="shp0" d="M338,48.52h12.42l-3.06,9.78h16.08l-0.78,5.88h-17.1l-8.34,27.18h-11.22l9.24,-27.18h-4.32l0.78,-5.88h5.52l2.58,-7.56zM330.74,48.46l-1.02,7.26l-4.98,35.76h-10.98l4.68,-33.78l-3.66,0.6l1.02,-7.26zM361.04,83.5l-1.08,7.86h-17.1l3.6,-25.44h10.38l-2.82,19.86h4.44zM362.72,56.32h-8.52l-0.84,-6.72h8.58zM380,91.54l12.54,-8.22l-7.68,-6.54l0.42,-2.88h9.72l5.1,4.5l6.06,-3.96l0.24,-1.74h-20.94l0.78,-5.58h30.36l-1.5,10.86l-9.06,5.58l9.24,7.98h-13.08l-3.84,-3.24l-5.34,3.24zM417.68,65.56h-12.12l1.44,-10.44h-8.22l-2.22,10.44h-9.96l2.94,-13.92l-1.86,-2.16h29.46l-1.38,10.08h1.08l1.98,-2.28zM383.6,86.92l-14.82,3.54l3.54,-25.02h-3.54l0.78,-5.7h13.56l-3.12,22.44l4.44,-1.2zM372.62,49.48h9.18l1.74,7.98h-9.18zM427.88,91.54l4.26,-30.18h-6.12l0.84,-5.7h6.06l0.78,-5.46l-1.44,-1.74h10.5l-1.02,7.2h6l-0.84,5.7h-6l-4.26,30.18zM457.58,91.54h-8.58l3.78,-3.78l2.82,-20.04h-9.06l0.84,-5.94h28.26l-0.84,5.94h-10.32l-2.82,20.22c-0.16,1.04 -0.64,1.9 -1.44,2.58c-0.76,0.68 -1.64,1.02 -2.64,1.02zM450.62,49.6h24.66l-0.84,6h-24.66zM465.5,71.14h6.72l-0.42,19.26h-6.36zM447.32,71.14h6.36l-4.92,19.26h-6.36zM426.32,89.38h-4.02l4.86,-26.94h4.02zM443.18,85.96h-4.02l2.28,-23.52h3.96zM489.68,75.76l-0.96,3.36h0.12l1.38,1.86l0.9,-6.42h-10.98l0.84,-5.7h22.8l-0.84,5.7h-3.3l-0.3,2.34h4.5l-0.78,5.64h-4.5l-0.36,2.28h29.52l-0.78,5.7h-37.62l-2.88,-3.78l-1.08,3.72h-8.58l3.84,-12.78l-1.14,-1.92zM507.62,49.48h23.94l-0.78,5.7h-6.6l-1.14,2.88h6.66l-2.46,17.64h-5.04l-1.02,-1.14l1.68,-11.94h-10.26l-1.68,11.94l-1.26,1.14h-5.1l2.46,-17.64h5.76l1.14,-2.88h-7.08zM483.5,67.18l2.16,-15.42l-1.98,-2.28h22.8l-2.46,17.7zM513.5,64.3h7.98l-1.44,10.26l6.72,9.12h-9.12l-2.58,-4.2l-4.26,4.2h-7.98l9.24,-9.12zM492.62,62.56h3.48l0.3,-2.28h-3.48zM493.82,54.04l-0.36,2.28h3.48l0.36,-2.28zM538.94,69.64h16.14l0.3,-1.98h-17.34l2.16,-15.66l-1.8,-2.46h47.76l-2.52,18.12h-16.32l-0.3,1.98h15.12l-0.78,5.58h-15.12l-0.3,2.04h18.6l-0.78,5.58h-50.04l0.78,-5.58h19.5l0.3,-2.04h-16.14zM542.48,91.48h-9.9l4.5,-7.44h9.66zM582.38,91.42h-9.78l-1.26,-7.38h9.54zM557.84,91.42h-9.6l-0.42,-7.38h9.36zM570.08,91.42h-9.6l-0.9,-7.38h9.3zM548.6,62.56h8.64l0.24,-1.5h-6.96l-1.14,-4.5zM549.68,54.58l-0.18,1.14h7.14l1.02,4.02l0.72,-5.16zM566.9,62.56h7.68l0.54,-4.14l-1.5,2.64h-6.48zM569.78,55.72h5.7l0.18,-1.14h-7.62l-0.78,5.52z" />
</svg>