<?xml version="1.0" encoding="UTF-8"?>
<svg width="900px" height="140px" viewBox="0 0 900 140" version="1.1" xmlns="http://www.w3.org/2000/svg" xmlns:xlink="http://www.w3.org/1999/xlink">
    <!-- Generator: Sketch 59.1 (86144) - https://sketch.com -->
    <title>preview</title>
    <desc>Created with Sketch.</desc>
    <g id="preview" stroke="none" stroke-width="1" fill="none" fill-rule="evenodd">
        <path d="M366.621094,100.511719 C366.730469,100.657553 367.214145,100.616234 368.072135,100.387761 L368.261719,100.335938 C369.238286,100.062499 369.941404,99.7695328 370.371094,99.4570312 C371.074222,98.9882789 371.503905,98.5195336 371.660156,98.0507812 L371.699335,97.912331 C371.94856,96.8927782 372.091749,93.54052 372.128906,87.8554688 L372.130857,84.241981 C372.149718,80.7562997 372.305316,78.757689 372.597656,78.2460938 C372.832032,77.8164041 373.496088,77.6210936 374.589844,77.6601562 L375.761719,77.6601562 C377.324227,77.6601562 378.310545,77.748046 378.720703,77.9238281 C379.130861,78.0996103 379.375,78.5976521 379.453125,79.4179688 C379.492188,80.16016 380.214837,80.2578152 381.621094,79.7109375 C382.519536,79.3593732 383.017578,79.0175798 383.115234,78.6855469 C383.212891,78.353514 383.222657,77.113292 383.144531,74.9648438 L383.067912,72.9929869 C382.903555,68.4398796 382.890032,65.4253151 383.027344,63.9492188 C383.174914,62.3628393 383.5838,61.3513825 384.254014,60.9148223 L384.375,60.84375 C385.000003,60.4921857 385.244141,60.1308612 385.107422,59.7597656 C384.979817,59.4134097 384.469405,58.8543872 383.576173,58.082683 L383.378906,57.9140625 C382.363276,57.0546832 381.689455,56.5761724 381.357422,56.4785156 C381.025389,56.3808589 380.683596,56.5273418 380.332031,56.9179688 C379.566402,57.8658902 379.021963,58.4224828 378.698698,58.5877604 L378.632812,58.6171875 C378.274738,58.7962249 377.030446,58.8932022 374.899905,58.9081218 L373.405002,58.9081787 C371.828679,58.9007081 370.866213,58.8720706 370.517578,58.8222656 C370.10742,58.7636716 369.843751,58.5976576 369.726562,58.3242188 C369.531249,57.8945291 369.765622,57.0839903 370.429688,55.8925781 C371.049482,54.7805934 371.601213,54.0854603 372.084895,53.8071616 L372.1875,53.7539062 C372.851566,53.4414047 372.910159,53.1679699 372.363281,52.9335938 C372.089842,52.8164057 372.011718,52.6210951 372.128906,52.3476562 C372.285157,52.0742174 372.705075,51.9082034 373.388672,51.8496094 L373.779297,51.8242106 C374.495441,51.7870771 375.797517,51.7542841 377.685541,51.7258311 L380.866477,51.6860943 C384.331426,51.6354077 386.184512,51.5238979 386.425781,51.3515625 C386.503907,51.2734371 386.542969,51.0976576 386.542969,50.8242188 C386.542969,50.2492159 385.617228,49.2444127 383.765721,47.8097829 L383.261719,47.4257812 C382.519528,46.8398408 382.021486,46.5761716 381.767578,46.6347656 C381.513671,46.6933597 381.054691,47.1718705 380.390625,48.0703125 C379.765622,49.0468799 379.238283,49.6523426 378.808594,49.8867188 C377.982027,50.2820332 374.246001,50.3715172 367.600414,50.1551722 L364.865717,50.0553861 C357.672573,49.7659631 353.570238,49.3777129 352.558594,48.890625 L352.138308,48.6837375 C351.077348,48.1706184 350.494792,47.9661453 350.390625,48.0703125 C350.322916,48.1380212 350.313889,48.6018188 350.363542,49.4617171 L350.422513,50.338197 C350.498247,51.6469228 350.544085,54.3058779 350.560029,58.3151056 L350.566406,61.8105469 C350.566406,68.2701828 350.510636,72.3037372 350.399095,73.9113235 L350.390625,74.0273438 C349.726559,83.7930176 347.753923,91.7030947 344.472656,97.7578125 L344.27072,98.1495204 C343.812511,99.0740475 343.704043,99.588005 343.945312,99.6914062 C344.164064,99.8372403 344.552949,99.5747431 345.111979,98.9039069 L345.234375,98.7539062 C349.843773,93.2851289 352.636714,85.7266107 353.613281,76.078125 L353.678153,75.3621427 C353.950197,72.1675801 354.104352,67.7773717 354.140625,62.1914062 L354.140625,58.6171875 L354.135609,57.9107152 C354.12683,54.8256484 354.304282,53.0103745 354.667969,52.4648438 C355.058596,51.8789033 356.406238,51.6054686 358.710938,51.6445312 L359.691469,51.6802369 C360.195008,51.6954957 360.629881,51.703125 360.996094,51.703125 L362.378357,51.7074971 C365.105018,51.7317864 366.695031,51.8572812 367.148438,52.0839844 C367.656253,52.3378919 367.812501,53.1874928 367.617188,54.6328125 C367.578125,54.7500006 367.558594,54.8476559 367.558594,54.9257812 L367.476269,55.4985375 C367.228417,57.1420976 366.972658,58.1132798 366.708984,58.4121094 C366.416014,58.7441423 365.527351,58.9101562 364.042969,58.9101562 L363.506671,58.9069011 C362.663028,58.8960505 362.070314,58.8580732 361.728516,58.7929688 C361.349908,58.720853 360.663431,58.465678 359.669068,58.0274367 L359.01019,57.7352393 C358.059305,57.3236623 357.549403,57.1781933 357.480469,57.2988281 C357.412534,57.4177146 357.447977,58.3267027 357.586801,60.0258156 L357.687922,61.2092178 C357.76557,62.2629516 357.817993,64.2348502 357.845192,67.124946 L357.861328,69.5742188 C357.880859,74.2617422 357.851563,77.1914004 357.773438,78.3632812 L357.746532,78.8063234 C357.705875,79.6409874 357.74414,80.1671306 357.861328,80.3847656 C357.998048,80.6386731 358.398434,80.7460939 359.0625,80.7070312 C359.765629,80.6679686 360.341795,80.5214856 360.791016,80.2675781 C361.240237,80.0136706 361.464844,79.7109393 361.464844,79.359375 C361.464844,78.6562465 361.689451,78.1972667 362.138672,77.9824219 C362.557945,77.7819 363.411062,77.6749565 364.698046,77.6615885 L365.917969,77.6601562 C367.08985,77.6210936 367.792968,77.777342 368.027344,78.1289062 C368.339845,78.675784 368.476563,80.6679516 368.4375,84.1054688 L368.435271,89.6986321 C368.415205,92.8852803 368.2597,94.7513443 367.96875,95.296875 C367.671129,95.8549135 366.629473,96.0763544 364.843751,95.9612034 L364.570312,95.9414062 C364.062497,95.9023436 363.671876,95.8632814 363.398438,95.8242188 L362.142185,95.7539061 C361.635936,95.7304686 361.312501,95.7246093 361.171875,95.7363281 C360.937499,95.7558595 360.820312,95.8632803 360.820312,96.0585938 C360.820312,96.3320326 361.269527,96.5468742 362.167969,96.703125 C363.417975,96.8984385 364.453121,97.3281217 365.273438,97.9921875 C366.030653,98.6051713 366.438379,99.2680722 366.496625,99.9809072 L366.503906,100.160156 C366.503906,100.316407 366.542968,100.433593 366.621094,100.511719 Z M378.457031,75.7851562 L378.382125,75.8031727 C377.942051,75.8849771 376.234785,75.9349682 373.260295,75.9531467 L369.627388,75.9604506 C365.106723,75.9546075 362.698398,75.8961765 362.402344,75.7851562 C361.855466,75.5507801 361.523438,74.5546963 361.40625,72.796875 C361.289062,71.0390537 361.484372,69.9257836 361.992188,69.4570312 C362.220847,69.2283716 364.91267,69.1112549 370.067736,69.1056779 L372.667918,69.1129977 C376.639767,69.1422769 378.725704,69.256954 378.925781,69.4570312 C379.433596,69.9257836 379.619141,71.0390537 379.482422,72.796875 C379.345702,74.5546963 379.003909,75.5507801 378.457031,75.7851562 Z M378.925781,67.0546875 C378.800018,67.1804503 377.02307,67.2872325 373.594893,67.3750359 L369.641614,67.4561761 C365.139933,67.5310656 362.726865,67.5144236 362.402344,67.40625 C361.660153,67.1328111 361.298828,66.0586031 361.318359,64.1835938 C361.337891,62.3085844 361.699215,61.1953143 362.402344,60.84375 C362.68195,60.7039467 364.853469,60.6266879 368.916956,60.6119719 L371.942419,60.6119719 C376.005906,60.6266879 378.177425,60.7039467 378.457031,60.84375 C379.003909,61.1171889 379.345702,62.1035071 379.482422,63.8027344 C379.619141,65.5019616 379.433596,66.5859352 378.925781,67.0546875 Z M338.613281,99.984375 C340.058601,100.687504 341.093747,100.06251 341.71875,98.109375 C342.343753,96.1171775 342.324222,93.5390783 341.660156,90.375 L341.619873,90.1094969 C341.577149,89.8623049 341.511536,89.5502642 341.423035,89.1733712 L341.074219,87.7382812 L341.074219,87.7382812 C340.722654,86.0585854 340.771482,84.3007904 341.220703,82.4648438 L341.356812,81.9419747 C341.876526,80.0350326 343.15051,76.1038135 345.178791,70.1482387 L348.600262,60.1145791 C348.816941,59.4682141 348.969916,59.0044165 349.059187,58.7231843 L349.101562,58.5878906 C349.335939,57.8261681 349.316408,57.4062504 349.042969,57.328125 C348.834634,57.2586802 348.641735,57.3744197 348.464265,57.6753467 L348.250901,58.0737833 C347.646134,59.263157 346.113294,62.7645769 343.652344,68.578125 L343.337402,69.2849129 C343.000488,70.0539546 342.597659,71.0097599 342.128906,72.1523438 L341.129043,74.4840298 C339.028966,79.3443344 337.741171,82.0631765 337.265625,82.640625 C336.914061,83.0703146 336.386722,83.2851562 335.683594,83.2851562 L335.214844,83.2851562 L334.710285,83.3242188 C334.428167,83.3502604 334.254558,83.376302 334.189453,83.4023438 C334.091796,83.4414064 334.023438,83.5781238 333.984375,83.8125 C333.984375,84.1250016 334.033203,84.3105466 334.130859,84.3691406 C334.228516,84.4277347 334.589841,84.5156244 335.214844,84.6328125 C336.425787,84.8671887 337.187498,85.7167896 337.5,87.1816406 L337.559636,87.4958343 C337.824567,89.0611146 337.902344,92.0129991 337.792969,96.3515625 C337.753906,98.460948 338.027341,99.6718734 338.613281,99.984375 Z M351.796875,96.703125 C351.953126,96.9375012 352.607416,96.6445354 353.759766,95.8242188 C354.912115,95.0039021 356.220696,93.8808665 357.685547,92.4550781 C359.003913,91.1718686 360.124509,89.9598671 361.047362,88.8190443 L361.713619,87.9819584 C362.955723,86.4421223 363.790759,85.6187166 364.21875,85.5117188 C365.425653,85.3231402 365.285197,84.8614548 363.797377,84.1266493 L363.632812,84.046875 C362.812496,83.656248 362.050785,83.2460959 361.347656,82.8164062 L361.033709,82.6268802 C360.696131,82.4277094 360.458985,82.3053388 360.322266,82.2597656 C360.146483,82.2011716 360.009766,82.2011716 359.912109,82.2597656 C359.814453,82.3183597 359.726563,82.4843736 359.648438,82.7578125 C359.140622,84.6328219 358.193366,86.7617068 356.806641,89.1445312 C355.419915,91.5273557 353.906258,93.6171785 352.265625,95.4140625 C351.874998,95.8046895 351.660156,96.0683587 351.621094,96.2050781 C351.582031,96.3417976 351.640624,96.5078115 351.796875,96.703125 Z M383.789062,95.765625 C385.273445,96.5078162 386.171873,96.2148504 386.484375,94.8867188 C386.796877,93.4023363 386.250007,91.6445414 384.84375,89.6132812 C384.453123,89.0273408 384.003909,88.4804713 383.496094,87.9726562 C381.69921,86.1757723 379.707042,84.8085984 377.519531,83.8710938 C376.526879,83.46668 376.035966,83.4255901 376.04678,83.7478235 L376.054688,83.8125 C376.054688,83.9882821 376.244529,84.2906231 376.624218,84.7195307 L376.757812,84.8671875 C379.510802,87.8805954 381.448852,90.8408146 382.572013,93.7479254 L382.865625,94.5281261 C383.028126,94.9468768 383.140625,95.2031245 383.203125,95.296875 C383.28125,95.4140631 383.476561,95.5703115 383.789062,95.765625 Z M339.550781,67.40625 C340.058596,67.6796889 340.5957,67.6796889 341.162109,67.40625 C341.728518,67.1328111 342.089843,66.722659 342.246094,66.1757812 C342.597658,64.925775 342.138678,63.7148496 340.869141,62.5429688 C339.599603,61.3710879 337.832043,60.5117215 335.566406,59.9648438 L335.149558,59.8780678 C334.168261,59.6854578 333.643153,59.6753208 333.574219,59.8476562 C333.535156,60.0429697 333.867184,60.4335908 334.570312,61.0195312 C336.484385,62.6601645 337.851558,64.3984283 338.671875,66.234375 C338.984377,66.8984408 339.277342,67.2890619 339.550781,67.40625 Z M344.472656,54.5742188 C345.175785,55.0039084 345.830075,55.0039084 346.435547,54.5742188 C347.041019,54.1445291 347.324219,53.5000043 347.285156,52.640625 C347.207031,51.3515561 346.474616,50.1406307 345.087891,49.0078125 C343.793613,47.9505155 342.116545,47.1654529 340.056643,46.6526045 L339.609375,46.546875 C339.140623,46.4296869 338.779298,46.3613282 338.525391,46.3417969 C338.271483,46.3222655 338.125,46.3613276 338.085938,46.4589844 C338.046875,46.5566411 338.105468,46.7128896 338.261719,46.9277344 C338.395648,47.1118871 338.615672,47.3462601 338.921795,47.6308589 L339.082031,47.7773438 C341.191417,49.6914158 342.675777,51.546866 343.535156,53.34375 C343.886721,54.0078158 344.199217,54.417968 344.472656,54.5742188 Z M439.888509,100.261068 L439.921875,100.277344 C441.44532,100.980472 442.246093,100.707037 442.324219,99.4570312 C442.441407,98.0507742 441.718758,96.4296967 440.15625,94.59375 C439.531247,93.8515588 438.84766,93.207034 438.105469,92.6601562 C436.530754,91.5248967 434.432499,90.415402 431.810648,89.331643 L431.279297,89.1152344 C428.408189,87.9628849 426.85547,87.6210914 426.621094,88.0898438 C426.542968,88.2070318 426.562499,88.3144526 426.679688,88.4121094 L426.836583,88.5290546 C427.030281,88.6659343 427.368606,88.8906234 427.851562,89.203125 L428.433076,89.5776058 C431.053225,91.2862926 432.363281,92.4505177 432.363281,93.0703125 C432.363281,93.3828141 432.187502,93.5781246 431.835938,93.65625 L431.729297,93.6741212 C430.935156,93.7891606 427.884792,93.9394522 422.578125,94.125 L419.686861,94.2170724 C414.838078,94.3566716 412.068579,94.3496564 411.378301,94.196027 L411.328125,94.1835938 C410.703122,94.027343 410.683591,93.5781287 411.269531,92.8359375 L411.304948,92.7838542 C411.424565,92.6258688 411.822913,92.1744829 412.5,91.4296875 L413.109377,90.7242168 C413.792971,89.9257788 414.380858,89.2134786 414.873046,88.5873056 L415.921147,87.2413472 C416.218508,86.853426 416.367188,86.6479781 416.367188,86.625 C416.953128,86.117185 418.574205,85.8437502 421.230469,85.8046875 L434.980735,85.8000707 C441.706189,85.7812189 445.169612,85.7046333 445.371094,85.5703125 C445.60547,85.4140617 445.742187,85.2382822 445.78125,85.0429688 C445.820313,84.8476553 445.751954,84.6035171 445.576172,84.3105469 C445.40039,84.0175767 445.117189,83.6855487 444.726562,83.3144531 C444.335936,82.9433575 443.808597,82.5234398 443.144531,82.0546875 L442.787238,81.7932281 C442.051472,81.2696154 441.565105,81.0247394 441.328125,81.0585938 C441.054686,81.0976564 440.56641,81.5468707 439.863281,82.40625 C439.769531,82.5000005 439.663282,82.6312494 439.544531,82.7999996 L439.453125,82.9335938 C439.179686,83.3632834 438.857424,83.6464837 438.486328,83.7832031 C438.168246,83.9003912 437.204448,83.9817044 435.594909,84.0271444 L434.132714,84.0570442 C432.043996,84.0893274 429.188583,84.1054688 425.566406,84.1054688 L421.054685,84.0615234 C420.043945,84.0541992 419.121097,84.0496216 418.286135,84.0477905 L402.892178,84.0101405 C399.215989,83.9848855 396.920159,83.9466082 396.004664,83.8953086 L395.298052,83.8412767 C394.644621,83.7980534 394.284856,83.817758 394.21875,83.9003906 C394.140625,83.9980474 394.296873,84.417965 394.6875,85.1601562 L394.859468,85.5124135 C395.159487,86.1099095 395.3756,86.4417064 395.507812,86.5078125 C395.664063,86.5859379 396.230464,86.5468758 397.207031,86.390625 C399.242403,86.0945709 401.961387,85.9212258 405.364058,85.8705852 L405.9375,85.8632812 C409.179704,85.8242186 410.986326,85.9609359 411.357422,86.2734375 C411.713055,86.5729182 411.413969,87.6257643 410.460155,89.4320057 L410.332031,89.671875 C409.121088,91.8984486 408.320314,93.2070293 407.929688,93.5976562 C407.187496,94.3007848 405.683605,94.6914059 403.417969,94.7695312 L403.04226,94.7881395 C402.420806,94.8105876 401.317315,94.8235837 399.731772,94.8271281 L398.789062,94.828125 C397.890621,94.828125 397.421875,94.9160147 397.382812,95.0917969 C397.34375,95.267579 397.695309,96.0390557 398.4375,97.40625 L398.662263,97.8360918 C399.164278,98.7824446 399.509276,99.3325188 399.697266,99.4863281 C399.91211,99.6621103 400.195311,99.5742205 400.546875,99.2226562 C400.937502,98.871092 401.435544,98.6367193 402.041016,98.5195312 L402.342641,98.4683221 C403.093261,98.3533137 404.564975,98.1946033 406.757812,97.9921875 L409.845252,97.7085397 C415.425062,97.1829712 421.490364,96.5437708 428.041253,95.7909284 L431.777344,95.3554688 C433.691416,95.1210926 435.029293,95.2089823 435.791016,95.6191406 C436.552738,96.0292989 437.617181,97.2304588 438.984375,99.2226562 L439.328614,99.6621107 C439.602052,100.000653 439.788683,100.200304 439.888509,100.261068 L439.888509,100.261068 Z M401.425781,79.359375 C401.534599,79.3956475 402.030747,79.3477167 402.914241,79.2155813 L403.125,79.1835938 C404.564739,78.9492176 406.01881,78.8009405 407.487243,78.7387596 L408.576123,78.7078886 C410.575813,78.6734627 415.536073,78.65625 423.457031,78.65625 L434.991325,78.5850184 C436.612841,78.5696998 437.680183,78.5543812 438.193359,78.5390625 C439.50196,78.4999998 440.234374,78.3242203 440.390625,78.0117188 C440.664064,77.5039037 439.785166,76.4687578 437.753906,74.90625 C436.894527,74.2812469 436.337892,73.9785155 436.083984,73.9980469 C435.830077,74.0175782 435.371097,74.4374959 434.707031,75.2578125 L434.594531,75.4171875 C434.550781,75.4765623 434.500782,75.5421871 434.444532,75.6140622 L434.355469,75.7265625 C433.925779,76.3125029 433.261723,76.6542964 432.363281,76.7519531 L432.061672,76.7781316 C430.932179,76.8583359 428.278829,76.8984375 424.101562,76.8984375 L415.76726,76.893327 C407.956686,76.8709382 403.000453,76.7749861 400.898438,76.6054688 C400.35156,76.5664061 400.078125,76.6054682 400.078125,76.7226562 C400.078125,76.8528652 400.220539,77.1933027 400.50537,77.7439766 L400.870875,78.4269035 C401.174708,78.9824476 401.359675,79.2932689 401.425781,79.359375 Z M418.359375,74.4960938 C418.86719,74.5742191 419.550777,74.4765639 420.410156,74.203125 C421.197921,73.9524727 421.690267,73.6854123 421.887207,73.4019372 L421.933594,73.3242188 C422.050782,73.167968 422.050782,72.2109463 421.933594,70.453125 L421.857661,68.5823035 C421.72134,65.0164473 421.678292,62.5053086 421.728516,61.0488281 C421.78711,59.3496009 422.011717,58.3828137 422.402344,58.1484375 C422.707033,57.9199207 425.406823,57.8120909 430.501793,57.8249451 L433.417455,57.8438615 C437.136372,57.8849455 439.109183,57.9864702 439.335938,58.1484375 C439.899342,58.6742815 439.70432,60.0849382 438.750867,62.3804478 L438.632812,62.6601562 C438.046872,63.9882879 438.027341,64.6132816 438.574219,64.5351562 C439.394535,64.3789055 440.820302,63.0312627 442.851562,60.4921875 C443.906255,59.2031186 444.746091,58.5000006 445.371094,58.3828125 C445.761721,58.3046871 446.02539,58.2070318 446.162109,58.0898438 C446.298829,57.9726557 446.337891,57.7968762 446.279297,57.5625 C446.229073,57.3616061 446.099929,57.1033175 445.891861,56.7876281 L445.78125,56.625 C444.609369,54.8671787 443.535161,53.7929707 442.558594,53.4023438 C442.089841,53.2070303 441.855469,53.3242166 441.855469,53.7539062 C441.855469,53.826022 441.605841,54.1144807 441.106579,54.6192903 L440.676329,55.0463595 C440.255034,55.4560323 439.964489,55.7088063 439.804688,55.8046875 C439.45217,55.980946 437.039829,56.069719 432.567599,56.0710085 L429.52336,56.0601332 C425.058008,56.0270313 422.684357,55.9223523 422.402344,55.7460938 C421.972654,55.4726549 421.728516,54.7304748 421.669922,53.5195312 C421.611328,52.3085877 421.796873,51.5078145 422.226562,51.1171875 C422.368609,50.9751413 422.768915,50.8895919 423.427491,50.8605372 L425.447223,50.8258867 L425.447223,50.8258867 L437.417,50.7070312 C438.813481,50.6875 439.707029,50.6679688 440.097656,50.6484375 C440.87891,50.6093748 441.367187,50.4335953 441.5625,50.1210938 C441.914064,49.574216 441.015636,48.480477 438.867188,46.8398438 L438.494269,46.5632801 C437.724649,46.0080701 437.204428,45.7389322 436.933594,45.7558594 C436.645131,45.7738883 436.256821,46.0997911 435.768653,46.7335768 L435.644531,46.8984375 C434.824215,47.992193 434.140628,48.6562488 433.59375,48.890625 L433.532687,48.9090995 C432.905787,49.056489 429.137573,49.1184817 422.227961,49.0950784 L415.53017,49.0540344 C405.991474,48.9742259 400.684592,48.8416323 399.609375,48.65625 C399.257811,48.5781246 399.082031,48.6367178 399.082031,48.8320312 C399.082031,49.009589 399.227304,49.3808407 399.517852,49.945796 L399.609375,50.1210938 C400.000002,50.863285 400.312499,51.2734371 400.546875,51.3515625 C400.781251,51.4296879 401.562493,51.3710947 402.890625,51.1757812 C404.919715,50.9175334 407.602072,50.7725272 410.937769,50.7407588 L411.533203,50.7363281 C415.146502,50.7167968 417.109373,50.8437486 417.421875,51.1171875 C417.851565,51.5078145 418.03711,52.3085877 417.978516,53.5195312 C417.919922,54.7304748 417.675783,55.4726549 417.246094,55.7460938 C417.070312,55.8867195 416.69678,55.9719727 416.125489,56.0018555 L415.570443,56.0170573 C415.019011,56.0255209 414.074518,56.031543 412.736954,56.0351237 L407.991644,56.0372365 C403.616438,56.0230346 401.212996,55.9259877 400.78125,55.7460938 C400.546874,55.6289057 400.351563,55.2773467 400.195312,54.6914062 C400.039062,53.9882777 399.82422,53.6367188 399.550781,53.6367188 C399.222655,53.6367188 399.047656,54.045048 399.025781,54.8617179 L399.023438,55.0429688 C399.023438,57.699232 397.871105,59.9257723 395.566406,61.7226562 C394.511713,62.5039102 393.916016,63.2851523 393.779297,64.0664062 C393.642577,64.8476602 394.003902,65.4140607 394.863281,65.765625 C396.074225,66.3125027 397.265619,66.0097714 398.4375,64.8574219 C399.609381,63.7050724 400.33203,62.1328225 400.605469,60.140625 C400.605469,60.0234369 400.625,59.8671885 400.664062,59.671875 C400.781251,58.773433 401.13281,58.2460945 401.71875,58.0898438 L401.865833,58.0575573 C402.56836,57.9280127 404.391926,57.8607501 407.336574,57.8557677 L410.922683,57.8588928 C414.782265,57.8771541 416.917928,57.968461 417.329726,58.1328153 L417.363281,58.1484375 C417.534181,58.2167972 417.675171,58.4197372 417.786255,58.7572626 L417.832031,58.9101562 C417.907032,59.1351574 417.937031,60.4671442 417.922031,62.9061548 L417.919922,63.2167969 C417.902166,65.6138259 417.827916,67.7767724 417.697169,69.7056895 L417.575,71.3919299 C417.511979,72.3181454 417.480469,72.9817688 417.480469,73.3828125 C417.480469,73.6171887 417.578124,73.8515613 417.773438,74.0859375 C417.968751,74.3203137 418.164062,74.4570311 418.359375,74.4960938 Z M401.542969,71.8007812 C401.660157,71.9179693 401.835936,71.9570314 402.070312,71.9179688 C402.09961,71.9179688 402.150879,71.9124756 402.224121,71.9014893 L402.304688,71.8886719 C402.421876,71.8691405 402.558593,71.8398439 402.714844,71.8007812 C402.871095,71.7617186 403.007812,71.7421875 403.125,71.7421875 C404.551638,71.5044146 406.746207,71.3404862 409.708761,71.2503988 L411.09375,71.2148438 C414.101578,71.1367184 415.683593,70.9414078 415.839844,70.6289062 C415.917969,70.5117182 415.898438,70.2968766 415.78125,69.984375 C415.390623,68.9687449 414.667974,68.2558614 413.613281,67.8457031 C412.558588,67.4355448 411.757815,67.5624967 411.210938,68.2265625 C410.468746,69.0078164 409.179697,69.4374996 407.34375,69.515625 C405.711797,69.5850698 404.241902,69.54649 402.934029,69.3998845 L401.606262,69.2327831 C400.743751,69.1348854 400.3125,69.13151 400.3125,69.2226562 C400.3125,69.320313 400.434569,69.6281986 400.67871,70.1463204 L401.019984,70.848513 C401.272761,71.3555194 401.447088,71.6729397 401.542969,71.8007812 Z M425.15625,71.9179688 L425.332031,71.9765625 C427.792981,71.5078102 430.91795,71.2539064 434.707031,71.2148438 L437.596064,71.1000478 C438.103078,71.076132 438.44866,71.0558037 438.632812,71.0390625 C439.062502,70.9999998 439.316406,70.8437514 439.394531,70.5703125 C439.550782,69.9843721 439.003912,69.2226609 437.753906,68.2851562 L437.396092,68.007551 C436.65807,67.4478271 436.162111,67.1595053 435.908203,67.1425781 C435.615233,67.1230468 435.175784,67.4453092 434.589844,68.109375 C433.80859,68.9687543 432.51954,69.4374996 430.722656,69.515625 C429.125426,69.5850698 427.690253,69.54649 426.417102,69.3998845 L425.311684,69.2568355 C424.348682,69.1429028 423.867188,69.151041 423.867188,69.28125 C423.867188,69.4244799 424.031303,69.8220862 424.359537,70.4740796 L424.769324,71.2642513 C424.973189,71.6459775 425.102163,71.8638819 425.15625,71.9179688 Z M402.949219,65.296875 C403.027344,65.3750004 403.398434,65.2968762 404.0625,65.0625 C404.684498,64.8551672 406.254091,64.7242568 408.771318,64.6697659 L411.593633,64.6212158 C413.179328,64.5882568 414.155272,64.5498049 414.521484,64.5058594 C415.009768,64.4472653 415.312499,64.2617203 415.429688,63.9492188 C415.703126,63.2851529 414.941415,62.3671934 413.144531,61.1953125 C412.636716,60.8828109 412.275392,60.7460936 412.060547,60.7851562 C411.845702,60.8242189 411.464846,61.1367158 410.917969,61.7226562 C410.21484,62.4257848 409.453129,62.8359369 408.632812,62.953125 C407.812496,63.0703131 406.03517,63.0117199 403.300781,62.7773438 C403.118489,62.751302 402.940538,62.7296007 402.766927,62.7122396 L402.509766,62.6894531 C402.255858,62.6699218 402.060548,62.6601562 401.923828,62.6601562 C401.787109,62.6601562 401.71875,62.6796873 401.71875,62.71875 C401.646205,62.791295 401.775748,63.1753892 402.107382,63.8710432 L402.1875,64.0371094 C402.578127,64.8378946 402.832031,65.2578123 402.949219,65.296875 Z M425.185909,65.2769821 L425.214844,65.296875 C425.292969,65.3750004 425.48828,65.3554693 425.800781,65.2382812 C426.630112,64.8777025 428.507868,64.6835472 431.434099,64.6558108 L433.157388,64.6490751 C435.093367,64.6352742 436.322796,64.5777704 436.845703,64.4765625 C437.451175,64.3593744 437.753906,64.0664086 437.753906,63.5976562 C437.753906,63.2851547 437.275395,62.7480507 436.318359,61.9863281 C435.361323,61.2246056 434.687502,60.8242189 434.296875,60.7851562 C433.945311,60.7460936 433.55469,60.9999973 433.125,61.546875 C432.499997,62.3281289 431.748051,62.7871087 430.869141,62.9238281 C429.99023,63.0605476 428.183607,63.0117199 425.449219,62.7773438 C425.17578,62.7382811 424.921876,62.7089845 424.6875,62.6894531 L424.372558,62.6674804 C424.279785,62.6625976 424.199219,62.6601562 424.130859,62.6601562 C423.99414,62.6601562 423.925781,62.6796873 423.925781,62.71875 C423.886719,62.71875 423.955077,62.9335916 424.130859,63.3632812 C424.306642,63.7929709 424.511718,64.2128886 424.746094,64.6230469 L424.89077,64.8689968 C425.023872,65.0874577 425.122251,65.2234522 425.185909,65.2769821 L425.185909,65.2769821 Z M469.101562,100.453125 C469.296876,100.570313 469.74609,100.394534 470.449219,99.9257812 C470.722658,99.7695305 470.937499,99.6328131 471.09375,99.515625 C477.281281,95.3906044 481.321366,89.5104149 483.21412,81.8748867 L483.44029,80.9270551 C483.641184,80.133048 483.842075,79.6690855 484.042969,79.5351562 C484.472658,79.2226547 486.34764,79.0664062 489.667969,79.0664062 L494.485248,79.0644693 C495.011786,79.0599497 495.415725,79.0475208 495.697072,79.0271824 L495.908203,79.0078125 C496.192803,78.9743302 496.563495,78.991071 497.020288,79.0580356 L497.747397,79.1770836 C498.025175,79.2204863 498.203125,79.2421875 498.28125,79.2421875 C498.398438,79.2421875 498.603514,79.3886704 498.896484,79.6816406 C499.189455,79.9746108 499.326172,80.1894524 499.306641,80.3261719 C499.289279,80.4477003 499.318214,80.7389784 499.393446,81.2000137 L499.423828,81.3808594 C499.507534,81.8663529 499.541016,82.2729187 499.524275,82.6005656 L499.492349,82.9795974 C499.469105,83.3153407 499.456192,83.8112055 499.453609,84.4671994 L499.451065,88.3391008 C499.43779,91.8216262 499.360352,93.8283665 499.21875,94.359375 C498.984374,95.257817 498.320318,95.7265623 497.226562,95.765625 L496.225223,95.7202503 C495.50685,95.6817504 494.414851,95.6187504 492.949219,95.53125 L491.388472,95.4327149 C490.593031,95.3881107 490.087892,95.3721277 489.873047,95.3847656 C489.541014,95.404297 489.375,95.5117178 489.375,95.7070312 C489.375,95.9023447 489.472655,96.0390621 489.667969,96.1171875 L489.796549,96.1595053 C490.062391,96.2354601 490.585934,96.338541 491.367188,96.46875 C492.929695,96.7812516 494.091793,97.1718727 494.853516,97.640625 C495.615238,98.1093773 496.132811,98.7539021 496.40625,99.5742188 C496.562501,100.042971 496.679687,100.316406 496.757812,100.394531 C496.835938,100.472657 497.050779,100.511719 497.402344,100.511719 C498.457037,100.433593 499.492182,100.150393 500.507812,99.6621094 C501.523443,99.1738257 502.187498,98.5976596 502.5,97.9335938 C502.74127,97.4855217 502.891301,96.5052511 502.950097,94.9927577 L502.980061,93.6431199 C503.011583,91.1095033 503.027344,84.8248648 503.027344,74.7890625 L503.035838,63.5018169 C503.051209,58.5123599 503.08744,55.4681545 503.144531,54.3691406 C503.222657,52.8652269 503.535154,51.9960949 504.082031,51.7617188 C504.160157,51.735677 504.229601,51.7096354 504.290365,51.6835938 L504.375,51.6445312 C504.882815,51.4101551 505.205077,51.205079 505.341797,51.0292969 C505.478516,50.8535147 505.488282,50.6582042 505.371094,50.4433594 C505.253906,50.2285146 504.980471,49.9257832 504.550781,49.5351562 C503.22265,48.2460873 502.236331,47.5136728 501.591797,47.3378906 C500.993301,47.1746644 500.453755,47.4071934 499.973145,48.0354844 L499.863281,48.1875 C499.355466,48.9296912 498.847659,49.3398434 498.339844,49.4179688 L498.216146,49.433073 C497.681424,49.4865454 496.253917,49.5190105 493.933601,49.5304688 L491.835938,49.5351562 C488.085919,49.5351562 485.927737,49.5058597 485.361328,49.4472656 C484.794919,49.3886716 483.78907,49.007816 482.34375,48.3046875 L481.952853,48.1262698 C481.032381,47.7167202 480.537684,47.5808817 480.46875,47.71875 C480.399305,47.7881948 480.391589,48.042822 480.445602,48.4826382 L480.506017,48.979103 C480.742484,51.192171 480.866484,55.6384442 480.878019,62.3180324 L480.873119,65.6643608 C480.842255,71.5825873 480.687935,75.7569323 480.410156,78.1875 C479.394526,86.7031676 475.996123,93.5390367 470.214844,98.6953125 L469.893469,98.97968 C469.050971,99.7522759 468.787005,100.24342 469.101562,100.453125 Z M498.691406,77.1914062 C498.434052,77.3384658 496.377411,77.4076694 492.521427,77.3990187 L489.996209,77.3834326 C486.80747,77.3496247 485.096509,77.2660852 484.863281,77.1328125 C484.385338,76.8386934 484.201516,76.0255525 484.311811,74.6933673 L484.349682,74.2725695 C484.388262,73.7054413 484.442274,72.1198047 484.511719,69.515625 L484.511719,68.2851562 L484.531993,67.7604461 C484.5989,66.5155787 484.787452,65.7725196 485.097656,65.53125 C485.566409,65.1796857 487.109362,65.0234373 489.726562,65.0625 L494.238281,65.0625 C495.136723,65.0625 495.73242,65.0429689 496.025391,65.0039062 C496.276508,64.9704239 496.620893,64.987165 497.058553,65.0541293 L497.617912,65.1482207 C497.968993,65.203921 498.190104,65.2241754 498.28125,65.2089844 C498.398438,65.189453 498.593749,65.2968738 498.867188,65.53125 C499.140626,65.7656262 499.277344,65.9218746 499.277344,66 L499.284577,66.0810184 C499.291811,66.1359951 499.30447,66.212673 499.322555,66.3110524 L499.423828,66.8203125 C499.507534,67.2221002 499.541016,67.5377867 499.524275,67.7673786 L499.490625,68.0472657 C499.465625,68.3191402 499.453125,68.7597626 499.453125,69.3691406 L499.451131,72.2009172 C499.44227,74.2736721 499.403873,75.5562985 499.335938,76.0488281 C499.257812,76.6152372 499.042971,76.9960928 498.691406,77.1914062 Z M498.710938,63.0580149 L498.574219,63.1289062 C498.271187,63.3183011 496.195909,63.4158668 492.348325,63.421606 L490.256751,63.4151494 C487.277807,63.3900406 485.655778,63.2946268 485.390625,63.1289062 C484.999998,62.9726555 484.765625,62.6406275 484.6875,62.1328125 L484.668782,61.9830726 C484.603136,61.3504774 484.570312,59.7988405 484.570312,57.328125 L484.570312,55.5703125 C484.53125,53.3828016 484.72656,52.1035175 485.15625,51.7324219 C485.58594,51.3613263 487.167955,51.1953123 489.902344,51.234375 L494.121094,51.234375 L494.746409,51.2287499 C497.060792,51.2215621 498.424607,51.3796859 498.837891,51.703125 C499.287112,52.0546893 499.492188,53.3437389 499.453125,55.5703125 L499.451294,58.2738685 C499.442749,60.3631078 499.404297,61.6298806 499.335938,62.0742188 C499.266493,62.5256099 499.058161,62.8535395 498.710938,63.0580149 L498.710938,63.0580149 Z M455.800781,90.140625 C456.50391,90.5703146 457.324214,90.5117215 458.261719,89.9648438 C459.199223,89.417966 459.628907,88.7343791 459.550781,87.9140625 L459.434001,86.4756665 C459.410943,86.2138943 459.391276,86.0097664 459.375,85.8632812 C459.335937,85.511717 459.384765,85.0820338 459.521484,84.5742188 C459.658204,84.0664037 459.765625,83.7734379 459.84375,83.6953125 C459.921875,83.6171871 460.263669,83.5097663 460.869141,83.3730469 C461.474612,83.2363274 461.992185,83.1679688 462.421875,83.1679688 L465.525565,83.1698437 C467.901761,83.1842186 469.269529,83.2812491 469.628906,83.4609375 C470.019533,83.656251 470.195313,84.4570242 470.15625,85.8632812 C470.15625,87.0351621 470.312498,87.7285146 470.625,87.9433594 C470.937502,88.1582042 471.601557,88.0117213 472.617188,87.5039062 C473.476567,87.1132793 473.964843,86.7421893 474.082031,86.390625 C474.186884,86.0760675 474.213557,85.1360877 474.16205,83.5706611 L474.112922,82.2364681 C474.068969,80.7755953 474.028301,78.1386505 473.990918,74.3256035 L473.908931,62.8406856 C473.883427,57.1978497 473.902064,54.2666027 473.964844,54.046875 C474.082032,53.4218719 474.550777,52.9140645 475.371094,52.5234375 C475.800783,52.328124 476.064453,52.1523445 476.162109,51.9960938 C476.259766,51.839843 476.250001,51.6347669 476.132812,51.3808594 C476.015624,51.1269519 475.722659,50.7656273 475.253906,50.296875 C473.300771,48.2265521 471.992191,47.6015584 471.328125,48.421875 C470.429683,49.5546932 469.746096,50.1894524 469.277344,50.3261719 L469.137776,50.3589276 C468.624946,50.458144 467.438872,50.5145163 465.579532,50.5280457 L463.740836,50.5290709 C461.9329,50.5198703 460.809661,50.4815344 460.371094,50.4140625 C459.958494,50.3505856 459.210667,50.1065998 458.127597,49.6820995 L457.324219,49.359375 C456.152338,48.8906227 455.498048,48.6953121 455.361328,48.7734375 C455.224609,48.8515629 455.214843,49.3984324 455.332031,50.4140625 L455.387128,51.1527016 C455.645106,54.8257699 455.782416,59.9920386 455.79906,66.6516275 L455.79949,69.4497198 C455.787438,75.877659 455.69102,80.899429 455.510234,84.5151372 L455.372933,87.0393802 C455.316882,88.2043307 455.303248,88.9451053 455.332031,89.2617188 C455.371094,89.6914084 455.527342,89.9843742 455.800781,90.140625 Z M469.682075,81.2209923 L469.570312,81.2929688 C469.327256,81.4665807 468.050262,81.5475987 465.739298,81.5360244 L464.203396,81.5173772 C461.806267,81.4723669 460.44311,81.365629 460.113892,81.1971612 L460.078125,81.1757812 C459.726561,80.9804678 459.521485,80.5703156 459.462891,79.9453125 L459.438778,79.5826581 C459.403654,78.8740691 459.383037,77.5271446 459.376929,75.5418646 L459.375,72.3867188 C459.375,69.9257689 459.531248,68.4804709 459.84375,68.0507812 C460.156252,67.6210916 461.171866,67.4257811 462.890625,67.4648438 L466.40625,67.4648438 C468.359385,67.4257811 469.492186,67.6210916 469.804688,68.0507812 C470.117189,68.4804709 470.273438,69.9843621 470.273438,72.5625 L470.269097,76.436204 C470.25897,78.4717969 470.23112,79.7098502 470.185547,80.1503906 C470.133463,80.6538654 469.965641,81.0107299 469.682075,81.2209923 L469.682075,81.2209923 Z M469.453125,65.53125 L469.359514,65.5660944 C468.91827,65.6950127 467.529424,65.7704356 465.192945,65.7923649 L463.98466,65.7981723 C461.812987,65.797508 460.588944,65.7280656 460.3125,65.5898438 C459.88281,65.3945303 459.628907,65.0429713 459.550781,64.5351562 L459.524518,64.3094488 C459.459394,63.6050538 459.409555,61.9224893 459.375,59.2617188 L459.375,57.3867188 L459.3691,56.7739232 C459.36164,54.6075743 459.51009,53.3274759 459.814453,52.9335938 C460.146486,52.5039041 461.308584,52.3085936 463.300781,52.3476562 L465.949129,52.3506562 C467.860134,52.3611561 468.930468,52.3992184 469.160156,52.4648438 C469.824222,52.6601572 470.195312,53.3828063 470.273438,54.6328125 L470.269104,60.6082538 C470.256969,62.7063644 470.219351,63.9762598 470.15625,64.4179688 C470.078125,64.9648465 469.843752,65.3359365 469.453125,65.53125 Z M519.023438,100.6875 C519.414064,100.765625 519.921872,100.697267 520.546875,100.482422 C521.171878,100.267577 521.679686,99.9843768 522.070312,99.6328125 C522.265626,99.3984363 522.34375,98.3242283 522.304688,96.4101562 L522.252983,94.9243934 C522.156404,91.7767843 522.19317,89.9478352 522.363281,89.4375 C522.597657,88.7343715 523.261713,88.3632814 524.355469,88.3242188 L526.640625,88.3242188 C528.906261,88.3242188 530.195311,88.4609361 530.507812,88.734375 C530.820314,89.0078139 530.976562,90.140615 530.976562,92.1328125 L530.972168,92.7058617 C530.945801,94.3511796 530.800783,95.3320297 530.537109,95.6484375 C530.244139,96.0000018 529.296883,96.1171881 527.695312,96 C527.070309,95.9609373 526.425785,95.9414062 525.761719,95.9414062 C525.644531,95.9804689 525.585938,96.1171863 525.585938,96.3515625 C525.585938,96.5859387 525.644531,96.7226561 525.761719,96.7617188 L525.9375,96.8203125 C526.015625,96.8463543 526.106771,96.8723958 526.210937,96.8984375 L526.875,97.0546875 L526.875,97.0546875 C528.476571,97.4843771 529.39453,98.4609299 529.628906,99.984375 C529.785157,100.375002 530.146482,100.560547 530.712891,100.541016 C531.2793,100.521484 531.923825,100.287112 532.646484,99.8378906 C533.369144,99.3886696 533.867186,98.8906277 534.140625,98.34375 C534.308037,97.9419623 534.425223,97.2101448 534.492187,96.1482801 L534.521484,95.5898438 C534.580078,94.2226494 534.609375,90.8047148 534.609375,85.3359375 L534.611814,80.3766198 C534.622789,77.0610946 534.670804,75.0716389 534.755859,74.4082031 C534.853516,73.6464806 535.19531,73.1093766 535.78125,72.796875 L536.015625,72.6796875 C536.52344,72.3281232 536.542971,71.878909 536.074219,71.3320312 C535.644529,70.7851535 535.498046,70.2871116 535.634766,69.8378906 C535.771485,69.3886696 536.249996,68.8906277 537.070312,68.34375 C537.578128,67.9140604 537.958983,67.7382809 538.212891,67.8164062 C538.466798,67.8945316 538.613281,68.2460906 538.652344,68.8710938 C538.691406,69.3398461 538.779296,69.6425774 538.916016,69.7792969 C539.052735,69.9160163 539.296873,69.984375 539.648438,69.984375 C540.273441,69.984375 540.849607,69.818361 541.376953,69.4863281 C541.9043,69.1542952 542.167969,68.7929707 542.167969,68.4023438 C542.167969,67.7773406 542.324217,67.3867195 542.636719,67.2304688 C543.144534,67.0351553 545.996068,66.9375 551.191406,66.9375 L553.123852,66.9586862 C556.97704,67.0152967 559.106311,67.1449525 559.511719,67.3476562 C559.754776,67.4865458 559.889805,67.7643211 559.916811,68.1809889 L559.921875,68.34375 C559.921875,68.851565 560.136717,69.0468756 560.566406,68.9296875 C561.035159,68.8124994 561.269531,69.027341 561.269531,69.5742188 C561.230469,70.433598 560.820316,71.0585918 560.039062,71.4492188 C559.780015,71.5972458 557.43499,71.692683 553.003921,71.7355328 L551.250065,71.7491547 C546.868268,71.7754907 543.84093,71.7341061 542.167969,71.625 L540.462404,71.5046071 C538.520237,71.3828208 537.487204,71.3838895 537.363281,71.5078125 C537.246093,71.6250006 537.363279,72.0742148 537.714844,72.8554688 C538.066408,73.5585973 538.427733,73.9589839 538.798828,74.0566406 C539.143417,74.1473219 539.850073,74.0948572 540.918815,73.8992449 L541.171875,73.8515625 C543.593762,73.3828102 549.882762,73.2851549 560.039062,73.5585938 C563.867207,73.6367191 566.015623,73.412112 566.484375,72.8847656 C566.953127,72.3574192 566.07423,71.1171973 563.847656,69.1640625 C563.267296,68.619975 563.074277,68.1432572 563.268594,67.733897 L563.320312,67.640625 C563.41682,67.5119479 563.447097,66.9196632 563.411143,65.863757 L563.282632,62.9821853 C563.133801,59.3690487 563.117065,57.0351615 563.232422,55.9804688 C563.360027,54.8137963 563.802383,54.0044282 564.559504,53.552344 L564.726562,53.4609375 C565.390628,53.1093732 565.683594,52.7871108 565.605469,52.4941406 C565.532552,52.2207018 565.102348,51.7005678 564.314845,50.9337247 L564.140625,50.765625 C563.007807,49.6718695 562.226565,49.1054689 561.796875,49.0664062 C561.367185,49.0273436 560.820316,49.4374957 560.15625,50.296875 C559.335933,51.4687559 558.281256,51.859377 556.992188,51.46875 C556.44531,51.2734365 556.152344,50.8339878 556.113281,50.1503906 C556.074219,49.4667935 556.308591,48.9101584 556.816406,48.4804688 C557.402347,48.0507791 557.128912,47.5429717 555.996094,46.9570312 C555.80078,46.8789059 555.585939,46.7812506 555.351562,46.6640625 C554.140619,46.1171848 553.427735,45.8535155 553.212891,45.8730469 C552.998046,45.8925782 552.910156,46.2343717 552.949219,46.8984375 C553.144532,48.9296977 553.01758,50.2968715 552.568359,51 C552.119138,51.7031285 551.269538,51.859377 550.019531,51.46875 C549.472654,51.2734365 549.179688,50.8144567 549.140625,50.0917969 C549.101562,49.369137 549.335935,48.8515641 549.84375,48.5390625 C550.742192,48.0312475 550.019543,47.2890674 547.675781,46.3125 C547.51953,46.2734373 547.343751,46.2148441 547.148438,46.1367188 C546.249996,45.8242172 545.839843,45.8437482 545.917969,46.1953125 C545.981446,46.3540047 546.025581,46.8995014 546.050377,47.8318152 L546.064453,48.5390625 C546.083984,49.9062568 546.054688,50.6484369 545.976562,50.765625 C545.256862,52.0913892 543.416889,52.0581027 540.456591,50.6657634 L539.775694,50.341735 C538.899837,49.9358498 538.427735,49.7841792 538.359375,49.8867188 C538.258928,49.9536834 538.244579,50.3363327 538.316326,51.0346765 L538.492307,52.6336514 C539.236338,59.7662128 539.016248,63.1474114 537.832031,62.7773438 C537.738281,62.7773438 537.632032,62.7273442 537.513281,62.6273441 L537.421875,62.5429688 C537.265624,62.386718 537.158203,62.3183593 537.099609,62.3378906 C537.041015,62.357422 536.875001,62.4843738 536.601562,62.71875 C535.781246,63.5390666 535.175783,63.7148461 534.785156,63.2460938 C534.638671,63.0996086 534.560852,61.3738567 534.551697,58.0687897 L534.551823,56.674476 C534.561545,53.4539773 534.639322,51.6796891 534.785156,51.3515625 C534.902344,51.1953117 535.234372,50.9804701 535.78125,50.7070312 C536.640629,50.3164043 536.972657,49.8867211 536.777344,49.4179688 C536.605008,49.0043637 535.946088,48.4082941 534.800567,47.6297455 L534.316406,47.3085938 C533.49609,46.761716 532.958986,46.4980468 532.705078,46.5175781 C532.451171,46.5371095 532.109377,46.8203098 531.679688,47.3671875 C530.859371,48.4218803 529.218762,48.9882809 526.757812,49.0664062 C524.460926,49.1393233 522.300181,48.7528689 520.275523,47.9070321 L519.84375,47.71875 C518.593744,47.1718723 517.96875,47.0156238 517.96875,47.25 C517.929687,47.3281254 517.929687,47.4257807 517.96875,47.5429688 L518.026327,47.9468193 C518.224285,49.4407587 518.384857,51.7795563 518.508046,54.9632649 L518.575016,56.9347155 C518.65633,59.7807046 518.630023,61.5719829 518.496094,62.3085938 C518.378906,63.0117223 518.144533,63.3632812 517.792969,63.3632812 C517.597655,63.3632812 517.441407,63.2460949 517.324219,63.0117188 C517.167968,62.5820291 516.953126,62.4160151 516.679688,62.5136719 C516.436631,62.6004779 516.286169,62.8493181 516.228299,63.260199 L516.210938,63.421875 C516.054687,65.1796963 515.390631,66.7617117 514.21875,68.1679688 C513.476559,68.9882854 513.154296,69.740231 513.251953,70.4238281 C513.34961,71.1074253 513.828121,71.4492188 514.6875,71.4492188 C515.429691,71.4492188 516.093747,71.1367219 516.679688,70.5117188 C517.265628,69.8867156 517.578125,69.1445355 517.617188,68.2851562 L517.617188,67.9335938 C517.65625,67.0742145 517.871092,66.546876 518.261719,66.3515625 C518.706057,66.1464833 520.511154,66.0311277 523.677057,66.0054931 L529.157238,66.0058532 C531.528142,66.0170719 532.974418,66.0444176 533.496094,66.0878906 C534.199222,66.1464847 534.589843,66.3906229 534.667969,66.8203125 L534.667969,66.8789062 C534.785157,67.4648467 534.648439,67.9726541 534.257812,68.4023438 C533.867186,68.8320334 533.39844,69.0078129 532.851562,68.9296875 C532.539061,68.8515621 532.304688,68.8613276 532.148438,68.9589844 C531.992187,69.0566411 531.777345,69.3007793 531.503906,69.6914062 C530.996091,70.3554721 530.566408,70.7363276 530.214844,70.8339844 C529.863279,70.9316411 528.613292,70.9999998 526.464844,71.0390625 L525.27773,71.034375 C523.830853,71.0218751 522.927736,70.9843753 522.568359,70.921875 C522.208983,70.8593747 521.568363,70.6218769 520.646487,70.2093762 L519.902344,69.8671875 C518.886714,69.3984352 518.320313,69.2031246 518.203125,69.28125 C518.093749,69.354167 518.086458,69.8354123 518.18125,70.7249991 L518.203125,70.921875 C518.503607,73.6262154 518.677682,77.4771718 518.725355,82.4748522 L518.730469,83.0800781 C518.76542,87.8159159 518.675285,91.9497171 518.460061,95.4815793 L518.325989,97.5339832 C518.257866,98.7355966 518.255974,99.5133254 518.320312,99.8671875 C518.398438,100.296877 518.632811,100.570312 519.023438,100.6875 Z M530.362052,86.3909865 L530.273438,86.4492188 C530.011887,86.6360403 528.865794,86.7156415 526.835127,86.6880243 L525.974784,86.6710033 C524.128187,86.6225788 523.080612,86.509589 522.832031,86.3320312 C522.324216,86.0195297 522.070312,85.0820391 522.070312,83.5195312 C522.070312,81.9570234 522.324216,81.0195328 522.832031,80.7070312 C523.10547,80.5117178 524.345692,80.3945314 526.552734,80.3554688 L527.106553,80.3479368 C528.968157,80.330879 530.023776,80.4115141 530.273438,80.5898438 C530.820315,80.9023453 531.09375,81.878898 531.09375,83.5195312 C531.09375,85.0690182 530.849853,86.0261617 530.362052,86.3909865 L530.362052,86.3909865 Z M530.273438,78.421875 C529.999999,78.6171885 528.759777,78.6953127 526.552734,78.65625 L525.444776,78.6271953 C523.926662,78.5719914 523.055754,78.4644894 522.832031,78.3046875 C522.246091,77.9140605 521.982422,76.996101 522.041016,75.5507812 C522.09961,74.1054615 522.441403,73.2460951 523.066406,72.9726562 C523.339845,72.7773428 524.511708,72.6796875 526.582031,72.6796875 L527.415501,72.6856664 C528.974816,72.709582 529.888392,72.8052447 530.15625,72.9726562 C530.703128,73.2460951 530.996094,74.1347581 531.035156,75.6386719 C531.074219,77.1425856 530.820315,78.0703107 530.273438,78.421875 Z M545.507812,64.8867188 C545.078123,65.1992203 544.492191,65.2968756 543.75,65.1796875 C543.007809,65.0624994 542.539063,64.7890646 542.34375,64.359375 C542.226562,64.0859361 542.167969,63.50977 542.167969,62.6308594 L542.17378,62.1814777 C542.191212,61.5524413 542.247869,61.1260665 542.34375,60.9023438 C542.656252,60.2773406 543.300776,59.9941403 544.277344,60.0527344 C545.253911,60.1113284 545.839843,60.4726529 546.035156,61.1367188 C546.23047,61.8007846 546.269532,62.5429646 546.152344,63.3632812 C546.035156,64.1835979 545.820314,64.6914053 545.507812,64.8867188 Z M552.480469,64.8867188 C552.20703,65.0820322 551.738285,65.1796875 551.074219,65.1796875 C550.410153,65.1796875 549.960939,65.1015633 549.726562,64.9453125 C549.218747,64.6328109 548.964844,63.8515687 548.964844,62.6015625 C548.964844,61.3515563 549.218747,60.5898451 549.726562,60.3164062 C550.000001,60.1601555 550.458981,60.1015623 551.103516,60.140625 C551.74805,60.1796877 552.20703,60.277343 552.480469,60.4335938 C552.988284,60.7460953 553.242188,61.4882754 553.242188,62.6601562 C553.242188,63.8320371 552.988284,64.5742172 552.480469,64.8867188 Z M559.21875,64.8867188 C558.945311,65.0820322 558.515628,65.1796875 557.929688,65.1796875 C557.343747,65.1796875 556.933595,65.1015633 556.699219,64.9453125 C556.191404,64.6328109 555.9375,63.8515687 555.9375,62.6015625 C555.9375,61.3515563 556.191404,60.5898451 556.699219,60.3164062 C556.972658,60.1601555 557.392575,60.1015623 557.958984,60.140625 C558.525393,60.1796877 558.945311,60.277343 559.21875,60.4335938 C559.726565,60.7460953 559.980469,61.4882754 559.980469,62.6601562 C559.980469,63.8320371 559.726565,64.5742172 559.21875,64.8867188 Z M523.960793,64.0921874 L523.886719,64.125 C523.144528,64.4765643 522.539065,64.3203158 522.070312,63.65625 C521.938476,63.4914543 521.848354,62.0474528 521.799946,59.3242098 L521.777344,57.6796875 C521.738281,53.8906061 521.796874,51.8007832 521.953125,51.4101562 C522.109376,51.0195293 522.373045,50.7851566 522.744141,50.7070312 C523.115236,50.6289059 524.296865,50.5703127 526.289062,50.53125 L527.185417,50.5362343 C529.063229,50.5583868 530.18045,50.6543809 530.537109,50.8242188 C530.947268,51.0195322 531.171875,51.7226502 531.210938,52.9335938 C531.25,54.4179762 530.898441,55.2871081 530.15625,55.5410156 C529.451168,55.7822278 528.217293,55.5034466 526.454591,54.7046637 L525.781789,54.395801 C524.865372,53.9862515 524.389936,53.8504129 524.355469,53.9882812 C524.316406,54.0664066 524.316406,54.203124 524.355469,54.3984375 L524.459057,55.1890662 C525.143667,60.6067977 524.977581,63.5744785 523.960793,64.0921874 Z M530.390625,64.0664062 C529.414058,64.5351586 528.701174,64.5253931 528.251953,64.0371094 C527.802732,63.5488257 527.558594,62.5625074 527.519531,61.078125 C527.480469,59.3984291 527.714841,58.2558624 528.222656,57.6503906 C528.730471,57.0449188 529.492182,57.0156223 530.507812,57.5625 C531.05469,57.9140643 531.318359,59.0175688 531.298828,60.8730469 C531.279297,62.7285249 530.976565,63.7929674 530.390625,64.0664062 Z M545.332031,58.265625 C544.238276,58.77344 543.320316,58.5097708 542.578125,57.4746094 C541.835934,56.4394479 541.75781,55.2968812 542.34375,54.046875 C542.539063,53.6171854 543.007809,53.3535161 543.75,53.2558594 C544.492191,53.1582026 545.078123,53.2656234 545.507812,53.578125 C546.05469,53.9296893 546.298828,54.7304625 546.240234,55.9804688 C546.18164,57.230475 545.878909,57.9921861 545.332031,58.265625 Z M552.304688,58.265625 C551.796872,58.5000012 551.201175,58.5488288 550.517578,58.4121094 C549.896126,58.287819 549.492591,58.0586114 549.306964,57.7244807 L549.257812,57.6210938 C549.101562,57.3476549 549.013672,56.7617232 548.994141,55.8632812 C548.974609,54.9648393 549.042968,54.3593766 549.199219,54.046875 C549.394532,53.6171854 549.882809,53.3535161 550.664062,53.2558594 C551.445316,53.1582026 552.050779,53.2656234 552.480469,53.578125 C553.027346,53.9296893 553.271485,54.7304625 553.212891,55.9804688 C553.154297,57.230475 552.851565,57.9921861 552.304688,58.265625 Z M559.042969,58.265625 C557.949213,58.77344 557.050785,58.5097708 556.347656,57.4746094 C555.644528,56.4394479 555.566404,55.2968812 556.113281,54.046875 C556.308595,53.6171854 556.767575,53.3535161 557.490234,53.2558594 C558.212894,53.1582026 558.78906,53.2656234 559.21875,53.578125 C559.765628,53.9296893 560.009766,54.7304625 559.951172,55.9804688 C559.892578,57.230475 559.589846,57.9921861 559.042969,58.265625 Z M536.542969,98.4023438 L536.71875,98.7539062 C536.914063,99.2226586 537.109374,99.4765623 537.304688,99.515625 C537.484977,99.5516829 537.981459,99.5211729 538.794147,99.4240941 L539.388282,99.3515625 C539.561719,99.328125 539.707031,99.3046876 539.824219,99.28125 L540.155807,99.2448103 C542.481807,99.0075288 547.116,98.8832401 554.0585,98.8719412 L561.095995,98.8612319 C563.271268,98.8521918 564.669649,98.8369366 565.291158,98.8154663 L565.371094,98.8125 C566.347661,98.7734373 566.953124,98.5976578 567.1875,98.2851562 C567.539064,97.7382785 566.816415,96.7421947 565.019531,95.296875 L564.647134,95.005728 C563.879771,94.4211776 563.369142,94.1373697 563.115234,94.1542969 C562.822264,94.1738282 562.382815,94.613277 561.796875,95.4726562 C560.976558,96.6054744 559.550791,97.2499992 557.519531,97.40625 C555.839835,97.5625008 554.941407,97.2500039 554.824219,96.46875 C554.785156,96.3515619 554.785156,96.2148445 554.824219,96.0585938 C554.934513,95.65418 555.503279,94.8259007 556.530533,93.5737332 L556.728516,93.3339844 C557.880865,91.9472587 558.652342,91.175782 559.042969,91.0195312 C559.277345,90.9414059 559.433593,90.8437506 559.511719,90.7265625 C559.589844,90.6093744 559.59961,90.5019536 559.541016,90.4042969 C559.482422,90.3066401 559.404297,90.2089849 559.306641,90.1113281 C559.241536,90.0462236 559.163412,89.9767796 559.072266,89.9029949 L558.925781,89.7890625 C558.808593,89.7011714 558.713379,89.6242676 558.640137,89.5583497 L558.574219,89.4960938 C558.30078,89.2226549 558.072205,89.0688473 557.888489,89.0346679 L557.703683,89.0177775 C557.435826,88.9795125 556.866634,88.8264522 555.996094,88.5585938 L555.449914,88.3832603 C554.85142,88.2002042 554.506139,88.1316962 554.414062,88.1777344 C554.296874,88.2363284 554.160157,88.6953082 554.003906,89.5546875 C553.847655,90.648443 553.632814,91.7812441 553.359375,92.953125 L553.168131,93.8483105 C552.856173,95.2372022 552.578126,96.1106753 552.333984,96.46875 C552.041014,96.8984396 551.464848,97.1328123 550.605469,97.171875 C549.707027,97.2109377 549.169923,97.1230479 548.994141,96.9082031 C548.834339,96.7128896 548.811741,96.2996704 548.926346,95.6685345 L548.964844,95.4726562 C549.19922,94.4179635 548.994144,93.3242244 548.349609,92.1914062 C547.705075,91.0585881 546.699226,90.0625043 545.332031,89.203125 C544.628903,88.7734354 544.218751,88.4511729 544.101562,88.2363281 C543.984374,88.0214833 544.023437,87.718752 544.21875,87.328125 C544.414063,86.9765607 544.81445,86.7714847 545.419922,86.7128906 L545.775825,86.6887779 C546.624347,86.6462591 548.429529,86.625 551.191406,86.625 L552.224125,86.6389011 C554.961997,86.681252 556.60993,86.7547428 557.167969,86.859375 C557.792972,86.9765631 558.105469,87.3671842 558.105469,88.03125 C558.105469,88.3046889 558.232421,88.4999994 558.486328,88.6171875 C558.740236,88.7343756 559.10156,88.7343756 559.570312,88.6171875 C560.039065,88.4999994 560.566403,88.2851578 561.152344,87.9726562 C561.542971,87.7773428 561.767578,87.5722667 561.826172,87.3574219 C561.884766,87.1425771 561.894531,86.585942 561.855469,85.6875 L561.799634,84.9489886 C561.657991,82.931042 561.657072,81.5463648 561.796875,80.7949219 C561.941106,80.0196776 562.30168,79.4857508 562.878605,79.1931284 L563.027344,79.125 C563.84766,78.7734357 564.208985,78.4023457 564.111328,78.0117188 C564.013671,77.6210918 563.398443,76.9375049 562.265625,75.9609375 L561.845396,75.6166978 C560.909725,74.8647424 560.288087,74.4716799 559.980469,74.4375 C559.628904,74.3984373 559.140628,74.8085895 558.515625,75.6679688 C558.00781,76.41016 557.490237,76.8203121 556.962891,76.8984375 L556.836458,76.9135417 C556.320573,76.9645836 555.034287,76.9964845 552.977579,77.0092448 L549.941054,77.0151766 C546.903236,77.0112903 545.103239,76.9821431 544.541016,76.9277344 C543.986,76.8740232 543.209436,76.6151688 542.211305,76.1511643 L541.399217,75.7699209 C540.755466,75.4792953 540.386719,75.3574216 540.292969,75.4042969 C540.184795,75.4583837 540.159832,75.8369857 540.21808,76.5401134 L540.266263,77.1488905 C540.362192,78.5760464 540.410156,80.7386388 540.410156,83.6367188 L540.459909,85.5346508 C540.535107,87.9084848 540.63571,89.1898932 540.761719,89.3789062 C540.832742,89.4499293 541.129743,89.4402446 541.65273,89.3498516 L541.816406,89.3203125 C542.675786,89.1640617 543.232421,89.1347651 543.486328,89.2324219 C543.740236,89.3300786 543.984374,89.652341 544.21875,90.1992188 C544.80469,91.5273504 545.234374,92.9238208 545.507812,94.3886719 C545.781251,95.8535229 545.76172,96.7031238 545.449219,96.9375 C544.941404,97.328127 542.070339,97.3085959 536.835938,96.8789062 C536.28906,96.8398436 535.996094,96.8789057 535.957031,96.9960938 C535.917969,97.1132818 536.113279,97.5820271 536.542969,98.4023438 Z M557.402344,84.6328125 C557.162049,84.8044516 555.481311,84.8855892 552.360085,84.8762268 L550.278896,84.8592243 C546.730023,84.8136334 544.827179,84.6991013 544.570312,84.515625 C543.984372,84.124998 543.720703,83.1679764 543.779297,81.6445312 C543.834444,80.2107006 544.140453,79.3305178 544.697333,79.0039605 L544.804688,78.9492188 C545.107108,78.7602057 547.064888,78.662652 550.678084,78.6565549 L552.112326,78.6589937 C555.165553,78.6754559 556.877896,78.7659981 557.249396,78.9306223 L557.285156,78.9492188 C557.832034,79.2226576 558.125,80.1503827 558.164062,81.7324219 C558.203125,83.314461 557.949221,84.2812482 557.402344,84.6328125 Z" id="" fill="#000000" fill-rule="nonzero"></path>
    </g>
</svg>