<?xml version="1.0" encoding="UTF-8"?>
<svg width="900px" height="140px" viewBox="0 0 900 140" version="1.1" xmlns="http://www.w3.org/2000/svg" xmlns:xlink="http://www.w3.org/1999/xlink">
    <!-- Generator: Sketch 59.1 (86144) - https://sketch.com -->
    <title>preview</title>
    <desc>Created with Sketch.</desc>
    <g id="preview" stroke="none" stroke-width="1" fill="none" fill-rule="evenodd">
        <path d="M255.851562,45.0625 L260.890625,45.0625 L260.890625,56.546875 L271.320312,56.546875 L271.320312,58.890625 L260.890625,58.890625 L260.889125,63.8985654 C260.877625,66.3911993 260.800001,67.9249971 260.65625,68.5 C260.578125,69.1250031 260.421876,69.6718727 260.1875,70.140625 C259.953124,70.6093773 259.757813,70.9218742 259.601562,71.078125 L259.367188,71.4296875 L264.757812,71.4296875 L264.757812,70.375 L269.796875,70.375 L269.790174,84.2934657 C269.775959,88.1921516 269.739131,90.3495224 269.679688,90.765625 C269.523437,91.3906281 269.367188,91.8984355 269.210938,92.2890625 C268.976561,92.7578148 268.703127,93.1484359 268.390625,93.4609375 C268.078123,93.8515645 267.687502,94.1640613 267.21875,94.3984375 C266.749998,94.6328137 266.24219,94.75 265.695312,94.75 L264.757812,94.8671875 L264.757812,90.1796875 L251.984375,90.1796875 L251.867188,90.53125 L251.632812,91.5859375 C251.476562,92.0546898 251.281251,92.484373 251.046875,92.875 C250.734373,93.265627 250.460939,93.5781238 250.226562,93.8125 C249.992186,94.0468762 249.640627,94.2812488 249.171875,94.515625 C248.703123,94.7500012 248.195315,94.8671875 247.648438,94.8671875 L246.828125,94.8671875 L246.945312,82.5625 L246.945312,70.375 L251.984375,70.375 L251.984375,71.4296875 L255.851562,71.4296875 L255.851562,45.0625 Z M264.757812,87.8359375 L264.757812,73.65625 L256.749595,73.6598373 C253.645313,73.6741867 252.076451,73.7315843 252.042969,73.8320312 L252.033852,73.9048344 C252.000867,74.3472167 251.984375,76.6862119 251.984375,80.921875 L251.984375,87.8359375 L264.757812,87.8359375 Z M236.632812,45.53125 L239.09375,45.53125 L239.09375,48.2265625 C239.09375,50.0234465 238.996095,51.1757787 238.800781,51.6835938 C238.605468,52.1914088 238.351564,52.6796852 238.039062,53.1484375 C237.648436,53.4609391 237.218752,53.7343738 236.75,53.96875 C236.281248,54.2031262 235.734378,54.3203125 235.109375,54.3203125 L234.054688,54.4375 L234.060741,47.8072075 C234.069261,46.4866059 234.086774,45.7865517 234.113281,45.7070312 C234.152344,45.5898432 234.992179,45.53125 236.632812,45.53125 Z M226.671875,56.078125 L243.78125,56.078125 L243.78125,58.3046875 L226.789062,58.3046875 L226.671875,57.1328125 L226.671875,56.078125 Z M238.15625,63.109375 L243.429688,63.109375 L243.429688,63.4609375 C243.429688,63.6953137 243.117191,66.664034 242.492188,72.3671875 L241.671875,80.921875 L241.085938,82.09375 C240.773436,82.7187531 240.382815,83.3632779 239.914062,84.0273438 C239.44531,84.6914096 238.937503,85.218748 238.390625,85.609375 C237.765622,86.0781273 237.17969,86.4687484 236.632812,86.78125 C236.085935,87.0937516 235.597658,87.1914068 235.167969,87.0742188 L234.913338,86.9989871 C234.653403,86.9145928 234.523438,86.8420142 234.523438,86.78125 L235.109375,85.84375 C235.421877,85.2968723 235.734373,84.6718785 236.046875,83.96875 C236.359377,83.2656215 236.632811,82.5625035 236.867188,81.859375 L236.904519,81.7165423 C237.111627,80.8238393 237.348191,78.163608 237.614217,73.7357871 L238.149607,63.918194 C238.154036,63.8068089 238.15625,63.7325151 238.15625,63.6953125 L238.15625,63.109375 Z M224.679688,67.796875 C224.679688,67.4843734 224.71875,67.328125 224.796875,67.328125 C224.870405,67.328125 225.359154,67.7779475 226.263137,68.6776052 L226.4375,68.8515625 C227.45313,69.8671926 228.351559,70.8046832 229.132812,71.6640625 C229.835941,72.6015672 230.499997,73.4999957 231.125,74.359375 C231.750003,75.2968797 232.257811,76.1953082 232.648438,77.0546875 C233.050225,77.7912983 233.365912,78.499201 233.595504,79.178411 L233.703125,79.515625 C233.937501,80.2187535 234.132812,80.8828094 234.289062,81.5078125 L234.323928,81.8603447 C234.364605,82.3426546 234.352983,82.6157667 234.289062,82.6796875 L231.945312,83.6171875 L231.106494,83.9210321 C230.181328,84.2488981 229.71875,84.3819904 229.71875,84.3203125 C229.653646,84.3203125 229.534289,83.8049097 229.360677,82.7740911 L229.25,82.09375 C229.015624,80.6093676 228.742189,79.1640695 228.429688,77.7578125 L228.28823,77.064393 C228.033977,75.8439766 227.807693,74.9032485 227.609375,74.2421875 C227.374999,73.4609336 227.101564,72.6406293 226.789062,71.78125 C226.554686,70.9999961 226.281252,70.3554713 225.96875,69.8476562 C225.656248,69.3398412 225.363283,68.9492201 225.089844,68.6757812 C224.816405,68.4023424 224.679688,68.1093766 224.679688,67.796875 Z M226.671875,88.421875 L242.609375,88.421875 L242.609375,90.6484375 L226.789062,90.6484375 L226.671875,89.4765625 L226.671875,88.421875 Z M318.3125,45.6484375 L322.0625,45.6484375 L322.0625,55.375 L329.210938,55.375 L329.210938,56.4296875 L329.09375,57.6015625 L325.578125,57.6015625 L322.0625,57.71875 L322.0625,60.53125 C322.0625,62.4843848 322.023438,63.7734344 321.945312,64.3984375 C321.867187,64.9453152 321.710939,65.4921848 321.476562,66.0390625 L321.297265,66.4679699 C321.182421,66.7523449 321.125,66.9218747 321.125,66.9765625 C321.046875,66.9765625 321.085937,66.9960936 321.242188,67.0351562 C321.376117,67.0686386 321.59614,67.0877711 321.902263,67.0925542 L331.320312,67.09375 L331.320312,69.4375 L307.882812,69.4375 L307.882812,67.09375 L318.3125,67.09375 L318.3125,57.71875 L312.453125,57.71875 L312.101562,58.3046875 L312.017857,58.4601405 C311.816965,58.8140943 311.415182,59.4263349 310.8125,60.296875 C310.265622,61.2343797 309.562504,62.2109324 308.703125,63.2265625 L308.403124,63.6411474 C307.780206,64.4897608 307.333335,65.015624 307.0625,65.21875 C306.828124,65.5312516 306.593751,65.6484375 306.359375,65.5703125 L306.007812,65.453125 L306.018799,65.4000245 C306.070068,65.220582 306.300779,64.6523485 306.710938,63.6953125 L306.816732,63.4780268 C307.215496,62.6406239 307.913325,60.9957395 308.910237,58.5433366 L310.161461,55.4010359 C310.562936,54.3810714 310.889812,53.5374334 311.14209,52.8701173 L312.335938,49.6328125 L314.969212,49.6346372 C315.869949,49.6403141 316.320312,49.659237 316.320312,49.6914062 L316.294767,49.7723017 C316.215291,49.9918072 315.95037,50.6484375 315.5,51.7421875 L314.24135,54.3762704 C314.230266,54.3987077 314.220129,54.4191176 314.210938,54.4375 L313.985937,54.9718761 C313.901562,55.1781259 313.859375,55.2929686 313.859375,55.3164062 C313.859375,55.3511286 314.445789,55.3704186 315.618632,55.3742766 L318.3125,55.375 L318.3125,45.6484375 Z M293.376447,47.9937493 L305.421875,47.9921875 L305.421875,50.3359375 L300.265625,50.3359375 L300.265625,53.265625 L300.230759,54.280608 C300.190082,55.6636171 300.201704,56.4190335 300.265625,56.546875 C300.265625,56.7812512 300.499998,56.8789064 300.96875,56.8398438 C301.385419,56.8051214 301.632331,56.7086716 301.709491,56.5504921 L301.730469,56.4882812 C301.769531,56.2929678 302.374994,56.1953125 303.546875,56.1953125 L305.421875,56.1953125 L305.413095,78.0156205 C305.388707,85.0741184 305.313509,88.8553402 305.1875,89.359375 C305.031249,89.9843781 304.835939,90.5312477 304.601562,91 C304.445312,91.4687523 304.171877,91.8984355 303.78125,92.2890625 C303.468748,92.6015641 303.078127,92.8749988 302.609375,93.109375 L302.235839,93.2521976 C302.064941,93.3132327 301.955078,93.34375 301.90625,93.34375 C301.828125,93.34375 301.789062,92.8359426 301.789062,91.8203125 L301.671875,90.1796875 L288.3125,90.1796875 L288.195312,90.53125 C288.039062,90.921877 287.843751,91.312498 287.609375,91.703125 C287.296873,92.093752 286.925783,92.4453109 286.496094,92.7578125 C286.066404,93.0703141 285.734376,93.2656246 285.5,93.34375 L285.03125,93.34375 L285.03125,56.1953125 L286.90625,56.1953125 C288.004888,56.1953125 288.605698,56.2811423 288.708694,56.4528044 L288.722656,56.4882812 C288.761719,56.6835947 289.054685,56.78125 289.601562,56.78125 L290.539062,56.78125 L290.539062,50.3359375 L287.609375,50.3359375 L284.5625,50.21875 L284.5625,48.2265625 C284.634248,48.0830669 287.572203,48.0054631 293.376447,47.9937493 Z M296.632812,50.3359375 L295.460938,50.3359375 L295.128096,50.3387111 C294.568738,50.3488812 294.289062,50.3870189 294.289062,50.453125 C294.221127,50.453125 294.18273,51.2210757 294.173869,52.7569972 L294.173869,54.2449965 C294.182287,55.7125399 294.217361,56.5136465 294.279094,56.6483341 L294.289062,56.6640625 C294.367188,56.8203128 294.757809,56.8593754 295.460938,56.78125 L296.515625,56.78125 L296.515625,53.5 L296.632812,50.3359375 Z M290.539062,59.125 L288.664062,59.125 L288.664062,87.8359375 L301.789062,87.8359375 L301.789062,59.125 L300.148438,59.125 L300.14642,65.3126238 C300.135209,68.0430215 300.077288,69.6523413 299.972656,70.140625 C299.855468,70.6875027 299.69922,71.136717 299.503906,71.4882812 C299.308593,71.8398455 299.093751,72.1718734 298.859375,72.484375 C298.546873,72.7968766 298.156252,73.0703113 297.6875,73.3046875 C297.296873,73.5390637 297.023438,73.65625 296.867188,73.65625 C296.710937,73.65625 296.632812,71.2343992 296.632812,66.390625 L296.632812,59.125 L295.460938,59.125 L294.289062,59.2421875 L294.131185,66.2946025 C294.060655,68.8390962 293.976563,70.257811 293.878906,70.5507812 C293.761718,70.9023455 293.625001,71.2343734 293.46875,71.546875 C293.312499,71.8593766 293.078127,72.1914045 292.765625,72.5429688 C292.453123,72.894533 292.082033,73.1679678 291.652344,73.3632812 L291.355712,73.4914555 C291.084716,73.6013189 290.890626,73.65625 290.773438,73.65625 C290.617187,73.65625 290.539062,71.2343992 290.539062,66.390625 L290.539062,59.125 Z M289.835938,77.7578125 L300.851562,77.7578125 L300.851562,79.984375 L289.835938,79.984375 L289.835938,77.7578125 Z M312.929198,73.6567078 L314.914062,73.65625 L314.914062,75.0625 L319.835938,75.0625 L324.875,74.9453125 L324.875,73.7734375 L328.507812,73.7734375 L328.505043,83.8016141 C328.498398,85.9561826 328.47979,87.4767279 328.449219,88.3632812 L328.419055,89.0820103 C328.385771,89.7352098 328.343126,90.1918219 328.29112,90.4518535 L328.273438,90.53125 C328.195312,90.921877 328.039064,91.3906223 327.804688,91.9375 C327.570311,92.4062523 327.218752,92.8359355 326.75,93.2265625 C326.281248,93.6171895 325.851564,93.8906242 325.460938,94.046875 L324.875,94.28125 L324.875,89.828125 L314.796875,89.828125 L314.5625,90.765625 C314.328124,91.4687535 314.054689,92.0546852 313.742188,92.5234375 C313.351561,92.9921898 312.921877,93.3437488 312.453125,93.578125 C311.984373,93.8906266 311.632814,94.046875 311.398438,94.046875 L311.164062,94.046875 L311.169968,79.9458521 C311.183211,75.9981742 311.218727,73.9436946 311.276516,73.7823693 L311.28125,73.7734375 C311.28125,73.7001949 311.830561,73.6612854 312.929198,73.6567078 L312.929198,73.6567078 Z M324.875,77.2890625 L314.914062,77.2890625 L314.914062,87.484375 L319.835938,87.484375 L324.875,87.3671875 L324.875,77.2890625 Z M364.601562,45.0625 L369.640625,45.0625 L369.631187,74.3209938 C369.602423,84.2955393 369.507913,89.5231346 369.347656,90.0039062 C369.152343,90.5898467 368.898439,91.2343715 368.585938,91.9375 C368.273436,92.6406285 367.960939,93.187498 367.648438,93.578125 C367.414061,93.8906266 367.101562,94.1835924 366.710938,94.4570312 C366.320311,94.7304701 365.890627,94.8671875 365.421875,94.8671875 L364.601562,94.8671875 L364.601562,45.0625 Z M375.382812,59.0078125 L376.320312,59.4765625 C377.023441,59.7890641 377.707028,60.1992162 378.371094,60.7070312 C379.03516,61.2148463 379.835933,61.9374953 380.773438,62.875 C381.554691,63.6562539 382.335934,64.5546824 383.117188,65.5703125 C383.898441,66.5078125 384.484373,67.2890594 384.875,67.9140625 C385.421878,68.6953164 386.046871,69.6718691 386.75,70.84375 C387.453129,72.0156309 388.156246,73.2656184 388.859375,74.59375 L389.406251,75.7656275 C389.718751,76.4427104 389.927083,76.911457 390.03125,77.171875 L390.265625,77.7578125 L389.914062,77.7578125 C389.835937,77.7578125 388.625012,77.8749988 386.28125,78.109375 L383,78.34375 C382.921875,78.2656246 382.726564,77.6015687 382.414062,76.3515625 L382.139137,75.4209527 C381.734184,74.0698474 381.435203,73.1691199 381.242188,72.71875 C380.851561,71.4687438 380.460939,70.2968805 380.070312,69.203125 C379.523435,67.796868 378.937503,66.5078125 378.3125,65.3359375 L378.020015,64.6831721 C377.590004,63.7476079 377.199221,63.0081703 376.847656,62.4648438 C376.417967,61.8007779 375.968752,61.2343773 375.5,60.765625 L374.679688,59.9453125 L375.03125,59.4765625 C375.187501,59.1640609 375.304687,59.0078125 375.382812,59.0078125 Z M352.0625,59.2421875 L357.101562,59.2421875 L357.100233,64.5834153 C357.090929,67.1978794 357.032779,68.93308 356.925781,69.7890625 C356.808593,70.7265672 356.632814,71.5859336 356.398438,72.3671875 C356.164061,73.1484414 355.851564,73.9687457 355.460938,74.828125 C354.992185,75.7656297 354.562502,76.5468719 354.171875,77.171875 C353.781248,77.8750035 353.273441,78.5976525 352.648438,79.3398438 C352.023434,80.082035 351.398441,80.7265598 350.773438,81.2734375 C350.070309,81.7421875 349.445315,82.171873 348.898438,82.5625 C348.35156,83.0312523 347.687504,83.4218734 346.90625,83.734375 L346.469396,84.0214507 C346.039477,84.298818 345.794471,84.4375 345.734375,84.4375 C345.66276,84.4375 345.623969,84.1420928 345.618001,83.5512703 L345.617188,82.4453125 L346.320312,81.9765625 C346.789065,81.6640609 347.277341,81.2734398 347.785156,80.8046875 C348.292971,80.3359352 348.781248,79.7890656 349.25,79.1640625 C349.718752,78.5390594 350.148436,77.9140656 350.539062,77.2890625 C350.773439,76.6640594 351.007811,76.0000035 351.242188,75.296875 C351.515626,74.6132778 351.699341,74.0194104 351.793335,73.5152594 L351.857392,73.1315276 C351.989416,72.2210173 352.057704,69.8764739 352.062256,66.0978411 L352.0625,59.2421875 Z M426.710938,45.1796875 L429.289062,45.1796875 L429.286554,51.2136635 C429.272063,53.9501841 429.194774,55.4935327 429.054688,55.84375 C428.976562,56.3125023 428.859375,56.7031234 428.703125,57.015625 L428.351562,57.71875 L428.351562,57.71875 L428.761719,57.7773438 C429.035158,57.8164064 429.367186,57.8359375 429.757812,57.8359375 L431.164062,57.8359375 L431.164062,47.875 L435.03125,47.875 L435.029622,52.6569039 C435.017687,55.0679367 434.940105,56.559893 434.796875,57.1328125 C434.71875,57.835941 434.562501,58.4218727 434.328125,58.890625 C434.093749,59.3593773 433.781252,59.7890605 433.390625,60.1796875 C432.999998,60.5703145 432.609377,60.8828113 432.21875,61.1171875 L431.900146,61.2197269 C431.614501,61.3076176 431.427735,61.3515625 431.339844,61.3515625 C431.222656,61.3515625 431.164062,61.156252 431.164062,60.765625 L431.164062,60.0625 L421.203125,60.0625 L420.617188,60.53125 C420.304686,60.8437516 419.953127,61.0781242 419.5625,61.234375 L419.225286,61.3132974 C419.104113,61.3388075 419.021206,61.3515625 418.976562,61.3515625 C418.898437,61.3515625 418.859375,59.1250223 418.859375,54.671875 L418.859375,47.875 L422.492188,47.875 L422.375,52.796875 L422.375,57.8359375 L424.25,57.8359375 L424.25,45.0625 L426.710938,45.1796875 Z M413.351562,46.1171875 L413.585938,45.4140625 L416.162442,45.4156845 C417.184288,45.4232536 417.729266,45.4573148 417.797389,45.5178687 L417.804688,45.53125 C417.882813,45.6093754 417.726564,46.0390586 417.335938,46.8203125 C416.945312,47.6015664 416.554689,48.3437465 416.164062,49.046875 C415.773436,49.7500035 415.30469,50.4531215 414.757812,51.15625 C414.28906,51.7812531 413.781253,52.4062469 413.234375,53.03125 C412.609372,53.7343785 411.906254,54.3593723 411.125,54.90625 C410.343746,55.6093785 409.523442,56.2343723 408.664062,56.78125 C407.804683,57.4062531 406.945312,57.9140625 406.085938,58.3046875 L405.740353,58.4912316 C405.094624,58.8356203 404.721541,59.0078125 404.621094,59.0078125 C404.503906,59.0078125 404.445312,58.7734398 404.445312,58.3046875 L404.445312,57.6015625 L405.382812,56.8984375 C406.007816,56.3515598 406.710934,55.6875039 407.492188,54.90625 C408.117191,54.2812469 408.742184,53.5390668 409.367188,52.6796875 C409.83594,52.1328098 410.382809,51.4296918 411.007812,50.5703125 C411.476565,49.7890586 411.945312,48.9296922 412.414062,47.9921875 C412.804689,47.289059 413.117186,46.6640652 413.351562,46.1171875 Z M441.599558,45.4159995 L444.816406,45.4140625 C445.01172,45.4140625 445.148437,45.4335936 445.226562,45.4726562 L445.34375,45.53125 L445.241211,45.9780267 C445.094727,46.5786106 444.816408,47.6406174 444.40625,49.1640625 L443.354484,52.8179765 C443.20451,53.3466712 443.086349,53.7693241 443,54.0859375 L442.724967,54.9259825 C442.595822,55.3313554 442.53125,55.5591515 442.53125,55.609375 L452.140625,55.609375 L452.140625,56.78125 L452.023438,57.8359375 L450.96875,57.953125 L450.03125,57.953125 L449.893682,58.9187591 C449.82235,59.5080192 449.751019,60.9439424 449.679688,63.2265625 L449.621094,64.076175 C449.484375,65.9902422 449.347657,67.4257765 449.210938,68.3828125 C448.976561,69.3984426 448.781251,70.3359332 448.625,71.1953125 L447.936225,73.4625305 C447.893176,73.6028368 447.849331,73.745535 447.804688,73.890625 C447.492186,74.7500043 447.179689,75.5703086 446.867188,76.3515625 L446.398438,77.5234375 L446.75,78.109375 L447.916381,79.596191 L447.916381,79.596191 L448.241609,80.0031835 C448.835745,80.7284926 449.861972,81.8550271 451.320312,83.3828125 L453.898438,85.9609375 L452.970273,91.8172522 C452.638078,93.8505508 452.439655,94.8671875 452.375,94.8671875 C452.296875,94.8671875 451.710943,94.1640695 450.617188,92.7578125 L449.199949,91.0933812 C448.504149,90.2694078 447.960938,89.6132837 447.570312,89.125 L446.310546,87.7480461 C445.939453,87.3378909 445.617189,86.9765641 445.34375,86.6640625 C444.796872,85.8828086 444.289065,85.1796906 443.820312,84.5546875 L443.443093,84.0054996 C443.201783,83.6684987 443.054087,83.5 443,83.5 L441.945312,84.7890625 C441.242184,85.7265672 440.265631,86.8593684 439.015625,88.1875 L438.258592,88.9375023 C437.302341,89.8750034 436.558596,90.5624978 436.027344,91 C435.363278,91.5468777 435.03125,91.8984367 435.03125,92.0546875 C435.03125,92.1848965 434.976997,92.2608509 434.86849,92.2825521 L434.796875,92.2890625 C434.640624,92.2890625 434.093755,92.6015594 433.15625,93.2265625 C432.296871,93.8515656 431.554691,94.1640625 430.929688,94.1640625 L430.109375,94.1640625 L433.273438,91 L432.570312,90.296875 C432.10156,89.7499973 431.593753,89.1250035 431.046875,88.421875 C430.499997,87.6406211 429.99219,86.8593789 429.523438,86.078125 C429.054685,85.1406203 428.703126,84.2812539 428.46875,83.5 C428.156248,82.6406207 427.960938,81.8984406 427.882812,81.2734375 C427.738581,80.6243958 427.627635,78.9435687 427.549972,76.2309109 L427.414062,70.9609375 L423.078125,70.9609375 L422.940592,76.3865591 C422.86301,79.0064684 422.752605,80.6744756 422.609375,81.390625 C422.453124,82.0937535 422.218752,82.8749957 421.90625,83.734375 C421.671874,84.5156289 421.437501,85.1406227 421.203125,85.609375 L420.944834,86.1163913 C420.779018,86.4352687 420.625957,86.7158795 420.485651,86.9582266 L420.382812,87.1328125 C420.148436,87.5234395 419.679691,88.1484332 418.976562,89.0078125 C418.429685,89.710941 417.765629,90.4531211 416.984375,91.234375 L416.557811,91.6140639 C416.04531,92.0640648 415.757813,92.2890625 415.695312,92.2890625 C415.539062,92.2890625 415.460938,92.0351588 415.460938,91.5273438 C415.460938,91.0195287 415.578124,90.6093766 415.8125,90.296875 C416.046876,89.906248 416.281249,89.5546891 416.515625,89.2421875 C416.750001,88.7734352 416.984374,88.1875035 417.21875,87.484375 C417.453126,86.7031211 417.687499,85.8437547 417.921875,84.90625 C418.078126,83.9687453 418.195312,83.0703168 418.273438,82.2109375 L418.296429,81.8723333 C418.354396,80.8423099 418.385609,78.7956544 418.390068,75.7323255 L418.390625,68.8515625 L432.101562,68.8515625 L432.101562,75.765625 L432.169851,78.9225017 C432.242773,81.6112716 432.337197,83.3324055 432.453125,84.0859375 L432.63617,84.975015 C432.771759,85.6122825 432.891529,86.1229974 432.99548,86.5071664 L433.039062,86.6640625 C433.273439,87.5234418 433.507811,88.2265598 433.742188,88.7734375 L433.901021,89.0446162 C434.121837,89.4107069 434.264204,89.59375 434.328125,89.59375 C434.388221,89.59375 434.586999,89.3857269 434.924463,88.969676 L435.265625,88.5390625 C435.890628,87.7578086 436.47656,86.9765664 437.023438,86.1953125 L437.660938,85.1828118 C437.970312,84.6859378 438.265624,84.2031273 438.546875,83.734375 C439.171878,82.6406195 439.679686,81.6250047 440.070312,80.6875 L440.890625,79.046875 L440.1875,76.8203125 C439.718748,75.4810201 439.336097,74.1991423 439.039541,72.974651 L438.898438,72.3671875 C438.585936,71.0390559 438.273439,69.5546957 437.960938,67.9140625 L437.375,64.046875 L437.375,64.046875 L437.225,62.8843727 C437.16875,62.4249983 437.140625,62.148438 437.140625,62.0546875 C437.0625,62.0546875 436.945313,62.0937496 436.789062,62.171875 L436.085938,62.5234375 C435.460938,62.9140625 434.777347,63.109375 434.035156,63.109375 L433.694986,63.1061198 C433.179576,63.0952692 432.921875,63.057292 432.921875,62.9921875 L432.934692,62.9372561 C432.994506,62.7492689 433.263669,62.1425833 433.742188,61.1171875 L434.052106,60.5360912 C434.534414,59.6237722 435.095167,58.5284155 435.734375,57.25 L436.583985,55.2578113 C436.83789,54.6718753 437.062499,54.1640646 437.257812,53.734375 L437.41823,53.2697905 C437.774827,52.2045122 438.190102,50.7578216 438.664062,48.9296875 L439.472657,46.0539031 C439.582032,45.6820295 439.644531,45.4882813 439.660156,45.4726562 C439.692117,45.4406959 440.338578,45.4218104 441.599558,45.4159995 L441.599558,45.4159995 Z M444.289062,57.953125 L441.125,57.953125 L440.65625,58.5390625 C440.343748,58.9296895 439.953127,59.3984348 439.484375,59.9453125 L438.664062,60.765625 L439.25,62.2890625 L439.79375,63.7515636 C440.05625,64.4640621 440.304686,65.1484342 440.539062,65.8046875 L441.300781,67.5624994 C441.574218,68.1874979 441.867186,68.851559 442.179688,69.5546875 L442.929688,71.2796877 C442.960937,71.3484375 442.984375,71.3984373 443,71.4296875 C443.078125,71.5859383 443.136719,71.6445314 443.175781,71.6054688 C443.214844,71.5664061 443.33203,70.9804744 443.527344,69.8476562 C443.694755,68.8766693 443.819117,68.0061402 443.90043,67.2360502 L443.959822,66.6117128 C444.030506,65.7500345 444.10119,64.1529134 444.171875,61.8203125 L444.289062,57.953125 Z M413.234375,56.1953125 L417.921875,56.1953125 L417.804688,56.4296875 C417.804688,56.6640637 417.648439,57.1718711 417.335938,57.953125 L416.398438,59.828125 C416.085936,60.4531281 415.773439,61.0390598 415.460938,61.5859375 L414.875,62.5234375 L414.870061,79.5384383 C414.863111,82.1349357 414.848823,84.0857726 414.827198,85.3909731 L414.816406,85.9609375 C414.777344,87.7578215 414.71875,88.8515605 414.640625,89.2421875 C414.5625,89.4765637 414.484375,89.7499984 414.40625,90.0625 C414.328125,90.3750016 414.210938,90.6484363 414.054688,90.8828125 C413.820311,91.3515648 413.546877,91.781248 413.234375,92.171875 C412.966517,92.4397335 412.612565,92.6788898 412.172514,92.8893492 L411.945312,92.9921875 C411.47656,93.2265637 411.007815,93.34375 410.539062,93.34375 L409.71875,93.34375 L409.71875,67.6796875 L408.664062,68.3828125 C407.960934,68.8515648 407.179692,69.281248 406.320312,69.671875 C405.675778,69.9062512 405.009278,70.1406247 404.320802,70.3749996 L403.273957,70.7250005 C402.565274,70.9552096 402.194011,71.0533856 402.160156,71.0195312 C402.121094,70.9804686 402.140625,70.7265648 402.21875,70.2578125 C402.289063,69.9062482 402.580857,69.5230484 403.09414,69.1082036 L403.273438,68.96875 C403.850363,68.5360555 404.626984,67.8370975 405.603318,66.8718575 L405.851562,66.625 C406.945318,65.5312445 407.843746,64.5937539 408.546875,63.8125 C409.074221,63.1093715 409.579589,62.4062509 410.062987,61.7031263 L410.539062,61 C411.242191,59.9843699 411.867185,58.9687551 412.414062,57.953125 L413.234375,56.1953125 Z M425.890625,63.9296875 L434.328125,63.9296875 L434.328125,66.15625 L417.335938,66.15625 L417.21875,65.21875 C417.21875,64.5937469 417.257812,64.2421879 417.335938,64.1640625 C417.335938,64.0078117 420.187471,63.9296875 425.890625,63.9296875 Z M468.546875,52.9140625 C468.46875,51.1171785 467.570321,50.21875 465.851562,50.21875 C463.976553,50.21875 463.039062,51.1562406 463.039062,53.03125 L463.039062,88.3046875 C463.039062,90.1015715 463.937491,91 465.734375,91 L483.898438,91 C485.773447,91 486.710938,90.1015715 486.710938,88.3046875 C486.710938,86.5078035 485.773447,85.609375 483.898438,85.609375 L468.546875,85.609375 L468.546875,52.9140625 Z M513.3125,85.4921875 C509.40623,85.4921875 506.085951,84.0859516 503.351562,81.2734375 C500.617174,78.382798 499.25,74.9062703 499.25,70.84375 C499.25,66.7812297 500.617174,63.3437641 503.351562,60.53125 C506.085951,57.6406105 509.40623,56.1953125 513.3125,56.1953125 C517.140644,56.1953125 520.421861,57.6406105 523.15625,60.53125 C525.890639,63.3437641 527.257812,66.7812297 527.257812,70.84375 C527.257812,74.9062703 525.890639,78.382798 523.15625,81.2734375 C520.421861,84.0859516 517.140644,85.4921875 513.3125,85.4921875 Z M513.3125,50.8046875 C507.999973,50.8046875 503.468769,52.757793 499.71875,56.6640625 C495.968731,60.570332 494.09375,65.2968473 494.09375,70.84375 C494.09375,76.3906527 495.968731,81.117168 499.71875,85.0234375 C503.468769,88.929707 507.999973,90.8828125 513.3125,90.8828125 C518.546901,90.8828125 523.039044,88.929707 526.789062,85.0234375 C530.539081,81.117168 532.414062,76.3906527 532.414062,70.84375 C532.414062,65.2968473 530.539081,60.570332 526.789062,56.6640625 C523.039044,52.757793 518.546901,50.8046875 513.3125,50.8046875 Z M557.023438,91 C561.710961,91 565.57811,89.3203293 568.625,85.9609375 C571.67189,82.6015457 573.312499,78.3437758 573.546875,73.1875 L573.664062,72.8359375 C573.664062,71.1953043 572.88282,70.3359375 571.320312,70.2578125 L552.570312,70.2578125 C551.007805,70.3359375 550.226562,71.1953043 550.226562,72.8359375 C550.226562,74.5546961 551.046867,75.4140625 552.6875,75.4140625 L568.507812,75.4140625 C567.101555,82.2109715 563.273469,85.609375 557.023438,85.609375 C553.351544,85.609375 550.226575,84.1250148 547.648438,81.15625 C545.0703,78.2656105 543.78125,74.7500207 543.78125,70.609375 C543.78125,66.5468547 545.0703,63.070327 547.648438,60.1796875 C550.304701,57.2109227 553.468732,55.7265625 557.140625,55.7265625 C561.437521,55.7265625 564.914049,57.9140406 567.570312,62.2890625 C568.039065,63.2265672 568.781245,63.6953125 569.796875,63.6953125 C571.437508,63.6953125 572.257812,62.796884 572.257812,61 L572.023438,59.828125 L572.023438,59.7109375 L571.554688,59.0078125 C567.96092,53.2265336 563.15628,50.3359375 557.140625,50.3359375 C552.062475,50.3359375 547.765643,52.3281051 544.25,56.3125 C540.656232,60.2968949 538.859375,65.0624723 538.859375,70.609375 C538.859375,76.3125285 540.61717,81.117168 544.132812,85.0234375 C547.648455,89.0078324 551.945287,91 557.023438,91 Z M599.679688,85.4921875 C595.773418,85.4921875 592.453139,84.0859516 589.71875,81.2734375 C586.984361,78.382798 585.617188,74.9062703 585.617188,70.84375 C585.617188,66.7812297 586.984361,63.3437641 589.71875,60.53125 C592.453139,57.6406105 595.773418,56.1953125 599.679688,56.1953125 C603.507832,56.1953125 606.789049,57.6406105 609.523438,60.53125 C612.257826,63.3437641 613.625,66.7812297 613.625,70.84375 C613.625,74.9062703 612.257826,78.382798 609.523438,81.2734375 C606.789049,84.0859516 603.507832,85.4921875 599.679688,85.4921875 Z M599.679688,50.8046875 C594.367161,50.8046875 589.835956,52.757793 586.085938,56.6640625 C582.335919,60.570332 580.460938,65.2968473 580.460938,70.84375 C580.460938,76.3906527 582.335919,81.117168 586.085938,85.0234375 C589.835956,88.929707 594.367161,90.8828125 599.679688,90.8828125 C604.914089,90.8828125 609.406231,88.929707 613.15625,85.0234375 C616.906269,81.117168 618.78125,76.3906527 618.78125,70.84375 C618.78125,65.2968473 616.906269,60.570332 613.15625,56.6640625 C609.406231,52.757793 604.914089,50.8046875 599.679688,50.8046875 Z M657.453125,42.953125 L659.914062,43.0703125 L659.914062,54.3203125 L667.648438,54.3203125 L675.382812,54.4375 L675.382812,56.546875 L665.070312,56.546875 L665.070312,57.953125 L665.161458,58.7213545 C665.230903,59.2769089 665.317708,59.9192672 665.421875,60.6484375 L665.539063,61.4394549 C665.65625,62.2011735 665.773437,62.8749971 665.890625,63.4609375 C666.125001,64.554693 666.398436,65.5703078 666.710938,66.5078125 C667.023439,67.6796934 667.41406,68.8515566 667.882812,70.0234375 C668.351565,71.1953184 668.859372,72.3281195 669.40625,73.421875 C669.843752,74.2968794 670.306249,75.1468735 670.793749,75.9718736 L671.164062,76.5859375 C671.867191,77.7578184 672.453123,78.6171848 672.921875,79.1640625 L673.317384,79.7207044 C673.698243,80.2480482 674.035155,80.6874982 674.328125,81.0390625 C674.796877,81.6640656 674.992188,82.0937488 674.914062,82.328125 C674.835937,82.5625012 674.757813,82.6796875 674.679688,82.6796875 C674.601562,82.6796875 674.19141,82.4257838 673.449219,81.9179688 C672.707028,81.4101537 671.867192,80.7656289 670.929688,79.984375 C669.914057,79.2031211 668.937505,78.3437547 668,77.40625 C667.062495,76.4687453 666.203129,75.4921926 665.421875,74.4765625 C664.796872,73.6640584 664.221876,72.8765639 663.696876,72.1140638 L663.3125,71.546875 C662.609371,70.5312449 662.062502,69.5937543 661.671875,68.734375 C661.203123,67.953125 660.812502,67.1328168 660.5,66.2734375 L660.03125,65.1015625 L659.914062,72.015625 L659.914062,78.9296875 L667.53125,78.9296875 L667.53125,81.0390625 L660.03125,81.0390625 L659.914062,86.78125 L659.91016,88.1792134 C659.892601,91.1358588 659.815777,92.8182943 659.679688,93.2265625 C659.523437,93.6953148 659.367188,94.124998 659.210938,94.515625 C658.976561,94.906252 658.742189,95.2578109 658.507812,95.5703125 C658.195311,95.8828141 657.80469,96.1562488 657.335938,96.390625 C656.867185,96.6250012 656.320316,96.7421875 655.695312,96.7421875 L654.757812,96.859375 L654.757812,89.0078125 L654.640625,81.15625 L650.539062,81.0390625 L646.320312,81.0390625 L646.320312,78.9296875 L650.539062,78.9296875 L654.640625,78.8125 L654.757812,72.3671875 L654.74009,68.2554882 C654.721523,66.6216161 654.688368,65.8046875 654.640625,65.8046875 C654.5625,65.8046875 654.445313,65.999998 654.289062,66.390625 C654.210937,66.781252 653.859378,67.523432 653.234375,68.6171875 C652.765623,69.5546922 652.179691,70.570307 651.476562,71.6640625 C650.851559,72.6015672 650.148441,73.5781199 649.367188,74.59375 C648.664059,75.453125 647.76563,76.429682 646.671875,77.5234375 C645.57812,78.617193 644.562505,79.5156215 643.625,80.21875 L643.136717,80.6256524 C642.355466,81.2658446 641.736981,81.7161445 641.28125,81.9765625 L640.863768,82.2841807 C640.497557,82.5478529 640.285157,82.6796875 640.226562,82.6796875 C640.148437,82.6796875 640.050782,82.5625012 639.933594,82.328125 C639.816406,82.0937488 640.187496,81.4687551 641.046875,80.453125 L641.647462,79.6254862 C642.204103,78.849119 642.628905,78.2265648 642.921875,77.7578125 C643.468753,77.054684 643.97656,76.2734418 644.445312,75.4140625 L644.989063,74.4953118 C645.251562,74.0453128 645.499999,73.6093771 645.734375,73.1875 C646.125002,72.4062461 646.554685,71.4687555 647.023438,70.375 L647.567188,69.0062489 C647.829687,68.3406253 648.078124,67.703128 648.3125,67.09375 C648.703127,65.9999945 649.015624,64.9453176 649.25,63.9296875 C649.562502,62.835932 649.816405,61.7226619 650.011719,60.5898438 C650.182618,59.5986279 650.308655,58.7420061 650.389831,58.0199594 L650.539062,56.546875 L640.226562,56.546875 L640.226562,54.3203125 L654.757812,54.3203125 L654.761932,46.8193902 C654.773834,44.3834719 654.811523,43.1337894 654.875,43.0703125 C654.953125,42.9921871 655.812492,42.953125 657.453125,42.953125 Z M635.539062,44.125 L641.515625,44.125 L641.515625,44.4765625 C641.515625,44.7109387 641.398439,45.2187461 641.164062,46 C641.007812,46.7812539 640.773439,47.6015582 640.460938,48.4609375 C640.148436,49.2421914 639.835939,49.9843715 639.523438,50.6875 L638.9375,51.859375 L638.927039,79.1458625 C638.901003,87.4150694 638.826365,91.7961023 638.703125,92.2890625 C638.572916,92.8098984 638.388456,93.2764749 638.14974,93.6888015 L638,93.9296875 C637.687498,94.4765652 637.316408,94.8671863 636.886719,95.1015625 C636.457029,95.3359387 636.085939,95.4921871 635.773438,95.5703125 C635.460936,95.7265633 635.070315,95.8046875 634.601562,95.8046875 L633.898438,95.8046875 L633.898438,58.7734375 L632.960938,59.4765625 C632.335934,60.0234402 631.710941,60.4921855 631.085938,60.8828125 C630.304684,61.2734395 629.562504,61.625 628.859375,61.9375 L628.068359,62.1901856 C628.009766,62.2072754 627.960938,62.2207031 627.921875,62.2304688 C627.791666,62.263021 627.715712,62.2548831 627.69401,62.2060548 L627.6875,62.171875 C627.609375,62.0156242 627.960934,61.3515684 628.742188,60.1796875 L629.387915,59.1106505 C629.694036,58.6068252 630.025668,58.064735 630.382812,57.484375 L630.870312,56.603126 C631.170311,56.0500026 631.554685,55.3281295 632.023438,54.4375 L632.397788,53.6790341 C632.994577,52.452904 633.455728,51.4166709 633.78125,50.5703125 L634.066895,49.7207013 C634.345215,48.9003889 634.601561,48.167972 634.835938,47.5234375 L635.421875,45.1796875 L635.539062,44.125 Z" id="站酷小微LOGO体" fill="#000000" fill-rule="nonzero"></path>
    </g>
</svg>