<?xml version="1.0" encoding="UTF-8"?>
<svg width="900px" height="140px" viewBox="0 0 900 140" version="1.1" xmlns="http://www.w3.org/2000/svg" xmlns:xlink="http://www.w3.org/1999/xlink">
    <!-- Generator: Sketch 59.1 (86144) - https://sketch.com -->
    <title>preview</title>
    <desc>Created with Sketch.</desc>
    <g id="preview" stroke="none" stroke-width="1" fill="none" fill-rule="evenodd">
        <path d="M354.9,68 L354.9,88.7 L329.58,88.7 L329.58,68 L336.3,68.06 L336.3,68 L338.46,68 L338.46,52.04 L345.3,52.04 L345.3,58.34 L355.02,58.34 L353.4,61.04 L345.3,61.04 L345.3,68 L354.9,68 Z M336.42,70.76 L336.42,86.06 L348.12,86.06 L348.12,68.96 L346.68,70.76 L336.42,70.76 Z M318.66,84.8 L322.26,60.98 L329.52,60.98 L325.8,84.8 L318.66,84.8 Z M310.02,84.8 L306.3,60.98 L313.56,60.98 L317.16,84.8 L310.02,84.8 Z M304.92,56.24 L314.7,56.24 L312.72,52.1 L319.98,52.1 L321.84,56.24 L331.2,56.24 L328.92,58.94 L304.92,58.94 L304.92,56.24 Z M304.92,85.82 L329.16,85.82 L326.88,88.58 L304.92,88.58 L304.92,85.82 Z M388.8,63.08 L388.8,66.02 L400.38,66.02 L400.38,58.76 L395.7,58.76 L394.8,63.08 L388.8,63.08 Z M388.8,61.4 L388.8,63.08 L390.9,53.6 L396.84,53.6 L396.3,56.12 L400.38,56.12 L400.38,52.04 L406.38,52.04 L406.38,56.12 L415.26,56.12 L413.76,58.76 L406.38,58.76 L406.38,66.02 L416.04,66.02 L414.6,68.66 L388.8,68.66 L388.8,88.7 L363.9,88.7 L363.9,61.4 L370.38,61.4 L370.38,56.06 L363.9,56.06 L363.9,53.48 L388.8,53.48 L387.36,56.06 L381.6,56.06 L381.6,61.4 L388.8,61.4 Z M407.16,73.82 L396.72,73.82 L396.72,86.06 L408.66,86.06 L408.66,71.18 L414.6,71.18 L414.6,88.7 L390.78,88.7 L390.78,71.18 L408.66,71.18 L407.16,73.82 Z M373.2,76.94 L369.24,76.94 L369.24,79.82 L382.86,79.82 L382.86,76.04 L382.26,76.94 L377.04,76.94 L377.04,64.04 L374.94,64.04 L374.94,72.26 L373.2,76.94 Z M369.24,86.06 L382.86,86.06 L382.86,82.46 L369.24,82.46 L369.24,86.06 Z M381.6,74.3 L382.86,74.3 L382.86,64.04 L381.6,64.04 L381.6,74.3 Z M374.94,61.4 L377.04,61.4 L377.04,56.06 L374.94,56.06 L374.94,61.4 Z M370.38,72.26 L370.38,64.04 L369.24,64.04 L369.24,75.32 L370.38,72.26 Z M424.86,70.34 L474.78,70.34 L474.78,88.76 L463.2,88.76 L461.58,85.94 L467.88,85.94 L467.88,73.16 L431.7,73.16 L431.7,88.76 L424.86,88.76 L424.86,70.34 Z M470.76,68.24 L429.12,68.24 L429.12,59.42 L470.76,59.42 L470.76,68.24 Z M466.26,84.98 L433.5,84.98 L433.5,75.62 L466.26,75.62 L466.26,84.98 Z M473.58,57.38 L424.56,57.38 L424.56,54.62 L446.82,54.62 L446.82,51.98 L453.66,51.98 L453.66,54.62 L475.38,54.62 L473.58,57.38 Z M435.9,65.72 L463.92,65.72 L463.92,59.96 L462.18,61.76 L435.9,61.76 L435.9,65.72 Z M459.42,76.1 L457.62,77.9 L440.46,77.9 L440.46,82.46 L459.42,82.46 L459.42,76.1 Z M522.48,69.62 L535.26,69.62 L535.26,88.82 L524.34,88.82 L523.44,87.2 L522.18,87.2 L522.18,72.44 L518.82,72.44 L518.82,87.2 L514.62,87.2 L514.62,72.44 L512.58,72.44 L512.58,88.82 L505.74,88.82 L505.74,69.62 L515.64,69.62 L516.96,66.44 L505.74,66.44 L505.74,63.62 L535.26,63.62 L533.64,66.44 L523.8,66.44 L522.48,69.62 Z M533.64,61.82 L506.58,61.82 L506.58,52.04 L513.42,52.04 L513.42,59.06 L516.84,59.06 L516.84,52.04 L523.68,52.04 L523.68,59.06 L526.8,59.06 L526.8,52.04 L533.64,52.04 L533.64,61.82 Z M501.9,83.12 L504.78,82.64 L504.78,85.46 L484.74,88.88 L484.74,86.06 L495.06,84.26 L496.38,61.58 L503.16,61.58 L501.9,83.12 Z M494.1,81.62 L487.26,81.62 L486.12,61.58 L492.9,61.58 L494.1,81.62 Z M498.12,56.12 L504.78,56.12 L503.16,58.94 L484.74,58.94 L484.74,56.12 L491.34,56.12 L491.34,51.86 L498.12,51.86 L498.12,56.12 Z M528.42,69.62 L526.8,72.44 L526.38,72.44 L526.38,85.94 L528.42,85.94 L528.42,69.62 Z M596.34,75.86 L594.72,79.04 L543.6,79.04 L543.6,75.86 L566.82,75.86 L566.82,73.46 L546.12,73.46 L546.12,70.34 L566.82,70.34 L566.82,68.42 L545.82,68.42 L545.82,51.92 L587.46,51.92 L585.84,54.74 L574.38,54.74 L574.38,65.48 L587.52,65.48 L587.52,57.92 L584.16,63.08 L577.62,63.08 L581.34,57.26 L587.52,57.26 L587.52,51.92 L594.6,51.92 L594.6,68.42 L574.38,68.42 L574.38,70.34 L593.82,70.34 L592.14,73.46 L574.38,73.46 L574.38,75.86 L596.34,75.86 Z M566.82,65.48 L566.82,54.74 L553.2,54.74 L553.2,65.48 L566.82,65.48 Z M583.32,88.82 L575.7,88.82 L571.68,80.6 L579.3,80.6 L583.32,88.82 Z M563.88,88.82 L559.74,80.6 L567.24,80.6 L571.26,88.82 L563.88,88.82 Z M548.7,80.6 L556.08,80.6 L552,88.82 L544.56,88.82 L548.7,80.6 Z M595.26,88.82 L587.88,88.82 L583.86,80.6 L591.24,80.6 L595.26,88.82 Z M564.9,63.08 L558.06,63.08 L554.22,57.26 L561.18,57.26 L564.9,63.08 Z" id="站酷高端黑" fill="#000000" fill-rule="nonzero"></path>
    </g>
</svg>