<?xml version="1.0" encoding="UTF-8"?>
<svg width="900px" height="140px" viewBox="0 0 900 140" version="1.1" xmlns="http://www.w3.org/2000/svg" xmlns:xlink="http://www.w3.org/1999/xlink">
    <!-- Generator: Sketch 59.1 (86144) - https://sketch.com -->
    <title>preview</title>
    <desc>Created with Sketch.</desc>
    <g id="preview" stroke="none" stroke-width="1" fill="none" fill-rule="evenodd">
        <path d="M296.32,61.98 C296.920003,61.98 297.419998,62.179998 297.82,62.58 C298.220002,62.98 298.42,63.48 298.42,64.08 L298.42,81.78 C298.42,82.380003 298.489999,82.8899979 298.63,83.31 C298.770001,83.7300021 298.939999,83.94 299.14,83.94 L300.1,83.94 C300.220001,83.94 300.3,84.139998 300.34,84.54 C300.38,84.940002 300.4,85.439997 300.4,86.04 L300.4,87.36 C300.4,87.960003 300.250001,88.4699979 299.95,88.89 C299.649998,89.3100021 299.280002,89.52 298.84,89.52 C298.439998,89.52 297.940003,89.3700015 297.34,89.07 C296.739997,88.7699985 296.240002,88.4000022 295.84,87.96 L294.4,86.52 C293.959998,86.0799978 293.600001,85.5100035 293.32,84.81 C293.039999,84.1099965 292.9,83.48 292.9,82.92 L292.9,64.08 C292.9,63.48 293.099998,62.98 293.5,62.58 C293.9,62.179998 294.379997,61.98 294.94,61.98 L296.32,61.98 Z M291.94,55.44 C291.94,54.84 292.139998,54.34 292.54,53.94 C292.94,53.539998 293.419997,53.34 293.98,53.34 L309.22,53.34 C309.820003,53.34 310.329998,53.539998 310.75,53.94 C311.170002,54.34 311.38,54.84 311.38,55.44 L311.38,56.82 C311.38,57.3800028 311.170002,57.8699979 310.75,58.29 C310.329998,58.7100021 309.820003,58.92 309.22,58.92 L293.98,58.92 C293.419997,58.92 292.94,58.7100021 292.54,58.29 C292.139998,57.8699979 291.94,57.3800028 291.94,56.82 L291.94,55.44 Z M304.18,83.94 C304.380001,83.94 304.539999,83.7300021 304.66,83.31 C304.780001,82.8899979 304.84,82.380003 304.84,81.78 L304.84,64.08 C304.84,63.48 305.049998,62.98 305.47,62.58 C305.890002,62.179998 306.399997,61.98 307,61.98 L308.32,61.98 C308.920003,61.98 309.419998,62.179998 309.82,62.58 C310.220002,62.98 310.42,63.48 310.42,64.08 L310.42,82.92 C310.42,83.48 310.280001,84.1099965 310,84.81 C309.719999,85.5100035 309.36,86.0799978 308.92,86.52 L307.48,87.96 C307.039998,88.4000022 306.530003,88.7699985 305.95,89.07 C305.369997,89.3700015 304.86,89.52 304.42,89.52 C304.019998,89.52 303.660002,89.3100021 303.34,88.89 C303.019998,88.4699979 302.86,87.960003 302.86,87.36 L302.86,86.04 C302.86,85.439997 302.89,84.940002 302.95,84.54 C303.01,84.139998 303.08,83.94 303.16,83.94 L304.18,83.94 Z M325.12,55.2 C324.519997,55.2 324.020002,55.4099979 323.62,55.83 C323.219998,56.2500021 323.02,56.7399972 323.02,57.3 L323.02,62.16 C323.02,62.760003 323.219998,63.259998 323.62,63.66 C324.020002,64.060002 324.519997,64.26 325.12,64.26 L329.8,64.26 C330.400003,64.26 330.899998,64.4699979 331.3,64.89 C331.700002,65.3100021 331.9,65.819997 331.9,66.42 L331.9,91.56 C331.9,92.1200028 331.760001,92.7499965 331.48,93.45 C331.199999,94.1500035 330.840002,94.6799982 330.4,95.04 L329.02,96.54 C328.58,96.9800022 328.010003,97.3399986 327.31,97.62 C326.609996,97.9000014 325.980003,98.04 325.42,98.04 L314.68,98.04 C314.08,98.04 313.58,97.8300021 313.18,97.41 C312.779998,96.9899979 312.58,96.5000028 312.58,95.94 L312.58,66.42 C312.58,65.819997 312.779998,65.3100021 313.18,64.89 C313.58,64.4699979 314.08,64.26 314.68,64.26 L315.34,64.26 C315.900003,64.26 316.389998,64.060002 316.81,63.66 C317.230002,63.259998 317.44,62.760003 317.44,62.16 L317.44,45.12 C317.44,44.5599972 317.649998,44.0700021 318.07,43.65 C318.490002,43.2299979 318.979997,43.02 319.54,43.02 L320.86,43.02 C321.460003,43.02 321.969998,43.2299979 322.39,43.65 C322.810002,44.0700021 323.02,44.5599972 323.02,45.12 L323.02,47.58 C323.02,48.180003 323.219998,48.679998 323.62,49.08 C324.020002,49.480002 324.519997,49.68 325.12,49.68 L329.8,49.68 C330.400003,49.68 330.899998,49.879998 331.3,50.28 C331.700002,50.680002 331.9,51.179997 331.9,51.78 L331.9,53.16 C331.9,53.7200028 331.700002,54.199998 331.3,54.6 C330.899998,55.000002 330.400003,55.2 329.8,55.2 L325.12,55.2 Z M326.32,71.88 C326.32,71.3199972 326.120002,70.84 325.72,70.44 C325.319998,70.039998 324.820003,69.84 324.22,69.84 L320.2,69.84 C319.639997,69.84 319.140002,70.039998 318.7,70.44 C318.259998,70.84 318.04,71.3199972 318.04,71.88 L318.04,90.36 C318.04,90.960003 318.259998,91.459998 318.7,91.86 C319.140002,92.260002 319.639997,92.46 320.2,92.46 L324.22,92.46 C324.820003,92.46 325.319998,92.260002 325.72,91.86 C326.120002,91.459998 326.32,90.960003 326.32,90.36 L326.32,71.88 Z M291.94,94.44 C291.94,93.8799972 292.139998,93.4 292.54,93 C292.94,92.599998 293.419997,92.4 293.98,92.4 L309.22,92.4 C309.820003,92.4 310.329998,92.599998 310.75,93 C311.170002,93.4 311.38,93.8799972 311.38,94.44 L311.38,95.88 C311.38,96.4400028 311.170002,96.9299979 310.75,97.35 C310.329998,97.7700021 309.820003,97.98 309.22,97.98 L293.98,97.98 C293.419997,97.98 292.94,97.7700021 292.54,97.35 C292.139998,96.9299979 291.94,96.4400028 291.94,95.88 L291.94,94.44 Z M311.38,44.34 C311.38,44.740002 311.240001,45.2099973 310.96,45.75 C310.679999,46.2900027 310.320002,46.7799978 309.88,47.22 L308.38,48.72 C307.979998,49.0800018 307.430003,49.4099985 306.73,49.71 C306.029996,50.0100015 305.400003,50.16 304.84,50.16 L293.98,50.16 C293.419997,50.16 292.94,49.96 292.54,49.56 C292.139998,49.159998 291.94,48.660003 291.94,48.06 L291.94,46.68 C291.94,46.079997 292.139998,45.580002 292.54,45.18 C292.94,44.779998 293.419997,44.58 293.98,44.58 L303.76,44.58 C304.320003,44.58 304.799998,44.5000008 305.2,44.34 C305.555557,44.1977771 305.753087,44.0397537 305.792593,43.8659262 L305.8,43.8 C305.8,43.5599988 306.009998,43.3600008 306.43,43.2 C306.850002,43.0399992 307.339997,42.96 307.9,42.96 L309.22,42.96 C309.820003,42.96 310.329998,43.0999986 310.75,43.38 C311.170002,43.6600014 311.38,43.9799982 311.38,44.34 Z M342.88,54.54 C343.000001,54.54 343.119999,54.3300021 343.24,53.91 C343.360001,53.4899979 343.42,53.0000028 343.42,52.44 L343.42,50.58 C343.42,50.0199972 343.220002,49.5300021 342.82,49.11 C342.419998,48.6899979 341.920003,48.48 341.32,48.48 L339.88,48.48 C339.319997,48.48 338.84,48.280002 338.44,47.88 C338.039998,47.479998 337.84,46.980003 337.84,46.38 L337.84,45 C337.84,44.4399972 338.039998,43.96 338.44,43.56 C338.84,43.159998 339.319997,42.96 339.88,42.96 L355.72,42.96 C356.280003,42.96 356.769998,43.159998 357.19,43.56 C357.610002,43.96 357.82,44.4399972 357.82,45 L357.82,46.38 C357.82,46.980003 357.610002,47.479998 357.19,47.88 C356.769998,48.280002 356.280003,48.48 355.72,48.48 L354.4,48.48 C353.799997,48.48 353.300002,48.6899979 352.9,49.11 C352.499998,49.5300021 352.3,50.0199972 352.3,50.58 L352.3,52.44 C352.3,53.0000028 352.33,53.4899979 352.39,53.91 C352.45,54.3300021 352.559999,54.54 352.72,54.54 L355.72,54.54 C356.280003,54.54 356.769998,54.739998 357.19,55.14 C357.610002,55.540002 357.82,56.0199972 357.82,56.58 L357.82,91.5 C357.82,92.0600028 357.690001,92.7099963 357.43,93.45 C357.169999,94.1900037 356.860002,94.7999976 356.5,95.28 L355.72,96.3 C355.399998,96.7400022 354.900003,97.1399982 354.22,97.5 C353.539997,97.8600018 352.920003,98.04 352.36,98.04 L339.88,98.04 C339.319997,98.04 338.84,97.8300021 338.44,97.41 C338.039998,96.9899979 337.84,96.5000028 337.84,95.94 L337.84,56.58 C337.84,56.0199972 338.039998,55.540002 338.44,55.14 C338.84,54.739998 339.319997,54.54 339.88,54.54 L342.88,54.54 Z M359.02,73.5 C359.02,72.899997 359.219998,72.3900021 359.62,71.97 C360.02,71.5499979 360.52,71.34 361.12,71.34 L375.82,71.34 C376.380003,71.34 376.859998,71.5499979 377.26,71.97 C377.660002,72.3900021 377.86,72.899997 377.86,73.5 L377.86,91.56 C377.86,92.1200028 377.720001,92.7599964 377.44,93.48 C377.159999,94.2000036 376.860002,94.7799978 376.54,95.22 L375.34,96.42 C374.939998,96.8600022 374.410003,97.2399984 373.75,97.56 C373.089997,97.8800016 372.460003,98.04 371.86,98.04 L361.12,98.04 C360.52,98.04 360.02,97.8300021 359.62,97.41 C359.219998,96.9899979 359.02,96.5000028 359.02,95.94 L359.02,73.5 Z M364.96,62.52 C365.52,62.52 365.999998,62.320002 366.4,61.92 C366.800002,61.519998 367,61.020003 367,60.42 L367,56.76 C367,56.159997 366.800002,55.660002 366.4,55.26 C366.044443,54.9044427 365.625679,54.7069132 365.143704,54.6674073 L364.96,54.66 C364.359997,54.66 363.730003,54.5100015 363.07,54.21 C362.409997,53.9099985 361.880002,53.5400022 361.48,53.1 L360.34,51.84 C359.939998,51.3999978 359.620001,50.8200036 359.38,50.1 C359.139999,49.3799964 359.02,48.720003 359.02,48.12 L359.02,45.06 C359.02,44.4999972 359.219998,44.0100021 359.62,43.59 C360.02,43.1699979 360.52,42.96 361.12,42.96 L361.9,42.96 C362.460003,42.96 362.939998,43.1699979 363.34,43.59 C363.740002,44.0100021 363.94,44.4999972 363.94,45.06 L363.94,47.04 C363.94,47.6000028 364.089998,48.079998 364.39,48.48 C364.690001,48.880002 365.059998,49.08 365.5,49.08 C365.940002,49.08 366.299999,48.880002 366.58,48.48 C366.860001,48.079998 367,47.6000028 367,47.04 L367,45.06 C367,44.4999972 367.209998,44.0100021 367.63,43.59 C368.050002,43.1699979 368.539997,42.96 369.1,42.96 L370,42.96 C370.560003,42.96 371.039998,43.1699979 371.44,43.59 C371.840002,44.0100021 372.04,44.4999972 372.04,45.06 L372.04,47.04 C372.04,47.6000028 372.239998,48.079998 372.64,48.48 C373.040002,48.880002 373.539997,49.08 374.14,49.08 L375.82,49.08 C376.380003,49.08 376.859998,49.2899979 377.26,49.71 C377.660002,50.1300021 377.86,50.6199972 377.86,51.18 L377.86,52.62 C377.86,53.1800028 377.660002,53.659998 377.26,54.06 C376.859998,54.46 376.380003,54.66 375.82,54.66 L374.14,54.66 C373.539997,54.66 373.040002,54.859998 372.64,55.26 C372.239998,55.660002 372.04,56.159997 372.04,56.76 L372.04,60.42 C372.04,61.020003 372.239998,61.519998 372.64,61.92 C373.040002,62.320002 373.539997,62.52 374.14,62.52 L375.82,62.52 C376.380003,62.52 376.859998,62.7299979 377.26,63.15 C377.660002,63.5700021 377.86,64.079997 377.86,64.68 L377.86,66 C377.86,66.5600028 377.660002,67.0499979 377.26,67.47 C376.859998,67.8900021 376.380003,68.1 375.82,68.1 L361.12,68.1 C360.52,68.1 360.02,67.8900021 359.62,67.47 C359.219998,67.0499979 359.02,66.5600028 359.02,66 L359.02,64.68 C359.02,64.079997 359.219998,63.5700021 359.62,63.15 C360.02,62.7299979 360.52,62.52 361.12,62.52 L364.96,62.52 Z M366.1,76.92 C365.539997,76.92 365.040002,77.1299979 364.6,77.55 C364.159998,77.9700021 363.94,78.4599972 363.94,79.02 L363.94,90.36 C363.94,90.960003 364.159998,91.459998 364.6,91.86 C365.040002,92.260002 365.539997,92.46 366.1,92.46 L370.78,92.46 C371.340003,92.46 371.819998,92.260002 372.22,91.86 C372.620002,91.459998 372.82,90.960003 372.82,90.36 L372.82,79.02 C372.82,78.4599972 372.620002,77.9700021 372.22,77.55 C371.819998,77.1299979 371.340003,76.92 370.78,76.92 L366.1,76.92 Z M349.48,80.7 C349.159998,80.1799974 348.890001,79.5400038 348.67,78.78 C348.449999,78.0199962 348.34,77.3600028 348.34,76.8 L348.34,62.16 C348.34,61.5999972 348.290001,61.1100021 348.19,60.69 C348.089999,60.2699979 347.960001,60.06 347.8,60.06 C347.639999,60.06 347.52,60.2699979 347.44,60.69 C347.36,61.1100021 347.32,61.5999972 347.32,62.16 L347.32,76.8 C347.32,77.3600028 347.200001,78.0099963 346.96,78.75 C346.719999,79.4900037 346.400002,80.0999976 346,80.58 L345.82,81 C345.419998,81.4400022 345.000002,81.8399982 344.56,82.2 C344.174998,82.515 343.835938,82.6921875 343.542813,82.7315625 L343.42,82.74 C343.099998,82.74 342.830001,82.8799986 342.61,83.16 C342.389999,83.4400014 342.28,83.7599982 342.28,84.12 C342.28,84.520002 342.489998,84.8499987 342.91,85.11 C343.330002,85.3700013 343.819997,85.5 344.38,85.5 L351.22,85.5 C351.820003,85.5 352.319998,85.4100009 352.72,85.23 C353.120002,85.0499991 353.32,84.8000016 353.32,84.48 C353.32,84.1199982 353.220001,83.8300011 353.02,83.61 C352.819999,83.3899989 352.560002,83.28 352.24,83.28 C351.919998,83.28 351.550002,83.1000018 351.13,82.74 C350.709998,82.3799982 350.340002,81.9600024 350.02,81.48 L349.48,80.7 Z M342.88,60.06 C342.679999,60.06 342.530001,60.2699979 342.43,60.69 C342.329999,61.1100021 342.28,61.5999972 342.28,62.16 L342.28,75.6 C342.28,76.200003 342.329999,76.699998 342.43,77.1 C342.530001,77.500002 342.679999,77.7 342.88,77.7 C343.000001,77.7 343.119999,77.500002 343.24,77.1 C343.360001,76.699998 343.42,76.200003 343.42,75.6 L343.42,62.16 C343.42,61.5999972 343.360001,61.1100021 343.24,60.69 C343.119999,60.2699979 343.000001,60.06 342.88,60.06 Z M351.22,92.46 C351.820003,92.46 352.319998,92.360001 352.72,92.16 C353.120002,91.959999 353.32,91.760001 353.32,91.56 C353.32,91.2399984 353.120002,91.0000008 352.72,90.84 C352.319998,90.6799992 351.820003,90.6 351.22,90.6 L344.38,90.6 C343.819997,90.6 343.330002,90.6799992 342.91,90.84 C342.489998,91.0000008 342.28,91.2399984 342.28,91.56 C342.28,91.760001 342.489998,91.959999 342.91,92.16 C343.330002,92.360001 343.819997,92.46 344.38,92.46 L351.22,92.46 Z M352.72,60.06 C352.559999,60.06 352.45,60.2699979 352.39,60.69 C352.33,61.1100021 352.3,61.5999972 352.3,62.16 L352.3,76.26 C352.3,76.8200028 352.33,77.3099979 352.39,77.73 C352.45,78.1500021 352.559999,78.36 352.72,78.36 C352.920001,78.36 353.069999,78.1500021 353.17,77.73 C353.27,77.3099979 353.32,76.8200028 353.32,76.26 L353.32,62.16 C353.32,61.5999972 353.27,61.1100021 353.17,60.69 C353.069999,60.2699979 352.920001,60.06 352.72,60.06 Z M347.32,52.44 C347.32,53.0000028 347.36,53.4899979 347.44,53.91 C347.52,54.3300021 347.639999,54.54 347.8,54.54 C347.960001,54.54 348.089999,54.3300021 348.19,53.91 C348.290001,53.4899979 348.34,53.0000028 348.34,52.44 L348.34,50.58 C348.34,50.0199972 348.290001,49.5300021 348.19,49.11 C348.089999,48.6899979 347.960001,48.48 347.8,48.48 C347.639999,48.48 347.52,48.6899979 347.44,49.11 C347.36,49.5300021 347.32,50.0199972 347.32,50.58 L347.32,52.44 Z M423.28,95.94 C423.28,96.5000028 423.080002,96.9899979 422.68,97.41 C422.279998,97.8300021 421.780003,98.04 421.18,98.04 L417.16,98.04 C416.559997,98.04 415.970003,97.8600018 415.39,97.5 C414.809997,97.1399982 414.400001,96.6800028 414.16,96.12 L408.94,86.28 C408.699999,85.7599974 408.400002,85.5 408.04,85.5 C407.68,85.5 407.360001,85.7599974 407.08,86.28 L401.86,96.12 C401.619999,96.6800028 401.200003,97.1399982 400.6,97.5 C399.999997,97.8600018 399.420003,98.04 398.86,98.04 L394.84,98.04 C394.239997,98.04 393.740002,97.8300021 393.34,97.41 C392.939998,96.9899979 392.74,96.5000028 392.74,95.94 L392.74,94.62 C392.74,94.019997 392.939998,93.520002 393.34,93.12 C393.740002,92.719998 394.239997,92.52 394.84,92.52 L395.56,92.52 C396.120003,92.52 396.68,92.3400018 397.24,91.98 C397.800003,91.6199982 398.239998,91.1600028 398.56,90.6 L404.38,79.62 C404.620001,79.0599972 404.829999,78.4900029 405.01,77.91 C405.190001,77.3299971 405.28,76.8800016 405.28,76.56 C405.28,76.2399984 405.080002,75.9500013 404.68,75.69 C404.279998,75.4299987 403.780003,75.3 403.18,75.3 L394.78,75.3 C394.18,75.3 393.68,75.100002 393.28,74.7 C392.879998,74.299998 392.68,73.8200028 392.68,73.26 L392.68,71.88 C392.68,71.3199972 392.879998,70.840002 393.28,70.44 C393.68,70.039998 394.18,69.84 394.78,69.84 L403.18,69.84 C403.780003,69.84 404.279998,69.6300021 404.68,69.21 C405.080002,68.7899979 405.28,68.3000028 405.28,67.74 L405.28,64.74 C405.28,64.1799972 405.479998,63.6800022 405.88,63.24 C406.280002,62.7999978 406.779997,62.58 407.38,62.58 L408.7,62.58 C409.260003,62.58 409.749998,62.7999978 410.17,63.24 C410.590002,63.6800022 410.8,64.1799972 410.8,64.74 L410.8,67.74 C410.8,68.3000028 410.999998,68.7899979 411.4,69.21 C411.800002,69.6300021 412.299997,69.84 412.9,69.84 L421.12,69.84 C421.720003,69.84 422.219998,70.039998 422.62,70.44 C423.020002,70.840002 423.22,71.3199972 423.22,71.88 L423.22,73.26 C423.22,73.8200028 423.020002,74.299998 422.62,74.7 C422.219998,75.100002 421.720003,75.3 421.12,75.3 L412.9,75.3 C412.299997,75.3 411.800002,75.4299987 411.4,75.69 C410.999998,75.9500013 410.8,76.2399984 410.8,76.56 C410.8,76.8800016 410.889999,77.3499969 411.07,77.97 C411.250001,78.5900031 411.459999,79.1399976 411.7,79.62 L417.46,90.6 C417.740001,91.1600028 418.18,91.6199982 418.78,91.98 C419.380003,92.3400018 419.959997,92.52 420.52,92.52 L421.18,92.52 C421.780003,92.52 422.279998,92.719998 422.68,93.12 C423.080002,93.520002 423.28,94.019997 423.28,94.62 L423.28,95.94 Z M423.22,57.42 C423.22,58.020003 423.020002,58.519998 422.62,58.92 C422.219998,59.320002 421.720003,59.52 421.12,59.52 L393.34,59.52 C392.779997,59.52 392.280002,59.719998 391.84,60.12 C391.399998,60.520002 391.18,61.019997 391.18,61.62 L391.18,91.38 C391.18,91.980003 391.050001,92.6199966 390.79,93.3 C390.529999,93.9800034 390.180002,94.5399978 389.74,94.98 L388.24,96.42 C387.799998,96.820002 387.300003,97.1699985 386.74,97.47 C386.179997,97.7700015 385.700002,97.92 385.3,97.92 C384.859998,97.92 384.490002,97.720002 384.19,97.32 C383.889998,96.919998 383.74,96.420003 383.74,95.82 L383.74,94.44 C383.74,93.8799972 383.829999,93.3800022 384.01,92.94 C384.170001,92.5488889 384.369505,92.3316049 384.608518,92.2881481 L384.7,92.28 C385.020002,92.28 385.269999,92.080002 385.45,91.68 C385.630001,91.279998 385.72,90.8000028 385.72,90.24 L385.72,54.84 C385.72,54.5999988 385.929998,54.4000008 386.35,54.24 C386.770002,54.0799992 387.259997,54 387.82,54 L421.12,54 C421.720003,54 422.219998,54.199998 422.62,54.6 C423.020002,55 423.22,55.5 423.22,56.1 L423.22,57.42 Z M422.68,43.44 C423.080002,43.7600016 423.28,44.1399978 423.28,44.58 C423.28,45.0200022 423.140001,45.5499969 422.86,46.17 C422.579999,46.7900031 422.22,47.3199978 421.78,47.76 L420.34,49.14 C419.939998,49.5800022 419.390004,49.9399986 418.69,50.22 C417.989996,50.5000014 417.360003,50.64 416.8,50.64 L387.82,50.64 C387.259997,50.64 386.770002,50.440002 386.35,50.04 C385.929998,49.639998 385.72,49.140003 385.72,48.54 L385.72,47.22 C385.72,46.619997 385.929998,46.120002 386.35,45.72 C386.770002,45.319998 387.259997,45.12 387.82,45.12 L415.66,45.12 C416.260003,45.12 416.759998,45.020001 417.16,44.82 C417.515557,44.6422213 417.713087,44.4170381 417.752593,44.1444448 L417.76,44.04 C417.76,43.7199984 417.969998,43.46 418.39,43.26 C418.810002,43.059999 419.299997,42.96 419.86,42.96 L421.18,42.96 C421.780003,42.96 422.279998,43.1199984 422.68,43.44 Z M455.68,63.66 C456.240003,63.66 456.719998,63.8699979 457.12,64.29 C457.520002,64.7100021 457.72,65.1999972 457.72,65.76 L457.72,71.4 C457.72,71.9600028 457.819999,72.4599978 458.02,72.9 C458.197779,73.2911131 458.422962,73.5083955 458.695555,73.5518519 L458.8,73.56 C459.120002,73.56 459.389999,73.759998 459.61,74.16 C459.830001,74.560002 459.94,75.059997 459.94,75.66 L459.94,76.98 C459.94,77.5400028 459.770002,78.019998 459.43,78.42 C459.089998,78.820002 458.700002,79.02 458.26,79.02 C457.819998,79.02 457.310003,78.8700015 456.73,78.57 C456.149997,78.2699985 455.660002,77.9000022 455.26,77.46 L454.3,76.32 C453.939998,75.8399976 453.640001,75.2300037 453.4,74.49 C453.159999,73.7499963 453.04,73.1000028 453.04,72.54 L453.04,65.76 C453.04,65.1999972 453.239998,64.7100021 453.64,64.29 C454.04,63.8699979 454.519997,63.66 455.08,63.66 L455.68,63.66 Z M460,81.6 C460.600003,81.6 461.099998,81.400002 461.5,81 C461.9,80.599998 462.1,80.1200028 462.1,79.56 L462.1,45 C462.1,44.4399972 462.299998,43.96 462.7,43.56 C463.100002,43.159998 463.619997,42.96 464.26,42.96 L465.58,42.96 C466.140003,42.96 466.629998,43.159998 467.05,43.56 C467.470002,43.96 467.68,44.4399972 467.68,45 L467.68,79.56 C467.68,80.1200028 467.769999,80.599998 467.95,81 C468.110001,81.3555573 468.325308,81.5530868 468.595926,81.5925927 L468.7,81.6 C469.020002,81.6 469.269999,81.8199978 469.45,82.26 C469.630001,82.7000022 469.72,83.1999972 469.72,83.76 L469.72,85.14 C469.72,85.6600026 469.630001,86.1399978 469.45,86.58 C469.289999,86.9711131 469.074692,87.1883955 468.804074,87.2318519 L468.7,87.24 C468.379998,87.24 468.130001,87.4499979 467.95,87.87 C467.769999,88.2900021 467.68,88.7799972 467.68,89.34 L467.68,95.94 C467.68,96.5000028 467.470002,96.9899979 467.05,97.41 C466.629998,97.8300021 466.140003,98.04 465.58,98.04 L464.26,98.04 C463.619997,98.04 463.100002,97.8300021 462.7,97.41 C462.299998,96.9899979 462.1,96.5000028 462.1,95.94 L462.1,89.34 C462.1,88.7799972 461.9,88.2900021 461.5,87.87 C461.099998,87.4499979 460.600003,87.24 460,87.24 L454,87.24 C453.4,87.24 452.9,87.0200022 452.5,86.58 C452.099998,86.1399978 451.9,85.6600026 451.9,85.14 L451.9,83.76 C451.9,83.1999972 452.099998,82.7000022 452.5,82.26 C452.9,81.8199978 453.4,81.6 454,81.6 L460,81.6 Z M458.8,61.26 C458.359998,61.26 457.850003,61.1000016 457.27,60.78 C456.689997,60.4599984 456.200002,60.0800022 455.8,59.64 L454.84,58.44 C454.479998,57.9999978 454.180001,57.4100037 453.94,56.67 C453.699999,55.9299963 453.58,55.260003 453.58,54.66 L453.58,47.34 C453.58,46.6999968 453.779998,46.18 454.18,45.78 C454.58,45.379998 455.08,45.18 455.68,45.18 L456.16,45.18 C456.760003,45.18 457.259998,45.379998 457.66,45.78 C458.060002,46.18 458.26,46.6999968 458.26,47.34 L458.26,53.58 C458.26,54.18 458.369999,54.68 458.59,55.08 C458.785557,55.4355573 459.020618,55.6330868 459.295185,55.6725927 L459.4,55.68 C459.720002,55.68 459.979999,55.879998 460.18,56.28 C460.380001,56.68 460.48,57.1599972 460.48,57.72 L460.48,59.1 C460.48,59.700003 460.320002,60.2099979 460,60.63 C459.679998,61.0500021 459.280002,61.26 458.8,61.26 Z M444.152222,44.3251856 L444.16,44.22 C444.16,43.8599982 444.369998,43.5600012 444.79,43.32 C445.210002,43.0799988 445.699997,42.96 446.26,42.96 L447.58,42.96 C448.14,42.96 448.629998,43.1399982 449.05,43.5 C449.470002,43.8600018 449.68,44.2799976 449.68,44.76 C449.68,45.2400024 449.540001,45.7999968 449.26,46.44 C448.979999,47.0800032 448.64,47.6199978 448.24,48.06 L446.86,49.44 C446.419998,49.8800022 445.920003,50.2399986 445.36,50.52 C444.869998,50.7650012 444.425939,50.9028128 444.027813,50.9334376 L443.86,50.94 C443.419998,50.94 443.060001,51.1699977 442.78,51.63 C442.499999,52.0900023 442.36,52.5999972 442.36,53.16 L442.36,55.98 C442.36,56.5400028 442.569998,57.0399978 442.99,57.48 C443.410002,57.9200022 443.919997,58.14 444.52,58.14 L447.58,58.14 C448.14,58.14 448.629998,58.3499979 449.05,58.77 C449.470002,59.1900021 449.68,59.699997 449.68,60.3 L449.68,61.56 C449.68,62.160003 449.470002,62.6699979 449.05,63.09 C448.629998,63.5100021 448.14,63.72 447.58,63.72 L444.52,63.72 C443.919997,63.72 443.410002,63.9299979 442.99,64.35 C442.569998,64.7700021 442.36,65.2599972 442.36,65.82 L442.36,95.94 C442.36,96.5000028 442.160002,96.9899979 441.76,97.41 C441.359998,97.8300021 440.860003,98.04 440.26,98.04 L438.94,98.04 C438.339997,98.04 437.830002,97.8300021 437.41,97.41 C436.989998,96.9899979 436.78,96.5000028 436.78,95.94 L436.78,65.82 C436.78,65.2599972 436.580002,64.7700021 436.18,64.35 C435.779998,63.9299979 435.280003,63.72 434.68,63.72 L431.68,63.72 C431.119997,63.72 430.64,63.5100021 430.24,63.09 C429.839998,62.6699979 429.64,62.160003 429.64,61.56 L429.64,60.3 C429.64,59.699997 429.839998,59.1900021 430.24,58.77 C430.64,58.3499979 431.119997,58.14 431.68,58.14 L434.68,58.14 C435.280003,58.14 435.779998,57.9200022 436.18,57.48 C436.580002,57.0399978 436.78,56.5400028 436.78,55.98 L436.78,53.16 C436.78,52.5999972 436.580002,52.0900023 436.18,51.63 C435.779998,51.1699977 435.280003,50.94 434.68,50.94 L431.68,50.94 C431.119997,50.94 430.64,50.740002 430.24,50.34 C429.839998,49.939998 429.64,49.440003 429.64,48.84 L429.64,47.58 C429.64,46.979997 429.839998,46.4700021 430.24,46.05 C430.64,45.6299979 431.119997,45.42 431.68,45.42 L442,45.42 C442.600003,45.42 443.109998,45.3000012 443.53,45.06 C443.903335,44.8466656 444.110741,44.6017294 444.152222,44.3251856 L444.152222,44.3251856 Z M434.92,95.88 C434.92,96.4400028 434.720002,96.9299979 434.32,97.35 C433.919998,97.7700021 433.420003,97.98 432.82,97.98 L431.98,97.98 C431.419997,97.98 430.930002,97.7700021 430.51,97.35 C430.089998,96.9299979 429.88,96.4400028 429.88,95.88 L429.88,69.84 C429.88,69.24 430.089998,68.74 430.51,68.34 C430.930002,67.939998 431.419997,67.74 431.98,67.74 L432.82,67.74 C433.420003,67.74 433.919998,67.939998 434.32,68.34 C434.720002,68.74 434.92,69.24 434.92,69.84 L434.92,95.88 Z M447.28,67.74 C447.84,67.74 448.329998,67.939998 448.75,68.34 C449.170002,68.74 449.38,69.24 449.38,69.84 L449.38,95.88 C449.38,96.4400028 449.170002,96.9299979 448.75,97.35 C448.329998,97.7700021 447.84,97.98 447.28,97.98 L446.5,97.98 C445.899997,97.98 445.390002,97.7700021 444.97,97.35 C444.549998,96.9299979 444.34,96.4400028 444.34,95.88 L444.34,69.84 C444.34,69.24 444.549998,68.74 444.97,68.34 C445.390002,67.939998 445.899997,67.74 446.5,67.74 L447.28,67.74 Z M510.28,43.38 C510.671113,43.6288901 510.888395,43.9409862 510.931852,44.3162958 L510.94,44.46 C510.94,44.9000022 511.139998,45.2699985 511.54,45.57 C511.940002,45.8700015 512.439997,46.02 513.04,46.02 L513.52,46.02 C514.080003,46.02 514.559998,46.219998 514.96,46.62 C515.360002,47.020002 515.56,47.4999972 515.56,48.06 L515.56,49.44 C515.56,50.0000028 515.360002,50.479998 514.96,50.88 C514.559998,51.280002 514.080003,51.48 513.52,51.48 L513.04,51.48 C512.439997,51.48 511.940002,51.6999978 511.54,52.14 C511.139998,52.5800022 510.94,53.0799972 510.94,53.64 L510.94,54.18 C510.94,54.7400028 511.139998,55.219998 511.54,55.62 C511.940002,56.020002 512.439997,56.22 513.04,56.22 L513.52,56.22 C514.080003,56.22 514.559998,56.419998 514.96,56.82 C515.360002,57.220002 515.56,57.6999972 515.56,58.26 L515.56,59.7 C515.56,60.300003 515.360002,60.799998 514.96,61.2 C514.559998,61.600002 514.080003,61.8 513.52,61.8 L500.08,61.8 C499.519997,61.8 499.030002,61.96 498.61,62.28 C498.189998,62.6000016 497.98,62.9799978 497.98,63.42 C497.98,63.8600022 498.189998,64.2399984 498.61,64.56 C499.030002,64.8800016 499.519997,65.04 500.08,65.04 L513.4,65.04 C514.000003,65.04 514.499998,65.239998 514.9,65.64 C515.300002,66.040002 515.5,66.539997 515.5,67.14 L515.5,82.8 C515.5,83.400003 515.360001,84.0399966 515.08,84.72 C514.799999,85.4000034 514.440002,85.96 514,86.4 L512.56,87.84 C512.119998,88.2800022 511.670002,88.6499985 511.21,88.95 C510.807498,89.2125013 510.489219,89.3601566 510.255157,89.3929688 L510.16,89.4 C509.959999,89.4 509.780001,89.5399986 509.62,89.82 C509.459999,90.1000014 509.38,90.46 509.38,90.9 C509.38,91.300002 509.579998,91.6599984 509.98,91.98 C510.380002,92.3000016 510.879997,92.46 511.48,92.46 L513.4,92.46 C514.000003,92.46 514.499998,92.659998 514.9,93.06 C515.300002,93.46 515.5,93.96 515.5,94.56 L515.5,95.94 C515.5,96.5000028 515.300002,96.9899979 514.9,97.41 C514.499998,97.8300021 514.000003,98.04 513.4,98.04 L510.28,98.04 C509.719997,98.04 509.090003,97.9000014 508.39,97.62 C507.689997,97.3399986 507.120002,96.9800022 506.68,96.54 L505.3,94.98 C504.859998,94.6199982 504.500001,94.0900035 504.22,93.39 C503.974999,92.7774969 503.837187,92.2185951 503.806562,91.7132819 L503.8,91.5 C503.8,90.899997 503.590002,90.400002 503.17,90 C502.749998,89.599998 502.240003,89.4 501.64,89.4 L489.4,89.4 C488.839997,89.4 488.360002,89.599998 487.96,90 C487.604443,90.3555573 487.406913,90.7901215 487.367407,91.303703 L487.36,91.5 C487.36,92.0600028 487.210001,92.6899965 486.91,93.39 C486.609998,94.0900035 486.240002,94.6199982 485.8,94.98 L484.3,96.54 C483.899998,96.9800022 483.350004,97.3399986 482.65,97.62 C481.949996,97.9000014 481.320003,98.04 480.76,98.04 L477.58,98.04 C477.019997,98.04 476.54,97.8300021 476.14,97.41 C475.739998,96.9899979 475.54,96.5000028 475.54,95.94 L475.54,94.56 C475.54,93.96 475.739998,93.46 476.14,93.06 C476.54,92.659998 477.019997,92.46 477.58,92.46 L479.62,92.46 C480.220003,92.46 480.729998,92.3000016 481.15,91.98 C481.570002,91.6599984 481.78,91.300002 481.78,90.9 C481.78,90.46 481.570002,90.1000014 481.15,89.82 C480.729998,89.5399986 480.220003,89.4 479.62,89.4 L477.58,89.4 C477.019997,89.4 476.54,89.1900021 476.14,88.77 C475.739998,88.3499979 475.54,87.8600028 475.54,87.3 L475.54,67.14 C475.54,66.539997 475.739998,66.040002 476.14,65.64 C476.54,65.239998 477.019997,65.04 477.58,65.04 L490.36,65.04 C490.920003,65.04 491.409998,64.8800016 491.83,64.56 C492.250002,64.2399984 492.46,63.8600022 492.46,63.42 C492.46,62.9799978 492.250002,62.6000016 491.83,62.28 C491.409998,61.96 490.920003,61.8 490.36,61.8 L477.58,61.8 C477.019997,61.8 476.54,61.600002 476.14,61.2 C475.739998,60.799998 475.54,60.300003 475.54,59.7 L475.54,58.26 C475.54,57.6999972 475.739998,57.220002 476.14,56.82 C476.54,56.419998 477.019997,56.22 477.58,56.22 L478.06,56.22 C478.620003,56.22 479.119998,56.020002 479.56,55.62 C480.000002,55.219998 480.22,54.7400028 480.22,54.18 L480.22,53.64 C480.22,53.0799972 480.000002,52.5800022 479.56,52.14 C479.119998,51.6999978 478.620003,51.48 478.06,51.48 L477.58,51.48 C477.019997,51.48 476.54,51.280002 476.14,50.88 C475.739998,50.479998 475.54,50.0000028 475.54,49.44 L475.54,48.06 C475.54,47.4999972 475.739998,47.020002 476.14,46.62 C476.54,46.219998 477.019997,46.02 477.58,46.02 L478.06,46.02 C478.620003,46.02 479.119998,45.8700015 479.56,45.57 C479.951113,45.303332 480.168395,44.9813595 480.211852,44.6040746 L480.22,44.46 C480.22,44.0199978 480.419998,43.6600014 480.82,43.38 C481.220002,43.0999986 481.699997,42.96 482.26,42.96 L483.64,42.96 C484.200003,42.96 484.679998,43.0999986 485.08,43.38 C485.435557,43.6288901 485.633087,43.9409862 485.672593,44.3162958 L485.68,44.46 C485.68,44.9000022 485.899998,45.2699985 486.34,45.57 C486.780002,45.8700015 487.279997,46.02 487.84,46.02 L503.32,46.02 C503.880003,46.02 504.369998,45.8700015 504.79,45.57 C505.163335,45.303332 505.370741,44.9813595 505.412222,44.6040746 L505.42,44.46 C505.42,44.0199978 505.619998,43.6600014 506.02,43.38 C506.420002,43.0999986 506.899997,42.96 507.46,42.96 L508.78,42.96 C509.380003,42.96 509.879998,43.0999986 510.28,43.38 Z M483.22,70.56 C482.62,70.56 482.12,70.7499981 481.72,71.13 C481.319998,71.5100019 481.12,71.9799972 481.12,72.54 C481.12,73.06 481.319998,73.4999982 481.72,73.86 C482.12,74.2200018 482.62,74.4 483.22,74.4 L490.36,74.4 C490.920003,74.4 491.409998,74.2200018 491.83,73.86 C492.250002,73.4999982 492.46,73.06 492.46,72.54 C492.46,71.9799972 492.250002,71.5100019 491.83,71.13 C491.409998,70.7499981 490.920003,70.56 490.36,70.56 L483.22,70.56 Z M481.12,81.84 C481.12,82.4000028 481.319998,82.8699981 481.72,83.25 C482.12,83.6300019 482.62,83.82 483.22,83.82 L490.36,83.82 C490.920003,83.82 491.409998,83.6300019 491.83,83.25 C492.250002,82.8699981 492.46,82.4000028 492.46,81.84 C492.46,81.3199974 492.250002,80.8800018 491.83,80.52 C491.409998,80.1599982 490.920003,79.98 490.36,79.98 L483.22,79.98 C482.62,79.98 482.12,80.1599982 481.72,80.52 C481.319998,80.8800018 481.12,81.3199974 481.12,81.84 Z M507.82,83.82 C508.420003,83.82 508.919998,83.6300019 509.32,83.25 C509.720002,82.8699981 509.92,82.4000028 509.92,81.84 C509.92,81.3199974 509.720002,80.8800018 509.32,80.52 C508.919998,80.1599982 508.420003,79.98 507.82,79.98 L500.08,79.98 C499.519997,79.98 499.030002,80.1599982 498.61,80.52 C498.189998,80.8800018 497.98,81.3199974 497.98,81.84 C497.98,82.4000028 498.189998,82.8699981 498.61,83.25 C499.030002,83.6300019 499.519997,83.82 500.08,83.82 L507.82,83.82 Z M500.08,70.56 C499.519997,70.56 499.030002,70.7499981 498.61,71.13 C498.189998,71.5100019 497.98,71.9799972 497.98,72.54 C497.98,73.06 498.189998,73.4999982 498.61,73.86 C499.030002,74.2200018 499.519997,74.4 500.08,74.4 L507.82,74.4 C508.420003,74.4 508.919998,74.2200018 509.32,73.86 C509.720002,73.4999982 509.92,73.06 509.92,72.54 C509.92,71.9799972 509.720002,71.5100019 509.32,71.13 C508.919998,70.7499981 508.420003,70.56 507.82,70.56 L500.08,70.56 Z M505.42,53.64 C505.42,53.0799972 505.210002,52.5800022 504.79,52.14 C504.369998,51.6999978 503.880003,51.48 503.32,51.48 L487.84,51.48 C487.279997,51.48 486.780002,51.6999978 486.34,52.14 C485.899998,52.5800022 485.68,53.0799972 485.68,53.64 L485.68,54.18 C485.68,54.7400028 485.899998,55.219998 486.34,55.62 C486.780002,56.020002 487.279997,56.22 487.84,56.22 L503.32,56.22 C503.880003,56.22 504.369998,56.020002 504.79,55.62 C505.210002,55.219998 505.42,54.7400028 505.42,54.18 L505.42,53.64 Z M561.46,91.56 C561.46,92.1200028 561.320001,92.7499965 561.04,93.45 C560.759999,94.1500035 560.420002,94.6799982 560.02,95.04 L558.52,96.54 C558.079998,96.9800022 557.510004,97.3399986 556.81,97.62 C556.109996,97.9000014 555.480003,98.04 554.92,98.04 L534.22,98.04 C533.659997,98.04 533.18,97.8300021 532.78,97.41 C532.379998,96.9899979 532.18,96.5000028 532.18,95.94 L532.18,50.82 C532.18,49.7399946 532.349998,48.9200028 532.69,48.36 C533.030002,47.7999972 533.619996,47.52 534.46,47.52 L542.08,47.52 C542.640003,47.52 543.129998,47.3100021 543.55,46.89 C543.970002,46.4699979 544.18,45.9800028 544.18,45.42 L544.18,45 C544.18,44.4399972 544.379998,43.96 544.78,43.56 C545.18,43.159998 545.659997,42.96 546.22,42.96 L547.54,42.96 C548.140003,42.96 548.649998,43.159998 549.07,43.56 C549.490002,43.96 549.7,44.4399972 549.7,45 L549.7,45.42 C549.7,45.9800028 549.899998,46.4699979 550.3,46.89 C550.700002,47.3100021 551.199997,47.52 551.8,47.52 L559.3,47.52 C559.980003,47.52 560.509998,47.7399978 560.89,48.18 C561.270002,48.6200022 561.46,49.2999954 561.46,50.22 L561.46,91.56 Z M523,67.8 C523,67.2399972 523.199998,66.76 523.6,66.36 C524.000002,65.959998 524.479997,65.76 525.04,65.76 L526.48,65.76 C527.040003,65.76 527.519998,65.959998 527.92,66.36 C528.320002,66.76 528.52,67.2399972 528.52,67.8 L528.52,91.56 C528.52,92.1200028 528.380001,92.7499965 528.1,93.45 C527.854999,94.0625031 527.564064,94.5448431 527.227188,94.8970309 L525.52,96.54 C525.119998,96.9800022 524.640003,97.3399986 524.08,97.62 C523.519997,97.9000014 523.080002,98.04 522.76,98.04 C522.399998,98.04 522.090001,97.8300021 521.83,97.41 C521.569999,96.9899979 521.44,96.5000028 521.44,95.94 L521.44,94.62 C521.44,94.019997 521.509999,93.520002 521.65,93.12 C521.774445,92.7644427 521.938394,92.5669132 522.141852,92.5274073 L522.22,92.52 C522.460001,92.52 522.649999,92.320002 522.79,91.92 C522.930001,91.519998 523,91.020003 523,90.42 L523,67.8 Z M539.8,53.1 C539.239997,53.1 538.750002,53.299998 538.33,53.7 C537.909998,54.1 537.7,54.6 537.7,55.2 L537.7,68.22 C537.7,68.7800028 537.909998,69.259998 538.33,69.66 C538.750002,70.060002 539.239997,70.26 539.8,70.26 L542.08,70.26 C542.640003,70.26 543.129998,70.060002 543.55,69.66 C543.970002,69.259998 544.18,68.7800028 544.18,68.22 L544.18,55.2 C544.18,54.6 543.970002,54.1 543.55,53.7 C543.129998,53.299998 542.640003,53.1 542.08,53.1 L539.8,53.1 Z M537.7,90.36 C537.7,90.960003 537.909998,91.459998 538.33,91.86 C538.750002,92.260002 539.239997,92.46 539.8,92.46 L542.08,92.46 C542.640003,92.5000002 543.129998,92.3100021 543.55,91.89 C543.970002,91.4699979 544.18,90.960003 544.18,90.36 L544.18,77.94 C544.18,77.3799972 543.970002,76.9 543.55,76.5 C543.129998,76.099998 542.640003,75.9 542.08,75.9 L539.8,75.9 C539.239997,75.9 538.750002,76.099998 538.33,76.5 C537.909998,76.9 537.7,77.3799972 537.7,77.94 L537.7,90.36 Z M551.8,53.1 C551.2,53.1 550.7,53.299998 550.3,53.7 C549.899998,54.1 549.7,54.6 549.7,55.2 L549.7,68.22 C549.7,68.7800028 549.899998,69.259998 550.3,69.66 C550.7,70.060002 551.2,70.26 551.8,70.26 L553.78,70.26 C554.380003,70.26 554.879998,70.060002 555.28,69.66 C555.680002,69.259998 555.88,68.7800028 555.88,68.22 L555.88,55.2 C555.88,54.6 555.680002,54.1 555.28,53.7 C554.879998,53.299998 554.380003,53.1 553.78,53.1 L551.8,53.1 Z M553.78,92.52 C554.380003,92.52 554.879998,92.320002 555.28,91.92 C555.680002,91.519998 555.88,91.020003 555.88,90.42 L555.88,77.94 C555.88,77.3799972 555.680002,76.9 555.28,76.5 C554.879998,76.099998 554.380003,75.9 553.78,75.9 L551.8,75.9 C551.2,75.9 550.7,76.099998 550.3,76.5 C549.899998,76.9 549.7,77.3799972 549.7,77.94 L549.7,90.36 C549.7,91.0000032 549.899998,91.519998 550.3,91.92 C550.7,92.320002 551.2,92.52 551.8,92.52 L553.78,92.52 Z M528.22,45.66 C528.620002,46.1000022 528.82,46.5999972 528.82,47.16 C528.82,47.7200028 528.620002,48.2199978 528.22,48.66 L527.14,49.56 C526.779998,50.0000022 526.310003,50.22 525.73,50.22 C525.214442,50.22 524.770001,50.0461746 524.396667,49.6985191 L523.36,48.66 C522.919998,48.2199978 522.7,47.7200028 522.7,47.16 C522.7,46.6622197 522.873825,46.211853 523.221481,45.8088894 L524.26,44.7 C524.660002,44.2599978 525.149997,44.04 525.73,44.04 C526.310003,44.04 526.779998,44.2599978 527.14,44.7 L528.22,45.66 Z M528.22,57.06 C528.620002,57.5000022 528.82,57.9999972 528.82,58.56 C528.82,59.1200028 528.620002,59.6199978 528.22,60.06 L527.14,61.02 C526.779998,61.4600022 526.310003,61.68 525.73,61.68 C525.149997,61.68 524.660002,61.4600022 524.26,61.02 L523.36,60.06 C522.919998,59.6199978 522.7,59.1200028 522.7,58.56 C522.7,57.9999972 522.919998,57.5000022 523.36,57.06 L524.26,56.16 C524.660002,55.759998 525.149997,55.56 525.73,55.56 C526.310003,55.56 526.779998,55.759998 527.14,56.16 L528.22,57.06 Z M595.36,78.72 C595.36,79.320003 595.549998,79.819998 595.93,80.22 C596.310002,80.620002 596.779997,80.82 597.34,80.82 C597.820002,80.82 598.249998,80.620002 598.63,80.22 C599.010002,79.819998 599.2,79.320003 599.2,78.72 L599.2,57.36 C599.2,56.7999972 599.399998,56.3100021 599.8,55.89 C600.200002,55.4699979 600.679997,55.26 601.24,55.26 L602.62,55.26 C603.180003,55.26 603.659998,55.4699979 604.06,55.89 C604.460002,56.3100021 604.66,56.7999972 604.66,57.36 L604.66,89.4 C604.66,90.000003 604.779999,90.499998 605.02,90.9 C605.233334,91.2555573 605.494073,91.4530868 605.802222,91.4925927 L605.92,91.5 C606.240002,91.5 606.519999,91.699998 606.76,92.1 C607.000001,92.500002 607.12,92.9799972 607.12,93.54 L607.12,94.92 C607.12,95.4800028 606.950002,95.9699979 606.61,96.39 C606.269998,96.8100021 605.860002,97.02 605.38,97.02 C604.899998,97.02 604.34,96.8700015 603.7,96.57 C603.059997,96.2699985 602.520002,95.920002 602.08,95.52 L600.58,94.02 C600.219998,93.619998 599.900001,93.0700035 599.62,92.37 C599.34,91.6699965 599.2,91.0400028 599.2,90.48 L599.2,88.44 C599.2,87.8799972 599.010002,87.3900021 598.63,86.97 C598.249998,86.5499979 597.820002,86.34 597.34,86.34 C596.779997,86.34 596.310002,86.5499979 595.93,86.97 C595.549998,87.3900021 595.36,87.8799972 595.36,88.44 L595.36,95.94 C595.36,96.5000028 595.160002,96.9899979 594.76,97.41 C594.359998,97.8300021 593.860003,98.04 593.26,98.04 L591.94,98.04 C591.34,98.04 590.84,97.8300021 590.44,97.41 C590.039998,96.9899979 589.84,96.5000028 589.84,95.94 L589.84,88.44 C589.84,87.8799972 589.650002,87.3900021 589.27,86.97 C588.889998,86.5499979 588.420003,86.34 587.86,86.34 C587.299997,86.34 586.810002,86.5499979 586.39,86.97 C585.969998,87.3900021 585.76,87.8799972 585.76,88.44 L585.76,90.48 C585.76,91.0400028 585.620001,91.6699965 585.34,92.37 C585.059999,93.0700035 584.700002,93.619998 584.26,94.02 L582.88,95.52 C582.439998,95.920002 581.900003,96.2699985 581.26,96.57 C580.619997,96.8700015 580.060002,97.02 579.58,97.02 C579.059997,97.02 578.640002,96.8100021 578.32,96.39 C577.999998,95.9699979 577.84,95.4800028 577.84,94.92 L577.84,93.54 C577.84,92.9799972 577.959999,92.500002 578.2,92.1 C578.413334,91.7444427 578.674073,91.5469132 578.982222,91.5074073 L579.1,91.5 C579.420002,91.5 579.689999,91.300002 579.91,90.9 C580.130001,90.499998 580.24,90.000003 580.24,89.4 L580.24,57.36 C580.24,56.7999972 580.449998,56.3100021 580.87,55.89 C581.290002,55.4699979 581.799997,55.26 582.4,55.26 L583.66,55.26 C584.260003,55.26 584.759998,55.4699979 585.16,55.89 C585.560002,56.3100021 585.76,56.7999972 585.76,57.36 L585.76,78.72 C585.76,79.320003 585.969998,79.819998 586.39,80.22 C586.810002,80.620002 587.299997,80.82 587.86,80.82 C588.420003,80.82 588.889998,80.620002 589.27,80.22 C589.650002,79.819998 589.84,79.320003 589.84,78.72 L589.84,54.9 C589.84,54.3399972 589.640002,53.8500021 589.24,53.43 C588.84,53.0099979 588.34,52.8 587.74,52.8 L579.88,52.8 C579.319997,52.8 578.84,52.5900021 578.44,52.17 C578.039998,51.7499979 577.84,51.2600028 577.84,50.7 L577.84,49.38 C577.84,48.779997 578.039998,48.280002 578.44,47.88 C578.84,47.479998 579.319997,47.28 579.88,47.28 L587.74,47.28 C588.34,47.28 588.84,47.080002 589.24,46.68 C589.640002,46.279998 589.84,45.780003 589.84,45.18 L589.84,45 C589.84,44.4399972 590.039998,43.96 590.44,43.56 C590.84,43.159998 591.34,42.96 591.94,42.96 L593.26,42.96 C593.860003,42.96 594.359998,43.159998 594.76,43.56 C595.160002,43.96 595.36,44.4399972 595.36,45 L595.36,45.18 C595.36,45.780003 595.559998,46.279998 595.96,46.68 C596.360002,47.080002 596.859997,47.28 597.46,47.28 L605.02,47.28 C605.580003,47.28 606.069998,47.479998 606.49,47.88 C606.910002,48.280002 607.12,48.779997 607.12,49.38 L607.12,50.7 C607.12,51.2600028 606.910002,51.7499979 606.49,52.17 C606.069998,52.5900021 605.580003,52.8 605.02,52.8 L597.46,52.8 C596.859997,52.8 596.360002,53.0099979 595.96,53.43 C595.559998,53.8500021 595.36,54.3399972 595.36,54.9 L595.36,78.72 Z M567.34,58.98 C567.34,58.4199972 567.499998,57.940002 567.82,57.54 C568.104446,57.1844427 568.436295,56.9869132 568.815555,56.9474073 L568.96,56.94 C569.400002,56.94 569.769998,56.7300021 570.07,56.31 C570.370001,55.8899979 570.52,55.4000028 570.52,54.84 L570.52,45 C570.52,44.4399972 570.729998,43.96 571.15,43.56 C571.570002,43.159998 572.059997,42.96 572.62,42.96 L574,42.96 C574.560003,42.96 575.049998,43.159998 575.47,43.56 C575.890002,43.96 576.1,44.4399972 576.1,45 L576.1,55.92 C576.1,56.4800028 576.020001,57.0299973 575.86,57.57 C575.699999,58.1100027 575.520001,58.4999988 575.32,58.74 C575.039999,58.9800012 574.830001,59.3799972 574.69,59.94 C574.549999,60.5000028 574.48,61.079997 574.48,61.68 L574.48,95.94 C574.48,96.5000028 574.280002,96.9899979 573.88,97.41 C573.479998,97.8300021 572.980003,98.04 572.38,98.04 L571.06,98.04 C570.499997,98.04 570.010002,97.8300021 569.59,97.41 C569.169998,96.9899979 568.96,96.5000028 568.96,95.94 L568.96,64.44 C568.96,63.8799972 568.890001,63.400002 568.75,63 C568.609999,62.599998 568.400001,62.4 568.12,62.4 C567.919999,62.4 567.740001,62.1900021 567.58,61.77 C567.419999,61.3499979 567.34,60.8600028 567.34,60.3 L567.34,58.98 Z" id="站酷庆科黄油体" fill="#000000" fill-rule="nonzero"></path>
    </g>
</svg>