<?xml version="1.0" encoding="UTF-8"?>
<svg width="900px" height="140px" viewBox="0 0 900 140" version="1.1" xmlns="http://www.w3.org/2000/svg" xmlns:xlink="http://www.w3.org/1999/xlink">
    <!-- Generator: Sketch 59.1 (86144) - https://sketch.com -->
    <title>preview</title>
    <desc>Created with Sketch.</desc>
    <g id="preview" stroke="none" stroke-width="1" fill="none" fill-rule="evenodd">
        <path d="M388.14,63.44 C387.899999,62.9599976 387.570002,62.6400008 387.15,62.48 C386.729998,62.3199992 386.340002,62.24 385.98,62.24 L375.24,62.24 L375.24,68.84 L388.14,68.84 L388.14,87.56 L359.04,87.56 L359.04,70.28 L358.14,68.84 L367.56,68.84 L367.56,53.24 L366.48,52.1 L375.24,52.1 L375.24,58.16 L388.14,58.16 L388.14,63.44 Z M356.7,60.56 C356.499999,60.0799976 356.180002,59.7600008 355.74,59.6 C355.299998,59.4399992 354.900002,59.36 354.54,59.36 L354.18,59.36 L349.32,83.3 L357.66,83.3 L357.66,88.64 C357.499999,88.1599976 357.190002,87.8400008 356.73,87.68 C356.269998,87.5199992 355.86,87.44 355.5,87.44 L331.86,87.44 L331.86,82.34 L333.72,83.3 L342.96,83.3 L347.52,59.36 L332.82,59.36 L332.82,54.2 L334.74,55.22 L340.86,55.22 L340.86,53.24 L339.78,52.1 L348.54,52.1 L348.54,55.22 L356.7,55.22 L356.7,60.56 Z M381,73.04 L366.72,73.04 L366.72,83.42 L381,83.42 L381,73.04 Z M337.5,78.38 L333.78,64.88 L332.76,63.56 L339.48,63.56 L343.26,78.38 L337.5,78.38 Z M419.58,61.76 L419.58,88.22 L392.04,88.22 L392.04,63.2 L391.68,61.76 L399.54,61.76 L399.54,57.56 L392.04,57.56 L392.04,52.7 L393.96,53.72 L419.58,53.72 L419.58,58.76 C419.419999,58.2399974 419.120002,57.9100007 418.68,57.77 C418.239998,57.6299993 417.840002,57.56 417.48,57.56 L411.48,57.56 L411.48,61.76 L419.58,61.76 Z M447.24,72.56 L447.24,88.22 L421.74,88.22 L421.74,74 L420.96,72.56 L447.24,72.56 Z M438.42,52.58 L438.42,56.48 L447,56.48 L447,61.34 C446.799999,60.8999978 446.480002,60.5900009 446.04,60.41 C445.599998,60.2299991 445.200002,60.14 444.84,60.14 L438.42,60.14 L438.42,66.98 L448.26,66.98 L448.26,72.02 C448.099999,71.4999974 447.800002,71.1700007 447.36,71.03 C446.919998,70.8899993 446.520002,70.82 446.16,70.82 L420.72,70.82 L420.72,65.66 L422.64,66.98 L432.06,66.98 L432.06,60.14 L427.86,60.14 L427.32,64.34 L421.44,64.34 L422.88,54.62 L421.8,52.58 L428.94,52.58 L428.4,56.48 L432.06,56.48 L432.06,53.78 L431.1,52.58 L438.42,52.58 Z M412.14,83.12 C412.019999,82.6399976 411.790002,82.3200008 411.45,82.16 C411.109998,81.9999992 410.820001,81.92 410.58,81.92 L397.74,81.92 L397.74,84.92 L414.06,84.92 L414.06,75.44 L406.8,75.44 L406.8,65.6 L404.4,65.6 L404.4,70.34 L404.34,70.34 L404.4,70.28 L399.6,70.28 L399.54,70.34 L399.54,65.6 L397.74,65.6 L397.74,74.6 L397.38,75.44 L397.74,75.44 L397.74,78.26 L412.14,78.26 L412.14,83.12 Z M441.24,76.46 L427.86,76.46 L427.86,84.5 L441.24,84.5 L441.24,76.46 Z M397.74,75.44 L397.74,74.6 L399.54,70.34 L404.34,70.34 L402.42,75.44 L397.74,75.44 Z M414.06,65.6 L411.48,65.6 L411.48,71.78 L414.06,71.78 L414.06,65.6 Z M404.4,61.76 L406.8,61.76 L406.8,57.56 L404.4,57.56 L404.4,61.76 Z M479.58,61.76 L479.58,88.22 L452.04,88.22 L452.04,63.2 L451.68,61.76 L459.54,61.76 L459.54,57.56 L452.04,57.56 L452.04,52.7 L453.96,53.72 L479.58,53.72 L479.58,58.76 C479.419999,58.2399974 479.120002,57.9100007 478.68,57.77 C478.239998,57.6299993 477.840002,57.56 477.48,57.56 L471.48,57.56 L471.48,61.76 L479.58,61.76 Z M507.24,72.56 L507.24,88.22 L481.74,88.22 L481.74,74 L480.96,72.56 L507.24,72.56 Z M498.42,52.58 L498.42,56.48 L507,56.48 L507,61.34 C506.799999,60.8999978 506.480002,60.5900009 506.04,60.41 C505.599998,60.2299991 505.200002,60.14 504.84,60.14 L498.42,60.14 L498.42,66.98 L508.26,66.98 L508.26,72.02 C508.099999,71.4999974 507.800002,71.1700007 507.36,71.03 C506.919998,70.8899993 506.520002,70.82 506.16,70.82 L480.72,70.82 L480.72,65.66 L482.64,66.98 L492.06,66.98 L492.06,60.14 L487.86,60.14 L487.32,64.34 L481.44,64.34 L482.88,54.62 L481.8,52.58 L488.94,52.58 L488.4,56.48 L492.06,56.48 L492.06,53.78 L491.1,52.58 L498.42,52.58 Z M472.14,83.12 C472.019999,82.6399976 471.790002,82.3200008 471.45,82.16 C471.109998,81.9999992 470.820001,81.92 470.58,81.92 L457.74,81.92 L457.74,84.92 L474.06,84.92 L474.06,75.44 L466.8,75.44 L466.8,65.6 L464.4,65.6 L464.4,70.34 L464.34,70.34 L464.4,70.28 L459.6,70.28 L459.54,70.34 L459.54,65.6 L457.74,65.6 L457.74,74.6 L457.38,75.44 L457.74,75.44 L457.74,78.26 L472.14,78.26 L472.14,83.12 Z M501.24,76.46 L487.86,76.46 L487.86,84.5 L501.24,84.5 L501.24,76.46 Z M457.74,75.44 L457.74,74.6 L459.54,70.34 L464.34,70.34 L462.42,75.44 L457.74,75.44 Z M474.06,65.6 L471.48,65.6 L471.48,71.78 L474.06,71.78 L474.06,65.6 Z M464.4,61.76 L466.8,61.76 L466.8,57.56 L464.4,57.56 L464.4,61.76 Z M568.44,82.16 C568.239999,81.7199978 567.920002,81.4200008 567.48,81.26 C567.039998,81.0999992 566.640002,81.02 566.28,81.02 L512.1,81.02 L512.1,76.4 L514.02,77.3 L536.94,77.3 L536.94,75.14 L513.6,75.14 L513.6,71.12 L515.4,71.9 L536.94,71.9 L536.94,69.86 L512.64,69.86 L512.64,53.96 L511.56,52.76 L568.44,52.76 L568.44,56.48 L568.38,56.48 L568.38,69.86 L544.68,69.86 L544.68,71.9 L566.94,71.9 L566.94,76.16 C566.739999,75.76 566.420002,75.4900007 565.98,75.35 C565.539998,75.2099993 565.160002,75.14 564.84,75.14 L544.68,75.14 L544.68,77.3 L568.44,77.3 L568.44,82.16 Z M520.32,66.32 L536.94,66.32 L536.94,56.48 L520.32,56.48 L520.32,66.32 Z M544.68,66.32 L560.7,66.32 L560.7,56.48 L544.68,56.48 L544.68,66.32 Z M516.18,83.48 L515.7,82.52 L526.86,82.52 L521.28,88.04 L511.92,88.04 L516.18,83.48 Z M555.66,88.04 L546.72,88.04 L541.86,82.52 L552.9,82.52 L551.82,83.72 L555.66,88.04 Z M542.82,88.04 L533.88,88.04 L529.02,82.52 L540,82.52 L538.98,83.72 L542.82,88.04 Z M568.14,88.04 L559.2,88.04 L554.4,82.52 L565.38,82.52 L564.3,83.72 L568.14,88.04 Z M535.08,64.82 L527.4,64.82 L523.56,59.24 L522,58.4 L530.76,58.4 L535.08,64.82 Z M550.2,58.7 L558.96,58.7 L557.34,59.48 L553.56,65.06 L545.88,65.06 L550.2,58.7 Z" id="站酷酷黑" fill="#000000" fill-rule="nonzero"></path>
    </g>
</svg>