<svg xmlns="http://www.w3.org/2000/svg" width="900" height="140" viewBox="0 0 900 140">
  <defs>
    <style>
      .cls-1 {
        fill-rule: evenodd;
      }
    </style>
  </defs>
  <path id="钟齐志莽行书" class="cls-1" d="M213.89,57.741a62.628,62.628,0,0,0-5,3.8l-3.3,2.7,2,0.9a5.991,5.991,0,0,0,4.8-.5q2.6-1.2,3.2-.65t0.2,3.25a10.81,10.81,0,0,1-1.35,3.45q-0.951,1.552-1.75,1.55-0.6,0-4.3,2.5l-6.4,4.6a14.794,14.794,0,0,0-2.65,2.5,4.63,4.63,0,0,0-1.15,2.3,1.167,1.167,0,0,0,.5,1.3,5.057,5.057,0,0,0,2.1.5q1.3,0,3.55,2.55t2.25,4.05a11,11,0,0,0,1.15,4.1,16.362,16.362,0,0,0,2.45,4.1q2,2.3,4.2.75t7.7-9.35a38.912,38.912,0,0,0,3.7-7.85q1.9-5.149,1.5-6.35-0.4-1-3.9,2.1-1,.8-1.8,1.45a7.661,7.661,0,0,1-1.3.9,0.71,0.71,0,0,1-.6.15q-0.1-.5,1.6-5.8t0.95-6.7q-0.75-1.4.05-4.9a12.479,12.479,0,0,0,.15-5.05q-0.45-2.149-1.75-2.55-4.5-1.4-6.8.2h0Zm-0.5,20.8a12.536,12.536,0,0,1-.85,3.65,20.352,20.352,0,0,1-1.45,3.45q-1.3,2.1-4.9-.7l-1.9-1.6,2.5-2,4-3.1a4.1,4.1,0,0,1,2.05-1.15q0.549,0.052.55,1.45h0Zm38.4-48.6a18.719,18.719,0,0,0-3.1-1.5q-0.3,0-.7,5.25t-0.75,12.8q-0.351,7.552-.6,8.95t-0.35,1.9q-0.1.5-5.3,2.9l-5.2,2.4,1.6,1.4q1.6,1.3,5,1.2l3.5-.3,0.2,3.8a12.913,12.913,0,0,1-.15,3.55,4.357,4.357,0,0,1-2.15,1.55,6.867,6.867,0,0,1-2.4.8,7.036,7.036,0,0,1-2.5-.9,6.743,6.743,0,0,1-3.5-3.9,13.558,13.558,0,0,0-2.65-4.6q-2.151-2.7-2.85-2.7-0.4,0-1.3,3.4a14.786,14.786,0,0,0-.05,5.3q0.45,2.9,1.35,2.9,0.7,0,1.7,2.3t0.6,3a4.7,4.7,0,0,0,.7,3.1q1,2,2.1,2a17.594,17.594,0,0,0,4.55-1.4,16.888,16.888,0,0,1,4.75-1.4q1.1,0,1.35,2.9a116.2,116.2,0,0,1-.25,12.4q-0.5,11.1.3,14.4,1.2,5.7,4.5,3.6,0.9-.7,1.05-3.05t-0.05-13.75q-0.4-15.9.1-18.2a4.623,4.623,0,0,1,1.05-2.3,15.234,15.234,0,0,1,2.85-2.1,22.046,22.046,0,0,1,7.6-2.4,11.713,11.713,0,0,0,3.25-.65,1.605,1.605,0,0,0,.65-1.55,1.958,1.958,0,0,0-.4-1.4,2.915,2.915,0,0,0-1.5-.6q-2.1-.5-2.1-1t2.35-2.35a17.107,17.107,0,0,1,3.35-2.25q2.2-.4,3.75-4.8t-0.05-5.3q-0.8-.6-4.8-1.4a17.415,17.415,0,0,0-11.7,1.4q-3.4,1.4-3.9.65t-0.3-6.15q0.4-6.6,1.3-8.4l1.8-3.3q2-3.6-2.7-6.2h0Zm7.7,30a25.327,25.327,0,0,1-4.7,5.3l-3.4,3.2-0.4-2.1q-0.8-3.4-.35-4.45t3.25-2.45a15.125,15.125,0,0,1,5.2-1.6c0.8,0,1.216.084,1.25,0.25a5.862,5.862,0,0,1-.85,1.85h0Zm-46.5-33.9q-1,2.7-6.65,14t-9.95,16.3a32.4,32.4,0,0,0-3.9,5.5,4.344,4.344,0,0,0-.5,3.4c0.066,0.134.133,0.267,0.2,0.4q1.4,1.8,5.6-4.9,4.7-7.1,14.4-13.5,6-3.8,6.8-3.8,1.6,0,7.3-2.3a2.386,2.386,0,0,0,1.35-.65,1.779,1.779,0,0,0-.85-0.95,5.371,5.371,0,0,0-2.95-.9,2.1,2.1,0,0,1-1.95-.7q-1-1.6-7.2,2.1a12.6,12.6,0,0,1-2.2,1.3,15.409,15.409,0,0,1-1.75.7,1.11,1.11,0,0,1-.75.1q-0.2-.7,1.3-3a31.973,31.973,0,0,0,2.75-6.35,21.459,21.459,0,0,0,1.35-5.75,5.139,5.139,0,0,0-.7-2.8q-0.2-.4-0.4-0.3-0.5,0-1.3,2.1h0Zm110.5-.6a6.1,6.1,0,0,0,1.7,2.5q0.7,0.4.7,3.4a6.487,6.487,0,0,1-1.8,4.8,6.111,6.111,0,0,0-1.4,1.6,1.9,1.9,0,0,0,1-.1,4.991,4.991,0,0,1,2.55.05,1.269,1.269,0,0,1,1.05,1.2q0,0.851-6.1,4.05a69.66,69.66,0,0,1-10.4,4.6,41.687,41.687,0,0,0-4.7,1.7q-0.4.3,0.4,1.05a8.378,8.378,0,0,0,2,1.35,4.715,4.715,0,0,0,2,.6,24.193,24.193,0,0,0,7.65-1.3q4.55-1.4,5.35-2.8a1.476,1.476,0,0,1,1.4-.7q1,0-.75,2.75a15.34,15.34,0,0,0-1.75,3.1,10.579,10.579,0,0,1-1.7,2.6q-1.7,2.25-6,3.85a63.932,63.932,0,0,0-13.3,6.8l-4.6,3a50.7,50.7,0,0,0-6.8,5.3q-4.7,4.2-4.55,7.2t5.15,2.9q2.8-.1,3.7-1.4a2.876,2.876,0,0,1,2.5-1.3,2.7,2.7,0,0,0,1.3-.2,0.775,0.775,0,0,0,.1-0.9,2.419,2.419,0,0,1,.9-2.5q1.3-1.3,2.2-.7,0.7,0.4-.75,1.6t-0.7,1.75q0.75,0.551,3.15-1.6t3.4-2.15a3.573,3.573,0,0,0,2.3-1.3,6.948,6.948,0,0,1,3.1-1.8,1.617,1.617,0,0,1,1.5.05,4.994,4.994,0,0,1,.3,2.35,13.447,13.447,0,0,1-1.8,6.2l-1.8,3.5,1.8,4.2q2,5,3.7,5.25t4.5-4.35a41.291,41.291,0,0,0,5.9-15.2q1-6.5,2.9-6.5,0.7,0,.2,2-0.6,2.9-1.5,14.75t-0.9,16.45a34.116,34.116,0,0,1-.3,5.55,5.771,5.771,0,0,1-1.1,2.55,15.346,15.346,0,0,0-1,1.4q-0.7,1.1.7,1.1a5.292,5.292,0,0,1,2.7,1.2,5.946,5.946,0,0,0,2.2,1,1.641,1.641,0,0,0,1.5-.9,8.12,8.12,0,0,0,1.1-3q0.4-2,1-6.1,0.7-4.8,1.8-9.9,1-4.9,1.7-17.95t0.2-14.55q-1.5-3.1,1.3-3.1a15.281,15.281,0,0,0,4.6-1.05q3-1.05,9.6-.95a47.491,47.491,0,0,0,5.4-.05,1.165,1.165,0,0,0,1.2-.95q0.3-1.3-1.4-3a17.233,17.233,0,0,0-4.5-3.1l-3-1.5-8.2,1.3q-8.3,1.1-8.75.6t1.45-5.3q1.3-3.4,1.5-4.25a1.943,1.943,0,0,0-.6-1.75,3.246,3.246,0,0,0-2.15-1.3q-0.951,0-.55-1.85a13.921,13.921,0,0,0-.1-4.95,7.364,7.364,0,0,0-1.05-3,17.162,17.162,0,0,0-3.05-3q-3.7-2.8-5.1-2.8a0.975,0.975,0,0,0-.95.25,4.7,4.7,0,0,0,.75,1.65h0Zm16.1,32.6a10.076,10.076,0,0,1-2.3,1.7,0.9,0.9,0,0,0-.4.1,11.492,11.492,0,0,1-6.1,1.4q-1-.1-0.5-0.6a9.643,9.643,0,0,1,3.05-1.6,22.263,22.263,0,0,1,4.1-1.2q1.749-.3,2.15.2h0Zm-13.7,7.2q0,1.4-2.05,5.7t-3.15,5.2a1.268,1.268,0,0,1-1.25.4,6.907,6.907,0,0,1-1.85-1.5q-3.7-3.5-.1-5.4a20.621,20.621,0,0,0,3.7-2.7q1.9-1.7,1.9-2.4t1.4-.7a1.238,1.238,0,0,1,1.4,1.4h0Zm-18.6,5q-6.2,5.8-8.75,7.85a17.82,17.82,0,0,1-4.65,2.85q-4.2,1.5-4.1-.7,0.2-2.7,5.7-6.6,9.6-6.7,14.6-7,1,0-2.8,3.6h0Zm68.6,20.1a33.1,33.1,0,0,0,1.7,6.45q1.6,4.851,2.35,5.6a3.345,3.345,0,0,0,2.6.65,4.5,4.5,0,0,0,2.85-1,2.7,2.7,0,0,0,.7-1.5,8.769,8.769,0,0,0-.6-2.3q-0.7-1.8-4.35-5.75t-4.65-3.95q-0.6,0-.6,1.8h0Zm46.2-15.7a21.872,21.872,0,0,1-4.55,1.45,39.287,39.287,0,0,1-6.25.35h-6.7v2.6a4.711,4.711,0,0,0,1.85,4,5.938,5.938,0,0,0,2.5,1.4q0.648,0,2.95,2,3.7,3.2,5.6,1.3,1.2-1.2,5.85,1.3t4.65,4.4q0,1-3.6,2.2a31.052,31.052,0,0,1-7.4,1.5,34.4,34.4,0,0,1-18.5-3.4q-4.9-2.4-5.8-2.4-1.3.1,5.7,7.1,5.1,5,8,6.05t11.9,1.15q11.4,0.1,18.9-4a8.812,8.812,0,0,0,3.35-2.85,5.15,5.15,0,0,0,.05-3.85q-0.6-2.3-6.8-5.95t-10.5-4.35q-4-.6-0.5-4,1.7-1.8,1.7-2.65a3.5,3.5,0,0,1,1.4-2.15,2.755,2.755,0,0,0,1-1.3q0.8-1.8-.2-1.6a29.023,29.023,0,0,0-4.6,1.7h0Zm12.2-9.2q-2.9,2.2-2.55,3.3t4.05,1.9a60.814,60.814,0,0,1,7.35,2.25q3.247,1.252,4.25,1.1t1.7-2.05a4.015,4.015,0,0,0-.55-4.05q-1.35-1.65-5.25-3.15-4.1-1.5-5.35-1.4t-3.65,2.1h0Zm-38.5-30.6a1.243,1.243,0,0,0-.2,1.35,9.529,9.529,0,0,0,1.8,2.35,9.777,9.777,0,0,1,2.1,2.9,11.156,11.156,0,0,1,.4,3.5v3.6l-5.2,3q-13.3,7.6-15.9,7.6a5.136,5.136,0,0,0-2.8.6q-0.7.4-.6,0.65a1.327,1.327,0,0,0,.9.45,19.427,19.427,0,0,1,3.05,1.3,15.193,15.193,0,0,0,4.95,1.3,8.1,8.1,0,0,0,5.25-.75,26.325,26.325,0,0,0,6.25-5.25q2.8-2.9,3.9-3.1,0.9,0,.9,2.5a10.97,10.97,0,0,1-2.3,6.55q-2.3,3.15-4.8,3.25a4.337,4.337,0,0,0-3.2,1.45,4.46,4.46,0,0,0-1.4,3.15,5.734,5.734,0,0,0,1.55,4,4.991,4.991,0,0,0,3.85,1.7q2.3,0,9.7-3.05a77.54,77.54,0,0,0,11.8-5.85,6.467,6.467,0,0,0,2.1-1.65,3.834,3.834,0,0,0,.3-2.15,3.2,3.2,0,0,0-.55-1.75,3.058,3.058,0,0,0-1.65-.85,30.577,30.577,0,0,1-6.2-2.6q-3.1-1.7-3.1-2.4a21.121,21.121,0,0,1,.8-4.1q0.7-2.9,2.3-3.65t8.4-1.55a42.8,42.8,0,0,0,6.85-1.25,2.111,2.111,0,0,0,1.55-2.15q0-1.4-1.85-2.1a20.978,20.978,0,0,0-6.25-.8,28.293,28.293,0,0,0-4.65.25,6.246,6.246,0,0,0-2.55,1.25q-2,1.5-2.6,1.4c-0.4-.066-0.635-0.766-0.7-2.1a5.013,5.013,0,0,0-2.5-3.6l-4.7-2.9a10.08,10.08,0,0,0-3.2-1.55,1.849,1.849,0,0,0-1.8,1.05h0Zm80.4,48.1a1.046,1.046,0,0,0-.3.8q0.3,0.8,1.4-.5,0.8-1,.05-1a1.26,1.26,0,0,0-1.15.7h0Zm51.5-42.7q-0.4.6,2.7,3.65a24.13,24.13,0,0,0,4.8,3.95,3.912,3.912,0,0,0,3.5.3,2.776,2.776,0,0,0,1.5-2.8,3.2,3.2,0,0,0-.95-2.65,17.317,17.317,0,0,0-4.85-1.85q-6-1.6-6.7-.6h0Zm-11.6-15q0.3,3.3-.6,4.1-0.9.7-8.9,3.35t-8.3,2.3q-0.3-.349-3.9-5.65-4.7-7.1-5.9-5.8-0.5.5,0.6,3.4a30.73,30.73,0,0,1,1.6,6,5.949,5.949,0,0,1,0,2.8,6,6,0,0,1-2.2,1.4,6.756,6.756,0,0,1-4.2.8,1.2,1.2,0,0,0-1.6.7q-0.6,2.2,2.4,5.6a8.748,8.748,0,0,0,2.5,2.3,7.655,7.655,0,0,0,2.9.4q3.3-.1,4.4-1.3a3.9,3.9,0,0,1,2.15-1,7.284,7.284,0,0,1,2.85,1.1,4.468,4.468,0,0,0,1.8.8,2.423,2.423,0,0,0,1.3-.6q1-1.1.25-3.7t0.15-3.6a9.319,9.319,0,0,1,3.35-2.2,16.421,16.421,0,0,1,4.15-1.35q1.7-.248,1.9.55,0,0.9-2.3,4.6a67.139,67.139,0,0,1-4.9,6.9q-3,3.7-3,5.7t-2.45,3.8a42.573,42.573,0,0,1-8.85,4.3,78.9,78.9,0,0,1-7.7,2.8,19.721,19.721,0,0,0-3.2.8l-2.7.7,1.8,1.6a13.894,13.894,0,0,0,5.7,2.4,27.817,27.817,0,0,1,5.3,1.25q0.5,0.352-.7,1.55a47.056,47.056,0,0,1-5.8,4.9q-4.7,3.6-4.6,4.1,0.1,0.4,3.2-1.9,3.3-2.4,3.85-2.4t-1.35,2.4q-1.9,2.4-4.65,5.45a42.565,42.565,0,0,1-4.75,4.65q-5.4,4.8-6.55,5.75a3.328,3.328,0,0,1-1.85.95q-1.7-.4,3.2-5.9,4.3-4.5,3.8-4.9-0.4-.5-3.8,2.9t-3.4,4.25a0.693,0.693,0,0,1-.7.85q-0.8,0-1.5,2.15t-0.1,2.85q1.4,1.2,4.45-1.05a128.393,128.393,0,0,0,10.95-10.05q10.1-10.1,12.85-12.65t3.45-2.55q0.5,0.5.5,2.65a33.511,33.511,0,0,1-.4,4.85q-0.4,2.7-.9,3.2-0.6.8-5.7,3.1t-5.1,3.2q-0.1,3.2,5.5,3.4a9.02,9.02,0,0,1,3.25.45,4.9,4.9,0,0,1,1.15,2.45q1.4,4.6,2.6,4.6,1.5-.1,3.9-7.5,2.2-6.9,2.8-7.7t4-2.5a17.123,17.123,0,0,1,4.65-1.75q1.95-.349,2.55.45a84.815,84.815,0,0,1,1.05,9.5q0.75,8.8,0,13.2t-0.9,5.65a4.913,4.913,0,0,1-1.75,2.75,3.411,3.411,0,0,0-1.1,1.7,3.92,3.92,0,0,0,.5,2q0.7,1.9,1.5,2.1t2.3-1q2-1.7,3.1-9.5t1.9-25.7a12.483,12.483,0,0,1,.6-3.6,23.763,23.763,0,0,1,3.9-1.35,49.688,49.688,0,0,1,5.9-1.45,2.156,2.156,0,0,0,1.5-.65,2.809,2.809,0,0,0-.7-1.55q-1.2-1.5-4.85-2.7t-3.65-1.7q0-.8,3.8-2.4a28.357,28.357,0,0,1,6.4-2,8.49,8.49,0,0,0,4.2-1.4,3.806,3.806,0,0,0,1.2-3.1q0-2.4-6.5-4.3-1.6-.5-9.5,1.6a81.655,81.655,0,0,0-12.5,4.2q-3,1.4-3.3,1.1t0.7-.95a25.251,25.251,0,0,1,2.65-1.45q1.65-.8,3.45-1.65a26.887,26.887,0,0,1,3.4-1.35,9.073,9.073,0,0,1,2.2-.5,1.375,1.375,0,0,0,1.7-1.7q0-2.9-6.3-4a6.807,6.807,0,0,1-3.3-1.7,3.645,3.645,0,0,1-1.4-2.6q0-.7,5.35-4.1a86.46,86.46,0,0,0,8.15-5.7,14.1,14.1,0,0,1,2.75-1.8,2.733,2.733,0,0,1,2.05,0,26.058,26.058,0,0,0,4.75.85,1.5,1.5,0,0,0,1.25-1.25q0.9-2.6-4.2-4.9-2.9-1.3-3.3-1.9t-2.35-.6q-1.95,0-2.25-1.4-0.5-2-5.8-3.1l-2.2-.5Zm8.8,38.5a5.018,5.018,0,0,1-1.5,1.1q-1.6.7-1.6-.7,0-1.5,3.4-1.7,0.6,0-.3,1.3h0Zm-8.6,3.8a4.207,4.207,0,0,1-1.2,3.4l-3.9,3.5q-2.6,2.3-3.5,2.3-0.7,0-.7-1.05a4,4,0,0,1,.7-2.15,1.208,1.208,0,0,0,.1-1.4,0.294,0.294,0,0,0-.2-0.1q-0.8-.2-3,4-1.2,2.1-1.95,2.1c-0.5,0-.634-0.216-0.4-0.65s0.016-1.616-.65-3.55a7.168,7.168,0,0,1-.3-0.8q-0.9-2.4-.2-3.15t5.9-2.55a13.85,13.85,0,0,1,1.8-.7q4.9-1.8,6.2-1.65t1.3,2.45h0Zm89-27.3a1.857,1.857,0,0,0-.7,1.25c0.066,0.234.466,0.25,1.2,0.05a2.4,2.4,0,0,1,2.15.95,3.376,3.376,0,0,1,.65,2.65q-0.3,2.2-.5,4.35a19.6,19.6,0,0,1-1.9,5.85q-1.7,3.7-1.2,4,0.7,0.2,4.55-1.9a31.744,31.744,0,0,0,5.65-3.7,8.354,8.354,0,0,0,1.9-2.35,10.446,10.446,0,0,0,.7-3.35q0.2-3.6-.9-5.3a8.868,8.868,0,0,0-5.85-3.75q-3.951-.848-5.75,1.25h0Zm-24.3-8.9q0,2.2-2.2,6.1a102.383,102.383,0,0,1-6.1,9.45,79.357,79.357,0,0,1-6.5,8.35,9.431,9.431,0,0,0-2.5,7.4,3.148,3.148,0,0,0,1.9,1.6,2.207,2.207,0,0,0,1.65.4,4.888,4.888,0,0,0,1.55-1.3,15.956,15.956,0,0,1,5.05-2.95,16.673,16.673,0,0,1,5.45-1.65q3.8,0-6.9,16.1-2.4,3.4-3.35,4.45a6.762,6.762,0,0,1-1.95,1.55q-1.5.5-2.3,3.7t0.3,3.9q0.7,0.4,2.7-.55a12.068,12.068,0,0,0,3.4-2.35,4.519,4.519,0,0,1,2.4-1.5,9.975,9.975,0,0,0,2.5-.5,1.13,1.13,0,0,1,1.2.15,6.3,6.3,0,0,1,.2,2.15q0,2.8-1.2,3.9a3.322,3.322,0,0,0-.9,2.6q0,1.8.9,2.3a2.217,2.217,0,0,1,.6,1.9,4.837,4.837,0,0,0,1.2,3.15,2.858,2.858,0,0,0,2.3,1.35q1.5-.2,2.3-2.95a44.426,44.426,0,0,1,2.95-7.05,37.826,37.826,0,0,0,2.95-7.5,40.426,40.426,0,0,1,2.3-7.1q2.1-4.5,2.9-1.4,0.3,1.4.75,1.4t1.4,2.35a4.35,4.35,0,0,0,3.15,2.85,2.946,2.946,0,0,0,2.05-.1,11.081,11.081,0,0,0,2.35-2.2,22.075,22.075,0,0,1,4.3-3.8,3.128,3.128,0,0,1,1.55-.7,1.142,1.142,0,0,1,.95.6q1.6,1.9,1.6,9.2a51.611,51.611,0,0,1-1.6,13.3,15.4,15.4,0,0,1-3,5.35,23.612,23.612,0,0,1-5.3,4.85q-1.8,1.2-1.4,1.8t2.5,0q2.2-.7,4.1-1.1,2-.3,5.2-3.55t3.8-5.15a13.776,13.776,0,0,1,2-4.4,20.869,20.869,0,0,0,2.5-7.2,27.448,27.448,0,0,0,.4-5.1,42.7,42.7,0,0,0-1.1-6q-1.5-6.1-2.5-7.2-1.3-1.5-5.05-2.1a17.516,17.516,0,0,0-6.75.1q-3.5.8-4.1,1.8t-5.15,1.3q-4.551.3-4.55-.1,0-.8,2.45-7.3a57.5,57.5,0,0,1,3.25-7.7q1.3-2.3.6-2.3-0.5,0-2.1,2.9t-6.4,12.3q-1.3,2.9-2.65,5.4t-2.2,3.85a3.31,3.31,0,0,1-.95,1.25,19.041,19.041,0,0,0-3.4-1q-2.3-.7-2.75-1.4t0.85-2.1a42.818,42.818,0,0,0,6.7-9.6q3.5-6.4,2.9-7.9a5.093,5.093,0,0,0-2.35-2.25,11,11,0,0,0-4.05-1.45q-2.4-.4-2.7-1.15t2.9-4.75q5.6-6.9,5.85-11.2t-4.65-6.9q-1.6-.8-1.9-0.55a3.384,3.384,0,0,0-.3,1.95h0Zm111.2,14.3q-1.7,1.1-1.5,2.3t2.1,1.9a24.74,24.74,0,0,1,6,3.55q3.7,2.752,6.3,2.75t3-.6q0.4-.6-0.5-3.2a8.651,8.651,0,0,0-3-4,7.706,7.706,0,0,0-4.3-1.8,7.2,7.2,0,0,1-3.4-.9,6.49,6.49,0,0,0-2.6-1,3.881,3.881,0,0,0-2.1,1h0Zm-20.9-6.1a7.537,7.537,0,0,0,1.35,2.15q0.848,0.952.85,10.05v9.2l-5.6,2.8-8.5,4.4q-2.3,1-2.6,1.6a6.961,6.961,0,0,0-.1,2.9q0.5,4,2.7,5.75t8.3,2.95q2.6,0.5,2.9,1.3,0.3,0.9-2.65,4.3a24.106,24.106,0,0,1-5.25,4.8,6.908,6.908,0,0,0-2.3,1.95,7.171,7.171,0,0,0-.4,2.95q-0.2,3.5,1.1,4.15t5.9-.35a53.569,53.569,0,0,0,7.6-2.05q2.8-1.05,12-2.05a71.293,71.293,0,0,0,8.1-1.2,21.878,21.878,0,0,0,4.7-1.7q3.3-1.7,4.1-3a4.181,4.181,0,0,0,0-3.6,17.18,17.18,0,0,0-2.95-4.1,61.335,61.335,0,0,0-5.35-5.55q-2.7-2.449-3-2.15-0.4.3,0.6,3.6a3.539,3.539,0,0,1,.5,1.3q1.3,3.6.9,4.4t-4.3,2.1a9.682,9.682,0,0,0-1.4.4q-2.6.8-5,1.5-8.9,2.3-8.3.6a3.606,3.606,0,0,1,1.85-1.6q1.447-.7,2.65-4.3a56.3,56.3,0,0,1,3.45-7.15,39.58,39.58,0,0,1,4.65-6.95,23.178,23.178,0,0,0,3.05-5q1.148-2.6.85-3.7-0.6-1.8-3.5-2.85a9.1,9.1,0,0,0-5.1-.55,14.049,14.049,0,0,1-2.95.7q-0.652,0-.35-6,0.4-5.3-.4-7.3t-4.3-4q-2.7-1.8-3.5-1.8-0.7,0-.3,1.1h0Zm11.2,27.2q-2.1,2.9-3,3.1-0.6.1-.2-1.1,0.3-1.3.7-3.1a3.764,3.764,0,0,1,1.75-2.45q1.448-.949,2.25-0.25,0.7,0.6-1.5,3.8h0Zm-10.5,6.7a5.429,5.429,0,0,1-.5,2.65,4.137,4.137,0,0,1-2.3.65,11.287,11.287,0,0,1-4.3,0q-0.9-.2-0.75-0.7t3.55-2.95a20.255,20.255,0,0,1,4-2.55q0.6,0,.3,2.9h0Z"/>
</svg>
