<?xml version="1.0" encoding="UTF-8"?>
<svg width="900px" height="140px" viewBox="0 0 900 140" version="1.1" xmlns="http://www.w3.org/2000/svg" xmlns:xlink="http://www.w3.org/1999/xlink">
    <title>自定义预设 7</title>
    <g id="自定义预设-7" stroke="none" stroke-width="1" fill="none" fill-rule="evenodd">
        <path d="M224,82.7 C224,82.7 224.233333,82.55 224.7,82.25 C225.166667,81.95 225.433333,81.75 225.5,81.65 C225.566667,81.55 225.666667,81.5 225.8,81.5 C225.933333,81.5 226.233333,81.35 226.7,81.05 C227.166667,80.75 227.483333,80.45 227.65,80.15 C227.816667,79.85 227.933333,79.7 228,79.7 C228.066667,79.7 228.3,79.5166667 228.7,79.15 C229.1,78.7833333 229.366667,78.5166667 229.5,78.35 C229.633333,78.1833333 229.733333,78.1 229.8,78.1 C229.866667,78.1 230.283333,77.7 231.05,76.9 C231.816667,76.1 232.25,75.6333333 232.35,75.5 C232.45,75.3666667 232.533333,75.3 232.6,75.3 C232.666667,75.3 232.833333,75.1166667 233.1,74.75 C233.366667,74.3833333 233.533333,74.1166667 233.6,73.95 C233.666667,73.7833333 233.716667,73.7 233.75,73.7 C233.783333,73.7 233.866667,73.5666667 234,73.3 C234.133333,73.0333333 234.216667,72.9 234.25,72.9 C234.283333,72.9 234.416667,72.7333333 234.65,72.4 C234.883333,72.0666667 235.033333,71.9 235.1,71.9 C235.166667,71.9 235.35,71.75 235.65,71.45 C235.95,71.15 236.166667,70.8 236.3,70.4 C236.433333,70 236.516667,69.8 236.55,69.8 C236.583333,69.8 236.8,69.5666667 237.2,69.1 C237.6,68.6333333 237.883333,68.2 238.05,67.8 C238.216667,67.4 238.316667,67.2 238.35,67.2 C238.383333,67.2 238.633333,66.9166667 239.1,66.35 C239.566667,65.7833333 240.3,64.7333333 241.3,63.2 C242.3,61.6666667 242.95,60.6333333 243.25,60.1 C243.55,59.5666667 243.733333,59.1833333 243.8,58.95 C243.857143,58.75 243.902041,58.6357143 243.934694,58.6071429 L243.95,58.6 C243.983333,58.6 244.116667,58.4 244.35,58 L244.446,57.821 L244.51,57.788 C244.89,57.596 245.12,57.5 245.2,57.5 C245.333333,57.5 245.45,57.45 245.55,57.35 C245.65,57.25 245.766667,57.2 245.9,57.2 C246.033333,57.2 246.266667,57.1 246.6,56.9 C246.933333,56.7 247.15,56.6 247.25,56.6 C247.35,56.6 247.45,56.55 247.55,56.45 C247.65,56.35 247.8,56.3 248,56.3 C248.2,56.3 248.6,56.2333333 249.2,56.1 C249.8,55.9666667 250.55,55.7 251.45,55.3 C252.35,54.9 252.866667,54.6333333 253,54.5 C253.133333,54.3666667 253.266667,54.3 253.4,54.3 C253.533333,54.3 253.833333,54.15 254.3,53.85 C254.766667,53.55 255.15,53.2 255.45,52.8 C255.75,52.4 255.9,51.8666667 255.9,51.2 C255.9,50.5333333 255.766667,50.0166667 255.5,49.65 C255.233333,49.2833333 254.916667,49 254.55,48.8 C254.183333,48.6 253.766667,48.5166667 253.3,48.55 C252.833333,48.5833333 252.366667,48.7833333 251.9,49.15 C251.433333,49.5166667 250.983333,49.8333333 250.55,50.1 C250.116667,50.3666667 249.75,50.6333333 249.45,50.9 C249.15,51.1666667 248.533333,51.5333333 247.6,52 C247.226667,52.1866667 246.853333,52.384 246.48,52.592 L246.419,52.627 L246.421605,52.6135802 C246.477572,52.2711934 246.52037,52.1 246.55,52.1 C246.583333,52.1 246.633333,52 246.7,51.8 C246.766667,51.6 246.783333,51 246.75,50 C246.716667,49 246.566667,48.3166667 246.3,47.95 C246.033333,47.5833333 245.716667,47.3 245.35,47.1 L245.189796,47.0214286 L245.189796,47.0214286 L245.179,47.018 L245.253,46.979 C246.027667,46.573 246.426667,46.3466667 246.45,46.3 C246.483333,46.2333333 246.566667,46.2 246.7,46.2 C246.833333,46.2 247.05,46.1166667 247.35,45.95 C247.65,45.7833333 247.866667,45.7 248,45.7 C248.133333,45.7 248.383333,45.6 248.75,45.4 C249.116667,45.2 249.35,45.1 249.45,45.1 C249.55,45.1 249.666667,45.05 249.8,44.95 C249.933333,44.85 250.05,44.8 250.15,44.8 C250.25,44.8 250.6,44.6333333 251.2,44.3 C251.8,43.9666667 252.15,43.8 252.25,43.8 C252.35,43.8 252.716667,43.6666667 253.35,43.4 C253.983333,43.1333333 254.55,42.8 255.05,42.4 C255.55,42 255.833333,41.8 255.9,41.8 C255.966667,41.8 256.066667,41.7333333 256.2,41.6 C256.333333,41.4666667 256.45,41.4 256.55,41.4 C256.65,41.4 256.883333,41.2666667 257.25,41 C257.616667,40.7333333 257.933333,40.4 258.2,40 C258.466667,39.6 258.6,39.1166667 258.6,38.55 C258.6,37.9833333 258.466667,37.5166667 258.2,37.15 C257.933333,36.7833333 257.616667,36.5 257.25,36.3 C256.883333,36.1 256.416667,36.0166667 255.85,36.05 C255.283333,36.0833333 254.683333,36.3 254.05,36.7 C253.416667,37.1 252.933333,37.4833333 252.6,37.85 C252.266667,38.2166667 251.6,38.65 250.6,39.15 C249.6,39.65 248.716667,40.15 247.95,40.65 C247.183333,41.15 245.716667,41.9333333 243.55,43 C241.383333,44.0666667 239.933333,44.8166667 239.2,45.25 C238.466667,45.6833333 238.266667,45.5666667 238.6,44.9 C238.933333,44.2333333 239.116667,43.9 239.15,43.9 C239.183333,43.9 239.266667,43.75 239.4,43.45 C239.533333,43.15 239.616667,42.8833333 239.65,42.65 C239.683333,42.4166667 239.716667,42.3 239.75,42.3 C239.783333,42.3 239.883333,42.15 240.05,41.85 C240.216667,41.55 240.3,40.1166667 240.3,37.55 C240.3,34.9833333 240.1,33.3833333 239.7,32.75 C239.3,32.1166667 238.916667,31.7 238.55,31.5 C238.183333,31.3 237.7,31.2166667 237.1,31.25 C236.5,31.2833333 236.016667,31.4333333 235.65,31.7 C235.283333,31.9666667 235,32.2833333 234.8,32.65 C234.6,33.0166667 234.516667,33.4333333 234.55,33.9 C234.583333,34.3666667 234.716667,34.75 234.95,35.05 C235.183333,35.35 235.283333,36.2666667 235.25,37.8 C235.216667,39.3333333 235.1,40.2333333 234.9,40.5 C234.7,40.7666667 234.566667,41.0666667 234.5,41.4 C234.433333,41.7333333 234.066667,42.55 233.4,43.85 C232.733333,45.15 232.316667,46.05 232.15,46.55 C231.983333,47.05 231.733333,47.5333333 231.4,48 C231.066667,48.4666667 230.816667,48.9333333 230.65,49.4 C230.483333,49.8666667 230.15,50.35 229.65,50.85 C229.15,51.35 228.85,51.7 228.75,51.9 C228.65,52.1 228.416667,52.3166667 228.05,52.55 C227.683333,52.7833333 227.35,53.1 227.05,53.5 C226.75,53.9 226.6,54.3833333 226.6,54.95 C226.6,55.5166667 226.733333,55.9833333 227,56.35 C227.266667,56.7166667 227.583333,57 227.95,57.2 C228.316667,57.4 228.733333,57.5 229.2,57.5 L230,57.5 L230,57.5 C230,57.5 230.233333,57.35 230.7,57.05 C231.166667,56.75 231.733333,56.2666667 232.4,55.6 C233.066667,54.9333333 233.433333,54.6 233.5,54.6 C233.566667,54.6 233.733333,54.4833333 234,54.25 C234.266667,54.0166667 234.433333,53.9 234.5,53.9 C234.56,53.9 234.782,53.765 235.166,53.495 L235.3,53.4 C235.766667,53.0666667 236.033333,52.9 236.1,52.9 C236.166667,52.9 236.5,52.6833333 237.1,52.25 C237.325,52.0875 237.53125,51.9390625 237.71875,51.8046875 L238.06875,51.5546875 C238.23125,51.4390625 238.375,51.3375 238.5,51.25 C238.833333,51.0166667 239.05,50.8333333 239.15,50.7 C239.25,50.5666667 239.333333,50.5 239.4,50.5 C239.466667,50.5 239.683333,50.3333333 240.05,50 C240.416667,49.6666667 240.633333,49.5 240.7,49.5 C240.766667,49.5 240.916667,49.3833333 241.15,49.15 C241.383333,48.9166667 241.533333,48.8 241.6,48.8 C241.616667,48.8 241.680208,48.775 241.790625,48.725 L241.811,48.715 C241.7245,49.0091667 241.670833,49.3541667 241.65,49.75 C241.616667,50.3833333 241.55,50.7833333 241.45,50.95 C241.35,51.1166667 241.283333,51.35 241.25,51.65 C241.216667,51.95 241.083333,52.2666667 240.85,52.6 C240.616667,52.9333333 240.4,53.4 240.2,54 C240,54.6 239.833333,55.1166667 239.7,55.55 C239.6,55.875 239.471875,56.190625 239.315625,56.496875 L239.272,56.576 L239.079586,56.6674556 C237.941913,57.2071006 236.665385,57.7846154 235.25,58.4 C232.95,59.4 231.45,60.0833333 230.75,60.45 C230.05,60.8166667 228.183333,61.5166667 225.15,62.55 C222.116667,63.5833333 220.4,64.2166667 220,64.45 C219.6,64.6833333 219,64.8166667 218.2,64.85 C217.4,64.8833333 216.816667,65.0333333 216.45,65.3 C216.083333,65.5666667 215.8,65.8833333 215.6,66.25 C215.4,66.6166667 215.316667,67.0333333 215.35,67.5 C215.383333,67.9666667 215.533333,68.3833333 215.8,68.75 C216.066667,69.1166667 216.383333,69.4 216.75,69.6 C217.116667,69.8 217.833333,69.9 218.9,69.9 L220.5,69.9 L220.5,69.9 C220.5,69.9 221.266667,69.5 222.8,68.7 C223.336667,68.42 223.785542,68.189 224.146625,68.007 L224.434625,67.863 C224.923208,67.621 225.195,67.5 225.25,67.5 C225.35,67.5 225.433333,67.45 225.5,67.35 C225.566667,67.25 225.65,67.2 225.75,67.2 C225.85,67.2 226.283333,67.0166667 227.05,66.65 C227.816667,66.2833333 228.25,66.1 228.35,66.1 C228.45,66.1 228.833333,65.9166667 229.5,65.55 C230.166667,65.1833333 230.55,65 230.65,65 C230.75,65 231.05,64.85 231.55,64.55 C232.05,64.25 232.35,64.0333333 232.45,63.9 C232.55,63.7666667 232.633333,63.7 232.7,63.7 C232.766667,63.7 233.116667,63.45 233.75,62.95 C234.383333,62.45 234.733333,62.2 234.8,62.2 C234.862222,62.2 235.316444,61.9967407 236.162667,61.5902222 L236.253,61.547 L236.126039,61.7357341 C235.245522,63.0417359 234.636842,63.8631579 234.3,64.2 C233.9,64.6 233.583333,65.05 233.35,65.55 C233.116667,66.05 232.783333,66.5166667 232.35,66.95 C231.916667,67.3833333 231.466667,67.9666667 231,68.7 C230.533333,69.4333333 230.166667,69.95 229.9,70.25 C229.633333,70.55 229.4,70.8666667 229.2,71.2 C229.05,71.45 228.534375,72.01875 227.653125,72.90625 L227.281125,73.27825 C227.085375,73.47275 226.875,73.68 226.65,73.9 C225.15,75.3666667 224.25,76.0333333 223.95,75.9 C223.65,75.7666667 223.266667,75.7166667 222.8,75.75 C222.333333,75.7833333 221.916667,75.9333333 221.55,76.2 C221.183333,76.4666667 220.85,76.8833333 220.55,77.45 C220.25,78.0166667 220.116667,78.6833333 220.15,79.45 C220.183333,80.2166667 220.4,80.85 220.8,81.35 C221.2,81.85 221.583333,82.2 221.95,82.4 C222.316667,82.6 222.733333,82.7 223.2,82.7 L224,82.7 L224,82.7 Z M271.2,71.1 L271.22449,71.0836735 C271.265306,71.0564626 271.357143,70.9952381 271.5,70.9 C271.7,70.7666667 272.05,70.7 272.55,70.7 C273.05,70.7 273.416667,70.6333333 273.65,70.5 C273.883333,70.3666667 274.216667,70.3 274.65,70.3 C275.083333,70.3 275.55,70.1666667 276.05,69.9 C276.55,69.6333333 277.066667,69.5 277.6,69.5 C278.133333,69.5 278.6,69.3666667 279,69.1 C279.4,68.8333333 279.783333,68.7166667 280.15,68.75 C280.516667,68.7833333 280.833333,68.9 281.1,69.1 C281.366667,69.3 281.783333,69.4 282.35,69.4 C282.916667,69.4 283.3,69.35 283.5,69.25 C283.7,69.15 283.9,69.1 284.1,69.1 C284.3,69.1 284.633333,68.95 285.1,68.65 C285.566667,68.35 285.883333,68.0666667 286.05,67.8 C286.216667,67.5333333 286.3,67.1166667 286.3,66.55 C286.3,65.9833333 286.166667,65.5166667 285.9,65.15 C285.633333,64.7833333 285.316667,64.5 284.95,64.3 C284.583333,64.1 284.283333,63.9833333 284.05,63.95 C283.816667,63.9166667 283.616667,63.85 283.45,63.75 C283.283333,63.65 282.716667,63.5833333 281.75,63.55 C280.783333,63.5166667 280.4,63.3 280.6,62.9 C280.8,62.5 280.916667,62.3 280.95,62.3 C280.983333,62.3 281.066667,62.1666667 281.2,61.9 C281.333333,61.6333333 281.433333,61.5 281.5,61.5 C281.566667,61.5 281.766667,61.3333333 282.1,61 C282.433333,60.6666667 282.8,60.1 283.2,59.3 C283.6,58.5 283.816667,58.1 283.85,58.1 C283.883333,58.1 284.066667,57.8833333 284.4,57.45 C284.733333,57.0166667 284.933333,56.8 285,56.8 C285.066667,56.8 285.283333,56.6166667 285.65,56.25 C286.016667,55.8833333 286.333333,55.4333333 286.6,54.9 C286.866667,54.3666667 287.016667,54.1 287.05,54.1 C287.083333,54.1 287.25,53.9 287.55,53.5 C287.85,53.1 288.15,52.6 288.45,52 C288.75,51.4 288.916667,51.1 288.95,51.1 C288.983333,51.1 289.2,50.85 289.6,50.35 C290,49.85 290.25,49.2333333 290.35,48.5 C290.45,47.7666667 290.516667,47.4 290.55,47.4 C290.583333,47.4 290.633333,47.2833333 290.7,47.05 C290.766667,46.8166667 290.783333,46.2 290.75,45.2 C290.716667,44.2 290.566667,43.5166667 290.3,43.15 C290.033333,42.7833333 289.716667,42.5 289.35,42.3 C288.983333,42.1 287.966667,42.0166667 286.3,42.05 C284.633333,42.0833333 283.733333,42.15 283.6,42.25 C283.466667,42.35 283.233333,42.4333333 282.9,42.5 C282.566667,42.5666667 282.266667,42.6666667 282,42.8 C281.733333,42.9333333 281.333333,43.0666667 280.8,43.2 C280.266667,43.3333333 279.766667,43.6166667 279.3,44.05 C278.833333,44.4833333 278.283333,44.8 277.65,45 C277.016667,45.2 276.383333,45.45 275.75,45.75 C275.116667,46.05 274.383333,46.45 273.55,46.95 C272.716667,47.45 271.933333,47.8833333 271.2,48.25 C270.466667,48.6166667 269.75,49.0166667 269.05,49.45 C268.35,49.8833333 267.666667,50.1833333 267,50.35 C266.333333,50.5166667 265.8,50.7833333 265.4,51.15 C265,51.5166667 264.7,51.8666667 264.5,52.2 C264.3,52.5333333 264.066667,52.8666667 263.8,53.2 C263.651852,53.3851852 263.544856,53.6269547 263.479012,53.9253086 L263.448,54.088 L263.272837,53.9083045 C262.974683,53.6038062 262.714014,53.339677 262.49083,53.115917 L262.241003,52.866782 C261.970531,52.5987313 261.773529,52.4098039 261.65,52.3 C261.35,52.0333333 261.033333,51.6833333 260.7,51.25 C260.366667,50.8166667 259.983333,50.4833333 259.55,50.25 C259.116667,50.0166667 258.833333,49.75 258.7,49.45 C258.566667,49.15 258.35,48.9666667 258.05,48.9 C257.75,48.8333333 257.5,48.8833333 257.3,49.05 C257.1,49.2166667 257,49.4666667 257,49.8 C257,50.1333333 257.2,50.6166667 257.6,51.25 C258,51.8833333 258.283333,52.5333333 258.45,53.2 C258.616667,53.8666667 259.033333,54.7833333 259.7,55.95 C260.366667,57.1166667 260.916667,58.3333333 261.35,59.6 C261.783333,60.8666667 262.15,61.65 262.45,61.95 C262.75,62.25 262.966667,62.5833333 263.1,62.95 C263.233333,63.3166667 263.5,63.7 263.9,64.1 C264.3,64.5 264.633333,64.7666667 264.9,64.9 C265.166667,65.0333333 265.466667,65.1 265.8,65.1 L266.4,65.1 L266.4,65.1 C266.4,65.1 266.633333,64.95 267.1,64.65 C267.566667,64.35 267.883333,64.0666667 268.05,63.8 C268.216667,63.5333333 268.3,63.0333333 268.3,62.3 C268.3,61.5666667 268.05,60.7833333 267.55,59.95 C267.05,59.1166667 266.6,58.3 266.2,57.5 L266.18,57.461 L266.283594,57.4367187 C266.536198,57.3664062 266.808333,57.2375 267.1,57.05 C267.566667,56.75 267.933333,56.3666667 268.2,55.9 C268.466667,55.4333333 268.666667,55.2 268.8,55.2 C268.933333,55.2 269.483333,54.9333333 270.45,54.4 C271.416667,53.8666667 271.95,53.5333333 272.05,53.4 C272.15,53.2666667 272.233333,53.2 272.3,53.2 C272.366667,53.2 272.666667,53.0166667 273.2,52.65 C273.733333,52.2833333 274.033333,52.1 274.1,52.1 C274.166667,52.1 274.75,51.7666667 275.85,51.1 C276.95,50.4333333 277.55,50.1 277.65,50.1 C277.75,50.1 277.933333,50.0333333 278.2,49.9 C278.466667,49.7666667 278.683333,49.7 278.85,49.7 C279.016667,49.7 279.4,49.6333333 280,49.5 C280.6,49.3666667 281.116667,49.1 281.55,48.7 C281.983333,48.3 282.266667,48.1 282.4,48.1 C282.533333,48.1 282.833333,48 283.3,47.8 C283.766667,47.6 284.083333,47.5 284.25,47.5 C284.416667,47.5 284.633333,47.4333333 284.9,47.3 C285.166667,47.1666667 285.283333,47.2 285.25,47.4 C285.216667,47.6 284.966667,48.0333333 284.5,48.7 C284.033333,49.3666667 283.7,49.9 283.5,50.3 C283.3,50.7 283.083333,51.0166667 282.85,51.25 C282.616667,51.4833333 282.4,51.8166667 282.2,52.25 C282,52.6833333 281.716667,53.0166667 281.35,53.25 C280.983333,53.4833333 280.65,53.8333333 280.35,54.3 C280.05,54.7666667 279.766667,55.15 279.5,55.45 C279.233333,55.75 278.983333,56.1666667 278.75,56.7 C278.516667,57.2333333 278.25,57.6 277.95,57.8 C277.65,58 277.3,58.45 276.9,59.15 C276.5,59.85 276.15,60.4166667 275.85,60.85 C275.55,61.2833333 275.266667,61.65 275,61.95 C274.733333,62.25 274.5,62.55 274.3,62.85 C274.1,63.15 273.866667,63.4333333 273.6,63.7 C273.333333,63.9666667 272.95,64.2166667 272.45,64.45 C271.95,64.6833333 271.533333,64.9333333 271.2,65.2 C270.866667,65.4666667 270.35,65.6166667 269.65,65.65 C268.95,65.6833333 268.283333,65.9 267.65,66.3 C267.016667,66.7 266.6,67.0833333 266.4,67.45 C266.2,67.8166667 266.116667,68.2333333 266.15,68.7 C266.183333,69.1666667 266.333333,69.5833333 266.6,69.95 C266.866667,70.3166667 267.183333,70.6 267.55,70.8 C267.916667,71 268.6,71.1 269.6,71.1 L271.2,71.1 L271.2,71.1 Z M253.9,76.3 C253.9,76.3 254.133333,76.15 254.6,75.85 C255.066667,75.55 255.383333,75.2666667 255.55,75 C255.716667,74.7333333 255.8,74.3166667 255.8,73.75 C255.8,73.1833333 255.616667,72.65 255.25,72.15 C254.883333,71.65 254.483333,71.2666667 254.05,71 C253.616667,70.7333333 253.116667,70.3 252.55,69.7 C251.983333,69.1 251.4,68.6333333 250.8,68.3 C250.2,67.9666667 249.716667,67.6333333 249.35,67.3 C248.983333,66.9666667 248.266667,66.4333333 247.2,65.7 C246.133333,64.9666667 245.45,64.5 245.15,64.3 C244.85,64.1 244.516667,64.0166667 244.15,64.05 C243.783333,64.0833333 243.55,64.15 243.45,64.25 C243.35,64.35 243.316667,64.5166667 243.35,64.75 C243.383333,64.9833333 243.45,65.15 243.55,65.25 C243.65,65.35 243.766667,65.4 243.9,65.4 C244.033333,65.4 244.266667,65.6833333 244.6,66.25 C244.933333,66.8166667 245.35,67.4333333 245.85,68.1 C246.35,68.7666667 246.666667,69.3166667 246.8,69.75 C246.933333,70.1833333 247.116667,70.5666667 247.35,70.9 C247.583333,71.2333333 247.866667,71.5333333 248.2,71.8 C248.533333,72.0666667 248.8,72.4166667 249,72.85 C249.2,73.2833333 249.7,73.9 250.5,74.7 C251.3,75.5 251.833333,75.9666667 252.1,76.1 C252.366667,76.2333333 252.733333,76.3 253.2,76.3 L253.9,76.3 L253.9,76.3 Z M268.8,113.1 C268.8,113.1 269.033333,112.95 269.5,112.65 C269.966667,112.35 270.283333,112.066667 270.45,111.8 C270.616667,111.533333 270.7,108.783333 270.7,103.55 L270.7,103.171654 L270.7,103.171654 L270.699197,102.442445 C270.692415,97.9401646 270.642683,95.6426829 270.55,95.55 C270.45,95.45 270.383333,93.9833333 270.35,91.15 C270.316667,88.3166667 270.25,86.85 270.15,86.75 C270.05,86.65 269.983333,86.1833333 269.95,85.35 C269.916667,84.5166667 269.783333,83.9166667 269.55,83.55 C269.316667,83.1833333 269.15,82.7833333 269.05,82.35 C268.95,81.9166667 268.75,81.4833333 268.45,81.05 C268.15,80.6166667 267.95,80.2333333 267.85,79.9 C267.75,79.5666667 267.466667,79.15 267,78.65 C266.533333,78.15 266.066667,77.7833333 265.6,77.55 C265.133333,77.3166667 263.983333,77.2166667 262.15,77.25 C260.316667,77.2833333 259.25,77.4166667 258.95,77.65 C258.65,77.8833333 258.316667,78.0166667 257.95,78.05 C257.583333,78.0833333 257.2,78.25 256.8,78.55 C256.4,78.85 256.116667,79.1333333 255.95,79.4 C255.783333,79.6666667 255.466667,79.8833333 255,80.05 C254.533333,80.2166667 254.116667,80.4333333 253.75,80.7 C253.383333,80.9666667 252.733333,81.3833333 251.8,81.95 C250.866667,82.5166667 250.366667,82.8666667 250.3,83 C250.233333,83.1333333 250.033333,83.2333333 249.7,83.3 C249.366667,83.3666667 248.75,83.8333333 247.85,84.7 C246.95,85.5666667 246.366667,86.2666667 246.1,86.8 C245.833333,87.3333333 245.716667,87.8333333 245.75,88.3 C245.783333,88.7666667 245.933333,89.1833333 246.2,89.55 C246.466667,89.9166667 246.783333,90.2 247.15,90.4 C247.516667,90.6 247.883333,90.7 248.25,90.7 C248.616667,90.7 249.033333,90.55 249.5,90.25 C249.966667,89.95 250.433333,89.5333333 250.9,89 C251.366667,88.4666667 251.65,88.2 251.75,88.2 C251.85,88.2 252.266667,87.95 253,87.45 C253.733333,86.95 254.2,86.5833333 254.4,86.35 C254.6,86.1166667 254.733333,86 254.8,86 C254.866667,86 255.1,85.9 255.5,85.7 C255.9,85.5 256.2,85.3 256.4,85.1 C256.6,84.9 256.75,84.8 256.85,84.8 C256.95,84.8 257.3,84.65 257.9,84.35 C258.5,84.05 258.916667,83.7666667 259.15,83.5 C259.383333,83.2333333 259.583333,83.1 259.75,83.1 C259.916667,83.1 260.2,82.9666667 260.6,82.7 C261,82.4333333 261.55,82.3 262.25,82.3 C262.95,82.3 263.366667,82.4333333 263.5,82.7 C263.633333,82.9666667 263.766667,83.1666667 263.9,83.3 C264.033333,83.4333333 264.116667,83.6833333 264.15,84.05 C264.183333,84.4166667 264.316667,84.75 264.55,85.05 C264.783333,85.35 264.916667,85.95 264.95,86.85 C264.983333,87.75 265.05,88.2666667 265.15,88.4 C265.25,88.5333333 265.316667,90 265.35,92.8 C265.383333,95.6 265.45,97.0666667 265.55,97.2 C265.65,97.3333333 265.683333,98.6833333 265.65,101.25 C265.628667,102.892667 265.566373,104.05064 265.46312,104.72392 L265.444,104.839 C265.375778,104.874111 265.311111,104.911111 265.25,104.95 C264.883333,105.183333 264.5,105.166667 264.1,104.9 C263.7,104.633333 263.333333,104.466667 263,104.4 C262.666667,104.333333 262.416667,104.25 262.25,104.15 C262.130952,104.078571 261.289116,104.041156 259.72449,104.037755 L259.233418,104.037755 C258.720663,104.038776 258.142857,104.042857 257.5,104.05 C254.5,104.083333 252.8,104.216667 252.4,104.45 C252,104.683333 251.6,104.816667 251.2,104.85 C250.8,104.883333 250.533333,104.95 250.4,105.05 C250.266667,105.15 249.8,105.216667 249,105.25 C248.2,105.283333 247.65,105.416667 247.35,105.65 C247.05,105.883333 246.65,106.016667 246.15,106.05 C245.65,106.083333 245.333333,106.15 245.2,106.25 C245.096296,106.327778 244.871605,106.385391 244.525926,106.42284 L244.418,106.433 L244.425778,106.326667 C244.479704,105.575556 244.521111,105.2 244.55,105.2 C244.583333,105.2 244.65,104.883333 244.75,104.25 C244.85,103.616667 244.916667,103.3 244.95,103.3 C244.983333,103.3 245.033333,103.2 245.1,103 C245.166667,102.8 245.216667,102.2 245.25,101.2 C245.283333,100.2 245.316667,99.7 245.35,99.7 C245.383333,99.7 245.433333,99.5833333 245.5,99.35 L245.508,99.324 L245.9,99.1 L245.9,99.1 C246.366667,98.8333333 246.7,98.7 246.9,98.7 C247.1,98.7 247.533333,98.5 248.2,98.1 C248.866667,97.7 249.333333,97.5 249.6,97.5 C249.866667,97.5 250.233333,97.3666667 250.7,97.1 C251.166667,96.8333333 251.633333,96.7 252.1,96.7 C252.566667,96.7 252.9,96.6333333 253.1,96.5 C253.3,96.3666667 253.65,96.3 254.15,96.3 C254.65,96.3 255.016667,96.2333333 255.25,96.1 C255.483333,95.9666667 255.933333,95.9 256.6,95.9 C257.266667,95.9 257.7,95.8333333 257.9,95.7 C258.1,95.5666667 258.416667,95.5 258.85,95.5 C259.283333,95.5 259.733333,95.35 260.2,95.05 C260.666667,94.75 260.983333,94.4666667 261.15,94.2 C261.316667,93.9333333 261.4,93.5166667 261.4,92.95 C261.4,92.3833333 261.266667,91.9166667 261,91.55 C260.733333,91.1833333 260.416667,90.9 260.05,90.7 C259.683333,90.5 259.016667,90.4166667 258.05,90.45 C257.083333,90.4833333 256.55,90.55 256.45,90.65 C256.35,90.75 255.95,90.8166667 255.25,90.85 C254.62,90.88 254.2195,90.937 254.0485,91.021 L254,91.05 C253.88,91.14 253.544,91.203 252.992,91.239 L252.8,91.25 C252.133333,91.2833333 251.75,91.35 251.65,91.45 C251.55,91.55 251.216667,91.6166667 250.65,91.65 C250.083333,91.6833333 249.75,91.75 249.65,91.85 C249.55,91.95 249.316667,92.0333333 248.95,92.1 C248.583333,92.1666667 247.983333,92.4333333 247.15,92.9 C246.695455,93.1545455 246.300413,93.3446281 245.964876,93.4702479 L245.949,93.476 L245.946433,93.2346017 C245.912029,90.3402695 245.846552,88.8287356 245.75,88.7 C245.65,88.5666667 245.583333,88.1 245.55,87.3 C245.516667,86.5 245.316667,85.7833333 244.95,85.15 C244.583333,84.5166667 244.366667,83.95 244.3,83.45 C244.233333,82.95 244.016667,82.4166667 243.65,81.85 C243.283333,81.2833333 242.9,80.85 242.5,80.55 C242.1,80.25 241.55,80.1 240.85,80.1 C240.15,80.1 239.55,80.3 239.05,80.7 C238.55,81.1 238.2,81.4833333 238,81.85 C237.8,82.2166667 237.716667,82.6333333 237.75,83.1 C237.783333,83.5666667 237.933333,83.9833333 238.2,84.35 C238.466667,84.7166667 238.716667,84.9666667 238.95,85.1 C239.183333,85.2333333 239.383333,85.4833333 239.55,85.85 C239.716667,86.2166667 239.916667,86.5833333 240.15,86.95 C240.383333,87.3166667 240.516667,87.9 240.55,88.7 C240.583333,89.5 240.65,89.9666667 240.75,90.1 C240.820833,90.1944444 240.858218,90.8240741 240.862153,91.9888889 L240.862153,92.4222222 C240.860995,92.8018519 240.856944,93.2277778 240.85,93.7 C240.816667,95.9666667 240.75,97.1833333 240.65,97.35 C240.55,97.5166667 240.466667,97.75 240.4,98.05 C240.333333,98.35 240.266667,98.55 240.2,98.65 C240.133333,98.75 240.083333,99.3166667 240.05,100.35 C240.016667,101.383333 239.95,101.983333 239.85,102.15 C239.75,102.316667 239.683333,102.516667 239.65,102.75 C239.616667,102.983333 239.55,103.183333 239.45,103.35 C239.35,103.516667 239.316667,104.366667 239.35,105.9 C239.366667,106.666667 239.4125,107.2875 239.4875,107.7625 L239.503,107.855 L239.45,107.9 L239.45,107.9 C239.083333,108.233333 238.833333,108.533333 238.7,108.8 C238.566667,109.066667 238.516667,109.433333 238.55,109.9 C238.583333,110.366667 238.733333,110.783333 239,111.15 C239.266667,111.516667 239.583333,111.8 239.95,112 C240.316667,112.2 240.8,112.3 241.4,112.3 L242.4,112.3 L242.4,112.3 L242.42449,112.283673 C242.465306,112.256463 242.557143,112.195238 242.7,112.1 C242.9,111.966667 243.233333,111.9 243.7,111.9 C244.166667,111.9 244.5,111.833333 244.7,111.7 C244.9,111.566667 245.183333,111.5 245.55,111.5 C245.916667,111.5 246.216667,111.433333 246.45,111.3 C246.683333,111.166667 247.016667,111.1 247.45,111.1 C247.883333,111.1 248.383333,110.983333 248.95,110.75 C249.516667,110.516667 250.1,110.366667 250.7,110.3 C251.3,110.233333 251.666667,110.15 251.8,110.05 C251.933333,109.95 252.15,109.9 252.45,109.9 C252.75,109.9 253.183333,109.783333 253.75,109.55 C254.316667,109.316667 255.55,109.183333 257.45,109.15 C259.35,109.116667 260.4,109.166667 260.6,109.3 C260.8,109.433333 261.05,109.516667 261.35,109.55 C261.65,109.583333 261.983333,109.783333 262.35,110.15 C262.716667,110.516667 263.15,110.8 263.65,111 C264.15,111.2 264.5,111.383333 264.7,111.55 C264.9,111.716667 265.35,111.8 266.05,111.8 L266.097,111.799 L266.2,111.95 L266.2,111.95 C266.466667,112.316667 266.783333,112.6 267.15,112.8 C267.516667,113 267.866667,113.1 268.2,113.1 L268.8,113.1 L268.8,113.1 Z M329.2,80.3 C329.2,80.3 329.433333,80.15 329.9,79.85 C330.366667,79.55 330.75,79.2 331.05,78.8 C331.35,78.4 331.533333,77.7 331.6,76.7 C331.666667,75.7 331.716667,75.2 331.75,75.2 C331.783333,75.2 331.833333,75.1 331.9,74.9 C331.966667,74.7 332.016667,73.9833333 332.05,72.75 C332.083333,71.5166667 332.116667,70.9 332.15,70.9 C332.183333,70.9 332.233333,70.8 332.3,70.6 C332.366667,70.4 332.416667,68.9333333 332.45,66.2 C332.478571,63.8571429 332.507143,62.5183673 332.535714,62.1836735 L332.542857,62.1209184 C332.545238,62.1069728 332.547619,62.1 332.55,62.1 C332.583333,62.1 332.633333,62 332.7,61.8 C332.722989,61.7310345 332.740032,61.4876734 332.75113,61.0699168 L332.751,61.063 L332.772222,61.1222222 C332.835185,61.2851852 332.911111,61.4277778 333,61.55 C333.266667,61.9166667 333.583333,62.2 333.95,62.4 C334.316667,62.6 334.683333,62.7 335.05,62.7 C335.416667,62.7 335.833333,62.55 336.3,62.25 C336.766667,61.95 337.066667,61.6666667 337.2,61.4 C337.333333,61.1333333 337.433333,61 337.5,61 C337.566667,61 337.816667,60.8 338.25,60.4 C338.683333,60 338.95,59.6833333 339.05,59.45 C339.15,59.2166667 339.233333,59.1 339.3,59.1 C339.36,59.1 339.582,58.965 339.966,58.695 L340.1,58.6 C340.52,58.3 340.778,58.135 340.874,58.105 L340.9,58.1 C340.966667,58.1 341.233333,57.9333333 341.7,57.6 C342.166667,57.2666667 342.483333,57.1 342.65,57.1 C342.816667,57.1 343.533333,56.7833333 344.8,56.15 C346.066667,55.5166667 346.75,55.2 346.85,55.2 C346.875,55.2 346.909375,55.1947917 346.953125,55.184375 L346.97,55.18 L346.906944,55.2708333 C346.868981,55.3291667 346.833333,55.3888889 346.8,55.45 C346.6,55.8166667 346.516667,56.7833333 346.55,58.35 C346.563725,58.995098 346.583103,59.5243368 346.608131,59.9377163 L346.61,59.964 L346.45,60 L346.45,60 C345.816667,60.1333333 345.05,60.3833333 344.15,60.75 C343.25,61.1166667 342.466667,61.3833333 341.8,61.55 C341.133333,61.7166667 340.5,61.9666667 339.9,62.3 C339.3,62.6333333 338.833333,62.8333333 338.5,62.9 C338.166667,62.9666667 337.816667,63.1666667 337.45,63.5 C337.083333,63.8333333 336.833333,64.1333333 336.7,64.4 C336.566667,64.6666667 336.516667,65.0333333 336.55,65.5 C336.583333,65.9666667 336.733333,66.3833333 337,66.75 C337.266667,67.1166667 337.583333,67.4 337.95,67.6 C338.316667,67.8 338.766667,67.9 339.3,67.9 L340.1,67.9 L340.1,67.9 C340.1,67.9 340.516667,67.6833333 341.35,67.25 C342.183333,66.8166667 342.666667,66.6 342.8,66.6 C342.933333,66.6 343.633333,66.3833333 344.9,65.95 C345.744444,65.6611111 346.388889,65.4388889 346.833333,65.2833333 L346.908,65.257 L346.908058,65.267562 C346.921694,66.2607438 346.933247,67.4268423 346.942717,68.7658574 L346.943,68.853 L346.796875,68.89375 C346.523958,68.9729167 346.241667,69.0583333 345.95,69.15 C344.783333,69.5166667 343.633333,69.7666667 342.5,69.9 C341.366667,70.0333333 340.6,70.1833333 340.2,70.35 C339.8,70.5166667 339.333333,70.6666667 338.8,70.8 C338.266667,70.9333333 337.966667,71.0333333 337.9,71.1 C337.833333,71.1666667 337.533333,71.2166667 337,71.25 C336.466667,71.2833333 336.016667,71.4333333 335.65,71.7 C335.283333,71.9666667 335,72.2833333 334.8,72.65 C334.6,73.0166667 334.516667,73.4333333 334.55,73.9 C334.583333,74.3666667 334.733333,74.7833333 335,75.15 C335.266667,75.5166667 335.583333,75.8 335.95,76 C336.316667,76.2 336.9,76.3 337.7,76.3 L338.9,76.3 L338.9,76.3 L338.926389,76.2861111 C339.014352,76.2398148 339.322222,76.0777778 339.85,75.8 C340.483333,75.4666667 340.866667,75.3 341,75.3 C341.133333,75.3 341.366667,75.1833333 341.7,74.95 C342.033333,74.7166667 342.25,74.6 342.35,74.6 C342.45,74.6 343.116667,74.4833333 344.35,74.25 C345.583333,74.0166667 346.25,73.85 346.35,73.75 C346.45,73.65 346.616667,73.6 346.85,73.6 C346.885897,73.6 346.931262,73.599211 346.986095,73.5976331 L346.995,73.598 L346.998486,73.7732017 C347.067712,77.018199 347.20155,78.7771318 347.4,79.05 C347.666667,79.4166667 347.983333,79.7 348.35,79.9 C348.716667,80.1 349.066667,80.2 349.4,80.2 L350,80.2 L350,80.2 C350,80.2 350.233333,80.05 350.7,79.75 C351.166667,79.45 351.483333,79.1666667 351.65,78.9 C351.775926,78.6985185 351.85428,76.8129877 351.885062,73.2434074 L351.887,72.955 L352.166,72.884 C352.562,72.788 352.94,72.71 353.3,72.65 C353.9,72.55 354.366667,72.4 354.7,72.2 C355.033333,72 355.4,71.9 355.8,71.9 C356.2,71.9 356.5,71.8333333 356.7,71.7 C356.86,71.5933333 357.02,71.5293333 357.18,71.508 L357.3,71.5 C357.46,71.5 357.62,71.4573333 357.78,71.372 L357.9,71.3 C358.06,71.1933333 358.22,71.1293333 358.38,71.108 L358.5,71.1 C358.66,71.1 358.82,71.0573333 358.98,70.972 L359.1,70.9 C359.3,70.7666667 359.5,70.7 359.7,70.7 C359.9,70.7 360.1,70.6333333 360.3,70.5 C360.5,70.3666667 360.766667,70.3 361.1,70.3 C361.433333,70.3 361.833333,70.15 362.3,69.85 C362.766667,69.55 363.133333,69.2 363.4,68.8 C363.666667,68.4 363.8,67.9166667 363.8,67.35 C363.8,66.7833333 363.666667,66.3166667 363.4,65.95 C363.133333,65.5833333 362.816667,65.3 362.45,65.1 C362.083333,64.9 361.616667,64.8166667 361.05,64.85 C360.483333,64.8833333 360.15,64.95 360.05,65.05 C359.95,65.15 359.716667,65.2333333 359.35,65.3 C358.983333,65.3666667 358.783333,65.4333333 358.75,65.5 C358.716667,65.5666667 358.516667,65.6333333 358.15,65.7 C357.783333,65.7666667 357.583333,65.8333333 357.55,65.9 C357.516667,65.9666667 357.316667,66.0333333 356.95,66.1 C356.583333,66.1666667 356.383333,66.2333333 356.35,66.3 C356.316667,66.3666667 356.116667,66.4333333 355.75,66.5 C355.383333,66.5666667 355.183333,66.6333333 355.15,66.7 C355.116667,66.7666667 354.883333,66.8166667 354.45,66.85 C354.016667,66.8833333 353.6,67.0166667 353.2,67.25 C352.857143,67.45 352.465306,67.5765306 352.02449,67.6295918 L351.898,67.641 L351.898148,67.3049383 C351.895432,65.9595885 351.889728,64.7925021 351.881037,63.803679 L351.879,63.587 L351.953704,63.5506173 C352.021605,63.5168724 352.087037,63.4833333 352.15,63.45 C352.716667,63.15 353.066667,63 353.2,63 C353.333333,63 353.9,62.8666667 354.9,62.6 C355.9,62.3333333 356.5,62.2666667 356.7,62.4 C356.9,62.5333333 357.183333,62.6 357.55,62.6 C357.916667,62.6 358.333333,62.45 358.8,62.15 C359.266667,61.85 359.75,61.5166667 360.25,61.15 C360.75,60.7833333 361.083333,60.4666667 361.25,60.2 C361.416667,59.9333333 361.5,59.45 361.5,58.75 C361.5,58.05 361.366667,57.5166667 361.1,57.15 C360.833333,56.7833333 360.516667,56.5 360.15,56.3 C359.783333,56.1 359.166667,56.0166667 358.3,56.05 C357.433333,56.0833333 356.833333,56.2333333 356.5,56.5 C356.166667,56.7666667 355.2,57.1166667 353.6,57.55 C352.853333,57.7522222 352.219185,57.9399259 351.697556,58.1131111 L351.571,58.156 L351.565111,58.0157778 C351.559481,57.8697037 351.554444,57.7144444 351.55,57.55 C351.516667,56.3166667 351.366667,55.5166667 351.1,55.15 C350.833333,54.7833333 350.516667,54.5 350.15,54.3 L349.989796,54.2214286 L349.989796,54.2214286 L349.946,54.205 L350.075,54.125 C350.325,53.975 350.5,53.9 350.6,53.9 C350.733333,53.9 350.9,53.8333333 351.1,53.7 C351.3,53.5666667 351.65,53.5 352.15,53.5 C352.65,53.5 353.15,53.3666667 353.65,53.1 C354.15,52.8333333 354.55,52.7 354.85,52.7 C355.15,52.7 355.65,52.5833333 356.35,52.35 C357.05,52.1166667 357.466667,52 357.6,52 C357.733333,52 357.966667,51.9166667 358.3,51.75 C358.633333,51.5833333 359.35,51.5 360.45,51.5 C361.55,51.5 362.216667,51.4333333 362.45,51.3 C362.683333,51.1666667 363.166667,51.1 363.9,51.1 C364.633333,51.1 365.066667,51.25 365.2,51.55 C365.333333,51.85 365.466667,52.0666667 365.6,52.2 C365.733333,52.3333333 365.85,52.5166667 365.95,52.75 C366.043478,52.9681159 366.093266,55.865942 366.099362,61.4434783 L366.099929,62.2391304 C366.099976,62.3746377 366.1,62.5115942 366.1,62.65 C366.1,69.0166667 365.883333,72.3333333 365.45,72.6 C365.016667,72.8666667 364.7,73.1833333 364.5,73.55 C364.3,73.9166667 364.216667,74.3333333 364.25,74.8 C364.283333,75.2666667 364.5,75.75 364.9,76.25 C365.3,76.75 365.733333,77.2166667 366.2,77.65 C366.666667,78.0833333 367.033333,78.3666667 367.3,78.5 C367.566667,78.6333333 367.933333,78.7 368.4,78.7 L369.2,78.7 L369.2,78.7 C369.2,78.7 369.433333,78.55 369.9,78.25 C370.366667,77.95 370.683333,77.6666667 370.85,77.4 C371.007576,77.1478788 371.090661,73.24573 371.099256,65.6935537 L371.1,64.8059504 C371.1,64.6553168 371.1,64.5033333 371.1,64.35 L371.1,63.8940496 L371.1,63.8940496 L371.099405,63.0064463 C371.092529,55.45427 371.026061,51.5521212 370.9,51.3 C370.766667,51.0333333 370.666667,50.7833333 370.6,50.55 C370.533333,50.3166667 370.366667,50.0166667 370.1,49.65 C369.833333,49.2833333 369.6,48.9 369.4,48.5 C369.2,48.1 368.85,47.65 368.35,47.15 C367.85,46.65 367.466667,46.3333333 367.2,46.2 C367.003509,46.1017544 366.390766,46.0487535 365.361773,46.0409972 L364.895291,46.0404432 C364.649307,46.0415512 364.384211,46.0447368 364.1,46.05 C362.3,46.0833333 361.333333,46.15 361.2,46.25 C361.066667,46.35 360.4,46.4166667 359.2,46.45 C358,46.4833333 357.3,46.5666667 357.1,46.7 C356.9,46.8333333 356.383333,47 355.55,47.2 C354.716667,47.4 354.05,47.55 353.55,47.65 C353.05,47.75 352.633333,47.9 352.3,48.1 C351.966667,48.3 351.4,48.4166667 350.6,48.45 C350.333333,48.4611111 350.105556,48.4759259 349.916667,48.4944444 L349.799,48.508 L349.843,48.4795 C349.941,48.4165 350.06,48.34 350.2,48.25 C350.666667,47.95 350.983333,47.6666667 351.15,47.4 C351.316667,47.1333333 351.4,46.7166667 351.4,46.15 C351.4,45.5833333 351.266667,45.1166667 351,44.75 C350.733333,44.3833333 350.416667,44.1 350.05,43.9 L349.897959,43.8193878 L349.897959,43.8193878 L349.795,43.769 C349.9025,43.6855 349.9875,43.6125 350.05,43.55 C350.216667,43.3833333 350.333333,43.3 350.4,43.3 C350.466667,43.3 350.983333,42.9833333 351.95,42.35 C352.916667,41.7166667 353.583333,41.2 353.95,40.8 C354.316667,40.4 354.533333,40.2 354.6,40.2 C354.666667,40.2 355.283333,39.8 356.45,39 C357.616667,38.2 358.283333,37.7166667 358.45,37.55 C358.616667,37.3833333 358.733333,37.3 358.8,37.3 C358.866667,37.3 359.5,36.9333333 360.7,36.2 C361.9,35.4666667 362.666667,34.9333333 363,34.6 C363.333333,34.2666667 363.533333,34.1 363.6,34.1 C363.666667,34.1 364.133333,33.7 365,32.9 C365.866667,32.1 366.333333,31.7 366.4,31.7 C366.466667,31.7 366.7,31.5166667 367.1,31.15 C367.5,30.7833333 367.75,30.4666667 367.85,30.2 C367.95,29.9333333 367.966667,29.55 367.9,29.05 C367.833333,28.55 367.633333,28.1166667 367.3,27.75 C366.966667,27.3833333 366.666667,27.1333333 366.4,27 C366.133333,26.8666667 365.5,26.8166667 364.5,26.85 C363.5,26.8833333 362.95,26.95 362.85,27.05 C362.75,27.15 362.516667,27.2333333 362.15,27.3 C361.783333,27.3666667 361.583333,27.4333333 361.55,27.5 C361.516667,27.5666667 361.15,27.6166667 360.45,27.65 C359.75,27.6833333 359.333333,27.75 359.2,27.85 C359.066667,27.95 358.833333,28.0333333 358.5,28.1 C358.166667,28.1666667 357.966667,28.2333333 357.9,28.3 C357.833333,28.3666667 357.533333,28.4166667 357,28.45 C356.466667,28.4833333 356.15,28.55 356.05,28.65 C355.95,28.75 355.683333,28.8166667 355.25,28.85 C354.816667,28.8833333 354.533333,28.95 354.4,29.05 C354.266667,29.15 353.916667,29.2166667 353.35,29.25 C352.783333,29.2833333 351.883333,29.5166667 350.65,29.95 C349.416667,30.3833333 348.35,30.65 347.45,30.75 C346.55,30.85 345.783333,31.05 345.15,31.35 C344.516667,31.65 344.166667,31.8333333 344.1,31.9 C344.033333,31.9666667 343.816667,32.0166667 343.45,32.05 C343.083333,32.0833333 342.8,32.15 342.6,32.25 C342.42,32.34 342.0375,32.403 341.4525,32.439 L341.25,32.45 C340.55,32.4833333 340.133333,32.55 340,32.65 C339.866667,32.75 339.516667,32.8166667 338.95,32.85 C338.383333,32.8833333 337.75,33.0166667 337.05,33.25 C336.35,33.4833333 334.833333,33.6166667 332.5,33.65 C330.166667,33.6833333 328.816667,33.8333333 328.45,34.1 C328.083333,34.3666667 327.8,34.6833333 327.6,35.05 C327.4,35.4166667 327.316667,35.8333333 327.35,36.3 C327.383333,36.7666667 327.533333,37.1833333 327.8,37.55 C328.066667,37.9166667 328.383333,38.2 328.75,38.4 C329.101389,38.5916667 330.463021,38.6914931 332.834896,38.6994792 L333.15,38.7 C335.716667,38.7 337.4,38.5666667 338.2,38.3 C339,38.0333333 339.65,37.9 340.15,37.9 C340.65,37.9 341.016667,37.8333333 341.25,37.7 C341.483333,37.5666667 341.883333,37.5 342.45,37.5 C343.016667,37.5 343.45,37.4333333 343.75,37.3 C344.05,37.1666667 344.366667,37.1 344.7,37.1 C345.033333,37.1 345.466667,36.9333333 346,36.6 C346.533333,36.2666667 346.85,36.1 346.95,36.1 C347.05,36.1 347.15,36.0666667 347.25,36 C347.35,35.9333333 347.666667,35.9 348.2,35.9 C348.733333,35.9 349.866667,35.6333333 351.6,35.1 C353.333333,34.5666667 353.983333,34.4666667 353.55,34.8 C353.116667,35.1333333 352.75,35.3666667 352.45,35.5 C352.15,35.6333333 351.7,35.9166667 351.1,36.35 C350.5,36.7833333 350.066667,37.1333333 349.8,37.4 C349.533333,37.6666667 349.033333,37.9833333 348.3,38.35 C347.566667,38.7166667 346.933333,39.1666667 346.4,39.7 C345.866667,40.2333333 345.5,40.6833333 345.3,41.05 L345.221429,41.2102041 L345.221429,41.2102041 L345.162,41.365 L345.075,41.325 C344.841667,41.225 344.566667,41.1333333 344.25,41.05 C343.616667,40.8833333 343.15,40.6833333 342.85,40.45 C342.55,40.2166667 342.066667,40.05 341.4,39.95 C340.733333,39.85 340.216667,39.7 339.85,39.5 C339.483333,39.3 339.166667,39.2166667 338.9,39.25 C338.633333,39.2833333 338.433333,39.3666667 338.3,39.5 C338.166667,39.6333333 338.116667,39.8166667 338.15,40.05 C338.183333,40.2833333 338.366667,40.5166667 338.7,40.75 C339.033333,40.9833333 339.466667,41.2666667 340,41.6 C340.533333,41.9333333 341,42.3833333 341.4,42.95 C341.8,43.5166667 342.183333,43.9166667 342.55,44.15 C342.916667,44.3833333 343.266667,44.75 343.6,45.25 C343.933333,45.75 344.433333,46.3166667 345.1,46.95 C345.766667,47.5833333 346.366667,48.0333333 346.9,48.3 C347.433333,48.5666667 348,48.7 348.6,48.7 L349.185,48.7 L349.131633,48.7316327 C349.005782,48.7962585 348.811905,48.852381 348.55,48.9 C348.183333,48.9666667 347.866667,49.1166667 347.6,49.35 C347.333333,49.5833333 346.733333,49.85 345.8,50.15 C344.866667,50.45 343.966667,50.8333333 343.1,51.3 C342.233333,51.7666667 341.633333,52.0333333 341.3,52.1 C340.966667,52.1666667 340.433333,52.4333333 339.7,52.9 C338.966667,53.3666667 338.383333,53.7166667 337.95,53.95 C337.516667,54.1833333 337.033333,54.5 336.5,54.9 C335.966667,55.3 335.533333,55.7166667 335.2,56.15 C334.866667,56.5833333 334.516667,56.8833333 334.15,57.05 C333.783333,57.2166667 333.483333,57.4166667 333.25,57.65 C333.075,57.825 332.928125,58.009375 332.809375,58.203125 L332.762,58.289 L332.760939,58.0128419 C332.758244,57.6364645 332.754598,57.2321839 332.75,56.8 C332.716667,53.6666667 332.566667,51.9166667 332.3,51.55 C332.033333,51.1833333 331.716667,50.9 331.35,50.7 C330.983333,50.5 330.566667,50.4166667 330.1,50.45 C329.633333,50.4833333 329.216667,50.6333333 328.85,50.9 C328.483333,51.1666667 328.2,51.4833333 328,51.85 C327.8,52.2166667 327.683333,53.7833333 327.65,56.55 C327.616667,59.3166667 327.55,60.7833333 327.45,60.95 C327.35,61.1166667 327.283333,62.5833333 327.25,65.35 C327.216667,68.1166667 327.15,69.5833333 327.05,69.75 C326.95,69.9166667 326.883333,70.3 326.85,70.9 C326.816667,71.5 326.7,71.9333333 326.5,72.2 C326.3,72.4666667 326.2,73.6 326.2,75.6 C326.2,77.6 326.333333,78.7833333 326.6,79.15 C326.866667,79.5166667 327.183333,79.8 327.55,80 C327.916667,80.2 328.266667,80.3 328.6,80.3 L329.2,80.3 L329.2,80.3 Z M323.6,121.5 C323.6,121.5 324.233333,121.083333 325.5,120.25 C325.64902,120.151961 325.790427,120.058535 325.924221,119.969723 L326.302768,119.717128 C327.073472,119.199827 327.522549,118.877451 327.65,118.75 C327.816667,118.583333 327.933333,118.5 328,118.5 C328.066667,118.5 328.466667,118.233333 329.2,117.7 C329.933333,117.166667 330.583333,116.683333 331.15,116.25 C331.716667,115.816667 332.25,115.416667 332.75,115.05 C333.25,114.683333 333.716667,114.25 334.15,113.75 C334.583333,113.25 334.85,113 334.95,113 C335.05,113 335.3,112.85 335.7,112.55 C336.1,112.25 336.4,111.916667 336.6,111.55 C336.8,111.183333 336.933333,111 337,111 C337.066667,111 337.3,110.85 337.7,110.55 C338.1,110.25 338.6,109.783333 339.2,109.15 C339.8,108.516667 340.133333,108.2 340.2,108.2 C340.266667,108.2 340.483333,108.066667 340.85,107.8 C341.216667,107.533333 341.6,107.166667 342,106.7 C342.4,106.233333 342.666667,105.916667 342.8,105.75 C342.933333,105.583333 343.033333,105.5 343.1,105.5 C343.166667,105.5 343.35,105.35 343.65,105.05 C343.95,104.75 344.166667,104.383333 344.3,103.95 C344.433333,103.516667 344.516667,103.3 344.55,103.3 C344.583333,103.3 344.666667,103.166667 344.8,102.9 C344.933333,102.633333 345.016667,102.5 345.05,102.5 C345.083333,102.5 345.333333,102.25 345.8,101.75 C346.266667,101.25 346.566667,100.8 346.7,100.4 C346.833333,100 346.916667,99.8 346.95,99.8 C346.983333,99.8 347.133333,99.5833333 347.4,99.15 C347.666667,98.7166667 347.816667,98.5 347.85,98.5 C347.883333,98.5 348.116667,98.0833333 348.55,97.25 C348.983333,96.4166667 349.233333,95.8833333 349.3,95.65 C349.366667,95.4166667 349.416667,95.3 349.45,95.3 C349.483333,95.3 349.683333,94.9666667 350.05,94.3 C350.202778,94.0222222 350.32662,93.8023148 350.421528,93.6402778 L350.426,93.633 L350.465512,93.7360111 C351.441136,96.3155125 352.102632,98.2368421 352.45,99.5 C352.816667,100.833333 353.283333,102.083333 353.85,103.25 C354.416667,104.416667 355.016667,105.916667 355.65,107.75 C356.283333,109.583333 356.666667,110.983333 356.8,111.95 C356.933333,112.916667 357.2,113.65 357.6,114.15 C358,114.65 358.383333,115 358.75,115.2 C359.116667,115.4 359.533333,115.5 360,115.5 L360.8,115.5 L360.8,115.5 C360.8,115.5 361.033333,115.35 361.5,115.05 C361.966667,114.75 362.516667,114.266667 363.15,113.6 C363.783333,112.933333 364.166667,112.4 364.3,112 C364.433333,111.6 364.516667,111.4 364.55,111.4 C364.583333,111.4 364.7,111.233333 364.9,110.9 C365.1,110.566667 365.25,110.183333 365.35,109.75 C365.45,109.316667 365.516667,109.1 365.55,109.1 C365.583333,109.1 365.683333,108.916667 365.85,108.55 C366.016667,108.183333 366.2,107.6 366.4,106.8 C366.6,106 366.716667,105.6 366.75,105.6 C366.783333,105.6 366.85,105.45 366.95,105.15 C367.05,104.85 367.116667,104.7 367.15,104.7 C367.183333,104.7 367.266667,104.55 367.4,104.25 C367.533333,103.95 367.616667,103.633333 367.65,103.3 C367.683333,102.966667 367.716667,102.8 367.75,102.8 C367.783333,102.8 367.9,102.516667 368.1,101.95 C368.3,101.383333 368.416667,100.933333 368.45,100.6 C368.483333,100.266667 368.516667,100.1 368.55,100.1 C368.583333,100.1 368.65,99.9 368.75,99.5 C368.85,99.1 368.916667,98.9 368.95,98.9 C368.983333,98.9 369.1,98.6666667 369.3,98.2 C369.5,97.7333333 369.616667,97.3166667 369.65,96.95 C369.683333,96.5833333 369.716667,96.4 369.75,96.4 C369.783333,96.4 369.833333,96.3 369.9,96.1 C369.94,95.98 369.962,95.29 369.966,94.03 L369.966,93.1055556 C369.964222,92.432963 369.958889,91.6477778 369.95,90.75 C369.916667,87.3833333 369.783333,85.5 369.55,85.1 C369.316667,84.7 369.166667,84.2666667 369.1,83.8 C369.033333,83.3333333 368.633333,82.7166667 367.9,81.95 C367.166667,81.1833333 366.483333,80.6666667 365.85,80.4 C365.216667,80.1333333 363.516667,80.0166667 360.75,80.05 C359.827778,80.0611111 359.051852,80.0759259 358.422222,80.0944444 L358.293,80.099 L358.297934,79.9702479 C358.299311,79.8991736 358.3,79.8257576 358.3,79.75 C358.3,78.9166667 358.166667,78.3166667 357.9,77.95 C357.633333,77.5833333 357.316667,77.3 356.95,77.1 C356.583333,76.9 356.166667,76.8166667 355.7,76.85 C355.233333,76.8833333 354.816667,77.0333333 354.45,77.3 C354.083333,77.5666667 353.683333,78.0333333 353.25,78.7 C352.816667,79.3666667 352.566667,79.9 352.5,80.3 C352.483333,80.4 352.457292,80.4989583 352.421875,80.596875 L352.382,80.692 L352.369444,80.6972222 C352.184259,80.7712963 351.744444,80.8222222 351.05,80.85 C350.216667,80.8833333 349.65,81.0166667 349.35,81.25 C349.05,81.4833333 348.716667,81.6166667 348.35,81.65 C347.983333,81.6833333 347.733333,81.75 347.6,81.85 C347.466667,81.95 346.866667,82.0166667 345.8,82.05 C344.733333,82.0833333 344.05,82.2166667 343.75,82.45 C343.45,82.6833333 343.116667,82.85 342.75,82.95 C342.383333,83.05 341.933333,83.15 341.4,83.25 C340.866667,83.35 340.366667,83.5166667 339.9,83.75 C339.433333,83.9833333 339.116667,84.15 338.95,84.25 C338.783333,84.35 338.416667,84.4166667 337.85,84.45 C337.283333,84.4833333 336.8,84.6 336.4,84.8 C336,85 335.6,85.1833333 335.2,85.35 C334.8,85.5166667 334.2,85.6833333 333.4,85.85 C332.6,86.0166667 332,86.2 331.6,86.4 C331.2,86.6 330.1,87.0166667 328.3,87.65 C326.5,88.2833333 325.5,88.6833333 325.3,88.85 C325.1,89.0166667 324.766667,89.15 324.3,89.25 C323.833333,89.35 323.416667,89.5666667 323.05,89.9 C322.683333,90.2333333 322.433333,90.5333333 322.3,90.8 C322.166667,91.0666667 322.116667,91.4333333 322.15,91.9 C322.183333,92.3666667 322.333333,92.7833333 322.6,93.15 C322.866667,93.5166667 323.183333,93.8 323.55,94 C323.916667,94.2 324.366667,94.3 324.9,94.3 C325.433333,94.3 325.983333,94.1833333 326.55,93.95 C327.116667,93.7166667 327.533333,93.5166667 327.8,93.35 C328.066667,93.1833333 328.25,93.1 328.35,93.1 C328.45,93.1 329.383333,92.7666667 331.15,92.1 C332.916667,91.4333333 334,91.0333333 334.4,90.9 C334.8,90.7666667 335.116667,90.7 335.35,90.7 C335.583333,90.7 335.983333,90.5666667 336.55,90.3 C337.116667,90.0333333 337.45,89.9 337.55,89.9 C337.65,89.9 337.816667,89.8333333 338.05,89.7 C338.283333,89.5666667 338.616667,89.5 339.05,89.5 C339.483333,89.5 339.983333,89.3833333 340.55,89.15 C341.116667,88.9166667 341.533333,88.7166667 341.8,88.55 C342.066667,88.3833333 342.383333,88.3 342.75,88.3 C343.116667,88.3 343.416667,88.2333333 343.65,88.1 C343.883333,87.9666667 344.133333,87.9 344.4,87.9 C344.666667,87.9 345,87.7666667 345.4,87.5 C345.8,87.2333333 346.383333,87.1 347.15,87.1 C347.642857,87.1 348.004847,87.2377551 348.235969,87.5132653 L348.239,87.52 L348.1,87.65 L348.1,87.65 C347.833333,87.8833333 347.516667,88.2833333 347.15,88.85 C346.783333,89.4166667 346.566667,89.8333333 346.5,90.1 C346.433333,90.3666667 346.25,90.7333333 345.95,91.2 C345.65,91.6666667 345.333333,92.1666667 345,92.7 C344.666667,93.2333333 344.4,93.8 344.2,94.4 C344,95 343.6,95.6166667 343,96.25 C342.4,96.8833333 342.033333,97.3333333 341.9,97.6 C341.766667,97.8666667 341.683333,98.15 341.65,98.45 C341.616667,98.75 341.416667,99.0833333 341.05,99.45 C340.683333,99.8166667 340.266667,100.366667 339.8,101.1 C339.333333,101.833333 338.55,102.733333 337.45,103.8 C336.35,104.866667 335.616667,105.516667 335.25,105.75 C334.883333,105.983333 334.333333,106.5 333.6,107.3 C332.866667,108.1 332.35,108.566667 332.05,108.7 C331.75,108.833333 331.283333,109.233333 330.65,109.9 C330.016667,110.566667 329.55,110.966667 329.25,111.1 C328.95,111.233333 328.6,111.5 328.2,111.9 C327.8,112.3 327.383333,112.633333 326.95,112.9 C326.516667,113.166667 326.216667,113.383333 326.05,113.55 C325.883333,113.716667 325.516667,113.983333 324.95,114.35 C324.383333,114.716667 323.95,114.966667 323.65,115.1 C323.35,115.233333 323.116667,115.3 322.95,115.3 C322.783333,115.3 322.6,115.233333 322.4,115.1 C322.2,114.966667 321.866667,114.916667 321.4,114.95 C320.933333,114.983333 320.516667,115.133333 320.15,115.4 C319.783333,115.666667 319.5,115.983333 319.3,116.35 C319.1,116.716667 319.016667,117.15 319.05,117.65 C319.083333,118.15 319.2,118.65 319.4,119.15 C319.6,119.65 319.9,120.1 320.3,120.5 C320.7,120.9 321.033333,121.166667 321.3,121.3 C321.566667,121.433333 322,121.5 322.6,121.5 L323.6,121.5 L323.6,121.5 Z M360.7,107.3 C360.7,107.3 360.45,106.833333 359.95,105.9 C359.45,104.966667 359.083333,104.216667 358.85,103.65 C358.616667,103.083333 358.233333,102.383333 357.7,101.55 C357.166667,100.716667 356.5,99.5166667 355.7,97.95 C354.9,96.3833333 354.35,95.1666667 354.05,94.3 C353.75,93.4333333 353.416667,92.55 353.05,91.65 C352.903333,91.29 352.756667,90.9406667 352.61,90.602 L352.565,90.5 L352.714286,90.3040816 C352.952381,89.977551 353.130952,89.6595238 353.25,89.35 C353.416667,88.9166667 353.516667,88.7 353.55,88.7 C353.583333,88.7 353.766667,88.2666667 354.1,87.4 C354.433333,86.5333333 354.616667,86.1 354.65,86.1 C354.67963,86.1 354.814609,85.9419753 355.054938,85.6259259 L355.143,85.51 L355.302663,85.5047337 C355.441913,85.5015779 355.591026,85.5 355.75,85.5 C356.783333,85.5 357.416667,85.4333333 357.65,85.3 C357.825,85.2 358.478125,85.146875 359.609375,85.140625 L360.087375,85.140625 C360.339125,85.141875 360.61,85.145 360.9,85.15 C362.833333,85.1833333 363.866667,85.2666667 364,85.4 C364.133333,85.5333333 364.316667,85.9 364.55,86.5 C364.783333,87.1 364.883333,88.6166667 364.85,91.05 C364.816667,93.4833333 364.75,94.7833333 364.65,94.95 C364.55,95.1166667 364.483333,95.4166667 364.45,95.85 C364.416667,96.2833333 364.3,96.6333333 364.1,96.9 C363.9,97.1666667 363.766667,97.5333333 363.7,98 C363.641667,98.4083333 363.570573,98.7018229 363.486719,98.8804687 L363.45,98.95 C363.35,99.1166667 363.283333,99.3833333 363.25,99.75 C363.216667,100.116667 363.083333,100.516667 362.85,100.95 C362.616667,101.383333 362.483333,101.783333 362.45,102.15 C362.416667,102.516667 362.283333,102.966667 362.05,103.5 C361.816667,104.033333 361.583333,104.716667 361.35,105.55 C361.116667,106.383333 360.933333,106.866667 360.8,107 C360.733333,107.2 360.7,107.3 360.7,107.3 Z M438,47.9 L438.028571,47.8836735 C438.07619,47.8564626 438.183333,47.7952381 438.35,47.7 C438.583333,47.5666667 439.05,47.5 439.75,47.5 C440.45,47.5 440.9,47.4333333 441.1,47.3 C441.3,47.1666667 441.5,47.1 441.7,47.1 C441.9,47.1 442.2,46.9666667 442.6,46.7 C443,46.4333333 443.4,46.3 443.8,46.3 C444.2,46.3 444.633333,46.15 445.1,45.85 C445.566667,45.55 445.816667,45.35 445.85,45.25 C445.883333,45.15 445.983333,45.1 446.15,45.1 C446.316667,45.1 446.666667,44.9333333 447.2,44.6 C447.733333,44.2666667 448.05,44.1 448.15,44.1 C448.25,44.1 448.983333,43.7666667 450.35,43.1 C451.716667,42.4333333 452.45,42.1 452.55,42.1 C452.567647,42.1 452.605536,42.0937716 452.663668,42.0813149 L452.80692,42.0480969 C453.147405,41.9650519 453.811765,41.7823529 454.8,41.5 C456.2,41.1 457.05,40.7833333 457.35,40.55 C457.65,40.3166667 457.883333,40.2 458.05,40.2 C458.216667,40.2 458.633333,40.1 459.3,39.9 C459.966667,39.7 460.55,39.4333333 461.05,39.1 C461.55,38.7666667 461.85,38.5333333 461.95,38.4 C462.05,38.2666667 462.166667,38.2 462.3,38.2 C462.433333,38.2 462.783333,38.1 463.35,37.9 C463.916667,37.7 464.483333,37.35 465.05,36.85 C465.616667,36.35 465.933333,36.1 466,36.1 C466.066667,36.1 466.383333,35.9166667 466.95,35.55 C467.516667,35.1833333 467.883333,34.8666667 468.05,34.6 C468.216667,34.3333333 468.3,33.9166667 468.3,33.35 C468.3,32.7833333 468.166667,32.3166667 467.9,31.95 C467.633333,31.5833333 467.316667,31.3 466.95,31.1 C466.583333,30.9 466.1,30.8166667 465.5,30.85 C464.9,30.8833333 464.233333,31.15 463.5,31.65 C462.766667,32.15 462.316667,32.5 462.15,32.7 C461.983333,32.9 461.633333,33.0666667 461.1,33.2 C460.566667,33.3333333 460.05,33.5666667 459.55,33.9 C459.05,34.2333333 458.716667,34.4833333 458.55,34.65 C458.383333,34.8166667 457.95,34.9666667 457.25,35.1 C456.55,35.2333333 456.016667,35.4333333 455.65,35.7 C455.283333,35.9666667 454.483333,36.25 453.25,36.55 C452.016667,36.85 450.666667,37.35 449.2,38.05 C447.733333,38.75 446.783333,39.1833333 446.35,39.35 C445.916667,39.5166667 445.616667,39.6666667 445.45,39.8 C445.283333,39.9333333 444.966667,40.0166667 444.5,40.05 C444.033333,40.0833333 443.583333,40.2833333 443.15,40.65 C442.716667,41.0166667 442.316667,41.2166667 441.95,41.25 C441.583333,41.2833333 441.25,41.4166667 440.95,41.65 C440.65,41.8833333 440.333333,42.05 440,42.15 C439.666667,42.25 439.133333,42.3333333 438.4,42.4 C437.666667,42.4666667 437.233333,42.55 437.1,42.65 C436.966667,42.75 436.666667,42.8166667 436.2,42.85 C435.733333,42.8833333 435.316667,43.0333333 434.95,43.3 C434.583333,43.5666667 434.3,43.8833333 434.1,44.25 C433.9,44.6166667 433.816667,45.0333333 433.85,45.5 C433.883333,45.9666667 434.033333,46.3833333 434.3,46.75 C434.566667,47.1166667 434.883333,47.4 435.25,47.6 C435.616667,47.8 436.166667,47.9 436.9,47.9 L438,47.9 L438,47.9 Z M453.6,116.3 C453.6,116.3 453.833333,116.15 454.3,115.85 C454.766667,115.55 455.2,115.166667 455.6,114.7 C456,114.233333 456.233333,113.9 456.3,113.7 C456.337427,113.587719 456.359095,112.109685 456.365005,109.265897 L456.365928,108.716682 C456.366051,108.622479 456.366159,108.526942 456.366251,108.430071 L456.366251,106.542351 C456.366159,106.429476 456.366051,106.315266 456.365928,106.199723 L456.365005,105.490459 C456.362604,103.919042 456.357602,102.122222 456.35,100.1 C456.316667,91.2333333 456.183333,86.5 455.95,85.9 C455.716667,85.3 455.583333,82.7833333 455.55,78.35 C455.531481,75.887037 455.502675,74.0927984 455.46358,72.967284 L455.458,72.832 L455.471099,72.8302555 C456.880148,72.7509695 460.65097,72.7078793 466.783564,72.7009849 L468.133841,72.7000616 C468.287889,72.7000205 468.443275,72.7 468.6,72.7 L469.540944,72.699426 C477.863648,72.6890944 482.25,72.5392857 482.7,72.25 C483.166667,71.95 483.483333,71.6666667 483.65,71.4 C483.816667,71.1333333 483.9,70.7166667 483.9,70.15 C483.9,69.5833333 483.7,69.05 483.3,68.55 C482.9,68.05 482.5,67.65 482.1,67.35 C481.7,67.05 481.033333,66.9 480.1,66.9 C479.166667,66.9 478.55,67.0166667 478.25,67.25 C477.95,67.4833333 473.8,67.6166667 465.8,67.65 C460.318519,67.6728395 456.683653,67.7113283 454.895405,67.7654664 L454.837,67.768 L454.830332,67.6918283 C454.794321,67.2569252 454.767544,66.6096491 454.75,65.75 C454.716667,64.1166667 454.65,63.25 454.55,63.15 C454.45,63.05 454.383333,62.5833333 454.35,61.75 C454.341667,61.5416667 454.33125,61.3552083 454.31875,61.190625 L454.31,61.097 C454.426863,61.0421373 454.940196,60.5598039 455.85,59.65 C456.816667,58.6833333 457.416667,57.95 457.65,57.45 C457.883333,56.95 458.016667,56.7 458.05,56.7 C458.083333,56.7 458.183333,56.5666667 458.35,56.3 C458.516667,56.0333333 458.633333,55.9 458.7,55.9 C458.766667,55.9 459.066667,55.6333333 459.6,55.1 C460.133333,54.5666667 460.466667,54.3 460.6,54.3 C460.733333,54.3 461.033333,54.15 461.5,53.85 C461.966667,53.55 462.283333,53.2666667 462.45,53 C462.616667,52.7333333 462.7,52.3166667 462.7,51.75 C462.7,51.1833333 462.566667,50.7166667 462.3,50.35 C462.033333,49.9833333 461.716667,49.7 461.35,49.5 C460.983333,49.3 460.166667,49.2166667 458.9,49.25 C457.633333,49.2833333 456.85,49.4166667 456.55,49.65 C456.25,49.8833333 455.5,50.2 454.3,50.6 C453.233333,50.9555556 452.324691,51.2320988 451.574074,51.4296296 L451.499,51.449 L451.455325,51.3736686 C451.282544,51.0399408 451.180769,50.3653846 451.15,49.35 C451.116667,48.25 450.966667,47.5166667 450.7,47.15 C450.433333,46.7833333 450.116667,46.5 449.75,46.3 C449.383333,46.1 448.966667,46.0166667 448.5,46.05 C448.033333,46.0833333 447.616667,46.2333333 447.25,46.5 C446.883333,46.7666667 446.6,47.0833333 446.4,47.45 C446.2,47.8166667 446.116667,48.7666667 446.15,50.3 C446.183333,51.8333333 446.316667,52.8 446.55,53.2 L446.586,53.267 L446.483789,53.3 C445.54043,53.6 444.4125,53.9 443.1,54.2 C440.766667,54.7333333 439.35,55.1 438.85,55.3 C438.35,55.5 437.316667,55.6166667 435.75,55.65 C434.183333,55.6833333 433.216667,55.8333333 432.85,56.1 C432.483333,56.3666667 432.2,56.6833333 432,57.05 C431.8,57.4166667 431.716667,57.8333333 431.75,58.3 C431.783333,58.7666667 431.933333,59.1833333 432.2,59.55 C432.466667,59.9166667 432.783333,60.2 433.15,60.4 C433.516667,60.6 434.283333,60.7 435.45,60.7 C436.616667,60.7 437.616667,60.5833333 438.45,60.35 C439.283333,60.1166667 439.95,59.85 440.45,59.55 C440.95,59.25 441.233333,59.1 441.3,59.1 C441.366667,59.1 441.666667,58.9833333 442.2,58.75 C442.733333,58.5166667 443.083333,58.4 443.25,58.4 C443.416667,58.4 443.833333,58.2833333 444.5,58.05 C445.166667,57.8166667 445.866667,57.4666667 446.6,57 C446.938462,56.7846154 447.209467,56.6189349 447.413018,56.5029586 L447.425,56.497 L447.439796,56.555102 C447.470408,56.6612245 447.507143,56.7428571 447.55,56.8 C447.65,56.9333333 447.733333,57.1666667 447.8,57.5 C447.866667,57.8333333 448.066667,58.3 448.4,58.9 L448.517969,59.1242187 L448.517969,59.1242187 L448.574,59.247 L448.428571,59.3540816 C447.952381,59.7180272 447.47619,60.15 447,60.65 C446.333333,61.35 445.5,61.9833333 444.5,62.55 C443.5,63.1166667 442.433333,63.7666667 441.3,64.5 C440.166667,65.2333333 439.4,65.6333333 439,65.7 C438.6,65.7666667 437.933333,66.1 437,66.7 C436.066667,67.3 435.366667,67.6166667 434.9,67.65 C434.433333,67.6833333 433.816667,67.9333333 433.05,68.4 C432.283333,68.8666667 431.316667,69.2833333 430.15,69.65 C428.983333,70.0166667 428.1,70.4166667 427.5,70.85 C426.9,71.2833333 426.233333,71.6166667 425.5,71.85 C424.766667,72.0833333 424.283333,72.3 424.05,72.5 C423.816667,72.7 423.45,72.8166667 422.95,72.85 C422.45,72.8833333 421.983333,73.0833333 421.55,73.45 C421.116667,73.8166667 420.733333,74.0333333 420.4,74.1 C420.066667,74.1666667 419.866667,74.2333333 419.8,74.3 C419.733333,74.3666667 419.516667,74.4166667 419.15,74.45 C418.783333,74.4833333 418.45,74.6166667 418.15,74.85 C417.85,75.0833333 417.5,75.2166667 417.1,75.25 C416.7,75.2833333 416.433333,75.35 416.3,75.45 C416.166667,75.55 415.833333,75.6166667 415.3,75.65 C414.766667,75.6833333 414.316667,75.8 413.95,76 C413.583333,76.2 413.1,76.35 412.5,76.45 C411.9,76.55 411.416667,76.7666667 411.05,77.1 C410.683333,77.4333333 410.433333,77.7333333 410.3,78 C410.166667,78.2666667 410.116667,78.6333333 410.15,79.1 C410.183333,79.5666667 410.333333,79.9833333 410.6,80.35 C410.866667,80.7166667 411.183333,81 411.55,81.2 C411.916667,81.4 412.833333,81.5 414.3,81.5 L416.6,81.5 L416.6,81.5 C416.6,81.5 417,81.4 417.8,81.2 C418.6,81 419.266667,80.7833333 419.8,80.55 C420.333333,80.3166667 420.683333,80.2 420.85,80.2 C421.016667,80.2 421.55,80.0833333 422.45,79.85 C423.35,79.6166667 423.9,79.5 424.1,79.5 C424.3,79.5 424.5,79.45 424.7,79.35 C424.9,79.25 425.133333,79.2 425.4,79.2 C425.577778,79.2 425.859259,79.1703704 426.244444,79.1111111 L426.377,79.091 L426.35,79.2 L426.35,79.2 C426.25,79.6666667 426.266667,80.0833333 426.4,80.45 C426.533333,80.8166667 426.733333,81.1333333 427,81.4 C427.266667,81.6666667 427.633333,81.8666667 428.1,82 C428.566667,82.1333333 429.233333,82.5666667 430.1,83.3 C430.966667,84.0333333 431.75,84.75 432.45,85.45 C433.15,86.15 433.7,86.7833333 434.1,87.35 C434.5,87.9166667 434.966667,88.55 435.5,89.25 C436.033333,89.95 436.866667,91.2833333 438,93.25 C439.133333,95.2166667 440.05,96.7666667 440.75,97.9 C441.45,99.0333333 442,100.016667 442.4,100.85 C442.8,101.683333 443.166667,102.383333 443.5,102.95 C443.833333,103.516667 444.333333,104.2 445,105 C445.666667,105.8 446.083333,106.483333 446.25,107.05 C446.416667,107.616667 446.683333,108.216667 447.05,108.85 C447.416667,109.483333 447.733333,109.933333 448,110.2 C448.266667,110.466667 448.483333,110.833333 448.65,111.3 C448.816667,111.766667 449.083333,112.266667 449.45,112.8 C449.816667,113.333333 450.1,113.8 450.3,114.2 C450.5,114.6 450.783333,114.983333 451.15,115.35 C451.516667,115.716667 451.833333,115.966667 452.1,116.1 C452.366667,116.233333 452.666667,116.3 453,116.3 L453.6,116.3 L453.6,116.3 Z M442.8,69.95 C442.4,69.9166667 442.516667,69.6833333 443.15,69.25 C443.783333,68.8166667 444.133333,68.6 444.2,68.6 C444.266667,68.6 444.633333,68.3833333 445.3,67.95 C445.966667,67.5166667 446.333333,67.3 446.4,67.3 C446.466667,67.3 446.733333,67.15 447.2,66.85 C447.666667,66.55 447.95,66.4 448.05,66.4 C448.15,66.4 448.466667,66.2333333 449,65.9 C449.152381,65.8047619 449.295238,65.7040816 449.428571,65.5979592 L449.62,65.436 L449.629585,65.4906574 C449.686332,65.8615917 449.726471,66.5647059 449.75,67.6 C449.759804,68.0313725 449.772491,68.405075 449.788062,68.7211073 L449.79,68.762 L449.597656,68.8179688 C448.653385,69.0768229 447.670833,69.2208333 446.65,69.25 C445.483333,69.2833333 444.65,69.4166667 444.15,69.65 C443.65,69.8833333 443.2,69.9833333 442.8,69.95 Z M450.45,104.75 C449.95,103.916667 449.233333,103.016667 448.3,102.05 C447.366667,101.083333 446.5,99.9833333 445.7,98.75 C444.9,97.5166667 444.2,96.5666667 443.6,95.9 C443,95.2333333 442.366667,94.5 441.7,93.7 C441.033333,92.9 440.583333,92.3 440.35,91.9 C440.116667,91.5 439.983333,91.2166667 439.95,91.05 C439.916667,90.8833333 439.616667,90.3333333 439.05,89.4 C438.483333,88.4666667 437.883333,87.6333333 437.25,86.9 C436.616667,86.1666667 435.866667,85.2166667 435,84.05 C434.133333,82.8833333 433.6,82.15 433.4,81.85 C433.2,81.55 432.666667,80.9 431.8,79.9 C430.933333,78.9 430.383333,78.2666667 430.15,78 C430.083333,77.9238095 430.007143,77.8544218 429.921429,77.7918367 L429.912,77.786 L430.052431,77.7211806 C430.381366,77.5737269 430.613889,77.5 430.75,77.5 C430.983333,77.5 431.65,77.3833333 432.75,77.15 C433.85,76.9166667 434.516667,76.7333333 434.75,76.6 C434.983333,76.4666667 435.216667,76.4 435.45,76.4 C435.683333,76.4 436.166667,76.3666667 436.9,76.3 C437.633333,76.2333333 438.466667,76.0166667 439.4,75.65 C440.333333,75.2833333 441.416667,75.1 442.65,75.1 C443.883333,75.1 444.8,74.9666667 445.4,74.7 C446,74.4333333 446.816667,74.3 447.85,74.3 C448.538889,74.3 449.294444,74.2111111 450.116667,74.0333333 L450.435,73.961 L450.436592,73.9836073 C450.489648,74.9857122 450.527451,76.9411765 450.55,79.85 C450.583333,84.15 450.716667,86.6 450.95,87.2 C451.183333,87.8 451.283333,91.0833333 451.25,97.05 C451.216667,103.016667 450.95,105.583333 450.45,104.75 Z M547.2,117.9 C547.2,117.9 547.433333,117.75 547.9,117.45 C548.366667,117.15 548.683333,116.866667 548.85,116.6 C549.016667,116.333333 549.133333,115.233333 549.2,113.3 C549.266667,111.366667 549.316667,110.4 549.35,110.4 C549.383333,110.4 549.45,110.216667 549.55,109.85 C549.65,109.483333 549.716667,109.3 549.75,109.3 C549.783333,109.3 549.866667,108.983333 550,108.35 C550.133333,107.716667 550.15,107.25 550.05,106.95 C549.95,106.65 549.85,106.45 549.75,106.35 C549.65,106.25 549.616667,105.766667 549.65,104.9 C549.683333,104.033333 549.716667,103.6 549.75,103.6 C549.783333,103.6 549.833333,103.5 549.9,103.3 C549.966667,103.1 550.016667,102.316667 550.05,100.95 C550.083333,99.5833333 550.116667,98.9 550.15,98.9 C550.183333,98.9 550.233333,98.8 550.3,98.6 C550.366667,98.4 550.416667,97.3166667 550.45,95.35 C550.483333,93.3833333 550.516667,92.4 550.55,92.4 C550.583333,92.4 550.633333,92.3 550.7,92.1 C550.766667,91.9 550.816667,90.4333333 550.85,87.7 C550.878571,85.3571429 550.907143,84.0183673 550.935714,83.6836735 L550.942857,83.6209184 C550.945238,83.6069728 550.947619,83.6 550.95,83.6 C550.983333,83.6 551.033333,83.5 551.1,83.3 C551.140476,83.1785714 551.162521,81.4904974 551.166135,78.2357781 L551.166,77.351 L551.212426,77.3408284 C551.49645,77.277712 551.925641,77.1641026 552.5,77 C553.433333,76.7333333 554.416667,77.2333333 555.45,78.5 C556.483333,79.7666667 557.416667,80.9333333 558.25,82 C559.083333,83.0666667 559.9,84.1666667 560.7,85.3 C561.5,86.4333333 562.583333,87.9833333 563.95,89.95 C565.316667,91.9166667 566.366667,93.3 567.1,94.1 C567.833333,94.9 568.4,95.6833333 568.8,96.45 C569.2,97.2166667 569.516667,97.7166667 569.75,97.95 C569.983333,98.1833333 570.233333,98.3666667 570.5,98.5 C570.766667,98.6333333 571.133333,98.7 571.6,98.7 L572.4,98.7 L572.4,98.7 C572.4,98.7 572.633333,98.55 573.1,98.25 C573.566667,97.95 574.05,97.5333333 574.55,97 C575.05,96.4666667 575.366667,96.0666667 575.5,95.8 C575.633333,95.5333333 575.716667,95.4 575.75,95.4 C575.783333,95.4 575.883333,95.2666667 576.05,95 C576.216667,94.7333333 576.333333,94.3833333 576.4,93.95 C576.466667,93.5166667 576.533333,93.3 576.6,93.3 C576.666667,93.3 576.833333,93.1166667 577.1,92.75 C577.366667,92.3833333 577.533333,91.9166667 577.6,91.35 C577.666667,90.7833333 577.716667,90.5 577.75,90.5 C577.783333,90.5 577.9,90.2666667 578.1,89.8 C578.3,89.3333333 578.416667,88.85 578.45,88.35 C578.483333,87.85 578.516667,87.6 578.55,87.6 C578.583333,87.6 578.65,87.3666667 578.75,86.9 C578.85,86.4333333 578.916667,86.2 578.95,86.2 C578.983333,86.2 579.083333,86.0666667 579.25,85.8 C579.416667,85.5333333 579.533333,85 579.6,84.2 C579.666667,83.4 579.716667,83 579.75,83 C579.783333,83 579.883333,82.8666667 580.05,82.6 C580.216667,82.3333333 580.333333,81.7166667 580.4,80.75 C580.466667,79.7833333 580.516667,79.3 580.55,79.3 C580.583333,79.3 580.633333,79.2 580.7,79 C580.74058,78.8782609 580.762634,78.3860113 580.766541,77.5232514 L580.766541,77.1308129 C580.765658,76.6465028 580.760145,76.0695652 580.75,75.4 C580.716667,73.2 580.583333,71.9166667 580.35,71.55 C580.116667,71.1833333 579.966667,70.75 579.9,70.25 C579.833333,69.75 579.5,69.1833333 578.9,68.55 C578.3,67.9166667 577.733333,67.4666667 577.2,67.2 C576.666667,66.9333333 575.166667,66.8166667 572.7,66.85 C570.233333,66.8833333 568.933333,66.95 568.8,67.05 C568.666667,67.15 568.266667,67.2166667 567.6,67.25 C566.933333,67.2833333 566.55,67.35 566.45,67.45 C566.35,67.55 566.016667,67.6166667 565.45,67.65 C564.883333,67.6833333 564.416667,67.8166667 564.05,68.05 C563.683333,68.2833333 563.283333,68.4166667 562.85,68.45 C562.416667,68.4833333 562,68.6166667 561.6,68.85 L561.496,68.905 L561.528125,68.825 C561.559375,68.7416667 561.583333,68.6666667 561.6,68.6 C561.666667,68.3333333 561.716667,68.2 561.75,68.2 C561.783333,68.2 562.05,67.7333333 562.55,66.8 C563.05,65.8666667 563.316667,65.4 563.35,65.4 C563.38,65.4 563.518,65.211 563.764,64.833 L563.85,64.7 C564.15,64.2333333 564.316667,64 564.35,64 C564.383333,64 564.533333,63.8166667 564.8,63.45 C565.066667,63.0833333 565.55,62.2666667 566.25,61 C566.95,59.7333333 567.316667,59.1 567.35,59.1 C567.383333,59.1 567.6,58.85 568,58.35 C568.4,57.85 568.766667,57.1166667 569.1,56.15 C569.433333,55.1833333 569.583333,54.1333333 569.55,53 C569.516667,51.8666667 569.366667,51.1166667 569.1,50.75 C568.833333,50.3833333 568.516667,50.1 568.15,49.9 C567.783333,49.7 567.1,49.6166667 566.1,49.65 C565.1,49.6833333 564.4,49.8166667 564,50.05 C563.6,50.2833333 562.866667,50.4166667 561.8,50.45 C560.733333,50.4833333 560.133333,50.55 560,50.65 C559.866667,50.75 559.633333,50.8333333 559.3,50.9 C558.966667,50.9666667 558.7,51.0833333 558.5,51.25 C558.3,51.4166667 557.866667,51.5333333 557.2,51.6 C556.533333,51.6666667 556,51.8 555.6,52 C555.2,52.2 554.75,52.3833333 554.25,52.55 C553.75,52.7166667 553.216667,52.8166667 552.65,52.85 C552.083333,52.8833333 551.616667,53.0333333 551.25,53.3 C551.127778,53.3888889 550.998148,53.4685185 550.861111,53.5388889 L550.777,53.578 L550.774,53.342 C550.764667,52.794 550.756667,52.18 550.75,51.5 C550.716667,48.1 550.65,46.3 550.55,46.1 C550.45,45.9 550.366667,45.55 550.3,45.05 C550.233333,44.55 550.166667,44.2666667 550.1,44.2 C550.033333,44.1333333 549.983333,42.0333333 549.95,37.9 C549.916667,33.7666667 549.7,31.45 549.3,30.95 C548.9,30.45 548.516667,30.1 548.15,29.9 C547.783333,29.7 547.3,29.6166667 546.7,29.65 C546.1,29.6833333 545.616667,29.8333333 545.25,30.1 C544.883333,30.3666667 544.6,30.6833333 544.4,31.05 C544.2,31.4166667 544.116667,31.8333333 544.15,32.3 C544.183333,32.7666667 544.316667,33.15 544.55,33.45 C544.783333,33.75 544.916667,35.8333333 544.95,39.7 C544.983333,43.5666667 545.05,45.5666667 545.15,45.7 C545.25,45.8333333 545.316667,46.1 545.35,46.5 C545.383333,46.9 545.45,47.2 545.55,47.4 C545.65,47.6 545.716667,49.45 545.75,52.95 C545.755376,53.5145161 545.76162,54.0352411 545.76873,54.5121748 L545.772,54.712 L545.638889,54.7611111 C545.157407,54.9314815 544.527778,55.0944444 543.75,55.25 C542.583333,55.4833333 541.3,55.6166667 539.9,55.65 C538.5,55.6833333 537.216667,55.8833333 536.05,56.25 C534.883333,56.6166667 533.95,56.8166667 533.25,56.85 C532.55,56.8833333 532.016667,57.0333333 531.65,57.3 C531.283333,57.5666667 531,57.8833333 530.8,58.25 C530.6,58.6166667 530.516667,59.0333333 530.55,59.5 C530.583333,59.9666667 530.733333,60.3833333 531,60.75 C531.266667,61.1166667 531.583333,61.4 531.95,61.6 C532.316667,61.8 532.966667,61.9 533.9,61.9 C534.833333,61.9 535.716667,61.75 536.55,61.45 C537.383333,61.15 537.883333,61 538.05,61 C538.216667,61 538.466667,60.95 538.8,60.85 C539.014286,60.7857143 539.414541,60.7420918 540.000765,60.7191327 L540.132,60.715 L540.149587,60.7342975 C540.552893,61.1932507 541.00303,61.6984848 541.5,62.25 C543.55,64.525 545.065625,66.228125 546.046875,67.359375 L546.059,67.375 L546.058758,67.6017266 C546.056693,68.3697579 546.053774,69.1858491 546.05,70.05 C546.045597,71.0581761 546.040614,72.0012282 546.035048,72.8791563 L546.032,73.246 L545.95,73.25 L545.95,73.25 C544.983333,73.2833333 543.85,73.5166667 542.55,73.95 C541.25,74.3833333 540.066667,74.7 539,74.9 C537.933333,75.1 536.366667,75.4833333 534.3,76.05 C532.233333,76.6166667 530.766667,77.0833333 529.9,77.45 C529.033333,77.8166667 528.266667,78.0166667 527.6,78.05 C527,78.08 526.616,78.137 526.448,78.221 L526.4,78.25 C526.266667,78.35 525.866667,78.4166667 525.2,78.45 C524.533333,78.4833333 524.016667,78.6333333 523.65,78.9 C523.283333,79.1666667 523,79.4833333 522.8,79.85 C522.6,80.2166667 522.516667,80.6333333 522.55,81.1 C522.583333,81.5666667 522.733333,81.9833333 523,82.35 C523.266667,82.7166667 523.583333,83 523.95,83.2 C524.316667,83.4 524.966667,83.5 525.9,83.5 C526.833333,83.5 527.416667,83.4333333 527.65,83.3 C527.883333,83.1666667 528.266667,83.1 528.8,83.1 C529.333333,83.1 529.95,82.8833333 530.65,82.45 C531.35,82.0166667 531.75,81.8 531.85,81.8 C531.95,81.8 532.1,81.7333333 532.3,81.6 C532.5,81.4666667 532.65,81.4 532.75,81.4 C532.85,81.4 532.933333,81.35 533,81.25 C533.066667,81.15 533.15,81.1 533.25,81.1 C533.35,81.1 533.516667,81.0333333 533.75,80.9 C533.983333,80.7666667 534.166667,80.7 534.3,80.7 C534.433333,80.7 535.1,80.5333333 536.3,80.2 C537.5,79.8666667 538.35,79.6 538.85,79.4 C539.35,79.2 539.666667,79.1 539.8,79.1 C539.933333,79.1 540.633333,79.0166667 541.9,78.85 C543.166667,78.6833333 544.066667,78.55 544.6,78.45 C544.92,78.39 545.33,78.348 545.83,78.324 L545.981,78.318 L545.98058,78.3598968 C545.946357,80.5319153 545.90283,81.6619497 545.85,81.75 C545.75,81.9166667 545.683333,83.3833333 545.65,86.15 C545.616667,88.9166667 545.55,90.3833333 545.45,90.55 C545.35,90.7166667 545.283333,91.9166667 545.25,94.15 C545.216667,96.3833333 545.15,97.5833333 545.05,97.75 C544.95,97.9166667 544.883333,98.5833333 544.85,99.75 C544.816667,100.916667 544.75,101.583333 544.65,101.75 C544.55,101.916667 544.483333,102.45 544.45,103.35 C544.416667,104.25 544.35,104.783333 544.25,104.95 C544.179032,105.06828 544.141641,106.067933 544.137825,107.948959 L544.137617,108.483819 C544.138345,109.133316 544.142473,109.872043 544.15,110.7 C544.183333,114.366667 544.333333,116.383333 544.6,116.75 C544.866667,117.116667 545.183333,117.4 545.55,117.6 C545.916667,117.8 546.266667,117.9 546.6,117.9 L547.2,117.9 L547.2,117.9 Z M579.1,51.5 C579.1,51.5 579.333333,51.35 579.8,51.05 C580.266667,50.75 580.583333,50.4666667 580.75,50.2 C580.916667,49.9333333 581,49.5166667 581,48.95 C581,48.3833333 580.866667,47.9166667 580.6,47.55 C580.333333,47.1833333 580.016667,46.8833333 579.65,46.65 C579.283333,46.4166667 578.966667,46.1666667 578.7,45.9 C578.433333,45.6333333 578.216667,45.4666667 578.05,45.4 C577.883333,45.3333333 577.65,45.1333333 577.35,44.8 C577.05,44.4666667 576.383333,43.9833333 575.35,43.35 C574.316667,42.7166667 573.566667,42.15 573.1,41.65 C572.633333,41.15 572.25,40.8166667 571.95,40.65 C571.65,40.4833333 571.233333,40.35 570.7,40.25 C570.166667,40.15 569.766667,39.8666667 569.5,39.4 C569.233333,38.9333333 568.983333,38.65 568.75,38.55 C568.516667,38.45 568.2,38.3833333 567.8,38.35 C567.4,38.3166667 567.133333,38.25 567,38.15 C566.866667,38.05 566.666667,38.0333333 566.4,38.1 C566.133333,38.1666667 565.95,38.2833333 565.85,38.45 C565.75,38.6166667 565.716667,38.8833333 565.75,39.25 C565.783333,39.6166667 565.9,39.8833333 566.1,40.05 C566.3,40.2166667 566.516667,40.35 566.75,40.45 C566.983333,40.55 567.15,40.8833333 567.25,41.45 C567.35,42.0166667 567.533333,42.45 567.8,42.75 C568.066667,43.05 568.416667,43.3333333 568.85,43.6 C569.283333,43.8666667 569.733333,44.3666667 570.2,45.1 C570.666667,45.8333333 571.283333,46.55 572.05,47.25 C572.816667,47.95 573.65,48.6 574.55,49.2 C575.45,49.8 576.066667,50.2666667 576.4,50.6 C576.733333,50.9333333 577.033333,51.1666667 577.3,51.3 C577.566667,51.4333333 577.933333,51.5 578.4,51.5 L579.1,51.5 L579.1,51.5 Z M551.213477,70.7652344 L551.152,70.71 L551.151738,70.4120057 C551.151175,70.2593591 551.150595,70.1053571 551.15,69.95 C551.130117,64.7605263 551.098374,61.1010003 551.054771,58.971422 L551.052,58.874 L551.35,58.8 L551.35,58.8 C552.116667,58.6 552.633333,58.4 552.9,58.2 C553.166667,58 553.5,57.9 553.9,57.9 C554.3,57.9 555.016667,57.7 556.05,57.3 C557.083333,56.9 557.816667,56.7 558.25,56.7 C558.683333,56.7 559.183333,56.5833333 559.75,56.35 C560.316667,56.1166667 560.766667,55.9166667 561.1,55.75 C561.433333,55.5833333 561.933333,55.5166667 562.6,55.55 C563.266667,55.5833333 563.35,55.9833333 562.85,56.75 C562.35,57.5166667 561.966667,58.1666667 561.7,58.7 C561.433333,59.2333333 561.15,59.7333333 560.85,60.2 C560.55,60.6666667 560.283333,61.0166667 560.05,61.25 C559.816667,61.4833333 559.6,61.7666667 559.4,62.1 C559.2,62.4333333 558.966667,62.75 558.7,63.05 C558.433333,63.35 558.133333,63.85 557.8,64.55 C557.466667,65.25 557.183333,65.7666667 556.95,66.1 C556.716667,66.4333333 556.233333,66.8333333 555.5,67.3 C554.766667,67.7666667 554.3,68.1833333 554.1,68.55 C553.9,68.9166667 553.816667,69.3333333 553.85,69.8 C553.878571,70.2 553.992857,70.5632653 554.192857,70.8897959 L554.276,71.014 L554.255556,71.0222222 C553.974074,71.1407407 553.588889,71.2666667 553.1,71.4 C552.504167,71.5625 551.875326,71.3509115 551.213477,70.7652344 L551.213477,70.7652344 Z M546.062,65.491 L545.907025,65.3272727 C544.817493,64.1818182 543.498485,62.7393939 541.95,61 L541.725146,60.7478027 L541.725146,60.7478027 L541.672,60.689 L541.989506,60.6753086 C542.989095,60.6176955 544.059259,60.4592593 545.2,60.2 C545.475,60.1375 545.730078,60.0773437 545.965234,60.0195312 L546.031,60.003 L546.034728,60.152937 C546.051602,61.1594162 546.060787,62.5984336 546.062282,64.4699893 L546.062,65.491 Z M571.4,92 C571.4,92 571.083333,91.7333333 570.45,91.2 C569.816667,90.6666667 569.05,89.95 568.15,89.05 C567.25,88.15 566.683333,87.5333333 566.45,87.2 C566.216667,86.8666667 565.05,85.6666667 562.95,83.6 C560.85,81.5333333 559.6,80.25 559.2,79.75 C558.8,79.25 558.15,78.4833333 557.25,77.45 C556.35,76.4166667 555.933333,75.9 556,75.9 C556.066667,75.9 556.383333,75.7166667 556.95,75.35 C557.516667,74.9833333 557.85,74.8 557.95,74.8 C558.05,74.8 558.266667,74.7166667 558.6,74.55 C558.933333,74.3833333 559.6,74.3 560.6,74.3 C561.6,74.3 562.35,74.1666667 562.85,73.9 C563.35,73.6333333 563.8,73.5 564.2,73.5 C564.6,73.5 565,73.3666667 565.4,73.1 C565.8,72.8333333 566.266667,72.7 566.8,72.7 C567.333333,72.7 567.7,72.6333333 567.9,72.5 C568.1,72.3666667 568.45,72.3 568.95,72.3 C569.45,72.3 569.816667,72.2333333 570.05,72.1 C570.283333,71.9666667 571.133333,71.9166667 572.6,71.95 C574.066667,71.9833333 574.9,72.2 575.1,72.6 C575.3,73 575.45,73.25 575.55,73.35 C575.65,73.45 575.683333,74.2333333 575.65,75.7 C575.616667,77.1666667 575.55,77.9833333 575.45,78.15 C575.35,78.3166667 575.283333,78.75 575.25,79.45 C575.216667,80.15 575.1,80.6333333 574.9,80.9 C574.7,81.1666667 574.566667,81.7333333 574.5,82.6 C574.433333,83.4666667 574.283333,84.1166667 574.05,84.55 C573.816667,84.9833333 573.683333,85.3166667 573.65,85.55 C573.616667,85.7833333 573.55,85.9833333 573.45,86.15 C573.35,86.3166667 573.283333,86.6833333 573.25,87.25 C573.216667,87.8166667 573.1,88.2333333 572.9,88.5 C572.7,88.7666667 572.566667,89.1 572.5,89.5 C572.433333,89.9 572.25,90.3333333 571.95,90.8 C571.65,91.2666667 571.466667,91.6 571.4,91.8 L571.4,92 L571.4,92 Z M656.4,115.5 C656.4,115.5 656.633333,115.35 657.1,115.05 C657.566667,114.75 657.883333,114.466667 658.05,114.2 C658.216667,113.933333 658.333333,112.5 658.4,109.9 C658.466667,107.3 658.516667,106 658.55,106 C658.583333,106 658.633333,105.9 658.7,105.7 C658.766667,105.5 658.816667,103.566667 658.85,99.9 C658.883333,96.2333333 658.916667,94.4 658.95,94.4 C658.983333,94.4 659.033333,94.3 659.1,94.1 C659.166667,93.9 659.216667,93.25 659.25,92.15 C659.261111,91.7833333 659.272222,91.4777778 659.283333,91.2333333 L659.289,91.096 L659.314286,91.0826531 C659.361905,91.0561224 659.407143,91.0285714 659.45,91 C659.75,90.8 660.333333,90.7 661.2,90.7 C662.066667,90.7 662.866667,90.5 663.6,90.1 C664.333333,89.7 664.783333,89.5 664.95,89.5 C665.116667,89.5 665.3,89.4333333 665.5,89.3 C665.7,89.1666667 666.166667,89.1 666.9,89.1 C667.633333,89.1 668.1,89.0333333 668.3,88.9 C668.5,88.7666667 668.95,88.7 669.65,88.7 C670.35,88.7 670.933333,88.55 671.4,88.25 C671.866667,87.95 672.183333,87.6666667 672.35,87.4 C672.516667,87.1333333 672.6,86.7166667 672.6,86.15 C672.6,85.5833333 672.466667,85.1166667 672.2,84.75 C671.933333,84.3833333 671.616667,84.1 671.25,83.9 C670.883333,83.7 670.083333,83.6166667 668.85,83.65 C667.616667,83.6833333 666.95,83.75 666.85,83.85 C666.75,83.95 666.283333,84.0166667 665.45,84.05 C664.616667,84.0833333 664.15,84.15 664.05,84.25 C663.95,84.35 663.716667,84.4333333 663.35,84.5 C662.983333,84.5666667 662.6,84.75 662.2,85.05 C661.830769,85.3269231 661.149112,85.5044379 660.15503,85.5825444 L659.645858,85.6168639 L659.645858,85.6168639 L659.563,85.624 L659.564297,85.4854609 C659.565121,85.1176028 659.565731,84.7282451 659.566125,84.3173878 L659.566219,81.9628594 C659.566129,81.841333 659.566026,81.7184628 659.56591,81.5942489 L659.56505,80.8328406 C659.562667,79.0185972 659.55765,76.9409836 659.55,74.6 C659.544086,72.7903226 659.537123,71.1396072 659.52911,69.6478538 L659.528,69.545 L659.55,69.55 L659.55,69.55 C659.716667,69.5833333 660.05,69.85 660.55,70.35 C661.05,70.85 661.583333,71.25 662.15,71.55 C662.716667,71.85 663.316667,72.3166667 663.95,72.95 C664.583333,73.5833333 664.983333,73.9666667 665.15,74.1 C665.316667,74.2333333 665.716667,74.6333333 666.35,75.3 C666.613889,75.5777778 666.837269,75.8092593 667.020139,75.9944444 L667.220139,76.1944444 C667.370602,76.3425926 667.480556,76.4444444 667.55,76.5 C667.716667,76.6333333 668,76.9166667 668.4,77.35 C668.8,77.7833333 669.133333,78.1166667 669.4,78.35 C669.666667,78.5833333 669.983333,78.9833333 670.35,79.55 C670.716667,80.1166667 671.1,80.5166667 671.5,80.75 C671.9,80.9833333 672.166667,81.1 672.3,81.1 C672.433333,81.1 672.566667,81.2333333 672.7,81.5 C672.833333,81.7666667 673.366667,82.3666667 674.3,83.3 C675.233333,84.2333333 676.066667,84.9333333 676.8,85.4 C677.533333,85.8666667 678.1,86.3166667 678.5,86.75 C678.9,87.1833333 679.2,87.5666667 679.4,87.9 C679.6,88.2333333 679.9,88.5166667 680.3,88.75 C680.7,88.9833333 681.016667,89.1166667 681.25,89.15 C681.483333,89.1833333 681.766667,89.3166667 682.1,89.55 C682.433333,89.7833333 682.716667,90.0333333 682.95,90.3 C683.183333,90.5666667 683.55,90.8166667 684.05,91.05 C684.55,91.2833333 684.95,91.55 685.25,91.85 C685.55,92.15 685.983333,92.4833333 686.55,92.85 C687.116667,93.2166667 687.583333,93.4833333 687.95,93.65 C688.316667,93.8166667 688.65,94.0166667 688.95,94.25 C689.25,94.4833333 689.666667,94.6333333 690.2,94.7 L691.1,94.7 L691.1,94.7 C691.1,94.7 691.333333,94.55 691.8,94.25 C692.266667,93.95 692.583333,93.6666667 692.75,93.4 C692.916667,93.1333333 693,92.7166667 693,92.15 C693,91.5833333 692.816667,91.05 692.45,90.55 C692.083333,90.05 691.566667,89.5833333 690.9,89.15 C690.233333,88.7166667 689.716667,88.45 689.35,88.35 C688.983333,88.25 688.533333,87.9666667 688,87.5 C687.466667,87.0333333 687.033333,86.7166667 686.7,86.55 C686.366667,86.3833333 686.083333,86.1666667 685.85,85.9 C685.616667,85.6333333 685.183333,85.3333333 684.55,85 C683.916667,84.6666667 683.383333,84.3333333 682.95,84 C682.516667,83.6666667 681.966667,83.1666667 681.3,82.5 C680.633333,81.8333333 680.133333,81.4 679.8,81.2 C679.466667,81 679.016667,80.6833333 678.45,80.25 C677.883333,79.8166667 677.366667,79.2833333 676.9,78.65 C676.433333,78.0166667 675.816667,77.3333333 675.05,76.6 C674.283333,75.8666667 673.816667,75.4333333 673.65,75.3 C673.483333,75.1666667 673.283333,74.9666667 673.05,74.7 C672.816667,74.4333333 672.533333,74.2 672.2,74 C671.866667,73.8 671.55,73.4666667 671.25,73 C670.95,72.5333333 670.583333,72.1666667 670.15,71.9 C669.716667,71.6333333 669.366667,71.2833333 669.1,70.85 C668.833333,70.4166667 668.466667,70.05 668,69.75 C667.533333,69.45 667,69 666.4,68.4 C665.8,67.8 665.216667,67.35 664.65,67.05 C664.083333,66.75 663.55,66.35 663.05,65.85 C662.55,65.35 662.066667,64.9833333 661.6,64.75 C661.133333,64.5166667 660.583333,64.4166667 659.95,64.45 C659.791667,64.4583333 659.641667,64.4739583 659.5,64.496875 L659.491,64.499 L659.490479,64.4319979 C659.454891,60.9687305 659.408065,59.2080645 659.35,59.15 C659.25,59.05 659.15,58.7333333 659.05,58.2 L659.007143,57.9642857 L659.007143,57.9642857 L658.997,57.906 L659.205903,57.8958333 C659.615856,57.8652778 660.263889,57.6666667 661.15,57.3 C662.116667,56.9 662.783333,56.7 663.15,56.7 C663.516667,56.7 664.066667,56.5166667 664.8,56.15 C665.533333,55.7833333 665.95,55.6 666.05,55.6 C666.15,55.6 666.45,55.55 666.95,55.45 C667.45,55.35 667.816667,55.2 668.05,55 C668.283333,54.8 668.533333,54.7 668.8,54.7 C669.066667,54.7 669.433333,54.5666667 669.9,54.3 C670.366667,54.0333333 670.766667,53.9 671.1,53.9 C671.433333,53.9 671.833333,53.75 672.3,53.45 C672.766667,53.15 673.15,52.8 673.45,52.4 C673.75,52 673.9,51.5166667 673.9,50.95 C673.9,50.3833333 673.766667,49.9166667 673.5,49.55 C673.233333,49.1833333 672.916667,48.9 672.55,48.7 C672.183333,48.5 671.583333,48.4166667 670.75,48.45 C669.916667,48.4833333 669.333333,48.6333333 669,48.9 C668.666667,49.1666667 668.4,49.35 668.2,49.45 C668,49.55 667.716667,49.6333333 667.35,49.7 C666.983333,49.7666667 666.65,49.9 666.35,50.1 C666.05,50.3 665.683333,50.4333333 665.25,50.5 C664.816667,50.5666667 664.266667,50.7666667 663.6,51.1 C662.933333,51.4333333 662.383333,51.6166667 661.95,51.65 C661.516667,51.6833333 660.866667,51.8833333 660,52.25 C659.422222,52.4944444 658.911111,52.6648148 658.466667,52.7611111 L658.395,52.776 L658.394531,52.7265625 C658.377344,51.8421875 658.3625,50.7 658.35,49.3 C658.316667,45.5666667 658.25,43.65 658.15,43.55 C658.05,43.45 657.983333,42.9166667 657.95,41.95 C657.916667,40.9833333 657.85,40.4333333 657.75,40.3 C657.65,40.1666667 657.583333,39.6333333 657.55,38.7 C657.516667,37.7666667 657.45,37.2333333 657.35,37.1 C657.25,36.9666667 657.183333,36.6333333 657.15,36.1 C657.116667,35.5666667 656.966667,35.1166667 656.7,34.75 C656.433333,34.3833333 656.116667,34.1 655.75,33.9 C655.383333,33.7 654.9,33.6166667 654.3,33.65 C653.7,33.6833333 653.216667,33.8333333 652.85,34.1 C652.483333,34.3666667 652.2,34.6833333 652,35.05 C651.8,35.4166667 651.716667,35.8333333 651.75,36.3 C651.783333,36.7666667 651.85,37.0666667 651.95,37.2 C652.05,37.3333333 652.133333,37.5833333 652.2,37.95 C652.266667,38.3166667 652.333333,38.5333333 652.4,38.6 C652.466667,38.6666667 652.516667,39.1666667 652.55,40.1 C652.583333,41.0333333 652.65,41.5666667 652.75,41.7 C652.85,41.8333333 652.916667,42.4166667 652.95,43.45 C652.983333,44.4833333 653.05,45.0666667 653.15,45.2 C653.25,45.3333333 653.316667,47.2166667 653.35,50.85 C653.363978,52.3736559 653.383819,53.5895595 653.409521,54.4977107 L653.412,54.603 L653.316327,54.6377551 C653.12449,54.7173469 652.935714,54.8214286 652.75,54.95 C652.316667,55.25 651.85,55.4833333 651.35,55.65 C650.85,55.8166667 650.083333,56.1166667 649.05,56.55 C648.016667,56.9833333 647.316667,57.2333333 646.95,57.3 C646.583333,57.3666667 646.3,57.4833333 646.1,57.65 C645.9,57.8166667 645.566667,57.95 645.1,58.05 C644.633333,58.15 644.016667,58.4166667 643.25,58.85 C642.483333,59.2833333 641.966667,59.6 641.7,59.8 C641.433333,60 641.15,60.1666667 640.85,60.3 C640.55,60.4333333 640.233333,60.6166667 639.9,60.85 C639.566667,61.0833333 639.183333,61.3166667 638.75,61.55 C638.316667,61.7833333 637.833333,62.1833333 637.3,62.75 C636.766667,63.3166667 636.433333,63.7333333 636.3,64 C636.166667,64.2666667 636.116667,64.7 636.15,65.3 C636.183333,65.9 636.333333,66.3833333 636.6,66.75 C636.866667,67.1166667 637.183333,67.4 637.55,67.6 C637.916667,67.8 638.266667,67.9 638.6,67.9 L639.2,67.9 L639.2,67.9 C639.2,67.9 639.433333,67.75 639.9,67.45 C640.366667,67.15 640.733333,66.8 641,66.4 C641.266667,66 641.433333,65.8 641.5,65.8 C641.566667,65.8 641.85,65.65 642.35,65.35 C642.85,65.05 643.133333,64.9 643.2,64.9 C643.266667,64.9 643.683333,64.6333333 644.45,64.1 C645.216667,63.5666667 645.633333,63.3 645.7,63.3 C645.766667,63.3 646.2,63.15 647,62.85 C647.8,62.55 648.633333,62.2333333 649.5,61.9 C650.366667,61.5666667 651.4,61.15 652.6,60.65 C653.24,60.3833333 653.733037,60.1688148 654.079111,60.0064444 L654.152,59.972 L654.164062,60.1054687 C654.200521,60.4518229 654.2625,60.6833333 654.35,60.8 C654.400847,60.8677966 654.434458,62.1292157 654.450833,64.5842574 L654.451,64.684 L654.321605,64.7395062 C654.222016,64.7872428 654.131481,64.8407407 654.05,64.9 C653.683333,65.1666667 653.45,65.4 653.35,65.6 C653.25,65.8 653.05,66 652.75,66.2 C652.45,66.4 652.166667,66.7166667 651.9,67.15 C651.633333,67.5833333 651.366667,67.95 651.1,68.25 C650.833333,68.55 650.6,68.9 650.4,69.3 C650.2,69.7 649.883333,70.2 649.45,70.8 C649.016667,71.4 648.65,71.85 648.35,72.15 C648.05,72.45 647.483333,73.2 646.65,74.4 C645.816667,75.6 644.966667,76.65 644.1,77.55 C643.233333,78.45 642.683333,79.0833333 642.45,79.45 C642.216667,79.8166667 641.966667,80.1333333 641.7,80.4 C641.433333,80.6666667 641.2,81.0166667 641,81.45 C640.8,81.8833333 640.516667,82.2166667 640.15,82.45 C639.783333,82.6833333 639.45,83.0166667 639.15,83.45 C638.85,83.8833333 638.516667,84.2166667 638.15,84.45 C637.783333,84.6833333 637.45,85.0333333 637.15,85.5 C636.85,85.9666667 636.466667,86.4333333 636,86.9 C635.533333,87.3666667 635.233333,87.6833333 635.1,87.85 C634.966667,88.0166667 634.566667,88.4166667 633.9,89.05 C633.233333,89.6833333 632.816667,90.1833333 632.65,90.55 C632.483333,90.9166667 632.25,91.2 631.95,91.4 C631.65,91.6 631.45,91.7666667 631.35,91.9 C631.25,92.0333333 631.016667,92.1833333 630.65,92.35 C630.283333,92.5166667 629.916667,92.4666667 629.55,92.2 C629.229167,91.9666667 628.831771,91.8354167 628.357812,91.80625 L628.326,91.806 L628.326,91.79 C628.288667,88.51 628.23,86.83 628.15,86.75 C628.05,86.65 627.983333,83.5166667 627.95,77.35 C627.916667,71.1833333 627.783333,67.95 627.55,67.65 C627.316667,67.35 627.166667,66.9833333 627.1,66.55 C627.033333,66.1166667 626.816667,65.65 626.45,65.15 C626.083333,64.65 625.833333,64.25 625.7,63.95 C625.566667,63.65 625.383333,63.3833333 625.15,63.15 C624.916667,62.9166667 624.666667,62.7333333 624.4,62.6 C624.133333,62.4666667 623.9,62.4 623.7,62.4 C623.5,62.4 623.6,62.0833333 624,61.45 C624.4,60.8166667 624.7,60.3833333 624.9,60.15 C625.1,59.9166667 625.233333,59.8 625.3,59.8 C625.366667,59.8 625.55,59.6 625.85,59.2 C626.15,58.8 626.366667,58.3666667 626.5,57.9 C626.633333,57.4333333 626.716667,57.2 626.75,57.2 C626.783333,57.2 626.933333,57.0166667 627.2,56.65 C627.466667,56.2833333 627.7,55.9 627.9,55.5 C628.1,55.1 628.216667,54.9 628.25,54.9 C628.283333,54.9 628.433333,54.7166667 628.7,54.35 C628.966667,53.9833333 629.25,53.5666667 629.55,53.1 C629.85,52.6333333 630.05,52.25 630.15,51.95 C630.25,51.65 630.316667,51.5 630.35,51.5 C630.383333,51.5 630.466667,51.35 630.6,51.05 C630.733333,50.75 630.833333,50.45 630.9,50.15 C630.966667,49.85 631.016667,49.7 631.05,49.7 C631.083333,49.7 631.233333,49.5166667 631.5,49.15 C631.766667,48.7833333 632.033333,48.2 632.3,47.4 C632.566667,46.6 632.716667,46.2 632.75,46.2 C632.783333,46.2 632.916667,46 633.15,45.6 C633.383333,45.2 633.533333,44.85 633.6,44.55 C633.666667,44.25 633.716667,44.1 633.75,44.1 C633.783333,44.1 633.916667,43.85 634.15,43.35 C634.383333,42.85 634.516667,42.6 634.55,42.6 C634.583333,42.6 634.683333,42.4666667 634.85,42.2 C635.016667,41.9333333 635.1,41.3166667 635.1,40.35 C635.1,39.3833333 634.966667,38.7166667 634.7,38.35 C634.433333,37.9833333 634.116667,37.7 633.75,37.5 C633.383333,37.3 632.9,37.2166667 632.3,37.25 C631.7,37.2833333 631.216667,37.4333333 630.85,37.7 C630.483333,37.9666667 630.2,38.2833333 630,38.65 C629.8,39.0166667 629.7,39.4333333 629.7,39.9 C629.7,40.3666667 629.633333,40.7 629.5,40.9 C629.366667,41.1 629.283333,41.2833333 629.25,41.45 C629.216667,41.6166667 629.1,41.8333333 628.9,42.1 C628.7,42.3666667 628.566667,42.7 628.5,43.1 C628.433333,43.5 628.283333,43.8666667 628.05,44.2 C627.816667,44.5333333 627.6,45.0166667 627.4,45.65 C627.2,46.2833333 626.966667,46.75 626.7,47.05 C626.433333,47.35 626.183333,47.8333333 625.95,48.5 C625.716667,49.1666667 625.416667,49.7666667 625.05,50.3 C624.683333,50.8333333 624.416667,51.2666667 624.25,51.6 C624.083333,51.9333333 623.85,52.3333333 623.55,52.8 C623.25,53.2666667 623.033333,53.6166667 622.9,53.85 C622.766667,54.0833333 622.566667,54.35 622.3,54.65 C622.033333,54.95 621.85,55.3 621.75,55.7 C621.65,56.1 621.45,56.4 621.15,56.6 C620.85,56.8 620.483333,57.3 620.05,58.1 C619.616667,58.9 618.983333,59.75 618.15,60.65 C617.316667,61.55 616.8,62.2 616.6,62.6 C616.4,63 616.166667,63.2833333 615.9,63.45 C615.633333,63.6166667 615.266667,64.0833333 614.8,64.85 C614.333333,65.6166667 613.883333,66.1333333 613.45,66.4 C613.016667,66.6666667 612.666667,66.95 612.4,67.25 C612.133333,67.55 611.733333,67.8333333 611.2,68.1 C610.666667,68.3666667 610.116667,68.7666667 609.55,69.3 C608.983333,69.8333333 608.316667,70.35 607.55,70.85 C606.783333,71.35 606,71.8666667 605.2,72.4 C604.4,72.9333333 603.833333,73.4166667 603.5,73.85 C603.166667,74.2833333 603,74.7833333 603,75.35 C603,75.9166667 603.133333,76.3833333 603.4,76.75 C603.666667,77.1166667 603.983333,77.4 604.35,77.6 C604.716667,77.8 605.15,77.9 605.65,77.9 C606.15,77.9 607.016667,77.5 608.25,76.7 C608.789583,76.35 609.233464,76.0510417 609.581641,75.803125 L609.856641,75.603125 C610.15013,75.384375 610.347917,75.2166667 610.45,75.1 C610.683333,74.8333333 610.866667,74.7 611,74.7 C611.133333,74.7 611.433333,74.55 611.9,74.25 C612.366667,73.95 612.716667,73.6666667 612.95,73.4 C613.183333,73.1333333 613.333333,73 613.4,73 C613.466667,73 613.716667,72.8166667 614.15,72.45 C614.583333,72.0833333 614.866667,71.9 615,71.9 C615.133333,71.9 615.433333,71.75 615.9,71.45 C616.366667,71.15 616.683333,70.85 616.85,70.55 C617.016667,70.25 617.133333,70.1 617.2,70.1 C617.266667,70.1 617.416667,70 617.65,69.8 C617.883333,69.6 618.066667,69.5 618.2,69.5 C618.333333,69.5 618.633333,69.35 619.1,69.05 C619.566667,68.75 619.9,68.4833333 620.1,68.25 C620.3,68.0166667 620.533333,67.9 620.8,67.9 C621.066667,67.9 621.316667,67.85 621.55,67.75 C621.783333,67.65 622.016667,67.9166667 622.25,68.55 C622.483333,69.1833333 622.65,69.55 622.75,69.65 C622.85,69.75 622.916667,72.8666667 622.95,79 C622.983333,85.1333333 623.05,88.2666667 623.15,88.4 C623.222414,88.4965517 623.259869,89.3884067 623.262366,91.0755648 L623.262128,91.5792509 C623.260939,92.1045779 623.256897,92.6948276 623.25,93.35 C623.216667,96.5166667 623.083333,98.4 622.85,99 C622.616667,99.6 622.516667,100.95 622.55,103.05 C622.583333,105.15 622.733333,106.383333 623,106.75 C623.266667,107.116667 623.583333,107.4 623.95,107.6 C624.316667,107.8 624.733333,107.9 625.2,107.9 L626,107.9 L626,107.9 C626,107.9 626.233333,107.75 626.7,107.45 C627.166667,107.15 627.483333,106.866667 627.65,106.6 C627.816667,106.333333 627.933333,105.633333 628,104.5 C628.066667,103.366667 628.116667,102.8 628.15,102.8 C628.183333,102.8 628.233333,102.7 628.3,102.5 C628.332479,102.402564 628.35309,101.723636 628.361834,100.463215 L628.363,100.3 L628.8,100.3 L628.8,100.3 C628.8,100.3 629.216667,100.083333 630.05,99.65 C630.883333,99.2166667 631.583333,98.7166667 632.15,98.15 C632.716667,97.5833333 633.033333,97.2166667 633.1,97.05 C633.166667,96.8833333 633.233333,96.8 633.3,96.8 C633.366667,96.8 633.666667,96.6333333 634.2,96.3 C634.733333,95.9666667 635.116667,95.6333333 635.35,95.3 C635.583333,94.9666667 635.733333,94.8 635.8,94.8 C635.866667,94.8 636.066667,94.6333333 636.4,94.3 C636.733333,93.9666667 637,93.5666667 637.2,93.1 C637.4,92.6333333 637.516667,92.4 637.55,92.4 C637.583333,92.4 637.85,92.2166667 638.35,91.85 C638.85,91.4833333 639.233333,91.0833333 639.5,90.65 C639.766667,90.2166667 639.916667,90 639.95,90 C639.983333,90 640.233333,89.75 640.7,89.25 C640.816667,89.125 640.925,89.0083333 641.025,88.9 L641.3,88.6 C641.466667,88.4166667 641.6,88.2666667 641.7,88.15 C641.9,87.9166667 642.033333,87.8 642.1,87.8 C642.166667,87.8 642.4,87.5333333 642.8,87 C643.2,86.4666667 643.433333,86.2 643.5,86.2 C643.566667,86.2 643.833333,85.9833333 644.3,85.55 C644.766667,85.1166667 645.133333,84.6333333 645.4,84.1 C645.666667,83.5666667 645.816667,83.3 645.85,83.3 C645.883333,83.3 646.166667,82.95 646.7,82.25 C647.233333,81.55 647.516667,81.2 647.55,81.2 C647.583333,81.2 647.916667,80.8666667 648.55,80.2 C649.183333,79.5333333 649.916667,78.6 650.75,77.4 C651.583333,76.2 652.016667,75.6 652.05,75.6 C652.083333,75.6 652.383333,75.25 652.95,74.55 C653.403333,73.99 653.846,73.3766667 654.278,72.71 L654.458,72.425 L654.457038,72.7681126 C654.455171,73.4955856 654.452825,74.2562147 654.45,75.05 C654.429096,80.9240113 654.395083,84.9889447 654.34796,87.2448003 L654.346,87.331 L654.152041,87.4142857 C653.584014,87.652381 653.05,87.8309524 652.55,87.95 C651.85,88.1166667 651.283333,88.3 650.85,88.5 C650.416667,88.7 649.933333,88.8166667 649.4,88.85 C648.866667,88.8833333 648.416667,89.0333333 648.05,89.3 C647.683333,89.5666667 647.166667,89.8 646.5,90 C645.833333,90.2 645.316667,90.4333333 644.95,90.7 C644.583333,90.9666667 644.233333,91.1833333 643.9,91.35 C643.566667,91.5166667 643.2,91.6166667 642.8,91.65 C642.4,91.6833333 642.016667,91.8333333 641.65,92.1 C641.283333,92.3666667 641,92.6833333 640.8,93.05 C640.6,93.4166667 640.516667,93.8333333 640.55,94.3 C640.583333,94.7666667 640.733333,95.1833333 641,95.55 C641.266667,95.9166667 641.583333,96.2 641.95,96.4 C642.316667,96.6 642.833333,96.7 643.5,96.7 L644.5,96.7 L644.5,96.7 L644.524219,96.6875 C644.63724,96.6291667 645.145833,96.3666667 646.05,95.9 C647.083333,95.3666667 647.933333,94.9666667 648.6,94.7 C649.266667,94.4333333 649.683333,94.2333333 649.85,94.1 C650.016667,93.9666667 650.3,93.9 650.7,93.9 C651.1,93.9 651.65,93.75 652.35,93.45 C653.05,93.15 653.466667,93 653.6,93 C653.636364,93 653.692562,92.9913223 653.768595,92.9739669 L653.848,92.955 L653.814844,93.0195312 C653.738281,93.1981771 653.7,93.4916667 653.7,93.9 C653.7,94.3666667 653.55,94.6666667 653.25,94.8 C652.95,94.9333333 652.683333,95.1166667 652.45,95.35 C652.216667,95.5833333 652.033333,95.8333333 651.9,96.1 C651.801235,96.2975309 651.748194,97.1992227 651.740878,98.8050754 L651.740672,99.5752401 C651.741952,99.9386603 651.745062,100.330247 651.75,100.75 C651.783333,103.583333 651.933333,105.866667 652.2,107.6 C652.466667,109.333333 652.716667,110.566667 652.95,111.3 C653.183333,112.033333 653.316667,112.633333 653.35,113.1 C653.383333,113.566667 653.533333,113.983333 653.8,114.35 C654.066667,114.716667 654.383333,115 654.75,115.2 C655.116667,115.4 655.466667,115.5 655.8,115.5 L656.4,115.5 L656.4,115.5 Z" id="智勇手书体" fill="#020202" fill-rule="nonzero"></path>
    </g>
</svg>