<?xml version="1.0" encoding="UTF-8"?>
<svg width="900px" height="140px" viewBox="0 0 900 140" version="1.1" xmlns="http://www.w3.org/2000/svg" xmlns:xlink="http://www.w3.org/1999/xlink">
    <!-- Generator: Sketch 59.1 (86144) - https://sketch.com -->
    <title>preview</title>
    <desc>Created with Sketch.</desc>
    <g id="preview" stroke="none" stroke-width="1" fill="none" fill-rule="evenodd">
        <path d="M353.82,43.56 C353.9,43.6800006 353.89,43.8099993 353.79,43.95 C353.689999,44.0900007 353.550001,44.2299993 353.37,44.37 C353.189999,44.5100007 353.020001,44.6599992 352.86,44.82 C352.699999,44.9800008 352.62,45.1399992 352.62,45.3 L352.62,68.58 C352.62,68.8600014 352.330003,69.1099989 351.75,69.33 C351.169997,69.5500011 350.520004,69.7399992 349.8,69.9 C349.079996,70.0600008 348.370003,70.1799996 347.67,70.26 L347.046665,70.3266668 C346.682221,70.3622224 346.420001,70.38 346.26,70.38 C345.859998,70.38 345.66,70.180002 345.66,69.78 C345.66,66.046648 345.604445,62.3411202 345.493334,58.6633394 L345.42,56.46 C345.259999,52.059978 345.18,47.6200224 345.18,43.14 C345.18,42.739998 345.379998,42.54 345.78,42.54 L345.9576,42.5448 C346.1688,42.5543999 346.480798,42.5783998 346.893599,42.6167998 L347.34,42.66 C347.940003,42.7200003 348.568124,42.7856249 349.224374,42.8568748 L349.89,42.93 C350.610004,43.0100004 351.285199,43.0963998 351.915599,43.1891998 L352.38,43.26 C353.140004,43.3800006 353.599999,43.4799996 353.76,43.56 L353.82,43.56 Z M354.9,65.4 L355.02,65.16 L355.44,64.98 L364.2,64.98 C364.600002,64.98 364.8,64.780002 364.8,64.38 L364.8,43.14 C364.8,42.739998 364.999998,42.54 365.4,42.54 L365.641875,42.5474999 C365.911874,42.5608332 366.328539,42.5919442 366.891874,42.6408332 L367.11,42.66 C368.010004,42.7400004 368.949995,42.8399994 369.93,42.96 L371.067601,43.1040001 C371.434,43.152 371.787599,43.1999998 372.128399,43.2479998 L372.63,43.32 C373.450004,43.4400006 373.919999,43.54 374.04,43.62 C374.005,43.9000014 373.832189,44.1417183 373.521563,44.345156 L373.38,44.43 C372.979998,44.6500011 372.78,44.9799978 372.78,45.42 L372.78,51.6 C372.78,51.7600008 372.8248,51.9199997 372.9144,52.0799997 L372.99,52.2 C373.130001,52.400001 373.2,52.599999 373.2,52.8 C373.2,52.992 373.1552,53.1711994 373.0656,53.3375996 L372.99,53.46 C372.849999,53.660001 372.78,53.8799988 372.78,54.12 C372.78,55.3360061 372.8184,56.5327978 372.8952,57.7103979 L372.96,58.59 C373.080001,60.0500073 373.14,61.54 373.14,63.06 C373.14,63.1800006 373.13,63.3499989 373.11,63.57 C373.09,63.7900011 373.1,64.0099989 373.14,64.23 C373.18,64.4500011 373.24,64.6399992 373.32,64.8 C373.4,64.9600008 373.539999,65.04 373.74,65.04 C374.860006,65.04 375.709997,64.8000024 376.29,64.32 C376.870003,63.8399976 377.339998,63.2900031 377.7,62.67 C378.060002,62.0499969 378.389998,61.440003 378.69,60.84 C378.990002,60.239997 379.419997,59.8200012 379.98,59.58 C380.140001,59.6200002 380.369999,59.7499989 380.67,59.97 C380.970001,60.1900011 381.279998,60.4499985 381.6,60.75 L383.035102,62.097551 C383.084082,62.1448978 383.125714,62.1857141 383.16,62.22 C383.25,62.2800003 383.401874,62.4018743 383.615624,62.5856244 L383.85,62.79 C384.105001,63.0150011 384.376875,63.2456247 384.665624,63.4818745 L384.96,63.72 C385.280002,63.976 385.568,64.2191991 385.824,64.4495995 L386.01,64.62 C386.310001,64.9000014 386.46,65.0599998 386.46,65.1 C386.46,65.2600008 386.360001,65.4199992 386.16,65.58 C385.959999,65.7400008 385.780001,65.82 385.62,65.82 L355.44,65.82 L355.02,65.64 L355.02,65.58 L354.9,65.4 Z M335.16,45.9 C335.16,45.5399982 335.359998,45.36 335.76,45.36 C336.480004,45.36 337.279996,45.5499981 338.16,45.93 C339.040004,46.3100019 339.859996,46.8199968 340.62,47.46 C341.380004,48.1000032 342.009997,48.8099961 342.51,49.59 C343.010002,50.3700039 343.26,51.1399962 343.26,51.9 C343.26,52.86 342.890004,53.6999964 342.15,54.42 C341.409996,55.1400036 340.560005,55.5 339.6,55.5 C338.599995,55.5 337.810003,55.1300037 337.23,54.39 C336.649997,53.6499963 336.210001,52.7700051 335.91,51.75 C335.609999,50.7299949 335.410001,49.6800054 335.31,48.6 C335.209999,47.5199946 335.16,46.6200036 335.16,45.9 Z M375.36,52.98 C375.039998,52.98 374.780001,52.880001 374.58,52.68 C374.58,52.5599994 374.689999,52.4700003 374.91,52.41 C375.130001,52.3499997 375.369999,52.3000002 375.63,52.26 L376.41,52.14 C376.670001,52.0999998 376.859999,52.0400004 376.98,51.96 C377.180001,51.7999992 377.449998,51.4700025 377.79,50.97 C378.016668,50.636665 378.252222,50.2944445 378.496666,49.943334 L378.87,49.41 C379.250002,48.8699973 379.609998,48.3800022 379.95,47.94 C380.290002,47.4999978 380.559999,47.28 380.76,47.28 C380.790769,47.28 380.993134,47.4279275 381.367099,47.723786 L382.5276,48.6540002 L382.5276,48.6540002 L383.82,49.68 C384.428,50.16 384.997598,50.6271982 385.528799,51.0815989 L385.92,51.42 C386.560003,51.9800028 386.92,52.3199994 387,52.44 C387.08,52.6000008 387.08,52.7199996 387,52.8 L386.58,52.98 L375.36,52.98 Z M354.96,52.62 L363.42,52.62 L363.6,52.8 L363.42,52.98 L354.96,52.98 L354.78,52.8 L354.96,52.62 Z M344.16,59.16 C344.24,59.2400004 344.28,59.3599992 344.28,59.52 C344.28,59.6800008 344.100002,60.0099975 343.74,60.51 L343.406938,60.9606127 C343.10898,61.3544897 342.760002,61.7942833 342.36,62.28 C341.799997,62.9600034 341.190003,63.6699963 340.53,64.41 C339.869997,65.1500037 339.230003,65.8399968 338.61,66.48 L338.095713,67.0040826 C337.681428,67.4204089 337.302859,67.7857127 336.96,68.1 L336.6912,68.3400008 C336.3584,68.6280013 336.128001,68.7879998 336,68.82 C335.92,68.82 335.84,68.7800004 335.76,68.7 C335.650909,68.5909085 335.426117,68.2421516 335.08562,67.6537198 L334.98,67.47 C334.659998,66.9099972 334.327201,66.3052016 333.981601,65.6556013 L333.72,65.16 C333.367998,64.4879966 333.0416,63.8608009 332.7408,63.2784009 L332.354999,62.5241655 C332.104999,62.0213866 331.98,61.7200005 331.98,61.62 L331.9848,61.4087997 C331.9896,61.3175998 331.998,61.2480002 332.01,61.2 C332.03,61.1199996 332.139999,61.0400004 332.34,60.96 C332.660002,60.7999992 332.999998,60.7000002 333.36,60.66 C333.720002,60.6199998 334.059998,60.5600004 334.38,60.48 C335.940008,60.1599984 337.48,59.8300017 339,59.49 C340.520008,59.1499983 342.099992,58.98 343.74,58.98 L344.16,59.16 Z M364.98,89.46 C364.366664,89.7000012 363.753333,89.9488888 363.140001,90.2066662 L362.22,90.6 C361.299995,91.000002 360.380005,91.3799982 359.46,91.74 C357.859992,92.3800032 356.260008,92.9699973 354.66,93.51 C353.459994,93.915002 352.248752,94.3368743 351.026252,94.7756241 L349.8,95.22 C349.039996,95.5000014 348.260004,95.7799986 347.46,96.06 C346.66,96.3400014 345.900004,96.6599982 345.18,97.02 C344.859998,97.220001 344.520002,97.4699985 344.16,97.77 C343.799998,98.0700015 343.420002,98.22 343.02,98.22 C342.859999,98.22 342.530003,97.8800034 342.03,97.2 C341.529997,96.5199966 341.010003,95.7500043 340.47,94.89 C339.929997,94.0299957 339.450002,93.2100039 339.03,92.43 L338.837499,92.0624987 C338.545832,91.4874976 338.4,91.100001 338.4,90.9 C338.4,90.8199996 338.459999,90.7600002 338.58,90.72 C338.700001,90.6799998 338.8,90.66 338.88,90.66 C339.083636,90.6309089 339.456526,90.6176858 339.998676,90.6203305 L340.68,90.63 C341.600005,90.6500001 342.539995,90.6400002 343.5,90.6 C344.460005,90.5599998 345.319996,90.4600008 346.08,90.3 C346.840004,90.1399992 347.22,89.8800018 347.22,89.52 L347.22,84.48 C347.22,84.279999 347.16,84.1200006 347.04,84 C346.919999,83.8799994 346.760001,83.8599996 346.56,83.94 L346.246864,84.0683433 C345.82793,84.2304732 345.172312,84.4576908 344.28,84.75 C343.119994,85.1300019 341.900006,85.4999982 340.62,85.86 C339.339994,86.2200018 338.16,86.4799992 337.08,86.64 C335.999995,86.8000008 335.360001,86.7400014 335.16,86.46 C335.2,86.259999 335.269999,86.1400002 335.37,86.1 L335.5425,86.0250001 C335.6075,85.9950001 335.68,85.9600002 335.76,85.92 L336.594376,85.5450005 C337.453126,85.1550012 338.384995,84.7200024 339.39,84.24 C340.730007,83.5999968 342.089993,82.9200036 343.47,82.2 C344.850007,81.4799964 346.169994,80.7300039 347.43,79.95 C348.690006,79.1699961 349.739996,78.4000038 350.58,77.64 C350.900002,77.3199984 351.189999,76.9900017 351.45,76.65 C351.710001,76.3099983 351.979999,75.9800016 352.26,75.66 C352.500001,75.3799986 352.809998,75.2300001 353.19,75.21 C353.443335,75.1966666 353.692222,75.1922221 353.936666,75.1966666 L354.3,75.21 C354.66,75.2300001 354.969999,75.2200002 355.23,75.18 C355.490001,75.1399998 355.62,74.94 355.62,74.58 L355.62,69.48 C355.62,69.1199982 355.799998,68.94 356.16,68.94 C356.480002,68.94 356.799998,68.9599998 357.12,69 L358.296296,69.1466667 C358.501234,69.1688889 358.7679,69.1911111 359.096295,69.2133333 L359.52,69.24 C360.200003,69.2800002 360.909996,69.3299997 361.65,69.39 C362.390004,69.4500003 363.069997,69.5299995 363.69,69.63 C364.310003,69.7300005 364.699999,69.8599992 364.86,70.02 C364.757142,70.2942871 364.566124,70.54653 364.286939,70.7767344 L364.14,70.89 C363.779998,71.1500013 363.6,71.44 363.6,71.76 L363.593333,71.9566666 C363.584445,72.1122217 363.566667,72.3166654 363.54,72.57 C363.5,72.9500019 363.49,73.3299981 363.51,73.71 C363.53,74.0900019 363.589999,74.4299985 363.69,74.73 C363.790001,75.0300015 363.959999,75.18 364.2,75.18 L374.16,75.18 C374.320001,75.18 374.479999,75.2199996 374.64,75.3 C374.359999,75.5800014 373.690005,75.7599996 372.63,75.84 C371.569995,75.9200004 370.410006,75.96 369.15,75.96 C368.204995,75.96 367.288126,75.9656249 366.399377,75.976875 L365.52,75.99 C364.359994,76.0100001 363.540002,76.0999992 363.06,76.26 L362.1,76.74 C361.715998,76.932001 361.287201,77.1559993 360.813601,77.4119995 L360.45,77.61 C359.984998,77.8650013 359.508751,78.1368745 359.021251,78.4256244 L358.53,78.72 C358.001997,79.0400016 357.506001,79.3471995 357.042001,79.6415995 L356.7,79.86 C356.233331,80.1600015 355.836112,80.4322218 355.508334,80.6766663 L355.32,80.82 C354.959998,81.1000014 354.78,81.2999994 354.78,81.42 L354.78,89.16 C354.82,89.2800006 354.87,89.4099993 354.93,89.55 C354.99,89.6900007 355.119999,89.76 355.32,89.76 C355.800002,89.76 356.299997,89.7200004 356.82,89.64 L357.833333,89.4800001 C357.997777,89.4533335 358.16,89.4266668 358.32,89.4 C359.440006,89.2799994 360.539995,89.1700005 361.62,89.07 C362.700005,88.9699995 363.819994,88.92 364.98,88.92 L365.22,89.16 L364.98,89.46 Z M380.64,69.78 L381,69.9 L381.234,70.1231999 C381.362,70.2415996 381.522,70.3855991 381.714,70.555199 L383.600624,72.2006241 L383.600624,72.2006241 L384.09,72.63 C384.486002,72.9780017 384.860401,73.3116005 385.2132,73.6307998 L385.89,74.25 C386.430003,74.7500025 386.74,75.0599994 386.82,75.18 L386.64,75.54 C386.279998,75.6600006 385.590005,75.7499997 384.57,75.81 C383.549995,75.8700003 382.480006,75.8700003 381.36,75.81 C380.239994,75.7499997 379.250004,75.6400008 378.39,75.48 C377.529996,75.3199992 377.1,75.0800016 377.1,74.76 C377.1,74.6888885 377.218517,74.4676561 377.455555,74.0962969 L377.55,73.95 C377.775001,73.6049983 378.016875,73.2375007 378.275624,72.8475008 L378.54,72.45 C378.810001,72.044998 379.074375,71.6568753 379.333125,71.2856256 L380.098594,70.2074997 C380.174531,70.1025 380.235,70.0200003 380.28,69.96 L380.64,69.78 Z M332.64,75.66 L332.52,75.48 L333.63,75.45 C334.155003,75.4349999 334.786873,75.425625 335.525623,75.421875 L343.59,75.42 C344.264289,75.42 344.896124,75.4232653 345.48551,75.4297959 L346.74,75.45 C347.660005,75.4700001 348.299998,75.4999998 348.66,75.54 C348.58,75.66 348.370002,75.7299999 348.03,75.75 L347.5875,75.7725 C347.4625,75.7775 347.36,75.78 347.28,75.78 L346.66963,75.7859259 L346.66963,75.7859259 L342.81,75.87 L342.81,75.87 C341.789995,75.8900001 340.730006,75.9 339.63,75.9 L336.54,75.9 L335.748978,75.8951021 C335.116326,75.8869389 334.550003,75.8685716 334.05,75.84 L333.617406,75.8103703 C333.152467,75.7723457 332.826668,75.7222225 332.64,75.66 Z M370.02,83.64 L370.2,83.22 L370.769999,82.6350005 L370.769999,82.6350005 L371.52,81.84 C372.080003,81.239997 372.669997,80.6300031 373.29,80.01 C373.910003,79.3899969 374.509997,78.8300025 375.09,78.33 C375.670003,77.8299975 376.139998,77.5000008 376.5,77.34 L376.86,77.34 C377.140001,77.34 377.629997,77.4999984 378.33,77.82 C379.030004,78.1400016 379.739996,78.5199978 380.46,78.96 C381.180004,79.4000022 381.809997,79.8499977 382.35,80.31 C382.890003,80.7700023 383.16,81.1599984 383.16,81.48 C383.16,81.6400008 383.100001,81.7399998 382.98,81.78 L382.62,81.9 C380.57999,82.3800024 378.53001,82.819998 376.47,83.22 C374.40999,83.620002 372.34001,83.84 370.26,83.88 L370.02,83.64 Z M386.58,90.12 C386.820001,90.2800008 386.98,90.4199994 387.06,90.54 C387.06,90.5800002 387.02,90.6399996 386.94,90.72 L386.431851,91.1555567 C385.868393,91.6429643 385.40778,92.0577761 385.05,92.4 C384.589998,92.8400022 384.200002,93.2799978 383.88,93.72 C383.559998,94.1600022 383.240002,94.6499973 382.92,95.19 L382.694814,95.5781487 C382.418271,96.0638272 382.093335,96.6644409 381.72,97.38 C381.559999,97.6600014 381.380001,97.8 381.18,97.8 C380.219995,97.8 379.100006,97.4600034 377.82,96.78 C376.539994,96.0999966 375.220007,95.2100055 373.86,94.11 C372.499993,93.0099945 371.150007,91.760007 369.81,90.36 C368.469993,88.959993 367.280005,87.5500071 366.24,86.13 C365.199995,84.7099929 364.360003,83.3400066 363.72,82.02 C363.079997,80.6999934 362.76,79.5600048 362.76,78.6 C362.76,78.3199986 362.839999,78.18 363,78.18 C363.109091,78.18 363.375205,78.3866095 363.798347,78.7998341 L363.93,78.93 C364.430003,79.4300025 364.959997,79.9899969 365.52,80.61 C365.940002,81.0750023 366.343125,81.5343745 366.729374,81.9881242 L367.67405,83.1218191 C367.852562,83.3400005 367.974545,83.4927268 368.04,83.58 C368.76,84.7000056 369.899992,85.6299963 371.46,86.37 C373.020008,87.1100037 374.709991,87.7299975 376.53,88.23 C378.350009,88.7300025 380.169991,89.1199986 381.99,89.4 L385.112231,89.88595 C385.639833,89.9692557 386.129089,90.0472724 386.58,90.12 Z M445.08,49.8 C445.04,50.000001 444.920001,50.1499995 444.72,50.25 C444.519999,50.3500005 444.310001,50.4599994 444.09,50.58 C443.869999,50.7000006 443.670001,50.8499991 443.49,51.03 C443.309999,51.2100009 443.22,51.4599984 443.22,51.78 L443.22,78.6 C443.22,79.0400022 442.890003,79.3999986 442.23,79.68 C441.569997,79.9600014 440.820004,80.1799992 439.98,80.34 C439.139996,80.5000008 438.310004,80.6099997 437.49,80.67 L436.625999,80.7276001 C436.253999,80.7492001 435.972001,80.76 435.78,80.76 C435.379998,80.76 435.18,80.560002 435.18,80.16 L435.18,49.98 C435.18,49.579998 434.980002,49.38 434.58,49.38 L424.08,49.38 C423.679998,49.38 423.48,49.579998 423.48,49.98 C423.48,53.0840155 423.4992,56.1559941 423.5376,59.1959946 L423.57,61.47 C423.63,65.2500189 423.66,69.0799806 423.66,72.96 C423.66,75.1040107 423.628,77.2351958 423.564,79.3535962 L423.51,80.94 C423.41,83.5800132 423.36,86.2399866 423.36,88.92 C423.36,89.3360021 423.3728,89.8031987 423.3984,90.3215989 L423.42,90.72 C423.46,91.4000034 423.49,92.0899965 423.51,92.79 C423.53,93.4900035 423.52,94.1599968 423.48,94.8 C423.44,95.4400032 423.340001,95.9999976 423.18,96.48 C423.059999,96.880002 422.780002,97.1999988 422.34,97.44 C421.899998,97.6800012 421.410003,97.8599994 420.87,97.98 C420.329997,98.1000006 419.780003,98.1799998 419.22,98.22 L418.693332,98.2533334 C418.364444,98.2711112 418.080001,98.28 417.84,98.28 C417.079996,98.28 416.530002,98.2300005 416.19,98.13 C415.849998,98.0299995 415.63,97.8500013 415.53,97.59 C415.446666,97.3733323 415.411944,97.1011122 415.425833,96.773334 L415.44,96.57 C415.48,96.1499979 415.5,95.640003 415.5,95.04 C415.5,91.8719842 415.468,88.7296061 415.404,85.6128055 L415.35,83.28 C415.25,79.3999806 415.2,75.4800198 415.2,71.52 C415.2,68.6079854 415.2128,65.7280055 415.2384,62.880005 L415.26,60.75 C415.3,57.2099823 415.32,53.6200182 415.32,49.98 C415.32,49.579998 415.120002,49.38 414.72,49.38 L404.58,49.38 C404.179998,49.38 403.98,49.579998 403.98,49.98 L403.98,75.18 C403.98,75.580002 404.179998,75.78 404.58,75.78 L413.7,75.78 C413.900001,75.78 414,75.879999 414,76.08 C414,76.280001 413.900001,76.38 413.7,76.38 L404.82,76.38 C404.619999,76.38 404.450001,76.5599982 404.31,76.92 L403.83,78.15 L403.83,78.15 C403.649999,78.6100023 403.450001,79.0699977 403.23,79.53 C403.009999,79.9900023 402.740002,80.34 402.42,80.58 L402.27,80.6592001 C402.03,80.7744 401.630003,80.927999 401.07,81.12 C400.369997,81.3600012 399.650004,81.5499993 398.91,81.69 C398.169996,81.8300007 397.5,81.9 396.9,81.9 C396.299997,81.9 396,81.7400016 396,81.42 L396,45.54 C396,45.4599996 396.03,45.3600006 396.09,45.24 C396.15,45.1199994 396.22,45.06 396.3,45.06 C396.588001,45.06 397.046097,45.1895987 397.674299,45.4487996 L397.89,45.54 C398.630004,45.8600016 399.419996,46.219998 400.26,46.62 C401.100004,47.020002 401.919996,47.3799984 402.72,47.7 C403.520004,48.0200016 404.139998,48.18 404.58,48.18 L434.16,48.18 C434.360001,48.18 434.619998,48.0100017 434.94,47.67 C435.196001,47.3979986 435.464799,47.0940009 435.746399,46.7580007 L435.96,46.5 C436.320002,46.0599978 436.679998,45.6300021 437.04,45.21 C437.400002,44.7899979 437.719999,44.5000008 438,44.34 C438.200001,44.4200004 438.659996,44.7099975 439.38,45.21 C440.100004,45.7100025 440.869996,46.2699969 441.69,46.89 C442.510004,47.5100031 443.259997,48.1099971 443.94,48.69 L444.255001,48.962501 C444.738336,49.3875018 445.013333,49.666666 445.08,49.8 Z M406.14,62.58 C405.859999,62.58 405.620001,62.480001 405.42,62.28 C405.487693,62.2461537 405.834612,62.2194675 406.460768,62.1999408 L406.83,62.19 C407.346003,62.1779999 407.8908,62.1696 408.464399,62.1648 L409.65,62.16 C410.500004,62.16 411.287498,62.1669444 412.012499,62.1808333 L412.799291,62.1999408 C413.40592,62.2194675 413.726154,62.2461537 413.76,62.28 L413.1,62.58 L406.14,62.58 Z M425.7,62.58 L425.04,62.28 C425.073846,62.2461537 425.408402,62.2194675 426.043669,62.1999408 L426.42,62.19 C427.153337,62.1733332 427.949164,62.1636111 428.807498,62.1608333 L429.33,62.16 C429.966003,62.16 430.573201,62.1636 431.1516,62.1708 L432.27,62.19 C433.170005,62.2100001 433.66,62.2399998 433.74,62.28 L433.08,62.58 L425.7,62.58 Z M424.8,75.96 L425.04,75.78 L432.889168,75.7816667 C433.469725,75.7872222 433.793333,75.8066665 433.86,75.84 C433.78,76.0800012 433.600001,76.2 433.32,76.2 L425.04,76.2 L424.8,75.96 Z M489.9,90.3 C489.9,90.2199996 489.999999,90.18 490.2,90.18 L490.528125,90.185625 C490.884375,90.1968749 491.324997,90.2249998 491.85,90.27 C492.550004,90.3300003 493.279996,90.3500001 494.04,90.33 C494.800004,90.3099999 495.499997,90.2400006 496.14,90.12 C496.780003,89.9999994 497.239999,89.7800016 497.52,89.46 C497.632001,89.3479994 497.717866,88.8004492 497.7776,87.8173343 L497.79,87.6 C497.85,86.4799944 497.9,85.0400088 497.94,83.28 L497.987407,80.7911148 C498.004691,79.6948203 498.018889,78.5244507 498.03,77.28 L498.0492,74.5583986 C498.0564,73.1808017 498.06,71.7780071 498.06,70.35 L498.058125,61.5037464 C498.055625,60.3687469 498.050625,59.2787517 498.043125,58.2337526 L498.0048,53.4024002 C498.0016,52.7368019 498,52.1160029 498,51.54 L498,48.48 C498,48.2399988 497.920001,48.0600006 497.76,47.94 C497.639999,47.8999998 497.100005,47.8600002 496.14,47.82 C495.339996,47.7866665 494.477503,47.7672222 493.552502,47.7616667 L492.99,47.76 C492.039995,47.76 491.152502,47.7738888 490.327501,47.8016666 L489.242483,47.8476924 C488.653133,47.8784616 488.312308,47.9092306 488.22,47.94 C488.059999,48.0600006 487.98,48.2399988 487.98,48.48 C487.98,49.8300067 487.996875,51.1743734 488.030625,52.5131225 L488.07,53.85 C488.13,55.6300089 488.16,57.419991 488.16,59.22 C488.16,62.1400146 488.070001,65.1899841 487.89,68.37 C487.709999,71.5500159 487.270004,74.6599848 486.57,77.7 C485.869996,80.7400152 484.810007,83.6199864 483.39,86.34 C481.969993,89.0600136 480.040012,91.41999 477.6,93.42 L477.1725,93.7279687 C476.897501,93.9201557 476.560002,94.1474987 476.16,94.41 C475.519997,94.8300021 474.840004,95.2299981 474.12,95.61 C473.399996,95.9900019 472.700003,96.3199986 472.02,96.6 C471.339997,96.8800014 470.800002,97.02 470.4,97.02 C470.039998,97.02 469.939999,96.8600016 470.1,96.54 L470.227347,96.2951013 C470.325306,96.1155094 470.402857,95.9971429 470.46,95.94 L471.513333,94.5666675 L471.513333,94.5666675 L473.64,91.8 L473.64,91.8 C475.72001,88.7599848 477.369994,85.6600158 478.59,82.5 C479.810006,79.3399842 480.42,75.9000186 480.42,72.18 L480.42,44.34 C480.42,43.939998 480.619998,43.74 481.02,43.74 C482.060005,43.74 483.069995,43.9199982 484.05,44.28 C484.785004,44.5500013 485.514374,44.8368745 486.238124,45.1406244 L486.96,45.45 C487.920005,45.8700021 488.889995,46.2499983 489.87,46.59 C490.850005,46.9300017 491.859995,47.1 492.9,47.1 C493.580003,47.1 494.229997,47.0900001 494.85,47.07 C495.470003,47.0499999 496.119997,47.02 496.8,46.98 C497.080001,46.8199992 497.399998,46.5300021 497.76,46.11 L498.3,45.4725 L498.3,45.4725 L498.84,44.82 C499.200002,44.3799978 499.539998,43.9800018 499.86,43.62 C500.180002,43.2599982 500.439999,43.0600002 500.64,43.02 C500.68,43.02 500.72,43.0399998 500.76,43.08 C501.000001,43.2000006 501.439997,43.4899977 502.08,43.95 C502.720003,44.4100023 503.389996,44.9199972 504.09,45.48 C504.650003,45.9280022 505.177999,46.3631992 505.673999,46.7855993 L506.343472,47.365786 C506.762977,47.7376875 507.021818,47.9890903 507.12,48.12 L507.165,48.2175001 C507.17,48.2300001 507.17375,48.240625 507.17625,48.249375 L507.18,48.27 C507.18,48.2900001 507.2,48.3399996 507.24,48.42 L507,48.66 C506.639998,48.7400004 506.250002,48.9099987 505.83,49.17 C505.409998,49.4300013 505.2,49.7799978 505.2,50.22 L505.2,91.02 C505.2,92.1000054 505.020002,93.02 504.66,93.78 C504.299998,94.5400038 503.810003,95.1899973 503.19,95.73 C502.569997,96.2700027 501.850004,96.7199982 501.03,97.08 C500.209996,97.4400018 499.360004,97.7399988 498.48,97.98 C498.079998,98.1000006 497.670002,98.2199994 497.25,98.34 C496.829998,98.4600006 496.400002,98.52 495.96,98.52 C495.759999,98.52 495.580001,98.3900013 495.42,98.13 C495.259999,97.8699987 495.110001,97.5700017 494.97,97.23 C494.829999,96.8899983 494.71,96.5600016 494.61,96.24 L494.5044,95.8943995 C494.4588,95.7407998 494.424,95.6160005 494.4,95.52 C494.159999,94.8399966 493.890001,94.2600024 493.59,93.78 C493.289999,93.2999976 492.960002,92.8700019 492.6,92.49 C492.239998,92.1099981 491.840002,91.7500017 491.4,91.41 L490.8432,90.9875998 C490.550401,90.7692003 490.236002,90.5400012 489.9,90.3 Z M477.06,49.38 C477.02,49.580001 476.900001,49.7399994 476.7,49.86 C476.499999,49.9800006 476.290001,50.0999994 476.07,50.22 C475.849999,50.3400006 475.650001,50.4899991 475.47,50.67 C475.289999,50.8500009 475.2,51.0999984 475.2,51.42 L475.2,81 C475.2,81.5600028 474.930003,81.9999984 474.39,82.32 C473.849997,82.6400016 473.220004,82.8899991 472.5,83.07 C471.779996,83.2500009 471.050004,83.3699997 470.31,83.43 L469.786874,83.4693751 C469.295624,83.5031252 468.900002,83.52 468.6,83.52 C468.199998,83.52 468,83.320002 468,82.92 L468,49.62 C468,49.219998 467.800002,49.02 467.4,49.02 L464.43,49.02 C464.057998,49.02 463.707599,49.0236 463.3788,49.0308 L462.75,49.05 C462.249998,49.0700001 461.940001,49.0999998 461.82,49.14 C461.659999,49.2600006 461.58,49.4399988 461.58,49.68 L461.602969,53.0760911 L461.602969,53.0760911 L461.64,56.969999 L461.64,56.969999 L461.67,60.57 C461.687143,62.7471537 461.696939,65.0124419 461.699388,67.3659147 L461.697037,70.3737079 C461.690124,72.4667944 461.671111,74.4388796 461.64,76.29 L461.60625,78.0056289 C461.56875,79.6518786 461.52,81.0899938 461.46,82.32 L461.430104,82.8705904 C461.351211,84.1764767 461.241177,84.9529399 461.1,85.2 C460.859999,85.600002 460.490003,85.9199988 459.99,86.16 C459.489998,86.4 458.940003,86.5799994 458.34,86.7 C457.739997,86.8200006 457.140003,86.9 456.54,86.94 L455.973332,86.9733334 C455.617777,86.9911112 455.306668,87 455.04,87 C454.88,87 454.730001,86.9800002 454.59,86.94 C454.449999,86.9 454.38,86.780001 454.38,86.58 L454.38,45.96 C454.38,45.8399994 454.42,45.7000008 454.5,45.54 C454.58,45.3799992 454.699999,45.3 454.86,45.3 C454.917143,45.3 455.03551,45.3306119 455.215101,45.3918365 L456.51,45.87 L456.51,45.87 C456.763335,45.9633338 457.012222,46.0611111 457.256666,46.1633331 L458.119592,46.5355104 C458.183265,46.5616327 458.237143,46.5828571 458.281224,46.5991837 L458.34,46.62 C459.780007,47.1800028 461.159993,47.6299983 462.48,47.97 C463.800007,48.3100017 465.239992,48.380001 466.8,48.18 L467.58,47.37 C467.846668,47.0899986 468.122222,46.8055556 468.406666,46.5166672 L468.84,46.08 C469.192002,45.7279982 469.524799,45.4080004 469.838399,45.1200004 L470.07,44.91 C470.450002,44.5699983 470.699999,44.4 470.82,44.4 C471.020001,44.4 471.439997,44.6199978 472.08,45.06 C472.720003,45.5000022 473.38,46.0099971 474.06,46.59 C474.740003,47.1700029 475.38,47.7299973 475.98,48.27 L476.283472,48.5476869 C476.702977,48.9389271 476.961818,49.2163628 477.06,49.38 Z M490.14,61.38 C489.859999,61.38 489.620001,61.280001 489.42,61.08 C489.453333,61.0466665 489.72972,61.0202778 490.249165,61.0008334 L490.59,60.99 C491.330004,60.9699999 492.139996,60.96 493.02,60.96 L494.037601,60.9648 C494.200801,60.9664 494.3608,60.9684 494.5176,60.9708 L495.751668,61.0008334 C496.257225,61.0202778 496.526666,61.0466665 496.56,61.08 L495.9,61.38 L490.14,61.38 Z M463.44,63 L466.14,63 L466.56,63.18 L466.68,63.36 C466.6,63.4000002 466.380002,63.4299999 466.02,63.45 C465.659998,63.4700001 465.250002,63.48 464.79,63.48 C464.444998,63.48 464.1225,63.4743751 463.8225,63.463125 L463.53,63.45 C463.149998,63.4299999 462.94,63.4000002 462.9,63.36 L463.02,63.18 L463.44,63 Z M488.82,74.76 L489.06,74.58 L489.581481,74.5740741 L489.581481,74.5740741 L490.65,74.55 C491.235003,74.5349999 491.842499,74.525625 492.472499,74.521875 L493.11,74.52 C493.626003,74.52 494.113201,74.5236 494.5716,74.5308 L495.45,74.55 C496.150004,74.5700001 496.559999,74.5999998 496.68,74.64 L496.56,74.82 L496.14,75 L489.06,75 L488.82,74.76 Z M462.96,77.82 L466.62,77.82 L466.8,78 L466.62,78.18 L462.96,78.18 L462.78,78 L462.96,77.82 Z M539.923958,59.3154166 L539.94,59.34 C539.98,59.3800002 540,59.4799992 540,59.64 C540,59.840001 539.930001,59.9799996 539.79,60.06 C539.696666,60.1133336 539.594445,60.1666667 539.483334,60.2199999 L539.31,60.3 C539.129999,60.3800004 538.970001,60.4599996 538.83,60.54 C538.689999,60.6200004 538.62,60.759999 538.62,60.96 L538.62,75.9 C538.62,76.1400012 538.480001,76.359999 538.2,76.56 C538.013332,76.693334 537.817778,76.8266667 537.613334,76.9599998 L537.3,77.16 C536.979998,77.360001 536.680001,77.5699989 536.4,77.79 C536.119999,78.0100011 535.98,78.2399988 535.98,78.48 C535.98,78.9200022 536.219998,79.3999974 536.7,79.92 C537.180002,80.4400026 537.699997,80.9399976 538.26,81.42 L539.07,82.1175001 C539.329999,82.3424995 539.579999,82.5599989 539.82,82.77 C540.300002,83.1900021 540.54,83.5399986 540.54,83.82 C540.54,84.1400016 540.380002,84.3499995 540.06,84.45 C539.739998,84.5500005 539.460001,84.6 539.22,84.6 L530.4,84.6 C529.999998,84.6 529.8,84.799998 529.8,85.2 L529.8,96.18 C529.8,96.6200022 529.510003,96.9699987 528.93,97.23 C528.349997,97.4900013 527.670004,97.6999992 526.89,97.86 C526.109996,98.0200008 525.350004,98.1299997 524.61,98.19 L523.939999,98.2400001 C523.539999,98.2666668 523.233334,98.28 523.02,98.28 C522.899999,98.28 522.770001,98.2400004 522.63,98.16 C522.489999,98.0799996 522.42,97.9600008 522.42,97.8 L522.420992,85.1385122 C522.423967,84.8231408 522.433636,84.3136399 522.45,83.61 C522.47,82.7499957 522.46,81.8700045 522.42,80.97 C522.38,80.0699955 522.290001,79.2700035 522.15,78.57 C522.009999,77.8699965 521.780002,77.52 521.46,77.52 C520.659996,77.9600022 519.710005,78.3899979 518.61,78.81 C517.509994,79.2300021 516.500005,79.44 515.58,79.44 C515.339999,79.44 515.080001,79.4200002 514.8,79.38 C514.52,79.3399998 514.38,79.1400018 514.38,78.78 C514.38,75.7079846 514.3416,72.6616059 514.2648,69.6408054 L514.2,67.38 C514.079999,63.6199812 514.02,59.8200192 514.02,55.98 C514.02,55.8999996 514.05,55.7900007 514.11,55.65 C514.17,55.5099993 514.259999,55.44 514.38,55.44 C514.620001,55.44 515.109996,55.5799986 515.85,55.86 C516.590004,56.1400014 517.359996,56.479998 518.16,56.88 C518.82667,57.213335 519.430832,57.5397215 519.972499,57.8591661 L520.29,58.05 C520.910003,58.4300019 521.22,58.6999992 521.22,58.86 L521.22,75.18 C521.22,75.580002 521.419998,75.78 521.82,75.78 L530.58,75.78 C530.980002,75.78 531.18,75.580002 531.18,75.18 L531.18,60.06 C531.18,59.8999992 531.060001,59.68 530.82,59.4 C530.579999,59.1199986 530.360001,58.98 530.16,58.98 L523.02,58.98 C522.619998,58.98 522.42,58.780002 522.42,58.38 L522.42,42.78 C522.42,42.379998 522.619998,42.18 523.02,42.18 C523.500002,42.18 524.069997,42.1899999 524.73,42.21 C525.390003,42.2300001 526.069997,42.2699997 526.77,42.33 C527.470003,42.3900003 528.139997,42.4599996 528.78,42.54 C529.420003,42.6200004 529.979998,42.7199994 530.46,42.84 C530.580001,42.8800002 530.709999,42.9199998 530.85,42.96 C530.990001,43.0000002 531.06,43.0999992 531.06,43.26 C531.06,43.5050012 530.922189,43.7346869 530.646563,43.9490622 L530.52,44.04 C530.159998,44.2800012 529.98,44.5399986 529.98,44.82 L529.98,57 C529.98,57.1200006 530.01,57.2399994 530.07,57.36 C530.13,57.4800006 530.239999,57.54 530.4,57.54 C531.080003,57.54 531.669998,57.2000034 532.17,56.52 L533.301428,54.9918373 C533.355714,54.9191842 533.408571,54.8485718 533.46,54.78 L533.82,54.6 C533.893334,54.5633332 534.193539,54.7367341 534.720624,55.1202078 L534.87,55.23 C535.490003,55.6900023 536.169996,56.2099971 536.91,56.79 L537.769201,57.4716005 C538.046,57.694 538.313199,57.9115993 538.570799,58.1243993 L539.235834,58.6816675 C539.628335,59.0166683 539.857709,59.2279167 539.923958,59.3154166 L539.923958,59.3154166 Z M557.82,48.42 L557.76,48.36 L557.34,48.18 L550.62,48.18 C550.219998,48.18 550.02,48.38 550.02,48.78 L550.02,59.64 C550.02,59.7600006 550.079999,59.9299989 550.2,60.15 C550.320001,60.3700011 550.38,60.5999988 550.38,60.84 C550.38,61.0800012 550.320001,61.299999 550.2,61.5 C550.079999,61.700001 550.02,61.88 550.02,62.04 L550.02,74.22 C550.02,76.5000114 549.670004,78.7799886 548.97,81.06 C548.269997,83.3400114 547.300006,85.4999898 546.06,87.54 C544.819994,89.5800102 543.350009,91.4399916 541.65,93.12 C539.949992,94.8000084 538.10001,96.1599948 536.1,97.2 C536.02,97.2400002 535.930001,97.2799998 535.83,97.32 C535.73,97.3600002 535.64,97.38 535.56,97.38 C535.319999,97.38 535.2,97.2600012 535.2,97.02 C535.2,96.6466648 535.478753,95.9423159 536.036266,94.9069343 L536.16,94.68 C536.617145,93.8514244 537.115101,92.9769398 537.653876,92.0565325 L538.32,90.93 C539.120004,89.5899933 539.879996,88.2600066 540.6,86.94 C541.320004,85.6199934 541.779999,84.5800038 541.98,83.82 C542.180001,82.8999954 542.3,81.9900045 542.34,81.09 L542.46,78.36 L542.46,78.36 C542.54,76.9199928 542.629999,75.4700073 542.73,74.01 C542.83,72.5499927 542.88,71.1000072 542.88,69.66 C542.88,66.5399844 542.9025,63.4256288 542.9475,60.3168808 L543,57.21 C543.08,53.0699793 543.12,48.9200208 543.12,44.76 C543.12,44.359998 543.319998,44.16 543.72,44.16 C544.600004,44.16 545.469996,44.3099985 546.33,44.61 C546.975003,44.8350011 547.631249,45.0768746 548.298749,45.3356245 L548.97,45.6 C549.870005,45.9600018 550.779995,46.2899985 551.7,46.59 C552.620005,46.8900015 553.579995,47.04 554.58,47.04 L555.9,47.04 C556.340002,47.04 556.779998,47.0200002 557.22,46.98 C557.580002,46.7399988 557.879999,46.420002 558.12,46.02 C558.360001,45.619998 558.599999,45.2300019 558.84,44.85 C559.080001,44.4699981 559.349998,44.1300015 559.65,43.83 C559.950001,43.5299985 560.339998,43.38 560.82,43.38 C561.180002,43.38 561.7,43.579998 562.38,43.98 C563.060003,44.38 563.739997,44.8599972 564.42,45.42 C565.100003,45.9800028 565.689998,46.5499971 566.19,47.13 C566.690002,47.7100029 566.94,48.1799982 566.94,48.54 C566.94,48.740001 566.860001,48.9199992 566.7,49.08 C566.593333,49.1866672 566.477778,49.2888889 566.353334,49.3866665 L566.16,49.53 C565.959999,49.6700007 565.780001,49.8199992 565.62,49.98 C565.459999,50.1400008 565.38,50.2999992 565.38,50.46 L565.38,92.58 C565.38,93.5400048 565.070003,94.38 564.45,95.1 C563.829997,95.8200036 563.060005,96.4099977 562.14,96.87 C561.219995,97.3300023 560.250005,97.6699989 559.23,97.89 C558.209995,98.1100011 557.320004,98.22 556.56,98.22 C556.359999,98.22 556.180001,98.1000012 556.02,97.86 C555.859999,97.6199988 555.720001,97.3400016 555.6,97.02 C555.52,96.8066656 555.448889,96.5933326 555.386667,96.38 L555.3,96.06 C555.22,95.7399984 555.14,95.5000008 555.06,95.34 C554.939999,95.0999988 554.710002,94.7500023 554.37,94.29 L552.5328,91.8240005 L552.5328,91.8240005 L552.36,91.59 C552.079999,91.2099981 551.94,90.9600006 551.94,90.84 C551.94,90.5199984 552.209997,90.3500001 552.75,90.33 L553.4268,90.3108 C553.779599,90.3036 554.153998,90.3 554.55,90.3 C555.210003,90.3 555.839997,90.2300007 556.44,90.09 C557.040003,89.9499993 557.419999,89.580003 557.58,88.98 C557.740001,88.2999966 557.86,87.2900067 557.94,85.95 C558.02,84.6099933 558.07,83.2000074 558.09,81.72 C558.105,80.6099944 558.10875,79.5225012 558.10125,78.4575019 L558.0627,74.8715987 L558.0627,74.8715987 L558.06,74.04 C558.06,70.8599841 558.054375,67.7025037 558.043125,64.5675058 L558.03,61.44 C558.01,57.2799792 558,53.0800212 558,48.84 L557.82,48.42 Z M531.48,51.42 C531.079998,51.42 530.88,51.2600016 530.88,50.94 C530.88,50.7799992 531.049998,50.4200028 531.39,49.86 C531.730002,49.2999972 532.109998,48.7100031 532.53,48.09 C532.866002,47.5939975 533.195599,47.1364006 533.518799,46.7172007 L533.76,46.41 C534.160002,45.9099975 534.4,45.66 534.48,45.66 C534.52,45.66 534.859997,45.9099975 535.5,46.41 C536.012003,46.810002 536.555999,47.2547988 537.131999,47.744399 L538.8372,49.2179998 L538.8372,49.2179998 L540.020626,50.2518761 C540.376877,50.5706264 540.57,50.7599997 540.6,50.82 C540.760001,51.220002 540.600002,51.42 540.12,51.42 L531.48,51.42 Z M512.22,51 L520.56,51 L520.98,51.18 L521.1,51.36 L521.01,51.3791667 C520.810001,51.4097223 520.360003,51.4333333 519.66,51.45 L518.6184,51.4692 C518.080801,51.4764 517.518003,51.48 516.93,51.48 C516.194996,51.48 515.476876,51.4743751 514.775626,51.463125 L512.688099,51.4239669 C512.492397,51.4213223 512.336364,51.42 512.22,51.42 L511.98,51.18 L512.22,51 Z M551.82,60.6 L556.14,60.6 L556.56,60.78 L556.68,60.96 C556.6,61.0000002 556.330002,61.0299999 555.87,61.05 C555.409998,61.0700001 554.910003,61.08 554.37,61.08 C554.009998,61.08 553.658889,61.0755556 553.316667,61.0666667 L551.971875,61.021875 C551.910625,61.020625 551.86,61.02 551.82,61.02 L551.58,60.78 L551.82,60.6 Z M523.02,67.02 L529.08,67.02 L529.74,67.32 C529.619999,67.3600002 529.240003,67.3899999 528.6,67.41 L527.7936,67.4292 C527.371201,67.4364 526.920002,67.44 526.44,67.44 C525.839997,67.44 525.256876,67.4343751 524.690626,67.423125 L522.749259,67.3803704 C522.71642,67.3801235 522.686667,67.38 522.66,67.38 L522.54,67.26 L522.6,67.2 L523.02,67.02 Z M551.46,73.8 L556.2,73.8 L556.38,73.98 L556.2,74.22 L551.46,74.22 L551.22,73.98 L551.46,73.8 Z M529.98,81.06 C529.98,81.3800016 529.97,81.7099983 529.95,82.05 C529.93,82.3900017 529.95,82.6999986 530.01,82.98 C530.07,83.2600014 530.209999,83.4799992 530.43,83.64 C530.650001,83.8000008 530.999998,83.88 531.48,83.88 C531.880002,83.88 532.299998,83.680002 532.74,83.28 C533.180002,82.879998 533.579998,82.3900029 533.94,81.81 C534.300002,81.2299971 534.599999,80.640003 534.84,80.04 C535.080001,79.439997 535.2,78.9600018 535.2,78.6 C535.2,78.3599988 535.040002,78.24 534.72,78.24 C534.559999,78.24 534.404444,78.2444444 534.253334,78.2533333 L534.03,78.27 C533.809999,78.2900001 533.580001,78.3 533.34,78.3 C533.009998,78.3 532.696875,78.2775002 532.400625,78.2325002 L532.11,78.18 C531.729998,78.0999996 531.320002,78.06 530.88,78.06 C530.599999,78.06 530.400001,78.1799988 530.28,78.42 C530.159999,78.6600012 530.08,78.9499983 530.04,79.29 C530,79.6300017 529.98,79.9699983 529.98,80.31 L529.98,81.06 Z M511.98,84.36 L512.22,84.18 L513.011404,84.1710744 L513.011404,84.1710744 L514.08,84.15 C514.770003,84.1349999 515.476874,84.125625 516.200624,84.121875 L516.93,84.12 C517.518003,84.12 518.080801,84.1236 518.6184,84.1308 L520.050001,84.1608334 C520.650003,84.1802778 521,84.2066665 521.1,84.24 L520.98,84.42 L520.56,84.6 L512.22,84.6 L511.98,84.36 Z" id="装甲明朝" fill="#000000" fill-rule="nonzero"></path>
    </g>
</svg>