<svg xmlns="http://www.w3.org/2000/svg" width="900" height="140" viewBox="0 0 900 140">
  <defs>
    <style>
      .cls-1 {
        fill-rule: evenodd;
      }
    </style>
  </defs>
  <path id="卓健橄榄简体" class="cls-1" d="M291.023,85.347H262V77.622h16.725a6.822,6.822,0,0,0,5.063-2.1,7.1,7.1,0,0,0,2.062-5.175V48.672H252.023V44.247h35.625V40.422H252.023v-3h-7.35v11.25h-12.75V73.8H239.2V64.5h39.45v5.7a3.508,3.508,0,0,1-1.05,2.513,3.411,3.411,0,0,1-2.55,1.087H239.2v3.825h15.525v7.725h-28.95v3.825h28.95V101.7H262V89.172h29.025V85.347ZM239.2,60.672v-8.25h39.45v8.25H239.2Zm106.275,33.75H352.6V87.747h10.125V83.7H352.6v-5.55h10.125V74.022H352.6V67.5h7.35a3.477,3.477,0,0,0,2.587-1.125,3.751,3.751,0,0,0,1.088-2.7v-7.5h3.525V51.6h-3.525V40.947H352.6V37.422h-7.125v3.525h-8.1v3.9h8.1V51.6h-8.1v4.575h8.1v7.5h-8.1V67.5h8.1v6.525h-8.1v4.125h8.1V83.7h-8.1v4.05h8.1v6.675ZM320.8,37.572h-8.4a42.253,42.253,0,0,1-5.213,8.925,69.17,69.17,0,0,1-6.037,7.05l6.075,3.525,1.275-1.05v45.15h7.275V47.4a56.036,56.036,0,0,0,3.562-6.45,30.466,30.466,0,0,0,1.463-3.375h0Zm24.15,58.8q-10.726-1.2-16.275-9.45l6.675-23.1a2.5,2.5,0,0,0,.15-0.75,2.257,2.257,0,0,0-.75-1.687,2.437,2.437,0,0,0-1.725-.712h-4.2l4.95-17.1a2.309,2.309,0,0,0,.075-0.675,2.809,2.809,0,0,0-.75-1.95,2.431,2.431,0,0,0-1.875-.825H320.8v3.825h5.775l-6,20.475h7.65L324.548,77.1a64.792,64.792,0,0,1-1.425-7.95h-6.675a51.929,51.929,0,0,0,5.1,18.3L319,96.222l5.925,3.675,1.575-5.55q6.525,6.374,16.5,6.375h24.45v-4.35h-22.5Zm7.65-51.525h3.975V51.6H352.6v-6.75Zm0,11.325h3.975v6.45a0.961,0.961,0,0,1-.338.75,1.059,1.059,0,0,1-.712.3H352.6v-7.5ZM443.872,41.4h-11.25a29.958,29.958,0,0,0,1.125-4.425H427.3a16.044,16.044,0,0,1-.45,2.513,26.049,26.049,0,0,1-1.875,5.025A30.661,30.661,0,0,1,421,50.7V50.4h-3.225V39.6H399.7v3.825h10.725V50.4H397.147v3.75h2.55V69.3a81.506,81.506,0,0,1-2.663-10.462q-0.862-4.838-.862-5.663H393.1v-4.8h7.125V44.547H393.1V36.972h-6.3v7.575h-7.2v3.825h7.2V51h-4.125a132.7,132.7,0,0,1-1.763,15.563q-1.388,8.139-2.925,14.85t-1.537,6.337l4.725,3.15q3.3-8.474,5.625-24.825v35.1h6.3V68.247q0.749,3,1.537,5.4t1.238,3.563q0.45,1.164.6,1.462l3.225-2.25v11.25q-1.952.151-3.113,0.188t-1.462.038v4.275q0.6,0,3-.037t6.187-.263q3.787-.225,7.763-0.825v9.9h7.275V89.7q1.8-.374,3.075-0.75V84.522l-3.075.9V54.147H421V53.4l3,1.875,0.525-.45a100.445,100.445,0,0,0,.937,12.713A78.843,78.843,0,0,0,429.1,82.722a83.4,83.4,0,0,1-3.525,7.912q-1.8,3.488-3,5.362T421,98.322l4.725,2.85a39.242,39.242,0,0,0,6.9-9.75,70.561,70.561,0,0,0,5.55,9.75l5.625-3.525a57.044,57.044,0,0,1-7.95-13.875,94.319,94.319,0,0,0,4.725-20.738,165.022,165.022,0,0,0,1.2-17.812h2.1V41.4ZM432.4,72.522A76.159,76.159,0,0,1,430.6,56.1q0-1.649.075-2.663c0.049-.675.075-1.087,0.075-1.237h-3.975a52.232,52.232,0,0,0,4.275-6.975h4.2q0.148,3,.15,4.5a89.888,89.888,0,0,1-3,22.8h0Zm-20.325-11.1h-5.1V54.147h5.1v7.275Zm0,11.55h-5.1v-7.8h5.1v7.8Zm-5.1,14.325V76.8h5.1v9.975q-3.226.3-5.1,0.525h0ZM497.5,37.422h-7.275V60.3H497.5V37.422Zm12,5.25q0.15-1.874.15-5.25h-7.875a65.664,65.664,0,0,1-.638,11.1,23.217,23.217,0,0,1-3.187,8.325l5.625,3.3q4.2-4.124,5.55-13.725h11.25v-3.75H509.5ZM475.6,79.2l5.925-3.525v8.85H488.8V65.772h21.525v18.75H517.6V61.947H481.521V75.522a68.468,68.468,0,0,1-3.713-9.862,78.061,78.061,0,0,1-1.95-8.138q-0.562-3.3-.562-3.825h-3.6V48.9h8.1V45.072h-8.1V37.5h-7.2v7.575h-8.1V48.9h8.1v2.625h-4.65a112.765,112.765,0,0,1-1.95,15.6q-1.575,8.176-3.338,14.888T452.8,88.347l5.4,3.075q4.123-9.225,6.3-24.825v35.175h7.2V68.847q0.825,3,1.687,5.325a37.329,37.329,0,0,0,1.463,3.525q0.6,1.2.75,1.5h0Zm13.05-40.5h-7.2V58.572h7.2V38.7Zm30.825,17.85a15.591,15.591,0,0,0-4.95-8.25h-0.075l-5.475,3.225a21.567,21.567,0,0,1,2.7,3.975,28.136,28.136,0,0,1,1.725,4.65ZM504.546,92.622v-14.7h-3.225a30.15,30.15,0,0,0,.712-4.5q0.112-1.8.113-2.85h-7.275q0.3,9.151-4.088,15.188a33.432,33.432,0,0,1-9.975,9.338q-5.587,3.3-5.587,2.7l5.7,3.45a28.71,28.71,0,0,0,16.35-12.9v4.275a6.97,6.97,0,0,0,2.137,5.175,7.072,7.072,0,0,0,5.138,2.1h15.6v-3.75H508a3.267,3.267,0,0,1-2.438-1.05,3.45,3.45,0,0,1-1.012-2.475h0Zm33-38.7a34.052,34.052,0,0,0,3.45-8.85h6.525V50.4h7.275V45.072h9.75V41.247h-22.8a21.312,21.312,0,0,0,.263-2.362q0.036-.937.037-1.237H534.77a22.659,22.659,0,0,1-.562,5.512,41.011,41.011,0,0,1-1.35,4.875q-0.714,1.988-.938,2.513ZM573.77,41.247q0.225-1.35.3-2.325c0.049-.649.075-1.075,0.075-1.275h-7.35a22.639,22.639,0,0,1-.525,5.325,41.6,41.6,0,0,1-1.312,4.913q-0.714,2.064-.938,2.663l5.625,3.375a33.617,33.617,0,0,0,3.375-8.85h6.45V50.4h7.35V45.072h9.825V41.247H573.77Zm20.475,15.6H560.5a10.431,10.431,0,0,1-4.725-1.125,12.2,12.2,0,0,1-3.9-3.075h-8.4l2.25,3.3A11.48,11.48,0,0,0,549.7,59.4a10.556,10.556,0,0,0,5.025,1.275h32.25v28.5q0,7.049-8.7,10.35l5.775,3.45a17.946,17.946,0,0,0,7.238-5.325q2.961-3.6,2.962-9.675V56.847ZM536.12,101.772H543.4v-41.1H536.12v41.1ZM579.545,87.3V65.847H550.52V90.672h7.35V81h14.4v6a3.561,3.561,0,0,1-1.05,2.625,3.47,3.47,0,0,1-2.55,1.05h-10.8V94.5h14.475a7.17,7.17,0,0,0,7.2-7.2h0ZM557.87,77.172v-7.5h14.4v7.5h-14.4Zm94.649-30.225h16.5V43.122h-16.5v-6h-7.275v6h-16.5v3.825h16.5v29.7h-7.35v3.825h7.35V102h7.275V80.472h7.425V76.647h-7.425v-29.7ZM628.144,37.5h-8.4a30.544,30.544,0,0,1-4.087,8.513,58.056,58.056,0,0,1-5.738,7.275q-2.925,3.113-2.925,2.888l5.775,3.45,2.625-2.25V101.7h7.275V48.672h-0.225a56.072,56.072,0,0,0,3-5.1q1.275-2.475,1.913-4.05t0.787-2.025h0Zm6.45,13.275a72.169,72.169,0,0,1-2.137,16.575,136.406,136.406,0,0,1-4.538,15.037q-2.475,6.637-2.475,6.112l6.075,3.675a99.706,99.706,0,0,0,6.263-17.512,152.544,152.544,0,0,0,3.337-15.975q0.975-6.787.975-7.912h-7.5Zm28.875,0h-7.5q0,0.976,1.163,7.8a158.074,158.074,0,0,0,3.75,16.013,107.48,107.48,0,0,0,6.637,17.587l6-3.675q0,0.526-2.625-5.737A115.5,115.5,0,0,1,666.019,68.1a76.682,76.682,0,0,1-2.55-17.325h0Z"/>
</svg>
