<svg xmlns="http://www.w3.org/2000/svg" width="1540" height="1450" viewBox="0 0 1540 1450">
  <defs>
    <style>
      .cls-1 {
        fill: #fff;
      }

      .cls-1, .cls-2, .cls-3 {
        fill-rule: evenodd;
      }

      .cls-2 {
        fill: #fefefe;
      }

      .cls-3 {
        fill: #fdfdfd;
      }
    </style>
  </defs>
  <path id="字体名称" class="cls-1" d="M89.93,196.539h63.086q4.688,0,4.687,4.688v40.039q0,4.688-4.687,4.687H97.742a14.167,14.167,0,0,0-6.25,2.344q-6.056,5.667-3.906,14.648,2.93,7.032,9.961,7.813h55.469q4.688,0,4.687,4.687v44.922q0,4.688-4.687,4.688H83.484q-7.228.389-10.156,8.984a12.344,12.344,0,0,0,.2,7.813q2.733,7.031,9.961,7.812H256.531q10.546-2.541,10.742-13.281-0.782-9.961-10.937-11.328H187.977q-4.687,0-4.688-4.883V275.445q0-4.687,4.883-4.687h53.32q5.274-.39,8.789-5.469,4.688-7.617-1.172-15.625a12.129,12.129,0,0,0-7.617-3.711H187.977q-4.687,0-4.688-4.883V201.227q0-4.687,4.883-4.688h61.133q6.834-.778,9.57-7.422a11.033,11.033,0,0,0,.977-7.812q-1.956-8.4-10.547-9.375H90.711q-10.547,1.954-10.937,12.3,0.389,9.961,10.156,12.3h0ZM348.914,173.1q-0.586,2.929-5.273,2.929H327.82q-6.252.783-7.812,6.641-0.783,4.884-5.274.781-9.181-7.809-16.6-11.133-9.183-3.9-14.453,5.664-3.713,7.425,3.32,14.063a121.408,121.408,0,0,1,22.07,18.164q10.548,8.788,18.555-1.172,3.516-6.445,1.172-10.742-1.954-2.929,2.93-2.93h12.109q4.688,0,4.687,4.688a30.386,30.386,0,0,0,.586,8.593q3.123,9.77,12.7,10.547h14.843q4.688,0,4.688,2.735t-4.688,2.734H340.516q-8.6,2.151-10.352,10.742v22.266q1.172,9.768,10.938,11.914h35.546q4.688,0,4.688,2.93,0,2.738-4.688,2.734H337q-6.446.587-8.2,8.008-0.98,9.572,8.594,11.328h38.281q4.688,0,4.687.781a16.529,16.529,0,0,1-.39,2.93q-0.587,1.954-5.274,1.953H331.727q-6.445.783-8.2,7.227a11.4,11.4,0,0,0,1.172,7.812A7.934,7.934,0,0,0,330.164,319l1.953,0.586h30.274q4.688,0-.2,3.125a65.88,65.88,0,0,1-6.836,3.32,144.462,144.462,0,0,1-31.25,8.008q-10.743,1.95-10.547,11.328-0.2,9.375,10.157,12.305a42.918,42.918,0,0,0,10.156-.977,141.309,141.309,0,0,0,31.25-9.179q11.719-4.687,23.437-16.8,4.1-4.687,8.594,0A74.009,74.009,0,0,0,416.1,345.172a104.644,104.644,0,0,0,31.25,10.742q9.96,2.344,15.625,0a10.877,10.877,0,0,0,6.25-10.937q-0.394-7.618-9.571-9.766a41.552,41.552,0,0,0-7.812-1.563A88.276,88.276,0,0,1,421.57,323.1q-5.08-3.516-.195-3.516h34.18a8.058,8.058,0,0,0,5.468-2.93q4.881-6.248.977-12.89a11.688,11.688,0,0,0-6.445-3.516H407.508q-4.687,0-4.688-2.93,0.587-2.733,5.274-2.734h40.429q7.81-2.344,8.2-8.4,0.585-8.79-8.008-10.938H408.484q-4.687,0-4.687-2.93,0-2.733,4.883-2.734h34.179a13.335,13.335,0,0,0,7.813-4.1,13.134,13.134,0,0,0,4.3-7.812V235.406q-1.566-8.981-11.328-10.742H408.484q-4.687,0-4.687-2.93,0-2.535,4.883-2.539h12.89q8.2-.388,12.7-8.2a23.567,23.567,0,0,0,1.367-10.937q0-4.687,4.883-4.688h17.968q6.053-.585,8.2-8.2,1.363-8.981-7.813-11.133H440.516q-4.687,0-5.469-3.515-0.395-3.708-5.078-6.641a12.805,12.805,0,0,0-7.813-1.172q-5.667.98-8.4,8.4-0.394,2.929-5.078,2.929H375.672q-4.687,0-5.469-3.711-2.929-8.2-11.914-7.812-7.031.98-9.375,8.594h0Zm62.109,26.757a19.733,19.733,0,0,1-6.64.782H378.8a26.789,26.789,0,0,1-5.859-.391q-2.344-1.363-2.149-3.32,0-1.561,4.883-1.563h33.2q4.491,0,4.492,1.172a3.485,3.485,0,0,1-2.344,3.32h0ZM279.578,236.188a215.6,215.6,0,0,1,19.531,16.21q8.79,10.356,16.407,7.422,4.293-.975,6.64-6.054,4.295-8.79-5.859-17.188a146.949,146.949,0,0,0-19.727-16.6q-10.158-7.032-17.187.585-6.253,8.79.195,15.626h0Zm96.875,7.617q4.688,0,4.883,3.125,0,3.322-4.688,3.32H357.9q-4.687,0-5.273-.391-1.368-1.56-.391-5.468,0.587-.586,5.274-0.586h18.945Zm56.836,5.273a2.213,2.213,0,0,1-1.172.781,22.339,22.339,0,0,1-5.664.391H408.484q-4.687,0-4.687-3.32,0-3.123,4.883-3.125h18.554a32.289,32.289,0,0,1,5.078.195q1.562,1.368.977,5.078h0ZM304.383,276.227q-6.445,24.417-22.461,54.687a69.965,69.965,0,0,0-3.711,7.813q-3.909,8.592,5.664,14.648,9.179,3.516,15.039-5.273a359.784,359.784,0,0,0,23.828-54.688q3.516-10.738,3.711-15.625,0.192-5.274-6.055-8.789-6.252-2.343-10.156.195a12.076,12.076,0,0,0-5.859,7.032h0Zm258.008-104.1a19.246,19.246,0,0,0-.586,6.836q0,4.688-4.688,4.687H495.789a25.039,25.039,0,0,0-4.687,1.172q-9.769,5.471-10.547,14.453v31.055q2.343,10.745,11.523,10.938,9.375,0,11.524-10.743V215.68q0-4.687.976-6.446a5.6,5.6,0,0,1,1.758-1.757,19.807,19.807,0,0,1,6.641-.782H631.531q6.836-1.172,8.789,3.711a27.91,27.91,0,0,1-1.562,8.789q-5.471,10.548.586,16.407,7.617,7.03,15.625,1.562a13.586,13.586,0,0,0,4.687-7.812q8.007-18.943,5.274-32.618-4.3-12.108-16.211-13.086h-59.18q-4.687,0-4.687-4.882a13.457,13.457,0,0,0-2.54-10.352,12.782,12.782,0,0,0-13.867-2.93,10.569,10.569,0,0,0-6.054,6.641h0Zm-57.032,57.422q-0.979,10.547,10.157,13.086H625.672a12.864,12.864,0,0,0,5.273-2.149,12.145,12.145,0,0,0,4.493-7.812q1.364-10.936-9.766-13.086H514.734q-8.01,1.758-9.375,9.961h0Zm-23.632,41.6a11.376,11.376,0,0,0,10.156,7.422h67.578q4.688,0,4.687,4.688V328.57a5.26,5.26,0,0,1-3.32,4.883q-6.254,1.365-16.406-1.172-3.909-.98-7.813-1.562-6.056-.98-10.156,5.273-4.1,8.007,1.367,13.672,7.617,5.274,23.438,7.422,16.6,0.779,27.539-4.492,8.005-6.057,8.594-15.039v-54.3q0-4.687,4.882-4.688h62.3q8.4-1.758,9.961-10.156,0.779-10.937-9.961-13.086H497.156q-5.859-.585-9.57,1.172-8.4,4.884-5.859,14.648h0ZM482.9,323.3q-9.768,5.662-5.859,14.453Q482.115,347.9,491.1,344a65.982,65.982,0,0,0,15.625-8.4q16.6-10.744,32.226-30.664,8.592-8.79,7.422-15.626-0.393-4.293-5.273-7.226-7.815-4.687-15.04,1.953Q507.506,310.6,482.9,323.3h0Zm125.391-39.063q-7.425,8.012-1.758,15.625a302.986,302.986,0,0,1,37.891,41.6q7.809,9.961,15.039,6.836a12.607,12.607,0,0,0,7.031-6.055q2.93-6.446-1.758-12.695-5.859-7.813-12.5-15.625-18.36-22.07-31.25-31.25a11.408,11.408,0,0,0-8.789-.781,8.731,8.731,0,0,0-3.906,2.343h0ZM790.711,174.469v6.25q0,4.688-4.688,4.687h-29.1a10.72,10.72,0,0,0-4.688,1.758q-8.4,7.032-2.929,16.016a9.805,9.805,0,0,0,7.422,4.687h29.3q4.688,0,4.688,4.688v7.422q0,4.688-4.688,4.687H757.508q-4.5,0-2.344-3.516a10.992,10.992,0,0,0,.586-8.007q-1.955-7.618-8.984-8.2h-8.008q-4.687,0-4.688-4.883V174.469q-0.783-7.032-8.593-9.571-12.112-1.756-14.454,9.18V200.25q0,4.688-3.32,4.688t-2.93-4.688a109.618,109.618,0,0,0,.586-17.188q-0.393-6.834-8.2-9.765-10.354-2.537-13.476,9.18v13.476a176.285,176.285,0,0,1-8.008,48.438q-3.126,8.6,3.32,13.281,2.733,2.343,7.813,1.758,4.1,0,7.422-4.688a84.269,84.269,0,0,0,6.835-22.656q0.976-4.687,5.469-4.688t4.492,4.688v34.18q0,4.688-4.687,7.422-9.183,4.884-24.024,11.328a9.386,9.386,0,0,0-5.859,6.445,14.166,14.166,0,0,0,3.32,11.719q5.466,5.272,11.719,2.734l14.844-6.25q4.688-2.146,4.687,2.539v44.531q1.173,9.962,10.547,10.938,10.35,0.192,12.5-10.742V289.508q0-4.687,4.688-8.008l2.93-1.953q4.49-3.122,5.468-.781a11.673,11.673,0,0,0,9.961,6.054q4.688,0,1.172,5.469a9.781,9.781,0,0,0,1.367,9.766A193.044,193.044,0,0,1,779.773,323.1a29.641,29.641,0,0,0,4.493,3.71q8.789,4.491,15.039-5.078,2.93-6.444-.391-10.937a137.082,137.082,0,0,0-18.164-21.485q-5.274-4.49-.586-4.492H814.93q4.688,0,4.687,4.688v38.086q-1.171,5.663-5.859,6.054a76.352,76.352,0,0,1-22.656-2.929,15.222,15.222,0,0,0-7.618-.391,11.738,11.738,0,0,0-7.031,5.86q-3.713,9.764,4.492,14.648a49.674,49.674,0,0,0,15.625,4.687q8.007,1.95,22.071.782a36.734,36.734,0,0,0,15.625-4.688,16.569,16.569,0,0,0,6.64-7.226,25.863,25.863,0,0,0,1.758-7.813v-47.07q0-4.687,4.883-4.688h9.375q11.718-3.318,9.375-15.039-1.955-7.223-9.375-8.008h-9.57q-4.687,0-4.688-4.882v-5.274q0-4.687,4.883-4.687h10.742q9.178-2.148,9.57-9.961a11.558,11.558,0,0,0-1.562-7.813q-3.324-4.293-7.617-4.492H818.445q-4.687,0-4.687-4.883v-7.226q0-4.687,4.883-4.688H852.43q8.789-2.535,9.179-10.156,0.975-9.764-9.179-12.305H818.445q-4.687,0-4.687-4.883v-6.054a11.74,11.74,0,0,0-4.688-7.813,12.238,12.238,0,0,0-10.156-1.758q-7.617,2.738-8.2,9.571h0Zm-49.805,61.523q0.587,8.79,9.18,10.938H814.93q4.688,0,4.687,4.687v5.469q0,4.688-4.687,4.687h-54.3q-4.687.394-5.469-2.929-6.838-12.108-16.211-5.86-4.884,3.127-4.883-1.757V232.086q0-4.687,5.078-4.688t2.93,3.321a16.984,16.984,0,0,0-1.172,5.273h0ZM878.211,340.68q3.516,11.91,13.281,13.281H1045.98q10.56-2.151,13.29-13.477v-158.4q-1.575-10.35-11.92-13.086H890.711q-10.547,2.343-12.5,12.695V340.68ZM909.852,189.9H1032.31a4.621,4.621,0,0,1,3.71,2.54,19.8,19.8,0,0,1,.78,6.64v124.61a39.616,39.616,0,0,1-.19,5.468,6.261,6.261,0,0,1-5.66,4.1c-1.05,0-1.24-.977-0.59-2.93q1.17-6.838-7.42-10.937-4.305-2.148-8.21-3.907c-0.26-.39-0.32-0.65-0.19-0.781q11.13-.388,13.67-11.328V245.758a8.844,8.844,0,0,0-3.32-6.25,15.449,15.449,0,0,0-7.81-3.516H918.836q-7.228,1.37-9.766,9.18v58.2l0.391,2.539q2.733,7.617,9.57,8.594a71.775,71.775,0,0,1,7.422,0q0.39,0.2-4.3,1.758-3.909.781-7.812,1.953-8.012,3.515-7.227,10.156,1.172,4.688.781,4.883-5.469.389-7.226-4.1V198.688q-0.783-6.445,2.93-8.4a31.657,31.657,0,0,1,6.25-.391h0Zm3.906,13.868v17.968q0.585,7.617,9.18,9.961h90.622a15.247,15.247,0,0,0,5.08-2.148q4.485-3.9,4.88-7.617V203.57q-2.34-8.2-9.57-8.984H927.625q-5.667,0-7.031.586-6.057,3.126-6.836,8.594h0Zm83.789,6.054q4.684,0,5.273.391a2.412,2.412,0,0,1,.78,2.93,2.319,2.319,0,0,1-1.17,3.125,34.077,34.077,0,0,1-5.274.2H940.125q-4.687,0-5.273-.391a2.276,2.276,0,0,1-1.172-2.929,4.348,4.348,0,0,1,.781-3.125,29.615,29.615,0,0,1,5.078-.2h58.008Zm3.513,42.969c3.13,0,4.82.263,5.08,0.781a7.59,7.59,0,0,1,.59,2.344c0,1.172-1.57,1.758-4.69,1.758h-66.8q-4.687,0-4.687-1.758-0.2-2.146.976-2.93a32.279,32.279,0,0,1,5.078-.2h64.451Zm0.98,25.195h-66.8q-4.687,0-4.687-2.539,0-2.343,4.883-2.343h66.792q4.305,0,4.5,2.539c0,1.562-1.57,2.343-4.69,2.343h0Zm3.51,19.141c-0.65.391-2.53,0.586-5.659,0.586H936.609q-4.494,0-5.078-.781a6.34,6.34,0,0,1-.976-1.953q-0.2-1.562,4.687-1.563h66.988q4.5,0,4.5,1.758a2.834,2.834,0,0,1-1.18,1.953h0Zm-18.745,28.906q6.051,2.733,16.215,6.25a0.55,0.55,0,0,1-.4.781l-5.073.2H945.984l-5.078-.2a0.384,0.384,0,0,1-.195-0.585,30.079,30.079,0,0,1,4.492-1.954,53.051,53.051,0,0,0,7.813-3.125q6.638-3.909,5.468-9.96-0.782-2.931,3.907-2.93h14.257q4.491,0,4.1,2.734-0.393,6.834,6.055,8.789h0ZM1183.68,175.445q0,4.688-4.69,4.688h-13.87q-8.775,2.737-9.57,9.375v34.375c0,3-.97,3.451-2.93,1.367a35.06,35.06,0,0,0-6.05-2.734q-2.925-.39-2.93-5.078V183.844q-1.17-8.982-10.74-11.719h-39.65q-8.6,1.368-11.13,10.937v35.157c0,3-1.05,5.014-3.13,6.054q-5.67,4.886-6.25,10.547v21.094q1.95,8.2,8.79,8.594,2.925,0.2,2.93,4.883v79.492q2.73,10.738,12.11,8.4,5.865-1.565,7.03-7.812v-20.9q0-4.687,4.88-4.687h13.48q4.695,0,4.69,4.687,0.39,4.879-.39,7.032c-0.91,1.953-2.09,2.734-3.52,2.343l-3.9.2q-8.4-.2-10.16,9.179,0.195,7.617,7.03,9.766a42.455,42.455,0,0,0,19.34-.977q9.96-3.712,10.74-12.89v-75q0-4.295,3.71-5.469,3.12-2.146,3.32.781,0.39,6.253,7.62,8.008h94.33q7.425-2.536,7.82-8.008,0.585-8.788-7.82-10.351h-88.86a34.569,34.569,0,0,0-8.4.781q-2.745,1.954-1.17-2.734l0.58-2.93q0.78-4.879,5.67-1.758a19.863,19.863,0,0,0,3.32,1.172h82.61q9.375-2.536,10.55-10.742V189.9q-2.145-8.98-10.35-9.765h-13.09q-4.68,0-4.68-4.883a10.653,10.653,0,0,0-.4-4.492q-3.51-7.617-10.93-6.641-8.985,2.738-7.82,11.328c0,3.125-1.49,4.688-4.49,4.688s-4.49-1.627-4.49-4.883q1.17-5.466-4.69-9.961a10.6,10.6,0,0,0-11.33,1.172,10.221,10.221,0,0,0-3.12,8.984h0Zm-75.98,16.016h14.46q3.12,0.979,3.12,2.93,0.39,1.757-4.3,1.757a46.6,46.6,0,0,0-7.42.2c-4.68,1.3-7.49,4.428-8.4,9.375v11.719q0,4.686-2.73,4.687-2.535,0-2.54-4.883V199.273q-0.39-4.687.78-6.25a13.107,13.107,0,0,1,1.76-1.367,34.488,34.488,0,0,1,5.27-.195h0Zm71.49,14.648c-3,0-4.49-1.171-4.49-3.515-0.27-2.213,0-3.775.78-4.688a25.992,25.992,0,0,1,4.49-.195q3.51,0,3.71,4.3Q1183.68,206.109,1179.19,206.109Zm28.12,0q-4.485,0-4.49-4.3,0-4.1,4.69-4.1,4.1,0,4.29,4.3C1211.8,204.742,1210.31,206.109,1207.31,206.109Zm28.13,0c-3,0-4.49-1.431-4.49-4.3q0-4.1,3.9-4.1a18.585,18.585,0,0,1,3.91.195q1.755,1.369,1.17,4.883Q1239.93,206.113,1235.44,206.109Zm-109.57,10.743c0,3.515-.92,5.273-2.74,5.273s-2.73-1.5-2.73-4.492a28.141,28.141,0,0,1,.19-4.688,3.131,3.131,0,0,1,3.32-1.562c1.3,0,1.96,1.825,1.96,5.469h0Zm54.1,13.086c-2.48.262-4.1-.065-4.88-0.977-0.27-.259-0.39-1.563-0.39-3.906s1.56-3.516,4.68-3.516q4.3,0,4.3,4.3,0,4.1-3.71,4.1h0Zm27.34,0q-4.485,0-4.49-4.3,0-4.1,4.69-4.1,4.29,0,4.29,4.3C1211.8,228.57,1210.31,229.938,1207.31,229.938Zm32.42-1.172q-1.17,1.758-5.07,1.172c-2.48,0-3.71-1.432-3.71-4.3q0-4.1,4.68-4.1,4.3,0,4.3,3.32a20.146,20.146,0,0,1-.2,3.907h0Zm-110.54,12.7q4.68,0,6.05.586,2.94,2.541,1.96,4.687-1.185,4.886-5.86,4.3-4.3-.192-8.4,0h-17.97l-8.4.2c-3.12.653-4.69-.2-4.69-2.539a6.381,6.381,0,0,1,2.74-7.032,37.041,37.041,0,0,1,5.27-.195h29.3Zm-10.94,28.906a22.406,22.406,0,0,1,5.66.391q2.745,1.758,2.74,4.3,0.195,2.929-4.49,2.929h-13.87q-4.695,0-4.69-2.929a4.069,4.069,0,0,1,2.15-4.3,22.463,22.463,0,0,1,5.66-.391h6.84Zm39.65,16.6v24.023q1.95,10.941,11.72,11.328,4.68,0,7.42,5.664,1.95,5.663-2.74,5.664h-17.77q-7.815,1.758-8.59,9.375-0.585,8.593,8.59,10.547h95.9q5.865,0,7.81-.781,8.01-4.687,5.86-12.695-1.755-5.859-8.01-6.446h-18.75q-4.68,0-2.93-5.859,1.95-5.471,6.06-5.469,9.375-1.363,12.11-11.328V287.555q-2.16-8.982-11.33-10.157h-75.2a12.37,12.37,0,0,0-5.46,2.149q-4.3,3.909-4.69,7.422h0Zm69.53,8.789a34.488,34.488,0,0,1,5.27.195,2.22,2.22,0,0,1,.78.781c0.65,3.388.4,5.664-.78,6.836a33.825,33.825,0,0,1-5.27.2h-42.58c-3.12,0-4.88-.129-5.27-0.391a4.012,4.012,0,0,1-.98-3.711c-0.26-1.822.07-3.058,0.98-3.711a32.266,32.266,0,0,1,5.08-.195h42.77Zm-105.47,9.765h-13.67q-4.695,0-4.69-4.687,0-4.294,4.88-4.3h13.68q4.485,0,4.49,4.492t-4.69,4.492h0Zm86.52,28.125h-3.71q-4.68,0-6.83-5.664c-1.31-3.778-.39-5.664,2.73-5.664h12.31q4.485,0,2.54,5.664-2.355,5.663-7.04,5.664h0Zm184.57-159.57q-3.315,11.133-13.86,21.484-4.7,4.3-6.64,1.954a14.941,14.941,0,0,0-8.21-3.907h-53.12q-4.7.2-3.91-1.171c0.78-.91,2.74-1.368,5.86-1.368h62.31a7.307,7.307,0,0,0,3.9-2.148,9.155,9.155,0,0,0,2.74-7.813q-1.17-6.248-7.42-6.836h-53.52q-4.7,0-5.08-1.757-0.195-2.537-3.51-5.664-8.61-5.861-14.85,3.32-5.67,12.7-14.26,19.922-6.825,6.642-3.71,12.5,5.28,8.789,13.48,4.883,3.12-1.95,1.95,2.929l-0.97,4.492c-0.78,3.125-2.74,4.688-5.86,4.688h-7.03q-6.45,1.758-6.84,7.617,0.585,10.158,10.74,9.18,4.29,0,3.32,5.078-0.78,3.712-1.36,7.227-2.16,5.667,2.92,11.718a16.418,16.418,0,0,0,7.82,3.321h52.73q4.89,0,0,3.32l-6.05,4.3q-4.3,3.126-9.38.195-12.69-6.834-19.92-4.1a10.669,10.669,0,0,0-4.69,5.273q-3.51,8.4,3.52,13.477,7.8,3.514,15.62,7.226,6.06,2.737,8.01,4.492c0.13,0.263-.07.522-0.58,0.782q-23.64.782-47.27,1.757-11.52.2-11.72,11.914,1.95,9.962,12.31,9.571,17.37-.587,34.57-0.782a0.638,0.638,0,0,1,.19.782q-18.555,11.133-35.35,13.086-10.155,2.733-8.79,12.695,2.34,8.2,8.79,8.789,9.96,0.389,23.44-4.883l15.62-6.64q10.935-5.274,15.63-9.571,6.435-5.859,4.1-10.351-1.95-4.687,4.1-5.078,5.865-.193,5.86,4.492v23.047q0.975,6.637,5.86,9.179,7.215,3.708,13.67-2.343a14.056,14.056,0,0,0,2.93-7.227V323.492q0-4.687,4.69-4.883a12.723,12.723,0,0,1,3.12,0q4.695-.192,3.52,2.344-2.34,8.789,5.08,13.477a26.451,26.451,0,0,0,7.81,2.734,233.549,233.549,0,0,1,39.06,16.016q8.01,3.9,14.06-4.492,4.3-8.79-3.9-15.04a192.481,192.481,0,0,0-30.67-13.867q-5.265-1.95,0-2.734,5.085-.192,10.36-0.2,4.68-.193,9.18,3.906a34.463,34.463,0,0,0,3.9,3.711q8.985,6.051,15.43-2.735,5.67-9.177-5.27-17.773a214.662,214.662,0,0,0-26.76-21.289q-8.4-6.638-15.63-2.734-7.02,6.444-4.1,13.671,1.17,2.345-3.12,2.539l-11.33.586q-4.68,0,0-3.906,4.485-3.9,8.79-8.2a19.359,19.359,0,0,0,2.15-3.906q2.34-8.2-6.25-12.7-4.5-1.172.39-4.1,6.24-3.708,14.26-9.375,4.485-3.516,9.37.195a89.51,89.51,0,0,0,24.61,13.281,15.075,15.075,0,0,0,7.81.977q4.89-.587,7.82-7.617,2.34-9.178-7.62-13.281a97.545,97.545,0,0,1-18.56-8.4q-4.485-2.929-.78-7.812a114.316,114.316,0,0,0,12.89-27.93q1.56-4.687,4.89-4.688,11.13-1.56,9.57-12.3-2.16-6.445-7.82-6.836h-39.64q-4.7,0-4.11-4.688,1.77-6.834-5.86-10.547a11.357,11.357,0,0,0-9.18-.39q-3.51,2.929-6.25,9.57h0Zm30.86,44.727q-3.315,4.688-7.03.195a104.17,104.17,0,0,1-8.4-15.039q-1.95-4.687,2.74-4.688h16.8q4.485,0,3.12,4.883a60.184,60.184,0,0,1-7.23,14.649h0Zm-99.61-4.1q2.745,4.884-2.14,4.883h-4.11q-4.68,0-4.1-3.516c0.52-2.212,1.04-3.515,1.57-3.906a5.692,5.692,0,0,1,3.51-1.758q3.315-.975,5.27,4.3h0Zm30.67-1.562a29.825,29.825,0,0,1-.59,3.515q-0.585,2.93-4.68,2.93-3.915,0-5.47-4.492-2.55-4.491,3.12-4.492a47.285,47.285,0,0,1,6.06.195,3.476,3.476,0,0,1,1.56,2.344h0Zm31.83,3.125q4.89-2.931,7.23,1.562a112.958,112.958,0,0,0,8.79,14.063q3.51,4.688-1.17,7.617a149.167,149.167,0,0,1-16.6,8.594,13.3,13.3,0,0,0-3.91,2.734q-6.255,7.03,1.17,15.625a10.06,10.06,0,0,0,5.86,2.734c1.56,0,.85,1.239-2.15,3.711q-8.2,6.253-16.01,12.891-4.695,3.909-7.23,2.148-2.34-1.758,2.34-5.078,8.01-5.273,10.94-9.961a6.7,6.7,0,0,0,.78-4.3q-2.73-9.375-9.76-9.765-1.365,0,.39-4.688l2.34-13.086q0.975-4.687,5.67-4.687h6.64q6.24-1.561,6.83-7.422,0.975-6.834-5.27-8.984a18.648,18.648,0,0,0-5.86-.391c-3,0-4.36-1.105-4.1-3.32q0.39-3.123,5.66.781,3.525,1.758,7.42-.781h0Zm-69.92,30.468q-6.045,0-6.83-.39a3.916,3.916,0,0,1-1.57-5.274c0.79-3.125,2.28-4.687,4.5-4.687q3.12,0,7.03,5.273,3.12,5.082-3.13,5.078h0Zm26.17,0c-1.95,0-2.93-.781-2.93-2.343a18.62,18.62,0,0,0-1.36-5.079q-1.965-2.93,2.93-2.929h4.88q4.485,0,4.1,3.125-0.78,8.01-7.62,7.226h0Z"/>
  <path id="中文示例" class="cls-2" d="M293.887,752.648a42.588,42.588,0,0,1-.782,5.567,20.417,20.417,0,0,1-6.25,12.3q-5.469,4.59-15.136,8.593-5.079,2.832-3.321,7.129,2.245,5.469,6.543,4.883,9.179-1.758,19.532-11.035,1.854-1.954,3.515-3.906a44.205,44.205,0,0,0,6.836-15.235,2.77,2.77,0,0,1,2.93-2.344H327.09a2.072,2.072,0,0,1,2.344,2.344v12.012a4.418,4.418,0,0,1-3.223,3.809q-3.029.975-9.473,0.2a25.72,25.72,0,0,0-5.273-.391,6.589,6.589,0,0,0-5.567,5.664q-0.489,4.882,3.418,6.543,4.1,1.758,11.719,2.051h5.176a23.464,23.464,0,0,0,9.668-2.051,7.529,7.529,0,0,0,3.711-2.929,12.267,12.267,0,0,0,1.758-5.86V707.336a10.779,10.779,0,0,0-.977-3.906q-3.126-4.783-7.324-4.785H301.7q-7.031,1.368-7.812,7.812v46.191Zm-42.774-46.582v58.789q0,2.444,2.539,5.079a8.235,8.235,0,0,0,3.907,1.562H280.7a8.323,8.323,0,0,0,6.543-6.738V705.871q-1.368-5.663-6.25-6.152H256.973q-5.178,1.464-5.86,6.347h0Zm73.047,4.1q4.1-.587,5.274,3.125v7.227a2.072,2.072,0,0,1-2.344,2.343H308.145q-2.344,0-2.344-2.441v-5.371a5.423,5.423,0,0,1,.39-3.223,3.618,3.618,0,0,1,1.954-1.562,22.414,22.414,0,0,1,2.832-.1H324.16Zm-52.832,1.172q2.832-.488,4,1.074a9.924,9.924,0,0,1,.391,3.32V727.16a2.072,2.072,0,0,1-2.344,2.344h-8.4q-2.343,0-2.343-2.442V715.734q-0.49-3.318,1.66-4.3,3.516-.2,7.031-0.1h0Zm58.106,33.4a2.072,2.072,0,0,1-2.344,2.344H308.145q-2.344,0-2.344-2.441V736.73q0-2.343,2.441-2.343h18.946q2.244,0,2.246,2.441v7.91Zm-53.711,12.891a2.226,2.226,0,0,1-2.051,2.344h-6.641a10.666,10.666,0,0,1-3.125-.293,2.355,2.355,0,0,1-1.269-1.758V743.371q0-2.343,2.441-2.344h8.4q2.244,0,2.246,2.442v14.16Zm84.863-50.977v43.555a77.976,77.976,0,0,1-.879,9.473q-1.855,12.3-7.91,19.531a35.511,35.511,0,0,0-2.735,3.906,3.843,3.843,0,0,0-.195,3.906,8.407,8.407,0,0,0,3.223,3.614,5.634,5.634,0,0,0,7.617-.684,16.441,16.441,0,0,0,3.516-3.613,56.173,56.173,0,0,0,7.324-15.625l1.172-7.422a2.506,2.506,0,0,1,2.734-2.344h47.852a2.071,2.071,0,0,1,2.343,2.344v8.4q0.683,4.59-3.125,6.153-4.3.78-11.132-.782a10.141,10.141,0,0,0-4.2-.292q-5.664,1.365-5.566,7.714a5.2,5.2,0,0,0,1.855,3.809,12.134,12.134,0,0,0,3.907,1.855,52.285,52.285,0,0,0,11.718,1.661,28.1,28.1,0,0,0,13.575-1.856,7.579,7.579,0,0,0,3.613-2.93,13.1,13.1,0,0,0,1.66-5.859V707.727q-0.2-4.981-5.078-8.008a9.8,9.8,0,0,0-3.906-1.074H368.594a16.736,16.736,0,0,0-2.735.683q-4.98,3.029-5.273,7.324h0Zm17.285,4.3h41.6a11.241,11.241,0,0,1,2.832.2,5.867,5.867,0,0,1,2.05,2.148,12.97,12.97,0,0,1,.293,3.32v4.59a2.071,2.071,0,0,1-2.343,2.344H375.332q-2.343,0-2.344-2.442v-5.078a10.671,10.671,0,0,1,.293-3.125,4.806,4.806,0,0,1,1.66-1.757,12.661,12.661,0,0,1,2.93-.2h0ZM424.648,746.2a2.071,2.071,0,0,1-2.343,2.344H375.332q-2.343,0-2.344-2.442v-7.812q0-2.345,2.442-2.344H422.4q2.246,0,2.246,2.442V746.2Zm64.942-46v27.051a2.072,2.072,0,0,1-2.344,2.344H468.789a2.939,2.939,0,0,1-2.734-2.735V704.992a6.025,6.025,0,0,0-3.418-5.176,5.585,5.585,0,0,0-5.86.391,7.308,7.308,0,0,0-2.734,4.785V733.9a8.679,8.679,0,0,0,4.2,6.543,12.015,12.015,0,0,0,3.906,1.172h25.1a2.072,2.072,0,0,1,2.344,2.344v29a2.072,2.072,0,0,1-2.344,2.344h-20.8a2.939,2.939,0,0,1-2.832-2.637V751.477q-0.783-5.957-6.738-5.665a6.2,6.2,0,0,0-5.176,5.665V779.6a9.11,9.11,0,0,0,4.2,6.64,19.576,19.576,0,0,0,3.907,1.074h70.6a18.988,18.988,0,0,0,4.2-1.074A7.92,7.92,0,0,0,539,779.113V750.305a6.416,6.416,0,0,0-2.442-4.688,8.767,8.767,0,0,0-3.906-1.074q-5.079.879-5.566,5.762v21.386a3.586,3.586,0,0,1-3.613,3.614H503.848q-2.344,0-2.344-2.442V743.957q0-2.343,2.441-2.344h25q8.007-.681,8.594-8.4V704.992a6.025,6.025,0,0,0-3.418-5.176,5.583,5.583,0,0,0-5.859.391,7.306,7.306,0,0,0-2.735,4.785v21.094a3.545,3.545,0,0,1-3.613,3.516H503.848q-2.344,0-2.344-2.442V700.305a5.851,5.851,0,0,0-3.613-4.785,6.694,6.694,0,0,0-3.907-.2,5.509,5.509,0,0,0-4.394,4.883h0ZM556,709.68a5.451,5.451,0,0,0,3.809,2.05h28.613a2.072,2.072,0,0,1,2.344,2.344v12.988q0,2.443-2.344,2.442H553.652q-5.177.976-5.371,6.445,0.587,5.274,5.274,5.86h33.2q2.343,0,1.758,2.343Q581.192,767,554.043,778.723a5.085,5.085,0,0,0-4,1.953q-3.321,5.272.977,9.668a5.863,5.863,0,0,0,5.957,1.172,48.479,48.479,0,0,0,17.578-8.789q15.33-11.427,22.461-26.563,1.072-2.343,2.343,0A77.437,77.437,0,0,0,610.488,771.5a116.137,116.137,0,0,0,25.293,19.824q5.078,2.44,8.5-1.562a6.946,6.946,0,0,0,1.465-3.516q0.587-4.591-4.2-7.129a85.172,85.172,0,0,1-9.766-5.468,61.287,61.287,0,0,1-16.015-14.258,82.408,82.408,0,0,1-8.887-15.235q-0.879-2.343,1.465-2.343h31.836l0.586-.1q4.881-1.758,4.687-6.543-0.1-4.687-5.371-5.664H605.8q-2.345,0-2.246-2.442V714.074q0-2.343,2.441-2.344h28.223q5.076-1.072,5.371-5.859,0.1-5.761-5.274-6.543H559.9a5.755,5.755,0,0,0-4.2,2.539A6.361,6.361,0,0,0,556,709.68h0ZM689.4,700.4v71.973a2.072,2.072,0,0,1-2.344,2.344H667.52a2.921,2.921,0,0,1-2.832-2.832v-62.7q-1.173-5.955-6.739-5.761-5.272,1.076-5.664,5.761v70.02a10.4,10.4,0,0,0,1.074,3.516,8.071,8.071,0,0,0,3.614,3.32,13.571,13.571,0,0,0,3.906,1.074h68.848a11.691,11.691,0,0,0,4.785-1.367,8.823,8.823,0,0,0,4-7.422V709.68q-1.077-6.249-7.032-5.86a6.349,6.349,0,0,0-5.371,5.86v61.425q-0.392,3.615-3.711,3.614H704.141q-2.345,0-2.344-2.442V700.4a5.843,5.843,0,0,0-3.906-4.98,6.314,6.314,0,0,0-6.641,1.074A6.38,6.38,0,0,0,689.4,700.4h0Zm130.664-.781q-0.1,2.541-2.344,2.539H802.871a5.106,5.106,0,0,0-3.906,2.442,5.341,5.341,0,0,0-.586,4.2,4.884,4.884,0,0,0,4.59,4.1h14.648a2.276,2.276,0,0,1,2.539,2.344,4.958,4.958,0,0,0,2.246,3.613q1.466,0.783-.879,1.563-8.788,2.541-20.117,4.98a4.977,4.977,0,0,0-2.929,3.321,6.736,6.736,0,0,0,.39,3.906q1.953,3.908,5.567,3.418a160.273,160.273,0,0,0,19.238-5.176q2.343-.78,2.539-0.293a4.483,4.483,0,0,0,3.027,2.246H864.2a3.257,3.257,0,0,0,2.539-2.051q0.487-1.073,2.735-.585,9.569,2.636,19.043,4.785,4.1,0.879,5.664-3.711a5,5,0,0,0-.2-3.907,5.519,5.519,0,0,0-3.418-3.027,192.758,192.758,0,0,1-19.238-4.492q-2.541-.78.1-1.758a5.025,5.025,0,0,0,1.953-2.832,2.634,2.634,0,0,1,2.832-2.344H889.59q4.783-1.172,4.59-6.25-0.685-4.3-4.688-4.492H876.113q-2.343,0-2.343-2.051-0.879-4.49-4.981-4.98-5.079-.2-6.152,4.492-0.1,2.541-2.344,2.539H833.438q-2.149,0-2.344-2.539-0.2-2.733-3.321-4.1-3.808-1.173-6.152,1.074a5.889,5.889,0,0,0-1.562,3.027h0Zm12.7,16.406q-2.442,1.173-1.66-.976a2.152,2.152,0,0,1,2.441-2.149H835.1q2.439,0.1,2.441.391a18.214,18.214,0,0,1-4.785,2.734h0Zm28.808,0.293a42.1,42.1,0,0,1-6.054-3.027c-0.066-.13,0-0.259.195-0.391q2.344-.1,4.59,0a2.3,2.3,0,0,1,2.539,2.246q0.975,2.149-1.27,1.172h0Zm-8.886,8.887H841.152q-2.442-.293-0.1-1.465a16.358,16.358,0,0,1,13.965,1.27q0,0.2-2.344.2h0Zm-41.7,15.82v16.114l-0.391,3.906q-1.27,10.158-10.254,19.433-3.222,4.395,0,7.813,3.9,4,8.2.781a32.274,32.274,0,0,0,8.594-11.23q1.464-2.249,1.562-1.953a14.86,14.86,0,0,1,.1,2.539v5.761q0.78,4.981,5.371,5.86H880.9a6.155,6.155,0,0,0,4.3-2.344,7.124,7.124,0,0,0,1.856-3.613V772.18q-1.466-4.981-5.86-5.469h-54.2a14.826,14.826,0,0,0-4.394.488q-1.466.783-1.172-.879,0.388-1.659,2.734-1.66H876.8a7.219,7.219,0,0,0,5.371-3.125,8.812,8.812,0,0,0,1.367-3.906V744.152a17.052,17.052,0,0,0-.195-3.515q-1.076-5.077-5.762-5.86H817.227a6.921,6.921,0,0,0-4.493,2.344,8.125,8.125,0,0,0-1.757,3.906h0Zm57.031,2.539a11.8,11.8,0,0,1,3.222.293,3.143,3.143,0,0,1,.977,1.075q0.2,0.782-2.148.781H824.648q-2.343,0-2.441-.293a2.3,2.3,0,0,1,1.367-1.66,11.986,11.986,0,0,1,2.832-.2h41.6Zm3.32,11.817a8.04,8.04,0,0,1-3.32.488H824.551q-2.345,0-2.344-1.172,0-.975,2.441-0.976h45.411q2.343,0,2.148.683a2.615,2.615,0,0,1-.879.977h0Zm4.492,23.047a1.712,1.712,0,0,1-.683,1.953,17.309,17.309,0,0,1-2.637.1H833.145a9.317,9.317,0,0,1-2.637-.2,2.143,2.143,0,0,1-.488-1.953,1.7,1.7,0,0,1,.585-1.953H872.7a9.882,9.882,0,0,1,2.735.195,3.438,3.438,0,0,1,.39,1.856h0Zm46.192-76.66a2.072,2.072,0,0,1-2.344,2.343H902.48q-4.393.879-4.98,4.981-0.49,5.176,5.078,6.543h17.09a2.072,2.072,0,0,1,2.344,2.343q-0.1,4.2,3.32,5.86,4.491,1.954,7.617-2.051a6.313,6.313,0,0,0,.977-3.809q0-2.343,2.441-2.343h20.8q2.343,0,2.344,1.758,0,1.563-1.074,1.367-4.981.1-5.958,5.273v5.078a2.071,2.071,0,0,1-2.343,2.344H931.484q-5.664,1.37-4.98,6.836,1.268,4.98,6.445,4.687a2.072,2.072,0,0,1,2.344,2.344v26.367a26.794,26.794,0,0,0,2.539,9.961q3.222,5.567,11.328,7.325a123.655,123.655,0,0,0,16.895,1.464H976.6q5.175-.2,11.816-0.976a5.724,5.724,0,0,0,3.906-1.66q3.026-3.907.879-7.617-1.662-2.443-3.613-2.442a11.929,11.929,0,0,0-2.149-.195,146.036,146.036,0,0,1-28.808.488,32.751,32.751,0,0,1-7.813-2.051,5.371,5.371,0,0,1-2.929-3.418l-0.586-3.906v-23.34q0-2.343,2.441-2.344H989.59a5.527,5.527,0,0,0,4.98-5.078q0.294-5.468-4.785-6.445H966.738q-2.343,0-2.343-2.441v-2.637a2.315,2.315,0,0,1,2.441-2.539,5.888,5.888,0,0,0,4.687-5.86q0-2.343,2.442-2.343H989.4a6.042,6.042,0,0,0,4.882-5.176q0.39-5.274-4.98-6.348h-15.43q-2.343,0-2.344-2.441,0.487-3.612-3.222-5.957a7.147,7.147,0,0,0-4.883-.293,4.826,4.826,0,0,0-2.734,1.953,6.85,6.85,0,0,0-1.172,4.395,2.072,2.072,0,0,1-2.344,2.343h-20.9q-2.344,0-2.344-2.441,0.487-3.808-3.516-6.055a6.366,6.366,0,0,0-7.324,1.66,7.423,7.423,0,0,0-1.074,4.493h0ZM906.68,729.016a54.037,54.037,0,0,1,9.765,6.836q4.2,3.712,7.813,1.464,6.346-5.662-1.172-11.23a70.9,70.9,0,0,0-11.719-7.617q-4.2-1.953-7.129,1.953-3.222,5.079,2.442,8.594h0ZM898.77,742.4a5.367,5.367,0,0,0,1.953,3.515,73.288,73.288,0,0,1,11.718,8.887q2.931,2.637,5.86,1.562a5.77,5.77,0,0,0,3.418-3.125q1.951-4.3-2.246-7.812a71.728,71.728,0,0,0-11.914-8.789,6.843,6.843,0,0,0-3.907-.781q-4.884,1.563-4.882,6.543h0Zm22.07,13.476a61.846,61.846,0,0,1-19.824,22.949q-3.712,2.733-3.321,5.86a6.492,6.492,0,0,0,3.614,5.175,4.624,4.624,0,0,0,3.906.391q5.272-1.954,12.109-9.473a85.338,85.338,0,0,0,11.621-15.625q3.319-4.3,2.442-8.105-2.637-4.883-6.934-3.906a7.2,7.2,0,0,0-3.613,2.734h0Zm91.6-48.242h25.59q2.34,0,2.34,1.367t-2.34,1.367h-30.47a7.991,7.991,0,0,0-6.84,7.129v14.16q0.495,4.2,5.08,5.176,4.98-.1,5.76-5.273V722.57a2.751,2.751,0,0,1,1.37-1.953,13.017,13.017,0,0,1,3.32-.293h21.78a2.07,2.07,0,0,1,2.34,2.344v18.359l0.39,1.661q1.275,2.442-1.07,2.441h-26.57a4.749,4.749,0,0,0-3.9,2.93q-1.665,5.859,4.1,7.031h68.07a4.345,4.345,0,0,0,2.93-1.563,5.627,5.627,0,0,0,1.27-4.394c-0.2-2.083-1.53-3.418-4.01-4h-29.49q-2.34,0-.98-2.344a6.984,6.984,0,0,0,.49-1.953V722.668c0-1.563.81-2.344,2.44-2.344h23.64a4.252,4.252,0,0,1,3.71.781,4.676,4.676,0,0,1,.39,3.125l-0.88,5.372q-1.56,4.59,3.81,6.445,4.875,1.27,6.54-3.906,3.315-9.765.98-16.993c-1.63-3.125-3.85-4.719-6.64-4.785h-31.64c-1.57,0-2.35-.488-2.35-1.465,0-.845.81-1.269,2.44-1.269h27.35q2.73-.2,3.81-3.516,1.065-4.881-3.52-6.054h-69.34a4.512,4.512,0,0,0-3.9,3.125q-1.08,5.177,4,6.445h0Zm0.98,20.9a4.086,4.086,0,0,0,3.32,2.735h18.65a4.334,4.334,0,0,0,3.13-2.637q1.26-4.784-3.32-5.762h-15.82a14.682,14.682,0,0,0-3.72.293,4.193,4.193,0,0,0-2.24,5.371h0Zm40.33-4a4.286,4.286,0,0,0-.59,3.907c0.79,1.758,1.89,2.7,3.32,2.832h19.44q3.9-1.269,3.42-4.981-0.3-2.929-3.52-3.418h-16.7a17.83,17.83,0,0,0-3.51.2,9.536,9.536,0,0,0-1.86,1.464h0ZM1015.86,742.2h19.34q3.9-1.171,3.51-4.785,0-2.929-3.61-3.711h-19.24q-3.81,1.172-3.52,4.785a4.224,4.224,0,0,0,3.52,3.711h0Zm40.62,0h16.8a15.18,15.18,0,0,0,3.81-.293,3.912,3.912,0,0,0,2.64-3.32q0.39-4.2-3.62-4.883h-19.53c-2.6.781-3.81,2.377-3.61,4.785a4.214,4.214,0,0,0,3.51,3.711h0Zm-51.46,26.563h18.16c1.57,0,1.79.781,0.69,2.343l-2.25,3.125a5.071,5.071,0,0,1-4,2.54l-9.08.292a16.006,16.006,0,0,0-4.59.391q-4.8,1.953-3.81,7.129a4.728,4.728,0,0,0,2.83,3.32,11.776,11.776,0,0,0,5.86.293l65.72-3.515a7.047,7.047,0,0,1,4.69,1.758l2.83,2.343a9.29,9.29,0,0,0,3.91,2.735q4.785,1.464,7.03-3.321c0.97-2.279.23-4.557-2.25-6.836a111.236,111.236,0,0,0-15.04-11.523c-0.65-.455-0.75-0.781-0.29-0.977a17.224,17.224,0,0,1,2.64-.1h9.47a4.73,4.73,0,0,0,3.71-2.539,4.8,4.8,0,0,0,.39-4.2,4.217,4.217,0,0,0-3.81-3.32h-82.81q-4.305,1.172-4.3,4.883-0.285,4.2,4.3,5.176h0Zm58.01,5.176c0.52,0.781,0,1.235-1.57,1.367l-25.29.879q-2.535.1-.68-2.539l1.66-2.54a4.583,4.583,0,0,1,3.9-2.343h20.02c1.63,0,2.18.522,1.66,1.562a5.422,5.422,0,0,0,.3,3.614h0Zm63.96-61.524q-1.755,2.344-1.85.391,0.09-2.345-2.35-4.883-6.93-7.911-12.3-10.156-4.785-1.074-6.94,4.2-1.17,3.908,3.62,7.031a78.587,78.587,0,0,1,8.01,8.008,6.377,6.377,0,0,0,5.07,2.148q1.275-.293-1.17,2.344a4.386,4.386,0,0,0-.78,2.93,5.839,5.839,0,0,0,1.86,3.906q4.68,4.3,9.66-1.367,2.25-2.345,1.96.195a98.9,98.9,0,0,1-2.05,12.988,2.64,2.64,0,0,1-2.84,2.344h-2.93a5.594,5.594,0,0,0-4.58,3.418q-0.3,1.27-2.64,1.074a5.254,5.254,0,0,0-4.49,2.93,15.668,15.668,0,0,0-1.18,3.906,60.334,60.334,0,0,1-9.37,23.438q-1.47,1.951-2.74,3.906-2.34,4.688,1.57,8.106,4.2,3.026,8.1-1.172,5.28-6.544,9.28-17.578a91.059,91.059,0,0,0,4.2-14.844q0.39-2.345,2.34-1.953c1.37,0,1.89.749,1.57,2.246q-1.47,6.055-3.03,12.109-1.275,5.079,3.71,8.4a10.608,10.608,0,0,0,3.91,1.171h37.59a0.327,0.327,0,0,1,.1.391,18.055,18.055,0,0,1-7.03,1.367h-7.23c-3.38.391-5.21,2.213-5.47,5.469-0.32,3.255,1.14,5.435,4.4,6.543a32.754,32.754,0,0,0,7.81,1.27h5.76a22.791,22.791,0,0,0,9.28-2.149,8.592,8.592,0,0,0,3.71-3.125,26.848,26.848,0,0,0,3.13-7.422,3.218,3.218,0,0,1,3.22-2.344h3.81a5.286,5.286,0,0,0,3.71-2.148,5.428,5.428,0,0,0,1.27-4.3q-1.17-5.467-6.55-4.785a1.975,1.975,0,0,1-2.24-2.344l1.17-8.008a2.507,2.507,0,0,1,2.74-2.343,4.773,4.773,0,0,0,2.53-.489q3.81-2.246,3.13-6.152-0.5-3.516-4.3-4.492c-1.69-.13-2.44-0.911-2.24-2.344l0.48-6.445q0.78-7.519-.29-10.352a6.619,6.619,0,0,0-2.93-3.711,9.916,9.916,0,0,0-3.9-1.465h-42.78a2.349,2.349,0,0,1-.88.2c-1.56.456-1.89-.2-0.97-1.953q1.56-2.637,3.9-2.637h48.64a5.922,5.922,0,0,0,4.39-4q0.78-6.054-4.49-7.129h-44.14c-1.56,0-2.28-.65-2.15-1.953q0.2-4.687-5.08-5.957-4.785.1-6.15,4.2a43.463,43.463,0,0,1-5.57,13.379h0Zm-24.61,18.75a43.853,43.853,0,0,1,6.94,6.543q3.9,5.567,7.32,5.371a6.517,6.517,0,0,0,5.18-4,4.747,4.747,0,0,0,.09-3.906q-0.975-2.44-6.25-7.715-5.175-5.37-8.3-6.348a5.308,5.308,0,0,0-5.86,2.247q-2.925,4.3.88,7.812h0Zm46.19-1.66c1.83,0,2.64.815,2.45,2.441a7.736,7.736,0,0,0,1.95,4.688c0.78,1.172,1.5,2.312,2.15,3.418q1.365,2.442-.98,2.441h-10.35c-1.5,0-2.05-.845-1.66-2.539q0.87-4.3,1.46-8.5a2.968,2.968,0,0,1,1.47-1.758,17.087,17.087,0,0,1,3.51-.195h0Zm28.23,2.246a63.127,63.127,0,0,1-.39,8.4,2.394,2.394,0,0,1-2.64,2.344h-4.59a2.316,2.316,0,0,1-2.54-2.441,27.694,27.694,0,0,0-4-8.2q-1.665-2.344.78-2.344h9.18a14.156,14.156,0,0,1,3.02.195,2.187,2.187,0,0,1,1.18,2.051h0Zm-27.25,28.809a38.2,38.2,0,0,1,2.05,3.418q1.17,2.442-1.17,2.441H1139.1q-2.34-.2-2.34-1.953a55.334,55.334,0,0,1,1.56-8.4,2.92,2.92,0,0,1,3.03-2.343h5.47c1.62,0,2.21.424,1.75,1.269a6.362,6.362,0,0,0,.98,5.567h0Zm23.83,3.515a2.636,2.636,0,0,1-2.83,2.344h-3.91a3.392,3.392,0,0,1-3.32-2.344q-1.275-2.83-4.2-8.008-1.365-2.343,1.08-2.343h12.4c1.49,0,2.18.814,2.05,2.441Zm28.12-57.812v80.664a5.535,5.535,0,0,0,3.32,4.785,5.612,5.612,0,0,0,6.25-.879,7.323,7.323,0,0,0,1.96-3.906V738.1c0-1.563.81-2.344,2.44-2.344h19.82q3.42-.293,6.45-4.1a9.445,9.445,0,0,0,1.37-3.906V706.652a8.818,8.818,0,0,0-3.62-5.957,10.262,10.262,0,0,0-3.9-1.562h-26.96a7.744,7.744,0,0,0-5.66,3.222,9.982,9.982,0,0,0-1.47,3.907h0Zm46.49,22.07a8.278,8.278,0,0,0,3.81,6.152,9.467,9.467,0,0,0,3.9,1.27h19.63a2.077,2.077,0,0,1,2.35,2.344v36.425c-0.39,2.539-1.44,4.068-3.13,4.59a17.01,17.01,0,0,1-4.39-.39q-2.355-.686-0.78-2.246a6.879,6.879,0,0,0,1.75-3.516V744.934q-1.365-5.077-5.86-5.469h-40.52q-4.3,1.27-5.08,5.176v28.515q0.39,4.688,5.37,5.957h35.06q2.34,0,.68,2.344a5.824,5.824,0,0,0-.68,3.32,5.383,5.383,0,0,0,3.42,4.883,37.212,37.212,0,0,0,13.47,1.66,17.484,17.484,0,0,0,5.28-1.269,11.231,11.231,0,0,0,6.15-6.739,17.31,17.31,0,0,0,.78-3.906v-73.34q-1.56-6.346-7.03-6.933h-27.25c-3.51.326-5.83,2.539-6.93,6.64v22.559ZM1217.52,708.8h11.82a2.8,2.8,0,0,1,2.34,2.929c-0.07.652-.88,0.977-2.44,0.977h-13.87q-2.34,0-2.34-1.074a2.871,2.871,0,0,1,1.85-2.735,17.424,17.424,0,0,1,2.64-.1h0Zm57.71,0a3.124,3.124,0,0,1,2.45,2.832c0,0.717-.82,1.074-2.45,1.074h-13.37q-2.355,0-2.25-1.367,0-1.854,2.25-2.539h13.37Zm-46.19,17.285h-13.67q-2.34,0-2.34-2.148c0-1.368.81-2.051,2.44-2.051h13.87c1.49,0,2.24.488,2.24,1.465,0.07,1.3-.78,2.214-2.54,2.734h0Zm46.29,0h-13.47a3,3,0,0,1-2.35-3.125c0-.716.82-1.074,2.44-1.074h13.38c1.56,0,2.38.717,2.44,2.148-0.06,1.367-.88,2.051-2.44,2.051h0Zm-18.55,22.949a5.869,5.869,0,0,1,2.83.391,6.471,6.471,0,0,1,.29,2.636q0,2.149-2.34,2.149h-24.32a2.07,2.07,0,0,1-2.34-2.344q0-2.245.39-2.637a9.932,9.932,0,0,1,2.73-.2h22.76Zm2.93,19.922c-0.52.586-1.57,0.781-3.13,0.586h-22.56c-1.56.2-2.57-.032-3.02-0.684l-0.1-2.636c0-1.563.81-2.344,2.44-2.344h24.22q2.34,0,2.34,2.441a8.767,8.767,0,0,1-.19,2.637h0ZM263.418,881.164v32.52a2.071,2.071,0,0,1-2.344,2.343h-5.957q-5.47,1.173-5.469,6.055,0.1,4.884,5.372,5.859H259.9a2.072,2.072,0,0,1,2.344,2.344V950.7a2.387,2.387,0,0,1-2.344,2.637q-3.027.293-6.152,0.684a4.772,4.772,0,0,0-3.613,2.539q-2.541,5.369,1.953,9.082a15.753,15.753,0,0,0,3.418.879,88.876,88.876,0,0,0,18.359-2.246q15.624-3.029,23.438-6.836,2.83-1.662,3.32-3.321a6.576,6.576,0,0,0,.195-2.929,5.782,5.782,0,0,0-4.3-5.274,23.565,23.565,0,0,0-8.593,1.856L276.6,950.7q-2.344.487-2.344-1.855V930.285q0-2.343,2.441-2.344h5.86a4.593,4.593,0,0,1,3.906,2.344,95.439,95.439,0,0,0,8.5,10.938q16.209,17.871,36.426,23.437a26.62,26.62,0,0,0,8.2,1.563q4.883-.586,5.859-5.762,0.488-4.98-4.785-6.738a93.787,93.787,0,0,1-19.043-5.86q-2.442-1.268-.1-3.027,6.054-4.588,11.426-9.082,3.612-3.223,2.539-6.348-0.684-1.464,1.758-1.465h2.344l0.488-.2a3.5,3.5,0,0,0,1.953-.684,6.555,6.555,0,0,0,2.539-7.226,5.314,5.314,0,0,0-4.882-3.809H277.676q-2.344,0-2.344-1.562,0-1.367,2.441-1.367h52.442q3.222-.195,4.59-3.907a5.7,5.7,0,0,0-1.465-5.859,5.416,5.416,0,0,0-2.93-1.367H277.676q-2.344,0-2.344-1.563,0-1.367,2.441-1.367h52.051q2.733-.292,4.3-4,0.975-6.054-4.492-7.129H277.773c-1.562,0-2.377-.161-2.441-0.488a2.552,2.552,0,0,1,1.953-2.246,11.251,11.251,0,0,1,2.832-.2h53.809q4.784-.682,5.273-5.274-0.1-4.98-5.176-5.859H270.645a12.73,12.73,0,0,0-2.247.586q-4.785,2.637-4.98,6.738h0Zm47.754,56.152q-2.345,1.466-4.981-.976a66.685,66.685,0,0,1-4.98-6.055q-1.758-2.343.684-2.344h19.531q2.343,0-.2,1.856-4.3,3.516-10.058,7.519h0Zm42.969-55.566V925.4a147.585,147.585,0,0,1-1.368,16.6,53.237,53.237,0,0,1-4.589,15.625,6.041,6.041,0,0,0,3.125,7.324,7.06,7.06,0,0,0,4.2.488q1.854-.392,3.418-3.125A52.5,52.5,0,0,0,364,946.691a129.744,129.744,0,0,0,1.367-16.894V886.926a3.214,3.214,0,0,1,2.832-2.735H418.5a2.947,2.947,0,0,1,2.344,1.465,9.933,9.933,0,0,1,.39,3.321l-0.1,5.566v16.6q0.1,23.34,1.953,37.6c0.195,1.563.227,2.31,0.1,2.246q-3.128-5.663-6.446-11.23a3.571,3.571,0,0,1-.195-4.688,8.239,8.239,0,0,0,.781-2.539V909.289q-1.171-5.076-6.543-5.859h-9.863q-2.344,0-2.344-2.442a2.316,2.316,0,0,1,2.442-2.539,66.771,66.771,0,0,0,15.332-2.637,4.817,4.817,0,0,0,2.441-3.613,5.921,5.921,0,0,0-2.441-6.152,7.5,7.5,0,0,0-4.883-.391,205.188,205.188,0,0,1-32.91,2.832h-7.617a4.9,4.9,0,0,0-1.954.586,6.2,6.2,0,0,0-2.343,7.813,5.569,5.569,0,0,0,5.273,2.832q6.249,0,13.086-.293,2.343-.1,2.344,1.953T385,903.43H374.551a7.694,7.694,0,0,0-5.957,5.664V933.02q0.78,5.469,5.957,6.25H385a2.072,2.072,0,0,1,2.344,2.343v6.25A2.316,2.316,0,0,1,384.9,950.4l-18.164,1.953q-4.591.975-4.98,5.079a7.714,7.714,0,0,0,.683,3.711,6.365,6.365,0,0,0,7.422,2.929l42.09-4.59a3.569,3.569,0,0,1,3.613,2.149,11.1,11.1,0,0,0,2.246,3.027,3.7,3.7,0,0,0,3.321.977,5.27,5.27,0,0,0,4.785-2.93q0.683-2.343,2.441,0,4.882,4.783,9.18,1.465a7.892,7.892,0,0,0,3.027-3.613,33.007,33.007,0,0,0,2.246-7.813,102.117,102.117,0,0,0,1.465-16.211q-0.2-4.1-4-4.492-4.1.293-4.492,4.98v8.106a28.242,28.242,0,0,0-.195,3.32q-0.587,2.345-.977,2.246a1.121,1.121,0,0,1-.879-1.074q-1.172-6.054-1.367-20.605V905.188l0.293-24.024a8.636,8.636,0,0,0-4.3-7.031,10.406,10.406,0,0,0-3.906-1.074H362.637a13.278,13.278,0,0,0-4.3,1.171,9.644,9.644,0,0,0-4.2,7.52h0ZM387.344,917v8.789q0,2.343-2.832,2.344a13.791,13.791,0,0,1-3.223-.2,2.612,2.612,0,0,1-1.465-1.66v-9.668a2.135,2.135,0,0,1,1.367-1.855,27.849,27.849,0,0,1,3.223-.1q2.93,0,2.93,2.344h0Zm18.554-.781a11.23,11.23,0,0,1,.2,2.832v7.129a2.2,2.2,0,0,1-.977,1.562,11.587,11.587,0,0,1-3.711.391q-2.834,0-2.832-2.442V917q0-2.345,2.442-2.344h3.125a2.336,2.336,0,0,1,1.757,1.563h0Zm1.465,29.589q1.269,2.345-1.172,2.54a51.065,51.065,0,0,1-5.273.488,1.98,1.98,0,0,1-2.344-2.246v-4.981q0-2.343,2.442-2.343h3.808q2.246,0,1.563,1.66a7.1,7.1,0,0,0,.976,4.882h0ZM489.1,875.5v10.645q0.585,19.043,4.2,32.714,0.585,2.345-1.563,2.344-1.954,0-1.172-.976a3.715,3.715,0,0,0,.586-3.614,78.22,78.22,0,0,0-5.371-15.625q-2.05-3.125-4.687-2.734-0.978.2,0.683-2.149,3.125-4.3,5.274-7.812,2.439-4-.489-6.836-4.2-3.025-7.324.586l-5.859,8.984q-1.662,2.344-3.027,1.172t0.293-3.515q5.273-7.324,6.445-11.914,0.585-4-4.1-5.567-4.393-.975-6.836,4.3a70.829,70.829,0,0,1-3.711,7.031q-1.464,2.345-3.808,1.367-3.42-.975-5.86,2.735a5.141,5.141,0,0,0-.585,3.906,5.66,5.66,0,0,0,2.929,3.418,63.879,63.879,0,0,1,7.813,5.762q2.439,2.149.586,4.492l-2.442,3.027a6.622,6.622,0,0,1-4.394,2.539q-6.936.783-5.567,7.227a4.937,4.937,0,0,0,2.93,3.32,8.791,8.791,0,0,0,3.223.293q10.935-1.56,21.875-3.027a2.642,2.642,0,0,1,3.125,1.66q1.171,1.955-1.172,1.953H463.027q-6.348,1.172-6.933,7.031v8.4a35.776,35.776,0,0,1-5.664,17.773,17.2,17.2,0,0,0-2.539,3.906,5.2,5.2,0,0,0-.293,3.809q1.171,3.808,5.664,4.1,3.026-.686,6.543-5.176a37.753,37.753,0,0,0,6.25-15.43q0.585-2.439,2.734-1.562,4.589,1.856,14.16,7.031,4.3,2.245,7.324-2.539,2.148-4-2.734-7.129a60.4,60.4,0,0,0-7.812-4.3q-3.712-1.854-7.422-3.418a12.863,12.863,0,0,1-2.442-1.367,5.747,5.747,0,0,1,3.125-.293h22.559a3.7,3.7,0,0,1,3.418,2.441q1.952,3.908,4.785,8.4,1.465,2.343-.879,3.515a83.306,83.306,0,0,1-21.777,7.52q-5.178,1.074-5.274,5.957,0.488,4.1,3.614,5.273a15.23,15.23,0,0,0,7.128-.586,104.554,104.554,0,0,0,23.34-9.57q2.344-1.368,4.981,1.074a38.815,38.815,0,0,0,12.695,7.911q4.98,1.854,7.813.976a8.2,8.2,0,0,0,3.808-2.441,26.062,26.062,0,0,0,3.418-7.813,39.108,39.108,0,0,0,1.465-7.91q-1.171-4.784-5.762-4.785-4.98,1.171-4.785,6.152a13.566,13.566,0,0,1-.976,4.1,2.28,2.28,0,0,1-1.758.488,17.918,17.918,0,0,1-6.739-3.711q-2.343-1.854.293-3.906l1.954-1.66q4.784-4,5.175-6.543a4.57,4.57,0,0,0-.781-3.418q-0.976-1.466,1.367-1.465a16.536,16.536,0,0,0,5.664-.391,4.333,4.333,0,0,0,3.321-2.832q1.659-6.346-4.883-7.617H528.75q-2.343,0-2.344-1.172a4.933,4.933,0,0,0-1.367-2.734q-2.149-2.147.2-2.539,1.366-.294,2.637-0.488a2.953,2.953,0,0,1,3.418,1.953,7.251,7.251,0,0,0,2.734,3.222,5.129,5.129,0,0,0,5.86-.976q2.05-1.953,1.465-3.907-1.173-6.444-6.348-15.624a6.332,6.332,0,0,0-4.883-3.711q-1.662.1-.195-2.149l4-6.348q2.733-4.588-1.367-7.617-4.591-1.952-7.032,2.442l-5.957,9.277q-1.464,2.442-2.832,1.172t0.1-3.516a70.364,70.364,0,0,0,6.25-12.207q1.074-3.709-3.711-5.859-4.395-1.074-6.836,4-1.662,3.712-3.613,7.324-1.171,2.343-2.832,1.562a5.376,5.376,0,0,0-4.2.1q-1.565.978-1.563-1.367v-6.25q-0.879-5.567-6.25-5.469a5.682,5.682,0,0,0-4.98,5.176h0Zm20.214,24.023q2.54,2.541.586,5.079-2.05,2.442-3.515,2.539a14.824,14.824,0,0,0-2.93,1.367q-1.27,1.27-1.758-1.172-0.879-6.542-1.172-12.988-0.1-2.245,2.442-.293,3.125,2.442,6.347,5.468h0ZM523.77,904.9q-2.149.293-.684-1.758,1.366-2.05,1.855-.2,0.975,1.564-1.171,1.954h0ZM476.5,908.117a11.315,11.315,0,0,0-1.563.1q-2.442.2-.488-2.246,1.854-2.345,2.735-.2,0.878,2.052-.684,2.344h0Zm31.348,9.668q2.343-.389,2.539.391a8.147,8.147,0,0,0,1.074,1.855q1.171,1.172-1.172,1.172h-3.027a3.047,3.047,0,0,1-3.125-2.246q-0.783-2.147.781-1.465a6.425,6.425,0,0,0,2.93.293h0Zm8.5,19.434q-2.248,1.955-3.907-.586l-1.464-2.246q-1.369-2.344.976-2.344h7.813q2.439,0-.1,2.148Zm92.675-62.4q-0.1,1.466-2.441,1.465H586.66q-2.343,0-2.539-1.465a5.8,5.8,0,0,0-3.223-3.906,6.833,6.833,0,0,0-4.3-.39,5.268,5.268,0,0,0-3.907,4.3q-0.2,1.466-2.539,1.465H553.848a4.981,4.981,0,0,0-4.493,3.614q-1.464,5.763,4.395,7.226h16.406q2.345,0,2.637,1.856,0.683,1.954-1.66,1.953h-6.348Q560,892.2,559.512,896.5v22.168a6.233,6.233,0,0,0,5.371,6.152h23.535q2.343,0,2.344,1.563,0,1.464-2.344,1.465H560.684q-2.931.2-5.664,3.222a7.94,7.94,0,0,0-1.758,3.907v26.855q0.585,4.491,4.785,5.176,5.37,0.292,6.445-5.371v-21a3.484,3.484,0,0,1,2.832-2.735h21.094q2.343,0,2.344,2.93,0,2.834-2.344,3.125-8.887.587-17.676,1.27a5.535,5.535,0,0,0-4.3,3.222,5.932,5.932,0,0,0,.586,5.86,5.306,5.306,0,0,0,2.832,1.855,7.335,7.335,0,0,0,2.442.2q21.581-1.954,42.871-3.808,2.538-.2,3.125.586,0.879,1.072-.684.879a6.344,6.344,0,0,0-6.25,4.492q-1.27,6.639,6.348,7.617a77.2,77.2,0,0,0,10.644.391,21.52,21.52,0,0,0,7.813-1.856,9.524,9.524,0,0,0,4.1-7.519V935.559l-0.488-2.149q-2.343-4.98-6.738-5.566H604.336q-2.344,0-2.344-1.563,0-1.464,2.442-1.465H627.09a6.356,6.356,0,0,0,4.1-2.148,7.159,7.159,0,0,0,2.051-3.906V896.691q-0.292-4.394-5.664-5.761h-5.762q-2.343,0-1.562-1.953,0.389-1.854,2.734-1.856H639.3a5.084,5.084,0,0,0,3.808-2.539q1.269-1.953.391-5.273a5.2,5.2,0,0,0-4.394-3.028H622.988q-2.343,0-2.539-1.465a9.535,9.535,0,0,0-1.172-2.441q-3.027-2.832-6.25-1.855a5.5,5.5,0,0,0-4,4.3h0Zm-1.66,16.114H585.391q-2.442,0-1.368-1.953,0.294-1.854,2.637-1.856h19.922q2.345,0,2.539,1.953,0.587,1.857-1.758,1.856h0ZM588.32,900.6q2.345,0,2.442,1.367,0,1.464-2.344,1.465H573.184q-2.344,0-2.442-.782,0.39-2.731,4-2.05H588.32Zm33.692,2.05q0,0.783-2.344.782H604.336q-2.344,0-2.344-1.465,0-1.367,2.442-1.367h13.378a14.2,14.2,0,0,1,3.028.2,1.873,1.873,0,0,1,1.172,1.855h0Zm-33.594,12.5H572.5a2.251,2.251,0,0,1-1.758-1.855q-0.1-.975,2.246-0.977h15.528q2.246,0,2.246,1.465,0,1.37-2.344,1.367h0Zm32.715-.488a8.029,8.029,0,0,1-3.321.488H604.336q-2.344,0-2.344-1.464,0-1.366,2.442-1.368h15.332q2.246,0,2.246.782a1.928,1.928,0,0,1-.879,1.562h0ZM608.828,942.4l-4.492.293q-2.344.1-2.344-2.344a2.158,2.158,0,0,1,2.442-2.442h4.492q2.343,0,1.953,2.246,0.292,2.052-2.051,2.247h0Zm20.215-1.661v10.84a4.438,4.438,0,0,1-.781,2.539,2.128,2.128,0,0,1-2.051,1.172q-0.879-.1.977-2.051,1.56-2.051.2-5.566a34.4,34.4,0,0,0-4.395-7.422q-1.955-2.343.879-2.344a23.525,23.525,0,0,1,3.028.1,3.666,3.666,0,0,1,2.148,2.734h0Zm61.133-66.8a2.275,2.275,0,0,1-2.539,2.343H653.848q-5.274,1.466-3.614,6.543a4.419,4.419,0,0,0,3.418,2.735h83.887a4.335,4.335,0,0,0,3.516-2.735,5.423,5.423,0,0,0,.1-3.906,4.015,4.015,0,0,0-3.418-2.637H701.9q-2.344,0-2.344-1.562-0.783-4.4-5.762-4.2a4.268,4.268,0,0,0-3.613,3.418h0ZM655.8,894.25v20.117q1.659,4.982,6.152,5.567H686.66q2.345,0,2.344,1.464t-2.344,1.465H661.27a4.239,4.239,0,0,0-3.614,3.711q-0.2,3.615,3.516,4.688H686.66q2.345,0,2.344,1.465,0,1.368-2.344,1.367H653.066q-4.591,1.171-4,5.468,0.879,3.516,4,3.809h9.375a17.212,17.212,0,0,1,2.637.1q0.39,0.2-2.246,1.367l-6.641,2.637a15.621,15.621,0,0,1-3.906,1.367,4.82,4.82,0,0,0-3.808,2.051,4.211,4.211,0,0,0-1.075,2.929q0.39,4.688,4.493,4.981,7.126-.49,15.234-5.274,2.343-1.271,2.344,1.075a2.277,2.277,0,0,1-2.344,2.539,35.835,35.835,0,0,0-3.906.39q-2.929.39-3.711,1.953-1.563,4.1,1.562,6.641a10.178,10.178,0,0,0,3.906.977,75.059,75.059,0,0,0,14.454-1.465,83.5,83.5,0,0,0,15.625-4,4.633,4.633,0,0,0,2.539-3.516,5.53,5.53,0,0,0-2.637-5.273,4.04,4.04,0,0,0-2.93-.293q-4.1,1.267-9.375,2.539-2.343.487-2.344-1.856V947.18q0-2.345.879-3.125a5.5,5.5,0,0,1,3.223-.684h2.93q2.343,0,4.492,2.734A54.347,54.347,0,0,0,716.348,963.1a76.289,76.289,0,0,0,15.625,3.32q5.663,0.78,8.5-.488,2.538-1.758,2.636-3.614a5.531,5.531,0,0,0-1.367-4.785,10.588,10.588,0,0,0-3.906-1.367q-3.614-.489-7.812-0.684-3.713-.489-7.325-1.171-2.442-.49,0-2.149l3.614-2.832q3.222-2.343,2.734-4.883-0.1-1.073,2.246-1.074h6.738a4.463,4.463,0,0,0,3.516-2.734q1.268-3.808-1.465-5.762a4.643,4.643,0,0,0-1.953-.781H702.188q-2.345,0-2.344-1.465,0-1.367,2.441-1.367h27.93a4.338,4.338,0,0,0,1.855-.782q2.929-2.831.879-6.054a4.567,4.567,0,0,0-2.832-1.563H702.188q-2.345,0-2.344-1.562,0-1.367,2.441-1.367H730.02q4.881-1.269,5.761-5.86V894.25a8.835,8.835,0,0,0-1.465-3.516,6.711,6.711,0,0,0-3.711-2.343h-69.14a6.569,6.569,0,0,0-5.664,5.859h0Zm30.859,2.637q2.345,0,2.344,1.66t-2.344,1.66H669.082q-2.343,0-2.441-.977a2.053,2.053,0,0,1,.879-1.855,8.475,8.475,0,0,1,3.32-.488h15.82Zm38.379,2.246q0,1.075-2.344,1.074H702.188q-2.345,0-2.344-1.758,0-1.56,2.441-1.562h20.508q2.245,0.489,2.246,2.246h0Zm-38.379,12.3H670.84a8.965,8.965,0,0,1-3.223-.391,3.448,3.448,0,0,1-.976-1.953q0-1.269,2.343-1.27H686.66q2.345,0,2.344,1.856,0,1.758-2.344,1.758h0Zm37.012-.391a9.871,9.871,0,0,1-3.32.391H702.188q-2.345,0-2.344-1.856,0-1.758,2.441-1.758H722.6q2.343,0,2.441,1.172a2.323,2.323,0,0,1-1.367,2.051h0Zm-11.719,36.426a3.923,3.923,0,0,1-4.687-.391l-2.051-1.562q-2.249-2.148.1-2.149h10.645q2.345,0-.391,1.856Zm126.563-69.825a49.177,49.177,0,0,1-7.325,25.391q-1.757,2.637-1.757.1v-20.02q-1.27-5.37-5.957-5.957H806.289q-5.371,1.27-5.957,6.25V946.4q0.587,5.567,6.445,6.739h16.114a8.684,8.684,0,0,0,6.543-6.739V915.344q0-2.345,2.441-1.074a12.88,12.88,0,0,0,2.93.976q1.854,0.391,3.906-1.562a29.454,29.454,0,0,0,2.832-3.907,67.933,67.933,0,0,0,6.543-15.234,3.122,3.122,0,0,1,3.223-2.344,2.071,2.071,0,0,1,2.343,2.344v8.984a76.92,76.92,0,0,1-1.172,11.133,58.3,58.3,0,0,1-15.722,31.25,53.279,53.279,0,0,1-11.426,9.082q-4.687,3.32-2.832,7.617,1.758,3.808,5.078,3.809,10.643-1.857,22.559-17.383a69.472,69.472,0,0,0,8.886-15.332q0.879-2.538,1.856-.1,5.37,13.77,20.508,29.786,3.809,4.1,7.324,3.222a5.767,5.767,0,0,0,3.711-2.636q2.439-4.395-.684-7.813a116.061,116.061,0,0,1-8.5-8.2,66.518,66.518,0,0,1-13.769-23.438,78.929,78.929,0,0,1-3.418-15.625,28.713,28.713,0,0,1-.391-7.91v-6.445q0-2.345,2.441-2.344h9.278a9.9,9.9,0,0,1,2.734.2,2.882,2.882,0,0,1,.879,2.929,22.616,22.616,0,0,1-1.269,4.883,148.064,148.064,0,0,1-7.129,15.625q-2.149,5.567,5.078,7.715,4.783,0.489,7.031-5.274a75.394,75.394,0,0,0,8.4-27.343,12.534,12.534,0,0,0-.293-5.469,8.15,8.15,0,0,0-6.933-4.883h-32.91q-2.345,0-2.344-2.441a11.5,11.5,0,0,0-.879-5.274,4.483,4.483,0,0,0-2.637-2.148q-4.884-1.659-7.519,2.246a7.8,7.8,0,0,0-1.074,4.687h0Zm-20.7,12.5a17.084,17.084,0,0,1,.1,2.637V939.27a3.633,3.633,0,0,1-.781,1.757,5.354,5.354,0,0,1-3.223.489,2.117,2.117,0,0,1-1.465-.782,6.1,6.1,0,0,1-.488-3.515V892.98a4.8,4.8,0,0,1,.684-3.613,3.16,3.16,0,0,1,2.734-.683,2.823,2.823,0,0,1,2.441,1.464h0Zm124.9-14.746a2.072,2.072,0,0,1-2.344,2.344H911.66q-5.958.978-6.836,7.422v42.285a74.227,74.227,0,0,1-5.371,26.856q-2.735,5.076.293,8.2a6.183,6.183,0,0,0,4.883,1.758,5.449,5.449,0,0,0,4-2.247,20.863,20.863,0,0,0,2.148-4,79.457,79.457,0,0,0,5.567-27.735V906.066q0-2.343,2.441-2.343h4.395a2.071,2.071,0,0,1,2.343,2.343v5.176q1.561,6.936,7.325,7.324H968.5l0.977-.2a7.067,7.067,0,0,0,6.152-4.1,18.319,18.319,0,0,0,.977-8.2q0-2.343,2.441-2.343H989.2q4.59-1.366,4.59-5.469,0.389-4.588-4.687-5.762H978.945q-2.343,0-2.343-1.855,0-1.758,2.441-1.758h8.887q3.809-.683,4.687-3.223a5.425,5.425,0,0,0-.976-6.152,8.271,8.271,0,0,0-3.907-1.758H956.68q-2.345,0-2.344-1.953a5.1,5.1,0,0,0-3.223-5.176,5.943,5.943,0,0,0-4.3-.488,5.649,5.649,0,0,0-4.1,5.273h0Zm-19.531,13.477q2.343,0,2.343,1.855,0,1.758-2.343,1.758h-4.395q-2.343,0-2.441-.879,0.488-3.417,4.492-2.734h2.344Zm39.453,3.613H939.4q-2.344,0-2.344-1.855,0-1.758,2.441-1.758h23.242q2.245,0,2.344,1.855-0.1,1.758-2.441,1.758h0Zm-1.075,14.844H942.031a12.607,12.607,0,0,1-2.929-.2,2.6,2.6,0,0,1-1.954-2.442q0-.975,2.344-0.976h23.242q2.245,0,2.051,1.074a3.346,3.346,0,0,1-3.223,2.539h0ZM919.57,929.211a5.679,5.679,0,0,0,4.688,4.2h43.359a10.58,10.58,0,0,1,2.832.2q0.39,0.391-2.051,2.735a66.275,66.275,0,0,1-13.671,8.887,4.981,4.981,0,0,1-4.688,0,165.671,165.671,0,0,1-17.285-9.375q-3.908-2.931-7.227-.879a5.6,5.6,0,0,0-2.929,4.589q0,4.395,5.273,6.836l6.836,3.809q2.245,1.367-.1,1.953-10.254,2.246-17.773,3.223-5.079.78-5.274,5.762,0,4.784,5.079,6.152a12.939,12.939,0,0,0,4.1-.586,214.235,214.235,0,0,0,31.25-8.106,1.674,1.674,0,0,1,.977-0.1,196.7,196.7,0,0,0,26.367,7.422q6.834,1.367,9.668.781,4.98-.879,5.273-5.859a5.869,5.869,0,0,0-5.273-5.86q-10.254-1.27-19.043-3.222-2.442-.49,0-2.149a79.735,79.735,0,0,0,9.473-7.129,34.056,34.056,0,0,0,7.128-8.5q2.148-4.3.782-7.812a6.334,6.334,0,0,0-5.176-3.907H926.6a17.935,17.935,0,0,0-4,.293q-4.1,2.345-3.028,6.641h0Zm86.04-44.043h31.34a2.073,2.073,0,0,1,2.35,2.344V908.02a2.073,2.073,0,0,1-2.35,2.343h-28.02a5.522,5.522,0,0,0-4.69,4.2q-1.08,6.153,5.17,7.325h27.54a2.073,2.073,0,0,1,2.35,2.343v25.489a2.073,2.073,0,0,1-2.35,2.343h-34.76q-4.01.39-5.178,4.883-0.391,5.469,5.278,6.739h87.01a4.893,4.893,0,0,0,2.93-1.465q3.51-3.908.88-8.008a5.38,5.38,0,0,0-3.81-2.149h-35.26q-2.34,0-2.34-2.441V924.23c0-1.562.81-2.343,2.44-2.343h27.74q5.76-1.758,4.68-7.52a5.165,5.165,0,0,0-4.68-4h-27.84q-2.34,0-2.34-2.441v-20.41c0-1.563.81-2.344,2.44-2.344h31.54a5.726,5.726,0,0,0,4.98-5.566q0.3-4.883-4.98-5.957h-80.17q-5.175,1.172-4.98,6.543,0.585,4.2,5.08,4.98h0Zm53.41,43.164q-0.48,3.029,4.59,7.715a85.368,85.368,0,0,1,8.6,11.719,9.346,9.346,0,0,0,1.56,1.855,5.572,5.572,0,0,0,3.91,1.27q5.565-1.173,5.27-6.348a7.182,7.182,0,0,0-1.47-3.613,142.282,142.282,0,0,0-12.3-15.625q-4.005-3.9-8.11-.879a6.432,6.432,0,0,0-2.05,3.906h0Zm41.9,33.5a5.606,5.606,0,0,0,4.49,5.371q6.255,0.879,7.42-5.469V925.012a2.118,2.118,0,0,1,2.44-2.344h18.46q7.71-1.562,8.89-9.082v-31.25c-0.2-2.6-1.66-4.915-4.4-6.934a10.765,10.765,0,0,0-3.9-1.367h-25.59q-6.735.978-7.81,7.91v79.883Zm47.26-47.461q1.47,7.521,8.6,8.3h18.75a2.07,2.07,0,0,1,2.34,2.344v24.511a6.081,6.081,0,0,1-1.85,3.809,3.178,3.178,0,0,1-2.93.879,27.273,27.273,0,0,1-3.91-.684l-7.81-2.05q-4.11-.587-6.25,3.613-2.055,4.688,1.66,7.617a20.211,20.211,0,0,0,7.81,2.93q12.5,2.051,18.26-.2a9.3,9.3,0,0,0,4.1-2.929,14.633,14.633,0,0,0,2.93-7.715V882.043a9.092,9.092,0,0,0-4-6.641,9.422,9.422,0,0,0-3.91-1.367H1155.9q-6.15.783-7.72,7.422v32.91Zm-20.11-28.808a2.589,2.589,0,0,1,2.24,1.66,5.386,5.386,0,0,1,.3,2.832,2.077,2.077,0,0,1-2.35,2.344h-13.08a2.117,2.117,0,0,1-2.35-2.442q-0.48-3.709,2.44-4.394h12.8Zm46.77,0a3.426,3.426,0,0,1,2.84,2.05,5.016,5.016,0,0,1,.19,2.442,2.07,2.07,0,0,1-2.34,2.344h-13.09a2.028,2.028,0,0,1-2.34-2.247q-0.585-3.808,2.83-4.589h11.91Zm-44.14,21.679c-0.06,2.149-1.01,3.418-2.83,3.809h-12.69a2.117,2.117,0,0,1-2.35-2.442v-2.343a2.118,2.118,0,0,1,2.44-2.344h12.99a2.168,2.168,0,0,1,2.44,2.344v0.976Zm47.17,1.465a2.07,2.07,0,0,1-2.34,2.344h-12.5a3.769,3.769,0,0,1-2.35-1.27,5.65,5.65,0,0,1-.58-3.711c0-1.431.81-2.148,2.44-2.148h12.99a2.07,2.07,0,0,1,2.34,2.344V908.7Zm22.46-29.687v82.812q0.3,4.1,4.98,5.078,4.89,0,5.86-5.273V935.754q0-2.441.78-1.465,1.86,2.05,3.42,1.758c1.11,0,1.4.781,0.88,2.344l-0.1.586v8.4q1.17,4.784,5.37,5.176c2.48-.066,4.95-0.034,7.43.1,0.13,0.13-.56.65-2.06,1.563a25.677,25.677,0,0,1-5.95,2.344q-4.11,2.147-2.93,6.738a5.348,5.348,0,0,0,2.93,2.93q6.24,1.268,14.74-5.469,6.75-6.545,7.13-12.6V939.27c-0.19-1.627,0-2.442.59-2.442a4.443,4.443,0,0,0,3.03-1.367,1.732,1.732,0,0,1,2.05-.391c0.52,0.132.58,0.62,0.19,1.465a16.872,16.872,0,0,0-.29,3.906v21.778q0.285,4.2,4.98,5.078,4.785,0.1,5.86-5.274V954.5c0-1.563.81-2.344,2.44-2.344h6.54q6.54-.783,6.74-6.933v-6.934q-0.39-2.345.78-2.051a8.463,8.463,0,0,0,2.44-.195q1.47-.587,1.47,1.758v13.574a6.632,6.632,0,0,1-1.66,3.516,3.781,3.781,0,0,1-3.32.488,7.269,7.269,0,0,0-5.86.488q-4.2,3.319-2.05,7.617a8.191,8.191,0,0,0,1.56,1.856,9.866,9.866,0,0,0,3.91,1.367,23.47,23.47,0,0,0,10.93-.684q6.75-2.636,7.33-10.058v-76.66q-0.69-5.37-6.25-6.739h-31.84q-5.85,1.465-6.34,6.348v18.848a8.952,8.952,0,0,0,1.95,4.589,6.02,6.02,0,0,0,3.32,2.149c1.5,0.261,1.72,1.172.68,2.734-1.11,1.5-2.24,2.019-3.42,1.563a4.209,4.209,0,0,0-3.71.488q-4.29,3.713-.58,7.715a58.679,58.679,0,0,1,5.86,4.492q2.43,2.249,0,4.3a1.482,1.482,0,0,1-1.47.781q-2.25,1.172-3.12-1.367l-1.08-2.637c-1.23-3.254-3.16-4.654-5.76-4.2-0.72.261-.49-0.455,0.68-2.148q3.135-3.516,1.27-6.836-4.59-4.3-8.1.683-1.275,1.857-2.74,3.809c-1.3,1.562-2.24,2.084-2.83,1.562-0.45-.454-0.03-1.5,1.27-3.125a30.682,30.682,0,0,0,3.22-5.078,3.229,3.229,0,0,1,3.23-2.343h2.63q6.06-.975,7.43-7.422V879.5a8.256,8.256,0,0,0-7.04-6.934h-30.85l-1.08.2a7.7,7.7,0,0,0-5.47,6.25h0Zm31.55,2.441a2.4,2.4,0,0,1,2.05,2.539q0.09,1.076-2.25,1.074h-18.16c-1.57,0-2.35-.422-2.35-1.269a3.717,3.717,0,0,1,.59-1.66,4.216,4.216,0,0,1,3.51-.684h16.61Zm45.21,0q2.64,0.879,2.64,2.539c0,0.717-.78,1.074-2.35,1.074h-18.26q-2.25,0-2.34-1.269,0-1.758,2.34-2.344h17.97Zm-44.63,14.258a9.877,9.877,0,0,1-3.32.39h-15.62c-1.57,0-2.35-.65-2.35-1.953,0-1.172.82-1.757,2.44-1.757h17.97c1.5,0,2.28.358,2.35,1.074a2.537,2.537,0,0,1-1.47,2.246h0Zm44.83,0.39h-17.97c-1.57-.39-2.38-1.2-2.44-2.441q0-1.268,2.34-1.269h18.16c1.5,0,2.28.619,2.35,1.855-0.07,1.237-.88,1.855-2.44,1.855h0Zm-60.36,12.5a5.81,5.81,0,0,0-2.63.586,5.109,5.109,0,0,0-2.54,3.614,4.708,4.708,0,0,0,1.95,4.3,45.836,45.836,0,0,1,5.37,4q2.25,2.052-.29,4.1a7.167,7.167,0,0,1-4.1,2.051,5.542,5.542,0,0,0-2.93,1.758c-0.39.717-.59,0.261-0.59-1.368v-20.41a2.118,2.118,0,0,1,2.44-2.343h6.25q2.445,0,.78,2.246c-1.17,1.432-2.4,1.921-3.71,1.464h0Zm62.7,14.161a16.217,16.217,0,0,1-.1,2.636c-0.13.132-.58-0.618-1.37-2.246-0.58-1.172-1.2-2.31-1.85-3.418q-2.145-3.318-4.4-3.027c-0.58.131-.32-0.618,0.79-2.246q3.4-3.808-.49-7.324-4.005-2.44-7.03,2.246a58.516,58.516,0,0,1-3.91,5.468q-1.95,2.249-2.93,1.27-0.975-.879,1.27-3.418a25.368,25.368,0,0,0,3.71-5.469,3.063,3.063,0,0,1,3.13-2.343h10.84a2.07,2.07,0,0,1,2.34,2.343v15.528Zm-11.82,2.246-1.56.1q-2.34.1-.39-1.953,1.755-1.854,2.25.1,0.975,1.563-.3,1.758h0Zm-32.42-1.074c0.46,1.107-.1,1.725-1.66,1.855q-2.73.293-.68-1.953c1.43-1.5,2.15-2.083,2.15-1.758Zm29.98,15.039q0.105,4.3-3.81,3.613-2.34,0-2.34-2.539a11.632,11.632,0,0,0-.49-3.809c-0.65-.911-0.19-1.431,1.37-1.562q2.235-.294,4.59-0.489c1.62-.129,2.05.391,1.27,1.563a10.987,10.987,0,0,0-.59,3.223h0Zm-32.23-2.637a17.492,17.492,0,0,0-.39,4.1q0,2.541-2.34,2.539c-1.11,0-2.18-.032-3.22-0.1-1.31-.846-1.79-1.856-1.47-3.028a11.815,11.815,0,0,0-.39-2.832c-0.58-.976-0.1-1.562,1.47-1.757l4.88-.391c1.5-.064,1.98.424,1.46,1.465h0Z"/>
  <path id="大写字母" class="cls-3" d="M144.031,481.453q-9.843,19.337-19.57,38.672a3.538,3.538,0,0,0,.41,4.687,3.732,3.732,0,0,0,3.516,1.055,3.251,3.251,0,0,0,1.992-1.875q1.583-3.4,3.223-6.8a2.369,2.369,0,0,1,2.168-1.406h24.316a2.143,2.143,0,0,1,2.051,1.406l2.519,5.391q1.875,5.039,5.918,2.519,2.518-2.343.938-4.687-9.963-19.922-20.039-39.844-1.994-2.343-5.567-1.172a4.205,4.205,0,0,0-1.875,2.051h0Zm14,27.363q0.645,1.466-.762,1.465H138.582q-1.405,0-.82-1.406l9.55-20.215q0.645-1.347,1.348.176ZM180.5,484.734v35.215a4.574,4.574,0,0,0,3.047,4.278,8.67,8.67,0,0,0,2.344.527h21.972a18.5,18.5,0,0,0,7.735-1.934,10.56,10.56,0,0,0,4.218-4.1,15.567,15.567,0,0,0,1.465-8.145,9.316,9.316,0,0,0-3.633-7.148,13.919,13.919,0,0,0-4.453-1.758q-1.405-.234-0.058-1.055,4.863-2.694,5.566-6.035,1.172-5.389-.351-8.848a8.2,8.2,0,0,0-3.985-3.925,18.275,18.275,0,0,0-7.031-1.641H186.008q-4.806.469-5.508,4.57h0Zm26.133,1.348a16.828,16.828,0,0,1,2.285.352,5.246,5.246,0,0,1,3.223,2.871,7.831,7.831,0,0,1,.293,5.1,6.515,6.515,0,0,1-3.633,4.043,8.584,8.584,0,0,1-2.344.586H188.41A1.269,1.269,0,0,1,187,497.566v-6.8a5.121,5.121,0,0,1,5.039-4.688h14.59Zm6.679,21.27a7.553,7.553,0,0,1,1.172,5.566,6.625,6.625,0,0,1-.761,2.344,7.878,7.878,0,0,1-6.68,3.691H192.16a11.636,11.636,0,0,1-2.4-.527A4.841,4.841,0,0,1,187,514.148v-8.086a1.269,1.269,0,0,1,1.465-1.406h18.164a14.045,14.045,0,0,1,4.453.879,5.808,5.808,0,0,1,2.226,1.817h0Zm19.36-15.7a26.694,26.694,0,0,0-2.344,9.375v3.457a26.874,26.874,0,0,0,3.223,11.836,19.014,19.014,0,0,0,8.554,7.559,26.669,26.669,0,0,0,9.434,2.051h3.223a27.385,27.385,0,0,0,4.277-.528,20.062,20.062,0,0,0,9.375-4.218q3.749-2.754,4.688-4.864a3.327,3.327,0,0,0-1.055-4.336q-2.228-1.523-4.688,1-5.272,5.448-9.668,6.386a17.356,17.356,0,0,1-11.015-.527,12.684,12.684,0,0,1-6.387-5.215,19.056,19.056,0,0,1-2.871-9.375v-3.164a20.23,20.23,0,0,1,1.348-5.918,16.649,16.649,0,0,1,7.675-8.613,16.32,16.32,0,0,1,10.9-1.172q3.867,0.879,9.375,6.211,2.577,2.46,4.687,1.64a2.641,2.641,0,0,0,1.934-2.4q0.175-2.284-2.227-4.8a21.611,21.611,0,0,0-4.629-3.867,23.367,23.367,0,0,0-4.687-2.051,26.759,26.759,0,0,0-20.508,2.051,22.021,22.021,0,0,0-8.613,9.492h0ZM285.605,481.1a4.377,4.377,0,0,0-1.933,2.05,7.935,7.935,0,0,0-.586,2.344v34.043l0.176,0.82a4.838,4.838,0,0,0,3.281,3.926,10.384,10.384,0,0,0,2.344.469h17.754a22.008,22.008,0,0,0,4.394-.7q5.274-1.231,9.668-6.739a23.571,23.571,0,0,0,4.277-11.718,27.923,27.923,0,0,0-2.988-15.7,17.961,17.961,0,0,0-15.351-9.727h-17.52a8.147,8.147,0,0,0-3.516.938h0Zm19.922,5.1a13.666,13.666,0,0,1,5.977,1.875,13.259,13.259,0,0,1,4.043,4.043,14.088,14.088,0,0,1,1.933,4.688,21.674,21.674,0,0,1-1.406,14.883,13.181,13.181,0,0,1-6.152,5.917,13.728,13.728,0,0,1-4.688,1.172H293.926l-1.055-.175a3.549,3.549,0,0,1-3.164-3.575V490.242a4.293,4.293,0,0,1,2.227-3.574,6.5,6.5,0,0,1,1.7-.469h11.894Zm31.664-5.1a5.518,5.518,0,0,0-1.933,3.75v34.921q0.468,4.629,5.273,4.981h33.106q2.109-.587,2.109-2.285a4.177,4.177,0,0,0-.176-2.52,2.513,2.513,0,0,0-2.05-1.523H346.566a4.478,4.478,0,0,1-4.687-3.985v-8.086a1.269,1.269,0,0,1,1.465-1.406H369.3a2.478,2.478,0,0,0,2.051-1.289,4.643,4.643,0,0,0,.293-3.281,2.662,2.662,0,0,0-2.52-1.817h-25.9a1.269,1.269,0,0,1-1.407-1.464v-6.27a5.787,5.787,0,0,1,.645-2.285,2.991,2.991,0,0,1,1.523-1.406,6.865,6.865,0,0,1,2.344-.528h24.492a9.114,9.114,0,0,0,2.285-.175,2.824,2.824,0,0,0,1.934-2.52,4.837,4.837,0,0,0-.352-2.578,2.832,2.832,0,0,0-1.992-1.172H340.648a8.426,8.426,0,0,0-3.457.938h0Zm50.18,0a5.514,5.514,0,0,0-1.933,3.75v38.086a3.049,3.049,0,0,0,2.109,2.812,4.332,4.332,0,0,0,2.344.059,2.961,2.961,0,0,0,2.168-2.93V506.355a1.269,1.269,0,0,1,1.464-1.406H417.2q2.93,0.353,3.867-1.7a4.242,4.242,0,0,0-.292-3.574,2.887,2.887,0,0,0-2.286-1.114H393.406A1.269,1.269,0,0,1,392,497.1v-6.27a5.77,5.77,0,0,1,.645-2.285,2.991,2.991,0,0,1,1.523-1.406,6.86,6.86,0,0,1,2.344-.528h25.547a3.127,3.127,0,0,0,2.461-3.164q0.176-2.812-2.286-3.281H390.828a8.421,8.421,0,0,0-3.457.938h0ZM443,482.332a18.928,18.928,0,0,0-4.922,4.57,22.762,22.762,0,0,0-3.926,9.375q-0.351,1.877-.586,4.688v3.574a29.77,29.77,0,0,0,2.4,10.078,19.805,19.805,0,0,0,8.144,8.906,21.26,21.26,0,0,0,11.426,2.4,18.264,18.264,0,0,0,12.305-5.625q1.288-1.407,1.289.058a7.556,7.556,0,0,0,.762,4.453,2.476,2.476,0,0,0,1.64,1,3.57,3.57,0,0,0,3.516-.938,4.671,4.671,0,0,0,.879-2.344v-17.05a3.922,3.922,0,0,0-1.465-2.872,4.768,4.768,0,0,0-2.344-.761H459.582a2.505,2.505,0,0,0-2.227,1.875,5.294,5.294,0,0,0-.058,2.343,2.725,2.725,0,0,0,2.812,2.227h8.262q1.407,0,.879,1.406-3.4,7.677-10.312,9.434a16.17,16.17,0,0,1-6.329.234,12.661,12.661,0,0,1-9.023-5.508,20.418,20.418,0,0,1-2.988-12.539,19.1,19.1,0,0,1,3.984-10.722q4.395-5.038,9.668-5.156a19.474,19.474,0,0,1,10.605,2.285A12.768,12.768,0,0,1,469.426,492a4.779,4.779,0,0,0,2.285,1.582q3.808,0.938,3.984-2.812a6.371,6.371,0,0,0-.527-2.051l-1.348-2.051a16.986,16.986,0,0,0-5.273-4.629,17.783,17.783,0,0,0-4.688-1.934,28.954,28.954,0,0,0-11.484-.878A21.339,21.339,0,0,0,443,482.332h0Zm43.09-.82v41.894a2.982,2.982,0,0,0,3.574,2.52,2.853,2.853,0,0,0,2.988-2.754v-17.11a1.269,1.269,0,0,1,1.465-1.406h23.848a1.243,1.243,0,0,1,1.406,1.406v17.286a2.854,2.854,0,0,0,3.047,2.578q3.046,0.351,3.516-2.813V482.039a2.727,2.727,0,0,0-1.758-2.754,4.779,4.779,0,0,0-3.516.176,2.234,2.234,0,0,0-1.113,1.641,3.373,3.373,0,0,1-.176.586v15.175a1.243,1.243,0,0,1-1.406,1.407H494.059a1.27,1.27,0,0,1-1.407-1.465V481.57a2.458,2.458,0,0,0-1.757-2.285,4.591,4.591,0,0,0-3.34.059,2.885,2.885,0,0,0-1.465,2.168h0Zm50.59,0v41.894a2.982,2.982,0,0,0,3.574,2.52,2.853,2.853,0,0,0,2.988-2.754v-41.6a2.458,2.458,0,0,0-1.758-2.285,4.589,4.589,0,0,0-3.339.059,2.882,2.882,0,0,0-1.465,2.168h0Zm47.894,0.234v27.363a14.324,14.324,0,0,1-.41,2.93,8.019,8.019,0,0,1-3.457,5.625q-11.6,5.919-21.621-8.262a3.635,3.635,0,0,0-3.984-1.172,2.962,2.962,0,0,0-1.875,1.934,5.345,5.345,0,0,0,1.113,5.039q7.089,9.9,16.523,10.606a26.174,26.174,0,0,0,11.426-1.289,12.093,12.093,0,0,0,7.676-7.5,26.443,26.443,0,0,0,1.23-7.032V481.453a2.408,2.408,0,0,0-.879-1.758,4.906,4.906,0,0,0-3.925-.468,2.765,2.765,0,0,0-1.817,2.519h0Zm16.9-.293v42.07a2.411,2.411,0,0,0,1.757,2.168,4.656,4.656,0,0,0,3.75-.293,3.191,3.191,0,0,0,1.114-2.168V508.7a3.161,3.161,0,0,1,1.465-2.519l6.328-4.864a1.493,1.493,0,0,1,2.4.352l16.172,22.852a3.714,3.714,0,0,0,2.519,1.406,3.652,3.652,0,0,0,2.4-.7q2.518-2.461.469-4.746-8.029-11.484-16.114-22.852a1.621,1.621,0,0,1,.469-2.461q6.21-4.746,12.363-9.316a6.119,6.119,0,0,0,2.285-2.11q1.349-2.694-1.523-4.394-2.4-1.054-4.629,1.23-11.6,8.673-23.2,17.461-1.407,1-1.406-.41V481.746a2.521,2.521,0,0,0-1.7-2.461,5.352,5.352,0,0,0-2.754-.117,2.5,2.5,0,0,0-2.168,2.285h0Zm48.6,0.059v37.91A5.3,5.3,0,0,0,654,524.285a7.828,7.828,0,0,0,2.344.469H685.7a2.537,2.537,0,0,0,2.461-2.285,4.949,4.949,0,0,0-.176-2.344,2.524,2.524,0,0,0-2.46-1.816H660.148q-2.871-.234-3.457-3.4V481.746a2.479,2.479,0,0,0-1.23-2.168,4.824,4.824,0,0,0-3.281-.351,2.545,2.545,0,0,0-2.11,2.285h0Zm47.426,0.293v41.367a2.963,2.963,0,0,0,1.231,2.285,4.638,4.638,0,0,0,3.515.234A2.627,2.627,0,0,0,704,523.172v-26.66l0.059-1.524a0.2,0.2,0,0,1,.175-0.176,11.93,11.93,0,0,1,.938,1.641q5.449,10.547,11.016,21.094,0.7,1.349,1.289,2.344a3.9,3.9,0,0,0,2.226,1.582,3.61,3.61,0,0,0,4.277-2.227l12.247-23.437a5.117,5.117,0,0,1,.468-0.7,0.317,0.317,0,0,1,.235.176v28.008a2.722,2.722,0,0,0,1.758,2.4q3.982,1.171,4.687-2.578V481.98a3.412,3.412,0,0,0-.645-2.168,2.877,2.877,0,0,0-2.05-.761,3.686,3.686,0,0,0-3.575,1.406,13.962,13.962,0,0,0-1.347,2.344L721.344,510.34q-0.762,1.406-1.524,0-7.676-14.707-15.527-29.414a4.231,4.231,0,0,0-4.57-1.817,2.953,2.953,0,0,0-2.227,2.7h0Zm56.684,0.058v41.309q0.468,2.813,2.988,2.754a3.863,3.863,0,0,0,2.344-.469,2.792,2.792,0,0,0,1.23-2.285V492.645q0-1.464,1.231.058l24.843,30.82a5.785,5.785,0,0,0,2.168,1.993q4.277,1.64,4.864-2.871v-40.84a2.729,2.729,0,0,0-2.578-2.754,5.148,5.148,0,0,0-2.52.351,3.224,3.224,0,0,0-1.465,2.227v30.293q0,1.349-1.23-.117l-24.727-30.938a4.9,4.9,0,0,0-4.98-1.758,3.1,3.1,0,0,0-2.168,2.754h0Zm52,9.317a27.415,27.415,0,0,0-2.168,9.375v3.515a26.757,26.757,0,0,0,3.105,11.543,18.7,18.7,0,0,0,8.2,8.028,27.435,27.435,0,0,0,19.981.82,17.819,17.819,0,0,0,8.73-7.149,23.678,23.678,0,0,0,3.4-9.374,35.185,35.185,0,0,0,.176-8.848,24.69,24.69,0,0,0-2.7-9.375,19.826,19.826,0,0,0-10.957-9.434Q823.167,477,813.969,482.1a20.014,20.014,0,0,0-7.793,9.082h0Zm32.109,0.351a17.686,17.686,0,0,1,2.7,7.031q1.464,9.2-3.222,15.879a12.789,12.789,0,0,1-6.914,4.454,17.587,17.587,0,0,1-11.367-.7,12.812,12.812,0,0,1-6.387-5.625,19.9,19.9,0,0,1-2.461-10.957,20.331,20.331,0,0,1,2.695-9.433,13.972,13.972,0,0,1,4.043-4.336,16.139,16.139,0,0,1,11.6-2.227,12.926,12.926,0,0,1,9.316,5.918h0Zm22.348-10.488a5.469,5.469,0,0,0-2.7,4.395v37.734a2.435,2.435,0,0,0,1.933,2.519,5.109,5.109,0,0,0,3.223-.175,2.633,2.633,0,0,0,1.465-2.168V509.93a1.269,1.269,0,0,1,1.464-1.407h19.688q5.682-.351,9.9-5.859a15.57,15.57,0,0,0,1.992-13.184,12.549,12.549,0,0,0-6.914-8.2A13.777,13.777,0,0,0,886,480.164H864.031a7.054,7.054,0,0,0-3.4.879h0Zm24.023,5.625q5.039,0.294,6.211,5.977a9.393,9.393,0,0,1-1.582,6.972,6.327,6.327,0,0,1-4.629,2.461H865.965a1.269,1.269,0,0,1-1.406-1.465V490.008a3.435,3.435,0,0,1,2.988-3.34h17.109Zm24.75,4.512a27.438,27.438,0,0,0-2.168,9.375v3.515a26.758,26.758,0,0,0,3.106,11.543,18.7,18.7,0,0,0,8.2,8.028,24.649,24.649,0,0,0,9.375,2.285h2.988a22.619,22.619,0,0,0,8.262-1.817q1.406-.645,2.93.879a21.067,21.067,0,0,0,4.218,3.457,3.62,3.62,0,0,0,4.688-1.289,3.076,3.076,0,0,0,.469-3.222,16.59,16.59,0,0,0-3.868-4.161,1.842,1.842,0,0,1-.234-2.7,17.948,17.948,0,0,0,2.109-4.512,32.144,32.144,0,0,0,1.348-13.476,24.67,24.67,0,0,0-2.7-9.375,19.826,19.826,0,0,0-10.957-9.434Q926.4,477,917.2,482.1a20.02,20.02,0,0,0-7.793,9.082h0Zm34.453,5.625a31.5,31.5,0,0,1,.645,4.687,19.816,19.816,0,0,1-2.52,11.543,1.5,1.5,0,0,1-2.578.117q-6.562-6.444-12.715-6.914-4.863-.232-9.433,3.692-1.466,1.465-2.051.175a20.939,20.939,0,0,1-1.348-8.5,20.331,20.331,0,0,1,2.7-9.433,13.96,13.96,0,0,1,4.043-4.336,16.156,16.156,0,0,1,9.843-2.461q10.078,0.469,13.418,11.426h0Zm-9.9,22.09a16.609,16.609,0,0,1-13.3-1.817q-1.405-1.054,0-2.519,6.329-5.1,13.535,2.519,1.231,1.349-.234,1.817h0Zm32.484-38.614q-4.569,1-5.1,5.274v37.617q0,2.167,2.519,2.695a5.618,5.618,0,0,0,2.11-.176,2.734,2.734,0,0,0,1.933-2.461V507.7a1.269,1.269,0,0,1,1.465-1.406h13.242a3.12,3.12,0,0,1,2.52,1.582l11.191,16.406a3.116,3.116,0,0,0,4.276,1.172q2.7-1.641,1.64-4.336a9.161,9.161,0,0,0-1.4-2.344l-7.973-11.543q-1.054-1.464.352-2.109a14.911,14.911,0,0,0,6.8-5.859,13.945,13.945,0,0,0,.93-10.664,12.272,12.272,0,0,0-7.555-7.618,17.9,17.9,0,0,0-4.688-.82H967.789Zm21.211,6.387a10.7,10.7,0,0,1,4.629,1.289,5.846,5.846,0,0,1,2.4,4.57,6.569,6.569,0,0,1-2.168,5.684,8.211,8.211,0,0,1-4.688,1.758H969.312a1.269,1.269,0,0,1-1.406-1.465v-8.379a3.645,3.645,0,0,1,3.223-3.457h16.523Zm29.088-3.34a9.787,9.787,0,0,0-3.28,8.32q0.87,4.746,6.15,7.911a45.317,45.317,0,0,0,9.37,4.453q4.455,1.581,9.38,3.105a24.284,24.284,0,0,1,4.69,2.168,5.75,5.75,0,0,1,3.4,4.1,4.861,4.861,0,0,1-2.11,4.336,5.593,5.593,0,0,1-2.35,1.172,25.952,25.952,0,0,1-8.67,1.113q-4.98-.468-11.19-4.395c-1.56-1.054-3.13-2.051-4.69-2.988a5.771,5.771,0,0,0-2.34-1,3.062,3.062,0,0,0-2.35,1q-1.875,2.579.3,4.687a30.7,30.7,0,0,0,9.55,6.5,28.123,28.123,0,0,0,9.37,2.11h3.75a34.957,34.957,0,0,0,10.61-1.758,13.064,13.064,0,0,0,4.69-2.813,10.955,10.955,0,0,0,2.63-4.687,13.162,13.162,0,0,0-1.11-9.2,8.454,8.454,0,0,0-2.17-2.754,27.539,27.539,0,0,0-9.49-4.688l-14.06-4.57a16.277,16.277,0,0,1-4.69-2.754,3.472,3.472,0,0,1-.76-4.453,4.87,4.87,0,0,1,2.11-1.875,20.091,20.091,0,0,1,9.31-1.406,36.635,36.635,0,0,1,9.09,2.519,15.728,15.728,0,0,0,5.97,1.289q3.345-.526,2.81-3.4a3.153,3.153,0,0,0-1.34-2.227,27.5,27.5,0,0,0-7.03-2.988,43.133,43.133,0,0,0-13.19-1,21.177,21.177,0,0,0-12.36,4.16h0Zm44.96-1.816a4.338,4.338,0,0,0-.23,3.222,2.768,2.768,0,0,0,2.52,1.934h13.59a1.245,1.245,0,0,1,1.41,1.406v34.453a3.529,3.529,0,0,0,1.52,2.989q4.455,1.581,4.98-3.164V488.074a1.272,1.272,0,0,1,1.47-1.406h13.65l0.47-.117a5.416,5.416,0,0,0,.88-0.235,3.57,3.57,0,0,0,1.29-3.75,2.671,2.671,0,0,0-2.64-2.4h-36.68a2.706,2.706,0,0,0-2.23,1.348h0Zm50.65-.235V510.34a24.654,24.654,0,0,0,.76,4.629,13.888,13.888,0,0,0,7.62,8.847,25.615,25.615,0,0,0,9.38,2.11h3.45a26.058,26.058,0,0,0,10.2-2.285,12.714,12.714,0,0,0,4.51-3.633,16.252,16.252,0,0,0,2.99-9.375V481.277a2.631,2.631,0,0,0-2.52-2.226,6.064,6.064,0,0,0-2.35.234,2.5,2.5,0,0,0-1.64,1.992v26.6a13.5,13.5,0,0,1-2.16,7.441,9.579,9.579,0,0,1-4.57,3.164,20.381,20.381,0,0,1-4.69.879h-3.05a14.579,14.579,0,0,1-6.62-1.758,9.116,9.116,0,0,1-2.64-2.4,13.58,13.58,0,0,1-2.11-7.031v-26.6a2.529,2.529,0,0,0-2.11-2.461,5.468,5.468,0,0,0-2.87.176,2.637,2.637,0,0,0-1.58,1.992h0Zm49.83,3.223q6.675,16.407,13.48,32.812c0.58,1.563,1.23,3.126,1.93,4.688a6.305,6.305,0,0,0,3.93,3.691q5.565,1.231,7.73-5.214l15.18-37.5a2.6,2.6,0,0,0-.36-2.344,3.467,3.467,0,0,0-2.28-1.465c-1.88-.507-3.22.332-4.04,2.52q-5.625,14.061-11.14,28.124a39.719,39.719,0,0,1-1.93,4.688c-0.63,1.328-1.33,1.875-2.11,1.641a4.441,4.441,0,0,1-1.46-1.993q-6.57-16.4-13.01-32.812a3.141,3.141,0,0,0-1.82-2.051,3.761,3.761,0,0,0-3.75.527,3.472,3.472,0,0,0-.35,4.688h0Zm49.24-2.344a11.2,11.2,0,0,0,.35,2.344q1.35,5.391,4.98,18.75l5.04,18.75q0.7,4.276,4.87,3.867a3.4,3.4,0,0,0,2.87-2.461q3.27-13.827,6.62-27.656a7.036,7.036,0,0,1,.53-1.523,5.451,5.451,0,0,1,.46,1.464l6.1,26.133a7.834,7.834,0,0,0,.76,2.461,3.7,3.7,0,0,0,2.11,1.465c2.97,0.781,4.76-.469,5.39-3.75q3.75-14.062,7.62-28.125,1.515-5.214,2.52-9.375a10.313,10.313,0,0,0,.29-2.754,3.135,3.135,0,0,0-2.81-2.754q-3.345-.057-4.22,3.633l-6.86,28.008q-0.525,1.466-.99-0.059l-6.45-27.187a7.753,7.753,0,0,0-.76-2.344,3.107,3.107,0,0,0-2.05-1.758,4.772,4.772,0,0,0-3.52.176,5.679,5.679,0,0,0-1.4,3.4l-6.57,27.774q-0.465,1.583-.99.058-3.045-12.537-5.98-25.019a32.355,32.355,0,0,0-1.35-4.688,2.647,2.647,0,0,0-1.87-1.816,4.088,4.088,0,0,0-3.63.644,2.905,2.905,0,0,0-1.06,2.344h0Zm61.14,1.875,13.71,16.231a1.982,1.982,0,0,1,0,2.812l-15.12,17.871a2.742,2.742,0,0,0,.59,4.043q2.52,2.05,4.69-.176,6.9-8.2,13.94-16.406,1.41-1.581,2.64-.176l13.36,15.762a4.078,4.078,0,0,0,2.22,1.817q2.7,0.7,4.16-2.051a2.653,2.653,0,0,0-.11-2.344,13.722,13.722,0,0,0-1.82-2.344q-6.735-8.026-13.65-16.113a1.959,1.959,0,0,1,.17-2.812q6.57-7.793,13.19-15.645a2.907,2.907,0,0,0,.88-3.164,3.655,3.655,0,0,0-1.7-1.875q-2.76-1.522-5.1,1.875l-11.6,13.828a1.443,1.443,0,0,1-2.46-.059l-11.25-13.3q-2.64-3.984-5.63-2.285c-1.83,1.367-2.21,2.871-1.11,4.511h0Zm49.01,0,17.75,23.438a3.259,3.259,0,0,1,.47,1.992v13.711l0.29,1.113a2.456,2.456,0,0,0,1.47,1.406,3.807,3.807,0,0,0,3.34-.234,3.2,3.2,0,0,0,1.46-2.227V509.4a2.984,2.984,0,0,1,.47-1.933l17.87-23.438q1.695-2.637-1.05-4.453a3.26,3.26,0,0,0-4.57.938L1344.12,500.2q-1.11,1.407-2.16,0l-14.83-19.687c-1.36-1.641-2.91-1.934-4.63-.879-1.75,1.094-2.07,2.559-.93,4.394h0Zm52.87-1.347a4.729,4.729,0,0,0,.53,2.871,3.222,3.222,0,0,0,1.99,1.113h24.9q1.41,0,.12,1.465-13.425,14.649-27.01,29.3c-1.95,1.8-2.76,3.515-2.4,5.156a2.835,2.835,0,0,0,2.87,2.168h37.79A2.475,2.475,0,0,0,1415.4,523a4.513,4.513,0,0,0-.29-3.574,2.681,2.681,0,0,0-2.06-1.113H1384.4q-1.41,0-.06-1.465,11.73-12.833,23.56-25.547a51.5,51.5,0,0,0,3.98-4.453,5.621,5.621,0,0,0,.88-2.344,3.833,3.833,0,0,0-1.46-3.75,7.5,7.5,0,0,0-2.35-.586h-31.93q-2.055.058-2.58,2.52h0Z"/>
  <path id="logo" class="cls-1" d="M706.266,1194.7a45.969,45.969,0,0,0-.118,5.15v5.16H677.555v-1.17l0.234-.94-1.406-.24c-1.1,0-2.659-.07-4.688-0.23h-3.281l-0.469,2.58a45.646,45.646,0,0,1-1.172,4.92,22.619,22.619,0,0,1-1.406,4.22,7.125,7.125,0,0,0-.82,2.23,6.584,6.584,0,0,0,2.109-.71c1.326-.54,2.615-1.13,3.867-1.76a11.566,11.566,0,0,0,3.516-2.81l1.641-1.64h66.8l1.875,1.88a14.477,14.477,0,0,0,3.75,2.81c1.406,0.62,2.655,1.17,3.75,1.64a1.036,1.036,0,1,0,1.171-1.17,17.1,17.1,0,0,1-1.406-3.99q-0.7-2.34-1.172-4.68a11.9,11.9,0,0,0-.7-3.05c0-.47-1.252-0.62-3.75-0.47-1.875.16-3.281,0.23-4.219,0.23a2.052,2.052,0,0,1-.937.24c-0.315,0-.469.31-0.469,0.94l0.235,0.93-13.594.24q-13.359,0-13.36-.24a2.838,2.838,0,0,1,.7-1.05,6.664,6.664,0,0,0,1.171-2.46,15.728,15.728,0,0,0,.469-4.22v-2.58h-4.687Q706.382,1194.46,706.266,1194.7Zm-31.289,28.12v4.22l21.093,0.23h21.094l-5.859,4.93q-5.4,4.215-8.2,6.56l-2.344,1.87v6.8H660.445v4.22h40.313v14.76c0,10.01-.158,15.47-0.469,16.41a13.152,13.152,0,0,1-1.172,3.05,21,21,0,0,1-2.578,3.04,16.962,16.962,0,0,1-3.75,2.82c-1.406.62-2.109,1.17-2.109,1.64s0.153,0.7.468,0.7a30.375,30.375,0,0,0,3.047-.47,34.353,34.353,0,0,0,4.922-1.4,16.4,16.4,0,0,0,4.688-1.88,11.74,11.74,0,0,0,3.515-2.34,12.264,12.264,0,0,0,2.344-2.58,13,13,0,0,0,1.172-2.58c0.311-.94.469-6.4,0.469-16.41v-14.76h38.2v-4.22h-38.2v-6.8l2.109-1.64q2.109-1.635,8.438-6.79,6.327-5.4,8.437-7.04a13.637,13.637,0,0,0,2.578-2.34q0-.225-28.828-0.23t-29.062.23h0Zm121.64-30.23-0.469,1.87a27.635,27.635,0,0,1-1.523,5.74c-0.861,2.43-1.681,4.65-2.461,6.68q-1.176,2.58-3.281,6.8-1.88,3.75-4.453,8.44-2.11,3.75-4.688,7.73-2.582,4.215-3.047,4.92a7.818,7.818,0,0,0-1.406,2.11c-0.157.47-.117,0.71,0.117,0.71a8.252,8.252,0,0,0,2.227-1.18q1.873-1.17,3.515-2.34,1.874-1.41,3.985-3.28a59.714,59.714,0,0,0,4.453-4.45l2.109-2.35,0.235,14.77,0.234,14.76h1.875a5.862,5.862,0,0,0,3.047-.7,5.457,5.457,0,0,0,1.875-1.17,11.374,11.374,0,0,0,1.406-1.64l0.469-.71h27.187v2.11l0.235,2.11h1.64a7.437,7.437,0,0,0,2.813-.47,9.072,9.072,0,0,0,2.109-1.17,4.666,4.666,0,0,0,1.407-1.64l0.7-.94h31.64v-4.45H838.336v-6.8H868.57v-4.45H838.336v-6.8H868.57v-4.68H838.336v-7.5H868.57v-4.69H837.164l0.938-1.17a23.668,23.668,0,0,0,1.406-2.35,6.445,6.445,0,0,0,.7-2.57,17.74,17.74,0,0,0,.469-4.93v-3.51H828.727v14.53H815.6q-13.129,0-13.125-.23c0-.16-0.158-0.24-0.469-0.24s0.311-1.41,1.875-4.22a69.182,69.182,0,0,0,3.281-7.5,16.732,16.732,0,0,0,1.406-3.98l0.235-1.17H796.617Zm31.406,22.03v7.5H802.477v-7.5h25.546Zm0,12.18v6.8H802.477v-6.8h25.546Zm0,11.25v6.8H802.477v-6.8h25.546Zm-3.515,16.88v5.16l-22.969.23H778.805v4.45h45.7v1.64c0,1.1-.081,1.64-0.235,1.64a40.222,40.222,0,0,1-4.687-1.17q-4.455-1.17-4.922-1.4-0.236,0-6.328,4.68-6.1,4.935-7.734,6.1-1.643.93-4.454,2.58a58.967,58.967,0,0,1-5.39,2.57q-2.812,1.185-5.391,2.23a35.226,35.226,0,0,1-5.859,1.76,17.416,17.416,0,0,0-3.047,1.05,6.06,6.06,0,0,0,1.289,1.06,3.994,3.994,0,0,0,1.992.94c0.469,0,2.344-.32,5.625-0.94s6.328-1.33,9.141-2.11q4.449-1.17,8.2-2.35a22.822,22.822,0,0,0,4.922-2.1q1.637-.945,9.14-6.1t7.618-5.04q0.115,0.12.117,13.48v13.12h1.406a7.357,7.357,0,0,0,2.813-.7,6.692,6.692,0,0,0,3.046-1.99,11.184,11.184,0,0,0,2.11-3.17,8.733,8.733,0,0,0,.586-2.34q0.115-1.17.117-6.33c0.154-4.68.271-7.11,0.352-7.26s1.442,0.55,4.1,2.11q3.982,2.1,6.8,3.51a34.945,34.945,0,0,0,6.328,2.58,54.282,54.282,0,0,0,6.328,1.64,52.974,52.974,0,0,0,5.625.94c1.718,0.16,4.219.23,7.5,0.23a38.521,38.521,0,0,0,5.86-.23,1.37,1.37,0,0,0,1.171-.94l0.235-1.17c0-.15-0.235-0.24-0.7-0.24-0.315,0-1.722-.23-4.219-0.7s-5-1.01-7.5-1.64q-3.516-.93-6.8-2.11-2.812-.93-5.625-2.11-2.346-1.17-10.078-6.33l-7.734-5.15,19.453-.24h19.453v-4.45H854.977l-20.157-.23v-2.58l-0.234-2.58H824.508Z"/>
</svg>
