<svg xmlns="http://www.w3.org/2000/svg" width="400" height="200" viewBox="0 0 400 200">
  <defs>
    <style>
      .cls-1 {
        fill: #fdfdfd;
        fill-rule: evenodd;
      }
    </style>
  </defs>
  <path id="王漢宗特明體繁" class="cls-1" d="M66.281,80.148q-1.125,2.25-2.625,1.688H39.609a12.928,12.928,0,0,0-1.875-.234q-1.641-.141-1.359,1.031,0.281,0.844,1.828.7l1.5-.281H51.328a1.016,1.016,0,0,1,1.125,1.172V97.773A1.016,1.016,0,0,1,51.281,98.9H41.672a12.928,12.928,0,0,0-1.875-.234Q38.2,98.523,38.438,99.7q0.327,0.844,1.828.7l1.5-.281h9.563a1.016,1.016,0,0,1,1.125,1.172v15.234a1.016,1.016,0,0,1-1.172,1.125H37.125a11.573,11.573,0,0,0-1.781-.234q-1.687-.141-1.406.984,0.281,0.938,1.781.7l1.547-.235H75.141q1.734,0.327,1.781-.609a14.338,14.338,0,0,0-3.656-3.75q-1.641-1.734-2.719-.422l-1.406,1.875q-1.172,2.25-2.672,1.687H58.781a1.015,1.015,0,0,1-1.125-1.171V101.242a1.016,1.016,0,0,1,1.172-1.125H69.844a4.232,4.232,0,0,0,1.641-.187,0.5,0.5,0,0,0,.188-0.422A16.518,16.518,0,0,0,67.078,95.1q-1.454-.984-2.531,1.266L63.8,97.3a4.054,4.054,0,0,1-1.312,1.5q-1.923.141-3.7,0.094a1.015,1.015,0,0,1-1.125-1.172V84.18a1.016,1.016,0,0,1,1.172-1.125H72.188a5.059,5.059,0,0,0,1.781-.187q0.327-.281-0.844-1.734a13.429,13.429,0,0,0-4.453-3.469,4.84,4.84,0,0,0-1.641,1.547Zm33.844,1.313a1.016,1.016,0,0,1-1.172,1.125,20.85,20.85,0,0,1-3.7-.234q-1.594-.141-1.312,1.031,0.281,0.938,1.781.7A9.474,9.474,0,0,1,99,83.8a1.016,1.016,0,0,1,1.125,1.172q-0.047,2.438.094,4.875a4.278,4.278,0,0,0,.609.7,3.737,3.737,0,0,0,3.61.047,1.565,1.565,0,0,0,.609-1.266,0.464,0.464,0,0,1,.515-0.469q0.469,0.047.469,1.172v1.313a1.016,1.016,0,0,1-1.172,1.125h-2.906a3.287,3.287,0,0,1-1.594-.281,19.366,19.366,0,0,0-3.187-1.266,1.008,1.008,0,0,0-1.453,1.125v7.922A3.205,3.205,0,0,0,96,101.711a3.671,3.671,0,0,0,3.844-.234,3.741,3.741,0,0,0,.609-0.938q0.093-.609,1.219-0.609h3.14a1,1,0,0,1,1.126,1.125l-0.047,1.5a1.323,1.323,0,0,1-1.313,1.406H97.688a13.911,13.911,0,0,0-1.828-.234q-1.687-.141-1.406,1.031,0.327,0.938,1.828.7l1.5-.281h6.8q1.03,0,.8,1.265l-0.281,1.313a1.692,1.692,0,0,1-1.594,1.406H94.969l-1.734-.187q-1.687-.141-1.359,1.031,0.234,0.843,1.781.7l1.5-.281h7.875q1.125,0,.469,1.406A21.5,21.5,0,0,1,92.156,121.4a2.9,2.9,0,0,0-1.453.844,4.245,4.245,0,0,0,1.875.094,23.144,23.144,0,0,0,10.313-3.844,14.38,14.38,0,0,0,5.437-6.375q0.468-.89.891,0.375a14.323,14.323,0,0,0,5.25,6.891,14.678,14.678,0,0,0,7.734,3.047,3.122,3.122,0,0,0,.609-1.5,6.151,6.151,0,0,1,1.641-2.813,4.317,4.317,0,0,0,1.266-1.453,7.349,7.349,0,0,0-1.641-.094,19.915,19.915,0,0,1-10.312-2.25,10.636,10.636,0,0,1-3.328-2.625q-0.939-1.264.187-1.265h12a3.985,3.985,0,0,0,1.687-.188q0.235-.234-0.656-1.64a19.212,19.212,0,0,0-3.422-2.954q-1.078-.562-2.109,1.313a7.929,7.929,0,0,0-.844,1.078,2.591,2.591,0,0,1-2.062,1.125h-4.688q-1.031,0-.7-1.266l0.281-1.312a1.492,1.492,0,0,1,1.453-1.406h8.016a2.564,2.564,0,0,0,1.734-.328,5.768,5.768,0,0,0-1.031-1.688l-0.609-.609q-1.032-.937.094-1.172a1.772,1.772,0,0,0,1.64-1.078q0.141-1.875.094-3.75a1.5,1.5,0,0,1,.984-1.922q1.266-1.078-.843-1.969a11.09,11.09,0,0,0-2.344-1.312,2.28,2.28,0,0,0-2.344.234,2.631,2.631,0,0,1-1.969.891h-3a1.016,1.016,0,0,1-1.125-1.172V89.992q0-1.125.61-1.125a0.515,0.515,0,0,1,.609.469,2.058,2.058,0,0,0,1.969,1.5q2.3,0.235,2.906-1.219,0.141-2.343.094-4.687a1.015,1.015,0,0,1,1.172-1.125h4.828q1.734,0.329,1.781-.656a12.866,12.866,0,0,0-4.312-3.984,6.574,6.574,0,0,0-1.5,1.313l-0.844.891q-1.125,1.125-1.125-.281a2.894,2.894,0,0,1,.375-1.734,1.25,1.25,0,0,0-.61-2.062l-3.234-.469a1.159,1.159,0,0,0-1.453,1.313v3.328a1.016,1.016,0,0,1-1.172,1.125h-4.781q-1.125,0-1.125-1.406-0.421-1.406,1.265-3a1.833,1.833,0,0,0-1.406-.844,19.809,19.809,0,0,0-3.422-.516,1.139,1.139,0,0,0-1.359,1.406v3.234ZM86.063,80.1a8.057,8.057,0,0,1,1.078,3.75q0.375,3.469,3.188,3.188a3.027,3.027,0,0,0,2.438-2.859,3.279,3.279,0,0,0-.984-3,12.231,12.231,0,0,0-5.625-2.766,0.833,0.833,0,0,0-1.125.141A4.3,4.3,0,0,0,86.063,80.1h0Zm26.063,6.422a1.016,1.016,0,0,1-1.172,1.125h-4.781a1.015,1.015,0,0,1-1.125-1.172V84.93a1.015,1.015,0,0,1,1.172-1.125h4.828a1.02,1.02,0,0,1,1.078,1.219v1.5ZM84.938,107.242a2.2,2.2,0,0,1-1.641.469,6.237,6.237,0,0,0-1.875.141q-0.235.234,1.547,1.265,1.874,1.407,1.734,2.672a19.847,19.847,0,0,1-.094,2.719q-0.984,4.124.656,6.187,2.484,1.5,4.078-.328a5.55,5.55,0,0,0,.516-5.2q-1.735-4.686-.8-8.016l5.25-18.8a2.4,2.4,0,0,0,0-1.594,4.563,4.563,0,0,0-1.078,1.5ZM83.2,93.461q-0.422,3.844,2.344,4.5,2.765,0.422,3.328-3.047,0.327-2.3-2.531-4.219a11.75,11.75,0,0,0-3.75-1.547q-0.984-.422-1.031.328A7.147,7.147,0,0,1,83.2,93.461h0Zm21.7,0.281a1.016,1.016,0,0,1,1.125,1.172v2.672a1.016,1.016,0,0,1-1.172,1.125h-3.234a1.015,1.015,0,0,1-1.125-1.172V94.961q0-1.078,1.547-1.219h2.859Zm11.813,3.844a1.016,1.016,0,0,1-1.172,1.125h-3.563a1.015,1.015,0,0,1-1.125-1.172V94.867a1.016,1.016,0,0,1,1.172-1.125h3.516a1.079,1.079,0,0,1,1.172,1.266v2.578Zm-1.031,3.937-1.079,1.36a2.622,2.622,0,0,1-2.062,1.078h-0.938a0.988,0.988,0,0,1-.984-1.266l0.094-1.359a1.271,1.271,0,0,1,1.265-1.406h3.657q1.077,0,1.078.375a2.914,2.914,0,0,1-1.031,1.218h0Zm32.671-18.562a1.015,1.015,0,0,1-1.171,1.125h-9.235a1.648,1.648,0,0,1-1.781-1.125,2.658,2.658,0,0,0-.563-1.219A3.337,3.337,0,0,0,135,83.2a7.457,7.457,0,0,1-3.609,4.781q-1.5,1.594-1.313,2.813,0.468,2.3,2.438,2.391,2.484,0.095,3.515-2.625a10.379,10.379,0,0,0,.563-3.937A1.322,1.322,0,0,1,138,85.3h26.109q1.171,0,.75,1.172l-1.921,4.406a0.433,0.433,0,0,0,.515.375,45.323,45.323,0,0,0,6.938-3.984,3.515,3.515,0,0,1,1.828-.516q1.031-.656-0.516-1.687a41.2,41.2,0,0,0-3.75-2.484q-1.22-.984-2.812.891a3.709,3.709,0,0,1-2.063.609h-8.344a1.015,1.015,0,0,1-1.125-1.172V80.992a1.557,1.557,0,0,1,.563-1.453q1.218-.515.562-1.359a11.38,11.38,0,0,0-4.968-1.031,1.243,1.243,0,0,0-1.407,1.406v4.406Zm5.063,9.328H141.328A9.854,9.854,0,0,0,139.5,92.1q-1.641-.141-1.359,1.031,0.327,0.938,1.828.7l1.5-.281h19.406a5.514,5.514,0,0,0,1.687-.141,0.75,0.75,0,0,0,.188-0.469,13.814,13.814,0,0,0-4.219-4.078q-1.078-.749-2.156,1.172-1.5,2.719-2.953,2.25h0Zm9.187,7.594a2.622,2.622,0,0,1-2.062,1.078H135.328a15.239,15.239,0,0,0-1.922-.234,2.314,2.314,0,0,0-1.453.046l0.094,0.563a1.483,1.483,0,0,0,1.922,1.078l1.5-.234H147.8a1.016,1.016,0,0,1,1.125,1.172V115.4q0.234,2.345-1.969,1.875l-2.531-.046q-1.641-.329-1.594.656a3.816,3.816,0,0,0,1.5.7A5.875,5.875,0,0,1,147,120.742a2.083,2.083,0,0,0,2.062,1.453q4.313-.234,5.063-4.172V103.305a1.015,1.015,0,0,1,1.172-1.125H168.75q1.452-.141,1.5-0.422-0.891-1.969-4.406-4.453-1.032-.8-2.016,1.031a16.526,16.526,0,0,0-1.219,1.547h0ZM136.594,110.2a26.8,26.8,0,0,1-5.766,7.313,5.029,5.029,0,0,0-1.312,1.5,2.463,2.463,0,0,0,1.5-.047q5.249-1.875,10.359-7.5,1.688-2.343,2.672-1.875a0.927,0.927,0,0,0,1.219-.984,14.059,14.059,0,0,0-3.891-3.188q-1.782-.937-1.969-0.75-1.312,2.766-2.812,5.531h0Zm21.844-1.734a16.465,16.465,0,0,1,8.531,9.328,2.637,2.637,0,0,0,3.89,1.313q1.828-1.548,1.219-3.235-1.078-3.7-6.094-6.469a21.512,21.512,0,0,0-7.5-2.2q-1.547,0-1.546.375a3.6,3.6,0,0,0,1.5.891h0ZM185.25,80.289q0,1.406-.234,1.125a4.655,4.655,0,0,0-1.219-.422,36.406,36.406,0,0,0-3.656-.375,1.2,1.2,0,0,0-1.407,1.453,87.749,87.749,0,0,1-1.5,14.719q-0.234,1.969.188,1.781a31.233,31.233,0,0,0,3.609-6.8,2.09,2.09,0,0,1,1.828-1.406h1.266a1.016,1.016,0,0,1,1.125,1.172v8.531a1.344,1.344,0,0,1-1.172,1.407q-2.72.609-5.437,0.984a3.555,3.555,0,0,0-1.782.375,29.688,29.688,0,0,0,1.594,4.687,2.111,2.111,0,0,0,1.031,1.547,0.847,0.847,0,0,0,.938-1.031,1.926,1.926,0,0,1,1.172-1.078l2.2-1.031q1.452-.657,1.453.515v12.938q-0.236,3.561,3.516,2.672a1.862,1.862,0,0,0,1.406-1.5V103.633a2.189,2.189,0,0,1,1.172-1.875,52.254,52.254,0,0,0,4.547-3.375q1.547-1.078,1.031-1.594-2.672,1.266-5.344,2.344-1.406.469-1.406-.656V91.492a1.015,1.015,0,0,1,1.172-1.125h4.172a2.915,2.915,0,0,0,1.734-.281,3.805,3.805,0,0,0-.656-1.687,7.964,7.964,0,0,0-2.485-2.531q-0.281-.046-1.547,1.641l-0.656.938a1.071,1.071,0,0,1-1.265.7q-0.469-.046-0.469-1.172V81.039a4.728,4.728,0,0,1,.094-1.312q1.781-.7,1.359-1.781-1.312-.89-5.063-1.172-1.312-.093-1.312,1.453v2.063Zm17.672,3.234a1.016,1.016,0,0,1-1.172,1.125,21.883,21.883,0,0,1-5.016-.234,2.551,2.551,0,0,0-1.5.047l0.282,1.078q0.281,0.8,1.781.609a15.566,15.566,0,0,1,4.5-.281,1.016,1.016,0,0,1,1.125,1.172v5.484a1.016,1.016,0,0,1-1.172,1.125h-5.438a14.068,14.068,0,0,0-1.828-.234q-1.687-.141-1.406,1.031,0.327,0.891,1.828.656l1.5-.234h23.672q1.5-.141,1.547-0.516a11.882,11.882,0,0,0-3.234-3.516q-1.876-1.921-2.766.141l-1.266,1.547a2.812,2.812,0,0,1-2.109,1.125h-3a1.015,1.015,0,0,1-1.125-1.172V86.992a1.015,1.015,0,0,1,1.172-1.125h7.875a4.2,4.2,0,0,0,1.687-.187q0.234-.281-0.984-1.969A22.943,22.943,0,0,0,216,82.023a3.231,3.231,0,0,0-1.688-.984,11.094,11.094,0,0,0-1.828,1.922,4.818,4.818,0,0,1-1.359,1.594,6.605,6.605,0,0,1-1.594.094,1.151,1.151,0,0,1-1.406-1.172V80.711a1.912,1.912,0,0,1,.516-1.547q1.5-.468.562-1.453a17.18,17.18,0,0,0-4.922-.984,1.243,1.243,0,0,0-1.359,1.5v5.3Zm-17.672,4.5q0,1.125-1.594,1.125t-1.218-1.172q0.749-2.3,1.312-4.453a1.8,1.8,0,0,1,.938-0.8q0.561-.515.562,0.8v4.5Zm23.3,13.266a1.016,1.016,0,0,1-1.172,1.125H195.891a8.7,8.7,0,0,0-1.782-.187q-1.687-.141-1.406,1.031,0.327,0.891,1.828.656l1.5-.234h11.391a1.016,1.016,0,0,1,1.125,1.172v10.125a2.229,2.229,0,0,1-.281,1.406,3.259,3.259,0,0,1-2.157.469l-1.593.093q-1.407,0-1.594.469a3.4,3.4,0,0,0,1.547.938q2.2,1.218,2.39,2.812,0.094,0.75,1.5.8,4.266-.377,5.391-4.078V104.805a1.015,1.015,0,0,1,1.172-1.125h4.64q1.689,0.328,1.922-.657a17.8,17.8,0,0,0-4.218-4.078q-0.844-.468-2.391,1.875-1.125,1.314-1.125.188V99.7a1.376,1.376,0,0,1,.562-1.406,0.88,0.88,0,0,0,.7-1.359,2.788,2.788,0,0,0-1.688-.609,31.312,31.312,0,0,0-3.234-.375q-1.407-.141-1.5.094-0.094,2.626-.047,5.25h0Zm-11.438,6.234a7.873,7.873,0,0,1,2.11,4.688,2.893,2.893,0,0,0,2.625,2.812,2.578,2.578,0,0,0,2.531-1.64q1.406-3.516-3.328-6.094a14.755,14.755,0,0,0-3.281-1.078,3.867,3.867,0,0,0-1.641-.094q-0.141.188,0.984,1.406h0ZM247.453,87.18a144.144,144.144,0,0,1-1.125,19.406,21.081,21.081,0,0,1-10.078,13.922,3.7,3.7,0,0,0-1.406,1.125q0.141,0.281,1.968-.094a19.851,19.851,0,0,0,12-8.859,25.7,25.7,0,0,0,2.626-7.032,1.492,1.492,0,0,1,1.453-1.406h7.921a1.016,1.016,0,0,1,1.126,1.172v9.422a4.1,4.1,0,0,1-.141,1.406q-1.22.844-4.5,0.563-1.407-.048-1.547.281,0,0.281,1.406.844a4.914,4.914,0,0,1,3.141,2.906,1.7,1.7,0,0,0,1.875,1.312q4.359-.609,4.969-4.593V84.273a2.312,2.312,0,0,1,.234-1.359,2.365,2.365,0,0,0,1.359-1.172q0-1.171-2.39-2.719A5.994,5.994,0,0,0,264,77.8a3.869,3.869,0,0,0-1.547,1.453,1.834,1.834,0,0,1-2.3,1.219h-6.047a3.318,3.318,0,0,1-1.734-.375q-1.687-.937-3.375-1.687-1.407-.609-1.547.891V87.18ZM237.8,80.43l-4.5.047a4.478,4.478,0,0,1-1.922-.375,15.363,15.363,0,0,0-2.813-1.172q-1.875-.468-1.874.938V108.32a2.9,2.9,0,0,0,.515,2.25,3.547,3.547,0,0,0,4.219-.562q0.7-1.312.469-4.828a1.015,1.015,0,0,1,1.171-1.125h4.876a1.015,1.015,0,0,1,1.124,1.172v1.218a2.577,2.577,0,0,0,.376,2.063,3.918,3.918,0,0,0,3.421.187,1.991,1.991,0,0,0,1.36-1.593V84.18a1.248,1.248,0,0,1,1.031-1.734q1.688-1.03-.75-2.391a18.994,18.994,0,0,0-3.188-1.594q-1.359-.281-2.812,1.359a2.484,2.484,0,0,1-.7.609h0Zm-0.141,1.313a2.5,2.5,0,0,1,1.313.188,4.19,4.19,0,0,1,.093,1.266v7.266a1.015,1.015,0,0,1-1.171,1.125h-4.875a1.015,1.015,0,0,1-1.125-1.172V82.961a1.327,1.327,0,0,1,.281-1.172q2.764-.093,5.484-0.047h0Zm22.782,0,1.359,0.047a3.651,3.651,0,0,1,.141,1.359v7.5a1.016,1.016,0,0,1-1.172,1.125h-6.985a1.015,1.015,0,0,1-1.125-1.172V82.961q0-1.125,1.453-1.219h6.329Zm-21.376,19.969a1.015,1.015,0,0,1-1.171,1.125h-4.875a1.015,1.015,0,0,1-1.125-1.172V93.93a1.015,1.015,0,0,1,1.171-1.125h4.876a1.015,1.015,0,0,1,1.124,1.172v7.734Zm22.876,0.187a1.016,1.016,0,0,1-1.172,1.125h-7.641a0.909,0.909,0,0,1-1.031-1.125,68.152,68.152,0,0,0,.515-7.5,1.224,1.224,0,0,1,1.219-1.406h6.984a1.016,1.016,0,0,1,1.126,1.172V101.9Zm14.671-11.765q0,1.125-.281,1.172a1.507,1.507,0,0,1-.7-0.844,1.072,1.072,0,0,0-.8-0.609,4.21,4.21,0,0,0,0,1.641,8.238,8.238,0,0,1-1.406,4.781q-1.266,1.875-1.031,2.813,0.936,2.579,3.421,1.219,0.657-.468.657,0.656V119.9q-0.61,2.625,2.2,2.485,2.813-.469,2.25-3.328v-7.313a1.015,1.015,0,0,1,1.172-1.125h1.687a1.016,1.016,0,0,1,1.125,1.172v3.938q0.423,1.873-1.218,1.921-1.453.047-1.594,0.422-0.048.282,1.781,1.407a2.341,2.341,0,0,1,.656,1.5q-0.046,1.452,1.828,1.218a4.025,4.025,0,0,0,3-3.89V100.867q-0.28-1.452.75-1.781,1.454-.89-0.093-1.922-0.611-.515.422-1.219l1.078-.75q1.452-.937,1.453.094-0.187,2.157,2.25,1.734,2.109-.187,2.2-2.016,0.046-.7,1.172-0.7h11.062q1.125,0,1.125.844-0.094,1.594,1.172,1.734,0.375,0-.187.891a1.581,1.581,0,0,1-2.016.938H295.5a15.451,15.451,0,0,0-1.922-.234q-1.546-.093-1.359.938a1.749,1.749,0,0,0,.328.938q1.5-.282,3-0.422h20.015a2.931,2.931,0,0,0,1.688-.281q0.234-.656-1.031-2.2-1.312-1.406-1.125-1.781a6.659,6.659,0,0,0,.14-1.781V85.07a1.42,1.42,0,0,1,.891-1.875q0.984-.749-0.422-1.5a14.953,14.953,0,0,0-1.875-1.125q-1.875-1.452-2.953-.047a1.679,1.679,0,0,1-1.219.7q-0.609,0-.609-1.172a1.448,1.448,0,0,1,.422-1.312q1.031-.609.375-1.219a14.622,14.622,0,0,0-3.516-.7,1.243,1.243,0,0,0-1.406,1.406V80.1a0.906,0.906,0,0,1-.891,1.125q-0.843,0-.843-1.172a1.375,1.375,0,0,1,.421-1.312q1.125-.515.375-1.219l-1.125-.328a15.308,15.308,0,0,0-2.343-.375,1.243,1.243,0,0,0-1.407,1.406V80.1a0.92,0.92,0,0,1-.937,1.125,3.127,3.127,0,0,1-1.5-.328,16.53,16.53,0,0,0-2.25-.844,1.024,1.024,0,0,0-1.453,1.172v9q0,1.032-1.266.234a2.567,2.567,0,0,0-1.547-.609q-0.234,0-.234-1.125V81.742a3.008,3.008,0,0,1,.516-1.828q0.374-.656-0.985-1.828-2.109-2.109-3.234-.609a3.871,3.871,0,0,1-.7.656q-1.923.141-3.844,0.094-1.079.141-3.61-1.219-1.452-.468-1.453,1.125v12Zm9.235-8.484q0,1.125-.656,1.125a3.582,3.582,0,0,1-1.969-.7q-1.454-.515-1.453.984v7.172q0,1.125-.563,1.125-0.469-.046-0.469-1.172V80.8a1.323,1.323,0,0,1,1.407-1.312h2.671a1.028,1.028,0,0,1,1.032,1.266v0.891Zm13.265,2.016V86.1a0.906,0.906,0,0,1-.89,1.125q-0.8,0-.8-1.172V82.867q0-.234,1.312-0.375,0.375,0.047.375,1.172h0Zm5.813,2.438a0.906,0.906,0,0,1-.891,1.125q-0.843,0-.843-1.172V83.617a0.905,0.905,0,0,1,.89-1.125q0.845,0,.844,1.172V86.1Zm5.859,0a0.906,0.906,0,0,1-.89,1.125q-0.845,0-.844-1.172V83.617a0.906,0.906,0,0,1,.891-1.125q0.843-.141.843,1.219V86.1ZM285.844,90.18q0,1.125-.469,1.172-0.422-.046-0.422-1.172V85.117q0-1.125.516-1.125,0.375,0,.375,1.219V90.18Zm13.265,1.781a0.906,0.906,0,0,1-.89,1.125q-0.8,0-.8-1.172v-2.3a0.906,0.906,0,0,1,.89-1.125q0.8,0,.8,1.219v2.25Zm5.813,0a0.906,0.906,0,0,1-.891,1.125q-0.843,0-.843-1.172v-2.3a0.92,0.92,0,0,1,.937-1.125q0.8,0,.8,1.219v2.25Zm5.859,0a0.906,0.906,0,0,1-.89,1.125q-0.845,0-.844-1.172v-2.3a0.92,0.92,0,0,1,.937-1.125q0.8,0,.8,1.219v2.25ZM288.375,94.3q-0.516,1.313-1.172.984-1.171-.8-1.922.844a2.53,2.53,0,0,1-2.015,1.031h-1.172a6.7,6.7,0,0,1-3.375-.984,2.278,2.278,0,0,1-1.594-1.969,1.073,1.073,0,0,1,.984-1.594h9.75q1.079,0,.657,1.266Zm-4.781,4.125q1.125,0,1.312,1.5v2.109a1.016,1.016,0,0,1-1.172,1.125h-1.687a1.015,1.015,0,0,1-1.125-1.172v-2.25a1.323,1.323,0,0,1,1.406-1.312h1.266ZM294,110.9q-0.469,2.3,1.547,2.2a2.253,2.253,0,0,1,2.156,1.125,6.835,6.835,0,0,1,.469,2.531,7.629,7.629,0,0,0,.234,2.156q0.423,0.8-.75.8a25.662,25.662,0,0,1-5.531-.234q-1.687-.095-1.406,1.031,0.186,0.843,1.781.656a9.151,9.151,0,0,1,1.547-.234H315.8a2.364,2.364,0,0,0,1.641-.328q0.093-1.173-2.25-3.469a1.684,1.684,0,0,0-2.579.281l-1.031,1.547a2.164,2.164,0,0,1-.562.656,17.155,17.155,0,0,1-2.532.094q-1.125,0,.094-0.938a14.289,14.289,0,0,0,2.578-2.578,1.82,1.82,0,0,1,1.219-.843q0.8-.282.656-0.7-0.421-.891-2.3-1.171a13.3,13.3,0,0,0-1.875-.422,3.138,3.138,0,0,0-1.687-.047,32.238,32.238,0,0,1-.984,5.3,1.765,1.765,0,0,1-1.641,1.406h-1.172q-1.172,0-.656-0.938,1.031-3.75-3.375-5.625-1.407-.562-1.172-0.8l0.328-.7a1.188,1.188,0,0,1,1.266-.468h8.812q1.125,0,1.172.515l0.234,0.7a2.643,2.643,0,0,0,2.907.422,1.732,1.732,0,0,0,1.453-1.406q-0.048-2.718.094-5.3,2.577-.984.14-2.344a12.5,12.5,0,0,0-2.812-1.5,1.152,1.152,0,0,0-1.875.516,2.467,2.467,0,0,1-1.875.8h-8.11a4.559,4.559,0,0,1-2.062-.516,11.429,11.429,0,0,0-2.438-.984A1.015,1.015,0,0,0,294,103.258v7.64Zm-9.094-2.671a1.016,1.016,0,0,1-1.172,1.125h-1.687a1.016,1.016,0,0,1-1.125-1.172v-2.625a1.015,1.015,0,0,1,1.172-1.125h1.734a1.019,1.019,0,0,1,1.078,1.218v2.579Zm24.844,0.609a1.016,1.016,0,0,1-1.172,1.125h-8.812a1.015,1.015,0,0,1-1.125-1.172v-2.672a1.322,1.322,0,0,1,1.406-1.312h8.484a1.057,1.057,0,0,1,1.219,1.172v2.859Zm12.8-21.938q-0.845,1.5-.656,1.594a13.006,13.006,0,0,0,3-2.109q1.405-1.312,1.359-.187a26.549,26.549,0,0,0-.328,2.719q-0.236,1.5-1.266,1.406l-1.312-.094q-1.548-.187-1.406.844a1.349,1.349,0,0,0,1.687.891l0.469-.047q1.359-.141,1.125,1.078l-0.844,3.656a6.057,6.057,0,0,0-.328,1.875,1.642,1.642,0,0,0,1.547,1.125q2.718,0.329,2.812-1.922a1.105,1.105,0,0,1,1.313-.8h5.062q1.125,0,1.031.188a2.481,2.481,0,0,1-1.593.563q-1.546,0-2.953.141-0.095.235,1.265,1.266a4.182,4.182,0,0,1,1.688,2.531q0.093,0.75,1.5.75l0.515-.094q1.593-.514.938,0.657a1.377,1.377,0,0,1-1.922.609,16.754,16.754,0,0,0-2.953-.937,3.666,3.666,0,0,0-1.828-.094q-0.187.188,1.593,1.64a7.986,7.986,0,0,1,1.876,3.282q0.374,1.405-.75,1.406-3.8,0-7.594-.188a1.118,1.118,0,0,0-1.266,1.407,26.891,26.891,0,0,0,.61,2.765,3.345,3.345,0,0,0,.89,1.547,0.74,0.74,0,0,0,.656-0.375,1.291,1.291,0,0,1,1.266-.656q1.922-.375,3.844-0.563,1.406-.045.375,1.266a22.214,22.214,0,0,1-8.25,6.234,3.327,3.327,0,0,0-1.453.844,2.787,2.787,0,0,0,1.546.047,27.8,27.8,0,0,0,11.719-4.078,4.763,4.763,0,0,1,1.36-.516q1.264,0.329,1.265-.8a8.868,8.868,0,0,0-2.718-2.343q-1.5-.891-0.188-1.078l4.125-.563q1.406-.141,1.406.984v6.75q-0.562,2.718,2.625,2.86,3.094-.376,2.438-3v-7.406a1.33,1.33,0,0,1,1.125-1.407l7.172-1.265a1.707,1.707,0,0,1,2.015.89q0.891,3.564,3.328,3a3.342,3.342,0,0,0,1.875-3.093q0.046-2.062-3.047-3.516a22.812,22.812,0,0,0-5.624-1.594q-0.939-.281-1.126.188a4.785,4.785,0,0,0,1.407,1.172q2.954,2.155.469,1.734l-8.954.609q-1.782.095-.468-0.8,2.155-1.17,4.312-2.531a4.317,4.317,0,0,1,1.875-.937,0.687,0.687,0,0,0,1.031-.422,1.741,1.741,0,0,0-1.125-1.5,17.519,17.519,0,0,0-3.562-2.063,3.754,3.754,0,0,0-.938,1.407,29.374,29.374,0,0,1-5.531,5.765,4.263,4.263,0,0,1-1.734,1.172q-0.423-.047-0.047-0.8,0.514-1.734-.094-2.344-0.421-.608.656-1.078,1.734-.984,3.422-2.156a2.3,2.3,0,0,1,1.031-.516q0.891-.045.657-0.843-0.141-.187,1.172-0.61a25.069,25.069,0,0,0,6.047-2.765,1.88,1.88,0,0,1,2.531.281,24,24,0,0,0,5.531,4.031,1.629,1.629,0,0,0,2.25-.75,7.2,7.2,0,0,1,2.906-2.109,6.489,6.489,0,0,0,1.547-.422,0.507,0.507,0,0,0,.094-0.422,3.278,3.278,0,0,0-1.547-.516,23.74,23.74,0,0,1-7.5-2.719,1.314,1.314,0,0,1-.328-2.25,25.53,25.53,0,0,0,3.516-7.031,1.838,1.838,0,0,1,1.687-1.406h1.406a2.791,2.791,0,0,0,1.688-.281q-0.094-1.078-2.2-2.906-1.923-2.015-2.719-.656-0.845.938-1.547,1.875a3.034,3.034,0,0,1-.656.656q-2.812.141-5.625,0.094-1.125,0-.516-1.125l0.938-1.453a3.382,3.382,0,0,1,1.218-1.266q0.891-.327.7-0.844a1.349,1.349,0,0,0-1.031-.7,21.539,21.539,0,0,0-3.422-.8q-1.454-.234-1.781,1.547a30.749,30.749,0,0,1-2.484,7.922q-0.657,1.454-.985,1.219-0.8-.327-1.406.891a4.649,4.649,0,0,1-1.781,1.922q-0.236,0-.094-1.125,0.047-2.015.844-2.344,1.171-.468,1.078-1.078a6.234,6.234,0,0,0-1.688-1.547,8.279,8.279,0,0,0-1.874-1.078q-0.986-.844-2.344,1.125a2.371,2.371,0,0,1-.8.609h-4.5a4.95,4.95,0,0,1-3.141-1.125q-1.266-.609-0.75-1.266A2.077,2.077,0,0,1,330,82.117h13.453a2.463,2.463,0,0,0,1.688-.328q-0.7-1.922-3.985-4.172-0.375-.093-1.828,1.594-1.171,2.25-2.672,1.688h-5.765q-1.125,0-.657-0.891a1.9,1.9,0,0,1,1.125-.891q0.938-.234.75-0.8a1.267,1.267,0,0,0-.984-0.75,22,22,0,0,0-3.328-.984q-1.266-.234-1.641,1.313a27.768,27.768,0,0,1-3.609,9h0Zm31.219,3.469q-0.939,1.406-1.969.375a15.91,15.91,0,0,1-2.344-4.172,1.627,1.627,0,0,1,.281-1.687,1.919,1.919,0,0,1,1.547-.516h3.235a0.86,0.86,0,0,1,.937,1.172,15.893,15.893,0,0,1-1.687,4.828h0Zm-17.672-4.125q2.109-.468,1.453,1.547a5.4,5.4,0,0,0-.141,1.219q-0.281,1.406-1.078,1.406-0.657,0-.469-1.125a2.625,2.625,0,0,0-2.765-2.531,4.738,4.738,0,0,0-1.922.188,4.947,4.947,0,0,1,1.266,2.063q0.422,1.406-1.079,1.406t-1.406-1.125a7.565,7.565,0,0,1,.235-1.547,1.691,1.691,0,0,1,1.687-1.5h4.219Zm14.062,6.8a1.941,1.941,0,0,1-.422,2.484,30.778,30.778,0,0,1-5.484,3.938,3.476,3.476,0,0,1-3.047.094,1.254,1.254,0,0,1-1.078-1.641,1.3,1.3,0,0,1,1.406-.984q2.391,0.047,4.735-.094,0.607-.656-0.282-1.641a16.538,16.538,0,0,0-1.546-1.875q-1.173-1.406-2.485,1.125-0.75,1.453-1.312,1.219a16.405,16.405,0,0,1,.375-2.578,1.432,1.432,0,0,1,1.406-1.406h3.234a4.76,4.76,0,0,0,1.594-.141,0.946,0.946,0,0,0-.141-1.312q-1.079-1.5-.047-2.484,1.032-1.03,1.313.281a31.364,31.364,0,0,0,1.781,5.016h0ZM336.7,94.3q-0.375,1.406-1.265,1.406-0.751,0-.563-1.125-0.141-2.2-2.719-2.344-1.593-.046-0.937.891a5.616,5.616,0,0,1,.422,2.156q0.186,0.422-1.407.422a1.013,1.013,0,0,1-1.218-1.266l0.281-1.359a1.492,1.492,0,0,1,1.453-1.406H336q1.078,0,.891,1.266Zm13.359,19.781a13.941,13.941,0,0,1,6.329,4.969,4.155,4.155,0,0,0,2.015,2.109q1.875,0.421,2.672-1.781a2.824,2.824,0,0,0-.187-2.813,6.8,6.8,0,0,0-3.61-2.437,27.661,27.661,0,0,0-7.219-1.172q-1.5,0-1.5.422a3.428,3.428,0,0,0,1.5.7h0Z"/>
</svg>
