<svg xmlns="http://www.w3.org/2000/svg" width="1540" height="1450" viewBox="0 0 1540 1450">
  <defs>
    <style>
      .cls-1 {
        fill: #fff;
      }

      .cls-1, .cls-2, .cls-3 {
        fill-rule: evenodd;
      }

      .cls-2 {
        fill: #fefefe;
      }

      .cls-3 {
        fill: #fdfdfd;
      }
    </style>
  </defs>
  <path id="字体名称" class="cls-1" d="M213.32,187.914q-4.687,9.375-10.937,7.031H102.188a53.947,53.947,0,0,0-7.813-.976q-6.839-.587-5.664,4.3,1.172,3.515,7.617,2.929l6.25-1.172h48.438q4.688,0,4.687,4.883v56.446q0,4.688-4.883,4.687H110.781a53.925,53.925,0,0,0-7.812-.977q-6.643-.585-5.664,4.3,1.364,3.516,7.617,2.93l6.25-1.172h39.844q4.688,0,4.687,4.883v63.477q0,4.688-4.883,4.687H91.836a47.935,47.935,0,0,0-7.422-.976q-7.031-.586-5.859,4.1,1.172,3.9,7.422,2.93l6.445-.977H250.234q7.224,1.365,7.422-2.539-4.1-7.03-15.234-15.625-6.838-7.224-11.328-1.758l-5.86,7.813q-4.884,9.375-11.132,7.031H182.07q-4.687,0-4.687-4.883V275.805q0-4.687,4.883-4.688h45.9q5.466,0,6.836-.781a2.063,2.063,0,0,0,.781-1.758q-9.96-13.083-19.14-18.359-6.057-4.1-10.547,5.273l-3.125,3.906q-3.127,5.082-5.469,6.25-8.012.586-15.43,0.391-4.687,0-4.687-4.883V204.711q0-4.687,4.883-4.688H237.93q5.859,0,7.422-.781,1.363-1.171-3.516-7.226-9.769-10.74-18.555-14.454-1.368,0-6.836,6.446Zm141.016,5.469q0,4.688-4.883,4.687a86.837,86.837,0,0,1-15.43-.976q-6.642-.587-5.468,4.3,1.171,3.909,7.422,2.929a39.484,39.484,0,0,1,13.671-1.172q4.688,0,4.688,4.883-0.2,10.158.391,20.313a18.045,18.045,0,0,0,2.539,2.929q5.859,3.91,15.039.2,3.122-3.516,2.539-5.274a1.932,1.932,0,0,1,2.148-1.953q1.95,0.2,1.953,4.883v5.469q0,4.688-4.883,4.687H361.953q-4.687,0-6.641-1.172a80.8,80.8,0,0,0-13.281-5.273q-6.055-1.562-6.054,4.687v33.008q0,5.86,1.171,7.227,6.835,4.1,16.016-.977a15.48,15.48,0,0,0,2.539-3.906q0.39-2.536,5.078-2.539h13.086q4.688,0,4.688,4.687l-0.2,6.25q-0.781,5.861-5.468,5.86H344.18a58.632,58.632,0,0,0-7.618-.977q-7.031-.585-5.859,4.3,1.365,3.909,7.617,2.93l6.25-1.172h28.321q4.293,0,3.32,5.273l-1.172,5.469q-1.954,5.859-6.641,5.859H332.852l-7.227-.781q-7.031-.585-5.664,4.3,0.975,3.516,7.422,2.93l6.25-1.172h32.812q4.688,0,1.953,5.859-18.164,29.686-47.265,39.844-6.057,2.537-6.055,3.516,0.779,0.777,7.813.39a96.371,96.371,0,0,0,42.968-16.015q16.8-11.719,22.657-26.563,1.95-3.708,3.711,1.563,7.419,18.942,21.875,28.711,17.184,12.108,32.226,12.695,0.975-.395,2.539-6.25a25.612,25.612,0,0,1,6.836-11.719q5.274-4.884,5.274-6.055-0.981-.393-6.836-0.39-24.22.778-42.969-9.375a44.4,44.4,0,0,1-13.867-10.938q-3.911-5.272.781-5.273h50q6.051,0,7.031-.781,0.975-.975-2.734-6.836a80.1,80.1,0,0,0-14.258-12.305q-4.5-2.343-8.789,5.469a32.642,32.642,0,0,0-3.516,4.492q-3.712,4.688-8.593,4.687H397.7q-4.3,0-2.929-5.273l1.172-5.469q1.363-5.859,6.054-5.859h33.4q6.247,0,7.226-1.367,0-1.173-4.3-7.032l-2.539-2.539q-4.3-3.9.391-4.882,4.491,0,6.836-4.493,0.585-7.809.39-15.625-1.172-6.051,4.1-8.007,5.274-4.491-3.516-8.2a46.2,46.2,0,0,0-9.765-5.468q-5.86-2.148-9.766.976a10.962,10.962,0,0,1-8.2,3.711h-12.5q-4.687,0-4.688-4.883V228.93q0-4.687,2.54-4.688,2.343,0,2.539,1.953,2.535,6.254,8.2,6.25,9.567,0.98,12.109-5.078,0.587-9.763.391-19.531,0-4.687,4.883-4.688h20.117q7.223,1.37,7.422-2.734a53.593,53.593,0,0,0-17.969-16.6q-0.783,0-6.25,5.469l-3.516,3.711q-4.687,4.688-4.687-1.172,0-5.272,1.562-7.226,3.708-5.466-2.539-8.594l-13.476-1.953q-6.057-.586-6.055,5.469v13.867q0,4.688-4.883,4.687H379.531q-4.687,0-4.687-5.859-1.758-5.859,5.273-12.5a7.642,7.642,0,0,0-5.859-3.516A82.485,82.485,0,0,0,360,174.047q-5.859-.586-5.664,5.859v13.477Zm-58.594-5.664a33.561,33.561,0,0,1,4.492,15.625q1.561,14.456,13.282,13.281,8.98-2.147,10.156-11.914,1.363-6.638-4.1-12.5a50.968,50.968,0,0,0-23.437-11.523q-3.516-1.365-4.688.585-0.2.981,4.3,6.446h0Zm108.594,26.758q0,4.688-4.883,4.687H379.531q-4.687,0-4.687-4.883v-6.445q0-4.687,4.883-4.688h20.117q4.491,0,4.492,5.079v6.25ZM291.055,300.805q-2.344,2.151-6.836,1.953-6.84,0-7.813.586-0.98.98,6.446,5.273,7.809,5.859,7.226,11.133a82.8,82.8,0,0,1-.39,11.328q-4.1,17.184,2.734,25.781,10.35,6.249,16.992-1.367,6.446-9.768,2.148-21.68-7.227-19.527-3.32-33.4l21.875-78.32q0.975-5.859,0-6.641-0.783,0-4.492,6.25Zm-7.227-57.422q-1.758,16.017,9.766,18.75,11.522,1.758,13.867-12.695,1.363-9.568-10.547-17.579a48.961,48.961,0,0,0-15.625-6.445q-4.1-1.758-4.3,1.367a29.782,29.782,0,0,1,6.836,16.6h0Zm90.43,1.172q4.688,0,4.687,4.883V260.57q0,4.688-4.883,4.688H360.586q-4.687,0-4.688-4.883V249.633q0-4.491,6.446-5.078h11.914Zm49.219,16.015q0,4.688-4.883,4.688H403.75q-4.687,0-4.688-4.883V249.242q0-4.687,4.883-4.687h14.649q4.879,0,4.883,5.273V260.57Zm-4.3,16.407-4.492,5.664q-3.712,4.494-8.594,4.492h-3.906q-4.3,0-4.1-5.274l0.391-5.664q0.585-5.859,5.273-5.859h15.234q4.491,0,4.493,1.562,0.192,0.981-4.3,5.079h0Zm136.132-77.344q0,4.688-4.882,4.687H511.953q-6.445-.388-7.422-4.687-1.368-4.491-2.343-5.078-0.783.2-2.54,6.054a31.064,31.064,0,0,1-15.039,19.922q-6.252,6.642-5.468,11.719,1.95,9.572,10.156,9.961,10.35,0.393,14.648-10.938a43.29,43.29,0,0,0,2.344-16.406q0-4.687,5.859-5.469h108.79q4.88,0,3.124,4.883l-8.007,18.36q0.192,1.565,2.148,1.562,12.108-5.273,28.906-16.6a14.658,14.658,0,0,1,7.618-2.149q4.293-2.733-2.149-7.031a171.742,171.742,0,0,0-15.625-10.352q-5.08-4.1-11.719,3.711a15.438,15.438,0,0,1-8.593,2.539H581.875q-4.687,0-4.687-4.882V191.43q0-4.687,2.343-6.055,5.078-2.147,2.344-5.664-6.446-3.708-20.7-4.3-5.859,0-5.86,5.859v18.36ZM576.406,238.5h-50.39a41.044,41.044,0,0,0-7.618-.781q-6.838-.587-5.664,4.3,1.365,3.909,7.618,2.929l6.25-1.172h80.859q5.859,0,7.031-.585a3.135,3.135,0,0,0,.781-1.954q-8.788-12.108-17.578-16.992-4.5-3.121-8.984,4.883-6.254,11.329-12.305,9.375h0Zm38.282,31.641q-3.712,4.494-8.594,4.492H501.016a64.249,64.249,0,0,0-8.008-.977q-5.859-.585-6.055.2l0.391,2.343q1.758,5.667,8.008,4.493l6.25-.977h51.367q4.688,0,4.687,4.883v50.195q0.975,9.764-8.2,7.813l-10.547-.2q-6.838-1.368-6.64,2.735,0.192,0.777,6.25,2.929a24.475,24.475,0,0,1,11.132,8.985q2.733,6.248,8.594,6.054,17.967-.979,21.094-17.382V284.4q0-4.687,4.883-4.687h56.054q6.052-.587,6.25-1.758-3.712-8.2-18.359-18.555-4.3-3.318-8.4,4.3a68.407,68.407,0,0,0-5.078,6.446h0Zm-108.4,42.968a111.752,111.752,0,0,1-24.023,30.469q-5.667,5.466-5.469,6.25,0.388,0.779,6.25-.195,21.871-7.815,43.164-31.25,7.031-9.765,11.133-7.813,4.491,0.98,5.078-4.1a58.621,58.621,0,0,0-16.211-13.281q-7.425-3.906-8.2-3.126-5.471,11.528-11.719,23.047h0Zm91.016-7.226q24.413,11.133,35.547,38.867,5.663,10.547,16.21,5.469,7.618-6.445,5.079-13.477-4.5-15.426-25.391-26.953a89.639,89.639,0,0,0-31.25-9.18q-6.446,0-6.445,1.563,0.192,0.979,6.25,3.711h0ZM709.023,188.5q0,5.859-.976,4.688a19.359,19.359,0,0,0-5.078-1.758,151.528,151.528,0,0,0-15.235-1.563q-6.252-.192-5.859,6.055a365.812,365.812,0,0,1-6.25,61.328q-0.98,8.2.781,7.422,6.638-8.4,15.039-28.32,2.929-5.861,7.617-5.86h5.274q4.688,0,4.687,4.883v35.547q0,4.688-4.882,5.859-11.329,2.541-22.657,4.1-6.839.585-7.422,1.562a123.583,123.583,0,0,0,6.641,19.532q0.975,4.688,4.3,6.445,4.295-.192,3.906-4.3,0-1.758,4.883-4.492l9.18-4.3q6.051-2.733,6.054,2.148v53.907q-0.98,14.839,14.649,11.132,5.662-2.343,5.859-6.25V285.766q0-4.687,4.883-7.813a217.425,217.425,0,0,0,18.945-14.062q6.445-4.491,4.3-6.641-11.133,5.274-22.265,9.766-5.86,1.954-5.86-2.735v-29.1q0-4.687,4.883-4.688H751.8q6.249,0,7.226-1.172,0.39-1.172-2.734-7.031-2.151-4.491-10.351-10.547-1.173-.192-6.446,6.836l-2.734,3.906q-1.172,3.324-5.274,2.93-1.954-.192-1.953-4.883V191.625q0-4.687.391-5.469,7.42-2.93,5.664-7.422-5.471-3.708-21.094-4.882-5.47-.39-5.469,6.054V188.5Zm73.633,13.477q0,4.688-4.883,4.687-12.89.587-20.9-.976-5.859-.587-6.25.2l1.172,4.492q1.171,3.324,7.422,2.539,6.637-1.758,18.75-1.172,4.688,0,4.687,4.883v22.852q0,4.688-4.883,4.687H755.117a58.584,58.584,0,0,0-7.617-.976q-7.032-.587-5.859,4.3,1.364,3.713,7.617,2.735l6.25-.977h98.633q6.248-.585,6.445-2.148-4.1-7.421-13.477-14.649-7.814-8.005-11.523.586l-5.274,6.446q-4.1,4.688-8.789,4.687h-12.5q-4.687,0-4.687-4.883V216.43q0-4.687,4.883-4.688h32.812q5.861,0,7.031-.781,0.976-1.172-4.1-8.2a95.8,95.8,0,0,0-7.813-7.031q-4.687-4.1-7.031-4.1a46.155,46.155,0,0,0-7.617,8.008q-2.929,4.884-5.664,6.64-0.783.395-6.641,0.391t-5.859-4.883V190.258q0-4.687,2.148-6.446,6.249-1.95,2.344-6.054a71.577,71.577,0,0,0-20.508-4.1q-5.859,0-5.664,6.25v22.071Zm-73.633,18.75q0,4.688-6.64,4.687t-5.078-4.883q3.122-9.567,5.468-18.554a7.522,7.522,0,0,1,3.907-3.321q2.343-2.147,2.343,3.321v18.75ZM806.094,276q0,4.688-4.883,4.688H753.359a36.086,36.086,0,0,0-7.421-.782q-7.032-.585-5.86,4.3,1.365,3.713,7.617,2.735l6.25-.977h47.461q4.688,0,4.688,4.883v42.187q0,4.688-1.172,5.86-2.541,2.147-8.984,1.953l-6.641.39q-5.859,0-6.641,1.954,0,0.975,6.446,3.906,9.177,5.076,9.96,11.718,0.39,3.123,6.25,3.321,17.77-1.566,22.461-16.992V290.648q0-4.687,4.883-4.687h19.336q7.032,1.368,8.008-2.734a74.071,74.071,0,0,0-17.578-16.993q-3.516-1.95-9.961,7.813-4.687,5.471-4.688.781v-5.469q0-4.879,2.344-5.859,4.88-1.363,2.93-5.664-2.344-2.147-7.031-2.539a130.693,130.693,0,0,0-13.477-1.563q-5.859-.585-6.25.391Q805.9,265.066,806.094,276h0Zm-47.656,25.977a32.8,32.8,0,0,1,8.789,19.531q0.777,9.768,10.937,11.719,6.834,0.389,10.547-6.836Q794.57,311.742,774.844,301a61.3,61.3,0,0,0-13.672-4.492q-5.859-.975-6.836-0.391-0.586.783,4.1,5.86h0ZM968.2,217.211q-0.393,52.93-4.687,80.859-8.6,37.895-41.993,58.008-5.859,3.708-5.859,4.688,0.586,1.171,8.2-.391,31.246-8.012,50-36.914a107.106,107.106,0,0,0,10.938-29.3q1.364-5.859,6.054-5.859h33.011q4.68,0,4.68,4.883v39.257q0,4.688-.58,5.86-5.085,3.515-18.75,2.343-5.865-.2-6.45,1.172c0,0.782,1.96,1.953,5.86,3.516a20.489,20.489,0,0,1,13.09,12.109q1.95,5.86,7.81,5.469,18.165-2.541,20.7-19.141V205.1q0-4.687.98-5.664c3.13-1.432,5.01-3.058,5.67-4.883q0-4.88-9.97-11.328-6.045-4.491-9.76-5.079c-1.05,0-3.19,2.021-6.45,6.055q-2.535,6.446-9.57,5.078H995.938a13.835,13.835,0,0,1-7.227-1.562q-7.032-3.9-14.063-7.031-5.859-2.536-6.445,3.71v32.813Zm-40.234-28.125-18.75.195a18.665,18.665,0,0,1-8.008-1.562,64.09,64.09,0,0,0-11.719-4.883q-7.813-1.95-7.812,3.906V305.3q-0.587,6.253,2.148,9.375,9.567,4.688,17.578-2.344,2.93-5.466,1.953-20.117,0-4.687,4.883-4.688h20.313q4.688,0,4.687,4.883v5.078q-0.783,5.861,1.563,8.594,5.076,3.516,14.257.781,5.077-2.147,5.665-6.64V204.711q-1.37-6.051,4.3-7.227,7.032-4.293-3.125-9.961a79.2,79.2,0,0,0-13.281-6.64q-5.667-1.172-11.719,5.664a10.332,10.332,0,0,1-2.929,2.539h0Zm-0.586,5.469q4.688,0,5.469.781,0.389,0.587.39,5.273v30.274q0,4.688-4.883,4.687H908.047q-4.687,0-4.688-4.882V199.633q0-4.491,1.172-4.883,11.523-.388,22.852-0.195h0Zm94.917,0,5.67,0.195q0.585,0.979.58,5.664v31.25c0,3.125-1.62,4.688-4.88,4.688h-29.1q-4.687,0-4.687-4.883V199.633q0-4.687,6.055-5.078H1022.3Zm-89.058,83.2q0,4.688-4.883,4.687H908.047q-4.687,0-4.688-4.883V245.336q0-4.687,4.883-4.688h20.313q4.688,0,4.687,4.883v32.227Zm95.308,0.781c0,3.125-1.62,4.688-4.88,4.688H991.836q-4.687,0-4.3-4.688a283.685,283.685,0,0,0,2.149-31.25q0.389-5.859,5.078-5.859h29.1q4.68,0,4.68,4.882v32.227Zm61.14-49.023q0,4.688-1.17,4.882c-0.66,0-1.63-1.171-2.93-3.515-1.57-1.953-2.67-2.8-3.32-2.539q-0.585.98,0,6.836a34.419,34.419,0,0,1-5.86,19.922q-5.28,7.813-4.3,11.718,3.9,10.745,14.26,5.078,2.73-1.95,2.73,2.735v78.906q-2.535,10.937,9.18,10.352,11.715-1.954,9.38-13.868V319.555c0-3.125,1.62-4.688,4.88-4.688h7.03q4.7,0,4.69,4.883v16.406q1.755,7.81-5.08,8.008-6.06.192-6.64,1.758-0.195,1.171,7.42,5.859a9.834,9.834,0,0,1,2.74,6.25q-0.21,6.052,7.61,5.078,12.105-4.3,12.5-16.211V274.242q-1.17-6.051,3.13-7.422,6.045-3.708-.39-8.008c-1.7-1.431-1.11-3.124,1.75-5.078l4.5-3.125q6.045-3.9,6.05.391-0.78,8.986,9.38,7.227c5.86-.519,8.91-3.321,9.18-8.4q0.18-2.929,4.88-2.93h46.09q4.695,0,4.69,3.516-0.39,6.642,4.88,7.227,1.56,0-.78,3.711-2.73,5.469-8.4,3.906H1168.4a64.414,64.414,0,0,0-8.01-.977q-6.45-.389-5.66,3.907c0.39,2.215.84,3.515,1.36,3.906q6.255-1.173,12.5-1.758h83.4q5.865,0,7.03-1.172,0.975-2.733-4.29-9.18-5.475-5.859-4.69-7.422,0.585-1.56.58-7.421V208.422q-1.365-5.859,3.72-7.813,4.1-3.122-1.76-6.25a62.921,62.921,0,0,0-7.81-4.687q-7.815-6.052-12.31-.195c-1.69,1.953-3.39,2.929-5.08,2.929s-2.54-1.626-2.54-4.883q0-4.489,1.76-5.468c2.86-1.691,3.39-3.385,1.56-5.078a60.846,60.846,0,0,0-14.64-2.93q-5.865,0-5.86,5.859v7.813q0,4.688-3.71,4.687-3.525,0-3.52-4.883,0-4.687,1.76-5.468,4.68-2.148,1.56-5.078l-4.69-1.368a63.639,63.639,0,0,0-9.76-1.562q-5.865,0-5.86,5.859v7.813c0,3.125-1.31,4.687-3.91,4.687a13.032,13.032,0,0,1-6.25-1.367,68.919,68.919,0,0,0-9.37-3.516q-6.06-1.56-6.06,4.883v37.5q0,4.3-5.27.977-4.5-2.929-6.45-2.539c-0.65,0-.97-1.563-0.97-4.688v-29.1a12.58,12.58,0,0,1,2.14-7.617q1.575-2.733-4.1-7.618-8.79-8.788-13.47-2.539a16.328,16.328,0,0,1-2.93,2.735q-8.01.585-16.02,0.39-4.5.587-15.04-5.078-6.06-1.95-6.05,4.688v50Zm38.47-35.352q0,4.688-2.73,4.688c-1.69.262-4.43-.715-8.2-2.93q-6.06-2.146-6.06,4.1v29.883q0,4.688-2.34,4.688-1.95-.192-1.95-4.883V190.648q0-4.687,5.85-5.468h11.14q4.29,0,4.29,5.273v3.711Zm55.28,8.4v10.157q0,4.688-3.71,4.687c-2.22,0-3.32-1.626-3.32-4.883V199.242q0-.975,5.47-1.562,1.56,0.2,1.56,4.882h0Zm24.22,10.157q0,4.688-3.71,4.687-3.525,0-3.52-4.883V202.367q0-4.687,3.71-4.687c2.34,0,3.52,1.629,3.52,4.882v10.157Zm24.41,0q0,4.688-3.71,4.687c-2.34,0-3.52-1.626-3.52-4.883V202.367q0-4.687,3.71-4.687,3.525-.587,3.52,5.078v9.961Zm-103.91,16.992q0,4.688-1.95,4.883-1.755-.192-1.76-4.883V208.617q0-4.687,2.15-4.687,1.56,0,1.56,5.078v20.7Zm55.28,7.422q0,4.688-3.71,4.687c-2.22,0-3.32-1.626-3.32-4.882v-9.571c0-3.125,1.23-4.687,3.71-4.687q3.315,0,3.32,5.078v9.375Zm24.22,0q0,4.688-3.71,4.687-3.525,0-3.52-4.882v-9.571q0-4.687,3.91-4.687,3.315,0,3.32,5.078v9.375Zm24.41,0q0,4.688-3.71,4.687c-2.34,0-3.52-1.626-3.52-4.882v-9.571q0-4.687,3.91-4.687,3.315,0,3.32,5.078v9.375Zm-93.36,9.765q-2.145,5.47-4.88,4.1-4.89-3.32-8.01,3.516a10.535,10.535,0,0,1-8.4,4.3h-4.88q-4.695.586-14.06-4.1a9.472,9.472,0,0,1-6.64-8.2q-1.77-5.859,4.1-6.641h40.62q4.5,0,2.74,5.274Zm-19.92,17.188c3.12,0,4.95,2.084,5.47,6.25v8.789q0,4.688-4.88,4.687h-7.04q-4.68,0-4.68-4.882v-9.375q0-4.687,5.86-5.469h5.27Zm43.36,51.953q-1.95,9.572,6.44,9.18,5.67-.39,8.99,4.687a28.524,28.524,0,0,1,1.95,10.547,31.4,31.4,0,0,0,.98,8.985q1.755,3.318-3.13,3.32-15.045.585-23.04-.977-7.035-.393-5.86,4.3,0.78,3.516,7.42,2.734a38.368,38.368,0,0,1,6.44-.976h90.63c3.91,0,6.18-.458,6.83-1.367q0.39-4.884-9.37-14.453-5.67-4.5-10.74,1.172l-4.3,6.445a8.954,8.954,0,0,1-2.34,2.734,71.73,71.73,0,0,1-10.55.391c-3.12,0-3-1.3.39-3.906a59.4,59.4,0,0,0,10.74-10.743c1.69-2.215,3.39-3.387,5.08-3.515,2.21-.782,3.13-1.758,2.74-2.93q-1.77-3.712-9.57-4.883a56.347,56.347,0,0,0-7.82-1.758c-4.29-.65-6.64-0.714-7.03-0.2a134.057,134.057,0,0,1-4.1,22.07q-2.145,5.861-6.84,5.86h-4.88q-4.89,0-2.73-3.906,4.29-15.628-14.07-23.438-5.85-2.343-4.88-3.32l1.37-2.93q0.585-1.95,5.27-1.953h36.72c3.13,0,4.75.717,4.88,2.148l0.98,2.93q4.1,4.3,12.11,1.758,4.485-.587,6.05-5.859-0.2-11.327.39-22.071,10.74-4.1.59-9.765a51.936,51.936,0,0,0-11.72-6.25q-4.68-3.319-7.81,2.148a10.272,10.272,0,0,1-7.81,3.32h-33.79a19.071,19.071,0,0,1-8.6-2.148,47.535,47.535,0,0,0-10.15-4.1q-5.865-1.363-5.86,4.883v31.836Zm-37.89-11.133q0,4.688-4.88,4.688h-7.04q-4.68,0-4.68-4.883V293.773c0-3.125,1.62-4.687,4.88-4.687h7.23q4.485,0,4.49,5.078v10.742Zm103.51,2.539q0,4.688-4.88,4.688h-36.72c-3.12,0-4.69-1.627-4.69-4.883V296.117c0-3.125,1.96-4.947,5.86-5.469h35.36q5.07,0,5.07,4.883v11.914Zm53.32-91.406q-3.51,6.254-2.73,6.641a54.308,54.308,0,0,0,12.5-8.789q5.865-5.466,5.66-.782a112.218,112.218,0,0,0-1.36,11.329c-0.66,4.168-2.41,6.121-5.28,5.859l-5.47-.391q-6.435-.779-5.86,3.516c0.79,2.865,3.13,4.1,7.04,3.711l1.95-.2q5.655-.587,4.69,4.492l-3.52,15.234q-1.56,5.471-1.37,7.813a6.845,6.845,0,0,0,6.45,4.687q11.325,1.37,11.72-8.008,0.585-3.318,5.47-3.32h21.09c3.13,0,4.56.262,4.3,0.781a10.364,10.364,0,0,1-6.64,2.344q-6.45,0-12.31.586-0.39.979,5.28,5.273,5.85,4.5,7.03,10.547,0.39,3.127,6.25,3.125l2.14-.39q6.645-2.148,3.91,2.734-3.315,4.884-8.01,2.539a69.736,69.736,0,0,0-12.3-3.906q-6.645-1.171-7.62-.391-0.78.783,6.64,6.836a33.167,33.167,0,0,1,7.81,13.672c1.05,3.906,0,5.859-3.12,5.859q-15.825,0-31.64-.781-5.865,0-5.27,5.859a113.461,113.461,0,0,0,2.53,11.524c1.57,3.906,2.8,6.055,3.72,6.445,0.91,0.128,1.82-.39,2.73-1.562a5.372,5.372,0,0,1,5.27-2.735q8.01-1.56,16.02-2.343c3.91-.129,4.42,1.629,1.56,5.273q-13.275,16.406-34.37,25.977-5.865,2.535-6.06,3.515,0.585,0.779,6.45.195a115.916,115.916,0,0,0,48.83-16.992,19.811,19.811,0,0,1,5.66-2.148c3.52,0.909,5.27-.2,5.27-3.32q-2.925-4.5-11.33-9.766-6.24-3.708-.78-4.492l17.19-2.344q5.865-.587,5.86,4.1v28.125q-2.34,11.325,10.94,11.914,12.885-1.566,10.15-12.5v-30.86c0-3.125,1.57-5.078,4.69-5.859l29.88-5.274q5.67-1.172,8.4,3.711,3.7,14.845,13.87,12.5,7.425-3.708,7.81-12.89,0.2-8.592-12.69-14.649a95.222,95.222,0,0,0-23.44-6.64q-3.915-1.173-4.69.781c0,0.522,1.96,2.148,5.86,4.883q12.3,8.985,1.95,7.226l-37.3,2.539q-7.425.395-1.95-3.32,8.97-4.88,17.97-10.547,6.045-4.1,7.81-3.906,2.925,1.368,4.29-1.758,0.39-3.121-4.68-6.25a72.891,72.891,0,0,0-14.85-8.594q-0.78,0-3.9,5.86-6.84,10.355-23.05,24.023-5.865,5.082-7.23,4.883-1.755-.192-0.19-3.32,2.145-7.224-.39-9.766-1.755-2.536,2.73-4.492,7.23-4.1,14.26-8.984a9.54,9.54,0,0,1,4.3-2.149q3.7-.192,2.73-3.516-0.585-.777,4.88-2.539a104.407,104.407,0,0,0,25.2-11.523q5.865-3.516,10.55,1.172a100.163,100.163,0,0,0,23.04,16.8q5.865,2.539,9.38-3.125a29.934,29.934,0,0,1,12.11-8.789q5.655-1.173,6.44-1.758a2.115,2.115,0,0,0,.39-1.758q-0.585-.975-6.44-2.148a98.854,98.854,0,0,1-31.25-11.329q-6.06-3.707-1.37-9.375a106.556,106.556,0,0,0,14.65-29.3q2.34-5.861,7.03-5.86h5.86c4.03,0,6.38-.39,7.03-1.172q-0.39-4.489-9.18-12.109-8.01-8.4-11.33-2.734-3.51,3.909-6.44,7.812a12.409,12.409,0,0,1-2.74,2.734q-11.715.586-23.43,0.391-4.7,0-2.15-4.687l3.9-6.055q3.72-5.077,5.08-5.274,3.7-1.363,2.93-3.515a5.614,5.614,0,0,0-4.29-2.93,89.991,89.991,0,0,0-14.26-3.32q-6.06-.975-7.42,6.445a128.214,128.214,0,0,1-10.36,33.008q-2.73,6.055-4.1,5.078-3.315-1.363-5.86,3.711-4.1,6.642-7.42,8.008-0.975,0-.39-4.688,0.195-8.4,3.52-9.765,4.875-1.95,4.49-4.492,0-.976-7.03-6.446a34.494,34.494,0,0,0-7.82-4.492q-4.1-3.516-9.76,4.688a9.841,9.841,0,0,1-3.32,2.539h-18.75q-4.7.781-13.09-4.688c-3.51-1.691-4.56-3.448-3.12-5.273q1.95-2.148,6.64-2.149h56.05q6.06,0,7.03-1.367-2.925-8.007-16.6-17.383-1.56-.388-7.61,6.641-4.89,9.375-11.14,7.031h-24.02q-4.695,0-2.74-3.711,2.94-3.708,4.69-3.711,3.915-.975,3.13-3.32a5.274,5.274,0,0,0-4.1-3.125,92.01,92.01,0,0,0-13.87-4.1q-5.28-.975-6.84,5.469-5.265,22.659-15.04,37.5h0Zm130.08,14.453q-3.9,5.859-8.2,1.563a66.413,66.413,0,0,1-9.77-17.383,6.768,6.768,0,0,1,1.18-7.031q1.755-2.148,6.44-2.149h13.48q4.68,0,3.9,4.883a66.019,66.019,0,0,1-7.03,20.117h0Zm-73.63-17.187q8.79-1.95,6.05,6.445a22.563,22.563,0,0,0-.58,5.078q-1.17,5.859-4.49,5.86-2.745,0-1.96-4.688-1.17-9.961-11.52-10.547-7.23,0-8.01.781a20.5,20.5,0,0,1,5.27,8.594q1.77,5.859-4.49,5.86T1311.95,226a31.919,31.919,0,0,1,.98-6.445q1.17-5.861,7.03-6.25h17.58Zm58.59,28.32q2.94,5.859-1.75,10.352a128.281,128.281,0,0,1-22.86,16.406,14.472,14.472,0,0,1-12.69.39q-5.865-1.757-4.49-6.835,1.17-4.1,5.86-4.1,9.96,0.2,19.72-.391,2.535-2.733-1.17-6.836a67.5,67.5,0,0,0-6.45-7.812q-4.875-5.859-10.35,4.687-3.12,6.057-5.47,5.078a68.937,68.937,0,0,1,1.57-10.742q1.17-5.859,5.86-5.859h13.47q5.67,0,6.64-.586,1.95-2.733-.58-5.469-4.5-6.248-.2-10.351,4.29-4.294,5.47,1.172a130.947,130.947,0,0,0,7.42,20.9h0Zm-56.05,5.273c-1.05,3.907-2.8,5.86-5.28,5.86q-3.12,0-2.34-4.688-0.585-9.177-11.33-9.765-6.645-.192-3.9,3.711a23.376,23.376,0,0,1,1.75,8.984q0.78,1.758-5.86,1.758-5.85,0-5.07-5.274l1.17-5.664q1.365-5.859,6.05-5.859h21.88q4.485,0,3.71,5.273Zm55.66,82.422a58.073,58.073,0,0,1,26.37,20.7,17.3,17.3,0,0,0,8.4,8.789q7.8,1.758,11.13-7.421a11.768,11.768,0,0,0-.78-11.719,28.362,28.362,0,0,0-15.04-10.156q-12.705-4.1-30.08-4.883-6.255,0-6.25,1.758c0.26,0.653,2.35,1.629,6.25,2.929h0Z"/>
  <path id="中文示例" class="cls-2" d="M293.742,718.176q-0.2,26.466-2.344,40.429a43.919,43.919,0,0,1-21,29q-2.929,1.854-2.929,2.344,0.292,0.587,4.1-.195,15.624-4.005,25-18.457a53.55,53.55,0,0,0,5.469-14.649q0.683-2.93,3.027-2.929h16.5q2.344,0,2.344,2.441v19.629a8.583,8.583,0,0,1-.293,2.93q-2.541,1.758-9.375,1.172-2.929-.1-3.223.585,0,0.586,2.93,1.758a10.241,10.241,0,0,1,6.543,6.055,3.547,3.547,0,0,0,3.906,2.734q9.083-1.271,10.352-9.57V712.121q0-2.343.488-2.832a4.934,4.934,0,0,0,2.832-2.441q0-2.44-4.98-5.664a12.479,12.479,0,0,0-4.883-2.539q-0.783,0-3.223,3.027a3.821,3.821,0,0,1-4.785,2.539h-12.6A6.912,6.912,0,0,1,304,703.43q-3.516-1.953-7.031-3.516-2.929-1.268-3.223,1.856v16.406Zm-20.117-14.063-9.375.1a9.327,9.327,0,0,1-4-.781,32.044,32.044,0,0,0-5.859-2.442q-3.907-.975-3.907,1.953v59.278q-0.292,3.126,1.075,4.687a7.388,7.388,0,0,0,8.789-1.172q1.464-2.733.976-10.058,0-2.345,2.442-2.344h10.156a2.117,2.117,0,0,1,2.344,2.441v2.539q-0.392,2.931.781,4.3,2.538,1.758,7.129.391A4.15,4.15,0,0,0,287,759.68V711.926q-0.684-3.026,2.148-3.614,3.516-2.147-1.562-4.98a39.51,39.51,0,0,0-6.641-3.32q-2.834-.586-5.859,2.832a5.159,5.159,0,0,1-1.465,1.269h0Zm-0.293,2.735q2.344,0,2.734.39a8.662,8.662,0,0,1,.2,2.637v15.137q0,2.343-2.442,2.343H263.664q-2.343,0-2.344-2.441V709.387q0-2.245.586-2.442,5.762-.193,11.426-0.1h0Zm47.461,0,2.832,0.1a7.637,7.637,0,0,1,.293,2.832V725.4q0,2.344-2.441,2.344H306.926q-2.344,0-2.344-2.441V709.387q0-2.344,3.027-2.539h13.184Zm-44.531,41.6q0,2.345-2.442,2.344H263.664q-2.343,0-2.344-2.441V732.238q0-2.343,2.442-2.343h10.156q2.343,0,2.344,2.441v16.113Zm47.656,0.391a2.117,2.117,0,0,1-2.441,2.344H305.559a1.9,1.9,0,0,1-2.149-2.344,141.7,141.7,0,0,0,1.074-15.625q0.195-2.93,2.539-2.93h14.551q2.344,0,2.344,2.442V748.84Zm41.016-49.121v20.215q-0.2,17.09-1.075,35.449-1.563,18.555-12.109,31.25-3.613,3.124-3.223,3.808,0.39,0.39,3.516-.488,14.649-6.446,19.531-20.215a79.684,79.684,0,0,0,3.516-14.648q0.488-2.93,2.832-2.93h33.2q2.344,0,2.344,2.442v19.921q0.681,3.418-2.149,4.883a14.958,14.958,0,0,1-6.152.489q-3.908-1.173-4.2,1.171,0.292,0.781,4.1,1.758,3.224,1.172,5.664,5.567,1.173,3.123,4.2,2.929,8.5-.489,10.058-9.57V711.633q-0.783-3.808,3.223-5.176,2.733-1.659,1.172-3.711-3.615-3.709-12.207-7.324a16.388,16.388,0,0,0-2.832,3.125q-1.271,2.833-3.223,2.93H379.289a8.207,8.207,0,0,1-4.2-1.075q-2.929-1.659-5.86-3.027-3.713-1.758-4-1.27a12.638,12.638,0,0,0-.293,3.614h0Zm48.535,23.73q0,2.345-2.442,2.344H378.9q-2.343,0-2.343-2.441v-16.8A2.158,2.158,0,0,1,379,704.113h32.031q2.44,0,2.442,2.832v16.5Zm0,23.731q0,2.343-2.442,2.343H378.215a1.979,1.979,0,0,1-2.246-2.343q0.488-8.4.586-16.5,0-2.345,2.441-2.344h32.129q2.344,0,2.344,2.441V747.18Zm74.8-17.481q0,2.345-2.441,2.344H470.891q-2.345,0-2.344-2.441V711.145q-0.587-3.027,1.562-3.614,2.93-1.464,1.172-3.613a59.316,59.316,0,0,0-12.988-2.246q-0.49.292-.391,3.223v30.468q-0.879,4.2,2.539,5.664,6.542,1.955,8.106-3.515,0-2.929,2.441-2.93H485.93q2.343,0,2.343,2.441v39.161q0,2.343-2.441,2.343H467.863q-2.343,0-2.343-2.441v-20.9q-0.685-2.733,1.367-3.516,3.318-1.367,1.269-3.516a10.43,10.43,0,0,0-2.734-.976q-4-.781-7.715-1.172a2.59,2.59,0,0,0-2.93,2.93V784q-0.783,4.1,2.344,5.859,8.691,2.344,8.4-6.152,0-2.637,2.441-2.637h51.953q2.344,0,2.344,2.442-1.172,8.691,7.91,6.836,2.637-1.271,2.93-3.321V755.285q-0.586-3.025,1.66-3.711,1.854-.78,1.758-1.953-0.294-2.05-3.614-2.441-3.808-.781-7.617-1.172a2.591,2.591,0,0,0-3.027,2.832v27.344q0,2.343-2.442,2.343H501.555q-2.344,0-2.344-2.441v-39.16q0-2.345,2.441-2.344H516.4q2.345,0,2.344,1.758-0.585,4.1,4.3,4.785,4.588,0.978,6.445-3.809V710.754q-0.879-2.832,1.758-3.711,2.441-1.172,1.367-3.027a6.643,6.643,0,0,0-3.515-1.465,69.19,69.19,0,0,0-7.227-.977q-3.222-.388-3.125,2.539V729.7q0,2.345-2.441,2.344H501.555q-2.344,0-2.344-2.441V705.09a3.938,3.938,0,0,1,1.269-3.32q2.052-.682,1.368-2.442a6.559,6.559,0,0,0-3.418-1.465,44.7,44.7,0,0,0-7.325-.976q-2.834-.1-2.832,3.027V729.7ZM620.3,704.406a5.465,5.465,0,0,1-4.3,2.246H555.461a24.473,24.473,0,0,0-3.711-.488q-3.516-.292-2.832,2.148,0.587,1.857,3.711,1.368l3.125-.489h29.3q2.343,0,2.344,2.442,0.1,11.23-.586,21.387-0.294,2.929-2.637,2.929H556.633a24.473,24.473,0,0,0-3.711-.488q-3.516-.293-2.832,2.148,0.487,1.758,3.711,1.465l3.125-.586h27.246q2.146,0,1.758,2.735Q582.122,771.984,550.188,788q-3.128,1.466-3.028,1.953,0.293,0.488,3.223.1a56.293,56.293,0,0,0,27.539-13.379q14.257-13.77,17.285-32.129,0.683-3.222,1.367-.2a76.036,76.036,0,0,0,12.305,30.468,54.008,54.008,0,0,0,14.453,13.965q3.026,1.854,3.516,1.758a14.383,14.383,0,0,0,1.757-3.223,13.678,13.678,0,0,1,5.665-6.152q3.9-1.368,3.71-2.051-0.293-.489-3.418-1.269-11.523-2.736-22.167-13.965a67.169,67.169,0,0,1-13.575-22.461q-0.977-2.929,1.368-2.93h31.445a12.624,12.624,0,0,0,3.613-.293q0.488-.585-1.269-3.32a45.739,45.739,0,0,0-6.739-5.957q-3.419-4.1-6.347,1.562l-2.442,3.223a5.738,5.738,0,0,1-4.394,2.246H599.016q-2.345,0-2.246-2.441,0.78-6.249,1.269-21.387,0.195-2.929,2.539-2.93h33.3q3.417,0.686,3.711-1.367-5.079-6.346-8.5-8.3-3.713-3.9-6.25,1.661ZM687.98,773.84q0,2.343-2.441,2.344H667.18q-2.345,0-2.344-2.442v-47.07a11.2,11.2,0,0,1,.195-2.832l2.539-1.465q1.173-1.953,0-2.637-3.418-1.659-13.086-2.441-0.489.292-.39,3.223v63.769a5.567,5.567,0,0,0,.976,4.688q3.516,2.731,8.3.1,2.246-2.637,1.465-8.008,0-2.343,2.441-2.343H719.23q2.344,0,2.344,2.441a68.173,68.173,0,0,0,.2,7.324,3.19,3.19,0,0,0,1.953,2.051q6.834,2.245,8.691-3.223V726.672q-0.586-3.124,1.563-3.516,2.929-1.366,1.269-3.418a11.972,11.972,0,0,0-3.418-1.269l-7.519-.977q-2.736-.1-2.735,3.223V773.84a2.117,2.117,0,0,1-2.441,2.344H701.262q-2.344,0-2.344-2.442V705.676q0-2.441,1.074-2.93,2.733-1.366,1.172-3.027a32.466,32.466,0,0,0-10.547-2.051q-2.637-.1-2.637,3.223V773.84ZM820.7,703.82q0,2.345-2.441,2.344H806.047a20.564,20.564,0,0,0-3.809-.391q-3.419-.293-2.832,2.149,0.683,1.955,3.809,1.465l3.125-.586h12.012q2.343,0,2.343,3.32-0.684,6.738,6.934,5.664,4-1.659,2.93-6.055,0-2.929,2.441-2.929h18.555q2.343,0,2.343,3.32-0.684,6.738,6.934,5.664,4-1.659,2.93-6.055,0-2.929,2.441-2.929h18.555q3.025,0,3.613-.586,0.389-.488-2.441-4.1a39.487,39.487,0,0,0-5.078-4.492q-3.42-3.417-5.567.977l-2.637,3.222a5.32,5.32,0,0,1-4.2,2.344h-2.344q-2.343,0-2.343-2.051a5.974,5.974,0,0,1,1.562-3.613q0.975-1.659.684-2.051-2.833-1.464-9.082-2.148-3.029-.2-3.028,2.832v4.687q0,2.345-2.441,2.344H832.9q-2.343,0-2.343-2.051a5.607,5.607,0,0,1,1.367-3.418q1.171-1.464.879-2.148-2.345-1.659-8.985-2.149-2.93-.293-3.125,2.735v4.687Zm-3.808,28.125a137.16,137.16,0,0,1-14.649,6.641q-2.93.879-3.32,1.367a0.886,0.886,0,0,0,.586.684,57.558,57.558,0,0,0,13.184-2.051q2.929-.683,2.929,1.66v12.7l-0.683,8.594q-1.466,14.553-10.743,23.633-2.636,2.929-2.148,3.418a31.027,31.027,0,0,0,17.676-13.281q1.758-2.539,1.758.586v9.57q-0.685,3.222,1.855,4.2,6.738,1.268,8.106-3.613,0.193-1.466,2.539-1.465H862q2.343,0,2.539,1.758a3.714,3.714,0,0,0,1.66,2.441q5.37,1.367,8.008-2.246,0.292-6.055.195-12.109a2.755,2.755,0,0,1,1.66-3.711q2.733-2.051,0-3.613a43.785,43.785,0,0,0-7.812-4.1q-1.857-1.268-3.711,1.465a4.679,4.679,0,0,1-3.711,1.562H833.781q-2.442.391-6.445-1.855-2.929-1.074-2.637-3.027a2.551,2.551,0,0,1,2.832-1.954h29.2q2.148,0,2.735.879a5.787,5.787,0,0,0,6.25,1.465,3.412,3.412,0,0,0,3.125-1.953q0.292-6.541.195-12.793a6.742,6.742,0,0,1,.977-3.809q0.975-1.268-1.953-4.1l-3.125-2.149q-3.42-3.123-6.739,1.661a6.853,6.853,0,0,1-3.32.586H828.312q-2.148.293-5.761-1.758-2.249-.975.39-2.051l3.809-1.66q3.026-1.466,3.32-.391,0.294,0.978,3.223.781L837,733.41h13.965q3.318,0.879,3.613-1.66a20.274,20.274,0,0,0-5.176-6.738q-2.442-2.44-4.492,2.148l-2.539,3.418a26.623,26.623,0,0,1-6.445,0q-3.321-.292-0.977-1.855a80.18,80.18,0,0,0,9.082-6.739q2.733-2.246,4.883.879a49.2,49.2,0,0,0,15.82,12.6A93.422,93.422,0,0,0,879.387,742a12.847,12.847,0,0,0,3.32.879,11.465,11.465,0,0,0,1.367-3.418q1.074-3.9,6.934-7.031a1.229,1.229,0,0,0-.2-0.977q-0.39-.293-3.906-0.293a74.462,74.462,0,0,1-34.863-9.766q-3.029-2.147-2.051-2.441,1.466-.975-0.1-2.637a55.776,55.776,0,0,0-6.836-4.882q-2.931-1.465-5.079,1.953a58.258,58.258,0,0,1-21.093,18.554h0Zm39.746,9.668q2.343,0,2.344,3.028,0,2.93-2.442,2.929H827.922q-2.344,0-2.344-2.832-0.976-4.1,3.613-3.125h27.442Zm-0.1,15.039H827.727a1.98,1.98,0,0,1-2.247-2.343v-1.172q0.1-2.929,2.54-2.93h28.71q2.245,0,2.247,3.32,0,3.127-2.442,3.125h0Zm7.91,23.047q0,2.345-2.441,2.344H833.879q-2.345,0-2.344-2.441v-8.3q0-2.345,2.93-2.735h27.441q2.538,0,2.539,2.637v8.5Zm59.766-73.926q0,2.345-2.441,2.344h-16.8a20,20,0,0,0-3.907-.39q-2.929-.294-3.125.1l0.489,2.246q0.488,1.662,3.711,1.27l3.222-.586h16.5q2.344,0,2.344,2.441-0.586,5.373,1.269,7.227,5.37,2.929,8.887-1.465a44.132,44.132,0,0,0,.2-5.859q0-2.344,2.442-2.344H948.82q2.345,0,2.344,2.441a33.044,33.044,0,0,0,.2,5.078,3.746,3.746,0,0,0,3.125,2.149q4.59,1.075,6.836-2.051a35.774,35.774,0,0,0,.2-5.273q0-2.344,2.441-2.344h20.7q2.93,0,3.418-.391,0.293-.488-1.66-3.613a32.874,32.874,0,0,0-5.762-5.176q-3.222-3.417-5.664,1.074l-2.441,3.223a5.465,5.465,0,0,1-4.3,2.246h-4.395q-2.343,0-2.343-2.734a6.316,6.316,0,0,1,.781-3.613,16.045,16.045,0,0,0,1.758-2.442q-0.587-1.464-3.125-1.66a37.126,37.126,0,0,0-6.739-1.074q-3.027-.294-3.027,2.734v6.445q0,2.345-2.441,2.344H936.906q-2.343,0-2.344-2.734a6.2,6.2,0,0,1,.586-3.321q2.148-2.636,1.661-3.32a8.21,8.21,0,0,0-2.539-1.074q-3.516-.683-7.032-1.074-3.027-.294-3.027,2.832v6.347Zm-13.477,20.508a13,13,0,0,0,.684,5.86q1.268,2.93,3.711,3.125,4.3,0.782,6.348-3.907,2.439-5.76-4.1-10.254a18.914,18.914,0,0,0-6.934-2.734q-2.929-.292-3.027.488,3.222,3.908,3.32,7.422h0Zm40.039,6.446q0,2.343-2.441,2.343h-2.344a7.476,7.476,0,0,1-3.711-.781,50.165,50.165,0,0,0-10.254-4.394q-0.39.2-.585,3.125v43.652a8.045,8.045,0,0,0,3.515,5.762,21.391,21.391,0,0,0,7.813,3.125q5.663,1.268,16.8,1.464h11.817a109.527,109.527,0,0,0,12.6-.878q3.417-.1,3.418-4.395-1.564-5.371-7.325-4.395-17.969.1-32.324-.976-3.808,0-5.176-2.246a11.2,11.2,0,0,1-.2-2.832v-31.25q0-2.345,2.441-2.344h38.77a12.664,12.664,0,0,0,3.613-.293q0.683-.586-1.562-3.613a42.406,42.406,0,0,0-4.883-4.688q-3.614-3.71-5.664.391-4.005,6.642-6.836,5.566h-4.59q-2.343,0-2.344-2.441v-2.637q0-2.439,1.368-3.027,2.439-1.074.585-2.832a34.031,34.031,0,0,0-9.472-1.856q-3.029-.1-3.028,2.93v7.52Zm-42.48,28.808q-1.954,3.128-4.3,3.516l-1.367.488q-2.929.879-2.93,1.367a14.35,14.35,0,0,0,3.125,2.149,5.536,5.536,0,0,1,2.539,4.785,36.778,36.778,0,0,1-.781,8.5q-0.587,6.153,4.395,7.324a5.228,5.228,0,0,0,5.761-2.051,8.361,8.361,0,0,0,1.465-7.226q-1.27-3.908-2.148-7.813a21,21,0,0,1,1.66-8.886q6.639-16.015,12.793-31.739a2.178,2.178,0,0,0-.879-0.683q-0.49.2-2.734,3.613-8.5,13.38-16.6,26.66h0Zm-6.152-15.918q1.464,8.2,8.789,4.785a9.182,9.182,0,0,0,2.539-7.324q-3.321-7.713-12.891-9.57-2.05-.782-2.051.39,4.688,5.86,3.614,11.719h0Zm163.089-43.262q-1.08,2.052-4.11,1.465h-47.16l-3.71-.39q-3.42-.294-2.84,2.148,0.69,1.857,3.81,1.367l3.13-.488h21.38a2.117,2.117,0,0,1,2.35,2.441v3.614a2.118,2.118,0,0,1-2.44,2.343h-21.98l-1.07-.1c-2.08-.13-3.29-0.716-3.61-1.758a5.949,5.949,0,0,0-.88-2.148c-0.33-.065-0.88.944-1.66,3.027a15.67,15.67,0,0,1-7.815,8.594q-3.126,3.222-1.953,6.836a4.26,4.26,0,0,0,2.148,2.734q4.095,2.149,8.2-1.563a20.443,20.443,0,0,0,2.74-10.351c0-1.5.84-2.344,2.54-2.539l1.66-.2h21.77a2.117,2.117,0,0,1,2.35,2.441v16.5q-0.78,4.3,2.44,5.859,6.54,1.758,8.5-3.125V719.738c0-1.562.81-2.343,2.44-2.343h20.99a1.893,1.893,0,0,1,2.15,2.343l-0.68,3.809q-0.975,2.929-3.32,2.93h-14.36c-1.95,0-2.93.456-2.93,1.367q0,1.27,3.03,1.269h13.96a8.352,8.352,0,0,0,4.2-.781,99.3,99.3,0,0,0,9.77-6.055q2.73-2.246,3.91-2.148a2.153,2.153,0,0,0,2.24-1.367c0.07-.977-0.75-1.92-2.44-2.832-1.95-1.3-3.91-2.506-5.86-3.614-2.86-2.407-5.44-2.05-7.71,1.075a7.034,7.034,0,0,1-4.3,1.464h-18.75q-2.34,0-2.34-2.441V708.8c0-1.563.81-2.344,2.44-2.344h27.44c2.15,0.391,3.51.034,4.1-1.074q-1.275-2.832-8.3-8.4-2.925-3.222-4.98-.488-2.445,2.929-4.49,5.859h0Zm-49.52,25.586h14.65c1.96,0,2.93-.454,2.93-1.367,0-.781-1.01-1.172-3.02-1.172h-14.75c-1.89,0-2.83.457-2.83,1.368,0,0.781,1.01,1.171,3.02,1.171h0Zm-1.26,10.547h16.3c1.96,0,2.93-.454,2.93-1.367,0-.781-1.01-1.172-3.02-1.172h-16.31c-1.89,0-2.83.456-2.83,1.367,0,0.782.97,1.172,2.93,1.172h0Zm41.5,0.782h16.21c1.95,0,2.93-.455,2.93-1.368q0-1.172-3.03-1.172h-16.31c-1.89,0-2.83.457-2.83,1.368q0,1.172,3.03,1.172h0Zm0.49,11.523h-38.77a27.093,27.093,0,0,0-3.91-.488c-2.21-.2-3.16.522-2.83,2.148q0.675,1.758,3.81,1.465l3.12-.586h55.47q3.03,0.49,4.2-.879-4.875-7.42-11.23-10.058a30.92,30.92,0,0,0-5.86,6.738q-1.47,2.541-4,1.66h0Zm16.89,8.2q-2.25,4.592-5.56,3.418h-62.31a18.058,18.058,0,0,0-3.71-.391q-3.516-.293-2.93,2.149c0.455,1.237,1.72,1.694,3.81,1.367l3.12-.488h24.03c1.56,0,2.11.781,1.66,2.344a35.388,35.388,0,0,1-4.01,8.5q-2.04,3.123-4.98,3.222-7.125.1-15.33-.488c-0.33.325-.36,1.465-0.1,3.418a47.713,47.713,0,0,0,1.37,5.859q0.39,2.44,1.95,2.93a1.451,1.451,0,0,0,1.57-1.27,7.794,7.794,0,0,1,4.39-1.367q26.565-3.321,49.61-8.105a3.6,3.6,0,0,1,4.2,2.051l2.05,5.664q3.81,6.346,9.28,2.148a7.669,7.669,0,0,0,1.36-7.129q-1.065-4-5.66-7.617a28.235,28.235,0,0,0-11.72-5.078c-2.47-.65-4.3-0.781-5.47-0.391-0.39.847,0.04,1.465,1.27,1.856a10.388,10.388,0,0,1,3.23,2.441q2.535,3.026,0,3.223-15.15,1.464-31.45,1.758-2.445,0,.98-2.637a53.326,53.326,0,0,0,8.3-8.4q2.235-2.929,4.59-2.929h39.25q3.03,0,3.33-.781c0.06-.391-0.66-1.563-2.15-3.516a41.683,41.683,0,0,0-8.01-6.543q-2.25-1.367-4.49,2.832Zm37.6-52.148q0.285,6.836,4.59,8.691a6.08,6.08,0,0,0,5.96-1.758q4.785-9.471-6.06-14.551a33.335,33.335,0,0,0-6.64-2.05q-2.925-.294-3.12.39a19.676,19.676,0,0,1,5.27,9.278h0Zm13.38,24.511a0.868,0.868,0,0,0,.78.489q1.665-.586,5.37-4.2,2.25-2.244,2.05.391-0.675,8.692-2.05,16.309c-0.33,1.953-1.27,2.929-2.83,2.929a38.644,38.644,0,0,0-4.69-.488c-2.02-.13-2.83.522-2.44,1.953q0.39,2.149,4.2,1.563l2.05-.293c1.95-.064,2.8.683,2.54,2.246a210.572,210.572,0,0,1-4.79,21.972q-1.455,6.153,5.38,5.762,4.575,0.195,4.98-3.808c0.58-1.954,1.66-2.93,3.22-2.93h24.02q2.34,0,1.86,2.051-2.355,5.468-8.89,3.515-2.925-.293-3.42.293c0,0.391.85,1.27,2.54,2.637a11.575,11.575,0,0,1,4.1,5.762c0.26,1.953.56,3.059,0.88,3.32q8.5,0,13.09-7.812a26.4,26.4,0,0,0,2.44-6.836q0.78-2.931,3.12-2.93h6.25c2.09,0.326,3.42.033,4.01-.879a14.817,14.817,0,0,0-1.66-3.418q-5.37-8.788-8.3-1.855-2.055,2.734-1.57-.489,0.975-6.933,1.57-13.867,0.39-2.929,2.73-2.93h5.57q3.03,0,3.42-.488c0.32-1.106-.14-2.31-1.37-3.613a17.412,17.412,0,0,0-4.79-4.883c-0.45-.064-1.33.717-2.63,2.344q-1.965,2.05-2.05-.293l0.78-10.156a2.84,2.84,0,0,1,2.05-3.223q3.7-1.659.39-4.395a60.321,60.321,0,0,0-6.74-4.1q-2.73-1.854-5.37,2.93-1.17,2.05-4.2,1.464h-21q-2.34.49-6.54-2.05-2.925-1.269-1.17-3.614l1.76-2.539q1.95-2.929,4.29-2.929h39.85c2.08,0.326,3.42,0,4-.977q-1.755-3.9-7.71-8.2-3.225-3.417-5.67,1.074l-1.56,1.953q-1.95,4.688-5.37,3.613h-22.46q-2.055,0-.78-2.636l0.97-1.758q1.47-3.026,2.64-3.613,2.64-.781,1.46-2.735a32.6,32.6,0,0,0-8.3-3.222c-2.01-.782-3.35-0.911-4-0.391a95.806,95.806,0,0,1-12.01,33.984h0Zm-18.85,24.9a3.268,3.268,0,0,1-1.76,1.172,9.853,9.853,0,0,1-3.81.39c-1.95,0-3.06.131-3.32,0.391s0.82,1.042,3.23,2.344q3.81,2.247,4.2,5.273a41.911,41.911,0,0,1-.98,13.574q-0.78,7.42,4.39,10.156,4.395,1.366,7.33-3.124,1.95-3.908.78-9.668l-2.25-7.813q-2.04-7.713,2.15-16.992,4.89-15.136,10.06-30.274,1.755-3.611,0-4.1a15.3,15.3,0,0,0-2.15,3.515q-9.075,17.578-17.87,35.157h0Zm-5.96-34.18a19.3,19.3,0,0,1,2.93,9.766,7.235,7.235,0,0,0,2.54,5.859q4.4,2.345,7.72-1.465a8.991,8.991,0,0,0,1.36-6.054q-3.21-9.277-12.98-11.426-3.81-.879-4.11-0.1c0,0.391.85,1.531,2.54,3.418h0Zm67,5.859a9.368,9.368,0,0,1,3.32.293,4.847,4.847,0,0,1,.29,1.465l-1.56,14.649c-0.26,1.953-1.17,2.929-2.74,2.929h-23.73c-1.37,0-1.92-.911-1.66-2.734q1.08-6.738,1.76-13.477a3.255,3.255,0,0,1,3.32-3.125h21Zm-14.07,12.6a5.476,5.476,0,0,0,3.23,4.785q6.63,1.271,6.64-6.445a9.194,9.194,0,0,0-1.47-3.809q-4.785-4.687-9.57-4.59-3.12-.1-3.03.684a13.337,13.337,0,0,1,4.2,9.375h0Zm13.38,27.149c-0.45,1.953-1.46,2.929-3.02,2.929h-24.13a1.887,1.887,0,0,1-2.14-2.344q1.17-7.91,2.63-15.527,0.69-2.929,3.03-2.93h23.44c1.56,0,2.24,1.075,2.05,3.223q-0.69,7.325-1.86,14.649h0Zm-15.82-3.223c0.59,3.451,2.21,5.078,4.89,4.883q4.875-.487,5.07-5.957-0.39-7.519-10.45-11.133c-2.01-.391-3.02-0.391-3.02,0q4.485,5.859,3.51,12.207h0Zm50.88,21.191q-1.275,5.859,5.37,5.567,6.45-.783,5.47-7.422V733.02c0-1.563.81-2.344,2.44-2.344h12.99q2.055,0,2.25,1.66,1.845,4.3,5.76,2.832,5.955-.389,4.98-6.25V709.289q-0.585-2.83,1.27-3.711,3.9-2.343-.39-4.687a40.215,40.215,0,0,0-6.64-3.516,4.739,4.739,0,0,0-4.89,1.172,5.766,5.766,0,0,1-4.19,1.855h-11.33a7.487,7.487,0,0,1-5.28-1.464,31.561,31.561,0,0,0-3.9-1.465q-3.915-1.074-3.91,1.953v86.23Zm48.44-55.566q-0.78,4.2,1.95,4.883,6.84,1.076,8.69-3.711c0.13-.65.98-0.977,2.54-0.977h12.99q2.34,0,2.34,2.442V775.7q0.39,5.469-5.76,3.614-2.925-.294-3.42.1-0.39.488,3.32,3.418a10.753,10.753,0,0,1,3.52,5.86q0.195,3.222,3.32,3.125,7.815,0,9.86-8.594V708.8q-0.48-2.637,1.08-3.321c0.84-.65,1.07-1.3.68-1.953-0.72-1.757-2.86-3.515-6.44-5.273a5.045,5.045,0,0,0-5.77.976,3.1,3.1,0,0,1-4,1.563h-11.03a8.889,8.889,0,0,1-4.3-1.172,35.015,35.015,0,0,0-6.64-2.539q-2.925-.683-2.93,2.441V730.09Zm-23.05-27.149c2.08,0,3.13.879,3.13,2.637v6.445a2.118,2.118,0,0,1-2.44,2.344h-12.9q-2.34,0-2.34-2.441V705.48q-0.78-3.611,3.22-2.539h11.33Zm51.56,9.082c0,1.563-.81,2.344-2.44,2.344h-12.89q-2.34,0-2.34-2.441v-5.86c0-1.562.16-2.441,0.49-2.636l2.73-.1h12.21c1.49,0,2.24.847,2.24,2.539v6.152Zm-48.43,13.77a2.118,2.118,0,0,1-2.44,2.344h-12.9q-2.34,0-2.34-2.442v-6.347c0-1.563.81-2.344,2.44-2.344h12.99q2.25,0,2.25,2.539v6.25Zm48.43-.391c0,1.563-.81,2.344-2.44,2.344h-12.89q-2.34,0-2.34-2.441v-5.957c0-1.563.81-2.344,2.44-2.344h12.99c1.49,0,2.24.847,2.24,2.539V725.4Zm-53.71,48.926c-0.58,3.125.39,4.817,2.93,5.078q7.425,0.488,7.52-5.566c0-.911.82-1.367,2.44-1.367h14.46q2.34,0,2.34,2.148-0.09,5.467,5.27,4.3,6.255-.391,5.18-6.152v-21.68q-0.585-3.124,1.56-3.906c1.17-.521,1.57-1.27,1.17-2.246q-1.755-2.148-7.03-4.59-3.705-1.562-5.76.39a6.45,6.45,0,0,1-4.39,1.856h-12.11a7.767,7.767,0,0,1-4.01-.977,31.062,31.062,0,0,0-6.64-2.636q-2.925-.587-2.93,2.539v32.812Zm29.69-20.019c0,1.562-.81,2.343-2.44,2.343h-14.45a2.117,2.117,0,0,1-2.35-2.441v-6.445c0-1.563.98-2.442,2.93-2.637h13.77c1.69,0,2.54.879,2.54,2.637v6.543Zm0,13.281c0,1.562-.81,2.344-2.44,2.344h-14.45a2.117,2.117,0,0,1-2.35-2.442v-5.957a2.118,2.118,0,0,1,2.44-2.344h14.46q2.34,0,2.34,2.442v5.957ZM305.852,879.211H279.387a7.124,7.124,0,0,1-3.516-.684,59.4,59.4,0,0,0-5.859-2.734q-3.713-1.268-3.711,2.148V916.32q0,2.345-2.442,2.344a76.8,76.8,0,0,1-12.207-.391q-3.321-.293-2.734,2.149,0.587,1.955,3.711,1.465,3.318-.879,11.035-0.586,2.344,0,2.344,2.441v24.414a2.387,2.387,0,0,1-2.344,2.637l-9.473.684q-3.027.1-3.418,0.878,1.854,8.2,4.1,12.11,1.659,1.267,2.637-.977a3.883,3.883,0,0,1,3.32-2.539l19.531-7.226a88.343,88.343,0,0,0,16.211-8.5,1.527,1.527,0,0,0,0-1.075q-0.489-.488-4.2.782-6.35,1.856-12.695,3.32-2.93.489-2.93-1.856V923.645q0-2.344,2.441-2.344h9.375a2.913,2.913,0,0,1,3.028,2.344Q295.4,942.2,311.32,955.676a63.875,63.875,0,0,0,15.625,9.082,3.843,3.843,0,0,0,1.758.39q0.587-.2,2.149-4a15.178,15.178,0,0,1,6.054-5.762q3.026-1.466,2.93-2.051-0.392-.49-3.32-0.684-12.99-1.172-25.489-9.765-2.636-1.953.489-2.832a53.045,53.045,0,0,0,11.718-5.078q2.54-1.953,3.614-1.075a1.431,1.431,0,0,0,1.953-1.464q-2.637-4.1-10.254-7.715a62.885,62.885,0,0,1-9.766,11.621q-3.027,2.637-5.273.586a50.767,50.767,0,0,1-8.985-12.6q-1.368-3.025,1.075-3.027h39.55q3.516,0.783,3.614-1.465a30.867,30.867,0,0,0-8.594-8.3q-2.93-3.025-5.469,1.758-1.563,1.954-2.832,3.906a3.324,3.324,0,0,1-4.1,1.465H279.484q-2.343,0-2.343-2.441v-5.078q0-2.344,2.441-2.344h38.477q3.123,0,3.613-.684,0.1-.585-2.051-3.515a26.651,26.651,0,0,0-5.762-5.079q-3.418-3.318-5.566,1.172l-2.539,3.223a5.466,5.466,0,0,1-4.3,2.246H279.484q-2.343,0-2.343-2.441v-5.86q0-2.343,2.441-2.343H318.84q3.125,0,3.613-.684-1.563-4-7.715-8.4-3.222-3.612-5.566.976l-2.539,3.223a5.589,5.589,0,0,1-4.3,2.343H279.484q-2.343,0-2.343-2.441v-6.348q0-2.343,2.441-2.343h42.48q3.124,0.585,3.907-1.172-5.47-7.911-10.84-9.473a35.607,35.607,0,0,0-4.981,5.762,5.465,5.465,0,0,1-4.3,2.246h0Zm106.933,0H370.793a7.33,7.33,0,0,1-3.809-.879q-3.321-1.659-6.64-3.027-3.029-.975-3.028,2.246v28.711q-0.2,12.89-1.562,24.707a89.491,89.491,0,0,1-7.324,30.078q-1.27,3.025-.489,3.125a17.661,17.661,0,0,0,3.418-2.832,44.472,44.472,0,0,0,7.032-9.766,58.212,58.212,0,0,0,5.566-15.625,187.522,187.522,0,0,0,3.418-32.812V884.289q0-2.44,2.539-2.441h44.238q3.808-.781,2.93,3.222v15.137a294.126,294.126,0,0,0,3.418,40.137,61.961,61.961,0,0,0,4.98,15.625,28.139,28.139,0,0,0,5.86,7.91q3.318,2.538,5.957,1.66,5.076-2.541,2.344-8.105a22.522,22.522,0,0,1-1.368-9.18q0.781-6.153,1.954-12.305-1.369-2.146-2.735.391a27.484,27.484,0,0,1-2.637,3.906q-1.563,2.929-3.027,2.051a13.325,13.325,0,0,1-1.465-4.395q-2.929-13.476-3.027-38.183V887.512a11.009,11.009,0,0,1,.488-2.246,22.182,22.182,0,0,1,3.516-1.758,1.887,1.887,0,0,0,.976-2.344q-2.635-3.612-10.742-6.836-2.05-.879-3.32,1.367-2.736,4.688-5.469,3.516h0ZM370.4,897.668a100.187,100.187,0,0,0,14.258-.586q2.929-.1,2.93,2.246v6.055q0,2.343-2.442,2.344a12.829,12.829,0,0,1-3.515-.293,27.28,27.28,0,0,0-6.641-2.832q-3.029-.781-3.027,2.343v25.489a12.619,12.619,0,0,0,.293,3.613,5,5,0,0,0,2.441,1.074q5.567,0.587,6.836-3.809,0.195-1.464,3.125-1.464t2.93,2.441v11.035a2.274,2.274,0,0,1-2.344,2.539q-9.279.686-18.555,0.977-3.126,0-2.246,3.711a51.586,51.586,0,0,0,1.953,5.859q1.758,3.711,3.223,1.172a5.26,5.26,0,0,1,1.367-1.27q19.044-4.686,34.18-9.374,2.929-.976,4,1.367l0.879,3.515q1.171,7.128,7.031,6.055,1.953-.2,3.223-3.027,1.464-3.516-.586-7.813-5.567-8.592-14.551-10.547-3.222-.585-3.711-0.2-0.391.49,2.637,3.027,5.076,4.981.488,4.492l-4.492.586q-2.929.294-2.93-2.05V934.191q0-2.343,3.125-2.343,2.929,0,2.93,1.367-0.49,3.126,3.418,3.515,7.421-.389,6.25-6.25V915.051a3.847,3.847,0,0,1,1.465-3.321q3.123-1.365.1-3.906a53.39,53.39,0,0,0-7.812-4.1q-1.563-.781-3.125,1.269-2.833,2.736-4.59,2.735t-1.758-2.442v-7.324q0-2.245,2.539-2.734A121.787,121.787,0,0,1,412,893.371a1.147,1.147,0,0,0,.391-1.66,8.033,8.033,0,0,0-3.028-2.832,45.749,45.749,0,0,0-3.906-2.637,6.053,6.053,0,0,0-5.859-.1q-10.645,5.763-26.27,9.57-3.808,1.27-2.93,1.953h0Zm32.813,29.2q0,2.344-3.125,2.344-2.929,0-2.93-2.441V912.707q0-2.343,3.028-2.344,3.025-.1,3.027,2.539v13.965Zm-15.625,0q0,2.344-3.028,2.344-2.93,0-2.929-2.441V913.1q0-2.344,3.125-2.735,2.83,0,2.832,2.637v13.867Zm73.633-45.508q-1.271,3.127-3.516,2.149a23.547,23.547,0,0,0-4.1-.977q-2.93-.193-3.222.391,0,0.391,3.027,3.027a17.9,17.9,0,0,1,3.711,7.813,5.948,5.948,0,0,0,4,4.883,4.216,4.216,0,0,0,5.273-2.735,7.03,7.03,0,0,0-.586-6.836q-2.635-2.637-.195-4.492l3.516-2.832a15.652,15.652,0,0,1,3.613-3.027q1.953-.1,2.051-1.27-0.49-2.439-6.348-4.785-3.808-1.562-5.078,1.562a69.177,69.177,0,0,1-2.148,7.129h0Zm48.73,1.075q-1.075,2.051-3.711.878a10.808,10.808,0,0,0-6.836-.781q-0.2.587,2.735,3.223a14.12,14.12,0,0,1,3.418,5.859q0.879,5.178,3.32,6.543,3.9,1.955,6.641-1.855,1.952-4.784-1.856-8.692-1.368-1.172,1.074-3.027,2.832-2.147,5.567-4.687a3.669,3.669,0,0,1,1.855-1.075,1.877,1.877,0,0,0,1.953-1.562q-0.1-.488-2.734-2.539a43.889,43.889,0,0,0-4.883-2.539q-2.834-.879-3.906,2.05a41.886,41.886,0,0,1-2.637,8.2h0Zm-21.68,0a129.878,129.878,0,0,0,2.149,39.16q0.585,2.929-1.758,2.929H454.777a18.073,18.073,0,0,0-3.711-.39q-3.514-.293-2.929,2.148,0.681,1.857,3.808,1.367a49.953,49.953,0,0,1,10.547-.488,1.98,1.98,0,0,1,2.246,2.344,70.347,70.347,0,0,1-3.515,16.992q-3.713,10.058-10.157,15.137-3.222,2.439-3.32,2.929-0.1.683,3.906-.2,17.675-6.543,21.778-24.316,0.292-2.147,2.148.488a20.745,20.745,0,0,1,2.93,7.813q1.268,3.9,4.59,4.3,4.1-.1,5.078-3.222,1.854-5.077-2.93-9.766a23.81,23.81,0,0,0-7.715-4.59q-2.93-.975-2.734-3.32l0.195-1.66q0.39-2.93,2.735-2.93h11.621a3.064,3.064,0,0,1,3.125,2.344q3.417,9.474,7.324,14.648,2.343,3.029-.488,5.274-15.236,11.62-32.032,14.746-0.783.78,2.93,1.074,17.871,0.683,35.059-9.961,2.929-1.758,5.273.2,13.28,11.229,25,10.743,3.319-.879,3.516-3.711,0.1-2.833-2.539-5.957-1.173-3.223,2.343-12.6,1.366-2.637-.293-3.223-1.269-.193-1.757,1.563L533,950.109a6.394,6.394,0,0,1-2.832,2.93q-4.395.488-10.352-4.1-3.027-2.345-.2-5.079l2.93-2.734q2.929-2.538,3.808-2.539,2.929-.195,1.661-2.246a36.744,36.744,0,0,0-7.325-5.469q-3.712-2.146-5.468.879l-3.321,5.176q-2.149,2.929-4.394,0a34.788,34.788,0,0,1-4.1-6.738q-1.368-3.027,1.074-3.028h30.274q3.124,0,3.613-.683,0.1-.781-1.855-3.418a21.406,21.406,0,0,0-4.59-4.1q-3.712-3.808-5.469.293-1.662,1.955-3.027,3.906a3.138,3.138,0,0,1-3.321,1.367q-1.563,0-1.074-1.171,1.367-5.077-4.2-7.715-2.929-1.173.195-2.442l8.594-3.027q2.733-.879,3.32,1.758,1.173,5.079,5.957,4.394a5.493,5.493,0,0,0,3.711-4.98q0.195-7.713-9.765-11.817-2.929-.975-0.782-3.515L528.7,892.3q2.246-2.832,3.223-2.93,3.318-.78.879-3.125a49.709,49.709,0,0,0-6.836-3.613q-2.93-1.074-3.321-.684A127.389,127.389,0,0,1,512,904.016q-2.051,2.93-4.4,2.929l-6.445-.1q-1.172,0-.293,3.222a62.8,62.8,0,0,0,2.344,6.739q1.268,2.636,2.93.2a1.779,1.779,0,0,1,1.562-1.27q1.659-.879,3.027,2.93l0.879,4.883q0.488,0.976-1.953.976h-6.055a3.027,3.027,0,0,1-3.027-2.441,124.4,124.4,0,0,1-2.148-40.82,5.563,5.563,0,0,1,1.562-3.809q1.854-1.171,1.465-2.246a3.812,3.812,0,0,0-3.223-1.758,40.225,40.225,0,0,0-6.933-1.269q-2.929-.2-2.93,3.125Zm-26.562,23.535q-2.149,2.929-4.492,2.929h-4.1q-3.418-.1-2.734,3.711a30.833,30.833,0,0,0,2.246,5.86q1.464,3.027,3.027.683a3.226,3.226,0,0,1,1.66-1.367l16.407-5.566q2.636-.879,2.929,1.758a5.107,5.107,0,0,0,3.028,5.078q5.175,1.464,6.543-3.614,1.367-8.689-8.594-14.257-3.029-1.561-.684-4.395a38.118,38.118,0,0,0,2.93-3.906q1.659-2.733,3.32-2.637,2.148-.389,1.66-1.953-3.418-3.612-10.351-5.957-0.392.2-1.66,3.125a114.868,114.868,0,0,1-11.133,20.508h0Zm61.621,0.39-4.785.391q-3.224.1-1.172-1.855l2.148-1.954q2.832-2.538,4.883.2,1.269,2.93-1.074,3.222h0Zm-47.656-.293q0.488,2.149-2.246,2.246l-5.762.391q-2.93.1,0-2.441l2.734-2.442q2.832-2.637,4.4-.1Zm98.047-25.976q0,2.343-2.442,2.344H555.559a32.131,32.131,0,0,0-4-.489q-2.929-.293-3.125.1l0.586,2.246q0.585,1.662,3.711,1.27l3.222-.586h15.43q2.343,0,2.344,2.441-0.978,4.98,2.05,6.543,4.491,1.954,7.52-1.465a15.127,15.127,0,0,0,.391-4.3q0-3.222,2.441-3.222h11.719q2.343,0,2.344,2.441v1.27q-0.879,4.591,3.027,5.664,7.518,1.955,6.933-6.153,0-3.222,2.442-3.222h20.9q3.025,0,3.418-.391,0.488-.488-2.148-4.1a26.453,26.453,0,0,0-4.1-3.71q-3.516-3.906-5.468.39a41.207,41.207,0,0,0-3.126,3.906,4.063,4.063,0,0,1-1.269,1.172q-4.3.294-8.3,0.2a2.03,2.03,0,0,1-2.344-2.246,5.472,5.472,0,0,1,1.465-3.711q1.173-1.66.684-2.344-2.249-1.172-8.4-1.953-3.712-.294-3.71,2.832v5.078q0,2.343-2.442,2.344H586.027q-2.343,0-2.343-2.539a6.218,6.218,0,0,1,1.464-3.907q2.44-2.538-1.66-3.125-3.809-.78-7.324-1.269-2.442-.1-2.441,3.613v4.883ZM562,922.18q0,2.93.586,3.613,3.417,2.05,8.008-.488a7.774,7.774,0,0,0,1.269-1.953q0.195-1.269,2.539-1.27H584.66q2.345,0,2.344,2.441v3.907q0,2.343-2.442,2.343h-16.8a7.244,7.244,0,0,1-3.907-.976,39.309,39.309,0,0,0-6.64-2.735q-3.029-.78-3.028,2.344v30.371q-0.977,4.688,3.223,4.785,5.662,0.2,6.738-3.906V936.145q-0.879-3.711,3.321-2.735H584.66q2.345,0,2.344,2.442v4.785a2.275,2.275,0,0,1-2.344,2.539q-7.91.292-15.82,0.1-0.392.49,0.1,3.418,0.78,3.029,1.855,5.957,1.268,3.81,3.32,1.758a3.243,3.243,0,0,1,2.93-1.758l28.711-7.421q3.318-.879,3.808,1.269a10.389,10.389,0,0,0,1.172,4.395q2.637,3.026,4.493,2.246a4.094,4.094,0,0,0,3.515-2.442,7.533,7.533,0,0,0,.2-5.859q-4.3-8.007-14.844-9.375a1.215,1.215,0,0,0-.391.879l2.246,2.246q1.854,2.833-.488,3.125l-5.566.488q-2.931.2-2.93-2.148v-4.3q0-2.345,2.441-2.344h18.555a2.19,2.19,0,0,1,3.027,3.028v13.867q0.586,3.125-1.562,4.3a20.769,20.769,0,0,1-5.078.878,13.133,13.133,0,0,0-3.809.293q-1.075,1.953,2.246,2.344,2.538,0.683,5.078,4.883,0.879,3.124,4.59,2.832,8.5-2.247,8.5-8.691V939.855q-0.585-3.611,2.735-4.492,2.831-1.56.976-3.515a31.732,31.732,0,0,0-8.789-5.469,2.008,2.008,0,0,0-2.441-.293q-3.516,5.859-7.032,4.687H599.309q-2.344,0-2.344-2.441v-3.906q0-2.345,2.441-2.344h10.742a2.045,2.045,0,0,1,2.344,2.148q1.074,4.1,6.836,2.442,4-1.172,3.027-5.86V905.09a4.069,4.069,0,0,1,1.563-3.613,4.508,4.508,0,0,0,1.562-1.661q-1.855-2.538-7.91-5.371-2.93-1.073-4.785.586a4.624,4.624,0,0,1-3.808,1.856H574.211a8.862,8.862,0,0,1-4.2-.977,40.976,40.976,0,0,0-5.078-1.953Q562,893.275,562,896.4V922.18Zm25-16.407q0,2.345-2.442,2.344H574.309q-2.344,0-2.344-2.441v-3.809q0-2.439,2.539-2.441H584.66q2.345,0,2.344,2.441v3.906Zm25.391,0q0,2.345-2.442,2.344H599.309q-2.344,0-2.344-2.441V901.77q0-2.344,2.441-2.344h10.449q2.539,0,2.54,2.636v3.711ZM587,917.2q0,2.345-2.442,2.344H574.309q-2.344,0-2.344-2.441v-4q0-2.344,2.441-2.344H584.66q2.345,0,2.344,2.441v4Zm25.391,0q0,2.345-2.442,2.344H599.309q-2.344,0-2.344-2.441v-4q0-2.344,2.441-2.344h10.645A2.117,2.117,0,0,1,612.4,913.2v4Zm75-38.769q0,2.343-2.442,2.343H656.34a20.558,20.558,0,0,0-3.809-.39q-3.418-.293-2.832,2.148,0.587,1.758,3.809,1.465l3.125-.586H732.9q3.224,0.587,4.1-1.074a29.881,29.881,0,0,0-7.031-7.52q-3.615-3.9-5.567.391l-2.636,3.223a5.591,5.591,0,0,1-4.3,2.343h-16.8q-2.345,0-2.344-1.953a2.1,2.1,0,0,1,1.27-2.832q2.343-.975,1.269-2.636-3.222-1.953-10.644-2.247-2.931-.1-2.832,3.028v4.3Zm-27.833,33.3q-0.977,3.908,2.735,4.688Q668.351,917,669.816,913q0.294-1.466,2.637-1.465h12.891q2.343,0,2.344,2.442v3.906q0,2.343-2.442,2.344H665.227l-3.614-.391q-3.515-.293-2.929,2.148,0.585,1.758,3.808,1.465l3.125-.586h19.727q2.343,0,2.344,3.223,0,3.126-2.442,3.125H655.461l-3.613-.391q-3.516-.293-2.832,2.149,0.585,1.855,3.711,1.367l3.125-.488h24.707q2.439,0,0,2.148a88.543,88.543,0,0,1-29,15.527q-2.345.781-1.563,1.661,0.294,0.293,3.223,0a72.029,72.029,0,0,0,12.793-2.637q2.929-.78,2.93,1.562v2.539a2.213,2.213,0,0,1-2.442,2.442h-2.344q-2.93.1-3.32,0.488a33.243,33.243,0,0,0,2.734,8.2q1.854,2.832,2.344,3.028,1.074,0.1,1.465-1.368a3.761,3.761,0,0,1,2.246-1.562,240.789,240.789,0,0,0,27.344-10.059q3.222-1.368,2.246-2.734a17.853,17.853,0,0,0-3.32.293q-6.837,1.268-13.672,2.148-2.93.195-2.93-2.148V945.91a3.949,3.949,0,0,1,2.344-3.613,66.128,66.128,0,0,0,11.133-7.129q3.123-2.538,3.906-.2a43.879,43.879,0,0,0,29.883,29.687,13.094,13.094,0,0,0,3.418.781,12.363,12.363,0,0,0,1.269-3.32,15.955,15.955,0,0,1,4.883-5.762,35.2,35.2,0,0,1,4.492-2.148q-0.391-2.247-3.808-1.367a48.022,48.022,0,0,1-19.043-3.321q-3.42-1.367-.782-1.855l5.176-1.27q2.832-1.268,4.2-.586a2.168,2.168,0,0,0,1.953.2q1.074-1.466-.585-3.613l-3.418-3.907q-3.615-3.417-6.153-.781a42.72,42.72,0,0,1-5.761,5.176,4.379,4.379,0,0,1-5.86-.2,38.864,38.864,0,0,1-6.445-7.813q-1.758-3.026.781-3.027h33.594q3.025,0,3.515-.586,0.294-.487-2.441-4.1-4.2-4.588-7.91-5.957-0.587.1-2.539-2.539-2.637-2.637-2.051-2.93,3.319-1.56,2.441-5.761V898.645a9.863,9.863,0,0,1,.2-2.735q5.566-3.318-.586-5.859A37.805,37.805,0,0,0,721.184,888q-3.713-1.562-5.762.293a6.291,6.291,0,0,1-4.395,1.953H672.16a10.673,10.673,0,0,1-4.492-1.367,22.956,22.956,0,0,0-5.078-1.856q-3.029-.681-3.028,2.539V911.73Zm25.684-12.207H672.355q-2.343,0-2.343-3.32,0-3.124,2.929-3.418h12.6q2.147,0,2.149,3.516,0,3.222-2.442,3.222h0Zm29.785-2.343q0,2.343-2.441,2.343H700.383q-2.344,0-2.344-2.441v-1.953q0-2.345,2.441-2.344h12.012a2.245,2.245,0,0,1,2.539,2.539v1.856Zm-27.343,9.472q0,2.344-2.442,2.344H672.355q-2.343,0-2.343-2.441V904.5q0-2.345,2.441-2.344h12.988q2.245,0,2.247,2.539v1.953Zm27.343,0q0,2.344-2.441,2.344H700.383q-2.344,0-2.344-2.441V904.5q0-2.345,2.441-2.344h12.3q2.246,0,2.246,2.539v1.953Zm-2.051,9.961q-2.442,4.688-5.273,3.614h-7.324q-2.344,0-2.344-2.442v-3.906q0-2.345,2.441-2.344h12.3q2.246,0,2.246,1.563,0.1,0.977-2.051,3.515h0Zm4.59,12.6H700.383q-2.344,0-2.344-3.223,0-3.125,2.441-3.125h22.559q2.441,0,.1,2.93-2.248,4.592-5.567,3.418h0Zm111.817-13.477q-1.857,2.541-1.856-.586V895.422A3.853,3.853,0,0,1,829.094,892q3.318-1.367.39-3.906a37.368,37.368,0,0,0-7.812-4.2q-2.833-1.952-4.883,1.661a6.986,6.986,0,0,1-5.371,2.343,12.874,12.874,0,0,1-5.273-1.172,42.23,42.23,0,0,0-7.422-2.441q-0.391.1-.391,3.027V937.9q-0.879,3.808,2.148,5.371,5.762,1.27,8.106-3.222a38.611,38.611,0,0,0,.195-5.469q0-2.343,2.442-2.344h3.515q2.344,0,2.344,2.832-0.879,5.86,5.273,5.078,6.249-.975,5.176-6.64v-9.57q0-2.148,2.442-4.1a65.893,65.893,0,0,0,13.867-18.848,5.322,5.322,0,0,1,4.492-3.125h24.609q2.148,0,1.27,2.637a101.009,101.009,0,0,1-6.543,15.527,5.167,5.167,0,0,0-.879,2.051,1.178,1.178,0,0,0,.781,1.172q0.587-.1,4.1-3.223,6.639-6.542,12.89-13.183a12.111,12.111,0,0,1,3.223-2.637q1.854-.1,2.246-1.269,0.1-1.66-2.441-2.833a39.023,39.023,0,0,0-5.86-3.417,5.94,5.94,0,0,0-6.542.39l-1.465,1.465a7.138,7.138,0,0,1-3.516.684H848.918q-2.345,0-1.563-2.344l4.3-12.11a2.464,2.464,0,0,1,2.051-2.441,2.129,2.129,0,0,0,2.246-2.148q-0.2-.586-3.125-2.246a46.453,46.453,0,0,0-9.082-2.149q-3.029,0-3.222,3.711-1.27,22.851-11.133,40.234h0Zm-12.3,11.621q0,2.344-2.441,2.344h-3.516q-2.344,0-2.344-2.441V892.883q0-2.441,2.637-2.442h3.223q2.439,0,2.441,2.735v34.179Zm27.734,7.715q-5.859,16.5-25.683,26.758-3.128,1.659-3.125,2.051,0.1,0.389,3.027.1a51.514,51.514,0,0,0,14.649-5.176q17.48-9.962,22.558-27.344,1.172-3.318,1.758-.2a65.177,65.177,0,0,0,4.2,12.988q4.784,11.815,17.09,22.07,0.586,0,2.344-2.734,3.417-4.493,6.445-5.078a11.593,11.593,0,0,0,3.223-.879q0.1-.391-2.93-2.149-13.283-5.565-22.168-20.9a65.951,65.951,0,0,1-6.738-15.82,17.06,17.06,0,0,1,.293-3.711l0.586-3.223q0.487-3.025,1.855-3.711,2.147-.879.879-2.539-3.222-1.464-10.254-2.051-2.834-.389-2.832,2.93a80.375,80.375,0,0,1-5.176,28.613h0Zm94.434-53.808q0,2.343-2.441,2.343H919.328q-2.343.49-5.859-1.757l-3.907-1.758q-3.808-1.465-3.808,1.855v28.321q-0.293,27.246-6.348,46.289-1.855,4.2-3.32,8.4,0.389,0.39,3.223-1.465a32.221,32.221,0,0,0,7.812-9.57,56.458,56.458,0,0,0,6.055-15.625q3.222-14.158,3.32-33.4,0-2.344,2.442-2.344H924.5a2.117,2.117,0,0,1,2.344,2.441v12.4q-0.294,7.715,7.714,5.761a3.654,3.654,0,0,0,3.028-4.394q0-1.366,2.441-1.367h8.985q2.343,0,2.343,1.66,0.487,4.884,5.664,4.394,6.446-.292,5.079-5.957V904.9q0-2.344,2.441-2.344h15.234q4.688,0.879,3.516-2.149a35.035,35.035,0,0,0-6.25-6.25q-2.929-1.952-3.613-1.953-1.662,1.076-4.883,5.371a5.515,5.515,0,0,1-4.2,2.344q-2.248,0-2.246-2.441a5.851,5.851,0,0,1,.39-2.832q3.125-1.269,2.051-3.321a6.252,6.252,0,0,0-3.516-1.367l-6.64-.976q-3.028-.2-3.028,2.929v5.664q0,2.345-2.441,2.344h-8.984q-2.344,0-2.344-2.441a5.714,5.714,0,0,1,.488-2.93q3.026-1.465,1.856-3.223a5.065,5.065,0,0,0-3.418-1.269q-3.321-.683-6.641-1.074-3.029-.2-3.027,2.929v5.664q0,2.345-2.442,2.344h-5.468q-2.345,0-2.344-2.441v-8.985q0-2.343,2.441-2.343h65.723q3.025,0.39,4.1-.782a25.893,25.893,0,0,0-10.547-9.961q-0.489.1-3.027,2.735l-2.441,3.222a5.465,5.465,0,0,1-4.3,2.246H952.531q-2.343,0-2.343-2.441v-2.148q0-2.245,1.269-3.028,2.929-1.268.879-2.929a9.627,9.627,0,0,0-3.418-1.075q-3.516-.585-6.738-0.879-2.929-.1-2.93,3.028v7.129Zm12.109,31.25q0,2.343-2.441,2.343h-8.984q-2.344,0-2.344-2.441V904.9q0-2.344,2.441-2.344h9.18q2.147,0,2.148,2.637v7.324Zm6.25,14.355H926.164a22.609,22.609,0,0,0-4-.39q-3.029-.1-2.539,2.148,0.587,1.855,3.711,1.367l2.441-.39q2.931-.1,3.321,2.246a41.18,41.18,0,0,0,9.472,15.82q2.344,2.343-.488,4.1a75.138,75.138,0,0,1-32.226,10.742,11.943,11.943,0,0,0-3.321.683,1.051,1.051,0,0,0,.586.782q22.852,1.952,41.8-7.325,3.026-1.563,5.274-.2a81.886,81.886,0,0,0,24.9,9.082,9.422,9.422,0,0,0,4.3.293,14.719,14.719,0,0,0,1.074-3.516,10.092,10.092,0,0,1,4.492-5.468q3.224-.978,2.149-2.637A94.329,94.329,0,0,1,959.27,950.6q-2.931-.978-0.586-3.125a65.689,65.689,0,0,0,9.179-10.645q1.66-2.929,3.028-3.418,4.98,0,3.027-3.515a29.53,29.53,0,0,0-7.813-7.52q-1.563-.293-4.2,3.027a3.942,3.942,0,0,1-4.3,1.465h0Zm-8.5,16.406a3.455,3.455,0,0,1-4.687.586,46.175,46.175,0,0,1-11.621-11.328q-1.758-3.025.683-3.027h23.926q2.245,0,.781,2.539a54.174,54.174,0,0,1-9.082,11.23h0ZM1064.25,879.8a5.47,5.47,0,0,1-4.3,2.246h-48.83a29.355,29.355,0,0,0-4.1-.488q-2.925-.294-3.12.1l0.58,2.246c0.4,1.108,1.63,1.531,3.72,1.27l3.22-.586h22.56q2.34,0,2.34,2.441v27.344c0,1.563-.81,2.344-2.44,2.344h-17.87l-3.62-.391q-3.51-.293-2.83,2.149c0.33,1.172,1.56,1.66,3.71,1.465l3.13-.586h17.58q2.34,0,2.34,2.441v30.566c0,1.563-.81,2.344-2.44,2.344h-28.22a26.679,26.679,0,0,0-3.91-.488q-3.42-.293-2.734,2.148,0.488,1.758,3.714,1.465l3.12-.586h78.42q3.51,0.682,3.91-1.269a33.475,33.475,0,0,0-7.62-7.715q-3.81-3.808-5.67-.977l-4,5.176a5.473,5.473,0,0,1-4.3,2.246H1049.5q-2.34,0-2.34-2.441V921.691c0-1.562.81-2.343,2.44-2.343h21.97q3.225,0.489,4.11-.977-2.055-3.808-7.62-8.008-3.81-4-5.67-.976-1.65,1.955-3.02,3.906a9.608,9.608,0,0,1-2.74,3.223,66.339,66.339,0,0,1-7.13.2q-2.34,0-2.34-2.441V886.926c0-1.563.81-2.344,2.44-2.344h27.83a10.49,10.49,0,0,0,3.71-.391c0.46-.39-0.13-1.594-1.75-3.613q-4.89-5.37-9.28-7.226-0.69,0-3.42,3.222Zm-3.91,52.246a18.217,18.217,0,0,1,2.74,8.789q0.675,9.18,8.88,6.25a7.734,7.734,0,0,0,2.74-4.883q0.975-6.054-6.64-10.937a39.319,39.319,0,0,0-6.64-2.539c-2.02-.455-3.13-0.455-3.32,0a15.344,15.344,0,0,0,2.24,3.32h0Zm109.77-55.566h-10.06a8.145,8.145,0,0,1-3.51-.586,49.634,49.634,0,0,0-6.74-2.637q-3.03-.879-3.03,2.246v33.4q-0.885,5.764,5.27,4.883c3.39-.325,5.24-1.953,5.57-4.883,0-1.106.81-1.66,2.44-1.66h12.5q2.34,0,2.34,2.442v40.429a4.093,4.093,0,0,1-1.66,4.59,48.752,48.752,0,0,1-10.05.977,0.987,0.987,0,0,0-.2,1.562,11.344,11.344,0,0,0,3.52,1.074q3.315,0.683,5.46,5.274a3.606,3.606,0,0,0,3.91,2.832q8.4-.978,9.77-8.887V886.047q-0.5-2.832,1.46-4.1,5.955-2.147.29-6.25a34.959,34.959,0,0,0-9.27-4.687,16.083,16.083,0,0,0-2.83,3.32q-2.055,3.029-5.18,2.149h0Zm-67.87,84.863q-0.975,4.783,3.12,5.664,8.505,0.587,7.62-7.422v-50c0-1.562.81-2.344,2.44-2.344h12.21q2.34,0,2.34,2.442,0.39,6.836,7.82,3.906,3.99-1.268,3.02-5.957V885.266q-0.585-3.027,1.57-3.711c1.36-.911,1.85-1.693,1.46-2.344-0.46-.845-1.82-1.953-4.1-3.32a37.462,37.462,0,0,0-3.91-2.051q-3.7-2.538-5.76.879a5.619,5.619,0,0,1-4.1,1.758h-9.47a10.408,10.408,0,0,1-4.59-1.27,43.272,43.272,0,0,0-6.74-2.734c-1.96-.325-2.93.554-2.93,2.636V961.34Zm27.73-79.688v6.641c0,1.562-.81,2.344-2.44,2.344h-12.21q-2.34,0-2.34-2.442v-6.347q-0.885-3.711,3.32-2.735h10.55q3.12-.194,3.12,2.539h0Zm44.92,6.641c0,1.562-.81,2.344-2.44,2.344h-12.5q-2.34,0-2.34-2.442v-6.64a2.157,2.157,0,0,1,2.44-2.442h12.11q2.25,0,2.64.586Zm-44.92,14.062c0,1.563-.81,2.344-2.44,2.344h-12.21q-2.34,0-2.34-2.441V895.52c0-1.563.81-2.344,2.44-2.344h12.21q2.34,0,2.34,2.441v6.738Zm44.92,0c0,1.563-.81,2.344-2.44,2.344h-12.5q-2.34,0-2.34-2.441V895.52c0-1.563.81-2.344,2.44-2.344h12.5q2.34,0,2.34,2.441v6.738Zm97.76-26.953H1258.1q-2.25.1-7.23-2.148-3.03-.78-3.03,2.344v22.949a12.453,12.453,0,0,0,.3,3.515,4.278,4.278,0,0,0,3.32,1.172q4.98,0.1,6.15-3.222,0.285-.975,2.64-0.977h13.57q2.34,0,2.34,2.442v49.511q0.585,4.395-4.29,3.711l-2.64-.1c-1.95-.066-3.06.064-3.32,0.39,0,0.26.98,1.106,2.93,2.539a11.759,11.759,0,0,1,4.69,6.348q0.09,3.025,4.1,2.832,7.035-.49,8.98-8.3V882.922c0-1.563.33-2.539,0.98-2.93q2.145-2.146-1.07-4.2a34.1,34.1,0,0,0-3.91-2.539q-3.615-1.659-6.93,1.66a6.011,6.011,0,0,1-3.03.488h0Zm-73.44,85.547q-0.885,5.567,4.2,5.664,5.28,0,6.25-4.59V900.988c0-1.562.81-2.343,2.44-2.343h13.38c1.56,0,2.41.521,2.54,1.562q0.675,3.222,4.88,2.637,5.955-.39,4.98-6.153V883.605a3.945,3.945,0,0,1,1.57-3.515,5.127,5.127,0,0,0,1.56-1.953q-1.665-2.245-7.91-5.274a4.567,4.567,0,0,0-4.79.684,4.612,4.612,0,0,1-3.81,1.855h-12.79a8.093,8.093,0,0,1-3.12-.39,40.505,40.505,0,0,0-6.64-2.735q-2.745-.389-2.74,2.735v85.937Zm26.27-83.008c1.63,0,2.44.879,2.44,2.637v3.027c0,1.563-.81,2.344-2.44,2.344H1212q-2.34,0-2.34-2.441V880.48q-0.78-3.611,3.22-2.539h12.6Zm48.34,0q2.34,0,2.34,2.442v3.222c0,1.563-.81,2.344-2.44,2.344h-13.57a2.121,2.121,0,0,1-2.35-2.441v-3.223c0-1.3,1.11-2.083,3.32-2.344h12.7Zm-45.9,15.821c0,1.562-.81,2.343-2.44,2.343H1212q-2.34,0-2.34-2.441v-2.832c0-1.562.81-2.344,2.44-2.344h13.58c1.49,0,2.24.847,2.24,2.539v2.735Zm48.24,0.39c0,1.563-.81,2.344-2.44,2.344h-13.57a2.121,2.121,0,0,1-2.35-2.441v-3.223c0-1.562.82-2.344,2.45-2.344h13.67c1.49,0,2.24.847,2.24,2.539v3.125ZM1224.6,909c-0.98,2.084-2.24,2.768-3.81,2.051q-3.7-1.562-4.59-.391,3.225,4.688,3.03,8.3a4.325,4.325,0,0,0,4.49,3.809q4.4-.975,3.42-6.153c-0.46-1.04.2-2.246,1.95-3.613q2.94-3.516,5.47-3.516c0.72-.586.69-1.172-0.1-1.757a14.429,14.429,0,0,0-4.39-2.149q-3.615-1.464-4.98,2.246a3.1,3.1,0,0,1-.49,1.172h0Zm27.05,0.293q-1.455,3.224-3.71,1.953a12.966,12.966,0,0,0-2.64-.781q-3.315-.293-0.78,3.418a11.6,11.6,0,0,1,1.66,5.859,3.209,3.209,0,0,0,2.05,2.539q6.84,1.564,5.47-5.761c-0.26-.65.46-1.627,2.15-2.93l1.27-1.074a11.94,11.94,0,0,1,3.71-2.832q2.145-.39,1.17-1.856a19.569,19.569,0,0,0-5.17-2.539c-1.95-.65-3.06-0.845-3.32-0.586Zm0.1,15.918q-2.835,2.929-5.76,2.832c-1.95,0-2.74,1.14-2.35,3.418a25.422,25.422,0,0,0,1.57,3.906,8.837,8.837,0,0,1,1.07,4.3V958.7q-1.275,5.37,4.98,5.371a3.07,3.07,0,0,0,3.13-1.855c0.19-3.452.26-6.8,0.19-10.059a2.118,2.118,0,0,1,2.44-2.344c1.31,0,1.96.325,1.96,0.977a2.392,2.392,0,0,0,.97,1.953q3.81,2.147,6.55-.781c0.19-2.67.26-5.338,0.19-8.008a5.421,5.421,0,0,1,1.08-3.613c0.65-.782.87-1.367,0.68-1.758a22.159,22.159,0,0,0-6.25-1.465q-3.135-.292-3.13,2.832v4.981a2.07,2.07,0,0,1-2.34,2.343c-1.43,0-2.15-1.074-2.15-3.222a6.711,6.711,0,0,1,1.27-4.493q2.055-1.757-.88-2.636l-3.81-.684q-2.925-.389-2.34-0.879,5.76-1.758,11.52-3.906,3.225-1.366,3.52.977a3.19,3.19,0,0,0,1.27,2.539q3.225,2.343,5.37-.293a5.091,5.091,0,0,0,.68-4.981c-0.71-2.408-2.57-4.426-5.56-6.054q-3.03-1.173-1.08-2.93a6.8,6.8,0,0,1,2.84-1.465,1.334,1.334,0,0,0,1.66-1.465,14.748,14.748,0,0,0-4.01-4q-3.51-2.343-5.37.391a59.792,59.792,0,0,1-7.91,11.035h0Zm-27.25.781q-2.34,2.929-4.68,2.93a53.728,53.728,0,0,1-6.55-.2q-0.585.392,0,3.32a26.409,26.409,0,0,0,2.05,5.566c0.92,0.782,1.6.652,2.06-.39a3.368,3.368,0,0,1,1.66-1.27q6.345-1.56,12.59-3.515c1.96-.716,2.96-0.489,3.03.683,0.59,1.953,1.69,3,3.32,3.125a3.106,3.106,0,0,0,3.61-1.855q2.64-5.761-4.39-9.961-2.925-1.367-.59-3.711c0.98-1.236,1.96-1.79,2.93-1.66,1.3-.325,1.6-1.009.88-2.051l-4.39-3.125q-3.72-1.953-5.37,1.367-2.835,5.372-6.16,10.742h0Zm36.04,1.66-2.74.2c-2.08.065-3.06-.064-2.92-0.391l2.73-1.758q3.03-1.758,4.2-.2c0.65,1.3.23,2.019-1.27,2.148h0Zm-27.83,1.075h-2.64q-3.225.2,0.1-2.344,2.73-2.051,3.81.195c0.39,1.367-.04,2.085-1.27,2.149h0Zm-13.38,20.215q-1.275,5.175,4.2,4.98c2.15-.131,3.25-1.042,3.32-2.734q0.09-1.37,1.95-1.368c1.17,0,1.5.846,0.98,2.539a19.728,19.728,0,0,1-11.53,9.571c-2.67.845-3.94,1.431-3.8,1.758,0.25,0.325,1.46.422,3.61,0.293a29.493,29.493,0,0,0,13.67-4.786q7.125-5.469,8.4-15.234a6.818,6.818,0,0,1,1.46-3.516c0.79-.845,1.01-1.464.69-1.855a6.965,6.965,0,0,0-2.44-.781l-4.79-.586q-3.03-.1-3.03,3.027l-0.29,4.1q-0.585,2.93-2.73,2.929c-1.44,0-2.15-1.074-2.15-3.222a6.737,6.737,0,0,1,1.07-4.2,2.313,2.313,0,0,0,.78-1.464c-0.19-.26-1.33-0.65-3.41-1.172a15.538,15.538,0,0,0-2.93-.489q-3.03-.293-3.03,2.93v9.278Z"/>
  <path id="大写字母" class="cls-3" d="M47.781,529.828a3.083,3.083,0,0,1-3.094,2.11q-2.109,0-2.109.914,0,0.774,2.109.773h9.7q2.109,0,2.109-.914,0-.773-2.18-0.773H51.227q-1.687,0-1.125-1.688l5.2-13.992q0.844-2.109,2.531-2.11H71.9a2.321,2.321,0,0,1,2.32,1.688l4.922,13.922q0.773,2.179-.984,2.18H76.188q-2.109,0-2.109.914,0,0.774,2.18.773H91.727q2.109,0,2.109-.914,0-.773-2.32-0.773a2.807,2.807,0,0,1-2.812-1.829q-8.648-22.077-17.086-44.156a3.115,3.115,0,0,0-3.023-2.109H67.609a3.049,3.049,0,0,0-2.883,2.25q-8.579,21.868-16.945,43.734h0Zm24.4-19.547q0.773,2.181-.984,2.18H58.68q-1.687,0-1.125-1.688l6.82-18.211q0.844-2.249,1.477-.421ZM108,486.375h1.195a1.524,1.524,0,0,1,1.688,1.758V530.25a1.524,1.524,0,0,1-1.758,1.688h-1.195q-2.111,0-2.11.914,0,0.774,2.18.773h19.055a50.9,50.9,0,0,0,12.937-1.477q12.936-4.077,10.758-14.906-0.564-2.953-3.938-5.344a23.217,23.217,0,0,0-11.742-4.289q-1.619-.21,0-0.562a25.761,25.761,0,0,0,6.961-2.109q7.031-4.008,5.625-10.2-0.7-5.414-8.367-8.508a49.391,49.391,0,0,0-11.25-1.546h-20.25q-1.97,0-1.969.914,0.069,0.774,2.18.773h0Zm28.476,3.375q3.3,4.712,1.9,9.492a8.38,8.38,0,0,1-3.938,5.2q-4.922,2.885-12.937,2.461a1.523,1.523,0,0,1-1.688-1.758V488.062a1.524,1.524,0,0,1,1.758-1.687,41.273,41.273,0,0,1,10.758.984,7.348,7.348,0,0,1,4.148,2.391h0Zm4.782,26.156q2.178,9.423-4.36,13.852-6.048,2.742-15.4,2.18a1.524,1.524,0,0,1-1.688-1.758V510.422a1.524,1.524,0,0,1,1.758-1.688,39.107,39.107,0,0,1,15.328,2.18q3.586,2.04,4.36,4.992h0Zm25.27-19.125a28.359,28.359,0,0,0-2.6,19.266q2.813,11.461,14.7,16.523,13.357,4.288,24.469-.632A3.519,3.519,0,0,0,205.2,528.7V518.156q0-2.109-1.406-2.109-1.266,0-2.11,2.18a41.874,41.874,0,0,1-4.851,9.843,11.181,11.181,0,0,1-5.2,4.571,12.319,12.319,0,0,1-6.329-.071q-6.469-1.124-9.843-8.086a32.757,32.757,0,0,1-2.6-11.25,41.475,41.475,0,0,1,1.969-17.226,16.734,16.734,0,0,1,8.859-9.7,17.2,17.2,0,0,1,9.071-.844q5.553,2.953,8.367,12.375,0.772,2.109,2.109,2.109t1.336-2.179v-8.789a3.529,3.529,0,0,0-2.039-3.235q-13.641-4.851-26.086,1.336a25.659,25.659,0,0,0-9.914,9.7h0Zm50.794-10.406H218.8a1.524,1.524,0,0,1,1.688,1.758V530.18a1.524,1.524,0,0,1-1.758,1.687h-1.477q-2.109,0-2.109.914,0,0.845,2.18.844h18.07a49.818,49.818,0,0,0,10.477-1.477q15.187-4.569,16.664-18.14a29.617,29.617,0,0,0-.914-13.922,18.952,18.952,0,0,0-8.368-10.9,38.221,38.221,0,0,0-16.875-4.5H217.108q-1.97,0-1.969.914,0.069,0.774,2.18.773h0Zm34.594,11.6a40.941,40.941,0,0,1,1.335,15.4,24.849,24.849,0,0,1-3.234,11.25,15.11,15.11,0,0,1-5.273,4.711,27.181,27.181,0,0,1-13.711,2.531,1.523,1.523,0,0,1-1.688-1.758V488.062a1.524,1.524,0,0,1,1.758-1.687,30.1,30.1,0,0,1,12.445,1.828,14.543,14.543,0,0,1,8.368,9.774h0Zm22.668-11.6h1.407a1.524,1.524,0,0,1,1.687,1.758V530.18a1.524,1.524,0,0,1-1.758,1.687h-1.406q-2.109,0-2.109.914,0,0.845,2.179.844h38.6a1.9,1.9,0,0,0,2.109-2.18V517.664q0-2.109-1.476-2.109-1.266,0-1.9,2.25a53.825,53.825,0,0,1-3.8,12.093,5.007,5.007,0,0,1-4.078,1.969h-15.75a1.523,1.523,0,0,1-1.687-1.758V510.7a1.523,1.523,0,0,1,1.758-1.687h4.57q3.3,0.21,4.359,2.461a21.56,21.56,0,0,1,1.758,4.921q0.633,2.11,1.828,2.11,1.124,0,1.125-2.18V499.594q0-2.109-1.195-2.11-1.126,0-1.758,2.391l-1.125,4.219a5.643,5.643,0,0,1-5.2,3.094h-4.43a1.523,1.523,0,0,1-1.687-1.758V488.062a1.523,1.523,0,0,1,1.758-1.687h15.4q2.811-.139,4.289,3.937a77.092,77.092,0,0,1,2.742,7.735q0.633,2.109,1.9,2.109t1.265-2.179V486.8a1.9,1.9,0,0,0-2.179-2.109H274.37q-1.969,0-1.968.914,0.069,0.774,2.179.773h0Zm55.646,0h1.757a1.524,1.524,0,0,1,1.688,1.758V530.18a1.524,1.524,0,0,1-1.758,1.687h-1.758q-2.109,0-2.109.914,0,0.845,2.18.844h17.3q2.111,0,2.11-.914,0-.844-2.18-0.844h-3.234a1.523,1.523,0,0,1-1.688-1.758V510.352a1.524,1.524,0,0,1,1.758-1.688q7.172-1.194,9.914,7.172,0.7,2.109,1.969,2.109,1.194,0,1.195-2.179V499.172q0-2.109-1.406-2.11-1.055,0-1.688,2.321-2.673,8.79-10.054,7.453a1.524,1.524,0,0,1-1.688-1.758V488.062a1.524,1.524,0,0,1,1.758-1.687h12.445a4.945,4.945,0,0,1,3.727.914q3.514,3.094,5.625,10.406,0.772,2.11,2.039,2.11t1.266-2.18V486.8a1.9,1.9,0,0,0-2.18-2.109H330.016q-1.97,0-1.969.914,0.069,0.774,2.18.773h0Zm54.52,14.766a29.117,29.117,0,0,0-.914,13.992q2.389,13.57,16.664,18.211a36.226,36.226,0,0,0,24.75-2.11,3.969,3.969,0,0,0,2.109-3.445v-12.8q0-1.687,2.18-1.687,2.109,0,2.109-.914,0-.844-2.179-0.844H413.013q-2.11,0-2.11.914,0,0.843,2.18.844h3.937a1.524,1.524,0,0,1,1.688,1.757v11.6a6.208,6.208,0,0,1-3.656,5.555,19.648,19.648,0,0,1-9.422.562q-10.056-2.46-11.883-13.359-2.742-15.468,2.461-26.367a15.3,15.3,0,0,1,4.851-5.2,18.084,18.084,0,0,1,8.438-2.743,8.247,8.247,0,0,1,6.891,2.11,26.023,26.023,0,0,1,6.257,10.547q0.633,2.109,2.039,2.109t1.407-2.18v-8.648a3.249,3.249,0,0,0-2.18-3.094,34.823,34.823,0,0,0-20.461-1.476q-13.992,3.516-18.7,16.664h0Zm56.208-14.766H442.5a1.524,1.524,0,0,1,1.687,1.758V530.18a1.524,1.524,0,0,1-1.758,1.687h-1.547q-2.109,0-2.109.914,0,0.845,2.18.844H456q2.109,0,2.109-.914,0-.844-2.18-0.844h-1.265a1.523,1.523,0,0,1-1.688-1.758V510.492a1.523,1.523,0,0,1,1.758-1.687h18.422a1.523,1.523,0,0,1,1.687,1.757V530.18a1.523,1.523,0,0,1-1.758,1.687h-1.195q-2.109,0-2.109.914,0,0.845,2.179.844h15.047q2.111,0,2.11-.914,0-.844-2.18-0.844h-1.547a1.523,1.523,0,0,1-1.687-1.758V488.062a1.523,1.523,0,0,1,1.757-1.687h1.547q2.111,0,2.11-.914,0-.772-2.18-0.773H471.892q-2.109,0-2.109.914,0,0.774,2.179.773h1.2a1.524,1.524,0,0,1,1.687,1.758v17.156a1.524,1.524,0,0,1-1.758,1.688H454.666a1.524,1.524,0,0,1-1.688-1.758V488.062a1.524,1.524,0,0,1,1.758-1.687H456q2.109,0,2.109-.914,0-.772-2.18-0.773H440.744q-1.97,0-1.969.914,0.069,0.774,2.18.773h0Zm64.012,0h1.266a1.524,1.524,0,0,1,1.687,1.758V530.25a1.524,1.524,0,0,1-1.757,1.688H504.9q-2.109,0-2.109.914,0,0.774,2.179.773H519.8q2.109,0,2.11-.914,0-.773-2.18-0.773h-1.266a1.523,1.523,0,0,1-1.687-1.758V488.062a1.523,1.523,0,0,1,1.758-1.687H519.8q2.109,0,2.11-.914,0-.772-2.18-0.773H504.756q-1.969,0-1.968.914,0.069,0.774,2.179.773h0Zm44.747,0h3.164a1.524,1.524,0,0,1,1.688,1.758v36.351q-0.282,4.641-1.407,6.539a5.883,5.883,0,0,1-4.992,1.969q-2.673-.139-4.781-4.219a72.854,72.854,0,0,1-4.5-11.32q-0.7-2.109-1.758-2.18-0.986,0-.984,2.11V530.25a2.882,2.882,0,0,0,2.179,2.883,39.8,39.8,0,0,0,7.735,1.406q8.016,0.773,13.289-3.445a17.439,17.439,0,0,0,3.937-11.25V488.062a1.524,1.524,0,0,1,1.758-1.687h1.336q2.109,0,2.109-.914,0-.772-2.179-0.773H549.5q-1.97,0-1.969.914,0.071,0.774,2.18.773h0Zm29.63,0h1.195a1.524,1.524,0,0,1,1.688,1.758V530.25a1.524,1.524,0,0,1-1.758,1.688h-1.2q-2.109,0-2.109.914,0,0.774,2.18.773h15.89q2.11,0,2.11-.914,0-.773-2.18-0.773h-2.32a1.524,1.524,0,0,1-1.688-1.758V488.062a1.524,1.524,0,0,1,1.758-1.687h2.32q2.11,0,2.11-.914,0-.772-2.18-0.773H579.133q-1.969,0-1.969.914,0.069,0.774,2.18.773h0Zm30.8,0h3.093q1.688,0,.141,1.547L593.406,506.2q-1.969,1.9,0,4.149l18.141,21.164a5.427,5.427,0,0,0,4.008,2.109h8.367q2.109,0,2.109-.914,0-.773-1.969-0.773a4.394,4.394,0,0,1-3.374-1.688L600.3,506.062q-1.758-2.109-.07-3.656,7.944-7.171,15.89-14.133a6.043,6.043,0,0,1,3.8-1.9H620.9q2.11,0,2.11-.914,0-.772-2.18-0.773h-10.9q-1.97,0-1.969.914,0.069,0.774,2.18.773h0Zm29.559,0h1.266a1.524,1.524,0,0,1,1.687,1.758V530.25a1.524,1.524,0,0,1-1.758,1.688H639.63q-2.111,0-2.11.914,0,0.774,2.18.773h34.523a1.9,1.9,0,0,0,2.11-2.18V516.4q0-2.109-1.266-2.109-1.125,0-1.547,2.18a52.475,52.475,0,0,1-4.289,13.64,4.668,4.668,0,0,1-3.937,1.829H653.2a1.523,1.523,0,0,1-1.687-1.758V488.062a1.523,1.523,0,0,1,1.757-1.687h3.446q2.109,0,2.109-.914,0-.772-2.18-0.773H639.489q-1.969,0-1.969.914,0.069,0.774,2.18.773h0Zm50.02,0h1.547a1.524,1.524,0,0,1,1.688,1.758V530.18a1.524,1.524,0,0,1-1.758,1.687H689.65q-2.109,0-2.109.914,0,0.845,2.179.844h9.914q2.111,0,2.11-.914,0-.844-2.18-0.844h-2.742a1.523,1.523,0,0,1-1.688-1.758v-39.8l0.071-1.968q0.139-.281.914,1.828,7.593,20.671,15.4,41.344,0.844,2.109,2.531,2.109t2.532-2.18q7.662-20.46,15.539-40.922,0.984-2.389.984,0V530.18a1.524,1.524,0,0,1-1.758,1.687h-3.726q-2.109,0-2.11.914,0,0.845,2.18.844H745.2q2.109,0,2.109-.914,0-.844-2.179-0.844H743.65a1.523,1.523,0,0,1-1.687-1.758V488.062a1.523,1.523,0,0,1,1.757-1.687H745.2q2.109,0,2.109-.914,0-.772-2.179-0.773H734.158q-2.109,0-3.094,2.531-6.538,16.875-12.867,33.75-0.915,2.25-1.547.562L703.713,486.8a2.991,2.991,0,0,0-2.954-2.109h-11.25q-1.968,0-1.968.914,0.069,0.774,2.179.773h0Zm73.153,0h1.547a1.524,1.524,0,0,1,1.688,1.758V530.18a1.524,1.524,0,0,1-1.758,1.687H762.8q-2.109,0-2.109.914,0,0.845,2.179.844h11.25q2.11,0,2.11-.914,0-.844-2.18-0.844h-3.937a1.523,1.523,0,0,1-1.688-1.758V487.57q0-1.827,1.2,0l28.9,43.946a4.3,4.3,0,0,0,3.586,2.109h1.336a1.9,1.9,0,0,0,2.109-2.18V488.062a1.524,1.524,0,0,1,1.758-1.687h1.617q2.109,0,2.109-.914,0-.772-2.179-0.773H797.327q-2.111,0-2.11.914,0,0.774,2.18.773h4.148a1.524,1.524,0,0,1,1.688,1.758v33.328q0,2.109-1.406.422L778.834,486.8a4.3,4.3,0,0,0-3.586-2.109H762.662q-1.968,0-1.968.914,0.069,0.774,2.179.773h0ZM823.019,502.9a31.926,31.926,0,0,0,.914,15.961q1.688,5.766,8.226,11.25,11.813,7.524,25.032,2.461,9.843-4.78,12.726-14.625,3.8-13.779-3.586-25.031a23.65,23.65,0,0,0-10.687-7.805q-7.032-2.671-16.242-.492-13.431,4.219-16.383,18.281h0Zm36.7-6.96a56,56,0,0,1,1.406,16.171,39.209,39.209,0,0,1-2.672,13.782q-3.516,6.821-10.125,7.171-13.359.845-15.187-14.273-2.181-15.468,1.9-25.805a12.683,12.683,0,0,1,10.477-7.875q11.179-.772,14.2,10.829h0Zm22.528-9.563h1.2a1.524,1.524,0,0,1,1.688,1.758V530.25a1.524,1.524,0,0,1-1.758,1.688h-1.2q-2.11,0-2.11.914,0,0.774,2.18.773h16.594q2.109,0,2.109-.914,0-.773-2.18-0.773H895.75a1.524,1.524,0,0,1-1.688-1.758V511.2a1.523,1.523,0,0,1,1.758-1.687q12.024,0.492,20.11-2.11,6.819-2.46,7.734-9.421,0.7-7.452-6.961-11.25a25.619,25.619,0,0,0-10.758-2.039H882.039q-1.969,0-1.969.914,0.069,0.774,2.18.773h0Zm30.727,4.922a13,13,0,0,1,.632,9.562,7.866,7.866,0,0,1-4.078,5.063,12.425,12.425,0,0,1-5.625,1.336,69.315,69.315,0,0,1-8.156.351,1.523,1.523,0,0,1-1.688-1.757v-17.79a1.524,1.524,0,0,1,1.758-1.687,41.688,41.688,0,0,1,11.953.914,8.493,8.493,0,0,1,5.2,4.008h0Zm24.637,6.117q-4.923,13.712.844,24.961,5.624,9.635,14.7,11.461,2.109,0.421,2.109,2.109a6.638,6.638,0,0,0,4.43,7.383,13.135,13.135,0,0,0,6.539.633q2.671-.564,2.813-1.477,0-.562-1.828-0.492a2.933,2.933,0,0,1-2.883-1.054,6.487,6.487,0,0,1-1.055-4.219q0.351-2.321,1.828-2.6,12.726-2.531,17.578-16.031a29.523,29.523,0,0,0,.985-13.922q-2.111-13.99-15.469-19.266-12.024-3.3-21.8,2.18a23.6,23.6,0,0,0-8.789,10.336h0Zm35.016-1.476a59.364,59.364,0,0,1,.914,21.515,23.006,23.006,0,0,1-3.938,11.25,10.467,10.467,0,0,1-5.554,3.8,15.061,15.061,0,0,1-7.243.281q-6.538-.984-9.351-8.156a34.321,34.321,0,0,1-2.11-11.25,48.8,48.8,0,0,1,2.461-20.461q3.656-7.312,10.477-7.805,11.391-.49,14.344,10.829h0Zm20.489-9.563h1.265a1.524,1.524,0,0,1,1.688,1.758V530.25a1.524,1.524,0,0,1-1.758,1.688h-1.266q-2.109,0-2.109.914,0,0.774,2.18.773h15.261c1.4,0,2.11-.3,2.11-0.914,0-.515-0.73-0.773-2.18-0.773h-1.69a1.523,1.523,0,0,1-1.69-1.758V510.141c0-1.125.26-1.593,0.77-1.407a4.722,4.722,0,0,1,1.41.985l17.02,21.8a5.022,5.022,0,0,0,3.86,2.109h8.23c1.41,0,2.11-.3,2.11-0.914,0-.515-0.7-0.773-2.11-0.773a4.337,4.337,0,0,1-3.45-1.688l-15.96-19.969c-1.03-1.406-.98-2.132.14-2.179a26.173,26.173,0,0,0,11.18-2.883,12.044,12.044,0,0,0,4.79-5.063q3.015-9.14-5.98-13.218a33.415,33.415,0,0,0-11.25-2.25H992.908q-1.97,0-1.969.914,0.069,0.774,2.18.773h0Zm31.5,8.437a9.69,9.69,0,0,1-3.31,8.649q-5.55,3.939-14.48,3.656c-1.27,0-1.9-.538-1.9-1.617V488.062a1.526,1.526,0,0,1,1.76-1.687,33.716,33.716,0,0,1,12.3,1.195q5.205,2.321,5.63,7.242h0Zm28.93,0.844c-0.43,3.656,1.03,6.774,4.35,9.352a91.736,91.736,0,0,0,16.88,7.453,43.805,43.805,0,0,1,5.62,2.6q7.185,4.08,4.01,11.04a10.811,10.811,0,0,1-4.92,4.781q-6.33,3.163-12.09,1.336a13.315,13.315,0,0,1-5-4.078,54.1,54.1,0,0,1-5.83-10.547c-0.66-1.406-1.29-2.11-1.9-2.11s-0.91.728-.91,2.18V528.07a4.29,4.29,0,0,0,2.11,3.586,21.865,21.865,0,0,0,9.56,2.672,31.927,31.927,0,0,0,20.18-3.516q6.885-4.218,7.31-10.124,0.63-8.157-8.3-12.094-5.055-2.25-11.25-4.5a32.326,32.326,0,0,1-11.25-5.836q-5.2-4.921,0-9.774a20.048,20.048,0,0,1,12.38-3.375q6.33,0.845,10.12,7.875a29.317,29.317,0,0,1,2.39,4.922c0.57,1.406,1.13,2.11,1.69,2.11s0.85-.727.85-2.18V488.7a2.88,2.88,0,0,0-2.11-2.883q-14.91-4.5-25.88.282-6.96,2.952-8.01,9.562h0Zm48.89,2.25c0,1.406.38,2.11,1.13,2.11,0.65,0,1.19-.8,1.61-2.391a46.289,46.289,0,0,1,2.32-7.031c1.46-3.187,3.56-4.664,6.33-4.43h2.18a1.524,1.524,0,0,1,1.69,1.758V530.25a1.526,1.526,0,0,1-1.76,1.688h-2.11c-1.41,0-2.11.305-2.11,0.914,0,0.516.73,0.773,2.18,0.773h16.52c1.41,0,2.11-.3,2.11-0.914,0-.515-0.72-0.773-2.18-0.773h-2.1a1.523,1.523,0,0,1-1.69-1.758V487.852a1.522,1.522,0,0,1,1.76-1.688q4.35-.562,5.97,1.195a24.418,24.418,0,0,1,4.85,10.547c0.43,1.406,1.01,2.11,1.76,2.11,0.7,0,1.06-.727,1.06-2.18V486.8a1.9,1.9,0,0,0-2.18-2.109h-35.37c-1.31,0-1.97.75-1.97,2.25v10.968Zm54.1-11.531h1.26a1.524,1.524,0,0,1,1.69,1.758v30.726a29.212,29.212,0,0,0,1.76,8.227,11.054,11.054,0,0,0,7.31,6.258q11.61,2.881,20.39-.985a11.885,11.885,0,0,0,6.47-10.406V488.062a1.526,1.526,0,0,1,1.76-1.687h0.98c1.41,0,2.11-.3,2.11-0.914,0-.515-0.72-0.773-2.18-0.773h-9.35c-1.4,0-2.11.305-2.11,0.914,0,0.516.73,0.773,2.18,0.773h2.67a1.524,1.524,0,0,1,1.69,1.758v30.515a29.643,29.643,0,0,0-.21,3.516q-0.495,7.172-7.17,9.563a18.883,18.883,0,0,1-7.24.843,9.231,9.231,0,0,1-9.21-6.328,23.031,23.031,0,0,1-.99-5.625V488.062a1.526,1.526,0,0,1,1.76-1.687h2.11c1.4,0,2.11-.3,2.11-0.914,0-.515-0.73-0.773-2.18-0.773h-15.82c-1.31,0-1.97.305-1.97,0.914,0.05,0.516.77,0.773,2.18,0.773h0Zm52.62,0a2.341,2.341,0,0,1,2.32,1.828l14.63,44.086a2.861,2.861,0,0,0,2.88,2.109h1.19a2.868,2.868,0,0,0,2.82-2.25q7.38-21.937,14.97-43.664a2.722,2.722,0,0,1,2.6-2.109c1.18,0,1.76-.3,1.76-0.914,0-.515-0.72-0.773-2.18-0.773h-8.58q-2.1,0-2.1.914c0,0.516.72,0.773,2.18,0.773h2.95c1.12,0,1.5.587,1.12,1.758l-12.02,35.578c-0.52,1.594-.96,1.735-1.34.422l-11.53-35.649c-0.42-1.406-.07-2.109,1.06-2.109h2.6c1.41,0,2.11-.3,2.11-0.914,0-.515-0.73-0.773-2.18-0.773h-15.19c-1.26,0-1.9.305-1.9,0.914q0.075,0.774,1.83.773h0Zm55.36,0a2.284,2.284,0,0,1,2.33,1.828l13.57,44.086a2.745,2.745,0,0,0,2.81,2.109h0.98c1.31,0,2.21-.773,2.67-2.32l8.93-28.617c0.52-1.593.94-1.874,1.27-.844l8.86,29.672a2.76,2.76,0,0,0,2.81,2.109h0.99a2.754,2.754,0,0,0,2.74-2.25l14.06-43.664a2.755,2.755,0,0,1,2.67-2.109q1.83,0,1.83-.914c0-.515-0.73-0.773-2.18-0.773h-6.96c-1.41,0-2.11.305-2.11,0.914,0,0.516.73,0.773,2.18,0.773h1.27c1.17,0,1.54.587,1.12,1.758l-11.11,34.875q-0.7,2.109-1.26.422l-10.48-34.946c-0.38-1.406,0-2.109,1.12-2.109h2.61c1.4,0,2.11-.3,2.11-0.914,0-.515-0.73-0.773-2.18-0.773h-16.39c-1.4,0-2.11.305-2.11,0.914,0,0.516.73,0.773,2.18,0.773h1.2a2.323,2.323,0,0,1,2.32,1.687c0.84,2.907,1.76,5.813,2.74,8.719a3.215,3.215,0,0,1,.21,1.407l-7.66,24.468c-0.47,1.406-.89,1.454-1.27.141l-10.4-34.313c-0.38-1.406,0-2.109,1.12-2.109h1.48c1.4,0,2.11-.3,2.11-0.914,0-.515-0.73-0.773-2.18-0.773H1264.6c-1.27,0-1.9.305-1.9,0.914,0.04,0.516.65,0.773,1.82,0.773h0Zm82.44,0a3.094,3.094,0,0,1,2.81,1.687l10.48,18.352a3.411,3.411,0,0,1,.07,3.8l-12.87,19.617a4.294,4.294,0,0,1-3.58,2.11q-2.04,0-2.04.914c0,0.516.72,0.773,2.18,0.773h9.91c1.41,0,2.11-.3,2.11-0.914,0-.515-0.73-0.773-2.18-0.773h-3.23q-1.695,0-.36-2.25l11.39-17.79c0.75-1.03,1.46-.889,2.11.422l9.43,17.438q1.185,2.179-.57,2.18h-2.46c-1.4,0-2.11.305-2.11,0.914,0,0.516.73,0.773,2.18,0.773h16.24c1.41,0,2.11-.3,2.11-0.914,0-.515-0.7-0.773-2.11-0.773a3.262,3.262,0,0,1-3.02-1.688l-13.29-23.414a2.981,2.981,0,0,1,.14-3.375l9.99-14.977a4.634,4.634,0,0,1,3.86-2.109q2.25,0,2.25-.914c0-.515-0.72-0.773-2.18-0.773h-9.21c-1.4,0-2.11.305-2.11,0.914,0,0.516.73,0.773,2.18,0.773h2.25q1.7,0,.57,1.758l-8.37,13.008q-1.41,2.32-2.39.562l-7.17-13.148c-0.8-1.453-.61-2.18.56-2.18h2.25c1.41,0,2.11-.3,2.11-0.914,0-.515-0.73-0.773-2.18-0.773h-15.75c-1.31,0-1.97.305-1.97,0.914,0.05,0.516.7,0.773,1.97,0.773h0Zm53.46,0a3.222,3.222,0,0,1,3.03,1.9l12.3,22.43a6.273,6.273,0,0,1,.78,3.094V530.25a1.526,1.526,0,0,1-1.76,1.688h-2.11c-1.41,0-2.11.305-2.11,0.914,0,0.516.73,0.773,2.18,0.773h16.52c1.41,0,2.11-.3,2.11-0.914,0-.515-0.72-0.773-2.18-0.773H1427a1.52,1.52,0,0,1-1.68-1.758V512.812a5.125,5.125,0,0,1,.49-2.531l12.37-21.8a3.871,3.871,0,0,1,3.45-2.109c1.4,0,2.11-.3,2.11-0.914,0-.515-0.73-0.773-2.18-0.773h-8.72c-1.41,0-2.11.305-2.11,0.914,0,0.516.73,0.773,2.18,0.773h2.25c1.12,0,1.29.75,0.49,2.25q-5.475,9.635-10.76,19.195-0.915,1.478-1.89-.422-4.935-9.42-9.64-18.843c-0.75-1.453-.54-2.18.64-2.18h3.09c1.41,0,2.11-.3,2.11-0.914,0-.515-0.73-0.773-2.18-0.773h-16.88q-1.89,0-1.89.914c0.04,0.516.77,0.773,2.17,0.773h0Zm59.38,11.531c0,1.406.32,2.11,0.98,2.11,0.56,0,1.06-.7,1.48-2.11a39.019,39.019,0,0,1,2.95-8.508,6.855,6.855,0,0,1,5.41-3.023h14.91c1.13,0,1.24.75,0.35,2.25l-27.07,42.891c-0.84,1.406-.56,2.109.85,2.109h36a1.9,1.9,0,0,0,2.11-2.18V517.664c0-1.406-.36-2.109-1.06-2.109q-0.78,0-1.26,2.32a28.755,28.755,0,0,1-4.86,10.687,8.947,8.947,0,0,1-5.55,3.3h-14.98q-1.68,0-.42-2.179,13.425-21.446,27.07-42.891,1.26-2.109-.84-2.109h-34.1c-1.32,0-1.97.75-1.97,2.25v10.968Z"/>
  <path id="logo" class="cls-1" d="M706.266,1194.7a45.969,45.969,0,0,0-.118,5.15v5.16H677.555v-1.17l0.234-.94-1.406-.24c-1.1,0-2.659-.07-4.688-0.23h-3.281l-0.469,2.58a45.646,45.646,0,0,1-1.172,4.92,22.619,22.619,0,0,1-1.406,4.22,7.125,7.125,0,0,0-.82,2.23,6.584,6.584,0,0,0,2.109-.71c1.326-.54,2.615-1.13,3.867-1.76a11.566,11.566,0,0,0,3.516-2.81l1.641-1.64h66.8l1.875,1.88a14.477,14.477,0,0,0,3.75,2.81c1.406,0.62,2.655,1.17,3.75,1.64a1.036,1.036,0,1,0,1.171-1.17,17.1,17.1,0,0,1-1.406-3.99q-0.7-2.34-1.172-4.68a11.9,11.9,0,0,0-.7-3.05c0-.47-1.252-0.62-3.75-0.47-1.875.16-3.281,0.23-4.219,0.23a2.052,2.052,0,0,1-.937.24c-0.315,0-.469.31-0.469,0.94l0.235,0.93-13.594.24q-13.359,0-13.36-.24a2.838,2.838,0,0,1,.7-1.05,6.664,6.664,0,0,0,1.171-2.46,15.728,15.728,0,0,0,.469-4.22v-2.58h-4.687Q706.382,1194.46,706.266,1194.7Zm-31.289,28.12v4.22l21.093,0.23h21.094l-5.859,4.93q-5.4,4.215-8.2,6.56l-2.344,1.87v6.8H660.445v4.22h40.313v14.76c0,10.01-.158,15.47-0.469,16.41a13.152,13.152,0,0,1-1.172,3.05,21,21,0,0,1-2.578,3.04,16.962,16.962,0,0,1-3.75,2.82c-1.406.62-2.109,1.17-2.109,1.64s0.153,0.7.468,0.7a30.375,30.375,0,0,0,3.047-.47,34.353,34.353,0,0,0,4.922-1.4,16.4,16.4,0,0,0,4.688-1.88,11.74,11.74,0,0,0,3.515-2.34,12.264,12.264,0,0,0,2.344-2.58,13,13,0,0,0,1.172-2.58c0.311-.94.469-6.4,0.469-16.41v-14.76h38.2v-4.22h-38.2v-6.8l2.109-1.64q2.109-1.635,8.438-6.79,6.327-5.4,8.437-7.04a13.637,13.637,0,0,0,2.578-2.34q0-.225-28.828-0.23t-29.062.23h0Zm121.64-30.23-0.469,1.87a27.635,27.635,0,0,1-1.523,5.74c-0.861,2.43-1.681,4.65-2.461,6.68q-1.176,2.58-3.281,6.8-1.88,3.75-4.453,8.44-2.11,3.75-4.688,7.73-2.582,4.215-3.047,4.92a7.818,7.818,0,0,0-1.406,2.11c-0.157.47-.117,0.71,0.117,0.71a8.252,8.252,0,0,0,2.227-1.18q1.873-1.17,3.515-2.34,1.874-1.41,3.985-3.28a59.714,59.714,0,0,0,4.453-4.45l2.109-2.35,0.235,14.77,0.234,14.76h1.875a5.862,5.862,0,0,0,3.047-.7,5.457,5.457,0,0,0,1.875-1.17,11.374,11.374,0,0,0,1.406-1.64l0.469-.71h27.187v2.11l0.235,2.11h1.64a7.437,7.437,0,0,0,2.813-.47,9.072,9.072,0,0,0,2.109-1.17,4.666,4.666,0,0,0,1.407-1.64l0.7-.94h31.64v-4.45H838.336v-6.8H868.57v-4.45H838.336v-6.8H868.57v-4.68H838.336v-7.5H868.57v-4.69H837.164l0.938-1.17a23.668,23.668,0,0,0,1.406-2.35,6.445,6.445,0,0,0,.7-2.57,17.74,17.74,0,0,0,.469-4.93v-3.51H828.727v14.53H815.6q-13.129,0-13.125-.23c0-.16-0.158-0.24-0.469-0.24s0.311-1.41,1.875-4.22a69.182,69.182,0,0,0,3.281-7.5,16.732,16.732,0,0,0,1.406-3.98l0.235-1.17H796.617Zm31.406,22.03v7.5H802.477v-7.5h25.546Zm0,12.18v6.8H802.477v-6.8h25.546Zm0,11.25v6.8H802.477v-6.8h25.546Zm-3.515,16.88v5.16l-22.969.23H778.805v4.45h45.7v1.64c0,1.1-.081,1.64-0.235,1.64a40.222,40.222,0,0,1-4.687-1.17q-4.455-1.17-4.922-1.4-0.236,0-6.328,4.68-6.1,4.935-7.734,6.1-1.643.93-4.454,2.58a58.967,58.967,0,0,1-5.39,2.57q-2.812,1.185-5.391,2.23a35.226,35.226,0,0,1-5.859,1.76,17.416,17.416,0,0,0-3.047,1.05,6.06,6.06,0,0,0,1.289,1.06,3.994,3.994,0,0,0,1.992.94c0.469,0,2.344-.32,5.625-0.94s6.328-1.33,9.141-2.11q4.449-1.17,8.2-2.35a22.822,22.822,0,0,0,4.922-2.1q1.637-.945,9.14-6.1t7.618-5.04q0.115,0.12.117,13.48v13.12h1.406a7.357,7.357,0,0,0,2.813-.7,6.692,6.692,0,0,0,3.046-1.99,11.184,11.184,0,0,0,2.11-3.17,8.733,8.733,0,0,0,.586-2.34q0.115-1.17.117-6.33c0.154-4.68.271-7.11,0.352-7.26s1.442,0.55,4.1,2.11q3.982,2.1,6.8,3.51a34.945,34.945,0,0,0,6.328,2.58,54.282,54.282,0,0,0,6.328,1.64,52.974,52.974,0,0,0,5.625.94c1.718,0.16,4.219.23,7.5,0.23a38.521,38.521,0,0,0,5.86-.23,1.37,1.37,0,0,0,1.171-.94l0.235-1.17c0-.15-0.235-0.24-0.7-0.24-0.315,0-1.722-.23-4.219-0.7s-5-1.01-7.5-1.64q-3.516-.93-6.8-2.11-2.812-.93-5.625-2.11-2.346-1.17-10.078-6.33l-7.734-5.15,19.453-.24h19.453v-4.45H854.977l-20.157-.23v-2.58l-0.234-2.58H824.508Z"/>
</svg>
