<svg xmlns="http://www.w3.org/2000/svg" width="400" height="200" viewBox="0 0 400 200">
  <defs>
    <style>
      .cls-1 {
        fill: #fdfdfd;
        fill-rule: evenodd;
      }
    </style>
  </defs>
  <path id="王漢宗綜藝體繁" class="cls-1" d="M34.984,83.492A1.243,1.243,0,0,0,36.391,84.9H51.672a1.036,1.036,0,0,1,1.172,1.172V96.945a1.036,1.036,0,0,1-1.172,1.172H37.141a1.243,1.243,0,0,0-1.406,1.406v2.719a1.243,1.243,0,0,0,1.406,1.406H51.672a1.037,1.037,0,0,1,1.172,1.172v11.25a1.036,1.036,0,0,1-1.172,1.172H35.266a1.243,1.243,0,0,0-1.406,1.406v2.719a1.243,1.243,0,0,0,1.406,1.406H77.219a1.243,1.243,0,0,0,1.406-1.406v-2.719a1.243,1.243,0,0,0-1.406-1.406H61.047a1.036,1.036,0,0,1-1.172-1.172V104.82a1.036,1.036,0,0,1,1.172-1.172h14.3a1.243,1.243,0,0,0,1.406-1.406V99.523a1.243,1.243,0,0,0-1.406-1.406h-14.3a1.036,1.036,0,0,1-1.172-1.172V86.07A1.036,1.036,0,0,1,61.047,84.9H76.281a1.243,1.243,0,0,0,1.406-1.406V80.773a1.243,1.243,0,0,0-1.406-1.406H36.3a1.25,1.25,0,0,0-1.312,1.5v2.625ZM96.906,79.6a1.222,1.222,0,0,0-1.359,1.406v1.453a1.222,1.222,0,0,0,1.359,1.406,1.151,1.151,0,0,1,1.406,1.172v2.953A1.243,1.243,0,0,0,99.719,89.4h6.609q1.171,0,1.172,1.453T106.328,92.3h-8.3a1.243,1.243,0,0,0-1.406,1.406v7.031a1.243,1.243,0,0,0,1.406,1.406h8.3a1.43,1.43,0,0,1,0,2.813H97.891a1.243,1.243,0,0,0-1.406,1.406V107.4a1.243,1.243,0,0,0,1.406,1.407h8.437q1.171,0,1.172,1.453a1.151,1.151,0,0,1-1.172,1.406H96.953a1.243,1.243,0,0,0-1.406,1.406v1.078a1.243,1.243,0,0,0,1.406,1.407h7.266q1.172,0,.469,1.218-1.266,2.484-3.61,2.157H96.391q-1.266,0-.937,1.547l0.234,1.078a1.629,1.629,0,0,0,1.734,1.406h8.906q3.516-.187,5.766-4.313,0.186-.095.7,1.125l0.281,0.657a3.255,3.255,0,0,0,2.25,2.156,10.045,10.045,0,0,0,1.875.375h8.2a1.243,1.243,0,0,0,1.406-1.406v-0.844a1.242,1.242,0,0,0-1.406-1.406h-3.094a3.332,3.332,0,0,1-2.156-1.125,2.516,2.516,0,0,0-1.828-.469h-4.594q-1.171,0-.422-1.172a2.155,2.155,0,0,1,1.829-.984h10.078a1.243,1.243,0,0,0,1.406-1.407V113.07a1.243,1.243,0,0,0-1.406-1.406h-9.328q-1.173,0-1.172-1.453a1.15,1.15,0,0,1,1.172-1.406h8.765a1.243,1.243,0,0,0,1.406-1.407v-1.031a1.243,1.243,0,0,0-1.406-1.406h-8.765a1.43,1.43,0,0,1,0-2.813h6.515q3.563-.608,3.563-3.609V93.711a1.243,1.243,0,0,0-1.407-1.406h-8.671q-1.173,0-1.172-1.453t1.172-1.453h5.25q3.609-.7,2.953-4.359a1.151,1.151,0,0,1,1.406-1.172,1.2,1.2,0,0,0,1.312-1.406V81.008a1.222,1.222,0,0,0-1.359-1.406q-1.361,0-1.359-.937,0-.89-1.406-0.891h-4.032q-1.406,0-1.406.891a0.946,0.946,0,0,1-1.172.938h-9.7a0.946,0.946,0,0,1-1.172-.937q0-.89-1.406-0.891H99.625q-1.313,0-1.312.938,0,0.891-1.406.891h0ZM83.688,84.289A6.352,6.352,0,0,0,85.7,87.945q1.921,1.079,5.766.7a1.243,1.243,0,0,0,1.406-1.406V84.523q0-1.406-.562-1.406-1.641.235-2.3-1.922l-0.422-1.406a1.7,1.7,0,0,0-1.781-1.406H83.453q-1.22,0-.844,1.547,0.468,2.2,1.078,4.359h0Zm30.844,2.2h-8.156a1.321,1.321,0,0,1,0-2.625h9.891q0.984,0,.984.75-0.328,2.25-2.719,1.875h0ZM84.3,99.289A4.062,4.062,0,0,0,85.7,101.07q1.921,1.08,5.766.7a1.243,1.243,0,0,0,1.406-1.406V97.648q0-1.406-.609-1.406a3.679,3.679,0,0,1-.891-0.094,3.99,3.99,0,0,1-1.687-2.906,1.838,1.838,0,0,0-1.875-1.406H83.547q-1.313,0-.844,1.828A39.7,39.7,0,0,0,84.3,99.289h0Zm22.031-.469h-2.062a1.036,1.036,0,0,1-1.172-1.172V96.758a1.036,1.036,0,0,1,1.172-1.172h2.109q1.125,0,1.125,1.641,0,1.594-1.172,1.594h0Zm12.328-.094a20.936,20.936,0,0,1-2.765.094,1.036,1.036,0,0,1-1.172-1.172V96.758a1.036,1.036,0,0,1,1.172-1.172h2.437a1.042,1.042,0,0,1,1.172,1.125,1.707,1.707,0,0,1-.844,2.016h0ZM84.3,114.9q-0.094,2.484-2.2,2.532-0.657,0-.328,1.781l0.375,2.344a1.565,1.565,0,0,0,1.688,1.406,8.787,8.787,0,0,0,4.875-.656,4.2,4.2,0,0,0,1.781-3.047L92.922,106.6A1.013,1.013,0,0,0,91.8,105.2H87.344q-1.172,0-1.5,1.641Q85,110.868,84.3,114.9h0Zm63.562-34.781H131.875a1.243,1.243,0,0,0-1.406,1.406V86.68a1.243,1.243,0,0,0,1.406,1.406h4.219a1.167,1.167,0,0,0,1.406-1.219,1.057,1.057,0,0,1,1.172-1.219h27.75a1.079,1.079,0,0,1,1.172,1.266A1.15,1.15,0,0,0,169,88.086h4.219a1.243,1.243,0,0,0,1.406-1.406V81.523a1.243,1.243,0,0,0-1.406-1.406H157.234a1,1,0,0,1-1.172-1.078q0-1.031-1.406-1.031h-4.312a1.07,1.07,0,0,0-1.313,1.078,0.979,0.979,0,0,1-1.172,1.031h0Zm-15.937,15a1.243,1.243,0,0,0,1.406,1.406h38.391a1.243,1.243,0,0,0,1.406-1.406V92.773a1.243,1.243,0,0,0-1.406-1.406H133.234a1.249,1.249,0,0,0-1.312,1.5v2.25Zm-1.688,10.313a1.243,1.243,0,0,0,1.407,1.406h16.406a1.036,1.036,0,0,1,1.172,1.172v6.844q0.093,3.046-3.141,2.578-1.406,0-1.125,1.781l0.375,2.344a1.5,1.5,0,0,0,1.641,1.406h5.39q3.657-.984,3.938-3.984V108.008a1.036,1.036,0,0,1,1.172-1.172h15.937a1.243,1.243,0,0,0,1.406-1.406v-2.719a1.242,1.242,0,0,0-1.406-1.406H131.594a1.245,1.245,0,0,0-1.36,1.453v2.672ZM165.3,118.648q1.125,3.375,3.562,3.563h4.735A1.243,1.243,0,0,0,175,120.805v-2.766a1.243,1.243,0,0,0-1.406-1.406q-1.548.234-2.156-1.735l-0.891-3.281a1.7,1.7,0,0,0-1.781-1.406h-4.219q-1.312,0-.985,1.453Zm-31.5-4.359q-0.562,2.766-2.578,2.344a1.045,1.045,0,0,0-1.172,1.406l0.515,2.766a1.505,1.505,0,0,0,1.641,1.406q3.938,0.281,5.485-.7a4.355,4.355,0,0,0,1.874-2.672q0.8-3.516,1.735-7.031a0.954,0.954,0,0,0-1.031-1.407h-4.172a1.643,1.643,0,0,0-1.735,1.454Zm70.969-34.172h-6.235a1.243,1.243,0,0,0-1.406,1.406v4.219a1.243,1.243,0,0,0,1.406,1.406h3.891q1.406,0,1.406-.937A0.947,0.947,0,0,1,205,85.273h9.891a0.962,0.962,0,0,1,1.171.984q0,0.891,1.407.891h3.89a1.243,1.243,0,0,0,1.407-1.406V81.523a1.243,1.243,0,0,0-1.407-1.406h-7.218a1.057,1.057,0,0,1-1.172-1.219q0-1.125-1.407-1.125H207.25a1.12,1.12,0,0,0-1.312,1.219,1.016,1.016,0,0,1-1.172,1.125h0Zm-24.75,4.5a4.237,4.237,0,0,0-1.266,2.813v3a1.243,1.243,0,0,0,1.406,1.406h4.782q1.265,0,.187,1.219l-5.344,5.953a4.241,4.241,0,0,0-1.265,2.812v2.485a1.243,1.243,0,0,0,1.406,1.406h2.719a1.036,1.036,0,0,1,1.171,1.172v14.672a1.243,1.243,0,0,0,1.407,1.406h4.219a1.243,1.243,0,0,0,1.406-1.406V106.742a1.125,1.125,0,0,1,1.218-1.125,3.129,3.129,0,0,0,2.954-2.672,13.957,13.957,0,0,0,.187-3.7,1.286,1.286,0,0,0-1.5-1.406q-1.453,0-1.453.609-0.047,2.063-2.3,1.735h-1.734q-1.266,0-.141-1.219l5.438-6.094a4.24,4.24,0,0,0,1.265-2.812V87.711a1.243,1.243,0,0,0-1.406-1.406h-5.25q-1.312,0,0-1.547l4.406-5.156q1.219-1.406-.187-1.406h-5.485a3.026,3.026,0,0,0-2.39,1.266q-2.3,2.579-4.453,5.156h0Zm18,8.813a1.243,1.243,0,0,0,1.406,1.406h21.14a1.243,1.243,0,0,0,1.407-1.406V91.039a1.243,1.243,0,0,0-1.407-1.406h-21.14a1.243,1.243,0,0,0-1.406,1.406V93.43Zm-0.563,8.343a1.243,1.243,0,0,0,1.406,1.407h6.282a1.036,1.036,0,0,1,1.171,1.172v11.109q0.282,2.25-1.5,2.672-0.609.141-.374,1.547l0.281,1.875a1.5,1.5,0,0,0,1.64,1.406h3.516q3.234-.939,3.516-3.75V104.352a1.035,1.035,0,0,1,1.171-1.172H221.5a1.243,1.243,0,0,0,1.406-1.407V99.2a1.243,1.243,0,0,0-1.406-1.406H198.812a1.245,1.245,0,0,0-1.359,1.453v2.531Zm0.8,13.36q-0.375,1.781-1.875,1.5-0.609,0-.609-1.219v-5.3a1.2,1.2,0,0,0-1.313-1.406,1.184,1.184,0,0,0-1.265,1.406v9.938a1.2,1.2,0,0,0,1.312,1.406,1.185,1.185,0,0,0,1.266-1.406,2.917,2.917,0,0,1,.328-1.547,1.414,1.414,0,0,1,.8,1.453l0.093,0.469a1.508,1.508,0,0,0,1.688,1.359q3.609,0.093,4.266-3.891,0.281-5.389.75-10.781a1.157,1.157,0,0,0-1.313-1.406h-1.969a1.36,1.36,0,0,0-1.5,1.453q-0.422,3.985-.656,7.969h0Zm18.188,1.64a4.719,4.719,0,0,0,.562,2.813q2.063,2.718,4.5,2.25a1.243,1.243,0,0,0,1.406-1.406v-2.391q0-1.406-.515-1.453a2.033,2.033,0,0,1-1.219-2.438l-0.563-7.031a1.339,1.339,0,0,0-1.5-1.406h-2.015q-1.36,0-1.266,1.687,0.234,4.689.61,9.375h0ZM179.125,114.1A1.783,1.783,0,0,1,178,116.4q-0.516.095-.328,1.5l0.375,2.344q0.234,1.407.75,1.406,3.047-.28,2.906-3.937v-7.594a1.223,1.223,0,0,0-1.359-1.406q-1.219,0-1.219,1.5V114.1ZM231.062,79.18h-3.656A1.243,1.243,0,0,0,226,80.586V81.43a1.243,1.243,0,0,0,1.406,1.406h3.656q1.171,0,1.172.7,0,0.61.844,0.609a0.865,0.865,0,0,1,.844,1.078A1,1,0,0,1,232.75,86.3h-4.031a1.273,1.273,0,1,0,0,2.531h4.031a1.172,1.172,0,1,1,0,2.344h-5.344A1.185,1.185,0,0,0,226,92.445a1.044,1.044,0,0,0,1.078,1.266q1.125,0,.469,1.453-0.376,1.828-1.828,1.828-0.235,0,.234,1.172a1.284,1.284,0,0,0,1.219.984q0.889,0,.89.609,0,0.516,1.407.515h3.469a1.036,1.036,0,0,1,1.171,1.172,1.015,1.015,0,0,1-1.171,1.125h-5.344a1.2,1.2,0,0,0-1.406,1.313,1.184,1.184,0,0,0,1.406,1.265h20.25a1.2,1.2,0,0,0,1.406-1.312,1.185,1.185,0,0,0-1.406-1.266h-5.86a1.036,1.036,0,0,1-1.172-1.172,1.016,1.016,0,0,1,1.172-1.125h4.125q1.407,0,1.407-.562t0.89-.562q0.844,0,.844-1.172a0.97,0.97,0,0,0-.656-1.078,1.955,1.955,0,0,1-1.219-1.687q-0.469-1.5.516-1.5,0.936,0,.937-1.266a1.185,1.185,0,0,0-1.406-1.266h-5.3a1.172,1.172,0,1,1,0-2.344h4.359a1.273,1.273,0,1,0,0-2.531h-4.359q-1.172,0-1.172-.8a0.685,0.685,0,0,0-.8-0.75,0.814,0.814,0,0,1-.844-0.984,0.947,0.947,0,0,1,1.172-.937h15.891a0.962,0.962,0,0,1,1.172.984q0,0.938-1.266.938a1.284,1.284,0,0,0-1.406,1.219,1.343,1.343,0,0,1-1.547,1.266,1.185,1.185,0,0,0-1.266,1.406v1.594q0,1.406.985,1.406t0.937,1.266a1.172,1.172,0,0,1-1.078,1.266q-0.843,0-.844,1.406V96.43q0,1.406.7,1.406c0.405,0,.578.375,0.515,1.125q-0.468,2.109-1.828,1.781-0.562,0-.234,1.594l0.328,1.406a1.627,1.627,0,0,0,1.734,1.406q4.734,0.657,5.766-3.14,0.141-1.031,1.453-.7l1.312,0.234a1.511,1.511,0,0,1,1.547,1.266,5.411,5.411,0,0,0,.844,1.453q1.829,1.547,5.344,1.078a1.243,1.243,0,0,0,1.406-1.406v-1.969q0-1.407-.281-1.406a1.738,1.738,0,0,1-1.172-2.3V88.648a1.243,1.243,0,0,0-1.406-1.406h-5.625a0.939,0.939,0,0,1-.985-1.219l0.094-.469a1.6,1.6,0,0,1,1.688-1.406q1.311,0,1.312-.656t1.172-.656h3.609a1.243,1.243,0,0,0,1.407-1.406V80.586a1.243,1.243,0,0,0-1.407-1.406H265.75q-1.172,0-1.172-.75,0-.656-1.406-0.656h-4.219q-1.405,0-1.406.7t-1.172.7H240.484q-1.172,0-1.172-.75,0-.656-1.406-0.656h-4.359q-1.312,0-1.313.75,0,0.657-1.172.656h0Zm32.11,17.484a0.913,0.913,0,0,1-.984,1.125q-2.953-.89-2.11-2.531l0.281-2.156a1.442,1.442,0,0,1,1.547-1.453,1.08,1.08,0,0,1,1.266,1.172v3.844ZM243.391,96.2q0.515,1.5-1.032,1.5t-1.547-.7q0-.656-1.406-0.656h-3.89q-1.407,0-1.407.656,0,0.7-1.171.7h-0.891q-1.173,0-.563-1.219l0.657-1.359a2.179,2.179,0,0,1,1.875-1.406h7.218a1.835,1.835,0,0,1,1.594,1.313Zm-14.485,14.11h39.188A1.243,1.243,0,0,0,269.5,108.9a1.223,1.223,0,0,0-1.406-1.359H228.812a1.226,1.226,0,0,0-1.312,1.453,1.2,1.2,0,0,0,1.406,1.313h0ZM226,114.617a1.243,1.243,0,0,0,1.406,1.406h4.406q1.313,0-.046.938-1.643,1.077-3.282,2.344a2.771,2.771,0,0,0-1.406,2.25,1.167,1.167,0,0,0,1.406,1.218h38.25q2.25,0.468,2.625-1.5a2.858,2.858,0,0,0-.7-2.343,2.981,2.981,0,0,0-2.437-1.407h-4.031q-1.314,0-.61.938,0.8,1.031-.422,1.031H238.844q-1.219,0-.188-1.078l1.266-1.172a4.087,4.087,0,0,1,2.531-1.219h27.094a1.243,1.243,0,0,0,1.406-1.406V114.1a1.243,1.243,0,0,0-1.406-1.407H227.312A1.25,1.25,0,0,0,226,114.2v0.422Zm73.922-34.5h-3.047a1.243,1.243,0,0,0-1.406,1.406V96.055a1.243,1.243,0,0,0,1.406,1.406H314.5q3.563-.515,3.609-3.656V81.523a1.243,1.243,0,0,0-1.406-1.406h-3.234A1.057,1.057,0,0,1,312.3,78.9q0-1.125-1.406-1.125H309.25a1.151,1.151,0,0,0-1.406,1.172,1.15,1.15,0,1,1-2.3-.047q0-1.125-1.406-1.125h-1.735a1.12,1.12,0,0,0-1.312,1.219,1.016,1.016,0,0,1-1.172,1.125h0Zm-24.7,11.766q0,1.172-.8,1.172-0.7,0-.7,1.406V98.68q0,1.406.75,1.406t0.75,1.172v20.3a1.243,1.243,0,0,0,1.406,1.406h3.516a1.243,1.243,0,0,0,1.406-1.406V116.82a1.036,1.036,0,0,1,1.172-1.172h2.39a1.08,1.08,0,0,1,1.172,1.266q0.375,2.484-1.828,2.391-0.7,0-.281,1.781l0.094,0.469A1.628,1.628,0,0,0,286,122.961l3.375-.047a3.522,3.522,0,0,0,3.187-3.516V101.445c0-.78.2-1.172,0.61-1.172q0.514,0,.516-1.406V94.461q0-1.406-.61-1.406-0.657,0-.656-1.172V80.164a1.243,1.243,0,0,0-1.406-1.406H276.578a1.244,1.244,0,0,0-1.359,1.453V91.883Zm25.875-5.906a1.172,1.172,0,0,1-2.344,0V84.57a1.057,1.057,0,0,1,1.219-1.172,1.038,1.038,0,0,1,1.125,1.219v1.359Zm6.75,0a1.036,1.036,0,0,1-1.172,1.172,1.015,1.015,0,0,1-1.125-1.172V84.57a1.15,1.15,0,1,1,2.3.047v1.359Zm6.937,0a1.079,1.079,0,0,1-1.265,1.172,1.057,1.057,0,0,1-1.219-1.172V84.57a1.243,1.243,0,0,1,2.484.047v1.359ZM286.8,86.82h-3.422a1.243,1.243,0,0,0-1.406,1.406v3.656a1.036,1.036,0,0,1-1.172,1.172,1.016,1.016,0,0,1-1.125-1.172V84.758a1.036,1.036,0,0,1,1.172-1.172h6q1.125,0,1.125,1.641,0,1.594-1.172,1.594h0Zm1.172,5.063a1.036,1.036,0,0,1-1.172,1.172,1.016,1.016,0,0,1-1.125-1.172V90.945a1.036,1.036,0,0,1,1.172-1.172,1.016,1.016,0,0,1,1.125,1.172v0.938Zm13.125,1.125a1.172,1.172,0,0,1-2.344,0V91.414a1.172,1.172,0,0,1,2.344,0v1.594Zm6.75,0a1.036,1.036,0,0,1-1.172,1.172,1.016,1.016,0,0,1-1.125-1.172V91.414a1.036,1.036,0,0,1,1.172-1.172,1.016,1.016,0,0,1,1.125,1.172v1.594Zm5.25,1.172q-0.8,0-.8-1.219V91.414a1.079,1.079,0,0,1,1.265-1.172,1.167,1.167,0,0,1,1.219,1.406q0.468,2.391-1.687,2.531h0Zm-26.86,5.391h-5.015q-1.173,0-1.172-1.453a1.151,1.151,0,0,1,1.172-1.406h5.062q1.125,0,1.125,1.453a1.151,1.151,0,0,1-1.172,1.406h0Zm9.188,2.485a1.243,1.243,0,0,0,1.406,1.406h20.2a1.243,1.243,0,0,0,1.407-1.406v-0.891a1.243,1.243,0,0,0-1.407-1.406h-20.3a1.25,1.25,0,0,0-1.312,1.5v0.8Zm-10.313,4.64h-2.39q-1.173,0-1.172-1.547,0-1.5,1.172-1.5h2.437q1.125,0,1.125,1.547,0,1.5-1.172,1.5h0Zm10.922,7.735a1.151,1.151,0,0,0,1.172,1.406q1.079,0,1.359,1.641,0.094,1.452-1.078,1.453h-0.843a1.243,1.243,0,0,0-1.407,1.406v1.219a1.243,1.243,0,0,0,1.407,1.406h20.812a1.243,1.243,0,0,0,1.406-1.406v-1.219a1.242,1.242,0,0,0-1.406-1.406h-1.734a1.92,1.92,0,0,1-1.219-.188,8.353,8.353,0,0,1,.328-1.64,2.239,2.239,0,0,1,1.125-1.641,3.674,3.674,0,0,0,1.969-3.234V107.4a1.243,1.243,0,0,0-1.406-1.406H297.391a1.245,1.245,0,0,0-1.36,1.453v6.985Zm12.938-1.875h-5.063a1.036,1.036,0,0,1-1.172-1.172v-0.938a1.037,1.037,0,0,1,1.172-1.172h6.188a0.994,0.994,0,0,1,1.125,1.125q0.093,2.673-2.25,2.157h0Zm-23.86.14h-2.39q-1.173,0-1.172-1.547,0-1.5,1.172-1.5h2.437q1.125,0,1.125,1.547,0,1.5-1.172,1.5h0Zm21.422,6.235a1.673,1.673,0,0,1-1.734-1.641q-0.187-1.454.984-1.453H307.8q1.077,0,.656,1.687a1.822,1.822,0,0,1-1.922,1.407h0Zm17.578-38.2q-0.516,1.735-1.921,1.594-0.517,0-.141,1.406l0.094,0.469q0.468,1.453.843,1.453,0.423,0.094.422,1.219V89.4q0,1.172-.89,1.172-0.845,0-.844,1.125a0.865,0.865,0,0,0,.844,1.078q0.889,0,.89,1.172v3.609a1.243,1.243,0,0,0,1.406,1.406h15.329a3.7,3.7,0,0,0,3.234-1.687,6.458,6.458,0,0,0,.563-3.328q0-1.171.7-1.172,0.655,0,.656-1.125,0-1.078-.656-1.078-0.7,0-.7-1.172V85.977a1.243,1.243,0,0,0-1.407-1.406H330.2q-1.219,0-.562-1.453a2.179,2.179,0,0,1,1.875-1.406h11.578a1.273,1.273,0,1,0,0-2.531h-10.36q-1.125,0-.75-0.8,0.282-.609-1.125-0.609h-4.218a2.033,2.033,0,0,0-1.922,1.5,10.984,10.984,0,0,0-.61,1.453h0Zm24.516,0a7.219,7.219,0,0,1-.937,2.156,1.537,1.537,0,0,1-1.219.609q-0.657,0-.328,1.594l0.328,1.406A1.628,1.628,0,0,0,348.2,87.9q1.641-.609,3.656,2.766a2.159,2.159,0,0,1,.094,2.906,5.418,5.418,0,0,1-3.844.609q-1.359,0-1.078,1.453l0.422,1.922a1.565,1.565,0,0,0,1.688,1.406,12.053,12.053,0,0,0,6.515-.8,1.921,1.921,0,0,1,2.532-.141q2.577,1.406,7.218.938a1.243,1.243,0,0,0,1.406-1.406V95.586a1.243,1.243,0,0,0-1.406-1.406,3.34,3.34,0,0,1-3.468-1.031,2.221,2.221,0,0,1-.516-2.812l2.766-4.219a2.5,2.5,0,0,1,1.781-1.406q0.843,0,.843-1.406V81.711a1.243,1.243,0,0,0-1.406-1.406h-9.14q-1.08,0-.61-1.266,0.375-1.031-1.031-1.031h-3.7q-1.312,0-1.969,1.781a3.751,3.751,0,0,1-.328.938h0Zm6.516,6.656h-1.782q-1.264,0-.281-1.359a1.819,1.819,0,0,1,1.688-1.312h2.156q1.266,0,.328,1.266a2.691,2.691,0,0,1-2.109,1.406h0ZM337.656,89.4a0.978,0.978,0,0,1-1.031,1.172,1.089,1.089,0,0,1-1.172-.656q-0.187-.656-1.594-0.656h-0.843q-1.407,0-1.219.609,0.186,0.7-.985.7a1.015,1.015,0,0,1-1.124-1.172V87.945a1.036,1.036,0,0,1,1.171-1.172h5.672a1.038,1.038,0,0,1,1.125,1.219V89.4Zm-1.406,7.359a0.831,0.831,0,0,1-.656-0.844Q335.407,95.07,334,95.07h-0.844q-1.406,0-1.172.8,0.234,0.891-1.031.891a1.079,1.079,0,0,1-1.265-1.172V93.945a1.036,1.036,0,0,1,1.171-1.172h5.672q1.125,0,1.125,1.5,0.516,2.157-1.406,2.484h0Zm-11.109,7.453v2.156a1.242,1.242,0,0,0,1.406,1.406h10.687q1.313,0,.094,1.219-1.5,2.064-2.625,1.5H323.641a1.243,1.243,0,0,0-1.407,1.406v1.594a1.243,1.243,0,0,0,1.407,1.406h15.937a1.036,1.036,0,0,1,1.172,1.172v5.485a1.243,1.243,0,0,0,1.406,1.406h4.453a1.243,1.243,0,0,0,1.407-1.406V116.07a1.036,1.036,0,0,1,1.172-1.172h14.531q3.984-.655,1.969-3.7-1.219-1.639-2.25-3.281a2.648,2.648,0,0,0-2.3-1.406h-5.157q-1.405,0-.422,1.312,1.689,2.25-.89,2.672h-7.828q-1.219,0,0-1.172,3.14-3.093,6.234-6,1.407-1.311,0-1.312h-6.984a3.2,3.2,0,0,0-2.3.844,2.857,2.857,0,0,1-2.016.843h-7.734q-1.266,0,.375-1.265,1.405-.986,0-0.985h-5.391a2.986,2.986,0,0,0-2.484.61,2.344,2.344,0,0,0-1.406,2.156h0Zm-2.063,14.719q-1.219,0-.89,1.547a4.107,4.107,0,0,0,.234,1.078,1.628,1.628,0,0,0,1.734,1.406h5.813a4.384,4.384,0,0,0,3.469-2.2,11.569,11.569,0,0,1,1.406-2.344q0.89-1.406-.516-1.406h-4.547a2.5,2.5,0,0,0-2.109.984,5.453,5.453,0,0,1-4.594.938h0Zm36.375,4.031h5.953a1.243,1.243,0,0,0,1.406-1.406v-1.219a1.242,1.242,0,0,0-1.406-1.406h-1.781a2.589,2.589,0,0,1-2.766-1.172,2.452,2.452,0,0,0-2.015-.75h-5.25q-1.36,0-.094,1.781,2.2,3.938,5.953,4.172h0Z"/>
</svg>
