<svg xmlns="http://www.w3.org/2000/svg" width="400" height="200" viewBox="0 0 400 200">
  <defs>
    <style>
      .cls-1 {
        fill: #fdfdfd;
        fill-rule: evenodd;
      }
    </style>
  </defs>
  <path id="源流明体" class="cls-1" d="M90.932,77.33a13.3,13.3,0,0,1,2.49,4.072q1.64,1,2.7,0,1.23-1.171.234-3.223-1.7-3.691-8.672-5.039l-0.586.527A22.372,22.372,0,0,1,90.932,77.33ZM86.273,90.4a9.715,9.715,0,0,1,2.168,3.721,2.087,2.087,0,0,0,2.754-.059q1.23-1.171.234-3.164-1.641-3.457-8.2-4.453l-0.586.586A21.724,21.724,0,0,1,86.273,90.4ZM83.285,111.4a5.462,5.462,0,0,1,2.754.879q2.05,1.407.879,11.719,0.176,3.1,1.641,3.105,2.753,0,3.047-4.1a23.478,23.478,0,0,0-.645-6.123,26.835,26.835,0,0,1-.762-4.307,20.751,20.751,0,0,1,.879-5.039q0.352-1.112,1.787-5.273t3.281-9.58q1.846-5.419,2.842-8.291l-1.113-.352q-9.727,22.735-10.664,24.844a2.948,2.948,0,0,1-.469.908,1.2,1.2,0,0,1-.381.322,1.713,1.713,0,0,1-.557.059H83.285v1.23Zm18.106,12.539a32.835,32.835,0,0,0,6.357-5.156,41.631,41.631,0,0,0,5.01-6.152l1.054-.176a0.7,0.7,0,0,0,.645-0.41q0.117-.585-2.168-1.406l-3.105-1.875a25.519,25.519,0,0,1-3.252,7.7,32.7,32.7,0,0,1-5.244,6.767Zm27.363-21.093H110.883v-6.8h17.871v6.8ZM110.883,94.41v-6.8h17.871v6.8H110.883Zm7.383-8.555q1.815-3.222,2.461-4.746l1-.41a0.453,0.453,0,0,1,.175-0.059q1.641-.82-4.16-1.934H134.5a1.343,1.343,0,0,0,1.524-.937q0-.644-2.11-2.49t-2.695-1.846a0.522,0.522,0,0,0-.264.088,1.4,1.4,0,0,0-.322.293c-0.117.137-.225,0.274-0.322,0.41s-0.226.313-.381,0.527-0.274.381-.352,0.5L128.4,77.008h-24.14l-4.805-2.4a59.353,59.353,0,0,1,.527,8.613V91.6a113.879,113.879,0,0,1-1.465,19.218,43.962,43.962,0,0,1-5.742,15.528l0.82,0.644a32.4,32.4,0,0,0,5.42-8.086,37.887,37.887,0,0,0,3.046-9.55,88.868,88.868,0,0,0,1.2-8.907q0.292-3.867.293-8.906V78.707H117.27a58.785,58.785,0,0,1-1.055,7.149h-5.039l-4.629-2.109a78.187,78.187,0,0,1,.762,12.188v3.984q-0.118,3.986-.352,6.68a1.452,1.452,0,0,0,.264.849,0.746,0.746,0,0,0,.615.381,5.035,5.035,0,0,0,2.051-.439,1.4,1.4,0,0,0,1-.791v-1.934H117.8v17.227a1.017,1.017,0,0,1-1.231,1.054q-1.055,0-6.445-.41v0.938a9.454,9.454,0,0,1,4.57,1.406,3.7,3.7,0,0,1,1.172,2.754q3.516-.353,4.6-1.7a6.259,6.259,0,0,0,1.084-3.985V104.664h7.207v2.52h0.527a4.844,4.844,0,0,0,1.963-.528,3.607,3.607,0,0,0,1.494-1.054q-0.234-3.984-.41-11.368V88.316a4.152,4.152,0,0,0,2.4-1.172q0-.644-1.845-2.285t-2.432-1.641a0.624,0.624,0,0,0-.41.146,3.367,3.367,0,0,0-.5.615,5.212,5.212,0,0,1-.44.586l-0.937,1.289h-9.9Zm11.4,30.585a17.941,17.941,0,0,1,2.783,5.977q1.7,1.23,2.813.059,1.347-1.407.176-4.219-1.994-4.746-9.727-8.028l-0.762.411A38.405,38.405,0,0,1,129.662,116.441Zm46.963-36.152V76.363l1-.644a0.956,0.956,0,0,0,.527-0.586q0-.82-5.683-2.52a49.15,49.15,0,0,1,.469,7.676h-7.793q-4.689-.117-7.969-0.469l1.582,3.047a48.756,48.756,0,0,1,8.027-.82h4.395Q169.3,87.5,167.191,92.418q-7.381.235-8.789,0.234l1.934,5.215a2.266,2.266,0,0,0,1.523-1.23q16.23-2.343,24.61-3.809a23.037,23.037,0,0,1,3.4,5.332q1.758,1.055,2.637-.117,1.172-1.464-.352-4.219-2.754-5.1-11.894-8.613l-0.586.469a52.818,52.818,0,0,1,5.683,5.742q-11.719.7-15.82,0.879,3.867-5.449,6.8-10.254H194.32a1.394,1.394,0,0,0,1.524-1q0-.644-2.08-2.52T191.1,76.656q-0.353,0-1.7,1.817l-1.171,1.816h-11.6Zm-25.518-2.7a12.185,12.185,0,0,1,2.549,4.219q1.758,1,2.813-.234,1.172-1.347.058-3.457-1.992-3.691-8.906-4.746l-0.586.586A18.77,18.77,0,0,1,151.107,77.594ZM146.42,90.338a9.981,9.981,0,0,1,2.373,3.9q1.7,0.938,2.695-.176,1.231-1.288.117-3.34-1.816-3.457-8.613-4.336l-0.469.644A19.016,19.016,0,0,1,146.42,90.338Zm-2.666,21.709a5.3,5.3,0,0,1,2.812.879q0.938,0.586,1.143,3.838a42.134,42.134,0,0,1-.381,7.822q0.292,2.988,1.817,2.988,2.928,0,3.222-4.16a22.6,22.6,0,0,0-.644-6.035,25.378,25.378,0,0,1-.762-4.219,22.974,22.974,0,0,1,.762-5.039q0.408-1.464,3.515-10.488t4.16-12.3l-1-.293q-8.731,20.215-10.664,24.492a4.176,4.176,0,0,1-.5.821,1.066,1.066,0,0,1-.351.293,1.753,1.753,0,0,1-.557.058h-2.578v1.348Zm19.512-5.039q0,13.829-9.668,19.98l0.644,0.821a23.767,23.767,0,0,0,6.416-4.219,16.35,16.35,0,0,0,3.867-5.361,26.423,26.423,0,0,0,1.758-5.479,33.138,33.138,0,0,0,.557-5.625v-4.687l0.879-.528a0.794,0.794,0,0,0,.469-0.527q0-.82-5.215-2.52a31.554,31.554,0,0,1,.293,4.219v3.926Zm9.433,16.7a1.286,1.286,0,0,0,.322.85,1.063,1.063,0,0,0,.85.381,4.127,4.127,0,0,0,1.934-.528,3.356,3.356,0,0,0,1.347-1.113q-0.351-6.738-.468-14.063V102.5l1-.586a0.792,0.792,0,0,0,.468-0.527q0.059-.879-5.8-2.578a78.99,78.99,0,0,1,.82,12.3v5.215q-0.119,3.692-.469,7.383h0Zm11.748,1.992a4.18,4.18,0,0,0,2.959.762h2.813a15.791,15.791,0,0,0,5.068-.557,1.888,1.888,0,0,0,1.436-1.787,1.851,1.851,0,0,0-1.289-1.7l-0.118-9.082h-0.761q-1.349,7.969-1.582,8.789a1.054,1.054,0,0,1-.762.762h-3.75a1.36,1.36,0,0,1-.908-0.2,1.021,1.021,0,0,1-.2-0.733v-19.8l0.879-.586a0.789,0.789,0,0,0,.351-0.469q0-.82-5.683-2.578a78.99,78.99,0,0,1,.82,12.3v12.071A4.083,4.083,0,0,0,184.447,125.7Zm24.346-33.047V79.293h10.84V92.652h-10.84Zm10.84,1.817v13.945h-10.84V94.469h10.84ZM209.5,77.477l-5.1-2.168a80.431,80.431,0,0,1,.762,12.3v12.949q-0.119,7.853-.644,15.586a1.449,1.449,0,0,0,1.23,1.231,3.821,3.821,0,0,0,2.168-.586,2.8,2.8,0,0,0,1.113-1.172q-0.058-.351-0.234-3.516v-1.933h10.84v1.64l-0.235,1.993q0,1.23.762,1.23a4.217,4.217,0,0,0,1.992-.615,5.335,5.335,0,0,0,1.582-1.2q-0.351-6.679-.468-14.121V80.055a4.8,4.8,0,0,0,2.519-1.289q0-.644-1.875-2.344t-2.461-1.7a3.673,3.673,0,0,0-1.465,1.348l-0.937,1.406H209.5Zm39.316,14.531v12.363H233.461a72.865,72.865,0,0,0,.469-8.789V92.008h14.882ZM233.93,90.25V78.238h14.882V90.25H233.93Zm14.882,31a1.6,1.6,0,0,1-.322,1.143,1.811,1.811,0,0,1-1.26.322q-1.405,0-8.554-.527v0.937a15.081,15.081,0,0,1,5.8,1.641A3.759,3.759,0,0,1,246,127.633q3.984-.469,5.215-1.846a6.036,6.036,0,0,0,1.23-4.131V79a4.123,4.123,0,0,0,2.52-1.172q0-.644-2.022-2.256a6.859,6.859,0,0,0-2.607-1.611,0.56,0.56,0,0,0-.41.176,4.29,4.29,0,0,0-.44.557c-0.175.255-.3,0.439-0.381,0.557l-0.82,1.231H234.574l-4.98-2.227a72.144,72.144,0,0,1,.644,10.84V95.641a74.455,74.455,0,0,1-.5,9.14,47.624,47.624,0,0,1-1.758,8.086,26.2,26.2,0,0,1-3.779,7.617,32.01,32.01,0,0,1-6.328,6.5l0.82,0.7a28.362,28.362,0,0,0,10.049-9.375,33.289,33.289,0,0,0,4.483-12.3h15.585v15.234ZM270.2,110.758q-0.118,7.853-.644,15.586a1.111,1.111,0,0,0,.439.849,1.443,1.443,0,0,0,.967.381,4.337,4.337,0,0,0,3.516-1.64q-0.352-6.738-.469-14.063V94l0.82-.352a1.364,1.364,0,0,0,.352-0.234q0.7-.644-2.7-2.93a108.98,108.98,0,0,0,6.563-14.707l1.113-.352a0.752,0.752,0,0,0,.586-0.469q-0.058-.7-6.152-2.754a45.579,45.579,0,0,1-1.172,6.27,48.815,48.815,0,0,1-2.051,6.563,90.964,90.964,0,0,1-9.023,17.988l0.879,0.586a56.289,56.289,0,0,0,6.972-9.257v16.406ZM297.27,87.32V76.949l1.054-.7a0.942,0.942,0,0,0,.469-0.586q0-.879-6.094-2.578a78.856,78.856,0,0,1,.821,12.3V87.32H284.2q-4.687-.117-7.969-0.469L277.7,89.9a59.675,59.675,0,0,1,8.789-.879h4.746a67.063,67.063,0,0,1-6.738,14.415,55.655,55.655,0,0,1-9.726,11.894l0.878,0.82A54.787,54.787,0,0,0,293.52,93.883v19.629h-3.458q-4.218-.117-7.207-0.469l1.583,3.047a26.1,26.1,0,0,1,5.742-.82h3.34v4.16q-0.119,4.218-.352,6.914a1.062,1.062,0,0,0,1.172,1.23,4.065,4.065,0,0,0,1.992-.556,2.621,2.621,0,0,0,1.23-1.143q-0.117-1.349-.292-6.973V115.27h9.668a1.394,1.394,0,0,0,1.582-.879q0-.645-1.846-2.373t-2.373-1.729a0.518,0.518,0,0,0-.264.088,1.421,1.421,0,0,0-.322.293c-0.117.137-.225,0.254-0.322,0.351a3.369,3.369,0,0,0-.352.44c-0.137.2-.244,0.351-0.322,0.469l-1.055,1.582H297.27V89.02h0.117a59.462,59.462,0,0,0,6.738,15.616A39.133,39.133,0,0,0,314.2,115.973a4.567,4.567,0,0,1,2.754-3.575l0.117-.761A42.972,42.972,0,0,1,298.852,89.02h15.586a1.342,1.342,0,0,0,1.523-.937q0-.644-2.109-2.519t-2.7-1.875a0.522,0.522,0,0,0-.263.088,1.422,1.422,0,0,0-.323.293c-0.117.137-.225,0.274-0.322,0.41s-0.225.313-.381,0.527-0.274.381-.351,0.5l-1.172,1.816H297.27Z"/>
</svg>
