<svg xmlns="http://www.w3.org/2000/svg" width="1540" height="1450" viewBox="0 0 1540 1450">
  <defs>
    <style>
      .cls-1 {
        fill: #fff;
      }

      .cls-1, .cls-2, .cls-3 {
        fill-rule: evenodd;
      }

      .cls-2 {
        fill: #fefefe;
      }

      .cls-3 {
        fill: #fdfdfd;
      }
    </style>
  </defs>
  <path id="字体名称" class="cls-1" d="M316.03,138.671q7.691,9.155,10.376,16.968,6.833,4.153,11.231,0,5.127-4.881.976-13.428-7.083-15.381-36.133-21l-2.441,2.2A93.23,93.23,0,0,1,316.03,138.671Zm-19.409,54.443q7.078,8.182,9.033,15.5,6.832,4.155,11.475-.244,5.127-4.881.976-13.184-6.837-14.4-34.179-18.554l-2.442,2.441A90.544,90.544,0,0,1,296.621,193.114ZM284.17,280.639q7.565,0.732,11.475,3.662,8.543,5.859,3.662,48.828,0.732,12.938,6.836,12.939,11.472,0,12.7-17.089a97.806,97.806,0,0,0-2.686-25.513q-3.175-14.037-3.173-17.945-0.247-5.859,3.662-21,1.464-4.635,7.446-21.972t13.672-39.917q7.691-22.579,11.841-34.546l-4.639-1.465q-40.53,94.728-44.434,103.516a12.252,12.252,0,0,1-1.953,3.784,5.059,5.059,0,0,1-1.587,1.343,7.229,7.229,0,0,1-2.319.244h-10.5v5.127Zm75.439,52.246A136.964,136.964,0,0,0,386.1,311.4a173.1,173.1,0,0,0,20.874-25.634l4.394-.733q2.438-.486,2.686-1.709,0.486-2.437-9.033-5.859l-12.94-7.813q-3.175,14.9-13.55,32.105t-21.85,28.2Zm114.014-87.891H399.16v-28.32h74.463v28.32ZM399.16,209.838v-28.32h74.463v28.32H399.16Zm30.762-35.645q7.564-13.424,10.254-19.775l4.15-1.709a1.909,1.909,0,0,1,.733-0.244q6.831-3.417-17.334-8.057h69.824q5.367,0,6.347-3.906,0-2.684-8.789-10.376t-11.23-7.69a2.178,2.178,0,0,0-1.1.366,5.856,5.856,0,0,0-1.342,1.22c-0.489.573-.939,1.141-1.343,1.709s-0.939,1.305-1.587,2.2-1.141,1.587-1.465,2.075l-4.883,7.324H371.572l-20.019-10.01a247.326,247.326,0,0,1,2.2,35.889v34.912q0,44.677-6.1,80.078a183.171,183.171,0,0,1-23.925,64.7l3.418,2.685a135.068,135.068,0,0,0,22.583-33.691,157.933,157.933,0,0,0,12.695-39.8,370.623,370.623,0,0,0,5.005-37.11q1.218-16.113,1.221-37.109V144.408h57.128a244.685,244.685,0,0,1-4.394,29.785h-21L381.094,165.4q3.17,19.29,3.174,50.782v16.6q-0.492,16.6-1.465,27.832a6.069,6.069,0,0,0,1.1,3.54,3.115,3.115,0,0,0,2.564,1.587,20.968,20.968,0,0,0,8.545-1.831q4.147-1.832,4.15-3.3v-8.057h28.809V324.34q0,4.4-5.127,4.394-4.395,0-26.856-1.709v3.907q13.917,1.7,19.043,5.859,4.395,3.662,4.883,11.475,14.649-1.466,19.165-7.08t4.517-16.6V252.562h30.029v10.5h2.2a20.2,20.2,0,0,0,8.179-2.2q4.761-2.2,6.226-4.394-0.98-16.6-1.709-47.364V184.447q7.565-1.706,10.009-4.883,0-2.683-7.69-9.521T480.7,163.207a2.6,2.6,0,0,0-1.709.61,14.089,14.089,0,0,0-2.075,2.564,22.124,22.124,0,0,1-1.831,2.441l-3.906,5.371h-41.26Zm47.485,127.442q9.156,13.676,11.6,24.9,7.078,5.127,11.719.244,5.613-5.859.732-17.578-8.3-19.774-40.527-33.447l-3.174,1.709A159.893,159.893,0,0,1,477.407,301.635ZM673.086,151V134.643l4.15-2.686q2.2-1.466,2.2-2.441,0-3.417-23.682-10.5Q657.7,130.736,657.705,151H625.234q-19.535-.486-33.2-1.953l6.592,12.695a203.233,203.233,0,0,1,33.447-3.418h18.311q-7.817,22.706-16.6,43.213-30.762.978-36.621,0.977l8.057,21.728a9.446,9.446,0,0,0,6.347-5.127q67.625-9.762,102.54-15.869,9.761,11.965,14.16,22.217,7.325,4.4,10.986-.488,4.881-6.1-1.465-17.579-11.478-21.24-49.56-35.888l-2.442,1.953a220.284,220.284,0,0,1,23.682,23.926q-48.832,2.93-65.918,3.662,16.113-22.705,28.32-42.725h74.951q5.127,0,6.348-4.15,0-2.684-8.667-10.5t-11.108-7.813q-1.465,0-7.08,7.569L721.426,151h-48.34ZM566.763,139.77q8.177,9.52,10.62,17.578,7.324,4.153,11.719-.977,4.88-5.613.244-14.4-8.3-15.381-37.11-19.776l-2.441,2.442A78.206,78.206,0,0,1,566.763,139.77Zm-19.532,53.1q7.69,8.423,9.888,16.235,7.078,3.909,11.231-.732,5.127-5.367.488-13.916-7.57-14.4-35.889-18.066L531,179.076A79.2,79.2,0,0,1,547.231,192.87Zm-11.108,90.454q8.056,0.732,11.719,3.662,3.9,2.444,4.761,15.992t-1.587,32.592q1.218,12.451,7.568,12.451,12.206,0,13.428-17.333a94.173,94.173,0,0,0-2.686-25.147q-3.176-13.67-3.174-17.578-0.246-5.859,3.174-21,1.705-6.1,14.649-43.7T601.309,172l-4.151-1.221Q560.777,255,552.725,272.826a17.4,17.4,0,0,1-2.076,3.418,4.4,4.4,0,0,1-1.464,1.221,7.24,7.24,0,0,1-2.32.244H536.123v5.615Zm81.3-21q0,57.621-40.283,83.252L579.824,349a99.014,99.014,0,0,0,26.734-17.578,68.142,68.142,0,0,0,16.113-22.339A110.238,110.238,0,0,0,630,286.254a138.09,138.09,0,0,0,2.319-23.438V243.285l3.663-2.2q1.95-1.219,1.953-2.2,0-3.417-21.729-10.5a131.384,131.384,0,0,1,1.221,17.578v16.357Zm39.307,69.58a5.346,5.346,0,0,0,1.342,3.54,4.409,4.409,0,0,0,3.54,1.587,17.2,17.2,0,0,0,8.057-2.2q4.149-2.2,5.615-4.639-1.464-28.073-1.953-58.594V243.529l4.15-2.441q1.951-1.219,1.954-2.2,0.24-3.663-24.17-10.743,3.416,21.242,3.418,51.27v21.728q-0.492,15.381-1.953,30.762h0Zm48.95,8.3q3.049,3.17,12.329,3.174h11.719q15.134,0,21.118-2.32t5.981-7.446q0-4.641-5.371-7.08L750.967,288.7h-3.174q-5.619,33.205-6.592,36.621-1.224,2.931-3.174,3.174H722.4c-1.953,0-3.215-.282-3.784-0.854a4.264,4.264,0,0,1-.854-3.052v-82.52l3.662-2.441c0.976-.812,1.465-1.465,1.465-1.953q0-3.415-23.682-10.742,3.416,21.24,3.418,51.269V328.49Q702.627,337.034,705.679,340.209Zm101.44-137.695V146.85h45.166v55.664H807.119Zm45.166,7.568v58.106H807.119V210.082h45.166Zm-42.236-70.8-21.24-9.033q3.17,19.776,3.173,51.27v53.955q-0.492,32.718-2.685,64.941a6.042,6.042,0,0,0,5.127,5.127,15.928,15.928,0,0,0,9.033-2.441q3.662-2.437,4.639-4.883-0.246-1.465-.977-14.649v-8.056h45.166v6.836l-0.976,8.3q0,5.127,3.173,5.127a17.574,17.574,0,0,0,8.3-2.563,22.281,22.281,0,0,0,6.592-5q-1.466-27.832-1.953-58.838V150.023q8.056-2.2,10.5-5.371,0-2.683-7.813-9.765t-10.253-7.08q-1.466,0-6.1,5.615l-3.906,5.859h-39.8Zm163.818,60.547v51.514H909.9a303.406,303.406,0,0,0,1.953-36.621V199.828h62.012ZM911.855,192.5V142.455h62.012V192.5H911.855Zm62.012,129.15q0,3.422-1.343,4.761t-5.249,1.343q-5.859,0-35.644-2.2v3.906Q949.21,331.9,955.8,336.3q5.127,3.169,6.347,11.963,16.6-1.958,21.729-7.691T989,323.363V145.629q7.324-1.219,10.5-4.883,0-2.684-8.423-9.4t-10.864-6.714a2.339,2.339,0,0,0-1.709.732,17.772,17.772,0,0,0-1.831,2.32q-1.1,1.59-1.587,2.319l-3.418,5.127H914.541l-20.752-9.277q2.683,16.845,2.686,45.166v43.945a310.7,310.7,0,0,1-2.076,38.086,198.662,198.662,0,0,1-7.324,33.691,109.28,109.28,0,0,1-15.747,31.738,133.451,133.451,0,0,1-26.367,27.1l3.418,2.93q27.832-16.359,41.87-39.063a138.715,138.715,0,0,0,18.677-51.269h64.941v63.476Zm89.113-43.7q-0.495,32.72-2.69,64.942a4.642,4.642,0,0,0,1.83,3.54,6.037,6.037,0,0,0,4.03,1.586,18.079,18.079,0,0,0,14.65-6.835q-1.47-28.072-1.95-58.594V208.129l3.42-1.465a5.818,5.818,0,0,0,1.46-.976q2.925-2.685-11.23-12.208a454.007,454.007,0,0,0,27.34-61.279l4.64-1.465c1.63-.648,2.44-1.3,2.44-1.953q-0.24-2.929-25.63-11.474a189.217,189.217,0,0,1-4.88,26.123,204.38,204.38,0,0,1-8.55,27.343q-16.11,42.482-37.6,74.952l3.67,2.441a234.444,234.444,0,0,0,29.05-38.574v68.359ZM1175.77,180.3V137.084l4.4-2.93q1.95-1.464,1.95-2.441,0-3.663-25.39-10.742,3.42,21.24,3.42,51.269V180.3h-38.82q-19.545-.486-33.21-1.953l6.11,12.695a248.633,248.633,0,0,1,36.62-3.662h19.77a279.173,279.173,0,0,1-28.07,60.059A231.522,231.522,0,0,1,1082.02,297l3.66,3.418q48.825-35.643,74.47-92.773v81.787h-14.41q-17.58-.487-30.03-1.953l6.59,12.695a108.936,108.936,0,0,1,23.93-3.418h13.92v17.334q-0.5,17.578-1.47,28.809,0,5.126,4.88,5.126a16.931,16.931,0,0,0,8.31-2.319q4.14-2.323,5.12-4.761-0.495-5.619-1.22-29.052V296.752h40.28c3.75,0,5.94-1.221,6.6-3.662q0-2.683-7.69-9.888t-9.89-7.2a2.161,2.161,0,0,0-1.1.366,5.86,5.86,0,0,0-1.34,1.221q-0.735.858-1.35,1.465a15.031,15.031,0,0,0-1.46,1.831c-0.57.816-1.02,1.465-1.34,1.953l-4.4,6.592h-18.31V187.377h0.49a247.584,247.584,0,0,0,28.08,65.063q18.54,30.156,41.99,47.242,2.19-10.987,11.47-14.893l0.49-3.174q-24.42-14.156-45.29-39.428a168.883,168.883,0,0,1-30.64-54.81h64.94q5.37,0,6.35-3.906,0-2.684-8.79-10.5t-11.23-7.813a2.19,2.19,0,0,0-1.1.366,6.1,6.1,0,0,0-1.34,1.221c-0.49.572-.94,1.141-1.34,1.709s-0.94,1.305-1.59,2.2-1.14,1.587-1.46,2.076l-4.89,7.568h-46.14Z"/>
  <path id="中文示例" class="cls-2" d="M272.27,723.449V701.184h18.066v22.265H272.27Zm18.066,3.028v23.242H272.27V726.477h18.066Zm-16.9-28.321-8.5-3.613a134.13,134.13,0,0,1,1.27,20.508v21.582q-0.2,13.087-1.074,25.976a2.414,2.414,0,0,0,2.05,2.051,6.375,6.375,0,0,0,3.614-.976,4.668,4.668,0,0,0,1.855-1.954q-0.1-.585-0.39-5.859v-3.223h18.066v2.735l-0.391,3.32q0,2.051,1.27,2.051a7.035,7.035,0,0,0,3.32-1.025,8.93,8.93,0,0,0,2.637-2q-0.587-11.133-.781-23.536V702.453q3.222-.879,4.2-2.148,0-1.074-3.125-3.907t-4.1-2.832q-0.585,0-2.441,2.246l-1.563,2.344H273.441Zm65.528,24.219V742.98H313.383a121.443,121.443,0,0,0,.781-14.648v-5.957h24.805Zm-24.805-2.93V699.426h24.805v20.019H314.164Zm24.805,51.66a2.666,2.666,0,0,1-.537,1.9,3.022,3.022,0,0,1-2.1.537q-2.343,0-14.258-.879v1.562q7.032,0.975,9.668,2.735,2.05,1.267,2.539,4.785,6.641-.783,8.692-3.076t2.05-6.885V700.7a6.869,6.869,0,0,0,4.2-1.953q0-1.072-3.369-3.76t-4.346-2.685a0.939,0.939,0,0,0-.684.293,7.092,7.092,0,0,0-.732.928c-0.293.424-.5,0.732-0.635,0.927L338.09,696.5H315.238l-8.3-3.711a120.229,120.229,0,0,1,1.074,18.067V728.43a124.368,124.368,0,0,1-.83,15.234,79.552,79.552,0,0,1-2.93,13.477,43.714,43.714,0,0,1-6.3,12.7,53.386,53.386,0,0,1-10.547,10.84l1.367,1.172q11.133-6.544,16.748-15.625a55.479,55.479,0,0,0,7.471-20.508h25.977v25.39Zm87.6-47.851v20.117H388.188a139.255,139.255,0,0,0,.683-14.355v-5.762h37.695Zm-37.695-3.027V700.793h37.695v19.434H388.871Zm37.695,50.683a2.847,2.847,0,0,1-.488,1.9,2.815,2.815,0,0,1-2.051.538q-2.442,0-13.965-.879v1.562q6.74,0.975,9.473,2.735,1.854,1.365,2.539,4.882,6.738-.684,8.789-3.027t2.051-6.934V702.16a6.153,6.153,0,0,0,4.1-2.051q0-1.073-3.418-3.759t-4.4-2.686a1.21,1.21,0,0,0-.439.1,1.079,1.079,0,0,0-.44.342,5.626,5.626,0,0,1-.39.439,3.345,3.345,0,0,0-.44.586,3.434,3.434,0,0,1-.439.586l-1.367,2.148H390.141l-8.594-3.711a114.407,114.407,0,0,1,1.074,17.676v17.285q0,17.383-4,29.688T363.188,780.48l1.269,1.27q10.741-6.543,16.113-15.479a55.337,55.337,0,0,0,7.129-20.166h38.867v24.8Zm82.911-1.074V731.262h22.949v1.758a3.627,3.627,0,0,0-.147.781,2.2,2.2,0,0,1-.146.683q0,1.954,1.562,1.954a7.66,7.66,0,0,0,3.369-.831,5.71,5.71,0,0,0,2.3-1.709q-0.392-7.226-.683-20.214V705.09l1.66-.977a1.314,1.314,0,0,0,.781-0.976q0-1.366-9.961-4.2a134.125,134.125,0,0,1,1.27,20.507v8.789H509.477V696.5l1.562-1.074a1.235,1.235,0,0,0,.781-1.074q-0.1-1.366-10.156-4.2a134.277,134.277,0,0,1,1.27,20.508v17.578H480.57V705.09l1.66-.977a1.2,1.2,0,0,0,.782-0.976q0-1.366-9.766-4.2a130.287,130.287,0,0,1,1.172,19.238v6.25q-0.2,6.349-.586,10.547a2.066,2.066,0,0,0,.488,1.367,1.684,1.684,0,0,0,1.368.586,7.825,7.825,0,0,0,3.271-.733q1.611-.732,1.611-1.318v-3.613h22.364v38.574H475.98V745.617l1.661-1.074a1.321,1.321,0,0,0,.781-0.879q0.1-1.464-9.863-4.3a134.3,134.3,0,0,1,1.269,20.508V767.1q-0.2,7.91-.683,12.5a2.262,2.262,0,0,0,.488,1.416,1.628,1.628,0,0,0,1.367.634,7.566,7.566,0,0,0,3.418-.83,3.033,3.033,0,0,0,1.855-1.806,3.42,3.42,0,0,1-.1-0.83q0-.44-0.049-1.319t-0.147-1.758v-2.246h61.133V775.5c-0.065.391-.114,0.813-0.146,1.27s-0.066.83-.1,1.123a6.566,6.566,0,0,1-.146.83q0,2.051,1.66,2.05a7.519,7.519,0,0,0,3.467-.878,5.586,5.586,0,0,0,2.295-1.856q-0.586-10.741-.782-22.656v-9.766l1.66-1.074a1.313,1.313,0,0,0,.782-0.977q0-1.367-9.961-4.2a134.3,134.3,0,0,1,1.269,20.508v9.961H509.477Zm97.558-40.918q0.879-8.1,1.27-25.977h38.867q2.146,0,2.539-1.562,0-1.074-3.906-4.395t-4.883-3.32q-0.587,0-2.93,3.125l-2.344,3.125H576.371q-7.813-.195-13.281-0.781l2.539,5.176a102.593,102.593,0,0,1,15.039-1.368h20.7q-0.2,17.871-.976,25.977h-20.8q-7.911-.2-13.379-0.781l2.734,5.078a102.6,102.6,0,0,1,15.039-1.367h15.918q-2.247,16.017-10.547,27.49T562.309,779.6l1.269,1.855a97.606,97.606,0,0,0,19.092-9.619,52.107,52.107,0,0,0,12.793-11.719,52.857,52.857,0,0,0,7.373-13.086,73.454,73.454,0,0,0,3.809-15.185h1.269a87.727,87.727,0,0,0,3.418,13.574,74.408,74.408,0,0,0,6.152,13.135,52.17,52.17,0,0,0,10.84,12.89,70.588,70.588,0,0,0,16.211,10.5q0.975-4.492,6.445-5.175l0.2-1.172q-34.962-13.965-41.309-43.75h34.082q2.147,0,2.539-1.563,0-1.072-3.808-4.346t-4.785-3.271q-0.586,0-2.93,3.125l-2.246,3.125H607.035Zm102.442,37.4V698.449l1.562-1.074a1.2,1.2,0,0,0,.781-0.977q-0.1-1.464-10.156-4.394a134.259,134.259,0,0,1,1.27,20.508V766.32H676.078V720.031l1.66-1.074a1.206,1.206,0,0,0,.782-0.977q-0.1-1.365-10.157-4.2a133.341,133.341,0,0,1,1.27,20.41V753.43q-0.2,13.087-1.074,25.976a1.855,1.855,0,0,0,.732,1.416,2.406,2.406,0,0,0,1.611.635,7.2,7.2,0,0,0,3.516-.977,3.852,3.852,0,0,0,2.051-2.05q-0.1-.587-0.391-5.86v-3.222h60.645v3.515q-0.391,4.59-.391,4.883,0,1.953,1.758,1.953a7.993,7.993,0,0,0,3.613-.879,5.558,5.558,0,0,0,2.344-1.855q-0.587-11.133-.781-23.535V719.738l1.66-1.074a1.562,1.562,0,0,0,.879-1.074q0-1.465-10.352-4.3a134.259,134.259,0,0,1,1.27,20.508V766.32H709.477Zm142.871-64.55v-6.641l1.66-1.074a1.314,1.314,0,0,0,.781-0.977q0-1.366-9.57-4.1A81.923,81.923,0,0,1,846,701.77H818.266v-6.641l1.66-1.074a1.314,1.314,0,0,0,.781-0.977q0.1-1.268-9.473-4.1a81.778,81.778,0,0,1,.782,12.793H800.98a129.851,129.851,0,0,1-13.281-.879l2.539,5.175A94.247,94.247,0,0,1,804.4,704.6h7.618v3.808q-0.294,4.4-.489,5.469,0,1.954,1.465,1.953a10.417,10.417,0,0,0,3.662-.635,2.925,2.925,0,0,0,2-1.611q-0.1-.389-0.39-5.762V704.6H846v3.71q-0.293,4.3-.488,5.274,0,1.955,1.758,1.953a9.175,9.175,0,0,0,3.71-.83A3.1,3.1,0,0,0,852.738,713q-0.1-.586-0.39-5.371V704.6h21.679q2.245,0,2.539-1.563,0-1.074-3.515-4.248t-4.492-3.174q-0.586,0-2.832,3.125l-2.051,3.028H852.348Zm-36.036,34.57-6.738-2.93q15.136-8.788,24.219-19.531,11.815,18.262,38.965,25a7.058,7.058,0,0,1,1.855-3.858,6.441,6.441,0,0,1,3.418-1.9l0.1-1.074a96.172,96.172,0,0,1-24.9-7.129q-11.72-5.175-18.067-12.695,2.733,0.585,3.613-.781l-9.472-5.86q-3.128,7.521-11.035,15.137a108.2,108.2,0,0,1-30.86,20.508l0.586,1.562A103.591,103.591,0,0,0,808.6,733.8l-0.1.1v36.914q0,4.689,2.686,6.2t10.888,1.513h18.067q9.471,0,14.843-.2a70.517,70.517,0,0,0,8.594-.732,9.622,9.622,0,0,0,4.2-1.368,2.852,2.852,0,0,0,.977-2.294q0-2.052-3.613-2.93l-0.2-13.867h-1.172q-2.051,9.96-3.711,13.281a2.923,2.923,0,0,1-2.832,1.66q-3.222.391-16.8,0.391H822.27q-4.687,0-6.006-.586a2.224,2.224,0,0,1-1.319-2.246V739.367h33.008q-0.292,15.333-2.246,17.188a3.284,3.284,0,0,1-2.539.781q-0.783,0-2.588-.147t-4.2-.293q-2.394-.145-3.467-0.244v1.563q5.076,0.684,7.031,2.148,1.561,1.173,1.563,4.1,5.37,0.2,8.3-2.442,3.808-3.123,4.2-21.972,2.733-.294,3.515-1.367,0-1.074-2.88-3.809t-3.76-2.734a1.041,1.041,0,0,0-.684.244,6.774,6.774,0,0,0-.83.927c-0.358.457-.6,0.75-0.732,0.879l-1.465,2.149h-30.86Zm78.809,0.195a17.114,17.114,0,0,1,4,6.25q2.637,1.465,4.2-.195,2.051-2.051.293-5.274-2.929-5.76-13.867-6.933l-0.977.976A28.873,28.873,0,0,1,895.121,736.535ZM900.4,721.35a21.275,21.275,0,0,1,4.3,6.3q2.637,1.465,4.3-.293,1.854-2.05.1-5.371-3.126-5.76-14.258-6.933l-0.879.976A28.9,28.9,0,0,1,900.4,721.35Zm-9.18,39.306a10.309,10.309,0,0,1,4.492,1.172q3.319,1.857,1.66,15.723,0.293,4.2,2.93,4.2,4.98,0,5.273-5.957a25.952,25.952,0,0,0-1.123-7.91,25.457,25.457,0,0,1-1.22-5.664,20.09,20.09,0,0,1,1.953-7.324q0.879-2.052,7.617-14.942t8.789-17.09l-1.563-.683q-19.727,31.837-21.679,34.472a6.024,6.024,0,0,1-.879,1.27,1.368,1.368,0,0,1-.733.439,7.632,7.632,0,0,1-1.025.049h-4.492v2.246Zm78.613,12.207a25.211,25.211,0,0,1-4.883.782q-1.856.2-12.5,0.2H939.164q-3.613,0-4.639-.586a2.359,2.359,0,0,1-1.025-2.246V731.945h40.625q2.147,0,2.539-1.562,0-1.074-3.467-4.1t-4.443-3.027a0.878,0.878,0,0,0-.44.146,2.362,2.362,0,0,0-.537.489c-0.2.229-.375,0.456-0.537,0.683s-0.358.5-.586,0.83a5.983,5.983,0,0,1-.634.782l-1.954,2.832h-12.4v-8.594l1.465-.977a1.565,1.565,0,0,0,.781-0.976q0-1.269-7.812-3.418,2.246-.782,2.246-1.465V704.9h25.195q2.147,0,2.441-1.563,0-1.074-3.466-4.248t-4.444-3.174q-0.585,0-2.832,3.028l-2.148,3.027H948.344V695.52l1.66-1.075a1.6,1.6,0,0,0,.879-0.976q0-1.367-9.473-4.1a80.3,80.3,0,0,1,.781,12.6H921.586V695.52l1.758-1.075a1.6,1.6,0,0,0,.879-0.976q0-1.367-9.473-4.1a80.3,80.3,0,0,1,.781,12.6H900.785q-7.813-.2-13.281-0.781l2.539,5.175a107.394,107.394,0,0,1,14.941-1.464h10.547v3.613q-0.292,4.3-.488,5.273,0,1.955,1.465,1.953a9.509,9.509,0,0,0,3.564-.683,3.052,3.052,0,0,0,2-1.66q-0.292-1.953-.488-5.469V704.9h20.605v10.644h1.075a7.463,7.463,0,0,0,2.148-.293v13.77H933.207q-7.813-.2-13.281-0.782l2.636,5.078a4.567,4.567,0,0,1,2.735-1.367h2.051v40.43q0,4.3,2.148,5.762t8.789,1.465h13.77q7.325,0,11.621-.147a45.1,45.1,0,0,0,6.787-.635,7.586,7.586,0,0,0,3.32-1.22,2.537,2.537,0,0,0,.83-2,1.91,1.91,0,0,0-.83-1.66,8.919,8.919,0,0,0-2.881-1.075h-1.074Zm41.892-72.754q-7.815-.193-13.279-0.781l2.439,5.176a102.613,102.613,0,0,1,15.04-1.367h47.46q2.25,0,2.64-1.563,0-1.072-3.91-4.394t-4.88-3.321a0.868,0.868,0,0,0-.44.147,2.378,2.378,0,0,0-.44.342,4.162,4.162,0,0,0-.44.537,7.64,7.64,0,0,1-.49.635c-0.16.2-.35,0.456-0.58,0.781s-0.41.586-.54,0.781l-2.15,3.027h-40.43Zm20.12,30.664h41.89c1.44,0,2.25-.552,2.45-1.66,0-.715-1.31-2.212-3.91-4.492s-4.23-3.418-4.88-3.418a1.107,1.107,0,0,0-.78.391,12.481,12.481,0,0,0-1.18,1.465c-0.52.717-.88,1.205-1.07,1.464l-2.34,3.321h-60.75q-7.9-.195-13.375-0.782l2.636,5.079a102.581,102.581,0,0,1,15.039-1.368h17.29a275.161,275.161,0,0,1-14.16,38.086q-9.18.49-17.68,0.684l4.1,9.277a3.257,3.257,0,0,0,2.539-2.05q38.865-4.687,62.99-9.278a44.146,44.146,0,0,1,5.08,12.6,6.112,6.112,0,0,0,1.17.781q3.225,1.659,4.69-1.465,1.95-4.393-1.96-12.011-6.735-13.281-26.27-24.122l-1.27.879a108.058,108.058,0,0,1,17.39,21.192q-31.455,2.539-47.46,3.32,10.05-15.037,19.82-37.891h0Zm98.73-26.269q2.925-6.346,3.91-9.18l1.75-.683a1.169,1.169,0,0,0,.88-0.782q0-1.172-9.76-4.394a47.08,47.08,0,0,1-2,10.351,75.421,75.421,0,0,1-3.96,10.84,72.047,72.047,0,0,1-9.18,14.551l1.17,1.27a60.388,60.388,0,0,0,15.53-19.043h45.12c1.43,0,2.24-.521,2.44-1.563q0-1.074-3.42-4.15t-4.39-3.076a0.865,0.865,0,0,0-.44.146,2.321,2.321,0,0,0-.54.488,8.4,8.4,0,0,0-.54.684q-0.24.344-.63,0.879c-0.26.358-.46,0.635-0.59,0.83l-1.95,2.832h-33.4Zm-28.76-6.445a19.978,19.978,0,0,1,4.05,6.738c1.83,1.108,3.32,1.074,4.5-.1,1.3-1.367,1.39-3.189.29-5.469q-2.925-6.053-14.45-8.3l-0.88.879A43.631,43.631,0,0,1,1101.81,698.059Zm-7.57,22.656a16.5,16.5,0,0,1,3.62,6.347q2.73,1.662,4.49-.1,2.145-1.953.49-5.371-2.835-5.663-13.77-7.324l-0.88.878A32.229,32.229,0,0,1,1094.24,720.715Zm-4.59,34.863a8.855,8.855,0,0,1,4.69,1.465c1.04,0.652,1.68,2.817,1.9,6.494a71.911,71.911,0,0,1-.63,13.233q0.285,4.98,2.93,4.98,4.98,0,5.17-6.934a39.815,39.815,0,0,0-1.07-10.351,46.978,46.978,0,0,1-1.27-7.031,38,38,0,0,1,1.37-8.594q0.585-2.051,2.88-9.18t5.42-16.6q3.12-9.471,4.59-14.161l-1.76-.488q-12.885,31.446-17.67,42.969a7.55,7.55,0,0,1-.83,1.367,1.788,1.788,0,0,1-.59.488,2.859,2.859,0,0,1-.93.1h-4.2v2.246Zm54.2-19.238c1.43,1.172,2.74,1.3,3.91.39,1.36-1.04,1.69-2.668.97-4.882q-1.845-5.762-11.32-9.18l-1.08.684q6.54,7.03,7.52,12.988h0Zm-4.2,15.185a20.74,20.74,0,0,1,3.71,6.69q2.25,1.464,3.91.1c1.37-1.106,1.59-2.8.68-5.078q-2.535-5.955-13.08-8.691l-1.17.684A41.239,41.239,0,0,1,1139.65,751.525Zm17.87,9.717h-33.79c0.26-1.562.74-4.524,1.42-8.887s1.19-7.714,1.51-10.058h32.91q-0.675,10.158-2.05,18.945h0Zm-29-31.543q0.885-6.247,1.27-8.691h30.57q-0.1,3.418-.59,18.457h-32.62C1127.48,737.121,1127.93,733.866,1128.52,729.7Zm37.11,9.766q0.285-5.955.68-17.774,2.94-.293,3.81-1.562,0-1.074-2.93-3.613t-3.9-2.539a1.047,1.047,0,0,0-.69.244,7.361,7.361,0,0,0-.83.927c-0.36.457-.6,0.75-0.73,0.879l-1.47,2.149h-27.93l-8.1-4.1a109.5,109.5,0,0,1-1.47,19.727c-0.06.456-.21,1.335-0.44,2.637s-0.4,2.311-.53,3.027h-4.2a75.882,75.882,0,0,1-8.79-.781l2.54,5.078a17.869,17.869,0,0,1,6.15-1.465h3.81q-1.755,11.23-5.27,29.883c2.86,0.651,4.98.522,6.34-.391q0.885-4.1,1.47-7.519h33.98q-1.26,6.151-2.93,7.91a5.012,5.012,0,0,1-3.71,1.367q-1.755,0-12.5-1.074l-0.1,1.757q6.84,1.173,8.6,2.735,1.755,1.171,1.76,4.59,6.63,0,10.45-4.2,2.73-3.613,4.29-13.085h12.31a2.258,2.258,0,0,0,2.44-1.661q0-1.073-3.27-4.3-3.285-3.222-4.15-3.222-0.585,0-2.64,3.125l-1.76,3.027h-2.44q1.275-8.3,1.95-18.945h10.94c1.37,0,2.18-.52,2.44-1.563q0-1.073-3.17-4.052t-4.05-2.979a0.839,0.839,0,0,0-.44.147,2.119,2.119,0,0,0-.54.488,6.063,6.063,0,0,0-.49.635c-0.13.2-.31,0.473-0.54,0.83s-0.4.635-.53,0.83l-1.86,2.832h-1.56Zm28.61,40.234a1.942,1.942,0,0,0,.64,1.416,2.048,2.048,0,0,0,1.51.635,7.24,7.24,0,0,0,3.52-.977,5.445,5.445,0,0,0,2.34-2.148q-0.585-11.133-.78-23.535v-46l1.66-1.172a1.566,1.566,0,0,0,.78-0.977q0-1.464-9.96-4.3a134.924,134.924,0,0,1,1.27,20.508v32.422q-0.2,11.037-.98,24.121h0Zm12.7-80.81a36.187,36.187,0,0,1,4.59,8.935c1.88,1.238,3.42,1.27,4.59.1q2.34-2.147.49-6.445-3.135-7.324-15.24-12.012l-1.27.879A61.438,61.438,0,0,1,1206.94,698.889Zm37.2,40.088v17.187h-24.12V738.977h24.12Zm-24.12-3.028v-15.82h24.12v15.82h-24.12Zm0.88-18.75-8.1-3.613a130.982,130.982,0,0,1,1.36,20.41v11.621q-0.2,9.572-.97,21.094a2.1,2.1,0,0,0,.58,1.367,1.606,1.606,0,0,0,1.18.684,6.622,6.622,0,0,0,3.61-.928,4.624,4.624,0,0,0,1.85-1.807q-0.09-.389-0.39-4.492V759h24.12v2.734l-0.39,3.321c0,1.3.43,1.953,1.27,1.953a7.24,7.24,0,0,0,3.32-.977,7.026,7.026,0,0,0,2.54-1.953q-0.585-11.133-.78-23.535V720.91a5.943,5.943,0,0,0,3.52-1.66c0-.716-0.95-1.953-2.83-3.711s-3.13-2.637-3.72-2.637a1.26,1.26,0,0,0-.44.1,1.274,1.274,0,0,0-.48.391c-0.17.2-.31,0.358-0.44,0.488a4.078,4.078,0,0,0-.49.635,4.651,4.651,0,0,1-.49.634l-1.46,2.051H1220.9Zm42.39,53.516a2.163,2.163,0,0,1-2.45,2.441q-2.235,0-13.38-.976v1.66c4.37,0.586,7.39,1.529,9.09,2.832q1.95,1.074,2.44,4.59,6.54-.686,8.54-2.979t2.01-6.787v-68.75a7.325,7.325,0,0,0,4.1-2.148c0-.716-1.13-1.937-3.37-3.662s-3.7-2.588-4.35-2.588a1.212,1.212,0,0,0-.44.1,1.114,1.114,0,0,0-.44.342,5.263,5.263,0,0,1-.39.44,3.331,3.331,0,0,0-.44.585,3.2,3.2,0,0,1-.44.586l-1.46,2.149h-28.32q-7.815-.195-13.28-0.781l2.73,5.078a103.649,103.649,0,0,1,14.94-1.367h24.91v69.238ZM288.773,851.164v-5.078a202.944,202.944,0,0,0,24.756-12.012A139.345,139.345,0,0,0,333.4,820.793l1.856,0.293h0.683q1.661-.488-7.129-8.008a58.027,58.027,0,0,1-13.085,13.184,222.8,222.8,0,0,1-26.954,17.48V816.691l1.954-.878a1.437,1.437,0,0,0,.976-0.879q0-1.366-10.644-4.59a134.277,134.277,0,0,1,1.269,20.508v20.312h-6.152q-7.716-.195-13.184-0.781l2.539,5.078A57.588,57.588,0,0,1,276.371,854h5.957v34.57a3.652,3.652,0,0,1-.683,2.442,14.614,14.614,0,0,1-3.223,2.246l5.273,8.789a6.518,6.518,0,0,0,1.758-2.051q13.379-6.738,28.418-15.234l-0.488-1.563q-14.161,5.079-24.61,8.106V854H303.52q9.668,32.13,40.82,45.117,1.659-4.98,6.152-5.468l0.2-1.075A77.026,77.026,0,0,1,323.1,878.02,57.916,57.916,0,0,1,305.766,854h41.406a2.1,2.1,0,0,0,2.344-1.562q0-1.074-3.711-4.346t-4.688-3.272a0.865,0.865,0,0,0-.439.147,2.072,2.072,0,0,0-.537.537c-0.2.261-.376,0.5-0.537,0.732s-0.376.538-.635,0.928l-0.586.879-2.149,3.125H288.773ZM416.41,882.512a4.485,4.485,0,0,0,2.93,1.172q2.538-.294,2.148-4.883-0.783-9.278-11.816-23.535a141.43,141.43,0,0,0,10.058-22.852l1.954-.586a1.1,1.1,0,0,0,.976-0.683q0-1.269-9.277-4.688a71.768,71.768,0,0,1-5.86,19.824q-0.293.686-.927,2.1t-0.928,2.1a182.765,182.765,0,0,0-17.676-17.773l-1.66.879a247.264,247.264,0,0,1,16.6,22.461q-10.745,20.508-23.243,32.519l1.368,1.172q14.256-10.935,25.1-28.515,8.007,13.088,10.254,21.289h0Zm-34.375-66.407-8.691-3.906a126.8,126.8,0,0,1,1.269,20.02V851.75a143.281,143.281,0,0,1-2.441,28.516,46.714,46.714,0,0,1-10.059,20.9l1.367,0.977a39.74,39.74,0,0,0,7.911-8.594,50.3,50.3,0,0,0,5.175-9.522,52.493,52.493,0,0,0,2.881-10.644,93.112,93.112,0,0,0,1.27-10.693q0.243-4.687.244-11.036V819.035h46.777q-0.1,11.817,0,19.824t0.83,18.506a146.222,146.222,0,0,0,2.1,17.481,67.143,67.143,0,0,0,4.053,13.33,24.482,24.482,0,0,0,6.591,9.57q6.445,5.955,9.571,2.832,1.464-1.563-1.563-6.738l1.368-16.016-1.27-.1a112.722,112.722,0,0,1-2.93,11.23q-0.585,1.954-2.05.684-3.615-2.929-6.006-10.791a85.151,85.151,0,0,1-3.223-17.53q-0.831-9.668-1.074-20.605t0.342-20.02q3.222-.585,4.2-1.855,0-1.074-3.321-4.395t-4.2-3.32a1.1,1.1,0,0,0-.732.293,7.344,7.344,0,0,0-.977,1.172,12.114,12.114,0,0,1-.83,1.074l-1.758,2.441H382.035Zm108.2,0.977-8.789-3.906a111.6,111.6,0,0,1,1.074,17.48v16.992q0,17.775-4.248,30.567t-16.162,22.558l1.27,1.172a53.4,53.4,0,0,0,11.377-8.984,46.331,46.331,0,0,0,7.519-10.156,49.691,49.691,0,0,0,4.248-11.475,76.237,76.237,0,0,0,2-11.719q0.44-5.321.44-12.06V820.012h29.785v70.312q0,4.2,1.807,5.86t6.884,1.66h8.008q9.178,0,12.5-.928t3.32-3.271q0-2.148-2.734-3.125l-0.391-15.137h-1.269q-1.954,12.208-3.027,14.551a1.532,1.532,0,0,1-1.563,1.171,60.719,60.719,0,0,1-6.738.2h-6.739a5.142,5.142,0,0,1-3.027-.586,2.888,2.888,0,0,1-.683-2.246V821.477q3.026-.39,4.2-1.758,0-1.074-3.223-4.346t-4.1-3.271a1.1,1.1,0,0,0-.733.293,7.279,7.279,0,0,0-.976,1.171,12.622,12.622,0,0,1-.83,1.075l-1.758,2.441H490.238Zm108.887,29.3a201.694,201.694,0,0,0,1.66-21.875H647.66q2.246,0,2.442-1.465,0-1.074-3.76-4.394t-4.737-3.321a0.867,0.867,0,0,0-.439.147,2.208,2.208,0,0,0-.439.342,4.162,4.162,0,0,0-.44.537c-0.163.229-.326,0.439-0.488,0.634s-0.359.457-.586,0.782-0.408.586-.537,0.781l-2.246,3.223H575.59q-6.837-.195-13.379-0.879l2.734,5.078a107.912,107.912,0,0,1,15.039-1.465h13.575q-0.1,6.543-.293,10.986t-0.928,10.987a92.624,92.624,0,0,1-1.9,11.377,104.324,104.324,0,0,1-3.418,10.986,59.065,59.065,0,0,1-5.371,11.133,83.106,83.106,0,0,1-7.813,10.351,78.56,78.56,0,0,1-10.644,10.059l1.367,1.66a87.07,87.07,0,0,0,14.6-11.768,62.234,62.234,0,0,0,10.059-13.183,77.68,77.68,0,0,0,6.055-13.526,94.568,94.568,0,0,0,3.466-14.355h29.395a247,247,0,0,1-2.832,27.734q-1.955,11.427-4.59,13.77a6.386,6.386,0,0,1-4.2,1.367q-3.808,0-16.5-1.465l-0.1,1.856q9.278,1.368,11.426,3.027,2.147,1.466,2.148,4.883,7.325,0,11.622-4,3.611-3.614,6-16.211a224.476,224.476,0,0,0,3.272-30.176,6.7,6.7,0,0,0,4.1-1.465q0-1.072-3.027-4.052t-3.906-2.979a0.88,0.88,0,0,0-.391.1,2.433,2.433,0,0,0-.39.244,2.69,2.69,0,0,0-.44.439q-0.245.294-.39,0.489l-0.44.586a5.616,5.616,0,0,1-.488.586l-1.758,2.441H599.125Zm104-7.227v16.211H680.863V839.152h22.266Zm-22.266-3.027V819.914h22.266v16.211H680.863Zm28.907,0V819.914h22.558v16.211H709.77Zm22.558,3.027v16.211H709.77V839.152h22.558ZM709.77,874.016V858.2h22.558v1.856l-0.39,1.562q0,2.05,1.367,2.051a8.631,8.631,0,0,0,3.564-.928,7.413,7.413,0,0,0,2.686-1.806q-0.587-11.133-.782-23.535V821.184a6.311,6.311,0,0,0,4-2.051q0-1.074-3.271-3.613t-4.248-2.54q-0.587,0-2.344,1.954l-1.465,2.05h-50.1l-8.2-3.711a134.148,134.148,0,0,1,1.27,20.508v10.352q-0.2,9.766-.781,18.847a2,2,0,0,0,1.953,1.954,7.7,7.7,0,0,0,3.564-.879q1.708-.879,1.709-1.465V858.2h22.266v15.821H683.7q-7.91-.2-13.379-0.782l2.539,5.176a102.738,102.738,0,0,1,15.04-1.367h15.234v18.066H675.1q-7.815-.2-13.282-0.781l2.637,5.078a103.328,103.328,0,0,1,14.941-1.367h68.653q2.245,0,2.637-1.465,0-1.076-3.956-4.394t-4.931-3.321a0.871,0.871,0,0,0-.44.147,2.276,2.276,0,0,0-.439.342,4.247,4.247,0,0,0-.44.537c-0.163.229-.326,0.439-0.488,0.635s-0.358.456-.586,0.781-0.407.586-.537,0.781l-2.246,3.027H709.77V877.043h31.054q2.147,0,2.539-1.563,0-1.072-3.857-4.345t-4.834-3.272a0.871,0.871,0,0,0-.44.147,2.237,2.237,0,0,0-.439.342c-0.131.131-.278,0.293-0.439,0.488s-0.327.39-.489,0.586-0.358.439-.586,0.732-0.407.537-.537,0.733l-2.148,3.125H709.77Zm102.148-46.582V867.18h-14.16V827.434h14.16Zm22.949,3.418a132.43,132.43,0,0,0,4.883-15.821l1.66-.879a1.173,1.173,0,0,0,.879-0.781q0-1.268-10.156-3.808a60.134,60.134,0,0,1-.977,10.791,74.172,74.172,0,0,1-2.636,11.181A82.382,82.382,0,0,1,818.07,853.7v-25q3.125-.682,4.1-1.953,0-1.074-3.223-3.662t-4.2-2.588q-0.586,0-2.246,2.051l-1.465,1.953H798.246l-7.715-3.711A134.13,134.13,0,0,1,791.8,841.3v15.137q-0.2,13.086-1.074,25.976a1.963,1.963,0,0,0,.683,1.367,2.046,2.046,0,0,0,1.465.684,6.78,6.78,0,0,0,3.467-.879,3.515,3.515,0,0,0,1.806-1.953q-0.1-.587-0.39-7.52v-4.1h14.16v2.832l-0.391,3.515q0,1.954,1.27,1.954a8.186,8.186,0,0,0,3.418-.928,5.44,5.44,0,0,0,2.441-1.807q-0.391-4.784-.586-13.574V855.07l0.782,0.586q8.789-8.2,14.648-21.875h8.4q-0.1,9.962-.537,15.772a93.4,93.4,0,0,1-2.392,14.062,43.926,43.926,0,0,1-5.518,13.77,59.448,59.448,0,0,1-10.3,11.572,71.775,71.775,0,0,1-16.5,10.84l1.171,1.855a87.761,87.761,0,0,0,16.016-8.5,59.442,59.442,0,0,0,11.084-9.521,43.5,43.5,0,0,0,6.982-10.889,60.714,60.714,0,0,0,4-11.767,95.863,95.863,0,0,0,1.856-13.038q2.05,19.533,7.324,32.911A46.012,46.012,0,0,0,871.1,901.945q1.172-4.592,6.25-5.566l0.293-.977A46.347,46.347,0,0,1,857.133,872.7q-6.545-14.99-8.789-37.939v-0.977h17.383A104.8,104.8,0,0,1,859.184,854l1.171,0.879a77.938,77.938,0,0,0,13.184-19.824q3.026-.2,3.711-1.074,0-1.074-3.271-4.395t-4.151-3.32q-0.489,0-2.734,2.246l-1.856,2.344H834.867Zm102.832-8.2V815.91l1.758-1.074a1.562,1.562,0,0,0,.879-1.074q0-1.366-9.57-4.1a84.75,84.75,0,0,1,.781,12.988H904.789l-8.2-4a102.013,102.013,0,0,1,.976,14.746v14.355a216.761,216.761,0,0,1-1.757,29.395,68.583,68.583,0,0,1-7.422,23.242l1.562,0.976a48.912,48.912,0,0,0,7.666-12.255,58.873,58.873,0,0,0,4.2-14.5q1.22-7.715,1.611-13.428t0.39-13.526v-22.07h69.336q2.148,0,2.442-1.66,0-1.074-3.613-4.3t-4.59-3.223a1.131,1.131,0,0,0-.782.391,11.207,11.207,0,0,0-1.074,1.367q-0.684.978-.976,1.367l-2.246,3.125H937.7Zm8.692,19.434V855.07H927.934V842.082h18.457Zm6.25-2.832v-4.785l1.66-1.074a1.321,1.321,0,0,0,.781-0.879q0-1.366-9.277-4.2a89.478,89.478,0,0,1,.586,10.937H927.934v-4.785l1.562-1.074a1.041,1.041,0,0,0,.781-0.879q0-1.366-9.082-4.2a89.278,89.278,0,0,1,.586,10.937h-5.859q-7.325-.195-12.6-0.781l2.442,4.98a49.318,49.318,0,0,1,10.351-1.367h5.664v6.934q-0.2,7.323-.586,11.914a2.255,2.255,0,0,0,.489,1.416,1.523,1.523,0,0,0,1.269.634,7.361,7.361,0,0,0,3.32-.83q1.66-.828,1.661-1.416V857.9h18.457V862.4h1.269a7.555,7.555,0,0,0,3.418-.831,3.963,3.963,0,0,0,2.051-1.806q-0.2-2.246-.488-11.621v-6.055h20.214a2.324,2.324,0,0,0,2.54-1.66q0-1.074-3.37-4.1t-4.345-3.027a0.875,0.875,0,0,0-.44.146,2.341,2.341,0,0,0-.537.489c-0.195.229-.375,0.456-0.537,0.683s-0.375.522-.635,0.879-0.456.635-.586,0.83l-2.05,2.93H952.641ZM937.5,884.27a41.575,41.575,0,0,1-15.234-14.454h29.492A55.593,55.593,0,0,1,937.5,884.27h0ZM959.281,870.7q3.125,0,4.2-1.172,0-1.073-2.685-3.662t-3.565-2.588q-0.585,0-2.832,1.856l-2.05,1.855H920.316a129.284,129.284,0,0,1-13.281-.879l2.735,5.176a21.252,21.252,0,0,1,6.347-1.465h3.809A49.941,49.941,0,0,0,933.207,887q-14.062,8.4-34.961,12.793l0.586,1.758q22.362-2.833,38.477-11.524,12.4,8.1,34.277,11.621,0.879-5.079,5.371-5.859v-1.172q-20.9-1.758-34.277-7.812a58.6,58.6,0,0,0,16.6-16.114h0Zm75.589-17.09v-31.25h33.49a2.4,2.4,0,0,0,2.64-1.66q0-1.073-3.96-4.394c-2.63-2.213-4.28-3.321-4.93-3.321q-0.675,0-3.02,3.125l-2.15,3.223h-49.81q-7.815-.195-13.278-0.781l2.441,5.176a102.542,102.542,0,0,1,15.037-1.368h16.99v31.25h-17.09q-7.8-.194-13.277-0.781l2.537,4.981a102.476,102.476,0,0,1,15.04-1.367h12.79v37.5h-26.85q-7.912-.2-13.38-0.782l2.637,5.176a102.205,102.205,0,0,1,15.043-1.367h67.87a2.386,2.386,0,0,0,2.63-1.66c0-.717-1.31-2.2-3.95-4.444s-4.28-3.369-4.93-3.369a1.175,1.175,0,0,0-.78.342,10.378,10.378,0,0,0-1.23,1.465q-0.825,1.124-1.02,1.416l-2.34,3.223h-27.15v-37.5h29.78c1.37,0,2.18-.489,2.44-1.465q0-1.074-3.8-4.346t-4.79-3.272a0.735,0.735,0,0,0-.44.2,4.814,4.814,0,0,0-.54.537c-0.19.229-.37,0.456-0.53,0.683s-0.38.522-.64,0.879-0.49.669-.68,0.928l-2.25,3.027h-18.55Zm16.5,19.581a25.808,25.808,0,0,1,4.69,10.009q3.315,2.248,5.37-.2c1.43-1.822,1.37-4.3-.2-7.422q-3.8-8.005-17.28-12.5l-0.88.879A53.358,53.358,0,0,1,1051.37,873.186Zm42.97,26.513a1.969,1.969,0,0,0,.63,1.416,2.086,2.086,0,0,0,1.52.635,7.357,7.357,0,0,0,3.47-.977,5.743,5.743,0,0,0,2.39-2.05q-0.585-11.229-.78-23.438V829.094l1.66-1.172a1.622,1.622,0,0,0,.88-0.977q0-1.464-10.06-4.3a134.924,134.924,0,0,1,1.27,20.508v32.422q-0.195,11.037-.98,24.121h0Zm14.75-80.42a35.161,35.161,0,0,1,4.59,9.131q2.925,1.857,4.68,0,2.25-2.343.3-6.738-3.225-7.42-15.63-12.207l-0.98.781A72.6,72.6,0,0,1,1109.09,819.279Zm53.41,71.729a2.7,2.7,0,0,1-.48,1.806,2.833,2.833,0,0,1-2.06.538q-2.145,0-13.67-.879v1.562q6.75,0.975,9.38,2.832,1.755,1.074,2.44,4.785,6.54-.782,8.64-3.076t2.1-6.787V823.137a7.062,7.062,0,0,0,4.1-2.051q0-1.074-3.41-3.711t-4.4-2.637a1.215,1.215,0,0,0-.44.1,1.114,1.114,0,0,0-.44.342,5.089,5.089,0,0,1-.39.439,3.345,3.345,0,0,0-.44.586,3.233,3.233,0,0,1-.44.586l-1.37,2.051h-25.58q-7.815-.2-13.28-0.781l2.54,5.175a102.628,102.628,0,0,1,15.04-1.367h22.16v69.141Zm52.15-70.362a29.553,29.553,0,0,1,4.89,9.62q3.015,2.148,4.98,0,2.145-2.44,0-7.032-3.615-7.713-16.8-12.5l-0.98.782A60.023,60.023,0,0,1,1214.65,820.646Zm19.83,37.94a57.509,57.509,0,0,0,.48-7.91V836.418H1267c1.62,0,2.47-.52,2.54-1.563q0-1.072-3.72-4.3t-4.68-3.223a0.948,0.948,0,0,0-.49.195,2.991,2.991,0,0,0-.59.537c-0.19.229-.37,0.457-0.53,0.684s-0.38.522-.64,0.879a7.706,7.706,0,0,1-.68.83l-2.15,2.93h-15.33a88.82,88.82,0,0,0,15.13-18.067l1.76-.586a1.259,1.259,0,0,0,.98-0.781q-0.105-1.171-10.55-4.492-1.47,8.3-7.13,19.238c-0.32.586-.78,1.4-1.37,2.442s-1.01,1.791-1.26,2.246h-30.67q-7.815-.2-13.28-0.782l2.73,5.274a107.594,107.594,0,0,1,14.95-1.465h16.4v14.453a69.851,69.851,0,0,1-.49,7.715h-26.27q-6.825-.195-13.37-0.879l2.73,5.273a107.88,107.88,0,0,1,15.04-1.464h21.39a41.383,41.383,0,0,1-11.33,21.142q-9.09,9.426-28.62,17.041l0.59,1.856a107.583,107.583,0,0,0,20.46-7.813,52.618,52.618,0,0,0,13.72-9.765,44.757,44.757,0,0,0,7.76-10.547A42.583,42.583,0,0,0,1233.89,862q4.785,15.333,13.82,25.049a52.732,52.732,0,0,0,23.09,14.209q1.47-5.373,5.96-6.348l0.1-1.074a57.855,57.855,0,0,1-24.9-11.328,53.841,53.841,0,0,1-16.02-21h37.01c1.37,0,2.18-.521,2.44-1.563q0-1.072-3.8-4.346t-4.79-3.271a1.125,1.125,0,0,0-.78.391,10.788,10.788,0,0,0-1.07,1.367c-0.46.651-.79,1.108-0.98,1.367l-2.25,3.125h-27.24Z"/>
  <path id="大写字母" class="cls-3" d="M166.156,464.8l6.914,20.742H159.3Zm2.93-6.211h-3.34L151.859,499.9l-5.39.7v2.168h14.414V500.6l-6.328-.762L158.48,488h15.411l3.984,11.953-6.621.645v2.168H188.6V500.6l-5.391-.586Zm40.57,22.676h4.16q13.476,0,13.477,9.609a8.271,8.271,0,0,1-3.193,7q-3.195,2.432-9.405,2.432h-4.863q-0.175-5.859-.176-19.043h0Zm13.125-17.813q2.578,1.993,2.578,6.328,0,9.084-11.953,9.082h-3.75q0-11.776.176-17.4H214.7Q220.2,461.457,222.781,463.449Zm-24.551-2.344,6.27,0.7q0.175,5.742.176,17.4v3.281q0,11.719-.176,17.461l-6.27.645v2.168h17.637q8.379,0,12.569-3.457a10.567,10.567,0,0,0,4.189-8.438,9.471,9.471,0,0,0-3.076-7.178q-3.077-2.9-9.4-3.72,5.214-1.113,7.734-3.868a9.316,9.316,0,0,0,2.519-6.5,9.212,9.212,0,0,0-3.691-7.706q-3.691-2.841-10.43-2.841H198.23v2.05Zm77.192,38.086a18.352,18.352,0,0,1-8.32,1.817,14.667,14.667,0,0,1-11.807-5.332q-4.482-5.331-4.483-14.824,0-9.375,4.659-14.766a15.175,15.175,0,0,1,12.041-5.391,14.818,14.818,0,0,1,7.265,1.875l1.465,8.086h3.281l-0.234-9.433A23.943,23.943,0,0,0,266.867,458a20.929,20.929,0,0,0-15.732,6.475q-6.24,6.474-6.24,16.377,0,10.079,6.093,16.464t15.879,6.387a25.7,25.7,0,0,0,13.008-3.223l0.176-9.492h-3.223Zm28.09-17.636v-2.168q0-12.187.176-17.93h6.093q7.851,0,12.1,5.01t4.248,14.443q0,9.2-4.4,14.3t-12.6,5.1h-5.449q-0.177-5.917-.176-18.75h0Zm-11.426-20.45,6.269,0.7q0.177,5.742.176,17.578v2.168q0,12.715-.176,18.4l-6.269.645v2.168h17.578q9.96,0,16.084-5.83t6.123-16.026q0-10.428-5.683-16.142t-15.411-5.713H292.086v2.05Zm81.469,38.965H355.977q-0.177-5.8-.176-18.34h10.547l0.82,6.27h2.461V472.824h-2.461l-0.879,6.5H355.8q0-12.01.176-17.637h16.347l1.641,8.614h2.93l-0.411-11.25H344.375v2.05l6.27,0.7q0.176,5.742.175,17.461v3.281q0,11.719-.175,17.4l-6.27.645v2.168h33.34l0.41-11.368h-2.988Zm45.668-29.765h2.988l-0.469-11.25H389.633v2.05l6.269,0.7q0.177,5.742.176,17.461v3.281q0,11.719-.176,17.4l-6.269.645v2.168h17.988V500.6l-6.387-.645q-0.175-5.742-.175-18.223H411.9l0.821,6.8h2.519v-15.7h-2.519l-0.762,6.5h-10.9q0-12.01.175-17.637h16.407Zm38.109,11.66v2.168l7.031,0.527q0.175,6.153.176,12.188v2.519a22.556,22.556,0,0,1-8.2,1.641q-7.853,0-12.363-5.362t-4.512-14.736q0-9.374,4.6-14.8a15.1,15.1,0,0,1,12.1-5.42,15.4,15.4,0,0,1,8.145,2.168l1.289,7.91h3.34L468.7,461.34A24.523,24.523,0,0,0,455.633,458a21.094,21.094,0,0,0-15.879,6.445q-6.212,6.447-6.211,16.407,0,10.019,6.094,16.435t15.82,6.416a29.748,29.748,0,0,0,14.121-3.867v-2.93q0-6.386.176-12.363l4.1-.41v-2.168H457.332Zm71.859-22.91H511.32v2.05l6.27,0.7q0.117,5.625.117,17.109H495.266q0-11.543.175-17.109l6.211-.7v-2.05H483.84v2.05l6.269,0.7q0.177,5.742.176,17.461v3.281q0,11.719-.176,17.4l-6.269.645v2.168h17.812V500.6l-6.211-.645q-0.175-5.625-.175-18.515h22.441q0,12.95-.117,18.574l-6.27.586v2.168h17.871V500.6l-6.269-.645q-0.119-5.742-.117-17.4V479.27q0-11.778.117-17.461l6.269-.7v-2.05Zm29.965,0H541.344v2.05l6.269,0.7q0.175,5.742.176,17.461v3.281q0,11.719-.176,17.4l-6.269.645v2.168h17.812V500.6l-6.211-.645q-0.176-5.742-.175-17.4V479.27q0-11.778.175-17.461l6.211-.7v-2.05Zm12.387,0v2.05l6.914,0.762q0.117,13.066.234,22.324t0.176,12.452q0.058,3.194.059,4.365,0,6.737-3.516,9.492l-1.582-1.113a7.511,7.511,0,0,0-4.57-1.817q-3.105,0-3.516,2.813,0.7,2.752,5.1,2.754a12.112,12.112,0,0,0,7.91-2.842,12.45,12.45,0,0,0,4.277-8,88.191,88.191,0,0,0,.645-12.6V479.328q0-11.835.117-17.519l6.27-.7v-2.05H571.543Zm51.293,16.757,11.484-13.828,6.094-.879v-2.05H625.473v2.05l5.566,0.879-18.281,22.325V479.27q0-11.778.117-17.4l6.387-.762v-2.05H601.449v2.05l6.27,0.7q0.175,5.742.176,17.461v3.281q0,11.719-.176,17.4l-6.27.645v2.168h17.813V500.6l-6.387-.645q-0.118-4.395-.117-12.012l7.09-8.5,11.25,20.567-5.743.586v2.168h16.29V500.6l-5.274-.586ZM678.23,500.07H662.41q-0.175-5.682-.176-16.347v-4.161q0-12.01.176-17.753l6.211-.7v-2.05H650.809v2.05l6.269,0.7q0.176,5.683.176,17.461v3.339q0,11.6-.176,17.344l-6.269.645v2.168H682.8l0.527-11.954h-3.164Zm69.458-41.015H735.793L721.086,496.2l-15.352-37.148H694.6v2.05l6.035,0.762L700.578,499.9l-5.8.7v2.168H709.25V500.6l-5.8-.7V477.688q-0.058-.879-0.088-2.344t-0.088-3.164q-0.058-1.7-.087-3.692t-0.088-3.574l15.761,37.852h2.461l15.118-38.086-0.059,18.047q0,1.875-.029,7.939t-0.088,9.346l-5.918.586v2.168h17.344V500.6l-6.211-.586q-0.118-5.8-.118-17.461V479.27q0-11.778.118-17.461l6.211-.7v-2.05Zm39.046,0v2.05l7.032,0.879,0.058,31.758L768.98,459.055h-9.375v1.992l4.922,0.644,0.528,0.762L765,499.9l-5.625.7v2.168h15.41V500.6l-6.972-.762L767.75,466.2l26.719,37.031h1.992l0.059-41.308,5.566-.821v-2.05H786.734Zm39.252,4.57a11.206,11.206,0,0,1,7.764-2.93,11.358,11.358,0,0,1,10.225,5.889,30.167,30.167,0,0,1,0,28.594,11.357,11.357,0,0,1-10.225,5.888,11.14,11.14,0,0,1-7.764-2.959A16.758,16.758,0,0,1,821.3,490.7a34.456,34.456,0,0,1,0-19.687A16.569,16.569,0,0,1,825.986,463.625Zm0.323-4.014a20.211,20.211,0,0,0-6.329,4.483,20.927,20.927,0,0,0-4.394,7.236,26.858,26.858,0,0,0-1.641,9.522q0,10.547,5.83,16.7A18.581,18.581,0,0,0,833.75,503.7a18.171,18.171,0,0,0,13.828-6.3q5.8-6.3,5.8-16.552,0-10.488-5.772-16.67A18.294,18.294,0,0,0,833.75,458,17.912,17.912,0,0,0,826.309,459.611Zm67.464,12.276q0,10.782-12.128,10.781h-4.336v-3.4q0-12.07.175-17.813h4.746q11.542,0,11.543,10.43h0Zm0.909,9.551a11.756,11.756,0,0,0,4.423-9.551,11.638,11.638,0,0,0-4.072-9.4q-4.073-3.428-11.865-3.427H865.883v2.05l6.269,0.7q0.177,5.742.176,17.461v3.281q0,11.719-.176,17.4l-6.269.645v2.168h17.988V500.6l-6.387-.645q-0.176-5.038-.175-14.883h3.75Q890.257,485.07,894.682,481.438ZM922.3,463.625a11.2,11.2,0,0,1,7.763-2.93,11.357,11.357,0,0,1,10.225,5.889,30.16,30.16,0,0,1,0,28.594,11.356,11.356,0,0,1-10.225,5.888,11.138,11.138,0,0,1-7.763-2.959,16.76,16.76,0,0,1-4.688-7.412,34.479,34.479,0,0,1,0-19.687A16.571,16.571,0,0,1,922.3,463.625Zm19.072,50.1a8.574,8.574,0,0,1-6.621-2.666q-2.462-2.667-2.52-7.471a18.451,18.451,0,0,0,12.422-7.031q5.039-6.153,5.039-15.7,0-10.488-5.771-16.67A18.3,18.3,0,0,0,930.066,458a17.912,17.912,0,0,0-7.441,1.611,20.218,20.218,0,0,0-6.328,4.483,20.914,20.914,0,0,0-4.395,7.236,26.858,26.858,0,0,0-1.64,9.522q0,9.492,4.834,15.5a18.754,18.754,0,0,0,12.1,7.119,14.1,14.1,0,0,0,3.311,9.316,11.127,11.127,0,0,0,8.935,3.809,14.359,14.359,0,0,0,7.793-1.992l-0.586-1.817a17.919,17.919,0,0,1-5.273.938h0ZM973.8,461.457h6.152q10.429,0,10.43,8.965a9.084,9.084,0,0,1-2.842,6.943q-2.843,2.667-8,2.666h-5.918q0-12.831.176-18.574h0Zm17.988,28.008a15.052,15.052,0,0,0-2.812-5.391,7.972,7.972,0,0,0-4.395-2.4,14.535,14.535,0,0,0,8.145-4.043,10.091,10.091,0,0,0,2.871-7.149,9.852,9.852,0,0,0-4.073-8.437q-4.073-2.988-11.455-2.988H962.2v2.05l6.27,0.7q0.175,5.742.176,17.461v3.281q0,11.719-.176,17.4l-6.27.645v2.168h17.813V500.6l-6.211-.645q-0.176-5.625-.176-17.519h3.984q4.22,0,6.094,1.259t2.93,5.069l2.988,10.84a4.542,4.542,0,0,0,1.9,2.9,8.444,8.444,0,0,0,4.307.85,17.274,17.274,0,0,0,4.628-.586V500.6l-5.448-.528Zm25.951-15.7a7.572,7.572,0,0,1-1.9-5.274,6.83,6.83,0,0,1,2.63-5.771,10.978,10.978,0,0,1,6.86-2.022,11.274,11.274,0,0,1,5.74,1.524l1.47,7.617h3.16l0.29-8.438a17.347,17.347,0,0,0-10.54-3.4,15.779,15.779,0,0,0-10.14,3.164,10.4,10.4,0,0,0-3.99,8.613,10.7,10.7,0,0,0,2.82,7.559,22.361,22.361,0,0,0,8.14,5.215l2.46,0.937a20.854,20.854,0,0,1,6.77,3.9,6.926,6.926,0,0,1,1.96,5.127,7.383,7.383,0,0,1-2.93,6.3,13,13,0,0,1-7.97,2.2,14.35,14.35,0,0,1-7.38-1.817l-1.4-7.968h-3.11l-0.29,9.023a22.218,22.218,0,0,0,12.48,3.457q6.735,0,10.95-3.31a10.745,10.745,0,0,0,4.22-8.936,10.889,10.889,0,0,0-2.69-7.559q-2.7-2.988-9.32-5.625l-2.58-.937A14.636,14.636,0,0,1,1017.74,473.762Zm64.04-3.34h2.99l-0.59-11.367h-35.51l-0.47,11.367h2.99l1.64-8.731h11.02q0.12,5.743.11,17.579v3.281q0,11.719-.11,17.4l-6.97.645v2.168h19.16V500.6l-6.92-.645q-0.18-5.742-.17-17.4V479.27q0-11.895.17-17.579h10.96Zm39.75-11.367v2.05l7.09,0.879,0.06,21.68q0,8.673-2.88,12.451-2.865,3.78-8.96,3.78-5.5,0-8.41-3.487t-2.9-11.572v-5.508q0-11.776.06-17.461l6.8-.762v-2.05h-17.64v2.05l5.57,0.645q0.105,5.8.11,17.578v6.914q0,8.849,4.16,13.154c2.78,2.872,6.6,4.307,11.49,4.307q7.14,0,11.19-4.482,4.035-4.483,4.04-13.858l0.12-23.5,5.68-.762v-2.05h-15.58Zm51.93,0v2.285l6.27,0.644-11.07,33.75-11.72-33.808,6.51-.586v-2.285h-17.23v2.05l5.27,0.645,15.12,41.484h2.28l13.83-41.367,5.74-.82v-1.992h-15Zm68.82,0v2.05l6.21,0.879-8.61,32.637-10.26-32.695,6.62-.821v-2.05h-16.93v2.05l6.56,0.762-10.43,32.52-8.61-32.52,6.15-.762v-2.05h-17.05v2.05l5.68,0.645,11.66,41.484h2.29l11.01-35.449L1238,503.234h2.34l11.08-41.308,5.74-.821v-2.05h-14.88Zm44.79,20.1,11.07-17.226,5.86-.821v-2.05h-14.94v2.05l5.98,0.821-9.2,15.117-9.14-15.234,6.26-.7v-2.05h-17.63v2.05l5.74,0.7,11.72,19.57-11.84,18.457-6.21.762v2.168h14.88V500.6l-5.68-.762,10.08-16.348,9.78,16.524-6.15.586v2.168h17.52V500.6l-5.68-.586Zm65.35-18.047v-2.05h-14.88v2.05l6.33,0.821-9.91,20.8-9.9-20.86,6.51-.762v-2.05h-17.35v2.05l5.1,0.645,11.78,23.789q0,10.137-.12,14.414l-6.91.645v2.168h19.16V500.6l-6.92-.645q-0.12-4.335-.11-14.473l11.48-23.5Zm36.18,38.965h-22.03l25.72-39.082v-1.933h-30.35l-0.53,11.367h3.16l1.88-8.731h20.1l-25.9,38.965v2.11h32.52l0.47-11.543h-3.11Z"/>
  <path id="logo" class="cls-1" d="M706.266,1194.7a45.969,45.969,0,0,0-.118,5.15v5.16H677.555v-1.17l0.234-.94-1.406-.24c-1.1,0-2.659-.07-4.688-0.23h-3.281l-0.469,2.58a45.646,45.646,0,0,1-1.172,4.92,22.619,22.619,0,0,1-1.406,4.22,7.125,7.125,0,0,0-.82,2.23,6.584,6.584,0,0,0,2.109-.71c1.326-.54,2.615-1.13,3.867-1.76a11.566,11.566,0,0,0,3.516-2.81l1.641-1.64h66.8l1.875,1.88a14.477,14.477,0,0,0,3.75,2.81c1.406,0.62,2.655,1.17,3.75,1.64a1.036,1.036,0,1,0,1.171-1.17,17.1,17.1,0,0,1-1.406-3.99q-0.7-2.34-1.172-4.68a11.9,11.9,0,0,0-.7-3.05c0-.47-1.252-0.62-3.75-0.47-1.875.16-3.281,0.23-4.219,0.23a2.052,2.052,0,0,1-.937.24c-0.315,0-.469.31-0.469,0.94l0.235,0.93-13.594.24q-13.359,0-13.36-.24a2.838,2.838,0,0,1,.7-1.05,6.664,6.664,0,0,0,1.171-2.46,15.728,15.728,0,0,0,.469-4.22v-2.58h-4.687Q706.382,1194.46,706.266,1194.7Zm-31.289,28.12v4.22l21.093,0.23h21.094l-5.859,4.93q-5.4,4.215-8.2,6.56l-2.344,1.87v6.8H660.445v4.22h40.313v14.76c0,10.01-.158,15.47-0.469,16.41a13.152,13.152,0,0,1-1.172,3.05,21,21,0,0,1-2.578,3.04,16.962,16.962,0,0,1-3.75,2.82c-1.406.62-2.109,1.17-2.109,1.64s0.153,0.7.468,0.7a30.375,30.375,0,0,0,3.047-.47,34.353,34.353,0,0,0,4.922-1.4,16.4,16.4,0,0,0,4.688-1.88,11.74,11.74,0,0,0,3.515-2.34,12.264,12.264,0,0,0,2.344-2.58,13,13,0,0,0,1.172-2.58c0.311-.94.469-6.4,0.469-16.41v-14.76h38.2v-4.22h-38.2v-6.8l2.109-1.64q2.109-1.635,8.438-6.79,6.327-5.4,8.437-7.04a13.637,13.637,0,0,0,2.578-2.34q0-.225-28.828-0.23t-29.062.23h0Zm121.64-30.23-0.469,1.87a27.635,27.635,0,0,1-1.523,5.74c-0.861,2.43-1.681,4.65-2.461,6.68q-1.176,2.58-3.281,6.8-1.88,3.75-4.453,8.44-2.11,3.75-4.688,7.73-2.582,4.215-3.047,4.92a7.818,7.818,0,0,0-1.406,2.11c-0.157.47-.117,0.71,0.117,0.71a8.252,8.252,0,0,0,2.227-1.18q1.873-1.17,3.515-2.34,1.874-1.41,3.985-3.28a59.714,59.714,0,0,0,4.453-4.45l2.109-2.35,0.235,14.77,0.234,14.76h1.875a5.862,5.862,0,0,0,3.047-.7,5.457,5.457,0,0,0,1.875-1.17,11.374,11.374,0,0,0,1.406-1.64l0.469-.71h27.187v2.11l0.235,2.11h1.64a7.437,7.437,0,0,0,2.813-.47,9.072,9.072,0,0,0,2.109-1.17,4.666,4.666,0,0,0,1.407-1.64l0.7-.94h31.64v-4.45H838.336v-6.8H868.57v-4.45H838.336v-6.8H868.57v-4.68H838.336v-7.5H868.57v-4.69H837.164l0.938-1.17a23.668,23.668,0,0,0,1.406-2.35,6.445,6.445,0,0,0,.7-2.57,17.74,17.74,0,0,0,.469-4.93v-3.51H828.727v14.53H815.6q-13.129,0-13.125-.23c0-.16-0.158-0.24-0.469-0.24s0.311-1.41,1.875-4.22a69.182,69.182,0,0,0,3.281-7.5,16.732,16.732,0,0,0,1.406-3.98l0.235-1.17H796.617Zm31.406,22.03v7.5H802.477v-7.5h25.546Zm0,12.18v6.8H802.477v-6.8h25.546Zm0,11.25v6.8H802.477v-6.8h25.546Zm-3.515,16.88v5.16l-22.969.23H778.805v4.45h45.7v1.64c0,1.1-.081,1.64-0.235,1.64a40.222,40.222,0,0,1-4.687-1.17q-4.455-1.17-4.922-1.4-0.236,0-6.328,4.68-6.1,4.935-7.734,6.1-1.643.93-4.454,2.58a58.967,58.967,0,0,1-5.39,2.57q-2.812,1.185-5.391,2.23a35.226,35.226,0,0,1-5.859,1.76,17.416,17.416,0,0,0-3.047,1.05,6.06,6.06,0,0,0,1.289,1.06,3.994,3.994,0,0,0,1.992.94c0.469,0,2.344-.32,5.625-0.94s6.328-1.33,9.141-2.11q4.449-1.17,8.2-2.35a22.822,22.822,0,0,0,4.922-2.1q1.637-.945,9.14-6.1t7.618-5.04q0.115,0.12.117,13.48v13.12h1.406a7.357,7.357,0,0,0,2.813-.7,6.692,6.692,0,0,0,3.046-1.99,11.184,11.184,0,0,0,2.11-3.17,8.733,8.733,0,0,0,.586-2.34q0.115-1.17.117-6.33c0.154-4.68.271-7.11,0.352-7.26s1.442,0.55,4.1,2.11q3.982,2.1,6.8,3.51a34.945,34.945,0,0,0,6.328,2.58,54.282,54.282,0,0,0,6.328,1.64,52.974,52.974,0,0,0,5.625.94c1.718,0.16,4.219.23,7.5,0.23a38.521,38.521,0,0,0,5.86-.23,1.37,1.37,0,0,0,1.171-.94l0.235-1.17c0-.15-0.235-0.24-0.7-0.24-0.315,0-1.722-.23-4.219-0.7s-5-1.01-7.5-1.64q-3.516-.93-6.8-2.11-2.812-.93-5.625-2.11-2.346-1.17-10.078-6.33l-7.734-5.15,19.453-.24h19.453v-4.45H854.977l-20.157-.23v-2.58l-0.234-2.58H824.508Z"/>
</svg>
