<svg xmlns="http://www.w3.org/2000/svg" width="400" height="200" viewBox="0 0 400 200">
  <defs>
    <style>
      .cls-1 {
        fill: #fdfdfd;
        fill-rule: evenodd;
      }
    </style>
  </defs>
  <path id="联盟起艺卢帅正锐黑体" class="cls-1" d="M9.1,115.129h9.773v3.023h5.2v-3.023h1.16v-3.551h-1.16V85.633h1.16V82.152H9.1v3.481h1.16v25.945H9.1v3.551Zm17.543-22.5h6.4v8.4H25.727v3.551h5.766l-5.766,13.57h5.941l4.184-9.843L40,118.152h5.941l-5.766-13.57h5.766v-3.551H38.629v-8.4h6.4V89.113h-1.9l1.9-6.961H39.578l-1.934,6.961H34.023L32.09,82.152H26.641l1.9,6.961h-1.9v3.516Zm-7.77-.668H15.426V85.633h3.445v6.328Zm0,9.844H15.426V95.477h3.445v6.328Zm0,9.773H15.426v-6.293h3.445v6.293Zm52-9.808,0.352-5.1H77.2v1.477h-2.18V99.2a3.511,3.511,0,0,1,2.021.809A2.667,2.667,0,0,1,78,101.7h4.605V82.152H77.2l-4.359.035L71.289,83.8V82.152H65.734v13.43l-0.422,6.188h5.555Zm-21.832.351h5.519v-1.09h4.078v1.09h5.519V82.152l-7.98.035L54.555,83.8V82.188H49.035v19.933Zm9.6-11.988H54.555V85.106h4.078v5.027Zm12.656-2.285V85.106H77.2v2.742H71.289Zm0,5.73V90.941H77.2v2.637H71.289ZM58.633,97.938H54.555V93.227h4.078v4.711ZM47.418,118.152H84.3v-3.234H82.645V103.352h-26.3L54.7,105.426v-2.074H49v11.566H47.418v3.234Zm11.109-3.234H54.7v-8.613h3.832v8.613Zm5.484,0v-8.613h3.867v8.613H64.012Zm9.316,0v-8.613h3.656v8.613H73.328ZM91.012,90.625v5.484H85v3.8h7.981v7.383l-2.074-2.215L91.082,101H85.844l-0.7,17.156h5.238l0.246-5.836,5.555,5.836,0.141-.07v0.07h25.489v-3.691l-22.149-.106-1.02-1.089v-5.133h3.129V104.3H98.641V99.906h3.621v-3.8H96.637V90.625h4.5v-3.8h-4.5V82.152H91.012v4.676H86.125v3.8h4.887Zm24.715-2.566v7.734H110.7l-1.547,1.934V95.793h-5.66V112.7h14.8a2.939,2.939,0,0,1,1.16-1.951,4.189,4.189,0,0,1,2.356-.932v-1.547H109.117V99.309h12.235V84.227h-17.86v3.832h12.235ZM126.1,97.023h23.625l-22.571,17.543v3.586h30.692a2.125,2.125,0,0,1,.826-1.617,4.822,4.822,0,0,1,2.162-.6v-1.372H136.82l22.114-17.543V93.473H126.1v3.551Zm-1.969-8.086h6.363L130.457,92.1h5.625l0.035-3.164h13.641L149.723,92.1h5.625l0.035-3.164h5.449V85.422h-5.414l0.035-3.164h-5.625l-0.035,3.164H136.152l0.036-3.164H130.6l-0.036,3.164h-6.433v3.516Zm43.734,29.215,0.668-11.988v-2.883H192.9v0.739h5.554v-12.9h-14.8V88.2h15.5V84.648h-15.5v-2.5h-6.082v8.965H169.8l-1.266,1.441V91.117h-5.554v15.047l-0.668,11.988h5.554Zm0.668-23.519H192.9v5.1H168.531v-5.1Zm59.449-8.754V82.152h-5.168v3.727h-2.566l-1.723,2.109V85.879h-5.2V116.4h5.2V89.711h4.289v28.441h5.168V89.711h4.254v23.027h-3.55v1.09a3.5,3.5,0,0,1,2,.826,2.727,2.727,0,0,1,.984,1.741h5.8V85.879H227.98Zm-17.437,32.273,1.793-8.261V82.152H207.1v27.176l-1.758,8.824h5.2Zm-9.914-6.925h5.2V85.809h-5.2v25.418Zm38.32-25.137h15.645v28.23h-6.856V93.367h-5.379V114.32h-3.41v3.868h36.844V114.32H260.781V101.91h13.887V98.078H260.781V86.09h15.012V82.258H238.949V86.09ZM277.27,96.883h2.953v5.238H277.27v3.445h2.953v12.586h5.941a2.953,2.953,0,0,1,1.072-1.951,4.067,4.067,0,0,1,2.268-.931v-1.3H285.25v-8.4H289.5v-3.445H285.25V96.883H289.5V93.367H277.27v3.516Zm13.5-8.543v14.73H295.9v-1.125h0.668l-4.922,16.207H297.2l4.957-16.207h0.387v16.207h8.965a2.359,2.359,0,0,1,.826-1.547,2.905,2.905,0,0,1,1.775-.7v-0.984H307.75V101.945h0.562v1.125h5.133V88.34h-2.883l1.583-6.187h-5.52l-1.652,6.188h-5.731l-1.582-6.187h-5.59l1.582,6.188H290.77Zm-6.856-1.758,2.848-4.43h-6.645l-2.847,4.43v3.551H289.5V86.582h-5.59Zm24.4,5.274V98.43H295.9V91.856h12.41Zm7.665,9.386H321.6v-0.949h9.6v2.6H317.875v3.023H331.2v1.828H315.59v3.024h36.879v-3.024H337.105v-1.828h13.676V102.9H337.105v-2.6h9.422v0.949h5.485V82.152H323.5l-1.9,2.109V82.152h-5.625v19.09Zm5.625-3.691V85.141h9.6v12.41h-9.6Zm24.925,0h-9.422V85.141h9.422v12.41ZM327.438,86.863h-4.219l2.285,9h4.184Zm13.5,0-2.286,9h4.219l2.285-9h-4.218Zm-23.45,25.1-1.863,6.187h5.1l1.933-6.187h-5.168Zm12.832,0h-5.168l1.934,6.187h5.133Zm9.422,0H334.75l1.863,6.187h5.028Zm10.969,0h-5.133l1.863,6.187h5.168Zm11.461-21.34,2.812-8.473h-5.625l-5.273,15.82h4.289v20.179h5.449V90.625h-1.652Zm20.355,2.637,1.969,15.574h-3.621V90.625H390.93V86.266H380.875V82.152h-5.906v4.113h-10.2v4.359h10.2v18.211h-3.586l1.969-15.574h-5.309l-3.023,23.273h5.343l0.563-4.219h4.043v5.836h5.906v-5.836h4.113l0.528,4.219h5.308l-2.988-23.273h-5.309Z"/>
</svg>
