<svg xmlns="http://www.w3.org/2000/svg" width="400" height="200" viewBox="0 0 400 200">
  <defs>
    <style>
      .cls-1 {
        fill: #fdfdfd;
        fill-rule: evenodd;
      }
    </style>
  </defs>
  <path id="王漢宗中楷體_注音" data-name="王漢宗中楷體 注音" class="cls-1" d="M80.27,60.84a0.934,0.934,0,0,1-1.23.176,21.43,21.43,0,0,0-2-1.266,4.659,4.659,0,0,0-1.406-.633,0.227,0.227,0,0,0-.141.106q1.511,1.09,3.023,2.25a0.587,0.587,0,0,1,.07,1.019,26.908,26.908,0,0,1-3.8,2.988q-0.738.457-.562,0.527a2.048,2.048,0,0,0,.492-0.106,16.483,16.483,0,0,0,4.5-2.918,0.732,0.732,0,0,1,1.125,0q1.019,0.879,1.934,1.828a1.522,1.522,0,0,0,1.16.914q0.878-.422.211-1.2a18.1,18.1,0,0,0-2.742-2.25,0.579,0.579,0,0,1-.035-0.984l0.738-.984a5.088,5.088,0,0,1,1.09-1.336,0.985,0.985,0,0,0,.211-0.352,1.3,1.3,0,0,0-.7-0.844q-0.563-.316-0.6.317A5.366,5.366,0,0,1,80.27,60.84h0Zm5.309,7.594a0.442,0.442,0,0,0-.141.633q0.7,0.985,1.512-.281a17.153,17.153,0,0,0,1.969-2.637q0.07-.351-0.668.176Zm-6.891.492a2.3,2.3,0,0,1,.176,1.3l-0.141.949a0.7,0.7,0,0,1-.668.6q-1.758.106-2.848,0.106L75,71.949a0.6,0.6,0,0,0,.246.457,1.318,1.318,0,0,0,1.406.281,11.925,11.925,0,0,1,1.16-.281q0.667-.07.527,0.457a10.157,10.157,0,0,1-3.48,4.43,1.768,1.768,0,0,0-.633.668,0.8,0.8,0,0,0,.738-0.141,10.556,10.556,0,0,0,3.832-4.008,1.852,1.852,0,0,1,.351-0.6L79.039,76.1a1.851,1.851,0,0,0,1.723,1.969h3.094a0.671,0.671,0,0,0,.7-0.527,0.4,0.4,0,0,0-.316-0.422,4.157,4.157,0,0,0-1.336.106,12.236,12.236,0,0,1-1.582.105A1.354,1.354,0,0,1,79.672,76.2a14.368,14.368,0,0,1,.211-2.988,0.917,0.917,0,0,0-.211-0.668q-0.246-.281.352-0.352l0.844-.07a4.628,4.628,0,0,1,1.441.106,1.592,1.592,0,0,0,.668,0,0.448,0.448,0,0,0,.387-0.387,0.578,0.578,0,0,0-.633-0.457,8.1,8.1,0,0,0-1.512.105l-1.125.106q-0.668.035-.6-0.492a8.748,8.748,0,0,1,.387-2.25,0.5,0.5,0,0,0-.281-0.387,0.938,0.938,0,0,0-1.09-.07,0.744,0.744,0,0,0,.176.527h0Zm-31.57-9.281a2.684,2.684,0,0,0-1.2.352,0.461,0.461,0,0,0,.105.352A6.108,6.108,0,0,0,51.3,60.8a1.248,1.248,0,0,1,1.441.984l0.07,5.1a1,1,0,0,1-.844,1.055q-1.969.422-3.938,0.7a2.065,2.065,0,0,0-1.23.422,1.5,1.5,0,0,0,.984.633,9.589,9.589,0,0,0,4.008-.07q1.055-.105,1.09.738,0,2.919.105,5.836a0.944,0.944,0,0,1-.809,1.16q-5.766.563-11.426,1.231-1.337.352-.422,1.16a2.942,2.942,0,0,0,2.777.6A130.84,130.84,0,0,1,58.578,78.8a54.974,54.974,0,0,1,9.176.07,4.455,4.455,0,0,0,2.039-.176q0.984-.562.176-1.266a6.111,6.111,0,0,0-2.813-1.477q-1.582.036-3.058,0.211l-8.4.809q-1.055.071-1.02-.773l0.281-6.223A1,1,0,0,1,55.906,69q1.722-.351,3.445-0.6a2.754,2.754,0,0,0,1.441-.562,0.873,0.873,0,0,0-.211-1.125,3.5,3.5,0,0,0-1.969-.281l-2.5.563q-1.055.211-1.055-.633a34.851,34.851,0,0,1,.246-4.184,1.55,1.55,0,0,0-.457-1.441q-0.493-.316.352-0.492A58.716,58.716,0,0,0,61,59.117a1.481,1.481,0,0,0,1.16-.844q0.105-.281-1.16-0.879a5.292,5.292,0,0,0-2.988.211,56.644,56.644,0,0,1-10.9,2.039h0Zm83.356-1.371q-0.528-.176-0.6.316a2.153,2.153,0,0,1,.352,1.3,18.538,18.538,0,0,1-2.5,6.609q-0.492.844-.281,0.773a4.064,4.064,0,0,0,.739-0.7,13.028,13.028,0,0,0,2.285-4.676l0.773-2.742a0.618,0.618,0,0,1,.563-0.211q3.62-.351,5.062-0.352a1.482,1.482,0,0,0,.774-0.246q0.175-.457-0.6-0.633a8.432,8.432,0,0,0-2.039.246,13.732,13.732,0,0,1-4.535.316h0Zm9.07,8.859a25.687,25.687,0,0,0,3.41,2.285,2.025,2.025,0,0,0-.351-0.7q-1.02-1.3-2.075-2.531a0.573,0.573,0,0,0-.984-0.07,0.6,0.6,0,0,0,0,1.02h0Zm-4.781,1.582q-2.391.246-4.957,0.352a1.533,1.533,0,0,0-.668.246,0.418,0.418,0,0,0,.316.281,1.162,1.162,0,0,1,.563.422,3.288,3.288,0,0,1-1.161,2.883,0.952,0.952,0,0,0-.386,1.441,0.6,0.6,0,0,0,.6-0.035,4.233,4.233,0,0,1,1.336-.562,29.891,29.891,0,0,1,5.485-.387q0.738,0.141.457,0.633a11.442,11.442,0,0,1-1.9,3.34,3.419,3.419,0,0,0-.7.809,0.3,0.3,0,0,0,.246.316,2.079,2.079,0,0,0,.774-0.562,8.488,8.488,0,0,0,2.074-2.812,2.2,2.2,0,0,1,.387-0.668,1.308,1.308,0,0,0,.492-0.984q-0.879-1.125-1.547-.773a6.125,6.125,0,0,1-.949.141q-0.669,0-.422-0.527a8.035,8.035,0,0,1,1.23-2.039,1.24,1.24,0,0,0,.528-0.773,1.352,1.352,0,0,0-.6-0.773,0.663,0.663,0,0,0-.844-0.141,0.608,0.608,0,0,1-.351.176h0Zm0.246,1.406q-0.528,1.055-1.125,2.145a1.032,1.032,0,0,1-.844.6,20.559,20.559,0,0,0-2.707.281q-0.667.071-.281-0.492,0.245-.386.457-0.808a1.826,1.826,0,0,0,.1-1.652q-0.175-.316.352-0.527a17.662,17.662,0,0,1,4.008-.281q0.385,0.211.035,0.738h0ZM113.844,52.438a2.906,2.906,0,0,1,.246.6,5.875,5.875,0,0,1-.07,1.758l-0.141,1.02a1.322,1.322,0,0,1-1.02,1.266q-1.2.316-2.285,0.492a0.79,0.79,0,0,1-1.09-.738q0-2-1.125-2.6a3.176,3.176,0,0,0-2.074-.176q-0.175.141,0.633,1.441a12.265,12.265,0,0,1,.6,1.863q0.21,0.738-.774.914l-2.074.246a2.394,2.394,0,0,0-1.336.246q-0.211.176,1.2,0.809a3.532,3.532,0,0,0,2.426-.07,0.952,0.952,0,0,1,1.3.668l0.316,1.3q0.633,1.336.914,1.16a0.639,0.639,0,0,1,.457-0.211,2.092,2.092,0,0,1,.633,1.09,0.766,0.766,0,0,1-.668,1.09,17.973,17.973,0,0,1-4.429.527,2.161,2.161,0,0,0-1.266.035,2.9,2.9,0,0,0,.809,1.23,17.386,17.386,0,0,1,1.019,2.109,2.975,2.975,0,0,0,.7,1.266,0.464,0.464,0,0,0,.774.07,0.974,0.974,0,0,1,.808-0.281l1.547-.211a0.786,0.786,0,0,1,1.02.949,1.24,1.24,0,0,1-.95,1.266l-3.3.492a4.288,4.288,0,0,0-1.617.316,0.373,0.373,0,0,0,.035.352,7.618,7.618,0,0,0,4.394.176q1.055-.105.844,0.984a1.5,1.5,0,0,1-1.125,1.23q-2.883.457-6.328,0.668-0.562.282-.281,0.6a5.184,5.184,0,0,0,3.269.668,24.26,24.26,0,0,1,2.5-.422q1.125-.105.7,0.738a12.262,12.262,0,0,1-5.2,5.449q-1.442.878-.07,0.773a11.253,11.253,0,0,0,7.137-6.258,3.713,3.713,0,0,1,.7-1.16,16.3,16.3,0,0,1,1.125,1.547l1.9,2.813q1.688,2.777,2.988,2.883a23.475,23.475,0,0,0,6.258-.6c0.141-.118.176-0.211,0.106-0.281q-2.181-.527-4.36-1.2-2.671-.668-5.625-4.254-1.02-1.055-.1-1.2,3.48-.386,7.559-0.492a5.564,5.564,0,0,0,1.511-.105q0.844-1.055-.668-1.687a6.992,6.992,0,0,0-4.219.035l-5.378.914c-0.47.07-.633-0.269-0.493-1.02a1.2,1.2,0,0,1,1.02-1.09l4.851-.7a3.38,3.38,0,0,0,1.336-.352q0.528-.844-0.457-1.09a4.872,4.872,0,0,0-1.23-.105l-3.973.7a0.715,0.715,0,0,1-.949-0.879,1.108,1.108,0,0,1,.984-1.16l3.446-.492a5.9,5.9,0,0,0,1.265-.211q0.528-.351.106-0.7-0.282-.281.316-1.02a6.232,6.232,0,0,1,1.969-1.406,1.62,1.62,0,0,0-.809-1.23q-2.039-1.687-3.515-.668a24.408,24.408,0,0,1-2.567.668q-0.738.176-.7-0.176a2.65,2.65,0,0,0-.808-0.949q-0.774-.457.211-0.633l1.019-.141a3.9,3.9,0,0,0,1.231-.316,0.628,0.628,0,0,0-.106-0.422,1.084,1.084,0,0,1,0-1.02l0.387-1.2a1.285,1.285,0,0,1,1.125-1.125q1.968-.211,3.937-0.281a4.753,4.753,0,0,0,1.336-.106,0.74,0.74,0,0,0-.281-1.23q-1.407-.878-4.219-0.07-1.159.211-.914-0.562l0.352-1.09a1.877,1.877,0,0,0-.739-2,2.043,2.043,0,0,0-2.109-.387,0.481,0.481,0,0,0,.141.352h0ZM100.66,59.4q1.266,0.809,1.828-.211,0.423-3.3-3.761-3.9-1.126.035-.387,1.406a8.782,8.782,0,0,0,2.32,2.707h0Zm12.762,0.211a1.385,1.385,0,0,1-1.02,1.266l-1.582.352q-1.054.246-1.125-.633a1.53,1.53,0,0,0-.035-0.563,1.089,1.089,0,0,1,.809-1.266l2.074-.387q1.089-.211.984,0.633Zm-15.68,7.734q1.477,0.6,1.723-.738a2.718,2.718,0,0,0-1.512-2.637,7.419,7.419,0,0,0-2.812-.773q-1.2.105-.492,1.125a9.714,9.714,0,0,0,3.094,3.023h0Zm19.371-1.3a1.552,1.552,0,0,1-1.3,1.125l-1.792.281q-1.056.211-.95-0.738l0.071-.809a1.108,1.108,0,0,1,.914-1.2,16.316,16.316,0,0,1,2.109-.281q1.792-.035.949,1.617h0ZM98.481,73.637A7.581,7.581,0,0,1,95.492,76.8a2.243,2.243,0,0,0-.527.422q-0.246,1.406,1.231,3.656,1.125,1.547,1.723-.141,0.984-3.3,3.094-8.437,1.089-2.848,2.039-5.7a2.161,2.161,0,0,0,.035-1.2,3.619,3.619,0,0,0-.809,1.2Zm12.551-7.348v0.492a1.224,1.224,0,0,1-.808,1.3l-1.618.316q-1.16.176-1.335-.6l-0.211-.914q-0.247-.773.7-0.879l1.371-.281,0.808-.176a0.773,0.773,0,0,1,1.09.738h0ZM188.2,54.09l-5.168.527a1.444,1.444,0,0,0-.7.281,0.334,0.334,0,0,0,.281.316,1,1,0,0,0,.668.176l1.864-.316q0.668-.105.7,0.422l0.176,1.934v1.688a18.022,18.022,0,0,0-.106,2.426,1.433,1.433,0,0,0,.07.457,0.987,0.987,0,0,0,.493.6,0.9,0.9,0,0,0,.351-0.879V59.961l-0.211-4.605a0.541,0.541,0,0,1,.563-0.562l1.195-.141a1.3,1.3,0,0,1,1.055.106,0.709,0.709,0,0,1,.175.633,16.257,16.257,0,0,1-.246,1.863,1.314,1.314,0,0,1-.562,1.16,2.781,2.781,0,0,1-.774-0.176,0.941,0.941,0,0,0-.7-0.141q-0.141.211,0.352,0.457a3.1,3.1,0,0,1,.6.633q0.385,0.985,1.16.07a6.954,6.954,0,0,0,1.019-3.34,5.987,5.987,0,0,1,.281-1.3,0.357,0.357,0,0,0-.14-0.422,1.673,1.673,0,0,0-1.758-.176,2.885,2.885,0,0,1-.633.07h0Zm0.6,11.039a4.2,4.2,0,0,1-.914,1.266,1.015,1.015,0,0,1-1.2.281l-2.532-1.09a2.484,2.484,0,0,0-.773-0.176q-0.141.071,0.668,0.527l2,1.09q0.667,0.387.1,0.773a24.743,24.743,0,0,1-3.305,2.039,1.093,1.093,0,0,0-.6.457,12.481,12.481,0,0,0,4.57-2.109,0.935,0.935,0,0,1,1.16.035l0.668,0.492a10.492,10.492,0,0,1,1.336,1.09q0.809,0.633,1.02-.352a2.639,2.639,0,0,0-.6-0.668,19.648,19.648,0,0,0-1.863-1.09q-0.562-.351-0.035-0.844l0.949-.949a2.218,2.218,0,0,0,.7-0.7,1.411,1.411,0,0,0-.457-0.633,0.551,0.551,0,0,0-.738-0.106,5.827,5.827,0,0,1-.176.668h0Zm-2.074,9.246a2.99,2.99,0,0,1-.7,1.828,15.5,15.5,0,0,1-3.129,4.148,0.872,0.872,0,0,0-.317,1.441,1.1,1.1,0,0,0,.844-0.07,18.9,18.9,0,0,1,7.523-.6q0.844-.176.141-0.773a1.923,1.923,0,0,0-1.441-.211q-2.778.422-5.309,0.6a0.479,0.479,0,0,1-.457-0.141,0.98,0.98,0,0,1,.316-0.633l3.375-4.57a3.7,3.7,0,0,0,.528-0.844,1.212,1.212,0,0,0-1.512-.984,3.192,3.192,0,0,0,.141.809h0Zm-23.1-17.4a0.688,0.688,0,0,0,.7-0.527,2.674,2.674,0,0,0-1.371-3.023,7.312,7.312,0,0,0-2.707-.738q-1.2-.035-0.281,1.3,1.9,2.672,3.656,2.988h0Zm2.426,1.3-10.863,1.688q-1.056.176-1.161-.422a1.356,1.356,0,0,0-.843-0.949,1.876,1.876,0,0,0-.668,1.055,8.049,8.049,0,0,1-1.442,2.707,4.366,4.366,0,0,0-1.2,3.059,0.665,0.665,0,0,0,.844.563q1.932-.738,2.777-3.586a1.307,1.307,0,0,1,1.23-1.09,2.705,2.705,0,0,0,1.442-.176,107.523,107.523,0,0,1,14.027-1.9,2.094,2.094,0,0,1,1.231.246,6.01,6.01,0,0,1-.95,2.988,4.12,4.12,0,0,0-.492,1.266,2.319,2.319,0,0,0,1.2-.527,28.017,28.017,0,0,1,3.164-2.18q3.234-1.125,1.125-2.812-2.391-2.039-3.8-1.266a21.554,21.554,0,0,1-5.625,1.336h0Zm-8.719,6.785a0.976,0.976,0,0,0-1.16.527,4.633,4.633,0,0,0,3.058.809q3.3-.562,6.61-1.266,1.547-.211,1.3-1.23a2.881,2.881,0,0,0-1.582-.562,5.053,5.053,0,0,0-2.6.6,49.65,49.65,0,0,1-5.625,1.125h0Zm-5.238,5.766q-0.528.211-.352,0.6a5.263,5.263,0,0,0,3.024.738q2-.422,4.007-0.7a1.683,1.683,0,0,1,1.723.949,15,15,0,0,1,.6,6.574,6.1,6.1,0,0,1-.317,1.406,3.546,3.546,0,0,0-.668,1.406,6.436,6.436,0,0,0,.95,2.109q0.456,0.7.949,0.422a1.482,1.482,0,0,0,.844-1.617q-0.247-7.769.492-10.476a1.318,1.318,0,0,0-.914-0.844q-0.528-.281.386-0.457A79.82,79.82,0,0,1,171.5,70.3q1.933-.105.527-1.582a4.185,4.185,0,0,0-2.425-.457q-2.427.282-6.4,1.125a73.721,73.721,0,0,1-11.109,1.441h0Zm17.894,6.645q1.371,2.249,2.883,2.426a0.678,0.678,0,0,0,.738-0.668,3.059,3.059,0,0,0-.738-2.812,10.381,10.381,0,0,0-5.906-3.164q-0.211.105,0.844,1.406,1.16,1.407,2.179,2.813h0Zm-16.91-.035a4.215,4.215,0,0,0-1.547,2.918q0.141,0.808.7,0.668a2.832,2.832,0,0,0,1.688-.879q2.988-3.129,1.793-5.941-0.246-.386-0.809.773a8.594,8.594,0,0,1-1.828,2.461h0Zm86.7-23.484a2.914,2.914,0,0,0,.317.6,11.916,11.916,0,0,1,.211,3.164,0.543,0.543,0,0,1-.528.6l-0.7.07a1.917,1.917,0,0,1-.773,0,0.813,0.813,0,0,1-.176-0.633,1.849,1.849,0,0,0-.035-1.336,0.684,0.684,0,0,0-.668-0.457q-0.246,0,0,.773a3.26,3.26,0,0,1-.07,1.617,2.1,2.1,0,0,0-.246.844q0.28,0.633.738,0.352a4.5,4.5,0,0,1,1.793-.6,0.627,0.627,0,0,1,.7.668v0.773a0.542,0.542,0,0,1-.527.6q-1.232.105-2.461,0.281a2.156,2.156,0,0,1-.668.035q-0.669-.281-0.879.105a1.279,1.279,0,0,0,.6.527,1.225,1.225,0,0,0,.668.176,26.733,26.733,0,0,1,4.641-.6,12.959,12.959,0,0,1,3.27.035,2.442,2.442,0,0,0,.738.141q0.456-.456-0.035-0.738a1.5,1.5,0,0,0-1.336-.316,10.761,10.761,0,0,1-2.672.211A0.518,0.518,0,0,1,241,60.313V59.4a0.543,0.543,0,0,1,.527-0.6,5.812,5.812,0,0,1,.879-0.07q0.633,0,.668.387,0.035,0.493.422,0.316a1.829,1.829,0,0,0,.352-1.406,5.778,5.778,0,0,1,.316-1.863,0.422,0.422,0,0,0-.281-0.492,1.49,1.49,0,0,0-.774-0.176,1.573,1.573,0,0,0,.035.738,3.459,3.459,0,0,1,0,1.23,0.605,0.605,0,0,1-.6.668l-0.844.035a0.537,0.537,0,0,1-.668-0.527,12.337,12.337,0,0,1,.176-2.988A0.556,0.556,0,0,0,241,54.02a0.957,0.957,0,0,0-1.055-.316,0.446,0.446,0,0,0-.176.246h0Zm2.883,11.18a4.166,4.166,0,0,1-.914,1.266,1.015,1.015,0,0,1-1.195.281l-2.531-1.09a2.489,2.489,0,0,0-.774-0.176q-0.141.071,0.668,0.527l2,1.09q0.668,0.387.106,0.773a24.872,24.872,0,0,1-3.305,2.039,1.094,1.094,0,0,0-.6.457,12.477,12.477,0,0,0,4.571-2.109,0.935,0.935,0,0,1,1.16.035l0.668,0.492a10.636,10.636,0,0,1,1.336,1.09q0.807,0.633,1.019-.352a2.639,2.639,0,0,0-.6-0.668,19.523,19.523,0,0,0-1.863-1.09q-0.562-.351-0.035-0.844l0.949-.949a2.206,2.206,0,0,0,.7-0.7,1.411,1.411,0,0,0-.457-0.633,0.551,0.551,0,0,0-.738-0.106,5.443,5.443,0,0,1-.176.668h0Zm-2.074,9.246a2.984,2.984,0,0,1-.7,1.828,15.483,15.483,0,0,1-3.129,4.148,0.872,0.872,0,0,0-.316,1.441,1.1,1.1,0,0,0,.843-0.07,18.9,18.9,0,0,1,7.524-.6q0.843-.176.14-0.773a1.923,1.923,0,0,0-1.441-.211q-2.778.422-5.309,0.6a0.48,0.48,0,0,1-.457-0.141,0.984,0.984,0,0,1,.317-0.633l3.375-4.57a3.718,3.718,0,0,0,.527-0.844,1.212,1.212,0,0,0-1.512-.984,3.25,3.25,0,0,0,.141.809h0Zm-25.77-14.2a0.913,0.913,0,0,1-.949.914l-5.238.6a1.862,1.862,0,0,1-1.371-.246,3.194,3.194,0,0,0-2.32-.316,0.381,0.381,0,0,0-.106.352,7.792,7.792,0,0,1,.914,1.617,26.6,26.6,0,0,1,1.2,7.031q-0.072,2.075,1.16,2.32a1.431,1.431,0,0,0,.386-0.879q0.141-.738.387-0.633a3.044,3.044,0,0,0,1.02.07l3.867-.281a0.851,0.851,0,0,1,1.054.844V82.637q-0.176,1.371.493,1.477,1.23-1.3,1.476-4.992,0.106-3.9.071-7.7a0.9,0.9,0,0,1,.843-0.984q3.3-.316,6.61-0.527a3.2,3.2,0,0,0,.914-0.176q0.667-.633-0.457-1.23-0.633-.211-0.246-1.055a11.058,11.058,0,0,1,3.129-4.535A0.94,0.94,0,0,0,228,61.543q-2.355-2.637-4.816-2.039a26.641,26.641,0,0,1-5.274,1.02q-1.055.106-1.054-.738a11.877,11.877,0,0,1,.738-5.027,1.372,1.372,0,0,0,.14-0.633,3.866,3.866,0,0,0-2.671-1.828q-1.477-.562-1.793.141a12.564,12.564,0,0,1,1.546,7.734h0Zm8.825,2.039a34.318,34.318,0,0,1-1.2,4.922,1.647,1.647,0,0,1-1.23,1.266l-3.305.352q-1.055.071-1.054-.773V62.7a0.9,0.9,0,0,1,.843-0.984,26.223,26.223,0,0,1,5.52-.352,0.64,0.64,0,0,1,.422.844h0Zm-8.825.844v5.168a0.859,0.859,0,0,1-.843.949l-4.289.457q-1.091.105-1.125-.738a39.919,39.919,0,0,0-.6-4.992q-0.177-.878.809-0.879l4.992-.7q1.054-.105,1.054.738h0ZM290.5,58.2a0.921,0.921,0,0,0-1.02.246,1.084,1.084,0,0,0,.563.492,2.372,2.372,0,0,0,1.336-.035,11.655,11.655,0,0,1,1.3-.141q0.632-.07.457,0.492a10.547,10.547,0,0,1-.528,1.336,1,1,0,0,0-.175.844,0.81,0.81,0,0,0,.949.035,10.878,10.878,0,0,1,2.707-.352,0.785,0.785,0,0,1,.949.316,6.068,6.068,0,0,1-1.16,3.586,0.887,0.887,0,0,1-1.266.457l-0.492-.176a1.028,1.028,0,0,0-.738-0.246,2.385,2.385,0,0,0,.562.738,1.678,1.678,0,0,1,.352.668,0.517,0.517,0,0,0,.351.387,2.129,2.129,0,0,0,2-1.336,6.5,6.5,0,0,0,1.09-2.672,7.25,7.25,0,0,1,.422-1.336q0.563-.633-0.563-1.09a0.816,0.816,0,0,0-.632-0.035,13.7,13.7,0,0,1-2.637.316q-1.091.141-.633-0.879l0.211-.527a1.071,1.071,0,0,1,.774-0.773,22.588,22.588,0,0,1,4.57-.035q0.667,0.105.7-.457a2.783,2.783,0,0,0-.738-0.422,1.326,1.326,0,0,0-.95,0,68.663,68.663,0,0,1-7.769.6h0Zm11.918,11.18q0.738,0.949,1.441-.422l1.371-2.637a1.243,1.243,0,0,0,.106-0.668,0.542,0.542,0,0,0-.246.141q-0.669.738-1.406,1.477a0.934,0.934,0,0,1-1.336,0l-1.125-1.16q-0.6-.527-0.6-0.352Zm-11.988.668a1.29,1.29,0,0,0,.457.6,1.163,1.163,0,0,1,.457.984,1.925,1.925,0,0,1-.6,1.16,0.928,0.928,0,0,0-.457,1.019,0.462,0.462,0,0,0,.422.281,12.885,12.885,0,0,1,2.426-.352q0.561,0,.211.668a9.836,9.836,0,0,1-2.883,3.3,1.591,1.591,0,0,0-.6.633q0.105,0.246.527,0a9.466,9.466,0,0,0,3.938-4.043,1.214,1.214,0,0,1,.879-0.738l1.2-.035a3.224,3.224,0,0,1,.774-0.035,0.518,0.518,0,0,1,.316.387,9.132,9.132,0,0,1-1.336,3.938,2.213,2.213,0,0,0-.352.738,0.535,0.535,0,0,0,.6-0.141,7.576,7.576,0,0,0,1.442-2.461,6.385,6.385,0,0,1,.527-1.3,1.845,1.845,0,0,0,.387-0.844,1.628,1.628,0,0,0-1.9-1.055l-1.195.105q-0.669.071-.457-0.457l0.211-.6a1.448,1.448,0,0,0,.14-1.019c-0.094-.211.036-0.316,0.387-0.316l1.3-.106h1.687q0.668-.175.422-0.668a1.337,1.337,0,0,0-.879-0.211,66.16,66.16,0,0,1-7.136.422,1.244,1.244,0,0,0-.914.141h0Zm4.148,1.02-0.352,1.3a0.926,0.926,0,0,1-.773.738l-1.125.07a1.284,1.284,0,0,1-.6-0.07,0.444,0.444,0,0,1,.036-0.6q0.281-.633.492-1.2a0.846,0.846,0,0,1,.738-0.7l0.6-.035,0.351-.035q0.738-.035.633,0.527h0Zm-32.52-9.211a1.057,1.057,0,0,1-.878,1.09q-2.849.738-5.7,1.3a0.459,0.459,0,0,0-.1.352,3.41,3.41,0,0,0,1.16.422,12.059,12.059,0,0,0,4.184-.422q1.019-.176.632,0.773a24.036,24.036,0,0,1-6.4,9.668q-0.95.949-.422,0.984a4.78,4.78,0,0,0,2.5-1.3,17.875,17.875,0,0,0,4.36-5.168q0.666-.914.6,0.352a61.818,61.818,0,0,1-.738,9.773,4.51,4.51,0,0,0,.1,2.6,2.39,2.39,0,0,0,.809,1.125A3.35,3.35,0,0,0,262.977,82a88.085,88.085,0,0,0,.562-12.551q0-.914.633,0.07a12.556,12.556,0,0,0,1.512,1.723q1.335,1.126,1.722-.387,0.351-1.793-2.777-2.883a1.38,1.38,0,0,1-1.055-1.266V64.777a1.038,1.038,0,0,1,.879-1.055q1.371-.387,2.707-0.633a0.7,0.7,0,0,0,.668-0.773,0.887,0.887,0,0,0-.879-0.668,4.836,4.836,0,0,0-2.285.352q-1.054.246-1.055-.6a32.148,32.148,0,0,1,.493-5.976q0.456-1.477-1.9-2.215-1.054-.105-0.773,1.3a28.809,28.809,0,0,1,.632,7.348h0Zm13.641-7.7a14.963,14.963,0,0,1,.633,1.793q0.105,2.32-.035,8.332a3.337,3.337,0,0,0,1.441,2.707,7.387,7.387,0,0,0,4.149.809q3.409-.105,4.464-2.32a28.56,28.56,0,0,1-.667-2.953,1.339,1.339,0,0,0-.317-0.949,12.775,12.775,0,0,0-.457,1.547,2.751,2.751,0,0,1-2,2.285q-3.024.6-4.465-.211a5.736,5.736,0,0,1-.457-3.691,0.845,0.845,0,0,1,.879-1.02,32.339,32.339,0,0,0,4.781-1.336q1.02-.281.493-0.984a2.088,2.088,0,0,0-2.25-.035l-2.778.984q-1.054.282-.949-0.562a13.775,13.775,0,0,1,.774-3.586q-1.619-1.687-3.059-1.23Zm-7.312,3.3q1.089,2,.668,6.258a8.12,8.12,0,0,1-.985,2.813,3.4,3.4,0,0,0-.316,1.406q0.809,2.6,2.215.738,1.827-1.863,3.621-3.445a6.3,6.3,0,0,0,1.16-1.23q-0.036-.246-1.442.527l-1.722.879q-1.09.6-1.09-.281l0.105-2.953a0.628,0.628,0,0,1,.844-0.7,6.289,6.289,0,0,0,2.391-.562,2.418,2.418,0,0,0,1.125-.738,0.511,0.511,0,0,0-.211-0.7,1.8,1.8,0,0,0-1.582-.105l-1.406.6q-1.056.316-.95-0.527a7.633,7.633,0,0,0,.211-1.863,2.144,2.144,0,0,0-1.019-.984q-1.477-.878-2.215-0.352a2.826,2.826,0,0,0,.6,1.23h0Zm3.234,13.359a1.88,1.88,0,0,1-1.477.809,1.2,1.2,0,0,0-.738.141A4.353,4.353,0,0,0,269.9,73a16.483,16.483,0,0,1,.317,5.555,3.22,3.22,0,0,1-.317.984,2.277,2.277,0,0,0,.036,2.109q0.878,1.722,1.652.211c0.093-.258.422-0.34,0.984-0.246l5.942-.668a6.178,6.178,0,0,1,.7,1.23,1.506,1.506,0,0,1,.211.457q0.526,1.195.808,1.125a2.906,2.906,0,0,0,1.2-1.547,12.621,12.621,0,0,0,.668-5.133,12.982,12.982,0,0,1,.281-3.937,3.863,3.863,0,0,0,.492-1.547,5.483,5.483,0,0,0-2.883-1.687,33.213,33.213,0,0,1-6.644,1.652q-1.055.071-.071-0.773a15.6,15.6,0,0,0,3.27-2.777,3,3,0,0,0-2-1.09,1.147,1.147,0,0,0-1.231,1.09,9.546,9.546,0,0,1-1.687,2.813h0Zm8.437,2.32A24.683,24.683,0,0,1,279.641,80c-0.071.093-.129,0.058-0.176-0.106a2.959,2.959,0,0,0-2.6-.211l-3.972.668q-1.127.175-1.09-.844V77.75a0.713,0.713,0,0,1,.844-0.809q2.531-.281,5.062-0.738a2.145,2.145,0,0,0,1.195-.422q0.246-.667-0.773-0.914a7.148,7.148,0,0,0-2.813.457l-2.461.457q-1.055.141-1.054-.7V73.707a1,1,0,0,1,.844-1.055q3.023-.527,6.011-0.914a1.329,1.329,0,0,1,1.406,1.406h0Zm67.993-15.539a4.906,4.906,0,0,1-.457,2.742,0.837,0.837,0,0,1-.774.668l-2.847.141c-0.47.07-.633,0.211-0.493,0.422a1.128,1.128,0,0,0,1.371.387q0.808-.211,1.653-0.351,0.633-.07.457,0.492a9.692,9.692,0,0,1-1.3,2.5,1.087,1.087,0,0,0-.211.6,0.842,0.842,0,0,0,.985.668,7.156,7.156,0,0,1,1.335-.352l2.532-.387a0.843,0.843,0,0,1,.879.457l0.421,0.527q0.246,0.246.422,0.07,0.458-.7-0.843-2.074a2.653,2.653,0,0,0-1.372-1.02,1.405,1.405,0,0,0,.317.809q0.387,0.633-.176.738-1.407.246-2.812,0.422-0.633.105-.668-0.352a3.42,3.42,0,0,1,.316-0.773q0.351-.914.773-1.793a0.972,0.972,0,0,1,.809-0.7,13.689,13.689,0,0,1,4.289,0,2.749,2.749,0,0,0,.738.07q0.423-.386-0.035-0.668a1.292,1.292,0,0,0-1.336-.211q-1.653.176-3.339,0.281-0.633.035-.422-0.492a18.916,18.916,0,0,0,.843-2.461,0.889,0.889,0,0,0-.14-0.809,0.725,0.725,0,0,0-.914-0.281,1.609,1.609,0,0,0,0,.738h0Zm8.121,11.777q0.738,0.949,1.441-.422l1.371-2.637a1.256,1.256,0,0,0,.106-0.668,0.542,0.542,0,0,0-.246.141q-0.669.738-1.407,1.477a0.934,0.934,0,0,1-1.336,0l-1.125-1.16q-0.6-.527-0.6-0.352ZM350.867,72.9l-5.308.352a3.226,3.226,0,0,1-1.266-.035,2.022,2.022,0,0,0-.773.035,0.719,0.719,0,0,0,.316.527,2.049,2.049,0,0,0,1.055.422,18.857,18.857,0,0,0,2-.387q1.335-.175,2.671-0.246h1.688l1.512,0.07a0.759,0.759,0,0,0,.668-0.07q0.28-.176.14-0.352a1.152,1.152,0,0,0-.562-0.387,2.721,2.721,0,0,0-1.477-.07,1.044,1.044,0,0,1-.668.141h0ZM331.6,54.512a20.754,20.754,0,0,1-.071,2.426,1.289,1.289,0,0,1-1.23,1.23q-1.02.211-.949-0.7l0.035-.492a2.257,2.257,0,0,0-.844-1.828,3.61,3.61,0,0,0-1.934-.527,0.418,0.418,0,0,0-.246.246,4.895,4.895,0,0,1,1.2,2.707,0.934,0.934,0,0,1-.7,1.266q-2.109.6-2.917,0.105a3.167,3.167,0,0,0-1.231,0,2.43,2.43,0,0,0,.492,1.23,39.751,39.751,0,0,1,1.758,5.625,2.515,2.515,0,0,0,.949,1.863q0.351,0.035.422-.492,0.071-.317.809-0.246,3.2-.492,6.363-0.879a1.616,1.616,0,0,1,1.371.316q0.95,0.774,1.336-.809L338,59.926a7.538,7.538,0,0,0,.773-1.266q-2.355-2.5-3.585-1.758l-1.161.387q-0.772.246-.668-0.773a7.962,7.962,0,0,1,.246-1.371,3.831,3.831,0,0,0,.282-1.3,3.587,3.587,0,0,0-1.512-.914q-1.442-.281-0.949.879a2.634,2.634,0,0,1,.176.7h0Zm-17.684,2.039a1.814,1.814,0,0,1-1.371,0,4.144,4.144,0,0,0-.914-0.246q-1.161-.035-1.125.246a4.758,4.758,0,0,0,.422.879,18.094,18.094,0,0,1,1.265,6.645q0.246,1.09-.6,1.266a0.907,0.907,0,0,1-1.055-.246,2.859,2.859,0,0,0-.563-0.6q-0.246-.105-0.6,1.266l-0.211.7a7.377,7.377,0,0,0-1.09,2.813,0.69,0.69,0,0,0,.668.879q1.2-.351,1.688-2.777a1.062,1.062,0,0,1,1.124-.984,72.9,72.9,0,0,1,7.981-1.23,2.088,2.088,0,0,1,1.23.246l-0.246,1.406q-0.317,1.266,1.125,0a14.709,14.709,0,0,1,1.407-1.125q1.722-.773.246-1.828-1.548-1.336-2.813-.422a1.386,1.386,0,0,1-.457.176q-0.809.211-.562-0.738,0.877-3.691,1.371-5.238a1.473,1.473,0,0,0-.492-1.969,1.848,1.848,0,0,0-2.5-.316,39.057,39.057,0,0,1-3.937,1.2h0Zm4.711,1.617a1.3,1.3,0,0,1-1.125,1.16,2.386,2.386,0,0,1-1.723,0,3.847,3.847,0,0,0-.879-0.211,1.711,1.711,0,0,0,.071,1.2,14.614,14.614,0,0,1,.175,3.516,0.942,0.942,0,0,1-.878.984q-0.915.176-.844-0.809a35.817,35.817,0,0,0-.317-5.309,0.944,0.944,0,0,1,.774-1.231,26.752,26.752,0,0,1,2.672-.492q2.214-.738,2.074,1.2h0ZM335.645,60a30.158,30.158,0,0,1-.7,3.973,1.278,1.278,0,0,1-1.441.808q-1.125.176-1.055-.668l0.071-.6a1.373,1.373,0,0,1,1.054-1.23,0.84,0.84,0,0,0,1.125-.738,0.869,0.869,0,0,0-.738-0.492A0.838,0.838,0,0,1,333.008,60l0.07-.492a1.07,1.07,0,0,1,1.055-.914q1.792-.351,1.512,1.406h0Zm-4.29.492a1.374,1.374,0,0,1-1.16,1.3q-0.984.176-.984-0.668V60.207a1.05,1.05,0,0,1,1.09-1.02q1.089-.175,1.09.668a1.929,1.929,0,0,1-.036.633h0Zm-3.48.7a0.928,0.928,0,0,1-.668,1.16l-0.914.176a0.2,0.2,0,0,0-.035.317l0.562,0.211a1.029,1.029,0,0,1,1.16.914v0.668a1.1,1.1,0,0,1-.808,1.3,0.791,0.791,0,0,1-1.055-.668L325.555,60.8q-0.212-.738.738-0.984l0.387-.07q1.125-.175,1.16.633Zm-9.844,1.793a1.271,1.271,0,0,1-1.019,1.3q-0.915.176-.7-0.738a6.39,6.39,0,0,1,.175-1.793,1.184,1.184,0,0,1,1.055-1.125,0.544,0.544,0,0,1,.7.7ZM331,64.18a1.117,1.117,0,0,1-.949,1.2,0.671,0.671,0,0,1-.879-0.738V63.9a0.943,0.943,0,0,1,.949-0.984q1.02-.175.949,0.563Zm-16.734,3.8a2.319,2.319,0,0,1-1.407-.176,2.513,2.513,0,0,0-1.511-.246,3.57,3.57,0,0,0,.492,1.3,11.6,11.6,0,0,1,.351,2.074,42.189,42.189,0,0,1-.527,8.754,3.119,3.119,0,0,0,.527,3.586,1.97,1.97,0,0,0,.914-1.793,36.283,36.283,0,0,0,.282-4.711q0-.949.773-0.844a12.2,12.2,0,0,0,1.863-.141,2.713,2.713,0,0,0,1.266-.352q0.034-1.3-1.758-.914l-1.055.281q-1.055.211-1.054-.633a3.5,3.5,0,0,1,.035-0.879,0.627,0.627,0,0,1,.844-0.7,7.152,7.152,0,0,0,1.582-.246,2.706,2.706,0,0,0,1.23-.422,0.5,0.5,0,0,0-.105-0.738,1.866,1.866,0,0,0-1.582-.141,5.31,5.31,0,0,0-.985.316q-0.984.316-.949-0.633l0.035-.422a1.408,1.408,0,0,1,1.055-1.3q2.25-.738,3.094-0.352a6.2,6.2,0,0,1,.281,2.742q0.034,3.375-.106,6.75,0.106,2.215-2.039,1.477-1.2-.105-0.316,1.02l1.055,1.477a3.026,3.026,0,0,0,1.125,1.02,3.612,3.612,0,0,0,1.687-2.356l0.246-1.406q-0.1-4.816-.105-9.633a0.877,0.877,0,0,0,.105-0.387,2.243,2.243,0,0,0,.282-1.336q-1.407-1.547-2.813-.984a5.833,5.833,0,0,1-2.812.949h0ZM325.1,69q-1.548.316-.246,0.773a8.594,8.594,0,0,0,2.566-.035q4.218-.456,8.437-1.055a0.632,0.632,0,0,0,.668-0.6,0.96,0.96,0,0,0-1.019-.668,5.8,5.8,0,0,0-1.828.141q-4.008.774-8.578,1.441h0Zm1.3,2.742a3.1,3.1,0,0,0-2-.352q-0.247.211,0.808,1.512a16.86,16.86,0,0,1,1.231,2.813,3.953,3.953,0,0,0,.632.984q0.668,0.316.668-.457,0-.281.809-0.387l5.66-.633a1.447,1.447,0,0,0,1.16-.422,1.057,1.057,0,0,0-.281-0.457q-0.246-.211.176-0.949a4.52,4.52,0,0,1,.984-1.16,0.961,0.961,0,0,0-.035-1.687,2.672,2.672,0,0,0-3.48-.176,22.017,22.017,0,0,1-6.329,1.371h0Zm7.278,0.844-0.141.457a1.551,1.551,0,0,1-1.2,1.2q-1.9.282-3.692,0.668a0.9,0.9,0,0,1-1.23-.668,1.675,1.675,0,0,0-.106-0.6q-0.281-1.055.563-1.2,2.426-.351,4.816-0.844,1.546-.281.985,0.984h0Zm-1.371,6.609a2.008,2.008,0,0,1-1.442,1.16,74.846,74.846,0,0,1-8.015.809,2.732,2.732,0,0,0-1.582.246q-0.177.176,1.125,0.844a10.2,10.2,0,0,0,4.007-.106,111.027,111.027,0,0,1,12.411-.844,4.523,4.523,0,0,0,1.406-.141q0.668-.879-0.879-1.477a14.96,14.96,0,0,0-5.274.211q-1.055.105-.21-0.738l0.773-.773a1.087,1.087,0,0,0,0-1.863q-1.3-.949-1.863-0.492a3.123,3.123,0,0,1-.457,3.164h0Zm-3.692.773a1.162,1.162,0,0,0,.106-1.441,2.787,2.787,0,0,0-2.356-1.23q-1.02-.035-0.211,1.16,1.23,1.652,2.461,1.512h0Zm-142.7,40.359a3.843,3.843,0,0,1,.422,1.864v2.039a0.445,0.445,0,0,1,0,.246,0.556,0.556,0,0,1-.527.7l-0.809.105a1.259,1.259,0,0,1-.6,0,0.438,0.438,0,0,1-.211-0.246,5.73,5.73,0,0,1,.071-1.476,0.952,0.952,0,0,0-.879-1.055,1.033,1.033,0,0,0,.1.738,5.37,5.37,0,0,1-.14,2.11,1,1,0,0,0-.176.668c0.117,0.328.258,0.469,0.422,0.421a1.386,1.386,0,0,0,.738-0.281,6.156,6.156,0,0,1,1.406-.351c0.445-.023.668,0.14,0.668,0.492v1.23a0.533,0.533,0,0,1-.562.6q-1.266.105-2.567,0.281a2.273,2.273,0,0,1-.668.035,1.674,1.674,0,0,0-.738,0,0.259,0.259,0,0,0,.07.352,1.686,1.686,0,0,0,1.547.387,37.364,37.364,0,0,1,5.028-.6H190.2a4.679,4.679,0,0,1,.914.141,1.518,1.518,0,0,0,.738.07,0.335,0.335,0,0,0,.211-0.387,1.246,1.246,0,0,0-1.511-.6,13.492,13.492,0,0,1-2.848.176q-0.667.036-.668-0.492v-1.3a0.52,0.52,0,0,1,.6-0.527l0.914-.035q0.633-.034.633,0.211,0.1,0.7.492,0.351a1.129,1.129,0,0,0,.281-0.879,10.555,10.555,0,0,1,.281-2.5q0.246-.492-0.527-0.808c-0.329-.117-0.5-0.094-0.527.07a5.061,5.061,0,0,0,.1.773,12.04,12.04,0,0,1-.035,1.583,0.5,0.5,0,0,1-.563.527l-0.984.07a0.527,0.527,0,0,1-.633-0.633q0-1.23.071-2.39a3.238,3.238,0,0,1,.07-0.7,0.853,0.853,0,0,0-.387-1.266,0.774,0.774,0,0,0-.808-0.035,0.241,0.241,0,0,0-.106.316h0Zm7.629,9.809a25.681,25.681,0,0,0,3.41,2.285,2.023,2.023,0,0,0-.351-0.7q-1.02-1.3-2.075-2.531a0.573,0.573,0,0,0-.984-0.071,0.6,0.6,0,0,0,0,1.02h0Zm-5.731,5.1a0.705,0.705,0,0,1-1.054.282q-1.478-.984-2.6-1.653a1.155,1.155,0,0,0-.738-0.246q-0.141.072,0.633,0.739a24.537,24.537,0,0,1,2,1.546,0.657,0.657,0,0,1,.14,1.09,26.208,26.208,0,0,1-3.586,2.953q-0.668.458-.457,0.493a2.477,2.477,0,0,0,.528-0.141,12.439,12.439,0,0,0,4.008-2.707,0.874,0.874,0,0,1,1.3-.035,19.152,19.152,0,0,1,1.828,1.863q0.667,1.02,1.2.668a0.655,0.655,0,0,0,.07-1.02,15.653,15.653,0,0,0-2.531-2.214,0.689,0.689,0,0,1-.071-1.16l0.493-.668q0.633-.915.984-1.336,0.633-.562.246-0.985a1.382,1.382,0,0,0-.879-0.6,1.442,1.442,0,0,0-.281.7,6.1,6.1,0,0,1-1.231,2.425h0Zm-19.968-12.621A1.028,1.028,0,0,0,168.9,121.1q-0.28-1.9-2.777-2.356a11,11,0,0,0-3.059-.07,2.362,2.362,0,0,0,.774,1.16q2.355,2.567,4.008,2.777h0Zm-11.426,1.02a0.615,0.615,0,0,0,.668-0.844,2.654,2.654,0,0,0-1.512-2.461,9.265,9.265,0,0,0-2.461-.738q-1.055.036-.14,1.336,2.073,2.53,3.445,2.707h0Zm2.144,2.637a0.565,0.565,0,0,0-.14.351,5.331,5.331,0,0,0,3.164.809q1.266-.246,2.531-0.387a0.814,0.814,0,0,1,1.055.844l0.14,3.551a0.973,0.973,0,0,1-.843,1.195q-2,.317-4.008.492-1.02-.035-1.02.527a3.065,3.065,0,0,0,2.18.774,25.749,25.749,0,0,0,2.707-.211,0.822,0.822,0,0,1,1.055.809l0.035,3.9a0.944,0.944,0,0,1-.809,1.16l-8.086.949a3.007,3.007,0,0,0-1.3.352,4.219,4.219,0,0,0,1.3,1.055,3.775,3.775,0,0,0,1.407.281,74.5,74.5,0,0,1,16.523-1.266,27.544,27.544,0,0,0,3.2.176,0.989,0.989,0,0,0,.914-0.457,1.1,1.1,0,0,0-.668-1.231,3.973,3.973,0,0,0-3.023-.984l-6.715.7q-1.054.071-1.055-.773-0.035-2,.036-3.9a1.066,1.066,0,0,1,.879-1.2,13.3,13.3,0,0,0,4.57-.879q0.843-.422.457-0.984a4.072,4.072,0,0,0-2.567-.563q-1.23.282-2.46,0.668-0.74.177-.7-0.808a14.264,14.264,0,0,1,.282-2.075,1.617,1.617,0,0,0,0-1.933q-0.494-.492.351-0.668l2.356-.352a11.848,11.848,0,0,0,2.812-.492,1.48,1.48,0,0,0,1.125-.7,0.979,0.979,0,0,0-1.125-.984,4.925,4.925,0,0,0-3.129.316,73.206,73.206,0,0,1-11.426,1.934h0Zm-6.925,4.359q1.194,0.563,1.441-.563a2.665,2.665,0,0,0-1.23-2.425,6.517,6.517,0,0,0-2.637-.879q-1.2-.034-0.457,1.054a8.941,8.941,0,0,0,2.883,2.813h0Zm1.511,5.555a9.938,9.938,0,0,1-2.918,4.078q-0.843.316-.7,0.773a5.626,5.626,0,0,0,1.055,2.5q1.02,1.794,1.652.493,0.528-2.251,2.18-7.032,0.95-2.812,1.723-5.625a3.8,3.8,0,0,0,.1-1.019q-0.175-.246-0.808.914-1.2,2.461-2.286,4.922h0Zm89.79-11.461-4.114.281a11.344,11.344,0,0,1-2.672.035,2.053,2.053,0,0,0-.738.07,1.845,1.845,0,0,0,1.477.915,22.118,22.118,0,0,1,7-.6,2.889,2.889,0,0,0,1.547-.035q0.21-.175.1-0.317a1.233,1.233,0,0,0-1.16-.527,1.169,1.169,0,0,0-.738-0.035,5.79,5.79,0,0,1-.7.211h0Zm-4.852,7.593a7.844,7.844,0,0,1-1.2,3.657,0.885,0.885,0,0,0-.493,1.125,0.3,0.3,0,0,0,.352.211,1.119,1.119,0,0,0,.809-0.387,5.852,5.852,0,0,1,1.336-.281,34.213,34.213,0,0,1,3.972-.352,1.223,1.223,0,0,1,.914.211,0.674,0.674,0,0,1,.035.633,23.329,23.329,0,0,1-1.3,3.2q-0.352.563,0.035,0.633a3.851,3.851,0,0,0,1.371-1.758q0.422-.984.914-2a1.293,1.293,0,0,0,0-1.3,0.744,0.744,0,0,0-.633-0.351l-1.336.141a17.714,17.714,0,0,0-4.465.421,2.117,2.117,0,0,1-.632.036,1.268,1.268,0,0,1,.246-0.7,27.961,27.961,0,0,0,1.089-2.671,0.516,0.516,0,0,0-.351-0.809,1.136,1.136,0,0,0-.774-0.106,1.071,1.071,0,0,0,.106.457h0ZM215.2,118.777q1.477,1.443,2.531.528,1.125-1.758-.984-2.778a9.2,9.2,0,0,0-2.742-.6q-1.02-.035-0.316,1.09a13.6,13.6,0,0,0,1.511,1.757h0Zm-8.261,3.9c-0.165.094-.094,0.293,0.21,0.6a2.277,2.277,0,0,0,2.11.6q3.375-.351,8.015-1.09a0.93,0.93,0,0,1,1.2.809,14.673,14.673,0,0,1-1.16,4.429,1.7,1.7,0,0,1-1.336,1.125q-6.645.95-13.289,2a2.149,2.149,0,0,0-1.3.387,3.57,3.57,0,0,0,1.3,1.055,3.381,3.381,0,0,0,2.812-.106q13.183-2.917,22.149-2.426a9.7,9.7,0,0,0,2.847.071q1.266-.633,0-1.512a4.489,4.489,0,0,0-3.48-.984l-8.192,1.054q-0.772.107-.1-0.843,1.441-2.074,3.023-4.043a4.387,4.387,0,0,0-1.23-1.02q-0.81-.385.246-0.562l3.164-.493q0.7-.281.562-0.668-0.913-1.23-3.621-.914a58.529,58.529,0,0,1-13.921,2.532h0Zm4.957,5.59a1.033,1.033,0,0,0,1.265.246,1.748,1.748,0,0,0,.211-1.547,3.2,3.2,0,0,0-2.566-2.25q-1.02-.07-0.528,1.019a13.23,13.23,0,0,0,1.618,2.532h0Zm0.492,5.941a1.739,1.739,0,0,1-1.336-.281,3.329,3.329,0,0,0-.739-0.211,1.572,1.572,0,0,0-1.23.176,3.922,3.922,0,0,0,.563,1.265,4.045,4.045,0,0,1,.421,1.406l-0.035,4.641a6.007,6.007,0,0,1-.246,1.688,2.556,2.556,0,0,0,1.3,3.234,1.362,1.362,0,0,0,.668-1.195q0.035-.494.949-0.6l4.606-.527a1.513,1.513,0,0,1,1.617.6l0.6,1.16a4.429,4.429,0,0,0,.915,1.547,1.27,1.27,0,0,0,1.019-.949,6.14,6.14,0,0,0,.879-2.812l0.176-6.469a4.329,4.329,0,0,1,.316-1.406,1.828,1.828,0,0,0-.492-2.215,5.9,5.9,0,0,0-1.863-.844,3.417,3.417,0,0,0-1.442.352,48.8,48.8,0,0,1-6.644,1.441h0Zm7.945,1.617a52.828,52.828,0,0,1-.211,6.328,0.562,0.562,0,0,1-.984.246,2.822,2.822,0,0,0-.949-0.211q-2.637.351-5.274,0.809-1.054.139-1.09-.7v-1.336a0.94,0.94,0,0,1,.879-1.125l4.852-.774a2.182,2.182,0,0,0,1.195-.492,1.754,1.754,0,0,0-1.934-1.019q-1.968.387-3.937,0.879-1.125.282-1.125-.528l-0.035-1.793a0.94,0.94,0,0,1,.914-0.949q3.2-.6,6.363-0.949a1.358,1.358,0,0,1,1.336,1.617h0Z"/>
</svg>
