<svg xmlns="http://www.w3.org/2000/svg" width="400" height="200" viewBox="0 0 400 200">
  <defs>
    <style>
      .cls-1 {
        fill: #fdfdfd;
        fill-rule: evenodd;
      }
    </style>
  </defs>
  <path id="王漢宗中明體繁" class="cls-1" d="M67.219,83.023H37.734q-1.36,0-1.172.7,0.187,0.516,1.594.516H52.641a1.016,1.016,0,0,1,1.125,1.172V99.1a1.016,1.016,0,0,1-1.172,1.125H39.75q-1.266,0-1.078.75,0.141,0.516,1.547.515H52.641a1.016,1.016,0,0,1,1.125,1.172v15.047a1.016,1.016,0,0,1-1.172,1.125H34.922q-1.36,0-1.172.7,0.187,0.516,1.594.516H74.906a1.729,1.729,0,0,0,1.688-.657q0.281-.609-1.453-1.968l-0.469-.375q-1.406-1.08-2.859.375a3.883,3.883,0,0,1-2.531,1.406H57.656a1.016,1.016,0,0,1-1.125-1.172V102.617a1.016,1.016,0,0,1,1.172-1.125H70.688a1.63,1.63,0,0,0,1.641-.7q0.234-.609-1.5-1.969l-0.469-.375q-1.406-1.078-2.859.375a3.882,3.882,0,0,1-2.531,1.407H57.656a1.016,1.016,0,0,1-1.125-1.172V85.367A1.016,1.016,0,0,1,57.7,84.242H72.8a1.786,1.786,0,0,0,1.734-.656q0.281-.609-1.078-1.687l-0.891-.7q-1.36-1.03-2.812.422a3.881,3.881,0,0,1-2.531,1.406h0Zm34.031-1.5a1.016,1.016,0,0,1-1.172,1.125H95.344q-1.36,0-1.172.7,0.187,0.516,1.594.516h4.359a1.016,1.016,0,0,1,1.125,1.172V90.43a1.176,1.176,0,0,0,1.406,1.359,1.551,1.551,0,0,0,1.313-1.641q0-1.218,1.593-1.219,1.5,0,1.5,1.172v2.063a1.015,1.015,0,0,1-1.171,1.125H99.938a2.327,2.327,0,0,1-2.156-.562q-1.406-.7-1.406.7v8.25q0,1.5,1.266,1.453,1.921,0,1.453-1.453,0-.75,1.172-0.75h5.578a0.973,0.973,0,0,1,1.078,1.172,7.13,7.13,0,0,1-.094,1.64,1.322,1.322,0,0,1-1.312,1.406H95.531q-1.36,0-1.172.7,0.187,0.516,1.594.515h9.469q1.077,0,.844,1.266l-0.282,1.312a1.69,1.69,0,0,1-1.593,1.407H92.859q-1.266,0-1.078.75,0.141,0.516,1.547.515h10.5q1.125,0,.61,1.125-4.36,6.563-10.969,8.11-1.454.373-1.266,0.89,0.281,0.609,1.875.235a34.054,34.054,0,0,0,6.563-2.438,14.673,14.673,0,0,0,6.562-6.375q0.75-1.5,1.313-.375a19.717,19.717,0,0,0,12.562,9.047q1.407,0.234,1.688-.375a3.694,3.694,0,0,1,1.125-1.359,1.511,1.511,0,0,0,.75-0.844q0-.282-1.782-0.422a18.123,18.123,0,0,1-12.515-5.813q-1.032-1.405.094-1.406H122.3a1.56,1.56,0,0,0,1.594-.656,1.343,1.343,0,0,0,.187-0.7l-2.156-1.688a1.966,1.966,0,0,0-2.813.375,3.879,3.879,0,0,1-2.531,1.407h-7.172q-1.031,0-.7-1.266l0.328-1.313a1.493,1.493,0,0,1,1.453-1.406h9.188a1.786,1.786,0,0,0,1.734-.656q0.328-.609-1.265-1.875-1.454-1.266-.469-1.359,0.984-.047.984-1.547V96.758a1.867,1.867,0,0,1,.469-1.5q1.78-1.171-.516-2.3-1.359-.937-2.109-0.281a2.69,2.69,0,0,1-1.828.609h-5.766a1.016,1.016,0,0,1-1.125-1.172V90.055q0-1.125,1.594-1.125a1.326,1.326,0,0,1,1.5,1.5,1.176,1.176,0,0,0,1.406,1.359,1.634,1.634,0,0,0,1.313-1.781V84.992a1.015,1.015,0,0,1,1.172-1.125h5.343a1.914,1.914,0,0,0,1.782-.656q0.234-.656-1.079-1.734a2.22,2.22,0,0,1-.562-0.422,1.965,1.965,0,0,0-2.812.234,3.85,3.85,0,0,1-2.626,1.359,1.057,1.057,0,0,1-1.218-1.172q0-1.125.422-1.219,1.593-.562.75-1.641a5.145,5.145,0,0,0-2.016-.422l-0.469-.047a1.117,1.117,0,0,0-1.406,1.266v2.109a1.016,1.016,0,0,1-1.172,1.125h-6.609a1.015,1.015,0,0,1-1.125-1.172,1.19,1.19,0,0,1,.75-1.312q1.264-.656.469-1.5a3.72,3.72,0,0,0-1.313-.375l-1.313-.187q-1.312-.141-1.312,1.359v2.063Zm-14.906-.375a12.375,12.375,0,0,1,2.672,3.422,5.963,5.963,0,0,0,.844,1.125q1.452,0.8,2.016-.844a3.042,3.042,0,0,0-.656-2.062A9.242,9.242,0,0,0,86.2,79.7q-1.36-.468-1.547-0.047-0.141.376,1.688,1.5h0Zm26.531,5.438a1.016,1.016,0,0,1-1.172,1.125h-6.609a1.015,1.015,0,0,1-1.125-1.172V84.992a1.015,1.015,0,0,1,1.172-1.125H111.8a1.02,1.02,0,0,1,1.078,1.219v1.5ZM85.734,107.117a3.477,3.477,0,0,1-3,2.11q-1.406.139-1.5,0.656-0.047.516,1.359,0.7a3.991,3.991,0,0,1,2.156.656,13.622,13.622,0,0,1,.188,5.672,13.986,13.986,0,0,0,.234,3.844,1.815,1.815,0,0,0,1.359,1.5,1.45,1.45,0,0,0,1.641-1.031q0.749-2.345-.937-7.266a6.431,6.431,0,0,1-.281-3.375,70.668,70.668,0,0,1,2.625-7.5l5.438-14.438q0.563-1.406,0-1.641-0.516-.187-1.172,1.359-4.125,9.376-8.109,18.75h0ZM83.109,92.4a9.109,9.109,0,0,1,2.25,3.281,2.268,2.268,0,0,0,1.828,1.969q1.734-.375.891-2.625a8.436,8.436,0,0,0-4.594-3.891q-1.406-.562-1.641-0.187-0.188.376,1.266,1.453h0Zm23.953,6.188a1.015,1.015,0,0,1-1.171,1.125h-5.672a1.016,1.016,0,0,1-1.125-1.172V95.68a1.016,1.016,0,0,1,1.172-1.125h5.765a1.028,1.028,0,0,1,1.031,1.266v2.766Zm10.876,0a1.016,1.016,0,0,1-1.172,1.125h-5.86a1.015,1.015,0,0,1-1.125-1.172V95.68a1.016,1.016,0,0,1,1.172-1.125h5.953a1.029,1.029,0,0,1,1.032,1.266v2.766Zm-0.985,5.3a3.549,3.549,0,0,1-2.391,1.265h-3.937a0.931,0.931,0,0,1-1.031-1.171,7.611,7.611,0,0,0,.094-1.641,1.193,1.193,0,0,1,1.218-1.406h5.953a0.88,0.88,0,0,1,1.079.89,2.914,2.914,0,0,1-.985,2.063h0Zm33.328-20.531a1.016,1.016,0,0,1-1.172,1.125H136.828a0.937,0.937,0,0,1-1.125-.984q0.047-.844-0.469-0.8-0.281.047-.562,1.453a11.43,11.43,0,0,1-4.172,6q-0.7,1.406.891,1.922,1.5,0.281,2.625-1.641a15.441,15.441,0,0,0,1.218-3.281,1.493,1.493,0,0,1,1.454-1.406h30.234q1.125,0,.7,1.125a21,21,0,0,1-1.453,2.531q-0.939,1.313-.563,1.641,0.375,0.281,2.063-1.312a4.011,4.011,0,0,0,.89-0.891q1.641-2.25,2.954-1.687,0.984,0.188,1.218-1.125a7.32,7.32,0,0,0-1.828-2.016,1.679,1.679,0,0,0-2.25-.281,3.414,3.414,0,0,1-2.109.75H154.172a1.016,1.016,0,0,1-1.125-1.172q-0.328-2.577.656-3.422,1.218-.844.375-1.5l-2.484-.469q-1.312-.187-1.313,1.313v4.125Zm7.266,9.8H139.125q-1.361,0-1.172.7,0.188,0.516,1.594.516h23.672a1.738,1.738,0,0,0,1.64-.656q0.282-.515-1.031-1.687l-0.89-.7q-1.407-1.03-2.86.422a3.88,3.88,0,0,1-2.531,1.406h0Zm7.5,7.875h-33q-1.361,0-1.172.7,0.188,0.516,1.594.515h16.687a1.016,1.016,0,0,1,1.125,1.172v14.2a1.562,1.562,0,0,1-1.781,1.453l-2.438-.375q-1.406-.28-1.593.282-0.094.563,1.312,1.125,2.25,0.936,2.625,2.062,0.141,0.7,1.547.281,2.859-1.078,3.094-3.422V103.367a1.015,1.015,0,0,1,1.172-1.125h16.406a1.786,1.786,0,0,0,1.734-.656q0.282-.609-1.125-1.734l-0.843-.656q-1.36-1.03-2.813.422a3.878,3.878,0,0,1-2.531,1.406h0Zm-33.656,17.063q-1.36,1.266-1.032,1.734,0.234,0.282,1.782-.656a29.38,29.38,0,0,0,8.39-8.625q1.03-1.5,1.641-1.406a1.344,1.344,0,0,0,.844-0.328q-0.094-1.172-2.016-1.782a1.22,1.22,0,0,0-1.969.657,30.713,30.713,0,0,1-7.64,10.406h0Zm28.312-9.422a23.88,23.88,0,0,1,7.969,9.75,3.554,3.554,0,0,0,.89,1.078q1.453,0.375,1.782-.7a2.846,2.846,0,0,0-.328-2.391,26.736,26.736,0,0,0-9.844-8.812q-1.266-.562-1.641-0.047-0.187.377,1.172,1.125h0Zm38.109-21.7a1.015,1.015,0,0,1-1.171,1.125H184.5a2.133,2.133,0,0,1-2.156-.609q-1.407-.7-1.406.7v20.109q0,1.453,1.828,1.313a1.756,1.756,0,0,0,.8-0.329,17.136,17.136,0,0,0,.094-2.531,1.016,1.016,0,0,1,1.172-1.125h11.86a1.015,1.015,0,0,1,1.124,1.172v14.016q0,1.5,1.266,1.406a3.7,3.7,0,0,0,1.406-.328,6.6,6.6,0,0,0,.094-1.594V106.742a1.016,1.016,0,0,1,1.172-1.125h12a1.016,1.016,0,0,1,1.125,1.172v1.172q0,1.454,1.781,1.312,1.407,0,.938-1.687v-15.8a1.271,1.271,0,0,1,.75-1.687,1.023,1.023,0,0,0,.89-0.656q0.282-1.171-1.828-1.969a1.915,1.915,0,0,0-2.3-.141,3.042,3.042,0,0,1-2.015.75H201.7a1.015,1.015,0,0,1-1.125-1.172V82.18a2.053,2.053,0,0,1,.8-1.734q1.359-.7.469-1.594a6.337,6.337,0,0,0-2.625-.562,1.03,1.03,0,0,0-1.407,1.172v7.5Zm0,16.266a1.015,1.015,0,0,1-1.171,1.125h-11.86a1.016,1.016,0,0,1-1.125-1.172V90.43a1.016,1.016,0,0,1,1.172-1.125h11.86a1.015,1.015,0,0,1,1.124,1.172v12.75Zm17.063,0a1.016,1.016,0,0,1-1.172,1.125h-12a1.016,1.016,0,0,1-1.125-1.172V90.43A1.016,1.016,0,0,1,201.75,89.3h12a1.016,1.016,0,0,1,1.125,1.172v12.75Zm47.109-22.875h-9.468a2.056,2.056,0,0,1-1.922-.469q-1.407-.8-1.406.609v8.531q-0.094,7.548-.376,10.219a58.733,58.733,0,0,1-1.359,7.5q-1.828,8.814-10.969,14.25-1.22.75-.843,1.36,0.14,0.234,1.734-.469,10.734-5.2,13.219-15.61a1.556,1.556,0,0,1,1.5-1.406h10.594a1.015,1.015,0,0,1,1.124,1.172v11.2q0.188,2.156-2.2,1.688a10.3,10.3,0,0,0-1.687-.235q-1.407-.234-1.547.282-0.047.514,1.359,0.984,1.875,0.609,2.11,1.781,0.234,0.7,1.64.422a3.957,3.957,0,0,0,3.094-2.625V83.867a1.277,1.277,0,0,1,.75-1.359q1.5-.984-0.89-2.484-1.407-1.171-2.391-.422a3.229,3.229,0,0,1-2.063.75h0Zm-34.968,29.062a1.219,1.219,0,0,0,1.359,1.453,2.682,2.682,0,0,0,1.313-.515,19.761,19.761,0,0,0,.093-2.672,1.016,1.016,0,0,1,1.172-1.125h7.172a1.016,1.016,0,0,1,1.125,1.172V108.9q0,1.454,1.828,1.36a1.361,1.361,0,0,0,.891-1.969V84.9a1.143,1.143,0,0,1,.8-1.312q2.624-.984-0.328-3.234-1.407-1.406-2.532-.281a3.141,3.141,0,0,1-2.2,1.078h-6.8q-1.125.376-2.437-1.078-1.453-1.078-1.453.328v29.016Zm36.8-18.7a1.015,1.015,0,0,1-1.171,1.125h-9.563a1.015,1.015,0,0,1-1.125-1.172V82.742a1.016,1.016,0,0,1,1.172-1.125h9.563a1.015,1.015,0,0,1,1.124,1.172v7.922ZM239.25,92.164a1.016,1.016,0,0,1-1.172,1.125h-7.172a1.016,1.016,0,0,1-1.125-1.172V83.492a1.016,1.016,0,0,1,1.172-1.125h7.266a1.028,1.028,0,0,1,1.031,1.266v8.531Zm24.562,10.359a1.015,1.015,0,0,1-1.171,1.125H252.328a0.909,0.909,0,0,1-1.031-1.125q0.375-3,.562-8.062a1.224,1.224,0,0,1,1.219-1.406h9.61a1.015,1.015,0,0,1,1.124,1.172v8.3Zm-24.562,1.641a1.016,1.016,0,0,1-1.172,1.125h-7.172a1.015,1.015,0,0,1-1.125-1.172V95.68a1.016,1.016,0,0,1,1.172-1.125h7.266a1.028,1.028,0,0,1,1.031,1.266v8.344Zm61.125-22.875a1.016,1.016,0,0,1-1.172,1.125h-1.922a3.532,3.532,0,0,1-1.687-.375q-1.407-.7-1.406.7v9.094q0,1.125-1.313.094-1.266-1.078-2.25-.281t-0.984-.422V83.914a1.416,1.416,0,0,1,.937-1.922,1.508,1.508,0,0,0,.8-0.7,2.918,2.918,0,0,0-1.781-1.687q-1.454-.984-2.344-0.328a3.045,3.045,0,0,1-2.016.75h-4.453a1.979,1.979,0,0,1-2.062-.609q-1.407-.8-1.407.609v11.2q0,1.125-.7,1.125a0.752,0.752,0,0,1-.7-0.844,0.678,0.678,0,0,0-.562-0.7q-0.423.047-.563,1.453a12.7,12.7,0,0,1-2.2,4.406,0.959,0.959,0,0,0,.375,1.172,1.163,1.163,0,0,0,1.313.094,4.038,4.038,0,0,0,1.5-2.906,1.376,1.376,0,0,1,1.359-1.406h12.094q0.984,0,.8,1.313l-0.141.422a3.31,3.31,0,0,0-.328,1.641l0.469,0.328a6.788,6.788,0,0,0,1.5-1.406q1.077-1.547,1.968-1.219,0.7,0,.7,1.266a1.137,1.137,0,0,0,1.265,1.359,2.924,2.924,0,0,0,1.359-.469,2.12,2.12,0,0,0,.094-0.8q0-.562,1.172-0.562H311.25q1.125,0,1.125.8,0,0.844.75,0.7,0.516-.046-0.234,1.031a2.065,2.065,0,0,1-1.782.938H293.766q-1.361,0-1.172.7,0.186,0.516,1.594.516h21.187q1.313,0,1.5-.657a2.521,2.521,0,0,0-1.031-1.641,3.054,3.054,0,0,1-.75-2.25V86.164a1.271,1.271,0,0,1,1.078-1.781,0.971,0.971,0,0,0,.469-1.453L314.953,81.9q-1.5-.89-2.3-0.234a3.373,3.373,0,0,1-2.25.75q-1.312,0-1.312-.7a1.868,1.868,0,0,1,.375-1.125q1.406-1.171.75-1.781a22.741,22.741,0,0,0-2.438-.516,1.08,1.08,0,0,0-1.406,1.219v1.781a1.016,1.016,0,0,1-1.172,1.125h-0.984q-1.125,0-1.125-.7a1.924,1.924,0,0,1,.422-1.172,8.994,8.994,0,0,0,.937-1.219,1.258,1.258,0,0,0-1.359-.8l-1.36-.234a1.04,1.04,0,0,0-1.359,1.219v1.781Zm-13.5,2.813a1.11,1.11,0,0,1-1.359,1.125,3.516,3.516,0,0,1-1.828-.422q-1.407-.8-1.407.609v5.813a1.016,1.016,0,0,1-1.172,1.125,1,1,0,0,1-1.078-1.172V82.367a1.016,1.016,0,0,1,1.172-1.125H285.8a1.02,1.02,0,0,1,1.078,1.219V84.1Zm13.5,3a1.016,1.016,0,0,1-1.172,1.125h-1.172a1.016,1.016,0,0,1-1.125-1.172V84.8a1.016,1.016,0,0,1,1.172-1.125h1.172a1.016,1.016,0,0,1,1.125,1.172V87.1Zm6,0a1.016,1.016,0,0,1-1.172,1.125h-0.984a1.016,1.016,0,0,1-1.125-1.172V84.8a1.015,1.015,0,0,1,1.172-1.125h0.984a1.016,1.016,0,0,1,1.125,1.172V87.1Zm6,0a1.016,1.016,0,0,1-1.172,1.125h-0.984a1.016,1.016,0,0,1-1.125-1.172V84.8a1.015,1.015,0,0,1,1.172-1.125h0.984a1.016,1.016,0,0,1,1.125,1.172V87.1Zm-25.5,4.125a0.974,0.974,0,0,1-1.078,1.125,0.962,0.962,0,0,1-.985-1.172V87.617a0.974,0.974,0,0,1,1.079-1.125,0.962,0.962,0,0,1,.984,1.172v3.563Zm13.5,1.875a1.016,1.016,0,0,1-1.172,1.125h-1.172a1.016,1.016,0,0,1-1.125-1.172V90.617a1.016,1.016,0,0,1,1.172-1.125H299.3a1.02,1.02,0,0,1,1.078,1.219V93.1Zm6,0a1.016,1.016,0,0,1-1.172,1.125h-0.984a1.016,1.016,0,0,1-1.125-1.172V90.617a1.015,1.015,0,0,1,1.172-1.125H305.3a1.02,1.02,0,0,1,1.078,1.219V93.1Zm6,0a1.016,1.016,0,0,1-1.172,1.125h-0.984a1.016,1.016,0,0,1-1.125-1.172V90.617a1.015,1.015,0,0,1,1.172-1.125H311.3a1.02,1.02,0,0,1,1.078,1.219V93.1Zm-35.063,28.125q0,1.452,1.829,1.312,1.359-.281.89-1.875v-7.922a1.016,1.016,0,0,1,1.172-1.125h4.172a1.016,1.016,0,0,1,1.125,1.172v5.063q0.422,2.109-1.734,1.453-1.266-.236-1.36.468a0.73,0.73,0,0,0,.563.75q1.452,0.75,1.453,1.547,0.141,0.609,1.828.235a2.34,2.34,0,0,0,1.969-2.2V101.82a1.439,1.439,0,0,1,.422-1.359q2.061-1.031-.375-2.438-1.5-1.218-2.157-.609a2.514,2.514,0,0,1-1.781.609h-4.453a2.133,2.133,0,0,1-2.156-.609q-1.407-.749-1.407.656v23.157Zm9.188-18.188a1.016,1.016,0,0,1-1.172,1.125h-4.172a1.015,1.015,0,0,1-1.125-1.172v-2.625a1.016,1.016,0,0,1,1.172-1.125h4.266a1.028,1.028,0,0,1,1.031,1.266v2.531Zm8.625,9.188a1.161,1.161,0,0,0,1.266,1.406q1.921,0,1.453-1.453,0-.75,1.172-0.75h11.109a0.955,0.955,0,0,1,1.125,1.031q0,0.984,1.359.937a1.394,1.394,0,0,0,1.36-1.64v-4.5a1.576,1.576,0,0,1,.656-1.5q1.5-1.452-.7-2.3-1.312-.89-2.063-0.281a2.742,2.742,0,0,1-1.875.656h-11.3a2.135,2.135,0,0,1-2.157-.609q-1.406-.7-1.406.7v8.3Zm16.125-3.188a1.016,1.016,0,0,1-1.172,1.125H298.969a1.015,1.015,0,0,1-1.125-1.172V106.18a1.015,1.015,0,0,1,1.172-1.125h11.109a1.016,1.016,0,0,1,1.125,1.172v2.812Zm-24.75.188a1.016,1.016,0,0,1-1.172,1.125h-4.172a1.016,1.016,0,0,1-1.125-1.172v-2.625a1.016,1.016,0,0,1,1.172-1.125h4.219a1.02,1.02,0,0,1,1.078,1.218v2.579Zm20.391,9.328a1.841,1.841,0,0,1-1.688,1.406h-12.75q-1.361,0-1.172.7,0.188,0.516,1.594.516h22.687q1.266,0,1.454-.657,0.139-.468-1.266-1.968-1.312-1.361-2.3,0a2.808,2.808,0,0,1-2.156,1.406h-2.344q-1.125,0-.281-1.172l1.125-1.734q0.938-1.782,1.687-1.688a0.778,0.778,0,0,0,.7-0.75,1.067,1.067,0,0,0-1.266-.844l-1.406-.281q-1.266-.327-1.547,1.219a23.128,23.128,0,0,1-1.078,3.844h0Zm-8.063-2.672a14.991,14.991,0,0,1,.328,2.625,1.464,1.464,0,0,0,1.125.844,1.257,1.257,0,0,0,1.407-1.079q0.561-1.5-1.5-3.515-1.407-1.031-1.735-.7t0.375,1.828h0Zm23.719-29.438q-1.407,1.406-1.125,1.734,0.327,0.376,2.016-.891a17.2,17.2,0,0,0,3.281-3.328,2.924,2.924,0,0,1,2.2-1.406h13.172q1.406,0,1.64-.7,0.468-.8-1.687-2.156a1.893,1.893,0,0,0-2.766.281,3.657,3.657,0,0,1-2.437,1.313h-7.219q-1.125,0-.937-0.469,0.422-.937,1.031-0.7,0.938-.046.8-0.656-0.282-.984-2.438-1.359-1.266-.375-1.687,1.266a18.993,18.993,0,0,1-3.844,7.078h0ZM345.7,87.57q-1.078,1.547-.844,1.828,0.375,0.376,1.782-.8l1.312-1.453q1.125-1.406,1.453-.281a29.822,29.822,0,0,0,2.953,6.516q0.609,1.032-.8,2.438a28.539,28.539,0,0,1-5.2,4.031q-1.405.844-1.218,1.171,0.186,0.423,1.921-.234a25.231,25.231,0,0,0,6.235-3.844q0.984-.844,2.015.375a29.188,29.188,0,0,0,5.11,4.125,2.06,2.06,0,0,0,2.672-.281l0.89-.562a2.444,2.444,0,0,0,1.454-.7,2.693,2.693,0,0,0-1.407-.562,21.113,21.113,0,0,1-7.031-3.8q-1.219-1.031-.375-2.062a23.446,23.446,0,0,0,3.844-7.641,1.621,1.621,0,0,1,1.547-1.406h0.75a2.046,2.046,0,0,0,1.828-.656q0.234-.609-1.266-2.016-1.361-1.359-2.39,0a2.808,2.808,0,0,1-2.157,1.406H351.8q-1.125,0-.656-1.125l0.281-.562a2.391,2.391,0,0,1,1.219-1.5q0.936-.141.75-0.8a4.456,4.456,0,0,0-2.438-1.031q-1.405-.327-1.734,1.313A25.225,25.225,0,0,1,345.7,87.57h0Zm-8.578-2.156h-7.219a3.061,3.061,0,0,1-1.547-.375q-1.312-.8-1.5.75l-0.89,4.828a1.556,1.556,0,0,1-1.5,1.406h-2.063q-1.359,0-1.172.7,0.188,0.516,1.594.516h1.313a0.836,0.836,0,0,1,.937,1.125l-1.828,5.86q-0.422,1.405-.188,1.593a4.373,4.373,0,0,0,2.485-.14,4.621,4.621,0,0,0,.375-1.219,1.621,1.621,0,0,1,1.547-1.406h8.437q1.031,0,.516.984-0.891,1.735-3.61.7-1.406-.327-1.546.235-0.141.516,1.218,1.312a3.075,3.075,0,0,1,.61,1.172q0.141,0.891,1.875.7,3-.281,4.172-3.7a1.762,1.762,0,0,1,1.64-1.406h2.25a1.746,1.746,0,0,0,1.688-.7q0.234-.515-1.125-1.875a1.388,1.388,0,0,0-2.344.141l-0.375.469q-1.078,1.313-.844-0.234l0.375-2.2a1.493,1.493,0,0,1,1.453-1.406h2.3q1.359,0,1.547-.7,0.093-.515-1.219-1.828-1.264-1.266-2.2.094a3.594,3.594,0,0,1-1.172,1.219,1.787,1.787,0,0,1-.093-1.219l0.093-.75a10.887,10.887,0,0,1,.329-2.109,2.294,2.294,0,0,1,.843-0.516,1.175,1.175,0,0,0,.8-0.656,5.439,5.439,0,0,0-1.406-1.453q-1.595-1.266-2.578-.562a3.114,3.114,0,0,1-1.969.656h0Zm17.953,6q-0.937,1.406-1.828.188a28.33,28.33,0,0,1-2.906-5.766q-0.469-1.406.656-1.406h5.906q1.125,0,.844,1.172a21.322,21.322,0,0,1-2.672,5.813h0Zm-16.781-.8a1.323,1.323,0,0,1-1.313,1.406H329.2q-1.125,0-.75-1.594a20.964,20.964,0,0,1,.516-2.344,1.555,1.555,0,0,1,1.5-1.406h7.125q1.077,0,.937,1.594Zm-5.906-1.125a13.885,13.885,0,0,1,1.5.984q1.125,1.125,2.062.234a1.237,1.237,0,0,0-.187-1.687,5.713,5.713,0,0,0-3.563-.984q-1.312,0-1.359.563,0,0.281,1.547.891h0ZM337.5,96.43a1.493,1.493,0,0,1-1.453,1.406H327.8a0.837,0.837,0,0,1-.938-1.125l0.563-2.062a1.621,1.621,0,0,1,1.547-1.406h7.969q1.077,0,.89,1.219Zm-5.719-.7,2.157,1.406a1.157,1.157,0,0,0,1.312-1.312,1.935,1.935,0,0,0-1.688-1.453,10.228,10.228,0,0,0-1.687-.141q-1.547,0-1.594.422,0,0.422,1.5,1.078h0Zm6.188,9.468a2.031,2.031,0,0,1-2.531.469,12.35,12.35,0,0,0-1.735-.562q-1.312-.468-1.453.234-0.141.422,1.594,1.172a15.215,15.215,0,0,1,3.281,3.562,0.96,0.96,0,0,0,1.219.235q1.406-.75.234-2.625-0.657-.609.469-1.313a25.747,25.747,0,0,0,3.562-2.531,1.585,1.585,0,0,1,.938-0.375q1.266-.234.281-1.219a13.111,13.111,0,0,0-1.547-.422,1.978,1.978,0,0,0-2.3,1.078,22.508,22.508,0,0,1-2.015,2.3h0Zm2.2,5.86a4.255,4.255,0,0,1-2.2.656h-6.188l-5.859-.281q-1.312-.095-1.031,1.453l0.515,2.437q0.468,1.079,1.125.891a0.829,0.829,0,0,0,.938-0.938,1.178,1.178,0,0,1,.375-0.7l12.89-.937q1.407-.046,1.407,1.078v6.469a1.119,1.119,0,0,0,1.218,1.359,4.5,4.5,0,0,0,1.407-.281,5.978,5.978,0,0,0,.093-1.547v-6.375a1.264,1.264,0,0,1,1.125-1.359q5.954-.986,11.344-2.3a2.131,2.131,0,0,1,2.344.8l1.172,1.734a1.5,1.5,0,0,0,1.547,1.219q1.688-.516.984-2.344a15.079,15.079,0,0,0-6.563-5.016q-1.452-.468-1.687,0T356.2,108.1q1.218,0.938-.094,1.218-5.905,1.173-11.812,1.828-1.687.189-.469-0.7a66.26,66.26,0,0,0,7.125-4.968,3.863,3.863,0,0,1,1.875-1.172q0.938,0.234.938-.61a4.516,4.516,0,0,0-1.735-1.172,2,2,0,0,0-2.484.891,51.419,51.419,0,0,1-9.375,7.641h0Zm-15.281,10.312q-1.548.421-1.407,0.75,0.188,0.563,1.828.422a19.354,19.354,0,0,0,10.313-3.891,2.055,2.055,0,0,1,1.641-.281,1.935,1.935,0,0,0,.984-0.281q0.468-.891-1.641-1.922a1.924,1.924,0,0,0-2.625.328,20.777,20.777,0,0,1-9.093,4.875h0Zm26.39-4.406a36.206,36.206,0,0,1,7.5,4.031,5.171,5.171,0,0,0,2.11,1.266q1.78-.61,1.125-1.922a9.173,9.173,0,0,0-3.844-2.672,33.31,33.31,0,0,0-7.031-1.969c-0.938-.187-1.423-0.11-1.453.235q0.093,0.514,1.593,1.031h0Z"/>
</svg>
