<svg xmlns="http://www.w3.org/2000/svg" width="400" height="200" viewBox="0 0 400 200">
  <defs>
    <style>
      .cls-1 {
        fill: #fdfdfd;
        stroke: #000;
        stroke-width: 1px;
        fill-rule: evenodd;
      }
    </style>
  </defs>
  <path id="演示悠然小楷" class="cls-1" d="M65.659,85.805a20.221,20.221,0,0,1,1.86-1.02l-0.6-.78a2.936,2.936,0,0,1-.48-1.26v-0.24a0.974,0.974,0,0,1,.06-0.24,0.4,0.4,0,0,0-.06-0.36l0.18-.18a0.9,0.9,0,0,1-.12-0.15,0.366,0.366,0,0,1-.06-0.21v-0.18l0.24,0.06q0.3,0.24.63,0.51t0.75,0.57l0.42,0.12a6.931,6.931,0,0,0,1.14-.18,3.226,3.226,0,0,1,.72-0.06,5.5,5.5,0,0,1,.96.06,0.686,0.686,0,0,1,.48.24,0.985,0.985,0,0,1,.12.54,1.592,1.592,0,0,1-.72,1.02,3.607,3.607,0,0,1-.69.63q-0.45.33-.75,0.57l-0.18.06q-1.68.42-2.82,0.66a1.1,1.1,0,0,1-.72,0,0.287,0.287,0,0,1-.21-0.09,0.247,0.247,0,0,0-.15-0.09h0Zm-3.78,31.38-0.12-.24-0.6.36a1.9,1.9,0,0,0-.18-0.42,1.162,1.162,0,0,0-.24-0.54l-0.06-.42,0.18-.78a0.751,0.751,0,0,1,.3-0.18,1.541,1.541,0,0,1,.33-0.24,1.591,1.591,0,0,0,.33-0.24q1.56-1.378,2.28-1.98l1.02-1.02,0.42-.36a0.168,0.168,0,0,0,.12-0.12,0.175,0.175,0,0,1,.06-0.12l-0.42-.12a0.361,0.361,0,0,1-.21-0.06c-0.06-.039-0.13-0.079-0.21-0.12a1.134,1.134,0,0,1-.33-0.36,2.2,2.2,0,0,0-.27-0.36,2.894,2.894,0,0,0-.6-0.36,0.545,0.545,0,0,1,.48-0.33,0.6,0.6,0,0,0,.48-0.27,0.351,0.351,0,0,1,.12.24l0.9-.36,1.62-.66a0.525,0.525,0,0,0,.27-0.18,0.312,0.312,0,0,0,.03-0.3l-0.12-1.14v-0.18a4.474,4.474,0,0,1-2.22.42,0.4,0.4,0,0,0,.12.3,2.5,2.5,0,0,1,.3.78,1.448,1.448,0,0,1-.18.84,0.613,0.613,0,0,1-.6.18h-0.12l-0.48-.24q-0.72-.419-0.84-0.48a1.666,1.666,0,0,1-.69-0.54c-0.18-.24-0.291-0.379-0.33-0.42a9.337,9.337,0,0,1-.96-2.7q-0.121-.659-0.24-2.22a6.564,6.564,0,0,1,.24-1.44,2.819,2.819,0,0,0,.15-0.48,1.14,1.14,0,0,1,.27-0.54,10.739,10.739,0,0,1,.9-0.96q0.239,0.42.3,0.54a1.577,1.577,0,0,1-.06.48,0.342,0.342,0,0,0-.06.54,4.2,4.2,0,0,1,.54.6c0.12,0,.18.041,0.18,0.12l1.56-.66,2.76-1.2a0.305,0.305,0,0,0,.3-0.3l0.18-2.04v-0.48a0.184,0.184,0,0,0-.12-0.21,0.556,0.556,0,0,0-.3.03l-2.16.96a2.184,2.184,0,0,1-.45.09,1.275,1.275,0,0,0-.39.09,5.84,5.84,0,0,1,.84-0.72l-0.06-.12h-1.08a1.707,1.707,0,0,1-1.08-.42,0.807,0.807,0,0,0-.6-0.42h-0.12l-0.24-.3v-0.18a0.2,0.2,0,0,1,.15-0.06,0.2,0.2,0,0,0,.15-0.06,0.568,0.568,0,0,0-.18-0.24,0.269,0.269,0,0,1-.03-0.21,0.3,0.3,0,0,1,.21-0.15,0.532,0.532,0,0,0,.24-0.06,0.537,0.537,0,0,1,.24-0.06,0.568,0.568,0,0,0-.18.24,0.533,0.533,0,0,0,.36.3,0.218,0.218,0,0,0,.3,0l1.8-.78q3.24-1.319,4.02-1.68,0.3-.12.57-0.24c0.18-.08.369-0.159,0.57-0.24a3.056,3.056,0,0,1,1.08-.18,0.1,0.1,0,0,1,.12-0.03,0.256,0.256,0,0,0,.12.03,0.555,0.555,0,0,0,.54.39c0.279,0.021.459,0.03,0.54,0.03q-0.18.18,0.18,0.3a3.368,3.368,0,0,0,.78.48l1.2-.9,1.86-1.2,0.6-.48a0.15,0.15,0,0,0,0-.24l-1.8-1.38a0.566,0.566,0,0,0-.48-0.06l-1.98.6-2.82.96-2.22.72-2.52.78a2.352,2.352,0,0,0-.42.24,1.567,1.567,0,0,1-.96.48,8.427,8.427,0,0,1-1.14.06,3.26,3.26,0,0,1-.66-0.12,4.587,4.587,0,0,0-.84-0.06h-0.3a2.115,2.115,0,0,0-.6.48,3.633,3.633,0,0,0-.48.9q-0.121.24-.36,0.81a7.257,7.257,0,0,0-.36,1.05,7.563,7.563,0,0,0-.24,1.2l-0.24.78a0.174,0.174,0,0,1-.06.12l-0.12.12a0.516,0.516,0,0,0-.42-0.12,1.281,1.281,0,0,0-.3.24,1.089,1.089,0,0,1-.51-0.24c-0.141-.12-0.231-0.2-0.27-0.24a1.451,1.451,0,0,0-.27-0.21,1.354,1.354,0,0,1-.27-0.21,0.35,0.35,0,0,1-.18-0.18,2.505,2.505,0,0,1-.06-0.6,0.384,0.384,0,0,0-.12-0.36,1.925,1.925,0,0,0-.03-0.3,0.478,0.478,0,0,1,.03-0.3,2.4,2.4,0,0,0,.24-0.54,8.094,8.094,0,0,1,.96-2.4l0.54-.9,1.08-1.38,2.16-2.52,0.18-.06,0.06,0.48a3.227,3.227,0,0,1-.06.72,3.349,3.349,0,0,1-.48,1.26,12.158,12.158,0,0,1-.66,1.56l0.06,0.06,0.6-.3a3.669,3.669,0,0,1,1.08-.3l0.96-.36,2.04-.9q0.54-.18,1.41-0.57a10.715,10.715,0,0,1,1.53-.57q2.16-.72,5.28-1.68a9.544,9.544,0,0,1,2.7-.6,5.689,5.689,0,0,1,.9.06l0.18,0.06a0.545,0.545,0,0,0,.39.36c0.219,0.081.39,0.141,0.51,0.18a4.819,4.819,0,0,1,.69.36q0.39,0.24.57,0.36a9.477,9.477,0,0,1,1.74,1.56,0.45,0.45,0,0,1,.18.48c-0.04,0-.051.01-0.03,0.03a0.125,0.125,0,0,1,.03.09v0.06a0.67,0.67,0,0,1,.15.39,0.6,0.6,0,0,1-.33.21,3.406,3.406,0,0,1-1.08.36,0.891,0.891,0,0,0-.33.06,0.649,0.649,0,0,0-.21.12,9.352,9.352,0,0,1-1.23.57,9.479,9.479,0,0,0-.93.39l-1.38.6-0.24.12a3.885,3.885,0,0,1-.9.48,1.976,1.976,0,0,0-.57.21,3.677,3.677,0,0,1-.63.27,3.517,3.517,0,0,1-.72.27,5.159,5.159,0,0,0-.66.21,1.307,1.307,0,0,0-.99.15c-0.3.18-.49,0.291-0.57,0.33a3.86,3.86,0,0,0-.63.33,3.8,3.8,0,0,1-.63.33,0.45,0.45,0,0,0-.24.15,0.161,0.161,0,0,0,.06.21,3.872,3.872,0,0,1,.48.57c0.12,0.18.219,0.33,0.3,0.45a0.193,0.193,0,0,1,.12.18,0.5,0.5,0,0,1-.03.15,0.134,0.134,0,0,0,.03.15q0.059,0.121.48,0.84,0.9-.36,2.22-0.78a8.609,8.609,0,0,1,1.56-.3,0.278,0.278,0,0,1,.3.18l0.24,0.12a10.516,10.516,0,0,1,1.56.72,3.256,3.256,0,0,0,.36.21,1.41,1.41,0,0,1,.36.27q0.9,0.72.96,0.78l0.66,0.6a0.7,0.7,0,0,1,.24.48v0.12a0.242,0.242,0,0,0,.24.3,0.149,0.149,0,0,1,0,.18q-0.06.481-.3,1.74a7.8,7.8,0,0,1-.24,1.08,10.241,10.241,0,0,1-.48,1.32l-0.9,1.74a1.411,1.411,0,0,1-.6.72,3.079,3.079,0,0,0-.51.51,1.437,1.437,0,0,1-.57.45,1.692,1.692,0,0,1-.18.15,0.4,0.4,0,0,1-.24.09h-0.12a0.244,0.244,0,0,0-.15.12,0.578,0.578,0,0,1-.21.18,0.307,0.307,0,0,0-.3.12,0.385,0.385,0,0,0-.36.24l-0.24-.06q-0.24.122-.45,0.24c-0.141.081-.25,0.141-0.33,0.18a0.47,0.47,0,0,1-.3.06,0.972,0.972,0,0,1-.72-0.24q-0.18-.238-0.36-0.45t-0.3-.33l-0.12-.06-1.14.48a5.222,5.222,0,0,0-1.56,1.08q-0.36.3-.87,0.81l-0.87.87-1.38,1.56q-0.6.72-.9,1.02l-2.1,1.98a2.249,2.249,0,0,1-1.14.66h0Zm-11.22-26.94a6.388,6.388,0,0,0-.18-0.84l-0.06-.24q-0.06-.059.84,0.66a0.514,0.514,0,0,0,.27.15,0.4,0.4,0,0,0,.27-0.03l1.08-.54c0.12-.039.32-0.12,0.6-0.24a2.114,2.114,0,0,1,.84-0.18,1.025,1.025,0,0,0,.42.03,1.914,1.914,0,0,1,.3-0.03,1.544,1.544,0,0,1,.96.24,0.829,0.829,0,0,0,.36.06q0.36,0,.24.36a0.962,0.962,0,0,0,.24.78,0.408,0.408,0,0,1,.06.6l-0.12.06a0.809,0.809,0,0,1-.18.66,1.74,1.74,0,0,0-.3.48,4.17,4.17,0,0,1-.39.45,2.611,2.611,0,0,0-.33.39l-0.78,1.14a4.935,4.935,0,0,1-.9.78l-0.42.42a3.017,3.017,0,0,0,.3-0.72,3.356,3.356,0,0,0,.3-0.78l0.18-.78a0.722,0.722,0,0,0-.45.03,0.312,0.312,0,0,0-.27.21l-0.48.12a1.38,1.38,0,0,1-.84-0.3l-0.18-.12a0.562,0.562,0,0,1-.18-0.24l-0.06-.06a0.883,0.883,0,0,1-.24-0.42,1.963,1.963,0,0,0-.12-0.36,0.542,0.542,0,0,0-.18-0.27,0.578,0.578,0,0,1-.18-0.21,1.42,1.42,0,0,1-.3-0.69,3.934,3.934,0,0,0-.12-0.57h0Zm1.26,12.42a3.517,3.517,0,0,1-.6.12,4.6,4.6,0,0,1-1.38-.36,8.581,8.581,0,0,1-1.8-1.02,1.233,1.233,0,0,1-.54-0.84,2.593,2.593,0,0,0-.54-0.9,1.31,1.31,0,0,1-.24-0.84v-0.3l0.54,0.66a1.513,1.513,0,0,0,1.02.54,0.96,0.96,0,0,0,.42-0.12l2.58-1.02a5.162,5.162,0,0,1,2.28-.42,0.3,0.3,0,0,1,.15.06,1.058,1.058,0,0,1,.15.12l0.84,0.54a0.159,0.159,0,0,1-.09.12,0.162,0.162,0,0,0-.09.12,1.188,1.188,0,0,0,0,.54,0.491,0.491,0,0,1,.21.36,0.45,0.45,0,0,1-.21.24c-0.2.081-.18,0.221,0.06,0.42,0.159,0.081.18,0.18,0.06,0.3l-0.72.84-0.54.84c-0.081.12-.19,0.291-0.33,0.51a3.032,3.032,0,0,1-.39.51,0.505,0.505,0,0,1-.66,0,0.642,0.642,0,0,1-.36-0.42,0.246,0.246,0,0,1,.06-0.18,0.383,0.383,0,0,0,.09-0.18,0.989,0.989,0,0,0,.03-0.24h0Zm19.5-.84q1.02-.239,1.38-0.3a6.686,6.686,0,0,1,1.5-.24,2.063,2.063,0,0,1,.24.03,2.394,2.394,0,0,1,.42.12,0.458,0.458,0,0,1,.3.33l0.18,0.06,0.24-.18a3.275,3.275,0,0,1,.12-0.66,6.149,6.149,0,0,0,.18-0.87,5.92,5.92,0,0,1,.18-0.87,0.6,0.6,0,0,0-.36-0.54h-0.12l-1.14.54a7.2,7.2,0,0,0-1.14.48l-1.74.66a0.175,0.175,0,0,0-.12.06,0.246,0.246,0,0,0-.06.18,8.242,8.242,0,0,0-.06,1.2h0Zm-12.96.78,1.14-1.92-0.06.66v0.18a3.2,3.2,0,0,1-.27,1.2c-0.18.441-.31,0.78-0.39,1.02q-0.3,1.2-1.02,3.48a6.642,6.642,0,0,1-.21.75,2.386,2.386,0,0,0-.15.69v0.48l-0.42,1.26a0.244,0.244,0,0,1-.06.18,0.175,0.175,0,0,0-.06.12,0.946,0.946,0,0,0,.03.24,0.556,0.556,0,0,1-.03.3,2.137,2.137,0,0,1-.18.6l-0.66,2.16a6.7,6.7,0,0,1-.9,1.44l-0.24.12-0.12.24-0.36.36a3.315,3.315,0,0,1-.66.12,1.719,1.719,0,0,1-.78-0.18q-0.24-.12-0.63-0.36a2.4,2.4,0,0,1-.63-0.54,1.367,1.367,0,0,0-.54-0.3,1.2,1.2,0,0,1-.54-0.39,2.136,2.136,0,0,1-.42-0.63,0.508,0.508,0,0,0-.3-0.42,0.885,0.885,0,0,1-.36-0.42,0.482,0.482,0,0,1,.24-0.3,1.438,1.438,0,0,1,.36-0.24,0.673,0.673,0,0,0,.42-0.42v-0.24l0.54,0.36a0.362,0.362,0,0,0,.54,0,2.6,2.6,0,0,0,.78-0.72l1.74-2.22a26.8,26.8,0,0,0,2.4-3.48Zm9.48-.78-0.48.18c-0.2.081-.441,0.18-0.72,0.3a3.71,3.71,0,0,1-.72.24,5.952,5.952,0,0,1-.78.24l-1.02-.06,0.54,1.74,0.12-.06,2.7-1.26a0.568,0.568,0,0,0,.24-0.18,0.475,0.475,0,0,0,.06-0.3Zm7.14,1.62a3.274,3.274,0,0,0-1.86.72,4.73,4.73,0,0,1-1.86.9,0.591,0.591,0,0,0-.54.3,0.949,0.949,0,0,0-.12.6,0.168,0.168,0,0,0,.06.12c0.039,0.041.08,0.081,0.12,0.12a0.257,0.257,0,0,0,.12-0.03l0.18-.09a0.9,0.9,0,0,0,.36.12h0.3l0.3,0.06a0.888,0.888,0,0,1,.54-0.06,2.492,2.492,0,0,1,.48.18h0.36a0.106,0.106,0,0,0,.12-0.12l0.9-1.5Zm4.98,13.38a0.173,0.173,0,0,0-.12-0.12,1.3,1.3,0,0,0-.48.24,1.646,1.646,0,0,0-.72.66,4.089,4.089,0,0,1-.54.6,0.272,0.272,0,0,1-.3.06,0.263,0.263,0,0,1-.12-0.03q-0.06-.03,0-0.09a0.816,0.816,0,0,0,.03-0.72q-0.15-.42-0.21-0.6a8.233,8.233,0,0,0-.18-1.26,5.314,5.314,0,0,0-.06-0.54,2.383,2.383,0,0,0-.3-0.84l-0.6-.66a9.813,9.813,0,0,0-.9-0.84,6.967,6.967,0,0,0-1.26-.96l-1.02-.42,1.74,0.18a5.766,5.766,0,0,1,1.41.33c0.5,0.18.87,0.311,1.11,0.39l1.92,0.78a2.072,2.072,0,0,1,.78.54,0.455,0.455,0,0,1,.27.27,0.949,0.949,0,0,0,.15.27,0.866,0.866,0,0,1,.24.3,9.2,9.2,0,0,1,.06,1.2l-0.18.18-0.12.12a0.568,0.568,0,0,1-.24.39,0.568,0.568,0,0,0-.24.33,0.241,0.241,0,0,0-.12.24h0Zm31.38-26.76a0.41,0.41,0,0,1,.3.12l0.06-.06a2.641,2.641,0,0,0-.12-0.42l0.54,0.12a1.906,1.906,0,0,1,1.26.96q0,0.18.18,0l0.6-.36,1.8-1.14q0.418-.239.81-0.48t0.81-.48q1.8-.959,2.7-1.5a15.919,15.919,0,0,1,1.92-1.02h0.06a0.582,0.582,0,0,1,.24-0.36,2.937,2.937,0,0,1,.3-0.18,1.511,1.511,0,0,1,.42-0.18l0.18-.06,0.18-.06a0.344,0.344,0,0,0,.36.15c0.159-.02.259-0.03,0.3-0.03h0.72a0.679,0.679,0,0,1,.3.06l0.36,0.12c0.12,0.321.2,0.52,0.24,0.6a0.34,0.34,0,0,0,.12.24,0.91,0.91,0,0,1,.36.72,1.258,1.258,0,0,1-.18.66,2.566,2.566,0,0,1-.24.36,2.868,2.868,0,0,1-.72.6,1.972,1.972,0,0,0-.3.24,0.947,0.947,0,0,1-.24.18l-1.62.9-2.16,1.56a2.313,2.313,0,0,1-.54.24q-1.08.78-1.2,0.84l-0.78.42-0.3.3a1.037,1.037,0,0,0-.39.33,2.762,2.762,0,0,1-.21.27l-0.48.24c-0.2.2-.39,0.381-0.57,0.54s-0.351.321-.51,0.48a3.61,3.61,0,0,1-.54.42,1.485,1.485,0,0,1-.42.18,5.3,5.3,0,0,1-.96.48l-0.42.18a21.011,21.011,0,0,0,2.04-2.22v-0.06l-0.96.24a1.925,1.925,0,0,1-.48-0.12,6.691,6.691,0,0,1-.69-0.18q-0.391-.12-0.81-0.24a1.1,1.1,0,0,1-.6-0.54,1.041,1.041,0,0,0-.06-0.24,0.279,0.279,0,0,0-.3-0.18,0.423,0.423,0,0,1-.3-0.42v-0.12l0.12-.48v-0.27a0.443,0.443,0,0,1,.12-0.33v-0.24q-0.242-.54-0.36-0.78h0.06Zm10.2,9.48a1.006,1.006,0,0,0,.3.3,1.4,1.4,0,0,1,.6.9l0.24,0.36,0.36,0.54a4.98,4.98,0,0,1,.54,1.5,0.349,0.349,0,0,1,.12.18l0.18,0.18,0.18,0.96a7.788,7.788,0,0,1,.3,1.02v0.12a1.627,1.627,0,0,0,.03.69,3.128,3.128,0,0,1,.09.69,1.123,1.123,0,0,0,.09.45,1,1,0,0,1,.09.39,7.357,7.357,0,0,1,.12,1.08v2.82a0.406,0.406,0,0,0-.06.27v0.33l-0.06.54-0.24.96c0,0.12-.041.18-0.12,0.18l-0.18.72a0.627,0.627,0,0,1-.24.42,0.5,0.5,0,0,0-.21.27,1,1,0,0,1-.15.27h-0.18a0.3,0.3,0,0,0-.3.12,0.564,0.564,0,0,1-.18.24q-0.061.06-.09,0.09a0.118,0.118,0,0,0-.03.09,1.542,1.542,0,0,1-.78.72,0.248,0.248,0,0,1-.18.06,0.241,0.241,0,0,1-.18-0.06,0.773,0.773,0,0,0-.6,0,1.076,1.076,0,0,1-.3.12,0.636,0.636,0,0,1-.54,0,0.534,0.534,0,0,1-.36-0.36v-0.09c0-.02-0.021-0.03-0.06-0.03a21.3,21.3,0,0,0-1.56-1.74,2.65,2.65,0,0,1-.48-0.48,6.152,6.152,0,0,0-.42-0.48l-2.16-2.04-0.66-.66a0.338,0.338,0,0,1-.12-0.24,9.771,9.771,0,0,0-.66-0.9v-0.12a0.4,0.4,0,0,1-.18-0.24l-0.24.24a1.3,1.3,0,0,0-.48.54l-0.24.24-0.84.9-0.48.6a0.889,0.889,0,0,1-.27.27,1.137,1.137,0,0,0-.21.15,1.437,1.437,0,0,0-.36.48,0.344,0.344,0,0,0-.06.24,0.382,0.382,0,0,1-.24.42,5.131,5.131,0,0,1-1.14.24,2.536,2.536,0,0,1-.42.12,1.023,1.023,0,0,1-.42-0.06,0.619,0.619,0,0,1-.48-0.54,1.059,1.059,0,0,1-.3-0.6,4.133,4.133,0,0,0-.12-0.54,0.5,0.5,0,0,0-.12-0.36,0.558,0.558,0,0,1-.15-0.21,0.46,0.46,0,0,1-.03-0.15,0.729,0.729,0,0,1,0-.42,1.686,1.686,0,0,0,.06-0.36v-0.18a0.431,0.431,0,0,1,.24-0.54,0.484,0.484,0,0,0,.24-0.48,1.163,1.163,0,0,1,.18-0.6,1.062,1.062,0,0,1,.42-0.42h0.18a0.819,0.819,0,0,0,.48-0.3,7.111,7.111,0,0,1,.96-0.84,1.613,1.613,0,0,0,.36-0.42,0.591,0.591,0,0,1,.6-0.06,0.107,0.107,0,0,1,.12.12l-0.06.36v0.3a1.386,1.386,0,0,0-.24.96,0.388,0.388,0,0,0,.42.18l0.54-.06a13.542,13.542,0,0,0,1.32-.48l0.96-.54,1.5-.84a7.729,7.729,0,0,0,.84-0.42,0.571,0.571,0,0,1-.18.78l-1.2,1.14-0.42.36a0.329,0.329,0,0,0,.12.54c0.12,0.081.259,0.18,0.42,0.3a6.021,6.021,0,0,0,.54.36l1.68,1.44q0.419,0.242,1.44.96a7.032,7.032,0,0,0,1.62.48,0.212,0.212,0,0,0,.24-0.24q0.118-1.138.12-3.54l-0.12-1.92-0.24-2.46-0.18-1.38a3.166,3.166,0,0,0-.15-0.45,2.794,2.794,0,0,1-.15-0.45l-0.42-1.62v-0.24l-0.9.42a3.694,3.694,0,0,1-.42.24,4.182,4.182,0,0,0-.42.24l-0.6.3q-0.72.421-1.35,0.75c-0.42.221-.791,0.431-1.11,0.63l-2.22,1.2-2.58,1.08a0.542,0.542,0,0,1-.36,0l-0.9-.18-0.06-.06a0.822,0.822,0,0,0-.6-0.36,0.629,0.629,0,0,1-.42-0.15c-0.12-.1-0.2-0.169-0.24-0.21a1.066,1.066,0,0,1-.3-0.27,0.821,0.821,0,0,0-.42-0.27l-0.06-.06v-0.72l-0.06-.12a0.659,0.659,0,0,1,.06-0.72,1.061,1.061,0,0,1,.78-0.54c0.319-.12.519-0.2,0.6-0.24l0.66-.36,0.48-.42v0.24a0.239,0.239,0,0,0,.12.24c0.12,0.081.12,0.18,0,.3a0.335,0.335,0,0,0-.18.12l0.06,0.06,0.42-.18c0.279-.159.54-0.3,0.78-0.42q1.138-.72,2.76-1.62l1.5-.84q0.959-.6,1.44-0.84l4.02-1.92,3.12-1.44a1.8,1.8,0,0,1,.48-0.21,2.539,2.539,0,0,0,.66-0.33c0.079-.039.169-0.09,0.27-0.15a1.452,1.452,0,0,1,.45-0.15,12.741,12.741,0,0,1,1.23-.66c0.5-.24.87-0.42,1.11-0.54l1.5-.6q0.54-.48.72-0.66l0.18-.06a1.408,1.408,0,0,0,.36-0.24,0.916,0.916,0,0,1,.36-0.12,2.1,2.1,0,0,1,.84.06,1.047,1.047,0,0,1,.42.06,0.519,0.519,0,0,0,.36.18,0.377,0.377,0,0,1,.21.06,1.1,1.1,0,0,1,.15.12,0.933,0.933,0,0,0,.24.36,2.737,2.737,0,0,1,.6.78,0.25,0.25,0,0,1,.06.18,1.926,1.926,0,0,1-.24.72,1.5,1.5,0,0,1-.42.6,3.485,3.485,0,0,1-.42.33,0.817,0.817,0,0,0-.36.45,0.662,0.662,0,0,1-.48.3,1.394,1.394,0,0,1-.6.3q-0.18.06-.45,0.18a4.508,4.508,0,0,0-.63.36q-0.961.36-1.32,0.54a5.829,5.829,0,0,0-.63.3,6.55,6.55,0,0,1-.81.36,5.321,5.321,0,0,1-1.26.6l-0.84.42-0.96.48a5.23,5.23,0,0,0-1.26.66,0.534,0.534,0,0,0-.24.06l-0.24.12Zm12.78,10.44a0.717,0.717,0,0,1-.09.24,0.8,0.8,0,0,0-.09.36,2.138,2.138,0,0,1-.06.6l-0.42,1.14a1.162,1.162,0,0,1-.21.36,0.558,0.558,0,0,0-.15.36v0.12a0.507,0.507,0,0,1-.3.42,0.916,0.916,0,0,1-.24.27,0.911,0.911,0,0,0-.24.27,0.106,0.106,0,0,1-.12.12,1.909,1.909,0,0,1-.36.12,2.015,2.015,0,0,0-.54.24,0.2,0.2,0,0,1-.24-0.06q-0.122-.12-0.18-0.18l-0.06-.24a0.713,0.713,0,0,0-.18-0.6,0.2,0.2,0,0,1-.06-0.15,0.209,0.209,0,0,0-.06-0.15l-0.18-.6v-0.42a3.272,3.272,0,0,0-.06-0.72,14,14,0,0,0-.24-1.68q-0.061-.239-0.12-0.48c-0.041-.159-0.081-0.3-0.12-0.42l-0.9-2.34a0.105,0.105,0,0,1-.12-0.12q-0.122-.18-0.24-0.36t-0.24-.36q-0.061-.058.06-0.12a1.274,1.274,0,0,0,.42-0.24,0.389,0.389,0,0,1,.18-0.09,0.185,0.185,0,0,1,.18.03c0.2,0.041.409,0.09,0.63,0.15a6.656,6.656,0,0,0,.69.15,4.044,4.044,0,0,1,1.44.72l0.36,0.24a2.536,2.536,0,0,1,.84.96,8.814,8.814,0,0,1,.54.84,4.19,4.19,0,0,1,.3.84q0.119,0.481.18,0.78h0Zm33.539-16.38-0.06.12c-0.04.081,0.06,0.18,0.3,0.3a1.048,1.048,0,0,0,.27.09,0.529,0.529,0,0,1,.27.15,0.136,0.136,0,0,1,.03.15,0.136,0.136,0,0,0,.03.15,5.068,5.068,0,0,0-.12.84l-0.12.9a2.224,2.224,0,0,1-.06.54,2.234,2.234,0,0,0-.06.54q0,0.54-.12,1.86,0,0.6-.12,1.92l-0.06.24a4.206,4.206,0,0,0,.03.45,2.321,2.321,0,0,1-.03.63,3.32,3.32,0,0,0-.12.66v0.18l-0.06.06a0.075,0.075,0,0,0,0,.12,0.384,0.384,0,0,1,.09.15,0.37,0.37,0,0,0,.09.15q0.06,0.061.18,0.21a0.62,0.62,0,0,0,.3.21,3.238,3.238,0,0,0,.78.3,0.328,0.328,0,0,0,.24.03,0.363,0.363,0,0,0,.18-0.09,2.425,2.425,0,0,0,.24-0.36c0-.039.04-0.06,0.12-0.06a2.071,2.071,0,0,0,.3-0.12q0.12-.058.24-0.12h0.06l0.18-.78v-0.06l0.12,0.18a2.433,2.433,0,0,1,.45.45,0.394,0.394,0,0,0,.27.21,0.824,0.824,0,0,0,.66.48l0.36-.06a3.19,3.19,0,0,0,1.2-.24q0.6-.239.72-0.3a2.025,2.025,0,0,1,.72-0.42c0.28-.12.56-0.229,0.84-0.33a6.848,6.848,0,0,0,.78-0.33,3.169,3.169,0,0,0,.9-0.6q1.08-.838,1.32-1.08c0.16-.159.28-0.18,0.36-0.06q2.16,1.022,2.22,1.02l0.42,0.3a6.935,6.935,0,0,1-.66.24q-1.56.481-2.28,0.78l-0.84.36a9.989,9.989,0,0,0,1.08.12,4.961,4.961,0,0,0,.9.12l0.12,0.12a0.177,0.177,0,0,1,.12.06,0.24,0.24,0,0,0,.18.06h1.8a7.357,7.357,0,0,1,1.08-.12,1.134,1.134,0,0,1,.6.12h0.54l0.54,0.06h0.12a3.354,3.354,0,0,0,.21-0.36c0.06-.12.11-0.219,0.15-0.3a0.606,0.606,0,0,0,.12-0.33,0.6,0.6,0,0,1,.06-0.27l-0.06-.42c-0.08-.079-0.1-0.12-0.06-0.12a2.186,2.186,0,0,0-.03-0.36,1.042,1.042,0,0,1,.03-0.42,0.492,0.492,0,0,0-.3-0.66,0.173,0.173,0,0,0-.12-0.12,0.169,0.169,0,0,1-.12-0.06,2.149,2.149,0,0,0-.75-0.57q-0.45-.209-0.63-0.27a4.586,4.586,0,0,0-.9-0.39,4.481,4.481,0,0,1-.9-0.39l-1.02-.42a5.445,5.445,0,0,0,1.08-1.98c0.04-.039.11-0.12,0.21-0.24a0.564,0.564,0,0,0,.15-0.36,0.245,0.245,0,0,0-.06-0.18l0.06-.24-0.06-.18a0.861,0.861,0,0,1-.27-0.27,1.2,1.2,0,0,0-.15-0.21,1.05,1.05,0,0,1-.42-0.42,2.5,2.5,0,0,0-.36-0.48l-0.18-.42-0.48-.78a0.476,0.476,0,0,1,.06-0.3l1.14-.66,1.8-1.02a6.587,6.587,0,0,0,.9-0.42,1.272,1.272,0,0,0,.42-0.24,10.674,10.674,0,0,0,.6-1.08,0.346,0.346,0,0,0,0-.39,0.735,0.735,0,0,1-.12-0.33v-0.06h-0.06a1.221,1.221,0,0,0-.9-0.36,0.644,0.644,0,0,1-.72-0.24,0.286,0.286,0,0,0-.42-0.18,1.017,1.017,0,0,0-.42.42,0.429,0.429,0,0,1-.42.24,0.243,0.243,0,0,0-.3.24q0.12,0.06-.06.24a3.679,3.679,0,0,0-.78.42l-2.82,1.5q-1.2.72-1.8,1.02l-0.48.18v-0.06l0.18-.54,0.3-1.08,0.84-2.82,0.54-2.16,0.18-.42a0.737,0.737,0,0,0-.42-1.08q-0.24-.12-0.51-0.27c-0.18-.1-0.39-0.21-0.63-0.33l-0.6-.12a1.579,1.579,0,0,0-.48-0.06,5.082,5.082,0,0,0-.9-0.12,1.915,1.915,0,0,0-.54.12,0.644,0.644,0,0,0-.36.48l0.06,0.24a0.509,0.509,0,0,1,.78.24,0.655,0.655,0,0,0,.42.48,0.389,0.389,0,0,1,.24.18,0.255,0.255,0,0,1,0,.24q-0.06.36-.3,1.38-0.48,1.68-.66,2.52l-0.96,4.38-0.12.18a0.474,0.474,0,0,0-.18.54,0.475,0.475,0,0,1-.06.6l0.12,0.24a2.2,2.2,0,0,0,.78,1.08l0.36,0.18,0.12-.24a0.108,0.108,0,0,0,0-.15q-0.06-.09,0-0.09a0.446,0.446,0,0,0,.27-0.27,0.982,0.982,0,0,1,.15-0.27,4.057,4.057,0,0,0,.36-0.9,0.488,0.488,0,0,1,.36-0.3H176a6.162,6.162,0,0,0,1.5.18,0.415,0.415,0,0,1,.27-0.03,1.2,1.2,0,0,0,.21.03h0.6l0.66-.36a1.232,1.232,0,0,0,.48-0.24,6.944,6.944,0,0,1,.6,1.44,0.513,0.513,0,0,1,.12.42,3.958,3.958,0,0,1-.42.84l-0.9,1.38-0.54.6a0.241,0.241,0,0,1-.24.12,23.684,23.684,0,0,0-2.94-.18l-2.1.06-0.12.06q0.24,0.18,1.38.87a8.464,8.464,0,0,0,2.34.99,14.16,14.16,0,0,1-1.86,1.56,6.633,6.633,0,0,1-1.02.84q-1.02.481-1.14,0.54l-0.48.12a1.825,1.825,0,0,1-.72-0.24,3.705,3.705,0,0,1-.84-0.36v-0.3a3.928,3.928,0,0,0,.3-0.72l0.24-.48a0.577,0.577,0,0,1,.18-0.42,1.885,1.885,0,0,0,.18-0.42,3.854,3.854,0,0,0,.21-0.51,3.9,3.9,0,0,1,.21-0.51l0.42-.9a2.353,2.353,0,0,1,.24-0.42l0.36-.66v-0.12a0.353,0.353,0,0,0-.18.18q-0.78.96-.84,1.02-0.18.24-.39,0.57t-0.51.75a0.644,0.644,0,0,1-.3.24,1.276,1.276,0,0,0-.03-0.21,0.921,0.921,0,0,1,.03-0.39,1.82,1.82,0,0,0-.06-0.54l-0.06-.72a1.638,1.638,0,0,1,.06-0.45,1.873,1.873,0,0,0,.06-0.51l-0.06-1.14c0-.039.01-0.14,0.03-0.3a0.459,0.459,0,0,1,.33-0.36l0.06-.06,0.06-.24,0.12-.36a0.988,0.988,0,0,0-.66-0.48,1.631,1.631,0,0,1-.78-0.3l-0.12-.06h-1.5a0.348,0.348,0,0,0-.48.12h0Zm-2.94,2.16a1.889,1.889,0,0,1,.03-0.3,1.392,1.392,0,0,0-.03-0.48,0.408,0.408,0,0,0-.12-0.3,4.758,4.758,0,0,1-.6-0.66,3.644,3.644,0,0,0-.72-0.84l-0.12-.12,1.44-1.86a0.175,0.175,0,0,1,.06-0.12l0.12-.12,1.08-1.38c0.08-.12.19-0.279,0.33-0.48a3.647,3.647,0,0,1,.39-0.48,2.084,2.084,0,0,1,.36-0.39q0.24-.21.42-0.39a1.356,1.356,0,0,0,.42-0.36l0.18-.9a3.863,3.863,0,0,0-.24-1.14,0.106,0.106,0,0,0-.12-0.12,3.036,3.036,0,0,1-.54-0.78,1.834,1.834,0,0,0-.78-0.78,5.091,5.091,0,0,1-.96-0.48l-0.24-.06a2.276,2.276,0,0,0-1.08-.18h-0.54q0.54,0.72.6,0.84a3.4,3.4,0,0,1,.36,1.02,0.547,0.547,0,0,1,.06.42l-0.84,1.26-1.32,1.74-2.28,3.12-2.1,2.94q-1.26,1.741-1.56,2.16a1.468,1.468,0,0,1-.27.33,0.978,0.978,0,0,0-.27.45,0.324,0.324,0,0,1-.15.24,0.454,0.454,0,0,1-.21.12l-0.12.36a2.524,2.524,0,0,0-.12.42,9.8,9.8,0,0,0-.12,1.26,1.052,1.052,0,0,0,.3.78,0.3,0.3,0,0,0,.3.12l0.66-.36,0.6-.54,0.48-.12a0.464,0.464,0,0,0,.54-0.12l0.48-.42,0.6-.66,0.6-.84,0.84-1.26,1.08-1.2a7.473,7.473,0,0,1,.54-0.72l0.12,0.36v1.44a7.206,7.206,0,0,0-.12,1.02,3.483,3.483,0,0,0-.03.78,3.481,3.481,0,0,1-.03.78,16.712,16.712,0,0,1-.12,2.34q0,0.3-.03.99a4.5,4.5,0,0,1-.21,1.23,0.665,0.665,0,0,0,.12.84l0.06,0.18a4.639,4.639,0,0,1,.12.45,2.822,2.822,0,0,0,.24.63,1.712,1.712,0,0,0,.78.96,0.288,0.288,0,0,0,.42-0.12q0.06-.118.21-0.36a0.67,0.67,0,0,1,.33-0.3,0.106,0.106,0,0,0,.12-0.12,9.252,9.252,0,0,1,.48-1.08,4.639,4.639,0,0,0,.12-0.45,2.348,2.348,0,0,0,.06-0.51,8.464,8.464,0,0,1-.06-1.14,15.176,15.176,0,0,0,.06-1.56v-0.66l-0.06-2.4a2.638,2.638,0,0,1,.12-1.08l0.12-.84a0.338,0.338,0,0,0-.18.12c-0.04,0-.06-0.039-0.06-0.12h0Zm29.04,11.82a2.019,2.019,0,0,0-.9-0.84,5.522,5.522,0,0,0-1.56-.78,2.131,2.131,0,0,0-.66-0.12,0.378,0.378,0,0,0-.21.06,0.482,0.482,0,0,1-.27.06,0.717,0.717,0,0,1-.27-0.06,0.758,0.758,0,0,0-.27-0.06,3.963,3.963,0,0,1,.36,1.68,2.152,2.152,0,0,1-.36,1.32l0.36,0.66a0.842,0.842,0,0,1,.06.36,3.968,3.968,0,0,1,.09.63,1.174,1.174,0,0,0,.21.63,0.771,0.771,0,0,1,.18.36,1.812,1.812,0,0,0,.12.36l0.36,0.36a2.827,2.827,0,0,1,.27.33,0.413,0.413,0,0,0,.33.21h0.18l0.06,0.12,0.06-.3a0.214,0.214,0,0,0,.3-0.12,1.06,1.06,0,0,0,.15-0.36,0.655,0.655,0,0,1,.33-0.42,0.56,0.56,0,0,0,.36-0.42,1.869,1.869,0,0,1,.42-0.48,0.265,0.265,0,0,0,.3-0.3,0.842,0.842,0,0,1,.06-0.36l0.3-1.02v-0.36a1.7,1.7,0,0,0-.36-1.14h0Zm-7.32,6.66v-0.09q0-.03-0.06-0.03-0.72-.838-1.02-1.26a0.679,0.679,0,0,1-.78-0.12l-0.9-.72a7.579,7.579,0,0,1-1.32-1.44c-0.04-.039-0.13-0.15-0.27-0.33a1.215,1.215,0,0,0-.51-0.39,1.319,1.319,0,0,1-.78-0.42,1.548,1.548,0,0,0-.6-0.54,0.294,0.294,0,0,1,0-.36,0.778,0.778,0,0,0,.21-0.15,0.825,0.825,0,0,1,.21-0.15q0.54-.239,1.29-0.54a7.69,7.69,0,0,0,1.23-.6,5.484,5.484,0,0,1,.57-0.3,5.124,5.124,0,0,0,.57-0.3,0.329,0.329,0,0,0,.18-0.12,4.045,4.045,0,0,0-.84.06,15.863,15.863,0,0,0-1.68.3,13.343,13.343,0,0,0-1.56.12q-1.92.36-2.82,0.6a0.725,0.725,0,0,1-.66-0.06,1.381,1.381,0,0,0-.42-0.18q-0.24-.058-0.42-0.12v0.06a2.228,2.228,0,0,0,.45.27,2.5,2.5,0,0,1,.39.21h-0.12a15.087,15.087,0,0,0-1.74.9l-1.08.6a0.331,0.331,0,0,1-.42-0.06l-0.72-.66a2.738,2.738,0,0,1-1.02-1.14,0.3,0.3,0,0,0-.21.15,0.273,0.273,0,0,0,.03.21,0.97,0.97,0,0,1,.12.42l-0.06.6a1.547,1.547,0,0,0,.48,1.08,1.156,1.156,0,0,1,.24.54v0.12a1.312,1.312,0,0,0,.18.63,1.017,1.017,0,0,0,.42.45,0.5,0.5,0,0,1,.27.06,1.67,1.67,0,0,0,.21.12,7.054,7.054,0,0,0,1.05.63,2.3,2.3,0,0,0,.99.21,1.269,1.269,0,0,0,.66-0.12q0.06-.058.21-0.18a0.322,0.322,0,0,0,.15-0.24l-0.06-.18c-0.04-.039,0-0.12.12-0.24a1.456,1.456,0,0,1,.18-0.48,2.432,2.432,0,0,1,.66-0.96,3.406,3.406,0,0,1,.51-0.42,3.288,3.288,0,0,0,.51-0.42,0.764,0.764,0,0,1,.33-0.18,0.5,0.5,0,0,1,.27.18,3.455,3.455,0,0,0,.42.48,1.849,1.849,0,0,1,.42.6,0.106,0.106,0,0,0,.12.12,0.2,0.2,0,0,1,.18.09,0.3,0.3,0,0,1,.06.15,0.343,0.343,0,0,1,.12.18,2.156,2.156,0,0,1,.6.6l0.84,1.14c0.28,0.48.44,0.761,0.48,0.84l0.18,0.54a1.4,1.4,0,0,1-.36.24q-1.08.6-1.62,0.84a9.938,9.938,0,0,1-2.34.84,22.541,22.541,0,0,1-2.76.24,9.52,9.52,0,0,1-5.34-1.62,4.786,4.786,0,0,0-.57-0.48q-0.33-.238-0.69-0.54-0.48-.36-1.44-1.2a7.453,7.453,0,0,1-1.2-1.26,2.818,2.818,0,0,1-.36-0.78l-0.06-.24h-0.06a3.387,3.387,0,0,0-.12.78v0.12a7.029,7.029,0,0,0,.27.78c0.1,0.24.19,0.441,0.27,0.6q0.12,0.3.36,0.96a2.745,2.745,0,0,0,.6,1.02q0.12,0.18.3,0.51a2.125,2.125,0,0,0,.3.45,4.844,4.844,0,0,0,.45.51,3.2,3.2,0,0,0,.45.39,7.409,7.409,0,0,0,2.52,1.92q0.84,0.42,1.74.78a7.581,7.581,0,0,0,1.74.48q0.66,0.12,1.98.24h0.72a0.336,0.336,0,0,1-.12.18h1.08q0.42,0,.42-0.3h0.12a1.856,1.856,0,0,0,.84-0.18,5.054,5.054,0,0,1,.9-0.12,2.1,2.1,0,0,0,.66-0.12l0.54-.18,0.78-.24v0.12a15.08,15.08,0,0,0,3.48-1.92q-0.3-.24.06-0.24a0.578,0.578,0,0,0,.48-0.42,1.065,1.065,0,0,0,.12-0.48,1.484,1.484,0,0,0-.12-0.78,0.575,0.575,0,0,0-.15-0.24,0.292,0.292,0,0,1,.09-0.42h0Zm-22.98-6.36a2.663,2.663,0,0,0-.33.03,0.444,0.444,0,0,0-.33.27l-0.06.06-0.36.24a1.042,1.042,0,0,1-.78.6l-0.12.12-0.66.72q-0.48.662-1.56,1.86l-0.72.78-0.36.6a0.764,0.764,0,0,0-.21.48,2.274,2.274,0,0,1-.09.48v0.12a0.967,0.967,0,0,1,.12.42,2.96,2.96,0,0,0,.6,2.04,0.531,0.531,0,0,0,.24.15,0.179,0.179,0,0,0,.18-0.03,1.019,1.019,0,0,1,.42-0.54,0.691,0.691,0,0,1,.48-0.24,0.983,0.983,0,0,1,.15-0.12,0.453,0.453,0,0,0,.15-0.18,0.244,0.244,0,0,1,.06-0.18l0.42-.63a3.5,3.5,0,0,0,.42-0.81,5.78,5.78,0,0,1,.66-1.08,11.35,11.35,0,0,0,.66-1.08l0.36-.78a3.058,3.058,0,0,0,.66-1.5,3.378,3.378,0,0,1,.09-0.66q0.09-.419.15-0.66l0.24-.6v-0.12a1.02,1.02,0,0,1-.3.12c0,0.081-.06.12-0.18,0.12h0Zm18.9,11.58,1.38-.48v-0.06a14.287,14.287,0,0,1-1.44.42Zm26.58-9.9a0.248,0.248,0,0,0,0-.24,0.911,0.911,0,0,1,0-.66,0.142,0.142,0,0,1,.12-0.15,0.185,0.185,0,0,1,.18.03l0.66,0.36a2.709,2.709,0,0,0,.96.18,1.318,1.318,0,0,0,.54-0.24,3.782,3.782,0,0,0,.3-0.24l1.44-1.38a8.542,8.542,0,0,0,.96-1.14l0.54-.48q0.119-.18.9-1.14H215.6a0.8,0.8,0,0,1-.48.18,0.912,0.912,0,0,1-.66-0.3,5.457,5.457,0,0,1-.84-0.78,7.776,7.776,0,0,1-.78-1.14,1.463,1.463,0,0,1-.36-0.66c0.2-.079.279-0.18,0.24-0.3a0.926,0.926,0,0,1-.06-0.24v-0.06a1.906,1.906,0,0,0,.48.12h0.12l0.96,0.72a4.419,4.419,0,0,1,.42.24,1.443,1.443,0,0,0,.36.18l1.62,0.48a0.25,0.25,0,0,0,.42-0.12q0.9-1.138,1.5-2.04l0.12-.24a0.361,0.361,0,0,0-.48,0,0.817,0.817,0,0,1-.39.03,1.205,1.205,0,0,0-.45.03,0.492,0.492,0,0,1-.42-0.48l-0.24-.3h0.12l0.06-.06-0.42-.3q-0.242-.18-0.66-0.54a3.971,3.971,0,0,0-.78-0.54,1.175,1.175,0,0,0-.42-0.27,3.7,3.7,0,0,1-.36-0.15,4.853,4.853,0,0,0-.6-0.24v-0.06l0.36-.06q0.659,0,1.98.12l1.68,0.36a4.173,4.173,0,0,1,.96.18,5.216,5.216,0,0,1,1.14.3l0.3,0.06q0.118-.18.9-1.5,0.6-.959,1.92-2.88a9.843,9.843,0,0,1,.84-1.44l0.24-.48v-0.18H223.7q-1.2.6-1.8,0.96a23.9,23.9,0,0,0-2.4,1.56,3.455,3.455,0,0,0-.9.66,0.66,0.66,0,0,0-.12.18,0.729,0.729,0,0,1-.12.18c-0.041.081-.09,0.171-0.15,0.27a1.423,1.423,0,0,0-.15.39l-0.06.06a4.346,4.346,0,0,0-.63.18,1.619,1.619,0,0,1-.51.12h-1.02a0.351,0.351,0,0,1-.42-0.3l-0.12-.12a0.557,0.557,0,0,0-.3-0.72q-0.242-.059,0-0.48a0.437,0.437,0,0,0,0-.6,0.188,0.188,0,0,1,0-.21,0.782,0.782,0,0,1,.18-0.27l1.02-.36,0.15-.15a0.245,0.245,0,0,0,.09-0.15,16.013,16.013,0,0,0,1.44-2.28q0.239-.36.57-0.93a6.594,6.594,0,0,1,.63-0.93c0.159-.24.33-0.5,0.51-0.78s0.369-.6.57-0.96l0.72-1.08a0.442,0.442,0,0,0-.06-0.48,2.076,2.076,0,0,0-.3-0.24,1.516,1.516,0,0,1-.36-0.36l-0.48-.6a0.4,0.4,0,0,1-.03-0.27,1.462,1.462,0,0,0,.03-0.27,0.235,0.235,0,0,0,.24.18h0.3l0.66,0.24,0.54,0.18,0.06,0.06a2.135,2.135,0,0,1,.36.27,1.146,1.146,0,0,0,.48.27,0.719,0.719,0,0,1,.54.48l0.12,0.06a0.766,0.766,0,0,1,.48.6c0.079,0,.079.04,0,0.12a2.714,2.714,0,0,0-.15.48,1.723,1.723,0,0,1-.33.66,1.757,1.757,0,0,0-.12.36,0.776,0.776,0,0,1-.18.36l-1.32,2.1a1.353,1.353,0,0,0-.24.54l1.08-.54a12.425,12.425,0,0,1,1.5-.66,4.983,4.983,0,0,1,1.26.06,4.474,4.474,0,0,0,.6.24,0.517,0.517,0,0,1,.36.42l0.06,0.12a0.489,0.489,0,0,0,.3.18l0.96,0.18q1.5,0.3,2.04.42a2.135,2.135,0,0,0,.51.18c0.18,0.04.349,0.081,0.51,0.12q0.3-1.26.36-1.38a3.143,3.143,0,0,1,.06-0.72,0.432,0.432,0,0,0-.24-0.42l-1.32-1.02-0.42-.48a0.453,0.453,0,0,1-.09-0.39,0.39,0.39,0,0,1,.15-0.33,0.728,0.728,0,0,1,.66-0.06l1.98,0.78q0.18,0.06,1.38.54a2.556,2.556,0,0,1,.66.48,1.57,1.57,0,0,1,.36.48l-0.06.12a0.92,0.92,0,0,0-.27.6c-0.021.24-.03,0.4-0.03,0.48a7.449,7.449,0,0,0-.24,1.2,1.922,1.922,0,0,0-.24.84,0.328,0.328,0,0,0,.12.18,20.739,20.739,0,0,0,3.12.66,1.15,1.15,0,0,1,.36.06,1.124,1.124,0,0,0,.36.06h1.2a0.382,0.382,0,0,0,.3.24,1.862,1.862,0,0,1,.72.24,0.175,0.175,0,0,1,.12.12,0.15,0.15,0,0,1,0,.18,1.211,1.211,0,0,1-.54.72,0.247,0.247,0,0,1-.06.18,0.738,0.738,0,0,1-.54.48l-0.42.3a1.972,1.972,0,0,0-.3.24,0.947,0.947,0,0,1-.24.18q-0.3.18-.63,0.36a7.332,7.332,0,0,0-.75.48q-0.122.06-2.64,1.5c-0.36.2-.7,0.381-1.02,0.54s-0.621.321-.9,0.48a1.588,1.588,0,0,1-.33.24,1.574,1.574,0,0,0-.33.24,0.542,0.542,0,0,0-.3.48,24.468,24.468,0,0,1-2.16,3.48,10.212,10.212,0,0,1-1.68,1.8,5.123,5.123,0,0,1-1.14,1.14,4.591,4.591,0,0,1-.48.42,3.821,3.821,0,0,0-.42.36l-1.08.9a2.731,2.731,0,0,1-1.08.48l0.66-1.02a0.954,0.954,0,0,0,.96-0.78q0.36-.6,1.44-2.94l0.72-1.38,0.72-1.62v-0.12a2.538,2.538,0,0,1-1.14-.3,1.273,1.273,0,0,1-.48-0.48,0.121,0.121,0,0,1,.03-0.09c0.019-.019.009-0.03-0.03-0.03a0.921,0.921,0,0,1-.24-0.54,0.644,0.644,0,0,0-.36-0.48l-0.24-.24a3.885,3.885,0,0,1,1.14.24,2.313,2.313,0,0,0,.54.24h0.3a11.147,11.147,0,0,1,1.38-.78,0.91,0.91,0,0,0,.3-0.36c0.079-.279.18-0.63,0.3-1.05a9,9,0,0,1,.36-1.05q0.72-2.039.84-2.4l0.48-1.26a0.168,0.168,0,0,0-.12-0.24q-1.2-.48-1.8-0.66a7.248,7.248,0,0,0-1.14-.48l0.42,0.48a0.621,0.621,0,0,1-.06.9,0.735,0.735,0,0,0-.18.3,1.851,1.851,0,0,0-.21.45,2.9,2.9,0,0,1-.27.57l-0.6,1.38c-0.081.12-.18,0.28-0.3,0.48a2.474,2.474,0,0,1-.36.48,6.489,6.489,0,0,0-.42.66,6.639,6.639,0,0,1-.42.66,2.384,2.384,0,0,0-.45.69c-0.141.3-.27,0.55-0.39,0.75l-0.48.78c-0.161.24-.341,0.5-0.54,0.78s-0.42.6-.66,0.96l-0.84,1.26-0.84,1.32q-0.72.962-1.14,1.44-0.122.18-.33,0.45a5.022,5.022,0,0,1-.39.45,12,12,0,0,1-2.58,1.98q-0.3.121-.6,0.27l-0.66.33a4.307,4.307,0,0,1-2.1.6,1.907,1.907,0,0,0-.51.06c-0.141.041-.27,0.081-0.39,0.12a2.379,2.379,0,0,1-.66.06,5.326,5.326,0,0,1-.96-0.06,2.124,2.124,0,0,1-.78-0.42,0.053,0.053,0,0,0,.06-0.06h0Zm28.5-20.7,0.24-.12c0.079,0,.12-0.06.12-0.18a0.171,0.171,0,0,1,.24-0.24l1.5,0.18a0.1,0.1,0,0,1,.09.06,0.094,0.094,0,0,0,.09.06,2.281,2.281,0,0,0,.42.24,1.56,1.56,0,0,0,.21.3,0.529,0.529,0,0,1,.15.3,0.4,0.4,0,0,0,.12.3,0.818,0.818,0,0,1,.24.6,1.045,1.045,0,0,1-.06.42,0.588,0.588,0,0,1-.48.42,0.386,0.386,0,0,0-.18.18,0.729,0.729,0,0,1-.12.18l-0.3.54a0.289,0.289,0,0,1-.42,0,2.326,2.326,0,0,1-.3-0.36,2.445,2.445,0,0,0-.3-0.36v-0.06a0.5,0.5,0,0,1-.21-0.24,1.176,1.176,0,0,0-.21-0.3l0.06-.42c0-.039-0.021-0.189-0.06-0.45a0.882,0.882,0,0,0-.48-0.63,0.748,0.748,0,0,1-.36-0.42h0Zm-6.06,7.62,0.06,0.06,2.88-1.68q-1.322-.66-1.92-1.02a20.536,20.536,0,0,0-1.02,2.64h0Zm-0.96,5.4h0.24a7.41,7.41,0,0,0-.9-0.48,4.183,4.183,0,0,1,.78-0.06,7.673,7.673,0,0,1,1.2.12,18.287,18.287,0,0,1,4.86,1.56l1.68,1.08q0.6,0.421,1.8,1.38a3.5,3.5,0,0,1,.6.66l0.42,0.72a0.248,0.248,0,0,0,.03.12,0.1,0.1,0,0,1-.03.12,6.76,6.76,0,0,1-.54.66l-0.06.12a2.359,2.359,0,0,1-.3.66v0.12a0.208,0.208,0,0,1-.09.27,1.137,1.137,0,0,0-.21.15c0,0.041-.041.06-0.12,0.06a0.982,0.982,0,0,0-.42-0.03,3.263,3.263,0,0,1-.42.03l-0.36-.12-0.6-.54a3.978,3.978,0,0,0-.48-0.66,28.951,28.951,0,0,0-3.54-3.3,12.688,12.688,0,0,1-1.02-.78c-0.281-.24-0.521-0.439-0.72-0.6a7.788,7.788,0,0,1-.78-0.54c-0.2-.159-0.381-0.3-0.54-0.42Zm13.14,12.54a5.835,5.835,0,0,0-.54-1.38l-0.48-.78q-0.781-.54-1.44-1.08l-0.84-.54a9.682,9.682,0,0,0-1.38-.72,1.123,1.123,0,0,1-.45-0.09c-0.141-.06-0.251-0.109-0.33-0.15a1.766,1.766,0,0,0-.63-0.15,0.734,0.734,0,0,1-.57-0.27h-0.06a0.5,0.5,0,0,0,.18.3l0.48,0.36,1.32,1.56q0.119,0.18.54,0.72a2.859,2.859,0,0,1,.54,1.02,2.368,2.368,0,0,1,.27.72,6.027,6.027,0,0,0,.15.6v0.12q-0.121.12-.06,0.15a0.1,0.1,0,0,1,.06.09,0.246,0.246,0,0,0,.09.15c0.06,0.06.069,0.11,0.03,0.15a0.45,0.45,0,0,0,0,.33,1.333,1.333,0,0,1,.06.33,4.142,4.142,0,0,1,.3.72,1.722,1.722,0,0,0,.24.18,3.78,3.78,0,0,0,.36.15,1.023,1.023,0,0,1,.36.21l0.42,0.3a0.216,0.216,0,0,0,.3,0,1.361,1.361,0,0,1,.36-0.24,0.508,0.508,0,0,0,.3-0.42,0.724,0.724,0,0,1,.09-0.24,0.8,0.8,0,0,0,.09-0.36,0.921,0.921,0,0,0,.3-0.66v-0.12a1.5,1.5,0,0,0-.06-0.96h0Zm-11.82-3.66h-0.06l-0.3.06a2.7,2.7,0,0,1-.9.42l-0.3-.06a4.393,4.393,0,0,0-.84-0.36,6.984,6.984,0,0,1-.9-0.36l0.06,0.06a0.958,0.958,0,0,1,.48.66v0.3l0.6,1.02,0.3,0.24a1.163,1.163,0,0,1,.78.24l0.36,0.12a0.106,0.106,0,0,0,.09-0.09,0.52,0.52,0,0,0,.03-0.15l0.06-.24a1.249,1.249,0,0,1,.54-1.26c0.079-.079.06-0.159-0.06-0.24a0.249,0.249,0,0,1,.06-0.36h0Zm-7.5,1.26-0.9-.3a2.036,2.036,0,0,1-.84-0.12h-0.06a0.105,0.105,0,0,0,.12.12l0.24,0.84a1,1,0,0,0,.06.78l0.48,0.54a0.339,0.339,0,0,0,.24.24,3.209,3.209,0,0,1,.69.24,3.74,3.74,0,0,0,.63.24,0.42,0.42,0,0,0,.48-0.24,1.49,1.49,0,0,0,.18-0.66,1.126,1.126,0,0,0-.24-0.72,1.859,1.859,0,0,0-1.08-.96h0Zm-7.32.24a5.054,5.054,0,0,0-1.2.87q-0.6.572-.96,0.87a1.113,1.113,0,0,0-.36-0.48l-0.18-.54a2.325,2.325,0,0,0-.42-0.6,2.4,2.4,0,0,0-.66-0.24,0.245,0.245,0,0,1-.06.18c-0.24.441-.381,0.7-0.42,0.78l-0.3.84a3.48,3.48,0,0,0-.48.99,6.319,6.319,0,0,1-.3.81,1.019,1.019,0,0,1-.06.3,0.172,0.172,0,0,0,.06.24,3.667,3.667,0,0,0,.78.6,0.489,0.489,0,0,0,.3.18,3.975,3.975,0,0,0,.96.24,1.252,1.252,0,0,1,.48.06,2.518,2.518,0,0,1,.6-0.06h0.12a1.418,1.418,0,0,1,.9-0.24h0.21a0.217,0.217,0,0,0,.21-0.12q0.119-.12-0.18-0.24a1.132,1.132,0,0,1-.3-0.84,0.491,0.491,0,0,1,.18-0.3l0.78-1.56a1.122,1.122,0,0,0,.12-0.15,0.375,0.375,0,0,0,.06-0.21,6.2,6.2,0,0,0,.42-0.9,0.053,0.053,0,0,0,.06-0.06,0.054,0.054,0,0,0-.06-0.06Zm60.479-24v-0.42a0.1,0.1,0,0,1,.06-0.09,0.1,0.1,0,0,0,.06-0.09,8.85,8.85,0,0,1,1.08-.42l0.18-.18,0.18-.36a0.817,0.817,0,0,1,.6-0.36,0.855,0.855,0,0,1,.48.12l0.3,0.24h0.72q0.058-.12.18,0l0.36,0.06a0.6,0.6,0,0,1,.6.24l0.18,0.12,0.12,0.06a0.457,0.457,0,0,0,.33.33,3.457,3.457,0,0,1,.39.15,0.353,0.353,0,0,1,.06.24,0.41,0.41,0,0,0,.36.3,0.441,0.441,0,0,0,.12.09q0.058,0.031.18,0.09a0.426,0.426,0,0,1,.3.42l-0.06.24a0.293,0.293,0,0,0,.24.42,1.093,1.093,0,0,1,.3.3v0.09c0,0.021-.021.03-0.06,0.03a9.657,9.657,0,0,0-.84.9,1.25,1.25,0,0,0-.06.48,0.538,0.538,0,0,0-.03.3,0.992,0.992,0,0,1,.03.24v1.38a4.043,4.043,0,0,0-.03.84c0.02,0.24.03,0.441,0.03,0.6l0.06,0.78-0.06.78a4.526,4.526,0,0,0,.06.84,1.91,1.91,0,0,0,.12.48v3l0.06,0.66-0.06,1.86v1.92l0.06,0.36,0.06,1.02a1.354,1.354,0,0,1-.06.42,1.133,1.133,0,0,0-.06.36,1.606,1.606,0,0,0,.03.33,0.935,0.935,0,0,1-.03.39c0,0.12.009,0.291,0.03,0.51a1.04,1.04,0,0,1-.09.57,0.1,0.1,0,0,0-.03.12,0.273,0.273,0,0,1,.03.12v0.66a9.716,9.716,0,0,0-.06,1.26v0.12a6.044,6.044,0,0,0-.09.63q-0.031.332-.09,0.63a0.173,0.173,0,0,1-.06.12,0.171,0.171,0,0,1-.12.06,0.519,0.519,0,0,0-.18.36,1.237,1.237,0,0,1-.03.21,0.229,0.229,0,0,1-.27.15,0.192,0.192,0,0,0-.18.12c0,0.041-.01.06-0.03,0.06h-0.09a0.5,0.5,0,0,0-.27.06,0.449,0.449,0,0,0-.15.24l-0.06.3a0.27,0.27,0,0,1-.09.24,0.3,0.3,0,0,1-.15.06,0.32,0.32,0,0,0-.24.18l-0.3.3a0.336,0.336,0,0,0-.18.12,0.216,0.216,0,0,1-.3,0,0.821,0.821,0,0,0-.18.03,0.547,0.547,0,0,1-.3-0.03q-0.122-.06-0.27-0.12t-0.33-.12l-0.06-.06-0.48-.18-2.16-.84a10.272,10.272,0,0,0-1.38-.42,0.5,0.5,0,0,1-.3-0.42l-0.18-.06-0.6-.3a0.517,0.517,0,0,0-.3-0.54,10.479,10.479,0,0,1-1.08-.6,1.6,1.6,0,0,1-.36-0.3l-0.42-.48-1.32-1.2q-0.24-.239-0.42-0.45t-0.3-.33l-0.3-.6a0.342,0.342,0,0,1,.12-0.36q0-.058.06-0.03a0.251,0.251,0,0,0,.12.03l1.5,1.02,0.48,0.18,1.38,0.6a9.54,9.54,0,0,0,1.86.48,15.975,15.975,0,0,0,1.68.12l1.2-.06a1.061,1.061,0,0,0,.63-0.36,1.118,1.118,0,0,0,.27-0.78,0.252,0.252,0,0,0-.06-0.18,4.419,4.419,0,0,0,.18-1.14l-0.06-1.14a12.778,12.778,0,0,0,.03-1.47c-0.021-.42-0.03-0.769-0.03-1.05q0-1.858-.06-2.76l0.06-1.5v-3l-0.06-2.58,0.06-1.8v-2.64l0.06-.72a0.235,0.235,0,0,0-.18-0.24,2.827,2.827,0,0,1-.63-0.21,7.384,7.384,0,0,0-.69-0.27Zm21.24,19.98a0.408,0.408,0,0,0-.6.42v0.18a0.914,0.914,0,0,0-.12.36l-0.18.42-0.36.66a1.221,1.221,0,0,1-.12.27,1,1,0,0,1-.12.15c-0.081.12-.16,0.161-0.24,0.12a0.482,0.482,0,0,1-.27-0.06,2.376,2.376,0,0,0-.21-0.12,4.044,4.044,0,0,1-.84-0.84l-0.12-.12a1.753,1.753,0,0,1-1.14-1.14,0.667,0.667,0,0,0-.24-0.3,5.19,5.19,0,0,1-.27-0.69,1.644,1.644,0,0,0-.33-0.63,2.358,2.358,0,0,1-.45-0.87c-0.1-.339-0.171-0.57-0.21-0.69l-0.84-1.68a3.742,3.742,0,0,0-.42-0.78,2.526,2.526,0,0,0-1.38-1.14,8.246,8.246,0,0,0-1.38-.9,0.413,0.413,0,0,0-.3-0.12l-0.24-.24a3.7,3.7,0,0,0,.39-0.03,1.1,1.1,0,0,1,.45.03h1.98a5.111,5.111,0,0,0,.78.12l0.6,0.12a7.567,7.567,0,0,1,1.68.48,1.86,1.86,0,0,1,1.08.66l0.84,0.84,0.54,0.66,0.06,0.06a0.175,0.175,0,0,1,.24.06,0.642,0.642,0,0,0,.12.18,3.906,3.906,0,0,1,.48.66c0.039,0.081.26,0.42,0.66,1.02a1.231,1.231,0,0,0,.18.57,2.547,2.547,0,0,1,.24.57c0.039,0.081.08,0.161,0.12,0.24a0.553,0.553,0,0,1,.06.24,0.245,0.245,0,0,1-.06.18,0.248,0.248,0,0,0-.06.18v0.9Zm-25.14-7.74a1.213,1.213,0,0,1-.66.9,0.33,0.33,0,0,0-.18.36l-0.6.66v0.12a0.269,0.269,0,0,1-.09.24,1.061,1.061,0,0,0-.15.12c-0.6.48-.88,0.7-0.84,0.66a1.55,1.55,0,0,0-.39.42,2.006,2.006,0,0,1-.27.36,3.4,3.4,0,0,1-.6.72c-0.04.081-.081,0.171-0.12,0.27a1.034,1.034,0,0,1-.24.33,2.053,2.053,0,0,0-.3.66,2.034,2.034,0,0,1-.3.66,4.126,4.126,0,0,0-.39.57,2.016,2.016,0,0,1-.33.45,2.786,2.786,0,0,0-.36,1.14,0.248,0.248,0,0,1,0,.24,0.432,0.432,0,0,0-.48-0.24l-0.48.18a1.95,1.95,0,0,1-.6.12,0.655,0.655,0,0,1-.3-0.06l-0.12-.12a6.426,6.426,0,0,1-.42-0.9,1.19,1.19,0,0,1-.18-0.72v-0.36a0.248,0.248,0,0,1,.06-0.18v-0.09c0-.019-0.021-0.03-0.06-0.03a6.481,6.481,0,0,1-.36-0.66,1.826,1.826,0,0,0-.6-0.72l-0.36-.54a0.55,0.55,0,0,1-.03-0.48,0.655,0.655,0,0,1,.33-0.42l0.96-.36a0.385,0.385,0,0,0,.36-0.24,6.72,6.72,0,0,1,.84-1.44,2.859,2.859,0,0,0,.84-1.26c0-.079.06-0.12,0.18-0.12,0.159,0,.24.041,0.24,0.12a0.7,0.7,0,0,1,.24.48,0.679,0.679,0,0,1-.06.3,1.441,1.441,0,0,0-.06.45v0.39a2.11,2.11,0,0,0-.06.6c0,0.081.03,0.12,0.09,0.12a0.2,0.2,0,0,0,.15-0.06q0.3-.118,1.74-0.84l1.2-.54c0.159-.079.33-0.159,0.51-0.24s0.35-.159.51-0.24a13.146,13.146,0,0,1,1.5-.78h0.24Zm59.459,2.64-0.42-.3-0.12-.06q-0.36-.118-0.84-0.24a16.872,16.872,0,0,0-1.74-.3,7.111,7.111,0,0,0-.93-0.15c-0.26-.019-0.47-0.03-0.63-0.03h-0.42a1.9,1.9,0,0,0-.03-0.3,0.282,0.282,0,0,1,.03-0.24,0.471,0.471,0,0,1,.06-0.18,0.526,0.526,0,0,0,.06-0.24,2.518,2.518,0,0,1-.06-0.6v-4.92l0.06-.18a1.149,1.149,0,0,1,.3-0.21,1.41,1.41,0,0,0,.36-0.27q0.24-.18,1.2-0.72l0.06-.18,0.3-.24a0.89,0.89,0,0,0,.45-0.3,2.107,2.107,0,0,1,.39-0.36H331.1q-0.18,0-.06-0.18c0.08-.24.16-0.459,0.24-0.66a0.527,0.527,0,0,0,.03-0.57,0.821,0.821,0,0,0-.51-0.45,10.857,10.857,0,0,0-1.62-.48,0.243,0.243,0,0,1-.18-0.06,2.029,2.029,0,0,1-.39-0.06,4.392,4.392,0,0,1-.45-0.12,0.242,0.242,0,0,1-.24-0.3q-0.12-1.92-.12-2.94a7.136,7.136,0,0,1,.06-1.08l0.06-1.56a0.124,0.124,0,0,0-.03-0.09c-0.02-.02-0.05-0.009-0.09.03a0.548,0.548,0,0,1-.36-0.27,0.809,0.809,0,0,1-.12-0.27,0.172,0.172,0,0,0-.12-0.12,4.679,4.679,0,0,0-.78-0.54l-0.72-.24a5.71,5.71,0,0,0-1.56-.36,1.983,1.983,0,0,0-.6.12c-0.08.12-.02,0.261,0.18,0.42a6.709,6.709,0,0,1,1.02.84c0.08,0,.12.081,0.12,0.24v1.26a4.931,4.931,0,0,1-.06.75,4.94,4.94,0,0,0-.06.75q0,0.18.03,0.57a2.033,2.033,0,0,1-.03.63v0.54a5.593,5.593,0,0,1-1.02-.42,0.989,0.989,0,0,0-.48,0c0.2,0.12.41,0.261,0.63,0.42s0.45,0.34.69,0.54a0.34,0.34,0,0,1,.12.18,14.418,14.418,0,0,1,.06,1.5l0.06,1.26,0.06,0.54v0.12a1.337,1.337,0,0,0-.12.6v0.18l-0.06.3-1.2.9-1.14.84a4.537,4.537,0,0,0-.78.66L320,97.625a0.543,0.543,0,0,1-.42.06,5.126,5.126,0,0,0-.69-0.18q-0.33-.059-0.63-0.12a0.458,0.458,0,0,0,.06.18,0.17,0.17,0,0,0,.12.12,0.893,0.893,0,0,1,.24.66,0.8,0.8,0,0,0,.18.48,1.088,1.088,0,0,0,.48.36,4.159,4.159,0,0,0,1.5.3h0.6a1.169,1.169,0,0,0,.9,0,10.8,10.8,0,0,1,1.08-.6,1.679,1.679,0,0,0,.36-0.3l0.3-.18c0.08,0,.12.021,0.12,0.06l-0.72.9a0.644,0.644,0,0,1-.24.3l-0.6.84a7.822,7.822,0,0,1-.9,1.26l-0.66.96-0.6.84q-0.18.242-.72,1.02l-0.84,1.26-0.54.9-1.02,1.68-0.54.78a13.414,13.414,0,0,0-.6,1.26,7.911,7.911,0,0,0-.42.96l-0.3.6a0.9,0.9,0,0,0,.36-0.12,0.24,0.24,0,0,0,.18-0.06l1.32-1.26a18.147,18.147,0,0,0,1.44-1.68l0.54-.42q0.06,0.122.12,0.27a1.072,1.072,0,0,1,.06.39q0.66,1.142.78,1.32a6.945,6.945,0,0,0,.66,1.26q0.18,0.3.9,1.5a11.714,11.714,0,0,0,.72,1.02q0.78,0.84,1.62,1.62a5.4,5.4,0,0,0,1.26.78,2.059,2.059,0,0,0,.84.12h0.3a0.388,0.388,0,0,0,.42-0.18,0.746,0.746,0,0,1,.33-0.18,1.351,1.351,0,0,1,.27-0.06,0.626,0.626,0,0,0,.66-0.54v-0.36l0.18-.66a0.194,0.194,0,0,1,.09-0.21,0.273,0.273,0,0,1,.21.03v-3.3a1.888,1.888,0,0,0-.06-0.51,1.621,1.621,0,0,1-.06-0.45l0.06-.54q-0.12-1.44-.24-2.4a7.357,7.357,0,0,0-.12-1.14,12.7,12.7,0,0,1-.12-1.44q0-.239.24-0.12,2.28,0.36,3.12.48a1.787,1.787,0,0,0,.54-0.06,0.353,0.353,0,0,1,.24-0.06h0.48l0.12-.48a1.156,1.156,0,0,0,.24-0.54,0.248,0.248,0,0,0-.06-0.18,0.671,0.671,0,0,1,.06-0.3l0.06-.18H333.2l0.18-.12Zm19.2-7.86a0.49,0.49,0,0,1-.18-0.3,0.256,0.256,0,0,0-.24-0.24l-1.02-.12a2.53,2.53,0,0,0-1.14.24H349.7l-0.48.12a1.551,1.551,0,0,0-.36.36,3.443,3.443,0,0,1-.3.36,0.235,0.235,0,0,1-.24.18,0.353,0.353,0,0,1-.3-0.18l-0.12-.12a0.826,0.826,0,0,0-.54.72,0.32,0.32,0,0,1-.18.24q-0.36.121-.84,0.27t-1.02.27a4.582,4.582,0,0,1-1.2.12,0.392,0.392,0,0,1-.36-0.3,1.25,1.25,0,0,0-.06-0.48v-0.3a0.386,0.386,0,0,0-.24-0.36,0.848,0.848,0,0,0,.24-0.3,1.82,1.82,0,0,0,.06-0.54v-0.12l0.18-.66a0.739,0.739,0,0,0,.03-0.36,0.485,0.485,0,0,1,.03-0.3,6.387,6.387,0,0,1,.06-0.72q0.06-.48.12-0.78a3.717,3.717,0,0,1,.3-0.96,0.106,0.106,0,0,1,.12-0.12l0.78-.3q0.3-.059.9-0.21a3.989,3.989,0,0,0,1.02-.39l1.26-.84a3.764,3.764,0,0,0,1.02-1.38,0.348,0.348,0,0,0-.06-0.24,1.276,1.276,0,0,0-.78-0.72,1.088,1.088,0,0,1-.48-0.36l-0.09-.18a0.158,0.158,0,0,0-.18-0.03,1.2,1.2,0,0,1-.21.03,0.572,0.572,0,0,1-.42-0.06,1.359,1.359,0,0,1-.48-0.09,1.15,1.15,0,0,0-.36-0.09,1.04,1.04,0,0,0-.42.06l-0.66.36a7.608,7.608,0,0,1,.96.54l-1.74,1.92-0.06-.06v-0.36l0.18-1.44a3.3,3.3,0,0,0,.12-0.66,0.924,0.924,0,0,0-.12-0.36,0.178,0.178,0,0,1-.03-0.18,0.815,0.815,0,0,0,.03-0.18l-0.06-.24-0.24-.3-0.6-.54a2.119,2.119,0,0,0-.48-0.3,0.385,0.385,0,0,0-.36-0.24,0.611,0.611,0,0,0-.33-0.12,0.592,0.592,0,0,1-.27-0.06c-0.12-.039-0.23-0.08-0.33-0.12s-0.19-.08-0.27-0.12a1.063,1.063,0,0,0-.12.3,3.651,3.651,0,0,0-.66-0.3,4.609,4.609,0,0,0,.6.84,0.984,0.984,0,0,1,.3.72,1.558,1.558,0,0,1-.06.48l-0.48,2.64a2.161,2.161,0,0,1-.18.96,0.465,0.465,0,0,1-.33,0,0.749,0.749,0,0,0-.27-0.06,6.266,6.266,0,0,1-1.38-.36q-0.36-.18-2.28-1.2l-0.6-.18,0.12,0.54-0.3-.12a0.305,0.305,0,0,1-.3-0.3,1.1,1.1,0,0,0-.36-0.6,6.248,6.248,0,0,0-1.02-.6,0.886,0.886,0,0,0-.42-0.3,1.367,1.367,0,0,1-.78-0.3,1.32,1.32,0,0,0-.96,0q0,0.36-.36.18-0.3-.12-0.36.06a0.243,0.243,0,0,0,.18.06,0.577,0.577,0,0,1,.54.36l0.36,0.48a0.348,0.348,0,0,1,.06.24q0.06,0.54.06,1.68l-0.06,1.5v1.32l-0.06,3.9,0.06,1.98v0.48a1.9,1.9,0,0,0-.12.54,0.834,0.834,0,0,0,.06.36,1.875,1.875,0,0,1,.12.42,0.559,0.559,0,0,0,.3.42,0.1,0.1,0,0,0,.06.09,0.1,0.1,0,0,1,.06.09,1.234,1.234,0,0,0,.96.66,3.14,3.14,0,0,0,.72-0.06,6.517,6.517,0,0,0,1.68-.84l0.54,0.78a0.294,0.294,0,0,1,0,.36l-0.84,1.38-1.26,1.86a6.323,6.323,0,0,0-.36.69,1.87,1.87,0,0,1-.72.81,0.4,0.4,0,0,0-.18.18,0.664,0.664,0,0,1-.12.18,0.455,0.455,0,0,0-.12.6v0.18l0.18-.12a2.758,2.758,0,0,0,.03.39,1.538,1.538,0,0,1-.03.51,17.963,17.963,0,0,0,.12,3.72q0.12,0.9.48,2.7l0.54,1.26a4.532,4.532,0,0,0,.96,1.2,0.853,0.853,0,0,0,.48.12,0.322,0.322,0,0,0,.36-0.24v-0.18l-0.06-.18h0.06a1.467,1.467,0,0,1,.66.54,1.321,1.321,0,0,0,.96.42,1.03,1.03,0,0,0,.42-0.06,12.5,12.5,0,0,0,2.52-.78,1.16,1.16,0,0,1,.21-0.15,0.528,0.528,0,0,0,.21-0.21,0.284,0.284,0,0,1,.3-0.24,8.338,8.338,0,0,0,1.56,1.26q0.24,0.18.69,0.57a1.754,1.754,0,0,0,.93.45l0.78,0.06v-0.06l0.24-.06a2.349,2.349,0,0,0,.33-0.06,0.546,0.546,0,0,0,.39-0.3l0.06-.06,0.78-.42,0.42,0.18a0.623,0.623,0,0,0,.42-0.24,1.338,1.338,0,0,0,.18-0.48,0.244,0.244,0,0,1,.18.06q0-.18.12-0.18l0.24-.54,0.24-.9a1.426,1.426,0,0,1,.06-0.39,1.287,1.287,0,0,0,.06-0.33v-0.12a0.6,0.6,0,0,1-.09-0.42q0.03-.239.03-0.3l0.18-.9a0.563,0.563,0,0,0,.03-0.33,0.568,0.568,0,0,1,.03-0.33,0.753,0.753,0,0,0,0-.6,0.053,0.053,0,0,1,.06-0.06,0.053,0.053,0,0,0,.06-0.06,7.136,7.136,0,0,0,.06-1.08,2.42,2.42,0,0,1,.06-0.66,5.032,5.032,0,0,0,.12-0.9,0.842,0.842,0,0,0-.06-0.36v-0.12l0.06-.24-0.12-.66v-1.08a1.944,1.944,0,0,0-.72-1.44,0.514,0.514,0,0,0-.27-0.21,2.343,2.343,0,0,1-.39-0.21l-0.24-.06q-0.18-.118-0.42-0.27c-0.16-.1-0.34-0.21-0.54-0.33a2.764,2.764,0,0,1-.78-0.72l-0.48-.24a3.674,3.674,0,0,0-1.08.12q-0.54.122-1.02,0.27t-0.96.27a8.838,8.838,0,0,0-3.24,1.38,1.212,1.212,0,0,0-.42.36,0.505,0.505,0,0,1-.3.3,2.343,2.343,0,0,1-.39.21,2.5,2.5,0,0,0-.39.21,0.466,0.466,0,0,0-.12.54l0.78-.36a0.822,0.822,0,0,1,.54-0.12,0.482,0.482,0,0,1,.3-0.06,1.412,1.412,0,0,0,.45.06,0.946,0.946,0,0,1,.39.06,1.656,1.656,0,0,0,.72.12,2.069,2.069,0,0,0,.6-0.06,2.944,2.944,0,0,0,.63-0.09c0.26-.06.45-0.109,0.57-0.15a5.944,5.944,0,0,0,1.17-.36q0.57-.238.75-0.3a4.948,4.948,0,0,0,.84-0.12,2.11,2.11,0,0,1,.06.6,14.531,14.531,0,0,1-.24,2.22,10.6,10.6,0,0,0-.24,1.5q-0.06.662-.3,2.28l-0.3,1.56a0.106,0.106,0,0,1-.12.12,3.222,3.222,0,0,1-.72.12q-0.6.122-1.92,0.24a1.079,1.079,0,0,1-1.02-.12,3.586,3.586,0,0,1-1.14-.9l0.66-.72,0.9-.78,0.54-.48,0.42-.42a1.158,1.158,0,0,0,.6-0.24l0.24-.06a3.842,3.842,0,0,0,.72-0.3,0.445,0.445,0,0,0,.18-0.15,1.035,1.035,0,0,1,.12-0.15l0.18-.42a0.688,0.688,0,0,0,.24-0.48l-0.06-.24a0.806,0.806,0,0,0-.6-0.42h-0.36a0.9,0.9,0,0,1-.84-0.18,0.589,0.589,0,0,0-.27-0.12,0.5,0.5,0,0,0-.27.18,1.063,1.063,0,0,1-.54.36l-1.44.36a11.67,11.67,0,0,0-2.88,1.14c-0.08.041-.19,0.09-0.33,0.15s-0.29.131-.45,0.21a0.342,0.342,0,0,1-.24-0.06,1.211,1.211,0,0,1-.54-1.08,1.862,1.862,0,0,0-.12-0.78,1.715,1.715,0,0,0-.18-0.51,2.167,2.167,0,0,1-.18-0.39,2.48,2.48,0,0,1-.12-0.42,0.271,0.271,0,0,0-.09-0.24,0.875,0.875,0,0,1-.15-0.12,0.953,0.953,0,0,1-.42-0.12l0.42-.42q0.18-.119.33-0.24t0.33-.24l0.54-.48,0.6-.54a1.325,1.325,0,0,1,.42-0.24l0.3-.12,0.96-.48a0.244,0.244,0,0,0,.42,0,4.568,4.568,0,0,1,.78-0.48,1.294,1.294,0,0,0,.78-0.57l0.42-.63-0.48-.54a1.893,1.893,0,0,0-.66-0.48l-0.42-.3h0.48a1.951,1.951,0,0,0,.6.12v0.24h0.12l0.9-.18,1.02-.12a7.609,7.609,0,0,1,1.2-.12h0.3a2.528,2.528,0,0,0,.78,0l1.68-.3q1.14-.3,1.32-0.36a9.432,9.432,0,0,0,1.08-.39q0.48-.21.84-0.33a3.611,3.611,0,0,0,.9-0.48l1.08-.72a0.88,0.88,0,0,0,.3-0.42,3.481,3.481,0,0,0,.36-1.02v-0.18a1.328,1.328,0,0,1-.06-0.42h0Zm-16.38-5.76a2.624,2.624,0,0,0-.06-0.57,4.639,4.639,0,0,0-.12-0.45v-0.66l0.54,0.42a11.863,11.863,0,0,1,1.02.72l0.96,0.9a0.249,0.249,0,0,1-.06.36q-1.44,1.08-2.22,1.56v-0.6q0-1.08-.06-1.68h0Zm0.3,7.5a0.915,0.915,0,0,1-.12-0.36l0.18-1.26v-0.24a0.549,0.549,0,0,1,.42-0.36,2.841,2.841,0,0,1,.48-0.15,1.141,1.141,0,0,0,.54-0.27q0.12-.059.51-0.27a1,1,0,0,0,.51-0.63,1.071,1.071,0,0,0,.75-0.33,1.03,1.03,0,0,0,.51-0.69,0.243,0.243,0,0,0,.3-0.12,0.682,0.682,0,0,1,.24-0.24,1.063,1.063,0,0,1,.12.3,1.168,1.168,0,0,1,.03.45,2.776,2.776,0,0,0-.03.39,0.175,0.175,0,0,0-.06.12,0.17,0.17,0,0,1-.12.12,10.068,10.068,0,0,1-1.56,1.5q-1.32,1.08-1.98,1.68l-0.54.36h-0.18Zm3.12,2.88-0.12-.24a0.572,0.572,0,0,0-.48-0.24,1.634,1.634,0,0,1-.63,0,4.427,4.427,0,0,0-.63-0.06,0.247,0.247,0,0,0-.18.06,0.37,0.37,0,0,1-.48.12l0.42-.3a0.787,0.787,0,0,0,.21-0.15l0.21-.21,1.08-.96a0.5,0.5,0,0,0,.21-0.24,1.016,1.016,0,0,1,.15-0.24,3.258,3.258,0,0,0,.96-1.08,1.773,1.773,0,0,1,.42-0.48l0.42,1.68a3.843,3.843,0,0,0,1.14,1.5,4.066,4.066,0,0,1-1.59.63q-0.87.15-1.11,0.21h0Zm-14.82,1.38h0.06l0.06,0.24a1.441,1.441,0,0,0-.06.45v0.39q0,0.18-.12.18l-1.2.3a0.1,0.1,0,0,1-.12.03,0.28,0.28,0,0,0-.12-0.03,21.1,21.1,0,0,1,1.5-1.56h0Zm0.24,12.06a0.665,0.665,0,0,1-.06.3l-0.36-.12a2.779,2.779,0,0,0-.72-0.78,0.534,0.534,0,0,0-.21-0.21,1.357,1.357,0,0,1-.27-0.21l-0.36-.36a3.462,3.462,0,0,0-.48-0.54,1.432,1.432,0,0,0-.24-0.36,0.907,0.907,0,0,1-.18-0.24l-0.78-.96-0.24-.24a2.352,2.352,0,0,0-.24-0.54q0-.238-0.3-0.12a0.27,0.27,0,0,0-.03-0.27,0.541,0.541,0,0,0-.21-0.21l-0.12-.06a0.963,0.963,0,0,0-.3-0.54,0.535,0.535,0,0,1,.18-0.6q1.08-1.559,1.38-1.92c0.08-.12.26-0.379,0.54-0.78a0.834,0.834,0,0,1,.66-0.42h0.12a3.5,3.5,0,0,0,.6-0.12h0.78a4.2,4.2,0,0,1,.78.06v3.9q0,2.582.06,3.9l-0.06.24a8.286,8.286,0,0,1,.06,1.2h0Zm11.94-2.22q0.78-.3,2.46-0.78l1.2-.3a15.635,15.635,0,0,1-.9,1.86q-0.06-.059-0.45-0.39a2.158,2.158,0,0,0-.87-0.45l0.18,0.18a1.66,1.66,0,0,1,.6,1.08h-0.24q0,0.18.06,0.18c0.16,0.081.16,0.24,0,.48q-0.06.061-.24,0.3a0.746,0.746,0,0,1-.42.3,5.342,5.342,0,0,1-1.02.24q-0.3-1.5-.36-1.68a2.27,2.27,0,0,1-.12-0.3,1.325,1.325,0,0,1-.06-0.42c0-.2.06-0.3,0.18-0.3h0Zm6.78,3.24a1.16,1.16,0,0,0,.15-0.21,0.867,0.867,0,0,1,.27-0.27,0.7,0.7,0,0,0,.42-0.48,0.605,0.605,0,0,1,.42-0.3h0.06a1.9,1.9,0,0,1-.12.54,5.043,5.043,0,0,1-.12.9,0.3,0.3,0,0,1-.48.24l-0.48-.18-0.12-.12a0.075,0.075,0,0,1,0-.12h0Zm-5.28-.12a2.136,2.136,0,0,1,.36-0.66q0.24-.3.36-0.42a0.25,0.25,0,0,1,.36.06,3.65,3.65,0,0,0,.42.54,9.444,9.444,0,0,1-1.5.48h0Z"/>
</svg>
