<svg xmlns="http://www.w3.org/2000/svg" width="400" height="200" viewBox="0 0 400 200">
  <defs>
    <style>
      .cls-1 {
        fill: #fdfdfd;
        stroke: #000;
        stroke-width: 1px;
        fill-rule: evenodd;
      }
    </style>
  </defs>
  <path id="iSlide云犹体" class="cls-1" d="M35.839,79.365a0.451,0.451,0,0,1,.15-0.18c0.06-.039.11-0.02,0.15,0.06v0.12a0.053,0.053,0,0,1-.06.06l-0.12.12a0.12,0.12,0,1,0,.24,0q0.12-.12.36,0.18a1.7,1.7,0,0,0,.72.33,0.494,0.494,0,0,0,.54-0.09,0.49,0.49,0,0,1,.3-0.18h-0.06a0.724,0.724,0,0,0,.33.24,2.464,2.464,0,0,0,.57.24,0.492,0.492,0,0,1,.3.18,4.927,4.927,0,0,0,.6.36,3.085,3.085,0,0,1,1.8,1.5,3.4,3.4,0,0,1,.54,1.44,1.6,1.6,0,0,1-.12.9,0.812,0.812,0,0,1-.3.54,2.194,2.194,0,0,1-.84.3,4.122,4.122,0,0,0-.54.18c-0.081.04-.1,0.081-0.06,0.12a0.262,0.262,0,0,1,.06.36,0.793,0.793,0,0,0,.3.36,1.38,1.38,0,0,1,.33.21c0.06,0.06.03,0.13-.09,0.21l-0.48.6a1.323,1.323,0,0,1-2.22.48,1.215,1.215,0,0,0-.6-0.36,1.2,1.2,0,0,1-.51-0.39,0.8,0.8,0,0,1-.21-0.45q-0.24-.3-0.69-0.81a2.2,2.2,0,0,0-.63-0.57,1.141,1.141,0,0,1-.54-0.6,1.92,1.92,0,0,1-.3-0.84,2.4,2.4,0,0,0-.18-0.48l-0.24-.3v-0.12a1.618,1.618,0,0,1,.09-0.51l0.15-.45a0.622,0.622,0,0,0,.24-0.42c0.039-.2.08-0.38,0.12-0.54a1.974,1.974,0,0,0-.78-0.06l-0.78.06,0.54-.24q0.419-.18.3-0.24l-0.06-.06q0-.18.78-0.18a1.525,1.525,0,0,0,.39-0.03,0.3,0.3,0,0,0,.15-0.21q-0.121-.239-0.18-0.36-0.42-.3.12-0.3a1.235,1.235,0,0,0,.3-0.03,0.141,0.141,0,0,0,.12-0.15h0Zm-0.12,11.88,0.48-.06h0.06a0.8,0.8,0,0,1,.36.09,1.161,1.161,0,0,1,.3.21,1.443,1.443,0,0,0,.48.18,2.835,2.835,0,0,1,.51.12,1.164,1.164,0,0,1,.39.48,7.269,7.269,0,0,1,.78,1.86l0.42,1.08a5.8,5.8,0,0,1,.3,1.44q0.059,0.841.06,1.26l-0.18,1.26a4.151,4.151,0,0,0-.12.72l-0.18.96-0.06.72a2.345,2.345,0,0,1-.18,1.08l-0.12.84a19.892,19.892,0,0,1-.54,2.64q-0.3,1.5-.12,1.5a0.463,0.463,0,0,1,.06.36,3.1,3.1,0,0,0-.24,1.26,0.053,0.053,0,0,0,.06.06,1.372,1.372,0,0,0,.36-0.39q0.239-.329.66-0.81l0.78-.96,1.14-1.32q0.779-.959,3.96-4.5l0.48-.42-0.42.66a2.117,2.117,0,0,0-.54.78l-0.3.48-0.42.48a3.053,3.053,0,0,1-.66.72,3.474,3.474,0,0,0-.33.42,5.218,5.218,0,0,0-.39.66,5.454,5.454,0,0,1-.78.96l-0.3.54c0,0.12-.04.18-0.12,0.18a0.36,0.36,0,0,0-.3.27c-0.081.18-.081,0.291,0,0.33l0.24-.12q0.239-.3.3,0a0.053,0.053,0,0,1-.06.06,0.076,0.076,0,0,0-.12,0,0.708,0.708,0,0,0-.12.18l-1.38,1.86c-0.16.24-.291,0.441-0.39,0.6s-0.051.18,0.15,0.06a0.15,0.15,0,0,1,.18,0,0.2,0.2,0,0,0,.15.06c0.06,0,.05-0.019-0.03-0.06a0.347,0.347,0,0,1,.12-0.24c0.12,0,.14.081,0.06,0.24a0.245,0.245,0,0,1-.18.24c-0.12,0-.2.141-0.24,0.42l-0.12.42c-0.04-.039-0.09.03-0.15,0.21a0.9,0.9,0,0,0-.03.51,0.576,0.576,0,0,1-.24.3,0.392,0.392,0,0,0-.24.18c-0.04.081-.021,0.12,0.06,0.12a0.25,0.25,0,0,1,.18.06l-0.18.06c-0.12,0-.16.041-0.12,0.12,0,0.041.06,0.06,0.18,0.06s0.18-.019.18-0.06a0.838,0.838,0,0,1,.21-0.33,1.128,1.128,0,0,1,.27-0.21c0.039,0,.06.081,0.06,0.24,0,0.12-.04.18-0.12,0.18a0.521,0.521,0,0,0-.12.36,2.3,2.3,0,0,1-.24.6,1.026,1.026,0,0,0-.18.54,2.686,2.686,0,0,1-.24.66,0.36,0.36,0,0,0-.18.18q0,0.061.18,0c0.08-.039.14,0.06,0.18,0.3a1.741,1.741,0,0,1-.15.66,10.375,10.375,0,0,1-.57,1.08,4.649,4.649,0,0,0-.45.78,0.319,0.319,0,0,0,.03.36q0.239,0.18.12,0.3a0.48,0.48,0,0,0-.24.3,1.045,1.045,0,0,1-.3.6,3.593,3.593,0,0,0-.18.54,0.5,0.5,0,0,1,.12.48,1.9,1.9,0,0,0-.18.42,0.9,0.9,0,0,1-.39.51,1.148,1.148,0,0,1-.57.33l-0.48-.24a0.909,0.909,0,0,0-.54-0.24q-0.42,0-.72.03a1.41,1.41,0,0,1-.42,0,1.026,1.026,0,0,1-.3-0.15l-0.24-.36a4.819,4.819,0,0,0-.6-0.66q-0.42-.48-0.93-1.17a2.246,2.246,0,0,1-.51-0.93l-0.06-.36a0.936,0.936,0,0,1-.24-0.36,1.016,1.016,0,0,0-.66-0.42,4.98,4.98,0,0,1-1.35-.63,1.161,1.161,0,0,1-.51-0.81,0.673,0.673,0,0,1,.06-0.48,0.419,0.419,0,0,1,.18-0.24c0.039,0,.039-0.079,0-0.24a0.659,0.659,0,0,1,.24-0.42l0.18-.3a0.665,0.665,0,0,1,.12-0.48,1.466,1.466,0,0,0,.18-1.02,1.763,1.763,0,0,0-.24-0.84,1.287,1.287,0,0,1-.18-0.36c0-.2.14-0.3,0.42-0.3a0.333,0.333,0,0,0,.36-0.3,3.971,3.971,0,0,1,.3-0.72,2.693,2.693,0,0,1,.42-0.66,0.239,0.239,0,0,0,.15-0.24,0.185,0.185,0,0,0-.21-0.12c-0.12,0-.12-0.039,0-0.12a2,2,0,0,0,.42-0.9q0.54-2.038,1.14-3.72t2.28-5.46l1.02-2.4,0.42-1.56a2.616,2.616,0,0,0,.18-1.92,1.226,1.226,0,0,0-1.02-.6,0.934,0.934,0,0,1-.48-0.18q-0.121-.18,1.02-0.42h0ZM68.9,79.125l1.2-.54h5.28v0.3a1.044,1.044,0,0,1-.18.9,0.741,0.741,0,0,0,0,.42v0.36a1.346,1.346,0,0,1-.06.42c0,0.321.009,0.64,0.03,0.96s0.069,0.48.15,0.48a0.444,0.444,0,0,1-.06.36l-0.12.36-0.12.54-0.48,1.2a27.489,27.489,0,0,1-1.5,3.78,9.166,9.166,0,0,1-.54,1.32l-0.9,1.8a4.113,4.113,0,0,0-.54.96,4.1,4.1,0,0,1-.51.93,11.478,11.478,0,0,1-.75.99l-0.48.66a0.98,0.98,0,0,0-.33.6q0.03,0.18.33-.18a3.461,3.461,0,0,0,.33-0.18c0.06-.039.09,0,0.09,0.12,0.039,0.04.06,0.04,0.06,0h0.06l0.06,0.06a0.873,0.873,0,0,1-.18.39,2.784,2.784,0,0,1-.54.57,2.268,2.268,0,0,1-.3.39,0.379,0.379,0,0,0-.18.33l-0.48.36a1.634,1.634,0,0,0-.42.72,4.135,4.135,0,0,0-.3.33,0.434,0.434,0,0,1-.36.15l-0.54-.06a0.61,0.61,0,0,1-.54-0.24l-0.12-.3a0.144,0.144,0,0,0,.18.09,0.123,0.123,0,0,0,.12-0.09,0.387,0.387,0,0,0-.3-0.24l-0.39-.39a1.906,1.906,0,0,1-.33-0.39,0.353,0.353,0,0,0-.24-0.3,0.6,0.6,0,0,1-.36-0.48,1.43,1.43,0,0,1-.03-0.48,0.947,0.947,0,0,1,.33-0.36,0.989,0.989,0,0,1,.66-0.36q0.779-.18.24-0.6l-0.24-.24,0.12-.36,0.24-.42a0.536,0.536,0,0,1,.39-0.12,0.8,0.8,0,0,1,.45.12l0.24,0.06a1.96,1.96,0,0,0,.54-0.18,3.7,3.7,0,0,0,1.44-1.26l0.66-.78a6.759,6.759,0,0,0,1.26-1.74,19.539,19.539,0,0,0,1.02-2.1l0.48-1.26a6.629,6.629,0,0,0,.54-2.04l0.12-.36a1.047,1.047,0,0,0,.06-1.02q-0.24-.239-0.3-0.18H72.8a2.641,2.641,0,0,1-.54-0.12,3.193,3.193,0,0,0-.63-0.15,7.294,7.294,0,0,0-.75-0.03,9.431,9.431,0,0,0-3.36.84,9.685,9.685,0,0,0-2.07,1.2,9.569,9.569,0,0,0-1.65,1.5l-0.36.48c-0.04,0-.06.04-0.06,0.12a11.345,11.345,0,0,1-1.5,1.68q-1.26,1.32-1.92,2.16l-0.72.96a12.624,12.624,0,0,0-.96,1.2,8.211,8.211,0,0,0-.6.96l-0.18.48-0.3.48-0.12.18h-0.12a2,2,0,0,1-.36.9,11.686,11.686,0,0,0-1.62,3.9,3.857,3.857,0,0,0,.12,1.32,1.848,1.848,0,0,0,.24.66,3.263,3.263,0,0,0,.9.48,2,2,0,0,0,.96.18,0.241,0.241,0,0,1,.3.06l-0.12.06c-0.081,0-.12.021-0.12,0.06a3.318,3.318,0,0,0,.96.06l1.44,0.12a5.053,5.053,0,0,0,.84.06q0.66,0,.54-0.18c-0.081-.039.039-0.06,0.36-0.06a4.026,4.026,0,0,0,.78.06q0.36,0,.36.18a1.748,1.748,0,0,0,.96.12c0.24,0,.62-0.019,1.14-0.06l1.68-.12a12.269,12.269,0,0,0,2.7-.36,5.153,5.153,0,0,1,1.53.21,12,12,0,0,1,2.01.63q0.84,0.36,1.38.54a7.791,7.791,0,0,1,1.74.84,2.063,2.063,0,0,0,.6.24,2.5,2.5,0,0,1,.84.42,4.421,4.421,0,0,0,.72.48,0.512,0.512,0,0,1,.3.3q0.059,0.062.78,0.72a1.489,1.489,0,0,1,.6.66l0.36,0.36a11.694,11.694,0,0,1,.9,1.44,5.73,5.73,0,0,0,.66.96,5.626,5.626,0,0,1,.48.72,3.833,3.833,0,0,1,.24.72,3.3,3.3,0,0,1,.06,1.38,7.324,7.324,0,0,1-.24.87,3.244,3.244,0,0,1-.42.75,5.176,5.176,0,0,0-.6.96,1.9,1.9,0,0,1-.72.96,4.083,4.083,0,0,0-.66.48,1.468,1.468,0,0,1-.66.24c-0.28.041-.54,0.09-0.78,0.15a1.807,1.807,0,0,0-.54.21,2.053,2.053,0,0,1-.48.45,4.2,4.2,0,0,1-.42.27l-0.24-.18a0.661,0.661,0,0,0-.42,0l-0.42.18a2,2,0,0,1-1.08.3,5.179,5.179,0,0,0-1.14.3,2.1,2.1,0,0,1-.84.18,1.835,1.835,0,0,1-.24-0.03,0.484,0.484,0,0,0-.3.03,1.689,1.689,0,0,1-.9.42l-0.54.3-0.3.06a1.381,1.381,0,0,0-.48.12,0.785,0.785,0,0,0-.54.18,1.5,1.5,0,0,1-.66.12,2.87,2.87,0,0,0-.84.15,0.647,0.647,0,0,0-.48.27q0.059,0.18-.9.18a1.71,1.71,0,0,0-.66.06,0.193,0.193,0,0,1-.18.12,0.534,0.534,0,0,1-.27-0.09,0.294,0.294,0,0,1-.15-0.27h-0.18q-0.24,0-.18.06,0,0.06-.18.06c-0.16,0-.24.02-0.24,0.06q-0.06.06,0.42,0.06l0.36,0.06a1.352,1.352,0,0,1-.6.18c-0.321.04-.48,0-0.48-0.12a0.383,0.383,0,0,0-.3-0.24l-0.24-.18c0.039-.08-0.03-0.13-0.21-0.15a0.9,0.9,0,0,0-.51.09l-0.54.12-0.48.12a4.833,4.833,0,0,1-1.32.12,5.725,5.725,0,0,0-1.14.06q-0.121.12,0,.12h0.48l-0.66.12q-0.72.18-.6,0a1.765,1.765,0,0,0-.42-0.06h-1.08a5.57,5.57,0,0,0-1.26.06,10.064,10.064,0,0,1-1.68.12,3.362,3.362,0,0,1-.96-0.06q-0.06-.06,0-0.06h0.12a0.732,0.732,0,0,1-.27-0.06,0.882,0.882,0,0,0-.33-0.06c-0.2,0-.3-0.04-0.3-0.12a0.5,0.5,0,0,0-.48-0.06,1.62,1.62,0,0,1-.51.03q-0.15-.03.09-0.09h-0.12a0.75,0.75,0,0,0-.48.06H50.6a0.272,0.272,0,0,0-.3-0.06,9.956,9.956,0,0,1-1.2.06,10.164,10.164,0,0,1-1.38-.06,0.721,0.721,0,0,0-.48-0.06,2.1,2.1,0,0,1-.6-0.06l-0.72-.06a0.368,0.368,0,0,1-.21-0.06,0.161,0.161,0,0,1-.09-0.12q-0.06-.12.36-0.3a0.353,0.353,0,0,0,.18-0.18,0.36,0.36,0,0,1,.3,0H47q0.54,0,.42-0.06c-0.12-.04-0.16-0.08-0.12-0.12a1.04,1.04,0,0,1,.42-0.12,0.563,0.563,0,0,1,.48.06h0.3a1.767,1.767,0,0,1,1.26-.48,3.473,3.473,0,0,0,.87-0.15q0.21-.09-0.27-0.09a0.8,0.8,0,0,1-.42-0.06,0.334,0.334,0,0,1,.3-0.06,5.345,5.345,0,0,0,1.17-.21,6.761,6.761,0,0,0,1.29-.45l1.14-.3a12.262,12.262,0,0,0,1.2-.48l0.84-.36a1.418,1.418,0,0,0,.6-0.18,0.4,0.4,0,0,1,.36-0.18,7.213,7.213,0,0,0,1.14-.36,6.682,6.682,0,0,0,1.08-.54,11.967,11.967,0,0,1,1.2-.72q0.84-.478,1.98-1.2a7.281,7.281,0,0,0,1.5-1.14l0.42-.66a2.981,2.981,0,0,1,.9-1.02,17.616,17.616,0,0,0,1.38-1.44l0.78-.9,0.48-.78a1.846,1.846,0,0,0,.12-0.69c0-.259-0.04-0.39-0.12-0.39-0.2,0-.261-0.019-0.18-0.06a0.076,0.076,0,0,0,0-.12,0.25,0.25,0,0,0-.18-0.06h-0.69a0.732,0.732,0,0,1-.33-0.06,0.412,0.412,0,0,0-.3-0.12l-0.54.06h-1.02c-0.16,0-.22.041-0.18,0.12l-0.06.06a0.19,0.19,0,0,1-.18-0.12v-0.06a0.675,0.675,0,0,0-.6-0.12,1.4,1.4,0,0,1-.66-0.06,0.175,0.175,0,0,0-.12-0.12c-0.081,0-.1.041-0.06,0.12h-1.26c-0.04-.079-0.081-0.079-0.12,0a3.143,3.143,0,0,1-.72.06h-0.36a3.636,3.636,0,0,0-.78.06,1.087,1.087,0,0,1-.72-0.06,0.684,0.684,0,0,0-.3-0.06,7.773,7.773,0,0,0-.78.12h-0.3a1.943,1.943,0,0,1-.6-0.12c-0.321-.079-0.42-0.139-0.3-0.18s0.17-.079.15-0.12a0.239,0.239,0,0,0-.21-0.06H56c-0.081-.079-0.081-0.12,0-0.12q0.54,0.061,0-.18l-0.42-.24a0.12,0.12,0,0,0-.24,0c0.039,0.2-.06.221-0.3,0.06a0.3,0.3,0,0,1-.18-0.09c0-.019.039-0.03,0.12-0.03,0.12-.039.15-0.09,0.09-0.15a0.7,0.7,0,0,0-.27-0.15,0.419,0.419,0,0,1-.36-0.24,0.107,0.107,0,0,0-.12-0.12l-0.12-.24a0.917,0.917,0,0,0-.42-0.48,2.684,2.684,0,0,1-.42-0.48,3,3,0,0,0-.36-0.9,11.734,11.734,0,0,1-.6-1.8,6.631,6.631,0,0,0-.36-1.44l-0.06-.48a0.419,0.419,0,0,0,.09-0.21,1.4,1.4,0,0,0,.03-0.27,2.316,2.316,0,0,1,.3-0.96,1.683,1.683,0,0,0,.12-0.78l0.18-.6a1.1,1.1,0,0,0,.12-0.66,0.054,0.054,0,0,0-.06-0.06,0.6,0.6,0,0,0-.33.18,0.478,0.478,0,0,0-.21.3,1.563,1.563,0,0,1-.18.27,0.326,0.326,0,0,1-.24.15l-0.06-.06a2.466,2.466,0,0,1,.3-0.78q0.239-.48.42-0.93c0.12-.3.219-0.53,0.3-0.69a3.8,3.8,0,0,1,.48-0.9l0.24-.54a16.559,16.559,0,0,1,1.26-2.16,7.756,7.756,0,0,1,.66-0.96l0.96-1.32q-0.06-.18-0.18,0H56q-0.18-.059,1.53-1.68t2.79-2.52a9.8,9.8,0,0,0,.78-0.6,13.989,13.989,0,0,1,2.58-1.44q0.66-.3.99-0.48a3.464,3.464,0,0,1,.51-0.24q0.54-.3,1.59-0.84t2.13-1.02h0Zm3.9,1.98a2.441,2.441,0,0,0-.66-0.06c-0.321,0-.46.021-0.42,0.06l0.48,0.18a1.372,1.372,0,0,0,.66.06c0.12-.039.1-0.12-0.06-0.24h0Zm-19.86,16.38a0.245,0.245,0,0,0,0-.24,0.22,0.22,0,0,0-.12.18l-0.06.18a0.686,0.686,0,0,0,.18-0.12h0Zm-0.3.78c0.039-.12.039-0.189,0-0.21s-0.081.03-.12,0.15-0.04.18,0,.18a0.106,0.106,0,0,0,.12-0.12h0Zm13.08,7.68a18.217,18.217,0,0,0-3.3-.06,2.274,2.274,0,0,0-.54.06q-0.42.062-.36,0.12c0.039,0.2.219,0.24,0.54,0.12a1.555,1.555,0,0,1,.57-0.12,0.556,0.556,0,0,1,.33.06,0.673,0.673,0,0,0,.54.12,1.471,1.471,0,0,0,.54-0.06,0.4,0.4,0,0,1,.42,0,0.19,0.19,0,0,0,.18.12,0.523,0.523,0,0,0,.24-0.06,1.888,1.888,0,0,1,1.14-.12,2.557,2.557,0,0,0,.9-0.06,5.608,5.608,0,0,0-1.2-.12h0Zm-8.52.24q0.18-.119-0.3-0.06c-0.2.041-.24,0.081-0.12,0.12a0.538,0.538,0,0,0,.42-0.06h0Zm9.72,0.3c0-.079-0.06-0.12-0.18-0.12a0.106,0.106,0,0,0-.12.12c0,0.041.039,0.06,0.12,0.06,0.12,0,.18-0.019.18-0.06h0Zm-13.74,11.88a1.493,1.493,0,0,0-.66.18,3.278,3.278,0,0,1-.66.36q-0.121,0-.09.03a0.3,0.3,0,0,0,.21-0.03,1.538,1.538,0,0,0,1.08-.36,0.338,0.338,0,0,0,.12-0.18h0Zm38.64-40.62c-0.12-.039-0.12-0.06,0-0.06l0.48,0.12a6.093,6.093,0,0,0,.9.24,3.274,3.274,0,0,1,1.14.24,8.138,8.138,0,0,1,1.08.72,4.671,4.671,0,0,1,.96,1.05,18.313,18.313,0,0,1,1.02,1.59l0.6,0.96a4.137,4.137,0,0,1,.42.81,9.353,9.353,0,0,1,.36.99l0.12,0.24a0.783,0.783,0,0,1,.06.48l0.3,1.8,0.3,1.86q0.12,1.44.66,4.56a9.384,9.384,0,0,1,.06,1.38,23.153,23.153,0,0,1-.18,3.18l-0.3,1.56a22.1,22.1,0,0,1-.72,3.48,2.26,2.26,0,0,1-.12.63,5.611,5.611,0,0,0-.18.75,7.26,7.26,0,0,1-.36,1.44c-0.12.281-.141,0.441-0.06,0.48v0.12l-0.12.66c-0.04.161-.081,0.3-0.12,0.42a0.24,0.24,0,0,0,0,.24l0.84-.96,2.939-3.06q0.48-.479.99-0.93a2.888,2.888,0,0,1,.57-0.45c0.12,0,.18-0.039.18-0.12l0.24-.24c0.2-.12.24-0.1,0.12,0.06a1.658,1.658,0,0,1-.3.36,1.779,1.779,0,0,0-.42.48,1.156,1.156,0,0,0-.24.54q0,0.18-.12.18l-0.24.36-0.42.54a0.736,0.736,0,0,0-.18.36,3.233,3.233,0,0,1-.54.6,1.768,1.768,0,0,0-.54.6,0.633,0.633,0,0,1-.3.42l-0.24.42-0.12.18a3.155,3.155,0,0,0-.6.78l-0.42.6a0.482,0.482,0,0,0-.24.3c-0.04.12,0,.18,0.12,0.18h0.06a0.694,0.694,0,0,1-.18.42,7.7,7.7,0,0,0-.24.78,0.331,0.331,0,0,1-.12.18q-0.121.061,0,.12a0.243,0.243,0,0,1,.12.24c0,0.12-.04.18-0.12,0.18a0.419,0.419,0,0,0-.18.24,0.961,0.961,0,0,0-.12.42,2.917,2.917,0,0,1-.42.9l-1.08,1.68c0,0.041.039,0.06,0.12,0.06l0.12-.06a2.057,2.057,0,0,1-.6.9,2.946,2.946,0,0,0-.6.96l-0.36.66a1.724,1.724,0,0,0-.42.6c0,0.12-.04.18-0.12,0.18l-0.78.84-0.78.78a0.106,0.106,0,0,0-.12.12,1.482,1.482,0,0,1-.3.54l-0.48,1.02a1.693,1.693,0,0,1-.3.6,3.309,3.309,0,0,1-1.02.06,1.511,1.511,0,0,1-.96-0.06,0.672,0.672,0,0,0-.6-0.12c-0.441,0-.66-0.06-0.66-0.18a0.367,0.367,0,0,0-.42-0.24,0.667,0.667,0,0,1-.3-0.06,0.493,0.493,0,0,1-.18-0.36,3.059,3.059,0,0,1-.21-0.57,5.88,5.88,0,0,0-.21-0.63,5.042,5.042,0,0,0-.15-0.72,0.582,0.582,0,0,0-.21-0.36,1.049,1.049,0,0,1-.3-0.78,1.931,1.931,0,0,1,.12-0.72l0.24-.78,0.18-1.2a2.851,2.851,0,0,0,.18-1.38,5.772,5.772,0,0,1-.06-1.08,0.775,0.775,0,0,1,.06-0.48,0.336,0.336,0,0,0,.06-0.3,8.012,8.012,0,0,1,.12-1.32,4.808,4.808,0,0,1,.18-0.84l0.42-.6a2.674,2.674,0,0,0,.48-0.78q0.6-1.26,1.11-2.43t0.69-1.65l0.06-.24a12.366,12.366,0,0,0,.57-1.35q0.27-.749.39-1.05,0.059-.119.18-0.42t0.24-.54a19.851,19.851,0,0,0,.87-2.61q0.27-1.11,1.35-6.03,0.48-2.1.72-3.51a14.065,14.065,0,0,0,.24-2.19l-0.06-.84q-0.42-3.659-.9-4.08a0.345,0.345,0,0,1-.06-0.24,1.238,1.238,0,0,0-.54-0.69,5.3,5.3,0,0,0-1.2-.75l-0.9-.36,0.3-.18a0.519,0.519,0,0,0,.18-0.36,0.937,0.937,0,0,0-.48-0.48h0Zm6.12,30.18c0-.079-0.021-0.12-0.06-0.12a0.34,0.34,0,0,0-.18.12c0,0.081.02,0.12,0.06,0.12a0.334,0.334,0,0,0,.18-0.12h0Zm-0.36.36a0.468,0.468,0,0,0,.09-0.12c0.02-.039.009-0.06-0.03-0.06l-0.18.18a0.377,0.377,0,0,0-.09.15c-0.021.06-.01,0.09,0.03,0.09a0.419,0.419,0,0,0,.18-0.24h0Zm16.2-28.92a0.457,0.457,0,0,1,.15-0.18c0.06-.039.11-0.02,0.15,0.06v0.12a0.053,0.053,0,0,1-.06.06l-0.12.12a0.12,0.12,0,0,0,.24,0q0.12-.12.36,0.18a1.7,1.7,0,0,0,.72.33,0.493,0.493,0,0,0,.54-0.09,0.491,0.491,0,0,1,.3-0.18H116a0.726,0.726,0,0,0,.33.24,2.482,2.482,0,0,0,.57.24,0.491,0.491,0,0,1,.3.18,4.993,4.993,0,0,0,.6.36,3.085,3.085,0,0,1,1.8,1.5,3.391,3.391,0,0,1,.54,1.44,1.6,1.6,0,0,1-.12.9,0.808,0.808,0,0,1-.3.54,2.187,2.187,0,0,1-.84.3,4.156,4.156,0,0,0-.54.18c-0.08.04-.1,0.081-0.06,0.12a0.261,0.261,0,0,1,.06.36,0.8,0.8,0,0,0,.3.36,1.365,1.365,0,0,1,.33.21c0.06,0.06.03,0.13-.09,0.21l-0.48.6a1.626,1.626,0,0,1-1.26.9,1.643,1.643,0,0,1-.96-0.42,1.211,1.211,0,0,0-.6-0.36,1.2,1.2,0,0,1-.51-0.39,0.806,0.806,0,0,1-.21-0.45q-0.24-.3-0.69-0.81a2.2,2.2,0,0,0-.63-0.57,1.143,1.143,0,0,1-.54-0.6,1.93,1.93,0,0,1-.3-0.84,2.365,2.365,0,0,0-.18-0.48l-0.24-.3v-0.12a1.618,1.618,0,0,1,.09-0.51l0.15-.45a0.621,0.621,0,0,0,.24-0.42q0.06-.3.12-0.54a1.972,1.972,0,0,0-.78-0.06l-0.78.06,0.54-.24q0.42-.18.3-0.24l-0.06-.06q0-.18.78-0.18a1.523,1.523,0,0,0,.39-0.03,0.3,0.3,0,0,0,.15-0.21l-0.18-.36q-0.42-.3.12-0.3a1.232,1.232,0,0,0,.3-0.03,0.141,0.141,0,0,0,.12-0.15h0Zm-0.12,11.88,0.48-.06h0.06a0.8,0.8,0,0,1,.36.09,1.149,1.149,0,0,1,.3.21,1.449,1.449,0,0,0,.48.18,2.828,2.828,0,0,1,.51.12,1.156,1.156,0,0,1,.39.48,7.233,7.233,0,0,1,.78,1.86l0.42,1.08a5.776,5.776,0,0,1,.3,1.44q0.06,0.841.06,1.26l-0.18,1.26a4.213,4.213,0,0,0-.12.72l-0.18.96-0.06.72a2.327,2.327,0,0,1-.18,1.08l-0.12.84a19.624,19.624,0,0,1-.54,2.64q-0.3,1.5-.12,1.5a0.46,0.46,0,0,1,.06.36,3.115,3.115,0,0,0-.24,1.26,0.053,0.053,0,0,0,.06.06,1.364,1.364,0,0,0,.36-0.39q0.24-.329.66-0.81l0.78-.96,1.14-1.32q0.78-.959,3.96-4.5l0.48-.42-0.42.66a2.124,2.124,0,0,0-.54.78l-0.3.48-0.42.48a3.037,3.037,0,0,1-.66.72,3.579,3.579,0,0,0-.33.42,5.29,5.29,0,0,0-.39.66,5.41,5.41,0,0,1-.78.96l-0.3.54q0,0.18-.12.18a0.36,0.36,0,0,0-.3.27c-0.08.18-.08,0.291,0,0.33l0.24-.12q0.24-.3.3,0a0.053,0.053,0,0,1-.06.06,0.076,0.076,0,0,0-.12,0,0.735,0.735,0,0,0-.12.18l-1.38,1.86c-0.16.24-.29,0.441-0.39,0.6s-0.05.18,0.15,0.06a0.15,0.15,0,0,1,.18,0,0.2,0.2,0,0,0,.15.06c0.06,0,.05-0.019-0.03-0.06a0.349,0.349,0,0,1,.12-0.24c0.12,0,.14.081,0.06,0.24a0.245,0.245,0,0,1-.18.24c-0.12,0-.2.141-0.24,0.42l-0.12.42c-0.04-.039-0.09.03-0.15,0.21a0.9,0.9,0,0,0-.03.51,0.574,0.574,0,0,1-.24.3,0.394,0.394,0,0,0-.24.18c-0.04.081-.02,0.12,0.06,0.12a0.249,0.249,0,0,1,.18.06l-0.18.06c-0.12,0-.16.041-0.12,0.12,0,0.041.06,0.06,0.18,0.06s0.18-.019.18-0.06a0.849,0.849,0,0,1,.21-0.33,1.156,1.156,0,0,1,.27-0.21c0.04,0,.06.081,0.06,0.24q0,0.18-.12.18a0.526,0.526,0,0,0-.12.36,2.27,2.27,0,0,1-.24.6,1.038,1.038,0,0,0-.18.54,2.659,2.659,0,0,1-.24.66,0.36,0.36,0,0,0-.18.18q0,0.061.18,0c0.08-.039.14,0.06,0.18,0.3a1.727,1.727,0,0,1-.15.66,10.2,10.2,0,0,1-.57,1.08,4.649,4.649,0,0,0-.45.78,0.32,0.32,0,0,0,.03.36q0.24,0.18.12,0.3a0.481,0.481,0,0,0-.24.3,1.043,1.043,0,0,1-.3.6,3.593,3.593,0,0,0-.18.54,0.5,0.5,0,0,1,.12.48,1.9,1.9,0,0,0-.18.42,0.9,0.9,0,0,1-.39.51,1.145,1.145,0,0,1-.57.33l-0.48-.24a0.906,0.906,0,0,0-.54-0.24q-0.42,0-.72.03a1.411,1.411,0,0,1-.42,0,1.035,1.035,0,0,1-.3-0.15l-0.24-.36a4.8,4.8,0,0,0-.6-0.66q-0.42-.48-0.93-1.17a2.25,2.25,0,0,1-.51-0.93l-0.06-.36a0.945,0.945,0,0,1-.24-0.36,1.015,1.015,0,0,0-.66-0.42,4.98,4.98,0,0,1-1.35-.63,1.163,1.163,0,0,1-.51-0.81,0.678,0.678,0,0,1,.06-0.48,0.421,0.421,0,0,1,.18-0.24c0.04,0,.04-0.079,0-0.24a0.661,0.661,0,0,1,.24-0.42l0.18-.3a0.667,0.667,0,0,1,.12-0.48,1.459,1.459,0,0,0,.18-1.02,1.76,1.76,0,0,0-.24-0.84,1.287,1.287,0,0,1-.18-0.36c0-.2.14-0.3,0.42-0.3a0.333,0.333,0,0,0,.36-0.3,4.046,4.046,0,0,1,.3-0.72,2.714,2.714,0,0,1,.42-0.66,0.239,0.239,0,0,0,.15-0.24,0.184,0.184,0,0,0-.21-0.12c-0.12,0-.12-0.039,0-0.12a2,2,0,0,0,.42-0.9q0.54-2.038,1.14-3.72t2.28-5.46l1.02-2.4,0.42-1.56a2.612,2.612,0,0,0,.18-1.92,1.224,1.224,0,0,0-1.02-.6,0.938,0.938,0,0,1-.48-0.18q-0.12-.18,1.02-0.42h0Zm40.26-16.86v-0.06a1.688,1.688,0,0,1,.72-0.06q0.478,0,.78.03a1.948,1.948,0,0,1,.66.21,6.143,6.143,0,0,1,1.74,1.5,5.635,5.635,0,0,1,1.08,2.04,7.457,7.457,0,0,1,.06,1.32,24.379,24.379,0,0,1-.12,2.7q-0.121.42,0.09-.06a10.444,10.444,0,0,0,.45-1.38,3.853,3.853,0,0,1,.48-1.2q0.238,0.36-1.32,5.22-0.661,2.52-.72,2.76l-0.3,1.08-0.24.9-0.18.66q-0.18.42-.36,0.96l-0.48,1.44a4.416,4.416,0,0,0-.24,1.08,2.8,2.8,0,0,1-.21.87,3.174,3.174,0,0,1-.51.93,1.993,1.993,0,0,0-.36.78,0.647,0.647,0,0,1-.18.36,0.126,0.126,0,0,1-.03.09q-0.032.031,0.03,0.09a0.175,0.175,0,0,1-.12.06c-0.161,0-.2.141-0.12,0.42a4.027,4.027,0,0,1-.33.63,1.6,1.6,0,0,1-.39.51,0.4,0.4,0,0,0-.12.3,0.433,0.433,0,0,1-.06.36,1.024,1.024,0,0,0-.3.6l-0.24.54a0.4,0.4,0,0,0-.12.3,0.346,0.346,0,0,1-.12.24,0.584,0.584,0,0,0-.12.42l-0.12.42a2.385,2.385,0,0,1-.24.72l-0.24.48c-0.041,0-.06.081-0.06,0.24a1.482,1.482,0,0,1-.24.66l-0.48,1.08-0.9,2.22a0.507,0.507,0,0,0-.21.24,0.328,0.328,0,0,0-.03.3,0.679,0.679,0,0,1-.06.3l-0.3.72a1.5,1.5,0,0,1-.3.54l-0.12.24-0.18.54-0.42,1.38a10.351,10.351,0,0,0-.48,1.92,1.361,1.361,0,0,0,.72-0.48l3.12-2.7,1.44-1.32q1.8-1.62,2.82-2.46l2.58-2.22a15.707,15.707,0,0,0,1.62-1.44l1.2-1.14q0.479-.418.69-0.57t0.09,0.09l-0.78.9a3.178,3.178,0,0,0-.48.6,29.6,29.6,0,0,1-3.72,3.54,8.744,8.744,0,0,0-1.32,1.38,2.376,2.376,0,0,1-.54.72,3.941,3.941,0,0,0-.54.66,0.053,0.053,0,0,1-.06.06,0.158,0.158,0,0,0-.12.09,1.532,1.532,0,0,1-.18.21,0.48,0.48,0,0,1-.3.24c-0.041,0-.06.041-0.06,0.12a2.169,2.169,0,0,1-.66.66l-1.44,1.38q-0.661.6-1.2,1.2a3.941,3.941,0,0,0-.54.66h0.06a0.876,0.876,0,0,0,.48-0.24l0.21-.21a0.243,0.243,0,0,1,.15-0.09,2.08,2.08,0,0,0,.66-0.54,2.026,2.026,0,0,1,.48-0.36,0.69,0.69,0,0,1-.21.36,6.535,6.535,0,0,1-.63.6,4.529,4.529,0,0,0-1.08,1.2,10.138,10.138,0,0,0,2.04-1.86l0.78-.66a0.543,0.543,0,0,0,.3-0.3,8.628,8.628,0,0,1,1.26-1.26l1.02-1.08a0.6,0.6,0,0,1,.24-0.24,2.22,2.22,0,0,0,.42-0.54,0.341,0.341,0,0,1,.24-0.24c0.12,0,.18-0.039.18-0.12a0.236,0.236,0,0,1,.18-0.24l0.72-.6a1.469,1.469,0,0,1,.66-0.42c0.079,0-.021.141-0.3,0.42l-0.6.66-0.66.72a11.544,11.544,0,0,1-1.2,1.32,0.519,0.519,0,0,0-.18.36,0.345,0.345,0,0,1-.24.12,0.3,0.3,0,0,0-.15.06,0.459,0.459,0,0,0-.15.18,0.284,0.284,0,0,1-.3.24,0.375,0.375,0,0,0-.21.06,0.2,0.2,0,0,0-.09.18,0.916,0.916,0,0,1-.24.48l-0.12.12a0.683,0.683,0,0,0-.12.18,0.518,0.518,0,0,1-.18.3,0.589,0.589,0,0,0-.3.12c-0.161.161-.18,0.261-0.06,0.3s0.12,0.12,0,.24a0.4,0.4,0,0,1-.3.12,0.106,0.106,0,0,0-.12.12q0.118,0.121-.12.42a0.48,0.48,0,0,0-.24.3,1.282,1.282,0,0,0,.54-0.3,3.447,3.447,0,0,1,.54-0.54l0.36-.18a0.335,0.335,0,0,1,.27-0.15c0.06,0.021.049,0.09-.03,0.21l-0.12.42a0.571,0.571,0,0,1-.24.48,0.432,0.432,0,0,0-.18.36,0.31,0.31,0,0,1-.12.3,2.089,2.089,0,0,1-.42.42,0.676,0.676,0,0,0-.3.24,3.308,3.308,0,0,1-.51.84,6.113,6.113,0,0,1-.93,1.08l-0.48.48a1.615,1.615,0,0,1-.18.27,4.363,4.363,0,0,0-.3.45,2.4,2.4,0,0,0-.54.72q0,0.12-.18.12a1.657,1.657,0,0,0-.42.66,0.944,0.944,0,0,1-.42.42,0.339,0.339,0,0,0-.24.24,2.146,2.146,0,0,1-.42.48,0.756,0.756,0,0,0-.42.36l-0.12.24c-0.12.08-.171,0.14-0.15,0.18a0.234,0.234,0,0,0,.21.06c0.12-.04.139-0.04,0.06,0a0.491,0.491,0,0,0-.18.3c0,0.04-.041.06-0.12,0.06-0.041,0-.06.06-0.06,0.18a0.533,0.533,0,0,1-.33.3,0.691,0.691,0,0,1-.51.12l-0.3-.3a0.484,0.484,0,0,0-.3-0.24q-0.122.06-.24-0.12a0.511,0.511,0,0,0-.3-0.3l-0.3-.12a5.733,5.733,0,0,0-.78-0.78,8.993,8.993,0,0,1-1.02-1.08,1.427,1.427,0,0,0-.6-0.6l-0.48-.42a0.646,0.646,0,0,0-.48-0.36,3.428,3.428,0,0,1-1.14-.48,3.345,3.345,0,0,1-.9-0.66c-0.24-.36-0.4-0.42-0.48-0.18a2.064,2.064,0,0,1-.66.75,7.937,7.937,0,0,1-1.38.93,12.774,12.774,0,0,1-1.2.72l-0.66.36a2.92,2.92,0,0,1-.72.3q-0.18,0-.18.06a1.022,1.022,0,0,1-.66.3l-0.66.42c0,0.08-.1.12-0.3,0.12a0.486,0.486,0,0,0-.36.12,2.625,2.625,0,0,1-1.92.3,8.484,8.484,0,0,0-1.14-.06,1.94,1.94,0,0,1-.78-0.06l-1.2-.24a1.38,1.38,0,0,1-.75-0.36q-0.332-.3-1.17-1.02a10.346,10.346,0,0,1-.96-0.96,4.211,4.211,0,0,1-.54-0.84,6.319,6.319,0,0,1-.54-1.29,11.207,11.207,0,0,1-.3-1.89,23.6,23.6,0,0,1,.54-6.36q0.238-1.139.45-1.8a14.193,14.193,0,0,1,.69-1.68,18.107,18.107,0,0,1,1.8-3.3c0.12-.159.259-0.339,0.42-0.54s0.319-.42.48-0.66a12.3,12.3,0,0,1,.84-1.02l0.9-1.14a3.386,3.386,0,0,1,.6-0.6l0.24-.3a0.9,0.9,0,0,1,.48-0.42,0.681,0.681,0,0,0,.3-0.24c0-.039.06-0.06,0.18-0.06a0.292,0.292,0,0,0,.15-0.06,0.453,0.453,0,0,0,.15-0.18l0.54-.54a3.518,3.518,0,0,1,.48-0.42l0.36-.42a7.459,7.459,0,0,1,.6-0.48l0.9-.54a1.75,1.75,0,0,1,.9-0.36,3.449,3.449,0,0,0,.72-0.3,18.068,18.068,0,0,1,1.86-.84,18.525,18.525,0,0,1,1.86-.66,11.838,11.838,0,0,1,2.94-.42l0.54,0.06a3.359,3.359,0,0,1,1.29.63,2.052,2.052,0,0,1,.81.93l0.24,0.6a2.794,2.794,0,0,1,.06.72,0.887,0.887,0,0,0,.24.66q0.418,0.3.54,2.22v0.84l0.12-.42a11.954,11.954,0,0,1,.72-1.74,11.99,11.99,0,0,0,.72-1.68,0.346,0.346,0,0,0-.18-0.42l-0.18-.18,0.18-.3a2.473,2.473,0,0,0,.21-0.39c0.06-.14.109-0.27,0.15-0.39l0.78-1.5q1.08-1.859,2.28-4.08,1.26-2.52,1.89-4.08t1.41-3.9a6.3,6.3,0,0,0,.42-1.98,6.2,6.2,0,0,0-.12-0.96,2.189,2.189,0,0,0-.27-0.69,0.7,0.7,0,0,0-.45-0.27,1.608,1.608,0,0,1-.48-0.18h0Zm-10.08,22.14a1.131,1.131,0,0,0-.24-0.27c-0.081-.06-0.141-0.05-0.18.03l-0.66.18a4.1,4.1,0,0,0-2.1.96,3.77,3.77,0,0,1-1.08.78l-0.9.48a2.673,2.673,0,0,1-.9.54,6.556,6.556,0,0,0-.99.93q-0.572.63-1.77,2.19l-0.72.84a6.3,6.3,0,0,0-.96,1.44l-0.66,1.08a1.973,1.973,0,0,0-.36,1.38,6.156,6.156,0,0,1-.18,1.5q-0.242,1.26-.42,3.3a0.827,0.827,0,0,0-.06.36,0.845,0.845,0,0,1-.06.36,7.153,7.153,0,0,0,.06,1.53,2.139,2.139,0,0,0,.24,1.11,1.405,1.405,0,0,0,1.08-.09,7.408,7.408,0,0,0,1.62-.75l1.62-1.2q1.379-.959,2.82-2.04a7.224,7.224,0,0,0,1.74-1.98,2.818,2.818,0,0,1,.96-1.44,3.719,3.719,0,0,0,.54-0.93q0.239-.568.78-1.95a3.8,3.8,0,0,1,.42-0.96,1.482,1.482,0,0,0,.24-0.66l0.42-.84a6.282,6.282,0,0,0,.36-1.56,8.415,8.415,0,0,0,.06-1.2,12.481,12.481,0,0,0-.06-1.56,7.373,7.373,0,0,0-.66-1.56h0Zm-1.8,12.24c0-.079-0.06-0.12-0.18-0.12a1.8,1.8,0,0,0-.39.36,0.847,0.847,0,0,0-.27.48c0,0.12.039,0.141,0.12,0.06a2.6,2.6,0,0,1,.54-0.6,0.346,0.346,0,0,0,.18-0.18h0Zm-1.56,1.92,0.06-.72a1,1,0,0,0-.15.24c-0.06.12-.111,0.221-0.15,0.3a5.95,5.95,0,0,1-.81.81,3.912,3.912,0,0,1-.93.75c-0.041,0-.06.06-0.06,0.18q0.119,0.121-.36.36a0.938,0.938,0,0,0-.42.42,0.052,0.052,0,0,0,.06.06,1.46,1.46,0,0,0,.66-0.42,10.89,10.89,0,0,1,.9-0.66,1.139,1.139,0,0,1,.6-0.3,1.39,1.39,0,0,1-.72.66l-1.14.9-0.9.6a0.744,0.744,0,0,0-.27.33c-0.06.141-.051,0.21,0.03,0.21a5.578,5.578,0,0,0,.63-0.39,5.032,5.032,0,0,0,.69-0.57q0.36-.3,1.08-0.84a4.97,4.97,0,0,0,.96-0.87,2.438,2.438,0,0,0,.24-1.05h0Zm0.54-.24a0.845,0.845,0,0,0,.06-0.36c0-.079-0.021-0.12-0.06-0.12a1.353,1.353,0,0,0-.18.36,0.709,0.709,0,0,0-.06.48,0.248,0.248,0,0,0,.03.12,0.287,0.287,0,0,1,.03.12,1.374,1.374,0,0,0,.18-0.6h0Zm-2.22,2.82a0.054,0.054,0,0,0-.06-0.06,1.249,1.249,0,0,0-.36.36,1.281,1.281,0,0,0-.24.3c0.039,0.041.06,0.041,0.06,0a0.106,0.106,0,0,1,.12-0.12,1.091,1.091,0,0,0,.27-0.21,1.116,1.116,0,0,0,.21-0.27h0Zm0.6,0.06q0.059-.058.03-0.09a0.13,0.13,0,0,0-.09-0.03c-0.041,0-.06.041-0.06,0.12v0.18a0.226,0.226,0,0,0,.12-0.18h0Zm40.619-22.74a4.806,4.806,0,0,1,1.02-.06q0.9,0,1.65.06t0.99,0.06a0.346,0.346,0,0,1-.24.06h-0.06a0.854,0.854,0,0,0,.48.48,1.789,1.789,0,0,0,.84.54,0.9,0.9,0,0,1,.48.15,0.413,0.413,0,0,1,.24.33c0,0.081.02,0.1,0.06,0.06,0.08-.08.16-0.06,0.24,0.06a2.259,2.259,0,0,1,.54.9,0.515,0.515,0,0,0,.24.42l0.06,0.24c0,0.2.04,0.3,0.12,0.3l0.06,0.06a0.35,0.35,0,0,1-.18.18,0.641,0.641,0,0,1-.36.12,0.212,0.212,0,0,1-.24-0.24q0-.239-0.12,0a0.191,0.191,0,0,1-.18.12,0.2,0.2,0,0,0-.24.06,0.1,0.1,0,0,1-.06.09,0.259,0.259,0,0,1-.12.03,0.235,0.235,0,0,0-.18.24,5.826,5.826,0,0,1-.39,1.17q-0.39.99-.57,1.53a8.655,8.655,0,0,1-.72.87,5.694,5.694,0,0,1-.66.63l-0.42.3-0.36.3-0.96.72-1.62,1.2q-1.5,1.2-1.8,1.44-1.38,1.08-2.01,1.5a7.068,7.068,0,0,1-1.41.72,3.5,3.5,0,0,1-.75.24,4.957,4.957,0,0,1-.87.06l-0.84.06-0.54-.42-0.6-.42-0.3.48q-0.48,1.322-1.14,3.3a4.893,4.893,0,0,0-.21,1.02q-0.03.421-.03,1.2a8.911,8.911,0,0,0,.24,2.16,4.1,4.1,0,0,0,.81,1.65,2.463,2.463,0,0,0,1.23.87,2.957,2.957,0,0,0,1.08.12,8.084,8.084,0,0,0,1.98-.24q1.02-.239,2.46-0.69a15.132,15.132,0,0,0,2.04-.75,9.149,9.149,0,0,1,1.8-.84l0.54-.3a0.36,0.36,0,0,1,.18-0.18,7.413,7.413,0,0,0,1.14-.57q0.66-.388,1.14-0.69a51.31,51.31,0,0,0,5.64-4.14l1.32-1.14a17.332,17.332,0,0,0,2.34-2.22l0.66-.54q0.78-.838,1.44-1.62,0.36-.418.12,0.18-0.06.061,0.12-.06c0.08-.12.12-0.139,0.12-0.06a0.58,0.58,0,0,1-.12.3,0.6,0.6,0,0,0-.15.21c-0.02.06,0.01,0.071,0.09,0.03q0-.058.03-0.03t-0.03.09q-0.18.242-.45,0.54t-0.39.42a0.778,0.778,0,0,0-.06.48,0.6,0.6,0,0,1-.06.42c-0.04,0-.06.041-0.06,0.12a0.838,0.838,0,0,1-.24.3,0.553,0.553,0,0,0-.3.3,0.521,0.521,0,0,1-.3.21,0.327,0.327,0,0,1-.3.03,0.148,0.148,0,0,0-.18-0.09,0.274,0.274,0,0,0-.18.15,0.119,0.119,0,0,0,.03.09,0.231,0.231,0,0,0,.15.03,0.249,0.249,0,0,1,.18-0.06,0.053,0.053,0,0,1,.06.06,0.587,0.587,0,0,1-.18.21,1.5,1.5,0,0,1-.24.15l-0.3.18a0.645,0.645,0,0,0-.12.36,0.1,0.1,0,0,1,.03.12,0.1,0.1,0,0,1-.09.06q-0.06.062-.06-0.06,0-.239-0.12-0.12c-0.08,0-.12.081-0.12,0.24s-0.04.221-.12,0.18l-0.06-.06a0.511,0.511,0,0,0-.3.3,0.574,0.574,0,0,1-.24.3,0.322,0.322,0,0,0-.24.18,0.9,0.9,0,0,1-.36.3q-0.3.3-.12,0.36a2.712,2.712,0,0,1-.75.81q-0.81.752-1.59,1.41a4.245,4.245,0,0,0-.84.6,1.484,1.484,0,0,1-.6.36l-0.24.18a0.838,0.838,0,0,1-.24.3,1.323,1.323,0,0,0-.36.42,0.642,0.642,0,0,1-.36.42l-0.6.54a10.627,10.627,0,0,1-1.56,1.32l-0.18.12a0.751,0.751,0,0,1-.42.36,0.426,0.426,0,0,0-.24.18,0.683,0.683,0,0,1-.15.39,0.394,0.394,0,0,1-.27.21,0.931,0.931,0,0,0-.42.24,6.021,6.021,0,0,1-.84.54,5.531,5.531,0,0,0-.84.6,0.808,0.808,0,0,1-.48.36,1.245,1.245,0,0,0-.6.36l-0.3.06a3.933,3.933,0,0,0-.75.33,0.952,0.952,0,0,0-.51.39,0.921,0.921,0,0,1-.36.12,0.668,0.668,0,0,0-.3.06,2.854,2.854,0,0,1-.57.36q-0.45.24-.87,0.42a1.146,1.146,0,0,0-.66.36,1.052,1.052,0,0,1-.42.36,0.385,0.385,0,0,0-.3.24q0,0.3-.72.3a6.191,6.191,0,0,1-1.32-.12,3.786,3.786,0,0,0-1.8-.06,0.314,0.314,0,0,1-.3-0.06l-0.72-.24a3.755,3.755,0,0,1-1.98-1.44l-0.72-.9a0.665,0.665,0,0,1-.3-0.36l-0.18-.12-0.6-1.02q-0.72-1.2-.96-1.5l-0.6-.84a9.033,9.033,0,0,1-.84-4.5,11.739,11.739,0,0,1,.54-3.9l0.48-1.38a12.746,12.746,0,0,1,1.14-2.46l0.84-1.38a17.659,17.659,0,0,1,2.52-3.42,17.26,17.26,0,0,1,2.55-2.25,38.236,38.236,0,0,1,3.39-2.01q2.04-1.02,3.66-1.68,1.44-.36,2.22-0.48h0Zm5.76,2.04a0.343,0.343,0,0,0-.24-0.24c-0.04,0-.06.04-0.06,0.12a0.519,0.519,0,0,0,.24.42q0.18,0.18.18,0a0.584,0.584,0,0,0-.12-0.3h0Zm0.48,1.68h0.12a0.519,0.519,0,0,0-.18-0.36q-0.12-.3-0.12-0.18a1.062,1.062,0,0,0,.06.39,0.192,0.192,0,0,0,.12.15h0Zm-3.72.3-0.3-.06a1.34,1.34,0,0,0-.6.12q-0.12,0-.12.18a0.146,0.146,0,0,1-.18,0,1.79,1.79,0,0,0-1.05.18,7.217,7.217,0,0,0-1.59.66,18.309,18.309,0,0,0-2.43,1.68,14.754,14.754,0,0,0-2.31,2.16,19.612,19.612,0,0,0-1.77,2.37,7.9,7.9,0,0,0-1.05,1.83q0,0.062.24,0l1.74-.24a3.735,3.735,0,0,0,.9-0.24,1.026,1.026,0,0,1,.48-0.18l0.36-.12a1.315,1.315,0,0,1,.36-0.18,1.138,1.138,0,0,0,.48-0.3,0.653,0.653,0,0,1,.48-0.3l0.78-.54a3.849,3.849,0,0,1,.66-0.54,7.607,7.607,0,0,0,1.32-1.05,9.361,9.361,0,0,0,1.38-1.35,12.106,12.106,0,0,0,1.26-1.92,4.725,4.725,0,0,0,.72-1.56l-0.06-.06c0,0.04.06-.03,0.18-0.21a0.363,0.363,0,0,0,.12-0.33h0Zm11.16,9.6q0.24-.18.12-0.18a0.878,0.878,0,0,0-.3.18,2.135,2.135,0,0,1-.36.42,1.24,1.24,0,0,0-.3.36c0,0.081.02,0.12,0.06,0.12a1.033,1.033,0,0,0,.33-0.3,3.816,3.816,0,0,0,.45-0.6h0Zm34.14-24.3a2.1,2.1,0,0,1,1.14-.3l0.78,0.06a0.54,0.54,0,0,1,.48.18c0,0.081.14,0.12,0.42,0.12a2.667,2.667,0,0,0,1.2-.24,2.558,2.558,0,0,1,.6-0.12q0.36,0,.42.66a0.941,0.941,0,0,0,.15.6c0.1,0.12.23,0.261,0.39,0.42a3.327,3.327,0,0,0,.42.33q0.3,0.211.72,0.51a1.757,1.757,0,0,1,.96,1.26,1.3,1.3,0,0,1-.57.48,2.945,2.945,0,0,1-.87.42,2.4,2.4,0,0,1-.66.06,0.9,0.9,0,0,0-.6.12,3.641,3.641,0,0,1-1.38.24,4.4,4.4,0,0,0-1.38.12,1.45,1.45,0,0,1-.72.3l-0.48.24a5.994,5.994,0,0,1-.9.24l-0.9.3a1.79,1.79,0,0,1-.48.21q-0.3.09-.6,0.21l-0.66.18a0.385,0.385,0,0,0-.36.24l-0.42.06a23.608,23.608,0,0,0-3.18,1.62,8.161,8.161,0,0,1-.84.42q-0.36.18-1.32,0.78t-1.5,1.02q-0.42.24-.72,0.42c-0.2.12-.34,0.2-0.42,0.24a1.193,1.193,0,0,0-.42.3,3.879,3.879,0,0,1-.6.48q-0.66.6-.87,0.81a0.29,0.29,0,0,1-.39.09q-0.12-.059.06-0.3,0.48-.36,1.35-1.17t1.59-1.59q0.48-.48.78-0.75a2.5,2.5,0,0,1,.42-0.33,13.847,13.847,0,0,0,1.26-1.02,0.5,0.5,0,0,0,.24-0.42c-0.08-.08-0.04-0.12.12-0.12,0.04,0.081.09,0.1,0.15,0.06a0.445,0.445,0,0,0,.15-0.18,0.787,0.787,0,0,0,.21-0.15q0.09-.09.03-0.09a4.472,4.472,0,0,0-.99.42q-0.69.36-1.53,0.9a2.462,2.462,0,0,1-.84.42c-0.12,0-.18.04-0.18,0.12a1.146,1.146,0,0,1-.21.15,1.425,1.425,0,0,1-.39.15,2.259,2.259,0,0,1-.78.24,6.122,6.122,0,0,1-1.62.48,10.213,10.213,0,0,1-1.62.24,3.87,3.87,0,0,1-2.52-.78,1.267,1.267,0,0,1-.51-0.54,0.4,0.4,0,0,1,.27-0.36,0.54,0.54,0,0,0,.18-0.48,0.918,0.918,0,0,1,.3-0.66,0.807,0.807,0,0,0,.36-0.48l0.06-.12,0.12,0.12c0,0.081.03,0.12,0.09,0.12a0.326,0.326,0,0,0,.21-0.12q0.12-.18.24,0.18a2,2,0,0,0,1.62.72,4.352,4.352,0,0,0,1.38-.24,10.081,10.081,0,0,0,2.64-1.32q0.3-.18.81-0.45t0.93-.45a1.16,1.16,0,0,0,.33-0.15c0.18-.1.39-0.21,0.63-0.33a14.307,14.307,0,0,1,1.74-1.08l1.02-.54a3.906,3.906,0,0,1,.96-0.6,5.679,5.679,0,0,0,1.14-.72,3.979,3.979,0,0,0,.54-0.42,0.734,0.734,0,0,1,.33-0.48,2.652,2.652,0,0,1,.63-0.3,1.907,1.907,0,0,1,1.02-.42,2.264,2.264,0,0,0,.84-0.24h0Zm-7.02,6.9,0.24-.06q0.24-.36-0.18,0c-0.08,0-.12.01-0.12,0.03s0.02,0.03.06,0.03h0Zm9.78,3.24a11.665,11.665,0,0,1,1.5-.06,12.1,12.1,0,0,1,1.89.18,6.675,6.675,0,0,1,1.35.3,3.247,3.247,0,0,0,1.14.18,2.556,2.556,0,0,1,.6.06l0.42,0.3,0.3,0.3a1.082,1.082,0,0,0,.21.27,1.917,1.917,0,0,0,.63.33,1.537,1.537,0,0,1,.36.18,1.9,1.9,0,0,1,.24.18,0.343,0.343,0,0,0,.24.12,0.42,0.42,0,0,1,.18.24l0.24,0.24a1.031,1.031,0,0,1,.33.24,1,1,0,0,1,.33.48,1.2,1.2,0,0,0,.3.36,2.368,2.368,0,0,1,.72.66,1.141,1.141,0,0,1,.48.66,0.3,0.3,0,0,1-.3.36q-0.24.06-.18,0.24a0.48,0.48,0,0,1-.24.3q-0.6.3-.6,0a2.273,2.273,0,0,0-.72-0.12,1.947,1.947,0,0,1-1.26-.36l-0.18-.06-0.78.12a4.789,4.789,0,0,1-1.26.18,0.7,0.7,0,0,0-.48.12,2.452,2.452,0,0,1-.84.3,6.307,6.307,0,0,0-1.86.66,2.4,2.4,0,0,1-.96.36l-0.3.12a2.286,2.286,0,0,1-1.2.42,0.49,0.49,0,0,0-.36.12,0.567,0.567,0,0,1-.24.33,0.686,0.686,0,0,1-.36.21H229.7c0,0.081-.06.1-0.18,0.06-0.16,0-.24.021-0.24,0.06a0.334,0.334,0,0,1-.3.06,0.664,0.664,0,0,0-.66.12l-0.48.36a0.121,0.121,0,0,1-.03.09c-0.02.021-.05,0.01-0.09-0.03a0.708,0.708,0,0,0-.3.09,1.029,1.029,0,0,0-.24.15q0,0.121-.12,0-0.06-.12-0.18,0a0.24,0.24,0,0,1-.24,0l0.6-.48,0.78-.6c0.2-.159.18-0.18-0.06-0.06l-0.3.18-1.08.6-0.24.06q0-.18-0.54,0a0.519,0.519,0,0,1-.36.18,0.612,0.612,0,0,1-.24-0.03c-0.04-.02-0.04-0.069,0-0.15l0.24-.12,0.66-.42,1.02-.66a2.7,2.7,0,0,0,1.08-.78,10.357,10.357,0,0,0-2.46.78,20.952,20.952,0,0,1-2.7,1.08,4.459,4.459,0,0,0-1.17.36,7.378,7.378,0,0,0-.87.42,0.121,0.121,0,0,0,.03.09c0.02,0.021.03,0.01,0.03-.03h0.12a2.284,2.284,0,0,1,1.38.66l0.9,0.72a1.247,1.247,0,0,1,.36.72c0.04,0.281-.04.42-0.24,0.42a1.253,1.253,0,0,0-.48.24,0.712,0.712,0,0,0-.36.36,3.841,3.841,0,0,1-.96,1.11,9.091,9.091,0,0,1-1.02.93,1.779,1.779,0,0,0-1.02,1.14,3.27,3.27,0,0,1-1.26,1.26,0.421,0.421,0,0,0-.18.24l-0.24.06a2.961,2.961,0,0,0-.57.48q-0.51.481-1.23,1.14l-0.72.6a1.726,1.726,0,0,0-.6.42,1.938,1.938,0,0,1-.33.36,1.464,1.464,0,0,1-.27.18,0.663,0.663,0,0,0-.42.24,0.876,0.876,0,0,1-.42.3,1.749,1.749,0,0,0-.6.54,1.705,1.705,0,0,0-.48.72,0.882,0.882,0,0,0,.87-0.21q0.75-.389,2.55-1.53,1.14-.779,1.86-1.2,2.76-1.62,3.06-1.86a23.945,23.945,0,0,1,2.94-1.74l0.96-.6a11.935,11.935,0,0,1,1.56-.96,2.51,2.51,0,0,0,.66-0.48,0.643,0.643,0,0,1,.45-0.27,0.467,0.467,0,0,1,.39.09,0.564,0.564,0,0,0,.24.18c0.08,0,.12.021,0.12,0.06a0.577,0.577,0,0,1-.48.42,3.429,3.429,0,0,0-.87.57,1.3,1.3,0,0,0-.45.51q0,0.18-.12.18a2.422,2.422,0,0,0-.48.24c-0.24.12-.32,0.261-0.24,0.42,0,0.161.04,0.24,0.12,0.24,0.08,0.041.1,0.09,0.06,0.15a0.445,0.445,0,0,1-.18.15,17.039,17.039,0,0,0-2.22,1.38,9,9,0,0,1-1.53,1.17q-1.29.871-1.89,1.23l-0.72.36a2.183,2.183,0,0,1-.57.48,7.524,7.524,0,0,1-.81.48,4.749,4.749,0,0,0-1.32.84,10.529,10.529,0,0,1-1.08.72l-1.44,1.02a9.011,9.011,0,0,0-1.32.96q-0.72.781-1.74,1.74a7.165,7.165,0,0,0-1.44,1.44q0,0.18-.12.18a2.667,2.667,0,0,0-.84.36,2.554,2.554,0,0,1-1.14.3,0.528,0.528,0,0,1-.39-0.15,2.158,2.158,0,0,1-.27-0.33,1.486,1.486,0,0,0-.3-0.54q-0.24-.24.3-0.36,0.18,0,.18-0.3a0.46,0.46,0,0,0-.06-0.36,0.62,0.62,0,0,1-.06-0.36,1.035,1.035,0,0,0-.24-0.66,0.494,0.494,0,0,1-.24-0.42,0.662,0.662,0,0,1,.3-0.24,0.3,0.3,0,0,0,.12-0.3,6.86,6.86,0,0,1,.06-0.96,2.287,2.287,0,0,1,.27-0.99,1.059,1.059,0,0,1,.69-0.15,14.786,14.786,0,0,0,1.59-.06,1.209,1.209,0,0,0,.63-0.18c0.2-.24.45-0.549,0.75-0.93a5.7,5.7,0,0,0,.57-0.81,0.394,0.394,0,0,0-.24-0.18,0.859,0.859,0,0,1-.18-0.3,0.809,0.809,0,0,1,.42-0.06,1.269,1.269,0,0,1,.48.06h0.12a2.774,2.774,0,0,0,.54-0.54,5.245,5.245,0,0,1,.78-1.14,10.8,10.8,0,0,1,.78-1.26q0.18-.238.42-0.63a6.543,6.543,0,0,1,.54-0.75q0.48-.6,1.38-1.98t1.32-2.1a1.152,1.152,0,0,0,.18-0.6l0.06-.36q0.18-.058.09-0.21a0.487,0.487,0,0,0-.27-0.21,2.155,2.155,0,0,0-.36-0.15q-0.12-.029,0,0.09,0,0.121-.24.06a12.442,12.442,0,0,0-2.4.66l-1.14.48-0.78.3a4.9,4.9,0,0,1-.72.27q-0.48.151-.72,0.21l-0.6.18a15.8,15.8,0,0,1-1.95.63q-1.23.332-2.25,0.51a5.806,5.806,0,0,1-1.23.21,9.282,9.282,0,0,1-1.29-.03l-1.5-.06a0.8,0.8,0,0,1-.27-0.3q-0.15-.238.03-0.3a0.29,0.29,0,0,0,.06-0.21,0.148,0.148,0,0,0-.18-0.15v-0.12a0.106,0.106,0,0,1,.09-0.09,0.14,0.14,0,0,1,.15.03,0.245,0.245,0,0,0,.18-0.24,0.247,0.247,0,0,1,.18-0.24l0.24-.18a0.177,0.177,0,0,1,.12-0.06,0.342,0.342,0,0,1,.18.12,0.938,0.938,0,0,0,.78.3,11.753,11.753,0,0,0,3.3-.78,42.621,42.621,0,0,0,7.38-3.36l1.26-.72a5.074,5.074,0,0,0,.6-0.48,10.333,10.333,0,0,1,1.14-.72,3.656,3.656,0,0,1,1.02-.48l0.72-.36,1.56-.96q1.98-1.02,2.22-1.2a10.72,10.72,0,0,1,2.04-1.08q0.42-.239,1.2-0.66a6.75,6.75,0,0,0,1.56-.96,13.3,13.3,0,0,1,1.41-1.02,6.5,6.5,0,0,1,1.23-.54h0Zm-1.74,7.92,0.12-.12c0.04-.039.04-0.06,0-0.06l-0.06.12h-0.18a0.491,0.491,0,0,0-.3.18c-0.08.081-.1,0.12-0.06,0.12a0.878,0.878,0,0,0,.48-0.24h0Zm0.06,3.18a0.634,0.634,0,0,1,.36-0.06,9.939,9.939,0,0,1,1.41.12,7.886,7.886,0,0,1,1.17.24,4.8,4.8,0,0,1,1.92,1.02,0.978,0.978,0,0,0,.24.15,1.41,1.41,0,0,1,.36.27,13.77,13.77,0,0,1,2.34,2.52l0.72,0.84a13.005,13.005,0,0,1,1.32,2.04q0.12,0.242.48,0.9a1.6,1.6,0,0,1,.3.9c-0.04,0-.05.021-0.03,0.06a0.438,0.438,0,0,0,.09.12l0.42,0.84a2.982,2.982,0,0,0,.36.96,1.041,1.041,0,0,1,.3.84l0.24,0.9a6.528,6.528,0,0,1,.12,1.68l0.06,1.56c0.12,0.161.12,0.24,0,.24a0.953,0.953,0,0,0-.12.6,1.042,1.042,0,0,1-.18.72,0.44,0.44,0,0,0-.06.36q0.06,0,.06.24l-0.18.78a1.06,1.06,0,0,1-.24.6l-0.24.42a0.444,0.444,0,0,1-.24.36,0.429,0.429,0,0,0-.33.18q-0.15.18-.09,0.24a0.147,0.147,0,0,1,0,.18,0.67,0.67,0,0,1-.6.12,0.808,0.808,0,0,1-.66-0.18,0.8,0.8,0,0,0-.42-0.06,0.681,0.681,0,0,1-.54-0.06q-0.06-.24-0.36-0.06-0.06.06-.24-0.06a0.322,0.322,0,0,1-.18-0.24,0.289,0.289,0,0,0-.3-0.24,0.37,0.37,0,0,1-.21-0.06,0.161,0.161,0,0,1-.09-0.12,0.382,0.382,0,0,0-.36-0.12q-0.18,0-.18-0.24t-0.06-.24a0.083,0.083,0,0,1-.09-0.12,0.269,0.269,0,0,1,.15-0.18q0.12-.12,0-0.18a0.235,0.235,0,0,0-.24-0.18l-0.36-.12a0.5,0.5,0,0,1-.18-0.27,0.483,0.483,0,0,1,.06-0.21,0.347,0.347,0,0,0,.06-0.24,2.554,2.554,0,0,1-.12-0.81,0.688,0.688,0,0,1,.06-0.45,1.991,1.991,0,0,0,.06-0.72,2.008,2.008,0,0,1,.06-0.72,0.5,0.5,0,0,0-.09-0.42,1.32,1.32,0,0,0-.45-0.42,3.548,3.548,0,0,0-.81-0.3,7.632,7.632,0,0,0-1.11-.24,1.036,1.036,0,0,1-.6-0.3,1.549,1.549,0,0,0-.51-0.15c-0.18-.019-0.45-0.03-0.81-0.03-0.96,0-1.44-.079-1.44-0.24q0-.419-1.86-0.42a5.254,5.254,0,0,1-1.26-.24,1.611,1.611,0,0,1,.9-0.3,3.159,3.159,0,0,0,.57-0.06,3.351,3.351,0,0,1,.57-0.06l0.9-.12,0.96-.06,2.7-.36a16.273,16.273,0,0,0,2.16-.18q0.24-.119-0.21-2.04a11.514,11.514,0,0,0-.99-2.88l-0.12-.36-0.36-.6-0.3-.66-0.72-1.14a6.329,6.329,0,0,0-3-2.34,2.093,2.093,0,0,1-.78-0.42l-0.42-.36c-0.12,0-.18-0.039-0.18-0.12a0.674,0.674,0,0,1,.6-0.12,1.911,1.911,0,0,1,.45-0.06,1.2,1.2,0,0,0,.39-0.06h0Zm60.12-24.42a0.845,0.845,0,0,1,.36-0.06,1.271,1.271,0,0,1,1.08.6,2.151,2.151,0,0,1,.48.96l0.24,0.66,0.42,0.3q0.48,0.3.96,0.57a1.968,1.968,0,0,0,.6.27l0.54,0.24a1.245,1.245,0,0,0,.6.36c0.24,0,.36.081,0.36,0.24a1.408,1.408,0,0,0,.6.72,0.832,0.832,0,0,1,.9.54,2.932,2.932,0,0,1,.21.99,13.887,13.887,0,0,1,.09,1.53,9.782,9.782,0,0,1-.27,1.17,4.225,4.225,0,0,1-.33.93,0.216,0.216,0,0,0-.12.21,0.594,0.594,0,0,1-.06.27l-0.3.6a0.741,0.741,0,0,0-.18.42,0.657,0.657,0,0,1-.24.42l-0.12.36a0.314,0.314,0,0,1-.06.3,5.756,5.756,0,0,0-.39.84,1.1,1.1,0,0,0-.15.6l0.06,0.06a0.666,0.666,0,0,0,.36-0.54,0.935,0.935,0,0,1,.21-0.51,5.239,5.239,0,0,1,.57-0.45,1.149,1.149,0,0,0,.72-0.78l0.18-.36c0.08-.12.1-0.2,0.06-0.24s-0.14.021-.3,0.18a0.878,0.878,0,0,1-.54.18h-0.3l0.24-.18a2.581,2.581,0,0,0,.39-0.33,1.468,1.468,0,0,0,.27-0.33c0-.08-0.08-0.12-0.24-0.12h-0.18a0.194,0.194,0,0,1,.15-0.12,0.749,0.749,0,0,1,.27-0.06h0.06a0.641,0.641,0,0,0,.36-0.12,0.32,0.32,0,0,0,.18-0.24,0.357,0.357,0,0,1,.18-0.18,0.762,0.762,0,0,1,.21-0.24,3.116,3.116,0,0,0,.27-0.24l0.18-.18a1.47,1.47,0,0,1-.42.18c-0.16,0-.24.04-0.24,0.12s-0.06.12-.18,0.12c-0.08,0-.12-0.02-0.12-0.06a30.157,30.157,0,0,1,2.28-2.64,16.279,16.279,0,0,0,1.2-1.38l0.18-.36a9.6,9.6,0,0,0,.75-1.02q0.39-.6.63-1.02a1.211,1.211,0,0,0-.06-0.66q-0.24-.779-0.06-0.78l0.3,0.12,0.3,0.12a0.444,0.444,0,0,1,.36.06,0.332,0.332,0,0,0,.18.12c0.04,0,.06-0.039.06-0.12a1.193,1.193,0,0,1,.42-0.3,2.974,2.974,0,0,1,.45-0.15,0.23,0.23,0,0,1,.21.03,0.322,0.322,0,0,1,.24.36,1.414,1.414,0,0,0,.18.6l1.02,1.32a24.16,24.16,0,0,0,2.28,1.92l0.3,0.3,0.18,0.3-0.18.18a0.274,0.274,0,0,0-.15.15,0.216,0.216,0,0,0,.09.21,0.673,0.673,0,0,1,.24.36q0.3,0.3.48,0.51a1.867,1.867,0,0,1,.24.33c0,0.081-.16.06-0.48-0.06a0.322,0.322,0,0,0-.24-0.18,0.586,0.586,0,0,0-.3.12l-0.36.12a0.506,0.506,0,0,0-.36,0l-0.3.3a0.423,0.423,0,0,1-.36.06,0.305,0.305,0,0,1-.12-0.3l-0.06-.06h-0.24a0.149,0.149,0,0,0-.18,0,0.709,0.709,0,0,0-.12.18,0.469,0.469,0,0,1-.12.27,0.309,0.309,0,0,1-.24-0.09l-0.24-.18a1.387,1.387,0,0,0-.39-0.48,1.405,1.405,0,0,0-.39-0.3H304.1a1.463,1.463,0,0,0-.6-0.06,2,2,0,0,0-.9.18q-0.18.121-.39,0.24t-0.33.18a0.518,0.518,0,0,0-.42.24l-0.18.18a0.983,0.983,0,0,0-.6.36,2.081,2.081,0,0,1-.48.3l-0.48.36a2.331,2.331,0,0,1-.42.33,0.822,0.822,0,0,1-.42.15,0.387,0.387,0,0,0-.3.24l-0.42.3a0.618,0.618,0,0,0-.54.36,0.764,0.764,0,0,0-.24.21,1.008,1.008,0,0,1-.42.27,0.837,0.837,0,0,0-.48.36,1.057,1.057,0,0,0,.78.12,1.638,1.638,0,0,1,.84.18,11.61,11.61,0,0,0,2.22.36,3.494,3.494,0,0,0,.84-0.18,2.261,2.261,0,0,1,.54-0.06,0.6,0.6,0,0,1,.72.48,0.368,0.368,0,0,0,.06.21,0.161,0.161,0,0,0,.12.09c0.08,0,.12.141,0.12,0.42a1.29,1.29,0,0,0,.09.51,0.454,0.454,0,0,0,.33.27,0.741,0.741,0,0,1,.42.18l0.6,0.42a2.763,2.763,0,0,1,.81.48,3.043,3.043,0,0,1,.57.54,0.915,0.915,0,0,0,.12.36,0.788,0.788,0,0,1,.12.66,0.54,0.54,0,0,1-.18.48l-0.24.12a0.457,0.457,0,0,1-.42.3l-0.42.06a2.843,2.843,0,0,1-1.38-.36,0.972,0.972,0,0,0-.6-0.18,1.5,1.5,0,0,0-.78.18l-0.42.3a1.6,1.6,0,0,0-.72.3l-0.9.36a0.729,0.729,0,0,0-.33.15l-0.15.15c-0.08.12-.16,0.141-0.24,0.06q-0.18-.18-0.54.24a4.386,4.386,0,0,1-.81.42,1.069,1.069,0,0,1-.63.12h-0.06a0.442,0.442,0,0,1-.36.24,9.22,9.22,0,0,0-1.14.54,2.465,2.465,0,0,0-.72.48,0.343,0.343,0,0,1-.24.12l-0.24.12a9.647,9.647,0,0,1-1.02.75q-0.6.391-.84,0.51a0.235,0.235,0,0,1,.18-0.24q0.24-.239.15-0.21a1.579,1.579,0,0,0-.33.21,1.02,1.02,0,0,1-.42.21,0.134,0.134,0,0,1-.18-0.15,0.159,0.159,0,0,0-.18-0.18,3.487,3.487,0,0,0-1.14.54,2.673,2.673,0,0,0-.24.48,3.121,3.121,0,0,1-.42.93,12.849,12.849,0,0,1-.72,1.17,3.07,3.07,0,0,1-.3.57c-0.12.18-.24,0.371-0.36,0.57a5.7,5.7,0,0,1-.51.72,2.1,2.1,0,0,0-.27.36,4.181,4.181,0,0,0-.9,1.08l-1.44,1.68a2.843,2.843,0,0,1-.9.9,5.976,5.976,0,0,0-1.5,1.68l-0.84,1.02-1.14,1.32a0.867,0.867,0,0,1-.27.27q-0.15.09-.15-0.09l0.66-1.08a2.438,2.438,0,0,0,.54-1.08,1.55,1.55,0,0,0-.33.27q-0.21.211-.33,0.33a1.47,1.47,0,0,1-.3.54q-0.18.241-.33,0.45a1.524,1.524,0,0,0-.21.39,0.383,0.383,0,0,1-.18.18,0.4,0.4,0,0,0-.18.18l-0.72.78a16.278,16.278,0,0,0-1.14,1.44l-0.84,1.14a4.249,4.249,0,0,1-1.26,1.44,2.657,2.657,0,0,0-1.08,1.26,0.47,0.47,0,0,1-.12.09q-0.06.03-.06-0.03a1.431,1.431,0,0,1,.27-0.69q0.33-.63,1.17-1.95a4.272,4.272,0,0,1,.24-0.51,2.167,2.167,0,0,0,.18-0.39,2.74,2.74,0,0,1,.72-0.9q0.9-1.319,1.62-2.58a4.389,4.389,0,0,0,.36-0.63,1.386,1.386,0,0,1,.18-0.33l0.48-1.02q0.78-1.62,1.32-2.52,1.62-2.939,2.46-4.62a6.82,6.82,0,0,0,.54-1.5,0.159,0.159,0,0,0-.18-0.18,1.382,1.382,0,0,0-.54.18,8.756,8.756,0,0,1-1.17.42q-0.63.18-1.41,0.42a8.769,8.769,0,0,1-2.1.18,10.549,10.549,0,0,1-2.58-.24c-0.32-.159-0.59-0.3-0.81-0.42a0.7,0.7,0,0,1-.39-0.48,0.5,0.5,0,0,1,0-.36c0.08,0,.08-0.039,0-0.12s-0.1-.14-0.06-0.18a0.149,0.149,0,0,1,.18,0c0.12,0,.18-0.08.18-0.24a0.57,0.57,0,0,1,.12-0.48c0-.039.03-0.06,0.09-0.06a0.974,0.974,0,0,1,.27.06q0.36,0.18.99,0.42a3.009,3.009,0,0,0,.87.24,6.9,6.9,0,0,0,2.31-.57,17.4,17.4,0,0,0,2.67-1.29q0.3-.18.93-0.48t1.35-.72q0.78-.36,1.11-0.51a0.621,0.621,0,0,0,.39-0.45,3.257,3.257,0,0,0,.12-0.9l0.06-.72a11.658,11.658,0,0,0,.6-2.58,7.791,7.791,0,0,1,.3-1.74l0.6-3.12a1.337,1.337,0,0,1,.12-0.6,6.243,6.243,0,0,0,.42-1.74l0.3-1.44a8.461,8.461,0,0,0,.12-1.68l-0.48-.3a1.522,1.522,0,0,1-.69-0.54,3.089,3.089,0,0,1-.45-0.72,1.927,1.927,0,0,1-.06-1.14,1.006,1.006,0,0,1,.18-0.9,3.554,3.554,0,0,0,.96-0.48,3.636,3.636,0,0,1,.54-0.3h0Zm-15.12.18q0.12-.12.18,0l0.18,0.42a1.078,1.078,0,0,0,.66.18,2.082,2.082,0,0,1,.39.03,0.281,0.281,0,0,1,.21.21l0.42,0.6a0.354,0.354,0,0,0,.09.3,0.2,0.2,0,0,0,.21,0,1.679,1.679,0,0,1,.36-0.06,0.246,0.246,0,0,1,.18.24,1.528,1.528,0,0,0,.18.27,0.334,0.334,0,0,0,.18.15,0.344,0.344,0,0,1,.24.24,1.679,1.679,0,0,0,.36.3l0.24,0.18a1.717,1.717,0,0,1,.6.48,3.358,3.358,0,0,1,1.32,1.38,0.5,0.5,0,0,1,.18.27,0.2,0.2,0,0,1-.18.15q-0.12,0-.12.18a0.121,0.121,0,0,0,.03.09c0.02,0.021.05,0.01,0.09-.03,0.12-.039.18-0.03,0.18,0.03a0.578,0.578,0,0,1-.12.27,2.232,2.232,0,0,0-.24.9l-0.12.24a0.491,0.491,0,0,0-.12.36,5.413,5.413,0,0,1-1.2,1.32,4.263,4.263,0,0,1-1.5,1.14,0.053,0.053,0,0,0-.06.06,0.674,0.674,0,0,1-.3.24q-0.48.3-.24,0.36c0.08,0,.09.01,0.03,0.03l-0.27.09a3.3,3.3,0,0,0-1.38.96q-0.36.3-.72,0.63a1.851,1.851,0,0,1-.54.39,4.412,4.412,0,0,0-.75.42,2.041,2.041,0,0,0-.63.6l-0.18.12c-0.12,0-.18.021-0.18,0.06a1.626,1.626,0,0,1-.36.42l-0.3.42a1.474,1.474,0,0,0,.24.66q0.18,0.481.39,1.2a7.389,7.389,0,0,1,.27,1.32,0.466,0.466,0,0,0,.18.42,0.944,0.944,0,0,1,.24.54l0.3,1.44a7.493,7.493,0,0,1,.24,1.38,1.508,1.508,0,0,0,.24.9,0.185,0.185,0,0,1,.21.15,3.5,3.5,0,0,1,.03.57l0.06,0.84a0.7,0.7,0,0,0,.24.6,2.392,2.392,0,0,1,.18.66,1.491,1.491,0,0,0,.12.66q0.12,0.3-.06.36a0.3,0.3,0,0,0,.06.3,2.614,2.614,0,0,1,.18,1.26l0.12,1.08a0.479,0.479,0,0,1,.06.3,0.346,0.346,0,0,0,.06.24,0.358,0.358,0,0,1,0,.3,1.873,1.873,0,0,0-.06.45,0.742,0.742,0,0,0,.06.33v1.08l0.06,1.2c0.12,0.12.12,0.221,0,.3a5.426,5.426,0,0,0,0,1.14l-0.06,1.5a12.024,12.024,0,0,0-.12,1.98q-0.12,1.561-.18,1.8a2.147,2.147,0,0,1-.06.45,2.362,2.362,0,0,0-.06.51,5.422,5.422,0,0,1-.48,1.68l-0.12.6-0.24.66-0.06.42-0.18.36a0.2,0.2,0,0,0-.18.09,0.292,0.292,0,0,0-.06.15,0.57,0.57,0,0,1-.24.48,2.72,2.72,0,0,0-.3.54,4.285,4.285,0,0,1-1.2,1.2l-0.42.06q-0.24.18-.36,0.06a0.242,0.242,0,0,0-.24,0,5.6,5.6,0,0,1-1.26.3,0.676,0.676,0,0,1-.24-0.3,0.54,0.54,0,0,0-.39-0.36,0.457,0.457,0,0,0-.45.12,0.578,0.578,0,0,1-.27.12,0.176,0.176,0,0,1-.15-0.12,0.3,0.3,0,0,1,0-.36q0.12-.06,0-0.18a1.611,1.611,0,0,1-.54-0.66l-0.18-.42a0.786,0.786,0,0,1-.36-0.84,0.6,0.6,0,0,0,0-.54v-0.18a2.384,2.384,0,0,1,.12-0.69,0.478,0.478,0,0,1,.24-0.39q0.12,0,.09-0.09a0.377,0.377,0,0,0-.09-0.15,0.516,0.516,0,0,1-.24-0.42,1.167,1.167,0,0,1-.03-0.45q0.03-.21.15-0.09,0.12,0.24.12,0.06a0.645,0.645,0,0,0-.12-0.36,2.281,2.281,0,0,0-.84-0.72,0.638,0.638,0,0,1-.36-0.12c-0.12-.079-0.14-0.12-0.06-0.12a0.959,0.959,0,0,0-.6-0.54,3.383,3.383,0,0,0-.84-0.48,1.026,1.026,0,0,1-.48-0.18,2.82,2.82,0,0,0-.96-0.6c-0.24-.12-0.43-0.219-0.57-0.3a1.391,1.391,0,0,1-.27-0.18l-0.42-.3-0.6-.3a1.93,1.93,0,0,0-.54-0.18l-0.66-.24a2.283,2.283,0,0,0-.66-0.39,1.129,1.129,0,0,0-.66-0.15,1.887,1.887,0,0,0-.33.24c-0.14.12-.29,0.261-0.45,0.42a5.171,5.171,0,0,1-.66.42c-0.16.081-.16,0,0-0.24a0.351,0.351,0,0,0,.18-0.3,1.387,1.387,0,0,1,.42-0.72,1.847,1.847,0,0,0,.36-0.48l-0.24-.18a0.36,0.36,0,0,1-.27-0.15q-0.03-.09.15-0.09c0.2,0,.3.041,0.3,0.12a0.174,0.174,0,0,0,.15.12c0.06,0,.09-0.039.09-0.12a0.712,0.712,0,0,0-.36-0.36,0.669,0.669,0,0,1-.3-0.24,0.986,0.986,0,0,1,.54.12l0.48,0.12a2.608,2.608,0,0,0,.3-0.18,0.892,0.892,0,0,0,.3-0.36l0.78-.96a20.9,20.9,0,0,0,1.95-2.22q1.29-1.62,2.49-3.24,1.44-1.918,1.5-1.98a9.686,9.686,0,0,0,1.02-1.5,4.379,4.379,0,0,1,.54-0.96,7.332,7.332,0,0,0,1.26-2.46l0.06-.24a1.717,1.717,0,0,0-.12-0.57,1.3,1.3,0,0,0-.24-0.45,0.4,0.4,0,0,1-.06-0.54v-0.12a3.53,3.53,0,0,0-.06-0.63,1.935,1.935,0,0,0-.12-0.45,1.188,1.188,0,0,0-.57.42q-0.51.481-.69,0.66a0.334,0.334,0,0,1-.15.18,0.454,0.454,0,0,1-.21.12,0.829,0.829,0,0,0-.54.3l-0.48.42a1.045,1.045,0,0,0-.6.3l-0.3.12a0.865,0.865,0,0,0-.3.24,2.9,2.9,0,0,1-.6.54q-0.06.06-1.92,1.56a2.97,2.97,0,0,1-1.32.78q-0.06-.118-0.3.18-1.44.841-1.98,1.14t-0.06-.24a13.914,13.914,0,0,1,1.2-.9l0.72-.66q0.18-.12,1.56-1.38a3.531,3.531,0,0,0,.78-0.72,2.2,2.2,0,0,0,.39-0.3q0.27-.239.63-0.54,0.24-.3.42-0.54a2.636,2.636,0,0,0,.24-0.36c0-.08.06-0.12,0.18-0.12a4.7,4.7,0,0,0,1.38-1.38l0.48-.66q1.08-1.38,1.2-1.56l0.3-.3-0.18-.72a16.845,16.845,0,0,0-.78-2.04l-0.54-1.26a4.656,4.656,0,0,0-1.14-1.92,0.353,0.353,0,0,1-.18-0.18,1.514,1.514,0,0,1-.18-0.36q-0.48-.72-1.17-1.56a2.633,2.633,0,0,0-.99-0.9,0.476,0.476,0,0,1-.15-0.03,0.58,0.58,0,0,1-.21-0.15l-0.48-.3a0.813,0.813,0,0,1-.6-0.24l-0.12-.18,0.12-.42a0.582,0.582,0,0,1,.27-0.3,0.893,0.893,0,0,1,.33-0.06,1.086,1.086,0,0,0,.33.09,1.014,1.014,0,0,1,.45.21,4.34,4.34,0,0,0,.72.06,0.479,0.479,0,0,1,.3.06,0.4,0.4,0,0,0,.36.18,5.937,5.937,0,0,1,2.34,1.47,9.849,9.849,0,0,1,2.22,2.37,4.855,4.855,0,0,0,.42.69q0.24,0.33.36,0.51a2.146,2.146,0,0,1,.48.9,1.123,1.123,0,0,0,.3.42,0.985,0.985,0,0,0,.45-0.48,2.1,2.1,0,0,0,.39-0.66,0.293,0.293,0,0,1,.06-0.15,1,1,0,0,1,.12-0.15l0.12-.12a0.075,0.075,0,0,0,0-.12,1.322,1.322,0,0,1,.3-0.72q3.18-5.34,3.24-6.36a1.1,1.1,0,0,0-.06-0.72,1.027,1.027,0,0,1-.06-0.42,0.636,0.636,0,0,0,0-.54,0.473,0.473,0,0,1-.06-0.3,1.245,1.245,0,0,1,.36-0.78h0Zm25.92,9.06c0-.039-0.04-0.06-0.12-0.06l-0.06.06,0.06,0.12a0.106,0.106,0,0,0,.12-0.12h0Zm-4.86,9.48a0.5,0.5,0,0,0,.18-0.27c0-.06-0.02-0.05-0.06.03q-0.6.24-1.08,0.42a0.37,0.37,0,0,1-.15.09,0.6,0.6,0,0,0-.21.15,0.241,0.241,0,0,1-.24.12,2.543,2.543,0,0,0-.72.3q-0.42.24-.72,0.42a0.353,0.353,0,0,0-.18.3q0,0.18-.12.18-0.12-.059-0.39.36t-0.69,1.26v0.06a0.929,0.929,0,0,0,.6-0.42l1.02-.84,0.54-.42,0.42-.3a10.54,10.54,0,0,0,1.8-1.44h0Zm12.72,2.7a0.959,0.959,0,0,1,.36-0.54,1.133,1.133,0,0,1,.06.36,0.346,0.346,0,0,1-.06.24c-0.04,0-.06.081-0.06,0.24a0.371,0.371,0,0,1-.42.42q-0.06,0-.06.18a0.456,0.456,0,0,0,.12.09c0.04,0.021.06,0.01,0.06-.03a0.053,0.053,0,0,1,.06.06q0,0.18-.06.18a1.44,1.44,0,0,0-.3.84l-0.3.48a1.346,1.346,0,0,0-.18.48,0.717,0.717,0,0,0,0,.42,0.342,0.342,0,0,1,.03.27q-0.03.212-.09,0.15a0.106,0.106,0,0,0-.12.12h0.06a0.941,0.941,0,0,1,.27.24,0.564,0.564,0,0,1,.15.36q0.06,0,.03.09a0.27,0.27,0,0,1-.15.15,0.589,0.589,0,0,0-.12.42c0.04,0,.05.011,0.03,0.03a0.15,0.15,0,0,1-.18,0q-0.03-.028.03-0.09c0-.159-0.02-0.24-0.06-0.24a0.334,0.334,0,0,1-.06-0.3c0-.159-0.03-0.24-0.09-0.24a0.205,0.205,0,0,0-.15.18v0.18q0,0.72.3,0.72,0.12,0,.12.18l0.06,0.3c0.04,0.081,0,.12-0.12.12a0.106,0.106,0,0,0-.12.12,0.151,0.151,0,0,0,.06.15,0.1,0.1,0,0,0,.12-0.03c0.28-.079.44-0.06,0.48,0.06a0.332,0.332,0,0,1-.3.06q-0.24,0-.18.18c0,0.161-.04.24-0.12,0.24a0.21,0.21,0,0,0-.18.18c0,0.161.04,0.24,0.12,0.24a0.62,0.62,0,0,0,.3-0.42,0.28,0.28,0,0,1,.15-0.15q0.09-.028.09,0.09a0.842,0.842,0,0,1,.06.36,0.248,0.248,0,0,1,.06.18,0.526,0.526,0,0,0,.06.24c0.08,0.081.06,0.12-.06,0.12a0.143,0.143,0,0,0-.15.12,1.268,1.268,0,0,0-.03.3,0.486,0.486,0,0,0,.12.36h0.06a0.8,0.8,0,0,0,.24-0.6q0.12-.418.18-0.3c0.04,0,.04-0.1,0-0.3q-0.06-.18.03-0.18a0.322,0.322,0,0,1,.21.18v0.48a0.5,0.5,0,0,0,0,.36,0.214,0.214,0,0,1,.03.18,0.273,0.273,0,0,0-.03.12,0.589,0.589,0,0,0-.12.42l0.06,0.66a0.337,0.337,0,0,0-.06.3q0.12,0.36-.12.36c-0.12.041-.1,0.12,0.06,0.24a0.389,0.389,0,0,1,.18.42,0.91,0.91,0,0,1-.03.27,0.194,0.194,0,0,1-.21.09,0.184,0.184,0,0,0-.21.12q-0.03.122,0.15,0.18c0.16,0,.24.041,0.24,0.12l0.12,0.3a0.343,0.343,0,0,1,.12.18q0,0.061-.18-0.06-0.06-.058-0.06,0l0.06,0.24a0.421,0.421,0,0,1,.09.21c0.02,0.1.01,0.15-.03,0.15q-0.12-.119-0.06.3,0.12,0.36,0,.36c-0.04,0-.06.041-0.06,0.12s0.02,0.1.06,0.06c0.08-.039.14,0.12,0.18,0.48a0.949,0.949,0,0,1-.06.66,0.216,0.216,0,0,0,0,.3,0.97,0.97,0,0,1,.06.84l-0.06.84c0,0.081.1,0.12,0.3,0.12a0.417,0.417,0,0,1,.36.33,8.086,8.086,0,0,1,.06,1.29,6.605,6.605,0,0,0,.06,1.38,8.022,8.022,0,0,1,.09,1.08,2.521,2.521,0,0,1-.03.84,0.272,0.272,0,0,0-.12.27,0.408,0.408,0,0,0,.06.27q0.12,0.06-.06.24l-0.12.3-0.12.24-0.36.3a0.658,0.658,0,0,1-.24.42,1.49,1.49,0,0,0-.06.54,0.173,0.173,0,0,1,.06.12,0.053,0.053,0,0,0,.06.06l-0.36.42-0.36.48,0.06,0.72v0.36a1.191,1.191,0,0,1-.12.54,3.9,3.9,0,0,1-1.68.6,13.214,13.214,0,0,1-1.86.12,11.417,11.417,0,0,1-2.52-.18l-1.14-.18a13.682,13.682,0,0,1-2.4-.72,8.4,8.4,0,0,0-1.32-.57q-0.78-.27-1.26-0.39a5.875,5.875,0,0,1-.96-0.18l-0.72-.18a1.194,1.194,0,0,1-.72-0.18l-1.02-.3a9.6,9.6,0,0,1-2.4-1.2,7.559,7.559,0,0,0-1.38-.96l-1.32-.96a4.063,4.063,0,0,0-1.02-1.02,4.866,4.866,0,0,1-.39-0.45q-0.21-.27-0.27-0.33a3.989,3.989,0,0,1-.18-1.26,8.221,8.221,0,0,1,.3-3.06,17.457,17.457,0,0,1,1.08-2.46q1.02-2.1,1.74-3.54a3.97,3.97,0,0,0,.6-1.2l1.74-2.76a5.919,5.919,0,0,0,.78-1.26,1.546,1.546,0,0,0,.24-0.42,0.272,0.272,0,0,0-.06-0.3,0.948,0.948,0,0,1-.3-0.54,0.682,0.682,0,0,1,.06-0.54,1.04,1.04,0,0,0,.3-0.6,0.693,0.693,0,0,1,.21-0.36,2.983,2.983,0,0,1,.45-0.42l0.3-.18,0.18,0.18a1.53,1.53,0,0,1,.36.72,4.663,4.663,0,0,0,.84,1.02,6.157,6.157,0,0,1,.87.99,0.89,0.89,0,0,1,.03.69q-0.12.36-.27,0.72a1.588,1.588,0,0,1-.27.48l-0.12.24a0.34,0.34,0,0,1-.24.24,0.344,0.344,0,0,0-.24.24l-0.36.3a0.825,0.825,0,0,0-.21.15,0.248,0.248,0,0,0-.09.15,0.409,0.409,0,0,1-.24.18,0.868,0.868,0,0,0-.36.27,0.327,0.327,0,0,0-.12.33q0,0.18-.06.18a0.49,0.49,0,0,0-.36.3,0.564,0.564,0,0,1-.24.18,0.605,0.605,0,0,0-.24.24,2.852,2.852,0,0,0-.24.36,0.329,0.329,0,0,1-.15.18q-0.15.121-.33,0.24l-0.66.9a3.65,3.65,0,0,1-.42.54,0.57,0.57,0,0,0-.18.24,2.435,2.435,0,0,1-.6,1.08,3.92,3.92,0,0,0-.72,1.26,0.19,0.19,0,0,1-.12.18q-0.12,0-.12.18l-0.48,1.08a4.365,4.365,0,0,0-.72,2.28,3.085,3.085,0,0,0,.63.75q0.57,0.572,1.17,1.11c0.12,0.081.23,0.15,0.33,0.21a0.513,0.513,0,0,0,.24.09,0.2,0.2,0,0,0,.15-0.06,0.376,0.376,0,0,0-.18-0.36,0.478,0.478,0,0,1-.21-0.33c0.02-.06.11-0.049,0.27,0.03a4.837,4.837,0,0,0,1.92.54l0.72,0.06a8.643,8.643,0,0,0,1.32-.18,4.249,4.249,0,0,0,.84-0.18,2.014,2.014,0,0,1,.48-0.12q0.12-.058,1.17-0.48a28.431,28.431,0,0,0,2.91-1.44q3.72-1.918,4.14-2.52a0.934,0.934,0,0,0,.24-0.72c-0.08,0-.12-0.1-0.12-0.3,0-.12.04-0.139,0.12-0.06l0.12,0.12a3.057,3.057,0,0,0,.24-0.45,2.686,2.686,0,0,0,.18-0.57,0.106,0.106,0,0,1,.12-0.12,1.261,1.261,0,0,0,.3-0.24,0.245,0.245,0,0,0,.18-0.3,0.54,0.54,0,0,1,0-.36l0.12-.36,0.06-.24v-0.18l0.06-.42c0.04-.24.12-0.339,0.24-0.3,0.04,0.081.1,0.06,0.18-.06l0.06-.3,0.18-.06a0.476,0.476,0,0,0,.39-0.39,2.4,2.4,0,0,0,.15-0.87,1.184,1.184,0,0,1,.06-0.6,1,1,0,0,0,.24-0.45,4.443,4.443,0,0,0,.24-0.75,0.349,0.349,0,0,1,.06-0.24q0.12-.118.06-0.18c0-.079.02-0.12,0.06-0.12a0.351,0.351,0,0,0,.18-0.3c0-.2.04-0.3,0.12-0.3a1.466,1.466,0,0,0,.12-0.54l0.12-.54q0.18-.478.33-0.96a6.367,6.367,0,0,0,.21-0.84c0-.079.02-0.12,0.06-0.12a0.3,0.3,0,0,0,.12-0.36,0.171,0.171,0,0,1-.09-0.21,0.153,0.153,0,0,1,.15-0.15c0.16,0,.24-0.039.24-0.12a2.54,2.54,0,0,0-.06-0.42c-0.12-.12-0.12-0.219,0-0.3a0.5,0.5,0,0,0,.21-0.24,2.026,2.026,0,0,0,.21-0.42h0Zm-1.08,5.82a0.818,0.818,0,0,0-.15-0.21c-0.06-.06-0.11-0.049-0.15.03a0.269,0.269,0,0,0,.03.27,0.251,0.251,0,0,0,.21.15c0.04,0,.06-0.079.06-0.24h0Zm-38.04.9a2.748,2.748,0,0,0-.06-0.72,0.208,0.208,0,0,0-.18-0.18,2.8,2.8,0,0,0-.87.39,4.864,4.864,0,0,0-.99.69,6.342,6.342,0,0,1-.78.78l-0.72.6a1.808,1.808,0,0,0-.48.3,9.414,9.414,0,0,0-.9.9l-0.96.72a17.45,17.45,0,0,0-1.68,1.56,3.242,3.242,0,0,1-1.02.84,9.935,9.935,0,0,0-.78.66l-0.48.48,0.48,0.18,0.96,0.3,1.08,0.24,1.14,0.36,1.02,0.36,1.32,0.42,2.28,0.48,0.42,0.06,0.18-.48,0.48-2.16a26.571,26.571,0,0,0,.42-3.33,28.634,28.634,0,0,0,.12-3.45h0Zm27.9-16.02-0.06-.12-0.06.12,0.06,0.06Zm47.28-14.76a0.347,0.347,0,0,1,.24-0.12,1.5,1.5,0,0,1,.6.24,6.6,6.6,0,0,1,1.98,1.32l1.08,1.2a3.9,3.9,0,0,1,.66.78q0,0.18.12,0.18a0.763,0.763,0,0,1,.36.42,1.146,1.146,0,0,0,.42.72l0.18,0.42,0.24,0.3a6.8,6.8,0,0,1,1.26,2.88,1.147,1.147,0,0,0,.3.72,1.28,1.28,0,0,1,.27.69,4.65,4.65,0,0,1,.21,1.05,5.721,5.721,0,0,0,.18,1.14,9.917,9.917,0,0,0,.18,1.2,0.466,0.466,0,0,0,.18.42,0.3,0.3,0,0,0,.3.06,1.271,1.271,0,0,0,.3-0.24,2.834,2.834,0,0,0,.66-0.3q0.42-.239.9-0.48a6.587,6.587,0,0,0,.9-0.42,1.054,1.054,0,0,0,.42-0.42,0.67,0.67,0,0,1,.06-0.3,0.458,0.458,0,0,0,.06-0.18,0.411,0.411,0,0,1,.36-0.3,3.208,3.208,0,0,1,.99-0.18,7.008,7.008,0,0,1,1.29,0,0.862,0.862,0,0,0,.78,0,16.17,16.17,0,0,1,1.62.12,6.047,6.047,0,0,1,.87.09,1.445,1.445,0,0,0,.81-0.03,2.374,2.374,0,0,1,.72-0.06h0.6l0.06,0.72a1.122,1.122,0,0,0,.18.96,1.152,1.152,0,0,1,.48.42,1.245,1.245,0,0,0,.6.36,1.019,1.019,0,0,1,.45.39,1.793,1.793,0,0,1,.39.63,0.433,0.433,0,0,1-.18.42l-0.3.42a0.475,0.475,0,0,1-.54.24,3.924,3.924,0,0,0-.9.06l-0.84.06a12.778,12.778,0,0,0-2.34.48l-1.02.42a9.782,9.782,0,0,0-1.86.72l-0.78.42a8.374,8.374,0,0,0-.9.6,1.473,1.473,0,0,1-.66.24,0.408,0.408,0,0,0-.3.12,0.172,0.172,0,0,0-.12.12,0.17,0.17,0,0,0,.12.12l0.6,0.42a1.375,1.375,0,0,1,.54.3,0.931,0.931,0,0,0,.15.12,1.819,1.819,0,0,0,.21.12q0.06,0.06.39,0.36t0.57,0.54l1.32,1.44a3.574,3.574,0,0,1,.96.96,1.384,1.384,0,0,0,.3.39,2.73,2.73,0,0,1,.42.57l1.2,1.68q0.96,1.321,1.68,2.19t1.92,2.07a3.115,3.115,0,0,0,.66.69,1.6,1.6,0,0,0,.6.21,1.755,1.755,0,0,1,1.08.36,3.312,3.312,0,0,1,.75.75,1.456,1.456,0,0,1,.15.93,1.477,1.477,0,0,0,.06.72,1.588,1.588,0,0,1,.24.9q0.12,0.72.24,1.17a3.485,3.485,0,0,0,.54,1.05l0.6,1.26a2.058,2.058,0,0,1,.21.78,0.738,0.738,0,0,1-.09.54,0.853,0.853,0,0,0,0,.66l0.06,0.72a1.333,1.333,0,0,1-.12.6l-0.24.06a0.491,0.491,0,0,0-.3.18,0.437,0.437,0,0,1-.27.21,0.17,0.17,0,0,1-.21-0.09q0-.18-0.24-0.18-0.3,0-.3.18l0.12,0.06q0.12,0,.06.09a0.508,0.508,0,0,1-.3.15,0.322,0.322,0,0,1-.42-0.12l-0.24-.18c-0.12,0-.18-0.079-0.18-0.24a0.646,0.646,0,0,0-.36-0.42l-0.42-.6a0.4,0.4,0,0,0-.09-0.24,0.617,0.617,0,0,0-.21-0.18l-0.12-.24c0.08,0,.08-0.1,0-0.3a0.375,0.375,0,0,0-.3-0.3,0.772,0.772,0,0,1-.3-0.72,0.3,0.3,0,0,0-.15-0.27c-0.1-.06-0.23-0.129-0.39-0.21l-0.48-.18a0.224,0.224,0,0,1-.18-0.21,0.3,0.3,0,0,1,0-.27c0-.039-0.06-0.06-0.18-0.06a0.467,0.467,0,0,1-.42-0.12l-0.54-.12a0.667,0.667,0,0,1-.6-0.12,1.782,1.782,0,0,0-.6-0.06,0.808,0.808,0,0,1-.66-0.18,0.283,0.283,0,0,1-.15-0.06,0.5,0.5,0,0,0-.27-0.06q-0.3.121-.3-0.18a0.125,0.125,0,0,0-.03-0.18,0.825,0.825,0,0,0-.39-0.06l-0.54-.06-0.72-.12a2.578,2.578,0,0,0-.6-0.06l-0.12-.12q0-.36-0.84-0.36-0.48,0-.48-0.18a0.2,0.2,0,0,0-.15-0.12,3.491,3.491,0,0,0-.39-0.12,1.7,1.7,0,0,0-.36-0.06,3.156,3.156,0,0,0-.78.06h-0.12a2.571,2.571,0,0,1-.6-0.18,1.714,1.714,0,0,0-.72-0.06c-0.04.24-.08,0.7-0.12,1.38a4.586,4.586,0,0,0,0,1.14l-0.06.06a3.867,3.867,0,0,0-.18,1.08,6.156,6.156,0,0,1-.18,1.5q-0.12.662-.21,1.14a4.914,4.914,0,0,0-.09.9,5.787,5.787,0,0,1-.48,1.8q-0.18.66-.18,0.72-0.06.36-.15,0.75a1.129,1.129,0,0,1-.21.51l-0.12.24q-0.18,1.56-.54,1.56l-0.12.18a1.653,1.653,0,0,1-.3.66,6.709,6.709,0,0,0-.54,1.02q-0.66,1.02-.72,1.14-0.12.24-.21,0.39a1.16,1.16,0,0,1-.15.21,0.382,0.382,0,0,1-.3.24,0.564,0.564,0,0,0-.24.18,1.094,1.094,0,0,1-.66.12,2.105,2.105,0,0,1-.6-0.06,1.182,1.182,0,0,1-.42-0.3,0.729,0.729,0,0,0-.36-0.18,0.424,0.424,0,0,0-.36.36,0.412,0.412,0,0,1-.27.36q-0.21.06-.21-0.24a0.212,0.212,0,0,0-.24-0.24,0.773,0.773,0,0,1-.42-0.54,2.445,2.445,0,0,1-.18-0.84,0.37,0.37,0,0,0-.06-0.21,0.37,0.37,0,0,1-.06-0.21,0.649,0.649,0,0,1-.18-0.48,0.649,0.649,0,0,0-.18-0.48,0.371,0.371,0,0,1-.12-0.42,1.03,1.03,0,0,0-.06-0.42,1.714,1.714,0,0,1-.06-0.66l-0.06-.54q-0.12,0-.09-0.18a0.537,0.537,0,0,1,.15-0.3,0.3,0.3,0,0,0,.12-0.36,2.607,2.607,0,0,0-.18-0.63,1.364,1.364,0,0,0-.18-0.33q-0.18,0-.18-0.12a1.15,1.15,0,0,0-.3-0.48,3.122,3.122,0,0,0-.66-0.6,1,1,0,0,1-.36-0.15,0.238,0.238,0,0,1-.12-0.15,0.106,0.106,0,0,0-.12-0.12c-0.12,0-.18-0.039-0.18-0.12a1.891,1.891,0,0,0-.45-0.42,2.22,2.22,0,0,0-.51-0.3l-1.08-.6-1.44-.78a0.805,0.805,0,0,1-.36-0.48v-0.24l0.36,0.12,0.48,0.12q0.06,0-.06-0.18a0.792,0.792,0,0,1-.27-0.12,0.95,0.95,0,0,1-.33-0.3l-0.9-.54-0.84-.6a6.086,6.086,0,0,0-1.05-.63q-0.57-.27-0.69-0.09l-0.66.54c-0.08.081-.23,0.21-0.45,0.39a8.533,8.533,0,0,1-.69.51,1.282,1.282,0,0,1-.39.36,0.726,0.726,0,0,1-.33.12,3.849,3.849,0,0,0-.66.54,1.151,1.151,0,0,1-.36.33,0.816,0.816,0,0,1-.42.15,0.805,0.805,0,0,0-.3.6l-0.24.9c-0.08.761-.26,1.14-0.54,1.14a2.244,2.244,0,0,0-.21.3,2.041,2.041,0,0,0-.21.42q-0.06.12-.18,0.33a0.691,0.691,0,0,1-.18.24,0.418,0.418,0,0,1-.18.03q-0.66,0-1.08-1.56a1.588,1.588,0,0,0-.24-0.9,2.137,2.137,0,0,1-.48-1.02q-0.3-.959-0.48-1.41a2.4,2.4,0,0,0-.54-0.81,1.035,1.035,0,0,0-.42-0.48,0.437,0.437,0,0,0-.42.18,1.315,1.315,0,0,1-.6.3,0.235,0.235,0,0,0-.24.18q-0.06.242-.15,0.18a0.353,0.353,0,0,1-.09-0.3c0-.159-0.04-0.24-0.12-0.24s-0.13-.079-0.15-0.24a7.852,7.852,0,0,1-.03-0.84,11.475,11.475,0,0,1,.12-1.2,0.306,0.306,0,0,1,.3-0.3,1.455,1.455,0,0,0,.63-0.69,5.771,5.771,0,0,0,.69-1.47,20.349,20.349,0,0,0,1.14-3.45,19.215,19.215,0,0,0,.3-2.97l0.06-1.2a5.351,5.351,0,0,0-.12-1.02,10.7,10.7,0,0,0-1.02-3.36,8.337,8.337,0,0,0-1.32-1.8,0.632,0.632,0,0,1-.24-0.54l0.06-.48q0.12-.18,0-0.27a0.166,0.166,0,0,0-.24.03,0.387,0.387,0,0,1-.18.18,3,3,0,0,0-.78.66,6.008,6.008,0,0,0-.48.42,0.564,0.564,0,0,1-.24.18c0-.08-0.06-0.12-0.18-0.12a1.021,1.021,0,0,0-.54.48q-0.9,1.14-4.32,4.62l-2.28,2.34-1.14,1.14-0.06-.12a1.75,1.75,0,0,1,.36-0.9l0.42-.72,0.66-.78a22.069,22.069,0,0,0,1.44-1.86q1.26-1.679,2.76-3.84,1.5-2.28,2.46-3.78l1.08-1.68,1.44-2.46a16.6,16.6,0,0,0,1.26-2.4,13.742,13.742,0,0,1,.66-1.62q1.62-3.54,1.26-3.9l-0.18-.72-0.06-.42a0.747,0.747,0,0,1,.24-0.54,0.951,0.951,0,0,1,.6-0.12,2.008,2.008,0,0,0,.39-0.03,0.517,0.517,0,0,0,.27-0.15,1.031,1.031,0,0,1,.42-0.51,2.569,2.569,0,0,1,.72-0.39h0.12a0.748,0.748,0,0,1,.66.72,6.156,6.156,0,0,0,1.08,1.44,2.064,2.064,0,0,0,.63.39,0.641,0.641,0,0,0,.51-0.03,0.429,0.429,0,0,1,.36-0.06,0.488,0.488,0,0,0,.27-0.06,0.372,0.372,0,0,0,.03-0.36q0-.48.36-0.48,0.48,0,.36.78v0.18a0.821,0.821,0,0,0,.3.48,4.187,4.187,0,0,1,.84.84q0.36,0.481.24,0.54l-0.54.48-0.66.48a0.479,0.479,0,0,1-.21.27,0.867,0.867,0,0,0-.27.27q-1.56,1.86-4.14,4.44-1.62,1.62-2.76,3a21.068,21.068,0,0,1-1.56,1.74,2.821,2.821,0,0,0-.54.72,3.608,3.608,0,0,0,.84,1.08,13.905,13.905,0,0,1,1.26,1.29,4.659,4.659,0,0,1,.66,1.23q0.48,1.14.54,1.26a23.05,23.05,0,0,1,1.29,2.7,18.28,18.28,0,0,1,.57,2.94q0.3,2.041.36,2.28a21.819,21.819,0,0,1,.24,3.06q0,1.08-.06,1.8-0.06,1.26-.06,2.88l0.06,0.72,0.6-.54a2.429,2.429,0,0,0,.66-0.66l1.74-1.8q2.58-2.7,3.42-3.78a4.452,4.452,0,0,1,.96-0.96l1.62-2.1,0.78-.96a45.251,45.251,0,0,0,2.7-3.84,6.707,6.707,0,0,1,.42-0.72l0.36-.54q0.24-.3.48-0.66a2.631,2.631,0,0,0,.3-0.54l0.18-.24a0.954,0.954,0,0,0,.12-0.15,0.291,0.291,0,0,0,.06-0.15q0-.18-0.12-0.18a3.487,3.487,0,0,0-1.14.54,38,38,0,0,1-3.72,1.74q-0.18.06-.57,0.18a8.289,8.289,0,0,0-.81.3,10.773,10.773,0,0,1-3.24.6,7.856,7.856,0,0,1-1.08-.06,5.034,5.034,0,0,1-1.23-.09,3.242,3.242,0,0,1-.81-0.51,2.453,2.453,0,0,1-.63-0.84q-0.09-.3.33-0.06a0.959,0.959,0,0,0,.42.12,2.984,2.984,0,0,0,.06-0.9v-0.78a0.346,0.346,0,0,0,.24-0.06,0.289,0.289,0,0,1,.24.3,0.969,0.969,0,0,0,.66.69,3.18,3.18,0,0,0,1.32.27,14.263,14.263,0,0,0,2.67-.9,27.867,27.867,0,0,0,3.51-1.8,1.041,1.041,0,0,1,.15-0.12,0.374,0.374,0,0,1,.21-0.06l0.42-.3,1.92-1.2,1.74-1.2a0.808,0.808,0,0,1,.27-0.18c0.1-.039.21-0.08,0.33-0.12a0.383,0.383,0,0,0,.3-0.24,5.274,5.274,0,0,0-.09-1.32,18.4,18.4,0,0,0-.45-2.28l-0.3-2.28-0.54-2.82a16.762,16.762,0,0,0-.6-2.58,17.7,17.7,0,0,0-.84-1.92,12.578,12.578,0,0,0-.84-1.5l-0.66-1.08a0.61,0.61,0,0,1-.15-0.45,0.349,0.349,0,0,1,.33-0.27,0.476,0.476,0,0,0,.15-0.03,0.138,0.138,0,0,0,.09-0.15h0Zm11.46,20.28h-0.48a3.014,3.014,0,0,0-.9.06,0.6,0.6,0,0,0,0,.54l0.12,1.5,0.3,2.82q0.18,2.7.18,3.18a7.361,7.361,0,0,0,.12,1.74l0.06,0.3,0.72-.54a2.407,2.407,0,0,1,.78-0.51,0.339,0.339,0,0,1,.42.09l0.3,0.3a1.284,1.284,0,0,0,.69.51,12.4,12.4,0,0,0,1.95.33,5.249,5.249,0,0,1,.9.15c0.2,0.06.28,0.131,0.24,0.21q0,0.18.06,0.18a1.728,1.728,0,0,1,.3,1.08,1.209,1.209,0,0,1,0,.96,0.274,0.274,0,0,0-.03.21,0.194,0.194,0,0,0,.21.09,8.964,8.964,0,0,0,1.23-.12,3.4,3.4,0,0,0,.87-0.18,1.532,1.532,0,0,0-.36-0.66,24.156,24.156,0,0,1-1.41-2.37q-0.93-1.71-1.29-2.49l-0.84-1.56-0.72-1.44-0.48-1.02a6.521,6.521,0,0,0-.72-1.53,13.659,13.659,0,0,0-1.56-1.47,1,1,0,0,0-.66-0.36h0Zm-6.66,7.8a2.265,2.265,0,0,1-.12-0.72,0.46,0.46,0,0,0-.06-0.36l-1.26,1.56-1.74,2.28-0.6.84a1.277,1.277,0,0,1-.36.36,2.852,2.852,0,0,0-.42.54l-1.56,1.74a0.665,0.665,0,0,1-.54.24q-0.06-.058-0.3.15c-0.16.141-.4,0.33-0.72,0.57a2.587,2.587,0,0,1-.9.78l-0.06-.06,0.3-.48a1.747,1.747,0,0,0,.36-0.78,0.492,0.492,0,0,1,.12-0.36,2.551,2.551,0,0,0,.51-0.54,0.426,0.426,0,0,0,.15-0.36l0.18-.06a0.8,0.8,0,0,0,.36-0.54l0.6-.72a2.888,2.888,0,0,0,.66-0.96c-0.04-.039-0.11,0-0.21.12s-0.21.261-.33,0.42q-0.66.72-1.32,1.38a3.853,3.853,0,0,0-.72.66,4.19,4.19,0,0,1-.6.6,4.4,4.4,0,0,1-.48.42c-0.16.12-.26,0.2-0.3,0.24a4.287,4.287,0,0,0-.96.78,2.824,2.824,0,0,0-.78.72,1.357,1.357,0,0,1-.27.21,0.538,0.538,0,0,1-.27.09,0.284,0.284,0,0,0-.15.21,0.226,0.226,0,0,0,.03.21,2.075,2.075,0,0,1,.54.24,28.73,28.73,0,0,0,4.8,2.1,10.87,10.87,0,0,1,1.44.42,6.851,6.851,0,0,0,2.7.84,1.2,1.2,0,0,0,.45.03,0.309,0.309,0,0,0,.21-0.27,6.074,6.074,0,0,0,.72-2.58l0.18-1.14c0.04-.12.03-0.189-0.03-0.21a0.7,0.7,0,0,0-.21-0.03c-0.6.161-.84,0.18-0.72,0.06,0.04-.039,0-0.06-0.12-0.06a5,5,0,0,1-.9.18l-1.5.36c-0.08,0-.08-0.039,0-0.12l0.18-.06h-0.18l-0.48.06a9.485,9.485,0,0,1-2.22.18,1.994,1.994,0,0,1-.63-0.09c-0.18-.06-0.25-0.129-0.21-0.21a0.349,0.349,0,0,0-.06-0.24q-0.06-.059.09-0.12a0.9,0.9,0,0,1,.33-0.06h0.24a0.629,0.629,0,0,0,.54-0.24,1.038,1.038,0,0,1,.66-0.24,9.678,9.678,0,0,0,3.72-1.26c0.4-.2.77-0.39,1.11-0.57s0.57-.309.69-0.39a12.278,12.278,0,0,0,.3-2.52,27.192,27.192,0,0,0,.12-3.24h0Zm-5.04,2.76-0.12-.06-0.06.06v0.12c0.12,0,.18-0.039.18-0.12h0Zm15.78,3.48a6.373,6.373,0,0,0-1.29-.12,18.164,18.164,0,0,0-2.07,0,4.061,4.061,0,0,0-.69.18q-0.33.121-.27,0.18l1.26-.06q0.66-.058,2.1-0.06a1.542,1.542,0,0,0,.96-0.12h0Zm-22.38,3.48-0.12-.24a1.122,1.122,0,0,0-.15-0.12,0.3,0.3,0,0,0-.15-0.06c-0.04,0-.04.021,0,0.06a0.65,0.65,0,0,0,.18.12Z"/>
</svg>
