<svg xmlns="http://www.w3.org/2000/svg" width="400" height="200" viewBox="0 0 400 200">
  <defs>
    <style>
      .cls-1 {
        fill: #fdfdfd;
        fill-rule: evenodd;
      }
    </style>
  </defs>
  <path id="王漢宗仿宋體標準" class="cls-1" d="M32.859,82.8q-10.969.7-15.234,0.891a5.941,5.941,0,0,0-1.031.094,2.8,2.8,0,0,0,.844.844,2.215,2.215,0,0,0,1.219.516,28.705,28.705,0,0,1,3.75-.422q3.328-.281,7.453-0.469a0.663,0.663,0,0,1,.75.75V96.773a0.764,0.764,0,0,1-.75.844q-3.516.376-10.781,0.656a4.683,4.683,0,0,0-.984.094,2.689,2.689,0,0,0,.8.844,1.736,1.736,0,0,0,1.875.516q3.843-.562,8.906-0.844,0.937-.046.938,0.7v13.547a0.765,0.765,0,0,1-.75.844q-9.141.468-16.078,0.656a1.5,1.5,0,0,0-1.312.234,3.005,3.005,0,0,0,.75.938,3.107,3.107,0,0,0,1.875.656,40.314,40.314,0,0,1,4.687-.609q15.234-1.5,30.75-2.391,0.141-.141-0.937-0.984a5.97,5.97,0,0,0-1.406-.7,2.551,2.551,0,0,0-1.875.235q-5.484,1.032-13.125,1.687a0.757,0.757,0,0,1-.937-0.75V99.492a0.782,0.782,0,0,1,.8-0.844q5.109-.422,11.109-0.75,0.234-.141.047-0.469a2.512,2.512,0,0,0-1.641-.984,8.36,8.36,0,0,0-1.875.188q-2.579.376-7.5,0.7a0.757,0.757,0,0,1-.937-0.75V84.867A0.764,0.764,0,0,1,33,84.023q5.859-.422,11.719-0.7,1.078-.046,1.031-0.328a1.807,1.807,0,0,0-.469-0.609,3.352,3.352,0,0,0-2.2-.516q-3.329.422-10.219,0.938h0Zm54.7-1.453a1.026,1.026,0,0,1-.937.984q-1.22.094-2.344,0.281-0.938.095-3.7,0.234-1.032.047-1.031-.656a6.537,6.537,0,0,1,0-1.969,1.313,1.313,0,0,0,0-.7,5.333,5.333,0,0,0-1.453-1.969,1.3,1.3,0,0,0-.516-0.234,1.243,1.243,0,0,0-.047.938,16.816,16.816,0,0,1,.75,3.891,0.755,0.755,0,0,1-.75.938l-5.344.188a2.578,2.578,0,0,0-1.078.188q-0.235.281,0.188,0.563a2.549,2.549,0,0,0,2.625.609A13.181,13.181,0,0,1,75.8,84.3a13.893,13.893,0,0,1,1.641-.187q0.937-.093.984,0.656a30.031,30.031,0,0,1,.047,4.594,1.274,1.274,0,0,0,.187,1.406q0.375,1.032,1.078.656a5.285,5.285,0,0,0,.047-1.031,0.9,0.9,0,0,1,.75-1.078l1.359-.094q0.937-.046.938,0.7v2.156a0.823,0.823,0,0,1-.75.891l-4.828.516a0.9,0.9,0,0,1-1.125-.656,2.009,2.009,0,0,0-.937-1.641q-0.235-.046-0.187.891,0.187,2.531.141,4.969l-0.187,1.922a4.328,4.328,0,0,0,.609,1.64,0.8,0.8,0,0,0,.609.469q0.281,0,.234-1.031a0.755,0.755,0,0,1,.75-0.938q2.343-.187,4.688-0.281a0.583,0.583,0,0,1,.75.656l-0.141,1.781a0.91,0.91,0,0,1-.844.985q-3.329.236-6.562,0.328a0.871,0.871,0,0,0-1.031.375,1.58,1.58,0,0,0,.75.656,4.11,4.11,0,0,0,.938.422,5.844,5.844,0,0,0,1.875-.187q1.874-.282,3.75-0.516,0.937-.093.844,0.656a18.6,18.6,0,0,1-.328,2.3,1.1,1.1,0,0,1-.938,1.031q-4.125.329-8.531,0.375a0.9,0.9,0,0,0-.984.328,2.748,2.748,0,0,0,.844.8,2.352,2.352,0,0,0,1.875.422q1.781-.281,6.328-0.75,0.937-.093.7,0.656a14.319,14.319,0,0,1-4.594,6.329,32.8,32.8,0,0,1-7.5,4.406q-0.8.327-.609,0.656a2.43,2.43,0,0,0,1.125-.281,26.377,26.377,0,0,0,5.531-2.438A15.624,15.624,0,0,0,82.5,109.2a1.444,1.444,0,0,1,1.172-1.031,1.586,1.586,0,0,1,1.359.75q3.421,4.407,7.406,10.078a2.745,2.745,0,0,0,.984,1.125,3.373,3.373,0,0,0,1.125,0q2.484-.562,4.734-0.89,0.937-.141.938-0.422a0.659,0.659,0,0,0-.047-0.282,2.624,2.624,0,0,0-.984-0.234,18.523,18.523,0,0,1-5.953-1.922q-2.391-1.734-6.8-7.406-0.7-.937.047-1.031,5.249-.468,10.5-0.8a2.446,2.446,0,0,0,.984-0.188,4.15,4.15,0,0,0-.891-0.8,4.377,4.377,0,0,0-1.453-.7,10.3,10.3,0,0,0-1.594.422q-5.579.891-10.078,1.219-0.938,0-.75-0.75,0.234-1.171.375-2.3a1.038,1.038,0,0,1,.891-1.031q4.312-.421,8.625-0.75,1.078-.141.187-0.844-1.313-.843-1.781-0.609a38.716,38.716,0,0,1-6.891,1.172q-0.844.095-.8-0.61a16.04,16.04,0,0,1,.094-1.781A0.909,0.909,0,0,1,84.75,98.6q3.984-.327,7.922-0.562,1.078-.234.281-0.984a1.805,1.805,0,0,0-.7-0.234q-0.235,0-.094-0.75a13.067,13.067,0,0,1,.469-3,1.864,1.864,0,0,0,.281-1.406,2.583,2.583,0,0,0-1.031-.844,3.8,3.8,0,0,0-.75.891,0.791,0.791,0,0,1-.8.375q-2.579.235-5.156,0.516a0.706,0.706,0,0,1-.891-0.844V89.883a0.855,0.855,0,0,1,.8-0.984q1.5-.141,3-0.234,0.984-.281.234-0.937A0.94,0.94,0,0,1,87.75,86.6q0.234-1.406.563-2.812A1.027,1.027,0,0,1,89.2,82.9q4.031-.422,8.063-0.75,0.984-.046.047-0.891a2.024,2.024,0,0,0-1.875-.469,30.36,30.36,0,0,1-5.859,1.219q-0.938.095-.8-0.656l0.469-2.3a1.863,1.863,0,0,0,0-1.969,3.012,3.012,0,0,0-.984-0.937,1.436,1.436,0,0,0-.187,1.125,27.449,27.449,0,0,1-.516,4.078h0Zm-19.172,3q0.609,0.61,1.078-.187a5.125,5.125,0,0,0,.234-1.641,2.882,2.882,0,0,0-1.5-1.687q-2.016-1.312-3.75-2.25-0.938-.327-0.328.609a44.594,44.594,0,0,1,4.266,5.156h0Zm18.234,2.3a1.2,1.2,0,0,1-.891,1.125l-5.062.469a0.741,0.741,0,0,1-.984-0.7q-0.095-1.406-.094-2.719a0.781,0.781,0,0,1,.75-0.984q3.094-.422,6.141-0.75a0.512,0.512,0,0,1,.609.7Zm-21.8,8.016q0.609,1.125,1.125.75a2.56,2.56,0,0,0,.516-1.453q0.327-.89-0.891-1.781-1.687-1.125-3.75-2.25a4.678,4.678,0,0,0-1.781-.8,2.629,2.629,0,0,0,.563.938,39.536,39.536,0,0,1,4.219,4.594h0Zm-1.359,18.609-1.875-1.453a5.826,5.826,0,0,0-1.875-1.359,1.4,1.4,0,0,0,.234.984,48.255,48.255,0,0,1,3.8,5.063,1.86,1.86,0,0,0,.938.844,1.32,1.32,0,0,0,.8-0.985q2.109-7.265,6.094-23.625a1.157,1.157,0,0,0-.094-0.984q-3.891,12.375-6.469,20.859-0.422,1.407-1.547.656h0ZM91.078,93.727l-0.234,2.25A1.052,1.052,0,0,1,90,97.055l-5.109.516q-0.844.047-.8-0.656l0.094-2.3a0.855,0.855,0,0,1,.8-0.984l5.25-.562q0.937-.093.844,0.656h0Zm-8.391,3.188a0.764,0.764,0,0,1-.75.844l-4.687.281a0.828,0.828,0,0,1-.937-0.937V95.414a0.824,0.824,0,0,1,.7-1.031l4.969-.516a0.625,0.625,0,0,1,.8.656Zm40.921-19.687a37.053,37.053,0,0,1,2.86,6.563,0.684,0.684,0,0,0,.609.609,6.023,6.023,0,0,0,.7-0.937,2.6,2.6,0,0,0,.094-2.344,22.42,22.42,0,0,0-3.422-3.984q-0.891-.656-0.937-0.469a1.169,1.169,0,0,0,.093.563h0Zm15.469,6.656q-8.156.984-22.969,2.3-0.937.047-.937-0.7V83.555a1.314,1.314,0,0,0-.188-0.984,2.1,2.1,0,0,0-.234,1.031,13.039,13.039,0,0,1-3.328,7.688,2.215,2.215,0,0,0,.516,1.969q0.608,0.844,1.312-.187a12.424,12.424,0,0,0,1.641-4.5,0.977,0.977,0,0,1,.843-1.031q11.859-1.312,23.672-2.578,0.8-.093.563,0.609a42.464,42.464,0,0,1-1.922,4.219q-0.094.984,0.094,0.984a1.05,1.05,0,0,0,.375-0.328,47.248,47.248,0,0,1,3.937-5.625q0.984-.844.563-1.359a3.7,3.7,0,0,0-.7-0.937,0.949,0.949,0,0,0-1.546.234,1.783,1.783,0,0,1-1.688,1.125h0Zm-8.906,8.906q-8.016.844-11.25,0.984a6.808,6.808,0,0,0-1.031.141,2.275,2.275,0,0,0,.89.844,1.415,1.415,0,0,0,1.172.281l0.938-.187q9.373-.8,14.953-1.172a1.044,1.044,0,0,0,.937-0.375,1.572,1.572,0,0,0-.562-0.7,2.5,2.5,0,0,0-2.3-.328,26.387,26.387,0,0,1-3.75.516h0Zm-0.61,7.359q-6.186.657-16.359,0.938a3.432,3.432,0,0,0-1.078.141,0.513,0.513,0,0,0-.047.468,4.009,4.009,0,0,0,2.766,1.266,93.125,93.125,0,0,1,10.828-1.359,1,1,0,0,1,1.125.75,28.775,28.775,0,0,1,.562,5.25q0.047,4.688,0,9.328a0.577,0.577,0,0,1-.375.422,2.222,2.222,0,0,1-.843-0.329q-1.736-1.22-3.422-2.484-0.939-.469-0.938-0.094a1.977,1.977,0,0,0,.563.844q2.063,2.2,4.406,5.156a2.3,2.3,0,0,0,.7.844q0.188,0.093.7-.844,0.188-.937.282-1.781,0.093-6.844.093-13.641a2.422,2.422,0,0,1,.235-1.171,1.049,1.049,0,0,0-.188-1.641q-0.937-.8-0.187-0.891,7.124-.607,14.25-1.172,0.89-.139,0-0.89-1.782-1.312-2.766-.75a63.629,63.629,0,0,1-10.313,1.64h0Zm-9.328,6.047q-2.156,5.72-8.906,11.157a2.217,2.217,0,0,0-.562.562q-0.094.282,1.031-.187a35.087,35.087,0,0,0,5.156-3.985l4.125-4.312a2.154,2.154,0,0,0,.7-1.828,8.093,8.093,0,0,0-.469-1.313q-0.561-.937-0.8-0.75a2.241,2.241,0,0,0-.282.656h0Zm19.688,9.469a1.061,1.061,0,0,0,.516.75,0.458,0.458,0,0,0,.609-0.375,4.962,4.962,0,0,0,.234-3.141,26.538,26.538,0,0,0-5.343-5.156,6.771,6.771,0,0,0-2.626-1.734c-0.374.125-.344,0.375,0.094,0.75a46.082,46.082,0,0,1,6.516,8.906h0ZM166.734,80.32q-3.329,9.328-11.906,18.469a6.093,6.093,0,0,0-.844,1.031q0.282,0.376.8-.187a51.724,51.724,0,0,0,6.516-6.656q0.749-.89.75-0.141L162,112.758q-0.094,1.5-.469,3.75a5.069,5.069,0,0,0,1.547,3.844,0.285,0.285,0,0,0,.422-0.094,5.261,5.261,0,0,0,.047-1.031V90.68a1.871,1.871,0,0,1,.281-1.125,63.757,63.757,0,0,0,3.281-5.625,11.321,11.321,0,0,1,1.922-2.766,1.544,1.544,0,0,0,.469-0.75q0.093-.984-1.406-3.469a1.01,1.01,0,0,0-.656-0.562,1.853,1.853,0,0,0-.188,1.125,12.061,12.061,0,0,1-.516,2.813h0Zm11.344-.984a27.869,27.869,0,0,1,3.7,5.625q0.516,1.36,1.36.422a3.039,3.039,0,0,0,.375-2.109,23.642,23.642,0,0,0-5.719-5.25,0.8,0.8,0,0,0-.375-0.141,0.252,0.252,0,0,0-.188.141,2.892,2.892,0,0,0,.844,1.313h0Zm11.344,8.109A176.3,176.3,0,0,1,168.469,88.9a8.671,8.671,0,0,0-1.313.094,0.306,0.306,0,0,0-.234.375,2.021,2.021,0,0,0,.75.656,3.032,3.032,0,0,0,1.875.563q2.906-.468,7.312-0.844,0.938-.093.891,0.656a63.946,63.946,0,0,1-1.312,8.859,47.314,47.314,0,0,1-2.3,7.5q-1.969,5.391-7.594,11.25a6.751,6.751,0,0,0-.938,1.031,0.275,0.275,0,0,0,.141.234,11.062,11.062,0,0,0,3.984-3.468,39.306,39.306,0,0,0,3-3.75,36.305,36.305,0,0,0,4.688-11.2,1.1,1.1,0,0,1,.984-0.985q5.3-.468,10.547-0.891,0.889-.046.75,0.75a93.273,93.273,0,0,1-3.234,12.375,16.071,16.071,0,0,1-1.969,3.75,1.622,1.622,0,0,1-2.25.609,20.446,20.446,0,0,1-2.719-1.453,3.235,3.235,0,0,0-1.031-.328,1.485,1.485,0,0,0,.516.937q0.936,1.171,3.093,3.516a1.836,1.836,0,0,0,1.922.562,5.687,5.687,0,0,0,1.922-2.156,23.408,23.408,0,0,0,1.781-3.75,86.734,86.734,0,0,0,3.141-11.25,11.035,11.035,0,0,1,1.031-3.516,5.487,5.487,0,0,0,.844-0.984,0.8,0.8,0,0,0-.141-0.375,4.246,4.246,0,0,0-1.687-1.406,1.1,1.1,0,0,0-.7.656,1.57,1.57,0,0,1-1.688,1.078l-9.609.7q-0.939.095-.844-0.656,0.609-2.906,1.266-5.109a1.837,1.837,0,0,0,.234-1.406,3.772,3.772,0,0,0-.328-0.937q-0.422-.937.328-1.078,4.734-.422,15.188-1.172,2.061,0.141-.235-1.125a2.1,2.1,0,0,0-1.406-.516,18.074,18.074,0,0,1-3.7.75h0Zm30.094-9.422a29.4,29.4,0,0,1,3.14,5.859,0.876,0.876,0,0,0,.563.7,1.882,1.882,0,0,0,.7-0.891,2.45,2.45,0,0,0,.094-1.875,23.241,23.241,0,0,0-3.844-4.359,1.44,1.44,0,0,0-.984-0.469,3.225,3.225,0,0,0,.328,1.031h0ZM234.8,84.07q-10.361.938-23.2,1.781a0.744,0.744,0,0,1-.891-0.891,13.021,13.021,0,0,0-.047-1.922c-0.063-.625-0.14-0.906-0.234-0.844a2.474,2.474,0,0,0-.188.891,16.722,16.722,0,0,1-.89,3.75,10.961,10.961,0,0,1-2.156,3.75,1.205,1.205,0,0,0-.329,1.828q0.375,1.219,1.172.891a4.405,4.405,0,0,0,1.266-1.687,10.52,10.52,0,0,0,1.031-3.516,1.176,1.176,0,0,1,.984-1.031L234.7,85.1q0.938-.046.7,0.7a21.54,21.54,0,0,1-1.453,3,4.335,4.335,0,0,0-.937,1.969q-0.048.376,0.281,0.328a1.6,1.6,0,0,0,.656-0.7,26.437,26.437,0,0,1,3.938-5.437,1.422,1.422,0,0,0,.234-1.828l-0.328-.422a3.825,3.825,0,0,0-.75-0.656,2.143,2.143,0,0,0-.8.891A2,2,0,0,1,234.8,84.07h0Zm-13.453,5.016a9.487,9.487,0,0,1,.375,2.25q0.093,2.907.047,5.766a0.711,0.711,0,0,1-.75.8q-6.705.376-13.313,0.609a0.5,0.5,0,0,0-.562.328,2.752,2.752,0,0,0,.843.8,3.331,3.331,0,0,0,1.407.515q4.031-.655,11.2-1.265,0.938-.093.375,0.7a41.335,41.335,0,0,1-3.469,4.453,59.089,59.089,0,0,1-12.094,10.547,0.847,0.847,0,0,0-.656.891,2.1,2.1,0,0,0,1.031-.188,35.884,35.884,0,0,0,5.438-3.562,51.641,51.641,0,0,0,9.843-9.422q0.7-.986.7-0.188,0.045,6.375-.047,12.75a9.323,9.323,0,0,1-.281,1.875,4.227,4.227,0,0,0,1.359,3.61,0.232,0.232,0,0,0,.375-0.141q0.093-9.984.047-19.875,0-.749.656,0.094,5.625,6.984,10.031,12.89,0.75,1.454,1.735,1.266,2.718-.377,6.843-0.656,1.078,0.139,1.032-.469a1.94,1.94,0,0,0-1.032-.281,30.033,30.033,0,0,1-4.172-1.032q-2.2-.562-5.624-3.89a112.985,112.985,0,0,1-8.3-8.672q-0.844-.937-0.094-1.031,6.374-.515,12.75-0.984a2.321,2.321,0,0,0,.984-0.141,1.384,1.384,0,0,0-.75-0.75,3.805,3.805,0,0,0-1.875-.75,63.874,63.874,0,0,1-11.25,1.688q-0.937.047-.937-0.7a32.844,32.844,0,0,1,.375-6.094q0.186-1.03-1.969-2.625-0.375-.327-0.563-0.141a3.378,3.378,0,0,0,.282,1.031h0Zm59.39-6.422a0.921,0.921,0,0,1-.8,1.031l-2.2.234q-0.843.095-.843-0.609a7.505,7.505,0,0,1,.14-3.234q0.468-.844-1.031-1.734a2.629,2.629,0,0,0-.891-0.609q-0.234-.046.047,0.984a14.361,14.361,0,0,1,.516,4.5,0.856,0.856,0,0,1-.7,1.078q-0.939.141-1.781,0.188a0.839,0.839,0,0,1-1.079-.656,6.43,6.43,0,0,0-.7-1.922q-0.609-.093-0.375.516a54.431,54.431,0,0,1,.141,12.141,4.369,4.369,0,0,0,.469,2.109,0.769,0.769,0,0,0,.515.656,1.1,1.1,0,0,0,.516-1.359,0.855,0.855,0,0,1,.8-0.984q6.984-.562,13.875-0.984a2.476,2.476,0,0,0,1.078-.422,2.259,2.259,0,0,0-1.5-.891q-0.282.047-.188-0.7l0.938-7.172a3.054,3.054,0,0,1,.656-1.406q0.282-.375-0.281-0.937-0.845-1.734-1.594-.469a2.611,2.611,0,0,1-1.828,1.078q-0.937.047-1.875,0.188-0.937.047-.938-0.7a5.278,5.278,0,0,1,.376-2.625,1.272,1.272,0,0,0-.469-1.875,8.3,8.3,0,0,0-1.219-.937,2.075,2.075,0,0,0,0,.984,15.639,15.639,0,0,1,.234,4.547h0Zm-24.046.422q0.139,4.219.374,8.438a0.9,0.9,0,0,1-.937,1.031q-0.937.047-.937-0.7a3.791,3.791,0,0,0-.141-1.781,2.088,2.088,0,0,0-.281.938,10.535,10.535,0,0,1-.469,2.156,8.645,8.645,0,0,1-1.969,3.75,1.222,1.222,0,0,0-.469.938,2.664,2.664,0,0,0,.282.938q0.656,1.125,1.265.281A9.9,9.9,0,0,0,255,94.57a0.977,0.977,0,0,1,.844-1.031q5.718-.656,11.39-1.219,0.938-.093.657,0.656a12.433,12.433,0,0,1-.891,2.25q-0.375.984-.656,0.8a1.676,1.676,0,0,0-1.078.8,1.5,1.5,0,0,1-.938.375q-2.766.422-5.437,0.891a0.7,0.7,0,0,1-.938-0.609,5.307,5.307,0,0,0-.844-1.875q-0.187-.046-0.093.984,0.186,1.406.234,2.766,0.188,8.063,0,14.578a6.7,6.7,0,0,1-.281,2.015,3.776,3.776,0,0,0,.234,3.657,0.736,0.736,0,0,0,.656.609,4.544,4.544,0,0,0,.375-1.031l0.188-.938v-8.109a0.767,0.767,0,0,1,.844-0.75l3.562-.328a4.556,4.556,0,0,0,1.266-.141q0.141-.093-0.422-0.609l-0.656-.375q-1.877.28-3.657,0.515-0.937.048-.937-0.7v-2.859a0.761,0.761,0,0,1,.8-0.8l3.984-.469a1.061,1.061,0,0,0,.609-0.234,1.578,1.578,0,0,0-.562-0.61,1.026,1.026,0,0,0-1.078-.234q-1.407.328-2.813,0.563-0.937.095-.937-0.657v-2.39a0.8,0.8,0,0,1,.609-1.078q2.813-.422,5.578-0.8,0.938-.141.938,0.609v16.359a1.533,1.533,0,0,0-.094.469q0.141,1.5-1.078.891a22.593,22.593,0,0,1-2.813-1.5q-1.218-.469-0.281.422,2.156,2.109,3.985,4.265,0.843,0.563,1.172-.515a13.5,13.5,0,0,0,.421-1.875V99.258a3.176,3.176,0,0,1,.188-1.172,1.194,1.194,0,0,0,.141-1.219,1.273,1.273,0,0,1,.328-1.219,24.293,24.293,0,0,1,2.156-3.281l0.7-.75a1.285,1.285,0,0,0-.422-1.031,3.349,3.349,0,0,0-.984-0.8,5.5,5.5,0,0,0-.516.844,1.364,1.364,0,0,1-.937.656q-0.986.141-.938-0.609L267,82.523a2.439,2.439,0,0,1,.656-2.062,0.711,0.711,0,0,0-.187-0.937,3.411,3.411,0,0,0-1.031-1.031,0.8,0.8,0,0,0-.563.469,2.286,2.286,0,0,1-1.781,1.125q-2.812.422-5.625,0.938a0.855,0.855,0,0,1-1.125-.609l-0.563-1.594q-0.516-.89-0.469.188,0.236,2.063.376,4.078h0Zm8.906,1.5a0.986,0.986,0,0,1-.891,1.031l-1.875.281q-0.937.094-.844-0.047a2.473,2.473,0,0,0-1.406-1.781,1.807,1.807,0,0,0,.141.938l0.187,1.406a17.981,17.981,0,0,0,.047,2.25L261,91.148a0.825,0.825,0,0,1-.7,1.031l-1.125.094c-0.656.032-1-.187-1.031-0.656q-0.236-4.171-.422-8.344a0.884,0.884,0,0,1,.7-1.078q3.188-.468,6.328-0.891,0.938-.141.938,0.609Zm20.625,0.328q-0.141,1.923-.375,3.8a0.928,0.928,0,0,1-.656-0.375,1.64,1.64,0,0,0-1.547-.234l-0.938.141q-0.937.047-.937-0.7V85.383a0.764,0.764,0,0,1,.75-0.844l2.812-.328q0.938-.046.891,0.7h0Zm-5.531.656q-0.048.984,0,1.969a0.867,0.867,0,0,1-.891.938l-1.922.141a0.6,0.6,0,0,1-.8-0.656l-0.094-1.828a0.825,0.825,0,0,1,.7-1.031l1.781-.187,0.328-.047a0.67,0.67,0,0,1,.891.7h0Zm-4.876.563,0.094,1.875a0.673,0.673,0,0,1-.656.844l-1.688.094q-0.937.047-.937-0.7L272.578,86.6a0.828,0.828,0,0,1,.75-1.031q0.889-.141,1.547-0.187a0.755,0.755,0,0,1,.937.75h0Zm-10.265,1.078-0.141,3.422a0.99,0.99,0,0,1-.8,1.078l-1.781.188q-0.937.047-.937-0.7l-0.047-3.328a0.875,0.875,0,0,1,.8-1.031l1.968-.281q0.938-.093.938,0.656h0Zm20.2,2.719-0.188,2.016a0.95,0.95,0,0,1-.8,1.078q-1.125.047-2.157,0.188a0.784,0.784,0,0,1-.937-0.891l0.047-2.016a0.812,0.812,0,0,1,.75-0.984l1.969-.141h0.468a0.664,0.664,0,0,1,.844.75h0Zm-10.594,0a0.648,0.648,0,0,1,.844.656l0.141,2.2a0.825,0.825,0,0,1-.7,1.031l-1.829.141a0.757,0.757,0,0,1-.937-0.75V89.93q0-.749.8-0.094a2.174,2.174,0,0,0,1.687.094h0Zm5.485,0.281-0.047,2.2a0.922,0.922,0,0,1-.8,1.031,8.376,8.376,0,0,1-1.547.141q-0.937.047-.938-0.7l-0.093-2.25a0.754,0.754,0,0,1,.75-0.937l1.172-.094,0.468-.047q1.031-.093,1.032.656h0Zm-9.375,8.25a2.352,2.352,0,0,0-.985.141,2.69,2.69,0,0,0,1.078.844,0.981,0.981,0,0,0,.938.188,5,5,0,0,1,.937-0.187q4.734-.375,14.954-0.937,0.936-.046.937-0.281a1.476,1.476,0,0,0-1.078-.984,3.765,3.765,0,0,0-1.313.047q-9.937,1.079-15.468,1.172h0Zm12.234,3.328-9.094,1.5a0.816,0.816,0,0,1-1.125-.562,1.928,1.928,0,0,0-1.078-1.594,1.81,1.81,0,0,0-.047.937,33.149,33.149,0,0,1,0,6.141,3.076,3.076,0,0,0,.188,1.875,2.292,2.292,0,0,0,1.031,1.172,1.242,1.242,0,0,0,.187-0.985v-0.328a0.846,0.846,0,0,1,.844-0.937q4.125-.468,8.2-0.844,0.938-.047.844,0.7a23.383,23.383,0,0,1-2.062,6.563,1.379,1.379,0,0,1-1.125.89q-1.266.141-2.532,0.188-0.937,0-.8-0.656,0.281-.845-1.032-2.391-0.562-.8-1.265-1.641a2.14,2.14,0,0,0-.985-0.656,3.372,3.372,0,0,0,.282,1.031,21.243,21.243,0,0,1,1.406,3.469q0.281,0.938-.469.984-2.953.141-5.813,0.188a4.083,4.083,0,0,0-1.124.141,0.562,0.562,0,0,0-.141.281,2.859,2.859,0,0,0,.937.89,2.686,2.686,0,0,0,1.875.375,50.456,50.456,0,0,1,5.625-.656q6.8-.657,14.766-1.172a1.4,1.4,0,0,0,.938-0.234,8.637,8.637,0,0,0-1.5-1.078,1.647,1.647,0,0,0-.938-0.375,41.156,41.156,0,0,1-6.562,1.078q-0.986.047-.516-0.891,1.125-2.109,2.3-4.218a1.26,1.26,0,0,0,.187-1.407l-0.187-.75q-0.469-.8.281-0.843a5.611,5.611,0,0,0,1.453-.282q0.188-.139-0.422-0.7a1.125,1.125,0,0,1-.609-1.125l0.281-2.062a3.592,3.592,0,0,1,.75-1.875,0.614,0.614,0,0,0-.234-0.75,5.487,5.487,0,0,0-.985-0.8,4.371,4.371,0,0,0-.8.984,1.851,1.851,0,0,1-.938.422h0Zm0.984,1.641a22.144,22.144,0,0,0-.328,2.39,1.117,1.117,0,0,1-.89,1.078q-4.361.7-8.813,1.032a0.785,0.785,0,0,1-.937-0.891c0-.593-0.016-1.172-0.047-1.734a0.928,0.928,0,0,1,.843-1.032q4.547-.8,9.141-1.546h0.281a0.558,0.558,0,0,1,.75.7h0Zm23.157-26.3a14.307,14.307,0,0,1,.562,3.75q0.093,3.656.094,7.313a0.742,0.742,0,0,1-.8.75l-6.938.609q-0.139.141,0.75,0.844a1.781,1.781,0,0,0,1.641.281,35.176,35.176,0,0,1,3.7-.328q0.938-.046.7,0.7a50.115,50.115,0,0,1-8.015,14.3,2.9,2.9,0,0,0-.563,1.078,0.317,0.317,0,0,0,.235.093,7.713,7.713,0,0,0,1.734-1.64,44.98,44.98,0,0,0,6.984-11.016,1.484,1.484,0,0,1,.563-0.844q0.046,14.672-.094,20.485a12.931,12.931,0,0,1-.234,1.875,3.959,3.959,0,0,0,.515,3.609q0.563,0.938.844-.187l0.188-1.875q0.093-10.875.093-21.657,0-.7.75,0.141a21.62,21.62,0,0,1,2.719,3.8,2.533,2.533,0,0,0,.7.937,0.911,0.911,0,0,0,.422-0.515,4.121,4.121,0,0,0,.235-1.359,1.055,1.055,0,0,0-.188-0.937,24.922,24.922,0,0,0-3.7-3,1.683,1.683,0,0,1-.938-1.359V90.82a0.711,0.711,0,0,1,.75-0.8l4.079-.281a1.058,1.058,0,0,0,.984-0.375,0.9,0.9,0,0,0-.328-0.562,2.451,2.451,0,0,0-1.735-.609,13.169,13.169,0,0,1-2.812.469,0.757,0.757,0,0,1-.938-0.75q0-3,.047-5.906a6.845,6.845,0,0,1,.282-2.062,2.3,2.3,0,0,0,.187-0.937,1.523,1.523,0,0,0-.75-1.453l-0.75-.562a2.252,2.252,0,0,0-1.031-.375,1.086,1.086,0,0,0,.047.516h0Zm26.531,2.859a158.518,158.518,0,0,1-19.031,1.641q-1.08-.141-1.172.375a2.935,2.935,0,0,0,2.39,1.078,39.37,39.37,0,0,1,5.438-.75,0.746,0.746,0,0,1,.937.656,29.1,29.1,0,0,1,.188,4.031,0.817,0.817,0,0,1-.8.844L319.5,88.2a0.86,0.86,0,0,1-1.125-.656A5.782,5.782,0,0,0,317.2,85.2a1.811,1.811,0,0,0-.047.938q0,1.875.188,3.75a31.441,31.441,0,0,1-.188,5.063,5.359,5.359,0,0,0,.61,2.906,0.552,0.552,0,0,0,.468.234,4.087,4.087,0,0,0,.516-0.984l0.047-.75a0.922,0.922,0,0,1,.8-1.031q8.25-.609,16.453-1.172a1.707,1.707,0,0,0,.891-0.375,1.643,1.643,0,0,0-1.407-.891q-0.234-.046-0.14-0.8l0.515-3.7A4.754,4.754,0,0,1,336.8,86.6a1.436,1.436,0,0,0-.75-0.984,1.464,1.464,0,0,0-.422-0.375,2.453,2.453,0,0,0-.984.984,0.655,0.655,0,0,1-.657.234l-3.281.375q-0.937.094-.937-0.656a6.33,6.33,0,0,1,.422-2.906,1.454,1.454,0,0,0-.469-1.172q-0.421-.422.328-0.516,3.938-.422,7.922-0.7Q339.094,80.79,339,80.6a5.627,5.627,0,0,0-1.125-.75,1.436,1.436,0,0,0-1.828-.234,8.078,8.078,0,0,1-1.875.375h0Zm-5.438,2.438a15.293,15.293,0,0,1,0,3.8,0.906,0.906,0,0,1-.843.984l-3.094.375q-0.939.047-.938-0.7L323.766,85.2a4.983,4.983,0,0,1,.093-1.125,1.319,1.319,0,0,0-.047-1.406q-0.327-.468.422-0.562,1.5-.187,3-0.281l0.375-.047a0.914,0.914,0,0,1,1.125.656h0Zm6,5.672-0.562,3.938a1.118,1.118,0,0,1-.891,1.078l-3,.328a0.566,0.566,0,0,1-.75-0.656l0.141-4.172a0.784,0.784,0,0,1,.844-0.8l3.046-.375h0.329q0.936-.093.843,0.656h0Zm-6.14.7L328.453,92.7a0.885,0.885,0,0,1-.8,1.031q-1.266.141-2.484,0.188-1.032.047-1.031-.656L324,89.508a0.825,0.825,0,0,1,.7-1.031l2.719-.281,0.281-.047q0.938-.093.891,0.656h0Zm-5.625.609,0.14,3.75a0.829,0.829,0,0,1-.8.938l-2.624.141q-0.939.047-.938-0.7,0-1.781-.094-3.469a0.822,0.822,0,0,1,.8-0.984l2.109-.234,0.376-.047q0.984-.093,1.031.609h0Zm-3.657,9.844a2.112,2.112,0,0,0,1.313.984,3.445,3.445,0,0,0,1.406,0q5.531-.468,11.063-0.8a3.072,3.072,0,0,0,1.031-.187q0.188-.327-0.469-0.75a2.208,2.208,0,0,0-2.109-.234q-3.562.469-12.235,0.984h0Zm-3.374,5.156a2.872,2.872,0,0,0-1.032.141,1.755,1.755,0,0,0,.75.8,2.066,2.066,0,0,0,1.875.375q2.671-.375,7.313-0.657a0.952,0.952,0,0,1,1.125.7l0.14,0.844q0.141,5.953-.093,10.219a3.352,3.352,0,0,1-.235,1.031,8.885,8.885,0,0,1-2.859-2.2q-0.939-.75-0.891-0.187a4.853,4.853,0,0,0,1.031,1.453,27.784,27.784,0,0,1,2.626,3.75q0.281,0.421.562,0.234a6.215,6.215,0,0,0,.891-2.719l0.093-8.625a11.3,11.3,0,0,1,.282-2.812,0.874,0.874,0,0,0-.094-0.938q-0.7-.843.14-0.89,4.736-.375,9.469-0.61a2.826,2.826,0,0,0,1.031-.14,0.8,0.8,0,0,0-.609-0.891,2.393,2.393,0,0,0-2.437-.328q-9.282,1.125-19.078,1.453h0Zm-1.313,12.844a3.8,3.8,0,0,0-.891,1.078q0.046,0.327,1.125-.469a22.58,22.58,0,0,0,4.875-5.25,21.82,21.82,0,0,1,1.5-1.875,1.382,1.382,0,0,0,.375-0.7,4.735,4.735,0,0,0-.984-2.3,0.2,0.2,0,0,0-.281.047,22.116,22.116,0,0,1-5.719,9.469h0Zm21.75,0.469a5.072,5.072,0,0,0,.609.984,0.322,0.322,0,0,0,.235-0.094,3.933,3.933,0,0,0,.469-2.015,3.142,3.142,0,0,0-.563-2.2,40.5,40.5,0,0,0-5.344-6.234,1.044,1.044,0,0,0-.843-0.422q-0.189.048,0.328,1.078a40.836,40.836,0,0,1,5.109,8.907h0ZM372.609,76.9a28.538,28.538,0,0,1,2.157,5.156,0.64,0.64,0,0,0,.515.656,3.41,3.41,0,0,0,.657-0.937,1.859,1.859,0,0,0-.047-1.875,5.991,5.991,0,0,1-.7-0.937,12.932,12.932,0,0,0-2.532-2.812,0.2,0.2,0,0,0-.187.188,1.078,1.078,0,0,0,.14.563h0ZM362.578,89.086a3.244,3.244,0,0,0-.609,1.031,1.911,1.911,0,0,0,.937-0.609,22.23,22.23,0,0,0,2.3-2.812q0.656-.984.656-0.141,0.046,4.454-.047,8.859a13.176,13.176,0,0,1-.468,2.813,3.922,3.922,0,0,0,.562,3.7,2.08,2.08,0,0,0,.891.843,0.936,0.936,0,0,0,.328-1.171V100.43q0-.75.937-0.188a1.978,1.978,0,0,0,.938.235q6.7-.375,14.625-0.657a1.979,1.979,0,0,0,1.125-.141q0.234-.375-0.516-0.844a2.149,2.149,0,0,0-1.5-.516,53.44,53.44,0,0,1-6.609.469,0.757,0.757,0,0,1-.937-0.75V95.508a0.711,0.711,0,0,1,.75-0.8q2.858-.234,5.671-0.328a1.394,1.394,0,0,0,.938-0.234,1,1,0,0,0-.8-0.844,1.844,1.844,0,0,0-.938-0.234l-4.687.422q-0.937.047-.937-0.7V90.82a0.731,0.731,0,0,1,.8-0.8q2.673-.187,5.344-0.281a3.075,3.075,0,0,0,1.031-.187q0.234-.468-0.89-1.031a2.356,2.356,0,0,0-1.594-.047,25.848,25.848,0,0,1-3.75.375q-0.937.047-.937-0.7V85.664a0.711,0.711,0,0,1,.75-0.8q3.139-.234,6.281-0.422a3.072,3.072,0,0,0,1.031-.187,0.559,0.559,0,0,0-.188-0.609,2.2,2.2,0,0,0-1.874-.7,10.915,10.915,0,0,1-1.876.281q-5.343.61-11.25,0.938-0.937.047-.937-0.234a3.983,3.983,0,0,1,.469-1.172q0.609-1.312,1.312-2.625a2.043,2.043,0,0,0,.282-2.062l-0.422-.937q-0.8-.937-0.938.375a26.219,26.219,0,0,1-5.25,11.578h0Zm-6-9.328A29.561,29.561,0,0,1,359.3,83.32q0.563,1.36,1.312.609a3.116,3.116,0,0,0,.047-1.922,17.594,17.594,0,0,0-4.078-3.328,1.886,1.886,0,0,0-.984-0.375,2.96,2.96,0,0,0,.984,1.453h0ZM369,85.43q1.922-.281,3.8-0.375a0.757,0.757,0,0,1,.937.75V88.43a0.766,0.766,0,0,1-.843.75l-4.407.281q-1.079.094-.468,0.656a2.243,2.243,0,0,0,1.922.375q1.452-.141,2.859-0.234a0.757,0.757,0,0,1,.937.75V92.93a0.711,0.711,0,0,1-.75.8q-2.016.141-3.89,0.188a3.654,3.654,0,0,0-1.125.141,2.458,2.458,0,0,0,.843.75,1.311,1.311,0,0,0,1.172.234l2.813-.187q0.938-.046.937,0.7V98.18a0.711,0.711,0,0,1-.75.8l-4.922.188a0.757,0.757,0,0,1-.937-0.75V85.852q0-.749.937-0.328A1.774,1.774,0,0,0,369,85.43h0Zm-12.609,5.578a0.559,0.559,0,0,0,.984.047,2.913,2.913,0,0,0,.141-1.734,3.446,3.446,0,0,0-1.219-1.266q-1.97-1.266-3.75-2.25-0.984-.515-0.235.563a35.392,35.392,0,0,1,4.079,4.641h0Zm-0.8,9.75a6.45,6.45,0,0,1-2.016-1.125,17.127,17.127,0,0,0-1.687-1.266,1.4,1.4,0,0,0-.985-0.281,1.74,1.74,0,0,0,.75.984,30.616,30.616,0,0,1,3.328,3.844,2.449,2.449,0,0,0,1.078,1.031,0.555,0.555,0,0,0,.61-0.328q2.436-6.233,4.922-14.062a3.2,3.2,0,0,0,.281-1.031,0.193,0.193,0,0,0-.234-0.141q-1.829,3.844-5.157,11.391a1.211,1.211,0,0,1-.89.985h0Zm12.844,5.437a0.764,0.764,0,0,1-.75.844q-10.266.563-18.235,0.656a1.081,1.081,0,0,0-1.219.375,3.561,3.561,0,0,0,1.313,1.125,2.181,2.181,0,0,0,2.062.188q0.468-.093.938-0.141,8.764-.8,15-1.078,0.938-.047.937,0.7,0.046,2.907-.046,5.813a5.319,5.319,0,0,1-.235,1.593,3.732,3.732,0,0,0,.422,3.563,2.2,2.2,0,0,0,.656.844,8.18,8.18,0,0,0,.422-2.907q0.093-4.546.094-9.046a0.731,0.731,0,0,1,.8-0.8q9-.657,17.2-0.985,1.03-.093.047-0.937a3.454,3.454,0,0,0-2.344-.938q-4.032,1.032-14.719,1.735-0.937,0-.843-0.75a5.331,5.331,0,0,1,.281-0.938,1.23,1.23,0,0,0-.469-1.828,9.932,9.932,0,0,0-.938-0.75q-1.078-.562-0.89.563a14.536,14.536,0,0,1,.516,3.093h0Z"/>
</svg>
