<svg xmlns="http://www.w3.org/2000/svg" width="1540" height="1450" viewBox="0 0 1540 1450">
  <defs>
    <style>
      .cls-1 {
        fill: #fff;
      }

      .cls-1, .cls-2, .cls-3 {
        fill-rule: evenodd;
      }

      .cls-2 {
        fill: #fefefe;
      }

      .cls-3 {
        fill: #fdfdfd;
      }
    </style>
  </defs>
  <path id="字体名称" class="cls-1" d="M563.613,202.934h-43v-20.2h-29.2l3.6,3.8v52h-31.4l3,4.8v57.6h97v-62.4h-43v-22h35.8a11.053,11.053,0,0,1,3.9.8,6.167,6.167,0,0,1,3.3,3.2v-17.6Zm-104.8-9.8h-27.2v-10.4h-29.2l3.6,3.8v6.6h-20.4l-6.4-3.4v17.2h49l-15.2,79.8h-30.8l-6.2-3.2v17h78.8a12.728,12.728,0,0,1,4.1.8,4.815,4.815,0,0,1,3.1,3.2v-17.8h-27.8l16.2-79.8h1.2a11.892,11.892,0,0,1,4,.8,5.426,5.426,0,0,1,3.2,3.2v-17.8Zm81,94h-47.6v-34.6h47.6v34.6Zm-125.8-16.8-12.6-49.4h-22.4l3.4,4.4,12.4,45h19.2Zm227.4-55.4v-14h20a13.381,13.381,0,0,1,4,.7,4.592,4.592,0,0,1,3,3.3v-16.8h-85.4l-6.4-3.4v16.2h25v14h-26.2l1.2,4.8v83.4h91.8v-88.2h-27Zm31.6,36,2.6,4.8v47.4h85v-52.2h-87.6Zm33.8-66.6,3.2,4v9h-12.2l1.8-13h-23.8l3.6,6.8-4.8,32.4h19.6l1.8-14h14v22.8h-31.4l-6.4-4.4v17.2h84.8a13.376,13.376,0,0,1,4,.7,4.592,4.592,0,0,1,3,3.3v-16.8h-32.8v-22.8h21.4a10.687,10.687,0,0,1,4,.9,5.844,5.844,0,0,1,3.2,3.1v-16.2h-28.6v-13h-24.4Zm-63.2,85.6h-48v-9.4h-1.2l1.2-2.8v-30h6v15.8l0.2-.2h16l-0.2.2h0.2v-15.8h8v32.8h24.2v31.6h-54.4v-10h42.8a7.117,7.117,0,0,1,2.9.8,4.459,4.459,0,0,1,2.3,3.2v-16.2Zm97,20.8h-44.6v-26.8h44.6v26.8Zm-145-30.2v-2.8l6-14.2h16l-6.4,17h-15.6Zm54.4-12.2h-8.6v-20.6h8.6v20.6Zm-32.2-47.4h8v14h-8v-14Zm223.6,14v-14h20a13.381,13.381,0,0,1,4,.7,4.592,4.592,0,0,1,3,3.3v-16.8h-85.4l-6.4-3.4v16.2h25v14h-26.2l1.2,4.8v83.4h91.8v-88.2h-27Zm31.6,36,2.6,4.8v47.4h85v-52.2h-87.6Zm33.8-66.6,3.2,4v9h-12.2l1.8-13h-23.8l3.6,6.8-4.8,32.4h19.6l1.8-14h14v22.8h-31.4l-6.4-4.4v17.2h84.8a13.376,13.376,0,0,1,4,.7,4.592,4.592,0,0,1,3,3.3v-16.8h-32.8v-22.8h21.4a10.687,10.687,0,0,1,4,.9,5.844,5.844,0,0,1,3.2,3.1v-16.2h-28.6v-13h-24.4Zm-63.2,85.6h-48v-9.4h-1.2l1.2-2.8v-30h6v15.8l0.2-.2h16l-0.2.2h0.2v-15.8h8v32.8h24.2v31.6h-54.4v-10h42.8a7.117,7.117,0,0,1,2.9.8,4.459,4.459,0,0,1,2.3,3.2v-16.2Zm97,20.8h-44.6v-26.8h44.6v26.8Zm-145-30.2v-2.8l6-14.2h16l-6.4,17h-15.6Zm54.4-12.2h-8.6v-20.6h8.6v20.6Zm-32.2-47.4h8v14h-8v-14Zm346.8,65.8h-79.2v-7.2h67.2a12.894,12.894,0,0,1,3.8.7,5.194,5.194,0,0,1,3.2,2.7v-14.2h-74.2v-6.8h79v-44.6h0.2v-12.4h-189.6l3.6,4v53h81v6.8h-71.8l-6-2.6v13.4h77.8v7.2h-76.4l-6.4-3v15.4h180.6a11.892,11.892,0,0,1,4,.8,5.462,5.462,0,0,1,3.2,3v-16.2Zm-160.4-69.4h55.4v32.8h-55.4v-32.8Zm81.2,0h53.4v32.8h-53.4v-32.8Zm-109.2,105.2h31.2l18.6-18.4h-37.2l1.6,3.2Zm133-14.4,3.6-4h-36.8l16.2,18.4h29.8Zm-42.8,0,3.4-4h-36.6l16.2,18.4h29.8Zm84.4,0,3.6-4h-36.6l16,18.4h29.8Zm-111.8-84.4h-29.2l5.2,2.8,12.8,18.6h25.6Zm50.4,22.2h25.6l12.6-18.6,5.4-2.6h-29.2Z"/>
  <path id="中文示例" class="cls-2" d="M303.347,708.338l1.8,2v57.1h12.7v-14h22.8v11.3l-2.5,2.7h15.3v-59.1h-50.1Zm-43.7,1.6,1.4,2.5v54.6h39.6v-57.1h-41Zm58.2,23.5h22.8v13.2h-22.8v-13.2Zm-43.9,27.3v-20h14v20h-14Zm43.9-45.5h22.8v11.4h-22.8v-11.4Zm-29.9,18.7h-14v-16.9h14v16.9Zm126.5,32.7h32.6a6.706,6.706,0,0,1,2,.35,2.266,2.266,0,0,1,1.5,1.55v-61.2h-15.3l0.1,0.1h-62.4l2.5,2.7-6.5,49.4h-3.2l-3.2-1.6v8.6h19.4l2-16.7h53.8v9.9h-20.2l-3.1-1.7v8.6Zm22.5-34.5a4.44,4.44,0,0,1,.8.1v10.8h-52.9l1.3-10.9h50.8Zm-48.7-17.8h49.5v11h-50.8Zm161.7,28.3,1.8-1.9h-14.6v18h-23.5v-25.3h30.7a5.955,5.955,0,0,1,2,.4,2.718,2.718,0,0,1,1.6,1.6v-23.9l1.8-1.9h-14.6v16h-21.5v-18.3h-14.6l1.8,2v16.3h-22.7v-16h-14.6l1.8,1.9v21.9h35.5v25.3h-24.7v-18h-14.7l1.9,1.9-0.1,16.1v7.8h83.2a6.232,6.232,0,0,1,1.95.35,2.553,2.553,0,0,1,1.55,1.551v-25.8Zm55.5,2.7,30.1,23.1h16.2l-0.8-.6v-7.9l-3.2,1.7h-4.5l-26.9-21h30.5a5.955,5.955,0,0,1,2,.4,2.409,2.409,0,0,1,1.5,1.6v-8.9h-37.2v-17.7h31.6a6.357,6.357,0,0,1,2.05.4,2.4,2.4,0,0,1,1.55,1.6v-8.9h-80.9l-3-1.7v8.6h35.9v17.7h-34.9l-3.1-1.7v8.6h32.4l-24.9,21h-5.3l-3.2-1.7v8.5h16.4Zm144.5,21.751a2.264,2.264,0,0,1,1.5,1.549v-45.3h-14.6l1.8,1.9v34.5h-25v-52.4h-14.6l1.8,1.9v50.5h-24.6v-36.4h-14.7l1.8,1.9v41.5h84.6A6.678,6.678,0,0,1,749.947,767.088Zm153.5,0.049v-7.1a2.56,2.56,0,0,1-1.55,1.651,6.172,6.172,0,0,1-1.95.349h-71.2v-17.8h54.3l0.1,0.1v7.2h-45.8a6.175,6.175,0,0,1-1.95-.35,2.858,2.858,0,0,1-1.65-1.65v7.1h58.2v-0.1h4v-17.6h-81.8l1.8,1.2v26.8h10.2v0.2h77.3Zm0.1-53.5h-16.6v-5h-14.7l1.9,1.8v3.2h-33.4v-5h-14.5l1.8,1.8v3.2h-15.3l-3.1-1.7v8.5h18.4v4.6h12.7v-4.6h33.4v4.6h12.8v-4.6h13a5.951,5.951,0,0,1,2,.4,2.715,2.715,0,0,1,1.6,1.6v-8.8Zm-0.3,23.4-10.5-10.2h-74.9l1.7,2.8-9.4,7.2h13.5l5.3-4.8h55.8l5,5h13.5Zm98.9,22.6h-46v-20.5h43.8a6.232,6.232,0,0,1,1.953.349,2.581,2.581,0,0,1,1.55,1.651v-8.8h-22.3l-3.1-7.8h-14.7l1.9,1.9,2.3,5.9h-28.2l-3.1-1.7v8.5h7.1v27.4h55.2a6.388,6.388,0,0,1,2.053.4,2.422,2.422,0,0,1,1.55,1.5v-8.8Zm-12.9-41.4h10.7a5.525,5.525,0,0,1,1.953.4,2.742,2.742,0,0,1,1.55,1.6v-8.8h-14.2v-4.1h-14.3l1.4,2.4v1.7h-37.3v-4.1h-14.3l1.5,3.6v0.5h-13.4l-3.1-1.7v8.5h16.5v3.6h12.8v-3.6h37.3v3.6h12.9v-3.6Zm-59.2,7.1h-14l1.8,2,3,8.2h-11.1l1.8,1.9,3.4,9.3h12.8l-3.7-10.2h10.1Zm4.1,25.7h-16.5l2.4,2-5,13.5h13.4Zm79.8,17.3,67.8-4.3,2.3,4.3h16.9l-3.4-3.1-10.8-20.4h-14.9l6.5,12.5-46.9,3,16.6-22.3h48.5a6.7,6.7,0,0,1,2,.351,2.3,2.3,0,0,1,1.5,1.649v-8.8h-84.8l-3.2-1.7v8.5h19.2l-17.2,23.4h-0.1v6.9Zm78.2-59.2h-69l-3.1-1.6v8.5h68.5a6.372,6.372,0,0,1,2.05.4,2.422,2.422,0,0,1,1.55,1.6v-8.9Zm47.3,13.7,1.3,2.4v13.4h-0.6l-3.1-1.7v8.6h3.7v16.4h46.1v2.8l-2.5,2.7h15.4v-5.5h0.2a6.229,6.229,0,0,1,1.95.349,2.566,2.566,0,0,1,1.55,1.55v-8.8h-3.7v-9.5h0.2a6.229,6.229,0,0,1,1.95.349,2.581,2.581,0,0,1,1.55,1.651v-8.9h-3.7v-15.8h-60.3Zm64-10.3h-49.8l2-4.2h-14.6l1.8,1.9-4.3,9.1h61.4a6.207,6.207,0,0,1,1.95.351,2.577,2.577,0,0,1,1.55,1.649v-8.8Zm-75-4.2h-13.9l1.8,1.9,4.5,12.4h-11.2l1.9,1.9,4.9,13.4h12.8l-5.3-14.3h10.2Zm6.3,35.5h-16.4l2.4,2-8,21.6h13.4Zm18.9,1.7h33.2v9.5h-33.2v-9.5Zm33.2-6.9h-9.7l-1.8-4.5,1.8-1.8h-15.3l2.7,6.3h-10.9v-8.9h33.2v8.9Zm-8.8,16.4h-12.7l-2.7-6.5h15.3l-1.9,1.8,1.9,4.5Zm49.1-30.6,1.4,2.5v33.7h58.1v-36.2h-59.5Zm22.4-14.6v6.8h42v48.1l-2.6,2.7h15.4v-57.6h-54.8Zm-40.8,6.3,1.8,1.9v49.4h12.8v-51.3h-14.6Zm32.6,38.2v-8.1h32.5v8.1h-32.5Zm32.5-14.9h-32.5v-8h32.5v8Zm-35.7-31.1h-13.9l1.8,2,5.6,10.4h12.8Zm-928,225.9h-23.9v-19h22.6l18.6,26h22.4v-8.6l-3.2,1.7h-9.6l-13.5-19.1h23.9a5.7,5.7,0,0,1,2.05.45,2.553,2.553,0,0,1,1.55,1.649v-8.9h-64.8v-8.9l56.9-6.1a3.253,3.253,0,0,1,1.95.25,2.571,2.571,0,0,1,1.55,1.75v-9.6l-60.4,6.5v-9.6h-15.3l2.5,2.7-0.1,23h-8.1l-3.2-1.7v8.5h11.3v25.9h33.3a5.523,5.523,0,0,1,1.95.4,2.726,2.726,0,0,1,1.55,1.6v-8.9Zm141.4,0.4-5.5.1-0.1-52.3h-4.3v-0.1l-61.6.1h-13.2l2.5,2.7-2,49.4h-2.7l-3.1-1.6v8.6h19.4l2-52.3h50.2l0.1,51.4v1.1l14.7-.1a4.749,4.749,0,0,1,2.05.3,2.4,2.4,0,0,1,1.55,1.6v-8.9Zm-35.3-20.5,15.2-17.3h-17.2l-6.4,7.2-5.9-7.2h-17.2l14.3,17.3-17.6,19.9h17.3l8.6-9.8,8.2,9.8h17.3Zm73.3-24.1h33.7l0.1,50.9h12.8l10.3-.1a6.678,6.678,0,0,1,2,.351,2.546,2.546,0,0,1,1.6,1.55v-8.8l-13.9.1v-50.8h-59.8l1.8,1.9-15,55.7h12.9Zm161.5-6.9h-83.4l-3.2-1.7v8.5h15.8l-13.8,45.7h-1.3l-3.1-1.7v8.6h0.8l-0.1.1h15.6l8.8-30.5h50.4v23.8h-18.3v8.6l3.2-1.7h27.9v-37.5h-61.2l4.5-15.4h53.9a6.7,6.7,0,0,1,2,.349,2.3,2.3,0,0,1,1.5,1.651v-8.8Zm8.2-.6,1.4,2.3v33.3h40.4v5h-36l-3.1-1.7v8.5h39.1v4.7h-37.3l-3.1-1.7v8.5h89.6a5.951,5.951,0,0,1,2,.4,2.737,2.737,0,0,1,1.6,1.5v-8.7h-40.1v-4.7h35.2a5.955,5.955,0,0,1,2,.4,2.408,2.408,0,0,1,1.5,1.6v-8.8h-38.7v-5h39.9v-35.6h-94.4Zm14.3,21.2h27.5v7.5h-27.5v-7.5Zm40.2,7.5v-7.5h26.5a1.934,1.934,0,0,1,.6.1v7.4h-27.1Zm-40.2-14.7v-7h27.5v7.3h-26.9Zm67.3,0.3h-27.1v-7.3h27.1v7.3Zm68-13.6,1.4,2.4v56.4h38.6v-58.8h-40Zm95.4,7.5h-32.7l-0.7-.1,4-6.8h-18.9l1.8,1.9-7.1,11.9h40.8v16.4h12.8v-23.3Zm-23.1,12.5h-18.5l1.9,2-14.2,36.9h15.7Zm-58.1,32.1v-45.1h13v45.1h-13Zm81.2,7.3-12.4-23.4,1.8-1.9h-17.7l13.3,25.3h15Zm63.5-4.1,11.4,4.1h24.3v-8.4l-3.2,1.7h-16.4l-4.7-1.6,21.4-7.9v-8.8h-14.2v0.1h-51.1l-3.1-1.7v7.6h54.2v1.1l-18.6,5.7-9.6-3.3,2.8-1.6h-28.5l23.4,8.6-5.9,1.8h-19.2l-3.2-1.7v8.4h29Zm35.7-50.1h-33.9l-0.6-5.2h-14.6l1.8,1.9,0.4,3.3h-41.5l1.8,2-7.2,52.2h12.1l7.1-47.4h71a5.98,5.98,0,0,1,2,.4,2.739,2.739,0,0,1,1.6,1.6v-8.8Zm0,12.6h-7.7v-3.7h-14.6l1.8,1.9v1.8h-30.9v-3.7h-14.6l1.8,1.9v1.8h-4l-3.1-1.7v7.5h7.1v9.2h56.5v-9.2h4.1a5.962,5.962,0,0,1,2,.4,2.739,2.739,0,0,1,1.6,1.7v-7.9Zm-51.4,5.8h30.9v3.4h-30.9v-3.4Zm149.4,28.7h-10.4l-5.3-12.9h-16l2.5,1.8,4.7,11.1h-15.4v-20.1h32.4a5.978,5.978,0,0,1,2,.4,2.736,2.736,0,0,1,1.6,1.6v-8.9h-36v-18.4h35.1a6.7,6.7,0,0,1,2,.351,2.565,2.565,0,0,1,1.6,1.549v-8.8h-84.8l-3.1-1.7v8.6h36.4v18.4h-30.1l-3-1.6v8.5h33.1v20.1h-34.1l-3.1-1.7v8.6h86.3a6.391,6.391,0,0,1,2.05.4,2.447,2.447,0,0,1,1.55,1.4v-8.7Zm99.3-50.3-56-.1-3.1-1.7v8.6l46.2,0.1v42.5h-11.7l-3-1.7v8.6h24a5.957,5.957,0,0,1,2,.4,2.735,2.735,0,0,1,1.6,1.6v-58.3Zm-73.6,14.1h-14.7l1.8,1.9v40.2h12.9v-42.1Zm4.3-17h-16l3.2,1.9,8.7,12.9h13.9Zm143.6,11.5h-37.1l-5-9.8h-14.6l1.8,2,4.2,7.8h-11.2l-3.2-1.7v8.5h39.7v12.3h-36.5l-3.2-1.7v8.5h37.8l-14.9,15.1h-19l-3.1-1.7v8.6h15.3l-0.1.1,16.3-.1,20.1-21.8h0.2v-0.2h36.9a5.794,5.794,0,0,1,1.9.4,2.739,2.739,0,0,1,1.6,1.6v-8.8h-40.4v-12.3h36.9a6.492,6.492,0,0,1,1.9.351,2.574,2.574,0,0,1,1.6,1.649v-8.8h-14.5l4.2-7.8,1.8-2h-14.6Zm0,48h12.8l-0.1-.1h15.4v-8.6l-3.1,1.7h-18.4l-7.9-8.9,1.8-2h-15.5Z"/>
  <path id="大写字母" class="cls-3" d="M167.9,512.566H147.5l1.14,1.2-13.44,26.46h7.74l5.04-10.2h21l4.98,10.2h7.74Zm-13.32,4.14h7.86l4.44,9.12H150.02Zm36.659,23.52h39.78v-10.5l-5.94-3.3,5.94-4.56v-9.3H190.1l1.14,1.2v26.46Zm32.04-23.52v7.62h-24.24v-7.62h24.24Zm0,11.76v7.62h-24.24v-7.62h24.24Zm56.879,7.56H248.3v-19.38H278a3.8,3.8,0,0,1,1.23.24,1.454,1.454,0,0,1,.93,1.02v-5.4h-40.74l1.08,1.2v26.52H278a3.8,3.8,0,0,1,1.23.24,1.441,1.441,0,0,1,.93.96v-5.4Zm9.48,4.2h42.3v-23.7l-7.74-3.96h-35.64l1.08,1.2v26.46Zm34.5-23.52v19.38H297.5v-19.38h26.64Zm55.739,7.56h-30.66v-7.62h29.7a3.8,3.8,0,0,1,1.23.24,1.456,1.456,0,0,1,.93,1.02v-5.4h-40.74l1.14,1.2v26.52h37.44a3.8,3.8,0,0,1,1.23.24,1.443,1.443,0,0,1,.93.96v-5.4h-31.86v-7.56h28.5a3.447,3.447,0,0,1,1.23.24,1.636,1.636,0,0,1,.93.96v-5.4Zm49.08,0.06h-30.6v-7.62h29.7a3.805,3.805,0,0,1,1.23.24,1.458,1.458,0,0,1,.93,1.02v-5.4h-40.74l1.08,1.2v26.46h7.8v-11.76H426.8a3.805,3.805,0,0,1,1.23.24,1.458,1.458,0,0,1,.93,1.02v-5.4Zm50.4-.06h-20.52l-1.86-1.02v5.22h14.64v7.56H447.5v-19.38h30.3a3.8,3.8,0,0,1,1.23.24,1.454,1.454,0,0,1,.93,1.02v-5.4h-41.34l1.14,1.2v26.52h37.68a5.588,5.588,0,0,1,.96.24,1.442,1.442,0,0,1,.96.96v-17.16Zm41.94,15.96h7.86v-27.66h-8.94l1.08,1.2v9.54h-24v-10.74h-8.94l1.08,1.2v26.46h7.86v-12.78h24v12.78Zm17.339,0h7.86v-27.66h-8.94l1.08,1.2v26.46Zm18.42,0h37.56v-27.72h-8.94l1.08,1.2v22.32H554.9v5.4a1.848,1.848,0,0,1,.99-0.96,3.3,3.3,0,0,1,1.17-.24h0Zm47.039,0h7.86v-11.88l7.62-2.82,14.64,14.7h9.3l-17.34-17.1,14.34-5.28a1.568,1.568,0,0,1,1.38.12,2.5,2.5,0,0,1,.78,1.14v-6.54l-30.72,11.58v-11.58h-8.94l1.08,1.2v26.46Zm48.96,0h37.5a3.551,3.551,0,0,1,1.2.24,1.627,1.627,0,0,1,.96.96v-5.4h-31.8v-23.52h-9l1.14,1.2v26.52Zm69.659,0h8.16l6.84-21.42,6.78,21.42h5.4l-9.18-27.66h-9.84l1.08,1.2-6.36,18.84-6.66-20.04h-10.02l1.08,1.2-8.88,26.46h7.8l6.96-21.6Zm76.32,0v-27.72h-40.74l1.08,1.2v26.52h7.8v-23.52h24.06v23.52h7.8Zm9.48,0h42.3v-27.72h-43.38l1.08,1.2v26.52Zm34.44-23.58v19.38h-26.58v-19.38h26.58Zm57.059-4.14h-40.8l1.14,1.2v26.52h7.8v-9.96h29.7a3.551,3.551,0,0,1,1.2.24,1.629,1.629,0,0,1,.96,1.02v-19.02Zm-31.86,4.2h24.06v9.42h-24.06v-9.42Zm88.379,16.38-4.68-1.62v-18.96h-43.44l1.14,1.2v26.52h42.3v-3.96l2.52,0.96q0.48,0.3,1.14.72a2.822,2.822,0,0,1,1.02,1.68v-6.54Zm-12.54-16.44v12.06l-6.24-2.22v4.2l6.24,2.46v2.88h-26.64v-19.38h26.64Zm22.02,23.58h7.86v-12.42h13.02l10.5,12.42h9l-11.039-12.42h8.159a3.11,3.11,0,0,1,1.23.27,1.985,1.985,0,0,1,.99.99v-16.56h-40.8l1.08,1.2v26.52Zm7.86-23.52h24v6.96h-24v-6.96Zm42,11.16h31.86v8.16h-29.94l-1.92-1.02v5.28h37.56a3.993,3.993,0,0,1,1.2.21,1.524,1.524,0,0,1,.96.93v-17.76h-31.86v-6.96h29.7a3.993,3.993,0,0,1,1.2.21,1.529,1.529,0,0,1,.96.99v-5.4h-40.8l1.08,1.2v14.16Zm63.84,12.36h7.8v-23.52h13.98a3.993,3.993,0,0,1,1.2.21,1.529,1.529,0,0,1,.96.99v-5.4h-37.8l-1.86-1.02v5.22h15.72v23.52Zm33.42,0.06h37.56a3.993,3.993,0,0,1,1.2.21,1.524,1.524,0,0,1,.96.93v-28.92h-8.94l1.08,1.2v22.32h-24v-23.52h-8.94l1.08,1.2v26.58Zm62.82-.06h11.1l14.22-27.72h-5.22l-12.9,24.9-12.54-24.9h-9.36l1.62,1.44Zm56.52-26.28-6.06,20.28-7.44-21.72h-9.3l1.98,1.44,9.42,26.28h8.46l6.24-20.1,7.14,20.1h8.46l8.64-27.72h-5.4l-6.36,21.6-7.32-21.6h-10.26Zm55.38,16.32,10.14,9.96h10.38l-15.06-14.82,14.46-12.9h-8.04l-10.2,9.12-9.24-9.12h-11.88l2.88,1.44,12.78,12.6-15.3,13.68h7.92Zm44.76,9.96h7.8v-13.98l15.06-13.74h-8.04l-10.32,9.3-9.12-9.3h-11.22l2.88,1.5,12.96,13.14v13.08Zm71.94-4.2h-27.66l27.66-19.38v-4.14h-37.8l-1.86-1.02v5.22h26.94l-27.96,19.32v4.26h38.52a4.283,4.283,0,0,1,1.23.21,1.359,1.359,0,0,1,.93.93v-5.4Z"/>
  <path id="logo" class="cls-1" d="M706.266,1194.7a45.969,45.969,0,0,0-.118,5.15v5.16H677.555v-1.17l0.234-.94-1.406-.24c-1.1,0-2.659-.07-4.688-0.23h-3.281l-0.469,2.58a45.646,45.646,0,0,1-1.172,4.92,22.619,22.619,0,0,1-1.406,4.22,7.125,7.125,0,0,0-.82,2.23,6.584,6.584,0,0,0,2.109-.71c1.326-.54,2.615-1.13,3.867-1.76a11.566,11.566,0,0,0,3.516-2.81l1.641-1.64h66.8l1.875,1.88a14.477,14.477,0,0,0,3.75,2.81c1.406,0.62,2.655,1.17,3.75,1.64a1.036,1.036,0,1,0,1.171-1.17,17.1,17.1,0,0,1-1.406-3.99q-0.7-2.34-1.172-4.68a11.9,11.9,0,0,0-.7-3.05c0-.47-1.252-0.62-3.75-0.47-1.875.16-3.281,0.23-4.219,0.23a2.052,2.052,0,0,1-.937.24c-0.315,0-.469.31-0.469,0.94l0.235,0.93-13.594.24q-13.359,0-13.36-.24a2.838,2.838,0,0,1,.7-1.05,6.664,6.664,0,0,0,1.171-2.46,15.728,15.728,0,0,0,.469-4.22v-2.58h-4.687Q706.382,1194.46,706.266,1194.7Zm-31.289,28.12v4.22l21.093,0.23h21.094l-5.859,4.93q-5.4,4.215-8.2,6.56l-2.344,1.87v6.8H660.445v4.22h40.313v14.76c0,10.01-.158,15.47-0.469,16.41a13.152,13.152,0,0,1-1.172,3.05,21,21,0,0,1-2.578,3.04,16.962,16.962,0,0,1-3.75,2.82c-1.406.62-2.109,1.17-2.109,1.64s0.153,0.7.468,0.7a30.375,30.375,0,0,0,3.047-.47,34.353,34.353,0,0,0,4.922-1.4,16.4,16.4,0,0,0,4.688-1.88,11.74,11.74,0,0,0,3.515-2.34,12.264,12.264,0,0,0,2.344-2.58,13,13,0,0,0,1.172-2.58c0.311-.94.469-6.4,0.469-16.41v-14.76h38.2v-4.22h-38.2v-6.8l2.109-1.64q2.109-1.635,8.438-6.79,6.327-5.4,8.437-7.04a13.637,13.637,0,0,0,2.578-2.34q0-.225-28.828-0.23t-29.062.23h0Zm121.64-30.23-0.469,1.87a27.635,27.635,0,0,1-1.523,5.74c-0.861,2.43-1.681,4.65-2.461,6.68q-1.176,2.58-3.281,6.8-1.88,3.75-4.453,8.44-2.11,3.75-4.688,7.73-2.582,4.215-3.047,4.92a7.818,7.818,0,0,0-1.406,2.11c-0.157.47-.117,0.71,0.117,0.71a8.252,8.252,0,0,0,2.227-1.18q1.873-1.17,3.515-2.34,1.874-1.41,3.985-3.28a59.714,59.714,0,0,0,4.453-4.45l2.109-2.35,0.235,14.77,0.234,14.76h1.875a5.862,5.862,0,0,0,3.047-.7,5.457,5.457,0,0,0,1.875-1.17,11.374,11.374,0,0,0,1.406-1.64l0.469-.71h27.187v2.11l0.235,2.11h1.64a7.437,7.437,0,0,0,2.813-.47,9.072,9.072,0,0,0,2.109-1.17,4.666,4.666,0,0,0,1.407-1.64l0.7-.94h31.64v-4.45H838.336v-6.8H868.57v-4.45H838.336v-6.8H868.57v-4.68H838.336v-7.5H868.57v-4.69H837.164l0.938-1.17a23.668,23.668,0,0,0,1.406-2.35,6.445,6.445,0,0,0,.7-2.57,17.74,17.74,0,0,0,.469-4.93v-3.51H828.727v14.53H815.6q-13.129,0-13.125-.23c0-.16-0.158-0.24-0.469-0.24s0.311-1.41,1.875-4.22a69.182,69.182,0,0,0,3.281-7.5,16.732,16.732,0,0,0,1.406-3.98l0.235-1.17H796.617Zm31.406,22.03v7.5H802.477v-7.5h25.546Zm0,12.18v6.8H802.477v-6.8h25.546Zm0,11.25v6.8H802.477v-6.8h25.546Zm-3.515,16.88v5.16l-22.969.23H778.805v4.45h45.7v1.64c0,1.1-.081,1.64-0.235,1.64a40.222,40.222,0,0,1-4.687-1.17q-4.455-1.17-4.922-1.4-0.236,0-6.328,4.68-6.1,4.935-7.734,6.1-1.643.93-4.454,2.58a58.967,58.967,0,0,1-5.39,2.57q-2.812,1.185-5.391,2.23a35.226,35.226,0,0,1-5.859,1.76,17.416,17.416,0,0,0-3.047,1.05,6.06,6.06,0,0,0,1.289,1.06,3.994,3.994,0,0,0,1.992.94c0.469,0,2.344-.32,5.625-0.94s6.328-1.33,9.141-2.11q4.449-1.17,8.2-2.35a22.822,22.822,0,0,0,4.922-2.1q1.637-.945,9.14-6.1t7.618-5.04q0.115,0.12.117,13.48v13.12h1.406a7.357,7.357,0,0,0,2.813-.7,6.692,6.692,0,0,0,3.046-1.99,11.184,11.184,0,0,0,2.11-3.17,8.733,8.733,0,0,0,.586-2.34q0.115-1.17.117-6.33c0.154-4.68.271-7.11,0.352-7.26s1.442,0.55,4.1,2.11q3.982,2.1,6.8,3.51a34.945,34.945,0,0,0,6.328,2.58,54.282,54.282,0,0,0,6.328,1.64,52.974,52.974,0,0,0,5.625.94c1.718,0.16,4.219.23,7.5,0.23a38.521,38.521,0,0,0,5.86-.23,1.37,1.37,0,0,0,1.171-.94l0.235-1.17c0-.15-0.235-0.24-0.7-0.24-0.315,0-1.722-.23-4.219-0.7s-5-1.01-7.5-1.64q-3.516-.93-6.8-2.11-2.812-.93-5.625-2.11-2.346-1.17-10.078-6.33l-7.734-5.15,19.453-.24h19.453v-4.45H854.977l-20.157-.23v-2.58l-0.234-2.58H824.508Z"/>
</svg>
