<svg xmlns="http://www.w3.org/2000/svg" width="1540" height="1450" viewBox="0 0 1540 1450">
  <defs>
    <style>
      .cls-1 {
        fill: #fff;
      }

      .cls-1, .cls-2, .cls-3 {
        fill-rule: evenodd;
      }

      .cls-2 {
        fill: #fefefe;
      }

      .cls-3 {
        fill: #fdfdfd;
      }
    </style>
  </defs>
  <path id="字体名称" class="cls-1" d="M184.312,239.672h28.907q13.28,47.658,45.312,78.906-32.031,22.658-78.906,39.063l10.937,14.843Q239,354.516,271.812,330.3a257.874,257.874,0,0,0,78.907,42.969l9.375-17.188q-46.1-16.405-74.219-37.5,9.375-5.467,23.047-27.344t19.922-51.562h30.468V224.828H283.531A152.6,152.6,0,0,0,263.219,192.8l-13.281,9.375q7.811,10.938,14.843,22.656H184.312v14.844Zm127.344,0q-10.158,42.971-39.062,67.969-28.908-25.782-42.188-67.969h81.25Zm145.313-33.594H403.844v71.875H464v69.531q0,6.252-1.172,7.813t-4.3,1.562a129.318,129.318,0,0,1-28.125-3.125l3.125,15.625a157.014,157.014,0,0,0,27.344,2.344q10.937,0,14.844-4.3t3.906-16.015V304.516q28.125,39.063,75,59.375l8.594-15.625q-28.908-10.936-50-29.688,21.874-10.937,36.719-25.781l-12.5-10.156a147.693,147.693,0,0,1-35.938,25,147.073,147.073,0,0,1-21.875-25.782v-3.906h61.719V206.078H473.375a53.606,53.606,0,0,0,5.469-10.937l-16.406-3.907a51.03,51.03,0,0,1-5.469,14.844h0Zm-37.5,14.844h106.25v14.844H419.469V220.922Zm0,28.125h106.25v14.062H419.469V249.047Zm-32.813,57.812h49.219q-14.846,26.565-53.906,44.532l9.375,14.062q44.531-21.874,62.5-58.594V292.8H386.656v14.062Zm200-95.312h47.656l-5.468,68.75H606.188l4.687-53.906-14.063-2.344-7.031,70.312h50.781q-0.781,32.813-3.124,47.657-1.565,9.375-5.469,12.5-1.563,1.56-19.531,1.562l2.343,14.844h12.5q14.844,0,21.485-13.672T657.75,280.3H643.688l5.468-82.031h-62.5v13.281Zm-2.344,116.406,5.469,15.625a215.166,215.166,0,0,0,37.5-20.312L624.938,309.2a295.621,295.621,0,0,1-40.626,18.75h0Zm114.844-78.125q-14.845,9.375-36.718,14.844l7.812,14.062a111.617,111.617,0,0,0,40.625-18.75q19.53,14.063,45.313,18.75l4.687-14.062Q739,259.2,723.375,250.609,739,235.767,749.938,209.2V198.266h-81.25v14.062h7.031q10.155,22.658,23.437,37.5h0Zm-7.812-37.5H732.75a90.4,90.4,0,0,1-21.875,28.906,97.263,97.263,0,0,1-19.531-28.906h0ZM672.594,305.3h30.468v19.531H664v14.844h39.062V371.7h14.844V339.672h41.406V324.828H717.906V305.3H751.5V291.234H717.906v-18.75H703.062v18.75H672.594V305.3Zm109.375-67.969,9.375,12.5Q814,230.3,828.062,199.047l-13.281-7.031q-10.938,25-32.812,45.312h0Zm-1.563,53.906,9.375,12.5A73.026,73.026,0,0,0,801.5,292.8V371.7h14.844V275.609a169.932,169.932,0,0,0,14.062-24.218l-13.281-7.032q-11.719,25-36.719,46.875h0Zm110.156-15.625,11.719,8.594,4.688-11.719a457.569,457.569,0,0,0,14.843,46.875q-10.156,24.22-26.562,38.282l10.156,13.281q14.844-13.283,25-33.594A161.1,161.1,0,0,0,951.5,370.922l10.938-14.063a144.836,144.836,0,0,1-24.219-36.718l8.593-31.25q3.906-21.875,6.25-49.219h8.594V224.828H921.031q3.125-13.28,5.469-27.344L912.438,192.8a358.78,358.78,0,0,1-21.876,82.812h0Zm26.563-35.937h21.094q-2.345,35.155-9.375,59.375-7.815-21.875-13.282-51.563,1.561-7.031,1.563-7.812h0Zm-85.937,17.187h63.281V206.078H880.406V242.8h-9.375v-50H855.406v50H845.25V206.078H831.188v50.781Zm-3.907,24.219H889V267.016H827.281v14.062Zm10.938,10.938v20.312A70.434,70.434,0,0,1,821.031,359.2l12.5,9.375q20.312-27.342,20.313-56.25v-6.25h15.625v46.094l10.937,10.156q16.407-11.718,25.782-23.437l-10.157-9.375-12.5,12.5v-50H838.219Zm146.875-17.188h61.716q-22.65,40.626-64.06,67.188l11.719,14.843q42.961-28.125,68.751-76.562V371.7h15.62V280.3q27.345,50,70.32,75.781l9.37-17.969q-39.84-20.31-64.84-63.281h64.84V259.984h-79.69V192.016h-15.62v67.968H985.094v14.844Zm114.846-32.812,16.4,8.593a386.342,386.342,0,0,0,25.78-41.406l-17.18-7.031a253.048,253.048,0,0,1-25,39.844h0ZM998.375,212.328a161.692,161.692,0,0,1,29.685,39.844l14.85-8.594a180.5,180.5,0,0,0-30.47-39.844Zm203.125,56.25H1264V284.2h-64.06v14.063H1264v16.406h-78.12v14.062h171.87V314.672h-78.91V298.266h64.07V284.2h-64.07V268.578h62.5V197.484H1201.5v71.094Zm15.62-57.812H1264V255.3h-46.88V210.766Zm10.16,11.718A77.981,77.981,0,0,1,1239,248.266l14.06-4.688a103.6,103.6,0,0,0-10.94-25.781Zm98.44-11.718V255.3h-46.88V210.766h46.88Zm-37.5,31.25,13.28,7.031a125.98,125.98,0,0,0,14.06-26.563l-14.06-5.468a116.176,116.176,0,0,1-13.28,25h0Zm-107.03,118.75,13.28,11.718q12.495-12.5,24.22-32.812l-14.07-8.594a122.249,122.249,0,0,1-23.43,29.688h0Zm142.97-20.313a226.242,226.242,0,0,1,24.22,32.031l12.5-13.281a337.036,337.036,0,0,0-23.44-28.125Zm-89.85-.781a144.7,144.7,0,0,1,11.72,31.25l16.41-7.031a171.75,171.75,0,0,0-13.28-31.25Zm46.1,0a151.351,151.351,0,0,1,14.84,30.469l15.63-7.032a152.931,152.931,0,0,0-15.63-30.468Z"/>
  <path id="中文示例" class="cls-2" d="M265.531,700.5v71.875h7.813v-8.2h24.218V700.5H265.531Zm7.813,28.516V707.922H289.75v21.094H273.344Zm16.406,6.64V756.75H273.344V735.656H289.75Zm17.578-40.234v37.5a123.112,123.112,0,0,1-1.953,24.023,118.268,118.268,0,0,1-7.031,21.68l7.031,4.3a109.5,109.5,0,0,0,8.594-30.86h26.953V769.25q0,5.469-2.734,5.469a120.688,120.688,0,0,1-12.11-.781l1.953,7.421a109.527,109.527,0,0,0,11.719.782q4.3,0,6.445-2.735t2.149-7.812V695.422H307.328Zm7.422,6.64h26.172v17.969H314.75V702.062Zm0,32.813v-7.813h26.172v17.969H314.75V734.875Zm61.719-39.453v37.5a75.409,75.409,0,0,1-3.321,23.437q-3.321,10.156-11.523,22.657l7.422,4.3a80.217,80.217,0,0,0,13.672-31.25h48.437v17.579q0,5.469-3.125,5.468a128.214,128.214,0,0,1-15.234-1.171l1.953,7.812a118.969,118.969,0,0,0,14.844,1.172q4.688,0,7.031-2.734t2.344-8.2V695.422h-62.5Zm7.812,7.422h46.875v17.187H384.281V702.844Zm0,32.422v-7.813h46.875v17.188H383.891q0.39-4.687.39-9.375h0Zm82.813,43.359h70.312v4.3h7.813V741.516h-7.813V771.2H510.062V732.531h23.047v2.735h7.813V700.891h-7.813v24.218H510.062V693.078H502.25v32.031H478.812V700.891H471v31.64h31.25V771.2H474.906V741.516h-7.812v37.109Zm102.344-73.437h32.421q0,17.577-.39,22.656h-37.5v7.422h36.719a40.885,40.885,0,0,1-10.547,23.828q-8.985,9.766-28.125,16.406l4.687,7.812q33.2-12.109,40.235-36.718Q617.485,769.642,646,783.312l5.469-8.2Q621,763,610.062,735.266h38.282v-7.422H609.281q0.39-2.345.391-22.656h33.2v-7.422H569.438v7.422Zm98.828,71.484h67.578V783.7h7.812V713.781h-7.812V769.25H710.062V693.469H702.25V769.25H676.078V714.562h-7.812v62.11ZM788.773,708.7H811.82v7.031h8.2V708.7h25.391v7.031h7.813V708.7h23.437v-7.422H853.227v-8.2h-7.813v8.2H820.023v-8.2h-8.2v8.2H788.773V708.7ZM787.211,738l3.516,7.031q26.171-7.42,39.062-21.484a183.374,183.374,0,0,0,43.359,21.875l3.907-7.031a160.841,160.841,0,0,1-42.969-19.922,41.476,41.476,0,0,0,2.344-3.516l-7.813-2.344Q816.9,729.408,787.211,738h0Zm59.766,19.727a2.538,2.538,0,0,1-2.344,1.367,88.382,88.382,0,0,1-11.719-.782l1.563,7.813a80.518,80.518,0,0,0,10.546.781q6.25,0,8.594-4.492t2.735-21.68h-50v32.032q0,5.859,2.929,7.422t21.289,1.562q28.906,0,32.813-2.734,4.688-3.126,7.031-13.672l-7.812-2.735q-0.783,7.813-3.907,9.766t-28.125,1.953q-13.281,0-14.843-.586a2.419,2.419,0,0,1-1.563-2.539V748.156h34.375Q847.758,756.36,846.977,757.727Zm41.8-49.024H911.82v7.031h8.2V708.7h25.391v7.031h7.813V708.7h23.437v-7.422H953.227v-8.2h-7.813v8.2H920.023v-8.2h-8.2v8.2H888.773V708.7Zm7.813,14.453A79.131,79.131,0,0,1,909.477,733.7l5.468-6.641a65.315,65.315,0,0,0-12.89-9.374ZM888.383,738a88.776,88.776,0,0,1,14.453,10.547l5.078-6.641a66.276,66.276,0,0,0-14.062-9.375Zm0,38.672,7.422,5.469a104.344,104.344,0,0,0,16.406-26.172l-6.641-4.3a112.615,112.615,0,0,1-17.187,25h0Zm53.906-56.641a52.61,52.61,0,0,1,4.688,9.375h-29.3v7.422h8.2v43.36h48.828v-7.422H933.7V736.828h42.969v-7.422H955.57a70.173,70.173,0,0,0-5.078-12.109Zm54.688-12.89h70.7v-7.422h-70.7v7.422Zm-8.594,26.953h33.6a111.564,111.564,0,0,1-25.394,37.89l3.514,7.813a311.669,311.669,0,0,0,57.81-6.25l3.13,9.375,8.2-3.516a171.407,171.407,0,0,0-16.4-34.765l-7.43,3.125a173.223,173.223,0,0,1,9.38,18.359,323.936,323.936,0,0,1-46.49,5.469q11.34-10.938,23.05-37.5h44.92v-7.422H988.383v7.422Zm102.737-34.766a99.037,99.037,0,0,1,16.01,12.5l5.08-6.64a75.134,75.134,0,0,0-15.62-11.329Zm-3.91,24.219a63.906,63.906,0,0,1,14.45,10.937l5.47-6.64a93.264,93.264,0,0,0-14.45-9.766Zm-0.39,53.906,7.81,5.469a163.92,163.92,0,0,0,13.67-35.547l-6.64-4.687a164.123,164.123,0,0,1-14.84,34.765h0Zm23.05-60.156,5.47,5.859a57.132,57.132,0,0,0,11.71-14.453h46.88v-7.031h-42.97q1.56-3.516,2.74-7.031l-8.21-1.953a58.728,58.728,0,0,1-15.62,24.609h0Zm12.11,22.265h-9.77v7.032h8.59q-1.56,12.11-3.9,22.656h42.58c-0.52,4.688-1.96,7.031-4.3,7.031q-4.305,0-11.72-.781l1.17,6.641a95.655,95.655,0,0,0,10.55.781q10.935,0,12.5-13.672h9.37v-6.641h-8.98a159.07,159.07,0,0,0,1.56-16.015h8.6v-7.032h-8.21l0.78-22.656h-46.87q-0.78,11.72-1.95,22.656h0Zm8.98-16.015h31.64q0,7.812-.39,16.015h-32.42q0.78-7.421,1.17-16.015h0Zm7.42,6.641a40.335,40.335,0,0,1,8.6,7.812l5.07-5.859a41.89,41.89,0,0,0-8.59-6.641Zm-12.11,32.421q1.56-7.421,2.74-16.015h32.81l-1.56,16.015h-33.99Zm11.33-9.375a62.151,62.151,0,0,1,9.38,7.813l4.68-5.859a62.973,62.973,0,0,0-9.37-7.032Zm63.28-57.031a50.406,50.406,0,0,1,8.6,13.672l7.03-4.3a59.181,59.181,0,0,0-8.99-13.672Zm23.44,7.422h40.23v66.406q0,5.469-2.73,5.469a49.155,49.155,0,0,1-7.81-.781l1.95,8.2q4.3,0.39,7.42.39a8.257,8.257,0,0,0,6.64-2.734q2.355-2.735,2.35-8.2V696.594h-48.05v7.031Zm-31.64,79.3h7.81V710.656h-7.81v72.266Zm21.87-64.063v46.485h35.55V718.859h-35.55Zm7.43,19.532v-12.5h20.7v12.5h-20.7Zm20.7,7.421V758.7h-20.7V745.812h20.7ZM262.016,911.438h20.312v42.187l3.516,3.906a117.661,117.661,0,0,0,20.7-12.5l-1.563-7.422a97.711,97.711,0,0,1-14.843,9.766V911.438h13.671q10.157,30.468,40.235,42.968l4.687-8.2q-26.562-10.155-36.328-34.765h36.328v-7.422H290.141V868.469h-7.813v35.547H262.016v7.422Zm36.718-17.969,4.3,7.031a98.813,98.813,0,0,0,33.594-26.562l-6.25-5.079a101.149,101.149,0,0,1-31.641,24.61h0Zm73.828-21.875v43.359a63.144,63.144,0,0,1-11.328,36.719l6.641,5.078q12.5-19.921,12.5-41.8V879.016h48.437q0,50.39,5.079,67.968,3.123,9.766,10.156,9.766a7.114,7.114,0,0,0,6.25-3.711q2.343-3.711,3.515-16.6l-7.031-1.563q-0.392,13.673-2.734,13.672-2.736,0-4.688-13.281-2.734-20.313-2.734-63.672H372.562Zm33.594,37.89A189.2,189.2,0,0,0,390.922,892.3l-7.031,3.125a193.191,193.191,0,0,1,17.968,20.7,131.557,131.557,0,0,1-19.921,22.266l6.64,4.3a126.962,126.962,0,0,0,17.969-19.532q6.639,10.157,12.5,21.094l7.812-3.516a192.545,192.545,0,0,0-15.625-24.218,150.183,150.183,0,0,0,12.11-24.219l-6.641-3.516a103.594,103.594,0,0,1-10.547,20.7h0Zm74.61-36.328V904.8q0,17.578-4.883,28.32a45.293,45.293,0,0,1-14.258,17.774l5.469,6.64q11.326-8.985,16.406-20.312t5.078-28.516V880.578h30.078v66.8q0,5.859,2.149,7.617t11.914,1.758q11.326,0,14.453-3.906,3.516-4.687,4.3-18.75l-8.2-2.344q-0.391,12.11-2.149,14.648t-7.617,2.54q-4.687,0-5.859-.782a3.038,3.038,0,0,1-1.172-2.734V873.156h-45.7Zm100,58.594q-7.423,12.891-18.36,19.922l5.469,6.25q13.281-9.767,19.336-21.289t7.617-29.492h36.719q-0.782,32.421-2.539,37.109t-5.274,4.688a55.889,55.889,0,0,1-11.718-1.563l1.172,7.422a55.945,55.945,0,0,0,11.718,1.562q8.594,0,11.524-7.812t2.929-48.828h-44.14q0.78-8.2.781-18.75h53.906v-7.422H562.8v7.422h25.391Q588.188,918.861,580.766,931.75Zm90.625-13.672h31.64v10.156H669.047v7.422h33.984v10.938H663.188v7.422H750.3v-7.422H710.844V935.656h33.2v-7.422h-33.2V918.078h31.64V871.2H671.391v46.875Zm7.812-39.453h23.828v12.891H679.2V878.625Zm55.469,0v12.891H710.844V878.625h23.828ZM679.2,898.547h23.828v12.109H679.2V898.547Zm55.469,0v12.109H710.844V898.547h23.828Zm87.3,5.859,5.859,6.25a86.232,86.232,0,0,0,11.719-20.7h25.781a107.562,107.562,0,0,1-5.859,14.063l6.64,3.515q2.735-5.467,5.274-11.523a67.123,67.123,0,0,0,2.539-6.446v-7.031H842.289A127.818,127.818,0,0,0,846.2,869.25l-7.422-1.953q-5.859,21.874-16.8,37.109h0Zm18.164,26.367q-5.274,11.524-17.774,20.9l5.86,6.25q17.577-13.283,22.265-32.813,6.251,20.7,21.094,32.813l6.641-6.25q-13.673-9.765-19.532-23.438t-5.859-17.968l0.391-13.282-7.422-.781Q845.414,919.251,840.141,930.773Zm-49.8-54.1v65.234h7.422v-9.765h13.281v6.25h7.422V876.672H790.336Zm7.422,7.422h13.281v40.625H797.758V884.094Zm130.859-14.063a25.388,25.388,0,0,1,3.125,5.86H896.2v34.765a98.16,98.16,0,0,1-2.148,22.071,101.029,101.029,0,0,1-7.617,20.507l7.422,4.688q10.155-19.53,10.156-44.531V882.922H975.1v-7.031H940.336a34.249,34.249,0,0,0-3.906-8.2Zm-22.656,29.688h14.844v15.625h38.672V899.719H974.32v-6.641H959.477v-7.422h-7.422v7.422H928.227v-7.422h-7.422v7.422H905.961v6.641Zm22.266,8.984v-8.984h23.828V908.7H928.227Zm-18.36,19.922h5.078a63.511,63.511,0,0,0,16.407,16.016,148.724,148.724,0,0,1-29.688,6.64l4.688,7.031a157.347,157.347,0,0,0,33.2-8.984q13.671,7.422,35.937,8.2l2.344-7.812q-18.36-.782-28.906-5.078,12.5-7.032,19.14-16.8v-5.86h-58.2v6.641Zm46.875,0a53.8,53.8,0,0,1-16.406,12.109,50.77,50.77,0,0,1-15.625-12.109h32.031Zm35.547-47.656h35.941v28.125h-29.3v7.422h29.3v29.3H989.555v7.422h85.935v-7.422h-39.45v-29.3h30.08v-7.422h-30.08V880.969h36.33v-7.422H992.289v7.422Zm55.471,42.578a92.309,92.309,0,0,1,11.33,18.359l7.42-3.125a85.527,85.527,0,0,0-12.5-17.969Zm53.12-52.344a50.406,50.406,0,0,1,8.6,13.672l7.03-4.3a59.181,59.181,0,0,0-8.99-13.672Zm23.44,7.422h40.23v66.406q0,5.469-2.73,5.469a49.155,49.155,0,0,1-7.81-.781l1.95,8.2q4.3,0.39,7.42.39a8.257,8.257,0,0,0,6.64-2.734q2.355-2.735,2.35-8.2V871.594h-48.05v7.031Zm-31.64,79.3h7.81V885.656h-7.81v72.266Zm180.08,0.39,5.08-9.374q-28.92-7.422-39.07-28.516h34.38V913h-38.28q0.39-.39.39-17.969h34.37v-7.422h-20.31a79.611,79.611,0,0,0,8.98-16.8l-8.59-3.124a81.381,81.381,0,0,1-9.37,19.921h-43.75v7.422h30.86q0,14.454-.4,15.235V913H1191.9v7.422h33.98q-4.29,21.093-37.5,30.469l5.86,7.421q33.21-10.156,39.06-32.812,12.12,23.829,39.46,32.812h0Zm-65.63-85.937a68.087,68.087,0,0,1,8.21,13.672l6.64-3.906a59.811,59.811,0,0,0-8.6-13.672Z"/>
  <path id="大写字母" class="cls-3" d="M161.77,550.766l-18.915-51.61h-5.976L118,550.766h6.609l5.7-15.926h19.16l5.625,15.926h6.68Zm-29.356-21.727,5.1-14.906q0.21-.6.509-1.494t0.616-1.969q0.317-1.073.633-2.232t0.562-2.25q0.281,1.089.6,2.232t0.632,2.2q0.316,1.054.616,1.969t0.51,1.547l5.2,14.906H132.414Zm43.552,21.727h17.05a22.286,22.286,0,0,0,7-1.02,14.777,14.777,0,0,0,5.256-2.935,12.588,12.588,0,0,0,3.305-4.676,16.3,16.3,0,0,0,1.143-6.276,12.892,12.892,0,0,0-.914-5.132,9.711,9.711,0,0,0-2.5-3.5,11.77,11.77,0,0,0-3.709-2.18,25.56,25.56,0,0,0-4.552-1.213v-0.352a13.42,13.42,0,0,0,4.342-1.283,10.858,10.858,0,0,0,3.216-2.408,10,10,0,0,0,1.987-3.34,11.915,11.915,0,0,0,.685-4.078,14.35,14.35,0,0,0-1.16-6.1,9.625,9.625,0,0,0-3.463-4.007,15.9,15.9,0,0,0-5.73-2.215,40.766,40.766,0,0,0-7.928-.686H175.966v51.4Zm6.539-45.809h7.84q5.835,0,8.542,1.828t2.708,6.047a11.066,11.066,0,0,1-.545,3.639,5.857,5.857,0,0,1-1.776,2.6,8.171,8.171,0,0,1-3.234,1.565,19.835,19.835,0,0,1-4.957.527h-8.578V504.957Zm8.929,21.691a19.2,19.2,0,0,1,5.414.651,9.063,9.063,0,0,1,3.5,1.828,6.732,6.732,0,0,1,1.9,2.83,10.861,10.861,0,0,1,.58,3.621,12.926,12.926,0,0,1-.563,3.92,7.3,7.3,0,0,1-1.845,3.041,8.641,8.641,0,0,1-3.375,1.969,16.454,16.454,0,0,1-5.186.7h-9.351V526.648h8.929ZM254.673,505.2a30.9,30.9,0,0,1,4.817,1.934l2.742-5.485a24.769,24.769,0,0,0-6.223-2.25,33.02,33.02,0,0,0-7.242-.773,24.855,24.855,0,0,0-10.09,1.933,20.249,20.249,0,0,0-7.365,5.415,23.568,23.568,0,0,0-4.5,8.332A35.429,35.429,0,0,0,225.283,525a41,41,0,0,0,1.336,10.828,23.066,23.066,0,0,0,4.095,8.367,18.359,18.359,0,0,0,6.979,5.379,24.159,24.159,0,0,0,9.984,1.9q2.075,0,3.78-.123t3.2-.369a23.884,23.884,0,0,0,2.865-.651q1.371-.4,2.742-0.931v-5.7q-2.742.81-5.554,1.424a27.768,27.768,0,0,1-5.942.615,17.743,17.743,0,0,1-7.242-1.371,13.36,13.36,0,0,1-5.168-4.008,17.86,17.86,0,0,1-3.111-6.486,33.924,33.924,0,0,1-1.037-8.807,29.414,29.414,0,0,1,1.177-8.648,19.17,19.17,0,0,1,3.34-6.5,14.55,14.55,0,0,1,5.221-4.1,15.967,15.967,0,0,1,6.82-1.423A19.885,19.885,0,0,1,254.673,505.2Zm60.023,8.473a21.65,21.65,0,0,0-4.729-7.893,19.582,19.582,0,0,0-7.418-4.8,27.852,27.852,0,0,0-9.738-1.617H278.5v51.4H291.37a31.473,31.473,0,0,0,10.564-1.653,20.186,20.186,0,0,0,7.857-4.939,21.627,21.627,0,0,0,4.887-8.192,35.05,35.05,0,0,0,1.688-11.408A32.574,32.574,0,0,0,314.7,513.676Zm-9.967,26.332q-4.711,5.133-13.992,5.133h-5.7V504.957h7.067a21.384,21.384,0,0,1,7.347,1.178,13.507,13.507,0,0,1,5.45,3.6,16.049,16.049,0,0,1,3.375,6.17,30.163,30.163,0,0,1,1.16,8.877Q309.44,534.875,304.729,540.008ZM361.64,545H341.5V526.719H360.3v-5.7H341.5v-15.89H361.64v-5.766H334.956v51.4H361.64V545ZM386.7,529.039h18.809v-5.766H386.7v-18.14h20.145v-5.766H380.16v51.4H386.7V529.039Zm56.524,0.352h10.512v15.328q-0.915.175-1.881,0.369t-2.056.334q-1.09.141-2.373,0.228t-2.83.088a19.428,19.428,0,0,1-8.051-1.511,14.045,14.045,0,0,1-5.449-4.254,17.773,17.773,0,0,1-3.077-6.539,33.879,33.879,0,0,1-.966-8.368,29.8,29.8,0,0,1,1.16-8.648,18.254,18.254,0,0,1,3.392-6.5,14.667,14.667,0,0,1,5.537-4.1,19.042,19.042,0,0,1,7.594-1.423,21.83,21.83,0,0,1,3.252.246,30.73,30.73,0,0,1,3.182.65q1.547,0.4,3.006.932t2.724,1.125l2.531-5.7a30.3,30.3,0,0,0-6.679-2.25,35.475,35.475,0,0,0-7.488-.773,29.073,29.073,0,0,0-10.706,1.846,21.252,21.252,0,0,0-7.892,5.273,22.807,22.807,0,0,0-4.869,8.314A33.658,33.658,0,0,0,420.126,525a37.354,37.354,0,0,0,1.512,11.022,23.229,23.229,0,0,0,4.429,8.332,19.429,19.429,0,0,0,7.172,5.273,24.346,24.346,0,0,0,9.774,1.846q2.636,0,4.921-.176t4.36-.51q2.073-.333,4.043-0.826t3.9-1.125V523.625H443.223v5.766ZM516.1,499.367h-6.539v21.656H486.142V499.367H479.6v51.4h6.539V526.789h23.414v23.977H516.1v-51.4Zm35.712,47.813-6.047-1.442V504.4l6.047-1.442v-3.586H533.174v3.586l6.047,1.442v41.343l-6.047,1.442v3.586h18.633V547.18Zm14.776,16.4a11.575,11.575,0,0,0,4.43-2.637,12.142,12.142,0,0,0,2.883-4.482,17.878,17.878,0,0,0,1.037-6.4V499.367h-6.574v51.4a10,10,0,0,1-.668,3.937,6.292,6.292,0,0,1-1.741,2.426,6.105,6.105,0,0,1-2.39,1.213,10.664,10.664,0,0,1-2.619.334,21.187,21.187,0,0,1-2.954-.194,22.106,22.106,0,0,1-2.566-.509V563.6a11.968,11.968,0,0,0,2.32.615,18.83,18.83,0,0,0,3.129.228A17.987,17.987,0,0,0,566.583,563.58Zm44.765-41.818,18.281-22.395h-7.348l-15.89,19.793-4.254,5.906v-25.7H595.6v51.4h6.539V530.234l4.886-4.007,15.856,24.539H630.3Zm59.829,29V544.93H651.032V499.367h-6.539v51.4h26.684Zm42.5,0,15.715-44.93h0.282q-0.106,2.567-.247,5.062-0.105,2.145-.175,4.5t-0.071,4.184v31.184h6.539v-51.4h-9.7l-14.554,41.906h-0.211l-14.485-41.906h-9.7v51.4h6.047V520.039q0-2-.088-4.447t-0.228-4.658q-0.141-2.567-.352-5.168h0.281l15.575,45h5.378Zm81.732-51.4h-6.118v28.125q0,0.915.018,2t0.053,2.285l0.14,2.321q0.034,1.2.071,2.32,0.14,2.6.246,5.273h-0.246L764.4,499.367h-7.488v51.4h6.046V522.887q0-2-.087-4.5t-0.229-4.782q-0.141-2.67-.352-5.378h0.282l25.277,42.539h7.559v-51.4Zm61.745,14.748a23.523,23.523,0,0,0-4.237-8.332,18.926,18.926,0,0,0-6.943-5.344,22.927,22.927,0,0,0-9.58-1.88,24.281,24.281,0,0,0-9.949,1.88,18.518,18.518,0,0,0-7,5.327,22.584,22.584,0,0,0-4.114,8.314,44.835,44.835,0,0,0,0,21.727,23.077,23.077,0,0,0,4.1,8.384,18.391,18.391,0,0,0,6.961,5.379,23.942,23.942,0,0,0,9.932,1.9,22.967,22.967,0,0,0,9.615-1.9,18.915,18.915,0,0,0,6.978-5.379,23.683,23.683,0,0,0,4.237-8.367A42.11,42.11,0,0,0,857.15,514.115Zm-35.315,2.2a18.343,18.343,0,0,1,2.813-6.486,12.654,12.654,0,0,1,4.816-4.078,15.645,15.645,0,0,1,6.926-1.424,15.414,15.414,0,0,1,6.89,1.424,12.464,12.464,0,0,1,4.747,4.078,18.3,18.3,0,0,1,2.742,6.486,43.247,43.247,0,0,1,0,17.35,18.454,18.454,0,0,1-2.76,6.539,12.449,12.449,0,0,1-4.781,4.113,17.47,17.47,0,0,1-13.817,0,12.449,12.449,0,0,1-4.781-4.113,18.911,18.911,0,0,1-2.795-6.539A41.625,41.625,0,0,1,821.835,516.312Zm85.142-8.3a11.48,11.48,0,0,0-3.27-4.729,14.889,14.889,0,0,0-5.625-2.918,29.02,29.02,0,0,0-8.121-1H877.234v51.4h6.539v-20h5.274a25.917,25.917,0,0,0,8.982-1.354,15.663,15.663,0,0,0,5.854-3.621,13.316,13.316,0,0,0,3.181-5.221,19.627,19.627,0,0,0,.967-6.152A18.134,18.134,0,0,0,906.977,508.016Zm-23.2-3.059H889.4q6.118,0,9,2.408t2.883,7.4a12.836,12.836,0,0,1-.808,4.834,7.7,7.7,0,0,1-2.409,3.234,10.2,10.2,0,0,1-4.043,1.811,25.68,25.68,0,0,1-5.712.562h-4.536v-20.25Zm82.7,9.158a23.5,23.5,0,0,0-4.236-8.332,18.934,18.934,0,0,0-6.943-5.344,22.93,22.93,0,0,0-9.58-1.88,24.289,24.289,0,0,0-9.95,1.88,18.534,18.534,0,0,0-7,5.327,22.6,22.6,0,0,0-4.113,8.314,44.835,44.835,0,0,0,0,21.727,23.077,23.077,0,0,0,4.1,8.384,18.383,18.383,0,0,0,6.961,5.379,23.941,23.941,0,0,0,9.931,1.9q0.633,0,1.354-.035t1.318-.106a27.628,27.628,0,0,0,4.834,7.945,38.038,38.038,0,0,0,6.662,6.047l4.254-4.992a33.123,33.123,0,0,1-5.572-4.623,20.894,20.894,0,0,1-3.92-5.818,18.881,18.881,0,0,0,5.766-3.657,20.347,20.347,0,0,0,4.166-5.5,28.2,28.2,0,0,0,2.531-7.155A40.465,40.465,0,0,0,967.9,525,38.7,38.7,0,0,0,966.471,514.115Zm-35.314,2.2a18.36,18.36,0,0,1,2.812-6.486,12.665,12.665,0,0,1,4.817-4.078,15.645,15.645,0,0,1,6.926-1.424,15.414,15.414,0,0,1,6.89,1.424,12.453,12.453,0,0,1,4.746,4.078,18.319,18.319,0,0,1,2.743,6.486,43.3,43.3,0,0,1,0,17.35,18.491,18.491,0,0,1-2.76,6.539,12.449,12.449,0,0,1-4.781,4.113,17.47,17.47,0,0,1-13.817,0,12.442,12.442,0,0,1-4.781-4.113,18.911,18.911,0,0,1-2.795-6.539A41.625,41.625,0,0,1,931.157,516.312Zm69.923,13.219,12.34,21.235h7.69l-13.99-23.028a21.615,21.615,0,0,0,3.76-1.793,13.381,13.381,0,0,0,3.26-2.724,12.63,12.63,0,0,0,2.28-3.92,14.992,14.992,0,0,0,.86-5.344q0-7.347-4.46-10.969T999,499.367H986.486v51.4h6.539V529.531h8.055Zm-8.055-24.574h5.625a24.013,24.013,0,0,1,5.29.51,9.354,9.354,0,0,1,3.69,1.635,6.871,6.871,0,0,1,2.18,2.882,11.334,11.334,0,0,1,.72,4.289,12.368,12.368,0,0,1-.65,4.237,6.959,6.959,0,0,1-2.07,3.023,9.375,9.375,0,0,1-3.64,1.828,20.321,20.321,0,0,1-5.379.616h-5.766v-19.02Zm69.375,26.824a11.377,11.377,0,0,0-2.44-3.9,16.812,16.812,0,0,0-4.03-3.024,48.057,48.057,0,0,0-5.61-2.6c-1.97-.774-3.62-1.506-4.97-2.2a13.7,13.7,0,0,1-3.25-2.215,6.853,6.853,0,0,1-1.76-2.637,10.233,10.233,0,0,1-.53-3.463,6.654,6.654,0,0,1,2.36-5.361,10,10,0,0,1,6.64-1.986,23.809,23.809,0,0,1,6,.755,33.472,33.472,0,0,1,5.18,1.776l2.36-5.485a30.279,30.279,0,0,0-5.95-2.021,32.675,32.675,0,0,0-7.52-.791,21,21,0,0,0-6.24.879,14.252,14.252,0,0,0-4.87,2.549,11.425,11.425,0,0,0-3.16,4.095,12.982,12.982,0,0,0-1.13,5.52,17.78,17.78,0,0,0,.72,5.273,12.15,12.15,0,0,0,2.22,4.149,15.475,15.475,0,0,0,3.8,3.287,31.718,31.718,0,0,0,5.43,2.689q3.27,1.3,5.41,2.409a15.9,15.9,0,0,1,3.43,2.285,6.6,6.6,0,0,1,1.79,2.584,9.687,9.687,0,0,1,.51,3.3,7.238,7.238,0,0,1-2.69,6.047q-2.685,2.109-8.31,2.11a24.3,24.3,0,0,1-3.55-.264,35.119,35.119,0,0,1-3.48-.686c-1.13-.281-2.2-0.6-3.22-0.966s-1.93-.733-2.73-1.108v6.258a20.07,20.07,0,0,0,5.68,1.811,41.064,41.064,0,0,0,7.3.615,25.348,25.348,0,0,0,7.27-.967,15.383,15.383,0,0,0,5.49-2.83,12.514,12.514,0,0,0,3.46-4.553,14.66,14.66,0,0,0,1.21-6.1A15.014,15.014,0,0,0,1062.4,531.781Zm33.3-26.648h14.66v-5.766h-35.93v5.766h14.7v45.633h6.57V505.133Zm59.83-5.836v33.469a19.181,19.181,0,0,1-.74,5.238,11.3,11.3,0,0,1-2.14,4.113,9.551,9.551,0,0,1-3.69,2.672,13.82,13.82,0,0,1-5.38.949q-6.15,0-9.2-3.375-3.03-3.375-3.04-9.527V499.367h-6.57v33.117a24.154,24.154,0,0,0,1.19,7.787,16.425,16.425,0,0,0,3.54,6,15.58,15.58,0,0,0,5.78,3.849,21.669,21.669,0,0,0,7.95,1.354,21.911,21.911,0,0,0,8.31-1.442,16.126,16.126,0,0,0,5.87-3.972,16.344,16.344,0,0,0,3.5-5.977,23.308,23.308,0,0,0,1.16-7.453V499.3h-6.54Zm43.87,32.449q-1.1,3.411-1.9,6.381c-0.54,1.981-.98,3.838-1.34,5.572-0.39-1.734-.84-3.591-1.33-5.572s-1.08-4.037-1.76-6.17l-10.37-32.59h-6.93l17.13,51.4h6.57l17.19-51.4h-6.96Zm44.99-2.215c-0.3,1.149-.59,2.373-0.86,3.674s-0.52,2.584-.76,3.85-0.43,2.473-.61,3.621-0.32,2.156-.44,3.023q-0.18-1.335-.42-2.935c-0.17-1.067-.35-2.174-0.55-3.323s-0.41-2.3-.65-3.462-0.49-2.28-.77-3.358l-7.84-31.254h-6.93l13.57,51.4h6.61L1253.25,518q0.495-1.9.93-3.867c0.3-1.313.56-2.519,0.79-3.621q0.39-1.933.78-3.727c0.26,1.219.52,2.473,0.81,3.762q0.375,1.653.84,3.551c0.3,1.265.62,2.5,0.95,3.691l8.93,32.977h6.61l12.9-51.4h-7l-7.03,31.008c-0.25,1.149-.5,2.326-0.72,3.533s-0.43,2.391-.61,3.551-0.35,2.268-.49,3.322-0.26,2.028-.36,2.918q-0.21-1.335-.54-2.988c-0.22-1.1-.48-2.268-0.77-3.5s-0.61-2.5-.95-3.815-0.69-2.624-1.04-3.937l-8.05-30.094h-6.93Zm73.65-5.836,14.8-24.328h-6.68l-11.74,19.653-11.68-19.653h-6.96l14.84,24.539-15.93,26.86h6.61l12.91-22.325,12.44,22.325h7.42Zm30.37-24.328h-7.14l15.68,31.746v19.653h6.57v-20l15.68-31.395h-7.03l-11.95,25.981Zm73.92,45.563h-25.7l24.96-40.465v-5.1h-31.6V505.2h24.29l-24.99,40.465v5.1h33.04V544.93Z"/>
  <path id="logo" class="cls-1" d="M706.266,1194.7a45.969,45.969,0,0,0-.118,5.15v5.16H677.555v-1.17l0.234-.94-1.406-.24c-1.1,0-2.659-.07-4.688-0.23h-3.281l-0.469,2.58a45.646,45.646,0,0,1-1.172,4.92,22.619,22.619,0,0,1-1.406,4.22,7.125,7.125,0,0,0-.82,2.23,6.584,6.584,0,0,0,2.109-.71c1.326-.54,2.615-1.13,3.867-1.76a11.566,11.566,0,0,0,3.516-2.81l1.641-1.64h66.8l1.875,1.88a14.477,14.477,0,0,0,3.75,2.81c1.406,0.62,2.655,1.17,3.75,1.64a1.036,1.036,0,1,0,1.171-1.17,17.1,17.1,0,0,1-1.406-3.99q-0.7-2.34-1.172-4.68a11.9,11.9,0,0,0-.7-3.05c0-.47-1.252-0.62-3.75-0.47-1.875.16-3.281,0.23-4.219,0.23a2.052,2.052,0,0,1-.937.24c-0.315,0-.469.31-0.469,0.94l0.235,0.93-13.594.24q-13.359,0-13.36-.24a2.838,2.838,0,0,1,.7-1.05,6.664,6.664,0,0,0,1.171-2.46,15.728,15.728,0,0,0,.469-4.22v-2.58h-4.687Q706.382,1194.46,706.266,1194.7Zm-31.289,28.12v4.22l21.093,0.23h21.094l-5.859,4.93q-5.4,4.215-8.2,6.56l-2.344,1.87v6.8H660.445v4.22h40.313v14.76c0,10.01-.158,15.47-0.469,16.41a13.152,13.152,0,0,1-1.172,3.05,21,21,0,0,1-2.578,3.04,16.962,16.962,0,0,1-3.75,2.82c-1.406.62-2.109,1.17-2.109,1.64s0.153,0.7.468,0.7a30.375,30.375,0,0,0,3.047-.47,34.353,34.353,0,0,0,4.922-1.4,16.4,16.4,0,0,0,4.688-1.88,11.74,11.74,0,0,0,3.515-2.34,12.264,12.264,0,0,0,2.344-2.58,13,13,0,0,0,1.172-2.58c0.311-.94.469-6.4,0.469-16.41v-14.76h38.2v-4.22h-38.2v-6.8l2.109-1.64q2.109-1.635,8.438-6.79,6.327-5.4,8.437-7.04a13.637,13.637,0,0,0,2.578-2.34q0-.225-28.828-0.23t-29.062.23h0Zm121.64-30.23-0.469,1.87a27.635,27.635,0,0,1-1.523,5.74c-0.861,2.43-1.681,4.65-2.461,6.68q-1.176,2.58-3.281,6.8-1.88,3.75-4.453,8.44-2.11,3.75-4.688,7.73-2.582,4.215-3.047,4.92a7.818,7.818,0,0,0-1.406,2.11c-0.157.47-.117,0.71,0.117,0.71a8.252,8.252,0,0,0,2.227-1.18q1.873-1.17,3.515-2.34,1.874-1.41,3.985-3.28a59.714,59.714,0,0,0,4.453-4.45l2.109-2.35,0.235,14.77,0.234,14.76h1.875a5.862,5.862,0,0,0,3.047-.7,5.457,5.457,0,0,0,1.875-1.17,11.374,11.374,0,0,0,1.406-1.64l0.469-.71h27.187v2.11l0.235,2.11h1.64a7.437,7.437,0,0,0,2.813-.47,9.072,9.072,0,0,0,2.109-1.17,4.666,4.666,0,0,0,1.407-1.64l0.7-.94h31.64v-4.45H838.336v-6.8H868.57v-4.45H838.336v-6.8H868.57v-4.68H838.336v-7.5H868.57v-4.69H837.164l0.938-1.17a23.668,23.668,0,0,0,1.406-2.35,6.445,6.445,0,0,0,.7-2.57,17.74,17.74,0,0,0,.469-4.93v-3.51H828.727v14.53H815.6q-13.129,0-13.125-.23c0-.16-0.158-0.24-0.469-0.24s0.311-1.41,1.875-4.22a69.182,69.182,0,0,0,3.281-7.5,16.732,16.732,0,0,0,1.406-3.98l0.235-1.17H796.617Zm31.406,22.03v7.5H802.477v-7.5h25.546Zm0,12.18v6.8H802.477v-6.8h25.546Zm0,11.25v6.8H802.477v-6.8h25.546Zm-3.515,16.88v5.16l-22.969.23H778.805v4.45h45.7v1.64c0,1.1-.081,1.64-0.235,1.64a40.222,40.222,0,0,1-4.687-1.17q-4.455-1.17-4.922-1.4-0.236,0-6.328,4.68-6.1,4.935-7.734,6.1-1.643.93-4.454,2.58a58.967,58.967,0,0,1-5.39,2.57q-2.812,1.185-5.391,2.23a35.226,35.226,0,0,1-5.859,1.76,17.416,17.416,0,0,0-3.047,1.05,6.06,6.06,0,0,0,1.289,1.06,3.994,3.994,0,0,0,1.992.94c0.469,0,2.344-.32,5.625-0.94s6.328-1.33,9.141-2.11q4.449-1.17,8.2-2.35a22.822,22.822,0,0,0,4.922-2.1q1.637-.945,9.14-6.1t7.618-5.04q0.115,0.12.117,13.48v13.12h1.406a7.357,7.357,0,0,0,2.813-.7,6.692,6.692,0,0,0,3.046-1.99,11.184,11.184,0,0,0,2.11-3.17,8.733,8.733,0,0,0,.586-2.34q0.115-1.17.117-6.33c0.154-4.68.271-7.11,0.352-7.26s1.442,0.55,4.1,2.11q3.982,2.1,6.8,3.51a34.945,34.945,0,0,0,6.328,2.58,54.282,54.282,0,0,0,6.328,1.64,52.974,52.974,0,0,0,5.625.94c1.718,0.16,4.219.23,7.5,0.23a38.521,38.521,0,0,0,5.86-.23,1.37,1.37,0,0,0,1.171-.94l0.235-1.17c0-.15-0.235-0.24-0.7-0.24-0.315,0-1.722-.23-4.219-0.7s-5-1.01-7.5-1.64q-3.516-.93-6.8-2.11-2.812-.93-5.625-2.11-2.346-1.17-10.078-6.33l-7.734-5.15,19.453-.24h19.453v-4.45H854.977l-20.157-.23v-2.58l-0.234-2.58H824.508Z"/>
</svg>
