<svg xmlns="http://www.w3.org/2000/svg" width="400" height="200" viewBox="0 0 400 200">
  <defs>
    <style>
      .cls-1 {
        fill: #fdfdfd;
        fill-rule: evenodd;
      }
    </style>
  </defs>
  <path id="新叶念体" class="cls-1" d="M99.109,71.227q0,1.971,2.813,1.969h6.187q3.936,0,3.938-2.531a4.241,4.241,0,0,1-1.688-.562l-1.125.281a13.626,13.626,0,0,1-1.687-.281,2.735,2.735,0,0,0-1.406.563,27.637,27.637,0,0,1-4.782-1.125c-1.5.189-2.25,0.751-2.25,1.688h0Zm1.125,9.844q-4.785,1.411-4.781,2.813,0.56,1.971,1.125,1.969a9.34,9.34,0,0,0,3.656-.844l3.375-1.969h0.282V83.32q-0.844,2.815-2.532,7.875-0.567,7.594-1.125,8.156-3.658,1.688-3.656,2.531a2.965,2.965,0,0,0,1.406,1.969,9.069,9.069,0,0,0,3.657-1.407,16.513,16.513,0,0,1,3.656-1.406q-6.19,5.346-6.188,5.625-3.942,2.816-9.562,6.188-3.942,1.41-3.937,3.093,0,0.845,1.688,1.407a81.917,81.917,0,0,0,8.156-2.532,0.83,0.83,0,0,1,.563.282q1.688,6.75,5.062,6.75a4.684,4.684,0,0,0,1.969-1.407v-0.562a8.338,8.338,0,0,0-1.969-2.25q-0.567-3.936-1.406-4.5l4.5-2.25q0.56,0,.562,3.937v2.532l-0.281.281a0.25,0.25,0,0,1,.281.281v4.5a2.513,2.513,0,0,1-.281,1.125,1.729,1.729,0,0,0,1.969,1.406q1.963,0,2.812-5.625l-0.281-1.125,0.281-1.687a12.176,12.176,0,0,0-.281-1.969,4.682,4.682,0,0,0,.281-1.406,12.176,12.176,0,0,0-.281-1.969,2.513,2.513,0,0,0,.281-1.125q0-1.4,8.157-5.062a4.783,4.783,0,0,0,.281,1.968l-0.563,3.938q-1.41-2.532-3.656-2.531a2.015,2.015,0,0,0-1.969,1.125,20.27,20.27,0,0,0,3.657,5.062c1.309,0,1.968-.562,1.968-1.687v-1.407a1.633,1.633,0,0,1,1.125.563,1.148,1.148,0,0,1,.844-0.281q0.561-.278,1.688-4.782l-0.282-1.125a1.144,1.144,0,0,1,.282-0.843l-0.282-.563q0.844-1.687.844-7.312V94.008q-0.567-3.652-1.687-3.656V90.07q0-.844,6.75-7.875,3.091-2.248,3.093-3.094c0-1.31-.562-1.969-1.687-1.969l-0.281.281V77.133h-0.844q-2.255,2.815-2.813,2.813-2.254,3.1-2.531,3.094-4.218,6.19-5.625,8.156v0.281l1.688,1.688v0.844l-0.282.563a0.251,0.251,0,0,1,.282.281v5.906q0,1.127-7.875,4.219c-0.378,0-.563-0.093-0.563-0.282v-1.968a5.406,5.406,0,0,1,1.125-2.532,9.419,9.419,0,0,0,3.656-4.781c0-.562-0.94-0.844-2.812-0.844h-0.844V94.008q3.936-4.779,4.219-6.75a1.442,1.442,0,0,0-1.406-.562h-0.844a1.637,1.637,0,0,0-1.125.281,29.717,29.717,0,0,1-5.063,6.469h-1.125q0-3.092,3.094-9.562,3.653-5.906,3.656-6.469a0.906,0.906,0,0,0-.562-0.844,36.373,36.373,0,0,0-10.688,4.5h0Zm34.032,6.188a17.152,17.152,0,0,0-4.219,2.25Q123.3,91.2,123.3,92.32v0.563q1.4,1.971,2.25,1.969a19.476,19.476,0,0,1,3.375-.844H129.2q-0.843,11.252-1.125,21.937l0.281,0.563a11.757,11.757,0,0,0-.281,2.812v0.563a40.851,40.851,0,0,0,.281,4.5,6.771,6.771,0,0,0-.843,2.25v0.281l0.843,0.281c1.125,0,1.872-.94,2.25-2.812l-0.562-.563q1.121-1.4,1.687-6.468l-0.562-.844q0.559-4.5,1.125-7.031a23.478,23.478,0,0,1-.281-2.532q0.56-10.4,1.125-13.5a2.938,2.938,0,0,0-.563-1.125A2.811,2.811,0,0,1,133.7,91.2a30.284,30.284,0,0,0,5.344-3.937q-0.567-2.248-1.688-2.25a8.775,8.775,0,0,0-3.093,2.25h0Zm-30.657,18.281h0.844v1.406q0,0.845-3.094,1.688a0.794,0.794,0,0,1-.562-0.281,9.609,9.609,0,0,1,2.812-2.813h0Zm83.532-22.781v1.969q-0.567,1.127-3.094,1.688-11.537,3.658-11.531,5.063v0.563l1.687,2.25a2.925,2.925,0,0,0,1.688-.281q9.281-3.652,10.687-3.656l0.281,1.125-0.281,2.813q0,1.688.281,6.469-1.41,19.972-1.406,22.781,1.4,3.653,2.531,3.656a2.379,2.379,0,0,0,1.969-1.406q0-8.715,1.688-37.125V87.82q5.622-3.652,5.625-4.781c0-1.31-.752-1.969-2.25-1.969a4.631,4.631,0,0,1-3.375,1.969V81.633q0-3.092.281-8.156a2.663,2.663,0,0,0-2.813-2.25q-1.971,1.971-1.968,11.531h0ZM147.766,87.82q0.843,3.1,3.937,15.75,1.688,6.191,4.5,7.594h0.281a1.6,1.6,0,0,0,1.125-1.125q-3.375-15.464-4.218-17.719-1.412-6.75-2.813-6.75-2.814,0-2.812,2.25h0Zm16.593-.562q-9.564.567-9.562,1.688V90.07q2.531,1.971,3.375,1.969h1.406l7.875-1.125h0.563q0,3.1-3.938,7.031-3.942,7.594-5.906,9.563,0,1.127,2.812,2.531,5.624-2.808,5.625-7.594a90.149,90.149,0,0,0,5.907-13.218q0-2.248-3.094-2.812h-0.281q-4.787,0-4.782.844h0ZM225.391,74.32q0,1.411-2.25,7.594,0,0.844-3.657,6.188a90.268,90.268,0,0,1-12.656,12.937v0.844c0,0.378.466,0.751,1.406,1.125q3.091-.561,9.563-7.875,4.779-5.623,6.75-8.156,2.808-3.935,5.062-13.781,0-1.687-2.25-1.687c-0.94,0-1.595.94-1.968,2.813h0Zm1.125,9v1.125q0,1.127,11.531,3.656a0.812,0.812,0,0,1,.562-0.281q1.4,0.567,6.469.563a3.308,3.308,0,0,0,3.375-2.531,7.619,7.619,0,0,0-1.969-1.406,7.76,7.76,0,0,1-1.687.563q-3.375,0-16.313-2.531Zm-1.407,9.563a1.513,1.513,0,0,1,1.125.844A25.9,25.9,0,0,1,231.3,95.7H232.7a4.968,4.968,0,0,1,.563-2.25,7.523,7.523,0,0,0-6.188-3.375c-1.314,0-1.969.94-1.969,2.813h0Zm3.938,5.906q-7.594,1.127-7.594,3.375,2.249,1.971,2.813,1.969l12.375-3.656h-2.25q-1.412,2.814-1.969,2.812-1.687,3.375-9.844,9.281-4.218.284-4.219,1.688t4.782,3.375q6.75,5.346,9.281,5.906,1.4,1.41,7.875,2.25v-0.281l1.125,0.281a27.16,27.16,0,0,0,9.844-2.25q2.808,0,4.218-3.937-5.906-5.624-7.593-5.625h-2.25v1.406q3.651,3.942,3.656,4.5,0,0.284-6.469,1.969h-3.094a13.64,13.64,0,0,0-4.218-1.125,55.248,55.248,0,0,1-10.688-6.469,49.365,49.365,0,0,0,4.219-3.094q11.246-8.715,11.25-12.937a5.857,5.857,0,0,0-2.25-1.125,35.85,35.85,0,0,0-9,1.688h0Zm20.25,7.031v1.125q2.808,2.255,4.781,2.25h0.281a1.839,1.839,0,0,0,1.407-1.687q0-1.687-3.375-3.094a4.3,4.3,0,0,0-3.094,1.406h0Zm-15.188,5.344q0.278,1.971,2.813,1.969H237.2a7.422,7.422,0,0,0,4.781-2.25,2.024,2.024,0,0,0-1.125-1.969h-1.125a2.3,2.3,0,0,1-1.406.844,3.471,3.471,0,0,0-1.969-.844c-1.5.563-2.25,1.314-2.25,2.25h0Zm-20.812.563q0.559,0,.844,3.093v0.563l-2.25,10.406,1.125,0.563h0.843q1.12-.284,3.938-5.907h-0.563a31.2,31.2,0,0,0,1.125-6.187q0-5.062-2.531-5.063-1.41,0-2.531,2.532h0Zm84.094-39.375q-1.687,7.594-2.813,9.844-4.5,3.1-4.5,3.656-5.346,4.786-5.344,5.906v0.281q0,0.844,1.688,1.406c0,0.378.373,0.189,1.125-.562q4.779-4.219,5.344-4.219-1.687,6.75-7.032,18l0.282,1.125-0.282,1.969q0.561,1.688,1.688,1.687,13.5-5.338,14.625-5.343c0.373,0,.562.1,0.562,0.281a19.675,19.675,0,0,1-.843,4.781l0.562,1.125q-0.283,3.375-1.125,4.219h0.563l-0.282,2.531V122.7a38.228,38.228,0,0,1-1.125,5.344q0,0.845,3.657,1.688v-0.563q1.688,0,2.25-21.375a2.122,2.122,0,0,1-.282-0.844q0-2.53,1.688-3.093,7.309-1.122,7.312-3.375a9.924,9.924,0,0,0-1.968-1.969L307.8,99.914l-0.281-.281c-0.189,0-.378-0.562-0.563-1.687l0.281-1.125-0.843-1.406V94.852a10.941,10.941,0,0,0,2.25-2.812V91.477q0-2.531-7.594-3.375a7.489,7.489,0,0,1-3.375.844h-0.281V88.383a12.825,12.825,0,0,0,1.125-3.937q5.622-4.5,5.625-5.344c-0.189-1.31-.563-1.969-1.125-1.969h-1.125a2.264,2.264,0,0,1-1.688,1.125c0-.562.092-2.153,0.281-4.781-0.378-.936-0.843-1.406-1.406-1.406a5.388,5.388,0,0,0-1.687.281h0ZM282.766,74.6q-1.971,4.786-7.875,13.5-6.75,9.281-6.75,9.563-3.1,3.375-3.094,5.063v0.843h1.125a7.03,7.03,0,0,0,2.812-1.687q3.375-5.623,4.782-5.625l1.125,2.531-0.282,1.688q0,1.126.282,3.656l-0.282,19.125,0.563,3.094H276.3q1.963,0,2.812-22.5a0.248,0.248,0,0,1-.281-0.282v-3.093a17.335,17.335,0,0,0-.562-2.25V97.945l0.281-1.125q-1.412-4.5-1.969-5.062V91.477q9.842-14.06,9.844-16.312l-2.813-1.125c0,0.378-.281.563-0.843,0.563h0Zm14.906,17.438c0.747,0,1.125-.092,1.125-0.281l1.687,0.563,0.563-.562c1.872,0,2.812.1,2.812,0.281v0.844a20.962,20.962,0,0,1-2.531,3.375q-9.564,9.564-11.812,9.844h-0.563v2.25a93.385,93.385,0,0,1,7.031-16.875,8.036,8.036,0,0,1,1.688.563h0Zm5.062,6.469V97.945c0.374,0,.563.1,0.563,0.281v1.688q0,1.687-4.219,2.25l-0.281-.281q0.843,0,3.937-3.375h0Z"/>
</svg>
