<svg xmlns="http://www.w3.org/2000/svg" width="400" height="200" viewBox="0 0 400 200">
  <defs>
    <style>
      .cls-1 {
        fill: #fdfdfd;
        fill-rule: evenodd;
      }
    </style>
  </defs>
  <path id="cwTeX_中仿宋體" data-name="cwTeX 中仿宋體" class="cls-1" d="M51.641,101.555a2.432,2.432,0,0,0,1.641.562,1.855,1.855,0,0,0,1.453-.633A2.41,2.41,0,0,0,55.3,99.82a4.176,4.176,0,0,0-1.969-3.445,8.406,8.406,0,0,0-5.062-1.43,9.589,9.589,0,0,0-7.5,3.258,11.139,11.139,0,0,0-2.906,7.664,10.567,10.567,0,0,0,1.594,5.578,9.07,9.07,0,0,0,3.633,3.61,10.3,10.3,0,0,0,5.133,1.359,7.347,7.347,0,0,0,5.414-2.18q2.18-2.179,2.18-3.867a0.6,0.6,0,0,0-.375-0.492,0.509,0.509,0,0,0-.7.211l-0.281.8a7.61,7.61,0,0,1-1.945,2.906,5.431,5.431,0,0,1-3.867,1.453,6.405,6.405,0,0,1-3.094-.844l-0.656-.468q-3.048-2.532-3.047-7.828a16.891,16.891,0,0,1,.633-4.922,7.38,7.38,0,0,1,1.664-3.094,7.182,7.182,0,0,1,2.063-1.5,5.053,5.053,0,0,1,2.109-.469A7.461,7.461,0,0,1,53.188,97.8a2.13,2.13,0,0,0-2.2,2.3A1.823,1.823,0,0,0,51.641,101.555Zm17.766,13.781,4.641-13.031h0.047a0.186,0.186,0,0,0,.047.14l4.594,12.891a1.255,1.255,0,0,0,1.031,1.078,1.486,1.486,0,0,0,1.031-1.172q0.234-.562,2.883-8.039t2.789-7.711a3.856,3.856,0,0,1,3.656-2.3V95.742q-1.969.141-3.891,0.141t-3.844-.141V97.2a3.991,3.991,0,0,1,.914.117,2.923,2.923,0,0,1,1.1.609,1.718,1.718,0,0,1,.656,1.289,2.745,2.745,0,0,1-.047.656l-4.406,12.469H80.563a1.447,1.447,0,0,1-.094-0.258,1.022,1.022,0,0,1-.047-0.211L76.016,99.492a4.515,4.515,0,0,1-.281-0.82,1.579,1.579,0,0,1,.07-0.68,0.984,0.984,0,0,1,.773-0.609,7.219,7.219,0,0,1,1.875-.187V95.742q-2.626.141-4.875,0.141t-4.219-.141V97.2h0.328a3.827,3.827,0,0,1,2.531.563,4.906,4.906,0,0,1,.727,1.43,6.066,6.066,0,0,1,.445,1.43v0.047L69.453,111.68l-0.094-.188L65.047,99.4a3.813,3.813,0,0,1-.234-0.75,1.541,1.541,0,0,1,.07-0.68,1.012,1.012,0,0,1,.8-0.586,7.265,7.265,0,0,1,1.852-.187V95.742q-2.766.141-5.109,0.141t-4.406-.141V97.2a6.118,6.118,0,0,1,2.461.328,2.814,2.814,0,0,1,1.1,1.594L67.344,115.2a1.481,1.481,0,0,0,.281.727,0.951,0.951,0,0,0,.7.492,1.358,1.358,0,0,0,1.078-1.078h0ZM99.031,115.9q3.8-.139,8.25-0.14t9.516,0.14v-1.453a26.11,26.11,0,0,1-5.789-.351q-1.01-.352-1.008-2.321V87.539a2.626,2.626,0,0,1,.281-1.43,1.721,1.721,0,0,1,1.266-.492h2.672q4.359,0,5.953,1.734,1.311,1.313,1.781,7.359h1.172q-0.236-2.343-.891-10.547H93.594q-0.657,8.2-.891,10.547h1.172q0.422-5.578,1.875-7.336t5.859-1.758h0.844a6.328,6.328,0,0,1,3.094.469,3.485,3.485,0,0,1,.281,1.828v23.859a2.975,2.975,0,0,1-.4,1.829,2.737,2.737,0,0,1-1.664.656,38.773,38.773,0,0,1-4.735.187V115.9Zm43.008-18.445a7.725,7.725,0,0,0-6.07-2.555,9.267,9.267,0,0,0-4.594,1.266,9.611,9.611,0,0,0-3.82,3.914,11.171,11.171,0,0,0-1.43,5.461,11.3,11.3,0,0,0,.563,3.516,11.58,11.58,0,0,0,.96,2.015,16.857,16.857,0,0,0,1.735,2.368,8.46,8.46,0,0,0,2.906,2.132,9.676,9.676,0,0,0,7.688.094,6.715,6.715,0,0,0,2.531-1.828,10.417,10.417,0,0,0,1.312-2.016,3.809,3.809,0,0,0,.446-1.547,0.769,0.769,0,0,0-.094-0.328,0.547,0.547,0,0,0-.984.141q-1.689,5.157-6.563,5.156a6.482,6.482,0,0,1-4.5-2.25q-2.016-2.484-2.016-7.922h13.079a1.65,1.65,0,0,0,.937-0.164,0.987,0.987,0,0,0,.187-0.726A9.746,9.746,0,0,0,142.039,97.453Zm-1.008,4.664,0.094,1.078a4.873,4.873,0,0,0,.047.891H130.156a9.537,9.537,0,0,1,1.688-5.836,4.924,4.924,0,0,1,4.031-2.273,4.417,4.417,0,0,1,2.508.7,4.306,4.306,0,0,1,1.57,1.852,15.945,15.945,0,0,1,.75,1.946,9.7,9.7,0,0,1,.328,1.593v0.047Zm14.907,8.438,6.234-9.235,0.047,0.094a0.042,0.042,0,0,1,.047.047L169.3,112.1a3.147,3.147,0,0,1,.515.984,1.371,1.371,0,0,1-.96.937,4.92,4.92,0,0,1-2.086.422V115.9q3.749-.139,6.937-0.14,3.28,0,6,.14v-1.453a15.029,15.029,0,0,1-3.094-.234,3.364,3.364,0,0,1-1.429-.586,6.973,6.973,0,0,1-1.055-1.383q-2.907-4.312-5.344-8.062t-3.164-4.852a10.828,10.828,0,0,0-1.1-1.477V97.8l0.046-.047,5.344-7.828L170,89.836a0.135,0.135,0,0,0,.047-0.094,16.451,16.451,0,0,1,1.641-2.273,6.642,6.642,0,0,1,2.25-1.453,9.434,9.434,0,0,1,3.8-.68V83.883q-1.593.095-5.2,0.094-3.843,0-6-.094v1.453a2.932,2.932,0,0,1,2.2.773,2.135,2.135,0,0,1,.75,1.336,22.065,22.065,0,0,1-2.414,4.125,58.671,58.671,0,0,1-3.445,4.922L162.5,94.758l-3.609-5.484A9.875,9.875,0,0,1,157.3,86.7a1.339,1.339,0,0,1,1.148-1.008,6.4,6.4,0,0,1,1.9-.352V83.883q-2.485.095-6.938,0.094-4.172,0-6-.094v1.453h1.875c0.094,0,.336.016,0.727,0.047a1.842,1.842,0,0,1,.8.188,6.113,6.113,0,0,0,.633.352,2.539,2.539,0,0,1,.726.539,7.6,7.6,0,0,1,.633.8l5.344,8.063,3.047,4.688a1.471,1.471,0,0,1-.235.469l-6.469,9.562a11.778,11.778,0,0,1-3.046,3.352,8.293,8.293,0,0,1-4.641,1.054V115.9q2.391-.139,5.156-0.14t6,0.14v-1.453a2.887,2.887,0,0,1-2.2-.75,2.116,2.116,0,0,1-.7-1.359,4.05,4.05,0,0,1,.891-1.781h0ZM216.125,83.18l-2.672-2.062-0.656-.094a0.716,0.716,0,0,0-.235.516,14.576,14.576,0,0,1,.938,4.406l-0.047,5.25-9.609.7-1.266-2.812-0.844-.141a0.938,0.938,0,0,0-.375.8v0.047l0.282,1.594,0.093,8.765a11.153,11.153,0,0,1-.843,3,0.268,0.268,0,0,0,.047.188l2.25,2.766,0.468,0.14a6.2,6.2,0,0,0,.282-2.344q1.874-.093,5.32-0.375t4.242-.281q0,8.578-.047,9.281v0.047l-0.515,2.719a2.22,2.22,0,0,0-.376.8,12.978,12.978,0,0,0,1.336,1.781,4.528,4.528,0,0,0,1.383,1.266,0.19,0.19,0,0,0,.188-0.235l0.187-15.843a1.9,1.9,0,0,1,.516-0.047q12.188-.984,12.516-1.266a1.306,1.306,0,0,0-.282-0.8l-1.078-1.078,0.8-6.281a2.021,2.021,0,0,1,.891-1.43,1.616,1.616,0,0,0,.8-0.914,2.3,2.3,0,0,0-1.078-1.523,11.1,11.1,0,0,1-1.172-1.008,0.41,0.41,0,0,0-.515-0.094,1.092,1.092,0,0,0-.352.234q-0.07.094-.445,0.539a8.766,8.766,0,0,1-.844.867q-5.484.469-9.844,0.75V89.461a22.357,22.357,0,0,1,.329-4.687q0.327-1.312.328-1.359a0.321,0.321,0,0,0-.094-0.234h0Zm8.625,17.109-9.094.75V92.977l10.219-.891Zm-20.766,1.688v-8.11l9.469-.8v8.2ZM262.25,81.82l-0.938-.281-0.14.656a39.367,39.367,0,0,0,3.844,7.313,1.123,1.123,0,0,0,.89-0.281,10.625,10.625,0,0,0,.656-3.187Zm-0.445,33.164a35.063,35.063,0,0,0,3.023,3.774l0.7,0.187a3.349,3.349,0,0,0,1.407-1.406,23.091,23.091,0,0,0,1.64-3.891l2.344-7.828q0.046-.186.281-1.453a10.143,10.143,0,0,1,.68-2.273,3.2,3.2,0,0,1,1.336-1.524q0-1.218-1.875-2.625a0.673,0.673,0,0,0-.7.023,3.187,3.187,0,0,0-.75.609,1.884,1.884,0,0,1-.516.445q-0.047,0-1.687.422a19.672,19.672,0,0,1-4.641.422,12.617,12.617,0,0,1,.656-2.461,5.78,5.78,0,0,1,.633-1.242,1.02,1.02,0,0,0,.258-0.609V95.414l-0.61-1.453,13.5-1.641a0.723,0.723,0,0,0,.422-0.844l-0.656-.656a2.907,2.907,0,0,0-1.875-.8h-0.187l-1.969.469q-2.671.563-10.078,1.523t-10.829,1.242a0.7,0.7,0,0,0-.374.609A2.983,2.983,0,0,0,254,95.18h0.516l6.89-.891q-0.843,12.61-10.875,22.828l-0.047.469a1.374,1.374,0,0,0,.844.281,22.708,22.708,0,0,0,5.227-4.969,28.1,28.1,0,0,0,3.351-5.25l2.578-5.859a4.691,4.691,0,0,0,1.454.188l1.968-.141q3.375-.516,3.844-0.516-2.157,9.752-3.609,12.844a1.718,1.718,0,0,1-.985.891,8.14,8.14,0,0,1-2.32-1.594,4.5,4.5,0,0,0-2.414-1.359A6.329,6.329,0,0,0,261.805,114.984ZM252.5,87.68q2.577-2.765,2.578-3.422a2.655,2.655,0,0,0-.633-1.383,5.441,5.441,0,0,1-.679-1.055l-0.657-.75a1.343,1.343,0,0,0-.7.234Q250.765,86.884,245,93.586l-6,6.609v0.282q2.109,0,8.484-6.985l0.094,0.047v17.672a13.423,13.423,0,0,1-1.078,4.5,3.041,3.041,0,0,0,.7,1.594l1.688,1.734,0.187,0.094a0.855,0.855,0,0,0,.469-0.469l0.094-27.328q2.295-3,2.859-3.656h0Zm46.172-6.187,3,6.281a4.541,4.541,0,0,0,.562.094l0.422-.234,0.8-1.453a1.343,1.343,0,0,0,.235-0.7q0-.844-2.016-2.555a6.974,6.974,0,0,0-2.953-1.8ZM289.2,86.883a0.322,0.322,0,0,0-.07.164,0.975,0.975,0,0,0-.024.164q-0.562,1.969-1.054,3.445t-0.75,2.109q-0.258.633-.422,1.031t-0.235.563a0.9,0.9,0,0,0-.07.352,3.425,3.425,0,0,0,.258,1.031,2.352,2.352,0,0,0,.586.984,2.408,2.408,0,0,0,.984-0.141,13.84,13.84,0,0,0,1.735-4.734l21.609-2.2h1.219a10.684,10.684,0,0,0-1.641,4.031,0.794,0.794,0,0,0,.844.375,58.993,58.993,0,0,1,4.687-5.109V88.2l-2.015-1.969-0.563-.187-0.328.141a1.016,1.016,0,0,1-.187.328l-1.078.984-21.047,2.156h-1.36a5.889,5.889,0,0,1-.187-0.82c-0.063-.359-0.117-0.625-0.164-0.8s-0.11-.375-0.188-0.609a1.906,1.906,0,0,0-.3-0.586ZM301.7,92.25a4.315,4.315,0,0,0-1.992-1.008,0.758,0.758,0,0,0-.328.094l0.375,1.453a20.213,20.213,0,0,1,.516,4.031,8.149,8.149,0,0,1-.141,1.594q-0.328,0-3.328.234t-5.156.375h-0.422c-0.188,0-.438.016-0.75,0.047q-3.375.141-3.375,0.75a2.305,2.305,0,0,0,.7,1.078,1.72,1.72,0,0,0,1.172.61q0.7,0,3-.281t6.14-.516a50.971,50.971,0,0,1-14.015,13.969,2.015,2.015,0,0,0-.8.89l0.094,0.047a0.041,0.041,0,0,0,.047.047l0.515,0.094a17.328,17.328,0,0,0,2.531-1.078,36.91,36.91,0,0,0,7.36-5.368,44.7,44.7,0,0,0,6.281-7.664l0.047,0.094v9.422a13.642,13.642,0,0,1-.234,2.836,5.454,5.454,0,0,1-.446,1.406,1.379,1.379,0,0,0-.211.446q0,0.889,2.485,3.093,0.468,0,.468-0.14l0.188-18,8.812,12a2.915,2.915,0,0,0,1.735,1.125,36.083,36.083,0,0,1,3.656-.305,17.9,17.9,0,0,0,2.6-.211,0.687,0.687,0,0,0,.632-0.7c0-.188-0.406-0.382-1.218-0.586s-1.805-.492-2.977-0.867a8.456,8.456,0,0,1-2.695-1.313,43.771,43.771,0,0,1-8.953-9.843q1.593-.423,11.437-1.219a0.735,0.735,0,0,0,.563-0.75c-0.032-.031-0.134-0.141-0.305-0.328s-0.281-.3-0.328-0.352-0.149-.141-0.305-0.281a1.6,1.6,0,0,0-.4-0.281,3.906,3.906,0,0,0-.4-0.141,1.785,1.785,0,0,0-.515-0.07h-0.282l-3.375.516q-4.032.61-7.781,0.938a10.274,10.274,0,0,1,.375-2.789q0.375-1.336.375-1.43Q303.078,93.258,301.7,92.25Zm56.6,6.961-4.781.8q-3.423.469-6.024,0.656t-3.4.234a2.248,2.248,0,0,0-1.125.282,1.627,1.627,0,0,0,.633,1.148,2.045,2.045,0,0,0,1.429.586,19.7,19.7,0,0,0,2.672-.375l5.719-.656q4.359-.421,5.25-0.516a13.051,13.051,0,0,0,2.039-.117,2.1,2.1,0,0,0,.844-0.258,0.526,0.526,0,0,0,.164-0.422,3.182,3.182,0,0,0-3-1.359H358.3Zm-13.219,4.5,0.375,2.953v0.094l-0.515,2.672a1.462,1.462,0,0,0,.351.843q0.351,0.47.773,0.938a5,5,0,0,1,.821,1.477,7.847,7.847,0,0,1,.492,2.32q-3.984.236-7.219,0.328V101.414a3.33,3.33,0,0,1,1.219-2.062,2.48,2.48,0,0,1,.234-1.031,10.718,10.718,0,0,1,2.016-2.344l0.094,0.047-0.563,1.594a4.5,4.5,0,0,0,.516.844l1.781,2.062,0.281,0.047a2.814,2.814,0,0,0,.328-1.734l13.969-1.547,0.094-.234-0.047-.422-0.8-1.172q0.468-6.8,1.922-7.453a0.725,0.725,0,0,0,.094-0.281V87.539a1.109,1.109,0,0,0-.352-0.75,4.838,4.838,0,0,0-.89-0.727,5.2,5.2,0,0,1-.68-0.492,1.564,1.564,0,0,0-1.266.844l-0.609.8-2.578.422,0.14-2.062V85.43l0.329-.75a1.894,1.894,0,0,0,.281-0.844,0.9,0.9,0,0,0-.281-0.656,11.2,11.2,0,0,1-1.383-.937,3.507,3.507,0,0,0-1.852-.844l-0.094.563a17.561,17.561,0,0,1,.75,5.906l-2.531.328a14.11,14.11,0,0,1,.8-3.891,0.97,0.97,0,0,0-.656-0.609,5.628,5.628,0,0,1-.75-0.609,6.442,6.442,0,0,0-1.078-.8,2.151,2.151,0,0,0-1.078-.328,1.111,1.111,0,0,0-.141.7,15.291,15.291,0,0,1,.75,5.625,6.032,6.032,0,0,1-1.547.281,1.413,1.413,0,0,1-1.266-.867,3.473,3.473,0,0,0-.8-1.1,1.3,1.3,0,0,0-.891.047v0.328q0.234,3.282.234,5.719v0.844a3,3,0,0,1-.351-0.234,3.625,3.625,0,0,0-.492-0.3,0.923,0.923,0,0,0-.375-0.117,1.383,1.383,0,0,0-.891.563,1.8,1.8,0,0,1-.8.609,56.908,56.908,0,0,1,.422-6.82,2.631,2.631,0,0,1,1.125-1.945l-0.094-.516-0.328-.562-1.5-1.312a0.861,0.861,0,0,0-1.125.563,5.571,5.571,0,0,1-.609,1.125q-4.829.7-5.485,0.75l-0.515-.8a1.9,1.9,0,0,0-1.36-1.172,0.4,0.4,0,0,0-.468.422l0.281,1.5a24.445,24.445,0,0,1,.187,3.328v0.047l-0.046,6.188a3.5,3.5,0,0,1-1.266.141l-0.141-2.109a0.953,0.953,0,0,0-.469-0.328l-0.328.563L328.2,95.883l-0.75,1.5q-0.7,1.453-.8,1.734a6.042,6.042,0,0,1,.422.563,4.774,4.774,0,0,0,.656.773,1.017,1.017,0,0,0,.7.3,2.892,2.892,0,0,0,1.078-1.36l0.7-2.672,10.031-.844h1.172a16.723,16.723,0,0,1-1.172,1.641,1.014,1.014,0,0,0-.656-0.281,1.309,1.309,0,0,0-.914.609,4.227,4.227,0,0,1-.586.656l-5.438.984a2.871,2.871,0,0,1-.562-0.445,4.967,4.967,0,0,0-.8-0.609,1.544,1.544,0,0,0-.8-0.258,0.75,0.75,0,0,0-.094.328l0.375,1.547,0.094,11.343a9.1,9.1,0,0,1-.7,3.7,2.486,2.486,0,0,0,.422,1.453l1.687,1.968,0.281,0.094,0.235-.14,0.187-9.657,0.61-.093q4.313-.657,4.312-1.5a1.63,1.63,0,0,0-1.172-.938l-3.89.8,0.14-2.2,4.735-.656a1.874,1.874,0,0,0-.7-1.547,26.814,26.814,0,0,0-4.172.609l0.14-2.25,5.157-.844v14.157l-0.282.375a3.36,3.36,0,0,1-1.5-.727,2.892,2.892,0,0,0-1.406-.68v0.141a16.53,16.53,0,0,0,3.656,5.2l0.469,0.141,0.375-.375a8.4,8.4,0,0,0,.8-1.641l0.609,0.422a2.308,2.308,0,0,0,1.079.187q0.139,0,4.242-.328t9.211-.773q5.107-.445,7.265-0.68a1.879,1.879,0,0,0,.094-0.844,2.6,2.6,0,0,0-2.109-1.171,3.33,3.33,0,0,0-.61.046l-6.187.844a19.491,19.491,0,0,1,2.437-3.375,0.971,0.971,0,0,0-.117-0.844,1.506,1.506,0,0,1-.258-0.562h0.188a3.827,3.827,0,0,0,1.547-.328,1.38,1.38,0,0,0-.375-1.313,7.522,7.522,0,0,1,.328-2.859v-0.047l0.375-.375a1.244,1.244,0,0,0,.609-0.8,1.182,1.182,0,0,0-.422-0.8l-1.453-1.078a1.092,1.092,0,0,0-.937.141l-1.032,1.078-7.5,1.172q-0.046-.046-0.82-0.633a2.344,2.344,0,0,0-1.289-.586,1.429,1.429,0,0,1-.047.422h0ZM357.5,91.617l-0.047.047-2.437.188V89.32l2.859-.422ZM357.078,95.6l-2.016.281-0.046-2.156h0.046l2.2-.281Zm-6.656-3.094-0.047-2.531,2.437-.422v2.672Zm0,3.938-0.047-2.156q0.8-.141,2.437-0.328v2.156Zm-4.36-3.469V90.4l2.016-.187v2.578a10.515,10.515,0,0,0-2.016.188h0Zm0,3.75V94.711h0.047l1.969-.094v2.016ZM336.2,88.359A1.254,1.254,0,0,0,335,87.727l-0.281.281a51.822,51.822,0,0,1,.234,6.563l-1.5.141V87.023q1.313-.187,5.859-0.891l-0.14,2.484a5.9,5.9,0,0,0-.867.188,4.832,4.832,0,0,1-1.1.188A1.1,1.1,0,0,1,336.2,88.359Zm2.743,5.836-2.016.141v-3.8l2.156-.328Zm15.843,13.453-7.265,1.219V106.2l7.5-.937Zm-0.937,2.11-1.688,4.875h-0.047l-2.625.234a3.893,3.893,0,0,0,.094-0.7,2.85,2.85,0,0,0-.234-1.148,18.114,18.114,0,0,0-1.406-2.227Z"/>
</svg>
