<svg xmlns="http://www.w3.org/2000/svg" width="1540" height="1450" viewBox="0 0 1540 1450">
  <defs>
    <style>
      .cls-1 {
        fill: #fdfdfd;
      }

      .cls-1, .cls-2, .cls-3 {
        fill-rule: evenodd;
      }

      .cls-2 {
        fill: #fefefe;
      }

      .cls-3 {
        fill: #fff;
      }
    </style>
  </defs>
  <path id="字体名称" class="cls-1" d="M150.484,268.773a10.132,10.132,0,0,0,6.836,2.344,7.731,7.731,0,0,0,6.055-2.637,10.042,10.042,0,0,0,2.344-6.933q0-8.4-8.2-14.356t-21.094-5.957q-19.144,0-31.25,13.575a46.418,46.418,0,0,0-12.109,31.933A44.039,44.039,0,0,0,99.7,309.984a37.787,37.787,0,0,0,15.137,15.039,42.923,42.923,0,0,0,21.387,5.665,30.627,30.627,0,0,0,22.558-9.083q9.083-9.081,9.082-16.113a2.482,2.482,0,0,0-1.562-2.051q-1.566-.879-2.93.879l-1.172,3.321a31.717,31.717,0,0,1-8.1,12.109q-5.961,5.859-16.114,6.055a26.71,26.71,0,0,1-12.89-3.516l-2.735-1.953q-12.7-10.547-12.695-32.617a70.384,70.384,0,0,1,2.637-20.508q2.637-8.592,6.933-12.891a29.939,29.939,0,0,1,8.594-6.25,21.055,21.055,0,0,1,8.789-1.953,31.093,31.093,0,0,1,20.313,7.031q-9.183.981-9.18,9.571A7.6,7.6,0,0,0,150.484,268.773ZM224.508,326.2l19.336-54.3h0.195a0.785,0.785,0,0,0,.2.586L263.375,326.2q1.562,4.491,4.3,4.493,2.733-.394,4.3-4.883,0.975-2.344,12.011-33.5T295.6,260.18q4.88-9.567,15.234-9.571v-6.054q-8.2.585-16.211,0.586t-16.016-.586v6.054a16.6,16.6,0,0,1,3.809.489,12.175,12.175,0,0,1,4.59,2.539,7.161,7.161,0,0,1,2.734,5.371,11.456,11.456,0,0,1-.195,2.734L271.188,313.7h-0.2a6.074,6.074,0,0,1-.39-1.074,4.266,4.266,0,0,1-.2-0.879L252.047,260.18a18.836,18.836,0,0,1-1.172-3.418,6.579,6.579,0,0,1,.293-2.832q0.485-1.758,3.223-2.539a30.06,30.06,0,0,1,7.812-.782v-6.054q-10.941.585-20.312,0.586t-17.579-.586v6.054h1.368q8.2,0,10.547,2.344,1.172,1.172,3.027,5.957t1.855,5.957v0.195l-16.406,45.9-0.391-.781-17.968-50.391a15.881,15.881,0,0,1-.977-3.125,6.438,6.438,0,0,1,.293-2.832q0.486-1.657,3.32-2.441a30.259,30.259,0,0,1,7.715-.782v-6.054q-11.526.585-21.289,0.586t-18.359-.586v6.054q7.617,0,10.254,1.368t4.59,6.64l24.023,66.992a6.172,6.172,0,0,0,1.172,3.028,3.975,3.975,0,0,0,2.93,2.051q3.122-.394,4.492-4.493h0Zm123.437,2.344q15.821-.586,34.375-0.586t39.649,0.586v-6.055q-19.921,0-24.121-1.464t-4.2-9.668V210.375q0-4.294,1.172-5.957t5.274-2.051h11.133q18.164,0,24.8,7.227,5.466,5.471,7.422,30.664h4.883q-0.98-9.765-3.711-43.946H325.289q-2.737,34.182-3.711,43.946h4.883q1.758-23.241,7.812-30.567t24.415-7.324H362.2q10.154,0,12.891,1.953,1.171,1.37,1.172,7.618v99.414q0,5.667-1.661,7.617t-6.933,2.734q-5.274.783-19.727,0.781v6.055Zm179.2-76.855q-9.477-10.644-25.293-10.645a38.615,38.615,0,0,0-19.141,5.273,40.053,40.053,0,0,0-15.918,16.309,46.574,46.574,0,0,0-5.957,22.754,47.172,47.172,0,0,0,2.344,14.648,48.064,48.064,0,0,0,4,8.4,70.174,70.174,0,0,0,7.226,9.863,35.216,35.216,0,0,0,12.11,8.887,40.311,40.311,0,0,0,32.031.39,27.953,27.953,0,0,0,10.547-7.617,43.527,43.527,0,0,0,5.468-8.4,15.907,15.907,0,0,0,1.856-6.445,3.16,3.16,0,0,0-.391-1.368q-2.343-2.343-4.1.586-7.032,21.488-27.344,21.485-9.375,0-18.75-9.375-8.4-10.35-8.4-33.008H531.93q3.122,0,3.906-.684t0.781-3.027Q536.617,262.329,527.145,251.684Zm-4.2,19.433,0.391,4.492a20.528,20.528,0,0,0,.195,3.711h-45.9q0-14.839,7.031-24.316t16.8-9.473a18.4,18.4,0,0,1,10.449,2.93,17.943,17.943,0,0,1,6.543,7.715,66.723,66.723,0,0,1,3.125,8.105,40.455,40.455,0,0,1,1.367,6.641v0.195Zm62.11,35.156L611.031,267.8l0.2,0.391a0.174,0.174,0,0,1,.2.195l29.3,44.336q2.146,3.323,2.148,4.1-0.2,2.152-4,3.907a20.538,20.538,0,0,1-8.691,1.757v6.055q15.624-.586,28.906-0.586,13.67,0,25,.586v-6.055a62.654,62.654,0,0,1-12.89-.976q-4.3-.975-5.958-2.442a29.223,29.223,0,0,1-4.394-5.761q-12.113-17.967-22.266-33.594T625.387,259.5a44.735,44.735,0,0,0-4.59-6.152v-0.2l0.195-.195,22.266-32.617,0.39-.391a0.562,0.562,0,0,0,.2-0.39,68.538,68.538,0,0,1,6.836-9.473q2.93-3.222,9.375-6.055a39.326,39.326,0,0,1,15.82-2.832v-6.054q-6.642.393-21.68,0.39-16.017,0-25-.39V201.2q6.052,0,9.18,3.223t3.125,5.566q0,1.758-10.059,17.188T617.086,247.68l-4.688-7.227L597.359,217.6q-6.642-9.179-6.64-10.743,0.192-2.733,4.785-4.2a26.671,26.671,0,0,1,7.91-1.465v-6.054q-10.355.393-28.906,0.39-17.387,0-25-.39V201.2h7.812c0.391,0,1.4.067,3.028,0.2a7.647,7.647,0,0,1,3.32.781,26.2,26.2,0,0,0,2.637,1.465,10.531,10.531,0,0,1,3.027,2.246,31.776,31.776,0,0,1,2.637,3.32L594.234,242.8l12.7,19.531a6.078,6.078,0,0,1-.977,1.953L579,304.125q-6.254,9.571-12.7,13.965t-19.336,4.394v6.055q9.96-.586,21.484-0.586t25,0.586v-6.055q-6.254,0-9.18-3.125t-2.929-5.664q0-2.147,3.711-7.422h0ZM835.836,192.211L824.7,183.617l-2.734-.39a2.982,2.982,0,0,0-.977,2.148q2.93,6.839,3.906,18.359l-0.2,21.875-40.039,2.93-5.273-11.719-3.516-.586a3.9,3.9,0,0,0-1.563,3.321v0.195l1.172,6.641,0.391,36.523q0,3.126-3.516,12.5a1.116,1.116,0,0,0,.2.781l9.375,11.524,1.953,0.586q1.171-2.344,1.172-9.766,7.809-.389,22.168-1.562t17.675-1.172q0,35.742-.2,38.672v0.2L822.555,326a9.225,9.225,0,0,0-1.563,3.32,53.592,53.592,0,0,0,5.567,7.422q4,4.688,5.761,5.274a0.791,0.791,0,0,0,.782-0.977l0.781-66.016a7.942,7.942,0,0,1,2.148-.2q50.78-4.1,52.149-5.273a5.448,5.448,0,0,0-1.172-3.321l-4.492-4.492,3.32-26.172a8.423,8.423,0,0,1,3.711-5.957q3.318-2.439,3.32-3.808,0-2.733-4.492-6.348a45.923,45.923,0,0,1-4.883-4.2,1.715,1.715,0,0,0-2.148-.391,4.543,4.543,0,0,0-1.465.977q-0.293.393-1.856,2.246a36.706,36.706,0,0,1-3.515,3.613q-22.852,1.954-41.016,3.125v-6.445q0-14.062,1.367-19.531t1.368-5.664a1.334,1.334,0,0,0-.391-0.977h0ZM871.773,263.5l-37.89,3.125V233.031l42.578-3.711Zm-86.523,7.031V236.742l39.453-3.32V267.6Zm242.77-83.984-3.9-1.172-0.59,2.734q7.62,18.361,16.02,30.469c1.82,0,3.05-.39,3.71-1.172q2.73-8.2,2.73-13.281Zm-1.85,138.183a146.245,146.245,0,0,0,12.6,15.723l2.93,0.781q3.12-1.368,5.85-5.859,2.745-4.5,6.84-16.211l9.77-32.617c0.12-.519.52-2.539,1.17-6.055a42.4,42.4,0,0,1,2.83-9.472,13.314,13.314,0,0,1,5.57-6.348q0-5.078-7.82-10.938a2.809,2.809,0,0,0-2.93.1,13.425,13.425,0,0,0-3.12,2.539,7.813,7.813,0,0,1-2.15,1.856q-0.2,0-7.03,1.757t-19.34,1.758a51.983,51.983,0,0,1,2.74-10.254,24.406,24.406,0,0,1,2.63-5.176,4.21,4.21,0,0,0,1.08-2.539v-0.585l-2.54-6.055,56.25-6.836c1.17-.26,1.76-1.431,1.76-3.516l-2.74-2.734a12.1,12.1,0,0,0-7.81-3.32h-0.78l-8.2,1.953q-11.145,2.343-42,6.347T986.617,234.2a2.91,2.91,0,0,0-1.562,2.539q4.293,5.274,8.593,5.469H995.8l28.713-3.711q-3.525,52.542-45.315,95.117L979,335.57a5.706,5.706,0,0,0,3.516,1.172,94.613,94.613,0,0,0,21.774-20.7q9.675-12.5,13.97-21.875L1029,269.75a19.473,19.473,0,0,0,6.05.781l8.21-.586q14.055-2.147,16.01-2.148-8.985,40.626-15.04,53.515a7.156,7.156,0,0,1-4.1,3.711q-3.12-.975-9.67-6.64t-10.05-5.664Q1020.41,316.432,1026.17,324.73ZM987.4,210.961q10.74-11.522,10.743-14.258,0-2.147-2.637-5.762a22.92,22.92,0,0,1-2.832-4.394l-2.734-3.125a5.589,5.589,0,0,0-2.93.976q-6.84,23.246-30.86,51.172l-25,27.539v1.172q8.79,0,35.352-29.1l0.391,0.195v73.633q0,7.031-4.493,18.75a12.643,12.643,0,0,0,2.93,6.64l7.031,7.227,0.782,0.391a3.576,3.576,0,0,0,1.953-1.954l0.39-113.867q9.568-12.5,11.914-15.234h0ZM1179.78,185.18l12.5,26.172a19.02,19.02,0,0,0,2.34.39l1.76-.976,3.32-6.055a5.6,5.6,0,0,0,.98-2.93q0-3.515-8.4-10.644t-12.3-7.52Zm-39.45,22.461a1.313,1.313,0,0,0-.29.683,3.745,3.745,0,0,0-.1.684q-2.34,8.2-4.4,14.355c-1.36,4.1-2.41,7.032-3.12,8.789s-1.31,3.192-1.76,4.3-0.78,1.889-.98,2.344a3.787,3.787,0,0,0-.29,1.465,14.433,14.433,0,0,0,1.07,4.3,9.8,9.8,0,0,0,2.45,4.1,10.046,10.046,0,0,0,4.1-.586q3.9-5.272,7.22-19.726l90.04-9.18h5.08a44.586,44.586,0,0,0-6.83,16.8q0.585,1.566,3.51,1.562,12.495-14.84,19.53-21.289v-3.125l-8.4-8.2-2.34-.781-1.37.586a4.155,4.155,0,0,1-.78,1.367l-4.49,4.1-87.7,8.984h-5.66a25.1,25.1,0,0,1-.78-3.418c-0.26-1.5-.49-2.6-0.68-3.32s-0.46-1.563-.79-2.539a7.764,7.764,0,0,0-1.27-2.442ZM1192.38,230q-5.76-4.2-8.3-4.2a3.175,3.175,0,0,0-1.37.39l1.56,6.055a84.473,84.473,0,0,1,2.15,16.8,34.123,34.123,0,0,1-.58,6.641q-1.38,0-13.87.976-12.51.98-21.49,1.563h-1.75c-0.78,0-1.83.067-3.13,0.2q-14.055.585-14.06,3.125a9.687,9.687,0,0,0,2.93,4.492q2.535,2.541,4.88,2.539,2.925,0,12.5-1.172t25.59-2.148q-22.47,33.792-58.4,58.2a8.365,8.365,0,0,0-3.32,3.711l0.39,0.195a0.168,0.168,0,0,0,.19.195l2.15,0.391q1.95-.388,10.55-4.492a153.358,153.358,0,0,0,30.66-22.363q13.29-12.6,26.18-31.934l0.19,0.391v39.257a56.8,56.8,0,0,1-.98,11.817,22.553,22.553,0,0,1-1.85,5.859,5.6,5.6,0,0,0-.88,1.856q0,3.708,10.35,12.89,1.95,0,1.95-.586l0.79-75,36.71,50q1.965,3.127,7.23,4.688a150.625,150.625,0,0,1,15.24-1.27,74.936,74.936,0,0,0,10.84-.878c1.75-.391,2.63-1.368,2.63-2.93q0-1.171-5.08-2.442t-12.4-3.613a35.275,35.275,0,0,1-11.23-5.469q-19.92-15.622-37.3-41.015,6.63-1.758,47.65-5.078a3.06,3.06,0,0,0,2.35-3.125c-0.13-.129-0.56-0.586-1.27-1.368s-1.17-1.269-1.37-1.464-0.62-.586-1.27-1.172a6.471,6.471,0,0,0-1.66-1.172,16.25,16.25,0,0,0-1.66-.586,7.477,7.477,0,0,0-2.15-.293h-1.17l-14.06,2.148q-16.8,2.541-32.42,3.907a42.477,42.477,0,0,1,1.56-11.621q1.56-5.567,1.56-5.957Q1198.14,234.205,1192.38,230Zm235.84,29-19.92,3.32q-14.265,1.954-25.1,2.734t-14.16.977a9.351,9.351,0,0,0-4.69,1.172q0,2.343,2.64,4.785a8.53,8.53,0,0,0,5.96,2.442,82.479,82.479,0,0,0,11.13-1.563l23.83-2.734q18.165-1.758,21.87-2.149a54.278,54.278,0,0,0,8.5-.488,8.724,8.724,0,0,0,3.51-1.074,2.179,2.179,0,0,0,.69-1.758q-3.33-5.663-12.5-5.664h-1.76Zm-55.08,18.75,1.56,12.3v0.391l-2.15,11.133a6.078,6.078,0,0,0,1.47,3.516q1.47,1.954,3.22,3.906a20.963,20.963,0,0,1,3.42,6.152,32.784,32.784,0,0,1,2.05,9.668q-16.605.98-30.08,1.367V268.188q0-3.516,5.08-8.594a10.184,10.184,0,0,1,.98-4.3q1.365-2.929,8.4-9.766l0.39,0.2-2.35,6.64a18.776,18.776,0,0,0,2.15,3.516l7.42,8.594,1.18,0.2c0.9-.91,1.36-3.32,1.36-7.227L1435.45,251l0.39-.977-0.2-1.757-3.32-4.883q1.95-28.317,8.01-31.055a2.98,2.98,0,0,0,.39-1.172v-0.781a4.621,4.621,0,0,0-1.47-3.125,19.835,19.835,0,0,0-3.71-3.027,21.517,21.517,0,0,1-2.83-2.051q-2.925,0-5.27,3.516l-2.54,3.32-10.74,1.758,0.58-8.594v-0.586l1.37-3.125a7.875,7.875,0,0,0,1.17-3.516,3.752,3.752,0,0,0-1.17-2.734,47.316,47.316,0,0,1-5.76-3.906q-4.785-3.516-7.72-3.516l-0.39,2.344q3.12,8.2,3.13,24.609l-10.55,1.367q0-5.662,3.32-16.211a4.034,4.034,0,0,0-2.73-2.539,23.069,23.069,0,0,1-3.13-2.539,26.767,26.767,0,0,0-4.49-3.32,8.952,8.952,0,0,0-4.49-1.367c-0.39.39-.59,1.367-0.59,2.929q3.12,7.228,3.13,23.438a25.238,25.238,0,0,1-6.45,1.172q-3.315,0-5.27-3.613c-1.31-2.408-2.41-3.937-3.32-4.59-2.22-.26-3.45-0.2-3.71.195v1.367q0.975,13.674.97,23.828v3.516a12.49,12.49,0,0,1-1.46-.977,15.314,15.314,0,0,0-2.05-1.269,3.83,3.83,0,0,0-1.57-.488q-1.56,0-3.71,2.343c-1.43,1.563-2.54,2.411-3.32,2.539q0.585-22.264,1.76-28.418t4.69-8.1l-0.39-2.148-1.37-2.344-6.25-5.469c-2.08-.65-3.65.131-4.69,2.344q-2.145,4.5-2.54,4.687-20.115,2.93-22.85,3.125l-2.15-3.32q-2.925-4.879-5.66-4.883-1.95,0-1.95,1.758l1.17,6.25a101.3,101.3,0,0,1,.78,13.867v0.2l-0.2,25.782c-0.78.39-2.53,0.586-5.27,0.586l-0.58-8.789a4.013,4.013,0,0,0-1.96-1.368l-1.37,2.344-4.29,11.524-3.13,6.25q-2.925,6.056-3.32,7.226a25.154,25.154,0,0,1,1.76,2.344,19.632,19.632,0,0,0,2.74,3.223,4.2,4.2,0,0,0,2.92,1.269,12.033,12.033,0,0,0,4.5-5.664l2.93-11.133,41.79-3.515h4.89a69.543,69.543,0,0,1-4.89,6.836,4.206,4.206,0,0,0-2.73-1.172q-1.755,0-3.81,2.539a17.793,17.793,0,0,1-2.44,2.734l-22.66,4.1a11.939,11.939,0,0,1-2.34-1.856,20.5,20.5,0,0,0-3.32-2.539,6.435,6.435,0,0,0-3.32-1.074,3.157,3.157,0,0,0-.39,1.367l1.56,6.445,0.39,47.266a37.978,37.978,0,0,1-2.93,15.43,10.386,10.386,0,0,0,1.76,6.054l7.03,8.2,1.17,0.39,0.98-.586,0.78-40.234,2.54-.391q17.97-2.733,17.97-6.25,0-1.758-4.88-3.906l-16.22,3.32,0.59-9.179,19.73-2.735a7.811,7.811,0,0,0-2.93-6.445A112.291,112.291,0,0,0,1322.16,276l0.59-9.375,21.48-3.516v58.985l-1.17,1.562q-2.34-.192-6.25-3.027c-2.6-1.886-4.56-2.832-5.86-2.832v0.586q4.695,11.133,15.24,21.679l1.95,0.586,1.56-1.562q0.78-.783,3.32-6.836l2.54,1.758a9.57,9.57,0,0,0,4.49.781q0.6,0,17.68-1.367t38.38-3.223q21.285-1.859,30.27-2.832,0.39-.389.39-3.515-3.7-4.881-8.79-4.883a13.479,13.479,0,0,0-2.53.195l-25.79,3.516q7.425-11.719,10.16-14.063a4.021,4.021,0,0,0-.49-3.515,6.2,6.2,0,0,1-1.07-2.344h0.78q5.655-.586,6.44-1.367,0.78-2.733-1.56-5.469,0-9.375,1.37-11.914v-0.2l1.56-1.562c1.69-1.3,2.54-2.408,2.54-3.32a4.946,4.946,0,0,0-1.76-3.321l-6.05-4.492a4.572,4.572,0,0,0-3.91.586l-4.29,4.492-31.26,4.883c-0.13-.128-1.26-1.007-3.41-2.637s-3.94-2.441-5.37-2.441a5.907,5.907,0,0,1-.2,1.758h0Zm51.76-50.391-0.2.2-10.15.782V217.8l11.91-1.758Zm-1.76,16.6-8.4,1.172-0.19-8.985h0.19l9.18-1.172Zm-27.73-12.891-0.2-10.547,10.16-1.758v11.133Zm0,16.406-0.2-8.984q3.315-.587,10.16-1.367v8.984Zm-18.17-14.453V222.289l8.4-.781V232.25a43.8,43.8,0,0,0-8.4.781h0Zm0,15.625v-8.4h0.2l8.2-.391v8.4Zm-41.11-34.863a5.233,5.233,0,0,0-4.98-2.637l-1.17,1.172q0.975,5.274.97,27.344l-6.25.586V208.227q5.475-.779,24.42-3.711l-0.59,10.351a24.811,24.811,0,0,0-3.61.781,20.122,20.122,0,0,1-4.59.782A4.584,4.584,0,0,1,1336.13,213.793Zm11.42,24.316-8.39.586v-15.82l8.98-1.367Zm66.02,56.055-30.27,5.078V288.109l31.25-3.906Zm-3.91,8.789-7.03,20.313h-0.19l-10.94.976a16.423,16.423,0,0,0,.39-2.93,11.9,11.9,0,0,0-.98-4.785,73.885,73.885,0,0,0-5.86-9.277Z"/>
  <path id="中文示例" class="cls-2" d="M372.926,731.816l-2.246.782a24.7,24.7,0,0,1-7.91,1.464v-0.585q0.488-12.694.585-13.184,2.344-.1,8.252-0.684t7.276-.586l-0.195,58.2a1.756,1.756,0,0,1-1.563,1.074l-6.543-5.078q-2.051-.195-2.246.2l0.1,1.367q0.681,1.37,5.517,6.445t6.4,5.079a7.68,7.68,0,0,0,2.636-5.371l0.391-61.915a3.744,3.744,0,0,1,1.025-2.148,3.7,3.7,0,0,0,1.026-2.051q-2.442-3.516-5.567-4l-0.586.586-2.148,3.711q-4.687.392-8.105,0.733t-4.493.439q-1.075.1-1.757,0.1l-2.832-6.641q-0.2-.487-2.051-0.488a1.1,1.1,0,0,0-.684.976,90.577,90.577,0,0,1,1.367,16.993q0,16.211-2.05,24.609-5.764,23.145-20.8,33.984V786.6H336.5a45.411,45.411,0,0,0,16.211-13.819,46.259,46.259,0,0,0,8.2-19.873l14.551-1.562q1.758-.586,1.758-1.66l-0.782-1.172a3.677,3.677,0,0,0-3.027-1.758h-0.195l-3.711.781a51.58,51.58,0,0,1-8.106,1.172,6.2,6.2,0,0,0,.586-2.344l0.782-8.3,13.281-1.757a1.122,1.122,0,0,0,1.074-1.172,4.655,4.655,0,0,0-1.318-2.149,3.491,3.491,0,0,0-2.588-1.172h-0.293Zm-24.9-5.957a4.964,4.964,0,0,1,2.344-3.222,4.373,4.373,0,0,0-2.051-3.565,7.215,7.215,0,0,0-3.32-1.611,29.9,29.9,0,0,0-2.539,3.027l-12.891,1.27-2.929-5.078a4.709,4.709,0,0,0-1.075-.1,1.238,1.238,0,0,0-1.269.488l0.781,5.274v31.445a10.677,10.677,0,0,1-1.562,5.566,3.289,3.289,0,0,0,.39,1.661l2.442,3.418q1.854,2.051,2.734,2.148a35.493,35.493,0,0,0,.488-7.031l0.391-.293,10.742-1.074a10.887,10.887,0,0,1,1.709,2.3,4.5,4.5,0,0,0,2.1,2.1q2.147-1.561,3.515-36.719h0Zm-6.738,27.93-11.328,1.563-0.293-13.672,10.254-1.66q0.487-.195.488-1.661-1.368-3.123-3.808-2.832l-2.93,1.27-3.711.586-0.293-11.621q6.641-.682,14.063-1.758a245.186,245.186,0,0,1-2.442,29.785h0Zm95.508-32.91a18.51,18.51,0,0,1-.1,2.148q-0.292,9.375-.683,14.893t-1.465,12.842a60.417,60.417,0,0,1-2.881,12.158,54.809,54.809,0,0,1-5.078,10.01,41.638,41.638,0,0,1-7.861,9.179q-1.857,1.269-1.856,2.637l1.758-.195a37.408,37.408,0,0,0,10.937-9.18,36.687,36.687,0,0,0,6.055-9.814,78.439,78.439,0,0,0,2.588-8.448q1.026-4.2,1.123-4.3,19.337-2.147,20.313-3.027,0.293-.78-0.782-2.441-1.464-1.466-4.59-1.074h-0.1l-4.492,1.074q-1.758.391-9.961,1.66v-0.1l1.172-11.718,16.992-2.833a1.132,1.132,0,0,0,.976-1.367q-1.464-2.439-3.515-2.441a45.856,45.856,0,0,0-7.471,1.318q-5.811,1.319-7.08,1.416l0.391-13.086,22.363-2.539h1.758l-0.1,58.594q0,1.075-1.856,1.074l-7.421-4.3h-1.27a1.029,1.029,0,0,0-.391.879L465.8,785.918l1.269,0.2a2.873,2.873,0,0,0,1.27-1.367l0.976-3.808,0.2-62.012a4.249,4.249,0,0,1,2.246-3.809,5.828,5.828,0,0,0-.293-2.148q-0.1-.1-1.221-1.026a20.4,20.4,0,0,0-2.051-1.513,3.256,3.256,0,0,0-1.709-.586,42.839,42.839,0,0,0-2.636,4.1l-22.656,2.442-2.833-5.86q-1.856-.389-2.343.2a49.2,49.2,0,0,0,.39,5.42q0.39,3.369.391,4.443v0.293Zm118.262,33.3a36.57,36.57,0,0,1,1.757,11.621,51.745,51.745,0,0,1-.976,9.961l-21.484,1.855V749.59q6.834-.683,16.406-1.367,0.195,0.2.928,1.074a8.8,8.8,0,0,0,1.611,1.514,2.869,2.869,0,0,0,1.66.634q0.879-.389,1.172-3.222l2.539-18.653v-0.1l1.172-3.223a1.1,1.1,0,0,0,.1-0.488,3.775,3.775,0,0,0-1.368-2.442l-4.3-3.418q-1.757-.488-1.953.2a26.524,26.524,0,0,1,1.172,8.2q0,1.856-.1,2.832l-1.563,12.207-0.293.293q-2.247.1-9.228,0.83t-7.959.83V720.977a25.814,25.814,0,0,1,.634-4.053,30.537,30.537,0,0,0,.635-3.662l-5.469-4.1a6.163,6.163,0,0,0-1.172-.1,1.132,1.132,0,0,0-.781.2q0,0.2.733,2.734a15.953,15.953,0,0,1,.732,3.32l0.2,30.469q-0.879.1-7.519,0.879t-8.3.781l-0.1-4.2V740.7q0-8.4,1.758-12.012a6.421,6.421,0,0,0-1.367-1.66l-4.492-3.418q-2.05,0-2.051.782a20.761,20.761,0,0,1,1.856,8.007V745a9.027,9.027,0,0,1-1.954,5.176,4.448,4.448,0,0,0,1.563,2.783,4.324,4.324,0,0,0,2.93,1.611,1.422,1.422,0,0,0,.878-0.293l2.344-2.246q10.548-1.854,14.453-2.148V778.5L511.7,780.352c0-.391-0.016-0.911-0.049-1.563s-0.048-1.562-.048-2.734q0-8.4,1.464-11.719a3.831,3.831,0,0,0-.83-2.49,10.768,10.768,0,0,0-2.343-2.051,15.715,15.715,0,0,1-2.1-1.611q-1.954-.879-2.344,0,2.05,5.664,2.051,19.043a12.716,12.716,0,0,1-1.074,3.564,13.022,13.022,0,0,0-1.074,3.467l0.879,0.683q2.635,2.052,4.2,2.051,0.488-2.05,3.32-2.734l5.664-.879q12.891-2.541,35.547-2.93,1.367,4.3,2.539,5.469a2.789,2.789,0,0,0,.537-0.049,1.849,1.849,0,0,0,.44-0.146,1.232,1.232,0,0,0,.293-0.2,1.689,1.689,0,0,0,.244-0.39,2.254,2.254,0,0,0,.2-0.537c0.032-.164.081-0.391,0.147-0.684s0.112-.571.146-0.83,0.081-.635.147-1.123,0.129-.928.2-1.318L561.6,762.48a15.144,15.144,0,0,1,.732-1.806,7.187,7.187,0,0,0,.635-1.709q0-.975-2.832-3.125t-4.59-2.246Zm96.289-19.58a4.179,4.179,0,0,1-.684.048l-8.105,1.563a135.21,135.21,0,0,1-17.774,1.66v-0.488l0.293-3.906a35.223,35.223,0,0,1,.781-6.69,10.85,10.85,0,0,1,1.124-3.076,2.539,2.539,0,0,0,.537-1.367l-0.391-.879-1.855-1.953,20.507-2.735a0.921,0.921,0,0,0,.782-0.976,7.065,7.065,0,0,0-6.446-3.516h-0.586l-4.882.977q-3.615.783-7.325,1.416t-4.2.732l-22.559,2.539q-1.172,0-1.171.684,0,1.368,1.855,2.588a6.836,6.836,0,0,0,3.809,1.22h0.2l4.98-.879a78.578,78.578,0,0,1,10.547-1.074,174.918,174.918,0,0,1-.976,17.676q-0.879.391-31.348,2.148l-0.879.586,0.1,1.172q2.439,3.029,5.078,3.028h0.586l7.812-1.075q9.57-1.073,18.164-1.562a51.988,51.988,0,0,1-11.621,22.8A68.826,68.826,0,0,1,586.4,781.621a2.575,2.575,0,0,0-1.66,1.856q1.562,0.193,2.051.2a16.634,16.634,0,0,0,5.225-1.563,48.718,48.718,0,0,0,8.007-4.687,65.08,65.08,0,0,0,9.082-7.715,60.024,60.024,0,0,0,8.594-11.426A58.4,58.4,0,0,0,624,743.34q3.124,5.763,21.582,36.816l2.246,0.879,14.453-.781,0.977-.879a1.555,1.555,0,0,0-.391-1.27,57.253,57.253,0,0,1-10.058-3.271,24.257,24.257,0,0,1-6.5-4.932,83.189,83.189,0,0,1-8.544-11.035l-10.645-16.7v-0.391q23.826-1.172,29.883-2.734a1.053,1.053,0,0,0,1.172-1.074,5.492,5.492,0,0,0-2.491-2.442,7.817,7.817,0,0,0-3.759-.976A3.611,3.611,0,0,0,651.344,734.6Zm85.937,15.478-2.246,24.805-0.293.293q-10.158.783-19.824,0.879v-52.93a15.587,15.587,0,0,1,.977-5.957,4.158,4.158,0,0,0,.488-2.246q-0.392-.683-5.86-4.883-1.856,0-1.855.684,0.1,0.585.977,3.515a17.9,17.9,0,0,1,.878,3.809l0.2,58.5-0.391.293q-1.955.1-9.961,0.684t-9.765.585l-0.2-24.707a40.036,40.036,0,0,1,1.367-9.179q-4.492-3.9-5.273-4.59a5,5,0,0,0-2.441,0q2.051,6.446,2.05,6.933v30.372a6.329,6.329,0,0,1-1.171,2.392,7.4,7.4,0,0,0-1.172,2.2,1.213,1.213,0,0,0,.39.879l2.832,2.539a2.43,2.43,0,0,0,2.246-.1l2.246-2.344,42.383-2.539,0.293,0.293,0.879,4.59,0.879,0.781q1.172,0,1.27-.391,1.854-4.2,3.125-18.164l1.855-18.261a1.666,1.666,0,0,1,.1-0.684l1.66-7.324a9.738,9.738,0,0,0-1.465-1.319q-1.171-.927-2.637-2.1t-1.758-1.465l-1.66-.2a1.323,1.323,0,0,0-.39.976,21.493,21.493,0,0,1,1.66,8.3q0,1.368-.391,5.078h0Zm122.364-32.617-4.981.781q-3.029.392-11.816,0.586l1.172-2.539a11.5,11.5,0,0,0,1.269-2.93,2.615,2.615,0,0,0-.879-1.855L840.5,708.77a1.753,1.753,0,0,0-1.66,0q-0.1.585-.391,4.882a27.845,27.845,0,0,1-.781,5.762q-6.446.586-14.649,1.074v-2.636l0.293-1.758a15.768,15.768,0,0,0,.977-3.614l-5.176-4q-1.171-.2-1.367-0.2a0.952,0.952,0,0,0-.684.2,49.493,49.493,0,0,1,1.661,10.546,9.759,9.759,0,0,1-.1,1.661q-7.13.489-15.723,0.781-4.98.2-6.592,0.439t-1.709.83a3.879,3.879,0,0,0,2,2.295,6.376,6.376,0,0,0,3.272,1.026h0.293l5.762-.782a114.1,114.1,0,0,1,12.7-.585,17.477,17.477,0,0,1-.684,2.441,5.4,5.4,0,0,0,.586,2.441l2.539,3.711a131.871,131.871,0,0,1-20.7,16.016l-7.617,4.59a2.132,2.132,0,0,0-1.27,1.953h2.442a92.323,92.323,0,0,0,18.945-10.254q0,21.679-16.7,39.16l-0.1.977a6.682,6.682,0,0,0,2.149-.586,31.828,31.828,0,0,0,10.3-10.059,68.522,68.522,0,0,0,6.69-12.207l31.25-2.246,0.1-.1,0.2-.2a1.128,1.128,0,0,0,.195-0.293c0.064-.13.13-0.259,0.2-0.391a0.932,0.932,0,0,0,.048-0.537,3.778,3.778,0,0,0-.146-0.634l-1.953-2.149,0.586-8.789a2.848,2.848,0,0,1,1.562-1.465,44.979,44.979,0,0,1,4.248,3.858,23.719,23.719,0,0,1,2,2.295,2.229,2.229,0,0,0,.928.83,4.748,4.748,0,0,0,1.807.244,57.257,57.257,0,0,0,7.08-.586,26.622,26.622,0,0,0,6.494-1.465l0.195-.879-0.293-.683q-0.2,0-2.685-.293a51.559,51.559,0,0,1-5.127-.879,18.608,18.608,0,0,1-4.2-1.368q-9.18-4.784-20.117-14.843l4-9.18,22.168-1.855q1.953-.682,1.953-1.563a6.932,6.932,0,0,0-5.371-2.246h-0.683Zm-25,12.4q-1.758-1.172-1.758-1.855a1.514,1.514,0,0,1,.781-0.781c-0.066-.2-0.163-0.553-0.293-1.075l-1.66-2.734h0.1l5.274-.2Zm-11.524,1.075V724h0.1l4.687-.1a22.112,22.112,0,0,1-4.785,7.032h0Zm3.027,4.687,0.586,2.246,0.1,0.1,1.953,5.566-10.84.879-1.074-1.953a133.892,133.892,0,0,0,12.793-11.621A146.663,146.663,0,0,1,840.992,741l-0.976,1.367-7.422.879c0-.064.015-0.227,0.049-0.488s0.064-.569.1-0.928,0.049-.7.049-1.025q0-1.758-2.2-3.516a12,12,0,0,0-3.858-2.246,0.879,0.879,0,0,0-.586.586h0Zm14.356,21-24.219,2.149,0.488-2.637,22.071-2.637h0.195l0.684-.684q0-3.026-4.981-3.027c-0.131,0-.358.017-0.683,0.049a7.826,7.826,0,0,1-.782.049l-8.4,1.172-7.227.488,0.1-3.516,22.852-1.66h0.683Zm-25.684,8.887a20.477,20.477,0,0,1,1.075,7.031,20.691,20.691,0,0,1-1.563,8.106,6.069,6.069,0,0,0,1.074,3.32l3.809,4H820a0.406,0.406,0,0,0,.1-0.293l0.39-4.59,25.2-1.465,1.367-.586a2.424,2.424,0,0,0-.1-1.562l-1.367-1.758q0-8.3,3.125-10.352a3.666,3.666,0,0,0-1.269-2.539l-3.223-2.539a2.538,2.538,0,0,0-1.856.781l-1.757,3.223-20.8,1.758a6.2,6.2,0,0,1-1.709-1.514,3.559,3.559,0,0,0-2.295-1.416,1.327,1.327,0,0,0-.977.391h0Zm25.977,12.4-20.313,1.27v-7.813l20.118-1.66h1.269Zm90.527-56.933,2.442-5.469a3.429,3.429,0,0,0-.489-2.246l-5.371-4a3.005,3.005,0,0,0-1.855.293,28.982,28.982,0,0,1,.781,6.836,16.68,16.68,0,0,1-1.562,7.519l-2.247.2q-9.375.977-11.425,0.976v-0.1l0.2-4.492a6.122,6.122,0,0,0,.879-2.539,1.7,1.7,0,0,0-.1-0.683q-0.489-.39-1.709-1.563a24.5,24.5,0,0,0-2.344-2,6.735,6.735,0,0,0-2.2-1.123,0.841,0.841,0,0,0-.781.781,40.988,40.988,0,0,1,1.758,12.207l-21.973,1.856-0.781.586q0,2.442,2.93,3.515l19.921-1.66a2.579,2.579,0,0,1-.1.782,22.207,22.207,0,0,1-1.27,3.515,18.516,18.516,0,0,0,4,6.055,0.821,0.821,0,0,0,.733.39q0.633,0.1.634-.39L911.7,729.57l12.5-1.074q-2.247,8.107-2.246,10.645a1.283,1.283,0,0,0,.1.683,6.1,6.1,0,0,0,3.125-1.367l0.683,1.758q3.711,9.082,5.176,9.082a7.844,7.844,0,0,0,2.539-5.664,5.512,5.512,0,0,0-.293-1.758l-6.738-6.738,2.441-7.129q6.446-.39,25.489-2.93a2.384,2.384,0,0,0,.683-1.758l-1.269-1.269a4.236,4.236,0,0,0-1.367-.684,7.478,7.478,0,0,0-2.539-.39A86.6,86.6,0,0,0,939.625,722q-7.325,1.026-8.789,1.025a16.784,16.784,0,0,1,.488-2.05h0Zm-25.293,23.535a8.213,8.213,0,0,0-.781-3.321q-0.783-.293-3.027-1.171t-4.346-1.563a19.962,19.962,0,0,0-3.76-.879v0.879a70.262,70.262,0,0,0,5.371,5.957q3.9,4,4.3,4,2.246,0,2.246-3.906h0Zm-19.043,31.347v1.172A62.289,62.289,0,0,0,895,786.6l0.977,0.293a3.023,3.023,0,0,0,2.148-2.247q8.5-27.342,9.863-29.785a10.226,10.226,0,0,0,2.637,1.758l9.082-.488v20.605a5.26,5.26,0,0,1-.293,1.66l-1.855,3.711a2.106,2.106,0,0,0,.488,1.075l3.125,2.343a1.82,1.82,0,0,0,2.246-.2l2.051-2.441q4.2-.2,6.347-0.489l20.215-2.539a1.381,1.381,0,0,0,1.27-1.66q-2.344-2.343-3.516-2.344a89.278,89.278,0,0,0-9.57,1.172q-7.617,1.172-16.016,1.856l0.1-23.242,30.957-3.614a2.134,2.134,0,0,0,1.367-1.562q-1.075-2.246-5.469-2.246c-1.171,0-2.084.033-2.734,0.1l-13.281,1.563-24.024,2.246h-2.148v-0.586q0.292-2.05-.488-2.539a0.773,0.773,0,0,0-.879.391v0.1l-4.883,10.938q-2.637,6.152-7.227,14.941a2.514,2.514,0,0,1-2.343,1.758,7.333,7.333,0,0,1-2.442-.684,7.735,7.735,0,0,0-2.832-.683,3.011,3.011,0,0,0-.879.1h0Zm9.375-22.168a14.649,14.649,0,0,0-4.443-2.539,34.823,34.823,0,0,0-6.787-2.05l-0.488.488a30.692,30.692,0,0,0,2.441,3.125L895,760.82a3.8,3.8,0,0,0,2.246-1.269q0-4.981-.879-5.86h0Zm134.717-22.949a4.018,4.018,0,0,0-2.59-.586l-12.4,1.856a1.128,1.128,0,0,0-.78.39q0.78,2.344,5.17,2.344h1.08l9.76-1.074,0.98-.586,0.2-.488A2.236,2.236,0,0,0,1031.08,730.742Zm-0.15,7.52-2.83.683a54.068,54.068,0,0,1-8.98,1.172,4.915,4.915,0,0,1-.59-0.049c-0.26-.032-0.42-0.048-0.49-0.048l-2.83-.684q-0.69.976,0.54,2.783a3.6,3.6,0,0,0,3.07,1.807h0.3l15.04-1.856,1.36-.683q-1.065-2.148-4.59-3.125h0Zm8.99-20.117-2.44,2.539h-0.3l-22.07,2.246h-1.85l0.1-5.86,19.82-1.855a1.663,1.663,0,0,0,1.17-1.27q-3.03-3.026-5.08-3.027h-0.48l-12.7,2.246a237.868,237.868,0,0,1-27.93,1.856q-1.368.782,0,2.441a4.059,4.059,0,0,0,2.93,2.051h0.1l5.078-.586h0.39l12.4-1.27-0.2,5.762-21.286,2.051h-2.929l-0.391-3.028a1.4,1.4,0,0,0-.781-1.171,0.924,0.924,0,0,0-1.368.292,31.409,31.409,0,0,1-4.98,12.989,6.392,6.392,0,0,0,.1,1.367l1.269,3.125q0.975,1.563,1.758,1.562a11.018,11.018,0,0,0,1.953-2.783,23.076,23.076,0,0,0,1.27-2.832q0.389-1.12.976-3.369t0.684-2.441l21.877-1.953h2.05q0,8.594-1.47,12.3l-0.48.2q0,1.757,4.68,7.031a1.246,1.246,0,0,0,.49.293,0.633,0.633,0,0,0,.49,0,0.306,0.306,0,0,0,.19-0.293l0.4-20.117q5.655-.879,23.43-1.953l-2.15,6.054a6.363,6.363,0,0,0,0,2.442l0.3-.1a4.792,4.792,0,0,0,.93-0.147c0.42-.1.86-0.178,1.31-0.244a42.617,42.617,0,0,1,3.67-5.322,19.389,19.389,0,0,1,2.83-2.978,17.823,17.823,0,0,0,1.66-1.416,1.875,1.875,0,0,0,.63-1.319,1.919,1.919,0,0,0-.68-1.416,12.858,12.858,0,0,0-1.86-1.367,10.1,10.1,0,0,1-1.75-1.318,3.13,3.13,0,0,0-1.76.586h0Zm-50.3,19.433a18.122,18.122,0,0,1,2.246-.1l12.009-1.66,0.69-.586a2.851,2.851,0,0,0-.49-1.464,1.333,1.333,0,0,0-.88-0.782,5.178,5.178,0,0,0-2.44-.683h-0.3l-5.952.976H994.02q-5.567.294-6.836,0.489t-1.27.976q2.05,2.834,3.711,2.832h0Zm36.715,10.254-5.46.977-12.11,1.66q-9.675.879-11.332,0.976l-5.762.2a0.893,0.893,0,0,0-.684,1.074,5.79,5.79,0,0,0,4.785,2.637h0.391l34.862-3.321a0.958,0.958,0,0,0,.68-1.172,5.652,5.652,0,0,0-2.14-2.148,5.519,5.519,0,0,0-2.84-.879h-0.39Zm-25.39-7.227h-0.09l-4.4.977a51.222,51.222,0,0,1-5.566.439q-2.541.051-3.37,0.1a2.818,2.818,0,0,0-1.416.44,2.959,2.959,0,0,0,1.075,2.392,3.431,3.431,0,0,0,2.343,1.123h0.293L997.633,745a3.963,3.963,0,0,1,1.074-.1,14.965,14.965,0,0,1,1.953-.1,24.137,24.137,0,0,0,3.66-.44,1,1,0,0,0,.93-0.927,5.094,5.094,0,0,0-1.71-1.954,3.987,3.987,0,0,0-2.29-.879h-0.3Zm-14.841,40.723,0.879,1.172q1.561,2.343,3.321,2.539a222.142,222.142,0,0,1,36.911-6.934c0.2,0.261,1.09,1.3,2.69,3.125a33.691,33.691,0,0,0,3.37,3.516,2.617,2.617,0,0,0,1.8-.439,2.8,2.8,0,0,0,.44-1.9v-1.074a9.384,9.384,0,0,0-1.17-5.176l-13.47-8.789a3.408,3.408,0,0,0-2.25.293,6.253,6.253,0,0,0,1.46,3.125l3.71,3.809q-17.775,3.029-25,3.418a46.362,46.362,0,0,1,12.105-11.133,0.936,0.936,0,0,0,.2-0.977l-0.98-2.734,34.48-2.637,0.87-.586a4.319,4.319,0,0,0-.14-1.074,3.783,3.783,0,0,0-1.66-1.562,7.84,7.84,0,0,0-4.25-.977,35.318,35.318,0,0,0-4.1.293l-20.31,2.246q-20.13,1.955-39.165,2.149l-0.976.586a3.7,3.7,0,0,0,1.465,2.832,5.513,5.513,0,0,0,3.515,1.074h0.684l20.407-1.66h3.03A66.984,66.984,0,0,1,992.555,778.3a16.416,16.416,0,0,0-4,.732q-2.637.732-2.637,1.709a1.483,1.483,0,0,0,.2.586h0ZM1098.9,710.234c-1.43-1.692-2.5-2.539-3.22-2.539a0.793,0.793,0,0,0-.78.879l-1.27,6.446a76.914,76.914,0,0,1-10.94,24.8V741h1.47q3.81-4.2,10.05-14.355l0.69,0.39c0.58,0,1.89-.129,3.9-0.39l33.5-4.493,1.17-.781a4.628,4.628,0,0,1-.29-0.683l-1.07-1.075a4.713,4.713,0,0,0-2.93-1.171h-0.39l-30.67,3.515h-2.24a14.854,14.854,0,0,1,2.78-4.492q2.385-3.026,2.39-3.711C1101.05,713.1,1100.33,711.928,1098.9,710.234Zm-18.65,16.993v-0.1l0.2-4.2a5.2,5.2,0,0,0-.49-2.393,4.44,4.44,0,0,0-1.03-1.367,10.7,10.7,0,0,0-1.61-1.025l-8.4-4a1.266,1.266,0,0,0-.88,1.171,63.02,63.02,0,0,0,5.47,7.471q3.81,4.639,5.76,5.42a2.214,2.214,0,0,0,.98-0.976h0Zm-19.43,43.75a86.122,86.122,0,0,0,7.81,9.472,1.882,1.882,0,0,0,2.34-.976l6.55-24.9a6.927,6.927,0,0,0,5.07,1.856l7.82-.391a25.724,25.724,0,0,0-.88,5.567,16.431,16.431,0,0,1-1.13,4.687,7.259,7.259,0,0,1-1.46,2.49,3.156,3.156,0,0,0-.93,1.416,1.191,1.191,0,0,0,.59,1.465l2.73,2.149a2.322,2.322,0,0,0,1.76-.1l2.44-1.758,20.8-1.562h3.71a48.223,48.223,0,0,1-2.73,8.886,7.074,7.074,0,0,1-2.74.489l-5.86-3.223h-0.97q-1.47.293-.78,1.855l9.96,9.18a0.611,0.611,0,0,0,.58.2,5.91,5.91,0,0,0,2.84-1.269,46.367,46.367,0,0,0,1.95-5.176l3.03-11.719,11.42-.488a3.315,3.315,0,0,0,.88-1.465q-1.86-2.538-6.93-2.539-3.03,0-4.98.2l1.95-13.085,0.29-.293q14.16-.294,14.16-2.93-1.56-2.441-5.76-2.637l-8.4.684q0.1-.294.93-6.25t2.78-7.91l-0.48-1.661-4.01-2.636a3.017,3.017,0,0,0-2.05.683l-2.24,2.539-23.83,2.442-3.13-2.93c-1.11-.195-1.72-0.1-1.85.293a8.572,8.572,0,0,0,.44,2.441,19.1,19.1,0,0,1,.53,2.54,87.334,87.334,0,0,1-2.05,14.843h-0.1l-12.69.782,3.51-15.039c0.2-1.822.13-2.9-.19-3.223a2.912,2.912,0,0,0-1.37.879l-11.03,34.765c-0.33,1.3-1.01,1.953-2.05,1.953a8.049,8.049,0,0,1-2.98-1.22,10.736,10.736,0,0,0-2.59-1.221c-0.46.2-.68,0.815-0.68,1.856h0Zm60.06-22.852-25.2,2.637,1.66-12.207q21.48-2.539,24.51-2.539h0.39Zm-2.06,17.676q-11.52,1.076-25.78,2.051l2.15-12.11,0.29-.293,25.1-2.637Zm-8.49-23.828-1.37-.684c-2.02-1.172-3.51-1.758-4.49-1.758a0.93,0.93,0,0,0-.39.781,61.045,61.045,0,0,0,4.39,8.106l0.78,0.1,0.79-.489,0.58-1.172,0.39-3.613Zm-3.22,14.99a11.7,11.7,0,0,1-1.66-1.514,2.942,2.942,0,0,0-1.66.489l0.19,0.781,2.34,7.422Q1107.3,766,1108.18,766h0.2a1.591,1.591,0,0,0,.68-0.684,8.95,8.95,0,0,0,.93-1.806,5.842,5.842,0,0,0,.44-2.1,3.511,3.511,0,0,0-.98-2.148A17.49,17.49,0,0,0,1107.11,756.963Zm-46.59-21.24a81.543,81.543,0,0,0,10.16,10.839h0.78l0.98-1.074v-1.269c0-3.971-.56-6.153-1.66-6.543q-8.79-3.417-10.06-3.418c-0.2,0-.29.195-0.29,0.586a3.209,3.209,0,0,0,.09.879h0Zm159.92-25.391a14.616,14.616,0,0,0-3.76-2.441,2.365,2.365,0,0,0-.98.683l-2.25,3.516q-7.6.783-15.43,2.148l-2.54-5.468q-2.145-.781-2.73.488a58.8,58.8,0,0,1,1.07,11.914,40.178,40.178,0,0,1-.29,5.078v0.2l-1.76,6.153q0,1.661,2.54,3.906l2.54,2.246h0.88l0.59-3.32h0.29l16.5-1.563V778.5c-0.32.913-.75,1.367-1.27,1.367l-0.19-.1-7.03-4.981h-1.96v1.367l9.87,11.133,1.56,0.586a4.541,4.541,0,0,0,2.1-2.148,6.8,6.8,0,0,0,1.02-3.418l0.3-65.918a4.075,4.075,0,0,1,1.12-1.953,3.948,3.948,0,0,0,1.12-2.149A3.52,3.52,0,0,0,1220.44,710.332Zm-22.12,21.094v-4.492l13.47-1.954a6.034,6.034,0,0,0,1.08-.976l-0.49-.977q-2.055-2.831-4.88-2.343l-4.59,1.367-4.59.683v-4.589l16.6-2.149v13.77Zm-21.2,13.281v0.1l0.59,2.929,0.1,19.532a9.569,9.569,0,0,1-1.37,4.98q0,1.465,2,4.395t3.57,2.929q0.675-1.268.68-5.566a119.268,119.268,0,0,1,12.89-1.367,17.323,17.323,0,0,1,1.22,2.148,9.341,9.341,0,0,0,1.61,2.442q3.135,0,3.13-13.575c0-.325-0.02-1.123-0.05-2.392s-0.05-2.164-.05-2.686q0-7.713,2.64-10.058l-0.2-1.075a5.331,5.331,0,0,0-2.34-1.953,19.185,19.185,0,0,1-2.15-1.269,3.4,3.4,0,0,0-1.85.488l-2.25,2.246a5.133,5.133,0,0,1-1.17.1q-10.545,1.076-11.72,1.074a8.091,8.091,0,0,1-.98-1.66,9.044,9.044,0,0,0-1.46-2.2,2.572,2.572,0,0,0-1.96-.83,1.218,1.218,0,0,0-.88,1.269h0Zm19.34,24.707a5.757,5.757,0,0,0-3.22-1.562,33.809,33.809,0,0,0-5.13.976,31.145,31.145,0,0,1-5.42.977v-6.934l11.33-1.269a2.136,2.136,0,0,0,1.27-.879q0-2.052-3.91-3.516a40.25,40.25,0,0,0-4.59.537c-2.34.359-3.71,0.537-4.1,0.537v-5.664q7.515-.879,14.16-1.562a53.807,53.807,0,0,1,.29,6.152,102.824,102.824,0,0,1-.68,12.207h0Zm-36.23-54.785v60.156a10.849,10.849,0,0,1-1.76,6.153,6.574,6.574,0,0,0,1.08,2.148c0.45,0.586,1.79,2.083,4,4.492,0.65,0,.98-0.163.98-0.488l0.29-47.363a109.536,109.536,0,0,0,11.33-1.368q9.075-1.367,9.57-1.855l-0.29-1.074-1.57-1.66a79.961,79.961,0,0,1,.98-14.649l1.07-1.758a32.664,32.664,0,0,0,2.15-3.125l-1.17-1.269-3.71-2.442a2.53,2.53,0,0,0-1.86.684l-2.24,2.832-14.26,1.855-0.1-.2-2.73-5.957h-0.59a4.685,4.685,0,0,0-1.07-.1,1.541,1.541,0,0,0-.78.977Zm4.59,5.078,15.14-1.953q-0.2,8.008-.88,16.016-10.065,1.563-14.26,1.953v-6.348a3.963,3.963,0,0,1,1.07-.1q11.535-1.072,12.6-1.855a3.639,3.639,0,0,0-1.17-2.344,4.835,4.835,0,0,0-3.71-1.269,24.86,24.86,0,0,0-4.74.781,28.708,28.708,0,0,1-4.05.781v-5.664ZM367.945,907.7L345,910.332h-1.953l0.1-6.738,1.074,0.683a8.812,8.812,0,0,0,2.93.391q0.681,0,2.832-.2l21.191-2.637,1.074-.781q-0.2-1.66-4.59-2.735-2.929.49-12.6,1.563t-11.426,1.074h-0.586l0.1-5.762q12.205-1.268,22.754-3.222,6.346-.975,7.421-1.27a1.141,1.141,0,0,0,1.075-.976,8.139,8.139,0,0,0-2.491-1.661,7.322,7.322,0,0,0-3.076-.878q-0.2,0-11.767,1.757T343.141,890.7H342.75l-2.246-4.687a2.157,2.157,0,0,0-2.149-1.27,3.3,3.3,0,0,0-.39,1.66v0.1l0.293,2.539,0.1,32.324a3.886,3.886,0,0,1-1.074.1q-17.579.783-21.484,1.758-0.587.1-.586,1.269,1.659,2.541,3.125,2.539l18.359-.781L336.5,950.859q0,0.783-1.66,3.223a11.5,11.5,0,0,0-1.66,2.832,4.238,4.238,0,0,0,1.465,2.295,4.047,4.047,0,0,0,2.734,1.514,1.132,1.132,0,0,0,.781-0.2l18.262-13.672,0.293-1.464a1.444,1.444,0,0,0-1.367-.684l-13.77,7.52H341.09V932.305a5.91,5.91,0,0,1,.586-1.709,6.549,6.549,0,0,0,.586-1.612,5.059,5.059,0,0,0-.977-1.953q-0.977-1.464-1.074-1.66h4.59a1.376,1.376,0,0,0-.1,1.66q11.426,9.962,30.078,28.907l0.781,0.488q1.074,0,3.418-.2l13.379-2.148,1.368-.879-0.1-.391q-2.345-.585-5.713-1.074t-5.518-.976a34.847,34.847,0,0,1-5.175-1.709,27.8,27.8,0,0,1-6.494-3.907,82.509,82.509,0,0,1-7.667-6.884,4.808,4.808,0,0,1,.684-0.586L369.8,932.7l2.441-1.562q3.026-1.562,3.028-3.516v-0.293l-0.489-1.269a16.472,16.472,0,0,1-1.465-3.125l17.774-1.856,0.879-.781a2.1,2.1,0,0,0-.293-1.367,5.806,5.806,0,0,0-2.49-1.074,12.969,12.969,0,0,0-3.077-.586h-0.195l-40.332,3.515h-2.539l0.1-7.715a8.62,8.62,0,0,0,3.027,1.465h0.1l25.293-3.125q1.367-.78,1.367-1.367-3.127-2.343-4.883-2.344h-0.1Zm-7.324,28.418a167.251,167.251,0,0,1-12.988-11.23l21-1.563h1.465q-2.736,5.566-9.473,12.793h0Zm123.242,23.145L482.3,940.312l-0.586-1.074a2.1,2.1,0,0,0-1.563,1.074l-0.976,11.133a2.186,2.186,0,0,1-1.465.782A24.662,24.662,0,0,1,470,941.875q-2.734-6.542-2.734-10.547l-0.1-35.644V895a3.946,3.946,0,0,1,2.93-3.418v-2.539l-4.3-3.711q-1.271,0-2.735,1.807t-1.562,1.9q-3.516.49-18.066,1.758t-17.579,1.465l-3.222-5.762a1.876,1.876,0,0,0-.586-0.1,1.137,1.137,0,0,0-1.465.782,50.132,50.132,0,0,1,1.074,11.523q0,0.2.049,3.857t0,5.127q-0.049,1.465-.146,5.469t-0.391,6.4q-0.293,2.394-.732,6.347a45.791,45.791,0,0,1-1.221,6.836q-0.783,2.881-1.758,6.3a41.407,41.407,0,0,1-2.393,6.4,39.332,39.332,0,0,1-3.173,5.518,34.4,34.4,0,0,1-3.272,3.955q-1.9,2-2.93,3.174a3.328,3.328,0,0,0-1.025,1.855,1.488,1.488,0,0,0,.195.586,4.643,4.643,0,0,0,2.686-1.025,57.007,57.007,0,0,0,5.225-4.834q11.522-12.694,12.6-35.059l1.074-23.535,34.082-2.929h2.442l0.2,35.644q0,13.183,6.983,22.656t12.939,9.668a2.338,2.338,0,0,0,.781-1.66v-0.195Zm-29.785-46.485a3.113,3.113,0,0,1-2.344,1.661l-5.957.586,0.1-9.082q1.268-.294,3.418-0.782,5.567-1.267,6.787-1.709a1.518,1.518,0,0,0,1.221-1.416,10.376,10.376,0,0,0-.781-3.613q-0.391-1.268-2.442-1.27-9.571,5.079-25.195,9.668l-0.977.879H428a0.263,0.263,0,0,0,.146.1,0.932,0.932,0,0,1,.245.1,1.085,1.085,0,0,0,.488.1,7,7,0,0,1,.732.049,9.065,9.065,0,0,0,1.026.049h0.879q1.853,0,10.351-1.27l-0.293,8.5-6.445.391-0.781-.976a19.71,19.71,0,0,0-2.051-2.539q-1.662-.2-1.856.1,0,1.857.2,5.127t0.195,4.932a28.462,28.462,0,0,1-1.27,9.277,3.928,3.928,0,0,0,.586,2.051l2.832,3.613,1.465,0.1a18.13,18.13,0,0,0,.489-5.078l6.933-.293-0.293,11.523q-8.985,1.172-17.383,2.149l-0.879.488q0,0.976,1.612,2.734a5.052,5.052,0,0,0,3.857,1.758,4.588,4.588,0,0,0,1.074-.1l5.957-1.66,19.532-4.394h1.562a63.336,63.336,0,0,0,3.418,6.64,2.745,2.745,0,0,0,2.588-2,9.326,9.326,0,0,0,.83-3.466,2.247,2.247,0,0,0-.586-1.661l-8.2-8.886-1.66-.2a2.736,2.736,0,0,0-.1,1.368l1.758,4.98a39.135,39.135,0,0,0-4.834.586q-3.661.586-4.346,0.586l0.1-10.84,11.133-1.172q0.879-.1.879-1.66a1.149,1.149,0,0,1-.44-0.293,8.218,8.218,0,0,0-.879-0.635q-0.537-.34-1.123-0.732a23.153,23.153,0,0,0,.977-4.785,12.3,12.3,0,0,1,1.172-4.053,6.1,6.1,0,0,1,1.367-1.855,1.2,1.2,0,0,0,.586-0.928q0-1.172-1.709-2.588a4.96,4.96,0,0,0-2.783-1.416Q454.664,911.5,454.078,912.773Zm-2.93,14.454-5.273.488v-8.594h0.1l6.738-.586Zm-16.21,1.367v-8.887l6.64-.293V928.2Zm120.7-17.578,2.148,4.394q-1.563,0-5.469.44t-4.3.439A105.847,105.847,0,0,1,561.3,903.008a3.759,3.759,0,0,0,.39-1.953l-1.172-4.59q-1.368-2.051-2.539-.586l-1.172,2.148q-1.368,2.248-3.124,4.59l-8.2,1.367a51.6,51.6,0,0,1,9.082-10.254v-1.074l-1.367-4.687a2.85,2.85,0,0,0-1.855-1.367l-0.879.976a116.22,116.22,0,0,1-7.715,14.746q-0.2,1.076-2.246,2.051t-2.149,1.953a4.394,4.394,0,0,0,3.809,2.246,22.42,22.42,0,0,0,4.688-.976,26.607,26.607,0,0,1,4.2-.977q-4.007,5.666-7.91,10.156a6.9,6.9,0,0,0-1.563.244,6.689,6.689,0,0,0-1.855.782,1.2,1.2,0,0,0-.782,1.123l1.075,1.367a3.442,3.442,0,0,0,2.539,1.269l5.078-.488a11.327,11.327,0,0,1,2.148,3.076,7.147,7.147,0,0,1,.879,2.881l-11.328,1.27q-4-12.3-4-29.981a30.978,30.978,0,0,1,.391-5.615,12.145,12.145,0,0,1,.732-2.685,2.632,2.632,0,0,0,.342-1.075,3.033,3.033,0,0,0-1.074-2.05l-4.492-3.028q-2.149,0-2.051.586a15.847,15.847,0,0,1,1.855,6.836l0.391,9.766q0.292,5.567,1.074,11.914t1.514,10.84q0.732,4.493.732,5.078-0.585,0-7.275.634t-7.08.635q2.051-4.588,2.051-5.468v-0.2l-2.54-4a5.521,5.521,0,0,1,1.075-.439q0.975-.342,2.2-0.83a16.372,16.372,0,0,1,1.611-.586,12.939,12.939,0,0,0,2.246,3.515h0.489l0.586-.39,0.878-2.735a9.8,9.8,0,0,0,.2-1.171q0-1.561-2.539-4.493t-4.688-3.222a3.013,3.013,0,0,0-.195,1.269,5.667,5.667,0,0,0,.879,2.637,7.819,7.819,0,0,1,.976,2.246l-11.425,2.149a87.6,87.6,0,0,1,15.039-15.821,11.865,11.865,0,0,0,.2-1.66l-1.074-4.59a1.624,1.624,0,0,0-1.66-.879l-5.372,8.692-8.007,1.172a75.865,75.865,0,0,1,9.375-12.012l-0.293-2.442q-0.49-1.172-2.637-4.882a2.022,2.022,0,0,0-1.27.586,90.408,90.408,0,0,1-9.277,19.14h-0.976q-2.833.2-2.832,2.051a3.7,3.7,0,0,0,1.513,1.269,6.361,6.361,0,0,0,2.295,1.075,1.374,1.374,0,0,1,.586-0.1q6.153-1.854,8.691-1.855l-9.082,9.863q-3.614.976-3.613,2.832a5.041,5.041,0,0,0,4.395,2.539,22.113,22.113,0,0,0,4.785-.977q3.516-.975,4.1-1.074,0,2.344-.683,9.082-5.079.684-12.7,0.977l-6.153.293q-1.171.2-1.172,1.855a4.779,4.779,0,0,0,1.9,1.856,6.525,6.525,0,0,0,2.49.39q2.343,0,7.91-.537t6.445-.537q-3.906,12.012-17.578,24.512l-0.2.586a2.876,2.876,0,0,0,1.855.39q13.77-9.863,19.239-22.168l9.765,9.668a0.843,0.843,0,0,0,.586.293,1.784,1.784,0,0,0,1.27-.781c0-.195.015-0.471,0.049-0.83s0.048-.764.048-1.221a6.467,6.467,0,0,0-1.806-4.931q-1.809-1.709-9.326-4.932l0.585-1.465q12.891-.975,16.7-1.172a43.452,43.452,0,0,0,5.957,12.207,70.222,70.222,0,0,1-9.766,7.862q-4.592,2.979-7.031,4.3a10.412,10.412,0,0,0-3.516,2.783l1.465,0.1a37.906,37.906,0,0,0,10.5-4,49.94,49.94,0,0,0,11.279-7.911l1.661,1.856q11.426,11.814,22.168,12.6a2.585,2.585,0,0,0,1.074-1.855,170.968,170.968,0,0,0-2.442-17.676l-0.976-1.465q-1.076.49-1.465,5.469-0.1.978-.147,2.2c-0.033.815-.065,1.416-0.1,1.807s-0.066.864-.1,1.416a6.275,6.275,0,0,1-.146,1.172c-0.066.229-.147,0.488-0.244,0.781a1.037,1.037,0,0,1-.391.586c-0.163.1-.359,0.212-0.586,0.342a1.985,1.985,0,0,1-.781.244,9.065,9.065,0,0,1-1.026.049q-9.96-3.9-13.574-10.352a88.179,88.179,0,0,1,10.742-11.23,1.1,1.1,0,0,0-.293-1.563l-2.929-1.367q2.343-.292,6.933-0.635t6.934-.732q2.343-.389,2.441-1.172-0.879-3.318-6.25-3.32h-0.293l-9.472,1.074a5.151,5.151,0,0,0-1.465-3.418l-3.809-2.93,8.4-2.246a8.5,8.5,0,0,1,.976,2.1,5.878,5.878,0,0,0,1.074,2.1,9.392,9.392,0,0,0,1.221.147,1.8,1.8,0,0,0,1.465-1.074,5.8,5.8,0,0,0,.732-3.174q0-1.562-2.978-4.541a14.688,14.688,0,0,0-5.811-3.858,1.575,1.575,0,0,0-.1,1.661h0Zm-10.352,30.468A32.557,32.557,0,0,1,540.9,932.4l0.39-.1,10.449-.782q-1.172,4.787-6.445,9.961h0ZM632.4,883.232a0.477,0.477,0,0,0-.293.2,1.071,1.071,0,0,0-.146.342,4.96,4.96,0,0,0-.1.634c-0.033.293-.065,0.6-0.1,0.928s-0.1.766-.2,1.318-0.195,1.157-.293,1.807-0.261,1.433-.488,2.344-0.473,1.855-.732,2.832l-13.282.683a10.662,10.662,0,0,1,.44-2.1,10.147,10.147,0,0,0,.439-2.393,1.389,1.389,0,0,0-.1-0.586l-5.371-4.492h-1.758l-0.1,1.074a30.926,30.926,0,0,1,1.758,9.082h-1.758l-21.777,1.758a1.043,1.043,0,0,0-1.074.977c0.064,0.065.308,0.375,0.732,0.927s0.764,0.977,1.025,1.27a5.143,5.143,0,0,0,1.075.879,2.505,2.505,0,0,0,1.367.439h2.539l18.262-1.953v0.1l-1.563,4.687a5.754,5.754,0,0,0,1.465,3.125,26.1,26.1,0,0,1-4.981.391l-0.2-.2-1.269-2.051q-1.37-2.538-3.223-2.539a1.743,1.743,0,0,0-.586.879,60.717,60.717,0,0,1,.977,12.011,29.124,29.124,0,0,1-1.172,9.18l-0.977,1.66a37.693,37.693,0,0,0,5.078,6.446l0.781,0.2a11.321,11.321,0,0,0,.684-4.785q1.659-.294,12.891-1.074v5.078l-0.293.293-19.434,1.953-2.93-4.981q-2.247,0-2.246.586l0.391,4.883q0.488,5.079.488,8.3a39.437,39.437,0,0,1-.976,9.863l-1.075,1.856q0,1.269,5.274,6.543a0.866,0.866,0,0,0,.879-0.293l0.293-22.852,19.629-2.051-0.1,7.91-12.109,1.465a1.713,1.713,0,0,0-1.465,1.758q1.659,3.224,3.613,3.418,4.59-1.268,14.4-3.662t11.28-2.393a1.741,1.741,0,0,1,.83,1.026,18.834,18.834,0,0,0,1.416,2.246,5.283,5.283,0,0,0,1.855,1.709,2.162,2.162,0,0,0,1.319-1.27,4.971,4.971,0,0,0,.537-2.246q0-2.83-3.418-5.908t-6.739-3.076q0.1,1.662,2.442,4.687l-9.57.977v-6.738l0.293-.293,21-2.149h2.636L647.145,949.1a17.579,17.579,0,0,1-.538,3.613q-0.537,2.343-1.513,2.93a17.433,17.433,0,0,1-4.688-1.319,17.423,17.423,0,0,0-4.687-1.318V953.5a53.166,53.166,0,0,0,9.668,9.082l1.465,0.293h0.2a1.92,1.92,0,0,0,1.025-.342,4.916,4.916,0,0,0,1.27-1.562,10.036,10.036,0,0,0,1.123-3.174l1.953-11.816q0.293-2.539.391-5.762a22.4,22.4,0,0,1,.586-4.736,7.8,7.8,0,0,1,.976-2.54c0.325-.422.635-0.83,0.928-1.22a1.845,1.845,0,0,0,.439-1.074q0-1.173-2.05-2.881t-2.735-1.709a1.852,1.852,0,0,0-1.416.732,6.643,6.643,0,0,0-1.074,1.758,4.714,4.714,0,0,1-.733,1.318l-19.921,1.953h-3.125l0.2-5.078,18.164-1.367,0.2-.293L643.824,924v-0.1q0-.879-1.758-2.441,1.074-12.987,5.079-16.113a6.329,6.329,0,0,0-.293-2.149,10.187,10.187,0,0,1-2.295-1.611,7.534,7.534,0,0,0-2.588-1.612c-0.586.391-.913,0.62-0.977,0.684l-2.051,3.516a45.266,45.266,0,0,0-4.834.439q-3.466.44-3.759,0.44a63.062,63.062,0,0,1,3.906-7.715l25.293-1.856q0.975-.1.976-1.66a7.291,7.291,0,0,0-1.953-2.1,3.565,3.565,0,0,0-1.953-.635q-0.976,0-2.344.1l-18.554,1.758q2.245-3.417,2.246-5.371a13.054,13.054,0,0,0-2.442-2.783q-1.757-1.611-2.636-1.611A2.09,2.09,0,0,0,632.4,883.232Zm-6.152,22.217-9.18,1.172-0.1-7.812h0.293l11.718-.782Zm6.836,7.324-8.2,1.368v-4.1l14.355-1.66-2.343,13.281-12.012.977v-4.2l10.84-1.368a1.216,1.216,0,0,0,.976-0.683,1.964,1.964,0,0,0-.537-2.2,5.753,5.753,0,0,0-1.9-1.611ZM607.5,915.9v-4.1h0.293l12.5-1.27v4.1Zm0,8.3v-5.273q1.172,0.879,4.492.879h0.684l7.617-.879v4.1ZM728.688,891q-10.645,1.37-13.184,1.367h-0.391a10.216,10.216,0,0,1,.1-1.172,10.907,10.907,0,0,0,.1-1.269,2.633,2.633,0,0,0-.977-2.442q-6.25-3.71-7.715-3.906a3.977,3.977,0,0,0-.195,1.27l5.273,7.617-0.2.195-28.418.977a1.18,1.18,0,0,0-.879.781q2.733,3.42,5.371,3.613l7.324-.781q24.024-1.951,49.8-3.516a0.873,0.873,0,0,0,1.074-.878q-3.222-3.223-6.347-3.223Zm-33.643,27.686a8.768,8.768,0,0,0,2.978,2.588l0.2-.1,0.488-.586,0.2-2.734h1.563q10.155-.682,11.23-0.684v4.394q-0.1.1-18.554,1.172-1.27,0-1.27.684a10.162,10.162,0,0,0,4.785,3.125l15.039-1.172-0.2,4.688-28.711,1.367-0.391.781q2.637,3.614,4.981,3.613,1.951,0,9.619-.83t9.814-.928q-9.571,8.3-31.738,19.336v0.586l0.1,0.1,0.976,0.1q8.985-.682,24.317-9.668l0.586,1.074v0.1l0.586,6.347a8.657,8.657,0,0,1-.733,3.711,9.123,9.123,0,0,1-1.416,2.3,2.166,2.166,0,0,0-.683,1.025,0.661,0.661,0,0,0,.2.489l2.148,2.051a16.4,16.4,0,0,0,1.758.39,0.8,0.8,0,0,0,.586-0.195l14.844-9.766,0.391-.488a8.843,8.843,0,0,0,.683-0.977,1.751,1.751,0,0,0,.293-0.878,19.036,19.036,0,0,0-4.883,1.074l-9.082,3.906h-0.586q0-.293-0.048-1.27c-0.034-.65-0.049-1.171-0.049-1.562q0-4.784,2.148-6.25a2.841,2.841,0,0,0-1.66-2.295q-1.662-1.026-1.758-1.123l10.156-7.227q4,4.591,22.559,24.512l1.758,0.586h0.488q13.28-.1,13.867-2.051a2.355,2.355,0,0,0-.781-0.586l-4.98-1.367a42.324,42.324,0,0,1-18.36-11.133,22.559,22.559,0,0,0,2.832-1.953,35.252,35.252,0,0,1,3.955-2.637,9.687,9.687,0,0,1,3.467-1.269v-0.879l-1.953-6.25h8.594l1.269-.781-0.879-1.172q-2.343-2.733-4.2-2.734h-0.195l-23.047,1.855H715.9q0-3.125.1-4l21.289-1.562a1.174,1.174,0,0,0,.977-1.172q-3.713-2.538-5.176-2.735h-1.855L715.9,921.465l0.1-4.688,18.946-1.367,0.39-.39a2.15,2.15,0,0,0-.39-1.368l-1.954-1.757a23.827,23.827,0,0,0,.342-3.467,25.756,25.756,0,0,1,.684-4.834,5.286,5.286,0,0,1,2.1-3.223L736.5,899.1q0-.587-1.855-2a5.637,5.637,0,0,0-2.735-1.416L728.3,899.1q-0.684,0-12.647,1.025t-17.92,1.025l-2.246-2.441-0.976-.488-0.488.2q1.072,9.18,1.074,11.914a9.711,9.711,0,0,1-.782,3.125,12.1,12.1,0,0,0-.781,2.441A5.7,5.7,0,0,0,695.045,918.682Zm34.228-6.494-13.281,1.074v-3.223l11.426-.977c0.325,0,.488-0.422.488-1.269a1.126,1.126,0,0,1-.439-0.342c-0.229-.227-0.456-0.439-0.684-0.635a3.8,3.8,0,0,0-.879-0.537,2.345,2.345,0,0,0-.927-0.244l-8.985.586V903.5l13.672-.879ZM698.9,914.336v-9.668l12.6-.879V907.4l-11.23.391a0.832,0.832,0,0,0-.782.781q1.074,2.345,4.688,2.344l7.324-.684v3.516Zm27.735,28.418L715.9,933.379q13.768-.975,17.773-1.074-0.879,5.372-7.031,10.449h0Zm124.121-22.363q0.389-.39,3.32-4.3a23.7,23.7,0,0,1,4.492-4.737,14.16,14.16,0,0,1,2.881-1.806,1.218,1.218,0,0,0,.928-0.879l-0.1-1.074-0.781-1.27-4-3.32a3.8,3.8,0,0,0-2.49,1.562,15.529,15.529,0,0,1-1.611,1.66l-2.051.293q-15.528,2.443-18.946,2.442H831.91q0.587-1.268,1.563-3.906,1.268-3.224,2.343-5.713t1.709-3.614q0.635-1.12,1.172-2.2t0.635-1.221a3.1,3.1,0,0,0,.244-0.781,1.194,1.194,0,0,0-.146-1.025l-0.879-1.66-2.735-3.321-0.634-.634a6.986,6.986,0,0,1-.537-0.586,1.257,1.257,0,0,0-.391-0.342q-1.662,0-1.953.488-2.736,26.954-14.063,46.192v1.171l0.391-.1,2.148-1.074a60.451,60.451,0,0,0,9.864-17.481q0.488-.1,4.785-0.732t9.57-1.27q5.274-.635,7.031-0.635h0.586a20.871,20.871,0,0,1-1.22,2.735,33.974,33.974,0,0,0-1.709,4,10.349,10.349,0,0,0-.684,3.32Zm-11.524-3.614a17.307,17.307,0,0,0-3.222-2.734q-0.783.49-.782,2.344a46.2,46.2,0,0,1-.781,6.933q-4.3,22.462-28.906,36.914a3.509,3.509,0,0,0-1.66,1.856l1.367,0.1q9.961-2.835,19.092-11.231a47.089,47.089,0,0,0,12.939-19.336L849.1,957.109a3.484,3.484,0,0,0,1.367,1.709,4.275,4.275,0,0,0,1.562.635,17.03,17.03,0,0,0,2.149.1l11.426-.391,1.074-.488a0.8,0.8,0,0,0,.195-0.586v-0.2l-0.879-1.368q-7.324-1.172-11.328-4.882a48.7,48.7,0,0,1-10.644-14.209q-4.591-8.838-4.59-12.159a4.954,4.954,0,0,1,.927-2.636,6.194,6.194,0,0,0,1.026-2.93Q841.383,918.927,839.234,916.777Zm-39.648,20.215a2.428,2.428,0,0,0,1.074-.195l0.293-7.324,14.258-1.856,0.391-1.269q0.1-.487-1.172-2.051l1.269-14.16a4.939,4.939,0,0,1,2.539-3.711,3.626,3.626,0,0,0-.879-2.344l-3.222-2.734a2.584,2.584,0,0,0-.782-0.1q-1.075,0-2.148,2.051l-1.074,2.051-9.375.878-2.93-5.371-1.66-.2a1.442,1.442,0,0,0-.684,1.367l0.684,4.1q0.2,8.008.2,16.211V924.3a42.509,42.509,0,0,1-.879,4.59,1.774,1.774,0,0,1-.439.976,1.933,1.933,0,0,0-.44.782,26.268,26.268,0,0,0,4.981,6.347h0ZM809.547,924l-0.391.293-8.008.976-0.2-14.746,10.254-1.172ZM916.48,882.109l-0.488.782L924,893.633a0.565,0.565,0,0,0,.391.1,3.347,3.347,0,0,0,1.757-.292,29.21,29.21,0,0,0,1.075-5.176,18.534,18.534,0,0,0-10.743-6.153h0Zm25.879,10.743-38.086,3.418h-2.636l-2.735-6.739h-0.488a5.486,5.486,0,0,0-1.074-.195,1.054,1.054,0,0,0-.781.293v0.1l0.781,8.5v2.636q0,33.692-12.11,53.321-0.2.293-1.757,2.3a16.679,16.679,0,0,0-1.758,2.49,2.811,2.811,0,0,0,.293.39l1.855,0.391q16.6-17.48,16.992-46.582l0.489,0.488,2.734,0.293,10.254-.586-1.27,5.86-0.585.488a5.14,5.14,0,0,0,1.269,2.734l3.809,4.3,0.683,0.1q0.586-.78.586-4l17.969-.879,0.391-.293a2.219,2.219,0,0,0,.048-1.514,20.293,20.293,0,0,0-1.709-2.49,33.092,33.092,0,0,1,1.075-6.445l15.722-1.465h0.2l0.683-.488a1.939,1.939,0,0,0,.2-0.879,1.715,1.715,0,0,0-.977-1.123,14.81,14.81,0,0,0-2.832-1.318h-0.1l-12.6,1.074a61.508,61.508,0,0,1,2.05-6.348,2.155,2.155,0,0,0-.488-1.172l-2.246-2.051,2.93-.293q2.246-.193,5.761-0.488,5.86-.389,7.032-0.635A1.344,1.344,0,0,0,953.2,894.9v-0.1l-0.39-.489a3.533,3.533,0,0,0-.538-0.586c-0.1-.064-0.309-0.227-0.634-0.488a3.452,3.452,0,0,0-.879-0.537,8.015,8.015,0,0,0-1.074-.293,6.977,6.977,0,0,0-1.465-.146Zm-9.082,7.617-0.976,6.836-0.489.293-12.988.976v-0.293l0.684-3.613a10.482,10.482,0,0,0,.293-2.344,4.713,4.713,0,0,0-1.465-3.613l14.453-.977a7.089,7.089,0,0,1,.488,2.735h0Zm-2.343,17.773a103.224,103.224,0,0,0-12.11.977v-6.348l12.793-.976Zm-29.493-8.2,0.293-9.668,11.719-1.172a7.2,7.2,0,0,1,.781,2.686q0.1,1.319.1,6.885Zm24.61,38.672q3.417,2.541,6.885,5.176t4.638,3.613a21.128,21.128,0,0,0,2.735,1.9,7.9,7.9,0,0,0,2.441,1.075,14.975,14.975,0,0,0,2.344.146h0.488l4.395-.586q2.343-.391,5.468-0.977,4-.585,4-1.464l-0.781-.391q-16.9-.783-31.348-12.7a97.2,97.2,0,0,0,6.69-7.666,43.966,43.966,0,0,1,7.959-8.057,3.353,3.353,0,0,0-.684-2.2,7.6,7.6,0,0,0-2-1.612,9.822,9.822,0,0,1-1.806-1.269,2.928,2.928,0,0,0-1.563.488l-2.637,2.539q-4.591.586-8.5,1.026t-6.2.683q-2.3.246-4.2,0.391t-2.783.2c-0.586.034-1.108,0.066-1.563,0.1a3.374,3.374,0,0,0-1.025.2,1.4,1.4,0,0,0,.049,2.735,2.088,2.088,0,0,0,1.757.927h0.293l1.27-.2q16.7-1.953,19.433-1.953H932.3a69.39,69.39,0,0,1-8.594,11.523,97.152,97.152,0,0,1-8.691-7.226q-3.42,0-4.1.879l0.391,0.976,9.277,7.813a7.317,7.317,0,0,0-.732.586,1.642,1.642,0,0,1-.538.39q-5.664,4.494-10.4,7.569a61.644,61.644,0,0,1-7.324,4.248Q899,958.77,897.1,959.453a21.816,21.816,0,0,0-2.539,1.026,1.379,1.379,0,0,0-.733,1.123H894.7q5.077,0,13.477-3.809a70.907,70.907,0,0,0,16.211-10.352Zm108.2-9.082,0.59-2.051a11.358,11.358,0,0,0,.1-1.66,5.651,5.651,0,0,0-.98-3.516l-13.18-7.226-1.37-.2a3.526,3.526,0,0,0-.39,1.758l10.84,10.742a5.226,5.226,0,0,1,.88.879,11.463,11.463,0,0,0,1.46,1.416,2.378,2.378,0,0,0,1.47.635,5.865,5.865,0,0,0,.58-0.781h0Zm-54.2,15.82L999.2,953.5q11.617-1.171,24.415-2.051,0.78,0,21.87-1.172a1.227,1.227,0,0,0,.79-0.341,0.922,0.922,0,0,0,.39-0.635c0-.391-0.66-1.123-1.96-2.2a5.794,5.794,0,0,0-3.51-1.612h-0.59l-8.98,1.27q-12.4,1.563-20.22,1.758l0.1-26.563q8.79-1.268,18.16-2.051,6.165-.488,6.16-1.757c-1.83-2.474-3.94-3.711-6.35-3.711h-0.39l-5.76,1.367a75.856,75.856,0,0,1-11.92,1.855v-0.1l-0.1-8.106a15.493,15.493,0,0,1,.88-5.566,19.884,19.884,0,0,0,.88-2.442v-0.1l-0.49-1.172-2.14-2.344a1.133,1.133,0,0,1,.48-0.2l5.47-.879,21.1-2.051a1.281,1.281,0,0,0,.97-1.367,8.767,8.767,0,0,1-1.27-.977,19.119,19.119,0,0,0-2.49-1.758,4.783,4.783,0,0,0-2.39-.781h-0.19l-4.69.977a241.468,241.468,0,0,1-24.61,3.369q-12.21,1.026-17.14,1.367t-4.932,1.318q1.366,1.37,1.709,1.709a8.071,8.071,0,0,0,1.612,1.026,5.141,5.141,0,0,0,2.441.683q3.417-.193,10.205-1.123a84.878,84.878,0,0,1,8.935-.927,21.246,21.246,0,0,1,1.56,8.2l-0.19,12.012q-20.61,1.856-23.147,1.953l-0.976.586a2.844,2.844,0,0,0,1.074,1.855l2.93,1.563q2.439,0,3.711-.1l16.508-1.758V949l-0.2.293-21.68,1.074a3.886,3.886,0,0,1-1.074.1q-8.788,0-9.375.1-0.489,0-.488.879,2.637,4.006,5.469,4h0.293Zm149.215-59.765q0-2.44,3.13-4.1a4.2,4.2,0,0,0-1.17-2.93l-3.32-3.125a4.086,4.086,0,0,0-2.69,1.612c-1.01,1.074-1.55,1.645-1.61,1.709-1.63.065-4.44,0.293-8.45,0.683s-6.46.586-7.37,0.586l-2.93-5.859a6.679,6.679,0,0,0-2.15.195,7.938,7.938,0,0,0,.2,3.418q0.48,2.051.48,2.246l0.1,19.531v0.684l-1.37,7.813a3.493,3.493,0,0,0,.69,2.05l2.93,3.711c1.1,0.131,1.66.034,1.66-.293v-6.25l0.39-.293q2.535-.1,16.89-0.781l-0.19,36.621a1.606,1.606,0,0,1-1.17.684l-6.64-4.981a3.779,3.779,0,0,0-1.37-.39c-0.72,0-1.01.456-.88,1.367a78.474,78.474,0,0,0,6.25,7.617q4,4.395,5.66,4.395,2.835-2.834,2.84-5.664Zm-21.68,17.089v-7.128l2.25-.1q8.79-.293,12.5-1.758l0.88-.977q-0.495-2.244-5.76-2.246h-0.49l-9.38.782V894.9l16.9-1.464V911.5ZM1096.56,890.8a5.347,5.347,0,0,0-2.1-1.953,10.584,10.584,0,0,1-2.2-1.66,2.733,2.733,0,0,0-1.66.585l-2.54,2.832-13.67,1.27-2.64-5.469a2.363,2.363,0,0,0-2.14-.781,2.445,2.445,0,0,0-.59,1.465v0.1l0.59,3.124,0.19,59.18a2.791,2.791,0,0,1-.1.879l-1.56,5.274q0.885,2.147,5.08,6.347c0.71,0,1.07-.131,1.07-0.39l0.3-42.872,18.84-1.464,1.08-.977a0.59,0.59,0,0,0,.1-0.391l-0.1-1.074-1.76-2.051,1.76-16.8a6.188,6.188,0,0,1,2.34-3.809Zm-21.97,12.3v-6.933l15.23-1.465-1.46,18.359-13.77,1.368V907.5q10.44-.488,12.59-2.441a3.165,3.165,0,0,0-1.36-2.247,4.448,4.448,0,0,0-2.93-1.171,12.67,12.67,0,0,0-3.13.634,15.57,15.57,0,0,1-2.54.635Zm97.75,11.084a11.415,11.415,0,0,1-3.13,2.393,3.135,3.135,0,0,0-1.46.977l0.1,0.293,0.78,1.562c0.78,1.367,1.63,2.051,2.54,2.051h0.39l1.85-.586a7.01,7.01,0,0,1,3.03-.977,1.939,1.939,0,0,1,1.17.293q-1.65,2.637-6.44,6.055l-0.98.488c-1.43.457-2.24,1.01-2.44,1.66,1.5,2.085,2.86,3.125,4.1,3.125a44.9,44.9,0,0,1,12.31-3.125,2.693,2.693,0,0,1,.63.928,15.67,15.67,0,0,0,.83,1.416,1.886,1.886,0,0,0,1.17.781c0.52,0.132,1.11-.227,1.76-1.074l0.59,0.489,2.44,0.488v3.222c0,0.522.01,1.238,0.05,2.149s0.05,1.562.05,1.953c0,2.539-.09,4.77-0.25,6.689a35.5,35.5,0,0,1-.54,4.249,15.9,15.9,0,0,1-.58,2.148,3.113,3.113,0,0,1-.59,1.074l-0.19.293q0.975,2.442,4.78,6.152c0.91,0.325,1.37.325,1.37,0l0.29-15.625,10.16-.976,1.07-.781a5.158,5.158,0,0,0-1.46-3.028,6.767,6.767,0,0,1,2.24-5.371c0-1.04-.22-1.66-0.68-1.855a17.725,17.725,0,0,0-6.35-1.758l-0.19.781a17.243,17.243,0,0,1,.78,5.274,25.184,25.184,0,0,1-.29,3.613l-5.37.683,0.09-5.371v-0.1l0.3-2.735a1.963,1.963,0,0,0-.79-1.66c0.33-.064,1.97-0.454,4.94-1.172a52.741,52.741,0,0,1,5.61-1.172c0.07,0.066.47,0.652,1.22,1.758s1.42,1.66,2,1.66c1.18,0,1.76-1.171,1.76-3.515l-0.19-.977-0.88-1.465-4.1-3.808a7.586,7.586,0,0,0-1.86.1v0.1l0.68,3.32a41.76,41.76,0,0,1-7.91.879,37.009,37.009,0,0,1,4.69-4.443q2.835-2.293,4.44-3.711t1.62-2.3a11.452,11.452,0,0,1-.59-1.709,9.369,9.369,0,0,0-1.03-2.344,2.175,2.175,0,0,0-1.7-1.123,3.364,3.364,0,0,0-.69.684l-3.81,5.664h-4.2a20.755,20.755,0,0,1,5.18-4.59,2.39,2.39,0,0,0-.1-0.781l-1.76-2.832q11.04-1.562,17.58-1.856l-0.19,46.289c0,1.043-.43,1.563-1.27,1.563l-6.74-4.98c-1.37-.26-2.18-0.228-2.44.1a6,6,0,0,0,.1,1.465l2.24,2.441q7.035,7.714,8.11,8.594l1.27,0.293a5.49,5.49,0,0,0,2.15-2.392,7.463,7.463,0,0,0,.97-3.565V894.609l0.2-.683a4.913,4.913,0,0,1,.39-1.026,5.405,5.405,0,0,1,.93-1.025,8.761,8.761,0,0,1,1.8-1.27,3.674,3.674,0,0,0-.88-2.294,18,18,0,0,0-2.05-2.2,13.609,13.609,0,0,1-1.46-1.465,3.6,3.6,0,0,0-2.05.586l-2.25,2.637q-16.8,1.563-17.48,1.563l-2.34-5.469a1.63,1.63,0,0,0-1.47-.781,1.555,1.555,0,0,0-1.46.976l0.39,1.953a57.993,57.993,0,0,1,.88,9.278q0,5.664-1.76,8.789a4.1,4.1,0,0,0,.49,1.855l2.44,3.516q0,2.149-2.2,5.078t-4.25,3.125a3.164,3.164,0,0,0-.29,1.269,3.1,3.1,0,0,0,.54,2,2,2,0,0,0,1.8,1.026h0.2l2.05-.489a8.708,8.708,0,0,1,3.32-.781,3.031,3.031,0,0,1,.88.1,54.708,54.708,0,0,1-5.57,5.762l-2.54.293-0.78-.782q-3.42-3.515-5.56-3.515v0.1l0.58,2.93a33.128,33.128,0,0,1-5.86.488l0.69-.879,3.9-4.589a12.44,12.44,0,0,1,2.05-1.661,18.094,18.094,0,0,0,2.84-2.441,3.7,3.7,0,0,0,1.17-2.441l-0.69-2.051c-0.39-1.5-1.14-2.31-2.24-2.442l-1.08,1.563q-2.925,4.395-3.32,4.785a24.8,24.8,0,0,1-4.59.293,23.533,23.533,0,0,1,5.57-5.762,9.845,9.845,0,0,0-.78-2.832,6.879,6.879,0,0,1,1.95-.2c1.69-.13,2.64-0.716,2.83-1.758l-0.09-.39-1.66-1.758a48.961,48.961,0,0,1,.63-9.18,5.806,5.806,0,0,1,2.78-4.2q0.39-2.441-2.14-3.906c-1.7-.977-2.9-1.172-3.62-0.586l-2.24,2.734q-0.885.1-7.67,1.074a80.424,80.424,0,0,1-8.94.977l-2.93-5.86-1.26-.293q-1.275,0-1.08,1.661l0.88,4.492,0.2,54.687a17.883,17.883,0,0,1-1.57,7.325c-0.32,0-.49.39-0.49,1.171,0.26,0.457.65,1.075,1.18,1.856l3.71,4.3,0.78,0.195,0.39-.293,0.29-50.1q1.17,0,6.79-.634t6.98-.635A25.125,25.125,0,0,1,1172.34,914.189Zm25.78-9.228v-4l2.05-.2q10.065-.879,12.5-1.856l0.39-.293a1.016,1.016,0,0,0,.44-0.537,1.409,1.409,0,0,0-.34-0.83,6.557,6.557,0,0,0-4.78-2.051h-0.59l-3.22.879-6.45.977v-3.418l1.37-.1,16.7-1.953V902.91Zm-22.26-8.2a10.1,10.1,0,0,0-2.45-.293,39.863,39.863,0,0,0-5.61.781,44.7,44.7,0,0,1-5.13.781v-3.808h0.29l17-2.149-0.59,11.621-16.7,2.051v-3.711a59.078,59.078,0,0,0,8.25-1.025q6.015-1.026,6.69-1.709c0-.65-0.58-1.5-1.75-2.539h0Zm3.12,37.988q-0.2-.1-2.34-1.269a7.8,7.8,0,0,0-3.32-1.172,0.927,0.927,0,0,0-.59.781,9.129,9.129,0,0,1,1.07,4.492,8.755,8.755,0,0,1-.09,1.465,4.088,4.088,0,0,1-.88,1.855,3.959,3.959,0,0,0-.88,1.954,4.021,4.021,0,0,1,.78.781,8.291,8.291,0,0,0,1.22,1.172,2.122,2.122,0,0,0,1.32.488,11.055,11.055,0,0,0,1.95-1.025,9.277,9.277,0,0,1,4.69-1.026l-0.39,1.172q-2.535,5.666-12.01,11.719a2.061,2.061,0,0,0-1.27,1.855H1170q11.8-4.49,15.91-15.429l0.69-2.442q0.675-3.612,2.24-4.492a2.86,2.86,0,0,0-.58-1.758c-0.13-.064-0.8-0.5-2-1.318a11.8,11.8,0,0,0-2.79-1.514,28.322,28.322,0,0,1-.88,8.3q-4.1.783-4.29,0.781a5.668,5.668,0,0,1,.53-1.855,5.854,5.854,0,0,0,.54-2.246,1.747,1.747,0,0,0-.39-1.27h0Z"/>
  <path id="大写字母" class="cls-1" d="M162.6,527.578a2.614,2.614,0,0,0,.117-0.293,1.848,1.848,0,0,1,.41-0.82,2.4,2.4,0,0,1,1-.117H176.9a0.7,0.7,0,0,1,.439.117,1.342,1.342,0,0,1,.264.293,3.505,3.505,0,0,1,.293.762l2.519,7.324c0.117,0.313.205,0.556,0.264,0.732a1.652,1.652,0,0,1,0,.762,1.164,1.164,0,0,1-.528.791,4.7,4.7,0,0,1-1.523.527,13.153,13.153,0,0,1-2.725.235v1.816q4.571-.175,8.614-0.176t7.5,0.176v-1.816q-4.044,0-5.157-.821a1.968,1.968,0,0,0-.117-0.205c-0.039-.058-0.088-0.136-0.146-0.234s-0.176-.332-0.352-0.7-0.381-.85-0.615-1.436L173.32,498.867a1.452,1.452,0,0,0-1.406-1.113,1.475,1.475,0,0,0-.527.088,0.791,0.791,0,0,0-.352.234,3.038,3.038,0,0,1-.2.235,0.944,0.944,0,0,0-.176.293,0.992,0.992,0,0,0-.088.263L158.672,533.2a9.671,9.671,0,0,1-.469,1.348,13.506,13.506,0,0,1-.908,1.377,4.14,4.14,0,0,1-2.08,1.494,10.256,10.256,0,0,1-3.34.469v1.816q2.694-.175,5.859-0.176t6.8,0.176v-1.816a7.712,7.712,0,0,1-1.552-.176,4.821,4.821,0,0,1-1.817-.879,2.36,2.36,0,0,1-1.025-1.875,54.421,54.421,0,0,1,2.461-7.383h0Zm7.617-22.09h0.058l6.563,19.043H163.652ZM202,539.707h18.457q5.859,0,6.328-.059a16.056,16.056,0,0,0,2.139-.41,17.883,17.883,0,0,0,2.871-1.084,13.213,13.213,0,0,0,3.047-1.9,9.235,9.235,0,0,0,2.285-3.135,10.247,10.247,0,0,0,.967-4.482,8.751,8.751,0,0,0-3.9-6.973,12.517,12.517,0,0,0-7.47-2.812V518.73a12.532,12.532,0,0,0,6.474-2.871,7.611,7.611,0,0,0,3.311-6.152,7.429,7.429,0,0,0-.5-2.49,12.93,12.93,0,0,0-1.7-3.047,9.888,9.888,0,0,0-3.78-2.93,17.265,17.265,0,0,0-6.211-1.552H202V501.5h0.527q4.22,0,5.157.937a5.522,5.522,0,0,1,.351,2.52v29.531q0,2.4-.879,2.9t-5.156.5v1.816Zm20.449-38.2a9.723,9.723,0,0,1,4.073.791,6.158,6.158,0,0,1,2.607,2.08,9.185,9.185,0,0,1,1.26,2.607,9.6,9.6,0,0,1,.381,2.666,8.828,8.828,0,0,1-1.348,4.395,8.186,8.186,0,0,1-3.662,3.311,17.671,17.671,0,0,1-6.533.908H212.9v-14.59a2.646,2.646,0,0,1,.41-1.67,2.176,2.176,0,0,1,1.7-.5h7.441Zm7.119,33.779a7.752,7.752,0,0,1-5.419,2.549q-0.177.058-4.512,0.059h-4.512a2.479,2.479,0,0,1-1.787-.469,2.613,2.613,0,0,1-.439-1.758V519.551h10.488a9.645,9.645,0,0,1,3.6.644,7.035,7.035,0,0,1,2.549,1.641,8.748,8.748,0,0,1,1.553,2.314,11.125,11.125,0,0,1,.85,2.491,12.011,12.011,0,0,1,.234,2.343A8.459,8.459,0,0,1,229.564,535.283Zm56.772-9.814a0.751,0.751,0,0,0-.645-0.44,0.593,0.593,0,0,0-.761.557l-0.293,2.871a13.347,13.347,0,0,1-12.949,10.781,14.134,14.134,0,0,1-6.153-1.523q-8.907-4.571-8.906-17.461a30.526,30.526,0,0,1,1.025-8.233,18.29,18.29,0,0,1,2.578-5.8,15.259,15.259,0,0,1,3.6-3.575,12.523,12.523,0,0,1,7.559-2.49,11.047,11.047,0,0,1,8.847,4.014,18.1,18.1,0,0,1,4.16,9.287,4.618,4.618,0,0,0,.469,1.641,1.051,1.051,0,0,0,1.113,0,1.115,1.115,0,0,0,.411-1.114V499.336c0-.624-0.235-0.938-0.7-0.938a2,2,0,0,0-1.054.938L283,501.8a17.111,17.111,0,0,0-1.113,1.641l-0.059-.059-1.992-1.875a13.977,13.977,0,0,0-8.906-3.106,19.167,19.167,0,0,0-3.516.352,20.282,20.282,0,0,0-9.4,4.541,20.643,20.643,0,0,0-5.713,7.647,22.339,22.339,0,0,0-1.758,8.671,21.933,21.933,0,0,0,1.289,7.383,20.656,20.656,0,0,0,1.905,3.867,31.338,31.338,0,0,0,3.486,4.512,16.91,16.91,0,0,0,5.8,4.043A19.028,19.028,0,0,0,270.809,541a15.878,15.878,0,0,0,6.445-1.26,13.49,13.49,0,0,0,4.512-3.017,17.611,17.611,0,0,0,2.754-3.9,18.045,18.045,0,0,0,1.523-3.75,11.257,11.257,0,0,0,.41-2.666,5.052,5.052,0,0,0-.117-0.937h0Zm11.332,14.238H318q2.285,0,2.93-.059a17.657,17.657,0,0,0,11.308-6,19.155,19.155,0,0,0,4.981-13.565,20.814,20.814,0,0,0-9.58-18.1,12.54,12.54,0,0,0-3.955-1.67,25.994,25.994,0,0,0-2.989-.528q-1-.087-2.636-0.087H297.668V501.5H298.2q4.219,0,5.157.937a5.522,5.522,0,0,1,.351,2.52v29.531q0,2.4-.879,2.9t-5.156.5v1.816Zm13.418-1.816a2.31,2.31,0,0,1-1.963-.586,5.911,5.911,0,0,1-.381-2.7V505.723q0-3.046.44-3.633t3.31-.586h3.867a23.726,23.726,0,0,1,3.4.176l0.7,0.117q10.839,2.284,10.84,18.34a9.906,9.906,0,0,1-.059,1.347v1.172q-0.234,2.345-.556,4.014a19.5,19.5,0,0,1-1.319,3.955,11.4,11.4,0,0,1-2.49,3.721,12.553,12.553,0,0,1-4.277,2.49,18.227,18.227,0,0,1-6.475,1.055h-5.039Zm37.23,1.816h33.75l2.461-15.117h-1.465q-0.058.234-.322,1.64t-0.469,2.344q-0.205.939-.615,2.285a14.6,14.6,0,0,1-.967,2.432,8.269,8.269,0,0,1-1.259,1.846,7.888,7.888,0,0,1-1.817,1.406,13.285,13.285,0,0,1-3.486.908,43.124,43.124,0,0,1-6.885.44h-5.215a2.954,2.954,0,0,1-1.963-.469,2.391,2.391,0,0,1-.5-1.758V519.9h5.743q3.573,0.06,4.716,1.524t1.143,5.332h1.465V511.23h-1.465q0,4.338-1.377,5.6t-6.123,1.26h-4.1V503.73a2.092,2.092,0,0,1,.5-1.611,3.107,3.107,0,0,1,1.963-.439h8.789a15.613,15.613,0,0,1,4.4.644,9.832,9.832,0,0,1,2.9,1.406,5.944,5.944,0,0,1,1.787,2.432,15.573,15.573,0,0,1,1,3.018q0.293,1.406.585,3.867h1.465l-1.64-13.184H348.316v1.817h0.528q4.218,0,5.156.937a5.518,5.518,0,0,1,.352,2.52v29.355q0,2.4-.879,2.9t-5.157.5v1.816Zm45.844,0q3.925-.175,8.672-0.176t10.078,0.176v-1.816q-5.04,0-6.269-.469t-1.231-2.4V520.664h5.274q3.691,0.058,4.863,1.494t1.172,5.362h1.465V511.992h-1.465q0,4.278-1.377,5.567t-6.006,1.289H405.41V503.789a2.273,2.273,0,0,1,.469-1.67,2.968,2.968,0,0,1,1.933-.439h7.911a18.458,18.458,0,0,1,5.215.7,5.793,5.793,0,0,1,3.105,2.285,11.251,11.251,0,0,1,1.582,3.369,39.06,39.06,0,0,1,.879,5.01h1.465l-1.641-13.184H394.16v1.817h0.528q4.218,0,5.156.937a5.522,5.522,0,0,1,.351,2.52v29.355q0,2.4-.879,2.9t-5.156.5v1.816Zm76.078-9.844v1.231a13.068,13.068,0,0,1-.176,2.812,5.735,5.735,0,0,1-2.871,3.721,11.207,11.207,0,0,1-6.093,1.553,15.379,15.379,0,0,1-4.014-.528,14.3,14.3,0,0,1-4.072-1.9,14.5,14.5,0,0,1-3.692-3.486,17.524,17.524,0,0,1-2.607-5.684,29.309,29.309,0,0,1-1.025-8.086q0-8.906,3.925-13.711a15.236,15.236,0,0,1,5.069-4.1,13.181,13.181,0,0,1,6.064-1.582,11.088,11.088,0,0,1,7.471,3.017,17.213,17.213,0,0,1,4.951,8.819l0.527,2.812a1.4,1.4,0,0,0,.586.41,0.818,0.818,0,0,0,.791-0.058,1.243,1.243,0,0,0,.381-1.114V499.336c0-.624-0.234-0.938-0.7-0.938a2,2,0,0,0-1.055.938l-1.64,2.461a17.2,17.2,0,0,0-1.114,1.641L470,502.5a13.844,13.844,0,0,0-10.195-4.1,14.786,14.786,0,0,0-2.754.235,20.433,20.433,0,0,0-7.647,2.871,18.55,18.55,0,0,0-5.478,5.156,25.05,25.05,0,0,0-3.164,6.358,21.256,21.256,0,0,0-1.114,6.709,22.743,22.743,0,0,0,.293,3.75,22.218,22.218,0,0,0,2.842,7.705,18.948,18.948,0,0,0,4.893,5.507,22.66,22.66,0,0,0,5.976,3.194A19.155,19.155,0,0,0,460.043,541q1.406,0,2.314-.088a21.324,21.324,0,0,0,2.637-.5,9.892,9.892,0,0,0,3.34-1.523,12.227,12.227,0,0,0,2.9-2.871,12.116,12.116,0,0,0,2.7,3.105,6.085,6.085,0,0,0,.7.557,0.433,0.433,0,0,0,.527-0.088,1.461,1.461,0,0,0,.293-1.113v-9.961a4.728,4.728,0,0,1,.469-2.4q0.585-.527,3.574-0.527V523.77q-3.163.117-6.5,0.117-2.109,0-10.078-.117v1.816h0.7q4.336,0,5.479.5a2.188,2.188,0,0,1,1.142,2.256v1.523Zm20.063,9.844q3.692-.175,8.027-0.176t9.258,0.176v-1.816a15.72,15.72,0,0,1-5.01-.469,2.069,2.069,0,0,1-1.025-2.11V519.785H519.07v15.527q0,1.758-1.025,2.168a17.86,17.86,0,0,1-5.01.411v1.816q3.692-.175,8.027-0.176t9.258,0.176v-1.816h-1.289q-3.222,0-3.984-.645t-0.762-2.754V504.961q0-2.462.879-2.959t5.156-.5v-1.816q-3.282.117-9.258,0.117-5.567,0-8.027-.117V501.5a15.729,15.729,0,0,1,5.01.469,2.071,2.071,0,0,1,1.025,2.109v13.887H501.551V504.082q0-1.758,1.025-2.168a17.906,17.906,0,0,1,5.01-.41v-1.816q-2.462.117-8.027,0.117-5.978,0-9.258-.117V501.5h0.527q4.22,0,5.156.937a5.5,5.5,0,0,1,.352,2.52v29.531q0,2.4-.879,2.9t-5.156.5v1.816Zm49.652,0q5.1-.175,9.492-0.176,4.512,0,8.262.176v-1.816h-1.055q-4.218,0-4.922-1a6.336,6.336,0,0,1-.292-2.4v-30q0-2.05.966-2.519t5.3-.469v-1.816q-2.52.117-8.262,0.117-6.095,0-9.492-.117V501.5h0.527q4.276,0,5.391.937a4.863,4.863,0,0,1,.352,2.52v29.531q0,2.4-.909,2.9t-5.361.5v1.816Zm43.149-10.84v0.41q0,5.919-1.846,8.174a5.5,5.5,0,0,1-4.365,2.256,7.281,7.281,0,0,1-6.329-3.457,2.781,2.781,0,0,0,.645.059,3.016,3.016,0,0,0,2.256-.938,3.387,3.387,0,0,0,.908-2.461,2.9,2.9,0,0,0-.967-2.2,3.413,3.413,0,0,0-2.431-.908,3.086,3.086,0,0,0-2.315.937,3.232,3.232,0,0,0-.908,2.344,6.656,6.656,0,0,0,.205,1.465,7.82,7.82,0,0,0,.85,2.021,9.3,9.3,0,0,0,1.64,2.11,8.043,8.043,0,0,0,2.754,1.64,12.254,12.254,0,0,0,11.924-2.226,10.2,10.2,0,0,0,3.018-7.705V504.316q0-1.873.7-2.343t3.808-.469v-1.816q-3.282.117-6.8,0.117-2.227,0-10.546-.117V501.5q5.625,0,6.709.469t1.084,3.047v23.847Zm20.3,10.84q3.692-.175,8.028-0.176t9.258,0.176v-1.816q-4.63,0-5.45-.645-0.587-.41-0.586-2.871v-8.5a3.5,3.5,0,0,1,1.817-2.7l2.812-2.7a21.165,21.165,0,0,0,2.11-2.05h0.058l10.489,15.585a5.1,5.1,0,0,1,1,2.051q0,1.817-2.754,1.817h-0.645v1.816q4.746-.175,8.5-0.176t6.563,0.176v-1.816a8.607,8.607,0,0,1-3.9-.616,9.189,9.189,0,0,1-2.49-2.49l-12.07-17.871a5.6,5.6,0,0,1-1.055-1.7v-0.059a0.339,0.339,0,0,1,.117-0.234l9.551-9.2q4.452-4.219,9.024-4.219v-1.816q-4.1.117-6.211,0.117t-6.211-.117V501.5a3.047,3.047,0,0,1,1.611.41,2.273,2.273,0,0,1,.879.82,1.6,1.6,0,0,1,.205.645q0,1.173-1.875,2.754l-17.52,16.7V504.2q0-1.815,1.026-2.256a16.744,16.744,0,0,1,5.01-.439v-1.816q-2.461.117-8.028,0.117-5.976,0-9.258-.117V501.5h0.528q4.218,0,5.156.937a5.518,5.518,0,0,1,.352,2.52v29.531q0,2.4-.879,2.9t-5.157.5v1.816Zm51.528,0h30.527q1.23-11.718,1.641-15.117h-1.465c-0.079.86-.117,1.328-0.117,1.406q-0.7,6.329-3.457,9.111t-9.493,2.784H671.8c-0.2,0-.469.01-0.821,0.029s-0.606.029-.761,0.029q-3.165,0-3.692-.644a6.167,6.167,0,0,1-.351-2.344V504.9a4.8,4.8,0,0,1,.351-2.226,2.742,2.742,0,0,1,1.846-.879,32.082,32.082,0,0,1,5.3-.293v-1.816q-3.575.117-10.02,0.117-6.034,0-8.73-.117V501.5h0.527q4.219,0,5.156.937a5.5,5.5,0,0,1,.352,2.52v29.531q0,2.4-.879,2.9t-5.156.5v1.816Zm42.8,0q2.87-.175,6.386-0.176,3.4,0,7.325.176v-1.816q-4.806,0-5.8-2.579a15.189,15.189,0,0,1-.235-3.457v-30h0.059q0.175,0.586,1.348,3.575l12.539,32.343a2.4,2.4,0,0,1,.2.586,2.925,2.925,0,0,0,.439.938,0.9,0.9,0,0,0,.762.41,0.975,0.975,0,0,0,.762-0.469l0.7-1.7,12.773-33.047q1-2.46,1.172-3.047h0.059v33.223q0,2.285-.879,2.754t-5.156.469v1.816q3.573-.175,7.793-0.176,4.16,0,9.023.176v-1.816h-1.289q-3.224,0-3.984-.645t-0.762-2.754V504.961q0-2.462.879-2.959t5.156-.5v-1.816h-8.145a20.257,20.257,0,0,0-3.164.175l-0.586.938-12.714,32.988L710.2,502.383a8.908,8.908,0,0,0-1.172-2.52l-1.113-.175h-10.2V501.5h0.527q4.218,0,5.156.937a5.5,5.5,0,0,1,.352,2.52v27.773a5.752,5.752,0,0,1-1.113,3.926q-1.114,1.23-4.922,1.231v1.816Zm65.472-6.8a5.333,5.333,0,0,1-1.142,3.779q-1.143,1.2-4.893,1.2v1.816q2.871-.175,6.387-0.176,3.4,0,7.324.176v-1.816q-4.746,0-5.8-2.52a14.475,14.475,0,0,1-.234-3.34V503.086q0.585,0.82,2.461,3.516l21.445,31.582q0.761,1.524,1.641,1.523a0.761,0.761,0,0,0,.762-0.937V506.719q0-2.871,1.23-4.043t4.8-1.172v-1.816q-2.637.117-7.383,0.117-4.4,0-6.328-.117V501.5q3.573,0,4.8,1.142t1.231,4.014V530.8l-19.336-28.418a18.668,18.668,0,0,0-1.875-2.578l-1.055-.117H757.16V501.5a35.3,35.3,0,0,1,5.069.2,1.046,1.046,0,0,1,.966,1.084V532.91Zm55.16-31.816q-1.172.762-2.314,1.67a19.637,19.637,0,0,0-2.607,2.636,19.509,19.509,0,0,0-4.307,8.584,25.5,25.5,0,0,0-.732,6.211,21.007,21.007,0,0,0,4.453,13.243Q818.824,541,827.965,541c0.741,0,1.289-.02,1.64-0.058a18.04,18.04,0,0,0,13.1-7.208,22.22,22.22,0,0,0,4.776-13.652,21.974,21.974,0,0,0-5.743-15.41,18.4,18.4,0,0,0-14.121-6.27,17.042,17.042,0,0,0-9.258,2.7h0Zm19.336,4.131q3.692,5.361,3.692,13.974,0,10.02-4.453,15.528-3.867,4.746-8.907,4.746-6.152,0-9.931-5.684t-3.78-14.824q0-8.5,3.78-13.8a11.657,11.657,0,0,1,9.931-5.3Q834,499.863,837.691,505.225Zm20.942,34.482q3.692-.175,8.027-0.176t9.258,0.176v-1.816a15.72,15.72,0,0,1-5.01-.469,2.069,2.069,0,0,1-1.025-2.11V521.191h10.781a18.433,18.433,0,0,0,5.361-1.171,11.283,11.283,0,0,0,3.663-2.168,11.93,11.93,0,0,0,2.138-2.725,10.406,10.406,0,0,0,1.113-2.578,8.373,8.373,0,0,0,.264-1.963,10.32,10.32,0,0,0-1.2-4.453,10.683,10.683,0,0,0-4.365-4.336q-0.939-.528-1.787-0.908A8.9,8.9,0,0,0,884,500.3q-1-.206-1.611-0.352a10.6,10.6,0,0,0-1.788-.205q-1.172-.057-1.64-0.058H858.633V501.5h0.527q4.22,0,5.156.937a5.5,5.5,0,0,1,.352,2.52v29.531q0,2.4-.879,2.9t-5.156.5v1.816Zm18.75-38.2q5.625,0.119,7.7,2.373t2.08,6.65q0,4.1-1.465,6.094a7.058,7.058,0,0,1-3.808,2.49,25.888,25.888,0,0,1-6.036.557h-6.152V503.73a2.633,2.633,0,0,1,.439-1.728,2.19,2.19,0,0,1,1.67-.5h5.567Zm63.949,48.486a6.594,6.594,0,0,0,2.344-2.783,16.629,16.629,0,0,0,1.113-3.369,16.069,16.069,0,0,0,.352-3.311,3.16,3.16,0,0,0-.118-1.113,0.623,0.623,0,0,0-.5-0.322,0.6,0.6,0,0,0-.556.322l-0.41,2.051q-1.29,3.573-5.508,3.574-2.873-.294-4.688-4.453l-0.527-1.289a11.56,11.56,0,0,0,3.34-1.9,27.462,27.462,0,0,0,3.9-3.75,18.983,18.983,0,0,0,3.369-5.948,21.87,21.87,0,0,0,1.348-7.675,24.979,24.979,0,0,0-.351-4.1,20.641,20.641,0,0,0-6.534-12.48,18.833,18.833,0,0,0-11.4-4.981l-1.524-.059a16.009,16.009,0,0,0-3.75.411,19.768,19.768,0,0,0-10.957,7.207,21.812,21.812,0,0,0-4.57,14.121,21.191,21.191,0,0,0,10.576,18.545,17.315,17.315,0,0,0,8.76,2.373,20.564,20.564,0,0,0,5.8-.938q0.409,2.754.82,4.395a18.025,18.025,0,0,0,1.143,3.222,5.6,5.6,0,0,0,1.9,2.373,6.175,6.175,0,0,0,2.871.967A6.47,6.47,0,0,0,941.332,549.99Zm-19.687-17.2a5.94,5.94,0,0,0-1.172,3.223,4.989,4.989,0,0,0,.879,2.754,12.366,12.366,0,0,1-2.461-1.29,13.122,13.122,0,0,1-5.537-7.031,30.345,30.345,0,0,1-1.788-10.664q0-9.141,3.868-14.531a11.977,11.977,0,0,1,10.2-5.391,10.465,10.465,0,0,1,4.922,1.407q8.377,4.746,8.379,18.867,0,11.9-6.973,17.109a10.107,10.107,0,0,0-2.227-4.014,5.52,5.52,0,0,0-4.394-2.2A4.116,4.116,0,0,0,921.645,532.793Zm1.435,0.41a4.145,4.145,0,0,1,2.315-.879q3.339,0,4.628,4.16l0.352,1.407v0.058q0,0.47-1.67,1.055a9.342,9.342,0,0,1-3.076.586,3.758,3.758,0,0,1-2.783-1.026,3.6,3.6,0,0,1-1.026-2.666A3.063,3.063,0,0,1,923.08,533.2Zm32.924,6.5q3.692-.175,7.969-0.176,4.218,0,9.14.176v-1.816a15.708,15.708,0,0,1-5.009-.469,2.069,2.069,0,0,1-1.026-2.11v-15h4.863a33.686,33.686,0,0,1,3.633.118,7.056,7.056,0,0,1,5.977,6.621v6.035a7.982,7.982,0,0,0,2.051,5.1,10.069,10.069,0,0,0,7.441,2.871,5.283,5.283,0,0,0,4.072-1.612A7.6,7.6,0,0,0,996.9,534.9a1.377,1.377,0,0,0-.351-1.23,0.768,0.768,0,0,0-1.113.527c0,0.04-.03.215-0.088,0.528s-0.108.566-.147,0.761-0.108.489-.2,0.879a5.612,5.612,0,0,1-.322.967c-0.117.255-.274,0.547-0.469,0.879a2.984,2.984,0,0,1-.645.791,3.1,3.1,0,0,1-.878.5,3.046,3.046,0,0,1-1.114.205,2.646,2.646,0,0,1-2.461-1.494,15.464,15.464,0,0,1-1.347-4.658q-0.06-.409-0.176-1.231-0.351-2.637-.586-3.9a20.43,20.43,0,0,0-.791-2.871,7.231,7.231,0,0,0-1.318-2.461,11,11,0,0,0-2.08-1.729,14.982,14.982,0,0,0-3.311-1.582l3.4-1.113,0.7-.352q6.152-3.045,6.152-8.027a8.566,8.566,0,0,0-2.813-6.152,13.107,13.107,0,0,0-3.017-2.256,18.026,18.026,0,0,0-2.93-1.319,17.16,17.16,0,0,0-3.574-.615q-2.316-.2-3.281-0.234t-3.78-.029H956V501.5h0.527q4.22,0,5.157.937a5.522,5.522,0,0,1,.351,2.52v29.531q0,2.4-.879,2.9t-5.156.5v1.816Zm17.4-38.2q5.742,0,8.028,2.344a8.757,8.757,0,0,1,2.285,6.386q0,4.981-2.871,6.885t-8.731,1.9h-5.039V503.672a2.534,2.534,0,0,1,.381-1.582,2.46,2.46,0,0,1,1.67-.586h4.277ZM1025.52,540a10.084,10.084,0,0,0,3.46-2.52,14.157,14.157,0,0,0,2.05-3.281,15.044,15.044,0,0,0,1.08-3.135,11.7,11.7,0,0,0,.27-2.314,11.947,11.947,0,0,0-.27-2.373,16.863,16.863,0,0,0-.99-3.076,10.494,10.494,0,0,0-2.35-3.369,11,11,0,0,0-3.89-2.491,23.515,23.515,0,0,0-2.91-.849c-1.23-.293-2.33-0.537-3.31-0.733a19.23,19.23,0,0,1-3.13-.937,11.885,11.885,0,0,1-2.81-1.494,6.561,6.561,0,0,1-1.91-2.373,7.873,7.873,0,0,1-.76-3.575,7.043,7.043,0,0,1,2.34-5.273,8.273,8.273,0,0,1,5.92-2.227,8.692,8.692,0,0,1,2.38.381,16.438,16.438,0,0,1,3.1,1.348,8.747,8.747,0,0,1,3.19,3.252,15.032,15.032,0,0,1,1.94,5.566l0.29,1.993a1.032,1.032,0,0,0,.47.41,0.634,0.634,0,0,0,.67-0.03,1.079,1.079,0,0,0,.33-0.966V499.57c0-.781-0.22-1.172-0.65-1.172-0.31,0-.83.548-1.55,1.641a13.764,13.764,0,0,0-1.38,2.461l-1.46-1.465a11.346,11.346,0,0,0-7.5-2.637,11.549,11.549,0,0,0-8.62,3.34,11.4,11.4,0,0,0-2.4,12.393,9.995,9.995,0,0,0,2.2,3.281,15.861,15.861,0,0,0,2.49,1.992,10.32,10.32,0,0,0,2.23,1.084q0.93,0.352,5.06,1.348a46.468,46.468,0,0,1,4.95,1.348,7.937,7.937,0,0,1,3.02,2.548,7.577,7.577,0,0,1,1.5,4.834,8.923,8.923,0,0,1-2.2,6.153,7.309,7.309,0,0,1-5.71,2.461,18.23,18.23,0,0,1-2.05-.118,17.166,17.166,0,0,1-2.9-.673,12.022,12.022,0,0,1-3.29-1.524,10.654,10.654,0,0,1-2.75-2.929,11.17,11.17,0,0,1-1.73-4.6l-0.17-1.641a2.518,2.518,0,0,0-.06-0.82,0.957,0.957,0,0,0-.44-0.469,0.573,0.573,0,0,0-.65.059,1.294,1.294,0,0,0-.32,1.055v12.3c0,0.781.22,1.172,0.65,1.172,0.31,0,.82-0.547,1.55-1.641a13.729,13.729,0,0,0,1.38-2.46,23.285,23.285,0,0,0,5.06,3.164,14.008,14.008,0,0,0,5.54,1A11.639,11.639,0,0,0,1025.52,540Zm26.1-.293q4.74-.175,10.31-0.176t11.89,0.176v-1.816q-5.97,0-7.23-.44t-1.26-2.9V504.258a3.318,3.318,0,0,1,.35-1.787,2.134,2.134,0,0,1,1.58-.616h3.34q5.445,0,7.44,2.168,1.65,1.641,2.23,9.2h1.46q-0.285-2.929-1.11-13.184h-35.8q-0.825,10.254-1.11,13.184h1.46q0.525-6.972,2.35-9.17t7.32-2.2h1.05c2.04,0,3.32.2,3.87,0.586a4.3,4.3,0,0,1,.35,2.286v29.824a3.733,3.733,0,0,1-.49,2.285,3.44,3.44,0,0,1-2.08.82,48.325,48.325,0,0,1-5.92.235v1.816Zm46.25-16.23a39.094,39.094,0,0,0,.29,5.859,15.447,15.447,0,0,0,4.87,8.2A14.34,14.34,0,0,0,1113.05,541a10.689,10.689,0,0,0,4.51-1.055,13.994,13.994,0,0,0,3.02-1.816,14.377,14.377,0,0,0,2.16-2.08,9.737,9.737,0,0,0,1.47-2.49,24.022,24.022,0,0,0,.94-2.608,16.3,16.3,0,0,0,.47-2.871c0.09-1.152.15-2.08,0.17-2.783s0.03-1.66.03-2.871V506.66a5.362,5.362,0,0,1,1.23-3.955q1.23-1.2,4.81-1.2v-1.816q-1.995.117-6.45,0.117-4.8,0-7.44-.117V501.5q3.57,0,4.8,1.142t1.23,4.131v17.754a21.9,21.9,0,0,1-1.05,7.178,10.461,10.461,0,0,1-2.84,4.57,11.564,11.564,0,0,1-3.66,2.227,11.406,11.406,0,0,1-3.87.674,8.9,8.9,0,0,1-5.22-1.787,9.607,9.607,0,0,1-3.57-5.3q-0.06-.176-0.24-1c-0.11-.547-0.19-1-0.23-1.348s-0.09-1.074-.15-2.168-0.08-2.441-.08-4.043V504.961q0-2.462.87-2.959t5.16-.5v-1.816q-2.46.117-8.03,0.117c-3.98,0-7.07-.039-9.25-0.117V501.5a15.782,15.782,0,0,1,5.01.469,2.132,2.132,0,0,1,1.02,2.168v19.336Zm76.61-18.926-0.41,1.347-10.61,27.891q-0.285-.643-2.52-6.68l-8.2-21.621a9.925,9.925,0,0,1-.76-2.4q0-1.582,4.74-1.582v-1.816q-3.045.117-8.49,0.117-5.1,0-7.33-.117V501.5q0.825,0,1.47.029t1.14,0.059a3.379,3.379,0,0,1,.91.176,3.084,3.084,0,0,0,.67.175,0.882,0.882,0,0,1,.53.323,1.531,1.531,0,0,0,.38.351,1.215,1.215,0,0,1,.32.469q0.21,0.411.27,0.557c0.03,0.1.12,0.332,0.26,0.7s0.22,0.615.26,0.732l2.11,5.567,11.14,29.3a1.432,1.432,0,0,0,1.4,1.055,1.223,1.223,0,0,0,1.12-.469l13-34.218c0.24-.625.42-1.084,0.56-1.377a10.506,10.506,0,0,1,.94-1.436,4.345,4.345,0,0,1,2.05-1.494,8.875,8.875,0,0,1,3.13-.5v-1.816c-1.52.117-3.32,0.175-5.39,0.175s-4.39-.058-6.97-0.175V501.5a5.157,5.157,0,0,1,3.1.85,2.492,2.492,0,0,1,1.18,2.08v0.117Zm66.35,2.578v0.059l-1.7,5.156c-0.2.7-.7,2.285-1.52,4.746l-5.1,15.7c-0.04-.078-0.73-2.168-2.05-6.27l-5.04-15.468q-2.4-6.68-2.4-7.91,0-1.641,4.86-1.641v-1.816c-1.99.078-4.77,0.117-8.32,0.117-3.32,0-5.71-.039-7.15-0.117V501.5c1.13,0,1.86.02,2.17,0.058a3.768,3.768,0,0,1,1.87.352,5.734,5.734,0,0,1,1.59,2.637,10.358,10.358,0,0,1,.87,3.164v0.058a6.043,6.043,0,0,1-.29,1l-7.79,24.023h-0.06l-6.97-21.563a79.39,79.39,0,0,1-2.52-8.2,0.867,0.867,0,0,1,.41-0.673,4.262,4.262,0,0,1,1.58-.586,13.635,13.635,0,0,1,2.93-.264v-1.816c-1.99.078-4.77,0.117-8.32,0.117q-4.98,0-7.15-.117V501.5c2.38,0,3.89.293,4.51,0.879a9.1,9.1,0,0,1,1.29,3.047l11.08,34.1c0.27,0.976.72,1.465,1.34,1.465q0.825,0,1.29-1.758l9.49-29.179h0.06l9.2,28.418a4.233,4.233,0,0,1,.3.791,5.109,5.109,0,0,0,.55,1.23,0.882,0.882,0,0,0,.68.5,1.274,1.274,0,0,0,.58-0.117,5.479,5.479,0,0,0,1-2.109l10.66-32.637a9.006,9.006,0,0,1,.47-1.319,12.221,12.221,0,0,1,.85-1.406A3.957,3.957,0,0,1,1245.9,502a7.555,7.555,0,0,1,2.9-.5v-1.816c-1.57.078-3.17,0.117-4.81,0.117q-1.635,0-7.5-.117V501.5a6.433,6.433,0,0,1,3.11.674,3.985,3.985,0,0,1,1.58,1.289,3.124,3.124,0,0,1,.41,1.084,15.311,15.311,0,0,0-.76,2.578h0Zm27.85,25.9,7.8-11.543,0.06,0.118a0.05,0.05,0,0,1,.05.058l8.79,13.3a4.019,4.019,0,0,1,.65,1.23,1.717,1.717,0,0,1-1.2,1.172,6.209,6.209,0,0,1-2.61.528v1.816q4.68-.175,8.67-0.176,4.095,0,7.5.176v-1.816a18.824,18.824,0,0,1-3.87-.293,4.151,4.151,0,0,1-1.78-.733,8.242,8.242,0,0,1-1.32-1.728q-3.63-5.391-6.68-10.078t-3.96-6.065a13.313,13.313,0,0,0-1.37-1.846V517.09l0.05-.059,6.68-9.785c0.04-.038.08-0.078,0.12-0.117a0.167,0.167,0,0,0,.06-0.117,20.96,20.96,0,0,1,2.05-2.842,8.322,8.322,0,0,1,2.81-1.816,11.8,11.8,0,0,1,4.75-.85v-1.816q-2,.117-6.5.117-4.815,0-7.5-.117V501.5a3.663,3.663,0,0,1,2.75.967,2.7,2.7,0,0,1,.94,1.67q0,0.526-3.02,5.156a72.143,72.143,0,0,1-4.31,6.152l-1.4-2.168-4.51-6.855a12.465,12.465,0,0,1-2-3.223,1.68,1.68,0,0,1,1.44-1.26,8.016,8.016,0,0,1,2.37-.439v-1.816q-3.105.117-8.67,0.117-5.22,0-7.5-.117V501.5h2.34c0.12,0,.42.02,0.91,0.058a2.337,2.337,0,0,1,1,.235,7.243,7.243,0,0,0,.79.439,3.275,3.275,0,0,1,.91.674,11.052,11.052,0,0,1,.79,1l6.68,10.078,3.81,5.86a1.815,1.815,0,0,1-.3.586l-8.08,11.953a14.72,14.72,0,0,1-3.81,4.189,10.353,10.353,0,0,1-5.8,1.319v1.816q2.985-.175,6.44-0.176t7.5,0.176v-1.816a3.61,3.61,0,0,1-2.75-.938,2.63,2.63,0,0,1-.88-1.7,5.083,5.083,0,0,1,1.11-2.227h0Zm37.7-31.523a14.057,14.057,0,0,1,4.6.469,5.252,5.252,0,0,1,2.14,2.168l11.54,18.808a4.5,4.5,0,0,1,.47,1.817v9.726a4.9,4.9,0,0,1-.58,2.754q-0.645.645-5.45,0.645v1.816c2.46-.117,5.11-0.176,7.97-0.176q4.215,0,9.14.176v-1.816c-3.09,0-4.89-.195-5.39-0.586a1.933,1.933,0,0,1-.24-0.293,1.253,1.253,0,0,1-.17-0.323,3.526,3.526,0,0,1-.12-0.351c-0.04-.137-0.07-0.254-0.09-0.352a2.356,2.356,0,0,1-.03-0.439V525.7a13.432,13.432,0,0,1,.06-1.933l1.17-2.051,2.46-3.926q7.275-12.186,8.62-13.77a8.44,8.44,0,0,1,6.5-2.519v-1.816c-1.56.117-3.38,0.175-5.45,0.175q-3.165,0-7.03-.175V501.5c2.23,0.039,3.34.879,3.34,2.519a2.7,2.7,0,0,1-.23.762l-7.45,12.188q-1.755,2.813-2.57,4.277h-0.06l-10.32-16.934a3.315,3.315,0,0,1-.64-1.582c0.23-.82,1.58-1.23,4.04-1.23v-1.816q-3.1.117-8.73,0.117-5.2,0-7.5-.117V501.5Zm81.06,38.2,1-15.645h-1.47a28.964,28.964,0,0,1-.88,7.032,7.938,7.938,0,0,1-2.6,4.131,9.854,9.854,0,0,1-4.34,1.992,35.771,35.771,0,0,1-6.71.5h-7.56l22.33-35.156a3.979,3.979,0,0,0,.93-1.934,0.753,0.753,0,0,0-.35-0.791,5.489,5.489,0,0,0-1.64-.146h-25.84v0.058l-0.64,13.125h1.46q0.18-5.859,2.82-8.5a8.2,8.2,0,0,1,.99-0.85c0.35-.253.68-0.478,1-0.673a4.642,4.642,0,0,1,1.17-.5q0.705-.205,1.14-0.352a6.446,6.446,0,0,1,1.32-.234q0.885-.088,1.29-0.147c0.27-.038.76-0.068,1.46-0.088s1.19-.029,1.44-0.029h8.41c-0.55.782-1.29,1.954-2.23,3.516l-20.21,31.757a4.715,4.715,0,0,0-.88,1.993,0.752,0.752,0,0,0,.35.791,5.771,5.771,0,0,0,1.7.146h26.54Z"/>
  <path id="logo" class="cls-3" d="M706.266,1194.7a45.969,45.969,0,0,0-.118,5.15v5.16H677.555v-1.17l0.234-.94-1.406-.24c-1.1,0-2.659-.07-4.688-0.23h-3.281l-0.469,2.58a45.646,45.646,0,0,1-1.172,4.92,22.619,22.619,0,0,1-1.406,4.22,7.125,7.125,0,0,0-.82,2.23,6.584,6.584,0,0,0,2.109-.71c1.326-.54,2.615-1.13,3.867-1.76a11.566,11.566,0,0,0,3.516-2.81l1.641-1.64h66.8l1.875,1.88a14.477,14.477,0,0,0,3.75,2.81c1.406,0.62,2.655,1.17,3.75,1.64a1.036,1.036,0,1,0,1.171-1.17,17.1,17.1,0,0,1-1.406-3.99q-0.7-2.34-1.172-4.68a11.9,11.9,0,0,0-.7-3.05c0-.47-1.252-0.62-3.75-0.47-1.875.16-3.281,0.23-4.219,0.23a2.052,2.052,0,0,1-.937.24c-0.315,0-.469.31-0.469,0.94l0.235,0.93-13.594.24q-13.359,0-13.36-.24a2.838,2.838,0,0,1,.7-1.05,6.664,6.664,0,0,0,1.171-2.46,15.728,15.728,0,0,0,.469-4.22v-2.58h-4.687Q706.382,1194.46,706.266,1194.7Zm-31.289,28.12v4.22l21.093,0.23h21.094l-5.859,4.93q-5.4,4.215-8.2,6.56l-2.344,1.87v6.8H660.445v4.22h40.313v14.76c0,10.01-.158,15.47-0.469,16.41a13.152,13.152,0,0,1-1.172,3.05,21,21,0,0,1-2.578,3.04,16.962,16.962,0,0,1-3.75,2.82c-1.406.62-2.109,1.17-2.109,1.64s0.153,0.7.468,0.7a30.375,30.375,0,0,0,3.047-.47,34.353,34.353,0,0,0,4.922-1.4,16.4,16.4,0,0,0,4.688-1.88,11.74,11.74,0,0,0,3.515-2.34,12.264,12.264,0,0,0,2.344-2.58,13,13,0,0,0,1.172-2.58c0.311-.94.469-6.4,0.469-16.41v-14.76h38.2v-4.22h-38.2v-6.8l2.109-1.64q2.109-1.635,8.438-6.79,6.327-5.4,8.437-7.04a13.637,13.637,0,0,0,2.578-2.34q0-.225-28.828-0.23t-29.062.23h0Zm121.64-30.23-0.469,1.87a27.635,27.635,0,0,1-1.523,5.74c-0.861,2.43-1.681,4.65-2.461,6.68q-1.176,2.58-3.281,6.8-1.88,3.75-4.453,8.44-2.11,3.75-4.688,7.73-2.582,4.215-3.047,4.92a7.818,7.818,0,0,0-1.406,2.11c-0.157.47-.117,0.71,0.117,0.71a8.252,8.252,0,0,0,2.227-1.18q1.873-1.17,3.515-2.34,1.874-1.41,3.985-3.28a59.714,59.714,0,0,0,4.453-4.45l2.109-2.35,0.235,14.77,0.234,14.76h1.875a5.862,5.862,0,0,0,3.047-.7,5.457,5.457,0,0,0,1.875-1.17,11.374,11.374,0,0,0,1.406-1.64l0.469-.71h27.187v2.11l0.235,2.11h1.64a7.437,7.437,0,0,0,2.813-.47,9.072,9.072,0,0,0,2.109-1.17,4.666,4.666,0,0,0,1.407-1.64l0.7-.94h31.64v-4.45H838.336v-6.8H868.57v-4.45H838.336v-6.8H868.57v-4.68H838.336v-7.5H868.57v-4.69H837.164l0.938-1.17a23.668,23.668,0,0,0,1.406-2.35,6.445,6.445,0,0,0,.7-2.57,17.74,17.74,0,0,0,.469-4.93v-3.51H828.727v14.53H815.6q-13.129,0-13.125-.23c0-.16-0.158-0.24-0.469-0.24s0.311-1.41,1.875-4.22a69.182,69.182,0,0,0,3.281-7.5,16.732,16.732,0,0,0,1.406-3.98l0.235-1.17H796.617Zm31.406,22.03v7.5H802.477v-7.5h25.546Zm0,12.18v6.8H802.477v-6.8h25.546Zm0,11.25v6.8H802.477v-6.8h25.546Zm-3.515,16.88v5.16l-22.969.23H778.805v4.45h45.7v1.64c0,1.1-.081,1.64-0.235,1.64a40.222,40.222,0,0,1-4.687-1.17q-4.455-1.17-4.922-1.4-0.236,0-6.328,4.68-6.1,4.935-7.734,6.1-1.643.93-4.454,2.58a58.967,58.967,0,0,1-5.39,2.57q-2.812,1.185-5.391,2.23a35.226,35.226,0,0,1-5.859,1.76,17.416,17.416,0,0,0-3.047,1.05,6.06,6.06,0,0,0,1.289,1.06,3.994,3.994,0,0,0,1.992.94c0.469,0,2.344-.32,5.625-0.94s6.328-1.33,9.141-2.11q4.449-1.17,8.2-2.35a22.822,22.822,0,0,0,4.922-2.1q1.637-.945,9.14-6.1t7.618-5.04q0.115,0.12.117,13.48v13.12h1.406a7.357,7.357,0,0,0,2.813-.7,6.692,6.692,0,0,0,3.046-1.99,11.184,11.184,0,0,0,2.11-3.17,8.733,8.733,0,0,0,.586-2.34q0.115-1.17.117-6.33c0.154-4.68.271-7.11,0.352-7.26s1.442,0.55,4.1,2.11q3.982,2.1,6.8,3.51a34.945,34.945,0,0,0,6.328,2.58,54.282,54.282,0,0,0,6.328,1.64,52.974,52.974,0,0,0,5.625.94c1.718,0.16,4.219.23,7.5,0.23a38.521,38.521,0,0,0,5.86-.23,1.37,1.37,0,0,0,1.171-.94l0.235-1.17c0-.15-0.235-0.24-0.7-0.24-0.315,0-1.722-.23-4.219-0.7s-5-1.01-7.5-1.64q-3.516-.93-6.8-2.11-2.812-.93-5.625-2.11-2.346-1.17-10.078-6.33l-7.734-5.15,19.453-.24h19.453v-4.45H854.977l-20.157-.23v-2.58l-0.234-2.58H824.508Z"/>
</svg>
