<svg xmlns="http://www.w3.org/2000/svg" width="1540" height="1450" viewBox="0 0 1540 1450">
  <defs>
    <style>
      .cls-1 {
        fill: #fff;
      }

      .cls-1, .cls-2, .cls-3 {
        fill-rule: evenodd;
      }

      .cls-2 {
        fill: #fefefe;
      }

      .cls-3 {
        fill: #fdfdfd;
      }
    </style>
  </defs>
  <path id="字体名称" class="cls-1" d="M402.381,179.32V145.629h61.767V179.32H402.381Zm0,47.852V193.236h61.767v33.936H402.381Zm-16.358-33.936v33.936H322.791V193.236h63.232Zm0-47.607V179.32H322.791V145.629h63.232ZM307.166,130.98V242.064h173.34V130.98H307.166ZM405.677,265.5a311.368,311.368,0,0,0-29.663-17.578l-10.743,10.01a326.959,326.959,0,0,1,29.175,18.31q15.015,10.5,23.072,18.555l11.23-11.231Q420.692,275.512,405.677,265.5Zm-80.445,7.08-14.648-5.127Q299.6,306.52,283.24,327.27l14.893,7.812q13.916-17.819,27.1-62.5h0ZM362.1,325.438q-3.177-1.584-3.174-6.713V267.7h-16.6v51.026q0,13.915,6.714,18.676t26,4.761h52q16.6,0,22.339-8.179t7.446-33.569a42.752,42.752,0,0,1-15.381-6.1q-0.978,21.24-3.784,26.977t-12.085,5.737h-49.56Q365.268,327.025,362.1,325.438Zm114.013-22.583q9.762,17.578,13.672,30.03l16.358-7.08q-9.522-26.609-36.133-61.28l-14.649,5.86A300.3,300.3,0,0,1,476.111,302.855Zm76.172-180.419-9.765,11.718q27.1,13.917,41.5,28.565l10.01-12.94q-13.183-13.423-41.748-27.343h0Zm-12.451,66.65-9.277,11.963q29.783,14.407,41.992,26.611l9.765-13.183q-13.916-12.692-42.48-25.391h0ZM536.17,334.594l14.648,9.277q22.46-43.7,37.11-80.322L574.5,254.271q-18.556,46.389-38.33,80.323h0Zm79.1-10.254a101.745,101.745,0,0,1,13.184,8.3q19.284-21.242,32.959-53.711l-15.137-3.662q-11.964,29.789-31.006,49.072h0ZM730.994,224v23.438H651.648V224h79.346Zm0-35.644v23.193H651.648V188.354h79.346Zm15.625-13.184H693.152q2.929-9.522,7.813-27.344l-3.418-.732h59.082V131.713H605.018v68.359q0,18.557-.977,33.692t-3.906,34.546a185.191,185.191,0,0,1-9.522,37.109,138.1,138.1,0,0,1-16.845,32.1q9.274,4.395,14.16,8.789,33.2-47.115,33.2-146.24V147.094H682.9q-0.978,8.549-5.859,28.076H636.756v85.205H682.41v69.092q0,3.416-4.394,3.662-14.163,0-26.612-.244a48.459,48.459,0,0,1,4.883,14.4q26.607,0.486,33.692-2.2,8.3-2.69,8.3-15.381V260.375h48.34V175.17Zm-0.488,154.785,14.892-7.08q-9.035-22.946-30.517-49.561l-13.916,5.86q21.726,28.81,29.541,50.781h0Zm92.529-127.93V184.691h116.7v17.334H838.66Zm0,28.809V213.012h116.7v17.822H838.66Zm0,28.564V241.82h116.7V259.4H838.66ZM822.3,173.217v97.9H971.961v-97.9H902.869V155.4h95.947V141.234H902.869V119.75h-17.09v21.484H791.785V155.4h93.994v17.822H822.3ZM784.705,286.5v14.16H1005.16V286.5H784.705Zm40.283,36.133A364.509,364.509,0,0,1,784.949,336.3a137.084,137.084,0,0,1,11.475,11.718q45.164-12.942,75.683-31.982l-15.136-9.277Q845.492,314.333,824.988,322.631Zm167.481,25.39,13.911-11.23a739.977,739.977,0,0,0-76.9-30.029l-10.742,10.5a606.145,606.145,0,0,1,73.731,30.761h0ZM1198.04,155.4l-12.7-4.883a230.92,230.92,0,0,1-20.26,40.039l10.98,4.394q8.055-12.2,21.98-39.55h0Zm-91.07,36.865,12.21-4.639q-3.42-15.867-17.09-37.109l-11.23,3.906q11.955,19.288,16.11,37.842h0Zm-31.49-48.584h60.79V199.34h-60.79V143.676Zm77.39,55.664V143.676h59.33V199.34h-59.33Zm0,74.219V249.145h81.3V235.229h-81.3V213.256h76.17v-83.74H1059.61v83.74h76.66v21.973h-81.3v13.916h81.3v24.414H1034.46v14.892h220.95V273.559H1152.87Zm-73.73,30.029-15.87-3.906q-11.475,27.345-28.08,41.5l15.14,7.568q17.325-15.873,28.81-45.166h0Zm31.49,42.724,15.87-2.441q0-17.578-5.37-39.551l-15.38,1.221a237.4,237.4,0,0,1,4.88,40.771h0Zm60.06-.244,16.36-4.15q-4.4-17.578-14.41-39.063l-15.38,3.174a195.762,195.762,0,0,1,13.43,40.039h0Zm69.58,1.953,16.11-6.591a208.719,208.719,0,0,0-33.93-41.748l-14.65,5.371q22.71,24.415,32.47,42.968h0Z"/>
  <path id="中文示例" class="cls-2" d="M281.02,730.57H261.293V710.648H281.02V730.57Zm-19.727,6.055H281.02v20.8H261.293v-20.8Zm25.977-32.031H255.043v68.457h6.25v-9.375H287.27V704.594Zm16.113,33.4v-4.98h29v18.457H302.6a131.993,131.993,0,0,0,.781-13.477h0Zm29-11.035h-29V708.891h29v18.066ZM296.84,702.738v35.254q0,5.471-.293,9.766a78.633,78.633,0,0,1-1.416,9.912,52.045,52.045,0,0,1-3.027,10.107,46.459,46.459,0,0,1-5.42,9.278,41.563,41.563,0,0,1-8.4,8.5,20.051,20.051,0,0,1,4.883,4.492q14.451-11.133,18.555-32.52h30.664v22.852q0,2.344-2.637,2.441-5.079.294-14.648-.1a21.588,21.588,0,0,1,2.539,6.543q13.084,0,16.992-1.27a5.218,5.218,0,0,0,3.222-2.539,11.66,11.66,0,0,0,.879-5.078V702.738H296.84Zm77.734,31.348h46.582v17.676H373.4a141.093,141.093,0,0,0,1.172-17.676h0Zm46.582-6.348H374.574v-17.48h46.582v17.48Zm-53.32-24.023v30.176q0,7.227-.586,13.037A103.455,103.455,0,0,1,365,759.867a47.273,47.273,0,0,1-5.469,13.526,47.906,47.906,0,0,1-9.57,11.474,25.276,25.276,0,0,1,2.588,2.2,19.708,19.708,0,0,1,2.392,2.588q12.792-11.426,17.285-31.445h48.926v21a3.073,3.073,0,0,1-.683,2.3,3.423,3.423,0,0,1-2.344.635q-7.423.292-18.75-.1a31.428,31.428,0,0,1,2.734,7.031q16.6,0,20.9-1.367a6.79,6.79,0,0,0,3.906-2.783,11.1,11.1,0,0,0,1.172-5.713V703.715H367.836Zm160.742,72.949h-29.1V741.8h31.835V707.816h-6.738v27.539h-25.1V698.832h-6.739v36.523H468.617V707.914h-6.543V741.8h30.664v34.863H464.809V748.441h-6.446v41.016h6.446v-6.348h63.769v6.153h6.738V748.441h-6.738v28.223Zm108.984-39.453H599.281q0.1-2.147.1-6.055V712.992H640.1v-6.738h-87.11v6.738h39.453v18.164q0,3.908-.2,6.055H555.922v6.836h35.644a46.2,46.2,0,0,1-3.418,11.182,47.007,47.007,0,0,1-6.787,10.449,47.852,47.852,0,0,1-12.109,9.961,94.917,94.917,0,0,1-18.115,8.252,15.181,15.181,0,0,1,4,5.761q19.238-6.738,29-16.552a48.544,48.544,0,0,0,12.988-22.022q11.229,30.274,40.918,38.574a23.842,23.842,0,0,1,4.492-6.152q-30.859-7.52-41.113-39.453h36.132v-6.836Zm91.6,36.035h-29.59V700.3h-6.836v72.949H664.223V722.074h-6.641v66.211h6.641v-8.5h64.941V787.8H735.9v-65.82h-6.738v51.269Zm102.93-54.98v-7.52h27.929v7.52h6.543v-7.52H890.2V705.18H866.566v-6.739h-6.543v6.739H832.094v-6.739h-6.446v6.739H803.09v5.566h22.558v7.52h6.446ZM873.5,782.133H827.9V772.074H873.5v10.059ZM827.9,789.457V786.82H873.5v2.637h6.543V767.289h-58.5v22.168H827.9Zm18.066-69.629a78.52,78.52,0,0,0,12.891,8.887h-25.1a73.4,73.4,0,0,0,12.207-8.887h0Zm24.316,27.637H822.23V741.9h48.047v5.567Zm-48.047,4h48.047v6.054H821.938q0.293-3.222.292-6.054h0Zm2.637-24.463a120.507,120.507,0,0,1-24.121,9.326,22.742,22.742,0,0,1,3.32,5.371q4.688-1.366,12.012-4.3v13.672q0,22.17-13.379,33.3a16.738,16.738,0,0,1,4.785,4.492q11.427-9.766,13.965-26.953H876.43V737.406H816.176q9.375-4,14.453-6.836v2.539H862.27v-2.441a128.486,128.486,0,0,0,26.367,10.156,27.554,27.554,0,0,1,3.711-5.762,118.174,118.174,0,0,1-23.78-8.007,76.7,76.7,0,0,1-19.677-12.5h-6.348Q836.293,721.1,824.867,727.006Zm95.313,28.662,3.808-5.371q-6.738-4.98-19.043-8.985l-3.613,4.786q12.207,4.3,18.848,9.57h0Zm-8.106-31.445-3.808,4.492q11.718,5.079,18.261,10.937l3.907-4.98q-6.544-5.859-18.36-10.449h0Zm19.434,39.55L928.09,758.4a276.781,276.781,0,0,1-23.926,24.707l4.492,5.664q10.35-10.253,22.852-25h0Zm28.711-41.7h6.64V712.7H990.2v-6.054h-23.34v-8.2h-6.64v8.2H932.387v-8.2h-6.543v8.2H903.09V712.7h22.754v9.766h6.543V712.7h27.832v9.375ZM945.18,778.568q-1.563-1.512-1.563-5.127V740.824h47.461V734.77H968.129V723.539h-6.543V734.77H937.074v38.476q0,7.325,3.125,10.205t10.938,2.881h28.808q9.178,0,11.914-.684-0.392-2.148-.879-6.445a62.247,62.247,0,0,1-11.132.879h-29.1Q946.741,780.082,945.18,778.568Zm97.75-57.861v25h6.45v-25h32.91v16.016h6.15V715.434h-39.06v-7.715h33.69v-5.371h-73.14v5.371h33v7.715h-38.08v21.289h5.86V720.707h32.22Zm-5.47,22.852v-4.786h-23.34v4.786h23.34Zm-21.28-16.211v4.687h21.28v-4.687h-21.28Zm62.98,28.222V750.2h-65.52v5.371h65.52Zm-24.21-16.8v4.786h24.41v-4.786h-24.41Zm0-6.738h21.67v-4.687h-21.67v4.687Zm35.93,31.25h-88.67v5.371h25.49a124.588,124.588,0,0,1-7.62,12.207q-8.985.2-12.3,0.2l0.58,5.957q9.285-.2,66.51-2.051a42.977,42.977,0,0,1,5.56,5.371l5.86-3.32a83.539,83.539,0,0,0-10.3-9.034,147.63,147.63,0,0,0-13.13-9.033l-5.47,3.028q5.655,3.515,11.03,7.617-37.2.976-41.11,1.074a142.078,142.078,0,0,0,8.49-12.012h55.08v-5.371Zm18.75-63.769-3.9,4.687q10.83,5.567,16.6,11.426l4-5.176q-5.265-5.37-16.7-10.937h0Zm-4.88,26.464-3.81,4.786q11.52,5.372,16.8,10.644l3.9-5.371q-5.265-4.784-16.89-10.059h0Zm19.63,29.786-5.37-3.809a253.141,253.141,0,0,1-15.63,32.324l5.86,3.809q8.01-15.038,15.14-32.324h0Zm67.09-44.727h-47.95q2.64-6.64,4.1-11.23l-6.54-1.465q-5.76,19.335-16.6,30.957a20.279,20.279,0,0,1,5.66,3.711A74.268,74.268,0,0,0,1140.69,717h50.78v-5.957Zm-29.98,42.285h16.4q-0.48,8.79-1.36,16.114h-17.09q0.78-5.274,2.05-16.114h0Zm-7.72,16.114h-15.43q1.665-10.741,2.35-16.114h14.94q-0.69,7.325-1.86,16.114h0Zm2.54-22.168h-14.74q0.09-.682.78-6.4c0.45-3.809.78-6.624,0.97-8.447h14.36q-0.105,1.856-1.37,14.844h0Zm7.03-14.844h15.53q-0.285,8.5-.58,14.844h-16.22q0.975-10.156,1.27-14.844h0Zm29.89,14.844h-8.79q0-.781.78-17.579v-3.125h-47.27q-0.585,5.764-2.54,20.7h-10.25v6.054h9.38q-1.86,12.99-4.4,25.781l6.45,0.684c0.13-.52.27-1.3,0.44-2.344s0.27-1.757.34-2.148h38.28c-0.65,3.515-1.47,5.893-2.44,7.129q-1.08,1.267-3.81,1.269-6.54,0-11.82-.293a10.309,10.309,0,0,1,1.56,5.567,86.179,86.179,0,0,0,12.8.195q4.59-.292,6.64-3.32,2.25-2.442,3.51-10.547h10.65v-5.859h-9.96q0.675-5.664,1.27-16.114h9.18V747.27Zm42.18-30.372h-22.85v-8.984h22.85V716.9Zm-22.85,5.079h22.85v9.375h-22.85v-9.375Zm29.2-19.239h-35.74v86.817h6.54V736.527h29.2V702.738Zm16.9,56.641h-24.61v-9.863h24.61v9.863Zm-24.61,5.176h24.61v10.254h-24.61V764.555Zm30.76-20.215h-36.82v40.918h6.06V780.18h30.76V744.34Zm-7.33-22.363h23.54v9.472h-23.54v-9.472Zm23.54-5.079h-23.54v-8.984h23.54V716.9Zm-29.98-14.16v33.887h29.98v43.75a2.444,2.444,0,0,1-.49,1.758,2.959,2.959,0,0,1-1.85.586q-5.28.292-14.16-.1a19.44,19.44,0,0,1,2.34,6.836q13.275,0,16.6-1.172a5.739,5.739,0,0,0,3.27-2.685,11.706,11.706,0,0,0,.93-5.225V702.738h-36.62ZM308.949,942.289a54.574,54.574,0,0,1-10.937-15.137H340.98V921.1H276.625v-9.18h51.66v-5.469h-51.66v-8.887h51.66V892h-51.66v-8.887h54.687v-5.664H269.887V921.1H252.211v6.054h17.676v28.516q-8.5,1.368-12.793,1.953l1.66,6.152q14.745-2.442,45.117-8.007l-0.1-5.957q-2.93.489-12.6,2.2t-14.551,2.49V927.152h14.746q12.695,29.689,46.875,37.6a31.6,31.6,0,0,1,4.2-5.957Q324.868,955.277,313.051,946a157.927,157.927,0,0,0,23.242-13.965l-5.469-3.613a167.445,167.445,0,0,1-21.875,13.867h0Zm71.485-28.809h12.207V929.5H380.434V913.48ZM410.9,929.5H398.7V913.48H410.9V929.5Zm1.758,18.848-13.965.879V934.965h17.969V908.012H398.7V897.953a162.178,162.178,0,0,0,19.922-3.808l-4.785-4.786q-12.795,3.712-41.7,5.664A18.65,18.65,0,0,1,373.988,900q8.2-.389,18.653-1.367v9.375H375.062v26.953h17.579v14.648q-4.007.2-12.256,0.684t-11.768.683l0.488,6.153q24.219-1.758,46.583-3.321a50.29,50.29,0,0,1,3.027,7.911l5.566-2.051a50.411,50.411,0,0,0-4.785-10.693,83.344,83.344,0,0,0-7.617-11.28l-5.176,1.856q4.784,6.642,5.957,8.789h0Zm-50.1-37.7q0,6.936-.39,12.549t-1.514,12.7A63.291,63.291,0,0,1,357,949.369a47.424,47.424,0,0,1-6.445,11.475,15.338,15.338,0,0,1,5.273,3.808q12.987-17.284,12.988-54v-25.39h55.079q0,2.05.1,6.25,0.294,39.55,1.856,52.734,2.538,20.216,9.961,20.215,3.612-.1,5.078-4.053t1.953-14.013a20.121,20.121,0,0,1-4.3-4.493q-0.2,15.724-1.953,15.723-2.149,0-3.565-6.494t-2-19.58q-0.586-13.086-.733-24.121t-0.146-28.418H362.562v31.64Zm141.7,3.711q4.3-.389,14.355-1.171t15.43-1.172q1.758,3.712,2.344,5.175l5.078-2.343q-2.833-7.617-10.645-17.774l-4.883,2.051a98.481,98.481,0,0,1,5.469,8.2q-8.4.587-16.992,0.879a219.005,219.005,0,0,0,18.848-23.242l-5.078-2.735a154.542,154.542,0,0,1-9.473,13.477,54.977,54.977,0,0,0-6.445-5.469q3.515-4.49,9.57-14.16l-5.371-2.441a97.766,97.766,0,0,1-7.91,13.769q-0.978-.681-3.516-2.344l-3.223,4A93.272,93.272,0,0,1,515.4,900.1q-3.81,4.688-7.227,8.4l-4.98.2Zm-49.805,1.661q3.71-.294,8.691-0.586t11.475-.635q6.493-.342,10.5-0.635,0.293,0.586.684,1.514c0.259,0.619.488,1.172,0.683,1.66s0.357,0.928.489,1.318l4.98-2.344a94.156,94.156,0,0,0-9.277-16.992l-4.59,1.758q3.9,6.642,4.59,8.2-0.978,0-6.983.244t-8.935.342a249.291,249.291,0,0,0,18.945-24.023l-5.273-2.637q-4.886,7.91-9.473,13.965A65.986,65.986,0,0,0,465,891.508q2.343-3.125,9.766-14.746l-5.372-2.637a92.3,92.3,0,0,1-7.91,14.551,46.04,46.04,0,0,0-3.906-3.028l-3.516,3.907a95.9,95.9,0,0,1,13.477,12.109q-4.591,5.666-7.227,8.4l-6.933.2Zm57.031,29.394a70.114,70.114,0,0,1-6.836-15.918h36.524V923.93h-12.4l1.758-1.66q-3.906-4.395-12.4-8.79l-4.1,3.321a68.942,68.942,0,0,1,10.157,7.129H503.09q-5.371-20.8-5.371-50.391h-6.543q0.194,29.1,5.273,50.391H452.211V929.5h17.383q-3.516,22.558-18.262,30.566a14.7,14.7,0,0,1,4.2,4.493q12.792-7.324,18.164-24.024a126.548,126.548,0,0,1,15.528,12.7l4.492-4.395a122.47,122.47,0,0,0-16.992-12.793l-2.344,1.953a79.786,79.786,0,0,0,1.855-8.5h21.68a80.356,80.356,0,0,0,8.2,19.434A97.707,97.707,0,0,1,481.7,959.281a28.039,28.039,0,0,1,3.906,5.371A111.616,111.616,0,0,0,509.73,953.91q8.5,10.449,20.508,10.449,5.956,0,8.5-3.613t3.614-13.769a12.4,12.4,0,0,1-5.371-3.223q-0.587,8.4-1.954,11.426a4.7,4.7,0,0,1-4.589,3.027q-8.6,0-15.43-7.91a62.643,62.643,0,0,0,16.5-16.7l-5.762-2.539a56.243,56.243,0,0,1-14.258,14.355h0Zm59.18-34.766h22.559v7.911H570.668v-7.911Zm22.559-12.3v7.617H570.668v-7.617h22.559Zm6.347,7.617v-7.617h23.047v7.617H599.574Zm0,12.6v-7.911h23.047v7.911H599.574Zm0,11.132v-6.25h29.59v-29.98H564.32v29.98h28.907v6.25H558.07v34.766h6.25v-29h28.907v11.426q-11.331.489-22.266,0.879l0.488,5.957q18.261-.879,44.824-2.344,1.561,3.223,2.539,5.859l5.274-1.855a42.239,42.239,0,0,0-4.248-8.789,64.017,64.017,0,0,0-6.592-9.082l-4.98,1.66q3.71,4.884,4.882,6.738l-13.574.782V935.453h29.883v21.875a1.5,1.5,0,0,1-.293,1.123,1.958,1.958,0,0,1-1.172.244q-2.149.2-10.351,0a24.928,24.928,0,0,1,2.05,5.567q10.741,0,13.282-.879a4.31,4.31,0,0,0,2.343-2.1,9.868,9.868,0,0,0,.586-3.857V929.691H599.574Zm17.383-56.347h-6.543v6.347h-28.32v-6.347h-6.543v6.347H553.773v5.664h21.778V892h6.543v-6.641h28.32V892h6.543v-6.641h22.461v-5.664H616.957v-6.347Zm82.617,7.91v-8.008h-6.445v8.008H653.676v5.176h85.937v-5.176H699.574Zm-29,24.8h22.559v6.25H670.57v-6.25ZM693.129,895.9v6.153H670.57V895.9h22.559Zm6.445,6.153V895.9h23.047v6.153H699.574Zm0,10.254v-6.25h23.047v6.25H699.574Zm13.77,35.546A45.885,45.885,0,0,1,702.9,937.6H740.98v-5.274H699.574v-5.371h34.278v-4.98H699.574v-5.372h29.492v-25.1H664.32v25.1h28.809v5.372H659.047v4.98h34.082v5.371H652.211V937.6h34.082q-14.846,8.2-35.84,11.914a25.631,25.631,0,0,1,3.711,4.687,124.509,124.509,0,0,0,20.313-5.859v8.594q-5.665.78-12.207,1.464l1.171,5.567q12.4-1.563,43.457-6.055l-0.2-5.078-25.879,3.32V945.707a88.805,88.805,0,0,0,14.551-8.105h1.074a51.044,51.044,0,0,0,17.09,17.089,77.512,77.512,0,0,0,25.1,9.864,19.776,19.776,0,0,1,3.906-5.274,72.274,72.274,0,0,1-24.8-8.691,123.183,123.183,0,0,0,16.5-7.422l-4.3-3.711a122.8,122.8,0,0,1-16.6,8.4h0Zm97.168-17.675V888.871h15.039V930.18H810.512Zm73.633-32.91a161.625,161.625,0,0,1-5.86,20.019l5.567,1.758q3.026-7.128,8.5-27.246l-4.688-1.27-1.172.293H848.5q2.147-7.421,3.809-16.113l-6.934-1.27q-4.493,25.978-13.672,39.844V882.621H804.555V945.9h5.957v-9.57H831.7V916.8a44.739,44.739,0,0,1,4.3,2.832q5.859-8.592,10.547-22.363H858.07v16.308a38.83,38.83,0,0,1-.683,6.738,51.118,51.118,0,0,1-2.832,9.278,52.11,52.11,0,0,1-5.567,10.449,50.824,50.824,0,0,1-9.619,10.107,56,56,0,0,1-14.111,8.448,29.724,29.724,0,0,1,4.1,5.468,57.219,57.219,0,0,0,14.014-8.642,50.943,50.943,0,0,0,9.815-10.694,63.183,63.183,0,0,0,5.566-10.107,36.363,36.363,0,0,0,2.539-8.447,48.731,48.731,0,0,0,1.562,6.4,53.63,53.63,0,0,0,3.321,7.959,60.968,60.968,0,0,0,5.224,8.594,50.954,50.954,0,0,0,7.569,8.154,47.666,47.666,0,0,0,9.961,6.787,49.631,49.631,0,0,1,4.2-5.761,46.477,46.477,0,0,1-12.207-8.3,47.362,47.362,0,0,1-8.35-10.108,60.294,60.294,0,0,1-4.931-10.5,52.32,52.32,0,0,1-2.539-9.228,43.429,43.429,0,0,1-.586-6.592V897.27h19.629ZM990.492,883.4H952.7v-9.961h-6.738V883.4H909.047v28.809q0,33.4-8.887,48.73a15.758,15.758,0,0,1,5.371,3.711q9.863-17.088,9.864-52.441V889.555h75.1V883.4ZM966.859,918.07H941.566V906.742h25.293V918.07Zm6.543-11.328h16.309v-5.469H973.4v-9.082h-6.543v9.082H941.566v-9.082h-6.347v9.082H918.812v5.469h16.407v16.7H973.4v-16.7Zm-18.359,42.481q-11.037-5.37-17.09-13.477h34.961q-6.543,8.2-17.871,13.477h0Zm22.07-18.946H920.277v5.469h15.332l-3.906,1.465a52.66,52.66,0,0,0,16.406,14.941q-12.89,4.688-31.543,6.543a19.811,19.811,0,0,1,2.735,5.762q21.288-2.637,35.644-8.789,13.866,6.541,33.3,8.984a24.414,24.414,0,0,1,4-5.859,119.582,119.582,0,0,1-30.273-6.543q14.063-7.812,20.605-20.02l-4.2-2.246Zm72.457-9.082h32.91v-6.347h-32.91V886.625h36.72v-6.543h-79.1v6.543h35.35v28.223h-31.25V921.2h31.25V953.91h-40.43v6.543h89.07V953.91h-41.61V921.2Zm28.03,28.028,5.08-4.395a257.836,257.836,0,0,0-18.85-18.164l-4.78,3.711a197.279,197.279,0,0,1,18.55,18.848h0Zm57.42-55.957h-22.26v-9.473h22.26v9.473Zm-22.26,5.175h22.26V908.7h-22.26V898.441Zm-6.55-20.214v86.23h6.55v-50.1h28.61V878.227h-35.16Zm51.27,20.214h23.34v10.352h-23.34V898.441Zm23.34-5.175h-23.34v-9.473h23.34v9.473Zm-29.78-15.039v36.23h29.78v40.625a2.512,2.512,0,0,1-.58,1.9,3.218,3.218,0,0,1-1.95.635q-11.04,0-15.63-.195a22.433,22.433,0,0,1,2.34,6.836q14.07,0,18.07-1.172a5.957,5.957,0,0,0,3.42-2.686,11.5,11.5,0,0,0,.97-5.322V878.227h-36.42Zm86.82,69.14h-9.97V937.9h-4.78v13.867h13.67q-2.535,5.471-11.42,8.008a15.252,15.252,0,0,1,3.32,4q8.49-3.027,11.32-7.519a20.279,20.279,0,0,0,2.84-11.035V936.43h-4.89v8.691a19.431,19.431,0,0,1-.09,2.246h0Zm-2.45-52.148v7.715h-23.34v-7.715h23.34Zm0-4.688h-23.34v-7.812h23.34v7.812Zm3.91,38.867q-0.585,0-3.81.245c-2.15.163-3.77,0.277-4.88,0.341a188.023,188.023,0,0,0,12.99-14.062l-4.1-1.856a82.478,82.478,0,0,1-6.74,8.5,32.076,32.076,0,0,0-3.91-4.2,96.411,96.411,0,0,0,7.81-9.277l-2.63-1.172h7.71V877.738h-36.13v86.817h6.44V907.914h19.83q-1.95,3.126-5.76,8.008l-2.93-2.051-2.83,2.539a47.1,47.1,0,0,1,9.57,9.375q-2.25,2.442-4.5,4.492l-6.44.2,0.58,4.492q9.96-.587,21.88-1.465c0.45,1.172.78,2.116,0.98,2.832l3.9-1.465q-1.275-4.98-6.15-10.742l-3.61,1.172q0.585,0.783,2.73,4.1h0Zm30.47,8.5H1265v9.472h-10.35V936.43h-4.98V962.6h4.98v-10.84h15.14V937.9Zm-12.31-42.676h24.13v7.715h-24.13v-7.715Zm24.13-4.688h-24.13v-7.812h24.13v7.812Zm-30.57-12.793v30.176h5.57a99.4,99.4,0,0,1-5.86,8.2c-0.39-.325-1.44-1.074-3.13-2.246l-2.93,2.539a49.426,49.426,0,0,1,9.67,9.375q-4.59,4.4-4.79,4.492l-3.8.2,0.97,4.394c2.21-.195,5.83-0.455,10.84-0.781s8.82-.586,11.43-0.781a24.588,24.588,0,0,1,1.46,3.418l3.91-1.563q-1.365-5.272-6.84-11.621l-3.9,1.172a40.893,40.893,0,0,1,3.22,4.687c-0.72.066-2.52,0.164-5.42,0.293s-5.06.229-6.49,0.293a159.2,159.2,0,0,0,13.57-13.672l-4.2-1.953a103.172,103.172,0,0,1-6.93,8.2,44.369,44.369,0,0,0-3.81-3.906,125.794,125.794,0,0,0,8.1-9.863l-2.14-.879h22.07v47.949a1.656,1.656,0,0,1-1.76,1.856q-2.745.193-10.06-.1a26.284,26.284,0,0,1,2.15,6.641q9.765,0,12.79-1.27a4.874,4.874,0,0,0,2.64-2.49,12.461,12.461,0,0,0,.68-4.639V877.738h-37.01Z"/>
  <path id="大写字母" class="cls-3" d="M226.992,466.883q2.954-13.147,3.8-17.86h0.281q1.266,6.4,3.8,17.86l1.9,8.578H225.094Zm20.32,29.883-12.374-52.805h-7.876l-12.374,52.805h5.624l3.727-16.454H237.82l3.727,16.454h5.765Zm25.13,0q7.873,0,12.305-3.9t4.43-11.425q0-10.687-9.7-12.657v-0.422a9.809,9.809,0,0,0,5.59-4.218,13.537,13.537,0,0,0,1.864-7.243q0-12.936-14.907-12.937h-9.984v52.805h10.406Zm-4.5-47.954h3.445q5.133,0,7.383,2t2.25,6.856q0,4.5-2.285,6.785t-7.7,2.285h-3.094v-17.93Zm0,22.36h4.219q5.7,0,8.4,2.461t2.707,7.594q0,10.757-11.531,10.757h-3.8V471.172Zm65.278,19.9-3.586-3.515q-3.656,4.921-8.226,4.922-5.415,0-8.754-5.59t-3.34-16.629q0-10.758,3.41-16.348t8.543-5.59q4.147,0,7.524,4.219l3.515-3.727q-4.782-5.694-11.179-5.695-7.806,0-12.9,7t-5.1,20.356q0,13.288,4.992,20.215t12.8,6.925q7.171,0,12.3-6.539h0Zm22.669,5.7q9.492,0,14.695-7.032t5.2-19.617q0-12.446-5.239-19.3t-14.871-6.855h-8.367v52.805h8.578Zm-2.6-47.813h3.023a10.91,10.91,0,0,1,9.949,5.485q3.339,5.484,3.34,15.679,0,10.336-3.34,16a10.84,10.84,0,0,1-9.949,5.66h-3.023v-42.82Zm64.575,47.813v-5.133H398.245V471.594H414v-5.133h-15.75V449.094h18.914v-5.133H392.2v52.805h25.665Zm24.707,0V472.719h15.821v-5.133H442.57V449.094H461.2v-5.133H436.594v52.805h5.976Zm61.974-4.782V469.7H491.536v5.063h7.453v14.976a7.527,7.527,0,0,1-6.258,2.743q-5.133,0-8.226-5.942t-3.094-16.277q0-10.194,3.2-16.067t8.473-5.871a6.744,6.744,0,0,1,4.183,1.3,17.852,17.852,0,0,1,3.481,3.691l3.586-3.8q-4.993-6.4-11.25-6.4-7.947,0-12.9,7.383t-4.957,19.969q0,12.446,4.887,19.793t12.551,7.347a14.847,14.847,0,0,0,11.883-5.625h0Zm21.262,4.782V471.594h15.258v25.172h5.977V443.961h-5.977V466.32H525.806V443.961h-6.047v52.805h6.047Zm63.45,0v-4.993h-9.633V449.094h9.633v-5.133H563.944v5.133h9.633v42.679h-9.633v4.993h25.312Zm36.521-52.805V482.07q0,10.407-7.665,10.407-4.992,0-8.156-5.907l-3.937,3.586a15.193,15.193,0,0,0,5.484,5.555,13.762,13.762,0,0,0,6.961,1.9q6.962,0,10.125-4.078t3.164-10.828V443.961h-5.976Zm30.473,52.805V480.523l6.891-11.25,10.547,27.493h6.117l-13.078-32.977,11.39-19.828h-6.258l-15.328,27.211H656.25V443.961h-5.906v52.805h5.906Zm64.505,0v-5.133h-19.2V443.961h-5.976v52.805h25.172Zm19.645,0v-31.43q0-2.46-.562-8.719t-0.563-6.469h0.281l2.672,10.829L747.713,482h3.3l5.485-21.023,2.461-10.829h0.281q-0.986,14.275-.985,15.188v31.43h4.993V443.961h-6.118l-5.625,22.078-1.968,8.859h-0.282l-1.968-8.859-5.625-22.078h-6.118v52.805H740.4Zm43.833,0v-28.9q0-2.882-.7-16.1h0.281l3.726,11.32,12.235,33.68h6.187V443.961h-4.992v28.828q0,3.164.7,16.172h-0.281l-3.656-11.18-12.3-33.82h-6.187v52.805h4.992Zm66.825-26.649q0-13.289-4.113-20.144T835.8,443.117q-7.032,0-11.145,6.856t-4.113,20.144q0,13.36,4.149,20.426t11.109,7.066q6.962,0,11.109-7.066t4.149-20.426h0Zm-24.328,0q0-21.8,9.07-21.8t9.07,21.8q0,22.359-9.07,22.36t-9.07-22.36h0Zm45.731,26.649V475.391h3.656q18.071,0,18.071-16.032,0-8.295-4.5-11.847t-13.571-3.551h-9.633v52.805h5.977Zm0-47.883h2.812q6.891,0,9.915,2.32t3.023,8.156q0,5.838-3.094,8.508t-9.844,2.672h-2.812V448.883Zm49.739-.563q9.07,0,9.07,21.8,0,11.391-2.39,17.016t-6.68,5.625q-4.29,0-6.68-5.625t-2.39-17.016Q913.13,448.322,922.2,448.32Zm11.531,56.6q-6.117,0-8.508-7.664,5.7-1.477,8.965-8.4t3.27-18.738q0-13.289-4.114-20.144T922.2,443.117q-7.032,0-11.145,6.856t-4.113,20.144q0,11.955,3.375,18.914t9.141,8.3a20.238,20.238,0,0,0,5.2,9.141,11.922,11.922,0,0,0,8.578,3.375,11.563,11.563,0,0,0,5.2-1.055l-1.2-4.57a8.425,8.425,0,0,1-3.516.7h0Zm25.06-56.039h4.078q5.484,0,8.191,2.25t2.707,7.453q0,10.547-10.9,10.547h-4.078v-20.25Zm11.39,24.187q9.492-3.093,9.492-14.484,0-14.624-15.82-14.625H952.814v52.805h5.977V473.984h5.625l9.984,22.782h6.328Zm49.039,20.567a13.66,13.66,0,0,0,3.93-10.02,14.615,14.615,0,0,0-2.25-8.508,22.166,22.166,0,0,0-6.46-5.906l-5.28-3.375a21.193,21.193,0,0,1-5.52-4.676,8.964,8.964,0,0,1-1.58-5.449,7.138,7.138,0,0,1,2.08-5.344,7.06,7.06,0,0,1,5.16-2.039q4.65,0,9.28,5.133l3.31-3.867q-5.49-6.468-12.59-6.469a13,13,0,0,0-9.559,3.692,12.56,12.56,0,0,0-3.727,9.316,13.483,13.483,0,0,0,2.215,7.98,22.964,22.964,0,0,0,6.291,5.8l5.42,3.446a19.682,19.682,0,0,1,5.34,4.746,10.24,10.24,0,0,1,1.83,6.222,7.9,7.9,0,0,1-2.29,5.907,8.2,8.2,0,0,1-6.01,2.25q-5.91,0-10.9-6.68l-3.8,4.078q5.906,7.736,14.694,7.734A14.017,14.017,0,0,0,1019.22,493.637Zm35.6,3.129V449.094h12.8v-5.133h-31.64v5.133h12.87v47.672h5.97Zm50.13-3.164q3.825-4.008,3.83-13.008V443.961h-5.76v36.7q0,11.813-8.02,11.813a6.558,6.558,0,0,1-5.48-2.778q-2.115-2.776-2.11-9.035v-36.7h-5.98v36.633q0,9.071,3.69,13.043a12.829,12.829,0,0,0,9.88,3.972A13.155,13.155,0,0,0,1104.95,493.6Zm36.98,3.164,12.09-52.805h-5.98l-5.97,29.18q-2.61,13.149-3.66,17.718h-0.28q-0.63-3.093-3.59-17.718l-5.97-29.18h-6.19l12.09,52.805h7.46Zm33.92,0,4.14-22.782q0.705-4.639,1.27-9.562h0.28q0.78,6.609,1.27,9.562l4.14,22.782h6.47l5.28-52.805h-4.93l-2.88,33.891q-0.705,9.069-.84,12.515h-0.28q-1.485-9-2.11-12.515l-3.8-20.18h-4.43l-3.87,20.18q-0.765,4.289-2.11,12.515h-0.28q-0.63-9.492-.91-12.515l-2.95-33.891h-5.35l5.56,52.805h6.33Zm39.54,0,5.48-14.133q0.42-1.335,1.62-4.5t1.69-4.711h0.28q0.7,1.688,3.3,9.211l5.63,14.133h6.4l-11.46-26.789,10.82-26.016h-5.9l-5.2,13.43c-0.29.8-.77,2.109-1.45,3.937s-1.2,3.259-1.58,4.289h-0.28c-1.73-4.359-2.79-7.1-3.16-8.226l-5.28-13.43h-6.25L1220.8,469.2l-11.39,27.563h5.98Zm55.43,0V477.852l13.01-33.891h-6.05l-5.62,16.031q-0.705,2.251-2.15,6.328t-2.07,5.907h-0.28q-0.42-1.407-4.01-12.165l-5.69-16.1h-6.19l13.01,33.891v18.914h6.04Zm54.73,0v-4.993h-22l21.72-44.226v-3.586h-26.79v5.133h19.76l-21.79,44.226v3.446h29.1Z"/>
  <path id="logo" class="cls-1" d="M706.266,1194.7a45.969,45.969,0,0,0-.118,5.15v5.16H677.555v-1.17l0.234-.94-1.406-.24c-1.1,0-2.659-.07-4.688-0.23h-3.281l-0.469,2.58a45.646,45.646,0,0,1-1.172,4.92,22.619,22.619,0,0,1-1.406,4.22,7.125,7.125,0,0,0-.82,2.23,6.584,6.584,0,0,0,2.109-.71c1.326-.54,2.615-1.13,3.867-1.76a11.566,11.566,0,0,0,3.516-2.81l1.641-1.64h66.8l1.875,1.88a14.477,14.477,0,0,0,3.75,2.81c1.406,0.62,2.655,1.17,3.75,1.64a1.036,1.036,0,1,0,1.171-1.17,17.1,17.1,0,0,1-1.406-3.99q-0.7-2.34-1.172-4.68a11.9,11.9,0,0,0-.7-3.05c0-.47-1.252-0.62-3.75-0.47-1.875.16-3.281,0.23-4.219,0.23a2.052,2.052,0,0,1-.937.24c-0.315,0-.469.31-0.469,0.94l0.235,0.93-13.594.24q-13.359,0-13.36-.24a2.838,2.838,0,0,1,.7-1.05,6.664,6.664,0,0,0,1.171-2.46,15.728,15.728,0,0,0,.469-4.22v-2.58h-4.687Q706.382,1194.46,706.266,1194.7Zm-31.289,28.12v4.22l21.093,0.23h21.094l-5.859,4.93q-5.4,4.215-8.2,6.56l-2.344,1.87v6.8H660.445v4.22h40.313v14.76c0,10.01-.158,15.47-0.469,16.41a13.152,13.152,0,0,1-1.172,3.05,21,21,0,0,1-2.578,3.04,16.962,16.962,0,0,1-3.75,2.82c-1.406.62-2.109,1.17-2.109,1.64s0.153,0.7.468,0.7a30.375,30.375,0,0,0,3.047-.47,34.353,34.353,0,0,0,4.922-1.4,16.4,16.4,0,0,0,4.688-1.88,11.74,11.74,0,0,0,3.515-2.34,12.264,12.264,0,0,0,2.344-2.58,13,13,0,0,0,1.172-2.58c0.311-.94.469-6.4,0.469-16.41v-14.76h38.2v-4.22h-38.2v-6.8l2.109-1.64q2.109-1.635,8.438-6.79,6.327-5.4,8.437-7.04a13.637,13.637,0,0,0,2.578-2.34q0-.225-28.828-0.23t-29.062.23h0Zm121.64-30.23-0.469,1.87a27.635,27.635,0,0,1-1.523,5.74c-0.861,2.43-1.681,4.65-2.461,6.68q-1.176,2.58-3.281,6.8-1.88,3.75-4.453,8.44-2.11,3.75-4.688,7.73-2.582,4.215-3.047,4.92a7.818,7.818,0,0,0-1.406,2.11c-0.157.47-.117,0.71,0.117,0.71a8.252,8.252,0,0,0,2.227-1.18q1.873-1.17,3.515-2.34,1.874-1.41,3.985-3.28a59.714,59.714,0,0,0,4.453-4.45l2.109-2.35,0.235,14.77,0.234,14.76h1.875a5.862,5.862,0,0,0,3.047-.7,5.457,5.457,0,0,0,1.875-1.17,11.374,11.374,0,0,0,1.406-1.64l0.469-.71h27.187v2.11l0.235,2.11h1.64a7.437,7.437,0,0,0,2.813-.47,9.072,9.072,0,0,0,2.109-1.17,4.666,4.666,0,0,0,1.407-1.64l0.7-.94h31.64v-4.45H838.336v-6.8H868.57v-4.45H838.336v-6.8H868.57v-4.68H838.336v-7.5H868.57v-4.69H837.164l0.938-1.17a23.668,23.668,0,0,0,1.406-2.35,6.445,6.445,0,0,0,.7-2.57,17.74,17.74,0,0,0,.469-4.93v-3.51H828.727v14.53H815.6q-13.129,0-13.125-.23c0-.16-0.158-0.24-0.469-0.24s0.311-1.41,1.875-4.22a69.182,69.182,0,0,0,3.281-7.5,16.732,16.732,0,0,0,1.406-3.98l0.235-1.17H796.617Zm31.406,22.03v7.5H802.477v-7.5h25.546Zm0,12.18v6.8H802.477v-6.8h25.546Zm0,11.25v6.8H802.477v-6.8h25.546Zm-3.515,16.88v5.16l-22.969.23H778.805v4.45h45.7v1.64c0,1.1-.081,1.64-0.235,1.64a40.222,40.222,0,0,1-4.687-1.17q-4.455-1.17-4.922-1.4-0.236,0-6.328,4.68-6.1,4.935-7.734,6.1-1.643.93-4.454,2.58a58.967,58.967,0,0,1-5.39,2.57q-2.812,1.185-5.391,2.23a35.226,35.226,0,0,1-5.859,1.76,17.416,17.416,0,0,0-3.047,1.05,6.06,6.06,0,0,0,1.289,1.06,3.994,3.994,0,0,0,1.992.94c0.469,0,2.344-.32,5.625-0.94s6.328-1.33,9.141-2.11q4.449-1.17,8.2-2.35a22.822,22.822,0,0,0,4.922-2.1q1.637-.945,9.14-6.1t7.618-5.04q0.115,0.12.117,13.48v13.12h1.406a7.357,7.357,0,0,0,2.813-.7,6.692,6.692,0,0,0,3.046-1.99,11.184,11.184,0,0,0,2.11-3.17,8.733,8.733,0,0,0,.586-2.34q0.115-1.17.117-6.33c0.154-4.68.271-7.11,0.352-7.26s1.442,0.55,4.1,2.11q3.982,2.1,6.8,3.51a34.945,34.945,0,0,0,6.328,2.58,54.282,54.282,0,0,0,6.328,1.64,52.974,52.974,0,0,0,5.625.94c1.718,0.16,4.219.23,7.5,0.23a38.521,38.521,0,0,0,5.86-.23,1.37,1.37,0,0,0,1.171-.94l0.235-1.17c0-.15-0.235-0.24-0.7-0.24-0.315,0-1.722-.23-4.219-0.7s-5-1.01-7.5-1.64q-3.516-.93-6.8-2.11-2.812-.93-5.625-2.11-2.346-1.17-10.078-6.33l-7.734-5.15,19.453-.24h19.453v-4.45H854.977l-20.157-.23v-2.58l-0.234-2.58H824.508Z"/>
</svg>
