<svg xmlns="http://www.w3.org/2000/svg" width="154" height="90" viewBox="0 0 154 90">
  <defs>
    <style>
      .cls-1 {
        fill: #f8f8f8;
        fill-rule: evenodd;
      }
    </style>
  </defs>
  <path id="字集" class="cls-1" d="M45.676,20.516a23.249,23.249,0,0,0-.059,2.578v2.578H31.32V25.086l0.117-.469-0.7-.117q-0.821,0-2.344-.117H26.75l-0.234,1.289a22.806,22.806,0,0,1-.586,2.461,11.326,11.326,0,0,1-.7,2.109,3.614,3.614,0,0,0-.41,1.113A3.222,3.222,0,0,0,25.871,31q0.994-.409,1.934-0.879a5.79,5.79,0,0,0,1.758-1.406l0.82-.82h33.4l0.938,0.938a7.254,7.254,0,0,0,1.875,1.406q1.055,0.47,1.875.82a2.271,2.271,0,0,0,.879.293,2.331,2.331,0,0,0-.293-0.879,8.548,8.548,0,0,1-.7-1.992q-0.352-1.17-.586-2.344a5.942,5.942,0,0,0-.352-1.523c0-.234-0.626-0.311-1.875-0.234Q64.133,24.5,63.43,24.5a1.039,1.039,0,0,1-.469.117c-0.157,0-.234.157-0.234,0.469l0.117,0.469-6.8.117q-6.68,0-6.68-.117a1.4,1.4,0,0,1,.352-0.527A3.293,3.293,0,0,0,50.3,23.8a7.876,7.876,0,0,0,.234-2.109V20.4H48.2A10.9,10.9,0,0,0,45.676,20.516ZM30.031,34.578v2.109L40.578,36.8H51.125L48.2,39.266q-2.7,2.109-4.1,3.281l-1.172.938v3.4H22.766v2.109H42.922v7.383a65.372,65.372,0,0,1-.234,8.2A6.549,6.549,0,0,1,42.1,66.1a10.44,10.44,0,0,1-1.289,1.523,8.5,8.5,0,0,1-1.875,1.406,1.508,1.508,0,0,0-1.055.82c0,0.234.077,0.352,0.234,0.352a14.909,14.909,0,0,0,1.523-.234,17.365,17.365,0,0,0,2.461-.7,8.177,8.177,0,0,0,2.344-.937A5.772,5.772,0,0,0,46.2,67.156a6.089,6.089,0,0,0,1.172-1.289,6.524,6.524,0,0,0,.586-1.289,65.35,65.35,0,0,0,.234-8.2V48.992H67.3V46.883H48.2v-3.4l1.055-.82q1.055-.819,4.219-3.4,3.164-2.694,4.219-3.516a6.969,6.969,0,0,0,1.289-1.172q0-.115-14.414-0.117t-14.531.117h0Zm60.82-15.117-0.234.938a13.88,13.88,0,0,1-.762,2.871q-0.645,1.818-1.231,3.34-0.588,1.291-1.641,3.4-0.939,1.876-2.227,4.219Q83.7,36.1,82.414,38.094q-1.291,2.109-1.523,2.461a3.889,3.889,0,0,0-.7,1.055c-0.079.234-.059,0.352,0.059,0.352a4.153,4.153,0,0,0,1.113-.586Q82.3,40.79,83.117,40.2q0.937-.7,1.992-1.641a29.615,29.615,0,0,0,2.227-2.227l1.055-1.172,0.117,7.383,0.117,7.383h0.938a2.936,2.936,0,0,0,1.523-.352,2.745,2.745,0,0,0,.938-0.586,5.78,5.78,0,0,0,.7-0.82l0.234-.352h13.594v1.055l0.117,1.055h0.82A3.762,3.762,0,0,0,108.9,49.7a4.586,4.586,0,0,0,1.055-.586,2.343,2.343,0,0,0,.7-0.82l0.352-.469h15.82V45.594H111.711V42.2h15.117V39.969H111.711v-3.4h15.117V34.227H111.711v-3.75h15.117V28.133h-15.7l0.469-.586a12.025,12.025,0,0,0,.7-1.172,3.24,3.24,0,0,0,.351-1.289,8.819,8.819,0,0,0,.235-2.461V20.867h-5.977v7.266h-6.562q-6.565,0-6.563-.117c0-.077-0.079-0.117-0.234-0.117s0.156-.7.938-2.109a34.654,34.654,0,0,0,1.641-3.75,8.44,8.44,0,0,0,.7-1.992l0.117-.586H90.852Zm15.7,11.016v3.75H93.781v-3.75h12.774Zm0,6.094v3.4H93.781v-3.4h12.774Zm0,5.625v3.4H93.781V42.2h12.774ZM104.8,50.633v2.578l-11.484.117H81.945v2.227H104.8v0.82a1.192,1.192,0,0,1-.117.82,21.011,21.011,0,0,1-2.344-.586q-2.228-.585-2.461-0.7-0.118,0-3.164,2.344-3.049,2.461-3.867,3.047-0.821.47-2.227,1.289a28.554,28.554,0,0,1-2.7,1.289q-1.406.588-2.7,1.113a17.421,17.421,0,0,1-2.93.879,8.866,8.866,0,0,0-1.523.527,3.07,3.07,0,0,0,.645.527,1.98,1.98,0,0,0,1,.469q0.351,0,2.813-.469t4.57-1.055q2.225-.585,4.1-1.172a11.21,11.21,0,0,0,2.461-1.055q0.818-.467,4.571-3.047t3.808-2.52q0.059,0.06.059,6.738v6.563h0.7a3.691,3.691,0,0,0,1.406-.352,3.353,3.353,0,0,0,1.524-1,5.632,5.632,0,0,0,1.054-1.582,4.358,4.358,0,0,0,.293-1.172q0.058-.588.059-3.164,0.115-3.516.176-3.633a7.8,7.8,0,0,1,2.05,1.055q1.992,1.055,3.4,1.758a17.57,17.57,0,0,0,3.164,1.289,26.865,26.865,0,0,0,3.164.82,25.829,25.829,0,0,0,2.813.469q1.287,0.118,3.75.117a19.289,19.289,0,0,0,2.929-.117,0.685,0.685,0,0,0,.586-0.469l0.117-.586c0-.077-0.117-0.117-0.351-0.117q-0.237,0-2.11-.352t-3.75-.82q-1.756-.467-3.4-1.055-1.405-.467-2.813-1.055-1.171-.585-5.039-3.164l-3.867-2.578,9.727-.117h9.726V53.328H120.031l-10.078-.117V51.922l-0.117-1.289H104.8Z"/>
</svg>
