<svg xmlns="http://www.w3.org/2000/svg" width="120" height="65" viewBox="0 0 120 65">
  <defs>
    <style>
      .cls-1 {
        fill-rule: evenodd;
      }
    </style>
  </defs>
  <path id="字集" class="cls-1" d="M28.559,8.383a23.247,23.247,0,0,0-.059,2.578v2.578H14.2V12.953l0.117-.469-0.7-.117q-0.821,0-2.344-.117H9.633L9.4,13.539A22.827,22.827,0,0,1,8.813,16a11.321,11.321,0,0,1-.7,2.109,3.613,3.613,0,0,0-.41,1.113,3.225,3.225,0,0,0,1.055-.352q0.994-.409,1.934-0.879a5.789,5.789,0,0,0,1.758-1.406l0.82-.82h33.4L47.6,16.7a7.258,7.258,0,0,0,1.875,1.406q1.055,0.47,1.875.82a2.273,2.273,0,0,0,.879.293,2.331,2.331,0,0,0-.293-0.879,8.548,8.548,0,0,1-.7-1.992q-0.352-1.17-.586-2.344a5.942,5.942,0,0,0-.352-1.523q0-.352-1.875-0.234-1.406.118-2.109,0.117a1.038,1.038,0,0,1-.469.117c-0.157,0-.234.157-0.234,0.469l0.117,0.469-6.8.117q-6.68,0-6.68-.117a1.4,1.4,0,0,1,.352-0.527,3.293,3.293,0,0,0,.586-1.23,7.876,7.876,0,0,0,.234-2.109V8.266H31.078A10.9,10.9,0,0,0,28.559,8.383ZM12.914,22.445v2.109l10.547,0.117H34.008l-2.93,2.461q-2.7,2.109-4.1,3.281l-1.172.938v3.4H5.648v2.109H25.8v7.383a65.35,65.35,0,0,1-.234,8.2,6.545,6.545,0,0,1-.586,1.523A10.44,10.44,0,0,1,23.7,55.492,8.5,8.5,0,0,1,21.82,56.9a1.508,1.508,0,0,0-1.055.82c0,0.234.077,0.352,0.234,0.352a14.892,14.892,0,0,0,1.523-.234,17.351,17.351,0,0,0,2.461-.7,8.177,8.177,0,0,0,2.344-.937,5.772,5.772,0,0,0,1.758-1.172,6.089,6.089,0,0,0,1.172-1.289,6.53,6.53,0,0,0,.586-1.289,65.385,65.385,0,0,0,.234-8.2V36.859h19.1V34.75h-19.1v-3.4l1.055-.82q1.055-.818,4.219-3.4,3.164-2.694,4.219-3.516a6.974,6.974,0,0,0,1.289-1.172q0-.115-14.414-0.117t-14.531.117h0ZM73.734,7.328L73.5,8.266a13.881,13.881,0,0,1-.762,2.871q-0.645,1.818-1.23,3.34-0.588,1.291-1.641,3.4-0.939,1.876-2.227,4.219Q66.586,23.97,65.3,25.961q-1.291,2.109-1.523,2.461a3.889,3.889,0,0,0-.7,1.055c-0.079.234-.059,0.351,0.059,0.351a4.153,4.153,0,0,0,1.113-.586Q65.179,28.657,66,28.07q0.937-.7,1.992-1.641A29.634,29.634,0,0,0,70.219,24.2l1.055-1.172,0.117,7.383L71.508,37.8h0.938a2.936,2.936,0,0,0,1.523-.352,2.745,2.745,0,0,0,.937-0.586,5.78,5.78,0,0,0,.7-0.82l0.234-.352H89.438v1.055L89.555,37.8h0.82a3.768,3.768,0,0,0,1.406-.234,4.588,4.588,0,0,0,1.055-.586,2.346,2.346,0,0,0,.7-0.82l0.352-.469h15.82V33.461H94.594v-3.4h15.117V27.836H94.594v-3.4h15.117V22.094H94.594v-3.75h15.117V16h-15.7l0.469-.586a11.889,11.889,0,0,0,.7-1.172,3.258,3.258,0,0,0,.352-1.289,8.837,8.837,0,0,0,.234-2.461V8.734H89.789V16H83.227q-6.564,0-6.562-.117c0-.077-0.079-0.117-0.234-0.117s0.156-.7.938-2.109a34.641,34.641,0,0,0,1.641-3.75,8.438,8.438,0,0,0,.7-1.992l0.117-.586H73.734Zm15.7,11.016v3.75H76.664v-3.75H89.438Zm0,6.094v3.4H76.664v-3.4H89.438Zm0,5.625v3.4H76.664v-3.4H89.438ZM87.68,38.5v2.578L76.2,41.2H64.828v2.227H87.68v0.82a1.192,1.192,0,0,1-.117.82,21.058,21.058,0,0,1-2.344-.586q-2.228-.585-2.461-0.7-0.118,0-3.164,2.344-3.049,2.461-3.867,3.047-0.821.47-2.227,1.289a28.554,28.554,0,0,1-2.7,1.289q-1.406.588-2.7,1.113a17.421,17.421,0,0,1-2.93.879,8.87,8.87,0,0,0-1.523.527,3.07,3.07,0,0,0,.645.527,1.981,1.981,0,0,0,1,.469q0.351,0,2.813-.469t4.57-1.055q2.225-.585,4.1-1.172a11.21,11.21,0,0,0,2.461-1.055q0.818-.467,4.57-3.047t3.809-2.52q0.058,0.06.059,6.738v6.563h0.7a3.7,3.7,0,0,0,1.406-.352,3.352,3.352,0,0,0,1.523-1,5.629,5.629,0,0,0,1.055-1.582,4.385,4.385,0,0,0,.293-1.172q0.058-.588.059-3.164,0.115-3.516.176-3.633A7.783,7.783,0,0,1,94.945,49.4q1.991,1.055,3.4,1.758a17.556,17.556,0,0,0,3.164,1.289,26.865,26.865,0,0,0,3.164.82,25.855,25.855,0,0,0,2.812.469q1.289,0.118,3.75.117a19.3,19.3,0,0,0,2.93-.117,0.687,0.687,0,0,0,.586-0.469l0.117-.586c0-.077-0.117-0.117-0.351-0.117q-0.237,0-2.11-.352t-3.75-.82q-1.758-.467-3.4-1.055-1.407-.467-2.813-1.055-1.173-.585-5.039-3.164l-3.867-2.578,9.727-.117h9.726V41.2H102.914l-10.078-.117V39.789L92.719,38.5H87.68Z"/>
</svg>
