<svg xmlns="http://www.w3.org/2000/svg" width="1540" height="1450" viewBox="0 0 1540 1450">
  <defs>
    <style>
      .cls-1 {
        fill: #fff;
      }

      .cls-1, .cls-2, .cls-3 {
        fill-rule: evenodd;
      }

      .cls-2 {
        fill: #fefefe;
      }

      .cls-3 {
        fill: #fdfdfd;
      }
    </style>
  </defs>
  <path id="字体名称" class="cls-1" d="M377.234,127.562q14.649,29.3,19.532,49.8c0,1.953.64,2.289,1.953,0.977a30.217,30.217,0,0,0,2.929-3.906q5.861-9.751,5.86-11.719a233.839,233.839,0,0,0-28.32-37.11Zm-62.5,65.43q-20.508.984-21.484,1.953-1.968,1.97,14.648,9.766l5.86-.977q35.156-5.859,70.312-9.765a71.5,71.5,0,0,1-.976,26.367q-15.633,84-91.8,132.812l1.953,1.954q71.274-34.2,94.727-114.258a73.516,73.516,0,0,0,8.789,3.906c0.64,0,2.929-.32,6.836-0.977q23.438-4.875,33.2-5.859-8.79,61.524-27.344,87.891-9.774-3.891-25.391-15.625l-1.953.976q10.735,13.688,20.508,28.321,5.859,7.8,6.836,7.812Q425.07,336.531,446.57,241.82q0.962-3.891,9.766-10.742-4.9-8.789-11.719-12.695c-0.656,0-1.953,1.312-3.906,3.906q-3.914,5.859-6.836,7.813-35.156,6.843-44.922,6.836,1.946-6.822,5.859-18.555a2.827,2.827,0,0,0,.977-1.953,26.593,26.593,0,0,1,6.836-11.719q0-2.93-9.766-10.742,15.611-1.945,63.477-6.836,22.453-1.946,37.109-2.93c1.3,0,1.618-.32.977-0.976a91.952,91.952,0,0,0-13.672-10.743q-63.492,13.688-166.016,20.508h0Zm274.414-30.273-22.46,1.953a36.549,36.549,0,0,0,10.742,8.789c0.641,0,3.25-.32,7.812-0.977A495.006,495.006,0,0,1,637,165.648q2.929,4.9,3.906,20.508,1.946,23.438,0,129.883-11.718.984-40.039,2.93-0.984-71.274-.976-73.242,0-12.681,1.953-18.555a7.617,7.617,0,0,0,.976-2.93q-2.93-2.929-17.578-12.695l-1.953.976q6.821,11.72,6.836,31.25,1.946,52.736,1.953,76.172a416.769,416.769,0,0,1-44.922,2.93H543.25q1.946,2.929,13.672,10.742,81.046-11.718,188.476-16.6,0.962-2.931-15.625-11.719-9.772,4.9-78.125,9.765V240.844a513.473,513.473,0,0,1,64.454-9.766q0-2.929-12.7-10.742-11.718,5.859-51.758,11.719-0.984-17.578,0-41.016v-0.977q0.962-8.788,2.93-11.718a2.827,2.827,0,0,0,.977-1.953q-0.984-2.929-8.789-10.743,22.452-3.891,63.476-5.859c7.813-.641,11.383-0.977,10.742-0.977q0-2.93-12.7-10.742-19.546,5.861-119.141,14.649h0Zm197.266,83.008,2.93,1.953q11.718-9.752,45.9-48.828L834.266,310.18a49.618,49.618,0,0,1-4.883,20.508c-1.312,2.593-1.953,4.226-1.953,4.882q4.875,13.665,11.718,21.485,3.891,0.962,3.907-34.18V188.109q18.539-31.242,28.32-40.039a2.827,2.827,0,0,0,.977-1.953q0.96-1.946-10.743-20.508l-2.929.977q1.946,35.156-72.266,119.141h0ZM905.555,129.516q9.75,19.547,18.554,41.992c1.953,5.218,3.25,7.812,3.907,7.812q7.8-12.68,6.836-21.484-3.915-6.821-26.368-30.274Zm80.078,53.711h-0.977q-29.3,11.718-131.836,20.507,2.929,3.915,11.719,8.789c0,0.657,1.3.657,3.906,0a335.984,335.984,0,0,1,40.039-6.835q-1.968,82.031-61.523,144.531l1.953,2.929q41.977-30.281,64.453-103.515,4.875,2.929,8.789,2.929a15.832,15.832,0,0,0,3.906-.976,275.564,275.564,0,0,1,29.3-4.883q-10.757,77.157-25.39,90.82l-24.414-21.484-1.953,2.93q17.577,22.454,23.437,36.133c0.641,1.3,1.3,1.953,1.953,1.953q15.611,0,37.11-108.4,1.946-2.93,7.812-6.836-8.789-10.734-12.695-11.718l-0.977,1.953q-3.913,4.9-6.836,5.859a274.688,274.688,0,0,1-38.086,6.836,111.624,111.624,0,0,1,2.93-12.695q1.946-11.72,5.859-16.6l-6.836-10.742q43.946-6.821,76.172-10.742l6.835-.977q-3.912-4.875-14.647-9.765h0Zm145.507-57.618a167.45,167.45,0,0,1,17.58,36.133c0.64,2.609,1.3,3.906,1.95,3.906a60.643,60.643,0,0,0,7.81-20.507q-2.925-4.875-25.39-21.485Zm4.88,62.5q4.875,8.79,4.89,42.969-30.285,3.914-59.57,5.86l-9.77.976a42.356,42.356,0,0,0,11.72,9.766q9.75-1.945,45.9-6.836-36.15,54.7-87.89,90.82l2.93,2.93q47.835-26.367,96.68-91.8v72.265q0,14.649-4.89,21.485l-0.97.976q7.8,17.578,12.69,20.508,1.95,0,1.96-20.508V239.867q16.59,20.508,46.87,72.266l6.84,10.742q0,0.984,5.86,0,16.59-.962,38.08-1.953v-2.93q-28.335-5.859-41.01-16.6-25.41-27.329-48.83-63.477,34.17-3.891,58.59-4.883h4.88q-2.925-6.82-13.67-11.719h-1.95q-14.655,5.86-54.69,8.79,0-16.595,3.91-27.344v-2.93A67.979,67.979,0,0,0,1137,187.133Zm83.99-31.25-1.96,2.93c-1.95,3.265-3.26,4.883-3.9,4.883q-15.63,3.914-130.86,12.695l-0.98-19.531-3.9-.977q-0.99,35.157-12.7,45.9l-0.98.976q0,6.844,3.91,15.625,9.75,0,13.67-34.179,11.715-.962,42.97-3.907,73.245-5.859,88.87-6.835l-11.72,27.343,2.93,2.93q15.615-23.437,26.37-31.25c1.29-.641,1.95-1.3,1.95-1.953q-3.915-7.8-13.67-14.649h0Z"/>
  <path id="中文示例" class="cls-2" d="M302.109,694.641q0.386,1.959.782,5.859a16.925,16.925,0,0,1,.781,4.3q0.384,6.254,0,17.969,0.384,23.052-7.031,37.109a76.165,76.165,0,0,1-17.579,22.656,0.952,0.952,0,0,0,0,1.172,0.971,0.971,0,0,0,1.172,0q10.932-8.6,16.016-17.187,6.245-9.375,9.375-23.047l19.141-2.735a9.661,9.661,0,0,0-3.907-3.515h-0.39q-3.909,2.343-14.453,3.515a102.024,102.024,0,0,0,1.172-13.672q4.293-.777,16.406-3.124a6.094,6.094,0,0,0-3.516-3.126q-1.959,1.173-12.89,3.516l0.39-18.359,18.75-2.344q0.779,21.488.391,29.687,0.384,16.8.39,26.172,0,14.457-1.953,14.063-0.393,0-9.375-6.25L315,768.469q5.466,5.475,11.328,12.109l2.344,2.344q1.95-2.738,2.344-21.875-0.788-22.65-1.172-55.469a5.622,5.622,0,0,1,1.953-3.906,2.184,2.184,0,0,0,.781-1.172l-5.078-4.3-3.125,4.3q-3.13.787-16.8,2.344a64.168,64.168,0,0,0-4.3-8.594Zm-35.547,8.984q1.557,5.08,2.344,23.828,0.386,8.6.391,18.359v5.079q-1.172,4.3-1.172,3.125,2.729,5.859,4.3,6.64,0.778,0.395.39-5.468v-3.516q1.952-.384,5.86-1.172,4.293-.779,5.859-1.172a31.984,31.984,0,0,0,3.125,6.641q1.557,1.564,1.953-14.063,0-.384.391-13.672l0.391-13.281q0.384-5.072,2.343-6.25l0.391-.391a25.287,25.287,0,0,0-4.687-4.3c-0.263,0-.782.525-1.563,1.562a6.634,6.634,0,0,1-1.953,1.953q-0.788,0-13.672,2.344l-3.516-6.641a1.6,1.6,0,0,0-1.172.391h0Zm18.75,43.75a5.671,5.671,0,0,1-1.953-1.172l-1.171-.391q-1.961,1.566-9.376,2.735l-0.781-17.578,11.328-1.953a8.731,8.731,0,0,0-2.734-3.125q-1.566,1.172-8.594,2.343L271.25,713l15.625-3.125q0,30.469-1.563,37.5h0ZM381.8,695.031q1.95,7.032,1.953,19.141,0.384,26.175-3.516,38.672-4.3,16.8-20.312,29.3l1.172,1.171a89.744,89.744,0,0,0,16.015-15.234q5.466-8.2,8.2-22.656,5.861-1.172,26.954-3.906,0.384-.779-3.907-3.907a6.866,6.866,0,0,0-1.953.782,34.614,34.614,0,0,1-4.3,1.171q-5.475.788-13.671,1.954a16.36,16.36,0,0,1-2.735.39q0.384-2.728,1.563-15.625,19.921-3.514,23.437-3.906,1.172-.384-3.515-3.516a1.134,1.134,0,0,0-.782.391,107.648,107.648,0,0,1-10.937,2.734,18.424,18.424,0,0,0-3.516.391q-2.737.393-4.687,0.781l0.39-16.8,29.3-3.515q0.779,23.438.781,30.468,0,21.095.391,33.2-0.393,9.768-1.563,10.156-0.393.384-8.593-5.469c-1.306-.781-2.344-1.428-3.125-1.953l-1.172,1.172A115.713,115.713,0,0,1,415,781.75q2.729,3.121,3.125,3.125,3.122-1.566,3.516-16.016-0.395-48.047-.782-64.843,0-1.557,2.344-3.516a2.181,2.181,0,0,0,.781-1.172q-0.787-1.555-5.078-4.3c-0.262,0-.653.525-1.172,1.563q-1.565,2.737-2.343,3.125-4.687.787-28.516,3.515l-4.3-8.593Zm113.281-1.953a39.052,39.052,0,0,1,2.734,11.719q0.385,6.254.391,30.859L479.453,738q0-3.9-.391-9.375-0.393-5.072-.39-7.031a21.848,21.848,0,0,1,.781-6.641,1.132,1.132,0,0,0,.391-0.781q0-1.172-6.25-5.469l-1.172,1.172q3.121,4.3,3.516,24.609a7.49,7.49,0,0,1-2.344,5.469l-0.391.391a12.651,12.651,0,0,0,3.906,3.125l0.782-.391a11.551,11.551,0,0,1,3.125-1.953q5.859-1.171,17.187-2.344l-0.391,35.547q-5.081.779-21.874,2.344-0.787-12.5-.391-14.453a43.129,43.129,0,0,1,1.172-7.813l-6.641-5.078-0.781.781q3.121,4.688,2.734,24.61a10.991,10.991,0,0,1-2.343,3.906l-0.782.781q4.688,3.516,5.078,3.516l1.172-.781a7.571,7.571,0,0,1,2.735-1.953q20.7-2.737,44.921-4.688,2.728,7.416,3.516,7.422,2.344-1.172,3.906-27.344a6.832,6.832,0,0,1,1.172-2.734,10.952,10.952,0,0,0,.782-2.344q0-.384-6.25-6.25l-1.172.781q2.343,3.516,1.562,11.328,0.779,10.163-1.562,15.235l-23.047,2.344V738.391l18.75-1.953q2.728,5.473,3.125,5.468,1.95,0,4.3-24.218a12.98,12.98,0,0,1,1.171-5.079,4.048,4.048,0,0,0,.782-1.562q-0.788-1.557-6.25-5.859l-0.782.39q2.345,7.82-.781,27.344l-20.312,2.344q0.384-11.72.39-23.047a51.388,51.388,0,0,1,1.172-12.11,6.55,6.55,0,0,0,.391-1.562q0-.779-7.813-6.25Zm127.344,8.2q-13.284,3.132-48.828,5.078-0.395.788,5.468,3.907h1.172a150.3,150.3,0,0,1,18.75-2.735q0.385,6.254-1.953,21.094-3.13.787-32.031,2.734,0.384,1.566,5.859,3.907,2.345-1.557,25.391-3.516-3.13,16.8-11.719,26.953a74.255,74.255,0,0,1-26.172,19.531l0.782,1.563q14.447-5.082,26.953-17.969,8.2-8.98,13.672-28.516,10.931,19.144,20.7,36.719l3.906,7.031q4.688,0,17.187-.39l0.391-1.563q-13.284-1.172-18.359-9.375a274.011,274.011,0,0,1-21.485-34.375q5.073-.384,25.391-1.562,8.588-.779,10.547-0.781-1.172-2.728-5.078-4.688-3.909,1.566-14.063,2.734-2.343,0-11.718.782-4.3.393-6.25,0.39c0-.256.128-1.172,0.39-2.734q1.557-7.032,1.953-9.375a26.967,26.967,0,0,1,1.172-3.516,6.6,6.6,0,0,0,.391-1.562l-3.516-3.516q16.791-1.555,26.563-1.953,0.777,0-4.3-4.687a3.049,3.049,0,0,0-1.172.39h0Zm73.437-5.859q2.345,5.08,2.344,17.969v57.421l-19.922,1.954q-0.393-5.466-.781-14.454-0.787-12.1-.781-15.624-0.395-7.032.781-10.157,0.384-.779-7.031-4.687l-0.391.39q1.95,4.688,2.734,13.282a23.631,23.631,0,0,0,.391,3.125q2.344,22.265.781,27.343a7.724,7.724,0,0,1-1.953,2.735l-0.781.781a28.732,28.732,0,0,0,5.078,3.906q1.95-2.737,2.344-2.734,14.447-2.344,42.578-5.078a38.7,38.7,0,0,1,1.953,5.468,6.617,6.617,0,0,1,.391,1.563c0.256,0.519.519,0.647,0.781,0.391q3.516-2.737,6.25-39.454a19.416,19.416,0,0,1,2.344-7.812,6.582,6.582,0,0,0,.39-1.562l-1.562-1.563q-2.738-2.344-4.688-4.3l-0.781.391a59.416,59.416,0,0,1,.391,11.328q-1.566,25-3.516,32.422-14.85,1.171-21.094,1.953,0.385-57.422.391-58.984,0.384-5.861,1.953-8.594a6.606,6.606,0,0,0,.391-1.563q0-.384-4.688-3.906c-1.562-1.038-2.868-1.953-3.906-2.734Zm162.891-1.953q1.557,5.475-1.953,15.625L835.7,711.047q-0.787-7.416.391-10.156a1.133,1.133,0,0,0,.39-0.782q0-.777-6.25-4.3l-0.39.782q2.343,3.516,2.734,14.453-16.406,1.959-23.828,1.562,0,1.173,3.516,3.907a6.364,6.364,0,0,0,1.562-.391q7.032-.779,18.75-1.953,0.384,4.688-.781,6.64a0.347,0.347,0,0,0-.391.391,18.291,18.291,0,0,0,3.906,4.688q1.173,1.172.391-11.719,1.95-.779,20.7-1.953-2.343,7.818-3.515,11.719l1.562,0.39,5.078-12.5q17.579-1.555,24.219-1.953,1.171-.779-4.3-3.906h-0.781q-5.859,1.959-18.36,2.734,1.952-6.243,4.3-8.984a3.043,3.043,0,0,0,.391-1.172q0-.779-5.469-5.859Zm-14.844,22.656h-0.39a0.346,0.346,0,0,0-.391.391q0,7.03-17.578,24.218-12.507,12.507-24.609,19.141l0.781,1.172q9.759-4.295,26.953-19.141,0.384,6.254.39,7.813V767.3q-3.514,17.963,23.438,15.625,19.921-.787,24.219-1.953l-0.391-1.563a91.509,91.509,0,0,1-4.3-17.187h-1.172v2.734q0.779,11.334-.39,12.5-3.909,1.557-21.094,1.953-19.921,2.345-17.187-13.281V748.547q17.184-1.557,21.874-1.953-3.13,14.063-5.468,16.8l-6.25-3.907a20.564,20.564,0,0,0-2.735-1.953l-0.781,1.172q1.557,1.566,4.688,5.078,5.465,6.254,5.859,6.25,3.121-1.171,8.594-23.047c0-.256.519-0.781,1.562-1.562l1.172-.781q-0.787-1.557-5.078-4.3c-1.563,2.087-2.478,3.125-2.734,3.125q-4.3,1.171-20.7,2.343l-2.735-4.687q12.5-12.891,14.453-15.625,11.325,9.768,25,23.438,3.516,3.909,3.906,3.906,3.9-.386,16.8-1.953l-0.39-1.172q-1.959-.386-5.078-0.781-6.648-.779-10.157-2.735-7.03-3.516-27.734-22.656a1.126,1.126,0,0,0,.781-0.391,0.346,0.346,0,0,0,.391-0.39q0-1.557-3.516-6.641h0Zm113.282-3.516-23.829,1.563q-0.393-9.375.782-12.5v-0.391q0-.384-6.25-4.687l-0.782.781q2.728,5.475,3.125,17.187l-28.125,1.563q0,1.566,3.907,3.906a6.345,6.345,0,0,0,1.562-.39,180.96,180.96,0,0,1,22.656-2.344q0,4.688-1.172,6.25a0.346,0.346,0,0,0-.39.391,21.507,21.507,0,0,0,4.687,6.25q0.779-.385.391-12.891,5.859-.384,22.266-1.953-1.173,3.516-3.125,8.2l1.171,0.781,4.688-8.984q21.871-1.95,29.3-1.953,1.95-.779-6.641-4.688h-0.39q-4.3,2.344-21.094,3.516,1.555-5.073,2.734-8.2a6.792,6.792,0,0,1,1.953-3.516,2.185,2.185,0,0,0,.782-1.172q0-.779-5.469-6.25l-0.781.391q1.95,6.252-1.953,19.14h0Zm-8.594,11.329a57.153,57.153,0,0,1,5.468,9.765c0.782,1.825,1.429,3.388,1.954,4.688q3.515-5.073,2.734-6.25-1.171-1.95-6.25-6.25a37.184,37.184,0,0,1-3.125-2.735Zm-36.719,3.515a46.893,46.893,0,0,1,10.547,10.938c0.781,1.306,1.3,1.953,1.562,1.953a9.547,9.547,0,0,0,.391-7.032q-2.344-1.556-12.109-6.64Zm67.187,9.375q-10.161,3.516-54.3,4.688,0,1.172,4.3,3.515a6.339,6.339,0,0,0,1.563-.39,51.106,51.106,0,0,1,9.766-.782q0,19.538-.782,29.3a8.293,8.293,0,0,1-2.343,3.516,2.277,2.277,0,0,0-1.172,1.172,20.545,20.545,0,0,0,5.078,3.125c0.256,0,.781-0.525,1.562-1.563,0.782-1.306,1.429-1.953,1.954-1.953q3.514-.393,2.343,0,28.125-2.343,34.766-2.344,0.779-.788-5.859-4.3h-0.391q-5.475,2.737-32.422,3.516l0.781-30.859q17.186-1.172,36.719-2.344c2.863-.256,4.687-0.391,5.469-0.391q-0.788-1.556-5.86-4.3a3.055,3.055,0,0,0-1.172.39h0Zm-74.218,5.86a68.218,68.218,0,0,1,12.5,11.718,3.655,3.655,0,0,0,1.562,1.172,12.026,12.026,0,0,0,0-7.422q-3.516-1.95-13.672-6.64Zm22.265,10.937Q915.775,773.941,915,773.938q0,0.384-9.766-8.2l-0.781.782a122.793,122.793,0,0,1,9.375,13.281q1.557,2.343,1.953,2.344l2.735-5.469q8.587-18.75,14.843-30.078l-1.562-.782q-1.172,2.345-4.688,7.813h0Zm137.5-50.781h-0.39q-9.765,3.13-44.92,4.3c0.25,1.043,1.69,2.343,4.29,3.906h0.79q12.495-1.557,46.09-3.516,0-1.555-5.86-4.687h0Zm15.23,22.656h-0.78q-13.68,5.08-77.34,7.812,0.39,1.566,4.69,4.3a11.7,11.7,0,0,0,1.95-.39q10.545-1.557,32.42-3.125a33.69,33.69,0,0,1-3.12,8.2,256.153,256.153,0,0,1-16.02,24.219,17.9,17.9,0,0,1-6.64,3.906c-0.78.262-1.17,0.525-1.17,0.781a18.512,18.512,0,0,0,3.9,4.688,3.156,3.156,0,0,0,1.18-.391q10.545-3.516,46.09-8.594a46.323,46.323,0,0,1,2.34,4.3q3.525,5.859,3.91,5.859,3.12-7.414,1.56-11.328a246.624,246.624,0,0,0-19.92-16.015l-1.17.781a71.585,71.585,0,0,1,11.72,14.453q-23.445,2.738-39.06,4.3,8.97-12.891,14.84-22.266a19.167,19.167,0,0,0,1.95-2.734,16.76,16.76,0,0,1,4.3-4.3l0.78-.781a21.088,21.088,0,0,0-2.34-5.469l42.57-2.734q0.78-1.172-6.64-5.469h0Zm64.46-33.2q1.545,3.13-2.35,14.453a111.748,111.748,0,0,1-12.5,25l1.17,0.781q3.915-4.687,11.33-17.187a6.655,6.655,0,0,1,1.96.39l0.78,0.391q8.58-1.557,30.86-4.687c4.16-.519,6.38-0.782,6.64-0.782,0-1.037-1.57-2.344-4.69-3.906a1.138,1.138,0,0,0-.78.391q-6.255,2.738-33.6,5.859,1.185-2.728,3.91-8.594a11.856,11.856,0,0,1,2.74-3.906,2.235,2.235,0,0,0,.78-1.172q0.375,0.395-5.47-7.422Zm-31.64,10.937a87.389,87.389,0,0,1,10.15,12.11c0.78,1.043,1.3,1.562,1.57,1.562a15.1,15.1,0,0,0,1.56-7.422q-1.965-1.95-12.5-7.422Zm58.98,16.8-0.78.781a18.153,18.153,0,0,1-2.74,2.344q-7.815,1.173-23.82,3.125c-0.78-1.562-1.7-3.381-2.74-5.469h-0.78q0,2.345-.39,7.032v3.515q-1.17,8.6-1.95,14.453l-15.63,1.172q2.73-10.931,5.08-21.875h-1.95q-9.375,35.55-12.89,44.922a17.05,17.05,0,0,1-3.52-1.953c-1.82-1.037-3.26-1.819-4.3-2.344l-0.39,1.172a55.852,55.852,0,0,1,7.82,8.985q1.95,2.343,2.34,2.343,1.56-2.343,7.81-30.859a1.138,1.138,0,0,1,.78.391,15.084,15.084,0,0,0,3.91,2.734,100.324,100.324,0,0,1,10.55-1.953v0.781q-1.965,13.284-2.74,14.844-0.39,1.171-2.73,2.344a20.985,20.985,0,0,0,4.3,3.906l1.17-.781a7.953,7.953,0,0,1,2.34-1.563q1.56-.384,17.97-1.953c3.91-.256,6.25-0.391,7.03-0.391q-1.965,11.72-3.91,12.5a56.915,56.915,0,0,1-9.76-5.468l-0.78,1.172a103.4,103.4,0,0,1,8.98,9.374c1.3,1.563,2.08,2.344,2.35,2.344q4.29-3.909,6.64-19.922c1.03,0,3.38-.128,7.03-0.39a49.127,49.127,0,0,0,7.81-.782q-0.39-1.172-4.69-4.3a1.279,1.279,0,0,0-1.56.39q-3.135.788-8.2,1.563a153.457,153.457,0,0,0,1.95-17.578q8.985-.779,16.8-1.563c0.52-.781-1.05-2.081-4.69-3.906a1.121,1.121,0,0,0-.78.39q-3.135,1.566-10.94,2.344,0.39-3.9,1.56-14.453a5.594,5.594,0,0,1,1.57-1.953l1.17-1.562a11.408,11.408,0,0,0-4.3-3.907h0Zm-67.58,6.25a80.32,80.32,0,0,1,10.16,10.547c1.3,1.306,2.08,1.953,2.34,1.953a13.3,13.3,0,0,0,0-7.812q-2.34-2.345-12.11-5.86Zm64.06,16.016q-4.29.787-23.43,2.734c1.04,0,0,.135-3.13.391q1.56-13.275,2.35-16.406l25-2.344q-0.795,13.284-.79,15.625h0Zm-17.57-10.938a34.351,34.351,0,0,1,4.29,8.2l0.78,1.172a8.4,8.4,0,0,0,2.35-5.468,20.969,20.969,0,0,0-7.03-4.688ZM1165.78,763q-7.035.393-26.95,1.953l2.34-16.8q19.53-2.728,26.56-2.734-1.17,12.112-1.95,17.578h0Zm-16.01-12.891a55.651,55.651,0,0,1,3.51,8.2q1.17,2.737,1.56,2.735c1.57-2.6,2.21-4.425,1.96-5.469q-1.17-2.728-6.64-6.25Zm66.4-55.078a69.678,69.678,0,0,1,8.6,12.891q1.17,2.343,1.56,2.344,2.73-3.516,1.95-7.032-2.34-2.343-10.94-8.984Zm55.47,4.3a6.293,6.293,0,0,1-1.95,2.344q-18.75,2.343-34.77,3.125a16.912,16.912,0,0,0,3.91,3.515h0.78q8.985-1.556,32.03-3.906,0.78,23.438.78,30.469v29.687q0,9.769-1.17,9.766-3.135-1.555-11.33-9.375l-1.17.781q6.645,7.425,12.5,15.235c1.04,1.819,1.69,2.734,1.95,2.734q2.73-1.171,2.74-16.015,0-33.591-.39-61.329c-0.27-.781.39-1.818,1.95-3.125a2.167,2.167,0,0,0,.78-1.172,17.671,17.671,0,0,0-5.08-4.3c-0.26,0-.78.525-1.56,1.562h0Zm-60.16,7.813q2.355,6.252,2.35,16.8,0.375,39.065.39,40.234,0,6.646-1.95,9.766a2.817,2.817,0,0,0-.39,1.171,28.28,28.28,0,0,0,4.29,7.813q1.17-.395,1.56-6.641-0.39-32.812-.78-50.781,0-7.809,1.96-11.328l0.39-.781q0-.779-6.64-7.032Zm42.97,12.89c-1.04,1.563-1.95,2.478-2.73,2.735q-3.135.788-18.36,2.734l-3.13-6.641-1.17.391q2.73,10.546,2.35,28.906v2.735a9.672,9.672,0,0,1-1.18,5.078l-0.39.39a15.48,15.48,0,0,0,4.3,6.641q1.17-.384.78-7.422,12.9-1.555,24.61-2.734,0.39-.779-3.51-3.125,0.375-10.154,1.56-21.485a11.891,11.891,0,0,1,1.95-4.687l0.39-.781q-0.78-1.557-4.3-3.907a2.3,2.3,0,0,0-1.17,1.172h0Zm-1.95,30.078a173.151,173.151,0,0,1-17.58,2.344l-0.39-11.328a158.106,158.106,0,0,0,16.02-1.953q-0.4-1.557-4.3-3.516a1.142,1.142,0,0,0-.78.391,43.416,43.416,0,0,1-10.94,2.344l-0.39-10.157,19.92-2.734ZM281.016,869.641A78.9,78.9,0,0,1,283.359,888l-0.39,24.609q-16.407,1.566-25.781,2.344a10,10,0,0,0,4.3,3.516,6.309,6.309,0,0,0,1.563-.391q7.416-1.171,19.922-2.734l-0.391,34.375a8.347,8.347,0,0,1-3.125,5.078l-0.391.391a17.231,17.231,0,0,0,5.86,2.734l0.781-.781q5.072-6.648,18.75-18.36l-0.781-1.172L286.094,950.5l0.39-35.547,5.86-.781q8.2,9.768,21.094,27.344,8.2,10.547,8.593,10.546,4.688-.786,18.36-1.953L340,948.547q-12.505,0-20.312-7.422a283.383,283.383,0,0,1-24.219-27.344q30.075-3.9,41.015-3.906,0.779-1.171-5.859-4.687-5.859,2.736-44.141,6.64l0.391-4.3q10.154-6.637,27.344-22.656a25.712,25.712,0,0,1,3.906-3.125l1.172-.781q0-.779-3.906-7.422l-0.391.391a0.346,0.346,0,0,0-.391.39q-1.171,5.082-8.2,12.5A136.587,136.587,0,0,1,286.484,904.8V890.344q0.386-8.982,1.954-13.282a3.046,3.046,0,0,0,.39-1.171q0-.385-7.031-6.641Zm92.578,2.343a115.9,115.9,0,0,1,1.172,12.11l0.39,16.015a101.651,101.651,0,0,1-4.687,33.2q-3.909,11.72-14.063,23.829l1.172,0.781q2.729-1.959,7.422-8.2a63.545,63.545,0,0,0,9.766-19.141q3.514-11.325,3.906-28.125l0.39-19.141q5.861-1.172,33.985-3.515a42.473,42.473,0,0,1,4.687-.391l-0.39,23.047q0.384,28.52,8.984,40.625,8.2,9.759,17.578,13.281,0.386,0,0-3.125a135.19,135.19,0,0,1-2.344-20.7h-1.171q-0.788,13.678-2.344,15.625-8.991-5.466-14.063-17.187-2.738-10.547-3.125-28.125,0.386-15.62.782-21.094a8.186,8.186,0,0,1,2.343-3.516,3.655,3.655,0,0,0,1.172-1.562q-4.687-5.072-5.468-5.078l-0.782,1.172q-1.565,3.13-2.734,3.515a32.99,32.99,0,0,0-4.3.391q-17.193,1.959-32.813,3.125l-4.3-8.594Zm31.25,15.235q0.384,8.2-5.86,22.265l-13.281-16.8-1.562.39A219.052,219.052,0,0,1,397.422,913a103.525,103.525,0,0,1-21.094,29.688l1.172,1.171q12.5-10.547,21.875-27.734a160.222,160.222,0,0,1,10.156,19.922L410.312,938q2.728-5.859,1.954-10.156-3.132-3.9-10.938-14.844,1.172-2.343,2.734-5.859a46.855,46.855,0,0,0,3.126-7.422,7.168,7.168,0,0,1,2.734-4.3l0.39-.391q0-1.171-3.906-7.812h-1.562ZM485.7,888q0.384,21.093-3.515,33.594-2.737,10.162-7.813,16.406a66.8,66.8,0,0,1-16.016,17.188l1.172,1.171a65.214,65.214,0,0,0,23.828-27.734q5.073-12.5,7.032-44.141,13.668-1.95,15.234-1.953c1.819-.256,2.863-0.256,3.125,0q-1.566,41.016-1.562,50.781-0.394,18.366,9.374,18.75,5.466,0.385,14.454.391,8.2-.393,9.375-1.172,0.777-.393-0.391-3.515a106.716,106.716,0,0,1-3.906-24.219h-0.782l-0.781,17.187q2.729,8.991-11.719,7.813-13.677,1.95-11.718-15.235,0.384-33.59,2.344-49.609a7.828,7.828,0,0,1,2.343-4.3l0.391-.39a30.269,30.269,0,0,0-5.078-4.688q-0.394,0-1.953,2.344a16.6,16.6,0,0,1-1.563,2.344q-3.909.393-17.578,2.343l-4.688-9.375-1.171.391A84.011,84.011,0,0,1,485.7,888h0Zm148.438-11.719H633.75q-9.768,3.516-33.984,5.078-8.2.788-19.922,1.953-11.72.788-15.625,1.172Q568.512,888,568.906,888a47.73,47.73,0,0,0,5.078-.781q13.275-1.95,21.485-2.344-0.788,20.316-11.328,44.141-8.991,17.971-23.438,28.515l1.172,1.172q24.216-15.618,33.2-50a4.237,4.237,0,0,0,1.172.781,9.379,9.379,0,0,0,3.125,1.172,11.667,11.667,0,0,0,1.953-.39q7.416-1.557,16.406-2.735-5.859,30.47-12.109,37.891-1.171,0-10.937-8.2l-0.782.781q4.295,5.475,8.985,12.5,2.343,3.516,2.734,3.516,8.588-9.76,16.016-44.922c0-.519.647-1.428,1.953-2.735a3.664,3.664,0,0,0,1.172-1.562,25.264,25.264,0,0,0-4.688-4.3,2.285,2.285,0,0,0-1.172,1.172c-0.781,1.562-1.562,2.478-2.344,2.734q-5.081,1.566-21.093,3.125c0.256-1.037.781-2.99,1.562-5.859q1.557-5.466,2.344-8.2a8.757,8.757,0,0,1,1.563-3.125,4.152,4.152,0,0,1,.781-1.563l-3.125-4.3q25.387-2.343,39.062-3.515h2.735q0-1.172-6.25-4.688h0Zm87.5-2.343a8.936,8.936,0,0,1-2.344,2.734q-18.366,2.737-39.453,3.906l-3.906-6.64-0.782.39q1.95,10.162,2.344,33.2a36.174,36.174,0,0,1-.781,7.813,1.126,1.126,0,0,0-.391.781,25.426,25.426,0,0,0,4.3,7.031q0.779,0,.391-6.64,9.759-1.173,17.187-1.563l-0.391,14.453q-17.193,1.566-24.609,1.953,1.172,1.961,5.078,3.516a6.32,6.32,0,0,0,1.563-.391,164.182,164.182,0,0,1,17.968-1.953v16.016q-21.093,1.95-37.89,1.953,1.171,1.95,5.859,4.3h0.781q8.2-2.344,35.157-3.516,16.012-1.171,38.672-1.953-0.394-1.555-6.641-4.687h-0.781q-8.991,2.343-31.641,3.515V932.141q17.184-1.557,26.172-2.344-0.787-1.95-5.078-3.906l-0.781.39q-7.032,1.959-20.313,2.735V914.562q15.234-1.172,23.828-1.953,1.173-.384-3.906-3.515,0.384-2.729,1.172-10.547,0.779-10.932,1.562-16.016a11.428,11.428,0,0,1,2.735-3.515,5.575,5.575,0,0,0,1.562-1.954q-5.08-4.686-5.469-4.687c-0.262,0-.653.525-1.171,1.563h0Zm-3.516,35.546q-4.3.788-16.8,2.344V897.375q4.295-.779,14.453-1.953-0.393-1.95-3.515-3.125l-0.782.391a100.3,100.3,0,0,1-10.156,1.953V881.359l19.141-1.562q-1.566,19.921-2.344,29.687h0ZM698.2,895.031q-4.3.788-13.281,1.563h-0.781a8.422,8.422,0,0,0,3.515,3.125,12.285,12.285,0,0,0,3.516-.781q3.9-.779,6.64-1.172l0.391,14.062q-5.859.787-17.187,1.563L679.844,883.7l17.968-1.953Zm150.781-26.953-1.172.391q1.173,5.475-.39,14.062-6.254,26.57-15.234,40.625l1.171,1.172a133.79,133.79,0,0,0,12.11-22.266q10.154-1.95,26.172-4.3L865,910.656l1.172,0.782q8.588-12.1,13.672-15.235l0.39-.391a34.458,34.458,0,0,0-5.468-5.078l-1.172,1.172a9.171,9.171,0,0,1-1.563,2.344,3.043,3.043,0,0,0-1.172.391q-12.89,2.343-24.218,3.906,3.9-11.719,5.078-16.016,1.171-3.9,3.125-5.469a1.129,1.129,0,0,0,.39-0.781q0.385-.779-6.25-8.2h0Zm-39.453,42.578q0.386,7.82-1.172,10.547l-0.39.781q3.121,7.425,4.687,7.813,0.386,0.393.391-8.594l17.187-2.734q0.779-.779-1.562-2.344c-1.044-.519-1.563-0.909-1.563-1.172l2.344-18.359a4.937,4.937,0,0,1,2.344-2.344l0.781-.781a47.688,47.688,0,0,0-5.078-4.3c-0.262,0-.781.653-1.562,1.953a17.8,17.8,0,0,0-1.172,1.953l-12.891,1.953-3.516-7.422h-1.171q1.95,8.2,2.343,23.047h0ZM825.938,896.2l-2.344,19.531-10.938,2.344-0.39-19.922Zm25.39,8.594a84.486,84.486,0,0,1-2.344,16.8q-6.252,24.225-32.031,37.89l0.781,1.172q27.732-11.718,35.157-39.844,14.063,33.986,14.843,34.766,2.728,0,17.969-.39v-1.172q-8.6-1.173-13.281-4.688-9.375-8.98-17.969-32.031,0.384-3.9,1.953-5.469a1.128,1.128,0,0,0,.391-0.781q0-1.172-4.688-6.641Zm87.5-37.891a70.622,70.622,0,0,1,7.813,10.156l1.953,2.344q1.95-2.343,2.344-7.031a80.275,80.275,0,0,0-11.719-6.25Zm-24.609,58.2q-3.132,16.8-14.453,32.813l1.562,0.781q17.579-18.355,19.141-56.641a20.36,20.36,0,0,1,1.953,1.172,3.956,3.956,0,0,0,1.562.782,19.414,19.414,0,0,0,2.344-.391,87.885,87.885,0,0,1,9.375-1.563q0.779,7.425-.781,10.157v0.39a24.105,24.105,0,0,0,4.3,5.079q0.779,0,.39-3.516,2.728-.384,11.329-1.172,10.152-.779,10.546-1.172,0.385-1.171-3.125-3.516l1.172-8.984q3.516-.384,9.766-1.172,9.375-.779,10.156-1.172,0-1.172-4.687-3.906a12.035,12.035,0,0,0-1.954.391,76.268,76.268,0,0,1-12.89,2.343,21.164,21.164,0,0,1,1.562-7.421,0.347,0.347,0,0,0,.391-0.391q0-1.171-3.906-3.906,7.416-.779,16.406-1.563c2.6-.256,4.034-0.39,4.3-0.39q-0.787-2.728-5.078-4.688H973.2q-8.2,3.516-51.562,7.422-2.737-6.245-4.3-8.984h-1.172q1.555,32.427-1.953,49.218h0Zm41.406-28.515q-3.13.393-8.594,0.781a54.814,54.814,0,0,1-7.812.781q-0.395-5.466.781-7.422l0.391-.39c0-.257-0.782-1.172-2.344-2.735-0.781-.781-1.306-1.3-1.563-1.562q8.587-.779,19.141-1.953a49.937,49.937,0,0,1,0,12.5h0Zm-20.7-7.422a18.822,18.822,0,0,1,.781,5.859v3.516q-2.343.393-8.594,1.562-4.3.394-6.25,0.782l0.391-12.5q6.245-.779,12.891-1.563a11.556,11.556,0,0,0,.781,2.344h0Zm20.312,16.406q-0.393,3.132-.39,3.516-5.475.787-15.235,1.953v-9.375q9.76-1.172,16.016-1.953c0,0.781-.134,2.734-0.391,5.859h0Zm5.86,10.547-0.782.781a8.187,8.187,0,0,1-3.515,2.344q-12.507,1.959-25,3.125l-3.125.391q0,1.172,4.3,3.906h0.39a234.727,234.727,0,0,1,23.829-4.3q-1.961,5.475-10.157,14.844a42.382,42.382,0,0,1-8.593-7.813,2.226,2.226,0,0,0-1.172-.781,6.543,6.543,0,0,0-1.563.391c-2.087.525-3.125,0.915-3.125,1.172q-0.393.393,1.953,1.953a84.821,84.821,0,0,1,10.157,7.421q-12.891,12.112-32.813,20.313l0.391,0.781q21.872-6.646,35.546-18.75,18.357,15.62,19.922,16.016,2.728,0.384,19.532-2.344v-1.562q-13.678-.788-18.75-2.735a83.859,83.859,0,0,1-18.75-11.719,88.98,88.98,0,0,0,12.109-16.015,4.452,4.452,0,0,1,2.344-1.563c1.037-.518,1.562-0.909,1.562-1.172a10.19,10.19,0,0,0-4.687-4.687h0Zm79.686-34.766a10.935,10.935,0,0,0-2.34.391q-17.58,1.959-25.78,2.344a36.644,36.644,0,0,0,4.68,3.906,23.2,23.2,0,0,0,3.52-.391,185.458,185.458,0,0,1,19.92-2.734,28.115,28.115,0,0,1,.78,7.422v17.578q-10.155,1.171-22.65,2.344c-2.61.262-4.17,0.39-4.69,0.39a16.251,16.251,0,0,0,5.47,3.907,184.648,184.648,0,0,1,21.87-3.125V946.2q-24.6,2.344-37.11,2.344a17.825,17.825,0,0,0,5.08,4.3q17.97-2.738,54.69-5.078,12.1-.779,19.92-1.172c-0.52-1.038-2.61-2.735-6.25-5.078q-5.085,2.738-32.42,4.3V913q18.75-3.121,26.56-3.125-0.39-1.95-5.86-4.3-4.305,1.566-20.31,3.906a82.133,82.133,0,0,1,0-11.328v-3.125a9.744,9.744,0,0,1,1.17-4.3,6.38,6.38,0,0,0,.39-1.562q0-.384-4.3-4.688l32.04-3.515q-3.135-3.516-5.86-4.3-7.035,2.343-28.52,4.687h0Zm13.28,37.11a92.445,92.445,0,0,1,13.28,14.843c1.04,1.563,1.69,2.344,1.96,2.344,1.03-1.562,1.56-4.162,1.56-7.812q0.39-.779-16.41-10.547Zm65.63-47.266a80.049,80.049,0,0,1,7.42,13.672q0.78,2.738,1.56,2.734,1.56-1.172,2.35-7.812,0-1.172-10.16-9.766Zm51.17,7.031a5.777,5.777,0,0,0-1.17,1.563q-21.105,2.343-31.25,2.734h-1.56q-0.8.395,2.34,2.344a8.288,8.288,0,0,0,1.95,1.563l2.35-.391q10.545-1.557,28.12-3.125v16.016q-0.39,14.456,0,23.828,0,17.193-.39,20.312-0.39,5.082-1.56,5.078t-10.94-7.422l-1.17,1.172q7.035,7.032,12.5,13.672,2.34,2.344,2.73,2.344,2.355,0,2.35-16.406-0.4-54.291.39-57.813a11.251,11.251,0,0,1,1.95-3.125l0.78-1.172a23.829,23.829,0,0,0-5.08-3.515q-0.39-.385-2.34,2.343h0Zm-57.03,4.3q1.56,4.3,1.95,13.281v23.829q-0.39,27.346-3.12,30.468V950.5a33.586,33.586,0,0,0,4.29,7.031q1.95-1.564,1.96-42.187,0-21.479,2.34-26.172v-0.781q0-.779-6.25-6.641Zm133.98,12.5q-16.8,1.959-32.03,2.735a18.3,18.3,0,0,0,4.69,3.906h0.78q7.035-1.557,19.14-3.125-1.17,14.455-2.34,17.969-21.1,1.959-34.38,2.734,0,0.393,4.69,3.516,10.545-1.557,22.66-2.735,3.9-.384,6.25-0.781-7.035,22.659-32.04,39.453l0.79,1.563q26.94-14.85,35.15-41.016h1.17q9.375,15.234,17.97,29.688c2.6,4.425,4.04,6.64,4.3,6.64l18.75-1.562q0-1.173-.39-1.172-11.34-1.566-16.8-5.469a244.324,244.324,0,0,1-21.48-28.516,54.207,54.207,0,0,0,7.42-.781q20.7-1.555,27.73-1.953a21.833,21.833,0,0,0-4.68-4.3h-0.78q-7.83,2.344-32.82,4.3,1.56-5.072,2.74-17.969,8.97-1.171,28.9-2.734-0.78-1.95-5.47-4.3h-0.39q-5.475,2.344-17.18,3.516,7.8-15.62,12.11-18.75a2.238,2.238,0,0,0,.78-1.172q-0.4-1.95-4.69-8.2h-1.17q-0.8,9.768-9.38,28.515h0ZM1224.77,871.2a162.053,162.053,0,0,1,8.98,17.578q1.17,2.738,1.56,2.735,3.12-5.073,2.35-8.594-4.7-5.466-11.72-12.5c-0.53-.256-0.92,0-1.17.781h0Z"/>
  <path id="大写字母" class="cls-3" d="M239,494.828l8.438,30.094H230.844Zm17.438,50.625L241.25,491.734h-4.219l-14.906,53.719h3.094l5.062-17.437h18l5.063,17.437h3.094Zm38.981-14.625q-0.283,11.537-12.094,11.813H272.356V518.734h8.719q13.777,0.567,14.344,12.094h0Zm-2.532-26.156q0,10.968-12.656,10.969h-7.875V494.547h10.406q10.125,0,10.125,10.125h0Zm5.625,26.156q0-10.968-10.968-13.5,8.714-3.091,8.437-12.656-0.284-12.657-12.656-12.938H269.544v53.719h14.625q14.059-.284,14.343-14.625h0ZM327.088,543.2q-12.38-1.687-12.938-24.187,0.561-23.9,13.219-25.313,8.438-.276,10.687,12.656l2.813-1.125q-2.816-14.62-13.5-14.343-15.755,1.126-16.313,28.406,0.561,26.156,16.032,27,12.088,0.276,14.625-17.156L338.9,528.3q-1.687,15.188-11.812,14.906h0Zm54.731-24.469q0,23.908-16.031,23.907h-7.313V494.547h7.313q16.031,0,16.031,24.187h0Zm2.812-.281q0-26.716-18.281-26.719H355.663v53.719H366.35q18.279-.284,18.281-27h0Zm19.575,0.563h22.5v-3.094h-22.5V494.547h24.188v-2.813h-27v53.719h27.562v-2.812h-24.75V519.016Zm67.95-27.282H444.875v53.719h2.813V518.734h21.093v-2.812H447.688V494.547h24.468v-2.813Zm28.857,29.25h12.375v15.469q-3.1,6.75-11.813,6.75-13.5-.843-13.781-24.469,0.559-23.9,13.5-25.031,9.281-.559,11.531,12.656l3.094-1.125q-3.1-14.62-14.344-14.343-16.314.843-16.875,28.125,0.277,26.723,16.875,27.281,9.842,0,14.625-9.281V518.172H501.013v2.812Zm55.856-5.062H533.244V491.734h-2.813v53.719h2.813V518.734h23.625v26.719h2.812V491.734h-2.812v24.188Zm29.981-24.188h-2.812v53.719h2.812V491.734Zm46.012,0v37.407q0,14.067-11.25,14.343-7.876.561-10.406-12.656l-2.812.844q1.963,15.188,13.5,14.625,14.06,0,14.062-17.438V491.734h-3.094Zm30.263,23.344,16.031,30.375h3.094l-16.875-32.625,15.187-21.094h-3.656l-23.062,31.5v-31.5H650.75v53.719h3.094V528.016Zm35.325,27.563V491.734h-3.094v53.719h27.282v-2.812H698.45Zm71.888-50.907h-5.344l-12.375,47.532-12.375-47.532h-5.063v53.719h2.813V494.547l13.219,50.906h2.531l13.5-50.906v50.906h3.094V491.734Zm41.231,0v50.625l-22.782-50.625h-4.5v53.719H787.1V494.547l22.781,50.906h4.5V491.734h-2.812Zm44.043,27.282q-0.282,23.909-12.093,24.468-12.1-1.121-12.375-24.468,0.276-24.745,12.375-25.313,11.813,0.845,12.093,25.313h0Zm3.094,0q-0.567-27-15.187-28.125-15.187.843-15.469,28.406,0.278,26.156,15.469,27,14.9-.567,15.187-27.281h0Zm39.263-12.375q0,13.223-12.938,13.218h-9.562V494.547h9.562q12.657,0.283,12.938,12.094h0Zm3.093,0q-0.282-14.621-16.593-14.907H872.656v53.719h2.813V522.672h9.281q16.032-.278,16.312-16.031h0Zm15.357,12.093q0.56-23.625,12.937-25.031,12.374,1.128,12.656,25.031,0,23.908-12.656,23.907-12.1-1.12-12.937-23.907h0Zm28.687,0q-0.284-27-15.75-27.843-15.471.843-15.75,28.125,0.278,25.6,15.75,26.437h1.688l12.093,13.781,3.375-.843-12.093-13.219q10.968-4.5,10.687-26.438h0Zm29.138-24.187q11.245,0.283,11.531,10.969-0.283,11.535-10.969,12.093H962.15V494.547h12.094Zm1.687,25.875q12.373-1.687,12.656-14.625-0.284-13.5-14.625-14.063H959.337v53.719h2.813V520.422h10.125L986.9,545.453h3.656Zm39.539-29.813q-13.215.567-14.06,13.219-0.84,10.692,14.06,14.906,14.07,3.942,13.5,12.657-0.555,11.252-12.93,11.812-10.125.567-13.22-13.781l-2.81.844q3.09,16.6,16.03,15.75,15.465-.283,15.75-14.344,1.11-11.246-16.03-16.031-12.1-3.375-11.54-11.813,0.855-10.125,11.25-10.687,9.855-.561,12.66,11.812l2.81-1.125q-3.375-13.5-15.47-13.219h0Zm27.74,1.125v2.813h15.46v50.906h3.1V494.547h15.47v-2.813h-34.03Zm61.76,51.75q-12.66,0-12.66-17.156V491.734h-2.81v33.188q-0.57,22.221,15.19,21.375,15.75,0.276,15.47-21.656V491.734h-2.82v34.032q0,17.718-12.37,17.718h0Zm41.23-1.687-11.53-50.063h-3.1l12.66,53.719h3.94l13.22-53.719h-3.38Zm37.57-50.063-5.34,48.938-5.62-48.938h-3.38l6.47,53.719h4.78l5.34-48.656,5.07,48.656h4.78l6.47-53.719h-3.1l-5.62,48.938-5.06-48.938h-4.79Zm41.24,29.532,11.25,24.187h3.37l-13.22-27.844,12.38-25.875h-3.66l-10.12,22.219-10.41-22.219h-3.38l12.1,25.875-12.94,27.844h3.38Zm47.98-29.532-11.25,27.282-10.97-27.282h-3.38l12.94,31.219v22.5h2.81V522.672l13.22-30.938h-3.37Zm14.79,0v2.813h25.03l-26.72,48.937v1.969h31.22v-2.812h-27.56l26.72-48.938v-1.969h-28.69Z"/>
  <path id="logo" class="cls-1" d="M706.266,1194.7a45.969,45.969,0,0,0-.118,5.15v5.16H677.555v-1.17l0.234-.94-1.406-.24c-1.1,0-2.659-.07-4.688-0.23h-3.281l-0.469,2.58a45.646,45.646,0,0,1-1.172,4.92,22.619,22.619,0,0,1-1.406,4.22,7.125,7.125,0,0,0-.82,2.23,6.584,6.584,0,0,0,2.109-.71c1.326-.54,2.615-1.13,3.867-1.76a11.566,11.566,0,0,0,3.516-2.81l1.641-1.64h66.8l1.875,1.88a14.477,14.477,0,0,0,3.75,2.81c1.406,0.62,2.655,1.17,3.75,1.64a1.036,1.036,0,1,0,1.171-1.17,17.1,17.1,0,0,1-1.406-3.99q-0.7-2.34-1.172-4.68a11.9,11.9,0,0,0-.7-3.05c0-.47-1.252-0.62-3.75-0.47-1.875.16-3.281,0.23-4.219,0.23a2.052,2.052,0,0,1-.937.24c-0.315,0-.469.31-0.469,0.94l0.235,0.93-13.594.24q-13.359,0-13.36-.24a2.838,2.838,0,0,1,.7-1.05,6.664,6.664,0,0,0,1.171-2.46,15.728,15.728,0,0,0,.469-4.22v-2.58h-4.687Q706.382,1194.46,706.266,1194.7Zm-31.289,28.12v4.22l21.093,0.23h21.094l-5.859,4.93q-5.4,4.215-8.2,6.56l-2.344,1.87v6.8H660.445v4.22h40.313v14.76c0,10.01-.158,15.47-0.469,16.41a13.152,13.152,0,0,1-1.172,3.05,21,21,0,0,1-2.578,3.04,16.962,16.962,0,0,1-3.75,2.82c-1.406.62-2.109,1.17-2.109,1.64s0.153,0.7.468,0.7a30.375,30.375,0,0,0,3.047-.47,34.353,34.353,0,0,0,4.922-1.4,16.4,16.4,0,0,0,4.688-1.88,11.74,11.74,0,0,0,3.515-2.34,12.264,12.264,0,0,0,2.344-2.58,13,13,0,0,0,1.172-2.58c0.311-.94.469-6.4,0.469-16.41v-14.76h38.2v-4.22h-38.2v-6.8l2.109-1.64q2.109-1.635,8.438-6.79,6.327-5.4,8.437-7.04a13.637,13.637,0,0,0,2.578-2.34q0-.225-28.828-0.23t-29.062.23h0Zm121.64-30.23-0.469,1.87a27.635,27.635,0,0,1-1.523,5.74c-0.861,2.43-1.681,4.65-2.461,6.68q-1.176,2.58-3.281,6.8-1.88,3.75-4.453,8.44-2.11,3.75-4.688,7.73-2.582,4.215-3.047,4.92a7.818,7.818,0,0,0-1.406,2.11c-0.157.47-.117,0.71,0.117,0.71a8.252,8.252,0,0,0,2.227-1.18q1.873-1.17,3.515-2.34,1.874-1.41,3.985-3.28a59.714,59.714,0,0,0,4.453-4.45l2.109-2.35,0.235,14.77,0.234,14.76h1.875a5.862,5.862,0,0,0,3.047-.7,5.457,5.457,0,0,0,1.875-1.17,11.374,11.374,0,0,0,1.406-1.64l0.469-.71h27.187v2.11l0.235,2.11h1.64a7.437,7.437,0,0,0,2.813-.47,9.072,9.072,0,0,0,2.109-1.17,4.666,4.666,0,0,0,1.407-1.64l0.7-.94h31.64v-4.45H838.336v-6.8H868.57v-4.45H838.336v-6.8H868.57v-4.68H838.336v-7.5H868.57v-4.69H837.164l0.938-1.17a23.668,23.668,0,0,0,1.406-2.35,6.445,6.445,0,0,0,.7-2.57,17.74,17.74,0,0,0,.469-4.93v-3.51H828.727v14.53H815.6q-13.129,0-13.125-.23c0-.16-0.158-0.24-0.469-0.24s0.311-1.41,1.875-4.22a69.182,69.182,0,0,0,3.281-7.5,16.732,16.732,0,0,0,1.406-3.98l0.235-1.17H796.617Zm31.406,22.03v7.5H802.477v-7.5h25.546Zm0,12.18v6.8H802.477v-6.8h25.546Zm0,11.25v6.8H802.477v-6.8h25.546Zm-3.515,16.88v5.16l-22.969.23H778.805v4.45h45.7v1.64c0,1.1-.081,1.64-0.235,1.64a40.222,40.222,0,0,1-4.687-1.17q-4.455-1.17-4.922-1.4-0.236,0-6.328,4.68-6.1,4.935-7.734,6.1-1.643.93-4.454,2.58a58.967,58.967,0,0,1-5.39,2.57q-2.812,1.185-5.391,2.23a35.226,35.226,0,0,1-5.859,1.76,17.416,17.416,0,0,0-3.047,1.05,6.06,6.06,0,0,0,1.289,1.06,3.994,3.994,0,0,0,1.992.94c0.469,0,2.344-.32,5.625-0.94s6.328-1.33,9.141-2.11q4.449-1.17,8.2-2.35a22.822,22.822,0,0,0,4.922-2.1q1.637-.945,9.14-6.1t7.618-5.04q0.115,0.12.117,13.48v13.12h1.406a7.357,7.357,0,0,0,2.813-.7,6.692,6.692,0,0,0,3.046-1.99,11.184,11.184,0,0,0,2.11-3.17,8.733,8.733,0,0,0,.586-2.34q0.115-1.17.117-6.33c0.154-4.68.271-7.11,0.352-7.26s1.442,0.55,4.1,2.11q3.982,2.1,6.8,3.51a34.945,34.945,0,0,0,6.328,2.58,54.282,54.282,0,0,0,6.328,1.64,52.974,52.974,0,0,0,5.625.94c1.718,0.16,4.219.23,7.5,0.23a38.521,38.521,0,0,0,5.86-.23,1.37,1.37,0,0,0,1.171-.94l0.235-1.17c0-.15-0.235-0.24-0.7-0.24-0.315,0-1.722-.23-4.219-0.7s-5-1.01-7.5-1.64q-3.516-.93-6.8-2.11-2.812-.93-5.625-2.11-2.346-1.17-10.078-6.33l-7.734-5.15,19.453-.24h19.453v-4.45H854.977l-20.157-.23v-2.58l-0.234-2.58H824.508Z"/>
</svg>
