<svg xmlns="http://www.w3.org/2000/svg" width="400" height="200" viewBox="0 0 400 200">
  <defs>
    <style>
      .cls-1 {
        fill: #fdfdfd;
        fill-rule: evenodd;
      }
    </style>
  </defs>
  <path id="王漢宗中行書繁" class="cls-1" d="M43.438,84.836q-1.735-.046-1.922.656,2.25,2.438,4.313,1.688a31.546,31.546,0,0,0,7.406-3.187q1.406-.562,1.641-0.281a3.049,3.049,0,0,1-.047,1.406q-0.61,4.125-1.922,10.5A2.407,2.407,0,0,1,51.359,97.4a50.7,50.7,0,0,0-5.531,2.766,5.749,5.749,0,0,0-1.5,1.313q0.234,0.563,1.031.187a51.663,51.663,0,0,1,5.25-2.016q1.5-.468,1.313.61-0.657,3.141-1.125,6.281a3.531,3.531,0,0,1-1.125,1.828,24.644,24.644,0,0,1-6.562,5.11,2.583,2.583,0,0,0-.891.7q-1.782,2.389.75,3.14a11.841,11.841,0,0,0,3.281-.375l3.75-.562q4.968-.7,7.172-0.8a1.861,1.861,0,0,1,1.734.375c0.094,0.124-.234.469-0.984,1.031a8.558,8.558,0,0,0-3.141,2.11q-0.047.234,1.828-.047l2.813-.938a19.745,19.745,0,0,0,3.75-1.265q2.531-1.923-1.312-4.032a14.929,14.929,0,0,0-7.359.422q-1.5.376-1.312-.7,0.375-2.25.516-4.359-0.095-.657,1.313-1.875,1.828-1.875,3.469-3.75a8.506,8.506,0,0,1,1.781-1.735,2.481,2.481,0,0,0,.563-3.7,1.882,1.882,0,0,0-.844-0.8,6.139,6.139,0,0,0-3.7-.422q-1.266.235-1.078-1.078a82.888,82.888,0,0,1,2.578-10.312,6.681,6.681,0,0,0,.844-2.344,2.714,2.714,0,0,0-1.641-2.437q-0.469-.234-1.828,1.313a32.889,32.889,0,0,1-11.719,3.8h0ZM58.25,99.273a35,35,0,0,1-2.906,3.375q-1.36,1.454-1.172.188,0.093-1.546.328-3.094a1.862,1.862,0,0,1,1.359-1.734q1.969-.468,2.625.188a1.012,1.012,0,0,1-.234,1.078h0Zm-8.437,15-0.937.235q-1.313.047-1.125-.8a2.512,2.512,0,0,1,.656-0.7l0.609-.61q1.171-1.125,1.219.282,0.234,1.453-.422,1.593h0Zm58.313-31.312a1.994,1.994,0,0,1-1.594,1.641q-1.734.281-3.328,0.7a1.677,1.677,0,0,1-2.062-1.172,2.667,2.667,0,0,0-.563-0.656q-1.547-.984-1.687-0.656a3.779,3.779,0,0,0,.234,1.313,3.191,3.191,0,0,1,.188.984,1.615,1.615,0,0,1-1.031,1.828,14.323,14.323,0,0,0-2.109.891,1.521,1.521,0,0,1-1.594-.375q-0.7-.656-0.8.047a2.646,2.646,0,0,0,2.484,2.578,2.711,2.711,0,0,0,2.2-.8q1.359-.937,1.781.188l0.281,0.422q0.563,1.313,1.172.609a4.65,4.65,0,0,0,.188-1.687,1.724,1.724,0,0,1,1.125-1.734,9.978,9.978,0,0,1,2.39-.609q1.359-.141.75,1.078a7.85,7.85,0,0,1-1.218,2.25,6.439,6.439,0,0,0-.985,1.641q0.234,0.188,1.641-.8,1.688-1.687,3.14-3.375A2.532,2.532,0,0,1,110.75,86.1l1.078,0.188a10.416,10.416,0,0,0,2.344.7q1.78-.327.75-1.781-1.546-1.452-2.484-1.359-1.548.094-1.266-.937,0.468-1.781-2.25-3.516-1.361-.375-1.36-0.047a3.165,3.165,0,0,1,.563,3.609h0ZM87.266,87.555a1.332,1.332,0,0,1-.094,2.109,0.974,0.974,0,0,0-.422.844,0.714,0.714,0,0,0,.516.234q2.437-1.874,3.984-1.078a1.186,1.186,0,0,0,1.266-1.547A2.32,2.32,0,0,0,90.5,86.336a13.218,13.218,0,0,0-1.875-.328,3.779,3.779,0,0,1-1.453-.844,1.677,1.677,0,0,0-.75-0.516,0.489,0.489,0,0,0-.516.469,5.092,5.092,0,0,0,1.359,2.438h0Zm13.359,7.734q-1.172.844-1.5-.281a1.558,1.558,0,0,0-.609-0.844,4.981,4.981,0,0,0-.984,1.875l-0.891,1.875a2.123,2.123,0,0,0,.516,2.953,1.294,1.294,0,0,0,1.641.469,1.982,1.982,0,0,0,.234-1.078q0.093-2.437,3.8-4.313,1.452-.656,1.406.469L104,98.664a2.088,2.088,0,0,1-1.359,1.828l-1.079.516a4.3,4.3,0,0,0-1.5.89,1.2,1.2,0,0,0,1.829.516q1.5-.327,1.265,1.078a2.129,2.129,0,0,1-1.5,1.781,13.193,13.193,0,0,0-2.531,1.172,1.4,1.4,0,0,0,1.734.844q1.407-.327,1.032.7a1.8,1.8,0,0,1-1.5,1.172,29.712,29.712,0,0,0-3.938,1.125,10.361,10.361,0,0,1-3.187,1.078,2.668,2.668,0,0,0-1.687.516,1.01,1.01,0,0,0,1.313.89q4.124,0.752,6.422-.89,1.594-.656,1.079.515a15.219,15.219,0,0,1-3.75,6.094,4.142,4.142,0,0,0-1.312,1.453,3.4,3.4,0,0,0,1.641-.281,12.19,12.19,0,0,0,6.562-7.969,2.2,2.2,0,0,1,1.594-1.687,11.945,11.945,0,0,1,1.781-.328,22.885,22.885,0,0,1,7.688.422,4.143,4.143,0,0,0,1.781.468q1.78-.7.609-1.922a4.521,4.521,0,0,0-3.7-1.406,50.336,50.336,0,0,0-7.219.8q-1.593.328-1.453-.7a1.807,1.807,0,0,1,1.36-1.453,7.908,7.908,0,0,1,2.25-.235,4.807,4.807,0,0,0,2.625-.281q0.656-1.547-1.313-1.922a7.292,7.292,0,0,0-3.422.375q-1.031.377-.843-0.937a1.552,1.552,0,0,1,1.218-1.453,8.873,8.873,0,0,1,1.547-.141,2.052,2.052,0,0,0,2.3-.7,0.934,0.934,0,0,0-.375-0.891q-0.28-.281.844-1.266l2.625-2.3a1.258,1.258,0,0,0,.562-1.172q-2.531-3.843-4.828-3.141a23.222,23.222,0,0,0-8.531,3.469h0Zm9.8-.141-1.266,2.438a2.851,2.851,0,0,1-2.25,1.547q-1.359.376-1.359-.75a14.71,14.71,0,0,0-.094-2.344,1.367,1.367,0,0,1,.844-1.687q2.813-1.078,3.984-.8a1.058,1.058,0,0,1,.141,1.594h0Zm-27,1.688a2.847,2.847,0,0,0-1.5.234,2.479,2.479,0,0,0,1.688,1.406q2.015,0.657,1.078,2.3a5.374,5.374,0,0,0-.562,2.016,0.467,0.467,0,0,0,.469.188q1.64-3.047,3.469-3.282A2.3,2.3,0,0,0,89.75,97.82a1.131,1.131,0,0,0-.844-1.125,4.64,4.64,0,0,0-1.922-.422,16.693,16.693,0,0,1-3.562.563h0Zm1.875,15q-1.079,1.406-1.734.375a4.272,4.272,0,0,1-.328-3,3.9,3.9,0,0,0,.281-2.25q-0.281-.421-0.937,1.219a12.236,12.236,0,0,0-.75,5.343,2.889,2.889,0,0,0,.984,1.875q2.765,2.25,4.406-.562a100.2,100.2,0,0,0,6.375-13.359,0.424,0.424,0,0,0-.234-0.375,5.668,5.668,0,0,0-1.125,1.453,51.051,51.051,0,0,1-6.937,9.281h0Zm24.281,3.234a24.371,24.371,0,0,1,2.813,3.75q1.688,1.829,2.625.844,0.7-1.875-1.172-3.937a10.941,10.941,0,0,0-4.172-2.391,3.27,3.27,0,0,0-1.594-.281q-0.47.7,1.5,2.015h0Zm36.141-34.359a5.39,5.39,0,0,1,1.031,1.359A1.248,1.248,0,0,1,146,83.9a46.89,46.89,0,0,0-7.969,4.359q-1.265.7-1.265-.516a1.175,1.175,0,0,0-.047-0.562,4.074,4.074,0,0,0-.469-1.547,5.75,5.75,0,0,0-1.312,1.5,6.961,6.961,0,0,0-2.2,4.688,4.36,4.36,0,0,0,1.922,3.609q0.938,0.469,1.172,0a8.562,8.562,0,0,0,.656-1.594,11.974,11.974,0,0,1,6.141-6.422q1.688-.89,3.375-1.641,1.452-.656,1.547.141a2.758,2.758,0,0,0,.281.938q0.188,0.188,1.547-1.406a3.556,3.556,0,0,1,2.2-1.875,28.7,28.7,0,0,1,7.641-1.125q3.188,0.376,1.359,2.625a18.3,18.3,0,0,1-3.75,2.813,4.707,4.707,0,0,0-1.172.8q-0.047.281,1.36,0.422a8.342,8.342,0,0,0,5.25-.516,2.226,2.226,0,0,0,1.406-1.641,4.8,4.8,0,0,0-1.266-4.687,3.765,3.765,0,0,0-1.875-.937,16.885,16.885,0,0,0-8.578.516q-1.406.422-1.453-.047-0.609-2.062-4.031-3-1.828-1.078-1.969-.609a4.639,4.639,0,0,0,1.219,2.531h0Zm-1.875,14.531a3.06,3.06,0,0,0-1.735.281q-0.234.281,1.547,1.219a14.464,14.464,0,0,0,8.063-1.172,3.732,3.732,0,0,0,1.687-1.219,2.24,2.24,0,0,0-2.2-1.734,4.745,4.745,0,0,0-3.609,1.031,10.567,10.567,0,0,1-3.75,1.594h0Zm6.844,4.734q-5.625,2.2-11.25,4.593a4.961,4.961,0,0,1-3.235.657q-0.422.234,1.031,1.359a4.692,4.692,0,0,0,6.235-.984,15.318,15.318,0,0,1,5.109-2.719q0.422,0-.422,1.265a22.74,22.74,0,0,0-1.781,9.8q0.468,2.111-1.641,1.078-1.547-.468-1.406,0a4.122,4.122,0,0,0,1.172.985,10.566,10.566,0,0,1,3.328,3.7q1.218,2.156,2.25,0a3.952,3.952,0,0,0-.609-4.688,16.669,16.669,0,0,1-.938-7.125q0.7-4.968,6.094-5.953a3.28,3.28,0,0,0,1.875-.656,0.8,0.8,0,0,0,.047-1.125q-2.3-2.062-3.985-1.078Zm4.921,9.046a15.012,15.012,0,0,1,2.016,2.344,10.921,10.921,0,0,0,2.437,3.141q1.453,1.031,2.157-.188,0.468-4.78-6.141-6.7a2.612,2.612,0,0,0-1.687-.094q-0.189.189,1.218,1.5h0Zm-19.781,5.3,0.656-1.453a0.267,0.267,0,0,0-.328-0.187q-3.75,1.782-1.265,4.312a3.465,3.465,0,0,0,2.015,1.266q0.938-.235,2.3-2.3,1.407-1.875,2.625-3.75,0.8-1.407.563-1.594a23.822,23.822,0,0,1-6.422,4.031c-0.125-.031-0.172-0.14-0.141-0.328h0ZM193.25,78.273l1.172,0.844A4.657,4.657,0,0,1,195.5,81.93a29.6,29.6,0,0,1,.281,5.156,2.167,2.167,0,0,1-1.265,2.156,43.427,43.427,0,0,0-8.063,5.438q-1.453.938-1.781-.187a6.84,6.84,0,0,0-.656-3.281c-0.345-.437-0.594-0.609-0.75-0.516a29.445,29.445,0,0,1-2.2,4.875q-2.3,2.813.657,5.625,2.484,1.782,3.14-.937a21.8,21.8,0,0,1,9.61-9q1.452-.8,1.453.375l-0.047,6.8a1.4,1.4,0,0,1-1.219,1.406q-1.827.609-3.656,1.031a1.989,1.989,0,0,1-1.688-.844,1.125,1.125,0,0,0-.609.985,2.279,2.279,0,0,0,1.078,2.437,3.279,3.279,0,0,0,1.125.047q1.734-.8,3.422-1.406,1.5-.327,1.453,1.078-0.095,9.75.422,17.672a2.954,2.954,0,0,0,.328,1.781q0.328,0.282,1.031-1.453a134.6,134.6,0,0,0,1.266-18.844,1.831,1.831,0,0,1,1.266-1.828,23.846,23.846,0,0,1,3.422-.75q1.311,0.188,1.5-.75,0.045-.468-1.36-1.875-1.453-1.218-.094-2.109L208.25,92.1a13.5,13.5,0,0,0,3.8-2.812q1.547-1.828.141-3.281a6.45,6.45,0,0,0-3.282-1.406,20.722,20.722,0,0,0-8.156,1.688q-1.5.61-1.406-.8a11.628,11.628,0,0,0-.422-4.219q-1.361-4.312-5.672-3.891a0.538,0.538,0,0,0,0,.891h0Zm15.328,8.672q-0.984,2.391-5.859,7.219-1.125,1.125-1.5.984L200.7,95.2a2,2,0,0,0,.235,1.219q1.031,1.313-.376,1.734-1.547.516-1.5-.516l0.141-7.125a2.014,2.014,0,0,1,1.125-1.969,27.509,27.509,0,0,1,7.266-1.969q0.938-.093.984,0.375h0ZM229.2,89.8a6.066,6.066,0,0,0-1.5,1.359,0.608,0.608,0,0,0,.281.281A19.922,19.922,0,0,0,235.3,87.32q5.156-4.5-.328-7.687-0.235,0,.047,1.734-0.657,4.125-5.813,8.438h0ZM250.109,83.9a19.366,19.366,0,0,1-3.89,1.219,6.266,6.266,0,0,0-2.016.281,0.67,0.67,0,0,0,.328.7,7.866,7.866,0,0,0,4.547.609,32.661,32.661,0,0,0,7.5-1.734q1.829-.562.656-2.016a3.736,3.736,0,0,0-3.375-.422Q252.547,82.915,250.109,83.9ZM233.141,94.258a32.968,32.968,0,0,1-7.594,8.578q-1.736,1.688-1.172,1.734,1.875-.327,5.3-2.859,1.311-.844,1.078.281l-0.562,2.25q-1.314,5.719.374,8.672,1.594,1.969,2.438,0a45.484,45.484,0,0,1,1.969-5.344q0.515-1.593.234-1.687a4.221,4.221,0,0,0-1.5,1.172q-1.125,1.03-1.219-.469,0.046-2.812-.093-5.484a2.261,2.261,0,0,1,.937-2.11q3.468-3.187,3.563-5.437a4.447,4.447,0,0,0-1.313-2.672,5.282,5.282,0,0,0-1.594-1.078,2.8,2.8,0,0,0,.235,1.641,5.237,5.237,0,0,1-1.078,2.813h0Zm9.75,1.172a1.681,1.681,0,0,1-1.688.047q-1.361-.89-1.547-0.609a3.725,3.725,0,0,0,2.578,3.422,3.77,3.77,0,0,0,3.75-1.078,15.811,15.811,0,0,1,7.5-2.812q5.391-.656,7.594.8a1.953,1.953,0,0,0,1.406.047q2.25-1.547-.7-3.234-1.921-1.312-7.547-.141a44.1,44.1,0,0,0-11.343,3.563h0Zm10.312,4.593q0.141,8.345-1.547,12.422-2.109,5.109-6.047,5.907a4.364,4.364,0,0,0-1.547.89,0.892,0.892,0,0,0,.938.656,12.189,12.189,0,0,0,7.828-2.437,8.118,8.118,0,0,0,2.063-3.75,46,46,0,0,0-.375-16.453q-0.751-1.64-2.063-1.359-0.609.188,0.094,1.266a5.944,5.944,0,0,1,.656,2.859h0ZM288.734,78.7A3.574,3.574,0,0,1,290,81.6a1.415,1.415,0,0,1-1.219,1.594l-3.7.891q-1.828.141-1.922,0.563a2.249,2.249,0,0,0,.75.984,4.853,4.853,0,0,0,4.828-.141q1.454-.515,1.454.656v0.938a1.265,1.265,0,0,1-1.126,1.359,49.4,49.4,0,0,0-8.25,2.344,72.463,72.463,0,0,1-7.5,2.719,3.055,3.055,0,0,0-1.453.75,1.6,1.6,0,0,0,1.875.8,8.876,8.876,0,0,0,6.141-1.031,29.427,29.427,0,0,1,8.813-3.516q1.5-.422,1.5.7v0.516a1.736,1.736,0,0,1-1.126,1.828q-1.686.422-3.374,0.984a5.308,5.308,0,0,1-1.876.516,1.687,1.687,0,0,0-.89.094q-0.141,1.079,1.266,1.406a4.829,4.829,0,0,0,4.265-.656q1.593-.562,1.547.8v0.7a1.441,1.441,0,0,1-1.266,1.359,22.007,22.007,0,0,1-4.64.656,4.709,4.709,0,0,0-1.641.094,1,1,0,0,0,.235.75,3.448,3.448,0,0,0,2.718,1.219,14.937,14.937,0,0,0,3.188-.844q1.406-.516,1.406.094,0.047,0.421-1.125,1.125l-6.422,3.984a1.416,1.416,0,0,0-.469,1.359q0.468,1.643,2.625.844a51.084,51.084,0,0,1,5.625-1.828q3.75-1.218,7.5-2.3a5.663,5.663,0,0,1,1.875-.328,1.8,1.8,0,0,0,1.594-.75,1.051,1.051,0,0,0-.562-1.078,14.6,14.6,0,0,0-3.563-1.688,0.323,0.323,0,0,0-.234.282q0.984,1.125-.656,1.734l-3.047,1.125q-1.454.516-1.36-.469a2.111,2.111,0,0,1,1.266-1.594,17.69,17.69,0,0,0,4.312-2.437q1.548-.422,1.219-1.406a1.864,1.864,0,0,0-1.5-1.266,6.681,6.681,0,0,0-3.234,1.031q-1.407.61-1.313-.937a1.77,1.77,0,0,1,1.313-1.687l2.625-.469h0.984a0.914,0.914,0,0,0,1.359-.516,1.324,1.324,0,0,0-.89-1.219q-0.611-.281.516-1.406l0.328-.375a3.172,3.172,0,0,1,2.3-1.406,11.9,11.9,0,0,1,4.266.75,2.134,2.134,0,0,0,1.875.141q1.97-.984,0-2.531a5.846,5.846,0,0,0-4.781-1.219,1.213,1.213,0,0,1-1.453-1.172q-1.266-3.328-3.657-3.469a9.171,9.171,0,0,0-2.3.141q-1.548.328-1.641-.7a4.72,4.72,0,0,0-4.969-3.75,0.852,0.852,0,0,0-.515.422,1.546,1.546,0,0,0,.843,1.031h0Zm8.86,6.7a2.187,2.187,0,0,1-1.641,1.688l-1.219.188q-1.5.329-1.453-.75a5.3,5.3,0,0,1,.047-1.219,1.554,1.554,0,0,1,1.219-1.5,4.169,4.169,0,0,1,3.047-.141,1.462,1.462,0,0,1,0,1.734h0Zm-4.125,6.938q-0.61.141-.516-1.219a1.81,1.81,0,0,1,1.547-1.781q1.407-.046.562,1.453a4.351,4.351,0,0,1-1.593,1.547h0Zm-4.313,12.328a35.313,35.313,0,0,1-3.375,1.125q-0.329,0,1.078-.937l1.969-1.219q1.313-.844,1.313.047a1.029,1.029,0,0,1-.985.984h0Zm-2.437,6.609q-1.5,1.22-1.36.094a2.654,2.654,0,0,0-.187-2.3,3.285,3.285,0,0,0-1.031,1.36q-3.8,4.313-.282,7.875,1.22,0.8,1.547-.657a7.127,7.127,0,0,1,2.485-4.687,24.228,24.228,0,0,1,7.5-4.594q2.671-1.125,3.656,0a2.039,2.039,0,0,1,.281,1.031,14.428,14.428,0,0,1-1.922,5.157q-1.266,1.593-.468,1.922,1.547-.986,3.046-1.782,2.813-2.109,3.047-3.984a4.5,4.5,0,0,0-2.484-3.891q-1.875-1.452-4.828-.422a33.438,33.438,0,0,0-9,4.875h0Zm4.219,1.5q0.327,0.236-.188,1.5a6,6,0,0,1-.891,1.36,6.27,6.27,0,0,0-1.171,1.64q0.045,0.188,1.5-.375a21.529,21.529,0,0,0,3.093-2.765,5.116,5.116,0,0,0,1.031-1.594,1.64,1.64,0,0,0-1.406-.844,4.565,4.565,0,0,0-1.828.328q-0.8.377-.14,0.75h0Zm-1.36,5.719q-2.016-.047-1.734.469a3.1,3.1,0,0,0,1.64.937,15.836,15.836,0,0,0,5.485.516q2.671,0.141,1.265-2.109a3.563,3.563,0,0,0-2.906-.375q-1.875.373-3.75,0.562h0Zm39-35.25q-1.266,1.594-1.078,2.484,0.938,2.672,3.609.094a25.944,25.944,0,0,1,3.422-1.969q1.266-.656.75,0.656-3.234,4.688-6.093,9.328a1.83,1.83,0,0,1-.7.75q-3.984.844-7.968,2.016a2.787,2.787,0,0,0-1.641.328,1.717,1.717,0,0,0,.656.891,4.3,4.3,0,0,0,3.422.563l3.188-1.406q1.452-.515.375,0.609a1.365,1.365,0,0,0-.282.7q0.609,2.626,2.344.8a4.109,4.109,0,0,1,2.531-.844q1.548-.141.891,1.125a3.627,3.627,0,0,0-.891,1.5q0.188,0.235,1.641-.75,1.688-2.25,2.812-1.5,1.125,0.376-.14,1.781l-2.578,2.719a8.106,8.106,0,0,1-1.5,1.313,1.228,1.228,0,0,0-.7.984q1.03,3.328,3.187,1.453a61.82,61.82,0,0,1,6.281-3.8q1.359-.607.516,0.282-4.407,3.938-9,7.546a3.78,3.78,0,0,0-1.266.891q-0.516,1.313,1.219,2.484a6,6,0,0,0,1.594-1.031q2.109-1.406,4.219-2.625,1.405-.8,1.875.281a14.638,14.638,0,0,1-.516,7.36,1.163,1.163,0,0,1-2.016.375,0.786,0.786,0,0,0-.89-0.094,4.536,4.536,0,0,0,1.218,1.5,6.1,6.1,0,0,0,.938.7q2.109,1.734,3.141-1.219,0.563-1.921.047-7.218a3.738,3.738,0,0,0-.75-2.438q-0.469-.562.515-1.125a20.9,20.9,0,0,1,3.422-1.406q2.672-.75,1.031,1.125a19.509,19.509,0,0,1-2.437,2.719,4.869,4.869,0,0,0-1.031,1.031,0.421,0.421,0,0,0,.234.375,15.519,15.519,0,0,0,5.812-2.953q2.438-1.687,1.735-2.953a2.114,2.114,0,0,0-1.453-1.172q-3.375-.282-9.375,2.625a3.633,3.633,0,0,1-1.735.609q-0.421,0,.8-0.984a81.364,81.364,0,0,1,7.172-5.344,3.857,3.857,0,0,0,1.547-1.172,0.871,0.871,0,0,0-.188-1.172q-0.937-1.125-1.828-.562-4.454,1.875-8.906,4.078-1.687.609-.609-0.7a21.391,21.391,0,0,1,2.953-2.578q2.343-1.829,1.172-2.672-0.282-.281.984-1.594,3.75-4.734.984-7.922-1.359-1.687-2.859-1.266H337.3q-1.5.047-.75-0.984a12.8,12.8,0,0,1,1.219-1.5q1.593-1.312,1.546-2.016-0.75-1.547-2.765-.844a17.894,17.894,0,0,0-3.8,1.641q-1.407.422-.938-0.7,1.172-2.672.657-3.984a1.487,1.487,0,0,0-1.407-1.078,0.919,0.919,0,0,0,.094.656q0.282,2.485-2.578,5.2h0Zm16.266-3.234a1.394,1.394,0,0,1,.984,1.266,40.364,40.364,0,0,1-.234,4.359q-0.187,1.547.094,1.547a1.854,1.854,0,0,0,.562-0.422,1.854,1.854,0,0,1,2.719.75,6.088,6.088,0,0,1-.375,3.234,1.921,1.921,0,0,1-1.735,1.406h-0.937q-1.407.376-1.406,0.609a2.726,2.726,0,0,0,1.359.422q1.125,0.329-.281,1.688a5.1,5.1,0,0,1-2.25,1.031q-1.454.094-1.453,0.422a4.5,4.5,0,0,0,1.687.609,7.944,7.944,0,0,0,4.688-1.406q1.405-1.359,2.531-.937a35.041,35.041,0,0,1,4.875,1.875,3.7,3.7,0,0,0,1.828.094q0.188-.187-1.031-1.922-2.2-2.437-4.219-2.25-1.407-.187-1.031-1.312a4.983,4.983,0,0,0-.188-3.562,3.744,3.744,0,0,0-2.156-2.062q-1.594-.234-1.172-1.125,1.079-2.484.328-3.984-2.156-2.391-4.078-1.172a1,1,0,0,0,.891.844h0Zm-5.063,9.8a5.42,5.42,0,0,1-.422,1.547q-0.516,1.5-.7,1.359l-0.937-.281q-0.75.047-.844-1.031a3.056,3.056,0,0,0-2.3-2.25q-0.421.094,0.188,1.875,0.468,2.579-1.125,2.344l-1.079.234q-1.406.376-.75-0.75,0.986-1.593,2.11-3.187a2.237,2.237,0,0,1,2.156-1.172,6.256,6.256,0,0,1,3.469,0,1.709,1.709,0,0,1,.234,1.313h0Zm-1.969,5.484q-0.656,1.219-1.359,1.125-0.7-.141-0.281-1.266a1.626,1.626,0,0,1,1.359-1.078q0.891-.046.281,1.219h0Zm-4.031.328a1.632,1.632,0,0,1-1.453.938,11.946,11.946,0,0,0-1.781.328q-1.641.376-1.313-.141a4.147,4.147,0,0,1,3.047-1.687l0.563-.141q1.359-.234.937,0.7h0Zm12.375,20.2q1.031,1.266,1.875,2.485,1.171,1.17,2.016.89a1.249,1.249,0,0,0,.609-1.547,3.366,3.366,0,0,0-1.125-2.2,8.628,8.628,0,0,0-3.422-1.265,0.929,0.929,0,0,0-1.171.093q-0.236.095,1.218,1.547h0Zm-13.312.938q-1.407.468-1.641-.094a0.672,0.672,0,0,0-.469-0.516l-1.172,2.063q-1.078,1.688.657,2.437a4.393,4.393,0,0,0,1.922-1.125l2.484-2.39q1.031-1.5-.937-0.61a2.88,2.88,0,0,1-.844.235h0Z"/>
</svg>
