<svg xmlns="http://www.w3.org/2000/svg" width="1540" height="1450" viewBox="0 0 1540 1450">
  <defs>
    <style>
      .cls-1 {
        fill: #fff;
      }

      .cls-1, .cls-2, .cls-3 {
        fill-rule: evenodd;
      }

      .cls-2 {
        fill: #fefefe;
      }

      .cls-3 {
        fill: #fdfdfd;
      }
    </style>
  </defs>
  <path id="字体名称" class="cls-1" d="M106.9,205.984a65.711,65.711,0,0,1-15.625,5.86q-7.228,1.368-8.008,2.929-1.369,9.183,8.2,13.672,17.579,8.79,40.82,3.711,5.859-.975,8.789,1.367,4.688,2.738,4.688,6.446v8.789q0,4.688-4.688,6.445-27.539,8.2-44.726,11.914-7.425,4.1-1.367,12.305a40.86,40.86,0,0,0,14.454,9.375q7.031,2.151,2.343,4.492-27.736,14.259-26.367,35.742,2.344,16.992,21.094,24.61,22.266,8.2,46.875-.586,43.551-13.088,80.859-1.758,14.453,8.2,21.875-5.469,8.982-17.578-15.429-32.617-22.462-11.719-44.727-7.031-5.859.783-6.055-4.3l-0.781-14.063q-0.2-5.464,5.273-6.445a59.845,59.845,0,0,1,25.977.977q9.375,3.323,15.625,1.953,9.178-2.93,10.547-12.891,2.343-13.476-13.086-21.484-15.629-9.567-38.281-6.641-5.861.587-7.032-4.1a29.384,29.384,0,0,0-4.687-10.352q-5.274-6.051-.391-6.641,17.771-2.146,40.235,1.367,15.82,3.911,23.047,2.344a16.226,16.226,0,0,0,7.031-9.375q3.9-15.038-17.188-25.976-21.68-10.35-51.172-6.446Q148.3,188.8,106.9,205.984h0Zm37.7,98.243a80.808,80.808,0,0,0-.2,9.765q0,4.688-5.078,6.055l-18.164,6.25a60.846,60.846,0,0,1-15.625,4.492q-8.01.192-8.008-7.422,0.389-4.293,4.688-7.617a79.119,79.119,0,0,1,31.25-13.867l3.906-.781q7.421-1.365,7.227,3.125h0ZM405.531,177.078q0.975,1.566-4.1,2.344-8.6,1.368-17.188,3.516-5.859,1.757-9.375-3.126-5.667-6.638-11.133-7.031-15.43-1.363-10.546,11.328a12.923,12.923,0,0,1,2.929,4.883q0.39,1.954-4.883,3.516l-7.617,1.758q-4.687,1.172-6.25,2.734-1.368,1.172-4.687-3.516-7.815-11.133-19.336-13.672-10.158-1.56-15.43,5.665-6.253,8.6-1.367,15.625a66.139,66.139,0,0,0,14.844,13.867q6.445,6.445-4.1,8.4-27.538,11.133-18.945,33.2,3.122,7.617,13.281,13.868,8.789,3.323.586,10.546-18.558,23.832-8.789,46.875,9.763,19.337,25.781,23.829,20.9,4.1,18.555-19.141-0.2-5.471,4.3-2.93a32.443,32.443,0,0,0,7.617,1.367q6.637-.393.781,5.469a46.341,46.341,0,0,1-5.859,4.688q-3.127,1.171-2.93,3.906,0.779,2.343,6.25,5.664,17.184,11.911,31.25,2.93A63.541,63.541,0,0,0,394.4,330.594q2.931-5.859,8.985-2.344,11.325,7.224,31.25,22.461,10.738,6.051,16.8,3.711a23.194,23.194,0,0,0,5.664-5.664q4.879-7.228-3.516-15.235l-8.984-7.031q0.389-2.733,5.468-1.367,8.007,3.516,10.743-2.93,3.708-7.617-8.008-13.672-16.992-5.663-42.578-3.32-5.86.2-6.25-.586l0.195-2.539q0.779-1.758,5.859-2.344,21.286-1.56,35.547.977,5.466,1.566,8.594.781a7.956,7.956,0,0,0,3.32-6.64q0-6.637-7.812-10.157-15.629-5.464-34.961-3.125-6.446.395-6.055-2.929t5.664-4.1a77.977,77.977,0,0,1,19.532-.586q20.507,7.425,23.046-14.844,2.148-10.546-.2-15.625-6.445-9.177-11.328-11.328a51.089,51.089,0,0,0-35.352-3.711,12.836,12.836,0,0,1-10.546-1.367l-3.125-1.367q-6.253-1.95,0-3.516l8.007-1.953q5.274-.778,7.032.391,10.152,4.3,19.726-2.93,3.9-5.662,3.321-14.258-0.783-6.445,3.71-6.25a107.8,107.8,0,0,1,14.258,3.125q4.688,0.98,7.032-4.1,3.9-8.592-6.836-13.867a53.793,53.793,0,0,0-14.454-4.493q-6.839-.777-9.96-4.492-8.986-8.4-17.969-5.859-7.032,4.3-4.688,9.57h0Zm0.781,25.391q0,4.3-4.882,5.273a135.381,135.381,0,0,0-18.164,4.883q-1.758.2-3.321-2.734-2.151-7.81,4.493-7.618,9.96-2.343,16.015-3.125,6.053-1.172,5.859,3.321h0ZM356.7,211.648q0.39,8.2,3.32,12.7,5.466,6.839,10.352,6.64,2.929,0.395,3.516,4.1t-4.883,6.25q-5.667,2.343-6.25.586-5.859-6.249-13.281-5.469-10.158,3.126-4.688,10.352,0.779,0.979.781,5.078a43.11,43.11,0,0,0-.976,7.031q-2.738,14.457,11.133,23.633a21.936,21.936,0,0,0,12.7.586q6.051-1.365,5.664,1.758-0.395,2.738-5.078,4.3l-14.649,3.32q-5.667.393-7.031,1.367-2.737,4.5,0,6.836a15.5,15.5,0,0,0,14.453,5.859q5.86-.585,6.25.391a11.031,11.031,0,0,1-1.367,4.3l-16.211,4.3a33.693,33.693,0,0,1-7.812,1.757,13.66,13.66,0,0,0-5.469.2q-1.758.98-2.734-4.3a203.667,203.667,0,0,1-2.54-30.664q0-4.687,4.1-10.156,3.9-10.154,0-15.625a14,14,0,0,1-2.93-8.594V233.133q0-4.687,3.125-6.836a29.255,29.255,0,0,0,4.883-6.641q2.345-4.491-.781-11.914-1.954-5.859,2.734-3.515a35.3,35.3,0,0,0,7.617,2.148q6.052,0.393,6.055,5.273h0Zm-28.32,22.266-0.391,6.445q-0.2,6.642-5.078,3.125a34.757,34.757,0,0,0-7.422-4.882q-5.273-4.687.586-6.836a36.516,36.516,0,0,1,6.25-1.563q5.859-.975,6.055,3.711h0ZM426.43,249.93q-1.173,4.1-5.86,4.3l-2.539.195q-6.252.98-6.25-4.1,0.39-4.879,5.274-5.468l3.32-.2q7.224-2.147,6.055,5.274h0ZM379.945,259.7q-0.98,3.516-5.859,4.883l-3.32,1.172q-7.425,3.909-7.618-3.711l0.2-3.906q0.389-.779,5.078-1.172l6.836-.586q6.051-.779,4.687,3.32h0Zm-55.078,51.367q-1.566,3.127-3.711,2.344-3.516-.192-6.836-6.64-3.515-8.594,4.688-17.188,6.248-5.662,6.25-.586,0.192,11.133-.391,22.07h0Zm219.727-116.21q4.491,6.056-.2,8.4l-15.234,7.812q-4.5,2.344-7.812-2.734Q511,197.2,502.406,200.32q-4.687,7.032,2.344,11.719,2.929,4.3.391,15.039-6.642,15.234.195,23.438,4.293,5.667,2.344,6.25-3.127.2-3.125,3.515,0.192,2.344,3.515,4.688,14.841,7.031,36.914-1.563,52.927-19.922,101.172-12.3,6.446-.779,8.4-3.125,3.515-7.421-2.344-13.086-2.738-2.537,1.758-6.055,9.178-7.809,9.179-14.648,0.39-17.578-20.9-25.586-22.266-8.007-46.875-2.54-5.859,1.369-11.133-4.492l-3.906-2.929q-20.508-9.568-34.766.586-7.227,6.642-.976,15.625h0Zm83.789,11.718q-0.587,3.712-5.078,8.985l-4.493,5.664q-4.686,5.471-9.765,5.664-33.009,2.541-75.2,19.336-6.253,2.54-6.25-2.344l-0.586-8.008q-0.587-4.491,4.687-3.906,16.013,0.587,38.477-8.789,16.8-7.224,31.25-14.258,14.84-6.834,24.218-5.664,3.319,1.172,2.735,3.32h0ZM536.2,278.445a12.251,12.251,0,0,1-11.718-1.757q-8.986-2.931-8.594,6.835,0.389,2.153-4.688,4.493a50.831,50.831,0,0,1-7.226,2.343q-8.4,1.758-1.172,9.18a36.684,36.684,0,0,0,6.445,3.711q4.295,1.758,1.758,7.031l-6.836,14.844q-4.3,5.662-3.711,8.4,1.758,10.153,7.617,15.039,15.82,8.007,19.922-8.2Q530.139,334.5,536,338.8a71.352,71.352,0,0,0,49.023,12.891q7.618-.981,11.524-5.86,5.466-7.813,3.906-19.336-0.393-9.179-.195-18.359a53.389,53.389,0,0,0-3.516-12.11q-2.737-4.687-2.344-5.468,0.39-.975,5.079-1.367a6.45,6.45,0,0,0,2.734-.2q5.859-.585,10.937,5.078,9.568,13.286,9.961,31.25-0.2,7.032,5.86,15.625,7.03,9.179,15.039,8.985,9.375,0,13.476-10.157a20.387,20.387,0,0,0,.782-15.625q-2.541-16.6-15.821-29.882-4.884-4.491,1.563-4.493l9.57,1.563q6.249,0.783,9.375-2.148,5.077-7.421.781-14.063-8.4-9.179-18.945-11.328a114.037,114.037,0,0,0-46.094-.781q-28.908,3.322-62.5,15.429h0ZM564.32,301.1l-0.39,17.578q-1.369,6.252-6.055,6.64-5.274.39-19.141-1.562-6.252-.586-4.882-5.664l2.734-8.985q0.389-5.662,5.664-7.226l11.328-3.516,3.906-.976q6.052-1.561,6.836,3.711h0ZM734.438,186.258q1.172,1.758.781,2.734A129.669,129.669,0,0,0,716.273,197q-4.687,2.541-5.859-2.539-5.274-15.821-18.359-16.8-6.253,3.126-2.149,9.375,2.537,2.541,2.735,8.984l0.586,5.665q0.389,4.686-3.321,6.445-4.5.98-5.078,4.492a8.473,8.473,0,0,0,5.274,6.641q3.122,1.368,2.929,6.054,0.192,34.379-1.172,50.977,0.39,5.859-4.882,11.719-3.91,5.667-2.344,11.328,2.733,5.859,1.172,8.008-2.541,4.3,1.953,8.007a6.711,6.711,0,0,1,2.539,3.516q-4.1,17.578,1.367,28.125,8.592,11.911,18.75,7.422,2.344-.395,7.813.781l6.835-.195q22.266-4.3,31.25-3.906a48.638,48.638,0,0,1,15.626,3.125q5.465,1.364,8.593-.977,2.345-1.368,7.617-.195,12.891,1.363,17.969-11.914,3.121-5.47,8.2.39,11.325,10.936,29.688,7.813,11.325-5.082,12.695-16.992a405.725,405.725,0,0,0,6.25-80.079,49.779,49.779,0,0,0-4.687-23.437q-9.375-16.6-27.149-21.289-4.687-.779-4.1-6.055a24.4,24.4,0,0,0-2.149-13.281q-3.712-7.421-10.351-8.594a20.379,20.379,0,0,0-15.625,2.735q-10.158,6.642-1.563,15.039,2.147,5.081-.195,19.531a13.444,13.444,0,0,1-3.125,7.812l-16.016,19.532q-4.5,4.494-5.664,7.031t-1.758,1.953q-0.98-18.75-1.367-37.5,0.192-5.859,4.3-6.055,6.834-.585,8.984-8.2,1.365-13.279-16.015-17.187-5.861-.39-8.4-2.735-11.133-10.547-20.7-7.812-6.642,4.3-2.929,12.5h0Zm8.007,31.836v7.617q0,5.081-6.445,1.758a38.624,38.624,0,0,0-9.375-3.321q-6.446-1.363-6.25-2.539,2.929-2.733,10.742-4.687l3.906-1.367q7.421-2.345,7.422,2.539h0Zm91.8,14.844a33.112,33.112,0,0,1,.781,10.742q-2.738,41.6-8.593,70.117-2.541,4.1-5.86,4.3-6.056-.192-4.687-5.274a239.751,239.751,0,0,0,6.445-45.508q0.39-14.254,1.563-27.929-0.783-8.007,7.031-10.352,2.343,0.394,3.32,3.907h0ZM720.57,247.586l-8.593,4.1q-0.783-.39-1.172-5.86,0.585-5.274,6.054-4.1,5.077,0,6.641.781,1.95,1.566-2.93,5.078h0Zm22.461,6.055q0,4.688-5.273,3.711l-3.906.2q-8.011,2.151-8.985-4.1,2.93-6.248,12.11-4.492,6.051-.389,6.054,4.688h0Zm47.461,17.578a110.079,110.079,0,0,0-1.953,12.89q-1.368,5.082-2.539.782,0-5.274-6.25-9.571-6.254-2.929-7.227-7.617-1.757-9.961-.976-13.672,1.171-.192,4.3,4.492,4.293,5.861,8.789,7.227,6.445,1.172,5.859,5.469h0Zm-63.281,6.445q5.859,0.98,1.562,3.711a87.959,87.959,0,0,0-10.351,5.664q-6.254,3.909-6.25-1.172l-0.2-5.859q-0.2-5.466,5.273-4.1Zm-27.344,20.117q-2.151,1.37-5.664.391-5.47-2.733-1.367-7.617,1.363-1.561,6.055,2.929,3.708,3.128.976,4.3h0Zm84.571,5.274a35.934,35.934,0,0,1-2.344,7.812q-0.98,1.171-2.93-2.148a6.383,6.383,0,0,0-4.1-5.86q-6.838-.777-16.015,2.344-4.3-1.171-2.93-6.055,0-4.1,5.274-5.078a50.256,50.256,0,0,1,15.234,1.172q6.249,0.586,8.008-3.515,2.929-3.319,1.367,3.515Zm-36.915,19.336q6.052,3.708,5.665,4.492-0.783.585-5.469,1.367-15.821,1.758-33.2,9.766-9.961,5.662-8.2-6.446l0.782-4.687q0.975-.394,6.836,4.3,8.592,2.733,11.132-2.93,3.319-5.274,5.079-14.453,1.757-6.053,1.171-7.813-0.585-1.56,5.274-4.882,5.466-2.148,5.078,2.929-0.586,11.916,5.859,18.36h0Zm-31.64-7.227a25.143,25.143,0,0,1-8.008,6.25q-0.783-.389-1.953-4.687-1.566-4.294,3.125-5.079a19.24,19.24,0,0,0,4.687-.586q6.637-1.172,2.149,4.1h0Zm62.695,9.18q-2.151,6.051-7.226,4.3a63.137,63.137,0,0,0-8.008-.977q-5.274-.586-4.688-1.758,4.295-3.122,15.039-4.687a7.863,7.863,0,0,0,3.907-2.344q4.688-4.687,1.757,2.734ZM939.516,189.773q0.777,2.931-4.493,4.493a333.021,333.021,0,0,0-37.7,14.257q-6.055,1.37-7.031,1.954-1.37,3.323,2.148,6.64a25.315,25.315,0,0,0,12.3,5.078q6.249,0.783,3.516,5.664-6.445,18.361,2.929,27.539,5.274,5.861,15.43,9.571a23.084,23.084,0,0,0,15.625.781,292.736,292.736,0,0,1,94.53-8.594q8.205-.192,14.84-8.984,2.355-5.859,1.76-14.649,0.78-9.763-9.96-17.773-14.25-7.421-36.91-4.492-35.943,4.3-76.565,17.383-6.056,1.565-4.687-1.953,4.688-8.007,15.039-11.329,52.926-17.577,105.083-8.593,7.215,0.782,9.76-2.344,6.645-11.719-8.59-19.531-19.155-8.007-46.683-4.883a12.3,12.3,0,0,1-10.156-3.516q-16.8-9.375-33.594-5.469-17.385,3.91-16.6,18.75h0Zm79.884,43.75q0,3.324-4.88,3.516a381.383,381.383,0,0,0-80.278,13.867q-8.985,1.173-10.937-5.468-0.979-3.906,3.906-3.907,11.133-.389,16.211-2.343,15.624-4.1,31.25-6.641,29.488-5.466,41.208-4.492,4.11,1.954,3.52,5.468h0Zm-98.244,43.75q-5.859.394-9.57-4.882-7.032-7.421-14.648-6.836-5.082,3.712-1.563,8.2a7.59,7.59,0,0,1,2.734,3.515,136.9,136.9,0,0,1-.39,25.2,26.323,26.323,0,0,0,1.758,16.992q5.465,8.789,13.476,7.422,2.733-.783,6.055,5.469,9.567,14.255,19.922,19.336,30.858,13.279,56.25,6.25,17.385-5.274,17.77-22.071,0.585-6.642-3.32-16.992-1.755-6.446,2.54-7.813,14.655-.777,37.11,4.1,9.765,1.172,11.92-5.273a14.717,14.717,0,0,0-.98-12.11q-1.365-1.56,2.34-5.859,8.01-12.891-4.88-22.461a60.749,60.749,0,0,0-23.44-6.445q-17-.779-50.193,5.468Zm103.324,8.4a11,11,0,0,1-7.82,2.93q-23.235.782-58,9.375-18.36,5.081-31.836,4.882-5.081-.975-7.617,1.172-2.343,1.758-2.539-4.1-0.2-5.663,4.688-5.664a207.894,207.894,0,0,0,23.437-3.125q50.976-12.3,78.511-11.914,6.45,1.565,1.18,6.445h0ZM969.008,317.7q6.247-1.758,6.25,3.32a57.244,57.244,0,0,1-.781,9.375q-0.394,5.466-4.688,6.25Q943.422,339.968,923.5,326.1q-5.667-4.687-5.469-9.571,0-5.663,4.3-1.953a40.429,40.429,0,0,0,17.774,6.836q11.718,0.395,28.906-3.711h0Zm200-131.836q3.705,5.859-1.37,8.2-13.875,8.2-21.48,10.352-6.06.98-7.82-3.711-16.59-26.559-38.47-27.149-7.62,0-11.14,5.665-6.63,10.94,1.76,19.531a54.926,54.926,0,0,0,15.43,11.523q12.9,7.228,0,11.524-15.045,6.055-21.29,17.578-7.62,17.775,8.99,31.836,5.655,3.909,5.66,5.664-0.195,1.566-3.12,5.078-20.715,26.367-8.01,48.242,11.91,19.337,27.93,20.117,11.52,0.975,14.65-7.422,1.56-4.3,3.71,1.563a12.132,12.132,0,0,0,6.05,6.641q14.07,5.859,17.97-10.938l1.76-7.812q1.95-15.624,4.69-31.25,3.9-17.382-10.94-26.954-6.645-2.535-10.94,1.172-2.73,5.86.98,9.375,2.34,1.954,2.34,6.836a112.846,112.846,0,0,1-11.72,32.617q-1.56,1.758-2.34,1.368-3.915-42.578,1.56-74.805l2.54-31.25a9.17,9.17,0,0,1,2.54-4.883q8.01,5.274,13.87,5.86,6.435,0.2,2.54,5.273-14.265,18.558-12.7,32.422a9.423,9.423,0,0,0,5.86,6.64q9.375,4.3,21.88,2.344,5.265-.975,5.07,2.735a14.979,14.979,0,0,0,1.96,6.64,7.049,7.049,0,0,1,2.93,5.664,325.273,325.273,0,0,1-2.74,48.828q-0.195,13.67,12.89,20.313,8.4,3.318,12.11-5.078a82.843,82.843,0,0,0,.78-15.039,272.079,272.079,0,0,1,1.76-35.742q-1.17-5.274,7.23-16.6,4.68-7.617,9.37-.977a25.363,25.363,0,0,1,.39,5.86q-4.68,38.48.2,55.859,0.975,6.249,8.4,10.156,16.2,6.446,26.17-.195,10.155-10.354,6.44-23.633-2.925-15.234-14.25-31.25c-2.09-3.515-3.06-6.119-2.93-7.812q-0.2-6.249-1.76-9.375-4.11-6.249.98-5.86,10.35,1.566,16.79-10.937,0.78-5.078-2.93-15.625-3.51-14.841-21.68-32.617-6.045-3.9-3.32-6.055a28.856,28.856,0,0,1,8.79,1.758l7.81,1.367q8.205,0.783,10.36-5.273,3.12-14.841-16.22-23.243-15.81-6.051-29.88-2.734c-3.39.781-6.57-.391-9.57-3.516q-15.63-10.935-33.4-3.125-8.2,7.032-3.12,14.258h0Zm42.38,26.758,2.73,3.906c2.35,4.038,3.45,6.381,3.33,7.031q-21.5,6.445-47.66,20.9-4.695,3.712-8.59,2.148-2.16-3.9,2.73-7.812a165.455,165.455,0,0,1,19.73-16.992q7.995-8.79,15.43-12.7l2.14-.976q5.865-1.561,10.16,4.492h0Zm-78.51,14.258q-2.55,14.259-4.3,28.515-0.78,5.274-4.3-.39-5.085-6.834-14.65-13.672c-3.12-1.563-4.95-3.32-5.47-5.274a3.566,3.566,0,0,1,2.93-4.1q4.305-2.345,15.63-6.055l3.9-1.172q6.84-2.733,6.26,2.149h0Zm97.26,26.562q2.925,8.4,5.86,12.305-0.2.783-6.45-1.367-9.57-2.733-21.48,8.789-5.67,5.274-9.96-.781-4.3-4.687-7.81-6.25-5.475-2.93-.78-5.079,14.25-5.465,28.51-10.351l3.91-1.172q6.63-1.561,8.2,3.906h0Zm-107.81,61.524q-2.16,8.2-9.57,3.32a22.28,22.28,0,0,1-8.01-13.086q-1.17-11.133,16.6-25.195,4.7-4.687,3.71,2.344a311.533,311.533,0,0,0-2.73,32.617h0Zm128.12,1.172q0.39,11.914-9.37,7.421a8.205,8.205,0,0,1-1.76-7.226,66.376,66.376,0,0,1,5.66-20.7q1.185-.975,2.74,3.906a102.539,102.539,0,0,0,2.73,16.6h0ZM1386,174.148q0,2.931,2.54,6.836a3.438,3.438,0,0,1-2.34,4.493,54.41,54.41,0,0,0-10.36,8.007q-4.485,4.688-5.66.586-7.035-21.093-21.88-21.093-19.53,4.3-46.87,30.468-4.7,2.153-7.03-.195-3.33-4.1,2.93-8.984a33.312,33.312,0,0,1,15.23-6.641q3.915-1.95,3.91-5.273,0-7.032-9.96-10.157-8.01-2.733-13.48,1.758c-1.69,1.694-1.76,3.974-.19,6.836q2.925,4.3-3.52,7.031-7.035,5.082-8.59,11.719c0.12,5.341,2.93,9.442,8.39,12.305a29.424,29.424,0,0,0,17.19,3.32q6.645,0-.78,2.93-5.865,4.1-9.57,1.367c-2.21-1.3-4.04-1.822-5.47-1.563q-5.67,2.153-1.17,6.641,1.17,1.172.98,7.227-0.99,5.859-4.69,5.664a18.771,18.771,0,0,0-4.49.781c-1.31,1.562-.78,3.192,1.56,4.883l5.08,3.515q-5.28,10.744,2.15,16.993c3.12,1.434,5.47,1.367,7.03-.2q1.56-1.363,7.61-1.172a13.679,13.679,0,0,0,4.11-.195q5.85-.389,6.05.586-5.085,9.183-10.74,9.766a25.594,25.594,0,0,0-7.62,6.054q-4.68,6.253,5.47,14.844,5.865,5.471,5.47,6.25a45.065,45.065,0,0,0-10.55,5.664q-8.79,9.77,1.17,17.188,2.94,1.954,1.96,7.226a11.63,11.63,0,0,1-2.15,3.711q-7.815,9.962,0,15.43,11.325,9.179,17.38-3.516,2.925-6.254,7.62-3.515,27.735,19.725,51.76,9.961,6.825-2.541,7.42-14.258a37.6,37.6,0,0,0-2.15-15.43q-2.925-6.051,1.95-7.812,4.695-1.173,10.16,4.3a75.376,75.376,0,0,1,15.23,21.875q8.6,15.038,19.73,9.961c4.17-2.084,6.57-4.95,7.23-8.593q0.975-3.91-3.32-11.719-5.085-11.325-18.75-19.336-6.06-3.122-.39-4.688l8-2.343q5.28-1.561,9.38,3.711,10.935,13.088,21.09,7.617,6.45-4.687,4.49-13.086-8.4-16.992-24.6-24.414-5.67-2.929-1.76-4.883,5.655-2.733,6.05-7.617,1.755-8.2-9.76-13.281-5.475-2.536-.78-5.86,4.68-3.708,9.37.195l3.13,3.516q6.24,10.355,16.6,4.492c1.04-.781,2.4-2.667,4.1-5.664q2.925-11.718-7.42-18.75-5.475-3.9-1.96-10.156,6.06-8.4-.19-15.234-2.745-2.931,1.17-2.93,7.815,1.172,7.81-7.617-0.585-9.375-11.13-11.719a51.946,51.946,0,0,0-20.31,4.1q-5.085,2.344-6.64-2.734-4.11-9.96-12.7-12.109a20.387,20.387,0,0,0-17.38-.781,7.328,7.328,0,0,0-2.15,3.71h0Zm-31.05,23.243q-17,6.642-23.64,10.156-3.9,1.172-3.9-1.367a138.777,138.777,0,0,0,15.23-15.235q9.765-12.108,15.82-2.148,2.535,5.859-3.51,8.594h0Zm48.63-3.321q0.975,0.783-3.91,4.492-11.715,9.183-19.33,9.766-3.915.395-4.69-3.906,8.4-10.547,22.46-10.938c2.99,0,4.82.2,5.47,0.586h0Zm21.09,18.36c-3.12,3.125-6.32,4.232-9.57,3.32l-3.32-.781q-7.62,0-1.17-2.93a73.789,73.789,0,0,1,12.69-5.859q7.035-2.148,3.91,2.929Zm-50.97,4.3q5.07,2.929,1.56,7.226-2.34,4.1-4.1,3.711c-1.18-.391-2.15-2.081-2.93-5.078a18.925,18.925,0,0,0-8.4-11.328q-5.67-3.516.97-3.125,5.085-.587,5.86,1.758,1.56,3.323,7.04,6.836h0Zm-34.18,9.765q-5.865.395-5.67-2.148a8.277,8.277,0,0,0-2.93-4.3q-1.95-1.172,3.32-3.906,11.52-6.835,12.31,4.3-1.17,5.859-7.03,6.054h0Zm-31.25,6.055c-4.3,1.3-6.39.912-6.25-1.172,0.12-2.081,1.82-3.253,5.07-3.516q9.375-3.515,8.01.782-0.78,2.54-6.83,3.906h0Zm92.96,0.586q-8.985,6.253-15.43,6.445-3.9.586-5.27-4.1-1.17-4.491,5.67-7.227a34.235,34.235,0,0,1,14.84-.586q5.265,1.566.19,5.469h0Zm-62.5,11.719c-4.42.912-6.64,0.131-6.64-2.344q0.2-3.32,6.84-4.492,6.045-.39,6.05,3.125,0,3.323-6.25,3.711h0Zm36.72,6.64q-6.255,3.324-6.25-1.562v-5.469q0-4.88,2.15-5.273,1.755,0,4.1,5.273,4.695,5.081,0,7.031h0Zm-69.14.391q-6.045,2.343-6.05-.2a11.006,11.006,0,0,1,.39-3.321q0.975-1.363,6.44-2.734,6.06-1.95,5.47,1.562,0,2.738-6.25,4.688h0Zm38.48,5.664q0.78,4.5,5.66,6.641c2.22,1.171,2.02,2.606-.58,4.3q-4.11,3.128-8.21-1.367a47.285,47.285,0,0,0-8.98-6.055q-6.645-2.343-.78-4.3a4.923,4.923,0,0,0,2.54-.586l3.9-.586q6.45-.587,6.45,1.953h0Zm49.61,11.914q-10.74,2.737-21.49,6.25-5.85,1.368-6.83.781c0-.519,1.88-2.539,5.66-6.054a147.587,147.587,0,0,1,15.63-11.329q8.6-5.464,10.35,0,6.45,8.2-3.32,10.352h0Zm16.4,17.383q5.475,5.08.79,6.25a882.454,882.454,0,0,0-90.82,21.875q-3.915.585-5.08,0.195-3.525-1.95-2.35-3.711a7.188,7.188,0,0,1,5.28-4.3l15.62-4.883a596.708,596.708,0,0,1,62.5-19.531q3.915-1.171,14.06,4.1h0Zm-88.67,3.32q-7.62,3.516-13.47.977-2.355-2.537,0-4.1,8.79-6.834,17.77-1.172,0.975,1.171-4.3,4.3h0Zm26.96,37.891a32.935,32.935,0,0,1,.39,12.5q-3.33,5.272-9.77,1.953-8.01-2.541-15.43-4.3-5.85-1.37-5.66-6.445,0-4.886,5.27-5.078a141.007,141.007,0,0,0,23.24-3.711q0.78,0.393,1.96,5.078h0Z"/>
  <path id="中文示例" class="cls-2" d="M303.359,702.844q-5.079-5.078-9.765-1.172-2.541,4.3.1,7.812a15.119,15.119,0,0,1,2.051,2.735,32.72,32.72,0,0,1,.879,7.324q-0.489,18.555-4.883,44.922-0.684,2.929-1.855,2.93-2.637.1-1.758-2.833,0.683-17.185,1.66-34.374a32.181,32.181,0,0,0-3.125-15.918q-9.572-15.332-21.094-6.836-2.833,2.636-4.98.976a8.909,8.909,0,0,0-5.957-1.269q-4.3,1.954-2.246,5.859a8.435,8.435,0,0,1,3.125,5.371q0,7.325-1.172,28.027-0.392,16.407.879,25.391a14.97,14.97,0,0,0,4.2,7.813q5.274,5.272,13.281,3.515a122.882,122.882,0,0,1,14.551-3.125q2.93-.292,3.516,1.856,2.439,5.273,6.152,6.64,6.346,1.269,6.934-5.664L305.02,767.2q0.293-4.2.878-8.4a0.885,0.885,0,0,1,.782-0.489,11.157,11.157,0,0,1,1.562,2.637q4,8.6,7.52,17.188,5.272,10.447,13.281,11.914,8.691,0.585,9.277-8.985-0.585-22.46-.781-63.574a27.468,27.468,0,0,0-1.367-7.812,17.643,17.643,0,0,0-5.567-8.2q-11.131-9.375-22.949,1.953-2.05,2.54-4.3-.586h0ZM324.844,713.2a146.545,146.545,0,0,1-.977,15.039q-0.292,2.931-.781,3.321-0.392-.1-1.758-2.442-2.05-4.687-8.3-8.886,2.344-3.711,5.078-7.422,3.418-5.663,5.762-2.735a8.586,8.586,0,0,1,.977,3.125h0Zm-48.633,20.313q-0.1,3.029-2.734,1.953l-5.86-2.246q-2.93-1.268-2.734-3.613l0.1-1.954a6.988,6.988,0,0,1,2.149-4.98,16.329,16.329,0,0,0,4.1-4.98q1.465-2.345,3.321-1.563,0.78,0.391,1.66,3.516v13.867Zm34.473-4.59a74.6,74.6,0,0,1,2.343,11.914q0.195,6.738,4.688,9.18,2.538,1.172,4,.488,1.854-.879,1.855,1.66l0.1,9.863q0.195,6.057-3.418,3.516-5.079-6.933-11.719-14.648-2.541-2.929-2.441-5.274L306,728.234q0-.681,2.539-1.464,0.682-.195,2.149,2.148h0ZM273.477,751.77q2.635,0.977,2.636,3.32v9.961q0.1,3.222-2.441,3.711L268.5,770.52q-2.929,1.269-4.3-1.27a190.245,190.245,0,0,1-.293-19.727q-0.1-2.439,2.637-.976Zm109.765-45.215q-2.93,1.954-4.59-.977-4.98-7.226-11.132-5.859-2.835.391-3.711,3.613a6.578,6.578,0,0,0,1.171,4.883,24.13,24.13,0,0,0,3.028,3.711,10.468,10.468,0,0,1,.781,3.906,95,95,0,0,1-1.074,17.871q-1.075,7.814-1.758,15.625a138.014,138.014,0,0,1-1.562,15.625,24.293,24.293,0,0,0,1.562,15.625q3.125,5.762,9.082,3.809,4.1-1.857,3.906-7.129,0-10.841.684-21.68,0.293-.585,2.637.1a28.9,28.9,0,0,0,12.988-1.172,50.837,50.837,0,0,1,16.113-3.027q3.026,0.585,3.028,3.027,0.389,10.546-1.172,14.062-1.466,1.758-4.493,1.172-9.765-2.051-25.781-11.035-2.637-1.561-.976,1.66a157.452,157.452,0,0,0,28.125,24.8q8.1,6.446,15.527,3.125a14.325,14.325,0,0,0,6.445-11.133q-0.489-34.666-1.367-56.738,0.293-3.9-2.832-11.719-4.786-9.375-13.769-10.937a41.074,41.074,0,0,0-15.235.976,54.853,54.853,0,0,0-15.625,7.813h0ZM414.2,721.887q-0.2,3.222-2.344,2.539a10.812,10.812,0,0,0-7.031,0A137.91,137.91,0,0,0,381,735.266q-0.391-.1-0.195-2.442l0.781-8.691q0.293-2.93,2.637-2.735,8.691,0.783,20.117-6.64,7.518-4.98,9.57,1.074a23.185,23.185,0,0,1,.293,6.055h0Zm-0.293,14.551v2.343q0.1,2.833-2.441,2.637-5.47-.293-14.063,2.539-7.227,2.149-14.453,4.981-3.126,1.269-3.125-1.27a43.572,43.572,0,0,1,.293-5.176q0.1-3.025,2.637-2.441,6.445,1.171,17.187-3.809a21.661,21.661,0,0,1,10.938-2.539q3.025,0.2,3.027,2.735h0Zm68.848-30.567a5.166,5.166,0,0,1,1.562,1.66,27.8,27.8,0,0,1,.586,7.227v10.254a2.828,2.828,0,0,1-2.539,2.929,45.337,45.337,0,0,1-8.4,2.735,3.29,3.29,0,0,1-3.125-2.735,21.945,21.945,0,0,1,.293-5.468q2.439-7.519-2.442-12.7-3.418-2.636-6.836-1.269-4.1,2.735-.781,7.422a5.607,5.607,0,0,1,1.074,3.906q-0.976,3.908-1.66,7.812-1.856,9.962,6.055,14.942Q474.16,746.3,481,744.25q3.125-1.074,3.125,1.465-0.976,10.546-1.074,21.094a3.239,3.239,0,0,1-2.442,3.222,60.5,60.5,0,0,1-6.445,1.953q-4.4,1.565-4.785-3.515a90.8,90.8,0,0,1,1.172-11.719,15.453,15.453,0,0,0-2.149-7.812q-4.3-5.567-9.375-2.833a4.521,4.521,0,0,0-1.269,1.856q-1.172,3.126,1.562,5.859a8.6,8.6,0,0,1,.586,4.492,52.645,52.645,0,0,0-.976,15.235q0.1,9.375,10.449,12.5,7.421,2.439,15.625-1.758,7.324-2.833,14.648-4.98a5.251,5.251,0,0,1,5.274,1.464,37.287,37.287,0,0,0,9.766,6.934q8.885,4.3,15.429,2.051,4.3-1.075,6.641-6.055a26.55,26.55,0,0,0,1.465-7.812,170.207,170.207,0,0,1-.977-18.946q-1.856-10.056-7.91-15.722-2.929-2.052-.781-4.3a20.541,20.541,0,0,0,4.394-11.328,26.4,26.4,0,0,0-2.051-15.625q-5.272-10.057-12.89-9.18-4.687,2.05-3.516,6.055,1.074,3.515,1.758,6.933,0.293,3.029-2.148,3.418A46.01,46.01,0,0,0,506,719.543q-3.126,1.27-3.125-1.172a29.786,29.786,0,0,0-2.539-13.379,17.278,17.278,0,0,0-7.422-5.859q-4.005-2.147-9.18-.391-5.372,3.128-.976,7.129h0Zm33.5,32.324q1.074,1.369-1.66,4.395a20.6,20.6,0,0,0-2.637,13.672q0.195,2.93-2.148,3.711a26.65,26.65,0,0,0-3.711,1.074q-3.127,1.075-3.223-1.367-0.489-10.35-.586-20.7a3.105,3.105,0,0,1,2.539-3.125q4.491-1.465,8.985-2.637,3.318-.975,2.343,1.269-0.977,2.442.1,3.711h0Zm4.688,9.668-0.293,7.422q-0.294,3.029-1.856,3.027-1.368,0-2.637-2.343-2.343-7.226.1-11.719,2.733-2.637,4.3.293a9.924,9.924,0,0,1,.391,3.32h0Zm-1.368,28.028v1.562q-0.392,2.929-1.367,3.418-3.42.1-9.961-2.051-2.735-1.172-.39-2.05l6.347-1.856,1.953-.488q3.417-.975,3.418,1.465h0Zm47.364-62.5a38.73,38.73,0,0,1-7.813,3.027q-3.029-.1-3.32,1.758-0.587,3.222,3.222,5.273,6.739,4.1,16.7,2.442a5.122,5.122,0,0,1,4.687,2.343,14.108,14.108,0,0,1,3.125,5.957,11.376,11.376,0,0,1-3.418,1.368,137.917,137.917,0,0,0-15.625,5.957,27.094,27.094,0,0,1-7.812,2.343q-2.541.391-1.953,3.614,1.659,3.126,6.543,5.078a34.561,34.561,0,0,0,14.453.781q3.123-.2,1.172,2.441a113.731,113.731,0,0,1-16.6,17.481A25.841,25.841,0,0,1,555.9,775.6q-2.929,3.222,1.954,9.179,7.617,7.128,15.625,2.149a73.318,73.318,0,0,0,20.214-22.754q1.66-2.832,4.688-.488a165.5,165.5,0,0,1,16.113,15.039q7.911,10.155,14.649,10.547,7.03,0.585,9.082-3.907,3.71-8.2-4.3-15.527-12.4-11.62-30.664-20.02-3.516-1.56-.782-2.148a66.532,66.532,0,0,1,23.047.684,38.016,38.016,0,0,0,8.887.976,3.532,3.532,0,0,0,3.027-2.051q4.59-8.689-6.054-14.257-11.037-5.274-25.1-3.418-3.029.293-3.906-2.051a13.494,13.494,0,0,0-3.223-4.1q-2.734-2.538-.39-3.125a21.978,21.978,0,0,1,3.515-.488,76.76,76.76,0,0,1,28.027,1.074,5.514,5.514,0,0,0,6.641-3.125q2.441-6.834-4-11.328a28.834,28.834,0,0,0-15.625-5.273,63.2,63.2,0,0,0-19.14,1.757,148.176,148.176,0,0,0-31.25,10.45h0Zm112.3-3.223q5.469,3.712,3.614,9.473-2.345,13.867-1.465,39.062a4.691,4.691,0,0,1-2.832,4.492,25.9,25.9,0,0,1-5.86,2.442q-2.051.879-3.222-2.149a20.81,20.81,0,0,1-.586-8.008q2.051-10.643,1.465-16.894-1.077-8.1-6.055-11.133-5.178-2.83-8.789.586a6,6,0,0,0-.391,6.836,11.914,11.914,0,0,1,1.856,3.906,159.071,159.071,0,0,0-.977,26.66q0.1,9.766,8.887,14.454,13.476,6.346,23.926-.586,3.9-2.149,7.812-4,2.929-1.27,5.859,1.074,14.452,10.546,27.051,8.3a10.274,10.274,0,0,0,7.129-5.371,22.991,22.991,0,0,0,1.758-7.813q-0.978-17.967-.781-26.465a31.5,31.5,0,0,0-2.149-16.992q-4.1-10.058-12.89-11.914-8.107-.683-12.7,9.57-2.247,5.958-.1,17.871,0.389,3.127-1.758,4.3a32.994,32.994,0,0,0-4.3,2.149q-3.029,1.464-3.125-1.563,0-8.788.488-18.359a38.274,38.274,0,0,0-1.465-16.895q-4.3-9.764-13.281-11.718-4.785-.294-7.129,1.855-3.321,3.614,0,6.836h0Zm41.8,12.6,0.1,7.324-0.391,10.644q-0.2,3.223-2.441,3.418a2.866,2.866,0,0,1-3.613-1.66A23.749,23.749,0,0,1,714,725.4q1.464-4.49,4.883-4.2a2.26,2.26,0,0,1,2.148,1.563h0Zm-0.781,49.707q-0.783,2.93-3.125,3.125-5.859-.978-11.426-2.442-2.637-.78.2-2.148a97.34,97.34,0,0,1,9.668-4.395q5.662-3.515,4.688.782v5.078ZM857.266,699.23a2.225,2.225,0,0,0,.293,1.661q0.389,3.126-3.125,2.734-6.739.391-17.676,1.953-3.029.1-3.613-1.562a10.356,10.356,0,0,0-2.735-3.028q-6.837-4.1-11.23-1.074-0.587.879,1.367,4.3a2.7,2.7,0,0,1-.488,3.516,19.374,19.374,0,0,1-9.766,2.343q-1.662-1.268-2.441.684a2.981,2.981,0,0,0,1.171,3.418q4.491,3.321,7.813,3.906a3.923,3.923,0,0,1,3.418,2.442,28.931,28.931,0,0,0,2.148,3.906q2.44,3.029,2.246,3.515a54.368,54.368,0,0,1-14.062,5.469,3.043,3.043,0,0,0-2.246,1.172q-0.783,8.692,4.3,11.23,1.758,0.587,1.66,1.368a3.223,3.223,0,0,0,1.172,2.734q1.171,1.955.488,5.469a80.48,80.48,0,0,1-4.395,15.625q-3.614,5.076,4.981,9.863,3.025,0.879,3.223,3.32a20.235,20.235,0,0,0,1.562,5.274q3.417,5.859,8.887,5.078a8.048,8.048,0,0,1,3.906-.391,47.22,47.22,0,0,0,12.109-.39q10.548-1.758,15.625-2.246a42.252,42.252,0,0,1,19.629,2.343,5.039,5.039,0,0,0,5.762-1.66,3.923,3.923,0,0,0,.879-3.906,6.811,6.811,0,0,1,.2-3.906q1.66-5.47.684-7.813a18.962,18.962,0,0,0-14.746-9.277A38.353,38.353,0,0,0,864.1,767a132.744,132.744,0,0,0-31.348,6.934q-2.929.78-3.711-1.563-1.27-2.44,1.269-2.441a27.894,27.894,0,0,0,7.715-1.465,146.6,146.6,0,0,1,31.641-4.785,14.216,14.216,0,0,1,4.59.878q9.276,2.249,10.742-5.664a35.6,35.6,0,0,0,.586-12.988q-1.075-2.245,1.269-2.246,5.86-.389,5.86-6.152a8.5,8.5,0,0,0-2.735-5.762q-7.814-4.784-22.949-8.691-0.1-.39,2.637-3.321a7.778,7.778,0,0,0,1.172-1.953q2.05-3.612,6.543-2.539,3.9,0.684,7.812,1.66,3.711,1.271,5.469-2.148,2.929-7.617-6.641-11.231a36.336,36.336,0,0,0-7.812-1.269q-1.955.292-3.906-1.758-3.615-4.687-11.426-4.2a4.2,4.2,0,0,0-3.613,2.929h0Zm-4.3,19.922q-1.076,1.466-2.344-1.269-1.662-2.441.293-2.637a3.527,3.527,0,0,1,2.637.586q0.879,1.27-.586,3.32h0Zm-12.989-2.441a1.621,1.621,0,0,1-.39,1.562,11.472,11.472,0,0,1-2.246,2.051q-1.271.879-1.66-1.074-0.879-2.637,2.636-2.832a3.1,3.1,0,0,1,1.66.293h0Zm22.364,17.09q3.025,1.856,2.344,2.344a56.673,56.673,0,0,0-10.254,1.367q-2.541.684-4.883-1.66a15.367,15.367,0,0,0-4.785-2.247q-2.345-.585-2.149-0.976,3.612-3.026,5.274-2.441a77.174,77.174,0,0,1,14.453,3.613h0Zm-27.051,7.91a1.6,1.6,0,0,1,.488,1.172,11.1,11.1,0,0,1-2.832,1.465l-1.562.683q-3.028,1.172-4.981.1-1.758-.975.586-2.051l3.906-2.246q3.027-1.953,3.516-.684a6.261,6.261,0,0,0,.879,1.563h0Zm34.277,5.957q-0.1.978-.879,0.684a8.018,8.018,0,0,0-3.515,0q-19.826,3.321-30.567,7.519-2.442.978-2.343-1.465a2.712,2.712,0,0,1,2.539-2.832,72.509,72.509,0,0,0,11.035-2.929,66.279,66.279,0,0,1,19.238-4.395q4.784-1.268,4.492,3.418h0Zm-0.586,7.617a2.5,2.5,0,0,1-2.636,2.442,184.008,184.008,0,0,0-33.4,6.543q-3.321,1.172-2.637-1.075a3.97,3.97,0,0,1,3.223-2.539,216.236,216.236,0,0,1,30.078-7.324l1.953-.293q3.418-.1,3.418,2.246h0Zm2.051,23.535a3.3,3.3,0,0,1-3.613,2.93q-14.355-.49-33.008,4.492-3.222,0-3.809-.683-2.539-5.178,1.661-4.493a65.337,65.337,0,0,0,11.523-1.757q14.55-5.178,26.465-4.786,2.343,1.366.781,4.3h0ZM956,702.844q0.587,3.126-3.027,2.734-8.79.879-17.578,2.442-2.637.977-3.711-1.075a10.616,10.616,0,0,0-2.637-3.711q-7.716-4.687-12.207-1.953a2.439,2.439,0,0,0-1.074,1.856l1.465,3.418q1.172,2.54.39,3.906-1.27,2.149-5.664,2.441a8.509,8.509,0,0,1-5.078.391q-1.466-.488-1.953,0a3.561,3.561,0,0,0-.684,3.125,17.047,17.047,0,0,0,8.985,5.957q3.026,0,5.371,5.078,1.758,3.224-.782,2.735a9.308,9.308,0,0,0-5.371,1.074q-3.906,2.54-2.246,5.468a11.175,11.175,0,0,0,5.176,4.688l3.906,1.367q3.319,1.076,2.344,3.418a4.731,4.731,0,0,1-3.809.781,29.432,29.432,0,0,0-10.253,1.954q-3.713,2.247-3.028,5.371a8.287,8.287,0,0,0,3.028,5.761q4.98,1.857,3.418,4.59-8.008,7.716-2.247,15.528,6.836,8.885,15.332,9.57,8.985,0.1,7.422-9.863a178.877,178.877,0,0,1-.39-18.555q0.292-3.223,2.246-1.367a11.7,11.7,0,0,0,7.031,2.05q2.345,0,2.149,2.539l-0.782,5.567a49.193,49.193,0,0,0-.683,8.105q-0.1,7.714,8.5,9.571a70.915,70.915,0,0,0,17.676-1.465q12.106-2.051,18.066.293,5.175,3.025,6.543-2.149,0.683-9.572-8.3-14.062-8.6-2.929-23.437,3.516a12.959,12.959,0,0,1-4.493,1.367q-1.757-.685-1.464-4.883a26.013,26.013,0,0,0-.293-8.984q-0.879-2.931,1.66-3.711,7.031-1.758,12.988-2.637,10.254-1.465,16.992,1.074,1.561,1.172,4.395.1,6.247-6.249-.684-12.891a14.506,14.506,0,0,0-7.812-3.516,35.84,35.84,0,0,0-9.864-.488,3.827,3.827,0,0,1-3.808-2.148,16.844,16.844,0,0,0-2.93-3.321q-3.42-1.854-1.074-4a46.277,46.277,0,0,0,5.469-4.883,4.929,4.929,0,0,0,.683-1.27,13.38,13.38,0,0,1,1.758-3.125q1.367-1.072,4.688-.976,3.9,0.585,7.812,1.464,5.076,1.956,7.129-2.734,3.026-7.421-6.445-12.012a30.319,30.319,0,0,0-7.325-1.757,7.945,7.945,0,0,1-5.078-1.856,13.6,13.6,0,0,0-9.668-4.883,7.511,7.511,0,0,0-6.25,1.758,2.853,2.853,0,0,0-.488,3.223h0ZM952.48,720.91a15.314,15.314,0,0,1-3.418,6.055q-2.442,2.834-1.953,3.613a1.315,1.315,0,0,1,.391,1.074q-5.567,4.395,1.074,9.961,3.125,2.833,2.93,3.223a75.519,75.519,0,0,0-17.285,9.668q-2.637.976-2.637-2.051l0.2-1.562q0.195-2.345,1.172-2.832a3.265,3.265,0,0,0,1.27-.684q4.588-6.153-5.176-12.6-2.734-2.147.391-3.222,5.76-2.05,4.98-6.055-1.27-3.319,1.465-4.2,7.324-.683,12.6-1.465,3.71-.879,4,1.074h0ZM930.7,751.281a29.785,29.785,0,0,0-1.074,6.153q-0.391.293-3.32-2.149a33.816,33.816,0,0,0-3.907-1.66q-3.613-.586-2.539-3.027a4.77,4.77,0,0,1,3.418-.977l3.907-.391,1.171-.1q3.027-.39,2.344,2.148h0ZM928.457,767.3a38.514,38.514,0,0,1-1.172,5.273q-0.684,4.783-4.394,3.711-6.057-1.171-7.813-4.98-0.783-2.147,1.66-3.516,3.516-.879,6.934-1.465l1.953-.488q3.417-1.171,2.832,1.465h0Zm92.093-62.207a32.908,32.908,0,0,1-10.26.976q-2.535.49-1.95,2.246,0.39,3.223,4.3,4.59,7.9,3.321,18.94.489,2.94-.781,3.91.683c0.45,0.977-.1,1.628-1.66,1.953l-14.65,3.223a5.68,5.68,0,0,1-5.18-1.562q-2.145-1.758-3.12-1.563-4.59-.195-3.32,3.516,2.535,2.442,2.34,3.711a64.085,64.085,0,0,1-2.44,15.625q-0.585,6.543,5.47,7.714c1.89,0.2,3.12-.879,3.71-3.222a13.856,13.856,0,0,1,.78-3.418c0.26-.13.85,0.326,1.76,1.367q8.1,6.446,15.92-1.172,3.12-2.343,3.22.879l0.2,1.27q0.48,2.148-2.25,2.636-15.525,4.1-22.46,4-5.475.392-1.95,4.688a14.5,14.5,0,0,0,6.73,3.32,36.094,36.094,0,0,0,17.09-1.074q21.495-6.446,39.85-3.809,8.49,2.637,12.3.684,3.12-5.762-1.85-8.789-4.11-1.758-11.72-2.344-3.03,0-1.86-3.32,2.445-5.274-4.1-7.715c-1.69-.455-2.67-0.943-2.93-1.465a2.422,2.422,0,0,1,2.44-2.246q5.865-1.659,4.4-5.567c-0.46-.976-0.39-1.562.19-1.757a2.036,2.036,0,0,1,2.44,1.171,17.39,17.39,0,0,1,.59,8.4q-2.34,9.375,7.13,11.719,5.955,0.684,6.93-6.348,1.95-8.788-1.17-15.625-1.365-3.222-6.93-5.957-7.92-3.319-25.59-.684-2.055.2-3.81-2.05-1.56-1.66,1.27-2.246,14.85-2.637,26.95.2,6.36,1.368,8.5-.391,2.34-4.3-.29-7.324-2.94-2.637-9.77-3.32-11.13-1.269-26.85,1.074a277.525,277.525,0,0,0-31.25,6.836h0Zm41.7,15.918c-0.53,1.953-2.05,3.418-4.59,4.394q-2.55,1.564-2.74-.976c-0.19-1.758.39-2.864,1.76-3.321l1.17-.2,1.27-.195c1.95-.13,2.99-0.032,3.13.293h0Zm-23.93,8.5q-8.205,9.18-13.28,11.035-3.615-.975-2.83-3.516,1.755-4.3,8.98-4.687,5.085-.78,2.74-3.906-2.445-2.148-.2-3.028l1.27-.293q5.76-2.538,4.2,1.27c0.06,1.562-.23,2.605-0.88,3.125h0Zm-16.31,2.93c0.33,1.042-.13,1.855-1.37,2.441q-3.12,2.833-3.12.2v-6.25c0.19-1.953.98-2.8,2.34-2.539,1.43,0.391,2.02,1.172,1.76,2.344a13.222,13.222,0,0,0,.39,3.809h0Zm40.24,6.054q2.145,3.127-.39,3.125a14.46,14.46,0,0,0-3.42.2q-2.94.2-2.74-2.735a58.913,58.913,0,0,0-.09-5.957q0.09-2.538,3.02.586a55.7,55.7,0,0,1,3.62,4.785h0Zm-29.89,21.778q-14.835,3.906-24.51,3.613a1.977,1.977,0,0,0-.97,2.441,6.02,6.02,0,0,0,3.32,4.3q3.12,1.37.68,3.809-5.865,7.03.39,12.109,6.45,4.59,15.72,4.1,16.8-1.662,38.67-7.91a4.489,4.489,0,0,1,5.18,1.855q8.4,10.155,15.23,3.906,6.165-7.814-6.34-17.187a5.428,5.428,0,0,1-1.18-1.563c-0.19-.586.59-0.813,2.35-0.683,4.16,0.912,7.03.781,8.59-.391q3.42-7.128-3.61-9.863-12.3-4-30.08-2.051-11.52,1.171-23.44,3.516h0Zm27.93,9.375q2.055,2.442-.39,3.125-13.38,3.123-30.95,7.91-4.305,1.366-6.16-1.563a1.7,1.7,0,0,1,.49-1.953l10.94-5.664a129.181,129.181,0,0,1,21.09-4.1A5.726,5.726,0,0,1,1060.29,769.641Zm82.42-70.215a3.642,3.642,0,0,0,.49,4.3q2.055,2.051-.09,3.418-6.945,4.492-8.4,8.593-2.55,9.474,7.03,12.793,2.145,1.077-.59,2.442a27.836,27.836,0,0,0-5.76,3.515q-4.29,4.1-.68,7.813,2.04,2.247,4.1,4.1,0.78,2.052-1.08,8.008-0.975,3.128-3.41,3.125a21.789,21.789,0,0,0-3.52.489c-2.08.585-3.16-.13-3.22-2.149q-0.105-3.222.1-6.445l0.39-3.906a7.107,7.107,0,0,0,.58-6.836,6.069,6.069,0,0,1-.68-3.321q-0.2-5.273-.1-10.254a6.7,6.7,0,0,1,1.86-4.394,9.306,9.306,0,0,0,1.07-7.617q-4-10.057-12.3-12.989-8.2-2.051-10.55,7.715,0.09,3.223,4.98,7.715,6.735,3.808.59,6.445-12.4,7.911-8.31,17.481a13.174,13.174,0,0,0,6.16,5.859c2.28,0.717,2.76,1.987,1.46,3.809q-11.43,13.476-4.1,27.344,6.54,10.643,15.43,10.839,7.035-.684,6.25-6.738a64.111,64.111,0,0,0-1.56-12.207q-0.3-2.929,2.63-2.441a3.629,3.629,0,0,1,3.42,2.734,20.321,20.321,0,0,0,3.62,9.668,7.8,7.8,0,0,0,6.54,2.637c2.28-.522,4.52-0.945,6.74-1.27q2.34-.292,4.98,1.953a31.711,31.711,0,0,0,7.81,4.786q9.18,4.2,14.84,2.148a9.044,9.044,0,0,0,5.47-8.008c0.2-1.433.98-1.987,2.35-1.66q2.43,0.488,4.49-2.051,3.42-4.687-2.54-8.5c-2.09-.716-3.06-2.017-2.93-3.906,0.19-1.953,1.14-2.962,2.83-3.027a5.053,5.053,0,0,0,5.08-4q0.78-4.687-3.91-6.934c-2.02-.716-3.02-1.888-3.02-3.516a14.525,14.525,0,0,0-4.98-11.523q-6.645-5.762-15.63-3.613a49.415,49.415,0,0,0-15.62,7.422q-3.135,3.321-5.86,2.05a2.019,2.019,0,0,0-2.45-.1,1.131,1.131,0,0,1-.78-1.661c0.07-.325,1.04-1.138,2.93-2.441a98.452,98.452,0,0,1,39.07-11.914,7.853,7.853,0,0,0,5.46-3.809q2.55-5.272.4-9.765-9.285-15.137-22.08-7.617a95.135,95.135,0,0,0-18.45,15.332,7.2,7.2,0,0,1-4.01,2.05q-4.395-1.464-.97-5.664a16.49,16.49,0,0,1,5.66-4.687l7.81-2.539a6.463,6.463,0,0,0,2.74-2.246q1.365-6.054-6.15-8.985a16.36,16.36,0,0,0-7.91-.39,3.955,3.955,0,0,0-3.72,2.539h0Zm35.84,16.5-7.81,3.32q-1.95.978-1.95-.293a26.727,26.727,0,0,1,4-5.469q4.5-6.248,8.69-.781,0.3,2.345-2.93,3.223h0Zm-52.53,10.254q-0.4,3.222-.49,6.347-0.1,2.442-2.83.684a19.261,19.261,0,0,0-2.74-1.465q-2.925-1.466-3.03-2.539,0.885-2.147,4.5-3.516l1.66-.781q3.12-1.171,2.93,1.27h0Zm45.6,22.851-1.85.293q-2.64.49-2.64-1.855a10.366,10.366,0,0,0-.29-3.125,3.081,3.081,0,0,1,1.27-3.907q6.93-2.538,6.05,5.176c-0.13,1.953-.98,3.093-2.54,3.418h0Zm-47.46,12.988q0.195,5.373-3.91,3.028a5.706,5.706,0,0,1-2.54-5.664,15.409,15.409,0,0,1,3.81-6.641q3.03-2.83,2.84-.1-0.3,4.688-.2,9.375h0Zm31.25-10.546q0,2.734-3.03,2.832l-2.54.781q-2.925.879-2.83-1.758c0.33-1.822,1.27-2.8,2.83-2.93a19.184,19.184,0,0,1,3.32-.293c1.57-.064,2.31.391,2.25,1.368h0Zm16.89,12.011c-0.32,2.019-1.26,3.028-2.83,3.028h-1.27c-2.02.2-3.02-.618-3.02-2.442a3.207,3.207,0,0,1,2.53-3.222l1.67-.293c2.01-.064,2.99.912,2.92,2.929h0Zm-19.23,3.321a3.771,3.771,0,0,1-3.23,3.125,11.781,11.781,0,0,1-3.8-.293,3.283,3.283,0,0,1-1.37-2.246c0-.782.88-1.4,2.63-1.856l1.86-.488,1.07-.293c2.22-.455,3.16.229,2.84,2.051h0Zm16.6,12.793q-0.3,3.318-4.49,1.953a15.115,15.115,0,0,1-5.67-2.149c-0.32-.39.42-0.815,2.25-1.269l5.47-.586c1.95-.066,2.76.618,2.44,2.051h0Zm92.19-78.321q-3.03,1.857-5.18-.39-4.4-3.612-7.23-1.27a3.283,3.283,0,0,0-.29,4.3,7.8,7.8,0,0,1,1.86,3.516q-0.6,14.746-.4,24.121-0.285,5.079,4.99,7.031a34.73,34.73,0,0,0,18.45-.293q3.03-.2,3.13,2.832,0.48,19.629-.59,28.32c-0.72,1.953-1.27,3.028-1.66,3.223a10.384,10.384,0,0,1-3.61-.293q-3.135-.975-3.22-3.32l-0.69-12.891q0.39-10.643-13.67-14.941a20.272,20.272,0,0,1-3.91-.586q-4.98-.682-11.42,4.492-2.94,3.126-4.98,1.074-4.005-3.709-7.23-.781a3.192,3.192,0,0,0,.29,3.516c1.04,2.018,1.34,4.98.88,8.886a46.605,46.605,0,0,0-1.07,7.813q-0.78,9.668,2.83,15.136,8.295,6.541,14.36,4.59,9.855-1.758,13.57,0,6.255,2.637,10.55-2.539,1.755-2.834,4.1-.683,5.76,6.248,11.62,5.468a6.855,6.855,0,0,0,5.37-3.711,20.2,20.2,0,0,0,1.86-7.812q-0.3-29,.09-58.008a21.307,21.307,0,0,0-.87-7.226,15.561,15.561,0,0,0-6.84-11.133q-3.915-2.148-14.06-1.074a29.278,29.278,0,0,0-7.03,2.636h0Zm-44.54,4q-2.925.684-4.49-.781-3.7-3.319-8.59-.391-2.25,3.127.29,6.641a6.888,6.888,0,0,1,2.74,3.808,99.91,99.91,0,0,1-.3,22.852q-0.78,15.92-1.95,31.836a49.927,49.927,0,0,0-.59,7.812q0.585,9.179,5.96,11.817,5.565,0.975,7.23-4.59l0.19-41.992q0-2.344,3.42-1.758c3.38,0.781,5.99.652,7.81-.391a23.354,23.354,0,0,1,8.79-1.074q7.515-1.758,5.67-8.594-0.3-8.4.09-16.5,1.77-9.57-8.2-13.282a14.533,14.533,0,0,0-10.45.391q-3.81,1.955-7.62,4.2h0Zm57.72,9.375a36.824,36.824,0,0,0-12.21,1.856q-2.925,1.076-2.63-1.27a4.825,4.825,0,0,0,.19-1.855c0.06-1.368,1.01-2.149,2.83-2.344a19.332,19.332,0,0,0,5.76-1.953q7.23-4.59,8.31,2.539c0.12,2.019-.62,3.027-2.25,3.027h0Zm-41.7-1.172c-0.13,1.953-.98,3.061-2.54,3.321a40.778,40.778,0,0,0-8.98,1.562c-2.09.652-3.16,0.131-3.23-1.562-0.19-1.693.52-2.6,2.15-2.735a13.794,13.794,0,0,0,5.28-2.246q3.99-2.343,5.66-1.953a2.555,2.555,0,0,1,1.66,3.613h0Zm41.31,15.43a88.413,88.413,0,0,0-11.23.977q-4.005,1.66-4.79-2.54,0-2.929,2.64-2.441a18.171,18.171,0,0,0,5.66-.684q3.525-.78,7.03-1.269,3.225-.293,3.13,2.734c0,2.149-.81,3.223-2.44,3.223h0Zm-42.19-1.367q0,2.343-.39,2.637a67.085,67.085,0,0,1-10.94,2.343c-2.02.261-2.99-.488-2.93-2.246a2.956,2.956,0,0,1,2.64-2.832l6.45-1.758,1.95-.39c2.21-.2,3.29.554,3.22,2.246h0Zm22.85,22.461a17.065,17.065,0,0,1,.1,4.1q-0.3,3.028-2.73,2.832a31.007,31.007,0,0,0-12.21,4.2q-3.135,1.855-3.13-.489l0.1-1.953c-0.06-1.953.68-3.189,2.25-3.711a36.878,36.878,0,0,0,7.42-3.515c2.73-2.018,4.69-2.994,5.86-2.93a2.936,2.936,0,0,1,2.34,1.465h0Zm-1.17,19.433a2.727,2.727,0,0,1-2.44,2.93,35.688,35.688,0,0,0-10.25,3.516q-5.085,3.123-4.59-3.125-0.1-3.027,2.34-3.125a43.375,43.375,0,0,0,11.03-2.832l1.27-.2q2.835-.1,2.64,2.832h0ZM278.164,879.211q-3.029,1.368-5.176-1.465-5.272-4.98-10.84-2.051-2.93,3.029.782,5.762a4.053,4.053,0,0,1,1.758,3.809,206.447,206.447,0,0,0-2.54,37.793q0,2.051-2.734,2.636a56.966,56.966,0,0,1-8.3.782q-1.662.878-1.367,1.464,1.074,5.373,6.152,6.153,5.861,0.879,4.3,5.664a45.61,45.61,0,0,0-.488,17.969q2.245,7.323,9.668,7.324Q288.9,967,298.281,950.305q1.269-2.345,3.907-.2a99.385,99.385,0,0,0,13.671,9.766q9.375,5.762,15.625,4.883,5.762-.978,6.934-7.422,0.879-6.545-7.617-9.082a56.15,56.15,0,0,1-6.641-2.637q-3.321-1.366-.586-2.441l5.664-2.246q6.541-2.832,5.371-9.473-0.781-3.025.391-3.027a3.475,3.475,0,0,0,3.027-3.711,5.522,5.522,0,0,0-1.367-4.883q-3.809-2.733-10.742-3.418-21.484-1.758-46,4.3-2.93.684-3.223,0.1l-0.1-2.148q0-1.659,3.32-2.344,30.077-6.542,47.754-3.613,4.1-.389,3.515-4.2a4.912,4.912,0,0,0-2.343-3.711,17.013,17.013,0,0,0-7.813-2.246q-19.727-1.074-41.406,6.152-3.126.978-3.125-1.855,0.1-2.44,2.832-2.735,24.609-7.031,45.7-5.468,6.249,1.955,5.566-5.372-0.39-.78.879-2.929,3.418-8.984-6.445-14.844-10.547-4.3-23.437-2.344a129.9,129.9,0,0,0-23.438,6.055h0Zm41.5,3.516q0,0.489-2.246,2.441A36.167,36.167,0,0,1,310,888.586a122.416,122.416,0,0,0-30.566,7.324q-2.541.879-2.149-2.051a2.983,2.983,0,0,1,2.735-2.832q9.471-1.367,24.023-7.324a39.723,39.723,0,0,1,12.6-2.637q2.83,0.391,3.027,1.661h0ZM318.3,927.551q1.268,2.442-.489,3.808l-6.64,3.028a5.063,5.063,0,0,1-5.274-.879l-3.71-3.223q-2.052-2.637.292-3.027a95.88,95.88,0,0,1,12.305-.684q2.929,0.1,3.516.977h0ZM288.223,933.7l1.757,3.223q1.758,2.541-.976,2.636a71.988,71.988,0,0,1-8.4.1q-3.027.49,0.293,2.637a58.583,58.583,0,0,0,8.5,2.832q3.417,0.783.976,1.855l-8.984,3.321q-4.982,1.659-6.836-2.93v-3.027q0.975-4.981,0-7.129-1.171-3.125,1.269-3.907,5.37-1.659,10.742-2.929a13.587,13.587,0,0,1,1.661,3.32h0Zm85.058-45.41q-3.126.684-3.515-1.66-0.49-4.491-6.055-8.2-5.178-2.637-5.664,2.246a3.112,3.112,0,0,0,1.172,2.246,4.286,4.286,0,0,1,1.074,2.246,195.622,195.622,0,0,1-1.953,31.543Q357.07,938,355.508,947.18a22.877,22.877,0,0,0,.488,6.933,10.158,10.158,0,0,0,5.957,6.739q6.446,1.854,6.738-5.176a5.574,5.574,0,0,1,.586-3.614q0.39-.293,1.758,2.247,4.688,8.789,11.817,8.2,9.276-1.955,18.652-10.157,2.929-2.539,3.32-2.246a32.9,32.9,0,0,0,.879,4.395A5.632,5.632,0,0,0,411.172,959q5.566-1.076,4.883-6.055-0.1-2.735,1.465.391,6.932,9.764,16.6,9.766a6.384,6.384,0,0,0,3.125-1.368,15.807,15.807,0,0,0,4.688-14.453q-1.37-12.89-10.157-31.25-1.563-2.147-.781-5.859,0.683-8.1.586-18.457-1.075-11.913-14.551-16.406-12.793-3.516-28.711,5.859a89.045,89.045,0,0,1-15.039,7.129h0Zm43.457,26.758a10.664,10.664,0,0,1-1.074,3.32q-0.391,0-1.172-1.367a9.2,9.2,0,0,0-2.148-2.93q-7.424-5.175-13.672-2.441-2.541,1.075-3.223-.879-1.075-2.051,1.367-3.223a49.929,49.929,0,0,1,11.622-3.808q7.127-1.561,4.1-6.543a13.234,13.234,0,0,0-6.934-3.711q-2.93-.975-2.832-1.465a9.705,9.705,0,0,1,2.247-1.465,33.509,33.509,0,0,1,3.906-1.66q6.248-3.516,8.984.879a179.135,179.135,0,0,1-1.172,25.293h0ZM392.422,896.5q-0.1,2.929-4.883,4.785-7.228,3.42-14.453,6.446-3.126,1.368-3.027-1.075l0.195-5.761q0.1-2.929,2.734-2.442a43.115,43.115,0,0,0,17.676-2.246q1.854-.879,1.758.293h0Zm-7.617,19.531q0.975,2.541-3.809,4-3.126,1.563-4.3,0-3.029-3.222-6.445-1.66-1.076,1.172-1.074-1.465v-1.074q0.585-3.318,2.929-2.441a17.393,17.393,0,0,0,10.059.879q2.637-.586,2.637,1.757h0Zm17.285,3.028a33.961,33.961,0,0,1-1.856,5.273q-1.464,3.029-2.832,3.418-1.464.2-1.464-2.246l0.292-3.32q0.39-3.223,2.344-4.395a10.539,10.539,0,0,1,3.028-1.074q0.681,0,.488,2.344h0Zm31.933,22.363q0.39,2.929-1.074,4-2.735.684-4.2-3.223-1.368-8.691,1.172-21.679,1.074-2.539,2.148.878a161.813,161.813,0,0,1,1.953,20.02h0Zm-62.011-16.6a28.528,28.528,0,0,0,.1,4.1q0.781,6.056,4.786,8.3a2.957,2.957,0,0,0,2.929.195,5.812,5.812,0,0,1,2.735-.391q1.757,0,1.66,2.051-0.2,2.051-2.539,2.051-6.349-.293-9.961,1.758-3.029,2.735-3.223-.488-0.2-12.5.391-19.532,0.194-2.93.586-3.125l1.66,1.66q1.073,0.879.879,3.418h0Zm43.359,0.2q-0.489,2.93-1.953,2.441-1.37-.586-0.684-2.93a15.783,15.783,0,0,1,1.075-2.734q1.464-2.538,1.757-1.66a14.335,14.335,0,0,1-.195,4.883h0Zm-30.566,2.343v0.879q-0.1,2.931-1.856,3.711-4.3,1.857-4.59-3.222-0.2-2.832,2.246-2.93l1.172-.1q3.32-.78,3.028,1.66h0Zm29.687,9.375v3.516a8.861,8.861,0,0,1-.195,3.223q-0.392.585-1.953-2.149a29.678,29.678,0,0,0-2.735-4.59q-4.687-4.881,1.953-2.636,3.027,0.2,2.93,2.636h0Zm-13.086,1.856q0.781,2.343-2.441,3.711-3.127,1.955-3.223-1.27v-3.418q-1.368-4,3.223-3.613a15.826,15.826,0,0,1,2.441,4.59h0ZM383.73,948.645a4.116,4.116,0,0,1-2.343,4q-5.178,1.366-7.617-3.515a2.416,2.416,0,0,1,1.074-2.246,12.273,12.273,0,0,1,5.957-1.367,2.677,2.677,0,0,1,2.929,3.125h0Zm101.954-74.122q-1.758,3.42,2.832,6.153a8.715,8.715,0,0,1,.683,3.515q-0.489,9.279-.293,18.067,0.294,3.516-1.269,3.515a27.376,27.376,0,0,0-6.543-8.007q-2.736-2.148.1-4.59,5.175-4.4,6.055-7.617-0.783-4.784-7.031-9.082-6.349-4.2-10.742.2-2.052,2.929-2.93,3.223a7.792,7.792,0,0,1-2.93-1.563,5.16,5.16,0,0,0-4.687-.586q-3.712,2.442-.781,5.371,2.147,2.442-1.075,5.371-6.055,6.544-.293,10.352,2.93,0.976.782,3.222-5.373,5.47-2.832,9.376,12.107,13.573,21.093,1.074,2.44-2.637,3.711-1.074,4.3,4.1,7.813-.293,1.268-1.366,1.367,1.367,0.683,2.343-2.051,2.832A224.229,224.229,0,0,0,460,922.668a20.068,20.068,0,0,1-4.395.1q-4,3.321.2,7.031a3.713,3.713,0,0,0,2.344,1.367q2.343,1.075,2.539,1.66,0.1,6.153-5.274,14.258a11.77,11.77,0,0,0-.586,11.719q2.733,4.688,7.129,4.687,4.883-.489,6.738-7.617,1.173-2.734,2.051-.391,4.2,9.669,13.965,11.231,9.57,0.292,22.754-8.008,3.025-2.149,5.273-.293,12.108,8.4,24.61,4.785,3.808-1.076,4.492-4.394a18.639,18.639,0,0,0-1.758-7.813q-2.247-5.859-7.129-15.625a3.128,3.128,0,0,1-.488-1.953,11.506,11.506,0,0,0,.293-3.222q-0.293-2.931,2.344-2.637,4.98-.488,4.882-4.883a5,5,0,0,1,.782-3.125q3.026-5.663-.1-9.668a2.378,2.378,0,0,1-.293-2.93,10.211,10.211,0,0,0,.684-1.953,22.524,22.524,0,0,0-6.446-12.012q-2.051-1.852.391-4.1,4-3.319.586-7.813-4.1-5.369-7.324-6.347-4.591-1.661-7.617,1.758-2.052,4.492-5.567.878a7.031,7.031,0,0,0-4.2-1.171q-4.687,2.148-1.563,5.566,2.246,2.541-1.269,4.785a38.423,38.423,0,0,0-2.735,3.223q-4,3.418.586,7.226,2.931,1.565,2.051,2.051a18.847,18.847,0,0,0-4.1,4.981q-0.685.392-1.27-2.246Q501.993,896.6,501.9,888q-0.391-3.9-.489-7.812,0.39-3.125-2.734-5.86-4.687-3.612-9.668-2.051a5.174,5.174,0,0,0-3.32,2.246h0Zm44.14,7.52q-0.1.879-2.051,2.148l-3.906,2.735q-1.464,1.563-2.051.1a29.126,29.126,0,0,1,2.93-5.273,4.868,4.868,0,0,1,3.027-1.27,1.667,1.667,0,0,1,2.051,1.563h0Zm-52.246,3.32a44.835,44.835,0,0,0-5.176,4.1q-2.539,1.758-2.832,1.074a16.111,16.111,0,0,1,1.758-3.613l1.856-3.906a3.343,3.343,0,0,1,3.222-2.442,4,4,0,0,1,2.832,1.27q1.074,1.368-1.66,3.515h0Zm48.242,14.551a39.436,39.436,0,0,1-3.711,3.125,19.094,19.094,0,0,1-3.906,2.93q-4.785,2.05-6.348-.1-0.976-1.171,1.465-2.93a86.54,86.54,0,0,0,9.668-5.273q3.612-3.516,4.492-.781,0.682,0.977-1.66,3.027h0ZM472.207,904.8q-5.178,6.446-9.473,5.566-2.05-1.268-1.66-2.539,4.783-3.318,9.473-6.25,2.05-1.56,3.125-.195,0.78,1.076-1.465,3.418h0Zm59.375,5.762a4.465,4.465,0,0,1-4,2.148l-1.269-.2q-3.321,0-.782-2.246a24.038,24.038,0,0,0,3.809-3.907q1.366-2.051,2.539.2,1.268,1.563-.293,4h0Zm-25.391-1.368q3.125,3.224-.293,3.223-3.027.293-3.027-2.441l0.1-3.223q0.879-1.171,1.855.488a4.469,4.469,0,0,0,1.367,1.953h0Zm15.918,17.871q-0.684,2.541-6.445,5.958-2.833,1.955-4.394-1.075a18.536,18.536,0,0,1-1.465-2.734q-1.563-3.124.976-3.125,4.4-.293,8.692-0.2,2.733,0.1,2.636,1.171h0Zm-29,3.126a17.857,17.857,0,0,1,2.735,3.906,47.5,47.5,0,0,0,3.418,7.129q1.659,3.027-.586,4.492l-4.4,2.441q-2.636,1.562-1.562-1.172,1.268-4-.586-6.054a26.769,26.769,0,0,0-16.113-4.59q-3.224.2-3.516-2.442-1.075-2.636,1.465-3.222,8.691-1.758,13.379-2.442a7.366,7.366,0,0,1,5.761,1.954h0Zm37.207,17.968q-2.343,1.269-5.761-.586-1.37-.975,1.269-3.125a21.964,21.964,0,0,0,3.614-3.906q2.051-3.025,2.05-.195,0.2,5.079-1.172,7.812h0Zm-43.066,2.051q0,0.488-2.344,1.563-7.323,1.852-12.3-2.54-0.49-.78-1.66.293-0.783.781-.391-2.734a2.866,2.866,0,0,1,3.515-2.246,67.369,67.369,0,0,1,10.645,4.395,10.846,10.846,0,0,1,2.539,1.269h0Zm117.481-71.875a1.947,1.947,0,0,1,.585,1.367q-10.547,1.563-19.042,3.223a4.153,4.153,0,0,1-4.493-1.856q-5.177-7.226-11.035-3.418-2.05,2.052-.879,4.2,4.784,5.273-.879,5.468a26.521,26.521,0,0,1-9.863,1.758,5.942,5.942,0,0,0-4.2-.39,1.683,1.683,0,0,0-.781,1.953q0.879,3.222,5.761,6.543a13.271,13.271,0,0,0,7.618,1.855q3.123-.389,3.32.488a9.329,9.329,0,0,0,1.074,2.247q0.975,1.368-1.465,2.05a5.281,5.281,0,0,1-4.394-.976,7.768,7.768,0,0,0-5.957-.391q-2.929,1.27-2.246,4.2,1.464,2.052,1.367,3.028-0.49,6.152-.586,12.3,0.585,7.032,6.64,9.864,4.3,1.172,14.161-1.075,3.123-.488,3.125.879,0,1.077-2.539,1.66-6.349,1.37-12.7,3.126a4.26,4.26,0,0,1-4.98-1.465q-5.371-4.981-9.082-3.321-4.494,1.077-3.125,5.371a4.44,4.44,0,0,0,2.441,2.442,3.738,3.738,0,0,1,1.856,3.613,24.019,24.019,0,0,1-.879,7.813q-3.321,6.346,2.05,12.793a7.19,7.19,0,0,0,5.86,2.441q4-.2,4.98-3.516a17.452,17.452,0,0,0,.586-9.082q-0.391-3.906-.488-7.519a2.937,2.937,0,0,1,2.441-3.028,65.647,65.647,0,0,1,10.547-2.05q3.026-.294,3.125,2.148v1.465a3.323,3.323,0,0,1-2.636,3.516,34.676,34.676,0,0,0-6.739,2.441q-2.929.879-3.32,1.367-0.879,3.417,2.539,4.883,5.859,2.733,15.625.391a75.71,75.71,0,0,1,15.332-2.442q3.026-.1,3.027,2.344,0.2,6.738,6.348,7.715a6.014,6.014,0,0,0,4.59-3.906q0.487-1.662,2.832.2,7.226,5.273,14.941,3.906,5.175-1.27,5.664-5.957a48.039,48.039,0,0,0-.586-19.434q-0.684-2.929-4.492-5.371a34.432,34.432,0,0,0-15.625-4.589,92.505,92.505,0,0,0-16.308.781q-3.029.292-3.028-.977,0-1.072,2.442-1.367,13.476-1.074,21.484-.879a22.886,22.886,0,0,0,6.738.293,8.011,8.011,0,0,0,4.786-2.734q2.244-4.882,1.367-12.793a35.058,35.058,0,0,0-1.66-7.813q-3.321-7.909-10.938-8.4-3.029-.1-3.027-1.66a7.471,7.471,0,0,1,.2-1.953q0.293-.587,2.637-0.293a17.322,17.322,0,0,1,4.492,1.464,19.444,19.444,0,0,0,7.812,2.637,3.524,3.524,0,0,0,3.516-2.246q2.147-4.1-1.465-7.812-5.763-4.883-15.039-6.25a6.367,6.367,0,0,1-4.687-2.442,9.415,9.415,0,0,0-2.93-2.734,12.16,12.16,0,0,0-9.473-1.27q-3.712,1.758-2.343,5.176h0Zm0.293,15.723q-0.686,2.834-3.028,3.027-7.521.978-17.285,3.125-0.293-.1.293-3.125a3.1,3.1,0,0,1,2.734-3.125,131.9,131.9,0,0,1,14.844-2.344q3.224-.389,2.442,2.442h0Zm16.8,13.086q-0.2.392-2.539,0a74.628,74.628,0,0,0-8.3.293l-7.032.683q-3.126.49-3.222-1.953a2.459,2.459,0,0,1,2.246-2.734,108.143,108.143,0,0,1,14.062-1.172q5.663-.294,4.785,4.883h0Zm-38.086-.1-0.1,1.269q-0.2,3.029-2.637,3.516a61.811,61.811,0,0,0-8.3,2.246q-3.126.978-3.027-2.246,0.1-3.124,2.539-3.125a28.774,28.774,0,0,0,7.227-1.367l1.171-.293q2.931-.488,3.125,0h0Zm37.4,8.984q-0.2,2.833-2.637,2.832-6.543-.1-14.551.586-3.027.294-3.027-2.441a2.767,2.767,0,0,1,2.637-3.027A105.845,105.845,0,0,1,619.277,913q2.344,0,1.856,3.027h0Zm-38.281,3.809q-0.1,2.247-2.735,2.734-6.934,2.149-9.961.782-0.391-.294-0.488-2.344,0-2.051,2.441-2.149a55.459,55.459,0,0,0,10.352-1.562q0.487,0.2.391,2.539h0Zm40.234,21.094a120.6,120.6,0,0,0-.391,14.843,4.205,4.205,0,0,1-3.906-.39q-0.489-.293-0.879-3.125a35.6,35.6,0,0,0-4.59-11.621q-1.856-2.929.489-3.711a49.019,49.019,0,0,1,6.152-.2q4.3,0.879,3.125,4.2h0Zm-19.922,3.711a2.728,2.728,0,0,1-2.734-3.028q0.1-2.733,2.246-2.929,1.758,0,2.441,3.418,0.782,3.321-1.953,2.539h0ZM684.707,879.6q0.389,1.66-2.051,2.148a52.372,52.372,0,0,1-10.449.977q-6.935-.682-9.57.2-2.541.684-2.735,2.246-0.293,4.3,3.809,4.785a41.2,41.2,0,0,0,19.531.391q26.661-6.446,42.774-4.688a35.947,35.947,0,0,0,7.812,1.758q6.933,0.684,5.664-6.055a6.691,6.691,0,0,0-1.269-1.953,25.8,25.8,0,0,0-13.672-4.3,87.746,87.746,0,0,0-19.531,1.758q-6.837-5.175-14.454-3.613-5.859,1.368-5.859,6.348h0Zm-9.18,15.429a9.681,9.681,0,0,1-5.761-.39l-1.954-.1q-5.372.684-3.222,4.883a4.819,4.819,0,0,1,.781,3.027,51.9,51.9,0,0,0-.683,5.469q-0.685,1.955,2.246,5.859a6.538,6.538,0,0,0,6.152,2.246q5.076-1.172,10.059-1.953,2.929-.292,2.832,1.27-0.294,1.464-2.637,1.855a100.313,100.313,0,0,0-14.16,3.418q-4.3,1.271-8.3,2.051a1.954,1.954,0,0,0-.586.977q0.975,3.321,5.176,3.906,7.225,0.585,18.359-1.953,2.344-.195,2.246.683-0.684,2.736-3.32,2.344-12.6,2.344-24.805,5.859a2.408,2.408,0,0,0-3.222,1.172,3.781,3.781,0,0,0,2.636,3.809,13.184,13.184,0,0,0,7.813.195l6.64-1.367q3.224-.1,2.637.684a11.634,11.634,0,0,1-3.613,2.148,58.776,58.776,0,0,1-15.625,5.469q-3.712,1.855-.684,5.371,3.32,3.9,9.864,2.832,2.929-.2,3.71,2.344,1.366,3.808,6.25,6.543,5.957,2.636,15.528.2a43.962,43.962,0,0,0,14.453-7.52q2.83-2.834,4.98-.39a27.89,27.89,0,0,0,7.618,4,73.1,73.1,0,0,0,19.628,4.1q6.348-.292,6.836-7.129,0.879-4.3-3.71-4.98a70.543,70.543,0,0,1-12.891-2.442q-2.929-.975-0.781-1.953a36.906,36.906,0,0,0,8.4-3.515q3.808-3.612,1.367-7.91-0.783-1.074,1.953-.977,2.539,0.684,3.516-1.367,1.171-2.345,0-3.906a7.866,7.866,0,0,0-5.566-3.516,116.2,116.2,0,0,0-27.246-1.27q-2.345.1-2.442-1.367-0.1-1.171,2.344-1.465,5.175-.585,10.254-0.781a112.894,112.894,0,0,0,12.3.1,1.914,1.914,0,0,0,1.465-1.563q0.781-4.2-3.808-5.957-1.954-.681,0-1.855a8.748,8.748,0,0,0,2.832-3.125,19.069,19.069,0,0,0-3.321-17.774q-7.909-3.9-21.191-2.246a269.043,269.043,0,0,0-31.348,5.957h0Zm43.067,2.539q-0.294.978-2.637,0.684a57.117,57.117,0,0,0-6.641-.391q-3.126.1-3.125-.781l0.391-1.758q0.293-.585,2.832-0.879l3.906-.293q4.783-.879,5.274,3.418h0Zm-32.813,1.172q1.562,2.93-2.246,2.735a42.017,42.017,0,0,0-5.957,1.562q-3.126.978-2.734-1.367,0.1-1.953,2.636-2.93l4.395-.781q2.929-.293,3.906.781h0Zm32.129,4.688q-0.391,2.247-3.027,1.465a58.671,58.671,0,0,0-5.86.293q-3.027.2-3.027-1.661,0.2-1.758,2.637-1.757a53.8,53.8,0,0,1,6.445.39q2.832,0.2,2.832,1.27h0Zm-31.738,2.636a2.429,2.429,0,0,1-2.442,2.246,22.216,22.216,0,0,1-7.519,1.172q-2.541-.488-1.856-2.148,0-.975,2.637-1.172l4.2-.781,1.954-.586q3.026-.488,3.027,1.269h0Zm34.082,5.567q2.343,1.171,2.051,1.465a128.136,128.136,0,0,0-13.379.879q-3.029.293-3.028-1.563,0-1.758,2.54-1.953l4.394-.391,1.953-.1a7.553,7.553,0,0,1,5.469,1.66h0Zm-1.563,28.222-3.222.879q-3.908,2.442-5.469-4.1-0.978-3.026,1.562-3.125,4.395-.195,8.692-0.1,2.538-.879,4.3,3.418-1.37,2.442-5.86,3.027h0Zm-19.433-2.734,0.781,3.027q0.975,3.029-1.562,3.125l-7.227.2q-2.735,0-.879-2.051a14.836,14.836,0,0,0,1.66-3.125q0.1-3.222,2.344-3.418l2.344-.293q2.146-.1,2.539,2.539h0Zm3.125,12.7q2.343,0,2.929.977,0.683,0.975-1.757,1.953a61.365,61.365,0,0,1-16.993,4.1q-4.884-.1-4.2-6.446,0.1-2.93,1.465-4.1,1.466-.975,3.711.683,4.882,3.125,14.844,2.832h0Zm152.539-65.722q0.975,3.027,4.785,4.492,1.854,1.27,1.074,2.148A78.634,78.634,0,0,0,847.7,904.6q-2.148,2.929-2.441,2.636,0.975-8.3-2.344-14.258-12.795-11.718-22.461-3.418-2.247,2.443-3.125.782-3.126-4-7.031-3.711-5.079.879-3.516,3.808,3.027,2.637,1.856,5.762l-1.367,36.035a55.676,55.676,0,0,0-.1,7.324q1.171,8.694,8.594,12.4,4,0.975,11.621.39a111.012,111.012,0,0,1,13.183-.39,12.625,12.625,0,0,0,3.321-.879q1.952-1.172.39,1.562-3.906,7.618,4.785,12.207,7.421,1.953,10.254-5.468,3.319-7.617,6.153-14.942a6.325,6.325,0,0,1,3.32-3.418q3.808-1.56,5.664.1,2.441,2.247.2,8.105a35.11,35.11,0,0,0-2.734,7.813q-0.783,4.98,3.223,7.227,8.984,5.467,12.6-2.344a33.232,33.232,0,0,0,1.954-15.625l-1.075-6.836a14.877,14.877,0,0,0-4.98-7.715,9.4,9.4,0,0,0-3.906-1.855,20.047,20.047,0,0,0-7.911.488q-2.929.976-3.613-1.563a4.283,4.283,0,0,1,.488-4.59,2.448,2.448,0,0,1,3.711-.781l10.938,5.176q4.883,1.466,9.472-4.1a16.372,16.372,0,0,0,1.661-9.57,27.356,27.356,0,0,0-1.953-7.324q-6.739-13.671-18.165-12.891-1.172-1.268,1.954-2.441,5.273-3.516.1-9.277-8.985-8.007-17.09-5.372-5.371,1.857-4.394,6.446h0Zm-23.828,19.043q-1.563,15.138-2.735,30.273-0.293,2.93-2.636,3.613a18.8,18.8,0,0,0-4.493,1.856,14.419,14.419,0,0,1-3.418,1.66,3.84,3.84,0,0,1-1.855-3.125q-0.587-8.3,1.66-25.195,0.293-3.026,2.051-3.125,4.1-1.758,6.641-7.324a24.06,24.06,0,0,1,1.855-3.223q1.659-1.074,2.539.195a6.548,6.548,0,0,1,.391,4.395h0Zm37.4-4.883a56.735,56.735,0,0,0-9.277,16.016q-1.662,3.808-3.614,4.1-3.613,1.172-4.1-1.562,3.025-8.3,11.523-15.723l1.953-1.66q3.319-1.659,3.516-1.172h0Zm12.207,8.887a13.318,13.318,0,0,1,1.758,5.761q0,3.42-3.516,5.274l-5.175.976q-2.344.2-1.563-2.441,1.367-4,3.027-7.715,1.269-3.025,3.418-3.613a2.425,2.425,0,0,1,2.051,1.758h0Zm-31.445,19.726a3.355,3.355,0,0,1,1.367,1.66,6.838,6.838,0,0,0,1.465,1.953q4.588,2.249.683,7.325-1.856,3.418-3.32,6.836-2.05,2.834-2.441,2.734a8.606,8.606,0,0,1-.489-2.93,17.8,17.8,0,0,0-1.367-3.515q-2.735-2.733-2.734-5.078,0.292-4.981.879-9.961,0.292-2.245,3.027-.586a15.987,15.987,0,0,0,2.93,1.562h0Zm83.691-47.949q0.488,2.834-2.148,3.32a69.872,69.872,0,0,0-11.035,3.516q-2.541,1.076-3.907.586a7.912,7.912,0,0,0-7.421,3.222q-1.758,3.323,1.269,7.813a10.688,10.688,0,0,1,1.074,2.93,24.688,24.688,0,0,1-.683,6.836q-1.173,7.814-1.953,15.625-1.173,13.673-3.809,31.25-0.586,7.518,5.957,10.351,5.274,1.953,6.641-2.734a42.643,42.643,0,0,0,2.343-11.719l2.344-31.348q0.293-2.929,2.637-3.027a10.573,10.573,0,0,0,2.441.1q3.026-.1,3.223,2.051,1.854,5.664,10.058,7.421a16.28,16.28,0,0,0,8.887-.586q10.742-3.808,17.188-2.441,3.515,1.37,5.859-.293,3.319-2.343.879-6.543a4.593,4.593,0,0,1-.977-3.32v-1.563q0.1-3.026,2.539-2.929a35.529,35.529,0,0,1,6.934.878q5.274,1.077,5.566-4-0.293-4.491-5.273-6.641a13.29,13.29,0,0,0-6.738-2.051q-3.029.293-3.028-2.637,0-2.732,2.637-2.636,5.567,1.171,7.715.781a4.338,4.338,0,0,0,3.809-2.637q2.929-8.789-5.762-10.937-15.92-1.758-24.805,0a6.886,6.886,0,0,1-2.832-1.758,17.819,17.819,0,0,0-14.844-2.539q-4.785,1.464-4.785,5.664h0ZM959.9,891.125q1.173,1.563.782,4.785-0.2.49-2.539,0.781a74.732,74.732,0,0,0-15.04,3.809q-2.929.978-3.515-1.367L939,897.18q-1.37-2.929,1.172-3.516a134.17,134.17,0,0,1,16.015-3.027q2.637-.39,3.711.488h0Zm-29.687,7.715a51.217,51.217,0,0,1-.391,6.348,14.732,14.732,0,0,1-3.418,1.464l-0.781.293q-3.126,1.758-3.125-.781a15.614,15.614,0,0,0-.586-3.613q-1.27-5.663,3.809-5.469l0.879-.2q2.831-.781,3.613,1.953h0Zm28.418,13.965a45.943,45.943,0,0,0-13.672,4.883q-4.98,3.126-4.785-2.344a3.176,3.176,0,0,1,2.344-3.711,87.187,87.187,0,0,1,14.257-3.418q3.224-.39,3.125,1.855-0.2,2.248-1.269,2.735h0Zm-25.879,21.484q-3.029,1.563-4.883,1.172a2.027,2.027,0,0,0-1.367.195,3.39,3.39,0,0,0-.293,4.4q1.074,1.758-1.172,3.808a8.238,8.238,0,0,0-1.562,2.832q-1.956,9.375,6.25,14.942a28.019,28.019,0,0,0,15.625,2.148,64.725,64.725,0,0,0,14.941-4.59,5.1,5.1,0,0,1,5.273.391q11.719,9.276,17.188,4.492a12.507,12.507,0,0,0,2.637-3.515q2.439-7.032-7.129-12.891,4.589-6.249,2.539-12.012-4.3-7.909-14.356-9.961-7.13-.975-18.066,2.442-6.837,2.247-15.625,6.152h0Zm36.133-.781q2.147,2.541-2.246,5.566a5.6,5.6,0,0,1-5.274,1.27q-3.906-.975-7.812-1.563-2.929-.487-0.293-2.343,7.713-4.981,10.84-4.493a7.18,7.18,0,0,1,4.785,1.563h0Zm-23.242,14.551q3.123,1.56,2.929,1.953-10.158,5.955-16.308,2.539-3.223-2.149-3.321-4.59,0.39-2.441,3.614-2.93a27.986,27.986,0,0,1,13.086,3.028h0Zm64.455-56.836c-2.67.912-3.36,2.507-2.05,4.785a17.923,17.923,0,0,0,11.42,6.152,45.309,45.309,0,0,0,8.3.2q3.42-.681,4.2.2a6.006,6.006,0,0,1,2.74,7.129q0.195,3.126-2.15,3.808a152.685,152.685,0,0,0-18.75,7.129q-4.3,1.075-2.64,5.371a8.45,8.45,0,0,0,4.49,3.809,24.253,24.253,0,0,0,15.82,1.465q3.03-.39,3.03,2.148a2.254,2.254,0,0,1-2.54,2.442,40.216,40.216,0,0,0-15.43,2.441q-11.22,5.274-9.96,13.281a14.791,14.791,0,0,0,8.01,10.645,26.47,26.47,0,0,0,15.23,3.125,84.74,84.74,0,0,0,15.63-3.223q21.39-5.958,37.4,1.074,7.515,2.733,9.96-4.98,2.445-8.5-7.52-14.649a3.852,3.852,0,0,1-1.56-1.464l-2.93-5.176c-0.72-1.5-.19-1.79,1.56-0.879q4.785,1.563,7.33-3.125a22.763,22.763,0,0,0,2.54-11.719,28.724,28.724,0,0,0-4.01-15.527,11.306,11.306,0,0,0-2.63-2.442q-4.89-3.222-7.72-.2a49.418,49.418,0,0,0-4.59,7.129q-1.365,2.929-3.81,1.172a27.348,27.348,0,0,0-10.35-2.832q-2.145,0-2.73-2.735a15.37,15.37,0,0,0-2.25-4.98q-2.34-2.929.29-3.418,15.135-2.344,23.73.488a12.048,12.048,0,0,0,7.82.684q4.68-2.246,4.68-6.836,0.3-7.713-11.52-11.816-9.765-2.733-22.17-.684-13.665,2.247-46.87,12.012h0Zm70.99,22.265a88.163,88.163,0,0,1-2.34,14.453q-0.78,3.42-1.95.782-2.355-5.662-1.18-15.918,0.39-3.711,1.67-5.078,1.56-2.052,3.22-.2a11.388,11.388,0,0,1,.58,5.957h0Zm-7.61,22.071q0.78,3.126-2.15,3.027a50.018,50.018,0,0,0-11.82,1.172q-2.25.391-2.34-2.246-0.39-4.1-.39-7.91c0-1.5.88-2.279,2.63-2.344q4.5-.39,8.89-0.391a3.217,3.217,0,0,1,3.22,2.344Q1072.69,932.433,1073.48,935.559Zm-39.36,9.179q0,1.466-2.34,2.246l-5.18,1.661c-2.6.845-5.21,1.821-7.81,2.929q-3.81,1.367-5.57-1.172a2.435,2.435,0,0,1,0-2.343,11.988,11.988,0,0,1,7.23-4,49.65,49.65,0,0,1,11.13-1.075c1.63,0,2.48.586,2.54,1.758h0Zm127.15-67.676q-4.2,4.981-5.96.684-6.045-5.955-10.06-3.32-2.535,2.442-.39,5.664a5.978,5.978,0,0,1,1.96,3.125q0.39,17.091,1.07,34.18,0.585,5.664,7.03,7.812a27.5,27.5,0,0,0,14.46-.781q3.12-.587,3.12,1.855-0.39,3.908-.39,7.813a65.989,65.989,0,0,1-.39,10.937c0.19,2.41-.65,3.679-2.54,3.809q-21.78-.683-49.41-6.348-3.03-.879-3.03-3.32-0.2-4.784-.1-9.277c0-1.627.85-2.279,2.54-1.954q4.98,0.879,7.32-.488a18.824,18.824,0,0,1,8.11-1.367q5.76-.879,8.01-4.883,1.065-3.318-.1-8.887-0.195-10.254.29-20.214,1.08-10.156-6.74-15.528-7.815-4.783-15.62,2.149-5.76,5.859-8.01.879-4.485-4.59-8.98-2.93-3.33,1.464-3.13,4.2a7.984,7.984,0,0,0,2.25,4.883,10.419,10.419,0,0,1,2.54,3.808,68.86,68.86,0,0,1,.49,14.258q-1.47,21-2.15,41.5a44.624,44.624,0,0,0-.1,7.813q1.26,6.933,5.66,8.886,4.7,1.366,7.13-3.027,0.69-3.908.59-14.453c0-1.692.84-2.083,2.54-1.172q26.46,11.328,43.94,16.895,9.96,2.93,17.29,1.953a11.27,11.27,0,0,0,3.9-1.367q3.225-2.736,3.42-9.668-0.78-23.34-.39-39.649l0.1-21.094q-0.195-4.881-3.91-10.546-6.735-8.5-14.65-7.129a17.092,17.092,0,0,0-7.71,4.3h0Zm11.13,9.766a6.775,6.775,0,0,1,.3,2.93v1.074a2.6,2.6,0,0,1-2.45,2.832,27.1,27.1,0,0,0-8.69,2.539c-2.02.717-2.99,0.229-2.93-1.465a8.5,8.5,0,0,1,.1-2.246,2.156,2.156,0,0,1,2.44-2.441,12.95,12.95,0,0,0,5.57-1.465l1.95-1.172c2.02-.911,3.26-1.106,3.71-0.586h0Zm-41.21,1.856q1.665,6.836-2.54,6.738a44.081,44.081,0,0,0-8.01,3.418q-3.12,2.149-3.12-.391V896.5a2.927,2.927,0,0,1,2.73-3.125,9.438,9.438,0,0,0,3.81-1.855,14.474,14.474,0,0,1,4.89-3.516,1.963,1.963,0,0,1,2.24.684h0Zm41.41,18.554V909c0.06,2.019-.72,3.027-2.35,3.027q-5.265.587-10.25,1.563-2.055-1.367-2.05-4.59-0.1-3.025,3.03-2.246a15.134,15.134,0,0,0,6.64-.879l1.95-.488q3.03-.587,3.03,1.855h0Zm-42.48,6.934a50.988,50.988,0,0,1-10.16,3.027q-3.12.587-3.12-1.855v-3.516c0-1.562.87-2.246,2.63-2.051a13.1,13.1,0,0,0,7.52-2.246q3.315-1.366,3.62.879,0.675,4.4-.49,5.762h0ZM1253.95,875.7q-3.42-2.343-6.06-.781-2.73,3.42.39,5.762,0.69,0.585.78,3.125,0.5,8.692,1.27,17.285a8.22,8.22,0,0,0,.59,3.906,9.636,9.636,0,0,0,7.52,3.613q2.925,0.586.19,2.637a6.75,6.75,0,0,1-3.9,1.367,11.3,11.3,0,0,0-2.84.2,1.227,1.227,0,0,0-1.27,1.367,2.459,2.459,0,0,1,.69,1.953,12.481,12.481,0,0,1-2.25,2.441c-1.3,1.563-1.85,2.7-1.66,3.418a4.084,4.084,0,0,0,2.74,3.028,4.261,4.261,0,0,1,1.85.879,22.283,22.283,0,0,1-2.24,2.539q-1.47,2.247-2.93-.293l-0.88-1.27c-2.09-1.822-2.44-3.32-1.08-4.492,1.18-1.367,1.66-2.473,1.47-3.32q-3.615-5.957-9.08-7.227a14.65,14.65,0,0,0-6.74,2.637q-2.745,2.247-3.91,2.148a11.478,11.478,0,0,0-4.49-.1,2.006,2.006,0,0,0-1.27,1.757q2.055,2.249-1.37,4.493c-1.5,1.5-2.24,1.367-2.24-.391q-0.105-4.3.09-8.594,0-2.439,2.64-1.758a14.325,14.325,0,0,0,9.96-.585,19.407,19.407,0,0,1,7.81-2.051q8.01-.781,6.65-8.5a121.554,121.554,0,0,1-.4-14.161q0.6-8.984-7.03-11.718-8.205-3.808-17.57,2.148c-3.46,2.344-6.09,2.637-7.92.879a5.641,5.641,0,0,0-7.12.586q-1.86,3.029.97,6.445a10.094,10.094,0,0,1,2.25,3.809,86.637,86.637,0,0,1-.1,19.629q-1.08,13.966-2.05,33.5a84.508,84.508,0,0,0-.59,11.035q0.69,7.226,4.89,9.766,5.76,1.758,7.32-4.3a19.916,19.916,0,0,0,.39-3.906q-0.285-12.694-.19-25.1c0-1.758.84-1.985,2.54-.684,1.75,0.847,2.08,1.953.97,3.321q-3.615,3.712-.1,7.91,2.64,2.247.69,5.761-3.525,5.957,3.51,8.106c1.83,0,4.59-.749,8.3-2.246q0.495,0.1-.09,2.441a13.676,13.676,0,0,1-2.15,4.492,5.627,5.627,0,0,1-2.15,1.563c-0.65.2-.75,0.684-0.29,1.465q6.735,6.054,12.79.39a15.664,15.664,0,0,0,2.05-8.105q0.39-10.058-1.56-13.379-2.445-2.929-2.25-3.516c1.17-1.431,2.12-1.431,2.83,0a3.723,3.723,0,0,0,4.3.391q1.95-.975,1.86.586a4.242,4.242,0,0,0,.39,2.051,8.14,8.14,0,0,1,.39,3.125l-0.3,12.695q-0.87,6.346,2.54,8.4c2.22,0.845,4.56.292,7.04-1.661a9.542,9.542,0,0,0,1.07-7.129c0.06-1.953.88-3.092,2.44-3.418a19.062,19.062,0,0,1,4.98-.683,3.336,3.336,0,0,0,1.47-.391l1.07-.2c1.95-.066,2.99-0.293,3.13-0.684a2.964,2.964,0,0,0-.2-2.636,45.28,45.28,0,0,1-.2-5.762,6.046,6.046,0,0,0-1.56-5.273q-2.925-2.148-1.95-3.223a1.513,1.513,0,0,1,2.25.293q2.34,2.149,4.68.879,1.47-.487,1.47,1.953a106.935,106.935,0,0,1-1.27,15.137q-0.78,4-5.37,2.246-2.835-.978-0.78,2.246a47.548,47.548,0,0,0,7.32,8.789c2.86,1.822,5.47,2.344,7.81,1.562a6.474,6.474,0,0,0,4.3-4.98,26.121,26.121,0,0,0,.49-6.836l0.68-66.6L1289.39,884q-2.235-10.741-11.42-11.328-8.985-1.758-18.75,3.223c-2.09,1.107-3.84,1.042-5.27-.2h0Zm21.58,10.352a50.588,50.588,0,0,0-14.65,2.539q-1.95.586-1.86-1.758c0.07-1.172,1.01-1.79,2.84-1.855a23.647,23.647,0,0,0,5.76-1.465q7.41-4.3,9.86.879c0.33,1.108-.33,1.66-1.95,1.66h0Zm-41.6.879c0,1.237-.82,1.889-2.45,1.953a35.658,35.658,0,0,0-10.05,2.734q-3.03,1.369-3.23-1.074a2.132,2.132,0,0,1,2.25-2.441,14.06,14.06,0,0,0,4.69-1.563A14.485,14.485,0,0,1,1230.9,884q3.225-.292,3.03,2.93h0Zm43.75,8.886q-0.105,2.736-3.32,2.442a55.056,55.056,0,0,0-11.43,1.074q-4.4,2.149-4.88-2.246c0-1.172,1.07-1.758,3.22-1.758a78.323,78.323,0,0,1,11.13-2.148l1.96-.293q3.6-.195,3.32,2.929h0Zm-43.95,2.54q0,1.757-2.34,3.027a77.9,77.9,0,0,1-10.45,2.734c-2.09.391-3.13,0.034-3.13-1.074,0-.977.78-1.79,2.35-2.441l8.3-2.735,1.95-.586q3.03-.879,3.32,1.075h0Zm43.46,10.253q-0.2,7.423,0,14.844,0,2.637-2.64-.488c-2.15-1.5-2.73-2.6-1.76-3.32q5.67-3.906-1.95-8.985-3.315-1.951-.98-2.929a16.426,16.426,0,0,1,3.23-.977l1.17-.293c2.02-.2,2.99.522,2.93,2.148h0Zm-10.84,4.59q0.78,2.929-3.42,4.3c-2.08,1.238-3.26,1.6-3.52,1.074q0.585-4.784,5.96-6.445a0.971,0.971,0,0,1,.98,1.074h0Zm-28.52,3.516q0,2.833-3.12,3.809a12.239,12.239,0,0,1-4.4,2.441,0.788,0.788,0,0,1-.39-0.781q1.95-5.469,7.13-6.543,0.69,0,.78,1.074h0Zm27.05,10.84c-1.89,1.237-3.77,2.572-5.66,4q-3.03,3.614-5.96,1.074c0-.325.94-1.367,2.83-3.125q3.615-2.441,7.13-4.492c1.96-1.107,3.19-1.236,3.71-.391,0.33,0.781-.35,1.758-2.05,2.93h0Zm-27.15.683c0.39,0.718-.22,1.628-1.85,2.735l-5.76,4.2q-2.355,2.343-4.3,1.66c-0.98-.52-1.27-1.138-0.88-1.855a10.469,10.469,0,0,1,3.22-2.735,34.23,34.23,0,0,1,3.91-2.539l1.95-1.172q3.03-1.56,3.71-.293h0Zm26.47,14.844c0,1.628-.23,2.442-0.68,2.442a11.627,11.627,0,0,0-2.25.488q-1.365.585-1.47-1.953a17.174,17.174,0,0,0-1.17-3.907c-0.78-1.171-.09-1.985,2.05-2.441q2.835-.879,3.32,2.148Zm-31.25,3.125c-1.5,1.5-2.48,2.084-2.93,1.758a1.97,1.97,0,0,1-.49-1.465,12.924,12.924,0,0,0-.88-2.539q-0.975-1.465-.78-1.953a17.68,17.68,0,0,1,3.52-.977c2.01-.65,3.15-0.845,3.41-0.586q2.16,4.591-1.85,5.762h0Z"/>
  <path id="大写字母" class="cls-3" d="M96.75,499.4a4.1,4.1,0,0,1-.117,2.343q-1.817,4.338-7.09,14.063a179.188,179.188,0,0,0-8.672,18.75,10.515,10.515,0,0,0-.937,4.687q1.288,5.742,6.387,4.278,3.632-1.758,3.75-6.328a38.728,38.728,0,0,1,.469-4.395q0.468-.936.938-0.7a3.842,3.842,0,0,1,2.051,1,8.259,8.259,0,0,0,4.8.293,48.528,48.528,0,0,1,8.848-1.113,1.462,1.462,0,0,1,2.109,1.113,40.123,40.123,0,0,0,.938,4.687q2.341,5.977,7.265,5.157,6.5-1.582,5.977-7.09a61.565,61.565,0,0,0-3.106-9.258q-6.387-17.343-13.711-28.125a5.909,5.909,0,0,0-3.34-2.578,9.884,9.884,0,0,0-4.746-.352q-2.931.7-1.816,3.575h0Zm9.141,23.261q0.76,1.817-1,1.524a12.461,12.461,0,0,0-6.739,1.054q-3.164,1.29-4.219.528a22.912,22.912,0,0,1,2.168-4.981q2.285-4.57,4.335-8.965,0.7-1.522,1.231-1.113a51.956,51.956,0,0,1,4.219,11.953h0Zm40.863-24.2a9.3,9.3,0,0,1-4.512.352q-3.867-2.519-6.035-1.055-1.877,1.816-.7,3.633a13.648,13.648,0,0,1,1.758,4.511,49.646,49.646,0,0,1-.293,13.536q-1.349,10.605-.586,16.113a7.3,7.3,0,0,0,2.4,4.629,12.41,12.41,0,0,0,4.688,2.051,55.034,55.034,0,0,0,18.4.468q9.258-1.288,13.418-7.675,2.988-6.446-.351-11.485a7.7,7.7,0,0,0-4.336-3.164,6.86,6.86,0,0,1-2.11-.937q-0.234-.7.938-1.348,4.863-2.518,5.8-6.856,1.349-9.432-6.914-13.71a20.572,20.572,0,0,0-12.187-1.231,87.13,87.13,0,0,0-9.375,2.168h0Zm15.527,8.613q1.231,5.508-2.871,7.735a20.925,20.925,0,0,1-10.547,1.992q-2.871,0-2.168-3.281,0.059-2.578-.117-4.981-0.762-2.109.879-2.519a40.466,40.466,0,0,1,11.66-1.758,3.505,3.505,0,0,1,3.164,2.812h0Zm1.231,23.086q-0.822,3.224-4.688,4.336a19.32,19.32,0,0,1-7.09.352q-3.339-.468-4.57-2.344a12.143,12.143,0,0,1-.937-7.852q0.408-1.933,2.05-1.523a53.186,53.186,0,0,1,8.848-.234q7.383,0.938,6.387,7.265h0Zm28.676-21.679a29.54,29.54,0,0,0-2.4,9.375,31.99,31.99,0,0,0,1.992,14.941,17.2,17.2,0,0,0,7.735,8.2q13.416,5.859,25.429-2.285,6.035-4.452,6.973-9.082a4.254,4.254,0,0,0-1.816-4.043,7.925,7.925,0,0,0-4.688-1.465,3.439,3.439,0,0,0-3.691,2.93,4.72,4.72,0,0,1-1.289,3.515,10.773,10.773,0,0,1-9.844,3.516,7.915,7.915,0,0,1-4.746-2.871,15.757,15.757,0,0,1-3.516-9.434,28.926,28.926,0,0,1,1-11.132q2.051-5.977,7.618-6.563,7.44-.879,11.132,6.68,2.111,4.8,6.856,2.4a5.559,5.559,0,0,0,1.406-1.7,7.971,7.971,0,0,0-.352-7.031q-3.867-7.032-7.734-7.5a16.374,16.374,0,0,0-2.344.41,9.3,9.3,0,0,1-3.515-1,20.158,20.158,0,0,0-8.438-.528q-10.722,1.526-15.761,12.657h0ZM252.094,497.7a3.916,3.916,0,0,0-2.344-.761q-3.75.645-2.754,4.57a22.268,22.268,0,0,1,1.816,9.375,107.323,107.323,0,0,1-1.874,26.719,5.563,5.563,0,0,0,2.343,5.449q3.165,1.464,5.918-1.465,1.231-1.876,2.871-.586a15.8,15.8,0,0,0,10.2,2.344,22.077,22.077,0,0,0,9.375-3.047,18.3,18.3,0,0,0,7.851-8.613,44.119,44.119,0,0,0,1.582-4.688q2.813-12.361-1.875-21.68-4.629-8.2-12.773-9.316a36.6,36.6,0,0,0-15.059,1.465,7.577,7.577,0,0,1-5.273.234h0Zm23.086,11.66a25.342,25.342,0,0,1,1.465,11.485,18.474,18.474,0,0,1-2.813,9.375q-5.683,6.622-14.824,4.1a1.837,1.837,0,0,1-1.289-2.05,97.571,97.571,0,0,0-.235-25.43,1.9,1.9,0,0,1,1.114-2.344q8.026-1.934,12.773.645a9.344,9.344,0,0,1,3.809,4.218h0Zm43.734-11.074q-6.445,2.813-9.375,0a7.275,7.275,0,0,0-4.687-1.523q-3.4.879-1.407,3.691a3.822,3.822,0,0,1,.528,1.172q0.936,3.635.468,11.777-0.294,4.453-.82,8.848-1.349,10.49.41,15.645,2.4,6.269,9.492,5.507,5.859-.527,11.719-0.82a48.687,48.687,0,0,1,11.66.469,3.436,3.436,0,0,0,3.926-1.817,5.6,5.6,0,0,0-.176-4.687,10.418,10.418,0,0,0-8.847-4.981,39.936,39.936,0,0,0-14.942,2.93q-1.933.411-2.4-.117-0.762-1.464-.527-5.273a5.617,5.617,0,0,1,.761-2.813q11.25-2.343,17.637-1.406a7.268,7.268,0,0,0,4.512-.938q3.163-4.746-3.75-8.73a14.281,14.281,0,0,0-7.383-1,49.14,49.14,0,0,0-9.375,2.695q-1.758.586-1.582-1.172,0.057-2.694-.117-5.215-0.822-2.4,1.933-2.695a93.037,93.037,0,0,1,9.375-1.465h10.2a3.617,3.617,0,0,0,2.285-1.347q2.226-3.165-.176-5.86a11.128,11.128,0,0,0-10.488-3.34,69.59,69.59,0,0,0-8.848,2.461h0Zm48.246,1.172a3.614,3.614,0,0,1-3.515-.527q-3.283-3.516-5.8-2.578a2.39,2.39,0,0,0-1.7,2.578,14.347,14.347,0,0,1,1.406,5.215,90.021,90.021,0,0,1-.352,14.531q-0.526,4.688-.82,9.375-0.587,7.909,1.7,12.6a8.114,8.114,0,0,0,4.4,3.281q5.214,1.288,7.207-3.692a6.171,6.171,0,0,0,.293-2.871A76.691,76.691,0,0,1,368.625,526a1.617,1.617,0,0,1,1.582-1.641,42.928,42.928,0,0,1,16.231-.41q6.093,1.407,5.214-4.629a7.285,7.285,0,0,0-3.047-4.57,9.785,9.785,0,0,0-4.687-1.523,40.37,40.37,0,0,0-14,2.578q-1.758.294-1.582-1.582-0.058-2.168.059-4.16-0.47-1.875,1.23-2.051a52.7,52.7,0,0,1,19.746-.879,10.412,10.412,0,0,0,2.461-.176,3.617,3.617,0,0,0,2.988-2.519,4.651,4.651,0,0,0-1.113-4.688q-4.746-5.1-12.48-3.633-6.447,1.173-14.063,3.34h0Zm43.5,12.656a31.413,31.413,0,0,0,1.172,21.036,16.884,16.884,0,0,0,7.5,8.261,18.562,18.562,0,0,0,10.781,1.817,14.8,14.8,0,0,0,8.789-4.278q1.7-1.64,2.051-1.582A3.288,3.288,0,0,1,441.48,539a3.556,3.556,0,0,0,1.993,3.574,6.788,6.788,0,0,0,5.566.469,3.671,3.671,0,0,0,2.461-4.16,71.737,71.737,0,0,1-.7-9.024,17.728,17.728,0,0,0-1.992-9.375,9.915,9.915,0,0,0-9.727-3.691,50.568,50.568,0,0,1-9.375,2.226,7.793,7.793,0,0,0-3.457.352,1.64,1.64,0,0,0-.644,1.348,6.34,6.34,0,0,0,3.808,5.332,9.742,9.742,0,0,0,5.684.586l4.218-.762q1.758-.058,1.993,1.172-0.235,4.278-5.8,7.148-5.744,2.988-10.254-1.933a13.783,13.783,0,0,1-2.578-4.688,29.409,29.409,0,0,1-.41-15.351,11.882,11.882,0,0,1,2.343-4.688q2.52-2.637,4.629-2.93,7.383-1.7,13.653,6.5,2.285,3.106,4.57,1.992a4.623,4.623,0,0,0,3.047-2.695q1.405-4.746-5.625-11.836-2.52-2.343-5.039-1.347a4.575,4.575,0,0,1-2.813-.411,21.531,21.531,0,0,0-12.187-.234q-10.724,3.986-14.18,15.527h0ZM490.488,498.4a7.112,7.112,0,0,1,1.817,4.1l-0.117,11.777q0,1.818-1.465,1.875a44.837,44.837,0,0,0-8.848,1.407,23.519,23.519,0,0,1-4.57.879q-2.637.762-2.227-2.168,0.234-6.8.059-11.954a8.946,8.946,0,0,0-4.336-6.562,7.7,7.7,0,0,0-4.688-1,1.472,1.472,0,0,0-1.23.937,4.392,4.392,0,0,0,.879,3.282q0.819,2.343.468,7.734a221.241,221.241,0,0,0-1.171,23.379q0.175,5.8,1.757,8.789a4.015,4.015,0,0,0,3.164,2.285,4.469,4.469,0,0,0,4.922-1.113,9.439,9.439,0,0,0,1.055-5.86,76.206,76.206,0,0,1-.41-9.2q-0.059-1.7.937-1.054a2.721,2.721,0,0,0,1.934.468q5.918-.526,11.133-0.586a4.307,4.307,0,0,1,1.992.118,4.823,4.823,0,0,1,.117,1.933,38.823,38.823,0,0,0,1.055,11.543,5.553,5.553,0,0,0,3.4,3.984q6.386,1.171,8.379-4.218a11.939,11.939,0,0,0,.235-2.344q-0.763-6.972-1-11.836-0.176-9.726.059-19.453a10.6,10.6,0,0,0-1.289-4.688q-2.637-4.042-8.965-5.507a2.681,2.681,0,0,0-3.164,1.523,1.779,1.779,0,0,0,.117,1.523h0Zm33.891,4.1a64.431,64.431,0,0,1-.7,13.652q-2.228,14.122-.938,20.743a14.152,14.152,0,0,0,1.992,4.687,6.586,6.586,0,0,0,4.629,2.344,7.126,7.126,0,0,0,4.395-.879,5.235,5.235,0,0,0,2.344-3.34,42.025,42.025,0,0,0-.118-9.9q-0.058-14.59.176-24.434,0.352-7.909-9.551-9.9-5.216-.468-3.339,4.687a5.654,5.654,0,0,1,1.113,2.344h0Zm48.422-4.629a6.376,6.376,0,0,0,1.523,3.516,3.7,3.7,0,0,1,.469,1.172q0.468,8.613.293,24.023a13.665,13.665,0,0,1-.762,4.219,6.6,6.6,0,0,1-3.515,4.1q-5.743,2.461-9.317-3.457a6.652,6.652,0,0,1-.7-4.863q1.815-2.519-1.289-4.277-3.75-1.113-7.031,1.992-2.873,3.574-.293,9.785a17.133,17.133,0,0,0,8.144,7.793A22.219,22.219,0,0,0,571.4,543.4q8.906-.585,13.652-6.972a21.9,21.9,0,0,0,2.578-9.375q-0.294-11.778-.352-23.555-1.288-4.98-7.5-7.324a8.6,8.6,0,0,0-5.507-.352,2.381,2.381,0,0,0-1.465,2.051h0Zm56.742,2.695a134.73,134.73,0,0,1-13.652,10.664q-1.525,1.056-1.348-.937a12.192,12.192,0,0,0-2.754-9.668q-5.216-5.038-8.027-4.687a2.114,2.114,0,0,0-1.231.644,2.374,2.374,0,0,0-.176,2.344q2.343,3.046,1.875,8.672-0.117,4.629-.644,9.023a102.511,102.511,0,0,0-.527,18.164q0.293,5.978,3.867,8.5a9.467,9.467,0,0,0,4.219.821q3.515-.528,3.808-4.512a16.433,16.433,0,0,0,.176-3.985q-0.528-5.39-.586-10.546,0-1.524,1.523-.411a43.51,43.51,0,0,1,9.141,9.844l3.281,4.688q4.8,6.093,9.844,3.281,3.692-2.52,2.7-6.445a10.962,10.962,0,0,0-2.754-4.688q-5.859-5.976-16.347-11.25-2.169-.879-2.4-1.7-0.117-.879,1.465-1.7a182.157,182.157,0,0,1,16.407-9.844,6.25,6.25,0,0,0,2.871-4.512q0.176-5.625-6.68-6.972-1.758-.293-1.816,1.757,0.057,1.583-2.227,3.457h0Zm24.34-4.043a5.041,5.041,0,0,0,.351,4.688,9.724,9.724,0,0,1,1.114,5.8q-1.173,11.25-1.582,19.043a28.225,28.225,0,0,0,1.347,11.777q3.165,5.918,8.965,5.508,7.325-1.29,11.367-1.641a27.088,27.088,0,0,1,10.2.762,4.445,4.445,0,0,0,3.515-.879,5.852,5.852,0,0,0,.938-4.922q-1.349-6.269-6.914-6.855a22.108,22.108,0,0,0-10.664.879q-2.4.821-4.629,1.816a3.356,3.356,0,0,1-2.11-.234q-0.879-2.7-.351-10.547a117.354,117.354,0,0,0,.176-16.289,11.417,11.417,0,0,0-1.114-4.688,9.832,9.832,0,0,0-4.218-3.926,7.571,7.571,0,0,0-5.332-1.113,2.924,2.924,0,0,0-1.055.82h0Zm85.1,2.4a12.226,12.226,0,0,1-1.23,4.687,208.519,208.519,0,0,1-9.141,18.75,4.37,4.37,0,0,1-1.347,1.758,1.159,1.159,0,0,1-1.172-1q-4.454-7.617-8.614-16.406a21.915,21.915,0,0,0-2.519-4.688q-3.575-5.8-8.789-5.449-2.988.236-1.992,3.106a36.777,36.777,0,0,1,1.054,13.183q-0.47,13.478-.41,21.856a23.9,23.9,0,0,0,1.114,6.738,2.742,2.742,0,0,0,1.7,1.816q5.214,1.934,6.445-1.758,0.879-2.4.117-8.027a55.933,55.933,0,0,1-1.933-15.469q-0.411-1.581.82-1.933a101.177,101.177,0,0,1,7.793,16.7,94.965,94.965,0,0,0,3.691,9.375,3.911,3.911,0,0,0,2.11,1.289q2.87,0.528,3.925-2.7A138.011,138.011,0,0,1,736.23,526.7a68.421,68.421,0,0,0,4.1-9.375,1.4,1.4,0,0,1,1.406-1.523q0.468,0.118.352,1.64-1.348,6.856-2.285,13.653-0.235,7.03,2.168,10.781a5.2,5.2,0,0,0,4.8,1.992q4.276-1.406,4.571-6.5-0.822-12.186-.7-25.488,0.175-4.746.058-9.316a6.59,6.59,0,0,0-2.519-4.571q-4.923-3.045-8.614-1.64a5.914,5.914,0,0,0-.586,2.578h0Zm55.454,1.054q1.933,1.818,2.05,6.973a75.93,75.93,0,0,0,1.348,19.453q1.171,3.224-.469,2.989a22.482,22.482,0,0,1-3.691-4.336A73.764,73.764,0,0,1,785.941,511a91.614,91.614,0,0,0-4.921-9.375q-5.393-6.621-12.6-5.039-2.052.7-1.231,3.047a9.087,9.087,0,0,1,1.348,4.687,233.584,233.584,0,0,1-.527,23.789q-0.294,8.029.586,11.6,1.287,5.274,6.621,3.984,3.867-2.343,2.812-7.734a261.539,261.539,0,0,1-1.758-26.133q0.938-1.055,1.7,1,1.874,5.157,3.984,10.313A57.44,57.44,0,0,0,787,530.508a32.946,32.946,0,0,0,7.734,9.668q5.274,4.218,9.844,2.109a5.772,5.772,0,0,0,2.285-1.933,11.915,11.915,0,0,0,1.407-4.688,81.432,81.432,0,0,0,0-8.73q-0.353-7.207-.528-14.18a45.075,45.075,0,0,1,.352-8.379,6.366,6.366,0,0,0-1.992-4.687,16.068,16.068,0,0,0-9.375-4.219,3.95,3.95,0,0,0-1.934.293,2.842,2.842,0,0,0-.351,4.218h0Zm32.894,5.625a27.8,27.8,0,0,0-3.223,9.375q-1.875,12.306,3.985,21.329a20.831,20.831,0,0,0,17.929,7.382q11.427-.587,16.817-10.546a25.541,25.541,0,0,0,2.637-9.375,27.671,27.671,0,0,0-3.223-16.582,4.972,4.972,0,0,1-1.406-2.93,5.1,5.1,0,0,0-.7-3.867q-4.982-5.917-9.668-4.1a13.62,13.62,0,0,1-4.161-.644,18.524,18.524,0,0,0-10.078,1.64,19.68,19.68,0,0,0-8.906,8.32h0Zm26.836,2.4A4.9,4.9,0,0,1,856.1,510q1.64,5.919.058,14.238a14.182,14.182,0,0,1-6.855,8.848q-5.743,2.578-10.254-3.047a15.138,15.138,0,0,1-2.461-7.031q-0.762-8.026.351-12.774,2.4-8.553,9.727-7.265,3.516,0.526,7.5,5.039h0Zm25.16-8.789a8.427,8.427,0,0,1,1.055,3.515,106.568,106.568,0,0,1-.235,11.9q-1.113,18.34.411,25.019,1.347,4.1,5.976,4.043a4.124,4.124,0,0,0,2.93-1,7.177,7.177,0,0,0,2.109-5.8q-0.234-4.98-.234-9.727-0.353-1.7.7-2.168a27.061,27.061,0,0,0,14.3,1.406,13.33,13.33,0,0,0,9.023-5.625,19.351,19.351,0,0,0,1.7-16q-3.222-8.2-12.07-9.082a32.557,32.557,0,0,0-11.133,1.524,40.806,40.806,0,0,1-4.687,1.113,3.3,3.3,0,0,1-3.516-.645q-2.754-3.045-5.273-1.875a2.59,2.59,0,0,0-1.055,3.4h0Zm24.317,5.566a11.977,11.977,0,0,1,1.289,1.641,13.079,13.079,0,0,1,.41,8.086,5.417,5.417,0,0,1-4.981,3.808,48.7,48.7,0,0,1-8.965.352,3.847,3.847,0,0,1-.41-2.11l-0.176-8.964a1.577,1.577,0,0,1,1.524-1.7l6.562-1.582q3.4-.819,4.747.469h0Zm29.144,5.742q-2.871,12.012,2.988,20.508a17.586,17.586,0,0,0,3.985,3.867q1.581,1.231.176,1.407a26.2,26.2,0,0,0-4.8.41,1.5,1.5,0,0,0-1.231,1.992,8.2,8.2,0,0,0,2.4,3.34q3.515,2.929,9.843.058a16.5,16.5,0,0,1,9.727-1.347,50.547,50.547,0,0,0,9.375,2.519q5.976-.058,8.438-5.742,0.995-3.222-2.461-2.93a26.511,26.511,0,0,1-4.161.938,2.569,2.569,0,0,1-1.64-.293q-0.176-.176,1.289-1.348a21.7,21.7,0,0,0,2.871-2.812,17.259,17.259,0,0,0,3.867-9.375q1-9.023-4.746-14.942a1.232,1.232,0,0,1-.469-1.757,5.157,5.157,0,0,0-1.054-4.1q-4.044-6.21-8.965-4.688a3.978,3.978,0,0,1-2.344.176,18.274,18.274,0,0,0-17.168,3.985,19.03,19.03,0,0,0-5.918,10.136h0Zm27.246-3.339a4.779,4.779,0,0,0,2.754,2.343,2.613,2.613,0,0,1,1.523,1.992q2.871,8.5-2.636,15.118-5.333,5.859-11.367,4.218a10.958,10.958,0,0,1-6.329-8.379q-1-7.148.176-11.484,2.93-8.262,11.074-6.855a8.824,8.824,0,0,1,4.8,3.047h0Zm36.645-9.141a9.067,9.067,0,0,1-5.039-1.113q-1.758-.879-2.344-0.586-3.048,1.758-.645,4.277a9.885,9.885,0,0,1,1.817,8.32q-1.29,11.954-1.582,19.043-0.294,8.32,1.582,12.891a5.725,5.725,0,0,0,4.394,2.812q6.093,0.117,5.157-5.332-0.294-7.323-.176-14.648c0.356-1.093.936-1.641,1.756-1.641a17.7,17.7,0,0,1,5.86-.644,3.515,3.515,0,0,1,2.93,2.578,28.888,28.888,0,0,1,1.35,7.031,24,24,0,0,0,3.1,9.375q3.165,3.984,6.62,2.871,3.645-1.054,4.93-3.281a2.8,2.8,0,0,0-.24-2.93,45.659,45.659,0,0,1-3.81-11.718,7.055,7.055,0,0,0-2.57-3.868q-1.53-1.405-1.29-1.757a3.063,3.063,0,0,1,.99-0.586,5.135,5.135,0,0,0,2.35-1.231,13.711,13.711,0,0,0,3.69-10.957q-0.585-8.613-9.08-10.664c-2.39-.664-5.84-0.7-10.38-0.117a87.674,87.674,0,0,0-9.37,1.875h0Zm16.58,8.144a10.178,10.178,0,0,1-.23,5.45,5.1,5.1,0,0,1-4.05,3.281,27.6,27.6,0,0,1-7.2.469q-2.993.117-2.229-2.344,0.117-2.812,0-5.625-0.06-1.758,1.349-1.817c3.01-.585,6.01-1.093,9.02-1.523,1.64-.469,2.76.234,3.34,2.109h0Zm31.43-2.753a15.013,15.013,0,0,0-.82,6.152,11.72,11.72,0,0,0,6.39,10.137,60.68,60.68,0,0,0,9.37,3.4q5.745,0.645,7.09,4.8a8.184,8.184,0,0,1-.17,4.746,5.2,5.2,0,0,1-5.69,3.1q-7.9-1.054-7.85-7.969-0.825-4.628-5.56-3.4a6.188,6.188,0,0,0-4.87,4.16q-1.35,7.442,8.09,12.774a24.9,24.9,0,0,0,9.37,2.226,29.708,29.708,0,0,0,12.31-1.758q6.33-2.812,7.56-7.675a15.728,15.728,0,0,0,.7-5.977q-0.12-5.331-5.16-9.2a46.491,46.491,0,0,0-14.06-4.863,13.181,13.181,0,0,1-2.34-.7q-3.87-2.049-3.93-5.214c-0.47-2.813.65-4.609,3.34-5.391q6.735-.528,12.77,5.977,4.98,3.633,7.39-.645,1.515-4.627-3.93-9.961-2.34-2.168-4.63-1.465a6.88,6.88,0,0,1-2.34.41,27.758,27.758,0,0,0-14.71-.937q-5.445.938-8.32,7.266h0Zm52.23-3.4q-3.225-1.113-4.33.645c-0.39,2.343.85,4.473,3.75,6.386a13.223,13.223,0,0,0,7.03,1.641c1.56-.156,3.1-0.254,4.63-0.293a1.755,1.755,0,0,1,2.11,1.289,32.17,32.17,0,0,1,0,8.731q-1.35,7.442-.06,18.867c0.5,2.7,1.66,4.531,3.45,5.507,2.66,1.211,5,1.348,7.04.411a4.36,4.36,0,0,0,2.34-4.336,158.675,158.675,0,0,1-.82-15.938,64.067,64.067,0,0,0-.88-13.418q-0.525-1.758-.18-1.933c3.4,0,7.04.1,10.9,0.293q6.39-.234,5.28-5.86-1.185-3.867-5.8-5.1-5.865-2.05-15.18-.118a118.8,118.8,0,0,1-19.28,3.223h0Zm80.12-1.406a22.411,22.411,0,0,1,1.7,2.637,15.615,15.615,0,0,1,1.41,7.031q0.06,10.371-.12,20.742-0.525,5.919-6.39,7.383-6.5,1.465-9.43-4.043-1.7-4.571-.82-11.895a91.69,91.69,0,0,0,.65-13.125,12.816,12.816,0,0,0-2.06-5.976q-4.62-6.153-9.96-4.981a2.533,2.533,0,0,0-1.05.879q-0.825,1.933.06,2.93a8.711,8.711,0,0,1,1.58,4.687q0.06,3.048-.12,6.094-0.225,6.153-.06,12.305a29.86,29.86,0,0,0,1.94,9.375,14.043,14.043,0,0,0,7.15,8.32q9.42,4.16,21.68.879a12.349,12.349,0,0,0,4.68-2.7,14.164,14.164,0,0,0,3.69-9.375q0.18-12.714.12-25.43-0.7-5.567-8.61-8.32c-2.66-.664-4.51-0.605-5.57.175a2.4,2.4,0,0,0-.47,2.4h0Zm58.33-.176c0.54,0.782.62,2.109,0.23,3.984q-2.46,8.732-10.08,25.723c-0.66,1.133-1.13,1.719-1.4,1.758a3.11,3.11,0,0,1-.88-1.7q-1.755-6.153-3.93-14.825a96.269,96.269,0,0,0-2.46-9.375q-1.23-4.686-6.44-6.5-3.87-1-5.34.117c-1.21,1.563-.91,3.067.88,4.511a44.12,44.12,0,0,1,4.22,10.664q4.755,18.048,9.79,28.126a7.617,7.617,0,0,0,4.63,2.578q5.79,0.585,9.02-6.27a239.949,239.949,0,0,0,10.9-23.437,43.489,43.489,0,0,0,2.93-9.375q0.225-5.978-6.1-8.438-4.1-1.522-5.86.469a2.154,2.154,0,0,0-.11,1.992h0Zm58.79,6.387q-0.585,6.035-2.75,18.867a5.476,5.476,0,0,1-.47,1.992,0.793,0.793,0,0,1-1.12-.117q-1.335-10.781-2.93-21.387a11.19,11.19,0,0,0-1.69-4.687,6.9,6.9,0,0,0-4.46-2.93,9.423,9.423,0,0,0-4.63-.352q-2.58.528-2.28,2.52a14.815,14.815,0,0,1-.47,6.328l-4.69,18.4a6.038,6.038,0,0,1-.64,2.226,1.372,1.372,0,0,1-.82.176,3.781,3.781,0,0,1-.53-1.7q-0.825-11.895-1.64-19.043-0.24-5.978-5.1-8.614-2.52-.76-3.63.118-1.995,1.581-.24,4.57a18.346,18.346,0,0,1,1.29,5.859q1.875,18.282,3.75,28.125a23.7,23.7,0,0,0,1.59,4.688q1.335,3.1,3.92,3.4a4.61,4.61,0,0,0,3.87-1.172,7.443,7.443,0,0,0,1.81-3.457,91.355,91.355,0,0,0,2.93-9.375q1.23-4.628,2.7-9.257,0.705-1.758,1.05-1.817a1.106,1.106,0,0,1,1.06,1.113,135.982,135.982,0,0,0,4.92,19.922,5.339,5.339,0,0,0,3.63,3.809q4.935,1.23,7.33-3.164c0.7-1.562,1.33-3.125,1.87-4.688q3.4-10.077,6.57-28.125a14.338,14.338,0,0,0,.29-4.16,7.969,7.969,0,0,0-2.93-4.629,12.108,12.108,0,0,0-4.69-2.695q-3.63-.936-3.46,2.344a13.247,13.247,0,0,1,.59,6.914h0Zm51.53-7.676q0.345,3.516-3.52,7.031c-1.44,1.641-2.99,3.281-4.63,4.922a1.758,1.758,0,0,1-2.81.117,86.95,86.95,0,0,0-10.49-9.258,9.5,9.5,0,0,0-9.55-1,5.113,5.113,0,0,0-2.99,3.516q-0.285,2.813,3.64,4.043a67.571,67.571,0,0,1,11.25,10.664q1.23,1.29-.24,2.813-3.57,3.575-6.68,7.089-5.22,5.86-6.38,9.375a5.25,5.25,0,0,0,.35,4.395,5,5,0,0,0,5.33,3.047,9.028,9.028,0,0,0,4.57-3.223,161.78,161.78,0,0,1,10.72-14.3,56.585,56.585,0,0,1,6.74,8.965,55.292,55.292,0,0,0,4.28,7.031q3.45,3.984,8.08-1.113,4.7-5.039,1.23-9.375a100.045,100.045,0,0,0-10.84-13.418,2.02,2.02,0,0,1-.05-2.988,89.466,89.466,0,0,0,8.32-10.547,8.462,8.462,0,0,0-1.29-7.383q-2.175-2.518-3.87-1.933a1.661,1.661,0,0,0-1.17,1.523h0Zm52.52,1.406a8.616,8.616,0,0,1-2.93,4.629l-8.96,8.262a1.407,1.407,0,0,1-2.41-.293l-5.45-8.145q-3.33-5.857-8.55-6.093-3.51-.293-4.92,1.816-0.525,1.933,1.81,3.223a17.26,17.26,0,0,1,3.7,4.57q4.44,7.266,9.2,13.594a4.131,4.131,0,0,1,.87,2.812l-0.46,8.965a23.064,23.064,0,0,0,.35,7.207,5.926,5.926,0,0,0,5.62,4.746q4.8,1.055,6.8-2.051a10.38,10.38,0,0,0,.41-5.8q0-7.324.23-14.473a4.116,4.116,0,0,1,1.35-3.047q4.8-4.277,9.9-9.668c2.43-2.344,3.3-4.687,2.64-7.031a11.423,11.423,0,0,0-2.75-4.688q-2.355-2.46-4.69-1.875a4.649,4.649,0,0,0-1.76,3.34h0Zm36.7-1.054c-3.12.82-6.25,1.562-9.37,2.226a9.294,9.294,0,0,1-4.69-.469q-3.51-1.054-3.46,1.875,0.06,2.462,3.23,5.157,4.8,4.276,9.84,3.4a35.7,35.7,0,0,0,9.38-2.988,16.381,16.381,0,0,1,4.98-1.289c0.47,0.508.23,1.192-.71,2.05l-4.98,4.512a193.925,193.925,0,0,0-17.4,15.586q-4.635,4.806-5.27,8.731a5.748,5.748,0,0,0,3.22,5.8,17.31,17.31,0,0,0,10.61.821q10.59-2.4,25.01-.059c1.65,0.352,2.99-.313,4.05-1.992a10.294,10.294,0,0,0-1.06-6.856,8.184,8.184,0,0,0-6.44-4.394q-3.585-.528-10.37.82c-2.43.548-5.53,1.406-9.32,2.578-1.17.274-1.48-.2-0.94-1.406q2.7-3.631,10.78-11.191,10.44-8.847,13.6-12.95,3.75-4.51-1.17-9.257A12.45,12.45,0,0,0,1444.29,496a83.223,83.223,0,0,0-9.38,1.524h0Z"/>
  <path id="logo" class="cls-1" d="M706.266,1194.7a45.969,45.969,0,0,0-.118,5.15v5.16H677.555v-1.17l0.234-.94-1.406-.24c-1.1,0-2.659-.07-4.688-0.23h-3.281l-0.469,2.58a45.646,45.646,0,0,1-1.172,4.92,22.619,22.619,0,0,1-1.406,4.22,7.125,7.125,0,0,0-.82,2.23,6.584,6.584,0,0,0,2.109-.71c1.326-.54,2.615-1.13,3.867-1.76a11.566,11.566,0,0,0,3.516-2.81l1.641-1.64h66.8l1.875,1.88a14.477,14.477,0,0,0,3.75,2.81c1.406,0.62,2.655,1.17,3.75,1.64a1.036,1.036,0,1,0,1.171-1.17,17.1,17.1,0,0,1-1.406-3.99q-0.7-2.34-1.172-4.68a11.9,11.9,0,0,0-.7-3.05c0-.47-1.252-0.62-3.75-0.47-1.875.16-3.281,0.23-4.219,0.23a2.052,2.052,0,0,1-.937.24c-0.315,0-.469.31-0.469,0.94l0.235,0.93-13.594.24q-13.359,0-13.36-.24a2.838,2.838,0,0,1,.7-1.05,6.664,6.664,0,0,0,1.171-2.46,15.728,15.728,0,0,0,.469-4.22v-2.58h-4.687Q706.382,1194.46,706.266,1194.7Zm-31.289,28.12v4.22l21.093,0.23h21.094l-5.859,4.93q-5.4,4.215-8.2,6.56l-2.344,1.87v6.8H660.445v4.22h40.313v14.76c0,10.01-.158,15.47-0.469,16.41a13.152,13.152,0,0,1-1.172,3.05,21,21,0,0,1-2.578,3.04,16.962,16.962,0,0,1-3.75,2.82c-1.406.62-2.109,1.17-2.109,1.64s0.153,0.7.468,0.7a30.375,30.375,0,0,0,3.047-.47,34.353,34.353,0,0,0,4.922-1.4,16.4,16.4,0,0,0,4.688-1.88,11.74,11.74,0,0,0,3.515-2.34,12.264,12.264,0,0,0,2.344-2.58,13,13,0,0,0,1.172-2.58c0.311-.94.469-6.4,0.469-16.41v-14.76h38.2v-4.22h-38.2v-6.8l2.109-1.64q2.109-1.635,8.438-6.79,6.327-5.4,8.437-7.04a13.637,13.637,0,0,0,2.578-2.34q0-.225-28.828-0.23t-29.062.23h0Zm121.64-30.23-0.469,1.87a27.635,27.635,0,0,1-1.523,5.74c-0.861,2.43-1.681,4.65-2.461,6.68q-1.176,2.58-3.281,6.8-1.88,3.75-4.453,8.44-2.11,3.75-4.688,7.73-2.582,4.215-3.047,4.92a7.818,7.818,0,0,0-1.406,2.11c-0.157.47-.117,0.71,0.117,0.71a8.252,8.252,0,0,0,2.227-1.18q1.873-1.17,3.515-2.34,1.874-1.41,3.985-3.28a59.714,59.714,0,0,0,4.453-4.45l2.109-2.35,0.235,14.77,0.234,14.76h1.875a5.862,5.862,0,0,0,3.047-.7,5.457,5.457,0,0,0,1.875-1.17,11.374,11.374,0,0,0,1.406-1.64l0.469-.71h27.187v2.11l0.235,2.11h1.64a7.437,7.437,0,0,0,2.813-.47,9.072,9.072,0,0,0,2.109-1.17,4.666,4.666,0,0,0,1.407-1.64l0.7-.94h31.64v-4.45H838.336v-6.8H868.57v-4.45H838.336v-6.8H868.57v-4.68H838.336v-7.5H868.57v-4.69H837.164l0.938-1.17a23.668,23.668,0,0,0,1.406-2.35,6.445,6.445,0,0,0,.7-2.57,17.74,17.74,0,0,0,.469-4.93v-3.51H828.727v14.53H815.6q-13.129,0-13.125-.23c0-.16-0.158-0.24-0.469-0.24s0.311-1.41,1.875-4.22a69.182,69.182,0,0,0,3.281-7.5,16.732,16.732,0,0,0,1.406-3.98l0.235-1.17H796.617Zm31.406,22.03v7.5H802.477v-7.5h25.546Zm0,12.18v6.8H802.477v-6.8h25.546Zm0,11.25v6.8H802.477v-6.8h25.546Zm-3.515,16.88v5.16l-22.969.23H778.805v4.45h45.7v1.64c0,1.1-.081,1.64-0.235,1.64a40.222,40.222,0,0,1-4.687-1.17q-4.455-1.17-4.922-1.4-0.236,0-6.328,4.68-6.1,4.935-7.734,6.1-1.643.93-4.454,2.58a58.967,58.967,0,0,1-5.39,2.57q-2.812,1.185-5.391,2.23a35.226,35.226,0,0,1-5.859,1.76,17.416,17.416,0,0,0-3.047,1.05,6.06,6.06,0,0,0,1.289,1.06,3.994,3.994,0,0,0,1.992.94c0.469,0,2.344-.32,5.625-0.94s6.328-1.33,9.141-2.11q4.449-1.17,8.2-2.35a22.822,22.822,0,0,0,4.922-2.1q1.637-.945,9.14-6.1t7.618-5.04q0.115,0.12.117,13.48v13.12h1.406a7.357,7.357,0,0,0,2.813-.7,6.692,6.692,0,0,0,3.046-1.99,11.184,11.184,0,0,0,2.11-3.17,8.733,8.733,0,0,0,.586-2.34q0.115-1.17.117-6.33c0.154-4.68.271-7.11,0.352-7.26s1.442,0.55,4.1,2.11q3.982,2.1,6.8,3.51a34.945,34.945,0,0,0,6.328,2.58,54.282,54.282,0,0,0,6.328,1.64,52.974,52.974,0,0,0,5.625.94c1.718,0.16,4.219.23,7.5,0.23a38.521,38.521,0,0,0,5.86-.23,1.37,1.37,0,0,0,1.171-.94l0.235-1.17c0-.15-0.235-0.24-0.7-0.24-0.315,0-1.722-.23-4.219-0.7s-5-1.01-7.5-1.64q-3.516-.93-6.8-2.11-2.812-.93-5.625-2.11-2.346-1.17-10.078-6.33l-7.734-5.15,19.453-.24h19.453v-4.45H854.977l-20.157-.23v-2.58l-0.234-2.58H824.508Z"/>
</svg>
