<svg xmlns="http://www.w3.org/2000/svg" width="400" height="200" viewBox="0 0 400 200">
  <defs>
    <style>
      .cls-1 {
        fill: #fdfdfd;
        fill-rule: evenodd;
      }
    </style>
  </defs>
  <path id="站酷快乐体" class="cls-1" d="M106.239,119.105l13.824-1.92,1.92-1.968,1.872-16.32-2.16-2.5-7.776-.24,0.048-4.8,8.736,0.384,0.24-4.464-8.88-.432,0.1-6.48-4.464-.048-0.336,15.7-5.856-.192-2.3,2.592,2.5,18.768Zm-21.984-.576,17.04-3.36-0.912-4.464-3.5.672,2.544-17.808-4.512-.624-2.736,19.392-8.832,1.728ZM106,100.481l13.1,0.336-1.44,12.144-9.792,1.44Zm-22.608-8.64,17.28-1.872-0.48-4.512-6.576.72-1.68-5.04-4.272,1.44,1.344,4.08-6.1.672Zm4.08,18.336,4.368-1.008L88.431,94.577l-4.416,1.008Zm44.208-23.712,5.568-.624-0.336,4.992H133.6l-2.208,2.3v24.336l2.592,2.208,16.9-2.16,1.968-2.3-1.488-22.224-2.256-2.16H146.9l0.48-6.1,2.688-.336-0.48-4.464L131.2,81.953Zm36.144,32.256,2.256-2.016,1.44-13.248-2.208-2.544H155.727l-2.256,2.352,0.336,13.008,2.256,2.16ZM154.191,90.833L160,90.209v4.08L152.751,94l-0.144,4.512,18.672,0.672,0.144-4.512-6.912-.24v-4.7l4.992-.576-0.576-4.512-4.416.48,0.048-4.656L160,80.417v5.232l-2.736.288,1.584-4.752L154.623,79.7l-2.832,8.16ZM135.9,95.393h0.72l-0.672,9.888,4.56,0.336,0.672-10.224h0.864l-0.576,7.824,1.92,2.448,4.32,0.624,0.48,7.056-12.24,1.536v-1.872l9.552-1.248-0.576-4.416L135.9,108.5v-13.1Zm22.416,18.624-0.24-8.544h8.688l-0.96,8.64ZM146.991,95.393l0.384,6.24-1.248-.192,0.432-6.048h0.432Zm-5.136-10.08,0.96-.1-0.432,5.616h-0.912Zm51.216,20.64,6.288-.48-7.584,11.28,3.7,2.544,9.6-14.256,14.784-1.1-0.384-4.512-5.328.432L217.7,88.193l-2.064-2.928-9.408-.576-0.144-4.752-4.56.1,0.144,4.416-6-.384-0.24,4.56,6.384,0.384,0.336,11.712-9.408.72Zm-10.08-1.968,2.544-5.328-0.864,20.208,4.512,0.192,1.1-25.248,4.512,3.168,2.592-3.744-6.864-4.848,0.336-7.632-4.512-.192-0.576,13.344-2.4-1.152-4.464,9.312Zm32.688,15.456,3.264-3.12-9.408-9.744-3.264,3.12Zm-3.168-29.808-3.216,10.56-2.64.192L206.319,89.3Zm51.84,10.56-0.1-4.56-13.728.432-0.672-8.208-4.512.432,0.672,7.92-10.9.336,0.72-10.32,28.56-1.92-0.288-4.56-30.528,2.112-2.112,2.112-1.008,14.736,2.256,2.4,13.68-.384,0.816,8.928-6.864,6.768,3.168,3.216L251.1,112.1l0.672-1.728-0.864-9.792Zm-24.432,5.76-3.7-2.5-8.352,12.192,3.744,2.544ZM266.9,113.3l-7.632-10.608-3.648,2.64,7.584,10.608Zm47.568-23.52-0.528-4.512-9.6,1.2,0.384-6.96-4.512-.144-0.432,7.632-14.688,1.776,0.528,4.512,6.576-.768-7.392,23.9,4.32,1.392,8.016-25.92,2.4-.288-0.768,14.544-5.664.96,0.816,4.464,4.608-.768-0.48,9.024,4.56,0.24,0.528-10.032,3.888-.672L306.3,104.9l-2.928.48,0.72-14.3Zm-27.936-5.616-3.264-3.216L272.9,91.409l3.264,3.168,2.112-2.16,0.672,27.552,4.512-.144-0.72-31.872Zm31.3,28.944-9.5-19.2-4.032,2.064,9.552,19.152Z"/>
</svg>
