<svg xmlns="http://www.w3.org/2000/svg" width="1540" height="1450" viewBox="0 0 1540 1450">
  <defs>
    <style>
      .cls-1 {
        fill: #fff;
      }

      .cls-1, .cls-2, .cls-3 {
        fill-rule: evenodd;
      }

      .cls-2 {
        fill: #fefefe;
      }

      .cls-3 {
        fill: #fdfdfd;
      }
    </style>
  </defs>
  <path id="字体名称" class="cls-1" d="M377.812,325.734l57.6-8,8-8.2,7.8-68-9-10.4-32.4-1,0.2-20,36.4,1.6,1-18.6-37-1.8,0.4-27-18.6-.2-1.4,65.4-24.4-.8-9.6,10.8,10.4,78.2Zm-91.6-2.4,71-14-3.8-18.6-14.6,2.8,10.6-74.2-18.8-2.6-11.4,80.8-36.8,7.2Zm90.6-75.2,54.6,1.4-6,50.6-40.8,6Zm-94.2-36,72-7.8-2-18.8-27.4,3-7-21-17.8,6,5.6,17-25.4,2.8Zm17,76.4,18.2-4.2-14.2-60.8-18.4,4.2Zm184.2-98.8,23.2-2.6-1.4,20.8h-13.8l-9.2,9.6v101.4l10.8,9.2,70.4-9,8.2-9.6-6.2-92.6-9.4-9h-9.2l2-25.4,11.2-1.4-2-18.6-76.6,8.4Zm150.6,134.4,9.4-8.4,6-55.2-9.2-10.6h-56.6l-9.4,9.8,1.4,54.2,9.4,9Zm-56.8-116.2,24.2-2.6v17l-30.2-1.2-0.6,18.8,77.8,2.8,0.6-18.8-28.8-1v-19.6l20.8-2.4-2.4-18.8-18.4,2,0.2-19.4-19-.2v21.8l-11.4,1.2,6.6-19.8-17.6-6.2-11.8,34Zm-76.2,19h3l-2.8,41.2,19,1.4,2.8-42.6h3.6l-2.4,32.6,8,10.2,18,2.6,2,29.4-51,6.4v-7.8l39.8-5.2-2.4-18.4-37.6,4.8v-54.6Zm93.4,77.6-1-35.6h36.2l-4,36Zm-47.2-77.6,1.6,26-5.2-.8,1.8-25.2h1.8Zm-21.4-42,4-.4-1.8,23.4h-3.8Zm213.4,86,26.2-2-31.6,47,15.4,10.6,40-59.4,61.6-4.6-1.6-18.8-22.2,1.8,14.8-48.6-8.6-12.2-39.2-2.4-0.6-19.8-19,.4,0.6,18.4-25-1.6-1,19,26.6,1.6,1.4,48.8-39.2,3Zm-42-8.2,10.6-22.2-3.6,84.2,18.8,0.8,4.6-105.2,18.8,13.2,10.8-15.6-28.6-20.2,1.4-31.8-18.8-.8-2.4,55.6-10-4.8-18.6,38.8Zm136.2,64.4,13.6-13-39.2-40.6-13.6,13Zm-13.2-124.2-13.4,44-11,.8-1.4-46.2Zm216,44-0.4-19-57.2,1.8-2.8-34.2-18.8,1.8,2.8,33-45.4,1.4,3-43,119-8-1.2-19-127.2,8.8-8.8,8.8-4.2,61.4,9.4,10,57-1.6,3.4,37.2-28.6,28.2,13.2,13.4,31.6-31.4,2.8-7.2-3.6-40.8Zm-101.8,24-15.4-10.4-34.8,50.8,15.6,10.6Zm112.4,30.6-31.8-44.2-15.2,11,31.6,44.2Zm198.2-98-2.2-18.8-40,5,1.6-29-18.8-.6-1.8,31.8-61.2,7.4,2.2,18.8,27.4-3.2-30.8,99.6,18,5.8,33.4-108,10-1.2-3.2,60.6-23.6,4,3.4,18.6,19.2-3.2-2,37.6,19,1,2.2-41.8,16.2-2.8-3-18.6-12.2,2,3-59.6Zm-116.4-23.4-13.6-13.4-43.2,43.6,13.6,13.2,8.8-9,2.8,114.8,18.8-.6-3-132.8Zm130.4,120.6-39.6-80-16.8,8.6,39.8,79.8Z"/>
  <path id="中文示例" class="cls-2" d="M322.547,730.337l1.1-9.4-21.3-2.5-0.2-10.9,25.1-1-2,58-10.9,6.4,4.8,8.1,13.1-7.6,2.3-3.9,2.3-65.7-4.8-4.9-34.9,1.4-4.5,4.9,0.8,38.5-5.9.6,0.8,9.4,5.3-.5,0.2,10.1-12.2,10.1,6,7.3,14-11.5,1.7-3.8-0.3-13.2,19.2-1.9-1-9.4-18.4,1.9-0.3-12.8Zm-60.8,33.9,16.9-.3,4.6-4.4,3.3-51.5-4.8-5-20.7.3-4.7,4.7,0.2,17.8-3.2-.4-1.1,9.4,4.5,0.5,0.3,24.2Zm4.1-51.5,10.9-.2-2.6,42-7.8.2-0.3-18.3,5.7,0.6,1.1-9.3-6.9-.8Zm107.7,64.8,1-21.3,37.2,1.8,0.5-9.3-37.2-1.9,0.7-14.7,41.5-1.4,3.4,35.2-10,2.8,2.5,8.8,13.7-3.6,3.5-5-6.5-66.2-4.8-4.3-46.8,2.4-4.5,4.5-2.1,41.1-6.4-.4-0.5,9.4,6.4,0.3-1.1,21.5Zm3.3-67.5,38.2-2,1.3,13.4-40.2,1.3Zm91.1,30.5,21.4-1.6,0.5,29.4-20.9.2-1-18.8-9.4.5,1.3,23.3,4.7,4.5,60.4-.6,4.6-4.5,1-27.7-9.5-.3-0.7,23.1-21.1.2-0.5-30,20.3-1.5,4.3-3.9,3.7-21-9.4-1.6-3,17.3-16,1.3-0.5-31-9.5.1,0.5,31.6-16.8,1.3v-22.6h-9.5v27.6Zm94.7,36.5,30.4-35.6h41v-9.4h-37.1l2.1-22.3,26.6-1.4-0.5-9.4-63,3.3,0.5,9.3,27-1.3-2.3,21.8h-32.2v9.4h25.4l-25,29.6Zm60.8-1.6,6.5-6.9-25-23.8-6.7,6.8Zm38.3-4.3,60.2-6.3-0.7,10.1,9.5,0.7,4-54.1-9.4-.6-2.6,34.4-22.6,2.4-1.6-57.4-9.5.2,1.6,58.2-24.9,2.6-2-40.3-9.5.4,2.4,45.2Zm223.8-40.3-33.6-8.2,0.3-.2-4.6-8.3-44,24.7,4.6,8.2,31.4-17.6,22.9,5.5-38.3,4.4-4.2,4.7,0.6,30.5,4.9,4.6,50.6-2,4.4-3.5,2.2-8.7-9.1-2.4-1.4,5.3-42.3,1.7-0.4-21.4,29.7-3.3v9.2l-20.8-2.1-1,9.4,26,2.6,5.2-4.6,0.1-19.8-4.7-4.2,19.2,4.6Zm-51.6-10.2-1.2-6.5,25.1-1.6-1.6,8,9.3,2,2.2-10.6,15.4-1-0.6-9.4-12.9.8,0.8-3.7-9.2-2-1.4,6.4-28.8,1.8-1.4-7.9-9.2,1.6,1.2,6.9-16,1,0.6,9.4,17-1.1,1.3,7.6Zm149.5,22-0.7-9.4-21.4,1.9-7.3-15.4-8.5,4.1,5.8,12.1-21.3,1.8,0.8,9.5,6.3-.5-0.9,28.6,4.8,4.9,43.8-1.5-0.3-9.4-38.7,1.3,0.8-24.8Zm-50.6-21-1.9-7.9,26.5-.2-1.5,4.2,8.9,3.1,2.6-7.3,17.8-.2v-9.4l-14.4.1,1.9-5.4-8.9-3.2-3.1,8.7-32,.1-1.9-8.3-9.3,2.2,1.4,6.2h-15v9.5l17.2-.1,2.4,10Zm-4.3,31.1-2.5-6.5-18-6.8-3.3,8.8,13.1,5-11.5,23,8.4,4.2Zm-0.3-22.4-18-10.6-4.8,8.1,18,10.6Zm158.1,1.8-0.6-9.4-83,4.7,0.5,9.5,21.9-1.2-19.1,36,5,6.7,59.1-10.1,6,11.1,8.2-4.5-14.8-27.6-8.4,4.4,4.3,7.9-46.6,8.1,17.4-32.7Zm-13.8-26.3-0.2-9.4-59.3.9,0.1,9.4Zm54.4,48.4,4.3-.9-1.2,14.2,5,5.2,33-2.2-0.5,7.9,9.5,0.6,0.5-9.1,6-.4-0.6-9.5-4.8.4,1.1-17.6,8.8-1.9-2-9.2-6.2,1.3,1-14.5-5.5-4.8-37.8,6.3-3.9,4.4-1.6,19-7.1,1.5Zm8.4-38.7,50.2-4.8-1-9.4-44,4.2,1.3-7.1-9.4-1.6-2.4,13.2Zm-23.5,62,12.7-28-8.7-3.8-12.7,28Zm43.5-17.3,9.2-2.4-3-11.1,8.1-1.8-1,16.1-28.7,1.9,1-11.7,11.4-2.5Zm-12.5-31.4,28.1-4.8-0.7,11.1-11.1,2.4-2-7.8-9.1,2.3,1.9,7.5-8.2,1.8Zm-21-6.5,7-6.5-17.2-18.4-7,6.5Zm-3.9,19.5,5.2-7.9-16.7-11.2-5.4,7.8Zm144.1,21,4.8-4.5,1.5-35.2-5-5-35.4,1.6-4.5,5,0.5,10.9-4.9.3,0.7,9.4,4.6-.3,0.6,13.6,4.8,4.5Zm22.5,3.1,1.7-3.8-3.9-55.8-4.8-4.4-49.5.7,0.2,9.5,45-.7,3.3,48.9-16.2,14,6.1,7.1Zm-70.1-50.8-9.4-.4-2.1,63.7,9.4,0.4Zm44.3,12.7-1.2,25.6-23.3.2-0.5-9.2,21.1-1.3-0.6-9.4-20.9,1.3-0.3-6.1Zm-32-16.9-11.8-16.3-7.6,5.6,11.7,16.2Zm-894.2,202.7-1-9.4-50.8,5.7,3.3-38.1-9.3-.9-3.5,40.1-16.3,1.8,1.1,9.4,14.4-1.6-2.6,29.6,6.1,4.7,28.8-8.7-2.8-9-22.1,6.9,2.1-24.5,15.6-1.8,31.5,34.3,7-6.3-26.9-29.3Zm-8.2-31-5.8-7.5-28.6,21.5,5.6,7.5Zm112.2,61-10.7-3.1,6.2-60.5-4.8-5.2-59.6,2.9-0.2-5.1-9.4.3,2,58.1-7.6,18.5,8.8,3.6,8-19.3,0.3-2-1.6-44.6,54.1-2.7-6,59,3.4,5,14.6,4.1Zm-24-6.8-12.5-19.3,13.8-23.2-8.1-4.8-11.4,19.2-9.4-14.7-8,5.1,12.1,18.6-15.2,25.7,8.1,4.7,12.8-21.6,10,15.4Zm60.2-50.1,39.6-.6-1.7,52.7,3.5,4.8,18.4,4.9,2.3-9-14.7-4,1.7-54-4.7-4.9-48.5.7-4.6,4-9.8,66.7,9.3,1.3Zm161.8-4.9-0.6-9.4-78.4,4.8,0.6,9.4,20.5-1.2-22.1,64.4,8.9,3,13.7-39.7,39.7-3,0.7,33-20-4.3-2,9.3,25.9,5.3,5.7-4.6-1.1-44-5-4.5-40.6,3.1,6.5-18.7Zm86.6,45.1-21.8-1.2-0.4-10.1,23.7-1.6,4.4-4.2,2.8-32.9-4.8-5-60.1-.1-4.8,4.7v15.6l-2.8.1,0.3,9.5,2.5-.1v11.7l5,4.6,24.4-1.6,0.4,8.9-21.8-1.2-0.5,9.4,22.6,1.3,0.4,9-38.1,1.1,0.4,9.2,83.6-2.5-0.4-9.2-36.1,1.1-0.3-8.1,20.9,1.1Zm-6-27.5-0.3-9.5-16.8.7-0.4-9.3h22.3l-1.9,23.6-19.4,1.3-0.3-6.1Zm-45.5-18.2,18.6,0.1,0.4,9.7-19,.7v-10.5Zm0,20,19.3-.7,0.3,6.4-19.6,1.3v-7Zm138.3,39.1,22-3.5,3.9-5-2.4-35.9-4.6-4.3h-20.8l-4.6,4.7,1,39.5Zm35-37.6,3.7-13.9,29.8,0.6-4.9,13.9,8.9,3.1,7.1-20-4.3-6.2-34.1-.8,1.7-6-9.1-2.3-7.9,29.1Zm-8.7,52.2,26.1-26.8,1.4-2.8,3.1-26.9-9.4-1.1-3,25.3-25,25.7Zm-23.3-54h11.4l1.9,27.3-12.5,2Zm66.5,52.4,5.5-7.6-18.2-13-5.5,7.6Zm34.7-2.2,7.2-24.8,0.1-1.1,1.1-38.8,65.4,1.4,0.1-9.5-31-.7-2.9-8.7-9,2.9,1.8,5.6-28.9-.6-4.7,4.6-1.3,42.9-7,24.1Zm12.4,5.8,26.6-10.2,25.9,7.4,2.6-9.2-13.7-3.9,3.6-1.4,3-3.5,2.6-13.7-5.1-5.6-40.4,3.5,0.9,9.5,34.1-3-1,4.9-12.9,5-17.3-5-2.6,9.1,5.2,1.5-15,5.8Zm2-52,5.2-.5-0.4,9,5.5,4.9,29.1-4.4,4-5.2-1-7.8,7.7-.8-0.8-9.4-8,.8-0.4-3.4-9.4,1.1,0.3,3.2-16.7,1.5,0.3-5-9.5-.5-0.3,6.4-6.5.6Zm33.4,0.4-18.9,2.8,0.2-4.6,18.2-1.7Zm49.3-17.2,32.1-2.3-0.6,21.5-23,1.9,0.7,9.4,22.1-1.9-0.6,25-38.5,1,0.3,9.5,86-2.3-0.3-9.5-38.1,1,0.6-25.5,25.8-2.2-0.9-9.3-24.6,2.1,0.5-21.3,30-2.2-0.7-9.4-71.5,5.1Zm59.1,51.6,7.7-5.3-9.2-13.7-7.8,5.4Zm114.1,12.1,2.3-70.7-5.3-4.8-43.4,5.1,1,9.2,38-4.3-1.8,59.3-19.3-4.5-2.1,9.3,24.9,5.7Zm-49.4-62.2-12.1-19.8-8,4.8,12.1,19.9Zm-17.3,64.4-1.8-62-9.5.3,1.8,62Zm171.8-32.7-0.4-9.4-40.7,1.8v-15.5l32.6-3.2-0.9-9.3-15.3,1.5,8.8-9.7-6.8-6.3-15.9,17.3-42.9,4,0.9,9.4,30-2.8v15l-31.1,1.3,0.3,9.4,21.1-.9-25.7,24.4,6.4,6.7,33.5-31.7Zm-2.9,23.5-36.6-18.5-4.2,8.4,36.6,18.5Zm-48.5-62.6-12-11.3-6.3,7,12,11.1Z"/>
  <path id="大写字母" class="cls-3" d="M190.76,505.106l15.72,32.88,5.1-2.46-18.24-38.34-5.16.06-19.98,43.68,5.16,2.28,5.16-11.34,17.16-2.88-1.02-5.64-13.26,2.28Zm60.659-.3-11.58,13.56-0.06,3.6,10.08,12.12-24.24,2.7v-33.42Zm4.2,34.32,1.86-4.62-11.82-14.28,13.68-16.14-1.92-4.62-34.44-1.86-3,2.76v39.6l3.18,2.82Zm52.26-1.08-0.6-5.64-33.54,3.6,3.36-31.56,28.02,4.14,0.78-5.64-30.9-4.56-3.18,2.52-4.08,38.04,3.18,3.06Zm41.7-26.94,0.84,17.88-28.14,6.24,2.58-30.24Zm4.38,22.86,2.16-2.88-0.96-22.38-2.22-2.64-29.88-7.26-3.54,2.46-3.24,37.32,3.48,3Zm47.64,4.86-0.48-5.64-30.72,2.52,1.02-13.62,26.58-.42-0.12-5.7-25.98.42,0.9-11.76,27.48,0.84,0.24-5.64-30.24-.96-2.88,2.64-2.88,37.02,3.06,3.06Zm16.679-33.66,27.42,0.84,0.18-5.64-30.18-.96-2.82,2.58L410,540.566l5.64,0.42,1.2-16.92,26.52-.48-0.06-5.58-26.04.42Zm73.8,35.28,2.64-3.12-1.56-16.26-2.7-2.52-19.2-.9-0.24,5.7,16.74,0.72,1.02,10.86-28.56,1.44,2.34-32.22,29.7,1.92,0.36-5.64-32.58-2.16-3,2.64-2.76,38.22,3,3Zm18.72-40.74-5.64-.3-2.04,41.22,5.64,0.3,0.96-19.5,25.32-2.16-0.18,21.54,5.64,0.06,0.36-41.22-5.64-.12-0.12,14.04-25.14,2.22Zm46.2,0-5.7-.3-2.04,41.22,5.64,0.3Zm26.159,37.5,2.04-2.82-0.9-29.16,8.639,0.6,0.361-5.7-23.521-1.62-0.479,5.58,9.3,0.72,0.84,27.6-14.039,4.08,1.68,5.4Zm51,0.66-14.46-15.24,15.24-12.06-3.54-4.44-17.64,13.92-0.3,4.2,16.68,17.52Zm-21.06-39.42-5.64-.66-5.76,44.04,5.64,0.72Zm61.38,37.56-25.14-.78,3.9-35.76-5.64-.66-4.26,38.82,2.7,3.18,28.2,0.78Zm54.239,3-6.84-37.74-5.22-.9-12,21.18-9.72-20.94-5.28.66-6.78,37.74,5.58,1.02,5.16-28.86,8.16,17.76,5.04,0.24,10.86-19.2,5.46,30.06Zm17.939-30.24,25.02,31.62,5.04-1.74v-38.52h-5.64v30.42l-24.18-30.66-5.04,1.44-4.74,38.46,5.58,0.66Zm46.56-1.68,21.3-2.22,1.14,30.9-24.6-.3Zm28.14,31.5-1.26-36.84-3.18-2.76-26.52,2.7-2.58,2.52-2.7,33.84,2.76,3.06,30.6,0.36Zm16.56-35.4h24.48l1.56,15.72-24.42,1.56,0.36,5.64,27.3-1.74,2.7-3.18-2.1-21.06-2.88-2.52h-29.58l-2.88,2.58-2.7,42.24,5.64,0.36Zm81.06,34.14-3.54-2.52-1.2-33.54-3.06-2.7-27.72,2.7-2.52,2.52-2.64,33.84,3.06,3.06,29.34-2.34,4.98,3.54Zm-10.32-32.82,0.96,26.1-8.88-6.42-3.3,4.62,6.18,4.44-19.38,1.56,2.16-28.14Zm26.1,0.9,24.42-.84,1.74,14.16-20.7-2.16-0.6,5.64,12.72,1.32,10.14,18,4.86-2.76-8.22-14.52,4.74,0.48,3.12-3.12-2.52-20.28-2.88-2.46-29.64.9-2.7,2.7-1.86,38.4,5.64,0.3Zm78.178,33.24,2.58-3.48-4.02-17.76-3.06-2.16-25.2,2.82,0.6-13.62,28.678,2.64,0.48-5.64-31.618-2.94-3.06,2.7-0.84,19.98,3.12,2.88,25.978-3,2.7,12.18-33.538,2.94,0.54,5.58Zm55.74-38.76-44.52-1.62-0.24,5.7,19.32,0.66-1.56,37.26,5.7,0.18,1.44-37.26,19.74,0.66Zm42.3,38.7,3.36-38.82-5.58-.48-3.18,36.06-22.2-1.68-0.66-33.36-5.64.18,0.66,35.88,2.64,2.82,27.54,1.98Zm33.54,2.7,18.9-39.9-5.1-2.46-16.5,34.8-14.04-27.48-5.04,2.64,16.68,32.46Zm50.58-27.9,7.08,22.92,5.34,0.18,12.66-34.14-5.28-1.98-9.78,26.34-7.32-23.7h-5.4l-8.1,25.74-7.02-27.78-5.46,1.38,9.36,37.5,5.52,0.12Zm76.02,23.82-16.68-17.64,16.5-16.26-3.96-4.02-16.44,16.2-13.32-14.1-4.14,3.78,13.44,14.28-17.94,17.7,3.96,4.02,17.88-17.64,16.62,17.58Zm30.9-15.24,21.24-18.84-3.78-4.26-22.2,19.74-0.96,1.98-0.36,22.44,5.64,0.06Zm-4.14-9.3-14.22-15.36-4.14,3.78,14.28,15.42Zm74.76,25.14-0.54-5.64-31.2,2.7,26.94-28.32-1.8-4.74-32.04-2.7-0.54,5.7,26.16,2.1-27.96,29.46,2.34,4.8Z"/>
  <path id="logo" class="cls-1" d="M706.266,1194.7a45.969,45.969,0,0,0-.118,5.15v5.16H677.555v-1.17l0.234-.94-1.406-.24c-1.1,0-2.659-.07-4.688-0.23h-3.281l-0.469,2.58a45.646,45.646,0,0,1-1.172,4.92,22.619,22.619,0,0,1-1.406,4.22,7.125,7.125,0,0,0-.82,2.23,6.584,6.584,0,0,0,2.109-.71c1.326-.54,2.615-1.13,3.867-1.76a11.566,11.566,0,0,0,3.516-2.81l1.641-1.64h66.8l1.875,1.88a14.477,14.477,0,0,0,3.75,2.81c1.406,0.62,2.655,1.17,3.75,1.64a1.036,1.036,0,1,0,1.171-1.17,17.1,17.1,0,0,1-1.406-3.99q-0.7-2.34-1.172-4.68a11.9,11.9,0,0,0-.7-3.05c0-.47-1.252-0.62-3.75-0.47-1.875.16-3.281,0.23-4.219,0.23a2.052,2.052,0,0,1-.937.24c-0.315,0-.469.31-0.469,0.94l0.235,0.93-13.594.24q-13.359,0-13.36-.24a2.838,2.838,0,0,1,.7-1.05,6.664,6.664,0,0,0,1.171-2.46,15.728,15.728,0,0,0,.469-4.22v-2.58h-4.687Q706.382,1194.46,706.266,1194.7Zm-31.289,28.12v4.22l21.093,0.23h21.094l-5.859,4.93q-5.4,4.215-8.2,6.56l-2.344,1.87v6.8H660.445v4.22h40.313v14.76c0,10.01-.158,15.47-0.469,16.41a13.152,13.152,0,0,1-1.172,3.05,21,21,0,0,1-2.578,3.04,16.962,16.962,0,0,1-3.75,2.82c-1.406.62-2.109,1.17-2.109,1.64s0.153,0.7.468,0.7a30.375,30.375,0,0,0,3.047-.47,34.353,34.353,0,0,0,4.922-1.4,16.4,16.4,0,0,0,4.688-1.88,11.74,11.74,0,0,0,3.515-2.34,12.264,12.264,0,0,0,2.344-2.58,13,13,0,0,0,1.172-2.58c0.311-.94.469-6.4,0.469-16.41v-14.76h38.2v-4.22h-38.2v-6.8l2.109-1.64q2.109-1.635,8.438-6.79,6.327-5.4,8.437-7.04a13.637,13.637,0,0,0,2.578-2.34q0-.225-28.828-0.23t-29.062.23h0Zm121.64-30.23-0.469,1.87a27.635,27.635,0,0,1-1.523,5.74c-0.861,2.43-1.681,4.65-2.461,6.68q-1.176,2.58-3.281,6.8-1.88,3.75-4.453,8.44-2.11,3.75-4.688,7.73-2.582,4.215-3.047,4.92a7.818,7.818,0,0,0-1.406,2.11c-0.157.47-.117,0.71,0.117,0.71a8.252,8.252,0,0,0,2.227-1.18q1.873-1.17,3.515-2.34,1.874-1.41,3.985-3.28a59.714,59.714,0,0,0,4.453-4.45l2.109-2.35,0.235,14.77,0.234,14.76h1.875a5.862,5.862,0,0,0,3.047-.7,5.457,5.457,0,0,0,1.875-1.17,11.374,11.374,0,0,0,1.406-1.64l0.469-.71h27.187v2.11l0.235,2.11h1.64a7.437,7.437,0,0,0,2.813-.47,9.072,9.072,0,0,0,2.109-1.17,4.666,4.666,0,0,0,1.407-1.64l0.7-.94h31.64v-4.45H838.336v-6.8H868.57v-4.45H838.336v-6.8H868.57v-4.68H838.336v-7.5H868.57v-4.69H837.164l0.938-1.17a23.668,23.668,0,0,0,1.406-2.35,6.445,6.445,0,0,0,.7-2.57,17.74,17.74,0,0,0,.469-4.93v-3.51H828.727v14.53H815.6q-13.129,0-13.125-.23c0-.16-0.158-0.24-0.469-0.24s0.311-1.41,1.875-4.22a69.182,69.182,0,0,0,3.281-7.5,16.732,16.732,0,0,0,1.406-3.98l0.235-1.17H796.617Zm31.406,22.03v7.5H802.477v-7.5h25.546Zm0,12.18v6.8H802.477v-6.8h25.546Zm0,11.25v6.8H802.477v-6.8h25.546Zm-3.515,16.88v5.16l-22.969.23H778.805v4.45h45.7v1.64c0,1.1-.081,1.64-0.235,1.64a40.222,40.222,0,0,1-4.687-1.17q-4.455-1.17-4.922-1.4-0.236,0-6.328,4.68-6.1,4.935-7.734,6.1-1.643.93-4.454,2.58a58.967,58.967,0,0,1-5.39,2.57q-2.812,1.185-5.391,2.23a35.226,35.226,0,0,1-5.859,1.76,17.416,17.416,0,0,0-3.047,1.05,6.06,6.06,0,0,0,1.289,1.06,3.994,3.994,0,0,0,1.992.94c0.469,0,2.344-.32,5.625-0.94s6.328-1.33,9.141-2.11q4.449-1.17,8.2-2.35a22.822,22.822,0,0,0,4.922-2.1q1.637-.945,9.14-6.1t7.618-5.04q0.115,0.12.117,13.48v13.12h1.406a7.357,7.357,0,0,0,2.813-.7,6.692,6.692,0,0,0,3.046-1.99,11.184,11.184,0,0,0,2.11-3.17,8.733,8.733,0,0,0,.586-2.34q0.115-1.17.117-6.33c0.154-4.68.271-7.11,0.352-7.26s1.442,0.55,4.1,2.11q3.982,2.1,6.8,3.51a34.945,34.945,0,0,0,6.328,2.58,54.282,54.282,0,0,0,6.328,1.64,52.974,52.974,0,0,0,5.625.94c1.718,0.16,4.219.23,7.5,0.23a38.521,38.521,0,0,0,5.86-.23,1.37,1.37,0,0,0,1.171-.94l0.235-1.17c0-.15-0.235-0.24-0.7-0.24-0.315,0-1.722-.23-4.219-0.7s-5-1.01-7.5-1.64q-3.516-.93-6.8-2.11-2.812-.93-5.625-2.11-2.346-1.17-10.078-6.33l-7.734-5.15,19.453-.24h19.453v-4.45H854.977l-20.157-.23v-2.58l-0.234-2.58H824.508Z"/>
</svg>
