<svg xmlns="http://www.w3.org/2000/svg" width="400" height="200" viewBox="0 0 400 200">
  <defs>
    <style>
      .cls-1 {
        fill: #fdfdfd;
        fill-rule: evenodd;
      }
    </style>
  </defs>
  <path id="cwTeX_中明體" data-name="cwTeX 中明體" class="cls-1" d="M71.641,101.555a2.432,2.432,0,0,0,1.641.562,1.855,1.855,0,0,0,1.453-.633A2.41,2.41,0,0,0,75.3,99.82a4.176,4.176,0,0,0-1.969-3.445,8.406,8.406,0,0,0-5.062-1.43,9.589,9.589,0,0,0-7.5,3.258,11.139,11.139,0,0,0-2.906,7.664,10.567,10.567,0,0,0,1.594,5.578,9.07,9.07,0,0,0,3.633,3.61,10.3,10.3,0,0,0,5.133,1.359,7.347,7.347,0,0,0,5.414-2.18q2.18-2.179,2.18-3.867a0.6,0.6,0,0,0-.375-0.492,0.509,0.509,0,0,0-.7.211l-0.281.8a7.61,7.61,0,0,1-1.945,2.906,5.431,5.431,0,0,1-3.867,1.453,6.405,6.405,0,0,1-3.094-.844l-0.656-.468q-3.048-2.532-3.047-7.828a16.891,16.891,0,0,1,.633-4.922,7.38,7.38,0,0,1,1.664-3.094,7.182,7.182,0,0,1,2.063-1.5,5.053,5.053,0,0,1,2.109-.469A7.461,7.461,0,0,1,73.188,97.8a2.13,2.13,0,0,0-2.2,2.3A1.823,1.823,0,0,0,71.641,101.555Zm17.766,13.781,4.641-13.031h0.047a0.186,0.186,0,0,0,.047.14l4.594,12.891a1.255,1.255,0,0,0,1.031,1.078,1.486,1.486,0,0,0,1.031-1.172q0.234-.562,2.883-8.039t2.789-7.711a3.856,3.856,0,0,1,3.656-2.3V95.742q-1.97.141-3.891,0.141t-3.843-.141V97.2a3.992,3.992,0,0,1,.914.117,2.919,2.919,0,0,1,1.1.609,1.716,1.716,0,0,1,.656,1.289,2.809,2.809,0,0,1-.046.656l-4.407,12.469h-0.047a1.52,1.52,0,0,1-.093-0.258,0.991,0.991,0,0,1-.047-0.211L96.016,99.492a4.515,4.515,0,0,1-.281-0.82,1.579,1.579,0,0,1,.07-0.68,0.984,0.984,0,0,1,.773-0.609,7.219,7.219,0,0,1,1.875-.187V95.742q-2.626.141-4.875,0.141t-4.219-.141V97.2h0.328a3.827,3.827,0,0,1,2.531.563,4.906,4.906,0,0,1,.727,1.43,6.066,6.066,0,0,1,.445,1.43v0.047L89.453,111.68l-0.094-.188L85.047,99.4a3.813,3.813,0,0,1-.234-0.75,1.541,1.541,0,0,1,.07-0.68,1.012,1.012,0,0,1,.8-0.586,7.265,7.265,0,0,1,1.852-.187V95.742q-2.766.141-5.109,0.141t-4.406-.141V97.2a6.118,6.118,0,0,1,2.461.328,2.814,2.814,0,0,1,1.1,1.594L87.344,115.2a1.481,1.481,0,0,0,.281.727,0.951,0.951,0,0,0,.7.492,1.358,1.358,0,0,0,1.078-1.078h0Zm29.625,0.562q3.8-.139,8.25-0.14t9.516,0.14v-1.453a26.11,26.11,0,0,1-5.789-.351q-1.01-.352-1.008-2.321V87.539a2.626,2.626,0,0,1,.281-1.43,1.721,1.721,0,0,1,1.266-.492h2.672q4.359,0,5.953,1.734,1.311,1.313,1.781,7.359h1.172q-0.236-2.343-.891-10.547h-28.64q-0.657,8.2-.891,10.547h1.172q0.422-5.578,1.875-7.336t5.859-1.758h0.844a6.328,6.328,0,0,1,3.094.469,3.485,3.485,0,0,1,.281,1.828v23.859a2.975,2.975,0,0,1-.4,1.829,2.737,2.737,0,0,1-1.664.656,38.774,38.774,0,0,1-4.735.187V115.9Zm43.008-18.445a7.725,7.725,0,0,0-6.07-2.555,9.267,9.267,0,0,0-4.594,1.266,9.611,9.611,0,0,0-3.82,3.914,11.171,11.171,0,0,0-1.43,5.461,11.3,11.3,0,0,0,.563,3.516,11.58,11.58,0,0,0,.96,2.015,16.857,16.857,0,0,0,1.735,2.368,8.46,8.46,0,0,0,2.906,2.132,9.676,9.676,0,0,0,7.688.094,6.715,6.715,0,0,0,2.531-1.828,10.417,10.417,0,0,0,1.312-2.016,3.809,3.809,0,0,0,.446-1.547,0.769,0.769,0,0,0-.094-0.328,0.547,0.547,0,0,0-.984.141q-1.689,5.157-6.563,5.156a6.482,6.482,0,0,1-4.5-2.25q-2.016-2.484-2.016-7.922h13.079a1.65,1.65,0,0,0,.937-0.164,0.987,0.987,0,0,0,.187-0.726A9.746,9.746,0,0,0,162.039,97.453Zm-1.008,4.664,0.094,1.078a4.873,4.873,0,0,0,.047.891H150.156a9.537,9.537,0,0,1,1.688-5.836,4.924,4.924,0,0,1,4.031-2.273,4.417,4.417,0,0,1,2.508.7,4.306,4.306,0,0,1,1.57,1.852,15.945,15.945,0,0,1,.75,1.946,9.7,9.7,0,0,1,.328,1.593v0.047Zm14.907,8.438,6.234-9.235,0.047,0.094a0.042,0.042,0,0,1,.047.047L189.3,112.1a3.147,3.147,0,0,1,.515.984,1.371,1.371,0,0,1-.96.937,4.92,4.92,0,0,1-2.086.422V115.9q3.749-.139,6.937-0.14,3.28,0,6,.14v-1.453a15.029,15.029,0,0,1-3.094-.234,3.364,3.364,0,0,1-1.429-.586,6.973,6.973,0,0,1-1.055-1.383q-2.907-4.312-5.344-8.062t-3.164-4.852a10.828,10.828,0,0,0-1.1-1.477V97.8l0.046-.047,5.344-7.828L190,89.836a0.135,0.135,0,0,0,.047-0.094,16.451,16.451,0,0,1,1.641-2.273,6.642,6.642,0,0,1,2.25-1.453,9.434,9.434,0,0,1,3.8-.68V83.883q-1.593.095-5.2,0.094-3.843,0-6-.094v1.453a2.932,2.932,0,0,1,2.2.773,2.135,2.135,0,0,1,.75,1.336,22.065,22.065,0,0,1-2.414,4.125,58.671,58.671,0,0,1-3.445,4.922L182.5,94.758l-3.609-5.484A9.875,9.875,0,0,1,177.3,86.7a1.339,1.339,0,0,1,1.148-1.008,6.4,6.4,0,0,1,1.9-.352V83.883q-2.485.095-6.938,0.094-4.172,0-6-.094v1.453h1.875c0.094,0,.336.016,0.727,0.047a1.842,1.842,0,0,1,.8.188,6.113,6.113,0,0,0,.633.352,2.539,2.539,0,0,1,.726.539,7.6,7.6,0,0,1,.633.8l5.344,8.063,3.047,4.688a1.471,1.471,0,0,1-.235.469l-6.469,9.562a11.778,11.778,0,0,1-3.046,3.352,8.293,8.293,0,0,1-4.641,1.054V115.9q2.391-.139,5.156-0.14t6,0.14v-1.453a2.887,2.887,0,0,1-2.2-.75,2.116,2.116,0,0,1-.7-1.359,4.05,4.05,0,0,1,.891-1.781h0ZM235.891,82.8a1.7,1.7,0,0,1,1.054-.867A1.528,1.528,0,0,0,238,80.883a0.758,0.758,0,0,0-.141-0.469,1.323,1.323,0,0,0-.609-0.352,7.515,7.515,0,0,0-.914-0.258q-0.446-.093-1.43-0.234-0.843-.141-1.312-0.234a0.584,0.584,0,0,0-.469.422l0.141,1.688q0.045,0.422.046,1.406,0.094,2.813.094,3.469,0,1.125-.094,2.063a0.859,0.859,0,0,1-.421.563,16.166,16.166,0,0,1-3.516.188q-2.812,0-7.828-.141l-0.891-.469a9.159,9.159,0,0,0-2.344-1.172l-0.281.328q0.141,2.953.141,10.172,0,4.829-.047,8.671a2.691,2.691,0,0,0,.328,1.735,0.2,0.2,0,0,1,.141.047h1.125a0.978,0.978,0,0,0,.82-0.328,2.4,2.4,0,0,0,.305-1.266,1.121,1.121,0,0,1,.773-1.149,25.935,25.935,0,0,1,3.961-.164h0.891q2.436,0,3.773.047a13.039,13.039,0,0,1,2.016.188,1.93,1.93,0,0,1,.844.305,0.743,0.743,0,0,1,.164.539v1.781q0,5.3-.235,12.515a1.181,1.181,0,0,0,1.078.657,2.28,2.28,0,0,0,1.5-.352,1.445,1.445,0,0,0,.375-1.1q0-.657-0.14-3.915t-0.141-5.554q0-2.062.188-4.219a0.588,0.588,0,0,1,.586-0.609q0.585-.095,3.867-0.094h3.094q3.843,0,4.5.094a0.977,0.977,0,0,1,.585.984,1.4,1.4,0,0,0,.68,1.172l0.8,0.047a1.3,1.3,0,0,0,1.219-1.266l-0.281-5.765a1.4,1.4,0,0,1-.047-0.422l0.14-8.11a1.851,1.851,0,0,1,.8-1.336,1.809,1.809,0,0,0,.8-1.148,3.785,3.785,0,0,0-1.336-1.547q-1.337-1.171-1.992-.75L247.75,88.9l-3,.094q-1.687.095-4.828,0.094-2.25,0-3.328-.047a0.61,0.61,0,0,1-.68-0.422,11.371,11.371,0,0,1-.164-2.016,22.721,22.721,0,0,1,.141-3.8h0Zm0.093,8.109a6.506,6.506,0,0,1,1.922-.187h10.078c0.312,0,.469.234,0.469,0.7v12.047q-0.047.328-.656,0.328-0.657.094-2.2,0.187l-9-.047a0.751,0.751,0,0,1-.727-0.8q-0.117-.8-0.117-5.062a69.508,69.508,0,0,1,.234-7.172h0Zm-14.625,12.891a0.5,0.5,0,0,1-.421-0.61q0-.327-0.071-2.742t-0.07-5.226q0-1.64.023-2.484a12.42,12.42,0,0,1,.094-1.336,1.3,1.3,0,0,1,.164-0.586,0.458,0.458,0,0,1,.328-0.094H232.75a0.337,0.337,0,0,1,.328.188,3.57,3.57,0,0,1,.188.867,18.107,18.107,0,0,1,.117,1.969q0.022,1.29.023,3.633,0,4.173-.094,5.273t-0.515,1.149H221.359Zm72.375-23.3-1.265,1.313h-9.985a5.429,5.429,0,0,1-.8-0.539,7.892,7.892,0,0,0-.985-0.656,1.8,1.8,0,0,0-.844-0.258,0.359,0.359,0,0,0-.281.422l0.281,11.578v0.7a51.125,51.125,0,0,1-1.195,12.047,21.9,21.9,0,0,1-3.352,7.758,22.957,22.957,0,0,1-5.906,5.414l-2.672,1.594a0.255,0.255,0,0,0-.093.14,3.05,3.05,0,0,0,.093.516,0.82,0.82,0,0,0,.211.3,0.6,0.6,0,0,0,.446.164,4.789,4.789,0,0,0,2.109-.844l2.859-1.828a19.62,19.62,0,0,0,8.063-10.125l0.937-2.953a0.547,0.547,0,0,1,.563-0.61q1.688,0,4.125-.023t3.141-.023q2.624,0,2.953.023a0.9,0.9,0,0,1,.609.352v10.546q0,0.8-2.062.8l-5.438-.515a1.08,1.08,0,0,0-.4.468,0.808,0.808,0,0,0,.046.75,1.506,1.506,0,0,0,.961.657l1.782,0.281a4.222,4.222,0,0,1,1.734.469,2.028,2.028,0,0,1,.844.75,2.358,2.358,0,0,0,.515.679,1.192,1.192,0,0,0,.844.305,3.941,3.941,0,0,0,2.414-1.125,3.247,3.247,0,0,0,1.383-2.2,7.417,7.417,0,0,1,.047-0.984l-0.094-7.266q0-9.421.188-15.609V89.7a45.758,45.758,0,0,1,.14-4.875,0.273,0.273,0,0,1,.047-0.187l0.469-.516a1.875,1.875,0,0,0,.844-1.172,2.716,2.716,0,0,0-1.149-1.617,3.43,3.43,0,0,0-1.617-1.008,1.485,1.485,0,0,0-.516.188h0Zm-23.39,1.781q-1.266.047-3.328,0.047a17.709,17.709,0,0,1-3.868-.3,4.359,4.359,0,0,1-1.734-.727,2.166,2.166,0,0,0-.961-0.516,0.463,0.463,0,0,0-.328.563q0,0.094.047,3t0.047,8.344q0,11.064-.328,16.172a1.047,1.047,0,0,0,1.171.844,1.614,1.614,0,0,0,.469-0.047l0.61-.234a3.485,3.485,0,0,0,.468-2.3q0.046-1.452.8-1.453h1.032q1.264-.047,3.281-0.047a16.652,16.652,0,0,1,3.234.187,0.292,0.292,0,0,1,.164.047,0.233,0.233,0,0,1,.094.141c0.015,0.063.031,0.125,0.047,0.187a1.16,1.16,0,0,1,.023.258v0.914a2.665,2.665,0,0,0,.258,1.43,0.9,0.9,0,0,0,.773.351q1.548-.093,1.594-1.218l0.047-.657-0.094-5.156V88.148q0-2.25.047-2.766A0.82,0.82,0,0,1,274,85.148l0.422-.469a3.083,3.083,0,0,1,.328-0.281,2.706,2.706,0,0,0,.258-0.211,2.448,2.448,0,0,1,.187-0.164,0.415,0.415,0,0,0,.141-0.164c0.015-.047.031-0.1,0.047-0.164a0.8,0.8,0,0,0,.023-0.187,1.723,1.723,0,0,0-.609-1.172l-1.406-1.172a0.9,0.9,0,0,0-.657-0.281,1.963,1.963,0,0,0-1.078.68,1.937,1.937,0,0,1-1.125.68,0.268,0.268,0,0,1-.187.047h0ZM282.719,91.8l-0.235-.281q-0.046-1.921-.046-4.734,0-2.3.023-2.578a1.041,1.041,0,0,1,.351-0.609h9.75l0.329,0.375V91.43a0.526,0.526,0,0,1-.516.422Zm10.031,10.359a0.643,0.643,0,0,1-.445.563,10.4,10.4,0,0,1-1.711.14l-8.578-.047-0.235-.234,0.281-2.766q0.236-4.687.329-5.414a0.69,0.69,0,0,1,.7-0.727h9.468a0.544,0.544,0,0,1,.329.469v0.234a1.419,1.419,0,0,0,.023.234,5.176,5.176,0,0,1,.024.633v1.289a53.647,53.647,0,0,1-.188,5.625h0ZM263.172,92.7q-0.377-.141-0.375-3.656,0-2.859.094-4.781a1.028,1.028,0,0,1,.656-0.187,2.17,2.17,0,0,1,.562-0.047l4.407,0.047,2.437,0.047q0.422,0.047.422,0.891,0.093,4.032.094,4.828a22.445,22.445,0,0,1-.071,2.25,0.575,0.575,0,0,1-.445.609h-7.781Zm6.047,11.3-6.141-.14-0.281-.282q-0.095-4.123-.094-5.109V96.727a4.7,4.7,0,0,1,.024-0.539c0.015-.141.03-0.3,0.046-0.469s0.031-.312.047-0.422a1.315,1.315,0,0,1,.094-0.328,0.765,0.765,0,0,1,.141-0.234,0.624,0.624,0,0,1,.164-0.117l1.219-.187a5.411,5.411,0,0,0,.89.047q5.438,0.094,5.625.141a0.7,0.7,0,0,1,.375.609v0.7q0.093,3.844.094,4.687a17.854,17.854,0,0,1-.117,2.719,0.531,0.531,0,0,1-.493.516q-1.031.095-1.593,0.14h0Zm69.656-12.82q-0.047-1.992-.094-2.766c-0.031-.516-0.047-0.8-0.047-0.867a3.007,3.007,0,0,1,.985-2.484V84.961l-0.188-.7a3.5,3.5,0,0,0-1.031-1.2,0.968,0.968,0,0,0-1.125-.258l-0.75.75a3.787,3.787,0,0,1-2.3.422,1.841,1.841,0,0,1-1.195-.234,2.53,2.53,0,0,1-.211-1.359l0.047-.094,0.469-.422q0.936-.656.75-1.078a1.772,1.772,0,0,0-1.126-.727,5.159,5.159,0,0,0-1.5-.3,0.746,0.746,0,0,0-.8.375l0.093,3.422-0.093.141a0.487,0.487,0,0,1-.422.141q-0.141.047-2.625,0.047a0.948,0.948,0,0,1-.328-0.937,1.548,1.548,0,0,1,.75-1.406A0.956,0.956,0,0,0,328.8,80.7a1.22,1.22,0,0,0-.867-0.773,4.262,4.262,0,0,0-1.571-.3,0.966,0.966,0,0,0-.867.281,2.852,2.852,0,0,0-.164,1.219q0.047,0.516.047,1.313a4.691,4.691,0,0,1-.141,1.359,3.31,3.31,0,0,1-1.359.234,4.832,4.832,0,0,1-1.57-.281,11.405,11.405,0,0,1-1.383-.562,2.98,2.98,0,0,0-.656-0.281,0.367,0.367,0,0,0-.375.281q0.045,2.063.047,5.156,0,4.219-.188,4.266a1.644,1.644,0,0,1-.867-0.586,1.094,1.094,0,0,0-.867-0.492,3.092,3.092,0,0,0-.422.328,4.373,4.373,0,0,1-.563.422,0.426,0.426,0,0,1-.469,0l-0.093-2.062q0-4.546-.047-4.875a2.6,2.6,0,0,1,.328-1.617,8.535,8.535,0,0,1,.633-0.984,1.1,1.1,0,0,0-.211-1.055l-1.36-1.359a1.151,1.151,0,0,0-1.148.445,3.435,3.435,0,0,1-.867.68l-5.953.047a2.849,2.849,0,0,1-1.1-.562,2.27,2.27,0,0,0-1.195-.516h-0.188q0,1.406.118,4.359t0.117,4.875a19.193,19.193,0,0,1-.094,2.461,0.529,0.529,0,0,1-.516.539,1.9,1.9,0,0,1-.3-0.7,1.427,1.427,0,0,0-.352-0.7,0.554,0.554,0,0,0-.89.281,14.826,14.826,0,0,0-.4,2.086q-0.258,1.712-.351,1.992a7.553,7.553,0,0,1-.61,1.125,3.205,3.205,0,0,0-.562,1.5,1.221,1.221,0,0,0,.328.867,0.849,0.849,0,0,0,.89.211,2.167,2.167,0,0,0,1.383-1.336,9.714,9.714,0,0,0,.633-2.156,2.194,2.194,0,0,1,.469-1.289l11.531-.234,0.141,0.234-0.047.047-1.36,2.156a1.014,1.014,0,0,0-.656.141L313.75,97.9q-1.407.141-2.766,0.141t-2.765-.141c-0.094-.062-0.29-0.195-0.586-0.4a7.272,7.272,0,0,0-.821-0.492,1.586,1.586,0,0,0-.7-0.187,0.356,0.356,0,0,0-.421.281l0.093,3.562,0.047,12.609v0.8q-0.046,2.016-.047,4.735v0.7a9.857,9.857,0,0,0,.071,1.57,0.465,0.465,0,0,0,.539.3,1.5,1.5,0,0,0,1.382-.516,4.919,4.919,0,0,0,.3-2.156q0-.469-0.07-2.438t-0.07-3.187v-1.125a1.513,1.513,0,0,1,.093-0.563,0.684,0.684,0,0,1,.164-0.281,2.094,2.094,0,0,1,.305-0.14l5.25-.047,0.375,0.328q0.093,1.406.094,2.062v1.032q0,1.03-.094,3.093a1.647,1.647,0,0,1-1.406.469q-0.235,0-.75-0.047t-0.938-.047q-1.406,0-1.406.8a3.778,3.778,0,0,0,1.758.727,2.8,2.8,0,0,1,2.086,1.57H313.7a2.816,2.816,0,0,0,1.758-.75,2.4,2.4,0,0,0,.961-1.781q0-.187-0.024-0.821t-0.046-1.9q-0.025-1.266-.024-2.625V101.93a3.672,3.672,0,0,1,.516-2.133,3.9,3.9,0,0,0,.515-0.82l-0.187-.516a0.962,0.962,0,0,1-.328-1.2,10.254,10.254,0,0,1,2.062-2.414l0.563-.094,0.234,0.188a2.877,2.877,0,0,0,.375,1.781,1.49,1.49,0,0,0,1.172.422,0.967,0.967,0,0,0,.8-0.7l0.375-.75Q325.235,95.6,328,95.6q5.2,0,5.531.094h2.719l0.328,0.188L337,96.727a0.889,0.889,0,0,0,.422.234,0.574,0.574,0,0,1,.422.422,1.8,1.8,0,0,1-1.219,1.125,59.916,59.916,0,0,1-6.047.141l-8.062.047-3.7-.422a0.436,0.436,0,0,0-.468.516l0.047,0.281c0.062,0.157.132,0.328,0.211,0.516a3.215,3.215,0,0,0,.3.562,1.053,1.053,0,0,0,.375.375q6.188-.421,14.391-0.421l7.031-.047a0.742,0.742,0,0,0,.7-0.75,4.194,4.194,0,0,0-1.265-1.617,5.249,5.249,0,0,1-1.219-1.336Q338.922,93.164,338.875,91.172Zm-6.75,26.976c-0.125,0-.187-0.125-0.187-0.375q0.561-.843.984-1.5a8.891,8.891,0,0,0,.562-0.961q0.141-.3.258-0.539a2.376,2.376,0,0,1,.188-0.328,0.869,0.869,0,0,1,.211-0.187l0.562-.235a1.216,1.216,0,0,0,1.078-.468,0.675,0.675,0,0,0-.047-0.539,0.448,0.448,0,0,1,.047-0.539,3.157,3.157,0,0,0,1.2-.329,0.988,0.988,0,0,0,.468-0.445,1.729,1.729,0,0,0,.071-0.539v-1.219a29.924,29.924,0,0,0-.188-3.562,1.657,1.657,0,0,1,.516-1.313,2,2,0,0,0,.609-1.125,3.94,3.94,0,0,0-1.383-1.359,1.105,1.105,0,0,0-1.336.047,4.1,4.1,0,0,1-.843.609,19.9,19.9,0,0,1-3.422.141q-3.562-.093-4.313-0.094a15.72,15.72,0,0,0-2.015.094l-0.657.047a3.444,3.444,0,0,1-1.734-.657,9.077,9.077,0,0,0-1.312-.75,0.772,0.772,0,0,0-.282.469l0.094,3.094q0,0.609-.094,6.516a1.3,1.3,0,0,0,1.032.375,2.073,2.073,0,0,0,.937-0.235l0.328-.515a1.035,1.035,0,0,1,.516-0.8l1.781-.141,9.047,0.047,0.328,0.281a2.506,2.506,0,0,1,.094,1.313,0.2,0.2,0,0,0-.141-0.047l-1.828-.844a0.274,0.274,0,0,0-.188-0.094,0.593,0.593,0,0,0-.656.375l-1.218,4.266q-0.657,1.968-1.5,2.062h-2.626l-0.187-.187a0.652,0.652,0,0,1,.234-0.539,1.55,1.55,0,0,0,.282-1.055,5.16,5.16,0,0,0-1.079-2.906q-1.078-1.546-1.968-1.547-0.61,0-.422.7l0.609,1.313a2.865,2.865,0,0,1,.235.843q0.28,1.266.656,2.485a0.748,0.748,0,0,1,0,.844,8.949,8.949,0,0,1-1.547.093h-0.7a25.068,25.068,0,0,1-5.3-.422l-0.469.329a1.937,1.937,0,0,0,.7,1.734q5.157-.235,15.469-0.281h0.656q1.079,0,2.649.023t2.039,0.024q0.7,0,1.453-.024c0.5-.016.765-0.023,0.8-0.023a0.461,0.461,0,0,0,.469-0.563,0.915,0.915,0,0,0-.188-0.469l-2.2-2.3a0.748,0.748,0,0,0-.328-0.094,1.875,1.875,0,0,0-1.219,1.008,2.067,2.067,0,0,1-1.734,1.007h-3.844ZM333.3,88.617a0.1,0.1,0,0,0-.024-0.07l-0.046-.047a0.479,0.479,0,0,1-.071-0.141,1.2,1.2,0,0,1-.07-0.281c-0.016-.109-0.032-0.281-0.047-0.516s-0.023-.492-0.023-0.773a8.573,8.573,0,0,1,.046-1.125l0.985-.234h0.7a4.2,4.2,0,0,1,1.688.234,8.758,8.758,0,0,1,.14,1.359,8.435,8.435,0,0,1-.14,1.547,7.134,7.134,0,0,1-1.641.188,7.642,7.642,0,0,1-1.5-.141h0Zm3,1.734a2.6,2.6,0,0,1,.422,1.875,8.393,8.393,0,0,1-.141,1.453q-0.046.516-2.062,0.516a2.635,2.635,0,0,1-1.313-.234,19.954,19.954,0,0,1-.141-3.375q0.094-.422,1.547-0.422a8.246,8.246,0,0,1,1.688.188h0Zm-8.438-1.641a0.437,0.437,0,0,1-.421-0.422,17.453,17.453,0,0,1,.093-2.3A0.7,0.7,0,0,1,328,85.336l2.578,0.141A3.008,3.008,0,0,1,331,87.492a1.638,1.638,0,0,1-.234,1.1,1.576,1.576,0,0,1-.985.211A11.65,11.65,0,0,1,327.859,88.711Zm2.016,5.438c-0.125,0-.305.008-0.539,0.023s-0.4.023-.492,0.023a3.108,3.108,0,0,1-1.172-.141,5.008,5.008,0,0,1-.234-1.734,2.939,2.939,0,0,1,.374-1.969h2.907l0.234,0.328v2.672a0.865,0.865,0,0,1-.375.8h-0.7Zm-7.734-5.719q0-2.2.047-2.391l0.281-.422a2.262,2.262,0,0,1,1.125-.187q0.281,0,1.5.094a2.823,2.823,0,0,1,.422,1.875,1.818,1.818,0,0,1-.258,1.242,2.412,2.412,0,0,1-1.289.211q-1.641,0-1.828-.422h0Zm0.093,2.109a1.854,1.854,0,0,1,.75-0.281l2.11,0.094q0.468,0,.468,1.922a9.941,9.941,0,0,1-.14,1.641,2.58,2.58,0,0,1-1.688.328c-0.25,0-.461-0.007-0.632-0.023s-0.313-.031-0.422-0.047a0.55,0.55,0,0,1-.258-0.094,1.16,1.16,0,0,0-.141-0.094,0.243,0.243,0,0,1-.093-0.117l-0.047-.094q0-2.2.093-3.234h0Zm-10.5-4.594a4.306,4.306,0,0,0-1.359-.422,0.552,0.552,0,0,0-.516.234v1.266q0.046,1.172.047,3a24.829,24.829,0,0,1-.094,2.531,3.293,3.293,0,0,1-1.171.281,1.11,1.11,0,0,1-.493-0.07,1.274,1.274,0,0,1-.281-0.586,6.178,6.178,0,0,1-.187-1.617q-0.024-1.1-.024-3.258,0-1.828.188-3.984h0.047l1.5-.187q0.843-.046,2.25-0.047a14.791,14.791,0,0,1,2.437.141,4.574,4.574,0,0,1,.234,1.453,3.563,3.563,0,0,1-.164,1.383,0.863,0.863,0,0,1-.82.3A4.314,4.314,0,0,1,311.734,85.945Zm1.454,1.969a0.988,0.988,0,0,1,.984.4,6.443,6.443,0,0,1,.187,2.039,18.235,18.235,0,0,1-.093,2.109,1.245,1.245,0,0,1-.985.328A3.4,3.4,0,0,1,312.2,92.6a6.426,6.426,0,0,1-.281-2.719,4.3,4.3,0,0,1,.187-1.57,0.7,0.7,0,0,1,.7-0.4h0.376ZM334.7,109.2q-0.236,0-3.258.094t-4.945.094a15.866,15.866,0,0,1-2.438-.094q-0.561-.047-0.562-2.344a5,5,0,0,1,.281-1.828q0.375-.234,11.11-0.234a3.788,3.788,0,0,1,.375,2.2q0,2.109-.563,2.109h0Zm-26.437-5.812a4.309,4.309,0,0,1-.282-1.688,12.944,12.944,0,0,1,.141-1.828l0.094-.094,0.8-.187h0.468q3.75,0.047,4.407.141a6,6,0,0,1,.14,3.468q-0.329.329-3.375,0.328a19.237,19.237,0,0,1-2.39-.14h0Zm5.859,2.344-0.047,3.234a0.154,0.154,0,0,0-.14.07,0.411,0.411,0,0,1-.118.117,1.179,1.179,0,0,1-.375.094,5.537,5.537,0,0,1-.82.047q-1.032.048-2.578,0.047a9.821,9.821,0,0,1-1.781-.094,2.67,2.67,0,0,1-.235-1.547q0-2.2.375-2.578,1.171-.047,5.438-0.047l0.281,0.328v0.329Z"/>
</svg>
