<svg xmlns="http://www.w3.org/2000/svg" width="1540" height="1450" viewBox="0 0 1540 1450">
  <defs>
    <style>
      .cls-1 {
        fill: #fff;
      }

      .cls-1, .cls-2, .cls-3 {
        fill-rule: evenodd;
      }

      .cls-2 {
        fill: #fefefe;
      }

      .cls-3 {
        fill: #fdfdfd;
      }
    </style>
  </defs>
  <path id="字体名称" class="cls-1" d="M420.668,346.068q-1.712-15.627-17.822-19.287a10.586,10.586,0,0,1-4.151-1.343,1.6,1.6,0,0,1-.732-2.075q0.24-.732,8.3-0.488,12.938,0.732,15.991.244a5.882,5.882,0,0,0,4.516-3.418q1.219-1.952,1.221-32.226t-1.221-32.227q-2.2-4.881-10.62-3.784t-8.422,6.47q0,3.661-8.667,6.225t-11.353-.122q-1.224-1.218-.488-16.113A492.076,492.076,0,0,0,386,173.949q-0.732-7.324,0-8.056t9.277,2.929q18.8,8.057,24.292,5t5.982-21.118v-0.244q0-5.859-3.174-6.836t-22.461-.977H380.873q-5.373.98-6.348,7.325-0.732,3.175-.976,34.423-0.492,54.2-5,81.177a156.533,156.533,0,0,1-17.7,50.659,159.843,159.843,0,0,1-9.033,14.405q-10.5,13.916-14.649,14.892-2.689.732,1.709-7.812Q348.4,300.9,351.82,236.938q0.734-10.742.733-35.157t-0.733-28.32a25.407,25.407,0,0,1,0-7.08q0.734-3.663.489-16.6t-1.221-21a3.706,3.706,0,0,1,0-1.953q0.486-1.218,11.719,4.15,1.7,0.734,4.394,2.2a39.619,39.619,0,0,0,12.573,4.028q5.495,0.612,30.4.61h12.207q44.185,0,45.654-.732,2.929-1.466,8.057-8.789,4.881-7.078,6.47-7.568t6.469,2.929a93.9,93.9,0,0,1,12.207,10.865q5.368,5.739,4.639,7.446t-4.272,2.075q-3.543.366-24.048,0.61t-24.414.733q-3.909.492-4.395,2.441a3.263,3.263,0,0,0,1.709,2.442q3.9,2.2-1.465,3.906-2.444.978-7.324,7.568t-4.883,9.033q-0.246,2.69,1.953,3.174t13.916,0.489q12.206,0,14.527-.855t6.958-6.958q3.662-5.127,5.371-5.249t7.568,4.517q10.008,7.815,12.085,11.23t-1.587,5.859q-4.394,2.931-5,13.916t1.1,51.514q0.24,6.1-.732,7.691t-6.592,3.54q-16.113,6.105-16.113-.977,0-6.833-10.01-6.836h-2.93q-4.641-.24-5.615,2.686-1.225,3.662-1.465,37.353-0.492,36.621-.977,38.33-2.442,11.228-11.718,15.625a43.966,43.966,0,0,1-9.888,3.3q-5.985,1.339-6.47.366Zm49.805-115.356q0-11.352-3.174-13.306-1.711-1.218-28.2-.976T410.9,217.9q-3.175,1.956-3.173,12.817t3.173,12.817q1.705,1.226,28.2,1.465t28.2-.976Q470.468,242.067,470.473,230.712ZM470.6,195.8q0.12-11.108-3.3-13.306-1.711-1.218-28.2-.976t-28.2,1.464q-3.421,2.2-3.173,13.306t3.906,12.817q1.952,0.98,27.588.733t27.588-1.221Q470.473,206.912,470.6,195.8ZM298.842,338.622q-0.979-5.007.244-16.968,1.952-21.24-.732-31.25t-10.987-11.718q-4.887-.974-4.883-2.93,0-2.437,6.592-2.442h2.686A7.554,7.554,0,0,0,298.6,269.9q4.147-6.1,27.343-59.814,6.593-14.889,10.254-23.682,6.346-14.648,8.057-17.822t2.93-2.93a2.722,2.722,0,0,1,.976.489q0.974,1.464-8.3,29.785-15.14,48.339-18.554,60.425a133.3,133.3,0,0,0-4.395,20.63q-0.978,8.057,2.93,22.949,8.788,31.986-1.221,41.992a14.876,14.876,0,0,1-7.08,3.784q-4.395,1.1-7.08-.122A8.981,8.981,0,0,1,298.842,338.622ZM360.854,328a141.8,141.8,0,0,0,17.822-25.024,120.918,120.918,0,0,0,11.963-27.955,1.876,1.876,0,0,1,.244-0.732,21.617,21.617,0,0,1,.61-2.441c0.08-.161.282-0.569,0.611-1.221a0.8,0.8,0,0,1,1.342-.366,7.844,7.844,0,0,0,1.831.976,28.093,28.093,0,0,1,3.174,1.587,21.863,21.863,0,0,1,2.2,1.221q9.03,4.641,11.475,5.859,11.719,5.373,3.662,7.08-3.175.734-8.545,7.569a206.492,206.492,0,0,1-28.686,27.588q-16.48,13.184-19.654,11.23-1.71-1.465,1.954-5.371h0Zm125.976-1.221a16.767,16.767,0,0,1-1.709-4.883q-5.619-20.26-21.24-40.771-3.175-3.9-3.174-5.371,0-2.437,12.451,3.906,14.649,6.839,23.194,16.358t9.277,19.287q0.732,8.3-4.273,12.573T490,328.979A9.313,9.313,0,0,1,486.83,326.781ZM302.992,212.035q-1.464-.732-3.174-5.371a67.708,67.708,0,0,0-15.869-25.879,6.74,6.74,0,0,1-1.465-2.441q-0.246-1.951,4.639-1.709,10.986,0.978,21.729,8.3a26.154,26.154,0,0,1,7.324,7.324q6.1,9.281,2.2,17.334-4.154,8.057-14.4,2.929a2.564,2.564,0,0,1-.977-0.488h0Zm17.09-57.617q-4.154-12.692-17.822-28.564-3.422-3.663-.977-4.883,4.881-2.2,21.485,6.1a32.559,32.559,0,0,1,11.474,9.522q8.056,10.254,5.127,18.8t-14.892,4.15a7.431,7.431,0,0,1-4.395-5.127h0ZM723.158,345.824q-1.956-1.956-3.418-7.324-6.105-20.508-10.254-24.17t-17.822-.488q-43.213,10.014-109.375,21-14.649,2.2-19.165,3.418T556.9,341.43q-2.929,3.416-4.638,1.22-0.734-.732-6.348-13.916t-5.615-14.16a0.494,0.494,0,0,1,.122-0.366,2.187,2.187,0,0,1,.854-0.244c0.489-.08,1.259-0.16,2.32-0.244s2.563-.2,4.516-0.366,4.433-.283,7.447-0.367,6.714-.2,11.108-0.366q13.67-.486,16.6-1.587t5.127-6.714q4.633-10.494,12.573-34.912t11.352-38.33a3.992,3.992,0,0,1,.244-1.221q1.952-7.565.245-9.033-2.444-1.706-22.461-1.709h-1.709a339.971,339.971,0,0,0-41.5,2.2q-7.325.979-8.3,0.489t-3.662-5.371q-1.957-3.663-1.953-4.883-0.246-1.219,1.465-.977,6.345,1.466,96.191,1.465h18.311q47.115,0,55.3-.488t9.888-3.662a5.659,5.659,0,0,1,.977-1.465q9.029-12.691,11.108-13.55t8.911,4.517q20.994,15.627,18.067,19.287-1.226,1.71-7.935,2.075t-45.776.366q-43.946,0-48.828.733a5.323,5.323,0,0,0-4.151,2.441q-2.689,3.661-8.789,16.113-16.845,32.228-31.982,56.153-6.107,9.52-6.592,10.742-1.465,4.153,4.883,4.883t60.3-3.174q26.123-1.705,31.006-2.442t5.86-2.929q1.218-2.683-7.08-15.259a287.169,287.169,0,0,0-21.241-27.71q-4.64-5.367-4.638-6.836,0-3.169,21.484,9.522t35.767,28.808q14.282,16.113,17.7,31.494,2.929,13.183-1.221,21.118t-12.7,5.982Q725.111,347.776,723.158,345.824ZM560.8,148.681q-2.443-4.761-2.442-5.738c0-.488,1.221-0.648,3.662-0.488q14.649,1.224,70.8,1.221h18.067q28.071,0,33.325-.855t8.911-6.225q1.464-2.2,2.441-3.418,5.367-7.325,6.958-7.935t5.738,2.075a146.873,146.873,0,0,1,14.892,11.841q6.832,6.227,6.592,7.935a2.522,2.522,0,0,1-1.465,2.441q-3.175.978-70.8,1.221-53.958.246-64.941,0.488a155.5,155.5,0,0,0-21.484,1.953q-6.352.979-7.325,0.733A40.114,40.114,0,0,1,560.8,148.681ZM951.43,332.4q-5.619-4.394-16.846-6.591-6.351-1.466-6.348-3.174t13.184-.733q17.818,0.979,19.531.977,7.324-.24,8.789-5.615,0.974-3.417.977-27.588v-9.766a77.959,77.959,0,0,1,.244-7.812,20.161,20.161,0,0,0-.366-5.493,19.974,19.974,0,0,1-.489-4.273q0.121-.732-1.464-2.563t-2.2-1.831a30.191,30.191,0,0,1-3.662-.611,14.566,14.566,0,0,0-4.638-.366,56.211,56.211,0,0,1-6.714.244H939.711q-19.289,0-22.217,1.465-2.443,1.465-3.906,7.813a6.617,6.617,0,0,0-.244,1.464q-11.72,52.248-60.547,79.1-5.373,2.929-6.836.976-0.492-.732,3.662-4.638,20.994-18.556,31.738-40.65t14.16-54.321q1.466-13.184,1.221-57.495T895.033,132.2q-0.732-6.345.244-6.714t10.01,3.3q13.183,5.373,16.358,5.86t22.46,0.488h7.569q12.692,0,15.5-.855t6.958-6.225a14.562,14.562,0,0,1,1.709-2.2q2.683-3.417,5.859-2.442t11.719,7.813q7.564,6.1,8.548,8.545c0.65,1.628-.58,3.173-3.665,4.638a11.454,11.454,0,0,0-4.639,4.151q-0.492,1.224-.732,90.087-0.246,69.095-.611,81.177T990,336.059q-4.641,9.028-21.24,12.451-6.838,1.464-7.691,1.1T959,345.336Q957.041,336.788,951.43,332.4Zm19.287-107.421v-7.569a43.42,43.42,0,0,1,.244-6.1,12.436,12.436,0,0,0-.488-4.4q-0.733-3.169-.489-3.418t-1.464-1.953q-1.711-1.706-2.076-1.465t-3.418-.488a11.672,11.672,0,0,0-4.272-.488,44.862,44.862,0,0,1-6.226.244H936.537q-13.676-.24-16.113,2.2-1.957,2.2-2.2,14.16-0.247,3.422-.245,5.371-0.492,20.754-.366,23.56a5.279,5.279,0,0,0,1.587,4.028q1.466,1.226,23.926,1.587t24.658-.854a5.34,5.34,0,0,0,2.564-4.4q0.366-3.169.366-20.019h0Zm-0.366-37.842q0.366-3.171.366-19.531v-7.081q0.24-13.915-2.2-16.235t-16.846-2.075h-14.16q-14.409-.24-16.846,2.075t-2.441,15.747v6.1q0,16.113.488,19.9t2.685,5q1.706,1.224,23.194,1.465t23.193-.977A5.336,5.336,0,0,0,970.351,187.133ZM789.809,302.123q-0.492-2.437.244-13.672,1.706-26.853,1.709-81.3,0-49.558-1.709-68.6-0.734-7.81.366-8.3T802.5,134.4a102.927,102.927,0,0,0,13.061,4.4q3.537,0.732,14.039.977,14.156,0,16.6-.855t8.057-7.935q4.148-5.367,7.324-4.394t13.184,10.986q3.416,3.663,4.516,4.761a4.137,4.137,0,0,1,1.221,2.686,2.088,2.088,0,0,1-.977,2.2q-1.1.612-4.272,2.807a6.888,6.888,0,0,0-3.3,5.738q-0.366,4.028-.61,33.325,0,53.959,1.464,85.449,0.487,9.036-.366,10.986t-6.958,4.883q-9.52,4.641-12.817,3.418t-3.052-9.521q0.486-8.056-1.953-9.522t-16.113-1.465q-14.163,0-16.236,1.709t-1.831,12.94a71.6,71.6,0,0,1,0,8.789,4.927,4.927,0,0,1-1.465,2.686,25.688,25.688,0,0,1-8.789,4.76q-5.859,2.078-8.789,1.343Q790.294,304.569,789.809,302.123Zm60.058-42.358q0.486-4.029.488-21.851v-6.836q0-16.353-1.586-19.043t-11.841-2.685h-9.522q-10.746-.242-12.451,2.319t-1.709,18.677v7.324q0,18.8.488,22.583t2.686,5q1.706,1.224,15.5,1.1t15.5-1.342Q849.377,263.795,849.867,259.765Zm0.244-64.576q0.242-4.147.244-22.216v-6.348q0-15.381-2.2-17.822-1.956-2.2-12.207-1.953h-8.789q-10.5-.242-12.207,2.441t-1.709,18.8v6.592q0,18.069.488,21.728t2.686,5.127q1.706,1.224,16.113.855t15.625-1.587Q849.863,199.34,850.111,195.189ZM1059.71,345.7q-0.375-2.323.36-12.817,1.47-22.706,1.83-64.209t-0.85-43.7a2.794,2.794,0,0,0-.98-1.465q-1.95-1.706-10.01,7.812-15.63,18.31-18.55,17.578c-1.47-.324-1.14-2.277.97-5.859q15.63-25.875,30.52-66.528t14.89-57.984a1.374,1.374,0,0,1,.25-0.976q0.735-1.466,14.65,3.418,6.585,2.443,10.5,4.15,10.485,4.395,5.37,6.592-3.915,1.958-8.55,12.939-9.525,22.706-18.31,39.063-3.18,5.859-2.44,7.934t7.81,8.423q4.635,4.155,1.22,5.86-2.925,1.464-3.42,6.714-0.48,5.251-.73,35.522,0,41.016,1.96,45.654,1.455,2.2,6.34-3.174,15.87-18.065,31.5-46.752t20.99-49.195a6.287,6.287,0,0,0,.25-2.93q-1.965-8.542-41.02-2.929-6.345.978-7.32,0.488t-3.18-5.371q-2.445-4.881-2.19-5.371c0.16-.324,1.71-0.4,4.64-0.244q13.17,1.464,42.72,1.465,15.375-.242,17.21-1.954t1.83-14.892q-0.495-22.213-1.95-35.4-0.735-6.1,0-6.713c0.49-.405,2.6-0.122,6.35.854a191.008,191.008,0,0,1,19.04,5.615q6.585,2.929,3.17,6.348a9.348,9.348,0,0,0-3.17,5.493q-0.5,3.055-.49,18.189v5.859q-0.24,12.452,1.71,14.648,1.95,1.958,12.7,1.954h4.15q14.64,0,17.57-1.1t8.06-8.423a65.674,65.674,0,0,1,5.37-7.08,3.763,3.763,0,0,1,2.93-1.343c0.98,0.084,2.6,1.019,4.88,2.808a79.086,79.086,0,0,1,12.7,11.474q5.37,6.107,4.15,7.813c-0.82,1.305-2.52,2.037-5.13,2.2s-11.88.328-27.83,0.489q-15.375,0-18.06.244-14.415.246-15.14,3.173-0.735,1.465,3.66,10.743a156.922,156.922,0,0,0,26.98,40.649q17.445,19.41,36.74,30.4,5.13,2.929.98,5.859-3.42,2.444-6.96,8.545a46.118,46.118,0,0,0-5,11.963,3.362,3.362,0,0,1-.74,1.709q-1.215,1.224-9.52-7.08a165.532,165.532,0,0,1-25.76-34.424q-11.1-19.53-21.85-50.049-3.42-9.762-5.61-5.371-0.975,1.712-1.1,42.114t0.85,42.359a6.192,6.192,0,0,0,4.15,2.929,7.537,7.537,0,0,0,5.62-.732q2.685-1.466,7.32-8.545c1.79-2.766,3.06-4.6,3.79-5.493a3.474,3.474,0,0,1,3.29-1.1,6.733,6.733,0,0,1,3.91,1.831q1.71,1.592,6.35,6.226,3.9,3.908,5.86,5.981a14.849,14.849,0,0,1,2.81,4.029c0.56,1.3.61,2.2,0.12,2.685a9.03,9.03,0,0,1-3.66,1.465,32.168,32.168,0,0,1-6.72.854q-3.78.126-10.86,0.123-11.235,0-13.19.244-7.56.732-9.03,5.615-1.23,3.661,0,27.344,0.48,8.3-.12,10.009t-4.03,3.907a29.421,29.421,0,0,1-10.13,3.906q-5.985,1.218-8.18-.244a4.331,4.331,0,0,1-1.95-2.93,71.919,71.919,0,0,1,.24-9.766q0.48-8.549.73-13.305t0-9.888a52.823,52.823,0,0,0-.73-7.446,14.435,14.435,0,0,0-1.95-4.639,6.139,6.139,0,0,0-3.05-2.807,21.424,21.424,0,0,0-5.01-.611,30.928,30.928,0,0,0-6.71.488q-3.3.613-8.91,1.832c-4.07.976-6.44,1.342-7.08,1.1-0.66-.244-1.71-1.831-3.18-4.761q-2.445-4.881-2.32-5.737c0.08-.568,1.02-0.77,2.81-0.61q29.055,3.176,33.45,0c1.46-.813,2.32-2.564,2.56-5.249s0.37-10.865.37-24.536V251.1q-0.255-19.284-2.69-19.287-1.71,0-8.79,10.253a243.068,243.068,0,0,1-52.24,54.2q-5.865,3.908-6.6,3.662-3.165,0-2.19,30.762,0.48,9.521-.13,11.352c-0.4,1.221-2.4,2.644-5.98,4.272q-10.98,5.369-17.09,2.686A4.11,4.11,0,0,1,1059.71,345.7Z"/>
  <path id="中文示例" class="cls-2" d="M329.594,775.4a15.98,15.98,0,0,0-6.739-2.636q-2.54-.587-2.539-1.27t5.274-.293q7.127,0.392,7.812.391,2.93-.1,3.516-2.246,0.389-1.366.391-11.036v-3.906q0-2.343.1-3.125a8.045,8.045,0,0,0-.146-2.2,7.958,7.958,0,0,1-.2-1.709,1.747,1.747,0,0,0-.585-1.025,1.921,1.921,0,0,0-.879-0.733,12.048,12.048,0,0,1-1.465-.244,5.787,5.787,0,0,0-1.856-.146,22.652,22.652,0,0,1-2.685.1h-4.688q-7.715,0-8.886.586-0.978.587-1.563,3.125a2.63,2.63,0,0,0-.1.586q-4.687,20.9-24.218,31.641-2.149,1.172-2.735.39-0.2-.293,1.465-1.855a52.3,52.3,0,0,0,12.695-16.26q4.3-8.837,5.664-21.728,0.586-5.274.489-23t-0.684-23.487q-0.293-2.538.1-2.685t4,1.318a44.341,44.341,0,0,0,6.543,2.344q1.267,0.2,8.984.195h3.027a31.057,31.057,0,0,0,6.2-.342,6.871,6.871,0,0,0,2.783-2.49,5.836,5.836,0,0,1,.683-0.879,2.1,2.1,0,0,1,2.344-.976,19.566,19.566,0,0,1,4.688,3.125q3.026,2.442,3.418,3.418t-1.465,1.855a4.584,4.584,0,0,0-1.856,1.66q-0.2.49-.293,36.035-0.1,27.637-.244,32.471t-0.928,6.494q-1.856,3.612-8.5,4.981a10.576,10.576,0,0,1-3.076.439,3.317,3.317,0,0,1-.83-1.709A8.79,8.79,0,0,0,329.594,775.4Zm7.715-42.968v-3.028a17.506,17.506,0,0,1,.1-2.441,4.978,4.978,0,0,0-.195-1.758,3.5,3.5,0,0,1-.195-1.367,1.419,1.419,0,0,0-.586-0.781,1.344,1.344,0,0,0-.83-0.586,3.435,3.435,0,0,1-1.368-.2,4.68,4.68,0,0,0-1.709-.2,17.835,17.835,0,0,1-2.49.1h-6.4q-5.47-.1-6.446.879-0.781.879-.879,5.664-0.1,1.368-.1,2.148-0.2,8.3-.147,9.424a2.11,2.11,0,0,0,.635,1.611q0.587,0.49,9.57.635t9.864-.342a2.135,2.135,0,0,0,1.025-1.758q0.147-1.268.147-8.007h0ZM337.162,717.3q0.147-1.268.147-7.813v-2.832q0.1-5.567-.879-6.494t-6.739-.83h-5.664q-5.763-.1-6.738.83t-0.977,6.3V708.9q0,6.446.2,7.959a2.471,2.471,0,0,0,1.074,2q0.683,0.49,9.277.586t9.278-.39A2.135,2.135,0,0,0,337.162,717.3Zm-72.217,46a31.541,31.541,0,0,1,.1-5.469q0.683-10.741.684-32.519,0-19.824-.684-27.442-0.293-3.125.146-3.32t4.834,1.66a41.113,41.113,0,0,0,5.225,1.758,38.415,38.415,0,0,0,5.615.391,33.305,33.305,0,0,0,6.641-.342q0.975-.342,3.223-3.174,1.659-2.147,2.929-1.758t5.274,4.395q1.367,1.464,1.806,1.9a1.659,1.659,0,0,1,.489,1.074,0.836,0.836,0,0,1-.391.879q-0.44.245-1.709,1.123a2.753,2.753,0,0,0-1.318,2.3q-0.147,1.611-.245,13.33,0,21.583.586,34.18a13.881,13.881,0,0,1-.146,4.394q-0.344.783-2.783,1.953-3.808,1.857-5.127,1.368t-1.221-3.809q0.195-3.222-.781-3.809t-6.445-.585q-5.665,0-6.5.683t-0.732,5.176a28.649,28.649,0,0,1,0,3.516,1.976,1.976,0,0,1-.586,1.074,10.264,10.264,0,0,1-3.516,1.9,6.66,6.66,0,0,1-3.515.537Q265.139,764.272,264.945,763.293Zm24.024-16.943q0.194-1.613.195-8.741v-2.734q0-6.542-.635-7.617t-4.736-1.074h-3.809q-4.3-.1-4.98.927t-0.684,7.471v2.93q0,7.521.2,9.033a2.47,2.47,0,0,0,1.074,2q0.683,0.489,6.2.439t6.2-.537A2.727,2.727,0,0,0,288.969,746.35Zm0.1-25.83q0.1-1.66.1-8.887v-2.539q0-6.153-.879-7.129-0.783-.879-4.883-0.781h-3.515q-4.2-.1-4.883.976t-0.684,7.52v2.636q0,7.228.2,8.692a2.745,2.745,0,0,0,1.074,2.051q0.683,0.489,6.445.341t6.25-.634A3.15,3.15,0,0,0,289.066,720.52ZM363.285,781.9a0.57,0.57,0,0,1,.147-0.537,6.925,6.925,0,0,1,.781-0.976q0.535-.587,1.611-1.66A48.738,48.738,0,0,0,376.371,763.1q3.516-8.5,4.785-21.289,0.294-2.832.293-21.289t-0.293-21.29q-0.489-5.467-.195-5.468a4.265,4.265,0,0,1,.732.244q0.635,0.245,2,.732l2.442,0.879a40.086,40.086,0,0,0,7.275,2.3q1.905,0.245,14.307.244h2.929q10.156,0,11.914-.293a4.91,4.91,0,0,0,2.735-1.953,5.818,5.818,0,0,1,.488-0.586q1.854-2.538,2.637-2.539,1.074,0,5.176,3.32t4.1,4.2a1.965,1.965,0,0,1-.732.976,2.059,2.059,0,0,1-1.123.684q-0.587,0-1.465,1.562-0.293.391-.391,35.45-0.1,31.152-.39,34.668a7.246,7.246,0,0,1-.977,3.417,9.53,9.53,0,0,1-3.906,3.174,17.951,17.951,0,0,1-5.469,2q-2.442.39-3.027-.586-0.783-4.3-2.588-6.152t-6.4-2.93q-2.247-.585-2.734-0.781a0.689,0.689,0,0,1-.488-0.684q0-.681,7.129-0.2c0.39,0,.911.034,1.562,0.1q5.859,0.391,6.836-.879t0.977-9.473v-3.32a84.371,84.371,0,0,0-.1-8.594q-0.587-2.146-3.613-2.539-0.879-.1-13.77-0.1h-3.906q-11.133,0-12.6.684-0.977.391-1.465,2.637c-0.065.456-.131,0.815-0.195,1.074A46.513,46.513,0,0,1,366.9,780.773q-2.735,1.561-3.125,1.465A1.332,1.332,0,0,1,363.285,781.9Zm61.084-40.625q0.147-1.317.147-7.959,0-6.834-.1-7.519-0.392-2.05-3.027-2.441-0.978-.2-13.77-0.2h-5.078q-8.888-.1-10.352.586t-1.464,4.883v2.539q-0.2,7.13-.293,8.008-0.294,3.126.976,3.808,0.682,0.391,15.967.44t15.967-.342A2.179,2.179,0,0,0,424.369,741.271Zm-0.049-22.8q0.195-1.269.2-7.813v-7.031a3.167,3.167,0,0,0-2.832-2.539q-1.271-.195-14.063-0.2-12.6,0-14.062.293a3.03,3.03,0,0,0-2.832,2.539v7.422q0.1,6.056.293,7.324a2.186,2.186,0,0,0,1.171,1.758q0.781,0.39,15.528.341t15.429-.439A1.94,1.94,0,0,0,424.32,718.469Zm44.19,62.5a17.833,17.833,0,0,1,.049-3.516q0.388-5.859.244-18.213T468.07,742a4.644,4.644,0,0,1,0-2.1,6.168,6.168,0,0,1,2.246.342q3.419,0.879,5.567,1.563,5.663,1.856,3.125,3.125a2.42,2.42,0,0,0-1.026,2.05q-0.146,1.565-.244,10.547v4.1q-0.1,6.837.928,7.91t7.178,0.977h3.808q1.561,0,4.1.1,5.859,0.2,6.885-1.465t0.927-11.425v-6.446q0-14.355-.146-16.7t-1.025-2.93q-0.586-.488-8.35-0.537t-8.545.342a2.309,2.309,0,0,0-1.172,2.148q0,2.344-4.492,3.223-2.93.587-3.857,0t-0.733-2.93q0.587-8.69.391-20.166t-0.977-14.013v-0.293q0-.587,3.028.195,4.2,1.172,6.25,1.856,3.808,1.464,1.953,2.636a3.136,3.136,0,0,0-1.319,2.344q-0.245,1.662-.244,9.863v8.106q0.2,3.126,1.953,3.711a69.667,69.667,0,0,0,7.617.2q6.249,0,7.471-.146a2.044,2.044,0,0,0,1.709-1.124q0.587-.975.44-14.6t-0.83-19.678q-0.294-2.343,0-2.588t2.929,0.44q3.808,0.977,5.957,1.758,4.491,1.563,2.637,2.734a3.54,3.54,0,0,0-1.367,2.783q-0.2,2-.2,14.111V717.4q-0.1,8.4.733,9.765t6.006,1.172h3.125q6.542,0,7.812-.146a2.08,2.08,0,0,0,1.758-1.124q0.587-.975.439-10.009t-0.83-15.088q-0.293-2.538,0-2.735t3.125,0.489a60.521,60.521,0,0,1,6.446,2.051q2.831,1.075,1.465,2.343-1.27,1.075-1.465,5.567t0.293,17.48q0.193,5.471.1,6.3a1.956,1.956,0,0,1-1.074,1.416,11.129,11.129,0,0,1-4,1.66,4.853,4.853,0,0,1-3.222-.244,2.03,2.03,0,0,1-1.075-2.1q0.294-2.244-1.025-2.636t-8.838-.391q-1.171,0-3.125-.1a21.872,21.872,0,0,0-3.369.049,4.079,4.079,0,0,0-2,.733,3.016,3.016,0,0,0-1.025,2,37.07,37.07,0,0,0-.391,3.955,63.61,63.61,0,0,0,.049,6.543v13.476q-0.1,9.767.928,11.328t7.177,1.465q2.538-.1,4.2-0.1,8.4,0,9.815-.147a2.463,2.463,0,0,0,2-1.123q0.682-1.074.439-12.256a139.652,139.652,0,0,0-1.025-16.26,0.8,0.8,0,0,1,0-.586q0.1-.488,3.516.391,3.515,0.879,5.468,1.563,4.1,1.368,2.344,2.734-2.247,1.758-.879,29.59,0.2,3.612-.342,4.492t-3.564,1.855q-3.516,1.074-4.688.44t-1.074-3.565a10.978,10.978,0,0,0-.1-2.783,2.082,2.082,0,0,0-.977-1.22q-0.879-.39-27.686-0.342t-27.392.537q-1.171.975-.879,3.808a5.218,5.218,0,0,1-.147,2.149,3.174,3.174,0,0,1-1.22,1.074A9.15,9.15,0,0,1,473,782.043a6.714,6.714,0,0,1-3.272,0A1.658,1.658,0,0,1,468.51,780.969Zm141.748-40.723q-1.075-4.2-1.807-4.1t-1.9,4.492q-4.1,14.942-13.428,24.218t-26.9,16.016q-2.442.879-2.881,0.977a1.1,1.1,0,0,1-.928-0.293,0.863,0.863,0,0,1-.244-0.391,0.593,0.593,0,0,1,.195-0.488,3.143,3.143,0,0,1,.831-0.635,18.541,18.541,0,0,1,1.66-.83q13.964-7.325,21.826-17.139a54.663,54.663,0,0,0,10.693-23.486,13.69,13.69,0,0,1,.391-1.856q0.585-3.318-.586-4-1.27-.587-9.863-0.489a129.8,129.8,0,0,0-15.723.879,7.866,7.866,0,0,1-2.832.2,5.793,5.793,0,0,1-1.27-2.148,8.262,8.262,0,0,1-.83-2.246q0.048-.293,1.416-0.1,5.761,0.49,17.237.537t12.353-.439q1.854-1.074,1.856-19.727v-1.757q0.1-3.124-.879-3.809-1.173-.683-8.789-0.586h-3.516a149.354,149.354,0,0,0-18.652.977,5.34,5.34,0,0,1-2.246.1,6.181,6.181,0,0,1-1.368-2.051q-1.075-1.952-.878-2.246t2.441-.1q1.854,0.2,33.789.342t32.91-.049q1.466-.294,3.906-3.907a15.531,15.531,0,0,1,2.784-3.369q0.633-.34,2,0.635a37.019,37.019,0,0,1,6.25,4.932q2.831,2.783,2.441,3.564t-2.637.879q-2.247.1-16.992,0.2h-7.129q-10.059,0-11.719.782t-1.66,5.566v3.32q-0.2,7.911-.488,10.84a13.539,13.539,0,0,1-.1,1.367q-0.293,3.224.489,3.809,0.878,0.684,7.519.684h6.055q6.346,0,7.715-.782a23.707,23.707,0,0,0,3.027-3.613,11.528,11.528,0,0,1,2.686-2.881q0.633-.243,2.294.928a56.415,56.415,0,0,1,5.665,4.59q2.636,2.442,2.539,3.125a1.169,1.169,0,0,1-.489.976q-0.879.391-17.578,0.489-12.5.1-14.355,0.2-3.907.391-4,2.051,0,0.783,2.148,5.957A50.334,50.334,0,0,0,626.518,759a75.609,75.609,0,0,0,23.193,13.477q3.025,1.076,0,1.953a9.337,9.337,0,0,0-4.2,2.636,8.072,8.072,0,0,0-2.246,4.2,1.263,1.263,0,0,1-.342.781,0.788,0.788,0,0,1-.733.049,7.38,7.38,0,0,1-1.464-.733q-23.537-12.5-30.469-41.113h0Zm57.568,39.942a54.248,54.248,0,0,1,.244-6.739q0.879-14.743.586-35.058-0.1-16.114-.781-22.168-0.293-2.44-.049-2.637t2.979,0.488a54.239,54.239,0,0,1,6.933,2.051q3.516,1.27,1.856,2.637l-0.2.2q-0.977.684-1.123,3.711t-0.146,20.41v4.492q0,13.674.146,16.016t0.928,2.734a0.276,0.276,0,0,0,.2.1q0.781,0.49,10.694.342t10.4-.635q0.683-.683.781-4.687t0-28.126q0-31.347-.781-38.671a7.373,7.373,0,0,1-.1-2.686q0.194-.243,2.05.147a67.75,67.75,0,0,1,7.032,1.953q5.175,1.661,2.929,2.929a0.28,0.28,0,0,1-.195.1,1.749,1.749,0,0,0-.977,1.172q-0.392,1.856-.488,33.2,0,25.488.1,29.736t0.781,4.932q0.488,0.49,10.645.635t10.937-.342a2.692,2.692,0,0,0,.879-0.684q0.487-1.268.391-22.168,0-22.068-.977-29-0.2-1.268.244-1.367a11.944,11.944,0,0,1,2.979.489,72.077,72.077,0,0,1,7.91,2.343q2.343,0.978.879,2.344a4.609,4.609,0,0,0-1.172,1.758q-0.2.783-.147,23.1t0.342,27.978a44.96,44.96,0,0,1,.049,5.615,2.686,2.686,0,0,1-1.318,1.612,11.857,11.857,0,0,1-4.346,1.9,5.9,5.9,0,0,1-3.516-.146,1.781,1.781,0,0,1-1.123-2.051q0.1-.879.293-2.344,0.683-4.783-1.806-5.566t-18.311-.684H697.074q-14.551,0-16.894.439t-2.051,3.467c0.064,0.716.1,1.3,0.1,1.758a24.775,24.775,0,0,1,0,3.272,1.975,1.975,0,0,1-.586,1.025,9.813,9.813,0,0,1-4.3,2,7.709,7.709,0,0,1-4.2.244A1.943,1.943,0,0,1,667.826,780.188ZM810.844,777.6a5.794,5.794,0,0,1-3.125-3.37q-0.49-1.172-.586-18.457-0.1-13.476-.2-15.039-0.294-3.611-1.661-3.613a30.423,30.423,0,0,0-4.687,1.758q-4.787,2.05-8.985,3.369t-4.589.83a0.554,0.554,0,0,1-.2-0.39q0-.489,3.418-2.247A101.683,101.683,0,0,0,811.869,725.6q9.522-8.592,13.721-17.188,1.464-3.025,1.172-3.662t-3.516-.635q-3.126,0-3.808,1.319t-0.2,6.1q0.1,1.662-1.9,2.735a11.023,11.023,0,0,1-5.225,1.074q-1.662,0-1.9-.733a19.334,19.334,0,0,1-.049-4.541q0.293-4.687-2.783-5.713t-13.135.342q-0.684.1-1.562,0.244t-1.514.245a7.1,7.1,0,0,1-.83.1,1.31,1.31,0,0,1-.977-0.1,11.393,11.393,0,0,1-.976-1.856,10.938,10.938,0,0,1-.879-2.246q-0.1-.683.781-0.488,2.832,0.392,11.182.634t9.033-.048q1.171-.487,1.562-3.614a27.649,27.649,0,0,0-.292-7.519q-0.2-1.269.146-1.367a8.644,8.644,0,0,1,2.49.488,45.8,45.8,0,0,1,6.446,1.855q3.123,1.173,1.66,2.637a5.036,5.036,0,0,0-1.563,4q0,2.637,1.465,3.418,0.586,0.292,11.426.293h6.738q4.98-.1,5.664-1.27a19.685,19.685,0,0,0,.2-4.882,30.649,30.649,0,0,0-.293-5.176,1.538,1.538,0,0,1,.1-1.074q0.488-.587,6.641,1.171,0.879,0.294,1.562.489,4.981,1.662,2.832,2.929-1.464,1.077-1.465,3.809-0.1,2.541.684,3.271t3.711,0.733a7.964,7.964,0,0,0,3.564-.537,12.2,12.2,0,0,0,2.784-3.174,4.366,4.366,0,0,1,.39-0.586q1.854-2.538,2.637-2.637t3.809,2.344q5.859,4.884,5.175,6.152a2.328,2.328,0,0,1-1.855.928q-1.37.147-9.473,0.244h-2.832q-6.445,0-7.568.489t-1.026,3.32v1.172q0,3.126-.683,4t-3.711,1.464q-3.516.685-4.3,0t-0.586-4.1q0.293-4.882-.586-5.615t-7.129-.733q-7.323,0-7.617.83t5.957,3.955a37.7,37.7,0,0,1,4,2.247q0.78,0.585-.293,1.074-1.368.585-1.074,1.66,0.682,3.126,12.012,8.3,14.744,6.642,26.757,7.812,3.808,0.49.489,1.953a9.089,9.089,0,0,0-3.321,2.735,11.34,11.34,0,0,0-2.148,4.1,4.523,4.523,0,0,1-.586.977,9.351,9.351,0,0,1-2.295-.44,16.235,16.235,0,0,1-3.174-1.025q-6.738-2.733-8.4-2.832-1.466-.1-0.293,1.953,0.975,1.563-.488,2.246a4.064,4.064,0,0,0-1.9,1.758,14.828,14.828,0,0,0-.537,4.492q-0.489,10.745-2.637,14.258t-8.4,3.906a5.818,5.818,0,0,1-2.1-.1,1.062,1.062,0,0,1-.439-1.075q0-4.3-6.641-6.054a5.868,5.868,0,0,1-1.9-.684,0.551,0.551,0,0,1-.049-0.781q0.1-.195,4.492,0,6.348,0.391,7.715-1.367t1.367-10.45V742.59q0.1-2.246-.683-2.735-1.172-.681-10.449-0.683h-7.715a29.085,29.085,0,0,1-3.565-.147,7.879,7.879,0,0,0-2.539.147,14.984,14.984,0,0,1-1.855.293,2.241,2.241,0,0,0-1.123.83,2.368,2.368,0,0,0-.782,1.221q0,0.392-.244,2.05a11.6,11.6,0,0,0-.146,2.686q0.1,1.026.1,3.76v9.57q0,2.834-.1,3.809a9.97,9.97,0,0,0,.244,2.734,18.455,18.455,0,0,1,.342,2.1,2.634,2.634,0,0,0,1.025,1.22,3.043,3.043,0,0,0,1.465.879q0.439,0,2.441.293a14.653,14.653,0,0,0,3.174.2q1.173-.1,4.444-0.1h5.615q14.842,0,17.383-.2,5.175-.487,6.836-3.028a63.165,63.165,0,0,0,2.832-8.008q0.975-3.123,1.367-3.027,0.585,0.2.781,5.859a45.534,45.534,0,0,0,.44,5.811,3.327,3.327,0,0,0,1.611,1.9q3.318,1.955,2.392,4.444t-5.322,3.369q-3.712.78-20.459,1.172t-25.146-.1A20.488,20.488,0,0,1,810.844,777.6Zm35.595-43.555a13.856,13.856,0,0,0,2.3-2.686q0.487-1.172-2.636-3.808a52.686,52.686,0,0,1-8.789-9.766q-1.466-2.245-2.393-2.1t-4.248,3.466a113.34,113.34,0,0,1-14.063,11.426q-3.222,2.149-3.076,3.32t3.76,2.149q0.879,0.2,13.281.244t13.282-.146A9.145,9.145,0,0,0,846.439,734.045Zm50.147,42.236q2.05-14.648-4.785-16.015a1.758,1.758,0,0,1-1.563-.782c-0.2-.52-0.131-0.862.2-1.025a8.085,8.085,0,0,1,2.441-.342q3.222-.1,4.639-1.66T904.2,746.3q0.587-1.172,3.027-4.981,3.418-5.468,6.348-10.254,4.491-7.419,5.274-8.5t1.367-.879a0.586,0.586,0,0,1,.439.635,14.952,14.952,0,0,1-1.123,2.686q-1.758,4.1-1.855,4.3a10.907,10.907,0,0,0-.684,1.318q-0.587,1.223-1.562,3.32T913.48,738q-3.515,7.617-4.882,10.693t-2.735,6.4a13.594,13.594,0,0,0-1.318,4.931q0.048,1.613.2,3.125a17.28,17.28,0,0,0,1.026,3.956q4,12.011-2.246,14.648a6.385,6.385,0,0,1-2.344.488,4.734,4.734,0,0,1-2.149-.2q-3.027-1.465-2.441-5.762h0Zm32.666,2a5.751,5.751,0,0,1-2.2-3.076q-0.49-1.076-.489-21.143t-0.39-20.654q-1.172-1.951-3.614-.683a0.982,0.982,0,0,1-1.074.244,6.476,6.476,0,0,1-1.269-2.1,5.379,5.379,0,0,1-.781-2q0.1-.243,1.855-0.146,4.783,0.489,12.646.586t8.643-.391q1.758-.78,1.563-7.08t-1.954-6.3a0.841,0.841,0,0,1-.927-0.732,29.545,29.545,0,0,1-.147-3.955V709.68q0-3.808-.928-4.395T933.5,704.7h-4.3q-5.958,0-6.836,1.074-0.684.685-.39,4.786,0.193,2.735-.879,3.711t-4.981,1.464q-2.442.294-3.027-.39t-0.391-3.321q0.488-6.054-.976-7.031-0.978-.487-7.227-0.293t-11.816.879a11.413,11.413,0,0,1-3.418.2q-0.49-.193-1.367-2.246a11.713,11.713,0,0,1-.684-1.855c-0.066-.391.195-0.52,0.781-0.391q3.224,0.392,12.842.586t10.5-.195q2.147-.78,1.172-10.254-0.2-2.05.1-2.2a9.106,9.106,0,0,1,2.832.439q3.71,0.978,5.664,1.66,4.49,1.662,2.148,2.832-1.464.783-1.465,3.809t1.465,3.711q0.683,0.292,8.2.293t8.2-.293q2.052-.78,1.075-10.254-0.2-2.05.146-2.2a11.88,11.88,0,0,1,3.369.634q2.93,0.783,4.785,1.368,5.077,1.661,2.637,2.929-1.464.783-1.465,4,0,2.637.928,3.223t5.029,0.586a15.784,15.784,0,0,0,4.883-.44q0.975-.44,2.93-3.271a1.5,1.5,0,0,1,.293-0.391q1.952-2.733,2.685-2.881t3.467,2.1q1.659,1.27,2.539,2.051,4.1,3.516,3.027,4.492-1.172.978-12.7,1.074h-3.027q-8.2.1-9.278,0.879-0.878.587-.878,3.613v1.075q0,3.126-.391,3.418-1.662,1.563,2.637,3.027,3.808,1.27,1.757,2.832-1.269.879-1.269,5.078,0,3.321.732,4t4.346,0.684q3.319,0,4.248-.538a15.451,15.451,0,0,0,3.174-3.662q1.854-2.538,2.637-2.588t3.711,2.393q5.369,4.493,4.98,5.957v0.1q-0.2.783-2.783,0.927t-17.822.245q-19.141.1-19.629,0.293-0.783.489-.928,2.734t-0.147,16.309q0,16.992.391,18.359a2.063,2.063,0,0,0,1.27,1.172q0.879,0.391,13.916.39t15.576-.39q8.1-1.367,8.105,3.515a3.944,3.944,0,0,1-2.685,3.711q-2.589,1.074-9.717,1.465-3.126.1-15.088,0.1t-13.33-.1A10.655,10.655,0,0,1,929.252,778.283ZM896.781,742.4q0-1.269-2.588-4.786a30.346,30.346,0,0,0-4.834-5.371q-2.247-1.758.586-2.05a17.117,17.117,0,0,1,9.18,2.148,9.651,9.651,0,0,1,3.223,2.539q2.733,3.42,1.562,6.738-1.27,3.42-5.566,2.051-1.563-.487-1.563-1.269h0Zm5.176-16.6a26.591,26.591,0,0,0-7.227-8.887q-1.955-1.56-1.709-1.953t3.077-.195q6.346,0.489,10.058,2.832t3.711,5.957a4.534,4.534,0,0,1-1.855,3.955,4.442,4.442,0,0,1-4.2.537,4.222,4.222,0,0,1-1.855-2.246h0Zm161.723,54.98a6.69,6.69,0,0,1-1.37-2.929q-2.445-8.2-4.1-9.668t-7.13-.2q-17.3,4.006-43.75,8.4c-3.91.586-6.46,1.041-7.668,1.367a5.025,5.025,0,0,0-2.49,1.27q-1.172,1.367-1.856.488a120.9,120.9,0,0,1-4.785-11.231,0.2,0.2,0,0,1,.049-0.146,0.884,0.884,0,0,1,.342-0.1c0.195-.032.5-0.064,0.928-0.1s1.025-.081,1.806-0.147,1.773-.113,2.979-0.146,2.685-.081,4.445-0.147a30.772,30.772,0,0,0,6.64-.635c0.78-.293,1.46-1.187,2.05-2.685q1.86-4.2,5.03-13.965t4.54-15.332a1.48,1.48,0,0,1,.1-0.488c0.52-2.017.55-3.223,0.1-3.614-0.66-.454-3.65-0.683-8.99-0.683h-0.68a135.953,135.953,0,0,0-16.6.879,10.82,10.82,0,0,1-3.321.195,6.986,6.986,0,0,1-1.465-2.148,5.648,5.648,0,0,1-.781-1.954c-0.065-.325.13-0.454,0.586-0.39q2.538,0.585,38.475.586h7.33q18.84,0,22.12-.2c2.18-.129,3.49-0.617,3.95-1.464a2.294,2.294,0,0,1,.39-0.586q3.615-5.077,4.44-5.42t3.57,1.806q8.4,6.252,7.23,7.715-0.495.686-3.18,0.83t-18.31.147q-17.58,0-19.53.293a2.121,2.121,0,0,0-1.66.976,51.849,51.849,0,0,0-3.52,6.446q-6.735,12.89-12.79,22.461-2.445,3.808-2.64,4.3c-0.39,1.108.26,1.758,1.96,1.954s9.73-.228,24.12-1.27q10.44-.682,12.4-0.976t2.34-1.172c0.33-.716-0.62-2.75-2.83-6.1a114.1,114.1,0,0,0-8.49-11.084q-1.86-2.146-1.86-2.734,0-1.269,8.59,3.808a59.074,59.074,0,0,1,14.31,11.524q5.715,6.445,7.08,12.6,1.17,5.274-.49,8.448a4.181,4.181,0,0,1-5.08,2.392A5.1,5.1,0,0,1,1063.68,780.773Zm-64.946-78.857a8.916,8.916,0,0,1-.976-2.3q0-.292,1.465-0.195,5.861,0.489,28.317.488h7.23q11.235,0,13.33-.342a5.311,5.311,0,0,0,3.56-2.49c0.39-.586.72-1.041,0.98-1.367,1.43-1.953,2.36-3.011,2.78-3.174s1.19,0.114,2.3.83a59.461,59.461,0,0,1,5.96,4.736q2.73,2.492,2.63,3.174a1.007,1.007,0,0,1-.58.977q-1.275.391-28.32,0.488-21.585.1-25.98,0.2a62.056,62.056,0,0,0-8.59.782,13.792,13.792,0,0,1-2.934.293A16,16,0,0,1,998.734,701.916Zm91.216,53.174c-1.05-.26-1.57-0.65-1.57-1.172a0.779,0.779,0,0,1,.39-0.83,6.936,6.936,0,0,1,1.86-.147h0.19a4.571,4.571,0,0,0,4.2-2.246q1.365-2.246,6.74-15.625,4.7-11.426,8.2-20.215,2.055-5.273,2.64-6.347c0.46-.846.88-1.172,1.27-0.977a0.919,0.919,0,0,1,.34,1.074c-0.09.522-.7,2.637-1.8,6.348q-0.3,1.075-2.35,8.5-0.39,1.466-2.83,9.473t-3.71,12.695a44.3,44.3,0,0,0-1.66,9.326,29,29,0,0,0,1.17,8.155q4.89,17.967-4.1,19.14c-1.95,0-3.24-.651-3.86-1.953s-0.76-3.418-.44-6.347q2.145-17.578-4.68-18.848h0Zm57.03,25.586q0-5.274-6.84-7.227c-0.19-.064-0.68-0.178-1.46-0.342a5.013,5.013,0,0,1-1.62-.537,1.172,1.172,0,0,1-.53-0.781,0.49,0.49,0,0,1,.53-0.635q0.645-.048,3.96.244c4.56,0.391,7.58.425,9.08,0.1a4.647,4.647,0,0,0,3.32-2.93q0.3-.585.39-0.781c0.65-1.367.62-2.246-.1-2.637q-1.455-.681-14.55-0.683h-3.51c-5.93,0-9.39.131-10.4,0.39s-1.65,1.238-1.91,2.93c-0.06.456-.13,0.815-0.19,1.074-0.07.327-.13,0.7-0.2,1.123a8.556,8.556,0,0,1-.19.977,1.96,1.96,0,0,0-.1.439,1.448,1.448,0,0,1-.98,1.075,7.053,7.053,0,0,1-5.56.1c-1.31-.39-1.89-0.976-1.76-1.758q1.86-10.253,2.54-14.648,1.95-12.012.58-13.574-0.87-1.074-4.88.39a2.241,2.241,0,0,1-1.66.245,5.69,5.69,0,0,1-1.17-2,11.487,11.487,0,0,1-.88-1.953q0-.294,1.95-0.1c1.83,0.195,3.05.342,3.67,0.439a7.358,7.358,0,0,0,2.34-.1,4.07,4.07,0,0,0,1.66-.489,7.053,7.053,0,0,0,.83-1.562,9.156,9.156,0,0,0,.73-2.344q0.15-1.024.54-3.76,1.365-9.568.78-10.742c-0.33-.65-1.56,0-3.71,1.953q-4.4,4.1-5.76,4.395-1.56.391,1.17-3.613a83.513,83.513,0,0,0,8.15-16.26,63.571,63.571,0,0,0,4.15-16.455q0.195-1.269.54-1.319a13.031,13.031,0,0,1,2.78.733c2.61,0.912,4.59,1.66,5.96,2.246,3,1.237,3.74,2.148,2.25,2.734q-1.665.587-3.42,4.688-0.105.292-.39,0.879a1.1,1.1,0,0,1-.2.293c-0.78,1.693-.87,2.734-0.29,3.125q1.08,0.684,11.33.683h7.23c5.72,0,9.08-.162,10.05-0.488a6.751,6.751,0,0,0,2.74-2.637,9.7,9.7,0,0,1,.88-1.367,13.012,13.012,0,0,1,1.76-2.148,1.072,1.072,0,0,1,1.07-.2c0.85,0.2,2.47,1.465,4.88,3.809s3.62,3.808,3.62,4.394a1.016,1.016,0,0,1-.39.977q-1.185.391-22.95,0.488-20.91.1-22.56,0.391a3.969,3.969,0,0,0-1.57,1.074q-2.535,2.834-2.53,4.443c0,1.075.81,2,2.44,2.784a14.283,14.283,0,0,0,4.39,1.562c1.11,0.131,4.88.2,11.33,0.2h1.46c6.65,0,10.39-.161,11.24-0.488a11.012,11.012,0,0,0,2.53-2.344c1.24-1.367,2.1-2.05,2.59-2.05s1.55,0.683,3.18,2.05c1.3,1.108,2.27,1.97,2.93,2.588a7.6,7.6,0,0,1,1.41,1.709,1.18,1.18,0,0,1,.15,1.221,2.755,2.755,0,0,1-1.17.83,3.641,3.641,0,0,0-2.3,2.2,43.549,43.549,0,0,0-.34,7.373q0,5.373.49,6.153,0.48,0.879,2.73-2.246,1.275-1.854,2.1-1.709c0.55,0.1,1.68.993,3.37,2.685,2.87,2.8,4,4.59,3.42,5.371a2.122,2.122,0,0,1-1.37.782c-0.52.065-2.11,0.131-4.78,0.2h-1.27q-3.915,0-4.59.879-0.885.879-1.27,6.543c-0.07.847-.1,1.5-0.1,1.953q-0.495,6.251-.1,7.422,0.495,1.368,3.03-2.344c0.91-1.431,1.58-2.148,2-2.148s1.38,0.651,2.88,1.953q5.37,4.884,5.03,6.25c-0.23.912-2.55,1.432-6.98,1.562q-5.67.1-6.54,0.586c-0.59.327-1.18,1.726-1.76,4.2a27.2,27.2,0,0,1-2.78,7.471,10.728,10.728,0,0,1-4.55,3.857,19.759,19.759,0,0,1-4.54,1.27c-1.85.325-2.91,0.357-3.17,0.1a1.676,1.676,0,0,1-.29-1.172h0Zm8.49-21.24a40.019,40.019,0,0,0,.98-6.69q0.675-6.249.68-6.836a2.979,2.979,0,0,0-2.24-3.125q-1.47-.389-12.41-0.488h-4.59q-8.1-.1-9.57.732c-0.97.554-1.66,2.524-2.05,5.909q-0.195,1.856-.39,2.929-0.975,6.642-.97,7.862a1.728,1.728,0,0,0,1.17,1.709q0.78,0.39,13.87.341t13.96-.341A3.036,3.036,0,0,0,1155.47,759.436Zm1.96-22.754q0.285-1.9.39-8.838c0-2.735-.04-4.232-0.1-4.492a2.777,2.777,0,0,0-2.64-2.344q-2.055-.488-17.77-0.1a16.034,16.034,0,0,1-2.93-.1q-2.925-.293-3.66,1.026t-1.71,8.447a64.695,64.695,0,0,0-.73,7.227,1.665,1.665,0,0,0,1.02,1.66q0.78,0.391,13.33.39t13.33-.39A3.087,3.087,0,0,0,1157.43,736.682Zm-16.31,20.654a19.993,19.993,0,0,0-2.54-5.371,38,38,0,0,0-4.2-5.664,2.177,2.177,0,0,1-.68-1.27c-0.07-.715,1-0.781,3.22-0.195a19.692,19.692,0,0,1,8.69,4.785,8.2,8.2,0,0,1,2.49,4.785,4.556,4.556,0,0,1-1.17,4.1q-1.515,1.464-4.05.488a2.373,2.373,0,0,1-1.76-1.66h0Zm0.58-21.68a15.344,15.344,0,0,0-1.56-4.687,49.406,49.406,0,0,0-3.22-6.153q-1.08-1.659-.39-2.05,1.56-1.074,7.42,2.929a10.093,10.093,0,0,1,2.44,2.246q3.03,3.713,1.95,7.129-0.975,3.321-4.88,1.953c-1.17-.39-1.76-0.845-1.76-1.367h0Zm-46.19-8.1a4.415,4.415,0,0,1-.88-1.758,27.556,27.556,0,0,0-5.95-9.961c-0.92-1.106-1.29-1.758-1.13-1.953s0.99-.162,2.49.1q9.765,2.051,12.01,7.226a5.412,5.412,0,0,1-.24,5.664,3.787,3.787,0,0,1-4.74,1.563A4.358,4.358,0,0,1,1095.51,727.551Zm7.03-23.047q-1.26-4.588-6.74-11.133c-1.23-1.431-1.74-2.295-1.51-2.588s1.29-.21,3.17.244q10.845,2.637,12.7,8.887a5.01,5.01,0,0,1-.98,5.274,4.334,4.334,0,0,1-4.98.976,2.628,2.628,0,0,1-1.66-1.66h0Zm90.82,76.416a38.722,38.722,0,0,1,.1-6.006q0.885-15.917.73-40.723-0.135-24.8-1.12-31.25a4.112,4.112,0,0,1-.1-0.586c0.07-.325,1.04-0.259,2.93.2a75.34,75.34,0,0,1,7.62,2.246q2.535,1.171.98,2.539a1.4,1.4,0,0,0-.39.293c-0.66.522-1.03,1.66-1.13,3.418s-0.14,7.651-.14,17.676v7.91q0,29.3.58,40.039c0.07,1.626-.8,3.059-2.59,4.3a7.1,7.1,0,0,1-5.61,1.269Q1193.555,781.846,1193.36,780.92Zm63.28-1.025a8.6,8.6,0,0,0-2.78-5.079,14.609,14.609,0,0,0-6.49-2.636,3.969,3.969,0,0,1-1.71-.537,0.663,0.663,0,0,1-.25-0.831c0.07-.259,1.92-0.259,5.57,0a52.3,52.3,0,0,0,7.37.2,2.691,2.691,0,0,0,2.3-1.367q0.39-.975.39-33.887t-0.39-33.5a2.865,2.865,0,0,0-2.2-1.123q-1.515-.147-11.67-0.049-13.965.1-19.24,0.879a7.339,7.339,0,0,1-2.73.195,7.053,7.053,0,0,1-1.47-2.148,7.528,7.528,0,0,1-.97-2.149c0-.259.49-0.325,1.46-0.2q5.76,0.49,21.29.488h3.61a90.178,90.178,0,0,0,10.01-.293,5.073,5.073,0,0,0,2.98-1.953,5.655,5.655,0,0,1,.69-0.879c1.04-1.3,1.83-1.953,2.39-1.953s1.74,0.717,3.56,2.149a29.114,29.114,0,0,1,3.23,2.636q3.12,2.833.78,3.907a4.6,4.6,0,0,0-2.05,1.66q-0.3.783-.39,20.9-0.105,48.926-.49,50.2-1.365,5.567-8.99,6.934c-2.02.325-3.09,0.423-3.22,0.293a7.24,7.24,0,0,1-.59-1.855h0Zm-43.94-14.063a14.425,14.425,0,0,1,0-3.516q0.675-10.35.63-24.414t-0.73-21.484q-0.285-3.026,0-3.223c0.2-.129,1.56.293,4.1,1.27a29.062,29.062,0,0,0,5.72,2.051q1.41,0.2,9.03.2,7.515-.1,8.69-0.293a3.94,3.94,0,0,0,2.34-1.856c1.37-1.887,2.28-2.832,2.74-2.832,0.58,0,1.94.962,4.05,2.881s3.31,3.24,3.57,3.955a0.733,0.733,0,0,1-.05.586,12.539,12.539,0,0,1-1.42,1.172,3.089,3.089,0,0,0-1.22,2.344q-0.15,1.563-.15,11.621,0,16.7.59,25.488a4,4,0,0,1-.78,2.881,9.612,9.612,0,0,1-3.71,2.1c-1.89.651-3.18,0.815-3.86,0.488s-0.96-1.3-.83-2.93c0.13-1.887-.07-3.059-0.59-3.515q-0.975-.683-9.18-0.684-7.71,0-9.18.684c-0.52.39-.71,1.6-0.58,3.613q0.09,2.442-2.83,4.1c-1.96,1.107-3.71,1.269-5.28.488A2.057,2.057,0,0,1,1212.7,765.832Zm28.61-12.451a60.887,60.887,0,0,0,.2-6.69v-2.246q0.09-4.49-.78-5.468-0.975-.781-6.45-0.684h-5.27q-5.475,0-6.4.732c-0.62.489-.89,2.3-0.83,5.42v2.246a60.887,60.887,0,0,0,.2,6.69,1.85,1.85,0,0,0,1.17,1.514q0.78,0.489,8.49.488t8.5-.488A1.85,1.85,0,0,0,1241.31,753.381Zm0-19.776a50.821,50.821,0,0,0,.2-6.054v-2.344c0.06-2.8-.23-4.443-0.88-4.932s-2.9-.732-6.74-0.732h-4.49q-5.76,0-6.74.732t-0.88,5.323v1.953a50.821,50.821,0,0,0,.2,6.054,2.072,2.072,0,0,0,1.17,1.563q0.78,0.49,8.49.488t8.5-.488A2.072,2.072,0,0,0,1241.31,733.605Zm-30.37-27.441a52.511,52.511,0,0,0-8.4-14.062,6.153,6.153,0,0,1-1.46-2.442c0.06-.781,2.28-0.293,6.64,1.465q8.1,3.42,10.64,8.691,2.055,4.1-.05,7.129t-5.71,1.27a3.042,3.042,0,0,1-1.66-2.051h0ZM277.4,891.838q-0.245-.732,1.026-1.611A6.7,6.7,0,0,0,281.059,887q0.292-.975.293-16.211t-0.293-15.918q-0.49-1.074-4.2-1.318a35.821,35.821,0,0,0-8.3.537,12.325,12.325,0,0,1-3.37.439,4.218,4.218,0,0,1-1.318-1.806,8.444,8.444,0,0,1-.976-2.149q-0.1-.585.683-0.488c0.13,0,.357.017,0.684,0.049s0.732,0.082,1.22.146a9.935,9.935,0,0,0,1.319.1q13.084,1.075,14.258-1.074,0.388-.781.293-15.186t-0.489-18.31q-0.1-.879-0.195-2.149-0.392-3.222-.147-3.662t1.9,0.049c0.454,0.131.813,0.229,1.074,0.293q4.1,1.075,6.348,1.855,4.489,1.662,2.636,2.735l-0.1.1a2.912,2.912,0,0,0-1.367,2.344q-0.2,1.662-.293,10.254v3.809q-0.1,9.081.976,9.863,0.587,0.489,3.613-1.367a176.813,176.813,0,0,0,29-23.34q3.027-2.93,3.614-3.076t2.832,1.709a50.143,50.143,0,0,1,5.468,4.589q1.953,1.956-.195,1.954-1.27,0-5.176,2.734A162.953,162.953,0,0,1,296,843.254q-2.834,1.171-3.613,1.611a2.817,2.817,0,0,0-1.172,1.221,4.663,4.663,0,0,0-.293,1.807,3.289,3.289,0,0,0,.293,1.611,0.277,0.277,0,0,0,.1.195q0.489,0.783,3.223.928t18.848,0.146h6.055q12.6-.1,14.453-0.488a4.162,4.162,0,0,0,2.343-1.953,6.531,6.531,0,0,1,.586-0.977q0.1-.1.879-1.269,2.05-2.832,2.93-2.832,0.78,0,4,2.539,6.446,5.372,5.566,6.641-0.489.782-2.978,0.879t-18.7.2q-13.185.1-15.137,0.1-6.25.2-6.445,1.368-0.1.489,1.562,3.418,11.034,21.192,39.258,31.152,3.222,1.076,3.32,1.66,0.1,0.392-1.66.977a10.289,10.289,0,0,0-5.957,5.761,3.07,3.07,0,0,1-.879,1.368q-0.49.293-3.711-1.465-25-13.477-33.4-40.723-0.783-2.733-1.709-3.174t-6.006-.439h-2.051q-3.808-.1-4.443,1.465t-0.537,11.035v7.91q-0.1,10.451.39,12.012,0.781,2.247,3.906,1.66,0.39-.1,10.84-3.32,1.661-.487,2.93-0.879,4.491-1.269,4.492-.586-0.2,1.271-19.336,12.988-7.129,4.395-8.3,5.664a1.941,1.941,0,0,1-1.074.781q-0.392-.1-3.808-5.078A45.613,45.613,0,0,1,277.4,891.838Zm85.01,9.228a53.269,53.269,0,0,0,9.424-21.777q2.2-11.815,2-40.332-0.1-17.48-.781-24.219a4.642,4.642,0,0,0-.1-0.879q-0.293-1.757.293-1.855t8.887,3.223a14.964,14.964,0,0,0,4.346.683q2.683,0.1,17.626.1h7.422q10.254,0,12.11-.244a4.6,4.6,0,0,0,3.125-1.9,5.942,5.942,0,0,1,.683-0.879q1.074-1.172,1.514-1.562c0.293-.259.6-0.52,0.928-0.781a0.99,0.99,0,0,1,1.269.2q0.781,0.587,1.465,1.074t2.539,2.149q1.758,1.563,2.686,2.49a4.632,4.632,0,0,1,1.172,1.66,1.1,1.1,0,0,1-.1,1.123,3.583,3.583,0,0,1-1.416.781q-2.051.685-2.442,3.955T434.867,841.5q0.195,20.12,2.832,32.178t7.031,12.549a1.944,1.944,0,0,0,2.051-1.319,41.265,41.265,0,0,0,2.149-7.08q0.389-1.56.634-2.295a2.057,2.057,0,0,1,.44-0.879,0.507,0.507,0,0,1,.488-0.048q0.488,0.879.1,3.906t-0.537,7.959a22.564,22.564,0,0,0,.537,6.982q1.464,3.711.781,6.055-1.075,3.318-5.566,2.148-5.666-1.464-10.254-8.4-5.178-7.519-7.373-21.68t-2.2-39.453q0-8.691-.146-10.4a3.238,3.238,0,0,0-1.025-2.393q-0.587-.487-20.215-0.488t-20.41.39l-0.1.1q-0.879.587-1.025,2.979t-0.147,14.99q0,19.533-.439,26.66a72.034,72.034,0,0,1-2,13.281q-4.007,15.235-15.332,23.731-1.662,1.171-2.051,1.367a0.639,0.639,0,0,1-.781-0.2c-0.327-.261-0.293-0.62.1-1.075h0Zm19.629-14.257a126.968,126.968,0,0,0,12.158-16.895q6.688-10.741,7.08-13.867,0.294-2.051-10.742-17.676-2.539-3.516-3.027-4.3-0.587-.975-0.293-1.269,1.267-1.173,12.988,10.156a25.1,25.1,0,0,0,3.662,3.174,1.327,1.327,0,0,0,1.612-.244q0.879-.781,2.539-6.446a72.985,72.985,0,0,0,2.343-10.742,7.611,7.611,0,0,1,.635-2.539q0.243-.195,2.1.488a57.76,57.76,0,0,1,7.617,3.028q2.637,1.368.586,2.246-1.563.684-2.93,4.687-1.758,5.178-5.175,12.793-1.857,4.007-1.807,5.078t2.392,4.59a66,66,0,0,1,3.418,5.86q5.274,10.352,4.4,16.5-0.684,4.884-5.371,2.539a2.84,2.84,0,0,1-1.367-1.026,28.268,28.268,0,0,1-1.172-3.271,87.643,87.643,0,0,0-3.662-9.131q-2.2-4.735-3.076-5.518a1.383,1.383,0,0,0-1.758-.244,15.625,15.625,0,0,0-2.637,3.076A116.094,116.094,0,0,1,389.555,882.9q-7.617,7.521-8.789,6.446-0.49-.586,1.269-2.539h0Zm80.127,14.5q0.341-.44,2.49-2.491Q479.1,884.956,481.449,862q0.682-6.933.684-23.1t-0.684-23.291q-0.292-2.637.2-2.734t5.078,1.758q1.267,0.489,2.734,1.074t2.344,0.928a4.74,4.74,0,0,0,1.074.341q0.78,0.2,11.475.2t11.279-.2q1.171-.488,3.418-3.32,1.854-2.343,2.539-2.344t3.32,2.149q2.148,1.758,3.369,2.881a10.934,10.934,0,0,1,1.758,1.953,1.453,1.453,0,0,1,.293,1.367A2.493,2.493,0,0,1,529.2,820.7a6.847,6.847,0,0,1-.781.293,2.167,2.167,0,0,0-1.172,1.953q-0.293,1.857-.293,31.836v11.036q-0.1,17.676.586,20.556t4.785,2.588q1.659-.1,2.637-0.1,2.83,0,3.76.049a6.231,6.231,0,0,0,2.441-.537,5.578,5.578,0,0,0,1.807-.928,12.882,12.882,0,0,0,1.123-2.295,18.105,18.105,0,0,0,1.123-3.418q0.292-1.464,1.172-5.468,0.585-2.929,1.074-2.93,0.389,0,.439.879t0.244,5.762q0.2,5.567.391,6.738a4.439,4.439,0,0,0,1.367,2.344q2.637,2.637,1.367,5.468-1.269,2.539-8.789,3.663a57.177,57.177,0,0,1-15.088.244q-7.569-.879-8.837-3.418a16.951,16.951,0,0,1-.928-5.957q-0.147-4.3-.244-32.227-0.1-27.147-.244-31.738t-1.026-4.785a0.781,0.781,0,0,0-.293-0.1q-0.783-.389-11.328-0.342t-11.328.44a0.4,0.4,0,0,1-.293.1q-0.978.391-1.123,2.784t-0.244,16.259a209.419,209.419,0,0,1-1.27,23.877,63.176,63.176,0,0,1-4.2,16.553,35.2,35.2,0,0,1-7.812,11.865,64.576,64.576,0,0,1-12.793,9.229q-2.834,1.56-3.321,1.172A0.625,0.625,0,0,1,462.162,901.311ZM563.871,899.9a73.856,73.856,0,0,0,21.387-28.76q6.738-16.455,6.836-40.479v-1.367q0-4-.782-4.687-0.977-.781-7.226-0.586h-1.953a116.436,116.436,0,0,0-14.746.879,7.918,7.918,0,0,1-2.832.2,6.533,6.533,0,0,1-1.367-2.246q-0.978-1.854-.782-2.1t2.442-.049q3.515,0.391,35.254.391h11.23q17.772,0.1,20.654-.2a5.373,5.373,0,0,0,4.151-2.149,9.087,9.087,0,0,1,.781-1.172,19.306,19.306,0,0,1,3.125-3.613q0.683-.389,2.051.586a38.081,38.081,0,0,1,6.2,4.883q2.685,2.637,2.3,3.418t-3.076.879q-2.688.1-20.655,0.2h-14.7q-2.882,0-4.834.2t-2.93.391a2.26,2.26,0,0,0-1.464.879,3.1,3.1,0,0,0-.586,1.269,14.32,14.32,0,0,0-.1,2.051v2.246q-0.1.879-.293,4.2t-0.293,4.59a10.906,10.906,0,0,1-.1,1.27q-0.392,3.516.782,4.1t8.593,0.586h3.125q9.375-.1,10.645-0.341t3.516-2.686q1.952-2.245,3.027-2t4.883,3.76a12.692,12.692,0,0,1,2.929,3.174q0.39,0.929-1.074,1.611a4.108,4.108,0,0,0-2.246,1.9,28.849,28.849,0,0,0-.781,5.518q-1.37,16.7-3.418,25.732t-5.469,13.184a14.367,14.367,0,0,1-9.375,5.029,13.134,13.134,0,0,1-3.662.2,1.121,1.121,0,0,1-.732-1.269,6.406,6.406,0,0,0-2.686-5.42q-2.687-2-9.131-3.467a7.384,7.384,0,0,1-1.416-.439,0.573,0.573,0,0,1-.244-0.537q0-.487.977-0.537t6.445,0.439q3.125,0.293,5.029.342a18.671,18.671,0,0,0,3.809-.293,12,12,0,0,0,2.929-.83,6.273,6.273,0,0,0,2.149-2,11.665,11.665,0,0,0,1.66-3.028A37.379,37.379,0,0,0,623,879.094q0.635-3.125,1.025-6.2T625,864.641q0.2-1.66.488-4.493,1.074-8.885,0-10.3t-8.691-1.319h-6.153q-7.521,0-8.837.489t-1.905,3.32c-0.065.391-.131,0.717-0.195,0.977q-3.516,16.211-11.231,27.246T566.7,900.578a15.347,15.347,0,0,1-2.588,1.416,1.108,1.108,0,0,1-1.025-.244q-0.684-.684.781-1.855h0Zm98.535-2.784a3.348,3.348,0,0,1-.39-1.318,0.6,0.6,0,0,1,.439-0.635,3.3,3.3,0,0,1,1.318-.049q5.37,0.487,20.362.586t15.967-.39a2.106,2.106,0,0,0,1.269-1.66,69.356,69.356,0,0,0,.2-7.129,71.113,71.113,0,0,0-.2-7.178,2.131,2.131,0,0,0-1.269-1.709q-1.077-.488-10.743-0.2t-14.746.976a5.292,5.292,0,0,1-2.246.1,7.538,7.538,0,0,1-1.172-1.953,11.626,11.626,0,0,1-.879-2.246q0-.487,1.368-0.293,5.567,0.489,16.7.537t12.012-.342a2.236,2.236,0,0,0,.976-1.611,51.452,51.452,0,0,0,.2-6.006v-1.856q0-4.589-.83-5.322t-6.006-.635h-2.539a60.049,60.049,0,0,0-8.252.293q-1.221.294-1.318,2.344a13.145,13.145,0,0,1-.342,1.9,2.064,2.064,0,0,1-1.025.928,12.09,12.09,0,0,1-4.59,1.66q-2.541.392-3.418-.488a1.977,1.977,0,0,1-.635-1.27q-0.049-.681.342-6.25,0.293-4.394.293-16.6,0.2-15.721-.586-25.2-0.292-3.026.1-3.125,0.389-.194,4.59,1.563a26.616,26.616,0,0,0,7.47,2.441q2.393,0.2,21.338.2H712.9q12.4,0,14.7-.342a6.074,6.074,0,0,0,3.955-2.49c0.455-.521.813-0.943,1.074-1.27a1.941,1.941,0,0,1,2.3-.83,21.768,21.768,0,0,1,4.932,3.369q3.123,2.541,3.369,3.369t-1.9,1.9q-2.834,1.563-1.367,34.277a33.594,33.594,0,0,1,0,5.566q-0.2.587-2.343,1.563a13.5,13.5,0,0,1-5.372,1.562q-2.442,0-2.148-2.246,0.293-2.051-1.025-2.441t-8.448-.391h-2.636q-5.178,0-6.055.733t-0.781,5.224v3.711q0,4.592.781,5.322t5.859,0.733h1.856q6.542,0,7.812-.488a17.028,17.028,0,0,0,2.93-3.321,12.848,12.848,0,0,1,2.686-3.027,1.9,1.9,0,0,1,1.9.049,28.532,28.532,0,0,1,4.1,3.076q2.344,1.954,3.028,2.637,2.733,2.442,1.269,3.125-1.563.684-15.625,0.781-12.208.1-13.476,0.195-2.736.392-3.028,2.344-0.1.293-.1,6.641v2.539q-0.1,5.079,1.025,5.908t7.861,0.732h3.223q9.471-.1,10.547-0.39a4.573,4.573,0,0,0,1.953-1.856,51.028,51.028,0,0,1,4-5.176,1.522,1.522,0,0,1,1.855.1,40.1,40.1,0,0,1,6.153,4.883q3.318,3.125,3.222,3.906a0.938,0.938,0,0,1-.585.879q-1.564.389-39.356,0.488-30.08.1-35.205,0.2a75.556,75.556,0,0,0-9.717.781q-2.149.292-2.441-.2A20.631,20.631,0,0,1,662.406,897.111Zm39.014-43.017q0.147-1.074.146-6.446V845.4q0.1-4.49-.781-5.273t-6.347-.781h-4.395q-5.666,0-6.592.83t-0.928,5.81v1.563a41.624,41.624,0,0,0,.293,6.4,2.243,2.243,0,0,0,1.27,1.807q0.683,0.292,8.252.195a73.5,73.5,0,0,0,8.057-.293A1.986,1.986,0,0,0,701.42,854.094Zm28.955-6.543v-1.563q0-4.98-.928-5.81t-6.689-.83h-4.395q-5.471,0-6.4.732t-0.83,5.322v2.246q0,5.274.146,6.4a2.019,2.019,0,0,0,1.026,1.611q0.681,0.49,8.642.342t8.447-.635q0.975-.879.977-7.812h0Zm-29.053-13.086a45.9,45.9,0,0,0,.244-6.348v-2.246q0.1-4.3-.781-5.176-0.879-.78-6.347-0.781h-4.493q-5.664,0-6.543.83t-0.879,6.006v1.855a45.332,45.332,0,0,0,.342,6.006,2.227,2.227,0,0,0,1.221,1.612q0.78,0.392,8.008.341t8.008-.439A2.258,2.258,0,0,0,701.322,834.465Zm28.711,0.146a45.71,45.71,0,0,0,.342-6.006v-2.636q0-4.491-.977-5.274-0.879-.78-6.445-0.781h-4.59q-5.471,0-6.4.732t-0.83,5.225v2.246a56.824,56.824,0,0,0,.2,6.4,2.1,2.1,0,0,0,1.172,1.611q0.78,0.391,8.154.439t8.154-.341A2.232,2.232,0,0,0,730.033,834.611Zm76.123,65.967q0.587,0,5.762-3.32t7.617-5.274a49.266,49.266,0,0,0,15.576-20.214q4.638-11.523,5.127-30.957a26.553,26.553,0,0,0-.293-6.2q-0.392-1.22-2.343-1.22a3.376,3.376,0,0,0-2.247.879,23.429,23.429,0,0,0-2.636,4.1,69.353,69.353,0,0,1-10.449,14.063,9.937,9.937,0,0,0-2.93,4.834q-0.392,2.2,0,12.06,0.2,5.274-.488,6.445t-4.395,2.149q-2.834.783-3.564,0.146t-0.635-3.662q0.1-3.222-.684-3.857t-4.785-.635q-4.3,0-4.883.83t-0.488,6.3q0.1,4.492-.684,5.859t-4.2,2.149q-3.42.783-4.15-.244t-0.342-6.1q0.587-9.862.684-28.369t-0.489-24.268q-0.585-6.151-.293-6.152l0.586,0.2a14.9,14.9,0,0,0,1.612.782c0.747,0.326,1.416.619,2,.879a42.463,42.463,0,0,0,5.273,2.1,30.871,30.871,0,0,0,5.078.244,21.777,21.777,0,0,0,4.688-.39,9.68,9.68,0,0,0,2.636-2.344q1.758-2.051,2.588-2.051t3.565,2.149q1.758,1.368,2.832,2.246,3.026,2.735,1.172,3.808a0.76,0.76,0,0,0-.293.1,3.906,3.906,0,0,0-2.2,2.295,52.6,52.6,0,0,0-.341,8.252v0.976q0,4.006.2,6.2a12.191,12.191,0,0,0,.586,3.173q0.388,0.978,1.074.1a17.1,17.1,0,0,0,1.66-2.93q0.975-2.051,2.539-5.957a85.773,85.773,0,0,0,6.055-27.343q0.1-2.637.488-2.832t3.613,0.683a64.926,64.926,0,0,1,6.836,2.149q2.931,1.075,1.172,2.148a3.3,3.3,0,0,0-1.513,1.709q-0.538,1.223-2.3,6.3-0.294.879-.782,2.246c-0.2.456-.326,0.781-0.39,0.976q-1.172,3.42-.2,4.1,0.975,0.783,8.4.684h5.371q9.57,0,10.938-.586a11.912,11.912,0,0,0,2.929-2.539q2.246-2.344,3.321-2.1t4.687,3.955a36.572,36.572,0,0,1,3.418,4q0.879,1.563-1.27,1.953-1.955.391-4,3.613a107.761,107.761,0,0,1-7.715,10.059q-4.591,5.372-5.371,5.371a1.027,1.027,0,0,1-.537-0.1,0.5,0.5,0,0,1-.147-0.439,3.5,3.5,0,0,1,.147-0.879q0.145-.536.537-1.611,2.439-8.5,3.222-11.524,1.173-4.589.489-5.468t-5.664-.977q-5.666-.1-6.641.732t-0.488,5.225q4.2,40.529,26.269,52.832a7.59,7.59,0,0,1,1.318.928,0.538,0.538,0,0,1,.2.635,1.724,1.724,0,0,1-.928.585,11.336,11.336,0,0,0-4.394,2.637,10.456,10.456,0,0,0-2.735,4q-0.292.587-.439,0.83a0.44,0.44,0,0,1-.537.147,2.2,2.2,0,0,1-.879-0.537q-0.49-.44-1.563-1.514a44.364,44.364,0,0,1-9.717-14.16q-3.662-8.3-6-21.68a36.118,36.118,0,0,0-1.27-5.859q-0.293-.879-0.586-0.782-0.586.1-2.148,5.567-3.808,13.868-12.159,22.607t-24.17,15.479a20.241,20.241,0,0,1-2.929,1.074,0.977,0.977,0,0,1-.977-0.391q-0.684-1.076,0-1.074h0Zm3.906-34.473q0.39-1.072.391-19.042,0-18.36-.391-18.848-1.076-1.465-5.322-1.416t-5.029,1.514q-0.391.781-.391,18.7t0.391,18.7q0.389,0.976,4.053,1.416t5.322-.342a2.656,2.656,0,0,0,.976-0.684h0Zm132.52,28.028a21.6,21.6,0,0,0-4.932-2.1,7.257,7.257,0,0,0-3.466.928,113.741,113.741,0,0,1-15.039,5.322A103.843,103.843,0,0,1,904.5,901.6q-5.664.732-6.348-.44a1.123,1.123,0,0,1,.782-0.391,136.323,136.323,0,0,0,24.9-8.789q5.955-2.93,6.738-4.1t-1.758-3.906a49.918,49.918,0,0,1-7.714-11.231q-2.442-4.883-10.45-1.855a0.881,0.881,0,0,1-.976-0.2,10.232,10.232,0,0,1-1.27-2.246,4.712,4.712,0,0,1-.683-1.758q-0.1-.488.586-0.293,2.538,0.685,24.218.684h4q12.3,0,13.965-.586a20.785,20.785,0,0,0,2.832-2.051q2.246-1.854,3.076-1.757t3.467,2.441q1.074,0.976,1.856,1.66,3.9,3.908.586,4.492a4.657,4.657,0,0,0-2.2.83,19.64,19.64,0,0,0-2.588,2.784,79.143,79.143,0,0,1-7.617,7.91,15.087,15.087,0,0,0-2.881,2.832,1.082,1.082,0,0,0,.342,1.465q1.074,1.076,8.3,2.636a120.622,120.622,0,0,0,15.039,2.246q6.346,0.587,6.445,1.075,0.1,0.293-1.562,1.074a9.546,9.546,0,0,0-3.272,2.881,10.918,10.918,0,0,0-2,4.052,1.152,1.152,0,0,1-.732,1.075,11.7,11.7,0,0,1-2.783-.293,92.075,92.075,0,0,1-24.219-7.715h0Zm1.856-16.895q3.9-4.394,3.906-5.761a1.159,1.159,0,0,0-.293-0.977q-0.684-.586-12.11-0.586-10.352,0-11.621.391a1.047,1.047,0,0,0-.781,1.172q0,1.269,3.223,4.394a47.073,47.073,0,0,0,6.933,5.567,11.455,11.455,0,0,0,2.832,1.367,3.071,3.071,0,0,0,1.953-.293Q940.532,881.633,944.438,877.238Zm-55.86,21.582q6.153-12.792,7.52-35.058,0.488-6.054.39-23.242t-0.683-21.094a3.618,3.618,0,0,1,0-1.27q0.293-.388,5.371,1.953a29.237,29.237,0,0,0,6.2,2.393q1.611,0.245,10.5.244,6.446,0,7.422-.1,3.9-.1,4.59-1.953,0.389-1.073-.2-8.105a15.767,15.767,0,0,1-.2-2.93,0.249,0.249,0,0,1,.1-0.244,1.363,1.363,0,0,1,.537,0,8.7,8.7,0,0,1,1.172.244q0.732,0.2,2.2.586,2.538,0.684,4.2,1.172,5.274,1.758,2.637,3.027-1.466.783-1.465,4.3v0.488q0,2.637,1.221,3.077t8.545,0.439h4.687q6.346,0,7.617-.879,0.781-.389,3.223-3.711a10.8,10.8,0,0,1,1.953-2.343,1.265,1.265,0,0,1,1.27-.1,14.643,14.643,0,0,1,2.636,1.953q6.348,5.178,5.762,6.543a0.28,0.28,0,0,1-.1.195q-0.294.686-4.639,0.83t-30.225.147q-33.4,0-34.082.39a2.013,2.013,0,0,0-1.269,1.368,36.161,36.161,0,0,0-.293,4.785q-0.1,5.859.683,6.64t6.934,0.782q6.249,0,7.178-1.075t0.341-7.421a4.734,4.734,0,0,1,.049-2.295q0.243-.243,2.2.244,3.319,0.879,5.274,1.562,4.491,1.466,2.832,2.832a3.7,3.7,0,0,0-1.318,3.028q-0.051,2.051,1.025,2.734,0.683,0.391,6.738.391h1.367q5.175,0,5.86-.782,0.585-.681.488-4.785-0.2-3.9-.195-4.59a0.778,0.778,0,0,1,.1-0.488q0.195-.389,4.395.781,3.222,0.879,4.785,1.465,3.223,1.271,1.367,2.344-1.271.684-1.269,2.881t1.172,2.881a5.557,5.557,0,0,0,4.882.293,9.9,9.9,0,0,0,4.59-3.711q1.953-2.832,2.637-2.93t3.32,2.051q6.054,5.079,5.176,6.25t-10.644,1.172q-6.252,0-7.227.1-3.222.294-3.906,2.442-0.392,1.563.1,10.937a17.236,17.236,0,0,1,0,3.907,3.648,3.648,0,0,1-1.953,1.367,16.146,16.146,0,0,1-3.759,1.416,3.547,3.547,0,0,1-2.539-.2,1.913,1.913,0,0,1-.928-1.806q0-2.148-1.172-2.588t-6.641-.44a29.2,29.2,0,0,0-6.64.44,2.1,2.1,0,0,0-1.368,2.3q0,1.464-3.613,2.539t-4.785,0a1.729,1.729,0,0,1-.537-1.123q-0.051-.635.146-4.151,0.294-5.76.391-7.324,0.2-5.955-1.367-7.031-1.076-.78-6.445-0.781h-1.954q-4.2,0-4.98.879t-0.781,6.347v2.149a133.15,133.15,0,0,1-1.563,20.117,66.381,66.381,0,0,1-4.394,14.844,49.33,49.33,0,0,1-4.1,7.47,41.33,41.33,0,0,1-4.687,6.055q-2.149,2.2-2.735,1.416-0.2-.293.879-2.637h0Zm56.348-46.338a31.888,31.888,0,0,0,.195-4.541q-0.1-4.49-1.025-5.127t-6.983-.634q-6.056,0-6.982.634t-1.026,5.127q-0.1,5.178.782,5.909t7.226,0.732q6.153,0,6.836-.586A2.167,2.167,0,0,0,944.926,852.482Zm43.7,43.75a8.415,8.415,0,0,1-.928-2q0-.293,1.563-0.2,5.76,0.488,21.288.488,12.885,0,14.06-.2a1.75,1.75,0,0,0,1.27-1.074q0.39-.683.39-17.676t-0.39-17.773a1.72,1.72,0,0,0-1.46-1.123q-1.08-.147-6.54-0.147a120.378,120.378,0,0,0-14.85.781,13.878,13.878,0,0,1-3.368.245,5.039,5.039,0,0,1-1.416-2.1,7.127,7.127,0,0,1-.781-2.148c0-.26.227-0.358,0.683-0.293a135.335,135.335,0,0,0,14.352.683q11.43,0.2,12.21-.293a0.29,0.29,0,0,0,.2-0.1c0.65-.325,1.02-1.139,1.12-2.442s0.15-5.63.15-12.988q0-11.719-.2-12.793c-0.26-1.692-1.11-2.637-2.54-2.832q-0.285-.1-7.62-0.1a141.541,141.541,0,0,0-15.914.684,18.062,18.062,0,0,1-4,.342,3.511,3.511,0,0,1-1.464-1.807,8,8,0,0,1-1.075-2.246q0-.488,1.465-0.293,5.955,0.489,33.012.488,25.575,0,26.17-.293c0.71-.259,2.05-1.758,4-4.492,1.3-1.822,2.2-2.766,2.69-2.832s1.64,0.586,3.46,1.953q7.53,5.666,7.04,7.129v0.1q-0.3,1.172-17.58,1.269h-5.57c-3.84,0-6.58.034-8.2,0.1a9.333,9.333,0,0,0-2.98.39,1.327,1.327,0,0,0-.64,1.075,1.725,1.725,0,0,0-.09.488q-0.3,1.466-.2,14.6t0.49,13.623a1.947,1.947,0,0,0,1.56,1.123q1.08,0.145,6.25.146c2.41,0,3.83.017,4.25,0.049a5.229,5.229,0,0,0,2.1-.586,3.783,3.783,0,0,0,1.66-1.025,29,29,0,0,1,1.76-2.442,17.083,17.083,0,0,1,2.54-2.929,1.693,1.693,0,0,1,1.46-.293,10.022,10.022,0,0,1,2.83,1.855q6.84,5.471,6.35,6.934v0.1c-0.13.522-.85,0.83-2.15,0.928s-5.73.18-13.28,0.244q-13.575.1-14.65,0.391a1.67,1.67,0,0,0-.88,1.269q-0.285.783-.29,17.188t0.2,17.285a2.5,2.5,0,0,0,.58,1.27q0.78,0.488,10.74.585h3.42q7.035,0,8.4-.781a15.758,15.758,0,0,0,2.83-3.32q2.64-3.711,3.32-3.711c0.78,0,2.79,1.367,6.01,4.1s4.8,4.394,4.74,4.98a1.016,1.016,0,0,1-.59.977q-1.665.488-38.18,0.585h-14.8q-7.755,0-10.64.049c-1.92.032-4.06,0.049-6.4,0.049s-4.13.049-5.37,0.147-2.557.227-3.956,0.39-3.239.374-5.517,0.635a0.641,0.641,0,0,1-.782-0.2A18.373,18.373,0,0,1,988.627,896.232Zm65.483-14.013q0-2.441-3.23-8.2a56.731,56.731,0,0,0-6.64-9.668,3.672,3.672,0,0,1-.78-1.172c-0.19-.977,1.2-0.943,4.2.1a29.48,29.48,0,0,1,10.94,6.348,14.333,14.333,0,0,1,2.63,3.32q2.835,4.885,1.08,8.789-1.665,3.81-6.25,2.051-1.95-.78-1.95-1.562h0Zm39.64,19.433q-0.48-.782-0.09-8.984,0.39-5.175.39-32.91,0-29.1-.78-35.547c-0.14-1.3-.12-2,0.04-2.1a10.084,10.084,0,0,1,2.98.537q4.2,1.077,6.35,1.856,4.29,1.464,2.15,2.832a0.288,0.288,0,0,1-.2.1,2.377,2.377,0,0,0-1.07,1.464q-0.39,1.758-.29,29.883,0,28.322.29,34.375,0.2,4.2.15,4.981a1.96,1.96,0,0,1-.54,1.269,10.439,10.439,0,0,1-3.96,2.2,7.824,7.824,0,0,1-4.24.537,1.978,1.978,0,0,1-1.18-.489h0Zm62.02-1.172a8.089,8.089,0,0,0-2.93-5.322c-1.57-1.205-4.17-2.2-7.82-2.978a1.453,1.453,0,0,1-1.27-.879V890.91q0.105-.389,6.06,0a47.6,47.6,0,0,0,7.86.244,2.722,2.722,0,0,0,2.29-1.513q0.495-.879.49-33.5t-0.49-33.4a2.1,2.1,0,0,0-1.85-1.221c-0.91-.1-4.4-0.113-10.45-0.048a156.016,156.016,0,0,0-17.68.878,6.66,6.66,0,0,1-2.83.147,7.549,7.549,0,0,1-1.36-2.295c-0.66-1.236-.92-1.92-0.79-2.051a6.46,6.46,0,0,1,2.45,0q2.145,0.294,16.6.293h3.41q9.48,0.2,11.14-.293a5.384,5.384,0,0,0,2.83-2.148c0.32-.455.59-0.813,0.78-1.074q1.275-1.66,2.1-1.563a11.014,11.014,0,0,1,3.47,2.051q2.64,2.05,3.9,3.223c1.7,1.628,1.76,2.8.2,3.515a4.684,4.684,0,0,0-2.15,1.856q-0.285.489-.39,35.254-0.1,29-.29,33.007a10.974,10.974,0,0,1-.88,4.395q-1.86,4-9.57,5.176c-1.44.259-2.25,0.293-2.44,0.1a3.476,3.476,0,0,1-.39-1.465h0Zm-42.78-73.242a48.409,48.409,0,0,0-9.96-15.82,3.137,3.137,0,0,1-.78-1.27q-0.39-1.659,4.59.1,7.125,2.442,10.94,6.25a14.712,14.712,0,0,1,1.76,2.149q2.73,4.493,1.17,8.3c-0.98,2.41-2.83,3.093-5.57,2.051a3.018,3.018,0,0,1-2.15-1.758h0Zm74.37,73.535a10.146,10.146,0,0,1,2.29-1.171q27.15-11.914,33.69-31.543a1.974,1.974,0,0,1,.1-0.391q1.665-4.783.39-5.566-1.26-.781-10.35-0.782h-1.07a170.212,170.212,0,0,0-18.07.684,18.319,18.319,0,0,1-4.05.342c-0.43-.1-0.93-0.765-1.52-2a6.4,6.4,0,0,1-.88-2.246c0-.26.56-0.325,1.66-0.2q4.89,0.49,19.44.537t15.33-.439a2.629,2.629,0,0,0,1.17-2.051q0.195-1.464.3-8.691v-7.324c-0.14-2.018-.75-3.189-1.86-3.516q-0.885-.293-8.11-0.293a136.828,136.828,0,0,0-15.52.684,14.85,14.85,0,0,1-4.01.293,3.953,3.953,0,0,1-1.46-1.954c-0.72-1.3-1-2.034-.83-2.2s1.15-.178,2.98-0.049q4.1,0.391,21.92.342t18.31-.439q1.47-1.074,3.96-7.764a81.41,81.41,0,0,0,3.66-12.646c0.39-1.822.58-2.832,0.58-3.028,0.07-.259,1.04-0.146,2.93.342a52.5,52.5,0,0,1,5.96,1.953,16.393,16.393,0,0,1,3.91,1.9,0.82,0.82,0,0,1,.29.928,0.854,0.854,0,0,1-.88.44q-0.78,0-4,4a112.583,112.583,0,0,1-8.11,9.082q-3.615,3.613-3.22,4.443t5.86,0.83c3.06,0,4.88-.13,5.47-0.391s1.59-1.367,3.02-3.32a4.829,4.829,0,0,1,.4-0.586q2.04-2.637,2.88-2.734,0.825-.1,4.05,2.343,6.345,4.885,5.76,6.446c-0.26.522-1.06,0.815-2.39,0.879s-6.2.131-14.6,0.2h-5.76c-5.8,0-9.18.293-10.16,0.879s-1.4,2.734-1.27,6.445v7.324a21.352,21.352,0,0,1-.1,2.686,6.373,6.373,0,0,0,.15,1.9,5.922,5.922,0,0,1,.19,1.465,3.475,3.475,0,0,0,1.67,1.514,7.566,7.566,0,0,1,1.61.2,7.527,7.527,0,0,0,2.14.147c0.53-.064,1.53-0.1,3.03-0.1h7.23q6.54-.1,7.81-0.879a15.406,15.406,0,0,0,2.74-3.223q2.535-3.515,3.46-3.515t4.93,3.222q3.03,2.444,3.91,3.223,2.535,2.442.68,3.125-2.04.783-19.14,0.781-15.135,0-16.99.391c-1.17.261-1.72,0.749-1.66,1.465q0,0.684,2.83,4.98a51.626,51.626,0,0,0,14.31,14.16,62.134,62.134,0,0,0,19.58,8.692,12.22,12.22,0,0,1,2.05.537,2.881,2.881,0,0,1,.68.342,0.538,0.538,0,0,1,.1.39,3,3,0,0,1-1.56,1.075,12.085,12.085,0,0,0-3.96,3.515q-2.1,2.637-2.1,4.1-0.285,1.072-6.93-2.051a49.418,49.418,0,0,1-15.53-12.354q-6.15-7.47-10.45-19.384-1.455-4.2-3.61,2.05-7.815,21.779-40.33,31.543c-3.26.977-4.98,1.27-5.18,0.879A0.725,0.725,0,0,1,1187.36,900.773Zm29.78-70.8a7.532,7.532,0,0,1-1.02-2.344,46.47,46.47,0,0,0-8.6-14.649,4.5,4.5,0,0,1-1.07-1.757q-0.69-2.344,7.62,1.66,8.295,4,10.45,9.961a6.663,6.663,0,0,1-.54,6.445,4.007,4.007,0,0,1-5.03,1.66A4.727,4.727,0,0,1,1217.14,829.973Z"/>
  <path id="大写字母" class="cls-3" d="M135.7,523.773a11.2,11.2,0,0,1,2.168-.468q0.351-.058.879-0.117h0.234a2.161,2.161,0,0,0,1.817-1.114q0.879-1.581,5.1-14.355l2.051-6.153q0.76-2.341,2.051-6.211,1.815-5.506,2.754-8.32a38.816,38.816,0,0,1,1.582-4.16,4.571,4.571,0,0,1,.937-1.523,1.251,1.251,0,0,1,.879-0.059,4.95,4.95,0,0,0,1.524,0,0.989,0.989,0,0,1,1.172.41q0.76,1,4.511,12.246,1.464,4.4,2.4,7.09,5.8,17.286,6.914,20.273a2.94,2.94,0,0,0,1.084,1.524,8.517,8.517,0,0,0,2.724.586,5.556,5.556,0,0,1,1.67.351,1.137,1.137,0,0,1,.264.938,1.027,1.027,0,0,1-.234.82q-0.471.236-8.965,0.235h-1.114q-7.381,0-7.851-.235a1.242,1.242,0,0,1-.176-0.879,1.114,1.114,0,0,1,.234-0.937,13.233,13.233,0,0,1,2.168-.352q1-.117,1.172-0.117,1.817-.292,1.993-1.055t-1.348-5.332q-0.175-.585-0.557-1.67a8.362,8.362,0,0,1-.41-1.377,3.014,3.014,0,0,0-.41-0.966c-0.255-.449-0.391-0.693-0.41-0.733a3.871,3.871,0,0,0-.557-0.439,1.094,1.094,0,0,0-.7-0.322,3.216,3.216,0,0,1-1.025-.088,4.65,4.65,0,0,0-1.289-.088,17.04,17.04,0,0,1-1.788.058h-7.265q-2.109.118-2.754,1.231-0.235.411-1.582,4.629a5.433,5.433,0,0,0-.235.82c-0.078.2-.137,0.352-0.175,0.469q-1.114,3.457-.762,4.1,0.351,0.528,2.813.821a3.509,3.509,0,0,0,.527.058,8.184,8.184,0,0,1,1.992.41,1.068,1.068,0,0,1,.293.938,1,1,0,0,1-.176.762q-0.351.294-7.031,0.293a56.014,56.014,0,0,1-7.031-.176,1.391,1.391,0,0,1-.176-0.879,2.426,2.426,0,0,1,.117-0.938h0Zm25.108-16.933q-0.324-1.347-2.491-8.028-2.343-6.972-2.636-7.675-0.763-1.64-1.465-.469-0.411.762-2.871,8.437-2.169,6.856-2.4,8.116t0.645,1.494a41.627,41.627,0,0,0,5.683.088,35.639,35.639,0,0,0,5.332-.264Q161.133,508.188,160.811,506.84Zm27.3,16.992q0.058-.234,2.286-0.469,2.694-.293,3.1-0.82t0.527-3.809q0.117-5.565,0-19.306t-0.293-14.209a1.713,1.713,0,0,0-1.113-.908,19.525,19.525,0,0,0-3.4-.5,1.476,1.476,0,0,1-1.289-.849,0.91,0.91,0,0,1,.175-1.26q0.234-.175,11.28-0.117t12.041,0.234q10.371,2.11,10.371,10.313a8.727,8.727,0,0,1-1.494,5.127,12.519,12.519,0,0,1-4.717,3.779q-2.109,1-2.11,1.406t2.11,1.114q8.964,3.046,8.555,10.664a10.216,10.216,0,0,1-3.838,7.588q-3.546,2.9-10.108,3.72-1.524.176-11.719,0.205t-10.371-.146a2.3,2.3,0,0,1,0-1.758h0Zm26.953-4.1A9.215,9.215,0,0,0,217,512.465a8.242,8.242,0,0,0-3.633-6.445q-3.163-2.05-9.316-1.993h-0.82a2.376,2.376,0,0,0-1.875.528q-0.411.762-.411,6.679v2.344a77.571,77.571,0,0,0,.235,8.906,0.884,0.884,0,0,0,.644.586,14.288,14.288,0,0,0,2.608.147,30.261,30.261,0,0,0,3.369-.088Q212.66,522.544,215.062,519.73Zm-1.845-21.3q2.313-2.666,1.845-7.178-0.41-3.926-2.9-5.625t-7.822-1.641a14.189,14.189,0,0,0-2.549.2,1.151,1.151,0,0,0-.732.791,76.083,76.083,0,0,0-.176,7.911,73.783,73.783,0,0,0,.176,7.851q0.468,1.173,5.1.762Q210.9,501.1,213.217,498.432Zm27.387-9.493a20.579,20.579,0,0,1,7.47-6.064,25.975,25.975,0,0,1,9.61-2.373,23.552,23.552,0,0,1,10.6,1.9c0.117,0.04.273,0.1,0.469,0.176a3.883,3.883,0,0,1,2.051,1.23,19.713,19.713,0,0,1,.351,4.747v1.7a16.644,16.644,0,0,1-.146,3.076,0.948,0.948,0,0,1-1.084.381h-0.41a2.1,2.1,0,0,1-1.641-.381,24.794,24.794,0,0,1-1-3.779,19.594,19.594,0,0,0-1.319-4.688,4.174,4.174,0,0,0-2.373-1.289,16.97,16.97,0,0,0-6.357-.41,11.861,11.861,0,0,0-5.566,2.314,17.6,17.6,0,0,0-4.336,4.717,21.53,21.53,0,0,0-2.7,6.68,30.355,30.355,0,0,0-.732,8.2q0.41,9.728,5.332,14.824t12.832,4.043q3.281-.409,4.072-1.23t1.67-4.922c0.078-.352.176-0.8,0.293-1.348a13.884,13.884,0,0,1,.674-2.519,1.2,1.2,0,0,1,1.143-.293h0.527a1.493,1.493,0,0,1,1.494.644,22.838,22.838,0,0,1,.264,4.16,31.542,31.542,0,0,1-.176,4.747,1.667,1.667,0,0,1-.938.82A24.892,24.892,0,0,1,260.5,526.7a25.617,25.617,0,0,1-11.338-1.758,20.6,20.6,0,0,1-8.291-5.976,22.174,22.174,0,0,1-4.394-9.317,27.675,27.675,0,0,1-.059-11.484A21.777,21.777,0,0,1,240.6,488.939Zm43,34.893q0.058-.234,2.286-0.469,2.694-.293,3.1-0.82t0.527-3.809q0.117-5.565,0-19.306t-0.293-14.209a1.711,1.711,0,0,0-1.113-.908,19.525,19.525,0,0,0-3.4-.5,1.7,1.7,0,0,1-1.26-.82,0.979,0.979,0,0,1,.088-1.289q0.175-.117,10.312-0.117t11.6,0.117q8.965,0.822,13.975,6.621t4.951,15.293q0,9.786-5.537,15.615t-15.44,6.416q-2.46.177-11.045,0.147a86.479,86.479,0,0,1-8.76-.2,2.3,2.3,0,0,1,0-1.758h0Zm33.282-20.215q0-14.12-8.672-18.222a17.273,17.273,0,0,0-6.826-1.465q-4.191-.177-4.717.937-0.294.469-.293,18.779t0.293,18.78q0.293,0.645,2.461.849a18.851,18.851,0,0,0,4.746-.2q13.008-1.99,13.008-19.453h0Zm19.593,20.215q0.058-.234,2.286-0.469,2.636-.293,3.076-0.82t0.556-3.75q0.117-5.45,0-19.277t-0.293-14.3a1.711,1.711,0,0,0-1.113-.908,19.525,19.525,0,0,0-3.4-.5,1.7,1.7,0,0,1-1.26-.82,0.979,0.979,0,0,1,.088-1.289q0.175-.117,16.406-0.117t16.348,0.117a55.763,55.763,0,0,1,.176,5.625,53.894,53.894,0,0,1-.059,5.625,2.5,2.5,0,0,1-1.348.176,3.36,3.36,0,0,1-1.465-.176,19.4,19.4,0,0,1-1-3.867q-0.117-.528-0.293-1.406a0.448,0.448,0,0,1-.058-0.176q-0.528-2.462-1.231-2.871-0.762-.528-4.8-0.469H356.93q-5.04,0-5.977.117a2,2,0,0,0-1.582,1.875q-0.058.469-.059,7.032,0,5.976.059,6.5,0.117,1.934,1.113,2.227,0.292,0.058,3.75.059,3.692,0,4.248-.411t0.967-3.4a8.117,8.117,0,0,1,.44-2.373,1.8,1.8,0,0,1,1.259-.264H361.5a0.73,0.73,0,0,1,.879.674q0.117,0.734.117,5.244v2.4q0,6.27-.293,6.738a1.661,1.661,0,0,1-1.055.176,1.548,1.548,0,0,1-1.23-.293,9.8,9.8,0,0,1-.469-2.168,2.616,2.616,0,0,0-.058-0.469V507.66q-0.353-2.4-.938-2.871-0.645-.468-4.336-0.41h-2.051q-1.933,0-2.343.644-0.469.822-.411,5.918V513.7q0,6.622.118,7.793a1.632,1.632,0,0,0,.761,1.465q0.47,0.236,7.442.205t7.383-.263q0.468-.234,1.494-3.721a20.664,20.664,0,0,0,1.025-4.893q0-.292,1.289-0.41a3.381,3.381,0,0,1,1.7.117,36.689,36.689,0,0,1,.118,5.742,42.864,42.864,0,0,1-.235,5.918q-0.175.177-16.963,0.147t-16.963-.2a2.3,2.3,0,0,1,0-1.758h0Zm45.727,0q0.057-.234,2.285-0.469,2.637-.293,3.076-0.82t0.557-3.75q0.117-5.45,0-19.277t-0.293-14.3a1.716,1.716,0,0,0-1.113-.908,19.542,19.542,0,0,0-3.4-.5,1.7,1.7,0,0,1-1.259-.82,0.98,0.98,0,0,1,.087-1.289q0.177-.117,16.465-0.117t16.407,0.176l0.292,10.605a0.493,0.493,0,0,1-.146.615,3.73,3.73,0,0,1-1.377.147,1.993,1.993,0,0,1-1.523-.352,16.723,16.723,0,0,1-.821-3.222q-0.117-.528-0.351-1.524-0.647-2.988-1.465-3.486t-5.274-.44h-2.109q-5.04,0-5.566.118a2.05,2.05,0,0,0-1.582,1.816q-0.06.587-.059,7.149,0,5.976.059,6.5,0.115,1.934,1.172,2.227,0.293,0.058,3.75.059h1.289q2.928,0,3.457-.528a8.89,8.89,0,0,0,.761-3.34,12.492,12.492,0,0,1,.44-2.314,1.549,1.549,0,0,1,1.2-.264,1.657,1.657,0,0,1,1.172.235,55.4,55.4,0,0,1,.234,7.675V505.2q0,5.45-.293,5.86a1.977,1.977,0,0,1-1.172.175,4.6,4.6,0,0,1-1.054-.058,8.507,8.507,0,0,1-.528-2.813,4.961,4.961,0,0,0-.058-0.586q-0.294-2.46-.821-2.871-0.585-.468-3.808-0.468h-4.16a1.6,1.6,0,0,0-1.465,1.406q-0.175.762-.176,7.793v5.508q0.058,3.222.879,3.75a10.5,10.5,0,0,0,2.871.468q0.585,0.06,1.172.117c0.39,0.04.7,0.079,0.937,0.118s0.371,0.058.411,0.058a1.51,1.51,0,0,1,.2.967,1.674,1.674,0,0,1-.147,1.025q-0.234.177-9.609,0.147t-9.551-.2a2.283,2.283,0,0,1,0-1.758h0Zm50.121-4.043q-5.625-6.328-5.625-16.113a24.005,24.005,0,0,1,3.926-13.74,20.861,20.861,0,0,1,10.693-8.2,26.2,26.2,0,0,1,14.737-.556q4.452,1.055,5.449,2.168t1.054,5.215v1.347a20.122,20.122,0,0,1-.146,3.369,0.97,0.97,0,0,1-1.143.44h-0.41a2.351,2.351,0,0,1-1.7-.352,21.771,21.771,0,0,1-.937-3.691,20.424,20.424,0,0,0-1.26-4.6,3.373,3.373,0,0,0-2.022-1.318,14.165,14.165,0,0,0-13.007,1.875q-5.8,4.1-7.266,12.422a29.307,29.307,0,0,0,.791,14.59,16.909,16.909,0,0,0,7.207,9.463,15.286,15.286,0,0,0,11.514,1.611q2.166-.41,2.49-1.846t0.088-9.463v-0.879q-0.06-3.163-.586-3.867-0.528-.526-3.281-0.7a5.065,5.065,0,0,0-.645-0.059,7.915,7.915,0,0,1-2.051-.263,1.222,1.222,0,0,1-.234-0.967v-0.293a0.634,0.634,0,0,1,.674-0.732q0.732-.088,5.068-0.088h4.16q7.208,0,7.676.234a1.245,1.245,0,0,1,.176.879,1.123,1.123,0,0,1-.235.879,2.663,2.663,0,0,1-1.054.293h-0.293a0.458,0.458,0,0,1-.176.058,2.2,2.2,0,0,0-1.934.821q-0.409.938-.468,7.558V515.8q-0.118,6.973-.235,7.09a17.3,17.3,0,0,1-3.691,1.875,26.882,26.882,0,0,1-12.305,1.933Q437.953,526.117,432.328,519.789Zm45.317,4.043q0.057-.234,2.285-0.469,2.694-.293,3.222-1,0.234-.292.352-18.222t-0.117-18.692a1.528,1.528,0,0,0-.85-1.025,12,12,0,0,0-2.725-.5,9.568,9.568,0,0,1-2.05-.323,1.054,1.054,0,0,1-.293-0.966,0.879,0.879,0,0,1,.176-0.762q0.526-.293,9.316-0.293,8.73,0,9.258.234a0.925,0.925,0,0,1,.234.821,1.132,1.132,0,0,1-.264.937,4.812,4.812,0,0,1-1.611.293,6.438,6.438,0,0,0-.762.059,10.576,10.576,0,0,0-1.728.263,5.075,5.075,0,0,0-.938.381,1.635,1.635,0,0,0-.556,1.319q-0.118,1.084-.147,2.109t-0.029,3.721v4.511q0,1.407-.059,1.963a4.478,4.478,0,0,0,.118,1.377,7.089,7.089,0,0,1,.175,1.026,1.239,1.239,0,0,0,.5.644,1.421,1.421,0,0,0,.762.44q0.264,0,1.289.146a7.673,7.673,0,0,0,1.7.088q0.673-.057,2.4-0.059h3.017q7.676,0,8.731-.058a1.457,1.457,0,0,0,1.347-.645q0.234-.468.235-7.91t-0.293-8.086a2.4,2.4,0,0,0-1.641-1,11.542,11.542,0,0,0-3.222-.41q-0.763,0-.762-1.113a0.879,0.879,0,0,1,.176-0.762q0.526-.293,9.316-0.293,8.73,0,9.258.234a0.925,0.925,0,0,1,.234.821,1.057,1.057,0,0,1-.293.966,9.583,9.583,0,0,1-2.051.323,15.7,15.7,0,0,0-2.636.439,1.761,1.761,0,0,0-.938.791q-0.234.411-.2,18.516t0.264,18.574a1.233,1.233,0,0,0,.82.7,18.956,18.956,0,0,0,2.52.41,9.8,9.8,0,0,1,2.2.41,1.014,1.014,0,0,1,.322.938,1.027,1.027,0,0,1-.234.82q-0.47.236-9.258,0.235a85.27,85.27,0,0,1-9.316-.235,1.111,1.111,0,0,1-.176-0.82,1.012,1.012,0,0,1,.322-0.938,9.141,9.141,0,0,1,2.08-.41q1.407-.176,1.758-0.234a1.87,1.87,0,0,0,1.523-1.641q0.352-1.347.293-10.957V508.48q0.059-3.164-.791-3.691t-6.123-.469h-6.328q-1.817,0-2.49-.058a8.356,8.356,0,0,0-1.758.088q-1.085.147-1.318,0.146a1.528,1.528,0,0,0-.762.5,1.373,1.373,0,0,0-.527.762,9.53,9.53,0,0,1-.176,1.23,5.271,5.271,0,0,0-.088,1.612,19.314,19.314,0,0,1,.088,2.256v5.654q0,5.273.527,6.035,0.353,0.587,2.168.762a4.978,4.978,0,0,1,.879.058,9.474,9.474,0,0,1,2.139.41,1.014,1.014,0,0,1,.322.938,1.027,1.027,0,0,1-.234.82q-0.469.236-9.258,0.235-9.141,0-9.316-.176a2.283,2.283,0,0,1,0-1.758h0Zm57.855,0q0.057-.234,2.285-0.469,2.637-.293,3.076-0.82t0.557-3.75q0.117-5.45,0-19.277t-0.293-14.3a1.716,1.716,0,0,0-1.113-.908,19.542,19.542,0,0,0-3.4-.5,2.638,2.638,0,0,1-1.054-.292,1.122,1.122,0,0,1-.235-0.879,0.882,0.882,0,0,1,.176-0.762q0.528-.293,9.375-0.293,8.789,0,9.316.234a0.921,0.921,0,0,1,.235.821,1.057,1.057,0,0,1-.293.966,9.583,9.583,0,0,1-2.051.323,15.693,15.693,0,0,0-2.637.439,1.755,1.755,0,0,0-.937.791q-0.236.411-.205,18.516t0.263,18.574a1.237,1.237,0,0,0,.821.7,18.93,18.93,0,0,0,2.519.41,9.817,9.817,0,0,1,2.2.41,1.537,1.537,0,0,1,.087,1.758q-0.526.236-9.316,0.235-9.2,0-9.375-.176a2.283,2.283,0,0,1,0-1.758h0ZM560.279,534.5a2.466,2.466,0,0,1,.381-3.34,3.88,3.88,0,0,1,3.369-1.23,7.352,7.352,0,0,1,4.131,1.933,5.315,5.315,0,0,0,2.168,1.348,2.046,2.046,0,0,0,1.553-1.377,12.673,12.673,0,0,0,1.142-3.662q0.585-3.163-.175-39.141-0.118-3.748-.528-4.306t-3.632-.85a9.96,9.96,0,0,1-2.2-.322,1.033,1.033,0,0,1-.263-0.908,1,1,0,0,1,.175-0.762q0.528-.293,9.786-0.293a88.1,88.1,0,0,1,9.082.293,0.83,0.83,0,0,1,.644.762,1.125,1.125,0,0,1-.264.966,9.223,9.223,0,0,1-2.08.323,7.733,7.733,0,0,1-1.054.058,4.608,4.608,0,0,1-.586.059,1.681,1.681,0,0,0-1.582,1.23q-0.469,1.466-.528,11.836v5.508q-0.117,16.933-.586,20.039-1.055,7.032-5.068,10.723a11.886,11.886,0,0,1-9.814,3.047A5.316,5.316,0,0,1,560.279,534.5Zm36.967-10.664q0.058-.234,2.285-0.469,2.637-.293,3.076-0.82t0.557-3.75q0.117-5.45,0-19.277t-0.293-14.3a1.716,1.716,0,0,0-1.113-.908,19.542,19.542,0,0,0-3.4-.5,2.638,2.638,0,0,1-1.054-.292,1.122,1.122,0,0,1-.235-0.879,0.882,0.882,0,0,1,.176-0.762q0.528-.293,9.316-0.293,8.731,0,9.258.234a0.921,0.921,0,0,1,.235.821,1.132,1.132,0,0,1-.264.937,4.819,4.819,0,0,1-1.611.293,8.29,8.29,0,0,1-1.114.059,6.211,6.211,0,0,1-.644.058q-1.758.118-2.168,1.055-0.411,1-.41,7.383v2.636a91.822,91.822,0,0,0,.234,9.61,0.5,0.5,0,0,0,.469.469q0.351,0.058,6.064-6.8t9.58-11.953q0.821-1.113.352-1.612a5.067,5.067,0,0,0-2.578-.791,6.115,6.115,0,0,1-1.67-.41,1.132,1.132,0,0,1-.264-0.937,1.388,1.388,0,0,1,.117-0.762q0.47-.293,7.559-0.293,5.45,0.058,6.416.2a0.994,0.994,0,0,1,1.025.85,1.125,1.125,0,0,1-.263.966,13.335,13.335,0,0,1-2.432.44,6.692,6.692,0,0,1-.879.117,5.723,5.723,0,0,0-2.929,1q-0.646.586-4.747,5.567-4.687,5.684-5.156,6.562a1.487,1.487,0,0,0,0,1.406q0.176,0.469,6.358,11.66t6.591,11.778q0.938,1.349,4.043,1.347a1.473,1.473,0,0,1,1,.235,1.357,1.357,0,0,1,.235.937,1.169,1.169,0,0,1-.293.938q-0.411.175-8.438,0.176h-3.046q-4.278,0-4.981-.088a0.624,0.624,0,0,1-.645-0.733v-0.293a1.221,1.221,0,0,1,.206-0.908,6.017,6.017,0,0,1,1.67-.322q2.285-.234,2.519-0.82t-1-2.813q-5.274-10.02-7.031-13.066t-2.168-3.047q-0.469,0-2.725,2.549a21.215,21.215,0,0,0-2.842,3.72q-0.7,1.29-.293,9.785,0.058,2.461.528,2.9a6.836,6.836,0,0,0,2.988.732,9.155,9.155,0,0,1,2.08.41,1.539,1.539,0,0,1,.088,1.758q-0.528.236-9.141,0.235-9.024,0-9.2-.176a2.283,2.283,0,0,1,0-1.758h0Zm50.619,0.85a1.5,1.5,0,0,1,.205-0.967,3.3,3.3,0,0,1,.821-0.176c0.2-.038.468-0.078,0.82-0.117q3.046-.293,3.516-0.82,0.527-.528.644-3.164v-0.645q0.117-5.45,0-19.277t-0.293-14.3a1.716,1.716,0,0,0-1.113-.908,19.542,19.542,0,0,0-3.4-.5,2.638,2.638,0,0,1-1.054-.292,1.122,1.122,0,0,1-.235-0.879,0.882,0.882,0,0,1,.176-0.762q0.528-.293,9.551-0.293a82.934,82.934,0,0,1,8.848.293,0.83,0.83,0,0,1,.644.762,1.125,1.125,0,0,1-.264.966,10.379,10.379,0,0,1-2.255.323,16.156,16.156,0,0,0-2.549.439,1.518,1.518,0,0,0-.908.791q-0.294.411-.293,18.545t0.293,18.6a1.288,1.288,0,0,0,1.142.732q0.849,0.088,6.006.088h2.578q3.633,0.058,4.395-.527,0.644-.528,1.289-3.34,0.233-1,.351-1.582a30.333,30.333,0,0,1,1.055-4.1,1.9,1.9,0,0,1,1.582-.41,2.713,2.713,0,0,1,1.494.205,6.055,6.055,0,0,1,.088,1.963q-0.118,10.02-.352,10.254-0.117.175-16.259,0.176t-16.377-.118A1.381,1.381,0,0,1,647.865,524.682Zm44.233-.909a5.194,5.194,0,0,1,1.992-.41,21.194,21.194,0,0,0,2.871-.5,1.347,1.347,0,0,0,.879-0.732q0.175-.293.322-15.5t0.029-19.483a4.024,4.024,0,0,0-.527-2.4,6.281,6.281,0,0,0-2.93-.762,15.73,15.73,0,0,1-2.343-.41,1.107,1.107,0,0,1-.235-0.937,0.932,0.932,0,0,1,.908-0.85,54.8,54.8,0,0,1,5.538-.146,46.523,46.523,0,0,1,6.445.058q0.175,0.059,3.691,8.789,9.844,24.377,10.137,24.668a0.714,0.714,0,0,0,1.172-.058q0.292-.353,3.515-8.7t6.387-16.523q3.165-8.174,3.281-8.174,0.177-.117,6.622-0.117t6.562,0.117a2.183,2.183,0,0,1,.117.938,1.236,1.236,0,0,1-.176.879,9.18,9.18,0,0,1-2.167.41,13.315,13.315,0,0,0-2.784.5,1.33,1.33,0,0,0-.849.967q-0.118.41-.147,16.875t0.088,18.105q0.058,1.876.586,2.285a7.759,7.759,0,0,0,2.988.7,9.474,9.474,0,0,1,2.139.41,1.539,1.539,0,0,1,.088,1.758q-0.528.236-9.141,0.235a81.291,81.291,0,0,1-9.14-.235,0.915,0.915,0,0,1-.235-0.82,1.137,1.137,0,0,1,.264-0.938,5.822,5.822,0,0,1,1.728-.351,15.482,15.482,0,0,0,2.637-.44,1.519,1.519,0,0,0,.879-0.791q0.293-.761.293-16.054t-0.352-15.645a0.3,0.3,0,0,0-.527.059q-0.645.821-7.383,18.4-6.446,16.642-6.562,16.7a2.513,2.513,0,0,1-1.289.118,3.731,3.731,0,0,1-1.231-.176q-0.294-.293-6.8-16.524-5.567-13.944-6.562-16.259t-1.465-2.315c-0.2,0-.293.04-0.293,0.117q-0.294.528-.176,17.344v4.219q0,3.81.059,6.211a13.948,13.948,0,0,0,.351,3.34,2.1,2.1,0,0,0,.674,1.172,3.558,3.558,0,0,0,1.494.293c0.43,0.039.781,0.078,1.055,0.117a7.855,7.855,0,0,1,2.139.439,1.1,1.1,0,0,1,.322.967,0.882,0.882,0,0,1-.176.762q-0.409.294-7.383,0.293a61.565,61.565,0,0,1-7.382-.176,1.384,1.384,0,0,1-.176-0.879,1.7,1.7,0,0,1,.176-0.938h0Zm88.324-14.648q-12.365-17.168-13.067-17.988a0.965,0.965,0,0,0-.7-0.41,0.471,0.471,0,0,0-.468.234q-0.352.82-.235,16v9.463q0,1.845.117,3.164t0.235,1.963a1.582,1.582,0,0,0,.556,1,2.174,2.174,0,0,0,.791.439,8.338,8.338,0,0,0,1.29.147c0.546,0.039,1,.079,1.347.117a15.545,15.545,0,0,1,2.725.469,1,1,0,0,1,.381,1v0.234a0.689,0.689,0,0,1-.7.733q-0.7.087-5.1,0.088h-2.11q-7.149,0-7.675-.235a0.738,0.738,0,0,1-.235-0.761,1.033,1.033,0,0,1,.645-1.231q2.929-.468,3.691-0.674a1.4,1.4,0,0,0,1-.732q0.234-.468.381-18.076T763.2,485.688a1.808,1.808,0,0,0-.908-1.172,8,8,0,0,0-2.373-.586,7.54,7.54,0,0,1-1.758-.381,1.116,1.116,0,0,1-.234-0.908,0.88,0.88,0,0,1,.791-0.85,43.109,43.109,0,0,1,4.717-.2q5.448,0,5.683.117,0.175,0.176,10.84,15,8.906,12.365,10.342,14.326a8.9,8.9,0,0,0,1.846,2.139c0.351,0.157.565,0.117,0.644-.117q0.353-.761.293-14.3V490.17a24.692,24.692,0,0,0-.146-2.813q-0.147-1.259-.264-1.787a1.616,1.616,0,0,0-.586-0.908,1.868,1.868,0,0,0-.879-0.439q-0.411-.058-1.406-0.118-0.937-.057-1.465-0.117a17.85,17.85,0,0,1-2.432-.41,1.032,1.032,0,0,1-.263-0.937q0.057-1.113,7.851-1.143t7.852,1.084a1.482,1.482,0,0,1-.205,1,5.811,5.811,0,0,1-1.787.41q-0.411.06-1.055,0.117a2.4,2.4,0,0,0-.645.059,1.608,1.608,0,0,0-1.406,1.289q-0.411,1.641-.469,13.711v6.8q-0.058,19.806-.234,19.98a2.855,2.855,0,0,1-1.523.2,2.549,2.549,0,0,1-1.524-.322q-2.988-3.984-12.07-16.7h0Zm37.611,10.518q-5.068-6.3-5.068-15.967a27.338,27.338,0,0,1,1.67-9.785,20.832,20.832,0,0,1,4.394-7.207,20.554,20.554,0,0,1,6.241-4.424,19.375,19.375,0,0,1,7.207-1.787,18.8,18.8,0,0,1,7.294,1.113,19.954,19.954,0,0,1,6.5,3.838,19.486,19.486,0,0,1,4.805,6.8,27.714,27.714,0,0,1,2.256,9.58q0.643,11.192-5.772,18.486a18.279,18.279,0,0,1-16.2,6.416A18.607,18.607,0,0,1,818.033,519.643Zm23.145,0.468a20.089,20.089,0,0,0,3.515-7.09,34.843,34.843,0,0,0,1.231-8.789,37.523,37.523,0,0,0-.85-8.906,20.952,20.952,0,0,0-3.164-7.412,10.649,10.649,0,0,0-5.39-4.277,9.575,9.575,0,0,0-6.68.058,11.535,11.535,0,0,0-5.3,4.278,22.366,22.366,0,0,0-3.252,7.822,34.586,34.586,0,0,0-.7,10.4q0.644,9.492,4.746,14.3A10.081,10.081,0,0,0,841.178,520.111Zm24.369,3.721q0.057-.234,2.285-0.469,2.637-.293,3.076-0.82t0.557-3.75q0.117-5.45,0-19.277t-0.293-14.3a1.716,1.716,0,0,0-1.113-.908,19.232,19.232,0,0,0-3.34-.5,1.587,1.587,0,0,1-1.377-.849,0.865,0.865,0,0,1,.205-1.26q0.175-.175,10.605-0.117t11.543,0.293q6.153,1.054,9.2,4.014a11.364,11.364,0,0,1,3.222,8.115q0.293,6.563-4.248,10.137t-13.623,3.867h-1q-2.169,0-2.52.732t-0.351,5.01v3.633q0,4.454.527,5.156,0.409,0.587,2.4.762a7.894,7.894,0,0,0,.82.058q0.585,0.06,1.172.117c0.39,0.04.7,0.079,0.937,0.118s0.371,0.058.41,0.058a1.507,1.507,0,0,1,.206.967,1.674,1.674,0,0,1-.147,1.025q-0.236.177-9.609,0.147t-9.551-.2a2.283,2.283,0,0,1,0-1.758h0Zm27.715-29.121q0-5.45-2.608-8t-8.349-2.666a17.462,17.462,0,0,0-2.813.058,1.219,1.219,0,0,0-.879.762q-0.176.294-.263,9.082t0.029,10.078a1.563,1.563,0,0,0,1.23,1.436,12.753,12.753,0,0,0,4.1.029q9.55-.936,9.551-10.781h0Zm38.519,41.719a12.366,12.366,0,0,1-3.867-7.09,5.619,5.619,0,0,0-.82-2.578,4.339,4.339,0,0,0-1.582-.762,19.949,19.949,0,0,1-9.024-5.977,22.3,22.3,0,0,1-4.834-9.14,27.854,27.854,0,0,1-.586-10.371,26.867,26.867,0,0,1,3.106-9.785,20.214,20.214,0,0,1,6.885-7.266,19.124,19.124,0,0,1,20.156,0,20.168,20.168,0,0,1,6.885,7.295A29.294,29.294,0,0,1,950.8,511a21.378,21.378,0,0,1-4.717,9.053,19.072,19.072,0,0,1-8.906,5.771,7.225,7.225,0,0,0-2.4,1.026,1.894,1.894,0,0,0-.352,1.611,8.3,8.3,0,0,0,3.867,6.8q3.516,2.226,8.555,1c0.469-.117.771-0.186,0.908-0.205a1.136,1.136,0,0,1,.44.029,0.316,0.316,0,0,1,.263.176,4.74,4.74,0,0,0,.2.527q0.234,0.761-1.172,1.494a12.655,12.655,0,0,1-3.75,1.114,19.116,19.116,0,0,1-4.57.205A12.456,12.456,0,0,1,931.781,536.43Zm7.412-16.319a20.107,20.107,0,0,0,3.516-7.09,34.8,34.8,0,0,0,1.23-8.789,37.524,37.524,0,0,0-.849-8.906,20.952,20.952,0,0,0-3.164-7.412,10.647,10.647,0,0,0-5.391-4.277,9.575,9.575,0,0,0-6.68.058,11.533,11.533,0,0,0-5.3,4.278A22.329,22.329,0,0,0,919.3,495.8a34.554,34.554,0,0,0-.7,10.4q0.644,9.492,4.746,14.3A10.08,10.08,0,0,0,939.193,520.111Zm52.9,4.541q-0.939-1.347-2.461-7.382-0.822-3.165-1.289-4.893a25.555,25.555,0,0,0-1.143-3.311,9.1,9.1,0,0,0-1.2-2.2,4.762,4.762,0,0,0-1.553-1.113,5.829,5.829,0,0,0-2.051-.586q-1.026-.089-2.841-0.088H978.8q-1.876-.057-2.168.85a36.4,36.4,0,0,0-.293,6.474v1.758q0.057,5.1.059,5.156,0.057,3.106.82,3.575a9.189,9.189,0,0,0,2.754.468,9.8,9.8,0,0,1,2.2.41,1.539,1.539,0,0,1,.088,1.758q-0.528.236-9.316,0.235a86.261,86.261,0,0,1-9.376-.235,1.118,1.118,0,0,1-.175-0.82,1.012,1.012,0,0,1,.322-0.938,9.445,9.445,0,0,1,2.139-.41q2.636-.293,3.076-0.82t0.556-3.75q0.117-5.45,0-19.277t-0.292-14.3a1.715,1.715,0,0,0-1.114-.908,19.525,19.525,0,0,0-3.4-.5,1.7,1.7,0,0,1-1.26-.82,0.979,0.979,0,0,1,.088-1.289q0.175-.117,10.371-0.117t11.66,0.117a17.882,17.882,0,0,1,7.3,2.227,11.024,11.024,0,0,1,4.453,4.365,11.34,11.34,0,0,1,1.319,5.273,8.4,8.4,0,0,1-2.022,5.274,13.877,13.877,0,0,1-5.654,4.072,8.323,8.323,0,0,0-1.641.85,0.432,0.432,0,0,0-.176.644,4.042,4.042,0,0,0,1.172.85,8.6,8.6,0,0,1,3.428,3.369,71.779,71.779,0,0,1,2.959,9.17,20.27,20.27,0,0,0,1.611,4.775q0.5,0.615,2.9.85a6.568,6.568,0,0,1,1.9.351,1.217,1.217,0,0,1,.27,1,1.13,1.13,0,0,1-.35,1.054,13.167,13.167,0,0,1-3.08.469,24.7,24.7,0,0,1-3.721.059Q993.036,526,992.1,524.652Zm-4.483-23.73a8.967,8.967,0,0,0,2.989-3.34,10.444,10.444,0,0,0,1.084-4.16,9.55,9.55,0,0,0-.674-4.16,8.112,8.112,0,0,0-2.666-3.369,9.3,9.3,0,0,0-4.512-1.788,18.809,18.809,0,0,0-4.893-.058q-2.2.294-2.431,0.937-0.175.47-.176,8.438a83.8,83.8,0,0,0,.176,8.379q0.293,0.645,2.021.879a18.34,18.34,0,0,0,4.365-.059A10,10,0,0,0,987.615,500.922Zm25.715,22.119a32.648,32.648,0,0,1,.06-4.424c0.08-2.851.21-4.394,0.41-4.629a2.3,2.3,0,0,1,1.41-.234,1.886,1.886,0,0,1,1.52.381,23.855,23.855,0,0,1,1,3.662,15.7,15.7,0,0,0,1.49,4.658c0.41,0.527,1.46.948,3.14,1.26q6.15,1.348,10.31-1.582a7.047,7.047,0,0,0,3.04-7.91,6.528,6.528,0,0,0-2.13-3.838,27.962,27.962,0,0,0-6.42-3.487q-8.61-3.749-11.57-8.027t-0.97-10.137a11.151,11.151,0,0,1,5.54-6.211,17.874,17.874,0,0,1,9.43-2.08,18.581,18.581,0,0,1,9.46,2.9,1.622,1.622,0,0,1,.8,1.084c0.05,0.41.03,2-.09,4.775a15.05,15.05,0,0,1-.3,3.252,2.1,2.1,0,0,1-1.58.322,2.121,2.121,0,0,1-1.55-.322,24.612,24.612,0,0,1-.97-3.545,14.178,14.178,0,0,0-1.52-4.424,4.542,4.542,0,0,0-2.87-1.084q-5.805-.819-9.05,2.666t-1.03,8.233a7.093,7.093,0,0,0,2.52,2.9,49.079,49.079,0,0,0,6.39,3.252q6.915,3.048,9.52,5.772a10.588,10.588,0,0,1,2.78,7.177,11.387,11.387,0,0,1-3.46,9.2q-3.69,3.515-10.6,4.1a24.6,24.6,0,0,1-13.24-2.578A2.76,2.76,0,0,1,1013.33,523.041Zm47.46,1.553a1.034,1.034,0,0,1,.26-0.938l0.35-.058c0.24-.039.57-0.078,1-0.118s0.84-.077,1.23-0.117a9.178,9.178,0,0,0,3.22-.674c0.35-.253.55-1.025,0.59-2.314q0.165-2.87.09-18.838t-0.27-16.435a1.2,1.2,0,0,0-.47-0.645,2.923,2.923,0,0,0-1.17-.234c-0.58-.039-1.66-0.059-3.22-0.059h-1q-2.865,0-3.57.527-0.585.471-1.29,3.457c-0.12.509-.22,0.9-0.29,1.172a26.712,26.712,0,0,1-.97,3.838,2.139,2.139,0,0,1-1.55.322,2.692,2.692,0,0,1-1.47-.175q-0.06-.234.12-5.83c0.12-3.73.21-5.635,0.29-5.713q0.12-.175,18.34-0.176t18.28,0.117a56.575,56.575,0,0,1,.35,5.8q0.24,5.683.18,5.8a2.869,2.869,0,0,1-1.52.175,4.859,4.859,0,0,1-1.59-.117,4.153,4.153,0,0,0-.14-0.586c-0.1-.351-0.23-0.879-0.38-1.582s-0.32-1.327-.47-1.875c-0.08-.312-0.18-0.741-0.29-1.289q-0.705-2.93-1.26-3.4c-0.38-.312-1.5-0.469-3.37-0.469h-1.12c-0.47,0-1.05-.019-1.75-0.059-1.72-.117-2.72.352-2.99,1.407s-0.39,4.8-.35,11.25v13.652c-0.04,6.485.04,10.245,0.26,11.279s0.99,1.573,2.31,1.612a11.2,11.2,0,0,1,1.29.058,11.74,11.74,0,0,1,2.41.41,0.979,0.979,0,0,1,.35.938,1.007,1.007,0,0,1-.24.82q-0.525.236-10.02,0.235-9.78,0-10.02-.118A1.823,1.823,0,0,1,1060.79,524.594Zm45.4-8.906a21.923,21.923,0,0,1-.64-4.19q-0.12-2.079-.18-12.1-0.06-10.428-.12-11.484-0.165-3.222-1.05-3.691-0.18-.058-2.34-0.352a7.541,7.541,0,0,1-1.88-.322,1.1,1.1,0,0,1-.23-0.908,0.878,0.878,0,0,1,.17-0.762q0.525-.293,9.38-0.293,8.79,0,9.31.234a0.908,0.908,0,0,1,.24.821,0.961,0.961,0,0,1-.3.908,12.233,12.233,0,0,1-2.34.381c-1.95.234-3.08,0.518-3.37,0.849s-0.48,1.573-.55,3.721q-0.12,4.1-.03,13.184t0.26,10.195q1.635,11.6,12.07,10.547a10.057,10.057,0,0,0,6.65-2.871q2.31-2.462,3.14-7.617,0.165-1.056.26-10.752t-0.03-13.331c-0.08-1.679-.27-2.675-0.59-2.988s-1.42-.586-3.34-0.82a16,16,0,0,1-2.69-.44,1.045,1.045,0,0,1-.29-0.966c0-.469,1.3-0.8,3.92-1a52.742,52.742,0,0,1,7.85,0q3.93,0.293,3.93,1a1.109,1.109,0,0,1-.27.966,12.631,12.631,0,0,1-2.37.44c-0.23.039-.55,0.079-0.94,0.117h-0.29a1.876,1.876,0,0,0-1.64,1q-0.465,1.114-.47,9.317v3.632q-0.12,10.02-.2,12.217a27.755,27.755,0,0,1-.5,4.248q-1.47,6.5-5.83,9.61t-11.28,2.519q-10.845-1-13.42-11.015h0Zm58.62-10.43q-7.38-19.863-7.38-19.922a2.119,2.119,0,0,0-.97-1,7.867,7.867,0,0,0-2.26-.469,5.749,5.749,0,0,1-1.64-.264,1.248,1.248,0,0,1-.23-0.966q0.06-1.171,9.31-1.172c6.18,0,9.28.391,9.32,1.172a1.484,1.484,0,0,1-.23,1.084,8.96,8.96,0,0,1-2.11.322,11.9,11.9,0,0,0-3.02.527,1,1,0,0,0-.5,1.172q0.06,0.938,5.07,15.176t5.36,14.707c0.31,0.313.57,0.372,0.76,0.176q0.585-.82,5.16-15.235,3.75-11.776,4.1-13.242c0.39-1.679.27-2.656-.35-2.93q-0.06,0-2.52-.293a12.393,12.393,0,0,1-2.2-.351,1.512,1.512,0,0,1-.2-1.055q0.06-1.171,7.44-1.23t7.44,1.054a1.388,1.388,0,0,1-.2.967,7.62,7.62,0,0,1-1.85.381,14.454,14.454,0,0,0-2.61.557,1.674,1.674,0,0,0-.96.908q-0.24.411-6.98,20.478T1175.71,526a5.28,5.28,0,0,1-1.59.117,6.005,6.005,0,0,1-1.64-.117q-0.165-.118-7.67-20.742h0Zm49.07,0.527c-0.55-1.875-1.26-4.336-2.11-7.383q-1.59-5.565-2.44-8.379a30.539,30.539,0,0,0-1.52-4.218,4.632,4.632,0,0,0-1.05-1.641,2.889,2.889,0,0,0-1.38-.234,7.869,7.869,0,0,1-1.06-.059,5,5,0,0,1-1.55-.264,1.333,1.333,0,0,1-.2-0.966c0.03-.469.45-0.752,1.23-0.85s3.38-.166,7.79-0.2c5.59,0,8.59.1,9.02,0.293a0.82,0.82,0,0,1,.24.762,1.019,1.019,0,0,1-.27.908,9.932,9.932,0,0,1-2.08.381q-0.345.058-.93,0.117c-0.39.039-.67,0.058-0.82,0.058a1.215,1.215,0,0,0-1.23,1.172q-0.18,1.232,2.05,9.551,0.645,2.4.99,3.75,3.105,11.778,3.66,13.711c0.38,1.289.7,1.992,0.97,2.109a0.467,0.467,0,0,0,.65-0.293q0.645-1.111,7.79-24.492,1.23-3.924.99-4.6c-0.15-.449-1.19-0.791-3.1-1.026a15.367,15.367,0,0,1-2.34-.41,1.092,1.092,0,0,1-.24-0.937c0-.469,1.49-0.8,4.45-1a68.384,68.384,0,0,1,8.94,0c2.99,0.195,4.48.527,4.48,1a2.9,2.9,0,0,1-.06.82,7.868,7.868,0,0,1-2.69.527,13.577,13.577,0,0,0-2.61.469,1.246,1.246,0,0,0-.79.879q-0.12.645,4.25,14.766t4.77,14.355a0.434,0.434,0,0,0,.59-0.117q0.465-.7,4.22-14.531,2.865-10.664,3.1-12.071c0.43-1.913.34-3.026-.29-3.34q-0.12-.057-2.46-0.41a0.9,0.9,0,0,1-.29-0.058,8.22,8.22,0,0,1-1.88-.381,1.041,1.041,0,0,1-.23-0.85v-0.058a1.5,1.5,0,0,1,.11-0.762q0.42-.293,7.33-0.293,5.265,0.058,6.21.2a0.987,0.987,0,0,1,1,.85,1.109,1.109,0,0,1-.27.966,9.859,9.859,0,0,1-2.08.381,9.929,9.929,0,0,0-2.66.616,1.986,1.986,0,0,0-.91,1.259l-5.51,20.274q-5.325,19.687-5.57,19.863a5.539,5.539,0,0,1-1.58.117,6.84,6.84,0,0,1-1.64-.117q-0.285-.294-5.16-15.762-3.975-12.421-4.74-14.677t-1.17-2.315a0.526,0.526,0,0,0-.47.176q-0.525.645-5.1,15.762c-0.62,2.031-1.36,4.423-2.2,7.177s-1.45,4.8-1.84,6.123-0.61,2.071-.65,2.227a2.943,2.943,0,0,1-.58,1.26,4.324,4.324,0,0,1-1.53.146,6.84,6.84,0,0,1-1.64-.117q-0.06-.058-5.91-20.215h0Zm59.32,17.988a6.091,6.091,0,0,1,2.16-.468l1.41-.176a3.814,3.814,0,0,0,2.52-1.231q0.645-.761,5.51-8.261a96.44,96.44,0,0,0,5.21-8.5,1.971,1.971,0,0,0-.17-1.524q-0.18-.41-4.87-8.555t-5.45-9.492a2.617,2.617,0,0,0-1.31-1.172,15.374,15.374,0,0,0-3.14-.527,4.386,4.386,0,0,1-1.58-.293,1.206,1.206,0,0,1-.24-0.937,0.868,0.868,0,0,1,.18-0.762c0.35-.195,3.5-0.293,9.43-0.293a83.165,83.165,0,0,1,8.79.293,0.837,0.837,0,0,1,.65.762,1.092,1.092,0,0,1-.24.937,12.4,12.4,0,0,1-2.11.352,5.777,5.777,0,0,0-2.66.674c-0.34.292-.31,0.811,0.09,1.552q0.87,1.758,3.74,6.621a45.269,45.269,0,0,0,3.17,5.039,0.68,0.68,0,0,0,.76.176q0.705-.351,4.22-6.211c1.05-1.758,1.68-2.792,1.87-3.105q1.995-3.34,1.53-3.926-0.24-.41-2.64-0.762a6.5,6.5,0,0,1-1.87-.41,1.313,1.313,0,0,1-.24-1,0.96,0.96,0,0,1,1.03-.82q0.96-.117,6.24-0.176a50.09,50.09,0,0,1,7.2.234,0.808,0.808,0,0,1,.3.821,1.549,1.549,0,0,1-.12.761q-0.12.294-2.46,0.586a12.521,12.521,0,0,0-2.84.616,3.264,3.264,0,0,0-1.32,1.142q-0.705,1.055-5.01,7.734c-2.87,4.454-4.35,6.778-4.42,6.973a3.306,3.306,0,0,0,.58,2.637q5.745,10.079,6.97,12.246,3.81,6.563,5.16,7.5a5.419,5.419,0,0,0,2.29.527,14.357,14.357,0,0,1,2.28.352,1.1,1.1,0,0,1,.24.937v0.293a0.656,0.656,0,0,1-.71.733c-0.51.058-2.32,0.088-5.45,0.088h-3.28a86.091,86.091,0,0,1-9.37-.235,1.1,1.1,0,0,1-.18-0.82,1.083,1.083,0,0,1,.29-0.938,6.353,6.353,0,0,1,1.76-.351,9.386,9.386,0,0,0,2.81-.615,0.984,0.984,0,0,0,.24-1.26q-0.06-.352-3.72-6.651t-3.96-6.65q-0.645-.7-1.05-0.351-0.7.526-4.69,7.148c-1.25,2.109-1.97,3.321-2.17,3.633-1.29,2.226-1.79,3.555-1.52,3.984,0.15,0.235,1,.469,2.52.7a7.255,7.255,0,0,1,1.76.41,1.083,1.083,0,0,1,.29.938,0.868,0.868,0,0,1-.18.762q-0.4.294-7.14,0.293a56.825,56.825,0,0,1-7.09-.176,1.364,1.364,0,0,1-.18-0.879,1.672,1.672,0,0,1,.18-0.938h0Zm58.61,0.059q0.06-.234,2.64-0.469c1.01-.078,1.6-0.136,1.76-0.175a2.1,2.1,0,0,0,1.93-1.407q0.4-1.171.35-8.73v-0.762a15.6,15.6,0,0,0-.35-4.1q-0.465-1.349-5.57-11.719c-0.35-.7-0.82-1.66-1.4-2.871-1.14-2.305-2.04-4.121-2.73-5.45a22.827,22.827,0,0,0-1.67-2.871,3.768,3.768,0,0,0-.99-1.054,3.422,3.422,0,0,0-1.17-.235,3.722,3.722,0,0,0-.53-0.058,11.28,11.28,0,0,1-1.94-.352,1.136,1.136,0,0,1-.23-0.937,0.609,0.609,0,0,1,.23-0.586q0.645-.41,9.03-0.469c5.78,0,8.86.1,9.26,0.293a0.849,0.849,0,0,1,.23.762,1.142,1.142,0,0,1-.23.908,7.32,7.32,0,0,1-1.82.322q-2.235.236-2.46,0.293a1.176,1.176,0,0,0-1,1.524,72.143,72.143,0,0,0,3.58,8.2q4.275,9.083,4.74,9.726a0.636,0.636,0,0,0,.88.117q0.36-.175,4.45-8.73,4.11-8.555,4.16-9.316a0.962,0.962,0,0,0-.41-1.084,8.519,8.519,0,0,0-2.57-.616,1.672,1.672,0,0,1-.36-0.058,8.7,8.7,0,0,1-1.84-.381,0.936,0.936,0,0,1-.26-0.85v-0.058a1.394,1.394,0,0,1,.11-0.762q0.48-.293,7.27-0.293a47.918,47.918,0,0,1,7.09.234,0.827,0.827,0,0,1,.29.821,1.02,1.02,0,0,1-.32.937,10.481,10.481,0,0,1-2.14.469c-0.2.039-.45,0.079-0.76,0.117a3.111,3.111,0,0,0-2.23.879q-0.93.938-4.51,8.2c-0.62,1.289-1.11,2.305-1.46,3.047-0.4.742-.9,1.758-1.53,3.047a68.469,68.469,0,0,0-3.54,7.764,19.161,19.161,0,0,0-.44,5.361v4.922c0,3.008.17,4.727,0.53,5.156q0.4,0.587,2.46.762a5.956,5.956,0,0,1,.93.058,11.74,11.74,0,0,1,2.41.41,0.979,0.979,0,0,1,.35.938,1.007,1.007,0,0,1-.24.82q-0.525.236-9.96,0.235-9.84,0-10.02-.176a2.357,2.357,0,0,1,0-1.758h0Zm38.4,1.7c-0.43-.429-0.17-1.494.77-3.193s4.35-7.158,10.25-16.377q2.58-3.984,5.57-8.672t4.6-7.207c1.07-1.679,1.67-2.617,1.78-2.812a9.685,9.685,0,0,1,.65-1q0.81-1.347.12-1.7-0.825-.41-8.5-0.41h-2.4q-4.875,0-5.77.44-0.915.438-1.56,3.251c-0.15.7-.29,1.27-0.41,1.7a19.384,19.384,0,0,1-1.05,3.75,3.049,3.049,0,0,1-1.7.2,3.08,3.08,0,0,1-1.58-.2q-0.06-.234.17-5.86t0.35-5.742q0.24-.117,15.65-0.117,13.47,0.058,14.82.41a0.878,0.878,0,0,1,.76.82,9.134,9.134,0,0,1-1.55,3.457q-1.545,2.58-10.22,16.231c-0.78,1.251-1.88,2.969-3.28,5.156q-8.385,13.183-8.85,14.414c-0.16.431-.08,0.7,0.23,0.821a0.466,0.466,0,0,0,.18.058q0.525,0.236,9.2.205t9.14-.263a1.565,1.565,0,0,0,.79-0.938c0.17-.469.54-1.777,1.08-3.926a35.647,35.647,0,0,1,1.17-4.219,2.168,2.168,0,0,1,1.5-.322,2.757,2.757,0,0,1,1.55.205,38.508,38.508,0,0,1-.03,5.977q-0.2,5.8-.44,5.976-0.225.177-16.49,0.147t-16.44-.2Z"/>
  <path id="logo" class="cls-1" d="M706.266,1194.7a45.969,45.969,0,0,0-.118,5.15v5.16H677.555v-1.17l0.234-.94-1.406-.24c-1.1,0-2.659-.07-4.688-0.23h-3.281l-0.469,2.58a45.646,45.646,0,0,1-1.172,4.92,22.619,22.619,0,0,1-1.406,4.22,7.125,7.125,0,0,0-.82,2.23,6.584,6.584,0,0,0,2.109-.71c1.326-.54,2.615-1.13,3.867-1.76a11.566,11.566,0,0,0,3.516-2.81l1.641-1.64h66.8l1.875,1.88a14.477,14.477,0,0,0,3.75,2.81c1.406,0.62,2.655,1.17,3.75,1.64a1.036,1.036,0,1,0,1.171-1.17,17.1,17.1,0,0,1-1.406-3.99q-0.7-2.34-1.172-4.68a11.9,11.9,0,0,0-.7-3.05c0-.47-1.252-0.62-3.75-0.47-1.875.16-3.281,0.23-4.219,0.23a2.052,2.052,0,0,1-.937.24c-0.315,0-.469.31-0.469,0.94l0.235,0.93-13.594.24q-13.359,0-13.36-.24a2.838,2.838,0,0,1,.7-1.05,6.664,6.664,0,0,0,1.171-2.46,15.728,15.728,0,0,0,.469-4.22v-2.58h-4.687Q706.382,1194.46,706.266,1194.7Zm-31.289,28.12v4.22l21.093,0.23h21.094l-5.859,4.93q-5.4,4.215-8.2,6.56l-2.344,1.87v6.8H660.445v4.22h40.313v14.76c0,10.01-.158,15.47-0.469,16.41a13.152,13.152,0,0,1-1.172,3.05,21,21,0,0,1-2.578,3.04,16.962,16.962,0,0,1-3.75,2.82c-1.406.62-2.109,1.17-2.109,1.64s0.153,0.7.468,0.7a30.375,30.375,0,0,0,3.047-.47,34.353,34.353,0,0,0,4.922-1.4,16.4,16.4,0,0,0,4.688-1.88,11.74,11.74,0,0,0,3.515-2.34,12.264,12.264,0,0,0,2.344-2.58,13,13,0,0,0,1.172-2.58c0.311-.94.469-6.4,0.469-16.41v-14.76h38.2v-4.22h-38.2v-6.8l2.109-1.64q2.109-1.635,8.438-6.79,6.327-5.4,8.437-7.04a13.637,13.637,0,0,0,2.578-2.34q0-.225-28.828-0.23t-29.062.23h0Zm121.64-30.23-0.469,1.87a27.635,27.635,0,0,1-1.523,5.74c-0.861,2.43-1.681,4.65-2.461,6.68q-1.176,2.58-3.281,6.8-1.88,3.75-4.453,8.44-2.11,3.75-4.688,7.73-2.582,4.215-3.047,4.92a7.818,7.818,0,0,0-1.406,2.11c-0.157.47-.117,0.71,0.117,0.71a8.252,8.252,0,0,0,2.227-1.18q1.873-1.17,3.515-2.34,1.874-1.41,3.985-3.28a59.714,59.714,0,0,0,4.453-4.45l2.109-2.35,0.235,14.77,0.234,14.76h1.875a5.862,5.862,0,0,0,3.047-.7,5.457,5.457,0,0,0,1.875-1.17,11.374,11.374,0,0,0,1.406-1.64l0.469-.71h27.187v2.11l0.235,2.11h1.64a7.437,7.437,0,0,0,2.813-.47,9.072,9.072,0,0,0,2.109-1.17,4.666,4.666,0,0,0,1.407-1.64l0.7-.94h31.64v-4.45H838.336v-6.8H868.57v-4.45H838.336v-6.8H868.57v-4.68H838.336v-7.5H868.57v-4.69H837.164l0.938-1.17a23.668,23.668,0,0,0,1.406-2.35,6.445,6.445,0,0,0,.7-2.57,17.74,17.74,0,0,0,.469-4.93v-3.51H828.727v14.53H815.6q-13.129,0-13.125-.23c0-.16-0.158-0.24-0.469-0.24s0.311-1.41,1.875-4.22a69.182,69.182,0,0,0,3.281-7.5,16.732,16.732,0,0,0,1.406-3.98l0.235-1.17H796.617Zm31.406,22.03v7.5H802.477v-7.5h25.546Zm0,12.18v6.8H802.477v-6.8h25.546Zm0,11.25v6.8H802.477v-6.8h25.546Zm-3.515,16.88v5.16l-22.969.23H778.805v4.45h45.7v1.64c0,1.1-.081,1.64-0.235,1.64a40.222,40.222,0,0,1-4.687-1.17q-4.455-1.17-4.922-1.4-0.236,0-6.328,4.68-6.1,4.935-7.734,6.1-1.643.93-4.454,2.58a58.967,58.967,0,0,1-5.39,2.57q-2.812,1.185-5.391,2.23a35.226,35.226,0,0,1-5.859,1.76,17.416,17.416,0,0,0-3.047,1.05,6.06,6.06,0,0,0,1.289,1.06,3.994,3.994,0,0,0,1.992.94c0.469,0,2.344-.32,5.625-0.94s6.328-1.33,9.141-2.11q4.449-1.17,8.2-2.35a22.822,22.822,0,0,0,4.922-2.1q1.637-.945,9.14-6.1t7.618-5.04q0.115,0.12.117,13.48v13.12h1.406a7.357,7.357,0,0,0,2.813-.7,6.692,6.692,0,0,0,3.046-1.99,11.184,11.184,0,0,0,2.11-3.17,8.733,8.733,0,0,0,.586-2.34q0.115-1.17.117-6.33c0.154-4.68.271-7.11,0.352-7.26s1.442,0.55,4.1,2.11q3.982,2.1,6.8,3.51a34.945,34.945,0,0,0,6.328,2.58,54.282,54.282,0,0,0,6.328,1.64,52.974,52.974,0,0,0,5.625.94c1.718,0.16,4.219.23,7.5,0.23a38.521,38.521,0,0,0,5.86-.23,1.37,1.37,0,0,0,1.171-.94l0.235-1.17c0-.15-0.235-0.24-0.7-0.24-0.315,0-1.722-.23-4.219-0.7s-5-1.01-7.5-1.64q-3.516-.93-6.8-2.11-2.812-.93-5.625-2.11-2.346-1.17-10.078-6.33l-7.734-5.15,19.453-.24h19.453v-4.45H854.977l-20.157-.23v-2.58l-0.234-2.58H824.508Z"/>
</svg>
