<svg xmlns="http://www.w3.org/2000/svg" width="400" height="200" viewBox="0 0 400 200">
  <defs>
    <style>
      .cls-1 {
        fill: #fdfdfd;
        fill-rule: evenodd;
      }
    </style>
  </defs>
  <path id="王漢宗標楷體空心" class="cls-1" d="M36.3,84.18a145.927,145.927,0,0,1-14.672,1.875,12.379,12.379,0,0,0-1.875.234,1.549,1.549,0,0,0-.562.563q-0.61,1.453,1.688,2.578a20.022,20.022,0,0,0,6.656.188,1.061,1.061,0,0,1,1.125.328,1.866,1.866,0,0,1,.234.656,42.45,42.45,0,0,1,.469,6.609,0.862,0.862,0,0,1-.7,1.031l-6.516.656a1.642,1.642,0,0,0-1.125.7,1.181,1.181,0,0,0-.047.984,6.049,6.049,0,0,0,.7.937,7.679,7.679,0,0,0,5.016.985q0.937-.141,1.828-0.188a0.786,0.786,0,0,1,.938.891l0.094,6.422a0.748,0.748,0,0,1-.8.89q-2.719.189-5.344,0.469a67.749,67.749,0,0,1-9.562.563q-1.923.28-1.781,1.828a2.935,2.935,0,0,0,1.5,1.453,8.823,8.823,0,0,0,3.844,1.172q11.531-2.3,30.891-1.969a7.63,7.63,0,0,0,2.531-.094,1.68,1.68,0,0,0,1.359-.7q0.89-1.266-.891-2.719-3.234-2.061-5.531-1.5-4.547.7-10.875,1.125a0.625,0.625,0,0,1-.8-0.656q0-3.375.047-6.75a0.842,0.842,0,0,1,.75-0.984,61.456,61.456,0,0,0,6.469-1.031,3.47,3.47,0,0,0,1.875-.657,1.78,1.78,0,0,0,.422-0.843,1.827,1.827,0,0,0-1.125-1.687,5.462,5.462,0,0,0-3.8-.937,36.612,36.612,0,0,1-3.656.7q-0.938.141-.937-0.609,0-.562.047-1.125,0.234-1.874.563-3.7a1.708,1.708,0,0,1,.328-0.891,1.444,1.444,0,0,0,.375-1.172q-0.328-.937.422-1.031a46.419,46.419,0,0,0,7.734-1.453,1.159,1.159,0,0,0,.8-1.266,1.936,1.936,0,0,0-.8-1.312q-2.531-1.734-4.547-1.125a15,15,0,0,1-2.766.563h0ZM43.469,86.2a0.467,0.467,0,0,1-.422.375,82.071,82.071,0,0,1-9.187,1.547q-0.844.095,0.047,0.7a1.336,1.336,0,0,1,.609,1.266A5.277,5.277,0,0,0,34,91.117a25.019,25.019,0,0,0-.75,6.422,0.744,0.744,0,0,0,.938.844q3.421-.562,4.969-0.984a4.8,4.8,0,0,1,2.531.656,1.4,1.4,0,0,1,1.078,1.078,1.63,1.63,0,0,1-.75.563,68.552,68.552,0,0,1-7.828,1.219,0.905,0.905,0,0,0-.937.984L33.2,110.2a0.855,0.855,0,0,0,1.078.891,115.877,115.877,0,0,0,12.328-1.313,4.368,4.368,0,0,1,2.156.469,4.957,4.957,0,0,1,2.672,1.735q0.375,0.8-.656,1.078a7.466,7.466,0,0,1-2.437.093,193.384,193.384,0,0,0-23.578.8q-3.094.375-7.359,1.172a4.819,4.819,0,0,1-1.641-.281,5.942,5.942,0,0,1-2.812-1.641,0.914,0.914,0,0,1,.984-0.75,65.485,65.485,0,0,0,8.438-.422q2.577-.373,7.313-0.609a0.81,0.81,0,0,0,.75-1.078l-0.094-8.109a0.789,0.789,0,0,0-.938-0.844q-1.125.047-2.25,0.14a10.245,10.245,0,0,1-4.078-.234,2.731,2.731,0,0,1-1.172-.844,0.753,0.753,0,0,1-.094-0.468,2.932,2.932,0,0,1,.656-0.187l6.891-.7a0.968,0.968,0,0,0,.891-1.078,54.941,54.941,0,0,0-.422-7.312,2.274,2.274,0,0,0-.375-1.172,1.591,1.591,0,0,0-1.547-.844l-1.125.047a18.631,18.631,0,0,1-5.062,0,2.359,2.359,0,0,1-1.781-1.219,0.573,0.573,0,0,1,.563-0.469,162.083,162.083,0,0,0,16.641-2.062,11.965,11.965,0,0,0,1.828-.422,3.653,3.653,0,0,1,3.094.281A1.863,1.863,0,0,1,43.469,86.2h0Zm42.891-7.031a1.511,1.511,0,0,0,.141,1.594,7.043,7.043,0,0,1,.234,2.578,1.024,1.024,0,0,1-.844,1.031q-1.454.188-2.953,0.469a0.714,0.714,0,0,1-.984-0.609,2.426,2.426,0,0,0-.047-0.469,3.2,3.2,0,0,0-.328-1.594,2.434,2.434,0,0,0-.937-0.7,8.755,8.755,0,0,0-2.719-.562q-2.016.469-1.359,2.2a6.2,6.2,0,0,0,.7,1.547q0.327,0.938-.422,1.078-1.594.235-3.188,0.516a1.541,1.541,0,0,0-1.078.609q-0.141.422-.328-0.281a4.87,4.87,0,0,0-.656-1.125,11.735,11.735,0,0,0-5.484-1.922,2.014,2.014,0,0,0-1.312.328,3.671,3.671,0,0,0-.469.844,2.464,2.464,0,0,0,.609,1.359Q65.593,86.9,66.3,87.7q2.391,2.953,4.031,2.813a2.354,2.354,0,0,0,2.063-1.969q0.093-.844.234-0.562a3.114,3.114,0,0,0,1.172.984,5.082,5.082,0,0,0,4.078.469,0.808,0.808,0,0,1,1.078.609,16.233,16.233,0,0,0,.7,2.531,2.247,2.247,0,0,0,1.359,1.359q0.327,0.095-.328.188a24.77,24.77,0,0,1-3.281.422,1.8,1.8,0,0,1-.891-0.187,3.617,3.617,0,0,0-2.156,0,1.437,1.437,0,0,0-.7,1.828,1.333,1.333,0,0,0,.563.469,2.462,2.462,0,0,1,.656,1.547l0.469,2.719a4.039,4.039,0,0,0,1.359,2.2q0.327,0.141-.141.422-1.453,1.032.141,2.25a7.162,7.162,0,0,0,4.781.516q0.7-.141.656,0.14a1.142,1.142,0,0,1-.8.282q-2.531.234-5.25,0.609-1.875.235-3.8,0.328a1.863,1.863,0,0,0-2.062.8,1.346,1.346,0,0,0,.609,1.781q0.937,0.657,1.828,1.219a2.676,2.676,0,0,0,1.828.375,33.181,33.181,0,0,1,5.578-1.125q0.937-.141.422,0.8a12.836,12.836,0,0,1-2.344,2.531,19.945,19.945,0,0,1-7.359,3.516,2.2,2.2,0,0,0-1.172,1.078,0.781,0.781,0,0,0,.469,1.078,8.76,8.76,0,0,0,1.687.187,24.913,24.913,0,0,0,7.406-2.156,13.711,13.711,0,0,0,6.188-6.75,1.51,1.51,0,0,1,1.125-.984,72.225,72.225,0,0,1,11.3-.141,3.673,3.673,0,0,0,2.25-.422,1.154,1.154,0,0,0,.469-0.937,3.5,3.5,0,0,0-2.344-2.719q-2.063-.843-2.766-0.562-2.109.421-8.062,0.89c-0.532.032-.8-0.047-0.8-0.234a0.837,0.837,0,0,1,.8-0.469,33.858,33.858,0,0,1,3.609-.469,3.546,3.546,0,0,0,2.25-.937,0.99,0.99,0,0,0,.047-1.36,3.653,3.653,0,0,0-1.734-1.031q-0.75-.234-0.047-0.328,0.937-.047,1.828-0.047a1.431,1.431,0,0,0,1.266-2.109,1.249,1.249,0,0,1,.328-1.312,5.383,5.383,0,0,1,1.125-.984q1.688-1.312-.516-3.094a5.52,5.52,0,0,0-3.7-1.453,16.043,16.043,0,0,1-3.609.7A0.923,0.923,0,0,1,87.25,92.9q-0.047-.141.656-0.281,0.468-.093.891-0.141A3.076,3.076,0,0,0,90.25,92.2a1.338,1.338,0,0,0,.141-1.875,1.236,1.236,0,0,1-.281-1.172L90.3,88.3a0.838,0.838,0,0,1,.891-0.8l5.2-.328a1.556,1.556,0,0,0,1.266-.8q0.468-1.64-2.484-3.047a4.325,4.325,0,0,0-2.953-.187q-0.891.188-.656-0.562a1.675,1.675,0,0,0,.469-1.594,3.808,3.808,0,0,0-1.5-1.734Q88.468,77.9,87.016,78.6a1.447,1.447,0,0,0-.656.563h0Zm4.734,1.922a0.736,0.736,0,0,1-.234.891,7.213,7.213,0,0,0-.516,1.594q-0.188.938,0.75,0.75l1.641-.375a4.209,4.209,0,0,1,3.609,1.219,0.653,0.653,0,0,1,.375.8,0.574,0.574,0,0,1-.516.328q-2.766.141-5.578,0.328A1.158,1.158,0,0,0,89.5,87.6q-0.188.938-.328,1.781a1.052,1.052,0,0,0,.234,1.172q0.609,0.469.234,0.938a1.887,1.887,0,0,1-.844.094l-2.625.469q-1.032.188-.469,0.516,1.125,0.8.7,1.453-0.094.188,0.75,0.047l3.141-.516,1.875-.422a5.092,5.092,0,0,1,2.719,1.313q1.171,0.844.8,1.453a8.491,8.491,0,0,0-2.062,2.109q-0.61.891-.187,1.172a0.684,0.684,0,0,1,.141,1.078,2.284,2.284,0,0,1-.891.094,50.83,50.83,0,0,0-5.812.562,1,1,0,0,0-.937,1.031q-0.047.891,0.891,0.7a7.421,7.421,0,0,1,4.219-.234,2.449,2.449,0,0,1,1.5.75,0.664,0.664,0,0,1-.562.609,4.766,4.766,0,0,1-1.875.375q-1.641.141-3.422,0.469a1.1,1.1,0,0,0-1.031,1.078l-0.047.61q-0.094.843,0.984,0.8,6.562-.516,9.187-0.985a2.324,2.324,0,0,1,1.406.281,4.186,4.186,0,0,1,1.828,1.032q0.8,0.8.375,1.312a2.032,2.032,0,0,1-1.312.235,82.305,82.305,0,0,0-12.047.14,1.505,1.505,0,0,0-1.266,1.078,12.91,12.91,0,0,1-6.047,6.8,22.71,22.71,0,0,1-7.359,2.016q-1.079-.235-0.141-0.61a21.971,21.971,0,0,0,6.187-2.671,12.834,12.834,0,0,0,4.688-5.3q0.327-.937-0.609-0.8a34.527,34.527,0,0,0-6.234,1.078,2.112,2.112,0,0,1-1.828.094,15.651,15.651,0,0,1-1.547-.938,3.311,3.311,0,0,1-.891-0.89,0.633,0.633,0,0,1,.422-0.375l3.188-.235q3.7-.468,7.359-0.844a1.086,1.086,0,0,0,1.078-.984l0.047-.469a0.631,0.631,0,0,0-.8-0.8,11.553,11.553,0,0,1-1.828.235,7.031,7.031,0,0,1-2.625-.141,2.681,2.681,0,0,1-.937-0.75,1.011,1.011,0,0,1,1.172-.562l4.359-.61a1.1,1.1,0,0,0,.938-1.218q0.046-.845-0.984-0.75-1.782.28-3.469,0.421a2.474,2.474,0,0,0-.984.094q-0.376.8-.937,0.188a3.172,3.172,0,0,1-.844-1.828,17.015,17.015,0,0,1-.281-1.829,4.281,4.281,0,0,0-.984-2.484,0.966,0.966,0,0,1-.422-0.469,0.82,0.82,0,0,1,1.125-.469,3.24,3.24,0,0,1,1.125.281,1.23,1.23,0,0,0,.938.047q1.593-.141,4.547-0.656a0.781,0.781,0,0,0,.656-1.125,1.034,1.034,0,0,0-.7-0.937,0.726,0.726,0,0,0-.516.141,0.385,0.385,0,0,1-.656.094,2.832,2.832,0,0,1-.656-1.266l-0.7-2.531a0.942,0.942,0,0,0-1.172-.8,5.2,5.2,0,0,1-2.531.375,3.943,3.943,0,0,1-2.531-1.312,1.2,1.2,0,0,1,.938-0.422l3.656-.516q0.844-.141.516-1.172a18.086,18.086,0,0,0-.984-2.3,0.7,0.7,0,0,1,.375-1.172,5.785,5.785,0,0,1,1.828.281q1.593,0.376,1.313,1.594l0.094,1.406a0.825,0.825,0,0,0,1.078.75l4.359-.7a1.1,1.1,0,0,0,1.031-1.078,8.515,8.515,0,0,0-.234-3.609,0.76,0.76,0,0,1-.094-0.937,1.328,1.328,0,0,1,1.219-.234,4.855,4.855,0,0,1,2.625,1.781h0ZM70.375,85.68a2.336,2.336,0,0,1,.656,3.563,1.64,1.64,0,0,1-2.3-.375,15.069,15.069,0,0,1-2.812-3.047,4.118,4.118,0,0,1-.7-1.031,0.757,0.757,0,0,1,.984-0.375,18.115,18.115,0,0,1,4.172,1.266h0Zm11.25,3.047,0.188,1.313q0.141,1.079.984,0.938a17.945,17.945,0,0,0,3.328-1.031,1.172,1.172,0,0,0,1.031-1.125l0.094-.937a0.651,0.651,0,0,0-.844-0.8q-2.016.235-3.937,0.563a0.882,0.882,0,0,0-.844,1.078h0ZM85.516,89.2a10.74,10.74,0,0,1-1.922.656,0.66,0.66,0,0,1-.938-0.609,0.642,0.642,0,0,1,.656-0.8q1.03-.187,2.063-0.328,0.937-.093.891,0.375a0.913,0.913,0,0,1-.75.7h0ZM61.469,95.1L61.8,95.57a13.588,13.588,0,0,0,3.469,3.422,2.324,2.324,0,0,0,3.516-2.109,3.359,3.359,0,0,0-1.875-3.328,19.42,19.42,0,0,0-4.594-1.266,1.368,1.368,0,0,0-1.687,1.266,3.274,3.274,0,0,0,.844,1.547h0Zm5.109-.7a2.415,2.415,0,0,1,1.266,2.625,1.371,1.371,0,0,1-1.031,1.359q-1.406.141-3.047-1.875a36.1,36.1,0,0,1-2.25-2.859,0.749,0.749,0,0,1,1.031-.375A17.544,17.544,0,0,1,66.578,94.4h0ZM86.969,95.43a0.928,0.928,0,0,0-.938,1.031V98.43q0,0.8,1.078.563,1.406-.281,2.813-0.516A1.326,1.326,0,0,0,91.094,97.4l0.234-.891a0.837,0.837,0,0,0-.375-1.266,8.261,8.261,0,0,0-2.156,0,17.257,17.257,0,0,0-1.828.188h0Zm-8.016,1.453a1.082,1.082,0,0,0-.937,1.125l0.047,1.313a0.808,0.808,0,0,0,.891.938q1.781-.141,3.609-0.422A1,1,0,0,0,83.5,98.8q0-1.03-.094-2.016-0.094-.844-1.219-0.656-1.735.328-3.234,0.75h0ZM90.3,96.836a1.029,1.029,0,0,1-.937.844l-1.5.281a0.692,0.692,0,0,1-.937-0.8,0.846,0.846,0,0,1,.844-0.937l1.828-.141q0.937-.046.7,0.75h0Zm-7.687,1.172a0.882,0.882,0,0,1-.8,1.031q-0.984.141-2.016,0.234a0.647,0.647,0,0,1-.844-0.656,1.028,1.028,0,0,1,.7-1.031,17.039,17.039,0,0,1,2.016-.422,0.76,0.76,0,0,1,.938.844h0Zm-14.484,3.14q-0.891,1.877-1.922,3.7a22.072,22.072,0,0,1-3.8,5.484,3.911,3.911,0,0,0-1.547,1.641A3.323,3.323,0,0,0,61,114.133a18.059,18.059,0,0,0,.656,1.828,4.133,4.133,0,0,0,.422.937,2.939,2.939,0,0,0,1.594,1.5,1.494,1.494,0,0,0,1.734-.937,14.253,14.253,0,0,0,.844-2.719q0.844-2.577,3.094-8.25,0.844-2.2,1.266-3.7a4.048,4.048,0,0,0,.188-1.828,1.256,1.256,0,0,0-2.016-.656,4.441,4.441,0,0,0-.656.843h0Zm1.781,0.563a82.728,82.728,0,0,1-3.8,10.594q-0.516,1.5-1.125,3.656a3.229,3.229,0,0,1-.656,1.406q-0.516.516-1.313-.656a4.827,4.827,0,0,1-.469-0.891q-0.376-.937-0.656-1.875a1.932,1.932,0,0,1,.188-2.2,9.03,9.03,0,0,0,2.484-2.531,50,50,0,0,0,4.219-7.313,1.32,1.32,0,0,1,.75-0.937,0.509,0.509,0,0,1,.375.75h0Zm11.859,0.937-2.719.375q-0.844.095-.7-0.046a1.375,1.375,0,0,1,.891-0.188q1.171-.093,2.391-0.281,0.844-.046.141,0.14h0Zm3.8,8.485a1.781,1.781,0,0,0,.891,1.594q0.89,0.609,1.875,1.359a52.273,52.273,0,0,1,4.5,4.266,10.6,10.6,0,0,0,3.516,2.156,1.75,1.75,0,0,0,2.344-1.313q0.89-3.8-2.953-5.812a23.973,23.973,0,0,0-3.7-1.828A19.1,19.1,0,0,0,86.5,110.1a1,1,0,0,0-.937,1.031h0Zm10.781,3.8a3.488,3.488,0,0,1,1.594,3.468q-0.188,1.734-1.641,1.172a10.638,10.638,0,0,1-2.719-1.781,46.891,46.891,0,0,0-6.281-5.578,2.215,2.215,0,0,1-.8-0.984,1.241,1.241,0,0,1,.844-0.094,23.121,23.121,0,0,1,9,3.8h0Zm27.7-33.8a12.413,12.413,0,0,0,1.969,3.844q0.563,0.891-.235.984a66.452,66.452,0,0,1-7.031.563,1.036,1.036,0,0,1-1.078-.609,2.378,2.378,0,0,0-1.453-1.125,1.48,1.48,0,0,0-1.5,1.172,22.314,22.314,0,0,1-2.485,5.484,3.182,3.182,0,0,0-.562,1.969,3,3,0,0,0,1.359,2.625q1.782,1.079,3.328-.937a16.389,16.389,0,0,0,1.829-3.609,1,1,0,0,1,1.031-.844l3.8-.75A89.982,89.982,0,0,1,137.5,87.789q0.938-.046.656,0.7a30.011,30.011,0,0,1-1.312,3.047q-0.469,1.594,1.125,1.688a0.908,0.908,0,0,0,.469-0.141,30.146,30.146,0,0,1,6.421-2.2,2.006,2.006,0,0,0,1.453-1.453,2.358,2.358,0,0,0-.374-1.875,15.242,15.242,0,0,0-3.376-3.187,3.366,3.366,0,0,0-2.578-.8q-1.875.516-7.125,1.406-0.891.141-.89-0.609-0.235-2.577-3.281-3.75a6.806,6.806,0,0,0-3.7-.75,1.174,1.174,0,0,0-.937,1.266h0Zm1.922-.422a11.359,11.359,0,0,1,3.656,1.453,2.9,2.9,0,0,1,1.266,3.469q-0.282.563,0.609,0.469l6.844-1.219q0.89-.234,1.828-0.422a1.775,1.775,0,0,1,1.406.328,17.17,17.17,0,0,1,3.516,3.141,1.226,1.226,0,0,1-.563,2.063,28.069,28.069,0,0,0-5.719,1.969,2.148,2.148,0,0,1-1.078.234,1.129,1.129,0,0,1,.235-0.891,28.908,28.908,0,0,0,1.359-3.328q0.327-1.031-.281-1.125a92.827,92.827,0,0,0-18.422,2.625,7.6,7.6,0,0,1-2.016.281,0.825,0.825,0,0,0-1.078.75,13.554,13.554,0,0,1-1.969,4.172,1.464,1.464,0,0,1-2.25.422,2.321,2.321,0,0,1-.75-1.734,2.467,2.467,0,0,1,.469-1.547,25.3,25.3,0,0,0,2.531-5.531,1.124,1.124,0,0,1,.329-0.516,1.035,1.035,0,0,1,1.125.8,1.251,1.251,0,0,0,1.312.891,91.261,91.261,0,0,0,9.188-.8q0.936-.141.14-0.891a21.016,21.016,0,0,1-2.531-4.125q-0.422-.656.094-0.891a3.009,3.009,0,0,1,.75-0.047h0Zm3.093,12.328q-3.329.75-7.359,1.266a3.087,3.087,0,0,0-1.687.516,2.7,2.7,0,0,0-.235.609,2.3,2.3,0,0,0,.657,1.406,3.02,3.02,0,0,0,1.406.75,11.255,11.255,0,0,0,2.765.188,53.654,53.654,0,0,0,10.782-1.922,1.063,1.063,0,0,0,.8-1.594,2.914,2.914,0,0,0-1.172-1.172,4.54,4.54,0,0,0-3.282-.8,11.9,11.9,0,0,1-2.672.75h0Zm5.766,0.984q0.8,0.75,0,1.031a50.769,50.769,0,0,1-9.187,1.734,14.063,14.063,0,0,1-2.672.047,2.283,2.283,0,0,1-2.3-1.219,1.63,1.63,0,0,1,.75-0.422,56.354,56.354,0,0,0,10.5-1.969,3.653,3.653,0,0,1,2.906.8h0Zm-18.937,7.829a6.823,6.823,0,0,0-1.829.281,1.531,1.531,0,0,0-.937,1.031,1.777,1.777,0,0,0,1.219,1.641,5.844,5.844,0,0,0,3.656.937q4.264-.609,7.312-0.937a0.874,0.874,0,0,1,1.079.7,51.42,51.42,0,0,1-.094,10.875,6.329,6.329,0,0,0,.469,4.031q0.8,1.828,2.39,1.453a2.6,2.6,0,0,0,.8-0.609,5.349,5.349,0,0,0,.985-2.391l0.046-10.969a18.7,18.7,0,0,1,.422-2.718,0.842,0.842,0,0,1,.75-0.985q5.3-.373,10.032-0.515a3.95,3.95,0,0,0,1.921-.516,0.985,0.985,0,0,0,.469-1.312,4.351,4.351,0,0,0-1.547-1.735,5.377,5.377,0,0,0-4.125-1.031q-11.062,1.547-23.015,2.766h0Zm25.968-1.407a4.123,4.123,0,0,1,1.782,1.594,0.875,0.875,0,0,1-.985.7q-6.609.235-12.234,0.7-0.844.095-.422,0.375a1.048,1.048,0,0,1,.516,1.032,25.371,25.371,0,0,0-.375,2.765l-0.094,11.2a5.864,5.864,0,0,1-.7,1.688q-0.891,1.077-1.641-.235a4.427,4.427,0,0,1-.562-2.953,60.554,60.554,0,0,0,.234-10.922,7.6,7.6,0,0,0-.281-1.781,1.147,1.147,0,0,0-1.36-.75q-3.984.421-7.359,0.938a5.011,5.011,0,0,1-3.7-.844,0.955,0.955,0,0,1-.656-0.7,2.49,2.49,0,0,1,.8-0.375q14.344-1.5,24.282-2.953a4.312,4.312,0,0,1,2.765.515h0Zm-6.468,9.469q1.781,2.2,3.515,4.594a7.117,7.117,0,0,0,1.969,1.781,1.817,1.817,0,0,0,2.3-.234,1.861,1.861,0,0,0,.656-0.938,4.78,4.78,0,0,0-.094-3.609,4.665,4.665,0,0,0-1.359-1.781,14.878,14.878,0,0,0-3.7-2.25,10.744,10.744,0,0,0-3.563-1.125,1.28,1.28,0,0,0-1.265.562q-0.562,1.313,1.547,3h0Zm-17.579-1.266q-0.7,2.813-4.593,7.219a1.23,1.23,0,0,0-.235,1.406,1.606,1.606,0,0,0,2.25.282,7.617,7.617,0,0,0,1.828-1.032A22.483,22.483,0,0,0,121,113.1a18.061,18.061,0,0,1,1.781-1.829,2.084,2.084,0,0,0,.657-0.843,1.852,1.852,0,0,0-1.032-2.391q-2.766-1.5-4.218-.656a1.51,1.51,0,0,0-.376,1.265h0Zm23.626,1.5a3.849,3.849,0,0,1,1.781,3.563,2.4,2.4,0,0,1-.8,1.781,1.06,1.06,0,0,1-1.36-.187,10.859,10.859,0,0,1-2.578-2.813,25.608,25.608,0,0,0-3.515-4.312,0.788,0.788,0,0,1-.328-0.891,2.761,2.761,0,0,1,.8,0,17.223,17.223,0,0,1,6,2.859h0Zm-19.5-1.312a1.372,1.372,0,0,1,.7.937,0.757,0.757,0,0,1-.375.75A11.13,11.13,0,0,0,121,111.7a21.238,21.238,0,0,1-4.078,3.8,6.2,6.2,0,0,1-1.828,1.125,1.011,1.011,0,0,1-1.36.141,5.047,5.047,0,0,1,.8-0.938q1.266-1.546,2.391-3.234a11.353,11.353,0,0,0,1.781-3.609,2.983,2.983,0,0,1,.141-0.985,5.258,5.258,0,0,1,3.094.844h0Zm40.406-27.328,0.375,0.891a35.432,35.432,0,0,1,.7,8.813,1.011,1.011,0,0,1-.7.328,64.907,64.907,0,0,1-6.422.984,1.548,1.548,0,0,0-1.266.8q-0.234,1.406,1.735,2.344a13.181,13.181,0,0,0,4.781.094q0.938-.093.609,0.656a34.3,34.3,0,0,1-7.687,11.391,2.582,2.582,0,0,0-.938,1.453,1.062,1.062,0,0,0,.516.89,3.51,3.51,0,0,0,3.422-.984,22.083,22.083,0,0,0,5.062-5.156q0.609-.844.563-0.047a72,72,0,0,1-1.172,10.359,7.62,7.62,0,0,0,1.312,5.578q1.266,1.641,2.625-.093a6.963,6.963,0,0,0,1.172-3.75q-0.047-7.032,0-13.969,0.047-.937.7-0.141a7.455,7.455,0,0,0,1.125.938q1.548,0.843,2.579-.938a2.508,2.508,0,0,0-.938-3.515,15.091,15.091,0,0,0-2.531-1.078,0.865,0.865,0,0,1-.8-0.891l0.047-.75a0.946,0.946,0,0,1,.843-0.984,17.1,17.1,0,0,0,3-.844,1.522,1.522,0,0,0,.8-0.984q0.046-.375.235,0.469,0.186,1.032.422,2.063a3.966,3.966,0,0,0,.515,1.828q0.8,1.5,1.922,1.266a1.553,1.553,0,0,0,.8-0.562,1.1,1.1,0,0,1,1.031-.469,18.683,18.683,0,0,0,1.875-.094q3.7-.281,7.36-0.562a2.545,2.545,0,0,1,1.359.375q2.3,1.079,3.422-2.016,0.468-.937,1.031-1.828a9.659,9.659,0,0,1,1.078-1.875q0.328-.422.656-0.8,1.5-1.874-.75-3.187a11.784,11.784,0,0,0-2.765-1.359,4.216,4.216,0,0,0-1.781.141q-0.891.094-.563-0.422a1.3,1.3,0,0,0,0-1.266q-0.187-.327.563-0.469a10.459,10.459,0,0,0,1.828-.422,1.67,1.67,0,0,0,1.218-.891,1.418,1.418,0,0,0-.562-1.781,4.714,4.714,0,0,0-3.938-1.031,14.031,14.031,0,0,1-1.828.469,106.55,106.55,0,0,1-11.015,1.641,6.494,6.494,0,0,0-1.828.234,1.177,1.177,0,0,0-.938.984,1.984,1.984,0,0,0,1.219,1.781,6.318,6.318,0,0,0,3.094.516q1.125-.327.984,1.172,0.093,0.938-.656.984l-1.547.188a1.627,1.627,0,0,1-.891-0.141,2.906,2.906,0,0,0-2.953.141,1.362,1.362,0,0,0-.328.75,1.87,1.87,0,0,0,.984,1.641,1.523,1.523,0,0,1,.422.7q0.234,0.844-.093.328a6.544,6.544,0,0,0-3-1.219q-0.891.095-.891-0.656a40.213,40.213,0,0,1,.8-6.375,2.633,2.633,0,0,0-1.453-2.625,14.8,14.8,0,0,0-1.829-.984,1.951,1.951,0,0,0-2.437.281,1.59,1.59,0,0,0-.281,1.688h0ZM166.8,81.6q1.077,1.032.562,1.828a44.707,44.707,0,0,0-.75,7.172q-0.047.938,1.032,0.563a3.74,3.74,0,0,1,2.765.656q1.266,0.938-.14,1.406a22.833,22.833,0,0,1-2.766.7,1.2,1.2,0,0,0-1.172,1.031l-0.094,1.828a1.187,1.187,0,0,0,.891,1.313,11.827,11.827,0,0,1,2.109.7q2.016,0.657,1.547,2.25-0.609,2.155-2.3.375-0.7-.845-1.5-1.735-0.75-.8-0.8.188-0.094,8.111-.047,16.172a5.662,5.662,0,0,1-.8,2.812q-0.75,1.593-1.547.188a7.353,7.353,0,0,1-1.125-3.891,95.944,95.944,0,0,0,1.5-14.437q0-1.03-.7.093a25.766,25.766,0,0,1-2.86,4.172,14.994,14.994,0,0,1-3.468,3.281,4.442,4.442,0,0,1-2.11,1.125,0.907,0.907,0,0,1-.609-0.14,2.524,2.524,0,0,1,.844-0.938,24.671,24.671,0,0,0,1.968-2.109,37.487,37.487,0,0,0,6.282-10.781q0.327-.89-0.61-0.75a21.15,21.15,0,0,1-4.312.328,3.708,3.708,0,0,1-2.156-.562,0.884,0.884,0,0,1-.469-0.844,1.937,1.937,0,0,1,.89-0.234,52.807,52.807,0,0,0,6.563-1.078,1.124,1.124,0,0,0,.937-1.266,44.218,44.218,0,0,0-.515-7.687,5.3,5.3,0,0,0-.516-1.828,1.124,1.124,0,0,1-.187-0.8,0.77,0.77,0,0,1,.984-0.516A10.443,10.443,0,0,1,166.8,81.6h0Zm22.875-.187a1.118,1.118,0,0,1,.844.891,0.612,0.612,0,0,1-.61.516,22.576,22.576,0,0,1-3.515.75q-0.891.141,0.187,0.938a0.86,0.86,0,0,1,.047,1.406,4.1,4.1,0,0,0-.281.7q-0.282.891,0.656,0.75,1.266-.141,2.531-0.375a0.935,0.935,0,0,1,.422.094,7.953,7.953,0,0,1,2.766,1.453,0.933,0.933,0,0,1,.515.75,1.907,1.907,0,0,1-.562,1.078,7.723,7.723,0,0,0-1.219,1.828q-1.032,1.828-2.015,3.656a1.247,1.247,0,0,1-1.547.609,0.685,0.685,0,0,1-.516-0.422,2.245,2.245,0,0,0-.984-0.094l-1.125.047q-3.657.235-7.36,0.563a6.107,6.107,0,0,1-2.484-.094,1.059,1.059,0,0,0-.188.563q-0.375,1.219-1.265.141a4.11,4.11,0,0,1-.422-0.937q-0.422-2.3-.891-4.594a3.988,3.988,0,0,0-.844-1.828,1.963,1.963,0,0,1-.843-0.891,0.592,0.592,0,0,1,.14-0.281,2.6,2.6,0,0,1,2.344.234,0.752,0.752,0,0,0,.469.047q1.359-.187,2.719-0.281a0.832,0.832,0,0,0,.843-1.031,5.983,5.983,0,0,0-.281-2.109,1.384,1.384,0,0,0-1.453-.75,7.142,7.142,0,0,1-2.625-.328,1.54,1.54,0,0,1-.984-0.844q-0.094-.234.656-0.469A93.116,93.116,0,0,0,187,80.9a3.424,3.424,0,0,1,2.672.516h0Zm-9.422,2.953q-0.937.095-.516,0.422a1.145,1.145,0,0,1,.141,1.359,3.568,3.568,0,0,0-.094,1.219,0.766,0.766,0,0,0,.938.844l1.593-.187a1.045,1.045,0,0,0,1.079-.984,6.639,6.639,0,0,0-.094-2.062,1.183,1.183,0,0,0-1.406-.844Zm2.25,1.781a0.928,0.928,0,0,1-.938,1.031c-0.593.063-.875-0.156-0.843-0.656l0.093-.516a0.992,0.992,0,0,1,.891-0.937,0.7,0.7,0,0,1,.8.656v0.422Zm3.047,4.125-0.563,2.906a0.672,0.672,0,0,0,.8.891,1.586,1.586,0,0,1,.7.188q0.938,0.422,1.219-.7l0.7-3.047a2.473,2.473,0,0,0,0-1.031,2.294,2.294,0,0,0-1.594-.141,1.229,1.229,0,0,0-1.265.938h0Zm-5.672.469,0.047,3q0,0.938,1.125.8a3.887,3.887,0,0,1,.844-0.094,1.136,1.136,0,0,0,.984-1.172q0.093-1.406.234-2.766a0.654,0.654,0,0,0-.75-0.891l-1.593.141a0.855,0.855,0,0,0-.891.984h0Zm-5.2.516a22.437,22.437,0,0,1,.469,2.766,0.9,0.9,0,0,0,1.031.891l0.89-.047q1.032-.046.938-0.891l-0.234-3.094a0.838,0.838,0,0,0-1.078-.75l-1.219.141a0.766,0.766,0,0,0-.8.984h0Zm12.375,1.266q-0.236.844-.75,0.75c-0.251-.062-0.328-0.375-0.235-0.937l0.188-1.172a1.056,1.056,0,0,1,.8-0.984q0.514,0,.328.8Zm-5.016.047a0.877,0.877,0,0,1-.656.984c-0.375.032-.579-0.25-0.609-0.844a7.042,7.042,0,0,0,0-1.125,0.832,0.832,0,0,1,.7-0.984,0.56,0.56,0,0,1,.7.656Zm-4.969.469q0.046,0.938-.515.984-0.469,0-.563-0.75L175.75,92.1q-0.187-.937.469-0.984,0.656-.093.75,0.75ZM176.406,98.9a2.057,2.057,0,0,0-1.265.422,0.953,0.953,0,0,0-.235.844,2.225,2.225,0,0,0,1.453,1.641,9.4,9.4,0,0,0,4.219.187l1.828-.187a27.526,27.526,0,0,0,5.532-1.078q1.17-.937-0.094-2.3-2.391-1.5-4.078-.75a55.587,55.587,0,0,1-7.36,1.219h0Zm10.547,0.047a0.913,0.913,0,0,1,.609.656,0.4,0.4,0,0,1-.374.468,50.38,50.38,0,0,1-5.954.938,9.844,9.844,0,0,1-4.359,0,1.335,1.335,0,0,1-1.078-.985,1.072,1.072,0,0,1,.8-0.234,55.4,55.4,0,0,0,7.453-1.266,3.742,3.742,0,0,1,1.078-.234,5.548,5.548,0,0,1,1.828.656h0Zm-4.875,3.844q-4.125.328-7.359,0.8a28.34,28.34,0,0,1-4.172.281,3.344,3.344,0,0,0-1.359.188,1.494,1.494,0,0,0-.8.7,1.3,1.3,0,0,0,.609,1.734,5.276,5.276,0,0,0,.891.563,6.076,6.076,0,0,0,3.75.843c0.593-.124.8-0.124,0.609,0a0.967,0.967,0,0,0-.422.938,1.516,1.516,0,0,1-.281.891,24.107,24.107,0,0,1-4.219,5.531q-0.7.7-.14,1.125a1.566,1.566,0,0,0,1.828.422,12.153,12.153,0,0,0,6.937-5.3,1.518,1.518,0,0,0,.563-0.891,1.875,1.875,0,0,0-.75-1.828,3.551,3.551,0,0,0-1.782-1.125q-0.891-.093-0.187-0.281,1.359-.327,2.672-0.516a0.886,0.886,0,0,1,1.078.7,50.9,50.9,0,0,1,.047,6.844,6.32,6.32,0,0,0,0,4.688q0.748,1.688,1.875,1.734a1.888,1.888,0,0,0,1.687-1.172,4.982,4.982,0,0,0,.7-1.875l0.094-8.719a8.462,8.462,0,0,1,.422-1.828,0.94,0.94,0,0,1,.937-0.89l1.36-.094q4.078-.046,8.156,0a3.963,3.963,0,0,0,1.594-.469,1,1,0,0,0,.422-0.7q-0.048-1.641-2.25-2.766a9.936,9.936,0,0,0-1.828-.656,2,2,0,0,0-1.032-.141,60.855,60.855,0,0,1-9.656,1.266h0Zm12.891,0.844q1.547,1.079.422,1.64a7.737,7.737,0,0,1-1.875.141q-4.689-.186-9.563.094-0.891.094-.562,0.422a0.871,0.871,0,0,1,.14,1.031,11.1,11.1,0,0,0-.515,2.3l-0.047,8.437a4.1,4.1,0,0,1-.469,1.313q-0.891,1.781-1.922.047a4.445,4.445,0,0,1-.281-3.657,6.029,6.029,0,0,0,.234-1.921,33.653,33.653,0,0,0-.234-6.657,1.1,1.1,0,0,0-1.219-.89,37.136,37.136,0,0,0-5.016.937q-1.686.7-4.593-1.125a0.417,0.417,0,0,1-.188-0.7,2.167,2.167,0,0,1,1.313-.281,29.669,29.669,0,0,0,4.265-.281q3.609-.516,7.36-0.8a55.528,55.528,0,0,0,9.187-1.219,2.772,2.772,0,0,1,1.735.281,5.868,5.868,0,0,1,1.828.891h0Zm-8.813,5.578a19.317,19.317,0,0,1,2.11,2.719q1.218,1.827,2.484,3.656a6.53,6.53,0,0,0,1.922,1.781,1.89,1.89,0,0,0,2.484-1.265q1.407-3.937-3.094-6.985a20.294,20.294,0,0,0-3.656-1.922,2.37,2.37,0,0,0-2.437,0,1.64,1.64,0,0,0,.187,2.016h0Zm4.266-.094a8.9,8.9,0,0,1,3.609,3.188q1.125,2.484-.093,4.031a0.759,0.759,0,0,1-.657.234,5.59,5.59,0,0,1-2.437-2.39,39.268,39.268,0,0,0-3.891-5.391,1.068,1.068,0,0,1-.187-0.984,8.36,8.36,0,0,1,3.656,1.312h0Zm-12.8,1.172a3.086,3.086,0,0,1-.8,1.125,11.185,11.185,0,0,1-6.328,4.641,0.669,0.669,0,0,1-.375-0.094,1.209,1.209,0,0,1,.563-0.844,18.959,18.959,0,0,0,3.984-5.859q0-.984.75-0.75a2.451,2.451,0,0,1,1.453.656,1.752,1.752,0,0,1,.75,1.125h0Zm52.547-29.766a2.08,2.08,0,0,0,.234.938,2.912,2.912,0,0,1,.235.891l0.047,5.438q0.045,0.938-.7.469a3.227,3.227,0,0,0-2.625-.328L226,88.352q-0.937.328-.891-0.469a10.908,10.908,0,0,1,.094-1.453q0.188-2.109-2.344-3.047a2.574,2.574,0,0,0-2.718.281,1.952,1.952,0,0,0-.094,1.688,5.219,5.219,0,0,1,.656,1.828,18.685,18.685,0,0,1,.094,3.281q0,0.891-.75.609a3.093,3.093,0,0,0-3.235-.047q-0.89.281-.89-0.469a28.985,28.985,0,0,1,.7-5.672q0.609-2.062-1.687-3.281-2.157-1.547-3.61-.8a1.566,1.566,0,0,0-.7,1.313,1.765,1.765,0,0,0,.234.891,6.2,6.2,0,0,1,.469,1.406,35.127,35.127,0,0,1,.516,7.172,0.861,0.861,0,0,1-.75.891,41.183,41.183,0,0,1-6.047,1.031,2.539,2.539,0,0,0-1.359.516,1.172,1.172,0,0,0-.469.844,2.342,2.342,0,0,0,1.875,1.922,14.065,14.065,0,0,0,4.594,0q0.936-.141.609,0.609a37.074,37.074,0,0,1-8.25,12.469q-0.75,1.032-.469,1.453a1.771,1.771,0,0,0,2.672.188,15.579,15.579,0,0,0,4.078-3.375,30.648,30.648,0,0,0,2.625-3.422q0.468-.8.422,0a79.169,79.169,0,0,1-.937,8.906,7.053,7.053,0,0,0,1.031,5.86q1.031,1.593,2.156.7a3.649,3.649,0,0,0,1.266-1.782,14.2,14.2,0,0,0,.468-1.828l0.094-13.406q0-.984.516-0.141,1.688,2.813,3.422,1.922a2.489,2.489,0,0,0,.984-1.781,3.5,3.5,0,0,0-1.359-3.562,10.148,10.148,0,0,0-2.625-1.5,1.179,1.179,0,0,1-.844-1.172V96.648a1.023,1.023,0,0,1,.844-1.031q2.156-.515,3.375-0.891,0.89-.375.843,0.422l-0.187,2.063a3.534,3.534,0,0,0,.281,3.234q1.172,2.157,2.906,1.078l2.766-2.578q0.75-.656.8,0.141,0.656,1.36-1.36,3.75a1.04,1.04,0,0,1-1.265.469,3.532,3.532,0,0,0-1.5-.047,1.524,1.524,0,0,0-.891,2.062,4.541,4.541,0,0,1,.563,1.828,25.365,25.365,0,0,1-.281,7.969,6.119,6.119,0,0,0,1.406,4.547q1.125,1.031,2.156-.328a1.56,1.56,0,0,1,1.266-.938l7.265-.515a0.934,0.934,0,0,1,1.078.75,4.953,4.953,0,0,0,1.032,2.015,1.456,1.456,0,0,0,.89.469,1.645,1.645,0,0,0,1.407-.515,5.476,5.476,0,0,0,1.593-3.657q-0.095-5.625-.093-8.906a5.692,5.692,0,0,1,.468-1.969,2,2,0,0,0,0-1.828,3.557,3.557,0,0,0-1.265-1.219,10.869,10.869,0,0,0-2.766-1.171,6.923,6.923,0,0,0-1.828.234q-1.828.422-3.609,0.8-0.891.141-.235-0.7l0.235-.235a3.713,3.713,0,0,1,.843-0.8q1.172-.889.469-1.828a5.76,5.76,0,0,0-3.281-2.3q-0.8-.141,0-0.844l0.422-.281q1.547-1.359.468-2.437a1.645,1.645,0,0,0-1.218-.094,7.07,7.07,0,0,0-1.36.609l-1.875.891q-0.891.422-.89-0.328V92.945a0.711,0.711,0,0,1,.75-0.8q1.077-.141,4.031-0.75,0.938-.375.984,0.375a13.577,13.577,0,0,0,.375,3.8A5.779,5.779,0,0,0,232,97.4a7.2,7.2,0,0,0,2.812,1.922,14.8,14.8,0,0,0,3.7.7,9.031,9.031,0,0,0,6.422-1.687q2.765-2.062.984-4.406-0.236-.749-0.656-2.766A2.459,2.459,0,0,0,244.8,89.8q-0.939-.656-1.406-0.141a2.8,2.8,0,0,0-.516.938q-0.328,1.36-.609,2.766a2.522,2.522,0,0,1-1.5,1.5,9.012,9.012,0,0,1-4.407.047,1.648,1.648,0,0,1-1.265-.937,6.3,6.3,0,0,1-.282-2.437,0.711,0.711,0,0,1,.75-0.8q1.453-.141,5.532-0.937a3.466,3.466,0,0,0,1.828-.891,2.191,2.191,0,0,0,.562-0.891,1.61,1.61,0,0,0-1.125-1.781,6.526,6.526,0,0,0-1.64-.609,1.94,1.94,0,0,0-1.407.047l-3.374,1.078q-0.939.281-.844-0.469a13.881,13.881,0,0,1,.281-2.3,5.554,5.554,0,0,0,.281-1.828,2.523,2.523,0,0,0-.8-1.406Q232.8,78.93,231.391,79.3a1.439,1.439,0,0,0-1.219,1.219h0Zm4.219,1.078a1.121,1.121,0,0,1,.281,1.359,30.416,30.416,0,0,0-.563,4.453q-0.047.891,1.032,0.516l4.593-1.453a3.364,3.364,0,0,1,1.407.188,2.99,2.99,0,0,1,1.406.938,0.754,0.754,0,0,1-.609.938,3.311,3.311,0,0,1-1.594.422,29.458,29.458,0,0,1-5.485.938,0.807,0.807,0,0,0-.937.891,8.573,8.573,0,0,0,.375,3.656,2.892,2.892,0,0,0,1.219,1.172,8.7,8.7,0,0,0,4.172.375,3.642,3.642,0,0,0,3.328-2.156l0.656-2.719q0.327-.89.7-0.047a17.26,17.26,0,0,0,.844,3.469q1.172,1.5-.75,3.047A6.789,6.789,0,0,1,241.7,98.9a12.628,12.628,0,0,1-4.265.141,8.286,8.286,0,0,1-3.7-1.312,3.862,3.862,0,0,1-1.593-1.969,13.513,13.513,0,0,1-.375-1.828q-0.141-5.859-.188-11.578l-0.234-.937a0.953,0.953,0,0,1-.141-1.078,1.4,1.4,0,0,1,1.359-.047,5.028,5.028,0,0,1,1.829,1.313h0ZM215.734,84.7a42.356,42.356,0,0,0-.8,6.891,0.621,0.621,0,0,0,.89.7l1.36-.469q1.265-.8,3.187.422,1.172,0.891-.375,1.406a22.935,22.935,0,0,1-4.359,1.172,1.163,1.163,0,0,0-.938,1.172l-0.047,1.453a1.279,1.279,0,0,0,1.032,1.313,13.41,13.41,0,0,1,2.765,1.547,2.585,2.585,0,0,1,1.125,1.781,2.893,2.893,0,0,1-.516,1.969,0.789,0.789,0,0,1-1.078,0,7.079,7.079,0,0,1-1.453-1.828q-0.562-.891-1.219-1.829-0.7-.889-0.75.141-0.093,7.969-.093,15.938a6.166,6.166,0,0,1-1.078,2.718,1,1,0,0,1-.61.375,2.78,2.78,0,0,1-.89-1.125,6.015,6.015,0,0,1-.61-4.5,100.833,100.833,0,0,0,1.219-12.7q0.047-1.077-.656.235a34.134,34.134,0,0,1-4.078,5.953,14.6,14.6,0,0,1-3.985,3.328,1.111,1.111,0,0,1-1.265.187,1.574,1.574,0,0,1,.562-0.843,21.685,21.685,0,0,0,2.531-2.86,40.782,40.782,0,0,0,6.047-10.828q0.375-.937-0.562-0.75l-2.953.375a4.932,4.932,0,0,1-3.7-.609q-0.751-.749.328-0.937a65.217,65.217,0,0,0,7.031-1.219,1.137,1.137,0,0,0,.937-1.125,44.122,44.122,0,0,0-.515-7.734,6.964,6.964,0,0,0-.61-1.828,0.718,0.718,0,0,1,.516-1.078q0.984-.093,3.047,1.359a1.466,1.466,0,0,1,.562,1.828h0Zm8.485,0.844a1.445,1.445,0,0,1,.047,1.125q-0.094,1.125-.094,2.2,0,1.032,1.031.7l1.828-.609a2.852,2.852,0,0,1,1.407-.281,3.248,3.248,0,0,1,1.921.984,0.351,0.351,0,0,1-.093.516,3.135,3.135,0,0,1-1.641.563,25.213,25.213,0,0,1-3.609.563,0.764,0.764,0,0,0-.891.891q-0.047,2.063.047,4.078,0.141,0.329.609,0.047,3.047-1.312,4.078-1.875a3.594,3.594,0,0,1,.985-0.234,1.818,1.818,0,0,1-.516.938q-3.375,2.907-6.094,5.579-0.984.7-1.687-.563a2.768,2.768,0,0,1-.375-2.3A14.114,14.114,0,0,0,221.5,95.1a69.275,69.275,0,0,0,.141-7.359,5.5,5.5,0,0,0-.75-2.766q-0.328-1.078.75-.937a3.365,3.365,0,0,1,2.578,1.5h0Zm7.828,14.391a0.945,0.945,0,0,1-.563.7q-1.22,1.406-2.25,2.39l-0.515.422a2.743,2.743,0,0,0-.657.844q3.375-.422,8.344-1.547a2.05,2.05,0,0,1,.938.188,19.92,19.92,0,0,1,1.828.89,2.645,2.645,0,0,1,.89.75,1.434,1.434,0,0,1-.093,1.407,6.3,6.3,0,0,0-.422,1.828q-0.048,3.609.047,6.562a7.523,7.523,0,0,1-.61,4.688q-1.22,2.061-2.015.468a4.762,4.762,0,0,1-.61-1.64,0.743,0.743,0,0,0-.89-0.891l-1.313.047-7.406.469c-0.625,0-.954.124-0.984,0.375a3.6,3.6,0,0,1-.422.844q-0.7.984-1.36-.469a5.319,5.319,0,0,1-.7-2.766,26.712,26.712,0,0,0,.422-7.828,14.14,14.14,0,0,0-.328-1.875,3.786,3.786,0,0,1-.422-1.172,0.675,0.675,0,0,1,.938-0.515l0.656,0.187a1.263,1.263,0,0,0,1.641-.469q2.436-2.812,1.921-4.547a1.169,1.169,0,0,1,.188-1.266,1.462,1.462,0,0,1,.937-0.141,4.4,4.4,0,0,1,2.813,2.063h0Zm-5.063,6.093a1.022,1.022,0,0,0-.984,1.032q-0.047,1.171,0,2.3a0.765,0.765,0,0,0,.938.843q2.672-.373,6.937-1.218a5.5,5.5,0,0,1,1.641.234q1.031,0.281.984-.8-0.094-1.125-.234-2.3a1.012,1.012,0,0,0-1.172-1.219,29.709,29.709,0,0,0-4.453.469q-2.3.469-3.657,0.656h0Zm7.688-.281a0.932,0.932,0,0,1,.75.891l0.094,0.937c0.03,0.5-.188.688-0.657,0.563a4.2,4.2,0,0,0-1.547,0q-2.766.563-5.484,1.031-0.937.094-.937-0.656v-0.656a0.921,0.921,0,0,1,.8-1.032q3.14-.607,5.2-0.89a1.641,1.641,0,0,0,1.031-.235,0.949,0.949,0,0,0,.75.047h0Zm-3.984,5.719a24.917,24.917,0,0,1-3.8.328,0.764,0.764,0,0,0-.938.844l-0.047,2.062a0.79,0.79,0,0,0,.985.844q2.857-.187,6.89-0.656a4.558,4.558,0,0,1,1.828.281q0.938,0.468.938-.469,0.047-1.593,0-3.093,0-1.03-.938-0.8-2.625.234-4.921,0.656h0Zm4.968,1.031a6.948,6.948,0,0,1,.047.75q-0.047.984-.7,0.8a6.257,6.257,0,0,0-1.781-.047q-3.562.421-5.485,0.563-0.891.093-.89-0.657v-0.281a0.831,0.831,0,0,1,.8-0.937,24.115,24.115,0,0,0,3.375-.375q1.968-.329,3.937-0.516a0.6,0.6,0,0,1,.7.7h0Zm46.125-33.75a1.474,1.474,0,0,0-.562,1.781,1.738,1.738,0,0,1,.422.984,26.067,26.067,0,0,1-.047,4.078,0.984,0.984,0,0,1-.7,1.078,0.578,0.578,0,0,1-.7-0.7,8.995,8.995,0,0,1,.187-2.906,1.638,1.638,0,0,0-.937-1.734q-3-1.547-4.266.094a1.47,1.47,0,0,0,0,1.359,4.937,4.937,0,0,1,.516.938l0.234,2.672a0.763,0.763,0,0,1-.7.984,2.179,2.179,0,0,1-1.594-.141,3.886,3.886,0,0,0-2.859-.187q-0.236.188-.047-0.562,0.186-.7.422-1.359a1.873,1.873,0,0,0-.094-2.062q-2.861-2.625-4.875-1.359a2.116,2.116,0,0,1-.891.328,46.384,46.384,0,0,1-4.593,1.219,1.023,1.023,0,0,1-.938-0.047,3.629,3.629,0,0,0-3.047-.141,1.619,1.619,0,0,0-.469,2.016,2.6,2.6,0,0,1,.563,1.359q0.327,3.7.75,7.359a0.763,0.763,0,0,1-.7.984,1.016,1.016,0,0,1-1.078-.328q-1.687-1.359-2.2.75a19.3,19.3,0,0,1-1.218,3.656,3.288,3.288,0,0,0-.235,3.234,2.257,2.257,0,0,0,1.641,1.266q1.547,0.095,2.25-1.875a12.687,12.687,0,0,0,.8-2.485,1.259,1.259,0,0,1,.937-1.078q4.406-.937,9.61-1.734,0.938-.141.609,0.656-0.421.75-.8,0.609a1.8,1.8,0,0,0-1.312-.141,20.261,20.261,0,0,1-5.485,1.547,3.126,3.126,0,0,1-1.828-.281,1.366,1.366,0,0,0-1.64,1.125,2.066,2.066,0,0,0,.421,1.828,2.35,2.35,0,0,1,.282.938,35.109,35.109,0,0,1-.469,7.641,19.5,19.5,0,0,1-2.813,7.359q-1.125,1.406.094,2.156a1.677,1.677,0,0,0,1.406-.14,8.3,8.3,0,0,0,2.813-2.907,16.835,16.835,0,0,0,1.781-3.75,0.861,0.861,0,0,1,.61.282,1.622,1.622,0,0,0,2.062-.282l1.406-1.359q0.891-.844.891-0.094-0.047.984-.141,1.969a0.627,0.627,0,0,1-.843.609q-0.47-.093-0.985-0.187a1.708,1.708,0,0,0-1.265.14q-0.986.986,0.234,1.969a43.394,43.394,0,0,1,3.187,3.7q1.361,0.986,2.579-.656a0.788,0.788,0,0,1,1.218-.281q1.782,1.218,2.766.89a38.284,38.284,0,0,1,6.422-.984,89.225,89.225,0,0,1,14.391-.375,1.725,1.725,0,0,0,1.359-.562,1.508,1.508,0,0,0,.094-1.829,6.1,6.1,0,0,0-3.61-1.968,14.171,14.171,0,0,0-1.734.14,17.047,17.047,0,0,0-1.781.188q-0.845.047-.047-0.75a1.628,1.628,0,0,0,.375-2.344c-0.219-.25-0.235-0.39-0.047-0.422a0.7,0.7,0,0,0,.562-0.469,1.332,1.332,0,0,0-.14-1.265,1.068,1.068,0,0,1,.093-1.266,6.372,6.372,0,0,1,1.219-1.172,1.521,1.521,0,0,0,.469-0.609,1.473,1.473,0,0,0-.141-1.219,7.659,7.659,0,0,0-2.39-2.015q-0.891-.423-0.047-0.75a1.5,1.5,0,0,0,.7-1.125,1.352,1.352,0,0,0-.891-1.219,5.272,5.272,0,0,0-1.828-.609,4.691,4.691,0,0,0-1.828-.094q-3.75.657-7.359,0.984a5.441,5.441,0,0,0-1.594.375,1.533,1.533,0,0,0-.656,1.125q-0.141.844,1.125,1.5a7.583,7.583,0,0,0,2.906.375l-1.781.328a1.267,1.267,0,0,1-.938-0.047,7.068,7.068,0,0,0-1.828-.281,1.3,1.3,0,0,0-1.406,1.172,1.348,1.348,0,0,0,.375,1.172,1.732,1.732,0,0,1,.984,1.359l0.563,2.719a4.346,4.346,0,0,0,.609,1.922,2.615,2.615,0,0,0,.328.89q0.563,0.891,1.032,1.782,0.514,0.889-.329.984-3.187.327-5.156,0.422-0.8-.048-0.7-0.7a39.412,39.412,0,0,0-.094-6.047,24.427,24.427,0,0,1,.422-7.219,2.158,2.158,0,0,0,.094-2.2q-0.236-.327.469-0.8,0.7-.422,1.359-0.8,0.938-.515,1.125.281a3.306,3.306,0,0,0,1.359,1.641,1.311,1.311,0,0,0,1.641-.469,1.326,1.326,0,0,1,.984-0.609l7.782-.7a1.223,1.223,0,0,1,1.125.281,1.9,1.9,0,0,0,2.625.375,3.142,3.142,0,0,0,1.171-1.734l1.688-4.594a11.3,11.3,0,0,1,.7-1.875l0.7-.8a1.558,1.558,0,0,0-.422-2.25,8.017,8.017,0,0,0-2.718-1.687,3.62,3.62,0,0,0-2.578-.375q-0.844.188-.75-0.469a12.578,12.578,0,0,1,.281-1.5l0.562-1.828a1.606,1.606,0,0,0-.562-1.359,5.126,5.126,0,0,0-3.7-1.734,1.16,1.16,0,0,0-.985.328h0Zm3.657,1.641a1.912,1.912,0,0,1,.515,1.641,13.037,13.037,0,0,0-.8,3.8q-0.094.8,0.985,0.563l0.937-.141q1.407-.468,4.125,1.406,1.313,0.984.422,1.781a4,4,0,0,0-.937,1.781l-2.063,5.531q-0.516,1.406-1.453,1.313a1.026,1.026,0,0,1-.891-0.7,1.142,1.142,0,0,0-1.078-.328l-8.906.8c-0.532-.062-0.828.031-0.891,0.281q-0.375,1.453-1.265.375a2.878,2.878,0,0,1-.61-1.547q-0.187-.937-1.078-0.469a30.7,30.7,0,0,0-3.469,1.969q-0.843.516-.281,0.938a1.146,1.146,0,0,1,.281,1.828,28.5,28.5,0,0,0-.468,8.3,36.311,36.311,0,0,1,.14,4.781,7.488,7.488,0,0,1-.937,3.7,3.19,3.19,0,0,1-.938.984,0.583,0.583,0,0,1-.75-0.234q-1.219-1.548-2.531-3a4.158,4.158,0,0,1-.844-1.032,1.131,1.131,0,0,1,.844,0,3.983,3.983,0,0,0,2.2.235,0.99,0.99,0,0,0,.328-0.7,36.835,36.835,0,0,0,.235-5.063q0.045-.984-0.8.047-1.454,1.406-2.907,2.906-0.75.7-1.734-.234-0.891-1.031-1.078-.094l-0.422,1.313a10.685,10.685,0,0,1-3.656,5.343,0.836,0.836,0,0,1-.984.282,24.049,24.049,0,0,0,3.093-7.266,35.519,35.519,0,0,0,.75-8.531,4.124,4.124,0,0,0-.422-1.875,1.292,1.292,0,0,1-.375-1.125,0.419,0.419,0,0,1,.375-0.422,3.406,3.406,0,0,1,1.079.141,3.317,3.317,0,0,0,.7.188,21.712,21.712,0,0,0,6.187-1.641,1.013,1.013,0,0,1,.891.141,0.952,0.952,0,0,0,1.453-.516,7.417,7.417,0,0,0,.8-1.828q0.375-.749-0.047-0.891a3.767,3.767,0,0,0-1.313.047q-6,.938-10.968,2.063A0.939,0.939,0,0,0,256,98.289a10.891,10.891,0,0,1-1.266,3.7,0.89,0.89,0,0,1-1.593,0,2,2,0,0,1-.329-2.062,23.072,23.072,0,0,0,1.641-4.594,0.451,0.451,0,0,1,.375-0.469,5.15,5.15,0,0,1,.61.609,1.256,1.256,0,0,0,1.312.281l0.891-.141a0.961,0.961,0,0,0,.89-1.078q-0.421-3.656-.75-7.359a4.87,4.87,0,0,0-.8-2.766,0.679,0.679,0,0,1,.563-0.75,3.68,3.68,0,0,1,2.062.469,0.7,0.7,0,0,0,.469.094,39.731,39.731,0,0,0,5.531-1.359,2.545,2.545,0,0,0,.938-0.328Q268,81.555,270.2,83.57q0.563,0.376.047,1.359-0.75,2.438-1.734,7.359-0.236,1.032.656,0.891a4.728,4.728,0,0,1,3.14,1.031q0.891,0.657.8-.234-0.234-1.64-.562-3.234a3.833,3.833,0,0,0-.8-1.641,1.94,1.94,0,0,1-.656-0.937c0.124-.344.281-0.5,0.468-0.469a4.887,4.887,0,0,1,1.876.422,2.5,2.5,0,0,0,.937.188l1.594-.094a0.845,0.845,0,0,0,.937-0.984q-0.187-1.593-.281-3.187a2.555,2.555,0,0,0-.234-0.937q-0.939-1.078,0-1.594a3.5,3.5,0,0,1,1.781.234q1.5,0.469,1.312,1.313a10.126,10.126,0,0,0-.14,3.891,0.718,0.718,0,0,0,.984.7,8.313,8.313,0,0,1,1.172-.187,1.092,1.092,0,0,0,.938-1.125q0.045-1.781.187-3.516a6.044,6.044,0,0,0-.375-2.484,0.537,0.537,0,0,1,.141-0.891,1.6,1.6,0,0,1,1.171-.094,5.633,5.633,0,0,1,1.876,1.031h0Zm-24,5.016a1.173,1.173,0,0,0-1.079,1.078q0,1.36.047,2.625l0.188,5.109a0.672,0.672,0,0,0,.937.7,0.9,0.9,0,0,0,.891-1.031q-0.141-2.2-.234-4.312a4.265,4.265,0,0,0-.282-0.891,1.749,1.749,0,0,1-.281-0.609,0.7,0.7,0,0,1,.891-0.562,6.455,6.455,0,0,1,1.031.281,1.9,1.9,0,0,0,1.828-.281,2.146,2.146,0,0,1,1.031-.187q0.516,0.095.563-.8l0.047-1.406q-0.095-1.03-1.313-.75Zm4.687,0.422c-0.031.344-.125,0.516-0.281,0.516q-1.641.938-2.2,0.563a2.642,2.642,0,0,0-2.016-.141q-0.375.188-.375-0.141A0.851,0.851,0,0,1,262,86.2l2.953-.7,0.281-.094q0.891-.187.891,0.422h0Zm18.563,3.75-0.047.375q-0.095.891,0.89,0.8a4,4,0,0,1,1.172.188,0.645,0.645,0,0,0,1.031-.562,2.286,2.286,0,0,0-.187-1.734,1.606,1.606,0,0,0-1.078-.141,6.117,6.117,0,0,0-.75.047,1.04,1.04,0,0,0-1.031,1.031h0Zm-19.407-.516a1.061,1.061,0,0,0-1.031,1.078L264.2,93.414a0.675,0.675,0,0,0,.938.75l0.375-.094q1.077-.234.843-1.078a9.61,9.61,0,0,1,.188-1.781l0.187-1.594q0.046-.937-1.078-0.656Zm6.281,1.547,0.376,1.641q0.139,0.75-.61.422a4.437,4.437,0,0,0-.984-0.375,0.687,0.687,0,0,1-.7-0.937l0.375-1.641q0.186-.937.89-0.234a3.324,3.324,0,0,1,.656,1.125h0Zm8.813-1.406a0.887,0.887,0,0,0-.891.984l0.047,0.656a0.688,0.688,0,0,0,.938.75l0.7-.141a1.12,1.12,0,0,0,1.078-1.078V89.945a0.752,0.752,0,0,0-.938-0.937,4.93,4.93,0,0,1-.937.188h0Zm5.813,0.7q-0.611-.093-0.61-0.328a0.857,0.857,0,0,1,.656-0.187q0.657,0,.657.328c0,0.219-.235.281-0.7,0.188h0Zm-10.641-.281a0.764,0.764,0,0,0-.844.938l0.141,0.891a0.837,0.837,0,0,0,1.078.8l0.422-.047a0.891,0.891,0,0,0,.937-1.031l-0.093-.8a0.9,0.9,0,0,0-1.126-.8Zm-10.078,2.766a1.193,1.193,0,0,1-.141.844q-0.187,0-.187-0.75a14.029,14.029,0,0,1,0-1.641,0.935,0.935,0,0,1,.328-0.937,0.492,0.492,0,0,1,.281.047q-0.187,1.22-.281,2.438h0ZM280.844,90.6q-0.469.094-.469-0.234,0-.281.469-0.328,0.468-.093.468,0.188A0.451,0.451,0,0,1,280.844,90.6Zm-4.5.328c0.031,0.251-.063.375-0.282,0.375a0.357,0.357,0,0,1-.421-0.328c-0.063-.344.03-0.516,0.281-0.516a0.425,0.425,0,0,1,.422.469h0Zm8.812,1.453a1.129,1.129,0,0,0-.937,1.172l-0.141.938q-0.094.891,0.656,0.844a3,3,0,0,1,1.219.141q0.516,0.188.938-.891l0.421-1.687q0.188-.89-0.843-0.609Zm-4.5.656a1.035,1.035,0,0,0-1.031,1.031,5.226,5.226,0,0,0,.094,1.031,0.763,0.763,0,0,0,.937.844l0.235-.047a1.057,1.057,0,0,0,1.078-1.031l0.093-1.125q0.047-.89-0.937-0.75a2.376,2.376,0,0,1-.469.047h0Zm5.11,1.406A2.012,2.012,0,0,0,285.3,94.4q-0.282,0-.235-0.562a0.664,0.664,0,0,1,.657-0.609q0.563,0,.422.609-0.189.7-.375,0.609h0Zm-10.407,1.172q0.046,0.844,1.125.75l0.375-.047q0.845-.046.75-1.125l-0.047-.844a0.949,0.949,0,0,0-1.124-.844h-0.469q-0.844-.187-0.75.75a6.524,6.524,0,0,1,.14,1.359h0Zm5.766-1.172a0.519,0.519,0,0,1-.328.563c-0.157,0-.235-0.171-0.235-0.516s0.094-.531.282-0.562q0.281,0,.281.516h0Zm-4.453.516q0.046,0.469-.234.516c-0.126,0-.188-0.2-0.188-0.609-0.031-.281.015-0.422,0.141-0.422,0.156,0,.249.172,0.281,0.516h0ZM286,100.023a2.531,2.531,0,0,1,.938.7,2.266,2.266,0,0,1-.7.562,4.69,4.69,0,0,1-1.5.234q-3.655.423-7.359,0.75a4.879,4.879,0,0,1-2.391-.468q-0.562-.282-0.328-0.61a0.864,0.864,0,0,1,.75-0.422q3.8-.373,7.36-0.984a4.789,4.789,0,0,1,2.484,0,7.117,7.117,0,0,1,.75.234h0Zm-23.719.7a1.638,1.638,0,0,0-1.312,1.171,0.818,0.818,0,0,0,.8,1.032,9.624,9.624,0,0,1,4.078,1.172q0.281,0.328.375,0.234l-0.094-2.953a0.925,0.925,0,0,0-1.172-1.172,25.115,25.115,0,0,0-2.672.516h0Zm3,1.218q0,0.8-.7.61a9.107,9.107,0,0,0-1.734-.375c-0.626-.094-0.922-0.2-0.891-0.328a1.891,1.891,0,0,1,.844-0.329,4.952,4.952,0,0,1,1.172-.234q0.89-.186.89-0.562t0.329,0.375a3.9,3.9,0,0,1,.093.843h0Zm21.281,1.313a7.447,7.447,0,0,1,1.829,1.312,1.045,1.045,0,0,1-.047,1.5,4.8,4.8,0,0,0-1.406,1.594q-0.564.891-.188,1.172,0.7,0.609.469,0.891l-1.453.093q-0.939.141,0.14,0.844l0.938,0.844q0.563,0.8-.7,1.687l-1.641,1.5q-0.843.657,0.281,0.563,2.3-.141,4.594-0.422a4.251,4.251,0,0,1,3.656.844,1.141,1.141,0,0,1,.657,1.312,1.1,1.1,0,0,1-1.126.281q-4.547-.187-8.062-0.046a69.331,69.331,0,0,0-12.8,1.453,4.877,4.877,0,0,1-2.3-1.078,1.1,1.1,0,0,1-.656-0.7q-0.047-.187.7-0.421a50.622,50.622,0,0,0,7.219-.563q0.938-.094.422-1.031-0.61-1.173-1.313-2.344a3.228,3.228,0,0,1-.422-1.031,2.244,2.244,0,0,0-.515-0.985,2.87,2.87,0,0,1-.235-0.89,13.734,13.734,0,0,0-1.078-4.125,3.476,3.476,0,0,1-.8-0.938,0.633,0.633,0,0,1,.235-0.422,3.178,3.178,0,0,1,1.734.141,2.507,2.507,0,0,0,.938.188q3.655-.562,7.359-1.125a5.752,5.752,0,0,0,1.828-.375,2.228,2.228,0,0,1,1.734.281h0Zm-26.2,5.906q-0.139.891,0.8,0.75a13.937,13.937,0,0,0,4.172-1.922,2.064,2.064,0,0,0,.938-1.781c-0.032-.593-0.094-0.8-0.188-0.609q-0.891,1.078-2.578.093-0.891-.562-1.828-1.218-0.891-.609-0.891.328a30.627,30.627,0,0,1-.422,4.359h0Zm16.032-2.156,0.047,1.172a0.831,0.831,0,0,0,1.031.843q2.813-.234,5.719-0.7a1.171,1.171,0,0,0,1.124-1.031,4.087,4.087,0,0,1,.188-0.891,1.976,1.976,0,0,0-.094-1.218,4.592,4.592,0,0,0-.656-0.235,39.673,39.673,0,0,0-6.562.891,0.967,0.967,0,0,0-.8,1.172h0Zm-12.188-.094q0.938,0.141.047,0.656a16,16,0,0,1-2.062,1.078q-0.891.282-.75-0.515l0.14-1.594q0.093-.937.844-0.469a5.064,5.064,0,0,0,1.781.844h0Zm19.313-.281a0.881,0.881,0,0,1-.844.844q-2.25.375-4.5,0.562a0.648,0.648,0,0,1-.844-0.562,0.707,0.707,0,0,1,.61-0.891q1.5-.327,4.265-0.656l0.516-.047q0.89-.046.8,0.75h0Zm-6,3.844a0.992,0.992,0,0,0-1.078.609q-0.282.469,0.75,0.937,2.343,1.173,2.2,2.766-0.189.89,0.75,0.8l0.937-.047a1.5,1.5,0,0,0,1.36-.984,25.991,25.991,0,0,0,1.406-3.657q0.281-.984-0.8-0.89Zm5.109,1.265a20.866,20.866,0,0,1-.8,2.016,1.227,1.227,0,0,1-.984.89,0.559,0.559,0,0,1-.61-0.656,3.4,3.4,0,0,0-1.546-2.109q-0.8-.516-0.047-0.563l3.375-.328q0.889-.047.609,0.75h0Zm33.563-29.39q0.889,1.688,1.828,3.422c0.4,0.626.375,0.969-.094,1.031q-3.234.376-7.219,0.563a1.248,1.248,0,0,1-1.265-.75,2.306,2.306,0,0,0-1.547-1.172,1.046,1.046,0,0,0-1.079.656,47.968,47.968,0,0,1-2.156,5.484,3.691,3.691,0,0,0-.328,4.406,2,2,0,0,0,2.25.844,2.709,2.709,0,0,0,1.313-.937,15.254,15.254,0,0,0,1.781-3.656,1.019,1.019,0,0,1,1.031-.891q1.313-.187,2.578-0.469,0.938-.141.75,0.563a19.708,19.708,0,0,1-4.781,7.313,11.759,11.759,0,0,1-1.828,1.547,1.614,1.614,0,0,0-.938,1.031q-0.329.657,0.985,1.266a7.271,7.271,0,0,0,3.8-1.079,17.276,17.276,0,0,0,7.172-8.437,2.741,2.741,0,0,0,.89-2.25q-0.236-.937.516-1.031a3.4,3.4,0,0,0,.609-0.141q0.984-.141.985,0.609l0.093,4.031q-0.516,3.516,2.953,5.016a17.668,17.668,0,0,0,6.282.891,7.471,7.471,0,0,0,3.328-.938,1.9,1.9,0,0,0,.609-1.734q-0.469-2.062-3-2.062a14.96,14.96,0,0,1-3.8.375,4.565,4.565,0,0,1-1.828-.516,0.712,0.712,0,0,1-.422-0.844q0.094-1.359.282-2.766a6.975,6.975,0,0,1,.374-1.828,2.161,2.161,0,0,0,.188-0.75q0-.281.7-0.375l2.906-.187q0.891,0,.422.844-0.843,1.5-1.781,3a1.881,1.881,0,0,0-.281.984q0.14,1.266,1.219.938a29.725,29.725,0,0,1,7.359-2.578,2.656,2.656,0,0,0,.891-0.656,2.4,2.4,0,0,0-.376-3.562,11.5,11.5,0,0,0-4.078-3,9.523,9.523,0,0,0-2.015.234q-2.485.563-7.125,1.219-0.939.141-.891-0.609a5,5,0,0,0-1.125-3.141,10.48,10.48,0,0,0-4.547-2.2,2.074,2.074,0,0,0-1.453.281,1.566,1.566,0,0,0-.14,2.016h0Zm5.437,0.469a3.408,3.408,0,0,1,.844,1.828,3.668,3.668,0,0,1-.235,2.3q-0.28.328,0.61,0.188,6.468-.89,9.515-1.594a1.923,1.923,0,0,1,1.407.094,13.373,13.373,0,0,1,3.422,2.906,1.294,1.294,0,0,1,.328,1.594,1.341,1.341,0,0,1-1.032.844,27.918,27.918,0,0,0-5.953,2.016q-1.031.657-1.172,0.234,1.734-2.859,2.438-4.266,0.563-.89.047-1.266a43.965,43.965,0,0,0-6.141.375q-0.891.095-.515,0.375a3.251,3.251,0,0,1,.421.563,2.2,2.2,0,0,1-.281.938,32.553,32.553,0,0,0-.562,4.828,1.7,1.7,0,0,0,1.265,1.547,7.783,7.783,0,0,0,4.078.328l1.875-.281a1.85,1.85,0,0,1,1.688.891,1.069,1.069,0,0,1-.234,1.359,7.812,7.812,0,0,1-1.829.609,14.162,14.162,0,0,1-7.781-1.219,3.483,3.483,0,0,1-1.406-3.469q0-2.531-.094-5.016a0.845,0.845,0,0,0-1.031-.891l-3.141.516q-0.8.141-.234,0.656a1.564,1.564,0,0,1,.375,1.922q-0.329.469-.609,0.891a20.849,20.849,0,0,1-2.063,3.7,14.011,14.011,0,0,1-3.422,3.516,8.151,8.151,0,0,1-3.75,1.781,2.471,2.471,0,0,1-1.031,0,1.729,1.729,0,0,1,.656-0.656q5.859-4.968,7.078-10.359,0.141-.937-0.75-0.8-1.171.141-2.3,0.375a6.166,6.166,0,0,1-1.968.281,0.806,0.806,0,0,0-1.079.7,10.3,10.3,0,0,1-2.3,4.547,1.064,1.064,0,0,1-1.36.047,1.853,1.853,0,0,1-.8-1.312,2.732,2.732,0,0,1,.375-1.641,29.388,29.388,0,0,0,2.344-5.531,1.275,1.275,0,0,1,.375-0.8q0.7-.141,1.125.984a1.132,1.132,0,0,0,1.266.8q4.734-.187,9.468-0.75,0.891-.093.047-0.984a44.129,44.129,0,0,1-2.625-4.594q-0.468-.656.094-0.984,1.452-.187,4.547,1.875h0Zm-10.969,20.672a3.317,3.317,0,0,0-.937.235,0.747,0.747,0,0,0-.516.8,3.093,3.093,0,0,0,2.578,2.344,21.4,21.4,0,0,0,5.063.094,1.024,1.024,0,0,1,1.172.75q0,2.063.046,4.125a0.783,0.783,0,0,1-.75.937q-3.093.236-6.234,0.563-1.032.094-2.016,0.141-2.156.046-4.218,0.14a1.634,1.634,0,0,0-1.735,1.5,1.605,1.605,0,0,0,1.172,1.547q2.859,1.593,4.407,1.359,4.545-.8,8.25-1.125,10.406-.7,18.843-0.421a9.459,9.459,0,0,0,3.047-.235q1.781-.422,1.36-1.734a5.1,5.1,0,0,0-2.391-2.25,10.762,10.762,0,0,0-3.281-.985q-5.111.752-10.782,1.079-0.937.095-.89-0.657,0.141-1.264.328-2.484a6.208,6.208,0,0,1,.281-1.875,1.039,1.039,0,0,1,.891-1.031q2.109-.234,4.265-0.563a4.48,4.48,0,0,0,2.672-.984,1.851,1.851,0,0,0-1.219-2.438,5.153,5.153,0,0,0-3.75-.75,116.935,116.935,0,0,1-15.656,1.922h0Zm19.032-.375a1.289,1.289,0,0,1,.8.844,0.886,0.886,0,0,1-.75.656q-2.484.469-6.234,0.891a1.6,1.6,0,0,0-.984.187,1.626,1.626,0,0,1,.14,1.125,6.566,6.566,0,0,0-.375,1.828q-0.234,1.829-.375,3.7-0.141,1.03.8,0.984,5.672-.282,10.922-1.031a2.773,2.773,0,0,1,1.875.047,7.852,7.852,0,0,1,2.766,1.265,1.452,1.452,0,0,1,.89,1.36,2.35,2.35,0,0,1-1.734.609q-8.954-.235-14.2.094a90.233,90.233,0,0,0-14.766,1.5,8.546,8.546,0,0,1-3.656-1.266,1.321,1.321,0,0,1-.75-0.656q0-.8,1.078-0.75,2.766-.094,5.531-0.235,3.657-.375,7.36-0.656A0.876,0.876,0,0,0,319,112.68q-0.094-2.484-.094-4.969a3.336,3.336,0,0,0-.187-0.8,1.336,1.336,0,0,0-1.407-.844,24.256,24.256,0,0,1-4.921,0,2.859,2.859,0,0,1-1.829-.8,0.966,0.966,0,0,1-.281-0.562,0.644,0.644,0,0,1,.75-0.328,107.01,107.01,0,0,0,15.891-2.063,5.913,5.913,0,0,1,2.766.8h0Zm33.093-12.234q1.407,2.109,2.672,3.7a5.5,5.5,0,0,0,3.469,2.484q2.3-.046,2.344-2.578a5.145,5.145,0,0,0-1.36-3.656,14.244,14.244,0,0,0-4.594-2.25,9.1,9.1,0,0,0-1.828-.328q-2.155.75-.7,2.625h0Zm7.313,1.875a6.994,6.994,0,0,1,.281,1.875q-0.187,2.063-1.922,1.406a6.988,6.988,0,0,1-2.578-2.437,35.954,35.954,0,0,1-2.578-3.656q-0.422-.515.187-0.75a12.752,12.752,0,0,1,5.25,1.875,2.59,2.59,0,0,1,1.36,1.688h0Zm7.265-.656a10.012,10.012,0,0,1,.938.75,39.988,39.988,0,0,1,3,3.7q0.889,1.125,1.5,1.828,2.109,2.345,3.609,1.687a2.406,2.406,0,0,0,1.406-1.593,5.337,5.337,0,0,0-.656-4.594,13.44,13.44,0,0,0-5.437-3.422,12.122,12.122,0,0,0-3.7-1.078,1.13,1.13,0,0,0-1.219.656,1.749,1.749,0,0,0,.562,2.063h0Zm7.547,0.984a4.067,4.067,0,0,1,2.25,3.469,3.9,3.9,0,0,1-.234,1.547q-0.75,2.016-2.344.7a8.592,8.592,0,0,1-1.687-1.687A33.688,33.688,0,0,0,378.3,91.68a1.285,1.285,0,0,1-.7-1.125q0-.281.7-0.234a22.472,22.472,0,0,1,6.609,2.766h0Zm-33.422,3.8a34.813,34.813,0,0,1-2.39,5.531,5.993,5.993,0,0,0-.563,1.828,3.794,3.794,0,0,0,1.313,3.938,2.123,2.123,0,0,0,1.828.187,6.264,6.264,0,0,0,2.344-3.469,18.293,18.293,0,0,0,1.031-5.531,8.667,8.667,0,0,0-1.078-3.469q-1.454-1.64-2.157.094a3.085,3.085,0,0,0-.328.891h0Zm5.3,0.469a12.2,12.2,0,0,1,.938,2.765,20.988,20.988,0,0,0,3.14,7.36,10.764,10.764,0,0,0,1.829,2.2,14.339,14.339,0,0,0,5.3,2.953,22.19,22.19,0,0,0,8.391.937,17.479,17.479,0,0,0,8.25-2.484,3.245,3.245,0,0,0,1.406-1.641q0.563-1.78-1.453-3.422a25.519,25.519,0,0,1-6.281-5.3,2.642,2.642,0,0,0-.891-0.75,1.064,1.064,0,0,0-1.687.984,8.066,8.066,0,0,0,.422,1.875,27,27,0,0,1,1.031,3.422,0.824,0.824,0,0,1-.516,1.078,8.522,8.522,0,0,1-1.547.375,12.766,12.766,0,0,1-9.14-1.313,10.23,10.23,0,0,1-3.281-3.281,18.1,18.1,0,0,1-1.407-3.7,13.763,13.763,0,0,0-.422-1.828,3,3,0,0,0-1.406-1.687,1.8,1.8,0,0,0-2.531.094,1.416,1.416,0,0,0-.141,1.359h0Zm-2.765,3.656a18.945,18.945,0,0,1-1.735,5.531q-0.75,1.266-1.453,1.078a1.838,1.838,0,0,1-1.406-1.687,6.183,6.183,0,0,1,.8-3.844,27,27,0,0,0,2.3-5.484q0.28-.8.75-0.047a6.14,6.14,0,0,1,.75,4.453h0Zm5.25-4.125a2.265,2.265,0,0,1,.937,1.828,16.667,16.667,0,0,0,1.594,4.594,10.149,10.149,0,0,0,3.422,3.656,10.607,10.607,0,0,0,3.7,1.594,15.688,15.688,0,0,0,8.578-.61,1,1,0,0,0,.7-0.562,1.684,1.684,0,0,0-.047-1.031,33.879,33.879,0,0,0-1.406-4.594,1.678,1.678,0,0,1,.047-1.031,1.4,1.4,0,0,1,.75.515,29,29,0,0,0,6.234,5.391,2.628,2.628,0,0,1,1.407,1.64q0.327,1.22-1.172,2.11a9.9,9.9,0,0,1-3.657,1.594,21.2,21.2,0,0,1-11.765-.141q-7.312-2.109-9.563-10.406l-1.125-3.61a2.844,2.844,0,0,1-.328-1.172,0.846,0.846,0,0,1,.234-0.234,1.568,1.568,0,0,1,1.454.469h0Z"/>
</svg>
