<svg xmlns="http://www.w3.org/2000/svg" width="400" height="200" viewBox="0 0 400 200">
  <defs>
    <style>
      .cls-1 {
        fill: #fdfdfd;
        fill-rule: evenodd;
      }
    </style>
  </defs>
  <path id="王漢宗粗鋼體標準" class="cls-1" d="M24.234,86.945a12.205,12.205,0,0,1-2.484.141,11.054,11.054,0,0,0-3.844-.141,0.453,0.453,0,0,0-.094.234,2.454,2.454,0,0,0,.938.844,10.384,10.384,0,0,0,4.688,1.828,17.726,17.726,0,0,0,4.219-.234,1.039,1.039,0,0,1,1.219.656A9.509,9.509,0,0,1,29.2,91.68L29.3,96.742a1.042,1.042,0,0,1-.844,1.078,16.321,16.321,0,0,1-6.375.984,11.6,11.6,0,0,0-1.875-.094,0.947,0.947,0,0,0-.844.328,2.211,2.211,0,0,0,.75.891,7.148,7.148,0,0,0,3.75,1.64,17.087,17.087,0,0,0,3.75-.187q0.937-.093.563,0.515c-0.219.375-.094,0.626,0.375,0.75a0.81,0.81,0,0,1,.7.891q0,5.11-.187,7.922a0.45,0.45,0,0,1-.328.141q-6.891,1.078-11.25,2.015a28.636,28.636,0,0,1-3.75.7,8.911,8.911,0,0,0-1.875.375q-1.032.563,0,1.172a5.047,5.047,0,0,0,2.344.985,8.807,8.807,0,0,0,4.266.234,59.925,59.925,0,0,1,7.5-1.828q8.062-1.407,15-1.922a11.415,11.415,0,0,1,6.656,1.594q2.577,1.546,4.453.7a1.679,1.679,0,0,0,.234-2.344,2.68,2.68,0,0,0-1.687-1.359,17.457,17.457,0,0,1-3.75-1.688q-0.469-.234-0.937-0.422a4.348,4.348,0,0,0-3.844.094,2.352,2.352,0,0,1-1.406.422q-3.656.329-7.266,0.75a0.589,0.589,0,0,1-.8-0.609l0.188-7.969a1.234,1.234,0,0,1,.8-1.219q2.109-.8,5.531-1.781A2.049,2.049,0,0,0,40.5,97.68a2.386,2.386,0,0,0-1.125-1.547,4.4,4.4,0,0,0-1.687-.328,22.656,22.656,0,0,0-3.7.656Q33,96.7,33.047,95.945a24.747,24.747,0,0,1,.328-4.594,3.052,3.052,0,0,0-.7-2.437q-0.422-.327.375-0.516,3.047-.562,5.766-0.844a3.237,3.237,0,0,0,1.875-.656,1.382,1.382,0,0,0,.656-1.781,1.413,1.413,0,0,0-.75-0.844,6.062,6.062,0,0,0-5.109-.281,64.433,64.433,0,0,1-11.25,2.953h0Zm64.125-7.453a1.944,1.944,0,0,1,.563,1.594,8.6,8.6,0,0,1-.844,2.391,1.4,1.4,0,0,1-1.031.938q-2.907.469-5.719,1.031a1.013,1.013,0,0,1-1.219-.656,6.15,6.15,0,0,0-.891-1.172,1.717,1.717,0,0,1-.7-0.891,6.757,6.757,0,0,1-.375-0.891q-0.329-.89-1.125.188a3.708,3.708,0,0,0-.609.938,2.149,2.149,0,0,0,.516,1.969,1.059,1.059,0,0,1,.141.328q0.327,0.938-.469,1.078a20.461,20.461,0,0,1-3.938.563,1.089,1.089,0,0,1-.984-0.187,6.905,6.905,0,0,0-2.062-1.828,14.625,14.625,0,0,0-5.625-2.344,0.671,0.671,0,0,0-.8.234,3.063,3.063,0,0,0,1.078,1.453,14.616,14.616,0,0,1,3.844,4.828q1.312,1.969,3.375.141,0.281-.468,1.219.094a4.537,4.537,0,0,0,4.313.188q0.937-.281,1.031.469L78.141,90.6q0.234,0.938-.516,1.031a2.8,2.8,0,0,1-.891-0.141,10.018,10.018,0,0,0-1.875-.375,1.5,1.5,0,0,0-1.312.141,3.175,3.175,0,0,0,.8.891,10.584,10.584,0,0,0,2.812,1.594A9.915,9.915,0,0,0,81,93.93q0.89-.141.891,0.281a0.8,0.8,0,0,1-.75.469q-2.063.422-4.125,0.984-0.938.422-1.125-.328a1.87,1.87,0,0,0-.562-1.219,1.179,1.179,0,0,0-.7.891,5.332,5.332,0,0,0-.375,3.75,2.479,2.479,0,0,1,.141.938,1.9,1.9,0,0,0,.375,1.875,5.788,5.788,0,0,1,.938.844,6.068,6.068,0,0,0,.7.938q0.937,0.8.094,0.7a5.437,5.437,0,0,0-.656-0.047,5.028,5.028,0,0,0-2.3.094q-0.235.328,0.422,0.7a18.041,18.041,0,0,0,3.75,1.781,5.982,5.982,0,0,0,2.109.187c0.625-.03.891,0.094,0.8,0.375a0.981,0.981,0,0,1-.891.469q-4.032.563-9.609,1.688-0.938.234-.8-0.516,1.03-3.984,1.922-7.922A1.912,1.912,0,0,0,71.2,99.93a0.865,0.865,0,0,0-1.359-.562,2.156,2.156,0,0,0-.656,1.125l-5.156,14.344a0.712,0.712,0,0,1-.937.609l-1.734-.75q-0.938-.375-0.469.563l0.563,1.172a2.644,2.644,0,0,0,1.125,1.312,1.9,1.9,0,0,1,.844.75,2.64,2.64,0,0,0,1.781,1.266,1.362,1.362,0,0,0,1.359-.985,72.1,72.1,0,0,0,2.109-7.265q0.187-.75,1.078-0.141a7.46,7.46,0,0,0,4.828.656q1.874-.608,3.7-1.031,0.937-.186.516,0.61a11.839,11.839,0,0,1-2.812,3.515,35.789,35.789,0,0,1-5.625,3.8q-1.266,1.031.375,1.266a11.076,11.076,0,0,0,5.016-.563,9.613,9.613,0,0,0,5.813-5.015,19.483,19.483,0,0,0,1.5-3.516q0.234-.8.844,0.047a65.227,65.227,0,0,0,5.859,7.265,7.746,7.746,0,0,0,5.391,1.829q2.813,0.28,5.625.656,0.891,0.093-.093-0.844a13.185,13.185,0,0,0-5.157-3.469q-0.938-.234-1.875-0.375a4.573,4.573,0,0,1-3.516-2.25q-1.313-1.639-2.719-3.562-0.61-.75.234-0.8a15.573,15.573,0,0,1,3.188-.047,10.024,10.024,0,0,1,3.75,1.359q2.156,1.22,3.562.516a1.346,1.346,0,0,0,.609-1.547,3.365,3.365,0,0,0-1.453-1.687l-1.875-.75a13.019,13.019,0,0,0-3.75-1.547,4.287,4.287,0,0,0-2.344.469,1.7,1.7,0,0,1-.938.281l-3.516.328q-0.844.094-.75-0.328a0.832,0.832,0,0,1,.844-0.61q2.672-.421,4.359-0.515,2.156-.656,1.594-2.25a1.833,1.833,0,0,0-.844-0.75,4.588,4.588,0,0,0-2.813-.328l-1.687.422q-0.8.234-.75-0.141,0-.327.844-0.469,1.781-.234,3.516-0.328a6.284,6.284,0,0,0,1.875-.375,1.567,1.567,0,0,0,.891-1.266,1.211,1.211,0,0,0-.422-1.265q-0.281-.187.516-0.891l0.891-.844a1.185,1.185,0,0,1,.469-0.281A1.257,1.257,0,0,0,94.453,95.2a4.463,4.463,0,0,0-2.109-2.25,2.6,2.6,0,0,0-2.719-.375l-1.594.469q-0.938.235-.187-0.047,1.406-.515,2.766-0.937,2.062-.515,1.781-2.156a2.755,2.755,0,0,0-2.484-1.312q-0.938.094-.375-0.7a1.622,1.622,0,0,1,1.266-.844l0.938-.094a14,14,0,0,1,3.375.141,1.983,1.983,0,0,0,2.859-1.031Q98.343,84.7,96.7,84.133a5.732,5.732,0,0,1-1.875-.609A2.99,2.99,0,0,0,93,83.2q-0.938.235-.609-0.562a3.037,3.037,0,0,0,.469-2.3,4.071,4.071,0,0,0-1.969-1.5q-1.875-.749-3.7-1.547-0.938-.375.047,0.8ZM85.547,88.3q-0.469.75-1.031,1.5a0.576,0.576,0,0,1-.422.281l-1.359.375a0.717,0.717,0,0,1-1.078-.516l-0.187-.656a0.726,0.726,0,0,1,.609-1.031q1.312-.234,2.578-0.422l0.375-.047q1.031-.187.516,0.516h0ZM63.891,95.664a9.495,9.495,0,0,1-3.75.984,6.956,6.956,0,0,0-2.484.516,0.258,0.258,0,0,0-.094.422,2.684,2.684,0,0,0,.844.469,9.887,9.887,0,0,0,3.656.938q0.937,0.047.7,0.891-0.376,1.547.938,0.984a17.122,17.122,0,0,0,2.813-2.3,3.352,3.352,0,0,0,1.266-1.594,1.337,1.337,0,0,0-.422-1.594,2.141,2.141,0,0,0-1.875-.328,11.138,11.138,0,0,0-1.594.609h0Zm24.047,1.969a2.645,2.645,0,0,1-1.406.891l-0.422.094q-0.938.235-.891-0.562V97.539a0.907,0.907,0,0,1,.8-0.937q1.218-.281,2.438-0.469,0.937-.141.188,0.8Zm-10.781-.141a6.212,6.212,0,0,0,3.75.328,0.658,0.658,0,0,1,.891.8,1.065,1.065,0,0,1-.8,1.125l-2.016.375a1.681,1.681,0,0,1-1.594-.609,5.887,5.887,0,0,1-1.172-2.391,4.347,4.347,0,0,1,.937.375h0Zm4.266,5.672a0.893,0.893,0,0,1-.844.656l-1.219.235q-0.891.046-.562-0.094a3.6,3.6,0,0,0,.7-0.844,1.035,1.035,0,0,1,1.078-.515q0.89-.047.844,0.562h0Zm38.437-23.625a9.626,9.626,0,0,0,2.2,2.578,10.559,10.559,0,0,1,1.266,1.594q0.609,0.938-.14,1.125a24.251,24.251,0,0,0-6.376,2.391,12.893,12.893,0,0,0-.984,1.406q-0.375.844-.562,0.141L114.8,87.367q-0.282-.89-0.7.234l-0.328.938a2.867,2.867,0,0,1-1.266,1.828,3.016,3.016,0,0,0-.516.891,8.375,8.375,0,0,0,.563,3.844,2.311,2.311,0,0,0,2.765,1.688,1.58,1.58,0,0,0,1.36-1.828,4.758,4.758,0,0,0-.938-1.875,2.3,2.3,0,0,1-.375-2.344,1.933,1.933,0,0,0,.188-0.8q-0.048-.281.141-0.187a2.01,2.01,0,0,0,1.359-.234,2.125,2.125,0,0,1,1.687-.047,3.439,3.439,0,0,0,2.3-.234,29.739,29.739,0,0,1,3.563-1.453,1.426,1.426,0,0,1,1.594.469,3.988,3.988,0,0,0,1.734,1.219q2.109,0.563,2.109-2.016a0.725,0.725,0,0,1,.657-0.984,25.784,25.784,0,0,1,7.546-.141q0.938,0.188.094,0.656a30.177,30.177,0,0,1-3.047,1.5,40.118,40.118,0,0,0-5.156,1.969,4.851,4.851,0,0,0-1.734.984,0.256,0.256,0,0,0,.234.375q0.281,0.095-.469.328-1.968.657-3.844,1.219a9.854,9.854,0,0,1-5.624.656,5.79,5.79,0,0,0-2.016-.094,0.306,0.306,0,0,0,0,.516,4.86,4.86,0,0,0,.75.609,6.641,6.641,0,0,0,5.531,1.547q0.984-.141.328,0.609-0.7.8,0.235,0.7,0.656-.046,1.312-0.047a1.632,1.632,0,0,0,.469-0.141,72.276,72.276,0,0,1,7.5-2.953q2.014-1.125,1.078-2.766-0.236-.281.469-0.328a22.27,22.27,0,0,0,3.422-.8,6.91,6.91,0,0,1,3.656-.656,2.1,2.1,0,0,0,2.156-.047,1.634,1.634,0,0,0-.14-2.531,4.828,4.828,0,0,1-1.313-1.828,7.961,7.961,0,0,0-3.234-2.156q-3.282-1.312-10.032-.094a1.79,1.79,0,0,1-1.687-.609,18.66,18.66,0,0,0-6.234-3.562,1.7,1.7,0,0,0-1.079-.094,0.283,0.283,0,0,0,0,.234h0Zm14.625,18.984q-11.3,1.923-16.875,3.141a32.617,32.617,0,0,1-8.2.844q-0.984.047-.14,0.515,1.125,0.657,2.25,1.36,3.281,2.109,5.531,1.219,0.8-.282.469,0.468a31.839,31.839,0,0,1-1.407,3.422,2.5,2.5,0,0,0-.7,1.875,6.25,6.25,0,0,0,.891,2.766,1.649,1.649,0,0,0,1.5,1.078,1.468,1.468,0,0,0,.75-0.563,3.268,3.268,0,0,0,.562-1.5,3.145,3.145,0,0,1,1.36-1.828,34.144,34.144,0,0,0,4.312-4.406q0.609-.937.61,0.047,0.045,3.75.14,7.453,0,0.75-.75.234a18.474,18.474,0,0,1-1.5-1.593,1.6,1.6,0,0,1-.422-0.375,1.727,1.727,0,0,0-1.5-.61,1.233,1.233,0,0,0-.187.938l0.14,0.7a31.59,31.59,0,0,0,3.188,5.625q1.452,2.484,3.422,2.531a1.431,1.431,0,0,0,1.312-1.359,5.786,5.786,0,0,0-.187-1.828,14.007,14.007,0,0,1-.328-1.875q-0.048-5.2.047-10.36,0.422-.936,1.172-0.328a26.673,26.673,0,0,1,5.671,6.047,2.886,2.886,0,0,0,2.157,1.5,1.529,1.529,0,0,0,1.312-1.219q0.609-2.905-3.047-5.672a9.672,9.672,0,0,0-5.437-2.39q-0.984.047-1.078-.375a4.219,4.219,0,0,0-.563-0.891q-0.47-.468.281-0.609a62.982,62.982,0,0,1,6.282-.656,11.9,11.9,0,0,1,4.125.14,2.7,2.7,0,0,0,1.921-.187,1.3,1.3,0,0,0,.891-1.407,2.313,2.313,0,0,0-1.687-1.687l-0.938-.187a4.6,4.6,0,0,0-3.469-.516,13.849,13.849,0,0,1-1.875.516h0Zm-9.187,5.532,0.047,0.234a0.81,0.81,0,0,1-.75.984,10.893,10.893,0,0,0-4.36,2.438q-0.8.657-.843-0.188L119.3,105.6a0.8,0.8,0,0,1,.656-0.985q1.97-.562,3.891-1.031l0.328-.094a0.817,0.817,0,0,1,1.125.563h0Zm39.375-21.469a10.784,10.784,0,0,1,.516,4.266,1.824,1.824,0,0,1-.8,1.5l-1.5,1.078q-0.939.657-.938,0.094a2,2,0,0,0-.234-0.984,0.769,0.769,0,0,0-1.36-.187,2.634,2.634,0,0,0-.515.844,3.3,3.3,0,0,1-.891,1.406,0.982,0.982,0,0,0-.328.469A3.75,3.75,0,0,0,158.3,93.6q0.422,1.782,1.828,1.547a3.014,3.014,0,0,0,1.734-.984,17.072,17.072,0,0,1,2.438-2.719q0.8-.749.8,0.047A1.719,1.719,0,0,1,164.2,92.9q-0.422.329-.891,0.75a1.819,1.819,0,0,0-.984,1.359,1.26,1.26,0,0,0,.984.188l0.844-.141q0.938-.187.938,0.047a0.8,0.8,0,0,1-.75.469q-3.282.891-6.469,1.828a16.788,16.788,0,0,1-5.625.938q-0.891.047,0.094,0.656,0.7,0.422,1.406.891a5.3,5.3,0,0,0,3.75,1.219,36.644,36.644,0,0,1,5.438-1.969q0.936-.234.515,0.516a44.73,44.73,0,0,1-5.812,7.36l-2.438,2.531a14.89,14.89,0,0,0-3.047,4.031q-0.281.657,0.094,0.7a2.084,2.084,0,0,0,1.031-.375q1.407-.843,2.813-1.828a37.464,37.464,0,0,0,8.062-7.922q0.75-.936.75-0.14-0.141,4.032-.422,8.578a1.278,1.278,0,0,1-.515,1.125,1.583,1.583,0,0,0-.563.328q-1.266,1.407.141,2.25a4.427,4.427,0,0,1,1.734,2.156,3.656,3.656,0,0,0,3.141,2.625,1.24,1.24,0,0,0,1.406-1.218,4.731,4.731,0,0,0-1.5-3.188,3.009,3.009,0,0,1-.8-1.641q0.047-.843.75-0.468a8.411,8.411,0,0,0,4.781.8,53.9,53.9,0,0,1,9.329-1.922,1.863,1.863,0,0,1,1.734.656,5.5,5.5,0,0,1,1.359,1.219q1.5,1.968,2.578,1.781a1.518,1.518,0,0,0,1.219-1.547V113.57a0.663,0.663,0,0,1,.75-0.75,11.1,11.1,0,0,1,3.469,1.172,7.45,7.45,0,0,0,3.891,1.219A1.315,1.315,0,0,0,198.7,113.9a2.853,2.853,0,0,0-1.922-2.437,11.417,11.417,0,0,1-2.812-1.125,5.612,5.612,0,0,0-3.75-1.078q-0.939.236-.938-0.516,0-8.2.047-16.312a6.847,6.847,0,0,1,.422-1.875,3.384,3.384,0,0,1,.984-1.359q1.453-1.5-.375-2.625a6.043,6.043,0,0,1-1.828-1.359,3.968,3.968,0,0,0-1.875-.75,12.546,12.546,0,0,0-4.687,1.078,10.962,10.962,0,0,1-1.875.422,9.175,9.175,0,0,0-1.875.469,0.872,0.872,0,0,0-.657.609,4.1,4.1,0,0,0,.891.8,5.634,5.634,0,0,0,3,.75,19.937,19.937,0,0,0,3.516-.8q0.984-.234.984,0.516V92.9q0,0.7-.8.469a2.569,2.569,0,0,0-1.875.234,19.262,19.262,0,0,1-1.828.844q-0.984.281-.984-0.469a5.477,5.477,0,0,0-.938-2.625,4.573,4.573,0,0,1-.515-0.937q-0.423-.937-0.938-1.875a2.117,2.117,0,0,0-.844-0.984,0.954,0.954,0,0,0-.515,1.078q0.047,2.016.14,4.031a13.11,13.11,0,0,1,.094,2.109l-0.187,11.954a1.357,1.357,0,0,1-.094.8,2.353,2.353,0,0,0-.656.938,1.939,1.939,0,0,0,.468,2.3q0.282,0.422-.562.515-3.516.7-7.547,1.36c-0.532.125-.781-0.047-0.75-0.516q0.093-4.172.234-8.3,0.046-.936.563-0.093l1.031,1.64a6.112,6.112,0,0,0,.7.938,1.032,1.032,0,0,0,.891.656,1.906,1.906,0,0,0,2.156-1.734,3.31,3.31,0,0,0-.515-2.016,12.488,12.488,0,0,0-3.7-3.609,1.34,1.34,0,0,1-.937-1.078q0-.515.8-0.609a13.65,13.65,0,0,1,3.89.141,2.219,2.219,0,0,0,2.3-.516,1.631,1.631,0,0,0,.375-1.125,1.855,1.855,0,0,0-1.594-1.594,7.088,7.088,0,0,1-1.874-.656,3.16,3.16,0,0,0-2.813.094q-0.937.422-.937-0.141a1.227,1.227,0,0,1,.75-0.984,37.057,37.057,0,0,0,5.484-3.609,1.585,1.585,0,0,0,.7-1.687,12.189,12.189,0,0,0-3.8-3.984,0.6,0.6,0,0,0-.562-0.141,2.377,2.377,0,0,0,0,1.031q0.234,0.7.515,1.359A1.425,1.425,0,0,1,171,87.789q-0.891.844-1.734,1.594-0.939.75-.938-0.047a24.8,24.8,0,0,1,.234-3.8,13.047,13.047,0,0,0,.329-1.875,2.526,2.526,0,0,0-.657-2.016,7.289,7.289,0,0,0-3.75-1.969l-1.828-.422q-0.984-.187-0.047.8a11.718,11.718,0,0,1,2.063,2.531h0Zm21.281,14.391v3.843q0,0.752-.75.375a3.994,3.994,0,0,0-2.484-.047q-0.844.47-1.641,0.844-0.937.376-.937-0.375a19.67,19.67,0,0,1,.093-1.969,1,1,0,0,1,.75-1.031l3.422-1.547,0.469-.187q1.078-.7,1.078.094h0Zm0,12.375a0.763,0.763,0,0,1-.75.843l-0.562.047a2.169,2.169,0,0,1-1.688-.422,5.175,5.175,0,0,0-1.547-.843q-0.422.095-.094,0.843,0.375,0.8-.421.844a0.77,0.77,0,0,1-.985-0.75q0-1.968.094-3.891a0.73,0.73,0,0,1,.8-0.8,10.515,10.515,0,0,0,2.719-.563,11.452,11.452,0,0,0,1.687-.234q0.75-.375.75,0.328v4.594Zm25.313-27.938q0.468,0.563.843,1.078a1.7,1.7,0,0,1,.141,1.5l-1.406,2.438q-2.532,3.8-5.532,7.5a2.837,2.837,0,0,1-.656.656,0.708,0.708,0,0,0-.281.234,0.362,0.362,0,0,1-.094.328l-2.765,3.281a2.012,2.012,0,0,0-.844,1.406,0.832,0.832,0,0,0,.844,1.031,1.316,1.316,0,0,0,.937-0.187,33.1,33.1,0,0,0,3.75-3.328,1.293,1.293,0,0,1,1.5-.422,7.344,7.344,0,0,0,1.125.281,1.528,1.528,0,0,1,1.406.8l0.657,1.078a0.785,0.785,0,0,1-.469,1.172q-3.844,1.172-7.594,2.062-0.937.236,0.188,0.891a8.715,8.715,0,0,0,3.75,1.687,4.305,4.305,0,0,0,1.875-.562,9.446,9.446,0,0,1,1.828-.844q0.938-.375.937,0.563v0.562a1.389,1.389,0,0,1-.8,1.219q-1.265.657-2.437,1.219a1.882,1.882,0,0,1-1.406-.094q-0.985-.282-1.875-0.516-0.939-.28,0,0.75l1.64,1.875a3.979,3.979,0,0,0,1.828,1.313,1.747,1.747,0,0,0,2.063-.469q0.938-.748.937-0.328a2.118,2.118,0,0,1-.7,1.125q-0.609.609-1.265,1.312a4.892,4.892,0,0,0-.657,1.125q0.094,0.141-.7.516a8.143,8.143,0,0,0-1.172.563q-1.125.843-2.25-.75-0.843-.8-0.843.093v1.5a1.365,1.365,0,0,0,.7,1.125l1.312,1.5a1.585,1.585,0,0,0,1.219.328,6.087,6.087,0,0,0,1.922-.656q6.234-3.611,11.016-6.89,0.749-.562.515,0.281a32.252,32.252,0,0,1-3,7.172,2.232,2.232,0,0,0-.515,1.265,0.869,0.869,0,0,0,1.078,1.032,1.9,1.9,0,0,0,.937-0.563,18.6,18.6,0,0,0,3.844-6.094,40.367,40.367,0,0,0,1.969-11.3,0.681,0.681,0,0,1,.984-0.7q0.843-.093.281,0.75a2.62,2.62,0,0,0-.187.7,10.051,10.051,0,0,1-.375,3.469,1.593,1.593,0,0,1-.563,1.031,1.157,1.157,0,0,0-.375.844,2.407,2.407,0,0,0,1.125,2.2,1.2,1.2,0,0,0,1.172-.047l0.938-.468q1.359-.468,4.64-1.36,0.891-.234.375,0.61a7.841,7.841,0,0,0-1.078,1.64,0.851,0.851,0,0,0-.047.61,2.519,2.519,0,0,0,1.032.047,6.835,6.835,0,0,0,2.578-1.219,9.661,9.661,0,0,0,2.25-4.641q0.234-.937.281-0.187,0.141,4.594.375,9.187,0,0.75-.75,0-1.361-1.359-2.531-2.672a1.577,1.577,0,0,0-.891-0.562q-1.172-.234-1.172,1.125a0.619,0.619,0,0,0,.141.469,29.465,29.465,0,0,0,4.453,6.093,8.289,8.289,0,0,0,4.078,2.813,1.118,1.118,0,0,0,1.219-1.313,20.214,20.214,0,0,0-.469-2.812q-0.469-2.719-.7-5.625-0.611-9.327-.469-20.156a7.4,7.4,0,0,1,.891-3.75q0.89-1.312-.563-2.812a5.445,5.445,0,0,0-1.828-1.406,4.02,4.02,0,0,0-1.922-.047,73.792,73.792,0,0,1-11.25,2.438q-2.578.235-3.515,0.422a2.359,2.359,0,0,0-.985.469,3.785,3.785,0,0,0,.891.75,12.066,12.066,0,0,0,4.312,1.172q0.891-.046.7,0.8a6.974,6.974,0,0,1-1.171,2.625,3.273,3.273,0,0,0-1.079,4.078,1.279,1.279,0,0,0,1.266.844,1.814,1.814,0,0,0,1.36-.8,2.253,2.253,0,0,1,.8-0.844q0.844-.656,1.641-1.172,0.75-.422,0,0.469-0.516.563-.937,1.125a2.568,2.568,0,0,1-1.407,1.125,22.788,22.788,0,0,0-2.531.75q-0.8.188-.8-0.516l0.094-4.594a7.909,7.909,0,0,1,.187-2.016A1.235,1.235,0,0,0,224.3,89.9l-0.281-.047a1.38,1.38,0,0,1-.7-0.281,2.4,2.4,0,0,0-1.5-.422,1.237,1.237,0,0,1-1.031-.7A7.667,7.667,0,0,0,216,86.383q-0.891-.046-0.281-0.8l0.375-.422a1.546,1.546,0,0,0,.609-1.875,3.864,3.864,0,0,0-1.594-1.687q-0.937-.609-1.875-1.125a3.263,3.263,0,0,0-2.156-.234,0.97,0.97,0,0,0,.188,1.172h0Zm26.718,6.938L237.8,91.68q-0.048.75-.75,0a3.3,3.3,0,0,0-2.3-1.406,2.557,2.557,0,0,0-.7.328,9.253,9.253,0,0,0-3.235,1.125q-0.843.422-.89-0.375a2.177,2.177,0,0,0-.516-1.359q-0.7-.844.047-0.937,3.843-.7,7.688-1.453a0.663,0.663,0,0,1,.843.75h0Zm-23.625.984-1.218.375q-0.8.329-.329-0.328a1.166,1.166,0,0,1,1.36-.469q0.843,0.235.187,0.422h0Zm1.594,1.922a14.558,14.558,0,0,1,3.656.563,1.574,1.574,0,0,0,1.313,0q0.281-.141.75,0.8a36.752,36.752,0,0,1,.187,7.313,68.98,68.98,0,0,1-.7,7.547q-0.141.938-.422,0.75a1.5,1.5,0,0,0-1.593.14l-3.282,1.5q-1.031.469-.234-0.328a22.821,22.821,0,0,0,2.016-2.344,1.788,1.788,0,0,1,1.734-1.031,1.653,1.653,0,0,0,1.594-1.078,2.106,2.106,0,0,0-.8-1.875q-2.3-1.5-3.7-1.172a2.243,2.243,0,0,0-1.078.656q-0.657.752-.657-0.047a1.052,1.052,0,0,1,.844-1.031,5.478,5.478,0,0,1,3.516-.328,2.514,2.514,0,0,0,1.172-.047,1.676,1.676,0,0,0,.984-1.734,3.559,3.559,0,0,0-2.391-1.453,4.39,4.39,0,0,0-3.515.281q-0.8.469-.985,0.234a1.186,1.186,0,0,0-.375-0.328q-0.937-.515-0.234-0.891a37.209,37.209,0,0,1,3.7-1.687,2.214,2.214,0,0,0,1.359-.8q1.032-1.359,0-2.25a3.686,3.686,0,0,0-3.843-.094l-5.344,2.016q-0.937.188-.328-0.562,1.077-1.312,2.062-2.578a1.02,1.02,0,0,1,1.266-.469,13.478,13.478,0,0,0,3.328.328h0ZM237.7,95.9q0,0.7-.844.563a4.46,4.46,0,0,0-2.062-.469q-0.844.235-.141-0.375a11.25,11.25,0,0,1,1.172-.8q0.7-.234,1.406-0.422,0.468-.375.469,0.563V95.9Zm0,4.922v0.516q0,0.75-.844.047a6.5,6.5,0,0,0-.937-0.469,3.874,3.874,0,0,0-1.828-.469,0.843,0.843,0,0,1-.891-0.375q-0.187-.374.609-0.468a7.461,7.461,0,0,1,2.954.094,1.044,1.044,0,0,1,.937,1.125h0Zm-7.922,4.547a1.085,1.085,0,0,1-.7,1.125q-0.609.141-.422-0.656l0.328-1.078a1.18,1.18,0,0,0-.093-1.922,1.082,1.082,0,0,1,.14-1.359,0.748,0.748,0,0,0,.188-0.282q0.186-.889.469-0.047a22.94,22.94,0,0,1,.093,4.219h0Zm4.641-2.484a8.094,8.094,0,0,1,.047,1.5,0.941,0.941,0,0,1-.891.937,0.523,0.523,0,0,1-.7-0.609l0.187-1.875q0.094-.89.844-0.375a0.718,0.718,0,0,1,.516.422h0ZM279.8,83.43a0.991,0.991,0,0,1-.8,1.078,7.524,7.524,0,0,0-1.125.281,0.744,0.744,0,0,1-1.031-.609,3.77,3.77,0,0,0-1.453-2.3,2.116,2.116,0,0,1-.422-0.937l-0.281-.937q-0.328-1.125-.7-0.234a8.913,8.913,0,0,0-.843,2.719l0.656,2.531a0.985,0.985,0,0,1-.609,1.219,7.743,7.743,0,0,1-1.36.328q-0.984.281-1.078-.141-0.141-.8-0.562-0.609a6.024,6.024,0,0,0-.8,2.016,6.438,6.438,0,0,0-.141,3.938q0.188,0.891-.609.516l-0.469-.187a0.78,0.78,0,0,1-.75-0.984,25.229,25.229,0,0,0,.8-3.281,5.62,5.62,0,0,1,.656-1.875,2.065,2.065,0,0,0-.7-2.344l-0.516-.937a3.576,3.576,0,0,0-2.672-1.547q-2.766-.141-8.2,2.016A1.009,1.009,0,0,1,255.7,83.1q-0.422-.609-0.8.188a7.492,7.492,0,0,0-.7,3.469,12.466,12.466,0,0,1,.281,2.719,2.878,2.878,0,0,0,.61,2.813l0.328,0.7a0.711,0.711,0,0,1-.375,1.078l-1.313.563q-0.937.563-1.031,0.094t-0.609.422q-0.328.61-.61,1.172a2.486,2.486,0,0,1-.515.656,1.792,1.792,0,0,0-1.266,1.875q0.375,2.438,1.828,2.953a2.171,2.171,0,0,0,2.016-.282,1.283,1.283,0,0,0,.469-1.171,1.949,1.949,0,0,0-.657-0.985,1.338,1.338,0,0,1-.375-1.266,1.025,1.025,0,0,1,.844-1.031,12.353,12.353,0,0,1,1.5.188,3.6,3.6,0,0,0,1.875-.75,17.868,17.868,0,0,1,3.516-1.406,1.389,1.389,0,0,1,1.547.563q0.607,0.8-.188,1.125a21.077,21.077,0,0,1-6.328,1.5,1.19,1.19,0,0,0-1.172.609,2.251,2.251,0,0,0,.8.7q0.8,0.376.609,0.609a1.1,1.1,0,0,0,.188,1.641,4.037,4.037,0,0,1,.422,1.593q0.421,7.361-1.5,11.438a22.379,22.379,0,0,1-2.344,3.75,11.5,11.5,0,0,0-1.172,1.875c-0.219.469-.2,0.718,0.047,0.75a2.339,2.339,0,0,0,1.031-.422,12.493,12.493,0,0,0,5.532-5.906q0.327-.8.75-0.141a20.915,20.915,0,0,0,5.39,5.391,2.533,2.533,0,0,0,2.391.562,1.007,1.007,0,0,0,.562-0.937q0-.7.75-0.469a5.815,5.815,0,0,0,2.485.234l1.875-.656a76.875,76.875,0,0,1,11.25-1.828,6.552,6.552,0,0,1,3.234.7,8.454,8.454,0,0,0,4.313,1.547,2.541,2.541,0,0,0,.609-0.141q1.266-.75.8-1.734a3.059,3.059,0,0,0-1.547-1.594,23.5,23.5,0,0,1-3.7-1.687,4.983,4.983,0,0,0-3.7,0q-0.845.186-.094-0.516,0.889-.89,1.594-1.734a1.472,1.472,0,0,0,.234-2.157,0.448,0.448,0,0,1,0-.656,1.475,1.475,0,0,0-.609-1.969q-0.47-.28.14-0.843a3.547,3.547,0,0,1,1.032-.7,1.478,1.478,0,0,0,.7-1.079,2.09,2.09,0,0,0-.844-1.64q-2.25-1.969-3.75-1.36a8.478,8.478,0,0,1-1.828.563q-0.891.188-.235-0.047,2.766-.8,5.86-1.5a1.8,1.8,0,0,0,1.359-1.547,1.266,1.266,0,0,0-.75-1.312q-0.469-.187.281-1.125a21.893,21.893,0,0,0,2.766-6.094,3,3,0,0,1,.656-0.937,1.772,1.772,0,0,0-.422-2.719,9.351,9.351,0,0,1-1.078-1.172,5.264,5.264,0,0,0-4.547-1.828,0.57,0.57,0,0,1-.609-0.8,1.764,1.764,0,0,1,.141-0.7,2.647,2.647,0,0,0-.047-2.062,4.247,4.247,0,0,0-3.188-2.3q-0.984-.187-0.75.8a14.016,14.016,0,0,1,.141,4.688h0Zm-15.188,3.563q-0.046.984-.984,0.375a0.314,0.314,0,0,1-.234-0.094,0.907,0.907,0,0,1-.657-1.078,1.636,1.636,0,0,0-.093-1.031q-0.7-.8.14-1.078l0.7-.187a1.234,1.234,0,0,1,1.219.094,24.807,24.807,0,0,1-.094,3h0Zm-7.593-1.734a2.6,2.6,0,0,0,1.875.328q0.514-.141.562,0.609a8.5,8.5,0,0,1-1.219,3.7q-0.516.75-.843,0a14.931,14.931,0,0,1-1.172-4.828,1.323,1.323,0,0,1,.8.188h0Zm28.875,3.234a1.178,1.178,0,0,1-.75-0.094,6.275,6.275,0,0,0-1.5-.094q-0.939.188-.844-0.7a0.971,0.971,0,0,1,.891-0.891q1.733-.046,2.156.609a5.072,5.072,0,0,1,.047,1.172h0Zm-6.469.047a1.318,1.318,0,0,1-.984,1.219,0.668,0.668,0,0,1-.985-0.609,0.912,0.912,0,0,1,.656-1.125l0.469-.141Q279.516,87.6,279.422,88.539Zm-5.906.516a0.927,0.927,0,0,1,.843.938,0.754,0.754,0,0,1-.656.891,2.656,2.656,0,0,0-1.359.328,0.906,0.906,0,0,0-.094,1.359,1.7,1.7,0,0,0,.375.422l0.984,0.234a0.86,0.86,0,0,1,.985.8,1.713,1.713,0,0,1,0,.563q0.093,0.891-.282.984a0.922,0.922,0,0,1-.843-0.562,8.052,8.052,0,0,1-1.407-2.437,10.326,10.326,0,0,1-.937-3.516q-0.047-.8.7-0.516Zm-9.985,2.625q0.421,0.047-.422.141a1.643,1.643,0,0,1-1.453-.562,1.027,1.027,0,0,1-.422-1.125q0.282-.468.938,0.375,0.843,1.36,1.359,1.172h0Zm21.7,0.7-0.375,1.078a0.754,0.754,0,0,1-1.171.516,2.414,2.414,0,0,0-.891-0.187q-0.939-.046-0.844-0.562a1.046,1.046,0,0,1,.8-0.844,13.854,13.854,0,0,1,1.5-.469l0.281-.094q0.891-.234.7,0.563h0Zm-25.828.141q-0.657.188,0.047-.281,0.563-.422.656-0.187,0.095,0.281-.7.469h0Zm19.547,1.641a0.488,0.488,0,0,1-.515.422c-0.345.094-.516-0.031-0.516-0.375a0.378,0.378,0,0,1,.516-0.422Q278.953,93.836,278.953,94.164Zm-12.75.8c-0.313.251-.359,0.2-0.141-0.141q0.188-.327.329-0.281c0.124,0.063.062,0.2-.188,0.422h0Zm5.063,2.953a2.98,2.98,0,0,0,.422.75,2.424,2.424,0,0,0,1.921.844,1.432,1.432,0,0,0,1.266-1.078,0.623,0.623,0,0,1,.7-0.516,25.345,25.345,0,0,0,4.594-.7,1.305,1.305,0,0,1,1.266.188q0.327,0.376-.422.563l-6.188,1.359a9.694,9.694,0,0,1-3.75.328,7.554,7.554,0,0,0-2.672-.234q-0.281.141,0.375,0.938a9.712,9.712,0,0,0,2.813,1.593q0.938,0.189.609,0.938-0.187.657-.469,2.062a3.432,3.432,0,0,0,.141,1.641,2.32,2.32,0,0,1,.141,1.078,1.8,1.8,0,0,0,.75,1.969,6.761,6.761,0,0,1,.984.7,0.941,0.941,0,0,1-.188,1.266,3.811,3.811,0,0,0-.843,3.421q0.281,0.516-.516.657l-4.641.843q-0.843.188-.937-0.515-0.516-4.359-.609-9.281a2.823,2.823,0,0,1,.656-0.938l1.875-2.344a1.911,1.911,0,0,0,.328-0.937q0.188-.937-0.844-0.844a2.1,2.1,0,0,0-1.125.516q-0.937.8-.89,0.047a3.172,3.172,0,0,1,.609-2.25,1.356,1.356,0,0,0,.187-1.875q-0.281-.468.469-0.75a3.336,3.336,0,0,1,2.766-.187,1.112,1.112,0,0,1,1.219.75h0Zm-8.2,2.344a0.8,0.8,0,0,1-.046.234q-0.048.891-.469,0.891a1.734,1.734,0,0,0-1.125.328,2.786,2.786,0,0,0-.7.281q-0.8.328-.75-0.328a0.9,0.9,0,0,0-.235-1.031q-0.187-.187.61-0.375l1.547-.422,0.375-.141q0.843-.281.8,0.563h0Zm13.5,1.875a0.933,0.933,0,0,0,.469.609c0.094,0.063-.11.141-0.609,0.235l-1.969.468a0.882,0.882,0,0,1-1.125-.609q-0.28-.7.469-0.75l1.406-.047,0.375-.047q0.984-.093.984,0.141h0Zm-13.734,3.047a1.842,1.842,0,0,1-.75,1.359q-0.75.61-1.547,1.172-0.937.563-.89-0.188l0.047-.421a1.1,1.1,0,0,1,.89-1.079l0.7-.421,0.469-.375q1.078-.845,1.078-0.047h0Zm14.484,0.656q1.734-.375,3.516-0.7,0.8-.093-0.047.844-0.7.7-1.406,1.312a0.754,0.754,0,0,1-.469.188l-1.828.515a1.733,1.733,0,0,1-1.687-.328,6.149,6.149,0,0,1-1.266-1.828q-0.281-.8.469-0.375a4.318,4.318,0,0,0,2.718.375h0Zm-14.343,4.594q0.093,2.063.281,4.125,0.093,0.936-.7.422-1.454-.939-2.813-1.969a1.025,1.025,0,0,1-.656-0.985,0.733,0.733,0,0,1,.8-0.562,13.617,13.617,0,0,0,1.547-.656l0.469-.328q1.077-.891,1.078-0.047h0Zm18.187,0.281a1.415,1.415,0,0,1-.234,1.312,17.755,17.755,0,0,1-2.11,2.391,1.506,1.506,0,0,1-.984.422l-1.172.141q-0.843.139,0.094-.7,1.172-1.03,2.344-1.968a1.039,1.039,0,0,0,.328-0.422,0.881,0.881,0,0,0-.375-1.406q-0.47-.141.187-0.188a5.02,5.02,0,0,1,.7-0.047,1.232,1.232,0,0,1,1.218.469h0Zm-3.422-.094c-0.219.094-.312,0.094-0.281,0,0-.094.125-0.14,0.375-0.14q0.234-.047-0.094.14h0Zm28.219-29.531,0.656,0.844a4.863,4.863,0,0,1,.844,2.344l-0.047,5.484a0.942,0.942,0,0,1-.8.938,51.547,51.547,0,0,1-8.25,2.109q-1.03.188-.093,0.7a14.067,14.067,0,0,0,4.172,2.063,3.417,3.417,0,0,0,2.109-.562,1.836,1.836,0,0,1,.75-0.422q0.938-.327.7,0.422a49.2,49.2,0,0,1-7.172,12.094,1.96,1.96,0,0,0-.75,1.406,0.827,0.827,0,0,0,.938.937,1.4,1.4,0,0,0,.937-0.281,27.647,27.647,0,0,0,4.5-4.266,24.549,24.549,0,0,0,2.344-3.75q0.468-.984.422-0.14-0.235,6.986-.8,12.656a1.528,1.528,0,0,1-.469,1.172,2.315,2.315,0,0,0-.562.562,1.516,1.516,0,0,0,.937,2.25,3.186,3.186,0,0,1,.516.657,20.62,20.62,0,0,1,1.172,1.875,2.766,2.766,0,0,0,1.593,1.547,1.791,1.791,0,0,0,1.735-.235,1.653,1.653,0,0,0,.328-2.3,13.6,13.6,0,0,0-1.313-1.875,2.92,2.92,0,0,1-.421-1.875q0.139-7.405.328-14.859,0.045-.984.609-0.188,0.563,0.845,1.031,1.688,0.7,1.172,1.219,1.125a1.844,1.844,0,0,0,1.828-.8q1.266-2.391-1.687-4.547-0.939-.7-1.875-1.359a1.58,1.58,0,0,1-.938-1.312l0.047-1.781a0.816,0.816,0,0,1,.8-0.844,21.5,21.5,0,0,1,2.625.094,1.249,1.249,0,0,0,1.359-.609,1.3,1.3,0,0,0-.328-1.828,6.268,6.268,0,0,0-3.562-1.219,0.662,0.662,0,0,1-.75-0.75,14.9,14.9,0,0,1,.421-3.984q0.7-2.109-1.546-3.562A7.074,7.074,0,0,0,306.7,79.68a1.772,1.772,0,0,0-1.031.094,1.033,1.033,0,0,0,.281,1.313h0ZM318.8,83.1a3.323,3.323,0,0,0-1.735.609,0.364,0.364,0,0,0,.047.563,6.57,6.57,0,0,0,3.235,1.547h2.25a1.25,1.25,0,0,1,1.312.609,0.859,0.859,0,0,0,1.313.234l0.609-.281q0.938-.375,1.078.375l0.141,0.422a0.9,0.9,0,0,1-.656,1.125l-0.891.234a2.242,2.242,0,0,1-1.641-.281,0.882,0.882,0,0,1-.328-1.359q0.421-.7-0.14-0.984a3.72,3.72,0,0,0-1.969.516,2.6,2.6,0,0,1-1.453.563c-0.375-.062-0.485,0-0.328.188s0,0.453-.469.8a14.6,14.6,0,0,0-2.3,2.344q-1.782,2.016-.8,3.75a2.737,2.737,0,0,1,.234,1.219,2.825,2.825,0,0,0,.985,2.2,2.54,2.54,0,0,1,1.219,1.172,6.835,6.835,0,0,0,2.109,1.594q0.889,0.329.187,0.281-1.125-.141-2.156-0.234a2.807,2.807,0,0,0-1.406.187,0.782,0.782,0,0,0-.047.235,5.706,5.706,0,0,0,1.922,1.312,6.927,6.927,0,0,0,3.7.984q0.656,0,.656.282a0.507,0.507,0,0,0,.141.375,1.8,1.8,0,0,0,1.781.093q2.718-.936,6.563-2.015a1.353,1.353,0,0,0,.8-1.313,1.5,1.5,0,0,0-.61-1.265q-0.329-.281.422-0.7a12.1,12.1,0,0,0,4.078-4.078,1.392,1.392,0,0,1,1.032-.844A0.717,0.717,0,0,0,338.3,92.9a1.694,1.694,0,0,0-.75-1.828,8.406,8.406,0,0,1-1.641-1.781,5.965,5.965,0,0,0-4.5-1.969,1.465,1.465,0,0,1-1.453-.656,2.507,2.507,0,0,1-.937-1.5,1.824,1.824,0,0,1,.843-0.422,22.646,22.646,0,0,1,3.516-1.078,1.881,1.881,0,0,0,.937-0.562,0.741,0.741,0,0,0,.282-0.469q0.186-1.359-1.5-1.781a7.561,7.561,0,0,0-4.922.281A33.512,33.512,0,0,1,318.8,83.1h0Zm2.578,6.422c0.031,0.063-.031.11-0.187,0.141-0.063.031-.047-0.015,0.046-0.141Q321.329,89.43,321.375,89.523Zm11.531,0.938q1.875,0.891.422,2.531a9.867,9.867,0,0,1-1.172,1.641q-0.891.844-.937,0.609a1.6,1.6,0,0,0-1.172-.937q-0.939-.187-0.516-1.125a10.286,10.286,0,0,0,.7-1.922,1.182,1.182,0,0,1,1.078-.984,4.158,4.158,0,0,1,1.594.188h0Zm-6.7,3.328a1.25,1.25,0,0,1-.8,1.031q-0.421.141-.375-0.7l0.094-1.453a1.144,1.144,0,0,1,.844-1.078q0.8-.281.609,0.609Zm-5.062-1.078a0.832,0.832,0,0,1,.8.891l-0.047,1.266a1.046,1.046,0,0,1-.8,1.078,1.324,1.324,0,0,1-1.266-.656,3.591,3.591,0,0,1-.656-3,0.845,0.845,0,0,1,.75.094,5.815,5.815,0,0,0,1.219.328h0ZM327,98.336q0.7,0.563-.047.8l-3.375,1.031q-0.891.235-.562,0a1.685,1.685,0,0,0,.422-1.875,0.93,0.93,0,0,1,.75-0.234l0.75-.141,0.468-.094a1.621,1.621,0,0,1,1.594.516h0Zm5.719,4.641Q324.7,104.1,316.312,105.7a25.42,25.42,0,0,1-3.75.469,9.31,9.31,0,0,0-1.874.281q-0.986.47,0.046,1.219a5.561,5.561,0,0,0,4.782,1.219l1.687-.469q0.938-.186.563,0.563-0.377.891-.657,1.781a2.671,2.671,0,0,1-.8.89,2.6,2.6,0,0,0-.609,1.407,3.379,3.379,0,0,0,.563,2.25,1.667,1.667,0,0,0,2.343.047,53.828,53.828,0,0,1,3.891-4.032,2.868,2.868,0,0,0,.7-0.843q0.516-1.312-.937-1.313a2.432,2.432,0,0,0-1.407.656l-0.7.469q-0.8.469-.89-0.281l-0.188-1.031q-0.375-.845.422-1.032,1.922-.327,3.8-0.609a0.745,0.745,0,0,1,1.031.609q0,4.266.188,8.485,0.139,0.234-.844-0.61l-0.563-.656a1.664,1.664,0,0,0-.75-0.8q-1.219-.7-1.5.563a1.687,1.687,0,0,0,.188.937,32.913,32.913,0,0,0,3.187,4.688,3.732,3.732,0,0,0,1.641,1.172q3.188,0.468,1.875-2.532c-0.094-.312-0.172-0.625-0.234-0.937q-0.095-4.125,0-8.2a1.394,1.394,0,0,1,.187-0.7q0.468-.75,1.172,0a17.227,17.227,0,0,1,3.516,3.375q0.889,1.171,1.547,1.875a1.6,1.6,0,0,0,2.109.375,2.408,2.408,0,0,0,1.078-1.266,2.528,2.528,0,0,0-.8-2.813,12.157,12.157,0,0,0-7.312-3.14,0.857,0.857,0,0,1-.985-0.469q-0.329-.515.422-0.609l4.219-.375a15.359,15.359,0,0,1,5.016.187,1.946,1.946,0,0,0,2.718-1.547,2.09,2.09,0,0,0-2.156-1.828,5.306,5.306,0,0,1-.938-0.281,3.294,3.294,0,0,0-2.765-.422,17.7,17.7,0,0,0-1.828.563h0Zm33.422-24.329a1.861,1.861,0,0,1,.375.938A16.29,16.29,0,0,1,364.5,83.8a53.258,53.258,0,0,1-5.625,7.5,1.848,1.848,0,0,0-.422.938,0.816,0.816,0,0,0,.656.938,1.089,1.089,0,0,1-.328.844q-1.454,2.579-2.812,5.156-0.562.938-.375,1.031a0.305,0.305,0,0,0-.328.234,1.31,1.31,0,0,1-.938-0.047,0.313,0.313,0,0,1-.234-0.093q-0.984-.329-0.8.7a2.676,2.676,0,0,0,1.453,2.156,2.941,2.941,0,0,0,1.172,1.219,1.281,1.281,0,0,0,1.781-.61,7.317,7.317,0,0,0,.75-1.875q1.359-3.7,2.578-7.5a1.2,1.2,0,0,0-.281-1.547q-0.141-.093.562-0.75l1.126-.984q0.889-.89.89-0.141v7.266a1.492,1.492,0,0,1-.8,1.266,1.436,1.436,0,0,0-.515,1.125,2.25,2.25,0,0,0,.562,1.406q0.327,0.469.7,0.938,0.8,0.938.047,1.078-5.157.843-10.969,2.2-1.875.469-3.75,0.8a6.664,6.664,0,0,0-1.875.562q-0.609.516,0,.891a12.87,12.87,0,0,0,6.094,1.453,8.178,8.178,0,0,0,1.875-.563,78.964,78.964,0,0,1,11.25-2.718,0.788,0.788,0,0,1,.985.843l-0.047,8.86a2.6,2.6,0,0,1-.282,1.265,1.6,1.6,0,0,0-.421.938q-0.094,1.406,1.546,3.75a1.723,1.723,0,0,0,1.172.609,1.584,1.584,0,0,0,1.547-1.5l-0.141-2.25q-0.047-4.359.094-12.375a0.822,0.822,0,0,1,.75-0.89,54.037,54.037,0,0,1,8.11-.657,10.148,10.148,0,0,1,3.562,1.172,10.511,10.511,0,0,0,3.75,1.453q2.3-.186,1.734-2.343a3.212,3.212,0,0,0-1.64-1.547,16.466,16.466,0,0,1-2.813-1.125,5.748,5.748,0,0,0-5.906-.75,2.686,2.686,0,0,1-.937.14l-5.438.61c-0.532.063-.781-0.031-0.75-0.281a1.461,1.461,0,0,0-.609-1.313q-0.985-.468-0.188-0.609,2.344-.468,6.8-1.125a18.048,18.048,0,0,1,6.656-.234,1.415,1.415,0,0,0,.657-2.672,7.117,7.117,0,0,0-6.235-.609,13.942,13.942,0,0,1-1.828.422q-0.891.188-.89-0.562a0.837,0.837,0,0,1,.75-0.844q1.874-.234,3-0.469,1.593-.984.937-2.109a4.277,4.277,0,0,0-3.563-.7q-0.984.281-.937-0.047a0.837,0.837,0,0,1,.8-0.469A11.772,11.772,0,0,1,378,91.023a2.2,2.2,0,0,0,1.359-.609q1.359-1.64-.8-2.344a5.6,5.6,0,0,0-2.062-.094,0.949,0.949,0,0,1-1.172-.422q-0.516-.562.234-0.7l1.032-.234a12.889,12.889,0,0,1,5.3-.281,1.329,1.329,0,0,0,1.218-.937q0.468-1.593-1.64-2.156a5.564,5.564,0,0,0-4.641.141q-0.937.281-.656-0.469a2.268,2.268,0,0,0-1.36-2.578,7.833,7.833,0,0,0-4.874-1.641,0.661,0.661,0,0,0-.563.375c0,0.125-.2-0.124-0.609-0.75a2.719,2.719,0,0,0-2.25-1.359,19.188,19.188,0,0,0-1.922-.187q-0.891-.093.14,0.75,0.7,0.516,1.407,1.125h0Zm-12.422.984a5.771,5.771,0,0,0,1.64,1.641,15.285,15.285,0,0,1,2.3,2.016q1.5,2.766,3.469,1.172a1.836,1.836,0,0,0,.469-2.344,3.228,3.228,0,0,0-1.36-1.078,17.319,17.319,0,0,0-5.343-1.781,3.155,3.155,0,0,0-1.125.047,0.39,0.39,0,0,0-.047.328h0Zm19.078,3.75q0.748,0.844-.094.984l-4.687.938q-0.8.141-.094-0.8Q368.86,83.1,369.7,81.7a2.291,2.291,0,0,0,.328-1.031q0-.422.61,0.188a13.035,13.035,0,0,1,2.156,2.531h0ZM353.2,89.242a5.954,5.954,0,0,0-1.875.422q-0.891.469,0.188,1.219a11.415,11.415,0,0,0,1.218.656q0.938,0.235.75,0.938-0.234,1.406,1.078.7,1.032-.609,3.7-2.578a2.4,2.4,0,0,0,.984-1.641,1.172,1.172,0,0,0-.656-1.125,2.491,2.491,0,0,0-1.782-.281,12.131,12.131,0,0,1-3.609,1.688h0Zm18.281,0.141q-2.2.61-3.984,0.938-0.937.095-.844-0.656l0.047-.609q0.141-.937.891-0.609a4.7,4.7,0,0,0,3.047-.328,0.771,0.771,0,0,1,1.078.375c0.124,0.5.047,0.8-.235,0.891h0Zm0.469,3.234a0.83,0.83,0,0,1-.75.656,32.364,32.364,0,0,1-3.891.844q-0.937.235-.937-0.516l0.047-.375q0.046-.937.8-0.75a16.95,16.95,0,0,0,3.562-.094l0.188-.047q0.984-.187.984,0.281h0Zm-0.141,4.266a1.056,1.056,0,0,1-.843.328q-1.875.329-3.75,0.516a0.727,0.727,0,0,1-.938-0.8q0.046-.937.8-0.75a18.172,18.172,0,0,0,3.891-.047q0.938-.141.937,0.188a1.756,1.756,0,0,1-.094.563h0Z"/>
</svg>
