<svg xmlns="http://www.w3.org/2000/svg" width="400" height="200" viewBox="0 0 400 200">
  <defs>
    <style>
      .cls-1 {
        fill: #fdfdfd;
        fill-rule: evenodd;
      }
    </style>
  </defs>
  <path id="一點明體" class="cls-1" d="M82.93,98.717l0.527,1.611h49.629l0.732-1.2a43.135,43.135,0,0,0-4.8-4.863l-3.662,4.453H82.93ZM147.822,81.9a18.712,18.712,0,0,1,1.612,7.441q0,2.285,1.377,2.285,1.639,0,1.64-2.285,0-3.9-3.6-8.027Zm-3.691-7.383v23.76h3.252V95.758H153.3v5.947H142.373l0.674,1.494H153.3v5.83q-7.354.879-12.422,1.319,0.819,4.863,2.051,4.863,0.644,0,1.2-2.109,12.6-1.963,23.76-4.747l-0.352-1.435q-5.917,1.113-10.986,1.67V103.2h9.961l0.674-1.2-0.616-.644a20.557,20.557,0,0,0-2.988-2.842l-2.695,3.193h-4.336V95.758h6.093v1.494h3.106V79.147l1.611-1.025a0.715,0.715,0,0,0,.44-0.527q0-.879-3.428-3.662l-2.168,2.7h-14.3q-2.081-1.259-3.779-2.109h0Zm9.228,3.6V94.264h-5.976V78.121h5.976Zm3.194,16.143V78.121h6.093v3.428a15.274,15.274,0,0,0-3.486-1.143,71.33,71.33,0,0,1-2.021,11.221l1.2,0.352a66.324,66.324,0,0,0,3.4-8.76,4.094,4.094,0,0,0,.908-0.234V94.264h-6.093Zm13.535,7.558v25.43h3.428v-3.779H189.6v3.779h3.31V106.51l1.611-1.084a0.835,0.835,0,0,0,.5-0.7q0-.879-3.633-3.868l-2.4,3.018h-6.826V89.928h12.774l0.732-1.142a45.809,45.809,0,0,0-3.721-4.424l-2.959,4.072h-6.826V77.506q2.813-1,2.813-1.729,0-1.289-6.182-1.553v29.648H174.16q-2.959-1.583-4.072-2.051h0Zm19.512,3.545v16.612H173.516V105.367H189.6ZM160.918,113.1a11.758,11.758,0,0,1,3.428,6,1.543,1.543,0,0,0,1.552,1.553,1.762,1.762,0,0,0,1.934-2.051q0-3.427-6.094-6.416Zm-10.4,1.992a25.832,25.832,0,0,1,.673,5.449,14.379,14.379,0,0,1-.293,2.988,6.648,6.648,0,0,0-.175,1.084,1.279,1.279,0,0,0,1.552,1.319q2.344,0,2.344-3.545a13.154,13.154,0,0,0-2.842-7.53Zm-8.086,8.642a2.329,2.329,0,0,0-.879,1.67q0,1.933,2.2,1.934a3.176,3.176,0,0,0,2.461-1.729,11.417,11.417,0,0,0,1.7-6.679q0-1.29-.2-3.37l-1.377-.351q-0.645,5.772-3.9,8.525h0Zm12.773-9.257a15.315,15.315,0,0,1,2.695,7.88q0.088,1.671,1.436,1.67,2.109,0,2.109-2.285,0-4.248-5.332-8.027Zm63.867,1.318h3.369V81.9l1.26-.967a1.168,1.168,0,0,0,.528-0.791q0-.791-3.4-3.4L218.6,79.557H208.525a39.837,39.837,0,0,0-4.1-2.051v40.576h3.486v-6.3h11.162V115.8Zm28.8-36.3v40.313a1.671,1.671,0,0,1-1.846,1.933q-4.453,0-9.433-.469v1.67a32.3,32.3,0,0,1,6.972,1.348,2.581,2.581,0,0,1,1.67,2.256q6.242,0,6.241-4.981V80.523l1.377-1.142a1.117,1.117,0,0,0,.468-0.791q0-.732-3.574-3.516l-2.4,2.93H233.4q-2.2-1.23-4.072-2.051v24.668q0,9.083-2.314,14.8a26.181,26.181,0,0,1-8.672,10.723l1.084,1.2a25.825,25.825,0,0,0,9.463-8.555,28.759,28.759,0,0,0,3.925-12.832h13.946l0.556-1a27.609,27.609,0,0,0-2.929-3.34l-2.139,2.842h-9.375q0.117-2.52.117-3.838V92.272h13.77l0.556-1a28.741,28.741,0,0,0-2.929-3.369l-2.139,2.871h-9.258V79.5h14.883ZM207.91,110.289V96.109h11.162v14.18H207.91Zm0-15.674V81.051h11.162V94.615H207.91Zm58.067-19.336V92.594h-1.729q-0.088-.644-0.293-1.553l-1.406-.176q-0.088,5.1-2.2,7.5a2.326,2.326,0,0,0-.733,1.553q0,1.669,1.992,1.67,2.93,0,2.93-5.772,0-1.055-.059-1.728h17.754a25.793,25.793,0,0,1-1.142,3.486,1.623,1.623,0,0,1-.352-0.293,7.74,7.74,0,0,0-.615-0.557l-1.963,2.344h-8.73a23.058,23.058,0,0,0-3.75-1.787v29.971h3.193V114.3H278.4v6.533a1.554,1.554,0,0,1-1.757,1.758,27.455,27.455,0,0,1-4.893-.44v1.436a15.512,15.512,0,0,1,3.516.967,2.427,2.427,0,0,1,1.318,2.226,5.458,5.458,0,0,0,3.779-1.084,4.305,4.305,0,0,0,1.143-3.428V101.354l1.26-.85a0.729,0.729,0,0,0,.41-0.586,3.17,3.17,0,0,0-1-1.318,35.027,35.027,0,0,0,2.636-3.721l1.729-.5a0.449,0.449,0,0,0,.41-0.469q0-.849-2.988-3.662l-1.729,2.344h-0.908V79.381l1.436-.908A0.578,0.578,0,0,0,283.057,78q0-.82-2.989-3.369l-2.08,2.52h-8.467q-1.817-1.055-3.544-1.875h0Zm12.363,3.369v5.068H275.5q-2.666-1.435-3.34-1.758V92.594h-3.135V78.648h9.317Zm-3.252,13.945V85.211h3.252v7.383h-3.252Zm3.31,7.968v5.04h-9.521v-5.04H278.4Zm-9.521,12.247V107.1H278.4v5.713h-9.521Zm19.805-9.9v12.715h3.1v-2.344h16.2v1.993h3.106v-8.291l1.2-.909a1.013,1.013,0,0,0,.469-0.7q0-.79-3.282-3.017l-1.962,2.226H292.256a22.947,22.947,0,0,0-3.574-1.67h0Zm19.306,3.164v5.713h-16.2V106.07h16.2Zm-3.252-29.56q2.226-.82,2.227-1.582,0-1.113-5.156-1.377v6.006h-4.161V76.51q2.227-.82,2.227-1.582,0-1.143-5.156-1.318v5.947h-3.6q-1.319-.791-3.545-1.846v18.34h3.047V93.707h18.516v1.816h3.047V81.959l1.435-.908a0.708,0.708,0,0,0,.352-0.527q0-.849-3.223-3.369l-1.9,2.4h-4.1V76.51Zm4.395,15.7h-4.395V87.291h4.395v4.922ZM304.736,85.8V81.051h4.395V85.8h-4.395Zm-2.929,0h-4.161V81.051h4.161V85.8Zm-7.09,0h-4.1V81.051h4.1V85.8Zm-4.1,1.494h4.1v4.922h-4.1V87.291Zm7.031,0h4.161v4.922h-4.161V87.291Zm-14.208,36.563,0.673,1.494h31.377l0.7-1.2a26.858,26.858,0,0,0-3.4-3.9l-2.783,3.6h-6.24a33.188,33.188,0,0,0,3.427-5.274q2.168,0,2.168-.791,0-1.083-4.98-2.637a49.976,49.976,0,0,1-2.344,8.7h-18.6Zm8.291-7.618a10.488,10.488,0,0,1,2.519,6.006,1.294,1.294,0,0,0,1.436,1.377,1.839,1.839,0,0,0,2.109-2.051q0-3.573-5.3-6.181Zm-7.442-17.519,0.586,1.494h30.176l0.732-1.143a25.04,25.04,0,0,0-3.662-3.047l-2.754,2.7H284.287Z"/>
</svg>
