<svg xmlns="http://www.w3.org/2000/svg" width="1540" height="1450" viewBox="0 0 1540 1450">
  <defs>
    <style>
      .cls-1 {
        fill: #fdfdfd;
      }

      .cls-1, .cls-2, .cls-3 {
        fill-rule: evenodd;
      }

      .cls-2 {
        fill: #fefefe;
      }

      .cls-3 {
        fill: #fff;
      }
    </style>
  </defs>
  <path id="字体名称" class="cls-1" d="M342.57,239.9l1.934,5.909H526.477l2.685-4.405a158.295,158.295,0,0,0-17.617-17.832L498.117,239.9H342.57Zm237.94-61.66a68.627,68.627,0,0,1,5.908,27.285q0,8.379,5.049,8.379,6.015,0,6.015-8.379,0-14.285-13.212-29.433Zm-13.535-27.07v87.119H578.9v-9.238h21.7v21.807H560.529L563,256.332h37.6v21.377q-26.966,3.222-45.547,4.834,3.006,17.834,7.519,17.832,2.362,0,4.4-7.734,46.19-7.2,87.119-17.4l-1.289-5.263q-21.7,4.083-40.284,6.123V256.332h36.524l2.471-4.4-2.256-2.364A75.532,75.532,0,0,0,638.3,239.145l-9.883,11.709h-15.9V229.047h22.344v5.478h11.387V168.139l5.908-3.76q1.611-.967,1.611-1.934,0-3.222-12.568-13.427l-7.949,9.882H580.832q-7.629-4.617-13.857-7.734h0Zm33.837,13.213v59.189H578.9V164.379h21.914Zm11.709,59.189V164.379h22.344v12.568q-3.117-1.826-12.783-4.189A261.124,261.124,0,0,1,614.67,213.9l4.4,1.289a243.088,243.088,0,0,0,12.461-32.119,15,15,0,0,0,3.33-.859v41.357H612.521Zm49.629,27.715v93.242h12.569V330.668h58.974v13.857h12.139V268.471l5.908-3.975a3.055,3.055,0,0,0,1.826-2.578q0-3.222-13.32-14.18L731.438,258.8h-25.03V207.67h46.836l2.686-4.19a168.465,168.465,0,0,0-13.643-16.22l-10.849,14.931h-25.03V162.123q10.313-3.651,10.313-6.338,0-4.725-22.666-5.693V258.8H677.082q-10.851-5.8-14.932-7.52h0Zm71.543,13v60.908H674.719V264.281h58.974Zm-105.166,28.36q10.2,10.206,12.569,22.021,0.966,5.7,5.693,5.693,7.091,0,7.09-7.519,0-12.569-22.344-23.525Zm-38.134,7.3a94.761,94.761,0,0,1,2.47,19.981,52.726,52.726,0,0,1-1.074,10.957,24.35,24.35,0,0,0-.644,3.974q0,4.834,5.693,4.834,8.592,0,8.594-13t-10.42-27.607Zm-29.649,31.69q-3.222,3.006-3.223,6.123,0,7.089,8.057,7.09,4.727,0,9.024-6.338,6.228-8.809,6.23-24.492,0-4.726-.752-12.354l-5.049-1.289q-2.364,21.164-14.287,31.26h0Zm46.836-33.946q9.559,14.932,9.883,28.9,0.322,6.123,5.264,6.123,7.734,0,7.734-8.379,0-15.574-19.551-29.434Zm234.18,4.834h12.353V178.236l4.619-3.545q1.933-1.611,1.934-2.9,0-2.9-12.461-12.461l-8.164,10.313H803.088a146.125,146.125,0,0,0-15.039-7.52V310.9h12.783V287.807H841.76v14.716Zm105.6-133.1V317.24q0,7.09-6.767,7.09-16.33,0-34.59-1.719v6.123q19.336,2.363,25.566,4.942,5.372,2.148,6.124,8.271,22.88,0,22.88-18.261v-150.5l5.049-4.19a4.1,4.1,0,0,0,1.719-2.9q0-2.685-13.106-12.891l-8.808,10.742H894.289q-8.056-4.512-14.932-7.519v90.449q0,33.3-8.486,54.248-9.024,21.913-31.8,39.316l3.975,4.405q22.986-12.891,34.7-31.368t14.395-47.05h51.132l2.041-3.653a101.251,101.251,0,0,0-10.742-12.246l-7.842,10.42H892.355q0.429-9.237.43-14.072V216.264h50.488l2.041-3.653a105.629,105.629,0,0,0-10.742-12.353l-7.842,10.527H892.785V169.428h54.57Zm-146.523,112.9V230.336H841.76v51.992H800.832Zm0-57.471V175.121H841.76v49.736H800.832Zm212.908-70.9v63.486h-6.34q-0.315-2.361-1.07-5.693l-5.16-.645q-0.315,18.692-8.053,27.5-2.686,2.9-2.685,5.694,0,6.123,7.3,6.123,10.746,0,10.744-21.162,0-3.867-.22-6.338h65.1a94.389,94.389,0,0,1-4.19,12.783,6.157,6.157,0,0,1-1.29-1.074,29.52,29.52,0,0,0-2.25-2.041l-7.2,8.594h-32.01a84.412,84.412,0,0,0-13.75-6.553V344.525h11.71v-47.48h34.91V321q0,6.446-6.45,6.445a100.8,100.8,0,0,1-17.94-1.611V331.1a56.774,56.774,0,0,1,12.89,3.545q4.515,2.255,4.84,8.164,9.555,0,13.86-3.975,4.185-3.544,4.19-12.568v-76.7l4.61-3.115a2.658,2.658,0,0,0,1.51-2.148q0-1.18-3.65-4.834a128.408,128.408,0,0,0,9.66-13.643l6.34-1.826a1.653,1.653,0,0,0,1.51-1.719q0-3.114-10.96-13.427l-6.34,8.593h-3.33V169l5.26-3.33a2.113,2.113,0,0,0,1.08-1.719q0-3.006-10.96-12.353l-7.62,9.238h-31.05q-6.66-3.867-13-6.875h0Zm45.33,12.353V184.9h-10.42q-9.765-5.262-12.24-6.445v38.994h-11.5V166.312h34.16Zm-11.92,51.133v-27.07h11.92v27.07h-11.92Zm12.14,29.219v18.477h-34.91V246.664h34.91Zm-34.91,44.9V270.619h34.91v20.947h-34.91Zm72.61-36.308v46.621h11.39v-8.594h59.41v7.3h11.38v-30.4l4.41-3.33q1.71-1.393,1.71-2.578,0-2.9-12.03-11.064l-7.19,8.164H1110.1a83.746,83.746,0,0,0-13.11-6.123h0Zm70.8,11.6v20.948h-59.41V266.859h59.41Zm-11.93-108.388q8.16-3.006,8.17-5.8,0-4.081-18.91-5.049v22.022h-15.25V158.471q8.16-3.006,8.16-5.8,0-4.189-18.91-4.834v21.807h-13.21q-4.83-2.9-13-6.768v67.246h11.17v-8.594h67.89v6.661h11.18V178.451l5.26-3.33a2.6,2.6,0,0,0,1.29-1.933q0-3.115-11.82-12.354l-6.98,8.809h-15.04V158.471Zm16.11,57.578h-16.11V198h16.11v18.047Zm-16.11-23.526v-17.4h16.11v17.4h-16.11Zm-10.74,0h-15.25v-17.4h15.25v17.4Zm-26,0h-15.04v-17.4h15.04v17.4ZM1104.08,198h15.04v18.047h-15.04V198Zm25.79,0h15.25v18.047h-15.25V198Zm-52.1,134.062,2.47,5.479h115.05l2.57-4.4a97.851,97.851,0,0,0-12.46-14.287l-10.2,13.212h-22.88a121.709,121.709,0,0,0,12.56-19.335q7.95,0,7.95-2.9,0-3.972-18.26-9.668-4.41,21.915-8.59,31.9h-68.21Zm30.4-27.929a38.408,38.408,0,0,1,9.23,22.021c0.22,3.366,1.97,5.049,5.27,5.049q7.725,0,7.73-7.519,0-13.105-19.44-22.666ZM1080.88,239.9l2.15,5.479h110.64l2.69-4.189a91.779,91.779,0,0,0-13.43-11.172l-10.1,9.882h-91.95Z"/>
  <path id="中文示例" class="cls-2" d="M291.068,770.023h5.616V713.529l2.1-1.611a1.947,1.947,0,0,0,.879-1.318q0-1.318-5.664-5.664l-3.711,4.687h-16.8a66.267,66.267,0,0,0-6.836-3.418v67.627h5.811v-10.5h18.6v6.689Zm48-60.5v67.188q0,3.222-3.076,3.223-7.422,0-15.722-.782v2.784q8.789,1.073,11.621,2.246a4.3,4.3,0,0,1,2.783,3.759q10.4,0,10.4-8.3V711.234l2.3-1.9a1.858,1.858,0,0,0,.781-1.318q0-1.221-5.957-5.86l-4,4.883H314.945q-3.661-2.05-6.787-3.418V744.73q0,15.138-3.857,24.659-4.1,9.96-14.453,17.871l1.806,2Q302.1,783.4,307.426,775t6.543-21.387h23.242l0.928-1.66a46.03,46.03,0,0,0-4.883-5.566l-3.565,4.736H314.066q0.2-4.2.2-6.4V730.814h22.949l0.928-1.66a48.051,48.051,0,0,0-4.883-5.615l-3.565,4.785H314.262v-18.8h24.8Zm-66.6,51.319V737.211h18.6v23.633h-18.6Zm0-26.123V712.113h18.6v22.608h-18.6Zm114.5-24.17h41.992V775.3q0,3.613-4.1,3.613a158.251,158.251,0,0,1-17.285-.976v2.88q9.765,1.466,12.11,2.3,4.051,1.366,4.2,4.3,11.084,0,11.084-8.594V712.553l2.685-1.709a1.606,1.606,0,0,0,.928-1.27q0-1.464-6.494-6.64l-4,5.127H387.943a69.951,69.951,0,0,0-7.08-3.223v39.307q0,29.639-16.992,42.871l1.807,2.2a43.589,43.589,0,0,0,14.111-13.477q5.468-8.69,6.787-22.119h36.768l1.123-2a59.926,59.926,0,0,0-5.908-6.787l-4.688,6.3h-27.1q0.195-4.395.2-6.982V731.352h36.377l1.123-2a59.069,59.069,0,0,0-5.908-6.788l-4.688,6.3h-26.9v-18.31Zm92.676,7.08q4.1-1.366,4.1-2.686,0-2.148-9.814-2.636v33.837h5.713v-7.128h23.291v38.33H474.955V758.842q3.809-1.366,3.809-2.686,0-2.343-9.717-2.49v33.789h5.908v-7.617h62.793v7.617h5.908v-29.2q3.906-1.366,3.906-2.588,0-2.49-9.814-2.93v24.61H508.939v-38.33h23.877v6.543h5.713V716.947q3.808-1.414,3.809-2.734,0-2.344-9.522-2.783v25.1H508.939V705.619q4.2-1.512,4.2-2.881,0-2.588-10.2-2.734v36.523H479.643v-18.9Zm166.5,67.383a19.928,19.928,0,0,1,5.372-6.006q-29.444-11.231-41.309-38.379h37.158l1.172-2.1a72.448,72.448,0,0,0-7.471-7.373l-5.615,6.983H609.135q0.194-3.614.2-5.713V713.139h34.961l1.221-2.1a72.51,72.51,0,0,0-7.91-7.568l-5.909,7.177H567.777l1.075,2.491h34.277v19.384q0,1.026-.2,5.616H564.9l1.124,2.49h36.621q-3.908,32.226-39.5,43.506l1.416,2.392q38.427-9.276,43.994-42.675,9.765,27.294,37.6,41.162h0Zm30.323-58.252q4.1-1.513,4.1-2.832,0-2.148-9.912-2.588v66.6h5.811V777.934h59.863v9.082h5.908V726.225q4-1.318,4-2.686,0-2.05-9.912-2.783v54.687H709.086V708.451q4.2-1.659,4.2-2.93,0-2.1-10.107-2.392v72.314H676.469V726.762ZM808.7,756.156q0,19.678-13.916,30.908l1.709,1.807q15.284-9.717,17.481-27.344h42.48v2.735h5.518V746.146l2.295-1.708a1.183,1.183,0,0,0,.586-0.879q0-1.074-5.713-5.127l-3.321,3.418H814.8a40.319,40.319,0,0,0-4.395-1.709,104.309,104.309,0,0,0,25.244-19.58q15.967,14.747,39.893,22.607a19.861,19.861,0,0,1,4-6.1,120.941,120.941,0,0,1-41.895-18.212q3.808-.44,3.809-1.514,0-1.855-8.4-3.809-15.381,21.24-42.286,32.227l1.319,2.1a118.3,118.3,0,0,0,16.6-6.787v15.088Zm5.616-.1v-3.223h42.138v6.2H814.213q0.1-.977.1-2.978h0Zm0-11.719h42.138v6.006H814.311V744.34Zm46.142,40.576v4.2h5.615v-16.26l2.1-1.416a1.314,1.314,0,0,0,.781-0.976q0-1.269-5.713-5.029l-3.418,3.515H821.1a44.656,44.656,0,0,0-6.3-2.685v22.851h5.615v-4.2h40.039Zm-40.039-13.477h40.039v10.987H820.414V771.439Zm29.736-50.878h5.616v-8.643h22.8l0.977-2.1a53.5,53.5,0,0,0-6.3-6.494l-4.785,6.1h-12.7v-5.176q3.906-1.513,3.906-2.832,0-2.2-9.522-2.2v10.205h-12.4l0.977,2.49H850.15v8.643Zm-35.791,0h5.616v-8.643h14.7l0.976-2.1a82.987,82.987,0,0,0-6.3-6.1l-4.395,5.713h-4.98v-5.42q4-1.319,4-2.686,0-2.05-9.62-2.2v10.3H791.85l0.976,2.49h21.533v8.643Zm32.813,15.087,1.172-1.9a47.578,47.578,0,0,0-5.567-4.394l-4.1,3.808H822.465l1.074,2.49h23.633Zm131.25,6.885,1.221-1.9a55.2,55.2,0,0,0-6.3-6.787l-4.59,6.2H953.129V729.838q4.1-1.514,4.1-2.783,0-2.245-9.716-2.393v15.381H935.551q-3.272-1.709-6.983-3.223v40.43q0,4.932,2.491,6.592,2.148,1.512,18.115,1.513,18.311,0,24.463-.488,5.42-.439,5.42-2.2,0-3.808-3.516-3.809-1.172,0-2.3.1-11.378,1.074-23.584,1.074-12.3,0-13.672-.683-1.611-.734-1.611-3.223V742.533h44.043Zm-86.67-30.713,0.977,2.491h22.119v9.521h5.713v-9.521h15.185l1.025-1.905a58.184,58.184,0,0,0-6.689-6.4l-4.541,5.81h-4.98v-7.226q4.1-1.367,4.1-2.588,0-2.2-9.814-2.2V711.82h-23.1Zm57.373,10.01h5.713v-7.519H978.52l1.123-1.905a54.673,54.673,0,0,0-7.227-6.787l-4.785,6.2H954.838v-7.08q4-1.416,4-2.636,0-2.3-9.717-2.3V711.82H939.018l1.025,2.491h9.082v7.519Zm-41.26,25.586q0-6.2-13.818-10.059l-0.879,1.9q6.591,4.346,8.3,8.789,1.024,2.979,3.076,2.978,3.32,0,3.32-3.613h0Zm6.983-13.916q0-6.249-13.282-9.961l-1.318,1.807q6.493,4.248,8.2,9.082,1.026,2.685,2.979,2.685,3.417,0,3.418-3.613h0Zm-3.907,49.609a44.509,44.509,0,0,0-1.318-10.058,21.046,21.046,0,0,1-.586-4.59,10.565,10.565,0,0,1,1.221-5.127l17.871-33.4-2.3-1.709q-11.572,20.606-20.264,31.689-3.222,4.1-6.933,4.1a28.861,28.861,0,0,1-3.467-.293v2.49a15.667,15.667,0,0,1,6.3,1.9q2.88,2.149,2.881,7.52a24.408,24.408,0,0,1-.293,3.808q-0.782,5.664-.782,5.86,0,3.417,3.467,3.418,4.2,0,4.2-5.616h0Zm127-75.1h29.5l1.22-2a58.971,58.971,0,0,0-7.23-6.592l-5.18,6.1h-53.8l1.07,2.491h28.71v9.033h-30.52c-0.03-.26-0.09-0.635-0.19-1.123-0.17-.911-0.26-1.432-0.3-1.563l-2.388-.439q-0.587,9.327-6.2,15.234-2.1,2.247-2.1,3.662,0,3.321,3.614,3.321,2.49,0,4.394-3.076,3.376-4.883,3.371-12.745v-0.781h30.32v26.416h5.71V719.535h32.33a50.445,50.445,0,0,1-2.35,8.008l2.1,1.172a64.54,64.54,0,0,0,6.45-6.494l3.37-.782a0.943,0.943,0,0,0,1.02-.878q0-1.806-7.32-8.545l-4.3,5.029h-31.3v-9.033Zm-31.1,71.045c-2.47.065-6.14,0.1-10.986,0.1q1.659,9.522,3.955,9.522c0.751,0,1.411-1.107,2-3.321q33.885-2,59.62-5.175l1.51-.147a52.263,52.263,0,0,1,6.11,6.738q2.1,2.882,3.46,2.881,3.42,0,3.42-3.808,0-3.369-5.22-7.715-7.425-6.054-22.07-11.377l-1.42,1.9a76.67,76.67,0,0,1,12.79,8.692q-22.17,1.367-37.4,1.513c-0.98.066-2.44,0.1-4.39,0.1a135.186,135.186,0,0,0,11.72-13.33l0.58-.781h47.51l1.22-1.9c-1.63-1.757-3.43-3.515-5.42-5.273l-2-1.611-5.62,6.3H992.24l1.172,2.491h28.518a88.932,88.932,0,0,1-7.62,14.209h-7.47Zm-2.83-50.733,1.22,2.49h21.39l1.12-1.709q-2.205-2.636-3.22-3.662l-1.57-1.611-3.81,4.492h-15.13Zm38.23,0,1.27,2.49h21.44l1.07-1.9a67.1,67.1,0,0,0-4.98-4.785l-3.91,4.2h-14.89Zm-39.11,10.5,1.22,2.49h22.27l1.22-1.708a46.592,46.592,0,0,0-5.23-5.176l-3.56,4.394h-15.92Zm39.11,0,1.17,2.49h22.51l1.12-1.708a49.788,49.788,0,0,0-5.32-5.469l-3.81,4.687h-15.67Zm-40.43,11.035,1.42,2.491h65.08l1.13-1.9a45.72,45.72,0,0,0-6.79-5.566l-4.93,4.98h-55.91Zm137.7-15.918q5.805,4.4,7.12,9.571a2.714,2.714,0,0,0,2.79,2.392q3.225,0,3.22-3.32,0-5.664-12.01-10.449Zm-0.98,20.9q5.76,5.03,7.08,10.3,0.78,2.587,3.03,2.588c1.98,0,2.98-1.172,2.98-3.516q0-6.1-12.02-11.084Zm-17.24,24.512,5.72,1.074q0.87-4.932,1.17-7.471h32.66a32.522,32.522,0,0,1-.83,5.518c-0.48,1.79-2.02,2.685-4.59,2.685a91.307,91.307,0,0,1-11.62-1.123v2.783a59.485,59.485,0,0,1,8.89,2.2,4.064,4.064,0,0,1,2.64,3.808,13.1,13.1,0,0,0,7.08-1.9q3.315-2.393,4.2-13.965h13.23l1.17-2a41.948,41.948,0,0,0-5.76-6.982l-4.3,6.494h-4.1q0.585-6.738.59-14.307,0-3.709.09-5.322h13.09l0.93-1.9a62.678,62.678,0,0,0-5.62-7.373l-4.3,6.787h-4.1c0-2.8.04-4.639,0.1-5.518V731.84l2.69-1.807a1.2,1.2,0,0,0,.73-1.074q0-1.513-6.01-6.006l-3.51,4.492H1133.5a32.575,32.575,0,0,0-6.1-2.881q-0.585,12.012-1.81,23.78h-12.3l0.92,2.49h11.18q-1.41,13.722-4.1,28.516h0Zm40.53-28.516q-0.15,11.718-.78,19.629h-32.42q1.605-12.06,2.29-19.629h30.91Zm-29.88-11.377c0.29-3.776.49-6.184,0.58-7.227a17.88,17.88,0,0,1,.1-2.294h29.4q0,9.815-.1,12.3l-0.1,6.1h-30.61q0.285-3.711.73-8.887h0Zm46.19-24.121,1.07-1.9a42.612,42.612,0,0,0-6.98-7.178l-4.78,6.592h-35.21q2.34-5.811,3.17-8.2,4.11-.927,4.11-2.2,0-2.051-9.09-3.711-4.98,21.534-15.47,36.28l1.9,1.611a81.291,81.291,0,0,0,13.77-20.166l0.49-1.123h47.02Zm-62.11,1.221q-7.575,24.414-14.8,39.6c-1.53,3.321-3.59,4.981-6.2,4.981a30.807,30.807,0,0,1-4.1-.391v2.588q3.96,0.587,5.62,2.1,2.1,2.1,2.1,7.275a58.178,58.178,0,0,1-.74,8.5c-0.09.879-.21,1.79-0.34,2.734-0.1.782-.14,1.2-0.14,1.27q0,3.614,3.22,3.613,4.785,0,4.78-6.494a47.852,47.852,0,0,0-1.51-9.277,24.986,24.986,0,0,1-.49-3.516,23.349,23.349,0,0,1,1.32-6.2,6.133,6.133,0,0,0,.29-0.879l13.38-44.238Zm-19.39-13.623q6.36,4.3,8.21,9.814,1.02,2.979,2.88,2.979,3.615,0,3.61-3.907,0-6.542-13.52-10.888Zm-5.9,21.484q6.15,4.688,7.22,9.619,0.885,3.613,3.27,3.613c2.22,0,3.32-1.236,3.32-3.711q0-6.981-12.69-11.279Zm149.31-23.145v33.643h5.62v-4.687h23.83v47.509c0,1.986-1.31,2.979-3.91,2.979a86.812,86.812,0,0,1-10.89-.684v2.588a54.069,54.069,0,0,1,7.57,1.611,4.544,4.544,0,0,1,3.22,4.3q10.02,0.147,10.01-7.08v-72.9l2-1.514a1.707,1.707,0,0,0,.79-1.172q0-1.367-6.01-6.006l-3.56,4.395h-21.98q-2.88-1.466-6.69-2.979h0Zm29.45,5.469v8.789h-23.83v-8.789h23.83Zm-23.83,21v-9.717h23.83v9.717h-23.83Zm-28.57,12.012v40.186h5.62v-6.983h22.95v5.371h5.61v-31.3l2.3-1.513a1.392,1.392,0,0,0,.78-1.172q0-1.416-6.1-6.006l-3.37,4.1h-21.49Zm28.57,5.176v11.035h-22.95V744.926h22.95Zm-22.95,25.537V758.451h22.95v12.012h-22.95Zm-27.54-69.629v88.281h6.01V730.229h22.6v5.322h5.62V707.914l1.9-1.172a1.422,1.422,0,0,0,.78-1.221q0-1.317-5.37-5.664l-3.61,4.395h-20.61q-3.75-1.953-7.32-3.418h0Zm28.61,5.908v8.789h-22.6v-8.789h22.6Zm-22.6,11.279h22.6v9.717h-22.6v-9.717ZM350.59,923.441l1.123-1.806a53.682,53.682,0,0,0-7.422-7.276l-5.469,6.592H287.406V909.623h48l1.123-1.9a52.616,52.616,0,0,0-7.226-6.4l-5.274,5.811H287.406v-10.6h48l1.123-1.9a71.452,71.452,0,0,0-7.422-6.4l-5.419,5.811h-36.28V883.842h53.321l1.074-1.807a75.144,75.144,0,0,0-7.52-6.982l-5.273,6.3H288.383a64.13,64.13,0,0,0-7.08-3.418v43.017H261.625l0.879,2.49h18.8v29l-1.221.2q-5.811,1.074-15.283,2.1,2.588,9.18,4.687,9.18,1.221,0,1.807-3.858a314.744,314.744,0,0,0,41.7-11.425l-0.683-2.588q-10.94,2.735-24.9,5.273V923.441h16.211a73.7,73.7,0,0,0,8.2,16.114q11.231,15.625,35.5,22.8a20.014,20.014,0,0,1,4.786-6.1q-19.776-4.4-30.811-13.623a103,103,0,0,0,14.99-10.2q2.344,0.2,2.442.195,2.391,0,2.392-1.074,0-1.9-7.324-6.2a89.538,89.538,0,0,1-14.7,15.283q-6.642-6.054-12.012-17.188H350.59Zm42.529-13.525a56.047,56.047,0,0,0-6.592-2.978v30.81h5.616v-6.494h10.3v19.482q-9.423.587-23.681,1.123,1.758,8.983,3.857,8.985,0.976,0,1.709-3.174,26.367-2.978,40.43-5.908a28.468,28.468,0,0,1,2.49,6.3q0.732,2.783,3.027,2.783,3.369,0,3.369-3.809,0-8.593-16.113-19.287l-1.562,1.709a52.085,52.085,0,0,1,7.275,9.473l-2.392.341q-9.621.978-12.793,1.075V931.254h10.888v4.59h5.615V914.066l2.2-1.318a1.239,1.239,0,0,0,.683-1.025q0-1.513-5.713-5.909l-3.564,4.1H408.061V896.488H426.42l1.074-1.9a67.7,67.7,0,0,0-6.982-7.178L415.189,894H383.256l0.976,2.49h18.213v13.428h-9.326Zm38.526-27V893.8q0,52.636,12.793,65.918,2.93,2.88,5.029,2.881,3.222,0,4.3-4.3-2.834-1.318-2.832-10.6,0-2.685.537-11.719l0.195-3.174-2.637-1.416q-1.758,18.9-3.369,18.9-1.221,0-3.613-8.106-4.493-14.99-4.492-48.291v-9.179l2.49-1.416a1.754,1.754,0,0,0,1.123-1.367q0-1.416-6.3-6.2l-4,4.688H379.74q-4.3-1.9-6.689-2.881v23.779q0,41.8-12.891,61.28l2.2,1.611q16.7-18.213,16.7-62.793V882.914h52.588Zm-12.7,29.541v16.26H408.061v-16.26h10.888Zm-16.5,16.26h-10.3v-16.26h10.3v16.26Zm62.207-17.09q1.367,7.909,3.418,7.91,0.977,0,1.905-2.978,9.325-1.173,21.972-3.711l1.416-.293a11.752,11.752,0,0,1,.782,2.881q0.44,3.417,2.734,3.418,3.077,0,3.076-3.418,0-6.933-10.693-11.914l-1.27,1.513a23.493,23.493,0,0,1,4.2,5.127q-5.224.44-11.621,0.879l-2.392.2a119.376,119.376,0,0,0,14.99-16.8q4.395,0,4.394-1.417,0-1.9-6.884-5.468a125.4,125.4,0,0,1-16.211,23.779q-2.832.147-9.815,0.293h0Zm47.315-1.367q1.952,7.617,3.515,7.617,0.927,0,1.709-3.32a248.66,248.66,0,0,0,24.463-4.493,14.727,14.727,0,0,1,.733,2.588q0.732,3.126,2.685,3.125,3.174,0,3.174-3.515,0-6.3-10.4-11.621l-1.27,1.611a21.443,21.443,0,0,1,4.3,5.713q-8.838,1.024-16.406,1.611a106.662,106.662,0,0,0,16.308-16.211,13.174,13.174,0,0,0,1.807.1q2.393,0,2.393-1.221,0-2.148-7.325-5.566a114.218,114.218,0,0,1-16.992,23.193Zm-44.678-23.633-1.123,1.9a25.413,25.413,0,0,1,8.887,10.889q1.072,2.1,2.685,2.1,3.027,0,3.028-3.614,0-2.929-3.614-6.054a49.42,49.42,0,0,0,8.3-9.815q4.1-.145,4.1-1.416,0-1.806-7.764-5.273a76.951,76.951,0,0,1-6.641,14.99,38.085,38.085,0,0,0-7.861-3.711h0Zm46.191-1.367-1.22,1.66q6.689,5.226,8.2,10.742,0.78,3.176,2.881,3.174,3.222,0,3.222-3.516,0-2.88-3.32-6.2a51.882,51.882,0,0,0,8.106-9.179q4.1,0,4.1-1.319,0-1.9-8.3-5.078a82.005,82.005,0,0,1-5.761,13.916,38.026,38.026,0,0,0-7.911-4.2h0Zm12.842,30.273a10.247,10.247,0,0,1,4.346,6.2q0.44,2.492,2.539,2.491,3.272,0,3.272-3.223,0-4.053-9.278-7.08Zm-46.386,9.619Q475.052,923,473,922.172v9.57q0,18.458-10.645,31.006l1.612,1.9q12.4-10.3,14.355-27,11.23,5.177,15.674,11.914,1.856,2.834,3.809,2.832,2.391,0,2.392-2.783a6.1,6.1,0,0,0-1.806-3.711q-5.86-6.786-19.873-11.084,0.1-1.171.1-2.88v-4.3h27.637a56.85,56.85,0,0,0,10.01,19.482,72.777,72.777,0,0,1-26.319,15.43l1.221,2.392q17.236-4.736,28.906-14.306a53.971,53.971,0,0,0,10.01,7.519q8.837,5.077,15.283,5.078,4.736,0,5.811-4.394-3.711-.44-3.711-5.518a90.733,90.733,0,0,1,1.514-12.3l-2.588-1.172q-2.686,15.674-6.787,15.673-1.466,0-5.909-2.294a47.77,47.77,0,0,1-9.424-6.592,70.9,70.9,0,0,0,10.108-10.694,18.63,18.63,0,0,0,2.2.1q2.393,0,2.393-1.123,0-1.856-7.178-5.762a73.7,73.7,0,0,1-11.23,14.16,44.674,44.674,0,0,1-8.692-15.966h38.623l0.977-1.9a42.1,42.1,0,0,0-6.494-6.4l-4.883,5.81H511.186q-4-14.648-4-41.7V879.74q4.2-1.464,4.2-2.783,0-2.393-10.01-2.686v8.692q0,26.611,4.2,42.187H479.936Zm97.607-31.25v31.3h5.615v-3.076h20.069v8.691H574.955v-0.39q3.271-1.171,3.272-2.2,0-1.806-8.985-2v4.589h-6.689l1.123,2.491h5.566v30.81h5.713v-30.81h28.272v11.621q-10.792,1.024-22.364,1.513,2.1,8.693,4.1,8.692,1.171,0,1.9-3.711,18.7-2.392,36.572-6.2a18.99,18.99,0,0,1,2.393,4.3q1.318,2.93,3.027,2.929,2.978,0,2.979-3.418,0-7.079-15.381-14.111l-1.318,1.709a36.3,36.3,0,0,1,6.494,6.2q-6.056.879-12.7,1.514V933.305H637.65v19.14q0,3.369-4.394,3.369a125.39,125.39,0,0,1-13.33-.683v2.588q8.3,1.122,10.644,2,3.076,1.024,3.076,3.808a16.614,16.614,0,0,0,6.4-1.22q3.319-1.612,3.32-6.788V935.307l2.491-1.612a1.388,1.388,0,0,0,.83-1.172q0-1.414-5.909-6.1l-3.808,4.394H608.939v-8.691H629.35v3.32h5.615V901.322l2.2-1.318a1.525,1.525,0,0,0,.977-1.27q0-1.318-5.86-6l-3.711,4.3H584.281q-2.589-1.366-6.738-3.125h0Zm9.18,0.049h5.615v-7.812h13.281l1.026-2.1a83.016,83.016,0,0,0-6.3-6.1l-4.395,5.712h-3.613v-4.3q4.3-1.318,4.3-2.588,0-2.148-9.912-2.295v9.179H562.846l0.976,2.491h22.9v7.812Zm33.007,0h5.616v-7.812h24.218l0.977-2.1a53.426,53.426,0,0,0-6.3-6.494l-4.785,6.1H625.346v-4.589q3.514-1.367,3.515-2.393,0-2.1-9.131-2.1v9.082H608.744l0.977,2.491H619.73v7.812Zm-10.791,25.684v-9.082H629.35v9.082H608.939Zm-5.712,0H583.158v-9.082h20.069v9.082Zm5.712-11.572v-8.545H629.35v8.545H608.939Zm-5.712-8.545v8.545H583.158v-8.545h20.069Zm147.216,33.2,1.026-1.807a57.549,57.549,0,0,0-5.615-4.785,14.142,14.142,0,0,0-1.172-.879l-5.03,4.981H708.646v-6.5h34.62l0.976-1.9a40.816,40.816,0,0,0-6.1-5.176l-4.493,4.59h-25V914.6h23.1v2.539h5.42V897.514L739.457,896a1.578,1.578,0,0,0,.928-1.172q0-1.319-5.957-5.42l-3.272,3.711H681.645q-1.466-.537-3.809-1.416-2.2-.83-2.881-1.074v26.9h5.518V914.6h22.558v6.64H668.656l1.319,2.49h33.056v6.5h-41.26l1.172,2.49h35.5q-14.454,9.52-37.89,14.5l1.318,2.295a141.167,141.167,0,0,0,25.586-6.5v12.208q-4.1.487-16.7,1.367,1.952,8.739,4,8.74,1.072,0,2-3.516a343.89,343.89,0,0,0,41.552-8.3l-0.488-2.588q-9.425,1.806-24.658,3.662V940.727a72.094,72.094,0,0,0,14.16-8.008h0.488q10.4,22.265,39.844,30.176a23.332,23.332,0,0,1,4.883-5.86,76.586,76.586,0,0,1-26.318-9.717,83.15,83.15,0,0,0,12.841-7.91q4,0,4-1.074,0-1.806-7.324-5.225a68.813,68.813,0,0,1-11.816,12.7,43.979,43.979,0,0,1-12.891-13.086h39.4Zm-47.412-37.11v6.836H680.473v-6.836h22.558Zm5.615,16.5v-7.177h23.1v7.177h-23.1Zm0-9.668v-6.836h23.1v6.836h-23.1Zm-5.615,9.668H680.473v-7.177h22.558v7.177Zm-39.746-27.3,0.977,2.491h84.131l1.074-1.954a65.227,65.227,0,0,0-6.592-6.738l-5.078,6.2H708.988v-5.81q4.3-1.319,4.3-2.588,0-2.148-9.912-2.295v10.693H663.285Zm205.371,11.133a88.2,88.2,0,0,1-8.008,20.606l2.295,1.513a121.138,121.138,0,0,0,11.719-19.726l3.076-1.172a1.34,1.34,0,0,0,1.026-1.123q0-1.708-6.592-7.666l-3.809,5.078H836.674q1.758-6.543,3.174-13.379,4-1.22,4-2.441,0-1.9-9.913-3.565-2.979,27.3-13.183,46.094l2.3,1.367a83.758,83.758,0,0,0,12.4-24.463c0.065-.195.147-0.406,0.244-0.635a3.144,3.144,0,0,1,.147-0.488h8.1v3.32q0,43.214-31.006,62.7l1.514,2.2q29.784-15.282,34.57-50.732,3.76,31.006,26.514,48.828a21.463,21.463,0,0,1,5.225-5.615Q850.1,937.5,849.955,897.66v-1.709h18.7ZM794.73,885.844V948.93h5.616V937.943H813.92v7.08h5.518v-51.66l2.1-1.611a1.947,1.947,0,0,0,.879-1.318q0-1.173-5.664-6.006l-3.613,4.931H801.225a72.831,72.831,0,0,0-6.5-3.515h0Zm19.19,6.006v43.6H800.346v-43.6H813.92Zm91.846-1.123h71.386l1.221-1.9a56.552,56.552,0,0,0-6.885-7.08l-4.834,6.494h-26.66v-8.691q4.1-1.514,4.1-2.686,0-2.293-9.815-2.441v13.818H906.889a51.749,51.749,0,0,0-7.129-2.881v25.782q0,33.545-10.4,51.806l2.295,1.514q14.111-17.871,14.112-53.32v-5.225h18.8V925.15h5.713v-4.834H950.15v4.444h5.616V905.912h21.923l1.075-1.807a69.779,69.779,0,0,0-6.494-7.08l-4.883,6.4H955.766v-5.078q3.906-1.367,3.906-2.735,0-1.952-9.522-2.392v10.205H930.277v-5.078q3.808-1.367,3.809-2.637,0-2.05-9.522-2.49v10.205h-18.8v-12.7Zm24.511,15.185H950.15v11.914H930.277V905.912Zm7.178,42.92q-13.623,8.546-35.6,13.184l1.416,2.3q22.753-3.029,39.063-12.305,11.766,6.69,32.226,10.937a17.576,17.576,0,0,1,4.688-5.908q-19.921-2.685-32.471-8.3a89.059,89.059,0,0,0,16.455-14.111l2.832-.977a1.485,1.485,0,0,0,1.172-1.123q0-1.464-6.689-6.689l-3.711,4.2H910.551l1.22,2.49h8.5q8.788,10.645,17.187,16.309h0Zm19.287-16.309a69.327,69.327,0,0,1-15.088,13.623,84.735,84.735,0,0,1-17.48-13.623h32.568Zm112.308-11.718,1.07-1.9a60.179,60.179,0,0,0-7.08-7.275l-5.42,6.689h-19.68v-29h36.28l1.13-2a68.792,68.792,0,0,0-7.33-7.715l-5.56,7.226h-66.7l1.074,2.491h34.81v29h-30.71l1.03,2.491h29.68v34.326h-39.6l1.318,2.49h85.4l1.08-2a63.52,63.52,0,0,0-7.28-8.105l-5.71,7.617h-28.91V920.805h31.11Zm-23.1,8.838q7.965,6.933,10.69,15.234,0.885,2.783,3.37,2.783c2.48,0,3.71-1.4,3.71-4.2q0-8.056-16.35-15.723Zm56.01-49.9c-2.61-1.236-4.51-2.1-5.72-2.588v86.28h6.01v-51.9h21.09v6.592h5.81V884.232l2.1-1.416a1.4,1.4,0,0,0,.79-1.171q0-1.466-5.67-5.811l-3.61,4.3h-20.12Zm21.38,2.881v11.231h-21.09V882.621h21.09Zm-21.09,13.721h21.09v12.7h-21.09v-12.7Zm37.89-18.7v39.8h5.81v-5.909h22.17v39.991q0,3.124-3.52,3.125a129.345,129.345,0,0,1-16.06-1.026v2.735q9.27,1.317,12.5,2.685a4.013,4.013,0,0,1,2.59,3.809q10.5-.147,10.49-7.715V884.525l2.3-1.513a1.343,1.343,0,0,0,.78-1.074q0-1.416-6.05-6.3l-3.81,4.492h-20.71c-1.75-.749-3.92-1.579-6.49-2.49h0Zm27.98,4.98v11.231h-22.17V882.621h22.17Zm-22.17,26.416v-12.7h22.17v12.7h-22.17Zm94.19-33.887v27.393h5.18v-2.734h24.7v53.125q0,3.125-3.81,3.125a106.979,106.979,0,0,1-10.79-.635v2.734a35.923,35.923,0,0,1,7.62,1.367,3.914,3.914,0,0,1,2.78,4q9.825-.145,9.82-7.91v-73l2.2-1.514a1.317,1.317,0,0,0,.78-1.171q0-1.416-6.01-5.909l-3.47,4.1h-22.6q-1.86-.977-6.4-2.979h0Zm29.88,5.469v6.641h-24.7v-6.641h24.7Zm-24.7,16.7V889.75h24.7v7.568h-24.7Zm-34.82,64.356,1.12,2.1q19.155-2.734,19.15-17.919v-8.887c2.14-.911,3.22-1.709,3.22-2.393q0-1.856-8.64-2.295v13.477h-9.77v-7.08q3.42-1.367,3.42-2.3,0-1.806-8.6-2.442v18.409h5.18v-4.1h9.57q-1.8,10.206-14.65,13.428h0Zm-3.66-36.817q1.02,7.179,2.78,7.178c0.69,0,1.32-.895,1.91-2.685q5.715-.488,17.82-2.393a9.3,9.3,0,0,1,.19,1.172c0.3,2.019,1.13,3.027,2.5,3.027q3.075,0,3.07-3.271,0-4.59-7.76-8.643l-1.42,1.319a20.892,20.892,0,0,1,2.69,4.1h-2.49l-3.32.1h-1.27l-2.83.1a121.675,121.675,0,0,0,10.64-9.423c2.38,0,3.56-.358,3.56-1.075q0-1.512-6-4.492a106.1,106.1,0,0,1-11.77,14.99h-8.3Zm-12.01-50.244v89.5h5.61V899.809h23.59v2.734h5.17V882.328l2.2-1.611a1.255,1.255,0,0,0,.68-1.074q0-1.416-5.37-5.323l-3.37,3.809h-21.68q-2.34-1.318-6.83-3.516h0Zm29.2,6.006v6.641h-23.59v-6.641h23.59Zm-23.59,9.131h23.59v7.568h-23.59V889.75Zm35.99,34.766q1.17,6.69,2.78,6.689c0.62,0,1.22-.9,1.81-2.685q5.67-.391,17.19-2.295c0.22,0.651.44,1.384,0.63,2.2a2.365,2.365,0,0,0,2.49,2.2q3.075,0,3.08-3.223,0-5.077-9.28-8.984l-1.32,1.514a24.6,24.6,0,0,1,3.32,4q-3.555.245-11.18,0.488a139.829,139.829,0,0,0,11.57-10.4,6.474,6.474,0,0,0,1.22.1q2.01,0,2.01-.976,0-1.806-5.91-4.834a149.754,149.754,0,0,1-12.4,16.211h-6.01Zm7.42,12.451q3.615-1.366,3.61-2.393c0-1.237-2.97-2-8.93-2.295v29.346h5.32V948.246h9.18v3.516h5.18V938.236c2.15-.911,3.22-1.709,3.22-2.392q0-1.856-8.4-2.3v12.207h-9.18v-8.789Zm-34.72-28.028-1.12,1.807q4.59,2.882,5.62,6.592c0.61,1.726,1.56,2.588,2.83,2.588q2.88,0,2.88-3.076a5.345,5.345,0,0,0-1.9-3.614,44.538,44.538,0,0,0,6.59-6.1q3.51-.147,3.51-1.172,0-1.659-6.3-4.2a49.559,49.559,0,0,1-5.71,9.961,28.942,28.942,0,0,0-6.4-2.784h0Zm26.81,0.2-1.02,1.806a15.481,15.481,0,0,1,5.9,6.5q1.035,2.49,2.64,2.49,2.88,0,2.88-2.979,0-2.148-2.39-4.1a55.324,55.324,0,0,0,6.69-6.1c1.98-.1,2.98-0.5,2.98-1.221q0-1.611-6.3-3.906a54.057,54.057,0,0,1-5.37,9.912,32.964,32.964,0,0,0-6.01-2.392h0Z"/>
  <path id="大写字母" class="cls-1" d="M184.916,528.51a6.679,6.679,0,0,1-6.416-4.395L163.617,487.2h-1.611l-14.59,36.563q-1.875,4.746-6.24,4.746h-0.352v1.67h14.092v-1.67q-5.216,0-5.215-2.051a8.837,8.837,0,0,1,.645-2.637l3.252-8.467h16.933l3.369,8.174a7.12,7.12,0,0,1,.586,2.871q0,2.111-5.273,2.11v1.67h15.7v-1.67Zm-30.469-15.44,7.617-19.248,7.676,19.248H154.447Zm62.4-5.215q10.311-1.9,10.312-9.843a8.575,8.575,0,0,0-5.273-8.2,22.177,22.177,0,0,0-9.785-1.934H193.436v1.7q3.867,0.264,4.98,1.143,1.143,0.791,1.143,3.633v29.472q0,3.135-1.788,3.955a15.653,15.653,0,0,1-4.335.7v1.7h18.369q17.754,0,17.754-11.6,0-8.379-12.715-10.547v-0.176Zm-13.213-13.5q0-3.78,2.754-4.307a10.36,10.36,0,0,1,2.519-.234h2.051q11.689,0,11.69,8.437,0,8.76-12.6,8.76h-6.416V494.35Zm6.3,14.824q15,0,15,9.668,0,9.4-14.092,9.4H208.9q-5.272,0-5.273-4.8V509.174h6.3Zm68.724,6.943q-3.692,12.452-14.824,12.451a14.621,14.621,0,0,1-11.894-5.713q-4.484-5.478-4.483-14.091a26.078,26.078,0,0,1,2.988-12.686,13.933,13.933,0,0,1,12.979-7.558,13.5,13.5,0,0,1,10.547,4.511,15.444,15.444,0,0,1,3.486,7.324h1.787v-12.07H277.4q-0.119,2.461-1.026,2.461a4.02,4.02,0,0,1-1.7-.85,19.562,19.562,0,0,0-11.572-3.515,19.07,19.07,0,0,0-14.034,5.683q-6.474,6.592-6.474,17.168,0,10.606,6.357,16.875a19.093,19.093,0,0,0,14.092,5.567,17.224,17.224,0,0,0,11.221-3.838q4.686-3.808,6.592-10.986Zm13.119-26.543q3.868,0.264,4.981,1.143,1.143,0.791,1.142,3.662v29.443q0,3.135-1.787,3.955a15.655,15.655,0,0,1-4.336.7v1.7h17.989a28.731,28.731,0,0,0,11.455-1.934q11.337-5.038,11.338-19.307,0-11.365-7.735-17.021-5.448-4.043-14.765-4.043H291.773v1.7Zm35.918,19.072q0,12.1-6.884,16.846-3.663,2.579-11.221,2.578h-2.168a8.193,8.193,0,0,1-3.6-.615q-1.728-.819-1.728-3.691V494.379q0-3.633,2.461-4.277a12.993,12.993,0,0,1,2.871-.293h2.168q18.105,0,18.1,18.837h0Zm50.8,8.555q-0.44,6.446-3.252,8.877-2.373,2.109-9.463,2.11h-5.3a7.667,7.667,0,0,1-4.073-.85q-1.2-.82-1.2-3.662V509.35h6.358q3.837,0,5.127,1.992a10.123,10.123,0,0,1,1.2,4.365h1.728V501.059h-1.728a9.02,9.02,0,0,1-1.465,4.57q-1.26,1.611-4.863,1.611H355.2V494.291q0-3.076,1.377-3.838a9.7,9.7,0,0,1,3.9-.644h5.3q7.413,0,9.551,2.578,1.9,2.285,2.256,7.412H379.4l-0.733-11.924H345v1.7q3.867,0.264,4.98,1.143,1.143,0.791,1.143,3.574v29.5q0,3.193-1.728,3.926a15.4,15.4,0,0,1-4.395.761v1.7H379.4l0.878-12.979h-1.787Zm48.188-29.326H392.953v1.7q3.867,0.264,4.981,1.143,1.141,0.791,1.142,3.633v29.472q0,3.135-1.787,3.955a14.519,14.519,0,0,1-4.336.733v1.67H409.74v-1.67a12.834,12.834,0,0,1-4.8-.85q-1.788-.908-1.788-3.838V509.408h6.416q3.838,0,5.1,1.992a9.455,9.455,0,0,1,1.2,4.307h1.758v-14.59h-1.758a9.646,9.646,0,0,1-1.435,4.571q-1.143,1.669-4.864,1.669h-6.416V494.291q0-2.988,1.377-3.838a9.2,9.2,0,0,1,3.9-.644h5.156q8.291,0,10.283,3.164a15.229,15.229,0,0,1,1.729,6.767h1.816Zm53.607,22.734H464.549v1.67a14.6,14.6,0,0,1,4.629.85q1.494,0.79,1.494,3.838v3.545a6.793,6.793,0,0,1-1.494,4.511q-3.428,4.131-10.078,4.131a14.37,14.37,0,0,1-11.69-5.713q-4.571-5.625-4.57-14.5a26.349,26.349,0,0,1,2.988-12.861,13.933,13.933,0,0,1,12.979-7.558,13.362,13.362,0,0,1,10.547,4.57,14.256,14.256,0,0,1,3.486,7h1.787V488.285h-1.846q-0.117,2.461-1.025,2.461a3.868,3.868,0,0,1-1.67-.85,19.694,19.694,0,0,0-11.6-3.515,19.06,19.06,0,0,0-13.974,5.683q-6.534,6.534-6.533,17.227,0,10.4,6.123,16.641,5.683,5.683,14.56,5.683a17,17,0,0,0,12.8-5.1l1.846,3.457h1.318V516.967q0-3.222,1.758-3.955a13.541,13.541,0,0,1,3.9-.733v-1.67Zm53.285,17.9a12.242,12.242,0,0,1-4.628-.85q-1.671-.879-1.67-3.838V494.408q0-3.105,1.494-3.9a14.2,14.2,0,0,1,4.8-.967v-1.67H516.75v1.67a13.446,13.446,0,0,1,4.57.967q1.816,0.908,1.817,3.9v12.656H500.549V494.35q0-3.282,1.816-4.014a14.053,14.053,0,0,1,4.307-.791v-1.67H490.3v1.67a13.825,13.825,0,0,1,4.57.908q1.552,0.821,1.553,3.9v29.472q0,3.135-1.787,3.955a15.337,15.337,0,0,1-4.336.733v1.67h16.377v-1.67a12.914,12.914,0,0,1-4.629-.85q-1.494-.79-1.494-3.838V509.467h22.588v14.355q0,3.135-1.758,3.955a13.531,13.531,0,0,1-4.336.733v1.67h16.523v-1.67Zm28.53,0a12.613,12.613,0,0,1-4.571-.85q-1.611-.819-1.611-3.838V494.35q0-3.194,1.934-4.014a13.119,13.119,0,0,1,4.248-.791v-1.67H545.543v1.67a14.738,14.738,0,0,1,4.629.908q1.494,0.791,1.494,3.9v29.472q0,3.252-1.67,3.955a15.511,15.511,0,0,1-4.453.733v1.67H562.1v-1.67Zm34.916-40.635H580.459v1.67a12.53,12.53,0,0,1,4.863.908q1.582,0.821,1.582,3.9v24.668q0,5.361-.732,7.236a5.394,5.394,0,0,1-5.479,3.721q-4.042,0-5.039-2.7a2.6,2.6,0,0,0,2.4-2.929q0-2.929-3.106-2.93-3.311,0-3.31,3.662,0,2.9,3.047,5.156a10.546,10.546,0,0,0,6.3,1.9q10.167,0,10.166-12.041V494.35q0-3.282,1.729-4.014a13.729,13.729,0,0,1,4.131-.791v-1.67Zm52.23,40.635a10.556,10.556,0,0,1-7.588-3.838l-15.7-18.926,13.067-12.363a13.291,13.291,0,0,1,8.115-3.838v-1.67H632.426v1.67q4.54,0.088,4.541,1.758a3.285,3.285,0,0,1-1.2,1.963l-16.787,16.142v-15q0-3.281,1.845-4.072a15.035,15.035,0,0,1,4.512-.791v-1.67H608.49v1.67a13.825,13.825,0,0,1,4.688.967q1.728,0.908,1.728,3.955v29.355q0,3.223-1.728,3.955a14.226,14.226,0,0,1-4.395.733v1.67h16.553v-1.67a12.274,12.274,0,0,1-4.688-.85q-1.67-.879-1.669-3.838V512.1l4.072-3.838,12.48,15.322q2.111,2.637,2.11,3.34,0,1.581-4.8,1.582v1.67h16.406v-1.67Zm40.307-11.192q-0.615,5.421-2.695,8.057-2.375,2.813-9.844,2.813h-3.662a6.3,6.3,0,0,1-4.073-1.026q-0.966-.791-0.966-3.428V494.408q0-3.105,1.494-3.9a13.812,13.812,0,0,1,4.687-.967v-1.67H657.762v1.67a13.818,13.818,0,0,1,4.687.967q1.67,0.879,1.67,3.9v29.385q0,3.163-1.787,3.984a15.388,15.388,0,0,1-4.336.7v1.7h32.4l0.821-12.862h-1.67Zm62.074,11.192a12.711,12.711,0,0,1-4.57-.85q-1.554-.819-1.553-3.955v-29.3q0-3.192,1.787-4.013a12.453,12.453,0,0,1,4.336-.85v-1.67h-12.07l-13.682,35.83-13.8-35.83H699.533v1.67a14.8,14.8,0,0,1,4.688.85q1.553,0.821,1.552,4.072v29.3q0,3.193-1.728,4.013a15.994,15.994,0,0,1-4.277.733v1.67h14.824v-1.67a11.865,11.865,0,0,1-4.336-.85q-1.554-.819-1.553-3.9v-32.9h0.235l15.087,39.317h2.08l15.147-39.375h0.176v32.9q0,3.34-1.729,4.072a14.256,14.256,0,0,1-4.336.733v1.67h16.26v-1.67ZM807.6,487.875H792.721v1.67a12.612,12.612,0,0,1,4.57.85q1.552,0.821,1.553,3.837v28.916h-0.176l-25.049-35.273h-10.84v1.67a14.8,14.8,0,0,1,4.688.85q1.552,0.821,1.553,4.072v29.3q0,3.193-1.729,4.013a15.994,15.994,0,0,1-4.277.733v1.67h14.824v-1.67a11.865,11.865,0,0,1-4.336-.85q-1.554-.819-1.553-3.9V492.738h0.176l27.07,38.028h2.578V494.232q0-3.134,1.729-3.955a13.411,13.411,0,0,1,4.1-.732v-1.67Zm17.865,4.219q-6.476,6.563-6.475,16.845,0,10.548,6.533,17.081a20.169,20.169,0,0,0,28.037.087q6.534-6.561,6.534-17.285,0-10.165-6.475-16.728a20.2,20.2,0,0,0-28.154,0h0Zm25.136,1.728q4.512,5.6,4.512,15.176,0,8.994-4.013,14.443a13.594,13.594,0,0,1-11.543,5.948q-8.322,0-12.54-7.442a26,26,0,0,1-3.046-13.125q0-8.847,3.955-14.326a14.187,14.187,0,0,1,22.675-.674h0Zm21.821-4.248q3.867,0.264,4.98,1.143,1.143,0.791,1.143,3.721v29.384q0,3.135-1.787,3.955a14.519,14.519,0,0,1-4.336.733v1.67H889.1v-1.67a12.462,12.462,0,0,1-4.746-.85q-1.671-.879-1.67-3.838V511.459h7.558q16.788,0,16.787-12.246a9.957,9.957,0,0,0-2.578-6.943q-3.925-4.395-13.242-4.395H872.426v1.7Zm10.254,4.864q0-3.633,2.461-4.278a12.993,12.993,0,0,1,2.871-.293h1.875q12.45,0,12.451,9.727,0,9.579-13.828,9.58h-5.83V494.438Zm77.6,37.06a6.129,6.129,0,0,1-4.365,2.109q-3.956,0-6.914-5.3,9.609-6.8,9.609-19.366,0-10.283-6.474-16.875a20.239,20.239,0,0,0-28.155.03q-6.415,6.591-6.416,16.9,0,10.576,6.416,17.109a18.922,18.922,0,0,0,14.034,5.625,18.485,18.485,0,0,0,7.88-1.757q3.6,6.5,8.643,6.5,3.867,0,6.768-3.721Zm-16.142-11.66a8.59,8.59,0,0,0-6.534-3.047,7.4,7.4,0,0,0-5.507,2.168,6.484,6.484,0,0,0-1.993,4.805,7.127,7.127,0,0,0,2.461,5.39l-0.058.176q-10.079-5.478-10.078-20.273,0-8.849,4.013-14.385a13.7,13.7,0,0,1,11.719-6.182,13.448,13.448,0,0,1,9.873,4.072q5.714,5.713,5.713,16.5,0,11.1-5.713,16.963a33.046,33.046,0,0,0-3.9-6.182h0Zm-1.553,9.17a12.117,12.117,0,0,1-3.955.674q-6.182,0-6.182-5.1a4.655,4.655,0,0,1,1.377-3.428,4.349,4.349,0,0,1,3.194-1.318q4.246,0,7.851,8.057,0.117,0.322-2.285,1.113h0Zm67.584-.5a6.053,6.053,0,0,1-5.77-3.545q-3.435-6.592-4.838-8.877-3.28-5.156-6.8-6.416v-0.205a16.808,16.808,0,0,0,7.207-1.963,9.838,9.838,0,0,0,5.037-9.053q0-5.565-5.213-8.525-3.633-2.05-9.785-2.051H971v1.7q3.867,0.264,4.981,1.143,1.141,0.762,1.142,3.721v29.384q0,3.135-1.787,3.955a13.313,13.313,0,0,1-4.336.733v1.67h16.553v-1.67a12.855,12.855,0,0,1-4.571-.791q-1.728-.908-1.728-3.9v-13.74H985.5q4.863,0,8.174,4.57a75.682,75.682,0,0,1,7.906,15.528h8.59v-1.67Zm-28.918-34.131q0-3.633,2.461-4.277a12.993,12.993,0,0,1,2.871-.293h2.285q11.631,0,11.631,9.052,0,9.112-13.857,9.112h-5.391V494.379Zm65.938,5.537V487.553h-1.87c-0.06,1.621-.37,2.431-0.94,2.431a3.547,3.547,0,0,1-1.43-.556,19.582,19.582,0,0,0-9.56-2.608,14.128,14.128,0,0,0-9.14,2.9,10.251,10.251,0,0,0-3.95,8.467,9.147,9.147,0,0,0,3.78,7.617q2.055,1.552,8.58,4.072l1.14,0.469q6.24,2.548,8.21,4.629a7.661,7.661,0,0,1,2.17,5.332,8.032,8.032,0,0,1-2.58,6.3,9.149,9.149,0,0,1-6.48,2.227,13.008,13.008,0,0,1-9.96-4.072,15.226,15.226,0,0,1-3.54-8.7h-1.73v13.974h1.84c0-1.8.37-2.7,1.09-2.7a4.294,4.294,0,0,1,2.11.908,18.676,18.676,0,0,0,10.19,2.988,15.347,15.347,0,0,0,8.65-2.4,10.578,10.578,0,0,0,4.98-9.434,10.241,10.241,0,0,0-2.58-7q-2.76-3.1-12.25-6.533l-1.49-.556q-7.83-2.784-7.82-8.145a7.62,7.62,0,0,1,2.05-5.361,8.859,8.859,0,0,1,6.91-2.813,11.107,11.107,0,0,1,8.58,3.428,12.6,12.6,0,0,1,3.26,7.5h1.78Zm47.84-12.041h-35.24l-0.85,11.1h1.67a14.624,14.624,0,0,1,1.75-5.743q1.905-3.368,8.21-3.369h4.51v33.955c0,2.168-.56,3.487-1.67,3.955a16.463,16.463,0,0,1-4.69.733v1.67h16.85v-1.67a12.461,12.461,0,0,1-4.75-.85c-1.07-.605-1.61-1.884-1.61-3.838V489.867h4.92q6.57,0,8.26,3.662a15.463,15.463,0,0,1,1.44,5.45h1.81Zm53.67,0h-14.86v1.67a11.352,11.352,0,0,1,4.4.85c1.03,0.547,1.55,1.865,1.55,3.955v18.6q0,15.617-12.98,15.615-13.1,0-13.1-15.615V494.408q0-3.105,1.5-3.9a11.933,11.933,0,0,1,4.75-.967v-1.67h-16.79v1.67a14.746,14.746,0,0,1,4.63.908c1.15,0.606,1.73,1.924,1.73,3.955v19.131q0,18.018,16.87,18.018,16.32,0,16.32-18.369V494.35c0-2.188.61-3.545,1.84-4.073a13.87,13.87,0,0,1,4.14-.732v-1.67Zm50.29,0h-14.27v1.67q5.16,0.088,5.16,2.051a8.8,8.8,0,0,1-.64,2.695l-11.43,30.234-11.22-29.882a9.045,9.045,0,0,1-.64-2.93c0-1.387,1.73-2.109,5.21-2.168v-1.67h-15.85v1.67a6.748,6.748,0,0,1,6.59,4.746l14.3,37.148h1.82l14.32-37.089q1.875-4.718,6.65-4.805v-1.67Zm63.57,0h-14.21v1.67q5.625,0.088,5.63,2.519a11.1,11.1,0,0,1-.47,2.52l-8.38,28.447h-0.21l-8.26-28.271a10.921,10.921,0,0,1-.55-2.7,2.167,2.167,0,0,1,2.05-2.285q0.96-.117,3.54-0.234v-1.67h-15.38v1.67a16.211,16.211,0,0,1,2.96.381c1.48,0.41,2.56,1.885,3.22,4.424l0.38,1.377-9.02,27.6h-0.18l-8.52-28.066a10.848,10.848,0,0,1-.59-3.076,2.014,2.014,0,0,1,1.14-2.022,12.53,12.53,0,0,1,4.37-.615v-1.67h-15.53V489.6a10.257,10.257,0,0,1,2.7.5c1.38,0.488,2.51,2.09,3.37,4.8l11.34,36.211h1.9l10.08-31.055h0.2l9.17,31.055h1.94l11.13-36.533q1.17-3.984,3.6-4.6a8.326,8.326,0,0,1,2.58-.38v-1.729Zm48.98,40.635q-4.605-.088-8.47-5.42l-11.04-15,10.02-13.3c2.57-3.437,5.4-5.185,8.46-5.244v-1.67h-15.05v1.67q5.2,0.088,5.21,1.641a5.757,5.757,0,0,1-1.44,2.871l-8.87,11.953-8.29-11.338a7.2,7.2,0,0,1-1.61-3.252c0-1.191,1.67-1.816,5.03-1.875v-1.67h-16.31v1.67c3.02,0.059,5.85,1.885,8.46,5.478l9.96,13.623-10.92,14.678q-3.81,5.1-8.53,5.186v1.67h15.12v-1.67q-5.22,0-5.22-1.641a6.121,6.121,0,0,1,1.38-2.754l9.9-13.271,9.38,12.685a6.183,6.183,0,0,1,1.49,3.164q0,1.818-4.98,1.817v1.67h16.32v-1.67Zm47.28-40.635H1343.7v1.67q5.565,0.175,5.57,2.226a3.553,3.553,0,0,1-.59,1.817l-10.08,17.08-9.11-16a6.813,6.813,0,0,1-1.08-3.135q0-1.9,5.21-1.992v-1.67h-16.43v1.67q4.485,0.088,7.32,4.746l11.46,19.336v10.2c0,2.11-.56,3.428-1.67,3.955a15.473,15.473,0,0,1-4.63.733v1.67h16.79v-1.67a12.061,12.061,0,0,1-4.63-.85c-1.16-.664-1.73-1.943-1.73-3.838V513.07l11.04-18.222q3.195-5.216,7.68-5.3v-1.67Zm39.28,29.443q-0.465,6.827-3.6,8.877c-1.66,1.172-4.87,1.758-9.61,1.758h-13.8l27.42-37.851v-2.227h-30.15l-0.82,11.455h1.73q0.645-4.98,3.25-7.295,2.46-2.109,10.32-2.109h10.81l-27.13,37.3v2.959h32.4l0.85-12.862h-1.67Z"/>
  <path id="logo" class="cls-3" d="M706.266,1194.7a45.969,45.969,0,0,0-.118,5.15v5.16H677.555v-1.17l0.234-.94-1.406-.24c-1.1,0-2.659-.07-4.688-0.23h-3.281l-0.469,2.58a45.646,45.646,0,0,1-1.172,4.92,22.619,22.619,0,0,1-1.406,4.22,7.125,7.125,0,0,0-.82,2.23,6.584,6.584,0,0,0,2.109-.71c1.326-.54,2.615-1.13,3.867-1.76a11.566,11.566,0,0,0,3.516-2.81l1.641-1.64h66.8l1.875,1.88a14.477,14.477,0,0,0,3.75,2.81c1.406,0.62,2.655,1.17,3.75,1.64a1.036,1.036,0,1,0,1.171-1.17,17.1,17.1,0,0,1-1.406-3.99q-0.7-2.34-1.172-4.68a11.9,11.9,0,0,0-.7-3.05c0-.47-1.252-0.62-3.75-0.47-1.875.16-3.281,0.23-4.219,0.23a2.052,2.052,0,0,1-.937.24c-0.315,0-.469.31-0.469,0.94l0.235,0.93-13.594.24q-13.359,0-13.36-.24a2.838,2.838,0,0,1,.7-1.05,6.664,6.664,0,0,0,1.171-2.46,15.728,15.728,0,0,0,.469-4.22v-2.58h-4.687Q706.382,1194.46,706.266,1194.7Zm-31.289,28.12v4.22l21.093,0.23h21.094l-5.859,4.93q-5.4,4.215-8.2,6.56l-2.344,1.87v6.8H660.445v4.22h40.313v14.76c0,10.01-.158,15.47-0.469,16.41a13.152,13.152,0,0,1-1.172,3.05,21,21,0,0,1-2.578,3.04,16.962,16.962,0,0,1-3.75,2.82c-1.406.62-2.109,1.17-2.109,1.64s0.153,0.7.468,0.7a30.375,30.375,0,0,0,3.047-.47,34.353,34.353,0,0,0,4.922-1.4,16.4,16.4,0,0,0,4.688-1.88,11.74,11.74,0,0,0,3.515-2.34,12.264,12.264,0,0,0,2.344-2.58,13,13,0,0,0,1.172-2.58c0.311-.94.469-6.4,0.469-16.41v-14.76h38.2v-4.22h-38.2v-6.8l2.109-1.64q2.109-1.635,8.438-6.79,6.327-5.4,8.437-7.04a13.637,13.637,0,0,0,2.578-2.34q0-.225-28.828-0.23t-29.062.23h0Zm121.64-30.23-0.469,1.87a27.635,27.635,0,0,1-1.523,5.74c-0.861,2.43-1.681,4.65-2.461,6.68q-1.176,2.58-3.281,6.8-1.88,3.75-4.453,8.44-2.11,3.75-4.688,7.73-2.582,4.215-3.047,4.92a7.818,7.818,0,0,0-1.406,2.11c-0.157.47-.117,0.71,0.117,0.71a8.252,8.252,0,0,0,2.227-1.18q1.873-1.17,3.515-2.34,1.874-1.41,3.985-3.28a59.714,59.714,0,0,0,4.453-4.45l2.109-2.35,0.235,14.77,0.234,14.76h1.875a5.862,5.862,0,0,0,3.047-.7,5.457,5.457,0,0,0,1.875-1.17,11.374,11.374,0,0,0,1.406-1.64l0.469-.71h27.187v2.11l0.235,2.11h1.64a7.437,7.437,0,0,0,2.813-.47,9.072,9.072,0,0,0,2.109-1.17,4.666,4.666,0,0,0,1.407-1.64l0.7-.94h31.64v-4.45H838.336v-6.8H868.57v-4.45H838.336v-6.8H868.57v-4.68H838.336v-7.5H868.57v-4.69H837.164l0.938-1.17a23.668,23.668,0,0,0,1.406-2.35,6.445,6.445,0,0,0,.7-2.57,17.74,17.74,0,0,0,.469-4.93v-3.51H828.727v14.53H815.6q-13.129,0-13.125-.23c0-.16-0.158-0.24-0.469-0.24s0.311-1.41,1.875-4.22a69.182,69.182,0,0,0,3.281-7.5,16.732,16.732,0,0,0,1.406-3.98l0.235-1.17H796.617Zm31.406,22.03v7.5H802.477v-7.5h25.546Zm0,12.18v6.8H802.477v-6.8h25.546Zm0,11.25v6.8H802.477v-6.8h25.546Zm-3.515,16.88v5.16l-22.969.23H778.805v4.45h45.7v1.64c0,1.1-.081,1.64-0.235,1.64a40.222,40.222,0,0,1-4.687-1.17q-4.455-1.17-4.922-1.4-0.236,0-6.328,4.68-6.1,4.935-7.734,6.1-1.643.93-4.454,2.58a58.967,58.967,0,0,1-5.39,2.57q-2.812,1.185-5.391,2.23a35.226,35.226,0,0,1-5.859,1.76,17.416,17.416,0,0,0-3.047,1.05,6.06,6.06,0,0,0,1.289,1.06,3.994,3.994,0,0,0,1.992.94c0.469,0,2.344-.32,5.625-0.94s6.328-1.33,9.141-2.11q4.449-1.17,8.2-2.35a22.822,22.822,0,0,0,4.922-2.1q1.637-.945,9.14-6.1t7.618-5.04q0.115,0.12.117,13.48v13.12h1.406a7.357,7.357,0,0,0,2.813-.7,6.692,6.692,0,0,0,3.046-1.99,11.184,11.184,0,0,0,2.11-3.17,8.733,8.733,0,0,0,.586-2.34q0.115-1.17.117-6.33c0.154-4.68.271-7.11,0.352-7.26s1.442,0.55,4.1,2.11q3.982,2.1,6.8,3.51a34.945,34.945,0,0,0,6.328,2.58,54.282,54.282,0,0,0,6.328,1.64,52.974,52.974,0,0,0,5.625.94c1.718,0.16,4.219.23,7.5,0.23a38.521,38.521,0,0,0,5.86-.23,1.37,1.37,0,0,0,1.171-.94l0.235-1.17c0-.15-0.235-0.24-0.7-0.24-0.315,0-1.722-.23-4.219-0.7s-5-1.01-7.5-1.64q-3.516-.93-6.8-2.11-2.812-.93-5.625-2.11-2.346-1.17-10.078-6.33l-7.734-5.15,19.453-.24h19.453v-4.45H854.977l-20.157-.23v-2.58l-0.234-2.58H824.508Z"/>
</svg>
