<svg xmlns="http://www.w3.org/2000/svg" width="400" height="200" viewBox="0 0 400 200">
  <defs>
    <style>
      .cls-1 {
        fill: #fdfdfd;
        fill-rule: evenodd;
      }
    </style>
  </defs>
  <path id="胡晓波男神体" class="cls-1" d="M71.439,75.081h-7.1v6.96H56.8v2.688h7.536V94.857H61.119a2.87,2.87,0,0,0-2.928,2.928v18a2.87,2.87,0,0,0,2.928,2.928H74.7a2.87,2.87,0,0,0,2.928-2.928v-18a2.826,2.826,0,0,0-.847-2.088,2.868,2.868,0,0,0-2.1-.84H71.439V84.777h7.536V82.041H71.439v-6.96Zm12.24,0.192A2.87,2.87,0,0,0,80.751,78.2v37.488a1.316,1.316,0,0,1-.672,1.152l-0.768.384v2.784l6.816-3.36a3.588,3.588,0,0,0,1.416-1.3,3.317,3.317,0,0,0,.5-1.776V103.113h5.664v13.344a0.738,0.738,0,0,1-.72.72H89.1l1.44,2.688h7.536a2.87,2.87,0,0,0,2.928-2.928V78.2a2.87,2.87,0,0,0-2.928-2.928h-14.4Zm9.312,2.688a0.738,0.738,0,0,1,.72.72v9.168H88.047V78.681a0.738,0.738,0,0,1,.72-0.72h4.224Zm-4.944,22.464V90.537h5.664v9.888H88.047Zm-17.04,14.88a0.738,0.738,0,0,1-.72.72H65.535a0.738,0.738,0,0,1-.72-0.72V98.265a0.738,0.738,0,0,1,.72-0.72h4.752a0.738,0.738,0,0,1,.72.72v17.04Zm78.864-33.7V78.921H136.815l-1.824-3.888h-7.584l1.824,3.888h-5.376v2.688h6.672l3.888,8.16-10.56,3.5V96.2l11.76-3.888,0.624,1.344a3.6,3.6,0,0,0,3.024,2.16l10.608,1.2V94.329l-5.472-.624a0.952,0.952,0,0,1-.816-0.576l-1.44-3.024,7.728-2.544V84.633l-8.928,2.976-2.832-6h11.76Zm-41.136-5.664a2.87,2.87,0,0,0-2.928,2.928v37.488a2.87,2.87,0,0,0,2.928,2.928h10.9a2.87,2.87,0,0,0,2.928-2.928V78.873a2.87,2.87,0,0,0-2.928-2.928h-10.9Zm6.624,2.688a0.738,0.738,0,0,1,.72.72v16.9h-3.744v-16.9a0.738,0.738,0,0,1,.72-0.72h2.3Zm30.672,22.56h3.456V98.505h-25.68v2.688h4.224l-2.016,14.352a0.688,0.688,0,0,1-.528.672l-2.112.912v2.928l7.968-3.264a3.748,3.748,0,0,0,1.56-1.128,3.21,3.21,0,0,0,.7-1.752l2.016-12.72h2.832v15.36a2.87,2.87,0,0,0,2.928,2.928h7.056l1.44-2.688h-3.12a0.738,0.738,0,0,1-.72-0.72v-14.88ZM113.055,116.6a0.738,0.738,0,0,1-.72-0.72V98.937h3.744v16.944a0.738,0.738,0,0,1-.72.72h-2.3ZM154.1,74.889l4.656,10.416h-5.9L157.6,95.961h7.872l-4.656-10.416h5.9l-4.752-10.656H154.1ZM190.479,90.2h6.912l0.48-8.4a2.841,2.841,0,0,0-.768-2.256,2.91,2.91,0,0,0-2.208-.912H187.5v-3.6h-7.44v3.6h-8.736a2.87,2.87,0,0,0-2.928,2.928v34.128a1.283,1.283,0,0,1-.576,1.056l-0.432.288v3.024l6.24-3.6a4.193,4.193,0,0,0,1.7-1.8,5.441,5.441,0,0,0,.552-2.424V98.793l6.48,9.216-5.856,8.544a1.019,1.019,0,0,1-.624.48l-1.344.336v2.688l6.336-1.008a3.811,3.811,0,0,0,2.592-1.728l2.736-3.888,2.736,3.888a3.463,3.463,0,0,0,1.1,1.152,4.011,4.011,0,0,0,1.488.576l6.336,1.008v-2.688l-1.392-.384a1.089,1.089,0,0,1-.672-0.48l-5.9-8.352,6.624-9.408a3.66,3.66,0,0,0,.648-1.728,2.7,2.7,0,0,0-.312-1.56,3.116,3.116,0,0,0-1.128-1.152,3.383,3.383,0,0,0-1.8-.456H187.5V81.321h2.736a0.787,0.787,0,0,1,.576.24,0.646,0.646,0,0,1,.192.576Zm-10.416,3.648h-4.176V82.041a0.738,0.738,0,0,1,.72-0.72h3.456V93.849Zm6,8.784-3.024-4.272h-7.152V96.537h13.152a0.633,0.633,0,0,1,.576.312,0.545,0.545,0,0,1-.048.648Zm-33.216,17.376h7.584l4.08-18.192a1.431,1.431,0,0,1,.816-1.1l1.344-.672V97.209l-6.48,2.352a4.766,4.766,0,0,0-2.256,1.632,7.428,7.428,0,0,0-1.2,2.64Zm86.88-22.7a2.87,2.87,0,0,0,2.928-2.928V78.633a2.87,2.87,0,0,0-2.928-2.928H207.039a2.87,2.87,0,0,0-2.928,2.928V94.377a2.87,2.87,0,0,0,2.928,2.928h32.688ZM219.615,78.393v6.768h-7.776V79.119a0.7,0.7,0,0,1,.216-0.508,0.69,0.69,0,0,1,.5-0.218h7.056Zm15.312,6.768H227.2V78.393h7.008a0.69,0.69,0,0,1,.5.218,0.7,0.7,0,0,1,.216.508v6.043Zm-23.088,2.688h7.776v6.768h-7.056a0.738,0.738,0,0,1-.72-0.72V87.849Zm15.36,6.768V87.849h7.728V93.9a0.738,0.738,0,0,1-.72.72H227.2Zm16.848,10.992a2.873,2.873,0,0,0-2.934-2.928H221.1l1.968-3.7h-7.722l-2.014,3.7h-10.9v2.688H211.9l-4.8,8.784a2.486,2.486,0,0,1-1.248,1.056l-4.464,1.68v3.12l11.232-4.08a4.624,4.624,0,0,0,2.543-2.208l4.51-8.352h15.547a1.128,1.128,0,0,1,.863.36,1.254,1.254,0,0,1,.336.888l0.048,9.12a1.151,1.151,0,0,1-1.2,1.2h-13.68l1.443,2.688h18.135A2.873,2.873,0,0,0,244.1,116.7Zm17.52-7.92V94.041l2.544-1.44a3.133,3.133,0,0,0,1.584-2.3l1.248-7.872a2.5,2.5,0,0,0-2.544-3.072h-3.264l-0.816-4.32h-7.584l0.816,4.32h-4.224v2.688h9.648a0.47,0.47,0,0,1,.528.624l-1.632,9.312a1.607,1.607,0,0,1-.816,1.152l-8.208,5.088v3.072l5.136-2.928v21.7h7.584V99.993l1.632,6h4.512l-2.256-8.3h-3.888Zm23.472-17.424V75.033H277.6v5.232h-5.472a2.87,2.87,0,0,0-2.928,2.928v26.064a2.87,2.87,0,0,0,2.928,2.928H277.6v7.872h7.44v-7.872h5.424a2.87,2.87,0,0,0,2.928-2.928V83.193a2.87,2.87,0,0,0-2.928-2.928h-5.424Zm-6.768,2.688V94.905h-2.448V83.676a0.74,0.74,0,0,1,.72-0.723h1.728Zm8.5,11.952h-2.4V82.953h1.68a0.74,0.74,0,0,1,.72.723V94.905Zm-10.944,2.688h2.448v11.9h-1.728a0.738,0.738,0,0,1-.72-0.72V97.593Zm8.544,11.9v-11.9h2.4v11.184a0.738,0.738,0,0,1-.72.72h-1.68Zm29.808-34.464h-7.728l-5.664,13.152a2.147,2.147,0,0,1-1.488,1.248l-2.448.528v2.688l5.376-1.1v28.464h7.584V90.921h-4.416a4.7,4.7,0,0,0,3.408-2.784Zm27.12,39.216a0.9,0.9,0,0,1-.432-0.624l-2.688-23.856H331.5l2.256,19.344h-2.976V85.785h10.656V83.1H330.783V75.033H323.2V83.1H312.4v2.688h10.8v23.328h-3.12l2.3-19.344h-6.72l-2.784,23.856a0.9,0.9,0,0,1-.432.624l-0.528.336v3.6l5.76-2.736a3.356,3.356,0,0,0,1.968-2.832l0.1-.816H323.2v8.256h7.584V111.8h3.264l0.1,0.816a3.4,3.4,0,0,0,2.016,2.832l5.712,2.736v-3.6Z"/>
</svg>
