<svg xmlns="http://www.w3.org/2000/svg" width="400" height="200" viewBox="0 0 400 200">
  <defs>
    <style>
      .cls-1 {
        fill: #fdfdfd;
        fill-rule: evenodd;
      }
    </style>
  </defs>
  <path id="王漢宗細黑體繁" class="cls-1" d="M38.484,83.758H52.219a1.036,1.036,0,0,1,1.172,1.172V96.367a1.036,1.036,0,0,1-1.172,1.172H40.734a1.243,1.243,0,0,0-1.406,1.406,1.223,1.223,0,0,0,1.406,1.36H52.219a1.036,1.036,0,0,1,1.172,1.172v13.031a1.036,1.036,0,0,1-1.172,1.172H36.609a1.406,1.406,0,1,0,0,2.812H74.016a1.406,1.406,0,1,0,0-2.812H58.125a1.036,1.036,0,0,1-1.172-1.172V101.477a1.036,1.036,0,0,1,1.172-1.172H70.547A1.243,1.243,0,0,0,71.953,98.9a1.223,1.223,0,0,0-1.406-1.359H58.125a1.036,1.036,0,0,1-1.172-1.172V84.93a1.036,1.036,0,0,1,1.172-1.172H72.609a1.36,1.36,0,1,0,0-2.719H38.438a1.222,1.222,0,0,0-1.359,1.406,1.2,1.2,0,0,0,1.406,1.313h0ZM100.5,81.039H96.281a1.191,1.191,0,1,0,0,2.344H100.5a1.036,1.036,0,0,1,1.172,1.172v2.531a1.243,1.243,0,0,0,1.406,1.406h3.8q1.172,0,1.172,1.547,0,1.5-1.172,1.5H97.828a1.243,1.243,0,0,0-1.406,1.406v5.766a1.243,1.243,0,0,0,1.406,1.406h9.047a1.036,1.036,0,0,1,1.172,1.172v1.078a1.036,1.036,0,0,1-1.172,1.172H97.641a1.192,1.192,0,1,0,0,2.344h8.953a0.912,0.912,0,0,1,1.031,1.172,1.168,1.168,0,0,1-.141.609,1.8,1.8,0,0,1-1.64,1.5H94.828a1.192,1.192,0,1,0,0,2.344h9.938q1.311,0,.046,1.312a4,4,0,0,1-.89.891,17.69,17.69,0,0,1-8.859,3.937q-1.36.188-.984,1.688a1.375,1.375,0,0,0,1.781,1.078,23.561,23.561,0,0,0,8.016-3,11.289,11.289,0,0,0,4.547-4.5,2.373,2.373,0,0,1,1.969-1.406h13.453a1.191,1.191,0,1,0,0-2.344h-12.61a0.877,0.877,0,0,1-.984-1.172,1.55,1.55,0,0,0,.141-0.609,1.478,1.478,0,0,1,1.406-1.5h9.656a1.191,1.191,0,1,0,0-2.344h-9.422a1.036,1.036,0,0,1-1.172-1.172v-1.078a1.036,1.036,0,0,1,1.172-1.172h9.235a1.243,1.243,0,0,0,1.406-1.406V92.945a1.243,1.243,0,0,0-1.406-1.406h-9.235q-1.172,0-1.172-1.547,0-1.5,1.172-1.5h3.985a1.243,1.243,0,0,0,1.406-1.406V84.555a1.036,1.036,0,0,1,1.172-1.172h4.734a1.191,1.191,0,1,0,0-2.344h-4.734q-1.173,0-1.172-1.453a1.407,1.407,0,0,0-2.813,0q0,1.454-1.171,1.453h-7.782q-1.172,0-1.172-1.453a1.264,1.264,0,0,0-1.453-1.406,1.245,1.245,0,0,0-1.359,1.453,1.151,1.151,0,0,1-1.172,1.406h0ZM86.531,82.07q1.452,1.125,2.906,2.391,1.406,1.313,2.438-.047a1.477,1.477,0,0,0-.234-2.25,38.169,38.169,0,0,0-3.234-2.437,1.809,1.809,0,0,0-2.484.328q-0.938.938,0.609,2.016h0Zm26.907,4.359h-7.782q-1.172,0-1.172-1.547,0-1.5,1.172-1.5h7.782q1.17,0,1.171,1.547,0,1.5-1.171,1.5h0ZM84,92.758q1.874,1.5,3.75,3.188A1.328,1.328,0,0,0,90,95.9a1.7,1.7,0,0,0-.375-2.484,40.6,40.6,0,0,0-3.234-2.531A1.715,1.715,0,0,0,84,91.023a1.008,1.008,0,0,0,0,1.734h0Zm24.047,3.75a1.036,1.036,0,0,1-1.172,1.172h-6.281a1.036,1.036,0,0,1-1.172-1.172V95.055a1.036,1.036,0,0,1,1.172-1.172h6.328a1.038,1.038,0,0,1,1.125,1.219v1.406Zm11.625,0A1.036,1.036,0,0,1,118.5,97.68h-6.469a1.036,1.036,0,0,1-1.172-1.172V95.055a1.036,1.036,0,0,1,1.172-1.172h6.516a1.038,1.038,0,0,1,1.125,1.219v1.406ZM84.281,116.9a1.877,1.877,0,0,0,.609,2.485q1.452,1.077,2.016-.328a104.214,104.214,0,0,0,4.781-15.328,1.94,1.94,0,0,0-.891-2.063q-0.984-.7-1.312.75a90.166,90.166,0,0,1-5.2,14.484h0Zm29.2-.984a58.152,58.152,0,0,1,7.969,4.125,1.664,1.664,0,0,0,2.391-.234q0.938-1.08-.61-1.969a72.107,72.107,0,0,0-7.922-3.891,1.824,1.824,0,0,0-2.3.563q-0.752.938,0.468,1.406h0ZM149.156,80.8q1.641,2.345-.281,1.875H132.8a1.243,1.243,0,0,0-1.406,1.406v5.953a1.243,1.243,0,0,0,1.406,1.406h0.328a1.243,1.243,0,0,0,1.406-1.406V86.8a1.036,1.036,0,0,1,1.172-1.172h31.078a1.036,1.036,0,0,1,1.172,1.172v3.234a1.243,1.243,0,0,0,1.406,1.406h0.375a1.243,1.243,0,0,0,1.407-1.406V84.086a1.243,1.243,0,0,0-1.407-1.406H154.453a1.491,1.491,0,0,1-1.5-1.219,19.85,19.85,0,0,0-.8-1.828,1.838,1.838,0,0,0-2.484-.8q-1.407.469-.516,1.969h0Zm-9.281,13.313h22.734a1.286,1.286,0,0,0,1.407-1.5,1.265,1.265,0,0,0-1.407-1.453H139.828a1.48,1.48,0,0,0,.047,2.953h0Zm-6.563,9h15.469a1.036,1.036,0,0,1,1.172,1.172v14.672a1.243,1.243,0,0,0,1.406,1.406h0.516a1.243,1.243,0,0,0,1.406-1.406V104.289a1.036,1.036,0,0,1,1.172-1.172h14.859a1.286,1.286,0,0,0,1.407-1.5,1.265,1.265,0,0,0-1.407-1.453H133.219a1.275,1.275,0,0,0-1.313,1.547,1.243,1.243,0,0,0,1.406,1.406h0Zm33.516,12.75a1.491,1.491,0,0,0,2.484.141q1.219-1.173-.234-2.625a87.341,87.341,0,0,0-6.609-5.906q-1.547-1.22-2.672-.469-1.173.8,0.469,2.25,4.406,4.125,6.562,6.609h0Zm-33.8-1.312a1.623,1.623,0,0,0-.7,2.343q0.8,1.359,2.25.375a37.329,37.329,0,0,0,7.781-7.546q1.078-1.454,0-2.344-1.031-.889-2.015.375a36.564,36.564,0,0,1-7.313,6.8h0Zm47.016-23.813a3.3,3.3,0,0,0-.844,2.813q0.234,1.266,1.781,1.031l4.36-.844q1.406-.187.515,1.172a54.249,54.249,0,0,1-5.765,7.172,2.881,2.881,0,0,0-.891,2.812,1.569,1.569,0,0,0,1.875,1.219,67.673,67.673,0,0,0,10.781-2.015,1.212,1.212,0,0,1,1.735.843q0.234,1.22,1.687.7,1.172-.327.75-1.875A32.406,32.406,0,0,0,194.25,98.8q-0.657-1.547-1.781-1.219-1.173.329-.469,1.875l0.422,1.172q0.234,1.032-1.078,1.312-3.8.7-7.453,1.219-1.407.094-.282-1.312A65,65,0,0,0,194.2,86.477a1.16,1.16,0,0,0-.75-1.828,1.523,1.523,0,0,0-2.015.938q-1.173,2.3-2.532,4.547a3.111,3.111,0,0,1-2.015,1.547,28.8,28.8,0,0,1-3.657.328q-1.265,0-.328-1.219,2.625-3.234,5.438-10.359a1.261,1.261,0,0,0-.891-1.875,1.283,1.283,0,0,0-1.828.984,48.676,48.676,0,0,1-5.578,11.2h0Zm18.234,28.406a1.244,1.244,0,0,0,1.407,1.407,1.223,1.223,0,0,0,1.359-1.407v-0.984a1.036,1.036,0,0,1,1.172-1.172h13.406a1.036,1.036,0,0,1,1.172,1.172v0.8a1.264,1.264,0,0,0,1.453,1.406,1.243,1.243,0,0,0,1.406-1.406V82.445a1.243,1.243,0,0,0-1.406-1.406H199.641a1.245,1.245,0,0,0-1.36,1.453v36.656Zm9.188-22.64A1.036,1.036,0,0,1,206.3,97.68h-4.078a1.036,1.036,0,0,1-1.172-1.172V84.742a1.036,1.036,0,0,1,1.172-1.172h4.125a1.038,1.038,0,0,1,1.125,1.219V96.508Zm9.328,0a1.036,1.036,0,0,1-1.172,1.172h-4.172a1.036,1.036,0,0,1-1.172-1.172V84.742a1.036,1.036,0,0,1,1.172-1.172h4.219a1.038,1.038,0,0,1,1.125,1.219V96.508ZM207.469,113.2a1.036,1.036,0,0,1-1.172,1.172h-4.078a1.036,1.036,0,0,1-1.172-1.172V101.477a1.036,1.036,0,0,1,1.172-1.172h4.125a1.037,1.037,0,0,1,1.125,1.218V113.2Zm9.328,0a1.036,1.036,0,0,1-1.172,1.172h-4.172a1.036,1.036,0,0,1-1.172-1.172V101.477a1.036,1.036,0,0,1,1.172-1.172h4.219a1.037,1.037,0,0,1,1.125,1.218V113.2Zm-24.844-2.953a28.343,28.343,0,0,1,1.266,4.641,1.125,1.125,0,0,0,1.687.937,1.346,1.346,0,0,0,.985-1.875,27.521,27.521,0,0,0-1.5-4.218,1.418,1.418,0,0,0-1.829-1.032,1,1,0,0,0-.609,1.547h0Zm-13.312,7.219a1.51,1.51,0,0,0,.8,2.062q1.218,0.609,1.687-.89a37.729,37.729,0,0,0,1.547-7.735,1.428,1.428,0,0,0-1.078-1.781q-1.219-.234-1.406,1.266a41.349,41.349,0,0,1-1.547,7.078h0ZM186,110.9q0.375,3.516.422,6.329a1.073,1.073,0,0,0,1.312,1.265A1.309,1.309,0,0,0,189,116.945a55.113,55.113,0,0,0-.656-6.234q-0.282-1.734-1.5-1.5-1.032.188-.844,1.687h0Zm44.156-16.546a1.243,1.243,0,0,0,1.406,1.406h13.219a1.036,1.036,0,0,1,1.172,1.172V98.57a1.036,1.036,0,0,1-1.172,1.172h-14.3a1.316,1.316,0,1,0,0,2.625h14.3a1.036,1.036,0,0,1,1.172,1.172v2.109a1.036,1.036,0,0,1-1.172,1.172H227.625a1.316,1.316,0,1,0,0,2.625H267a1.316,1.316,0,1,0,0-2.625H250.125a1.036,1.036,0,0,1-1.172-1.172v-2.109a1.036,1.036,0,0,1,1.172-1.172H264.8a1.316,1.316,0,1,0,0-2.625H250.125a1.036,1.036,0,0,1-1.172-1.172V96.93a1.036,1.036,0,0,1,1.172-1.172h13.734a1.243,1.243,0,0,0,1.407-1.406V80.945a1.243,1.243,0,0,0-1.407-1.406h-32.39a1.25,1.25,0,0,0-1.313,1.5V94.352Zm15.8-2.3a1.036,1.036,0,0,1-1.172,1.172H234.328a1.036,1.036,0,0,1-1.172-1.172V83.289a1.036,1.036,0,0,1,1.172-1.172h10.5a1.038,1.038,0,0,1,1.125,1.219v8.719Zm16.266,0a1.036,1.036,0,0,1-1.172,1.172H250.125a1.036,1.036,0,0,1-1.172-1.172V83.289a1.036,1.036,0,0,1,1.172-1.172h10.969a1.038,1.038,0,0,1,1.125,1.219v8.719Zm-24.7-5.625a22.95,22.95,0,0,1,2.062,3.188,1.119,1.119,0,0,0,1.828.563q1.172-.656.188-2.3a28.651,28.651,0,0,0-1.688-2.437q-1.078-1.266-2.156-.609a0.958,0.958,0,0,0-.234,1.594h0Zm15.89,1.688q-1.359,1.406-.375,2.3,1.03,0.844,2.438-.609a33.016,33.016,0,0,0,2.109-2.812q0.889-1.406-.234-2.109-1.032-.656-2.016.844Zm-25.875,29.344q-1.172,1.311.516,2.2a2.2,2.2,0,0,0,2.859-.844,46.892,46.892,0,0,0,3-4.687q0.75-1.452-1.031-2.11-1.361-.468-2.391,1.313-1.359,2.063-2.953,4.125h0ZM261.8,114.32a37.07,37.07,0,0,1,2.531,4.875q0.609,1.407,2.344.657a1.283,1.283,0,0,0,.7-2.016,31.9,31.9,0,0,0-2.953-5.063,1.676,1.676,0,0,0-2.344-.562q-1.312.563-.281,2.109h0Zm-21.281-.281a24.158,24.158,0,0,1,1.312,4.781q0.234,1.407,1.828.891a1.553,1.553,0,0,0,1.219-2.016,30.7,30.7,0,0,0-1.453-4.593,1.661,1.661,0,0,0-2.25-.938q-1.219.328-.656,1.875h0Zm12.046,4.453q0.375,1.5,2.016.985a1.362,1.362,0,0,0,1.078-1.875,20.889,20.889,0,0,0-1.922-4.5,1.773,1.773,0,0,0-2.156-1.032q-1.453.377-.609,2.063a33.515,33.515,0,0,1,1.593,4.359h0Zm46.36-37.078h-3.938a1.243,1.243,0,0,0-1.406,1.406V93.977a1.243,1.243,0,0,0,1.406,1.406h19.032a1.243,1.243,0,0,0,1.406-1.406V82.82a1.243,1.243,0,0,0-1.406-1.406h-3.891q-1.172,0-1.172-1.547,0-1.5-1.172-1.5-1.125,0-1.125,1.5,0,1.547-1.172,1.547h-1.922q-1.172,0-1.171-1.547,0-1.5-1.219-1.5-1.079,0-1.078,1.547,0,1.5-1.172,1.5h0Zm-23.016,8.953a0.962,0.962,0,0,1-.984,1.172q-0.891,0-.891,1.406v2.578a1.167,1.167,0,0,0,1.219,1.406,1.058,1.058,0,0,1,1.219,1.172v11.015a25.55,25.55,0,0,1-1.641,8.344,1.738,1.738,0,0,0,.656,2.2q1.125,0.844,1.688-.844a37.969,37.969,0,0,0,1.406-5.672,4.62,4.62,0,0,1,.563-1.64,0.962,0.962,0,0,1,.89.984q0.282,0.8,2.063.141a27.738,27.738,0,0,0,3.187-1.36q1.5-.8,1.5.422,0.046,2.72-.093,5.438a2,2,0,0,1-2.532.7q-1.5-.235-1.218.984a1.914,1.914,0,0,0,1.781,1.453q3.843,0.986,4.5-2.718V98.1a1.057,1.057,0,0,1,1.219-1.172,1.151,1.151,0,0,0,1.171-1.406V92.945q0-1.406-.8-1.406t-0.8-1.172V80.945a1.243,1.243,0,0,0-1.407-1.406h-11.39a1.25,1.25,0,0,0-1.313,1.5v9.328Zm11.672-6.375a1.036,1.036,0,0,1-1.172,1.172h-3.234a1.243,1.243,0,0,0-1.406,1.406v3.8a1.036,1.036,0,0,1-1.172,1.172h-1.032a1.035,1.035,0,0,1-1.171-1.172v-7.5a1.035,1.035,0,0,1,1.171-1.172h6.891a1.038,1.038,0,0,1,1.125,1.219v1.078Zm12.516,2.438a1.036,1.036,0,0,1-1.172,1.172h-1.734a1.036,1.036,0,0,1-1.172-1.172V84.555a1.036,1.036,0,0,1,1.172-1.172h1.734a1.036,1.036,0,0,1,1.172,1.172V86.43Zm6.562,0a1.036,1.036,0,0,1-1.172,1.172h-1.922a1.035,1.035,0,0,1-1.171-1.172V84.555a1.035,1.035,0,0,1,1.171-1.172h1.922a1.036,1.036,0,0,1,1.172,1.172V86.43Zm6.422,0a1.036,1.036,0,0,1-1.172,1.172h-1.781a1.036,1.036,0,0,1-1.172-1.172V84.555a1.036,1.036,0,0,1,1.172-1.172h1.781a1.036,1.036,0,0,1,1.172,1.172V86.43Zm-25.5,3.938a1.036,1.036,0,0,1-1.172,1.172h-1.218a1.036,1.036,0,0,1-1.172-1.172V88.3a1.036,1.036,0,0,1,1.172-1.172h1.218a1.036,1.036,0,0,1,1.172,1.172v2.063Zm12.516,1.875a1.036,1.036,0,0,1-1.172,1.172h-1.734a1.036,1.036,0,0,1-1.172-1.172V90.555a1.036,1.036,0,0,1,1.172-1.172h1.781a1.038,1.038,0,0,1,1.125,1.219v1.641Zm6.562,0a1.036,1.036,0,0,1-1.172,1.172h-1.922a1.035,1.035,0,0,1-1.171-1.172V90.555a1.035,1.035,0,0,1,1.171-1.172h1.969a1.038,1.038,0,0,1,1.125,1.219v1.641Zm6.422,0a1.036,1.036,0,0,1-1.172,1.172h-1.781a1.036,1.036,0,0,1-1.172-1.172V90.555a1.036,1.036,0,0,1,1.172-1.172h1.828a1.038,1.038,0,0,1,1.125,1.219v1.641Zm-24.984,4.641H277.641q-1.173,0-1.172-1.594t1.172-1.594h10.453q1.171,0,1.172,1.594t-1.172,1.594h0Zm6.7,4.172h19.875a1.231,1.231,0,1,0,0-2.438H294.75a1.229,1.229,0,1,0,.047,2.438h0Zm-8.016,5.859a2.05,2.05,0,0,1-1.219,1.781,31.042,31.042,0,0,1-5.156,2.3q-1.5.469-1.406-.7,0.141-2.436.094-4.734,0-1.125,1.218-.844a34.763,34.763,0,0,1,3.376,1.031q1.452,0.563,1.874-.469,0.564-1.125-.843-1.593-2.064-.609-4.125-1.078a1.644,1.644,0,0,1-1.5-1.782q0-1.5,1.172-1.5h5.343a1.036,1.036,0,0,1,1.172,1.172v6.422Zm8.11,3.984a1.286,1.286,0,0,0,1.5,1.407,1.967,1.967,0,0,1,1.968,1.547l0.61,2.25q0.327,1.5-.844,1.5h-4.313q-1.406,0-1.406,1.078t1.406,1.078H315q1.407,0,1.406-1.078T315,117.6h-4.031q-1.173,0-.7-1.547l0.656-2.3a1.761,1.761,0,0,1,1.875-1.453A1.243,1.243,0,0,0,314.2,110.9v-5.39A1.243,1.243,0,0,0,312.8,104.1H296.3a1.242,1.242,0,0,0-1.406,1.406v5.39Zm16.687-1.968a1.036,1.036,0,0,1-1.172,1.172H298.594a1.036,1.036,0,0,1-1.172-1.172v-1.453a1.036,1.036,0,0,1,1.172-1.172h11.859a1.037,1.037,0,0,1,1.125,1.218v1.407Zm-4.312,7.265a1.921,1.921,0,0,1-1.735,1.407h-2.343q-1.125,0-1.5-1.547l-0.657-2.25q-0.468-1.5.7-1.5h5.438q1.125,0,.8,1.547Zm16.64-32.484q-1.5,1.313-.515,2.016,1.03,0.75,2.2-.422,1.125-1.218,1.125.047a19.43,19.43,0,0,1-.235,3,1.363,1.363,0,0,1-1.359,1.453h-1.687q-1.407,0-1.407.938,0,0.891,1.407.891h1.312q1.125,0,1.219.328l-0.8,3.75a0.982,0.982,0,0,0,1.078,1.406h12.281q1.782-.375.75,1.172a3.141,3.141,0,0,1-3.14.609q-1.454-.187-1.313.7a1.349,1.349,0,0,0,1.5,1.031q3.8,0.657,4.969-2.016,0.327-1.5,1.219-1.5a0.745,0.745,0,0,0,.843-0.844,0.65,0.65,0,0,0-.656-0.8q-0.7,0-.609-1.172l0.187-1.406a1.287,1.287,0,0,1,1.5-1.266q1.359,0,1.36-.937,0-.89-1.266-0.891a1.011,1.011,0,0,1-1.219-1.172l0.141-3.047a1.2,1.2,0,0,0-1.359-1.406h-13.5q-1.314,0-.094-1.312a2.653,2.653,0,0,1,2.062-1.172h13.828q1.407,0,1.407-.937,0-.89-1.407-0.891H331.266q-1.22,0-.891-0.7,0.281-.609-0.937-0.937-1.08-.327-2.016,1.266a31.453,31.453,0,0,1-3.516,4.219h0ZM346.5,86.055q-1.266,1.406-.469,2.2,0.75,0.75,2.344-.844l1.172-1.453a2.924,2.924,0,0,1,2.2-1.406h5.344q1.171,0,.75,1.219A16.016,16.016,0,0,1,354.8,90.7q-1.312,1.313-2.391.094l-0.89-1.031q-0.986-1.359-1.875-.469-0.845.844,0.093,2.109l0.75,0.938q1.031,1.266-.093,2.109a23.794,23.794,0,0,1-3.7,2.2q-1.407.75-.329,1.828a1.8,1.8,0,0,0,2.391.094l3.328-2.109a2.176,2.176,0,0,1,2.813,0,20.341,20.341,0,0,0,7.031,3.328,1.564,1.564,0,0,0,2.016-.844q0.608-1.171-.8-1.594a21.78,21.78,0,0,1-7.641-3.609,22.767,22.767,0,0,0,4.875-7.687,1.905,1.905,0,0,1,1.875-1.5,1.143,1.143,0,0,0,1.359-1.219,1.167,1.167,0,0,0-1.406-1.219h-9.094q-1.219,0-.562-1.219l0.187-.422q0.657-1.5-.468-1.828t-1.875,1.313a31.707,31.707,0,0,1-3.891,6.094h0Zm-6,2.3q-0.047,1.453-1.219,1.453h-9.469q-1.125,0-.937-1.266l0.141-1.266a1.416,1.416,0,0,1,1.406-1.453h9.14a0.965,0.965,0,0,1,.985,1.266,5.781,5.781,0,0,0-.047,1.266h0Zm-6.938-.234q0.986,0.984,1.688.375,0.609-.515-0.609-1.406a1.444,1.444,0,0,0-1.594-.141q-0.516.328,0.515,1.172h0Zm6.516,5.906a1.363,1.363,0,0,1-1.359,1.453H328.594a0.844,0.844,0,0,1-.938-1.172,5.941,5.941,0,0,1,.328-1.219,1.6,1.6,0,0,1,1.547-1.453h9.516a1.016,1.016,0,0,1,1.125,1.172Zm-6.984-.234q0.938,0.891,1.547.422,0.655-.562-0.329-1.359a1.359,1.359,0,0,0-1.546-.328q-0.657.422,0.328,1.266h0ZM330.938,105.7a1.283,1.283,0,0,0-1.079,1.5q0.141,0.752,1.735.563a51.472,51.472,0,0,1,5.578-.328,0.358,0.358,0,0,1,.187.422l-1.125.609a56.176,56.176,0,0,1-7.5,2.3q-1.5.375-1.312,1.5a1.369,1.369,0,0,0,1.594,1.125q4.78,0,12.609-.516,1.452-.093,1.453,1.078v2.672a1.671,1.671,0,0,1-1.031,1.406,6.054,6.054,0,0,1-3.188.188q-1.5-.235-1.312,1.031a1.832,1.832,0,0,0,1.641,1.641,9.564,9.564,0,0,0,5.953-.985,3.284,3.284,0,0,0,.937-2.343v-3.844a1.188,1.188,0,0,1,1.172-1.313q4.688-.514,9.328-1.265a2.291,2.291,0,0,1,2.11.89,1.765,1.765,0,0,0,2.25.329q1.311-.562-0.235-2.11a27.351,27.351,0,0,0-3.8-3.234,2.557,2.557,0,0,0-2.578-.469q-1.171.469,0.094,1.453,1.405,1.266.187,1.594a97.875,97.875,0,0,1-19.031,1.687,0.552,0.552,0,0,1-.375-0.375,6.969,6.969,0,0,1,2.063-.89,55.778,55.778,0,0,0,14.437-6.141q1.359-.843.235-1.594-1.08-.748-2.766.282l-3.75,2.109a5.538,5.538,0,0,1-1.875.656l-6.563.469a5.492,5.492,0,0,1-2.062-.141,0.341,0.341,0,0,1-.094-0.421l1.172-.563q4.031-1.359,7.5-2.906,1.452-.656.281-1.031a3.088,3.088,0,0,0-2.578.515,62.642,62.642,0,0,1-10.265,4.453h0ZM351.8,115.773a63.465,63.465,0,0,1,7.969,2.954,1.553,1.553,0,0,0,2.25-.657q0.7-1.171-.844-1.734a67.59,67.59,0,0,0-7.688-2.3,1.966,1.966,0,0,0-2.156.656q-0.609.75,0.469,1.078h0Zm-26.625,1.313q-1.5.327-.8,1.547a1.617,1.617,0,0,0,2.109.844,45.6,45.6,0,0,0,8.438-3.235q1.405-.7.328-1.547a2.05,2.05,0,0,0-2.344-.047,35.876,35.876,0,0,1-7.734,2.438h0Z"/>
</svg>
