<svg xmlns="http://www.w3.org/2000/svg" width="1540" height="1450" viewBox="0 0 1540 1450">
  <defs>
    <style>
      .cls-1 {
        fill: #fff;
      }

      .cls-1, .cls-2, .cls-3 {
        fill-rule: evenodd;
      }

      .cls-2 {
        fill: #fefefe;
      }

      .cls-3 {
        fill: #fdfdfd;
      }
    </style>
  </defs>
  <path id="字体名称" class="cls-1" d="M98.5,173.953h57.227q4.879,0,4.882,4.883v47.656q0,4.884-4.882,4.883H107.875q-5.859,0-5.859,5.859,0,5.667,5.859,5.664h47.852q4.879,0,4.882,4.883v54.3q0,4.88-4.882,4.883H90.688q-5.859,0-5.859,5.859t5.859,5.86h155.86q5.859,0,5.859-5.86t-5.859-5.859H180.336q-4.884,0-4.883-4.883v-54.3q0-4.88,4.883-4.883h51.758q5.859,0,5.859-5.859,0-5.662-5.859-5.664H180.336q-4.884,0-4.883-4.883V178.836q0-4.88,4.883-4.883h60.352q5.859,0,5.859-5.664t-5.859-5.664H98.3q-5.667,0-5.664,5.859,0,5.47,5.859,5.469h0Zm258.4-11.328H339.32q-5.859,0-5.859,4.883t5.859,4.883H356.9q4.881,0,4.883,4.882V187.82q0,5.861,5.86,5.86h15.82q4.88,0,4.883,6.445,0,6.254-4.883,6.25H345.766q-5.861,0-5.86,5.859v24.024q0,5.859,5.86,5.859h37.695q4.88,0,4.883,4.883v4.492q0,4.884-4.883,4.883H344.984q-5.859,0-5.859,4.883t5.859,4.883h37.305q4.88,0,4.3,4.882a4.874,4.874,0,0,1-.586,2.539q-2.151,6.253-6.836,6.25h-45.9q-5.861,0-5.86,4.883t5.86,4.883h41.406q5.466,0,.195,5.469a16.728,16.728,0,0,1-3.711,3.711q-14.259,12.5-36.914,16.406-5.667.779-4.1,7.031,1.363,5.466,7.421,4.493,19.726-3.91,33.4-12.5,10.154-4.689,18.945-18.75,3.516-5.861,8.2-5.86h56.055q5.859,0,5.859-4.883t-5.859-4.883H401.625q-4.884,0-4.1-4.882a6.473,6.473,0,0,0,.586-2.539q1.173-6.249,5.86-6.25H444.2q5.859,0,5.859-4.883t-5.859-4.883H404.945q-4.884,0-4.883-4.883V247q0-4.879,4.883-4.883h38.477q5.859,0,5.859-5.859V212.234q0-5.859-5.859-5.859H404.945q-4.884,0-4.883-6.445,0-6.249,4.883-6.25h16.6q5.859,0,5.859-5.86V177.273q0-4.879,4.883-4.882h19.727q5.859,0,5.859-4.883t-5.859-4.883H432.289q-4.884,0-4.883-6.055,0-5.859-5.859-5.859t-5.859,5.859q0,6.057-4.883,6.055H378.383q-4.884,0-4.883-6.055,0-5.859-6.055-5.859-5.667,0-5.664,6.055,0,5.859-4.883,5.859h0Zm-58.2,4.3q6.053,4.688,12.11,9.961,5.859,5.47,10.156-.2,3.9-4.881-.977-9.376a159.137,159.137,0,0,0-13.476-10.156q-5.47-3.516-10.352,1.367-3.909,3.91,2.539,8.4h0Zm112.11,18.164H378.383q-4.884,0-4.883-6.445,0-6.249,4.883-6.25h32.422q4.879,0,4.883,6.445,0,6.253-4.883,6.25h0ZM288.148,211.453q7.81,6.254,15.625,13.281,5.077,5.082,9.375-.2,3.906-5.076-1.562-10.351a168.934,168.934,0,0,0-13.477-10.547q-5.859-3.708-9.961.586-4.1,4.1,0,7.226h0Zm100.2,15.625q0,4.884-4.883,4.883H357.289q-4.884,0-4.883-4.883v-6.055q0-4.879,4.883-4.882h26.367q4.688,0,4.688,5.078v5.859Zm48.437,0q0,4.884-4.883,4.883H404.945q-4.884,0-4.883-4.883v-6.055q0-4.879,4.883-4.882h27.149q4.688,0,4.687,5.078v5.859ZM289.32,312.039q-2.738,6.446,2.539,10.352,6.053,4.489,8.4-1.368a434.323,434.323,0,0,0,19.922-63.867q0.975-5.273-3.711-8.594-4.1-2.93-5.469,3.126a375.873,375.873,0,0,1-21.68,60.351h0Zm121.68-4.1a241.988,241.988,0,0,1,33.2,17.187q5.859,3.708,9.961-.977,3.9-4.494-2.539-8.2a300.988,300.988,0,0,0-33.008-16.211q-5.667-2.343-9.57,2.344-3.126,3.9,1.953,5.86h0Zm148.633-146.29q6.834,9.77-1.172,7.813H491.469q-5.86,0-5.86,5.859v24.805q0,5.859,5.86,5.859h1.367q5.859,0,5.859-5.859V186.648q0-4.879,4.883-4.882H633.07q4.879,0,4.883,4.882v13.477q0,5.859,5.859,5.859h1.563q5.859,0,5.859-5.859V175.32q0-5.859-5.859-5.859H581.7q-4.687,0-6.25-5.078-1.566-4.1-3.32-7.617-2.93-5.662-10.352-3.321-5.859,1.954-2.148,8.2h0Zm-38.672,55.469h94.727q5.859,0,5.859-6.25,0-6.051-5.859-6.055H520.766q-5.667,0-5.664,6.25,0,6.057,5.859,6.055h0Zm-27.344,37.5H558.07q4.879,0,4.883,4.883v61.133q0,5.859,5.859,5.859h2.149q5.859,0,5.859-5.859V259.5q0-4.879,4.883-4.883h61.914q5.859,0,5.86-6.25,0-6.051-5.86-6.055H493.227q-5.471,0-5.469,6.446,0,5.859,5.859,5.859h0Zm139.649,53.125q4.88,5.859,10.351.586,5.077-4.884-.976-10.937a364.438,364.438,0,0,0-27.539-24.61q-6.446-5.076-11.133-1.953-4.884,3.324,1.953,9.375,18.355,17.188,27.344,27.539h0Zm-140.821-5.469q-6.055,4.1-2.929,9.766,3.318,5.663,9.375,1.563,16.6-11.528,32.421-31.446,4.491-6.051,0-9.765-4.3-3.708-8.4,1.562-16.017,18.75-30.469,28.32h0Zm195.9-99.218q-4.687,5.667-3.516,11.718,0.975,5.274,7.422,4.3l18.164-3.515q5.859-.779,2.148,4.883a225.84,225.84,0,0,1-24.023,29.882q-5.274,5.471-3.711,11.719,1.562,5.667,7.813,5.078a281.923,281.923,0,0,0,44.921-8.4q5.861-1.561,7.227,3.515,0.975,5.082,7.031,2.93,4.879-1.363,3.125-7.812a135.029,135.029,0,0,0-7.422-20.7q-2.738-6.444-7.421-5.078-4.885,1.37-1.954,7.813l1.758,4.883q0.975,4.3-4.492,5.468-15.821,2.931-31.055,5.078-5.859.394-1.171-5.468a270.942,270.942,0,0,0,44.14-64.063q2.733-5.466-3.125-7.617-5.273-1.95-8.4,3.906-4.885,9.573-10.547,18.946-3.713,5.667-8.4,6.445a120.021,120.021,0,0,1-15.234,1.367q-5.274,0-1.367-5.078,10.935-13.476,22.656-43.164,2.147-6.051-3.711-7.813-5.667-1.95-7.617,4.1-9.77,27.15-23.242,46.68h0ZM764.32,321.414q0,5.859,5.86,5.859,5.663,0,5.664-5.859v-4.1q0-4.884,4.883-4.882h55.859q4.88,0,4.883,4.882v3.321q0,5.859,6.054,5.859,5.86,0,5.86-5.859V168.484q0-5.859-5.86-5.859H769.984q-5.667,0-5.664,6.055V321.414ZM802.6,227.078q0,4.884-4.883,4.883H780.727q-4.885,0-4.883-4.883V178.055q0-4.88,4.883-4.883h17.187q4.688,0,4.688,5.078v48.828Zm38.867,0q0,4.884-4.883,4.883H819.2q-4.884,0-4.883-4.883V178.055q0-4.88,4.883-4.883h17.578q4.688,0,4.688,5.078v48.828ZM802.6,296.609q0,4.881-4.883,4.883H780.727q-4.885,0-4.883-4.883V247.781q0-4.88,4.883-4.883h17.187q4.688,0,4.688,5.079v48.632Zm38.867,0q0,4.881-4.883,4.883H819.2q-4.884,0-4.883-4.883V247.781q0-4.88,4.883-4.883h17.578q4.688,0,4.688,5.079v48.632Zm-103.516-12.3a117.728,117.728,0,0,1,5.274,19.336q1.172,5.859,7.031,3.906,5.662-1.566,4.1-7.813a114.486,114.486,0,0,0-6.25-17.578q-2.539-5.859-7.617-4.3-4.5,1.37-2.539,6.446h0Zm-55.469,30.078q-1.954,6.051,3.321,8.594,5.076,2.535,7.031-3.711a157.1,157.1,0,0,0,6.445-32.227q0.587-6.249-4.492-7.422-5.08-.975-5.859,5.274a171.921,171.921,0,0,1-6.446,29.492h0Zm30.664-27.344q1.561,14.649,1.758,26.367,0,5.859,5.469,5.274t5.273-6.446a228.84,228.84,0,0,0-2.734-25.976q-1.171-7.224-6.25-6.25-4.3.783-3.516,7.031h0Zm183.985-68.945q0,5.859,5.859,5.859H958.07q4.879,0,4.883,4.883v6.836q0,4.884-4.883,4.883H898.5q-5.859,0-5.859,5.468t5.859,5.469h59.57q4.879,0,4.883,4.883v8.789q0,4.884-4.883,4.883H886.586q-5.859,0-5.859,5.469t5.859,5.468H1050.65c3.9,0,5.86-1.822,5.86-5.468s-1.96-5.469-5.86-5.469H980.336q-4.884,0-4.883-4.883v-8.789q0-4.879,4.883-4.883h61.134q5.865,0,5.86-5.469t-5.86-5.468H980.336q-4.884,0-4.883-4.883v-6.836q0-4.88,4.883-4.883h57.224q5.865,0,5.86-5.859v-55.86q0-5.859-5.86-5.859H902.6q-5.47,0-5.469,6.25v55.469Zm65.82-9.571q0,4.886-4.883,4.883H914.516q-4.885,0-4.883-4.883V172q0-4.879,4.883-4.883h43.75q4.688,0,4.687,5.078v36.328Zm67.777,0q0,4.886-4.89,4.883h-45.5q-4.884,0-4.883-4.883V172q0-4.879,4.883-4.883h45.7c3.12,0,4.69,1.694,4.69,5.078v36.328ZM927.8,185.086a95.806,95.806,0,0,1,8.594,13.281q2.535,5.471,7.617,2.344,4.879-2.733.781-9.57a119.719,119.719,0,0,0-7.031-10.157q-4.5-5.273-8.985-2.539-4.1,2.738-.976,6.641h0Zm66.211,7.031q-5.667,5.859-1.563,9.571,4.294,3.515,10.155-2.54a139.748,139.748,0,0,0,8.79-11.718q3.705-5.861-.98-8.789-4.29-2.733-8.39,3.515ZM886.2,314.383q-4.884,5.466,2.149,9.179,6.445,3.123,11.914-3.515a196.211,196.211,0,0,0,12.5-19.531q3.121-6.053-4.3-8.789-5.667-1.95-9.961,5.468-5.667,8.592-12.3,17.188h0ZM1028.97,301.3a154.274,154.274,0,0,1,10.55,20.312q2.535,5.861,9.76,2.735,5.865-2.344,2.93-8.4a133.548,133.548,0,0,0-12.3-21.093q-3.72-5.274-9.77-2.344-5.475,2.343-1.17,8.789h0ZM940.3,300.125a100.421,100.421,0,0,1,5.469,19.922q0.975,5.859,7.617,3.711,6.445-1.954,5.078-8.4a127.613,127.613,0,0,0-6.055-19.14q-2.539-5.86-9.375-3.907-5.08,1.37-2.734,7.813h0Zm50.195,18.555q1.562,6.248,8.4,4.1,6.253-1.954,4.489-7.812a87.054,87.054,0,0,0-8-18.75q-3.324-5.86-8.984-4.3-6.057,1.566-2.539,8.594a140.189,140.189,0,0,1,6.64,18.164h0ZM1183.66,164.188h-16.41q-5.865,0-5.86,5.859v46.484q0,5.86,5.86,5.86h79.3c3.9,0,5.86-1.953,5.86-5.86V170.047c0-3.906-1.96-5.859-5.86-5.859h-16.21q-4.89,0-4.89-6.446,0-6.247-4.88-6.25c-3.12,0-4.69,2.085-4.69,6.25q0,6.446-4.88,6.446h-8.01q-4.875,0-4.88-6.446,0-6.247-5.08-6.25c-3,0-4.49,2.149-4.49,6.446q0,6.252-4.88,6.25h0Zm-95.9,37.3q0,4.884-4.1,4.883c-2.48,0-3.71,1.953-3.71,5.859v10.743q0,5.859,5.07,5.859,5.085,0,5.08,4.883v45.9a106.53,106.53,0,0,1-6.83,34.766q-2.16,5.466,2.73,9.179,4.68,3.516,7.03-3.515a156.956,156.956,0,0,0,5.86-23.633q1.365-5.859,2.34-6.836c1.96,0,3.19,1.367,3.72,4.1q1.17,3.322,8.59.586a116.7,116.7,0,0,0,13.28-5.664q6.255-3.319,6.25,1.757,0.2,11.329-.39,22.657-3.72,5.272-10.55,2.929-6.255-.98-5.08,4.1,0.975,4.88,7.43,6.055,16.005,4.1,18.75-11.329V233.719q0-4.879,5.07-4.883,4.89,0,4.89-5.859V212.234q0-5.859-3.32-5.859c-2.22,0-3.32-1.627-3.32-4.883V162.234c0-3.906-1.96-5.859-5.86-5.859h-47.46q-5.475,0-5.47,6.25v38.867Zm48.63-26.562q0,4.884-4.88,4.882h-13.48q-5.865,0-5.86,5.86v15.82q0,4.884-4.88,4.883h-4.3q-4.875,0-4.88-4.883v-31.25q0-4.879,4.88-4.883h28.71q4.695,0,4.69,5.079v4.492Zm52.15,10.156q0,4.884-4.88,4.883h-7.23c-3.26,0-4.88-1.627-4.88-4.883v-7.813c0-3.253,1.62-4.882,4.88-4.882h7.23q4.875,0,4.88,4.882v7.813Zm27.34,0q0,4.884-4.88,4.883h-8.01q-4.875,0-4.88-4.883v-7.813q0-4.879,4.88-4.882H1211q4.875,0,4.88,4.882v7.813Zm26.76,0q0,4.884-4.88,4.883h-7.42q-4.89,0-4.89-4.883v-7.813q0-4.879,4.89-4.882h7.42q4.875,0,4.88,4.882v7.813Zm-106.25,16.406q0,4.884-4.88,4.883h-5.08c-3.26,0-4.88-1.627-4.88-4.883V192.9c0-3.253,1.62-4.882,4.88-4.882h5.08q4.875,0,4.88,4.882v8.594Zm52.15,7.813q0,4.884-4.88,4.883h-7.23c-3.26,0-4.88-1.627-4.88-4.883v-7.032c0-3.253,1.62-4.882,4.88-4.882h7.42q4.7,0,4.69,5.078v6.836Zm27.34,0q0,4.884-4.88,4.883h-8.01q-4.875,0-4.88-4.883v-7.032q0-4.879,4.88-4.882h8.21q4.68,0,4.68,5.078v6.836Zm26.76,0q0,4.884-4.88,4.883h-7.42q-4.89,0-4.89-4.883v-7.032q0-4.879,4.89-4.882h7.61q4.695,0,4.69,5.078v6.836Zm-104.1,19.336h-43.56q-4.875,0-4.88-6.641t4.88-6.641h43.56q4.875,0,4.88,6.641t-4.88,6.641h0Zm27.93,17.382h82.81q5.865,0,5.86-5.078t-5.86-5.078h-83.01q-5.655,0-5.66,5.274,0,4.884,5.86,4.882h0Zm-33.4,24.415q0,4.494-5.08,7.421a129.6,129.6,0,0,1-21.48,9.571q-6.255,1.954-5.86-2.93,0.585-10.154.39-19.727,0-4.687,5.08-3.515a146.1,146.1,0,0,1,14.06,4.3q6.045,2.343,7.81-1.953,2.34-4.687-3.51-6.641-8.6-2.536-17.19-4.492-6.255-1.172-6.25-7.422t4.88-6.25h22.27q4.875,0,4.88,4.883v26.758Zm33.79,16.6q0,5.859,6.25,5.859,6.045,0,8.2,6.446l2.54,9.375q1.365,6.248-3.51,6.25h-17.97q-5.865,0-5.86,4.492t5.86,4.492h88.28c3.9,0,5.86-1.5,5.86-4.492s-1.96-4.492-5.86-4.492h-16.8q-4.875,0-2.93-6.446l2.74-9.57q1.56-6.051,7.81-6.055,5.865,0,5.86-5.859V264.578q0-5.859-5.86-5.859h-68.75q-5.865,0-5.86,5.859v22.461Zm69.53-8.2q0,4.884-4.88,4.883h-49.22c-3.26,0-4.88-1.627-4.88-4.883v-6.055c0-3.253,1.62-4.883,4.88-4.883h49.41q4.695,0,4.69,5.079v5.859Zm-17.97,30.273q-2.535,5.861-7.22,5.86h-9.77q-4.7,0-6.25-6.446l-2.73-9.375q-1.965-6.248,2.93-6.25h22.65q4.7,0,3.32,6.446Zm69.34-135.351q-6.255,5.47-2.15,8.4,4.29,3.127,9.18-1.758,4.68-5.076,4.69.2a80.969,80.969,0,0,1-.98,12.5q-0.78,6.055-5.66,6.054h-7.04q-5.85,0-5.85,3.907,0,3.712,5.85,3.711h5.47q4.7,0,5.08,1.367l-3.32,15.625q-1.365,5.859,4.49,5.859h51.18q7.41-1.56,3.12,4.883-5.085,4.688-13.09,2.539-6.045-.778-5.46,2.93,0.585,3.909,6.25,4.3,15.81,2.738,20.7-8.4,1.365-6.247,5.08-6.25,3.51,0,3.51-3.515,0-3.319-2.73-3.321c-1.96,0-2.8-1.626-2.54-4.883l0.78-5.859q0.39-5.274,6.25-5.273c3.78,0,5.66-1.3,5.66-3.907,0-2.472-1.75-3.711-5.27-3.711q-5.475,0-5.08-4.882l0.59-12.7q0.195-5.859-5.67-5.859h-56.25q-5.46,0-.39-5.469,3.915-4.879,8.6-4.883h57.62q5.85,0,5.85-3.906,0-3.708-5.85-3.711h-51.96c-3.39,0-4.62-.976-3.71-2.93q1.17-2.535-3.91-3.906-4.485-1.363-8.39,5.274-8.985,12.3-14.65,17.578h0Zm94.14,9.765q-5.28,5.861-1.95,9.18,3.12,3.126,9.76-3.515l4.88-6.055q4.5-5.859,9.18-5.86h22.27c3.25,0,4.3,1.694,3.12,5.079q-3.705,10.156-12.69,20.507-5.475,5.47-9.96.391l-3.71-4.3q-4.11-5.662-7.82-1.953-3.51,3.516.4,8.789l3.12,3.906q4.29,5.274-.39,8.789a98.669,98.669,0,0,1-15.43,9.18q-5.865,3.126-1.37,7.617,3.7,3.909,9.96.391l13.87-8.789q6.255-4.294,11.72,0,15.42,10.743,29.3,13.867,5.85,1.566,8.39-3.516,2.55-4.88-3.32-6.64a90.778,90.778,0,0,1-31.83-15.039q15.615-17.578,20.31-32.032,2.145-6.247,7.81-6.25t5.67-5.078c0-3.384-1.96-5.078-5.86-5.078h-37.89q-5.085,0-2.35-5.078l0.79-1.758q2.73-6.248-1.96-7.617t-7.81,5.469a131.775,131.775,0,0,1-16.21,25.39h0Zm-25,9.571c-0.13,4.037-1.83,6.054-5.08,6.054h-39.45q-4.695,0-3.91-5.273l0.59-5.273q0.975-6.052,5.86-6.055h38.08c3,0,4.36,1.758,4.1,5.273a24.18,24.18,0,0,0-.19,5.274h0Zm-28.91-.977q4.11,4.1,7.03,1.563,2.535-2.148-2.54-5.86-3.9-2.343-6.64-.586-2.145,1.369,2.15,4.883h0Zm27.15,24.61q-0.78,6.056-5.66,6.054h-42.19q-4.89,0-3.91-4.883a24.622,24.622,0,0,1,1.37-5.078q1.56-6.051,6.45-6.054h39.64q4.7,0,4.69,4.882Zm-29.1-.977q3.9,3.712,6.44,1.758,2.745-2.345-1.36-5.664-3.915-2.93-6.45-1.367-2.73,1.756,1.37,5.273h0Zm-8.99,49.609q-5.265,1.758-4.49,6.25,0.585,3.128,7.23,2.344,16.215-1.562,23.24-1.367,1.17,0.979.78,1.758l-4.69,2.539a233.866,233.866,0,0,1-31.24,9.57q-6.255,1.566-5.47,6.25t6.64,4.688q19.92,0,52.54-2.149,6.045-.389,6.05,4.492v11.133q-0.2,3.708-4.3,5.86-3.9,1.95-13.28.781-6.255-.979-5.47,4.3a7.632,7.632,0,0,0,6.84,6.836q14.25,1.757,24.8-4.1a13.654,13.654,0,0,0,3.91-9.766V298.758q0-4.879,4.88-5.469,19.53-2.146,38.87-5.273,4.695-.779,8.79,3.711,3.12,3.909,9.37,1.367,5.475-2.344-.97-8.789a114.525,114.525,0,0,0-15.82-13.477q-5.865-4.1-10.74-1.953-4.89,1.954.39,6.055,5.85,5.272.78,6.64a407.968,407.968,0,0,1-79.3,7.032,2.313,2.313,0,0,1-1.56-1.563,28.933,28.933,0,0,1,8.59-3.711q27.345-6.637,60.16-25.586,5.655-3.516.97-6.64-4.485-3.123-11.52,1.171l-15.62,8.789c-3.39,1.694-5.99,2.607-7.82,2.735l-27.34,1.953q-5.865.393-8.59-.586a1.4,1.4,0,0,1-.39-1.758l4.88-2.344q16.8-5.663,31.25-12.109,6.045-2.733,1.17-4.3-4.5-1.56-10.74,2.149a260.968,260.968,0,0,1-42.78,18.554h0Zm86.92,41.993q12.3,3.318,33.2,12.3,5.865,2.929,9.38-2.734,2.925-4.884-3.52-7.227a281.2,281.2,0,0,0-32.03-9.57q-5.67-1.363-8.98,2.734-2.55,3.123,1.95,4.493h0Zm-110.94,5.468q-6.255,1.365-3.32,6.446,2.73,5.272,8.79,3.515a189.926,189.926,0,0,0,35.16-13.476q5.85-2.93,1.36-6.446-3.9-3.126-9.76-.195a149.563,149.563,0,0,1-32.23,10.156h0Z"/>
  <path id="中文示例" class="cls-2" d="M298.988,739.27l-0.683,9.96q-2.05,17.775-11.524,30.079-2.539,2.831-.293,5.468,2.148,2.44,4.981-.586,10.35-13.966,12.109-26.269,0.488-3.026,2.93-3.027h21.777a2.159,2.159,0,0,1,2.442,2.441v18.555a5.775,5.775,0,0,1-2.051,4.394q-4.2,1.172-11.914-.683-2.929-.685-2.149,2.929a4.32,4.32,0,0,0,3.614,3.516,68.516,68.516,0,0,0,11.425.879q7.128-1.076,7.227-7.91V705.188a2.59,2.59,0,0,0-2.93-2.93H301.723q-2.736,0-2.735,3.125V739.27Zm-43.261,30.273q0,2.929,3.125,2.93,3.026,0,3.027-2.735T264.32,767h12.793q2.44,0,2.442,2.051,0,1.856,3.125,1.855t3.125-2.93V707.434a2.59,2.59,0,0,0-2.93-2.93H258.559q-2.834,0-2.832,3.027v62.012Zm75-46.484a2.158,2.158,0,0,1-2.442,2.441h-20.7a2.157,2.157,0,0,1-2.441-2.441v-12.6a2.157,2.157,0,0,1,2.441-2.441h20.9q2.245,0,2.247,2.636v12.4Zm-51.172,7.129a2.158,2.158,0,0,1-2.442,2.441H264.32a2.157,2.157,0,0,1-2.441-2.441V712.707a2.157,2.157,0,0,1,2.441-2.441h12.793a2.159,2.159,0,0,1,2.442,2.441v17.481Zm51.172,16.894a2.158,2.158,0,0,1-2.442,2.441H307.094q-2.344,0-2.246-2.539,0.389-6.933.293-13.574a2.158,2.158,0,0,1,2.441-2.441h20.9q2.245,0,2.247,2.636v13.477ZM279.555,758.7a2.159,2.159,0,0,1-2.442,2.442H264.32a2.158,2.158,0,0,1-2.441-2.442V740.539a2.157,2.157,0,0,1,2.441-2.441h12.793a2.159,2.159,0,0,1,2.442,2.441V758.7Zm88.574-16.894a78.958,78.958,0,0,1-4.4,23.925,118.489,118.489,0,0,1-8.2,15.43q-1.758,2.929,1.367,4.59,2.931,1.659,4.981-1.27a69.5,69.5,0,0,0,10.351-24.218q0.586-3.125,2.93-3.125h44.824a2.159,2.159,0,0,1,2.442,2.441v16.211a5.55,5.55,0,0,1-2.344,4.98q-3.712.975-12.109-.781-3.224-.783-2.539,2.442l0.195,0.878a4.056,4.056,0,0,0,3.711,3.418q8.984,1.366,13.379.782,6.054-1.662,6.25-7.91V705.871a2.59,2.59,0,0,0-2.93-2.93H370.961q-2.834,0-2.832,3.028v35.84Zm54.3-17.383a2.158,2.158,0,0,1-2.442,2.441H376.82a2.157,2.157,0,0,1-2.441-2.441V711.242a2.158,2.158,0,0,1,2.441-2.441h43.164a2.159,2.159,0,0,1,2.442,2.441v13.184Zm0,24.609a2.159,2.159,0,0,1-2.442,2.442H376.332a1.98,1.98,0,0,1-2.246-2.442,120.161,120.161,0,0,0,.293-13.965,2.158,2.158,0,0,1,2.441-2.441h43.262q2.344,0,2.344,2.539v13.867Zm70.8-18.457a2.159,2.159,0,0,1-2.442,2.442H471.059a2.158,2.158,0,0,1-2.442-2.442V711.34q0-2.93-3.125-2.93t-3.125,2.93v24.609a2.59,2.59,0,0,0,2.93,2.93h25.488a2.159,2.159,0,0,1,2.442,2.441v31.739a2.159,2.159,0,0,1-2.442,2.441H466.566a2.158,2.158,0,0,1-2.441-2.441v-21q0-2.929-3.027-2.929t-3.028,2.929V778.43a2.589,2.589,0,0,0,2.93,2.929h64.844q2.439,0,2.441,3.223,0,3.125,3.125,3.125,3.026,0,3.028-2.93V752.062q0-2.929-3.126-2.929-3.027,0-3.027,2.929v21a2.159,2.159,0,0,1-2.441,2.441H501.82a2.158,2.158,0,0,1-2.441-2.441V741.32a2.158,2.158,0,0,1,2.441-2.441H527.6a2.589,2.589,0,0,0,2.929-2.93v-25q0-2.929-3.125-2.929-3.027,0-3.027,2.929v19.629a2.159,2.159,0,0,1-2.441,2.442H501.82a2.158,2.158,0,0,1-2.441-2.442V702.746q0-2.929-3.223-2.93-2.93,0-2.929,3.125v27.637Zm69.824-19.922H590.1a2.159,2.159,0,0,1,2.441,2.442v14.16l-0.2,4.3q-0.2,3.126-2.637,3.125H556.7q-2.929,0-2.93,2.832t2.93,2.832h32.715q2.245,0,1.855,2.734-4.3,25.88-34.668,37.4-2.929,1.074-1.562,4,1.366,3.027,5.078,1.661a76.656,76.656,0,0,0,9.766-4.59q21.387-11.815,25.976-28.614,1.269-2.732,2.442-.39a71.236,71.236,0,0,0,34.082,33.2q3.222,1.659,5.273-1.66l0.586-.782q1.659-2.636-1.465-4a71.845,71.845,0,0,1-24.609-17.481A64.116,64.116,0,0,1,600.16,742.98q-0.976-2.636,1.367-2.636H635.9q2.929,0,2.93-2.832t-2.93-2.832h-34.57a2.158,2.158,0,0,1-2.441-2.442l0.2-6.25V713.1a2.158,2.158,0,0,1,2.441-2.442H631.02a2.93,2.93,0,0,0,0-5.859H562.855q-2.735,0-2.734,3.027,0,2.834,2.93,2.832h0Zm129.785,63.77a2.159,2.159,0,0,1-2.441,2.441H667.543a2.158,2.158,0,0,1-2.441-2.441V717.3a2.59,2.59,0,0,0-2.93-2.93h-0.781a2.59,2.59,0,0,0-2.93,2.93V780.09a2.59,2.59,0,0,0,2.93,2.93h64.062q2.441,0,2.442,1.562,0,1.465,2.929,1.465h0.684a2.59,2.59,0,0,0,2.93-2.93V716.906a2.589,2.589,0,0,0-2.93-2.929h-0.684a2.589,2.589,0,0,0-2.929,2.929v57.52a2.159,2.159,0,0,1-2.442,2.441H702.309a2.158,2.158,0,0,1-2.442-2.441V702.355a2.589,2.589,0,0,0-2.929-2.929H695.57q-2.735,0-2.734,3.125v71.875ZM824.867,704.8H805.922q-2.929,0-2.93,2.734t2.93,2.735h18.945q2.441,0,2.442,2.246,0,2.051,3.125,2.05,3.026,0,3.027-2.148t2.441-2.148h3.614q2.93,0,2.929-2.735t-2.929-2.734H835.9q-2.442,0-2.441-2.539,0-2.441-3.223-2.442-2.93,0-2.929,2.539a2.158,2.158,0,0,1-2.442,2.442h0Zm33.594,0h-3.613q-2.929,0-2.93,2.734t2.93,2.735h3.613q2.44,0,2.441,2.246,0,2.051,3.125,2.05t3.125-2.148q0-2.147,2.442-2.148h18.75q2.929,0,2.929-2.735t-2.929-2.734h-18.75q-2.442,0-2.442-2.539,0-2.441-3.222-2.442-3.029,0-3.028,2.539a2.158,2.158,0,0,1-2.441,2.442h0Zm-53.027,25.391q-2.931.878-1.661,3.71,1.173,2.249,4.493,1.27,8.005-2.637,16.015-5.664,3.026-1.172,3.028-.1,0,0.879,2.929.879h33.106q2.929,0,2.929-1.367,0-1.465,2.539-.293,6.836,2.929,16.5,5.957a3.371,3.371,0,0,0,4.395-1.758q1.268-2.343-2.051-3.222a176.124,176.124,0,0,1-33.789-12.793q-3.222-1.561-2.441-2.247,0.681-.488-2.246-1.367a6.655,6.655,0,0,0-5.664,1.075,145.318,145.318,0,0,1-38.086,15.918h0Zm54.589-4.786q0.294,0.686-2.929,1.075H835.9a3.54,3.54,0,0,1-1.562-.586q-0.293-.39,2.148-2.246l7.129-3.907q3.026-1.854,5.371-.683l7.422,4a8.286,8.286,0,0,1,3.613,2.343h0ZM815.1,757.824a45.909,45.909,0,0,1-.782,6.348,25.577,25.577,0,0,1-8.3,15.918q-3.029,2.538-1.075,4.687,1.953,2.245,4.981-.1,7.421-6.936,9.082-13.477a55.362,55.362,0,0,0,1.269-6.738q0.195-3.026,2.637-3.027H875.16a2.59,2.59,0,0,0,2.93-2.93V739.855a2.589,2.589,0,0,0-2.93-2.929H817.836q-2.735,0-2.734,3.125v17.773ZM870.18,747.57H823.012q-2.442,0-2.442-3.222,0-3.124,2.442-3.125h47.363q2.245,0,2.246,3.32,0,3.029-2.441,3.027h0Zm0,9.668H823.012q-2.442,0-2.442-3.125t2.442-3.125h47.265q2.245,0,2.344,3.223,0,3.029-2.441,3.027h0Zm-47.559,28.321q0,2.929,3.125,2.929,3.026,0,3.027-1.953t2.442-1.953h40.43q2.439,0,2.441,2.051,0,1.854,3.125,1.855t3.125-2.929V771.594a2.59,2.59,0,0,0-2.93-2.93H825.355q-2.735,0-2.734,3.125v13.77Zm51.465-7.227a2.158,2.158,0,0,1-2.441,2.441h-40.43a2.158,2.158,0,0,1-2.442-2.441v-3.418a2.158,2.158,0,0,1,2.442-2.441H871.84q2.245,0,2.246,2.636v3.223Zm85.547-72.754a2.159,2.159,0,0,1-2.442,2.442h-4a2.589,2.589,0,0,0-2.93,2.929q0,2.834,2.93,2.832h4a2.159,2.159,0,0,1,2.442,2.442v1.367q0,2.929,3.125,2.93,3.025,0,3.027-2.93v-1.367a2.158,2.158,0,0,1,2.442-2.442h19.628a2.589,2.589,0,0,0,2.93-2.929q0-2.832-2.93-2.832H968.227a2.158,2.158,0,0,1-2.442-2.442v-3.223q0-2.929-3.223-2.929-2.929,0-2.929,3.125v3.027Zm-33.2,0a2.159,2.159,0,0,1-2.442,2.442H905.434a2.589,2.589,0,0,0-2.93,2.929q0,2.834,2.93,2.832h18.554a2.159,2.159,0,0,1,2.442,2.442v2.148q0,2.929,3.125,2.93,3.026,0,3.027-2.93v-2.148a2.158,2.158,0,0,1,2.441-2.442h4a2.589,2.589,0,0,0,2.93-2.929q0-2.832-2.93-2.832h-4a2.158,2.158,0,0,1-2.441-2.442v-2.832q0-2.929-3.223-2.93-2.93,0-2.929,3.125v2.637Zm-15.137,22.949a104.339,104.339,0,0,1,8.594,6.348q2.637,2.344,4.98-.586,1.953-2.538-.879-4.785-3.321-2.538-6.64-4.688-2.736-1.56-5.078.879-2.052,2.149-.977,2.832h0ZM957,725.7q-3.029.783-.879,3.711a31.069,31.069,0,0,1,2.149,4.1q1.268,2.637-1.172,2.637H935.512a2.93,2.93,0,1,0,0,5.859h2.441a2.159,2.159,0,0,1,2.442,2.441v32.227q0.975,5.274,7.421,6.348a64.6,64.6,0,0,0,11.426.781h15.625q4.982-.392,9.571-0.489,2.929-.2,2.929-3.222,0-2.736-3.125-2.539l-8.789.39h-17.48a40.513,40.513,0,0,1-7.715-.781q-4.4-1.368-3.32-5.078V744.445A2.158,2.158,0,0,1,949.379,742h38.476a2.93,2.93,0,1,0,0-5.859H969.3a3.567,3.567,0,0,1-3.418-2.344q-0.293-1.758-2.832-6.25a4,4,0,0,0-4.981-2.149Zm-50.781,21.192q2.538,1.955,5.078,4.2,3.025,2.833,5.273.1,1.953-2.637-1.269-5.567l-4.785-3.711a3.805,3.805,0,0,0-5.274.586q-2.15,2.149.977,4.395h0Zm2.637,32.031q-2.541,2.733.39,4.785,2.733,1.953,5.078-.586A101.014,101.014,0,0,0,927.9,764.27q1.659-3.224-.782-4.981-2.54-1.854-4.3,1.27a106.173,106.173,0,0,1-13.964,18.359h0ZM1012.56,706.75h27.83a2.163,2.163,0,0,1,2.45,2.441v2.735a2.163,2.163,0,0,1-2.45,2.441h-33.78a2.587,2.587,0,0,0-2.93,2.93v10.058q0,2.931,3.12,2.93,3.03,0,3.03-2.93v-5.664a2.156,2.156,0,0,1,2.44-2.441h28.12a2.163,2.163,0,0,1,2.45,2.441v18.848q0,2.929,3.12,2.93,3.03,0,3.03-2.93V721.691a2.156,2.156,0,0,1,2.44-2.441h29.2a2.156,2.156,0,0,1,2.44,2.441v5.664q0,2.931,3.03,2.93c2.01,0,3.02-.976,3.02-2.93V717.3a2.584,2.584,0,0,0-2.92-2.93h-34.77a2.156,2.156,0,0,1-2.44-2.441v-2.735a2.156,2.156,0,0,1,2.44-2.441h29.1c1.95,0,2.93-.813,2.93-2.441s-0.98-2.442-2.93-2.442h-68.16c-1.83,0-2.74.847-2.74,2.539,0,1.563.98,2.344,2.93,2.344h0Zm43.65,20.605q-2.925.49-2.05,3.028t4.5,1.855a147.808,147.808,0,0,0,16.4-4q2.835-.78,1.66-3.027-0.975-2.05-3.9-1.172a124.145,124.145,0,0,1-16.61,3.32h0Zm-40.72.879a136.737,136.737,0,0,1,17.58,3.907q3.42,0.977,4.39-1.563c0.59-1.692-.26-2.832-2.53-3.418q-7.23-1.854-16.41-3.32-2.925-.39-3.81,1.855-0.78,2.345.78,2.539h0Zm39.65,12.891q10.155,1.171,21.48,3.516,3.33,0.684,4.2-1.953,0.975-2.44-2.44-3.126-10.245-1.952-20.8-3.027a3.082,3.082,0,0,0-3.42,2.246c-0.58,1.5-.26,2.28.98,2.344h0Zm-38.57-1.074c-2.02.195-2.71,1.2-2.05,3.027q0.87,2.344,4.19,1.953,9.285-1.267,16.7-2.929,2.94-.587,1.86-3.028-0.975-2.343-4.1-1.66-8.31,1.563-16.6,2.637h0Zm-1.76,14.844h62.4c1.95,0,2.93-.846,2.93-2.54s-0.98-2.539-2.93-2.539h-62.5c-1.89,0-2.83.879-2.83,2.637,0,1.628.98,2.442,2.93,2.442h0Zm-8.6,12.89h20.61c1.5,0,1.56.945,0.2,2.832a41.837,41.837,0,0,1-12.41,9.668c-2.15.977-2.99,2.278-2.54,3.906a3.652,3.652,0,0,0,3.81,2.735q29.01-.978,56.06-3.516,2.925-.2,5.66,2.637,2.34,2.929,4.98,1.269,2.535-1.563.39-4.2a88.343,88.343,0,0,0-12.01-10.547q-2.64-1.854-4.98-.39-2.055,1.271,1.07,3.808c2.09,1.692,2.28,2.637.59,2.832q-20.31,2.148-41.41,2.735-3.21.193-.78-2.051a58.854,58.854,0,0,0,9.09-8.789c1.62-1.953,3.22-2.93,4.78-2.93h47.46c1.95,0,2.93-.845,2.93-2.539s-0.98-2.539-2.93-2.539h-80.57c-1.95,0-2.92.847-2.92,2.539s0.97,2.539,2.92,2.539h0Zm121.98-47.265q-2.64,3.126-.1,5.078t5.08-1.172q2.835-4,5.17-8.008c1.18-1.953,2.54-2.93,4.11-2.93h43.94c1.95,0,2.93-.911,2.93-2.734s-0.98-2.734-2.93-2.734h-41.11c-1.7,0-2.15-.846-1.37-2.54a10.287,10.287,0,0,1,.88-2.148q0.975-2.733-2.15-3.613-2.73-.879-3.91,2.246-6.24,13.183-10.54,18.555h0Zm-17.97-12.891a79.809,79.809,0,0,1,7.71,5.957q2.835,2.541,5.08-.391c1.56-1.887,1.34-3.677-.68-5.371a79.126,79.126,0,0,0-7.81-5.273q-2.835-1.758-5.28.879c-1.36,1.5-1.04,2.9.98,4.2h0Zm24.32,34.766c-0.14,2.084-1.01,3.125-2.64,3.125h-3.52c-1.95,0-2.93.912-2.93,2.734s0.98,2.734,2.93,2.734h2.83c1.57,0,2.22.879,1.96,2.637q-0.975,9.668-2.64,17.871c-0.33,1.953.49,2.93,2.44,2.93h39.55c1.63,0,2.28.845,1.96,2.539a5.453,5.453,0,0,1-2.93,4.687q-3.72.682-11.33-.879c-1.95-.39-2.77.391-2.44,2.344l0.19,0.977a3.984,3.984,0,0,0,3.52,3.418,40.176,40.176,0,0,0,11.13.2q6.45-1.076,7.91-10.254c0.26-2.019,1.21-3.027,2.83-3.027h3.03c1.95,0,2.93-.911,2.93-2.735,0-1.757-.98-2.636-2.93-2.636h-2.44c-1.5,0-2.18-.879-2.05-2.637l1.07-12.3q0.195-3.125,2.64-3.125h3.71c1.95,0,2.93-.911,2.93-2.734s-0.98-2.734-2.93-2.734h-3.22a2.072,2.072,0,0,1-2.35-2.442l0.59-17.187c0.06-1.953-.88-2.93-2.83-2.93h-42.68q-2.925,0-3.03,3.027Zm-30.18-12.012a99.134,99.134,0,0,1,8.98,5.762c2.09,1.562,3.84,1.4,5.28-.489q2.34-3.124-1.08-5.371l-6.74-3.906c-1.88-.977-3.61-0.618-5.17,1.074-1.43,1.628-1.86,2.605-1.27,2.93h0Zm72.95,12.012q-0.195,3.126-2.64,3.125h-32.13a1.976,1.976,0,0,1-2.24-2.442l1.07-11.621q0.2-3.125,2.64-3.125h31.25a2.16,2.16,0,0,1,2.44,2.441Zm-24.61-5.86q3.225,1.758,6.44,3.809,3.135,1.955,4.69,0,1.665-2.148-1.56-4a39.488,39.488,0,0,0-6.64-3.32q-2.835-1.366-4.69.39-1.47,1.465,1.76,3.125h0Zm-46.68,43.75q-1.47,3.026,2.15,5.567c1.89,1.367,3.28,1.04,4.2-.977a199.572,199.572,0,0,0,8.98-26.563,4.812,4.812,0,0,0-1.95-5.175q-2.445-1.854-3.52,1.367a154.752,154.752,0,0,1-9.86,25.781h0Zm69.82-14.355c-0.13,2.084-1.01,3.125-2.63,3.125h-34.48c-1.56,0-2.14-.879-1.75-2.637q1.17-6.346,1.95-12.4c0.26-2.018,1.2-3.028,2.83-3.028h32.81c1.5,0,2.22.879,2.15,2.637q-0.2,6.153-.88,12.3h0ZM1153.48,759q3.51,2.442,6.93,5.274,2.94,2.833,4.69.488,1.665-2.246-1.46-4.688a51.4,51.4,0,0,0-6.84-4.492q-2.925-1.659-4.59,0-1.56,1.563,1.27,3.418h0Zm52.54,26.172q0,2.929,3.22,2.93,3.135,0,3.13-2.93V737.707a2.156,2.156,0,0,1,2.44-2.441h22.65a2.587,2.587,0,0,0,2.93-2.93V705.48a2.587,2.587,0,0,0-2.93-2.929h-28.61c-1.89,0-2.83,1.01-2.83,3.027v79.59Zm45.02-52.832a2.591,2.591,0,0,0,2.93,2.93h23.53a2.163,2.163,0,0,1,2.45,2.441v39.746a4.742,4.742,0,0,1-2.45,4.2,34.09,34.09,0,0,1-9.76-.488q-2.64-.391-1.86,3.223,0.69,3.026,4.3,3.418a82.254,82.254,0,0,0,8.89.293q6.825-.978,7.13-8.5V705.48a2.591,2.591,0,0,0-2.93-2.929h-29.4c-1.89,0-2.83,1.01-2.83,3.027v26.758Zm-16.8-18.555a2.156,2.156,0,0,1-2.44,2.442h-16.99a2.156,2.156,0,0,1-2.44-2.442v-3.32a2.156,2.156,0,0,1,2.44-2.441H1232c1.49,0,2.24.878,2.24,2.636v3.125Zm45.71,0a2.163,2.163,0,0,1-2.45,2.442h-17.87a2.156,2.156,0,0,1-2.44-2.442v-3.32a2.156,2.156,0,0,1,2.44-2.441h18.07q2.25,0,2.25,2.636v3.125Zm-45.71,13.574a2.156,2.156,0,0,1-2.44,2.442h-16.99a2.156,2.156,0,0,1-2.44-2.442v-4a2.157,2.157,0,0,1,2.44-2.442h17.09q2.34,0,2.34,2.539v3.906Zm45.71,0a2.163,2.163,0,0,1-2.45,2.442h-17.87a2.156,2.156,0,0,1-2.44-2.442v-4a2.157,2.157,0,0,1,2.44-2.442h17.97c1.56,0,2.35.847,2.35,2.539v3.906Zm-53.52,46.485a2.591,2.591,0,0,0,2.93,2.93h33.89a2.591,2.591,0,0,0,2.93-2.93V745.227a2.591,2.591,0,0,0-2.93-2.93h-34.09q-2.73,0-2.73,3.125V773.84Zm33.98-19.434a2.156,2.156,0,0,1-2.44,2.442h-23.34a2.156,2.156,0,0,1-2.44-2.442v-4.492a2.156,2.156,0,0,1,2.44-2.441h23.44q2.34,0,2.34,2.539v4.394Zm0,14.746a2.156,2.156,0,0,1-2.44,2.442h-23.34a2.156,2.156,0,0,1-2.44-2.442v-5.273a2.156,2.156,0,0,1,2.44-2.441h23.44q2.34,0,2.34,2.539v5.175Zm-993.746,150a2.159,2.159,0,0,1-2.441,2.442h-8.789q-2.931,0-2.93,2.734t2.93,2.734H261.1a2.159,2.159,0,0,1,2.441,2.442v21.875a8.16,8.16,0,0,1-.586,3.516q-0.783,1.072.586,4.2a4.1,4.1,0,0,0,4.981,2.441,157.028,157.028,0,0,0,19.531-5.273q3.026-1.075,2.637-3.907t-3.321-1.953q-7.422,2.148-14.551,3.907-3.126.78-3.125-1.661V929.5a2.159,2.159,0,0,1,2.442-2.442h63.281q2.93,0,2.93-2.734t-2.93-2.734H275.355a2.158,2.158,0,0,1-2.441-2.442v-4.394a2.158,2.158,0,0,1,2.441-2.442h48.926q2.929,0,2.93-2.539t-2.93-2.539H275.355a2.157,2.157,0,0,1-2.441-2.441v-4.59a2.157,2.157,0,0,1,2.441-2.441h48.926q2.929,0,2.93-2.442t-2.93-2.441H275.355a2.157,2.157,0,0,1-2.441-2.442v-4.589a2.158,2.158,0,0,1,2.441-2.442h53.223q2.93,0,2.93-2.734t-2.93-2.735H269.5q-2.833,0-2.832,3.028v38.183Zm25.293,17.676A54.718,54.718,0,0,0,305.336,950.4a60.846,60.846,0,0,0,30.469,10.45q3.124,0.1,3.808-2.54,0.879-3.027-2.734-3.32-12.6-1.27-20.9-5.273-3.321-1.661-.976-3.028a72.915,72.915,0,0,0,10.254-6.836q3.125-2.538,1.172-4.98t-4.492-.2a74.393,74.393,0,0,1-11.719,8.2,5.15,5.15,0,0,1-5.86-.781,47.451,47.451,0,0,1-7.812-8.5q-1.857-2.831-4.3-1.171-2.247,1.464-.293,4.394h0Zm68.848-18.75a117.812,117.812,0,0,1-6.446,37.207q-1.269,3.223,1.465,4.785,3.026,1.758,4.2-1.66a136.817,136.817,0,0,0,6.543-37.4V885.07a2.159,2.159,0,0,1,2.442-2.441h51.074a2.158,2.158,0,0,1,2.441,2.441v12.3q0.39,36.72,5.176,57.031,1.561,5.957,5.957,7.715,5.077,1.465,7.422-4.785a49.584,49.584,0,0,0,1.953-10.645q0.294-2.732-2.929-3.906-2.931-.975-3.028,1.953,0,4.1-.39,8.106-0.294,1.951-1.368,2.051-2.734-.783-3.125-4.59-3.126-20.311-3.418-55.078V880.188a2.687,2.687,0,0,0-3.027-2.93H363.539q-2.734,0-2.734,3.125v37.695Zm13.867-20.7h14.062a2.159,2.159,0,0,1,2.442,2.441v7.422a2.159,2.159,0,0,1-2.442,2.442h-12.89a2.589,2.589,0,0,0-2.93,2.929V934a2.59,2.59,0,0,0,2.93,2.93h12.89a2.159,2.159,0,0,1,2.442,2.441v9.571a2.4,2.4,0,0,1-2.539,2.636l-15.918,1.563q-3.224.293-2.637,3.125,0.587,3.222,3.516,2.929,18.552-1.955,39.55-5.371a11.617,11.617,0,0,1,1.563,2.93q1.074,2.538,3.906,1.367,3.124-1.27,1.367-4.785-2.734-4.884-5.957-9.766-2.148-2.929-4.687-1.757-2.637,1.269-.586,4.1,1.854,3.128-.684,3.32-4.005.682-8.008,0.977-3.027.293-3.027-2.148v-8.692a2.158,2.158,0,0,1,2.442-2.441h13.769a2.59,2.59,0,0,0,2.93-2.93V912.609a2.589,2.589,0,0,0-2.93-2.929H399.477a2.158,2.158,0,0,1-2.442-2.442v-7.422a2.158,2.158,0,0,1,2.442-2.441h15.039q2.929,0,2.929-2.539t-2.929-2.539H374.672q-2.93,0-2.93,2.539t2.93,2.539h0Zm16.5,31.738a2.159,2.159,0,0,1-2.442,2.442h-7.617a2.158,2.158,0,0,1-2.441-2.442V917.4a2.158,2.158,0,0,1,2.441-2.442h7.715q2.344,0,2.344,2.539v11.621Zm19.238,0a2.159,2.159,0,0,1-2.441,2.442h-8.5a2.158,2.158,0,0,1-2.442-2.442V917.4a2.158,2.158,0,0,1,2.442-2.442h8.593q2.344,0,2.344,2.539v11.621Zm87.109-8.593q0.683,3.126-1.757,3.125H456.41q-2.93,0-2.93,2.343t2.93,2.344h11.914q2.147,0,2.051,2.734a40.657,40.657,0,0,1-2.637,11.622q-4.393,8.985-12.207,12.109-2.637,1.171-.586,4,1.758,2.439,4.785,1.074a29.265,29.265,0,0,0,14.063-15.918q1.172-3.125,3.516-2.051a44.211,44.211,0,0,1,8.984,5.078q2.637,1.954,4.687-.879,1.854-2.538-1.074-4.492a95.288,95.288,0,0,0-10.547-5.761,4.234,4.234,0,0,1-2.832-4.395q0.195-3.125,2.637-3.125h17.871a3.39,3.39,0,0,1,3.32,2.344,79.5,79.5,0,0,0,6.934,13.672q2.245,3.027-.293,4.1a131.269,131.269,0,0,1-21.582,7.422q-2.929.683-1.562,3.32a3.363,3.363,0,0,0,4.2,1.856,153.992,153.992,0,0,0,22.363-7.617,4.273,4.273,0,0,1,5.176.781q7.617,6.738,13.281,8.4,5.663,2.052,9.082-3.613a34.347,34.347,0,0,0,2.539-6.836q0.683-2.929-2.246-4.59-2.834-1.56-3.125,1.368l-0.391,2.929q-0.782,6.446-5.078,4.785-3.126-.783-7.812-4.59-2.736-2.734-.1-4.785a67.229,67.229,0,0,0,11.817-9.668q2.929-2.93-.1-4.394-2.929-1.367-5.566,1.269a104.151,104.151,0,0,1-10.059,8.008q-3.126,1.955-3.516,1.856a60.631,60.631,0,0,1-7.715-13.379q-0.878-2.637,1.465-2.637h29.688q2.929,0,2.93-2.344t-2.93-2.343h-6.641q-2.343,0-4.59-2.833a4.572,4.572,0,0,0-.879-1.171q-2.734-2.929-5.273-1.661-2.442,1.077-.586,3.321,1.367,2.343-1.172,2.344H506.605a2.963,2.963,0,0,1-3.027-2.54,258.037,258.037,0,0,1-3.516-43.164q0-3.222-2.832-3.515-2.93-.39-2.929,2.636a296.772,296.772,0,0,0,3.222,43.458h0Zm10.254-29.3q-3.027,3.027-2.441,5.468,0.389,2.541,3.32,2.051l6.055-1.269q2.929-.39,3.32,0-0.1,2.051-2.832,4.2a43.972,43.972,0,0,1-7.129,5.566q-3.126,1.955-2.441,4.492a3.3,3.3,0,0,0,3.809,2.54,170.357,170.357,0,0,0,20.019-3.321q3.222-.78,4.1,1.367a3.049,3.049,0,0,1,.488,1.172q0.879,3.127,3.418,2.149,2.637-1.074,1.562-4.492l-3.613-9.766q-1.368-3.125-3.809-2.051t-1.269,3.711q1.074,2.541-1.66,3.223-4.884,1.172-9.766,1.953-2.929.391-.293-2.149A86.736,86.736,0,0,0,532.484,888.2q1.66-2.831-.976-3.613-2.736-.879-4.688,2.637l-2.636,3.906a6.524,6.524,0,0,1-3.516,2.148,55.238,55.238,0,0,1-8.3.977q-0.292-.389,2.246-3.32a64.686,64.686,0,0,0,7.129-11.133q1.659-3.224-.781-4-2.541-.78-4.2,2.539a46.194,46.194,0,0,1-8.985,12.891h0Zm-47.656,1.367q-3.42,3.42-3.027,5.762,0.585,2.929,4,2.343a66.19,66.19,0,0,0,7.129-1.562q2.439,0,2.246.976a39.574,39.574,0,0,1-11.328,10.254q-3.029,1.758-2.344,4.492a3.3,3.3,0,0,0,3.613,2.637,190.215,190.215,0,0,0,23.242-3.808q3.026-.781,4,1.269,0.488,2.051,2.637,1.074,2.343-1.072,1.66-4.3-1.075-4.881-2.637-9.765-0.977-2.93-3.32-1.953-2.051.879-.879,4.785,0.879,3.222-1.172,3.906a116.118,116.118,0,0,1-11.719,2.344q-3.126.1-3.027-.781a6.017,6.017,0,0,1,1.074-1.465,83.381,83.381,0,0,0,14.649-18.946q2.05-3.318-.879-4.2-2.541-.78-4.1,2.149l-2.441,3.906a7.712,7.712,0,0,1-4.3,3.418,51.685,51.685,0,0,1-6.738.879q-2.929-.1-0.293-3.028a71.807,71.807,0,0,0,8.008-12.6q1.56-3.125-.879-3.809-2.541-.879-4,2.344a62.953,62.953,0,0,1-9.18,13.672h0Zm114.258-11.817H557.094q-2.93,0-2.93,2.637t2.93,2.637h17.285a2.159,2.159,0,0,1,2.441,2.441q0,2.344,2.93,2.344,2.832,0,2.832-2.344a2.158,2.158,0,0,1,2.441-2.441h4q2.929,0,2.93-2.637t-2.93-2.637h-4q-2.442,0-2.441-3.027,0-2.929-3.027-2.93-2.736,0-2.735,3.028,0,2.929-2.441,2.929h0Zm32.812,0h-4q-2.931,0-2.93,2.637t2.93,2.637h4a2.159,2.159,0,0,1,2.442,2.441q0,2.344,2.929,2.344,2.832,0,2.833-2.344a2.158,2.158,0,0,1,2.441-2.441H636.2q2.929,0,2.93-2.637t-2.93-2.637H617.836q-2.442,0-2.441-3.027,0-2.929-3.028-2.93-2.735,0-2.734,3.028,0,2.929-2.442,2.929h0ZM563.93,920.617a2.589,2.589,0,0,0,2.929,2.93H590.4a2.159,2.159,0,0,1,2.441,2.441v2.344a2.158,2.158,0,0,1-2.441,2.441H567.152q-2.442,0-2.441-1.66,0-1.56-2.93-1.562t-2.929,1.562q0,1.662-3.223,1.66-3.126,0-3.125,2.442t3.125,2.441q3.222,0,3.223,2.442v21.679a2.93,2.93,0,1,0,5.859,0V938.1a2.158,2.158,0,0,1,2.441-2.442H590.4a2.159,2.159,0,0,1,2.441,2.442v8.984a2.257,2.257,0,0,1-2.441,2.539q-9.082.488-18.165,0.488-2.636.1-1.953,3.321,0.487,2.538,3.711,2.441a372.579,372.579,0,0,0,42.09-3.613q2.929-.294,3.613.781t3.125-.391q2.344-1.368.489-4.3a62.944,62.944,0,0,0-5.469-6.836q-3.126-3.125-5.176-1.856-2.149,1.465,1.074,5.078,2.148,2.541-.2,2.93-6.056.783-11.816,1.172-3.029.1-3.028-2.344v-8.4a2.159,2.159,0,0,1,2.442-2.442H627.9a2.159,2.159,0,0,1,2.441,2.442v15.136q0.683,3.125-1.758,4.3a17.258,17.258,0,0,1-5.176,0q-2.93-.391-2.343,2.246t4.2,2.93h4.98q5.077,0.1,5.957-5.566V933.7a2.589,2.589,0,0,0-2.929-2.93H601.137a2.158,2.158,0,0,1-2.442-2.441v-2.344a2.159,2.159,0,0,1,2.442-2.441h24.609a2.59,2.59,0,0,0,2.93-2.93V897.668a2.59,2.59,0,0,0-2.93-2.93H566.859a2.589,2.589,0,0,0-2.929,2.93v22.949Zm28.906-16.211a2.159,2.159,0,0,1-2.441,2.442H572.133a2.158,2.158,0,0,1-2.442-2.442v-2.148a2.159,2.159,0,0,1,2.442-2.442h18.359q2.344,0,2.344,2.539v2.051Zm30.078,0a2.159,2.159,0,0,1-2.441,2.442H601.137a2.158,2.158,0,0,1-2.442-2.442v-2.148a2.159,2.159,0,0,1,2.442-2.442H620.57q2.345,0,2.344,2.539v2.051Zm-30.078,11.817a2.158,2.158,0,0,1-2.441,2.441H572.133a2.158,2.158,0,0,1-2.442-2.441v-2.735a2.159,2.159,0,0,1,2.442-2.441h18.359q2.344,0,2.344,2.539v2.637Zm30.078,0a2.158,2.158,0,0,1-2.441,2.441H601.137a2.158,2.158,0,0,1-2.442-2.441v-2.735a2.159,2.159,0,0,1,2.442-2.441H620.57q2.345,0,2.344,2.539v2.637Zm69.238-35.84h-33.5q-2.929,0-2.929,2.246t2.929,2.246H736q2.929,0,2.93-2.246T736,880.383H703.773a3.257,3.257,0,0,1-3.222-2.539l-0.489-1.465q-1.368-2.929-4.2-2.149-3.027.978-2.148,3.321,0.879,2.834-1.563,2.832h0ZM663.93,911.242a2.589,2.589,0,0,0,2.929,2.93h24.317q2.439,0,2.441,3.223,0,3.126-2.441,3.125H662.562q-2.929,0-2.929,2.148t2.929,2.148h28.614q2.439,0,2.441,2.832,0,2.736-2.441,2.735H657q-2.929,0-2.93,2.148,0,2.051,2.93,2.051h22.07a14.27,14.27,0,0,1,3.028.2q1.366,1.077-.684,2.246a135.6,135.6,0,0,1-25.195,9.864q-2.93.585-1.074,3.027,1.757,2.344,5.175,1.367a83.405,83.405,0,0,0,11.036-4.1q2.636-1.269,2.636,1.172v4.98q0.294,2.733-.976,3.906-0.49.487,0.781,3.321a3.815,3.815,0,0,0,4.395,2.246,218.514,218.514,0,0,0,21.386-5.371q2.637-.783,2.051-3.223-0.391-2.149-4.1-1.172-7.227,1.854-14.453,3.32-3.126.682-3.125-1.757v-9.18q0-2.344,2.93-4.2,3.9-2.344,7.813-5.176a7,7,0,0,1,4.3-1.465h42.969q2.929,0,2.93-2.148,0-2.052-2.93-2.051H701.527q-2.442,0-2.441-2.832,0-2.733,2.441-2.735h31.739q2.93,0,2.929-2.148t-2.929-2.148H701.527q-2.442,0-2.441-3.223,0-3.124,2.441-3.125h25.489a2.589,2.589,0,0,0,2.929-2.93V892.98a2.589,2.589,0,0,0-2.929-2.929H666.664q-2.735,0-2.734,3.125v18.066ZM691.176,900.5H672.23q-2.442,0-2.441-3.125t2.441-3.125h19.141q2.246,0,2.246,3.223,0,3.027-2.441,3.027h0Zm30.371,0h-20.02q-2.442,0-2.441-3.125t2.441-3.125h20.215q2.246,0,2.246,3.223,0,3.027-2.441,3.027h0Zm-30.371,9.57H672.23q-2.442,0-2.441-3.027,0-2.929,2.441-2.93h19.043q2.345,0,2.344,3.028,0,2.93-2.441,2.929h0Zm30.371,0h-20.02q-2.442,0-2.441-3.027,0-2.929,2.441-2.93h20.118q2.343,0,2.343,3.028,0,2.93-2.441,2.929h0ZM701.43,942.492q10.056,13.086,21.386,16.8a55.792,55.792,0,0,0,14.551,3.223q2.733,0.194,3.516-2.832,0.682-2.541-2.637-2.735a51.72,51.72,0,0,1-17.676-4.59q-2.93-1.757-.39-3.125a27.763,27.763,0,0,0,6.933-5.273q2.538-2.929-.2-4.492-2.345-1.367-4.395,1.172a40.983,40.983,0,0,1-6.152,5.664q-2.929,1.856-5.859-.586a57.632,57.632,0,0,1-4.492-4.785q-1.956-2.832-4-1.563-1.857,1.172-.586,3.125h0ZM836.1,909.875q-1.466,3.029,1.367,4.395,2.83,1.172,4.2-1.758a137.586,137.586,0,0,0,5.762-13.477q1.072-3.125,3.418-3.125h25.683q2.44,0,2.149,2.442a71.69,71.69,0,0,1-3.711,13.183q-1.172,2.93,1.758,4.688,2.439,1.464,3.808-1.758a125.108,125.108,0,0,0,6.153-21.777q0.488-2.931-2.442-2.93H853.09q-2.442,0-1.953-2.442,1.268-4.3,2.148-8.3,0.587-2.637-2.539-3.223-2.734-.488-3.516,2.637A159.8,159.8,0,0,1,836.1,909.875h0Zm-30.371,34.277a2.589,2.589,0,0,0,2.929,2.93q2.832,0,2.832-2.93t2.442-2.929h9.277q2.44,0,2.441,3.027,0,2.833,2.93,2.832a2.59,2.59,0,0,0,2.93-2.93V884.777a2.589,2.589,0,0,0-2.93-2.929H808.559q-2.833,0-2.832,3.027v59.277Zm19.921-10.742a2.158,2.158,0,0,1-2.441,2.442H813.93a2.158,2.158,0,0,1-2.442-2.442V889.758a2.159,2.159,0,0,1,2.442-2.442h9.375q2.343,0,2.343,2.539V933.41Zm30.762-14.648q-0.976,20.313-22.168,35.547-2.735,1.854-.976,4.98,1.758,3.026,4.589,1.172,16.7-12.012,22.461-27.832,1.173-2.929,1.563-2.637,6.054,15.725,20.7,29.59,2.733,2.345,5.078-.781,2.246-2.93-.683-5.176a72.664,72.664,0,0,1-22.364-31.25q-2.343-3.9-1.562-13.672a2.59,2.59,0,0,0-2.93-2.93h-0.879q-2.833,0-2.832,3.028v9.961Zm90.918-39.746q0.879,2.834-1.562,2.832H913.734a2.589,2.589,0,0,0-2.929,2.929v34.864q-0.294,20.019-6.836,36.132-1.172,3.223,2.148,4.981,2.832,1.561,4-1.465a116.338,116.338,0,0,0,6.836-35.547V889.758a2.158,2.158,0,0,1,2.441-2.442h67.579q2.929,0,2.929-2.734t-2.929-2.734H958.07a3.257,3.257,0,0,1-3.222-2.539,14.884,14.884,0,0,0-.879-2.247q-1.271-2.831-4.883-1.66-3.029.978-1.758,3.614h0Zm-14.355,19.629h-8.3q-2.929,0-2.93,2.539t2.93,2.539h8.3a2.158,2.158,0,0,1,2.441,2.441V917.2a2.59,2.59,0,0,0,2.93,2.93h31.445a2.59,2.59,0,0,0,2.93-2.93V906.164a2.157,2.157,0,0,1,2.441-2.441h10.449q2.929,0,2.93-2.539t-2.93-2.539H975.16a2.158,2.158,0,0,1-2.441-2.442v-1.269a2.59,2.59,0,0,0-2.93-2.93q-2.833,0-2.832,2.93V896.2a2.159,2.159,0,0,1-2.441,2.442h-20.9a2.158,2.158,0,0,1-2.441-2.442v-1.269q0-2.931-3.028-2.93-2.734,0-2.734,3.418,0,3.222-2.441,3.223h0Zm33.984,13.964a2.159,2.159,0,0,1-2.441,2.442h-20.9a2.158,2.158,0,0,1-2.441-2.442v-6.445a2.157,2.157,0,0,1,2.441-2.441h21q2.344,0,2.344,2.539v6.347ZM927.9,933.41a6.047,6.047,0,0,1,5.078,2.93A60.5,60.5,0,0,0,944.5,947.57q2.538,2.052.293,2.93a137.713,137.713,0,0,1-24.707,5.762q-2.929.389-1.562,3.32,1.56,3.026,4.492,2.539a125.594,125.594,0,0,0,27.148-7.715,7.053,7.053,0,0,1,5.957-.1,105.309,105.309,0,0,0,28.711,7.91q3.224,0.388,4.2-2.93,0.975-2.929-1.953-3.32a135.671,135.671,0,0,1-23.437-5.078q-2.929-1.173-.2-3.125A49,49,0,0,0,978.578,933.8a6.779,6.779,0,0,0,1.367-3.906q0-1.953-2.929-1.954H927.7q-2.929,0-2.929,2.735t3.125,2.734h0ZM956.7,945.324a6.044,6.044,0,0,1-5.859-.293,47.5,47.5,0,0,1-10.547-8.5q-2.929-3.125-.293-3.125H969.5q2.733,0,.2,2.539a39.791,39.791,0,0,1-12.988,9.375h0Zm55.077-57.617h27.83a2.156,2.156,0,0,1,2.44,2.441v21.387a2.156,2.156,0,0,1-2.44,2.442h-25.97c-1.96,0-2.93.944-2.93,2.832s0.97,2.832,2.93,2.832h25.97a2.156,2.156,0,0,1,2.44,2.441v27.344a2.156,2.156,0,0,1-2.44,2.441h-31.34c-1.96,0-2.93,1.041-2.93,3.125,0,2.017.97,3.028,2.93,3.028h76.95q2.925,0,2.93-3.125c0-2.019-.98-3.028-2.93-3.028h-34.08a2.156,2.156,0,0,1-2.44-2.441V922.082a2.156,2.156,0,0,1,2.44-2.441h27.44c1.95,0,2.93-.943,2.93-2.832s-0.98-2.832-2.93-2.832h-27.44a2.156,2.156,0,0,1-2.44-2.442V890.148a2.156,2.156,0,0,1,2.44-2.441h29.98a2.93,2.93,0,1,0,0-5.859h-69.44c-1.89,0-2.83,1.01-2.83,3.027,0,1.889.98,2.832,2.93,2.832h0Zm53.42,43.652a75.569,75.569,0,0,1,6.64,11.719q1.275,2.929,4.2,1.563l0.88-.391q2.925-1.268,1.27-4.3a66.159,66.159,0,0,0-7.81-11.719q-2.25-2.831-4.79-1.562-2.73,1.464-.39,4.687h0Zm41.21,28.028q0,2.93,3.13,2.929t3.12-2.929V919.836a2.156,2.156,0,0,1,2.44-2.441h22.36a2.587,2.587,0,0,0,2.93-2.93V880.871a2.587,2.587,0,0,0-2.93-2.93h-28.22c-1.89,0-2.83,1.011-2.83,3.028v78.418Zm44.24-44.922a2.587,2.587,0,0,0,2.93,2.93h24.31a2.163,2.163,0,0,1,2.45,2.441v31.445q-0.21,3.224-2.35,4.492-3.315.879-11.33-.585-3.21-.783-2.54,2.636a4.571,4.571,0,0,0,4.01,3.809,66.839,66.839,0,0,0,11.91.586q6.15-1.466,6.45-7.617V880.871a2.591,2.591,0,0,0-2.93-2.93h-30.08c-1.89,0-2.83,1.011-2.83,3.028v33.5Zm-16.41-21.777a2.156,2.156,0,0,1-2.44,2.441h-16.7a2.156,2.156,0,0,1-2.44-2.441v-6.446a2.156,2.156,0,0,1,2.44-2.441h16.7a2.156,2.156,0,0,1,2.44,2.441v6.446Zm46.1,0a2.163,2.163,0,0,1-2.45,2.441h-18.55a2.156,2.156,0,0,1-2.44-2.441v-6.446a2.156,2.156,0,0,1,2.44-2.441h18.55a2.163,2.163,0,0,1,2.45,2.441v6.446Zm-46.1,16.5a2.156,2.156,0,0,1-2.44,2.442h-16.7a2.156,2.156,0,0,1-2.44-2.442v-6.152a2.156,2.156,0,0,1,2.44-2.441H1132c1.49,0,2.24.879,2.24,2.636v5.957Zm46.1,0a2.163,2.163,0,0,1-2.45,2.442h-18.55a2.156,2.156,0,0,1-2.44-2.442v-6.152a2.156,2.156,0,0,1,2.44-2.441h18.75q2.25,0,2.25,2.636v5.957Zm25,50.586a2.93,2.93,0,1,0,5.86,0V907.336a2.156,2.156,0,0,1,2.44-2.441h24.61a2.591,2.591,0,0,0,2.93-2.93V880.188a2.591,2.591,0,0,0-2.93-2.93h-30.18q-2.73,0-2.73,3.125v79.394Zm45.7-58.2a2.591,2.591,0,0,0,2.93,2.93h25.1a2.16,2.16,0,0,1,2.44,2.441v44.727q-0.39,3.124-2.35,4.3c-1.23.39-3.35,0.259-6.34-.391q-2.835-.684-2.15,2.637,0.585,3.025,4.29,3.515a41.282,41.282,0,0,0,5.47.2q4.5-.392,5.86-3.809a17.818,17.818,0,0,0,1.08-3.906V880.188a2.591,2.591,0,0,0-2.93-2.93h-30.67q-2.73,0-2.73,3.125v21.191Zm-15.72-15.039a2.16,2.16,0,0,1-2.44,2.442h-19.24a2.156,2.156,0,0,1-2.44-2.442V883.8a2.157,2.157,0,0,1,2.44-2.442h19.24a2.161,2.161,0,0,1,2.44,2.442v2.734Zm46.19,0a2.16,2.16,0,0,1-2.44,2.442h-19.73a2.156,2.156,0,0,1-2.44-2.442V883.8a2.157,2.157,0,0,1,2.44-2.442h19.73a2.161,2.161,0,0,1,2.44,2.442v2.734Zm-46.19,11.524a2.16,2.16,0,0,1-2.44,2.441h-19.24a2.156,2.156,0,0,1-2.44-2.441V895.52a2.157,2.157,0,0,1,2.44-2.442h19.24a2.161,2.161,0,0,1,2.44,2.442v2.539Zm46.19-.293a2.16,2.16,0,0,1-2.44,2.441h-19.73a2.156,2.156,0,0,1-2.44-2.441V895.52a2.157,2.157,0,0,1,2.44-2.442h19.73a2.161,2.161,0,0,1,2.44,2.442v2.246Zm-61.13,20.019q-2.835,1.857-2.64,3.809c0.19,1.237,1.27,1.758,3.22,1.562l2.15-.195c2.28-.455,3.77-0.357,4.49.293-0.06.912-.88,1.823-2.44,2.734l-3.91,2.832q-3.21,2.149-2.63,4.3c0.26,1.108,1.36,1.6,3.32,1.465a107.418,107.418,0,0,0,15.33-2.93q2.925-.681,3.91.977a1.581,1.581,0,0,0,2.24,1.074q1.365-.389.2-3.613l-1.17-2.539c-1.18-2.149-2.28-3.092-3.33-2.832q-1.56.489-.48,2.343,0.48,1.465-2.25,1.954l-7.71,1.269c-1.63.391-2.84,0.293-3.62-.293l0.2-.683a176.647,176.647,0,0,0,15.23-11.133q2.64-2.345.88-3.223-1.755-.78-5.37,2.539a6.772,6.772,0,0,1-3.91,1.465,30.171,30.171,0,0,1-6.54.391,1.284,1.284,0,0,1-.59-0.586c-0.13-.26.59-1.041,2.15-2.344a28.238,28.238,0,0,0,4.5-3.711q2.82-2.733.78-3.32-1.965-.487-4.98,2.734a67.773,67.773,0,0,1-7.03,5.664h0Zm30.46-.488c-1.89,1.3-2.76,2.605-2.63,3.906,0.19,1.238,1.27,1.792,3.22,1.66l2.15-.2c2.28-.391,3.77-0.391,4.49,0,0.06,0.391-.78,1.335-2.54,2.832l-3.91,2.637c-2.14,1.367-2.96,2.832-2.44,4.394,0.26,1.108,1.5,1.531,3.71,1.27a103.918,103.918,0,0,0,15.73-2.735q2.82-.389,3.81,1.758c0.32,0.913,1.04,1.206,2.14.879q1.38-.389,0-3.906l-1.46-2.93q-1.86-2.929-3.52-2.539-1.56.392-.48,1.856,1.065,1.563-1.47,2.246l-3.22.39a36.766,36.766,0,0,1-8.3.586,0.874,0.874,0,0,1-.49-0.781,13.026,13.026,0,0,1,2.25-1.758,94.833,94.833,0,0,0,12.69-8.984q2.925-2.344,1.17-3.321-1.665-.878-4.39,1.661a9.091,9.091,0,0,1-5.47,2.441,40.34,40.34,0,0,1-6.25.488q-2.64,0,.49-2.148a73.52,73.52,0,0,0,5.86-4.59c1.88-1.887,2.08-3.027.58-3.418q-1.755-.389-5.56,3.418a70.679,70.679,0,0,1-6.16,4.883h0Zm-13.47,25.781a2.16,2.16,0,0,1-2.44,2.442h-7.33a2.156,2.156,0,0,1-2.44-2.442V940.93q0-2.929-2.34-2.93-2.25,0-2.25,2.93V946.5a2.591,2.591,0,0,0,2.93,2.93h10.84q2.64,0,1.17,2.344-4.785,5.369-12.99,6.152-3.12.389-2.24,2.441c0.71,1.5,2.05,2.083,4,1.758a38.509,38.509,0,0,0,5.96-1.66q10.44-3.321,11.13-12.4a34.494,34.494,0,0,0,.29-7.813c0-1.953-.75-2.93-2.24-2.93-1.37,0-2.05,1.043-2.05,3.125v2.637Zm12.89,16.7q0,2.929,2.34,2.93,2.25,0,2.25-2.93v-7.129a2.156,2.156,0,0,1,2.44-2.441h10.74a2.591,2.591,0,0,0,2.93-2.93v-6.64c0-1.953-.72-2.93-2.15-2.93s-2.15.977-2.15,2.93v3.222a2.156,2.156,0,0,1-2.44,2.442h-6.93a2.156,2.156,0,0,1-2.44-2.442v-3.613c0-1.953-.82-2.93-2.44-2.93-1.44,0-2.15,1.043-2.15,3.125v19.336Z"/>
  <path id="大写字母" class="cls-3" d="M86.656,512.469q-0.844,2.109,1.266,2.109h1.336a3.051,3.051,0,0,0,2.883-2.25l3.938-9.914q0.984-2.109,2.672-2.109h21.516a2.459,2.459,0,0,1,2.39,1.828l4.149,10.336a2.99,2.99,0,0,0,2.953,2.109h1.265q1.968,0,1.125-2.18L112.672,463.18a2.872,2.872,0,0,0-2.883-2.11h-0.7a3,3,0,0,0-2.953,2.18q-9.845,24.611-19.477,49.219h0Zm32.485-19.2q0.843,1.9-.914,1.9H100.578q-1.618,0-.844-1.969l8.86-23.555q0.773-2.319,1.617.211,4.359,11.743,8.93,23.414h0Zm27.871,19.2a1.865,1.865,0,0,0,2.11,2.109h18a17.72,17.72,0,0,0,8.367-2.531q7.522-6.047,6.047-14.344-0.633-6.607-7.1-10.336-2.179-.984-0.281-2.109,6.891-5.413,5.344-12.8-2.812-10.336-13.5-11.391H149.052q-2.041,0-2.04,2.18v49.219Zm17.649-28.055H153.833a1.554,1.554,0,0,1-1.758-1.758V467.609a1.554,1.554,0,0,1,1.758-1.757h10.336q11.67,1.2,9.914,11.46-2.463,6.75-9.422,7.1h0Zm11.32,12.445q1.688,7.877-5.062,11.532a17.666,17.666,0,0,1-5.625,1.406H153.762a1.553,1.553,0,0,1-1.757-1.758V491.234a1.553,1.553,0,0,1,1.757-1.757H163.4q5.7,0.21,8.86,2.109a8.057,8.057,0,0,1,3.726,5.273h0Zm25.2-25.312a37.871,37.871,0,0,0-3.164,11.25q-1.828,15.4,5.977,26.086a20.113,20.113,0,0,0,8.3,5.484,21.189,21.189,0,0,0,18.422-2.109,14.876,14.876,0,0,0,6.4-9.492q0.422-2.18-1.688-2.25h-1.195a2.543,2.543,0,0,0-2.672,2.109q-4.218,7.947-10.336,8.086-7.1.843-12.8-5.063a23.748,23.748,0,0,1-4.781-10.968q-1.266-9.421.281-15.118a20.935,20.935,0,0,1,6.188-11.32,15.578,15.578,0,0,1,12.445-3.164q6.117,0.7,8.578,7.594a2.348,2.348,0,0,0,2.532,2.109h1.195q2.038,0,1.758-2.179a13.737,13.737,0,0,0-8.156-10.688,22.653,22.653,0,0,0-12.586-1.476q-9.774,1.476-14.7,11.109h0Zm50.091,40.992a1.864,1.864,0,0,0,2.109,2.109H266.53q9.843-.21,16.593-4.921a19.064,19.064,0,0,0,7.594-11.18,35.573,35.573,0,0,0-1.687-24.82,21.417,21.417,0,0,0-10.547-9.844,36.647,36.647,0,0,0-11.25-2.742H253.381a1.864,1.864,0,0,0-2.109,2.109v49.289ZM284.741,477.1q4.077,11.039-.493,22.992-3.585,6.821-9.914,8.578a26.948,26.948,0,0,1-5.625,1.055H258.3a1.554,1.554,0,0,1-1.758-1.758V467.68a1.554,1.554,0,0,1,1.758-1.758h7.735a22.681,22.681,0,0,1,14.906,5.555,16.591,16.591,0,0,1,3.8,5.625h0ZM307.2,512.469a1.865,1.865,0,0,0,2.11,2.109h27.914q1.9,0,1.9-2.25v-0.562a1.864,1.864,0,0,0-2.109-2.11H314.159A1.553,1.553,0,0,1,312.4,507.9v-16.8a1.554,1.554,0,0,1,1.757-1.758H334.9a1.864,1.864,0,0,0,2.109-2.109v-0.633a1.865,1.865,0,0,0-2.109-2.11H314.159a1.552,1.552,0,0,1-1.757-1.757V467.68a1.554,1.554,0,0,1,1.757-1.758h21.8a1.865,1.865,0,0,0,2.11-2.11V463.18a1.865,1.865,0,0,0-2.11-2.11H309.238q-2.041,0-2.04,2.18v49.219Zm47.771-.071a1.864,1.864,0,0,0,2.109,2.11h0.984a1.865,1.865,0,0,0,2.11-2.11V491.234a1.553,1.553,0,0,1,1.758-1.757h19.336a1.865,1.865,0,0,0,2.109-2.11v-0.7a1.864,1.864,0,0,0-2.109-2.109H361.93a1.553,1.553,0,0,1-1.758-1.758V467.75a1.554,1.554,0,0,1,1.758-1.758h20.32a1.864,1.864,0,0,0,2.109-2.109v-0.7a1.864,1.864,0,0,0-2.109-2.11H357.008q-2.04,0-2.039,2.18V512.4Zm57.684-49.078a25.04,25.04,0,0,0-10.617,15.61q-3.163,14.413,3.023,25.734,4.288,7.032,10.266,9.352a27.671,27.671,0,0,0,14.2,1.476,30.044,30.044,0,0,0,10.547-2.742,4.132,4.132,0,0,0,2.109-3.516V489.547a1.864,1.864,0,0,0-2.109-2.109h-13.57a1.864,1.864,0,0,0-2.11,2.109v0.7a1.864,1.864,0,0,0,2.11,2.109h8.929a1.554,1.554,0,0,1,1.758,1.758V506q0,1.688-2.179,3.094-7.032,3.516-17.368.281a17.6,17.6,0,0,1-9.14-9.563,33.172,33.172,0,0,1-1.547-18.14,24.05,24.05,0,0,1,5.2-11.25q5.835-6.258,12.867-5.414a14.7,14.7,0,0,1,5.485,1.406q5.273,2.742,6.328,6.961a2.347,2.347,0,0,0,2.531,2.109h1.266q1.9,0,1.687-2.25-1.054-5.974-7.172-9.914a23.435,23.435,0,0,0-14.062-2.742,19.683,19.683,0,0,0-8.438,2.742h0Zm45.239,49.149a1.864,1.864,0,0,0,2.11,2.109h0.914a1.864,1.864,0,0,0,2.109-2.109V491.094a1.554,1.554,0,0,1,1.758-1.758h23.765a1.554,1.554,0,0,1,1.758,1.758v21.375a1.864,1.864,0,0,0,2.11,2.109h0.843a1.864,1.864,0,0,0,2.11-2.109V463.18a1.865,1.865,0,0,0-2.11-2.11h-0.843a1.865,1.865,0,0,0-2.11,2.11v19.476a1.554,1.554,0,0,1-1.758,1.758H464.783a1.554,1.554,0,0,1-1.758-1.758V463.18a1.864,1.864,0,0,0-2.109-2.11h-0.985q-2.04,0-2.039,2.18v49.219Zm55.435,0a1.864,1.864,0,0,0,2.109,2.109h0.914a1.864,1.864,0,0,0,2.109-2.109V463.18a1.864,1.864,0,0,0-2.109-2.11h-0.984q-2.04,0-2.039,2.18v49.219Zm43.621-13.5a12.664,12.664,0,0,1-4.218,10.547q-3.447,2.25-8.789.562a9.219,9.219,0,0,1-4.641-7.242,2.009,2.009,0,0,0-2.25-2.109H536a1.676,1.676,0,0,0-1.9,2.109,22.789,22.789,0,0,0,1.687,5.484q3.165,6.54,9.985,7.242,15.4,1.125,16.172-15.96V463.32a1.865,1.865,0,0,0-2.11-2.109h-0.914q-1.97,0-1.969,2.25v35.508Zm22.247,13.5a1.864,1.864,0,0,0,2.11,2.109h1.054a1.864,1.864,0,0,0,2.11-2.109V491.727a3.813,3.813,0,0,1,1.125-2.813q1.054-.913,1.336-0.773l19.054,24.328a4.653,4.653,0,0,0,3.727,2.109h2.531q2.039,0,.352-2.18l-20.461-26.086q-1.83-2.249-.352-3.937L609.992,463.6q2.39-2.532.281-2.532h-2.39a5.156,5.156,0,0,0-3.8,1.758L586.3,481.109q-1.83,1.83-1.828-.07V463.18a1.865,1.865,0,0,0-2.11-2.11h-1.125q-2.04,0-2.039,2.18v49.219Zm50.3,0a1.864,1.864,0,0,0,2.109,2.109h26.3a1.865,1.865,0,0,0,2.11-2.109v-0.633a1.865,1.865,0,0,0-2.11-2.109H636.458a1.554,1.554,0,0,1-1.758-1.758V463.18a1.864,1.864,0,0,0-2.109-2.11h-1.055q-2.04,0-2.039,2.18v49.219Zm44.958,0a1.864,1.864,0,0,0,2.109,2.109h0.984a1.864,1.864,0,0,0,2.11-2.109V475.555a3.56,3.56,0,0,1,.422-1.407q0.351-.279,1.336,1.618,7.734,18.351,15.679,36.7a3.115,3.115,0,0,0,3.024,2.109h1.195q2.109,0,3.234-2.6L719.6,476.82a8.1,8.1,0,0,1,1.477-2.672q0.421-.21.773,2.11v36.211a1.864,1.864,0,0,0,2.11,2.109h0.914a1.864,1.864,0,0,0,2.109-2.109V463.18a1.864,1.864,0,0,0-2.109-2.11h-1.406a3.2,3.2,0,0,0-3.024,2.18q-9.423,21.8-18.633,43.523-0.986,2.392-1.828.563-9.562-22.077-18.914-44.156a3.115,3.115,0,0,0-3.023-2.11h-1.547q-2.04,0-2.039,2.18v49.219Zm69.848,0a1.864,1.864,0,0,0,2.109,2.109h1.055a1.865,1.865,0,0,0,2.11-2.109V471.477q0.139-1.477,1.125-.915l2.039,3.235,22.921,38.672a3.815,3.815,0,0,0,3.375,2.109H780.8a1.864,1.864,0,0,0,2.11-2.109V463.18a1.865,1.865,0,0,0-2.11-2.11h-0.914a1.864,1.864,0,0,0-2.109,2.11v39.375a5.771,5.771,0,0,1-.492,2.531q-0.423,0-1.688-1.547L751.827,463.18a3.814,3.814,0,0,0-3.375-2.11h-2.11q-2.04,0-2.039,2.18v49.219Zm56.489-36.281a41.548,41.548,0,0,0-1.687,13.71,31.358,31.358,0,0,0,4.851,16.454,18.62,18.62,0,0,0,4.992,5.273,24.076,24.076,0,0,0,18.7,3.445,19.684,19.684,0,0,0,11.179-6.4q8.367-10.687,6.328-26.086a30,30,0,0,0-3.445-11.25q-3.939-6.609-9.281-9-12.094-4.571-21.656.7a23.617,23.617,0,0,0-9.985,13.149h0Zm38.039,2.742q3.726,14.7-3.8,25.734-6.891,7.875-15.961,5.977a15.8,15.8,0,0,1-10.9-8.086q-5.556-10.758-2.32-23.766,5.273-14.976,17.929-13.851,11.6,1.617,15.047,13.992h0Zm22.317,33.539a1.865,1.865,0,0,0,2.11,2.109h0.984a1.865,1.865,0,0,0,2.11-2.109V493.7a1.553,1.553,0,0,1,1.757-1.757h8.438a33.177,33.177,0,0,0,9.633-1.758,13.9,13.9,0,0,0,6.047-4.149,15.225,15.225,0,0,0,2.812-12.023,12.767,12.767,0,0,0-7.031-10.266,31.951,31.951,0,0,0-11.25-2.672h-13.57q-2.041,0-2.04,2.18v49.219Zm28.758-37.055q0.633,10.619-11.039,11.742H868.18a1.553,1.553,0,0,1-1.758-1.758V467.82a1.554,1.554,0,0,1,1.758-1.758h10.2a21.3,21.3,0,0,1,3.445.563q7.663,2.391,8.086,8.789h0Zm25.622-6.469a29.494,29.494,0,0,0-4.57,11.25,43.445,43.445,0,0,0-.352,13.5,30.366,30.366,0,0,0,3.656,11.25q4.077,6.75,10.125,9A22.055,22.055,0,0,0,937.4,515.07a20.673,20.673,0,0,1,7.383-.773q5.976,0,11.883.211a1.864,1.864,0,0,0,2.109-2.11v-0.843a1.8,1.8,0,0,0-2.109-2.039q-2.742,0-5.274.211-2.673.21-.914-1.688a22.986,22.986,0,0,0,4.289-7.945,41.49,41.49,0,0,0,1.829-14.2,37.063,37.063,0,0,0-1.9-10.407,23.262,23.262,0,0,0-8.156-11.39q-9.07-5.837-20.109-2.883-6.189,1.619-10.9,7.734h0Zm22.922-3.3a16.1,16.1,0,0,1,9.773,8.789,32.768,32.768,0,0,1,2.532,18.984q-1.618,11.111-9.985,15.82a16.521,16.521,0,0,1-10.758,1.336q-6.117-.772-10.757-8.015a26.624,26.624,0,0,1-3.375-11.25,32.423,32.423,0,0,1,2.672-16.805q4.99-9.282,13.359-9.562a20.644,20.644,0,0,1,6.539.7h0Zm34.481,46.968a1.865,1.865,0,0,0,2.11,2.11h0.984a1.864,1.864,0,0,0,2.109-2.11V493.062a1.554,1.554,0,0,1,1.758-1.757h14.063l2.39,0.281a5.208,5.208,0,0,1,3.725,4.711q1.41,12.022,2.25,16.172a2.648,2.648,0,0,0,2.74,2.109h1.9c1.41,0,1.76-.773,1.06-2.32a15.808,15.808,0,0,1-.85-2.813q-0.765-5.623-1.33-11.25-0.21-7.171-6.331-9.281-1.687-.633.422-1.406,6.463-3.3,7.379-9.914,1.125-14.554-14.551-16.383H974.9q-1.97,0-1.969,2.25v49.148ZM1000.99,480.2q-3.381,5.415-10.621,5.836H979.822a1.553,1.553,0,0,1-1.758-1.758V467.609a1.554,1.554,0,0,1,1.758-1.757h12.234a10.455,10.455,0,0,1,7.453,3.234,10.9,10.9,0,0,1,1.481,11.109h0Zm22.38-8.718a12.728,12.728,0,0,0,2.53,12.023q3.945,3.8,11.25,6.188,7.74,2.18,11.25,4.429a5.9,5.9,0,0,1,2.25,2.672q2.955,7.453-3.86,12.164a16.235,16.235,0,0,1-12.24,1.266,9.364,9.364,0,0,1-7.31-8.438,2.085,2.085,0,0,0-2.32-2.109h-1.2a1.673,1.673,0,0,0-1.89,2.109q1.05,10.2,11.18,13.43a33.79,33.79,0,0,0,13.71-.7,12.914,12.914,0,0,0,9.28-8.3q4.215-14.062-11.46-19.336l-11.25-4.711q-6.045-3.586-4.99-8.859,0.69-4.359,5.69-6.75a16.946,16.946,0,0,1,7.31-1.055q7.17,0.915,9,6.891a2.262,2.262,0,0,0,2.46,2.109h1.06q2.1,0,1.83-2.531-0.7-5.7-6.4-9.071a21.261,21.261,0,0,0-17.23-.843q-7.3,3.445-8.65,9.422h0Zm44.89-7.594a1.863,1.863,0,0,0,2.11,2.109h12.87a1.556,1.556,0,0,1,1.76,1.758v44.789a1.86,1.86,0,0,0,2.1,2.109h0.92a1.867,1.867,0,0,0,2.11-2.109V467.75a1.553,1.553,0,0,1,1.76-1.758h12.93a1.863,1.863,0,0,0,2.11-2.109V463.25a1.863,1.863,0,0,0-2.11-2.109h-34.45a1.863,1.863,0,0,0-2.11,2.109v0.633Zm53.26,33.4q0.9,15.469,15.6,18.071a21.958,21.958,0,0,0,13.36-2.18,16.984,16.984,0,0,0,5.28-4.781,21.977,21.977,0,0,0,3.44-11.25V463.32a1.863,1.863,0,0,0-2.11-2.109h-0.84a1.863,1.863,0,0,0-2.11,2.109v34.524q-0.915,11.038-12.23,12.867a14.541,14.541,0,0,1-9.14-1.969q-6.06-4.43-6.19-10.828V463.32a1.863,1.863,0,0,0-2.11-2.109h-0.99c-1.31,0-1.96.75-1.96,2.25v33.82Zm70.76,15.258a2.861,2.861,0,0,0,2.88,2.109h1.41a2.843,2.843,0,0,0,2.81-2.179q8.58-24.609,17.37-49.219c0.51-1.406.07-2.109-1.34-2.109h-1.05a3.052,3.052,0,0,0-2.96,2.39l-14.9,43.031c-0.47,1.079-.99.939-1.55-0.421q-7.53-21.446-14.84-42.891a2.752,2.752,0,0,0-2.81-2.109h-1.12q-2.115,0-1.41,2.109Zm50.09,0a2.535,2.535,0,0,0,2.67,2.109h1.2a2.648,2.648,0,0,0,2.74-2.109l13.08-42.187q0.765-2.6,1.4-.422,6.465,21.3,13.15,42.609a2.648,2.648,0,0,0,2.74,2.109h1.41a2.519,2.519,0,0,0,2.6-2.179l12.8-49.219c0.37-1.406-.14-2.109-1.55-2.109h-0.98a2.45,2.45,0,0,0-2.61,2.109q-5.13,19.688-10.05,39.375a7.619,7.619,0,0,1-1.05,2.531c-0.94-.234-1.58-1.312-1.9-3.234L1266.2,463.25a2.641,2.641,0,0,0-2.74-2.109h-1.26a2.659,2.659,0,0,0-2.75,2.109l-11.81,38.672a7.067,7.067,0,0,1-1.4,3.3,0.958,0.958,0,0,1-.71-0.282,12.457,12.457,0,0,1-1.05-3.023l-9.78-38.672a2.434,2.434,0,0,0-2.6-2.109h-1.12c-1.41,0-1.92.7-1.55,2.109q6.615,24.679,12.94,49.289h0Zm84.12-28.195c0.98,1.406,1.15,2.672.49,3.8q-8.43,12.165-16.59,24.328c-0.99,1.406-.77,2.109.63,2.109h2.11c1.27,0,2.39-.773,3.38-2.32l13.14-20.461c0.99-1.312,1.97-1.219,2.96.281l13.22,20.391a3.969,3.969,0,0,0,3.44,2.109h1.9c1.41,0,1.64-.7.7-2.109q-8.3-11.954-16.31-23.907a3.2,3.2,0,0,1-.28-3.8q7.17-10.758,14.55-21.516c0.94-1.406.71-2.109-.7-2.109h-1.76c-1.4,0-2.67.843-3.79,2.531l-10.97,16.875q-1.485,2.179-2.89.281-5.76-8.788-11.32-17.578a3.957,3.957,0,0,0-3.44-2.109h-2.04c-1.41,0-1.64.7-.7,2.109Zm57.47,5.836a5.56,5.56,0,0,1,.92,3.093v19.2a1.863,1.863,0,0,0,2.11,2.109h0.84a1.863,1.863,0,0,0,2.11-2.109V493.2a5.12,5.12,0,0,1,.49-2.531l17.58-27.422c0.89-1.406.63-2.109-.77-2.109h-1.69a3.824,3.824,0,0,0-3.38,2.109l-13.35,21.516q-1.41,2.04-2.54.14-6.81-10.827-13.43-21.656a3.957,3.957,0,0,0-3.44-2.109h-1.97q-2.115,0-.63,2.32Zm36.59-26.3a1.867,1.867,0,0,0,2.11,2.109h23.35q1.68,0,.42,2.11-12.87,20.391-25.52,40.781a6.813,6.813,0,0,0-.85,3.586,1.867,1.867,0,0,0,2.11,2.109h29.88a1.863,1.863,0,0,0,2.11-2.109v-0.633a1.863,1.863,0,0,0-2.11-2.109h-24.11c-1.17,0-1.32-.679-0.42-2.039q12.72-20.391,25.66-40.782a6.455,6.455,0,0,0,.91-3.586,1.9,1.9,0,0,0-2.11-2.179h-29.32a1.867,1.867,0,0,0-2.11,2.109v0.633Z"/>
  <path id="logo" class="cls-1" d="M706.266,1194.7a45.969,45.969,0,0,0-.118,5.15v5.16H677.555v-1.17l0.234-.94-1.406-.24c-1.1,0-2.659-.07-4.688-0.23h-3.281l-0.469,2.58a45.646,45.646,0,0,1-1.172,4.92,22.619,22.619,0,0,1-1.406,4.22,7.125,7.125,0,0,0-.82,2.23,6.584,6.584,0,0,0,2.109-.71c1.326-.54,2.615-1.13,3.867-1.76a11.566,11.566,0,0,0,3.516-2.81l1.641-1.64h66.8l1.875,1.88a14.477,14.477,0,0,0,3.75,2.81c1.406,0.62,2.655,1.17,3.75,1.64a1.036,1.036,0,1,0,1.171-1.17,17.1,17.1,0,0,1-1.406-3.99q-0.7-2.34-1.172-4.68a11.9,11.9,0,0,0-.7-3.05c0-.47-1.252-0.62-3.75-0.47-1.875.16-3.281,0.23-4.219,0.23a2.052,2.052,0,0,1-.937.24c-0.315,0-.469.31-0.469,0.94l0.235,0.93-13.594.24q-13.359,0-13.36-.24a2.838,2.838,0,0,1,.7-1.05,6.664,6.664,0,0,0,1.171-2.46,15.728,15.728,0,0,0,.469-4.22v-2.58h-4.687Q706.382,1194.46,706.266,1194.7Zm-31.289,28.12v4.22l21.093,0.23h21.094l-5.859,4.93q-5.4,4.215-8.2,6.56l-2.344,1.87v6.8H660.445v4.22h40.313v14.76c0,10.01-.158,15.47-0.469,16.41a13.152,13.152,0,0,1-1.172,3.05,21,21,0,0,1-2.578,3.04,16.962,16.962,0,0,1-3.75,2.82c-1.406.62-2.109,1.17-2.109,1.64s0.153,0.7.468,0.7a30.375,30.375,0,0,0,3.047-.47,34.353,34.353,0,0,0,4.922-1.4,16.4,16.4,0,0,0,4.688-1.88,11.74,11.74,0,0,0,3.515-2.34,12.264,12.264,0,0,0,2.344-2.58,13,13,0,0,0,1.172-2.58c0.311-.94.469-6.4,0.469-16.41v-14.76h38.2v-4.22h-38.2v-6.8l2.109-1.64q2.109-1.635,8.438-6.79,6.327-5.4,8.437-7.04a13.637,13.637,0,0,0,2.578-2.34q0-.225-28.828-0.23t-29.062.23h0Zm121.64-30.23-0.469,1.87a27.635,27.635,0,0,1-1.523,5.74c-0.861,2.43-1.681,4.65-2.461,6.68q-1.176,2.58-3.281,6.8-1.88,3.75-4.453,8.44-2.11,3.75-4.688,7.73-2.582,4.215-3.047,4.92a7.818,7.818,0,0,0-1.406,2.11c-0.157.47-.117,0.71,0.117,0.71a8.252,8.252,0,0,0,2.227-1.18q1.873-1.17,3.515-2.34,1.874-1.41,3.985-3.28a59.714,59.714,0,0,0,4.453-4.45l2.109-2.35,0.235,14.77,0.234,14.76h1.875a5.862,5.862,0,0,0,3.047-.7,5.457,5.457,0,0,0,1.875-1.17,11.374,11.374,0,0,0,1.406-1.64l0.469-.71h27.187v2.11l0.235,2.11h1.64a7.437,7.437,0,0,0,2.813-.47,9.072,9.072,0,0,0,2.109-1.17,4.666,4.666,0,0,0,1.407-1.64l0.7-.94h31.64v-4.45H838.336v-6.8H868.57v-4.45H838.336v-6.8H868.57v-4.68H838.336v-7.5H868.57v-4.69H837.164l0.938-1.17a23.668,23.668,0,0,0,1.406-2.35,6.445,6.445,0,0,0,.7-2.57,17.74,17.74,0,0,0,.469-4.93v-3.51H828.727v14.53H815.6q-13.129,0-13.125-.23c0-.16-0.158-0.24-0.469-0.24s0.311-1.41,1.875-4.22a69.182,69.182,0,0,0,3.281-7.5,16.732,16.732,0,0,0,1.406-3.98l0.235-1.17H796.617Zm31.406,22.03v7.5H802.477v-7.5h25.546Zm0,12.18v6.8H802.477v-6.8h25.546Zm0,11.25v6.8H802.477v-6.8h25.546Zm-3.515,16.88v5.16l-22.969.23H778.805v4.45h45.7v1.64c0,1.1-.081,1.64-0.235,1.64a40.222,40.222,0,0,1-4.687-1.17q-4.455-1.17-4.922-1.4-0.236,0-6.328,4.68-6.1,4.935-7.734,6.1-1.643.93-4.454,2.58a58.967,58.967,0,0,1-5.39,2.57q-2.812,1.185-5.391,2.23a35.226,35.226,0,0,1-5.859,1.76,17.416,17.416,0,0,0-3.047,1.05,6.06,6.06,0,0,0,1.289,1.06,3.994,3.994,0,0,0,1.992.94c0.469,0,2.344-.32,5.625-0.94s6.328-1.33,9.141-2.11q4.449-1.17,8.2-2.35a22.822,22.822,0,0,0,4.922-2.1q1.637-.945,9.14-6.1t7.618-5.04q0.115,0.12.117,13.48v13.12h1.406a7.357,7.357,0,0,0,2.813-.7,6.692,6.692,0,0,0,3.046-1.99,11.184,11.184,0,0,0,2.11-3.17,8.733,8.733,0,0,0,.586-2.34q0.115-1.17.117-6.33c0.154-4.68.271-7.11,0.352-7.26s1.442,0.55,4.1,2.11q3.982,2.1,6.8,3.51a34.945,34.945,0,0,0,6.328,2.58,54.282,54.282,0,0,0,6.328,1.64,52.974,52.974,0,0,0,5.625.94c1.718,0.16,4.219.23,7.5,0.23a38.521,38.521,0,0,0,5.86-.23,1.37,1.37,0,0,0,1.171-.94l0.235-1.17c0-.15-0.235-0.24-0.7-0.24-0.315,0-1.722-.23-4.219-0.7s-5-1.01-7.5-1.64q-3.516-.93-6.8-2.11-2.812-.93-5.625-2.11-2.346-1.17-10.078-6.33l-7.734-5.15,19.453-.24h19.453v-4.45H854.977l-20.157-.23v-2.58l-0.234-2.58H824.508Z"/>
</svg>
