<svg xmlns="http://www.w3.org/2000/svg" width="400" height="200" viewBox="0 0 400 200">
  <defs>
    <style>
      .cls-1 {
        fill: #fdfdfd;
        stroke: #000;
        stroke-width: 1px;
        fill-rule: evenodd;
      }
    </style>
  </defs>
  <path id="演示佛系体" class="cls-1" d="M83.259,73.845a0.441,0.441,0,0,0,.12.09,0.1,0.1,0,0,1,.06.09,0.625,0.625,0,0,0,.6.48,0.409,0.409,0,0,1,.3.12l0.54,0.6,0.6,0.24a13.075,13.075,0,0,0,.84,1.44,2.916,2.916,0,0,1,.54,1.8,1.778,1.778,0,0,1-.18.45,2.128,2.128,0,0,0-.18.39l-0.06.06a1.351,1.351,0,0,0-.54.33,2.574,2.574,0,0,1-.54.39,0.244,0.244,0,0,1-.18.06c-0.16-.039-0.3-0.08-0.42-0.12l-0.36-.12a0.585,0.585,0,0,0-.42.12,1.916,1.916,0,0,1-1.2.6,0.584,0.584,0,0,0-.3.12,2.444,2.444,0,0,0,.18-0.84,1.844,1.844,0,0,0-.06-0.54,3.611,3.611,0,0,1-.36-1.26,8.889,8.889,0,0,1,.18-2.04,0.756,0.756,0,0,0,.06-0.33,1.411,1.411,0,0,1,.12-0.51,2.223,2.223,0,0,1,.12-0.3,0.686,0.686,0,0,1,.12-0.18,0.173,0.173,0,0,1,.12-0.06,0.053,0.053,0,0,0,.06-0.06q0.18-.779.24-1.02h0Zm-11.28,17.52a2.5,2.5,0,0,1-.57.39,1.046,1.046,0,0,0-.51.51,0.29,0.29,0,0,1-.27-0.21,1,1,0,0,0-.15-0.27,2.4,2.4,0,0,0-.54-0.72l-0.06-.18a7.73,7.73,0,0,1-.36-1.38l0.06-1.5v-1.53a8.81,8.81,0,0,1,.3-2.37,0.246,0.246,0,0,0,.06-0.18,7.918,7.918,0,0,1,.36-1.08,1,1,0,0,1,.3-0.42,0.571,0.571,0,0,1,.48-0.24,0.649,0.649,0,0,1,.48.18,9.268,9.268,0,0,0,.9.9,0.356,0.356,0,0,0,.3.15,0.593,0.593,0,0,0,.42-0.09,10.642,10.642,0,0,1,2.46-.48,2.539,2.539,0,0,0,1.02-.3c0.24-.039.489-0.069,0.75-0.09a3.079,3.079,0,0,0,.75-0.15q0.3-.059.9-0.12a3.472,3.472,0,0,0,.9-0.18,3.328,3.328,0,0,1,.66-0.12,4.951,4.951,0,0,0,1.02-.15,3.111,3.111,0,0,1,1.08-.09,3.957,3.957,0,0,0,1.2-.12h0.24l0.72-.12h0.3a5.5,5.5,0,0,0,.78-0.06,6.449,6.449,0,0,1,.9-0.06,10.97,10.97,0,0,0,1.38-.06l1.62-.06h1.86a0.964,0.964,0,0,1,.42-0.03,1.281,1.281,0,0,0,.48-0.03h1.44a11.662,11.662,0,0,0,1.44-.06h0.84q1.02-.059,3-0.06l0.96,0.06h0.24a0.9,0.9,0,0,1,.51.03,1.481,1.481,0,0,0,.45.09l0.96,0.06a3.87,3.87,0,0,0,.9.06c0.04,0,.15-0.009.33-0.03a1.456,1.456,0,0,1,.51.03,0.909,0.909,0,0,1,.72.36q0,0.18.12,0.18a0.936,0.936,0,0,1,.48.48,0.509,0.509,0,0,0,.3.18,0.707,0.707,0,0,1,.36.36,0.848,0.848,0,0,1-.24.3,2.21,2.21,0,0,0-.18.51,2.2,2.2,0,0,1-.18.51l-0.54,1.68a3.433,3.433,0,0,1-.24.51q-0.18.33-.3,0.51l-0.24.12a2.445,2.445,0,0,0-.84.18q-1.2.24-1.56,0.3a0.649,0.649,0,0,1-.48.18,0.664,0.664,0,0,1-.3-0.06,0.109,0.109,0,0,0-.15,0,0.289,0.289,0,0,1-.15.06,5.429,5.429,0,0,0-1.2.42,3.975,3.975,0,0,1,.42-0.84,0.494,0.494,0,0,1,.03-0.15c0.02-.06.01-0.09-0.03-0.09l-0.66-2.7c0-.2-0.06-0.3-0.18-0.3h-1.62l-2.76.06a14.422,14.422,0,0,1-1.59.03q-0.69-.03-1.23-0.03h-2.04q-1.381,0-2.1.06a22.486,22.486,0,0,0-2.34.36q-0.841.06-2.46,0.06l-1.98.24-1.2-.06a24.562,24.562,0,0,0-3.72.72,3.229,3.229,0,0,1-.93.27c-0.381.06-.651,0.111-0.81,0.15a0.241,0.241,0,0,1-.24.12,0.471,0.471,0,0,0-.36.48q0,0.9-.12,2.7l-0.06,1.2a0.886,0.886,0,0,1-.42.84,0.447,0.447,0,0,1-.15.18,0.451,0.451,0,0,0-.15.18,1.233,1.233,0,0,1-.33.27,0.349,0.349,0,0,1-.27-0.21Zm-8.16-.42a1.65,1.65,0,0,0,.09.33,0.368,0.368,0,0,1-.27.45l-0.18.18v0.9a0.684,0.684,0,0,1-.72.9,0.3,0.3,0,0,0-.15.06,0.291,0.291,0,0,1-.15.06q0.3,0.42-.24.48l-0.18.18a0.744,0.744,0,0,1-.3.18,2.875,2.875,0,0,0-.84.48h-0.12l-1.08.18a0.96,0.96,0,0,1-.57-0.03,1.145,1.145,0,0,1-.33-0.51,1.477,1.477,0,0,0-.15-0.45,0.424,0.424,0,0,0-.39-0.15h-0.12q-0.3-.72-0.54-1.2a0.375,0.375,0,0,0-.3-0.3,0.96,0.96,0,0,1-.6-0.9l0.06-.3a10.183,10.183,0,0,0,.12-1.38,1.485,1.485,0,0,0-.12-0.54q-0.121-.3-0.18-0.48l-0.78-1.26a0.346,0.346,0,0,1,.06-0.24,0.52,0.52,0,0,0,.24-0.42,0.679,0.679,0,0,0-.06-0.3,0.472,0.472,0,0,1,.18-0.6,0.692,0.692,0,0,0,.12-0.27,0.277,0.277,0,0,1,.3-0.21,1.331,1.331,0,0,1,.6.3,0.747,0.747,0,0,0,.18-0.33,0.224,0.224,0,0,1,.18-0.21,0.678,0.678,0,0,1,.3.06l-0.24-1.44a0.245,0.245,0,0,1,.18-0.06q0.9,0.72.96,0.78a0.673,0.673,0,0,1,.12.21c0.039,0.1.08,0.19,0.12,0.27a0.73,0.73,0,0,0,.33.48,2.988,2.988,0,0,1,.33.24l0.36,0.18a2.472,2.472,0,0,0,1.68,1.02,1.535,1.535,0,0,1,.72.36,2.584,2.584,0,0,0,.96.42,2.238,2.238,0,0,1,1.14.42,3.256,3.256,0,0,0,.36.21,3.4,3.4,0,0,1,.36.21,0.555,0.555,0,0,1,.42.36,1.039,1.039,0,0,1-.18.42l-0.06.12a0.522,0.522,0,0,1-.15.48,0.687,0.687,0,0,0-.21.36,0.382,0.382,0,0,1-.36.12,0.832,0.832,0,0,1-.42.03,0.564,0.564,0,0,0-.48.15h0Zm31.62-.66a1.639,1.639,0,0,0,.42.48,4.883,4.883,0,0,1-.96.72,0.134,0.134,0,0,1-.15.03,0.137,0.137,0,0,0-.15.03,0.287,0.287,0,0,0-.21.09,0.247,0.247,0,0,1-.15.09,0.406,0.406,0,0,1-.3.12c-0.28,0-.591-0.009-0.93-0.03a9.007,9.007,0,0,0-1.23.03q-1.44,0-4.08.12-1.381.18-4.92,0.66a24.067,24.067,0,0,0-2.46.42l-0.18.12a0.271,0.271,0,0,0-.15.15,0.105,0.105,0,0,1-.09.09,0.743,0.743,0,0,1-.54-0.24,2.74,2.74,0,0,0-.9-0.48,0.345,0.345,0,0,1-.24-0.06l-0.6-.6a0.1,0.1,0,0,0-.06-0.09,0.273,0.273,0,0,0-.12-0.03,0.857,0.857,0,0,0-.48-0.72,1.761,1.761,0,0,1-.21-0.12,2.164,2.164,0,0,0-.21-0.12,2.638,2.638,0,0,1,.45-0.18,1.355,1.355,0,0,0,.39-0.18c0.159,0,.24-0.06.24-0.18a0.7,0.7,0,0,1,.6-0.24l1.8-.24h0.6l1.44-.18a3.039,3.039,0,0,0,.51-0.06,3.8,3.8,0,0,0,.51-0.12q0.36,0,1.56-.12,1.38,0,2.1-.06H86.8c0.159-.039.42-0.1,0.78-0.18a4.724,4.724,0,0,1,1.02-.12l2.28-.12,1.08-.06,1.44,0.12q0.6,0,2.04.12a4.9,4.9,0,0,0,1.02.3,0.2,0.2,0,0,1,.15.24,0.277,0.277,0,0,0,.03.24,0.515,0.515,0,0,0-.3.18,1.8,1.8,0,0,1-.39.12,2.341,2.341,0,0,1-.51.06h0Zm-1.26,13.62a1.584,1.584,0,0,1,.06.48,3.76,3.76,0,0,1-.06.72c-0.04.2-.081,0.381-0.12,0.54v0.36l-0.18,1.32a13.728,13.728,0,0,0-.36,2.58l-0.12,1.14c-0.04.12-.16,0.5-0.36,1.14a0.9,0.9,0,0,1-.48.3,1.658,1.658,0,0,1-.72.12l-0.12.24a0.246,0.246,0,0,0-.06.18,1.093,1.093,0,0,1-.66-0.42,1.787,1.787,0,0,1-.54-0.06,1.01,1.01,0,0,1-.3-0.12,1.98,1.98,0,0,1-.48-0.3,1.359,1.359,0,0,0-.18.39,1.388,1.388,0,0,1-.18.39,0.329,0.329,0,0,1-.36.18,0.662,0.662,0,0,1-.27.12,0.38,0.38,0,0,0-.27.3,0.329,0.329,0,0,1-.36.18q-0.661.121-1.74,0.24-0.78.18-2.34,0.42a5.747,5.747,0,0,1-.9.18,6.194,6.194,0,0,0-.9.18,3.838,3.838,0,0,0-.87.24c-0.3.12-.51,0.2-0.63,0.24a0.222,0.222,0,0,1-.21.03,1.4,1.4,0,0,0-.21-0.03h-0.24a0.6,0.6,0,0,1-.6-0.09,0.832,0.832,0,0,1-.36-0.57,0.856,0.856,0,0,0-.27-0.36,0.475,0.475,0,0,1-.21-0.3l-0.24.06a0.213,0.213,0,0,1-.21.09,0.564,0.564,0,0,1-.21-0.15,0.194,0.194,0,0,0-.18-0.12,0.348,0.348,0,0,0-.24.12,1.223,1.223,0,0,0-.15.21,0.252,0.252,0,0,1-.21.15l-0.18-.06-0.42-1.32-0.12-.48a0.4,0.4,0,0,1-.12-0.3v-2.7c0.039-.2.08-0.45,0.12-0.75a5.764,5.764,0,0,0,.06-0.69v-1.2a0.343,0.343,0,0,0,.03-0.24,0.286,0.286,0,0,0-.21-0.18,0.054,0.054,0,0,0-.06-0.06,0.811,0.811,0,0,1,.06-0.51,2.433,2.433,0,0,1,.24-0.51l0.12-.24,0.06-3.24a3.418,3.418,0,0,0-.24-0.72c0-.12-0.021-0.18-0.06-0.18a1.955,1.955,0,0,1,.24-0.3l0.24-.24a1.482,1.482,0,0,1,.54-0.3l0.36,0.12a0.574,0.574,0,0,0,.48.03,1.142,1.142,0,0,1,.36-0.09,5.33,5.33,0,0,1,1.17-.69,9.815,9.815,0,0,1,1.29-.45q1.679-.419,2.04-0.48a0.276,0.276,0,0,0,.36-0.36l0.12-1.26q0.18-.9.24-1.08a2.4,2.4,0,0,1,.06-0.66,5.141,5.141,0,0,1,.48-1.26,0.972,0.972,0,0,0,.15-0.27,0.329,0.329,0,0,1,.33-0.21,0.248,0.248,0,0,1,.18.06,0.886,0.886,0,0,1,.42.3,1.316,1.316,0,0,0,.48.66,1.455,1.455,0,0,1,.36.78v0.12a4.507,4.507,0,0,0-.06.84,3.238,3.238,0,0,0,.24,1.32l0.06,0.24a0.344,0.344,0,0,0,.03.33,0.465,0.465,0,0,0,.33.09q1.56,0,2.34.06a12.87,12.87,0,0,1,1.32.12l1.26,0.18a2.542,2.542,0,0,1,.57.24c0.219,0.12.39,0.22,0.51,0.3a1.006,1.006,0,0,1,.3.42,2.872,2.872,0,0,0,.3.42,1.123,1.123,0,0,1,.24.72v0.12a5.552,5.552,0,0,0,.3,1.98,2.194,2.194,0,0,1,.18.54,2.637,2.637,0,0,1,.06.42,0.407,0.407,0,0,1-.12.3h0Zm-39.42-.12,0.06-1.02a6.384,6.384,0,0,1-.15-0.9,2.526,2.526,0,0,0-.51-1.26,1.524,1.524,0,0,1-.42-1.02,1.948,1.948,0,0,1,.42-1.08,0.778,0.778,0,0,1,.72-0.42h0.3q0.48,0,.24-0.42a1.022,1.022,0,0,1-.06-0.42q-0.18-.48.48-0.48a0.93,0.93,0,0,1,.78.6l0.18,0.6a1.828,1.828,0,0,0,1.56,1.02q2.46,0.42,3.42.6a5.887,5.887,0,0,1,1.14.24,1.652,1.652,0,0,1,.24.15c0.08,0.06.1,0.111,0.06,0.15a0.825,0.825,0,0,1-.3.54,2.61,2.61,0,0,0-.72.78,0.593,0.593,0,0,1-.18.21,1.73,1.73,0,0,0-.18.15l-0.72.84a1.4,1.4,0,0,1-.66.3,4.463,4.463,0,0,0-.75.42,3.427,3.427,0,0,1-.81.42,0.916,0.916,0,0,1-.39.06,1.472,1.472,0,0,0-.45.06,12.508,12.508,0,0,1-1.44.12h-0.3a4.1,4.1,0,0,0-.57-0.09,1.077,1.077,0,0,1-.51-0.15,0.35,0.35,0,0,0-.24-0.03,0.945,0.945,0,0,1-.24.03h0Zm35.7,0.84v-0.48a5.929,5.929,0,0,0,.06-0.93,5.827,5.827,0,0,1,.06-0.93,2.268,2.268,0,0,0-.03-0.81,3.792,3.792,0,0,1-.09-0.63,0.318,0.318,0,0,0-.36-0.36c-0.321,0-.741-0.009-1.26-0.03s-1.12-.069-1.8-0.15c-0.2,0-.3.141-0.3,0.42q-0.18,1.022-.42,3.06v0.36h0.72a5.924,5.924,0,0,1,.9-0.3l0.18,0.06a1.517,1.517,0,0,0,.18.15,0.4,0.4,0,0,0,.24.09,16.085,16.085,0,0,1,1.92.48h0Zm-7.2-3.66h-0.12l-1.38.54c-0.16.081-.31,0.15-0.45,0.21s-0.25.111-.33,0.15c-0.12.12-.25,0.261-0.39,0.42a0.888,0.888,0,0,1-.45.3,0.611,0.611,0,0,0-.21.18,0.257,0.257,0,0,1-.21.12,0.265,0.265,0,0,0-.3.3q0.059,0.421.3,1.56a0.4,0.4,0,0,0,.03.18,0.15,0.15,0,0,0,.15.06h1.14a2,2,0,0,1,.6-0.12,1.3,1.3,0,0,0,.42-0.06l1.08-.12q0.12-2.52.12-3.72h0Zm7.08,4.44-0.06-.06-0.24.24,0.18,0.24Zm-5.22,5.46c0.36-.039.9-0.06,1.62-0.06l1.44-.24h0.18l1.02,0.24a0.278,0.278,0,0,0,.3-0.18l0.06-.84a3.621,3.621,0,0,1,.21-0.96,2.538,2.538,0,0,0,.15-1.08l0.06-.18,0.12-1.38H89.8l-0.3.15a0.709,0.709,0,0,1-.3.09,26.009,26.009,0,0,1-2.58.42,0.387,0.387,0,0,0-.3.3l-0.3,1.68a2.87,2.87,0,0,0-.15.45,0.488,0.488,0,0,1-.39.39,0.172,0.172,0,0,0-.12.12,0.465,0.465,0,0,0-.06.18Zm-5.22-.24h0.12a0.631,0.631,0,0,0,.18.12,0.4,0.4,0,0,1,.18.18,0.632,0.632,0,0,0,.18.39,0.724,0.724,0,0,0,.42.09q0.48,0,2.04-.12,0.48,0,.3-0.54a0.353,0.353,0,0,0-.06-0.24,10.933,10.933,0,0,1-.42-2.82c0.039-.159-0.04-0.24-0.24-0.24l-2.4.18a0.367,0.367,0,0,0-.27.09,0.248,0.248,0,0,0-.03.27v2.64Zm-28.08,2.7a0.783,0.783,0,0,0,.21-0.15,0.243,0.243,0,0,0,.09-0.15,5.067,5.067,0,0,1,.6-0.54l0.66-.36c0.12-.12.15-0.219,0.09-0.3a0.357,0.357,0,0,1-.09-0.18l0.9-.6a0.774,0.774,0,0,1,.45-0.09,0.62,0.62,0,0,1,.39.27l0.06-.24,0.06,0.06a0.7,0.7,0,0,0,.36.36l0.6-.06,0.48-.06c0.08-.039.17-0.09,0.27-0.15a1.7,1.7,0,0,1,.33-0.15q0.779-.18,2.34-0.66a5.247,5.247,0,0,0,1.14-.72l0.54-.42a5.2,5.2,0,0,1,.48.84l-0.24.42,0.48,0.3a0.175,0.175,0,0,0-.06.12,0.168,0.168,0,0,1-.12.12,0.449,0.449,0,0,1,.21.27,0.649,0.649,0,0,1-.03.33,3.965,3.965,0,0,1-.36.66,0.593,0.593,0,0,1-.18.21,1.73,1.73,0,0,0-.18.15,0.593,0.593,0,0,0-.09.42,3.294,3.294,0,0,1,.03.36,0.532,0.532,0,0,0,.09.27,0.175,0.175,0,0,1,.03.21l-0.6.6a0.679,0.679,0,0,0-.3.24,2.19,2.19,0,0,1-.84,1.44,4.262,4.262,0,0,0-.42.24,3.668,3.668,0,0,1-.42.24l-1.08.42a0.508,0.508,0,0,0-.42.3q-0.06.242-.48,0.18c-0.081-.039-0.2-0.09-0.36-0.15a1.224,1.224,0,0,0-.42-0.09l-0.3.12c0,0.041-.03.06-0.09,0.06s-0.09-.019-0.09-0.06a1.026,1.026,0,0,0-.48-0.21,3.453,3.453,0,0,0-.36-0.03,0.981,0.981,0,0,1-.48-0.33,0.845,0.845,0,0,1-.24-0.57c0-.079-0.01-0.219-0.03-0.42a0.494,0.494,0,0,0-.27-0.42v-0.12a0.72,0.72,0,0,0-.54-0.78l-1.26-.9-0.12-.3h0.06Zm30.9,12.84a0.379,0.379,0,0,0-.15-0.09,0.271,0.271,0,0,1-.15-0.15,0.426,0.426,0,0,1-.42.3,1,1,0,0,1-.39-0.09,1,1,0,0,0-.39-0.09l-0.06.54a0.346,0.346,0,0,1-.06-0.24,2.117,2.117,0,0,0-.54-1.26,1.431,1.431,0,0,1-.48-1.02,1.661,1.661,0,0,1,.12-0.72c0.039-.2.09-0.49,0.15-0.87a8.314,8.314,0,0,1,.21-0.99l0.24-1.02,0.3-.78a0.416,0.416,0,0,1,.24-0.18,2.044,2.044,0,0,1,.3-0.6q0.12-.12.36-0.42l0.24-.12a0.824,0.824,0,0,1,.66.48,3.993,3.993,0,0,0,1.26,2.1,2.114,2.114,0,0,1,.51.69,3.123,3.123,0,0,0,.45.69v0.06q-0.06.36-.18,1.11a3.939,3.939,0,0,1-.42,1.29v0.18a8.85,8.85,0,0,1-.42,1.08q-0.121.3-.36,0.12a1.042,1.042,0,0,1-.3-0.12,0.448,0.448,0,0,0-.72.12h0Zm7.38-.42a0.558,0.558,0,0,0-.3-0.36,1.333,1.333,0,0,0-.48.18,1.514,1.514,0,0,1-.36.18,0.695,0.695,0,0,0-.3.42,0.348,0.348,0,0,1-.24.06,0.423,0.423,0,0,0-.6.12q-0.24.36-.54,0-0.18-.3-0.66-1.05a3.926,3.926,0,0,1-.6-1.53,4.487,4.487,0,0,1-.12-1.26,0.346,0.346,0,0,1,.3-0.48,0.536,0.536,0,0,0,.24-0.06,0.458,0.458,0,0,1,.18-0.06l0.42,0.06a0.241,0.241,0,0,1,.12-0.24h0.12l1.26,1.08,0.84,0.48,0.24,0.24a0.32,0.32,0,0,0,.24.18,0.815,0.815,0,0,1,.36.54,1.031,1.031,0,0,0,.24.66,0.933,0.933,0,0,1,0,.48,1.455,1.455,0,0,1-.36.36h0Zm63.12-46.8-0.36.18a6.138,6.138,0,0,1-1.5.66h-0.3a0.579,0.579,0,0,0-.42.48,0.811,0.811,0,0,1-.48.78,0.537,0.537,0,0,0-.48.54l0.06,0.18a0.242,0.242,0,0,1,0,.24,0.989,0.989,0,0,0-.06.3l0.06,0.42a1.455,1.455,0,0,0-.36.78l0.06,0.24a0.106,0.106,0,0,1-.12.12,1,1,0,0,0-.12.15,0.2,0.2,0,0,0-.03.18,1.315,1.315,0,0,0,.15.27l-0.12.06-1.02.42H148a1.645,1.645,0,0,1-.84.3,3.246,3.246,0,0,1-.72-0.12h-0.18a16.232,16.232,0,0,1-1.62.24,1.078,1.078,0,0,0-.39.06c-0.1.04-.19,0.081-0.27,0.12h-1.44a0.706,0.706,0,0,0-.21.06,0.19,0.19,0,0,1-.21,0q-0.3-.059-0.42.42a0.212,0.212,0,0,1-.18.18l-0.9.15a5.657,5.657,0,0,1-.9.09,3.955,3.955,0,0,1-.75-0.09q-0.45-.09-0.81-0.15l-0.48.06h-0.33a1.129,1.129,0,0,0-.51.12c0,0.04-.04.06-0.12,0.06H134.8a9.834,9.834,0,0,0-1.26-.12,0.975,0.975,0,0,0-.48,0,2.556,2.556,0,0,1-.48.06l-0.66-.18-0.84-.12a1.841,1.841,0,0,0-.54-0.06,0.935,0.935,0,0,0-.39-0.03,1.2,1.2,0,0,1-.21.03,9.02,9.02,0,0,1-1.2.06l-0.24.12a0.793,0.793,0,0,1-.78-0.06c-0.24-.159-0.46-0.3-0.66-0.42s-0.36-.219-0.48-0.3a4.5,4.5,0,0,1-.78-0.66l-0.72-1.02-0.12-.12a0.438,0.438,0,0,1-.36-0.42,0.4,0.4,0,0,0-.09-0.24,1.823,1.823,0,0,0-.15-0.18,1.48,1.48,0,0,1-.36-0.84v-0.18l0.18-.72a0.476,0.476,0,0,0-.06-0.3,4.416,4.416,0,0,1-1.02-2.4,0.245,0.245,0,0,0-.06-0.18,0.7,0.7,0,0,1,.03-0.6,0.842,0.842,0,0,1,.45-0.42q0.12,0,.12-0.18a0.359,0.359,0,0,0,0-.3l0.06-.24a0.538,0.538,0,0,0,.42-0.21,1.125,1.125,0,0,1,.3-0.27,1.373,1.373,0,0,1,.78-0.3,0.983,0.983,0,0,1,.6.36,4.131,4.131,0,0,0,1.74.72,16.639,16.639,0,0,0,2.34.12h1.8a15.9,15.9,0,0,0,1.62-.12h1.62l1.5-.06q0.9-.059,2.7-0.06a4.238,4.238,0,0,1,.87-0.03,4.114,4.114,0,0,0,.87-0.03h3.18a6.211,6.211,0,0,1,1.32.12,5.849,5.849,0,0,0,1.05.18q0.63,0.06,1.05.12a18.964,18.964,0,0,1,2.1.3,6.44,6.44,0,0,1,1.32.36l0.54,0.48,0.54,0.36,1.08,0.36a0.338,0.338,0,0,1,.18.12h0Zm11.94,9.18a0.381,0.381,0,0,1-.12.36,0.343,0.343,0,0,0,.06.54l-0.24.12a0.954,0.954,0,0,0-.24.18,0.348,0.348,0,0,0-.06.24,0.247,0.247,0,0,1,.18.06h0.24v0.06l-0.24.12a1.228,1.228,0,0,0-.72.54,1.678,1.678,0,0,1-.3.36l-0.12-.06,0.24,0.84-0.9.36q-0.36.06-.18,0.42v0.06H162.7a2.474,2.474,0,0,1-.24.36,0.667,0.667,0,0,1-.54.36,0.256,0.256,0,0,0-.24.24l-0.18.42a1.192,1.192,0,0,0-.09.24,0.338,0.338,0,0,0,.03.24,0.363,0.363,0,0,1,0,.54,2.343,2.343,0,0,0-.3.84v0.12a0.725,0.725,0,0,1-.18.63,1.361,1.361,0,0,1-.6.39,11.517,11.517,0,0,0-1.2.48,7.78,7.78,0,0,0-1.08.24l-0.72.24a0.479,0.479,0,0,0-.3.06l-0.48.12a15.1,15.1,0,0,1-1.56.06q-1.14.18-1.2,0.18a19.833,19.833,0,0,1-3.24.3h-1.74l-1.74.06h-3a3.642,3.642,0,0,0-.6.12l-0.06.6a8.338,8.338,0,0,0,.03,1.56c0.06,0.6.09,1.041,0.09,1.32a5.545,5.545,0,0,0,.12,1.08q0.12,0.6.18,0.84a10.544,10.544,0,0,0,.24,1.5l0.18,1.02,0.12,1.56,0.06,1.2a1.023,1.023,0,0,0,.06.42c0.04,0.321.08,0.69,0.12,1.11s0.06,0.93.06,1.53l-0.06,1.2,0.06,1.74v1.26a7.553,7.553,0,0,1,.12,1.2,3.308,3.308,0,0,1-.12.66l-0.06,1.02a1.264,1.264,0,0,1-.03.21,0.185,0.185,0,0,1-.21.15q-0.06,0-.06.12l-0.12.18a0.278,0.278,0,0,0-.3.21,1.351,1.351,0,0,0-.06.27l-0.24.96a0.424,0.424,0,0,1-.36.36l-0.3.3-0.54.66a0.361,0.361,0,0,1-.48,0,0.435,0.435,0,0,0-.6,0l-0.36.36a0.249,0.249,0,0,1-.24.09,0.269,0.269,0,0,1-.18-0.15,12.446,12.446,0,0,0-.66-1.5,5.946,5.946,0,0,1-.6-1.8,33.978,33.978,0,0,1-.24-4.2,7.7,7.7,0,0,0-.06-1.14l-0.18-2.88-0.12-4.32a22.739,22.739,0,0,0-.18-2.82,12.767,12.767,0,0,0-.12-1.44l-0.18-1.44a7.685,7.685,0,0,1-.06-1.14l-0.06-.42a7.184,7.184,0,0,1-.12-1.02,0.435,0.435,0,0,0-.6-0.6l-2.1.06a6.176,6.176,0,0,1-.93-0.06q-0.39-.059-0.69-0.12l-1.08-.12q-0.48,0-1.17-.03t-1.65-.15a7.315,7.315,0,0,1-1.02-.06,6.6,6.6,0,0,1-.66-0.12q-1.2-.12-1.8-0.12a16.177,16.177,0,0,0-1.62.06l-1.62.06-2.04-.24-1.5-.12h-0.48a2.827,2.827,0,0,0-1.17.18,4.093,4.093,0,0,1-1.11.24,1.81,1.81,0,0,1-.54-0.06,2.031,2.031,0,0,1-1.14-.54l-0.54-.36-0.3-.3-0.06-.12-0.72-.36a0.454,0.454,0,0,1-.21-0.12,0.265,0.265,0,0,1-.03-0.36,1.253,1.253,0,0,0,0-.78,2.224,2.224,0,0,1-.06-0.54v-0.42a3.293,3.293,0,0,0-.12-0.72l-0.3-.84a0.426,0.426,0,0,1-.06-0.36,2.177,2.177,0,0,1,.72-1.2,0.351,0.351,0,0,1,.24-0.06,1.81,1.81,0,0,0,.54.06,1.273,1.273,0,0,0,.66-0.12,0.2,0.2,0,0,1,.3.03,2.649,2.649,0,0,0,.18.21,1.237,1.237,0,0,0,1.14.48l2.52-.18h1.92a7.111,7.111,0,0,0,1.02-.12l1.2,0.06h0.24a1.969,1.969,0,0,1,1.08-.24h0.42a5.082,5.082,0,0,1,.9-0.12,2.881,2.881,0,0,1,.66-0.06l0.54-.06,2.82-.18q1.56,0,2.34-.06l1.44-.18a2.742,2.742,0,0,1,.69-0.03,2.661,2.661,0,0,0,.69-0.03,2.085,2.085,0,0,0,.66-0.12l0.18-.06,1.86-.06,1.26-.12,2.04-.24q1.2-.059,3.6-0.3l2.1-.24,2.76-.3q2.04-.239,3.06-0.3,2.4-.239,3.6-0.3,1.56-.12,2.4-0.12a12.326,12.326,0,0,1,1.44-.03c0.4,0.021.74,0.03,1.02,0.03h1.26l1.26,0.06a1.9,1.9,0,0,1,.24.03,0.312,0.312,0,0,1,.24.27l0.3,0.06a1.407,1.407,0,0,0,.66-0.3l0.24-.06a0.053,0.053,0,0,1,.06.06h0Zm-44.1,29.58v-0.36l0.36-.6a0.2,0.2,0,0,0,.06-0.15,0.205,0.205,0,0,1,.06-0.15,3.692,3.692,0,0,1,.42-0.78,2.757,2.757,0,0,0,.48-0.72l0.54-1.08,0.3-.72a2.212,2.212,0,0,1,.96-0.96,4.031,4.031,0,0,1,.84-0.42l0.36,0.06a0.468,0.468,0,0,0,.3-0.06,0.5,0.5,0,0,1,.45-0.33c0.22-.019.37-0.03,0.45-0.03a0.467,0.467,0,0,0,.42-0.18,0.893,0.893,0,0,1,.6-0.42,1.858,1.858,0,0,0,.96-0.6,1.775,1.775,0,0,1,.36-0.3,3.963,3.963,0,0,0,1.38-.66,2.15,2.15,0,0,1,.48-0.3,10.479,10.479,0,0,0,1.08-.6h0.06a0.8,0.8,0,0,0,.57-0.12,1.194,1.194,0,0,1,.51-0.18,0.353,0.353,0,0,1,.24.06q0.06,0.061.09,0.03a0.127,0.127,0,0,1,.09-0.03,0.938,0.938,0,0,1,.36.12,1.012,1.012,0,0,1,.15.3,0.45,0.45,0,0,0,.27.3l0.06,0.12a1.389,1.389,0,0,0,.54,1.08,14.062,14.062,0,0,1,1.2,1.8,0.538,0.538,0,0,0,.18.27,0.6,0.6,0,0,1,.18.21l0.18,0.48-0.06.3a0.683,0.683,0,0,1-.12.6,2.664,2.664,0,0,1-.66.42,2.992,2.992,0,0,0-.96.66,0.993,0.993,0,0,1-.42.3l-0.36.18a0.777,0.777,0,0,0-.3.18,0.731,0.731,0,0,1-.3.18,3.745,3.745,0,0,0-.75.36,2.139,2.139,0,0,1-.69.3,3.227,3.227,0,0,0-.69.24,6.04,6.04,0,0,1-.57.24l-0.36.06-1.2.18-0.18-.06-0.18-.06a1.6,1.6,0,0,1-.84.03,2.159,2.159,0,0,0-.78-0.03,1.013,1.013,0,0,1-.42.06l-0.84-.18-1.8-.18h-0.06l-0.9.18a2.939,2.939,0,0,0-1.05.33,12.14,12.14,0,0,0-1.05.63h0Zm40.68-.6-1.2.12-0.36.06a0.205,0.205,0,0,1,.06.15,0.2,0.2,0,0,0,.06.15,0.289,0.289,0,0,0,.06.15,0.491,0.491,0,0,1,.06.27,0.259,0.259,0,0,1-.12.21,0.311,0.311,0,0,1-.3.03h-0.12q-0.48,0-.48.24a0.668,0.668,0,0,0,.06.3,9.868,9.868,0,0,1-1.14.12l-0.18.24,0.18,0.12v0.06H158.2a2.3,2.3,0,0,0-.81.03,1.718,1.718,0,0,1-.87-0.03,6.162,6.162,0,0,1-1.5-.66l-1.32-.72-1.32-.84a3.352,3.352,0,0,0-1.38-.66,0.246,0.246,0,0,1-.15-0.09,0.243,0.243,0,0,1-.09-0.15,5.046,5.046,0,0,0-.42-0.72l-1.08-1.62a2.29,2.29,0,0,1-.3-0.9c-0.08-.319-0.16-0.72-0.24-1.2a0.248,0.248,0,0,1,.06-0.18q0-.478.36-0.18c0.16,0.12.26,0.1,0.3-.06a0.57,0.57,0,0,1,.18-0.24,0.2,0.2,0,0,0,.06-0.15,0.205,0.205,0,0,1,.06-0.15l0.48,0.24a0.508,0.508,0,0,1,.42-0.3,1.175,1.175,0,0,1,.6.24l2.1,0.84,0.48,0.12,1.5,0.9a2.921,2.921,0,0,0,.27.12q0.15,0.061.33,0.12,1.8,0.962,2.04,1.08t1.5,0.78q0.72,0.422.84,0.48a1.482,1.482,0,0,1,.6.54,5.187,5.187,0,0,0,.54.66,3.845,3.845,0,0,1,.3.48h0Zm15.36-31.02a2.156,2.156,0,0,1-1.08-.24,0.73,0.73,0,0,0,0-.96,1.277,1.277,0,0,1-.12-0.66,2.718,2.718,0,0,0-.6-1.92,3.288,3.288,0,0,1-.24-1.5,1.309,1.309,0,0,0-.54-1.08,1.009,1.009,0,0,1-.42-0.96v-0.72l0.54-1.98a0.423,0.423,0,0,1,.21-0.09,0.415,0.415,0,0,1,.27.03q0.54,0.121.54-.54,0.12,0.121.36,0.33a1.158,1.158,0,0,0,.48.27,0.848,0.848,0,0,0,.48.12l0.72,0.24a1.193,1.193,0,0,1,.42.3,0.657,0.657,0,0,0,.42.24l0.36-.06q1.56-.48,2.46-0.84a2.993,2.993,0,0,1,.6-0.27,3.517,3.517,0,0,0,.78-0.39q1.44-.419,3.9-0.9h0.06a1.415,1.415,0,0,1,.6-0.18,5.089,5.089,0,0,1,.84.12q0.36,0.06.96,0.18a5.291,5.291,0,0,0,1.02.12,1.034,1.034,0,0,1,.66.54,1.894,1.894,0,0,1,.3,1.02v0.33a0.523,0.523,0,0,0,.3.45,2.578,2.578,0,0,1-.27.51,1.117,1.117,0,0,0-.21.57,0.686,0.686,0,0,0,.3.54l-0.12.24q-0.42.24,0,.54a0.492,0.492,0,0,1,.18.3,1.039,1.039,0,0,1-.18.42,0.179,0.179,0,0,0-.03.18,0.831,0.831,0,0,1,.03.18l0.06,0.06q-1.02.841-.96,0.78a4.687,4.687,0,0,1-1.2.9,0.314,0.314,0,0,0-.06.3,0.429,0.429,0,0,1-.24.48l-0.78.3-0.12.12a3.345,3.345,0,0,1-1.56,1.5,1.537,1.537,0,0,0-.36.18,1.471,1.471,0,0,1-.36.18,9.411,9.411,0,0,1-2.34,1.02,1.99,1.99,0,0,1-1.08.3,9.81,9.81,0,0,1-1.56.3q-0.42.06-.81,0.15c-0.26.06-.53,0.111-0.81,0.15a0.263,0.263,0,0,1-.03.12,0.42,0.42,0,0,0-.03.18,0.749,0.749,0,0,0-.27.06,0.19,0.19,0,0,1-.21,0,0.915,0.915,0,0,1-.66-0.3,0.3,0.3,0,0,1-.3-0.36l-0.06-.36a0.945,0.945,0,0,0-.24-0.36v-0.18Zm32.82,37.56a0.192,0.192,0,0,0-.18.12,0.533,0.533,0,0,0-.06.24l-0.24.36a0.7,0.7,0,0,0-.18-0.12,0.392,0.392,0,0,1-.18-0.18,2.842,2.842,0,0,1-.42-0.78q-0.06-.24-0.12-0.63a4.21,4.21,0,0,1-.06-0.57l-0.18-3.54q-0.06-1.739,0-3.42l0.18-2.88q0.24-3.359.24-4.98v-1.44l0.06-2.52v-0.36l-0.78.12q-2.4.36-3.6,0.6a0.243,0.243,0,0,0-.24.3q0,0.242-.03.63a6.763,6.763,0,0,1-.15.93c-0.08.36-.16,0.8-0.24,1.32a4.306,4.306,0,0,1-.36,1.26,6.934,6.934,0,0,0-.24,1.05c-0.04.3-.08,0.551-0.12,0.75a2.327,2.327,0,0,1-.3.66,0.427,0.427,0,0,0-.06.36,7.709,7.709,0,0,1-1.26,1.38,13.577,13.577,0,0,1-1.32,1.2,4,4,0,0,1-2.28,1.02h-0.3a5.065,5.065,0,0,0-.9-0.06,1.782,1.782,0,0,1-1.08-.24,0.342,0.342,0,0,1-.24-0.06,0.89,0.89,0,0,1-.72-0.42,0.254,0.254,0,0,0-.15-0.21,1.113,1.113,0,0,1-.21-0.15l-0.42-.42-0.54-.72-0.18-.12a1.631,1.631,0,0,1,.42-0.36,2.623,2.623,0,0,1,.42.12q0.18,0.061.69,0.18a4.035,4.035,0,0,0,.93.12,5.857,5.857,0,0,0,2.94-.6,6.338,6.338,0,0,0,.9-0.78,1.112,1.112,0,0,0,.54-0.78v-0.96q0.06-1.318.06-3.9v-0.36a5.268,5.268,0,0,0-1.08.36l-1.92.72-1.26.42a4.252,4.252,0,0,1-.48.27c-0.2.1-.4,0.21-0.6,0.33a1.884,1.884,0,0,1-1.02.3,3.319,3.319,0,0,1-.78-0.12,1.592,1.592,0,0,0-.48-0.06v0.06q-0.42-1.26-.66-2.22a0.147,0.147,0,0,1,0-.18,0.526,0.526,0,0,0,.06-0.24c0.08-.36.18-0.849,0.3-1.47a4.733,4.733,0,0,1,.54-1.53q0.36-.658,1.2-1.98a1.156,1.156,0,0,1,.54-0.3,5.439,5.439,0,0,1,.36,1.92q0,0.842-.06,1.44c-0.04.4-.08,0.72-0.12,0.96l1.14-.36,4.2-1.56a0.424,0.424,0,0,0,.3-0.42v-5.88l-1.08.18-5.82,1.38a7.444,7.444,0,0,0-1.05.36q-0.57.24-.81,0.36a0.73,0.73,0,0,0-.48.42,0.6,0.6,0,0,1-.72.18,0.259,0.259,0,0,1-.12-0.03,0.422,0.422,0,0,0-.18-0.03l0.36-.12a0.324,0.324,0,0,0-.3-0.21,1.148,1.148,0,0,1-.36-0.09l-0.36-.12a1.471,1.471,0,0,1-.36-0.18,0.243,0.243,0,0,0-.12-0.3,1.736,1.736,0,0,1-.24-0.18,2.485,2.485,0,0,0-.39-0.45,1.032,1.032,0,0,1-.33-0.75l0.06-.3a0.136,0.136,0,0,0,.03-0.15,0.1,0.1,0,0,0-.09-0.09,1.04,1.04,0,0,0-.42-0.06l-0.36.12,0.12-.36,0.06-.42a0.348,0.348,0,0,1,.06-0.24,1.438,1.438,0,0,1,1.14-.48,2.128,2.128,0,0,1,.6.06,0.27,0.27,0,0,0,.3.06l3.06-.78a12.37,12.37,0,0,1,1.62-.33,10.25,10.25,0,0,0,1.2-.21l2.04-.36q2.04-.36,2.82-0.48a0.333,0.333,0,0,0,.3-0.36l0.18-3.78a0.216,0.216,0,0,0-.3-0.24,10.962,10.962,0,0,0-1.56.42l-1.02.42a5.652,5.652,0,0,1-.9.3H196.6a0.8,0.8,0,0,0-.48.03,1.15,1.15,0,0,1-.36.09,1.537,1.537,0,0,0-.36.18,0.578,0.578,0,0,1-.3.12,1.092,1.092,0,0,0-.51,0,1.068,1.068,0,0,1-.51,0l-0.6-.36a9.458,9.458,0,0,0-1.02-.54,0.573,0.573,0,0,0-.33-0.03,0.83,0.83,0,0,1-.39-0.03h-0.3a0.668,0.668,0,0,0,.3-0.36,0.306,0.306,0,0,0-.3-0.3,1.476,1.476,0,0,1-.78-0.78q-0.06-.12-0.21-0.36a0.823,0.823,0,0,1-.15-0.42v-0.18l-0.12-.12-0.24-.12q-0.48-.18-0.36-0.36a0.722,0.722,0,0,1,.48-0.48,1.889,1.889,0,0,1,.39-0.12,2.1,2.1,0,0,1,.39-0.06h0.06q0.54-.12,1.47-0.36a9.671,9.671,0,0,0,1.59-.54,22.421,22.421,0,0,1,5.52-2.04,2.545,2.545,0,0,1,.48-0.15,1.922,1.922,0,0,1,.3-0.03c0.4-.039.6-0.18,0.6-0.42a0.741,0.741,0,0,0-.18-0.42,0.925,0.925,0,0,1-.18-0.24l-0.12-.24-0.36-.42a0.47,0.47,0,0,1-.12-0.78,0.621,0.621,0,0,1,.54-0.18l0.84-.06a2.881,2.881,0,0,1,.66-0.06h0.3l0.72,0.06a4.4,4.4,0,0,1,1.92.66,0.815,0.815,0,0,1,.6.78,0.3,0.3,0,0,0,.3.36h0.18l3.6-.36a1.737,1.737,0,0,0,.24-0.03,0.341,0.341,0,0,0,.24-0.12,0.639,0.639,0,0,0,.06-0.33l-0.06-1.92a0.235,0.235,0,0,0-.18-0.24,0.12,0.12,0,0,1-.09-0.03,0.121,0.121,0,0,1-.03-0.09,4.471,4.471,0,0,0-.33-0.54,3.991,3.991,0,0,1-.39-0.72,0.508,0.508,0,0,1-.06-0.39,0.355,0.355,0,0,1,.3-0.09h0.18q0.24,0.06,1.02.3h0.24a2.116,2.116,0,0,1,1.2.36q0.24,0.121.51,0.24t0.51,0.24l0.84,0.54a1.962,1.962,0,0,1,.72.78,0.242,0.242,0,0,1,0,.24,0.989,0.989,0,0,0-.06.3l0.18,1.32c0,0.081.1,0.12,0.3,0.12q0.36,0,.96.03t1.38,0.15a37.461,37.461,0,0,1,3.84.66,7.388,7.388,0,0,1,1.74.54l2.34,1.14a5.488,5.488,0,0,1,.72.48,0.053,0.053,0,0,1,.06.06,1.3,1.3,0,0,0,.48.66,1.4,1.4,0,0,1,.48.6v0.24q-0.36.78-.57,1.38t-0.33.96a1.184,1.184,0,0,0-.3.42l-0.12.06a1.347,1.347,0,0,1-.33.54,4.655,4.655,0,0,0-.39.48,0.65,0.65,0,0,1-.33.33,0.98,0.98,0,0,1-.45.15h-0.06l-0.78.72h-0.12a0.392,0.392,0,0,0-.3,0,2.466,2.466,0,0,0-.3.12l-0.96.3a2.275,2.275,0,0,0-.72.48,2.242,2.242,0,0,0,.6-1.56,7.206,7.206,0,0,0-.12-1.02l-0.18-1.68a0.172,0.172,0,0,1-.12.06,0.053,0.053,0,0,0-.06.06,0.683,0.683,0,0,1-.54.48l-0.36-.06q-2.58-.54-3.54-0.66a8.978,8.978,0,0,0-1.26-.06h-1.32a0.4,0.4,0,0,0-.48.42q-0.18,1.021-.24,1.8t-0.12,1.26v0.96a0.212,0.212,0,0,0,.24.24h1.56a15.366,15.366,0,0,1,1.56.06l1.26,0.12q1.56,0.121,2.34.24a1.452,1.452,0,0,1,.78.36c0.12,0.081.12,0.18,0,.3l-0.24.12c-0.16.081-.16,0.18,0,0.3q0.3,0.24-.06.48l-0.18.18a0.235,0.235,0,0,1-.18.24,0.967,0.967,0,0,1-.24.06l-1.86.24-0.3.18a1.418,1.418,0,0,0-.24.36h-0.12l0.36,0.18a2.6,2.6,0,0,1-1.26.24q-0.78,0-2.22-.12h-1.08a0.212,0.212,0,0,0-.18.18l-0.18,5.16,1.44-.12q0.66-.059,1.92-0.06a25.238,25.238,0,0,1,3.66.24q1.44,0.24,2.16.42a14.292,14.292,0,0,1,1.74.48l0.9,0.3a1.469,1.469,0,0,1,.84,1.32v0.18a3.64,3.64,0,0,1-.12,1.08,10.933,10.933,0,0,1-.84,2.04l-1.26,1.98q-0.48.842-.78,1.26l-0.42.48q-0.06.121-.12,0.27t-0.12.27a10.18,10.18,0,0,0-1.02,1.14,3.344,3.344,0,0,1-.81.78,11.312,11.312,0,0,1-1.05.66,5.392,5.392,0,0,1-2.4.84,9.88,9.88,0,0,0-1.26.06H215.2a1.415,1.415,0,0,0-.6-0.18,1.738,1.738,0,0,0-.57.12,4.1,4.1,0,0,1-.63.18,0.546,0.546,0,0,0-.24.06,0.444,0.444,0,0,1-.18.06c-0.28-.039-0.42.06-0.42,0.3a2.758,2.758,0,0,0,.03.39,1.538,1.538,0,0,1-.03.51l-0.06,1.32a3.581,3.581,0,0,0-.06.78,10.333,10.333,0,0,0,.06,1.32q0,0.3-.03.75a6.416,6.416,0,0,0,.03,1.05,1.878,1.878,0,0,0,.06.51,1.631,1.631,0,0,1,.06.45,4.716,4.716,0,0,1,0,1.5q0,0.12-.36,1.5l-0.24.3a0.173,0.173,0,0,1-.12.06,0.053,0.053,0,0,0-.06.06,0.693,0.693,0,0,1-.78.42,0.336,0.336,0,0,0-.18.12q-0.48.42-.78-0.18Zm-0.24-37.74a7.779,7.779,0,0,0-1.14.06l-1.74.12a3.916,3.916,0,0,1-.96.12,0.567,0.567,0,0,0-.6.48,4.107,4.107,0,0,1-.06.78,10.555,10.555,0,0,1-.24,1.5l-0.18,1.86,0.18,0.12,4.2-.36a0.242,0.242,0,0,0,.3-0.24,12.742,12.742,0,0,1,.12-1.44q0.12-2.039.12-3h0Zm-25.5,7.32,0.3,0.54a4.88,4.88,0,0,1,1.02,1.38,3.8,3.8,0,0,1,.48,1.71q0.06,0.99.06,1.17c0.04,0.24.09,0.5,0.15,0.78a9.4,9.4,0,0,1,.15,1.08,7.778,7.778,0,0,0,.42,2.4,4.2,4.2,0,0,0,.06.57,4.535,4.535,0,0,0,.18.75,0.925,0.925,0,0,0,.09.42,0.8,0.8,0,0,1,.09.36l0.12,1.44a12.673,12.673,0,0,1,.06,1.44,3.844,3.844,0,0,0,.06.69,3.271,3.271,0,0,1,.06.57v0.18a0.947,0.947,0,0,0,.06.54,2.929,2.929,0,0,0,.06.63,2.147,2.147,0,0,1,.06.45,0.274,0.274,0,0,1,.03.21,0.5,0.5,0,0,0-.03.15v0.24a15.936,15.936,0,0,1-.12,2.76q-0.12.841-.24,1.32-0.06.242-.12,0.54a3.741,3.741,0,0,0-.06.72,3.225,3.225,0,0,0,.18,1.02v1.08a4.791,4.791,0,0,0-.3,1.38,3.805,3.805,0,0,1-.24.63q-0.18.39-.3,0.69a0.926,0.926,0,0,1-.24.27q-0.18.15-.3,0.27a0.8,0.8,0,0,1-.48.18l-0.3-.12h-0.18a0.48,0.48,0,0,1-.36.21q-0.24.03-.3,0.03a0.538,0.538,0,0,0-.27.09,0.522,0.522,0,0,1-.21.09,5.268,5.268,0,0,1-.78.12,1.156,1.156,0,0,1-.9-0.33,3.73,3.73,0,0,1-.6-1.05q-0.42-2.22-.48-2.7-0.06-.958-0.06-3l0.12-3.06a10.6,10.6,0,0,1,.27-1.59,13.028,13.028,0,0,0,.27-1.35,12.875,12.875,0,0,0,.12-1.5,11.658,11.658,0,0,0,.18-1.41c0.04-.54.06-0.909,0.06-1.11a4.236,4.236,0,0,1,.06-0.75q0.06-.329.12-0.57a16.713,16.713,0,0,0,.12-2.34l0.06-2.7a27.8,27.8,0,0,1,.3-2.82l0.18-.84a0.245,0.245,0,0,1,.06-0.18,0.7,0.7,0,0,0,.54-0.66,0.242,0.242,0,0,1,.12-0.15,2.187,2.187,0,0,0,.24-0.21,0.564,0.564,0,0,1,.24.18v-0.84h0.12Zm24.9,3.6h0.06v-2.28a0.285,0.285,0,0,0-.42-0.36,9.834,9.834,0,0,0-1.26.12q-1.92.121-2.76,0.24a0.352,0.352,0,0,0-.3.24,7.691,7.691,0,0,1-.06,1.14c-0.04.2-.1,0.45-0.18,0.75a3.02,3.02,0,0,0-.12.75l0.06,0.24v1.62l-0.12.6a0.357,0.357,0,0,0,.03.42,0.484,0.484,0,0,0,.39.18h0.12q2.04-.36,2.76-0.48,0.3-.059.75-0.12a5.759,5.759,0,0,1,.69-0.06,0.47,0.47,0,0,0,.36-0.48v-2.52Zm3.6,15.78a13.019,13.019,0,0,0,3.6-2.22q0.24-.239,1.53-1.53a25.294,25.294,0,0,0,2.25-2.55c0.24-.279.45-0.54,0.63-0.78s0.35-.459.51-0.66a4.024,4.024,0,0,0,1.02-1.92,0.331,0.331,0,0,0-.06-0.33,0.372,0.372,0,0,0-.3-0.15c-0.2,0-.43.011-0.69,0.03a4.891,4.891,0,0,1-.93-0.03q-1.26,0-1.8-.06l-2.1-.24q-0.84,0-2.52.12l-0.78.06a23.732,23.732,0,0,0-.66,5.76,38.493,38.493,0,0,0,.3,4.5h0Zm69.72-30.84a2.663,2.663,0,0,1-.9.24v0.06a0.537,0.537,0,0,1-.54.66,0.175,0.175,0,0,0-.12.06,0.245,0.245,0,0,0-.06.18,0.561,0.561,0,0,1-.36.42,1.017,1.017,0,0,0-.39.18,1.506,1.506,0,0,1-.27.18l-0.6.18q-0.48.06-.9,0.15c-0.28.06-.58,0.111-0.9,0.15h-1.38a9.805,9.805,0,0,0-1.26.06,1.242,1.242,0,0,1-.48-0.06,1.507,1.507,0,0,0-.66.03,2.462,2.462,0,0,1-.54.09,0.346,0.346,0,0,1-.24.06,7.26,7.26,0,0,0-1.08-.12l-0.72.06-1.86-.06-0.84-.12a0.175,0.175,0,0,0-.12.06,0.075,0.075,0,0,1-.12,0,9.67,9.67,0,0,1-1.26-.12h-0.42a0.27,0.27,0,0,0-.12.03,0.1,0.1,0,0,1-.12-0.03,3.93,3.93,0,0,0-1.14-.12q-0.24,0-.63.03a4.984,4.984,0,0,1-.93-0.03l-0.66-.18h-0.54l-1.02-.06a4.5,4.5,0,0,1-.84-0.06l-0.3-.06a0.206,0.206,0,0,0-.15-0.06,0.2,0.2,0,0,1-.15-0.06l-0.06-.12a4.748,4.748,0,0,1-.6.18,1.856,1.856,0,0,1-.84-0.18,0.364,0.364,0,0,0-.3,0,0.476,0.476,0,0,0-.06.3l0.06,0.54a1.523,1.523,0,0,1-.15.87,1.631,1.631,0,0,1-.57.69,1.516,1.516,0,0,0-.39.27l-0.27.27-1.44,1.38a10.116,10.116,0,0,0-1.2,1.02q0.06-.059-1.5,1.32-0.06.06-.96,0.78l-1.14,1.02a2.313,2.313,0,0,0,.54.24c0.12,0,.29.01,0.51,0.03a4.211,4.211,0,0,1,.75.15,2.509,2.509,0,0,0,.6.06,4.486,4.486,0,0,0,.51-0.03,2.358,2.358,0,0,1,.63.03h0.6a1.065,1.065,0,0,0,1.02-.6l0.72-1.56,0.12-.12a1.433,1.433,0,0,0,.48-1.02,0.906,0.906,0,0,1,.66-0.78,10.247,10.247,0,0,1,.96-0.6,6.4,6.4,0,0,1,2.04-.54q1.44-.12,2.28-0.12a0.467,0.467,0,0,0,.42-0.18l0.3,0.06,0.42,0.3a0.629,0.629,0,0,1,.66.12,0.638,0.638,0,0,0,.24.12,0.978,0.978,0,0,0,.3.06l1.2,0.18,0.12,0.12,0.66,0.42a1.8,1.8,0,0,0,.36.12,0.387,0.387,0,0,1,.3.3,0.644,0.644,0,0,0,.3.24,0.9,0.9,0,0,1,.54.9l-0.06.3a1.92,1.92,0,0,1-.6,1.2q-0.12.18-.54,0.69a3.742,3.742,0,0,1-.9.81,2.37,2.37,0,0,0-.42.39q-0.24.27-.36,0.39a0.175,0.175,0,0,0-.06.12,0.053,0.053,0,0,1-.06.06,0.76,0.76,0,0,0-.42.3,3.472,3.472,0,0,1-.24.3,1.591,1.591,0,0,0-.24.33,1.544,1.544,0,0,1-.24.33l-1.62,1.44-0.54.48-1.08.9-1.44,1.02-1.08.84-0.42.36a3.76,3.76,0,0,0-.48.36,0.284,0.284,0,0,1-.18.33q-0.24.152-.36,0.21a2.667,2.667,0,0,1-.54.51c-0.24.18-.42,0.311-0.54,0.39a0.205,0.205,0,0,0-.06.15,0.2,0.2,0,0,1-.06.15,0.24,0.24,0,0,0-.36-0.03,0.456,0.456,0,0,0-.18.21,5.785,5.785,0,0,0-.72.66c-0.04,0-.05.021-0.03,0.06a0.273,0.273,0,0,1,.03.12h0.06l-0.12.24h0.06a11.482,11.482,0,0,0,1.74.3h0.6a5.315,5.315,0,0,1,.96-0.03,4.974,4.974,0,0,0,.96-0.03h0.63a4.847,4.847,0,0,0,.81-0.06,1.147,1.147,0,0,0,.48-0.15,4.264,4.264,0,0,1,.48-0.21l0.9-.24a1.05,1.05,0,0,0,.78-0.78l-0.06-.3a7.649,7.649,0,0,1-.24-1.08,0.273,0.273,0,0,1-.03-0.21,0.66,0.66,0,0,0,.03-0.21l0.42,0.18v-0.06a0.469,0.469,0,0,1,.15-0.57q0.27-.21.33-0.27h0.18a0.473,0.473,0,0,0,.3-0.06,0.359,0.359,0,0,0,0-.3v-0.12c0.16-.039.28,0.06,0.36,0.3s0.2,0.34.36,0.3a0.392,0.392,0,0,0,.3-0.36v-0.12l-0.12-.36,0.3-.12c0.12,0.081.26,0.18,0.42,0.3s0.34,0.261.54,0.42a0.526,0.526,0,0,1,.66-0.12,0.437,0.437,0,0,0,.36-0.06,0.913,0.913,0,0,0,.24-0.18,0.408,0.408,0,0,1,.3-0.12,0.327,0.327,0,0,1,.24.15,0.517,0.517,0,0,1,.12.33l-0.06.96v0.18a1.012,1.012,0,0,1,.15.3,0.988,0.988,0,0,0,.21.36,0.229,0.229,0,0,1,.03.21,1.407,1.407,0,0,0-.03.27l-0.18.6-0.18.3-0.72.66,0.06,0.06a0.346,0.346,0,0,1-.06.24l-0.9.9-0.3.42a7.3,7.3,0,0,0-1.02.78l-0.3.42-0.06.18c-0.16.12-.34,0.261-0.54,0.42s-0.42.321-.66,0.48a2.369,2.369,0,0,1-1.08.36q-0.42.061-1.02,0.12c-0.4.041-.7,0.06-0.9,0.06q-0.48.061-1.14,0.12c-0.44.041-.96,0.06-1.56,0.06q-2.64.122-4.08,0.12a1.594,1.594,0,0,1-.45-0.06,1.918,1.918,0,0,0-.51-0.06l-0.66.06q-1.26,0-1.92-.06c-0.12,0-.29.011-0.51,0.03a3.737,3.737,0,0,1-.81-0.03,0.654,0.654,0,0,1-.42-0.24,1.291,1.291,0,0,1-.48-0.54l-0.42-.9a2.053,2.053,0,0,1-.12-0.84,0.932,0.932,0,0,1-.03-0.63,2.928,2.928,0,0,0,.09-0.63v-0.24l-0.3-.48a1.708,1.708,0,0,1-.42-1.26,0.851,0.851,0,0,1,.54-0.84l0.24-.3,0.96-.72,0.06-.06a0.844,0.844,0,0,0,.63-0.39,3.41,3.41,0,0,1,.27-0.39l0.24-.24a1.119,1.119,0,0,0,.57-0.33l0.39-.39q0.06-.059,1.5-1.32l0.36-.36q0.72-.66,2.16-1.86l1.68-1.38,1.44-1.26,0.9-.9a1.419,1.419,0,0,1,.36-0.24l0.6-.84-0.36-.12a1.347,1.347,0,0,0-.42-0.06h-0.96a0.322,0.322,0,0,0-.36.24l-0.18.48a0.333,0.333,0,0,0-.06.42,0.347,0.347,0,0,1-.06.42q-0.18.54-.24,0.66c-0.2,0-.3.141-0.3,0.42a0.24,0.24,0,0,1-.12.15,1.836,1.836,0,0,0-.18.15,0.705,0.705,0,0,1-.51.42,3.658,3.658,0,0,1-.39.06,1.208,1.208,0,0,0-.72.54,0.106,0.106,0,0,1-.12.12,4.752,4.752,0,0,0-1.38.84l-0.12.12a0.39,0.39,0,0,0-.36.21,0.825,0.825,0,0,0-.12.27,0.507,0.507,0,0,1-.27.21c-0.14.06-.25,0.111-0.33,0.15-0.12.04-.25,0.081-0.39,0.12s-0.27.081-.39,0.12l-1.26.36a5,5,0,0,1-.9.12,4.054,4.054,0,0,1-.45-0.03,1.883,1.883,0,0,0-.57.03,1.223,1.223,0,0,0-.42.09,1.15,1.15,0,0,1-.36.09,4.829,4.829,0,0,1-.45.18,1.829,1.829,0,0,1-.63.12h-0.51a0.376,0.376,0,0,1-.33-0.18,0.749,0.749,0,0,1,0-.9,0.874,0.874,0,0,0,.06-0.54,2.572,2.572,0,0,1,.18-1.38,0.44,0.44,0,0,0,.06-0.48,0.841,0.841,0,0,1-.03-0.39,2.468,2.468,0,0,0,.03-0.33,1.332,1.332,0,0,1,.06-0.42,1.328,1.328,0,0,0,.06-0.42,0.741,0.741,0,0,0-.12-0.42,0.83,0.83,0,0,1,.18-0.96,0.57,0.57,0,0,0,.51-0.12c0.14-.12.23-0.2,0.27-0.24a1.737,1.737,0,0,1,.36-0.3l0.6-.3,0.6-.42,0.12-.12a0.7,0.7,0,0,1,.39-0.48,2.1,2.1,0,0,0,.45-0.3l0.48-.42,1.02-.84,0.84-.66,1.14-.9q1.08-.84,1.62-1.2l0.9-.66a1.067,1.067,0,0,0,.3-0.3,1.079,1.079,0,0,1,.3-0.3,5.089,5.089,0,0,0-.84-0.12q-0.72-.059-2.28-0.06l-1.68-.06-0.66.06h-0.36l-0.66.06h-0.06a16.81,16.81,0,0,0-2.34.06,0.742,0.742,0,0,0-.42-0.12h-0.48l-0.06-.06h-3.06a2.968,2.968,0,0,0-.63.06q-0.27.06-.51,0.12l-1.56.12q-1.5.24-2.1,0.3-0.78.121-2.1,0.24l-1.86-.06h-0.24a1.054,1.054,0,0,1-.48-0.3,0.234,0.234,0,0,1,.06-0.42c0.2,0,.3-0.039.3-0.12a1.5,1.5,0,0,0-.06-0.54,3.084,3.084,0,0,1-.36-1.38,2.108,2.108,0,0,1,.06-0.6,1.308,1.308,0,0,0-.3-0.96,1.63,1.63,0,0,1-.15-0.18,0.4,0.4,0,0,1-.09-0.24v-0.12a0.293,0.293,0,0,0-.06-0.15,1,1,0,0,0-.12-0.15,0.384,0.384,0,0,1,.09-0.39l0.21-.21,0.6-.48,0.48-.18q0.3-.12.54-0.24a3.381,3.381,0,0,1,.42-0.18,0.9,0.9,0,0,1,.57-0.06,0.582,0.582,0,0,1,.45.3l0.42,0.18,1.38-.06a0.926,0.926,0,0,1,.54-0.06,4.728,4.728,0,0,0,1.35-.09q0.81-.149,1.29-0.21,0.6-.059,1.38-0.18t1.74-.18a10.2,10.2,0,0,1,1.14-.15q0.48-.03.78-0.03l1.44-.06a5.082,5.082,0,0,1,.9-0.12h0.84q0.48-.059,1.2-0.12t1.68-.06q1.26-.059,3.78-0.06h2.7a9.755,9.755,0,0,1,1.29-.03c0.38,0.021.69,0.03,0.93,0.03h0.78l0.24,0.06h0.18a1.864,1.864,0,0,1,.78-0.12h1.08l1.68,0.06q0.72,0,2.4-.12l1.08,0.06a1.818,1.818,0,0,0,.3-0.03,1.058,1.058,0,0,1,.42.03l1.14,0.06h2.34q2.16-.12,3.3-0.12a7.779,7.779,0,0,1,1.14-.06h0.48q2.22,0.24,3.18.42a3.418,3.418,0,0,1,.66.06q0.3,0.06.54,0.12l0.24,0.18,0.06,0.12a2.815,2.815,0,0,1,.72.48,0.329,0.329,0,0,1,.18.36l0.24,0.42-0.18.54a0.373,0.373,0,0,1-.3.3,6.08,6.08,0,0,1-.78.24l0.36,0.3-0.36.24,0.3,0.3a0.308,0.308,0,0,1,.18.54,1.158,1.158,0,0,1-.9.6,0.831,0.831,0,0,1-.36.06,0.754,0.754,0,0,0-.09.39,0.529,0.529,0,0,0,.27.21h0Zm-25.74,28.92,0.24-.06,0.3-.78a4.965,4.965,0,0,1,.6-0.24l0.24,0.24v-0.42a7.038,7.038,0,0,0,.57.78,2.629,2.629,0,0,1,.51.9q0.06,0.3.15,0.6t0.15,0.6a9.949,9.949,0,0,1,.12,1.32v2.28a3.32,3.32,0,0,0-.12.66l0.06,1.86q0,0.24.03,0.57a3.869,3.869,0,0,1-.03.81q0,0.24.03,0.81a3.038,3.038,0,0,1-.09.99q-0.12.48-.6,1.74a0.51,0.51,0,0,1-.27.21,1,1,0,0,1-.39.09H258.1a1.763,1.763,0,0,1-.42-0.48,0.694,0.694,0,0,0-.33-0.21,0.638,0.638,0,0,0-.39.09,0.785,0.785,0,0,0-.36.36l-0.18.36q-0.12-.3-0.33-0.72a1.758,1.758,0,0,1-.21-0.78,7.363,7.363,0,0,1,.12-0.96q0-1.08.06-1.68v-1.98l0.18-.9,0.12-1.32,0.24-1.8q0.12-.72.24-2.4a0.671,0.671,0,0,0-.06-0.3q-0.06-.118-0.12-0.24h0Zm-14.28,13.92a0.509,0.509,0,0,0-.24-0.33,0.582,0.582,0,0,0-.36.09,8.609,8.609,0,0,1-.9.6l-0.24.12-0.3-.42a0.577,0.577,0,0,1,.36-0.54q0.06,0,.06-0.12a0.2,0.2,0,0,0,.06-0.15,0.2,0.2,0,0,1,.06-0.15v-0.12l-0.36-.84a0.779,0.779,0,0,0,.24-0.66v-0.48a0.967,0.967,0,0,1,.12-0.42,3.986,3.986,0,0,1,.3-0.72,0.416,0.416,0,0,1,.36-0.36l0.24-.12,0.78-.48a3.822,3.822,0,0,1,.66-0.42l0.42-.3a1.3,1.3,0,0,0,.48-0.24l0.54-.48c0.2-.12.44-0.249,0.72-0.39a6.08,6.08,0,0,0,.84-0.51q0.18-.119.39-0.27t0.39-.27a3.441,3.441,0,0,0,1.08-.72,1.67,1.67,0,0,0,.21-0.12,2.376,2.376,0,0,1,.21-0.12,2.734,2.734,0,0,1,.54-0.3,4.166,4.166,0,0,0,.9-0.54,0.207,0.207,0,0,1,.15-0.06,0.2,0.2,0,0,0,.15-0.06l0.36-.18a0.668,0.668,0,0,1,.45-0.09,0.653,0.653,0,0,1,.39.15q0.12,0.062.24,0.12t0.24,0.12l0.24,1.44a1.867,1.867,0,0,1-.06.51c-0.04.141-.08,0.27-0.12,0.39l-0.06.3a3.694,3.694,0,0,1-1.02,1.38l-1.56,1.32-1.14.72q-0.24.18-.54,0.42a8.4,8.4,0,0,1-.78.54l-1.62,1.08-0.78.54a3.635,3.635,0,0,1-.78.42Zm21.48-7.38a0.851,0.851,0,0,1,.36.06,0.328,0.328,0,0,1,.15-0.24,0.265,0.265,0,0,0,.03-0.36l0.42-.18-0.18-.3q0.54,0.122,1.5.24a5.51,5.51,0,0,1,1.14.3l1.26,0.36,1.98,0.6,1.26,0.36,2.4,0.48a16.882,16.882,0,0,1,1.86.24q0.3,0.06,1.2.3l0.72,0.18a3.443,3.443,0,0,0,1.8.66,3.282,3.282,0,0,0,.72-0.12l0.42,0.06a0.106,0.106,0,0,1,.12.12l0.18,0.72a0.649,0.649,0,0,0,.24.3l0.24,0.18-0.06.06-0.36.06a1.524,1.524,0,0,0-.84.48,0.967,0.967,0,0,1-.42.12l-0.42.18,0.24,0.3,0.06,0.12a3.514,3.514,0,0,0-.48.42,0.864,0.864,0,0,1-.6.3h-0.12l-0.12.06a0.917,0.917,0,0,1-.66.3h-0.12a1.8,1.8,0,0,0-.72.03,3.359,3.359,0,0,1-.66.09h-0.12a11.245,11.245,0,0,1-1.32-.06q-0.66-.12-1.98-0.48-1.44-.48-2.16-0.78a15.867,15.867,0,0,1-3.12-1.5,1.408,1.408,0,0,1-.48-0.3,0.671,0.671,0,0,1-.24-0.36,0.967,0.967,0,0,0-.48-0.72q-0.12-.06-0.36-0.21a0.962,0.962,0,0,1-.36-0.39,0.455,0.455,0,0,0-.3-0.27q-0.24-.09-0.36-0.15l-0.6-.6Zm84.12-33.36-1.02-.12-2.4-.42-1.44-.18q-3.78-.18-4.32-0.18-1.86,0-2.64.06l-4.2.3a24.7,24.7,0,0,1-3.06.18,0.242,0.242,0,0,1-.24-0.3,5.346,5.346,0,0,0-.24-0.78,2.344,2.344,0,0,1-.18-0.78,3.12,3.12,0,0,1,.09-0.69q0.09-.39.15-0.57a12.641,12.641,0,0,0,.06-1.44,5.34,5.34,0,0,0-.24-0.87,2.692,2.692,0,0,1-.18-0.87,1.9,1.9,0,0,1,.12-0.54,0.589,0.589,0,0,0-.3-0.54l-0.9-1.56a5.087,5.087,0,0,1-.54-0.45,1.929,1.929,0,0,0-.9-0.45,5.055,5.055,0,0,0-.54-0.12l-0.24.06a0.249,0.249,0,0,0-.06.36h-0.54a3.2,3.2,0,0,1,.06.72,0.476,0.476,0,0,0-.6.06,1.552,1.552,0,0,0-.3,1.02,0.839,0.839,0,0,0-.06.36l0.18,1.02c0.04,0.12.08,0.25,0.12,0.39a1.638,1.638,0,0,1,.06.45,1.033,1.033,0,0,1,.06.42,1.558,1.558,0,0,0,.06.48,0.584,0.584,0,0,1-.12.42,1.328,1.328,0,0,1-.06.42l-0.06.24,0.24,2.34a2.618,2.618,0,0,0,.06.57,2.359,2.359,0,0,1,.06.51v0.18a0.259,0.259,0,0,1-.12.21,0.4,0.4,0,0,1-.24.09l-3.9.3-2.28.18-3.78.6-1.08.12a5.185,5.185,0,0,0-.87.18q-0.39.121-.63,0.18l-1.44.12a0.367,0.367,0,0,0-.27.09,0.246,0.246,0,0,1-.15.09l-0.12.06h-0.72a3.7,3.7,0,0,1-.72.06h-0.96a1.257,1.257,0,0,0-.78,0l0.12-.12a0.173,0.173,0,0,1,.21-0.09,1.2,1.2,0,0,0,.21.03,0.5,0.5,0,0,1,.03-0.39,0.561,0.561,0,0,1,.39-0.21,0.332,0.332,0,0,0,.18-0.12q0.12-.239.21-0.39t0.21-.39a0.423,0.423,0,0,1,.21-0.09,0.407,0.407,0,0,0,.21-0.09,0.175,0.175,0,0,1,.12-0.06,0.053,0.053,0,0,0,.06-0.06,2.025,2.025,0,0,0,.42-0.42,0.689,0.689,0,0,1,.54-0.3l0.12-.12V82.7a0.3,0.3,0,0,1,.18-0.33,0.348,0.348,0,0,1,.06-0.24,0.23,0.23,0,0,1,.21-0.03,1.345,1.345,0,0,0,.27.03,23.955,23.955,0,0,0,1.56-2.82,4.384,4.384,0,0,1-1.8-.96,0.645,0.645,0,0,1-.21-0.42,0.955,0.955,0,0,1,.33-0.36q0.12-.059.36-0.21a0.4,0.4,0,0,0,.24-0.27,1.331,1.331,0,0,1,.42-0.78,0.352,0.352,0,0,0,.18-0.3,0.162,0.162,0,0,0-.09-0.12,0.374,0.374,0,0,0-.21-0.06l-2.22-.36a0.587,0.587,0,0,0-.42.12q-1.08.54-1.26,0.6-2.04.6-2.4,0.72a11.1,11.1,0,0,1-1.11.39,7.7,7.7,0,0,0-1.17.45,8.442,8.442,0,0,1-.96.66,8.469,8.469,0,0,0-1.26.54l-1.5.66c0,0.04-.04.06-0.12,0.06a0.243,0.243,0,0,1-.18-0.06q-0.54-.3-0.9-0.54l-0.84.42a0.568,0.568,0,0,0-.18.24,1.247,1.247,0,0,1-.6.39,2.976,2.976,0,0,1-.48.15,6.924,6.924,0,0,1-.87.42q-0.45.18-.87,0.36a0.659,0.659,0,0,0-.24.42l0.06,0.24a3.867,3.867,0,0,0,.45.6,5.815,5.815,0,0,1,.51.66,1.309,1.309,0,0,1,.54,1.08,1.839,1.839,0,0,1-.24.72,0.684,0.684,0,0,0,.06.72q0.06,0.121.12,0.27a0.191,0.191,0,0,1,0,.21,0.441,0.441,0,0,0,0,.54,2.944,2.944,0,0,0,.6.42,1.1,1.1,0,0,1,.42.66,1.441,1.441,0,0,0,.84.84,1.536,1.536,0,0,0,.33.24,0.556,0.556,0,0,1,.27.3,2.048,2.048,0,0,0,.78.63,3.967,3.967,0,0,1,.78.51,0.4,0.4,0,0,0,.3.12,1.344,1.344,0,0,1,.57,0,0.816,0.816,0,0,0,.57-0.06h0.12a0.993,0.993,0,0,0,.84-0.15c0.28-.18.48-0.309,0.6-0.39l0.18-.18a0.408,0.408,0,0,1,.3-0.12h0.18c0,0.04.01,0.051,0.03,0.03l0.09-.09a9.817,9.817,0,0,1,1.44-1.38,0.391,0.391,0,0,1,.15-0.09,0.27,0.27,0,0,0,.15-0.15,6.877,6.877,0,0,1,1.32-1.2v0.06a2,2,0,0,0-.18.9v0.3a2.326,2.326,0,0,1,.24.66l0.12,0.84v0.36a0.346,0.346,0,0,0-.21.33,2.225,2.225,0,0,1-.09.45,2.01,2.01,0,0,0-.12.33,1.294,1.294,0,0,0-.06.33,0.8,0.8,0,0,0,.06.42,0.2,0.2,0,0,0,.09.18,0.289,0.289,0,0,0,.15.06l0.12,0.12,0.12,0.12a0.245,0.245,0,0,1,.06.18,0.581,0.581,0,0,0,.12.3q0,0.24.12,0.18a0.567,0.567,0,0,1,.51.18,1,1,0,0,1,.33.6,1.057,1.057,0,0,0,.3.48,0.669,0.669,0,0,0,.36.24,5.082,5.082,0,0,1,.9.12,3.8,3.8,0,0,0,1.08.24,0.8,0.8,0,0,0,.36-0.09,0.724,0.724,0,0,1,.24-0.09,1.47,1.47,0,0,0,.42-0.18v0.06h2.46a0.425,0.425,0,0,0,.42.3,0.911,0.911,0,0,0,.36-0.12,1,1,0,0,1,.48-0.06l0.9-.18,2.88-.72q0.36-.059.78-0.12t0.78-.12a10.2,10.2,0,0,1,1.11-.3q0.57-.12,1.17-0.3a2.111,2.111,0,0,1,.66-0.12l1.02,0.06a7.206,7.206,0,0,0-.12,1.02l0.06,2.64-0.06.9v0.24a11.351,11.351,0,0,1-.12,1.98,7.278,7.278,0,0,0-.3,1.92q0,0.481-.03,1.41a12.584,12.584,0,0,1-.15,1.65l-0.06,3.54-0.12,2.7a0.265,0.265,0,0,1-.3.3,12.5,12.5,0,0,0-1.32-.06,8.9,8.9,0,0,1-1.2-.06,1.077,1.077,0,0,1-.69-0.27c-0.22-.18-0.35-0.289-0.39-0.33a0.346,0.346,0,0,1-.06-0.24v-0.24q0.06-.479.12-1.05a12.418,12.418,0,0,0,.06-1.29q0.12-3.96.24-5.94a0.885,0.885,0,0,0-.06-0.33,0.877,0.877,0,0,1-.06-0.33,4.938,4.938,0,0,1,.06-0.75,4.931,4.931,0,0,0,.06-0.75,3.661,3.661,0,0,0-.18-1.02q-0.18-.6-0.3-0.96a1.428,1.428,0,0,0-1.26-1.32l-0.12-.12-0.54-.12v0.42l-0.54-.06,0.12,0.48-0.36-.18a0.25,0.25,0,0,0-.42.12,1.973,1.973,0,0,1-.12.6,18.09,18.09,0,0,0-1.02,4.32l-0.24,2.04a13.342,13.342,0,0,0-.27,1.74c-0.06.641-.11,1.08-0.15,1.32q0,0.782-.12,2.22-0.12,1.682-.12,2.28-0.12.662-.24,2.46l-0.24,2.28-0.06,1.38v0.3q0.12,1.62.24,2.4a1.491,1.491,0,0,0,.66,1.2,4.129,4.129,0,0,0,1.38.84l0.48,0.12h0.18a1.223,1.223,0,0,1,.6.03,1.119,1.119,0,0,1,.48.27,1.869,1.869,0,0,0,.66.48,2.229,2.229,0,0,0,.09-0.39,0.515,0.515,0,0,1,.09-0.27,1.2,1.2,0,0,0,.48-0.9v-0.3a0.972,0.972,0,0,1-.18-0.6q-0.06-.18-0.24-1.11a5.646,5.646,0,0,1-.06-1.83l0.06-2.16a0.248,0.248,0,0,1,.09-0.15,0.246,0.246,0,0,1,.15-0.09,1.481,1.481,0,0,0,.45-0.09,1.481,1.481,0,0,1,.45-0.09,0.576,0.576,0,0,1,.42.18,1.228,1.228,0,0,0,.48.06l0.42-.06q0.6,0.061,2.1.06c0.28,0,.38.141,0.3,0.42a0.349,0.349,0,0,0-.06.24v0.24a7.935,7.935,0,0,1,.03,1.17c-0.02.341-.03,0.63-0.03,0.87a6.931,6.931,0,0,1-.09,1.14,5.69,5.69,0,0,0,.06,2.31q0.15,0.75.21,1.29a1.092,1.092,0,0,0,.6.78,7.994,7.994,0,0,1,1.2.6,0.611,0.611,0,0,0,.45.18,0.406,0.406,0,0,0,.39-0.24l0.12-.06a2.479,2.479,0,0,1,1.29.48,6.763,6.763,0,0,0,.81.54,0.347,0.347,0,0,1,.06.24,0.37,0.37,0,0,0,.06.21,1.961,1.961,0,0,1,.12.21q0.18-.12.57-0.36a1.115,1.115,0,0,0,.51-0.66,0.548,0.548,0,0,1,.42-0.36,1.362,1.362,0,0,0,.51-0.15,0.835,0.835,0,0,0,.39-0.27,1.7,1.7,0,0,0,.42-1.02,10.411,10.411,0,0,0,.12-1.44v-0.54a9.773,9.773,0,0,0-.06-1.08,9.773,9.773,0,0,1-.06-1.08q-0.24-1.918-.3-2.52a1.565,1.565,0,0,1,.06-0.48,0.235,0.235,0,0,1,.24-0.18l0.6,0.12a3.359,3.359,0,0,0,1.62-.12,0.729,0.729,0,0,1-.24-0.21,1.085,1.085,0,0,0-.36-0.27,0.664,0.664,0,0,1-.36-0.54,0.484,0.484,0,0,1,.24-0.36,5.363,5.363,0,0,1,.72-0.54l0.24-.12a16.849,16.849,0,0,0,.6,2.88l0.6,2.76a0.278,0.278,0,0,1-.24.42,1.34,1.34,0,0,0,1.02.66l0.42,0.12,1.2,0.36a0.1,0.1,0,0,0,.12.03,0.1,0.1,0,0,0,.06-0.09,1.065,1.065,0,0,1,.48-0.12,0.733,0.733,0,0,1,.54.18,4.563,4.563,0,0,1,1.02.96h0.06l0.06-.12a1,1,0,0,1,.6-0.9,0.053,0.053,0,0,0,.06-0.06,0.173,0.173,0,0,1,.06-0.12,3.574,3.574,0,0,1-.06-0.78q-0.06-.36-0.18-0.96a5.33,5.33,0,0,1-.12-1.02q-0.06-.419-0.15-1.65a16.072,16.072,0,0,0-.33-2.31q-0.24-2.458-.42-3.54c0-.36-0.01-0.819-0.03-1.38s-0.07-1.219-.15-1.98a9.98,9.98,0,0,0-.24-2.28l-0.24-1.26a6.285,6.285,0,0,0-.24-1.26q-0.48-2.578-.72-4.98a8.973,8.973,0,0,0-.42-1.86,1.415,1.415,0,0,1-.3-0.66l-0.3-.42a2.073,2.073,0,0,0-.42-0.21,4.851,4.851,0,0,1-.48-0.21,1.122,1.122,0,0,0-1.2-.12q-0.12.06-.42,0.24a0.976,0.976,0,0,0-.42.48l0.06,0.48a9.812,9.812,0,0,0-.72,3.54q0,1.8.12,5.52a3.844,3.844,0,0,0,.06.69,3.86,3.86,0,0,1,.06.69v0.24c0,0.2-.01.48-0.03,0.84a4.913,4.913,0,0,0,.03.96l0.06,1.62a7.021,7.021,0,0,0,.06.93,7.043,7.043,0,0,1,.06.93q0,0.422-.36.36-0.84-.058-1.41-0.12t-0.93-.12c0-.24-0.04-0.759-0.12-1.56a12.269,12.269,0,0,0-.21-1.23q-0.15-.688-0.21-1.17-0.12-.54-0.27-1.08t-0.27-1.08a13.75,13.75,0,0,1-.12-1.68,3.826,3.826,0,0,1,.24-1.02,3.853,3.853,0,0,0,.24-1.14v-1.38l-0.06-2.04v-0.84q-0.06-.54-0.18-1.65a18.4,18.4,0,0,1-.12-1.95q0-.66.9-0.66l1.56-.06q1.44,0,2.04-.06,0.72,0,2.52-.12l1.11-.12q0.57-.059,1.23-0.12a4.482,4.482,0,0,1,.9-0.03,5.063,5.063,0,0,0,.96-0.03q1.38,0,1.92-.06a3.359,3.359,0,0,0,.66-0.09q0.42-.09.84-0.15a2.752,2.752,0,0,0,.78-0.36,3.953,3.953,0,0,1,1.08-.84,0.575,0.575,0,0,0,.18-0.42,1.67,1.67,0,0,1,.6-1.14,0.915,0.915,0,0,0,.12-0.36,2.624,2.624,0,0,1,.06-0.57,2.618,2.618,0,0,0,.06-0.57,0.839,0.839,0,0,0-.06-0.36l0.12-.3a5.78,5.78,0,0,1,.66-1.08,0.66,0.66,0,0,1,.48-0.3,0.764,0.764,0,0,0,.48-0.21,0.829,0.829,0,0,0,.12-0.51,0.484,0.484,0,0,0-.24-0.48h0Zm-40.68,30.36a5.922,5.922,0,0,0-.09-0.96c-0.06-.36-0.11-0.679-0.15-0.96l-0.06-.66v-0.18a3.519,3.519,0,0,0,.12-0.84l-0.06-.54a14.943,14.943,0,0,0-.54-2.58v-0.06a2.55,2.55,0,0,0,.12-0.9,3.849,3.849,0,0,0-.24-1.32c-0.04-.12-0.09-0.279-0.15-0.48a2.069,2.069,0,0,1-.09-0.6,16.93,16.93,0,0,1-.36-2.82l-0.06-.48a1.9,1.9,0,0,0,.12-0.54,2.236,2.236,0,0,0-.06-0.54,2.224,2.224,0,0,1-.06-0.54l-0.12-.54a1.134,1.134,0,0,0-.09-0.45,1.128,1.128,0,0,1-.09-0.45l-0.12-1.62a0.2,0.2,0,0,1-.06-0.15,0.2,0.2,0,0,0-.06-0.15,5.959,5.959,0,0,0-1.2-.84l-1.02-.6a0.622,0.622,0,0,0-.6-0.06l-0.06.36v0.18l-0.3-.06a0.915,0.915,0,0,0-.48-0.24,1.9,1.9,0,0,1-.12.54l0.06,0.12-0.12.84a2.437,2.437,0,0,1-.27.6,5.078,5.078,0,0,0-.33.66,8.092,8.092,0,0,0-.3,1.38,22.967,22.967,0,0,1-.54,2.7,7.553,7.553,0,0,0-.12,1.2q-0.06,1.44,0,2.76a13.206,13.206,0,0,0,.06,2.1v1.86q0.12,2.16.12,3.42,0,0.54.03,1.44t-0.03,2.1a10.294,10.294,0,0,0,.48,3.36,2.652,2.652,0,0,0,1.32,1.32,1.631,1.631,0,0,0,1.02.48,4.373,4.373,0,0,1,.72.06,4.04,4.04,0,0,0,.66.06,0.565,0.565,0,0,1,.66.3,2.352,2.352,0,0,1,.24.54q0.12,0.24.3,0.06a0.705,0.705,0,0,0,.36-0.6,0.367,0.367,0,0,1,.09-0.27,0.2,0.2,0,0,1,.27.03q0.06-.12.27-0.51a2.017,2.017,0,0,1,.51-0.63,3.339,3.339,0,0,0,.3-1.5,11.934,11.934,0,0,1,.06-1.38,0.255,0.255,0,0,0,0-.24,0.147,0.147,0,0,1,0-.18,6.034,6.034,0,0,0,.12-1.38,16,16,0,0,0-.06-1.62h0Z"/>
</svg>
