<svg xmlns="http://www.w3.org/2000/svg" width="1540" height="1450" viewBox="0 0 1540 1450">
  <defs>
    <style>
      .cls-1 {
        fill: #fff;
      }

      .cls-1, .cls-2, .cls-3 {
        fill-rule: evenodd;
      }

      .cls-2 {
        fill: #fefefe;
      }

      .cls-3 {
        fill: #fdfdfd;
      }
    </style>
  </defs>
  <path id="字体名称" class="cls-1" d="M380.977,157.859q14.648,13.688,21.484,16.6,15.609,0,2.93-23.438-9.774-6.821-31.25-8.789-12.7,0-2.93,7.813c1.953,1.312,5.2,3.906,9.766,7.812h0Zm62.5,32.227q-54.7,11.718-151.368,22.461-14.647,3.914,15.625,11.719a29.115,29.115,0,0,0,4.883-.977q22.454-7.8,68.36-14.648Q371.2,270.164,284.3,324.852q-7.829,6.843,9.765,1.953,54.681-21.469,96.68-90.821,3.891,3.915,15.625,7.813,11.719,4.9,13.672,8.789-0.984,37.125-22.461,60.547-4.9.984-17.578-4.883-12.7-4.875-4.883,4.883,5.859,6.843,8.789,19.531,1.945,8.789,3.906,8.789,13.665,2.93,24.415-14.648,14.648-23.437,20.507-53.711,0.962-10.735,8.789-15.625,2.931-1.945,2.93-2.93-4.9-9.75-21.484-17.578c-0.656-.641-2.289-0.977-4.883-0.977q-10.758,0-24.414-4.882a43.783,43.783,0,0,1,3.906-5.86c2.594-3.906,3.571-6.5,2.93-7.812q0-2.93-8.789-9.766a648.712,648.712,0,0,1,77.148-2.93h7.813q20.508,0,13.672-8.789-10.758-9.75-29.3-8.789-4.9,0-17.578,2.93h0Zm221.679-29.3q-36.139,10.758-61.523,13.672-14.649,1.968-11.719,4.883,5.859,3.913,22.461,4.883a93.043,93.043,0,0,0,24.414-2.93q5.859,22.476,1.953,114.258-13.687.984-40.039,4.883V270.164q-0.984-24.4.977-36.133v-3.906q-11.72-17.578-25.391-11.719c-0.656,1.313-.336,2.93.977,4.883q8.789,10.758,9.765,38.086,0,7.828.977,18.555a209.071,209.071,0,0,0,.976,22.461q-34.194,4.9-50.781,5.859-18.562,1.968,13.672,11.719a138.349,138.349,0,0,1,14.648-2.93Q663.2,295.57,739.375,306.3q15.609,1.968,11.719-7.813-5.859-9.75-21.485-12.695-2.93-1.945-76.171,7.813l1.953-50.782q41.015-3.891,50.781-8.789,7.8-3.891,3.906-7.812-4.9-3.891-17.578-3.907-1.968,0-12.7,2.93-14.649,4.9-25.391,7.813,0.961-25.383,2.93-39.063a30.173,30.173,0,0,0,.976-4.883q0-3.891-10.742-8.789,41.016-6.82,56.641-11.718,9.75-10.736-17.578-12.7-3.915,0-21.485,4.883h0Zm259.766-29.3c-1.312.656-1.312,2.289,0,4.883q7.8,8.789,4.883,42.969a58.1,58.1,0,0,0-.977,8.789v4.883q-1.968,27.351,9.766,35.156,27.328,14.649,60.547-5.86c3.909-1.953,4.549-4.547,1.949-7.812a58.915,58.915,0,0,1-4.879-17.578q-1.968-8.79-2.93-8.789-1.968,0-2.929,7.812-1.97,16.617-8.79,19.532-7.827,5.859-24.414,5.859-13.686,0-16.6-7.813-1.968-3.891-1.953-25.39,6.82-1.946,18.554-5.86,16.595-6.821,24.414-7.812,4.876-2.93-8.789-15.625-7.827-6.821-9.765.976-1.968,9.774-23.438,21.485,0-19.524,5.86-34.18a2.826,2.826,0,0,0,.976-1.953q2.93-6.82-13.672-14.648h-0.976c-3.266-.641-5.539-0.321-6.836.976h0ZM824.336,135.4c0,1.313.976,3.907,2.93,7.813q8.789,11.718,4.882,50.781v4.883q-27.351,4.9-44.921,7.813l-3.907.976q-4.9.984-2.929,3.906c1.953,1.953,4.882,3.266,8.789,3.907q9.75,0.984,40.039-3.907a309.983,309.983,0,0,1-49.805,73.242q-10.758,11.719-9.766,14.649,0.962,1.968,12.7-7.813,22.453-17.577,50.781-62.5-0.984,33.211-2.93,52.735a249.528,249.528,0,0,1-5.859,37.109q-1.968,6.844-.977,9.766,5.86,18.539,11.719,16.6,5.859-2.929,6.836-24.414,0-6.82-.976-49.8V243.8q10.734,11.718,14.648,15.625,6.821,5.859,9.766.976,2.929-7.8-3.907-13.671a46.235,46.235,0,0,0-19.531-9.766v-28.32q6.821-1.946,16.6-3.907,11.718-1.946,12.7-4.882,3.891-10.736-28.32-2.93,0-3.891.976-13.672,1.946-27.328,6.836-35.156,2.929-8.79-20.508-15.625-4.9,0-5.859,2.929h0Zm47.852,22.461c-0.657,1.313,0,2.93,1.953,4.883q5.859,11.72,6.836,34.18,0.96,28.335-8.789,36.133Q869.257,250.632,880,247.7q18.54-18.539,32.227-26.367c5.2-3.906,7.812-6.5,7.812-7.813q-2.929-1.946-10.742,1.954-15.633,8.789-19.531,8.789,0-.961.976-31.25,25.383,0,32.227-8.789,1.945-5.861-11.719-4.883c-0.656,0-1.953.656-3.906,1.953q-7.829,2.929-15.625,5.859a80.209,80.209,0,0,1,1.953-17.578q1.946-7.8-15.625-13.672c-2.609-.641-4.563,0-5.859,1.953h0Zm35.156,83.985v0.976q2.929,11.72-9.766,25.391l-3.906.977c-7.172-2.594-11.719-3.907-13.672-3.907q-2.929.984,0,5.86a161.109,161.109,0,0,1,5.859,55.664q1.945,12.679,8.789,14.648,3.891-.984,2.93-16.6l41.992-2.93q2.929,5.859,5.86,19.531,3.891,14.649,6.836,12.7,13.664-8.789,14.648-37.109v-16.6q-0.984-20.508,3.906-30.274,0-11.718-24.414-15.625a16.441,16.441,0,0,0-3.906.977,190.727,190.727,0,0,1-37.109,10.742Q921,249.664,927.852,244.773q3.891-2.929-14.649-7.812-8.788,0-5.859,4.883h0Zm36.133,26.367q5.859,0,8.789,14.648,3.891,35.157-3.907,38.086c-0.656,0-1.953-.976-3.906-2.929-3.265-3.907-5.539-5.524-6.836-4.883q-17.578,2.93-40.039,5.859V298.484q36.117,0.986,43.945-7.812,1.946-9.75-44.921.976l-0.977-18.554a41.706,41.706,0,0,0,7.813-.977q31.242-3.891,37.109-3.906h2.93ZM1142.7,139.305c-0.66,1.312-.34,2.609.97,3.906q5.865,9.772,4.88,54.687a295.247,295.247,0,0,1-44.92,7.813q-4.89,3.913,11.72,7.812,7.8-1.946,25.39-4.882-22.47,60.561-59.57,83.984-0.975-18.54,0-41.992,0.96-21.47,1.95-25.391,3.9-7.8-6.83-15.625,2.925-4.875,7.81-14.648,13.665-23.437,18.56-27.344,5.85-8.788-13.68-19.531c-2.6-1.3-4.24-1.3-4.88,0-1.31.656-1.63,2.609-.98,5.859q-6.84,45.914-57.61,103.516-2.94,3.913-1.96,5.859c0.65,0.656,2.28,0,4.89-1.953q20.5-12.68,43.94-46.875,1.95,1.968,1.96,30.273-0.99,31.266-2.93,42.969-0.99,3.913-2.93,10.742-3.915,8.79-2.93,13.672,0.96,17.579,7.81,26.367,5.865,4.876,6.84-13.671v-4.883q0.96-13.665.97-24.414l3.91,0.976q44.91-29.3,63.47-81.054,0,11.718-.97,36.132v31.25q-4.9,1.97-26.37,3.907c-3.91,1.312-5.22,2.609-3.91,3.906a51.308,51.308,0,0,0,12.7,2.93,48.164,48.164,0,0,0,16.6-.977q0,24.422-4.88,38.086a15.564,15.564,0,0,0-.98,3.906q3.9,14.649,11.72,18.555,5.865-.984,5.86-33.2v-29.3a72.182,72.182,0,0,1,13.67-2.93c3.25-1.3,5.21-1.953,5.86-1.953,6.5-.641,9.77-2.273,9.77-4.883q0-3.891-8.79-5.859c-2.61-.641-6.2.336-10.74,2.93q-6.855,1.968-10.75,2.929,0-51.75.98-70.312,37.1,73.242,49.8,80.078,11.73,4.9,40.04,1.953c4.55,0,6.84-.641,6.84-1.953,0-.641-2.61-1.953-7.81-3.906q-46.875-14.649-85.94-82.032a320.689,320.689,0,0,1,40.04-4.882,103.859,103.859,0,0,0,11.72-1.954q4.875-9.75-19.53-10.742c-1.32,0-3.27.656-5.86,1.953q-13.695,3.915-29.3,6.836,0.96-40.03,4.88-44.922,1.95-6.821-16.6-12.695c-1.95-.641-3.26-0.32-3.9.977h0Z"/>
  <path id="中文示例" class="cls-2" d="M286.016,707.141a39.249,39.249,0,0,1-12.5,3.906,20.035,20.035,0,0,1-2.735-1.172,6.671,6.671,0,0,0-1.562-.391q-3.132-.384-1.563,3.516,2.344,3.909,1.953,14.844V729.8a56.313,56.313,0,0,1-1.562,14.844,16.264,16.264,0,0,0-.391,2.734q1.95,7.425,3.125,7.031,1.557,0,2.735-7.422a67.657,67.657,0,0,1,12.5-1.172,18.815,18.815,0,0,1,1.172,5.86q0.777,4.3,1.953,3.906,2.727-2.343,4.3-8.594,0.777-3.122.39-21.093v-3.907q0-6.638,3.125-8.593,1.557-1.173-1.562-3.516-4.687-3.121-7.813-3.516a4.048,4.048,0,0,0-1.562.782h0Zm2.343,8.593q0.386,30.47-.781,28.907a4.769,4.769,0,0,0-1.172-.782,3.375,3.375,0,0,0-2.344-1.171q-1.565-.385-5.859.781-2.737.393-4.687,0.781v-2.344q0.384-7.03.39-11.718a21.489,21.489,0,0,0,11.719-1.563q2.729-2.728-4.3-2.734a11.9,11.9,0,0,1-2.734.781q-3.516,1.566-4.688,1.172-1.171-13.67,0-14.063,8.587-2.343,10.938-1.953,3.9,0.395,3.515,3.906h0Zm37.11-16.015q-8.2,3.514-12.11,3.125a24.324,24.324,0,0,0-6.25-1.172c-1.562-.256-2.478,0-2.734.781,0,0.525.647,1.434,1.953,2.735q2.345,4.3,2.344,18.359a102.429,102.429,0,0,1-3.125,22.265q-5.475,19.538-18.359,29.688-3.516,2.728-3.126,3.516t4.3-.782q18.357-9.759,23.829-37.109a19.2,19.2,0,0,0,16.015-.781q1.95-3.123-5.078-3.125a8.961,8.961,0,0,0-2.734.781,22.866,22.866,0,0,1-7.813.781,79.351,79.351,0,0,0,.781-14.453q10.154,0.787,14.453-2.344,1.173-3.515-5.078-2.343-2.738.393-8.984,1.953,0-8.588-.391-15.235,3.516-.777,8.594-1.953,6.245-1.555,7.813,0,1.555,1.959,1.953,23.828,0.779,23.053,0,37.891,0,3.516-3.125,2.734a65.263,65.263,0,0,0-6.25-1.953q-1.959-.779-2.344,0c-0.262.525,0.256,1.172,1.562,1.953a24.99,24.99,0,0,1,7.813,10.547q1.557,3.123,3.516,2.735Q339.134,779.4,338.75,763q-1.959-28.125-1.562-45.312v-2.735q0-8.588,2.343-10.156,1.557-1.557-1.562-3.906a17.392,17.392,0,0,0-8.594-2.735q-0.787.395-3.906,1.563h0Zm70.312,5.078q-12.113-3.9-8.593.781t3.124,21.875v2.735q-0.786,31.639-18.359,47.265-4.3,3.9-3.515,4.688T374.3,779.8q16.012-9.759,20.7-34.766,16.407-.779,20.7-4.687-0.393-2.729-7.031-1.953-2.345.788-7.031,2.343-5.475,1.961-6.25,1.563,0.384-6.245,1.171-14.453,12.891-.386,18.36-3.516,0.778-3.121-5.86-2.734a17.619,17.619,0,0,0-3.515.781,41.43,41.43,0,0,1-8.985,2.344q0.385-10.932,0-17.188,5.073-1.171,13.282-2.343a34.247,34.247,0,0,1,3.515-.391q5.466-1.95,5.86,4.3,1.555,10.546,2.343,35.156,0.385,21.488-1.171,23.047-1.173,1.566-4.688.391h-0.781c-3.388-.782-5.078-1.038-5.078-0.782q-0.394.395,2.734,3.516a29.969,29.969,0,0,1,5.469,7.031q3.516,5.859,5.078,4.3,8.2-7.032,5.078-29.688a31.314,31.314,0,0,1-.391-3.906q-1.565-24.216-1.171-32.031,0-7.416,3.125-11.328-1.961-6.638-12.891-6.25-5.859,3.516-21.094,6.25h0Zm104.3-8.594q-0.393,1.172,1.172,3.125,3.516,3.516,1.953,33.984-12.891,1.961-19.141,2.735,0.385-2.344,1.172-7.813a24.54,24.54,0,0,0,.391-3.125q0-5.072-5.469-6.64c-1.825-.257-2.734-0.128-2.734.39-0.263.525,0.256,1.563,1.562,3.125q3.516,8.6-3.906,15.235-1.171.787,0.391,3.906,2.343,4.3,3.515,3.906,2.728-2.343,9.766-4.687A111.2,111.2,0,0,1,500.859,738a20.446,20.446,0,0,1,2.344-.391q-0.393,17.578-.391,26.172a16.832,16.832,0,0,0-4.3.781q-10.548,1.173-14.844,1.563a22.9,22.9,0,0,1,.781-3.125,29.147,29.147,0,0,0,1.563-7.031q0.384-3.123-4.3-5.86-2.738-.777-3.125.391-0.787.787,1.172,3.516,2.727,7.818-5.078,14.453-1.566,1.564.39,6.25,1.95,3.121,3.906,1.953,5.861-4.687,16.8-6.641,2.728-.779,4.3-1.172,16.407-3.122,28.906-4.687-0.393,7.425,1.954,7.812,3.514,0.394,4.3-7.422,0.779-5.465,1.172-7.031a6.55,6.55,0,0,0,.391-1.562q1.171-3.123-4.688-7.031l-0.39-.391q-2.738-1.557-3.516-.781-0.787.393,0,3.515a55.183,55.183,0,0,1,.781,9.766q-9.375,1.171-21.093,1.953,0-4.295.39-13.281,0.386-7.811.391-13.672A68.2,68.2,0,0,1,520,734.875a55.872,55.872,0,0,0,7.422-.781,9.315,9.315,0,0,0-.391,5.859q1.557,3.132,3.125,1.953,1.557-.779,3.125-6.25a25.637,25.637,0,0,0,.781-3.515q1.952-7.416,3.907-10.547,1.171-3.123-7.031-6.641-3.132-.779-3.516,0c-0.525.525-.263,1.953,0.781,4.3q1.172,2.738,0,10.938a57.521,57.521,0,0,1-9.765,1.171q-6.648.788-9.766,1.172,1.171-32.812,3.516-31.64,1.556-3.123-9.376-5.86a2.245,2.245,0,0,0-2.734,1.172h0Zm108.2,8.2a166.289,166.289,0,0,1-26.172,5.86q-4.3.788,1.172,2.734a38.129,38.129,0,0,0,10.938,0q0.779,1.566.781,18.75a150.179,150.179,0,0,1-23.438,3.125q-1.565.393,1.172,2.344,3.9,2.343,5.86,2.343A74.716,74.716,0,0,0,586.016,738q5.072-1.171,8.2-1.953-1.959,25-28.125,35.156-3.132,1.172-2.735,1.953c0.257,0.525,1.563.525,3.907,0q26.164-5.466,32.031-30.468,5.072,6.252,12.109,15.624,10.548,14.064,12.11,14.844,3.9,3.9,22.656,1.172,5.466-.779,5.469-1.953c0-.519-1.7-1.172-5.079-1.953a6.337,6.337,0,0,1-1.953-.391q-24.225-2.728-44.531-31.25a24.311,24.311,0,0,1,.391-3.906q4.688-.779,14.843-1.953,14.841-1.95,16.016-3.516-0.393-3.9-10.156-3.515a68.977,68.977,0,0,0-8.2,1.953,106.29,106.29,0,0,1-12.11,2.734q-0.393.395,0.391-16.406v-1.953q22.65-4.687,23.047-6.25,0.384-4.295-10.547-3.125a23.142,23.142,0,0,0-5.469,1.562h0Zm88.281,0.782q4.294,7.818,3.907,23.437l-0.391,29.687-19.922,3.516q-0.393-7.416-.39-14.453,0.384-3.9-.391-5.469-7.425-5.859-10.156-3.906-0.395.393,1.172,2.734a40.3,40.3,0,0,1,3.515,6.25q1.95,7.425,1.172,11.719a7.587,7.587,0,0,1-2.734,5.078,6.027,6.027,0,0,0-1.172,1.563q0.779,5.859,3.516,7.031a17.432,17.432,0,0,0,2.343-1.563,15.554,15.554,0,0,1,6.641-3.906q13.668-4.293,48.437-8.984A16.513,16.513,0,0,1,730.547,763a5.945,5.945,0,0,0-.781,2.344q-0.788,8.6,2.343,10.547,5.86,0.384,7.813-31.25a33.938,33.938,0,0,1,1.562-7.422,6.866,6.866,0,0,0,.782-1.953q-5.082-7.416-11.328-6.641-0.788.787,0,2.734a24.916,24.916,0,0,1,2.343,10.547,120.935,120.935,0,0,1-.781,12.11V754.8l-26.172,2.734,0.391-30.078a68.431,68.431,0,0,1,2.343-16.406,32.372,32.372,0,0,0,.391-3.906q-8.6-6.637-13.281-4.3a2.75,2.75,0,0,0,.39,2.344h0ZM840.7,695.422q1.95,5.08-.391,11.328l-19.14,1.953a37.393,37.393,0,0,1,1.172-6.25V700.5q-5.859-5.072-10.156-3.516c-0.263.525,0,1.307,0.781,2.344a24.9,24.9,0,0,1,3.515,10.156q-3.13.394-8.2,0.782-8.989.788-11.719,0.781-5.473.393,3.907,4.687a22.9,22.9,0,0,0,3.125-.781q7.03-1.555,13.281-2.344a6.249,6.249,0,0,0,.391,1.563q0.777,6.646,1.953,6.64,1.95-.384,2.343-8.593l17.969-2.344a26.975,26.975,0,0,1-1.172,4.687q-1.959,7.425-1.171,7.422,2.727-.777,7.421-12.109a95.6,95.6,0,0,1,15.235.391,31.926,31.926,0,0,0,4.3.39q5.465-.384,3.906-3.125-2.344-3.121-8.594-3.906a24.934,24.934,0,0,0-3.906.391,66.823,66.823,0,0,1-8.985,1.953,17.6,17.6,0,0,0,1.563-3.125q1.95-3.516,1.953-5.078-2.343-3.9-9.375-4.688-0.787.395,0,2.344h0ZM825.078,719.25q0.384,4.3-9.766,16.8a101.04,101.04,0,0,1-26.953,21.484q-2.738,1.566-2.734,2.344c0.519,0.525,1.819.391,3.906-.391q23.823-9.759,39.453-33.2,1.557,1.172,7.032,5.86,22.265,19.143,24.609,19.531h0.781q5.466,0,17.578-2.344,3.123-.779,2.735-1.953-0.395-.779-4.3-1.563-24.609-3.514-46.875-21.874a4.546,4.546,0,0,1,1.172-.782,2.536,2.536,0,0,0,1.172-1.172q-2.345-3.9-7.813-3.906a0.953,0.953,0,0,0,0,1.172h0Zm10.547,22.656q-4.687,2.345-13.672,3.906a8.784,8.784,0,0,1-2.734-.781q-3.132-1.555-3.516-.781-0.393.393,0,2.344a115.156,115.156,0,0,1,.781,20.312q-2.738,16.013,18.36,15.625,22.65,0.779,25.39-6.25a6.582,6.582,0,0,0-.39-1.562,30.112,30.112,0,0,1-1.953-10.938c0-1.819-.263-2.862-0.782-3.125-0.262,0-.653.916-1.171,2.735q-2.737,9.768-5.86,10.937-20.316,5.072-27.734-1.953-3.516-7.031,0-24.219a62.57,62.57,0,0,0,8.2-1.562q5.466-.779,6.641-0.391,0.777,1.172-.391,6.641-1.172,4.688-2.344,5.468a33.522,33.522,0,0,1-4.687-.39h-0.782q-1.172,0,0,1.172a29.233,29.233,0,0,1,3.907,5.078q1.556,2.343,1.953,2.344,5.859-1.95,7.031-11.719a26.218,26.218,0,0,1,2.344-5.859,9.413,9.413,0,0,0,1.172-3.126,13.309,13.309,0,0,0-7.813-4.687,3.8,3.8,0,0,0-1.953.781h0Zm107.031-46.094c-0.262.525,0,1.172,0.782,1.954q1.556,1.172.39,9.765V708.7q-12.891,1.566-19.922,2.344-0.393-4.295-.39-8.2-1.173-2.729-8.594-2.735c-1.044,0-1.563.263-1.563,0.782-0.262.525,0,1.171,0.782,1.953q2.727,2.343,4.3,8.984-15.628,1.959-20.7,1.953-3.515.395,4.3,4.3,1.557,0,12.11-1.953a49.043,49.043,0,0,1,5.078-.781,41.211,41.211,0,0,0,1.172,5.468,10.993,10.993,0,0,1,.39,2.344c0.519,2.088,1.3,3.125,2.344,3.125,1.038-.519,1.563-1.953,1.563-4.3a43.811,43.811,0,0,0-.391-5.078l-0.391-2.344q11.325-1.556,19.141-1.953-0.787,3.91-1.953,8.2c-0.782,2.344-.782,3.65,0,3.907q0.779,0.393,2.734-3.125a38.583,38.583,0,0,0,4.3-9.375,156.727,156.727,0,0,1,19.141-.391c2.343,0.263,3.772.263,4.3,0q2.345-3.516-5.859-6.25-1.566-.384-7.422,1.172-5.08.787-8.984,1.562,2.343-6.243,3.906-7.812,0.779-2.728-8.2-5.078a2.345,2.345,0,0,0-2.344.39h0Zm-29.3,39.454q3.123,2.343,3.907-.782a7.415,7.415,0,0,0-2.735-5.859,18.827,18.827,0,0,0-7.812-2.734q-2.345,2.738,6.64,9.375h0Zm33.2,1.953q2.728,1.959,4.3,0a5.333,5.333,0,0,0-.39-5.86q-3.132-3.515-10.547-3.125-5.859-.384,6.64,8.985h0Zm7.422,2.343a205.909,205.909,0,0,1-31.64,5.079q-2.345,2.738,8.2,3.125,2.728,20.709-2.344,24.218,0,5.073,4.3,5.86,4.295-5.475,28.906-4.688,6.638,0,7.032-.39,1.172-6.245-8.2-6.641a23.555,23.555,0,0,0-3.906.781q-14.455,2.345-19.922,2.735,0-14.841,1.172-16.8,0-2.729-3.516-5.469a264.534,264.534,0,0,1,33.594-3.516,17.837,17.837,0,0,0,4.688-.39q0.384-5.073-9.766-5.469-3.13.393-8.594,1.562h0Zm-50.781,8.2a4.77,4.77,0,0,1,1.172.781q3.516,3.13,4.687.391a6.412,6.412,0,0,0-1.953-7.032,15.029,15.029,0,0,0-8.2-1.562q-3.909,0,4.3,7.422h0Zm-1.562,19.14q-3.132.395-1.172,4.3,5.466,10.547,7.031,7.422c0.256-.781.647-2.087,1.172-3.906a226.873,226.873,0,0,1,8.2-23.438q3.121-8.2,2.344-8.2-0.395-.384-4.688,6.641-10.162,16.405-12.89,17.187h0Zm117.969-50.781a91.287,91.287,0,0,0,26.56-4.3q7.035-3.121,5.47-5.469-1.965-2.727-9.76-1.171l-0.79.39a110.976,110.976,0,0,1-27.34,7.031q-3.915,1.961,5.86,3.516h0Zm32.81,10.937q-32.805,6.253-59.373,8.985-3.132.787,0.391,3.125,4.293,2.343,7.422,1.562a11.5,11.5,0,0,0,1.95-.39q14.07-3.516,23.83-5.078,0.39,5.081-8.2,16.406-7.815,11.334-14.46,12.5-1.95.787,0,5.078c1.82,3.125,3.26,4.169,4.3,3.125q5.865-4.687,41.41-13.281a48.291,48.291,0,0,1,3.12,5.078,38.565,38.565,0,0,0,3.52,5.469q3.9,4.688,5.47,1.171c1.03-3.381.52-7.159-1.57-11.328a28.649,28.649,0,0,0-16.01-12.109q-5.475-2.344,0,3.906,2.34,3.516,3.9,5.469-3.51.787-10.15,1.953-24.615,5.082-25,4.3c0.26-.256,1.17-1.172,2.73-2.734q16.41-16.791,19.14-18.75,1.95-1.95-7.03-6.641a178.144,178.144,0,0,1,38.28-1.953c4.69,0.262,7.55-.128,8.6-1.172q0.78-5.859-11.33-6.25-1.17,0-10.94,1.562h0Zm81.64-29.687a14.735,14.735,0,0,1-2.34,10.156q-7.035,12.113-13.28,17.578,5.07,0.394,15.23-10.937,4.29,2.343,24.22-3.125a11.678,11.678,0,0,0,2.34-.781q3.525-.779,3.13-2.344c-1.04-1.3-2.87-2.081-5.47-2.344-1.04,0-3.39.781-7.03,2.344q-11.34,3.909-16.02,3.906,2.355-3.516,5.08-7.031c1.56-1.819,2.35-3.253,2.35-4.3a8.917,8.917,0,0,0-8.21-4.688,1.579,1.579,0,0,0,0,1.563h0Zm-23.44,19.531q3.135,1.566,4.3-2.734,0.39-3.516-3.12-6.641-8.6-3.514-9.77-1.172a34.806,34.806,0,0,0,8.59,10.547h0Zm41.02,4.3-0.78.391q-6.255,2.737-17.97,4.3-3.915-1.557-5.86-.782a1.663,1.663,0,0,0,0,1.563,11.717,11.717,0,0,1,.39,5.469,58.845,58.845,0,0,1-1.56,9.765,3.045,3.045,0,0,0-.39,1.172q-10.545,1.959-14.06,1.953c-1.31.263-1.7,0.653-1.18,1.172a4.984,4.984,0,0,0,3.13,1.953,21.331,21.331,0,0,0,4.3-.781q4.29-.779,6.64-1.172a3.159,3.159,0,0,1-.39,1.172,75.688,75.688,0,0,1-3.91,8.594q-1.965,3.909-4.69,5.078a2.569,2.569,0,0,0-1.17,1.172q-0.78,4.688,1.17,5.469a3.81,3.81,0,0,0,1.96-.782c1.81-1.562,4.55-2.734,8.2-3.515a82.9,82.9,0,0,1,25.39,0q-1.56,11.334-4.69,11.718-1.17.385-5.47-.781-5.475-1.555-3.51.391a24.215,24.215,0,0,1,5.86,8.593c0.52,1.3,1.03,1.954,1.56,1.954q5.07,0,8.2-7.422a34.455,34.455,0,0,0,2.35-8.594c0.25-1.819.52-3.381,0.78-4.688a34.34,34.34,0,0,1,8.2,1.954,25.933,25.933,0,0,1,3.52.781q3.51,0.787,3.51-1.172-0.78-1.95-4.29-4.3-1.185-1.171-5.86-1.562a20.7,20.7,0,0,1-4.69-.391q0.78-5.466,1.56-17.187a81.452,81.452,0,0,1,17.58,1.171h0.78c2.86,0,3.91-1.037,3.13-3.125-1.31-2.081-3.52-3.381-6.65-3.906a21.928,21.928,0,0,0-8.59,1.172c-2.34.525-4.3,0.916-5.86,1.172q0.78-7.809,2.34-10.938a2.254,2.254,0,0,0,.79-1.562q-4.305-5.072-9.77-5.469h0Zm-59.37,4.3a35.882,35.882,0,0,0,8.59,9.375q2.73,1.171,3.52-1.172a5.439,5.439,0,0,0-1.57-5.469q-7.815-5.465-10.54-2.734h0Zm60.93,14.062-24.22,3.516,3.52-14.062q15.24-4.294,19.14-3.125,2.73,0.788,1.56,13.671h0Zm-12.5-.781c2.6,0,3.52-1.819,2.74-5.469q-5.085-4.293-6.25-1.953,1.56,7.032,3.51,7.422h0Zm-48.04,24.61a0.342,0.342,0,0,0-.39.39q2.34,8.991,5.85,11.328,1.56,0,2.35-5.078a129.285,129.285,0,0,1,3.91-14.453q8.19-23.822,3.9-16.406-10.545,21.88-15.62,24.219h0Zm58.59-3.907a274.313,274.313,0,0,0-28.52.782l5.47-14.454q19.14-1.95,25-2.734Zm-12.5-2.734c2.34,0.781,3.52-.647,3.52-4.3q-5.085-6.243-6.25-3.125a12.658,12.658,0,0,0,2.73,7.422h0Zm75-46.094q2.73,2.738,4.3-.781a7.478,7.478,0,0,0-1.96-7.031,16.18,16.18,0,0,0-9.76-3.125q-4.695-1.172,7.42,10.937h0Zm12.89-3.906q-3.135,2.738,4.3,4.3,2.34,0,10.94-1.953c3.9-1.038,6.64-1.691,8.2-1.953q7.8-1.95,8.2,10.547,2.73,46.875-.39,50.781-1.965,1.171-7.42-.391-3.915-1.171-3.91,0,0.39,1.566,4.3,4.688a41.959,41.959,0,0,1,5.47,5.859q3.51,4.295,4.29,3.516,7.815-4.687,5.47-29.688-1.95-30.075-1.56-33.594,0-7.03,3.13-10.156-1.17-5.466-12.89-7.031-11.73,4.3-28.13,5.078h0Zm-28.12,4.688q-0.4.393,0.39,2.343,2.73,4.688,1.95,28.125-0.39,12.891-3.13,21.094a9.037,9.037,0,0,0-.78,3.125q1.56,9.375,3.52,9.375,2.34-.787,3.51-9.375,1.185-13.275,1.57-32.813,0.375-12.889,1.17-15.624,0.78-2.345-5.08-5.469l-0.78-.391c-1.31-.519-2.09-0.647-2.34-0.39h0Zm24.21,14.062q-8.19-3.516-6.25.781,2.355,3.132,2.35,13.281,0,12.891.39,15.235,0.39,3.516,2.34,4.3c1.04,0,1.69-1.3,1.96-3.906q9.375-1.173,12.89-.391a8.643,8.643,0,0,1,1.56,2.734q1.56,3.516,2.73,3.125,4.3-2.343,3.13-20.312-0.39-12.5,1.95-14.063a1.115,1.115,0,0,0,.39-0.781q-1.56-3.9-9.37-5.078-5.475,4.3-14.07,5.078h0Zm16.02,10.547q0.39,12.112-.78,15.234a1.922,1.922,0,0,1-1.95-.39,6.629,6.629,0,0,0-1.96-.391,45.688,45.688,0,0,0-7.03,1.172,25.717,25.717,0,0,0-3.51.781V740.734q8.58,1.566,12.89-2.343c0-1.563-1.31-2.344-3.91-2.344-1.82,0-4.69.653-8.59,1.953l-0.39-9.766q9.75-1.95,12.89-1.562c1.03,0.525,1.82,3.65,2.34,9.375h0ZM284.844,872.375q-1.173.787,0.39,2.344,5.466,4.688,5.078,33.593-11.334,1.961-25.781,3.516,0.386,3.132,8.985,4.3a144.768,144.768,0,0,1,16.8-3.906q0.385,1.171,0,8.984-0.393,3.909-.39,6.25-0.395,15.629-6.25,21.485-1.172,1.95.781,7.031,1.557,3.514,3.125,1.953c0.256-.263.519-0.525,0.781-0.781a192.279,192.279,0,0,1,17.969-16.407c2.081-1.818,2.863-3.125,2.344-3.906q-1.172-.779-4.688,1.563a7.928,7.928,0,0,0-2.343,1.562q-6.648,3.516-7.422,3.906V928.234q0.779-16.405.39-16.8l2.344-.782q0.779,0.788,5.469,6.25,22.65,25.4,25.39,26.172,2.728,1.172,15.626.391,4.293-.386,3.906-1.172-0.394-1.172-5.078-2.735-23.054-7.809-42.188-29.3,19.529-3.516,35.156-2.344c3.125,0,4.944-.256,5.469-0.781q-0.393-5.86-10.547-5.86-1.959.395-7.812,1.563-14.457,2.737-27.344,4.687,0-21.871,1.562-29.3,0.385-3.122-8.2-6.25a4.93,4.93,0,0,0-3.515.391h0Zm30.078,1.953c-0.525.263-.653,1.044-0.391,2.344q0.386,7.031-13.281,21.094-3.909,4.3-3.516,5.078t4.688-1.953q4.688-3.123,17.187-14.844a48.058,48.058,0,0,1,5.469-5.078q2.345-1.557-7.422-6.641-1.959-.779-2.734,0h0Zm67.187,9.766a13.329,13.329,0,0,0-3.125-.782,12.334,12.334,0,0,0-1.953-.39q-3.13-.384-3.515.39c-0.263.525,0.39,1.563,1.953,3.126q2.728,2.736,1.953,21.484,0,26.953-14.844,39.844-2.737,2.343-2.734,2.734c0.256,0.256,1.428,0,3.515-.781q18.357-7.811,19.922-40.625,0.386-9.761,0-18.75v-2.735q25.387-5.465,37.11-6.25,0.777,0.394-.391,7.032a126.275,126.275,0,0,0-1.172,25.39,55.872,55.872,0,0,0,8.984,27.344q10.932,13.275,21.094,12.109,3.123-.393,1.172-6.25a53.085,53.085,0,0,1-1.562-12.109q-0.395-5.072-1.172-5.469-0.787.395-1.563,5.469-1.171,9.768-3.906,9.375-9.768-3.121-15.625-16.8-5.081-12.891-1.953-32.422,2.728-10.546,7.031-13.281-4.3-7.809-11.719-6.25-8.2,5.08-37.5,8.594h0Zm22.266,6.64q-1.172.788,0,2.344,1.95,5.475-3.125,19.531Q396.17,906.366,390.7,900.5c-1.825-1.562-3-2.209-3.515-1.953s0,1.434,1.562,3.515q3.516,4.3,8.984,12.11a15.971,15.971,0,0,0,1.563,2.344q-4.3,8.99-16.406,21.093-3.911,3.91-3.516,4.688,1.172,0.393,5.859-2.735a76.359,76.359,0,0,0,16.8-18.75,77.285,77.285,0,0,1,8.985,14.844q3.121,4.688,5.078,1.172,1.171-3.9-1.953-9.375a47.212,47.212,0,0,0-8.985-12.109q1.173-2.729,3.906-10.156,2.728-8.589,3.907-9.766,1.555-2.729-5.469-4.688-2.343-.777-3.125,0h0Zm87.5-6.25q-6.646-2.343-8.2-1.953-1.959.395,1.172,3.516,2.728,4.688,1.953,16.8-0.788,27.346-20.313,42.578-4.3,3.516-3.515,4.3,0.384,0.384,5.469-1.953,21.872-12.891,23.828-42.969,0.384-7.809.39-16.8,3.516-.779,9.766-1.953a23.78,23.78,0,0,1,5.078-1.172c1.562-.519,2.472-0.647,2.734-0.391s0.257,1.435,0,3.516q-0.393,2.738-1.172,9.375-1.959,14.85-2.343,21.875-1.171,23.053,12.89,27.344a53.962,53.962,0,0,0,18.36,0q9.759-1.173,11.328-4.3,1.95-1.95.391-5.469a74.531,74.531,0,0,1-1.954-8.2c-0.525-3.125-1.043-4.553-1.562-4.3-0.781,0-1.306,1.7-1.563,5.078a16.587,16.587,0,0,1-5.078,9.375q-5.475,3.516-17.969,1.563-14.849-3.123-8.2-37.891,2.345-13.668,8.985-18.359-4.3-6.638-11.719-5.469-7.425,4.688-18.75,5.859h0ZM632.5,880.969q-39.066,6.252-64.062,7.422-3.132,0-1.172,1.953,3.515,3.13,6.64,3.515a1.13,1.13,0,0,0,.782-0.39q13.668-2.345,28.124-4.688-0.393,27.346-30.859,52.735-5.859,3.909-5.469,5.078,1.173,0.787,7.813-3.125,19.921-12.1,30.469-35.157a29.252,29.252,0,0,0,3.515,1.563q1.172,0.787,7.422,0,5.859,0,6.641.391-1.959,24.609-11.328,29.687a24.708,24.708,0,0,1-7.032-1.172q-3.909-1.95-4.3-1.172-0.394.394,1.953,3.516a15.627,15.627,0,0,1,3.906,7.422c0.519,1.819,1.3,2.734,2.344,2.734q10.152-2.343,15.234-17.187,5.466-20.307,10.156-21.094,0-5.072-11.328-8.594a31.949,31.949,0,0,1-16.015,2.344,100.988,100.988,0,0,1,5.859-12.5q1.171-1.95-3.516-5.859a173.99,173.99,0,0,1,32.813-.782q6.243,0.394,7.812-.39,0-6.245-12.5-7.031-0.393,0-3.906.781h0Zm53.516,2.734q-12.507-3.121-7.813,1.563,4.688,5.475,6.641,20.7a25.332,25.332,0,0,0,.781,4.3q1.171,7.03,2.344,8.2t3.125-2.735l10.937-1.562v12.5q-11.334,2.343-16.406,3.125-2.738,2.343,4.3,2.344a95.2,95.2,0,0,0,11.719-1.172v10.937q-28.125,3.909-37.891,3.125-2.343,0,1.562,2.735,3.9,3.122,5.86,2.734,11.325-3.516,36.719-5.469a221.035,221.035,0,0,1,32.421.781q5.861,0.788,7.032-.39,1.171-5.466-10.547-6.641-4.3,0-30.469,2.344l0.391-10.937q1.95-.385,5.859-1.172,9.759-1.557,10.938-2.735-0.788-3.9-7.813-3.125-3.909,1.173-8.984,2.344l0.39-12.109q7.81-.779,8.2-0.782c0.257,0.263.519,0.525,0.782,0.782q5.072,4.688,8.2-2.735,0.779-1.95,2.344-6.25,5.859-15.618,9.375-18.359,1.95-1.95-3.125-5.078-6.648-3.9-9.766-3.125-14.455,3.909-37.109,5.859h0Zm37.109,9.375q-2.344,12.891-4.687,17.188a5.889,5.889,0,0,1-2.344-.782,6.654,6.654,0,0,0-1.563-.39,34.469,34.469,0,0,0-5.078.781,10.633,10.633,0,0,1-2.344.391L707.5,900.5q7.032-.779,9.766-3.125,1.95-1.95-3.907-3.125a3.035,3.035,0,0,0-1.171.391,11.5,11.5,0,0,0-4.3.781,49.7,49.7,0,0,1,.781-6.641q0.384-1.555-4.3-4.3,12.5-1.556,14.453-1.953c2.344,0,3.772.263,4.3,0.781q1.557,1.173,0,9.766h0Zm-21.094,3.516a27.617,27.617,0,0,0-4.687.781q-2.738.787-4.688,1.172-3.909,1.171,3.906,3.515a19.8,19.8,0,0,0,3.907-.39,6.6,6.6,0,0,1,1.562-.391v9.766L690.312,913q-1.565-12.891-3.124-25.781,4.686-.779,9.374-1.563a6.023,6.023,0,0,1,3.516-.39q1.95,1.172,1.953,11.328h0ZM832.5,873.156a2.751,2.751,0,0,0,.391,2.344q1.95,5.475-.391,12.891a77.638,77.638,0,0,1-10.547,21.875q-4.687,11.718,9.766-8.2,2.343,0.788,7.812-.39a85.453,85.453,0,0,0,13.672-3.906q0.779,0.788-1.562,6.64-3.132,7.82,1.953,3.125a28.666,28.666,0,0,1,9.765-6.25c1.819-.781,2.735-1.562,2.735-2.343q-5.475-7.032-12.891-7.032-12.891,6.647-20.312,7.813a92.321,92.321,0,0,0,8.2-16.8,9.631,9.631,0,0,1,1.953-3.516q2.343-3.121-1.172-4.687-8.2-4.295-9.375-1.563h0Zm-35.156,29.3q-8.6-2.728-8.2-.781a5.888,5.888,0,0,0,.781,2.344q3.121,6.252,5.469,22.265,1.172,6.254,3.515,5.86,2.345-1.173,1.563-7.813,23.043-3.9,13.672-8.2,1.95-8.588,5.859-11.719a3.189,3.189,0,0,0,1.172-1.953,13.722,13.722,0,0,0-10.938-5.078q-7.425,4.3-12.89,5.078h0Zm11.718,15.625a12.922,12.922,0,0,1-5.859,1.953q-1.959.395-3.515,0.781l-1.563-14.843q2.728-.779,6.25-1.953c2.6-.782,4.3-1.038,5.078-0.782q2.344,1.566-.391,14.844h0Zm21.485-8.984c-0.263.262-.134,0.781,0.391,1.562q2.727,7.032-1.172,17.969-4.3,12.505-21.875,19.141-7.819,4.293,7.031.39a29.14,29.14,0,0,0,12.5-7.031q7.031-5.859,9.766-18.75,12.5,22.266,17.187,26.172,3.121,3.516,22.656,0c2.6-.256,3.907-0.647,3.907-1.172,0-.256-1.435-0.781-4.3-1.563q-15.235-3.122-23.829-9.374-5.859-4.294-14.843-16.407,0.384-1.95,1.172-4.687,1.172-2.729,0-3.516-6.253-5.072-8.594-2.734h0Zm110.547-28.906q3.9-3.123-.391-8.2-5.859-3.515-10.937-1.562,5.465,8.2,11.328,9.766h0Zm8.594,0a264.611,264.611,0,0,1-34.376,7.031q-5.859-3.123-7.812-1.953a2.941,2.941,0,0,0,.391,1.172q4.293,7.818-2.735,35.156a66.057,66.057,0,0,1-16.015,29.687q-3.132,3.123-1.953,3.907,1.172,0,5.078-3.126,17.577-13.668,21.484-45.7a16.683,16.683,0,0,1,3.906.782,32.7,32.7,0,0,0,3.516.39q1.171-.384,4.687-1.172a10.88,10.88,0,0,1,2.344-.39v6.25a9.707,9.707,0,0,0,0,3.906q0,3.13,1.563,3.516c1.037,0,1.69-1.038,1.953-3.125q8.587-1.95,16.015-3.516,3.123-.384,3.516-1.172,0.779-1.555-3.125-3.516,0.779-3.9,1.563-6.64a66,66,0,0,1,11.328-.781,42.583,42.583,0,0,1,4.3-.391q2.728-4.295-3.515-5.078-1.959-.384-7.422,1.562a30.274,30.274,0,0,1-4.3,1.563,13.291,13.291,0,0,1,2.344-5.469,3.5,3.5,0,0,0,.39-1.562q-5.473-5.466-8.984-3.907a1.758,1.758,0,0,0,.391,1.953q2.728,2.737,1.562,9.766l-14.062,2.734a44.394,44.394,0,0,1,.39-6.25v-0.781q-4.687-4.293-7.421-2.343c-0.263.262,0,1.043,0.781,2.343a18.845,18.845,0,0,1,2.734,7.813c-1.562.262-2.087,0.39-1.562,0.39q-10.548,1.961-12.5,1.563a23.666,23.666,0,0,1,.39-3.125q0.779-8.982.781-11.719,14.448-.384,35.547-5.078,5.86-1.171,9.375-1.953c1.819-.256,2.344-1.172,1.563-2.734-1.044-1.038-2.869-1.563-5.469-1.563a30.272,30.272,0,0,0-6.64,1.563h0Zm-6.25,30.468-11.719,2.735v-8.2L945,902.453Zm2.734,7.813q-5.859,4.3-20.7,6.25-3.516.393-1.953,1.172a22.119,22.119,0,0,0,7.031,1.171q6.637-1.556,13.281-3.515a6.6,6.6,0,0,1,1.563-.391q-1.173,4.3-7.032,12.891-12.505-8.2-17.187-5.859-0.395.786,2.344,1.562a51.06,51.06,0,0,1,12.109,7.031,46.638,46.638,0,0,1-24.219,12.11q-5.08.777-4.3,1.562a20.658,20.658,0,0,0,7.422.391q15.236-2.345,25-11.328,15.62,12.5,19.531,14.062,4.294,1.172,19.532-2.344c1.562-.525,2.344-1.043,2.344-1.562-0.263-.781-1.435-1.306-3.516-1.563q-22.659-1.95-35.156-11.328a72.6,72.6,0,0,0,7.031-10.156,20.109,20.109,0,0,1,4.3-3.906,4.388,4.388,0,0,0,1.562-1.563q-0.787-2.728-8.2-5.078a1.128,1.128,0,0,0-.781.391h0Zm93.358-33.985q-16.02,5.082-28.91,5.469-4.68,1.566,5.86,3.906,3.9,0.788,10.94-.781,1.17,2.738,1.56,17.969a24.007,24.007,0,0,1-3.51.781q-7.815,1.959-10.94,2.734,1.17,3.91,14.45,1.954l-0.39,18.75a21.605,21.605,0,0,0-4.29.781q-21.495,2.737-28.128,3.125-6.647,1.566,5.078,5.469,0.78,0,6.64-1.172a178.49,178.49,0,0,1,25.78-5.078,128.234,128.234,0,0,1,33.21.39q6.24,0.788,6.64-.781-1.185-6.245-11.33-7.031a106.868,106.868,0,0,0-11.33,1.172c-6.78.781-12.11,1.434-16.02,1.953v-18.75q13.68-1.95,14.85-4.688,0.78-4.293-5.47-3.125-8.6,1.566-9.38,2.344a85.028,85.028,0,0,1,1.18-12.891q0.375-2.727-4.3-4.687,17.58-2.729,20.31-5.469,1.56-3.9-6.64-3.906a27.948,27.948,0,0,0-5.86,1.562h0Zm18.36,42.188c2.08,1.562,3.52,1.172,4.3-1.172a7.481,7.481,0,0,0-2.74-6.641,13.776,13.776,0,0,0-7.81-2.343q-4.305,0,6.25,10.156h0Zm58.59-37.11q3.135,3.516,5.47,0,1.95-4.293-1.17-7.421a14.677,14.677,0,0,0-8.98-3.516q-4.695-.384,4.68,10.937h0Zm14.07-4.687q-2.355,2.344,4.29,3.906,17.58-3.9,18.75-2.343,2.355,2.736,3.91,28.906,0.78,23.83-1.56,25.39-1.575.394-6.64-.781c-2.61-.519-3.78-0.519-3.52,0q0,0.395,3.52,3.516a52,52,0,0,1,6.25,7.812q2.34,3.516,3.9,2.735,5.865-4.687,4.3-27.344,0-2.729-.39-7.813-2.745-32.418,1.56-32.421,0.78-4.294-11.33-6.25-9.375,4.3-23.04,4.687h0Zm-28.91,6.25q-0.78.787,0,2.344,2.73,5.859,2.34,25.781a79.361,79.361,0,0,1-1.95,15.625q-1.56,5.859-1.17,7.422,1.17,7.031,3.52,7.031,3.12-1.555,3.51-8.2,0.39-4.687.39-18.75,0-24.995,1.56-25.781,1.95-2.345-5.46-5.469c-1.31-.519-2.22-0.519-2.74,0h0ZM1242.27,871.2a11.11,11.11,0,0,1-.39,8.594,86.554,86.554,0,0,1-10.16,16.8,127.472,127.472,0,0,1-20.31,3.515c-3.13-.256-4.56,0-4.3.782q1.56,1.565,5.47,1.953a47.861,47.861,0,0,0,10.54-.391h1.96q2.34,1.172.39,13.672-25.005,3.13-28.91,2.344c-2.87-.519-3.9-0.257-3.12.781a17.732,17.732,0,0,0,7.03,3.516q1.56,0.393,14.06-1.954,7.035-1.172,10.55-1.562-4.3,21.88-26.56,30.078-4.695,1.95-4.3,2.344,0,0.779,5.08,0,24.6-3.909,29.68-29.3,3.9,5.475,10.16,14.063,10.155,14.061,12.89,15.234,3.12,1.171,16.8.39h3.12c2.35-.262,3.38-0.781,3.13-1.562q-0.8-1.171-5.08-2.344-22.665-5.072-39.45-29.3a178.06,178.06,0,0,1,30.07-1.171q4.305,0.393,5.86-.391,4.3-3.516-7.42-7.031-1.56-.385-7.03,1.172a148.7,148.7,0,0,1-21.48,3.906,32.087,32.087,0,0,1,1.95-9.766,2.98,2.98,0,0,0,.39-1.172,5.637,5.637,0,0,0-1.56-1.953,10.637,10.637,0,0,1-1.56-1.172q13.665-.779,19.92-3.125,4.68-1.555,4.29-3.125-0.78-1.95-5.86-1.953a21.474,21.474,0,0,0-4.68.781q-4.305,1.173-8.21,1.953a199.178,199.178,0,0,1,16.41-17.968q1.95-1.95,1.95-2.344-3.51-6.637-11.32-5.859a1.526,1.526,0,0,0,0,1.562h0Zm-20.32,21.485q3.9-1.173,2.35-7.032-3.135-5.859-11.72-7.812,3.12,12.505,9.37,14.844h0Z"/>
  <path id="大写字母" class="cls-3" d="M170.438,530.516q0.933-1.873,1.406-2.813,13.359-1.17,18.984-1.172a55.621,55.621,0,0,1,2.813,8.907q1.872,3.283,4.453,3.046,1.17-1.17-.938-6.328-8.673-18.984-11.484-25.781a12.13,12.13,0,0,1-.7-2.578,1.762,1.762,0,0,1-.235-0.7,1.829,1.829,0,0,0-.7-1.641q-3.285-1.636-5.39-.234a165.829,165.829,0,0,1-14.3,32.109,5.588,5.588,0,0,0,1.172,5.625q1.406,0.237,3.515-5.391c0.312-.622.78-1.64,1.407-3.046h0Zm11.015-25.078q5.389,11.019,8.2,18.515-1.406,0-4.687.235a90.474,90.474,0,0,1-11.953.468q3.279-8.437,8.437-19.218h0ZM243.469,526.3q-0.237-7.262-8.2-8.672,5.855-1.874,6.093-7.734,0-5.39-4.218-7.5-4.692-2.577-17.344-.7-8.437-2.814-5.625.7,1.874,2.813,2.344,29.062v5.156q0,2.813,1.406,3.282c0.622,0.157,1.172-.7,1.64-2.579q24.373,0.472,23.907-11.015h0Zm-4.219.234q0,8.675-19.688,7.969V520.672q20.622-3.279,19.688,5.859h0Zm-1.641-17.109q0.7,7.734-18.047,7.734V504.5q18.046-3.747,18.047,4.922h0Zm52.641-2.11q2.577-1.17,1.406-2.109-5.157-4.921-14.531-4.687-20.16.939-21.563,20.156,1.407,17.814,21.094,18.984a18.918,18.918,0,0,0,15.938-7.265q1.874-2.34,1.406-3.282-0.939-.933-2.812.938a18.007,18.007,0,0,1-14.3,6.562q-17.112-1.405-17.579-16.875,1.873-15.7,18.282-16.172,5.856,0,8.672,3.516,1.17,1.176,3.984.234h0Zm50.3,10.079q0,16.644-27.891,16.171V504.031q28.829-4.449,27.891,13.36h0Zm3.75,0.234Q345.7,497,313.125,501.219q-8.673-2.812-5.859.469,1.637,2.344,2.109,25.078,0,6.8.234,9.14,0.231,2.813,1.641,3.282,0.934,0.236,1.406-2.344,31.641,0.472,31.641-19.219h0Zm39.75-15.7q-1.176-1.17-5.156-1.875-4.923.939-10.547,1.875-2.109.472-3.282,0.7-7.969-4.219-5.624-.234,1.17,1.642,1.64,9.609a179.094,179.094,0,0,1,0,18.281c-0.157,1.875-.626,3.128-1.406,3.75a8.89,8.89,0,0,0-.938,1.875,4.239,4.239,0,0,0,1.875,3.516,3.469,3.469,0,0,0,1.641-.938,8.262,8.262,0,0,1,3.047-1.172,64.987,64.987,0,0,1,18.984-.468q2.577,0.235,1.875-1.641a5.853,5.853,0,0,0-3.984-2.578,92.889,92.889,0,0,0-17.813,2.344V521.375A55.335,55.335,0,0,1,380.3,520.2q2.813-.466,1.875-2.109-0.939-1.17-5.156-1.875a78.628,78.628,0,0,1-12.422,2.578q0-3.043.234-8.672V505.2a52.2,52.2,0,0,1,17.344-1.406q2.813-.231,1.875-1.875h0Zm16.312,0.234c0.154,0.315.312,0.626,0.469,0.938a1.773,1.773,0,0,0,.234.7,5.417,5.417,0,0,1,.469,1.641q1.407,20.626-.469,29.531a5.691,5.691,0,0,0,3.047,4.687q1.638-.466,1.641-6.562,0-7.032-.234-11.719a55.325,55.325,0,0,1,15.937-1.172q2.813-.466,1.875-2.109-1.176-1.17-5.156-1.875-9.141,2.582-12.656,2.578,0-2.34-.235-6.563v-3.75a10.775,10.775,0,0,1,.235-2.109v-0.937a47.8,47.8,0,0,1,16.875-1.641q2.813-.231,1.875-1.875-1.176-1.17-5.157-1.875a55.533,55.533,0,0,0-7.5,1.641,15.662,15.662,0,0,1-1.875.468q-2.812.473-4.218,0.7-3.285-2.575-5.391-2.109c-0.315.157-.234,0.626,0.234,1.406h0Zm55.922,19.453c-1.252,0-1.721.315-1.406,0.938a5.6,5.6,0,0,0,2.813,2.109,52.613,52.613,0,0,1,9.374-1.406,61.945,61.945,0,0,1,0,10.781q-3.514,2.813-10.781,2.813-16.875-1.17-16.875-17.11,1.873-15.7,18.516-16.406,6.091,0,8.906,3.75,1.17,0.939,3.984,0,2.577-.933,1.407-1.875-5.159-4.921-14.531-4.687-20.391,1.174-21.563,20.39,0.934,17.814,19.687,18.75a35.008,35.008,0,0,0,11.485-1.64q4.218-.934,3.515-5.391v-2.813a45.25,45.25,0,0,1,0-6.562,22.141,22.141,0,0,1,3.047.234q2.577-.23,1.641-1.875-0.939-1.405-4.688-2.343-8.673,2.813-14.531,2.343h0ZM518.3,502.391a1.86,1.86,0,0,1,.234.7,1.762,1.762,0,0,0,.235.7,5.436,5.436,0,0,1,.468,1.641q0.468,5.625.469,10.781a250.47,250.47,0,0,1-26.719,2.109q0-1.874-.234-5.625v-3.75a10.037,10.037,0,0,1,.234-1.875v-0.937a0.675,0.675,0,0,1,.235-0.469,3.805,3.805,0,0,0,0-1.875q-2.812-2.577-5.625-2.344c-0.315.158-.235,0.626,0.234,1.406a2.536,2.536,0,0,0,.469.7,3.779,3.779,0,0,0,.234.938,3.789,3.789,0,0,1,.469,1.641q1.17,20.16-.469,28.828a5.31,5.31,0,0,0,3.047,4.453q1.637-.231,1.641-6.094,0-7.262-.235-11.719a141.147,141.147,0,0,1,26.719-1.64,85.855,85.855,0,0,1-.937,14.765,5.31,5.31,0,0,0,3.046,4.454q1.638-.231,1.641-6.094,0-13.827-.469-24.61a8.01,8.01,0,0,1,.469-3.281,2,2,0,0,0,0-1.875,6.665,6.665,0,0,0-5.625-2.344c-0.315.158-.157,0.627,0.469,1.407h0Zm24.047,0a2.574,2.574,0,0,0,.468.7,1.762,1.762,0,0,0,.235.7,4.013,4.013,0,0,1,.7,1.875q1.17,20.863-.7,29.062a5.692,5.692,0,0,0,3.047,4.688q1.636-.466,1.64-6.563,0-11.952-.468-24.375a8.774,8.774,0,0,1,.468-2.812v-0.938a2.143,2.143,0,0,0,0-1.406q-2.812-2.575-5.625-2.344c-0.315.158-.234,0.627,0.235,1.407h0Zm30.609,30.234q0.7-6.329.469-24.141a7.22,7.22,0,0,1,.469-3.046v-0.7a2.156,2.156,0,0,0,0-1.406,7.711,7.711,0,0,0-5.86-2.344,2,2,0,0,0,.469,1.641,0.69,0.69,0,0,1,.234.469,5.405,5.405,0,0,1,.938,3.047q1.406,29.767-2.578,34.921-3.285,5.856-9.61,2.579-1.636-.94-1.875-0.469-0.467.7,0.938,2.109a9.349,9.349,0,0,0,6.094,2.344,8.286,8.286,0,0,0,7.031-3.984,27.74,27.74,0,0,0,3.281-11.016h0Zm44.672-31.172a1.491,1.491,0,0,0-.469,1.406q-1.405,4.692-20.39,16.641l-0.469.469q0-1.874-.235-5.625a42.8,42.8,0,0,0-.234-5.625,7.222,7.222,0,0,1,.469-3.047,3.441,3.441,0,0,0,.234-2.11,8.088,8.088,0,0,0-5.859-2.578q-0.237.237,0.234,1.641a2.574,2.574,0,0,0,.469.7,4.013,4.013,0,0,1,.7,1.875,0.692,0.692,0,0,1,.234.469q1.171,20.391-.468,29.062a4.813,4.813,0,0,0,3.047,4.688q1.17-.7,1.406-6.328V521.609h0.234a1.847,1.847,0,0,1,.7-0.234,2.4,2.4,0,0,0,.938-0.469,7.99,7.99,0,0,1,2.109-.937q12.888,17.347,15.7,18.047,2.577,0.7,9.141.234c1.718-.154,2.5-0.469,2.344-0.938q0-.467-2.813-1.406-10.315-3.043-22.265-17.109,4.685-2.812,15.234-9.375,3.982-2.34,4.687-2.813,1.638-.7-3.046-4.687a2.015,2.015,0,0,0-1.641-.469h0Zm26.859,14.531v-7.5a5.618,5.618,0,0,1,.469-2.812,15.01,15.01,0,0,0,.235-2.344,8.344,8.344,0,0,0-6.094-2.578c-0.315.315-.158,0.938,0.468,1.875a0.692,0.692,0,0,1,.235.469,11.5,11.5,0,0,1,.7,2.812q1.17,17.112,0,24.61a6.839,6.839,0,0,1-.938,3.281q-1.174,1.643-.234.469a4.812,4.812,0,0,0-.937,1.875,4.234,4.234,0,0,0,1.875,3.515,3.464,3.464,0,0,0,1.64-.937,5.68,5.68,0,0,1,2.578-1.172q6.559-1.407,19.454-.7,2.576,0.235,1.874-1.406a5.849,5.849,0,0,0-3.984-2.579,81.611,81.611,0,0,0-17.344,2.11q-0.236-5.856,0-18.985h0Zm40.922-9.375q9.141,20.391,11.25,26.485a3.555,3.555,0,0,0,3.282,3.047q2.576,0,3.515-3.282,3.279-9.14,10.781-26.25,5.389,21.567,4.922,28.125,0.935,3.516,3.75,3.985,1.17-.7.469-6.563-0.473-2.575-2.344-10.781-2.109-10.074-2.812-13.359-0.237-2.111-.235-3.047v-0.7a2.472,2.472,0,0,0-.234-1.407q-3.048-2.109-5.156-1.406-5.625,14.535-12.656,29.766-5.862-12.42-10.547-24.141a7.764,7.764,0,0,1-.7-3.047,0.694,0.694,0,0,0-.235-0.469,1.92,1.92,0,0,0-.469-1.406q-3.515-1.637-5.625-.234-2.812,24.609-6.8,31.64a5.745,5.745,0,0,0,1.172,5.626q1.638,0,3.75-5.626,1.873-6.795,4.922-26.953h0Zm58.5,3.516v-2.813q18.513,20.628,25.313,30.235a3.539,3.539,0,0,0,4.922,1.406q1.872-.231,1.64-6.094,0.231-5.855-.469-21.8v-2.343a8.01,8.01,0,0,1,.469-3.281,2.842,2.842,0,0,0,.235-1.876,7.059,7.059,0,0,0-5.86-2.578,2.745,2.745,0,0,0,.7,2.11l0.235,0.234a4.541,4.541,0,0,1,.7,2.344q1.406,18.984-.235,28.359-12.424-13.359-23.906-27.187a9.255,9.255,0,0,1-1.172-3.047,3.492,3.492,0,0,0-.937-1.641q-3.751-.933-5.625.7,0.933,9.845.937,19.688-0.236,8.673-1.64,11.719-0.473,3.752,2.343,5.39,1.638-.7,2.344-6.094t0-23.437h0Zm69.047-9.609q-20.626,1.174-22.031,20.625,1.406,17.577,21.8,18.515,19.918-1.636,21.328-20.625-1.643-16.875-21.094-18.515h0Zm0.235,35.859q-17.815-.7-18.516-16.406,1.406-15.7,16.875-16.407,17.578,0.7,18.281,16.876-0.939,15.237-16.64,15.937h0Zm57.328-25.547q0,9.844-16.875,9.844V504.031q17.1-3.279,16.875,6.8h0Zm-16.875,12.656q21.324,0,21.093-12.656a9.773,9.773,0,0,0-4.218-7.969q-4.455-3.514-16.641-1.406-8.207-3.043-5.625.7,1.407,2.813,1.875,14.532a97.113,97.113,0,0,1-.937,18.046q0.467,3.516,3.046,4.688,1.407,0,1.407-6.328v-9.61h0Zm61.781,14.766q12.887-5.389,13.359-19.219-1.642-16.875-21.093-18.515-20.628,1.174-22.032,20.625,1.407,17.577,21.8,18.515a24.811,24.811,0,0,0,3.516-.234,55.366,55.366,0,0,0,5.156,5.859,4.543,4.543,0,0,0,3.516,2.11q1.405,0.467,9.609,0c1.091-.158,1.641-0.469,1.641-0.938a3.745,3.745,0,0,0-2.11-1.172A22.621,22.621,0,0,1,920.812,542a27.3,27.3,0,0,1-5.39-3.75h0Zm-26.016-18.281q1.407-15.7,16.875-16.407,17.579,0.7,18.281,16.876-0.471,11.952-11.718,15.468a18.477,18.477,0,0,1-2.344-2.812q-4.218-4.686-7.031-5.86-1.88-1.17-2.578-.7-0.7.7,0.937,2.11a20.048,20.048,0,0,1,5.391,5.859,9.661,9.661,0,0,0,1.406,1.875h-0.7q-17.814-.7-18.516-16.406h0Zm77.016,6.8a36.076,36.076,0,0,0-5.391-4.922q9.845-2.812,10.078-11.016a9.773,9.773,0,0,0-4.218-7.969q-4.923-3.514-18.282-1.406-8.207-3.043-5.625.7,1.407,2.813,1.875,14.532a97.113,97.113,0,0,1-.937,18.046q0.466,3.753,3.281,4.688,1.407-.231,1.406-6.328,0-4.451-.234-9.61a73.473,73.473,0,0,0,9.609-.937,17.254,17.254,0,0,1,4.922,5.156,67.279,67.279,0,0,0,7.969,9.375q1.637,3.05,12.891,2.11c1.091-.154,1.64-0.469,1.64-0.938-0.157-.469-0.783-0.857-1.875-1.172a29.683,29.683,0,0,1-8.437-3.281,37.075,37.075,0,0,1-8.672-7.031h0Zm0.469-15.938q0,9.844-18.516,9.844V504.031q18.749-3.279,18.516,6.8h0Zm48.419,18.281q-0.93,7.267-9.84,7.735a14.317,14.317,0,0,1-8.439-2.813q-1.642-1.17-2.109-.234-0.237.939,1.406,2.344a15.513,15.513,0,0,0,8.9,3.75q12.42-.231,13.36-10.547,0.24-9.372-12.65-11.485-7.74-1.636-7.034-8.2,0.935-5.856,7.264-6.562,5.16,0,6.56,3.047,0.945,1.174,3.75.7,2.115-.468,1.41-1.875-3.99-4.921-12.19-4.453-9.372.939-10.075,9.375-0.236,9.612,10.315,11.25,9.375,1.878,9.37,7.968h0Zm15.14-26.25c-1.25.158-1.72,0.55-1.4,1.172a4.517,4.517,0,0,0,2.81,2.11,3.817,3.817,0,0,0,1.17-.235c4.37-.622,7.97-1.014,10.78-1.172a1.356,1.356,0,0,0,.47.938,3.99,3.99,0,0,1,.7,1.875,0.675,0.675,0,0,1,.24.469q1.17,19.219-.47,26.718a5.158,5.158,0,0,0,2.81,4.688q1.635-.466,1.64-6.328,0-3.043-.23-11.25-0.24-7.965-.24-10.782a4.882,4.882,0,0,1,.47-3.281,1.423,1.423,0,0,0,0-1.875c0-.311-0.7-0.857-2.11-1.64a136.736,136.736,0,0,1,16.18,0c2.02,0,2.65-.623,1.87-1.875q-1.17-1.407-5.16-2.344a220.293,220.293,0,0,1-29.53,2.812h0Zm66.94,34.219q-9.615-.231-12.89-7.5-1.875-4.218-1.41-19.453a7.3,7.3,0,0,1,.47-3.047,10.6,10.6,0,0,0,.24-2.109,8.1,8.1,0,0,0-5.86-2.578c-0.16.157,0,.549,0.47,1.171a7.762,7.762,0,0,0,.47,1.172,14.181,14.181,0,0,1,.7,3.75q0,12.426.47,16.172a17.846,17.846,0,0,0,1.87,7.266q4.455,7.971,15.7,7.734,11.025,0,15.24-8.2,2.34-3.745,1.87-22.734a7.3,7.3,0,0,1,.47-3.047,10.6,10.6,0,0,0,.24-2.11,8.1,8.1,0,0,0-5.86-2.578c-0.16.315,0.08,1.1,0.7,2.344a5.085,5.085,0,0,1,.94,2.813q1.41,18.049-1.41,23.671-3.045,6.565-12.42,7.266h0Zm58.5-14.766q4.215-9.607,5.63-12.421a11.407,11.407,0,0,1,1.64-2.344c0.15-.154.31-0.311,0.46-0.469,0.32-.622.55-1.091,0.71-1.406a7.149,7.149,0,0,0-3.99-4.922c-0.31.157-.39,0.7-0.23,1.641v0.7a17.666,17.666,0,0,1-.94,4.218q-1.875,3.988-5.39,11.954-4.455,9.612-5.86,12.656a172.535,172.535,0,0,1-10.31-22.5,7.051,7.051,0,0,1-.7-2.578,5.326,5.326,0,0,0-.94-2.344,8.5,8.5,0,0,0-6.09-.938c-0.16.469,0.38,1.172,1.64,2.11a12.854,12.854,0,0,1,2.1,3.516q1.65,3.514,4.46,10.312,5.85,12.893,8.44,19.453,1.17,1.407,2.1,0,2.115-4.686,7.27-16.641h0Zm45.61-6.093q2.34-7.965,3.05-9.61,4.68,18.282,9.61,32.344c0.62,1.1,1.32,1.172,2.11.235q2.565-6.8,7.5-18.75,2.805-7.5,3.98-10.547a0.974,0.974,0,0,0,.23-0.7c0.47-.781.86-1.407,1.18-1.876a1.313,1.313,0,0,1,.46-0.7,10.832,10.832,0,0,0,.71-1.171,7.867,7.867,0,0,0-3.99-4.688c-0.46.157-.62,0.784-0.46,1.875v0.469a14.8,14.8,0,0,1-.71,4.218q-4.455,12.657-9.61,24.61a150.3,150.3,0,0,1-7.26-23.906,6.3,6.3,0,0,0-.24-1.407,6.687,6.687,0,0,1-.23-1.406,3.855,3.855,0,0,0-.47-2.109,4.417,4.417,0,0,0-5.86-.235c-0.16.469-.39,1.33-0.7,2.579a6.24,6.24,0,0,1-.24,1.406v0.937q-2.1,8.674-7.03,22.969a8.98,8.98,0,0,1-.47,1.172,155.941,155.941,0,0,1-8.44-22.969,12.818,12.818,0,0,1-.7-2.578,8.621,8.621,0,0,0-.94-2.344q-3.51-1.874-6.09-.7c-0.16.315,0.39,0.938,1.64,1.875,0.62,0.469,1.33,1.721,2.11,3.75q0.465,1.643,1.64,4.922,5.865,16.409,9.61,25.078a1.325,1.325,0,0,0,2.34,0q2.34-6.091,7.27-22.734h0Zm47.95-9.141q-4.455-2.575-7.26-.7-0.945.236,3.51,2.813,3.285,1.641,8.44,7.968,1.41,1.88,3.52,4.688c0.78,0.937,1.32,1.64,1.64,2.109a93.642,93.642,0,0,1-17.35,13.359,2.027,2.027,0,0,0-1.4,1.641c0.15,0.469.78,0.469,1.87,0q9.615-3.279,19.22-12.656,7.965,11.25,10.08,12.187,2.34,0.7,11.25-.7c1.41-.154,2.03-0.469,1.87-0.937-0.15-.312-1.01-0.623-2.57-0.938q-7.98-1.405-17.35-11.718a35.976,35.976,0,0,0,4.46-5.391q1.86-2.34,4.92-6.328,4.215-5.39,5.62-6.8,1.875-1.637-4.45-4.688c-1.1-.468-1.72-0.545-1.88-0.234a4.988,4.988,0,0,0,.47,2.578q0.24,3.989-8.44,14.531a24.863,24.863,0,0,1-3.51,3.75c-0.47-.622-1.1-1.483-1.88-2.578-0.93-1.091-1.64-1.875-2.11-2.343a73.494,73.494,0,0,0-8.67-9.61h0Zm76.08,3.047a21.687,21.687,0,0,0,1.64-1.875,7.248,7.248,0,0,0,1.64-2.578,7.994,7.994,0,0,0-3.98-4.688c-0.32.158-.47,1.018-0.47,2.578a14.542,14.542,0,0,1-1.41,3.75,169.718,169.718,0,0,1-10.54,14.532q-0.945-1.17-2.82-3.282a93.612,93.612,0,0,1-7.03-8.906,9.437,9.437,0,0,1-1.64-2.812,5.379,5.379,0,0,0-.7-1.641q-3.75-2.109-6.56-.469c-0.16.315,0.38,0.938,1.64,1.875a11.834,11.834,0,0,1,2.11,2.344c0.62,0.626,1.01,1.018,1.17,1.172q1.635,2.109,4.69,5.859,4.215,5.625,7.26,9.375,0,4.923-.47,9.61a4.842,4.842,0,0,0,2.82,4.687q1.635,0,1.64-6.328a53.528,53.528,0,0,0-.24-8.2q5.625-7.965,11.25-15h0Zm24.75,25.547a33.627,33.627,0,0,1-3.98.469q12.645-14.062,21.09-25.079,3.285-3.514,4.92-4.218a2.793,2.793,0,0,1,.71-0.469,6.406,6.406,0,0,0,2.1-1.641c0.32-1.717-1.64-3.281-5.85-4.687a3.833,3.833,0,0,0-1.65.469c-0.31.157-.62,0.315-0.93,0.468q-7.5,3.05-22.27,2.813c-1.56,0-2.03.469-1.4,1.406a9.439,9.439,0,0,0,4.45,2.344,41.878,41.878,0,0,0,8.2-1.172q5.385-1.406,8.21-1.875c1.56-.311,2.81-0.546,3.74-0.7a147.726,147.726,0,0,1-24.37,30.234q-2.115,2.111-.94,3.75a5.385,5.385,0,0,0,4.92,1.407q9.615-2.577,27.19-1.876c1.88-.153,2.5-0.78,1.88-1.874-0.79-.938-2.5-1.641-5.16-2.11q-5.625,1.176-20.86,2.344h0Z"/>
  <path id="logo" class="cls-1" d="M706.266,1194.7a45.969,45.969,0,0,0-.118,5.15v5.16H677.555v-1.17l0.234-.94-1.406-.24c-1.1,0-2.659-.07-4.688-0.23h-3.281l-0.469,2.58a45.646,45.646,0,0,1-1.172,4.92,22.619,22.619,0,0,1-1.406,4.22,7.125,7.125,0,0,0-.82,2.23,6.584,6.584,0,0,0,2.109-.71c1.326-.54,2.615-1.13,3.867-1.76a11.566,11.566,0,0,0,3.516-2.81l1.641-1.64h66.8l1.875,1.88a14.477,14.477,0,0,0,3.75,2.81c1.406,0.62,2.655,1.17,3.75,1.64a1.036,1.036,0,1,0,1.171-1.17,17.1,17.1,0,0,1-1.406-3.99q-0.7-2.34-1.172-4.68a11.9,11.9,0,0,0-.7-3.05c0-.47-1.252-0.62-3.75-0.47-1.875.16-3.281,0.23-4.219,0.23a2.052,2.052,0,0,1-.937.24c-0.315,0-.469.31-0.469,0.94l0.235,0.93-13.594.24q-13.359,0-13.36-.24a2.838,2.838,0,0,1,.7-1.05,6.664,6.664,0,0,0,1.171-2.46,15.728,15.728,0,0,0,.469-4.22v-2.58h-4.687Q706.382,1194.46,706.266,1194.7Zm-31.289,28.12v4.22l21.093,0.23h21.094l-5.859,4.93q-5.4,4.215-8.2,6.56l-2.344,1.87v6.8H660.445v4.22h40.313v14.76c0,10.01-.158,15.47-0.469,16.41a13.152,13.152,0,0,1-1.172,3.05,21,21,0,0,1-2.578,3.04,16.962,16.962,0,0,1-3.75,2.82c-1.406.62-2.109,1.17-2.109,1.64s0.153,0.7.468,0.7a30.375,30.375,0,0,0,3.047-.47,34.353,34.353,0,0,0,4.922-1.4,16.4,16.4,0,0,0,4.688-1.88,11.74,11.74,0,0,0,3.515-2.34,12.264,12.264,0,0,0,2.344-2.58,13,13,0,0,0,1.172-2.58c0.311-.94.469-6.4,0.469-16.41v-14.76h38.2v-4.22h-38.2v-6.8l2.109-1.64q2.109-1.635,8.438-6.79,6.327-5.4,8.437-7.04a13.637,13.637,0,0,0,2.578-2.34q0-.225-28.828-0.23t-29.062.23h0Zm121.64-30.23-0.469,1.87a27.635,27.635,0,0,1-1.523,5.74c-0.861,2.43-1.681,4.65-2.461,6.68q-1.176,2.58-3.281,6.8-1.88,3.75-4.453,8.44-2.11,3.75-4.688,7.73-2.582,4.215-3.047,4.92a7.818,7.818,0,0,0-1.406,2.11c-0.157.47-.117,0.71,0.117,0.71a8.252,8.252,0,0,0,2.227-1.18q1.873-1.17,3.515-2.34,1.874-1.41,3.985-3.28a59.714,59.714,0,0,0,4.453-4.45l2.109-2.35,0.235,14.77,0.234,14.76h1.875a5.862,5.862,0,0,0,3.047-.7,5.457,5.457,0,0,0,1.875-1.17,11.374,11.374,0,0,0,1.406-1.64l0.469-.71h27.187v2.11l0.235,2.11h1.64a7.437,7.437,0,0,0,2.813-.47,9.072,9.072,0,0,0,2.109-1.17,4.666,4.666,0,0,0,1.407-1.64l0.7-.94h31.64v-4.45H838.336v-6.8H868.57v-4.45H838.336v-6.8H868.57v-4.68H838.336v-7.5H868.57v-4.69H837.164l0.938-1.17a23.668,23.668,0,0,0,1.406-2.35,6.445,6.445,0,0,0,.7-2.57,17.74,17.74,0,0,0,.469-4.93v-3.51H828.727v14.53H815.6q-13.129,0-13.125-.23c0-.16-0.158-0.24-0.469-0.24s0.311-1.41,1.875-4.22a69.182,69.182,0,0,0,3.281-7.5,16.732,16.732,0,0,0,1.406-3.98l0.235-1.17H796.617Zm31.406,22.03v7.5H802.477v-7.5h25.546Zm0,12.18v6.8H802.477v-6.8h25.546Zm0,11.25v6.8H802.477v-6.8h25.546Zm-3.515,16.88v5.16l-22.969.23H778.805v4.45h45.7v1.64c0,1.1-.081,1.64-0.235,1.64a40.222,40.222,0,0,1-4.687-1.17q-4.455-1.17-4.922-1.4-0.236,0-6.328,4.68-6.1,4.935-7.734,6.1-1.643.93-4.454,2.58a58.967,58.967,0,0,1-5.39,2.57q-2.812,1.185-5.391,2.23a35.226,35.226,0,0,1-5.859,1.76,17.416,17.416,0,0,0-3.047,1.05,6.06,6.06,0,0,0,1.289,1.06,3.994,3.994,0,0,0,1.992.94c0.469,0,2.344-.32,5.625-0.94s6.328-1.33,9.141-2.11q4.449-1.17,8.2-2.35a22.822,22.822,0,0,0,4.922-2.1q1.637-.945,9.14-6.1t7.618-5.04q0.115,0.12.117,13.48v13.12h1.406a7.357,7.357,0,0,0,2.813-.7,6.692,6.692,0,0,0,3.046-1.99,11.184,11.184,0,0,0,2.11-3.17,8.733,8.733,0,0,0,.586-2.34q0.115-1.17.117-6.33c0.154-4.68.271-7.11,0.352-7.26s1.442,0.55,4.1,2.11q3.982,2.1,6.8,3.51a34.945,34.945,0,0,0,6.328,2.58,54.282,54.282,0,0,0,6.328,1.64,52.974,52.974,0,0,0,5.625.94c1.718,0.16,4.219.23,7.5,0.23a38.521,38.521,0,0,0,5.86-.23,1.37,1.37,0,0,0,1.171-.94l0.235-1.17c0-.15-0.235-0.24-0.7-0.24-0.315,0-1.722-.23-4.219-0.7s-5-1.01-7.5-1.64q-3.516-.93-6.8-2.11-2.812-.93-5.625-2.11-2.346-1.17-10.078-6.33l-7.734-5.15,19.453-.24h19.453v-4.45H854.977l-20.157-.23v-2.58l-0.234-2.58H824.508Z"/>
</svg>
