<svg xmlns="http://www.w3.org/2000/svg" width="400" height="200" viewBox="0 0 400 200">
  <defs>
    <style>
      .cls-1 {
        fill: #fdfdfd;
        fill-rule: evenodd;
      }
    </style>
  </defs>
  <path id="王漢宗粗楷體簡" class="cls-1" d="M58.625,84.852A86.542,86.542,0,0,1,47.375,86.3a1.637,1.637,0,0,0-1.031.516q-0.844,1.125,1.359,2.3a12.484,12.484,0,0,0,6.8.516,0.784,0.784,0,0,1,1.031.563,29.288,29.288,0,0,1,.422,7.266,0.823,0.823,0,0,1-.75.891q-2.86.469-5.578,0.656a2.617,2.617,0,0,0-1.687.563,0.728,0.728,0,0,0-.281.61,2.859,2.859,0,0,0,1.547,1.547,11,11,0,0,0,5.766.421q0.937-.093.937,0.657l-0.141,7.172a0.763,0.763,0,0,1-.75.843q-4.219.329-8.437,0.8a48.889,48.889,0,0,1-6.656.235q-2.2-.095-1.781,1.828a4.5,4.5,0,0,0,2.391,2.3,5.692,5.692,0,0,0,1.875.7,4.946,4.946,0,0,0,1.875-.375q5.625-1.08,13.125-1.875,4.312-.187,7.5-0.469a58.817,58.817,0,0,1,10.547.375,5.946,5.946,0,0,0,1.969.047,1.628,1.628,0,0,0,1.219-1.313q0.234-1.218-2.484-2.953-1.266-.8-1.875-1.125a3.448,3.448,0,0,0-2.672-.094,87.35,87.35,0,0,1-11.25,1.454q-0.938.046-.937-0.7l0.141-7.265a0.989,0.989,0,0,1,.8-1.078l6.047-1.266a2.648,2.648,0,0,0,1.172-.375q1.5-1.5-.844-2.766a5.564,5.564,0,0,0-4.219-.234l-1.875.516q-0.938.188-.891-0.562a43,43,0,0,1,.375-5.953,2.8,2.8,0,0,0-.047-1.406q-0.235-.422.563-0.562,2.25-.375,4.453-0.7a16.869,16.869,0,0,0,3.75-.844q1.406-.656,1.125-1.594a2.656,2.656,0,0,0-1.547-1.547,6.537,6.537,0,0,0-4.172-.516q-3.985,1.032-5.625,1.359h0Zm32.531-2.719Q90.5,83.4,92.141,84.8A24.589,24.589,0,0,1,95,87.242a3.037,3.037,0,0,0,1.875,1.125A1.592,1.592,0,0,0,98.891,87.2a4.241,4.241,0,0,0-.094-2.2,3.747,3.747,0,0,0-3.047-2.719,13.49,13.49,0,0,0-3.75-.75,1.159,1.159,0,0,0-.844.609h0Zm16.735,6.516a58.935,58.935,0,0,1-7.5,1.078,7.492,7.492,0,0,0-2.063.188,1.024,1.024,0,0,0-.656.8,2.194,2.194,0,0,0,1.5,2.063q1.406,0.891,4.359.094,4.688-1.359,7.313-1.828a2.292,2.292,0,0,1,1.031-.047v0.656a42.253,42.253,0,0,1-3.328,10.172q-0.47.939-1.125,0.235-1.453-1.734-2.906-3.7a6.316,6.316,0,0,0-3.469-2.812q-1.923-.656-2.531.656a1.612,1.612,0,0,0,.75,1.406,36.222,36.222,0,0,1,6.093,7.312,1.4,1.4,0,0,1-.14,1.875,35.175,35.175,0,0,1-6.8,5.625l-3.75,2.344a0.938,0.938,0,0,0-.234,1.5,1.8,1.8,0,0,0,1.266.234,34.06,34.06,0,0,0,6.047-2.437,18.984,18.984,0,0,0,5.719-3.844q0.889-.984,1.593-0.141,1.875,2.391,4.36,5.157a3.609,3.609,0,0,0,1.828,1.218,33.35,33.35,0,0,0,5.625.563l4.406,0.047a3.367,3.367,0,0,0,1.922-.657,0.863,0.863,0,0,0-.375-1.406q-3.422-1.687-7.5-3.375a23.4,23.4,0,0,1-7.5-4.875,1.358,1.358,0,0,1-.375-1.828,35.474,35.474,0,0,0,4.359-9.844,14.63,14.63,0,0,1,.563-1.875,8.6,8.6,0,0,1,1.266-1.875q2.436-2.2-.657-3.516a17.674,17.674,0,0,0-1.875-.656,4.47,4.47,0,0,0-3.468.375ZM86.328,91.883a2.673,2.673,0,0,0,.422,1.078,27.775,27.775,0,0,0,4.031,3.8q2.015,1.406,3.188-.375,1.078-2.577-2.2-4.594a13.6,13.6,0,0,0-3.75-1.266,1.505,1.505,0,0,0-1.5.422,1.755,1.755,0,0,0-.187.938h0Zm8.719,8.2q-2.86,4.688-5.672,9.375a6.141,6.141,0,0,1-1.828,1.641,1.86,1.86,0,0,0-.516,2.109,9.549,9.549,0,0,0,.891,2.812,4.9,4.9,0,0,0,1.5,1.782,2.1,2.1,0,0,0,1.406.515A1.3,1.3,0,0,0,92,116.867a9.36,9.36,0,0,1,.141-0.937,129.258,129.258,0,0,1,5.438-15,5.581,5.581,0,0,0,.563-1.875,0.828,0.828,0,0,0-1.078-.937,4.375,4.375,0,0,0-2.016,1.969h0ZM149.8,78.992q-0.7.938,0.375,2.344a18.368,18.368,0,0,0,4.64,3.7,2.023,2.023,0,0,0,3.235-2.156q-0.187-1.828-2.719-3.094a17.4,17.4,0,0,0-3.75-1.219,3.067,3.067,0,0,0-.937.047,3.7,3.7,0,0,0-.844.375h0Zm-6.328,8.391a4.247,4.247,0,0,0-1.828-1.547,1.1,1.1,0,0,0-1.313.938,3.243,3.243,0,0,0-.14.938,5.079,5.079,0,0,1-1.36,2.813,5.359,5.359,0,0,0-1.64,4.828,3.294,3.294,0,0,0,1.359,2.438,1.609,1.609,0,0,0,2.062-.8,21.794,21.794,0,0,0,2.11-4.641,1.034,1.034,0,0,1,1.125-.8,7.638,7.638,0,0,0,2.859-.562,90.163,90.163,0,0,1,16.875-2.953,2.54,2.54,0,0,1,.891.094,1.029,1.029,0,0,1-.141.844q-0.657,1.735-1.219,3.422a0.749,0.749,0,0,0,.235.938,1.061,1.061,0,0,0,.937.281,3.779,3.779,0,0,0,1.875-1.031,14.007,14.007,0,0,1,3.75-2.062,9.574,9.574,0,0,0,1.875-.75q1.219-.749.141-1.781a23.38,23.38,0,0,0-2.813-2.25,4.316,4.316,0,0,0-3.609-1.078q-9.047,1.313-20.766,3.328a1.054,1.054,0,0,1-1.265-.609h0Zm11.3,5.672a40.6,40.6,0,0,1-7.5,1.594,1.944,1.944,0,0,0-1.219.656,1.208,1.208,0,0,0-.094.656,1.525,1.525,0,0,0,1.031,1.172,6.268,6.268,0,0,0,4.032.563q1.874-.515,3.75-0.844,1.874-.468,3.75-0.844,1.406-.281,1.875-0.422,1.406-.844.89-1.922a3.332,3.332,0,0,0-2.953-1.359q-1.734.281-3.562,0.75h0Zm-13.875,9.375a0.852,0.852,0,0,0-.7.515q-0.141.939,1.218,1.875a3.863,3.863,0,0,0,3.7.328,53.591,53.591,0,0,1,5.579-1.218,0.784,0.784,0,0,1,1.031.7,39.393,39.393,0,0,1,.047,7.969,3.613,3.613,0,0,1-.328,1.312,3.833,3.833,0,0,1-1.5-.141,10.071,10.071,0,0,0-1.876-.375,1.409,1.409,0,0,0-1.828.75,1.569,1.569,0,0,0,1.032,1.641q1.5,1.078,2.812,2.2a11.844,11.844,0,0,1,1.078,1.031,2.156,2.156,0,0,0,.985.8q1.452,0.986,2.25-.234a10.564,10.564,0,0,0,1.453-4.688,69.44,69.44,0,0,1,.187-8.765,4.158,4.158,0,0,0-.234-2.11q-0.422-.8.328-0.89,4.922-.421,8.766-0.469,0.843-.093,1.64-0.234,2.016-.516.563-2.3a8.908,8.908,0,0,0-2.813-1.594,4.657,4.657,0,0,0-2.765.094q-8.393,1.782-20.625,3.8h0Zm18.281,5.109a2.392,2.392,0,0,0,1.172,1.781q2.765,2.813,5.2,5.625a5.286,5.286,0,0,0,1.687,1.547,1.322,1.322,0,0,0,1.828-.469,3.523,3.523,0,0,0,.329-3.281,6.4,6.4,0,0,0-2.907-3.8,31.291,31.291,0,0,0-5.625-2.718,1.039,1.039,0,0,0-1.265.14,1.216,1.216,0,0,0-.422,1.172h0Zm-17.11.422a29.265,29.265,0,0,1-2.812,3.75,3.619,3.619,0,0,0-.75,1.406,4.182,4.182,0,0,0-.047,2.25,1.557,1.557,0,0,0,.8,1.266,1.949,1.949,0,0,0,2.2-.375,8.143,8.143,0,0,0,2.016-2.2,12.845,12.845,0,0,0,1.5-6.141q-0.61-2.156-2.3-.891a5.341,5.341,0,0,0-.61.938h0ZM190.25,80.539a3.179,3.179,0,0,0,.422.938,12.156,12.156,0,0,1,1.266,6.047l-0.188,8.766a1.01,1.01,0,0,1-.8,1.125q-4.97,1.079-10.078,1.828-1.406.7-.8,1.875a3.886,3.886,0,0,0,1.594,1.219,4.381,4.381,0,0,0,3.75,0q1.734-.609,3.516-1.172,0.8-.234.187,0.7a77.705,77.705,0,0,1-7.875,9.844,5.831,5.831,0,0,0-1.5,1.875,0.552,0.552,0,0,0,.141.656,1.463,1.463,0,0,0,1.64.141,5.632,5.632,0,0,0,1.875-1.266,36.644,36.644,0,0,0,7.406-7.594q0.657-.936.61-0.093a39.519,39.519,0,0,1-1.031,8.156q-1.219,2.954.7,6.75,0.843,1.311,1.734.891a1.632,1.632,0,0,0,.422-0.282,4.555,4.555,0,0,0,1.266-2.343,13.019,13.019,0,0,0,.234-3.422l0.188-8.86q0-.936.75-0.328l0.843,0.8a2.817,2.817,0,0,0,1.875,1.078,1.356,1.356,0,0,0,1.313-.75,3.323,3.323,0,0,0-.141-2.812,4.006,4.006,0,0,0-1.734-1.5,8.67,8.67,0,0,0-1.875-.7,1.007,1.007,0,0,1-.891-1.032v-0.422a1,1,0,0,1,.75-1.125q2.343-.515,4.688-0.844a1.6,1.6,0,0,0,.937-0.422,1.021,1.021,0,0,0,.235-1.406,2.766,2.766,0,0,0-1.782-1.125,7.136,7.136,0,0,0-3.7.375q-0.984.235-.984-0.516V95.3q0-.984.328-0.891a1.24,1.24,0,0,0,.984-0.281,38.735,38.735,0,0,1,4.688-3.375,1.144,1.144,0,0,0,.7-1.078,3.6,3.6,0,0,0-1.453-2.016,4.24,4.24,0,0,0-1.875-.8,1.318,1.318,0,0,0-1.406.516,1.174,1.174,0,0,0-.188.938q0.188,0.984-1.172,3.047-0.516.8-.469,0.047a40.74,40.74,0,0,1,.938-7.641q1.077-2.2-1.219-3.516-0.937-.656-1.875-1.219a2.154,2.154,0,0,0-2.672.141,1.174,1.174,0,0,0-.281,1.359h0ZM206.516,87.8a2.048,2.048,0,0,1-1.688-.422,2.431,2.431,0,0,0-2.578-.328,1.076,1.076,0,0,0-.422,1.734,10.909,10.909,0,0,1,1.078,3.7q0,9.376.141,18.75a0.87,0.87,0,0,1-.75,1.031q-2.626.236-5.156,0.563a1.507,1.507,0,0,0-1.079.469q-0.609.984,0.891,2.062a4.381,4.381,0,0,0,4.125.469q7.639-1.5,20.813-1.266a1.646,1.646,0,0,0,1.547-1.172q0.14-1.218-1.5-2.109a6.512,6.512,0,0,0-5.063-.937q-0.937.139-.937-0.61,0.186-8.531.75-15.844a6.87,6.87,0,0,1,1.171-3.75,1.89,1.89,0,0,0-.515-2.344,20.757,20.757,0,0,0-2.813-1.781,2.3,2.3,0,0,0-2.437-.187,26.877,26.877,0,0,1-5.578,1.969h0Zm-21.563,3.047q1.03,1.875,1.875,3.75a2.675,2.675,0,0,0,1.078,1.313,1.313,1.313,0,0,0,2.2-.422,3.983,3.983,0,0,0,.516-1.875A2.647,2.647,0,0,0,190.2,91.7a11.416,11.416,0,0,0-3.609-2.953q-1.453-.609-1.782,1.031a1.823,1.823,0,0,0,.141,1.078h0Zm27.516-.609V94.7q0,0.75-.75.188-1.36-.844-4.078,0-0.939.281-.938-0.469,0-1.452.094-2.906a0.97,0.97,0,0,1,.75-0.984q1.5-.468,3.422-0.937l0.515-.141a0.73,0.73,0,0,1,.985.8h0Zm-0.188,11.531q-0.047.986-.984,0.375a5.951,5.951,0,0,0-3.7-.046q-0.984.328-.985-0.422l0.047-2.485a0.867,0.867,0,0,1,.7-0.984l4.266-.75q0.8-.281.75,0.422Zm-0.375,8.532a0.888,0.888,0,0,1-.89.984l-3.516.422q-0.937.047-.938-0.7l0.047-4.453a0.99,0.99,0,0,1,.8-1.078q1.875-.282,3.75-0.469,0.984-.187.938,0.562-0.141,2.391-.188,4.735h0ZM235.812,79.7a3.657,3.657,0,0,0,.329,1.125,7.269,7.269,0,0,1,1.312,3.281q0.093,3.141.047,6.328a1.014,1.014,0,0,1-.8.984,41.888,41.888,0,0,1-6.75,1.594,1.965,1.965,0,0,0-1.359.8q-0.377,1.032.937,1.641a6.28,6.28,0,0,0,4.031.422l1.829-.516q0.936-.234.609,0.563a74.108,74.108,0,0,1-8.719,14.766q-0.984,1.171,0,1.828a1.3,1.3,0,0,0,1.407-.141,40.645,40.645,0,0,0,8.015-9.7q0.516-.843.516-0.047-0.187,4.969-.516,7.828-0.187.986-.7,2.813a4.962,4.962,0,0,0-.281,2.156,9.448,9.448,0,0,0,1.406,4.594q1.218,1.218,2.344-.235a5.933,5.933,0,0,0,1.125-3.75q0-5.67.14-13.218,0-.75.75-0.094c0.312,0.313.61,0.594,0.891,0.844q1.734,1.688,2.484-.61c0-.124.063-0.14,0.188-0.047q0.889,0.517,1.734-.656a49.626,49.626,0,0,1,6-5.25q1.688-1.125.891-2.25a0.9,0.9,0,0,0-.938-0.187q-1.406.516-2.812,1.078-0.939.376-.938-0.375l0.188-2.766a0.743,0.743,0,0,1,.7-0.891A27.769,27.769,0,0,0,254,90.711q0.843-.281.844,0.422a18.378,18.378,0,0,0,.844,5.719,2.355,2.355,0,0,0,1.5,1.547,6.452,6.452,0,0,0,.937.469,25.15,25.15,0,0,0,5.625.984,11.345,11.345,0,0,0,4.969-.375q2.063-.984,1.359-2.859a29.466,29.466,0,0,1-1.125-5.625,1.607,1.607,0,0,0-.891-1.266,0.866,0.866,0,0,0-1.031.375,3.038,3.038,0,0,0-.422,1.266,15.891,15.891,0,0,1-1.031,3.75,1.317,1.317,0,0,1-.844.656,10.815,10.815,0,0,1-4.172.141,3.6,3.6,0,0,1-1.828-.609,12.8,12.8,0,0,1-.609-3.844,1.179,1.179,0,0,1,.7-1.266q3.047-1.03,5.11-1.922,0.843-.281,1.64-0.469a1.3,1.3,0,0,0,.656-1.922,7.442,7.442,0,0,0-1.546-1.969q-1.453-1.5-2.719-.469a0.753,0.753,0,0,0-.188.469,1.858,1.858,0,0,1-.7,1.359,8.861,8.861,0,0,1-1.922,1.594q-0.937.657-.844-0.094a16.92,16.92,0,0,1,.985-4.406q0.28-2.015-2.906-3.422-1.314-.609-1.875,0a1.269,1.269,0,0,0-.282,1.828,5.767,5.767,0,0,1,.657,3.328,24.642,24.642,0,0,0-.094,3.328c0,0.5-.251.656-0.75,0.469a7.858,7.858,0,0,0-3.8.422q-0.984.281-.984-0.469a6.356,6.356,0,0,1,.187-1.547,1.593,1.593,0,0,0-.8-1.828q-1.875-1.734-3.281-1.312-1.453.61-.516,2.063a17.342,17.342,0,0,1,.844,8.3,7.53,7.53,0,0,1-.844,3.75,10.97,10.97,0,0,0-1.078,1.594q-0.328.8-.984,0.422l-1.078-.375a1.225,1.225,0,0,1-.938-1.125q0-1.593.094-3.094a1.032,1.032,0,0,1,.75-1.031,15.2,15.2,0,0,0,2.3-.75,1.606,1.606,0,0,0,.937-1.266,1.41,1.41,0,0,0-.984-1.172A4.588,4.588,0,0,0,242,89.914q-0.984.047-.984-0.656a31.5,31.5,0,0,1,.937-6.187,1.676,1.676,0,0,0-.187-2.344q-0.939-.7-3.282-2.25a2.086,2.086,0,0,0-1.781-.047,1.648,1.648,0,0,0-.891,1.266h0Zm16.36,19.594q0.093,1.312-1.5,4.594a1.249,1.249,0,0,1-.8.89,1.391,1.391,0,0,1-.7-0.187q-1.923-1.407-2.813-.609a0.82,0.82,0,0,0-.375.89,13.1,13.1,0,0,1,.938,2.813,27.753,27.753,0,0,1,.375,7.078,8.9,8.9,0,0,0,.281,3,4.066,4.066,0,0,0,1.313,1.969q1.5,1.03,2.062-.844a0.951,0.951,0,0,1,.844-0.891,44.343,44.343,0,0,1,5.2-.422,1.5,1.5,0,0,1,1.453.7l1.641,2.907a1.3,1.3,0,0,0,1.875.187,4.895,4.895,0,0,0,1.687-2.719,14.738,14.738,0,0,0,.469-4.593q-0.141-1.687-.094-4.5a8.005,8.005,0,0,1,.61-2.86q1.17-1.546-.75-2.672a14.342,14.342,0,0,0-2.813-1.64,1.718,1.718,0,0,0-1.406-.094,23.673,23.673,0,0,1-4.641,1.547q-0.937.188-.187-0.563l1.031-1.078a7.527,7.527,0,0,1,.8-0.7q1.734-1.593-.094-2.672a5.879,5.879,0,0,0-3.75-.891q-0.984.7-.656,1.359h0Zm7.875,7.594a58.438,58.438,0,0,1-.328,7.453q-0.094.938-1.031,0.281a3.047,3.047,0,0,0-2.344-.422q-2.25.47-4.453,0.844-0.939.141-.985-0.609v-0.7a0.872,0.872,0,0,1,.75-1.032q2.484-.373,4.922-0.7a4.029,4.029,0,0,0,1.875-.469,0.9,0.9,0,0,0,.469-0.937,1.507,1.507,0,0,0-.422-0.844,2.832,2.832,0,0,0-1.406-.844,3.661,3.661,0,0,0-1.782-.093,27.1,27.1,0,0,0-3.515.8q-0.939.328-.938-0.422a4.372,4.372,0,0,0,.047-0.61,0.991,0.991,0,0,1,.8-1.078q3.938-.843,7.594-1.5a0.832,0.832,0,0,1,.75.891h0ZM297.219,79.93a2.32,2.32,0,0,0,.515,1.641,8.747,8.747,0,0,1,1.313,3.75q-0.048,2.485.094,4.969a1.235,1.235,0,0,1-.844.281q-3.845.7-7.735,1.453a11.945,11.945,0,0,0-1.593.328q-0.844.469-.516,1.078a2.334,2.334,0,0,0,.75.891,3.858,3.858,0,0,0,3.75.7q1.5-.468,3.516-0.937,0.843-.141.562,0.563a45.538,45.538,0,0,1-9.7,13.641q-0.75.75-.75-0.234a62.481,62.481,0,0,1,.516-10.407,2.019,2.019,0,0,0-.516-1.687l-0.656-.7a1.154,1.154,0,0,1-.188-1.687,60.882,60.882,0,0,0,4.313-6.328,10.386,10.386,0,0,1,1.5-1.828q1.311-1.969-1.359-3.8-2.016-1.5-3.329-.937a1.41,1.41,0,0,0-.609.891,3.625,3.625,0,0,0,.234,1.453,2.754,2.754,0,0,1,.188,1.031q-2.812,7.5-11.016,16.828a1.04,1.04,0,0,0,0,1.125,1.449,1.449,0,0,0,1.172.328q2.063-.516,5.156-4.219,0.75-.89.938-0.047l0.187,1.125a38.961,38.961,0,0,1-1.125,13.547,5.3,5.3,0,0,0,1.5,5.156q1.548,1.172,2.485-.984a8.628,8.628,0,0,0,.562-3.141q-0.046-1.077,0-2.156a0.579,0.579,0,0,1,.657-0.7,2.8,2.8,0,0,0,1.593-.656q3.657-2.062,7.453-7.36,1.407-2.014,2.3-3.562,0.516-.937.516-0.187Q299,102.617,299,106.039a0.971,0.971,0,0,1-.844,1.031l-2.625.328q-1.219.141-1.687,0.235a1.634,1.634,0,0,0-1.032.844,1.885,1.885,0,0,0,.8,1.312,4.08,4.08,0,0,0,2.157.75,5.272,5.272,0,0,0,2.062-.328q0.889-.141.8,0.7a31.46,31.46,0,0,1-.609,3.094,7.067,7.067,0,0,0,.468,5.625,3.535,3.535,0,0,0,1.125,1.64,0.963,0.963,0,0,0,1.172-.14,6.339,6.339,0,0,0,1.594-5.578q-0.094-2.673-.094-5.344a0.823,0.823,0,0,1,.75-0.891l1.969-.281a6.283,6.283,0,0,0,1.875-.375q1.688-.89.094-2.109a4.277,4.277,0,0,0-3.75-.657q-0.939.141-.938-0.609l0.047-6.937q0-.8.61,0.188,2.906,4.548,6.187,8.906a3.646,3.646,0,0,0,1.828,1.219,44.957,44.957,0,0,0,8.109.375,2.63,2.63,0,0,0,.657-0.422q0.749-1.077-.891-1.828a33.938,33.938,0,0,1-9.375-5.719q-2.812-3-6.187-7.265-0.657-.8.093-0.891,2.625-.375,5.3-0.516a18.342,18.342,0,0,0,4.172-.375q2.063-.468.656-2.25a6.478,6.478,0,0,0-6.328-1.125l-3.75.844q-0.937.235-.937-0.516a19.627,19.627,0,0,1,1.078-6,1.327,1.327,0,0,0-.469-1.828,27.033,27.033,0,0,0-2.812-1.875,2.146,2.146,0,0,0-2.766.234,0.982,0.982,0,0,0-.281.422h0Zm51.047,0.047q0.468,3.985-2.86,8.438-0.7.938-1.312,1.875a1.385,1.385,0,0,0-.235,1.453q0.141,0.469,1.079.328a4,4,0,0,0,1.828-1.125A19.994,19.994,0,0,0,350,87.336a1.079,1.079,0,0,1,1.125-.656q0.609,0.141.047,0.234a0.977,0.977,0,0,0-.656.656,1.261,1.261,0,0,0,.468,1.453,30.252,30.252,0,0,0,3.657,2.484q0.936,0.422.093,0.563a16.536,16.536,0,0,0-2.109.563q-4.969,1.079-7.5,1.406a2.475,2.475,0,0,0-1.219.281,1.064,1.064,0,0,0,.047,1.641,4.2,4.2,0,0,0,1.875,1.125,4.858,4.858,0,0,0,3.047-.422,17.339,17.339,0,0,1,5.437-1.078,2.815,2.815,0,0,1,.985.281,12.987,12.987,0,0,1,.281,1.5,120.33,120.33,0,0,1,.234,17.578,0.9,0.9,0,0,1-.89.938l-2.11-.469a2.865,2.865,0,0,0-1.218-.094,0.971,0.971,0,0,0-.75.891,1.076,1.076,0,0,0,.468.937,32.426,32.426,0,0,1,3.8,3.188l0.563,0.609q2.25,2.3,3.516-.093a13.235,13.235,0,0,0,1.031-6.563q-0.657-9.186-.61-16.125a6,6,0,0,1,.7-2.391,1.813,1.813,0,0,0-.984-2.344L357.5,92.3c-0.562-.218-0.766-0.437-0.609-0.656a3.28,3.28,0,0,0-1.36-3.984A7.2,7.2,0,0,0,353.7,87.1q-0.75-.141-0.047-0.234a8.167,8.167,0,0,0,1.219-.187l5.625-1.5a1.553,1.553,0,0,0,1.125-.562q0.984-1.125-.422-1.969a5.477,5.477,0,0,0-4.781-.094,20.806,20.806,0,0,1-3.563,1.078q-0.937.141-.515-0.609,0.468-.89.984-1.781,0.656-1.312-.89-2.2a5.042,5.042,0,0,0-3.188-.984,1.347,1.347,0,0,0-.984,1.922h0ZM333.875,81.57q0.656,3.656-2.859,7.688-0.845.938-1.594,1.875a1.367,1.367,0,0,0-.281,1.734,2.534,2.534,0,0,0,2.484-.469,20.686,20.686,0,0,0,3.7-3.281q0.75-.89.656-0.516a2.065,2.065,0,0,0,1.032,1.734,16.846,16.846,0,0,1,1.875,1.453,3.393,3.393,0,0,0,1.875,1.125,1.462,1.462,0,0,0,1.734-1.453,3.029,3.029,0,0,0-1.266-2.719,10.585,10.585,0,0,0-3.75-1.125,2.743,2.743,0,0,0-.937.094q-0.236.094,0-.234a0.861,0.861,0,0,1,.937-0.094,8.89,8.89,0,0,0,4.078-.375q0.938-.281,1.876-0.469a11.35,11.35,0,0,0,1.874-.469q1.689-1.03.376-2.156a3.487,3.487,0,0,0-2.86-.609,26.763,26.763,0,0,0-3.516.984q-0.937.188-.515-0.375,1.03-1.734-1.641-3.047a4.43,4.43,0,0,0-1.64-.562,1.791,1.791,0,0,0-1.313.422,2.484,2.484,0,0,0-.328.844h0Zm1.969,13.313a27.016,27.016,0,0,0,2.156,2.2q1.688,1.5,2.812.375,0.938-.937.141-2.812a3.1,3.1,0,0,0-1.687-1.406,13.372,13.372,0,0,0-2.813-.984,0.934,0.934,0,0,0-.984.516,1.75,1.75,0,0,0,.375,2.109h0Zm-4.688.75a3.4,3.4,0,0,0,.375,1.078,10.752,10.752,0,0,1,.563,2.813,48.672,48.672,0,0,1-.047,9.282,50.45,50.45,0,0,0-1.219,7.453,4.346,4.346,0,0,0,.469,2.156q0.889,1.781,2.062,1.266a2.712,2.712,0,0,0,1.079-1.266,15.431,15.431,0,0,0,1.078-5.625,96.388,96.388,0,0,1,.8-15.141,2.407,2.407,0,0,0-1.453-2.156,6.588,6.588,0,0,0-1.875-.937,1.635,1.635,0,0,0-1.453.281,1.443,1.443,0,0,0-.375.8h0Zm10.828,4.406a1.418,1.418,0,0,1-.937-0.141,3.531,3.531,0,0,0-1.875-.516,1.073,1.073,0,0,0-.7,1.64q1.452,3.33.328,8.625-0.657,1.08.281,3.235,1.407,2.438,2.578.609a1.43,1.43,0,0,1,1.125-1.031q1.546-.234,3.094-0.422a1.353,1.353,0,0,1,1.313.609,20.642,20.642,0,0,1,1.218,2.016,1.424,1.424,0,0,0,1.782.656,4.3,4.3,0,0,0,1.64-2.718,15.55,15.55,0,0,0,.141-4.782,18.107,18.107,0,0,1,.234-5.718q0.889-1.125-.562-2.3a7.122,7.122,0,0,0-1.875-1.078,2.09,2.09,0,0,0-2.2-.234,38.778,38.778,0,0,1-5.578,1.547h0Zm5.766,1.594c0.344-.094.546,0.172,0.609,0.8a33.73,33.73,0,0,1-.14,6.328q-0.094.938-.844,0.469a6.977,6.977,0,0,0-4.031.187q-0.939.282-.938-0.469v-0.656a0.816,0.816,0,0,1,.8-0.844q1.079-.234,2.156-0.375a8.191,8.191,0,0,0,1.875-.328,1.01,1.01,0,0,0,.938-1.078q-0.75-1.873-3.281-1.641a5.891,5.891,0,0,0-1.5.375q-0.939.329-.938-0.421V103.6a1.029,1.029,0,0,1,.891-1.032l3.047-.656a2.118,2.118,0,0,0,1.125-.375,0.167,0.167,0,0,0,.234.094h0Z"/>
</svg>
