<svg xmlns="http://www.w3.org/2000/svg" width="1540" height="1450" viewBox="0 0 1540 1450">
  <defs>
    <style>
      .cls-1 {
        fill: #fdfdfd;
      }

      .cls-1, .cls-2, .cls-3 {
        fill-rule: evenodd;
      }

      .cls-2 {
        fill: #fefefe;
      }

      .cls-3 {
        fill: #fff;
      }
    </style>
  </defs>
  <path id="字体名称" class="cls-1" d="M180.633,331.074q13.319-9.357,20.79-25.92t7.47-37.44q0-20.879-7.47-37.53t-20.79-26.01a51.628,51.628,0,0,0-30.42-9.36,51.614,51.614,0,0,0-30.42,9.36q-13.323,9.361-20.7,26.01t-7.38,37.53q0,20.883,7.38,37.44t20.7,25.92a51.614,51.614,0,0,0,30.42,9.36A51.628,51.628,0,0,0,180.633,331.074Zm-54.09-9.9q-10.353-7.737-16.02-21.6t-5.67-31.86q0-18,5.67-31.95t16.02-21.6a40.444,40.444,0,0,1,47.34,0q10.349,7.653,16.11,21.6t5.76,31.95q0,18-5.76,31.86t-16.11,21.6A40.063,40.063,0,0,1,126.543,321.174ZM312.3,217.224a36.742,36.742,0,0,0-15.12-15.12,47.126,47.126,0,0,0-22.77-5.31h-41.4v141.66h13.14v-55.08h28.26a46.466,46.466,0,0,0,22.77-5.4,37.289,37.289,0,0,0,15.12-15.21A51.475,51.475,0,0,0,312.3,217.224Zm-16.56,46.17q-8.37,8.463-22.95,8.46H246.15v-63.54h26.64q14.58,0,22.95,8.46t8.37,23.22Q304.11,254.937,295.74,263.394Zm123.3-46.17a36.742,36.742,0,0,0-15.12-15.12,47.126,47.126,0,0,0-22.77-5.31h-41.4v141.66h13.14v-55.08h28.26a46.466,46.466,0,0,0,22.77-5.4,37.289,37.289,0,0,0,15.12-15.21A51.475,51.475,0,0,0,419.038,217.224Zm-16.56,46.17q-8.37,8.463-22.95,8.46h-26.64v-63.54h26.64q14.58,0,22.95,8.46t8.37,23.22Q410.848,254.937,402.478,263.394Zm128.607,67.68q13.319-9.357,20.79-25.92t7.47-37.44q0-20.879-7.47-37.53t-20.79-26.01a54.113,54.113,0,0,0-60.84,0q-13.323,9.361-20.7,26.01t-7.38,37.53q0,20.883,7.38,37.44t20.7,25.92A54.112,54.112,0,0,0,531.085,331.074Zm-54.09-9.9q-10.351-7.737-16.02-21.6t-5.67-31.86q0-18,5.67-31.95t16.02-21.6a40.444,40.444,0,0,1,47.34,0q10.349,7.653,16.11,21.6t5.76,31.95q0,18-5.76,31.86t-16.11,21.6A40.063,40.063,0,0,1,477,321.174ZM644.481,256.1q9.539,9.092,31.14,14.13,12.96,3.063,20.34,6.84t10.62,9.27q3.24,5.493,3.24,13.59,0,13.323-8.73,20.97t-24.03,7.65q-13.682,0-22.68-5.94t-13.14-17.64l-11.16,5.22a42.411,42.411,0,0,0,17.28,22.32q12.239,7.918,29.7,7.92,13.677,0,24.12-5.13a37.982,37.982,0,0,0,21.96-35.55q0-16.917-9.9-26.55t-33.12-15.03q-12.243-2.877-18.99-6.3t-9.72-8.19q-2.97-4.767-2.97-12.15,0-12.238,7.56-18.54t22.14-6.3q23.937,0,30.6,19.8l11.34-5.22a35.673,35.673,0,0,0-15.3-19.44q-11.163-7.02-26.82-7.02-19.98,0-31.5,10.08t-11.52,27Q634.941,247.014,644.481,256.1Zm184.679,3.51q0-16.2.54-24.3H818.72q-0.721,5.582-1.08,21.6a39.078,39.078,0,0,0-13.86-17.46,38.892,38.892,0,0,0-42.84.63q-9.543,6.75-14.85,18.99t-5.31,27.9q0,15.66,5.31,27.81t14.85,18.9a38.892,38.892,0,0,0,42.84.63,39.2,39.2,0,0,0,13.86-17.28q0.359,15.483,1.08,21.42H829.7q-0.54-8.1-.54-24.48v-54.36Zm-16.47,49.68a35.694,35.694,0,0,1-11.16,15.12,27.68,27.68,0,0,1-32.85,0,35.351,35.351,0,0,1-11.25-15.12,64.025,64.025,0,0,1,0-44.82,35.351,35.351,0,0,1,11.25-15.12,26.587,26.587,0,0,1,16.38-5.4,27.185,27.185,0,0,1,16.56,5.31q7.2,5.311,11.16,15.12a60.053,60.053,0,0,1,3.96,22.59A57.625,57.625,0,0,1,812.69,309.294Zm117.178-66.51q-9.092-9.45-25.47-9.45-12.96,0-22.41,5.67t-14.67,17.01q-0.54-16.019-1.26-20.7h-10.8q0.718,10.8.72,24.3v78.84H868.4v-56.7a44.957,44.957,0,0,1,4.05-19.62,30.333,30.333,0,0,1,28.53-17.82q12.96,0,19.35,6.57t6.39,20.61v66.96h12.24v-68.94Q938.958,252.234,929.868,242.784Zm41.309,36.72q7.739,6.931,24.3,9.81,13.865,2.523,19.443,7.2t5.58,14.04a17.343,17.343,0,0,1-6.48,14.13q-6.48,5.311-17.1,5.31-11.34,0-18-4.5t-9.72-14.22l-10.08,4.32a30.628,30.628,0,0,0,13.05,18.45q9.808,6.389,25.11,6.39a42.926,42.926,0,0,0,18.363-3.78,29.483,29.483,0,0,0,12.6-10.71,28.587,28.587,0,0,0,4.5-15.93q0-13.5-7.92-21.06T999.8,278.514q-13.322-2.337-18.63-6.3t-5.31-11.34q0-8.1,5.58-12.6t15.48-4.5q9.724,0,15.213,3.69t7.47,11.25l10.08-4.5a24.322,24.322,0,0,0-11.16-15.3q-8.82-5.577-21.963-5.58a40.143,40.143,0,0,0-17.1,3.51,28.035,28.035,0,0,0-11.79,9.81,25.227,25.227,0,0,0-4.23,14.4Q963.437,272.576,971.177,279.5Zm219.593-4.23q10.62-5.577,21.51-12.33a259.126,259.126,0,0,0,22.05-15.39v-11.7H1131.55v11.7h82.98a165.378,165.378,0,0,1-16.29,11.25,218.317,218.317,0,0,1-19.71,10.53v12.24h-75.06v11.88h75.06v28.08a48.58,48.58,0,0,1-.27,5.76,5.394,5.394,0,0,1-1.35,3.24,5.824,5.824,0,0,1-3.24,1.44,54.134,54.134,0,0,1-5.94.54,95.14,95.14,0,0,1-10.89.09q-5.13-.27-10.35-0.63l1.98,13.14a99.6,99.6,0,0,0,11.16.09q5.4-.27,12.78-0.99a38.525,38.525,0,0,0,9.09-1.8,13.725,13.725,0,0,0,5.58-3.51,12.46,12.46,0,0,0,2.88-5.76,38.631,38.631,0,0,0,.81-8.55v-31.14h73.08v-11.88h-73.08v-6.3Zm-79.2-73.08v38.16h11.88v-26.46h120.6v26.64h12.06v-38.34h-61.74l-3.06-8.46q-1.8-4.679-3.24-8.46a57.1,57.1,0,0,0-2.88-6.48l-11.88,4.32q0.36,0.9,1.26,2.97t1.98,4.77q1.08,2.7,2.25,5.67t2.25,5.67h-69.48Zm233.28,102.06v11.16h31.68v33.48h11.88v-33.48h31.32v-11.16h-31.32v-80.46h0.18a203.162,203.162,0,0,0,9.63,27.36,234.858,234.858,0,0,0,12.87,25.47,228.118,228.118,0,0,0,14.4,21.78,128.8,128.8,0,0,0,14.04,16.11l9.54-10.26a148.456,148.456,0,0,1-14.76-15.57,192.935,192.935,0,0,1-14.04-19.35,222.29,222.29,0,0,1-12.33-22.05,191.493,191.493,0,0,1-9.63-23.49h43.38v-11.16h-53.28v-32.94h-11.88v32.94h-49.14v11.16h37.98a203.248,203.248,0,0,1-9.36,23.76,220.894,220.894,0,0,1-11.88,22.05,201.268,201.268,0,0,1-13.77,19.71,176.284,176.284,0,0,1-14.85,16.56v-81.9q4.14-9.357,7.74-19.44t7.02-20.88l-12.24-3.6q-3.42,11.88-7.83,23.76t-9.63,23.4q-5.22,11.522-11.07,21.96t-11.43,19.08l9.9,7.02a308.877,308.877,0,0,0,15.84-26.82v98.82h11.7v-40.32l9.18,8.46a186.262,186.262,0,0,0,15.57-18.72,229.437,229.437,0,0,0,14.4-22.32,243.144,243.144,0,0,0,12.24-24.75,229.671,229.671,0,0,0,9.27-25.83h0.36v80.46h-31.68Z"/>
  <path id="中文示例" class="cls-2" d="M339.147,697.037h-37.5v37.7a122.676,122.676,0,0,1-1.05,17.75,40.457,40.457,0,0,1-3.05,11.15,42.854,42.854,0,0,1-6.6,10.25,74.856,74.856,0,0,1-8.2,8.051l4.6,4.7a82.4,82.4,0,0,0,8.9-9.1,50.612,50.612,0,0,0,7.4-12.3,38,38,0,0,0,1.9-5.5,53.964,53.964,0,0,0,1.3-6.8h26.1v18.2q0,2.9-1,3.85t-4,1.15a48.183,48.183,0,0,1-5.75.05q-2.55-.15-5.15-0.351l1.2,6.8q3.1,0.2,6.05.1t6.95-.6q4.3-.5,6.1-2.6t1.8-7v-75.5Zm-78.2,2.2v68.2h29.6v-68.2h-29.6Zm47,4.1h25v18.7h-25v-18.7Zm0,24.9h25v18.1h-25.3q0.3-4.2.3-9.1v-9Zm-41,32.5v-25h17.7v25h-17.7Zm0-55h17.7v23.6h-17.7v-23.6Zm163.7-9.4h-59.1v38.9a135.078,135.078,0,0,1-.8,15.85,58.208,58.208,0,0,1-2.6,11.9,44.92,44.92,0,0,1-4.65,9.7,72.98,72.98,0,0,1-7.05,9.15l5.5,4.5a64.421,64.421,0,0,0,10.1-15.251,65.567,65.567,0,0,0,5.2-18.35h46.8v17.5a15.984,15.984,0,0,1-.2,2.85,3.332,3.332,0,0,1-.75,1.651,2.87,2.87,0,0,1-1.65.8,24.892,24.892,0,0,1-2.9.3q-3.4.2-6.45,0.15t-6.55-.449l1.2,7.2q3.7,0.2,7.75.1a65.442,65.442,0,0,0,7.55-.6q4.7-.7,6.6-2.75t2-7.05v-76.1Zm-52.4,6.4h45.8v18.7h-45.8v-18.7Zm0,25.1h45.8v18.3h-46.2q0.2-2.3.3-4.65t0.1-4.95v-8.7Zm119-37.3v37.6h-25v-28.2h-6.6v34.7h31.6v40.5h-27.8v-31.8h-6.6v38.5h75.6v-38.7h-6.7v32h-28v-40.5h31.7v-34.7h-6.5v28.2h-25.2v-37.6h-6.5Zm62.5,94.7q17.5-9.2,27.5-19.55t13.8-22.051a58.263,58.263,0,0,0,11,19.9,81.717,81.717,0,0,0,12.45,11.5,100.517,100.517,0,0,0,17.25,10.3l3.8-6.2q-17.3-7.7-27.35-18.65a60.924,60.924,0,0,1-14.05-26.05h39.5v-6.2h-40.2v-23.5h34.7v-6h-75.7v6h34.2v23.5h-39.8v6.2h39.3q-1.9,13.1-11.95,24.449t-28.75,20.65Zm137.7-93.2v81.7h-27.8v-65.4h-6.5v72.2h74.9v-72.2h-6.5v65.4h-27.7v-81.7h-6.4Zm89.7,52.3q4.1-1.6,7.85-3.2t7.25-3.4v30.3a44.326,44.326,0,0,0,.4,6.7,6.8,6.8,0,0,0,1.75,3.85,7.3,7.3,0,0,0,3.8,1.85,46.152,46.152,0,0,0,6.65.7q1,0,3.05.05t4.7,0.1q2.649,0.05,5.75.051h18.3q5.3,0,7.5-.2,3.6-.3,5.85-0.7a9.9,9.9,0,0,0,3.7-1.35,5.67,5.67,0,0,0,2.15-2.65,22.615,22.615,0,0,0,1.2-4.6q0.2-1.8.45-3.95t0.45-5.149l-6.6-2.2q-0.1,2.1-.2,3.951t-0.3,3.749q-0.2,2.1-.4,3.35a3.358,3.358,0,0,1-.85,1.9,3.677,3.677,0,0,1-1.95.9q-1.3.247-3.7,0.45-0.8.1-2.7,0.15t-4.55.05H828.6q-2.95,0-5.4-.05t-4.2-.1q-1.75-.051-2.55-0.049a37.333,37.333,0,0,1-4.25-.35,3.922,3.922,0,0,1-2.3-1.05,4.261,4.261,0,0,1-.95-2.451,39.814,39.814,0,0,1-.2-4.549v-24.6h38.9q0,2.8-.1,5.351t-0.4,5.35a18.3,18.3,0,0,1-.4,1.9,1.859,1.859,0,0,1-.85,1.1,4.447,4.447,0,0,1-1.95.5q-1.3.1-3.6,0.2-3.1.1-7.2,0t-7.2-.3l1.2,6.7q3.8,0.2,8.1.15t8.1-.349a40.839,40.839,0,0,0,5.25-.75,6.778,6.778,0,0,0,3.1-1.5,5.542,5.542,0,0,0,1.6-2.7,29.492,29.492,0,0,0,.75-4.35q0.4-5,.55-8.8t0.15-8.3q4.3,2.2,8.75,4.1t9.55,3.7l3.2-6.8a148.606,148.606,0,0,1-24.5-10.5,107.363,107.363,0,0,1-10.15-6.4,52.631,52.631,0,0,1-7.65-6.6h-7.6a95,95,0,0,1-17.9,13.151,141.8,141.8,0,0,1-24.7,11.149Zm56.6-53.7v9.9h-27.4v-9.9h-6.4v9.9h-23.9v6h23.9v9.6h6.4v-9.6h27.4v9.6h6.4v-9.6h23.8v-6h-23.8v-9.9h-6.4Zm4.5,41.8q1.5,0.9,3.05,1.75t3.15,1.649h-48.6a108.523,108.523,0,0,0,24.3-17.2,84.884,84.884,0,0,0,18.1,13.8h0Zm64.8-1.6v6h6.1v43.2h50.9v-6.2h-44.1v-37h48.2v-6h-24.9q-0.7-1.6-1.65-3.5t-2-3.8q-1.05-1.9-2.05-3.649t-1.8-3.151l-5.4,2.9q1.4,2.4,3.05,5.349t3.05,5.85h-29.4Zm30.6-40.3v11.1h-25.7v-11.1h-6.4v11.1h-25.2v6h25.2v10h6.4v-10h25.7v9.2h6.4v-9.2h23.6v-6h-23.6v-11.1h-6.4Zm-49.5,93.5q1.6-2.1,3.75-5.45t4.4-7.1q2.25-3.75,4.3-7.5t3.45-6.651l-5.4-3.2q-1.2,2.7-3.15,6.2t-4.2,7.1q-2.25,3.6-4.5,6.95t-4.15,5.85Zm-9-46.1q1.8,0.9,4.2,2.349t5.3,3.45q2.9,2,5.2,3.65t3.9,2.95l3.2-5.5a86.305,86.305,0,0,0-9.3-6.6,90.1,90.1,0,0,0-9.6-5.7Zm5.9-17.1a44.6,44.6,0,0,1,4,2.2q2.3,1.4,5.2,3.3t5.1,3.5q2.2,1.6,3.7,2.9l3-5.4q-1.6-1.2-3.8-2.7t-5.1-3.4a101,101,0,0,0-9.2-5.6Zm100.1,56.2q17.106-.7,34.3-1.7t34-2.3q1.5,2.3,2.85,4.351c0.9,1.365,1.71,2.682,2.45,3.95l6-4.6q-2.4-3.7-6-8.6t-7.5-9.949q-3.9-5.049-7.65-9.551t-6.55-7.5l-5.1,4.1q3.495,3.8,8,9.5t9,11.9c-3.14.335-6.55,0.635-10.25,0.9s-7.69.568-11.95,0.9q-7.8.5-15.25,0.849t-14.65.551a150.594,150.594,0,0,0,15.3-19.6q3.69-5.4,6.55-10t5.05-8.8h44v-6.5h-87.7v6.5h35.4a145.248,145.248,0,0,1-10.6,17.2q-3.9,5.7-7.3,10.051a96.835,96.835,0,0,1-6.7,7.75,16.51,16.51,0,0,1-3.2,2.65,7.659,7.659,0,0,1-3.8,1.249Zm3-79.6v6.6h71.5v-6.6h-71.5Zm117.3,71.8h45.4a20.1,20.1,0,0,1-.85,4.25,5.185,5.185,0,0,1-1.55,2.35,5.51,5.51,0,0,1-2.65,1.051,40.163,40.163,0,0,1-4.25.349c-1.54.066-3.45,0.066-5.75,0s-4.29-.167-5.95-0.3l1.1,6.8h2.9c1.13,0,2.31-.018,3.55-0.05s2.46-.068,3.7-0.1a29.67,29.67,0,0,0,3.25-.25,36.444,36.444,0,0,0,6-1.1,8.05,8.05,0,0,0,6-6.05,33.541,33.541,0,0,0,1-6.35v-0.6h9.9v-6.3h-9.4l0.6-11.7c0-.8.01-1.65,0.05-2.549s0.08-1.883.15-2.951h10.6v-6.2h-10.5l0.3-22.5h-48l-2.5,22.5h-9.5v6.2h8.9Zm46.4-11.7c-0.14,1.867-.27,3.667-0.4,5.4h-39.1l1.8-17.2h38.3c0,1.135-.02,2.185-0.05,3.15s-0.09,1.85-.15,2.651Q1158.04,754.739,1157.85,757.538Zm-35.2-34.5h36.2l-0.2,16.5h-37.8Zm-11.7,1q3.09-3.5,5.95-7.349t5.65-8.25l1-1.6h49.1v-5.9h-45.6c0.8-1.466,1.56-2.9,2.3-4.3s1.46-2.865,2.2-4.4l-6.1-2.4q-1.6,3.7-3.6,7.5t-4.6,7.8a91.719,91.719,0,0,1-5.6,7.7q-3,3.7-5.9,6.8Zm-19.1,60q2.895-6.4,6.9-17.9,1.995-5.8,3.4-10.7t2.2-8.6l-5.9-1.8a169.11,169.11,0,0,1-5.6,18.8,161.493,161.493,0,0,1-7.2,17.8Zm-8.3-62.7c1.2,0.735,2.56,1.668,4.1,2.8s3.26,2.467,5.2,4,3.61,2.917,5.05,4.149a48.766,48.766,0,0,1,3.65,3.45l3.9-5.4a92.6,92.6,0,0,0-8.9-7.5,86.271,86.271,0,0,0-9.3-6.6Zm4.8-23q1.8,1.1,4.05,2.8c1.5,1.135,3.21,2.468,5.15,4s3.65,2.935,5.15,4.2,2.75,2.4,3.75,3.4l3.8-5q-1.5-1.5-3.75-3.45t-5.15-4.15q-2.91-2.2-5.2-3.9-2.31-1.7-4-2.8Zm41.3,52.7q1.29,0.9,3,2.2,1.695,1.3,3.9,3a61.211,61.211,0,0,1,6.6,5.7l3.5-4.9q-1.2-1.1-2.85-2.5c-1.1-.933-2.39-1.966-3.85-3.1a76.681,76.681,0,0,0-6.9-5.1Zm1.9-23q1.29,0.8,3,2t3.8,2.9a75.251,75.251,0,0,1,6.4,5.5l3.5-4.9c-0.74-.665-1.65-1.432-2.75-2.3s-2.35-1.832-3.75-2.9q-2.1-1.7-3.8-2.9t-3-2Zm79.4-10v49.1h37.9v-49.1h-37.9Zm5.3-20v6.5h46.2v65.5a20.735,20.735,0,0,1-.2,3.2,3.57,3.57,0,0,1-.8,1.849,3.061,3.061,0,0,1-1.8.851,29.369,29.369,0,0,1-3.1.3,111.285,111.285,0,0,1-12.1-.3l1.1,7.6c2.06,0.065,4.3.082,6.7,0.05a66.968,66.968,0,0,0,7.5-.55,20.271,20.271,0,0,0,4.6-.95,6.03,6.03,0,0,0,2.85-2.051,8.908,8.908,0,0,0,1.5-3.6,28.746,28.746,0,0,0,.45-5.6v-72.8h-52.9Zm-25.4,11.4v74.4h6.5v-74.4h-6.5Zm26.5,51.5v-15.6h25.1v15.6h-25.1Zm0-36.7h25.1v15.1h-25.1v-15.1Zm-24.9-28.8q1.8,1.7,3.9,3.849t4.15,4.4q2.04,2.25,3.95,4.4c1.26,1.434,2.4,2.749,3.4,3.949l4.8-4.9c-0.27-.332-0.8-0.932-1.6-1.8s-1.72-1.833-2.75-2.9-2.14-2.2-3.3-3.4-2.29-2.332-3.35-3.4-2.02-2-2.85-2.8-1.42-1.333-1.75-1.6Zm-921.3,264.3q5.5-1.9,10.15-3.6t8.75-3.3q4.1-1.6,7.95-3.25t7.65-3.45l-2-7q-7.8,4-13.85,6.551a106.333,106.333,0,0,1-10.75,3.949v-37.5h16.3a82.105,82.105,0,0,0,7.5,14,70.213,70.213,0,0,0,10.05,11.851,78.6,78.6,0,0,0,13.1,9.95,109.134,109.134,0,0,0,16.65,8.2l3.5-6.5a112,112,0,0,1-15.35-6.949,70.483,70.483,0,0,1-12-8.3,56.5,56.5,0,0,1-9.15-10.05,71.505,71.505,0,0,1-6.9-12.2h42.4v-6.5h-66.1v-39.2h-6.7v39.2h-17v6.5h17v36.5a3.985,3.985,0,0,1-.9,2.6,9.726,9.726,0,0,1-3,2.2Zm16.8-60.9q6.7-2.5,13.45-5.5t13.05-6.2q6.3-3.2,11.8-6.5t9.6-6.3l-3.8-5q-4.2,3-9.65,6.2t-11.6,6.3q-6.15,3.1-12.75,5.949t-13.1,5.151Zm72.5,60.7a81.178,81.178,0,0,0,9.1-23.6q1.1-5.7,1.7-11.8t0.6-13v-33.5h53.7v38.8q0,6.9.2,12.25t0.6,9.149a57.561,57.561,0,0,0,2.3,12.2,13.968,13.968,0,0,0,3.3,6.25,6.379,6.379,0,0,0,4.5,2.049,5.112,5.112,0,0,0,3.8-2.049q1.8-2.052,3.7-7.85,0.4-1.3.95-3.051t1-3.6q0.45-1.85.85-3.651t0.7-3.2l-5.9-2.9q-0.5,2.4-1.25,5.849t-1.35,5.851q-1.4,5.3-2.5,5.3a1.769,1.769,0,0,1-1.35-1.1,14.141,14.141,0,0,1-1.25-3.8,78.265,78.265,0,0,1-1.3-11.6q-0.4-7.4-.4-19.5v-41.9h-66.9v39.6q0,6.7-.5,12.45a103.554,103.554,0,0,1-1.5,10.85q-1.9,9.8-8.9,22.1Zm16.4-10.5q5.7-6,11.45-13t11.45-15.5a294.7,294.7,0,0,1,16.7,28.3l5.7-3.7q-3.1-6.1-7.65-13.7t-10.85-16.9q4.5-6.9,8.1-13.4t7.3-13.5l-5.8-3.2q-2.9,6-6.25,11.949t-7.35,12.25q-5.2-7.5-9.6-13.3t-8.2-10l-4.6,3.8q7.7,8.8,18.5,25.4l-1.3,2q-5.5,8.1-11.15,15.15t-11.35,13.149Zm83.4,10.8a79.283,79.283,0,0,0,10.95-11.1,44.388,44.388,0,0,0,6.65-11.7,58.361,58.361,0,0,0,3.3-14.151,164.376,164.376,0,0,0,.9-18.449v-24.9h32.6v66a23.3,23.3,0,0,0,.45,5,7.161,7.161,0,0,0,1.5,3.2,6.356,6.356,0,0,0,2.9,1.8,17.01,17.01,0,0,0,4.55.7q1,0.1,2.3.149c0.865,0.033,1.75.051,2.65,0.051s1.8-.018,2.7-0.051,1.683-.084,2.35-0.149a20.42,20.42,0,0,0,4.75-.8,6.593,6.593,0,0,0,2.9-1.75,7.6,7.6,0,0,0,1.6-3,33.683,33.683,0,0,0,.95-4.551q0.4-2.7.7-6.9t0.5-8l-6.6-2q-0.2,4.7-.4,8.45t-0.6,6.85a7.963,7.963,0,0,1-1,3.549q-0.7.952-3.3,1.25-0.8.1-1.9,0.151c-0.734.032-1.5,0.05-2.3,0.05s-1.55-.018-2.25-0.05-1.25-.05-1.65-0.05a8.518,8.518,0,0,1-2.3-.4,2.014,2.014,0,0,1-1.15-1,5.247,5.247,0,0,1-.45-1.9q-0.1-1.2-.1-3.1v-70.1h-46.2v31.5a131.389,131.389,0,0,1-1,17.5,51.375,51.375,0,0,1-3.35,12.9,39.107,39.107,0,0,1-6.3,10.25,79.878,79.878,0,0,1-9.85,9.55Zm100.5-1a106.144,106.144,0,0,0,12.2-12.4,67.524,67.524,0,0,0,8.25-12.6,64.5,64.5,0,0,0,5-13.75,122.541,122.541,0,0,0,2.65-15.649h36.3q-0.6,14.1-1,22.8t-1,13.2a21.174,21.174,0,0,1-.8,4.1,4.35,4.35,0,0,1-1.55,2.25,6.442,6.442,0,0,1-2.9,1q-1.851.251-4.85,0.349-1.5.1-3.45,0.1t-4-.05q-2.05-.049-4.1-0.15t-3.75-.2l1.1,7.3q1.6,0.1,3.95.1t4.85-.05q2.5-.052,4.9-0.2t4.3-.351a41.134,41.134,0,0,0,5.55-1,9.587,9.587,0,0,0,3.7-1.8,7.773,7.773,0,0,0,2.25-3.3,26.938,26.938,0,0,0,1.3-5.5q0.3-2.5.7-6.35t0.7-9.351q0.3-5.5.6-12.7t0.5-16.4h-42.8q0.3-4.4.45-9.151t0.25-10.05h55v-6.2h-88.7v6.2h27.1q-0.3,9.5-.85,17.4a137.12,137.12,0,0,1-1.75,14.6,92.655,92.655,0,0,1-3.1,12.5,57.7,57.7,0,0,1-4.95,11.049,64.742,64.742,0,0,1-7.35,10.151,96.944,96.944,0,0,1-10.2,9.9Zm101.9-29.8v6h34.6v14h-41.7v6.2h89.8v-6.2h-41.7v-14h34.6v-6h-34.6v-12.5h31.9v-45.2h-70.1v45.2h31.8v12.5h-34.6Zm41-18.5v-13.8h25.6v13.8h-25.6Zm-32-13.8h25.6v13.8h-25.6v-13.8Zm57.6-19.4v13.6h-25.6v-13.6h25.6Zm-57.6,0h25.6v13.6h-25.6v-13.6Zm118.3-1v68.6h26.4v-68.6h-26.4Zm26.1,83.6a124.409,124.409,0,0,0,14-12.351,54.826,54.826,0,0,0,14-24.049q6.5,21.5,27.8,35.8l4.2-6.1q-14-8.8-21.05-20.351a57.725,57.725,0,0,1-8.15-26.149c0-.333.016-0.683,0.05-1.05s0.05-.716.05-1.051l0.2-11h-6.5l-0.2,10.8q-0.5,16.1-6.9,27.6a56.334,56.334,0,0,1-8.75,11.6,86.569,86.569,0,0,1-13.35,11.2Zm-20-77.3h14.1v55.7h-14.1v-55.7Zm27.2,26.9q3-5.4,5.55-10.7t4.85-11.2h31.5q-1.9,4.8-3.9,9.25a94.325,94.325,0,0,1-4.5,8.75l5.5,2.5q2.7-4.8,5-10.05t4.4-10.649v-6.2h-35.6q1.2-3.4,2.3-7t2.2-7.5l-6.5-1.3A161.7,161.7,0,0,1,827,887.087a148.651,148.651,0,0,1-9.55,19.151Zm75.8,50.3q22.1-4.6,36.3-10.9l0.3,0.2a103.132,103.132,0,0,0,16,5.7,200.831,200.831,0,0,0,20.8,4.4l2-6.5q-10.3-1.3-18.4-3.05a106.748,106.748,0,0,1-14.1-3.95,80.1,80.1,0,0,0,11.55-7.9,56.394,56.394,0,0,0,9.15-9.4v-5.8h-58.6v5.8h6.5a79.091,79.091,0,0,0,8.75,9.6,75.819,75.819,0,0,0,9.35,7.4q-12.5,4.7-32.1,8.2Zm17.9-74v8.5h-14.1v5.7h14.1v15h39v-15h17.3v-5.7h-17.3v-8.5h-6.3v8.5h-26.4v-8.5h-6.3Zm10.4-18.9q1,2.1,2.15,4.849t2.05,5.151h-38v30.3q0,19.5-2.2,29a69.983,69.983,0,0,1-3.2,10.1,80.591,80.591,0,0,1-5.3,10.8l6,3a103.83,103.83,0,0,0,5.15-10.8,78.985,78.985,0,0,0,3.35-10.3,82.754,82.754,0,0,0,1.95-12.6q0.649-7.4.65-17.3v-26.3h73.7v-5.9h-35q-1.1-2.9-2.4-6.151t-2.5-5.65Zm27,61.5a49.185,49.185,0,0,1-8.55,7.8,72.006,72.006,0,0,1-10.85,6.4,54.689,54.689,0,0,1-9.05-6.149,56.075,56.075,0,0,1-7.85-8.05h36.3Zm-31.1-19v-9.4h26.4v9.4h-26.4Zm68.3-3.7v6.7h34.4v34.2h-40.4v6.7h88.7v-6.7h-41.2v-34.2h35.2v-6.7h-35.2v-25.7h37.2v-6.7h-80.8v6.7h36.5v25.7h-34.4Zm51.8,14.9q1.395,1.5,3.55,4.051t4.35,5.3q2.19,2.751,4.2,5.45,1.995,2.7,3.1,4.5l5.7-4.3q-1.11-1.7-2.8-4.05c-1.14-1.565-2.4-3.215-3.8-4.95s-2.89-3.482-4.45-5.25-3.15-3.449-4.75-5.05Zm74-47.3v6.4h44.9v63.7a27.805,27.805,0,0,1-.2,3.7,4.194,4.194,0,0,1-.85,2.151,3.805,3.805,0,0,1-1.85,1.1,14.856,14.856,0,0,1-3.3.45,41.209,41.209,0,0,1-5.45.05q-3.15-.148-6.35-0.349l1.1,7.6q3.5,0.2,7.45.1a56.17,56.17,0,0,0,7.15-.6q5.19-.7,7.1-3.4c1.26-1.8,1.9-4.768,1.9-8.9v-72h-51.6Zm-26.7,10.5v74.6h6.6v-74.6h-6.6Zm2.4-13.6q3.795,3.2,7.9,7.3a104.648,104.648,0,0,1,7.9,8.9l4.6-4.8q-1.5-1.9-3.45-3.949t-4.1-4.051q-2.16-2-4.35-3.949-2.205-1.952-4.2-3.551Zm95.3,89.8a132.372,132.372,0,0,0,20.25-10.1,56.283,56.283,0,0,0,13.65-11.6,47.6,47.6,0,0,0,3.95-5.4,39.182,39.182,0,0,0,2.95-5.7,50.338,50.338,0,0,0,15.8,19.8q10.59,8.1,26,12.7l2.9-6.6q-16.71-4.5-26.9-13.149a44.118,44.118,0,0,1-14-20.851h39.3v-6.9h-39.7v-19.4h34.7v-6.4h-22.9q1.1-1.2,2.25-2.6c0.76-.933,1.58-1.966,2.45-3.1,1.86-2.332,3.5-4.549,4.9-6.649s2.56-3.916,3.5-5.451l-6.2-3.4a107.374,107.374,0,0,1-8.7,12.7q-2.01,2.6-3.7,4.7c-1.14,1.4-2.2,2.668-3.2,3.8h-44.8v6.4h34.7v19.4h-39.6v6.9h38.7a26.472,26.472,0,0,1-2.6,6.9,63.878,63.878,0,0,1-4.5,7q-4,5.4-12.4,10.8a107.094,107.094,0,0,1-20.5,9.9Zm13.1-91.2a81.445,81.445,0,0,1,6.9,8.3q4.29,5.6,6.3,8.8l5.5-4.3q-1.11-1.7-2.65-3.85-1.56-2.148-3.75-4.75-4.3-5.4-7.1-8.3Z"/>
  <path id="大写字母" class="cls-1" d="M103.408,540.654h5.76L88.648,483.99H83.032l-20.52,56.664h5.4l6.12-17.64H97.288ZM75.76,518.19L85.7,489.462l9.936,28.728H75.76Zm81.863-2.448a14.788,14.788,0,0,0-8.136-5.04,12.7,12.7,0,0,0,6.444-4.572,12.891,12.891,0,0,0,2.34-7.812,14.979,14.979,0,0,0-1.836-7.452,12.723,12.723,0,0,0-5.184-5.076,15.785,15.785,0,0,0-7.6-1.8H123.567v56.664h21.1a17.311,17.311,0,0,0,8.352-1.944,13.938,13.938,0,0,0,5.616-5.508,16.466,16.466,0,0,0,2.016-8.244A14.2,14.2,0,0,0,157.623,515.742ZM142.863,488.6a10.1,10.1,0,0,1,7.308,2.664,10.057,10.057,0,0,1-7.308,17.424h-14.04V488.6h14.04Zm9.36,44.388a11.459,11.459,0,0,1-8.424,3.06H128.823V513.222H143.8a11.459,11.459,0,0,1,8.424,3.06A12.813,12.813,0,0,1,152.223,532.986Zm37.188,0.792a19.587,19.587,0,0,1-6.3-8.64,37.807,37.807,0,0,1,0-25.6,19.608,19.608,0,0,1,6.3-8.6,15.2,15.2,0,0,1,9.4-3.06q11.232,0,13.968,9.936l4.464-2.088a16.389,16.389,0,0,0-6.372-9.072,19.959,19.959,0,0,0-11.988-3.456,20.924,20.924,0,0,0-12.168,3.672,23.772,23.772,0,0,0-8.244,10.3,41.032,41.032,0,0,0,0,30.384,23.527,23.527,0,0,0,8.244,10.26,21.079,21.079,0,0,0,12.168,3.636,19.959,19.959,0,0,0,11.988-3.456,16.389,16.389,0,0,0,6.372-9.072l-4.464-2.016q-2.808,9.936-13.968,9.936A15.2,15.2,0,0,1,189.411,533.778Zm83.087-36.4a22.557,22.557,0,0,0-8.6-9.9,24.577,24.577,0,0,0-13.248-3.492H232.79v56.664h17.856a24.586,24.586,0,0,0,13.248-3.492,22.557,22.557,0,0,0,8.6-9.9A38.844,38.844,0,0,0,272.5,497.382Zm-4.68,27.36a18.229,18.229,0,0,1-6.876,8.244A19.809,19.809,0,0,1,250,535.9H238.046v-47.16H250a19.809,19.809,0,0,1,10.944,2.916,18.229,18.229,0,0,1,6.876,8.244A34.131,34.131,0,0,1,267.818,524.742Zm56.123-36V483.99H292.477v56.664h31.464V535.9H297.733v-22.68h24.552v-4.68H297.733v-19.8h26.208Zm48.24,0V483.99H341.509v56.664h5.256v-26.64H370.6v-4.68H346.765V488.742h25.416Zm58.1,23.472h-17.5v4.68h12.456v2.3q0,8.5-3.672,13.068t-11.088,4.572a15.314,15.314,0,0,1-9.468-3.06,19.6,19.6,0,0,1-6.3-8.6,37.91,37.91,0,0,1,0-25.632,19.6,19.6,0,0,1,6.3-8.6,15.2,15.2,0,0,1,9.4-3.06q11.158,0,14.184,9.936l4.32-2.16a17.009,17.009,0,0,0-6.48-9.036,19.944,19.944,0,0,0-11.952-3.42,20.922,20.922,0,0,0-12.168,3.672,23.772,23.772,0,0,0-8.244,10.3,41.032,41.032,0,0,0,0,30.384,23.527,23.527,0,0,0,8.244,10.26,21.076,21.076,0,0,0,12.168,3.636,20.259,20.259,0,0,0,11.088-2.844,16.969,16.969,0,0,0,6.588-7.776,28.073,28.073,0,0,0,2.124-11.2v-7.416Zm53.567-28.224v24.552H453.108V483.99h-5.256v56.664h5.256v-27.36h30.744v27.36h5.256V483.99h-5.256Zm24.407,0v56.664h5.328V483.99h-5.328ZM552,537.7q3.635-3.744,3.636-10.3V483.99h-5.256v43.488q0,4.536-2.268,6.984a8.35,8.35,0,0,1-6.444,2.448,9.581,9.581,0,0,1-5.508-1.368,8.448,8.448,0,0,1-2.988-4.752l-4.1,1.944a11.379,11.379,0,0,0,4.464,6.48,14.423,14.423,0,0,0,8.352,2.232Q548.363,541.446,552,537.7Zm60.876,2.952-28.008-29.808L610.5,483.99h-6.624L579.4,509.91V483.99h-5.256v56.664H579.4v-28.8l26.64,28.8h6.84ZM631.45,535.9V483.99h-5.256v56.664h30.6V535.9H631.45ZM726.2,483.99h-6.768l-20.088,50.184-20.16-50.184h-6.624v56.664h4.9V493.062l19.152,47.592h5.112l19.224-47.808v47.808H726.2V483.99Zm55.08,0v45.936l-30.6-45.936h-5.832v56.664h4.9V492.27l32.328,48.384h4.1V483.99h-4.9ZM838.592,537.7a24.783,24.783,0,0,0,8.316-10.368,39.114,39.114,0,0,0,0-29.988,24.745,24.745,0,0,0-8.316-10.4,21.645,21.645,0,0,0-24.336,0,24.486,24.486,0,0,0-8.28,10.4,39.555,39.555,0,0,0,0,29.988,24.522,24.522,0,0,0,8.28,10.368A21.645,21.645,0,0,0,838.592,537.7Zm-21.636-3.96a19.867,19.867,0,0,1-6.408-8.64,37.04,37.04,0,0,1,0-25.524,19.59,19.59,0,0,1,6.408-8.64,16.178,16.178,0,0,1,18.936,0,19.849,19.849,0,0,1,6.444,8.64,36.5,36.5,0,0,1,0,25.524,20.133,20.133,0,0,1-6.444,8.64A16.025,16.025,0,0,1,816.956,533.742Zm81.5-41.58a14.688,14.688,0,0,0-6.048-6.048,18.842,18.842,0,0,0-9.108-2.124h-16.56v56.664H872V518.622h11.3a18.587,18.587,0,0,0,9.108-2.16,14.916,14.916,0,0,0,6.048-6.084A20.59,20.59,0,0,0,898.459,492.162Zm-6.624,18.468q-3.348,3.384-9.18,3.384H872V488.6h10.656q5.832,0,9.18,3.384t3.348,9.288Q895.183,507.246,891.835,510.63Zm66.779,17.1a35.7,35.7,0,0,0,3.168-15.372,36.305,36.305,0,0,0-2.988-15.012,24.745,24.745,0,0,0-8.316-10.4,21.645,21.645,0,0,0-24.336,0,24.486,24.486,0,0,0-8.28,10.4,39.555,39.555,0,0,0,0,29.988,24.522,24.522,0,0,0,8.28,10.368,20.648,20.648,0,0,0,12.168,3.744,20.952,20.952,0,0,0,7.416-1.3l5.9,8.208h5.9l-7.632-10.3A24.274,24.274,0,0,0,958.614,527.73Zm-29.772,6.012a19.867,19.867,0,0,1-6.408-8.64,37.04,37.04,0,0,1,0-25.524,19.59,19.59,0,0,1,6.408-8.64,16.178,16.178,0,0,1,18.936,0,19.849,19.849,0,0,1,6.444,8.64,36.5,36.5,0,0,1,0,25.524,20.133,20.133,0,0,1-6.444,8.64A16.025,16.025,0,0,1,928.842,533.742Zm82.838,6.912h6.48l-18-24.48a14.433,14.433,0,0,0,10.4-4.752q3.78-4.32,3.78-11.3,0-7.344-4.14-11.736t-11.267-4.392h-20.3v56.664h5.256v-24.48h10.224ZM983.885,488.6h14.328q5.261,0,8.067,3.06t2.81,8.46q0,5.4-2.81,8.46t-8.067,3.06H983.885V488.6Zm51.195,19.116q3.81,3.636,12.45,5.652a37.037,37.037,0,0,1,8.14,2.736,10.093,10.093,0,0,1,4.25,3.708,11.924,11.924,0,0,1-2.2,13.824q-3.495,3.06-9.61,3.06a16.131,16.131,0,0,1-9.07-2.376,13.52,13.52,0,0,1-5.26-7.056l-4.46,2.088a16.925,16.925,0,0,0,6.91,8.928,21.393,21.393,0,0,0,11.88,3.168,21.635,21.635,0,0,0,9.65-2.052,15.181,15.181,0,0,0,8.78-14.22q0-6.768-3.96-10.62t-13.25-6.012a35.279,35.279,0,0,1-7.59-2.52,9.427,9.427,0,0,1-3.89-3.276,9.075,9.075,0,0,1-1.19-4.86q0-4.9,3.02-7.416t8.86-2.52q9.57,0,12.24,7.92l4.54-2.088a14.317,14.317,0,0,0-6.12-7.776,19.77,19.77,0,0,0-10.73-2.808q-7.995,0-12.6,4.032a13.639,13.639,0,0,0-4.61,10.8A12.732,12.732,0,0,0,1035.08,507.714Zm80.85-23.724h-36v4.752h15.34v51.912h5.33V488.742h15.33V483.99Zm47.52,54.864a18.052,18.052,0,0,0,7.35-7.344,23.044,23.044,0,0,0,2.59-11.16V483.99h-5.26v36.144q0,7.848-4.25,12.276t-11.66,4.428q-7.35,0-11.59-4.428t-4.25-12.132V483.99h-4.97v36.36a23.1,23.1,0,0,0,2.59,11.124,18,18,0,0,0,7.35,7.38A24.849,24.849,0,0,0,1163.45,538.854Zm65.31-54.864-17.79,51.192-17.71-51.192h-5.76l20.52,56.664h5.62l20.52-56.664h-5.4Zm80.49,0-13.03,49.392-13.9-49.392h-5.11l-13.97,49.248-12.89-49.248h-5.54l15.62,56.664h5.26l13.97-49.1,13.89,49.1h5.19l15.77-56.664h-5.26Zm59.98,56.664-18.51-28.512,18.07-28.152h-5.97L1347.84,508.4l-14.97-24.408h-6.34l18,28.08-18.5,28.584H1332l15.48-24.84,15.41,24.84h6.34Zm55.29-56.664h-5.83l-16.2,28.368-16.27-28.368h-6.19l19.58,32.832v23.832h5.33v-23.76Zm19.3,51.912,32.97-48.384V483.99h-37.94v4.752h31.18l-33.05,48.384v3.528h40.17V535.9h-33.33Z"/>
  <path id="logo" class="cls-3" d="M706.266,1194.7a45.969,45.969,0,0,0-.118,5.15v5.16H677.555v-1.17l0.234-.94-1.406-.24c-1.1,0-2.659-.07-4.688-0.23h-3.281l-0.469,2.58a45.646,45.646,0,0,1-1.172,4.92,22.619,22.619,0,0,1-1.406,4.22,7.125,7.125,0,0,0-.82,2.23,6.584,6.584,0,0,0,2.109-.71c1.326-.54,2.615-1.13,3.867-1.76a11.566,11.566,0,0,0,3.516-2.81l1.641-1.64h66.8l1.875,1.88a14.477,14.477,0,0,0,3.75,2.81c1.406,0.62,2.655,1.17,3.75,1.64a1.036,1.036,0,1,0,1.171-1.17,17.1,17.1,0,0,1-1.406-3.99q-0.7-2.34-1.172-4.68a11.9,11.9,0,0,0-.7-3.05c0-.47-1.252-0.62-3.75-0.47-1.875.16-3.281,0.23-4.219,0.23a2.052,2.052,0,0,1-.937.24c-0.315,0-.469.31-0.469,0.94l0.235,0.93-13.594.24q-13.359,0-13.36-.24a2.838,2.838,0,0,1,.7-1.05,6.664,6.664,0,0,0,1.171-2.46,15.728,15.728,0,0,0,.469-4.22v-2.58h-4.687Q706.382,1194.46,706.266,1194.7Zm-31.289,28.12v4.22l21.093,0.23h21.094l-5.859,4.93q-5.4,4.215-8.2,6.56l-2.344,1.87v6.8H660.445v4.22h40.313v14.76c0,10.01-.158,15.47-0.469,16.41a13.152,13.152,0,0,1-1.172,3.05,21,21,0,0,1-2.578,3.04,16.962,16.962,0,0,1-3.75,2.82c-1.406.62-2.109,1.17-2.109,1.64s0.153,0.7.468,0.7a30.375,30.375,0,0,0,3.047-.47,34.353,34.353,0,0,0,4.922-1.4,16.4,16.4,0,0,0,4.688-1.88,11.74,11.74,0,0,0,3.515-2.34,12.264,12.264,0,0,0,2.344-2.58,13,13,0,0,0,1.172-2.58c0.311-.94.469-6.4,0.469-16.41v-14.76h38.2v-4.22h-38.2v-6.8l2.109-1.64q2.109-1.635,8.438-6.79,6.327-5.4,8.437-7.04a13.637,13.637,0,0,0,2.578-2.34q0-.225-28.828-0.23t-29.062.23h0Zm121.64-30.23-0.469,1.87a27.635,27.635,0,0,1-1.523,5.74c-0.861,2.43-1.681,4.65-2.461,6.68q-1.176,2.58-3.281,6.8-1.88,3.75-4.453,8.44-2.11,3.75-4.688,7.73-2.582,4.215-3.047,4.92a7.818,7.818,0,0,0-1.406,2.11c-0.157.47-.117,0.71,0.117,0.71a8.252,8.252,0,0,0,2.227-1.18q1.873-1.17,3.515-2.34,1.874-1.41,3.985-3.28a59.714,59.714,0,0,0,4.453-4.45l2.109-2.35,0.235,14.77,0.234,14.76h1.875a5.862,5.862,0,0,0,3.047-.7,5.457,5.457,0,0,0,1.875-1.17,11.374,11.374,0,0,0,1.406-1.64l0.469-.71h27.187v2.11l0.235,2.11h1.64a7.437,7.437,0,0,0,2.813-.47,9.072,9.072,0,0,0,2.109-1.17,4.666,4.666,0,0,0,1.407-1.64l0.7-.94h31.64v-4.45H838.336v-6.8H868.57v-4.45H838.336v-6.8H868.57v-4.68H838.336v-7.5H868.57v-4.69H837.164l0.938-1.17a23.668,23.668,0,0,0,1.406-2.35,6.445,6.445,0,0,0,.7-2.57,17.74,17.74,0,0,0,.469-4.93v-3.51H828.727v14.53H815.6q-13.129,0-13.125-.23c0-.16-0.158-0.24-0.469-0.24s0.311-1.41,1.875-4.22a69.182,69.182,0,0,0,3.281-7.5,16.732,16.732,0,0,0,1.406-3.98l0.235-1.17H796.617Zm31.406,22.03v7.5H802.477v-7.5h25.546Zm0,12.18v6.8H802.477v-6.8h25.546Zm0,11.25v6.8H802.477v-6.8h25.546Zm-3.515,16.88v5.16l-22.969.23H778.805v4.45h45.7v1.64c0,1.1-.081,1.64-0.235,1.64a40.222,40.222,0,0,1-4.687-1.17q-4.455-1.17-4.922-1.4-0.236,0-6.328,4.68-6.1,4.935-7.734,6.1-1.643.93-4.454,2.58a58.967,58.967,0,0,1-5.39,2.57q-2.812,1.185-5.391,2.23a35.226,35.226,0,0,1-5.859,1.76,17.416,17.416,0,0,0-3.047,1.05,6.06,6.06,0,0,0,1.289,1.06,3.994,3.994,0,0,0,1.992.94c0.469,0,2.344-.32,5.625-0.94s6.328-1.33,9.141-2.11q4.449-1.17,8.2-2.35a22.822,22.822,0,0,0,4.922-2.1q1.637-.945,9.14-6.1t7.618-5.04q0.115,0.12.117,13.48v13.12h1.406a7.357,7.357,0,0,0,2.813-.7,6.692,6.692,0,0,0,3.046-1.99,11.184,11.184,0,0,0,2.11-3.17,8.733,8.733,0,0,0,.586-2.34q0.115-1.17.117-6.33c0.154-4.68.271-7.11,0.352-7.26s1.442,0.55,4.1,2.11q3.982,2.1,6.8,3.51a34.945,34.945,0,0,0,6.328,2.58,54.282,54.282,0,0,0,6.328,1.64,52.974,52.974,0,0,0,5.625.94c1.718,0.16,4.219.23,7.5,0.23a38.521,38.521,0,0,0,5.86-.23,1.37,1.37,0,0,0,1.171-.94l0.235-1.17c0-.15-0.235-0.24-0.7-0.24-0.315,0-1.722-.23-4.219-0.7s-5-1.01-7.5-1.64q-3.516-.93-6.8-2.11-2.812-.93-5.625-2.11-2.346-1.17-10.078-6.33l-7.734-5.15,19.453-.24h19.453v-4.45H854.977l-20.157-.23v-2.58l-0.234-2.58H824.508Z"/>
</svg>
