<svg xmlns="http://www.w3.org/2000/svg" width="400" height="200" viewBox="0 0 400 200">
  <defs>
    <style>
      .cls-1 {
        fill: #fdfdfd;
        stroke: #000;
        stroke-width: 1px;
        fill-rule: evenodd;
      }
    </style>
  </defs>
  <path id="摄图摩登小方体" class="cls-1" d="M54.247,84.041l0.336,13.248-4.08.672,1.1,4.512,16.608-3.5,0.048,3.072,3.648-.48,0.1-3.36,5.424-1.152-0.96-3.36-4.368.72,0.24-10.7,3.072-.048,0.384-4.7-25.68,1.152,0.72,3.984ZM45.7,104.3l4.56-2.688-1.584-3.072L45.7,99.929l-0.048-8.64,3.264-.048,0.24-5.088-3.5.288V79.577L40.615,79l0.144,7.872-5.568.48,0.72,4.128,4.944-.1,0.192,10.7-5.616,2.592,2.3,4.272,3.408-2.016,0.144,7.392-3.072-1.584-2.208,2.64,5.376,4.32v0.048h0.048L45.7,118.7V104.3Zm22.464-9.216-9.648,1.584,0.048-2.832,7.632-.1,0.336-3.264L58.615,91l0.048-1.776,7.536-.048,0.336-3.36-7.824.528,0.048-2.4,9.216-.144ZM63.463,115l-2.544-2.16,2.832-7.152-2.88-2.784-9.792.864,0.432,3.552,1.776-.1L51.511,109l3.792,3.984-5.664,3.7,2.352,3.456,6.048-4.224,2.4,2.5Zm14.064,1.488-3.6-3.408,3.216-7.248-3.264-2.928-9.744.864,0.432,3.552,1.92-.048-1.728,1.536,3.792,4.224-5.76,3.744,2.256,3.36,6.048-4.224,3.5,3.888Zm-18.24-9.648L57.9,110.249l-3.6-3.12Zm12.864,0.384-1.2,2.976-3.072-2.928Zm44.784-27.984-24.96,1.248V79.817l-5.952-.24,0.288,40.272,4.8-.48v-0.624h25.824v0.912l4.7-.336L122.7,81.929ZM91.207,114.617l0.672-29.76,25.056-.288v29.184Zm17.184-16.9,4.9-6-2.976-2.736-7.536.432,0.768-1.152-3.456-2.16-6.048,10.32,2.88,1.92,1.584-2.4,3.408,2.064-8.928,3.552,1.488,3.744,11.28-4.992,8.5,5.088,2.16-3.264Zm-7.728-5.04,6.912-.288L104.887,95.8l-4.608-2.544Zm2.016,11.9,5.808,2.64,1.248-2.4-5.28-3.12Zm-3.5,4.7,9.072,3.36,1.2-2.736-8.784-3.936Zm71.76-21.984,0.528-5.232-14.544.576L153.7,78.281l-3.456,2.736,1.68,1.824-10.752.432V82.649l-5.232-.672,0.1,30.816-3.12,6.1,4.608,1.92,2.688-6.576,0.816-26.544Zm-14.448,2.448-5.376.336,0.1-1.824-3.648-.432,0.048,2.5-5.616.336,0.336,2.928H145.4l-3.5,4.944,2.544,1.968,3.312-5.04,0.144,6.1,2.592-.288,0.336-5.856,2.448,3.7,2.592-2.016-2.736-3.5H156.2Zm15.168,0-5.424.336,0.1-1.824-3.6-.432,0.048,2.5-5.616.336,0.336,2.928h3.024l-4.032,5.472,2.688,2.064,3.744-5.664,0.144,5.28,2.592-.288,0.24-4.752,3.264,4.8L171.8,98.3l-3.7-4.7h3.216Zm-12.24,20.928,9.552-.192,0.336-3.648-9.792.432,0.1-1.776,9.12-.48-0.288-3.984-24.528,2.208,0.288,3.072,10.992-.576v1.728l-10.992.48,0.336,3.024,10.7-.192v1.44l-13.728.288,0.432,3.024,13.344-.048v1.872l-2.736-.624-1.056,2.592,3.84,1.488,3.744-.336,0.192-4.992,11.952-.048,0.336-3.552-12.192.24ZM182.5,100.505l6.048-3.792,0.336,1.44,22.224-.384,0.432-3.5,5.568,6.1,3.792-3.792-6.816-6.864,4.8-3.888-3.456-3.36-4.272,4.368-1.92-1.968,4.176-3.312-3.5-3.36-3.648,3.7L204.2,79.817l-3.216,2.928,9.5,10.368-17.712.96,2.208-1.392,5.616-9.264-4.272-3.456-14.5,1.1L182.791,85l10.944-.24-2.928,5.52-1.392.768-4.272-4.608-3.072,2.112,3.12,4.752-5.376,2.88Zm26.64,11.28-3.168-1.632,1.824-.1v0.672l4.272-.816,1.1-7.584L207.8,98.777l-14.928,1.536V99.737l-5.616-.1,0.912,11.952,4.32-.576v-0.432l1.392-.048-2.976,2.112,2.736,3.84-11.28.528,0.912,3.888,34.512-.432,0.432-5.184-11.232.528Zm-16.416-7.824,15.072-.624v2.832l-15.168.912Zm2.5,6.528,9.312-.288-2.4,5.856-4.272.192Zm51.168,5.04-4.176-.72-1.152,3.36,5.328,2.256,4.464-1.248,0.864-39.984-5.136-.528ZM237.607,89.8l-9.552,18.384,4.7,2.5L241.3,91.817Zm21.984,0.288-3.7,2.016,8.064,18.576,4.7-2.5Zm55.536-.24,0.384-5.232-16.656.48,0.912-.672-3.84-6.1-4.08,2.832,3.312,4.032-17.952.528,0.768,4.32,8.592-.048-1.2,17.184-6.48,10.08,4.512,3.456,6.864-11.616,0.576-7.584,15.984-.624-0.72,15.216-3.84-1.248-1.488,3.168,5.088,2.736,4.512-.432,2.064-21.6-5.376-3.12-15.84.864,0.48-6.48Zm23.52-8.352-4.272-3.12L323.143,94.025l3.5,2.352,2.736-3.408v26.592l4.032-.432,0.96-30.624-1.152-.288Zm22.32,32.352,4.608-2.208-8.688-19.584,5.856-.048,0.432-5.52-10.032.432,0.192-7.68-5.232-.624v8.544l-11.04.48,0.576,4.56,6.384-.048-2.592,9.744-6.96,8.88,4.08,3.216,7.248-10.944,2.3-8.64v14.064L342.3,109l0.672,4.272,5.136-.24v7.68l4.224-.576,0.192-7.3,4.752-.192,0.432-5.088-5.088.48L353,93.449Z"/>
</svg>
