<svg xmlns="http://www.w3.org/2000/svg" width="1540" height="1450" viewBox="0 0 1540 1450">
  <defs>
    <style>
      .cls-1 {
        fill: #fff;
      }

      .cls-1, .cls-2, .cls-3 {
        stroke: #000;
        stroke-width: 1px;
        fill-rule: evenodd;
      }

      .cls-2 {
        fill: #fefefe;
      }

      .cls-3 {
        fill: #fdfdfd;
      }
    </style>
  </defs>
  <path id="字体名称" class="cls-1" d="M161.013,204.134l1.4,55.2-17,2.8,4.6,18.8,69.2-14.6,0.2,12.8,15.2-2,0.4-14,22.6-4.8-4-14-18.2,3,1-44.6,12.8-.2,1.6-19.6-107,4.8,3,16.6Zm-35.6,84.4,19-11.2-6.6-12.8-12.4,5.8-0.2-36,13.6-.2,1-21.2-14.6,1.2v-28.6l-21-2.4,0.6,32.8-23.2,2,3,17.2,20.6-.4,0.8,44.6-23.4,10.8,9.6,17.8,14.2-8.4,0.6,30.8-12.8-6.6-9.2,11,22.4,18v0.2h0.2l17.8-4.4v-60Zm93.6-38.4-40.2,6.6,0.2-11.8,31.8-.4,1.4-13.6-33,2.2,0.2-7.4,31.4-.2,1.4-14-32.6,2.2,0.2-10,38.4-.6Zm-19.6,83-10.6-9,11.8-29.8-12-11.6-40.8,3.6,1.8,14.8,7.4-.4-7.4,7.4,15.8,16.6-23.6,15.4,9.8,14.4,25.2-17.6,10,10.4Zm58.6,6.2-15-14.2,13.4-30.2-13.6-12.2-40.6,3.6,1.8,14.8,8-.2-7.2,6.4,15.8,17.6-24,15.6,9.4,14,25.2-17.6,14.6,16.2Zm-76-40.2-5.8,14.2-15-13Zm53.6,1.6-5,12.4-12.8-12.2Zm186.6-116.6-104,5.2v-2.8l-24.8-1,1.2,167.8,20-2v-2.6h107.6v3.8l19.6-1.4,4.4-155.8Zm-107.2,147.4,2.8-124,104.4-1.2v121.6Zm71.6-70.4,20.4-25-12.4-11.4-31.4,1.8,3.2-4.8-14.4-9-25.2,43,12,8,6.6-10,14.2,8.6-37.2,14.8,6.2,15.6,47-20.8,35.4,21.2,9-13.6Zm-32.2-21,28.8-1.2-11.2,14.2-19.2-10.6Zm8.4,49.6,24.2,11,5.2-10-22-13Zm-14.6,19.6,37.8,14,5-11.4-36.6-16.4Zm299-91.6,2.2-21.8-60.6,2.4-13.4-18.2-14.4,11.4,7,7.6-44.8,1.8v-2.6l-21.8-2.8,0.4,128.4-13,25.4,19.2,8,11.2-27.4,3.4-110.6Zm-60.2,10.2-22.4,1.4,0.4-7.6-15.2-1.8,0.2,10.4-23.4,1.4,1.4,12.2h12.8l-14.6,20.6,10.6,8.2,13.8-21,0.6,25.4,10.8-1.2,1.4-24.4,10.2,15.4,10.8-8.4-11.4-14.6h12.8Zm63.2,0-22.6,1.4,0.4-7.6-15-1.8,0.2,10.4-23.4,1.4,1.4,12.2h12.6l-16.8,22.8,11.2,8.6,15.6-23.6,0.6,22,10.8-1.2,1-19.8,13.6,20,11-9.2-15.4-19.6h13.4Zm-51,87.2,39.8-.8,1.4-15.2-40.8,1.8,0.4-7.4,38-2-1.2-16.6-102.2,9.2,1.2,12.8,45.8-2.4v7.2l-45.8,2,1.4,12.6,44.6-.8v6l-57.2,1.2,1.8,12.6,55.6-.2v7.8l-11.4-2.6-4.4,10.8,16,6.2,15.6-1.4,0.8-20.8,49.8-.2,1.4-14.8-50.8,1Zm96.2-42.4,25.2-15.8,1.4,6,92.6-1.6,1.8-14.6,23.2,25.4,15.8-15.8-28.4-28.6,20-16.2-14.4-14-17.8,18.2-8-8.2,17.4-13.8-14.6-14-15.2,15.4-8.6-8.6-13.4,12.2,39.6,43.2-73.8,4,9.2-5.8,23.4-38.6-17.8-14.4-60.4,4.6,4,16.4,45.6-1-12.2,23-5.8,3.2-17.8-19.2-12.8,8.8,13,19.8-22.4,12Zm111,47-13.2-6.8,7.6-.4v2.8l17.8-3.4,4.6-31.6-22.4-14.8-62.2,6.4v-2.4l-23.4-.4,3.8,49.8,18-2.4v-1.8l5.8-.2-12.4,8.8,11.4,16-47,2.2,3.8,16.2,143.8-1.8,1.8-21.6-46.8,2.2Zm-68.4-32.6,62.8-2.6v11.8l-63.2,3.8Zm10.4,27.2,38.8-1.2-10,24.4-17.8.8Zm213.2,21-17.4-3-4.8,14,22.2,9.4,18.6-5.2,3.6-166.6-21.4-2.2Zm-36.6-107.2-39.8,76.6,19.6,10.4,35.6-78.6Zm91.6,1.2-15.4,8.4,33.6,77.4,19.6-10.4Zm231.4-1,1.6-21.8-69.4,2,3.8-2.8-16-25.4-17,11.8,13.8,16.8-74.8,2.2,3.2,18,35.8-.2-5,71.6-27,42,18.8,14.4,28.6-48.4,2.4-31.6,66.6-2.6-3,63.4-16-5.2-6.2,13.2,21.2,11.4,18.8-1.8,8.6-90-22.4-13-66,3.6,2-27Zm98-34.8-17.8-13-46.8,65.2,14.6,9.8,11.4-14.2v110.8l16.8-1.8,4-127.6-4.8-1.2Zm93,134.8,19.2-9.2-36.2-81.6,24.4-.2,1.8-23-41.8,1.8,0.8-32-21.8-2.6v35.6l-46,2,2.4,19,26.6-.2-10.8,40.6-29,37,17,13.4,30.2-45.6,9.6-36v58.6l-24.2,2.2,2.8,17.8,21.4-1v32l17.6-2.4,0.8-30.4,19.8-.8,1.8-21.2-21.2,2,1.6-60.8Z"/>
  <path id="中文示例" class="cls-2" d="M334.147,704.037l-19.2,1.9v-0.6l-10.2-.8v66.8l-6.2,12.1,9,4.4,6.3-13.6,0.3-19.6h16.2l0.9-8.3-17,1,0.2-12.2h15.9l0.9-8.3-16.7,1,0.3-14,19.3-.3-0.3,62-5.7-2.2-4.3,6.5,10,7.6,9.4-2,2.1-75.5Zm-45,2.2-15.6,2.4v-1l-9.8-1,1.3,70.1,8.2-1.3v-0.9l15.8-.6v1.1l7.9-1.1,2.4-61.1Zm-15.9,59.8,0.1-22.2,12.7-.4,0.4-8.6-13,1.5,0.1-20.2,15.6-1-0.1,49.9Zm150-62.3-31.9,2.1v-0.7l-10.3-.8-0.1,67.1-6.5,11.1,9.5,5.6,6.3-13.6,0.3-18.5h27.4l0.9-9.7-28.2,1.1,0.2-11.4,26,0.1,0.8-9.5-26.7,1,0.3-13.9,32-.3-0.3,62.7-6.1-2.4-4.1,6.3,10.2,7.7,9.5-2,2.2-76Zm107.3,51.9,0.1,19.4-23.1,1,1.2-32.3,18.2-.2v1.4l9.5-.8,2.3-29-11.9-1.3,0.1,18.9-17.8.8,1-28.8-11.8-1.4v30.6l-17.9.9,0.7-19.1-12.4-.9,1.3,31.3,10-.9v-1.2l18.2-.2v32.6l-20,.8,0.7-19.8-12.3-.9,1.1,32,10.1-1v-1.2l52.8-.5v1.5l9.6-.9,2.3-29.5Zm113.6,18.1-35.8-26.8,0.1-3,34.1-.1,1.2-10.8-35,1,0.6-15.8,26.2-.1,1.1-10.8-62.9,2.1,1.7,8.9,22.3-.1-0.1,16.1-30.8.8,1.7,8.9,29.1-.1v4l-32.8,27.9,7.4,8.8,31.8-28.2,32.1,27.2Zm87.2-49.2,0.2,42.8-22.1,1.1,1.3-58-12.8-1,0.7,59.5-21.6,1.1,0.6-44.4-13-.7,1.6,57.5,10.7-1v-1l54.6-.9v1.8l10.6-.4,2.3-55.1Zm64.8-7.3,17.1-.1,0.3,6.5,7.9-.6,0.3-5.9,24.2-.1,0.3,6.1,7.7-.6,0.4-5.5,17.4-.1,0.9-9.5-17.7.5,0.3-5.2-10-.6,0.3,6-23.3.7,0.4-6.1-10.1-.7,0.3,7-18.2.5Zm56.8,32.3,19.8,7.9,3.7-9.6-18.8-6.2-17.6-15,1.6-1.6-8-5.6-20.5,21.1-20.5,9.3,5.6,9.4,14.8-7.8-1,31.5,8.6,6.9,42.1-.1,1.4-9.6-42.8,1,2.2-25,21.2-.7-0.7,12.2-6.8-1.9-3.2,6.3,9.5,4.7,9.1-2,3.5-22.2-10.8-6.8-21.2,3.2,0.1-.8-4.8-.3,14.1-14.5Zm42.3-29.8,17.4-.1,0.3,8.5,8.2-.4,0.4-8.1,28-.1,0.2,7.5,7.8-.3,0.3-7.2,13.7-.1,1.7-11.7-14.8.6,0.2-5.1-9.7-.9,0.2,6.4-27.2,1.1,0.3-6.8-10.2-.7,0.3,7.9-18.5.7Zm78.4,27.1,1.6-11.3-23.6,1,2.2-2.4-12.1-10.8-6,7.9,8,5.6-27.6,1.2,1.4,8.5,9.9,0.1-3,32.9,9.1,7.3,38.5-.4,1.3-12.2-38.4,2.4,4.1-30Zm-71.9-22.4-6.8,7.3,14.8,10.6,5.5-5.3Zm-6.7,22.8,13.9,13.3,6.3-8.4-15.5-10.5Zm-0.4,35.3,10.8,7,13-24.7-7.1-3.9Zm168.4-65.8,0.8-10.8-60.6,2.6,1.7,8.9Zm10.2,14.6-77.4,2.3,1.3,9.4,28.5-.1-23.5,32.7,7.8,8.2,48.9-4.6,3.3,6.8,9.7-5.6-14-23.7-7.9,4.7,4.2,8.6-36.7,3,20.2-29-1.5-1.2,35.9-.1Zm104.1,24,0.8-10.3-8.2.5,0.9-15.6-9.7-6-28.8,2.6v-0.5l-6.8-1.3,2.9-5.7h43.7l1.4-10.1-40.8,1.7,2.1-4-9.9-5-13.3,29.2,8.8,3.8,1.4-2.8-0.5,16.5-7.4.4,1.5,7.6,5.7-.1-0.6,16.9,8.1,5,28.9-.7-1.5,2.4-6.7-1-2.6,5.3,13.8,6.1,7.4-13.1,3.3-.1,1.2-9.3-3.9.2,0.8-12.5Zm-65.2-35.5-13.4-15.3-6.8,8.9,14.8,12.9Zm-6.5,27.1,6.5-8.9-15.4-12.7-4.7,6.7Zm26.1-12.8,28.9-.9-0.6,12.8-11.2.7,3-4.4-9.8-7.4-4.9,6.8,9.3,5.1-15.6.9Zm-40.8,41.3,10.5,7.1,11.1-27.6-6.9-3.4Zm68-7.1-9.5.4,2.4-3.6-9.8-7.3-4.9,6.8,7.8,4.4-15.7.7,1-13.6,29.3-.5Zm39-59,11.4,10.8,5.9-5.3-9.3-11.8Zm61.7-4.6-42.1,2,1.3,8.5,40.8,0.4v64.4l-6.7-1.9-2.9,6.2,9.6,4.5,9.3-.6,2.2-77.9Zm-61,83.4,9-.8,1.6-64.7-11.3-.5Zm52.3-17.3,2.1-39.8-9.7-4.7-17.3,1.4v-1l-9.9-.2,1.4,45.3,8.1-1.1v-0.7l17.7,0.4v1.1Zm-25.2-7.7,0.1-11,14.3,0.2,0.4-8.1-14.7.9,0.1-9.9,17.4-.5v27.7Zm-923.6,106.5,33.2,36.1,8-7.8-28.7-28.4,27.3-.1,1.3-10.5-37.4.7,29.7-27.7-7.9-8.6-30.4,32.1,3.7,4.3-7.3.2,1.1-36.9-11-.7-0.5,37.8-17.5.3,1.3,9.3,16.1-.1-0.4,34.5,9.5,5.5,13.7-8.7-3.5-6.8-9.9,4.2,0.8-28.7h8.8Zm132.8,22.3,1-60.6-10.7-8.8-43.1,3.2v-0.7l-11.3-1.5,0.1,67.5-7.9,12.1,9.5,5.6,7.7-14.7,1.6-58.7,43.5-1.2,0.7,63,12.5,12.2,7.5-6.9Zm-19.8-46.7-11.3,12.7-11.2-11.4-7,7.1,12,11.3-12.8,14.4,6.2,5.3,13.3-13.5,12.9,12.1,5.8-5.9-12.4-12.6,12.8-13.1Zm113.1,51.3,1.9-66.7-11-7.1-33.6,3v-1l-11.2-1.2-1,66.8-9.5,11.5,9,7.3,11.1-15,1.4-59.2,33.7-1.6-0.6,67.6,9.5,6.6,16.2-.1,1.1-11.7Zm101.3-44.7-34.1,2.4,0.4-17.4,44.7-.4,1.2-11-73.8,2.4,1.5,9.3,15.5-.2-0.7,41-17.1,19.9,9.3,7.4,18.4-23.4,0.4-17.1,34-1.4-0.7,32.4-8.3-2.3-3.7,7.9,11.7,5.1,10.2-.6,3.5-48.4Zm78.9,45.1,0.3-10.5,25-.3,0.6-10.2-25.4,1.1,0.2-8.2,17-.2v1.7l9-1.7,2.4-37.6-11.4-6.7-43.9,3.1v-1l-11.2-1.2,1.6,46.5,9.1-1.8v-0.7l18-.3v8.5l-26.5,1.1,1.3,8.2,25.2-.3v10.9l-33.2,1.3,1.3,8.9,73.1-1,1.6-10.9Zm17.7-54-16.3.6,0.2-8.3,16.1-.3v8Zm-26.3-7.5v8.5l-17.8.6,0.1-8.7Zm9.6,24.1,0.2-7.6,16.5-.4v7.5Zm-27.6.8,0.1-7.5,17.9-.6v7.6Zm170.9,12.5,4.4-23.4h9.7l-2.8,15.1,8.6,1.9,5.9-20.4-9.5-8.7-27.6,2.5,4.5-14.6-10.6-3-10.8,42.1,8.6,2.8,5.4-17.7h8.6l-5.7,29.4-17.1,24.4,8.4,6.4,18.5-28.7,19.1,28.5,8-7.4-23.2-31.3Zm-52.1-34.3v-0.7l-10.1-.2,2.4,59.2,8.2-1.3v-1.1l11.2-.4v1.2l8.2-.8,2.9-52.2-10.1-5.7Zm0.4,47.4-0.3-39.2,12.4-.3-0.6,38.2Zm120-31,0.7,13.9,9.5-.8v-0.7l20.2,0.4v1.1l9.3-.8,1.1-14,8.6-.2,1.4-9.5-9.2.4,0.2-2.4-11.2-1v3.9l-19.7.9,0.1-3.8-11.6-1,0.3,5.3-10.7.5,0.2-8.2,60.7-.4,1.3-9.5-27.8,1.1-8.3-8.8-7.2,6.6,3.7,2.7-22.2.9v-0.9l-11.3-1.2,1.2,64-6.5,12.6,9.3,4.2,5.8-14.2,0.9-40.9Zm30.5-.7v5.6l-20.1.5,0.2-5.7Zm23.7,46.3-19.9-9.2,11-13.4-9.3-7-40.1,1.9,1.3,7.1h2.4l-2.3,3.5,17.5,9.3-24.5,8.7,5.4,9.1,29.5-12.4,23.3,12.4Zm-25.3-20.9-5.4,6.8-14.3-6.6Zm112,14.8,3.9-4.8-11.8-12.2-6.2,7.5,11.9,9.6-19.8.8,0.7-26,23.4-.3,0.9-11.3-24,1.3,0.6-21.5,27.1-.4,0.9-11.4-70,3.1,1.2,9.2,30.3-.4v21.9l-24.7,1.3,1.1,9,23.7-.3v26.1l-36.3,1.5,1.4,9,77-.7,1-11.5Zm35-63.1,12.3,8,4.7-5.7-9.7-10.7Zm63.7-7-45.6,3,2,8.6,43.6-.6v63.1l-4.8-1.3-3.3,7.1,8.1,4.2,9.4-.6,2.1-77.9Zm-60.5,84.6,9.5-1,1.6-65.5-11.8-.5Zm175.8-42.5-40.7,1.2,3.3-16.4h29.8l0.8-12-18.4.7,8.8-11.7-9-6.8-12.6,19-12.5.4,3-3.1-14.7-14.1-7,8.2,11.4,9.3-18.2.7,1.5,9.5h25.5l-3.2,16.7-30.6.9,1.6,9.6,25.6-.1-24.2,22.7,8.6,8.9,27.6-28.2,0.7-3.4h0.9l30.2,32,9.2-8.8-25-23.2,26.7-.1Z"/>
  <path id="大写字母" class="cls-3" d="M110.384,553.134l-18.936-49.9H82.52L64.88,553.71l7.416,2.376,6.048-16.7,18.072,0.144,0.144-1.8,6.7,18.144Zm-29.448-20.88L87.7,513.606l6.624,18.144Zm75.239-2.376,6.624-3.888,1.368-12.672-8.784-9.216-32.04.36,1.152,6.552H125.5l0.288,37.368h-1.8l0.72,7.272,30.24-.072,9.432-6.552,0.216-14.112Zm-3.6-18.936,4.32,5.112-0.072,5.112-7.776,4.9-15.984-.072,0.288-14.976Zm4.392,33.912L152,548.238l-19.44.072,0.288-14.472,15.912-.216,8.28,5.112Zm54-26.64,5.04-5.688-9.36-8.5H190.3L178.351,516.2l-0.792,25.848,10.3,13.608,20.232,0.072,10.152-11.448-6.7-5.472-7.2,8.28-12.1.576-6.7-8.568,0.072-18,8.28-9.36,10.3,0.144Zm59.544-1.944-11.952-12.24H231.2l0.72,7.848h0.936l0.216,35.28h-1.152l0.72,8.712,28.3-.216,10.3-13.608Zm-13.968,31.392-16.632-.36,0.792-35.5,14.256-.072,8.208,9.432,0.144,17.928Zm36,2.016,0.576-14.9,25.056,0.216L318.822,527l-25.416.72,0.648-15.768,28.008,0.072,0.648-7.848-38.52.792,0.792,6.984h1.224l-0.5,37.944H284.19l0.792,6.912,38.448,0.144,0.72-7.92Zm82.367-38.016,0.72-7.848-38.52.792,0.792,6.984h1.656l0.864,45.072,6.7-.648,0.216-21.6,23.688,0.216,0.72-7.992-24.336.72,0.072-15.768Zm46.8,24.624,0.144,4.752-6.48,6.048-12.1.576-6.768-8.568,0.144-18,8.208-9.36,12.6,0.144,7.776,7.2,5.04-5.616-10.512-9.432H401.332L389.38,516.2l-0.792,25.848,10.3,13.608,20.232,0.072,10.44-10.08,0.216-17.568h-21.1l1.152,8.064Zm51.84-32.4,0.36,20.3-22.824.576,0.144-20.232-7.992-.648,0.864,52.56,6.7-.792,0.216-23.76,22.968,0.072,0.432,24.48,6.7-.792,0.432-51.12Zm48.168,7.632,0.72-7.92-27,.864,0.792,6.912,8.424,0.072,0.288,38.232-10.44.36,0.864,6.912,25.416,0.216,0.72-7.992-9.576.288,1.512-38.016Zm42.695-9.288-27,.864,0.864,6.912h9.864l1.44,33.264L535.4,548.958l2.952,7.632,18.216-7.992-0.576-38.52h7.7Zm53.639,47.016-23.4-19.152,18.432-21.312-6.624-5.9L588.746,525.27l-3.456-2.88,0.144-19.3-8.064-.72,0.936,54.576,6.7-.936,0.216-22.968,26.568,23.184Zm21.815,0.216,0.36-45.288-7.992-.72,0.792,46.08-2.016.072,1.3,6.984,37.008,0.144,1.152-7.92Zm93.168-45.72-14.832.936-9.864,25.7-15.48-26.64-9.432.576L684,511.374h1.3l0.576,44.352,6.7-.936L693,518.5l12.024,20.664,7.128,0.288,11.3-26.568,0.864,43.272,6.768-.936,0.288-43.632h1.08Zm50.76,45.288,0.432-44.64-7.992-.648,0.792,45L755.5,503.814l-9.5.648,0.72,6.768,1.224,0.072L748.8,556.23l6.7-.936,0.288-33.984,15.984,35.28,13.032,0.144,0.432-7.776Zm57.312-36.072-10.728-9.36h-20.52l-11.232,8.64-0.432,32.688,10.584,9.936h20.808l11.088-9.648Zm-7.272,27.432-7.272,6.192-14.184.36L804.6,540.1l0.792-22.9,6.768-6.048h15.192l6.48,6.408V540.39Zm52.2-37.08-31.968.432,1.08,6.624h1.008l0.576,45.576,6.768-.72,0.288-21.744,20.736-.216,9.936-8.136,0.36-12.456Zm1.44,17.352-5.4,4.968-18.216-.072L864,510.366l19.224-.072,4.248,5.112v5.256ZM950.9,549.534l-2.952-2.16,2.3-2.016,0.5-32.328-10.8-9.36H919.44l-11.232,8.64L907.776,545l10.656,9.936,20.736,0.072,2.16-1.872,4.248,3.672Zm-28.944-2.52-7.7-6.84,0.72-22.9,6.768-6.048h15.192l6.48,6.408v22.824l-2.232,1.872-6.336-4.68-4.32,6.336,3.24,2.808Zm77.183,9.288,7.057-5.112-11.953-17.928h0.072l9.931-8.064,0.36-12.528-8.707-9.288-32.04.36,1.08,6.7h0.936l0.36,45.792,6.768-.72,0.36-21.96,12.96-.216ZM973.8,510.438l19.3-.072,4.248,5.04v5.256l-5.472,4.968-18.36-.072Zm85.391,37.944-1.73-16.56-24.77-9.72-0.36-6.408,5.04-4.752,8.36,0.144,7.12,8.064,6.7-4.608-9.72-10.224-17.35.144-8.79,10.08,1.16,12.384,25.99,10.584,0.79,6.984-6.05,3.168-11.3.144-10.44-7.632-4.68,6.336,13.68,9.36,15.55-.072Zm59.54-44.424-46.22.864,1.08,6.912,17.93,0.072,0.29,44.28,6.26-1.08,1.3-43.2,18.36,0.072Zm46.08,0.72,0.22,35.136-7.63,7.272-11.38-.144-6.33-7.848,0.28-33.048-7.92-1.152-0.36,37.152,10.37,13.68,19.08,0.072,11.59-11.376,0.22-38.808Zm61.35,0.144L1210.1,543.7l-16.13-38.376-8.06,3.168,19.58,46.44,8.07,0.288,21.17-45.864Zm66.96-.5-6.63,34.776-6.84-25.344-8.35-.288-7.42,24.984-7.63-33.408-8.57,2.376,10.95,48.744,7.99,0.36,8.64-28.944,7.99,28.584,7.71,0.5,10.22-49.68Zm64.58,44.856-16.2-19.08,15.48-20.16-5.98-5.76-14.97,19.44-15.34-18.072-6.55,5.184,16.49,20.016-15.55,20.16,7.12,4.32,13.76-17.928,15.4,18.648Zm60.55-40.032-6.05-6.624-18,16.7-17.56-15.192-5.98,5.688,19.8,16.632,0.14,30.312,6.92-1.08,1.44-29.232Zm23.69,39.168,31.18-38.448-5.84-6.7-36.07,1.08,0.87,6.912,28.8,0.072L1431.21,548.6l0.87,6.984,42.04,0.144,1.01-8.208Z"/>
  <path id="logo" class="cls-1" d="M706.266,1194.7a45.969,45.969,0,0,0-.118,5.15v5.16H677.555v-1.17l0.234-.94-1.406-.24c-1.1,0-2.659-.07-4.688-0.23h-3.281l-0.469,2.58a45.646,45.646,0,0,1-1.172,4.92,22.619,22.619,0,0,1-1.406,4.22,7.125,7.125,0,0,0-.82,2.23,6.584,6.584,0,0,0,2.109-.71c1.326-.54,2.615-1.13,3.867-1.76a11.566,11.566,0,0,0,3.516-2.81l1.641-1.64h66.8l1.875,1.88a14.477,14.477,0,0,0,3.75,2.81c1.406,0.62,2.655,1.17,3.75,1.64a1.036,1.036,0,1,0,1.171-1.17,17.1,17.1,0,0,1-1.406-3.99q-0.7-2.34-1.172-4.68a11.9,11.9,0,0,0-.7-3.05c0-.47-1.252-0.62-3.75-0.47-1.875.16-3.281,0.23-4.219,0.23a2.052,2.052,0,0,1-.937.24c-0.315,0-.469.31-0.469,0.94l0.235,0.93-13.594.24q-13.359,0-13.36-.24a2.838,2.838,0,0,1,.7-1.05,6.664,6.664,0,0,0,1.171-2.46,15.728,15.728,0,0,0,.469-4.22v-2.58h-4.687Q706.382,1194.46,706.266,1194.7Zm-31.289,28.12v4.22l21.093,0.23h21.094l-5.859,4.93q-5.4,4.215-8.2,6.56l-2.344,1.87v6.8H660.445v4.22h40.313v14.76c0,10.01-.158,15.47-0.469,16.41a13.152,13.152,0,0,1-1.172,3.05,21,21,0,0,1-2.578,3.04,16.962,16.962,0,0,1-3.75,2.82c-1.406.62-2.109,1.17-2.109,1.64s0.153,0.7.468,0.7a30.375,30.375,0,0,0,3.047-.47,34.353,34.353,0,0,0,4.922-1.4,16.4,16.4,0,0,0,4.688-1.88,11.74,11.74,0,0,0,3.515-2.34,12.264,12.264,0,0,0,2.344-2.58,13,13,0,0,0,1.172-2.58c0.311-.94.469-6.4,0.469-16.41v-14.76h38.2v-4.22h-38.2v-6.8l2.109-1.64q2.109-1.635,8.438-6.79,6.327-5.4,8.437-7.04a13.637,13.637,0,0,0,2.578-2.34q0-.225-28.828-0.23t-29.062.23h0Zm121.64-30.23-0.469,1.87a27.635,27.635,0,0,1-1.523,5.74c-0.861,2.43-1.681,4.65-2.461,6.68q-1.176,2.58-3.281,6.8-1.88,3.75-4.453,8.44-2.11,3.75-4.688,7.73-2.582,4.215-3.047,4.92a7.818,7.818,0,0,0-1.406,2.11c-0.157.47-.117,0.71,0.117,0.71a8.252,8.252,0,0,0,2.227-1.18q1.873-1.17,3.515-2.34,1.874-1.41,3.985-3.28a59.714,59.714,0,0,0,4.453-4.45l2.109-2.35,0.235,14.77,0.234,14.76h1.875a5.862,5.862,0,0,0,3.047-.7,5.457,5.457,0,0,0,1.875-1.17,11.374,11.374,0,0,0,1.406-1.64l0.469-.71h27.187v2.11l0.235,2.11h1.64a7.437,7.437,0,0,0,2.813-.47,9.072,9.072,0,0,0,2.109-1.17,4.666,4.666,0,0,0,1.407-1.64l0.7-.94h31.64v-4.45H838.336v-6.8H868.57v-4.45H838.336v-6.8H868.57v-4.68H838.336v-7.5H868.57v-4.69H837.164l0.938-1.17a23.668,23.668,0,0,0,1.406-2.35,6.445,6.445,0,0,0,.7-2.57,17.74,17.74,0,0,0,.469-4.93v-3.51H828.727v14.53H815.6q-13.129,0-13.125-.23c0-.16-0.158-0.24-0.469-0.24s0.311-1.41,1.875-4.22a69.182,69.182,0,0,0,3.281-7.5,16.732,16.732,0,0,0,1.406-3.98l0.235-1.17H796.617Zm31.406,22.03v7.5H802.477v-7.5h25.546Zm0,12.18v6.8H802.477v-6.8h25.546Zm0,11.25v6.8H802.477v-6.8h25.546Zm-3.515,16.88v5.16l-22.969.23H778.805v4.45h45.7v1.64c0,1.1-.081,1.64-0.235,1.64a40.222,40.222,0,0,1-4.687-1.17q-4.455-1.17-4.922-1.4-0.236,0-6.328,4.68-6.1,4.935-7.734,6.1-1.643.93-4.454,2.58a58.967,58.967,0,0,1-5.39,2.57q-2.812,1.185-5.391,2.23a35.226,35.226,0,0,1-5.859,1.76,17.416,17.416,0,0,0-3.047,1.05,6.06,6.06,0,0,0,1.289,1.06,3.994,3.994,0,0,0,1.992.94c0.469,0,2.344-.32,5.625-0.94s6.328-1.33,9.141-2.11q4.449-1.17,8.2-2.35a22.822,22.822,0,0,0,4.922-2.1q1.637-.945,9.14-6.1t7.618-5.04q0.115,0.12.117,13.48v13.12h1.406a7.357,7.357,0,0,0,2.813-.7,6.692,6.692,0,0,0,3.046-1.99,11.184,11.184,0,0,0,2.11-3.17,8.733,8.733,0,0,0,.586-2.34q0.115-1.17.117-6.33c0.154-4.68.271-7.11,0.352-7.26s1.442,0.55,4.1,2.11q3.982,2.1,6.8,3.51a34.945,34.945,0,0,0,6.328,2.58,54.282,54.282,0,0,0,6.328,1.64,52.974,52.974,0,0,0,5.625.94c1.718,0.16,4.219.23,7.5,0.23a38.521,38.521,0,0,0,5.86-.23,1.37,1.37,0,0,0,1.171-.94l0.235-1.17c0-.15-0.235-0.24-0.7-0.24-0.315,0-1.722-.23-4.219-0.7s-5-1.01-7.5-1.64q-3.516-.93-6.8-2.11-2.812-.93-5.625-2.11-2.346-1.17-10.078-6.33l-7.734-5.15,19.453-.24h19.453v-4.45H854.977l-20.157-.23v-2.58l-0.234-2.58H824.508Z"/>
</svg>
