<svg xmlns="http://www.w3.org/2000/svg" width="400" height="200" viewBox="0 0 400 200">
  <defs>
    <style>
      .cls-1 {
        fill: #fdfdfd;
        fill-rule: evenodd;
      }
    </style>
  </defs>
  <path id="站酷庆科黄油体" class="cls-1" d="M76.129,92.929a1.6,1.6,0,0,0-1.165.48,1.617,1.617,0,0,0-.485,1.2v15.072a4.08,4.08,0,0,0,.34,1.512,3.991,3.991,0,0,0,.873,1.368l1.165,1.152a4.078,4.078,0,0,0,1.213.888,2.883,2.883,0,0,0,1.21.36,1.063,1.063,0,0,0,.888-0.5,2.051,2.051,0,0,0,.36-1.224v-1.056c0-.48-0.016-0.879-0.048-1.2s-0.1-.48-0.192-0.48H79.519a0.575,0.575,0,0,1-.408-0.5,3.885,3.885,0,0,1-.168-1.224V94.609a1.62,1.62,0,0,0-.485-1.2,1.658,1.658,0,0,0-1.213-.48H76.129ZM73.711,88.8a1.65,1.65,0,0,0,.48,1.176,1.533,1.533,0,0,0,1.152.5H87.535a1.666,1.666,0,0,0,1.224-.5,1.611,1.611,0,0,0,.5-1.176V87.7a1.589,1.589,0,0,0-.5-1.2,1.712,1.712,0,0,0-1.224-.48H75.343a1.571,1.571,0,0,0-1.152.48,1.627,1.627,0,0,0-.48,1.2v1.1Zm8.976,21.7a0.61,0.61,0,0,0-.168.48,8.319,8.319,0,0,0-.072,1.2v1.056a1.957,1.957,0,0,0,.384,1.224,1.087,1.087,0,0,0,.864.5,2.743,2.743,0,0,0,1.224-.36,4.92,4.92,0,0,0,1.224-.888l1.152-1.152a4,4,0,0,0,.864-1.368,4.129,4.129,0,0,0,.336-1.512V94.609a1.64,1.64,0,0,0-1.68-1.68H85.759a1.712,1.712,0,0,0-1.224.48,1.589,1.589,0,0,0-.5,1.2v14.16a4.506,4.506,0,0,1-.144,1.224,0.542,0.542,0,0,1-.384.5H82.687ZM104,87.505a1.627,1.627,0,0,0,1.2-.48,1.57,1.57,0,0,0,.48-1.152V84.751a1.672,1.672,0,0,0-.48-1.221,1.614,1.614,0,0,0-1.2-.488h-3.744a1.634,1.634,0,0,1-1.2-.476,1.6,1.6,0,0,1-.48-1.189v-1.95a1.591,1.591,0,0,0-.5-1.165,1.674,1.674,0,0,0-1.224-.5H95.791a1.723,1.723,0,0,0-1.68,1.68V93.073a1.588,1.588,0,0,1-.5,1.2,1.651,1.651,0,0,1-1.176.48H91.9a1.588,1.588,0,0,0-1.2.5,1.708,1.708,0,0,0-.48,1.224V120.1a1.65,1.65,0,0,0,.48,1.176,1.588,1.588,0,0,0,1.2.5H100.5a4.127,4.127,0,0,0,1.512-.336,4.011,4.011,0,0,0,1.368-.864l1.1-1.2a3.078,3.078,0,0,0,.864-1.272,4.127,4.127,0,0,0,.336-1.512V96.481a1.71,1.71,0,0,0-.48-1.224,1.589,1.589,0,0,0-1.2-.5h-3.744a1.64,1.64,0,0,1-1.68-1.68V89.185a1.651,1.651,0,0,1,.48-1.176,1.588,1.588,0,0,1,1.2-.5H104Zm-2.784,28.128a1.64,1.64,0,0,1-1.68,1.68H96.319a1.734,1.734,0,0,1-1.2-.48,1.553,1.553,0,0,1-.528-1.2V100.849a1.5,1.5,0,0,1,.528-1.152,1.736,1.736,0,0,1,1.2-.48h3.216a1.63,1.63,0,0,1,1.2.48,1.573,1.573,0,0,1,.48,1.152v14.784Zm-27.5,4.416a1.65,1.65,0,0,0,.48,1.176,1.533,1.533,0,0,0,1.152.5H87.535a1.666,1.666,0,0,0,1.224-.5,1.612,1.612,0,0,0,.5-1.176V118.9a1.535,1.535,0,0,0-.5-1.152,1.71,1.71,0,0,0-1.224-.48H75.343a1.639,1.639,0,0,0-1.632,1.632v1.152Zm15.048-42a2.16,2.16,0,0,0-1.224-.336H86.479a3.3,3.3,0,0,0-1.176.192,0.611,0.611,0,0,0-.5.48,0.6,0.6,0,0,1-.48.432,3.1,3.1,0,0,1-1.152.192H75.343a1.571,1.571,0,0,0-1.152.48,1.627,1.627,0,0,0-.48,1.2v1.1a1.626,1.626,0,0,0,.48,1.2,1.568,1.568,0,0,0,1.152.48h8.688a3.9,3.9,0,0,0,1.512-.36,4.8,4.8,0,0,0,1.32-.792l1.2-1.2a4.753,4.753,0,0,0,.864-1.176,2.538,2.538,0,0,0,.336-1.128A0.941,0.941,0,0,0,88.759,78.049Zm23.3,8.928a1.639,1.639,0,0,0-1.632,1.632V120.1a1.651,1.651,0,0,0,.479,1.176,1.526,1.526,0,0,0,1.148.5h9.954a3.214,3.214,0,0,0,1.484-.432,3.445,3.445,0,0,0,1.2-.96l0.621-.816a5.464,5.464,0,0,0,.742-1.464,4.822,4.822,0,0,0,.311-1.56V88.609a1.544,1.544,0,0,0-.5-1.152,1.628,1.628,0,0,0-1.164-.48h-2.373q-0.19,0-.261-0.5A8.416,8.416,0,0,1,122,85.3V83.809a1.664,1.664,0,0,1,.475-1.176,1.564,1.564,0,0,1,1.187-.5h1.044a1.679,1.679,0,0,0,1.662-1.7V79.315a1.566,1.566,0,0,0-.5-1.165,1.636,1.636,0,0,0-1.172-.485H112.058a1.555,1.555,0,0,0-1.148.485,1.6,1.6,0,0,0-.479,1.165v1.116a1.654,1.654,0,0,0,.48,1.213,1.561,1.561,0,0,0,1.152.485h1.152a1.589,1.589,0,0,1,1.2.5,1.652,1.652,0,0,1,.48,1.176V85.3a4.3,4.3,0,0,1-.144,1.176,0.619,0.619,0,0,1-.288.5h-2.4Zm15.312,33.12a1.652,1.652,0,0,0,.48,1.176,1.589,1.589,0,0,0,1.2.5h8.592a3.468,3.468,0,0,0,1.512-.384,4.124,4.124,0,0,0,1.272-.912l0.96-.96a6.21,6.21,0,0,0,.72-1.392,4.311,4.311,0,0,0,.336-1.536V102.145a1.71,1.71,0,0,0-.48-1.224,1.535,1.535,0,0,0-1.152-.5h-11.76a1.589,1.589,0,0,0-1.2.5,1.71,1.71,0,0,0-.48,1.224V120.1Zm1.68-26.736a1.589,1.589,0,0,0-1.2.5,1.71,1.71,0,0,0-.48,1.224v1.056a1.651,1.651,0,0,0,.48,1.176,1.589,1.589,0,0,0,1.2.5h11.76a1.535,1.535,0,0,0,1.152-.5,1.651,1.651,0,0,0,.48-1.176V95.089a1.71,1.71,0,0,0-.48-1.224,1.535,1.535,0,0,0-1.152-.5h-1.344a1.64,1.64,0,0,1-1.68-1.68V88.753a1.64,1.64,0,0,1,1.68-1.68h1.344a1.639,1.639,0,0,0,1.632-1.632V84.289a1.652,1.652,0,0,0-.48-1.176,1.535,1.535,0,0,0-1.152-.5h-1.344a1.619,1.619,0,0,1-1.2-.485,1.6,1.6,0,0,1-.48-1.163v-1.6a1.675,1.675,0,0,0-.48-1.187,1.529,1.529,0,0,0-1.152-.509h-0.72a1.723,1.723,0,0,0-1.68,1.68v1.584a1.956,1.956,0,0,1-.336,1.152,1.015,1.015,0,0,1-.864.48,1.075,1.075,0,0,1-.888-0.48,1.863,1.863,0,0,1-.36-1.152V79.345a1.652,1.652,0,0,0-.48-1.176,1.535,1.535,0,0,0-1.152-.5h-0.624a1.586,1.586,0,0,0-1.2.507,1.663,1.663,0,0,0-.48,1.181v2.461a5.093,5.093,0,0,0,.288,1.592,3.879,3.879,0,0,0,.768,1.4l0.912,1.013a3.836,3.836,0,0,0,1.272.893,3.634,3.634,0,0,0,1.512.362,1.573,1.573,0,0,1,1.152.48,1.629,1.629,0,0,1,.48,1.2v2.928a1.627,1.627,0,0,1-.48,1.2,1.57,1.57,0,0,1-1.152.48h-3.072Zm7.728,11.52a1.535,1.535,0,0,1,1.152.5,1.653,1.653,0,0,1,.48,1.176v9.072a1.628,1.628,0,0,1-.48,1.2,1.571,1.571,0,0,1-1.152.48h-3.744a1.735,1.735,0,0,1-1.2-.48,1.554,1.554,0,0,1-.528-1.2v-9.072a1.579,1.579,0,0,1,.528-1.176,1.692,1.692,0,0,1,1.2-.5h3.744Zm-16.608,3.648a4.894,4.894,0,0,0,.888,1.008,1.462,1.462,0,0,0,.888.432,0.807,0.807,0,0,1,.624.264,1,1,0,0,1,.24.7,0.668,0.668,0,0,1-.48.6,2.927,2.927,0,0,1-1.2.216h-5.472a2.18,2.18,0,0,1-1.176-.312,0.914,0.914,0,0,1-.5-0.792,1.211,1.211,0,0,1,.264-0.768,0.8,0.8,0,0,1,.648-0.336,1.554,1.554,0,0,0,.912-0.432,9.354,9.354,0,0,0,1.008-.96l0.144-.336a4.355,4.355,0,0,0,.768-1.464,5.141,5.141,0,0,0,.288-1.56V93.073a6.353,6.353,0,0,1,.1-1.176q0.1-.5.288-0.5a0.53,0.53,0,0,1,.312.5,5.118,5.118,0,0,1,.12,1.176v11.712a5.807,5.807,0,0,0,.264,1.584,6.213,6.213,0,0,0,.648,1.536Zm-5.424-16.584a4.3,4.3,0,0,1,.144,1.176v10.752a4.238,4.238,0,0,1-.144,1.2,0.587,0.587,0,0,1-.288.48,0.49,0.49,0,0,1-.36-0.48,5.043,5.043,0,0,1-.12-1.2V93.121a5.118,5.118,0,0,1,.12-1.176,0.51,0.51,0,0,1,.36-0.5A0.619,0.619,0,0,1,114.751,91.945Zm0.912,25.368a2.708,2.708,0,0,1-1.176-.24,0.7,0.7,0,0,1-.5-0.48,0.635,0.635,0,0,1,.5-0.576,3.3,3.3,0,0,1,1.176-.192h5.472a3.251,3.251,0,0,1,1.2.192,0.628,0.628,0,0,1,.48.576,0.684,0.684,0,0,1-.48.48,2.672,2.672,0,0,1-1.2.24h-5.472ZM122.7,91.945a5.118,5.118,0,0,1,.12,1.176V104.4a5.11,5.11,0,0,1-.12,1.176,0.51,0.51,0,0,1-.36.5q-0.192,0-.264-0.5A8.41,8.41,0,0,1,122,104.4V93.121a8.424,8.424,0,0,1,.072-1.176q0.072-.5.264-0.5A0.51,0.51,0,0,1,122.7,91.945Zm-4.68-8.136a6.353,6.353,0,0,1,.1-1.176q0.1-.5.288-0.5a0.53,0.53,0,0,1,.312.5,5.118,5.118,0,0,1,.12,1.176V85.3a5.113,5.113,0,0,1-.12,1.176,0.53,0.53,0,0,1-.312.5q-0.192,0-.288-0.5a6.347,6.347,0,0,1-.1-1.176V83.809Zm60.816,35.2a1.652,1.652,0,0,0-.48-1.212,1.618,1.618,0,0,0-1.2-.486h-0.528a2.722,2.722,0,0,1-1.392-.43,2.682,2.682,0,0,1-1.056-1.1l-4.608-8.754a7.773,7.773,0,0,1-.5-1.314,4.433,4.433,0,0,1-.216-1.125,0.859,0.859,0,0,1,.48-0.693,2.167,2.167,0,0,1,1.2-.312H177.1a1.624,1.624,0,0,0,1.2-.48,1.568,1.568,0,0,0,.48-1.152v-1.1a1.573,1.573,0,0,0-.48-1.152,1.63,1.63,0,0,0-1.2-.48h-6.576a1.589,1.589,0,0,1-1.2-.5,1.651,1.651,0,0,1-.48-1.176v-2.4a1.683,1.683,0,0,0-.51-1.2,1.6,1.6,0,0,0-1.188-.528h-1.068a1.577,1.577,0,0,0-1.212.528,1.725,1.725,0,0,0-.486,1.2v2.4a1.651,1.651,0,0,1-.48,1.176,1.589,1.589,0,0,1-1.2.5h-6.72a1.63,1.63,0,0,0-1.2.48,1.573,1.573,0,0,0-.48,1.152v1.1a1.568,1.568,0,0,0,.48,1.152,1.624,1.624,0,0,0,1.2.48h6.72a2.167,2.167,0,0,1,1.2.312,0.859,0.859,0,0,1,.48.693,3.923,3.923,0,0,1-.216,1.077,13.912,13.912,0,0,1-.5,1.362l-4.656,8.754a3.164,3.164,0,0,1-1.056,1.1,2.483,2.483,0,0,1-1.344.43h-0.576a1.618,1.618,0,0,0-1.2.486,1.652,1.652,0,0,0-.48,1.212v1.068a1.68,1.68,0,0,0,.48,1.189,1.582,1.582,0,0,0,1.2.509h3.216a2.707,2.707,0,0,0,1.392-.432,2.381,2.381,0,0,0,1.008-1.1l4.192-7.872a0.958,0.958,0,0,1,.776-0.624,0.865,0.865,0,0,1,.728.624l4.192,7.872a2.411,2.411,0,0,0,.984,1.1,2.657,2.657,0,0,0,1.416.432h3.216a1.582,1.582,0,0,0,1.2-.509,1.68,1.68,0,0,0,.48-1.189v-1.068Zm-0.1-30.816a1.656,1.656,0,0,0-.48-1.213,1.62,1.62,0,0,0-1.2-.485h-26.64a3.306,3.306,0,0,0-1.176.192,0.611,0.611,0,0,0-.5.48v28.32a2.793,2.793,0,0,1-.216,1.152,0.669,0.669,0,0,1-.6.48,0.672,0.672,0,0,0-.552.534,3.207,3.207,0,0,0-.216,1.213v1.115a1.981,1.981,0,0,0,.36,1.213,1.074,1.074,0,0,0,.888.485,2.544,2.544,0,0,0,1.152-.36,5.952,5.952,0,0,0,1.2-.84l1.2-1.152a3.776,3.776,0,0,0,.84-1.344,4.311,4.311,0,0,0,.312-1.536V92.641a1.555,1.555,0,0,1,.528-1.2,1.737,1.737,0,0,1,1.2-.48h22.224a1.617,1.617,0,0,0,1.2-.485,1.654,1.654,0,0,0,.48-1.213V88.2ZM177.1,77.713h-1.056a2.712,2.712,0,0,0-1.176.24,0.719,0.719,0,0,0-.5.624,0.712,0.712,0,0,1-.48.624,2.665,2.665,0,0,1-1.2.24H150.415a1.654,1.654,0,0,0-1.176.48,1.589,1.589,0,0,0-.5,1.2v1.056a1.588,1.588,0,0,0,.5,1.2,1.65,1.65,0,0,0,1.176.48H173.6a4.121,4.121,0,0,0,1.512-.336,3.5,3.5,0,0,0,1.32-.864l1.152-1.1a4.242,4.242,0,0,0,.864-1.272,3.2,3.2,0,0,0,.336-1.272,1.14,1.14,0,0,0-.48-0.912,1.862,1.862,0,0,0-1.2-.384h0Zm27.12,16.56a1.535,1.535,0,0,0-1.152.5,1.652,1.652,0,0,0-.48,1.176v5.424a5.141,5.141,0,0,0,.288,1.56,4.985,4.985,0,0,0,.72,1.464l0.768,0.912a4.121,4.121,0,0,0,1.176.888,2.741,2.741,0,0,0,1.224.36,1.2,1.2,0,0,0,.936-0.48,1.716,1.716,0,0,0,.408-1.152v-1.056a2.469,2.469,0,0,0-.264-1.2,0.762,0.762,0,0,0-.648-0.48,0.723,0.723,0,0,1-.624-0.528,2.863,2.863,0,0,1-.24-1.2V95.953a1.652,1.652,0,0,0-.48-1.176,1.535,1.535,0,0,0-1.152-.5h-0.48Zm-0.864,14.4a1.563,1.563,0,0,0-1.2.523,1.706,1.706,0,0,0-.48,1.187v1.092a1.653,1.653,0,0,0,.48,1.14,1.562,1.562,0,0,0,1.2.522h4.8a1.589,1.589,0,0,1,1.2.5,1.652,1.652,0,0,1,.48,1.176v5.28a1.681,1.681,0,0,0,1.728,1.68h1.056a1.723,1.723,0,0,0,1.68-1.68v-5.28a2.966,2.966,0,0,1,.216-1.176,0.675,0.675,0,0,1,.6-0.5,0.683,0.683,0,0,0,.6-0.528,3.006,3.006,0,0,0,.216-1.152v-1.1a3.153,3.153,0,0,0-.216-1.2,0.684,0.684,0,0,0-.6-0.528,0.668,0.668,0,0,1-.6-0.48,2.787,2.787,0,0,1-.216-1.152V79.345a1.47,1.47,0,0,0-.5-1.118,1.678,1.678,0,0,0-1.176-.466h-1.056a1.717,1.717,0,0,0-1.248.466,1.5,1.5,0,0,0-.48,1.118v27.693a1.576,1.576,0,0,1-.48,1.155,1.624,1.624,0,0,1-1.2.48h-4.8Zm4.8-16.824a1.96,1.96,0,0,0,.384-1.224v-1.1a2.553,2.553,0,0,0-.24-1.152,0.714,0.714,0,0,0-.624-0.48,0.76,0.76,0,0,1-.648-0.48,2.465,2.465,0,0,1-.264-1.2V81.217a1.69,1.69,0,0,0-.48-1.248,1.63,1.63,0,0,0-1.2-.48H204.7a1.63,1.63,0,0,0-1.2.48,1.69,1.69,0,0,0-.48,1.248v5.856a5.263,5.263,0,0,0,.288,1.608,4.329,4.329,0,0,0,.72,1.416l0.768,0.96a4.509,4.509,0,0,0,1.176.912,2.608,2.608,0,0,0,1.224.384A1.164,1.164,0,0,0,208.159,91.849ZM194.983,79.4a2.478,2.478,0,0,1-1.224.28H185.5a1.528,1.528,0,0,0-1.152.51,1.739,1.739,0,0,0-.48,1.237v1.019a1.654,1.654,0,0,0,.48,1.213,1.561,1.561,0,0,0,1.152.485h2.4a1.532,1.532,0,0,1,1.2.547,1.8,1.8,0,0,1,.48,1.213v2.237a1.712,1.712,0,0,1-.48,1.19,1.559,1.559,0,0,1-1.2.523h-2.4a1.535,1.535,0,0,0-1.152.5,1.71,1.71,0,0,0-.48,1.224v1.008a1.71,1.71,0,0,0,.48,1.224,1.535,1.535,0,0,0,1.152.5h2.4a1.589,1.589,0,0,1,1.2.5,1.652,1.652,0,0,1,.48,1.176v24.1a1.612,1.612,0,0,0,.5,1.176,1.666,1.666,0,0,0,1.224.5h1.056a1.589,1.589,0,0,0,1.2-.5,1.652,1.652,0,0,0,.48-1.176V96a1.612,1.612,0,0,1,.5-1.176,1.666,1.666,0,0,1,1.224-.5h2.448a1.612,1.612,0,0,0,1.176-.5,1.666,1.666,0,0,0,.5-1.224V91.585a1.666,1.666,0,0,0-.5-1.224,1.612,1.612,0,0,0-1.176-.5h-2.448a1.63,1.63,0,0,1-1.224-.526,1.68,1.68,0,0,1-.5-1.2V85.889a2.294,2.294,0,0,1,.336-1.219,0.993,0.993,0,0,1,.864-0.55,2.743,2.743,0,0,0,1.2-.334,4.566,4.566,0,0,0,1.2-.86l1.1-1.1a4.691,4.691,0,0,0,.816-1.291A3.414,3.414,0,0,0,199.9,79.2a1.287,1.287,0,0,0-.5-1,1.757,1.757,0,0,0-1.176-.43h-1.056a2.374,2.374,0,0,0-1.176.281,0.815,0.815,0,0,0-.5.7A0.793,0.793,0,0,1,194.983,79.4ZM188.1,99.217a1.64,1.64,0,0,0-1.68-1.68h-0.672a1.654,1.654,0,0,0-1.176.48,1.589,1.589,0,0,0-.5,1.2v20.832a1.723,1.723,0,0,0,1.68,1.68h0.672a1.589,1.589,0,0,0,1.2-.5,1.652,1.652,0,0,0,.48-1.176V99.217Zm9.264-1.68a1.712,1.712,0,0,0-1.224.48,1.589,1.589,0,0,0-.5,1.2v20.832a1.612,1.612,0,0,0,.5,1.176,1.666,1.666,0,0,0,1.224.5h0.624a1.723,1.723,0,0,0,1.68-1.68V99.217a1.589,1.589,0,0,0-.5-1.2,1.654,1.654,0,0,0-1.176-.48h-0.624Zm49.824-19.824h-1.056a1.961,1.961,0,0,0-1.152.336,1.016,1.016,0,0,0-.48.864,1.062,1.062,0,0,1-.5.888,1.971,1.971,0,0,1-1.176.36H230.431a2.08,2.08,0,0,1-1.2-.36,1.052,1.052,0,0,1-.528-0.888,1.016,1.016,0,0,0-.48-0.864,1.961,1.961,0,0,0-1.152-.336h-1.1a1.961,1.961,0,0,0-1.152.336,1.016,1.016,0,0,0-.48.864,1.052,1.052,0,0,1-.528.888,2.08,2.08,0,0,1-1.2.36h-0.384a1.639,1.639,0,0,0-1.632,1.632v1.1a1.639,1.639,0,0,0,1.632,1.632h0.384a1.809,1.809,0,0,1,1.728,1.728v0.432a1.5,1.5,0,0,1-.528,1.152,1.734,1.734,0,0,1-1.2.48h-0.384a1.639,1.639,0,0,0-1.632,1.632v1.152a1.627,1.627,0,0,0,.48,1.2,1.57,1.57,0,0,0,1.152.48h10.224a1.888,1.888,0,0,1,1.176.384,1.077,1.077,0,0,1,0,1.824,1.883,1.883,0,0,1-1.176.384H222.223a1.573,1.573,0,0,0-1.152.48,1.629,1.629,0,0,0-.48,1.2v16.128a1.652,1.652,0,0,0,.48,1.176,1.535,1.535,0,0,0,1.152.5h1.632a2.156,2.156,0,0,1,1.224.336,1,1,0,0,1,.5.864,1.088,1.088,0,0,1-.5.864,1.96,1.96,0,0,1-1.224.384h-1.632a1.571,1.571,0,0,0-1.152.48,1.628,1.628,0,0,0-.48,1.2v1.1a1.652,1.652,0,0,0,.48,1.176,1.535,1.535,0,0,0,1.152.5h2.544a4.127,4.127,0,0,0,1.512-.336,3.51,3.51,0,0,0,1.32-.864l1.2-1.248a3.268,3.268,0,0,0,.888-1.272,3.9,3.9,0,0,0,.36-1.512,1.628,1.628,0,0,1,.48-1.2,1.571,1.571,0,0,1,1.152-.48h9.792a1.71,1.71,0,0,1,1.224.48,1.589,1.589,0,0,1,.5,1.2,4.127,4.127,0,0,0,.336,1.512,3.078,3.078,0,0,0,.864,1.272l1.1,1.248a4.011,4.011,0,0,0,1.368.864,4.127,4.127,0,0,0,1.512.336h2.5a1.589,1.589,0,0,0,1.2-.5,1.652,1.652,0,0,0,.48-1.176v-1.1a1.64,1.64,0,0,0-1.68-1.68h-1.536a1.86,1.86,0,0,1-1.2-.384,1.1,1.1,0,0,1-.48-0.864,1.727,1.727,0,0,1,.192-0.864,0.535,0.535,0,0,1,.432-0.336,1.79,1.79,0,0,0,.84-0.36,6.752,6.752,0,0,0,1.08-.888l1.152-1.152a4.476,4.476,0,0,0,1.2-2.88V97.057a1.64,1.64,0,0,0-1.68-1.68H240.223a1.883,1.883,0,0,1-1.176-.384,1.077,1.077,0,0,1,0-1.824,1.888,1.888,0,0,1,1.176-.384h10.752a1.57,1.57,0,0,0,1.152-.48,1.627,1.627,0,0,0,.48-1.2V89.953a1.639,1.639,0,0,0-1.632-1.632h-0.384a1.627,1.627,0,0,1-1.2-.48,1.57,1.57,0,0,1-.48-1.152V86.257a1.737,1.737,0,0,1,.48-1.2,1.555,1.555,0,0,1,1.2-.528h0.384a1.639,1.639,0,0,0,1.632-1.632v-1.1a1.639,1.639,0,0,0-1.632-1.632h-0.384a1.944,1.944,0,0,1-1.2-.36,1.075,1.075,0,0,1-.48-0.888,1.006,1.006,0,0,0-.5-0.864,2.16,2.16,0,0,0-1.224-.336h0Zm-14.736,22.08a1.7,1.7,0,0,1,1.176.456,1.463,1.463,0,0,1,.5,1.128,1.339,1.339,0,0,1-.5,1.056,1.751,1.751,0,0,1-1.176.432h-5.712a1.727,1.727,0,0,1-1.2-.432,1.366,1.366,0,0,1-.48-1.056,1.5,1.5,0,0,1,.48-1.128,1.676,1.676,0,0,1,1.2-.456h5.712Zm-6.912,7.968a1.727,1.727,0,0,1,1.2-.432h5.712a1.751,1.751,0,0,1,1.176.432,1.342,1.342,0,0,1,.5,1.056,1.458,1.458,0,0,1-.5,1.128,1.693,1.693,0,0,1-1.176.456h-5.712a1.67,1.67,0,0,1-1.2-.456,1.491,1.491,0,0,1-.48-1.128A1.369,1.369,0,0,1,225.535,107.761Zm14.728,2.64a1.683,1.683,0,0,1-1.171-.456,1.461,1.461,0,0,1-.5-1.128,1.345,1.345,0,0,1,.5-1.056,1.74,1.74,0,0,1,1.171-.432h6.161a1.715,1.715,0,0,1,1.194.432,1.372,1.372,0,0,1,.477,1.056,1.5,1.5,0,0,1-.477,1.128,1.659,1.659,0,0,1-1.194.456h-6.161Zm6.161-10.608a1.665,1.665,0,0,1,1.194.456,1.5,1.5,0,0,1,.477,1.128,1.369,1.369,0,0,1-.477,1.056,1.715,1.715,0,0,1-1.194.432h-6.161a1.74,1.74,0,0,1-1.171-.432,1.342,1.342,0,0,1-.5-1.056,1.467,1.467,0,0,1,.5-1.128,1.69,1.69,0,0,1,1.171-.456h6.161Zm-1.929-13.1a1.533,1.533,0,0,1-.5,1.152,1.65,1.65,0,0,1-1.176.48H230.431a1.734,1.734,0,0,1-1.2-.48,1.5,1.5,0,0,1-.528-1.152V86.257a1.809,1.809,0,0,1,1.728-1.728h12.384a1.578,1.578,0,0,1,1.176.528,1.693,1.693,0,0,1,.5,1.2v0.432Zm44.832-3.168a2.461,2.461,0,0,0-.454-1.632,1.58,1.58,0,0,0-1.265-.528h-5.969a1.576,1.576,0,0,1-1.195-.5,1.656,1.656,0,0,1-.477-1.176V79.345a1.527,1.527,0,0,0-.51-1.152,1.741,1.741,0,0,0-1.237-.48h-1.067a1.6,1.6,0,0,0-1.165.48,1.561,1.561,0,0,0-.485,1.152v0.336a1.723,1.723,0,0,1-1.68,1.68h-6.1a1.522,1.522,0,0,0-1.416.672A3.842,3.842,0,0,0,265.9,84v36.1a1.652,1.652,0,0,0,.48,1.176,1.535,1.535,0,0,0,1.152.5H284.1a4.127,4.127,0,0,0,1.512-.336,4.011,4.011,0,0,0,1.368-.864l1.2-1.2a3.361,3.361,0,0,0,.816-1.272,4.127,4.127,0,0,0,.336-1.512V83.521Zm-30.768,32.16a3.674,3.674,0,0,1-.168,1.2,0.56,0.56,0,0,1-.456.48,0.56,0.56,0,0,0-.456.48,3.674,3.674,0,0,0-.168,1.2V120.1a2.188,2.188,0,0,0,.312,1.176,0.886,0.886,0,0,0,.744.5,2.64,2.64,0,0,0,1.065-.336,3.936,3.936,0,0,0,1.165-.864l1.261-1.2a3.347,3.347,0,0,0,.825-1.272,4.079,4.079,0,0,0,.34-1.512V97.585a1.565,1.565,0,0,0-.485-1.152,1.6,1.6,0,0,0-1.165-.48h-1.164a1.6,1.6,0,0,0-1.165.48,1.561,1.561,0,0,0-.485,1.152v18.1Zm15.28-29.856a1.627,1.627,0,0,1,1.165.481,1.6,1.6,0,0,1,.5,1.2V97.963a1.549,1.549,0,0,1-.5,1.156,1.627,1.627,0,0,1-1.165.481h-1.808a1.623,1.623,0,0,1-1.164-.481,1.55,1.55,0,0,1-.5-1.156V87.511a1.605,1.605,0,0,1,.5-1.2,1.623,1.623,0,0,1,1.164-.481h1.808ZM270.367,105.7a1.545,1.545,0,0,1,.5-1.152,1.63,1.63,0,0,1,1.164-.48h1.808a1.634,1.634,0,0,1,1.165.48,1.544,1.544,0,0,1,.5,1.152v9.936a1.674,1.674,0,0,1-.5,1.224,1.434,1.434,0,0,1-1.165.456h-1.808a1.626,1.626,0,0,1-1.164-.48,1.6,1.6,0,0,1-.5-1.2V105.7ZM283.2,85.825a1.6,1.6,0,0,1,1.188.481,1.649,1.649,0,0,1,.475,1.2V97.963A1.633,1.633,0,0,1,283.2,99.6h-1.569a1.635,1.635,0,0,1-1.664-1.638V87.511a1.642,1.642,0,0,1,.476-1.2,1.6,1.6,0,0,1,1.188-.481H283.2Zm-1.569,31.536a1.6,1.6,0,0,1-1.188-.48,1.693,1.693,0,0,1-.476-1.248V105.7a1.578,1.578,0,0,1,.476-1.152,1.6,1.6,0,0,1,1.188-.48H283.2a1.611,1.611,0,0,1,1.188.48,1.585,1.585,0,0,1,.475,1.152v9.984a1.64,1.64,0,0,1-.475,1.2,1.607,1.607,0,0,1-1.188.48h-1.569Zm-19.76-38.256a1.389,1.389,0,0,0-1.128-.528,1.529,1.529,0,0,0-1.176.528l-0.72.768a1.628,1.628,0,0,0,0,2.4l0.72,0.72a1.527,1.527,0,0,0,1.176.528,1.387,1.387,0,0,0,1.128-.528l0.864-.72a1.74,1.74,0,0,0,0-2.4Zm0,9.168a1.448,1.448,0,0,0-1.128-.48,1.6,1.6,0,0,0-1.176.48l-0.72.72a1.628,1.628,0,0,0,0,2.4l0.72,0.768a1.527,1.527,0,0,0,1.176.528,1.387,1.387,0,0,0,1.128-.528l0.864-.768a1.74,1.74,0,0,0,0-2.4ZM316.5,87.262a1.645,1.645,0,0,1,.48-1.173,1.59,1.59,0,0,1,1.2-.5h6.048a1.6,1.6,0,0,0,1.176-.509,1.638,1.638,0,0,0,.5-1.189V82.819a1.615,1.615,0,0,0-.5-1.213,1.643,1.643,0,0,0-1.176-.485h-6.048a1.639,1.639,0,0,1-1.2-.473,1.592,1.592,0,0,1-.48-1.183V79.323a1.533,1.533,0,0,0-.485-1.136,1.671,1.671,0,0,0-1.213-.473h-1.068a1.671,1.671,0,0,0-1.213.473,1.529,1.529,0,0,0-.485,1.136v0.142a1.592,1.592,0,0,1-.48,1.183,1.639,1.639,0,0,1-1.2.473h-6.288a1.563,1.563,0,0,0-1.152.485,1.656,1.656,0,0,0-.48,1.213v1.068a1.679,1.679,0,0,0,.48,1.189,1.527,1.527,0,0,0,1.152.509h6.288a1.59,1.59,0,0,1,1.2.5,1.65,1.65,0,0,1,.48,1.174v19.026a1.688,1.688,0,0,1-.449,1.2,1.467,1.467,0,0,1-1.112.479,1.615,1.615,0,0,1-1.158-.479,1.6,1.6,0,0,1-.5-1.2V89.227a1.641,1.641,0,0,0-.485-1.174,1.617,1.617,0,0,0-1.213-.5H306.1a1.7,1.7,0,0,0-1.238.5,1.6,1.6,0,0,0-.509,1.174V114.82a2.458,2.458,0,0,1-.264,1.2,0.759,0.759,0,0,1-.648.479,0.836,0.836,0,0,0-.72.486,2.238,2.238,0,0,0-.288,1.164v1.116a1.921,1.921,0,0,0,.384,1.189,1.2,1.2,0,0,0,1.008.509,3.308,3.308,0,0,0,1.353-.36,5.234,5.234,0,0,0,1.31-.84l1.116-1.2a3.5,3.5,0,0,0,.873-1.32,4.079,4.079,0,0,0,.34-1.512V114.1a1.62,1.62,0,0,1,.5-1.176,1.574,1.574,0,0,1,1.158-.5,1.432,1.432,0,0,1,1.112.5,1.714,1.714,0,0,1,.449,1.176v6a1.64,1.64,0,0,0,.485,1.176,1.615,1.615,0,0,0,1.213.5H314.8a1.615,1.615,0,0,0,1.213-.5,1.644,1.644,0,0,0,.485-1.176v-6a1.71,1.71,0,0,1,.449-1.176,1.427,1.427,0,0,1,1.11-.5,1.345,1.345,0,0,1,1.016.5,1.684,1.684,0,0,1,.449,1.163v1.613a4.1,4.1,0,0,0,.336,1.5,4.411,4.411,0,0,0,.768,1.319l1.2,1.2a5.177,5.177,0,0,0,1.3.84,3.253,3.253,0,0,0,1.344.36,1.228,1.228,0,0,0,.984-0.5,1.814,1.814,0,0,0,.408-1.176v-1.1a2.2,2.2,0,0,0-.288-1.152,0.81,0.81,0,0,0-.672-0.48,0.836,0.836,0,0,1-.72-0.48,2.3,2.3,0,0,1-.288-1.2V89.185a1.652,1.652,0,0,0-.48-1.176,1.535,1.535,0,0,0-1.152-.5h-1.1a1.535,1.535,0,0,0-1.152.5,1.652,1.652,0,0,0-.48,1.176v17.088a1.688,1.688,0,0,1-.449,1.2,1.358,1.358,0,0,1-1.016.48,1.46,1.46,0,0,1-1.11-.478,1.683,1.683,0,0,1-.449-1.2V87.262Zm-22.464,4.324a3.414,3.414,0,0,0,.185,1.176,0.6,0.6,0,0,0,.416.5,0.558,0.558,0,0,1,.485.48,3.623,3.623,0,0,1,.162,1.152v25.2a1.605,1.605,0,0,0,.509,1.176,1.639,1.639,0,0,0,1.189.5h1.068a1.615,1.615,0,0,0,1.213-.5,1.644,1.644,0,0,0,.485-1.176V92.689a5.721,5.721,0,0,1,.168-1.392,1.813,1.813,0,0,1,.5-0.96,2.7,2.7,0,0,0,.432-0.936,4.62,4.62,0,0,0,.192-1.32V79.345a1.536,1.536,0,0,0-.5-1.152,1.654,1.654,0,0,0-1.176-.48h-1.1a1.654,1.654,0,0,0-1.176.48,1.536,1.536,0,0,0-.5,1.152v7.872a1.97,1.97,0,0,1-.36,1.176,1.063,1.063,0,0,1-.888.5,1.141,1.141,0,0,0-.912.48,1.788,1.788,0,0,0-.384,1.152v1.056Z"/>
</svg>
