<svg xmlns="http://www.w3.org/2000/svg" width="400" height="200" viewBox="0 0 400 200">
  <defs>
    <style>
      .cls-1 {
        fill: #fdfdfd;
        fill-rule: evenodd;
      }
    </style>
  </defs>
  <path id="王漢宗中魏碑簡" class="cls-1" d="M46.094,87.508a1.109,1.109,0,0,0,0,1.266q0.187,0.938.422,1.875a2.3,2.3,0,0,0,.469,1.078,2.4,2.4,0,0,0,1.078-.094q2.343-.468,4.406-0.75,0.937-.141.937,0.656v6.422a0.761,0.761,0,0,1-.8.8q-2.626.376-5.906,0.516a0.48,0.48,0,0,0-.422.563q0.234,1.266.516,2.531a1.2,1.2,0,0,0,1.453.75q2.577-.422,4.219-0.609,0.937-.093.937,0.7v6.281a0.752,0.752,0,0,1-.8.844q-3.844.281-7.641,0.656a26.656,26.656,0,0,1-4.359.235,0.759,0.759,0,0,0-.8.984q0.187,0.8.422,1.594a1.27,1.27,0,0,0,1.453.75,63.9,63.9,0,0,1,7.266-.985q10.359-.889,18.984-0.89a14.264,14.264,0,0,1,4.359,1.265q1.406,0.7,1.313-.7A5.758,5.758,0,0,0,73,111.367l-0.937-1.828a1.192,1.192,0,0,0-1.312-.891q-1.969.329-4.734,0.516l-7.453.609q-0.984.048-.984-0.7,0-3.234.047-6.422a0.8,0.8,0,0,1,.8-0.89,39.27,39.27,0,0,0,4.359-.7,2.211,2.211,0,0,0,1.359-.61,2.625,2.625,0,0,0,.469-3.375,2.315,2.315,0,0,0-1.078.141q-2.578.516-4.875,0.8-0.984.095-.984-0.656,0-3.094.094-6.094a0.935,0.935,0,0,1,.75-1.078q2.437-.375,5.063-1.031a1.883,1.883,0,0,0,.938-0.562,2.363,2.363,0,0,0,.656-2.25,1.106,1.106,0,0,0-1.359-.8A122.588,122.588,0,0,1,46.8,87.367a1.869,1.869,0,0,0-.7.141h0Zm46.078,1.781a3.03,3.03,0,0,0,.281,1.5q1.969,1.828,3.75,1.359a0.977,0.977,0,0,0,.656-1.266,8.972,8.972,0,0,0-1.031-2.812,11.805,11.805,0,0,1-1.359-3.7q-0.516-.89-1.313.234a14.514,14.514,0,0,0-.984,4.688h0Zm12.609,1.031a2.053,2.053,0,0,0-.937.563l0.234,0.328,0.8,0.938a0.848,0.848,0,0,0,.891.516,21.419,21.419,0,0,1,5.625-1.547,2.009,2.009,0,0,1,.7.094,1.227,1.227,0,0,1,.515,1.406,19.37,19.37,0,0,1-3.187,9.563,2.106,2.106,0,0,1-.375.375,2.593,2.593,0,0,1-.985-0.75q-4.359-3.891-5.671-6.657a1.794,1.794,0,0,0-1.032-.8,2.779,2.779,0,0,0-.515.938,16.568,16.568,0,0,0-.282,1.641,2.145,2.145,0,0,0-.046,1.172,1.69,1.69,0,0,0,.984.984,35.225,35.225,0,0,1,5.578,4.453,0.967,0.967,0,0,1,.141,1.5,28.4,28.4,0,0,1-8.672,6.656,11.672,11.672,0,0,0-1.875,1.172,6.126,6.126,0,0,0-.937.985,1.517,1.517,0,0,0,1.219.562,16.832,16.832,0,0,0,3.75-.187,3.8,3.8,0,0,0,2.719-1.5q1.03-1.03,2.016-1.875a30.143,30.143,0,0,0,3.8-3.469q0.7-.889,1.313-0.094a13.777,13.777,0,0,1,2.109,3,8.837,8.837,0,0,1,.422,2.813,3.2,3.2,0,0,0,2.86,1.968,59.823,59.823,0,0,0,10.312.8,1.128,1.128,0,0,0,.891-0.234,7.135,7.135,0,0,0-1.5-1.078,22.457,22.457,0,0,0-4.688-2.625,61.415,61.415,0,0,1-9.141-6.657,1.111,1.111,0,0,1-.234-1.546,37.054,37.054,0,0,0,3.047-7.032A10.709,10.709,0,0,1,118.7,91.68a2.432,2.432,0,0,0,.844-0.984,2.883,2.883,0,0,0-1.5-1.687q-2.345-1.5-3.844-1.172a81.331,81.331,0,0,0-9.422,2.484h0Zm-17.39,13.032a18.829,18.829,0,0,0,.563,8.953,8.054,8.054,0,0,0,2.484,3.656q1.452,1.452,2.2.281a17.366,17.366,0,0,1,2.063-4.219,10.465,10.465,0,0,0,1.547-3.75,28.737,28.737,0,0,0,1.359-7.453q0-.936-0.234,0a37.3,37.3,0,0,1-3.047,7.313,10.344,10.344,0,0,1-1.219,1.875q-1.125,1.406-2.391.609a3.2,3.2,0,0,1-1.781-2.578,8.46,8.46,0,0,1-.094-2.625,12.763,12.763,0,0,1,4.172-7.687,0.773,0.773,0,0,0,.188-0.937,1.008,1.008,0,0,0-.75-0.7,4.88,4.88,0,0,1-1.828-1.359,1.845,1.845,0,0,0-.8-0.375,1.888,1.888,0,0,0-.609,1.031,73.152,73.152,0,0,0-1.828,7.969h0ZM150.719,83.2a1.654,1.654,0,0,0,.656,1.828,5.605,5.605,0,0,0,1.875,1.031,2.183,2.183,0,0,0,2.391-.234,3.666,3.666,0,0,0-.8-2.719,7.424,7.424,0,0,1-1.172-3.75,1.4,1.4,0,0,0-.375-1.031q-0.236-.187-0.609.188a15.292,15.292,0,0,0-1.969,4.688h0ZM144.2,90.6a0.993,0.993,0,0,0-.469.656,3.672,3.672,0,0,0,.938,2.016,0.593,0.593,0,0,0,.562-0.328,4.14,4.14,0,0,1,.891-0.609A11.989,11.989,0,0,1,148,91.727,46.189,46.189,0,0,1,161.312,89.8a7.582,7.582,0,0,1,3.094.563,1.441,1.441,0,0,1,.469,1.125,4.261,4.261,0,0,1-3,2.906q-0.937.563,0,.7a17.619,17.619,0,0,0,3.937.281,15.58,15.58,0,0,1,1.641.188,2.166,2.166,0,0,0,1.922-.328,13.8,13.8,0,0,0-1.406-4.359,4.052,4.052,0,0,0-1.641-1.641,8.637,8.637,0,0,0-3.75-1.312,24.922,24.922,0,0,0-4.406-.141A72.823,72.823,0,0,0,144.2,90.6h0Zm-6.937,6.328a4.748,4.748,0,0,0,1.875.891,2.827,2.827,0,0,0,1.781.141,3.125,3.125,0,0,0,.187-1.031A12.612,12.612,0,0,1,142,93.18a3.656,3.656,0,0,0,.328-1.078,1.417,1.417,0,0,0-.937.375q-2.064,1.313-4.032,2.813-0.984.891-.093,1.641h0Zm10.125,0a0.938,0.938,0,0,0-.985,1.078,4.044,4.044,0,0,0,.422,1.172q0.422,1.032,1.219.656a43.474,43.474,0,0,1,5.156-.8,32.84,32.84,0,0,0,3.75-.75,1.68,1.68,0,0,0,1.125-.609,2.231,2.231,0,0,0,.188-1.172l-0.094-.7a1.081,1.081,0,0,0-1.5-.609q-4.5.984-9.281,1.734h0Zm12.937,5.484q-3.282.188-11.25,1.313-2.157.28-3.75,0.609a50.431,50.431,0,0,1-7.219.891,0.712,0.712,0,0,0-.562,1.125,2.817,2.817,0,0,0,1.359,1.593,83.26,83.26,0,0,1,11.063-1.968,1.1,1.1,0,0,1,1.219.75,6.406,6.406,0,0,1,.374,1.687q0.046,3.938-.046,7.875a1.425,1.425,0,0,1-1.172,1.031,8.852,8.852,0,0,1-4.406-.656q-0.939-.562-0.75-0.187a4.276,4.276,0,0,0,.75.75,10.563,10.563,0,0,1,1.874,1.453,10.988,10.988,0,0,0,6.563,3.187,1.159,1.159,0,0,0,.984-0.234,0.8,0.8,0,0,0,.094-0.844,9.883,9.883,0,0,1-.7-3.75,71.442,71.442,0,0,1-.141-7.828,4.956,4.956,0,0,1,.61-2.719,0.871,0.871,0,0,1,.843-0.984q7.359-.562,10.313-0.516a7.617,7.617,0,0,0,2.813.047,1.389,1.389,0,0,0-.141-0.984,8.806,8.806,0,0,0-1.219-2.766,1.887,1.887,0,0,0-.937-0.141,35.707,35.707,0,0,1-6.563,1.266h0Zm-2.484,7.078a29.927,29.927,0,0,1,5.718,7.406q1.032,1.593,1.641.516a15.574,15.574,0,0,0,.75-4.687,1.755,1.755,0,0,0-1.031-1.5q-3.328-1.22-6.563-2.11a1.233,1.233,0,0,0-.937-0.14,0.682,0.682,0,0,0,.422.515h0Zm-20.485,6.235a4.3,4.3,0,0,0,1.782,1.312,6.062,6.062,0,0,0,2.765.656,1.527,1.527,0,0,0,.282-0.984,11.813,11.813,0,0,1,3.093-6,4.131,4.131,0,0,0,.8-1.031,1.557,1.557,0,0,0-1.078.328q-3.8,2.531-6.8,4.828a4.7,4.7,0,0,0-.844.891h0Zm60.61-34.313a37.655,37.655,0,0,1,.093,4.172l0.094,4.781a0.822,0.822,0,0,1-.75.891q-4.172.657-7.594,1.453a1.51,1.51,0,0,1-1.078,0l-0.281-.094-1.969.422a1.114,1.114,0,0,0-1.359,1.5,17.347,17.347,0,0,0,.937,4.172q0.328,0.938.61,1.875a9.16,9.16,0,0,0,.844,1.875,16.788,16.788,0,0,1,1.968,3.75,1.5,1.5,0,0,0,1.5.891c0.282-.094.563-0.2,0.844-0.329a19.464,19.464,0,0,1,5.578-1.593q0.984-.187.985,0.562l0.187,14.25a4.981,4.981,0,0,1-.094.985,0.7,0.7,0,0,0-.046.421,3.623,3.623,0,0,0,2.343.469,0.987,0.987,0,0,0,.891-1.125l-0.281-2.156q0-4.969.14-13.125a0.753,0.753,0,0,1,.8-0.844q2.484-.281,4.969-0.422a1.963,1.963,0,0,1,.891.047,1.434,1.434,0,0,0,.609.375,4.634,4.634,0,0,0,2.3-.234,1.692,1.692,0,0,0,1.312-.8l1.172-2.813a31.412,31.412,0,0,1,3.281-6.562,3.27,3.27,0,0,0,.844-1.078,4.839,4.839,0,0,0-.891-0.891,16.371,16.371,0,0,0-4.874-2.2q-4.219,0-9,.422-0.985.094-.985-0.656a44.15,44.15,0,0,1,.75-7.969,1.922,1.922,0,0,0-.187-1.453,4.53,4.53,0,0,0-.891-0.375q-2.625-.656-3.609.141a1.481,1.481,0,0,0-.047,1.266h0Zm13.64,12.75q-1.079,3.282-2.2,6.516a1.188,1.188,0,0,1-1.125.984q-3,0-5.625.234-0.984.048-.984-0.7l0.187-7.453a0.882,0.882,0,0,1,.8-1.031q3.375-.422,7.172-0.656,2.484-.093,1.781,2.109h0ZM198.2,94.117q0.047,3.563.141,7.078a0.935,0.935,0,0,1-.75,1.078q-2.578.329-5.11,0.7a1.973,1.973,0,0,1-1.875-.422,2.5,2.5,0,0,1-.562-0.938,19.639,19.639,0,0,1-.891-4.875,1.1,1.1,0,0,1,.7-1.219,29.392,29.392,0,0,0,3.282-1.125q2.061-.515,3.75-0.8l0.328-.047q0.984-.234.984,0.563h0Zm54-8.437a32.521,32.521,0,0,0-2.109,3.516q-0.516.938-.235,1.078,0.188,0.141-.562.422a5.255,5.255,0,0,1-1.735.281,2.292,2.292,0,0,0-1.031-.047l-0.093.188a6.236,6.236,0,0,0,.093,1.781,38.206,38.206,0,0,0,2.157,7.5,4.229,4.229,0,0,0,1.265,1.969,0.984,0.984,0,0,0,.8-0.187,3.154,3.154,0,0,1,.844-0.328q0.89-.187.609,0.656a37.66,37.66,0,0,1-5.109,10.125q-0.844.938-1.032,0.375a1.6,1.6,0,0,0-.656-0.7l-2.109-.61q-0.939-.373-0.375-1.125,3.234-4.827,3.656-7.453a1.749,1.749,0,0,0-1.359-1.406q-0.985-.282-1.125.422a0.889,0.889,0,0,1-.891.8q-1.312.188-2.531,0.422-1.078.188-.422-0.469c0.344-.406.39-0.687,0.141-0.844-0.375-.218-0.485-0.422-0.329-0.609a1.658,1.658,0,0,1,.657-0.188,1.089,1.089,0,0,0,.937-1.265,13.956,13.956,0,0,1-.094-2.391q0.094-.749.844-0.375a17.758,17.758,0,0,1,2.719,1.875,0.814,0.814,0,0,0,.422.234,2.819,2.819,0,0,0,.469-0.984,1.737,1.737,0,0,0-.094-1.875,13.612,13.612,0,0,0-3.516-.562,0.824,0.824,0,0,1-.8-1.031,1.237,1.237,0,0,1,.75-1.312,20.139,20.139,0,0,1,2.157-.8,1.373,1.373,0,0,0,.937-1.172q-0.095-.749-0.984-0.516l-1.781.422q-0.939.188-.938-0.656l0.047-.328a3.624,3.624,0,0,0,.187-1.031,3.546,3.546,0,0,0-2.39-.516,2.076,2.076,0,0,1-.985,0l0.329-.562a3.255,3.255,0,0,1,1.406-1.312,12.962,12.962,0,0,1,4.218-1.031,3.486,3.486,0,0,0,.61-0.094,3.072,3.072,0,0,0-.188-1.266l-0.187-.469a2.577,2.577,0,0,0-.516-0.891,2.691,2.691,0,0,0-1.031.563,4.679,4.679,0,0,1-1.875.563,17.788,17.788,0,0,0-7.078,5.156q-0.891.938,0,.938a25.8,25.8,0,0,0,3.515-.844q0.891-.609,1.079.188a10.347,10.347,0,0,1,.047,1.688,0.9,0.9,0,0,1-.8.938,65.467,65.467,0,0,1-6.985,1.5,1.944,1.944,0,0,0-1.031.281,3.4,3.4,0,0,0,.8,2.344,2.055,2.055,0,0,0,1.031-.234,41.481,41.481,0,0,1,5.344-1.5q0.984-.187.375,0.656a12.782,12.782,0,0,1-2.391,2.578,20.55,20.55,0,0,1-3.469,2.672,2.538,2.538,0,0,0-.937.7,2.306,2.306,0,0,0,1.031.75q0.844,0.47,2.813-1.359,1.781-1.5,3.515-2.906,0.8-.656.938,0.094a7.134,7.134,0,0,1,0,2.3,1.5,1.5,0,0,0-.281.7c0,0.187-.126.265-0.375,0.234a0.516,0.516,0,0,0-.61.141q-0.281.891-.515,1.734a1.226,1.226,0,0,1-1.032.891q-4.359.8-8.015,1.218a0.753,0.753,0,0,0-.844.7c0.094,0.345.2,0.688,0.328,1.032a1.052,1.052,0,0,0,1.219.375,47.424,47.424,0,0,1,6.281-1.266q0.8-.093.328,0.844a11,11,0,0,1-1.875,2.531,0.411,0.411,0,0,0,.281.609,18.839,18.839,0,0,1,5.3,1.829,2.312,2.312,0,0,1-.7.8,17.031,17.031,0,0,1-7.218,2.766q-0.939.327-.8,0.516a1.663,1.663,0,0,0,.468.234,10.357,10.357,0,0,0,4.875.656,2.161,2.161,0,0,0,1.828-.89,3.123,3.123,0,0,1,.657-0.891q0.843-.7,1.687-1.453a1.055,1.055,0,0,1,1.594-.047q0.7,0.609,1.406,1.266a19.865,19.865,0,0,0,2.11,1.922q0.374,0.421.609,0.281a0.943,0.943,0,0,0,.469-0.75,6.293,6.293,0,0,0,.047-1.406,0.816,0.816,0,0,1,.7-1.032,3.317,3.317,0,0,0,1.687-.562,2.783,2.783,0,0,0,1.172-1.266,3.392,3.392,0,0,1,.235-0.937,53.087,53.087,0,0,1,4.312-7.5q0.327-.329.516-0.188a2.221,2.221,0,0,1,.14,1.313,49.664,49.664,0,0,0-.89,5.484,7.78,7.78,0,0,0,1.125,4.641q0.8,0.936,1.5,1.875a8.419,8.419,0,0,0,3.843.75,30.291,30.291,0,0,0,6.141-.282,2.9,2.9,0,0,1,2.063-.187,2.539,2.539,0,0,0,1.031-.047,0.735,0.735,0,0,0-.047-0.562,6.819,6.819,0,0,1-.094-1.829,15.033,15.033,0,0,0-.562-3.843,7.9,7.9,0,0,1-.563-1.875,13.344,13.344,0,0,0-.656-3.516q-0.422-.937-0.516,0a58.086,58.086,0,0,1-.609,6.984,3.185,3.185,0,0,1-3,2.532,11.843,11.843,0,0,1-6.375-.891,3.678,3.678,0,0,1-1.594-3.609,29.087,29.087,0,0,1,1.172-5.625q0.984-1.641-1.219-1.594a1.266,1.266,0,0,1-.937-0.094l0.281-.515a0.8,0.8,0,0,0-.422-0.844q-0.516-.516.281-0.61l3.469-.468a2.008,2.008,0,0,1,1.36,0,1.2,1.2,0,0,0,1.406-.844q0.749-2.765,1.828-6.094a5.911,5.911,0,0,1,.984-1.875,0.8,0.8,0,0,0,.047-0.937,3.933,3.933,0,0,0-1.734-1.453,2.856,2.856,0,0,0-1.875-.281q-4.594.376-9.375,1.078-0.657.094-.61-0.281l0.563-.469a20.876,20.876,0,0,0,4.781-3.75,1.521,1.521,0,0,0,.188-1.875l-1.032-1.312a0.968,0.968,0,0,0-.8-0.562,2.111,2.111,0,0,0-.562,1.031A12.452,12.452,0,0,1,252.2,85.68h0Zm7.172,5.953a3.244,3.244,0,0,1,.141.938,22.493,22.493,0,0,1-.7,5.906,1.533,1.533,0,0,1-1.359.7l-0.891.141q-0.984.141-.984-0.609V97.4a1.032,1.032,0,0,1,.75-1.031,2.658,2.658,0,0,0,1.406-.562,4.829,4.829,0,0,0,.047-0.984,0.985,0.985,0,0,0-1.312-.656q-0.985.235-.985-0.562l-0.046-1.453a0.863,0.863,0,0,1,.75-1.078q0.936-.093,1.874-0.141a0.988,0.988,0,0,1,1.313.7h0Zm-6.187,2.25a0.915,0.915,0,0,1-.8,1.031,4.344,4.344,0,0,0-.938.094,0.888,0.888,0,0,0-.8,1.125l0.094,0.234a1.287,1.287,0,0,0,1.547.7q0.938-.141.937,0.656,0,0.61.047,1.172a0.935,0.935,0,0,1-.75,1.078l-1.781.187a0.919,0.919,0,0,1-.7-0.75,22.423,22.423,0,0,1-.656-5.766,1.62,1.62,0,0,1,.75-1.312,13.735,13.735,0,0,1,2.2-.656q0.8-.141.8,0.563,0,0.844.047,1.641h0Zm7.078,9.281a22.661,22.661,0,0,1-2.719,5.156,1.3,1.3,0,0,0-.516,1.641q0.468,1.313,1.688.141a29.881,29.881,0,0,1,3.047-1.313q0.843-.422.89,0.281a1.238,1.238,0,0,0,1.078,1.219c0.219,0.094.453,0.2,0.7,0.328q0.936,0.563,1.031.235a4.928,4.928,0,0,0-1.031-2.719,8.658,8.658,0,0,1-.891-1.828q-0.47-.891-0.7-0.516a1.636,1.636,0,0,0-.188.656,1.828,1.828,0,0,1-1.031,1.313,1.227,1.227,0,0,1-1.734.14A21.049,21.049,0,0,1,262,103.773a0.988,0.988,0,0,0,0-.937,1.436,1.436,0,0,0-.75-0.938,0.543,0.543,0,0,0-.516.235,4.119,4.119,0,0,0-.468,1.031h0Zm-16.735,2.063a20.806,20.806,0,0,1-2.25,4.546,1.163,1.163,0,0,1-1.453.563,17.839,17.839,0,0,0-2.156-.75,0.963,0.963,0,0,1-.844-0.563,2.1,2.1,0,0,1,.328-0.937l1.172-1.875a0.9,0.9,0,0,1,.75-0.656q1.641-.423,3.281-0.8l0.329-.047q0.936-.234.843,0.516h0Zm54-20.907q-1.079,1.828-2.2,3.656a9.977,9.977,0,0,1-1.5.328,1.682,1.682,0,0,0-.469.141,2.084,2.084,0,0,0,.047.984,39.392,39.392,0,0,0,2.672,9.563,1.013,1.013,0,0,0,1.453.516,4.418,4.418,0,0,1,1.031-.328q0.844-.187.329,0.563a18.092,18.092,0,0,1-3.282,3.281q-0.984.939-.843,1.032a0.34,0.34,0,0,1,.14.328,2.028,2.028,0,0,1-.8.328,6.714,6.714,0,0,1-2.343.187q-0.8.141-.516-0.7a17.9,17.9,0,0,1,.938-2.437q0.843-.844.328-1.406-1.687-2.156-3.141-1.547l-0.937.188a26.445,26.445,0,0,0-5.391,1.125q-0.939.188-.375-0.562a23.336,23.336,0,0,0,2.25-3.234,19.755,19.755,0,0,1,2.344-3.469,1.873,1.873,0,0,0,.843-1.031,0.819,0.819,0,0,1,.7-0.516q0.938-.327,1.829-0.562a3.892,3.892,0,0,0,.843-0.375,3.462,3.462,0,0,0-.234-1.031l-0.281-.844a1.066,1.066,0,0,0-1.5-.516,30.609,30.609,0,0,1-9.375,1.828,1.147,1.147,0,0,0-.844.281,12.472,12.472,0,0,0,.375,2.438,0.906,0.906,0,0,0,1.266.7,18.257,18.257,0,0,1,2.484-.469q0.938-.093.563,0.656-0.7,1.36-2.813,4.688a22,22,0,0,1-5.109,6.187,5.034,5.034,0,0,0-1.454,1.781,1.852,1.852,0,0,0,1.032.235,13.763,13.763,0,0,0,1.968.047,2.111,2.111,0,0,0,1.407-.75,3.832,3.832,0,0,0,.187-0.469q0.282-.937.656-1.875,0.469-.984.7-0.141a29.712,29.712,0,0,0,1.968,5.438,2.332,2.332,0,0,0,.844,1.078,4.454,4.454,0,0,0,1.219-.469,36.5,36.5,0,0,1,3.75-.937,2.482,2.482,0,0,1,.844.234q0.8,0.422.984-.844a12.268,12.268,0,0,1,.516-1.64q0.373-.937.609-0.235a6.171,6.171,0,0,0,.938,2.391,2.04,2.04,0,0,0,1.031-.281,50.317,50.317,0,0,1,9.14-1.688,0.743,0.743,0,0,1,.985.7l0.375,9.985a24.963,24.963,0,0,1,0,3.046,0.952,0.952,0,0,0,.843,1.172l0.61,0.047a4.007,4.007,0,0,0,1.078-.094,1.187,1.187,0,0,0,.234-1.078l-0.046-.75q-0.048-4.687.093-12.468a0.825,0.825,0,0,1,.8-0.985,41.171,41.171,0,0,1,5.156-.14,21.02,21.02,0,0,1,3.563,1.031,1.181,1.181,0,0,0,1.078-.047,1,1,0,0,0,.047-0.891,11.807,11.807,0,0,0-1.266-2.812,1.239,1.239,0,0,0-1.312-.938,3.749,3.749,0,0,1-1.36.328l-5.578.7q-0.984.095-.937-0.657a6.3,6.3,0,0,1,.047-0.8,1.709,1.709,0,0,0-.094-1.218,3.235,3.235,0,0,0-1.641-.563,3.292,3.292,0,0,0-2.015.422,0.757,0.757,0,0,0,.093.7,7.4,7.4,0,0,1,.141,1.735,0.87,0.87,0,0,1-.75,1.031q-2.3.281-4.594,0.609a2.5,2.5,0,0,1-1.125-.187,2.128,2.128,0,0,1,.7-0.7q1.266-.562,2.532-1.266,0.936-.562.75-0.8a1.7,1.7,0,0,1,.562-1.687,1.866,1.866,0,0,1,1.313-1.031q1.688-.187,3.843-0.281a4.706,4.706,0,0,1,2.016.375,1.39,1.39,0,0,0,.7.188,1.631,1.631,0,0,0,1.125-.047,1.9,1.9,0,0,0,.469-0.984,56.128,56.128,0,0,1,2.625-7.5,4.509,4.509,0,0,0,.609-1.875,1.177,1.177,0,0,0-.187-0.937,5.954,5.954,0,0,0-2.813-1.406,12.117,12.117,0,0,0-4.734-.281q-3.095.376-7.5,1.359-0.657.188-.7-0.234,0.046-.093.375-0.562a18.583,18.583,0,0,0,2.437-2.391,10.883,10.883,0,0,1,1.782-1.687q2.484-1.687-.141-3.422a1.271,1.271,0,0,0-1.735.281q-1.406,1.969-3.281,5.156h0ZM309.3,87.555a2.305,2.305,0,0,1,.094.891,20.217,20.217,0,0,1-1.5,7.078,1.781,1.781,0,0,1-1.36.7l-1.031.094a11.772,11.772,0,0,0-1.828.234c-0.626.063-.828-0.187-0.61-0.75a11.349,11.349,0,0,0,.469-1.922,0.913,0.913,0,0,1,.8-0.937q0.75-.141,1.5-0.234A3.519,3.519,0,0,0,307,92.523a0.707,0.707,0,0,0,.516-0.609,1.673,1.673,0,0,0-.375-1.266,4.329,4.329,0,0,0-1.079.094q-0.7.095-1.312,0.234-1.032.141-1.031-.609a4.793,4.793,0,0,1,.234-1.453q0.375-.468-0.328-0.844-0.328-.281.563-0.422,1.827-.327,3.374-0.469a2.237,2.237,0,0,1,1.735.375h0Zm-8.156,1.266a6.241,6.241,0,0,1,.187,1.734,0.935,0.935,0,0,1-.75,1.078l-1.406.188a0.868,0.868,0,0,0-.8,1.078,1.115,1.115,0,0,0,.328.8,3.785,3.785,0,0,0,1.031-.141,1.733,1.733,0,0,0,.422-0.047q0.984-.187.985,0.609a7.771,7.771,0,0,1-.375,1.922,1.449,1.449,0,0,1-1.078,1.078,16.757,16.757,0,0,1-2.157.234,8.716,8.716,0,0,1-.562-3.656q-0.141-1.874-.188-3.75a0.908,0.908,0,0,1,.657-0.8,5.142,5.142,0,0,1,1.874-.562l0.469-.094a1.1,1.1,0,0,1,1.36.328h0Zm-12.563,12.61a13.844,13.844,0,0,1-.234,3.187q-0.141,1.828-1.172,1.969a18.566,18.566,0,0,1-2.156.609,1.412,1.412,0,0,1-1.407-.89,25.808,25.808,0,0,1-.281-3,1.553,1.553,0,0,1,.281-1.407,7,7,0,0,1,3.61-1.5q1.171-.373,1.359,1.032h0Zm55.875-10.36a2.718,2.718,0,0,0-.562.938,2.233,2.233,0,0,0,1.031-.375,8.262,8.262,0,0,0,3.844-3.328q0.8-.89.937-0.469,0.141,0.516,1.078.141l0.61-.094q0.936-.093.609,0.656a16.92,16.92,0,0,0-.656,2.813,0.659,0.659,0,0,0,.375.844,11.233,11.233,0,0,0,5.062.938q0.7,0.141.469-.469a1.813,1.813,0,0,0-.75-1.312l-1.875-1.266a7.971,7.971,0,0,1-1.219-1.453q-0.375-.937.375-1.125a63.637,63.637,0,0,0,6.516-1.781,1.007,1.007,0,0,0,.844-1.266l-0.282-.844a1.069,1.069,0,0,0-1.547-.422,23.594,23.594,0,0,1-6.984,1.922q-1.032.141-.328-0.7,1.031-1.266,2.25-2.578a1.344,1.344,0,0,0,.281-1.875,3.052,3.052,0,0,0-.937-0.562,2.71,2.71,0,0,0-1.36-.375,1.373,1.373,0,0,0-.8,1.031,95.649,95.649,0,0,1-6.985,11.016h0Zm-8.906-5.906-2.578,3.75a20.559,20.559,0,0,1-3.375,3.8q-0.939.75,0,.844a5.933,5.933,0,0,0,3.984-1.406,2.3,2.3,0,0,0,.61-0.937,2.976,2.976,0,0,1,.7-1.406q0.563-.937,1.218-1.875,0.609-.844.844,0.234a0.946,0.946,0,0,0,1.125.7q0.656-.141.328,0.7a7.643,7.643,0,0,0-.468,1.594,1.817,1.817,0,0,0,.046,1.172,6.222,6.222,0,0,0,2.907,1.031,1.629,1.629,0,0,0,.984-0.187,2.341,2.341,0,0,0-.422-1.594,4.959,4.959,0,0,1-1.5-2.344,0.768,0.768,0,0,1,.563-1.031,5.975,5.975,0,0,1,1.031-.187,20.21,20.21,0,0,0,3.75-.891q1.171-.375,1.078-2.156-0.187-.562-1.125-0.234a44.144,44.144,0,0,1-6.891,1.406q-0.937.047-.328-0.8,1.313-1.781,2.86-3.516a1.058,1.058,0,0,0-.375-1.641l-0.938-.469a0.979,0.979,0,0,0-1.406.281,26.52,26.52,0,0,1-2.625,5.156h0ZM334.7,95.336a5.805,5.805,0,0,0-.422,1.875,1.125,1.125,0,0,0,.516,1.359q2.063,1.688,3.75.891a1.326,1.326,0,0,0-.047-1.828,10.62,10.62,0,0,1-1.641-2.016L336.2,94.258a0.635,0.635,0,0,0-.891.094,3.862,3.862,0,0,0-.609.984h0Zm7.359,0.609q-1.172.328-.843,1.125a2.2,2.2,0,0,0,.609,1.594,30.839,30.839,0,0,1,4.313-1.641,9.649,9.649,0,0,1,5.718-.281,1.964,1.964,0,0,1,1.407,1.969,73.29,73.29,0,0,1-.094,17.906,1.962,1.962,0,0,1-.61,1.078,3.344,3.344,0,0,1-2.3.188,31.4,31.4,0,0,1-3.563-.7q-0.937-.236,0,0.609a18.551,18.551,0,0,0,5.859,3.047q0.938,0.281,1.876.656a2.339,2.339,0,0,0,.937.281,1.837,1.837,0,0,0,1.781-.234,2.778,2.778,0,0,0,0-1.078,22.39,22.39,0,0,1-.422-3.234q-0.046-6.141-.187-12.329a42.411,42.411,0,0,1,.187-6.093,4.425,4.425,0,0,1,.516-1.875q0.984-.984.047-1.453a20.563,20.563,0,0,0-7.735-.609q-4.781.516-7.5,1.078h0Zm-0.609,5.719a2.4,2.4,0,0,1-1.547.047,1.225,1.225,0,0,0-1.265.187,2.2,2.2,0,0,0,.093,1.032q0,1.968-.14,3.937-0.187,2.3-.188,4.547a1.646,1.646,0,0,0,.7,1.781,1.161,1.161,0,0,0,.844-0.328,12.166,12.166,0,0,1,3.75-.89,2.24,2.24,0,0,1,1.875.562,7.7,7.7,0,0,0,1.641.938q0.8,0.609,1.265,0a7.268,7.268,0,0,0,.235-1.735,70.94,70.94,0,0,1,.562-9.562,0.982,0.982,0,0,0-.656-1.453,5.848,5.848,0,0,0-3.563-.188Zm-10.406,16.219q0.234,1.406,1.219.844,1.405-.939,1.172-1.735a53.117,53.117,0,0,1,.75-13.265q0.608-1.312-.329-1.735l-0.937-.422q-1.361-.748-1.453.563-0.469,8.016-.422,15.75h0ZM346.8,103.4l-0.047,6.469a1.727,1.727,0,0,1-.234.8,1.447,1.447,0,0,1-1.125.141,1.091,1.091,0,0,1-.891-0.375,1.313,1.313,0,0,0-1.453-.282l-1.875.235a0.729,0.729,0,0,1-1.078-.656,2.767,2.767,0,0,1-.047-0.891,1.11,1.11,0,0,1,.891-1.078,22.726,22.726,0,0,0,3.046-.75,1.269,1.269,0,0,0,.938-1.078q-0.141-.657-1.078-0.469l-2.438.422q-0.937.188-.937-0.563a8.128,8.128,0,0,1,.328-1.875,11.172,11.172,0,0,1,4.359-1.64q1.266-.187,1.641,1.593h0Z"/>
</svg>
