<svg xmlns="http://www.w3.org/2000/svg" width="1540" height="1450" viewBox="0 0 1540 1450">
  <defs>
    <style>
      .cls-1 {
        fill: #fff;
      }

      .cls-1, .cls-2, .cls-3 {
        fill-rule: evenodd;
      }

      .cls-2 {
        fill: #fefefe;
      }

      .cls-3 {
        fill: #fdfdfd;
      }
    </style>
  </defs>
  <path id="字体名称" class="cls-1" d="M127.039,185.578q-1.566,1.37,0,5.274,0.779,3.909,1.758,7.812a9.573,9.573,0,0,0,1.953,4.492q0.587,0.394,4.492-.39,9.765-1.95,18.36-3.125,3.9-.586,3.906,2.734v26.758q0,2.929-3.32,3.32-10.941,1.566-24.61,2.149-2.151.781-1.758,2.343,0.975,5.274,2.149,10.547a5.017,5.017,0,0,0,6.054,3.125q10.74-1.758,17.579-2.539,3.9-.389,3.906,2.93V277.18a3.133,3.133,0,0,1-3.32,3.515q-16.019,1.173-31.836,2.735a110.99,110.99,0,0,1-18.164.976q-4.1.587-3.321,4.1,0.778,3.323,1.758,6.64,2.147,3.906,6.055,3.125a266.161,266.161,0,0,1,30.273-4.1q43.162-3.708,79.1-3.711a59.542,59.542,0,0,1,18.164,5.273q5.859,2.931,5.469-2.929a23.988,23.988,0,0,0-2.54-7.813l-3.906-7.617q-1.566-4.1-5.469-3.711-8.2,1.37-19.726,2.148l-31.055,2.54q-4.1.2-4.1-2.93,0-13.476.2-26.758a3.354,3.354,0,0,1,3.32-3.711,163.361,163.361,0,0,0,18.164-2.93q3.9-.585,5.664-2.539,6.249-7.031,1.954-14.062-0.587-.39-4.493.586-10.743,2.151-20.312,3.32-4.1.395-4.1-2.734,0-12.891.391-25.391,0-3.9,3.125-4.492,10.154-1.562,21.094-4.3a7.849,7.849,0,0,0,3.906-2.344q4.1-4.879,2.734-9.375-1.565-4.1-5.664-3.32-44.338,7.228-70.9,7.617a7.786,7.786,0,0,0-2.93.586h0ZM319.031,193q0,4.3,1.172,6.25,8.2,7.617,15.625,5.664,3.708-1.561,2.734-5.273a37.376,37.376,0,0,0-4.3-11.719,49.148,49.148,0,0,1-5.664-15.43q-2.153-3.708-5.469.977-3.324,7.814-4.1,19.531h0Zm52.539,4.3q-3.909,1.758-3.906,2.344l0.977,1.367,3.32,3.906q1.95,2.738,3.711,2.148,13.668-5.464,23.437-6.445a8.35,8.35,0,0,1,2.93.391,5.111,5.111,0,0,1,2.149,5.859,80.721,80.721,0,0,1-13.282,39.844,8.6,8.6,0,0,1-1.562,1.562q-0.587.2-4.1-3.125-18.164-16.209-23.633-27.734-2.151-2.929-4.3-3.32-0.393,0-2.148,3.906a67.937,67.937,0,0,0-1.172,6.836q-0.783,3.712-.195,4.883a7.045,7.045,0,0,0,4.1,4.1,146.743,146.743,0,0,1,23.243,18.555q3.318,3.324.586,6.25-13.87,16.214-36.133,27.734a48.563,48.563,0,0,0-7.813,4.883q-3.713,3.516-3.906,4.1a6.327,6.327,0,0,0,5.078,2.344,69.906,69.906,0,0,0,15.625-.782q7.809-1.171,11.328-6.25,4.295-4.293,8.4-7.812,10.738-8.592,15.82-14.453,2.929-3.708,5.469-.391,7.223,8.6,8.789,12.5a36.9,36.9,0,0,1,1.758,11.719q2.733,7.031,11.914,8.2a249.605,249.605,0,0,0,42.968,3.32q3.906-.393,3.711-0.976a29.806,29.806,0,0,0-6.25-4.493,93.53,93.53,0,0,0-19.531-10.937q-16.8-9.567-38.086-27.734-3.126-2.733-.976-6.446a154.573,154.573,0,0,0,12.695-29.3,44.616,44.616,0,0,1,16.992-20.9q3.516-3.122,3.516-4.1-0.783-3.708-6.25-7.031-9.769-6.249-16.016-4.883A338.666,338.666,0,0,0,371.57,197.3h0Zm-72.461,54.3a78.457,78.457,0,0,0,2.344,37.3,33.556,33.556,0,0,0,10.352,15.235q6.051,6.051,9.179,1.172a72.336,72.336,0,0,1,8.594-17.578,43.614,43.614,0,0,0,6.445-15.625,119.78,119.78,0,0,0,5.665-31.055q0-3.9-.977,0a155.493,155.493,0,0,1-12.695,30.469,43.149,43.149,0,0,1-5.078,7.812q-4.689,5.859-9.961,2.539a13.324,13.324,0,0,1-7.422-10.742,35.233,35.233,0,0,1-.391-10.937q2.537-18.165,17.383-32.032a3.221,3.221,0,0,0,.781-3.906,4.2,4.2,0,0,0-3.125-2.93,20.32,20.32,0,0,1-7.617-5.664,7.7,7.7,0,0,0-3.32-1.562q-0.783,0-2.539,4.3a304.563,304.563,0,0,0-7.618,33.2h0Zm263.868-83.985q-1.173,4.5,2.734,7.618a23.327,23.327,0,0,0,7.812,4.3q6.446,2.345,9.961-.976a15.264,15.264,0,0,0-3.32-11.328,30.922,30.922,0,0,1-4.883-15.625,5.818,5.818,0,0,0-1.562-4.3q-0.98-.779-2.539.781a63.74,63.74,0,0,0-8.2,19.531h0Zm-27.149,30.86q-1.955,1.565-1.953,2.734a15.282,15.282,0,0,0,3.906,8.4q0.779,0.393,2.344-1.368a17.2,17.2,0,0,1,3.711-2.539,50.058,50.058,0,0,1,7.812-2.539q32.419-8.788,55.469-8.008,8.592,0.2,12.891,2.344a6.006,6.006,0,0,1,1.953,4.688q-2.344,8.6-12.5,12.109-3.909,2.345,0,2.93a73.484,73.484,0,0,0,16.406,1.172,64.845,64.845,0,0,1,6.836.781q6.249,0.783,8.008-1.367a57.486,57.486,0,0,0-5.859-18.164q-1.37-3.319-6.836-6.836a36,36,0,0,0-15.625-5.469q-5.86-.975-18.36-0.586a303.4,303.4,0,0,0-58.2,11.719h0Zm-28.906,26.367a19.786,19.786,0,0,0,7.812,3.711q5.077,1.566,7.422.586,0.39-.39.782-4.3a52.473,52.473,0,0,1,3.71-15.625,15.2,15.2,0,0,0,1.368-4.492q0-.587-3.907,1.562-8.6,5.47-16.8,11.719-4.1,3.712-.39,6.836h0Zm42.187,0q-4.3.393-4.1,4.492a16.831,16.831,0,0,0,1.758,4.883q1.758,4.3,5.078,2.734a181.089,181.089,0,0,1,21.484-3.32,136.77,136.77,0,0,0,15.625-3.125,7,7,0,0,0,4.688-2.539q0.777-.975.781-4.883l-0.391-2.93q-1.171-3.707-6.25-2.539-18.75,4.1-38.672,7.227h0Zm53.907,22.852q-13.674.782-46.875,5.468-8.986,1.173-15.625,2.539a209.638,209.638,0,0,1-30.078,3.711q-3.91.783-2.344,4.688,2.147,5.08,5.664,6.64a347.032,347.032,0,0,1,46.094-8.2q3.9-.192,5.078,3.125a26.768,26.768,0,0,1,1.562,7.032q0.192,16.406-.195,32.812-1.758,4.1-4.883,4.3a36.881,36.881,0,0,1-18.359-2.735q-3.91-2.343-3.125-.781a17.7,17.7,0,0,0,3.125,3.125,44.126,44.126,0,0,1,7.812,6.055q13.083,12.108,27.344,13.281a4.826,4.826,0,0,0,4.1-.976,3.326,3.326,0,0,0,.391-3.516,41.208,41.208,0,0,1-2.93-15.625,297.407,297.407,0,0,1-.585-32.617,20.648,20.648,0,0,1,2.539-11.328q0.192-3.9,3.515-4.1,30.662-2.343,42.969-2.148,8.592,1.171,11.719.195,0.585-.389-0.586-4.1A36.713,36.713,0,0,0,634.266,243q-0.783-.587-3.907-0.586a148.9,148.9,0,0,1-27.343,5.274h0ZM592.664,277.18q15.624,15.234,23.828,30.859,4.295,6.638,6.836,2.149,2.344-5.471,3.125-19.532,0-3.708-4.3-6.25-13.87-5.076-27.344-8.789-3.909-1.171-3.906-.586a2.848,2.848,0,0,0,1.758,2.149h0Zm-85.352,25.976a17.868,17.868,0,0,0,7.422,5.469q7.224,3.122,11.524,2.734,0.779-.393,1.172-4.1,1.758-12.3,12.89-25,3.319-3.708,3.321-4.3-0.587-.587-4.493,1.367-15.819,10.547-28.32,20.117-3.516,3.32-3.516,3.711h0Zm252.54-142.968a156.377,156.377,0,0,1,.39,17.382l0.391,19.922a3.427,3.427,0,0,1-3.125,3.711q-17.387,2.737-31.641,6.055-3.322.783-4.492,0l-1.172-.391-8.2,1.758a7.3,7.3,0,0,0-4.883,1.367q-0.979.98-.781,4.883a72.147,72.147,0,0,0,3.906,17.383q1.365,3.909,2.539,7.812a38.263,38.263,0,0,0,3.516,7.813,69.863,69.863,0,0,1,8.2,15.625q2.343,4.1,6.25,3.711,1.758-.587,3.516-1.367,6.638-3.708,23.242-6.641,4.1-.779,4.1,2.344l0.782,59.375a21,21,0,0,1-.391,4.1,2.961,2.961,0,0,0-.2,1.758,15.107,15.107,0,0,0,9.765,1.953q3.9-.783,3.711-4.687l-1.172-8.985q0-20.7.586-54.687a3.134,3.134,0,0,1,3.321-3.516q10.35-1.172,20.7-1.758,3.318-.192,3.711.2a6.021,6.021,0,0,0,2.539,1.562,19.293,19.293,0,0,0,9.57-.976,7.059,7.059,0,0,0,5.469-3.321l4.883-11.718q7.421-18.75,13.671-27.344a13.686,13.686,0,0,0,3.516-4.492q0-.39-3.711-3.711-12.5-7.617-20.312-9.18-17.578,0-37.5,1.758-4.1.393-4.1-2.735,0.39-20.113,3.125-33.2,0.587-4.489-.781-6.054a18.8,18.8,0,0,0-3.711-1.563q-10.941-2.733-15.039.586-1.172,1.37-.2,5.274h0Zm56.836,53.124q-4.5,13.674-9.18,27.149-1.37,4.1-4.688,4.1-12.5,0-23.437.977-4.1.2-4.1-2.93l0.781-31.054q0-3.9,3.321-4.3,14.063-1.758,29.883-2.735,10.35-.388,7.422,8.789h0Zm-55.86-.2q0.192,14.846.586,29.492,0,3.91-3.125,4.493Q747.546,248.47,737,250.031a8.2,8.2,0,0,1-7.812-1.758,10.375,10.375,0,0,1-2.344-3.906,81.813,81.813,0,0,1-3.711-20.312q-0.2-3.9,2.929-5.078a122.656,122.656,0,0,0,13.672-4.688q8.593-2.146,15.625-3.32l1.368-.2q4.1-.975,4.1,2.344h0Zm225-35.156a135.5,135.5,0,0,0-8.789,14.648q-2.151,3.91-.977,4.493,0.779,0.585-2.343,1.757a21.879,21.879,0,0,1-7.227,1.172q-3.909-.585-4.3-0.195l-0.39.781a25.945,25.945,0,0,0,.39,7.422,159.134,159.134,0,0,0,8.985,31.25,17.609,17.609,0,0,0,5.273,8.2,4.092,4.092,0,0,0,3.32-.781,13.175,13.175,0,0,1,3.516-1.367q3.708-.779,2.539,2.734-10.355,28.321-21.289,42.188-3.516,3.909-4.3,1.562a6.712,6.712,0,0,0-2.734-2.93l-8.789-2.539q-3.909-1.56-1.563-4.687,13.477-20.115,15.235-31.055-0.2-3.708-5.664-5.859-4.1-1.172-4.688,1.758-0.2,2.738-3.711,3.32-5.47.783-10.547,1.758-4.5.783-1.758-1.953,2.148-2.537.586-3.516-2.343-1.363-1.367-2.539a6.843,6.843,0,0,1,2.735-.781q3.9-.587,3.906-5.274a58.029,58.029,0,0,1-.391-9.961q0.39-3.121,3.516-1.562a73.881,73.881,0,0,1,11.328,7.812,3.4,3.4,0,0,0,1.758.977q0.388,0,1.953-4.1,1.95-5.464-.391-7.812a56.727,56.727,0,0,0-14.648-2.344q-3.324,0-3.32-4.3t3.124-5.469a84.07,84.07,0,0,1,8.985-3.32q3.9-1.95,3.906-4.883-0.393-3.121-4.1-2.148l-7.422,1.758q-3.91.783-3.907-2.735l0.2-1.367q0.975-3.9.781-4.3a14.778,14.778,0,0,0-9.961-2.148q-3.909.393-4.1,0l1.367-2.344q3.318-4.687,5.859-5.469a54.016,54.016,0,0,1,17.578-4.3,14.542,14.542,0,0,0,2.539-.39q0.39-.587-0.781-5.274l-0.781-1.953a10.755,10.755,0,0,0-2.149-3.711q-0.585-.192-4.3,2.344a19.522,19.522,0,0,1-7.812,2.344q-14.649,5.081-29.492,21.484-3.713,3.909,0,3.906a107.335,107.335,0,0,0,14.648-3.515q3.708-2.537,4.492.781a42.6,42.6,0,0,1,.2,7.031q0,3.127-3.321,3.907a273.032,273.032,0,0,1-29.1,6.25q-4.1.585-4.3,1.171a14.148,14.148,0,0,0,3.32,9.766q0.39,0.394,4.3-.976a172.8,172.8,0,0,1,22.266-6.25q4.1-.778,1.562,2.734a53.131,53.131,0,0,1-9.961,10.742,85.869,85.869,0,0,1-14.453,11.133q-3.909,2.343-3.906,2.93a9.655,9.655,0,0,0,4.3,3.125q3.516,1.954,11.719-5.664,7.419-6.249,14.648-12.11,3.319-2.733,3.906.391a29.6,29.6,0,0,1,0,9.57,6.314,6.314,0,0,0-1.172,2.93c0,0.781-.521,1.108-1.562.976a2.151,2.151,0,0,0-2.539.586q-1.172,3.712-2.149,7.227a5.1,5.1,0,0,1-4.3,3.711q-18.163,3.323-33.4,5.078-3.516.393-3.516,2.93,0.587,2.151,1.368,4.3,1.56,2.344,5.078,1.563a198.08,198.08,0,0,1,26.172-5.274q3.318-.389,1.367,3.516a45.92,45.92,0,0,1-7.813,10.547q-0.783,1.758,1.172,2.539a78.581,78.581,0,0,1,22.07,7.617q0.193,0.394-2.929,3.321-11.133,8.2-30.078,11.523-3.91,1.363-3.321,2.148a6.847,6.847,0,0,0,1.954.977,43.181,43.181,0,0,0,20.312,2.734q6.249-.781,7.617-3.711a12.968,12.968,0,0,1,2.735-3.711q3.515-2.93,7.031-6.054,3.121-3.121,6.64-.2,2.931,2.536,5.86,5.274a82.543,82.543,0,0,0,8.789,8.008q1.561,1.758,2.539,1.172a3.933,3.933,0,0,0,1.953-3.125,25.952,25.952,0,0,0,.2-5.86q-0.393-3.713,2.93-4.3,4.88-.585,7.031-2.343a11.63,11.63,0,0,0,4.883-5.274,14.232,14.232,0,0,1,.977-3.906,221.609,221.609,0,0,1,17.968-31.25c0.91-.909,1.627-1.172,2.149-0.781q0.975,1.565.586,5.468a206.88,206.88,0,0,0-3.711,22.852q-0.98,9.183,4.687,19.336,3.317,3.9,6.251,7.812,6.045,3.123,16.02,3.125,18.54,0.39,25.58-1.171a12.068,12.068,0,0,1,8.59-.782c2.61,0.128,4.04.064,4.3-.195a3.063,3.063,0,0,0-.19-2.344c-0.39-1.3-.53-3.842-0.39-7.617a63.086,63.086,0,0,0-2.35-16.016,33.009,33.009,0,0,1-2.34-7.812,55.071,55.071,0,0,0-2.74-14.648c-1.17-2.6-1.89-2.6-2.14,0a244.672,244.672,0,0,1-2.54,29.1q-2.16,9.183-12.5,10.547a49.386,49.386,0,0,1-26.57-3.711q-7.815-5.859-6.64-15.039a120.843,120.843,0,0,1,4.89-23.438q4.1-6.834-5.08-6.64c-2.608.131-3.908,0-3.908-.391l1.171-2.148q0.587-1.561-1.757-3.516-2.152-2.147,1.172-2.539l14.452-1.953a8.346,8.346,0,0,1,5.66,0q3.915,0.783,5.86-3.516,3.135-11.521,7.62-25.39a24.641,24.641,0,0,1,4.1-7.813,3.337,3.337,0,0,0,.2-3.906,16.386,16.386,0,0,0-7.23-6.055,11.894,11.894,0,0,0-7.81-1.172q-19.14,1.566-39.063,4.493-2.737.393-2.539-1.172l2.343-1.953a86.948,86.948,0,0,0,19.919-15.625c2.08-2.6,2.35-5.207.78-7.813l-4.292-5.469q-2.152-2.733-3.321-2.343-0.783.2-2.344,4.3a51.872,51.872,0,0,1-6.445,10.938h0Zm29.882,24.8a13.575,13.575,0,0,1,.59,3.906,93.9,93.9,0,0,1-2.93,24.609,6.4,6.4,0,0,1-5.67,2.93l-3.71.586q-4.1.586-4.1-2.539v-5.469a4.3,4.3,0,0,1,3.129-4.3,11.121,11.121,0,0,0,5.86-2.344,21.206,21.206,0,0,0,.19-4.1q-0.975-3.516-5.47-2.735-4.1.981-4.1-2.343l-0.2-6.055c-0.132-2.734.905-4.23,3.125-4.492,2.6-.26,5.21-0.455,7.81-0.586q4.5-.779,5.47,2.93h0Zm-25.78,9.375q0,3.713-3.321,4.3a18.119,18.119,0,0,0-3.906.39q-3.909.783-3.32,4.688l0.39,0.976a5.361,5.361,0,0,0,6.446,2.93q3.9-.586,3.906,2.734,0,2.541.2,4.883,0,3.909-3.125,4.492l-7.422.781a3.826,3.826,0,0,1-2.929-3.124q-2.345-7.224-2.735-24.024,0-3.121,3.125-5.469a57.285,57.285,0,0,1,9.18-2.734q3.319-.587,3.32,2.344,0,3.514.2,6.836h0Zm29.49,38.671q-6.645,15.82-11.33,21.485-3.705,2.737-2.14,6.836,1.95,5.47,7.03.586a124.318,124.318,0,0,1,12.69-5.469c2.35-1.172,3.58-.781,3.71,1.172q0.78,4.688,4.5,5.078c0.9,0.391,1.88.848,2.92,1.367q3.915,2.344,4.3.977a20.458,20.458,0,0,0-4.3-11.328,36.22,36.22,0,0,1-3.71-7.618q-1.95-3.707-2.93-2.148a6.854,6.854,0,0,0-.78,2.734,7.62,7.62,0,0,1-4.29,5.469q-3.915,3.324-7.23.586a87.143,87.143,0,0,1,8.79-17.187,4.124,4.124,0,0,0,0-3.907,5.953,5.953,0,0,0-3.13-3.906,2.245,2.245,0,0,0-2.14.977,16.764,16.764,0,0,0-1.96,4.3h0ZM949.7,259.406q-2.54,8.012-9.375,18.946-2.738,3.713-6.054,2.343a74.812,74.812,0,0,0-8.985-3.125q-2.737-.389-3.515-2.343-0.2-.778,1.367-3.907l4.883-7.812q1.56-2.929,3.125-2.735,6.834-1.757,13.671-3.32l1.368-.195q3.9-.975,3.515,2.148h0ZM1174.7,172.3q-4.5,7.617-9.18,15.234a41.689,41.689,0,0,1-6.25,1.367,6.987,6.987,0,0,0-1.96.586c-0.26.263-.19,1.63,0.2,4.1a164.052,164.052,0,0,0,11.13,39.844q2.145,3.909,6.06,2.148a18.342,18.342,0,0,1,4.29-1.367c2.35-.519,2.8.262,1.37,2.344a75.483,75.483,0,0,1-13.67,13.672q-4.11,3.909-3.52,4.3a1.418,1.418,0,0,1,.59,1.368,8.475,8.475,0,0,1-3.32,1.367,27.961,27.961,0,0,1-9.77.781q-3.315.587-2.15-2.93a76.928,76.928,0,0,1,3.91-10.156q3.51-3.516,1.37-5.859-7.035-8.982-13.09-6.446l-3.91.782a110.145,110.145,0,0,0-22.46,4.687q-3.9.783-1.56-2.344a96.74,96.74,0,0,0,9.38-13.476,82.7,82.7,0,0,1,9.76-14.453c2.47-2.082,3.65-3.516,3.52-4.3-0.13-.65.84-1.367,2.93-2.149q3.9-1.363,7.61-2.343a16.015,16.015,0,0,0,3.52-1.563c0.13-.259-0.2-1.69-0.98-4.3l-1.17-3.515q-1.755-3.708-6.25-2.149a127.485,127.485,0,0,1-39.06,7.617,4.789,4.789,0,0,0-3.52,1.172,51.276,51.276,0,0,0,1.57,10.157c1.04,2.865,2.79,3.842,5.27,2.929a76.331,76.331,0,0,1,10.35-1.953c2.6-.259,3.39.653,2.34,2.735q-2.925,5.667-11.71,19.531a91.919,91.919,0,0,1-21.29,25.781,20.852,20.852,0,0,0-6.06,7.422c0.13,0.39,1.56.717,4.3,0.976a57.009,57.009,0,0,0,8.2.2,8.77,8.77,0,0,0,5.86-3.125,15.075,15.075,0,0,0,.78-1.953q1.17-3.906,2.74-7.813c1.3-2.734,2.27-2.93,2.93-.586q4.29,15.234,8.2,22.656a9.668,9.668,0,0,0,3.52,4.493q0.39,0.2,5.07-1.954a153.072,153.072,0,0,1,15.63-3.906,10.309,10.309,0,0,1,3.51.977c2.22,1.172,3.58,0,4.11-3.516a50,50,0,0,1,2.14-6.836c1.05-2.6,1.89-2.929,2.54-.976q1.77,7.425,3.91,9.961,0.39,0.393,4.3-1.172a209.837,209.837,0,0,1,38.08-7.032c2.61-.259,3.97.718,4.1,2.93l1.57,41.6a103.4,103.4,0,0,1,0,12.695q-0.585,3.9,3.51,4.883l2.54,0.195a16.849,16.849,0,0,0,4.49-.39c0.78-.391,1.11-1.889.98-4.493l-0.2-3.125q-0.195-19.531.4-51.953c0-2.6,1.1-3.97,3.32-4.1a171.982,171.982,0,0,1,21.48-.586,88,88,0,0,1,14.84,4.3q3.915,0.781,4.5-.2a4.174,4.174,0,0,0,.19-3.711,49.194,49.194,0,0,0-5.27-11.718c-1.17-2.863-3-4.166-5.47-3.907a15.687,15.687,0,0,1-5.67,1.368l-23.24,2.929q-4.1.394-3.9-2.734a26.881,26.881,0,0,1,.19-3.32q0.585-3.906-.39-5.079-2.145-1.756-6.83-2.343-5.67-.192-8.4,1.757c-0.39.391-.27,1.368,0.39,2.93a31.017,31.017,0,0,1,.58,7.227q0,3.909-3.12,4.3-9.57,1.172-19.14,2.539c-2.74-.128-4.3-0.391-4.69-0.782,0-.39.98-1.367,2.93-2.929q5.28-2.344,10.55-5.274,3.9-2.343,3.12-3.32-1.17-2.93,2.35-7.031,2.34-3.9,5.46-4.3,7.035-.779,16.02-1.172a19.657,19.657,0,0,1,8.4,1.562,5.773,5.773,0,0,0,2.93.782q3.9,0.585,4.69-.2a7.875,7.875,0,0,0,1.95-4.1,233.371,233.371,0,0,1,10.94-31.25,19,19,0,0,0,2.54-7.813,4.914,4.914,0,0,0-.79-3.906q-6.24-5.076-11.71-5.859a50.5,50.5,0,0,0-19.73-1.172q-12.9,1.566-31.25,5.664c-1.83.522-2.8,0.195-2.93-.977q0.2-.389,1.56-2.343a77.212,77.212,0,0,0,10.16-9.961,45.41,45.41,0,0,1,7.42-7.032q10.35-7.03-.59-14.257-3.9-2.344-7.22,1.171-5.865,8.2-13.67,21.485h0Zm49.02,13.476q0.39,0.586.39,3.711-0.78,16.8-6.25,29.493a7.406,7.406,0,0,1-5.66,2.929l-4.3.391a49.05,49.05,0,0,0-7.62.976q-3.9.395-2.54-3.125a48.781,48.781,0,0,0,1.96-8.007q0.375-3.516,3.32-3.907,3.12-.585,6.25-0.976a14.651,14.651,0,0,0,4.88-.781c1.43-.65,2.15-1.5,2.15-2.539a6.917,6.917,0,0,0-1.57-5.274,18.007,18.007,0,0,0-4.49.391c-1.95.262-3.78,0.586-5.47,0.976q-4.29.587-4.29-2.539a19.74,19.74,0,0,1,.97-6.054q1.56-1.951-1.36-3.516-1.38-1.172,2.34-1.758,7.62-1.363,14.06-1.953c3-.391,5.4.131,7.23,1.562h0Zm-33.99,5.274a25.8,25.8,0,0,1,.79,7.226c0,2.607-1.05,4.1-3.13,4.493l-5.86.781q-3.705.586-3.32,4.492a4.643,4.643,0,0,0,1.37,3.32c0.26,0.132,1.69-.064,4.3-0.586a7.158,7.158,0,0,0,1.75-.195c2.74-.519,4.1.327,4.1,2.539a32.144,32.144,0,0,1-1.56,8.008q-1.365,3.909-4.49,4.492a69.7,69.7,0,0,1-8.98.977q-2.355-4.687-2.35-15.235-0.585-7.809-.78-15.625a3.782,3.782,0,0,1,2.73-3.32,21.518,21.518,0,0,1,7.82-2.344l1.95-.39q4.485-.975,5.66,1.367h0Zm-52.34,52.539a57.036,57.036,0,0,1-.98,13.281q-0.585,7.617-4.88,8.2a77.183,77.183,0,0,1-8.98,2.539q-3.915.2-5.86-3.711a107.98,107.98,0,0,1-1.17-12.5c-0.4-2.862,0-4.815,1.17-5.859q5.265-4.687,15.04-6.25,4.875-1.561,5.66,4.3h0Zm232.81-43.164q-2.535,3.516-2.34,3.906t4.3-1.562q9.375-3.708,16.01-13.868c2.21-2.471,3.52-3.125,3.91-1.953,0.39,1.435,1.88,1.63,4.49.586l2.54-.39q3.9-.39,2.54,2.734a70.586,70.586,0,0,0-2.74,11.719,2.747,2.747,0,0,0,1.57,3.515q11.715,4.688,21.09,3.907,2.925,0.585,1.95-1.954,0-2.731-3.12-5.468l-7.81-5.274a32.941,32.941,0,0,1-5.08-6.054c-1.05-2.6-.52-4.166,1.56-4.688q9.18-1.758,27.15-7.422,4.485-1.56,3.51-5.273l-1.17-3.516q-2.145-3.708-6.44-1.758a98.374,98.374,0,0,1-29.1,8.008c-2.87.391-3.32-.586-1.37-2.929q4.29-5.274,9.37-10.743,3.915-4.293,1.18-7.812a12.908,12.908,0,0,0-3.91-2.344,11.3,11.3,0,0,0-5.67-1.562q-1.95.393-3.32,4.3-10.935,20.706-29.1,45.9h0Zm-37.11-24.61-10.74,15.626a85.672,85.672,0,0,1-14.06,15.82q-3.915,3.126,0,3.515a24.709,24.709,0,0,0,16.6-5.859,9.55,9.55,0,0,0,2.54-3.906,12.506,12.506,0,0,1,2.93-5.86q2.34-3.9,5.08-7.812,2.535-3.516,3.51.976c0.91,2.344,2.48,3.321,4.69,2.93q2.73-.585,1.37,2.93a32.8,32.8,0,0,0-1.96,6.64q-0.585,3.911.2,4.883a25.876,25.876,0,0,0,12.11,4.3c2.6-.128,3.97-0.39,4.1-0.781,0.39-1.691-.19-3.906-1.76-6.641q-5.07-4.879-6.25-9.765-0.78-3.32,2.35-4.3a24.824,24.824,0,0,1,4.29-.781,84.162,84.162,0,0,0,15.63-3.711q4.875-1.561,4.49-8.985-0.78-2.343-4.69-.976a183.963,183.963,0,0,1-28.71,5.859c-2.6.131-3.06-.976-1.36-3.32q5.46-7.421,11.91-14.649,2.73-3.514-1.56-6.836l-3.91-1.953c-2.34-1.3-4.3-.909-5.86,1.172a110.038,110.038,0,0,1-10.94,21.484h0Zm-3.51,42.383a24,24,0,0,0-1.76,7.813c-0.78,2.084-.07,3.973,2.15,5.664q8.6,7.031,15.62,3.711,2.94-2.929-.19-7.617-5.28-5.466-6.84-8.4l-2.73-5.664q-1.365-1.363-3.71.391a16.1,16.1,0,0,0-2.54,4.1h0Zm30.66,2.539c-3.25.913-4.43,2.475-3.51,4.688q0.18,4.5,2.54,6.64a128.1,128.1,0,0,1,17.96-6.835q14.85-4.294,23.83-1.172,6.45,3.126,5.86,8.2,4.29,44.728-.39,74.609a8.185,8.185,0,0,1-2.54,4.492q-3.315,1.95-9.57.782a129.973,129.973,0,0,1-14.84-2.93q-3.915-.98,0,2.539,13.47,9.764,24.41,12.695,3.915,1.173,7.81,2.735a9.882,9.882,0,0,0,3.91,1.172c3.64,0.781,6.12.454,7.42-.977q0.39-.783,0-4.492a91.859,91.859,0,0,1-1.75-13.477q-0.21-25.584-.79-51.367-0.39-16.405.79-25.391a18.352,18.352,0,0,1,2.14-7.812q4.11-4.1.2-6.055-17.97-4.491-32.23-2.539-19.92,2.153-31.25,4.492h0Zm-2.54,23.828a9.986,9.986,0,0,1-6.44.2c-2.35-.65-4.1-0.391-5.28.781-0.26.263-.13,1.694,0.4,4.3q0,8.2-.59,16.406-0.78,9.571-.78,18.946a6.836,6.836,0,0,0,2.93,7.421,4.833,4.833,0,0,0,3.51-1.367,50.79,50.79,0,0,1,15.63-3.711q3.9-.779,7.81,2.344a31.814,31.814,0,0,0,6.84,3.906q3.315,2.541,5.27,0a30.1,30.1,0,0,0,.98-7.226,296.069,296.069,0,0,1,2.34-39.844q1.95-3.9-2.73-6.055a24.4,24.4,0,0,0-14.85-.781Zm-43.36,67.579q0.975,5.859,5.08,3.515,5.865-3.909,4.88-7.226a221.431,221.431,0,0,1,3.13-55.274q2.535-5.466-1.37-7.226l-3.9-1.758q-5.67-3.121-6.06,2.344-1.95,33.4-1.76,65.625h0Zm65.63-60.352-0.2,26.953a7.166,7.166,0,0,1-.97,3.32c-0.52.654-2.09,0.849-4.69,0.586-2.34-.39-3.58-0.909-3.71-1.562-1.44-1.563-3.45-1.953-6.06-1.172l-7.81.977q-3.9,1.171-4.49-2.735a11.68,11.68,0,0,1-.2-3.711q0.39-3.708,3.71-4.492a94.437,94.437,0,0,0,12.7-3.125c2.6-1.172,3.91-2.667,3.91-4.492q-0.585-2.733-4.5-1.953l-10.15,1.758q-3.915.781-3.91-2.344a34.132,34.132,0,0,1,1.37-7.813,46.568,46.568,0,0,1,18.16-6.836q5.28-.777,6.84,6.641h0Z"/>
  <path id="中文示例" class="cls-2" d="M302.875,715.344a3.3,3.3,0,0,1-1.953,0,12.321,12.321,0,0,0-3.906-.977,1.383,1.383,0,0,0-1.563.879,10.915,10.915,0,0,0-.1,2.149,38.3,38.3,0,0,1,.782,8.007,112.516,112.516,0,0,1-.782,17.871q-1.563,13.966-8.691,23.438-0.976,1.171-1.465.488,0-20.6.293-36.816,0.1-5.859.586-10.254,0.293-1.953-1.953-3.027-5.178-1.465-8.789,0-3.808,1.172-7.715,2.734a4.149,4.149,0,0,1-3.711-.2q-1.856-.682-2.051-0.489a4.51,4.51,0,0,0-.586,1.172l-0.2.977v31.152a2.7,2.7,0,0,1-1.562,2.442,28.675,28.675,0,0,1-7.618,2.734,2.732,2.732,0,0,0-1.269,1.074q-0.2.392,1.172,2.344l2.148,2.441q1.561,2.149,3.906.293a36.11,36.11,0,0,1,3.809-3.418q9.375-5.567,15.625-9.765,1.953-1.366,1.953.293L279.047,759a2.028,2.028,0,0,1-2.344,1.563l-3.515-.684q-2.344-.586-0.489,1.172a38.4,38.4,0,0,0,10.352,6.933q1.951,0.978.781,2.54-2.734,3.222-5.664,6.542-1.172,1.854.391,2.149a14.779,14.779,0,0,0,6.347-2.832q3.124-2.249,7.813-6.25,1.951-2.147,1.562-3.125a4.017,4.017,0,0,1-.293-2.734,22.394,22.394,0,0,1,1.465-3.907q1.366-3.71,2.539-7.324,0.586-1.659,1.074-1.367a6.451,6.451,0,0,0,2.344-.684,16.818,16.818,0,0,1,2.93-.879,30.53,30.53,0,0,0,7.226-2.343,3.222,3.222,0,0,0,2.051-2.735,1.888,1.888,0,0,0-2.344-1.465q-5.567.783-11.035,1.27a2.823,2.823,0,0,1,.1-1.66l0.684-5.274a2.887,2.887,0,0,1,1.953-2.441,7.838,7.838,0,0,1,1.953-.684,21.5,21.5,0,0,0,7.715-2.734,3.6,3.6,0,0,0,.195-1.66q-0.392-1.562-2.344-1.367l-6.64.879q-2.052.2-1.954-1.758L302,721.4a2.421,2.421,0,0,1,1.563-2.539,49.775,49.775,0,0,1,10.546-2.05q2.539-.586,3.321,2.343a27.744,27.744,0,0,1,.195,4.883q0,20.215-.293,40.43a31.007,31.007,0,0,1-.976,7.617,3.1,3.1,0,0,1-2.637,1.953,69.051,69.051,0,0,1-9.766-3.027q-1.954-.782-0.293,1.172,6.641,7.518,12.6,9.375l3.906,1.074q2.147,0.78,3.125.293a2.532,2.532,0,0,0,.879-1.758L323.383,767.1q-1.171-28.612,1.758-50.977a4.867,4.867,0,0,0,.1-2.148,10.183,10.183,0,0,0-6.738-1.856q-6.934,1.076-15.625,3.223h0Zm-24.609,5.664a6.477,6.477,0,0,1,1.074,4.1q-0.1,9.962-.1,19.825a2.165,2.165,0,0,1-1.66,2.148L268.5,750.7q-2.149.879-2.148-.683a39.7,39.7,0,0,1-.391-8.008,3.093,3.093,0,0,1,1.953-2.637,15.789,15.789,0,0,0,5.859-2.344,5.185,5.185,0,0,0,1.954-3.906q-0.49-2.245-2.442-1.465a36.242,36.242,0,0,1-5.176,1.368q-1.66.293-1.562-1.27,0.195-3.124.586-6.152a1.773,1.773,0,0,1,.781-1.856,21.432,21.432,0,0,1,7.813-3.515,2.191,2.191,0,0,1,2.539.781h0Zm101.172-4.981q-1.465.49-1.954,0a5.821,5.821,0,0,0-3.027-.488,1.244,1.244,0,0,0-1.269.879,7.3,7.3,0,0,0,0,2.93,11.756,11.756,0,0,1,.781,3.906,99.61,99.61,0,0,1-3.418,35.156,70.872,70.872,0,0,1-15.43,22.07,9.671,9.671,0,0,0-1.269,2.247q1.757,0.878,5.078-.684a55.637,55.637,0,0,0,11.718-8.691,3.225,3.225,0,0,0,.879-3.809,5.356,5.356,0,0,1,.293-2.93q1.854-4.2,3.028-7.715,0.585-2.147.976-1.953a0.9,0.9,0,0,0,.781.2q1.465-.487,2.93-0.879,3.9-.682,7.813-1.563a43.145,43.145,0,0,1,7.812-1.855,5.862,5.862,0,0,0,1.953-1.074q0.879-1.173.1-3.907a1.825,1.825,0,0,0-1.367-1.465q-8.2,1.27-16.309,2.637-1.954.293-2.051,0A48.274,48.274,0,0,0,378.852,742a2.919,2.919,0,0,1,1.855-2.539q1.172-.39,2.344-0.684a37.854,37.854,0,0,0,7.812-1.953,20.849,20.849,0,0,1,3.907-.781q2.93-.78,2.539-3.125a4.171,4.171,0,0,0-1.563-3.223,4.889,4.889,0,0,0-2.246.2l-11.621,1.953q-2.051.392-2.051-1.172l0.2-5.86a2.537,2.537,0,0,1,1.563-2.636,41.553,41.553,0,0,1,12.207-4.3q7.713-1.367,8.105,6.25,2.44,30.175-.1,48.437a4.141,4.141,0,0,1-2.539,3.907q-2.637.389-6.348-1.563-2.541-1.368-.976.586a35.609,35.609,0,0,0,7.617,5.859q3.9,1.854,7.812,3.809a4.708,4.708,0,0,0,3.711-.293,1.648,1.648,0,0,0,.488-1.172,86.29,86.29,0,0,1-1.367-13.574q0-9.961-.195-20.02-0.587-20.117.586-28.32a5.764,5.764,0,0,1,1.465-3.418q1.56-1.951,1.465-2.246a6.947,6.947,0,0,0-4-2.246A24.2,24.2,0,0,0,398.969,713a169.975,169.975,0,0,0-19.531,3.027h0ZM484.809,704.5q0.879,13.087.781,32.617a1.965,1.965,0,0,1-1.66,2.246L471.137,742a3.889,3.889,0,0,1-4.3-2.149q-0.783-3.222,0-4.882a12.869,12.869,0,0,1,3.125-4.2,6.293,6.293,0,0,0,1.172-2.05q0-.294-2.149-1.465a33.459,33.459,0,0,0-4.883-1.66q-2.735-.975-3.613.976a7.869,7.869,0,0,0-.683,4.3,47.019,47.019,0,0,0,6.054,17.09q2.05,4.2,4.2,2.539a58.9,58.9,0,0,1,13.575-5.176q2.05-.487,2.051,1.074,0.1,8.694.39,19.141a6.749,6.749,0,0,1-.586,3.613q-0.783,1.662-1.465,1.465l-4.882.879q-5.079,1.076-7.813,1.367a3.524,3.524,0,0,1-4-1.855q-1.758-4,1.856-7.52,3.709-2.831.195-4.2a21.419,21.419,0,0,0-5.859-1.953q-2.344-.293-2.735,2.539a7.672,7.672,0,0,0,.1,3.711,37.817,37.817,0,0,0,8.2,15.625q2.146,2.538,4.3,2.637a39.292,39.292,0,0,1,10.742-4.395,95.667,95.667,0,0,1,22.949-3.027q1.953,0,1.563,1.562-0.879,2.344-1.953,4.59a2.289,2.289,0,0,0,1.953,1.27q4.393,0.585,6.738-3.809a159.453,159.453,0,0,0,5.371-21.484q0.1-2.05-2.832-2.344-4.3-.293-6.055,1.172a7.9,7.9,0,0,0,.293,2.148,27.085,27.085,0,0,1-.976,8.4q-0.586,2.051-2.149,2.05-7.031.294-14.746,1.172-2.05.2-2.051-1.367,0.195-12.108,1.075-22.265a1.9,1.9,0,0,1,1.66-1.954,123.979,123.979,0,0,1,13.574-.683q1.659,0,1.074,1.66l-0.1.391q-0.49,1.955-.2,2.343a4.19,4.19,0,0,0,.782.391q5.76,1.27,7.812-5.078,1.854-5.761,4.3-17.676,0.1-1.953-.391-2.344a10.063,10.063,0,0,0-4.394-.683,12.356,12.356,0,0,0-3.321.293q-2.148.293-1.757,2.05a31.848,31.848,0,0,1-.489,9.961q-0.391,2.052-1.953,2.051-7.031.294-14.258,1.172-2.051.2-2.05-1.367-0.1-12.108.195-19.531a39.424,39.424,0,0,1,1.269-7.325,2.553,2.553,0,0,0-1.269-3.222q-3.126-1.074-6.25-2.246-1.954-.781-2.246-0.489a5.643,5.643,0,0,0-.488,1.27h0Zm91.015,13.086a6.58,6.58,0,0,0-2.246.195,5.275,5.275,0,0,0,.1,2.246,13.772,13.772,0,0,1,1.562,5.664q0.586,1.857,2.832,1.367a9.711,9.711,0,0,1,2.93-.976,26.456,26.456,0,0,1,8.789-.2,1.574,1.574,0,0,0,.977-0.1q4.688-1.367,15.625-7.52a3.405,3.405,0,0,0,1.074-3.906q-0.49-2.343-2.344-1.953a73.9,73.9,0,0,1-18.262,5.078q-5.567.1-11.035,0.1h0Zm10.254,14.453-0.488,6.348a4.634,4.634,0,0,1-.488,2.05,4.27,4.27,0,0,1-1.368.293c-0.976.132-1.953,0.293-2.929,0.489a91.27,91.27,0,0,1-15.625,2.148,1.707,1.707,0,0,0-1.563.977,6.244,6.244,0,0,0,.879,2.246,12.26,12.26,0,0,0,2.442,3.808q1.172,1.27,1.953.684a87.832,87.832,0,0,1,13.281-3.809q1.951-.389,2.051-0.2-1.077,6.25-6.543,16.8a22.168,22.168,0,0,1-6.446,7.031,31.106,31.106,0,0,1-7.812,4q-3.808,1.562-9.766,3.418-2.149,1.465.1,2.441a14.517,14.517,0,0,0,3.906.879,86.385,86.385,0,0,0,10.059.684,5.811,5.811,0,0,0,4.492-3.027,24.284,24.284,0,0,1,3.809-5.86q2.538-2.343,4.785-4.785a39.014,39.014,0,0,0,8.691-15.82,4.632,4.632,0,0,1,1.758.976A45.53,45.53,0,0,1,604.242,767.2a24.789,24.789,0,0,0,3.711,3.711,8.54,8.54,0,0,1,2.93,3.809q0.78,1.951,1.367,3.906,0.195,2.832,2.344,2.93l7.812,0.976a42.344,42.344,0,0,0,11.524-.586q1.854-1.076-.391-2.539-8.887-4.3-16.6-8.594a27.564,27.564,0,0,1-7.911-6.835,145.523,145.523,0,0,0-13.086-15.625l-3.808-2.344q-0.1-.195,1.66-0.293,4.491-.488,8.984-0.879a93.436,93.436,0,0,1,9.473-.488q4.395,0.585,5.957.1,0.293-.293-0.391-2.636a31.705,31.705,0,0,0-1.464-3.907,3.58,3.58,0,0,0-3.418-1.464,50.6,50.6,0,0,1-10.84,2.148,67.889,67.889,0,0,0-7.227.586q-1.955.2-1.66-1.367a30.813,30.813,0,0,1,1.563-4.883q1.268-2.637-1.563-3.027a17.651,17.651,0,0,0-3.906-.684,6.87,6.87,0,0,0-2.539.293,7.293,7.293,0,0,0-.684,2.539h0Zm97.852-17.09q-0.294.49,0.293,2.832l0.586,13.477,0.683,28.125q-0.2,1.955-1.758,2.148-3.515.392-8.691,1.465a59.3,59.3,0,0,1-8.008,1.074,3.121,3.121,0,0,1-2.148-2.051q-2.442-6.541,1.66-13.671,2.929-4.491-.586-5.274a14.21,14.21,0,0,0-5.664-1.758,1.952,1.952,0,0,0-1.465.782,7.9,7.9,0,0,0-.684,4q0.487,11.133,5.664,26.856,1.173,1.953,1.856,1.855a41.832,41.832,0,0,1,9.57-3.613q12.694-3.709,34.375-4.1,1.953,0,1.856,1.562a21.312,21.312,0,0,0-.2,2.832,1.746,1.746,0,0,0,1.27,1.66,8.585,8.585,0,0,0,6.348-.293,3.376,3.376,0,0,0,1.562-2.343q2.733-18.945,5.371-29.3,0.782-2.344-2.148-2.832a39.631,39.631,0,0,0-7.813-1.368q-3.419-.193-1.562,2.637a3.563,3.563,0,0,1,.879,1.953q0,4.885-2.246,15.235-0.391,2.051-1.954,2.05-6.151.294-15.429,1.172-2.051.2-2.051-1.367a150.353,150.353,0,0,1,.293-17.773q0.293-8.4.684-16.7a20.805,20.805,0,0,1,1.66-7.421q0.585-1.466-1.758-2.247a18.135,18.135,0,0,0-8.3-.683,3.769,3.769,0,0,0-2.148,1.074h0Zm167.285-2.637a2.978,2.978,0,0,1-2.344,2.149l-16.406,2.148q-2.051.2-2.051-1.367a34.138,34.138,0,0,1,.781-5.566,2.953,2.953,0,0,0-1.562-3.321,17.544,17.544,0,0,0-3.906-.879,1.869,1.869,0,0,0-1.758.489,43.068,43.068,0,0,0,1.367,11.816,3.937,3.937,0,0,1-1.66.488,107.893,107.893,0,0,1-11.621,1.172q-1.954.391-2.149,0.782a6.753,6.753,0,0,0,.782,2.148,7.685,7.685,0,0,0,1.171,1.953,4.147,4.147,0,0,0,3.809,1.074q4.3-1.172,9.277-2.246a2.115,2.115,0,0,1,2.539,1.465l1.27,2.441q1.659,2.149,3.027,2.051,1.367-.488.781-2.636l-0.976-4.1a3.927,3.927,0,0,1,1.66-.488q5.467-.781,13.574-1.27,1.854-.1,1.465,1.66a27.585,27.585,0,0,0-1.269,6.25,0.308,0.308,0,0,0,.293.2,10.7,10.7,0,0,0,1.953-1.758l3.711-5.274a3.711,3.711,0,0,1,2.929-1.855,107.537,107.537,0,0,1,17.188-.2,2.723,2.723,0,0,0,2.051-.2q0.193-.1-0.293-2.05a29.489,29.489,0,0,0-1.66-4.395,3.632,3.632,0,0,0-3.614-1.562,21.444,21.444,0,0,0-3.906.976,39.274,39.274,0,0,1-8.008,1.27q-0.2-.1.391-1.661a19.681,19.681,0,0,1,3.32-6.835q1.562-1.66-.683-3.223A13.158,13.158,0,0,0,856,699.914q-0.293,0-1.465,2.148Zm-14.453,14.649a64.153,64.153,0,0,1-6.543,8.789q-14.649,17.285-27.246,23.73-1.955.978-.1,1.27a29.372,29.372,0,0,0,15.43-4,3.015,3.015,0,0,0,1.465-1.855,8.832,8.832,0,0,1,2.441-3.907,177.862,177.862,0,0,1,14.062-14.843q1.854-1.66,3.614-.391a40.816,40.816,0,0,1,10.742,8.105,5.312,5.312,0,0,1,1.66,1.758c0,0.261-.522.359-1.562,0.293a13.471,13.471,0,0,0-2.149-.586,25.63,25.63,0,0,0-7.91.977q-8.107,2.149-11.621,1.269A1.913,1.913,0,0,0,827,749.719q-0.1,2.735-.684,7.129a62.461,62.461,0,0,0-.488,8.886,21.328,21.328,0,0,0,3.809,11.621,12.03,12.03,0,0,1,2.246,3.418,6.468,6.468,0,0,0,3.516,1.758,38.318,38.318,0,0,0,8.2.977q9.668,0.585,16.211-1.563a7.667,7.667,0,0,1,3.515.2,5.286,5.286,0,0,0,2.149-.1,6.564,6.564,0,0,0-.2-3.125,22.43,22.43,0,0,0-.39-5.957,23.037,23.037,0,0,1-1.563-5.859,26.564,26.564,0,0,0-1.172-5.372q-0.977-1.952-1.269,0a44.806,44.806,0,0,1-1.856,11.329,7.4,7.4,0,0,1-5.566,3.222,34.987,34.987,0,0,1-9.277.391,23.949,23.949,0,0,1-7.813-1.367q-4.3-1.369-5.664-6.446-0.978-2.93-.293-9.57a5.657,5.657,0,0,1,.293-1.465q0.293-2.146.781-4.3a3.562,3.562,0,0,1,2.051-2.636,15.476,15.476,0,0,1,7.715-1.27,3.752,3.752,0,0,1,2.441.879,3.026,3.026,0,0,1,.489,2.051,26.723,26.723,0,0,1-.684,4.883,4.511,4.511,0,0,1-1.465,2.929q-0.783.686-2.93,0.2a30.24,30.24,0,0,1-5.468-.977q-1.955-.587-0.2,1.27a43.484,43.484,0,0,0,8.789,5.468,7.343,7.343,0,0,0,3.418.977,2.642,2.642,0,0,0,3.028-1.563,17.1,17.1,0,0,0,1.367-3.418,60.871,60.871,0,0,0,1.465-12.5,3.251,3.251,0,0,1,.781-2.148,1.44,1.44,0,0,0,.2-1.465q-0.293-.78,0-0.879,4,3.128,8.008,5.957a9.3,9.3,0,0,1,3.028,3.711q0.681,2.249,4.2,2.735,8.592,0.489,14.941.39a22.519,22.519,0,0,0,3.516-.293q1.951-.585,0-1.758a88.375,88.375,0,0,0-10.254-4.1,62.567,62.567,0,0,1-15.625-7.227q-11.232-9.764-15.625-12.89-1.955-1.561-1.074-2.442,0.585-.681-1.66-2.344-2.637-1.659-3.907-1.269a3.131,3.131,0,0,0-1.269,1.172h0Zm111.621-10.156a2.218,2.218,0,0,1-2.149,1.757l-12.89,1.465q-2.051.2-2.051-1.367a77.947,77.947,0,0,1,.781-8.594q0.294-1.464-2.051-2.246a12.148,12.148,0,0,0-3.906-.879,7.123,7.123,0,0,0-3.418.293,2.258,2.258,0,0,0-.879,2.832,34.517,34.517,0,0,1,2.442,9.278q0.293,1.758-1.172,1.953a122.134,122.134,0,0,1-12.6,1.269,4.037,4.037,0,0,0-1.66.586q-0.2.2,0.488,2.149a17.6,17.6,0,0,0,1.856,3.222,3.576,3.576,0,0,0,3.808,1.075q5.957-1.561,9.961-2.442a2.113,2.113,0,0,1,2.442,1.172,16.793,16.793,0,0,1,2.051,4.1q1.073,1.955,2.636,1.269a1.242,1.242,0,0,0,.781-1.66,30.616,30.616,0,0,0-1.074-4.2,1.768,1.768,0,0,1,1.66-2.051q5.469-.683,10.938-1.172,1.758-.2,1.269,1.367l-1.367,4.981a4.463,4.463,0,0,0-.1,2.441q0.389,0.49,1.953-1.66,1.952-3.124,4-5.859a4.1,4.1,0,0,1,2.929-1.953,110.8,110.8,0,0,1,16.211-.489,26.43,26.43,0,0,0,3.809.1q0.292-.195-0.1-2.149-0.585-1.854-1.367-3.808a3.412,3.412,0,0,0-3.223-1.856q-7.227,1.465-11.23,1.954-1.758.2-1.074-1.465a63.793,63.793,0,0,1,5.468-8.008q1.66-1.659,1.465-2.149a10.344,10.344,0,0,0-3.515-2.636q-1.954-.975-3.907-1.758-1.563-.39-2.246,1.953-2.637,6.642-4.98,13.184h0Zm-2.93,20.507q-2.541,4.494,3.027,6.739,4,2.051,6.055.39a4.739,4.739,0,0,0-.683-3.808,11.554,11.554,0,0,1-2.344-3.907,27.913,27.913,0,0,1-.879-3.906,2.5,2.5,0,0,0-.586-1.172,1.748,1.748,0,0,0-1.66.782,41.853,41.853,0,0,0-2.93,4.882h0Zm-29.98,4.981q4.1,4.3,7.519,3.027,2.051-.879.684-3.418a33.64,33.64,0,0,1-4.2-7.812q-1.27-1.854-2.735.1a15.154,15.154,0,0,0-1.269,8.106h0Zm17.089,10.156h-2.734q-2.247.392-1.758,2.344,0.294,1.171.684,2.441a2.292,2.292,0,0,0,3.125,1.074,65.825,65.825,0,0,1,7.031-1.953,4.336,4.336,0,0,1,.586,1.661v1.464a48.512,48.512,0,0,0-.586,12.6q0.293,3.9.781,7.813a2.3,2.3,0,0,0,2.539,1.757q12.891-.977,27.637-0.976a3.286,3.286,0,0,0,1.856-.879,5.952,5.952,0,0,0-.489-3.613,12.883,12.883,0,0,0-2.343-3.907q-1.857-2.147-3.907-1.66a36.2,36.2,0,0,1-7.812,2.149,43.332,43.332,0,0,1-9.57.488q-3.029-1.172-2.735-4.981a19.143,19.143,0,0,1,3.516-11.132q1.267-1.269.586-1.758-0.392-.488,1.269-0.684a119.267,119.267,0,0,1,14.649-.781,27.885,27.885,0,0,1,7.715,2.051q1.854,0.391,2.343-.293a4.11,4.11,0,0,0-.1-1.465,20.57,20.57,0,0,0-2.539-5.859q-0.978-2.345-2.832-1.954a19.814,19.814,0,0,1-5.665,1.075q-15.625,2.442-31.25,4.98h0ZM908.832,759a20.113,20.113,0,0,0-1.27,7.715q-0.2,9.766,4.2,16.406a11.209,11.209,0,0,0,3.515,3.516q1.66,1.267,2.539-.977a18.163,18.163,0,0,1,1.954-3.906l2.734-3.906a45.116,45.116,0,0,0,4.394-15.723q0.1-1.951-.586-0.195a49,49,0,0,1-4.589,8.691,15.711,15.711,0,0,1-4.493,5.274q-4.3,1.073-6.445-3.614a15.007,15.007,0,0,1-.488-8.691q1.464-4.3,6.738-7.813a11.54,11.54,0,0,0,2.051-1.367,2.239,2.239,0,0,0-.781-1.953,11.02,11.02,0,0,1-3.907-2.734,4.483,4.483,0,0,0-1.367-.977q-0.489-.195-1.074,1.856-2.149,5.567-3.125,8.4h0Zm129.488-40.527q-5.955.2-11.91,0.195a11.03,11.03,0,0,0-2.15.1c-0.58.847-.39,2.279,0.59,4.3a10.28,10.28,0,0,1,.78,3.808q0.585,1.955,2.73,1.367a21.933,21.933,0,0,1,12.11-1.074,3.548,3.548,0,0,0,1.96-.39,137.428,137.428,0,0,0,15.62-7.52,2.566,2.566,0,0,0,1.66-2.539l-0.19-1.465a1.891,1.891,0,0,0-2.54-1.465l-10.84,3.321a57.955,57.955,0,0,1-7.82,1.367h0Zm17.97,19.14q-6.825.294-23.14,3.125l-15.63,2.539-7.81.782c-1.5.131-2.08,0.781-1.76,1.953,0.65,1.3,1.34,2.6,2.05,3.906a6.128,6.128,0,0,0,2.54,2.246,103.275,103.275,0,0,1,21.19-5.664c1.31-.13,1.7.327,1.18,1.367a153.829,153.829,0,0,1-8.79,14.551,13.978,13.978,0,0,1-5.57,5.078q-2.925.879-1.95,3.125a47.67,47.67,0,0,1,1.46,4.883,2.248,2.248,0,0,0,2.83,1.562,43.606,43.606,0,0,1,6.84-1.953,146.438,146.438,0,0,1,15.63-2.929,9.4,9.4,0,0,0,3.32-.391c0.26-.195.22-1.009-0.1-2.441a4.758,4.758,0,0,1,.1-2.93c1.62-3.255,3.74-5.142,6.34-5.664a9.633,9.633,0,0,1,4.3.684c2.34,1.237,3.42,3.027,3.22,5.371a10.114,10.114,0,0,1-6.34,5.371q-1.86.977,0.09,1.758a52.4,52.4,0,0,0,9.77,2.441,2.5,2.5,0,0,0,2.54-.684,19.356,19.356,0,0,0-3.81-10.937,13.915,13.915,0,0,0-7.13-6.153q-4.2-1.072-5.66.1a19.8,19.8,0,0,0-6.16,7.129A129.249,129.249,0,0,1,1032.95,767c-1.75.391-2.76-.162-3.02-1.66a12.313,12.313,0,0,1,1.85-2.149,74.265,74.265,0,0,0,7.52-9.765,14.829,14.829,0,0,1,3.52-3.809c1.23-.911,1.3-1.822.19-2.734q-1.665-1.173,0-1.367,10.845-1.173,21.78-1.954a59.8,59.8,0,0,1,8.3.391,2.057,2.057,0,0,0,1.66-.684c0.13-.129-0.03-0.845-0.49-2.148a24.208,24.208,0,0,0-2.05-4.883,2.882,2.882,0,0,0-1.27-1.465,31.823,31.823,0,0,0-6.83,1.465,46.286,46.286,0,0,1-7.82,1.367h0Zm82.91-19.433a53.419,53.419,0,0,1-10.45,12.012q-1.455,1.464.79,2.441a4.054,4.054,0,0,0,4-.391,111.069,111.069,0,0,0,7.71-8.984c1.04-1.106,1.7-1.041,1.96.195,0.45,1.172,1.4,1.531,2.83,1.074a32.109,32.109,0,0,1,5.86-1.269,91.59,91.59,0,0,0,15.62-4.688,2,2,0,0,0,1.47-2.636l-0.29-.977q-1.08-2.146-3.03-1.562a69.051,69.051,0,0,1-17.09,2.929c-1.17,0-1.27-.552-0.29-1.66,0.78-.911,1.59-1.822,2.44-2.734q1.845-2.147,1.56-3.906a22.151,22.151,0,0,0-1.66-5.86,3.649,3.649,0,0,0-1.76-2.148c-0.26-.13-0.68.456-1.27,1.758a72.719,72.719,0,0,1-8.4,16.406h0Zm-24.22-2.344a17.1,17.1,0,0,0-2.05,6.836,3.166,3.166,0,0,0,.69,2.539q3.315,2.929,5.86,3.027a4.547,4.547,0,0,0,3.71-.976,7.03,7.03,0,0,0,.1-2.344,11.7,11.7,0,0,0-.98-2.832,21.94,21.94,0,0,1-2.74-7.324,6.145,6.145,0,0,0-1.27-2.051c-0.58.391-1.2,0.847-1.85,1.367a8.509,8.509,0,0,0-1.47,1.758h0Zm36.92,15.918-7.72,2.148a4.528,4.528,0,0,1-2.54.2c-2.53-1.3-3.94-.521-4.19,2.344a114.27,114.27,0,0,1-2.15,11.328,2.8,2.8,0,0,1-2.25,2.148l-6.15.391c-1.3.065-1.63,0.749-.98,2.05l0.29,0.489a3.371,3.371,0,0,0,3.33,1.562l1.56-.1q1.95-.195,1.95.1a53.586,53.586,0,0,1-4,7.032,30.13,30.13,0,0,0-2.44,3.71q-1.38,3.223,2.63,2.637a72.514,72.514,0,0,1,9.18.488q10.545,0.978,15.24,2.539a10.742,10.742,0,0,1,2.14.879,38.167,38.167,0,0,1-4.39,6.055q-2.34,2.345-4.88,1.66a24.947,24.947,0,0,1-7.52-2.441c-1.31-.652-1.37-0.229-0.2,1.269a33.742,33.742,0,0,0,4.4,4.395q3.9,2.637,7.81,4.98,1.95,1.465,3.71-1.074a30.615,30.615,0,0,1,2.25-3.906,64.209,64.209,0,0,0,4.39-7.422,1.612,1.612,0,0,1,2.34-.977,61.186,61.186,0,0,1,8.99,4.786,1.141,1.141,0,0,0,1.56-.293,6.69,6.69,0,0,0,1.08-2.344,7.96,7.96,0,0,0,.19-4.883q-2.055-2.439-3.81-2.441-2.925-.682-5.76-1.172c-1.24-.26-1.72-0.943-1.46-2.051q1.755-6.446,2.54-11.23c0.19-1.3.81-1.954,1.85-1.954a111.2,111.2,0,0,1,14.36.2c1.36,0.131,2.24,0,2.63-.391a21.289,21.289,0,0,0-2.44-6.055,1.454,1.454,0,0,0-1.66-.878,20.78,20.78,0,0,0-4.1.585,37.22,37.22,0,0,1-7.42.879c-1.37.066-1.96-.454-1.76-1.562a38.524,38.524,0,0,1,2.25-9.18,5.6,5.6,0,0,0,1.07-2.441,3.685,3.685,0,0,0-1.76-1.465,15.519,15.519,0,0,0-10.35-1.758,47.606,47.606,0,0,0-7.81,1.172h0Zm11.03,6.348a55.653,55.653,0,0,1-.29,7.324c-0.13,1.3-.72,2.019-1.76,2.148l-4.29.293c-1.31,0-1.73-.52-1.27-1.562a7.051,7.051,0,0,0,.48-3.321,3.23,3.23,0,0,0-2.63-2.636l-4.79-1.27c-1.36-.325-2.08-0.357-2.15-0.1a63.21,63.21,0,0,1,5.08,7.421q0.975,1.956-.78,1.954-3.9.293-8.3,0.781c-1.3.065-1.79-.455-1.46-1.563a80.51,80.51,0,0,0,1.66-8.593,3.121,3.121,0,0,1,1.95-2.539,49.7,49.7,0,0,1,15.33-2.247,4.849,4.849,0,0,1,3.22,3.907h0Zm-54.49,1.855a73.216,73.216,0,0,0-3.12,11.719,41.947,41.947,0,0,0,.97,18.262,25.314,25.314,0,0,0,4.1,7.812,4.945,4.945,0,0,0,2.54,1.758c0.91-.131,1.57-1.042,1.96-2.734a39.118,39.118,0,0,1,3.61-7.813,25.229,25.229,0,0,0,3.32-7.812q3.225-11.719,3.13-17.676c0-1.3-.17-1.27-0.49.1a96.359,96.359,0,0,1-4.69,13.672A35.783,35.783,0,0,1,1114.5,767q-2.94,2.541-5.38-1.758a18.373,18.373,0,0,1-1.26-8.008q0-8.689,8.1-15.332,0.975-2.146-1.07-3.027a8.048,8.048,0,0,1-3.23-2.539c-0.71-.845-1.4-1.074-2.05-0.684q-0.48,2.15-1.17,4.3h0Zm52.64,14.551a61.883,61.883,0,0,1-2.44,9.961q-0.585,1.954-2.25,1.758l-3.22-.489q-1.86-.193-1.17-1.953a21.977,21.977,0,0,0,1.07-6.445,3.221,3.221,0,0,0-1.46-1.465l-1.96-1.074c-0.84-.455-1.04-0.911-0.58-1.367a4.284,4.284,0,0,1,1.36-.293c3-.13,6.02-0.228,9.09-0.293q1.95,0,1.56,1.66h0Zm-16.12.293q2.355,4.98,3.62,8.5c0.52,1.3.23,1.921-.88,1.855q-3.72-.293-7.32-0.39-6.165.1-3.81-5.176a28.522,28.522,0,0,0,1.56-3.711q0.675-2.146,2.25-2.246l1.56-.2a2.841,2.841,0,0,1,3.02,1.367h0Zm71.88-42.774a15.052,15.052,0,0,0-1.27,7.129q0.2,3.224,1.95,4.59,3.42,0.978,6.84,2.246c1.17,0.652,1.98.424,2.44-.683q0.39-3.417-2.54-6.934a20.133,20.133,0,0,1-2.93-3.906l-2.24-4.2c-0.26-.325-0.66-0.228-1.18.293a8.037,8.037,0,0,0-1.07,1.464h0Zm18.55,6.446a4.1,4.1,0,0,0-.09,2.246,5.446,5.446,0,0,0,1.56,3.808q10.935-6.639,20.21-6.347,5.58,0.391,7.72,3.32a6.067,6.067,0,0,1,.88,3.906q2.34,31.252-.39,50.489a3.447,3.447,0,0,1-3.91,2.929,54.942,54.942,0,0,1-11.72-2.148q-1.86-.49.2,1.562a41.749,41.749,0,0,0,10.45,6.446q3.9,1.367,7.81,3.027a9.826,9.826,0,0,0,3.71.684q1.95,0,2.34-.489a1.957,1.957,0,0,0,.39-1.66q-0.585-3.906-.97-7.812-0.69-31.933-.59-48.242a47.4,47.4,0,0,1,.78-8.008,6.7,6.7,0,0,1,1.37-3.418q1.275-1.953-.59-3.125a50.391,50.391,0,0,0-23.63-.977,145.961,145.961,0,0,0-15.53,3.809h0Zm-24.41,16.894q-0.285,23.829-.78,40.723c-0.07,1.562.55,2.473,1.85,2.734,1.57,0.2,2.64,0,3.23-.586a7.436,7.436,0,0,0,.29-2.246q0.39-13.184,1.47-32.226a47.55,47.55,0,0,1,.78-7.813c0.32-1.236.39-1.985,0.19-2.246q-1.275-1.074-4.59-.976a4.01,4.01,0,0,0-2.24.585,5.369,5.369,0,0,0-.2,2.051h0Zm22.07,0.293a3.963,3.963,0,0,1-1.95-.1,9.473,9.473,0,0,0-2.74,0,0.683,0.683,0,0,0-.58.879,9.334,9.334,0,0,1,.68,2.636v20.508a7.6,7.6,0,0,0,.2,2.344c0.97,1.758,2.18,2.051,3.61.879q4.1-2.148,11.23-2.637a4.41,4.41,0,0,1,3.42,1.367,15.332,15.332,0,0,0,3.9,2.735,1.49,1.49,0,0,0,2.35-.391,5.8,5.8,0,0,0,.78-2.441q0.09-8.106.59-16.211a28.6,28.6,0,0,1,1.17-7.813q0.675-.975,1.17-1.855a4.91,4.91,0,0,0-1.76-1.465,19.008,19.008,0,0,0-10.35-.977q-5.865,1.172-11.72,2.539h0Zm15.72,4.2-0.09,14.258c-0.07,1.367-.66,2.085-1.76,2.149q-4.005.489-11.82,1.758c-1.76.326-2.7-.293-2.83-1.856a19.34,19.34,0,0,1,.19-2.734,2.579,2.579,0,0,1,1.66-2.539l1.96-.684a32.72,32.72,0,0,0,7.81-2.734,3.338,3.338,0,0,0,1.37-2.735q-0.195-1.072-2.25-.39a51.17,51.17,0,0,1-8.3,1.66,1.248,1.248,0,0,1-1.56-1.465l0.19-2.832a3.423,3.423,0,0,1,1.86-2.734,28.627,28.627,0,0,1,8.59-2.637q4.59-1.074,4.98,3.515h0ZM277.777,912.9a1.991,1.991,0,0,1-1.562,2.051q-13.38,3.321-22.07,4.785a5.83,5.83,0,0,0-2.051.586,10.04,10.04,0,0,0,1.172,5.176,2.862,2.862,0,0,0,1.269,1.562,7.833,7.833,0,0,0,2.344-.488,156.63,156.63,0,0,1,17.285-4.785q2.051-.487,2.051,1.172a120.525,120.525,0,0,1-1.563,14.355q-1.27,9.669,2.832,20.7a12.373,12.373,0,0,0,1.368,1.855q0.879,0.488,3.027-.293a7.494,7.494,0,0,0,2.637-2.539,27.867,27.867,0,0,1,4-3.711,19.094,19.094,0,0,0,3.613-3.613A131.424,131.424,0,0,0,298.969,938q0.975-2.245-.781-0.488a33.932,33.932,0,0,1-7.032,7.617q-4.98,3.126-7.812,2.734a3.953,3.953,0,0,1-3.125-4,18.132,18.132,0,0,1-.1-3.222q0.683-6.933,2.051-15.821,0.293-1.952,2.051-1.171a62.016,62.016,0,0,1,12.207,7.421,70.811,70.811,0,0,0,7.812,4.493q7.911,4.3,10.352,10.742,1.073,2.05,2.539,2.148,3.9,0.587,7.812,1.27a39.293,39.293,0,0,0,10.157-.293,4.241,4.241,0,0,0,1.855-.977q0.195-.292-1.562-2.148a20,20,0,0,0-7.227-3.711,64.107,64.107,0,0,1-7.813-3.32l-7.812-4.688q-3.42-2.147-7.813-5.273a91.542,91.542,0,0,0-15.234-8.5q-1.954-1.365-1.758-1.562a186.357,186.357,0,0,0,28.516-8.008,5.226,5.226,0,0,0,1.465-.976,9.826,9.826,0,0,0-.391-5.371q-0.293-.294-2.637.293-13.183,3.614-28.222,7.226-2.05.586-1.953-1.074a270.773,270.773,0,0,1,2.343-27.637,4.766,4.766,0,0,0,.1-2.148,7.236,7.236,0,0,0-3.027-1.172q-1.954-.587-3.907-0.977-2.247-.193-2.246,1.953V912.9Zm25.293-29q-4.3,7.716-13.867,19.532-1.563,1.954-1.465,2.246a2.046,2.046,0,0,0,.489.39,21.07,21.07,0,0,0,8.007-4.1q7.128-8.1,13.184-13.867,2.245-2.052.586-4-3.713-2.93-5.859-1.953a3.527,3.527,0,0,0-1.075,1.757h0Zm68.75,10.645a3.271,3.271,0,0,1-1.953-.293q-3.613-1.268-3.418,1.953a282.676,282.676,0,0,1-2.344,34.961q-2.343,11.622-13.964,21.875a1.74,1.74,0,0,0-.782,1.66q0.195,0.2,2.149-.488a45.927,45.927,0,0,0,10.742-5.859q5.662-4.2,6.445-7.52a3.347,3.347,0,0,0-.683-2.93,1.336,1.336,0,0,1-.2-0.976q2.637-17.674,3.711-27.344,0.587-5.467.977-7.324a3.823,3.823,0,0,1,1.953-2.539q12.695-7.226,24.707-8.789a12.687,12.687,0,0,1,2.637-.1q5.175,0.684,4.492,4.492-1.172,16.212-1.465,26.465a48.155,48.155,0,0,0,.293,8.789q1.268,11.719,11.231,20.9a39.839,39.839,0,0,0,15.039,8.984q1.951,0.292,2.148-.684a82.03,82.03,0,0,0-3.613-25.976,46.754,46.754,0,0,0-3.614-7.813q-1.661-2.147-1.269.1a92.518,92.518,0,0,1,2.344,15.43,8.548,8.548,0,0,1-.489,3.906,3.286,3.286,0,0,1-2.441,2.148q-5.274.1-11.523-8.2a22.688,22.688,0,0,1-3.907-14.551q0.1-14.942,4.785-24.316a17.758,17.758,0,0,1,4.3-5.762,1.432,1.432,0,0,0,.586-1.172,7.681,7.681,0,0,0-1.953-1.464q-9.18-4.785-17.578-3.614a176.377,176.377,0,0,0-27.344,6.055h0Zm20.9,6.445q-3.42,9.474-6.348,15.821a4.656,4.656,0,0,1-1.758-1.075,108.567,108.567,0,0,1-8.691-6.933q-1.954-1.758-.586.195,3.9,5.372,7.519,10.742a3.047,3.047,0,0,1,.391,3.418,82.576,82.576,0,0,1-7.519,12.207,57.637,57.637,0,0,0-5.86,7.617,8.936,8.936,0,0,0-1.074,2.344,0.946,0.946,0,0,0,.879.684,30.974,30.974,0,0,0,14.844-12.988l2.246-3.907q0.975-1.952,2.05-.39a131.4,131.4,0,0,1,9.083,16.211q1.464,3.222,3.222.293a31.609,31.609,0,0,0,1.953-8.2,5.922,5.922,0,0,0-1.269-3.515q-5.371-6.738-9.473-11.231-1.954-1.952-1.269-3.515a61.964,61.964,0,0,1,7.91-13.77,2.7,2.7,0,0,0,1.269-1.562q0.1-.682-1.758-2.051a8.93,8.93,0,0,0-4.882-1.465,1.855,1.855,0,0,0-.879,1.074h0Zm87.7-2.539a3.33,3.33,0,0,1-3.027-.488,3.677,3.677,0,0,0-2.246-.488q-1.271.977-1.563,3.711a205.823,205.823,0,0,1-3.32,23.437q-2.442,12.7-15.332,24.414-0.978,1.953-.781,2.149a17.144,17.144,0,0,0,6.933-.586q4.491-1.466,8.887-8.3a1.839,1.839,0,0,0,.586-1.953,3.686,3.686,0,0,1,.1-1.953A84.977,84.977,0,0,0,477.68,913a68.164,68.164,0,0,1,.976-7.324,2.71,2.71,0,0,1,1.856-2.442q4.784-1.172,9.668-2.148a3.89,3.89,0,0,1,3.32,1.074,1.894,1.894,0,0,1,.293.977,22.649,22.649,0,0,1-.391,4.59q-1.27,8.2-1.562,11.718a65.43,65.43,0,0,0,.781,18.653,22.294,22.294,0,0,0,2.734,7.812q3.124,4.688,7.52,5.469a71.048,71.048,0,0,0,16.211.586A31.417,31.417,0,0,0,526.9,950.5a1.347,1.347,0,0,0,1.075-.781q0.389-1.854-1.27-5.664a22.227,22.227,0,0,1-.879-3.907q0.683-5.859-3.808-15.918-1.077-2.343-1.172-.39a78.107,78.107,0,0,1-2.442,16.308,6.124,6.124,0,0,1-5.761,4.395q-6.252.978-10.059-.977-3.516-2.244-3.906-5.371a52.993,52.993,0,0,1-1.172-13.281,108.654,108.654,0,0,1,4.1-23.437,9.286,9.286,0,0,1,2.149-3.907,3.408,3.408,0,0,0,.976-1.758,2.6,2.6,0,0,0-2.539-2.148,29.787,29.787,0,0,0-6.543.879q-8.789,1.856-15.234,3.906h0ZM614.5,892.2a66.258,66.258,0,0,1-13.476,1.856q-15.04,2.148-23.438,3.515a108.639,108.639,0,0,1-15.82,1.856,3.874,3.874,0,0,0-2.051.781,6.78,6.78,0,0,0,.684,2.148q0.681,1.27,1.464,2.442a4.562,4.562,0,0,0,1.661,1.855,4.878,4.878,0,0,0,2.343-.39,132.555,132.555,0,0,1,21.289-4.2q0.294,0.1.1,1.661-4.493,20.9-26.66,40.625a28.348,28.348,0,0,0-3.711,3.613q-0.684.684-.2,1.172,2.636,0.78,7.617-.391a17.863,17.863,0,0,0,7.812-3.418,5.711,5.711,0,0,0,2.246-3.613,28.388,28.388,0,0,1,3.809-9.668,170.728,170.728,0,0,1,9.668-15.137q1.268-1.659,2.734-.976a80.424,80.424,0,0,1,11.524,3.515,3.917,3.917,0,0,1,1.562,2.93,60.878,60.878,0,0,1-7.226,17.773q-2.149,3.615-4.492,3.125a62.743,62.743,0,0,1-9.766-5.371,1.261,1.261,0,0,0-1.758-.293,6.744,6.744,0,0,0,1.27,2.149q5.662,8.008,10.644,11.816,0.78,0.879,1.758,1.856a2.158,2.158,0,0,0,3.418-.489q3.417-5.859,7.031-11.718,3.808-8.886,7.52-15.625a8.368,8.368,0,0,0,1.269-3.907q0.39-1.854-2.539-3.222-3.908-1.562-7.812-3.321a77.733,77.733,0,0,1-7.325-3.906q-1.66-1.366.2-3.027a3.547,3.547,0,0,0,0-3.906,5.214,5.214,0,0,0-.782-0.977q-1.563-1.854.2-1.953,18.945-1.367,26.855-.879a4.761,4.761,0,0,0,2.344,0q0.683-.293.1-2.246a52.45,52.45,0,0,0-2.149-5.469,4.278,4.278,0,0,0-3.808-1.66,16.908,16.908,0,0,0-4.1,1.074h0Zm71.973-2.734q-7.911,1.27-17.188,1.953a2.294,2.294,0,0,1-1.465.293q-0.684,0-1.66,2.148a2.606,2.606,0,0,0-.195.977,99.619,99.619,0,0,0,3.613,19.531,21.88,21.88,0,0,0,3.223,7.813,9.791,9.791,0,0,1,1.074,1.953,3.257,3.257,0,0,0,.488.781,15.98,15.98,0,0,0,2.149-.781,40.623,40.623,0,0,1,6.836-1.953q1.951-.294,1.953,1.367l0.195,5.566q0,1.955-1.562,2.246-5.373.783-10.84,1.27a4,4,0,0,0-1.856.293,4.959,4.959,0,0,0,0,2.148q0.879,3.615,2.344,4.2,4-.682,9.961-1.563,1.953-.293,2.051,1.367l0.195,6.836a1.78,1.78,0,0,1-1.66,2.051l-17.09,1.66a47.228,47.228,0,0,1-8.5.586q-2.149.389-1.66,2.344a16.434,16.434,0,0,0,.781,2.344,4.465,4.465,0,0,0,.781,1.757,8.289,8.289,0,0,0,2.247-.293q19.53-3.418,49.316-4.2a29.5,29.5,0,0,1,7.031.293q4.98,1.466,7.813,2.246,1.464,0.587,1.562-1.367a21.477,21.477,0,0,0-2.832-7.324,2.461,2.461,0,0,0-2.637-1.856,33.616,33.616,0,0,1-3.418.586l-23.339,2.246q-2.052.2-2.051-1.367v-7.324a1.676,1.676,0,0,1,1.66-1.855,118.607,118.607,0,0,0,12.012-2.051,2.1,2.1,0,0,0,1.465-1.172,8.915,8.915,0,0,0-.684-4.688,8.466,8.466,0,0,0-2.148.2l-10.254,1.367q-2.052.2-2.051-1.367v-5.957a1.566,1.566,0,0,1,1.66-1.758l3.906-.293a1.454,1.454,0,0,0,1.563-.586q0.389-.293,2.343,1.172a11.474,11.474,0,0,0,2.833,1.66q1.853,0.684,2.929-1.465l1.465-3.906a147.114,147.114,0,0,0,5.273-15.625,28.322,28.322,0,0,1,2.93-7.52q2.147-1.854.488-3.125a8.972,8.972,0,0,0-1.953-1.367q-7.227-3.808-13.476-3.32-7.815,1.075-15.625,2.832h0Zm19.336,5.273a120.021,120.021,0,0,1-3.125,21.094,4.28,4.28,0,0,1-1.172,2.344,1.446,1.446,0,0,1-.977.1,1.252,1.252,0,0,1-.683-1.171q-0.586-2.637-3.809-2.051l-1.855.195q-2.052.1-2.051-1.465V908.02a1.875,1.875,0,0,1,1.66-1.954q2.245-.488,4.395-0.781,3.026-.2,2.539-3.125l-0.2-.781q-0.391-1.659-1.562-1.465-2.345.293-4.785,0.684-2.052.392-2.051-1.172v-6.055a1.979,1.979,0,0,1,1.465-2.344,59.991,59.991,0,0,1,8.593-.976,3.2,3.2,0,0,1,3.321,1.074,10.592,10.592,0,0,1,.293,3.613h0Zm-20.7-.39,0.1,5.859a1.713,1.713,0,0,1-1.562,1.855l-3.711.391a3.138,3.138,0,0,0-2.442,1.563,5.206,5.206,0,0,0,1.075,4.394,8.148,8.148,0,0,0,2.246-.293l2.343-.488q2.052-.488,2.051,1.172,0,2.734.1,5.566a2.093,2.093,0,0,1-1.563,2.344A27.906,27.906,0,0,0,681,917.4a12.933,12.933,0,0,1-3.418.585,4.838,4.838,0,0,1-3.027-2.734,40.956,40.956,0,0,1-2.442-16.406,2.767,2.767,0,0,1,1.66-2.637,78.5,78.5,0,0,1,8.594-2.734l0.684-.2q2.05-.488,2.051,1.075h0ZM845.648,879.6a76.945,76.945,0,0,1-4.2,19.238q-3.808,10.938-13.965,23.437-1.758,1.662.2,0.782,9.668-4.981,14.16-11.817,1.267-1.951,1.562-1.758a53.8,53.8,0,0,1,9.961-4.394q4.59-1.758,7.813-.977a4.465,4.465,0,0,1,2.929,1.465,4.714,4.714,0,0,1,.684,1.953q-0.391,4.494-5.371,8.2A39.493,39.493,0,0,1,852,919.543q-1.563.684-1.953-.2a4.622,4.622,0,0,0-1.758-1.172L844.379,917a2.858,2.858,0,0,0-1.758-.2c-0.651.39-.944,0.717-0.879,0.976q-0.585,8.009-5.371,18.555-3.908,10.546-15.723,17.383a4.508,4.508,0,0,0-1.66,1.269q-1.464,1.953.489,2.246a24.253,24.253,0,0,0,4.1-.39q3.224-.294,7.813-3.809,1.757-1.563,1.66-2.148a5.544,5.544,0,0,1,1.562-1.953,46.4,46.4,0,0,0,9.278-13.379q0.78-1.953,2.441-.977a58.992,58.992,0,0,1,10.352,7.91q6.639,5.958,6.738,9.57a2.779,2.779,0,0,0,1.172,2.93q2.929,1.562,8.789,1.856,6.151,0.488,11.035.39a7.021,7.021,0,0,0,2.148-.488,7.475,7.475,0,0,0-1.855-1.953,34.733,34.733,0,0,0-8.4-4.785,78.657,78.657,0,0,1-11.718-7.91q-11.232-8.985-15.918-15.137a3.983,3.983,0,0,1-.586-3.516l0.488-.976q1.367-1.953,2.93-1.661a19.461,19.461,0,0,0,2.734.391q5.469,0.293,7.422-.293a18.078,18.078,0,0,0,3.906-1.855q4.981-2.245,7.813-3.223,3.417-1.758.586-4.492-6.545-8.2-11.719-9.668a21.744,21.744,0,0,0-14.844.976q-1.662.49-.976-1.171a106.693,106.693,0,0,0,4.1-15.918,8.668,8.668,0,0,1,2.051-3.907q1.953-1.659-.977-3.125a24.734,24.734,0,0,0-3.417-1.465q-2.149-.193-2.344.2a7.033,7.033,0,0,0-.2,2.344h0Zm-27.636,26.367q-4.494.684-11.719,2.539a7.088,7.088,0,0,1-3.711,0,0.867,0.867,0,0,0-.684.976,17.126,17.126,0,0,0,1.368,6.348,57.762,57.762,0,0,0,3.222,7.813,14.475,14.475,0,0,0,2.539,3.906q1.173,1.368,2.93.1a47.43,47.43,0,0,1,6.738-1.757,4.755,4.755,0,0,1,3.418.488q1.366,0.391,2.442-1.758l0.293-.976a1.429,1.429,0,0,0,.293-0.879q2.733-9.375,5.566-12.989a2.043,2.043,0,0,0-.879-1.66q-3.808-4-7.91-2.637a26.494,26.494,0,0,1-3.906.489h0Zm2.636,5.078a24.02,24.02,0,0,1-.781,8.105,5.205,5.205,0,0,1-.879,1.953,2.2,2.2,0,0,1-1.953.879l-3.906.489q-1.954.684-2.93-1.758a27.193,27.193,0,0,1-.879-7.324,3.619,3.619,0,0,1,2.149-2.539,20.15,20.15,0,0,1,6.25-2.051q2.343-.488,2.929,2.246h0Zm120.02-25.879q4,3.516,7.812,2.344,3.224-1.173,1.563-4.2a19.347,19.347,0,0,0-2.637-3.906,18.556,18.556,0,0,1-1.66-3.418q-1.27-1.854-2.637-1.367-4.005,2.929-4.2,6.934-0.585,2.247,1.758,3.613h0Zm5.273,6.25q-8.985,1.368-15.625,2.93a49.531,49.531,0,0,1-7.812,1.172,17.374,17.374,0,0,0-3.711-.586q-1.27.684,0,2.929a14.472,14.472,0,0,1,1.269,3.907,81.408,81.408,0,0,1-4.1,25.683,52.04,52.04,0,0,1-7.91,15.625q-3.223,3.908-6.055,7.813-0.976,2.051,1.074,1.855a14.835,14.835,0,0,0,4.785-1.953,35.372,35.372,0,0,1,3.907-2.734,28.268,28.268,0,0,0,4-3.516,5.072,5.072,0,0,0,1.562-3.906,4.712,4.712,0,0,1,.488-3.907l2.539-7.812a83.722,83.722,0,0,0,3.711-15.137q0.294-1.951,1.075-.488a7.112,7.112,0,0,0,2.539,3.32,68.43,68.43,0,0,1,9.179-2.734,4.326,4.326,0,0,1,.586,1.66,4.872,4.872,0,0,1,.2,2.441,9.764,9.764,0,0,0,.293,2.832,4.279,4.279,0,0,0,.878,2.833,74.64,74.64,0,0,1,7.911-1.172,27.374,27.374,0,0,0,3.906-.684l3.906-.586a2.358,2.358,0,0,0,1.172-.293,1.893,1.893,0,0,0,.293-0.976q-0.1-.781-0.2-1.368a1.98,1.98,0,0,1-.1-1.367q0.389-2.146.977-4.394a2.144,2.144,0,0,1,2.05-1.66,72.539,72.539,0,0,1,11.817-.2q1.951,0.1,2.148-.195,0.2-.2-0.586-2.149l-0.781-1.953a3.486,3.486,0,0,0-3.32-1.855,35.888,35.888,0,0,1-8.2,1.953q-1.662.1-1.172-1.562,0.389-1.465.879-3.028,0.879-1.951.683-2.344a10.378,10.378,0,0,0-4.59-1.367q-2.343-.1-1.66,1.856a10.722,10.722,0,0,1-.683,5.175,6.241,6.241,0,0,1-.684,2.051l-9.863,1.563q-2.051.391-2.051-1.172l0.2-1.856a2.47,2.47,0,0,0-1.758-2.734l-2.929-.684q-1.954-.293-2.051-0.1a6.962,6.962,0,0,0,.586,2.148,33.66,33.66,0,0,1,1.074,4,1.409,1.409,0,0,1-1.269,1.953q-4.1.587-8.008,0.879-1.955.49-1.953-1.269,0.389-2.931,1.465-8.106a3.533,3.533,0,0,1,2.343-2.441,98.989,98.989,0,0,1,13.282-2.735q16.6-1.758,25.1-1.074,2.246,0.49,1.367-1.66a17.235,17.235,0,0,0-2.636-6.152q-0.294-.39-2.442,0a40.93,40.93,0,0,1-9.277,2.343q-3.808.294-7.813,0.977h0Zm5.274,22.07-0.586,3.028a2.356,2.356,0,0,1-1.758,2.343l-5.176.586q-1.954.1-2.246-1.465-0.2-1.464-.293-3.027a1.8,1.8,0,0,1,1.563-2.148q2.245-.294,4.394-0.489a17.031,17.031,0,0,0,2.539-.39q1.953-.1,1.563,1.562h0Zm-21.192,17.09q-1.66-.389-2.148,1.758l-0.293,1.465a3.948,3.948,0,0,0,1.856,3.418,104.813,104.813,0,0,1,13.183,6.445q1.953,1.172.488,2.539a46.944,46.944,0,0,1-15.136,8.3l-7.813,2.637q-1.954,1.073-1.855,1.367a6.584,6.584,0,0,0,2.636.683,33.1,33.1,0,0,0,10.743-1.074,13.384,13.384,0,0,0,3.906-2.148q3.516-1.955,7.812-4.1a24.376,24.376,0,0,0,3.321-2.441q1.952-1.758,3.515-.684a10.472,10.472,0,0,1,4.59,7.91q0.587,1.561,3.613,1.856a71.867,71.867,0,0,1,12.11,1.172q3.9,1.172,10.84.39,1.952-.585-0.1-2.148a61.206,61.206,0,0,0-12.7-5.469,49.234,49.234,0,0,1-15.137-6.641q-1.955-1.365-.879-2.929a62.846,62.846,0,0,0,3.809-5.86,17.809,17.809,0,0,1,7.226-5.468,5.766,5.766,0,0,0,2.051-1.172q-0.293-1.269-2.637-2.442a14.566,14.566,0,0,0-9.57-1.953q-13.183,2.05-23.438,4.59h0Zm21.289,1.856a11.432,11.432,0,0,1-2.343,7.324q-1.466,1.955-3.028.879a89.531,89.531,0,0,0-10.253-6.348q-1.565-.975.2-1.562a20.514,20.514,0,0,1,3.222-.684q7.911-1.562,10.84-1.27,1.465,0.685,1.367,1.661h0Zm69.628-39.161a4.367,4.367,0,0,0,0,2.051,39.64,39.64,0,0,0,1.27,5.469,3.035,3.035,0,0,0,.98,1.269q7.035-1.365,11.23-1.855,1.95-.2,1.95,1.465v14.453a1.844,1.844,0,0,1-1.56,1.953,99.645,99.645,0,0,1-10.06.879c-2.87-.455-3.87.522-3.03,2.93a12.449,12.449,0,0,0,1.47,5.273c0.19,0.261,1.01.229,2.44-.1q4.59-.975,8.79-1.464,1.95-.195,1.95,1.464v15.723a1.565,1.565,0,0,1-1.66,1.758l-16.11,1.269a73.666,73.666,0,0,1-8.79.489q-2.34.391-1.86,2.246a12.213,12.213,0,0,0,1.76,4.98,4.63,4.63,0,0,0,2.15-.2q7.815-1.368,15.23-2.051,20.61-1.563,39.26-1.758a29.881,29.881,0,0,1,9.38,2.539c1.23,0.326,1.95.391,2.15,0.2q1.17-1.758-.79-5.762a31.356,31.356,0,0,1-2.05-3.808,2.664,2.664,0,0,0-2.93-1.661l-1.95.293-23.34,2.149c-1.37.065-2.05-.423-2.05-1.465l0.19-16.113a1.88,1.88,0,0,1,1.66-1.953l10.06-1.954a4.79,4.79,0,0,0,1.96-1.269q3.015-3.808.88-6.934a7.564,7.564,0,0,0-2.15.391q-2.835.783-10.26,1.953c-1.36.261-2.05-.13-2.05-1.172l0.39-14.355a1.948,1.948,0,0,1,1.76-2.149q5.175-.78,10.25-1.953,1.47,0,2.64-2.051a7.5,7.5,0,0,0,.69-3.711,2.227,2.227,0,0,0-2.64-1.757,313.41,313.41,0,0,1-35.45,3.906,5.058,5.058,0,0,0-1.76.39h0Zm38.28,41.309a3.008,3.008,0,0,0,2.44,2.148,39.185,39.185,0,0,1,5.86,1.661c1.7,0.912,2.7.488,3.03-1.27a9.107,9.107,0,0,0-2.73-5.859,16.941,16.941,0,0,1-4.3-5.762q-1.47-3.516-3.52.586a13.684,13.684,0,0,0-.78,8.5h0Zm57.23-36.719a3.368,3.368,0,0,0,1.76,2.637,22.844,22.844,0,0,1,6.15,2.832,2.139,2.139,0,0,0,1.46-2.246,15.466,15.466,0,0,0-1.95-5.859,20.741,20.741,0,0,1-4-7.325c-0.65-1.3-1.08-1.919-1.27-1.855a2.975,2.975,0,0,0-1.66,2.051,20.959,20.959,0,0,0-.49,9.765h0Zm19.53-3.222a4.389,4.389,0,0,0-1.76.879,4.994,4.994,0,0,0,0,2.148,5.5,5.5,0,0,0,1.17,3.125q0.3,0.2,2.25-.684a46.237,46.237,0,0,1,19.04-5.859c3.13,0.522,4.72,2.344,4.79,5.469a309.067,309.067,0,0,1,.49,44.14,53.744,53.744,0,0,1-.98,7.813c-0.85,1.822-1.95,2.669-3.32,2.539a35.5,35.5,0,0,1-13.96-4.3c-0.14.064,0.55,0.879,2.05,2.441a54.7,54.7,0,0,0,10.15,6.543c3.19,1.107,5.8,2.115,7.81,3.028a8.225,8.225,0,0,0,6.35.879,1.817,1.817,0,0,0,1.08-1.27q-1.08-6.055-1.37-8.789-0.69-30.955-.59-47.949a54.48,54.48,0,0,1,.69-5.762,7.011,7.011,0,0,1,1.36-3.906,6.058,6.058,0,0,0,1.76-2.051,2.329,2.329,0,0,0-.68-0.879q-3.03-1.464-9.57-2.051a52.8,52.8,0,0,0-11.13.977q-6.945,1.27-15.63,3.516h0Zm-24.8,59.472c0.19,1.3.78,1.822,1.75,1.563q4.11-1.563,3.42-4.883-0.09-2.541-.39-4.981a216.368,216.368,0,0,1,1.86-30.273,5.536,5.536,0,0,0-.3-2.832,8.5,8.5,0,0,0-1.46-.879,14.034,14.034,0,0,0-1.86-.781c-1.3-.455-2.24.131-2.83,1.758q-0.495,18.654-.19,41.308h0Zm144.33-72.754a210.6,210.6,0,0,1-12.01,19.434,5,5,0,0,1-2.93,2.051q-8.205,1.171-16.31,2.539c-1.76.39-2.6,1.335-2.54,2.832a6.322,6.322,0,0,0,1.27,3.613,4.439,4.439,0,0,0,2.15-.293q5.28-.975,10.74-1.562c1.3-.13,1.96.358,1.96,1.465a69.674,69.674,0,0,1-1.66,10.839,2.615,2.615,0,0,1-2.15,2.149l-22.27,2.734h-3.32c-1.24.131-1.69,0.945-1.37,2.442l0.3,0.976a13.119,13.119,0,0,0,1.56,3.906,135.156,135.156,0,0,1,22.95-4.589q1.95-.1,1.56,1.464A41.282,41.282,0,0,1,1228.75,942a20.461,20.461,0,0,1-4,4.883,35.065,35.065,0,0,1-11.33,6.347c-1.3.782-1.89,1.3-1.76,1.563a14.782,14.782,0,0,0,5.67,2.344c4.03,0.781,6.87.715,8.49-.2a3.717,3.717,0,0,0,1.76-1.66,16.03,16.03,0,0,1,2.15-4.883,73.972,73.972,0,0,0,9.86-19.433,2.829,2.829,0,0,1,2.35-2.149q9.465-.78,17.09-1.172,7.32-.681,12.01,1.27a38.514,38.514,0,0,0,4.49,1.27,1.319,1.319,0,0,0,1.08-1.856,22.535,22.535,0,0,0-2.64-6.836c-0.59-1.431-1.5-2.051-2.74-1.855-2.14.456-3.74,0.749-4.78,0.879l-23.05,2.734c-1.11.131-1.46-.357-1.07-1.465a43.1,43.1,0,0,0,2.34-10.742,2.253,2.253,0,0,1,1.56-2.442,91.132,91.132,0,0,1,10.94-1.757c1.89-.2,2.96-0.977,3.22-2.344a5.989,5.989,0,0,0-1.07-4.2,1.379,1.379,0,0,0-1.66-.293l-7.42,1.172c-1.3.2-1.99,0.228-2.05,0.1l0.68-1.172q5.76-7.421,13.09-15.234c1.17-1.236,1.53-2.246,1.07-3.027a10.235,10.235,0,0,0-1.95-1.856c-1.63-1.106-3.09-1.431-4.4-.976a4.671,4.671,0,0,0-1.17,2.343h0Zm-25.88,8.985a15.552,15.552,0,0,1-3.81,1.172q-1.845.782-.39,3.027a26.542,26.542,0,0,0,2.54,2.93q2.535,2.343,3.62-.1a71.148,71.148,0,0,1,9.08-9.18q1.95-1.56-.29-1.074-6.75,1.857-10.75,3.223h0Zm18.36,47.754a14.249,14.249,0,0,1,2.25,2.734,145.021,145.021,0,0,1,9.37,15.625,6.6,6.6,0,0,0,3.13,2.637,1.028,1.028,0,0,0,1.37-.489,28.9,28.9,0,0,0,2.05-9.765,4.131,4.131,0,0,0-1.86-2.832q-9.465-7.713-15.62-10.449a1.8,1.8,0,0,0-1.86.39,6.729,6.729,0,0,0,1.17,2.149h0Z"/>
  <path id="大写字母" class="cls-3" d="M143.031,511.434a16.364,16.364,0,0,1-1.172,2.343,2.169,2.169,0,0,1-1.64,1.114l-1.172.117a1.06,1.06,0,0,0-1.172,1.054q0,0.879,1.289.821a86.093,86.093,0,0,1,11.016,0c0.781,0.038,1.172-.2,1.172-0.7a1.025,1.025,0,0,0-1.172-.938,19.6,19.6,0,0,0-2.168-.351,3.369,3.369,0,0,1-1.172-.176q-1.29-.645-1-1.524a40.537,40.537,0,0,1,2.461-7.031,1.633,1.633,0,0,1,1.465-1.172q7.734-.117,15.527-0.117a1.663,1.663,0,0,1,1.582,1q1.347,3.458,2.812,6.973a1.3,1.3,0,0,1-.937,1.933,12.769,12.769,0,0,1-3.516.528q-1.173.058-1.172,0.879,0,0.762,1.231.761a133.549,133.549,0,0,1,14.765,0q1.171,0,1.172-.761,0-.82-1.172-0.879a17.651,17.651,0,0,1-2.871-.469,1.863,1.863,0,0,1-1-.762,13.268,13.268,0,0,1-1-1.758q-7.734-16.932-14.883-32.812a1.766,1.766,0,0,0-1.7-1.172,1.66,1.66,0,0,0-1.64,1.172q-9.669,22.676-13.946,31.934h0Zm21.387-10.079q0.468,1.173-.586,1.172l-1.406.059-9.551.059a8.223,8.223,0,0,0-1.348-.118,6.572,6.572,0,0,1-1.289-.058,0.8,0.8,0,0,1-.176-0.41q1.288-3.105,2.7-6.153l4.1-9.316q0.585-1.23,1.055-.176Zm27.035-21.093a32.335,32.335,0,0,1,3.574.468,1.786,1.786,0,0,1,1.231,1q0.292,2.228.469,6.386,0.175,18.576-.235,25.2a2.069,2.069,0,0,1-1,1.757,15.9,15.9,0,0,1-1.641.821,1.775,1.775,0,0,0-1.171.761q0,0.292,1.171.235a78.566,78.566,0,0,1,8.555-.176,38.02,38.02,0,0,0,13.008-.879,13.373,13.373,0,0,0,7.793-7.148,9.412,9.412,0,0,0,.351-6.914,6.244,6.244,0,0,0-3.515-4.1,22.23,22.23,0,0,0-6.8-1.641,3.035,3.035,0,0,1-1.23-.234,1.4,1.4,0,0,1,.117-0.82,2.186,2.186,0,0,1,1-.235,17.487,17.487,0,0,0,4.687-1.64q5.391-2.754,4.746-8.145-0.47-3.924-4.98-5.508a24.733,24.733,0,0,0-4.688-.82q-3.222-.057-6.386.059-5.568.294-11.543,0.117-1.758-.117-3.574-0.117-1.173,0-1.172.82,0,0.7,1.23.762h0Zm17.988,0.586a12.916,12.916,0,0,1,4.688,1.23A6.037,6.037,0,0,1,216,483.953q1.406,2.4.293,6.387a5.845,5.845,0,0,1-1.875,2.226,16.786,16.786,0,0,1-5.86,1.993,24.846,24.846,0,0,1-5.273.234A1.254,1.254,0,0,1,202,493.621q-0.119-6.913.059-11.66a0.941,0.941,0,0,1,1.054-1l1.465-.117q2.461-.058,4.863,0h0Zm8.2,21.386a10.722,10.722,0,0,1,.527,4.454,14.414,14.414,0,0,0-.352,1.7,8.27,8.27,0,0,1-3.691,4.746,17.162,17.162,0,0,1-10.9,1.582,1.213,1.213,0,0,1-1.171-1.406q-0.06-7.558,0-15.176a0.915,0.915,0,0,1,.937-1.172,22.338,22.338,0,0,1,10.781,1.289,7.153,7.153,0,0,1,3.868,3.984h0Zm25.1-19.394a15.448,15.448,0,0,0-4.394,4.57,18.8,18.8,0,0,0-2.813,11.25,26.4,26.4,0,0,0,.82,4.629q1.171,5.332,6.446,9.434a15.5,15.5,0,0,0,4.687,2.636,28.864,28.864,0,0,0,9.375,2.051l4.922-.058a26.416,26.416,0,0,0,10.547-2.754,1.96,1.96,0,0,0,.7-1l0.293-.586q0.7-1.231-.82-0.528-11.837,5.157-22.91-.527a13.647,13.647,0,0,1-4.336-3.516,17.644,17.644,0,0,1-3.75-9.375,17.218,17.218,0,0,1,1.23-8.965,16.835,16.835,0,0,1,8.731-8.027,21.59,21.59,0,0,1,13.125-.937,12.218,12.218,0,0,1,4.687,2.109,3.9,3.9,0,0,1,1.582,2.285q0.176,1.173.234,2.344,0,1.405.938,1.406,0.82,0,.879-1.406a26.868,26.868,0,0,1,.879-5.859,1.28,1.28,0,0,0-.762-1.758,41.961,41.961,0,0,0-20.918-1.407,24.092,24.092,0,0,0-9.375,3.985h0Zm42.445-2.461,3.516,0.469a1.143,1.143,0,0,1,.938.879,6.029,6.029,0,0,1,.234,1.757q0.234,2.462.293,4.981,0.351,14.883-.41,25.019a1.758,1.758,0,0,1-1,1.465,19.778,19.778,0,0,1-1.875.821q-1.173.409-1.172,0.761t1.172,0.293l1-.058q10.839-.058,18.105.117a25.788,25.788,0,0,0,11.778-3.106,20.759,20.759,0,0,0,8.671-8.847,17.245,17.245,0,0,0,1.524-4.688,20.575,20.575,0,0,0-.469-11.367,14.167,14.167,0,0,0-7.676-8.262,25.343,25.343,0,0,0-9.375-1.933q-11.016,0-21.855.058a22.343,22.343,0,0,1-3.633-.058q-1.173,0-1.172.761t1.406,0.938h0Zm30.938,2.695a10.745,10.745,0,0,1,4.394,4.1,15.166,15.166,0,0,1,2.051,7.031,20.684,20.684,0,0,1-3.691,14.707,12.518,12.518,0,0,1-4.746,4.043,25.256,25.256,0,0,1-9.375,1.758,49.153,49.153,0,0,1-7.91-.293,1.244,1.244,0,0,1-1.231-1.231q-0.294-19.51,0-31.054a0.914,0.914,0,0,1,1-1q9.375-.762,14.824.293a18.094,18.094,0,0,1,4.688,1.64h0Zm23.93-2.754a19.7,19.7,0,0,1,2.168.235,3.913,3.913,0,0,1,1.757.351,2.824,2.824,0,0,1,1.055,2.285q0.058,2.813.234,5.625,0.117,9.084-.058,18.164-0.175,3.283-.41,6.446a2.174,2.174,0,0,1-1.231,1.582l-1.758.644q-1.171.411-1.171,0.879,0,0.409,1.171.293h0.469q5.507-.117,10.84-0.058Q362.5,517,366.719,517l1.992-.176a1.189,1.189,0,0,0,1.172-1.347q0.175-3.4.527-6.27,0.175-1.172-.644-1.172-0.879,0-1.172,1.406-0.353,1.641-.821,3.223a1.672,1.672,0,0,1-1.347,1.289,83.935,83.935,0,0,1-14.766.352,0.941,0.941,0,0,1-1-1.055q-0.351-5.389-.176-14a0.956,0.956,0,0,1,.938-1.055l1.64-.117q3.165-.057,6.27,0a11.119,11.119,0,0,1,3.516.528,0.988,0.988,0,0,1,.82.937,16.564,16.564,0,0,1,.41,2.344,0.982,0.982,0,0,0,.938,1.172q0.878,0,.82-1.172a2.192,2.192,0,0,0-.059-0.528q-0.117-3.807,0-7.558l0.059-1.172q0.057-1.172-.82-1.172a0.982,0.982,0,0,0-.938,1.172l-0.117,1.172a1.883,1.883,0,0,1-1.465,1.933,10.454,10.454,0,0,1-2.344.352,67.464,67.464,0,0,1-8.73-.234,3.058,3.058,0,0,1-1.231-.235,20.137,20.137,0,0,0,.176-4.1q0.117-4.16.352-8.965a1.122,1.122,0,0,1,1.054-1.289q9.669-.409,14.063.469a1.5,1.5,0,0,1,1.465,1.171,17.418,17.418,0,0,1,.175,2.461q0,1.173.821,1.172,0.761,0,.82-1.172,0.293-3.045.645-5.273a0.943,0.943,0,0,0-.938-1.289q-3.516-.059-6.914,0l-2.051.058q-6.562,0-13.066.118l-6.68-.235q-1.23,0-1.23.7,0,0.764,1.172.879h0Zm42.445-1.582q-1.173,0-1.172.821c0,0.468.41,0.723,1.23,0.761q1.524,0.118,2.989.293a1.735,1.735,0,0,1,1.758,1.582,4.071,4.071,0,0,1,.175,1.172q0.059,3.458.235,6.856,0.233,14.883-.176,20.566a16.377,16.377,0,0,1-.176,2.988,1.024,1.024,0,0,1-.762,1,11.235,11.235,0,0,1-4.1.528,0.982,0.982,0,0,0-1.172.937q0,0.7,1.348.7,11.6-.293,16.347-0.117c0.781,0.078,1.172-.155,1.172-0.7q0-.76-1.172-0.879l-1.582-.058a8.979,8.979,0,0,1-3.164-.411,1.437,1.437,0,0,1-.82-1,116.43,116.43,0,0,1-.41-14.531,0.855,0.855,0,0,1,1-.937,53.118,53.118,0,0,1,9.844.293,1.838,1.838,0,0,1,1.464,1.23,7.785,7.785,0,0,1,.352,2.344,1,1,0,0,0,1,1.172q0.821,0,.762-1.348v-8.848q0.057-1.171-.879-1.172-0.822,0-.938,1.348a3.921,3.921,0,0,1-.351,1.758,1.171,1.171,0,0,1-1.055.82q-1.173.175-2.344,0.235-3.984-.059-7.91,0a0.88,0.88,0,0,1-1-1q-0.059-7.911.235-12.774a0.956,0.956,0,0,1,.937-1.055q3.047-.292,10.313-0.175a7.9,7.9,0,0,1,2.343.644q1.875,1.114,1.7,2.695l0.117,1.172a1.04,1.04,0,0,0,1,1.172q0.819,0,.879-1.347,0.117-2.871.468-5.567a1.006,1.006,0,0,0-1.113-1.23q-3.4-.117-6.738-0.059-7.091.236-17.285,0.176a18.947,18.947,0,0,1-3.34-.059h0Zm47.367,3.516a17.8,17.8,0,0,0-4.863,4.219,18.657,18.657,0,0,0-3.4,9.375,21.248,21.248,0,0,0,.821,8.027q2.166,7.853,11.191,11.6a35.525,35.525,0,0,0,14.824,1.875,44.938,44.938,0,0,0,11.719-2.754,1.365,1.365,0,0,0,1.172-1.524q-0.176-1.7-.117-6.269l0.176-1.875a1.642,1.642,0,0,1,1.054-1.524,8.7,8.7,0,0,1,1.582-.41q1.171-.175,1.172-0.7t-1.348-.527a0.962,0.962,0,0,1-.293.058q-6.738.06-13.359,0.059a3.86,3.86,0,0,0-.937-0.117q-1.173,0-1.172.761t1.23,0.821q2.518,0.117,5.1.293a1.7,1.7,0,0,1,1.406,1.289,13.574,13.574,0,0,1,.234,1.758,37.378,37.378,0,0,1-.117,5.683,1.6,1.6,0,0,1-1.113,1.465,27.58,27.58,0,0,1-9.961,1.348,21.439,21.439,0,0,1-9.023-2.52,17.689,17.689,0,0,1-7.5-9.2,22.212,22.212,0,0,1-.645-9.785q1.172-7.265,8.2-11.075a19.713,19.713,0,0,1,7.032-1.992,25.817,25.817,0,0,1,11.015.879,14.451,14.451,0,0,1,4.688,2.93,1.32,1.32,0,0,1,.234.586q0.176,1.466.234,2.93a0.982,0.982,0,0,0,.938,1.171,1.023,1.023,0,0,0,.937-1.171q0.292-3.222.821-5.977a2.884,2.884,0,0,0,.175-1.348,48.272,48.272,0,0,0-22.734-1.933,24.416,24.416,0,0,0-9.375,3.574h0Zm47.25-1.934q1.992,0.118,3.926.41a2.047,2.047,0,0,1,1.289,2.344q0.293,13.3.176,27.129-0.118,1.641-.352,3.34a2.176,2.176,0,0,1-1.875,1.641q-1.641,0-3.164.117-1.173.058-1.172,0.879,0,0.762,1.231.761,4.218-.293,13.242-0.117l2.637,0.059c0.858,0.038,1.289-.2,1.289-0.7s-0.391-.8-1.172-0.879q-1.7-.117-3.457-0.41a2.116,2.116,0,0,1-1.114-.645,3.352,3.352,0,0,1-.585-1.758q-0.352-5.1-.235-13.242a0.856,0.856,0,0,1,1-.937q9.022-.117,17.989-0.059l1.347,0.059a1,1,0,0,1,1.172,1,93.343,93.343,0,0,1-.527,14.648,1.947,1.947,0,0,1-1.348,1.055l-3.516.293q-1.172.058-1.171,0.879c0,0.508.39,0.741,1.171,0.7q3.574-.234,13.594-0.059l2.52,0.117c0.781,0,1.172-.272,1.172-0.82,0-.507-0.431-0.8-1.289-0.879l-2.813-.234q-1.876.234-2.168-1.934-0.234-1.99-.352-5.1-0.175-12.187.235-24.024a13.069,13.069,0,0,1,.351-2.344,1.47,1.47,0,0,1,.352-0.586,12.083,12.083,0,0,1,4.512-.761q1.172-.058,1.172-0.879,0-.7-1.172-0.645-10.723.353-16.055,0-1.23-.057-1.23.7t1.289,0.879a13.486,13.486,0,0,1,3.984.586,1.639,1.639,0,0,1,.938,1.582,75.546,75.546,0,0,1,.41,11.778,1.507,1.507,0,0,1-1.114,1.406q-1.288.058-2.461,0.058-7.382.06-14.648,0.059l-2.109-.176a1.091,1.091,0,0,1-1.231-1.054,105.768,105.768,0,0,1,.293-10.9,4.537,4.537,0,0,1,.527-2.344,1.641,1.641,0,0,1,1.114-.644,16.429,16.429,0,0,1,3.457-.469q1.171,0,1.172-.82,0-.7-1.172-0.645-10.782.353-16,0-1.232,0-1.231.7,0,0.822,1.172.879h0Zm56.742,0q1.639,0.177,3.223.235a2.162,2.162,0,0,1,1.992,2.226q0.409,7.618.234,26.133-0.175,2.286-.292,4.57a2.087,2.087,0,0,1-.411.938,2.784,2.784,0,0,1-1.992.762q-1.406,0-2.754.117-1.173.058-1.172,0.879,0,0.762,1.231.761,4.218-.293,13.242-0.117l2.637,0.059c0.859,0.038,1.289-.214,1.289-0.762q0-.76-1.348-0.879-1.466-.175-2.93-0.234A1.887,1.887,0,0,1,545,513.426a17.718,17.718,0,0,1-.41-3.633q-0.058-10.371-.059-20.684,0.058-2.577.176-5.039a4.945,4.945,0,0,1,.586-2.812,2.339,2.339,0,0,1,1.113-.586q1.464-.234,3.516-0.352,1.171-.117,1.172-0.879t-1.172-.7q-4.571.294-11.016,0.117-2.579-.176-5.039-0.175-1.173,0-1.172.761t1.172,0.879h0Zm30.61-2.871q2.343,0.175,4.1.469a1.218,1.218,0,0,1,1.289,1.23l0.293,2.93q0.117,15.293.059,30.469l-0.293,5.566a6.506,6.506,0,0,1-.41,3.223,2.8,2.8,0,0,1-1.524,1.348,6.457,6.457,0,0,1-5.215-.528,4.308,4.308,0,0,0-1.289-.937,1.723,1.723,0,0,0-.117,1.172v2.226a1.168,1.168,0,0,0,1.055,1.406q3.867,0.234,7.969-3.046a11.273,11.273,0,0,0,3.339-4.629,20.515,20.515,0,0,0,1.641-7.852q0.117-10.135.059-20.156,0.117-6.034.351-10.664a2.22,2.22,0,0,1,.41-1.172,1.108,1.108,0,0,1,1.055-.762,14.885,14.885,0,0,1,3.809-.351q1.172-.059,1.172-0.821,0-.819-1.172-0.7l-1.993.117-12.656.059-2.226-.176q-1.114-.117-1.114.762,0,0.7,1.407.82h0Zm31.019,1.289q-1.173-.057-1.172.7t1.172,0.821q1.464,0.117,2.871.351a2.059,2.059,0,0,1,2.168,1.934l0.293,4.1a259.152,259.152,0,0,1-.469,26.543,2.534,2.534,0,0,1-2.519,1.817l-2.344.234a1.024,1.024,0,0,0-1.172.938c0,0.508.39,0.741,1.172,0.7l1.641-.117q5.8-.117,11.6-0.059,1.288,0.058,2.52.176c0.781,0.038,1.172-.2,1.172-0.7s-0.391-.8-1.172-0.879a22.934,22.934,0,0,1-2.813-.293,3.394,3.394,0,0,1-1.7-1,4.952,4.952,0,0,1-.586-2.637q-0.117-3.105-.117-11.133-0.294-1.64,1.641-2.051t4.863,2.871q7.675,7.853,13.3,14.708a2.661,2.661,0,0,0,2.168,1.113,69.548,69.548,0,0,1,8.086,0c0.781,0.038,1.172-.2,1.172-0.7a1.025,1.025,0,0,0-1.172-.938,9.211,9.211,0,0,1-3.282-1,20.81,20.81,0,0,1-2.461-2.4q-9.433-9.9-14.824-16.406a1.172,1.172,0,0,1,.117-1.876q4.863-4.394,9.668-8.554A33.357,33.357,0,0,1,630,481.492a13.263,13.263,0,0,1,4.687-1.172q1.171-.117,1.172-0.879t-1.172-.644H630.18a13.959,13.959,0,0,1-3.4-.059,0.931,0.931,0,0,0-1.172,1.055,1.3,1.3,0,0,1-.468,1.406,83.423,83.423,0,0,1-7.149,7.324,84.438,84.438,0,0,1-9.375,8.262,2.71,2.71,0,0,1-1.582.41,0.88,0.88,0,0,1-1-1,128.062,128.062,0,0,1,.293-13.476q0.117-1.7,1.406-1.817a33.136,33.136,0,0,1,3.516-.586q1.171-.117,1.172-0.879t-1.172-.7q-11.426.353-15.762,0h0Zm53.051,1.524a14.162,14.162,0,0,1,4.043.527,1.779,1.779,0,0,1,1.113,1.523q0.234,2.4.352,4.805,0.117,16.818-.41,26.192a1.654,1.654,0,0,1-1.055,1.582l-2.051.879q-1.173.409-1.172,0.761,0,0.409,1.172.293a7.559,7.559,0,0,1,.938-0.058q7.5-.058,14.882,0a90.14,90.14,0,0,0,11.075-.118,1.226,1.226,0,0,0,1.23-1.289q0.293-3.4.7-6.738,0.175-1.172-.761-1.172-0.822,0-1.114,1.348a22.581,22.581,0,0,1-1.289,4.629,4.905,4.905,0,0,1-1,.234,38.945,38.945,0,0,1-9.023.645,58.069,58.069,0,0,0-5.86-.117,0.881,0.881,0,0,1-1-1q-0.234-4.922-.176-13.007,0.234-6.095.176-12.071,0.059-2.988.293-5.8a1.5,1.5,0,0,1,1.055-1.464q2.167-.353,4.1-0.586,1.171-.058,1.172-0.879,0-.7-1.23-0.645-4.981.235-10.02,0.176-3.106-.175-6.093-0.176-1.231,0-1.231.7,0,0.764,1.172.821h0Zm42.621,0.058q1.113,0.06,2.168.176a2.008,2.008,0,0,1,1.523,1.231,9.173,9.173,0,0,1,.293,1.757l0.118,6.036q0.057,12.071-.118,16.992a33.774,33.774,0,0,1-.41,7.324,2.643,2.643,0,0,1-2.4,1.348l-1.172.117a1.024,1.024,0,0,0-1.172.937q0,0.7,1.231.645l1.23-.117q4.335-.058,8.672,0a6.248,6.248,0,0,1,.879.058c0.781,0.078,1.172-.155,1.172-0.7q0-.76-1.172-0.879a11.633,11.633,0,0,1-2.578-.469,1.124,1.124,0,0,1-.938-0.878q-0.176-.585-0.293-1.172-0.351-8.32-.175-27.774a0.6,0.6,0,0,1,.527-0.41,4.091,4.091,0,0,1,1.465,1.758,20.354,20.354,0,0,0,1.289,1.933q8.2,16,13.945,27.95a5.623,5.623,0,0,0,.7,1.23,3.494,3.494,0,0,0,.645-1.172q4.393-9.081,16.347-32.519,0.352-.82.879-0.469a2.366,2.366,0,0,1,.118,1.055v22.734q-0.177,2.931-.176,5.508a1.816,1.816,0,0,1-.586,1.7,7.882,7.882,0,0,1-4.4,1.113q-1.173.06-1.172,0.821c0,0.508.39,0.741,1.172,0.7q3.867-.234,14.239-0.117l1.347,0.117c0.781,0.038,1.172-.214,1.172-0.762q0-.76-1.23-0.879a10.861,10.861,0,0,1-3.692-.351,2.244,2.244,0,0,1-.937-0.879,10.909,10.909,0,0,1-.41-2.989q-0.411-19.51.175-28.242,0.409-2.4,2.578-2.343,1.171-.117,2.344-0.176t1.172-.821q0-.76-1.289-0.7l-0.645.059q-4.336.118-8.613,0a11.607,11.607,0,0,0-1.64-.117,1.937,1.937,0,0,0-1.7,1.347q-6.8,14.709-13.476,26.9-0.7,1.173-1.231.117-10.254-19.336-13.593-27.187a1.768,1.768,0,0,0-1.7-1.172,4.379,4.379,0,0,0-1.464.117H692.4a7.625,7.625,0,0,0-1.231-.117q-1.173,0-1.172.761t1.172,0.879h0Zm66.82,0a14.34,14.34,0,0,1,2.7.528q1.23,0.175,1.406,1.875a15.126,15.126,0,0,1,.117,1.875v16.64q-0.294,7.151-.234,10.9a5.541,5.541,0,0,1-.528,2.109,1.329,1.329,0,0,1-1.113.762,8.547,8.547,0,0,1-2.344.351q-1.172.06-1.172,0.821,0,0.7,1.29.644,4.861-.117,9.609-0.058L769,516.883c0.781,0.038,1.172-.2,1.172-0.7a1.025,1.025,0,0,0-1.172-.938,9.658,9.658,0,0,1-2.93-.644,2.533,2.533,0,0,1-.82-2.344q-0.411-7.383-.293-26.25a0.791,0.791,0,0,1,.7-0.879,2.248,2.248,0,0,1,.762.586,12.268,12.268,0,0,0,1.758,2.344q7.734,9.375,24.375,27.89a3.5,3.5,0,0,0,2.226,1.289l1.348,0.235q1.111,0.232,1.055-1.055l-0.118-3.4q-0.117-10.254.059-18.106,0.175-6.035.117-11.894a2.279,2.279,0,0,1,1.582-2.344l2.344-.352q1.171-.117,1.172-0.879t-1.172-.7l-9.141.235a17.327,17.327,0,0,0-1.992-.235q-1.173-.057-1.172.762,0,0.7,1.348.82l1.758,0.235q2.109,0.175,1.875,1.992,0.643,7.909.41,25.078,0,1-1.055,0-1.113-1.054-2.051-2.051-14.94-16.053-22.675-25.781a2.4,2.4,0,0,0-2.051-1.055,64.067,64.067,0,0,1-8.438-.058q-1.172,0-1.172.761t1.172,0.879h0Zm63.246,1.817a18.33,18.33,0,0,0-7.558,13.886,23.751,23.751,0,0,0,1.816,11.309,16.577,16.577,0,0,0,8.2,7.852,27.343,27.343,0,0,0,9.375,2.226,31.333,31.333,0,0,0,12.891-1.758,17.828,17.828,0,0,0,9.082-7.324,22.12,22.12,0,0,0,3.106-12.949,18.967,18.967,0,0,0-1.7-7.031,15.8,15.8,0,0,0-6.035-6.8,24.864,24.864,0,0,0-9.375-3.106,33.252,33.252,0,0,0-12.773.645,18.521,18.521,0,0,0-7.032,3.047h0Zm24.258,0.175a10.8,10.8,0,0,1,4.336,4.161,17.016,17.016,0,0,1,1.758,4.687,29.861,29.861,0,0,1,.645,9.258,16.776,16.776,0,0,1-3.75,9.375,15.961,15.961,0,0,1-4.981,3.926,17.445,17.445,0,0,1-8.906,1.406,14.647,14.647,0,0,1-9.375-3.926,16.322,16.322,0,0,1-2.52-2.812,19.708,19.708,0,0,1-3.164-9.375q0-2.226.059-4.395a18.521,18.521,0,0,1,1.113-4.687,15.025,15.025,0,0,1,8.027-8.321,19.614,19.614,0,0,1,5.45-1.289,24.2,24.2,0,0,1,11.308,1.992h0Zm24.574-1.933a16.564,16.564,0,0,1,2.344.41q2.168,0.351,2.344,1.875,0.585,10.254.059,28.359L874.75,512.2a2.911,2.911,0,0,1-2.461,2.754l-2.344.293a1.024,1.024,0,0,0-1.172.938q0,0.762,1.231.761,4.218-.293,13.887-0.175l2.4,0.117c0.781,0.038,1.172-.2,1.172-0.7a1.025,1.025,0,0,0-1.172-.938,16.946,16.946,0,0,1-4.688-.469,1.564,1.564,0,0,1-.878-1,6.147,6.147,0,0,1-.235-1.172q0-3.221-.234-11.132-0.119-9.022.234-18.926a1.525,1.525,0,0,1,1.055-1.465,29.082,29.082,0,0,1,10.43.41,4.756,4.756,0,0,1,2.343,1.582q2.226,2.755,1.7,7.442-0.411,2.7-3.516,4.629a12.568,12.568,0,0,1-6.738,1.464,2.2,2.2,0,0,0-1.348-.058c-0.117.079-.02,0.371,0.293,0.879a1.95,1.95,0,0,0,1.523,1,16.126,16.126,0,0,0,8.321-1.114,11.7,11.7,0,0,0,6.035-5.976,10.86,10.86,0,0,0,.879-5.977,7.339,7.339,0,0,0-2.52-4.629,13.208,13.208,0,0,0-5.859-1.933,47.861,47.861,0,0,0-7.09-.176q-6.153.351-11.66,0.293a39.861,39.861,0,0,0-4.395-.234q-1.173,0-1.172.82,0,0.762,1.289.879h0Zm48.774,1.582a17.34,17.34,0,0,0-4.512,5.156,22.277,22.277,0,0,0-1.992,4.688,24.981,24.981,0,0,0-.644,7.148,20.741,20.741,0,0,0,.761,4.629,16.667,16.667,0,0,0,6.387,9.434,20.106,20.106,0,0,0,12.246,3.867l1.113,0.293q0.117,0.117-.293.586a6.684,6.684,0,0,1-1.054.527,41.652,41.652,0,0,0-5.86,3.457q-1.23,1-.879,1.348,0.409,0.351,1.582-.352a15.625,15.625,0,0,1,1.993-1,6.809,6.809,0,0,1,4.687-.469,63.1,63.1,0,0,1,9.375,2.871,30.665,30.665,0,0,0,9.375,1.993,3.118,3.118,0,0,0,1.172-.352,45.332,45.332,0,0,0,4.687-2.93,2.283,2.283,0,0,0,1.172-1.289q0-.351-1.289.176a20.562,20.562,0,0,1-3.515,1.172,19.919,19.919,0,0,1-5.508-.7q-2.462-.645-4.688-1.465a75.128,75.128,0,0,0-9.375-2.988,3.662,3.662,0,0,1-.7-0.41,0.548,0.548,0,0,1,.176-0.235,12.764,12.764,0,0,1,1.348-.234,27.863,27.863,0,0,0,11.718-2.871,16.573,16.573,0,0,0,7.735-8.145,24.229,24.229,0,0,0,2.168-10.781q-0.236-1.522-.352-2.93-1.054-8.377-9.961-12.6a29.271,29.271,0,0,0-9.375-2.11q-2.637-.057-5.156.059a22.567,22.567,0,0,0-12.539,4.453h0Zm24.551-.41a11.811,11.811,0,0,1,4.336,3.926,15.647,15.647,0,0,1,1.875,4.687,30.24,30.24,0,0,1,.527,10.606,22.764,22.764,0,0,1-1.348,4.687,15.3,15.3,0,0,1-7.968,7.852,18.228,18.228,0,0,1-16-1.348,16.7,16.7,0,0,1-4.277-4.453,18.227,18.227,0,0,1-2.93-9.375,20.784,20.784,0,0,1,1.583-9.9,14.734,14.734,0,0,1,8.085-7.441,19.028,19.028,0,0,1,7.969-1.172,22.087,22.087,0,0,1,8.145,1.934h0Zm26.215-2.813q-1.173-.057-1.172.762,0,0.762,1.23.879l2.7,0.41a1.878,1.878,0,0,1,1.524,1.172,36.559,36.559,0,0,1,.644,6.8q0.234,16.29-.175,23.086A4.073,4.073,0,0,1,974,513.9a2.191,2.191,0,0,1-1.465.937,25,25,0,0,1-2.929.41,1.024,1.024,0,0,0-1.172.938c0,0.508.39,0.741,1.172,0.7q4.511-.176,13.593-0.176l1.993,0.176c0.78,0.038,1.171-.214,1.171-0.762q0-.76-1.289-0.879a34.2,34.2,0,0,1-3.515-.527,1.419,1.419,0,0,1-1.231-1.348q-0.294-4.218-.469-8.379-0.058-6.151.352-22.793a0.914,0.914,0,0,1,1-1l2.637-.234a16.163,16.163,0,0,1,9.2,1.816,6.85,6.85,0,0,1,3.281,4.336q1,5.8-5.566,8.613a11.3,11.3,0,0,1-4.981,1.055,1.279,1.279,0,0,0-1.23.352,3.034,3.034,0,0,0,.762,1.465q7.265,9.726,12.07,16.992a2.136,2.136,0,0,0,1.875,1.23q3.69-.175,7.68-0.117,1.17,0,1.17-.645t-1.17-.7l-1.41-.234q-1.995-.409-3.98-3.457-2.467-3.456-9.614-13.77-0.647-.936.351-1.23,10.841-3.341,9.433-12.07a7.131,7.131,0,0,0-3.632-4.805,15.4,15.4,0,0,0-4.687-1.055q-7.09-.175-15.821.235-3.633.058-7.968-.235h0Zm56.1,0.586q-7.155,2.637-8.03,9.785-0.585,5.625,5.22,8.2a36.634,36.634,0,0,0,9.37,2.227,44.969,44.969,0,0,1,4.69,1,4.956,4.956,0,0,1,3.93,3.34,10.674,10.674,0,0,1,.46,4.453,6.286,6.286,0,0,1-2.34,4.043,10.65,10.65,0,0,1-4.69,2.344,15.271,15.271,0,0,1-10.54-1.055q-3.345-1.933-3.7-4.1c-0.04-.821-0.05-1.621-0.05-2.4a0.988,0.988,0,0,0-.94-1.172,0.946,0.946,0,0,0-.94,1.172,33.073,33.073,0,0,1-.64,6.621q-0.24,1.054,1.17,1.641a24.1,24.1,0,0,0,8.79,1.992,31.671,31.671,0,0,0,9.43-.879,14.457,14.457,0,0,0,8.73-6.386,11.461,11.461,0,0,0,1.06-8.262,6.46,6.46,0,0,0-3.34-4.219,22.636,22.636,0,0,0-7.04-2.109,66.65,66.65,0,0,1-9.37-1.934,5.472,5.472,0,0,1-3.69-3.809,7.535,7.535,0,0,1-.24-3.105,6.53,6.53,0,0,1,2.11-3.574,11.472,11.472,0,0,1,4.28-2.227,13.7,13.7,0,0,1,10.66,1.348,2.928,2.928,0,0,1,1.59,2.168c0.11,0.782.19,1.563,0.23,2.344,0,0.9.31,1.347,0.94,1.347a0.987,0.987,0,0,0,.94-1.172q0.285-3.28.76-5.859a1.238,1.238,0,0,0,0-.762,3.932,3.932,0,0,0-1.47-.761,21.605,21.605,0,0,0-5.27-1.172,30.408,30.408,0,0,0-7.38-.059,16.165,16.165,0,0,0-4.69,1h0Zm30.61,6.738a0.964,0.964,0,0,0,.99,1.172c0.59,0,.9-0.429.94-1.289a22.979,22.979,0,0,1,.12-2.343,1.8,1.8,0,0,1,.59-1.524,2.829,2.829,0,0,1,1.4-.41,95.3,95.3,0,0,1,10.2-.234,1.384,1.384,0,0,1,1.29,1.171q0.105,5.449.05,20.86c-0.03,3.867-.19,7.051-0.46,9.551a3.212,3.212,0,0,1-.53,1.172,3.424,3.424,0,0,1-2.35.878l-2.34.235q-1.17.118-1.17,0.879,0,0.7,1.23.7l2.11-.117q5.85-.058,11.66,0l2.46,0.117c0.78,0.038,1.17-.2,1.17-0.7s-0.47-.781-1.4-0.821l-2.93-.351c-1.41-.2-2.13-1.093-2.17-2.7q0-2.166-.12-4.218-0.12-10.781.24-25.078a1.762,1.762,0,0,1,.29-1.348,2.326,2.326,0,0,1,1.17-.176q6.21-.057,8.38.059a9.939,9.939,0,0,1,2.11.351,0.972,0.972,0,0,1,.99.645,11.633,11.633,0,0,1,.53,3.515,0.982,0.982,0,0,0,.94,1.172c0.59,0,.9-0.448.94-1.347q0.165-2.988.47-5.977a0.938,0.938,0,0,0-1.06-1.172q-8.79.411-26.01,0.293c-2.9-.038-5.86-0.136-8.91-0.293a0.945,0.945,0,0,0-1.06,1.231,58.025,58.025,0,0,1,.24,6.093h0Zm46.25-5.742,2.23,0.352c1.64,0.508,2.54,1.406,2.69,2.695q0.36,4.864.06,18.75a27.226,27.226,0,0,0,.65,7.735,9.145,9.145,0,0,0,3.04,4.16,17.553,17.553,0,0,0,9.38,3.34,26.71,26.71,0,0,0,8.61-.586,12.2,12.2,0,0,0,9.67-8.145,19.085,19.085,0,0,0,.53-4.805q0-6.736.47-16.347a25.457,25.457,0,0,1,.23-5.274,2.715,2.715,0,0,1,.7-1.113,5.4,5.4,0,0,1,2.35-.762q1.17-.117,1.17-0.879t-1.17-.7a90.278,90.278,0,0,1-10.61,0q-1.17-.057-1.17.762,0,0.762,1.17.82a9.107,9.107,0,0,1,2.76.528,2.046,2.046,0,0,1,1.23,1.523l0.11,15.234-0.05,3.926a20,20,0,0,1-1.29,7.617,6.621,6.621,0,0,1-2.11,2.344,10.606,10.606,0,0,1-4.69,1.875,24.759,24.759,0,0,1-5.22.235,16.009,16.009,0,0,1-6.97-1.993,7.794,7.794,0,0,1-2.99-4.394,19.2,19.2,0,0,1-.46-6.328q-0.12-8.671.23-16.582a5.925,5.925,0,0,1,.18-2.11,1.7,1.7,0,0,1,1.23-1.406,15.193,15.193,0,0,1,3.51-.469q1.17-.117,1.17-0.879t-1.17-.7a106.637,106.637,0,0,1-10.9.117l-4.51-.117q-1.23,0-1.23.7,0,0.764,1.17.879h0Zm50.65,0.059,2.34,0.293a1.752,1.752,0,0,1,1.65,1,32.946,32.946,0,0,1,3.34,6.445q6.21,14.063,12.48,28.125a1.837,1.837,0,0,0,1.81,1.172,1.74,1.74,0,0,0,1.76-1.172q4.155-10.488,13.89-32.05a12.64,12.64,0,0,1,1.23-2.344,2.22,2.22,0,0,1,1.64-1.172,6.218,6.218,0,0,1,1.17-.234,1.138,1.138,0,0,0,1.17-1q0-.76-1.17-0.7l-1.76.117a75.484,75.484,0,0,1-9.08-.117q-1.17-.057-1.17.7t1.17,0.879c0.59,0.04,1.15.1,1.7,0.176a2.263,2.263,0,0,1,1.99,1,4.522,4.522,0,0,1-.41,2.637q-1.575,4.57-2.69,7.031-4.05,9.435-8.03,18.867c-0.08.079-.28-0.195-0.59-0.82q-3.69-8.495-7.26-16.934-2.175-4.8-3.75-9.375a1.135,1.135,0,0,1,0-1.347,8.165,8.165,0,0,1,4.51-1.231q1.17-.117,1.17-0.879t-1.17-.7q-4.215.235-10.49,0.176c-1.91-.117-3.77-0.176-5.57-0.176q-1.23,0-1.23.762,0,0.7,1.35.879h0Zm51.76-.059,1.76,0.235q2.055,0.175,2.52,2.578,2.46,9.258,7.79,32.812a1.428,1.428,0,0,0,1.53,1.172,2.11,2.11,0,0,0,1.87-1.406q4.575-9.726,13.36-27.481c0.35-.82.68-0.878,1-0.175l11.72,27.89a1.651,1.651,0,0,0,1.64,1.172h1.58a1.573,1.573,0,0,0,1.46-1.406q3.225-11.484,6.21-21.68,1.65-6.21,3.64-11.719a3.7,3.7,0,0,1,2.63-1.874,1.149,1.149,0,0,0,1.18-1c0-.507-0.4-0.741-1.18-0.7a65.329,65.329,0,0,1-10.02-.058q-1.17,0-1.17.761t1.17,0.821a5.089,5.089,0,0,1,3.23.82,2.017,2.017,0,0,1,.35,1.758,45.552,45.552,0,0,1-1.53,7.031l-5.09,18.457a1.662,1.662,0,0,1-.71,1.172,1.858,1.858,0,0,1-.76-1q-6.03-14.355-11.89-28.652a1.582,1.582,0,0,0-1.06-1.172q-0.4,0-1.05,1.289-8.91,17.988-13.95,27.656c-0.43.117-.68-0.078-0.76-0.586q-2.925-12.889-5.45-24.609a2.826,2.826,0,0,1,.18-0.879,2.67,2.67,0,0,1,1.99-1,15.99,15.99,0,0,1,2.34-.293c0.78-.039,1.18-0.312,1.18-0.821s-0.4-.741-1.18-0.7l-1.64.117q-7.08.177-12.83-.117-1.23,0-1.23.7,0,0.764,1.17.879h0Zm68.76,0.41c0.04,0.509.52,0.7,1.46,0.586a4.908,4.908,0,0,1,4.51,1.524,34.282,34.282,0,0,1,3.46,4.687q3.045,4.689,5.92,9.375a1.611,1.611,0,0,1-.06,2.051q-7.86,10.254-11.72,14.942a4,4,0,0,1-2.93,1.347q-1.17.119-1.17,0.879t1.17,0.7c1.41-.078,2.81-0.1,4.22-0.058a1.978,1.978,0,0,0,1.93-1.055q4.23-6.621,9.73-14.063c0.59-.781,1.07-0.839,1.46-0.175q2.88,4.863,5.63,9.668,1.23,2.343,2.75,4.687a2.143,2.143,0,0,0,2,1q3.105-.117,6.03-0.058l1.29,0.058c0.78,0.078,1.17-.155,1.17-0.7,0-.469-0.45-0.741-1.35-0.82-0.58-.078-1.17-0.176-1.75-0.293-0.43.039-1.04-.469-1.82-1.524a157.318,157.318,0,0,1-10.08-16.347,1.748,1.748,0,0,1,.12-2.11q4.86-6.033,9.78-12.011,2.115-2.7,3.93-2.754,1.17-.117,1.17-0.821,0-.76-1.17-0.644a21.6,21.6,0,0,1-3.81.058,1.986,1.986,0,0,0-1.99,1q-4.695,6.446-9.26,12.89c-0.58.7-1.07,0.723-1.46,0.059l-3.87-6.739a41.482,41.482,0,0,0-2.87-4.687,6.6,6.6,0,0,0-1.88-2.285,3.343,3.343,0,0,0-2.4-.762l-7.03,1.348a1.064,1.064,0,0,0-1.11,1.054h0Zm45.72,0q0,0.646,1.23.645h0.71a3.707,3.707,0,0,1,3.16,1.348q1.29,1.349,2.4,2.636,5.565,7.736,9.55,14.063a10.843,10.843,0,0,1,1.12,4.687q0,5.568-.18,8.5a3.219,3.219,0,0,1-2.93,2.4q-1.17.175-2.34,0.293-1.17.058-1.17,0.879,0,0.762,1.17.644a0.958,0.958,0,0,0,.47,0q7.32-.117,14.59-0.058l1.17,0.058q1.17,0.117,1.17-.644t-1.17-.821a24.036,24.036,0,0,1-4.1-.41,1.143,1.143,0,0,1-.94-0.82,8.985,8.985,0,0,1-.53-3.691c-0.12-2.11-.15-4.59-0.12-7.442a12.541,12.541,0,0,1,1.65-4.219q5.67-9.022,12.71-18.75a1.751,1.751,0,0,0,.47-1q0-.351-1.17-0.351h-1.88a2.181,2.181,0,0,0-1.87,1.289q-2.7,4.864-4.81,8.2-2.745,4.57-5.39,9.14a2.882,2.882,0,0,1-.82,1.114l-2.11-3.633a124.927,124.927,0,0,0-8.67-14.063,9.911,9.911,0,0,0-2.28-1.933,3.026,3.026,0,0,0-2.35-.41c-1.84.391-3.69,0.82-5.57,1.289a1.212,1.212,0,0,0-1.17,1.054h0Zm50.53,1.407a24.579,24.579,0,0,0-.23,3.925c0,0.782.27,1.172,0.82,1.172a1.088,1.088,0,0,0,1-1.172,17.088,17.088,0,0,1,.47-2.167,2.328,2.328,0,0,1,1.05-1.934c1.02-.156,2.3-0.293,3.87-0.41q7.965-.058,15.93,0,0.945,0,.3,1.054a156.617,156.617,0,0,1-9.96,12.715q-8.04,9.844-15.82,18.75a3.306,3.306,0,0,0-1.06,2.051c0,0.548.47,0.8,1.41,0.762q5.385-.176,13.24-0.117,11.43,0.351,18.75.293a1.23,1.23,0,0,0,1.29-1.231c0.19-2.656.41-4.922,0.64-6.8,0.12-.781-0.11-1.172-0.7-1.172a1.164,1.164,0,0,0-1.11,1.172c-0.24,1.055-.51,2.11-0.82,3.164a3.616,3.616,0,0,1-3.23,2.051,104.877,104.877,0,0,1-11.07.176l-9.32-.234c-0.7-.039-0.78-0.411-0.23-1.114l26.31-32.226a2.136,2.136,0,0,0,.41-1.231q0-.644-1.17-0.644-10.38-.058-20.63,0a32.662,32.662,0,0,1-4.74.175l-4.34-.41c-0.86-.117-1.21.293-1.06,1.231v2.168Z"/>
  <path id="logo" class="cls-1" d="M706.266,1194.7a45.969,45.969,0,0,0-.118,5.15v5.16H677.555v-1.17l0.234-.94-1.406-.24c-1.1,0-2.659-.07-4.688-0.23h-3.281l-0.469,2.58a45.646,45.646,0,0,1-1.172,4.92,22.619,22.619,0,0,1-1.406,4.22,7.125,7.125,0,0,0-.82,2.23,6.584,6.584,0,0,0,2.109-.71c1.326-.54,2.615-1.13,3.867-1.76a11.566,11.566,0,0,0,3.516-2.81l1.641-1.64h66.8l1.875,1.88a14.477,14.477,0,0,0,3.75,2.81c1.406,0.62,2.655,1.17,3.75,1.64a1.036,1.036,0,1,0,1.171-1.17,17.1,17.1,0,0,1-1.406-3.99q-0.7-2.34-1.172-4.68a11.9,11.9,0,0,0-.7-3.05c0-.47-1.252-0.62-3.75-0.47-1.875.16-3.281,0.23-4.219,0.23a2.052,2.052,0,0,1-.937.24c-0.315,0-.469.31-0.469,0.94l0.235,0.93-13.594.24q-13.359,0-13.36-.24a2.838,2.838,0,0,1,.7-1.05,6.664,6.664,0,0,0,1.171-2.46,15.728,15.728,0,0,0,.469-4.22v-2.58h-4.687Q706.382,1194.46,706.266,1194.7Zm-31.289,28.12v4.22l21.093,0.23h21.094l-5.859,4.93q-5.4,4.215-8.2,6.56l-2.344,1.87v6.8H660.445v4.22h40.313v14.76c0,10.01-.158,15.47-0.469,16.41a13.152,13.152,0,0,1-1.172,3.05,21,21,0,0,1-2.578,3.04,16.962,16.962,0,0,1-3.75,2.82c-1.406.62-2.109,1.17-2.109,1.64s0.153,0.7.468,0.7a30.375,30.375,0,0,0,3.047-.47,34.353,34.353,0,0,0,4.922-1.4,16.4,16.4,0,0,0,4.688-1.88,11.74,11.74,0,0,0,3.515-2.34,12.264,12.264,0,0,0,2.344-2.58,13,13,0,0,0,1.172-2.58c0.311-.94.469-6.4,0.469-16.41v-14.76h38.2v-4.22h-38.2v-6.8l2.109-1.64q2.109-1.635,8.438-6.79,6.327-5.4,8.437-7.04a13.637,13.637,0,0,0,2.578-2.34q0-.225-28.828-0.23t-29.062.23h0Zm121.64-30.23-0.469,1.87a27.635,27.635,0,0,1-1.523,5.74c-0.861,2.43-1.681,4.65-2.461,6.68q-1.176,2.58-3.281,6.8-1.88,3.75-4.453,8.44-2.11,3.75-4.688,7.73-2.582,4.215-3.047,4.92a7.818,7.818,0,0,0-1.406,2.11c-0.157.47-.117,0.71,0.117,0.71a8.252,8.252,0,0,0,2.227-1.18q1.873-1.17,3.515-2.34,1.874-1.41,3.985-3.28a59.714,59.714,0,0,0,4.453-4.45l2.109-2.35,0.235,14.77,0.234,14.76h1.875a5.862,5.862,0,0,0,3.047-.7,5.457,5.457,0,0,0,1.875-1.17,11.374,11.374,0,0,0,1.406-1.64l0.469-.71h27.187v2.11l0.235,2.11h1.64a7.437,7.437,0,0,0,2.813-.47,9.072,9.072,0,0,0,2.109-1.17,4.666,4.666,0,0,0,1.407-1.64l0.7-.94h31.64v-4.45H838.336v-6.8H868.57v-4.45H838.336v-6.8H868.57v-4.68H838.336v-7.5H868.57v-4.69H837.164l0.938-1.17a23.668,23.668,0,0,0,1.406-2.35,6.445,6.445,0,0,0,.7-2.57,17.74,17.74,0,0,0,.469-4.93v-3.51H828.727v14.53H815.6q-13.129,0-13.125-.23c0-.16-0.158-0.24-0.469-0.24s0.311-1.41,1.875-4.22a69.182,69.182,0,0,0,3.281-7.5,16.732,16.732,0,0,0,1.406-3.98l0.235-1.17H796.617Zm31.406,22.03v7.5H802.477v-7.5h25.546Zm0,12.18v6.8H802.477v-6.8h25.546Zm0,11.25v6.8H802.477v-6.8h25.546Zm-3.515,16.88v5.16l-22.969.23H778.805v4.45h45.7v1.64c0,1.1-.081,1.64-0.235,1.64a40.222,40.222,0,0,1-4.687-1.17q-4.455-1.17-4.922-1.4-0.236,0-6.328,4.68-6.1,4.935-7.734,6.1-1.643.93-4.454,2.58a58.967,58.967,0,0,1-5.39,2.57q-2.812,1.185-5.391,2.23a35.226,35.226,0,0,1-5.859,1.76,17.416,17.416,0,0,0-3.047,1.05,6.06,6.06,0,0,0,1.289,1.06,3.994,3.994,0,0,0,1.992.94c0.469,0,2.344-.32,5.625-0.94s6.328-1.33,9.141-2.11q4.449-1.17,8.2-2.35a22.822,22.822,0,0,0,4.922-2.1q1.637-.945,9.14-6.1t7.618-5.04q0.115,0.12.117,13.48v13.12h1.406a7.357,7.357,0,0,0,2.813-.7,6.692,6.692,0,0,0,3.046-1.99,11.184,11.184,0,0,0,2.11-3.17,8.733,8.733,0,0,0,.586-2.34q0.115-1.17.117-6.33c0.154-4.68.271-7.11,0.352-7.26s1.442,0.55,4.1,2.11q3.982,2.1,6.8,3.51a34.945,34.945,0,0,0,6.328,2.58,54.282,54.282,0,0,0,6.328,1.64,52.974,52.974,0,0,0,5.625.94c1.718,0.16,4.219.23,7.5,0.23a38.521,38.521,0,0,0,5.86-.23,1.37,1.37,0,0,0,1.171-.94l0.235-1.17c0-.15-0.235-0.24-0.7-0.24-0.315,0-1.722-.23-4.219-0.7s-5-1.01-7.5-1.64q-3.516-.93-6.8-2.11-2.812-.93-5.625-2.11-2.346-1.17-10.078-6.33l-7.734-5.15,19.453-.24h19.453v-4.45H854.977l-20.157-.23v-2.58l-0.234-2.58H824.508Z"/>
</svg>
