<svg xmlns="http://www.w3.org/2000/svg" width="400" height="200" viewBox="0 0 400 200">
  <defs>
    <style>
      .cls-1 {
        fill: #fdfdfd;
        fill-rule: evenodd;
      }
    </style>
  </defs>
  <path id="王漢宗粗黑體實陰" class="cls-1" d="M12.281,87.9a2.584,2.584,0,0,0,.844,1.734l1.547,1.5a2.431,2.431,0,0,0,1.688.844h7.781a0.6,0.6,0,0,1,.656.7v1.031a0.6,0.6,0,0,1-.7.656H15.375a0.767,0.767,0,0,0-.844.891v6.469a2.468,2.468,0,0,0,.844,1.734l1.5,1.5a2.471,2.471,0,0,0,1.734.844h5.531a0.6,0.6,0,0,1,.656.7v2.484a0.6,0.6,0,0,1-.7.656H10.219a0.768,0.768,0,0,0-.844.891v6.8a2.43,2.43,0,0,0,.844,1.687l1.547,1.547a2.429,2.429,0,0,0,1.688.844h39a0.767,0.767,0,0,0,.844-0.891v-6.8a2.432,2.432,0,0,0-.844-1.688l-1.547-1.5a2.388,2.388,0,0,0-1.687-.891H38.063a0.621,0.621,0,0,1-.7-0.7v-2.437a0.621,0.621,0,0,1,.7-0.7h9.281a0.746,0.746,0,0,0,.844-0.844V98.445a2.431,2.431,0,0,0-.844-1.687l-1.5-1.547a2.47,2.47,0,0,0-1.734-.844H38.063a0.621,0.621,0,0,1-.7-0.7V92.68a0.621,0.621,0,0,1,.7-0.7H49.594a0.746,0.746,0,0,0,.844-0.844V84.57a2.431,2.431,0,0,0-.844-1.687l-1.547-1.547a2.431,2.431,0,0,0-1.687-.844H13.125a0.767,0.767,0,0,0-.844.891V87.9Zm1.547-6.562H45.7a0.621,0.621,0,0,1,.7.7v5.2a0.621,0.621,0,0,1-.7.7H34.172a0.746,0.746,0,0,0-.844.844v5.578a0.746,0.746,0,0,0,.844.844h9.281a0.621,0.621,0,0,1,.7.7v5.156a0.621,0.621,0,0,1-.7.7H34.172a0.768,0.768,0,0,0-.844.891v6.984a0.746,0.746,0,0,0,.844.844H48.563a0.622,0.622,0,0,1,.7.7v5.485a0.622,0.622,0,0,1-.7.7H10.922a0.622,0.622,0,0,1-.7-0.7V111.2a0.622,0.622,0,0,1,.7-0.7H24.8a0.746,0.746,0,0,0,.844-0.844v-6.984a0.768,0.768,0,0,0-.844-0.891H16.031a0.621,0.621,0,0,1-.7-0.7V95.914a0.622,0.622,0,0,1,.7-0.7H24.8a0.746,0.746,0,0,0,.844-0.844V88.789a0.746,0.746,0,0,0-.844-0.844H13.828a0.621,0.621,0,0,1-.7-0.7V81.336h0.7Zm0.234,4.828a0.767,0.767,0,0,0,.844.891H25.828a0.643,0.643,0,0,1,.75.7v7.688a0.643,0.643,0,0,1-.75.7H17.109a0.746,0.746,0,0,0-.844.844v3.047a0.746,0.746,0,0,0,.844.844h8.719a0.643,0.643,0,0,1,.75.7v9.141a0.643,0.643,0,0,1-.75.7H12a0.745,0.745,0,0,0-.844.843V115.6a0.745,0.745,0,0,0,.844.843H47.484a0.745,0.745,0,0,0,.844-0.843v-3.329a0.745,0.745,0,0,0-.844-0.843H33.094a0.622,0.622,0,0,1-.7-0.7v-9.141a0.621,0.621,0,0,1,.7-0.7h9.328a0.746,0.746,0,0,0,.844-0.844V96.992a0.746,0.746,0,0,0-.844-0.844H33.094a0.621,0.621,0,0,1-.7-0.7V87.758a0.622,0.622,0,0,1,.7-0.7H44.625a0.767,0.767,0,0,0,.844-0.891V83.117a0.746,0.746,0,0,0-.844-0.844H14.859a0.726,0.726,0,0,0-.8.844v3.047Zm57.563-7.031H68.3q-0.844,0-.844.516t-0.891,0a22.014,22.014,0,0,0-2.484-1.406,1.432,1.432,0,0,0-1.734.469l-3.469,3.7a1.073,1.073,0,0,0,.047,1.688q2.577,2.672,3.563,3.469a61.783,61.783,0,0,1,5.156,3.8,3.214,3.214,0,0,1,.891.984q0,0.188-.75-0.469a32.208,32.208,0,0,0-5.766-3.8,1.41,1.41,0,0,0-1.781.516l-3.609,3.844a1.123,1.123,0,0,0,.047,1.734l2.438,2.438L61.5,98.445q0.7,0.61.281,0.516-0.376-.046-0.422.8a39.72,39.72,0,0,1-4.781,16.219A1.378,1.378,0,0,0,57,117.664l1.547,1.547a5.5,5.5,0,0,0,1.078.937q3.843,1.454,7.688,2.954a0.891,0.891,0,0,0,1.266-.516q0.375-.844,1.078-0.141l0.422,0.422a2.285,2.285,0,0,0,1.734.8,35.709,35.709,0,0,0,4.078-.609,23.377,23.377,0,0,0,10.219-4.641,0.977,0.977,0,0,1,1.547-.141,18.769,18.769,0,0,0,11.484,5.391H99.8a1.6,1.6,0,0,0,1.312-1.078l2.344-5.953a1.238,1.238,0,0,0-.094-1.266,1.459,1.459,0,0,1-.421-1.078v-4.922a1.775,1.775,0,0,0-.469-1.312A1.531,1.531,0,0,1,102,106.93v-2.672a1.9,1.9,0,0,0-.422-1.313,1.437,1.437,0,0,1-.469-1.125V93.43a2.587,2.587,0,0,0-.843-1.734l-1.032-.984q-0.657-.7.047-0.7h2.813a0.746,0.746,0,0,0,.844-0.844V83.211a2.433,2.433,0,0,0-.844-1.687l-1.5-1.547a2.587,2.587,0,0,0-1.735-.844h-2.3a2.418,2.418,0,0,1-1.594-.937,2.69,2.69,0,0,0-1.781-.891h-6.75a0.809,0.809,0,0,0-.891.938,0.716,0.716,0,0,1-.7.891h-1.5A2.558,2.558,0,0,1,81.75,78.2a2.57,2.57,0,0,0-1.781-.891h-6.8a0.79,0.79,0,0,0-.844.938,0.716,0.716,0,0,1-.7.891h0Zm2.25-.984h5.438q0.7,0,.7.938a0.787,0.787,0,0,0,.891.891h4.641a0.79,0.79,0,0,0,.844-0.937,0.717,0.717,0,0,1,.7-0.891h5.437q0.7,0,.7.938a0.767,0.767,0,0,0,.844.891H98.2a0.621,0.621,0,0,1,.7.7v4.594a0.621,0.621,0,0,1-.7.7H94.078a0.746,0.746,0,0,0-.844.844V89.3a0.767,0.767,0,0,0,.844.891h2.3a0.621,0.621,0,0,1,.7.7v9.282q0,0.843.422,0.843,0.468,0,.469.7v3.562q0,0.844.469,0.844t0.469,0.7v4.125a0.621,0.621,0,0,1-.7.7H91.641q-0.844,0,0,.422a16.226,16.226,0,0,0,7.031,1.312c0.469,0,.593.251,0.375,0.75l-1.781,4.594a1.3,1.3,0,0,1-1.031.938,24.122,24.122,0,0,1-2.812-.469,18.84,18.84,0,0,1-8.953-5.3,0.807,0.807,0,0,0-1.453.047l-0.562.516a19.946,19.946,0,0,1-6.562,3.656,30.143,30.143,0,0,1-6.8,1.453,1.026,1.026,0,0,1-1.125-.7q-0.7-1.828-1.359-3.61-0.328-.843-0.562.047a30.446,30.446,0,0,1-1.125,2.953,0.807,0.807,0,0,1-1.031.657l-5.719-2.2a0.7,0.7,0,0,1-.516-1.032,40.125,40.125,0,0,0,4.453-14.953,0.635,0.635,0,0,1,.8-0.7l4.641,1.031q0.89,0.189.891,0a0.475,0.475,0,0,1,.516-0.187q0.422,0,.422-0.844v-3.75q0-.844-0.937.188l-2.625,3a0.894,0.894,0,0,1-1.453.094,87.257,87.257,0,0,0-6.609-5.812q-0.7-.562.094-1.406L60.656,89.4a1.126,1.126,0,0,1,1.359-.375,32.533,32.533,0,0,1,6.469,4.594q0.89,0.8.891-.047V90.852a0.622,0.622,0,0,1,.7-0.7h2.2a0.787,0.787,0,0,0,.891-0.891V86.82a0.767,0.767,0,0,0-.891-0.844H71.2a0.847,0.847,0,0,0-.422.281L68.25,88.977a0.907,0.907,0,0,1-1.453.188A62.63,62.63,0,0,0,60,83.82a0.822,0.822,0,0,1-.094-1.312l2.719-2.859a1.241,1.241,0,0,1,1.453-.469q1.734,0.938,3.375,1.922,0.844,0.563.844-.281a0.691,0.691,0,0,1,.7-0.844h3.281a0.787,0.787,0,0,0,.891-0.891V78.148h0.7Zm-0.516,2.719H70.078a0.787,0.787,0,0,0-.891.891v0.984q0,0.75-.7.234a27.311,27.311,0,0,0-4.031-2.531,1.321,1.321,0,0,0-1.688.375l-1.453,1.5a0.8,0.8,0,0,0,.188,1.406q2.859,2.063,5.156,4.078a0.976,0.976,0,0,0,1.594-.187l1.594-1.687a2.483,2.483,0,0,1,1.641-.891h1.734a0.735,0.735,0,0,1,.844.75v2.859a0.767,0.767,0,0,0,.891.844h5.156a0.666,0.666,0,0,1,.7.8,0.643,0.643,0,0,1-.7.75h-9a0.746,0.746,0,0,0-.844.844v7.5a0.746,0.746,0,0,0,.844.844h9a0.8,0.8,0,0,1,0,1.593H70.219a0.746,0.746,0,0,0-.844.844v1.781a0.746,0.746,0,0,0,.844.844h9.7q0.7,0,.609.891a0.836,0.836,0,0,1-.844.843H69.281a0.746,0.746,0,0,0-.844.844v1.969a0.746,0.746,0,0,0,.844.844h8.906a0.429,0.429,0,0,1,.516.328,1.215,1.215,0,0,1-.656.562,23.447,23.447,0,0,1-10.125,2.344q-0.844,0-.516.844,0.515,1.5,1.125,3a1.027,1.027,0,0,0,1.219.8,26.054,26.054,0,0,0,8.484-2.438,12.22,12.22,0,0,0,4.922-3.844q0.563-.843,1.078-0.093a12.881,12.881,0,0,0,2.719,2.765,16.729,16.729,0,0,0,8.484,3.7,1.056,1.056,0,0,0,1.172-.843l1.031-2.578q0.327-.891-0.469-0.938a13.274,13.274,0,0,1-8.062-2.719q-0.938-.843-0.187-0.843h8.2a0.746,0.746,0,0,0,.844-0.844v-1.969a0.746,0.746,0,0,0-.844-0.844H86.016a0.987,0.987,0,0,1-.75-0.14l0.094-.7a0.807,0.807,0,0,1,.8-0.891H96.188a0.746,0.746,0,0,0,.844-0.844v-1.687a0.746,0.746,0,0,0-.844-0.844H86.25a0.858,0.858,0,0,1,0-1.688H95.3a0.745,0.745,0,0,0,.844-0.843v-7.5a0.746,0.746,0,0,0-.844-0.844H86.25a0.643,0.643,0,0,1-.7-0.75,0.666,0.666,0,0,1,.7-0.8h5.2A0.746,0.746,0,0,0,92.3,88.7V85.789a0.621,0.621,0,0,1,.7-0.7h4.125a0.767,0.767,0,0,0,.844-0.891V81.758a0.767,0.767,0,0,0-.844-0.891H93q-0.7,0-.7-0.937a0.767,0.767,0,0,0-.844-0.891H88.172a0.79,0.79,0,0,0-.844.938,0.716,0.716,0,0,1-.7.891h-6.8q-0.7,0-.7-0.937a0.767,0.767,0,0,0-.844-0.891H74.906a0.79,0.79,0,0,0-.844.938,0.716,0.716,0,0,1-.7.891h0Zm6.469,3.656h6.8a0.621,0.621,0,0,1,.7.7v0.7a0.621,0.621,0,0,1-.7.7h-6.8a0.621,0.621,0,0,1-.7-0.7,10.464,10.464,0,0,1,0-1.406h0.7Zm1.078,1.219h4.641a1.078,1.078,0,0,0,.844-0.141q0-.187-0.844-0.187H80.859q-0.844,0-.844.188a1.186,1.186,0,0,0,.891.141h0ZM59.25,92.211a0.918,0.918,0,0,0,0,1.547q2.625,2.157,4.922,4.359a1.008,1.008,0,0,0,1.641,0l1.875-2.156q0.89-.984.188-1.687a32.209,32.209,0,0,0-5.531-4.031,1.164,1.164,0,0,0-1.5.281L59.25,92.211h0Zm16.5,2.109h4.359a0.621,0.621,0,0,1,.7.7v1.313a0.622,0.622,0,0,1-.7.7H75.7a0.622,0.622,0,0,1-.7-0.7q0-1.031.047-1.969Zm10.547,0h4.313a0.621,0.621,0,0,1,.7.7v1.313a0.622,0.622,0,0,1-.7.7H86.25a0.621,0.621,0,0,1-.7-0.7q0-1.031.047-1.969ZM76.781,96.1h2.25q0.89,0,.891-0.422t-0.891-.422h-2.25q-0.844,0-.844.469,0,0.376.844,0.375h0Zm10.547,0h2.25q0.844,0,.844-0.422t-0.844-.422h-2.25q-0.844,0-.844.469,0,0.376.844,0.375h0ZM59.016,115.086a0.755,0.755,0,0,0,.516,1.172l3.8,1.453a0.893,0.893,0,0,0,1.172-.7,57.463,57.463,0,0,0,3.047-14.11,0.854,0.854,0,0,0-.75-1.031l-2.953-.656a0.687,0.687,0,0,0-.938.7,40.719,40.719,0,0,1-3.891,13.172h0Zm9.188-9.844a1.019,1.019,0,0,0,.047.844q0.187,0,.188-0.844v-1.594q-0.141.845-.234,1.594h0Zm-1.266,6.891a0.6,0.6,0,0,0,.656.844,26.815,26.815,0,0,0,7.266-1.079q0.844-.28,0-0.281H68.2a0.621,0.621,0,0,1-.7-0.7v-0.656q0-.8-0.187.14a15.585,15.585,0,0,1-.375,1.735h0Zm52.969-34.594q-0.843,0-.375,1.031l0.657,1.313q0.373,0.844-.329.844H106.547a0.767,0.767,0,0,0-.891.844V92.68a2.418,2.418,0,0,0,.891,1.734l1.594,1.594q0.656,0.657-.047.656h-1.688a0.768,0.768,0,0,0-.844.891v6.375a2.432,2.432,0,0,0,.844,1.687l1.5,1.547a2.308,2.308,0,0,0,1.453.844q0.563,0-.187.75a26.922,26.922,0,0,1-4.688,3.515,0.713,0.713,0,0,0-.187,1.219q4.827,5.2,8.156,8.485a1.279,1.279,0,0,0,1.781.14,28.855,28.855,0,0,0,2.438-1.922,0.977,0.977,0,0,1,.7-0.422,3.875,3.875,0,0,0,.891.985l1.5,1.5a2.432,2.432,0,0,0,1.687.844h6.891a7.8,7.8,0,0,0,2.953-.657,4.227,4.227,0,0,0,2.156-2.156,8.7,8.7,0,0,0,.8-3.422v-3.844q0-.7.75-0.046a39.164,39.164,0,0,1,6.141,6.656l2.531,2.484a1.084,1.084,0,0,0,1.734.047q2.484-2.437,4.969-4.781a1,1,0,0,0,.094-1.594q-2.719-2.812-5.391-5.437l-1.64-1.547q-0.891-.8-0.141-0.8h5.578a0.788,0.788,0,0,0,.891-0.891v-6.375a2.388,2.388,0,0,0-.891-1.687l-1.594-1.594q-0.657-.7.047-0.7h1.594a0.746,0.746,0,0,0,.844-0.844V84.8a2.588,2.588,0,0,0-.844-1.734l-1.5-1.5a2.47,2.47,0,0,0-1.734-.844h-12.7a1.1,1.1,0,0,1-.75-0.141,3.882,3.882,0,0,0-.89-0.984l-1.5-1.547a2.383,2.383,0,0,0-1.735-.8q-1.734.047-3.421,0.141-3.094.141-4.782,0.141h0Zm8.813,1.266q0.422,0.938.75,1.875a1.112,1.112,0,0,0,1.125.891h14.437a0.621,0.621,0,0,1,.7.7v9.75a0.621,0.621,0,0,1-.7.7h-5.2a0.746,0.746,0,0,0-.844.844v1.406a0.643,0.643,0,0,1-.75.7H113.953a0.621,0.621,0,0,1-.7-0.7V93.57a0.746,0.746,0,0,0-.844-0.844h-5.2a0.621,0.621,0,0,1-.7-0.7v-9.75a0.621,0.621,0,0,1,.7-0.7h13.688q0.843,0,.468-1.031L120.8,79.227q-0.421-.844.281-0.844,3.421-.187,6.516-0.281a1.027,1.027,0,0,1,1.125.7h0ZM122.2,80.117q0.327,0.75.563,1.453,0.234,0.891-.469.891H108.281a0.745,0.745,0,0,0-.843.844v7.641a0.767,0.767,0,0,0,.843.891h3.375a0.767,0.767,0,0,0,.844-0.891V87.383a0.621,0.621,0,0,1,.7-0.7h25.875a0.621,0.621,0,0,1,.7.7v3.563a0.767,0.767,0,0,0,.844.891H144a0.767,0.767,0,0,0,.844-0.891V83.3A0.746,0.746,0,0,0,144,82.461H129.7a0.9,0.9,0,0,1-.891-0.75l-0.656-1.875a1.289,1.289,0,0,0-1.406-.75l-3.938.141q-0.984.047-.609,0.891h0ZM114.281,89.4H138a0.891,0.891,0,1,0,0-1.781H114.281a0.892,0.892,0,0,0,0,1.781h0Zm-0.093,4.5a0.745,0.745,0,0,0,.843.844H137.2a0.746,0.746,0,0,0,.844-0.844V91.18a0.746,0.746,0,0,0-.844-0.844H114.984a0.748,0.748,0,0,0-.8.891V93.9Zm30.8,3.609a0.622,0.622,0,0,1,.7.7v5.062a0.623,0.623,0,0,1-.7.7H131.062a0.745,0.745,0,0,0-.843.843v8.813a12,12,0,0,1-.516,2.719,4.779,4.779,0,0,1-1.219,1.687,5.923,5.923,0,0,1-3.422,1.031h-6.281a0.723,0.723,0,0,1-.8-0.7q-0.516-2.625-.89-5.2-0.187-.984-0.8-0.234a29.1,29.1,0,0,1-5.3,4.922,1.112,1.112,0,0,1-1.594-.141q-1.922-2.064-3.8-4.031-0.657-.7,0-1.172a27.9,27.9,0,0,0,8.157-7.688c0.405-.562.328-0.843-0.235-0.843h-6.469a0.622,0.622,0,0,1-.7-0.7V98.211a0.643,0.643,0,0,1,.75-0.7h37.875ZM107.3,102.2a0.746,0.746,0,0,0,.844.844h15a0.622,0.622,0,0,1,.7.7v6.61a3.611,3.611,0,0,1-.094,1.5,1.477,1.477,0,0,1-1.359,1.125l-3.422-.188q-1.032-.047-0.891.75l0.656,3.75a0.92,0.92,0,0,0,.985.891h5.3a4.875,4.875,0,0,0,3.234-1.172,5.925,5.925,0,0,0,1.031-3.422v-9.844a0.622,0.622,0,0,1,.7-0.7h13.969a0.746,0.746,0,0,0,.844-0.844V99.289a0.746,0.746,0,0,0-.844-0.844H108.094a0.749,0.749,0,0,0-.8.891V102.2Zm12.141,4.5a0.854,0.854,0,0,1,.468,1.219,30.107,30.107,0,0,1-1.968,2.953q-0.7.939,0.093,0.985,2.111,0.095,4.219.234a0.64,0.64,0,0,0,.656-0.563,4.393,4.393,0,0,0,.047-1.171v-4.829l-0.047-.656a0.749,0.749,0,0,0-.8-0.89h-6.047q-0.8,0,.188.609Zm26.578,5.766a1.016,1.016,0,0,1,.14,1.547l-3.937,3.8q-0.844.748-1.407,0A82.164,82.164,0,0,0,132,108.852a0.807,0.807,0,0,1,.094-1.36l3.609-2.906a1.032,1.032,0,0,1,1.359-.094,85.445,85.445,0,0,1,8.954,7.969h0Zm-38.813.094q-0.843.563-.047,1.406l2.2,2.391a1.206,1.206,0,0,0,1.688.375,34.331,34.331,0,0,0,7.5-8.344,0.916,0.916,0,0,0-.328-1.406q-1.266-.8-2.531-1.641-0.8-.516-1.594.562a28.327,28.327,0,0,1-6.891,6.657h0Zm26.25-4.969q-0.75.609,0.141,1.453a78.308,78.308,0,0,1,7.125,7.266,1.021,1.021,0,0,0,1.687,0l2.25-2.11a1.113,1.113,0,0,0,0-1.781,79.326,79.326,0,0,0-7.453-6.609,1.1,1.1,0,0,0-1.594.047Zm25.781-27.938a0.723,0.723,0,0,1-.7.8l-5.3.7a0.707,0.707,0,0,0-.7.984,54.329,54.329,0,0,1,1.594,8.906,0.684,0.684,0,0,1-.75.844,0.749,0.749,0,0,0-.8.891v6.094a2.42,2.42,0,0,0,.891,1.735l1.453,1.453a0.943,0.943,0,0,1,.14,1.359,17.73,17.73,0,0,1-2.2,2.2,1.51,1.51,0,0,0-.468,1.641q1.359,4.032,2.765,8.109a4.147,4.147,0,0,0,.985,1.266l1.547,1.547q0.843,0.843,1.171.468,0.375-.375.375,0.375v0.563a2.589,2.589,0,0,0,.844,1.734l1.5,1.5a2.468,2.468,0,0,0,1.734.844h6.094a0.726,0.726,0,0,0,.844-0.8c0-.532.078-0.734,0.234-0.609a1.72,1.72,0,0,0,1.032.187h26.39a0.767,0.767,0,0,0,.844-0.89v-6.094a2.582,2.582,0,0,0-.844-1.734l-0.984-.985a1.876,1.876,0,0,1-.7-1.359V83.07a2.429,2.429,0,0,0-.844-1.687l-1.5-1.5a2.422,2.422,0,0,0-1.734-.891H171.7a0.788,0.788,0,0,0-.891.891c0,0.594-.093.891-0.281,0.891a0.329,0.329,0,0,1-.281-0.187,9.928,9.928,0,0,0-.844-0.937l-1.5-1.5a2.468,2.468,0,0,0-1.734-.844h-6.141a0.749,0.749,0,0,0-.8.891v1.453Zm1.547-1.5h4.735a0.622,0.622,0,0,1,.7.7V85.93q0,0.844.187,0a36.235,36.235,0,0,0,.61-4.078,0.724,0.724,0,0,1,.843-0.75q1.453,0.328,2.953.516a0.627,0.627,0,0,0,.844-0.7V80.539a0.622,0.622,0,0,1,.7-0.7h19.125a0.622,0.622,0,0,1,.7.7v30.8a0.787,0.787,0,0,0,.89.891h0.938a0.622,0.622,0,0,1,.7.7v4.781a0.622,0.622,0,0,1-.7.7H168.984a0.622,0.622,0,0,1-.7-0.7V112.93a0.622,0.622,0,0,1,.7-0.7h1.828a0.767,0.767,0,0,0,.844-0.891V106.6q0-.845-0.468-0.047l-1.688,2.859q-0.422.7-1.078,0l-1.5-1.687q-0.7-.891-0.7,0v11.2a0.622,0.622,0,0,1-.7.7h-4.782a0.622,0.622,0,0,1-.7-0.7v-9.422q0-.844-0.562.094a40.178,40.178,0,0,1-3.047,3.843q-0.8.8-1.031,0.047l-2.063-6.14a1.265,1.265,0,0,1,.469-1.454,24.966,24.966,0,0,0,4.781-6.093q0.468-.89-0.375-0.891h-4.078a0.621,0.621,0,0,1-.7-0.7V93.43a0.621,0.621,0,0,1,.7-0.7h5.063q0.843,0,.843-0.562t-0.89-.375l-3.188.563a0.689,0.689,0,0,1-.891-0.609,63.131,63.131,0,0,0-1.5-8.906,0.629,0.629,0,0,1,.563-0.937l4.125-.562a0.768,0.768,0,0,1,.984.609l0.657,2.719q0.14,0.844.14,0V78.852l0.047-.7h0.7Zm0.188,14.813a0.622,0.622,0,0,1-.7.7H155.2a0.746,0.746,0,0,0-.844.844v2.625a0.767,0.767,0,0,0,.844.891H159.8q0.749,0,.375.7a28.144,28.144,0,0,1-5.344,7.5,1.314,1.314,0,0,0-.422,1.5l1.266,3.843q0.375,0.939.984,0.188a23.25,23.25,0,0,0,3.656-5.531q0.282-.657.563-0.469a1.569,1.569,0,0,1,.094.515v11.579a0.767,0.767,0,0,0,.843.89h2.672a0.767,0.767,0,0,0,.844-0.89V105.523q0-.7.75-0.093a21.476,21.476,0,0,1,2.2,2.39q0.657,0.752,1.219-.187l1.547-2.719a1.149,1.149,0,0,0-.328-1.594,43.331,43.331,0,0,0-4.547-3.281,1.673,1.673,0,0,1-.844-1.312,0.621,0.621,0,0,1,.7-0.7h3.844a0.788,0.788,0,0,0,.891-0.891V94.508a0.768,0.768,0,0,0-.891-0.844h-3.844a0.621,0.621,0,0,1-.7-0.7V79.883a0.746,0.746,0,0,0-.844-0.844h-2.672a0.767,0.767,0,0,0-.843.891V92.961Zm11.625,19.453a0.622,0.622,0,0,1-.7.7h-1.829a0.745,0.745,0,0,0-.843.844v2.672a0.746,0.746,0,0,0,.843.844h22.876a0.746,0.746,0,0,0,.843-0.844v-2.672a0.745,0.745,0,0,0-.843-0.844H192a0.621,0.621,0,0,1-.7-0.7v-30.8a0.767,0.767,0,0,0-.891-0.844H173.391a0.726,0.726,0,0,0-.8.844v30.8Zm-6.188-22.453q-0.187.75,0.8,0.938l1.969,0.422a0.964,0.964,0,0,0,1.172-.844,41.159,41.159,0,0,0,1.172-6.844,0.857,0.857,0,0,0-.75-1.078l-2.016-.328a0.7,0.7,0,0,0-.891.75,55.643,55.643,0,0,1-1.453,6.984h0Zm-11.672-6.187a65.465,65.465,0,0,1,1.125,6.8,0.754,0.754,0,0,0,1.032.656q1.17-.234,2.343-0.422a0.73,0.73,0,0,0,.7-0.984q-0.517-3.094-1.36-6.609a0.882,0.882,0,0,0-1.031-.844l-2.2.281q-0.844.094-.61,1.125h0Zm30.891,1.359a0.621,0.621,0,0,1,.7.7v5.016a0.621,0.621,0,0,1-.7.7h-7.406a0.621,0.621,0,0,1-.7-0.7V85.789a0.6,0.6,0,0,1,.7-0.656h7.406Zm-7.172,4.641a0.767,0.767,0,0,0,.844.891h5.25a0.768,0.768,0,0,0,.844-0.891V86.867a0.746,0.746,0,0,0-.844-0.844h-5.3a0.749,0.749,0,0,0-.8.891v2.859Zm-7.5,2.063a0.824,0.824,0,0,1-1.078.563q-1.406-.281-2.766-0.562-0.891-.187-0.89.375,0,0.516.89,0.516h3.844a0.621,0.621,0,0,1,.7.7v4.781a0.621,0.621,0,0,1-.7.7h-3.891q-0.937,0-.093.516a36.272,36.272,0,0,1,3.843,2.765q0.844,0.7.844-.14V89.727q0-.844-0.187,0Zm14.672,3.75a0.621,0.621,0,0,1,.7.7v5.3a0.621,0.621,0,0,1-.7.7h-7.406a0.621,0.621,0,0,1-.7-0.7v-5.3a0.621,0.621,0,0,1,.7-0.7h7.406Zm-1.078,5.766a0.747,0.747,0,0,0,.844-0.844V97.367a0.768,0.768,0,0,0-.844-0.891H179.3a0.767,0.767,0,0,0-.844.891v3.141a0.746,0.746,0,0,0,.844.844h5.25Zm-6.281,4.921h7.359a0.622,0.622,0,0,1,.7.7v5.437a0.621,0.621,0,0,1-.7.7h-7.406a0.621,0.621,0,0,1-.7-0.7v-5.391l0.046-.7Zm0.187,5.063a0.767,0.767,0,0,0,.844.891h5.25a0.768,0.768,0,0,0,.844-0.891v-3.281a0.746,0.746,0,0,0-.844-0.844H179.3a0.767,0.767,0,0,0-.844.891v3.234Zm5.438-.094a2.348,2.348,0,0,1,.7.047,1.225,1.225,0,0,1-.7.094h-0.75a0.945,0.945,0,0,1-.657-0.094c0.438-.031.906-0.047,1.407-0.047h0Zm18.984-14.531a1.709,1.709,0,0,0,.187,1.031,1.461,1.461,0,0,1,.141.844v3.8a0.6,0.6,0,0,1-.7.656h-0.656a0.767,0.767,0,0,0-.844.891v5.718a2.43,2.43,0,0,0,.844,1.688l0.656,0.656a0.949,0.949,0,0,1,.141,1.36,18.7,18.7,0,0,1-2.719,2.578,0.994,0.994,0,0,0,0,1.593l1.5,1.5a4.414,4.414,0,0,0,1.125.985q3.984,1.829,7.547,3.562a1.376,1.376,0,0,0,1.687-.422,14.615,14.615,0,0,0,1.547-1.875,0.717,0.717,0,0,1,1.266-.14L216,122.539a2.078,2.078,0,0,0,1.688.75l3.7-.422q1.732-.141,3.421-0.375,1.032-.141.985-0.469-0.048-.375.844,0.516a2.044,2.044,0,0,0,1.734.7l6.891-1.172a0.8,0.8,0,0,0,.75-0.984q-0.094-.75,0-0.516a5.471,5.471,0,0,0,.937,1.078L238.5,123.2a1.519,1.519,0,0,0,1.688.516l6.843-2.391a0.729,0.729,0,0,0,.422-1.172q-1.312-2.766-2.953-5.578-0.516-.843.188-0.843h1.031a0.767,0.767,0,0,0,.843-0.891v-5.719a2.431,2.431,0,0,0-.843-1.687l-0.7-.7a1.93,1.93,0,0,1-.657-1.36v-1.875q0-.7.188-0.7a1.058,1.058,0,0,0,.187-0.891V82.18a2.432,2.432,0,0,0-.843-1.687l-1.547-1.547a2.432,2.432,0,0,0-1.688-.844H203.719a0.767,0.767,0,0,0-.844.891V96.711ZM240,78.945a0.621,0.621,0,0,1,.7.7V96.055a0.621,0.621,0,0,1-.7.7H226.5q-0.843,0-.844.422T226.5,97.6h13.125a0.621,0.621,0,0,1,.7.7v3.89a0.621,0.621,0,0,1-.7.7H226.5q-0.843,0-.844.469,0,0.516.844,0.516h15.328a0.621,0.621,0,0,1,.7.7v4.406a0.621,0.621,0,0,1-.7.7h-1.687q-0.844,0-.235.985,1.828,3,3.188,5.765,0.422,0.845-.282,1.125l-5.343,1.875a0.749,0.749,0,0,1-1.125-.375,48.3,48.3,0,0,0-3.938-8.25q-0.422-.655.328-0.8l0.563-.14q0.843-.187,0-0.188H230.25q-0.843,0-.516.844a51.066,51.066,0,0,1,2.11,6.609,0.828,0.828,0,0,1-.563,1.032l-5.484.937a0.769,0.769,0,0,1-.985-0.609,58.362,58.362,0,0,0-1.874-7.735,0.663,0.663,0,0,1,.515-0.984q0.7-.093-0.141-0.094h-2.624q-0.844,0-.61.844a61.89,61.89,0,0,1,1.5,7.078,0.724,0.724,0,0,1-.656.938l-5.719.609a0.673,0.673,0,0,1-.844-0.656,51.219,51.219,0,0,0-1.078-7.875,0.621,0.621,0,0,1,.563-0.891q0.656-.047-0.188-0.047h-1.64q-0.844,0,0,.188a0.682,0.682,0,0,1,.609.89,24.727,24.727,0,0,1-4.359,8.3,1.126,1.126,0,0,1-1.36.375q-2.812-1.359-5.484-2.625-0.8-.375-0.047-1.031a17.715,17.715,0,0,0,4.172-5.25q0.468-.843-0.422-0.844h-2.578a0.621,0.621,0,0,1-.7-0.7v-4.406a0.621,0.621,0,0,1,.7-0.7h15.141q0.843,0,.843-0.516,0-.468-0.843-0.469H204.75a0.621,0.621,0,0,1-.7-0.7V98.3a0.621,0.621,0,0,1,.7-0.7h12.938q0.843,0,.843-0.422t-0.843-.422H204.422a0.621,0.621,0,0,1-.7-0.7V79.648a0.621,0.621,0,0,1,.7-0.7H240ZM204.609,94.977a0.767,0.767,0,0,0,.891.844h13.219a0.643,0.643,0,0,1,.75.7v1.313a0.643,0.643,0,0,1-.75.7H205.828a0.746,0.746,0,0,0-.844.844v1.734a0.746,0.746,0,0,0,.844.844h12.891a0.643,0.643,0,0,1,.75.7v1.453a0.643,0.643,0,0,1-.75.7H203.625a0.768,0.768,0,0,0-.891.844v2.25a0.767,0.767,0,0,0,.891.844H240.75a0.746,0.746,0,0,0,.844-0.844v-2.25a0.747,0.747,0,0,0-.844-0.844H225.469a0.643,0.643,0,0,1-.75-0.7v-1.453a0.643,0.643,0,0,1,.75-0.7h13.078a0.746,0.746,0,0,0,.844-0.844V99.383a0.746,0.746,0,0,0-.844-0.844H225.469a0.643,0.643,0,0,1-.75-0.7V96.523a0.643,0.643,0,0,1,.75-0.7h13.453a0.746,0.746,0,0,0,.844-0.844V80.727a0.746,0.746,0,0,0-.844-0.844H205.453a0.768,0.768,0,0,0-.844.891v14.2Zm14.11-11.484a0.643,0.643,0,0,1,.75.7v7.547a0.643,0.643,0,0,1-.75.7h-8.531a0.622,0.622,0,0,1-.7-0.7V84.2a0.622,0.622,0,0,1,.7-0.7h8.531Zm15.469,0a0.622,0.622,0,0,1,.7.7v7.547a0.622,0.622,0,0,1-.7.7h-8.719a0.643,0.643,0,0,1-.75-0.7V84.2a0.643,0.643,0,0,1,.75-0.7h8.719Zm-22.876,1.266q0.844-.327-0.046-0.328-0.844,0-.844.328t0.89,0h0Zm6.7,3.328q0.515,0.891.515,0V85.273a0.745,0.745,0,0,0-.843-0.844h-1.36q-0.843,0-.187.844,0.984,1.406,1.875,2.813h0Zm7.64,0.469q0,0.844.61,0.141a15.855,15.855,0,0,0,2.062-3.422q0.422-.844-0.469-0.844H226.5a0.746,0.746,0,0,0-.844.844v3.281Zm7.5-3.7q0.844,0.235.844-.094t-0.844-.328h-0.468q-0.844,0,0,.234Zm-21.281.656a0.691,0.691,0,0,0-.328,1.172,24.015,24.015,0,0,1,2.062,3.844,0.854,0.854,0,0,0,1.266.469l2.25-.937q0.8-.327.187-1.312a30.817,30.817,0,0,0-2.3-3.422,1.245,1.245,0,0,0-1.641-.422q-0.8.281-1.5,0.609h0ZM227.2,88.93q-0.75.984,0.094,1.266l2.062,0.938a1.075,1.075,0,0,0,1.453-.422,23.421,23.421,0,0,0,2.11-4.125,0.872,0.872,0,0,0-.75-1.125l-1.688-.562a0.894,0.894,0,0,0-1.218.609A17.511,17.511,0,0,1,227.2,88.93h0Zm4.735,1.734q-0.517.891,0.328,0.891h0.89A0.767,0.767,0,0,0,234,90.664V87.055q0-.8-0.375.234a27.435,27.435,0,0,1-1.687,3.375h0Zm-21.516,0a0.767,0.767,0,0,0,.844.891H212.2q0.844,0,.469-0.891a24.727,24.727,0,0,0-1.734-3.234q-0.517-.8-0.516.094v3.141Zm6.422,0.516q-0.891.376,0,.375h0.844q0.843,0,.843-0.609,0-.515-0.843-0.094Zm9.656,0.375h0.656q0.891,0,0-.375L226.5,90.9q-0.843-.375-0.844.141t0.844,0.516h0Zm-23.391,23.812q-0.843.844,0.188,1.313l3.234,1.593a1.453,1.453,0,0,0,1.735-.609,24.4,24.4,0,0,0,3.093-6,0.726,0.726,0,0,0-.515-1.125l-2.953-.7a1.076,1.076,0,0,0-1.313.8,19.463,19.463,0,0,1-3.469,4.734h0Zm30.891-3.7a52.75,52.75,0,0,1,2.766,5.953,0.874,0.874,0,0,0,1.172.7l3.374-1.172a0.713,0.713,0,0,0,.516-1.125q-1.406-2.764-3.14-5.484a1.267,1.267,0,0,0-1.407-.7l-2.953.75q-0.843.235-.328,1.078h0Zm-9.844-.094q0.844,2.907,1.406,5.719a0.8,0.8,0,0,0,1.032.75l3.562-.656q0.8-.094.516-1.078a40.3,40.3,0,0,0-1.781-5.391,1.075,1.075,0,0,0-1.219-.75q-1.5.188-2.953,0.375-0.844.094-.563,1.031h0Zm-9.75-.093q0.516,3,.75,5.812a0.763,0.763,0,0,0,.891.844l3.8-.375a0.725,0.725,0,0,0,.656-0.985,55,55,0,0,0-1.219-5.578,1.017,1.017,0,0,0-1.078-.843q-1.595.046-3.141,0.234a0.633,0.633,0,0,0-.656.891h0Zm56.25-32.625a0.6,0.6,0,0,1-.7.656h-1.641a1.993,1.993,0,0,1-1.359-.7,2.2,2.2,0,0,0-1.594-.7H250.594a0.767,0.767,0,0,0-.844.891V89.4a0.542,0.542,0,0,1-.562.656c-0.345,0-.516.3-0.516,0.891V99.57a2.149,2.149,0,0,0,.7,1.547,2.026,2.026,0,0,1,.7,1.406v17.063a2.584,2.584,0,0,0,.844,1.734l1.5,1.5a2.582,2.582,0,0,0,1.734.844h5.625q0.844,0,.844-0.281,0-.235.7-0.235h3.422l1.031-.187a1.157,1.157,0,0,1,1.078-.047,1.973,1.973,0,0,0,1.079.188h25.781a0.746,0.746,0,0,0,.843-0.844v-5.531a2.433,2.433,0,0,0-.843-1.688l-0.375-.375a2.024,2.024,0,0,1-.7-1.406v-6.8a0.675,0.675,0,0,1,.843-0.656,0.749,0.749,0,0,0,.8-0.891V99.43a1.841,1.841,0,0,0-.515-1.359,1.61,1.61,0,0,1-.516-1.172V83.586a2.429,2.429,0,0,0-.844-1.687l-1.547-1.547a2.43,2.43,0,0,0-1.687-.844H287.3a1.925,1.925,0,0,1-1.359-.656l-0.7-.7a2.43,2.43,0,0,0-1.687-.844H271.5a0.768,0.768,0,0,0-.844.891v0.656Zm1.547-.7h4.453a0.621,0.621,0,0,1,.7.7v0.656q0,0.844.235,0.844t0.234-.844V78.852a0.621,0.621,0,0,1,.7-0.7h4.36a0.622,0.622,0,0,1,.7.7v0.656a0.746,0.746,0,0,0,.844.844h4.078a0.622,0.622,0,0,1,.7.7v14.2a0.622,0.622,0,0,1-.7.7H267.609a1.075,1.075,0,0,0-.843.141,1.5,1.5,0,0,0,.843.094h21.938a0.621,0.621,0,0,1,.7.7v4.125a0.622,0.622,0,0,1-.7.7H266.109a0.767,0.767,0,0,0-.843.89v10.031a0.745,0.745,0,0,0,.843.844h2.907q0.843,0,.562-0.75a1.179,1.179,0,0,0-1.172-.75h-0.75a0.622,0.622,0,0,1-.7-0.7v-8.625a0.622,0.622,0,0,1,.7-0.7h20.25a0.621,0.621,0,0,1,.7.7v8.625a0.621,0.621,0,0,1-.7.7H287.3a1.094,1.094,0,0,0-1.125.75q-0.282.75,0.562,0.75h3.094a0.622,0.622,0,0,1,.7.7v4.172a0.621,0.621,0,0,1-.7.7H265.406a0.622,0.622,0,0,1-.7-0.7v-0.609q0-.844-0.656.187a2.826,2.826,0,0,1-.844.657,3.9,3.9,0,0,1-1.687.515h-3.282a0.722,0.722,0,0,1-.8-0.7q-0.423-1.923-.7-3.8-0.139-.89-0.14,0v4.313a0.622,0.622,0,0,1-.7.7h-4.266a0.622,0.622,0,0,1-.7-0.7V100.461a0.69,0.69,0,0,0-.7-0.844,0.621,0.621,0,0,1-.7-0.7V91.6q0-.7.515-0.7t0.516-.844V79.648a0.621,0.621,0,0,1,.7-0.7H264.7a0.621,0.621,0,0,1,.7.7V90.055q0,0.844.375,0.844t0.375-.844v-9a0.622,0.622,0,0,1,.7-0.7h3.8a0.746,0.746,0,0,0,.844-0.844,9.944,9.944,0,0,1,0-1.359h0.7Zm0.188,2.438a0.622,0.622,0,0,1-.7.7h-3.75a0.767,0.767,0,0,0-.891.844V94.227a0.767,0.767,0,0,0,.891.844h19.5a0.745,0.745,0,0,0,.843-0.844V82.133a0.745,0.745,0,0,0-.843-0.844h-4.079a0.622,0.622,0,0,1-.7-0.7v-0.7a0.746,0.746,0,0,0-.844-0.844h-2.25a0.745,0.745,0,0,0-.843.844v0.7a0.622,0.622,0,0,1-.7.7h-0.891a0.621,0.621,0,0,1-.7-0.7v-0.7a0.746,0.746,0,0,0-.844-0.844h-2.344a0.767,0.767,0,0,0-.843.891v0.656ZM251.484,91.133a0.568,0.568,0,0,1-.562.7q-0.516,0-.516.844v5.156a0.691,0.691,0,0,0,.7.844,0.621,0.621,0,0,1,.7.7v18.469a0.767,0.767,0,0,0,.844.89h2.156a0.767,0.767,0,0,0,.844-0.89v-5.907a0.622,0.622,0,0,1,.7-0.7h3.516a0.666,0.666,0,0,1,.7.8q0.047,2.391-2.2,1.969-0.844-.046-0.656.844,0.186,1.264.422,2.484a0.979,0.979,0,0,0,1.031.891h2.25A2.757,2.757,0,0,0,264,116.07a6.935,6.935,0,0,0,.328-1.687v-15a0.915,0.915,0,0,1,1.781,0v0.609a0.767,0.767,0,0,0,.891.844h21.469a0.745,0.745,0,0,0,.843-0.844V97.977a0.745,0.745,0,0,0-.843-0.844H266.531a0.621,0.621,0,0,1-.7-0.7V92.68a0.676,0.676,0,0,0-.656-0.844,0.6,0.6,0,0,1-.656-0.7V80.727a0.746,0.746,0,0,0-.844-0.844H252.281a0.749,0.749,0,0,0-.8.891V91.133Zm8.907-7.5a0.622,0.622,0,0,1,.7.7v0.75a0.622,0.622,0,0,1-.7.7h-2.86a0.745,0.745,0,0,0-.843.844v4.5a0.916,0.916,0,0,1-1.782,0V84.289a0.6,0.6,0,0,1,.7-0.656h4.782ZM272.812,84.2a0.622,0.622,0,0,1,.7.7v1.266a0.622,0.622,0,0,1-.7.7h-1.171a0.621,0.621,0,0,1-.7-0.7q0-1.031.046-1.922,0.891-.046,1.828-0.047h0Zm5.438,0a0.621,0.621,0,0,1,.7.7v1.266a0.621,0.621,0,0,1-.7.7h-1.312a0.622,0.622,0,0,1-.7-0.7q0-1.031.047-1.922,0.985-.046,1.969-0.047h0Zm5.484,0a0.622,0.622,0,0,1,.7.7v1.266a0.622,0.622,0,0,1-.7.7h-1.406a0.621,0.621,0,0,1-.7-0.7q0-1.031.047-1.922,1.03-.046,2.062-0.047h0Zm-27.046.7h2.624q0.844,0,.844-0.187t-0.844-.187h-2.671q-0.845,0-.844.188a0.961,0.961,0,0,0,.891.188h0ZM272.25,85.93a0.312,0.312,0,0,0,.328-0.375,0.354,0.354,0,0,0-.375-0.422,0.338,0.338,0,0,0-.328.422,0.331,0.331,0,0,0,.375.375h0Zm5.344,0a0.354,0.354,0,0,0,.422-0.375,0.422,0.422,0,0,0-.844,0A0.353,0.353,0,0,0,277.594,85.93Zm5.437,0c0.344,0,.516-0.124.516-0.375a0.42,0.42,0,0,0-.516-0.422,0.4,0.4,0,0,0-.469.422,0.379,0.379,0,0,0,.469.375h0Zm-22.64,2.438a0.622,0.622,0,0,1,.7.7v2.063a0.622,0.622,0,0,1-.7.7h-0.657a0.622,0.622,0,0,1-.7-0.7q0-1.406.047-2.766a9.34,9.34,0,0,1,1.313,0h0ZM260.062,90.9a1.349,1.349,0,0,0,.094-0.8,1.5,1.5,0,0,0-.094-0.844,1.522,1.522,0,0,0-.093.844A1.365,1.365,0,0,0,260.062,90.9Zm12.75-1.687a0.622,0.622,0,0,1,.7.7v1.5a0.622,0.622,0,0,1-.7.7h-1.171a0.621,0.621,0,0,1-.7-0.7q0-1.125.046-2.2h1.828Zm5.438,0a0.621,0.621,0,0,1,.7.7v1.5a0.621,0.621,0,0,1-.7.7h-1.312a0.622,0.622,0,0,1-.7-0.7q0-1.125.047-2.2h1.969Zm5.484,0a0.622,0.622,0,0,1,.7.7v1.5a0.622,0.622,0,0,1-.7.7h-1.406a0.621,0.621,0,0,1-.7-0.7q0-1.125.047-2.2h2.062ZM272.25,91.18c0.218,0,.328-0.171.328-0.516s-0.125-.516-0.375-0.516q-0.328,0-.328.516t0.375,0.516h0Zm5.344,0a0.526,0.526,0,1,0-.422-0.516A0.419,0.419,0,0,0,277.594,91.18Zm5.437,0a0.516,0.516,0,1,0,0-1.031,0.518,0.518,0,0,0,0,1.031h0Zm-21.8,4.172a0.622,0.622,0,0,1,.7.7v0.8a0.622,0.622,0,0,1-.7.7h-6.14a0.621,0.621,0,0,1-.7-0.7v-0.8a0.621,0.621,0,0,1,.7-0.7h6.14Zm-5.062,1.266h3.984a0.961,0.961,0,0,0,.891-0.187,1.187,1.187,0,0,0-.891-0.141h-4.031q-0.844,0-.844.188a1.188,1.188,0,0,0,.891.141h0Zm3.7,4.313a0.621,0.621,0,0,1,.7.7v0.984a0.621,0.621,0,0,1-.7.7h-3.516a0.622,0.622,0,0,1-.7-0.7v-1.031a0.6,0.6,0,0,1,.7-0.656h3.516Zm-2.437,1.453H258.8c0.562,0,.844-0.094.844-0.281s-0.282-.282-0.844-0.282h-1.406c-0.532,0-.8.11-0.8,0.328q0,0.236.844,0.235h0Zm10.453,7.828a0.746,0.746,0,0,0,.843.844h0.422a1.085,1.085,0,0,1,1.032.75q0.374,0.843.656,1.687,0.281,0.939-.422.938h-3.938a0.766,0.766,0,0,0-.89.843v2.016a0.787,0.787,0,0,0,.89.891H288.75a0.768,0.768,0,0,0,.844-0.891v-2.016a0.746,0.746,0,0,0-.844-0.843h-3.516q-0.7,0-.422-0.75a15.493,15.493,0,0,0,.7-1.735,1.167,1.167,0,0,1,1.218-.89,0.791,0.791,0,0,0,.938-0.844v-6.469a0.746,0.746,0,0,0-.844-0.844H268.734a0.746,0.746,0,0,0-.843.844v6.469Zm14.578-4.594a0.622,0.622,0,0,1,.7.7v1.266a0.621,0.621,0,0,1-.7.7h-9.375a0.621,0.621,0,0,1-.7-0.7v-1.313a0.6,0.6,0,0,1,.7-0.656h9.375Zm-26.063.469h3.469a0.621,0.621,0,0,1,.7.7v0.984a0.622,0.622,0,0,1-.7.7h-3.516a0.622,0.622,0,0,1-.7-0.7q0-.889.047-1.687h0.7Zm17.766,1.312h7.219q0.843,0,.843-0.421,0-.468-0.843-0.469h-7.266q-0.8,0-.8.469,0,0.421.844,0.421h0Zm-16.734.141H258.8c0.562,0,.844-0.094.844-0.281s-0.282-.281-0.844-0.281h-1.359q-0.844,0-.844.328,0,0.234.844,0.234h0Zm23.062,3.516q0.7,0,.469.75a16.1,16.1,0,0,1-.563,1.734,1.256,1.256,0,0,1-1.078.891h-2.812a0.92,0.92,0,0,1-.938-0.7q-0.28-.891-0.609-1.782-0.421-.889.328-0.89h5.2Zm-3.141,2.437h1.219a1.178,1.178,0,0,0,1.172-.75q0.234-.749-0.609-0.75H276.8q-0.845,0-.563.75a1.047,1.047,0,0,0,1.125.75h0Zm-19.921-.469,1.546,0.094a0.559,0.559,0,0,0,.657-0.609c0-.218-0.282-0.328-0.844-0.328h-1.359q-0.844,0-.844.375c0,0.281.281,0.438,0.844,0.468h0ZM311.766,78.1q0.514,0.8-.188.8H297.984a0.767,0.767,0,0,0-.843.891v7.594q0,0.657-.422.656c-0.251,0-.375.3-0.375,0.891v4.453a2.429,2.429,0,0,0,.844,1.688l1.5,1.547a2.6,2.6,0,0,0,1.265.844q0.375,0,.375.7v14.109a0.651,0.651,0,0,1-.656.75,25.9,25.9,0,0,1-2.672.141q-0.843.048-.516,0.891,1.171,3,2.438,6a4.143,4.143,0,0,0,.984,1.265l1.547,1.547a2.287,2.287,0,0,0,1.735.8,61.735,61.735,0,0,0,15.468-3.234q0.891-.329.235-1.36l-0.235-.422q-0.562-.843.188-0.843a1.889,1.889,0,0,1,1.312.656L321.8,120.1a2.943,2.943,0,0,0,1.781.937q8.859,1.125,15.375,2.578a2.119,2.119,0,0,0,.891.094,1.126,1.126,0,0,0,1.125-.938l1.734-5.109a1.668,1.668,0,0,0-.609-1.734l-1.453-1.5a4.2,4.2,0,0,0-1.125-.891,0.819,0.819,0,0,1-.844-0.8v-12a2.419,2.419,0,0,0-.891-1.734l-0.843-.891q-0.7-.656.046-0.656h4.922a0.767,0.767,0,0,0,.844-0.891V92.117a1.646,1.646,0,0,0-.328-1.172,1.407,1.407,0,0,1-.328-1.031V82.977a2.388,2.388,0,0,0-.891-1.687l-1.5-1.5a2.385,2.385,0,0,0-1.687-.891h-14.3a1.928,1.928,0,0,1-1.36-.656l-0.421-.422a2.434,2.434,0,0,0-1.688-.844l-8.016.281q-0.937.047-.468,0.844h0Zm9.375,0.422a1.069,1.069,0,0,1,.187.375,1.263,1.263,0,0,0,1.219.844h14.765a0.622,0.622,0,0,1,.7.7v7.594c0,0.563.124,0.844,0.375,0.844,0.218,0,.328.234,0.328,0.7v3.141a0.622,0.622,0,0,1-.7.7h-5.672a0.793,0.793,0,0,0-.891.844l-0.187,2.344a0.7,0.7,0,0,0,.8.844h1.876a0.622,0.622,0,0,1,.7.7v14.625a0.869,0.869,0,0,0,.843.984l2.344,0.329a0.638,0.638,0,0,1,.61.89l-1.313,3.8a0.979,0.979,0,0,1-.937.891q-6.7-1.5-14.766-2.532c-0.5-.063-0.656-0.312-0.469-0.75l0.8-1.781q0.422-.89-0.422-0.89H314.25q-0.8,0-.234.937l0.656,1.125q0.421,0.7-.281.938a59.211,59.211,0,0,1-14.719,2.906,3.667,3.667,0,0,1-.375-0.75l-1.594-4.031q-0.328-.845.375-0.891,2.2-.093,3.375-0.234-0.28,0-.281-0.7V98.164a0.621,0.621,0,0,1,.7-0.7h0.656a0.846,0.846,0,0,0,.938-0.844l0.234-2.344a0.663,0.663,0,0,0-.75-0.844h-5.062a0.621,0.621,0,0,1-.7-0.7V89.586q0-.7.421-0.7,0.375,0,.375-0.844V80.445a0.622,0.622,0,0,1,.7-0.7h14.25q0.843,0,.328-0.844-0.236-.375-0.422-0.7a0.993,0.993,0,0,1,.656-0.141l6.281-.187a1.5,1.5,0,0,1,1.36.656h0Zm-6.282,1.313q0.423,0.844-.281.844H299.766a0.746,0.746,0,0,0-.844.844v5.625a0.767,0.767,0,0,0,.844.891h3a0.767,0.767,0,0,0,.843-0.891V84.43a0.622,0.622,0,0,1,.7-0.7h27.422a0.622,0.622,0,0,1,.7.7v2.719a0.767,0.767,0,0,0,.843.891h3a0.767,0.767,0,0,0,.844-0.891V81.523a0.746,0.746,0,0,0-.844-0.844H321.656a0.9,0.9,0,0,1-.89-0.75l-0.141-.328a1.351,1.351,0,0,0-1.266-.844l-4.125.141q-0.891.047-.375,0.938h0Zm-9.468,4.922h25.265a2.88,2.88,0,0,0,.844-0.047,2.919,2.919,0,0,0-.844-0.047H305.344a2.56,2.56,0,0,0-.844.047Zm-0.375,4.172a0.76,0.76,0,0,1-.75.891h-5.344a0.746,0.746,0,0,0-.844.844v0.984a0.746,0.746,0,0,0,.844.844h5.2a0.54,0.54,0,0,1,.609.7L304.5,95.773a0.686,0.686,0,0,0,.75.891h24.234a0.813,0.813,0,0,0,.891-0.891l0.187-2.391a0.76,0.76,0,0,1,.75-0.891h5.626a0.745,0.745,0,0,0,.843-0.844V90.664a0.745,0.745,0,0,0-.843-0.844H331.5a0.578,0.578,0,0,1-.656-0.7,23.522,23.522,0,0,1,.14-2.578,0.725,0.725,0,0,0-.8-0.891H306.094a0.865,0.865,0,0,0-.938.891Zm9.843-.984a0.579,0.579,0,0,1,.657.7l-0.047.422a0.915,0.915,0,0,1-.891.891h-4.453a0.6,0.6,0,0,1-.656-0.75l0.047-.562a0.757,0.757,0,0,1,.8-0.7h4.547Zm10.969,0a0.578,0.578,0,0,1,.656.7l-0.046.422a0.916,0.916,0,0,1-.891.891H320.3a0.6,0.6,0,0,1-.656-0.75l0.047-.562a0.7,0.7,0,0,1,.75-0.7h5.39ZM311.3,89.023h2.391a1.5,1.5,0,0,0,.843-0.094,1.2,1.2,0,0,0-.8-0.094H311.3a1.313,1.313,0,0,0-.891.141,3.21,3.21,0,0,0,.891.047h0Zm10.125,0h3.234a1.669,1.669,0,0,0,.891-0.094,1.513,1.513,0,0,0-.844-0.094h-3.281a1.077,1.077,0,0,0-.844.141,2.882,2.882,0,0,0,.844.047h0Zm-6.938,3.328a0.579,0.579,0,0,1,.657.7v0.328a0.717,0.717,0,0,1-.7.891H309.8a0.584,0.584,0,0,1-.609-0.75,1.338,1.338,0,0,0,.046-0.281,0.76,0.76,0,0,1,.75-0.891h4.5Zm10.922,0a0.578,0.578,0,0,1,.656.7v0.328a0.716,0.716,0,0,1-.7.891h-5.39a0.585,0.585,0,0,1-.61-0.75,0.426,0.426,0,0,0,0-.281,0.808,0.808,0,0,1,.8-0.891h5.25Zm-23.3,19.64a0.746,0.746,0,0,0,.844.844h6.656a4.562,4.562,0,0,1,.844.047q0.422,0.329-.234.562a71.258,71.258,0,0,1-10.735,1.36q-0.8.046-.468,0.937l0.843,2.063a1.112,1.112,0,0,0,1.219.75,57.788,57.788,0,0,0,11.766-2.3q0.89-.282.234-1.313l-0.75-1.265q-0.516-.845.188-0.844h10.406q0.655,0,.328.75l-0.844,1.828q-0.421.89,0.61,0.984,6.75,0.938,12.375,2.11a0.833,0.833,0,0,0,1.125-.656l0.7-2.063q0.234-.8-0.75-0.937-4.548-.657-10.688-1.36a0.773,0.773,0,0,1-.7-0.375,0.737,0.737,0,0,1,.469-0.281h7.312a0.746,0.746,0,0,0,.844-0.844V99.242a0.746,0.746,0,0,0-.844-0.844H302.953a0.746,0.746,0,0,0-.844.844v12.75Zm5.813-11.25h20.016a0.622,0.622,0,0,1,.7.7v0.563a0.622,0.622,0,0,1-.7.7H307.875a0.621,0.621,0,0,1-.7-0.7q0-.656.047-1.266h0.7Zm1.031,1.031h17.906a2.929,2.929,0,0,0,.844-0.046,2.9,2.9,0,0,0-.844-0.047H308.953a2.905,2.905,0,0,0-.844.047,2.935,2.935,0,0,0,.844.046h0Zm-1.031,2.813h19.969a0.67,0.67,0,0,1,.75.7v0.375a0.717,0.717,0,0,1-.7.891H307.875a0.622,0.622,0,0,1-.7-0.7q0-.657.047-1.266h0.7Zm1.031,1.031h17.906a2.854,2.854,0,0,0,.844-0.047,2.946,2.946,0,0,0-.844-0.047H308.953a2.952,2.952,0,0,0-.844.047,2.86,2.86,0,0,0,.844.047h0Zm-1.031,2.813h20.016a0.622,0.622,0,0,1,.7.7v0.656a0.622,0.622,0,0,1-.7.7H307.875a0.621,0.621,0,0,1-.7-0.7c0-.469.015-0.921,0.047-1.359h0.7Zm1.031,1.125h17.906a1.5,1.5,0,0,0,.844-0.094,1.515,1.515,0,0,0-.844-0.094H308.953a1.518,1.518,0,0,0-.844.094,1.507,1.507,0,0,0,.844.094h0Zm56.391-28.782a1.025,1.025,0,0,1-1.547,0l-1.219-1.219a2.43,2.43,0,0,0-1.687-.844H345.938a0.767,0.767,0,0,0-.844.891v39.984a2.584,2.584,0,0,0,.844,1.734l1.5,1.5a2.58,2.58,0,0,0,1.734.844h6.562a0.746,0.746,0,0,0,.844-0.844V116.4q0-.657.141,0,0.186,1.5.422,3a3.346,3.346,0,0,0,.937,1.266l1.5,1.5a2.424,2.424,0,0,0,1.734.891,159.846,159.846,0,0,0,18.985-1.266,1.764,1.764,0,0,1,1.5.563l0.984,0.984a1.5,1.5,0,0,0,1.781.375q3.188-1.407,6.329-2.719,0.843-.329.14-1.265l-2.156-3a19.338,19.338,0,0,0-1.313-1.735q-0.75-.843-0.046-0.844h1.922a0.787,0.787,0,0,0,.89-0.89v-5.766a1.837,1.837,0,0,0-.516-1.359,1.613,1.613,0,0,1-.515-1.172v-3.7a2.335,2.335,0,0,0-.8-1.641,2.363,2.363,0,0,1-.844-1.734q0-.937.328-0.8,0.375,0.188.7-.7,1.264-3.421,2.624-6.844a1.691,1.691,0,0,0-.562-1.734L389.2,86.258a4.2,4.2,0,0,0-1.359-.984,28.226,28.226,0,0,1-7.688-3.328,22.067,22.067,0,0,1-4.547-3.8,2.43,2.43,0,0,0-1.687-.844h-4.781a1.642,1.642,0,0,0-1.407.891,12.439,12.439,0,0,1-2.39,2.578h0Zm8.39-2.625a2.32,2.32,0,0,1,1.5.844,24.439,24.439,0,0,0,4.641,3.75,30.521,30.521,0,0,0,6.609,3q0.845,0.329.563,0.984-1.032,2.672-2.016,5.344-0.329.844-.89,0.609c-0.345-.187-0.516.016-0.516,0.609V94.93a1.93,1.93,0,0,1-.656,1.359l-1.078,1.078q-0.845.657,0,.656h2.671a0.622,0.622,0,0,1,.7.7V102.9a0.623,0.623,0,0,1-.7.7H361.641q-0.845,0-.891.328,0,0.328.844,0.328h24a0.622,0.622,0,0,1,.7.7v4.453a0.622,0.622,0,0,1-.7.7H382.5q-0.843,0,.094.938a44.309,44.309,0,0,1,3.984,5.156q0.656,0.843-.047,1.172l-4.875,2.062a0.746,0.746,0,0,1-1.172-.281l-0.422-.844a1.265,1.265,0,0,0-1.312-.75,157.807,157.807,0,0,1-20.156,1.407,0.759,0.759,0,0,1-.8-0.7q-0.329-2.345-.609-4.593a1.849,1.849,0,0,1-.047-0.938q1.827,0.141,3.7.141a2.557,2.557,0,0,0,1.687-.75,12,12,0,0,0,1.031-1.172q0.609-.844-0.234-0.844h-3.984a0.583,0.583,0,0,1-.7-0.609q0-.609-0.844-0.047a8.077,8.077,0,0,1-4.406.562,0.645,0.645,0,0,0-.844.75v8.157a0.622,0.622,0,0,1-.7.7h-5.2a0.622,0.622,0,0,1-.7-0.7V80.258a0.621,0.621,0,0,1,.7-0.7h13.547a0.622,0.622,0,0,1,.7.7v3.609q0,0.891.937,0.375a23.853,23.853,0,0,0,3.375-2.3,13.96,13.96,0,0,0,3.094-3.094,1.426,1.426,0,0,1,1.125-.7h4.312Zm-13.359,7.875q-0.891.329-.75-0.375A9.046,9.046,0,0,1,360,84.43V81.289a0.746,0.746,0,0,0-.844-0.844H347.672a0.746,0.746,0,0,0-.844.844v36.563a0.767,0.767,0,0,0,.844.89h3.094a0.767,0.767,0,0,0,.843-0.89v-8.391q0-.656.75-0.563a7.948,7.948,0,0,0,5.25-.421,2.575,2.575,0,0,0,1.313-1.5q0.28-.7.516-0.469a5.525,5.525,0,0,1,.14,1.828,0.746,0.746,0,0,0,.844.844h4.547q0.749,0,.328.89a12.491,12.491,0,0,1-2.438,3,2.411,2.411,0,0,1-1.5.75l-2.437-.047q-0.8-.045-0.7.891l0.375,2.578a0.932,0.932,0,0,0,1.125.8,147.935,147.935,0,0,0,19.5-1.5,1.33,1.33,0,0,1,1.312.656l0.328,0.61a0.908,0.908,0,0,0,1.313.468q1.405-.657,2.812-1.218,0.845-.377.235-1.219a32.808,32.808,0,0,0-4.688-5.531,1.635,1.635,0,0,0-1.781-.328l-1.734.515q-0.939.328-.282,1.031l0.516,0.7q0.563,0.7-.141.8a74.576,74.576,0,0,1-8.625.61q-0.937.047-.234-0.656a14.356,14.356,0,0,0,2.578-2.907,1.46,1.46,0,0,1,1.219-.89h12.469a0.746,0.746,0,0,0,.843-0.844v-2.3a0.746,0.746,0,0,0-.843-0.844H360.375a0.531,0.531,0,0,1-.563-0.75A14.424,14.424,0,0,0,357,94.508a1.237,1.237,0,0,1-.188-1.359q0.938-1.969,1.594-3.75,0.329-.844.61-0.187l0.75,1.641a0.888,0.888,0,0,0,1.265.516,25.651,25.651,0,0,0,9.938-8.016,0.848,0.848,0,0,1,1.453-.047,37.482,37.482,0,0,0,10.922,7.969,0.874,0.874,0,0,0,1.265-.609q0.563-1.64,1.219-3.187a0.821,0.821,0,0,0-.562-1.172,26.951,26.951,0,0,1-10.454-6.422,2.283,2.283,0,0,0-1.64-.844h-3.047a2.053,2.053,0,0,0-1.594,1.031,26.043,26.043,0,0,1-8.156,5.953h0Zm10.687-.656a42.085,42.085,0,0,1,6.376,3.469,0.856,0.856,0,0,1,.234,1.313l-0.234.234q-0.657.844,0.234,0.844h2.812q0.845,0,0-.469a39.368,39.368,0,0,1-7.968-6.047q-0.8-.8-1.313-0.187t-0.141.844h0Zm-16.218-.609q0.7,0,.515.75a34.312,34.312,0,0,1-2.625,7.547,1.9,1.9,0,0,0,.375,1.922,14.854,14.854,0,0,1,2.344,5.109,5.312,5.312,0,0,1-.047,3.422,1.589,1.589,0,0,1-1.125.89,3.723,3.723,0,0,1-1.781-.046,0.977,0.977,0,0,1-.891-0.938V85.461a0.622,0.622,0,0,1,.7-0.7h2.532Zm-2.3,5.672q0,0.891.375-.047a34.217,34.217,0,0,0,1.219-3.844q0.234-.844-0.7-0.844a0.767,0.767,0,0,0-.891.844V90.43Zm16.312-2.3q-0.843.844-.047,1.313a37.87,37.87,0,0,1,3.329,2.063q0.843,0.657.093,0.656H362.2a0.746,0.746,0,0,0-.844.844v1.875a0.746,0.746,0,0,0,.844.844h14.016q0.749,0,0,.609a22.356,22.356,0,0,1-4.547,2.438,2.664,2.664,0,0,1-1.078.188h-8.532a0.767,0.767,0,0,0-.89.844v2.015a0.767,0.767,0,0,0,.89.844h21.422a0.746,0.746,0,0,0,.844-0.844V99.8a0.746,0.746,0,0,0-.844-0.844h-4.359c-0.313-.031-0.469-0.141-0.469-0.328a1.17,1.17,0,0,1,.422-0.422,13,13,0,0,0,2.766-2.062,2.533,2.533,0,0,0,.89-1.734V93.008a0.767,0.767,0,0,0-.89-0.844h-6.188q-0.75,0-.187-0.75l0.843-1.031a0.87,0.87,0,0,0-.328-1.406,41.5,41.5,0,0,0-4.312-2.344,1.431,1.431,0,0,0-1.734.469Zm-4.687,2.625q-0.891.469,0,.469h5.062q0.8,0-.14-0.562-0.939-.515-1.922-1.031-0.7-.375-0.516-0.609,0.141-.093-0.8.609-0.843.61-1.687,1.125h0Zm-6.234,2.109a1.694,1.694,0,0,0,.234,1.734A18.9,18.9,0,0,1,360,98.445q0.282,0.844.281,0.234a0.6,0.6,0,0,1,.7-0.656h9.188q0.889,0.235,2.953-.937,0.844-.422,0-0.422h-12a0.621,0.621,0,0,1-.7-0.7V93.336q0-.749-0.375-0.609-0.329.141-.656-0.516L359.2,91.7q-0.421-.8-0.75.094Zm-5.391,9.75a0.793,0.793,0,0,0,.656.938,1.468,1.468,0,0,0,1.359-.375,2.394,2.394,0,0,0,.188-1.5,12.16,12.16,0,0,0-1.734-5.11q-0.47-.8-0.469.094v5.953Zm18.094,9.188q-0.752.843,0.093,0.8a36.22,36.22,0,0,0,4.5-.329q0.891-.045.188-0.89l-0.375-.328q-0.7-.7-0.328-0.844c0.218-.062.047-0.094-0.516-0.094h-1.5a2.029,2.029,0,0,0-1.547,1.031,3.179,3.179,0,0,1-.515.657h0Z"/>
</svg>
