<svg xmlns="http://www.w3.org/2000/svg" width="1540" height="1450" viewBox="0 0 1540 1450">
  <defs>
    <style>
      .cls-1 {
        fill: #fff;
      }

      .cls-1, .cls-2, .cls-3 {
        fill-rule: evenodd;
      }

      .cls-2 {
        fill: #fefefe;
      }

      .cls-3 {
        fill: #fdfdfd;
      }
    </style>
  </defs>
  <path id="字体名称" class="cls-1" d="M283.411,179.937h0a14.653,14.653,0,0,0,2.2,6,14.681,14.681,0,0,1,2.4,6.8,80.852,80.852,0,0,1,2.8,17.2,123.267,123.267,0,0,1,0,17.2l-2,.4c-5.2.8-10,1.2-14.6,1.6-4.6,0-9.2,0-14.2-.4a14.27,14.27,0,0,1-3.8-.4c-0.6-.4-0.4.6,1,3.2a135.321,135.321,0,0,1,0,53.8q-5.4,26.1-28.2,52.8a10.067,10.067,0,0,0,2.6-.8,2.8,2.8,0,0,0,1.4-.8c17.2-14.2,27.8-29.8,31.4-46.8a169.2,169.2,0,0,0,4.4-49.6v-4.2c-0.2-.8,1-1,3.2-0.6,2.4-.2,4.8-0.2,7-0.6a34.377,34.377,0,0,0,7.4-1,16.048,16.048,0,0,0,3.6-.8c1-.4,1.4.6,1.2,2.8-0.2,4.4-.4,8.6-0.8,12.8s-0.8,8.4-1.2,13a18.044,18.044,0,0,1-7.6,2.6,65.054,65.054,0,0,0-7.6,1.4c-1.4.6-2,1-2,1.6q0.3,0.9,2.4,1.8a19.728,19.728,0,0,0,3.6,1.6,11.764,11.764,0,0,0,4.2-.4l24.2-4.6c2.2,0,3.4-.2,3.6-0.4s0.2,0.8,0,3.4c-1,4-2,7.8-3.2,11.4a64.979,64.979,0,0,1-4,12,24.5,24.5,0,0,0-1.4,3.4c-0.2.6-1.2,0-3.2-2.2l-16-13.2c-2-1.8-3.8-2.8-5.4-2.8-1.4.2-3,.2-4.4,0.4-0.8.2-1,.6-0.4,0.8a12.068,12.068,0,0,1,1.6,1.6l19.2,17.6a24.215,24.215,0,0,0,3.6,3.4c0.6,0.6,0,1.8-1.8,4-6.6,7-13,12.2-19,15.6a99.086,99.086,0,0,1-18.8,8.2c-1.2,0-1.6,0-1.4.2a3.484,3.484,0,0,0,1.8.2,84.553,84.553,0,0,0,21.6-4.4c7-2.2,14.2-6.6,21.8-13.2a11.7,11.7,0,0,1,2.6-2.8,37.306,37.306,0,0,1,2.4,3.2c3.2,5.2,6.6,10,10,14.6a45.333,45.333,0,0,0,13.8,12c7-.2,13.4-0.6,19.8-1.2,6-.6,12.6-1.6,19.6-2.8a2.041,2.041,0,0,1,1.4-.8c0.4,0,0-.2-1-0.4a284.874,284.874,0,0,1-29.6-10.2c-9.6-3.8-19.2-9.6-29-17.8-1.6-1.4-2.8-2.2-3.4-2.8s-0.6-1.6.4-3c2.2-5.6,4-10.6,5.6-15.2a64.038,64.038,0,0,1,8.4-14.2l5.4-5a13.382,13.382,0,0,0-6-6.4,9.594,9.594,0,0,0-7.6-1.4l-13.2,3a24.611,24.611,0,0,1-4.2.8c-0.2.2-.2-1,0.2-3.2,0.8-3.8,1.4-7.6,1.8-10.8,0.4-3.6.8-7,1.4-10.6a20,20,0,0,1,0-5c0.2-1,1.6-1.6,4.2-2,2.8-.6,5.4-1.2,8-1.6a35.036,35.036,0,0,1,8-.8,26.108,26.108,0,0,1,3.4-.2c0.6,0,.6,1.2-0.2,3.4l-2.8,11.2h1.2a97.51,97.51,0,0,1,11.6-6.8,62.732,62.732,0,0,1,11.4-4.8,11.991,11.991,0,0,1,2.6-1.6c0.2,0-.2-0.6-1.4-2a65.724,65.724,0,0,0-8.2-6.6,72.839,72.839,0,0,0-7.8-4.6c-4.8,1.6-9.4,3.2-13.4,4.6-4.2,1.4-8.6,3-13.2,4.4-1.2.2-2,.2-2.4,0.6-0.6,0-.8-0.6-0.6-2.2,0.4-5.4.8-10.6,1.4-15.4a131.016,131.016,0,0,1,2-14.8c1.6-6,.2-10-4.4-12a26.963,26.963,0,0,0-13.6-2,3.9,3.9,0,0,1-1.4.2C283.411,178.537,283.211,178.937,283.411,179.937Zm-43.4,35.6-14.8,4.2c-2.8.6-8.2,1.6-16,3-8,1.4-10.8,3.4-8.2,5.6a24.858,24.858,0,0,0,9.4,2,41.508,41.508,0,0,0,9.2-1.2c1.2-1,1.6-1,1.4-.4a4.924,4.924,0,0,0-.2,2.4,331.345,331.345,0,0,1-16,43.8c-6,13.6-14.8,28-26.2,43.2-0.6.8-.8,1.2-0.6,1.4,0,0,.6-0.4,1.4-1a93.264,93.264,0,0,0,15.4-15.4,106.663,106.663,0,0,0,11.2-16.2c0.8-1.4,1.2-1.6,1.4-1s0.4,1.4.6,2.2c0.8,4.4,1.4,8.6,1.8,12.8a32.362,32.362,0,0,0,4.4,13c1,1,1.6,1.4,2,.8a13.316,13.316,0,0,0,1.2-2.4l0.4-6.2,3-1.2c3.8-.6,7.2-1.2,10.4-1.8a78.517,78.517,0,0,0,10.4-3.4c2.2-.6,3.4-1.4,3.2-2.6a9.5,9.5,0,0,0-2-4.4c-1.8-1-2.8-1.6-3.2-1.8s-0.4-1,0-2.8a44.241,44.241,0,0,1,2.4-8.6,26.639,26.639,0,0,1,4.2-8.2c3-3,3.8-4.8,2.8-5a35.384,35.384,0,0,1-5.8-3.6c-2.2-1-3.6-1.6-4.4-2s-2.2.2-4.2,1.6a58.662,58.662,0,0,1-7.8,3.2,50.675,50.675,0,0,1-7.6,1.4c-1,.4-1.6.4-1.6-0.2a5.017,5.017,0,0,1,1-1.6,76.664,76.664,0,0,1,5.4-14.4c2-4.4,4.4-9,7-13.8,1.4-2.6,2-4,1.8-4.6a32.8,32.8,0,0,0-3.8-3.2c-1.4-1.4-2.2-2.2-2-2.4s1-.2,2.8-0.4c4-1.2,7.8-2,11.4-2.8a52.256,52.256,0,0,0,11.6-3c2.2-1.6,3.2-2.8,2.8-3.8-0.6-.8-2-1.4-4.2-1.6a19.826,19.826,0,0,0-5.8-1.2A18.626,18.626,0,0,0,240.011,215.536Zm-4.4,53.8v2.4c-0.2,4.2-.6,8.4-0.8,12.2a67.136,67.136,0,0,1-1.8,12c-2.6,1-5.2,1.8-7.4,2.8a27.183,27.183,0,0,1-7,1.4l-3.6-17.2-0.4-4.2c-0.2-1.8-.6-2.8-0.6-3.4-0.4-.6.8-1,3-1.6l14-3.6a15.821,15.821,0,0,0,2.6-1C234.812,268.535,235.412,268.735,235.612,269.335Zm238-92.2h0a119.694,119.694,0,0,0,12.4,15.6c5.2,6,9.2,5.4,12.2-1.2a20.94,20.94,0,0,0-1-6,10.869,10.869,0,0,0-4.4-5.2,58.538,58.538,0,0,0-8.8-3.6c-2.8-.6-5.6-1.2-8.4-1.6a7.418,7.418,0,0,1-2.8-.4C472.211,174.537,472.611,175.337,473.611,177.137Zm48.8,18.8h0a357.682,357.682,0,0,1-44.4,9.4c-12.8,1.8-26.6,3.2-41.6,4.6-1.2.6-1.6,1.4-1,2.2a7.222,7.222,0,0,0,2.6,2.2c2.6,1.4,5,2.4,7.2,3.4,2,1,4.4,1,7.2.4l45.8-5.8a8.246,8.246,0,0,1,3-.8c0.6,0,1,1,.8,2.8a83.864,83.864,0,0,1-2.4,20.4c-1.4,6.4-4.6,13.2-9.2,20.6a240.227,240.227,0,0,1-28,3.8,55.311,55.311,0,0,1-27.8-5c-1.4-.6-2.6-0.8-3.4-0.2-0.8.4-.8,1.4-0.2,3a128.234,128.234,0,0,1-6.2,53.8c-5.8,17.4-18.6,34.6-38.4,52-1,.6-1,0.8,0,0.4s1.8-.6,2.4-0.8c21.2-10.6,35.6-24.2,43-41.2a142.682,142.682,0,0,0,12-52.2,29.779,29.779,0,0,1-.2-3.4c0.2-.6,1.4-0.6,3.8-0.4,17.8-1.4,34.8-2.6,50.6-4,16-1.4,32.8-3.2,50.6-5.8l1.6-.8c1.6-.8,2.4-1.6,2.6-2.6s-0.6-1.8-2.2-2.4a39,39,0,0,0-7-3.6,7.419,7.419,0,0,0-6.8.4c-6.6,1-12.8,2.2-18.8,3.2-5.6,1.2-11.8,2.4-18.2,3.4a6.949,6.949,0,0,0-2.6.2c-0.4.2,0-.6,1-2.2a125.975,125.975,0,0,1,8.2-13.4c3-4.2,6.4-8.4,10.2-12.8a16.193,16.193,0,0,0,2.6-3.8c0.2-.2-0.8-1.4-2.6-3.6a46.106,46.106,0,0,1-4.6-3.6,12.5,12.5,0,0,0-4-2.6c-0.6-.8-0.8-1.2-0.4-1.4a2.257,2.257,0,0,1,1.6.2c4.6-1,9-1.6,13.2-2.2a93.631,93.631,0,0,1,13.2-.8c2.6-.4,4-1.4,4-2.6,0.4-1.6-.6-3-2.8-4.8a17.764,17.764,0,0,0-8.2-3.8C526.01,195.336,523.81,195.336,522.41,195.936Zm-65.6,29.2h0a58.137,58.137,0,0,0,6.6,13.2,108.2,108.2,0,0,0,9.4,11.4,5.964,5.964,0,0,0,3.2-3.4,22.175,22.175,0,0,0,1.4-4.4c-1-6.2-3.4-10.4-7.2-12.8a36.338,36.338,0,0,0-13.4-5.4v1.4Zm200-45.6,0.4,1.6a40.688,40.688,0,0,0,7.2,9.2c2.8,2.8,5.8,5.6,9.2,8.4a12.87,12.87,0,0,0,5.4-4.4c1.4-1.8,1.4-4,0-6.2a22.314,22.314,0,0,0-9-8.8c-3.6-1.8-7-2.8-10-2.6a8.443,8.443,0,0,0-3.2,0C655.811,176.737,655.811,177.737,656.811,179.537Zm52.4,21.8h0c-16.2,3-31.6,5.4-45.6,7.4-14.4,2-29.2,3.6-44.8,4.8a5,5,0,0,0-.8-2.8,11.014,11.014,0,0,0-1.8-2.8c-1-1-1.8-1.8-1.8-2.4-0.2-.4-0.4.4-0.6,2.2a27.747,27.747,0,0,1-4.6,12,83.777,83.777,0,0,0-6.4,11.8c-1,3.4-.6,6,1.4,8.4,2,2,4.6,1.6,8-1.4a43.587,43.587,0,0,0,5.6-9.2,26.15,26.15,0,0,0,2.2-8.4l20.8-4c13-1.8,25.4-3.2,36.8-4.4,11.6-1.2,24-2.4,37-3.4,1.2-.2,1.6,0,1.4.4a3.29,3.29,0,0,0-.2,2,81.492,81.492,0,0,0-3.4,7.6,27.9,27.9,0,0,1-4,7.6c-0.6,1-1,1.8-1.2,2-0.4.2,0.2,0.2,2-.4a66.289,66.289,0,0,1,14.2-7.6,98.582,98.582,0,0,1,14.2-4.8c1.4-.4,2.2-0.8,2.8-1s0-1.2-1.6-2.6a37.057,37.057,0,0,0-14-10c-5.4-2.2-10-2.8-14.2-1.4Zm-31,29h0c-9.2,3.6-17,6-23.4,6.8a129.493,129.493,0,0,1-20.6,1.8c-2.2,1-3.6,2-3.8,3s0.8,2.2,3,4a11.4,11.4,0,0,0,8.2,2.8c2.4-.4,5.2-1,8.2-1.6,5.2-2.2,10-4.4,14.2-6a78.132,78.132,0,0,1,14.2-4.2,11.114,11.114,0,0,1,3-.6c0.4,0.2.4,1.2-.2,3a108.513,108.513,0,0,1-3.4,10.6c-1.6,3.2-3,6.8-4.8,10.4a31.423,31.423,0,0,0-1.8,3.4c0,0.2-1-.4-3.2-1.4l-7.4-2.8c-1.4-.2-1.8,0-1.2.4a16.351,16.351,0,0,0,1.8,1.6,58.741,58.741,0,0,1,5,7,36.358,36.358,0,0,1,3.6,7.4l-2.6,1.2c-14.2,2.2-27.4,4-39.6,5.2-12.2,1.4-25.2,2.8-38.6,4.6-1.8.6-2.6,1.2-2.6,2.2,0,0.8.8,1.8,2.6,2.8a72.73,72.73,0,0,0,7.6,4c2.2,1.2,4.6,1,7.6,0,11.6-3.2,22.4-5.8,32.8-7.8,10-2,21-3.8,32.4-5.2a18.883,18.883,0,0,0,2.8-.2c0.4-.4.6,0.4,0.8,2.2,1,9.4,1.6,18.4,1.8,27.4,0.2,9.2-2.2,18.2-7.6,27.4a27.533,27.533,0,0,1-12.2.6c-4.2-.4-8.2-1-11.6-1.4a3.9,3.9,0,0,1-1.6-.2c-0.6,0-.2.4,0.8,1.4a77.322,77.322,0,0,1,11,7.6q5.4,4.5,10.8,9.6c2.2,2.8,4.2,3.6,5.4,2.6a44.171,44.171,0,0,0,5.6-4.6c6.6-12.2,9.6-24.2,9.2-35.4-0.4-11.4-1.2-23.2-2.2-35a6.053,6.053,0,0,1-.4-3c0.2-.6,1-0.6,2.8-0.4,10.6-.6,20.8-0.6,30.2-0.4,9.6,0.2,19.6.8,30.2,1.6,3.2-1.4,5-2.8,5.6-4.4,0.6-1.4-.8-3.4-4-5.8a34.1,34.1,0,0,0-5.8-3.2,8.4,8.4,0,0,0-5.8-.4q-14.1.9-26.4,1.8c-8.2.8-16.6,2-25.6,3.4-3.2.2-4.8,0.2-5-.2,0-.6-0.8-2-2.4-4.6-1.4-1.4-2-2.4-1.6-2.6,0.2-.4,1-1.4,2-2.8a52.633,52.633,0,0,1,11.2-12.6,63.551,63.551,0,0,1,13.4-8.2c1-.4,1.4-0.8,1.4-1a5.578,5.578,0,0,0-1-1.6c-4.2-4.6-8.4-7.8-12.6-9.4S680.811,229.336,678.211,230.336Zm194.6-41.4,0.4,2.2c1.6,7.4,2.8,14.6,3.6,21.2a146.1,146.1,0,0,1,1.4,21.4l-3,.8c-6.2,1-12,1.8-17.2,2.2-5.6.8-11,1.6-16.8,3-1.4.2-2,.6-2,1.4a18.222,18.222,0,0,0,2,2,34.189,34.189,0,0,0,4.6,2.4,7.686,7.686,0,0,0,4.8.4,77.767,77.767,0,0,0,10.2-1.6,70.428,70.428,0,0,0,10.4-2.4,9.754,9.754,0,0,1,2.2-.8q0.3-.3-0.6,2.4a154.068,154.068,0,0,1-14.6,30.6c-5.8,9.4-14.2,19.6-24.8,30.4a10.525,10.525,0,0,0-2.8,2.4c-0.8,1-.2,1,1.6,0a122.942,122.942,0,0,0,27.4-23.8,94.773,94.773,0,0,0,16.8-27.8c-0.2-1-.2-1.6,0-1.4,0.4,0.2.4,0.8,0.6,1.8,0.2,7.4.4,14.6,0.2,21.4,0,6.6,0,13.8.2,21.6a38.183,38.183,0,0,0-.4,4c0,1.2-1.2,1.8-3.4,1.8l-17.2,3.4c-2.4.8-3.6,1.6-3.2,2.4,0,0.8,1.4,1.8,3.6,2.8a11.671,11.671,0,0,0,8.6.8c3-.8,5.8-1.4,8.6-2a8.634,8.634,0,0,1,2.8-.8c0.2,0,.4,1,0.2,2.8-0.2,4.2-.4,8.2-0.8,12s-1,8-1.8,12.2a25,25,0,0,0,1.2,8.6,11.411,11.411,0,0,0,5.4,7.4c1,0.2,1.8-.4,2.4-1.6a15.433,15.433,0,0,0,1.2-3,134.083,134.083,0,0,0,.8-17.6c-0.2-5.4,0-11,.2-16.8-0.4-2.6-.6-4.2-0.4-4.8s1.6-1,4.4-1.2c2.6-.4,5.2-0.8,7.6-1.2a64.682,64.682,0,0,0,8-1.8c3.2-1.8,4.4-3.2,4-4.2-0.8-1-2.4-1.8-5.2-2.2a24.437,24.437,0,0,0-7.6.6,47.381,47.381,0,0,0-7.2,1.8c-2,.2-3.2.2-3.6,0.6-0.6,0-.6-0.8-0.4-3v-47.6a7.707,7.707,0,0,1,0-3.2c0.2-.4.8,0.4,2,2.4,7,10.6,13.4,21,19.2,31.4q8.7,15.9,25.8,28.8a43.242,43.242,0,0,0,13.4.8,136.08,136.08,0,0,0,13.6-2.8c1.2-.4,2-0.6,2.8-0.8,0.4,0-.2-0.4-2-1a142.848,142.848,0,0,1-42-26.4,155.3,155.3,0,0,1-31.2-39.8c-1-1.4-1.6-2.2-1.2-2.4,0-.2,1-0.4,2.4-0.6q11.1-1.2,21-1.8c6.6-.6,13.4-1.2,20.8-2.2,1.8-1,2.8-2,2.6-3-0.2-.8-1.2-1.8-3-2.8a11.741,11.741,0,0,0-4.2-2.4,6.673,6.673,0,0,0-4,0l-32,6c-1.8.2-2.8,0.4-3.6,0.4-0.4,0-.6-1-0.4-2.8a126.994,126.994,0,0,1,.8-15.6,112.094,112.094,0,0,1,2.8-14.8c1.4-4.6.2-8.2-3.6-10.4s-7.4-3.2-10.8-2.6Zm-48,7.4h0a218.633,218.633,0,0,1-15.6,41.8c-6.6,13.4-17.2,27.2-31.4,41.8a145.3,145.3,0,0,0,20-14.4,158.693,158.693,0,0,0,17.6-18.8c0.6-1.2.8-1.6,1-1.2a9.184,9.184,0,0,0,.2,2,222.3,222.3,0,0,1,.6,39.8,188.334,188.334,0,0,1-7.2,39.8,17.728,17.728,0,0,0-.4,7.2,23.073,23.073,0,0,0,3,7.2c1.8,2.2,3.4,3.4,4.4,3.4s2.2-1.2,3.4-3.8c2-16,3.4-31,4.4-45,0.8-14,1.4-28.6,1.6-43.6a21.176,21.176,0,0,0-1-6.2c-0.6-1.6-2.2-3.6-4.6-5.8-0.2-1,.6-2.8,2.2-5.2s2.8-4.4,3.8-5.8a100.521,100.521,0,0,0,5.2-10.4c1.6-3,3.2-6.2,5.2-9.6q3-6.3,0-10.8c-2.2-3.2-5.4-5-9.8-6a1.528,1.528,0,0,0-2,1.2Zm196.8-13h0a62.835,62.835,0,0,1,6,20.4c0.6,7,1,13.8,1,20.4v5.4c0.2,2.6-.2,4.2-1,4.6a15.475,15.475,0,0,1-4.8,1.2c-5.8,1.2-11,2.2-16,3-4.8.8-9.8,1.6-15.2,2.6-1.4.2-2,.6-2,1.2s0.6,1.4,2,2.2a30.291,30.291,0,0,0,5,2.6,9.545,9.545,0,0,0,5.4.2q5.7-.9,10.8-1.8c3.4-.6,7-1.2,10.8-2.2a20.154,20.154,0,0,0,3.6-.8c0.2-.2-0.2,1-0.8,3.6a265.634,265.634,0,0,1-16.8,32.8,180.832,180.832,0,0,1-24.6,32l-3.6,3.6,3.6-2a131.488,131.488,0,0,0,25-21.4,122.154,122.154,0,0,0,17.4-25c0.6-1.4,1-1.8,1-1a9.737,9.737,0,0,0,.2,2.4c-0.6,11.8-1.6,22.8-2.6,33.2-1.2,10.4-2.8,21.4-4.8,33.2a17.125,17.125,0,0,0,0,7.8,33.433,33.433,0,0,0,3.2,8q2.7,3.9,4.8,3.6c1.4,0,2.6-1.4,3.4-4.4,1.4-14.4,2-27.8,2.2-40.4s0-25.6-.2-39.4a16.932,16.932,0,0,1-.2-2.6c0-.4.8,0,2.4,1.4l9.4,7.8c3,3.4,5.4,3.8,7.4,1.2,1.6-2.4,1.6-5-.4-7.8a26.662,26.662,0,0,0-7.6-4.8,33.024,33.024,0,0,0-7.2-2.2,8.888,8.888,0,0,0-3.6-.4c-0.8,0-.6-1,0.2-3.2l0.6-16.4a22.955,22.955,0,0,1,9.2-2,34.329,34.329,0,0,0,9.6-2.6c1.8-.6,2.6-1.6,2.4-2.6,0-1-1-1.8-2.8-2.4q-4.2-2.1-7.2-1.2-3.3.6-7.2,1.2c-2,.2-3.2.4-3.6,0.4-0.6.2-.6-0.8-0.4-2.8,0-6.2.4-12,.8-17.6a94,94,0,0,1,3.6-16.8c1.8-5.2.8-9-3.2-11.2a23.112,23.112,0,0,0-11.6-4c-1.6-.2-2.6,0-2.8.4A6.371,6.371,0,0,0,1021.61,183.337Zm83.6,2h0c3.8,12.6,5,26.2,3.6,41s5.4,25.2,20.6,31.4a119.1,119.1,0,0,0,14.6.2,78.828,78.828,0,0,0,14.4-2.2c2.2-.6,3.8-0.8,4.6-1s1-1.6.8-4.2c-0.2-4.6-.6-8.6-1-12.6-0.6-3.6-1.4-7.8-2.4-12a18.148,18.148,0,0,0-1.2-3.2c-0.4-.2-0.6.8-0.8,3.2-1.8,9.8-4.6,16.8-8.8,20.8q-6.3,6.3-21,2.4c-6-2.6-9.8-6.6-11.6-12a22.914,22.914,0,0,1-.4-14.6l13.2-4.4c3.6-1.4,7.2-2.6,10.6-3.8,3.4-1.4,7-3,10.6-4.8,2.4-1,3.4-2,3.4-3.2-0.2-1-1.2-2.6-3-4.6a9.223,9.223,0,0,0-4.6-3.2c-1.2-.4-2.6.6-3.6,2.8a58.383,58.383,0,0,1-11.6,10,46.9,46.9,0,0,1-11.2,6c-1.4.6-2.6,1-3.4,1.4s-1-.4-0.8-2.4a77.186,77.186,0,0,1,.8-12,81.784,81.784,0,0,1,2.6-11.2c1.6-3.8.8-6.4-2.4-8.2a19.58,19.58,0,0,0-9.2-2.6q-2.4.6-2.4,1.2A10.145,10.145,0,0,1,1105.21,185.337Zm-42.2,16.4,0.8,2.4a98.066,98.066,0,0,1,5.4,28c0.6,10.4-2.6,19.2-9.6,26.2l0.4,2c0.4,1.4.8,2.8,1.2,4a16,16,0,0,0,2.6,4.2c0,1,.4,1,1,0.2a14.587,14.587,0,0,1,2.2-1.8,148.846,148.846,0,0,1,12.8-14.2c4.4-4.4,9-8.8,14-13.4l3.6-2.8c0.8-1.2.6-1.4-.2-1a23.035,23.035,0,0,0-2.2,1.4c-3.4,1.4-6.4,3-9.4,4.4a41.542,41.542,0,0,0-9.2,5.8c-1.8.8-2.6,1.2-2.8,1,0-.2.2-0.8,0.4-2.2a76.77,76.77,0,0,0,1.2-8.8c0.4-2.4.6-5.2,0.8-8a11.909,11.909,0,0,1,0-4c0-.6,1.2-0.6,3.8-0.4,2.8-.2,5.4-0.4,8-0.8a29.291,29.291,0,0,0,8-1.4c2.4-2.2,3.4-4,3.4-5.4-0.4-1.4-1.8-2.4-4.6-2.8a17.538,17.538,0,0,0-7.8,1,45.7,45.7,0,0,1-7.4,2.4c-2.2.8-3.2,1.2-3.4,1s-0.2-1.2,0-3.2l2.2-9.4a9.442,9.442,0,0,0-4.6-5.4,24.418,24.418,0,0,0-6.6-2,9.542,9.542,0,0,0-3.4,0Q1062.71,199.036,1063.01,201.736Zm31.6,57.8h0a21.9,21.9,0,0,1-5,10.4c-2.6,3.2-5.4,6.4-8.2,9.6a6.492,6.492,0,0,1-5,3.8,8.4,8.4,0,0,1-6-1c-1-.6-1.6-0.6-1.4-0.2a5.017,5.017,0,0,0,1,1.6,84.489,84.489,0,0,1,4.4,29.6,90.587,90.587,0,0,0,3.4,29.4c0.6,1.4,1,2.4,1.2,2.8s1-.2,2.8-2a28.322,28.322,0,0,1,1.4-4.4,11.645,11.645,0,0,0,.6-3.8,29.358,29.358,0,0,0-.8-3.4c-0.2-.8.8-1,3-0.8l26.2-2a21.779,21.779,0,0,0,3.8-.2c1-.2,1.6,1,1.8,3.4l5,15.6c1.8,3.4,3,4.8,3.6,4.4a62.621,62.621,0,0,0,4.6-5.2,43.434,43.434,0,0,0,4.6-17.2,158.267,158.267,0,0,0-.4-16.8,91.012,91.012,0,0,1-.6-14.6,32.74,32.74,0,0,1,3.4-14,6.355,6.355,0,0,1,1.6-2.6q0.3-.3-1.2-2.4a46.2,46.2,0,0,0-9.8-6.2c-3-1.4-6.2-1-9.4.8-6.2,1.8-11.8,3.2-17.2,4.6s-11,2.6-16.8,3.6a2.571,2.571,0,0,0-1.4-.2c-0.6,0-.6-0.4.4-1a53.457,53.457,0,0,1,9.8-8.4,103.7,103.7,0,0,1,10-6.2c3.2-1,4.4-2.2,3.4-3.8a13.287,13.287,0,0,0-5-4,6.648,6.648,0,0,0-4.8-1.6A3.692,3.692,0,0,0,1094.61,259.535Zm26.2,22h0a8.3,8.3,0,0,1,2.4,0,22.684,22.684,0,0,1,.4,3.8l1.2,40.6c0.2,2.2-.2,3-0.8,2.8a22.407,22.407,0,0,1-3.6-1.6,47.381,47.381,0,0,1-4.8-3.2c-1-.8-2.6-0.8-5.2.2l-23.6,3.4a8.443,8.443,0,0,0-3.2,0c-0.4.4-.8-0.6-0.6-2.4v-11.2a25.779,25.779,0,0,0-.2-4.6q-0.3-1.2,3.6-.6a50.945,50.945,0,0,0,12.8-1.6,74.5,74.5,0,0,0,12.6-5c1-1,1.6-1.8,1.6-2.6,0-.6-0.6-1-2-1.2a17.635,17.635,0,0,0-5.8-1.2q-2.1-.3-5.4,2.4c-2.6,1-4.8,1.6-6.6,2.4-2,.4-4.2,1.2-6.4,1.8a9.635,9.635,0,0,0-3.4,0c-1,.2-1.4-0.4-1.2-2l-0.8-13.6,22.6-4.4Zm152-92.6,0.4,2.2c1.6,7.4,2.8,14.6,3.6,21.2a146.1,146.1,0,0,1,1.4,21.4l-3,.8c-6.2,1-12,1.8-17.2,2.2-5.6.8-11,1.6-16.8,3-1.4.2-2,.6-2,1.4a18.222,18.222,0,0,0,2,2,34.189,34.189,0,0,0,4.6,2.4,7.686,7.686,0,0,0,4.8.4,77.767,77.767,0,0,0,10.2-1.6,70.428,70.428,0,0,0,10.4-2.4,9.754,9.754,0,0,1,2.2-.8q0.3-.3-0.6,2.4a154.068,154.068,0,0,1-14.6,30.6c-5.8,9.4-14.2,19.6-24.8,30.4a10.525,10.525,0,0,0-2.8,2.4c-0.8,1-.2,1,1.6,0a122.926,122.926,0,0,0,27.4-23.8,94.773,94.773,0,0,0,16.8-27.8c-0.2-1-.2-1.6,0-1.4,0.4,0.2.4,0.8,0.6,1.8,0.2,7.4.4,14.6,0.2,21.4,0,6.6,0,13.8.2,21.6a38.183,38.183,0,0,0-.4,4c0,1.2-1.2,1.8-3.4,1.8l-17.2,3.4c-2.4.8-3.6,1.6-3.2,2.4,0,0.8,1.4,1.8,3.6,2.8a11.671,11.671,0,0,0,8.6.8c3-.8,5.8-1.4,8.6-2a8.634,8.634,0,0,1,2.8-.8c0.2,0,.4,1,0.2,2.8-0.2,4.2-.4,8.2-0.8,12s-1,8-1.8,12.2a25,25,0,0,0,1.2,8.6,11.411,11.411,0,0,0,5.4,7.4c1,0.2,1.8-.4,2.4-1.6a15.433,15.433,0,0,0,1.2-3,134.083,134.083,0,0,0,.8-17.6c-0.2-5.4,0-11,.2-16.8-0.4-2.6-.6-4.2-0.4-4.8s1.6-1,4.4-1.2c2.6-.4,5.2-0.8,7.6-1.2a64.736,64.736,0,0,0,8-1.8c3.2-1.8,4.4-3.2,4-4.2-0.8-1-2.4-1.8-5.2-2.2a24.441,24.441,0,0,0-7.6.6,47.381,47.381,0,0,0-7.2,1.8c-2,.2-3.2.2-3.6,0.6-0.6,0-.6-0.8-0.4-3v-47.6a7.707,7.707,0,0,1,0-3.2c0.2-.4.8,0.4,2,2.4,7,10.6,13.4,21,19.2,31.4q8.7,15.9,25.8,28.8a43.242,43.242,0,0,0,13.4.8,136.08,136.08,0,0,0,13.6-2.8c1.2-.4,2-0.6,2.8-0.8,0.4,0-.2-0.4-2-1a142.848,142.848,0,0,1-42-26.4,155.3,155.3,0,0,1-31.2-39.8c-1-1.4-1.6-2.2-1.2-2.4,0-.2,1-0.4,2.4-0.6q11.1-1.2,21-1.8c6.6-.6,13.4-1.2,20.8-2.2,1.8-1,2.8-2,2.6-3-0.2-.8-1.2-1.8-3-2.8a11.741,11.741,0,0,0-4.2-2.4,6.673,6.673,0,0,0-4,0l-32,6c-1.8.2-2.8,0.4-3.6,0.4-0.4,0-.6-1-0.4-2.8a126.994,126.994,0,0,1,.8-15.6,112.094,112.094,0,0,1,2.8-14.8c1.4-4.6.2-8.2-3.6-10.4s-7.4-3.2-10.8-2.6Zm-48,7.4h0a218.633,218.633,0,0,1-15.6,41.8c-6.6,13.4-17.2,27.2-31.4,41.8a145.3,145.3,0,0,0,20-14.4,158.693,158.693,0,0,0,17.6-18.8c0.6-1.2.8-1.6,1-1.2a9.184,9.184,0,0,0,.2,2,222.3,222.3,0,0,1,.6,39.8,188.334,188.334,0,0,1-7.2,39.8,17.728,17.728,0,0,0-.4,7.2,23.073,23.073,0,0,0,3,7.2c1.8,2.2,3.4,3.4,4.4,3.4s2.2-1.2,3.4-3.8c2-16,3.4-31,4.4-45,0.8-14,1.4-28.6,1.6-43.6a21.176,21.176,0,0,0-1-6.2c-0.6-1.6-2.2-3.6-4.6-5.8-0.2-1,.6-2.8,2.2-5.2s2.8-4.4,3.8-5.8a100.521,100.521,0,0,0,5.2-10.4c1.6-3,3.2-6.2,5.2-9.6q3-6.3,0-10.8c-2.2-3.2-5.4-5-9.8-6a1.528,1.528,0,0,0-2,1.2Z"/>
  <path id="中文示例" class="cls-2" d="M324.751,718.433l-2.3,1.4c-2.6,1-5.1,1.8-7.5,2.5a21.563,21.563,0,0,1-7.2.8,5.589,5.589,0,0,0-3.2-.6c-1.2,0-1.6.8-1.2,2.1a93.578,93.578,0,0,1,.2,36.9c-2.4,12.2-8.9,24.3-19.4,36.2-0.5.3-.5,0.4,0,0.2s0.9-.3,1.2-0.4c7.5-4.7,13-10.1,16.4-16.2a59.933,59.933,0,0,0,7-19,3.222,3.222,0,0,1,0-1.4c0.2-.4.7-0.4,1.6-0.1,2.2-.1,4.3-0.2,6.4-0.1a23.408,23.408,0,0,0,6.3-.7,3.379,3.379,0,0,0,1.4-1.3c0-.4-0.5-0.8-1.4-1.4a9.378,9.378,0,0,0-6.3-1.2c-2,.5-4.1.9-6.2,1.4-0.9.1-1.2,0.1-1-.2a3.731,3.731,0,0,0,.2-1.2q0.3-2.85.6-5.4c0.1-1.7.3-3.5,0.4-5.2a3.2,3.2,0,0,1,0-1.5,4.41,4.41,0,0,1,1.7,0c1.9-.1,3.8-0.3,5.5-0.4s3.6-.3,5.5-0.6c1.1-.5,1.6-1,1.4-1.5a3.421,3.421,0,0,0-1.8-1.2,9.666,9.666,0,0,0-5.5-1c-1.8.4-3.6,0.7-5.3,1.2a2.65,2.65,0,0,1-1.4.4,1.294,1.294,0,0,1-.1-1.2,27.927,27.927,0,0,0,0-5.8c-0.2-1.7-.4-3.6-0.6-5.5-0.3-1-.4-1.7-0.5-2.1-0.1-.3.5-0.4,1.7-0.3l13.1-2.1a9.8,9.8,0,0,1,1.5-.6c0.1-.1.2,0.4,0.4,1.5,1.1,10.8,1.9,20.9,2.2,30.3,0.3,9.5.4,19.4,0.1,29.9a7.726,7.726,0,0,1-.1,2.1h-2l-10.4-1.9c-0.7-.1-1,0-0.8.1a10.765,10.765,0,0,1,.8,1.1l10.8,12.1q2.251,2.85,3,1.8c0.5-.7,1.5-1.7,2.8-3.2a33.958,33.958,0,0,0,3-10.4,48.683,48.683,0,0,0,0-10.1c-0.4-4.1-.7-8-0.8-11.5-0.2-3.5-.5-7.2-1-11a123.8,123.8,0,0,1-.6-14.6,36.169,36.169,0,0,1,3.9-14.1,9.849,9.849,0,0,1,1.1-1.7c0.2-.4-0.1-0.9-0.9-1.8a23.764,23.764,0,0,0-6.5-3.4A9.427,9.427,0,0,0,324.751,718.433Zm-44.1,9.6-1,.5a24.2,24.2,0,0,1-7.1,3,18.222,18.222,0,0,1-6.9-.8,14.919,14.919,0,0,0-2.1.2c-0.8.2-1,.7-0.7,1.6a49.41,49.41,0,0,1,2.5,17c-0.3,5.3-.7,10.9-1.3,16.7a14.523,14.523,0,0,0-.2,3.6,12.982,12.982,0,0,0,.8,3.7,7.7,7.7,0,0,0,1,2.2c0.3,0.3.8-.2,1.7-1.6l1.4-4.3a6.461,6.461,0,0,1,0-2.1,4.621,4.621,0,0,1,1.9-.3l10.6-.4a0.481,0.481,0,0,1,.7.4l0.3,1.2,2.1,6.6c0.5,1.3.9,1.9,1.2,1.7a15.169,15.169,0,0,0,1.9-2.1,41.675,41.675,0,0,0,2.3-14.9,148.132,148.132,0,0,1-.1-14.9,19.891,19.891,0,0,1,.3-4.9,11.187,11.187,0,0,1,1.8-4.5,3.291,3.291,0,0,1,1-1.5c0.6-.5.9-0.9,0.8-1.1a15.145,15.145,0,0,0-3.1-3.1,16.333,16.333,0,0,0-3.4-1.9c-1.1-.4-2.2-0.7-3.3-1.1A3.455,3.455,0,0,0,280.649,728.034Zm3.5,4.3h0c0.3,5.8.5,11.4,0.6,16.7,0,5.3-.3,10.7-0.8,16.1a14.6,14.6,0,0,0-7-.8,50.111,50.111,0,0,1-6.5.8c-0.6.1-1.1,0.1-1.5,0.2-0.3,0-.3-0.5,0-1.4l0.4-10.4a7.353,7.353,0,0,1,0-2.2q0-.3,2.1.3c1.7,0,3.3-.1,4.7-0.2a14.811,14.811,0,0,0,4.7-1.2c1.2-.7,1.7-1.4,1.7-1.9a3.01,3.01,0,0,0-2.1-1.4,8.887,8.887,0,0,0-4.5.3c-1.8.5-3.3,0.8-4.7,1.1a6.949,6.949,0,0,1-1.7.4c-0.3.1-.3-0.4-0.2-1.4l-0.4-10.4a6.571,6.571,0,0,0-.2-1.9c-0.2-.3.3-0.5,1.6-0.6,2-.2,3.9-0.4,5.8-0.7,1.8-.3,3.8-0.6,5.9-1Zm127-16.3h0q-5.552,2.4-10.2,3.9-4.65,1.35-9.9,2.4l-8.1-1.8a1.755,1.755,0,0,0-1.6.2,1.016,1.016,0,0,0-.1,1.6,93.314,93.314,0,0,1,2.1,40.1q-3.45,20.551-22,38.4-0.75.6,0,.3a3.7,3.7,0,0,0,1.1-.5c7.7-4.4,13.3-9.7,16.9-16.1a70.362,70.362,0,0,0,7.9-19,6.241,6.241,0,0,1,.3-2.4c0.2-.3.9-0.4,2.1-0.2a85.921,85.921,0,0,0,9.1-.4,31.385,31.385,0,0,0,9-2.3,3.214,3.214,0,0,0,1.4-1.5c0-.4-0.4-0.9-1.4-1.4a5.886,5.886,0,0,1-1.9-.8c-0.4-.2-1.1,0-2,0.6q-3.6,1.05-6.9,1.8c-2.1.6-4.4,1-6.7,1.5a2.9,2.9,0,0,0-1.8.1c-0.2,0-.2-0.4,0-1.3,0.3-2.2.6-4.3,0.7-6.3,0.2-2,.4-4.1.5-6.2-0.1-1.3-.1-2-0.1-2a7.641,7.641,0,0,1,2,.1,74.107,74.107,0,0,0,8.1.1,29.461,29.461,0,0,0,8.1-1.9c1.2-.7,1.7-1.3,1.5-1.7a3.421,3.421,0,0,0-1.8-1.2,7.962,7.962,0,0,0-2-.8,3.652,3.652,0,0,0-1.8.4c-2.1.6-4.1,1-6,1.4-1.9.2-3.9,0.6-5.9,0.9a6.817,6.817,0,0,0-1.8.2c-0.2.1-.4-0.4-0.3-1.5a67.091,67.091,0,0,0-.1-7.8c-0.3-2.5-.6-5-1.1-7.5l5.5-1c2.7-.5,5.2-1.1,7.5-1.7a29.427,29.427,0,0,1,7.5-1.2h2.8c0.5-.1,1,0.7,1.3,2.4a147.226,147.226,0,0,1,3.5,30.5c0.1,9.5-.4,19.6-1.3,30.2-0.1,1.1-.3,1.7-0.3,1.9-0.2.3-.8,0.4-1.9,0.3-1.4-.2-2.7-0.3-3.9-0.5a13.364,13.364,0,0,1-3.9-.7c-0.9-.3-1.4-0.4-1.7-0.5-0.4-.1,0,0.4.9,1.5l10.8,12.5c0.9,1.4,1.6,1.9,1.9,1.4,0.3-.4,1-1.2,2-2.4a29.559,29.559,0,0,0,3.2-8.6,46.843,46.843,0,0,0,.5-8.4c-0.1-6.6-.3-12.7-0.9-18.3-0.4-5.6-.8-11.5-1.1-17.8a98.954,98.954,0,0,1-.3-10.7,28.732,28.732,0,0,1,2.5-10.4,9.2,9.2,0,0,1,1-2c0.3-.4.1-0.9-0.8-1.6a22.537,22.537,0,0,0-6.3-3.8C414.651,715.533,412.751,715.333,411.151,716.033Zm84.2,1.2h0a62.662,62.662,0,0,1,2.4,12.7c0.2,4,.5,8.2.7,12.7v11.9l-1.6.4-18.2,3.1c-1,.1-1.5.1-1.5,0.1a13.551,13.551,0,0,1,.6-1.6,29.794,29.794,0,0,0,.9-12.3,5.589,5.589,0,0,0-3.3-4.2,5.306,5.306,0,0,0-4.9.3,1.665,1.665,0,0,0-.3,1.2,8.73,8.73,0,0,0,.5,1.3,18.448,18.448,0,0,1,1.9,7.4,12,12,0,0,1-2.6,7.5c-1.4,1.1-1.9,2-1.6,2.8a29.357,29.357,0,0,0,1.8,3.4,10.818,10.818,0,0,0,.7,1.8,3.441,3.441,0,0,0,1.8-.4c4.2-1.6,8.2-2.9,11.9-3.9a89.447,89.447,0,0,1,11.9-2.2,7.98,7.98,0,0,1,1.6-.3c0.3,0.1.4,0.6,0.4,1.5v22.6a17.857,17.857,0,0,0-.1,2.1c0,0.4-.6.7-1.7,0.9-3.1.5-5.9,1-8.5,1.5-2.7.4-5.4,0.9-8.3,1.4-1.3.1-1.9,0.1-2,.1a6.115,6.115,0,0,1,.5-1.9c0.3-1.8.6-3.4,0.8-4.8a18.012,18.012,0,0,0,.3-4.7,4.4,4.4,0,0,0-1.9-3.7,7.386,7.386,0,0,0-3.7-1.2,1.936,1.936,0,0,0-1.5,2,10.807,10.807,0,0,0,.5,2.7,21.1,21.1,0,0,1,.3,7.1,10.43,10.43,0,0,1-3.6,6.9c-1.3.7-2,1.1-2,1.5,0.1,0.2.5,1.1,1.2,2.4,0.6,1.3,1.1,2.3,1.6,3.2,0.5,0.8,1.4.7,2.9-.2a121.492,121.492,0,0,1,24.5-8.2c7.7-1.7,15.8-3.1,24.3-4.3a7.568,7.568,0,0,0,1.6-.2c0.1-.1.2,0.5,0.2,1.7a48.618,48.618,0,0,0,0,5.4,14.689,14.689,0,0,0,1.5,5.4c0.3,1,.5,1.5.8,1.5a5.4,5.4,0,0,0,1.6-1.5,26.788,26.788,0,0,0,2.8-8.4c0.5-2.6,1-5.3,1.7-8a6.617,6.617,0,0,0-1.3-5.1,16.113,16.113,0,0,0-4.6-3.9q-2.25-.751-3,0c-0.5.6-.5,1.6-0.1,3.1l0.6,5.1a44.6,44.6,0,0,1-8,2,57.6,57.6,0,0,0-8.1,1.5l-2.9.4a2.323,2.323,0,0,0-1.6.1c-0.2,0-.2-0.4-0.1-1.5v-23.6a11.562,11.562,0,0,1-.1-1.7c0-.5.5-0.7,1.6-0.6l16.4-3.2a7.3,7.3,0,0,0,1.5-.2,9.213,9.213,0,0,1,.1,1.6l0.4,4.5c0.2,1.3.5,1.9,0.7,1.9,0.4,0.1.9-.5,1.8-1.7a28.226,28.226,0,0,0,3.1-7.7,33.831,33.831,0,0,1,2.8-7.6c2.1-2.4,1.9-4.5-.6-6.4a15.585,15.585,0,0,0-6.6-3.3,1.753,1.753,0,0,0-1.6.7,1.511,1.511,0,0,0,0,1.6,25.38,25.38,0,0,1,.7,5.8c0.1,1.8,0,3.8-.1,5.9a14.329,14.329,0,0,1-4.9,1.9c-1.8.5-3.4,0.9-4.9,1.3l-8.4,1.3a10.852,10.852,0,0,0-1.7.2c-0.3,0-.3-0.5-0.2-1.5,0-5.1.2-9.9,0.6-14.5a83.2,83.2,0,0,1,2.3-14c0.7-3.1-.1-5.2-2.2-6.4a13.567,13.567,0,0,0-6.8-1.8,1.565,1.565,0,0,0-1,.4A2.6,2.6,0,0,0,495.35,717.233Zm116.7,3.5h0a120.9,120.9,0,0,1-17,4.9c-5.3,1.1-11,1.9-16.9,2.6a3.088,3.088,0,0,0-2,1.1c-0.3.6,0.3,1.2,1.6,2a14.927,14.927,0,0,0,5,.8,41.816,41.816,0,0,1,5.1-.2,22.5,22.5,0,0,1,2.2-.5c0.7-.1,1,0.4,1,1.6,0.3,2.7.5,5.3,0.6,7.7,0.1,2.5.1,5.1,0.1,7.8a6.8,6.8,0,0,0-.4,2.1c0,0.5-.6.9-1.9,1-3.6.7-7,1.3-10.2,1.9-3.2.4-6.5,0.9-9.9,1.2-1,.3-1.5.6-1.6,1-0.1.3,0.4,0.9,1.4,1.6a17.611,17.611,0,0,0,2.3,1.2,7.939,7.939,0,0,0,2.6.3c2.9-.5,5.5-1,8-1.5a73.8,73.8,0,0,0,8-1.8c0.5-.3.8-0.3,0.7,0l-0.3,1.2a52.671,52.671,0,0,1-10.5,23c-5.4,6.6-12.7,11.2-22,13.9a41.989,41.989,0,0,0,22.9-8.9c6.5-5,11.1-12.5,13.7-22.4l0.4-1c0-.2.2,0.2,0.7,1,4.5,5.9,8.8,11.5,12.7,16.9a88.779,88.779,0,0,0,14.7,15.6,91.815,91.815,0,0,0,11.7.1,104.57,104.57,0,0,0,11.7-1.3l1.8-.2c0.5-.2.5-0.3-0.1-0.5-0.5,0-.9-0.1-1.1-0.1a107.219,107.219,0,0,1-25.9-10.4c-8.3-4.6-16.2-11.7-23.7-21.4-1.3-1.8-2-3-1.9-3.7,0.1-.6.3-1.7,0.7-3.2l2.4-.2c4.9-.7,9.6-1.4,14.1-2,4.5-.7,9.2-1.6,14.2-2.8a0.8,0.8,0,0,0,.8-1,1.875,1.875,0,0,0-1-1.2,8.494,8.494,0,0,0-3.2-2,5.484,5.484,0,0,0-3.1.1l-22.2,4.6a4.906,4.906,0,0,0-1.3.3c-0.3.1-.4-0.2-0.3-1,0.4-2.9.6-5.7,0.7-8.2,0-2.5,0-5.2.1-7.9-0.1-.9-0.2-1.6-0.2-2.1s0.6-.7,1.8-0.6c3.5-.7,6.8-1.5,9.9-2.2,3.2-.7,6.6-1.6,10.2-2.5,1.3-.7,1.9-1.5,1.6-2.3a4.159,4.159,0,0,0-2.2-2.2,16.153,16.153,0,0,0-3.4-1A4.678,4.678,0,0,0,612.051,720.733Zm81.5,0.8h0c0.7,2.9,1.4,5.7,2,8.4a45.992,45.992,0,0,1,1.3,8.4,200.81,200.81,0,0,1,.5,20.2c-0.1,6.3-.2,12.9-0.3,19.9l-1.2.1-18.1,2.4c-0.9.1-1.4,0.2-1.7,0.2s-0.3-.4-0.1-1.2a55.391,55.391,0,0,0,.6-7.8,51.658,51.658,0,0,0-.6-7.6c-0.3-2.5-1.2-4.2-3-5.2a14.609,14.609,0,0,0-5.6-2.2c-1-.1-1.6,0-1.7.4a2.955,2.955,0,0,0,.4,1.9,45.632,45.632,0,0,1,3.9,10.5,36.663,36.663,0,0,1,.7,10.6c0,1.2-.3,1.9-0.8,2-0.5.2-1.3,0.5-2.3,0.9-0.6.7-.7,1.9-0.2,3.5,0.5,1.5.9,2.9,1.4,4.1a1.239,1.239,0,0,1,.4.8,1.6,1.6,0,0,0,1-.2c10.2-5.5,19.8-8.8,28.9-10.1s18.6-2.4,28.7-3.5a4.906,4.906,0,0,0,1.3-.3c0.2-.1.3,0.3,0.2,1.4l-0.2,15.1c0.1,1.2.3,1.7,0.5,1.6,0.1-.1.8-0.7,1.9-1.8,3.4-6.9,5-13.5,4.7-19.8a53.042,53.042,0,0,1,3.1-19.3,5.741,5.741,0,0,0-1.9-4,11.409,11.409,0,0,0-3.8-3c-1.5-.5-2.6-0.3-3.2.4a4.99,4.99,0,0,0-1.1,3.3,96.739,96.739,0,0,1,.9,10.1c0.1,3.2.1,6.6-.1,10.2a20.367,20.367,0,0,0-.1,2.2q-0.15.75-1.8,0.9l-23.7,2a14.89,14.89,0,0,1-1.7.1c-0.3.1-.3-0.4-0.2-1.5,0.3-8.3.5-16,.4-23.1a107.027,107.027,0,0,1,2.3-22.6l0.8-3.5a16.181,16.181,0,0,0-5.3-4.1,15.869,15.869,0,0,0-5.4-1.6,3.34,3.34,0,0,0-1,0A2.047,2.047,0,0,0,693.549,721.533Zm154.9-8.6h0a12.118,12.118,0,0,1,.6,5.2,20.2,20.2,0,0,1-1.4,4.6l-20.9,2.7a4.872,4.872,0,0,0-1.5.2c-0.4.1-.6-0.3-0.6-1.3l-1.2-5.3c-0.3-1.9-1-3-2.4-3.4a7.7,7.7,0,0,0-4-.1,2.133,2.133,0,0,0-1.2.3c-0.4.2-.3,0.6,0.2,1.2a8.254,8.254,0,0,1,2.8,3.3,14.839,14.839,0,0,1,1.3,4.1,5.543,5.543,0,0,1,.5,1.3c0,0.4-.4.6-1.1,0.7l-19.1,2.3c-0.8.2-1.1,0.4-1,.7a3.237,3.237,0,0,0,1.2,1.1,9.813,9.813,0,0,0,2.9,1.2,7.858,7.858,0,0,0,3.1,0q3.15-.75,6-1.2c1.9-.3,4-0.7,6.1-1q2.25-.3,2.7-0.3c0.3,0,.7.8,1.2,2.5l1.4,4.7c0.6,0.3,1.1-.3,1.5-1.7a5.7,5.7,0,0,0,.3-3c-0.1-1.1-.3-1.9-0.4-2.6-0.2-.6.4-0.8,1.9-0.7l18.6-2c0.9-.3,1.3-0.3,1.3,0a4.583,4.583,0,0,0-.4,1.6l-2.9,7.2c-0.3.5-.3,0.6-0.1,0.5a1.382,1.382,0,0,0,.9-0.5,14.883,14.883,0,0,0,3.6-4.5c0.8-1.5,1.7-3,2.6-4.5a8.694,8.694,0,0,1,4.4-1.1c1.7-.1,3.3-0.1,4.8-0.1l15.1,0.6a1.372,1.372,0,0,0,1-.5,1.075,1.075,0,0,0-.1-1.2,16.575,16.575,0,0,0-3-3.4,3.438,3.438,0,0,0-3.6-.7c-2.6.1-5.1,0.2-7.4,0.5a65.318,65.318,0,0,0-7.2,1,3.2,3.2,0,0,0-1.5,0c-0.2,0,0-.3.5-1.2l2.7-3.7a5.842,5.842,0,0,1,1.2-1.5c0.3-.2-0.1-0.5-1.2-1a13.042,13.042,0,0,0-3.2-1.5,13.282,13.282,0,0,0-3-.6,2.429,2.429,0,0,0-1.6.1C848.45,711.933,848.35,712.333,848.45,712.933Zm-16.8,22.5h0a83.02,83.02,0,0,1-15.8,23.8,89.136,89.136,0,0,1-23.3,17.8h1a72.661,72.661,0,0,0,20.5-11,129.63,129.63,0,0,0,18.8-17.9c0.9-1.1,1.5-1.8,1.8-2.2q0.3-.6,2.1,1.2c5.3,4.3,10.5,8.2,15.5,12,4.9,3.6,9.9,7,15,10.1a50.287,50.287,0,0,0,10,.5c3-.2,6.2-0.6,9.5-1.1a13.636,13.636,0,0,0,1.7-.4c0.5-.2.2-0.3-0.9-0.2a106.612,106.612,0,0,1-25-8.5,162.406,162.406,0,0,1-24.2-14.9c-1.2-.8-1.7-1.5-1.3-1.9a7.483,7.483,0,0,1,1.8-2.2c0.9-.8,1.5-1.4,1.8-1.6q0.45-.45-0.6-1.8a22.488,22.488,0,0,0-3.6-2.4,6.512,6.512,0,0,0-3.4-.7Zm12.5,23.4h0a31.561,31.561,0,0,1-10.7,3.4,24.8,24.8,0,0,1-10.4-1,43.025,43.025,0,0,1,1,15.3,66.963,66.963,0,0,0-.2,14.9,17.054,17.054,0,0,0,11.7,8.7,90.67,90.67,0,0,0,13.7,1.5,32.71,32.71,0,0,0,9.6-1.7,47.75,47.75,0,0,0,9.5-4.6l-1.1-8.5-1.2-6.1-0.2-1.6-0.4,1.6c-2,6.2-4.3,10.2-7,12.1-2.6,1.9-6.8,2.6-12.7,2.2-2.7-.2-5.5-0.5-8.3-0.7a13.145,13.145,0,0,1-7.9-4.2,23.554,23.554,0,0,1-1.3-9.4c0.1-3.2.2-6.3,0.3-9.4l0.6-5.6,1.1-.6c2.5-.5,4.8-0.9,7-1.2,2.1-.2,4.4-0.3,6.7-0.4a5.306,5.306,0,0,1,1.9,0c0.3,0.1.4,0.7,0.3,2-0.1,1.5-.3,2.9-0.5,4.2-0.3,1.4-.6,2.9-0.9,4.4a13.174,13.174,0,0,1-1.1,2.2,3.954,3.954,0,0,1-2,.1l-3.5-1a8.8,8.8,0,0,1-1.5-.5q-0.9-.45.3,0.9l6,7.6a5.506,5.506,0,0,0,3.7-2.3,15.4,15.4,0,0,0,2.2-3.9q0.9-3.45,1.8-6.3a22.064,22.064,0,0,1,2.7-6.2l1-1.2-0.6-1a22.686,22.686,0,0,0-4.9-3.4A4.982,4.982,0,0,0,844.149,758.836Zm107.2-44.3,0.2,1.4a14.108,14.108,0,0,1,.5,5.6,12.677,12.677,0,0,1-1.6,5.3l-20.5,2.1a15.509,15.509,0,0,0-1.8.2q-0.45,0-.6-1.5l-1.2-6.1a4.012,4.012,0,0,0-2.3-3.2,5.225,5.225,0,0,0-3.9-.3,1.579,1.579,0,0,0-1.5.7c-0.4.4-.1,0.9,0.7,1.6a9.032,9.032,0,0,1,2.5,3.9c0.5,1.5.9,2.9,1.4,4.2,0.1,0.8.2,1.3,0.2,1.7,0.1,0.2-.5.4-1.6,0.4l-18.5,2.3q-1.05.45-.9,0.9a1.558,1.558,0,0,0,.9,1.1,12.23,12.23,0,0,0,3.2,1.8,8.383,8.383,0,0,0,3.2,0c2.3-.7,4.5-1.2,6.5-1.7,2.1-.4,4.3-0.8,6.6-1.1a10.709,10.709,0,0,1,1.6-.5c0.3,0,.5.5,0.8,1.5l1.3,6.2c0.3,1.1.5,1.5,0.7,1.4a8.945,8.945,0,0,0,1.3-1.7,7.462,7.462,0,0,0,.4-2.6,18.1,18.1,0,0,0-.2-2.5q-0.15-1.5-.3-2.4c-0.2-.6.4-0.8,1.8-0.7l18.2-2a7.493,7.493,0,0,1,1.6-.2,3.182,3.182,0,0,1-.2,1.8l-2.6,7.2a6.684,6.684,0,0,0-.6,1.6,17.292,17.292,0,0,0,1.6-.8,18.981,18.981,0,0,0,2.6-3.6c0.5-1,1-2.2,1.5-3.3,0.7-1.3,1.2-2.4,1.6-3.3,0.4-.8,1.4-1.1,2.9-1a97.809,97.809,0,0,1,10.6-.3c3.4,0.1,6.9.3,10.7,0.7,0.9-.1,1.4-0.4,1.3-0.8a6.518,6.518,0,0,0-.5-1.5,27.2,27.2,0,0,0-3.3-3,3.2,3.2,0,0,0-3.2-.5l-14.2,1.1a8.894,8.894,0,0,0-1.8.3c-0.4,0-.1-0.5.6-1.4l2.3-4.1a6.722,6.722,0,0,1,1.3-1.9c0.2-.4-0.2-0.9-1.3-1.5a18.475,18.475,0,0,0-2.9-1.3,8.423,8.423,0,0,0-2.7-.8,2.4,2.4,0,0,0-1.4-.2A1.515,1.515,0,0,0,951.35,714.533Zm-41.2,31.8h0c-0.5.5,0.4,1.6,2.9,3.2,2.4,1.8,4.2,3,5.5,3.9,1.9,0.9,3.3.7,4.1-.6,0.9-1.3.6-2.8-.8-4.5a22.367,22.367,0,0,0-5.8-2.4A11.106,11.106,0,0,0,910.147,746.335Zm35.4,3.5h0a21.926,21.926,0,0,0,4,4.3,21.168,21.168,0,0,0,5.4,3.6c1.9-.7,2.9-1.8,2.9-3.4a6.874,6.874,0,0,0-2.2-4.5,14.049,14.049,0,0,0-5.4-1.9,22.222,22.222,0,0,0-5.1.2c-0.5.1-.7,0.2-0.7,0.4A10.607,10.607,0,0,1,945.549,749.835Zm21.7,8.2h0c-7.1,1.7-13.6,3.1-19.6,4.1-6.1,1-12.4,2-19.1,3q-1.05.45-.6,0.9c0.3,0.3.7,0.6,1.2,1,1.3,0.5,2.2.7,2.7,0.9a15.744,15.744,0,0,0,2.9-.1,1.971,1.971,0,0,1,1.5-.3,1.152,1.152,0,0,1,.7,1.3,114.791,114.791,0,0,1,.9,11.9,19.947,19.947,0,0,1-3.3,11.9c-0.7.2-.9,0.6-0.5,1.1a15.106,15.106,0,0,0,.9,1.8,12.414,12.414,0,0,1,1.6,2.4c0.3,0.6,1.1.7,2.3,0.2a48.63,48.63,0,0,1,17.3-4.8,114.791,114.791,0,0,1,17.3.7c1.6-.5,2.3-1.3,2.2-2.4a5.192,5.192,0,0,0-2.4-3.1,15.263,15.263,0,0,0-4.2-1.2,16.167,16.167,0,0,0-4,.6l-19.1,2.4c-2.3.3-3.5,0.4-3.9,0.2-0.2-.2-0.3-1.4-0.2-3.6a89.728,89.728,0,0,1,1.1-9.4,16.4,16.4,0,0,0-1.1-9.1c-0.7-.9-0.9-1.4-0.8-1.5a6.1,6.1,0,0,1,1.5-.3c6-1.1,11.7-1.9,16.9-2.5a153.565,153.565,0,0,1,16.9-.6c1.6-.3,2.4-0.9,2.3-1.7,0-.8-0.7-1.7-2.1-2.6a11.681,11.681,0,0,0-4.3-1.7,7.147,7.147,0,0,0-4.1.3Zm-64.9,4.3h0c1.8,2,3.5,3.6,5,5a30.835,30.835,0,0,0,4.8,3.2c1.8-.7,2.7-1.7,2.8-3s-0.7-2.5-2.2-3.8a23.987,23.987,0,0,0-5-1.4A16.2,16.2,0,0,0,902.347,762.336Zm19.2,12.7h0c-2.7,3.1-5.2,6.2-7.5,9.2a22.286,22.286,0,0,1-8.8,6.7,26.544,26.544,0,0,0,1.8,4.2,23.742,23.742,0,0,0,3.1,4.3c0.3,0.3.4,0.4,0.4,0.3a0.723,0.723,0,0,1,.4-0.6c2.5-4.5,4.7-8.7,6.8-12.6a96.36,96.36,0,0,0,5.5-12.2,3.091,3.091,0,0,0,.2-0.8c0-.2-0.2-0.1-0.6.4Zm126.7-51.9h0a112.3,112.3,0,0,1-14.3,4.3c-4.4,1-9.1,1.9-14,2.7-1.1.5-1.6,1-1.5,1.3a2.492,2.492,0,0,0,1.3,1.4c0.7,0.4,1.4.8,2.3,1.3a2.661,2.661,0,0,0,2.4.3c5.6-.9,11-1.9,16-2.8a96.245,96.245,0,0,0,16-4.4c1.3-1.1,1.9-1.9,1.7-2.6s-1-1.2-2.3-1.5a19.522,19.522,0,0,0-3.8-.8A7.614,7.614,0,0,0,1048.25,723.133Zm18.4,21.5h0c-12.3,2.5-23.7,4.5-34.4,5.9-10.8,1.6-22,3-33.8,4.4-0.9.5-1.3,0.9-1.2,1.4a5.736,5.736,0,0,0,1.6,1.7,13.657,13.657,0,0,0,2.3,1.1,5.5,5.5,0,0,0,2.4.1c4.7-.9,9.2-1.6,13.5-2.3,4.2-.7,8.7-1.5,13.4-2.4,0.7-.2,1.2-0.3,1.4-0.4,0.1-.1.1,0.4-0.2,1.4a70.5,70.5,0,0,1-7.6,16,33.186,33.186,0,0,1-14.5,12.3,3.545,3.545,0,0,0-1.1.3c-0.3,0-.3.4,0,1.1a25.33,25.33,0,0,0,1.2,3.6,12.2,12.2,0,0,0,2.7,3.8l3.3-1.6a142.849,142.849,0,0,1,20.2-8,150.082,150.082,0,0,1,20-4.5l1.4,1.2,6.4,9.4,2.2,2.9a8.96,8.96,0,0,0,2.1-2.3,9.3,9.3,0,0,0,1-2.6c-0.4-4.8-2.6-9.1-6.7-13a37.211,37.211,0,0,0-12.8-8.1,4.424,4.424,0,0,1-1.9-.7c-0.3-.2-0.2.2,0.5,1.3l6.9,9.2c0.5,0.5.5,0.7,0.1,0.9-0.3,0-.6.1-0.9,0.1-6,.9-11.6,1.8-16.7,2.5-5.2.7-10.6,1.5-16.3,2.2-0.9.1-1.4,0.2-1.7,0.2-0.2-.1.1-0.5,0.9-1.4,3.1-3.5,6.1-6.6,8.9-9.4,2.8-2.9,5.9-5.7,9.2-8.6l3-2.9c-1-1.2-2-2.2-2.8-3.1a24.344,24.344,0,0,0-3.1-2.2,5.938,5.938,0,0,1-.8-0.4c-0.2-.2,0-0.3.6-0.2,7.5-.9,14.7-1.4,21.4-1.6,6.7-.3,13.8-0.4,21.2-0.3a6.164,6.164,0,0,0,2.8-1.8c0.5-.7.1-1.8-1.2-3.1a19.747,19.747,0,0,0-5.9-2.6,11.327,11.327,0,0,0-5.5-.1Zm74.4-28.6h0a25.651,25.651,0,0,1-4.2,15.1,97.679,97.679,0,0,1-11.2,13.7,29.042,29.042,0,0,0,6.6-3.7,49.832,49.832,0,0,0,6.4-5.5,28.2,28.2,0,0,0,1.7-2.5q0.45-.75,2.4-0.3a84.181,84.181,0,0,0,13.3-.1,47.971,47.971,0,0,0,13.3-3.6,3.42,3.42,0,0,0,1.5-2.6c-0.2-.7-0.9-1.2-2.3-1.5a8.992,8.992,0,0,0-5.1-.3c-1.7.5-3.3,1-5,1.5a72.417,72.417,0,0,1-7.3,2.6,41.534,41.534,0,0,1-7,1.5,9.889,9.889,0,0,0-1.5-.1c-0.2,0,0-.4.5-1.1l4.5-6.8q3.15-3.9,0-6a7.186,7.186,0,0,0-6.2-1.4Zm-32.4,8.1h0a48.494,48.494,0,0,0,4.4,6.5,37.482,37.482,0,0,0,5.3,5.2,4.745,4.745,0,0,0,2.5-2.3,9.559,9.559,0,0,0,.3-3,9.062,9.062,0,0,0-5-5.5,16.939,16.939,0,0,0-6.6-1.7,1.209,1.209,0,0,0-1.2,0C1108.15,723.434,1108.25,723.734,1108.65,724.134Zm48.4,17.1h0c-2.8.7-5.4,1.3-7.8,1.9a58.618,58.618,0,0,1-7.6.9,25.71,25.71,0,0,0-4.4-1.1c-1.5-.2-2.3.7-2.3,2.6a23.707,23.707,0,0,1,0,8.4q-0.75,4.352-1.5,8.4a18.08,18.08,0,0,1-4.3,1,21.263,21.263,0,0,0-4.5.6l-4.3.4c-0.9,0-1.2.1-1.1,0.4a5.221,5.221,0,0,0,1.3,1.2,7.8,7.8,0,0,0,5.1.8c1.8-.4,3.5-0.7,5.2-1a3.766,3.766,0,0,0,1.4-.6c0.3-.1.3,0.3,0,1.3a65.168,65.168,0,0,1-4,7.9,51.287,51.287,0,0,1-6.4,7.8c-1.3.8-1.8,1.5-1.6,2a7.985,7.985,0,0,0,1.6,2.5c0.2,0.5.4,0.7,0.8,0.5a3.342,3.342,0,0,0,1.2-.5,65.8,65.8,0,0,1,16.8-4,101.843,101.843,0,0,1,16.6-.1c0.7-.1,1.2-0.1,1.6-0.2,0.3-.1.5,0.4,0.4,1.3-0.4,2.1-.9,4.1-1.4,6a27.839,27.839,0,0,1-2.6,6.1l-1.5.4a15.281,15.281,0,0,0-4.5-.8,16.712,16.712,0,0,1-4.1-1.1,8.112,8.112,0,0,1-1.1-.3c-0.4-.2-0.2.1,0.5,0.9a40.276,40.276,0,0,1,3.8,4.6,49.431,49.431,0,0,1,3,4.9c0.7,1.3,1.1,1.9,1.3,1.8a9.532,9.532,0,0,0,2.3-1.2,23.281,23.281,0,0,0,6.3-9.3,39.743,39.743,0,0,0,2.1-9.4v-2.3c0-.4.7-0.3,2.1,0.1l12.1,2.4c1.5-.1,2.3-0.5,2.5-1.3s-0.3-1.8-1.5-3a16.641,16.641,0,0,0-6.5-1.8c-2.3,0-4.4-.1-6.4-0.2-0.7-.1-1.2-0.1-1.6-0.2q-0.45,0,0-1.2l0.8-14c0.1-1,.1-1.7.2-2.1s0.7-.5,1.8-0.3a63.609,63.609,0,0,1,9.7-.2c3.1,0.3,6.3.5,9.8,0.6,1.1-.4,1.6-0.9,1.6-1.6a2.819,2.819,0,0,0-1.4-1.9,12.244,12.244,0,0,0-8.9-2.1c-2.9.4-5.8,0.8-8.7,1.3a21.165,21.165,0,0,1-2.7.3c-0.5.1-.6-0.6-0.4-2,0.1-1.4.3-2.6,0.4-3.8a21.35,21.35,0,0,1,1-3.5c1-2.9.4-5.2-1.6-6.9a9.193,9.193,0,0,0-7.2-1.8Zm-58.4,3h0a79.435,79.435,0,0,0,4,7.5,50.055,50.055,0,0,0,5.2,6,5.286,5.286,0,0,0,1.7-1.6,11.919,11.919,0,0,0,.8-2,10.124,10.124,0,0,0-3.5-7.1,12.617,12.617,0,0,0-7.2-2.8c-1-.4-1.3-0.3-0.8.3C1099.35,745.235,1099.25,745.135,1098.65,744.235Zm60.7,0.4h0a0.826,0.826,0,0,1,1.1.9,10.283,10.283,0,0,0,.1,1.8l0.4,9.4a4.047,4.047,0,0,0,.1,2q0.15,0.75-1.8.9l-22.3,2.5c-0.6.1-.9,0.1-0.9-0.1a8.79,8.79,0,0,1,.5-1c0.5-2.3.9-4.6,1.3-6.7,0.3-2.1.7-4.3,1-6.6a0.893,0.893,0,0,1,.6-0.8,1.162,1.162,0,0,1,1,0,79.578,79.578,0,0,1,8.7-1.5q4.05-.45,8.7-0.6Zm-14.2,6.6h0c0.2,1.1.5,2.3,0.8,3.4a9.049,9.049,0,0,0,2.5,3.6,4.63,4.63,0,0,0,2.4-1.7,1.865,1.865,0,0,0,0-2.6,8.415,8.415,0,0,0-2.4-2.2,9.98,9.98,0,0,0-2.5-1.3c-0.8-.5-1.1-0.6-1.1-0.5A2.679,2.679,0,0,1,1145.15,751.235Zm-30.9,11.5h0c-1.9,2.9-3.7,5.9-5.5,8.8a57.9,57.9,0,0,1-6.8,8.8c-1.8,1.3-2.7,2.1-2.7,2.6a19.232,19.232,0,0,0,.8,3.1,18.781,18.781,0,0,0,1.2,4.5,17.908,17.908,0,0,0,2.9,4.5c0.4,0.4.6,0.5,0.7,0.1a2.769,2.769,0,0,1,.1-0.9,108.1,108.1,0,0,1,4.7-16.1c1.9-4.9,3.9-10.1,5.8-15.6l0.4-1.3Zm45.3-.4h0a2.251,2.251,0,0,1,1.3.1,4.167,4.167,0,0,1-.1,1.9l-0.8,13.1c-0.1.7-.2,1.3-0.3,1.7,0,0.3-.4.5-1.2,0.4l-27.8,1.2a8.8,8.8,0,0,0-1.4-.1c-0.2,0,0-.4.5-1.1,1.1-2.5,2.1-4.8,3-7,0.9-2,1.7-4.3,2.6-6.6a12.228,12.228,0,0,1,4.9-1.4,29.625,29.625,0,0,0,5.3-.6Zm-17,6.9h0q0.75,1.65,1.8,3.9a21.4,21.4,0,0,0,2.5,4.1c2.2-1.3,3.1-2.6,2.8-4.1s-1.5-2.8-3.5-4.1l-2.6-1.4a2.875,2.875,0,0,0-1.5,0A3.632,3.632,0,0,0,1142.55,769.236Zm71.3-49.6,0.4,0.7a27.939,27.939,0,0,0,3.3,4.6c1.3,1.5,2.7,3,4.1,4.6q1.35,2.1,3.3.3a3.315,3.315,0,0,0,1-4,8.118,8.118,0,0,0-5-5.9,16.5,16.5,0,0,0-7.1-1.5v1.2Zm48.1-.6h0a86.454,86.454,0,0,1-13.1,3.3c-3.7.5-7.7,0.9-11.9,1.2a3.615,3.615,0,0,0-1.7.9c-0.2.3,0.2,0.9,1.3,1.6a5.588,5.588,0,0,0,3.3,1.3,29.251,29.251,0,0,0,3.5-.5c3.1-.6,6.1-1.2,8.9-1.9a36.882,36.882,0,0,1,8.9-.8,24.509,24.509,0,0,1,3,.1c0.7,0.1,1,.9,1.1,2.6,0.9,10.8,1.3,20.9,1.2,30.5-0.1,9.4-.7,19.5-1.8,30a3.941,3.941,0,0,1-.4,1.5c0,0.3-.5.4-1.3,0.1-1.5-.2-2.9-0.4-4.1-0.6-1.3-.2-2.6-0.5-3.9-0.8-0.6-.1-0.8-0.1-0.7.2a1.828,1.828,0,0,0,.8.6c1.7,1.7,3.3,3.4,4.6,5q2.1,2.55,4.2,5.4c0.7,1.4,1.3,1.8,1.6,1.3a29.477,29.477,0,0,1,2.1-2.3,35.088,35.088,0,0,0,4.2-9.6,36.174,36.174,0,0,0,.9-9.4c-0.3-7.9-.4-15.4-0.6-22.3,0-6.9-.2-14.2-0.4-21.8l0.6-4.7,1.6-4.7a12.569,12.569,0,0,0-5.6-5.3Q1264.2,717.833,1261.95,719.033Zm-58.8,12.7h0a22.456,22.456,0,0,1,2.3,8.2c0.2,2.7.3,5.5,0.4,8.2a95.029,95.029,0,0,1-.9,17.1,154.385,154.385,0,0,1-3.6,17.1,20.073,20.073,0,0,0,.5,4.2,16.756,16.756,0,0,0,1.9,4.4c1.1,1.3,1.9,1.8,2.5,1.4,0.6-.2,1.1-1.1,1.6-2.4q1.2-14.251,1.8-26.7t1.5-26.1a5.438,5.438,0,0,0-1.9-4.4,7.817,7.817,0,0,0-4.3-2.4c-0.9,0-1.4.1-1.5,0.4A2.236,2.236,0,0,1,1203.15,731.734Zm38.3,8.4-1.6.9a29.211,29.211,0,0,1-7.3,1.9,39.4,39.4,0,0,1-7.1-.7,5.855,5.855,0,0,0-1.8.1c-0.6.2-.7,0.6-0.2,1.3a41.242,41.242,0,0,1,2.1,13.3,108.892,108.892,0,0,1-1.3,13.2,25.4,25.4,0,0,0,0,3.9,8.861,8.861,0,0,0,1.6,4c0.5,0.3,1-.1,1.8-1.2a20.737,20.737,0,0,0,1.3-2.5,9.865,9.865,0,0,1,.1-2.1c0-.3.6-0.4,1.8-0.5l11.2-.6a9.767,9.767,0,0,1,2,3.1,27.013,27.013,0,0,0,1.7,3.8c0.5,0.9.9,1.4,1.1,1.3a6.044,6.044,0,0,0,1.6-1.5,20.96,20.96,0,0,0,2.4-10.9q-0.15-5.7,0-10.8a35.318,35.318,0,0,1,.5-5.6,9.843,9.843,0,0,1,3-5.4,3.446,3.446,0,0,1,1.3-1.1c0.2-.1-0.2-0.4-1.1-1a26.282,26.282,0,0,0-6.8-3.1C1245.25,739.234,1243.15,739.234,1241.45,740.135Zm0,3.9h0c0.8-.1,1.7-0.3,2.6-0.5a1.262,1.262,0,0,1,1.7,1.3c0.2,4.1.3,8.1,0.3,11.8s-0.1,7.7-.3,11.8a3.457,3.457,0,0,0-.3,1.2q0,0.45-.9,0a14.653,14.653,0,0,0-6.9-.5,50.52,50.52,0,0,1-6.8.7,3.619,3.619,0,0,1-1.4.1c-0.4,0-.4-0.4-0.1-1.3l0.4-8.8a13.582,13.582,0,0,1-.1-1.5c0.1-.2.6-0.1,1.6,0.3a52.79,52.79,0,0,0,5.6.1,14.731,14.731,0,0,0,5.4-1q1.5-1.2,1.2-1.8a2.981,2.981,0,0,0-1.8-.8,11.655,11.655,0,0,0-4.9.2,30.581,30.581,0,0,1-4.9,1,7.67,7.67,0,0,0-1.8.1q-0.45.15-.3-1.5l-0.4-7.2a5.753,5.753,0,0,0-.4-2.1c-0.2-.3.4-0.5,1.7-0.6Zm-961.8,149.4,0.2,0.8a48.713,48.713,0,0,1,4.3,15.7,137.646,137.646,0,0,1,.8,15.9l-0.4,3.3c-4.3.7-8.3,1.3-12.1,1.8-3.8.6-7.8,1-11.9,1.4a3.354,3.354,0,0,0-1.6.6c-0.3.3-.1,0.8,0.6,1.3a17.645,17.645,0,0,0,3.4,2,4.877,4.877,0,0,0,3.4.2c3-.7,5.8-1.3,8.5-1.9,2.7-.5,5.5-1.2,8.5-2a4.329,4.329,0,0,0,1.1-.4q0.3-.15.3,0.9c-0.6,6.4-.9,12.7-1,18.9a36.766,36.766,0,0,1-5.4,18.6c-0.7.9-.8,2.3-0.4,4a7.47,7.47,0,0,0,2.5,4c0.5,0.3.8,0.4,0.9,0.2a4.549,4.549,0,0,1,.9-0.7l20.9-20c0.4-.4.3-0.5-0.4-0.2l-1.2.6a51.71,51.71,0,0,0-6.4,2.8c-2.1,1.1-4.2,2.2-6.3,3.5a7.032,7.032,0,0,1-1.6.9c-0.3.1-.3-0.4,0-1.3,0.5-5.5.8-10.6,1.1-15.4,0.2-4.9.2-9.9-.1-15.1-0.1-1.5-.1-2.3.2-2.3a24.526,24.526,0,0,1,2.6-.4l1.5,1a150.724,150.724,0,0,1,15.6,16.8,102.431,102.431,0,0,0,16.6,16.2,102.635,102.635,0,0,0,11.2-.3c3.4-.3,7.2-0.8,11.1-1.5a6.416,6.416,0,0,0,1.4-.4c0.1-.1-0.3-0.2-1.2-0.4a133.085,133.085,0,0,1-26.1-10.1c-8.3-4.3-16.5-11.2-24.7-20.7a2.085,2.085,0,0,0-.9-1.2c-0.1-.1.3-0.2,1.3-0.4,6.3-.5,12.3-1,17.9-1.3a176.842,176.842,0,0,1,17.9-.1c1.7-.1,2.5-0.7,2.6-1.8q0.15-1.5-2.1-3a13.471,13.471,0,0,0-3.8-1.6,7.3,7.3,0,0,0-3.6,0l-35.9,6.1a2.626,2.626,0,0,0-1.3,0c-0.3.1-.4-0.2-0.3-1l2.4-27.2c0.3-2.9-.6-5-2.7-6.2a14.871,14.871,0,0,0-6.7-2,4.438,4.438,0,0,0-1.3.2Q279.5,892.383,279.649,893.433Zm29.5,2.3h0a26.741,26.741,0,0,1-5.8,13.9c-3.1,3.9-7.1,8.4-11.8,13.5l1.2-.4a55.839,55.839,0,0,0,12.4-9.3,158.041,158.041,0,0,1,12-10.8l3.2-2.8a6.112,6.112,0,0,0-2.3-3,9.972,9.972,0,0,0-3.2-1.7,11.4,11.4,0,0,0-3.3-.8C310.45,894.033,309.65,894.533,309.15,895.733Zm107.4-2.9h0a113.593,113.593,0,0,1-20.9,6.9,84.393,84.393,0,0,1-20.7,1.7,5.429,5.429,0,0,0-3.3-.4c-1.1.2-1.5,1.1-1,2.7a23.778,23.778,0,0,1,2.8,7.8,68.187,68.187,0,0,1,.8,7.9,99.913,99.913,0,0,1-3.2,26.2c-2.3,8.9-7.6,17.3-16,25.1a25.319,25.319,0,0,0,12.3-7.6,33.373,33.373,0,0,0,7.8-12.7,89.421,89.421,0,0,0,3.8-21.6c0.2-6.7.1-13.7-.4-21.1-0.1-.9-0.2-1.6-0.2-2-0.1-.5.5-0.7,1.7-0.6l37.5-6.6c0.7-.2,1-0.2.8-0.1a5.639,5.639,0,0,0,0,1.4,147.152,147.152,0,0,0-2.6,24.5,84.548,84.548,0,0,0,3.4,24.2,42.554,42.554,0,0,0,9.2,15.1,36.048,36.048,0,0,0,14.8,9.3,13.029,13.029,0,0,0,2.8,0c0.6-.2,1.2-1,1.5-2.4a63.757,63.757,0,0,0-.4-10c-0.4-3.1-.9-6.4-1.4-9.9-0.2-.6-0.3-1-0.4-1.3-0.1-.2-0.1.2-0.1,1.1-0.7,2.2-1.3,4.3-2,6.2-0.6,1.9-1.3,4-2.1,6.1a8.323,8.323,0,0,1-1.1,1.8c-0.2.2-.8-0.1-1.9-0.8-6.9-4.1-11.5-9-14-14.6a36.414,36.414,0,0,1-3.2-16.8c-0.3-5.3-.4-10.5-0.2-15.6a30.585,30.585,0,0,1,5.1-15.1l2.9-2.7a18.852,18.852,0,0,0-6.1-5C420.151,892.533,418.151,892.133,416.551,892.833Zm-15.2,17.2h0a22.429,22.429,0,0,1-.1,9.3q-1.05,4.8-2.4,9.6a3.275,3.275,0,0,0-.7,1.6c-0.1.4-.5,0.1-1.3-0.8-2-2.2-4-4.2-5.9-6-2-1.8-4.1-3.6-6.2-5.3-0.7-.5-1.2-0.7-1.4-0.9-0.2-.1.1,0.4,0.8,1.3,2,2.9,3.9,5.7,5.8,8.3,1.8,2.5,3.5,5.2,5.2,8.1,0.1,1.1-.4,2.3-1.4,3.9a23.657,23.657,0,0,0-2.2,4.1c-2,2.8-4.2,5.5-6.4,8.1a67.875,67.875,0,0,1-7.8,7.3l-1.6,1.2,1.2-.2a53.044,53.044,0,0,0,11.3-7.1,37.26,37.26,0,0,0,9.2-10.5c0.3-.7.6-1.2,0.7-1.5,0.1-.4.5-0.2,1.1,0.7,1.5,2.6,2.9,5,4.3,7.2s2.8,4.6,4.2,7.1c0.8,1.7,1.8,2.2,3,1.6a3.737,3.737,0,0,0,1.9-3.2,26.717,26.717,0,0,0-3.8-9.5,62.042,62.042,0,0,0-7.1-9,6.821,6.821,0,0,1,.8-3.5,12.427,12.427,0,0,0,1-3.5c0.7-2.3,1.4-4.5,1.9-6.5a22.064,22.064,0,0,1,2.7-6.2,18.778,18.778,0,0,0,1.2-2.7c0.1-.4-0.6-1.1-2.1-2-1-.5-1.9-1-2.7-1.3a5.82,5.82,0,0,0-2.6-.3Zm104.9-13.1h0a45.778,45.778,0,0,1-12.7,4.4,38.889,38.889,0,0,1-12.3.5l0.4,1.2a77.78,77.78,0,0,1-.7,33.9c-2.7,11.6-9.9,22-21.6,31.1l-1.4.8,1.6-.2c12.5-5.3,20.8-14.1,24.8-26.4s5.2-23.4,3.7-33.4q-0.15-1.65-.3-2.4c-0.1-.5.5-0.7,1.9-0.7,2.9-.5,5.7-0.9,8.3-1.4a72.15,72.15,0,0,0,8.3-2.1,2.6,2.6,0,0,1,1.5-.3,2.475,2.475,0,0,1-.1,1.5c-1.1,7-2,13.6-2.9,19.9a125.652,125.652,0,0,0-1.2,19.7,37.921,37.921,0,0,0,3,15.1c2,4.1,6.4,7,13.4,8.7a51.555,51.555,0,0,0,13.7.6,24.407,24.407,0,0,0,13.4-5.6,7.845,7.845,0,0,0,0-4.3,18.6,18.6,0,0,1-.6-4.5l-1.7-12c-0.1-.6-0.2-0.6-0.4,0a2.585,2.585,0,0,0-.2,1.4c-1,2.9-1.9,5.7-2.6,8.6s-2.6,5.6-5.6,8.2a37.009,37.009,0,0,1-17.8.5c-5.9-1.2-9.3-5.6-10-13.2a191.079,191.079,0,0,1,.9-21.6c0.7-7.1,3.5-14.1,8.5-21.2a5.463,5.463,0,0,0,1.4-1.4c0.1-.3-0.4-0.8-1.4-1.7a24.9,24.9,0,0,0-5.8-3.7C509.55,895.833,507.75,895.833,506.25,896.933Zm125.4,3.1h0c-12.3,1.8-23.7,3.3-34.5,4.5-10.6,1.3-21.9,2.6-33.7,3.9a1.146,1.146,0,0,0-.7,1.2,6.027,6.027,0,0,0,1.1,1.4c1.1,0.5,2,1.1,2.8,1.5a2.949,2.949,0,0,0,2.9.2c5.1-.9,9.9-1.8,14.4-2.5s9.3-1.3,14.3-1.8c0.5-.3.8-0.3,0.7,0l-0.3,1.2a96.99,96.99,0,0,1-11.7,31.5q-8.85,15.151-27,26.1a66.815,66.815,0,0,0,22.8-13.5,61.782,61.782,0,0,0,16.1-23,18.751,18.751,0,0,0,.5-2c0.1-.3.7-0.3,1.8,0.2,2.7,0.5,5.2.9,7.6,1.1,2.5,0.2,5.1.4,7.8,0.5a3.3,3.3,0,0,1,1.6-.2c0.3,0.1.5,0.5,0.4,1.4a75.686,75.686,0,0,1-3,14.3q-2.25,6.9-8.7,14.4a19.991,19.991,0,0,1-4.9-.1c-1.4-.4-3-0.7-4.5-1.1-0.9-.5-1.6-0.7-1.9-0.9-0.3,0,0,.5.9,1.7a35.442,35.442,0,0,1,3.5,5.5,31.085,31.085,0,0,1,2.2,5.6c0.2,1,.4,1.4.7,1.3a17.056,17.056,0,0,1,1.8-.5,21.767,21.767,0,0,0,9.7-8,41.27,41.27,0,0,0,4.8-10.7c0.9-3.3,1.9-6.4,2.9-9.3a40.416,40.416,0,0,1,4.5-9.1l2.7-2.7a30.044,30.044,0,0,0-5.4-5.2c-2.3-1.8-4.1-2.5-5.5-2.1a69.04,69.04,0,0,1-8,1.5,40.443,40.443,0,0,1-7.8.1,6.933,6.933,0,0,0-1.6-.3c-0.3,0-.2-0.5.4-1.5a45.006,45.006,0,0,1,1.6-4.8,31.653,31.653,0,0,1,2.7-4.7c1.1-1.7,1.4-2.9,1.1-3.8a15.611,15.611,0,0,0-2.5-3.3c-0.9-.6-1.1-0.9-0.9-0.9,0.4-.1.8-0.1,1.5-0.2,6.7-.5,12.9-0.7,18.7-0.6,5.7,0,11.9.3,18.4,0.8q2.55-.3,2.7-1.5c0.1-.8-0.4-1.9-1.5-3.2a18.8,18.8,0,0,0-4.1-2.5,6.543,6.543,0,0,0-3.9-.3Zm83.4-2.7h0q-11.252,2.552-21,4.2a67.611,67.611,0,0,1-20.6.1,6.66,6.66,0,0,0-1.6-.1c-0.7-.1-0.8.2-0.2,0.9,3.5,5.9,5.5,11.5,6,17.1a77.592,77.592,0,0,0,3.6,16.9c0.1,0.8.3,1.3,0.5,1.3,0.3,0.2.7-.2,1.4-0.9a8.134,8.134,0,0,0,.4-1.7,3.319,3.319,0,0,1,1.6-.3c1.5-.2,2.9-0.4,4.3-0.5,1.4-.2,2.8-0.4,4.3-0.7a4.761,4.761,0,0,0,1.8-.5c0.4-.2.6,0.2,0.5,1.3v11.3c0,0.4-.6.6-1.9,0.6l-15.3,2.2c-0.8.5-1.1,1-1,1.3a3.533,3.533,0,0,0,1.4,1.2,14.445,14.445,0,0,0,7.5.8c2.7-.4,5.2-0.8,7.6-1.2,0.6,0,1-.1,1.3-0.1,0.3-.2.4,0.2,0.4,1.1v8.4a10.317,10.317,0,0,1-.1,1.9c0,0.4-.5.6-1.6,0.6l-36.4,4.3c-0.8.2-1.2,0.5-1.1,0.9a1.858,1.858,0,0,0,1.3,1.1,12.584,12.584,0,0,0,3.4,1.8,6.706,6.706,0,0,0,3.5.1,260.566,260.566,0,0,1,37.1-4.6,252.223,252.223,0,0,1,36.5.9c2-.7,3-1.5,2.9-2.6s-1-2.3-2.9-3.6a13.714,13.714,0,0,0-6.2-1.5c-1.9.2-3.9,0.3-5.9,0.5-4.4.1-8.5,0.3-12.4,0.6s-7.9.7-12,1.2c-0.8,0-1.4.1-1.6,0.1-0.3.2-.5-0.4-0.4-1.5v-8.2a11.342,11.342,0,0,0-.2-1.9c0-.2.5-0.4,1.6-0.5l14.3-1.1a2.693,2.693,0,0,0,1.6-1.6c0.1-.6-0.4-1.2-1.4-1.8-1.3-.5-2.2-0.9-2.9-1.2a4.69,4.69,0,0,0-2.6.1l-8.2,1.1a8.969,8.969,0,0,0-1.8.2c-0.4.2-.5-0.2-0.4-1.1v-11.2c-0.1-.3.5-0.4,1.6-0.5l9.4,0.2c1.3,1.7,2.3,2.6,3,2.6q0.9,0,3-3a83.178,83.178,0,0,0,4.8-12,51.348,51.348,0,0,1,5.2-11.7l3.3-4.1a12.967,12.967,0,0,0-6.8-7A11.167,11.167,0,0,0,715.051,897.333Zm-7.4,5.3h0c1.9-.2,3.7-0.3,5.4-0.5a26.781,26.781,0,0,1,5.5.5v1.3a100.3,100.3,0,0,1-1.4,12.8,53.468,53.468,0,0,1-4.5,12.6l-9.1.4-2,.4a2.4,2.4,0,0,0-1.2,0c-0.2.1-.3-0.1-0.2-0.8l0.4-7.8a11.3,11.3,0,0,0,.2-2.2c-0.2-.4.4-0.5,1.6-0.3,1.5-.2,3-0.4,4.4-0.5a41.431,41.431,0,0,0,4.6-.9c1.2-.5,1.6-1,1.3-1.5a5.164,5.164,0,0,0-1.9-1.2,9.533,9.533,0,0,0-4.7-.3,34.848,34.848,0,0,1-4.5.7c-0.7.1-1,0-1-.2a2.388,2.388,0,0,1,.4-1.2v-8.4c-0.5-1.5.1-2.3,2-2.4C704.75,902.934,706.35,902.734,707.65,902.634Zm-13.5,1.7h0c0.5-.2.8-0.1,0.8,0.4,0.1,0.5.1,0.9,0.2,1.4l0.9,9.4a0.634,0.634,0,0,1-.5.6,3.755,3.755,0,0,1-1,.1l-9.2,1.4c-1.1.4-1.6,0.7-1.4,1.1a6.609,6.609,0,0,0,1.6,1.3,7.972,7.972,0,0,0,4.3.3,30.028,30.028,0,0,1,4.3-.3,5.043,5.043,0,0,1,1.6-.4q0.3,0,.3,1.5v7.3a6.017,6.017,0,0,0,0,1.9c0.1,0.5-.4.8-1.5,0.8l-8.4,1.4a6.646,6.646,0,0,0-2.1.1c-0.5.1-.8-0.4-0.7-1.5l-2.9-23.8a5.352,5.352,0,0,1-.4-1.8c0-.3.5-0.4,1.4-0.2l11.5-.8Zm146.9-9.7,0.2,1.1a56.188,56.188,0,0,1-4.2,18.4,92.781,92.781,0,0,1-10.3,18.2,38.418,38.418,0,0,0,5.5-4.6,60.631,60.631,0,0,0,4.7-5.6,3.147,3.147,0,0,1,2.5-.5,11.912,11.912,0,0,0,3.3-.1l14.3-2.9c0.7-.1,1.3-0.3,1.7-0.3,0.4-.2.4,0.4,0.1,1.7a25.673,25.673,0,0,1-.8,4.7,36.3,36.3,0,0,1-1.6,4.6l-0.6,1.6,1.2-1a44.376,44.376,0,0,1,6.5-5.6,41.171,41.171,0,0,1,6.6-3.4c0.8-.5,1.3-0.8,1.4-0.9s-0.2-.6-1-1.4a23.712,23.712,0,0,0-5.9-4,5.842,5.842,0,0,0-5.6.1,90.291,90.291,0,0,1-9.6,2.8,52.761,52.761,0,0,1-9,1.3,15.259,15.259,0,0,1-1.8.1c-0.4,0-.1-0.5.6-1.5l9.8-17.2c1.4-1.8,1.7-3.1,1-3.7a11.711,11.711,0,0,0-3.5-2.3,9.146,9.146,0,0,0-3.3-1.1A1.81,1.81,0,0,0,841.049,894.633Zm-23.3,20.5h0a63.219,63.219,0,0,1-10.9,2.6,33.736,33.736,0,0,1-10.5-.5c2.8,5.7,4.3,10.8,4.6,15.3a60.273,60.273,0,0,0,3,14.6,23.765,23.765,0,0,0,1.3,2,6.378,6.378,0,0,0,1-1.8l0.8-3.7a64.321,64.321,0,0,1,7.4-2.5,45.539,45.539,0,0,0,7.6-2.6,1.564,1.564,0,0,0,1.4-.9c0.2-.4-0.1-0.9-0.8-1.4-0.6-.6-1-0.9-1.2-0.8-0.1.1-.2-0.3-0.1-1a35.241,35.241,0,0,1,1.5-6.6,19.116,19.116,0,0,1,4.5-6.5,8.842,8.842,0,0,0,1.6-1.8c0.1-.2-0.3-0.8-1.4-1.7a18.6,18.6,0,0,0-5.1-2.9A4.622,4.622,0,0,0,817.748,915.135Zm0,3.5h0a1,1,0,0,1,.9-0.1,5.534,5.534,0,0,1-.1,2.2l-0.8,14.3a15.681,15.681,0,0,1-4.3,2.7c-1.7.8-3.3,1.4-4.8,2-0.5.2-1,.4-1.2,0.5-0.4.1-.5-0.2-0.4-0.9-0.1-2.9-.4-5.6-0.6-8.2a64.956,64.956,0,0,0-1.7-7.8,7.749,7.749,0,0,0-.6-2.2c-0.2-.3.4-0.5,1.7-0.6Zm20.4,11.1h0c1.8,8.4,1.3,16.1-1.6,23-2.9,7-9.4,13.1-19.5,18.4,7.1-1.5,12.8-4.1,17.1-7.9s7.1-9,8.6-15.5a5.623,5.623,0,0,0,.2-2c-0.1-.3.5,0.3,1.8,1.6,3.4,4.1,6.6,7.9,9.5,11.4,2.9,3.6,6,7.4,9.2,11.4a45.839,45.839,0,0,0,10.3.9,93.57,93.57,0,0,0,10.3-.9c0.7,0,1,0,1-.2a3.178,3.178,0,0,0-1-.5,100.5,100.5,0,0,1-21.4-10.4,61.738,61.738,0,0,1-18.3-18.7l0.6-5.1c0.8-2.2.4-3.9-1.1-5a9.224,9.224,0,0,0-5-1.8Zm99.8-42h0c2,2.3,4.2,4.7,6.7,7.4,2.5,2.6,4.4,2.5,5.8-.3a14.042,14.042,0,0,0-.2-2.3,6.008,6.008,0,0,0-1.2-2.2,18.005,18.005,0,0,0-5.6-3,12.456,12.456,0,0,0-5.3-.4,1.488,1.488,0,0,0-.7,0C937.349,887.133,937.549,887.333,937.949,887.733Zm25.2,10.2h0c-7.9,1.4-15.2,2.6-22,3.6s-13.9,1.8-21.4,2.4a17.18,17.18,0,0,0-4.3-.4c-1.4,0-2,1.1-2,3.4a144.793,144.793,0,0,1-4,33c-2.6,10.4-7.6,21.3-14.9,32.8q14.4-15.452,19.5-30.9a110.413,110.413,0,0,0,5.5-31.6,9.854,9.854,0,0,0-.1-2.1c0-.3.6-0.5,1.7-0.6,8.6-.7,16.7-1.6,24.1-2.5,7.6-.9,15.5-2.3,23.9-4,1.3-.9,1.9-1.6,1.7-2.3q-0.15-.9-2.1-1.2a7.2,7.2,0,0,0-2.9-.3A9.8,9.8,0,0,0,963.151,897.933Zm-12.9,10.1h0a49.542,49.542,0,0,1,1,5.9c0.4,2.6-.1,4-1.4,4.3l-10.8,2.3h-1.7l0.2-1.5-0.2-5.9a7.028,7.028,0,0,0-3.1-1.8,4.451,4.451,0,0,0-3-.1,1.011,1.011,0,0,0-.8,1.1,1.281,1.281,0,0,0,.4,1.4c0.5,1.3,1,2.6,1.4,3.8a13.545,13.545,0,0,1,.8,4c0.3,0.3.1,0.5-.4,0.6a6.391,6.391,0,0,0-1,.4l-8.8,1.6c-1.1.1-1.5,0.4-1.3,0.8a5.465,5.465,0,0,0,1.7,1.3,9.357,9.357,0,0,0,4.4.1c1.5-.3,2.9-0.6,4.4-0.9,0.7-.2,1.1-0.3,1.4-0.4s0.4,0.4.4,1.4a24.216,24.216,0,0,0,.2,3.9,13.311,13.311,0,0,0,.7,3.7c0.2,0.8.3,1.5,0.5,2.1,0,0.5.6,0.5,1.7-.1a30.553,30.553,0,0,1,8.9-3.1,65.569,65.569,0,0,1,9.1-.8c0.9,0.1,1.4-.2,1.3-0.9a2.674,2.674,0,0,0-1.3-1.9c-0.9-.3-1.2-0.6-1.1-0.6a1.445,1.445,0,0,0,.3-1.1l1.5-7.3,15.1-1.7c1.1-.3,1.7-0.7,1.7-1.3,0.2-.5-0.4-1.1-1.5-1.8a10.408,10.408,0,0,0-6.9-.8c-2.3.6-4.5,1.2-6.8,1.7-0.8.1-1.2,0.1-1-.1a4.146,4.146,0,0,1,.4-1.2l0.8-5.3a11.275,11.275,0,0,0-2.4-2.1,18.612,18.612,0,0,0-2.5-1,4.854,4.854,0,0,0-1.7,0C950.45,906.734,950.15,907.134,950.25,908.034Zm0.9,13.7h0c-0.2,1.2-.3,2.8-0.5,4.8,0,2-.7,3.2-1.8,3.6l-9,2c-0.8.2-1.4,0.3-1.7,0.4s-0.4-.3-0.2-1.2l-0.4-4.9a9.1,9.1,0,0,0-.2-2.1c-0.1-.4.4-0.7,1.5-0.8l11.8-2.6a3.719,3.719,0,0,1,.7-0.2A4.069,4.069,0,0,0,951.15,921.735Zm0,17.2h0a59.228,59.228,0,0,1-10.1,3c-3.2.5-6.5,1-10,1.5a12.13,12.13,0,0,0-2,1c-0.4.3-.1,0.8,1,1.5a9.61,9.61,0,0,0,2.6.8,6.408,6.408,0,0,0,2.7-.2c2.5-.4,4.8-0.9,7-1.4,2.2-.6,4.6-1.2,7.1-1.7a11.254,11.254,0,0,0,1.5-.7c0.3-.3.3,0.1,0,1.1-0.9,1.7-1.6,3.3-2.3,4.8a26.048,26.048,0,0,1-2.9,4.9,20.243,20.243,0,0,1-1.7,2.4c-0.2.3-1,.1-2.2-0.8l-9.6-5.1a4.489,4.489,0,0,0-2.4-.9q-0.9.15-2.1,0.3a4.1,4.1,0,0,0-1.7.3,6.135,6.135,0,0,0,1.7.9c2.1,1.1,4.1,2.1,6,3.2s4,2.3,6.1,3.7a8,8,0,0,0,1.4.8c0.3,0.2-.1.7-1,1.7a64.533,64.533,0,0,1-13.8,8.7,71.135,71.135,0,0,1-13.3,4.2,57.891,57.891,0,0,0,15.5-2c5.5-1.4,10.6-4.6,15.5-9.5q5.851,3.9,11.1,7.5c3.5,2.4,7.2,4.8,11.2,7.1a90.749,90.749,0,0,0,10.7-.9,47.894,47.894,0,0,0,10.8-2.8,5.736,5.736,0,0,1,.7-0.4c0.1-.1,0-0.1-0.5-0.2a137.1,137.1,0,0,1-19.7-4,106.959,106.959,0,0,1-19.2-7.9,12.717,12.717,0,0,0-1.9-1.1,3.038,3.038,0,0,1,.9-1.6l9-11.6,3.1-3.5a14.622,14.622,0,0,0-3.5-2.9,5.32,5.32,0,0,0-3.7-1Zm100-35.7h0a147.751,147.751,0,0,1-16.6,4.5c-5.3,1.1-10.9,2.1-16.6,2.9a1.193,1.193,0,0,0-.5.9,2.3,2.3,0,0,0,.7.8,18.9,18.9,0,0,0,2.7,2,3.1,3.1,0,0,0,2.6.4l10.2-1.2a3.3,3.3,0,0,1,1.6-.2c0.4,0,.6.5,0.5,1.4a48.476,48.476,0,0,1,.9,7.3c0.1,2.3.2,4.8,0.3,7.3a8.815,8.815,0,0,0-.3,2.1q0.15,0.9-1.5.9l-12.7,2.1c-1.1.3-1.5,0.7-1.4,1a4.673,4.673,0,0,0,1.6,1.4,10.315,10.315,0,0,0,6,.9c2.1-.2,4.2-0.6,6.1-0.9a7.829,7.829,0,0,0,1.7-.7c0.2-.1.3,0.5,0.3,1.6v17a7.218,7.218,0,0,1-.1,1.9c-0.1.2-.7,0.4-1.9,0.5l-32.6,3.7a2.07,2.07,0,0,0-1.5.5c-0.4.4-.2,0.9,0.3,1.6a27.513,27.513,0,0,0,3.5,2.4,3.824,3.824,0,0,0,3.6,0c8.4-1.7,16.2-3.2,23.6-4.4a166.549,166.549,0,0,1,23.1-2.1,80.765,80.765,0,0,1,12.2.5c3.9,0.4,7.9.8,12.2,1.3a3.452,3.452,0,0,0,2.1-1c0.4-.5.3-1.2-0.2-2.3a25.568,25.568,0,0,0-5.1-4.2,6.823,6.823,0,0,0-4.8-.7l-27.2,3.1a4.847,4.847,0,0,1-1.8,0c-0.2,0-.2-0.5-0.1-1.6v-16.2c-0.1-.7-0.1-1.2-0.2-1.7q0-.75,1.5-0.6l13.5-2.2c1.3-.3,1.9-0.8,1.8-1.7,0-.8-0.7-1.5-1.8-2.2a10,10,0,0,0-6-.4c-2.4.5-4.4,0.9-6.1,1.4a8.136,8.136,0,0,0-2.4.4q-0.6.3-.3-1.8l0.9-11.9a6.646,6.646,0,0,0-.1-2.1,3.181,3.181,0,0,0-1.4-1.8c-0.8-.8-1.1-1.2-0.8-1.2a3.688,3.688,0,0,0,1.4-.1,60.783,60.783,0,0,0,8-1.3,51.6,51.6,0,0,0,8-2.5c1.4-.7,1.9-1.5,1.6-2.4a4.215,4.215,0,0,0-2.6-2.2,14.057,14.057,0,0,0-3-.7A5.948,5.948,0,0,0,1051.15,903.234Zm7.3,35.7h0a38.316,38.316,0,0,0,6.4,7.6c2.9,2.9,4.8,2.4,5.5-1.5a8.468,8.468,0,0,0-4.6-6.1,16.326,16.326,0,0,0-7.1-1.6c-0.9-.1-1.4,0-1.3.2C1057.45,937.636,1057.75,938.136,1058.45,938.936Zm61.3-40.2h0a25.641,25.641,0,0,0,3.9,6.2,45.181,45.181,0,0,1,3.7,4.7,4.3,4.3,0,0,0,3.3-2.9,4.882,4.882,0,0,0-.9-4.3,13.5,13.5,0,0,0-4.5-3.1,15.292,15.292,0,0,0-4.5-1c-1.1-.2-1.5,0-1.1.7C1120.15,899.734,1120.15,899.634,1119.75,898.734Zm42.2,0.4h0a93.407,93.407,0,0,1-11.1,2.4c-3.5.5-7.1,0.8-10.8,1.1-0.9.4-1.3,0.7-1.2,1,0,0.3.4,0.6,1.2,1.1a5,5,0,0,0,3.5,1.1c1.1-.1,2.4-0.3,3.7-0.5,3.1-.7,6.1-1.2,8.9-1.8a33,33,0,0,1,8.9-.1c0.5,0,.8.2,0.8,0.5a1.884,1.884,0,0,0,.2,1.2c0.7,9.7,1,18.7,1,27.2a214.339,214.339,0,0,1-1.8,26.9,8.771,8.771,0,0,1-.1,2.1c-0.1.3-.7,0.4-2,0.3l-6.1-1a5.5,5.5,0,0,0-1.4-.5c-0.1.2,0.3,0.6,1.2,1.5a40.665,40.665,0,0,1,4.2,4.1c1.2,1.4,2.3,2.8,3.4,4.3q1.2,2.1,1.8,1.5c0.3-.4,1-1.2,1.9-2.3a28.388,28.388,0,0,0,3.9-10.1,44.521,44.521,0,0,0,.4-9.7l-0.4-15.2a61.761,61.761,0,0,0-.4-13,42.981,42.981,0,0,1,.6-12.8l1.6-4.1a13.734,13.734,0,0,0-5.6-4.8C1165.85,898.333,1163.75,898.233,1161.95,899.134Zm-51.4,11.3h0a17.846,17.846,0,0,1,1.7,6.1q0.15,3.45.3,6.6a94.865,94.865,0,0,1-.7,16.2,137.058,137.058,0,0,1-3.2,16,17.518,17.518,0,0,0,.4,4,12.33,12.33,0,0,0,1.7,4c1.1,1,1.8,1.3,2.3,1a7.872,7.872,0,0,0,1.4-2.4c0.7-8.5,1.3-16.4,1.7-23.8,0.4-7.5.8-15.3,1.1-23.4a6.71,6.71,0,0,0-1.6-4,6.952,6.952,0,0,0-3.7-1.9,1.37,1.37,0,0,0-1.3.2A1.3,1.3,0,0,0,1110.55,910.434Zm139.1-20.7h0a49.213,49.213,0,0,1-4,13.4,75.8,75.8,0,0,1-7.3,12.9c-4.2.7-8.1,1.3-11.6,1.7-3.5.3-7.3,0.6-11.3,0.9-0.6.1-1,.2-1,0.5-0.2.3,0.1,0.7,0.8,1.2a36.166,36.166,0,0,0,3.4,2,5.515,5.515,0,0,0,3.6,0l8.8-1.2a8.893,8.893,0,0,0,1.8-.5c0.2-.1.4,0.4,0.6,1.7,0,2.3,0,4.4-.2,6.4,0,2-.2,4.1-0.4,6.3a0.877,0.877,0,0,1-.7.6,5.073,5.073,0,0,1-.9.2q-7.95.9-15,1.5c-4.6.4-9.4,1-14.5,1.8-0.8.2-1.1,0.4-.9,0.7a3.641,3.641,0,0,0,.9,1.2c1.1,0.5,2.1.9,2.7,1.1a6.033,6.033,0,0,0,2.8.3l22.7-3.5a4.708,4.708,0,0,1,1.9-.3,6.054,6.054,0,0,1,0,2.1,39.8,39.8,0,0,1-11.8,19.6,70.89,70.89,0,0,1-19.6,12.4,1.128,1.128,0,0,0-.6.4,0.89,0.89,0,0,1,.8,0,49.809,49.809,0,0,0,21.6-8.5c6-4.4,10.5-11.1,13.3-20,0.3-1,.4-1.6.5-1.8s0.6,0.3,1.5,1.6c3.5,5.2,6.9,10.4,10.4,15.5a49.183,49.183,0,0,0,14,13.6,42.722,42.722,0,0,0,10,.4,80.259,80.259,0,0,0,9.9-1.8,99.658,99.658,0,0,1-23.2-11.4c-7.8-5-14.5-12.1-20.3-21.4-0.7-.8-1-1.2-0.9-1.3a3.1,3.1,0,0,1,1.2-.3c5.8-.5,11.3-0.8,16.6-0.9a119.441,119.441,0,0,1,16.6.9c1.5-.3,2.3-0.9,2.6-1.6q0.3-1.05-1.2-2.7a12.807,12.807,0,0,0-4-2.3,6.164,6.164,0,0,0-3.8,0c-4.8.7-9.3,1.4-13.6,2-4.2.6-8.5,1.2-13,1.7a4.954,4.954,0,0,0-1.5.1c-0.2,0-.1-0.4.2-1.3l1.7-8.2a15.525,15.525,0,0,0,.4-2.1,3.859,3.859,0,0,0-.6-2,6.461,6.461,0,0,0-.9-1.6c-0.1-.1.5-0.2,1.7-0.3,3.5-.3,6.8-0.5,10-0.6a58.081,58.081,0,0,0,9.9-1.2c0.8-.3,1.1-0.6.9-1.1a2.218,2.218,0,0,0-1.3-1.2,11.9,11.9,0,0,0-7.9-1.4c-2.4.4-5,.9-7.7,1.4a1.343,1.343,0,0,1-1.1-.2c0.1-.2.4-0.5,0.7-1,2.2-3.2,4.5-6.2,6.7-9a81.4,81.4,0,0,1,8.2-8.6,9.783,9.783,0,0,0,1.9-2c0.2-.2.1-1-0.4-2.1a17.344,17.344,0,0,0-4.7-3.6,6.166,6.166,0,0,0-4.6-.3Zm-33,5.4h0c1.5,3.2,2.8,5.7,3.8,7.6a37.957,37.957,0,0,0,4.2,6.3c1.3,2.1,2.7,3,4,2.5a5.015,5.015,0,0,0,3.2-3.3,8.469,8.469,0,0,0-.4-1.7,4.707,4.707,0,0,0-.4-1.6,21.077,21.077,0,0,0-6.6-6.4,33.929,33.929,0,0,0-7.2-3.2c-0.6-.5-0.8-0.4-0.4.3C1217.05,896.333,1217.05,896.133,1216.65,895.133Z"/>
  <path id="大写字母" class="cls-3" d="M96.6,543.766c1.8-.12,3.6-0.18,6-0.18,2.34,0,4.619.06,6.959,0.18v-1.86c-3.78-.12-4.439-2.16-4.439-3.06,0-.66.419-1.68,2.879-8.76h14.82c2.64,7.56,3.3,9.36,3.3,10.08,0,1.74-3.66,1.74-4.68,1.74H121.2v1.86c2.94-.12,5.82-0.18,8.759-0.18,3.06,0,5.46.06,7.74,0.18v-1.86h-0.3c-3.96,0-5.04-.12-5.88-2.58l-12.9-37.079c-0.3-.84-0.6-1.44-1.5-1.44a1.661,1.661,0,0,0-1.5,1.44L103.68,536.866c-0.66,1.86-1.38,4.92-7.08,5.04v1.86Zm12-15.54,6.78-19.5,6.78,19.5H108.6Zm42.48,15.54H173.7a26.092,26.092,0,0,0,3.06-.12c6.36-.78,11.28-5.4,11.28-10.86,0-5.52-5.34-9.96-11.94-10.44,9.24-1.919,10.26-7.5,10.26-9.479,0-3.42-2.4-6.6-6.06-8.46a17.52,17.52,0,0,0-8.159-1.62h-21.06v1.86h0.78c4.2,0,5.4.18,5.4,2.58v32.159c0,2.22-.96,2.52-5.46,2.52h-0.72v1.86Zm11.16-4.2v-16.44h11.04c6.479,0,8.759,5.7,8.759,9.6,0,4.26-2.88,9.18-9.539,9.18h-7.08C162.539,541.906,162.239,541.486,162.239,539.566Zm0-17.819v-14.88c0-2.1.96-2.22,3.06-2.22h6.96c6.9,0,8.279,5.7,8.279,8.28,0,3.06-1.98,8.82-9.839,8.82h-8.46Zm41.88,1.5c0,12.54,9.959,21.84,20.939,21.84,10.8,0,15.659-9.6,15.659-15.06,0-.78-0.3-1.32-0.72-1.32a1.182,1.182,0,0,0-.48.24,2.606,2.606,0,0,0-.36,1.62,13.632,13.632,0,0,1-13.379,12.66c-5.52,0-15.479-3.6-15.479-20.04,0-17.1,10.859-19.859,15.359-19.859,7.08,0,10.98,6.12,12.36,10.5,0.9,2.88.539,3.48,0.9,4.26a1.192,1.192,0,0,0,.96.54c0.42,0,.84-0.3.84-1.26v-14.52c0-.66-0.06-1.32-0.72-1.32-0.6,0-.96.72-3.959,5.1a14.453,14.453,0,0,0-11.04-5.16C214.018,501.467,204.119,510.707,204.119,523.246Zm51.42,20.52h21.119a25.082,25.082,0,0,0,3-.12c8.46-1.02,16.259-8.88,16.259-20.1,0-7.439-3.54-14.519-9.6-18.239a16.622,16.622,0,0,0-9.78-2.52h-21v1.86h0.78c4.26,0,5.4.24,5.4,2.58v32.159c-0.06,2.34-1.26,2.52-5.46,2.52h-0.72v1.86Zm11.339-4.2v-32.7c0-2.1.96-2.22,3.18-2.22h5.22a13.264,13.264,0,0,1,9.66,3.42c4.08,3.78,4.98,9.48,4.98,15.179v0.84c0,4.2-.48,8.64-2.94,12.18-3.78,5.52-9.78,5.64-11.58,5.64h-5.34C267.418,541.906,266.878,541.726,266.878,539.566Zm43.68,4.2h34.619l2.52-15.48h-1.5c-0.6,3.54-1.32,8.46-3.84,10.92-2.64,2.58-6.66,2.7-10.32,2.7h-5.58c-3.959,0-4.379-.12-4.379-2.28v-16.14h4.739c6.06,0,7.14,1.2,7.14,7.02h1.5V514.667h-1.5c0,5.58-.9,6.96-7.08,6.96h-4.8v-14.7c0.06-2.16.78-2.16,4.2-2.16h4.92c3.6,0,6.96.12,9.24,1.62,3,1.98,3.54,5.94,4.08,10.08h1.5l-1.68-13.5H310.558v1.8h0.78c4.26,0,5.4.24,5.4,2.58v32.039c0,2.22-.9,2.52-5.4,2.52h-0.78v1.86Zm50.16,0c3-.12,6.059-0.18,9.059-0.18,3.36,0,6.78.06,10.14,0.18v-1.86h-0.78c-6.72,0-6.9-.6-6.9-3v-14.64h4.56c6.06,0,6.96,1.38,6.96,7.02h1.56V515.447h-1.56a17.414,17.414,0,0,1-.12,3.06c-0.54,3.9-3.9,3.9-6.6,3.9h-4.8V506.987c0-2.1.9-2.22,3.18-2.22h5.76c3.48,0,7.439.06,9.779,2.58,1.98,2.16,2.46,5.7,2.88,9.12h1.5l-1.62-13.5h-33v1.8h0.78c4.2,0,5.4.18,5.4,2.58v32.039c0,2.22-.9,2.52-5.4,2.52h-0.78v1.86Zm49.859-20.46c0,12.6,10.02,21.78,21,21.78,4.62,0,9.18-1.62,11.22-5.16h0.06a12.2,12.2,0,0,0,2.7,3.12,2.469,2.469,0,0,0,1.08.6c0.42,0,.54-0.42.54-1.32v-10.5c0-2.34.84-2.52,4.019-2.52h0.18v-1.86l-4.739.12h-2.82l-9.42-.12v1.86h0.78c6.24,0,6.66.42,6.66,2.88v3.54a9.387,9.387,0,0,1-.12,1.86c-0.72,3.78-5.34,5.64-9.24,5.64-6.3,0-15.719-4.2-15.719-19.92,0-16.439,10.019-19.979,15.359-19.979,7.74,0,12.18,7.14,13.14,13.8,0.12,0.84.18,1.5,1.08,1.5,0.48,0,.84-0.3.84-1.26v-14.52c0-.6,0-1.32-0.66-1.32-0.54,0-.72.42-3.96,5.1a14.384,14.384,0,0,0-11.04-5.16C420.717,501.467,410.577,510.587,410.577,523.306Zm55.02,20.46q4.41-.18,8.82-0.18t8.819,0.18v-1.86h-0.6c-4.68,0-5.52-.24-5.52-2.7v-15.84h17.94v15.84c0,2.46-.84,2.7-5.52,2.7h-0.6v1.86q4.41-.18,8.82-0.18t8.819,0.18v-1.86H505.8c-4.56,0-5.339-.36-5.4-2.52V507.167c0.06-2.16.9-2.52,5.4-2.52h0.78v-1.86q-4.41.18-8.819,0.18t-8.82-.18v1.86h0.6c4.56,0,5.52.24,5.52,2.7v14.22h-17.94v-14.22c0-2.52,1.08-2.7,5.58-2.7h0.54v-1.86q-4.41.18-8.819,0.18t-8.82-.18v1.86h0.66c4.62,0,5.52.3,5.52,2.52v32.219c-0.06,2.34-1.32,2.52-5.34,2.52H465.6v1.86Zm54,0c2.64-.06,5.28-0.18,8.82-0.18,3.12,0,6.36.06,9.48,0.18v-1.86h-0.96c-4.74,0-5.46-.42-5.52-2.58v-32.1c0.06-2.22.96-2.58,5.58-2.58h0.9v-1.86q-4.77.18-9.54,0.18c-3.48,0-6.12-.12-8.76-0.18v1.86h0.9c4.56,0,5.58.3,5.58,2.58v32.1c0,2.46-1.32,2.58-5.52,2.58H519.6v1.86Zm31.86-6.72c0,4.08,3.9,8.04,9.66,8.04,4.259,0,11.159-2.58,11.159-10.68V507.287c0-2.34.54-2.64,4.38-2.64h0.24v-1.86l-4.98.18H569.1l-10.019-.18v1.86h1.08c5.579,0,6.9.18,6.9,2.7v27.119c0,7.14-3.719,9.24-6.179,9.24a8.2,8.2,0,0,1-6.6-3.48c0.12,0,.3.06,0.42,0.06A3.331,3.331,0,1,0,551.456,537.046Zm39.6,6.72q4.41-.18,8.82-0.18t8.819,0.18v-1.86h-0.54c-4.919,0-5.579-.3-5.579-2.76v-9.36c0-1.62,0-1.2,6.959-7.8l10.68,15.839a4.409,4.409,0,0,1,1.02,2.28c0,1.86-2.58,1.8-3.48,1.8v1.86l8.58-.18h2.4l4.5,0.18v-1.86h-0.24c-3.119,0-4.259-.3-6.239-3.12l-13.68-20.219c0.9-.78,1.74-1.62,8.58-8.16,2.4-2.28,5.16-5.58,10.739-5.76v-1.86q-2.789.18-5.579,0.18c-2.4,0-4.74-.06-7.14-0.18v1.86c2.1,0.18,2.7,1.2,2.7,2.04a3.666,3.666,0,0,1-1.38,2.28l-18.419,17.519V507.467c0-2.46.6-2.82,5.519-2.82h0.6v-1.86q-4.409.18-8.819,0.18t-8.82-.18v1.86h0.78c4.2,0,5.4.18,5.4,2.58v32.159c-0.06,2.34-1.26,2.52-5.46,2.52h-0.72v1.86Zm55.98,0h31.318l1.68-15.48h-1.56c-0.78,6.78-1.56,13.62-12.6,13.62h-4.26c-2.1,0-3.06-.12-3.06-2.28V507.347c0-2.4,1.2-2.7,6.66-2.7h1.02v-1.86q-5.22.18-10.44,0.18c-3.48,0-6.119-.06-8.759-0.18v1.86h0.78c4.259,0,5.4.24,5.4,2.58v32.159c-0.06,2.34-1.2,2.52-5.4,2.52h-0.78v1.86Zm47.1,0q3.51-.18,7.02-0.18c2.34,0,4.62.06,6.96,0.18v-1.86c-5.76,0-6.18-2.46-6.18-4.5V504.947h0.06c0.48,1.32,1.02,2.58,1.5,3.9l13.019,33.6a1.54,1.54,0,0,0,1.2,1.2,1.616,1.616,0,0,0,1.2-1.26l13.2-33.959,1.44-3.84h0.06v34.679c0,2.4-1.08,2.64-5.4,2.64h-0.78v1.86c2.88-.12,5.7-0.18,8.58-0.18s5.7,0.06,8.579.18v-1.86h-0.78c-4.32,0-5.28-.24-5.34-2.58V507.167c0.06-2.1.84-2.52,5.34-2.52h0.78v-1.86H734.333a1.61,1.61,0,0,0-1.92,1.26l-13.08,33.659-13.019-33.659a1.67,1.67,0,0,0-1.98-1.26h-10.2v1.86h0.66c4.62,0,5.52.36,5.52,2.58v30.239c0,2.64-1.2,4.44-6.18,4.44v1.86Zm64.019,0c2.04-.06,4.02-0.18,6.72-0.18,2.4,0,4.86.06,7.26,0.18v-1.86c-5.76,0-6.18-2.52-6.18-4.5v-31.2h0.06l24.779,36.359a2.007,2.007,0,0,0,1.38,1.14c0.72,0,.84-0.66.84-1.56,0-.3-0.06-0.6-0.06-0.9V509.087c0-2.7,1.2-4.44,6.18-4.44v-1.86q-3.69.18-7.38,0.18c-2.28,0-3.78-.06-6.6-0.18v1.86c5.28,0,6.18,1.98,6.18,4.44v25.559l-21-30.779a1.728,1.728,0,0,0-1.8-1.08h-10.38v1.86h0.96a25.206,25.206,0,0,1,5.22.42v32.339c0,2.7-1.08,4.5-6.18,4.5v1.86Zm55.68-20.34c0,12.54,9.539,21.66,19.979,21.66,10.56,0,19.979-9.12,19.979-21.66s-9.359-21.959-19.979-21.959C823.072,501.467,813.833,510.947,813.833,523.426Zm6.18-.96c0-14.819,8.279-19.5,13.8-19.5s13.8,4.68,13.8,19.439c0,16.2-8.279,21.06-13.8,21.06S820.013,538.666,820.013,522.466Zm48.539,21.3q4.41-.18,8.82-0.18t8.82,0.18v-1.86h-0.54c-4.68,0-5.58-.3-5.58-2.7v-14.34h9.3c10.379,0,14.579-6.359,14.579-10.919,0-3.6-2.28-6.96-5.76-9-3.24-1.86-6.18-2.16-9.539-2.16h-20.1v1.86h0.78c4.26,0,5.4.24,5.4,2.58v32.159c0,2.22-.9,2.52-5.4,2.52h-0.78v1.86Zm11.34-20.52V506.987c0-2.34.66-2.34,4.02-2.34h3.78c9.659,0,10.079,5.34,10.079,9.3,0,4.26-.6,9.3-10.2,9.3h-7.68Zm40.08,0.18c0,12.42,9.36,21.66,19.979,21.66a18,18,0,0,0,5.7-.9c0.84,4.919,1.44,11.219,7.32,11.219s7.259-7.56,7.259-11.1c0-.72-0.3-1.08-0.66-1.08a0.725,0.725,0,0,0-.54.42s-0.54,5.579-5.579,5.579c-3.48,0-4.8-3.539-5.76-5.819a21.769,21.769,0,0,0,12.239-20.04c0-12.3-9.119-21.9-19.979-21.9C929.152,501.467,919.972,511.067,919.972,523.426Zm6,0c0.06-15.779,8.4-20.459,13.979-20.459s13.92,4.92,13.92,20.459c0,11.7-4.8,16.08-7.08,17.82-0.96-2.22-2.64-6.36-6.78-6.36a5.037,5.037,0,0,0-4.92,5.04,5.538,5.538,0,0,0,.84,2.88C926.692,538.906,925.972,528.046,925.972,523.426Zm10.5,16.5a3.6,3.6,0,0,1,3.6-3.66c3.54,0,4.62,3.24,5.22,5.94a12.146,12.146,0,0,1-5.22,1.38A3.487,3.487,0,0,1,936.471,539.926Zm38.221,3.84c2.939-.12,5.819-0.18,8.759-0.18s5.82,0.06,8.76.18v-1.86h-0.6c-4.56,0-5.58-.24-5.58-2.7v-15.24h6.66c6.54,0,8.159,4.5,8.159,7.86v4.26c0,7.2,5.82,9,9.96,9,4.8,0,5.76-4.92,5.76-6.48a0.839,0.839,0,0,0-.72-1.02,0.814,0.814,0,0,0-.66.42c-0.18.3-.36,5.7-4.08,5.7-2.04,0-2.82-1.8-3.24-3.18-2.04-6.72.18-14.28-9.119-17.16a19.135,19.135,0,0,0,2.639-.78c4.8-1.859,7.86-5.219,7.86-9,0-3.54-2.58-6.84-6.78-8.88a21.9,21.9,0,0,0-10.079-1.92h-17.7v1.86h0.779c4.5,0,5.4.36,5.4,2.52v32.219c-0.06,2.22-.96,2.52-5.4,2.52h-0.779v1.86Zm11.339-21.18V506.927c0-2.28.66-2.28,3.96-2.28h2.64c8.1,0,10.439,3.6,10.439,9.06,0,7.56-5.159,8.879-11.459,8.879h-5.58Zm43.379,20.88c0,0.66-.06,1.32.48,1.5,0.06,0,.18.06,0.24,0.06,0.42,0,1.02-.6,3-4.14a14.936,14.936,0,0,0,10.98,4.2c7.14,0,11.88-5.82,11.88-12.3a12.337,12.337,0,0,0-6.9-11.279c-2.22-1.02-8.58-2.22-10.68-2.94a7.918,7.918,0,0,1,2.82-15.42,10.646,10.646,0,0,1,9.9,6.18c2.16,4.44,1.08,6.96,2.46,7.02a0.859,0.859,0,0,0,.78-1.02v-12.24c0-.66,0-1.56-0.72-1.56-0.6,0-1.02.9-3,4.14a11.94,11.94,0,0,0-9.48-4.2,11.462,11.462,0,0,0-3.96,22.319c1.92,0.66,8.58,2.04,10.02,2.64a8.6,8.6,0,0,1,5.16,8.1c0,4.5-3.24,8.7-8.28,8.7-3.18,0-7.14-.9-9.84-3.6-2.64-2.64-3.18-5.52-3.36-8.58a0.912,0.912,0,0,0-.78-0.9c-0.36,0-.72.36-0.72,1.2v12.12Zm41.46-26.819h1.5c0.72-8.28,1.32-11.7,9.9-11.7h2.34c1.98,0,3.06.06,3.06,2.28v31.859c0,2.58-1.32,2.82-7.38,2.82h-1.32v1.86c4.08-.12,8.04-0.18,12.12-0.18,4.26,0,6.36.06,10.62,0.18v-1.86h-1.26c-6.06,0-7.44-.24-7.44-2.82V507.227c0-2.16,1.14-2.28,3.06-2.28h2.4c8.46,0,9.06,3.18,9.84,11.7h1.5l-1.14-13.5h-36.6Zm52.5-12h0.54c4.86,0,5.64.3,5.64,2.76v22.319a15.064,15.064,0,0,0,15.18,15.36c7.08,0,12.36-5.88,13.32-12.66a20.98,20.98,0,0,0,.12-3.36V509.027c0-4.02,3.3-4.32,6.18-4.38v-1.86c-2.04.06-4.02,0.18-6.72,0.18-2.46,0-4.98-.06-7.44-0.18v1.86c3.84,0.06,6.18.84,6.18,4.38v19.919a25,25,0,0,1-.24,3.66c-0.96,6-5.64,10.62-11.34,10.62a9.535,9.535,0,0,1-8.16-4.8c-1.56-2.64-1.74-5.76-1.74-8.94v-22.2c0-2.28.78-2.64,5.34-2.64h0.78v-1.86q-4.41.18-8.82,0.18t-8.82-.18v1.86Zm53.46,0h0.24c4.44,0,4.98.48,5.76,2.52l13.86,36.6a1.512,1.512,0,0,0,3,0l12.96-34.2c0.9-2.34,1.8-4.8,6.9-4.92v-1.86c-2.28.12-3.48,0.18-5.76,0.18-2.34,0-4.62-.06-6.96-0.18v1.86c3.36,0.12,4.38,1.8,4.38,3a4.278,4.278,0,0,1-.42,1.56l-10.8,28.559-11.58-30.479a2.355,2.355,0,0,1-.18-0.84c0-1.68,2.52-1.8,4.62-1.8h0.18v-1.86c-2.88.12-5.82,0.18-8.7,0.18h-1.62c-1.98,0-4.5-.12-5.88-0.18v1.86Zm54.3,0c3.96,0,4.68.18,5.46,2.52l11.88,36.419c0.24,0.6.42,1.44,1.32,1.44,0.84,0,1.08-1.02,1.26-1.5l8.34-25.559c0.48-1.5.9-2.94,1.44-4.44l9.78,30c0.18,0.48.42,1.5,1.32,1.5s1.02-.84,1.26-1.44l11.1-33.959c0.78-2.4,1.5-4.8,6.24-4.98v-1.86c-1.86.12-3.78,0.18-5.64,0.18-2.34,0-4.62-.06-6.96-0.18v1.86c3.96,0.12,5.22,1.92,5.22,3.18a4.118,4.118,0,0,1-.24,1.14l-9.06,27.719-9.54-29.4a3.012,3.012,0,0,1-.12-0.72c0-1.32,1.44-1.92,4.38-1.92h0.6v-1.86q-4.41.18-8.82,0.18c-2.4,0-3.96-.06-7.02-0.18v1.86c3.96,0,4.68.18,5.46,2.58,0.78,2.46,1.14,3.24,1.14,3.84a4.151,4.151,0,0,1-.3,1.26l-7.2,22.019-0.72,2.4h-0.06c-0.3-1.02-.66-1.98-0.96-3l-6.24-19.259c-1.92-6-2.46-7.44-2.46-8.04,0-.72.72-1.8,4.44-1.8h0.54v-1.86c-2.82.12-5.58,0.18-8.4,0.18-2.46,0-4.98-.06-7.44-0.18v1.86Zm71.28,39.119c1.98-.12,3.96-0.18,6.6-0.18q3.87,0,7.74.18v-1.86c-2.34-.12-3.72-1.44-3.72-2.76a4.272,4.272,0,0,1,1.02-2.16l8.04-11.88c9.9,14.82,9.66,14.4,9.66,14.94,0,0.96-1.44,1.74-3.72,1.86v1.86c2.94-.12,5.76-0.18,8.7-0.18,2.58,0,5.22.06,7.8,0.18v-1.86h-0.18c-4.08,0-5.04,0-6.84-2.64l-11.82-17.819a1.752,1.752,0,0,1-.3-0.84c0-.42.24-0.66,6.84-10.44,1.86-2.7,3.36-5.46,9.78-5.52v-1.86c-2.82.12-4.26,0.18-6.48,0.18-2.64,0-5.16-.06-7.8-0.18v1.86c2.28,0.12,3.66,1.38,3.66,2.76,0,1.32-4.08,6.36-7.32,11.52h-0.06c-7.44-11.22-8.04-12-8.04-12.42,0-1.14,1.86-1.8,3.78-1.86v-1.86c-2.88.12-5.7,0.18-8.58,0.18q-3.96,0-7.92-.18v1.86c4.8,0,5.4.24,6.96,2.52l9.54,14.46c0.66,1.019,1.02,1.379,1.02,1.8,0,0.72-10.2,15.36-10.2,15.36-1.68,1.98-4.14,3.06-8.16,3.12v1.86Zm53.58-39.119h0.06c5.22,0,5.52.48,6.9,2.76l11.64,18.959a2.692,2.692,0,0,1,.6,1.8v10.98c0,2.46-.66,2.76-5.52,2.76h-0.66v1.86q4.5-.18,9-0.18c3.42,0,5.94.12,8.52,0.18v-1.86h-0.54c-4.86,0-5.58-.3-5.58-2.76v-10.8a3.044,3.044,0,0,1,.54-1.92l10.38-16.859c1.5-2.46,3.18-4.86,8.28-4.92v-1.86c-2.28.12-3.48,0.18-5.76,0.18q-3.51,0-7.02-.18v1.86c2.7,0.12,3.42,1.38,3.42,2.34a3.628,3.628,0,0,1-.66,1.8l-9.84,16.079h-0.06c-0.36-.66-0.78-1.38-1.2-2.04l-9.36-15.239a3.047,3.047,0,0,1-.54-1.5c0-.96,1.02-1.44,3.72-1.44h0.3v-1.86c-3,.12-6.06.18-9.06,0.18-2.58,0-4.32-.06-7.56-0.18v1.86Zm56.94,38.1c0,0.9.6,1.02,1.38,1.02h27.9l1.02-16.02h-1.5c-0.6,9.84-2.04,14.04-13.86,14.04h-8.76l23.28-36.779a2.151,2.151,0,0,0,.48-1.26c0-.9-0.84-0.96-1.56-0.96h-26.88l-0.66,13.5h1.5c0.42-7.26,2.52-11.64,12.48-11.64h9l-23.1,36.479A3.305,3.305,0,0,0,1412.93,542.746Z"/>
  <path id="logo" class="cls-1" d="M706.266,1194.7a45.969,45.969,0,0,0-.118,5.15v5.16H677.555v-1.17l0.234-.94-1.406-.24c-1.1,0-2.659-.07-4.688-0.23h-3.281l-0.469,2.58a45.646,45.646,0,0,1-1.172,4.92,22.619,22.619,0,0,1-1.406,4.22,7.125,7.125,0,0,0-.82,2.23,6.584,6.584,0,0,0,2.109-.71c1.326-.54,2.615-1.13,3.867-1.76a11.566,11.566,0,0,0,3.516-2.81l1.641-1.64h66.8l1.875,1.88a14.477,14.477,0,0,0,3.75,2.81c1.406,0.62,2.655,1.17,3.75,1.64a1.036,1.036,0,1,0,1.171-1.17,17.1,17.1,0,0,1-1.406-3.99q-0.7-2.34-1.172-4.68a11.9,11.9,0,0,0-.7-3.05c0-.47-1.252-0.62-3.75-0.47-1.875.16-3.281,0.23-4.219,0.23a2.052,2.052,0,0,1-.937.24c-0.315,0-.469.31-0.469,0.94l0.235,0.93-13.594.24q-13.359,0-13.36-.24a2.838,2.838,0,0,1,.7-1.05,6.664,6.664,0,0,0,1.171-2.46,15.728,15.728,0,0,0,.469-4.22v-2.58h-4.687Q706.382,1194.46,706.266,1194.7Zm-31.289,28.12v4.22l21.093,0.23h21.094l-5.859,4.93q-5.4,4.215-8.2,6.56l-2.344,1.87v6.8H660.445v4.22h40.313v14.76c0,10.01-.158,15.47-0.469,16.41a13.152,13.152,0,0,1-1.172,3.05,21,21,0,0,1-2.578,3.04,16.962,16.962,0,0,1-3.75,2.82c-1.406.62-2.109,1.17-2.109,1.64s0.153,0.7.468,0.7a30.375,30.375,0,0,0,3.047-.47,34.353,34.353,0,0,0,4.922-1.4,16.4,16.4,0,0,0,4.688-1.88,11.74,11.74,0,0,0,3.515-2.34,12.264,12.264,0,0,0,2.344-2.58,13,13,0,0,0,1.172-2.58c0.311-.94.469-6.4,0.469-16.41v-14.76h38.2v-4.22h-38.2v-6.8l2.109-1.64q2.109-1.635,8.438-6.79,6.327-5.4,8.437-7.04a13.637,13.637,0,0,0,2.578-2.34q0-.225-28.828-0.23t-29.062.23h0Zm121.64-30.23-0.469,1.87a27.635,27.635,0,0,1-1.523,5.74c-0.861,2.43-1.681,4.65-2.461,6.68q-1.176,2.58-3.281,6.8-1.88,3.75-4.453,8.44-2.11,3.75-4.688,7.73-2.582,4.215-3.047,4.92a7.818,7.818,0,0,0-1.406,2.11c-0.157.47-.117,0.71,0.117,0.71a8.252,8.252,0,0,0,2.227-1.18q1.873-1.17,3.515-2.34,1.874-1.41,3.985-3.28a59.714,59.714,0,0,0,4.453-4.45l2.109-2.35,0.235,14.77,0.234,14.76h1.875a5.862,5.862,0,0,0,3.047-.7,5.457,5.457,0,0,0,1.875-1.17,11.374,11.374,0,0,0,1.406-1.64l0.469-.71h27.187v2.11l0.235,2.11h1.64a7.437,7.437,0,0,0,2.813-.47,9.072,9.072,0,0,0,2.109-1.17,4.666,4.666,0,0,0,1.407-1.64l0.7-.94h31.64v-4.45H838.336v-6.8H868.57v-4.45H838.336v-6.8H868.57v-4.68H838.336v-7.5H868.57v-4.69H837.164l0.938-1.17a23.668,23.668,0,0,0,1.406-2.35,6.445,6.445,0,0,0,.7-2.57,17.74,17.74,0,0,0,.469-4.93v-3.51H828.727v14.53H815.6q-13.129,0-13.125-.23c0-.16-0.158-0.24-0.469-0.24s0.311-1.41,1.875-4.22a69.182,69.182,0,0,0,3.281-7.5,16.732,16.732,0,0,0,1.406-3.98l0.235-1.17H796.617Zm31.406,22.03v7.5H802.477v-7.5h25.546Zm0,12.18v6.8H802.477v-6.8h25.546Zm0,11.25v6.8H802.477v-6.8h25.546Zm-3.515,16.88v5.16l-22.969.23H778.805v4.45h45.7v1.64c0,1.1-.081,1.64-0.235,1.64a40.222,40.222,0,0,1-4.687-1.17q-4.455-1.17-4.922-1.4-0.236,0-6.328,4.68-6.1,4.935-7.734,6.1-1.643.93-4.454,2.58a58.967,58.967,0,0,1-5.39,2.57q-2.812,1.185-5.391,2.23a35.226,35.226,0,0,1-5.859,1.76,17.416,17.416,0,0,0-3.047,1.05,6.06,6.06,0,0,0,1.289,1.06,3.994,3.994,0,0,0,1.992.94c0.469,0,2.344-.32,5.625-0.94s6.328-1.33,9.141-2.11q4.449-1.17,8.2-2.35a22.822,22.822,0,0,0,4.922-2.1q1.637-.945,9.14-6.1t7.618-5.04q0.115,0.12.117,13.48v13.12h1.406a7.357,7.357,0,0,0,2.813-.7,6.692,6.692,0,0,0,3.046-1.99,11.184,11.184,0,0,0,2.11-3.17,8.733,8.733,0,0,0,.586-2.34q0.115-1.17.117-6.33c0.154-4.68.271-7.11,0.352-7.26s1.442,0.55,4.1,2.11q3.982,2.1,6.8,3.51a34.945,34.945,0,0,0,6.328,2.58,54.282,54.282,0,0,0,6.328,1.64,52.974,52.974,0,0,0,5.625.94c1.718,0.16,4.219.23,7.5,0.23a38.521,38.521,0,0,0,5.86-.23,1.37,1.37,0,0,0,1.171-.94l0.235-1.17c0-.15-0.235-0.24-0.7-0.24-0.315,0-1.722-.23-4.219-0.7s-5-1.01-7.5-1.64q-3.516-.93-6.8-2.11-2.812-.93-5.625-2.11-2.346-1.17-10.078-6.33l-7.734-5.15,19.453-.24h19.453v-4.45H854.977l-20.157-.23v-2.58l-0.234-2.58H824.508Z"/>
</svg>
