<svg xmlns="http://www.w3.org/2000/svg" width="400" height="200" viewBox="0 0 400 200">
  <defs>
    <style>
      .cls-1 {
        fill: #fdfdfd;
        stroke: #000;
        stroke-width: 1px;
        fill-rule: evenodd;
      }
    </style>
  </defs>
  <path id="千图小兔体" class="cls-1" d="M80.5,75.345a13.161,13.161,0,0,0-2.28,2.16,21.38,21.38,0,0,1-5.28,4.29,11.2,11.2,0,0,1-5.1,1.65,4.679,4.679,0,0,1-1.53-.15,2.111,2.111,0,0,1-.75-0.93,2.592,2.592,0,0,0-2.16-1.32,2.076,2.076,0,0,0-1.62.75,3.025,3.025,0,0,0-.66,2.07,3.071,3.071,0,0,0,.21,1.35,6.13,6.13,0,0,0,1.11,1.23,6.377,6.377,0,0,0,2.16,1.47,7.524,7.524,0,0,0,2.76.45,14.307,14.307,0,0,0,4.65-.69,23.757,23.757,0,0,0,4.83-2.49,21.74,21.74,0,0,0,5.13-4.53q2.07-2.55,1.77-3.99a2.187,2.187,0,0,0-.72-1.23,1.908,1.908,0,0,0-1.26-.45,2.635,2.635,0,0,0-1.26.36h0Zm-5.64,12.24A2.551,2.551,0,0,0,73.689,89a10.2,10.2,0,0,0-.33,3.09v2.7h-5.7q-10.021,0-11.46,1.08a2.166,2.166,0,0,0-.84,1.8,1.868,1.868,0,0,0,.54,1.38,1.745,1.745,0,0,0,.93.42,21.646,21.646,0,0,0,2.7.18q2.07,0.06,5.43.06l8.4,0.06v4.08q0,1.922-.06,3c-0.04.72-.12,1.061-0.24,1.02a1.235,1.235,0,0,1-.54-0.45,7.44,7.44,0,0,1-.66-1.35,3.278,3.278,0,0,0-1.14-1.38,1.86,1.86,0,0,0-1.02-.36,1.425,1.425,0,0,0-1.14.6,2.421,2.421,0,0,0-.48,1.56,3.549,3.549,0,0,0,.06.78l0.12,0.72c0,0.12-.04.18-0.12,0.18a3.343,3.343,0,0,1-1.02-.96,2.018,2.018,0,0,0-3.66,1.14,2.983,2.983,0,0,0,.36,1.32,1.909,1.909,0,0,1,.24.96,0.84,0.84,0,0,1-.06.36,5.061,5.061,0,0,0-.18,1.44,4.754,4.754,0,0,0,.42,2.22,2.7,2.7,0,0,0,1.32,1.26,4.486,4.486,0,0,0,2.04.48,1.339,1.339,0,0,1,.81.15,1.547,1.547,0,0,1,.21.81,1.819,1.819,0,0,0,.69,1.47,2.17,2.17,0,0,0,1.71.45q2.34-.12,2.34,1.8a5.289,5.289,0,0,0,.69,2.88,2.09,2.09,0,0,0,1.83,1.08,2.448,2.448,0,0,0,.84-0.18,2.225,2.225,0,0,0,1.14-.75,5.056,5.056,0,0,0,.42-2.04q0.12-1.59.12-5.49v-16.8l3.84-.12q2.1-.18,7.56-0.18l3.84,0.18,0.66-.84a2.6,2.6,0,0,0,.66-1.56,2.344,2.344,0,0,0-.84-1.56,3.856,3.856,0,0,0-2.01-.93,25.689,25.689,0,0,0-4.47-.27q-2.281,0-3.72.06l-5.52.06v-2.34a9.523,9.523,0,0,0-.39-3.21,2.5,2.5,0,0,0-1.29-1.41,3.552,3.552,0,0,0-1.08-.42,2.229,2.229,0,0,0-.78.36h0Zm-4.26,19.62a3.969,3.969,0,0,0,.51,1.02,2.87,2.87,0,0,0,.93.72,1.8,1.8,0,0,1,1.26,1.56,2.107,2.107,0,0,1-.48,1.2,2.019,2.019,0,0,0-.48,1.02,0.347,0.347,0,0,0,.42.36H73c0.159-.079.26-0.06,0.3,0.06a2.78,2.78,0,0,1,.06.72,2.65,2.65,0,0,1-.09.87,0.433,0.433,0,0,1-.45.21,2.538,2.538,0,0,0-1.05.18,0.546,0.546,0,0,0-.39.48,0.555,0.555,0,0,0,.27.39,1.49,1.49,0,0,0,.75.27,1.422,1.422,0,0,1,.96.42,1.258,1.258,0,0,1-.9.57,4.623,4.623,0,0,1-1.56.33,0.621,0.621,0,0,1-.54-0.18,1.438,1.438,0,0,1-.12-0.72,1.973,1.973,0,0,1,.36-1.38,1.139,1.139,0,0,0,.42-0.9,0.231,0.231,0,0,0-.15-0.27,3.723,3.723,0,0,0-.75.03,26.86,26.86,0,0,1-2.88.42,1.674,1.674,0,0,1-1.32-.54,3.975,3.975,0,0,1-.6-2.58l-0.12-2.7c-0.04-.519.02-0.78,0.18-0.78a1.663,1.663,0,0,1,.84.96,4.9,4.9,0,0,0,.48.75,0.6,0.6,0,0,0,.48.21l0.48-.06a3.707,3.707,0,0,0,1.56-.6,1.144,1.144,0,0,0,.42-0.39,1.3,1.3,0,0,0,.12-0.63,6.969,6.969,0,0,0-.06-0.96,6.8,6.8,0,0,1-.06-0.96c0-.279.06-0.42,0.18-0.42l0.12,0.06a2.225,2.225,0,0,1,.66,1.26h0Zm-0.66,2.94c0,0.24.159,0.36,0.48,0.36,0.4,0,.6-0.12.6-0.36a0.485,0.485,0,0,0-.6-0.48,0.435,0.435,0,0,0-.36.15,0.515,0.515,0,0,0-.12.33h0Zm-2.64.96a1.018,1.018,0,0,0,.06.42,0.3,0.3,0,0,0,.3.12h0.18a0.4,0.4,0,0,0,.27-0.18,0.568,0.568,0,0,0,.15-0.36,0.8,0.8,0,0,0-.42-0.54,0.45,0.45,0,0,0-.54.54h0Zm3.84,0.18a1.373,1.373,0,0,1-.78.24,0.654,0.654,0,0,1-.3-0.06q-0.841-.119-0.9.3a0.385,0.385,0,0,1-.42.36,0.341,0.341,0,0,1-.24-0.06,0.277,0.277,0,0,0-.3.03,0.983,0.983,0,0,0,0,.51,0.94,0.94,0,0,0,.36.6,1.027,1.027,0,0,0,.66.24,0.808,0.808,0,0,0,.72-0.36,0.539,0.539,0,0,1,.3-0.36,1.075,1.075,0,0,1,.48-0.12,1.267,1.267,0,0,0,.93-0.39,1.1,1.1,0,0,0,.39-0.75v-0.18a0.544,0.544,0,0,0-.42-0.42,0.657,0.657,0,0,0-.48.42h0Zm71.4-36.84a4.835,4.835,0,0,0-3.12,1.83,7.441,7.441,0,0,0-1.14,4.05l-0.06,1.62-2.46.18-2.52.06-0.18-1.86a7.948,7.948,0,0,0-1.5-4.05,4.009,4.009,0,0,0-3.18-1.23,5.015,5.015,0,0,0-3.66,1.29,4.844,4.844,0,0,0-1.32,3.63,10.131,10.131,0,0,0,.48,2.82,6.581,6.581,0,0,1,.36,1.5,0.526,0.526,0,0,1-.15.39,3.646,3.646,0,0,1-.39.33,19.206,19.206,0,0,0-4.2,4.17,16.965,16.965,0,0,0-2.76,4.89,32.988,32.988,0,0,0-1.11,5.13,39.619,39.619,0,0,0-.39,5.49,22.718,22.718,0,0,0,.54,5.4,21.4,21.4,0,0,0,2.97,6.45,16.316,16.316,0,0,0,4.53,4.77,23.062,23.062,0,0,0,6.75,2.82,42.211,42.211,0,0,0,8.79,1.38,15.953,15.953,0,0,0,2.43-.06,21.16,21.16,0,0,0,2.61-.48,16.865,16.865,0,0,0,7.56-3.9,18.321,18.321,0,0,0,4.26-7.5,32.96,32.96,0,0,0,1.02-4.11,23.6,23.6,0,0,0,.3-3.93q0-1.44-.06-2.22a30.391,30.391,0,0,0-1.71-9.27,20.045,20.045,0,0,0-4.35-6.93,21.236,21.236,0,0,0-3-2.82l-0.9-.66,0.6-1.8a7.947,7.947,0,0,0,.6-2.58,4.564,4.564,0,0,0-.6-2.1q-1.26-2.88-3.72-2.88a5.478,5.478,0,0,0-1.32.18h0Zm2.4,2.58a3.807,3.807,0,0,1,.6,2.34,6.135,6.135,0,0,1-.27,1.83,2.753,2.753,0,0,1-.75,1.29,1.662,1.662,0,0,1-.72.12q-0.18,0-1.38-.12l-1.68-.42v-1.56q0-2.82,1.44-3.54a3.313,3.313,0,0,1,1.5-.36,1.714,1.714,0,0,1,1.26.42h0Zm-15.3.84a2.006,2.006,0,0,1,.57.9,6.373,6.373,0,0,1,.27,1.68l0.18,2.04-1.44.3q-0.42.121-1.08,0.3a3.554,3.554,0,0,0-.84.3q-0.54.121-.9-0.87a6.557,6.557,0,0,1-.36-2.25,2.88,2.88,0,0,1,.54-2.1,3.016,3.016,0,0,1,1.8-.84,1.866,1.866,0,0,1,1.26.54h0Zm11.88,8.58a11.536,11.536,0,0,1,3.27,1.11,12.3,12.3,0,0,1,2.79,2.37,16.053,16.053,0,0,1,3.54,5.55,28.328,28.328,0,0,1,1.56,7.83,12.673,12.673,0,0,1,.06,1.44,25.532,25.532,0,0,1-1.17,7.65,12.39,12.39,0,0,1-2.97,5.43,10.113,10.113,0,0,1-2.88,1.89,17.5,17.5,0,0,1-3.9,1.29,12.434,12.434,0,0,1-2.04.18,42.855,42.855,0,0,1-4.68-.42,30.352,30.352,0,0,1-6.93-1.62,12.334,12.334,0,0,1-4.35-2.88,14.365,14.365,0,0,1-2.46-3.48,16.513,16.513,0,0,1-1.56-4.02,16.3,16.3,0,0,1-.24-3.42q0-2.219.21-4.71a25.976,25.976,0,0,1,.57-3.93,15.086,15.086,0,0,1,3.81-6.63,11.68,11.68,0,0,1,6.27-3.33,39,39,0,0,1,7.08-.6,20.268,20.268,0,0,1,4.02.3h0Zm-8.4,1.5a2.182,2.182,0,0,0-.78,1.38,16.544,16.544,0,0,1-1.02,3.12,11.945,11.945,0,0,1-2.19,3.6,3.648,3.648,0,0,1-2.49,1.5,2.393,2.393,0,0,0-1.56.6,1.717,1.717,0,0,0-.72,1.32,1.471,1.471,0,0,0,.24.66,3.082,3.082,0,0,0,.48.66,2.511,2.511,0,0,0,1.86.66,6.091,6.091,0,0,0,3.48-1.2l1.38-1.02,1.26,1.8a4.946,4.946,0,0,1,.84,1.68,0.647,0.647,0,0,1-.48.57q-0.48.211-1.8,0.63a8.217,8.217,0,0,1-2.22.36,7.151,7.151,0,0,1-2.76-.6,2.987,2.987,0,0,0-1.32-.36,1.423,1.423,0,0,0-1.05.39,1.645,1.645,0,0,0-.45,1.05,2.435,2.435,0,0,0,1.35,2.61,8.057,8.057,0,0,0,4.11.93,13.768,13.768,0,0,0,6.78-1.8,3.526,3.526,0,0,1,1.56-.6,2.953,2.953,0,0,1,1.2.3,9.658,9.658,0,0,0,3.18.54,9.208,9.208,0,0,0,4.71-1.2q2.07-1.2,2.07-2.82a1.862,1.862,0,0,0-.12-0.78,1.566,1.566,0,0,0-1.56-1.2,2.8,2.8,0,0,0-2.16,1.14,3.519,3.519,0,0,1-2.22.84l-1.68.12,1.14-2.16a9.21,9.21,0,0,0,1.2-4.26,6.679,6.679,0,0,0-.78-3.12,4.145,4.145,0,0,0-1.8-2.04,6.768,6.768,0,0,0-3.12-.6,7.611,7.611,0,0,1-1.59-.09,0.521,0.521,0,0,1-.27-0.57,3.087,3.087,0,0,0-.36-1.38,1.825,1.825,0,0,0-1.38-1.2,1.486,1.486,0,0,0-.96.54h0Zm5.64,6.84a2.231,2.231,0,0,1,.36,1.44,6.79,6.79,0,0,1-.45,2.4,2.313,2.313,0,0,1-1.05,1.44q-0.36.121-1.74-1.89a7.054,7.054,0,0,1-1.38-2.61q0-1.2,2.46-1.32a2.132,2.132,0,0,1,1.8.54h0Zm-1.62,12.12a2.618,2.618,0,0,0-1.2.87,2.037,2.037,0,0,0-.42,1.23,1.842,1.842,0,0,0,.57,1.35,2.064,2.064,0,0,0,1.53.57,2.439,2.439,0,0,0,1.56-.75,2.031,2.031,0,0,0,.84-1.41,2.241,2.241,0,0,0-.78-1.29,2.147,2.147,0,0,0-1.2-.81,2.037,2.037,0,0,0-.9.24h0Zm-0.42,6.78a2.26,2.26,0,0,0-1.2,2.04,1.907,1.907,0,0,0,.33,1.05,1.961,1.961,0,0,0,.87.75,4.948,4.948,0,0,0,.84.12,2.528,2.528,0,0,0,2.46-2.22,1.812,1.812,0,0,0-.54-1.2,2.109,2.109,0,0,0-1.62-.84,2.567,2.567,0,0,0-1.14.3h0Zm58.98-34.44a2.013,2.013,0,0,0-.78,1.02,6.153,6.153,0,0,0-.24,1.98,46.706,46.706,0,0,0,.42,5.34,93.627,93.627,0,0,1,.54,10.92q0,4.081-.21,7.35a19.53,19.53,0,0,1-.63,4.47,10.343,10.343,0,0,1-1.62,2.88,2.905,2.905,0,0,1-1.74,1.38,1.892,1.892,0,0,1-1.14-.57,1.513,1.513,0,0,1-.66-0.99,4.793,4.793,0,0,0-.54-2.16,2.626,2.626,0,0,0-1.32-1.38,3.176,3.176,0,0,0-1.5-.42,2.205,2.205,0,0,0-1.86.99,4.231,4.231,0,0,0-.72,2.55,7.418,7.418,0,0,0,2.58,5.82,7.255,7.255,0,0,0,11.1-.78,17.078,17.078,0,0,0,3.66-8.1,66.883,66.883,0,0,0,.54-10.32q0-4.62-.15-7.14t-0.69-6.18q-0.54-3.36-.87-4.59a4.438,4.438,0,0,0-.81-1.77,2.582,2.582,0,0,0-1.86-.84,2.467,2.467,0,0,0-1.5.54h0Zm16.2,16.98a5.687,5.687,0,0,0-1.95.84,5.513,5.513,0,0,0-1.35,1.44,4.519,4.519,0,0,0-.66,2.28,4.37,4.37,0,0,0,.84,2.61,4.456,4.456,0,0,0,2.28,1.65,3.151,3.151,0,0,0,1.32.3,4.231,4.231,0,0,0,1.74-.48,5.483,5.483,0,0,0,2.64-1.89,4.75,4.75,0,0,0,.96-2.91,3.575,3.575,0,0,0-.06-0.78,3.636,3.636,0,0,0-1.65-2.28,5.442,5.442,0,0,0-3.09-.9,7.247,7.247,0,0,0-1.02.12h0Zm-35.7,1.08a3.628,3.628,0,0,0-1.02,2.58,3.569,3.569,0,0,0,1.11,2.61,3.931,3.931,0,0,0,2.91,1.11,3.052,3.052,0,0,0,3.06-2.04,3.864,3.864,0,0,0,.48-1.68,3.679,3.679,0,0,0-1.26-2.58,5.047,5.047,0,0,0-1.17-.84,3.569,3.569,0,0,0-1.47-.24,3.386,3.386,0,0,0-1.41.24,6.164,6.164,0,0,0-1.23.84h0Zm38.4,2.1a3.192,3.192,0,0,1,.3,1.02,1.973,1.973,0,0,1-.72,1.14,2.371,2.371,0,0,1-1.74.72,1.959,1.959,0,0,1-1.23-.39,1.194,1.194,0,0,1-.51-0.99,1.8,1.8,0,0,1,.87-1.47,2.993,2.993,0,0,1,1.77-.63,1.349,1.349,0,0,1,1.26.6h0Zm43.74-25.26q-0.3,0-2.64,2.88a32.5,32.5,0,0,1-3.06,3.78,7.3,7.3,0,0,1-2.4,1.68,3.668,3.668,0,0,0-1.47,1.08,2.165,2.165,0,0,0,.27,3.06,2.517,2.517,0,0,0,1.86.72,5.479,5.479,0,0,0,2.67-.84,12.794,12.794,0,0,0,2.97-2.46,6.61,6.61,0,0,1,1.14-1.11,1.252,1.252,0,0,1,2.1.24,1.879,1.879,0,0,1,.72,1.23,3.242,3.242,0,0,1-.99,1.8,6.58,6.58,0,0,1-1.95,1.62,19.367,19.367,0,0,1-2.88,1.02,4.179,4.179,0,0,0-1.44.51,1.327,1.327,0,0,0-.48.81,2.221,2.221,0,0,1-.6.75,2.448,2.448,0,0,1-1.14.27q-0.54.121-1.08,0.21a8.836,8.836,0,0,0-.96.21,0.582,0.582,0,0,1-.51-0.06,1.4,1.4,0,0,1-.09-0.66,5.938,5.938,0,0,0-.66-2.04,5.1,5.1,0,0,0-1.74-1.98,4.093,4.093,0,0,0-2.34-.84,1.908,1.908,0,0,1-1.56-.9,3.846,3.846,0,0,0-1.32-1.2,3.106,3.106,0,0,0-1.5-.48,2.4,2.4,0,0,0-1.35.87,2.379,2.379,0,0,0-.87,1.41,1.839,1.839,0,0,0,.24.72,4.313,4.313,0,0,0,.54.84,2.7,2.7,0,0,1,.48,1.08,0.242,0.242,0,0,1-.3.24,2.636,2.636,0,0,1-.96-0.42,4.738,4.738,0,0,0-1.68-.84,1.707,1.707,0,0,0-.9,0,3.156,3.156,0,0,0-.96.66,3.037,3.037,0,0,0-.9,1.44,2.809,2.809,0,0,0,.54,1.44,6.087,6.087,0,0,0,1.38,1.5,2.679,2.679,0,0,1,.69.57,1,1,0,0,1,.21.63l-0.06.42a4.4,4.4,0,0,0,.9,3.21,4.548,4.548,0,0,0,2.7,2.01,0.9,0.9,0,0,1,.72.42,4.762,4.762,0,0,1,.12,1.38,6.939,6.939,0,0,0,1.41,4.2,10.082,10.082,0,0,0,3.99,3.12,30.308,30.308,0,0,0,6.66,1.86,0.624,0.624,0,0,1,.54.54,2.383,2.383,0,0,1-.15.69,11.565,11.565,0,0,1-.6,1.35l-0.63,1.26a17.2,17.2,0,0,1-2.19,3.57,2.8,2.8,0,0,1-1.89,1.23q-1.02,0-1.74-1.62a3.5,3.5,0,0,0-.66-0.9,2.411,2.411,0,0,0-.72-0.54,1.133,1.133,0,0,0-.72-0.3,1.729,1.729,0,0,0-.84.36,2.684,2.684,0,0,0-1.26,2.46,5.024,5.024,0,0,0,.96,2.85,5.25,5.25,0,0,0,2.58,2.01,7.09,7.09,0,0,0,2.82.54,5.265,5.265,0,0,0,2.58-.54,7.576,7.576,0,0,0,2.28-1.86,23.06,23.06,0,0,0,2.4-3.12q0.66-1.2,1.68-3.54a26.992,26.992,0,0,0,1.32-3.48,0.828,0.828,0,0,1,.66-0.39,17.04,17.04,0,0,1,2.4-.27,43.462,43.462,0,0,0,4.74-.57,14.6,14.6,0,0,0,3.36-1.11,7.2,7.2,0,0,0,4.98-7.14,12.256,12.256,0,0,0-.06-2.31,7.811,7.811,0,0,0-.78-1.89,10.553,10.553,0,0,0-3.69-4.35,11.711,11.711,0,0,0-5.55-1.95l-1.74-.18,1.14-1.44a8.8,8.8,0,0,0,1.68-2.4,6.636,6.636,0,0,0,.42-2.52,5.226,5.226,0,0,0-3.12-5.1,8.884,8.884,0,0,0-.93-0.51,2.306,2.306,0,0,1-.57-0.33,1.756,1.756,0,0,1,.09-0.42q0.09-.3.21-0.66a3.983,3.983,0,0,0,.36-1.56,2.051,2.051,0,0,0-.54-1.47,1.891,1.891,0,0,0-1.44-.57,2.564,2.564,0,0,0-.9.12h0Zm-17.28,12.54a3.113,3.113,0,0,0,1.86,1.14,3.688,3.688,0,0,1,1.62.45,2.79,2.79,0,0,1,1.26,1.11,2.443,2.443,0,0,1,.33.78,3.818,3.818,0,0,1,.15,1.02,2.376,2.376,0,0,1-.3,1.17,5.951,5.951,0,0,1-1.38,1.05,9.68,9.68,0,0,0-2.58,2.34,3.418,3.418,0,0,1-2.52,1.56,1.782,1.782,0,0,1-.9-0.24,2.543,2.543,0,0,1-.96-1.08,8.013,8.013,0,0,1-.6-2.16,4.884,4.884,0,0,0-.39-1.56,6.583,6.583,0,0,0-1.05-1.38,4.09,4.09,0,0,1-.99-1.29q-0.15-.45.21-0.45a3.156,3.156,0,0,1,1.86,1.08,1.381,1.381,0,0,0,.96.48l0.24-.06a4.35,4.35,0,0,0,1.47-1.02,3.149,3.149,0,0,0,.99-1.14,3.594,3.594,0,0,0-.78-1.44,3.853,3.853,0,0,1-.6-1.32c0-.159.14-0.24,0.42-0.24a2.945,2.945,0,0,1,1.68,1.2h0Zm0.24,3.12a0.758,0.758,0,0,0,.03.63,0.485,0.485,0,0,0,.45.27,0.69,0.69,0,0,0,.48-0.24,0.88,0.88,0,0,0,.3-0.42l-0.18-.36a0.705,0.705,0,0,0-.6-0.36,0.581,0.581,0,0,0-.48.48h0Zm1.74,1.32a1.474,1.474,0,0,1-.9.54,1.056,1.056,0,0,0-.81.36,1.2,1.2,0,0,0-.33.84,0.855,0.855,0,0,1-.54.72,0.47,0.47,0,0,0-.42.54,0.657,0.657,0,0,0,.42.66,1.617,1.617,0,0,0,1.8-1.08,0.807,0.807,0,0,1,.27-0.42,1.1,1.1,0,0,1,.51-0.24,2.623,2.623,0,0,0,1.02-.96,1.855,1.855,0,0,0,.36-0.72,0.519,0.519,0,0,0-.18-0.36,1.445,1.445,0,0,0-.66-0.48,0.885,0.885,0,0,0-.54.6h0Zm-4.14.54a0.516,0.516,0,0,0-.3.54,0.727,0.727,0,0,0,.66.66,0.558,0.558,0,0,0,.66-0.6,0.879,0.879,0,0,0-.18-0.54,1.026,1.026,0,0,0-.48-0.18,0.926,0.926,0,0,0-.36.12h0Zm16.56,4.8a11.911,11.911,0,0,0-.42,2.58q-0.84,5.881-1.2,6.24a11.135,11.135,0,0,1-2.88-.45,21.858,21.858,0,0,1-3.6-.99,6.007,6.007,0,0,1-2.07-1.53,1.684,1.684,0,0,1-.63-1.59,6.124,6.124,0,0,1,1.98-2.7,6.815,6.815,0,0,1,3.3-1.56,15.386,15.386,0,0,0,2.04-.54l2.16-.06q1.44-.059,1.44.24Zm9.12,0a6.009,6.009,0,0,1,2.76,1.68,8.473,8.473,0,0,1,1.23,1.5,3.3,3.3,0,0,1,.21,1.38,6.4,6.4,0,0,1-.12,1.26,2.179,2.179,0,0,1-.3.84,5.106,5.106,0,0,1-2.37,1.44,14.455,14.455,0,0,1-4.05.72l-3,.12,0.3-1.92a31.167,31.167,0,0,0,.24-4.68v-2.7h1.86a13.384,13.384,0,0,1,3.24.36h0Zm-5.16,16.14a1.744,1.744,0,0,0-.72.81,6.634,6.634,0,0,0-.12,1.59,8.508,8.508,0,0,0,.72,3.24,12.064,12.064,0,0,0,1.68,2.94,22.926,22.926,0,0,0,2.97,2.28,14.888,14.888,0,0,0,3.09,1.68,12.317,12.317,0,0,0,4.38.84,10.893,10.893,0,0,0,3.78-.66,7.959,7.959,0,0,0,2.94-1.8,6.318,6.318,0,0,0,1.5-2.19,8.591,8.591,0,0,0,.42-2.97,6.22,6.22,0,0,0-1.35-4.02,3.871,3.871,0,0,0-3.03-1.68,2.988,2.988,0,0,0-2.16.96,2.3,2.3,0,0,0-.84,1.44,3.124,3.124,0,0,0,1.14,1.8,2.951,2.951,0,0,1,1.14,1.98,1.743,1.743,0,0,1-.99,1.5,4.734,4.734,0,0,1-2.49.6,8.58,8.58,0,0,1-3.96-1.02,9.79,9.79,0,0,1-2.88-2.19,7.063,7.063,0,0,1-1.56-2.79,5.847,5.847,0,0,0-.87-2.28,1.609,1.609,0,0,0-1.29-.78,2.448,2.448,0,0,0-1.5.72h0Zm7.5,1.02a2.618,2.618,0,0,0-.78,1.62,2.9,2.9,0,0,0,.36,1.26,2.574,2.574,0,0,0,.93.93,2.3,2.3,0,0,0,1.17.33,2.631,2.631,0,0,0,1.8-.69,2.321,2.321,0,0,0,.78-1.83,2.457,2.457,0,0,0-.66-1.77,2.158,2.158,0,0,0-1.62-.69,2.712,2.712,0,0,0-1.98.84h0Zm39.6-38.76q-0.72.54-2.16,4.74-3.84,10.381-7.74,10.38a3.34,3.34,0,0,1-.78-0.12,0.748,0.748,0,0,1-.72-0.66,1.166,1.166,0,0,1,.54-0.9,2.169,2.169,0,0,0,.96-1.14,3.32,3.32,0,0,0,.24-0.72,1.75,1.75,0,0,0-.36-0.9,2.044,2.044,0,0,0-1.8-1.02,3.372,3.372,0,0,0-1.83.6,6.042,6.042,0,0,0-1.65,1.62,4.018,4.018,0,0,0-.78,2.28q0,2.16,2.52,4.14a3.64,3.64,0,0,0,1.32.72,10.692,10.692,0,0,0,1.98.12l3-.12,0.84-.18,0.06,14.82,0.06,14.76,0.9,0.66a1.5,1.5,0,0,0,2.52-.18l0.84-.78v-17.04q0-6.84.03-11.01t0.18-5.25a4.175,4.175,0,0,1,.45-1.56,31.642,31.642,0,0,0,2.85-6,22.08,22.08,0,0,0,1.71-5.58,2.168,2.168,0,0,0-.69-1.41,1.883,1.883,0,0,0-1.29-.75,2.336,2.336,0,0,0-1.2.48h0Zm15.72,1.74a2.738,2.738,0,0,0-.9,1.02,4.956,4.956,0,0,0-.39,1.77q-0.09,1.17-.09,3.69v4.68h-5.58q-3.84,0-4.83.09a2.539,2.539,0,0,0-1.41.45,2.012,2.012,0,0,0-.66,1.56,2.034,2.034,0,0,0,.6,1.5,2.332,2.332,0,0,0,.84.54,7.1,7.1,0,0,0,1.86.24q1.38,0.06,3.6.06l5.58,0.18v16.2H317.2l0.06-1.02q0.12-.3.54-2.1l0.66-2.82a24.061,24.061,0,0,0,1.02-5.58q0-2.34-1.62-2.04-1.02.121-1.95,1.89a28.823,28.823,0,0,0-1.95,5.67,47.445,47.445,0,0,1-2.55,7.44q-1.05,2.1-2.19,2.1a1.881,1.881,0,0,0-.75.21,3.782,3.782,0,0,0-.81.51,1.982,1.982,0,0,0,0,3.24,3.017,3.017,0,0,0,1.92.66,4.484,4.484,0,0,0,2.19-.66,9.391,9.391,0,0,0,2.31-1.92l0.96-1.32,2.94,0.18,2.88,0.24v4.32q0,3,.09,3.78a3.367,3.367,0,0,0,.51,1.44,1.982,1.982,0,0,0,3.24,0,3.3,3.3,0,0,0,.6-1.5,34.536,34.536,0,0,0,.12-3.72v-4.32l3.36-.18,3.36-.12,1.26,1.26a11.631,11.631,0,0,0,5.28,2.76l0.6,0.06a4.651,4.651,0,0,0,3.12-1.26,6.065,6.065,0,0,0,1.92-3.12,4.142,4.142,0,0,0,.18-0.96,2.376,2.376,0,0,0-.48-1.26,2.845,2.845,0,0,0-.69-0.87,2.563,2.563,0,0,0-.81-0.51,1.942,1.942,0,0,0-1.53.54,2.43,2.43,0,0,0-.93,1.62l-0.42,1.2a1.342,1.342,0,0,1-1.35-.18,7.648,7.648,0,0,1-1.89-1.32,6.154,6.154,0,0,1-1.29-1.98q-0.51-1.2-1.77-5.1A34.551,34.551,0,0,0,331,97.7q-0.9-1.53-1.98-1.41a0.983,0.983,0,0,0-.72.3,3.335,3.335,0,0,0-.6.96,2.778,2.778,0,0,0-.24,1.14,7,7,0,0,0,.27,1.59q0.27,1.051.75,2.67l0.54,1.86q0.12,0.481.45,1.65a7.48,7.48,0,0,1,.33,1.53,0.583,0.583,0,0,1-.21.51,1.531,1.531,0,0,1-.87.12c-0.44-.019-0.78-0.03-1.02-0.03h-2.28V92.325h4.32q4.5,0,5.46-.6a1.966,1.966,0,0,0,1.26-1.74,2.106,2.106,0,0,0-.84-1.62,2.707,2.707,0,0,0-1.41-.51q-0.87-.09-4.17-0.09h-4.62v-5.04q0-3.42-.12-4.32a2.325,2.325,0,0,0-.6-1.38,1.874,1.874,0,0,0-1.5-.72,1.8,1.8,0,0,0-.96.3h0Z"/>
</svg>
