<svg xmlns="http://www.w3.org/2000/svg" width="1540" height="1450" viewBox="0 0 1540 1450">
  <defs>
    <style>
      .cls-1 {
        fill: #fdfdfd;
      }

      .cls-1, .cls-2, .cls-3 {
        fill-rule: evenodd;
      }

      .cls-2 {
        fill: #fefefe;
      }

      .cls-3 {
        fill: #fff;
      }
    </style>
  </defs>
  <path id="字体名称" class="cls-1" d="M625.352,144.9q0,26.861-2.076,40.65t-5.493,18.433q-3.422,4.639-10.01,4.638-14.162,0-29.785-1.221l-0.488,2.686q15.867,1.224,30.273,1.221,11.228,0,15.625-14.4t4.395-54.443H524.033V144.9h41.26q-0.492,26.369-12.939,45.533T521.1,217.162l0.976,2.442q19.776-7.812,32.471-27.833T567.734,144.9h57.618Zm-92.53,88.868H619v69.824H532.822V233.764Zm88.867,72.509V231.322H530.381v74.951h91.308ZM414.414,343.139Q425.4,316.285,432.48,278.2q13.671,37.113,37.354,49.439t75.439,12.329h83.741v-2.442H545.273q-48.831,0-72.509-11.474V262.572h43.945v-2.685H472.764V207.4H517.93v-2.441H472.764V154.906h42.48v-2.441h-42.48V124.877h-2.442v27.588H421.494v2.441h48.828v50.049h-56.4V207.4h56.4V324.584q-25.147-15.135-36.621-53.467,2.438-15.867,4.151-35.888l-2.686-.489Q431.013,297,411.973,342.162Zm435.059-79.1A150.694,150.694,0,0,1,813.1,305.785l1.465,1.953q21.24-16.113,36.621-41.5,15.381,25.149,32.47,41.26l1.709-1.709A195.5,195.5,0,0,1,852.4,264.037q17.332-31.494,24.17-76.66v-3.662H816.514v2.441h57.861q-6.838,44.191-23.193,74.951a242.576,242.576,0,0,1-24.414-60.058l-2.442.488a250.125,250.125,0,0,0,25.147,62.5h0Zm-126.709,21V194.945h47.607v90.088H722.764Zm161.377,52.49v-2.685H711.533v2.685H884.141Zm-191.407-162.6V130h-2.441v44.922H657.822v2.685h31.25a453.763,453.763,0,0,1-35.644,106.934l2.441,1.221q21.728-45.9,34.424-100.83v162.6h2.441V182.494l27.588,76.416v28.565h52.49V192.5H760.605q1.219-8.056,1.954-12.451h41.5q-1.71,51.269-2.685,72.754-2.443,49.8-7.08,57.129-1.958,3.662-9.033,3.662-9.036,0-28.565-1.221l-0.488,2.685q19.529,1.226,29.053,1.221,5.127,0,7.324-.976,5.613-1.952,7.812-17.334,2.683-17.579,6.1-120.606H763.047q3.169-19.774,4.639-34.912H881.7v-2.441H713.975v2.441h51.269q-3.662,29.056-7.324,50.049h-37.6V251.1l-26.855-73.487h26.855v-2.685H692.734ZM1125.35,329.955v15.137h2.44V140.014H1020.37V345.092h2.44V329.955h102.54Zm-102.54-100.1v-87.4h50.05v87.4h-50.05Zm50.05,97.657h-50.05V232.543h50.05v94.971Zm2.44-185.059h50.05v87.4H1075.3v-87.4Zm50.05,90.088v94.971H1075.3V232.543h50.05Zm-123.53,5.127-71.293,3.662q38.326-44.431,65.43-88.379l-2.441-1.221a719.521,719.521,0,0,1-43.7,62.745q-3.175-4.881-19.043-32.227,20.016-27.833,33.936-51.758l-2.441-1.221q-17.578,29.544-32.715,50.782-2.69-4.4-4.517-7.447t-4.15-6.591q-2.323-3.537-2.808-4.273l-1.709,1.221q12.692,20.508,31.494,53.711-15.627,19.042-21,25.146l-15.381.733,0.245,2.441,47.363-2.441v104.98h2.441V242.309l40.767-1.954q0.975,4.155,3.91,16.114l2.69-.489a357.93,357.93,0,0,0-18.314-58.1l-2.2.977a342.931,342.931,0,0,1,13.431,38.818h0Zm-84.965,93.994q12.938-35.4,15.87-69.092l-2.442-.244a263.825,263.825,0,0,1-15.625,68.6ZM996.2,324.1l2.93-.489q-3.421-31.98-9.766-62.744l-2.685.489A551.211,551.211,0,0,1,996.2,324.1h0Z"/>
  <path id="中文示例" class="cls-2" d="M347.535,729.473v24.414H312.867a117.91,117.91,0,0,0,.684-12.989V729.473h33.984Zm-33.984-23.535h33.984V728.4H313.551v-22.46ZM299,733.965v26.953H271.559V733.965H299Zm-27.441-25.977H299v24.9H271.559v-24.9Zm28.515,54V706.914H270.582v62.012h0.977v-6.934h28.515ZM346.8,784.355q-0.733,1.074-4.737,1.075-3.126,0-12.4-.489l-0.195.977q9.471,0.488,12.6.488,4.491,0,5.469-1.318t0.977-7.178V704.961H312.574V740.9q0,16.407-3.662,27.051a48.024,48.024,0,0,1-11.865,18.75l0.683,0.781q12.5-12.3,15.137-32.519h34.668V777.91Q347.535,783.28,346.8,784.355Zm94.189-55.371V753.4h-59.57a96.072,96.072,0,0,0,.683-12.5V728.984h58.887Zm-58.887-23.535h58.887V727.91H382.105V705.449Zm57.813,78.858q-1.075,1.12-6.348,1.123-1.758,0-14.55-.489v0.977q9.569,0.488,14.55.488,5.663,0,7.08-1.416t1.416-7.08V704.473H381.031V740.9q0,16.407-3.662,27.051A48.024,48.024,0,0,1,365.5,786.7l0.781,0.781a52.386,52.386,0,0,0,10.059-14.209,61.037,61.037,0,0,0,5.078-18.8h59.57V777.91Q440.992,783.184,439.918,784.307Zm37.109-74.854v29h32.032v41.992H473.023V748.418h-0.976v40.039h0.976v-7.031H546.07v7.031h0.977V748.418H546.07v32.031H510.035V738.457h32.031v-29h-1.074v27.93H510.035V700.469h-0.976v36.914H478.1v-27.93h-1.075ZM608.961,737.48q-1.758,15.432-12.988,27.832t-29.1,19.043l0.293,0.879A73.515,73.515,0,0,0,594.9,767.852a54.842,54.842,0,0,0,14.649-26.563A54.547,54.547,0,0,0,624.2,767.8a74.832,74.832,0,0,0,27.735,17.431l0.293-.879q-17.871-6.639-29.151-18.994T610.133,737.48h36.914v-1.074H610.133q0-.879-0.049-1.709c-0.034-.552-0.049-0.96-0.049-1.22V707.988h41.016v-1.074H568.043v1.074h41.016v25.489c0,0.26-.017.668-0.049,1.22s-0.049,1.123-.049,1.709H572.047v1.074h36.914ZM747.535,778.4h-37.5V701.445h-0.976V778.4h-37.5v-54h-0.977V787.48h0.977v-8.007h75.976v8.007h0.977V724.4h-0.977v54Zm116.6-30.957v10.938H805.25a70.05,70.05,0,0,0,.879-10.938h58.008Zm-58.008-11.523h58.008v10.547H806.129V735.918Zm1.562,32.031h59.961v15.43H807.691v-15.43Zm46-60.058v-8.008h-1.075v8.008H817.652v-8.008h-1.074v8.008H792.652v1.074h23.926v9.473h1.074v-9.473h34.961v9.473h1.075v-9.473h23.925v-1.074H853.688Zm-19.825,6.054A251.255,251.255,0,0,1,790.9,736.309l0.39,0.879a246.641,246.641,0,0,0,43.848-22.95,242.558,242.558,0,0,0,43.847,23.047l0.391-.976A251.154,251.154,0,0,1,836.4,713.945h-2.539Zm16.8,13.477v-0.977H819.605v0.977H850.66Zm-45.508,32.031h59.961V734.941H805.152v12.012q0,25.782-15.039,38.77L790.9,786.6A41.732,41.732,0,0,0,803.1,767.266a66.138,66.138,0,0,0,2.05-7.813h0Zm1.465,29h1.074v-4h59.961v4h0.977V766.973H806.617v21.484ZM953.688,699.4h-1.075v8.984H917.652V699.4h-1.074v8.984H892.652v1.074h23.926v9.961h1.074v-9.961h34.961v7.031h1.075v-7.031h23.925v-1.074H953.688V699.4ZM915.9,733.672l0.585-.977q-7.909-4.784-18.75-9.961l-0.292.879A207.683,207.683,0,0,1,915.9,733.672h0ZM891.773,740.7l-0.39.977q10.254,5.177,20.019,10.937l0.586-.879q-9.375-5.76-20.215-11.035h0Zm4.59,47.363a94.051,94.051,0,0,0,19.922-22.461l-0.781-.488a90.712,90.712,0,0,1-19.824,22.071Zm43.213-2.88a64,64,0,0,1-6.543-.684,5.765,5.765,0,0,1-3.711-1.856,6.954,6.954,0,0,1-1.416-2.685,19.61,19.61,0,0,1-.293-4V732.4h48.535v-0.976H950.66V720.391h-1.074v11.035H926.637v44.531a16.828,16.828,0,0,0,.488,4.639,7.062,7.062,0,0,0,1.709,2.881,7.726,7.726,0,0,0,4.053,1.855,48.557,48.557,0,0,0,6.689.83q3.857,0.243,10.6.244a250.918,250.918,0,0,0,26.074-1.367l-0.1-.977a249.973,249.973,0,0,1-25.976,1.368Q943.53,785.43,939.576,785.186Zm130.614-35.694v-1.074h-70.12v1.074h70.12Zm-2.83,31.446q-26.955,2.147-56.06,3.124a147.67,147.67,0,0,0,17-21.582h48.82v-1.074H993.141v1.074h33.979a151.631,151.631,0,0,1-17.38,21.68q-4.785.1-13.084,0.293v0.977q35.256-.587,71.584-3.516c1.69,1.888,3.42,3.873,5.17,5.957l0.88-.586a216.184,216.184,0,0,0-19.43-20.41l-0.78.781q6.24,5.666,13.28,13.282h0Zm-31.74-75.489h36.52v-0.976H998.121v0.976h36.519v9.961H995.094v20.02h1.074V716.484h38.472v25.977h0.98V716.484h38.48V735.43h1.07V715.41h-39.55v-9.961Zm-8.98,21v-0.976h-22.56v0.976h22.56Zm0,11.035v-1.074h-22.56v1.074h22.56Zm39.55-11.035v-0.976h-22.56v0.976h22.56Zm0,11.035v-1.074h-22.56v1.074h22.56Zm83.88-14.55h24.42q-0.885,11.817-2.25,25.488h-24.8q1.755-15.234,2.63-25.488h0Zm-28.41,25.488q1.755-11.913,2.93-25.488H1149q-0.78,10.352-2.54,25.488h-24.8Zm-4.4,27.051q2.445-12.792,4.3-25.977h24.8q-1.65,13.088-3.71,25.977h-25.39Zm30.18-25.977h24.7q-1.365,11.916-3.32,25.977h-25.09q2.04-12.695,3.71-25.977h0Zm-38.48-32.031,0.68-.684a177.007,177.007,0,0,0-15.33-13.476l-0.58.879q8.685,7.03,15.23,13.281h0Zm-3.51,22.949,0.68-.683a170.726,170.726,0,0,0-16.8-14.454l-0.58.879a194.476,194.476,0,0,1,16.7,14.258h0Zm-12.11,45.9a112.12,112.12,0,0,0,16.6-29.688l-0.88-.391a117.541,117.541,0,0,1-16.51,29.493Zm27.14-36.817q-2.34,16.8-5.76,32.813l0.98,0.293c0.06-.261.26-1.091,0.59-2.491s0.58-2.62.78-3.662h51.75l-0.68,4.493c-0.33,2.6-.91,4.248-1.76,4.931s-2.6,1.026-5.27,1.026q-3.12,0-10.35-.489l-0.2,1.074q7.23,0.487,10.55.489,4.29,0,5.81-1.367t2.2-5.664c0.06-.455.16-1.139,0.29-2.051s0.26-1.725.39-2.442h7.32v-0.976h-7.22q1.755-11.621,3.12-25.977h7.13v-1.074h-7.03q1.365-10.937,2.64-26.465h-52.05q-1.17,12.795-3.13,26.465h-8.98v1.074h8.88Zm-8.69-14.648a96.407,96.407,0,0,0,13.19-24.414h53.12v-0.977h-52.83q2.25-6.151,3.32-9.961l-1.17-.293a104.2,104.2,0,0,1-16.41,35.059Zm104.89,25.586h36.91v15.527h-36.91V760.43Zm37.98,16.5V744.9H1215.6v38.086h1.08v-6.054h37.98Zm-58.98-71.485h32.91v13.965h-32.91V705.449Zm0,15.039h32.91v15.43h-32.91v-15.43Zm33.98,16.5V704.473h-35.05v82.519h1.07v-50h33.98Zm44.93,40.43q0,5.177-1.13,6.348t-6.3,1.171q-2.34,0-14.55-.488v0.977q12.21,0.488,14.55.488c3.72,0,6.06-.473,7.04-1.416s1.46-3.3,1.46-7.08V704.473h-36.04v32.519h34.97v40.43Zm0-41.5H1240.6v-15.43h33.99v15.43Zm-33.99-16.5V705.449h33.99v13.965H1240.6Zm12.99,40.039h-36.91V745.977h36.91v13.476ZM282.105,921.465V907.988h57.911v-1.074H282.105V893.926h57.911v-0.977H282.105v-12.5h60.938v-0.976H281.031v41.992H265.992v0.976h15.039V959.16q-8.985,1.268-13.086,1.66l0.1,1.075a475.449,475.449,0,0,0,49.121-8.3l-0.195-1.074q-17.871,4.1-34.864,6.64V922.441h11.133q20.311,23.829,59.668,39.844l0.391-.976a214.513,214.513,0,0,1-29.492-14.747,94.467,94.467,0,0,0,19.336-18.457l-0.782-.585a90.5,90.5,0,0,1-19.531,18.359A132.482,132.482,0,0,1,294.7,922.441h58.4v-0.976h-71Zm104.981,7.422V905.938h21v22.949h-21Zm21.973,0V905.938h21v22.949h-21Zm26.269,23.144q-11.329,1.662-26.269,3.223V929.961h21.972v-25H409.059V889.629q15.234-1.074,25.586-2.051l-0.1-1.172q-27.051,2.833-52.051,3.516V891q11.62-.389,25.586-1.269v15.234h-22.07v29.98h1.074v-4.98h21v25.391Q389.428,957.011,378,957.4v1.075a574.083,574.083,0,0,0,57.91-5.469q2.538,3.906,4.883,7.715l0.976-.489q-5.763-9.568-15.039-23.242l-0.781.684q4.2,6.25,9.375,14.355h0ZM374,879.473V911.9q0,34.569-10.059,49.8l0.782,0.684q10.35-15.721,10.351-50.488V880.449h66.992q0,82.032,8.5,82.031,4.1-.1,5.469-22.07l-0.976-.1a113.2,113.2,0,0,1-1.66,13.965q-1.077,5.37-1.661,6.153a2.85,2.85,0,0,1-1.074.976q-0.879,0-1.855-2.051-5.763-13.085-5.762-79.882H374ZM502.906,915.02l-27.539,1.757a264.955,264.955,0,0,0,25.781-31.64l-0.781-.586A235.966,235.966,0,0,1,485.816,903.5q-5.763-5.467-11.523-10.644a187.163,187.163,0,0,0,12.891-15.723l-0.879-.586q-5.958,8.008-12.891,15.723-3.126-2.931-4.2-3.809l-0.684.684q9.669,8.693,16.7,15.234-5.565,6.446-11.523,12.7l-6.25.391,0.1,0.977L503.3,916q0.78,1.662,1.709,4.1t0.928,2.539l0.878-.293q-4.2-11.621-9.082-22.168l-0.878.39q2.93,6.544,6.054,14.454h0Zm37.207,11.914H516.188a88.94,88.94,0,0,1-2.637-10.059L549,914.531a60.144,60.144,0,0,1,2.441,6.153l0.879-.293q-4.3-11.62-8.593-21.192l-0.879.391q1.758,4,5.761,13.965l-26.269,1.757a251.2,251.2,0,0,0,24.8-30.664l-0.782-.586q-6.642,9.669-14.062,18.458-3.42-3.319-11.035-10.157a196.33,196.33,0,0,0,12.4-15.234l-0.781-.586A166.316,166.316,0,0,1,520.68,891.68a27.7,27.7,0,0,1-2.588-2.246q-1.417-1.366-1.807-1.661l-0.781.977q7.91,6.738,16.211,14.551-6.153,7.324-10.84,12.109l-7.617.488a192.493,192.493,0,0,1-3.711-39.453H508.57q-0.1,29.1,6.641,50.489H467.066v0.976H481.91a55.965,55.965,0,0,1-4.687,19.385q-4.007,8.935-9.668,13.916l0.781,0.879q9.375-8.108,13.379-25,9.471,10.546,19.14,14.551l0.391-.782q-10.547-4.589-19.141-15.136,0.487-2.637.879-7.813H515.5a74.087,74.087,0,0,0,9.961,20.215,97.446,97.446,0,0,1-27.637,12.6l0.293,1.172a108.439,108.439,0,0,0,27.93-12.989q5.175,6.936,10.449,10.01t9.082,3.076q5.955-.1,8.4-17.09l-1.074-.1q-2.343,16.113-7.324,16.113-3.614,0-8.691-2.979a37.3,37.3,0,0,1-10.157-9.521,75.907,75.907,0,0,0,15.918-14.746l-0.781-.684a82.846,82.846,0,0,1-15.723,14.649,71.452,71.452,0,0,1-9.668-19.727h35.547v-0.976H541.773q-4.492-3.612-10.058-7.618l-0.586.782q1.561,1.076,8.984,6.836h0Zm68.946-17.969v12.5H577.516v-12.5h31.543Zm-31.543-13.477h31.543v12.4H577.516v-12.4Zm64.062,25.977H610.035v-12.5h31.543v12.5Zm-31.543-13.574v-12.4h31.543v12.4H610.035ZM634.84,945.1q3.222,3.613,6.543,7.714l0.781-.585Q636.4,945.1,628.2,935.918l-0.683.684q1.367,1.563,6.64,7.421-12.891,2.149-24.121,3.516V931.914h37.988v21q0,5.37-1.025,6.445t-5.42,1.075q-2.343,0-12.4-.489l-0.2.977q9.765,0.488,12.6.488,4.98,0,6.25-1.416t1.27-7.08V930.938H610.035v-8.5h32.52V894.414H576.539v28.027h32.52v8.5H570v31.054h1.074V931.914h37.989v15.723q-16.8,1.662-30.567,2.246v1.074A461.5,461.5,0,0,0,634.84,945.1h0ZM628.1,882.891v-8.008h-1.075v8.008H592.066v-8.008h-1.074v8.008H567.066v1.074h23.926V891h1.074v-7.031h34.961V891H628.1v-7.031h23.925v-1.074H628.1Zm81.933,19.043h32.031v11.035H710.035V901.934Zm-0.976,0v11.035H677.027V901.934h32.032Zm0-.977H677.027V890.41h32.032v10.547Zm33.007-10.547v10.547H710.035V890.41h32.031ZM710.035,874.4h-0.976V882.4H665.992v1.075H753.1V882.4H710.035V874.4Zm-33.984,39.55h33.008v8.008H672.047v0.977h37.012V932.4H667.066v1.075h39.746q-16.5,9.473-41.894,15.332l0.2,1.074a222.4,222.4,0,0,0,24.414-7.227v16.9q-7.323,1.072-18.554,2.246l0.1,1.074a483.552,483.552,0,0,0,49.121-7.812l-0.2-1.075q-16.405,3.612-29.394,5.469v-17.09a107.255,107.255,0,0,0,18.164-8.886h1.464q5.86,10.059,17.383,17.773a86.642,86.642,0,0,0,26.367,11.621l0.293-1.074a87.99,87.99,0,0,1-28.125-12.891,110.214,110.214,0,0,0,20.313-11.718l-0.586-.879a116.021,116.021,0,0,1-20.7,12.011,53.4,53.4,0,0,1-13.77-14.843h40.625V932.4H710.035V922.93h37.012v-0.977H710.035v-8.008h33.008V889.434H676.051v24.511Zm119.14-30.468h23.438v64.941H795.191V883.477Zm24.414,66.015V882.4H794.117v74.024h1.074v-6.934h24.414Zm3.711-34.765a105.679,105.679,0,0,0,12.4-26.758h41.5a79.4,79.4,0,0,1-13.672,25.293l0.781,0.586a72.487,72.487,0,0,0,13.77-25.489V886.9h-42.09a100.013,100.013,0,0,0,3.027-11.329l-0.977-.2q-4.884,22.658-15.527,38.867Zm24.317-2.247q0,14.357-9.326,28.418t-21.436,18.946l0.391,0.879q10.35-4.1,18.994-15.235a63.763,63.763,0,0,0,11.865-25.39,63.79,63.79,0,0,0,11.865,25.39q8.643,11.133,18.994,15.235l0.391-.879q-12.109-4.884-21.435-18.946t-9.327-28.418v-16.6h-0.976v16.6Zm73.535-28.515h35.937v12.988H921.168V883.965Zm35.937,13.965V915.9H921.168V897.93h35.937Zm-37.011,0v19.043H958.18V897.93h18.457v-0.977H958.18V883.965h18.457v-1.074H937.672v-9.473H936.6v9.473H898.121V910.43q0,30.176-8.691,50.293l0.781,0.39q8.885-20.508,8.887-50.683v-12.5h21Zm-21-13.965h21v12.988h-21V883.965Zm39.941,64.648a139.757,139.757,0,0,1-36.523,11.719l0.2,0.977a139.294,139.294,0,0,0,37.4-12.11q15.037,7.716,36.914,12.11l0.2-.977q-20.9-4.1-35.938-11.719,18.359-9.668,26.856-22.363v-1.367H907.105v1.074h60.059q-9.375,13.087-27.051,22.168a63.9,63.9,0,0,1-21.777-18.066l-0.781.586q7.812,10.547,21.484,17.968h0Zm96.091-31.64h32.52V915.9h-32.52V882.4h39.55v-0.976h-79.1V882.4h38.578v33.5h-31.55v1.075h31.55V957.4H993.629v1.075h83.011V957.4h-41.51V916.973Zm31.84,27.929,0.78-.683q-7.9-9.471-15.43-17.285l-0.68.683q7.6,7.911,15.33,17.285h0Zm107.13,7.52q0,5.177-1.13,6.348-1.11,1.172-6.29,1.171-2.355,0-14.56-.488v0.977q12.21,0.488,14.56.488,5.655,0,7.08-1.416t1.41-7.08V879.473h-35.55V916h34.48v36.426Zm0-37.5h-33.5V897.441h33.5v17.481Zm-33.5-18.457V880.449h33.5v16.016h-33.5Zm-44.43-16.016h32.42v16.016h-32.42V880.449ZM1129.66,916V879.473h-34.57v82.519h1.08V916h33.49Zm-33.49-1.074V897.441h32.42v17.481h-32.42Zm100.39,47.558V905.449h31.83V878.3h-33V962.48h1.17Zm0-69.824h30.76v11.621h-30.76V892.656Zm0-13.281h30.76v12.109h-30.76V879.375Zm76.95,82.422c1.37-.391,2.05-1.694,2.05-3.906V878.3h-33.98v27.148h32.81v52.539c0,1.888-.85,2.864-2.54,2.93-0.85.064-2.18,0.1-4,.1q-2.55,0-5.76-.1a8.2,8.2,0,0,1,.48,1.367q9.18,0,10.94-.488h0Zm-30.86-69.141h31.74v11.621h-31.74V892.656Zm0-13.281h31.74v12.109h-31.74V879.375Zm-15.53,75.2a18.091,18.091,0,0,0,2.64-10.156v-7.422h-1.17v7.422a22.249,22.249,0,0,1-.2,3.418l-0.19.684h-14.45V938.457h-1.08V949.59h15.43l-0.39,1.269q-2.25,6.445-11.33,9.571a4.591,4.591,0,0,1,.69.976q7.515-2.833,10.05-6.836h0Zm14.07,5.957V949.59h16.21V938.457h-1.08v10.059h-15.13V936.992h-1.17v23.535h1.17Zm21.48-26.172q-1.665-4.588-6.83-10.156l-0.79.293q0.975,1.075,3.42,4.492l0.98,1.465-20.31.977,2.05-1.856a123.969,123.969,0,0,0,14.35-14.355l-0.88-.488q-4.1,5.077-7.91,8.984l-0.87.781-0.59-.879a40.515,40.515,0,0,0-4.79-4.98l-0.68-.684,0.59-.586a91.515,91.515,0,0,0,7.91-9.57l-0.69-.391a87.434,87.434,0,0,1-7.42,9.473l-0.59.586-0.68-.391c-0.19-.2-1.24-1.008-3.12-2.441l-0.49.391a38.679,38.679,0,0,1,9.28,9.668l0.39,0.585-0.39.586q-4.2,3.908-5.96,5.371l-0.2.2-3.12.195,0.29,1.074q3.315-.193,11.33-0.683,8.4-.487,12.5-0.684h0.59l0.19,0.488a14.409,14.409,0,0,1,1.66,2.93Zm-29.88-.293q-1.365-4.1-5.86-9.277l-0.68.2q0.675,1.077,2.93,4.395l1.07,1.465h-1.76q-2.145.1-5.86,0.244c-2.47.1-4.2,0.146-5.17,0.146h-2.44l1.85-1.66a127.562,127.562,0,0,0,13.38-14.746l-0.88-.488a106.657,106.657,0,0,1-7.71,9.277l-0.69.879-0.68-.879a40.381,40.381,0,0,0-4.98-5.273l-0.88-.586,0.68-.684q4.4-4.784,7.52-8.886l-0.78-.391a106.426,106.426,0,0,1-7.03,8.789l-0.68.684-0.59-.586c-0.46-.325-1.4-1.041-2.83-2.149l-0.49.293a41.353,41.353,0,0,1,9.57,9.864l0.49,0.683-0.68.488q-1.575,1.758-4.99,5.371l-0.29.2-6.35.195,0.2,1.172c1.95-.13,5.31-0.325,10.06-0.586q7.62-.389,11.72-0.586h0.58l0.3,0.488a8.335,8.335,0,0,1,1.07,2.442Z"/>
  <path id="大写字母" class="cls-1" d="M141.438,518.711h-24.61l12.024-32.625h0.562Zm6.89,18.7h0.844l-19.195-51.891h-1.758l-19.125,51.891h0.773l6.68-18h25.172Zm46.083-40.359q0-11.531-19.125-11.532h-9v51.891h9.773q21.234,0,21.235-15.117,0-10.9-13.641-13.149v-0.7q10.758-2.6,10.758-11.39h0ZM167.059,486.3h8.227a43.554,43.554,0,0,1,8.121.668,18.574,18.574,0,0,1,5.379,1.723,9.972,9.972,0,0,1,3.094,2.6,7.409,7.409,0,0,1,1.476,2.848,13.893,13.893,0,0,1,.281,2.918,9.572,9.572,0,0,1-4.6,8.578q-4.607,2.954-12.973,2.953h-9V486.3Zm9,23.062q20.461,0,20.461,12.938,0,7.383-5.027,10.9t-15.434,3.516h-9V509.359h9Zm41.724,21.059q-5.205-7-5.2-18.949,0-12.093,4.957-18.985a16.058,16.058,0,0,1,13.816-6.89,31.22,31.22,0,0,1,12.516,2.461v-0.844a32.37,32.37,0,0,0-12.516-2.391,16.934,16.934,0,0,0-14.238,7.032q-5.31,7.031-5.309,19.617t5.555,19.617a17.73,17.73,0,0,0,14.625,7.031,31.619,31.619,0,0,0,12.234-2.39v-0.774a30.5,30.5,0,0,1-12.234,2.461A16.746,16.746,0,0,1,217.783,530.418ZM273.147,486.3q26.3,0,26.3,24.469,0,12.655-6.715,19.3t-19.582,6.645h-7.524V486.3h7.524Zm20.18,5.66q-6.822-6.433-20.18-6.434h-8.3v51.891h8.3q13.079,0,20.039-6.891t6.961-19.757Q300.147,498.391,293.327,491.957Zm51.215,17.4v-0.773H318.667V486.3h27.352v-0.774H317.894v51.891h28.125v-0.7H318.667V509.359h25.875Zm49.177-23.836H366.3v51.891h0.773V510.062h25.172v-0.773H367.07V486.3h26.649v-0.774Zm52.622,2.11v-0.7a37.526,37.526,0,0,0-12.586-2.11q-10.548,0-16.981,7.207t-6.433,19.442q0,12.445,6.293,19.547t16.418,7.1a38.9,38.9,0,0,0,15.468-2.953V508.586H427.638v0.773h20.179V534.6a39.393,39.393,0,0,1-14.765,2.812q-10.056,0-16-7.066t-5.941-18.879q0-11.812,6.188-18.844t16.453-7.031a37.128,37.128,0,0,1,12.586,2.039h0Zm54.52,20.953H469.923V485.523H469.15v51.891h0.773V509.359h30.938v28.055h0.7V485.523h-0.7v23.063ZM526.2,537.414V485.523h-0.774v51.891H526.2Zm46.575-16.945q0,8.719-3.411,12.832t-10.652,4.113a32.116,32.116,0,0,1-11.883-2.109v0.843a34.908,34.908,0,0,0,11.883,1.969q7.452,0,11.109-4.254t3.657-13.394V485.523h-0.7v34.946Zm50.371,16.945H624.2l-28.758-27L623.5,485.523h-1.125l-27.211,24.258h-0.633V485.523h-0.773v51.891h0.773V511.047h0.633Zm19.013-51.891v51.891h28.828v-0.7H642.934V485.523h-0.773Zm91.223,51.891h0.7l-6.68-51.891h-1.9L711.1,536.711h-0.7l-14.414-51.188H694.15l-6.75,51.891h0.773l6.61-51.047h0.7L709.9,537.414h1.758L726,486.367h0.7Zm51.989-.844-31.359-51.047h-1.758v51.891h0.774V486.367h0.7l31.359,51.047h1.758V485.523h-0.773V536.57h-0.7Zm40.493,1.547q10.159,0,15.715-6.926t5.555-19.687q0-12.762-5.555-19.723t-15.715-6.961q-10.161,0-15.714,6.961T804.6,511.5q0,12.762,5.625,19.723Q815.706,538.118,825.866,538.117Zm-20.5-26.648q0-12.515,5.274-19.2t15.222-6.679q9.95,0,15.223,6.679t5.273,19.2q0,12.516-5.273,19.23t-15.223,6.715q-9.95,0-15.293-6.75Q805.37,523.985,805.37,511.469Zm82.259-23.485q4.464,1.688,5.976,4.4a13.934,13.934,0,0,1,1.512,6.855q0,7.454-4.605,10.934t-14.45,3.48H865.656V486.3h9.7Q883.164,486.3,887.629,487.984Zm-11.567,26.368q10.125,0,14.977-3.657t4.852-11.461q0-7.24-4.746-10.476t-15.786-3.235H864.883v51.891h0.773V514.352h10.406Zm70.974-22.571q-5.556-6.96-15.715-6.961t-15.715,6.961q-5.554,6.962-5.554,19.723t5.554,19.687q5.554,6.927,15.68,6.926,18.069,0,25.734,10.125h0.914q-5.906-8.437-20.039-10.336v-0.7a18.226,18.226,0,0,0,10.969-8.719q3.726-6.538,3.727-17.015Q952.591,498.743,947.036,491.781Zm-36.211,19.688q0-12.515,5.273-19.2t15.223-6.679q9.948,0,15.223,6.679t5.273,19.2q0,12.516-5.273,19.23t-15.223,6.715q-9.95,0-15.293-6.75Q910.825,523.985,910.825,511.469Zm89.149-4.817q3.129-3.409,3.126-9.6a9.406,9.406,0,0,0-1.33-5.133,10.139,10.139,0,0,0-3.308-3.305,17.185,17.185,0,0,0-4.886-1.9,40.156,40.156,0,0,0-5.414-.949q-2.5-.246-5.59-0.247H972.8v51.891h0.774V511.82h9a35.853,35.853,0,0,1,4.535.211,19.074,19.074,0,0,1,2.988.668,4.771,4.771,0,0,1,2.5,1.9,31.512,31.512,0,0,1,1.969,3.2q0.95,1.758,2.567,5.273l6.323,14.344h0.85l-6.541-14.625a49.275,49.275,0,0,0-3.9-7.734,8.715,8.715,0,0,0-3.9-3.164v-0.633Q996.844,510.063,999.974,506.652Zm-26.4-20.355h9q10.335,0,15.047,2.707a8.735,8.735,0,0,1,4.711,8.051q0,7.383-4.676,10.722t-15.082,3.34h-9V486.3Zm50.8,1.3q-3.525,2.778-3.52,8.05,0,10.056,13.57,14.414,7.245,2.392,10.51,5.836a12.443,12.443,0,0,1,3.27,8.93q0,6.117-3.51,9.352-3.525,3.234-10.2,3.234a21.717,21.717,0,0,1-13.29-4.008v0.914a23.179,23.179,0,0,0,13.29,3.8q7.035,0,10.72-3.41t3.69-9.879a13.47,13.47,0,0,0-3.37-9.457q-3.375-3.692-10.97-6.082-13-4.147-13.01-13.641,0-10.053,12.94-10.054a28.35,28.35,0,0,1,13.36,3.164v-0.844a29.485,29.485,0,0,0-13.36-3.094Q1027.875,484.82,1024.37,487.6Zm42-2.075V486.3h17.23v51.117h0.77V486.3h17.3v-0.774h-35.3Zm58.18,48.094q4.425,4.5,12.48,4.5t12.48-4.5q4.425-4.5,4.43-13.148V485.523h-0.71v34.946q0,8.3-4.14,12.621t-12.06,4.324q-7.92,0-12.06-4.324t-4.15-12.621V485.523h-0.7v34.946Q1120.12,529.117,1124.55,533.617Zm46.71-48.094h-0.84l19.12,51.891h1.76l19.2-51.891h-0.92l-18.84,51.4h-0.56Zm94.39,51.891h1.76l12.02-51.891h-0.84l-11.74,51.4h-0.71l-13.15-51.4h-1.75l-13.15,51.4h-0.71l-11.74-51.4h-0.84l12.02,51.891h1.76l13.15-51.328h0.7Zm63.94,0h0.85l-16.88-26.226,16.52-25.665h-0.84l-15.89,24.75h-0.56l-15.82-24.75h-0.85l16.53,25.665-16.95,26.226h0.92l16.17-25.242h0.56Zm17.19-51.891h-0.85l18.78,28.618v23.273h0.77V514.141l18.77-28.618h-0.91l-18,27.563h-0.56Zm54.1,50.907v0.984h31v-0.7H1402v-0.633l29.88-49.5v-1.055h-31V486.3h29.88v0.562Z"/>
  <path id="logo" class="cls-3" d="M706.266,1194.7a45.969,45.969,0,0,0-.118,5.15v5.16H677.555v-1.17l0.234-.94-1.406-.24c-1.1,0-2.659-.07-4.688-0.23h-3.281l-0.469,2.58a45.646,45.646,0,0,1-1.172,4.92,22.619,22.619,0,0,1-1.406,4.22,7.125,7.125,0,0,0-.82,2.23,6.584,6.584,0,0,0,2.109-.71c1.326-.54,2.615-1.13,3.867-1.76a11.566,11.566,0,0,0,3.516-2.81l1.641-1.64h66.8l1.875,1.88a14.477,14.477,0,0,0,3.75,2.81c1.406,0.62,2.655,1.17,3.75,1.64a1.036,1.036,0,1,0,1.171-1.17,17.1,17.1,0,0,1-1.406-3.99q-0.7-2.34-1.172-4.68a11.9,11.9,0,0,0-.7-3.05c0-.47-1.252-0.62-3.75-0.47-1.875.16-3.281,0.23-4.219,0.23a2.052,2.052,0,0,1-.937.24c-0.315,0-.469.31-0.469,0.94l0.235,0.93-13.594.24q-13.359,0-13.36-.24a2.838,2.838,0,0,1,.7-1.05,6.664,6.664,0,0,0,1.171-2.46,15.728,15.728,0,0,0,.469-4.22v-2.58h-4.687Q706.382,1194.46,706.266,1194.7Zm-31.289,28.12v4.22l21.093,0.23h21.094l-5.859,4.93q-5.4,4.215-8.2,6.56l-2.344,1.87v6.8H660.445v4.22h40.313v14.76c0,10.01-.158,15.47-0.469,16.41a13.152,13.152,0,0,1-1.172,3.05,21,21,0,0,1-2.578,3.04,16.962,16.962,0,0,1-3.75,2.82c-1.406.62-2.109,1.17-2.109,1.64s0.153,0.7.468,0.7a30.375,30.375,0,0,0,3.047-.47,34.353,34.353,0,0,0,4.922-1.4,16.4,16.4,0,0,0,4.688-1.88,11.74,11.74,0,0,0,3.515-2.34,12.264,12.264,0,0,0,2.344-2.58,13,13,0,0,0,1.172-2.58c0.311-.94.469-6.4,0.469-16.41v-14.76h38.2v-4.22h-38.2v-6.8l2.109-1.64q2.109-1.635,8.438-6.79,6.327-5.4,8.437-7.04a13.637,13.637,0,0,0,2.578-2.34q0-.225-28.828-0.23t-29.062.23h0Zm121.64-30.23-0.469,1.87a27.635,27.635,0,0,1-1.523,5.74c-0.861,2.43-1.681,4.65-2.461,6.68q-1.176,2.58-3.281,6.8-1.88,3.75-4.453,8.44-2.11,3.75-4.688,7.73-2.582,4.215-3.047,4.92a7.818,7.818,0,0,0-1.406,2.11c-0.157.47-.117,0.71,0.117,0.71a8.252,8.252,0,0,0,2.227-1.18q1.873-1.17,3.515-2.34,1.874-1.41,3.985-3.28a59.714,59.714,0,0,0,4.453-4.45l2.109-2.35,0.235,14.77,0.234,14.76h1.875a5.862,5.862,0,0,0,3.047-.7,5.457,5.457,0,0,0,1.875-1.17,11.374,11.374,0,0,0,1.406-1.64l0.469-.71h27.187v2.11l0.235,2.11h1.64a7.437,7.437,0,0,0,2.813-.47,9.072,9.072,0,0,0,2.109-1.17,4.666,4.666,0,0,0,1.407-1.64l0.7-.94h31.64v-4.45H838.336v-6.8H868.57v-4.45H838.336v-6.8H868.57v-4.68H838.336v-7.5H868.57v-4.69H837.164l0.938-1.17a23.668,23.668,0,0,0,1.406-2.35,6.445,6.445,0,0,0,.7-2.57,17.74,17.74,0,0,0,.469-4.93v-3.51H828.727v14.53H815.6q-13.129,0-13.125-.23c0-.16-0.158-0.24-0.469-0.24s0.311-1.41,1.875-4.22a69.182,69.182,0,0,0,3.281-7.5,16.732,16.732,0,0,0,1.406-3.98l0.235-1.17H796.617Zm31.406,22.03v7.5H802.477v-7.5h25.546Zm0,12.18v6.8H802.477v-6.8h25.546Zm0,11.25v6.8H802.477v-6.8h25.546Zm-3.515,16.88v5.16l-22.969.23H778.805v4.45h45.7v1.64c0,1.1-.081,1.64-0.235,1.64a40.222,40.222,0,0,1-4.687-1.17q-4.455-1.17-4.922-1.4-0.236,0-6.328,4.68-6.1,4.935-7.734,6.1-1.643.93-4.454,2.58a58.967,58.967,0,0,1-5.39,2.57q-2.812,1.185-5.391,2.23a35.226,35.226,0,0,1-5.859,1.76,17.416,17.416,0,0,0-3.047,1.05,6.06,6.06,0,0,0,1.289,1.06,3.994,3.994,0,0,0,1.992.94c0.469,0,2.344-.32,5.625-0.94s6.328-1.33,9.141-2.11q4.449-1.17,8.2-2.35a22.822,22.822,0,0,0,4.922-2.1q1.637-.945,9.14-6.1t7.618-5.04q0.115,0.12.117,13.48v13.12h1.406a7.357,7.357,0,0,0,2.813-.7,6.692,6.692,0,0,0,3.046-1.99,11.184,11.184,0,0,0,2.11-3.17,8.733,8.733,0,0,0,.586-2.34q0.115-1.17.117-6.33c0.154-4.68.271-7.11,0.352-7.26s1.442,0.55,4.1,2.11q3.982,2.1,6.8,3.51a34.945,34.945,0,0,0,6.328,2.58,54.282,54.282,0,0,0,6.328,1.64,52.974,52.974,0,0,0,5.625.94c1.718,0.16,4.219.23,7.5,0.23a38.521,38.521,0,0,0,5.86-.23,1.37,1.37,0,0,0,1.171-.94l0.235-1.17c0-.15-0.235-0.24-0.7-0.24-0.315,0-1.722-.23-4.219-0.7s-5-1.01-7.5-1.64q-3.516-.93-6.8-2.11-2.812-.93-5.625-2.11-2.346-1.17-10.078-6.33l-7.734-5.15,19.453-.24h19.453v-4.45H854.977l-20.157-.23v-2.58l-0.234-2.58H824.508Z"/>
</svg>
