<svg xmlns="http://www.w3.org/2000/svg" width="400" height="200" viewBox="0 0 400 200">
  <defs>
    <style>
      .cls-1 {
        fill: #fdfdfd;
        fill-rule: evenodd;
      }
    </style>
  </defs>
  <path id="王漢宗粗明體繁" class="cls-1" d="M65.156,82.352H39.563a15.574,15.574,0,0,0-2.062-.234q-1.406-.046-1.125.984,0.327,0.984,1.781.75l1.5-.234H52.078A1.016,1.016,0,0,1,53.2,84.789V97.773A1.016,1.016,0,0,1,52.031,98.9H41.625l-1.594-.187q-1.875-.141-1.594.844,0.327,1.031,1.781.8l1.5-.235H52.078a1.016,1.016,0,0,1,1.125,1.172v14.672a1.016,1.016,0,0,1-1.172,1.125H37.125a16.434,16.434,0,0,0-2.016-.234q-1.453-.095-1.125.937,0.281,0.938,1.734.75l1.5-.234H74.766l1.594-.047q1.078-.421.141-1.36l-3.094-2.25q-1.453-1.125-2.953.563-1.594,2.436-2.812,1.875H57.984a1.016,1.016,0,0,1-1.125-1.172V101.242a1.015,1.015,0,0,1,1.172-1.125H69.891a2.582,2.582,0,0,0,2.063-.375,0.775,0.775,0,0,0-.422-1.078L68.719,96.6a1.951,1.951,0,0,0-2.859.047q-1.875,2.813-3.141,2.25H57.984a1.015,1.015,0,0,1-1.125-1.172V84.742a1.015,1.015,0,0,1,1.172-1.125h14.3q1.734,0.376,2.156-.75a5.717,5.717,0,0,0-1.359-1.312q-0.938-.8-1.875-1.453a2.232,2.232,0,0,0-3.234.375q-1.641,2.438-2.859,1.875h0Zm35.625-.891a1.016,1.016,0,0,1-1.172,1.125,17.328,17.328,0,0,1-4.547-.281q-1.406-.046-1.125.984,0.234,0.984,1.734.75a16.955,16.955,0,0,1,3.984-.234,1.016,1.016,0,0,1,1.125,1.172v4.5a2.944,2.944,0,0,0,.235,1.641,2.923,2.923,0,0,0,3-.234,1.2,1.2,0,0,0,.468-1.312q0-.7.985-0.7a0.946,0.946,0,0,1,.937,1.172v1.313a1.016,1.016,0,0,1-1.172,1.125h-4.546q-1.032.235-3.141-1.172-1.406-.656-1.453.75v8.25q-0.516,2.438,2.156,1.922,1.781-.234,1.5-1.547,0-.75,1.172-0.75h4.266a1.015,1.015,0,0,1,1.124,1.172l-0.093,1.453a1.323,1.323,0,0,1-1.313,1.406H97.453l-1.594-.188q-1.875-.139-1.594.8a1.323,1.323,0,0,0,1.734.844l1.547-.234h7.406q1.03,0,.844,1.265l-0.281,1.313a1.765,1.765,0,0,1-1.641,1.406H94.828a15.573,15.573,0,0,0-2.062-.234q-1.406-.047-1.125.843l0.281,0.938a3.751,3.751,0,0,0,1.594-.047,7.4,7.4,0,0,1,1.406-.234h8.531q1.125,0,.609,1.125-0.421,1.359-3.046,3.843a20.233,20.233,0,0,1-7.5,4.5q-1.687.329-1.5,1.266a2.883,2.883,0,0,0,1.547.094,21.647,21.647,0,0,0,6.609-2.063,16.15,16.15,0,0,0,7.078-6.7q0.75-1.406,1.5.047a19.1,19.1,0,0,0,12.234,8.766q1.5,0.563,1.36-.891a6.99,6.99,0,0,1,.984-1.687q1.688-1.407,1.219-1.641l-2.672-.281a17.722,17.722,0,0,1-11.25-4.922q-1.172-1.452,0-1.453h12.047a3.571,3.571,0,0,0,1.734-.235q0.7-.843-0.656-1.5-1.968-1.546-3.938-2.906a7.576,7.576,0,0,0-1.593,1.5q-1.594,2.438-2.813,1.875h-5.625q-1.031,0-.75-1.266l0.281-1.265a1.474,1.474,0,0,1,1.454-1.453h8.578q2.063,0.328,2.109-.844a3.6,3.6,0,0,0-1.406-1.313q-1.312-1.03-.516-1.265a2.433,2.433,0,0,0,.938-0.563q0.139-2.484.093-4.828a1.464,1.464,0,0,1,.657-1.453q2.063-1.078-.75-3.047-1.687-1.406-2.719-.375a2.955,2.955,0,0,1-2.109.984h-4.453a1.016,1.016,0,0,1-1.126-1.172V89.992a0.955,0.955,0,0,1,1.032-1.125,0.828,0.828,0,0,1,.937.938,1.741,1.741,0,0,0,.235,1.125,2.781,2.781,0,0,0,3.328-.656q0.141-2.672.094-5.344a1.015,1.015,0,0,1,1.171-1.125h5.391q1.875,0.281,2.062-.7a6.2,6.2,0,0,0-1.734-1.687l-0.937-.7a2.214,2.214,0,0,0-3.235.188,1.878,1.878,0,0,1-.468.563,2.953,2.953,0,0,1-1.688,1.125q-0.562,0-.562-0.937a1.212,1.212,0,0,1,.75-1.219,1.331,1.331,0,0,0,1.171-1.406,1.213,1.213,0,0,0-.937-1.078,32.438,32.438,0,0,0-3.234-.469,1.156,1.156,0,0,0-1.407,1.359v2.625a1.016,1.016,0,0,1-1.172,1.125h-5.25a0.937,0.937,0,0,1-1.125-.984,1.084,1.084,0,0,1,.7-1.172,2.568,2.568,0,0,0,.89-0.516,1.152,1.152,0,0,0-.562-1.922q-1.642-.327-3.282-0.516a1.139,1.139,0,0,0-1.453,1.313v2.672Zm-13.312,2.3q0.984,2.813,2.953,2.3a1.731,1.731,0,0,0,1.125-1.687Q91.03,80.9,86.2,78.555q-1.406-.468-1.547-0.047a17.824,17.824,0,0,1,2.813,5.25h0Zm24.562,2.766a1.016,1.016,0,0,1-1.172,1.125h-5.25a1.015,1.015,0,0,1-1.125-1.172V84.93a1.016,1.016,0,0,1,1.172-1.125h5.3a1.02,1.02,0,0,1,1.078,1.219v1.5ZM86.016,105.93q-0.844,2.813-3,2.437a3.291,3.291,0,0,0-1.594.141,0.979,0.979,0,0,0,.844.8q2.625,0.563,2.484,2.812a18.49,18.49,0,0,1,.094,2.531q-0.8,4.688.469,6.375,1.781,1.359,3.047-.234a5.075,5.075,0,0,0,.234-4.031,13.454,13.454,0,0,1-.938-7.36q0.984-3.748,2.109-7.5,2.062-7.265,4.266-14.531,0.8-1.64-.094-1.922a5.67,5.67,0,0,0-.891,1.734Zm-1.453-8.86q1.266,1.641,2.719.7a1.734,1.734,0,0,0,.75-1.828q-0.188-1.828-2.625-4.031a11.589,11.589,0,0,0-3.844-2.3,0.737,0.737,0,0,0-.281.469,27.75,27.75,0,0,1,3.281,6.984h0Zm20.719-3.328a1.016,1.016,0,0,1,1.125,1.172v2.672a1.016,1.016,0,0,1-1.172,1.125h-4.359a1.015,1.015,0,0,1-1.125-1.172V95.055a1.346,1.346,0,0,1,1.453-1.312h4.078Zm11.625,3.844a1.016,1.016,0,0,1-1.172,1.125h-4.546a1.016,1.016,0,0,1-1.126-1.172V94.867a1.016,1.016,0,0,1,1.172-1.125h4.547a1.016,1.016,0,0,1,1.125,1.172v2.672Zm-1.078,4.5q-1.734,2.438-2.906,1.875h-2.11q-1.078,0-.937-1.266l0.094-1.359a1.271,1.271,0,0,1,1.265-1.406h4.688q0.984,0,.984.656a3.525,3.525,0,0,1-1.078,1.5h0Zm34.313-19.125a1.016,1.016,0,0,1-1.172,1.125h-10.36L138,83.992q-1.547-.046-1.594-0.984,0.188-1.312-.515-1.5a3.99,3.99,0,0,0-.61,1.5,10.687,10.687,0,0,1-3.375,5.063q-1.782,1.547-.7,3.094a1.9,1.9,0,0,0,2.485.281,5.532,5.532,0,0,0,2.484-4.359,1.6,1.6,0,0,1,1.312-1.594L138.7,85.3H165.8a0.774,0.774,0,0,1,.844,1.125,12.223,12.223,0,0,1-1.36,3.141q-0.843,1.079-.187,1.641a5.186,5.186,0,0,0,2.062-1.312l1.875-1.641a2.605,2.605,0,0,1,1.875-.984,1.524,1.524,0,0,0,2.2-.937q-0.047-1.218-2.718-3.562a1.707,1.707,0,0,0-2.672.047,3.551,3.551,0,0,1-2.391,1.266H154.969a1.015,1.015,0,0,1-1.125-1.172q-0.423-2.156.89-2.391a1.485,1.485,0,0,0,1.407-1.453,1.516,1.516,0,0,0-1.266-1.172q-1.734-.375-3.328-0.609a1.136,1.136,0,0,0-1.406,1.313v4.359Zm5.484,9.328H141.281a18.284,18.284,0,0,0-2.109-.234q-1.407-.046-1.078,1.031,0.281,0.938,1.828.7a7.4,7.4,0,0,1,1.406-.234H162.75a2.256,2.256,0,0,0,2.062-.422,0.906,0.906,0,0,0-.468-1.125q-1.407-.937-2.813-2.062a5.445,5.445,0,0,0-1.64-1.031,27.005,27.005,0,0,0-1.875,1.969,3.445,3.445,0,0,1-2.391,1.406h0Zm7.687,7.734H134.531a14.251,14.251,0,0,0-1.969-.234q-1.5-.093-1.265.938,0.327,0.984,1.875.75a7.4,7.4,0,0,1,1.406-.235H149.25a1.016,1.016,0,0,1,1.125,1.172v12.75a1.9,1.9,0,0,1-.422,1.828,7.368,7.368,0,0,1-3.609-.187,4.761,4.761,0,0,0-1.594-.188q-0.469,1.031,1.312,1.36,2.859,1.359,2.907,2.953,0.047,0.748,1.593.375,3.891-1.125,3.516-4.641v-14.3a1.016,1.016,0,0,1,1.172-1.125h15.234a8.137,8.137,0,0,0,1.688-.094q1.077-.889-0.844-1.921l-1.875-1.406a2.216,2.216,0,0,0-3.328.328q-1.594,2.438-2.813,1.875h0Zm-31.031,17.532a5.941,5.941,0,0,0-1.219,1.593,0.637,0.637,0,0,0,.422.235q5.625-2.485,9.938-9.469,0.984-1.5,1.828-1.5a4.323,4.323,0,0,0,1.031.047q1.266-.7.094-1.922l-2.859-1.547q-1.407-.8-2.11.844a36.3,36.3,0,0,1-7.125,11.719h0Zm28.313-10.125a28.159,28.159,0,0,1,5.953,9.843,2.94,2.94,0,0,0,.844,1.454q1.968,1.452,2.859-.61a3.12,3.12,0,0,0,0-1.875q-1.407-5.437-9.328-10.125-1.782-1.031-1.969-.7-0.141.235,1.641,2.016h0Zm24.75-13.969a1.016,1.016,0,0,1-1.172,1.125,23.731,23.731,0,0,1-5.156-.234q-1.407-.093-1.266.844a2,2,0,0,0,.422,1.031,25.339,25.339,0,0,1,5.2-.422,0.836,0.836,0,0,1,.937,1.125,57.254,57.254,0,0,1-6.984,17.578,0.6,0.6,0,0,0,.281.656q0.375,0.046,1.969-1.734a27.673,27.673,0,0,0,5.3-10.735q0.468-1.264.469-.187v17.25q-0.562,2.2,1.922,2.156a2.1,2.1,0,0,0,1.593-.656A5.506,5.506,0,0,0,189,119.57V102.039q0-1.5.938,0,1.265,2.344,2.343,4.688a2.7,2.7,0,0,0,1.922,1.593,1.714,1.714,0,0,0,1.828-1.734q-0.562-3.657-5.625-7.078a2.577,2.577,0,0,1-1.406-2.3,1.151,1.151,0,0,1,1.172-1.406h4.734q1.688,0.376,1.735-.75l-1.688-2.109a4.236,4.236,0,0,0-1.453-1.359,13.591,13.591,0,0,0-1.219,1.594,2.925,2.925,0,0,1-2.2,1.406A1,1,0,0,1,189,93.414V82.352a1.275,1.275,0,0,1,.844-1.312l0.89-.516q1.03-1.593-.7-2.25-1.593-.422-3.187-0.7a1.046,1.046,0,0,0-1.5,1.125V93.461ZM213.8,79.867a3.444,3.444,0,0,1-2.344,1.219h-8.344q-0.843.141-2.765-1.172-1.453-.749-1.453.844v36.469a1.016,1.016,0,0,1-1.172,1.125q-1.923,0-3.844-.188a2.6,2.6,0,0,0-1.5.094l0.234,0.937a1.475,1.475,0,0,0,.375.844q1.5-.281,3-0.422H219.8a4.224,4.224,0,0,0,1.687-.187q0.375-.562-0.75-1.641a9.218,9.218,0,0,0-2.3-2.437l-0.469.562q-1.173,1.593-1.172.375V85.82q-0.422-1.452.891-1.547,1.593-.515,1.359-1.547-0.048-.984-2.3-2.906a4.517,4.517,0,0,0-1.547-1.266,12.281,12.281,0,0,0-1.406,1.313h0ZM190.781,90.742a0.719,0.719,0,0,0,.422.281,16.43,16.43,0,0,0,4.688-6.562,0.823,0.823,0,0,1,1.125-.75,1.119,1.119,0,0,0,1.125-.656q0.234-1.125-1.36-1.5L194.25,80.9q-1.361-.281-1.594,1.313a24.248,24.248,0,0,1-1.875,8.531h0Zm-11.015-1.031q1.077,2.672,2.906,1.266,1.125-1.218.187-3.937a17.707,17.707,0,0,0-2.2-3.75,5.119,5.119,0,0,0-1.594-1.359q-0.422.235,0.141,1.641a24.663,24.663,0,0,1,.563,6.141h0Zm33.375,2.813a1.016,1.016,0,0,1-1.172,1.125h-8.25a1.015,1.015,0,0,1-1.125-1.172V83.664A1.376,1.376,0,0,1,204,82.3h8.109a1.029,1.029,0,0,1,1.032,1.266v8.953Zm0,12.516a1.016,1.016,0,0,1-1.172,1.125h-8.25a1.015,1.015,0,0,1-1.125-1.172v-9a1.015,1.015,0,0,1,1.172-1.125h8.25a1.016,1.016,0,0,1,1.125,1.172v9Zm0,12.188a1.016,1.016,0,0,1-1.172,1.125h-8.25a1.016,1.016,0,0,1-1.125-1.172v-8.625a1.015,1.015,0,0,1,1.172-1.125h8.3a1.02,1.02,0,0,1,1.079,1.218v8.579Zm39.468-37.266a3.234,3.234,0,0,1-2.437-1.078,8.874,8.874,0,0,0-1.688-.844,4.517,4.517,0,0,0-.14,1.594V85.82a161.009,161.009,0,0,1-1.125,19.313q-1.782,9.375-10.875,14.3a3.157,3.157,0,0,0-1.406,1.125q0.14,0.28,1.968-.094a20.328,20.328,0,0,0,11.391-8.719,23.922,23.922,0,0,0,2.484-7.031,1.492,1.492,0,0,1,1.453-1.406h9.188a1.016,1.016,0,0,1,1.125,1.172v10.875a1.184,1.184,0,0,1-1.031,1.687l-3.938-.234q-0.891.984,0.656,1.265a3.9,3.9,0,0,1,1.875,1.735,1.579,1.579,0,0,0,1.829,1.265q4.734-.516,4.265-4.547V83.992a1.2,1.2,0,0,1,.938-1.266q2.764-1.312-.657-3.75a4.965,4.965,0,0,0-1.64-1.266q-2.3,2.813-3.422,2.25h-8.813Zm-15,.75h-6.281a1.472,1.472,0,0,1-1.406-.422l-0.938-.656q-1.875-1.218-1.875.375v27.8a5.5,5.5,0,0,0,.141,1.687,3.126,3.126,0,0,0,1.641.516,1.843,1.843,0,0,0,1.781-.656,22.589,22.589,0,0,0,.094-2.86,1.015,1.015,0,0,1,1.172-1.125h5.906a1.016,1.016,0,0,1,1.125,1.172v0.844q-0.422,2.344,1.969,1.922,2.25-.047,1.687-2.3V85.117a1.242,1.242,0,0,1,1.031-1.781,1.336,1.336,0,0,0,1.078-.984q0.046-1.125-2.156-2.953a1.68,1.68,0,0,0-2.625.094,3.444,3.444,0,0,1-2.344,1.219h0Zm23.813,0.469a1.016,1.016,0,0,1,1.125,1.172v7.172a1.016,1.016,0,0,1-1.172,1.125h-8.25A1.015,1.015,0,0,1,252,89.477V82.445q0-1.03,1.5-1.266h7.922Zm-23.578.75a1.016,1.016,0,0,1,1.125,1.172v7.922a1.016,1.016,0,0,1-1.172,1.125h-5.906a1.015,1.015,0,0,1-1.125-1.172V83.1q0-.937,1.593-1.172h5.485Zm24.7,19.031a1.016,1.016,0,0,1-1.172,1.125h-8.953a0.871,0.871,0,0,1-.984-1.125,57.632,57.632,0,0,0,.515-7.922,1.036,1.036,0,0,1,1.172-1.172h8.3a1.016,1.016,0,0,1,1.125,1.172v7.922Zm-23.578,2.062a1.016,1.016,0,0,1-1.172,1.125h-5.906a1.015,1.015,0,0,1-1.125-1.171V94.492a1.015,1.015,0,0,1,1.172-1.125h5.953a1.02,1.02,0,0,1,1.078,1.219v8.437ZM299.906,80.9a1.016,1.016,0,0,1-1.172,1.125,3.377,3.377,0,0,1-2.672-.609,4.617,4.617,0,0,1-.937-0.516q-1.641-.749-1.641.8V90.93q0,1.172-1.218-.094-1.266-1.266-1.688-.984-0.469.281-.469-0.844V84.133a1.014,1.014,0,0,1,.844-1.547q2.906-1.266-.515-3.844a7.489,7.489,0,0,0-1.782-1.547,7.771,7.771,0,0,0-1.359,1.219,3.342,3.342,0,0,1-2.3,1.172h-2.906a3.815,3.815,0,0,1-3.188-1.078q-1.454-.749-1.453.844V90.414a1.675,1.675,0,0,1-.187,1.172q-0.282.047-.469-1.219-0.282-1.359-.656-1.359a2.66,2.66,0,0,0-.516,1.547A12.161,12.161,0,0,1,273.8,94.3q-1.407,2.157.187,3.375a1.383,1.383,0,0,0,1.36.047,3.856,3.856,0,0,0,1.547-3,1.548,1.548,0,0,1,1.312-1.594,2.024,2.024,0,0,0,.8-0.141h9.094q1.125,0,.844,1.266-0.376,1.266-.75.938a2.918,2.918,0,0,0-1.547,1.078,3,3,0,0,1-2.157,1.078h-2.343q-1.22.328-3-1.219a6.861,6.861,0,0,0-1.688-.984,4.007,4.007,0,0,0-.141,1.547v22.922q-0.422,1.781.844,2.11a2.926,2.926,0,0,0,2.578-.375,4.123,4.123,0,0,0,.235-1.782v-7.64a1.015,1.015,0,0,1,1.172-1.125h2.3a1.015,1.015,0,0,1,1.124,1.172v4.875a2,2,0,0,1-.281,1.359,2.438,2.438,0,0,1-.75.141,3.06,3.06,0,0,0-1.64-.047,0.6,0.6,0,0,0,.421.89,3.622,3.622,0,0,1,1.641,1.875q0.141,0.8,1.641.563a2.965,2.965,0,0,0,2.672-2.344V101.852a1.361,1.361,0,0,1,.89-1.829q2.156-.7.61-2.3-1.266-1.171,0-2.109a5.127,5.127,0,0,1,1.968-.984q0.75-.046.75,1.031a1.007,1.007,0,0,0,1.078,1.453q2.814,0.422,2.626-1.781,0-.844,1.171-0.844h12.188q1.125,0,1.125.656a3.086,3.086,0,0,1-.984,1.969,3.473,3.473,0,0,1-2.391,1.359H295.969a15.587,15.587,0,0,0-2.063-.234q-1.406-.046-1.125.984,0.329,0.984,1.781.75l1.5-.234h19.079q1.78,0.281,2.062-.7a5.251,5.251,0,0,0-1.828-1.781q-1.312-1.03-.75-1.266,1.078-.422.7-2.109V85.727a1.141,1.141,0,0,1,.61-1.266q1.827-.749.14-2.391a4.884,4.884,0,0,1-.937-0.75,6.309,6.309,0,0,0-1.641-1.172,4.464,4.464,0,0,0-1.172.984,2.644,2.644,0,0,1-1.875.891q-0.984,0-1.031-.516a1.11,1.11,0,0,1,1.266-.984q1.827-1.5-.094-2.391a28.577,28.577,0,0,0-3.188-.562,1.077,1.077,0,0,0-1.5,1.172V80.9a1.061,1.061,0,0,1-1.265,1.125q-1.22,0-1.219-.75a1.052,1.052,0,0,1,.7-0.984,1.4,1.4,0,0,0,1.453-1.266,1.179,1.179,0,0,0-1.078-1.266q-1.687-.375-3.234-0.609a1.135,1.135,0,0,0-1.36,1.359V80.9Zm-13.265,1.078v1.734a0.938,0.938,0,0,1-.985,1.125,2.886,2.886,0,0,1-2.2-.75q-1.5-.89-1.5.7v5.859q0,1.125-.562,1.125-0.47-.046-0.469-1.172V82.117a1.146,1.146,0,0,1,1.125-1.266q1.734-.093,3.469-0.047a1.016,1.016,0,0,1,1.125,1.172h0Zm13.265,2.438v2.109q0,1.125-1.406,1.125a1.1,1.1,0,0,1-1.312-1.172V84.555a1.344,1.344,0,0,1,1.406-1.266,1.061,1.061,0,0,1,1.312,1.125h0Zm6,2.109a1.246,1.246,0,0,1-2.484-.047V84.367a1.245,1.245,0,0,1,2.484.141v2.016Zm5.766,0a1.016,1.016,0,0,1-1.172,1.125,1,1,0,0,1-1.078-1.172V84.367a1.129,1.129,0,1,1,2.25.141v2.016Zm-25.031,4.125q0,1.125-.8,1.125-0.75,0-.75-1.172V87.18q0-1.125.844-1.125,0.7,0,.7,1.266v3.328ZM299.906,92.1q0,1.125-1.406,1.125a1.1,1.1,0,0,1-1.312-1.172V89.992q0-1.125,1.453-1.125a1.119,1.119,0,0,1,1.265,1.266V92.1Zm6,0a1.246,1.246,0,0,1-2.484-.047V89.992a1.245,1.245,0,0,1,2.484.141V92.1Zm5.766,0a1.016,1.016,0,0,1-1.172,1.125,1,1,0,0,1-1.078-1.172V89.992a1.129,1.129,0,1,1,2.25.141V92.1Zm-27.234,6.516a1.015,1.015,0,0,1,1.124,1.172v2.438a1.015,1.015,0,0,1-1.171,1.125h-2.3a1.016,1.016,0,0,1-1.125-1.172v-2.2a1.377,1.377,0,0,1,1.406-1.359h2.063Zm10.546,12.094q-0.329,2.579,2.907,1.594a1.068,1.068,0,0,0,.75-1.313q0-.562,1.171-0.562h9.8q1.125,0,1.125.843a1.661,1.661,0,0,0,.235,1.032,2.123,2.123,0,0,0,1.687.328q1.548-.234,1.641-0.844,0.141-2.436.094-4.875a1.511,1.511,0,0,1,.75-1.5,1.572,1.572,0,0,0,.75-1.219,3.577,3.577,0,0,0-1.688-1.875,6.3,6.3,0,0,0-1.641-1.172,4.481,4.481,0,0,0-1.171.985,2.78,2.78,0,0,1-2.016.89h-9.937a3.943,3.943,0,0,1-2.719-1.078q-1.782-.936-1.735.61v8.156Zm14.625-6.469a1.016,1.016,0,0,1,1.125,1.172v2.625a1.016,1.016,0,0,1-1.172,1.125h-9.8a1.015,1.015,0,0,1-1.125-1.172v-2.344a1.432,1.432,0,0,1,1.406-1.406h9.562Zm-24.047,4.219a1.015,1.015,0,0,1-1.171,1.125h-2.3a1.015,1.015,0,0,1-1.125-1.172v-2.672a1.015,1.015,0,0,1,1.172-1.125h2.343a1.02,1.02,0,0,1,1.078,1.219v2.625Zm21,9.094a1.763,1.763,0,0,1-1.64,1.406h-1.36q-1.172,0-.984-0.328a2.532,2.532,0,0,0,0-2.156,6.115,6.115,0,0,0-4.031-3.235,1.175,1.175,0,0,0-.375.328,19.021,19.021,0,0,1,1.125,3.985q0.563,1.405-.563,1.406a36.294,36.294,0,0,1-5.906-.188q-1.828-.139-1.5.891,0.234,0.984,1.734.75l1.5-.234h21.422a2.169,2.169,0,0,0,2.063-.422q0.421-.376-0.469-1.125l-3.984-2.906a6.613,6.613,0,0,0-1.5,1.359,1.94,1.94,0,0,1-.422.469,3.635,3.635,0,0,1-2.531,1.406q-1.173,0-.188-1.125l1.641-1.547a2.538,2.538,0,0,1,1.312-.562,0.987,0.987,0,0,0,1.032-1.266,1.965,1.965,0,0,0-1.547-.938,20.41,20.41,0,0,0-2.25-.609q-1.407-.375-1.829,1.359a15.5,15.5,0,0,1-.75,3.282h0Zm16.126-31.782a4.159,4.159,0,0,0-1.172,1.641q0.28,0.376,2.109-.75a11.011,11.011,0,0,0,1.547-1.219q1.125-.984.89,0.469a38.277,38.277,0,0,1-.562,3.8,1.424,1.424,0,0,1-1.453,1.359l-2.3-.187a1.142,1.142,0,0,0,0,1.078q0.282,0.891,1.734.75,1.407-.093,1.125,1.031-0.562,2.531-1.312,5.016-1.173,2.486,1.969,2.156a1.323,1.323,0,0,0,1.359-1.453,1.621,1.621,0,0,1,1.547-1.406H335.3q1.125,0,1.125.234a1.909,1.909,0,0,1-1.172,1.5,7.182,7.182,0,0,1-3.141-.141,2.988,2.988,0,0,0-1.64-.094,0.675,0.675,0,0,0-.047.422,4.911,4.911,0,0,1,2.156,2.953q0.282,1.453.75,1.406a2.844,2.844,0,0,1,1.406,1.078l1.594,2.625a2.23,2.23,0,0,0,2.438,1.453q1.873-.7.937-2.719a0.9,0.9,0,0,1,.422-1.453l2.2-1.312a3.04,3.04,0,0,1,1.969-.8q1.828-.093,1.265-1.5a6.478,6.478,0,0,0-3.093-1.406,4.25,4.25,0,0,0-1.594-.375,21,21,0,0,1-2.109,3.562q-1.173,1.313-1.969.8-0.8-.281.375-0.984a5.866,5.866,0,0,0,2.531-3.844,1.691,1.691,0,0,1,1.594-1.406h3.094a1.7,1.7,0,0,0,2.062-.656,5.51,5.51,0,0,0-1.641-1.641,25.514,25.514,0,0,0-2.156-1.687,3.281,3.281,0,0,0-1.125,1.125q-0.984,1.266-.937-0.047l0.187-1.312a1.434,1.434,0,0,1,1.407-1.406h2.624q1.548,0.235,1.829-.469a8.185,8.185,0,0,0-1.125-1.687L345,89.617q-1.266-1.406-2.578.328l-0.984,1.219q-0.236,0-.141-1.125l0.141-1.172q0.093-1.312,1.124-1.125a1.015,1.015,0,0,0,1.032-1.078q-0.187-1.125-2.2-2.812-1.407-1.406-2.438-.234a3.445,3.445,0,0,1-2.391,1.406h-6.328a4.88,4.88,0,0,1-1.875-.422q-1.546-.89-0.89-1.641a2.7,2.7,0,0,1,1.969-.844h12.609q1.734,0.281,1.969-.516,0.093-.7-1.125-1.359l-1.875-1.406a6.794,6.794,0,0,0-1.688-1.031,12.317,12.317,0,0,0-1.734,1.594,4.114,4.114,0,0,1-2.625,1.5h-4.641q-1.171,0-.937-0.469a1.237,1.237,0,0,1,.984-0.375,0.97,0.97,0,0,0,1.313-.937,0.785,0.785,0,0,0-.469-0.8q-1.5-.609-3-1.078a1.262,1.262,0,0,0-1.828,1.031,19.547,19.547,0,0,1-3.7,7.5h0Zm23.062,0.984q-0.7,1.875-.234,1.781a7.051,7.051,0,0,0,1.734-1.266q1.359-1.452,1.734-.328a24.942,24.942,0,0,0,2.532,5.859q0.843,1.313-.657,2.719a16.41,16.41,0,0,1-4.687,3.188q-1.454.469-.984,1.172a15.348,15.348,0,0,0,7.265-2.859,1.723,1.723,0,0,1,2.438.234,17.064,17.064,0,0,0,6.187,4.265,4.559,4.559,0,0,1,2.484-2.437l1.688-.516q0.609-.609-0.047-0.844a18.325,18.325,0,0,1-7.734-2.906,1.383,1.383,0,0,1-.375-2.156,28.55,28.55,0,0,0,3.7-7.453,1.763,1.763,0,0,1,1.641-1.406,13.946,13.946,0,0,0,2.3-.094,0.615,0.615,0,0,0,.282-0.656,5.745,5.745,0,0,0-1.547-1.453l-1.407-1.031a2.2,2.2,0,0,0-3.14.188l-0.7.7a3.241,3.241,0,0,1-2.25,1.125h-3.985q-1.125,0-.656-0.984a1.487,1.487,0,0,1,.984-1.031q1.923,0,1.641-1.453-0.891-1.03-3.8-1.641a2.645,2.645,0,0,0-1.594-.234,42.879,42.879,0,0,1-2.812,9.516h0Zm9.234,3.563q-0.843,1.406-1.922.047a27.455,27.455,0,0,1-2.671-4.687q-0.657-1.5-.469-1.687a2.493,2.493,0,0,1,1.312-.187h4.828q1.125,0,.844,1.219a17.7,17.7,0,0,1-1.922,5.3h0Zm-17.859-4.078a0.988,0.988,0,0,1,.984,1.266l-0.187,2.25q-0.187,1.406-1.219,1.406c-0.688,0-.984-0.078-0.891-0.234q0.75-2.718-2.812-3.516a2.773,2.773,0,0,0-1.641-.234,0.9,0.9,0,0,0,.329,1.172,9.234,9.234,0,0,1,.937,1.406q0.8,1.406-.328,1.406h-2.672q-1.125,0-.844-1.219l0.422-2.109a1.936,1.936,0,0,1,1.781-1.594h6.141Zm0.047,9.094q-0.282,1.5-1.266,1.5t-0.844-.375q0.7-2.437-2.343-3.141a10.813,10.813,0,0,0-1.688-.328,1.065,1.065,0,0,0-.375.375,5.3,5.3,0,0,0,.891,1.594l0.281,0.422q0.845,1.453-.328,1.453h-3.047a0.836,0.836,0,0,1-.937-1.125l0.422-1.875a1.62,1.62,0,0,1,1.546-1.406h7.078q1.078,0,.8,1.594Zm3.562,14.156a4,4,0,0,1-2.062.656h-5.625q-3.329-.139-6.516-0.468a4.529,4.529,0,0,0-1.687,0,4.982,4.982,0,0,0,.281,1.968l0.375,1.875q0.188,2.484,1.734,2.532a1.281,1.281,0,0,0,.985-1.172,1.152,1.152,0,0,1,.375-1.125l11.531-1.172q1.406-.141,1.406.984v6.469q0,1.5.657,1.734,3.281,0.8,3-2.343V113.1a1.265,1.265,0,0,1,1.124-1.36,78.415,78.415,0,0,0,9.75-1.969,1.869,1.869,0,0,1,2.2.61q1.593,2.859,2.812,3.515a1.535,1.535,0,0,0,1.641-.281,2.164,2.164,0,0,0,.187-2.812,14.612,14.612,0,0,0-8.344-5.532,0.678,0.678,0,0,0-.234.469,6.851,6.851,0,0,0,1.36,1.266q1.17,1.266.046,1.547-5.437.891-10.312,1.218-1.687.095-.141-0.843a38.815,38.815,0,0,0,5.86-4.219,2.5,2.5,0,0,1,1.968-.8,1.427,1.427,0,0,0,1.407-.281q0.607-1.359-1.407-2.156a6.361,6.361,0,0,1-1.312-.657,1.649,1.649,0,0,0-2.391.563,34.431,34.431,0,0,1-8.672,8.109h0Zm9.375,5.578a46.269,46.269,0,0,1,7.5,4.922q1.688,1.781,3.047,1.5,2.156-1.219.235-3.328a12.4,12.4,0,0,0-3.75-2.484,27.937,27.937,0,0,0-6.938-2.25q-1.405-.141-1.594.187-0.094.984,1.5,1.453h0ZM324.8,120.508q-1.312.047-1.266,0.89a3.97,3.97,0,0,0,2.016.141,27.576,27.576,0,0,0,10.031-2.953,2.478,2.478,0,0,1,2.016-.516l0.844,0.141a0.959,0.959,0,0,0,.8-1.5,8.209,8.209,0,0,0-2.015-1.688,2.129,2.129,0,0,0-3.047.375,20.24,20.24,0,0,1-9.375,5.11h0Z"/>
</svg>
